<?xml version="1.0" encoding="utf-8"?>
<!-- Generator: Adobe Illustrator 19.1.0, SVG Export Plug-In . SVG Version: 6.00 Build 0)  -->
<svg version="1.1" id="Layer_1" xmlns="http://www.w3.org/2000/svg" xmlns:xlink="http://www.w3.org/1999/xlink" x="0px" y="0px"
	 viewBox="0 0 48 48" style="enable-background:new 0 0 48 48;" xml:space="preserve">
<style type="text/css">
	.st0{fill:#808080;}
</style>
<path class="st0" d="M46.7,41.2c0,0-5.4-1.5-17.1-2.5c0,0-5-0.6-4.6-5.8c0,0,1.5-10.7-7.3-15.4c0,0-1.3-1.3-7.6-2.3
	c-0.3,0-0.6-0.2-0.8-0.4c-0.3-0.3-0.7-0.6-1.3-0.7c0,0-0.5,0.1-0.6-0.5c0-0.1,0-0.2,0.1-0.4c0.1-0.3,0.4-1.2-0.5-3.5
	c-0.2-0.5,0.2-1,0.7-1c0,0,0,0,0,0c0,0,0.7-0.4,1-1.1C9,7.5,9.1,7.3,9.3,7.1c0.5-0.5,1.2-1.4,0.6-1.4c0,0-4,1.4-4.5,2.2
	c0,0-0.2,0.4-0.5,0C4.9,7.9,4.8,7.8,4.7,7.8C3.9,7.3,0,5.1,0,5.9c0,0,1.3,2.6,3.1,3.1c0.1,0,0.1,0.1,0.1,0.2c-0.2,0.3-0.7,1-0.4,1.1
	c0.1,0,0.1,0.1,0.1,0.1c-0.1,0.5-0.3,2.5,0.2,3.2c0,0,0.7,1.7,0.1,3.1c-0.2,0.5-0.2,1-0.1,1.5c0.3,1.5,0.9,4.6,1.1,6.6L4.2,31
	c0,0-0.1,0.7,1,1.1c0,0,0.6-0.1,0.9-1.3c0,0-0.2,0.2-0.3,0.3c0,0,0.2-0.3,0.1-0.5c0,0-0.1,0.3-0.3,0.3c0,0,0.2-0.2,0.1-0.4
	c0,0-0.1,0.1-0.2,0.2c0,0,0.2-0.3-0.2-0.6c-0.5-0.3-0.3-3.7-0.1-4.7c0-0.2,0.1-0.5,0.2-0.7c0.3-0.6,0.8-2.3,0.4-3c0,0,0.5,0.5,1,1.3
	c0.5,0.7,0.7,1.6,0.5,2.5c-0.3,1.9-0.8,3.6-0.8,3.6c0,0.1,0,0.3,0.1,0.4c0,0-0.5,1,0.2,1.4c0,0,0.5,0.9,0.6,0.2c0,0,0.9,0.3,0.3-0.6
	c0,0,0-0.2,0.3,0c0,0,0.6,0.3,0.1-0.5c0,0-0.7-1.2,0.2-4.3c0-0.1,0.2-0.1,0.2,0c0.4,0.5,1.5,1.9,3.2,2.8c0.3,0.1,0.4,0.4,0.4,0.7
	c-0.1,0.6,0,1.7,1.2,1.9c0,0,0.6,0.1,0.8,2.2c0,0,1.2,5.7-0.2,5.6c0,0-8.8-0.6-9.1,0.5c0,0.1,0,0.1-0.1,0.1c-0.2,0.1-1,0.4-0.7,0.5
	c0.1,0,0.3,0.1,0.2,0.1C4,40.4,2.9,41,3.3,41c0.4,0,6.5,0.2,6,0.1c0.7,0,6.5,0.5,7.8,0.3c0.3,0,0.3-0.3,0.4-0.6c0,0,0.3-0.2,0.1-1
	c0,0-0.4-2.1-0.7-3C17,36.6,17,36.3,17,36.1c0-0.7-0.1-2.1-0.2-2.4l0.3,0c0.2,0,0.4,0.1,0.6,0.2c0.6,0.4,2.1,1.3,2.4-1.2
	c0-0.1,0.1-0.2,0.2-0.2c0.2,0,0.6,0.1,0.8,1.4c0,0,1,6.8,6.2,7.2c0,0,19.5,1.2,20.2,1.2C47.4,42.3,49.1,41.7,46.7,41.2z M2.9,10.7
	c0,0,0.1-0.8,0.5-0.4C3.4,10.3,3.3,11.3,2.9,10.7z M5.8,10.7c0,0,0-0.9,0.8-0.3C6.6,10.3,6.5,11.4,5.8,10.7z"/>
</svg>
