<?xml version="1.0" encoding="utf-8"?>
<!-- Generator: Adobe Illustrator 19.1.0, SVG Export Plug-In . SVG Version: 6.00 Build 0)  -->
<svg version="1.1" id="Layer_1" xmlns="http://www.w3.org/2000/svg" xmlns:xlink="http://www.w3.org/1999/xlink" x="0px" y="0px"
	 viewBox="0 0 48 48" style="enable-background:new 0 0 48 48;" xml:space="preserve">
<style type="text/css">
	.st0{fill:#808080;}
</style>
<path class="st0" d="M40.1,33.7c0,0-0.3-0.4,0.1-0.2l2.4,1.6c0,0-1.1-1.2-0.2-0.6c-0.1-0.1-1.5-1.3-1.1-1.3l4.1,2.2
	c-0.1,0-0.6-0.5-0.2-0.5c0,0,0.6,0.4,0.7,0.2c0,0,0.2,0.3,0.4,0.2c0,0,0-0.2-1.1-0.8c0,0-1.5-0.9-0.7-0.6c0,0-0.2-0.2-0.4-0.3
	c0,0-2.8-1.8-2.5-2.1L41,30.7c0,0-5.6-6.2-8.5-8.3c-0.6-0.5-1.1-1-1.6-1.6c-0.8-1.2-2.9-3.6-8.1-7c-0.9-0.6-1.8-1.4-2.6-2.2L16,6.8
	c0,0-3.2-3.3-8.3-0.5C7.5,6.4,7.2,6.5,6.9,6.6L4.3,7.5c0,0-4.1,1.3-4.3,3.1c0,0,2,0.4,3.6,0.2c0.2,0,0.4,0,0.5,0
	c0.8,0,2.9,0.1,3.4,0.7c0,0,1.4,1,1.8,4.2c0,0,0.4,2.5,1.7,4.8c0.3,0.4,0.5,0.9,0.7,1.4c0.4,0.9,0.9,2.4,1.3,3.4
	c0.3,0.9,0.8,1.7,1.5,2.4c0.6,0.7,1.5,1.5,2.2,1.9c0.3,0.2,0.6,0.5,0.7,0.8l1.3,2.9c0,0.1,0,0.2,0,0.3c-0.1,0.2-0.1,0.4,0.1,0.6
	c0.1,0.1,0.1,0.2,0.2,0.3c0,0.3,0,1-0.4,1.2c0,0-4.7,4.1-6.5,4.9c-0.2,0.1-0.4,0.1-0.7,0.1c-0.2,0-0.4-0.1-0.7,0
	c-0.2,0.1-0.3,0.1-0.5,0c-0.4,0-1.2-0.1-1.3,0c0,0-1.4,0-1.5,1.1c0,0,0.5-0.6,1.2-0.5c0,0-0.1,0.9,0.9,0.4c0,0,0.5-0.1,0.5,0.1
	c0,0,0.1-0.1,0.2-0.1c0,0,0.3,0,0.5,0.1c0,0,1.4,0.1,1.4-0.1c0,0,0.3,0,0.4,0.1c0,0,1,0.2,1.3-0.4c0.1-0.1,0.2-0.2,0.3-0.2
	c0.6,0,2.2,0,2.9,0.3c0.1,0.1,0.2,0.2,0.1,0.3c-0.1,0.2-0.2,0.5-0.1,0.6c0,0,0.6-0.6,0.7-0.5c0,0,0,0.6,0.6,0.6l2.7-0.1
	c0,0,0.3-0.3,0.8-0.2c0,0,0,0.3,0.6,0.3c0,0,0.7,0.2,0.8-0.3l0.3,0.4c0,0,0.1-0.2,0-0.5c0.1,0,1.4,0.5,1.2-0.8c0,0,0.6-0.2,0.8,0.7
	c0,0,0.2-1.6-0.9-1.4c0,0-0.3,0.1-0.4,0.2c0,0-0.3,0-0.5,0.1c-0.3,0.2-0.1,0,0,0c0,0,1.7-3.2,3.5-4.1c0,0,1-1.2,0.6-2.8
	c-0.1-0.3,0.1-0.6,0.4-0.8c0.7-0.4,2.2-1,3.7-0.7c0,0,2.7,0.2,4.2,1.5l2.1,1.2c0.4,0.3,0.8,0.6,1.2,0.9c0.9,0.8,2.5,2.2,2.8,2.6
	c0,0,0.4,0.5,0.7,0.3c0,0,0.4,0.7,1,0.6c0,0,1.6,1.3,2.1,1.4c0,0,0.4-0.1-1.2-1.1c0,0-1.5-1.3-1-1.2l2.3,1.3c0,0,0.4-0.1,0.9,0.4
	c0,0,0.2-0.1,0.5,0.2L48,41L40.1,33.7z M10.6,8.3c-0.5,0-0.9-0.3-0.9-0.6c0-0.4,0.4-0.6,0.9-0.6c0.5,0,0.9,0.3,0.9,0.6
	C11.5,8,11.1,8.3,10.6,8.3z M18.3,41.4c0,0,0-0.7,1.1-0.2l0.6,0.5C19.9,41.6,18.6,41.3,18.3,41.4z M25.3,34.9c0.3,1,0.1,2.1-0.5,3
	c-0.6,0.8-1.6,2-1.9,2.2c0,0-1.2,0.8-1.2,1.1s-1.5,0.5-1.5,0.5s-0.1-1.7-2-1.2c0,0-1.2,0.3-2.3,0c0,0-1.1-0.2-0.3-0.8l4.4-3.5
	c0.1-0.1,0.2-0.2,0.4-0.2c0.6-0.3,2.6-1.6,1.6-3.4c-0.1-0.1,0-0.2,0.1-0.2C22.7,32.5,24.7,33.1,25.3,34.9z"/>
</svg>
