<?xml version="1.0" encoding="utf-8"?>
<!-- Generator: Adobe Illustrator 19.1.0, SVG Export Plug-In . SVG Version: 6.00 Build 0)  -->
<svg version="1.1" id="Layer_1" xmlns="http://www.w3.org/2000/svg" xmlns:xlink="http://www.w3.org/1999/xlink" x="0px" y="0px"
	 viewBox="0 0 48 48" style="enable-background:new 0 0 48 48;" xml:space="preserve">
<style type="text/css">
	.st0{fill:#808080;}
</style>
<path class="st0" d="M42.1,15.7c0,0-4.5,2.4-5.6,2c-1.2-0.4-2.9-1.2-4.4-0.7c-1.5,0.6-4.4-3.3-4.4-3.3s-1.5-1.8-2.2,0.4
	s-0.5,4.4-0.5,4.4s-8.1-2.8-12.5,1.1c0,0-4.1-9.6,2.6-13.6c0.7-0.4,1.5-0.7,2.4-0.9c0,0,3.8-0.8,2.4-5.1c0,0-0.8,1.6-2.9,2.4
	c-0.1,0-0.2,0.1-0.4,0.1c-0.5,0.1-1,0.3-1.5,0.3V2.2c0,0-0.7,1-1.6,0.9l0.2-0.5c0,0-0.8,0.5-2.6,1.2c0,0-0.6,0.2-0.9,1
	c0,0-0.2-0.6,0.1-0.8c0,0-5.3,3.3-3.5,7.3l0,0c-0.1,0-0.5,0.2-0.7-0.4c0,0,0,3,0.4,4.1l0,0.2l-0.4-0.2c0,0,0.2,0.9,0.3,2l-0.2,2.9
	c-0.1,0.2-0.1,0.4-0.2,0.6c0,0-1,1.7-0.4,2.6c-0.9,1.5-2.8,5.6,0.1,10.6c0,0-2.9,15.3,8.6,11.9c0,0,0.1-2.7-0.3-2.9
	c-0.4-0.2-2.9-2.5-3.2-2.5s2.4-0.7,2.6-0.6c0.2,0.1,1.6-0.1,1,2.6l0.1,4c0,0,2.4,3.5,4.8-0.4l2.5-5.7c0,0,1.5-0.8,1.5,0.7
	c0,0-1.2,4.6-0.1,5.7c0,0,1.6,1.8,4,1.7c2.5-0.1,3.5-0.7,2.7-2.8c0,0-2.4-3.3-0.4-5.8c0,0,6.5-5.5,6.5-6c0,0,1.4-2.3,2.1-2.4
	c0,0,3.6-3.8,3.6-4.8c0-1,1.1-8.1,2.1-8.9C43.7,17.4,45.3,13.5,42.1,15.7z"/>
</svg>
