<?xml version="1.0" encoding="utf-8"?>
<!-- Generator: Adobe Illustrator 19.1.0, SVG Export Plug-In . SVG Version: 6.00 Build 0)  -->
<svg version="1.1" id="Layer_1" xmlns="http://www.w3.org/2000/svg" xmlns:xlink="http://www.w3.org/1999/xlink" x="0px" y="0px"
	 viewBox="0 0 48 48" style="enable-background:new 0 0 48 48;" xml:space="preserve">
<style type="text/css">
	.st0{fill:#808080;}
</style>
<path class="st0" d="M47.5,18.7c0,0,0.1-0.3,0.5-0.3c0,0-0.1-1.2-1.2-1.3c0,0,0,0,0,0c0-0.1,0-0.2,0-0.3c0,0,0-0.1,0-0.2l1-0.2
	c0,0-0.2-0.5-0.4-0.5c0,0,0.2-0.5-0.3-0.7l0.6,0l-0.4-0.5l0.6,0.3l-0.3-0.3c0,0,0.5-0.6-0.8-0.9c-0.1-0.3-0.3-0.6-1-0.4
	c0,0,0-0.1,0.1-0.2l0.7,0l-0.2-0.1c0,0,0.4-0.3-0.1-0.4L46.2,12l-0.1,0.1l0,0c-0.1-0.4-0.7-0.8-2-0.9c0,0-4.8,0.8-8,1.6
	c-1,0.2-2,0.1-2.9-0.5l-0.7-0.5c-0.4-0.3-0.8-0.6-1.1-0.9c-2-1.9-10-8.8-18.4-3c0,0-2.8,2.4-3.9,3.4c-0.5,0.4-1,0.7-1.6,0.8
	C6.8,12.2,6.1,12.2,5,12c0,0,2.3-2.6,0.6-5c0,0-2.1-2.4-4,0.3c0,0-0.6,0.8-0.8,1.9C0.8,9.5,0.7,10,0.5,10.4
	c-0.3,0.7-0.7,1.8-0.2,2.1c0,0,0,0.7,0.4,0.8c0,0-0.1-0.5,1-1.3c0.1-0.1,0.3,0,0.2,0.1c0,0.7-0.1,2.5-0.3,3.2c0,0,0.5,0.5,0.4,1.4
	c0,0,0.1,2.1,0.8,2.4c0,0-0.7,2.9-0.1,3c0,0-0.2,1.5,0.2,1.9c0,0-0.4,1.3,0,1c0,0,0.3,0.7,0.3,1.1c0,0-0.6,1.3,0.1,0.9
	c0,0-0.2,2.9,0.8,1.8c0.1-0.1,0.2-0.1,0.4-0.1h0c0,0-0.4,1.5,0.4,1.5c0.1,0,0.2,0.1,0.2,0.2c0,0.4,0,0.9,0.7,0.6c0,0,0.2,1.2,0.9,1
	c0.1,0,0.3,0,0.3,0.2c0.1,0.3,0.5,0.7,1.3,0.1c0,0,0.3-0.2,0.6,0.2c0.1,0.2,0.3,0.4,0.6,0.5l1.8,0.8c0.3,0.1,0.4,0.5,0.2,0.8
	c-0.7,0.9-2,2.6-2.3,2.8c0,0-0.4,0.3-0.9,1.4c0,0-1,1.1-2.3,0.5c0,0-0.3-0.1-0.4,0.3c0,0,0.3-0.1,0.3,0.1c0,0,0,0.3,0.5,0.3
	c0,0-0.4,0.7-1.8,0.6c0,0-0.7,0.2-0.7,0.6c0,0,0.4-0.3,0.5-0.2c0,0,0.2,0.5,1.1,0.2c0,0,0.2-0.1,0.3,0c0,0,0.2,0.2,0.5-0.2
	c0,0,1.6-0.9,1.8-0.3c0,0-0.9,1.3,0,1.4c0,0-0.2-0.3,0.1-0.3c0,0,0.8-0.7,0.7-1.3c0,0,0.7-1.2,0.9-0.9c0,0,0.7,0.8,0.3,1
	c0,0,0.2,0.3,0.5-0.1c0,0,0.2-0.7-0.4-1.3c0,0-0.5-0.4-0.1-1c0,0,0.5-1.1,0.8-0.8c0,0,0.4,0.2,0.9,0.1c0,0-0.7-0.5-0.6-0.9
	c0,0,0.6-0.8,0.9-1.3c0.1-0.2,0.4-0.3,0.6-0.3c1,0.1,3.7,0.3,5.2-0.4c0.1-0.1,0.3,0,0.3,0.2c-0.1,1.1-0.4,4.3-1.3,4.7
	c0,0-1.1-0.4-1.2-0.2l0.2,0.5c0,0-0.5,0.3-2.6,0.2c0,0-0.7,0-0.7,0.6c0,0,0.3-0.3,0.6,0c0,0,0.4,0.3,1.3,0.2l1.8,0.1
	c0,0-1.6,0.4-1.2,1.4c0,0,0.5-0.6,1.4-0.6c0,0,0.4-0.1,0.7-0.4c0,0,1.2-0.3,1-0.9c0,0,0.2-0.8,0.5-0.4c0,0,0.1,0.2,0.2,0.3
	c0,0,0,0.1-0.1,0.2c0,0,0.2,0.1,0.4-0.1c0,0,0.4-0.6-0.1-0.9c0,0-0.6-0.2-0.4-0.7l1-4.7c0.3-1.5,1.9-2.4,3.4-1.7c0,0,0.1,0,0.1,0
	c0,0,0.8,0.5,2,0.1c0,0,1.5-0.2,2,0.3c0,0,0.7,0.3,1-0.6c0-0.1,0.2-0.2,0.3-0.1c0.2,0.1,0.6,0.3,0.8-0.1c0,0,1.6,1.2,1.9-0.5
	c0-0.1,0.1-0.1,0.2-0.1c0.1,0,0.2-0.1,0.5-0.4c0,0,0.4-1.2,0.5-2.3c0-0.4,0.4-0.6,0.8-0.6c0.9,0.2,2.6,0.1,4.3-2l3.4,1.9
	c0,0,0-0.1,0-0.3c0-0.1,0-0.3,0.1-0.4c0.1-0.1,0.3-0.3,0.4-0.1c0,0,0.3,1.1,0.5,0.6c0,0,0.1-0.1,0.2-0.3c0.3,0.4,0.6,0.9,0.9,1.4
	L42.6,28l0.6,0.6l-0.5-0.8l0.8,0.6l-1.2-1.2c0.1-0.1,0.2-0.1,0.3-0.1c0,0,0.5,0.3,1-0.5c0,0,0-0.1,0.1-0.1l0,0
	c0.3,0.2,0.7,0.4,0.8,0.6c0,0,0-0.3-0.1-0.5c-0.1-0.2,0.3-0.2,0.5,0.1l-0.3-0.8l0.5,0.7l-0.4-0.8l0.6,0.6l-0.4-0.8l0.6,0.5
	c0,0-0.1-0.9-0.7-1l-0.5,0l0,0c0,0,0-0.1,0-0.1s0.3-0.1,0.6-0.3c0.3-0.2,0.7-0.3,1-0.1l0.1,0.1l-0.2-0.4l0.6,0.4L46,23.9l0.6,0.5
	l-0.5-1l0.6,0.5l-0.3-0.7l0.5,0.4l-0.4-0.8l0.5,0.6l-0.4-0.8l0.4,0.4l-0.2-0.5c0,0,0.8,0.7,0.6-0.2l-1.3-1.2c0,0,0,0,0-0.1l0,0
	c0.4,0,0.9,0,1.1,0.1c0,0,0.1-0.4-0.2-0.5l0.3,0.1c0,0,0-0.6-0.2-0.8l0.4,0.2L47,19.3l0.7,0.1L47.3,19l0.6,0.1L47.5,18.7z M2.5,9.2
	C2.3,9.2,2.1,9,2.1,8.8c0-0.2,0.2-0.4,0.4-0.4c0.2,0,0.4,0.2,0.4,0.4C2.8,9,2.7,9.2,2.5,9.2z"/>
</svg>
