<?xml version="1.0" encoding="utf-8"?>
<!-- Generator: Adobe Illustrator 19.1.0, SVG Export Plug-In . SVG Version: 6.00 Build 0)  -->
<svg version="1.1" id="Layer_1" xmlns="http://www.w3.org/2000/svg" xmlns:xlink="http://www.w3.org/1999/xlink" x="0px" y="0px"
	 viewBox="0 0 48 48" style="enable-background:new 0 0 48 48;" xml:space="preserve">
<style type="text/css">
	.st0{fill:#808080;}
</style>
<path class="st0" d="M43.5,2.2c0,0-0.8,0-0.9-0.2c0,0-1.1-1.2-0.9-2c0,0-1,0.6-0.8,1.5c0,0-4.1-0.8-3.6,6.5c0.7,3.9-1.6,8.3-6.5,9.5
	c-2.1,0.5-8.7,1.6-9.4,3.1c-0.1,0.2-0.3,0.4-0.5,0.5c-1.8,1.1-9,5.7-8.2,6.7c0.1,0.1,0.1,0.3-0.1,0.4c-1.4,1-7,4.6-8.4,5.3
	c-0.1,0-0.2,0.1-0.3,0.2c-0.1,0.1-0.1,0.2,0.3,0.1c0,0,0.3,0.1,0.7,0C5,33.7,5.1,34,5,34.1L3.9,35c-0.1,0.1,0,0.2,0.1,0.1l1.2-0.4
	l-1,0.6c-0.4,0.2-0.7,0.6-0.7,1c0,0.2,0,0.3,0,0.4l1.1-0.5l-0.8,0.7c0,0,0,0.1,0,0.1c0.1,0,0.1,0,0.2-0.1c0,0,0,0,0,0
	c0.1-0.1,1.1-1,1.2-0.7c0,0,0,0.1,0,0.1l-0.7,0.4c0,0,0.3,0,0.5-0.1c0,0,0.1,0,0,0l-0.2,0.3c0,0,0.2,0.2,0.6-0.4
	c0,0,1.4-1.6,2.2-2.3c0.1-0.1,0.2-0.2,0.3-0.3c0.2-0.3,0.7-0.7,1.2-0.1c0,0,0.6,0.6,0.9-0.1c0,0,0.3-0.4,0.8,0.1
	c0,0,0.3,0.5,0.8,0.6c0.1,0,0.1,0.1,0.1,0.2c-0.3,0.2-0.5,0.6-0.4,1l0.6-0.6c0.2-0.2,0.4-0.2,0.6-0.1c0.3,0.1,0.7,0.4,0.7,0.7
	c0,0.1,0.1,0.1,0.1,0.1c0.1,0,0.4-0.2,0.6-0.9c0.2-0.8,1-0.9,1.4-1c0.1,0,0.2,0.1,0.2,0.2l-0.1,1.2c0,0,0.3-0.6,0.5-1.3
	c0-0.1,0.1-0.2,0.2-0.2c0.7,0,3.1,0.2,4.5,0.7c0.3,0.1,0.5,0.3,0.7,0.5c0.3,0.4,0.9,0.9,1.8-0.1c0.1-0.1,0.2-0.2,0.4-0.2l0.4,0
	c0.1,0,0.2,0.1,0.1,0.2c-0.2,0.5-0.8,1.5-0.7,2c0,0-0.1,0,0.4,3.8c0,0,0.4,3.5,0.2,4c0,0,0.1,0.2-0.2,0.5c0,0-0.2,0.1-0.1,0.3
	c0,0-1,0.8-0.9,1.2c0,0,0.3-0.4,0.5-0.2c0,0,0.3,0.1,0.6-0.4c0,0,0.2-0.1,0.2,0.3c0,0,0.1,0.9,1.1,1.2c0,0,0.1,0.1-0.2,0.2
	c0,0,1.2,0.3,1-0.5c0,0,4.7,0.4,4.1-0.1c0,0,0.3-0.1,0.6,0.1c0,0,0-0.7-0.8-0.7c0,0-0.9-0.1-1.5-0.3c-0.2-0.1-0.3-0.1-0.5-0.1
	c-0.6,0-2-0.1-2.1-0.4c0,0-1.5-5.7-0.4-7.6c0,0,0.4-0.7,0.2-1.6c0,0,1.4-3.7,2-1.6c0,0,0.2,0.3,0.5-0.5c0,0,0.3,0.2,0.5-0.2
	c0.1-0.1,0.2-0.1,0.4-0.1c0.2,0.1,0.4,0.3,0.2,0.9c0,0-0.6,0.9,0,0.3c0,0,0.1,0.3-0.2,0.7c0,0-0.4,0.3,0.4,1.4c0,0,2.3,6.6,2.2,7
	c0,0,0.2,0.2-0.2,0.6c0,0-0.5,0.4-0.5,0.7c0,0-0.3,0.3-0.1,0.5c0,0,0.3-0.3,0.4-0.3c0,0,0.3,0.1,0.6-0.6c0,0,0.2-0.2,0.2,0.2
	c0,0-0.1,0.7,0.6,0.5c0.1,0,0.2-0.1,0.4-0.2c0.1-0.1,0.3-0.2,0.7,0.1c0,0,0.5,0.2,1.1,0.1c0.1,0,0.1,0,0.2,0
	c0.3,0.1,0.9,0.3,0.8-0.1c0,0,0.3,0.1,0.2,0.3c0,0,0.4-0.3,0-0.5c0,0,1.4,0.1,1.3-0.2c0,0,0.3-0.1,0.5,0.1c0,0,0.1-0.8-1.7-0.6
	c-0.1,0-0.1,0-0.2,0c-0.2-0.1-0.6-0.2-1.2,0c0,0-1.5,0-1.8-0.8c0,0-2.7-5.2-1.5-7c0,0,0.1-0.3-0.2-0.6c0,0-0.5-2.4,0.8-2.5
	c0.1,0,0.2,0.1,0.2,0.2l0,0.1c0,0.1,0.1,0.2,0.2,0.1c0.2-0.1,0.6-0.2,0.7-0.6c0,0,0,0.3,0.7-0.2c0.1-0.1,0.3-0.2,0.4-0.3
	c1.1-0.7,6.3-4.6,4.2-17.6c0,0,1.1,0,0.5-2.4c0,0,3.1-10.3,4.1-10.3c0,0,0.2,0,0.2-0.2c0,0,1-0.6,1.2-0.3C44.6,3,44.8,2.3,43.5,2.2z
	 M40,3.3c-0.2,0-0.4-0.1-0.4-0.3c0-0.2,0.2-0.3,0.4-0.3c0.2,0,0.4,0.1,0.4,0.3C40.3,3.2,40.2,3.3,40,3.3z"/>
</svg>
