<?xml version="1.0" encoding="utf-8"?>
<!-- Generator: Adobe Illustrator 19.1.0, SVG Export Plug-In . SVG Version: 6.00 Build 0)  -->
<svg version="1.1" id="Layer_1" xmlns="http://www.w3.org/2000/svg" xmlns:xlink="http://www.w3.org/1999/xlink" x="0px" y="0px"
	 viewBox="0 0 48 48" style="enable-background:new 0 0 48 48;" xml:space="preserve">
<style type="text/css">
	.st0{fill:#808080;}
</style>
<path class="st0" d="M27.8,5.9c0,0,15,1.3,18.2,7.1c3.5,6.2,1.4,17.5,1.4,17.5l-0.5,0.4l-0.3-3.4l-1,3.9l1.2,9.9
	c0,0-5.5,1.1-6.7-0.7c0,0,1.1-2,1.5-1.8c0.4,0.2-0.4-0.4-0.5-1.5c0,0-2.2-3.6-2.2-4.7c0,0,0-0.1,0-0.1c0.2-1-3.2-1.2-3.9-3.9
	c0,0-9-0.1-9.1-0.9c-0.1-0.8-2.3,6.2-1.8,7.5l2.9,5.4c0,0-0.5,1.9-5.8,1.5c0,0,0.5-0.6,0.3-0.7c-0.2-0.1-5.4,1-6,0.2
	c0,0,1-2,1.6-2.4c0.1-0.1,0.2-0.1,0.2-0.1c0.6,0.2-0.1-1.6-0.1-1.6s-3.5-10.7-2.8-11.9c0,0-5-3.5-4.7-4.2c0,0-0.6,1.4-3.1,1.1
	c0,0-1.8,2.1-1.5,2.5s-0.1,0-0.1,0S14,35.6,13,35.8C12.1,36,14.3,35,14.3,35s1.2,1.1,0.4,1.8c0,0-1.4,1.9-3.2-0.7
	c0,0-10.9-8.4-10.3-10.5s-0.1,0-0.1,0s-1.4-2.9-0.8-6.6c0,0,0.4-1.3,0-2.2c0,0-1.1-0.7,0.5-4.1c0,0,0-3.4,3.7-6.1
	c0,0,2.3-0.9,6.7,1.1s0.1,0,0.1,0s11.4-1.4,12-1.7"/>
</svg>
