<?xml version="1.0" encoding="utf-8"?>
<!-- Generator: Adobe Illustrator 19.1.0, SVG Export Plug-In . SVG Version: 6.00 Build 0)  -->
<svg version="1.1" id="Layer_1" xmlns="http://www.w3.org/2000/svg" xmlns:xlink="http://www.w3.org/1999/xlink" x="0px" y="0px"
	 viewBox="0 0 48 48" style="enable-background:new 0 0 48 48;" xml:space="preserve">
<style type="text/css">
	.st0{fill:#808080;}
</style>
<path class="st0" d="M48,43.2L43.3,39c0.1,0.1,2.6,1.8,3.4,1.3l-6.1-5c0.6,0.5,3.2,2.5,3.7,2.2c0,0-2.4-2.7-5.4-4.2
	c0,0-2.9-2-4.7-2.9C33,30,32,29.2,31,28.4l-3.9-3.6c0,0-1.5-1.7,1.4-3.3c0,0,0-0.4-0.6-0.6c0,0-1.5-2.6-4.9-0.4L22.6,20l-3.7-4
	c-1.1-1.2-2.1-2.6-2.8-4.1c-0.8-1.7-2.5-4.6-6.2-9c0,0-0.9-0.3,0.8,1.9L7,0.8C7,0.8,6.7,2,8,3.4L4.9,0c0,0-0.3,1.5,0.3,2.2l2,2.2
	L2.6,0.9c0,0-0.8,1.4,2.3,3.6L1,2c0,0-0.5,2.3,2.8,3.7L0,4.1c0,0,0.9,2.3,1.6,2.5c0,0-1.1,0.2,0.7,2.4C2.3,9,2,9.6,3,10.6
	c0,0-1.4,1.4,0.7,2.2c0,0-1,1.3,0.7,2.5c0,0,0.4,2.4,1.9,3.2c0,0-0.4,1.6,1.5,2.9c0,0,1.6,1.8,1.8,1.9c0,0,0.2,1.1,1.2,0.8
	c0,0,1.2,1,2.1,1.7c0.3,0.3,0.2,0.9-0.3,0.9C10.2,27,5,27.6,6.9,28.7c0,0-1.4,1,0,2.1c0,0-0.9,2.5,1.1,1.7c0,0-1,1.6,0.5,2
	c0,0,0.1,2.1,1.3,0.9c0,0-0.7,2.4,1.3,2.2c0,0,1.2,3.6,3.4,0.6c0,0.2-0.8,3.3,1,2.2c0,0,1.4,2,2,0.2c0,0,1.3,1.4,1.5-0.5l1.2-6.7
	c0.1-0.4,0.6-0.5,0.8-0.1c1.2,2.3,4.1,7.3,9.1,10l0.8-0.5c0,0,1.2,1.3,1.4,0c0,0,1.3,4,2.6,1.3c0,0,0.3,2.5,1.9,1.2c0,0,2,1.9,2,0.2
	c0,0,2.2,2.1,2.2,0.5c0,0,1.5,2.3,2.9,2l-2.1-4.3c0.3,0.6,2.1,3.8,4,3.2l-3.2-4.7c0.9,1.2,2.8,3.4,4.3,2.8l-4.8-5.5
	C42.4,39.8,46.4,43.8,48,43.2z M26.3,20.4c0-0.1,0.1-0.2,0.3-0.2c0.2,0,0.3,0.1,0.3,0.2c0,0.1-0.1,0.2-0.3,0.2
	C26.4,20.6,26.3,20.5,26.3,20.4z"/>
</svg>
