<?xml version="1.0" encoding="utf-8"?>
<!-- Generator: Adobe Illustrator 19.1.0, SVG Export Plug-In . SVG Version: 6.00 Build 0)  -->
<svg version="1.1" id="Layer_1" xmlns="http://www.w3.org/2000/svg" xmlns:xlink="http://www.w3.org/1999/xlink" x="0px" y="0px"
	 viewBox="0 0 48 48" style="enable-background:new 0 0 48 48;" xml:space="preserve">
<style type="text/css">
	.st0{fill:#808080;}
</style>
<path class="st0" d="M43.6,17.8c0,0,5.2-3.6,4.3-5.4l-6.6,3.4c0.2-0.2,7.6-5.7,6.5-6.7c0,0-4.7,1.6-6.2,3.1c0,0,4.5-5.3,4.8-6.3
	c-0.1,0-3.4,1.6-6.4,5.2c0.8-1,4.7-6,3.8-7.1c0,0-2,0.8-4.6,4.9c0.2-0.4,2.4-5.1,1.9-5.3c0,0-2.1,1.7-4.2,5.5c0-0.1,0.9-3-0.1-2.5
	c0,0-5,7.9-6.1,11.7c-0.4,1.3-1,2.6-1.8,3.7c-2.8,3.7-2.2,4.1-2.8,5.7c-0.9,2.5-0.6,3.6-2,5.2c-0.2,0.3-0.5,0.5-0.7,0.6
	c0,0-0.1-0.8-2.4-1.2c0.3,0,2.8,0.3,0-1.2c0,0,0.9-0.6-0.6-1.2c0,0,1-0.8-0.6-1.3c0,0,0.9-1.1-1.3-1.2c0,0,1.2-1-0.2-1.1
	c0,0-0.5-2.3-2-1.9c0,0,0.5-1.7-0.7-1.3c0,0-0.1-1.5-1.1-0.7c0,0-0.2-3.2-1.3-1.8c0,0-0.8-2.3-1.1-1.9l-0.8,2.1c0,0,0.4-3.9-0.8-4
	l-0.2,0.8c0,0-0.5-2.3-1.4-2.6c0,0,0.2,1.8,0,1.8c0,0-1.9-4.1-2.3-4.3c0,0,0.7,3.9,1,4.9c-0.3-0.9-2.1-6.6-3-6.5
	c0,0,0.7,3.2,0.9,3.6c-0.2-0.4-2.4-4.7-3-4.9c0,0,1.1,2.6,1.5,3.6c-0.2-0.2-3-4.1-3.2-4l4,6.4C4.5,15.1,0.2,9.4,0,9.4
	c0,0,1.1,2.3,2.2,3.5c-0.3-0.3-1.2-1.2-1.3-1.2l4.4,5.8c0,0-0.2,0,0,0.4l0.9,1.1c0.6,0.8,1.2,1.6,1.6,2.5c0.6,1.3,1.9,3.5,3.7,5.8
	c0,0,1.8,2.2,2.6,5.3c0,0,0.5,2.2,1,2.6c0,0-3-0.1-2.9,1.5c0,0-0.2,0.5,0.1,0.7c0,0-1.3,1.3-0.6,2.3c0,0,0.2-1,1-0.8
	c0,0,0.8,0.1,1.5,0.3c0.6,0.1,1.1,0.4,1.5,0.8c0.6,0.6,1.9,1.6,4.8,2c0.3,0,0.5,0.1,0.8,0.3c0.5,0.3,1.5,0.7,2.9,0.2
	c0.4-0.1,0.8,0,1.1,0.3c0.5,0.5,1.4,1,2.5,0.3c0,0,0.8-0.4,1.2-0.1c0,0-0.2,0.8,0.5,0.4c0,0,0.4,1.5,0.9,0.5c0,0,1-0.1,0.5-1
	c0,0,0.1-0.4-0.1-0.4c0,0,0.3-1.1-0.7-1c0,0-0.2-0.3-0.6,0c0,0-1-0.5-0.9-0.6l7,2.1c0.1,0,0.2-0.2,0.1-0.2l-0.8-0.5
	c0,0-0.1,0-0.1-0.1l-4.9-1.7l1.1-0.2l-0.9-0.8c0.1,0,1.2,0.5,1.7,0l-0.3-0.3c0,0,1.3,0.3,1.7-0.2l-0.1-0.1c0,0,1.5,0,1.1-0.4
	c0,0,1.1-0.2,0.6-0.6L33.1,37c0.3,0.1,3.7,1.1,2.9-0.1c0,0,0.6-0.4-0.4-0.9c0,0,2,0.1,1-0.7c0,0,3,0.2,0.8-0.9
	c0.1,0,2.4,0.4,1.8-0.5c0,0-0.2-0.3-0.7-0.5c0,0,3.4-0.1,1.4-0.9c0,0,1.9-0.5,1.1-1c0,0,2.9-0.8-1.1-1.3c0,0,4.6-0.3,1.7-1.4
	c0,0,3.4-1.2-0.3-1.4c0,0,4.8-1.4,3.4-2.4c0,0,1.9-2.9-4.5-1c1-0.3,11.6-3.8,3.2-3.5C43.4,20.4,51.1,16,43.6,17.8z M14.1,37.8
	c-0.2,0-0.3-0.1-0.3-0.2c0-0.1,0.1-0.2,0.3-0.2c0.2,0,0.3,0.1,0.3,0.2C14.4,37.7,14.3,37.8,14.1,37.8z M30.3,42.1L30,41.6
	C30.5,41.7,30.3,42.1,30.3,42.1z M30,42.1c0,0,0,0.7-0.3,0.2C29.7,42.3,29.8,42,30,42.1z"/>
</svg>
