<?xml version="1.0" encoding="utf-8"?>
<!-- Generator: Adobe Illustrator 19.1.0, SVG Export Plug-In . SVG Version: 6.00 Build 0)  -->
<svg version="1.1" id="Layer_1" xmlns="http://www.w3.org/2000/svg" xmlns:xlink="http://www.w3.org/1999/xlink" x="0px" y="0px"
	 viewBox="0 0 48 48" style="enable-background:new 0 0 48 48;" xml:space="preserve">
<style type="text/css">
	.st0{fill:#808080;}
</style>
<path class="st0" d="M45.5,4.3l-1.3-1.7c0,0-0.1-0.1-0.1-0.2C42-0.7,36.8-0.7,33.8,1.7c-2.1,1.6-6.9,5.6-7.2,8c0,0-1.4,4.5-5.6,6.3
	c-1.3,0.6-4.3,3.7-5.6,7.1L9.1,39.6c-0.2,0.6-0.7,1.2-1.2,1.7c-1.7,1.3-5.3,4.3-6.4,5.6c-0.2,0.2,0,0.6,0.3,0.6
	c1.3,0.1,4.5,0.4,6.1-0.2c0,0,5.1-2.4,7.7-3.1c0.5-0.1,0.9-0.3,1.3-0.6l2.3-1.4c0.1-0.1,0.3,0,0.3,0.1c0.2,0.8,0.7,3.4,1.7,4
	c0.1,0,0,0.2,0,0.2c-0.6,0.1-2.2,0.2-3.3-0.2c-0.1,0-0.1,0-0.2,0c-0.4,0-1.6,0.2-1.1,1.6c0,0,0.1-1.3,0.8-1c0,0,0.2,1.2,1,0.7
	l8.4,0.2c0.2,0,0.3,0,0.4-0.1c0.1-0.1,0.4-0.2,0.6,0c0,0,2.7-0.1,2.7,0.1c0,0,0.1,0,0.1-0.2c0,0,0.2,0,0.2,0.2c0,0,0.1-0.1,0.1-0.2
	c0,0,4,0.1,4.2,0c0,0,0.4-0.8,0.9-0.5c0,0,0.6-0.1,0.5-0.5c0,0,0.5,0.6,0.5,0.9c0,0,0.3-2.2-1.4-2c0,0-0.8,0.3-0.9,0.7
	c0,0-0.7,0.2-1.3-0.2c0,0-1.7-0.8-2.4-0.9c-0.1,0-0.2-0.1-0.2-0.3l1.1-11c0-0.4,0.2-0.7,0.4-1c1.2-1.3,5-5.4,3.3-14.5
	c-0.1-0.3,0-0.6,0-1c0.4-1.7,2.1-7.4,5.2-8.1c0.3-0.1,0.6,0,0.8,0.1c0.5,0.3,1.8,0.8,3.6-0.6c0,0,0.4,0.7-0.3,1.6
	C44.8,10.4,48.3,8.9,45.5,4.3z M25.3,46.5c-3.2-1.6-2.2-5.1-2.2-5.1c0.6,0.4,4-0.9,4-0.9c0.4,0.1,1,5.2,1,5.2
	C27.6,46.5,25.3,46.5,25.3,46.5z M40.9,4c-0.4,0-0.8-0.3-0.8-0.7c0-0.4,0.4-0.7,0.8-0.7c0.4,0,0.8,0.3,0.8,0.7
	C41.7,3.6,41.4,4,40.9,4z"/>
</svg>
