<?xml version="1.0" encoding="utf-8"?>
<!-- Generator: Adobe Illustrator 19.1.0, SVG Export Plug-In . SVG Version: 6.00 Build 0)  -->
<svg version="1.1" id="Layer_1" xmlns="http://www.w3.org/2000/svg" xmlns:xlink="http://www.w3.org/1999/xlink" x="0px" y="0px"
	 viewBox="0 0 48 48" style="enable-background:new 0 0 48 48;" xml:space="preserve">
<style type="text/css">
	.st0{fill:#808080;}
</style>
<path class="st0" d="M47.9,8.5c0,0-9.8-6.4-23.8,2.3c0,0-0.7,0.5-4.9,0.8c-0.8,0-1.6,0.2-2.3,0.3C14,12.6,7.3,14.3,6,16.2
	c0,0-1.9,2-2.9,3.3c-0.4,0.5-0.8,1-1.2,1.5c-0.6,0.6-1.2,1.7-1,2.9c0,0-1.4,1.4-0.6,2.5c0,0,0,1.6,2.7,2.8c0.7,0.4,1.4,0.8,2.1,1.2
	c1.1,0.7,2.9,1.7,4.7,1.9c0,0,1.3,7.6,4.6,9.5c0,0-0.8-1.4-0.4-3c0,0,0.9-4.3,0.5-4.9L13.2,33c0,0,6,1.7,7.3,1.7
	c0,0,3.5,0.6,4.8,1.6c0,0,4.4,3.2,9.5,4c0,0,8.3,1.5,9.5-0.4c0,0-5.5-0.4-7.1-1c0,0-5.1-1.4-4.2-6.2c0,0,2.6-5.1,0.9-5.6l-0.8-0.2
	c0,0,1.7-0.5,2.4,0c0.8,0.5,7.1,4.6,7.1,4.6s3.2,1.9,2.9,1c0,0-2.1-7.9-1.7-9.5l1.5-8.1c0,0-2.1,0.6-3.7,1.9l-5.5,4.7
	c0,0-2.1,1.2-3.1,0.4c0,0,2.7-0.1,1.8-3.1c0,0-2.1-6.6-0.7-8.5c0,0,1.9-4.3,7.5-3.4c0,0,4.8,1.1,5.4,1.4C47.3,8.4,48.4,8.9,47.9,8.5
	z M3.7,24.2c-0.6,0-1.2-0.4-1.2-1c0-0.6,0.5-1,1.2-1c0.6,0,1.2,0.4,1.2,1C4.8,23.8,4.3,24.2,3.7,24.2z"/>
</svg>
