<?xml version="1.0" encoding="utf-8"?>
<!-- Generator: Adobe Illustrator 19.1.0, SVG Export Plug-In . SVG Version: 6.00 Build 0)  -->
<svg version="1.1" id="Layer_1" xmlns="http://www.w3.org/2000/svg" xmlns:xlink="http://www.w3.org/1999/xlink" x="0px" y="0px"
	 viewBox="0 0 48 48" style="enable-background:new 0 0 48 48;" xml:space="preserve">
<style type="text/css">
	.st0{fill:#808080;}
</style>
<path class="st0" d="M48,7.2c0,0-1.2-0.9-8.2,1.8c0.4-0.2,6.8-3.4,7.2-4.4c0,0-1.8-0.6-9.5,3.9c0.6-0.4,7.2-4.8,7.4-5.4
	c0,0-2.5,0.1-9.9,5.7c0.3-0.3,5.5-5.1,5.7-5.8c-0.1,0.1-2,0.9-4.3,3.3c0,0-5.1,4.7-7,6c-0.3,0.2-0.5,0.4-0.7,0.6
	c-1,0.8-3.2,2.8-4.4,4c-0.4,0.4-0.7,0.8-0.9,1.3c-1.1,2.2-5.4,10.3-7,12.4c-0.2,0.3-0.6,0.3-0.9,0.1l-9.7-8.3c0,0-0.9-1.9-1.8-1.1
	c0,0,0.3-0.7-0.1-1.1c0,0-0.8-1.1-0.9-0.8l-0.4,0.9c0,0,0.1-1.5-0.1-1.7c0,0-0.8-1.2-0.8-0.8l-0.3,1.1c0,0,0.1-1.6-0.5-1.8
	c0,0-1.6,2.3,0.3,4.5c0,0-0.5,0.6,1.2,2.5c0,0,1,1.4,2.2,2c0,0,5.1,4.9,5.7,8.6c0,0-0.1,0.4-0.6,0.5c0,0-2.2,0.2-2.9,2.5
	c0,0-1.6,1.8,0.2,3.1c0,0-0.3-0.5-0.1-0.6c0,0,0.3-0.2,0.6-0.5c0.3-0.3,0.7-0.4,1.1-0.5c0.7-0.1,1.8-0.2,2.7-0.2
	c0.7,0,1.3,0.2,1.8,0.6c1,0.8,3.3,2.3,7,2.3c0.5,0,1,0.3,1.2,0.8c0.3,0.6,0.8,1.3,2,0.9c0,0,0.7,1,2.1,0.7c0,0,1.1,0.8,2.1,0.3
	c0,0,1.7,0.8,2,0.2c0,0,1.5,0.4,1.7-0.3c0,0,0.8,0.3,0.8-0.3c0,0,1.2,0.2,0.7-0.6c0,0-2.3-1.9-3-2.3c0,0,0.4-0.3,1.2,0.2
	c0,0,2,1.3,2.6,1.3c0,0,2.3,0.2,0.7-1c0,0,1.6-0.3,0.1-1c0,0,1.8-0.7-0.3-1.3c0,0,1.3-0.9,0.5-1c0,0-8.5-0.1-9-0.4
	c0,0,0.9-0.1,0.7-0.8c0,0,0.9-0.7,0.8-1.3c0,0,0.9-0.6,0.6-1.4c0,0,1-0.4,0.7-1.2c0,0,1.4-0.3,1.1-1.3c0,0,1.1-0.1,1-1.6
	c0,0,0.9-0.5,0.8-1.2c0,0,1.6-0.3,1.1-1.5c0,0,0.8,0.2,0.8-1.2c0,0,1-0.5,0.7-1.3c0,0,1-0.1,0.9-1.2c0,0,1.3-0.1,0.9-1.7
	c0,0,1.8-0.1,1-1.7c0,0,2.4-0.6,2.2-2.3c0,0,1.2,0.2,1.5-1.4c0,0,2.5-1.6,1.6-2.2c0,0,3.2-1.7,1.8-1.9c0,0,7.1-2.4-0.4-1.4
	c0,0,10.4-3.2-0.8-1.5C42.9,9.6,48.1,7.4,48,7.2z M8.3,37.3c-0.2,0.1-0.3,0.1-0.4,0c-0.1-0.1,0-0.3,0.2-0.4c0.2-0.1,0.3-0.1,0.4,0
	C8.6,37,8.5,37.2,8.3,37.3z"/>
</svg>
