<?xml version="1.0" encoding="utf-8"?>
<!-- Generator: Adobe Illustrator 19.1.0, SVG Export Plug-In . SVG Version: 6.00 Build 0)  -->
<svg version="1.1" id="Layer_1" xmlns="http://www.w3.org/2000/svg" xmlns:xlink="http://www.w3.org/1999/xlink" x="0px" y="0px"
	 viewBox="0 0 48 48" style="enable-background:new 0 0 48 48;" xml:space="preserve">
<style type="text/css">
	.st0{fill:#808080;}
</style>
<path class="st0" d="M44.6,33.3c0,0-4-0.7-6.2-1.4l-8.8-2.6l-7.2-2.6c0,0,0.2-1,0.9-1.3c0,0-0.2-0.5,0.2-0.5c0,0,0.5-0.3,0-0.5
	c0,0,0-0.3,0.5-0.1l1.1,0.6c0.1,0,0.1,0,0.2,0l0,0c0.1-0.1,0-0.2,0-0.2l-0.8-0.4c0,0,0.6-0.1,1.9,0.7l-0.8-0.5
	c-0.1-0.1-0.1-0.2,0-0.2l0,0c0.1,0,0.2,0,0.3,0l1.3,0.6c0,0,0-0.2-1.4-0.8l-5.1-2c-0.2-0.1-0.5-0.3-0.6-0.5c-0.3-0.5-1.1-1.6-2.2-2
	c-0.2-0.1-0.4-0.3-0.5-0.6c-0.1-0.6-0.8-1.7-3.3-3c-0.2-0.1-0.3-0.3-0.4-0.5c-0.1-0.3-0.4-0.7-1.6-0.9c0,0-0.5-0.3,0.1-0.6
	c0,0,0.7-0.6-0.7-0.7c0,0-4.9,0.5-5.4,0.8c0,0,0,0-0.1,0c-0.3,0.2-2.4,1.7-0.3,3.9c0,0,1.1,1.5,1.6,3.3c0.1,0.2-0.1,0.4-0.3,0.4
	l-3.6-0.3c0,0-3,0.1-3,1.7c0,0-1.6,2.4,1,3.5c0,0,2.1,0,2.5-0.6c0-0.1,0.1-0.1,0.2,0c0.3,0.3,1.2,0.9,1.8,0.5c0,0,0.1-0.1,0.2,0
	c0.4,0.1,2.4,0.4,3.7,1.1c0,0,3.1,2,8.5,1c0,0,0.9,1.3,1.7,1.3l1.5,0.9c0.2,0.1,0.3,0.1,0.5,0.1c0.3-0.1,0.8-0.3,0.6-0.8
	c0,0-0.5,0.7-0.9,0.5c0,0,0.1-0.5-0.3-0.5c0,0,0.5-0.8-0.2-0.1c0,0-0.3,0.1-0.2-0.1c0,0,0.2-0.2,0.1-0.3c0,0,0.5,0.2,0.5-0.1
	c0,0,0.2-0.1,0.4,0.2c0,0,0.2-0.5-0.4-0.4c0,0-0.2-0.1-0.3-0.1c0,0-0.3-0.7-0.7-0.7c0,0,0.2-0.3,0.6-0.1c0,0,0.5,0.3,1.1,0.3
	c0,0,5.1,2.6,5.6,1.6c0,0,15.5,4.5,17.3,4.1l-1.4-0.4c0.2,0,3.7,0.4,4.2-0.3L44.6,33.3z M1.8,26c-0.2,0-0.3,0.5-0.3,0.5
	c0.1,0.2-0.1,0.2-0.1,0.2c-0.3-0.2-0.3-0.9-0.3-0.9c0.3,0.1,0.3-0.1,0.3-0.1c0-0.2,0.4-0.6,0.4-0.6V26z M3.2,23.4
	c-0.2,0-0.3-0.1-0.3-0.3c0-0.2,0.1-0.3,0.3-0.3c0.2,0,0.3,0.1,0.3,0.3C3.5,23.3,3.4,23.4,3.2,23.4z M20.7,30c0,0-0.1-0.4,0.3-0.3
	C21,29.7,21,30.1,20.7,30z M21,29.3l-0.4-0.2c-0.1,0,0-0.2,0-0.2C20.9,28.9,21,29.2,21,29.3z"/>
</svg>
