<?xml version="1.0" encoding="utf-8"?>
<!-- Generator: Adobe Illustrator 19.1.0, SVG Export Plug-In . SVG Version: 6.00 Build 0)  -->
<svg version="1.1" id="Layer_1" xmlns="http://www.w3.org/2000/svg" xmlns:xlink="http://www.w3.org/1999/xlink" x="0px" y="0px"
	 viewBox="0 0 48 48" style="enable-background:new 0 0 48 48;" xml:space="preserve">
<style type="text/css">
	.st0{fill:#808080;}
</style>
<path class="st0" d="M47.4,16.7c-2.8-5.5-7.1-6.3-8.1-6.8c-0.4-0.2-1-0.5-1.2-0.6c0,0-0.5-0.2-0.3,0.2c0,0,1.7,1.2,2.8,1.7
	c3.2,1.6,5.5,4.8,5.8,6.7c0.5,3.2-1.1,5.4-3.7,6.3c0,0,0,0,0,0c-0.2,0.1-2.8,1.2-5.7,0.8c0,0-7.8-14.3-23.8-1.9c0,0-3.8,2.7-6.7,3.6
	c0,0-0.6,0.3-1.2-1c0,0-0.4-1-0.9,0.8c0,0,0.6,1.7,0,2.5c0,0-2,1.9-2,2.5c0,0-1.9,3.1-1.9,3.1s-1.1,1.3,0.4,1.7l0.9,0.3
	c0.2,0.1,0.5,0.1,0.7,0.2c0.3,0.1,0.7,0.1,0.7,0.1c0,0,1,0.5,1.7,0c0,0,4.2-2.7,6.2-2.5c0.1,0,0.2,0,0.4,0c0.8-0.1,3.7-0.4,1.9,2.6
	c0,0-0.5,0.1-0.7,0.2c0,0-0.6-0.2-1.1,0.2c0,0-0.7,0.2-0.2,0.3L10.6,38c0,0,0.2,0.1,0.3,0.1l0,0.2c0,0,0.3,0.1,0.6,0
	c0.1,0,0.2-0.1,0.2-0.1c-0.1,0.1-0.3,0.5,0,0.4c0,0,0,0.3,0.4,0.1c0,0,1.6-1,1.8-0.2c0,0,0.4,0.3,0.3-0.3c0,0,0.2-0.2,0.3-0.2
	c0,0,1.8-2,3.2-2c0,0,2.7-0.8,3.1-1.1c0,0,3.5-0.7,6.5-1.7c1.1-0.4,2-0.9,3-1.5c0.5-0.4,1.3-0.7,2.2-0.5l2.1-0.2
	c0,0-0.3,0.9-0.8,1.3c0,0-1.4,0-1.1,0.5L32.2,33c0,0-1.2,0.1-1.1,0.6c0,0,0.3-0.2,0.3-0.2c0,0,0.2,0,0.2,0.2L31.5,34
	c0,0,0.2,0,0.3-0.1c0,0,0.1,0,0.1,0c0,0-0.1,0.2,0.5,0.1l0,0.4c0,0,0.2,0,0.2-0.2c0,0,0.4,0.2,0.9-0.2c0,0,0.9-0.7,1.3-0.3
	c0,0,0.1,0.5,0.5,0.3c0,0,0.1-0.2,0-0.4c-0.2-0.2-0.4-1.1,0.5-2.6c0,0,0.7-1.2,0.5-2.1c0,0-1-2.1,0.8-1.9c0,0,3.9,0.4,7.4-1.8
	C47.5,23.5,48.9,19.6,47.4,16.7z M4.7,32.4c-0.4,0-0.7-0.3-0.7-0.7c0-0.4,0.3-0.7,0.7-0.7c0.4,0,0.7,0.3,0.7,0.7
	C5.4,32.1,5.1,32.4,4.7,32.4z"/>
</svg>
