<?xml version="1.0" encoding="utf-8"?>
<!-- Generator: Adobe Illustrator 19.1.0, SVG Export Plug-In . SVG Version: 6.00 Build 0)  -->
<svg version="1.1" id="Layer_1" xmlns="http://www.w3.org/2000/svg" xmlns:xlink="http://www.w3.org/1999/xlink" x="0px" y="0px"
	 viewBox="0 0 48 48" style="enable-background:new 0 0 48 48;" xml:space="preserve">
<style type="text/css">
	.st0{fill:#808080;}
</style>
<path class="st0" d="M28.3,14.6c-0.1,0.2-0.3,0.2-0.5,0.2C25.4,14.7,10.7,14,9.3,17c0,0-2.9,3.1-3.6,7.4c0,0.1,0,0.2,0,0.3
	c0.1,0.2,0,1-2.5,2.8c-0.1,0.1-0.2,0.2-0.2,0.3c-0.2,0.6-1.1,2.4-1.1,2.6c-0.1,0.3-3.2,2.4-1.4,2.7c0.3,0.1,0.5,0.3,0.5,0.6
	c0,0.4,0.2,1,1,1.1c0,0,4.2,0.7,1.6-1.3c-0.2-0.1-0.3-0.4-0.2-0.6c0.1-1,1.1-3.7,8.4-7.9c0.3-0.2,0.6-0.1,0.8,0.2
	c0.7,0.8,1.9,2.9,1.2,5.5c0,0.1-0.1,0.2-0.2,0.3c-0.4,0.4-1.1,1.6,2.6,4c0.1,0,0.1,0.1,0.2,0.1c0.6,0.1,3.5,0.7,4.2,0.3
	c0,0,1.8-1.3-1.9-1.5c0,0-3.8-0.2-1.5-4.5c0,0,0,0,0,0c0.1-0.3,1.4-3.3,1.6-5c0-0.4,0.5-0.7,0.9-0.5c0.7,0.3,1.6,0.7,1.8,0.7
	c0.4,0.2,0,1.3,4.6,1.3c0.2,0,0.4,0.1,0.5,0.3c0.5,0.7,1.7,2.9,1.3,6.1c0,0,0,0.1,0,0.1l0.3,2.5c0,0.1,0,0.2,0.1,0.3l0.1,0.1
	c0.1,0.2,0.3,0.3,0.6,0.3l2.9-0.1c0.7,0,0.9-0.9,0.3-1.2c-0.2-0.1-0.4-0.2-0.7-0.2c0,0-1.7,0.3-0.8-3l1.4-4.4c0,0,0.3-0.7,0.8,0
	c0.1,0.2,0.2,0.3,0.2,0.4c0,0.1,0.1,0.2,0.2,0.3c0.7,0.5,2.1,1.5,4.1,1.5c0.2,0,0.3,0.1,0.4,0.2c0.7,0.6,3,2.8,3.1,3.5
	c0,0,0.6,2.2,1.6,2.9c0.1,0,0.1,0.1,0.2,0.1c0.6,0.2,4,1.3,3.5-0.9c-0.1-0.3-0.3-0.4-0.5-0.5c-0.4-0.1-1-0.3-1.9-1.4
	c-0.1-0.1-0.2-0.3-0.2-0.4c0-0.4-0.3-1.5-2.1-4.4c0-0.1-0.1-0.1-0.1-0.2c-0.2-0.2-0.6-0.7,0.7-1.1l1.4-0.6c0.2-0.1,0.3-0.2,0.4-0.4
	v0c0.1-0.5,0.7-0.6,1.1-0.3c0.4,0.4,0.9,0.4,1.6-0.8c0.1-0.1,0.1-0.2,0.2-0.2c0.2-0.1,0.6-0.4,0.9-0.7c0.2-0.2,0.2-0.4,0.2-0.7
	l-0.8-2.4c0-0.1,0-0.1,0-0.2l0-1c0-0.2-0.1-0.4-0.2-0.5c-0.2-0.2-0.4-0.5,0.1-1.3c0.7-1,0.4-2,0.3-2.3c0-0.1-0.1-0.1-0.1-0.2
	c-0.3-0.4-1.6-1.9-4.8-2.7c0,0-0.1,0-0.1,0c-0.6,0-5.2-0.2-5.5-0.1C36.5,12.5,32.3,9.9,28.3,14.6z"/>
</svg>
