<?xml version="1.0" encoding="utf-8"?>
<!-- Generator: Adobe Illustrator 19.1.0, SVG Export Plug-In . SVG Version: 6.00 Build 0)  -->
<svg version="1.1" id="Layer_1" xmlns="http://www.w3.org/2000/svg" xmlns:xlink="http://www.w3.org/1999/xlink" x="0px" y="0px"
	 viewBox="0 0 48 48" style="enable-background:new 0 0 48 48;" xml:space="preserve">
<style type="text/css">
	.st0{fill:#808080;}
</style>
<path class="st0" d="M44.8,9.6c0,0-1.1-0.2-0.9-0.8c0,0,1.1-0.4,1.3-0.4c0,0,1.6,0.2,2-1.2S48,4,47.1,4.9c0,0-0.4,2.5-3.5,2.4
	c0,0-3.4-1.2-6.4,0.2c0,0-1.6,0.2-1.9-0.3c-0.3-0.4-0.9-1-0.9-1.7c0-0.6-0.4-1.8-0.7-0.6c0,0-0.1,1.9,0.1,1.9c0,0-0.1,1.4,1,1.7
	c1.1,0.4,1.8,0.5,1.8,0.5s-11,1.4-13.4,1c0,0-11.9-0.5-17.8-1c0,0-3.8-0.2-3.8,3l0,0.3c0,0-2.5,0.5-1.5,6.1c0,0,0.8,4.2,2.1,6.5
	c0,0,1.5,0.7,0.5,3.5c0,0-0.7,0.3,0.2,1.8c0,0,1.2,6.3,0.9,7c0,0-0.5,1.3,0.5,1l0.2,1.1l0.5,0.9c0,0,1.4-0.3,1.7,0.2
	c0,0,0.1-0.6,1-0.4c0,0,1.5-0.5,0.3-0.9c0,0-0.3-0.8-0.8-0.7c0,0-2.2-1.7-1.7-6.6c0,0,1.2,3.9,1.2,4.6s0.3,1.3,0.8,1.2
	c0.5-0.2,0.3,0.4,0.3,0.4l2.3,0.2l0.6-0.3c0,0-1.7-1.3-1.9-1.9c-0.1-0.5-0.1-1.5-0.4-1.8c-0.3-0.3-0.5-5.3,1-6.1
	c0,0,0.2,0.6,0.6,0.5s0.4-0.5,0.4-0.7c-0.1-0.1,0.1-0.1,0.1-0.1s0.6,1,0.7,1c0.1,0,0.3,0.1,0.4,0c0.1-0.1,0.2-0.3,0.1-0.5
	c-0.1-0.2-0.2-0.5-0.2-0.5s0-0.2,0.1-0.1c0.1,0.1,0.3,0.4,0.5,0.3c0.1-0.1,0.2-0.2,0.2-0.4c0-0.2-0.3-0.9-0.3-0.9s0-0.7,0.1-0.7
	c0.2,0,0.5,0.4,0.5,0.4c0,0.1,1.8,0.9,1.9,1s2.6,1.5,2.9,1.4c0,0,1.9,0.6,3.4-0.1c0,0,0,0,0.1,0c0,0,2.2,0.1,2.5-0.3
	c0,0,0.7,0.1,0.8-0.1c0,0,2.1,0.1,2.2,0c0.1-0.1,0.1-0.1,0.1-0.1s3,7.7,1.9,11.9c0,0-0.2,1.1,0.7,0.6c0,0-0.7,0.8,0.5,1.9
	c0,0,1.1,0.9,2.5,0.3s1.2-0.6,1-0.8c-0.2-0.2-0.9-0.5-1-1.1c-0.1-0.6-1.9-3.1-1.6-4.5s1.3-2.6,0.8-3.9s0.1-3.1,0.1-3.1l0.9,0.3
	l0.8,4.2c0,0-0.2,2.9,0.1,3.4s0.6,0.9,0.6,1.1s0.1,1.2,0.4,1.4s3.4,0.9,3.1-0.6c0,0-1-1.3-1.1-1.3s-1.4-2.3-1.3-2.7
	s-0.5-1.8,0.2-2.9s0.3-2,0.3-2s3.4-0.1,3.7-2.9s1.2-5.3,1.2-5.3s1.7,0.2,2.3-0.2c0.6-0.5,1.8-0.9,1.4-1.4c-0.3-0.5,0.3-8,0.3-8
	l0.2-0.7c0,0,1.5,0.6,2.4-0.5s1.4-1,0.8-1.7s-1.4-1.5-2.6-0.8"/>
</svg>
