<?xml version="1.0" encoding="utf-8"?>
<!-- Generator: Adobe Illustrator 19.1.0, SVG Export Plug-In . SVG Version: 6.00 Build 0)  -->
<svg version="1.1" id="Layer_1" xmlns="http://www.w3.org/2000/svg" xmlns:xlink="http://www.w3.org/1999/xlink" x="0px" y="0px"
	 viewBox="0 0 48 48" style="enable-background:new 0 0 48 48;" xml:space="preserve">
<style type="text/css">
	.st0{fill:#808080;}
</style>
<path class="st0" d="M40,29.6c0,0,1.5,0.6,0.1-0.3c-0.6-0.4-2.8,1.1-5,2.9c-0.6,0-1,0.3-1.6,0.9c0,0-1,1.2-1.1,0.2
	c-0.2-0.9-1.1-5-0.4-6.2c0,0,4.9-2.1,5.9-7.5c0,0,4.2-4.6-0.5-8.1c0,0-2.8-7.1,3.5-7.3l0.1,0.4c0,0,0.7,0.3-0.1-1.6
	c0,0-5.2-5.2-9.2-1.9l-3.5,5c0,0-2.5,3.2-5.5,4.8c0,0-6,5.1-7.3,8.6C14,23,10.7,32.8,10.8,33.6c0.1,0.8-3.9,3.4-4.6,5.2
	c-0.7,1.8,0.3,2,2.1,1.4c0,0,3.6-2.2,3.8-2.8c0,0,0.5-0.2,0.3,0.3L10.8,41c-2.6,0.1-4.5,0.1-4.5,0.1s-0.5,4.6-0.1,4.8
	C6.4,46,7.2,46,8.4,46l0,0c0,0-0.9,2.3,0.9,1.9s1.7-0.7,1.7-0.7s3.8,2,6-1.9l0-0.1c3.1-0.4,6.5-1.1,9.9-2c9.8-2.8,12.6-7,12.6-7
	C39.8,36.2,39,35,39,35l3-3.1C42.3,31.6,40,29.6,40,29.6z M26.2,32.7c0.4-0.5,0.5-2.5,0.4-2.7c0-0.2,1-0.6,1-0.6s-0.1,2.2,1.1,2.5
	l1,3c0,0,0.5,0.6-0.2,2.1c-0.4,0.2-1.3,0.5-2.3,0.9c0.1-0.6,0.1-1.7-0.9-2.6C26.4,35.2,25.8,33.2,26.2,32.7z M18.8,40.5l2.1-5.4
	c0,0,1.1-0.9,1.1-1.3s0.6,0.3,0.6,0.3s0.4,2.1,1.5,2.1l0.3,2.6c0,0,0,0,0,0.1c-0.3,0.1-0.5,0.3-0.5,0.3s0.2-0.1,0.5-0.2
	c0,0,0,0.1,0,0.1c0,0-0.1,0-0.1,0.1C23.5,39.8,21.3,40.2,18.8,40.5z"/>
</svg>
