<?xml version="1.0" encoding="utf-8"?>
<!-- Generator: Adobe Illustrator 19.1.0, SVG Export Plug-In . SVG Version: 6.00 Build 0)  -->
<svg version="1.1" id="Layer_1" xmlns="http://www.w3.org/2000/svg" xmlns:xlink="http://www.w3.org/1999/xlink" x="0px" y="0px"
	 viewBox="0 0 48 48" style="enable-background:new 0 0 48 48;" xml:space="preserve">
<style type="text/css">
	.st0{fill:#808080;}
</style>
<path class="st0" d="M47.3,15.7C47.2,15.7,47.2,15.7,47.3,15.7c-0.2-0.4-0.9-1.4-0.9-1.9c-0.3-3.3-5.3-4.2-8.4-2.6
	C20.5,20.7,19,21.9,13.7,25.5c-2.7,1.8-7.4,2.7-7.4,2.7S3.3,29,1.6,30c-0.2,0.1-0.2,0.5,0.1,0.5c0,0,0,0,0,0c0.2,0,0.2,0.2,0.1,0.3
	c-0.6,0.5-1.5,1.2-1.8,1.7C-0.1,32.8,0,33,0.2,33c0.3,0.1,0.7,0.1,1.5-0.2c0,0,1.1-0.7,2.1-0.5c0.1,0,0.2,0,0.3,0
	c0.6,0,2.9-0.2,3.7-0.6c4.7-2.3,6.4-1.4,7.4-1.2c1.6,0.3,8.6,1.4,9.6,1.8c0,0,2.9,2.3,4.4,0.7c0,0,4.7,1,4.3,1.7
	c0,0-0.1,0.9-0.5,1.6c0,0-0.2,0.3,0,0.6c0,0,0.4,0.7,1.5,0.6c0,0,1.4-0.3,1.1-0.6c0,0-1.4,0.5-1.4,0.1c0,0,0.2-0.5-0.1-0.6
	c-0.2-0.2-0.2-0.5,0-0.7c0,0,0.1-0.1,0.1-0.1c0,0,0.6-0.6,0.6-0.9c0,0-0.1-0.2,0.2-0.2c0.3,0.1,2,0,2.2-0.1c0,0,1.2-0.4,1.2,0.4
	c0,0,0.2,0.8-0.4,1c0,0,0.5,0.1,0.6-0.5c0,0,0.1-0.2,0.2-0.2c0,0,0.5,0,0.5-0.5l0-0.6c0-0.3-0.2-0.6-0.5-0.6c0,0,0,0,0,0l-0.4,0
	c-0.1,0-0.3-0.1-0.2-0.3c0-0.2,0-0.4-0.2-0.4c-0.3,0-2-0.1-2.4,0.2c0,0-0.4,0.3-1.5,0.2c-0.3,0-0.5,0-0.7-0.1
	c-0.6-0.2-2.1-0.8-2.6-0.7c0,0-0.4-0.2,0.2-0.4c0,0,14.2-3.5,14.1-14c0,0,0-0.3,0.4-0.3c0.4,0,2.1-0.3,2.6-0.1c0,0,0.1,0,0.1,0
	C48,17.2,48.1,16.6,47.3,15.7z M41,15.5c-0.4,0-0.7-0.3-0.7-0.7c0-0.4,0.3-0.7,0.7-0.7s0.7,0.3,0.7,0.7C41.7,15.2,41.4,15.5,41,15.5
	z"/>
</svg>
