<?xml version="1.0" encoding="utf-8"?>
<!-- Generator: Adobe Illustrator 19.1.0, SVG Export Plug-In . SVG Version: 6.00 Build 0)  -->
<svg version="1.1" id="Layer_1" xmlns="http://www.w3.org/2000/svg" xmlns:xlink="http://www.w3.org/1999/xlink" x="0px" y="0px"
	 viewBox="0 0 48 48" style="enable-background:new 0 0 48 48;" xml:space="preserve">
<style type="text/css">
	.st0{fill:#808080;}
</style>
<path class="st0" d="M43.2,39.9C43.2,39.9,43.1,39.9,43.2,39.9c-0.3,0-1,0.1-2.1-1.1c0,0,0,0,0,0c-0.4-0.2-4.2-3.1,0.3-5.8
	c0.1-0.1,0.2-0.1,0.4-0.1c1.2-0.1,8.4-0.7,5.7-5.8c0-0.1-0.1-0.1-0.1-0.2c-0.2-0.8-1.7-6.6-5.4-8.8c0,0-0.9-0.3-0.3-2.8
	c0-0.1,0-0.1,0.1-0.2c0.4-1,4.4-11.5,1.1-12.5c0,0-1.2-0.4-2.1,0.5c-0.4,0.3-0.6,0.8-0.6,1.4c0,1.1-0.6,4.1-2,7c0,0-4.1-6.9-8.2-7.3
	c0,0-0.4,0-0.2,0.6C29.9,5,29.9,5.3,30,5.6c0.1,1.7,0.7,6.7,3.4,10.5c0.3,0.4,0.4,0.9,0.5,1.3c0.1,0.8-0.1,1.9-1,2.8
	c-0.2,0.2-0.4,0.2-0.7,0.1c-0.7-0.3-2.5-0.9-4.7,0.3c-0.1,0.1-0.3,0.1-0.5,0.1c-0.6-0.2-2.1-0.6-2.8-0.2c-0.2,0.1-0.5,0.2-0.8,0.1
	c-3.8-0.9-26.7-5.4-23,14.9c0,0.3,0.1,0.5,0.2,0.7c0.3,0.6,1,1.7,2.6,3.2c0,0-1.8,1.8,3.6,2.6C7,41.9,7.2,42,7.4,42
	c0.9,0.5,4.2,2.1,7.8,0.3c0.2-0.1,0.4-0.3,0.4-0.6c0-0.2-0.1-0.5-0.3-0.7c-0.1-0.1,0-0.2,0.1-0.2c1.3,0,5.9,0.1,8.6-0.7
	c0.1,0,0.3,0,0.3,0.2c0.3,0.9,1.3,3.8,1.9,4.4c0,0,0.3,0.4,1,0.5c0,0,0.1,0,0.1,0c0.1,0,0.5-0.1,0.7,0.1c0,0,0.7,0.3,1.2,0.2
	c0,0,0.5-0.1,0.8,0c0,0,2.8,0.3,2.5-1.1c0,0,0-0.1,0-0.1c-0.1-0.2-0.8-1.4-2.2-2.2c-0.1,0-0.1-0.1-0.1-0.2c-0.2-0.6-1.3-3.3,1.7-2.8
	c0,0,0.1,0,0.1,0c0.5,0.2,3.5,1.4,4.3,1.9c0.1,0,0.1,0.1,0.1,0.2c0.1,0.3,0.7,1.4,3.3,1.6c0,0,0,0,0.1,0c0.5,0.1,7.2,1.9,8.1-0.1
	c0.1-0.3,0.1-0.7-0.1-1C47.2,41.2,46.1,40.2,43.2,39.9z M40.3,22.9c0.4,0,0.7,0.3,0.7,0.7c0,0.4-0.3,0.7-0.7,0.7
	c-0.4,0-0.7-0.3-0.7-0.7C39.6,23.2,39.9,22.9,40.3,22.9z"/>
</svg>
