<?xml version="1.0" encoding="utf-8"?>
<!-- Generator: Adobe Illustrator 19.1.0, SVG Export Plug-In . SVG Version: 6.00 Build 0)  -->
<svg version="1.1" id="Layer_1" xmlns="http://www.w3.org/2000/svg" xmlns:xlink="http://www.w3.org/1999/xlink" x="0px" y="0px"
	 viewBox="0 0 48 48" style="enable-background:new 0 0 48 48;" xml:space="preserve">
<style type="text/css">
	.st0{fill:#808080;}
</style>
<path class="st0" d="M47.9,34.9c-0.2-0.3-0.7-0.8-2.2,1.1c0,0-0.6,1-6.1,0.5c0,0-7,0.3-8.1-0.1c0,0-0.1,0-0.1,0
	c-0.1,0-0.5-0.2-0.2-1.5c0-0.1,0-0.1,0-0.2c-0.1-1,0.4-11.1-8.3-15.6c0,0-1.3-2.3-1-2.8c0,0,1.4-2.8,0.7-4c-0.1-0.1-0.1-0.3-0.1-0.5
	c0.4-1.3,1.6-6.6-2.9-2.3c-0.1,0.1-0.2,0.2-0.4,0.2C19.1,9.9,18.6,10,18,10c-0.6,0-1.1-0.3-1.5-0.7c-1-1.2-3.8-3.9-2.7,2.4
	c0,0.1,0,0.1,0,0.2c-0.1,0.5-0.6,1.9,0,3c0,0.1,0.1,0.1,0.1,0.2c0,0.5,0,2.1-1.2,3.7c-0.1,0.2-0.4,0.2-0.5,0.2
	c-0.2-0.1-0.5-0.2-0.7-0.2c-0.2,0-0.4-0.1-0.5-0.3c-0.4-0.7-1.3-1.9-2-2.5c-0.1-0.1-0.2-0.2-0.1-0.4c0.1-0.6,0.3-2.4-0.2-3.1
	c-0.1-0.1-0.1-0.3-0.1-0.4C9,10.9,10.3,5.6,6,10.4c0,0,0,0-0.1,0c-0.2-0.1-1.1-0.3-2.6,0.1c0,0-0.1,0-0.1,0c-0.4-0.5-4.9-5-2.7,1.9
	c0,0.1,0,0.2,0,0.3c-0.1,0.6-0.5,3.4,1,5.8c0.1,0.1,0.1,0.3,0.1,0.4c-0.2,1-1,5.1,1.7,8.8c0.1,0.1,0.1,0.2,0.1,0.3
	c0.4,1.1,2.9,8.5,0.7,9c-0.2,0-0.4,0.1-0.6,0.2c-0.5,0.3-1,0.7-0.3,1.4c0,0,8.2,0.8,11,0.5c0.1,0,0.2,0.1,0.2,0.2
	c0,0.3,0.1,0.8,1.2,0.8c0,0,0.1,0,0.1,0.1c0.1,0.1,0.6,0.4,3.4,0c0,0,0,0,0.1,0c0.1,0,0.2-0.2,0.3-0.4c0-0.1,0.1-0.2,0.2-0.2
	c0.8-0.1,3.8-0.6,4,0.4c0,0.1,0,0.1,0.1,0.1c0.2,0.2,0.9,0.5,2.7,0c0,0,0,0,0.1,0c0.3,0,2.8-0.2,4.5-1.1c0,0,0.1,0,0.1,0
	c0.9-0.1,9.4-0.8,14.2-0.3c0,0,0.1,0,0.1,0c0.4-0.1,2.4-0.6,2.6-3.6C48,35,48,34.9,47.9,34.9z M4.1,13.8c0,0.3-0.4,0.4-0.7,0.4
	c-0.4-0.1-0.6-0.3-0.6-0.6c0-0.3,0.4-0.4,0.7-0.4C3.8,13.3,4.1,13.6,4.1,13.8z M6.7,14.2C6.4,14.3,6,14.1,6,13.9
	c-0.1-0.3,0.2-0.6,0.5-0.6c0.4-0.1,0.7,0.1,0.8,0.3C7.3,13.8,7.1,14.1,6.7,14.2z M16.2,14.3c-0.4,0-0.7-0.3-0.7-0.7
	c0-0.4,0.3-0.7,0.7-0.7c0.4,0,0.7,0.3,0.7,0.7C16.9,14,16.6,14.3,16.2,14.3z M19.8,14.5c-0.4,0-0.7-0.3-0.7-0.7s0.3-0.7,0.7-0.7
	c0.4,0,0.7,0.3,0.7,0.7S20.2,14.5,19.8,14.5z"/>
</svg>
