<?xml version="1.0" encoding="utf-8"?>
<!-- Generator: Adobe Illustrator 19.1.0, SVG Export Plug-In . SVG Version: 6.00 Build 0)  -->
<svg version="1.1" id="Layer_1" xmlns="http://www.w3.org/2000/svg" xmlns:xlink="http://www.w3.org/1999/xlink" x="0px" y="0px"
	 viewBox="0 0 48 48" style="enable-background:new 0 0 48 48;" xml:space="preserve">
<style type="text/css">
	.st0{fill:#808080;}
</style>
<path class="st0" d="M46.1,37.1c0,0-3.4-18.8-24.7-15.5c-0.4,0.1-0.8-0.1-0.9-0.5c-0.5-1-1.1-3.3,0.5-6.1c2.1-3.8,3.2-1.6,3.3-12.2
	c0-0.1,0-0.2,0-0.4c-0.1-1-0.8-4.9-4.6,0c0,0-5.9,7.8-3.6,13c0.1,0.2,0,0.4-0.2,0.4L15.4,16c-0.1,0-0.3-0.1-0.3-0.2
	c-0.3-1.4-2.4-9.1-9.9-11.2c0,0-5.2-1.1-3,3.8C2.4,8.7,2.5,9,2.6,9.3c0.4,1.4,2.3,6.2,7.4,7.8c0.6,0.2,1.1,0.5,1.4,1
	c0.5,0.7,1.1,1.9,0.9,3.4c0,0-0.2,0.6,0,1c0,0,0.8,0.7,0.3,1.7c0,0-2.7,7,6.1,12.1c0.3,0.2,0.7,0.4,1.1,0.5c0.7,0.2,2.2,1,0.5,4.4
	c0,0-0.7,0.2-1,2c0,0-1.1,1.3-1.2,1.6c-0.1,0.3-4.4,0.9-1.1,2.8c0,0,3,0.3,3.4,0.2c0,0,4.3,0.6,5.6,0.3c0,0,15.4,0,16.4-0.5
	c1.1-0.5,2.7-0.8,3.3-2.9c0,0,0.3-0.9-0.5-1.7C44.5,42.1,46.9,39.9,46.1,37.1z M27.8,43.8c-1.1,0.3-1.3-1.2-1.3-1.2l0-2
	c0.2-0.2,0.8,0.1,0.8,0.4c0.1,0.3,0.6,0.8,1,1.1c0.3,0.3,0.2,0.7,0.2,0.7S29,43.4,27.8,43.8z"/>
</svg>
