<?xml version="1.0" encoding="utf-8"?>
<!-- Generator: Adobe Illustrator 19.1.0, SVG Export Plug-In . SVG Version: 6.00 Build 0)  -->
<svg version="1.1" id="Layer_1" xmlns="http://www.w3.org/2000/svg" xmlns:xlink="http://www.w3.org/1999/xlink" x="0px" y="0px"
	 viewBox="0 0 48 48" style="enable-background:new 0 0 48 48;" xml:space="preserve">
<style type="text/css">
	.st0{fill:#808080;}
</style>
<path class="st0" d="M44.9,6.7c0-0.1-0.3-0.3-0.4-0.4c-0.1-0.1-0.1-0.1-0.2-0.1c-0.4-0.3-2.5-1.5-3.8-3.2c0,0-0.1-0.1-0.1-0.1
	c-0.3-0.6-2.4-4.6-6.1-1.8c-1.2,0.9-2,2.1-2.6,3.5L31,6.4c0,0,0,0,0,0.1c-0.1,0.4-1.1,4.7-1.9,5.8l-4.6,7.3c0,0-1,2.5-6.8,2.7
	c0,0-2.1,0.4-4.1,2c0,0-6.8,5.5-8.2,8.2l-0.1,0.2l-0.6-0.5c0,0,0,0,0,0c0,0.1,0,0.2-0.1,0.3c0,0,0,0,0,0.1c0,0.1,0.1,0.3,0.1,0.4
	c0,0,0,0.1-0.1,0.1c-0.1,0-0.4,0-0.6-0.1c0,0,0,0,0,0C4,33,4,33.2,3.9,33.1l-0.7-0.3c0,0-0.2-0.1-0.2,0.2c0,0,0.1,0,0,0.2
	c0,0-0.1,0.1,0.2,0.1c0,0,0.8,0.1,0.4,0.4c0,0-0.1,0.1,0.1,0.2c0,0-0.1,0.1,0.3,0c0,0,0.3-0.1,0.1,0.2c0,0-0.5,0.3-0.9,0.4
	c0,0-0.2,0.1,0,0.1c0,0,1,0.1,1,0.1c0,0,0.1,0,0,0c0,0.1-0.2,0.3,0.2,0.1c0,0,0.2-0.1,0.1,0.1c0,0-0.1,0.2,0.1,0.1l0.2-0.2
	c0,0,0.1-0.1,0.1,0c0,0,0.1,0.2,0.2,0c0,0,0.2-0.1,0.3-0.1c0.1,0.1,1.5,0.4,1.7,0.8c0,0,0.9,1.5,1.4,1.4c0,0,0.1,0,0.1,0
	c0.1,0.1,0.6,0.5,0.3,0.4c0,0,0,0,0,0c0,0,0,0.1,0.3,0.2c0,0,1.2,0.2,1.4,0.4c0,0,0,0,0,0c-0.1,0-0.6,0-0.4,0.1l0.5,0
	c0,0,0.1,0,0,0.1c-0.1,0-0.3,0.1,0,0.1c0,0,0.3,0,0.3,0c0,0,0.1,0,0.1,0.1c0,0.1,0,0.1,0.1,0.1c0.1,0,1-0.4,1.2-0.4
	c0,0,0.5-0.1,0.8,0.3c0.2,0.3,0.5,0.5,0.5,0.5s0.2,0.1,0.2,0.3c0,0,0.1,1.1,0.3,1.4c0.1,0.3,0.3,1,0.3,2c0,0.3,0,0.6,0.1,0.9
	c0,0.3,0.1,0.6,0.1,0.7c0,0.1,0,0.2,0,0.2S14.9,45,15,45.2c0,0,0,0.6-0.2,1c0,0-0.3,0.9,0.5,1c0,0,0.1,0,0.3,0.1
	c0.2,0.2,0.4,0.2,0.4,0.2c0,0,0.4,0.1,0.5,0.2c0.1,0.1,0.8,0.2,1,0c0,0,0.1,0.3,0.3,0.1c0,0,0,0,0,0c0.1,0,0.4,0.2,0.1-0.1
	c0,0,0,0,0,0c0-0.1,0.1-0.3,0.3-0.2c0,0,0.5-0.1,0.8-0.2c0.1,0,0.3-0.1,0.4-0.1c0.4,0,0.9,0,1,0.1c0.1,0.1,0.9,0.3,1,0
	c0,0,0.8,0.2,0.2-0.3c0,0-0.1-0.1-0.3-0.2c0,0,0,0,0-0.1c0-0.1,0-0.2,0-0.2c0,0,0.1-0.1,0-0.3c-0.1-0.2,0.1-0.4,0.1-0.4
	s0.2,0,0.1-0.2c-0.1-0.2,0.2,0,0.2,0s0.5,0.3,0.3,0c0,0-0.4-0.4-0.7-0.4l-1.6,0c0,0-0.2-0.1-0.4-0.1c-0.1,0-0.1,0-0.2,0
	c-0.2-0.1-0.5-0.2-0.8-0.1c0,0-1.2,0-1.7-0.5l0,0c0,0-0.2,0-0.2-0.1c0,0,0-0.1-0.1-0.1c0,0-0.1-0.1-0.1-0.1c0-0.1-0.1-0.3-0.1-0.3
	c0,0-0.8-2-0.2-3.6c0,0,0.1-0.7,0-1c0,0,0,0,0,0c0.2,0,1.5,0.1,2.2-0.2c0.7-0.3,1.4-0.5,1.6-0.6c0.2-0.1,1.2-0.5,1.4-0.5
	c0.2,0,0.5,0,0.7-0.2c0.2-0.2,0.7-0.3,0.9-0.4c0,0,0.1,0,0.1,0.1l0.1,0.6c0,0,0.2,0.6,0.2,1.5c0,0,0,0,0,0l0.1,1.8
	c0,0-0.2,0.1-0.1,0.3c0.1,0.2-0.7,1-1,1c0,0-0.2,0-0.4,0c0,0-0.3,0.1,0,0.2c0,0,0.2,0.1,0.3,0.1c0,0-0.1,0.6,0.5,0.3
	c0,0,0.1-0.1,0,0.4c0,0,0.1,0.2-0.1,0.5c0,0,0,0.3-0.1,0.6c-0.1,0.2,0,0.4,0,0.4s-0.5,0.5-0.1,0.6c0,0,0.2,0,0.3,0
	c0,0,0.4,0.1,0.5,0c0.1-0.1,3.7,0.1,3.8,0c0,0-0.1,0.2,0.2,0.3c0,0,0.1,0.3,0.4,0.2c0,0,0.4,0,0.3-0.2c0,0,0,0,0,0v0
	c0-0.1,0-0.4,0.1-0.4c0,0,0.2-0.1,0.2-0.1s0.3-0.1,0.3-0.1h0c0,0,0.1,0,0.2,0c0,0,0,0,0,0c0,0,0.3,0,0.3,0c0,0,0,0,0,0
	c0,0,0.4,0,0.5,0c0,0,0.1-0.1,0.2,0c0,0,0.2,0,0.2,0c0,0,1,0,0.9-0.4c0,0,0.1,0,0.1,0c0,0,0.2,0.1,0.2,0.1c0,0,0.2,0-0.1-0.3
	c0,0-0.5-0.2-0.5-0.2c0-0.1-1.1-0.3-1.1-0.3s-0.4-0.2-0.7-0.1c-0.3,0,0.1-0.2-0.8-0.3c-0.1,0-0.3,0-0.4-0.1
	c-0.4-0.1-1.3-0.3-1.5-0.6l-0.2-0.2c-0.2-0.1-0.3-0.3-0.3-0.5c-0.2-0.9-0.9-3.4-0.7-5.3c0-0.1,0.1-0.2,0.2-0.2c0.3,0,0.8,0,0.8-0.9
	c0,0,0.2-0.3,0.5-0.3c0,0,0.3-0.1,0.4-0.2c0.1-0.1,4.9-3.2,6.5-6.3c0.2-0.4,0.4-0.8,0.7-1.2c0.3-0.4,0.5-1.2,0.1-3L33.8,16
	c0-1,0.1-2,0.4-2.9c0.4-1.3,1.1-3,2.2-4.4c0,0,1.1-1.6,2.6-1.2c0,0,4,1.5,4.8,1.4c0,0,0.9,0.1,0.6-0.5c0,0-0.1-0.4-0.4-0.5
	c0,0-0.1-0.1-0.2-0.1c0,0-0.1,0-0.1-0.1c-0.1-0.1-0.2-0.3-0.3-0.3c0,0,0,0,0,0c0.1,0,0.4-0.1,0.5-0.1c0,0,0,0,0,0
	c0,0,0.1,0.2,0.3,0.2c0,0,0.3,0.1,0.4,0c0.1-0.2,0.4-0.6,0.4-0.6S45,6.8,44.9,6.7z M36.3,2.4c0,0.2-0.2,0.4-0.4,0.4h-0.1
	c-0.2,0-0.4-0.2-0.4-0.4V2.3c0-0.2,0.2-0.4,0.4-0.4h0.1C36.1,1.8,36.3,2,36.3,2.4L36.3,2.4z"/>
</svg>
