<?xml version="1.0" encoding="utf-8"?>
<!-- Generator: Adobe Illustrator 19.1.0, SVG Export Plug-In . SVG Version: 6.00 Build 0)  -->
<svg version="1.1" id="Layer_1" xmlns="http://www.w3.org/2000/svg" xmlns:xlink="http://www.w3.org/1999/xlink" x="0px" y="0px"
	 viewBox="0 0 48 48" style="enable-background:new 0 0 48 48;" xml:space="preserve">
<style type="text/css">
	.st0{fill:#808080;}
</style>
<path class="st0" d="M42,46.6c0,0-2.1-0.5-2.1-0.7c0,0,0.2-0.3,0.7,0c0,0,0.1-0.6-0.7-0.6c0,0-1-0.1-1.8-0.1c-0.4,0-0.8-0.3-1-0.6
	c-0.7-1.2-2.4-4.1-1.7-4.6c0,0,0.8-0.1,0.6-1c-0.1-0.4-0.1-0.8-0.1-1.2c0.2-1.2,1-3.5,4.2-6.2c0,0,8.1-8.3,4.5-15.2
	c-0.1-0.3-0.1-0.6,0.1-0.9c0.5-0.6,1.3-1.8-0.2-2.9c-0.5-0.3-0.8-0.8-1-1.4c-0.2-0.7-0.1-1.5,1.5-1.3c0,0,0.2-0.6-0.6-1
	c0,0,1.3-1.7,0.3-3.1c0,0-0.2-0.1-0.2-0.6c0,0-0.2-0.6-1-0.1c0,0,0-1-0.7-0.9c0,0-0.4,1.3-0.8,1c0,0-0.1-1.3,0.6-2.5
	c0,0-0.2-0.7-0.9,0.6c0,0-1.2,1.4-1.3,1.9c0,0-0.9-0.8-0.6-2.3c0,0,0-0.8-0.9,1.1c-0.1,0.2-0.2,0.3-0.3,0.5c-0.3,0.2-0.6,0.6-0.6,1
	c0,0.1-0.1,0.2-0.2,0.2c-0.4,0-1.1,0-1.3,0.5c0,0.1-0.1,0.3-0.3,0.3C36,6.6,35,7.2,35.2,7.6c0,0-1.1,0.7,0.3,0.8c0,0,0.2,0.9,2.2,0
	c0,0,1.1-0.3,1-0.1c0,0-9.8,7-10.1,10.9c0,0.3-0.3,0.5-0.6,0.5c-1.1-0.2-3.3-0.9-3.8-2.7c-0.1-0.2-0.1-0.5,0-0.7
	c0.3-1.5,1.2-9-7.6-14.6c-0.6-0.4-1.2-0.6-1.8-0.8c-2.3-0.7-8-1.9-10,0.8c0,0,4.2-1.5,8.2,0.5c0.1,0,0.1,0.2,0,0.2
	c-0.1,0-0.3,0.1-0.4,0.2c-0.1,0.1-0.3,0.2-0.4,0.2c-0.5,0-1.4,0-1.3,0.5c0,0.1-0.1,0.3-0.2,0.4c-1,0.8-4.9,4.2-5.6,9.7
	c0,0.2-0.1,0.4-0.2,0.5c-0.6,0.5-2.2,2.2-2.3,4.3c0,0,1.2-3.1,3.3-4c0,0,0.1,1.7-0.8,3.4c0,0-1.1,3.5,0.3,6.4c0,0-0.3,1.6,0.4,2
	c0,0-0.1-1.2,0.3-1.8c0,0-0.1,0.8,0.2,0.8c0,0,0.3-0.8,0.4-1.3c0-0.1,0.2-0.1,0.2,0c0,0.1,0,0.1,0,0.2c0,0-0.2,2.1,0.1,2.3
	c0,0,0.7-0.6,0.9-1.5c0-0.1,0.1-0.1,0.2-0.1c0.1,0,0.2,0.1,0.3,0.2c0.1,0.1,0.1,0.3,0,0.3c-0.2,0.1-0.4,0.4-0.1,0.5
	c0,0-2.1,2-0.4,4.7c0.1,0.1,0.2,0.1,0.3,0c0.2-0.2,0.6-0.7,0.7-1.5c0-0.2,0.1-0.3,0.2-0.4c0.1-0.1,0.3-0.1,0.4-0.1
	c0.1,0,0.2-0.1,0.2-0.1c0.1-0.4,0.4-1.2,0.8-1.1c0,0,0.6,0.1,0.4,0.3c0,0-0.8,1-0.6,1.6c0,0.1,0.1,0.1,0.1,0.1c0.1,0,0.2,0,0.1,0.2
	c0,0,0,0.1,0,0.2c0.1,0.4,0.5,1.8,1,1.9c0,0,0.4-0.1,0.3-0.6c0,0,0-0.8,0.5-0.8c0.1,0,0.2-0.1,0.3-0.2l0.2-0.4c0,0-0.2,1.2,0.1,1.4
	c0,0,0.3,1,1.2-0.2l0.4-0.7c0-0.1,0.1-0.1,0.2,0c0.1,0.4,0.5,1.1,1.9,0.6c0.2-0.1,0.4,0,0.5,0.2l0.8,1.4c0.1,0.2,0.2,0.4,0.2,0.7
	c0,0.4,0,1.2,0.3,1.6c0,0,0.1,0,0.1,0c0-0.6,0.1-2.4,0.2-1.8c0,0,0,2,0.6,2.9c0.1,0.1,0.2,0,0.2-0.1L19,33.7c0-0.1,0.1-0.1,0.1,0
	l0.2,0.4c0.2,0.3,0.3,0.6,0.3,1c0,0.3,0.1,0.7,0.4,0.6c0,0,0-2.1,0.3-1.6c0,0,0.5,0.8,0.7,1.7c0,0,0.2,1.2,0.5,1.5
	c0,0,0-1.3,0.1-1.6l1,1.8c0,0,0.1,0,0.1,0c0-0.2,0-0.4,0.1-0.5c0.1-0.2,0.2-0.3,0.3-0.4c0.1-0.1,0.2-0.2,0.3-0.3c0,0,0.1,0,0.3,0.5
	c0,0,0.2,1.9,1.8,2.8c0.2,0.1,0.4,0.1,0.6-0.1c0.5-0.4,1.4-1.1,1.9-1.9c0.1-0.1,0.2-0.1,0.3-0.1c0.4,0.2,1.4,0.7,2.1,1.1
	c0.4,0.2,0.6,0.6,0.7,1c0.1,0.9,0.3,2.5,0.2,2.6c0,0-0.7,0.6-2.6-0.8c0,0-0.2,1.8,2.7,1.7c0,0-0.3,1.3-1.4,2.2c0,0-0.3,0.4,0,0.5
	c0,0,0.1-0.6,0.4-0.3c0,0,0.4,0.6,0.8-0.3c0,0,0.3-0.9,0.4-0.5c0,0,0.2,0.9,1.1,0.7c0,0,0.1,0.9,1.8,0.6c0,0,0,0.4,0.4,0.4
	c0,0,0.3-0.2,0.1-0.5c0,0,0.4,0.2,0.6,0.1c0.1,0,0.2,0,0.2,0.1c0.1,0.3,0.5,0.7,1.1,0.9c0,0,0.6,0.2,0.5,0.7c0,0,0.6-0.3,0.2-1.1
	c0,0-0.3-0.3,1-0.1c0,0,3.2,0.7,3.6,0.4c0,0,0.3-0.2,0.7,0.1C43,47.3,42.9,46.8,42,46.6z M41.6,9.2c0.3,0,0.5,0.2,0.5,0.3
	c0,0.2-0.2,0.3-0.5,0.3c-0.3,0-0.5-0.2-0.5-0.3C41.1,9.4,41.4,9.2,41.6,9.2z M5.1,22.9c0,0-0.4-2.2,0.5-3.1l0.5,0.7
	C6.1,20.4,5.4,21.4,5.1,22.9z M11.2,6.3c0,0,1.4-0.5,1.6-0.8c0,0,0.5,0.2,0.6,0.4C13.4,5.9,11.3,6.5,11.2,6.3z M16,9.4l-1.8-1.4
	c0.7-0.2,1.4,0.2,1.4,0.2l1.1,1.4L16,9.4z M33.6,44.1c-0.9-0.2-0.8-3.9-0.8-3.9c0.8,0,1.8,2.8,1.8,2.8
	C35.7,44.2,33.6,44.1,33.6,44.1z"/>
</svg>
