<?xml version="1.0" encoding="utf-8"?>
<!-- Generator: Adobe Illustrator 19.1.0, SVG Export Plug-In . SVG Version: 6.00 Build 0)  -->
<svg version="1.1" id="Layer_1" xmlns="http://www.w3.org/2000/svg" xmlns:xlink="http://www.w3.org/1999/xlink" x="0px" y="0px"
	 viewBox="0 0 48 48" style="enable-background:new 0 0 48 48;" xml:space="preserve">
<style type="text/css">
	.st0{fill:#808080;}
</style>
<path class="st0" d="M47.9,16.3c-0.1-0.2-0.2-0.4-0.4-0.6c-0.7-0.7-3-2.3-8.7-2.2c0,0-11.8,0.4-16,4.7c-0.1,0.1-0.3,0.1-0.4,0
	c-0.2-0.1-0.4-0.3-0.7-0.1c0,0,0.2-0.3,0.1-0.6c-0.1-0.1-0.1-0.3,0-0.4c0.1-0.3,0.2-0.8-0.6-0.8c0,0-0.1-0.1-0.2-0.1
	c0.5-2.1,0.3-0.9,2.8-6.5c0.1-1-0.6,1-0.9,1.8c-0.2,0.5-2.1,4.1-2,4.7c0,0-0.3-0.1-0.4,0c-1.9-2.3-1.3-1-4.9-3.9
	c-0.7-0.8-1.3-0.6-0.1,0.1c3.8,2.9,3,1.7,4.8,3.7c0,0-0.1,0-0.1,0.1c0,0-1.1,0.2-0.5,1c0.1,0.1,0.1,0.3,0.1,0.4c0,0.2,0,0.5,0.3,0.8
	c0,0-0.5,0.2-0.4,0.6c0,0-0.4-0.4-0.5-0.3c0,0-0.2,0.2-0.3,0.3c0,0.1-0.1,0.1-0.2,0.1c-0.9,0-7.1,0.1-14.8,5.9c-1.1,0.8-2,1.8-2.8,3
	c-0.9,1.5-1.7,3.6-1,5.1c0.2,0.4,0.7,0.6,1.1,0.5L4.2,33c0,0,9.2-1.7,10.5,0.5c0,0,0.3,1.9,1.5,1.2c0,0,0.4-0.2,0.6,1.1
	c0,0,0.2,1.6,1.7,1.5c0,0,0.8,1.7,1.3,1.2c0.2-0.2,0.4-0.4,0.6-0.4c0.5-0.2,1.1-0.3,1.5-0.2c0,0,1-0.1,1.3-0.8c0,0,1,0.2,0.5-1.5
	l-0.1-1.2c0-0.3,0-0.7,0.1-1c0.1-0.4,0.2-1.1-0.4-2.2c-0.1-0.1-0.1-0.3-0.1-0.4c0.1-0.5,0.2-1.6,0.1-1.8c0,0,0.7,0.8,1-0.1
	c0,0,0.3-0.7,0.4-1.3c0-0.1,0.2-0.1,0.2,0c0.3,0.8,0.8,2.4,1.4,3.2c0.2,0.2,0.3,0.5,0.4,0.8c0.1,0.4,0.1,1.2,0.8,1.4
	c0.2,0.1,0.3,0.2,0.4,0.4l0.9,1.9c0.2,0.3,0.5,0.5,0.9,0.4c0.4-0.1,0.9-0.1,1.6,0.1c0,0,0.4,0.1,0.7-0.2c0.2-0.2,0.4-0.4,0.7-0.5
	c0.4-0.2,0.9-0.3,1.3-0.2c0.2,0,0.4-0.1,0.4-0.2c0-0.1,0.1-0.3,0.1-0.6c0,0,0-1,0.9-1.3c0,0,0.6-0.4,0.1-1.5c0,0-0.7-1.1,0.6-1.6
	c0,0,0.8-0.2,0.3-1.2c0,0-0.5-0.9,0.4-1.3c0,0,0.6-0.1,0.2-1.1c-0.1-0.3,0-0.6,0.2-0.8c0.7-0.5,1.9-1.4,2.1-1.8c0,0,1.1-0.5,1.6-1
	c0.2-0.3,0.5-0.5,0.8-0.6c0.6-0.3,1.5-0.7,1.6-1c0,0,1.6-0.3,1.9-0.7c0.1-0.1,0.2-0.2,0.3-0.2C46.3,19.5,48.5,18.2,47.9,16.3z
	 M19.1,19.1c0,0,0.2-0.2,0.2-0.2c0,0,0.3,0.2,0.3,0.2C19.6,19.1,19.1,19.1,19.1,19.1z"/>
</svg>
