<?xml version="1.0" encoding="utf-8"?>
<!-- Generator: Adobe Illustrator 19.1.0, SVG Export Plug-In . SVG Version: 6.00 Build 0)  -->
<svg version="1.1" id="Layer_1" xmlns="http://www.w3.org/2000/svg" xmlns:xlink="http://www.w3.org/1999/xlink" x="0px" y="0px"
	 viewBox="0 0 48 48" style="enable-background:new 0 0 48 48;" xml:space="preserve">
<style type="text/css">
	.st0{fill:#808080;}
</style>
<path class="st0" d="M47.8,12.5c0,0,0-0.8-0.2-0.2c0,0-0.1-0.1-0.1,0c0,0-0.1-0.3-0.1-0.3c0,0-0.2,0.4-0.2,0.5c0,0-0.1-0.3-0.1-0.4
	c0,0-0.2,0.3-0.2,0.4c0,0,0,0,0,0l0,0c0,0,0,0,0,0c0-0.1-0.1-0.4-0.1-0.4c0,0-0.1,0.2-0.2,0.4c0,0,0,0,0,0.1l-0.1,0
	c0,0-0.1-0.5-0.1-0.5c0,0-0.1,0.4-0.2,0.5c0,0,0,0.1-0.1,0.1l0,0c0,0,0-0.4-0.1-0.4c0,0-0.2,0.3-0.1,0.4c0,0-0.1,0-0.1,0.1
	c0,0-0.1-0.1-0.1-0.1l0,0.1l0,0c0,0-0.1-0.3-0.1-0.4l-0.1,0.3c0,0-0.3-0.6-0.2-0.7c0,0,0.4-0.5,0-1.3c0,0,0-0.1,0-0.1
	c0.1-0.1,0.3-0.5,0.5-0.6c0,0,0.1,0.2,0.1,0c0,0,0,0,0,0l0.3-0.2c0,0,0,0,0,0c0,0,0.1,0.1,0.1-0.1l0.1-0.1c0,0,0.1,0,0.1,0
	c0,0.1,0.2,0.3,0.3,0.2c0,0,0-0.3-0.1-0.4c0,0,0,0,0,0l0,0c0,0,0,0,0,0c0,0.1,0.2,0.3,0.3,0.3c0,0,0-0.4-0.1-0.5
	c0,0,0.2,0.2,0.3,0.2c0,0,0-0.3,0-0.4c0,0,0.3,0.2,0.4,0.2c0,0,0-0.4-0.1-0.6c0,0,0.3,0.4,0.2,0c0,0,0.5,0.5,0-0.6
	c0,0,0.1,0,0.1-0.3c0,0,0.2-1-0.5-1.3c0,0-0.4-0.9-1.7-0.5c0,0-0.2,0.1-0.5,0.1c0,0-0.1-0.2-0.7,0.3c0,0-0.7,0.3-0.7,0.6
	c0,0-0.1,0.1-0.2,0.2C43,7,42.9,7.1,42.8,7.2c-0.4,0.2-1.3,0.5-2,0.7c0,0-0.3-0.1-0.4,0.1c0,0-0.7-0.1-0.7,0.3c0,0-1-0.3-0.9,0.9
	c0,0-0.9,0.6-0.9,0.8c0,0-0.3-0.1-0.1,0.2l-0.1,0.1c0,0-0.3-0.2-0.1,0.1c0,0-0.5,0.4-0.6,0.7c0,0.1-0.1,0.2-0.1,0.3
	c-0.3,0.5-1.2,1.8-1.2,3.9c0,0-3.3,0.1-6,1.6c0,0-3.7,1.3-4.9,1.6c0,0-1.2-0.1-1.9,0.6c0,0-3.3,1.9-5.4,2.4c0,0-2.6,1-6.1-0.4
	c0,0-3.4-1.2-4.4-1.9c0,0-4.8-3.1-5.4-6.1c0,0-0.9-2.5,0.3-5c0,0,0.5-0.9-0.1-0.8c0,0-1.1,1.6-1.2,1.9c0,0-3.1,6.5,5.5,13.7
	c0,0,5.6,4.9,11.4,5.5c0,0,0.5,1,3.1,1c0.2,0,0.3,0.2,0.2,0.4c-0.5,0.7-1.6,2-2.4,2.4c0,0-0.2,0.2-0.2,0.3c0,0-0.3,0.1-0.5,0.8
	l-0.8,2.2c0,0-0.8,0.4-0.5,1.7c0,0-0.1,1,0.1,1c0,0-0.2,0.5,0,0.6c0,0-0.4,0.3-0.1,0.6c0,0-0.5,0.6-0.1,0.7L16,41.2
	c0,0,0.4,0.2,0.8-0.8c0,0,0.2,0,0.2-0.3c0,0,0.2-0.3,0.2-0.7c0,0,0.3-1,0.2-1.1c0,0,0.2,0.8,0.7,1c0,0-0.3,0.5,0.2,0.7
	c0,0-0.4,0.6,0.1,0.8c0,0,0.1,0.8,0,0.9c0,0,0.7-0.2,0.6-1.1c0,0,0.2-0.1,0.1-0.4c0,0,0.2-0.3,0.1-0.5l0.1,0c0,0,0.1,0.5,0.1,0.8
	c0,0,0.6-0.2,0.5-1c0,0,0.2-0.1,0.1-0.5c0,0,0.3-0.5-0.1-0.8c0,0-0.5-1.4-0.9-1.9c0,0-0.4-1.7,1-2.3c0,0,0.2-0.1,0.6-0.5
	c0,0,0.2-0.2,1.8-0.2c0,0,0.7-0.2,1.5-0.5c0.1-0.1,0.3,0.1,0.2,0.2c-0.1,0.4-0.2,0.9-0.3,1.4c0,0.4-0.1,0.8-0.3,1.1
	c-0.2,0.5-0.5,1.1-0.8,1.5c0,0-0.7,0.6-0.1,1.5c0,0,0.8,1.3,0.7,2c0,0,0.1,0.1,0,0.3c0,0,0,0.1,0,0.1c0,0,0,0.3,0.1,0.4
	c0,0,0-0.2,0.2-0.4c0,0,0.2-0.2,0.1-0.5l0.3,0.4c0,0-0.5,1.6,1.7,1.4c0,0,0.3,0.4,1,0.1c0,0,0.5,0.5,1.3,0c0,0,0.5,0,0.7,0.2
	c0,0,0.2,0-0.1-0.3c0,0,0.7,0.1,0.9-0.3c0,0,0.5-0.2,0.9,0c0,0,0.1,0,0-0.2c0,0-0.2-0.5-0.9-0.4c0,0,0-0.1-0.4-0.1
	c0,0-0.2-0.2-0.7-0.1c0,0-1.2,0-1.5-0.5c0,0,0-0.1-0.4-0.2c0,0-1.6-1.5-1.8-2.6c-0.1-0.2,0-0.5,0.1-0.7c0.2-0.4,0.9-1.3,2.5-2.5
	c0,0,2.6-2.3,2.1-4.5c-0.1-0.2,0-0.4,0.2-0.6c0.9-0.6,3.2-2,4-2.5c0,0,1.4-1.3,1.9-2c0,0,0.1,0.1,0.2,0.1c0,0,0.1,0.4,0.5,0.4
	c0,0,0.2,0.1,0.3,0.3c0,0,0.1-0.3-0.2-0.6l-0.2-0.3c0,0,0.3,0,0.5,0.3l0-0.1c0,0,0.9,1.3,1.4,1.2c0,0,0.6,0.5,1,0.5
	c0,0,0.1,0.3,0.3,0.2c0,0,0,0.3,0.1,0.3c0,0,0.1,0.2,0.2,0.2c0,0,0.2,0.1,0.2,0.4c0,0,0.2-0.2,0-0.6c0,0-0.1-0.2-0.2-0.4
	c0,0,0,0,0,0c-0.1-0.1-0.7-0.8-0.9-0.8c0,0-0.2-0.1-0.3-0.3c0,0-0.1-0.3-0.3-0.3c0,0-0.4-1.2-0.5-1.3c0,0,0.1-0.2,0.2-0.2
	c0,0,0.1-0.3,0.1-0.5c0,0,0.4-0.8,0.5-0.9c0,0,0.1-0.3-0.1-0.7c0,0-0.2-1.2,0.1-1.8c0-0.1,0.1-0.1,0.1-0.1c0.1-0.1,0.4-0.4,0.5-0.8
	c0,0,0.4-0.1,0.5-0.6c0,0,1.9-1.2,2.3-2.2c0.1-0.2,0.2-0.3,0.4-0.4c0.6-0.2,1.6-0.5,2.1-0.8c0.2-0.1,0.4-0.2,0.6-0.3
	c0.5-0.2,1.2-0.4,1.7-0.6c0.3-0.1,0.7-0.3,0.9-0.6c0.2-0.2,0.3-0.6,0.3-1C48,12.6,48,12.5,47.8,12.5z M40.3,9c0,0,0.1-0.4,0.4-0.1
	C40.6,8.9,40.6,9.1,40.3,9z"/>
</svg>
