<?xml version="1.0" encoding="utf-8"?>
<!-- Generator: Adobe Illustrator 19.1.0, SVG Export Plug-In . SVG Version: 6.00 Build 0)  -->
<svg version="1.1" id="Layer_1" xmlns="http://www.w3.org/2000/svg" xmlns:xlink="http://www.w3.org/1999/xlink" x="0px" y="0px"
	 viewBox="0 0 48 48" style="enable-background:new 0 0 48 48;" xml:space="preserve">
<style type="text/css">
	.st0{fill:#808080;}
</style>
<path class="st0" d="M39.3,13.7c0,0-1.8-3-5-2.3c-0.5,0.1-1,0.1-1.5,0.1c-0.9,0-2.4,0.2-4.4,1.2c-0.5,0.2-1,0.4-1.6,0.3
	c-0.9,0-1.9-0.2-2-0.6c0,0-0.2-1.4,0.2-2.2c0,0,0.2-0.3-0.3-0.5c0,0-0.5-0.6-0.8-0.2c0,0-0.1-0.3-0.3-0.2c0,0,0.3-0.2,0.1-0.7
	c0,0-1.8-5.1-3.5-5.7c-0.1,0-0.2-0.2-0.2-0.3C20,2,20.3,0.9,20.6,0.3c0-0.1-0.1-0.2-0.1-0.2c0,0-0.1,0.1-0.1,0.1
	c-0.1,0.2-0.2,0.3-0.4,0.4c-0.1,0.1-0.3,0.2-0.5,0.3c0,0-1.1,0.5-1.6,0.8c-0.1,0.1-0.2,0-0.2-0.1c0-0.4-0.2-1.2-1.2-1.5
	c-0.1,0-0.2,0-0.3,0.1C16,0.5,15.6,1.1,15,0.6c-0.1-0.1-0.1-0.1-0.2-0.1c-0.2,0-0.6,0.2-0.5,0.3l0.2,0.3c0.1,0.1,0,0.3-0.2,0.2
	c-0.2,0-0.4-0.1-0.6-0.2c-0.1,0-0.2,0-0.2,0.1c0,0.1-0.1,0.3-0.3,0.2L11.6,0c0,0-0.3-0.2-0.3,0.2c0,0-0.3,2.2,1.4,3.6
	c0.1,0.1,0.1,0.3,0,0.4c-0.6,0.6-2.3,2.2-2.5,4c0,0,0,0.7-0.9,1.6c0,0-1.5,2.2-1.6,2.5c0,0-1.4,1.9-0.8,3.4c0,0,0.7,2.2,3.4,1.5
	c0,0,0.4,0,0.5-0.8c0-0.2,0.2-0.4,0.4-0.5c0.9-0.4,3.1-1.4,4.2-1.7c0.3-0.1,0.6,0.1,0.6,0.4c0.1,0.9,0.5,2.8,1.4,4.9
	c0.2,0.3,0.2,0.7,0,1.1c-0.4,1.1-1.1,3.8,1.4,7c0.1,0.2,0.2,0.3,0.2,0.5c0.1,0.9,0.5,3.7,1.2,5c0.1,0.2,0.2,0.4,0.2,0.6
	c0.1,0.6,0.3,2,0.3,3.1c0,0,0.6,4.4,0,6.3c0,0-0.1,0.6-0.1,1.1c0,0,0.1,0.3-0.6,1.1c0,0-1.4,2.3-1.2,2.4c0,0,2.6,0.6,2.9-0.5
	c0,0,0.5-0.6-0.1-1.3c0,0,0.1-1.1,0.5-1.2c0,0,0.7-0.3,0.4-1.7c0,0-0.2-2.9,0-4c0,0,0.1-1.4,0.3-1.6c0,0,0-2.7-0.1-2.7
	c0,0,0.3-2.8,0.4-3.8c0-0.3,0.3-0.4,0.6-0.3c0.2,0.1,0.5,0.3,0.7,0.7l0.4,3.7c0,0.1,0,0.3,0,0.4c-0.2,0.6-0.5,2.7,0.3,4
	c0.1,0.2,0.2,0.4,0.2,0.6c0.1,0.8,0.4,2.9,0.2,3.4c0,0-0.4,0.7,0,1.4c0,0-0.2,1-0.7,1.4c0,0-0.1,0.2,0,0.5c0,0-0.1,0.9-0.3,1.2
	c0,0-0.3,0.4,0.4,0.4c0,0,1.8,0.3,2-0.3c0,0,0.6-1.2-0.1-2c0,0-0.1-0.8,0-1c0,0,0.7-0.9,0.1-1.7c0,0-0.7-2.9-0.1-4.3
	c0,0,0.4-1,0-2.3c0,0,0.6-5,0.5-6.6c0-0.2,0.2-0.4,0.4-0.4c0.8,0.1,2.6,0.3,3.4,0.2c0.2,0,0.4,0.1,0.5,0.3c0.2,0.6,0.5,1.6,1,2.3
	c0.2,0.2,0.3,0.5,0.4,0.7c0.4,0.9,1.3,3,1.1,4.1c0,0-0.6,4.3-0.7,4.6c0,0-0.3,0.6-1,1c0,0-0.2,0.1-0.3,0.5c0,0-1.1,1.4-0.6,1.5
	c0,0,2.8,0.5,2.9-0.6c0,0,0-0.6-0.2-0.7c0,0,0.4-0.6,0.7-0.7c0,0,0.6-0.1,0.6-1.1l0.1-1.9c0,0,0.2,1.7,0.6,2.4c0,0-0.7-2.4-0.5-3.2
	c0,0,0.2,1.4,0.6,1.8c0,0,0.1,1.3,0.2,1.6L36.2,41l0.4,0.4l-0.1-3.2l0.2,1.1c0,0,0.3,1.5,0.4,1.6l-0.2-1c-0.2-0.9,0.2-2,0.2-2
	l0.4-1.7l0.1,0.9l-0.2,2l-0.3,1.7c0,0-0.2,0.8,0.1,1.3c0,0,0,0.7-0.6,1c0,0,0.1,1.1-0.3,1.5c0,0,0.1,0.4,1,0.4c0,0,1.4,0.2,1.4-0.5
	c0,0,0.1-0.8-0.3-1.4c0,0-0.2-0.5,0.2-0.7c0,0,0.4-0.6,0-1.3c0,0-0.1-4.3,0.6-5.4c0,0,0.4-1.4,0-3.6c0,0,0.6-5.2,1.4-8
	c0.4-1.2,0.6-2.4,0.6-3.6C41.3,18.6,40.9,16,39.3,13.7z M13.4,7.6c0,0,0.7-1.1,1.8-0.2C15.2,7.4,14.2,8.5,13.4,7.6z M34.7,28.3
	l0.9-0.6c0,0-0.3,3.7-0.1,4C35.5,31.7,34.4,30,34.7,28.3z M35.9,38c-0.2,0.4,0,2.5,0,2.5c-0.7-1.9-0.1-3.5-0.1-3.5
	C36,36.9,35.9,38,35.9,38z M36.2,39.5c-0.2-0.4,0-2.4,0-2.4C36.4,37.5,36.2,39.5,36.2,39.5z M36.6,41.2l-0.3-0.4c0,0,0-1,0.2-1.4
	L36.6,41.2z"/>
</svg>
