<?xml version="1.0" encoding="utf-8"?>
<!-- Generator: Adobe Illustrator 19.1.0, SVG Export Plug-In . SVG Version: 6.00 Build 0)  -->
<svg version="1.1" id="Layer_1" xmlns="http://www.w3.org/2000/svg" xmlns:xlink="http://www.w3.org/1999/xlink" x="0px" y="0px"
	 viewBox="0 0 48 48" style="enable-background:new 0 0 48 48;" xml:space="preserve">
<style type="text/css">
	.st0{fill:#808080;}
</style>
<path class="st0" d="M26.7,18.5c0.1-0.5,0.1-2.1-1.2-4.5L20,5.9c0,0-3.1-4.6-5.2-5.7C14.6,0,14.4,0,14.1,0c-1,0.1-3.7,1.1-6.5,5.8
	C7.5,6.1,7.3,6.3,7.2,6.6C6.7,7.9,5.2,12.1,6,14c0.1,0.4,0.4,0.6,0.8,0.8C8,15.4,13,17.6,16,18.1c0,0-14.2,0.3-15.8,6.5
	c0,0-2,5.1,4.8,10.5c1.3,1,2.8,1.4,4.4,1.2c0.6-0.1,1.2-0.3,1.7-0.6c0.1-0.1,0.3,0,0.3,0.2c0,0.8,0.4,2.6,3,1.2
	c0.1,0,0.2,0.1,0.1,0.1c-0.8,1-2.7,3.8-0.7,5.8c0.2,0.2,0.3,0.3,0.5,0.5c1.1,1.3,5.6,6.1,11.2,3.9c0.4-0.2,0.8-0.4,1.1-0.7
	c1.4-1.4,5.3-6.1,4.5-12.8c0-0.1,0.2-0.2,0.2,0c0.9,2.6,3.2,7.8,7.4,6.1c0,0,9.6-4.4,9.3-10.1c0-0.7-0.4-1.4-0.9-2
	c-0.7-0.7-2.3-1.9-4.4-2.8c0,0-9.5-5-12.7-3.9C30,21.1,30,21,30,21c0.2-0.2,0.4-0.4,0.4-0.6c0-0.1,0.1-0.2,0.3-0.2l7.7,0.5l5.7,0.5
	c0,0,0.1-1.2-3.8-0.8l-9.5-0.5c-0.1,0-0.3-0.1-0.3-0.3c0-0.2-0.1-0.4-0.3-0.5c0,0-0.1-0.1,0-0.1c0.3-0.3,1.2-1.2,1-1.6
	c0,0-0.5-0.9-0.9-0.4c0,0-0.9,0.7-1.2,1c0,0-0.1,0.1-0.1,0c-0.1-0.1-0.3-0.3-0.7-0.3c-0.1,0-0.2-0.1-0.2-0.2l-0.5-4.5l-0.7-3.7
	c0,0,0-4.4-0.7-5.4c0,0-0.6-0.6-0.2,1.4l0.4,2.8l0.6,2.9l0.9,6.4c0,0.1,0,0.3-0.1,0.4l-0.4,0.4c0,0,0,0-0.1,0.1l-0.4,0.2
	C26.7,18.6,26.7,18.5,26.7,18.5z"/>
</svg>
