<?xml version="1.0" encoding="utf-8"?>
<!-- Generator: Adobe Illustrator 19.1.0, SVG Export Plug-In . SVG Version: 6.00 Build 0)  -->
<svg version="1.1" id="Layer_1" xmlns="http://www.w3.org/2000/svg" xmlns:xlink="http://www.w3.org/1999/xlink" x="0px" y="0px"
	 viewBox="0 0 48 48" style="enable-background:new 0 0 48 48;" xml:space="preserve">
<style type="text/css">
	.st0{fill:#808080;}
</style>
<path class="st0" d="M44.8,15.4c-5.4,0.4-16,4.6-15,4.2c-0.2,0.1-0.5-0.1-0.6-0.3c-0.1-0.3-0.2-0.8-0.7-1.2
	c-0.1-0.1-0.1-0.2-0.1-0.3l0-0.3c0-0.1,0.1-0.2,0.1-0.3c0.3-0.3,1.2-1.3,1.7-3.1c0,0,0.4-1.4,0.9-2l-0.2-0.1l0.6-0.6l-0.1-0.1
	l0.6-0.6l-0.3,0l0.7-0.6L32,10.1c0,0,0.4-0.7,0.6-0.3c0,0,0-1-0.9-0.7l0.3,0l-0.3,0.6l-0.1-0.1l-0.3,0.8l-0.1-0.2L31,11.1l-0.1-0.2
	l-0.1,0.8c0,0-1.1,1.3-1.5,1.9c0,0-1.1,2.2-1.3,3.2c0,0.1-0.1,0.1-0.1,0c-0.1-0.3-0.4-0.9-0.7-1.3c-0.1-0.1-0.1-0.3-0.1-0.4
	c0.1-0.5,0.1-1.5-1-1.8c-0.2-0.1-0.3-0.2-0.4-0.4c-0.1-0.2-0.2-0.5-0.5-0.5c0,0,2.1-2.3,6.4-3.5c0,0,0.4-0.5-0.9-0.1
	c0,0-4.3,1.5-5.7,3.1c-0.1,0.1-0.2,0.1-0.3,0.1c-0.3-0.1-0.7-0.1-1,0c-0.1,0-0.2,0-0.3-0.1c-0.6-0.5-2.7-2.3-6.7-2.9
	c0,0-0.4,0.3,0.3,0.4c0,0,3.2,0.5,6.2,2.8c0,0-1.1,0.2-1,1c0,0.1-0.1,0.2-0.1,0.2c-0.4,0.1-1.2,0.6-0.7,1.7c0,0-1.3,0.8-1.2,1.7
	c0,0-1.5-3.8-2.5-4.6l-0.2,0.3l-0.3-1.1l-0.2,0.4l-0.1-1l-0.1,0.5l0-1.1l-0.2,0.4l-0.3-0.8c0,0,0.1-0.2,0.3-0.1c0,0-1-0.4-1,0.6
	l0.2-0.1l0.4,0.6l-0.2,0l0.4,0.4l-0.2,0.1l0.5,0.5l-0.2,0.2l0.6,0.6c0,0,1.3,4.3,2.5,4.8c0.1,0,0.2,0.1,0.2,0.2
	c0.1,0.3,0.1,1-0.1,1.6c-0.2,0.4-0.6,0.5-0.9,0.4C15.5,18.6,2,14.8,0.6,16.7c0,0-2.1,1.5,1.7,4.9c1,0.9,2.2,2.4,5.1,1.6
	c0,0-2,1.2-0.1,2.2c0,0,2.5,1.8,6.9,0.6c0,0-1.9,3.9-2.1,5.2c0,0.1,0,0.1-0.1,0.2c-0.1,0.2-0.5,0.8-0.2,0.7c0,0-0.8,0.8-0.5,0.8
	c0,0-0.7,0.9-0.2,0.7c0,0-0.4,1-0.7,1.2c0,0-0.2,0.2,0,0.3c0,0,0.1-0.3,0.3-0.1c0,0,0,0.2,0.3,0.2c0,0,0.1,0.3,0.1,0.4
	c0,0,0.2-0.3,0.2-0.5l0.3-1.2c0,0,0.3,0.1,0.3-0.7c0,0,0.3,0.5,0.3-0.8c0,0,0.3,0.6,0.3-0.8c0,0,0.3,0.4,0.4-0.3
	c0,0,2.2-5.8,6.2-6.4c0.1,0,0.1,0.1,0.1,0.1c-0.1,0.2-0.3,0.4-0.8,0.6c0,0-1.5,0.4-2.3,3.6c0,0-0.5,1.7-0.6,2.6
	c0,0.2-0.1,0.3-0.2,0.4l-0.9,1l1.1-0.9c0,0,0,0.1,0.1,0.1l0.6,2.9c0,0-0.2,1,0.1,1c0,0-0.3,0.8,0,0.8c0,0-0.3,0.8-0.1,0.9l-0.8,1.5
	c0,0,0.5-0.5,0.8,0.1c0,0,0.1-0.2,0-0.3l0.4-1.2c0,0,0.4-0.1,0.2-1c0,0,0.3,0.2,0-0.8c0,0,0.3,0.2,0-1l0.2-2.7l0.7,1.1L16.9,32
	c0-0.1,0-0.2,0-0.3c0-0.9,0.3-5,1.9-5.2c0,0-3.5,5.7,4.6,11.2c0.5,0.3,1.1,0.4,1.5,0.1c0.6-0.3,1.6-1,2.9-2.2
	c0.1-0.1,0.2-0.2,0.3-0.3c0.6-0.5,3.1-3.1,1.6-8.2c0-0.1,0-0.2,0.1-0.3l0.3-0.3c0.1-0.1,0.2-0.1,0.2,0l1.4,5.1c0,0.2,0,0.3-0.1,0.5
	c-0.4,0.7-1.4,2.6,0.1,0.3c0-0.1,0.1,0,0.1,0c0,0.7,0,2.4,0.1,2.4c0,0-0.5,1.6,0,1.1c0,0-0.3,1.4,0.1,0.8c0,0-0.2,1.5,0.2,0.9
	l0.2,1.6c0,0,0.4-0.9,1-0.2c0,0-0.8-1.5-0.8-2.3l-0.1-1.1c0-0.4,0-0.9,0.1-1.3c0.1-0.6,0.3-1.5,0.3-2.1c0,0-0.1-2.5-0.3-3.3
	c0,0-0.4-3.7-3.4-3.7c-0.1,0-0.1,0-0.2-0.1c-0.2-0.2-0.6-0.8-0.3-0.7c0,0,1.3,0.3,1.9,0.1c0.1,0,0.2,0,0.2,0.1l3.2,3.4l1.9,2.9
	c0,0,0.1,1.2,0.4,0.8c0,0,0,1.1,0.3,0.5c0,0,0.3,1.6,0.5,0.8c0,0,0.2,1.1,0.1,1.4c0,0,0.5-0.4,0.8-0.2c0,0-0.4-1.1-0.6-1.3
	c0,0,0.3-0.2-0.5-0.7c0,0,0.2-0.2-0.2-0.6c0,0,0-0.2-0.5-0.8c0,0,0-0.1,0-0.2c0,0,0,0,0,0c0.1-0.3,0.2-0.6,0.1-0.9
	c-0.5-1.1-1.5-3.1-2.3-3.9c0,0,9.2,0.5,7-3.1c0,0,3.5-0.2,4.9-2.3c0.3-0.5,0.8-1,1.2-1.4C48.3,18.1,48.9,15.4,44.8,15.4z"/>
</svg>
