<?xml version="1.0" encoding="utf-8"?>
<!-- Generator: Adobe Illustrator 19.1.0, SVG Export Plug-In . SVG Version: 6.00 Build 0)  -->
<svg version="1.1" id="Layer_1" xmlns="http://www.w3.org/2000/svg" xmlns:xlink="http://www.w3.org/1999/xlink" x="0px" y="0px"
	 viewBox="0 0 48 48" style="enable-background:new 0 0 48 48;" xml:space="preserve">
<style type="text/css">
	.st0{fill:#808080;}
</style>
<path class="st0" d="M47.5,33.2c0,0,0-0.2-0.1-0.3c0,0,0,0,0-0.1c0.1-0.1,0.3-0.3,0.3-0.6c0,0,0-0.2,0.2-0.2c0,0,0,0,0-0.1
	c-0.3-0.2-1.3-0.9-3.4-1c-0.1,0-0.2-0.1-0.3-0.2c-0.6-1-4-6.1-6.6-7.6c0,0-4.7-3-12-5.4c0,0-2.5-0.8-1.2-2.7c0,0,2.4-3.1,0.5-2.5
	c0,0-3.4,1.3-4.8,3.5c0,0-0.6,0.6-1.4,1.3c-0.8,0.7-1.8,1.2-2.8,1.5C13,19.7,6,22.1,3.2,26.6c0,0,0.1,0.2-0.6,1c0,0-2.2,2.7-1.5,4.4
	c0,0.1,0,0.2,0,0.3c-0.4,0.5-1.4,1.9-1,2.7c0,0,0.3,1.2,2.1-0.5c1-0.9,5.6-3.2,8.1-3.5c0.4,0,0.8,0.1,1.1,0.3c1,0.6,3.4,2,5.3,1.2
	c0,0,0.5-0.3-1.4-1.4c0,0,0-0.1,0-0.1c0.7,0,2.5-0.1,1-1c-0.1,0,0-0.1,0-0.2l11.5-1.7c0,0,2.5-0.5,4.7,0.6c0.6,0.3,1.1,0.5,1.7,0.6
	c1,0.3,2.7,0.8,4.5,1.8c0,0,1.9,1.3,4.8,1.4c0.3,0,0.6,0.1,0.8,0.3l2.8,2.5c0.1,0.1,0.2,0.1,0.3,0.1h0.5c0.1,0,0.1-0.1,0.1-0.1
	C47.8,35,47.3,34.2,47.5,33.2z M4.5,30c0,0,0.3-1,0.9-0.7C5.4,29.3,5.6,30,4.5,30z"/>
</svg>
