<?xml version="1.0" encoding="utf-8"?>
<!-- Generator: Adobe Illustrator 19.1.0, SVG Export Plug-In . SVG Version: 6.00 Build 0)  -->
<svg version="1.1" id="Layer_1" xmlns="http://www.w3.org/2000/svg" xmlns:xlink="http://www.w3.org/1999/xlink" x="0px" y="0px"
	 viewBox="0 0 48 48" style="enable-background:new 0 0 48 48;" xml:space="preserve">
<style type="text/css">
	.st0{fill:#808080;}
</style>
<path class="st0" d="M48,24.9c0,0,0.1-1.2-1.2-2.4c0,0-1.3-1.7-1.7-2.1C45,20.4,45,20.3,45,20.2c0-0.1,0.1-0.4,0.2-0.6
	c0-0.1,0-0.2-0.1-0.2c-0.1,0-0.2,0-0.2,0.1c0,0-0.3-0.2,0.3-0.8c0,0,0.3-0.6-0.8-0.5c-0.1,0-0.1,0-0.2-0.1c-0.1-0.3-0.3-0.8-1.2-1.2
	c-0.1,0-0.1-0.1-0.1-0.2c0.1-0.3,0.4-1.1-0.1-0.8c0,0,0.8-2.8-0.7,0.3c0-0.1,1.1-3.9-0.6,0.5c0,0,0.6-4.2-0.5,0.1
	c0,0,0.2-3.2-0.6,0.1c0,0-0.2-2.1-0.5,0.1c0,0,0,0.1-0.1,0.1l-0.1,0c-0.1,0-0.1,0-0.1-0.1c0-0.3-0.2-1-0.4,0.3c0,0-0.3-0.7-0.5,0.1
	c0,0.1-0.1,0.1-0.1,0.1c0,0,0,0-0.1,0c-0.1,0-0.2-0.1-0.2-0.1c0-0.3-0.2-0.6-0.4,0.2c0,0.1-0.1,0.2-0.2,0.2c0,0,0-0.6-0.2-0.6
	c-0.1,0-0.2,0.1-0.3,0.5c0,0.1-0.1,0.1-0.1,0.1l0,0c-0.1,0-0.2,0-0.2-0.1c0-0.3-0.2-1.1-0.5,0c0,0.1-0.1,0.1-0.3,0.1
	c-0.1,0-0.1-0.1-0.1-0.1c-0.1-0.3-0.2-1-0.4-0.3c0,0.1-0.1,0.2-0.2,0.1c-0.1,0-0.1-0.1-0.1-0.1c0-0.3,0-1.6-0.5-0.3
	c0,0.1-0.2,0.1-0.3,0.1c-0.1,0-0.1-0.1-0.1-0.1c0.1-0.4,0.2-1.9-0.6-0.2c-0.1,0.1-0.4,0-0.4-0.1c0.1-0.3,0.2-1.4-0.6-0.2
	c0,0.1-0.1,0.1-0.2,0.1c-0.1,0-0.2,0-0.2-0.1c0.1-0.3,0.4-1.4-0.5,0c0,0-0.1,0.1-0.1,0.1c-0.1,0-0.4,0-0.4-0.1
	c0.1-0.3,0.7-1.7-0.4-0.1c0,0-0.1,0.1-0.1,0c-0.1,0-0.2-0.1-0.1-0.1c0.1-0.4,0.4-1.8-0.4-0.2c0,0-0.1,0.1-0.1,0
	c-0.1,0-0.1-0.1-0.1-0.2c0.1-0.4,0.5-1.8-0.4-0.2c0,0-0.1,0.1-0.1,0c-0.1,0-0.1,0-0.1-0.1c0.1-0.4,0.5-2-0.4-0.2
	c0,0-0.1,0.1-0.1,0.1c-0.1,0-0.1-0.1-0.1-0.1c0.1-0.4,0.4-2.1-0.4-0.1c0,0.1-0.1,0.1-0.1,0.1c-0.1,0-0.2,0-0.2-0.1
	c0.1-0.4,0.3-2.2-0.5-0.1c0,0,0,0.1-0.1,0c-0.1,0-0.1,0-0.1-0.1c0.1-0.4,0.3-2.2-0.5,0c0,0-0.1,0.1-0.1,0.1h0c0,0-0.1,0-0.1-0.1
	c0.1-0.4,0.3-2.1-0.5-0.2c-0.1,0.1-0.2,0.2-0.3,0.2c0.1-1.4-0.1-1.8-0.6-0.1c0,0,0.2-2.7-0.6-0.2c0,0.1-0.1,0.2-0.2,0.1
	c0,0,0.1-0.5,0.1-0.9c0-0.5-0.1-0.8-0.5,0.6c0,0.1-0.2,0.2-0.3,0.2c0,0,0.1-0.5,0.1-0.9c0-0.5-0.1-0.8-0.6,0.9c0,0,0-2.8-0.7-0.1
	c0,0-0.1-2.4-0.7,0.1l0,0c-0.1,0-0.2-0.1-0.2-0.2c0-0.3,0-0.9-0.1-1c0,0-0.1,0.6-0.2,0.9c0,0.1-0.2,0.3-0.3,0.3
	c-0.2,0.1,0-1.1-0.2-1.1c0,0.2-0.2,1.1-0.4,1.2L20.2,15c0,0,0.1-0.9-0.2-0.9c0,0.2-0.2,0.9-0.4,1c-0.2,0.1,0-1-0.4-0.9
	c0,0.6-0.5,1.2-0.5,1c0-0.2-0.1-0.9-0.3-0.8c0,0.8-0.4,1.2-0.4,1c-0.1-0.2-0.2-0.8-0.3-0.8c0.1,0.7-0.3,1.2-0.4,0.9
	c-0.1-0.2-0.2-0.8-0.4-0.7c0,0,0.2,0.6-0.3,1c-0.2,0.1-0.1-0.7-0.4-0.6c0,0,0,0.6,0,0.8c0,0.1-0.2,0.2-0.3,0.1
	c-0.1-0.2-0.3-0.7-0.4-0.5v0.7c0,0.1-0.1,0.1-0.1,0.2c-0.1,0-0.2,0-0.2-0.1c-0.1-0.2-0.2-0.6-0.3,0.3c0,0.1-0.1,0.2-0.2,0.2
	c0,0-0.1,0-0.1,0c-0.1-0.2-0.2-0.5-0.2,0.2c0,0,0,0.1-0.1,0.1c-0.1,0.1-0.2,0.2-0.2,0.1c-0.1-0.1-0.2-0.4-0.2,0.2
	c0,0.1-0.1,0.1-0.2,0.2c0,0-0.1,0-0.1,0c-0.1-0.1-0.2-0.2-0.2,0.2c0,0.1-0.2,0.4-0.4,0.2c-0.1-0.1-0.1,0-0.1,0.3
	c-0.1,0-0.2,0-0.3,0.2c0,0.1-2.1,2-2.2,2.1c0,0,0.1-0.1-0.3-0.1c0,0-0.7-0.2-0.4-1c0,0-0.1-0.1-0.4,0.2c0.4-0.9,0.2-0.7-0.2-0.3
	c0.2-0.9,0.2-0.7-0.1-0.4l0.1-0.8c-0.3,0.6-0.2,0.3-0.2-0.2c0,0,0,0,0,0c-0.2,0.6-0.2,0-0.3-0.5c0,0-0.1,0.3-0.1,0.3
	c0,0-0.2-0.5-0.2-0.8c0,0-0.1,0-0.1,0.3c0,0-0.2-0.5-0.2-0.7c0,0,0,0-0.1,0.1c0,0-0.1,0-0.2,0c0,0-0.5-0.6-0.5-0.7
	c0-0.1,0.1-0.5-0.3-0.3c0,0-0.2-0.7-0.4-0.5c0,0-0.2-0.5-0.4-0.4c0,0-0.2-0.8-0.5-0.5c0,0-0.1-0.6-0.5-0.4c0,0-0.2-0.6-0.5-0.3
	c0,0-0.2-0.5-0.6-0.3c0,0,0-0.4-0.4-0.3c0,0,0.1-0.4-0.4-0.2c0,0-0.3-0.4-0.4-0.3c0,0-0.3-0.6-0.4-0.3c0,0-0.3-0.4-0.5-0.3
	c0,0-0.3-0.5-0.5-0.3c0,0,0-0.4-0.3-0.3c-1.5-1-1.8-0.9-1.6-0.8c0.7,0.5,8.3,6,7.8,10.6c0,0-0.4,3.5,2.8,3.2c0,0,1.9-0.5,2.6-0.6
	c0.1,0,0.3,0,0.2,0.1l-0.3,0.8c-0.1,0.1-0.1,0.1-0.2,0.1c-0.2,0-0.8,0-1.9,0.6c0,0-0.9,0.4-1.9,0.3c-0.2,0-0.4,0.1-0.5,0.2
	c-0.3,0.3-0.7,0.7-1.2,1.1c0,0-0.8,0.5-1.2,0.9c-0.2,0.2-0.3,0.3-0.5,0.5c-0.5,0.4-1.4,1.1-1.7,2.2c0,0-0.4,0.4-0.2,0.5
	c0,0-0.3,0.8-0.4,1c0,0,0.9-0.5,1-0.8c0,0,0.4-0.1,0.4-0.5c0,0,0.3-0.3,0.5-0.6c0.1-0.2,0.3-0.3,0.4-0.4c0.2-0.1,0.4-0.2,0.4,0
	c0,0-0.4,2.1-0.5,2.2c0,0-0.4,0.4,0.1,0.6c0,0,0.1,1.1-0.1,1.5c0,0,0.9-0.6,1-1.5c0,0,0.4-0.4,0.1-0.7c0,0,0.1-0.3,0.1-0.6
	c0-0.1,0-0.2,0.1-0.3c0.2-0.3,0.4-0.7,0.4-0.7c0,0,0.3,1.3,0.2,1.6c0,0,0,0.5,0.3,0.5c0,0,0.4,0.7,0.3,1.1c0,0,0.6-0.3,0.5-1.4
	c0,0,0.3-0.3,0-0.5c0,0-0.4-0.3-0.1-0.6c0,0,0.2-0.2-0.1-0.4c0,0-0.1-0.3,0.1-0.5c0,0,0-1.6,0.4-2c0,0,1-1,2.2-0.8
	c0,0,2.4,1,3.5,0.1l2.2-1.9c0.1-0.1,0.3-0.1,0.4,0c0.8,0.5,3.5,2,5.6,1.8c0.1,0,0.3,0.1,0.3,0.2l0,0.1c0,0.2,0,0.3-0.2,0.4
	c-0.2,0.2-0.6,0.5-0.9,1.4c0,0-0.9,1.8-1.8,2.4c0,0-0.4,0.5,0.2,1.8c0,0-0.5,0.8-0.6,1c0,0,0.2,0.3-0.3,0.4c0,0,0.4,0.3,0.8-0.2
	c0,0,0.4-0.5,0.4-0.6c0,0,0.2,1.6,1.1,2c0,0,0.4,0.9,1.4,0.8c0,0,0.7,0.3,1.3,0c0,0,1.5,0.4,1.5-0.3c0,0,0.3-0.1,0.5,0.1l-0.1-0.3
	c0,0,0.5,0.1,0.8,0.3c0,0,0-1.1-1.5-1c0,0-0.2-0.4-0.7,0c0,0-0.6,0-0.9-0.3c0,0-1.7-1.6-2-3c-0.1-0.3,0.1-0.6,0.3-0.7
	c0.9-0.6,3.3-2.3,3.4-2.9l0.2-2.2c0,0,0,0,0.1,0c0.2,0,0.3,0.1,0.3,0.3c0.1,0.6,0.5,1.6,2-0.2c0.1-0.1,0.3-0.2,0.5-0.2l1-0.2
	c0.2,0,0.4,0.2,0.3,0.4c-0.1,0.6-0.4,1.8-0.1,2.3c0,0,0.7,1.1,1.3,1.6c0,0,0.1,0.9,0.8,1c0,0,0.2,0.3,0.5,0.3c0,0,1.2,1.3,1.4,1.3
	c0,0,0.4,0.1,0.4,0.7c0,0,0.4-0.8-0.3-1l-0.9-0.8c0,0,1.4,0.7,1.5,0.9c0,0,1.1-0.2,1.1,1c0,0,0.1-0.2,0.2-0.3c0,0-0.1-1-1-1.2
	c0,0,1.4,0.1,1,1.2c0,0,0.6-0.7,0.1-1.4c0,0-0.6-0.5-1.2-0.4c0,0,0.2-0.2-0.8-0.2c0,0-1.8-0.7-2-1.2c0,0-0.5-1.5-1-1.6
	c0,0,0.8-1,0.9-1.9c0,0,0.3-3.5,1.9-3.5c0,0,2.6-0.5,3.4,1.5c0,0,1.4,2.3,1.3,3.9c0,0-0.1,4-0.3,4.4c0,0-0.1,0.8,0.8,1.1
	c0,0,2,1,2.6,0.6c0,0,1-0.7,0.6-1.4c0,0,0.6-1.1-0.1-0.6c0,0,0.5-1.7-0.3-0.4l0-3.5c0-0.2,0.1-0.4,0.3-0.6c0.2-0.2,0.4-0.3,0.1-0.4
	C42.1,28,42,27.8,42,27.6c0.1-0.5,0.4-1.3,0.6-1.7c0,0,0.5-0.9,0.4-1.4l0.5-0.2c0,0-0.8,0.8,0.1,0.1c0,0-0.3,0.7-0.4,0.8
	c0,0,0.2,0.4,0.8-0.6c0,0-0.6,1.5,0.3,0.2c0,0-0.5,1.5,0.3,0.2c0,0.1-0.4,1-0.3,1.1c0,0,0.6-0.5,0.7-0.9c0,0.2-0.1,0.5-0.1,0.6
	c0,0,0,0.3,0.8-0.4c0,0-0.5,0.9,0.1,0.9c0,0,0,0.2-0.1,0.3c0,0,0.2,0.1,0.5-0.4c0,0,0.3,0.1,0.5,0.1c0,0,0,0.7,0.5-0.3
	c0.1-0.1,0.2-0.2,0.3-0.3C47.8,25.7,48.1,25.5,48,24.9z M39.7,18.5c0,0,0.8-0.1,0.9,0.7C40.6,19.2,39.7,19.3,39.7,18.5z"/>
</svg>
