<?xml version="1.0" encoding="utf-8"?>
<!-- Generator: Adobe Illustrator 19.1.0, SVG Export Plug-In . SVG Version: 6.00 Build 0)  -->
<svg version="1.1" id="Layer_1" xmlns="http://www.w3.org/2000/svg" xmlns:xlink="http://www.w3.org/1999/xlink" x="0px" y="0px"
	 viewBox="0 0 48 48" style="enable-background:new 0 0 48 48;" xml:space="preserve">
<style type="text/css">
	.st0{fill:#808080;}
</style>
<path class="st0" d="M47.9,26.5c-0.2,0-0.5-0.1-0.9-0.2c0,0-0.3-0.4-0.9-0.4c-0.1,0-0.2-0.1-0.2-0.2c-0.1-0.4-0.6-1.2-1.7-1.2
	c-0.1,0-0.2,0-0.2-0.1c-0.3-0.5-1.5-2.4-0.2-2.7l0.3,0c0.1,0,0.2-0.1,0.2-0.2v0c0,0,0-0.1,0.1,0l0.1,0.1c0,0,0.1,0,0.1,0l0-0.1
	c0-0.1,0-0.1,0.1-0.1l0.2,0.1l-0.1-0.2c0,0,0-0.1,0.1-0.1l0.1,0l0-0.1c0,0,0-0.1,0.1-0.1c0.2-0.1,0.6-0.1,0.9,0.4c0,0,0,0,0,0
	l-0.1-0.4c0,0,0-0.1,0.1-0.1l0.2,0.1l-0.1-0.3c0,0,0-0.1,0-0.1l0.1-0.2c0,0,0.1-0.1,0.1,0l0.1,0.1c0,0-0.1-0.8,0.3-0.4
	c0.1,0.1,0.3,0,0.2-0.1c0,0,0,0,0,0c0,0,0-0.1,0-0.1c0-0.1,0.1-0.1,0.1-0.2c0,0,0.1-0.7-0.9-0.7c-0.1,0-0.1,0-0.1,0
	c-0.1-0.1-0.6-0.2-1.3,0.7c0,0-0.4,0.1-0.3,0.3c0,0-0.3,0.4-0.8,0.5c-0.1,0-0.2,0.1-0.2,0.1c-0.1,0.1-0.4,0.2-1,0.2
	c-0.1,0-0.1,0-0.2,0c-0.2,0.1-0.6,0.4-1.1,0.3c0,0,0,0-0.1,0c-0.1-0.1-0.4-0.2-0.6,0.1c-0.1,0.1-0.1,0.1-0.2,0.1
	c-0.3,0-1,0.2-1.3,0.6c0,0-0.4,0.4-0.8,0.1c0,0-0.1,0-0.1,0c-0.1,0-0.3,0.1-0.4,0.2c0,0-0.1,0-0.1,0c-0.2-0.2-0.7-0.7-0.9-0.4
	c0,0-0.3-0.6-0.7-0.3c0,0-0.1,0-0.1,0c-0.1-0.1-0.5-0.4-0.7-0.2c0,0-0.8-0.4-1-0.3c0,0-0.1,0-0.1,0c-0.1-0.1-0.5-0.2-0.5-0.1
	c0,0-0.6-0.3-0.8-0.1c0,0-0.6-0.5-0.8-0.2c0,0-0.7-0.4-0.8,0c0,0-0.5-0.5-0.8-0.2c0,0-0.6-0.3-0.7-0.1c0,0-0.8-0.4-0.9-0.1
	c0,0-0.7-0.4-0.8-0.1c0,0-0.4-0.2-0.5,0c0,0-0.5-0.3-0.7-0.1c0,0-0.8-0.4-0.9,0c0,0-0.6-0.3-0.7,0c0,0-0.5-0.3-0.6,0
	c0,0-0.5-0.2-0.7-0.1c0,0-0.1,0-0.1,0c-0.1-0.1-0.5-0.3-0.5,0.1c0,0-0.3-0.6-0.5-0.2c0,0-0.4-0.4-0.6-0.1c0,0-0.3-0.3-0.5,0
	c0,0-0.2-0.6-0.5-0.2c0,0-0.3-0.5-0.5-0.2c0,0-0.2-0.4-0.6-0.1c0,0,0.1-0.8-0.5-0.5c-0.1,0-0.2,0-0.2,0c-0.2-0.2-0.5-0.4-0.7,0.2
	c0,0-0.2-1-0.7-0.2c0,0-0.2-1.2-0.8-0.2c0,0-0.5-1-0.9,0c0,0-0.6-1-1.1,0c0,0-1-1-1-0.1c0,0-0.9-0.6-1.2-0.2c0,0-0.8-0.3-0.4,0.1
	c0,0-0.7,0.1-1.4-0.1c0,0-0.9-0.4-0.6,0.4c0,0.1,0,0.1-0.1,0.1c-0.5-0.1-1.8-0.4-1,0.4c0,0-1.8-0.5-1.3,0.1c0,0-1.7-0.1-0.9,0.7
	c0,0-2-0.3-1,0.5c0,0-1.8,0-0.9,0.6c0,0-1.6,0-0.7,0.6c0,0-1.8,0.1-0.8,0.5c0,0-1.2,0.2-0.6,0.5c0,0-1.1,0.5-0.3,0.6
	c0,0-1.3,0.3-0.5,0.5c0,0,0,0,0,0c-0.2,0-0.5,0.1-0.5,0.3c0,0.1,0,0.1-0.1,0.1C1.1,24.1,0.2,25,0,25.2c0,0,0,0,0,0
	c0.2,0,1.1-0.2,1.5-0.4c0,0,7.2-3.7,13.8-2.5c0.4,0.1,0.9,0.2,1.3,0.5c0.9,0.5,2.7,1.6,4.2,1.8c0.2,0,0.3,0.2,0.2,0.4
	c-0.4,0.6-1.3,1.6-0.9,2.1c0,0,0.9,1.2,1.6,1.4c0,0,0.1,0.3,0.3,0c0-0.1,0.1-0.1,0.2-0.1c0.3-0.1,0.8-0.1,1.2,0.3l0-0.5
	c0,0,0.6,0,0.8,0.2c0,0,0-0.3-0.1-0.4c0,0,0.3-0.3,0.6,0c0,0-0.1-0.6-0.7-0.7c0,0-0.6-0.6-1.2-0.6c0,0-0.1,0,0-0.1
	c0.1-0.1,0.3-0.4,0.4-0.6c0-0.1,0.1-0.1,0.2-0.1c1,0.3,7.6,2.4,10.1,2.1c0,0,0.1,0,0.1,0.1c-0.1,0.4-0.4,1.9,1.8,1.9l2.2,0.1
	c0,0,0.6,0.8,0.6,0c0,0,1.5,0.8,0.9,0l1.4,0.3c0,0,0.3-0.4-0.2-0.7c0,0-1.3-0.8-2-1c0,0,0-0.1,0-0.1c0.7,0,2.8-0.2,3.3-0.4
	c0.1,0,0.2,0,0.2,0c0.5,0.4,2.5,2,4.2,0.3c0.2-0.2,0.5-0.3,0.8-0.4c0.3,0,0.8-0.1,1-0.1c0.1,0,0.1-0.1,0.1-0.1
	c-0.1-0.2-0.2-0.5-0.1-0.7l0.5-0.4C48,26.6,48,26.5,47.9,26.5z M38.9,21.8c0,0,0.3-0.5,0.8-0.3C39.7,21.5,39.3,22.3,38.9,21.8z"/>
</svg>
