<?xml version="1.0" encoding="utf-8"?>
<!-- Generator: Adobe Illustrator 19.1.0, SVG Export Plug-In . SVG Version: 6.00 Build 0)  -->
<svg version="1.1" id="Layer_1" xmlns="http://www.w3.org/2000/svg" xmlns:xlink="http://www.w3.org/1999/xlink" x="0px" y="0px"
	 viewBox="0 0 48 48" style="enable-background:new 0 0 48 48;" xml:space="preserve">
<style type="text/css">
	.st0{fill:#808080;}
</style>
<path class="st0" d="M43.8,20.1c0-0.6,0.2-11.3-23.4-6c-1.1,0.2-2.2,0-3.1-0.6c-0.8-0.5-1.9-1.1-3.4-1.4c-0.2,0-0.4-0.2-0.5-0.3
	c-0.5-0.7-2.1-2.5-4-2.1c-0.2,0-0.3-0.1-0.4-0.2C8.8,8.7,8,6.6,6.6,9c0,0.1-0.1,0.1-0.2,0.1l-0.1,0c-0.1,0-0.2,0-0.2-0.1
	C5.8,8.8,4.9,7.9,5,7.5c0,0-0.7-0.2-0.5,1.6c0,0.1,0,0.2-0.1,0.3c-0.5,0.3-1.8,1.3-2.5,3.1c0,0.1-0.1,0.1-0.1,0.2
	C1.5,12.8,1,13.3,0.1,14c0,0-0.3,0.4,0,0.7c0,0,0,0.1,0,0.1c0,0.1,0,1.3,0.5,1.9c0,0,0,0,0,0.1c0,0.1,0.1,0.6,0.6,0.7
	c0,0,0.1,0,0.1,0.1C1.2,18,1,19.5,3.6,18.8c0.1,0,0.2,0,0.2,0C4.3,19.1,6,20,7.4,20c0.1,0,0.3,0.1,0.3,0.2
	c0.6,1.7,4.1,12.5,4.5,16.2c0,0.1,0,0.1,0,0.2c0,0.2-0.1,0.5-0.1,0.9c0,0.2-0.2,0.3-0.3,0.3c-0.9,0-2.7,0.1-1.5,1.9c0,0,0,0.1,0,0.1
	c-0.1,0.2-0.2,0.7,0.4,0.6c0,0,0,0,0,0c0.3,0,3.7,0.2,4.1,0c0,0,1-0.3,0.9-1.2c0,0,0-1.3,0.6-1.6c0.1,0,0.1-0.1,0.1-0.2
	c0-1.1,0.1-9,4-8.5c0,0,2.4,2.1,10.1-0.4c0.1,0,0.3,0,0.4,0.2c0.4,0.8,1.7,3.7,2.8,5c0.1,0.1,0.1,0.1,0.1,0.2
	c0.1,0.3,0.5,1.1,0.3,1.5c-0.3,0.5-1,2.4-1.6,2.5c0,0-2.1-1-2.2,1.3c0,0,0,0.4,1.4,0.4c0,0,0,0,0,0c0.2,0,2.7,0.2,3-0.5
	c0-0.1,0.1-0.2,0.2-0.3c0.4-0.6,1.8-2.3,2.5-3.7c0.3-0.7,0.4-1.4,0.1-2.1c-0.3-0.8-0.7-1.9-0.8-2.8c0-0.1,0.2-0.2,0.2-0.1
	c0.8,1,3.4,4.2,3.4,4.9c0,0-0.2,2.8-1.2,2.7c0,0-0.1,0-0.1,0c-0.4-0.3-1.9,1-1,1.7c0.1,0.1,0.2,0.2,0.3,0.2c0.8,0.1,3.6,0.3,3.8-0.6
	c0,0,2-6.4,0.8-7.1c0,0-2.1-2.9-1.2-6.7c0.1-0.3,0.1-0.6,0.1-0.9c0-0.8,0-2.3-0.2-2.9c0,0,0-0.4,0.2,0c0,0,1,6.7,1.4,7.7
	c0,0,0.4,0.5,1,0.9c0.8,0.5,1.7,0.4,2.4,0c0.9-0.6,1.9-1.3,1.3-1.9c0,0-0.1-0.6-1.8,0.9C46,28.8,43.7,31.1,43.8,20.1
	C43.8,20.1,43.8,20.1,43.8,20.1z"/>
</svg>
