<?xml version="1.0" encoding="utf-8"?>
<!-- Generator: Adobe Illustrator 19.1.0, SVG Export Plug-In . SVG Version: 6.00 Build 0)  -->
<svg version="1.1" id="Layer_1" xmlns="http://www.w3.org/2000/svg" xmlns:xlink="http://www.w3.org/1999/xlink" x="0px" y="0px"
	 viewBox="0 0 48 48" style="enable-background:new 0 0 48 48;" xml:space="preserve">
<style type="text/css">
	.st0{fill:#808080;}
</style>
<path class="st0" d="M47.4,38.2c0,0-6.7-0.7-12.1-2.2c-1.7-0.5-3.2-1.3-4.5-2.4c-1.1-0.9-2.5-2-3.9-2.6c-0.4-0.2-0.8-0.5-1.2-0.9
	c-0.8-0.9-2.3-2.5-3.3-3.4c-0.6-0.5-1.2-1-1.7-1.6c-1.3-1.5-3.4-3.8-3.6-3.8c0,0-4.1-2.2-5.7-6.2c-0.3-0.9-0.8-1.7-1.4-2.4
	c-1.5-1.9-4.4-4.6-8.2-2.3c-0.6,0.3-1,0.8-1.2,1.4l0,0.1c0,0-1.7,2.7,0.5,4.7c0,0-0.2-1,0-1.3c0,0,1.7,0.6,2.1,1.8
	c0,0.1,0.1,0.2,0.1,0.4c0.1,0.9,0.5,5.1,1.5,7.3c0.3,0.6,0.6,1.3,0.8,2C6.2,28,7,30.1,8.4,31c0.5,0.4,1,0.8,1.4,1.3
	c0.5,0.6,1,1.6,1.4,2.9c0,0.1,0.1,0.2,0.1,0.2c0.3,0.3,1.4,1.2,0.4,1.1c0,0-0.1,0-0.1,0c-0.2-0.1-1.2-0.5-2.1,0.3
	c-0.1,0.1-0.2,0.1-0.3,0.1c-0.2,0-0.4,0-0.7,0c-0.2,0-0.4,0-0.6,0c-0.4-0.1-0.9-0.3-1.1-0.1c0,0-1.1,0-0.7,1.1c0,0,0.2-0.8,0.4-0.6
	c0.1,0,0.1,0.1,0.1,0.2c0,0.1,0,0.2,0.2,0.2c0.3,0,0.6-0.1,1,0.2c0.1,0.1,0.2,0.1,0.4,0.1h1.5c0.1,0,0.2,0,0.3,0
	c0.4,0.1,1.7,0.3,2.2,0c0.1,0,0.1,0,0.2-0.1c0.3,0,1.1-0.1,1.3,0.2c0,0,0.2-0.2-0.1-0.6c0,0,0.4-0.1,0.8,0.3c0,0,0.2-0.1,0-0.4
	c0,0,0,0,0,0c0.2,0,1.3,0.2,1.5,0l0,0.2c0,0,0.1,0,0.3-0.1c0,0,0.1,0,0.1,0c0.2,0,0.6,0.1,0.8-0.1c0,0,0.1,0,0.1,0
	c0.1,0,0.3,0,0.4-0.1c0.1,0,0.1-0.1,0.2-0.1c0.3,0,0.8,0,0.7-0.4c0,0,0.6,0,0.6,0.6c0,0,0.5-0.8-0.9-1c0,0-0.5,0-0.8,0.1
	c0,0-0.1,0-0.1,0c-0.1,0-0.3,0.2-0.8,0.2c0,0,4.4-1.8,8.2-0.7c3.8,1.1,8.2,1.8,8.7,1.9c0.5,0.1,2.1,0.3,3,0.3c0.2,0,0.4,0,0.6,0
	c1.9,0.1,10.8,0.3,11,0.4C47.9,38.5,48.3,38.3,47.4,38.2z M4.3,12.1c-0.2,0-0.4-0.2-0.4-0.4c0-0.2,0.2-0.4,0.4-0.4s0.4,0.2,0.4,0.4
	C4.7,11.9,4.5,12.1,4.3,12.1z"/>
</svg>
