<?xml version="1.0" encoding="utf-8"?>
<!-- Generator: Adobe Illustrator 19.1.0, SVG Export Plug-In . SVG Version: 6.00 Build 0)  -->
<svg version="1.1" id="Layer_1" xmlns="http://www.w3.org/2000/svg" xmlns:xlink="http://www.w3.org/1999/xlink" x="0px" y="0px"
	 viewBox="0 0 48 48" style="enable-background:new 0 0 48 48;" xml:space="preserve">
<style type="text/css">
	.st0{fill:#808080;}
</style>
<path class="st0" d="M41,9.7c-0.4,0-0.8-0.2-1-0.5c-0.9-1-3.3-3.1-5.4,0.1c-0.4,0.5-0.9,1-1.4,1.2c-2,0.9-6.6,2.7-10.1,3.4
	c-1.6,0.3-3.2,0.1-4.6-0.6c-0.9-0.4-2.2-0.7-3,0.2c-0.5,0.5-1,1.1-1.5,1.5c-0.5,0.4-1.1,0.8-1.6,1.2c-0.8,0.6-1.7,1-2.6,1.1
	C6.7,17.7,0.4,19,0,21.7c0,0-0.3,2.5,0.8,2.8c0,0-2.3,2,1.4,6.4c0.4,0.4,0.7,0.8,1,1.3c0.9,1.2,3.3,4,6.5,4.3c0.1,0,0.3,0,0.4,0
	c1.1,0.2,6.1,0.9,7.9,0.8c0.6,0,1.2,0,1.9,0c0,0,0,0,0,0c0.4,0,0.7,0.2,1,0.4c0.2,0.2,0.5,0.3,0.6-0.2c0,0,2.9,1,3.1,1.3
	c0,0,0.4,0.9,0.8,0.6c0.1-0.1,0.1-0.2,0.2-0.3c0-0.1,0-0.3-0.2-0.4c0,0-1.1-0.9-0.5-1c0,0,4.7-1.1,5.7,2c0,0,0,0.7,0.5,0.7
	c0,0,0.7,0,0.5-0.8c-0.3-0.8-0.6-1.7-3.1-3c0,0,0-0.7,1.6-0.6c1.6,0.2,0.6,1.3,4.4,0.4c0.1,0,0.2-0.1,0.3-0.1
	c0.9-0.3,5.4-1.8,5.1-0.9c0,0-0.1,0.3,0.2,0.4c0.3,0.1,0.6,0,0.7-0.3c0.1-0.3,0.1-0.7-0.5-1.1c0,0-0.1-0.3-1.4-0.2
	c-0.1,0-0.1-0.1-0.1-0.2c0.2-0.2,0.3-0.6,0-0.9c0,0-0.6-0.2-1.3,0.1c-0.2,0.1-0.3,0.1-0.5,0.2c-0.8,0.3-2.2,0.6-2.5,0
	c0,0-2.2-2.7-2.7-3.2c0,0-0.1-0.3,0.2-0.2c0,0,4.8,1.5,5,1.7c0,0,0.8,0.2,0.6-0.5l-3.4-1.7c0,0,0-0.1,0-0.1l3.5,0.2
	c0.1,0,0.2,0,0.3-0.1c0.1-0.1,0.2-0.2,0.1-0.5c-0.1-0.1-0.2-0.2-0.3-0.2c-0.7,0-3.3-0.2-4.3-0.6c-0.1,0-0.2-0.2-0.1-0.3
	c1.2-1.4,8.7-10.1,12.5-12c0.3-0.2,0.6-0.4,0.8-0.6C47.9,14.4,50.7,10.6,41,9.7z M39.1,13.6c-0.7,0-1.2-0.4-1.2-1c0-0.5,0.5-1,1.2-1
	s1.2,0.4,1.2,1C40.3,13.2,39.7,13.6,39.1,13.6z"/>
</svg>
