<?xml version="1.0" encoding="utf-8"?>
<!-- Generator: Adobe Illustrator 19.1.0, SVG Export Plug-In . SVG Version: 6.00 Build 0)  -->
<svg version="1.1" id="Layer_1" xmlns="http://www.w3.org/2000/svg" xmlns:xlink="http://www.w3.org/1999/xlink" x="0px" y="0px"
	 viewBox="0 0 48 48" style="enable-background:new 0 0 48 48;" xml:space="preserve">
<style type="text/css">
	.st0{fill:#808080;}
</style>
<path class="st0" d="M46.5,27.1c0,0-0.1-0.1-0.2-0.1c-0.4-0.3-2.5-1.8-3.5-2.3c-0.3-0.1-0.6-0.4-0.8-0.6c-1.4-1.7-6.7-7.3-16-5.2
	c-0.9,0.2-1.8-0.4-2-1.2c-0.2-0.9-0.3-2.2-0.2-4.3c0,0,1.1-6.8-2.7-1.7c-0.1,0.2-0.4,0.3-0.6,0.4c-0.6,0.1-1.8,0.2-2.8,0
	c-0.3-0.1-0.6-0.3-0.8-0.5c-0.8-1.4-3.3-5.2-3.1,3.4c0,0,0,0.9-0.2,1.9c-0.2,0.9-0.2,1.7-0.1,2.6c0.1,1.4,0.4,3.5,0.9,4.3
	c0.3,0.4,0.2,1-0.2,1.3c0,0,0,0,0,0c0,0-1.2,0.7-1.6,2.5c-0.2,0.9-0.7,1.8-1.4,2.5c-2,1.9-5.9,5.2-9.1,5.9c-0.4,0.1-0.8,0.3-1.1,0.6
	c-0.6,0.6-1.6,1.5-0.9,1.4c0,0,0.1,0,0,0.1C0.2,38,0,38.4,0,38.5c0,0,0,0.2,0.2,0.1c0,0,0,0,0,0l0.1-0.3c0-0.1,0.1-0.1,0.2,0
	c0,0-0.1,0.2-0.1,0.3c0,0,0,0.1,0.1,0.1c0,0,0.2,0,0.2-0.1c0,0,0,0,0.1,0c1.1,0.2,1.4-0.1,1.4-0.1c0,0.2-0.1,0.6,0.4,0
	c0,0,1-0.1,1.1-0.4c0,0,0,0,0.1-0.1c0.2-0.1,0.9-0.3,1-0.6c0,0,0.1,0.3,0.1,0c0,0,0,0,0,0c0,0,0,0,0,0c0.1,0,0.2,0.2,0.1,0
	c0,0,0-0.4,0.1-0.2c0,0,0.1,0.3,0.1,0.3c0,0,0-0.3,0.1-0.3c0,0,0,0.2,0.2,0.2c0,0-0.1-0.3,0-0.3c0,0,0.1,0.1,0.1,0.1
	c0,0,0-0.3,0.1-0.1c0,0,0.2,0.7,0.2,0.4c0,0,0-0.2,0-0.4c-0.1-0.5,0.2-1,0.5-0.9c0,0-0.1,0.1-0.1,0.1c0,0,0.3,0,0.3-0.1
	c0,0,4.3-2.6,7.1-3.9c0,0,0.3-0.1,0.2-0.3c0,0-0.7-0.7,2.3-2c0.1,0,0.1,0,0.1,0.1c0,0.1,0,0.1,0.1,0c0.2-0.2,2.4-1.3,3.5,0.8
	c0,0,0,0.1,0,0.1c-0.3,0.2-2.1,0.9-2.6,0.9c-0.1,0-0.1,0-0.2,0.1c-0.1,0-0.2,0.1-0.2,0.3c0,0.1-0.1,0.2-0.2,0.2
	c-0.2,0.1-0.5,0.4-0.6,0.7c0,0-1.3,1.9-2.6,2.4c-0.1,0-0.1,0.1-0.2,0.1c-0.4,0.3-1.6,1.3-1.5,1.5c0,0,0,0.1,0,0.1c0,0.1,0,0.1,0,0.2
	c0,0,0,0.1,0,0.1c-0.1,0.1-0.4,0.4-0.3,0.6c0,0,0.1,0.1,0.4-0.2c0,0,0.1,0,0.1,0c0,0,0.1,0,0.1,0c0,0,0.1,0,0,0.1
	c-0.1,0.2-0.2,0.5,0.2,0.1c0,0,0.9,0.3,1.2,0c0,0,0.1,0,0.1,0c0.1,0,0.1,0,0.3-0.1c0,0,0.1,0,0.1,0c0.1,0,0.5,0,0.7-0.3
	c0,0,0.2-0.3,0.6-0.2c0,0,0.1,0,0,0c0,0,0-0.1,0.1-0.1c0,0,0.1,0,0.1,0c0.2-0.5,2.3-4.9,8.9-4.6c0,0,0.6-0.1,0.6-0.9c0,0,0,0,0,0
	c0.8-0.1,6.9-1.8,8.1-3.5c0.1-0.1,0.2-0.1,0.3-0.1l0.4,0.1c0.1,0,0.1,0.2,0,0.2c-0.6,0.2-1.6,0.7-1.5,1.5c0,0,0,1.6,1.7,0.8
	c0,0,0.4-0.3,0.5-0.5c0-0.2,2.8-1.7,2.8-1.8s0.4-1.3,1.3-0.7c0,0,2.2,1,1.7,2c0,0.1-0.1,0.1-0.1,0.2c-0.2,0.2-0.8,0.7-0.4,1.4
	c0,0,0.6,1.6,1.9,0.7c0,0,0.7-0.6,0.4-1.4c0,0,0.2-1.3,0.5-1.2c0,0,1.9,3.1,4.6,1.4C47.3,31,49.3,29.6,46.5,27.1z M17,16.6
	c-0.2,0-0.4-0.2-0.4-0.4c0-0.2,0.2-0.4,0.4-0.4s0.4,0.2,0.4,0.4C17.5,16.5,17.3,16.6,17,16.6z M20.9,16.8c-0.2,0-0.4-0.1-0.4-0.3
	c0-0.2,0.2-0.3,0.4-0.3c0.2,0,0.4,0.1,0.4,0.3C21.3,16.7,21.2,16.8,20.9,16.8z"/>
</svg>
