<?xml version="1.0" encoding="utf-8"?>
<!-- Generator: Adobe Illustrator 19.1.0, SVG Export Plug-In . SVG Version: 6.00 Build 0)  -->
<svg version="1.1" id="Layer_1" xmlns="http://www.w3.org/2000/svg" xmlns:xlink="http://www.w3.org/1999/xlink" x="0px" y="0px"
	 viewBox="0 0 48 48" style="enable-background:new 0 0 48 48;" xml:space="preserve">
<style type="text/css">
	.st0{fill:#808080;}
</style>
<path class="st0" d="M35.5,18.7c0,0-0.1-0.5,0.3-0.5c0,0,0.2-0.2-0.2-0.7c0,0-3.1-2.2,0-3.4c0,0,1.9,0,1-1.2c0,0,0.1-0.2,0.3-0.2
	c0,0-0.2-0.1-0.7,0.1c0,0-0.5,0.2-1,0.7c0,0-2.2,0.8-2.5-0.9c0,0,0.7-1-0.3-1.4c0,0-0.3-1.2-0.3,0.1c0,0-0.8,0.6-0.1,1.3
	c0,0,0.1,1.6-0.9,1c0,0-0.2-0.7-1.2-0.5l-0.5-0.1l0.3,0.3c0,0-0.2,1,1.2,0.9c0,0,0.5,0.7-0.4,0.5c0,0-0.3,0-0.5,0.2
	c0,0-0.5,0.2-1.1,0.4c0,0-0.9,0.3-0.6,1.1c0,0,0,0.1-0.2,0.1c0,0-6.9-1.5-11.8-2.4c-0.3,0-0.4-0.4-0.3-0.6c0.1-0.1,0.1-0.2,0.2-0.3
	c0,0,1.8-1.1,0.1-1.9c0,0-0.4-0.5,0.1-0.5c0,0,0.8-0.1,0.8-0.8c0,0,0-0.1,0.2-0.1c0,0-0.3-0.1-0.4,0c0,0-0.5-0.4-1.1,0.3
	c0,0-0.8,0.2-0.3-1.1c0,0,0.5-0.2,0-1c0,0-0.1-0.2,0-0.3c0,0-0.2,0.2-0.1,0.3c0,0-0.7,0.2-0.6,1.2c0,0-0.4,0.7-1.1,0.2
	c0,0-0.2-0.4-0.9-0.4L12.6,9c0,0,0,0.2,0.1,0.3c0,0-0.1,0.9,0.6,0.9c0,0,0.7,0.6-0.3,0.8c0,0-0.6-0.1-0.9,0.3c0,0-0.4,0-0.4,0.2H12
	c0,0,0.2,0.9,1.3,0c0,0,0.5,0.2-0.2,0.4c0,0-0.6,0.1-0.6,0.7c0,0-1.7-1-2.6-2c0,0-0.6-1.2-3.5-1.4C6.2,9,6.1,8.9,6,8.8
	C5.8,8.4,5.3,7.9,4.3,8.2l-0.5,0c0,0,0.3,0.5-0.5,0.5c0,0-2.6,0-2.9,0.5c0,0-1.2,1,0.6,3.1c0,0,1.5,1.8,2.1,2.3
	c0.1,0.1,0.1,0.1,0.2,0.2c0.3,0.3,1.3,1.3,2.9,1.7c0.5,0.1,0.9,0.3,1.3,0.6c1.2,0.7,3,2.2,1.2,4.2c0,0-1.4-1.1-0.8,0.7
	c0,0-0.2,0.4-0.6-0.1c0,0-0.2-0.6-0.9-0.3c0,0-0.4-0.3-0.5-0.1l0.3,0.2c0,0-0.2,0.9,0.6,0.8c0,0,0.5,0.6-0.7,0.6c0,0-0.6-0.3-1,0.1
	c0,0-0.6,0-0.6,0.3c0,0,0.4-0.1,0.4,0.1c0,0-0.2,0.8,1.3,0.3c0,0,0.7-0.2,0.6,0.6c0,0,0.1,0.4-0.7,0.8c0,0-0.3,0.5-0.1,0.8v0.2
	l0.2-0.1c0,0,0.9,0.2,1-0.8c0,0,0.5-1.1,0.9-0.8c0,0,0.3,0.4,0.1,0.7c0,0-0.1,0.8,0.6,0.8l0.2,0.1l0-0.2c0,0,0.7-0.5,0-1.2
	c0,0-0.5-1,0.2-1.4c0,0,2.3-1.6,2.7-2.9c0-0.1,0.2-0.2,0.3-0.1c1.4,1,8.4,5.3,16.7,4.7c0,0,2.4-0.6,2.5,1.7c0,0,0,2.4,2.8,2.1
	c0.2,0,0.4,0.1,0.5,0.2c0.1,0.2,0.1,0.5-1,0.7c0,0-0.6,0-0.8,0.6c0,0-0.4,0.2-0.3,0.5c0,0,0.3-0.2,0.4-0.1c0,0,0.7,0.9,1.8-0.3
	c0,0,2.4-1.6,3.1,0.6c0,0-0.3,1,0.9,1.2l0.2,0.2l0.1-0.3c0,0,0.9-0.6-0.2-1.4c0,0-2-3,1.3-2.1c0,0,1.2,0.5,1.5-0.3
	c0,0,0.2-0.1,0.4,0c0,0,0-0.3-0.4-0.5c0,0,0-0.6-1.3-0.2c0,0-1.2,0.3-2.5-1c0,0-1.7-0.6-1.4-1.7c0.1-0.3,0.2-0.6,0.2-0.9
	c0-0.5,0.2-1.2,0.9-1c0,0,10,2.4,6.8,9.6c0,0-1.5,5.9-13,6.3c0,0-7.5,0.7-10.5-7.7c0,0,0.3,8.2,10.4,8.9c0,0,13.4,0.9,16.5-8.2
	C47.7,31.8,51.2,20.4,35.5,18.7z M2.1,13.3c0,0-0.7-0.5-0.5-1.3c0,0,0.5-0.7,1.6,1.2C3.3,13.2,3.3,14,2.1,13.3z M13.4,12.8
	c0,0-0.6,0.7-0.9-0.2c0,0,0.6,0.2,1.1-0.4C13.7,12.2,14.1,12.2,13.4,12.8z"/>
</svg>
