<?xml version="1.0" encoding="utf-8"?>
<!-- Generator: Adobe Illustrator 19.1.0, SVG Export Plug-In . SVG Version: 6.00 Build 0)  -->
<svg version="1.1" id="Layer_1" xmlns="http://www.w3.org/2000/svg" xmlns:xlink="http://www.w3.org/1999/xlink" x="0px" y="0px"
	 viewBox="0 0 48 48" style="enable-background:new 0 0 48 48;" xml:space="preserve">
<style type="text/css">
	.st0{fill:#808080;}
</style>
<path class="st0" d="M39.7,8.5c0,0-5.5,0.4-7.2-0.7c0,0-1.5-1-5-0.3c0,0-12.7-1.4-17.3,0.5c-0.2,0.1-0.4,0.1-0.6,0.2
	c-1.2,0.3-5.9,1.6-8.3,6.3c-0.7,1.5-1.1,3.1-1.2,4.8l-0.2,5.5c0,0,0.5,5.3,0,6c0,0-0.4,1.7,0.7,1.1c0,0,0.6-0.3,0.4-1.5
	c0,0-0.1-2.4,0-2.7c0,0,0.9,2.1,0.6,4.2c0,0-0.9,5.6-1.4,6.8c0,0-0.6,1.3,0.7,1.6c0,0,1.1,0.1,1.3,0c0,0,0.1-0.1,0.4,0.1
	c0,0,1.8,0.3,2-0.1c0,0,0.1-0.1,0.3,0.1c0,0,1.1,0.2,0.8-1c0,0,0-0.5-0.7-0.9c0,0-0.7-0.3-0.3-3c0,0,0.1-4.4,2-4.8
	c0.2,0,0.4-0.1,0.5-0.2c0.1-0.1,0.3-0.2,0.4-0.3C7.7,30.1,7.8,30,8,29.8C8.3,29.5,8.9,29,9,29.1c0.2,0.1,0,0,0,0s1.6,0.7,1.7,3.3
	c0,0,0.1,4.9,0,5.5c0,0-0.5,2.1,1.6,1.8c0.1,0,0.1,0,0.2,0c0.4,0,1.5,0,2.3-0.3c0,0,2.9-0.5,1.4-1.6c0,0,0-0.5-0.8-0.8
	c0,0-0.8-0.5-0.8-3.4c0-0.1,0-0.2,0-0.3c-0.1-0.7-0.5-4.7,1.2-4.1c0,0,1.8,1,6.6-0.9c0.1-0.1,0.3,0,0.3,0.2c0.2,1.2,0.7,5.8-1.4,6.9
	c0,0-2.9,1.1-2.2,2.2c0,0,3.3,3.6,3.9,2.3c0,0,0.4-1,0.1-1.7c0,0,0.2-1.1,1.2-1.4c0,0,1.7-0.8,2.2-2.9c0,0,0.9-5,2-6.7
	c0-0.1,0.1-0.1,0.2,0l0.3,0.3c0,0-0.2,1.1,0.8,1.3c0.1,0,0.1,0.1,0.2,0.2c0.2,1.1,2,8.8,1.4,9.3c0,0-1.4,2.1-0.2,2.4
	c0,0,0.5,0.3,2.6,0.3c0,0,0.1,0,0.1,0c0.2,0,1-0.1,1.6-0.1c0,0,1.3,0.1,0.7-0.5c0,0,0-1.4-1.2-1.6c0,0-0.9-0.3-0.4-1.9
	c0-0.1,0.1-0.2,0.1-0.3c0.1-1.3,0.9-9.1,0.4-11.5c-0.1-0.5,0-0.9,0.3-1.3c0.1-0.2,0.3-0.3,0.5-0.3c0,0,1.6,0.6,2,0.1
	c0.3-0.4,1.5,0.2,1.9,0.4c0.1,0,0.2,0.1,0.3,0.1l0.8,0c0.1,0,0.2,0,0.3,0.1l1,0.6c0.1,0.1,0.2,0.2,0.3,0.4c0,0.2,0,0.5,0.2,0.7
	c0,0,0.8,1.5,0.9,0.7l0.1-0.8c0,0,0.3,2.8,0.3,4.1c0,0.1,0,0.1,0,0.2c0.1,0.6,0.8,3.9,1.5,5.3c0,0,1.1,2.1,0.2,3c0,0,0,0,0,0
	c-0.1,0.1-0.5,0.5-0.8,0.2c0,0-0.2-0.4,0.2-0.3c0,0,0.3,0.1,0.4-0.3c0,0,0.2-0.4-0.6-0.5c-0.1,0-0.1-0.1-0.1-0.1
	c0.1-0.2,0.2-0.5,0-0.5c0,0-0.4-0.1-0.8,0.7c0,0-0.7,1.4,0.1,2.2c0,0,0.8,1,2.4,0.2c0,0,2.2-1.2,1.5-3.9c0,0-0.9-3.7-0.6-4.9
	c0.2-1.2,0.3-5.2,0.3-6c0,0,0-0.1,0-0.1c0-0.3,0.1-2.2-0.8-4.4c-0.1-0.2-0.2-0.4-0.2-0.7c-0.2-1-0.7-3.9-1.6-5.3
	c-0.2-0.3-0.3-0.6-0.3-0.9c0-0.7-0.2-2.1-0.9-2.7c-0.1-0.1-0.1-0.1-0.2-0.2C43.4,10.1,42.2,8.2,39.7,8.5z"/>
</svg>
