<?xml version="1.0" encoding="utf-8"?>
<!-- Generator: Adobe Illustrator 19.1.0, SVG Export Plug-In . SVG Version: 6.00 Build 0)  -->
<svg version="1.1" id="Layer_1" xmlns="http://www.w3.org/2000/svg" xmlns:xlink="http://www.w3.org/1999/xlink" x="0px" y="0px"
	 viewBox="0 0 48 48" style="enable-background:new 0 0 48 48;" xml:space="preserve">
<style type="text/css">
	.st0{fill:#808080;}
</style>
<path class="st0" d="M44.6,31.3c0,0-6.9-4.2-8.8-6.3c-1.8-2.1-9.5-6.6-20.4-6.4c-0.9,0-1.4-1-0.9-1.7c0,0,0,0,0,0c0,0,3.7-6,4.1-8.2
	c0,0,2.3-6.8-3-8.4c0,0-4-1.2-6.6,2.1c0,0-1.4,2.7-6.1,2.8c0,0-0.8,1.6,1.7,1.6c0,0,7,0.1,6.2,3.7c0,0-1,4.5-4.2,9
	c-1.6,2.3-2.4,5.1-2,7.9c0.5,3.9,3.3,8.5,12.6,10.7c0.6,0.1,1.1,0.4,1.5,0.9c0.7,0.9,1.6,2.4,0.6,4.1c0,0-1.9-0.6-2.7-0.6
	c-0.1,0-0.2,0-0.3,0c-0.4,0-1.4-0.1-1.2,0.4c0,0,0.7-0.2,0.9,0c0,0,0.5,0.9-1.2,0.7c0,0-0.7-0.1-0.6,0.3c0,0,1.4-0.2,1.3,0.2
	c0,0,0.6,0.6-2.1,0.2c0,0-1.5-0.5-1.2,0.4c0,0,0.7-0.2,0.7,0c0,0,0.6,1-1.5,1.1c0,0-0.8-0.2-0.7,0.7c0,0,0.9-0.2,1.4,0
	c0,0,2.3-0.1,1,1.2c0,0-0.1,0.1-0.1,0.2c-0.1,0.2-0.2,0.8,0.6,0.4c0,0,1.7-1.2,4.1-1.4c0.5,0,1-0.2,1.5-0.5c0.8-0.5,2-1,2.2,0
	c0,0,0.6,0,0.3-1.2c0,0,0.1-0.9,0.9-0.4c0,0,0.2-0.8,0.7-0.4c0.1,0.1,0.4,0.1,0.4-0.1c0.1-0.2,0.2-0.5-0.3-0.8l0.1-4.2
	c0-0.5,0.4-1,1-1.1c2-0.3,6.5-1,7.7-1.8c0.3-0.2,0.6-0.2,0.9-0.1c0,0,5.7,1.5,6.9,0.5c0,0,4.4-1.1,1.1-1.9
	C41.4,34.6,46.7,32.6,44.6,31.3z M13.2,5.6c-0.7,0-1.3-0.6-1.3-1.3c0-0.7,0.6-1.3,1.3-1.3c0.7,0,1.3,0.6,1.3,1.3
	C14.4,5,13.8,5.6,13.2,5.6z"/>
</svg>
