<?xml version="1.0" encoding="utf-8"?>
<!-- Generator: Adobe Illustrator 19.1.0, SVG Export Plug-In . SVG Version: 6.00 Build 0)  -->
<svg version="1.1" id="Layer_1" xmlns="http://www.w3.org/2000/svg" xmlns:xlink="http://www.w3.org/1999/xlink" x="0px" y="0px"
	 viewBox="0 0 48 48" style="enable-background:new 0 0 48 48;" xml:space="preserve">
<style type="text/css">
	.st0{fill:#808080;}
</style>
<path class="st0" d="M47.7,30c0,0-1.8-3.5-3.1-5.2c0,0-1.3-2.1,0.3-3.2c0,0,2.6-2.5,2.6-3.9c0,0-6.4,2.1-8,3.4c0,0-2.5,0.4-5.4-0.4
	c0,0-7.1-1.9-7.8-2.5c0,0,1.2-0.5,1.6-0.3c0,0-1.3-4.4-1-7c0,0-3.2,1.1-6.3,6c0,0-3.8-0.5-8.3,0.8c0,0-10.6,3-12.3,6.2
	c0,0-0.3,0.5,0,1.2c0,0-0.1,0.4,0.6,1c0,0,3.8,1.9,4.6,2c0,0,7.8,3.5,13.2,2.9c0,0,1.4,7.2,3.2,5.7c0,0,3-3.5,1.9-6.3
	c0,0,3.6-0.7,3.9-0.9c0,0,2.3,4.3,3.5,4.4c0,0,1.5-4.7,6.9-7.2L37,25.2c0,0,2.2-0.3,2.4-0.1c0.2,0.1,6.2,5.2,7.7,5.4
	C47.2,30.5,48.6,31.3,47.7,30z M3.8,23.9c-0.4,0-0.8-0.4-0.8-0.8c0-0.4,0.4-0.8,0.8-0.8s0.8,0.4,0.8,0.8C4.6,23.6,4.2,23.9,3.8,23.9
	z"/>
</svg>
