<?xml version="1.0" encoding="utf-8"?>
<!-- Generator: Adobe Illustrator 19.1.0, SVG Export Plug-In . SVG Version: 6.00 Build 0)  -->
<svg version="1.1" id="Layer_1" xmlns="http://www.w3.org/2000/svg" xmlns:xlink="http://www.w3.org/1999/xlink" x="0px" y="0px"
	 viewBox="0 0 48 48" style="enable-background:new 0 0 48 48;" xml:space="preserve">
<style type="text/css">
	.st0{fill:#808080;}
</style>
<path class="st0" d="M42.2,17.4c0,0-4.5-3.2-8.9-3.6c0,0-4.2-0.9-7.5,3.4c0,0-2,2.1-2.8,3.6c-0.2,0.4-0.5,0.7-0.9,0.9
	c-0.6,0.2-1.4,0.8-1.6,1.8c0,0.2-0.2,0.2-0.3,0.2c-0.9-0.6-3.8-2.4-4.4-4.1c0,0-3.1-14-8.6-15.1c0,0,0.4-0.3,0.9-0.1
	c0,0,1.8,0.1,1.7-1.8c0,0-0.1-1.8-1.2-1.5c-0.1,0-0.2,0-0.3-0.1c0-0.1-0.1-0.3,0-0.5c0,0-0.4,0-0.6,0.9c0,0.1,0,0.1-0.1,0.2
	C7.5,1.6,7,2.3,7,2c0,0,0.4-2.5-0.3-1.9c0,0-0.6,2.5-0.9,2V0.7c0-0.1-0.1-0.1-0.2-0.1C5.5,0.7,5.1,1.1,5.1,2.3c0,0-0.4-1.6-0.7-1.2
	c0,0,0,1.7-0.1,1.6L3.9,1.9c0,0-0.3-0.3-0.3,1.5c0,0-0.2-0.3-0.4-0.3C3,3.1,2.9,3.1,2.9,3.2v0.6c0,0.1,0,0.2-0.1,0.3
	c-0.2,0.3-0.6,1-0.1,2.1c0,0,0,0.1,0,0.1c-0.2,0.1-0.8,0.4-0.6,1c0,0,0.7-0.3,1.2-0.3c0.1,0,0.2,0.1,0.2,0.2
	c-0.2,0.5-0.4,1.8,1.9,3.1c0.2,0.1,0.2,0.3,0.1,0.5c-0.5,0.7-1.6,2.7-3.4,8.9c0,0-2.7,4.8,2.7,12.2c0,0,5.1,5.9,6.6,8.2
	c0.2,0.3,0.3,0.7,0.2,1c-0.1,1.2-0.3,3.8-0.6,4.6c0,0.1-0.2,0.2-0.3,0.2c-0.8-0.3-3.9-1.2-3.7,0.2c0,0,1.1-0.4,1.9,0.2
	c0,0-1.8,0-1.5,0.7c0,0,0.7-0.3,1.3,0c0,0,1.2,0.5,1.8,0.3c0,0,0.4-0.1,0.8,0.1c0,0,0.6,0.4,1.2-0.6c0.1-0.1,0.2-0.1,0.3-0.1
	c0.2,0.1,0.5,0.3,1.1,0.3c0,0,0.2,0,0.3,0.1c0,0,0-0.4-0.4-0.5c0,0-1.4-0.6-1.3-2c0-0.1,0.1-0.3,0.2-0.4c0.2-0.1,0.4-0.3,0.4-0.5
	c0,0-0.1-0.1-0.3-0.1c-0.1,0-0.2-0.1-0.2-0.3c0.1-0.6,0.2-2.1,0.4-2.8c0-0.2,0.1-0.4,0.1-0.5l0.1-1.8c0-0.1,0.1-0.2,0.2-0.1
	c0.6,0.3,2.4,1.2,5.2,1.1c0.1,0,0.2,0.1,0.2,0.2c0.1,1,0.6,5.5,0,5.7c0,0-1.9,1.2-2.8,1.4c0,0-1.2,0.1-1.2,0.7c0,0,0.5-0.2,0.8-0.1
	c0,0,0.7,0.2,1.6-0.4c0,0,1.1-0.9,1-0.5c0,0-0.7,0.8-0.7,1c0,0-0.4,0.5-0.3,0.7c0,0,0.4-0.4,0.7-0.5c0,0,0.1,0,0.1,0
	c0.3-0.2,1.3-0.9,1.5-1.4c0-0.1,0.1-0.1,0.2-0.1c0.3,0,0.8-0.1,0.9-0.4c0.1-0.1,0.2-0.2,0.3-0.2c0.2,0,0.4,0.1,0.6,0.3
	c0,0,0.1-0.4-0.5-0.9c0,0-1-1-0.9-2.6l0-4.9c0-0.1,0.1-0.2,0.2-0.1c0.4,0.1,1.2,0.2,1.3-0.7c0,0,0.4-1.7,1.9-0.8
	c0.1,0.1,0.2,0,0.2-0.1v-0.8c0-0.1,0.1-0.1,0.2-0.1c0.3,0.2,0.9,0.5,1.3,0.3c0.1-0.1,0.1-0.2,0-0.3l-0.4-0.6c-0.1-0.1,0-0.2,0-0.2
	c0.2-0.2,0.7-0.8,1-0.6c0,0,0.3,0.3,0.7,0.3c0.1,0,0.2,0.1,0.2,0.2c0.2,0.9,1.1,4.3,2.5,4.9c0,0,1.3-0.7,1-4.4c0,0,0.3,1.8,0.9,2.1
	c0.1,0.1,0.2,0,0.3-0.1l0.1-0.8c0-0.1,0.1-0.1,0.2-0.1c0.4,0.2,1.5,0.3,0.9-3.1c0-0.1,0.1-0.2,0.2-0.1c0.4,0.3,1.2,0.7,0.8-1.8
	c0-0.1,0.1-0.3,0.2-0.3c0.7-0.2,2.8-0.7,2-1.3c-0.1-0.1-0.1-0.2,0-0.3c0.9-0.3,2.9-1.3,0.3-3.4c0,0,0-0.1,0-0.1
	c0.2,0,0.5-0.1,0.4-0.4c0-0.1,0-0.2,0.1-0.3c0.7-0.2,2.6-1.1,1.3-3.5c0-0.1,0-0.2,0.1-0.2c0.2-0.1,0.6-0.3,0.6-0.8
	c0-0.1,0.1-0.1,0.1-0.1c0.7,0.8,3.2,3.8,4,5.3c0.1,0.1,0.3,0.1,0.3,0c0.3-0.6,0.5-2.3-1.2-5c0,0-1.1-2.5-3.1-2.5
	c0,0,0.9-0.8,1.7-0.1c0.2,0.1,0.3,0.3,0.5,0.4c1.1,0.7,4.2,2.9,4.9,4.9c0,0,0.7,0.6,0.7-0.3C46.6,22.5,44.7,18.3,42.2,17.4z
	 M5.9,6.1C5.7,6.1,5.5,6,5.5,5.8c0-0.2,0.2-0.3,0.4-0.3c0.2,0,0.4,0.1,0.4,0.3C6.4,6,6.2,6.1,5.9,6.1z"/>
</svg>
