<?xml version="1.0" encoding="utf-8"?>
<!-- Generator: Adobe Illustrator 19.1.0, SVG Export Plug-In . SVG Version: 6.00 Build 0)  -->
<svg version="1.1" id="Layer_1" xmlns="http://www.w3.org/2000/svg" xmlns:xlink="http://www.w3.org/1999/xlink" x="0px" y="0px"
	 viewBox="0 0 48 48" style="enable-background:new 0 0 48 48;" xml:space="preserve">
<style type="text/css">
	.st0{fill:#808080;}
</style>
<path class="st0" d="M39.9,13.6c0,0-2.1-3.3-14-0.6c-0.9,0.2-1.8,0.2-2.7,0c-1.1-0.2-2.6-0.5-3.9-0.5c-0.4,0-0.7,0-1.1-0.1
	c-1.6-0.4-5.4-1.7-5.1-3.3c0.1-0.8,0-1.4,0.8-1.9c0,0,2.6-1.8,1.9-4.2c0,0-0.4-1.1-1.7,0.6c-0.3,0.4-1,0.9-1.4,1.4
	c-0.5,0.5-1.5,0.4-1.4-0.2c0,0-0.1-1.6,3-3.1c0,0-2.3-1.3-4.5,2.4C9.2,4.7,7.1,4.7,7,3.7C6.9,2.8,6.4,0.4,4,0.8
	c1.6,0.9,2,3.3,1.4,3.8L4.9,5.1c0,0-3.3-1.5-3.8-2.4c0,0-1-1-1.1,0.5c0,0,0,2.4,3.4,3.9c0,0,0.5,0.1,0.5,0.9c0,0,0.2,0.7,0.2,1.6
	c0,0,0.3,3.5,1.1,4.9c0,0.1,0.1,0.2,0.1,0.3c0,0.6,0.3,2.6,2.3,2.1c0,0,0.5,0.3,0.8,0.1c0.2-0.1,0.5-0.1,0.6,0.2
	c0.4,0.7,0.9,2.1,0.8,4c0,0.1,0,0.3-0.1,0.4c-0.2,0.7-0.9,4,1.3,11c0,0.1,0,0.1,0.1,0.2c0.1,0.8,0.7,5.4-2.5,12.4
	c0,0-0.6,2.3,2.3,1.4c0.2-0.1,0.4-0.2,0.6-0.4c0.2-0.4,0.6-1.1,0.8-2.4c0,0,0.7-0.6,1-5.1c0-0.1,0-0.1,0-0.2c0.2-0.7,1.5-5.8,2.4-7
	c0.1-0.2,0.4-0.3,0.6-0.2c0.6,0.1,1.6,0.7,0.5,3.6c0,0-0.4,0.9,0,3.5c0,0.2,0,0.4,0,0.6c-0.2,1-0.8,4-1.8,6c0,0-1,3,0.9,2.1
	c0,0,0.3,0.3,1.3,0.1c0.5-0.1,0.9-0.4,1.1-0.9c0.4-0.9,1-2.6,0.8-4.3c0,0-0.4-3.6,1.5-6c0-0.1,0.1-0.1,0.2-0.2
	c0.3-0.3,1.5-1.3,1.7-3.2c0-0.3,0.3-0.6,0.6-0.6c2.4-0.4,11.7-1.7,11,3.3c0,0-1.3,3.8-1.9,4.9c0,0,0,0,0,0c-0.1,0.2-1.6,2.4-0.5,2.6
	c0,0,2.2,0.9,2.5-0.5c0,0,0.2-1.4,1.1-1.7c0.1,0,0.1-0.1,0.1-0.2c0.3-0.9,2.4-6.8,2.7-9.9c0,0,1.1,1.7,0.9,3.9c0,0,2.9-3,4.2-0.1
	c0,0,0.2,8.8,1.8,9.4c0,0,1.5,0.3,1.7-2c0,0-0.8-9.6-1.2-10.8c0,0-0.9-5.2-2.2-6.9c0,0-1.1-1.3-0.4-4.9c0.2-1,0.8-2.1,0-3.5
	c-0.3-0.5-0.1-1.1,0.4-1.3c2.1-1.2,6.5-3.9,4.1-4.9C47.3,9.3,40.7,8.4,39.9,13.6z"/>
</svg>
