<?xml version="1.0" encoding="utf-8"?>
<!-- Generator: Adobe Illustrator 19.1.0, SVG Export Plug-In . SVG Version: 6.00 Build 0)  -->
<svg version="1.1" id="Layer_1" xmlns="http://www.w3.org/2000/svg" xmlns:xlink="http://www.w3.org/1999/xlink" x="0px" y="0px"
	 viewBox="0 0 48 48" style="enable-background:new 0 0 48 48;" xml:space="preserve">
<style type="text/css">
	.st0{fill:#808080;}
</style>
<path class="st0" d="M44.3,5.5c0,0-0.1-0.3,0.2-0.4c0,0,0-1.8-1-2.3l-0.1,0.4c0,0-0.3-1.3-0.6-1.3c0,0-0.1,1.2-0.4,1
	c0,0,0.3-2.3-0.4-2.3c0,0-0.5,2-0.9,1.8c0,0-0.4-2.8-0.9-2.4c0,0,0,2.3-0.3,2.1c0,0-0.5-2.2-1-2.2c0,0,0.3,1.7,0.1,2
	c0,0-1.3-0.5-1.8-1.4c0,0,0.3,0.9-0.5,0.9c0,0-0.9,0.2,0.1,1.3c0,0-0.3,1.3,0.9,1.2c0,0,1.6-0.2,1.5,0.2c0,0-4.4,1.9-7.3,8.7
	c0,0-1.3,4.4-4,4.8c0,0-4,0.6-4-2c0,0-2-12.2-12.7-6.9c-0.5,0.2-1,0.3-1.5,0.3c-1.2,0-3.6,0.2-4.2,1.9c0,0,0.5,0.7,2.6,0.3
	c0,0-3.9,5.2-3.1,10.3c0,0-2.5,1.4-2.7,2.4l2.7-1.6c0,0-0.2,2.8,0.8,2.8l0.4-3.4c0,0,0.7-0.2,1-0.3c0,0,0.3,2.7,3.5,3
	c0,0-1.7,3-1,4.5l0.6-0.9c0,0,0,1.8,0.4,2.3c0,0,0.4-1.2,1.3-1.9c0,0,1-1.4,1-1.7l1-0.7l0.1,0.8c0,0-1.4,1.8-1.5,2.1
	c0,0,1,0.3,2-0.7c0,0,1.5-1.7,1.2-0.2l0.2,2.3l0.2-1c0,0,0.2-0.1,0.1,0.5c0,0-0.1,2.8,0.1,2.9c0,0,0.7-2.7,1.3-3.3
	c0,0,0.6,2.6,0.7,3.5c0,0,0.3-3.7,1-4c0,0,0.8-0.7,0.6,1.3c0,0-1.5,1.9-0.1,2.2c0,0-0.4,2.5,4.2,1.9l0.6,1c0,0-1.2,0.8-0.7,2
	c0,0-1,4-1.4,3.7c0,0-1-1-1.1-1.2c0,0,0.4,1.2,0.8,1.8c0,0,0.4,1.1-1,1.1c0,0-1.4-0.1-1.4,0.5c0,0,0.3-0.2,0.5,0
	c0,0,0.2,0.3,1.1,0.1c0,0,0.2,0.2,0,0.6c0,0-0.3,0.7,0.3,1c0,0-0.1,0.8,0.4,1.2c0,0,0.9,0.8,0.8,1.2l0.2,0c0,0,0,0.2-0.1,0.4
	c0,0,0.3,0.2,0.4-0.6c0,0-0.1-0.4-0.5-0.8c0,0-0.1-0.3,0.2-0.1c0,0,0.3,0.6,1,0.7c0,0,1.4,0.8,1.4,0.2c0,0,0.4-0.1,0.6,0.3
	c0,0,0.3-0.4-0.7-0.6c0,0-2.6-0.9-2.7-2.2c0,0-0.2-0.4,0.1-1c0,0,1.4-5.1,2.2-5c0,0,0.6,0.4,1.1-0.2c0,0,2.3-2.9,2.7-1.5
	c0,0.1,0,0.2,0,0.3c0,0.1,0,0.5,0.3,1.2c0,0,2,3.9,1.3,4.2c0,0-0.7,0.5-1.8,0.5c0,0,0.9,0.3,2.1,0.1c0,0,0.8,0.2,0.1,0.9
	c0,0-1.6,0.4-1.2,1.2c0,0,1.2-1.1,1.5-0.5c0,0,0.5,1.4,1.1,1.3l0.2-0.5c0,0,2.3,0.9,3.1,0.6c0,0,0-0.2,0.5,0.2c0,0,0.1-0.4-0.6-0.7
	c0,0,0.1-0.2,0.4,0.1c0,0,0.1-0.4-0.7-0.5c0,0-2.4,0.2-2.7-1.3c0,0-1.8-4-1.7-4.8c0,0,0.6,0.6,0.9-0.4c0,0,0.5-2.2,2.1-3.4
	c0.5-0.4,0.9-0.8,1.1-1.4c0.6-1.2,2-3.3,4.5-5.1c0,0,0.6-0.6,1.3-1.3c1.8-1.8,2.7-4.3,2.7-6.8c0-3-0.4-7.1-2.2-9.8
	c0,0,2.8-0.8,1.5-4.2c0,0,0-1.1,2-0.3C45.3,6.9,45.6,5.9,44.3,5.5z M41.2,6c-0.3,0-0.5-0.2-0.5-0.4c0-0.2,0.2-0.4,0.5-0.4
	c0.3,0,0.5,0.2,0.5,0.4C41.7,5.8,41.5,6,41.2,6z"/>
</svg>
