<?xml version="1.0" encoding="utf-8"?>
<!-- Generator: Adobe Illustrator 19.1.0, SVG Export Plug-In . SVG Version: 6.00 Build 0)  -->
<svg version="1.1" id="Layer_1" xmlns="http://www.w3.org/2000/svg" xmlns:xlink="http://www.w3.org/1999/xlink" x="0px" y="0px"
	 viewBox="0 0 48 48" style="enable-background:new 0 0 48 48;" xml:space="preserve">
<style type="text/css">
	.st0{fill:#808080;}
</style>
<path class="st0" d="M47.5,21.4c-0.1-0.3-0.2-0.6-0.1-0.9c0.1-1.2-0.4-5.1-5.1-6c0,0-2.1-1.2-4.2-0.6c0,0-5.6-2.1-9.3-2.1
	c-0.2,0-0.4,0-0.6-0.1c-1.5-0.5-8.2-2.6-14,0.9c-0.1,0-0.1,0.1-0.2,0.1c-0.7,0.3-4.3,1.7-5.3,2.8C8.4,15.8,8.2,15.9,8,16
	c-0.6,0.1-1.5,0.3-2,0.7c-0.2,0.1-0.4,0.2-0.6,0.2c-0.7,0.1-2.1,0.4-2.1,2.1c0,0-3.6,0.1-2.3-2.8c0,0,0.2-0.7-0.5-0.2
	c0,0-2.3,3.5,2.5,4.5c0,0-0.4,2.4,1.1,3.1c0,0,0.4,0.1,0.5,1.2c0,0.1,0,0.1,0,0.2c0.1,0.3,0.5,1.2,0.7,1.6c0.1,0.1,0,0.2,0,0.3
	c-0.3,0.3-0.7,1.1,1.6,1.4c0,0,0.6-0.1,1,0.1c0,0,0.9,0,1.3-0.8c0.1-0.1,0.2-0.2,0.3-0.2c0.7,0,2.6-0.1,2.7-2.5
	c0-0.1,0.2-0.2,0.3-0.1c0.5,0.4,1.6,1.3,3.6,1.9c0.2,0,0.3,0.2,0.3,0.4c0,0.5-0.1,1.6-0.1,2.3c0,0.8-0.1,1.6-0.3,2.4
	c-0.2,0.8-0.5,1.6-1.1,2c0,0-0.1,0.1-0.1,0.1c-0.2,0.2-0.8,1-0.8,1.1c0,0,0.1,0.3,0.5,0.2l-0.2,0.2c0,0,0.1,0.3,1.1,0.2
	c0,0,0.5-0.1,0.9-0.1c0,0,1.1-0.3,0.5-1.3l0.3-0.4c0,0,0.6,0.8,0.7-0.2c0,0,0.2-0.4-0.1-0.7c0,0-0.3-2.2,0.5-3.1c0,0,0.1,0,0.1,0
	c0,0.5,0.3,3.3,0.1,3.9c0,0,0,0.1,0,0.1c-0.1,0.2-0.7,1.2-0.8,1.5c0,0.1,0,0.1-0.1,0.1c-0.2,0.1-0.5,0.4-0.6,0.7
	c0,0-0.4,0.6-0.5,0.7c0,0,0.2,0.2,0.4,0.1c0,0-0.1,0.3,0.2,0.3c0,0,0.7,0,1.1-0.1c0,0,0.3-0.1,0.6-0.1c0,0,1.2-0.2,0.7-1.4
	c0-0.1,0-0.1,0-0.2c0,0,0.1-0.1,0.1-0.1c0.1-0.1,0.2-0.1,0.2,0c0.1,0.1,0.4,0.3,0.5,0c0,0,0.4-0.5-0.2-1.5c0-0.1,0-0.1,0-0.2
	c0-0.5,0.2-2.4,0.5-3.7c0.1-0.5,0.5-0.9,1-1c1.5-0.3,5-1.2,6.6-2.3c0.1-0.1,0.2-0.1,0.3-0.1c0.7,0,3.1,0.1,5-0.7
	c0.1,0,0.2,0,0.2,0.1c0.1,0.6,0.5,2.4,2.2,3.1c0,0,1.7,0.7,0.6,3.1c0,0-0.6,1.2-1,1.6c0,0,0,0-0.1,0c-0.2,0.1-0.9,0.6-1.2,0.9
	c-0.1,0.1-0.2,0.1-0.3,0.2c-0.2,0.1-0.7,0.3-0.9,0.5c0,0-0.3,0.4-0.6,0.4c0,0,0,0.4,0.5,0.2L32.9,36c0,0,0.4,0.4,1.2,0.4
	c0.1,0,0.1,0,0.2,0c0.3,0,1.4,0.1,1.6-0.3c0,0,0.3-0.3,0-0.6l0.4-0.4c0,0,0,0.6,0.5,0.5c0,0,0.3,0.1,0.4-1.3c0,0,0.7-1.7,1.3-2.3
	c0,0,0-0.1,0.1-0.1c0.1,0,0.2-0.1,0.3-0.2c0.2-0.2,0.6-0.6,0.7-0.9c0,0,1-1,0.2-1.8c0,0-0.7-0.7-0.8-1.1c0-0.1,0-0.1,0.1-0.1
	c0.3,0.2,1.1,0.7,2.7,1.1c0,0,2.3,0.7,2.9,3.1c0,0,0.7,1.2,0.1,2.7c0,0.1,0,0.1,0,0.2l0,0c0,0.2-0.1,0.5-0.3,0.6
	c-0.5,0.4-1.4,1.1-1.4,1.4l0.5,0l-0.2,0.3h1.9c0,0,1.4,0.1,1.1-1.1c0-0.1,0-0.1,0-0.2c0.1-0.2,0.2-0.5,0.3-0.8
	c0-0.1,0.1-0.1,0.2-0.1c0.2,0.1,0.4,0.2,0.5-0.2c0,0,0.2-0.7-0.4-1.4c0,0-0.1-0.1-0.1-0.2c-0.2-0.6-1.4-3.5-1.4-5
	c0,0,0.2-0.5-0.8-0.6c0,0-2.6-1.1-2-2.9c0,0,1.5-4,0.6-6.1c0,0,0-0.1,0-0.1c0-0.2-0.1-0.8,0-1.1c0,0,0-0.1,0-0.1
	c0-0.2-0.1-0.9-1.2-1.8c0,0,2.3-0.2,3.4,1.4c0.3,0.5,0.4,1.2,0.2,1.7c-0.4,1.1-1,3.2-0.2,4.2c0.1,0.1,0.2,0.3,0.3,0.5
	c0.2,0.6,0.6,1.9,0.7,2.6c0,0.2,0.1,0.3,0.2,0.5c0.2,0.3,0.6,0.8,0.6,1.2c0,0,0.3-1.3,0.6-1.9c0-0.1,0.1-0.2,0.1-0.2
	C48,25.2,48.2,23,47.5,21.4z M9.9,22.7c-0.1,0-0.1,0.1-0.2,0.1c-0.1,0-0.3,0-0.4,0c-0.1,0-0.2,0-0.2,0.1c0,0-0.1,0.1-0.2,0
	c0,0,0-0.1,0-0.1C9,22.7,9,22.6,9,22.4c0,0,0-0.1,0-0.1c0-0.2,0.2-0.5,0.8-0.5c0.1,0,0.2,0.1,0.2,0.2C10.1,22.2,10.2,22.5,9.9,22.7z
	"/>
</svg>
