<?xml version="1.0" encoding="utf-8"?>
<!-- Generator: Adobe Illustrator 19.1.0, SVG Export Plug-In . SVG Version: 6.00 Build 0)  -->
<svg version="1.1" id="Layer_1" xmlns="http://www.w3.org/2000/svg" xmlns:xlink="http://www.w3.org/1999/xlink" x="0px" y="0px"
	 viewBox="0 0 48 48" style="enable-background:new 0 0 48 48;" xml:space="preserve">
<style type="text/css">
	.st0{fill:#808080;}
</style>
<path class="st0" d="M48,34.2c0-0.1-0.1-0.2-0.2-0.3c-0.1,0-0.2-0.1-0.4-0.1c0,0-2.4-1.1-2.4-2.4c0,0,0.1-7.7-7.5-12.3
	c-0.1-0.1-0.3-0.2-0.4-0.3c-0.6-0.5-3.4-2.1-10.2-3.3c-1-0.2-1.8-0.9-2-1.9c-0.1-0.4-0.2-0.9-0.1-1.6c0,0,0.2-1,0.8-1.4
	c0,0,0.5-0.7-0.5-0.7c0,0-1.7,0-2.9,2.3c0,0-0.9,1.5-1.3,2.9c0,0-0.1,1.5-2.5,2.4c-0.4,0.2-0.7,0.3-1.1,0.6
	c-0.9,0.6-2.8,1.8-5.5,3.9c-0.3,0.2-0.5,0.4-0.8,0.5c-1.2,0.7-4.7,2.7-7.4,3.6c-0.3,0.1-0.6,0.2-0.8,0.4c-0.4,0.3-0.9,0.7-1.4,1.2
	c-0.1,0.1-0.2,0.2-0.4,0.3C0.6,28.3,0,28.8,0,29.2c0,0-0.1,0.6,0.8,0.9c0,0-0.3,0.8,3.3,1.7c0.3,0.1,0.6,0.2,0.8,0.3
	c0.9,0.4,3.7,1.2,7.9,0.2c0.2,0,0.4,0,0.5,0.1c0.5,0.4,1.7,1.1,4.3,0.9c0,0,1.8-0.1,1.7-1.3c0-0.2,0.2-0.4,0.4-0.4
	c0.6,0,1.4-0.1,1.4-0.6c0,0,0.3-0.6-0.6-0.9c0,0,10.1-4.3,13.2-4c0,0,4.5,0,7.3,5c0.1,0.2,0.3,0.5,0.5,0.7c0.5,0.5,1.4,1.5,2.1,1.8
	c0.2,0.1,0.3,0.2,0.4,0.4c0.4,1,1.8,4.2,3.5,4.1c0.1,0,0.2-0.1,0.2-0.2c0,0,0-0.1-0.1-0.2c-0.1-0.2-0.1-0.4-0.1-0.7
	c0.1-0.6,0.3-1.9,0.6-2.3L48,34.2z M5.9,28.4c0,0,3.6-2.7,5.5-1.7C11.4,26.7,9.6,30.5,5.9,28.4z"/>
</svg>
