<?xml version="1.0" encoding="utf-8"?>
<!-- Generator: Adobe Illustrator 19.1.0, SVG Export Plug-In . SVG Version: 6.00 Build 0)  -->
<svg version="1.1" id="Layer_1" xmlns="http://www.w3.org/2000/svg" xmlns:xlink="http://www.w3.org/1999/xlink" x="0px" y="0px"
	 viewBox="0 0 48 48" style="enable-background:new 0 0 48 48;" xml:space="preserve">
<style type="text/css">
	.st0{fill:#808080;}
</style>
<path class="st0" d="M39.5,18.6c0,0-0.3-0.2,0.1-0.6c0,0,0.6-1.4-0.5-1.9C39,16,39,15.9,39,15.9c0-0.3,0.1-1.1-0.7-1.2
	c0-0.2,0-0.4,0.1-0.6c0.1-0.4,0.2-1.2-1.2-1.5c-0.1,0-0.1-0.1-0.1-0.2c0.3-0.4,1-1.7-0.8-2c-0.1,0-0.1-0.1-0.1-0.1
	c0.1-0.5,1.3-2.2,11.8-0.1c0,0-1.4-2.5-10.3-2.9c0,0,4.3-1.5,8-1.7c0,0,1.8,0.2,1.7-0.3c0,0-17-3.5-22,12.6c0,0-1.5,0.5-1,1.8
	c0,0-1.5-0.4-4.9-0.9c0,0-3.4-0.1-5.8-3c0,0-3.9-4.6-7.7-6.3C6,9.3,6,9.2,6.1,9.1C6.8,9,7.9,8.6,7.9,7.3c0,0-0.8-0.8-0.4-1
	c0,0,0.2-0.4,0-0.6c0,0-0.4,0.3-0.5,0.1c0,0,0.1-0.8,0.2-1c0,0-0.2-0.3-1.8,1.3c0,0-0.3,0.2-0.1-0.4c0,0,0.5-1.9,0.2-1.8
	c0,0-1.1,2.5-1.4,2.5c0,0-0.4-1.9-0.3-2.2c0,0-0.3-0.4-0.4,0.9c0,0-0.2,1.3-0.4,1.8C2.9,7,2.7,7,2.7,6.9C2.4,6.4,1.8,5.1,1.8,5.4
	c0,0-0.2,1.4,0,2.1c0,0.1-0.1,0.3-0.2,0.2c-0.1,0-0.1-0.1-0.2-0.2c0,0-0.7-0.9-0.6,0.5L0.4,8.3c0,0,0.3,0.7-0.3,0.7
	c0,0-0.3,1.9,0.4,2.2c0,0-0.6,0.7-0.4,1c0,0,0.7-0.2,1.1-0.3c0.1,0,0.2,0.1,0.1,0.2c-0.4,0.6-0.9,2.1,1.9,3.1
	c0.2,0.1,0.3,0.2,0.3,0.4C4.4,24.5,7.1,26,8.5,27.6c0.9,1,2.5,2.6,5.2,4.4c1.6,1.1,4.4,3.6,4.3,5.9c0,0.8-0.1,1.8-0.3,2.5
	c-0.1,0.5-0.6,0.8-1,0.8c-1.1,0-3.4,0.1-3.4,0.4c0,0-0.6-0.2-0.7,0.3c0,0,0.5-0.2,0.6-0.1c0,0-0.4,0.5,3.5,0.4
	c0.1,0,0.2,0.1,0.1,0.2c0,0.1-0.1,0.2-0.3,0.3c0,0-1.6,0.9-1.3,1.6c0,0,0.2-0.3,0.5-0.3c0,0,0.8-0.8,1.8-1c0.1,0,0.1-0.1,0.2-0.1
	c0.1-0.1,0.1-0.1,0.2-0.1c0.2,0,0.3,0,0.4-0.2c0.2-0.3,0.5-0.7,0.6-1.1c0,0,0.3-0.2,0.5,0.2c0,0,0.3,0.3,0.5-0.1
	c0,0,0.9-0.2-0.4-0.7c0,0-0.5-0.6-0.4-1.1c0-0.1,0-0.1,0.1-0.1c0.1-0.1,0.4-0.4,0.2-0.8c-0.1-0.1-0.1-0.3-0.1-0.4
	c0-0.5,0-1.5,0.5-1.8l0.5-0.4c0.1-0.1,0.1-0.2,0.1-0.4c0-0.1-0.1-0.4,0.1-0.7c0,0,0.2-0.9-0.2-1.3c0,0,0.8-0.3,1.2-0.6
	c0.2-0.1,0.4-0.1,0.5-0.1c0.4,0.2,1.1,0.7,1.3,1.3l1.1,2.5c0,0,0.5,1.3,0.4,1.7c0,0-0.3,1.1-1.3,1.4c0,0-1.8,0-1.5,0.2
	c0,0-1,0.1-0.9,0.6c0,0,0.6-0.2,0.8,0.1c0,0,0.1,0.1,0.5,0c0,0,0.6-0.1,0.9,0c0,0,0.2,0.1,0.7-0.1c0.1-0.1,0.2-0.1,0.3-0.1
	c0.3-0.1,0.7-0.2,0.9-0.7c0,0,0,0.6-0.1,1.4c0,0-0.2,0.8,0.1,1c0,0,0-0.7,0.2-0.7c0,0,0.3,0.1,0.3-0.4c0,0,0.8-2.6,0.7-3
	c0,0,0.9,0.2,0.9,0c0,0,0.2-0.1,0.3,0.1c0,0,0.2-0.3-0.4-0.5c0,0-1.3-0.4-1.2-0.5c0,0,0.2-0.3,0.5-0.3c0,0,0.3-0.1,0.1-0.4
	c0,0-0.2-0.2-0.5,0c0,0-0.4,0.2-0.5-0.2c0,0-0.1-0.4-0.5-0.8c-0.1-0.1-0.2-0.3-0.3-0.5c-0.2-0.6-0.7-1.9-0.6-2.1c0,0,2,0.5,2-1.2
	c0-0.2,0.1-0.3,0.2-0.4c0.3-0.2,0.8-0.5,0.6-0.8c0-0.1-0.1-0.2-0.1-0.3c0-0.2,0.1-0.4,0.5-0.4c0.1,0,0.3,0.1,0.4,0.2l0.1,0.2
	c0,0,0.7,0.2,0.6-1.8c0,0,0-1.2,1.1-0.4c0.1,0.1,0.2,0.1,0.2,0.1c0.4,0.1,1.7,0.3,2.1-0.2c0.1-0.1,0.3-0.2,0.6-0.2
	c1.3,0.1,5.1,0.3,5.3-1.7c0,0,0-0.1,0-0.1c-0.1-0.2-0.5-0.8-2.1-1.6c0.8,0.2,1.5,0.4,2.2-0.1c1.7-1.4,1.2-1.7,0.9-2.2
	c0,0,1.7-0.8,1.7-2.6C40.5,19.4,40.1,18.7,39.5,18.6z M3.9,11.1c-0.2,0-0.4-0.1-0.4-0.3c0-0.2,0.2-0.3,0.4-0.3
	c0.2,0,0.4,0.1,0.4,0.3C4.2,10.9,4.1,11.1,3.9,11.1z"/>
</svg>
