<?xml version="1.0" encoding="utf-8"?>
<!-- Generator: Adobe Illustrator 19.1.0, SVG Export Plug-In . SVG Version: 6.00 Build 0)  -->
<svg version="1.1" id="Layer_1" xmlns="http://www.w3.org/2000/svg" xmlns:xlink="http://www.w3.org/1999/xlink" x="0px" y="0px"
	 viewBox="0 0 48 48" style="enable-background:new 0 0 48 48;" xml:space="preserve">
<style type="text/css">
	.st0{fill:#808080;}
</style>
<path class="st0" d="M47.1,11.8c0,0-2.4-1-2.8-1.7c0-0.1,0-0.1,0-0.2c0.2-0.1,0.7-0.6-0.3-1.1c0,0-0.6-0.1-2.4-2
	c0,0-1.6-1.7-4.2-0.2c0,0-3.6,1.7-3.7,4.7c0,0,0,3.6,0.2,5.7c0,0.3,0,0.5,0,0.8c-0.1,0.6-0.4,1.5-1,2.1c-0.1,0.1-0.3,0.1-0.5,0
	c-0.8-0.5-4-2-10.4-2.3c-0.2,0-0.4,0-0.5-0.1c-0.9-0.2-4.4-0.9-9.2-0.3c-0.4,0-0.8,0-1.1-0.1c-0.2-0.1-0.6-0.1-0.9-0.3
	c0,0-0.7-0.1-0.6,0.5c0,0,0.8,0.8-1.4,0.2c0,0-5.5-1.9-7.5-1.2c-0.1,0,0,0.1,0,0.1c0.3,0.1,0.8,0.3,0,0.5c0,0-1.4,0.5-0.1,1
	c0,0-0.5,0.5,0.2,0.6c0.1,0,0.2,0.1,0.4,0.1C1.6,19,3,19.5,4,19.9c0.4,0.1,0.8,0.4,1.1,0.6c0.4,0.3,1,0.8,2.1,1.1
	c0.3,0.1,0.6,0.3,0.9,0.5c0.5,0.4,1.2,1.1,1.7,2.3c0,0,0.7,1.5,1.9,2.8c0.2,0.2,0.3,0.4,0.4,0.6c0.6,1,2.3,3.7,3.3,4.2
	c0.1,0,0.1,0.1,0.1,0.1c0,0.4-0.2,1.5-1.7,2.2c0,0-0.2,0.1-0.2,0.4c0,0,0.1-0.1,0.2,0c0,0,0.4,0.5-0.1,0.8c-0.1,0.1-0.2,0.2-0.2,0.3
	c0,0.3,0.1,0.7,0.3,0.9c0.1,0.1,0.2,0.2,0.2,0.4c0.1,0.8,0.7,3.1,4,3.3c0.1,0,0.2,0,0.3,0.1c0.2,0.2,0.6,0.5,0.3-0.1
	c-0.1-0.1,0-0.3,0-0.4c0.3-0.3,1-0.9,2.6-0.7c0,0,0.4,0,0.5-0.2c0,0,0.5,0.1,0.7,0.3c0,0,0.3-0.7-1.5-0.7c0,0,0.2-0.6-1.4-1.3
	c0,0,1.3-0.2,0.8-0.5c0,0-0.1-0.1-0.2-0.1c-0.4,0-2.2,0-4-1c-0.1,0-0.1-0.1-0.1-0.2c0.1-0.4,0.5-1.7,1.5-2.3
	c0.1-0.1,0.2-0.1,0.3-0.1c0.4,0,1.8,0.1,3.3,1c0,0,2.7,2.2,4.9,1.4c0.1,0,0.2,0,0.2,0c0,0.1,0,0.3,0,0.5c0,0.1-0.1,0.2-0.2,0.3
	c-0.3,0.2-1.1,0.7-1.4,1c-0.2,0.1-0.3,0.3-0.3,0.5c0,0.2,0,0.4,0.4,0.4c0,0-0.2-0.5,0.1-0.5c0,0,0.6,0.7,1.2-0.5
	c0-0.1,0.1-0.1,0.1-0.1c0.1,0,0.3,0.1,0.1,0.6c0,0.1,0,0.1-0.1,0.2c-0.2,0.3-1,1.5,0,3c0,0,0.3,0.3,0.5,0.1c0,0,0,0.3-0.2,0.4
	c0,0,0.5,0,0.7-0.3c0-0.1,0.1-0.1,0.2-0.1c0.5,0,2.4-0.1,3.2,0.1c0.1,0,0.1,0,0.2-0.1c0.1-0.1,0.1-0.2,0.1-0.3c0,0,0.2,0.3,0.5,0.3
	c0,0,0.6-0.1,0.8,0.5c0,0,0.4,0.6,0.4,0.1c0,0,0.1-0.4-0.3-0.9c-0.1-0.1-0.1-0.2,0-0.3c0-0.1,0.1-0.2,0.2-0.2c0.1,0,0.2-0.1,0.2-0.1
	c0.1-0.1,0.2-0.2,0.2-0.3c0.1-0.1,0.2-0.2,0.3-0.1c0.3,0.1,0.7,0.2,1-0.3c0,0,0.4,0,0.5,0.2c0,0,0.3-0.3-0.6-0.6
	c0,0,0.1-0.3-1.9-0.3c0,0-3.9-0.4-3.9-1.5c0,0-0.1-1.2-0.4-1.6c0-0.1,0-0.2,0.1-0.2c1.8-0.3,14.4-2.7,11.8-14.7c0,0-0.5-2.5-1.4-4.2
	c-0.4-0.8-0.5-1.6-0.3-2.5c0.3-0.9,0.9-1.8,2.5-1.9c0.2,0,0.2-0.1,0.4-0.1c0.2,0,0.7,0.1,0.9,0.2c0.2,0,0.2-0.1,0.3-0.1
	c0.7,0.1,4.3,0.7,5,1c0,0,0.4,0,0.5-0.1h0.1c0,0,0.1,0,0.1-0.1C48,12.7,48.1,12.1,47.1,11.8z M40.1,8.9c-0.3,0-0.5-0.2-0.5-0.4
	s0.2-0.4,0.5-0.4s0.5,0.2,0.5,0.4S40.4,8.9,40.1,8.9z"/>
</svg>
