<?xml version="1.0" encoding="utf-8"?>
<!-- Generator: Adobe Illustrator 19.1.0, SVG Export Plug-In . SVG Version: 6.00 Build 0)  -->
<svg version="1.1" id="Layer_1" xmlns="http://www.w3.org/2000/svg" xmlns:xlink="http://www.w3.org/1999/xlink" x="0px" y="0px"
	 viewBox="0 0 48 48" style="enable-background:new 0 0 48 48;" xml:space="preserve">
<style type="text/css">
	.st0{fill:#808080;}
</style>
<path class="st0" d="M47.4,17c0.1-0.5,0.2-1.6-1.1-3.7c-0.1-0.1-0.1-0.3-0.1-0.4c0.1-0.4,0.3-1.2,0.1-1.4c0,0-0.4,0.3-0.7,0.5
	c-0.4,0.2-0.8,0.3-1.2,0.2c-1.4-0.3-5.3-0.9-11,1.1c-0.2,0.1-0.5,0.2-0.7,0.3c-0.3,0.1-1.2,0.2-4.3-0.6c-1.9-0.5-14.4-1.5-19.1,2
	c-1.6,1.2-2.6,2.6-2.7,5.6c0,1,0.4,6.7-1.2,7.5c0,0-0.9,1.2-2.4,0.5c-0.6-0.2-1-0.7-1.3-1.2c-0.3-0.6-1-1.4-1.4-0.9
	c0,0-0.9,0.7,0.4,2.2c0,0,0,0,0.1,0.1c0.3,0.3,3.1,2.7,5.9,0.4c0.1-0.1,0.3-0.2,0.4-0.3C7.7,28.7,9.2,27.2,9,21c0,0,0.3-1.2,0.6,2.1
	c0,0,1.8,4.8-0.8,7c0,0-0.4,0.2,0.3,1.5c0,0,1.6,4.3,2.8,4.2c0,0,3.3,0.5,3.3-0.5c0,0,0.1-1.7-1.6-1.1c0,0-0.6,0.5-1.2-1.4
	c0-0.1-0.1-0.3,0-0.4c0.1-0.6,0.4-2.2,1.5-3.3c0.1-0.1,0.2,0,0.2,0.1c0,0.3-0.2,0.8-0.8,1.9c0,0-0.2,0.5,0.6,1.3
	c0,0,2.8,3.5,4.2,3.4c0,0,3.3,0.5,2.6-1.2c0,0-0.4-0.5-1.5-0.7c-0.4-0.1-0.8-0.3-1.1-0.6c-0.6-0.5-1.3-1.3-1-1.7
	c0,0,1.4-4.2,2.2-5.4c0.2-0.2,0.5-0.3,0.8-0.2c1,0.4,4.1,1.4,4.9,1.1c0,0,3.6-1,4.6-0.4c0.2,0.1,0.3,0.3,0.3,0.4
	c0,0.4,0,1.7,0.5,3.3c0.1,0.3,0.2,0.7,0.2,1c0,0.6,0,1.4,0,2c0,0-0.1,0.8,0.5,0.5c0,0-0.2,2.8,2.3,2.7c0,0,1.1,0.1,0.7-0.9
	c0,0,0.4,0.3,0,0.8c0,0,1,0.4,1.5-0.4c0,0,2.8,0.3,2.2-1.2c0,0-0.5-0.9-1.7-0.8c-0.2,0-0.4-0.2-0.4-0.4c0.1-1.3,0.4-5.3,2.2-8.2
	c0.2-0.3,0.4-0.7,0.5-1c0.6-1.3,2.4-4.4,5.7-4.1c0.2,0,0.4,0.1,0.5,0.2c0.5,0.4,1.7,1.1,2.5-0.6c0,0,1.4-1,0.2-2.5
	C47.4,17.3,47.4,17.1,47.4,17z M44,15.6c0,0,1-0.1,1.3,0.7C45.3,16.3,44.1,16.6,44,15.6z"/>
</svg>
