<?xml version="1.0" encoding="utf-8"?>
<!-- Generator: Adobe Illustrator 19.1.0, SVG Export Plug-In . SVG Version: 6.00 Build 0)  -->
<svg version="1.1" id="Layer_1" xmlns="http://www.w3.org/2000/svg" xmlns:xlink="http://www.w3.org/1999/xlink" x="0px" y="0px"
	 viewBox="0 0 48 48" style="enable-background:new 0 0 48 48;" xml:space="preserve">
<style type="text/css">
	.st0{fill:#808080;}
</style>
<path class="st0" d="M47.5,36.6c0,0,0.4-0.9-1.4-1.7c0,0-5.3-3.8-6.1-4.6c0,0,0-0.1,0.1-0.1c0.6,0.3,2.7,1.4,3.1,1.3
	c0,0,0.4-0.2-1.1-0.8c0,0-0.7-0.8,2,0.4c0,0,0.4-0.3-1.6-0.9c0,0-0.1,0-0.1,0c-0.1-0.1-1.4-1.1-2.3-1.3c-0.1,0-0.2-0.1-0.3-0.2
	c-0.2-0.3-0.9-1-2.5-1.5c-0.1,0-0.2-0.1-0.2-0.2c-0.4-0.6-2.3-3.3-9.5-7.7c0,0-5.6-4-9-5.9c-0.5-0.3-1-0.7-1.3-1.1
	c-0.1-0.1-3.1-3.5-3.1-3.6C13.6,8,11,4.9,5.4,5.5C5,5.6,4.6,5.4,4.2,5.1C3.3,4.3,1.5,2.7,1,2.7c0,0,3.7,5.2,2.9,5.8L0,7.2
	c0,0,1.1,1.3,3.1,2.5c0.4,0.2,0.6,0.5,0.7,0.9c0.4,1.9,1.7,7.2,1.7,9.4c0,0.2,0,0.3,0,0.5c0,0.4,0,2.3,2.5,4.6
	c0.1,0.1,0.1,0.3-0.1,0.3c-0.4,0.2-1.2,0.6-1.4,1.1c0,0-3.3,1.6-1.1,3.8c0-0.1-0.8-1.8,0.4-2.6c0,0,1.1,0.7,0.9-0.2
	c0,0,0.9-0.6,1.1,0.3c0,0,0,0.7,0.1,0.9c0,0,0.2-0.9,0.7-1.5c0.1-0.1,0.3-0.1,0.4,0c0.2,0.3,0.7,0.9,1.4,1.3
	c0.3,0.2,0.6,0.4,0.9,0.7c0.8,0.7,2.6,1.9,5.7,2.7c0.4,0.1,0.8,0.3,1.1,0.6c0.6,0.6,1.7,1.5,2.9,1.3c0,0,1.4-0.2,1.8-1.3
	c0.1-0.2,0.2-0.3,0.4-0.3c0.5,0,1.5-0.1,2-0.3c0,0,0.1,0,0,0.1c-0.7,0.6-2.5,2.3-3.7,3.2c0,0-1,0.5-1.2,1.1c0,0-1.1,0.7-2.1,0.8
	c0,0-0.9-0.3-1.2,1c0,0-0.8,2.1,1.1,2.1c0,0,0,0.3-0.4,0.7c0,0-1.1,1.2-0.9,1.8c0,0-0.8,2.1,1.1,2.5c0,0-1.3-1.3-0.5-2.3
	c0,0,0.5,0.2,0.6-0.3c0,0,1.1,0.4,0.7-0.1c0,0-1.5-0.6,0.9-2c0,0,0.7-0.7,0.5-1.1c0,0,1.1-0.2,1.3-1.8c0,0,0.1-0.4,0.5,0.2
	c0,0,2.5,2.3,3.9,2.9c0,0,0.3-0.1-1.2-1.4c0,0-2.7-2.3-2.3-2.8c0,0,4-4.5,5.1-4.3c0.1,0,0.3,0,0.4,0c0.6-0.1,2.2-0.1,4.4,1.1
	c0,0,0.1,0,0.1-0.1c0-0.3,0-0.8,1-0.5c0.1,0,0.2,0,0.2-0.1c0.1-0.2,0.3-0.5,0.6,0.4c0,0,0.2-0.2,0.1-0.4c0,0,0.3,0.5,0.7,0.7
	c0,0-0.2-0.3-0.1-0.6c0,0,0.1-0.1,0.1,0c0.3,0.4,1.9,2.1,5.9,1.8c0.5,0,1,0.1,1.4,0.4c0.8,0.6,2.2,1.6,2.9,2.3c0,0,0.1,0,0.1,0
	c0.1-0.3,0.4-0.7,2,0.6c0.1,0.1,0.2,0.1,0.4,0.1C48,37.7,48.2,37.5,47.5,36.6z M7,26.5c0,0,0.7-1,1.1-0.2C8.1,26.3,7.9,26.8,7,26.5z
	 M10.5,9.2c-0.6,0-1-0.4-1-1c0-0.5,0.5-1,1-1c0.6,0,1,0.4,1,1C11.5,8.7,11,9.2,10.5,9.2z M19.7,38.4c0,0-1,1.4-1.1,1.7
	c0,0-1.7-0.4-1-1.5c0,0,0.8-0.2,1-0.7C18.7,37.9,20.1,37.5,19.7,38.4z"/>
</svg>
