<?xml version="1.0" encoding="utf-8"?>
<!-- Generator: Adobe Illustrator 19.1.0, SVG Export Plug-In . SVG Version: 6.00 Build 0)  -->
<svg version="1.1" id="Layer_1" xmlns="http://www.w3.org/2000/svg" xmlns:xlink="http://www.w3.org/1999/xlink" x="0px" y="0px"
	 viewBox="0 0 48 48" style="enable-background:new 0 0 48 48;" xml:space="preserve">
<style type="text/css">
	.st0{fill:#808080;}
</style>
<path class="st0" d="M48,15.6c0,0,0.2-0.4-0.4-0.5c-1,0.1-3.8,0.1-4.7-0.6c-1.8-1.4-5.1,0-7.1,4c-0.6,1.2-2,1.4-3.4,1.2
	c0,0-2.5-0.3-4-0.3c-1.2,0-2.3-0.9-3.1-1.8c0,0-3.2-3.4-4-5c0,0-1.5-2.5-4.8-3.6C16,8.8,15.5,8.6,15,8.3c-1.6-1-6-3.3-13.4-4
	c-0.1,0-0.1,0.1-0.1,0.1c0.1,0.3,0.6,1,1.5,1.4c0,0-2.1-0.4-2.9,0.1C0,6,0,6.1,0.1,6.1c0.4,0.2,1.4,0.6,1.6,1c0,0.1,0,0.2-0.1,0.2
	l-1.3,0c-0.1,0-0.1,0.1-0.1,0.2C0.2,7.6,0.7,7.9,1.6,8c0.1,0,0.1,0.1,0.1,0.1c0,0.1-0.4,0.4-0.8,0.5c-0.1,0-0.1,0.1,0,0.1
	c0.2,0.1,0.7,0.2,1,0.3C2,9.2,2,9.4,1.9,9.5c-0.2,0.2-0.3,0.5,0.8,1.3C2.9,10.9,3,11.1,3,11.2c0.1,0.4,0.3,1,1.2,1.4
	c0.2,0.1,0.4,0.3,0.4,0.6c0.1,0.5,0.3,1.2,1.1,1.3c0.1,0,0.2,0.1,0.3,0.2c0.4,0.7,2.2,3.4,4.4,3.7c0.1,0,0.2,0.1,0.1,0.2
	c-0.1,0.5-0.4,2,1,1.6c0,0,0.2,2.5,0.9,1.6c0,0,0.7,2.2,1.1,1.4c0,0,1,2.4,1.6,2c0,0,0.9,2.5,1.3,1.9l0.8,1c0.1,0.1,0.1,0.3,0.1,0.4
	c-0.1,0.3-0.3,0.8-0.3,1.2c0,0.2-0.3,0.4-0.5,0.3c-1.1-0.5-3.6-1.6-4.9-1.2c-0.1,0-0.1,0.1-0.1,0.1l0.1,0.5c0,0.1-0.1,0.2-0.2,0.2
	c-0.4,0-1.2,0.1-1.5,0.3c0,0-0.1,0.1,0,0.1c0.1,0.2,0.3,0.8,0.7,0.9c0,0-0.7,0.4-1.1,0.5c0,0-0.1,0.1-0.1,0.1c0,0.3,0.2,1,0.8,1.1
	c0,0-1.2,0.5-1.4,1c0,0,0.4,0.8,1.1,0.9c0,0-0.9,0.8-1.1,1.3c0,0.1,0,0.1,0,0.2c0.1,0.2,0.4,0.5,1.1,0.5L9.1,38c0,0.1,0,0.2,0.1,0.2
	c0.2,0.1,0.6,0.3,0.9,0.2c0,0-0.3,1.2-0.3,1.3l0,0c0,0,0.4,0.4,1.2,0.1c0,0-0.3,0.8-0.5,1.1c0,0,0,0.1,0,0.1c0.2,0,0.7-0.1,0.9-0.2
	c0.1,0,0.1,0.1,0.1,0.1l-0.1,0.6c0,0.1,0,0.1,0.1,0.1l0.6-0.2c0.1,0,0.1,0,0.2,0.1l0.1,0.7c0,0.1,0.1,0.1,0.1,0.1l0.8-0.2
	c0.1,0,0.2,0,0.2,0.1c0.1,0.2,0.1,0.6,0.2,0.8c0,0.1,0.1,0.1,0.1,0.1c0.3-0.1,0.9-0.4,1.2-0.6c0.1,0,0.1,0,0.2,0
	c0.1,0.3,0.4,0.8,0.5,1.1c0,0.1,0.1,0.1,0.1,0l1.2-1c0.1-0.1,0.2,0,0.2,0.1c0.1,0.4,0.3,1.1,0.6,1.1c0,0,0.9-0.6,0.9-0.9
	c0,0,0.5,0.9,0.9,0.9c0,0,1-0.8,1.1-1.4c0,0,0,0.8,0.7,0.9c0,0,0.8-0.4,1-1.6c0,0,0.9,0.7,1.2-1c0,0-0.3-2.6-0.9-3.8
	c-0.1-0.1,0-0.2,0.1-0.3c0.9-0.3,3.9-1.6,5.1-3c0.2-0.2,0.4-0.4,0.6-0.6c1.3-1.2,5.5-5.4,6.7-8.1c0.8-1.7,2.6-4.7,4.9-5.9
	c1.6-0.8,4.1-1.8,8-2.8c0.1,0,0.1-0.1,0.1-0.1c0-0.1-0.1-0.2-0.5-0.2C47.4,15.9,47.6,15.5,48,15.6z M40.9,15.3
	c-0.3,0.1-0.6,0-0.7-0.1c-0.1-0.2,0.1-0.4,0.4-0.5c0.3-0.1,0.6,0,0.7,0.1C41.4,15,41.2,15.2,40.9,15.3z"/>
</svg>
