<?xml version="1.0" encoding="utf-8"?>
<!-- Generator: Adobe Illustrator 19.1.0, SVG Export Plug-In . SVG Version: 6.00 Build 0)  -->
<svg version="1.1" id="Layer_1" xmlns="http://www.w3.org/2000/svg" xmlns:xlink="http://www.w3.org/1999/xlink" x="0px" y="0px"
	 viewBox="0 0 48 48" style="enable-background:new 0 0 48 48;" xml:space="preserve">
<style type="text/css">
	.st0{fill:#808080;}
</style>
<path class="st0" d="M23.9,47.9c0,0,0-0.8-0.9-0.8l-1.3,0c-0.1,0-0.3-0.1-0.4-0.2c-0.2-0.3-0.6-0.8-1.6-0.5c0,0-2,0.3-2.1-0.9
	c0,0-0.8-3-0.6-3.7c0,0,0-0.1,0.1-0.1c0.6-0.6,9.2-7.7,11.1-14.3c0.1-0.3,0.1-0.5,0.2-0.8c0.3-2.9,2.2-22.1,8.8-21.6
	c0,0,1,0.1,2.8,0.8c0,0,2.2,1.2,3.4,1.2c0,0,0.4,0,0.5,0.3c0,0,0.6-0.5-0.4-1.2c0,0-2-1.6-2.4-2c0,0-0.9-0.9-1.3-1.3
	c-0.1-0.1-0.2-0.3-0.3-0.4C39.2,1.8,38.1,0,35.1,0c-0.5,0-1,0.2-1.4,0.5C33,1,32.1,2,31.3,3.5C31.1,3.7,31,4,30.8,4.3
	c-0.9,1.3-4.8,8.9-7.4,11.4c-0.4,0.3-0.7,0.7-1,1.1L18,21.9c0,0-11.4,10.7-12.5,15.7c-0.1,0.2-0.2,0.4-0.3,0.6C4.7,38.5,4,39.3,4,40
	c0,0,0.6-0.4,1-0.7c0.1-0.1,0.2,0,0.2,0.1c-0.1,0.8-0.3,3.3,0.6,5c0.1,0.1,0.1,0.2,0,0.4c-0.1,0.6-0.7,2.5-1.4,2.6
	c0,0,1.3,0.3,1.5-0.2c0,0,1.7-1.7,2.2-2.3c0,0,0.7-1.2,3.2-1.2c0,0,2.3-0.1,3-0.4c0.1,0,0.2,0,0.2,0.1c0,0.7-0.1,2.9,0.1,3.3
	c0,0,0.1,0,0.1,0c0-0.1,0.1-0.4,0.4-0.2c0,0,0.1,0.1,0.1,0.1c0.1,0.2,0.5,0.8,1.7,0.8c0.1,0,0.1,0,0.2,0.1c0.1,0.1,0.5,0.4,1.8,0.3
	c0,0,0.1,0,0.1,0c0.5,0,4,0.3,4.5,0.1c0,0,0.4,0.1,0.4-0.2C23.7,47.7,23.9,47.9,23.9,47.9z M36.3,1.6c-0.3,0-0.5-0.2-0.5-0.4
	c0-0.2,0.2-0.4,0.5-0.4c0.3,0,0.5,0.2,0.5,0.4C36.7,1.4,36.5,1.6,36.3,1.6z"/>
</svg>
