<?xml version="1.0" encoding="utf-8"?>
<!-- Generator: Adobe Illustrator 19.1.0, SVG Export Plug-In . SVG Version: 6.00 Build 0)  -->
<svg version="1.1" id="Layer_1" xmlns="http://www.w3.org/2000/svg" xmlns:xlink="http://www.w3.org/1999/xlink" x="0px" y="0px"
	 viewBox="0 0 48 48" style="enable-background:new 0 0 48 48;" xml:space="preserve">
<style type="text/css">
	.st0{fill:#808080;}
</style>
<path class="st0" d="M46.3,38.6c-0.1-0.1-0.2-0.2-0.2-0.3c-0.3-0.3-1.3-1.4-3-1.1c0,0-3.1,0.5-6.3-0.9c-0.4-0.2-0.8-0.4-1.1-0.6
	c-1.4-0.9-7.7-4.2-15-0.6c-0.3,0.1-0.6,0.2-0.9,0.3c-0.8,0.1-2.8,0.5-4.6,1.9c-0.3,0.2-0.6,0.3-0.9,0.3l-3.2,0.1
	c-0.2,0-0.4-0.1-0.6-0.2c-0.2-0.2-0.5-0.4-0.7-0.6c-0.2-0.1-0.2-0.4-0.1-0.5c0.2-0.4,0.7-1,1-1.4c0.1-0.1,0.2-0.2,0.3-0.4
	c0.2-0.2,0.7-0.9,0.2-2.5c0,0-1.1-3.6-0.3-6.3c0.2-0.6,0.5-1.2,1-1.6c1.7-1.4,6.8-5.7,8.3-7.7c0.1-0.2,0.3-0.4,0.4-0.5
	c0.9-1,3.8-4.7,1.4-8.1C22.1,7.8,22,7.6,22,7.4c-0.5-1.1-2.9-5.2-9.2-5.1c-0.3,0-0.6,0.1-0.9,0.2c-0.5,0.2-0.9,0.7-0.7,1.4
	c0,0-0.8,0.3-0.9,1.5c0,0,0,0.4-0.4,0.7c0,0,0.2,0,0.5-0.7l0.2,1.2c0,0-0.1-2.1,0.8-2.4c0,0,0.1,0.9,2.9,2.1
	c0.7,0.3,1.3,0.8,1.7,1.4C15.9,8,16,8.1,16.1,8.2c0.3,0.4,0.2,1,0,1.4c-0.7,1.2-2.6,4-6.5,7.6c0,0-4.8,4.4-5,13.8
	c0,0.5-0.3,1-0.7,1.4c-1,0.8-2.7,2.5-1.6,5.4c0.2,0.5,0.1,1-0.3,1.4c-0.9,0.9-2.4,2.6-2,3.6c0,0,0.1,1.5,1.7,1.7
	c0,0,3.6,0.4,5.7,0.5c0.7,0,1.5,0.1,2.2,0.3c0.9,0.2,2.5,0.4,4.7,0.4l19.3-0.5c0,0,12.2-0.2,13.4-1.3c0,0,0.1-0.1,0.1-0.1
	C47.4,43.5,49.3,41.8,46.3,38.6z M14.9,4c-0.3,0-0.5-0.2-0.5-0.4c0-0.2,0.2-0.4,0.5-0.4c0.3,0,0.5,0.2,0.5,0.4
	C15.4,3.8,15.2,4,14.9,4z"/>
</svg>
