<?xml version="1.0" encoding="utf-8"?>
<!-- Generator: Adobe Illustrator 19.1.0, SVG Export Plug-In . SVG Version: 6.00 Build 0)  -->
<svg version="1.1" id="Layer_1" xmlns="http://www.w3.org/2000/svg" xmlns:xlink="http://www.w3.org/1999/xlink" x="0px" y="0px"
	 viewBox="0 0 48 48" style="enable-background:new 0 0 48 48;" xml:space="preserve">
<style type="text/css">
	.st0{fill:#808080;}
</style>
<path class="st0" d="M45.8,11.6c0,0-1.7,0-2.2-0.1c-0.1,0-0.1,0-0.2-0.1c-0.3-0.2-1.2-0.8-1.9-0.7c0,0-0.5-0.2-0.6,0.1
	c0,0-0.3,0.3-0.5,0.1c0,0-0.3-0.4-0.6-0.3c-0.1,0-0.2,0.1-0.2,0.1c-0.4,1-4.6,10.1-9.5,5.4c0,0-2.6-4.9-6.7-5.2
	c-0.7-0.1-1.4-0.3-2-0.7c-0.6-0.4-1.2-1-1.5-1.3c-0.1-0.1-0.2-0.2-0.3-0.4c-0.7-0.7-3.3-3-6.1-1.2c-0.5,0.3-0.9,0.7-1.2,1.2
	c-0.5,0.7-1.8,2-5.3,3.5c0,0-0.1,0-0.1,0.1c-0.3,0.1-1.8,0.7-2.7,2.5c0,0.1-0.1,0.1-0.2,0.2c-0.4,0.2-1.5,1.1-1.7,6.1
	c0,0-0.1,6.4-2.1,10.5c0,0.1-0.1,0.1-0.1,0.2c-0.1,0.1-0.2,0.4,0,0.8c0.1,0.2,0.2,0.3,0.2,0.5c0.3,1.4,1.4,6.3,1.3,7.2
	c0,0,0,0.3,0.2,0.4c0.1,0,0.1,0.1,0.1,0.2c-0.1,0.3-0.2,0.9,0.2,0.8c0,0,2.6,0.1,3.1,0c0.1,0,0.1-0.1,0.1-0.1
	C5.2,41,5,40.7,4.1,40.6c0,0,0,0,0,0c-0.1,0-1.5-0.4-1.7-3.1c0,0-0.6-5.3,1-7.7c0.1-0.2,0.2-0.4,0.3-0.7c0.2-0.6,0.7-1.7,1.4-2
	c0,0,0.4-0.3,0.4-0.8c0,0,0-0.1,0.1-0.1c0.2-0.2,0.7-0.7,0.6-1.5c0,0,0-0.1,0-0.1l0.2-0.5c0,0,0.1,0,0.1,0c0.3,0.6,1.5,3.7-0.6,7.2
	c0,0-0.3,0.4,0.2,1c0,0,0.1,0.1,0.1,0.1c0.3,0.5,3.4,5.2,3.6,6.4c0,0,0.2,0.5,0.3,0.7c0,0.1,0.1,0.1,0.1,0.2c-0.1,0.3-0.2,1,0.1,1.1
	c0,0,1.9,1,2.6,0.4c0.2-0.2,0.2-0.4,0-0.6c-0.1-0.1-0.3-0.3-0.7-0.4c-0.1,0-0.1-0.1-0.2-0.1c-0.2-0.2-0.5-0.6-0.7-1c0,0,0,0,0-0.1
	c0-0.1-0.1-0.5-0.4-0.8c0,0-0.1-0.1-0.1-0.1c-0.3-0.6-2.6-5-2.1-6.8c0,0,1-3.7,2.5-5c0,0,0.3-0.1,0.4-1c0,0,0.5-0.7,0.7-1.2
	c0.1-0.2,0.3-0.3,0.4-0.2c1.3,0.5,6.1,2.1,9.3,2c0.3,0,0.5,0.2,0.5,0.5c0,0,0,0,0,0c0,0.5,1,6.1-0.6,7.8c0,0-3.4,3.2-3.8,3.2
	c0,0-0.6,0.1-0.8-0.1c-0.1-0.1-0.3-0.2-0.5-0.2c-0.1,0.1-0.3,0.2-0.5,0.5c0,0-1,1.8-0.3,2.6c0.1,0.1,0.2,0.1,0.3,0.1
	c0.2-0.1,0.5-0.3,0.7-0.8c0,0,0.1-0.6,1.3-0.7c0,0,0.8-0.2,1.1-0.7c0,0,0-0.1,0.1-0.1c0.4-0.4,2.5-2.7,4-3.1c0.1,0,0.3,0,0.3,0.2
	c0,0,0,0,0,0c0.1,0.2,0.7,3.8,0.6,4.5c0,0-0.1,0.2,0.1,0.3c0,0,0.6,0.5-0.1,1c0,0-0.3,0.3,0,0.3c0.3,0.1,2.9,0,3.6,0.1
	c0.1,0,0.2-0.1,0.2-0.1c0-0.3-0.1-0.7-0.4-0.7c0,0-1.5-0.1-2-1.8c0,0-1.1-3.8-0.4-5c0,0,0.3-0.6,0-1.5c-0.1-0.2-0.1-0.4-0.2-0.7
	c-0.2-1.7-0.7-8.1,3.9-8.4c0.1,0,0.2,0,0.2,0c0.5,0.1,3,0.4,4.3-0.2c0,0,5.2-2,6.8-5.6c0,0,2.1-3.2,6.3-2.6c0,0,0,0,0.1,0
	c0.2,0,1.1-0.1,0.4-0.6c0,0-0.1-0.1,0-0.1c0,0,0.5,0.1,0.5-0.1C48,13.9,47.6,11.7,45.8,11.6z M43.8,12.8c-0.3,0-0.5-0.2-0.5-0.4
	s0.2-0.4,0.5-0.4c0.3,0,0.5,0.2,0.5,0.4S44.1,12.8,43.8,12.8z"/>
</svg>
