<?xml version="1.0" encoding="utf-8"?>
<!-- Generator: Adobe Illustrator 19.1.0, SVG Export Plug-In . SVG Version: 6.00 Build 0)  -->
<svg version="1.1" id="Layer_1" xmlns="http://www.w3.org/2000/svg" xmlns:xlink="http://www.w3.org/1999/xlink" x="0px" y="0px"
	 viewBox="0 0 48 48" style="enable-background:new 0 0 48 48;" xml:space="preserve">
<style type="text/css">
	.st0{fill:#808080;}
</style>
<path class="st0" d="M47.1,17.9c0,0,1.7-6.6-10.9-4.6l0,0c0,0-6.6,1.8-10.2-1.2c0,0-2-1.6-5.7-0.1c-0.7,0.3-1.4,0.7-2,1.2
	c-0.9,0.7-3.4,1.9-6.4-0.4l0,0c0,0,3.5-1.4,2.5-3.9l0,0c0,0-0.9,1.3-2,1.4l0,0c0,0-1.1,0.6-1.2,1c0,0,0.1-0.7,0.7-1.3
	C12,10,12,9.9,12,9.9c0-0.1,0.1-0.3,0.1-0.4c0-0.1,0.1-0.2,0.1-0.3c0.3-0.2,0.9-0.8,1.2-0.9c0.1-0.1,0.2-0.1,0.2-0.2
	c0.4-0.8,2.1-4.4,4.3-6.2c0,0,0-0.2-0.2,0c0,0-3.6,2.2-5,4.8c0,0.1-0.1,0.1-0.1,0.2c-0.3,0.3-1.1,1-1.7,1.4c0,0-0.1,0-0.1,0.1
	c-0.1,0.1-0.4,0.5-0.6,1.1c0,0,0,0.1-0.1,0.1c-0.1,0.2-0.4,0.7-0.7,0.9l0,0c0,0-1.5-0.3-2.2-0.1c-0.1,0-0.2-0.1-0.2-0.2
	c0.1-0.4,0.3-1.2-0.3-2.3c0,0-0.5-0.6,0-1.7l0,0c0,0-0.6-5-1.9-6l0,0c0,0,1.7,4.7,0,6.9l0,0c0,0,0.7,2.1,0.2,2.3l0,0
	c0,0,0.3,1-0.2,1.2c0,0-0.4,0.5,0.4,0.7c0,0,0.1,0.3-0.7-0.2c0,0-1.1-0.7-2.9-1.2l0,0c0,0-0.9-0.6-1-0.9l0,0c0,0-0.6,1.4,3.8,4l0,0
	c0,0,1.1,4.5,0.2,6c0,0-1,2.6,1.5,2.8h0c0,0,1.2,0,1.9-1.6l0,0c0,0,1.9,1.2,1.4,4.6l0,0c0,0,1.1,3.8,1.8,4l0,0c0,0,0.1-2.8,3.3-1.7
	l0,0c0,0,1.9,4.2,3.9,4.9l0,0c0,0,1.1,3,0.8,4.3l0,0c0,0,0,1.5,0.6,2.1l0,0c0,0-0.1,5.4-1.6,6.3c0,0-1.4,1.4-0.9,1.7
	c0,0,2.4,0.6,2.9-0.7c0,0,0.1-1.3,0.6-1.1c0,0,0.2,0.2,0.3-0.2l0.1-0.4l0,0c0,0,0.1-6.6,0.5-7.1l0,0c0,0,0.5-3.9,0.4-4
	c0,0,0.3,3.3-0.1,3.7c0,0-0.3,1,0.4,2.2l0,0c0,0,0.1,6.3-0.8,7.4l0,0c0,0-0.4,0.3,0,0.2c0,0-1.4,1.6-0.2,1.4c0,0,0.5,0.9,2.7-0.2
	l0,0c0,0,0.4-0.3,0.4-0.9c0,0-0.4-1.8,0-1.6c0,0,0.3-0.2,0-0.8l0,0c0,0-1-5.1,0.4-8.7l0,0l1.5-6l0,0c0,0,9.1,0.8,10.3-2.1l0,0
	c0,0,4.8,5.9,4.7,7.9c0,0,0,4.3-1.9,6.1c0,0-0.3,0.1-0.1,0.2c0,0-1,1.1-0.8,1.3l0,0c0,0,1.8,0.6,2.6-0.4c0,0,0.4-1.4,0.7-0.9
	c0,0,0.3,0.4,0.4-0.5s0.8-6.3,1-6.3c0.2-0.1,1.6,5.4-0.7,8.5c0,0-0.2,0.3-0.1,0.4l0,0c0,0-1.2,2.2,0.4,0.9l0,0c0,0-0.4,0.7,1.2,0.4
	c0,0,0.8,0,0.8-0.9c0-0.9,0-1.2,0.2-1.2c0,0,0.4,0.2,0.3-0.4s-0.9-7.5,0.1-9.3v0c0,0,0.4-0.9-0.2-1.5l0,0c0,0-1.2-2.4,0.4-7.4l0,0
	c0,0,0.3,2.9-0.1,4.2l0,0c0,0,0,4.8,0.8,5.5l0,0c0,0,0.8-2.9,1-3.4c0.2-0.5-0.1-2.5-0.7-3.5C46.1,25.9,46.7,18.1,47.1,17.9
	L47.1,17.9z"/>
</svg>
