<?xml version="1.0" encoding="utf-8"?>
<!-- Generator: Adobe Illustrator 19.1.0, SVG Export Plug-In . SVG Version: 6.00 Build 0)  -->
<svg version="1.1" id="Layer_1" xmlns="http://www.w3.org/2000/svg" xmlns:xlink="http://www.w3.org/1999/xlink" x="0px" y="0px"
	 viewBox="0 0 48 48" style="enable-background:new 0 0 48 48;" xml:space="preserve">
<style type="text/css">
	.st0{fill:#808080;}
</style>
<path class="st0" d="M45.5,6.8c0,0-8.6,4.2-9.3,4.3c-0.7,0.1-2.8-0.8-8.7,2.9c-0.6,0.4-1.3,0.6-2,0.7c-0.2,0-0.4,0-0.7,0
	c-0.7,0-1.4-0.3-1.9-0.8c-0.4-0.4-1.4-0.9-2.7-0.5c-0.4,0.1-0.8,0.1-1.1-0.1l-0.8-0.3c0,0,1.9-3.8-2.2-2.6c-0.1,0-0.1,0-0.2,0
	c-0.3-0.1-1.3-0.4-2.2-0.2c-0.1,0-0.3,0-0.4-0.1c-0.6-0.4-2.7-1.4-2,1.9c0,0.1,0,0.2,0,0.2c-0.2,0.3-0.8,1.5-0.5,3.4
	c0,0.1,0,0.2,0,0.3c-0.2,0.3-0.6,1.2,0.3,1.5c0.1,0,0.1,0.1,0.1,0.1c0.2,0.3,0.9,1.3,2.4,0.3c0,0,0.1,0,0.1-0.1
	c0.3-0.1,1.4-0.3,1.4,1.3c0,0.2-0.1,0.4-0.2,0.5c-0.4,0.6-1.7,2.5-2,4.1c-0.1,0.3-0.2,0.5-0.5,0.6c-1.3,0.6-5,2.2-6.4,2.7
	c0,0-0.1,0-0.1,0c-0.2,0.1-1.3,0.7-1.6,1c0,0-1.9,2-3,2.7c-0.1,0-0.1,0.1-0.2,0.1c-0.3,0.2-0.9,0.8-0.9,1.1c0,0-0.6,1.4,0.3,1.7
	c0,0,2.1,0.8,2.5-0.3c0,0,0.3-0.2,0.6-0.4c0.2-0.1,0.3-0.3,0.3-0.5c0.1-0.4,0.3-1.1,1-1.6l0.6-0.7c0,0,0.5,0.3,0.7-0.5
	c0,0,6.6-2.4,8.2-2.4c0.1,0,0.2,0.2,0.1,0.3c-0.6,0.8-2.9,3.5-3.9,4.3c0,0-0.9,0.9-1.1,2.2c0,0,0,0.1,0,0.1c0,0.2,0,0.7-0.2,1.1
	c0,0.1-0.1,0.1-0.1,0.2c-0.2,0.4-0.9,2.6-1,3c0,0-0.8,1.1,0.6,2.5L9,41c0,0,0.5,0.6,0.8,0.2c0,0,0.7,0.5,1.2-0.4c0,0,0.9,0.2,1.2-1
	c0,0-0.1-0.8,0-1.4c0-0.1,0-0.2,0-0.3c0-0.1-0.1-0.1-0.1-0.2c-0.1-0.1-0.6-2.8,3.3-5.8c0,0,4-3.9,4.9-4.4c0,0,1-0.5,1.4-1.3
	c0.4-0.8,0.9-0.7,1.1-0.7c0,0,7-0.4,11.7-6.8c0.1-0.2,0.3-0.3,0.5-0.3c0.9-0.1,3.6-0.3,4.9-0.5c0.5-0.1,0.9,0.2,1.1,0.6
	c0.2,0.5,0.5,1.3,0.6,2.5c0,0,0.1,1.2,0.8,1.2c0,0,0.4,0.3,0.8,0.2c0,0-0.2,0-0.2,0c0,0,0.2-0.1,0.4-0.1c0,0,0,0,0,0
	c0.2,0.1,0.3,0,0.3,0s-0.2,0-0.1-0.1c0,0,0.8,0.1,0.4-0.7c0,0-1.9-3-1.9-4.4c0,0,1.1-0.6,1.7-0.9c0.1-0.1,0.3-0.1,0.4,0.1
	c0.4,0.6,1.7,2.3,2.9,1.9c0.1,0,0.2-0.1,0.3-0.1c0.4-0.3,1.4-1.4-0.1-1.9c-0.1,0-0.1-0.1-0.2-0.1c-0.2-0.1-0.5-0.2-0.5-0.1
	c-0.1,0.1,0.4,0.4,0.4,0.4s0.2,0.8-0.3,0.5c-0.1,0-0.1-0.1-0.2-0.1c-0.3-0.5-1.8-2.8-2-2.9c0,0-0.1-0.4-0.8-0.1c0,0-1.4,0.7-3.6-1.2
	c-0.1-0.1-0.2-0.2-0.3-0.2c-0.3-0.1-0.9-0.3-1.3-0.4c-0.1,0-0.1-0.2,0-0.2c1.1-0.6,5.9-3.3,6.1-3.5c0,0,2-1.1,2.2-0.2
	c0,0,0.6,1-0.5,1.2c0,0-1.2,0-1.2,0.7c0,0.1,0.2,0.5,1.4,0.2c0,0,1.6-0.1,1.6-1.6S46.8,6.3,45.5,6.8z"/>
</svg>
