<?xml version="1.0" encoding="utf-8"?>
<!-- Generator: Adobe Illustrator 19.1.0, SVG Export Plug-In . SVG Version: 6.00 Build 0)  -->
<svg version="1.1" id="Layer_1" xmlns="http://www.w3.org/2000/svg" xmlns:xlink="http://www.w3.org/1999/xlink" x="0px" y="0px"
	 viewBox="0 0 48 48" style="enable-background:new 0 0 48 48;" xml:space="preserve">
<style type="text/css">
	.st0{fill:#808080;}
</style>
<path class="st0" d="M48,14.5c0,0-1-1.8-1.5-2c0,0,4-3.2-1.3-6c0,0-0.2,0.1,0,0.3c0,0,2.3,1.8,1.2,3.6c0,0-0.8,2-4-0.9
	c0,0-2.2-3.2-3.8-1.7c0,0-1.3-1.3-3.7,0.9c0,0-4-0.2-4.5-0.7c0,0,0.7-1.5,1.6-1.9c0,0,0.1-0.5-0.4-0.2c0,0-1.6,0.7-2.2,1.8
	c-0.1,0.1-0.2,0.2-0.4,0.2c-0.9,0-3.8,0-5.6,1.3c0,0-0.7,1-7.9,0.1c-0.4-0.1-0.8-0.1-1.2,0c-0.8,0.1-2.5,0.1-3.7-0.4
	c-0.2-0.1-0.4-0.1-0.7-0.1c-0.5,0-1.5,0.1-2.4,1c0,0-5.7,2-5.6,8.5c0,0.3,0,0.6,0,0.8c0,1.2-0.1,4.5,0,5.6c0,0.2,0,0.3,0.1,0.5
	c0.2,0.6,0.6,2.8-1.3,4c0,0-0.1,0.1-0.1,0.1c-0.2,0.1-0.6,0.4-0.5,1.5c0,0,0.9,9.2,0.8,9.5c0,0,0,0.7,0.6,0.1c0,0,0.5-0.3,0.4,0.7
	c0,0-0.5,0.5,0.1,0.8c0,0,2.3,0.8,3,0.5c0.1-0.1,0.1-0.2,0.1-0.3c-0.2-0.3-0.7-1-0.9-1.1c0,0-0.1-0.6-0.3-0.9
	c-0.3-0.3-1.5-3.1-0.1-7.1c0-0.1,0.1-0.1,0.1-0.2C4.1,32.1,5.4,30,5.5,29c0,0,1.8-4.2,1.8-2c0,0-0.6,1.9-1,2.4c0,0-0.4,0.6,0,1.6
	c0.4,1,2.6,7.5,2.7,8.3c0,0,0,0.5,0.4,0c0,0,0.1,0.8,0.4,0.2c0,0-0.4,1.1,3.2,1.2c0,0,0.4,0,0.1-0.4c0,0-0.8-1-0.9-1.3
	c0,0-0.5-0.8-1-1.2c-0.5-0.4-2.1-4.7-0.8-7.2c0,0,1.4-3,1.6-4c0-0.1,0.1-0.1,0.2-0.1c0.9,0.7,5.1,3.3,13.1,0.8c0,0,0.8-0.1,1.1,0.9
	c0,0,1.3,5.6,1.4,6.1c0,0-0.1,3.3-0.7,4.2c0,0-0.3,0.9,0.6,0.2c0,0,0.5-0.1,0.2,0.9c0,0-0.4,1.2,1.1,1.2c0,0,0.2,0.7,1,0.7
	c0,0,1.9,0.2,2.2-0.1c0,0,0.9,0.1,0.7-0.2c-0.1-0.2-0.1-0.2,0-0.1c-0.2-0.4-0.6-1.3-0.7-1.5c0,0-2-1.6-1.5-5.5c0,0-0.2-3.3,2.3-7.4
	c0,0,1-0.5,3.1-4.2c0,0,2.4-1.7,3.5-4c0,0,0.7-1.2,1.3-1.5c0,0,0.8-0.5,0.6-2.4c0,0,0.2-0.7,1-0.4c0,0,0.4,2,4.1,0.5
	c0,0,0.1,0,0.1,0c0.2,0,0.8-0.1,1.2,0.1C47.8,14.8,48.1,14.8,48,14.5z M35.8,11.5c-0.2,0-0.3-0.1-0.3-0.2c0-0.1,0.1-0.2,0.3-0.2
	s0.3,0.1,0.3,0.2C36.1,11.4,35.9,11.5,35.8,11.5z M41.3,11.7c-0.2,0-0.3-0.1-0.3-0.2s0.2-0.2,0.3-0.2c0.2,0,0.3,0.1,0.3,0.2
	S41.5,11.7,41.3,11.7z M43.1,12.3l-0.5-0.6c0.2-0.1,1,0.6,1,0.6H43.1z"/>
</svg>
