<?xml version="1.0" encoding="utf-8"?>
<!-- Generator: Adobe Illustrator 19.1.0, SVG Export Plug-In . SVG Version: 6.00 Build 0)  -->
<svg version="1.1" id="Layer_1" xmlns="http://www.w3.org/2000/svg" xmlns:xlink="http://www.w3.org/1999/xlink" x="0px" y="0px"
	 viewBox="0 0 48 48" style="enable-background:new 0 0 48 48;" xml:space="preserve">
<style type="text/css">
	.st0{fill:#808080;}
</style>
<path class="st0" d="M47.9,24c0,0,1.1-11.1-4-13.3c0,0-5.1-2.7-9.6-1.1c0,0-0.1,0-0.1,0.1c-0.2,0.1-0.9,0.4-2.8,0.4c0,0-0.1,0-0.1,0
	c-0.5,0-3.9,0.2-4.7,0.5c0,0-1.1,0.6-3.5-1c-0.2-0.1-0.4-0.3-0.6-0.5c-0.7-0.8-3-3-6.6-0.3c0,0-4.8,2.2-7.3-1.3c0,0-1.1-2.1-3.1-0.8
	c0,0-1.3,1.4-1.9,1.6c0,0-1.2,0.5-1,1.3c0,0-1.2,0.3-1.7,1c0,0-2.2,2,1.2,2.4c0,0-0.5,1.3-1,1.6c0,0-1.3,0.6-0.8,1.8
	c0,0,0.4,0.8,1.2,0.6c0,0,0.1,0,0.1,0c0.2,0.2,1.2,1,1.8,0c0,0,0,0,0.1-0.1c0.1,0,0.5-0.1,0.7-0.5c0,0,0-0.1,0.1-0.1
	c0.1,0,0.1,0,0.2,0c0,0,0.7,1,0.8,2.3c0,0.1,0,0.1,0,0.2c0.1,0.2,0.3,0.9,1.1,1.6c0.1,0.1,0.1,0.1,0.1,0.2c0,0.3,0,1.1,0.6,1.4
	C7,22.2,7.1,22.4,7,22.6c-0.3,1-0.8,3.5,1.6,2.8c0,0,0.3-0.1,0.4,0.3c0,0-0.3,1.2,1,1.2c0.1,0,0.2,0,0.4,0.1
	c0.4,0.3,1.6,1.1,2.2,0.5c0,0,0.2-0.2,0.5,0.1c0.3,0.3,0.4,0.5,0.5,1c0,0.1,0,0.1,0,0.2c0.1,0.3,0.5,1,1.1,0.9c0,0,0.2-0.1,0.4,0
	c0.2,0.1,0.5-0.3,0.6-0.6c0.1-0.3,0.1,1.7,0,2.3c0,0.1,0,0.2,0,0.3c0.2,0.8,1.2,4.6,0,6.6c0,0-1,1.1-1.1,1.1c0,0-0.1,0.8,2.1,0.6
	c0,0,1,0.3,1.2-0.9c0,0,0-0.1,0-0.1c0.1-0.2,0.4-0.7,0.5-0.6c0,0,0.4,0.3,0.4-0.1l0,0c0.1,0,0.2-0.2,0.2-0.3c0-0.1,0-0.2-0.1-0.4
	c0,0,0.2-0.7-0.2-1.3c0,0-0.6-3.3,0.6-5.5c0,0,0.1-1.5,0-2c0,0,0.5-0.6,0.9-0.9c0.1-0.1,0.3,0,0.3,0.2c0,0.7,0.1,2.3,0.4,2.8
	c0,0,1.2,4.4-0.2,6.2c0,0,0.1,0.3,0,0.3c0,0-1.1,0.8-0.6,1.3c0,0,1.8,0.4,2.8-0.1c0,0,0.1-0.3,0.1-0.5c0-0.1,0.4-0.1,0.4-0.7
	c0,0,0.2-0.3,0.4-0.1c0,0,0.6,0.2,0.2-0.8c0,0-0.7-3.8,0.2-5.7c0,0,0.1-3,0.6-3.3c0,0,0.5-0.1,1,0.4s3.3,3.7,4.8,3.3
	c0,0,5.1-3.7,6-2.9c0,0-0.1,1.2,0.9,0.1c0,0,0.1-0.1,0.1,0.1c0,0,0.1,0.9,0.6,0.5c0,0,0.4,0.1,0.7-0.4c0,0,0.1-0.1,0.1,0
	c0,0,0.4,0.6,0.7,0.1c0.3-0.5,4.4,5.9,2.1,9.2c0,0-1.4,1.2-0.6,1.4c0,0,1.8,0.2,2,0.1c0,0-0.2,0.5-0.1,0.6c0,0-1.3,1.5-0.2,1.7
	c0,0,2.7,0.4,2.6-0.8c0,0,0.2-1.1,0.6-1.1c0,0,0.4-0.1,0.3-0.2c0,0,0.8-0.1,0.2-0.8c0,0,0.7,0.3,0.9-1.1c0.1-1.4,0.2-4,0.4-4.5
	c0,0,0.2-0.8-0.2-1.6C47.7,31.6,48,24.9,47.9,24z M46.6,27.3c0.1,0.2,0.1,0.4,0.1,0.4s-1.5,4.6-1.4,5.3c0.1,0.7,1,5.8,1,5.8L46,38.6
	c0,0-0.9-5.6-0.8-5.9C45.1,32.4,46.5,27.2,46.6,27.3c-1.5-2.1,0.2-5.5,0.2-5.5C47.4,23.9,46.6,27.3,46.6,27.3z"/>
</svg>
