<?xml version="1.0" encoding="utf-8"?>
<!-- Generator: Adobe Illustrator 19.1.0, SVG Export Plug-In . SVG Version: 6.00 Build 0)  -->
<svg version="1.1" id="Layer_1" xmlns="http://www.w3.org/2000/svg" xmlns:xlink="http://www.w3.org/1999/xlink" x="0px" y="0px"
	 viewBox="0 0 48 48" style="enable-background:new 0 0 48 48;" xml:space="preserve">
<style type="text/css">
	.st0{fill:#808080;}
</style>
<path class="st0" d="M42.5,8.3c0,0-2.1-1.5-2.6-2.4c-0.1-0.1-0.2-0.2-0.4-0.3c-0.6-0.1-1.9-0.5-3.9-3.4c0,0-2-2.9-3-2.2
	c0,0-0.2,1.5,0.1,2.3c0,0.1-0.1,0.2-0.2,0.2c-0.5-0.2-1.3-0.6-1.7-1.2c0,0-1-0.5-0.4,0.3c0.2,0.4,0.4,0.7,0.6,1.1
	c0.4,0.9,1.2,2.3,2.3,2.9c0.2,0.1,0.2,0.3,0.2,0.5c-0.3,0.8-0.9,2.6-0.6,4.3c0.2,0.9-0.1,1.8-0.7,2.5c-0.6,0.7-1.5,1.5-3,2.6
	c-1,0.7-2.1,1.3-3.2,1.8c-2.3,1-7.5,4-9.8,11.4c-0.3,1.1-0.6,2.3-0.6,3.5c-0.1,1.8-0.5,5.2-1.1,7.7c-0.4,1.4-1.4,2.6-2.7,3.2
	c-1.3,0.6-3.3,1-5.8,0.4c-0.5-0.1-1.1,0.2-1.2,0.8c-0.3,1.3,0,3.3,5.1,2.5c0.3-0.1,0.7-0.1,1-0.1c1.4-0.1,5.8-0.9,9.1-8.3
	c0.1-0.2,0.3-0.2,0.4-0.1c0.4,0.3,1,0.9,1.6,0.9c0.2,0,0.3,0.1,0.3,0.3c0,0.9-0.2,3.3-1,6.1c0,0-0.9,1.8,1.8,1.8
	c0,0-0.1,0.6,2.8-0.1c0.2-0.1,0.5-0.1,0.7-0.1c0.7,0,2.3-0.1,2.6,0.1c0,0,0.5,0.7,1.8,0.5c0.2,0,0.4,0,0.5,0
	c0.8,0.2,3.1,0.7,2.9-0.1c0,0,0.3,0,0.6,0.2c0,0,0-0.8-0.8-1c0,0,5.9,0.3,6-0.1c0,0,0.3-0.1,0.6,0.1c0,0-0.3-1.2-1.8-1.2
	c0,0-1.9,0-2.3-0.5c0,0-0.4-0.3-1.4-0.2c0,0-1.6-0.5-5.1-0.5c-0.3,0-0.6-0.2-0.7-0.5c-0.4-1.1-1-4.2,0.8-10c0.3-1,0.8-1.9,1.5-2.6
	c1.5-1.7,4.4-5.3,5.7-8.3c0.1-0.3,0.5-0.4,0.7-0.2c0.6,0.5,1.7,1.4,1.7,2.2c0,0,0,1.2,0.8,1.7c0.5,0.3,0.7,0.8,0.7,1.2
	c0,0,0.1,0,0.2-0.2c0,0,0.1-0.2,0.1,0.5c0,0,0,0,0.1,0c0.1-0.1,0.1-0.3,0.3-0.7c0-0.2,0.2,0.1,0.2,0.1c0.2-0.3,0.2-0.8-0.1-1.2
	c-0.2-0.3-0.7-1.2-0.7-2.3c-0.4-0.7-3.4-4-3.3-4.8c0-0.1,0-0.2,0-0.2c-0.1-0.5-0.2-2.4,0.3-3.5c0,0,0.3-1.4-0.3-4.2
	c0-0.2,0-0.4,0.2-0.5c0.3-0.2,1-0.3,2.3,0.1c0,0,2.5,0.7,2.7-1.2C43.2,10,44,9.3,42.5,8.3z M26.4,38.5c-0.3,2.5-1.2,6.7-1.2,6.7
	c-2.2-3.2,0.7-9.6,0.7-9.6C26.9,36.2,26.4,38.5,26.4,38.5z M39.2,7c0,0,0.6-0.8,1-0.1C40.1,6.9,39.7,8,39.2,7z"/>
</svg>
