<?xml version="1.0" encoding="utf-8"?>
<!-- Generator: Adobe Illustrator 19.1.0, SVG Export Plug-In . SVG Version: 6.00 Build 0)  -->
<svg version="1.1" id="Layer_1" xmlns="http://www.w3.org/2000/svg" xmlns:xlink="http://www.w3.org/1999/xlink" x="0px" y="0px"
	 viewBox="0 0 48 48" style="enable-background:new 0 0 48 48;" xml:space="preserve">
<style type="text/css">
	.st0{fill:#808080;}
</style>
<path class="st0" d="M45.5,1.2c-0.1,0-0.1,0-0.2,0c-0.3,0-1.3,0-1.5-0.3c0,0-0.1-0.1-0.1-0.1c-0.5-0.4-3.1-2-3.6,0.9
	c0,0,0,0.1,0,0.1c0,0.7-0.3,6.6-0.6,8c-0.2,1.1-0.2,2.9-0.1,4c0.1,0.9-0.1,1.8-0.6,2.6c-0.7,1.1-1.9,2.3-4.2,1.8
	C34,18,33.4,17.6,33,17c-0.4-0.5-1.1-1.1-2.7-1.2c-0.7,0-1.3-0.2-1.9-0.4c-1.7-0.6-6.4-1.2-15.4,4.7c-0.7,0.4-1.4,0.7-2.2,0.9
	c-3,0.6-10.8,2.5-7.9,5.9c0.1,0.1,0.2,0.2,0.3,0.3c0.2,0.3,1.1,0.9,5.4-0.4c0.7-0.2,1.4-0.3,2.1-0.3c1.8,0.1,4.9,0.4,6.4,1.8
	c0.3,0.3,0.4,0.7,0.3,1c-0.3,1.4-0.9,5.3,1.4,4.9c0,0,0.1-1.4,0.6-1.2c0.1,0,0.2,0.1,0.2,0.3c0,0.3,0.2,1,0.5,1.3
	c0.2,0.2,0.5,0,0.5-0.2c0-0.4,0-1-0.3-1.6c0-0.1,0-0.1,0-0.1s2.1-2.5,3.6-1.9c0,0-1.4,3-0.7,5c0.1,0.4,0.2,0.8,0.2,1.2
	c0,2.1,0,7.9,0,8.3c0,0,0,0,0,0c0,0.2,0.2,1.1,1.1,1.2c0.1,0,0.1,0,0.2,0c0.1-0.1,0.5-0.1,0.6,0.1c0.1,0.1,0.1,0.1,0.2,0.1
	c0.5,0.1,2,0.3,2.9-0.9c0-0.1,0.1-0.1,0.2-0.1c0.1,0,0.2,0,0.3,0.1c0,0,0.4-1.2-1.6-0.6c0,0-2.2,0.7-2.1-1.7c0,0-0.3-5.6-0.3-7.3
	c0-0.2,0.1-0.5,0.3-0.7c0.2-0.3,0.6-0.8,0.3-1.4c-0.1-0.1-0.1-0.3-0.1-0.4c0.1-0.7,0.3-3,0.6-2.9c0,0,1-0.2,1,0.2
	c0,0.4,0,2.7-0.1,3.6c0,0.1,0,0.2-0.1,0.3c-0.1,0.3-0.2,0.9,0.3,1.9c0.7,1.2,2.5,2.1,5.1,8.1c0.1,0.1,0.2,0.3,0.3,0.4
	c0.4,0.3,1.4,1.1,1.5,1.7c0,0.2,0.1,0.3,0.3,0.5c0.3,0.4,1,0.9,1.9,0.1c0.1-0.1,0.2-0.1,0.3-0.1c0.4,0.1,1.6,0.1,1.8-1.2
	c0-0.1,0.1-0.1,0.1-0.1c0.2,0,0.5-0.1,0.6,0.2c0,0,0.4-0.6-1-0.7c0,0-3,0-3.7-1.4c0-0.1-0.1-0.1-0.1-0.1c-0.5-0.6-4.1-5.6-4.5-6.9
	c0,0,0-0.1,0-0.1c0-0.2,0-1-0.3-1.7c0-0.1-0.1-0.1-0.1-0.2c-0.3-0.7-0.3-3.4,0.6-4.7c0.3-0.4,0.8-0.6,1.2-0.5c1.4,0.3,6,0.9,6.7-5
	c0.1-0.5,0.3-0.9,0.6-1.2c1.3-1,5.1-5.7,3.4-8.3c-0.2-0.3-0.3-0.7-0.3-1c-0.1-2.4-0.2-10.5,1.5-11.9c0,0,1-0.8,2.3-1
	c0,0,0.1,0,0.1,0C45.6,1.6,45.8,1.4,45.5,1.2z M42.6,1.4c-0.3,0-0.5-0.1-0.5-0.3c0-0.2,0.2-0.4,0.4-0.4C42.8,0.7,43,0.8,43,1
	C43.1,1.2,42.9,1.4,42.6,1.4z"/>
</svg>
