<?xml version="1.0" encoding="utf-8"?>
<!-- Generator: Adobe Illustrator 19.1.0, SVG Export Plug-In . SVG Version: 6.00 Build 0)  -->
<svg version="1.1" id="Layer_1" xmlns="http://www.w3.org/2000/svg" xmlns:xlink="http://www.w3.org/1999/xlink" x="0px" y="0px"
	 viewBox="0 0 48 48" style="enable-background:new 0 0 48 48;" xml:space="preserve">
<style type="text/css">
	.st0{fill:#808080;}
</style>
<path class="st0" d="M46.6,14.6c-0.1-0.1-0.4,0-0.3,0.2c0,0.1,0.1,0.2,0.1,0.4c0,0,0,0,0,0.1c0.1,0.3,0.9,3.4-1.2,5
	c0,0-1.2,0.9-1.8,0.9c-0.3,0-0.5-0.2-0.3-0.9c0,0,0,0,0-0.1c0.1-0.1,0.3-0.4,0.3-0.7c0-0.1,0-0.2,0-0.2c0.2-0.4,0.7-1.4-0.3-0.9
	c0,0-3,1.4-3.4,1.2c0,0-2-0.5-2.6-2c0-0.1,0-0.1-0.1-0.2c0-0.4-0.3-2.3-1.4-3.3c-0.1-0.1-0.2-0.3-0.3-0.4c-0.3-0.8-1.2-2.9-2.7-3
	c-0.3,0-0.6-0.1-0.8-0.3c-0.5-0.4-1.6-0.9-3.7-0.4c-0.1,0-0.2,0-0.3,0.1c-0.4,0.1-1.3,0.1-1.9-0.1c-0.2-0.1-0.4-0.1-0.7-0.1
	c-1-0.1-3.5-0.1-5.3,1.1c0,0,0,0,0,0c-0.2,0.1-2.5,0.9-6.9-0.4c0,0-0.7-0.3-2.8,0.7c-0.4,0.2-0.7,0.3-1.1,0.3
	c-1.2,0.2-4,0.8-4.9,1.7c-0.1,0.1-0.3,0.2-0.4,0.4C3,14.9-0.2,17.3,0,22.1c0.1,1.3,0.4,2.5,1,3.6c0.6,1.1,1.4,3.2,1.4,5.1
	c0,0,0,0.1,0,0.1c0,0.3-0.1,1.7,0.6,2.3c0.1,0,0.1,0.1,0.1,0.2c0,0.3,0.1,1.2,0,1.5c0,0,0,0,0,0c-0.1,0.2-0.6,1.7,0.8,1.7
	c0,0,0,0,0,0c0.3,0,3.2,0.3,2.9-1.2c0-0.2-0.1-0.4-0.3-0.5c-0.3-0.2-0.8-0.7-0.9-1.2C5.5,33,4.5,28.6,5.6,26c0-0.1,0.1-0.1,0.2-0.1
	c0.4,0.2,1.6,0.9,1.9,1.6c0,0,0,0,0,0c0,0.2,0.5,2.5,0.4,3.5c0,0.1,0,0.3,0,0.4c0.1,0.3,0.2,0.7,0.4,0.7c0,0,2.5,0.7,2,1.7
	c-0.1,0.1-0.1,0.2-0.1,0.4c0,0.2,0.1,0.6,0.5,0.6c0,0,1.9,0.1,2.6-0.2c0.1-0.1,0.2-0.1,0.3-0.1c0.5-0.1,1.6-0.3,0.7-1.3
	c0,0,0,0-0.1,0c-0.1,0-0.5-0.2-0.8-0.3c-0.2,0-0.3-0.1-0.4-0.2c-0.6-0.5-1.8-1.9-1.7-4.2c0-0.3,0.1-0.3,0.4-0.2
	c0.8,0.4,2.6,0.8,5.7,0.2c0.2,0,0.4,0.1,0.4,0.2c0.3,1,1.2,4.4-0.3,7.8c0,0,0,0,0,0c-0.1,0.1-0.4,0.5,0.1,0.9c0.1,0,0.1,0.1,0.2,0.1
	c0.5,0.2,3,1.1,3.9,0c0,0,0.6-0.6,0.3-1.3c0-0.1,0-0.1,0.1-0.1c0.5,0.1,1.7,0.4,2.6-0.2c0,0,0.1,0,0.1,0c0.3,0,1.8-0.1,0.7-1.3
	c0,0-0.1-0.1-0.1-0.1c-0.3-0.1-1.5-0.5-1.4-1.3c0-0.9,0.3-3.1,1.8-3.7c0.1,0,0.1,0,0.1-0.1c0.3-0.3,2-2,2.4-3
	c0.1-0.2,0.2-0.3,0.4-0.3c0.3,0,0.7-0.2,1.2-0.7c0.1-0.1,0.3-0.2,0.5-0.2c0.4,0,1.2,0,1.9-0.7c0,0,0.1-0.1,0.1-0.1l0.1,0
	c0.2,0,0.4,0.1,0.5,0.3c0.6,0.8,2.6,3.2,5.1,4c0,0,0.1,0,0.1,0c0.2,0.2,1.3,1.3,3.5,0.5c0.2-0.1,0.3-0.2,0.4-0.3
	c0-0.1,0.1-0.2,0.4-0.1c0.2,0,0.4,0,0.5-0.2c0.3-0.3,0.9-1.1,1.5-3.1c0,0,0,0,0-0.1c0-0.1-0.1-0.5,0.3-0.9
	C44.7,25,50.6,18.1,46.6,14.6z M38.1,22.9c-0.3,0-0.5-0.2-0.5-0.4c0-0.2,0.2-0.4,0.5-0.4c0.3,0,0.5,0.2,0.5,0.4
	C38.6,22.7,38.3,22.9,38.1,22.9z"/>
</svg>
