<?xml version="1.0" encoding="utf-8"?>
<!-- Generator: Adobe Illustrator 19.1.0, SVG Export Plug-In . SVG Version: 6.00 Build 0)  -->
<svg version="1.1" id="Layer_1" xmlns="http://www.w3.org/2000/svg" xmlns:xlink="http://www.w3.org/1999/xlink" x="0px" y="0px"
	 viewBox="0 0 48 48" style="enable-background:new 0 0 48 48;" xml:space="preserve">
<style type="text/css">
	.st0{fill:#808080;}
</style>
<path class="st0" d="M10,22.9c0,0,0.1,0,0.1,0c0.2-0.1,1-0.4,0.9,0.7c-0.1,1.2-0.4,8.2,5.6,8c0.5,0,1,0.3,1.1,0.8
	c0.1,0.4,0.2,1.1,0.2,2c0,0-0.2,0.7,0.2,1.9s0.3,5-1.8,7.4c0,0-2.1,2.2,1.9,2c0,0,0.8,2.2,4.1,0.7c0.4-0.2,0.6-0.6,0.6-1
	c-0.1-1.8-0.4-6.4,0.3-7.4c0,0,0.1-0.1,0.1-0.1c0.2-0.3,0.8-1.7,0.7-2.5c0-0.1,0-0.1,0-0.2c-0.2-0.9,1.9-2.6,2-3.8
	c0-0.2,0.2-0.4,0.4-0.4c1.2,0.1,4.8,0.2,6.1,0c0.3,0,0.5,0.2,0.5,0.4c0,0.9,0.1,2.6,0,3.7c0,0.2-0.1,0.4-0.2,0.5
	c-0.7,1.1-3.2,5.2-3.4,6c0,0.1-0.1,0.1-0.1,0.2c-0.5,0.4-2.8,2.4-0.4,2.3c0,0,0,0,0.1,0c0.4,0,4.2,0.4,3.8-1.7
	c-0.1-0.4,0-0.7,0.1-1.1c0.4-1.5,1.5-4.8,3-5.7c0,0,2.6-1.7,1.1-3.1c0,0-0.6-2.6,2-5c0.2-0.2,0.5-0.1,0.5,0.2
	c0.3,1.1,0.9,3.8,0.6,4.8c0,0-0.4,1.9,0.1,3.3c0,0,0,0.1,0,0.2c0.1,0.6,0.5,4.6-1.4,7.7c0,0-3,2.3-0.3,2.5c0,0,4.3,0.6,4.2-2
	c0,0-0.3-6.2,0.7-9.3c1.1-3.1-0.3-4.6,2-9c0,0-0.2-7.7,1.1-10.6c0,0-0.9,11.7-0.8,14c0,0.3,0,0.5-0.1,0.7c-0.4,1-1.5,3.8-0.1,6.4
	c0,0-0.1,6.7,1.3,1.5c0,0,2-4.6,0.4-7.3c-0.2-0.4-0.4-0.9-0.4-1.3c-0.1-2.3-0.3-8.6,0.8-10.8c1-1.9,0.1-6-0.4-8
	c-0.3-1-0.9-2-1.7-2.6c-1.1-0.9-3-1.7-5.5-1.1c-3.8,0.9-9.1,1-11.8,0.7c-0.6-0.1-1.2-0.2-1.7-0.5c-1.2-0.5-4.3-1.5-7.1-0.9
	c-0.3,0.1-0.5-0.1-0.6-0.4c-0.1-1.1-0.1-3.5,1-4.3c0,0-1.1-0.5-2.2,2c0,0-0.7,2.2-3,2.8c-0.3,0.1-0.7,0-1-0.1
	c-1.1-0.6-4.1-1.9-6.4-0.6C6.9,6,6.4,6,6,5.9C4.8,5.4,2.9,4.2,4.9,1.3c0,0-0.6-0.7-1.6,0.2C2.5,2.3,2.1,3.4,2.2,4.5
	C2.4,5.6,3.1,7,5.5,8c0.1,0.1,0.2,0.2,0.2,0.3c0,0.1,0,0.2,0,0.3C5.6,9,5.1,9.1,4.9,8.8C4.4,8,2.6,6,0.5,8C0.1,8.5-0.1,9.2,0.1,9.9
	c0.3,0.9,1.3,1.9,3.9,1.6c0,0-0.6,1.4,0.3,2.2c0.1,0.1,0.1,0.2,0.1,0.3c0.1,0.7,0.4,3.1,0,3.7c-0.4,0.7,0,0.1,0,0.1s-3.1,3-0.1,4.5
	C4.4,22.4,4.9,24.3,10,22.9z"/>
</svg>
