<?xml version="1.0" encoding="utf-8"?>
<!-- Generator: Adobe Illustrator 19.1.0, SVG Export Plug-In . SVG Version: 6.00 Build 0)  -->
<svg version="1.1" id="Layer_1" xmlns="http://www.w3.org/2000/svg" xmlns:xlink="http://www.w3.org/1999/xlink" x="0px" y="0px"
	 viewBox="0 0 48 48" style="enable-background:new 0 0 48 48;" xml:space="preserve">
<style type="text/css">
	.st0{fill:#808080;}
</style>
<path class="st0" d="M47.8,20c0,0-1.5-2.6-1.2-3c0,0,0.7-2-1.1-4c0,0-1.5-0.9-0.5-1.8c0,0,1.6-1.5,1.1-2.5c0,0-2.5,1.1-3.7,1.2
	c-0.2,0-0.3,0-0.5,0c-0.4-0.1-1.4-0.4-1.6-0.7c0,0-0.2-0.4-0.7-0.3c-0.2,0-0.3,0-0.5,0c-0.5-0.1-1.3-0.4-1.4-0.6c0,0-0.1-0.5-1-0.3
	c-0.1,0-0.3,0-0.4,0c-0.7-0.2-2.8-0.8-4.4-1.6c0,0-1.1-0.6-2.8,0.2c0,0-2.7,1.3-6,0.6c0,0-2.1-0.6-5.4,0.7c-0.1,0-0.1,0.1-0.2,0.1
	c-0.6,0.2-3.2,0.9-4.3,1.2c-0.1,0-0.2,0-0.3,0c-0.3,0-1.5,0.4-5.2,3.7c0,0-1.3,1-1.8,2.6c-0.1,0.4-0.2,0.8-0.2,1.2
	c-0.2,1.9-1,12-2.8,13.8c0,0-1,1.2-1.8,0.1c0,0-1.3-1-0.8,0.4c0,0,0.2,1.6,2.1,1.2c0.4-0.1,0.7-0.3,1-0.6c0.6-0.6,1.7-1.8,2-3
	c0,0-0.2,1.8-0.2,2.9C5,32,5,32.3,5,32.6c-0.1,0.8-0.3,2.5,0.6,2.7c0,0-0.2,0.9,1.4,0.6c0,0,1.4,0.2,1.6-0.4c0,0,0.6-1.6-0.5-1.6
	c-0.1,0-0.3-0.1-0.3-0.2c-0.2-0.4-0.6-1.4-0.1-2.7c0,0,0.9-1.7,2-2.3c0.2-0.1,0.5-0.3,0.6-0.5c0.4-0.4,1-1.1,1.1-0.8
	c0,0,1.6,3.5,1.5,5.5c0,0-0.3,0.9,0.6,2.4c0,0,0.5,1.9,1.7,2.7c0.1,0.1,0.2,0.2,0.2,0.4c0,0.2,0.1,0.4,0.6,0.4c0,0,0.9,1.3,1.9,0.5
	c0,0,0.7,0.6,1.5,0.1c0,0,1,0.4,1.2-0.5c0,0,0.4-1.9-1.1-1.8c-0.2,0-0.3,0-0.5-0.1c-0.6-0.3-2.2-1.1-2.5-2.2c0,0-0.8-1.7-0.4-3.5
	c0-0.2,0.1-0.4,0.1-0.6l0.3-7.7c0,0,0.5-0.2,0.7,0.4c0,0,2.4,3.4,7.6,2.3c0.1,0,0.1,0,0.1,0.1c-0.2,0.6-0.5,2.6,0.8,4.1
	c0,0,1.5,3.2,3,3.8c0.2,0.1,0.3,0.3,0.3,0.5c0,0.7,0,2-0.3,2.4c0,0-0.9,2.7,0.6,3.6c0,0,0.2,1,2.1,0.9c0,0,2.9,0.6,2.9-0.6
	c0,0,0.9,0.9,1.7,1.3c0.2,0.1,0.4,0.1,0.5-0.1c0.2-0.1,0.6-0.3,1.3,0.1c0,0,1.4,0.4,1.3-1c0,0,0.9-0.5-0.7-2.8
	c-0.1-0.1-0.1-0.3-0.1-0.5c0-0.5,0-1.4-1.1-2c0,0-1.2-1.6-2-1.7c-0.1,0-0.2-0.1-0.2-0.2c-0.2-0.5-0.7-1.9-1.6-2.3
	c-0.1,0-0.1-0.1-0.1-0.2l2.5-8.4c0.1-0.2,0.3-0.3,0.5-0.2c0.7,0.4,2.4,1.1,4.8-0.1c0.2-0.1,0.4-0.1,0.6,0.1c0.7,1,3.1,3.5,5.1,0.7
	c0.1-0.1,0.1-0.1,0.2-0.2C47.2,22.5,48.5,21.4,47.8,20z M6,26.7l1-5.5l0.5-1.6c0.2,0,0.5,0.5,0.5,0.5c-0.8,1.1,0,3.1,0,3.1
	C7.8,24.5,6,26.7,6,26.7z M42.1,16.4c-0.3,0-0.5-0.2-0.5-0.5c0-0.3,0.2-0.5,0.5-0.5c0.3,0,0.5,0.2,0.5,0.5
	C42.6,16.2,42.3,16.4,42.1,16.4z M46.1,16.2c-0.2,0-0.3-0.3-0.3-0.6c0-0.3,0.2-0.6,0.3-0.6c0.2,0,0.3,0.3,0.3,0.6
	C46.4,15.9,46.3,16.2,46.1,16.2z"/>
</svg>
