<?xml version="1.0" encoding="utf-8"?>
<!-- Generator: Adobe Illustrator 19.1.0, SVG Export Plug-In . SVG Version: 6.00 Build 0)  -->
<svg version="1.1" id="Layer_1" xmlns="http://www.w3.org/2000/svg" xmlns:xlink="http://www.w3.org/1999/xlink" x="0px" y="0px"
	 viewBox="0 0 48 48" style="enable-background:new 0 0 48 48;" xml:space="preserve">
<style type="text/css">
	.st0{fill:#808080;}
</style>
<path class="st0" d="M46.7,16.9c0-0.6-0.4-2-2.9-3.3c0,0-2.1-1.6-3.3-1.2c-0.3,0.1-0.7,0.1-1,0.1c-0.2,0-0.4-0.1-0.6-0.2
	c0,0-4.3-0.1-5.5-0.3c0,0-1.8-0.4-3.9,0.7c-0.1,0-0.1,0.1-0.2,0.1c-0.3,0.2-2.1,1-5.4-0.1c-0.2-0.1-0.3-0.1-0.5-0.2
	C23,12.3,21.5,11.8,18,12c-0.2,0-0.4,0-0.6,0c-1-0.1-4.2-0.5-6.5,0.3c-0.3,0.1-0.6,0.2-0.9,0.2c-0.7,0.1-2.1,0.4-3.4,1.3
	c-1.2,0.8-2.1,2.1-2.4,3.6c-0.2,1.2-0.5,3-0.3,5.2c0,0.2,0,0.3,0.1,0.5c0.2,0.9,0.7,4.3-0.2,5.8c0,0-1.4,2.7-2.9,1
	c0,0-0.6-0.7-1-0.4c0,0-0.2,1.9,2,1.9c0,0,1.5,0,2.5-1.4c0.1-0.1,0.1-0.2,0.2-0.3c0.3-0.3,1.2-1.6,1.1-5.3l0.3-5.5
	c0,0,1.9,0.8,1.5,3.5c0,0-0.1,0.6,0.1,1c0,0.1,0,0.2,0,0.3c-0.1,0.3-0.4,1.2-0.4,1.8c0,0-0.7,1.5-1.2,1.8c0,0-0.2,0.1-0.2,0.7
	c0,0-0.1,2.3,0.5,3.3c0.1,0.2,0.2,0.4,0.2,0.6c0.1,0.7,0.3,2.3,1.2,2.2c0,0,2.4,0.3,2.5-0.5c0,0,0.6-1.2-1.4-1.4
	c0,0-1.6-2.1,0.8-4.1c0.1-0.1,0.3,0,0.3,0.2c0,0.5-0.1,1.4-0.3,2.2c0,0-0.1,0.7,0.8,1.5c0,0,1.1,1.7,2.8,2.7c0,0,0.6,1.5,2.5,1
	c0,0,1.5,0.2,1.5-0.9c0,0,0.1-0.9-1.3-1.2c0,0-2.1-0.9-2.7-2.2c-0.1-0.2-0.1-0.5-0.1-0.7c0.2-0.9,0.9-3.5,1.3-4.3
	c0,0,0.7-1.9,0.9-2.7c0-0.1,0.2-0.2,0.3-0.1c1.1,0.6,5.4,2.9,8.2,2.1c0,0-0.4,1.8,0.5,2.8c0,0,1.4,3.5,1,3.8c0,0-0.8,0.7-1.4,0.8
	c0,0,0.1-0.5-0.7-0.1c0,0-1.4,0.6-1,1.5c0,0,0.4,1,1.7,0.6c0,0,3.5-0.1,4.7-2.5c0.2-0.4,0.3-0.8,0.3-1.3c0-1.2,0.2-4.4,1-4.4
	c0,0,0.9-0.6,1.2,0.7c0,0.2,0.1,0.3,0.2,0.5c0.5,0.9,2,4,2.1,4.6c0,0,0,0.7,0.3,0.5c0,0,0,0.9,0.4,0.9c0.2,0,0.3,0.1,0.3,0.2
	c0.2,0.6,0.7,1.8,2.3,1.9c0,0,2.5,0.3,2.4-0.7c0,0,0.9-0.2,0-1c0,0-1-1-1.5-0.6c0,0-0.5-0.1-0.8-0.1c0,0-1.1-0.9-1-2.7
	c0-0.2,0-0.5,0-0.7L36,26.1c0-0.4,0-0.7,0.2-1.1c0.3-0.8,0.9-2.4,1.1-3.5c0,0,0.5,0.6,0.9-0.3c0.1-0.2,0.2-0.2,0.4-0.2
	c0.5,0,1.7,0.1,2.4,0.9c0.2,0.2,0.4,0.2,0.6,0.1c0.5-0.3,1.3-0.7,2-0.1c0,0,2.2,1.9,2.5-0.2c0-0.2,0.1-0.3,0.2-0.4
	c0.6-0.3,1.9-1.2,1.7-1.8c0,0-0.3-1.1-1-2C46.8,17.3,46.7,17.1,46.7,16.9z"/>
</svg>
