<?xml version="1.0" encoding="utf-8"?>
<!-- Generator: Adobe Illustrator 19.1.0, SVG Export Plug-In . SVG Version: 6.00 Build 0)  -->
<svg version="1.1" id="Layer_1" xmlns="http://www.w3.org/2000/svg" xmlns:xlink="http://www.w3.org/1999/xlink" x="0px" y="0px"
	 viewBox="0 0 48 48" style="enable-background:new 0 0 48 48;" xml:space="preserve">
<style type="text/css">
	.st0{fill:#808080;}
</style>
<path class="st0" d="M37,6.4c-0.3-0.4-3.1-3.7-3.4-4.1c0,0-2.8-4.5-5.8-0.8c0,0-0.9,0.9-1.7,3.8c0,0-0.8,2.6-1.7,5
	c-0.6,1.4-1.3,2.8-2.3,4c-1.6,2-4.5,5.7-5.5,7.9c-0.3,0.5-0.6,1.1-0.9,1.5c-0.7,1-2,3.4-3,9c0,0-0.5,2.7-0.8,3.9
	c-0.1,0.4-0.2,0.7-0.4,1c-0.3,0.4-0.8,1.2-0.8,1.7c0,0-0.1,1.1,0.1,0.7l0.5-0.5c0,0,0.1,0,0.1,0l0,0.6c0,0,0.3-0.3,0.4-1.2
	c0,0,0,0,0.1,0c0.1,0.6,0.4,2.4,1.8,3.7c0.2,0.2,0.3,0.4,0.4,0.6c0.2,0.8,0.8,2.6,1.4,2.3l0.4,0.8c0,0,0.1-0.5,0-0.7
	c0,0,0.6,0.9,0.8,1c0,0,0,0.3-1.1,1c0,0-0.3,0.6,0.5,0.5c0,0,1.7-0.6,1.9-0.2c0,0,0.7,0.4,1.6,0.2c0,0,1.1-0.5,1.5-0.2
	c0,0,0.3,0.2,0.4,0c0,0,0.1,0,0.3,0.1c0,0-0.1-0.7-0.9-0.7c0,0-1.6,0.2-2.1-0.4c0,0,0.3-2.4,0.1-3.5c0-0.2,0-0.4,0.1-0.6
	c0.3-0.6,1-1.9,1.2-2.7c0-0.1,0.2-0.2,0.3,0c0.3,0.4,0.8,1,1.7,0.9c0,0,2,0.2,2,1.7c0,0,0.4,0.3,0.3-0.6c0,0,0.4-0.3,1.2,0.6
	c0,0,0.7,0.4,2.3-0.5c0,0,0.9,0.2,1.8-0.4c0,0,1.2,0,1.4-0.5c0,0,0.6-0.4-0.5-0.3c0,0-3.5,0.8-5.1-0.1c0,0-0.3-0.3-1.8-0.4
	c0,0-1.2-0.1-1.8-0.7c-0.3-0.3-0.4-0.8-0.2-1.2c0.6-1,2.4-4.3,2.6-7.4c0.1-1,0.3-2,0.6-3c0.7-2.1,1.6-5.7,1.2-7.5
	c0-0.1-0.1-0.2-0.1-0.3c-0.1-0.3-0.4-1.6,0.4-4.6c0.1-0.4,0.2-0.9,0.2-1.4c0.1-1.4,0.6-4.6,2.3-6.8c0.2-0.2,0.3-0.5,0.5-0.7
	c0.3-0.5,1.2-1.5,2.8-1.4c0.4,0,0.8,0.1,1.1,0.4c0.6,0.4,1.5,0.7,1.9,1.1c0.2,0.2,0.7,0.6,1.7,0.8c0,0,0.4,0.2,0.4,0.4
	C37.1,7.4,37.5,7,37,6.4z M30.8,0.9c0,0,0.6-0.5,0.9,0.5C31.7,1.4,30.8,1.8,30.8,0.9z"/>
</svg>
