<?xml version="1.0" encoding="utf-8"?>
<!-- Generator: Adobe Illustrator 19.1.0, SVG Export Plug-In . SVG Version: 6.00 Build 0)  -->
<svg version="1.1" id="Layer_1" xmlns="http://www.w3.org/2000/svg" xmlns:xlink="http://www.w3.org/1999/xlink" x="0px" y="0px"
	 viewBox="0 0 48 48" style="enable-background:new 0 0 48 48;" xml:space="preserve">
<style type="text/css">
	.st0{fill:#808080;}
</style>
<path class="st0" d="M43.5,15.2l-2.7-1.3c-0.1,0-0.1-0.1-0.2-0.1c-0.2-0.1-0.7-0.4-1.5,0.3c0,0-2.5,1-4,0.2c0,0-1-0.5-1.5-0.5
	c-0.1,0-0.1-0.1-0.1-0.1c1.7-2.4,5.5-3.1,7.1-2.7c0.7,0.2,2.5,0.5,3.9,0.4c1.3-0.1,1.7-0.8,3.1-2c0.1-0.1,0.3-0.3,0.3-0.4
	c0.1-0.3,0.2-0.8-0.3-0.8c-0.3,0-0.6,0.1-0.8,0.4c-0.4,0.6-1.7,2-4.9,1.3c0,0-4.6-1.5-9.2,1.8c-0.4,0.3-2.7,1.4-4.4,2
	c-5.1,1.3-12.1,8.8-14.9,7.2c0,0-0.4-0.5-2.6,0.8c0,0-0.4,0.1-1.5-0.1c0,0-2.3-0.4-3.6-0.2c0,0,0.3-0.2-0.7-0.3c0,0-0.8-1.5-1.3,0
	c-0.1,0.2-0.2,0.3-0.3,0.4c-0.5,0.2-1.5,0.9-2.5,3.2c0,0-1,1.2-0.7,2c0,0.1,0,0.2,0,0.2c-0.1,0.2-0.2,0.6,0.3,0.8c0.1,0,0.2,0,0.2,0
	c0.1-0.1,0.4-0.2,0.6,0.3c0,0,0.2,0,0-0.3c0,0,2.4-0.4,3.2,0.6c0.1,0.1,0.1,0.3,0.1,0.5c0,0.1-0.1,0.2-0.3,0.3c0,0-0.6-0.1-0.1,0.2
	c0,0,0.1,0.1,0,0.1c0,0-0.4-0.1,0,0.1c0,0,0.1,0.1,0.1,0.1c0,0.2,0,0.6,1.3,0.3c0,0,0.9-0.1,0.7-1.1c0,0,0-0.1,0.1-0.1
	c0.3,0,1.3,0.1,1.8,0.4c0.2,0.2,0.4,0.4,0.4,0.7c0,0.2,0,0.5,0.1,0.7c0,0,0,0.1,0,0.1c-0.3,0.1-1.6,0.7-2.3,1.1
	C6,31.8,5.8,31.9,5.6,32c-0.6,0.2-1.7,0.5-1.9,0.8c0,0-1.4,1.8-2.6,2.3c-0.2,0.1-0.4,0.3-0.5,0.5c-0.1,0.3-0.2,0.6,0,1
	c0,0-0.1,0.2,0.2,0.4c0,0-0.1,0.2,0.3,0.2c0,0-1.3,1.1-0.3,1.9c0,0,0.1,0.3,0.3,0.4l0-0.2c0.5,0.6,1.5,0.4,2-0.2
	c0.6-0.6,0.8-0.4,1.2-1.4c0,0,0.5-1.1,2-1.2c0,0,3.4-0.9,5-1.1c0.3,0,0.5-0.1,0.8-0.3c0.4-0.2,0.9-0.5,1.1-1
	c0.1-0.2,0.3-0.4,0.5-0.6c0.6-0.5,1.7-1.3,3.3-1.9c0,0,10.5-3.8,12.4-8.2c0.3-0.6,0.7-1.1,1.3-1.3c0.8-0.3,2-0.6,3.7-0.3
	c0.1,0,0.2,0,0.2,0c0.4-0.1,1.7-0.7,3-2.8c0,0,1.1-1.7,1.5-1.2c0,0,1.6,1.9,2.3,3.1c0.1,0.2,0.4,0.4,0.6,0.5
	c0.4,0.2,1.1,0.3,1.7-0.3c0.1-0.1,0.1-0.1,0.1-0.2c0-0.3-0.2-0.9-0.5-0.9c0,0,0.1-1.1-1-1.7l-0.7-1c-0.1-0.1,0-0.2,0.1-0.2
	c0.7,0.2,2.3,0.6,2.9,0.9c0,0,2.1,0.5,2.1-1.4c0,0-0.1-0.3-0.4-0.3c0,0-0.2-0.5-0.6-0.5c-0.1,0-0.2,0-0.2-0.1
	c-0.2-0.2-0.9-0.7-1.8-0.6C43.7,15.3,43.6,15.3,43.5,15.2z M1.7,25.4c0,0,0.4-0.9,0.6-0.6C2.3,24.8,2.3,25.5,1.7,25.4z"/>
</svg>
