<?xml version="1.0" encoding="utf-8"?>
<!-- Generator: Adobe Illustrator 19.1.0, SVG Export Plug-In . SVG Version: 6.00 Build 0)  -->
<svg version="1.1" id="Layer_1" xmlns="http://www.w3.org/2000/svg" xmlns:xlink="http://www.w3.org/1999/xlink" x="0px" y="0px"
	 viewBox="0 0 48 48" style="enable-background:new 0 0 48 48;" xml:space="preserve">
<style type="text/css">
	.st0{fill:#808080;}
</style>
<path class="st0" d="M45.7,7.5c-0.7-0.8-1-1.9-0.7-3c0.6-2.2,0.7-5.3-3.4-2.8c-0.1,0.1-0.3,0.1-0.5,0.1c-0.7-0.2-2.8-0.7-5.4-0.3
	c-0.3,0-0.5-0.1-0.7-0.3c-0.7-0.9-2.9-2.9-3.3,1.8c0,0.4-0.3,0.7-0.7,0.9c-0.6,0.2-1.8,0.8-3.4,2.1c-0.4,0.3-0.8,0.5-1.2,0.6
	c-0.1,0-0.3,0.1-0.5,0.1c-0.6,0.1-1.2,0.1-1.8-0.1C21.6,5.8,8.8,2.5,5.4,7.8c0,0-2.4,3.3-2.5,6.7c0,0,0,0,0,0
	c-0.7,0.9-1.2,1.9-1.5,3c0.1,0,0.3,0,0.4,0.1c-0.2,1.6-0.3,3.2-0.3,4.8c0,0.4,0.1,0.8,0.4,1C1.9,23.2,1.9,23,2,22.8
	c0.2,0.6,0.3,1.2,0.5,1.9c0.1-0.2,0.3-0.4,0.4-0.6c-0.1,0.6-0.2,1.2-0.2,1.7c0.2,0,0.4,0,0.5-0.2c-0.1,0.8-0.2,1.6-0.5,2.4
	c0.2,0,0.5-0.1,0.7-0.1c0.2,1.2,0.3,2.3,0.5,3.5c0,0.2,0,0.3,0.2,0.4c0.1,0.1,0.2,0.1,0.3,0c-0.2,0.3-0.3,0.6-0.2,0.9
	c0.1,0.4,0.4,0.6,0.7,0.7c-0.1,0.4-0.2,0.9-0.1,1.3c0.1,0.3,0.3,0.5,0.6,0.6c0,0,0,0,0,0c0,0.2,0,0.4,0,0.7c0.1,1.7,0.3,5.8-0.4,7.4
	c0,0.1-0.1,0.2-0.1,0.2c0,0.3,0,1.1,0.9,1.1c1.3,0.1,2.8,0.4,4-0.2c0,0,0.5-0.2,0.3-0.9c-0.1-0.2-0.2-0.4-0.4-0.6
	C9.4,43,9,42.5,8.9,41.9c0,0-0.7-2.8-0.9-7.6c0,0,0.3-4.6,2-6.2c0,0,1.5-1,1.8-2.7c0,0,1.8,2.9-1.7,6.3c0,0-0.7,6.1,0.9,11.3
	c0,0.1,0.1,0.3,0.1,0.4c0,0.2,0.1,0.6,0.7,0.8c0.2,0.1,0.4,0.1,0.6,0.1c1,0,4.9,0.1,4.4-0.6c0-0.1-0.1-0.1-0.1-0.2
	c-0.2-0.4-0.8-1.7-1.7-2.3c-0.6-0.4-1-0.9-1.2-1.6c-0.7-1.9-1.4-5.8,2.4-9.5c0.1-0.1,0.1-0.1,0.2-0.1c0.3-0.3,1.4-1.3,1.9-2.2
	c0.1-0.2,0.3-0.2,0.4,0c0.6,0.8,2.2,2.5,4.6,1.4c0.2-0.1,0.4,0,0.4,0.2c0,0.9,0.1,3.2,1.7,3.6c0.3,0.1,0.6,0.3,0.8,0.6
	c0.4,1,1.4,3.1,3.1,5.1c0.3,0.3,0.5,0.7,0.7,1.1c0.6,1.5,2.1,5.1,1.6,6.2c0,0-0.9,1.7,0.8,1.8c0,0,4.5,0.8,5-0.4
	c0-0.1,0.1-0.1,0.2,0c0.3,0.3,0.9,0.6,2.4,0.4c0.1,0,0.1,0,0.2,0c0.2,0.1,0.8,0.3,1.6,0c0.1,0,0.2-0.1,0.4,0c0.5,0.1,2,0.4,1.7-1
	c0,0-0.2-1.6-2.3-1.6c-0.3,0-0.6-0.1-0.7-0.4c-0.9-1.2-3.2-5.1-2-11.9c0,0,0.4-1.8-0.2-3.6c-0.1-0.3-0.1-0.7-0.1-1
	c0.4-1.7,1.8-6.7,4.1-8c0,0,1.5-1.2,2-3.1c0,0,0.2-2.2,1.6-3.6c0.2-0.2,0.3-0.4,0.4-0.6C46.7,11.8,47.1,9.3,45.7,7.5z M35.9,9.3
	c0.3,0,0.6,0.2,0.6,0.5s-0.2,0.5-0.6,0.5c-0.3,0-0.6-0.2-0.6-0.5S35.6,9.3,35.9,9.3z M34.2,41.8c-0.2-1.4-1.1-3.4-1.1-3.4
	c-0.9-1.9-2.7-8-2.7-8c0.1-0.5,1.9-2.4,1.9-2.4C31.9,28.8,35.6,41,35.6,41c-0.4,0.8,0.9,4.5,0.9,4.5C35.3,45.1,34.2,41.8,34.2,41.8z
	 M41.2,10.2c-0.3,0-0.6-0.1-0.6-0.4c0-0.3,0.2-0.5,0.5-0.5c0.3,0,0.6,0.1,0.6,0.4C41.7,10,41.5,10.2,41.2,10.2z"/>
</svg>
