<?xml version="1.0" encoding="utf-8"?>
<!-- Generator: Adobe Illustrator 19.1.0, SVG Export Plug-In . SVG Version: 6.00 Build 0)  -->
<svg version="1.1" id="Layer_1" xmlns="http://www.w3.org/2000/svg" xmlns:xlink="http://www.w3.org/1999/xlink" x="0px" y="0px"
	 viewBox="0 0 48 48" style="enable-background:new 0 0 48 48;" xml:space="preserve">
<style type="text/css">
	.st0{fill:#808080;}
</style>
<path class="st0" d="M0.5,18.5c-0.1,0.2-0.2,0.5-0.3,0.7c-0.1,0.2-0.2,0.4-0.2,0.6C0,20.3,0,21.2,0.7,21.5c0.1,0,0.2,0.1,0.2,0.2
	c0.1,0.1,0.2,0.2,0.3,0.1c0,0,0.1,0,0.1,0c-0.1,0.3-0.1,1,0.6,1.1c0,0,1.8,0.5,2.5-1.2c0.1-0.2,0.3-0.2,0.4-0.2
	c0.2,0.1,0.6,0.2,0.8-0.1c0.1-0.1,0.3-0.1,0.3,0c0.2,0.5,0.8,1,2.3,0c0.3-0.2,0.6-0.2,0.8,0c0.7,0.4,2,1.1,2.4,1.7
	c0,0.1,0.1,0.1,0.1,0.2c0.1,0.3,0.3,1.3,0.7,1.8c0.4,0.4,0.6,1,0.7,1.6c0.1,0.6,0.1,1.3-0.1,2.1c0,0-0.2,2.6-0.2,3.3
	c0,0-0.3,2.3-1.1,2.8c0,0-1.8-0.2-2.7,0.9C9,35.8,9,36,9.1,36.1c0.1,0.1,0.4,0.4,0.5,0.6c0.1,0.1,0.2,0.2,0.3,0.2
	c1,0.2,4.1,0.5,4.4-0.7c0,0,0.2-1.3,0.7-1.3c0.1,0,0.3-0.1,0.3-0.2c0.3-0.5,1-1.9,1-2.7c0,0,0.8,2.8,4.1,3c0,0,0.5,0,0.9,0.1
	c0.1,0,0.3,0,0.4,0c0.4-0.1,1.2-0.4,1.6-1.3c0-0.1,0-0.1,0-0.2c0-0.1-0.1-0.3-0.3-0.3c0,0,0.9-0.5-2.8-1.1c-0.1,0-0.1-0.1-0.2-0.1
	c-0.1-0.1-0.2-0.4-0.4-0.4c0,0-0.1-0.1,0-0.1c0.1-0.2,0.4-0.7,0.4-1.1c0-0.2,0.1-0.4,0.2-0.5c0.4-0.6,1.2-2.1,1.3-3.2
	c0-0.1,0.1-0.2,0.2-0.2c0.6-0.1,2.8-0.4,3.9,0c0.2,0.1,0.5,0.1,0.8,0.1c1,0,3.2-0.2,4.3-1.2c0,0,0.2-0.2,0.4,0.5
	c0,0,1.2,3.1,1.8,4.1c0.1,0.1,0.1,0.3,0.2,0.4c0.1,0.6,0,1.8-1.5,3c-0.2,0.1-0.4,0.2-0.6,0.2c-0.5,0-1.3,0.1-1.5,0.7
	c0,0-0.6,1.6,1.4,1.4c0,0,2.1,0.1,2.1-0.8c0,0,0.3-0.6,0.9-0.9c0.2-0.1,0.3-0.2,0.5-0.3c0.5-0.5,1.7-1.6,2-2.6c0,0,0-0.1,0.1-0.1
	c0.1-0.1,0.2-0.5-0.1-1c-0.2-0.3-0.3-0.6-0.3-1c-0.1-1-0.3-3,0.7-3.8c0.2-0.2,0.6-0.2,0.8,0l4.7,4.7c0,0,2.2,2,1.9,3.3
	c0,0-0.1,1.6-0.5,1.6c0,0-0.5-0.3-0.8,0c0,0-0.8,0.2-0.7,0.9c0,0-0.2,0.8,1,0.8l1.7,0c0.1,0,0.2,0,0.3,0c0.3,0,1,0,0.9-0.8
	c0-0.1,0-0.2,0-0.2c0-0.3,0.2-0.9,0.3-1.4c0.1-0.3,0.3-0.6,0.5-0.8c0.4-0.3,1-0.8,1-1.3c0-0.2-0.2-0.4-0.4-0.4
	c-0.3,0-0.8,0.1-0.9,0.7c0-0.1,0.5-2.2-0.7-3.6c-0.4-0.4-0.6-0.9-0.8-1.4c-0.4-1.1-1-2.7-0.9-3.4l0-3.7c0,0,0.2-5.1-5.2-7
	c0,0-1.7-1-4.2-0.9c-0.4,0-0.7,0-1.1-0.1c-1.8-0.3-7.5-1.2-11.2-0.1c0,0-2.9,0.6-5.6-0.8C16.5,11.2,16,11,15.6,11
	c-0.8-0.1-1.9-0.1-3.3,0.4c-0.2,0.1-0.4,0.1-0.6,0.1c-0.6,0-2-0.1-2.7,0.4c0,0-1.2-1-2.6,0.2c0,0-0.7-1-2.1,0.4c0,0-0.1,0.1-0.1,0.1
	c-0.3,0.1-1,0.4-1.5,0.4c-0.1,0-0.3,0-0.4-0.1c-0.4-0.3-1.5-1-1.5-0.5c0,0-0.1,1.3,0.6,1.8c0.1,0.1,0.2,0.2,0.1,0.4h0
	c-0.1,0.2-0.1,0.4-0.3,0.6c-0.4,0.5-1.2,1.9-0.7,2.9C0.6,18.1,0.6,18.3,0.5,18.5z M1.2,16.8C0.7,16.7,1,16.3,1,16.3
	C1.2,16.5,1.2,16.8,1.2,16.8z M3.4,16.9c0,0-0.2-0.9,0.6-0.3C4.1,16.5,4.1,17.2,3.4,16.9z"/>
</svg>
