<?xml version="1.0" encoding="utf-8"?>
<!-- Generator: Adobe Illustrator 19.1.0, SVG Export Plug-In . SVG Version: 6.00 Build 0)  -->
<svg version="1.1" id="Layer_1" xmlns="http://www.w3.org/2000/svg" xmlns:xlink="http://www.w3.org/1999/xlink" x="0px" y="0px"
	 viewBox="0 0 48 48" style="enable-background:new 0 0 48 48;" xml:space="preserve">
<style type="text/css">
	.st0{fill:#808080;}
</style>
<path class="st0" d="M47.2,0.7c-0.8,0.3-4.3,1.9-4.6,3.2c0,0-0.1,1.1-1.7,0.4c0,0-2.1-1.2-4,0.5c0,0-0.1,0.1-0.2,0.1
	C36.6,5,36.4,5,36.1,5c-0.3,0-0.6-0.2-0.8-0.5C35,3.8,33.9,2,31.7,1.8c-0.2,0-0.4,0.1-0.5,0.3c-0.2,0.4-0.3,1.2,0.2,3
	c0,0,0.7,2.4,2,2.7c0.3,0.1,0.5,0.2,0.7,0.4l1,0.9c0.2,0.2,0.3,0.4,0.4,0.6c0.1,0.5,0.3,1.4,0,2c0,0-1.4,3.7-1.6,3.9
	c0,0-0.7,1.1-1.5,0.1c0,0-0.6-0.9-2.2-1.6c-0.2-0.1-0.5-0.2-0.7-0.4c-0.7-0.4-2.9-1.6-7-3.3c-0.5-0.2-1-0.5-1.5-0.8
	c-0.8-0.5-2.5-1.4-4.4-1.4c-0.4,0-0.9-0.1-1.3-0.1l-2.7-0.5c0,0-0.4,0-0.5-0.5c0,0-0.5-2.2-3.7-2.6c0,0-1.7-0.2-2.8-0.3
	c-0.1,0-0.1,0-0.2,0C5,4,3.6,3.8,1.8,4.5C1.5,4.7,1.1,4.8,0.7,4.9C0.4,4.9,0.2,5,0,5c0,0,0.8,0.4,1.8,0.6c0.4,0.1,0.7,0.2,1.1,0.3
	c0.6,0.2,1.7,0.6,2.8,0.4c0,0,1-0.1,2,1c0,0,1,1,1.5,1.3c0.2,0.1,0.3,0.3,0.4,0.5c0,0.2,0,0.3-0.1,0.5c0,0-1.6,1.1-1.4,2.6
	c0,0.2,0.1,0.3,0.1,0.5c0.1,1,0.5,4.1,1.1,5.2c0.1,0.1,0.1,0.2,0.1,0.3c0.1,0.4,0.1,1.2-0.6,0.8c0,0-0.9-0.6-1.5-0.7
	c-0.1,0-0.3,0.1-0.3,0.2c0,0.2,0,0.4,0.1,0.7c0,0,0.2,2.2-0.2,2.6c0,0-0.3,0.7-0.1,1.5C7,23.6,7,23.9,7,24.2c0,0.8,0,2,0,2.2
	c0,0-0.1,1.9-0.4,2.7c0,0.1-0.1,0.2-0.2,0.3c-0.2,0.2-0.8,0.6-0.8,1.3c0,0-0.2,1.1,0.6,0.8c0,0,0.3-0.2,0.3,0.1c0,0,0.1,0.2,0.5-0.2
	c0,0,1-0.7,1.3-1.3c0,0,0.5-0.6,0.3-1.4c0,0-0.3-5.5,0.2-6.6c0-0.1,0.2-0.2,0.3-0.1c0.4,0.1,1.3,0.4,1.6,1.3c0,0,1.4,5.5,1.5,6.8
	c0,0,0.2,3,0.9,3.7c0,0-0.3,0.3,0.1,0.3c0.1,0,0.2,0.1,0.2,0.2c0.1,0.3,0.4,1,0.7,1.7c0,0,0.6,1,2,0.4c0,0,1.3-0.4,0.8-0.8
	c0,0-0.6-0.4-1-0.4c-0.1,0-0.1-0.1-0.2-0.2c0-0.3-0.2-1-1-2c0,0-0.8-1-1-2.3c0,0-1.5-6-0.9-6.5c0,0,3.1-1.3,3.6-1
	c0,0,3.4,2.5,6.7,3.4c0,0,1.3,0.1,1.6,1.6c0,0,0.8,3.6,1.3,5.1c0.2,0.6,0.3,1.2,0.5,1.9c0.1,0.3,0.1,0.7,0.2,1
	c0.1,0.7,0.2,1.3,0.2,2c0,1.4,0,3.5-0.3,4c0,0-0.1,0.7-0.1,1.3c0,0.1,0,0.3-0.1,0.4c-0.1,0.1-0.1,0.3,0.1,0.4
	c0.1,0.1,0.2,0.2,0.2,0.3c0,0.5,0.1,1.6,0.3,2c0,0,0.5,1.1,1.3,0.9c0,0,0.1,0,0.1-0.1c0.1-0.1,0.2-0.3,0.4,0c0,0,0,0,0.1,0
	c0.1,0,0.6,0.1,0.6-0.5c0,0-0.1-1.2-0.5-1.7c-0.1-0.2-0.3-0.5-0.4-0.7c-0.1-0.4-0.3-1.1-0.3-1.5c0,0,0-0.4-0.2-0.9
	c-0.1-0.1-0.1-0.3-0.1-0.5c0-0.9,0-4,0.3-4.5c0,0,0.5-1,0.1-2.2c0,0-0.9-4.5,0.2-4.5c0,0,4.5,0,4.9,0.3c0,0,3.1,3.8,3.1,4
	c0,0,1.3,4.3,0.9,7.8c0,0-0.4,0.4-0.2,0.9c0,0-1.5,0.9-1.4,1.9c0,0-0.1,1.7,1.1,1.3c0,0,0.4-0.2,0.8-0.1c0,0,0.6,0.1,0.5-0.9
	c0-0.2,0.1-0.4,0.3-0.5c0.4-0.2,1-0.8,0.8-1.8c0,0-0.8-6-0.4-7c0,0,0.2-1.1-0.3-1.6c0,0-2.9-4.2-3.1-6.1c0-0.2,0.1-0.5,0.2-0.7
	c0.5-0.5,1.5-1.7,1.4-3.5c0-0.2,0-0.5,0.2-0.6c0.6-0.9,2.2-3.7,2.3-5.9c0,0,0.5-2.7,1.2-2.6c0,0,0.3-0.2,0.8,0.3
	c0.3,0.2,0.7,0.4,1,0.4c0.4,0,0.9,0,1.4-0.4c0,0,1.4-0.9,1-2c0,0,0-0.2-1.1-1.7c-0.1-0.1-0.2-0.3-0.2-0.5c0-0.6-0.1-1.8-0.2-2.2
	c0-0.1,0-0.1,0-0.2c0.1-0.2,0.3-0.5,0.3-0.8c0,0,0-0.1,0.1-0.1c0.1,0,0.2,0,0.3,0.2c0,0-0.1-0.4-0.3-0.5c0,0-0.1-0.1-0.1-0.1
	c0-0.1,0-0.3,0.1-0.3c0,0,1.9-0.4,3.3-3.8c0,0,1.2-2.4,0.1-2.7C47.4,0.7,47.3,0.7,47.2,0.7z M36.4,8.5c0,0,1.2-0.8,1.4,0.9
	C37.8,9.4,36.1,10.8,36.4,8.5z"/>
</svg>
