<?xml version="1.0" encoding="utf-8"?>
<!-- Generator: Adobe Illustrator 19.1.0, SVG Export Plug-In . SVG Version: 6.00 Build 0)  -->
<svg version="1.1" id="Layer_1" xmlns="http://www.w3.org/2000/svg" xmlns:xlink="http://www.w3.org/1999/xlink" x="0px" y="0px"
	 viewBox="0 0 48 48" style="enable-background:new 0 0 48 48;" xml:space="preserve">
<style type="text/css">
	.st0{fill:#808080;}
</style>
<path class="st0" d="M34.1,45.3c-2.4-0.7-2.9-3.4-2.9-3.4c-0.2-0.5-0.3-0.9-0.3-1.2c0-0.4,0.2-0.8,0.4-1.1c1.2-1.6,0.8-5.1,0.8-5.1
	c0-0.7-1.1-4.1-1.5-5.2c-0.1-0.2-0.2-0.4-0.3-0.5c-0.5-0.8-0.6-1.9-0.6-2.5c0-0.3-0.1-0.5-0.3-0.7c-1.2-1.1-3.1-4.3-3.5-5
	c-0.1-0.1-0.1-0.2-0.2-0.3c-3.4-4.5-2.1-9.5-2.1-9.5c0-1.2,0.5-2.9,0.8-3.8c0.1-0.3,0.2-0.6,0.3-0.9c1-2.8-1.4-4.6-1.8-5
	c-0.1,0-0.1-0.1-0.2-0.1c-3.1-2.4-6,0.7-6.6,1.5c-0.1,0.1-0.2,0.3-0.3,0.4l-0.5,0.6c-0.2,0.3-0.5,0.6-0.8,0.9
	c-0.8,0.6-2.1,1.5-2.5,1.8c-0.2,0.1-0.3,0.2-0.4,0.4C10.6,7.5,13,7.1,14,6.9c0.2,0,0.4-0.1,0.6-0.2c0.6-0.3,1.3-0.5,1.7-0.6
	c0.2,0,0.4-0.1,0.5-0.2c1-0.3,1.8-0.1,2.4,0.2c0.4,0.2,0.7,0.6,0.8,1c0.2,1.2,0,3.3-0.1,4.5c-0.1,0.6-0.2,1.1-0.3,1.7
	c-1.7,5.3-2.1,8.6-2.2,9.9c0,0.4-0.2,0.8-0.5,1c-3.5,2.7-1.5,8.4-0.7,10.3c0.2,0.4,0.3,0.8,0.5,1.3c1.2,3.5,2.4,4.6,2.8,4.8
	c0.1,0.1,0.1,0.1,0.1,0.2c-0.3,0.6-0.2,0.9,0,1.1c0,0.1,0.1,0.1,0.1,0.2c0.2,1.3,0,3.2-0.1,3.7c0,0.1-0.1,0.1-0.1,0.1
	c-0.1,0-0.1,0.1-0.1,0.1c-0.1,0.5-2.7,1.2-2.7,1.2c-1.2,0.4,3.5,0.8,3.5,0.8c0.6,0,0.5-0.3,0.5-0.3c0.5,0,0.4-1.2,0.4-1.7
	c0-0.1,0.1-0.1,0.1,0l0.4,0.5c0,0,0.1,0.1,0.1,0.1c0.5,0.1,0.4-0.3,0.4-0.3l-0.8-1c-0.2-0.2-0.3-0.5-0.3-0.7c-0.1-0.7-0.1-1.7,0-2.1
	c0-0.1,0-0.2,0.1-0.4c0.2-0.4,0.1-0.9,0.1-0.9c-0.2-1.5,0.1-1.3,0.1-1.3c3.3,5,8.1,2.1,9,1.6c0.1,0,0.2,0,0.2,0
	c1.1,1.9,0.7,2.7,0.7,2.7c-0.4,0.8-0.1,0.6-0.1,0.6c1-0.8,0.4,2.1,0.4,2.1c0,0.7,0.4,0.2,0.4,0.2c0.4-0.5,1.7-0.3,1.7-0.3
	c0.4,0.2,0.8,0,1.1-0.2c0.2-0.1,0.4-0.2,0.6-0.2c0.8,0,1.8-0.2,1.8-0.2C37.3,46,34.1,45.3,34.1,45.3z M19.3,2.6
	c-0.3,0-0.6-0.2-0.6-0.4s0.3-0.4,0.6-0.4c0.3,0,0.6,0.2,0.6,0.4S19.6,2.6,19.3,2.6z"/>
</svg>
