<?xml version="1.0" encoding="utf-8"?>
<!-- Generator: Adobe Illustrator 19.1.0, SVG Export Plug-In . SVG Version: 6.00 Build 0)  -->
<svg version="1.1" id="Layer_1" xmlns="http://www.w3.org/2000/svg" xmlns:xlink="http://www.w3.org/1999/xlink" x="0px" y="0px"
	 viewBox="0 0 48 48" style="enable-background:new 0 0 48 48;" xml:space="preserve">
<style type="text/css">
	.st0{fill:#808080;}
</style>
<path class="st0" d="M44.5,37.3c0,0-3.6-0.7-5-0.8c-0.1,0-0.3-0.1-0.2-0.3c0-0.8-0.1-1.9-0.7-4.4c0-0.1-0.4-4.4-2.4-6.5
	c-0.4-0.5-0.8-1-1.1-1.5c-1-1.7-3.3-5.4-6.3-7.6c-0.3-0.2-0.5-0.4-0.8-0.7c-0.3-0.3-0.9-0.9-1.7-1.3c-0.5-0.3-1-0.7-1.4-1.2
	c-0.8-1-2.2-2.8-3.6-3.8c-1.1-0.7-1.6-2-1.4-3.3c0,0,0-0.1,0-0.1c0,0-0.1-2-0.6-2.6c0,0,0.3-0.7-0.5-0.8c-0.3,0-0.5-0.2-0.7-0.4
	C17.2,1,14-1.8,8.9,1.8C8.7,1.9,8.4,2,8.2,2.1C7.6,2.2,6.7,2.5,6.9,3c0,0-1,2,0,3.6C7.3,7.4,7.6,8.2,7.7,9c0.1,0.4,0.1,0.9,0.2,1.2
	c0.1,0.6-0.1,1.3-0.4,1.8c-0.6,1.1-1.7,3.6-0.5,5.6c0,0,4.8,7.9,4.5,9c0,0-1.9,12.8-2.7,13.2c0,0-1.6,1.5-3.6,1.2
	c0,0-0.6-0.2-1.2,0.4c0,0-0.3,0.2-1.9,0.5c0,0-0.4,0.2-0.1,0.3c0,0-0.2,0.7,0.5,0.6c0.1,0,0.2,0,0.3,0.1c0.2,0.2,0.6,0.4,1.1-0.2
	c0,0,0.1,0,0.2,0c0.1,0,0.2,0,0.2,0.1c0,0.1,0.1,0.3,0.4,0.3c0,0,0.7,0.1,0.8-0.4c0,0,1,0.4,1.4,0.3c0,0,0.7,0.4,1,0.2
	c0,0-0.8,1.4-0.1,2.2c0,0-0.1,1.4,0.5,1.3c0,0,0.5,0.1,0.5-0.7c0,0,0.2-1.6,0.6-2c0.2-0.2,0.4,0,0.4,0.2c-0.1,0.3-0.3,0.8-0.2,1.3
	c0,0-0.3,1.4-0.4,1.8c0,0-0.2,0.8,0.4,0.5c0,0,0.5,0.3,0.7-0.7l0.2-1.9c0-0.1,0-0.1,0.1-0.2c0.1-0.2,0.5-0.5,0.5,0
	c0,0-0.6,1.5-0.3,1.8c0,0,0,0.7,0.3,0.1c0,0,0.4,0.2,0.7-1c0,0,0.3-1.7,1.1-1.8c0,0,0.1,0,0.1,0c0.4,0.1,3.1,0.5,3-0.7
	c0,0,0.2-0.5,1.3-0.1c0,0,0.6,0.1,0.7-0.1c0,0,0.7,0.2,0.9-0.4c0-0.1,0.2-0.2,0.3-0.2c0.4,0.1,1.2,0.1,2.1-0.8c0,0-0.2,0.8,0.3,1
	c0,0,0.5,0.9,1.5,0c0,0,0.4-0.4,0.8-0.3c0,0,2,0.1,1.8-0.9c0,0,0-0.6-0.1-1.2c0-0.4-0.1-0.8-0.2-1.2c-0.2-0.6-0.4-1.5-0.3-2
	c0,0,2.9,4.2,6.5,3.1c0.3-0.1,0.5-0.1,0.8,0c0.4,0.1,0.9,0.4,0.8,0.6c0,0-1.9,0.6-3,0.7c-0.1,0-0.3,0-0.4,0c-0.3,0-1,0-1.2,0.2
	c0,0-0.9,0.1-1,0.8c0,0.1,0.1,0.2,0.2,0.3c0.2,0.1,0.7,0.1,1-0.2c0.1-0.1,0.2-0.1,0.3-0.1l0.6-0.1c0,0-0.1,0.3,0.1,0.4
	c0,0-0.4,0.6-0.2,0.7c0,0-0.2,0.7,0.9,0.5c0,0,1,0.3,1.5-0.2c0,0,0.8,0.5,1.3-0.1c0,0,6.2,0.5,4.7-3.9c-0.1-0.2,0.1-0.4,0.3-0.4
	l4.6,0.8c0.5,0.1,0.9,0,1.3-0.1c0.6-0.2,1.5-0.6,1.5-1.2C46.1,39.5,46.5,37.7,44.5,37.3z M16.7,5c0.5,0,0.9,0.3,0.9,0.7
	c0,0.4-0.4,0.7-0.9,0.7c-0.5,0-0.9-0.3-0.9-0.7C15.8,5.3,16.2,5,16.7,5z M13.1,4.9c0.4,0,0.8,0.3,0.8,0.7c0,0.4-0.4,0.7-0.8,0.7
	c-0.4,0-0.8-0.3-0.8-0.7C12.3,5.2,12.7,4.9,13.1,4.9z M15.7,35.1l-3.2,6.7l-1.6,0.1l1.9-4c3-4,4.3-11.5,4.3-11.5
	C19.7,28.5,15.7,35.1,15.7,35.1z M17.8,40.8l3.2-5.2l1,4.1C22.4,41.4,17.8,40.8,17.8,40.8z"/>
</svg>
