<?xml version="1.0" encoding="utf-8"?>
<!-- Generator: Adobe Illustrator 19.1.0, SVG Export Plug-In . SVG Version: 6.00 Build 0)  -->
<svg version="1.1" id="Layer_1" xmlns="http://www.w3.org/2000/svg" xmlns:xlink="http://www.w3.org/1999/xlink" x="0px" y="0px"
	 viewBox="0 0 48 48" style="enable-background:new 0 0 48 48;" xml:space="preserve">
<style type="text/css">
	.st0{fill:#808080;}
</style>
<path class="st0" d="M47.7,23.5l0.2,0.3c0,0,0.2-0.4-0.3-0.8c0,0-0.3-0.3-0.7,0c0,0-0.9,0.3-1.1,0.3l0.9-0.6c0,0,0.5-0.6,0.8-0.2
	c0,0,0.1,0.1,0.2,0.2l0,0.1c0,0,0.2-0.3-0.1-0.6c0,0-0.3-0.5-0.7-0.1c0,0-1.1,1.3-2.7,0.9c0,0,0.3-0.5,0.4-0.3c0,0,0.2-0.6-0.1-0.5
	c0,0-0.5,0.4-0.7,0.6c0,0-0.6,0.3-0.9-0.3l-2.7-3.9c0,0,0.7-0.5,0.4-1.4c0,0,0.3,0.1,0.3-0.4c0-0.4,0.1-0.7,0.3-1
	c0.7-1,2.1-2.9,3-3.3c0,0,1.1-0.6,2-1.9c0,0,0.3-0.7-0.1-0.7c0,0,0.3-1.1-1.2-0.9c0,0-0.8-0.4-1.2-0.9c0,0-0.5-0.6-1.6-0.1
	c0,0-0.5,0.6-1,0.6c0,0-0.9,0.1-1.5-0.5c0,0-0.4-0.5-0.6-0.1c0,0-0.1,0.1-0.2-0.1c0,0-0.5,0.2,0.2,0.4c0,0,0.1,0.4-0.1,0.4
	c0,0-0.8-0.2-1.8,0.9c0,0-0.8,0-0.7,0.6c0,0-0.8,1.2-0.4,1.5c0,0,0.6,0.5,1,0.7c0.1,0.1,0.2,0.2,0.1,0.3c-0.1,0.3-0.3,0.7-1.2,1.1
	c-0.1,0-0.2,0.1-0.2,0.2c0,0.2-0.1,0.4-0.3,0.1c0,0-0.2-0.3-0.6,0.1c-0.1,0.1-0.2,0.1-0.3,0c-0.5-0.3-2.2-1.2-4.7,0.5
	c0,0-2.5,2-3.9,2.2c0,0-5.7,0.8-4.1,2.4c0,0,1.3-0.1,0.5,0.2c0,0-0.6,0.3-1.3,0.2c0,0-2.2-0.3-2.9,0.2c-0.1,0.1-0.2,0.1-0.3,0
	c-0.4-0.1-1.5-0.4-1.7,0l-1.2,0c-0.1,0-0.1,0-0.2,0.1c-0.1,0.1-0.1,0.2-0.1,0.3c0,0-1.4,0.4-2.7,0c-0.1,0-0.1,0-0.1,0.1
	c0,0.2-0.1,0.4-0.2,0.4c0,0-0.5-0.3-1-0.3c-0.1,0-0.1,0.1-0.1,0.1c0,0.1,0,0.3-0.3,0.2c0,0-0.5,0-0.8,0.1c-0.1,0-0.1,0.2-0.1,0.2
	c0.1,0.1,0.3,0.4,0,0.4c-0.1,0-0.2,0-0.3,0.1c-0.2,0.2-0.7,0.6-1.4,0.6c0,0-0.3,0-0.5,0.3c0,0,0.1,0.1,0.1,0.2c0,0.1,0,0.2-0.1,0.2
	c-0.2,0-0.7,0.2-0.9,0.8c0,0-1-0.1-1,0.5c0,0-0.3,0.2-0.6,0.2c-0.1,0-0.2,0.1-0.2,0.2c-0.1,0.2-0.2,0.5-0.5,0.5c0,0-0.7,0.2-0.6,0.7
	c0,0-0.6,0.2-0.8,0.7c0,0-0.4,0.1-0.7,0.7c0,0-1.1,1-1.5,2.2c0,0.1-0.1,0.2-0.1,0.3c-0.2,0.5-0.9,2.5,1.3,4.6c0,0,1.3,1.4,4.7,2.6
	c8.3,2.3,17.3,3.2,26,3.2l10.4-0.8c0,0,6.9-1,4.7-1.5c0,0-5.1,1.1-8.7,1.2c0,0-9.8,0.6-12.5,0.1c0,0-10-0.9-16.3-2.7
	c0,0-6.3-1.1-8.2-4.6c0,0-1.5-2.1,4.9-4.5c0,0,7.1-2.1,14.7-2.2c0,0,0.2,0.1,0.4,0.1c0.2,0,0.4,0,0.5,0.1c0,0,0,0,0,0
	c0,0,0.1,0.1,0,0.2c-0.3,0.4-1.3,1.5-1.7,1.9c-0.2,0.2-0.3,0.4-0.5,0.6c-0.2,0.5-0.5,1.3-0.1,1.5c0,0-0.8,0-0.8,0.3
	c0,0-0.1,1.2,0.4,1.4c0,0-0.2-0.8,0.1-1.1c0,0,0.5-0.5,1.2-0.1c0,0,0.7,0.3,0.9,0c0,0,1.4-0.3,1.1,0.4c0,0-0.2,1,0.3,1.2
	c0,0,0.3,0.4,0.5,0.2c0,0,0.1,0.2,0.2,0.2l0,1.1c0,0,0.2-0.2,0.2-1.2c0,0,0.3-0.2,0-0.5c0,0-0.1-0.1-0.5-0.1c0,0-0.1-1.2,0.3-1.2
	c0,0,1,0,1.1,0.1c0,0,0.7,0.8,1.1,0.6c0,0,0.7-0.4,0.9,0c0,0,0,0.3,0.2,0.4c0,0,0.1,0.2,0,0.3c0,0,0.3-0.2,0-0.9
	c0,0-0.2-0.7-0.7-0.5c0,0-1,0.2-0.9-0.2c0,0,0.9-0.6,1.1-0.4c0.2,0.2,0,0,0,0c0,0,0.2,0.4,0.4,0.4c0,0,0.1,0.1,0,0.3
	c0,0,0.3-0.2-0.2-1c0,0-0.4-0.5-0.7-0.4l-0.5,0.3c0,0,0-0.5-0.2-0.7c0,0-0.5-0.4-0.8-0.2l-0.9,0.5c-0.1,0.1-0.2,0.1-0.4,0
	c-0.2-0.1-0.6-0.2-0.9-0.2c-0.1,0-0.2-0.2-0.1-0.2l2.6-2.9c0.2-0.2,0.4-0.3,0.6-0.3c1.2-0.1,5-0.6,9.6-2.4c0.1-0.1,0.3,0.1,0.2,0.2
	c-0.2,0.6-0.6,2,0.1,2.3c0,0,0.9,0.8,2.6,1.6c0,0-0.1,0.3,1.6,0.4l0.4,0c0,0,0,0.5,0,0.5c0,0,0.2-0.6,0.2-0.6s1.9,0.3,2.2-0.2
	c0,0,0.8-0.3,1.2,0.7c0,0,0.1-0.3-0.1-0.7c0,0,1.2,0,0.5-0.3l-0.7-0.1c0,0-0.2-0.2-0.3-0.2c0,0,0.4-0.3-0.5-0.2l-1.5,0
	c0,0,0.4-0.5-0.8-0.3c0,0-0.9-0.2-1.3-0.6l-2-1C37,24.2,36.9,24,37,23.8c0.3-0.5,0.9-1.5,1.1-2.1c0.1-0.2,0.2-0.4,0.4-0.6
	c0.2-0.2,0.5-0.4,0.5-0.7c0,0,0.2-0.4,0.5,0.2c0,0,0.9,2.1,2.5,2.8c0,0,0.3,0.2,0.4,0.4c0,0,0.4,0.4,0.7,0.3l0.1,0.4
	c0,0,0.2-0.5,0.4-0.5c0,0,1.3,0.2,1.5-0.2l0.4-0.2c0,0,0.2,0.5,0.2,0.7c0,0,0.2-0.2,0.1-0.6c0,0,0.8-0.2,1-0.4
	C46.9,23.4,47.6,23.1,47.7,23.5z M41.4,9.8c0.4,0,0.7,0.2,0.7,0.5s-0.3,0.5-0.7,0.5s-0.7-0.2-0.7-0.5S41,9.8,41.4,9.8z M24.1,29.2
	c0.1-0.1,0.8-0.7,1.1-0.3c0,0,0,0.3,0.3,0.3C25.5,29.2,24.9,29.8,24.1,29.2C24.1,29.2,24.1,29.2,24.1,29.2z"/>
</svg>
