<?xml version="1.0" encoding="utf-8"?>
<!-- Generator: Adobe Illustrator 19.1.0, SVG Export Plug-In . SVG Version: 6.00 Build 0)  -->
<svg version="1.1" id="Layer_1" xmlns="http://www.w3.org/2000/svg" xmlns:xlink="http://www.w3.org/1999/xlink" x="0px" y="0px"
	 viewBox="0 0 48 48" style="enable-background:new 0 0 48 48;" xml:space="preserve">
<style type="text/css">
	.st0{fill:#808080;}
</style>
<path class="st0" d="M47.7,29.4c0,0-0.2-0.9,0-1.3c0-0.1,0.1-0.1,0.1-0.2c0.1-0.5,0.1-2.3-3.8-3.9c-0.2-0.1-0.3-0.1-0.5-0.1
	c-0.6-0.1-2.4-0.3-4.4,0.2c-0.5,0.1-1-0.2-1.2-0.7c-0.4-1.1-1-3.3-0.9-6.2c0,0,0.2-4.9-4.5-7.2c0,0-0.1,0-0.1,0l0,0.3
	c0,0.1-0.1,0.2-0.2,0.1c-1.8-1.1-12.1-7.4-18.8-8c-0.2,0-0.4,0.1-0.4,0.3c0,0.5,0.2,1.4,2.1,2.2c0,0-2.6-0.2-3.4-0.1
	c-0.2,0-0.3,0.2-0.2,0.3c0.1,0.4,0.4,1,2.1,1.4c0,0-0.4,0.3,0.2,0.8l1.8,1.2c0,0-0.9,0.5,1.2,1.8c0,0-1.4,0.4-0.9,0.9
	c0,0,0.8,1,1.4,0.9c0,0-0.3,0.4-0.4,0.6c0,0.1-8.7-4-11.3-6.2C5.5,6.6,5.4,6.5,5.3,6.4C4.1,5.6-0.2,2.8,1.1,4c0,0,4.2,3,4.2,3.2
	c0,0-4.1-1.9-5.2-2.1C0,5.2,0,5.3,0,5.4c0.5,0.4,1.8,1.5,2.5,1.7c0,0,3.4,1.3,2.8,1.5c0,0-5-2.1-5.2-1.8c0,0,2.3,1.8,4.1,2.6
	c-0.6-0.3-2-0.8-2-0.5c0,0-0.2,0.8,2.9,2.4c0,0-1.8,0-0.2,1.1l1.4,0.9c0,0-0.5,0.4,2.2,1.7c0,0-0.6,0.2-0.1,0.6c0,0,1.3,1.1,1.9,1.1
	c0,0-0.5,0.9,1.9,1.6c0,0-0.2,1.3,2.2,1.8c0,0-0.3,0.6,0.1,0.9c0,0-0.3,0.8,0.5,0.9c0,0,0.3,0.7,0.8,0.7c0,0-0.2,2.1,0.7,1.9
	c0,0-0.3,1.9,1.2,1.4c0,0-0.1,2,0.6,2c0,0-0.3,1.2,0.5,1.3c0,0-0.7,0.7,0.6,1.2c0,0-0.4,0.8,0.2,1.1c0,0-0.2,0.9,2.1,1.2
	c0.1,0,0.3,0.1,0.3,0.3c0,0.5,0.4,1.4,3,0.2c0,0-4.3,5.1-13.7,8.1c0,0-4.8,1.3-7.5,1.3c0,0,3,0.6,8.4-1.1c0,0-4.9,2-9.1,2.8
	c0,0-1.6,0.9,3.6-0.2c0,0-2.5,1.9,2.7-0.4l2.8-0.9c0,0-5.6,2.7-3.4,2.1l5.7-2.5c-0.2,0.1-5.5,2.7-3.6,2.3l6.5-3.2
	c0,0-3.9,2.9-4.9,3.3c0,0-2,1.4-0.5,0.7l7.5-4.5l-4.7,3.8l0.8-0.5l4.3-3.2c0.1-0.1,0.3-0.1,0.4-0.1c0.5,0,1.7,0,2.6-0.5
	c0.3-0.2,0.7-0.3,1.1-0.3c1.1,0,3,0,4,0.8c0,0-0.6,0-0.6,0.2c0,0-1.1,0.5,0,1.1c0,0-1.1,0.6-1.4,0.8c0,0-0.1,0-0.2,0.1
	c0,0-1.6,1,0,1.6c0,0-0.8-0.8,0-1.1c0,0,0.4,0.8,0.6-0.1c0,0,0.5,0,0.5-0.2c0,0,0.6,0,0.6-0.3c0,0,0.7-0.1,0.7-0.5
	c0,0,0.6,0,0.5-0.5L29,42c0,0-0.1,1,0.2,0.9c0,0,0.1,0.9,0.4,1.2c0,0-0.1,0.1-0.3,0c0,0,0.2,0.3,0.4,0.3c0,0-0.4,0.5,0.4,0.5
	c0,0,0.2,0.4-0.8,0.4c0,0,0.6,0.5,1.1-0.1c0,0,0.2-0.9-0.1-1.3c0,0-0.6-3.1-1-3.3L28.5,40c-0.1-0.1-0.1-0.3,0.1-0.4
	c0.2-0.1,0.4-0.1,0.5-0.1c0,0,0,0.7,0.4,0.8c0,0-0.3-0.7,0.2-0.9c0,0,0.4,0.8,0.7-0.1l1-0.1l-1,1.4c0,0-1.1,1.2,0,1.7
	c0,0-0.4-0.8,0.1-1.2c0,0,0.7,0.5,0.7-0.4c0,0,0.4-0.2,0.3-0.5c0,0,0.5-0.2,0.5-0.4l0.3,0.2c0,0-0.6,0.2,0,0.5c0,0-0.3,1,0.4,0.5
	c0,0,0.2,0.6-0.6,0.8c0,0,0.3,0.3,0.8-0.4c0,0-0.3,0.9,0.5,0.7c0,0,0.3,0.8-1,1.1c0,0,1.5,0.4,1.3-1.4c0,0-0.3-2.2-0.8-3
	c-0.1-0.2,0-0.3,0.1-0.4c1.2-0.6,5.4-2.8,6.7-4.4c0,0,3.1-2.9,4-2.6c0,0,0.5,0.1,0.9-0.2c0.1-0.1,0.2-0.1,0.3,0
	c0.3,0.2,1.1,0.7,2.1,0.6c0,0,0.2,0.6-0.2,1.1C46.7,33.1,48.8,32.5,47.7,29.4z M27.4,42.1c0,0-0.5-0.7,0-0.6c0,0,0.2,0.3,0.5,0.2
	L27.4,42.1z M43.1,28.9c-0.4,0-0.7-0.3-0.7-0.6c0-0.4,0.3-0.6,0.7-0.6c0.4,0,0.7,0.3,0.7,0.6C43.7,28.6,43.4,28.9,43.1,28.9z"/>
</svg>
