<?xml version="1.0" encoding="utf-8"?>
<!-- Generator: Adobe Illustrator 19.1.0, SVG Export Plug-In . SVG Version: 6.00 Build 0)  -->
<svg version="1.1" id="Layer_1" xmlns="http://www.w3.org/2000/svg" xmlns:xlink="http://www.w3.org/1999/xlink" x="0px" y="0px"
	 viewBox="0 0 48 48" style="enable-background:new 0 0 48 48;" xml:space="preserve">
<style type="text/css">
	.st0{fill:#808080;}
</style>
<path class="st0" d="M47,28c-0.4-0.9-1.4-4.1-0.5-6.7c0,0,2-4.7-5.6-10.6c0,0-3.2-3-8.8-1.6c-0.3,0.1-0.6,0.1-1,0.2
	c-1.3,0.1-4.5,0.2-7.9-0.5c-0.2,0-0.4-0.1-0.6-0.2c-0.4-0.1-1.7-0.4-3.4,0.3c-0.3,0.1-0.6,0.2-0.9,0.3l-1.1,0.3
	c-0.2,0.1-0.4-0.1-0.4-0.3C16.6,8.7,16,7.6,13.2,10c-0.2,0.2-0.4,0.3-0.7,0.3c-0.8,0.2-2.8,0.9-3.9,3.9c0,0-1.9,6.2-2.3,8.8
	c0,0.1-0.1,0.2-0.2,0.2l-1.9,0.7c0,0-0.2,0.7,1.9,0c0.1,0,0.1,0,0.1,0.1c0,0.9-0.1,5.2-1.7,8.6c0,0-2,4.7-4.1,5.5
	c-0.1,0-0.1,0.1-0.2,0.1c-0.2,0.2-0.7,0.7,0.4,0.5c0,0,0.2,0,0.4,0.5c0,0,0.3,0.5,0.5,0c0,0,0.2-0.5,0.8-0.8c0,0,5.5-3.9,7.3-13.6
	c0.2-1.3,1.7-1.5,2.7-2.6c0,0,0.3-0.2,0.5,0.1c0.2,0.3,0.7,0.4,0.7,0c0-0.3,0.2-0.3,0.4-0.6c0.3-0.4,0.4-0.2,0.6-0.4
	c0,0,0.5,0.3,0.8,0.2c0,0,0.1,0,0.1,0.1c-0.1,0.4-0.3,2.1,0.9,1.8c0.1,0,0.2,0.1,0.2,0.2c-0.2,0.7-0.7,2.9-0.6,5.4
	c0,0-0.3,6-0.3,7.4c0,0.2-0.1,0.3-0.2,0.4c-0.5,0.5-1.9,2.2-1.1,2.2c0,0,4.6,0.6,4.8,0c0,0,0.2-1-0.4-2.1c-0.1-0.1-0.1-0.3-0.1-0.5
	c0.1-0.9,0.5-4.1,1.2-5.8c0,0,2.1-4.7,2.6-5.9c0.1-0.2,0.3-0.2,0.5-0.1c0.2,0.2,0.5,0.8,0.9,1.9c0,0,1.1,2.3,1.1,4.5
	c0,0.1,0,0.3,0,0.4c0,0.7-0.1,3.9,2.8,4.8c1.2,0.4,2,1.1,2.6,2c0,0,0.5,0.5,1.1-0.1c0.1-0.1,0.3-0.2,0.5-0.1c0.9,0.4,3.5,1.4,3.9,0
	c0,0,0.2-1.3,0.8-2.6c0,0,0.2-5.4,1.8-7c0.2-0.2,0.5-0.2,0.7-0.1c0.8,0.4,2.5,1.4,2.9,3.2c0,0,1.2,3.7,0.5,5c0,0-0.1,0.5-1.1,1.5
	c0,0-0.6,1,0.7,0.8c0,0,0.8,0.2,1.3,0.1c0,0,3,0.3,3.3-0.5c0,0,0.2-0.4-0.2-1.2c0,0-0.3-0.8-0.1-1.6c0,0,0.2-0.6-0.6-2
	c0,0-1.2-3-0.7-5.4c0,0,0.2-2.7-0.6-4.9c-0.1-0.2-0.1-0.3,0-0.5c0.1-0.6,0.5-2.1,0.5-2.9c0,0,0.2-0.2,0.2,0.4c0,0-0.3,2.9,0.4,4.8
	c1.2,3.6,0.6,1.9,0.5,3.2c0,0.2-0.1,0.3-0.1,0.4c-0.3,0.5-0.7,1.5,0.3,2.2c0.3-1.5,2.7-2.3,0.9-3.3C47.1,28.3,47,28.1,47,28z
	 M11.2,17.5c0,0,0.3-1,1.1-0.2C12.2,17.2,11.8,18.1,11.2,17.5z M32.3,36.2c0.3-3.3-2.5-1.7-2.5-1.7c-3-0.2-0.2-6.1-0.2-6.1
	c0.7-0.7,0.9-2,0.9-2c1.5,0.7,3.5,0.5,3.5,0.5C35.2,32.6,32.3,36.2,32.3,36.2z"/>
</svg>
