<?xml version="1.0" encoding="utf-8"?>
<!-- Generator: Adobe Illustrator 19.1.0, SVG Export Plug-In . SVG Version: 6.00 Build 0)  -->
<svg version="1.1" id="Layer_1" xmlns="http://www.w3.org/2000/svg" xmlns:xlink="http://www.w3.org/1999/xlink" x="0px" y="0px"
	 viewBox="0 0 48 48" style="enable-background:new 0 0 48 48;" xml:space="preserve">
<style type="text/css">
	.st0{fill:#808080;}
</style>
<path class="st0" d="M47.7,42.5c0,0-1.6-2.3-2-6.2c0-0.2,0-0.4,0.1-0.5c0.3-0.9,1.1-4-2.4-6.8c-0.6-0.5-1.1-1-1.5-1.6
	c-1.3-1.9-5.7-6.2-18-7.2c0,0,1.2-1.8-4.9-2.9c-0.3-0.1-0.5-0.5-0.3-0.7c0.9-1,2.5-3.4,2.9-7c0,0,2.1-7.1-2.4-6.2
	c-0.1,0-0.2,0-0.3,0c-0.2,0-1.2,0.4-4.2,3.7c-0.6,0.7-1.1,1.4-1.5,2.2c-1,1.9-2.7,5.6-2.9,8c0,0.3-0.4,0.5-0.6,0.4
	c-0.2-0.1-0.3-0.3-0.2-0.8c0,0-0.7-6.6-5.1-11.7c0,0-0.7-0.9-0.6-2c0,0-0.7-0.9-1-0.3c0,0-0.2,0.9,0,1.9c0.2,0.9,0.4,1.9,0.4,2.9
	c0.1,2.5,0.5,6.8,1,8.7c0.1,0.5,0.2,1,0,1.4c-0.1,0.6-0.3,1.5,0,2.2c0.1,0.2,0,0.3-0.1,0.5c-0.2,0.2-0.6,0.5-1,0.6
	c0,0-0.2,0-0.4,0.2l-0.7-1.1l0.5,1.2c0,0,0,0-0.1,0.1l-0.4-0.2l0.2,0.3c0,0,0,0,0,0l-0.4-0.1l0.3,0.3c0,0,0,0,0,0H2.1l0.2,0.2
	c0,0,0,0.1,0,0.1L1.9,22c0,0-1.3-1-1.9-0.8c0,0,1.6,0.7,2.2,1c0,0,0,0,0,0.1c-0.3-0.1-0.7-0.2-0.8-0.1c0,0,0.5,0.1,0.8,0.3
	c0,0,0,0,0,0.1c-0.3,0-0.7-0.1-0.8,0l0.8,0.2c0,0,0,0,0,0.1c0,0-1.8,1.2-0.3,2.9c0,0-0.5,0.3-0.2,0.7c0.1,0.1,0.2,0.3,0.1,0.5
	c-0.6,1.5-2.8,8.1,1.2,9.1c0,0,0.6,0.6,1.7,0.5c0.4,0,0.8,0.1,1.2,0.4c0.4,0.4,1,1,1.3,1.5c0,0,1.1,1.4,0.8,1.9c0,0-0.3,1.2-0.9,1.5
	c-0.1,0.1-0.3,0.1-0.4,0.1c-0.4-0.1-1.3-0.3-1.6,0.3c0,0-1.7,2.6-0.2,2.6c0,0,6.6,0.6,5.9-0.2c-0.1-0.1-0.1-0.1,0-0.2
	c0-0.2,0.1-0.4,0.3-0.7c0.1-0.1,0.1-0.3,0.1-0.4c0-0.3,0-0.9,0.3-1.4c0.2-0.3,0.3-0.7,0.3-1c0-0.1,0.1-0.2,0.2-0.1
	c0.7,0.3,3.1,1.3,4.5,0.9c0.1,0,0.3,0.1,0.2,0.2c-0.2,0.3-0.8,0.8-2.5,0.8c-0.1,0-0.2,0.1-0.3,0.2c-0.1,0.3-0.4,1-1.1,1.5
	c-0.1,0.1-0.1,0.2,0,0.2c0,0.1,0.1,0.2,0.1,0.5c0,0.1,0.1,0.2,0.2,0.2l3.2,0.1c0,0,4.4,0.5,4.5-0.6c0-0.2,0-0.3,0.1-0.5
	c0.2-0.5,0.7-1.5,1.3-1.3c0,0,2.5,0.6,3.2-0.1c0.1-0.1,0.4-0.2,0.6-0.2c0.5,0.1,1.3,0.4,0.9,0.7c-0.1,0.1,0,0.3,0.1,0.3
	c0.8,0.2,2.8,0.5,4.5,0.3c0.5-0.1,0.9-0.4,1-0.9c0.2-0.9,0.7-2.2,1.3-2c0,0,1.9,0.1,2.4,1.7c0,0.1,0.2,0.2,0.3,0.2
	c0.9,0,4.1,0.1,4.2-0.7c0,0-0.1-2.1,0.7-2c0.2,0,0.3,0.2,0.2,0.4c-0.2,0.7-0.8,2.7-1.2,3.5c-0.1,0.1,0,0.3,0.1,0.4
	c0.1,0,0.2,0,0.3,0c0,0,5.2,0.5,5.4-0.2c0-0.1,0.1-0.1,0.1-0.1c0.1,0,0.3,0,0.5,0.1C46.9,44.2,48.7,44.6,47.7,42.5z"/>
</svg>
