<?xml version="1.0" encoding="utf-8"?>
<!-- Generator: Adobe Illustrator 19.1.0, SVG Export Plug-In . SVG Version: 6.00 Build 0)  -->
<svg version="1.1" id="Layer_1" xmlns="http://www.w3.org/2000/svg" xmlns:xlink="http://www.w3.org/1999/xlink" x="0px" y="0px"
	 viewBox="0 0 48 48" style="enable-background:new 0 0 48 48;" xml:space="preserve">
<style type="text/css">
	.st0{fill:#808080;}
</style>
<path class="st0" d="M47.3,32.8l-1.7-1.2c-0.2-0.1-0.3-0.4-0.2-0.6c0.6-1.9,3.2-10.3-5.1-15.9C40.2,15.1,40.1,15,40,15
	c-0.9-0.7-8.8-5.4-21.5,0.6c-0.1,0.1-0.3-0.1-0.3-0.2c0.3-1.2,1-4.4-0.7-4.7c0,0-3,0-6,6c0,0.1-0.1,0.2-0.2,0.2
	c-0.3,0.1-1.1,0.3-2-0.8c0,0,0,0-0.1-0.1C9,15.7,7,13.2,4,12.6c0,0-2.9-1.1-3.5-1.4c-0.1,0-0.1,0-0.2,0c-0.2,0.1-0.5,0.3-0.3,0.5
	c0,0,0.9,1,1.4,1.8c0.1,0.1,0.1,0.2,0.2,0.2c-0.1-0.1-0.2-0.2-0.2-0.2c0,0,0.4,0.5,0.2,0.2c0.8,0.8,3.9,4.3,4.6,4.8
	c0.1,0.1,0.2,0.2,0.2,0.4c0,0.1,0,0.3-0.2,0.3c0,0-1.6,1-1.5,2.6c0,0,0,0.1,0,0.1c0,0.3,0,1.5-0.9,3.1c-0.3,0.5-0.5,1-0.6,1.6
	c-0.3,1.6-0.3,4.5,3,5.3c0.1,0,0.2,0.1,0.2,0.2c0.1,0.3,0.6,0.8,1.2,0.2c0.1-0.1,0.3-0.1,0.4,0c0.3,0.3,1.1,1,1.5,1.3
	c0.1,0.1,0.2,0.2,0.1,0.3c-0.2,0.3-0.7,0.7-2,1c-0.2,0-0.3,0.1-0.4,0.2c-0.4,0.5-1.5,1.7-0.3,1.7c0,0,5.6,0.3,7.7-0.8
	c0.1-0.1,0.3-0.1,0.4-0.1l0.5,0.1c0.1,0,0.1,0.1,0.1,0.1c-0.1,0.2-0.2,0.4-0.6,0.5c0,0-0.9,0.5,0.2,0.7c0,0,1.8,0.2,2.2-0.1
	c0,0,0.1,0,0.1,0c0.2,0.1,0.9,0.4,1.4,0.1c0.1,0,0.1,0,0.2,0c0.3,0.1,1,0.2,1.9-0.1c0,0,3.3-1.3,10.7-0.7c0.1,0,0.1,0.1,0.1,0.2
	c-0.3,0.3-0.5,0.9,2.1,0.7l5.2-0.2c0,0,3.5,0.2,3.8-0.9c0-0.1,0.1-0.1,0.2-0.1c0.7,0.1,3.5,0.4,4.3-1c0.1-0.1,0.2-0.2,0.3-0.3
	C47.8,34.3,48.5,33.6,47.3,32.8z M11.8,23.8c0,0-0.3,0-0.5,0.2c0,0-0.4-3,1.3-2.3C12.5,21.8,14.1,23.4,11.8,23.8z"/>
</svg>
