<?xml version="1.0" encoding="utf-8"?>
<!-- Generator: Adobe Illustrator 19.1.0, SVG Export Plug-In . SVG Version: 6.00 Build 0)  -->
<svg version="1.1" id="Layer_1" xmlns="http://www.w3.org/2000/svg" xmlns:xlink="http://www.w3.org/1999/xlink" x="0px" y="0px"
	 viewBox="0 0 48 48" style="enable-background:new 0 0 48 48;" xml:space="preserve">
<style type="text/css">
	.st0{fill:#808080;}
</style>
<path class="st0" d="M29.6,15.1c-1.6-0.4-5.2-1.1-8.9-0.7c-0.1,0-0.2-0.2-0.1-0.3l0.4-0.4c0.2-0.1,0.1-0.4-0.1-0.4l-2,0
	c-0.1,0-0.2-0.2,0-0.2l2.4-0.9c0.1,0,0.1-0.2,0-0.2c-0.3-0.1-0.9-0.3-2.3,0.1c0,0,3-2,3.7-6.3c0,0,1.8-5.3-0.6-4.7
	c-0.8,0.2-1.1,0.2-1.1,0.2c0.1,0,0.9-0.2,0.9-0.2c0,0-5,3.1-5.7,4.6c0,0-0.2-4.5-1.2-5.2c0,0-2.5-1.8-4.2,1.7c0,0-0.9,1.5-0.9,4.8
	c0,0.4-0.2,0.8-0.6,1C7.8,8.8,4.4,11,3.1,16.2c-0.1,0.4-0.3,0.7-0.5,1c-0.8,1.1-2.6,4.2,1,5.5C3.9,22.7,4,23,3.9,23.2
	c-0.5,1.1-1.3,4.5,3.2,9.2c0,0,1.9,3.2,7.1,5.8c0.4,0.2,0.8,0.6,1,1.1c0.4,0.9,0.6,2.5-1.4,4c0,0-4.3,4.3,0.2,3.3
	c0,0,3.5,2.1,10.2,1c0,0,10.4,0.4,10.7-0.8c0,0,10.4,2.3,11.1-1.8c0,0,4.3-20.1-14.7-29.3C30.8,15.5,30.2,15.3,29.6,15.1z M8.9,16.2
	c0,0,0.4-3.8,2.8-2.1C11.7,14.1,12.9,16.8,8.9,16.2z M21.9,42.8c0,0-1.8,0.7-2.2,0c0,0,1.6-1.6,1.6-2.6c0,0,1.1-1.2,1.6,0.9
	C22.9,41.1,21.7,42.5,21.9,42.8z"/>
</svg>
