<?xml version="1.0" encoding="utf-8"?>
<!-- Generator: Adobe Illustrator 19.1.0, SVG Export Plug-In . SVG Version: 6.00 Build 0)  -->
<svg version="1.1" id="Layer_1" xmlns="http://www.w3.org/2000/svg" xmlns:xlink="http://www.w3.org/1999/xlink" x="0px" y="0px"
	 viewBox="0 0 48 48" style="enable-background:new 0 0 48 48;" xml:space="preserve">
<style type="text/css">
	.st0{fill:#808080;}
</style>
<path class="st0" d="M47.4,21.6c0-0.2-0.1-0.6-0.8-0.8c0,0-2.7-2.3-7.7-1.9c-0.1,0-0.2,0-0.3,0c-0.2,0-0.4-0.1-0.6,0
	c0,0-0.7-0.3-0.9,0c0,0-0.5-0.1-0.4-0.5c0-0.2,0.1-0.3,0.2-0.5c0.5-0.5,2.3-2.4,2.6-5.8c0,0,0.7-0.8,0.4-1.9c0,0,0.7-7-0.2-6.1
	l-0.4,0.5c0,0-0.4-0.4-0.6,0.7c0,0-1.6,2.8-2.6,3.8c0,0-0.5,0.3-0.6,0.6c-0.1,0.4-0.3,0.8-0.6,1.1l0,0c0,0.1-0.1,0.1-0.1,0.2
	c0,0.1-0.1,0.2-0.4,0.2c0,0-0.6,0.1-0.5,0.9c0,0-0.1,0.6-0.6,0.8c0,0-0.4,0-0.4,1.2c0,0-0.2,0.5-0.2,0.9c0,0.1-0.1,0.2-0.2,0.1
	c-1.2-0.6-5.5-2.5-12.7-0.9c-0.2,0-0.4,0.1-0.6,0.1c-1.4,0.2-8.7,1.6-15,6.8c-0.2,0.2-0.4,0.3-0.6,0.3c-0.5,0.1-1.3,0.4-0.7,0.8
	c0,0-0.6-0.1-0.8,0.9c0,0.2-0.2,0.5-0.4,0.6C1.1,24,0,25.1,0,27c0,0,0,0.1,0,0.1c0.1,0.2,0.3,0.7,0.5-0.1c0-0.1,0.1-0.2,0.2-0.2
	C1.1,26.6,2.8,25.6,3,26c0,0,0.7,1.9,1.1,2.6c0.1,0.2,0.1,0.4,0.1,0.5c-0.1,0.3-0.2,0.6-0.6,0.9c0,0-0.5,0.4-0.6,1.1
	c0,0-0.6,0.3-0.3,0.7c0,0-0.8,0.7-0.1,1.5c0,0-0.2,2.2,0.7,2.6c0.1,0.1,0.2,0.1,0.3,0.2c0.3,0.4,1,1.1,2,0.5
	c1.1-0.6,1.9-1.5,2.1-2.7c0.1-0.3,0.2-0.7,0.3-0.9c0.1-0.1,0.2-0.1,0.3,0c0.7,0.6,4,3.5,10.1,3c0,0,10.9-0.3,14.6-7.1
	c0,0,0.7,0-0.1,0.9c0,0-0.5,0.4,0.1,0.9c0,0-0.6,0.4-0.4,1.1c0,0-0.5,0.3-0.7,1.7c0,0-1.2,1.4-1.5,2.4c-0.1,0.3-0.3,0.6-0.5,0.8
	c-0.2,0.2-0.4,0.5-0.4,0.9l-2.2,1.6c0,0-2.2,0.9-1.4,1.7c0,0-0.7,1.1-0.6,1.4c0,0-0.7,0.2-0.2,0.7c0,0,1.5,1.9,5.5,0.2
	c0.1-0.1,0.3-0.1,0.4,0c0.3,0.1,0.8,0.1,1.2-0.4c0,0,1.6-0.8,2.3-1.4c0.2-0.2,0.4-0.3,0.6-0.4c0.4-0.2,1.1-0.5,1.2-1
	c0,0,0.7,0.5,1.6-1.1c0,0,2.7-5.2,2.7-7.1c0,0,0-4.5-2.3-5c-0.1,0-0.1,0-0.2,0c-0.5,0-2.7-0.1-3.3-0.5c-0.1,0-0.1-0.1-0.1-0.2
	c0.2-0.5,1-1.9,2.7-1.8c0.1,0,0.2,0,0.3-0.1c0.1-0.1,0.3-0.2,0.4,0c0,0.1,0.1,0.1,0.2,0.1c0.3,0,1.3,0.1,1.5,0c0,0,0,0.3,1.8,0.3
	c0,0,2.1,0.2,3.1-0.1c0.1,0,0.3-0.1,0.4-0.1c0.5,0,1.6-0.1,1.9-0.5l0.9-0.1c0,0,0.4-0.7-0.4-2C47.5,21.8,47.4,21.7,47.4,21.6z
	 M45.4,22.3c-0.2,0-0.3-0.1-0.3-0.3s0.1-0.3,0.3-0.3s0.3,0.1,0.3,0.3S45.5,22.3,45.4,22.3z"/>
</svg>
