<?xml version="1.0" encoding="utf-8"?>
<!-- Generator: Adobe Illustrator 19.1.0, SVG Export Plug-In . SVG Version: 6.00 Build 0)  -->
<svg version="1.1" id="Layer_1" xmlns="http://www.w3.org/2000/svg" xmlns:xlink="http://www.w3.org/1999/xlink" x="0px" y="0px"
	 viewBox="0 0 48 48" style="enable-background:new 0 0 48 48;" xml:space="preserve">
<style type="text/css">
	.st0{fill:#808080;}
</style>
<path class="st0" d="M18.9,17.4c-1.1,0.5-2.1,1.1-3.1,1.8l-9.3,6.7c0,0-8.4,5.6-6,6.7c0,0-0.7,0.7,2.2,0.4c0,0,1.3-0.1,3-0.9
	c0.4-0.2,0.8-0.3,1.2-0.4c1.2-0.2,3.8-1,6.8-3.5c0.6-0.5,1.2-0.9,1.8-1.2c0.7-0.3,1.5-0.7,2.2-0.9c0,0,1.3-0.7,2.5-2.6
	c0,0,1.4-2,5.9-1.8c0,0,0.5,0.2,1-0.2c0,0,1.4-0.8,2.2,0c0,0,2.5,1.4,3.7,0.8c0.2-0.1,0.4-0.2,0.6-0.1c0.3,0,0.6,0,0.8-0.1
	c0,0,0.7-0.2,1.5,0.7c0,0,2,2.3,3.3,2.3c0.2,0,0.4,0.1,0.6,0.3c0.2,0.2,0.5,0.6,0.9,0.7c0,0-0.1,1.9,2.1,1.7c0,0,0.8,0.1,1.6,1.6
	c0,0,0.1,0.3,0.7,0.5c0,0,0.4,0.7,1.3,1.3c0.1,0.1,0.3,0.2,0.4,0.4c0.3,0.5,1,1.5,1.1-0.1C48,31.3,40.8,7.5,18.9,17.4z M1.5,31.6
	c-0.2,0-0.4-0.2-0.4-0.4c0-0.2,0.2-0.4,0.4-0.4c0.2,0,0.4,0.2,0.4,0.4C1.9,31.4,1.7,31.6,1.5,31.6z"/>
</svg>
