<?xml version="1.0" encoding="utf-8"?>
<!-- Generator: Adobe Illustrator 19.1.0, SVG Export Plug-In . SVG Version: 6.00 Build 0)  -->
<svg version="1.1" id="Layer_1" xmlns="http://www.w3.org/2000/svg" xmlns:xlink="http://www.w3.org/1999/xlink" x="0px" y="0px"
	 viewBox="0 0 48 48" style="enable-background:new 0 0 48 48;" xml:space="preserve">
<style type="text/css">
	.st0{fill:#808080;}
</style>
<path class="st0" d="M45.9,28.7c0,0-5.9-1.7-5.4-1.8l5-0.4c0.1,0,0.1-0.1,0.1-0.2c-0.3-0.3-1.2-0.8-3.3-1c0,0-0.1,0-0.1,0
	c-0.6-0.1-5-0.9-4.7-1.3c0,0,2.6,0.6,0.9-1.5c-0.2-0.3-0.5-0.5-0.8-0.6c-0.4-0.2-1.2-0.4-2.4-0.5c-1.5-1.2-2.7-1-3.7-1.4
	c-0.9-0.4-2.8-1.4-5.5-3.2c-1.4-1-3.9-2.2-4.9-2.5c-0.2-0.1-0.5-0.2-0.7-0.3c-0.8-0.5-2.8-1.8-4.3-1.8c-0.2,0-0.4-0.2-0.4-0.4
	c-0.1-1.2-0.6-4.5-3.1-5.6c0,0,0,0-0.1,0C12.1,6,10.4,5.3,8,6.2C7.8,6.3,7.7,6.4,7.5,6.5c-0.5,0.3-1.6,1-2,1.9
	C5.2,8.8,4.9,9.2,4.5,9.5c-0.4,0.3-0.9,0.6-1.4,0.7c0,0-3.1,0.9-3.1,2.8c0,0,0.9-0.3,1.6-0.4c0.2,0,0.4-0.1,0.6-0.1
	c0.6-0.3,2.2-0.9,3.1-0.5c0.1,0,0.1,0.1,0.2,0.2c0.1,0.1,0.2,0.2,0.5,0.1c0,0,0.6,0.2,0.4,0.5c0,0-4.1,3.8-0.2,8.3
	c0.9,1,3.3,5.2,7.2,6.9c1.2,0.5,1.8,1.6,1.8,2.2c0,0,0.2,2.3-0.2,2.8c0,0-0.4,0.3,0,1.5c0,0-0.7,6.6-1.4,6.7c0,0-2.8,0.1-2.9-0.1
	c0,0-0.5-0.4-0.7,0c0,0,0.4,0,0.3,0.2c0,0,0.1,0.2,0,0.2c0,0-0.6,0.1-1.1-0.1c0,0-0.4-0.1-0.5,0.3c0,0,0.2-0.2,0.3-0.1
	c0,0-0.1,0.3,0.7,0.4l3.6,0.1c0,0,1.2-0.1,1.3,0c0,0,0.4,0.1,0.6-0.3c0,0,0.5,0.1,0.2-0.8c0,0,0.8,0.4,0.9,0c0,0,0.2,0.5,1.1,0.3
	c0,0-0.2,0.3-0.2,0.4c0,0,0.2-0.2,0.2-0.1c0,0-0.1,0.3,0.6,0.3c0,0,3.1,0,2.8-0.3c0,0,1.9,0.3,1.9-0.3c0,0-0.1-0.8,0.1-0.8
	c0,0,0.1-0.3-0.3-0.7c0,0-0.7-4.4-0.6-6.6c0-0.4,0-0.8-0.2-1.2c-0.2-0.5-0.4-1.1-0.5-1.4c0-0.1,0-0.1,0.1-0.1
	c0.5,0.2,1.9,0.6,3.5,0.2c0.2-0.1,0.5-0.1,0.7-0.1c0.7,0,2.2-0.1,2.8-0.2c0.3-0.1,0.5-0.1,0.8,0c1.1,0.1,3.6,0.3,3.7-0.2
	c0-0.1,0.1-0.1,0.1-0.1c0.7,0.1,4,0.9,5.1,1c0,0,0.1-0.1,0-0.1c-0.6-0.2-2.2-0.8-1.9-0.8c0,0,3.3,0.9,6.2,0.7c0.1,0,0.2,0,0.3,0
	c0.9,0.1,5.3,0.3,3.9-0.8c-0.1,0,0-0.1,0-0.1l1.2-0.1c0.1,0,0.2-0.1,0.1-0.2C48,29.5,47.6,28.9,45.9,28.7z M7.5,8.8
	c0,0,0.4-1.2,1.5-0.3C9,8.5,8.5,9.8,7.5,8.8z M21.4,39.7c0.1,0.9-0.3,1.1-0.3,1.1c-0.9-0.1-2,0.1-2,0.1l-2.2,0c-0.7-0.3-1,0-1,0
	c-1.2-0.3,0-5.7,0-5.7c0.5-1.1,0.3-1.3,0.3-1.3c0.5-0.6,0.1-1.6,0.1-1.6L16.1,30c2.9-0.4,3.9,0.4,3.9,0.4c0.3,0.6,0.4,2.3,0.4,2.3
	C19.6,33,20.7,34,20.7,34C20.9,34.4,21.4,39.7,21.4,39.7z"/>
</svg>
