<?xml version="1.0" encoding="utf-8"?>
<!-- Generator: Adobe Illustrator 19.1.0, SVG Export Plug-In . SVG Version: 6.00 Build 0)  -->
<svg version="1.1" id="Layer_1" xmlns="http://www.w3.org/2000/svg" xmlns:xlink="http://www.w3.org/1999/xlink" x="0px" y="0px"
	 viewBox="0 0 48 48" style="enable-background:new 0 0 48 48;" xml:space="preserve">
<style type="text/css">
	.st0{fill:#808080;}
</style>
<path class="st0" d="M20.4,15.9c0,0-4.7,1.7-5.9,2.2c0,0-0.9,0.4-4.8,0.2c0,0-6.6-0.7-9.5,2.7c0,0-1.4,1.5,3.8,1.7
	c0,0,10,1.6,15.8-0.4c0.1,0,0.2,0.1,0.1,0.2l-1.1,1.3c-0.1,0.1-0.2,0.3-0.4,0.4c-0.4,0.3-1.3,1.1-1.4,1.6c0,0,0.5-0.4,1-0.7
	c0.5-0.4,0.9-0.8,1.3-1.3l1.2-1.5c0.1-0.1,0.2-0.2,0.3-0.2c0.6-0.2,2.8-0.8,2.5-2.8c0,0,0.8,0.6,0.5,3.5l0.1,6.6l-0.1,8.6l0.5,3.6
	c0,0,0.6-0.7,0.1-1.8c0,0,0.9-0.6,0.7,0.5c0,0-0.3,1.4,0.3,1.6l0.3-3.5l-0.2-15.3c0,0-0.3-2.6,0.2-3.9c0,0-0.1,1.8,1.9,2.5
	c0.4,0.1,0.7,0.4,0.9,0.7l1.5,2.3c0.1,0.1,0.1,0.1,0.2,0.2c0.3,0,0.9,0.3,1.5,1.5c0,0,0.5-0.1,0.3-0.4c0,0-0.7-1.2-1.3-1.4
	c-0.2-0.1-0.3-0.2-0.4-0.3l-1-1.6c-0.1-0.2,0-0.3,0.2-0.3c1.3,0.3,5,1.2,8.7,0.8c0,0,12.4,0.1,9.2-2.8c0,0-1.7-2.9-11-2.3
	c-0.9,0.1-1.7,0-2.6-0.2l-7.9-1.7c0,0-0.2-0.4,0.4-0.2c0,0,7.6,1.8,11.4-0.9c0.5-0.3,1-0.6,1.5-0.9c1.8-0.8,5.3-2.4,6.4-2.8
	c0,0,2.7-1.8-0.2-2.5c0,0-3.7-1.3-9.3,1.8c-0.1,0.1-0.3,0.4-5,0.9c0,0-4.2,0.3-5,1.5l-0.1-0.4c0,0,2.6-0.9,2.1-2c0,0-0.9-2.3-1-2.5
	c0,0,0.7-1.4-0.1-1.6c0,0,0.3,0.9-0.3,1.3c0,0-0.1,0.3,0.2,0.9l0.6,1.8c0.1,0.2,0,0.4-0.2,0.5c-0.5,0.3-1.6,1-1.8,1.1
	c0,0-0.1,0-0.2-0.1c-0.2-0.1-0.2-0.4,0.1-0.5c0.4-0.1,1-0.4,0.8-1.2c0,0-0.1-0.7-1.1-0.6c0,0-0.1,0-0.1-0.1l0,0c0-0.1,0-0.2,0.1-0.2
	c0.2-0.2,0.6-0.5-0.1-0.1c0,0-0.1,0-0.1,0c-0.2-0.1-0.7-0.2-1.2,0.1c0,0-0.1,0-0.1,0c-0.2-0.1-1-0.4-0.3,0.2c0,0,0.1,0.1,0.1,0.2
	c0,0.1,0,0.1-0.1,0.1c-0.2,0-1.3,0.2-1,1.2c0.1,0.3,0.3,0.5,0.5,0.6c0.2,0.1,0.5,0.2,0.8,0.1c0,0-0.1,0.4-0.3,0.4
	c0,0-1.2-0.5-1.9-0.8c-0.2-0.1-0.4-0.3-0.4-0.6c0-0.7,0.1-2.1,0.3-2.7c0,0,0-0.1,0-0.1c0-0.2,0-1.2,0.6-1.6c0,0-0.9-0.2-0.9,1.6
	c0,0.2,0,0.3-0.1,0.5c-0.2,0.5-0.6,1.9-0.4,2.8c0,0-0.3,0.4,2.5,1.4l-0.2,0.4c0,0-2-1.3-4.7-1.1c-2.7,0.2-4.7,0.4-7.8-1
	c0,0-5.5-3-10.3-0.2c0,0-0.8,1.6,2.3,2.8c0,0,7.8,3.9,12.5,3.2C14.9,16.6,19.9,15.1,20.4,15.9z"/>
</svg>
