<?xml version="1.0" encoding="utf-8"?>
<!-- Generator: Adobe Illustrator 19.1.0, SVG Export Plug-In . SVG Version: 6.00 Build 0)  -->
<svg version="1.1" id="Layer_1" xmlns="http://www.w3.org/2000/svg" xmlns:xlink="http://www.w3.org/1999/xlink" x="0px" y="0px"
	 viewBox="0 0 48 48" style="enable-background:new 0 0 48 48;" xml:space="preserve">
<style type="text/css">
	.st0{fill:#808080;}
</style>
<path class="st0" d="M47.1,6.6c-0.2-0.2,0-3.3-2.3-4.1c0,0-0.3-0.9-0.7-0.7c0,0-0.2,0.1,0.1,0.4c0,0,0,0,0,0.1
	c0,0.1-0.1,0.2-0.4-0.2c0,0-1.3-1.4-1.5-0.9c0,0,0.2,0.5,0,0.4c0,0-0.9-1.1-1.3,0.2c0,0-4.3-0.5-5,2.3c0,0-3.4,1.1-4.1,3.9
	c-0.1,0.5-0.4,1-0.7,1.4c-0.3,0.3-0.5,0.6-0.9,0.9c-0.6,0.6-1.5,1-2.3,1c-1.7,0-5.2,0.1-6.8,0c-0.5,0-1-0.1-1.4-0.2
	c-1.2-0.3-4-1-4.7-1.1c-0.1,0-0.1-0.1-0.2-0.2c0-0.2-0.1-0.4-0.4-0.6c0,0-0.1,0-0.1,0.1l0,0.4c0,0-0.4-0.5-0.8-0.4
	c-0.1,0-0.1,0.1-0.1,0.1l0,0.1c0,0.1,0,0.2-0.1,0.2c-0.6-0.1-2.3-0.3-3.8,0.4c-0.1,0-0.2,0.1-0.3,0.1c-0.6,0.2-2.4,0.9-3.3,2.1
	c-0.1,0.1-0.2,0.2-0.4,0.2c-0.3,0-0.8,0-1.7,0c0,0-0.2,0-0.3,0.4c0,0,0.8,0.1,0.3,0.2c0,0-2.8,1.4-3,1.7c0,0,0.7-0.4,1.1-0.3
	c0,0-1.7,0.6-1.9,1.9c0,0.1,0.1,0.1,0.1,0.1c0.1,0,0.2-0.1,0.2-0.1c0,0-0.4,0.6,0.2,1.2c0,0,0.1,0,0.2,0l0,0c0,0,0.1,0,0.1,0
	C1,17.8,1.3,18.4,2,18.4c0.1,0,0.2,0.1,0.1,0.2c-0.1,0.3-0.2,0.7,0.1,1.1c0,0,0.6,1.1,0.8,0.1c0,0,0.3-0.4,0.2,0.9
	c0,0,0,0.9,0.4,1.2c0,0,0.1,0.1,0.1,0.1c0.2,0.1,1.2,0.3,1.7-0.6c0,0,0.2,0.3,0.5,0.2c0,0-1.1,0.8,0.9,0.5c0,0-0.4,0.4-0.8,0.5
	c-0.1,0-0.1,0.1-0.1,0.2c0.1,0.2,0.5,0.6,1.3,0.7c0.1,0,0.2,0.1,0.3,0.2C7.6,24,8,24.5,8.9,24.6c0,0-1.1,1.8,0.2,2.2
	c0.1,0,0.2,0.2,0.2,0.3c0,0.7,0.2,2.5,2.1,2.9c0,0,0.8,3.4,1.9,4.2c0,0,0.1,0,0.1-0.1c-0.1-0.3-0.2-0.8,0.3,0l2.1,2.5
	c0.2,0.2,0.2,0.4,0.2,0.7c-0.1,0.4,0,0.9,0.5,0.6c0,0,0.2,0.3-0.1,0.6c0,0,0.3-0.2,0.4-0.5c0,0-0.1,0.6-0.4,0.7c0,0,0.7-0.2,0.8-1
	c0-0.1,0.1-0.1,0.1,0c0.2,0.2,0.6,0.6,0.6,0c0,0,1.2,0.7,2.1,0.7c0.2,0,0.4,0.1,0.6,0.3c0.6,0.7,2,2.8,3.6,5.3
	c0,0.1,0.1,0.1,0.2,0.2c0.3,0.4,1.4,1.6,2,1.7c0,0,0.4,0.4-0.5,0.9c0,0,0.9,0.5,1.7-0.6c0,0,0.6-1-0.7-1.5c0,0,0.7-0.4,1.7-0.3
	c0,0,1.6-0.5,2.2-0.3c0,0,0.9-0.5,1.4,0.2c0,0,0.3,0.3,0.7,0.1c0,0,0.2,0.8,0.1,1c0,0,0.8-0.5,0.1-1.7c0,0-0.1-1.8-2.3-1.1
	c0,0,0.3-1.4-2.7-0.3c0,0-0.8,0.2-1.3,0c0,0-0.2-0.5-0.9-0.4l-3-3.5c0,0,0.9-0.1,1.4-0.2c0.1,0,0.2-0.1,0.1-0.2
	c-0.1-0.1-0.1-0.3,0.6-0.1c0,0,1.3-0.8,1.5-0.3c0,0,0.2,3.7,0.9,3.3l0.9-0.5c0.1-0.1,0.3,0,0.4,0.1c0.2,0.2,0.7,0.6,1.6,0.5
	c0,0,0.4,0.7,0.9,0.6l0.1,0.6c0,0,0.5-0.3,0.3-1.2c0,0,0.9-0.6,1.9-0.1c0,0,1.4-0.4,2,0.1c0,0,0.7,0.2,0.8-0.2c0,0,1,0,1.2,0.2
	c0,0-0.5-0.8-1.2-0.8c0,0-0.6-1-3.2-0.5c0,0,0-0.4-1.1-0.4c0,0-0.1-0.4,1.1-0.3c0.2,0,0.3-0.1,0.4-0.2c0.1-0.1,0.3-0.3,0.8-0.3
	c0,0,3.8-1.9,4.2-4.2c0-0.3,0.3-0.5,0.6-0.5c1,0.1,2.9-0.2,4.4-3.1c0.1-0.2,0.2-0.3,0.3-0.5c0.6-1,3.2-5.6,1.8-10.5
	c-0.1-0.3-0.1-0.5-0.2-0.8L44,11.3c0-0.3,0.1-0.6,0.4-0.7c0.6-0.2,1.6-0.8,1.5-2.3c0-0.1,0.1-0.1,0.1-0.1c0.5,0.2,1.9,0.7,2,0.8
	C48,9,48.2,7.9,47.1,6.6z M42.1,6.1c-0.4,0-0.8-0.2-0.8-0.5c0-0.3,0.4-0.5,0.8-0.5c0.4,0,0.8,0.2,0.8,0.5
	C42.9,5.9,42.5,6.1,42.1,6.1z"/>
</svg>
