<?xml version="1.0" encoding="utf-8"?>
<!-- Generator: Adobe Illustrator 19.1.0, SVG Export Plug-In . SVG Version: 6.00 Build 0)  -->
<svg version="1.1" id="Layer_1" xmlns="http://www.w3.org/2000/svg" xmlns:xlink="http://www.w3.org/1999/xlink" x="0px" y="0px"
	 viewBox="0 0 48 48" style="enable-background:new 0 0 48 48;" xml:space="preserve">
<style type="text/css">
	.st0{fill:#808080;}
</style>
<path class="st0" d="M43.5,16.4c-0.1-0.1-0.2-0.3-0.5-0.2c0,0-0.6-0.9-1.1-0.8c0,0-0.2-1.3-1-1.1c0,0-0.6-1.1-1.2-1
	c0,0-0.3-0.8-1-0.8c0,0-0.4-1-1.1-0.8c0,0-0.2-0.8-0.9-0.8c0,0-0.2-0.8-1.2-0.5c0,0,0.4-0.6,0-0.7c0,0-1.8-1.5-3.2-0.8
	c0,0-0.1,0-0.1-0.1c0.2-0.5,1.1-1.7,3.1-1.2c0,0,1.6,0.4,2.3,0.4c0.1,0,0.2,0,0.3,0c0.4,0.1,1.3,0.2,1.6,0.7c0,0.1,0.1,0.1,0.2,0.1
	c0.2-0.1,0.4-0.2,0.1-0.5c0,0-0.7-0.3-1-0.5c-0.1,0-0.1,0-0.2-0.1c-0.4,0-2.3-0.3-3-0.6c0,0-0.2-0.2-0.5,0c-0.1,0-0.1,0-0.2,0
	c-0.4,0-1.9,0-1.6-0.1c0,0,1-0.8,1.5-0.9C34.9,6.2,35,6.1,35,6c0.2-0.3,0.7-0.8,0.5,0.1c0,0,0.5-0.5,0.4-1.1c0,0-0.1-0.4-0.5,0.2
	c0,0-0.7,0.7-1.6,0.9c-0.1,0-0.1,0.1-0.2,0.1c-0.2,0.2-0.9,0.8-1.1,0.9c0,0,0.1-0.7,0.4-1C32.9,6.1,33,6,33,6c0-0.2,0-0.4-0.2-0.3
	c0,0-0.2,0-0.3,0.7c0,0-0.6,1.2-1.3,1.5c0,0,0.3-1.4-0.3-0.9c-0.1,0.1-0.1,0.2-0.1,0.3L30.6,8l0.2-0.2c0,0,0.1,0.3-0.1,0.4
	c-0.1,0.1-0.2,0-0.2-0.1c-0.2-0.8-1.2-4.4-2.5-3.9c0,0-2.1,0.7-3.2,2.1c-0.1,0.2-0.3,0.2-0.5,0c-1-1-4.5-4.1-9.1-4.8
	c-0.2,0-0.3-0.1-0.3-0.3c0-0.4-0.1-1-0.4,0.1c0,0.1-0.1,0.2-0.2,0.2c-0.1,0-0.4,0.1-0.6,0.2c-0.1,0.1-0.2,0-0.3,0
	c-0.3-0.4-1.1-1.4-0.2-1.2c0,0-0.5-0.7-0.8-0.1c0,0-0.3,0.8,0.7,1.5c0,0,0,0.1,0,0.1L13.1,2c0,0-0.1,0-0.1,0c-0.3-0.3-1.7-1.7-2-1.5
	c0,0-0.1,0.4,0.1,0.5c0,0,0-0.3,0.2-0.1l1.2,1.1c0.1,0.1,0,0.1,0,0.2l-0.3,0.1c0,0-0.1,0-0.1,0c-0.2-0.2-1.2-0.9-1.2,0
	c0,0,0.7-0.1,1,0c0,0,0,0.1,0,0.1c-0.2,0.1-0.7,0.4-1.4,0.1c-0.1,0-0.2-0.1-0.3-0.2c-0.1-0.1-0.3-0.2-0.5-0.2
	c-0.1,0-0.2-0.1-0.2-0.2C9.4,1.9,9.1,1.5,8,1.1c0,0-0.1,0-0.1-0.1C7.8,1,7.7,0.7,7.9,0.3c0,0,0-0.1,0-0.1C7.5,0.1,6.6-0.2,5.6,0.2
	c-0.1,0.1-0.3,0.1-0.4,0C4.6,0,3.3-0.3,2.5,0.6L1.6,1.4C1.4,1.6,1.1,1.8,0.9,1.9C0.4,2-0.3,2.5,0.2,3.2c0,0,0.5,0.8,3,1.6
	c0.2,0.1,0.4,0.2,0.6,0.3C4.3,5.5,5.9,6.5,8,6.3c0.6-0.1,1.3,0.1,1.8,0.6C9.9,7,10,7.2,10.1,7.4c0.1,0.1,0.1,0.3,0.1,0.4
	c-0.1,0.4-0.3,1.1-0.6,1.5C9.5,9.5,9.3,9.6,9,9.6c-0.5-0.1-1.5-0.1-0.5,0.6c0,0-2.8,2-0.4,2.8c0,0-1.3-0.9-0.1-1.9
	c0,0-0.8,1.4,0.6,2c0,0,0.4,0.4,1,0c0,0-0.7,0.1-1.1-0.4c0,0-0.8-1.5,0.6-2c0,0-0.5,1.7,0.4,1.7c0,0-0.7-1.2,0.7-2.2
	c0.3-0.2,0.6-0.5,0.8-0.9c0.4-0.7,1-1.6,1.3-1.5c0,0-0.8,0.5,0,0.7l2.8,0.9c0.2,0.1,0.4,0.1,0.6,0.2c0.8,0.4,3.1,1.4,4.2,1.5
	c0.1,0,0.2,0.2,0.1,0.3c-0.8,0.7-2.9,2.7-2.5,3.3c0,0,0.4,1.4,1.7,0.6c0,0,4.1-0.9,4.8-1.4c0.1-0.1,0.2-0.1,0.2-0.1
	c0.2-0.1,0.6-0.2,0.8-0.2c0.1,0,0.1,0.1,0.1,0.2c-0.3,0.4-1,1.4-0.9,2.2c0,0-0.7,0.9,0.1,1.6c0,0,0.3,1.2,1.1,1.2c0,0-0.1,1.6,0.5,2
	c0,0-0.2-1.5,0-2.1c0,0-0.4-0.4-0.4-0.8c0,0-0.4-0.7-0.2-1.1c0,0,0.5,0.5,0.5,1.5c0,0,0.1,0.3,0.5,0.4c0,0,1.2,1.2,1.4,1.2
	c0,0,1.2,1.8,1.9,1.9c0,0,0.4,0.4,0.6,0.3l-0.6-0.6c0,0-1.9-2.4-2.3-2.6c0,0,0,0,0,0c-0.3,0-0.8-0.9-1.1-1.2c0,0-0.6-1.9,0.1-2.8
	c0.1-0.1,0.3-0.1,0.4,0c0.6,0.5,2.4,1.8,3.1,1.8c0,0,0.2-0.4-0.8-0.8c0,0-1.7-1-1.8-1.5c0,0,0-0.1,0-0.1c0-0.2,0.2-1-0.2-1.5
	c-0.1-0.1,0-0.2,0.1-0.2c0.4,0,1.2,0.1,1.7,0.3l6.3,1.7c0,0,7.5,1.3,10.7,8.2c0,0,2.8,6.3-2.5,11.4c0,0-3.8,3.8-16.5,9
	c0,0-7.8,3.7-10.9,4c0,0-1.6,1.1,0.3,0.8c0,0,7.7-2.4,10.5-3.9c0.6-0.3,1.2-0.6,1.9-0.9c3.1-1.3,11.1-4.6,12.9-5.9
	c0.1-0.1,0.2-0.2,0.4-0.3c1-0.7,4.8-3.6,5.7-8.1c0,0,2.3-5.9-3.5-11.7C43.8,17,43.6,16.7,43.5,16.4z M2.7,3.4c0,0,0.4-1.1,1.4-0.1
	C4.1,3.3,3.6,4.5,2.7,3.4z M25.1,17.9c-0.6-0.8-0.4-1.3-0.4-1.3C25.2,17,25.1,17.9,25.1,17.9z M25.5,18.5c-0.4-0.2-0.3-0.5-0.3-0.5
	C25.5,18.2,25.5,18.5,25.5,18.5z M32.1,9.5c0,0,2.4-0.8,3.1,0.9L32.1,9.5z"/>
</svg>
