<?xml version="1.0" encoding="utf-8"?>
<!-- Generator: Adobe Illustrator 19.1.0, SVG Export Plug-In . SVG Version: 6.00 Build 0)  -->
<svg version="1.1" id="Layer_1" xmlns="http://www.w3.org/2000/svg" xmlns:xlink="http://www.w3.org/1999/xlink" x="0px" y="0px"
	 viewBox="0 0 48 48" style="enable-background:new 0 0 48 48;" xml:space="preserve">
<style type="text/css">
	.st0{fill:#808080;}
</style>
<path class="st0" d="M40.4,14.3c0,0-0.9-1-1.4-1.4c0,0,0.5-2.4-1.3-4c0,0,1.3,0,1.7,1c0,0,0.7,0.2,0.6-0.6c0,0-0.2-0.8-0.8-0.9
	l1.1-0.2c0,0-1-0.8-1.6-0.8c0,0,0.1-0.2,0.9,0c0,0-0.5-0.7-1.2-0.5c0,0-1,0.3-1.6,0.9c0,0-0.2,0,0.4-0.5c0,0,0.6-0.3,0.4-0.6L38.4,6
	c0,0-0.8,0-1.3,0.6L36.7,7c-0.3,0.2-0.7,0.3-1,0.2c-0.4-0.1-1.1-0.2-1.6,0c0,0,0-0.7-0.2,0.1l-0.3,0.3c0,0-0.1-0.3-0.1-0.6
	c0,0-0.4,0.3-0.3,0.9c0,0-0.2,0.3-0.2,0.1l0-0.6c0-0.1-0.1-0.1-0.1,0c-0.2,0.2-0.7,0.8-0.8,1.4l-0.2,0.4l-0.1-0.4c0,0,0,0.5,0,0.6
	l-0.1,0.2l-0.1-0.5c0,0-0.1,0.3,0,0.6c0,0,0,0.1,0,0.1c0,0.1-0.1,0.3-0.2,0.3c0,0-0.5-0.8-0.7-0.6c0,0-0.6,0.2-1.1,0.4
	c-0.1,0.1-0.2,0.2-0.1,0.4c0.1,0.1,0.2,0.2,0.4,0.2c0.1,0,0.2,0.1,0.2,0.2c0,0.4,0.1,1.5,0.8,1.4c0,0-0.3,0.8-0.2,1.4
	c0,0.2-0.1,0.4-0.3,0.4c-0.8,0.2-2.7,0.6-3.2,1.1c-0.1,0.1-0.3,0.2-0.4,0.2c-0.3,0-0.9,0-1.8-0.5c-0.7-0.5-1.3-1.1-1.8-1.8
	c-1-1.7-3.7-5.8-6-7c-0.4-0.2-0.8-0.5-1.1-0.8c-1-0.9-3.1-2.6-4.1-1.7c0,0,0.3-0.4-0.9-2.2c-0.1-0.1-0.1-0.2-0.2-0.3
	c-0.1-0.2-0.2-0.6-0.1-0.9c0,0-0.6-0.1-0.4,1.9c0,0-0.7-1.5-0.6-1.8c0,0-0.5-0.1-0.1,2L8.5,0.9c0,0-0.3,0.3-0.2,1.7
	c0,0-0.4-0.1-0.4-0.6c0,0-0.4,0.2-0.2,1.1c0,0,0,0.1-0.1,0.2C7.5,3.4,7.5,3.5,7.4,3.7l0,0.3c0,0.3-0.1,0.5-0.1,0.8
	C7,5.5,6.6,7.2,7.7,7.1c0,0-0.8,0.5-0.6,1.6c0,0,1.3-0.7,1.6-0.7c0,0-0.9,0.8-0.8,1.8c0,0.2,0,0.4,0,0.6c-0.1,0.4-0.1,1.3,0.6,2.1
	c0,0,0.9,1.1,1,0.5c0,0,0.1,0,0.2,0.1c0.2,0.1,0.3,0.3,0.3,0.5c0,0.7-0.1,2.3,0.7,3.8c0.1,0.2,0.1,0.4,0.1,0.7
	c-0.3,1.3-0.7,6.1,5.2,10.1c0.1,0,0.1,0.1,0.1,0.2c-0.1,0.2,0,0.7,1,1.9c0,0,1.9,2.4,2.1,3.8c0,0.1,0,0.2,0.1,0.3l0.3,1
	c0,0.1,0.1,0.1,0.1,0l0.1-0.6c0-0.1,0.2-0.2,0.2-0.1c0.3,0.3,0.8,0.8,0.9,1.4c0,0,0.2,0.2,0.4,0.2c0.1,0,0.2,0.1,0.2,0.2
	c0,0.6-0.1,2.3-0.4,2.3c0,0-0.3,0.2,0,0.3c0.1,0,0.2,0.2,0.2,0.3c-0.1,0.8-0.6,3.1-1.2,3.2c0,0-0.8,0.5-2.8,0.8c0,0-0.7,0-1,0.6
	c0,0,0.6-0.2,0.8-0.1c0,0-0.2,0.2,0.6,0.1c0,0,2.1-0.5,2.6-0.2c0,0-0.8,1.3-0.5,1.6c0,0,0,0.5,0.2,0.5c0,0,0.3,0.1,0.3-0.4
	c0,0,0.2-0.4,0.2-0.6c0,0,0.3,0.1,0.4-0.5c0,0,0.3-0.7,1.2-0.5c0,0,1.2,0.1,1.5,0.5c0,0,0.4,0.2,0.5,0c0,0,0.3,0,0.4,0.2
	c0,0,0-0.5-0.7-0.8c0,0-1.4-0.7-1.3-0.9c0,0,0.8-0.4,0-0.7c0,0-0.8-0.5-0.4-1.6c0-0.1,0.1-0.2,0.2-0.2c0.4,0,1.2-0.1,1-0.4
	c0,0,0.3-0.4-0.9-0.4c-0.1,0-0.2-0.1-0.3-0.2c-0.2-0.5-0.5-2,0.5-3.6c0,0,0.8-1.2,0.8-1.9c0,0,0.8,1.5,1.5,1.9
	c0.1,0.1,0.2,0.2,0.2,0.3c0,0.1,0,0.3,0,0.7c0,0,0.1,1,0.1,1.1c0,0,0.1,0,0.1-0.5c0,0-0.1-0.5-0.1-0.9c0-0.1,0.1-0.2,0.2-0.2
	c0.3,0.1,0.7,0.3,0.7,0.6c0,0-0.2,0.4-0.2,0.8c0,0,0.1-0.4,0.4,0l0.3,0.6c0,0-0.1-0.4-0.1-0.5c0,0,0.5,0.2,0.3,0.4
	c0,0-0.1,0.1,0.1,0c0,0,0,0.2-0.2,0.3c0,0,0.2,0,0.4-0.2c0.1-0.1,0.3,0,0.3,0.1c0,0,0,0.1,0,0.1c0,0,0.2,5-0.1,5.6
	c0,0-0.3,0.8-2.9,0.8c0,0-1.1,0.1-1.3,0.7c0,0,0.8-0.2,0.9,0c0,0,0.1,0.2,0.8,0l1.5,0.1c0,0-1.4,0.9-1.4,1.2c0,0-0.7,0.5-0.6,1
	c0,0,0.3-0.4,0.6-0.3c0,0,0.7-0.1,0.8-0.5c0,0,0.8-0.2,1.3-0.6c0,0,1.2-0.5,1.9,0c0,0,0.8,1.1,1.3,0.9c0,0,0.4,0.1,0.4,0.2
	c0,0,0.2-0.2-0.4-0.8c-0.2-0.2-0.3-0.3-0.3-0.3c0,0,0.2,0.2,0.2,0.2c-0.2-0.2-1-1.1-1.1-1.7c0,0-0.6-2.6-0.4-5.2
	c0.1-0.9,0.4-1.8,0.9-2.6c0.6-0.9,1.4-2,2.1-2.4c0,0,0.8-0.7,1.1-1.2c0.1-0.1,0.2-0.2,0.3-0.2c0.2-0.1,0.4,0,0.5,0.5
	c0,0,0.2,0.7-1,1c0,0-0.7,0.4,0.4,0.2c0,0-0.6,0.7,0.4-0.1c0,0,0.9,0,1.2-1.2c0,0,0.1,0,0.1,0.3c0,0,1.6-0.4,1.7-2.7
	c0,0,0.5,0.3,0.6-0.8c0,0,0.2,0.2,0.2,0.4c0,0,0,0,0,0c0-0.3,0.1-1.3,0-2c0,0-0.1-0.9-0.7-1.9c-0.1-0.2-0.2-0.4-0.2-0.6
	c0-0.5,0.1-1.4,0-1.9c0,0,0-0.1,0-0.1l0.2-0.3c0,0,0.1,0,0.1,0l0.1,1.7c0,0.1,0.1,0.1,0.1,0.1c0.2-0.1,0.4-0.5,0.2-1.4
	c0,0-0.3-1.1-0.2-1.6c0-0.1,0.1-0.2,0.2-0.2c0.1,0,0.3-0.1,0.3-0.3c0,0,0.3,0.4,0.4,0.6c0,0,0,0,0,0l0-0.1c0-0.2,0.1-0.3,0.2-0.4
	c0.3-0.2,0.9-0.9,0.7-2.8c0,0,0.1-0.1,0.1,0l0.5,0.7c0,0,0.2,0-0.3-0.8c-0.1-0.1-0.1-0.3,0.1-0.4c0.3-0.3,0.8-0.9,0.7-2.3
	c0,0,0.6,0.4,0.8-0.3c0,0,0.5,1.1,0.3,1.6C40.7,18.1,41.6,17.3,40.4,14.3z M11.6,6.3c-0.3,0.1-0.5,0-0.6-0.1
	c-0.1-0.2,0.1-0.4,0.4-0.5c0.3-0.1,0.5,0,0.6,0.1C12,6,11.8,6.2,11.6,6.3z M36.7,10.1c0,0,0-0.5,0-0.6c0,0,0.7,0.2,0.8,0.5
	C37.4,10,37.2,10.2,36.7,10.1z M38.5,12.1l-0.8-0.5c-0.6-0.4,0.2-1.1,0.2-1.1C38.5,10.5,38.5,12.1,38.5,12.1z"/>
</svg>
