<?xml version="1.0" encoding="utf-8"?>
<!-- Generator: Adobe Illustrator 19.1.0, SVG Export Plug-In . SVG Version: 6.00 Build 0)  -->
<svg version="1.1" id="Layer_1" xmlns="http://www.w3.org/2000/svg" xmlns:xlink="http://www.w3.org/1999/xlink" x="0px" y="0px"
	 viewBox="0 0 48 48" style="enable-background:new 0 0 48 48;" xml:space="preserve">
<style type="text/css">
	.st0{fill:#808080;}
</style>
<path class="st0" d="M47.9,36.4c0,0-0.3-0.8-1.3-1.8c-0.1-0.1-0.1-0.1-0.2-0.2c-0.9-0.9-0.8-1.8-0.8-1.8c-0.1-0.5,0.2-0.4,0.2-0.4
	l1.6,0c0.4,0,0.7,0.2,0.7,0.2c-0.1-0.3-0.3-0.4-0.3-0.4l-1.8-0.2c-0.2,0-0.3-0.1-0.4-0.3c-1-2.6-2.4-2.9-2.4-2.9
	c-0.2-0.1-0.3-0.3-0.4-0.4c-0.1-0.1-0.1-0.2-0.1-0.3c0.1-0.7-0.7-2.2-1-2.8c-0.1-0.1-0.1-0.3,0-0.4c1.1-1.2,1.9-4.9,1.9-4.9
	c1.1-3.1-0.4-6.3-2.7-8.7c-4.7-4.9-13.1-3-13.1-3C20.1,8.2,8.2,20.1,8.2,20.1L0,28l13.5-11.2c7.4-5.9,12.8-6.4,13.7-6.4
	c0.1,0,0.2,0,0.3,0c9.8-1,12.5,5,12.5,5c1.7,2.7-1.3,5.8-1.3,5.8c-0.8,0-1.4,0.5-1.7,0.9c-0.3,0.3-0.6,0.5-1,0.5L33,22.7
	c-0.8-0.7-1.5,0.2-1.5,0.2c-0.5,0.2-0.4-1.4-0.4-1.4c0.3-0.7,0-0.5,0-0.5c-0.3,0.4-0.2,1.8-0.2,1.8c-0.1-0.2-1.6-0.1-1.6-0.1
	c0-0.2-0.6-0.2-0.6-0.2c-0.4-0.4-2.9-1.4-2.9-1.4c-0.6-0.1-0.4,0.2-0.4,0.2c0.6,0,1.6,0.6,1.6,0.6c1.2,0.5,2,1.2,2,1.2
	c0.3,0.3-0.4,0.6-0.4,0.6c-1.3-0.1-2.3,0.5-2.3,0.5c-0.5,0.4-0.1,0.4-0.1,0.4c1.1-0.9,2.9-0.6,2.9-0.6c0.5,0.1-0.6,0.5-0.6,0.5
	c-0.6,0.3-0.5,0.8-0.5,0.8c0.6-0.7,1.4-0.7,1.4-0.7c0,0.6,0.3,0.4,0.3,0.4c0.4-0.5,1.5-0.5,1.5-0.5c0.4,0.1,2,0.1,2,0.1
	c-2.7,1.9-5.5,1.5-5.5,1.5c-2.3-0.5-8.8,1.1-8.8,1.1c-0.1-1.9-2.6,0.1-2.6,0.1c-0.6,0.3-1.7-0.6-1.7-0.6c-0.6-0.1,0.6,0.8,0.6,0.8
	c0.4,0.3-0.5,0.1-0.5,0.1c-0.6-0.2-1.5-0.6-1.5-0.6C12.9,26.8,13,27,13,27c0.6,0,1.8,0.8,1.8,0.8c-2-0.2-3.2,0.6-3.7,1
	c-0.2,0.1-0.3,0.3-0.5,0.4C7.8,30.9,7,33.8,7,33.8c-0.4,1.2,1.3,1.4,1.3,1.4c1,0.2,4.2-0.1,5.2-0.2c0.2,0,0.4,0,0.6,0
	c2,0.2,4-1.1,4-1.1c0.3,0.8,1.4,0.1,1.4,0.1c0,0.5,1.2,0.4,1.2,0.4c0,0.2,0.4,0.4,0.7,0.5c0.2,0,0.2,0.2,0.1,0.4
	c-0.5,0.6-0.8,1.8-0.8,1.8c-0.2,0.4-1.4,0.2-1.4,0.2c-0.7,0.3,0.4,0.4,0.4,0.4c0.5,0.1,0.1,0.3,0.1,0.3c-0.7,0-1.3,0.5-1.3,0.5
	c-0.4,0-0.4,0.5-0.4,0.5c0.1-0.1,0.5-0.2,0.5-0.2c1.3-0.6,1.4-0.1,1.4-0.1c-0.9,0.2-1.2,1-1.2,1c-0.2,0.4-0.1,0.7-0.1,0.7
	c0-0.1,0.2-0.4,0.2-0.4c0.3,0.1,0.5-0.6,0.5-0.6c0.5-0.1,1.2-0.6,1.2-0.6c0.3,0.2,0.9,0.1,0.9,0.1c-0.1,0.1,0,0.5,0,0.5
	c0.3,0.7,1.1,0.5,1.1,0.5c-0.3-0.1-0.5-0.6-0.5-0.6c0.3-0.4,0-0.5,0-0.5c-0.1-0.8,1.1-2.4,1.1-2.4c0.9-1.1,0.8-1.9,0.6-2.3
	c0-0.2,0.1-0.3,0.2-0.3c9.9-0.9,13.3-3.7,13.3-3.7c1-0.5,1.7-2.2,1.7-2.2c0.7-0.4,3.6,3.5,3.6,3.5c0.3,0.3,0.4,0.6,0.5,0.7
	c0.1,0.2,0,0.5-0.2,0.6c-0.4,0.2-0.3,0.5-0.3,0.5c-0.1,0.2,0.4,0.3,0.4,0.3c-0.7,0.2-0.8,0.6-0.8,0.6c-0.2,0.1-0.1,0.4-0.1,0.4
	c0-0.1,0.2-0.2,0.2-0.2c0.3,0,0.4-0.2,0.4-0.2c0.7,0,0.8-0.3,0.8-0.3c0.5-0.4,0.5,0.1,0.5,0.1c0.1,0.6-0.1,1.2-0.1,1.2
	c-0.3,0.3-0.2,1.2-0.2,1.2c0.1,0,0.2-0.4,0.2-0.4c0.3,0,0.3-0.7,0.3-0.7c0.3-0.2,0.2-0.8,0.2-0.8c-0.1-0.9,0.2-0.8,0.2-0.8
	c0.5-0.3,1,0.7,1,0.7c0.1,0.2,1.7,1.8,1.7,1.8c0.2,0.2,0.3,0.5,0.3,0.5C48.2,37.5,47.9,36.4,47.9,36.4z M10.7,33.2
	c0,0,0.7-1.6,2.5-1.3C13.2,31.9,13,34,10.7,33.2z"/>
</svg>
