<?xml version="1.0" encoding="utf-8"?>
<!-- Generator: Adobe Illustrator 19.1.0, SVG Export Plug-In . SVG Version: 6.00 Build 0)  -->
<svg version="1.1" id="Layer_1" xmlns="http://www.w3.org/2000/svg" xmlns:xlink="http://www.w3.org/1999/xlink" x="0px" y="0px"
	 viewBox="0 0 48 48" style="enable-background:new 0 0 48 48;" xml:space="preserve">
<style type="text/css">
	.st0{fill:#808080;}
</style>
<path class="st0" d="M46.9,13.1c0,0-1.9-0.2-2.6-0.7c-0.2-0.1-0.3-0.2-0.5-0.3c-1.3-0.6-5.6-2.2-9.8-0.3c-0.2,0.1-0.5,0.1-0.7,0
	c-0.3-0.1-0.8-0.3-1.2-0.1c-0.1,0-0.1,0.1-0.2,0.1l-0.9,0c-0.2,0-0.4,0-0.5-0.1c-0.9-0.5-5.1-2.2-14.9,1.5c0,0-1.6,0.5-2.7,0.8
	c-1,0.3-3.1,0.5-4.9,1.5c-0.2,0.1-0.5,0.2-0.8,0.3c-1.4,0.2-5.6,0.8-7.1,1.2c-0.1,0-0.1,0.2,0,0.2c1.4,0,5.3,0,6.6,0
	c0.3,0,0.5,0,0.8,0.1c0.4,0.1,1.2,0.4,2.3,0.4c0.2,0,0.3,0.1,0.2,0.3c0,0.2,0,0.4,0.3,0.4c0,0-0.4,0.6,0.1,0.7c0,0-0.3,1,0.5,1
	c0,0-0.3,0.8,0.4,0.8c0,0-0.4,1,0.6,0.9c0,0-0.3,1.2,0.8,1c0,0-0.4,1.3,1,1.2c0,0-0.2,0.7,0.5,0.8c0,0-1.2,2-0.3,2.2
	c0,0-0.5,1.7,0.4,1.7c0,0-0.2,2.2,0.8,1.7c0,0,0.2,2.8,1.3,1.6c0,0-0.7,6.2,0.5,3.7c0,0,0,2.8,0.9,0.4c0,0,0.1,2,1,0.2
	c0.2-0.4,0.4-0.8,0.7-1.1c0.9-1.1,3-4.3,4.2-11c0,0,0.4,1.7,1.2,1.4c0,0-0.2,1.8,0.9,1.7c0,0,0,1.7,1.4,1.6c0,0,0,1.4,0.9,1.8
	c0,0-0.1,1.4,0.5,2c0.1,0.1,0.3,0.1,0.4,0c0.2-0.2,0.4-0.6,0.4-1.1c0,0,0.1,1.4,0.5,2c0.1,0.2,0.4,0.2,0.5,0
	c0.2-0.2,0.4-0.7,0.4-1.4c0,0,0.7,3.9,1.4-0.4c0,0,0.4,1,0.9-0.3c0,0,1.7-5.8,0.8-11.1c-0.1-0.4,0-0.9,0.1-1.3
	c0.2-0.8,0.5-2.1,0.4-3.3c0-0.2,0.2-0.5,0.4-0.5c0.8-0.1,2.5-0.3,3.8-0.1c0,0,3.2,0.2,6.4-1c0.2-0.1,0.4-0.1,0.6-0.1
	c0.5,0,1.3-0.1,1.6,0c0,0,0.5,0.1,0.6-0.2C47.9,13.8,48.4,12.9,46.9,13.1z M42.8,12.9c-0.2,0-0.4-0.1-0.4-0.3c0-0.2,0.2-0.3,0.4-0.3
	c0.2,0,0.4,0.1,0.4,0.3C43.1,12.8,43,12.9,42.8,12.9z"/>
</svg>
