<?xml version="1.0" encoding="utf-8"?>
<!-- Generator: Adobe Illustrator 19.1.0, SVG Export Plug-In . SVG Version: 6.00 Build 0)  -->
<svg version="1.1" id="Layer_1" xmlns="http://www.w3.org/2000/svg" xmlns:xlink="http://www.w3.org/1999/xlink" x="0px" y="0px"
	 viewBox="0 0 48 48" style="enable-background:new 0 0 48 48;" xml:space="preserve">
<style type="text/css">
	.st0{fill:#808080;}
</style>
<path class="st0" d="M40.3,34.6c0,0-3.3-10.2-7.8-15.8c-0.3-0.4-0.5-0.9-0.6-1.5c0-0.7-0.2-1.8-0.9-2.9c-0.1-0.1-0.1-0.2-0.1-0.4
	c-0.1-0.6-0.3-2.2-1.5-3.1c-0.6-0.5-0.9-2.6-0.3-3.3c0,0,2.2-3.2,6.6-5c0,0,1.4-0.6,1-1c0,0-0.3-1-2.4-0.6c-0.2,0-0.4,0-0.7,0
	c-0.5-0.1-1.5-0.3-2.2-0.2c-0.2,0-0.4,0-0.5-0.1c-2.4-1.2-5.5-1-7.6,1c-4.5,4.5-2.9,7.1-5.1,10.2c-0.1,0.2-0.3,0.3-0.5,0.4
	c-0.4,0.1-1.2,0.5-1.3,1.7c0,0-1.3,2.2-1.3,3.7c0,0.5-0.1,0.9-0.3,1.3c-0.4,0.8-1.1,2-2.2,3.6c0,0-6.7,10.2-4.6,13.8
	c0,0,0.8,1.6,1.6-0.7c0,0,2.6-6.6,5-8.6c0.1-0.1,0.3,0,0.3,0.1c0,5.4,0.1,14.2,4.2,17.7c0.1,0.1,0.1,0.2-0.1,0.3
	c-0.3,0.1-1,0.1-2.5,0c0,0-1.1,0.1-1.4,0.9c0,0,0.5-0.3,0.8,0l1.7,0c0,0-0.3,0.4-0.1,0.6l0.3-0.1c0.1,0,0.2,0,0.2,0
	c0.4,0.1,1.7,0.5,2.4-0.2c0,0,0.6,0.5,1.5,0.1c0,0,0.4,0.4,0.3-0.1c0,0,0.5,0.1,0.5,0.2c0,0,0.1-0.5-0.5-1c0,0,0.2,0,0.4,0.1
	c0,0-0.1-0.6-0.7-0.8c0,0,0.1-1.4,0.4-0.7c0,0,0.7,0.7,5.6,0.3c0.2,0,0.3,0.1,0.3,0.3c0,0.3-0.1,0.8-0.3,0.9c0,0-0.7,0.4-0.9,0.8
	c0,0,0,0.2-1.1,0.2c0,0-0.9,0.1-1.1,0.4c0,0,0.8,0.5,1.6,0.1c0,0-0.6,1,0.9,0.5c0,0,0.8-0.3,1.3,0c0,0,1.3,0.5,1.8-0.1
	c0,0,0.8-0.3-0.4-1.2l0.1-0.2c0,0,0.7,0.1,0.9,0.3c0,0,0.2,0.1,0.2-0.2c0,0,1.1,0.9,1.2,0.4c0,0,1.2,0.3,1.2-0.4l-2-1.8
	c0,0-0.2-0.6,0.3-0.7c0,0,0.6-0.1,0.4-1.1c0,0,0.4-0.2,0.5,0.3c0,0,0.1-0.3-0.1-0.8c0,0,0.3-0.1,0.4,0.1c0,0,0.1-0.3-0.1-0.6
	c0,0,0.2,0.2,0.3,0.4c0,0,0.1-0.2-0.1-0.5c0,0,0.3,0,0.4,0.2c0,0,0.3-0.7-0.3-1.3c0,0,0.6-0.1,0.9,0.1c-0.1,0-1-0.7-0.8-1.7
	c2.8-9.1,0.4-10.2,0.4-14c0,0,1.7,1.7,2.6,3.7c0.5,1.1,2.1,2.9,3.3,6.2C39.6,34.9,40.9,37.2,40.3,34.6z M27.9,2.9
	c0,0,0.7-1.2,1.7-0.2C29.6,2.7,28.9,4.3,27.9,2.9z"/>
</svg>
