<?xml version="1.0" encoding="utf-8"?>
<!-- Generator: Adobe Illustrator 19.1.0, SVG Export Plug-In . SVG Version: 6.00 Build 0)  -->
<svg version="1.1" id="Layer_1" xmlns="http://www.w3.org/2000/svg" xmlns:xlink="http://www.w3.org/1999/xlink" x="0px" y="0px"
	 viewBox="0 0 48 48" style="enable-background:new 0 0 48 48;" xml:space="preserve">
<style type="text/css">
	.st0{fill:#808080;}
</style>
<path class="st0" d="M36,16.8c-0.3-1.4-1.7-7-3.8-10.2c-0.1-0.2-0.1-0.4,0-0.5C32.7,5.6,34,4.6,37,3.9c0,0,0.1-0.1,0.1-0.1
	c-0.1-0.3-0.6-1.3-3.8-1.4c-0.9-0.5-2.3-1.6-2.7-1.8c-2-0.9-4.5-0.7-6.1,0.6c-2,1.6-8.7,7.5-10,17.2c0,0.3-0.2,0.6-0.5,0.8
	c-2,1.4-10.2,7.6-10.3,12.8c0,0.3,0.3,0.4,0.5,0.3c0.2-0.1,6-6.6,9.4-8.4c0,0-0.7,4.8,0.4,8.1c0,0,0.4,1-0.2,4.5
	c0,0-0.4,1.3,0.4,2.5c0,0,1.2,2.1-4.3,4c-0.2,0.1-0.2,0.3,0,0.4c0.2,0.1,0.6,0.1,1.4,0c0,0-0.1,0.3-0.9,0.3c0,0,0,0.4,1.5,0.2
	c0,0-0.7,0.3-0.9,0.3c0,0,0.5,0.4,1.7,0.1l-0.8,0.4c0,0,1.4,0,2.3-0.4l-0.7,0.6c0,0,0.7,0.3,2.6-0.5l-0.8,0.8c0,0,1,0,2.9-1
	c0,0-0.6,0.8,0.5,0.1c0,0-0.3,0.6,0.7,0.1c0,0-0.5,1,0.9,0.7c0.2,0,0.4,0,0.5,0.2c0.3,0.6,1.2,1.9,2.5,1.9c0,0,3.6,0.5,4.3,0.7
	c0,0,1.4,0.2,0.6-0.8c0,0,1.8,0,1.9-0.4c0,0,1.5-0.3-0.8-1c0,0,0-0.2-0.3-0.2c0,0,0.5-0.4-0.9-0.4c0,0-0.3-0.4-0.9,0
	c0,0-0.1,0.1-0.3,0c0,0-0.3-0.3-0.8,0c0,0-0.8,0-0.5-0.2c0,0,0.5-0.4,1.1-0.3c0,0,2.3,0.1,2.3-0.2c0,0,1,0.2,1.4,0.1
	c0,0,0.1,0,0.1,0c0.2,0.1,0.7,0.2,0-0.6c0,0,0-0.1,0-0.1c0.2,0,0.8-0.1,1.6,0.2c0,0,1.1,0.4,1.3-0.2c0,0,0.8,0-0.1-0.8
	c0,0,0.2-0.1,0.4-0.1c0,0,0.1,0,0.1-0.1c0-0.2-0.2-0.9-1.6-1c0,0-0.1,0-0.1-0.1c-0.1-0.1-0.5-0.4-1.6-0.4c0,0,0,0,0,0
	c0.5-0.3,3.4-2.3,4.3-7.8c0,0,2.1-7.8,1.6-11.7c1.3,1.2,5.3,4.5,6.2,6c0,0,1.6,2,1.4,0.4c0,0,0.8-3.3-7.8-10.8
	C36.2,17.2,36.1,17,36,16.8z M27.4,4.4c0,0,0.9-1.3,1.9,0C29.2,4.3,28.3,5.3,27.4,4.4z"/>
</svg>
