<?xml version="1.0" encoding="utf-8"?>
<!-- Generator: Adobe Illustrator 19.1.0, SVG Export Plug-In . SVG Version: 6.00 Build 0)  -->
<svg version="1.1" id="Layer_1" xmlns="http://www.w3.org/2000/svg" xmlns:xlink="http://www.w3.org/1999/xlink" x="0px" y="0px"
	 viewBox="0 0 48 48" style="enable-background:new 0 0 48 48;" xml:space="preserve">
<style type="text/css">
	.st0{fill:#808080;}
</style>
<path class="st0" d="M48,38.1c0,0-1.5-4.2-4.7-6.1c-0.4-0.2-0.7-0.6-0.9-1c-1.1-2.5-5.6-11.1-17.2-14c-0.4-0.1-0.7-0.4-0.8-0.7
	c-0.3-1-0.6-3.3,2.2-6.1c0,0,0.6-0.9-1.6,0c0,0-3,1.6-4.3,3.9c-0.1,0.2-0.2,0.3-0.3,0.5c-0.1,0.2-0.5,0.8-1.4,0.8
	c0,0-5.6,0.3-8.9-0.5L6,14c0,0-1.6-0.1-2.6,0.5c0,0-1.6,1.1-2.4,1.4c-0.3,0.1-0.5,0.3-0.7,0.5C-0.2,17-0.5,18,3.1,18.3
	c0,0-2.7,0.6-1.8,1.7c0,0,3.9,3.2,5,4.2c0.1,0.1,0.1,0.3,0,0.4c-0.9,0.6-4,2.7-3.6,4.4c0,0,0.5,1.9,3,0.8c0,0,2.6-1.2,2.6-2.5l0.2-1
	C8.6,26,8.8,25.9,9,26c0.7,0.4,2.4,1.4,4.9,2.1c0.2,0.1,0.5,0.2,0.7,0.3c0.7,0.5,2.2,1.7,3.5,1.7c0.1,0,0.2,0,0.3-0.1
	c0.1-0.2,0.2-0.5,0-0.9c0-0.1,0-0.2,0.1-0.1c0.9,0.1,4.1,0.3,6.4-0.6c0.1-0.1,0.3-0.1,0.4-0.1c1.3-0.4,6.9-1.8,10,0.2
	c0,0,4.5,1.9,4.6,3.8c0,0,0,0,0,0.1c0,0.4-0.3,5.1,0.6,4.7c0,0,2.1-1.3,3.7-0.2C44.1,36.8,48.5,39,48,38.1z M7.5,17.7
	c0,0-1.3-0.3-1.3-1.3c0,0,3.7-0.5,4.8,1.1C11,17.6,10.7,18.7,7.5,17.7z"/>
</svg>
