<?xml version="1.0" encoding="utf-8"?>
<!-- Generator: Adobe Illustrator 19.1.0, SVG Export Plug-In . SVG Version: 6.00 Build 0)  -->
<svg version="1.1" id="Layer_1" xmlns="http://www.w3.org/2000/svg" xmlns:xlink="http://www.w3.org/1999/xlink" x="0px" y="0px"
	 viewBox="0 0 48 48" style="enable-background:new 0 0 48 48;" xml:space="preserve">
<style type="text/css">
	.st0{fill:#808080;}
</style>
<path class="st0" d="M44.9,19.1c0,0,1,0.1,1.3,0c0.1,0,0.2,0,0.3,0c0.3,0,1,0,1.5,0.3c0,0,0-0.8-1.2-1c0,0-1.3-0.1-1.8-0.7
	c-0.1-0.1-0.2-0.2-0.3-0.4c-0.8-0.7-3.4-2.7-6.2,0c-0.2,0.2-0.4,0.4-0.5,0.6c-0.7,1-2.9,4.5-3.9,5.5c-0.2,0.2-0.5,0.2-0.6,0
	c-0.2-0.3-0.5-0.8-0.8-1.5c-0.5-1.2-0.8-2.6-0.8-3.9c0-0.8,0-2.2-0.2-3.3c-0.2-0.9-0.7-1.8-1.4-2.3c-1.6-1.3-5.9-4.4-9.7-4.8
	c-0.1,0-0.2,0-0.4-0.1c-0.9-0.2-4.8-1-4.2,0.1c0,0-1.8-0.4-2.1-0.1c-0.1,0.1-0.1,0.1-0.2,0.1L8.1,7.7c0,0-0.1,0-0.1,0
	C7.8,7.8,7.2,8,8.2,8.7c0,0,0,0.1,0,0.1C7.9,8.7,7.4,8.6,7.4,9c0,0-0.1,0.9,1.9,1.4c0.1,0,0.1,0.1,0,0.1C9.2,10.6,9,10.7,9,10.8
	c0,0.1-0.1,0.1-0.2,0.1c-0.6-0.1-2.4-0.5-3.7-0.5c0,0-5.3-0.6-5,0c0,0.1,0.1,0.1,0.1,0.1c0.7,0.1,7.1,1,8.8,1c0.2,0,0.4,0.1,0.5,0.3
	c0.1,0.1,0.1,0.2,0,0.3c0,0-0.1,0-0.1,0c-0.5,0-4.1-0.2-4,0.2c0,0-0.2,0.3,1.2,0.3c0,0,0.7,0.1-0.9,0.2c0,0-1.1,0-1.4,0.2
	c-0.1,0-0.1,0.1,0,0.2c0.2,0.1,1.1,0.4,2.6,0.4c0,0,0.1,0,0.1,0c0.3,0.1,1.4,0.3,0.9,0.5c0,0-1.7,0.1-2,0.4c0,0,0,0.1,0,0.1
	c0.5,0.2,2.9,0.9,3.6,1.3c0,0,0.4,0.2,1.3,0.2c0,0-0.8,0.6-0.3,0.6c0.2,0,0.3,0.1,0.5,0.1c0.4,0.2,1.1,0.5,1.4,0.4
	c0,0-0.5,0.6,0.5,0.6c0,0,0.5,0.4,1.2,0.4c0.1,0,0.3,0,0.4,0.1c0.4,0.3,1.4,0.8,1.6,0.5c0,0,0.4,0.6,1.4,0.4c0,0,0.2,0.5,0.8,0.3
	c0.1,0,0.2,0,0.3,0c0.2,0.1,0.7,0.2,1.1,0.3c0.1,0,0.2,0.1,0.2,0.2c0,0.2,0.2,0.4,0.6,0.4c0,0-2.1,1.5-1.6,2.5c0,0,0.4,0.6,1-0.1
	c0,0,0.8-0.8,1.1-0.5c0,0,0,0.2,0.3,0.2c0.1,0,0.2,0,0.2,0.1c0,0.1,0,0.3,0,0.5c-0.1,0.2-0.1,0.3-0.3,0.5c-0.7,0.8-4,4.7-1.7,4.6
	c0,0-0.2,0.7,0.4,0.5c0,0-0.2,0.5,0.4,0.6c0.4,0.1,0.7,0.3,0.9,0.7c0.1,0.2,0.1,0.4,0.1,0.6c0,0-0.3,1.1,0.3,1.6
	c0,0-0.2,1.2,0.3,1.6c0.1,0.1,0,0.1,0,0.2c-0.6,0.2-2.5,1-3.7,1.7c-0.2,0.1-0.4,0.2-0.6,0.3c-0.9,0.3-3.5,1.1-4,2.3
	c0,0.1-0.1,0.2-0.2,0.3c-0.2,0.2-0.6,0.5,0.7,0.1c-0.1,0-1,0.5-0.9,0.8c0,0,6-2.5,11-0.9c0.2,0.1,0.3,0.1,0.5,0.1l3.9,0
	c0.1,0,0.2,0,0.3,0.1l0.4,0.2c0.1,0.1,0.1,0.2,0.1,0.3c-0.2,0.3-0.5,1.1,0.2,1.3l8.6,0.2c0,0,0.2-0.1,0.4,0c0,0,0-0.3-0.6-0.2
	l-0.7,0c0,0,0-0.5-0.3-0.4c0,0-0.1-0.6-1.3,0c0,0-0.7-0.1-0.8,0.1c-0.1,0-0.1,0-0.2,0c-0.7-0.2-3.3-0.8-4-1.3c-0.1,0-0.1-0.1,0-0.2
	c0.3-0.2,1-0.5,2.1-0.8c0,0,10-3.6,9-8.9c0-0.3-0.1-0.5-0.1-0.8C41.3,27,41,23.7,42,23c0,0,1.3-1.4,2.5-1.4c0.3,0,0.5,0.1,0.7,0.3
	c0.3,0.3,0.8,0.7,1.3,0.9c0,0,0.1,0,0.1-0.1c0-0.1-0.1-0.5-0.5-0.8l-1.5-1.3c0,0-0.1-0.1-0.1-0.1c0-0.1-0.1-0.3-0.2-0.4
	c-0.1,0-0.1-0.1,0-0.2C44.3,19.5,44.6,19.1,44.9,19.1z M31.6,40.1c-1.5,0.1-1.5-0.2-1.5-0.2c-0.8-0.6,0.2-0.5,0.2-0.5L31.6,40.1z
	 M41.6,17.6c0,0,0.6-1,1.4,0.1C43,17.8,42.1,18.6,41.6,17.6z"/>
</svg>
