<?xml version="1.0" encoding="utf-8"?>
<!-- Generator: Adobe Illustrator 19.1.0, SVG Export Plug-In . SVG Version: 6.00 Build 0)  -->
<svg version="1.1" id="Layer_1" xmlns="http://www.w3.org/2000/svg" xmlns:xlink="http://www.w3.org/1999/xlink" x="0px" y="0px"
	 viewBox="0 0 48 48" style="enable-background:new 0 0 48 48;" xml:space="preserve">
<style type="text/css">
	.st0{fill:#808080;}
</style>
<path class="st0" d="M47.7,35c0,0-0.4-2-0.4-5.5c0,0,0.3-1.6-0.4-2.4c0,0,0.6-1.3,0.1-1.7c0,0,2.5-5.4-1.2-11.4c0,0,1.6-2.4-1.5-3.4
	c0,0-1.7-0.2-1.2,0.7c0,0,0.3,0.4,1.2,0.3c0,0,1.3,1,0.2,1.3c0,0-5.6-5.5-22.8-1.5c-0.1,0-0.2,0-0.2,0.1c0,0,0,0,0,0l-0.5,0.1
	c0,0,0.5,4,0.1,6.6c-0.1,0.7-0.3,1.4-0.7,2c-1.3,2.2-5.5,8.2-12.7,3.5c2.1,1.3,7.8,3.7,12.5-3.7c0.4-0.6,0.6-1.2,0.7-1.9
	c0.2-1.8,0.5-5.4-0.1-6.6l0.7,0c-0.3-0.3-1.9-2.6-2-3c0,0-1.6-2.8-5.5-1.8c0,0-5.6,1.1-5.4,3.2c0,0-0.2,0.8-0.6,1.1c0,0-0.6,1.2,0,2
	c0,0,0.2,0.5-0.4,0.9c0,0,0.6,0.4-0.1,0.6c0,0-0.4,0.5-2.1,0.5c0,0-1.7,0.1-2.9,1.7c0,0-2.7,2-2.4,2.6c0,0,0.4,5.2,2.3,5.3
	c0,0,0.3,0.2,0.3,0.4c0,0,0,7.2,2,8.2l-0.1-4.8c0,0,0.4,3.4,2,3.4c0,0-1-6.1-0.7-6.8c0,0,3-1,5.9,1.4c0,0,1,2.7,3.8,2.3
	c0,0,0.9,4.9,0.2,6.1c0,0-1.9,3.3-2.2,4c0,0-1.1,1.3,0,1.2c0,0,2.2,0.3,2.4-0.5c0,0,0.3-0.9,1.4-0.1c0,0,0.7-1,0.8-2
	c0,0,0.6-3.6,1.4-3.8c0,0,1.3-5.3,2-3.4c0,0,0.4,3.9,1.2,5.1c0,0-0.2,3.1-0.4,3.4c0,0-0.4,0.8-0.4,1.2c0,0-0.2,0.7-0.5,0.9
	c0,0,0.7,0.6,1.6,0.3c0,0,1.5,0.4,2.3-0.5c0,0-0.1-1.6,0.2-1.3c0,0,0.8,1.1,0.9,0.3l-0.1-1.3c0,0,0.5-1.9-0.4-2.8
	c0,0,0.6-0.8,0.5-1.9c0,0,0.7-4.3,0.3-5.5c0,0,0.3-1.9,1.7-1.5l1.9-0.4c0,0,0.3,0.6,0.6-0.1l1.4-0.1c0,0,0.5,0.5,0.6,0
	c0,0,3.4-1.2,3.8-0.7l4.6,6.3c0,0-0.2,3.8,0,4.6c0,0-0.8,1.4-0.7,1.8c0,0-0.6,0.9-0.8,1c0,0,0,0.4,1.5,0.2c0,0,0,0.4,1,0.2
	c0,0,1.4-0.6,1.6-2.3c0,0,0.4,0.6,0.6,0.6c0,0-0.2,0.4-0.2,1c0,0-0.2,0.8-0.3,1c0,0,0.8,0.4,1.6-0.3c0,0,0,0.7,0.7,0.5
	c0,0,1.1-0.1,1-2c0,0,0.5-0.1,0.2-1.2C47.7,36.8,48.3,36.2,47.7,35z M6,16.5C6,16.2,6.3,16,6.7,16s0.7,0.2,0.7,0.5
	C7.3,16.8,7,17,6.7,17S6,16.8,6,16.5z"/>
</svg>
