<?xml version="1.0" encoding="utf-8"?>
<!-- Generator: Adobe Illustrator 19.1.0, SVG Export Plug-In . SVG Version: 6.00 Build 0)  -->
<svg version="1.1" id="Layer_1" xmlns="http://www.w3.org/2000/svg" xmlns:xlink="http://www.w3.org/1999/xlink" x="0px" y="0px"
	 viewBox="0 0 48 48" style="enable-background:new 0 0 48 48;" xml:space="preserve">
<style type="text/css">
	.st0{fill:#808080;}
</style>
<path class="st0" d="M47.6,7.7c0,0-0.7-0.5-4.2,0.5c-0.2,0.1-0.5,0.1-0.7,0c-1.3-0.4-6.1-1.5-5.8,1.6c0,0.3-0.1,0.6-0.4,0.8
	c-2.3,1.1-11.3,5.5-10.4,7.5c0,0-0.3,0.2-0.2,0.6c0,0-0.1,0.1-0.4,0.2c-0.2,0-0.4,0.1-0.6,0.1c-0.7,0.3-2.3,0.9-3.2,0.9
	c0,0-3.7,0.1-5.8,1C15.8,21,15.5,21,15.3,21c-0.6,0-1.8-0.1-2.2-0.1c0,0-1.7-0.3-2.7,0.1c0,0-0.1,0-0.1,0c-0.2,0-1.2,0.2-0.7-0.4
	c0,0,0-0.3-0.1-0.2c0,0,0,0.2-0.1,0.3c0,0-0.4,0.7,1,0.6c0,0,1.6-0.3,2.3,0c0,0,1.1,0.5,2.5,0.5c0.1,0,0.1,0.1,0,0.1
	c-0.5,0.3-2.3,1.4-3.7,1.4c0,0-1.7,0-2.4-0.2c0,0-1.2-0.2-1.7,0.1c0,0,1.3,0.2,2,0.4c0,0,2.1,0.7,2.6,0.5c-0.1,0-1,0.3-1.2,0.9
	c0,0-0.9,0.7,0,1.3c0,0-0.3-0.8,0.2-0.8c0,0,0.2-0.4,0.4,0c0,0,0.4,0.5,1.5,0c0.1,0,0.1,0,0.2,0c0.3,0,1.3-0.1,1.7-0.3
	c0.1,0,0.1,0,0.2,0h0c0,0,0,0.1,0,0.1c-0.2,0.3-0.8,1.3-1.3,1.8c0,0-2.6,2.3-3,2.8c0,0-1.1,1.5-1.9,2.2c-0.2,0.2-0.3,0.3-0.5,0.5
	c-0.4,0.5-1.5,1.5-3.7,1.9c0,0-1.1,0.2-1.4,1.3c0,0-0.5,0.8-1.2,0.3c0,0-1.6-0.6-2-0.3c0,0-0.2,0.1,0.4,0.3c0,0,1.1,0.6,1.2,0.7
	c0,0,1.6,0.7,2.3-1.1c0,0,0.1-0.5,1.3-0.7c0,0,2.5-0.4,4.5-3.3c0,0,1.8-2.7,3.9-2.4c0,0-3.5,2-4.7,4.4c0,0-1.6,2.8-1.7,4.1
	c0,0-0.1,1.6-1.6,1.6c0,0-2.3-0.3-1.9,0.2c0,0,1.7,1.1,3,0.2c0,0,1.1-0.6,1.3-2c0,0,1.5-5.7,5.6-7.7l4.3-2.3l0,0.3
	c0,0-0.8,0.4-0.5,1.3c0,0-0.8,0.9-0.7,2.2c0,0-1,1.1-0.5,1c0,0,1-0.8,1.2-1.5c0,0,2.6-4.2,4.1-4.6c0,0-2.9,6.8,1.2,8.4
	c0,0,0.3-0.1-0.3-0.4c0,0,0-0.5-0.2-0.8c0,0-1-1.6-0.4-2.7c0,0,1.2-4.3,2.2-5.8c0.2-0.3,0.4-0.6,0.5-1c0.1-0.5,0.5-1.2,1.5-1.5
	c0.2-0.1,0.4,0,0.6,0c0.2,0.1,0.6,0.1,0.9-0.2l2.6-1.5c0,0-0.1,1,0.4,0.9c0,0,2.9-1.6,4.9-2.4c0,0,4.9-2.5,7.3-4.7
	c0.1-0.1,0.3-0.1,0.4,0.1c0.2,0.4,0.9,0.9,2.9,0.5c0,0,1.4-1,0.4-3.1c0-0.1-0.1-0.2,0-0.2c0-0.2,0.1-0.6,0.5-0.9
	c0.2-0.2,0.4-0.4,0.6-0.7C47.7,10,48.5,8.4,47.6,7.7z M17.1,25.1c0,0-1.5,1.4-1.8,1.3C15.2,26.4,15.9,24.9,17.1,25.1z M17.6,26.2
	c0,0-0.8,0.1-0.7,0.6c0,0-0.5,0-0.4,0.4c0,0-0.4-0.1-0.3,0.2c0,0-0.9,0.6-1.1,0.6c0,0-0.2-0.4-0.2,0c0,0-0.3-0.1-0.9,0.7
	c0,0-0.9,0.5-1.2,0.4c0,0,4.4-3.6,5.6-3.7C18.3,25.4,17.5,25.8,17.6,26.2z M25.9,22.7c-0.6,0-1-0.4-1-0.9c0-0.5,0.5-0.9,1-0.9
	c0.6,0,1,0.4,1,0.9C27,22.3,26.5,22.7,25.9,22.7z"/>
</svg>
