<?xml version="1.0" encoding="utf-8"?>
<!-- Generator: Adobe Illustrator 19.1.0, SVG Export Plug-In . SVG Version: 6.00 Build 0)  -->
<svg version="1.1" id="Layer_1" xmlns="http://www.w3.org/2000/svg" xmlns:xlink="http://www.w3.org/1999/xlink" x="0px" y="0px"
	 viewBox="0 0 48 48" style="enable-background:new 0 0 48 48;" xml:space="preserve">
<style type="text/css">
	.st0{fill:#808080;}
</style>
<path class="st0" d="M47.9,10c0,0-0.6-0.2-1.4-0.5c0,0-0.1-0.1-0.8-0.1c-0.4,0-0.8-0.2-1.1-0.5c-0.2-0.2-0.3-0.4-0.3-0.6
	c0-0.1-0.1-0.3-0.2-0.4c-0.3-0.3-0.9-0.7-2.2-1.1c-0.2-0.1-0.4-0.2-0.4-0.4c-0.1-0.7-0.4-2.4-0.8-3c-0.1-0.1-0.2,0-0.2,0.1
	c-0.1,0.7-0.3,3-1,3.5C39.3,7.1,39.1,7,39,6.8c-0.3-0.7-1.5-2.9-2.1-3.1c-0.1,0-0.2,0-0.3,0.1c-0.1,0.2-0.2,0.8-0.1,1.8
	c0,0-0.4,4.1,0.3,4.3c0,0-0.1,0.7-0.6,1.1L34.6,14c0,0-0.2,0.2-0.3,0.4c0,0.2-0.5,0.3-0.5,0.6c0,0.1-0.1,0.2-0.2,0.2
	c-0.1,0-0.3,0.1-0.3,0.3c0,0.1-0.1,0.2-0.2,0.2C32,16,27.4,17,24.2,16.3c-0.6-0.1-1.2-0.2-1.8-0.2c-2.2,0-6.9,0.1-11.6,2
	c-0.2,0.1-0.3,0.1-0.5,0.2c-0.7,0.2-2.7,1-3.3,3.1c0,0-0.5,1.7-0.6,3.9c0,0,0.3,2.3-4,5.1c0.1,0,3.1-1.1,4.2-3.4c0,0,0.9-1.9,1-4
	c0-0.1,0-0.1,0-0.2c0.1-0.3,0.5-1.5,0.9-1.9c0.2-0.2,0.5,0,0.4,0.3c-0.1,0.3-0.2,0.7-0.4,1c-0.2,0.3-0.3,0.5-0.4,0.8
	c-0.2,0.7-0.5,1.8-0.6,2.6c0,0.4-0.1,0.8-0.3,1.2c-0.7,1.8-2.5,6.4-4.5,7.8c0,0-0.5,0.4-0.5,1.3c0,0-0.9,3.3-1.6,4.3
	c0,0-0.9,1.4-0.5,2.5c0,0,0,0.6,0.7,0.2c0,0,0.8,0.6,1.4,0.2c0,0,1,0,0.5-0.9c0,0-0.9-0.8-0.7-1.5c0,0,1.7-4.6,3.7-6.2l3.6-3.8
	c0.1-0.1,0.3,0,0.3,0.2c-0.2,0.8-0.9,2.4-2.8,3.7c0,0-0.6,0.2,0.2,2c0,0,0.6,3.5,0.6,4.3c0,0-0.3,1,0.8,0.8c0,0,1.3,0.1,1.6,0
	c0,0,1.3,0,1.2-0.3c0,0-0.3-0.8-1.5-1.1c0,0-0.7,0.2-0.8-0.4c0,0-0.7-3.5,1.3-5.5c0,0,4.7-3.9,5.3-7.1c0-0.3,0.3-0.4,0.6-0.3
	c0.6,0.4,1.6,0.9,2.1,1.1c0.2,0,0.3,0,0.4-0.1c0.2-0.2,0.3-0.6-0.1-1c-0.1-0.1,0-0.3,0.1-0.3c1.2-0.1,4.9-0.2,6.8,1.2
	c0,0,3.2,1.6,5.1,1.3c0.1,0,0.2,0.1,0.2,0.2c-0.1,0.2-0.2,0.6,0.1,1l-0.5,8.4c0,0.2-0.1,0.4-0.2,0.5c-0.3,0.4-0.6,1.1,0.2,0.9
	c0.1,0,0.2,0,0.3,0.1c0.2,0.3,0.4,1,0.3,2.5c0,0,0,0.1,0,0.1c-0.1,0.2-0.2,1.2,0.6,1c0.1,0,0.1,0,0.2,0c0.3,0.1,1,0.5,1.4,0.2
	c0.1,0,0.1-0.1,0.2,0c0.2,0.1,0.7,0.2,0.9-0.2c0,0,0.2-0.2,0.5,0.1c0,0,0.4-0.7-0.8-1c-0.1,0-0.2-0.1-0.2-0.1l-0.1-0.1
	c0,0,0-0.1,0-0.1c0.5,0,1.9,0,2.2-0.3c0.1-0.1,0.2-0.1,0.2-0.1c0.1,0,0.1,0.1,0.2,0.1c0,0-0.1-0.7-0.8-0.9c-0.1,0-0.2-0.1-0.3-0.2
	c-0.2-0.2-0.6-0.4-1-0.4c-0.1,0-0.3,0-0.4-0.2c-0.3-0.6-0.9-1.9-0.3-4.5c0-0.2,0.1-0.4,0.1-0.6c0.2-1.4,1.1-6.9,2.5-8.3
	c1.4-1.4,4.9-9.3,5.8-12.6c0.4-1.5,2.1-2.3,3.6-2.6c0.4-0.1,0.7-0.2,1-0.4C47.3,12,48.4,11,47.9,10z M42,9.1c0,0,0.3-1.1,1.1,0
	C43.1,9.1,42.5,10.3,42,9.1z"/>
</svg>
