<?xml version="1.0" encoding="utf-8"?>
<!-- Generator: Adobe Illustrator 19.1.0, SVG Export Plug-In . SVG Version: 6.00 Build 0)  -->
<svg version="1.1" id="Layer_1" xmlns="http://www.w3.org/2000/svg" xmlns:xlink="http://www.w3.org/1999/xlink" x="0px" y="0px"
	 viewBox="0 0 48 48" style="enable-background:new 0 0 48 48;" xml:space="preserve">
<style type="text/css">
	.st0{fill:#808080;}
</style>
<path class="st0" d="M47.9,24.6C47.9,24.6,47.9,24.6,47.9,24.6c-0.1-0.1-0.1-0.3-0.1-0.4l0.1-5.1c0-0.5,0-0.9-0.1-1.4
	c-0.2-1.2-0.8-3.8-1.5-5.1c0,0,0.5-2.1,0.3-3.3c0-0.1,0-0.3,0-0.4c0.2,0.7,0.3,1.3,0.3,1.3c0-0.6-0.1-1.1-0.3-1.4c0,0,0-0.1,0-0.1
	c0.2,0.5,0.3,0.8,0.3,0.8c0-0.4-0.1-0.8-0.3-1c0-0.2-0.1-0.3-0.2-0.5c0,0,0-0.1-0.1-0.2c0.3,0.3,0.4,0.8,0.4,0.8
	c-0.1-0.3-0.3-0.6-0.5-0.9c0-0.1-0.1-0.2-0.1-0.3c0.4,0.3,0.6,0.9,0.6,0.9c-0.2-0.5-0.5-0.8-0.7-1c0-0.1-0.1-0.1-0.1-0.2
	c0.3,0.1,0.5,0.3,0.5,0.3C46.4,7.2,46.1,7.1,46,7c0-0.1-0.1-0.1-0.1-0.2C46,6.9,46.2,7,46.2,7c-0.1-0.2-0.3-0.2-0.5-0.3
	c-0.2-0.3-0.6-0.5-1-0.6c0,0-0.3-0.5-0.9-0.2c0,0-0.4,0-1,0.7c0,0-0.1,0.1-0.2,0.1C42.2,6.6,40,6.4,38,8c0,0-3.2,2.5-3.6,7.3
	c0,0.1,0,0.2-0.1,0.4c-0.2,0.7-0.7,3.1,1,3.2c0,0-0.8,0-0.8,0.7c0,0.1,0,0.1-0.1,0.1c-0.2,0-0.6,0.1-0.9,0.5
	c-0.1,0.1-0.1,0.1-0.2,0.1c-0.2,0-0.7,0-1.2,0.2c-0.2,0.1-0.4,0.1-0.6,0.1c-1.7,0.1-9.1,0.7-15.8,3.1c0,0-2.4,0.6-3.1,1.8
	c0,0-1.5,2.1-1.7,3.2c0,0.1-0.1,0.3-0.2,0.4c-0.3,0.2-0.7,0.7-0.8,1.3c-0.1,0.3-0.3,0.5-0.5,0.7c-0.8,0.4-2.3,1.3-2.8,1.5
	c0,0-3,1.5-4.7,3c0,0-2.7,2-1.3,1.8c0,0,1.2-0.5,1.9-0.9c0,0,0.1,0,0.1,0c0.2,0,0.8-0.1,0.7,0.6c0,0.1,0,0.3-0.1,0.4
	c-0.1,0.3-0.3,0.8-0.3,1.5c0,0-0.1,2.3,0.5,1.3c0,0,0-0.1,0-0.1l0.1-1.6c0-0.1,0-0.1,0-0.2c0.1-0.3,0.5-0.9,1-0.4
	c0,0,0.1,0.1,0.1,0.2c0,0.2,0,0.8-0.4,1.8c0,0.1,0,0.1-0.1,0.2c0,0.3,0,0.8,0.4,0.3c0,0,0.5-0.9,0.7-2.1c0,0,0.1-0.4,0.5-0.2
	c0,0,0.3,0,0,0.7L5.2,41c0,0-0.1,0.6,0.5-0.1c0,0,0.2-0.5,0.3-0.7C5.9,40,6,39.9,6,39.9c0.3-0.2,0.9-0.8,1-1c0,0,0.1,0.4-0.9,1.8
	c0,0-0.9,1.6-0.4,1.5c0,0,0.4,0.4,1.8-1.9c0,0,0.2,1.5,0.7,1.4c0,0,0.3,0,0.2-0.8c0,0-0.2-1.8,0.5-2.5c0,0,0.1,0.4,0,0.9
	c0,0-0.5,1.9-0.1,1.6c0,0,0,0,0.1-0.1c0.1-0.3,0.6-2.2,0.7-2.9c0,0,0.3-0.1,0.4-0.3c0,0-0.1,0.7-0.2,1c0,0-0.3,0.9-0.3,1.4
	c0,0.1,0.1,0.1,0.1,0c0.1-0.2,0.4-0.7,0.5-0.9c0,0,0.4-1.3,0.5-1.8c0-0.1,0.1-0.1,0.1-0.1c0.1,0,0.2-0.1,0.2-0.1
	c0.2-0.1,0.4-0.2,0.6-0.3c0.9-0.2,3-0.9,4.9-2.5c0,0,0.7-0.4,2-0.5c0,0,0.5,0,0.9-0.1c0.1,0,0.2,0,0.3,0.1c0.1,0.1,0.4,0.2,1-0.1
	c0,0,0.1,0,0.2,0l1,0c0.1,0,0.1,0.1,0.1,0.1c0,0.2,0,0.4,0.9,0c0,0,0.1,0,0.1,0l0.3,0c0.1,0,0.1,0,0.2,0.1c0,0.1,0.1,0.1,0.2,0
	c0,0,0.1-0.1,0.1-0.1l3.4-0.1c0,0,4.3,0.3,5.5,0.1c0.2,0,0.4,0,0.5,0.2c0.2,0.2,0.5,0.5,0.9,0.4c0,0-0.4,0.2,0.2,0.3
	c0,0-0.3,0.2,0.3,0.3c0,0-0.5,0.3,0.1,0.2c0,0-0.5,0.2,0,0.3c0,0,1,0,0.8,0.3c0,0-0.5,0.2,0.2,0.4c0,0,3.4,0.6,5.1-2.4
	c0.2-0.4,0.5-0.7,0.9-0.9l0.8-0.4c0.1-0.1,0.3-0.1,0.5-0.2c0.5-0.1,1.9-0.6,2.9-2.6c0,0,0.5-1,1.4-2.1C48,26.4,48.1,25.5,47.9,24.6z
	 M40.4,9c0,0,0.1-0.3,0.7-0.4C41.1,8.6,40.9,9.3,40.4,9z"/>
</svg>
