<?xml version="1.0" encoding="utf-8"?>
<!-- Generator: Adobe Illustrator 19.1.0, SVG Export Plug-In . SVG Version: 6.00 Build 0)  -->
<svg version="1.1" id="Layer_1" xmlns="http://www.w3.org/2000/svg" xmlns:xlink="http://www.w3.org/1999/xlink" x="0px" y="0px"
	 viewBox="0 0 48 48" style="enable-background:new 0 0 48 48;" xml:space="preserve">
<style type="text/css">
	.st0{fill:#808080;}
</style>
<path class="st0" d="M41,26.3c0,0,0.6-10-1.2-13.4c-0.1-0.1-0.2-0.3-0.2-0.5c-0.2-0.5-0.7-1.6-1-2.8c0-0.2-0.1-0.3-0.2-0.5
	c-0.4-0.8-1.6-3.3-4-6.6c0,0-1.5-3-1.8-2.5c0,0-0.5-0.3,0.2,1c0,0-2.7-1.3-1,1.1c0,0-0.6-0.6-0.6,0.1c0,0-0.7-0.1-0.3,0.2
	c0.1,0.1,0.1,0.1,0.1,0.2c0.1,0.3,0.2,0.9,0.3,1c-0.1,0-2.4-1.4,0.1,0.7c0,0,0,0.1,0,0.1c-0.1,0-0.2,0-0.4-0.1c0,0-1.2-1-1.2-0.5
	c0,0,0,0.5,0.7,0.9c0.2,0.1,0.3,0.3,0.5,0.4c0.1,0.2,0.2,0.4-0.2,0.2c0,0-1.5-1.3-1.7-1c0,0-0.2,0.4,0.6,1.3c0,0,0.1,0.5,2.7,2.6
	c0,0,1.5,1.3,2.1,1.9c0.1,0.1,0,0.3-0.1,0.3c-0.7,0.2-2.6,0.7-1.3,1c0,0,2.4-0.6,2.1,1.4c0,0-0.1,1.8-0.3,2.6c0,0,0.1,2.2-0.1,3.4
	c0,0.2-0.1,0.5-0.1,0.7c-0.1,0.7-0.9,3.1-5.9,9.4c0,0-1.1,1.3-2.2,1.8c-0.1,0-0.2,0.1-0.3,0.1c-0.8,0.4-3.2,1.6-4,2.2
	c0,0-0.4,0.4-1.2-0.4c0,0-3.2-2.7-5.6-2.4c-0.1,0-0.1,0-0.2,0c-0.3,0-1.8,0.2-3.2,1.1c0,0-0.1,0.1-0.2,0.1c0-0.3,0.2-0.9,0.2-0.9
	c-0.3,0.2-0.3,0.7-0.3,0.9l0,0c0,0,0,0,0,0l0,0c-0.1-0.2,0.1-0.8,0.1-0.8c-0.2,0.4-0.2,0.7-0.2,0.8l0,0c0,0,0,0,0,0
	c-0.4,0.3-1.1,0.7-1.4,0.7c0,0-1.3,0.2-1.5,0.7l0,0h0l0,0c-0.3,0.1-0.6,0.2-0.7,0.4c0,0,0.4-0.2,0.7-0.3c0,0.1,0,0.1,0,0.2
	c0,0,0,0,0,0l0,0c-0.5,0.3-1.2,0.8-1.4,1.3c0,0,0.7-0.9,1.5-1.2c0,0,0,0.1,0,0.1v0c-0.4,0.2-0.9,0.6-1.3,1.3c0,0,0.6-0.9,1.3-1.2
	c0,0,0,0.1,0.1,0.1c-0.5,0.4-1.4,1.2-1.9,3c0,0,1-2.2,1.9-2.9c0,0,0.1,0.1,0.1,0.1l0,0c-0.5,0.6-1.4,1.9-1,3.3c0,0-0.1-1.7,1-3.2
	l0,0C9,34,9,34,9.1,34c-0.3,0.6-0.8,1.8-0.6,2.5c0,0-0.2-1.1,0.6-2.5c0,0,0.1,0.1,0.1,0.1c-0.2,0.8-0.4,2.6-0.3,3.3
	c0,0,0.2-2.2,0.3-3.2l0,0c0,0,0,0,0.1,0.1c-0.1,0.9-0.1,3,0.2,3.6c0,0-0.1-2.5-0.1-3.5l0,0c0.2,0.1,0.4,0.2,0.6,0.3
	c0,0.7-0.2,4.1,0.2,4.8c0,0-0.2-3.6,0-4.7l0,0c0,0,0,0,0.1,0l0,0c0,0.8,0,3.7,0.3,4.4c0,0-0.3-3.3-0.2-4.3c0.1,0,0.2,0.1,0.3,0.1
	c0,0,3,0.6,4.4,1.2c0.4,0.2,0.7,0.4,0.9,0.7c0.3,0.4,0.9,1.2,1.7,1.4c0.3,0.1,0.6,0.3,0.9,0.5c0.5,0.5,1.7,1.4,3.5,2.4
	c0,0,0.9,0.3,1.3,0.6c0.2,0.2,0.5,0.3,0.8,0.5l0,0c0.1,0,0.1,0.1,0.1,0.2c-0.1,0.3-0.2,0.8-0.3,1.1c-0.1,0.2-0.2,0.3-0.4,0.3
	c-0.4,0-1.1,0-1.1,0.4c0,0,0.4,1,1.4,1.1c0,0,4,0.1,4.2-0.8c0,0,0.1-1.3,0.2-1.8c0-0.2,0.1-0.3,0.3-0.3c0.6-0.1,2-0.3,2.7-0.5
	c0.1,0,0.3,0.1,0.3,0.2c-0.1,1-0.4,4,0.2,4.2c0,0,0.5,0.7,4.4,1.2c0,0,2.7,0.6,3.8,0.2c0.1,0,0-0.1,0-0.1l-0.6,0
	c0,0,0.4-0.1-0.7-0.3c0,0,0.2-0.2-0.5-0.3c0,0,0-0.2-0.3-0.2c0,0-1.3-0.4-1.8-2.2c0,0-1.1-3.9-0.2-5.6C36.1,39.1,40.8,33,41,26.3z
	 M11.6,32.7c0,0,0.4-0.4,0.9,0.1C12.5,32.8,11.9,33.3,11.6,32.7z"/>
</svg>
