<?xml version="1.0" encoding="utf-8"?>
<!-- Generator: Adobe Illustrator 19.1.0, SVG Export Plug-In . SVG Version: 6.00 Build 0)  -->
<svg version="1.1" id="Layer_1" xmlns="http://www.w3.org/2000/svg" xmlns:xlink="http://www.w3.org/1999/xlink" x="0px" y="0px"
	 viewBox="0 0 48 48" style="enable-background:new 0 0 48 48;" xml:space="preserve">
<style type="text/css">
	.st0{fill:#808080;}
</style>
<path class="st0" d="M47.7,40.2c0,0-1.7,1.5-2.5,1c0,0-2.1-1.3-3.2-1.8c-0.3-0.2-0.6-0.4-0.9-0.6c-0.5-0.6-1.5-1.6-2.4-1.8
	c-0.2,0-0.3-0.1-0.4-0.2c-1.4-0.7-8-4.4-6.9-4.7c0,0,1.7-0.8,2-1.5c0,0,0.5-0.9,3.7-1.4c0,0,2.7-0.3,5.3-2c0.3-0.2,0.6-0.3,0.9-0.4
	c0.4-0.1,0.9-0.2,1.1-0.2c0.1,0,0.1-0.1,0.1-0.1c-0.1-0.2-0.3-0.6-0.8-0.3c-0.1,0.1-0.3,0.1-0.4,0.1c-0.5,0.1-1.5,0.3-2,0.2
	c0,0,0.3-0.4,1.4-0.6c0.1,0,0.3-0.1,0.4-0.1c0.4-0.2,1.3-0.5,1.4-0.2l0.1,0.4c0,0,0.5-0.7-0.2-0.9c-0.2-0.1-0.4-0.1-0.6,0
	c-0.5,0.1-1.9,0.4-2.5,0.1c-0.1-0.1-0.2-0.1-0.3-0.1c-0.6-0.2-2.1-0.4-4.8,0.7c0,0-3,0.6-3.5,1.6c0,0-1,1.8-3.8,1.1
	c0,0-2.1-0.7-3.2-0.8c-0.5-0.1-0.9-0.3-1.3-0.6c-1.7-1.6-6.4-6.1-7.9-7.7c-0.2-0.2-0.4-0.4-0.5-0.7c-0.3-0.5-1-1.6-3.1-2.5
	c0,0-0.7-0.4-1.7-1.6c-0.3-0.3-0.6-0.7-0.9-1c-1.1-1.1-4.6-4.8-5.6-8.7c0-0.1-0.1-0.1-0.1,0C4.5,5.2,4.1,6.5,5.4,8.3
	C4.9,7.5,3.5,5.7,3,4.8c0-0.1-0.1-0.1-0.1,0C2.7,5.3,2.6,6.6,4.3,8.5c0,0-2-1.8-3-2.8c0-0.1-0.1,0-0.1,0.1c0.1,0.5,0.4,1.9,2,3
	c0,0,0.3,0.8-0.5,0l-2-1.6C0.6,7,0.5,7.1,0.5,7.2c0,0.5,0.3,1.7,1.7,2c0,0-0.8,0.3-1.7-0.4C0.4,9,0,10.5,2.5,10.1
	c0,0-1.6,0.5-2.3,0.3c0,0-0.4,0.8,0.4,1.4c0,0-1.5,0.6,0.4,1.8c0,0-1.4,0.5,0.4,1.6c0,0-1.7,0.5,0.4,1.5c0,0-1.5,1.3,1.2,1.4
	c0,0-0.7,0.8,0.1,1c0,0-1.1,0.8,0,1.4c0,0-0.3,2,1.5,1.8c0,0-0.7,0.9,0.3,1c0,0,0,0.7,0.6,0.7c0,0,0.1,0.9,0.9,1c0,0,0,0.6,0.6,0.6
	c0,0,0,0.8,0.8,0.7c0,0-0.1,0.6,0.6,0.6c0,0,0.1,0.8,0.9,0.7c0,0-0.1,0.5,0.6,0.5c0,0-0.2,0.7,0.7,0.6c0,0-0.2,0.7,0.9,0.6
	c0,0-0.3,0.6,0.8,0.5c0,0-1.1,1.2,0.4,1.1c0,0-0.9,1.2,0.6,1.2c0,0-0.8,1.6,1.4,1.1c0,0-0.5,1.2,1,0.6c0,0-1.4,1.2-2,1.9
	c-0.2,0.3-0.5,0.5-0.7,0.8c-0.1,0.1-0.1,0.1-0.2,0.2c-0.5,0.5-1.1,0.8-1.7,1.1c-1.8,0.7-5.1,2.1-5.2,2.4c0,0-0.3,0.3,0.2,0.2
	c0,0-1.1,0.7-1.2,0.9l0.5-0.1c0,0-0.9,0.9,0.2,0.4c0,0-1.3,1.1-0.3,0.7c0,0-0.2,0.4,0.3,0.2c0,0-0.4,0.5,0.3,0.1
	c0,0-0.6,0.8,0.4,0.2c0,0,2.6-1.2,0.7,0.1c0,0,0.1,0.5,1.5-0.2c0,0-1,1,1.1,0.4c0,0,0.2-0.4,0.4-0.2c0.1,0.1,0.2,0.1,0.3,0
	c0.4-0.3,1.4-1.1,2-1.3c0,0,1-1.2,2.3-1.5c0.3-0.1,0.6-0.2,0.8-0.3c0.5-0.3,1.6-0.8,3.2-0.7c0,0,2.4,0,3.5-1c0,0-0.1,0.2,0.4,0.2
	c0,0-0.2,0.6,0.6,0.4c0,0-0.1,0.7,1,0.5c0,0-0.6,0.6,0.3,0.5c0,0-0.1,0.5,0.5,0.4c0,0-0.1,0.6,0.6,0.4c0,0,0.2,0.5,0.7,0.4
	c0,0,0.7,0.6,1.4,0.4c0,0,0.2,0.5,0.8,0.3c0,0-0.5,0.6,1,0.3c0,0,1.8,0.6,2.4,0c0,0,0.6,1,1.8,0.2c0,0,0.3,0.8,1.6,0.2
	c0,0,0.5,0.8,1.7,0.1c0,0,1,0.8,1.9,0c0,0,1.7,0.8,2,0.1c0,0,2,0.5,1.8-0.2c0,0,2.6,0.9,1.4-0.2c-0.1-0.1,0-0.3,0.1-0.3
	c0.1,0,0.2,0,0.3,0.1c0,0,1.4,0.4,2.7-0.1c0.4-0.1,0.7-0.4,1-0.8C47.9,40.5,48.3,39.8,47.7,40.2z M40,25.3c0.3,0,0.5,0.1,0.5,0.3
	c0,0.1-0.2,0.3-0.5,0.3c-0.3,0-0.5-0.1-0.5-0.3C39.5,25.4,39.8,25.3,40,25.3z"/>
</svg>
