<?xml version="1.0" encoding="utf-8"?>
<!-- Generator: Adobe Illustrator 19.1.0, SVG Export Plug-In . SVG Version: 6.00 Build 0)  -->
<svg version="1.1" id="Layer_1" xmlns="http://www.w3.org/2000/svg" xmlns:xlink="http://www.w3.org/1999/xlink" x="0px" y="0px"
	 viewBox="0 0 48 48" style="enable-background:new 0 0 48 48;" xml:space="preserve">
<style type="text/css">
	.st0{fill:#808080;}
</style>
<path class="st0" d="M46.1,9.2L44,10.7l2.1-2.1c0,0,1.3-1.2,1.9-1.8c0.1-0.1,0-0.2-0.1-0.1c-0.3,0.1-0.7,0.3-1.3,0.6
	c-0.9,0.6-3.7,3.1-3.8,3.2l2.7-3.3L47,4.9c0,0-1.6,1.2-1.8,1.7c0,0-2.7,3.3-3.1,3.5c0,0,3.8-5.8,4.1-6c0,0-1,0.4-1.3,0.9
	c0,0-3.7,5.1-3.9,5.2c0,0,1.4-2.6,1.4-2.6S44,4,44,3.9c0,0-1,1-1.2,1.5l-2.4,4.3c0,0-2.3,4.2-6.9,7.8c0,0-2.4,1.7-2.7,3.2l-1.6,3.3
	c0,0,0-0.2-0.2-0.2c0,0,0.2-0.5-0.6-0.9c0,0,0.4-0.5-0.5-0.8c0,0,0.4-0.6-0.3-0.8c0,0,0.4-0.6-0.9-1c0,0,0.8-0.3,0.7-0.6
	c0,0,0.2-0.5-0.9-0.5c0,0,0.1-0.5,0.8-0.5c0,0,0.8-0.6-0.3-0.8c0,0,0.8-1.2-0.1-1.2c0,0,0.5-1.1-0.5-1.1c0,0,1.3-1.5-0.5-1.4
	c0,0,0.7-0.8,0.2-1.6c0,0,0.5-1,0.9-1c0,0,0.2-0.4-0.3-0.4c0,0,0.1-0.3,0.3-0.4c0,0-0.6-0.1-2,1.4l-0.9,0.5l2.7-3.6
	c0,0-0.7-0.2-1.9,1.5l0,0c-0.2,0-0.3-0.2-0.2-0.3l1.3-2c0,0-1.3,0.4-3.7,3.6c0-0.1,2.6-4.8,3-5c-0.1,0-1.7,0.4-3.8,4.6L24,6.4
	c0,0-0.9-0.4-4.4,6.4c0,0-1.9,4.2-2.1,5.1c0,0-1.6,2.5-0.2,4.2c0.2,0.2,0.3,0.4,0.5,0.6c0.9,1.4,3.4,6,1,9.5c0,0.1-0.1,0-0.1,0
	c-0.1-0.8-0.5-3.3-4.3-2.4c0,0-0.1,0-0.1,0c-0.3,0.1-2.4,0.7-3.7,0.8c0,0-4,0.2-9.5,1.6c0,0-0.8-0.2-1,0.3c0,0-0.3,0.6,0.6,0.4
	c0,0,1.7,0.1,2.2,0.2c0,0,5.2,0.5,8.7,0.1c0.2,0,0.3,0.2,0.2,0.3c-0.4,0.6-0.9,1.7,0.1,2.7c0.3,0.3,0.6,0.5,1,0.6l7.9,2.9
	c0,0,5.7,2.8,7.6,2.7c0,0,3,0.3,3.8-0.1c0.1-0.1,0.3,0,0.4,0.1c0.3,0.3,1,0.9,1.8,0.9c0,0,2.9,1.3,2.9,0.7c0,0,0-0.4,0.4-0.3
	c0,0,0.2,0,0.2-0.1c0,0-0.2,0.1-0.3-0.1l-0.2-0.2c0,0,0.3-0.3-0.4-0.3c0,0-0.2-0.6-0.9-0.5c0,0-0.7-0.7-1.2-0.9c0,0,1.5-0.5,2.5,0
	c0,0,1.3,0.4,1.1-0.1c0,0,0.3,0,0.1-0.3c0,0,0.9,0.2-0.2-0.7c0,0,0.8,0-0.2-0.4c0,0,0.9-0.4-0.1-0.5c0,0,0.7-0.6-0.5-0.6
	c0,0,0.9-0.7-0.4-0.5c0,0,0.6-0.4-0.5-0.3c0,0,0.6-0.6-1.6,0c0,0-1.9,0.8-2.3,0.1c0,0,0.7,0.1,0.1-0.6c0,0,0.4-0.7,0.7-0.9
	c0.1,0,0.1-0.1,0-0.2c-0.1-0.2-0.3-0.6,0.1-0.7c0.1,0,0.1-0.1,0.1-0.2c-0.1-0.2-0.2-0.5-0.1-0.6c0-0.1,0-0.2,0-0.2
	c-0.1-0.2-0.2-0.5,0.2-0.7c0.1,0,0.1-0.2,0.1-0.3c-0.1-0.3-0.3-0.7,0.3-0.7c0.1,0,0.2,0,0.2-0.1c0.3-0.2,1.3-0.8,1.7-1.4
	c0-0.1,0.1-0.1,0.2-0.1l0,0c0.1,0,0.2-0.1,0.2-0.2c0-0.2,0-0.6,0.3-0.6c0.1,0,0.1-0.1,0.2-0.1c0.1-0.1,0.2-0.3,0.3-0.3
	c0.1,0,0.1-0.1,0.1-0.2c0-0.2,0.1-0.7,0.4-0.7c0,0,0.1-0.5,0.6-0.5c0,0,0.5-0.7,0.6-1.2c0-0.1,0.1-0.2,0.3-0.2c0.2,0,0.6-0.3,1-1.7
	c0,0,0.9-0.6,0.8-1.6c0,0,0.9-0.8,0.7-1.2c0,0,0.6-0.5,0.2-0.8c0,0,0.9-0.3,0.3-0.7c0,0,0.5-0.5,0.3-0.7c0,0,0.9-0.6,0.1-0.9
	c0,0,1-0.4,0.1-0.8c0,0,1.4-0.9-0.5-0.9c0,0,1.4-0.3,1.4-0.8c0,0-2.1-0.1-2.4-0.3c0,0,2.9-0.4,2.9-0.6c0,0,0.5-0.8,0-0.7l-1,0.1
	c0,0,0.8-0.5,1.3-0.4c0,0,0-0.5,0.2-0.5c0,0-0.4-0.5,0.2-0.3l0-0.1c0.1-0.1,0-0.2,0-0.2c-0.2-0.2-0.5-0.5,0.1-0.7
	c0.1,0,0.1-0.1,0.1-0.1c0.2-0.2,0.7-0.9,0.3-1l-1.1,0.6c0,0,0.3-1.1,1.5-1.5c0.1,0,0.1-0.1,0.2-0.1l0.2-0.5c0-0.1-0.1-0.2-0.2-0.2
	c-0.5,0.2-1.5,0.6-1.7,0.9c0,0,0.1-0.9,1.2-1.6l1.6-1.3c0,0,0.5-0.4-0.1-0.4l0.6-0.5C47.9,8.3,46.7,8.7,46.1,9.2z M13.9,30.5
	c0,0,0.3-0.6,0.9-0.1C14.8,30.4,14.1,30.8,13.9,30.5z"/>
</svg>
