<?xml version="1.0" encoding="utf-8"?>
<!-- Generator: Adobe Illustrator 19.1.0, SVG Export Plug-In . SVG Version: 6.00 Build 0)  -->
<svg version="1.1" id="Layer_1" xmlns="http://www.w3.org/2000/svg" xmlns:xlink="http://www.w3.org/1999/xlink" x="0px" y="0px"
	 viewBox="0 0 48 48" style="enable-background:new 0 0 48 48;" xml:space="preserve">
<style type="text/css">
	.st0{fill:#808080;}
</style>
<path class="st0" d="M45.2,11.6c0,0-12.6-7.4-14.9-8.8c-0.2-0.1-0.4-0.3-0.5-0.5c-0.7-0.9-3.1-3.7-7.1-1.4c-0.2,0.1-0.3,0.3-0.4,0.5
	c-0.1,0.2-0.2,0.4-0.6,0.7c-0.1,0-0.1,0.1-0.2,0.1c-0.1,0-0.3,0.2-0.2,0.7c0.1,0.2,0.1,0.4,0.1,0.6c-0.2,6.5,0.6,6.8,1.6,9.2
	c0.4,1.1,1.1,3.2,0.8,4.7c0,0-0.1,2.9-3.7,3.5c-0.1,0-0.2,0-0.3,0c-0.7,0-4.4,0.3-8.4,3.1c0,0-5.3,4.3-6.5,6.2
	c-0.2,0.3-0.3,0.5-0.5,0.8c-0.6,0.8-1.8,2.6-2.1,5c0,0-0.5,0.9,0.1,2.2c0.2,0.3,0.2,0.7,0.1,1.1c-0.1,0.4-0.1,0.8,0.5,0.4
	c0,0-0.3,3.1,0.1,5.1c0.1,0.4,0.1,0.8,0.1,1.1c0,0.3,0,0.7,0.2,0.7c0,0-0.3,1.4,0.6,0.9c0,0,0,1,0.6,0c0,0,1.5-2.6,1.9-2.8
	c0,0,2.5-0.9,4-2.2c0.2-0.2,0.5-0.3,0.8-0.3c0.4,0,1,0.1,1.4,0c0.3,0,0.6,0.1,0.7,0.4c0.3,0.6,0.8,1.9,0.8,4c0,0-0.2,0.5,0.6,0.4
	c0,0,0,0.6,2.2,0.4c0.1,0,0.1,0,0.2,0c0.2,0.1,0.6,0.3,0.8,0c0,0,1,0.3,3,0.3c0,0,3.4,0.2,3.3,0c0,0,0.2,0,0.3,0.1
	c0,0-0.2-0.5-0.9-0.5c0,0-0.3-0.4,0.1-0.2c0,0,0.2-0.4-0.4-0.4c0,0-2.9,0.4-2.8-0.2c0,0,0.5,0.1,0.4-0.2c0,0,0.2,0,0.3,0.1
	c0,0,0-0.5-0.7-0.4c0,0-1.7,0-1.9-0.3c0,0-1.2-2.9-1.6-4.5c-0.1-0.4,0.1-0.9,0.4-1.2c1.8-1.5,8.1-7.1,9.4-13.1c0,0,1.5-5.6,0.4-10.8
	c0,0-0.8-3.8-1.8-6.1c-0.2-0.5-0.2-1-0.1-1.5c0.5-1.8,1.5-1.7,2.5-1.8c0.6,0,2.4,0.1,5.7,1.4c0,0,8.7,3.3,10.9,3.9
	c0.2,0.1,0.4,0.2,0.6,0.3c0.2,0.1,0.5,0.3,0.6,0.2c0,0,0.1,0.1,0,0.3C45.8,12.9,46.3,12,45.2,11.6z M16.7,45.6l-0.8,0
	c0,0-1.6-3.8-1.7-3.8c0,0,0.9-0.2,1.1-0.5c0,0,0.3,1.8,0.6,2.1C16,43.4,16.8,45.3,16.7,45.6z M28.1,2.4c0,0-0.8,0.4-0.6-0.4
	C27.5,2,28.2,1.6,28.1,2.4z"/>
</svg>
