<?xml version="1.0" encoding="utf-8"?>
<!-- Generator: Adobe Illustrator 19.1.0, SVG Export Plug-In . SVG Version: 6.00 Build 0)  -->
<svg version="1.1" id="Layer_1" xmlns="http://www.w3.org/2000/svg" xmlns:xlink="http://www.w3.org/1999/xlink" x="0px" y="0px"
	 viewBox="0 0 48 48" style="enable-background:new 0 0 48 48;" xml:space="preserve">
<style type="text/css">
	.st0{fill:#808080;}
</style>
<path class="st0" d="M45.7,4.1c0,0,1.4-2.4-2.6-1.1c0,0,0.1-2-0.8-1.6l-2.6,1.1c0,0,0.7-1.8-3.7,0.3c0,0,0.5-1.5-1.1-1
	c-0.3,0.1-0.6,0.2-1,0.2c-0.5,0.1-1.3,0.2-1.3,0.7c0,0-0.4-1.2-3.3,0.3c-0.1,0.1-0.3,0.1-0.4,0c-0.6-0.2-2.2-0.7-3,0.9
	c0,0-2.2-1.2-3.1,1c-0.1,0.2-0.2,0.3-0.4,0.3c-0.6,0-1.7,0-1.8,0.6c0,0-1.5,0.6-1.1,1.5c0,0-1.7-0.2-1.7,1c0,0-1.2,0-0.9,1
	c0,0-1-0.5-1.3,0.9c0,0-1,0-0.7,1.2c0,0-2.2,1.2-1.1,2.1c0,0-2.7,1.7-1.2,1.9c0.1,0,0.2,0.2,0.1,0.2c-0.2,0.2-0.7,0.5-1.1,0.3
	c0,0-2.3-1-4.6-4.7c-0.1-0.2-0.3-0.2-0.5-0.1c-0.3,0.2-0.7,0.9-0.7,1.9c0,0-0.7-0.5-1.2,0.1c0,0-1,1.1-0.2,1.6c0,0-1.1,0.1-1.1,0.7
	c0,0-0.1,1.3,0.3,1.9c0.1,0.1,0,0.2-0.1,0.2c-0.7,0-2.4,0.2-2.1,1.4c0.1,0.2,0,0.3-0.1,0.5c-0.5,0.5-1.4,1.8,0.5,1.7
	c0,0-4,2-0.1,1.8c0,0-2.3,2.2-0.6,2c0,0-2.1,3-0.4,2.9c0,0-0.9,3.1,2.2,0c0.1-0.1,0.4,0,0.4,0.2c0,0.2-0.2,0.5-0.6,0.9
	c-0.1,0.1-0.2,0.2-0.2,0.4c-0.3,0.8-1.1,3.3,0.3,2.7L4,30.9c0,0-1.3,3.8,0.8,2.9c0,0,0.2,2.8,1.9-0.1c0,0,2.6-6.8,4.2-7.9
	c0,0-0.4,1,0.3,1.1c0,0-0.1,1.8,0.9,1.9c0,0-0.3,2.5,1.1,2.5c0,0-1,2.2,1.2,2.7c0,0,0.1,2.8,1.6,2.3c0,0-0.2,2.5,1.5,3
	c0,0-0.3,2.2,2,3.2c0,0,3.1,3.5,3.1,1.4c0,0,3.1,4.5,3.5,0.7c0,0,4,4.2,3.4,1.3c0,0,4,1.5,3.7-0.6c0,0,4.5,0.8,3-0.8
	c0,0,4.1,0.5,1.9-2c0,0-1.9-2.3-1.2-2.1c0,0,4.9,2,3.2,0.4c0,0-10.3-9.6-10.5-11.1c0,0,1.9,0.3,1.6-0.4c0,0-2.2-1.8-3.7-2.6
	c-0.5-0.3-0.9-0.7-1.1-1.2c-0.3-0.7-0.7-1.6-0.9-2.3c-0.2-0.6,0.1-1.2,0.6-1.4c1.7-0.9,6.2-3.3,7.1-4.1c0.1-0.1,0.3-0.2,0.5-0.2
	l1.9-0.1c0,0-1-1.5-1.9-1.5c0,0,0.6-2.9-6.5-2.3c-0.3,0-0.5-0.3-0.3-0.5c0.2-0.4,0.7-0.9,1.7-1.2c0.4-0.1,0.8-0.1,1.2,0
	c1.2,0.4,4.1,1.2,4.7-0.3c0.1-0.3,0.4-0.6,0.8-0.6c2.3-0.2,9.6-0.9,12-3.9c0,0,0.4-0.5-1.2-0.3C46.1,6.5,50.6,3.9,45.7,4.1z
	 M32.4,14.6c0.2,0,0.3,0.1,0.3,0.3c0,0.2-0.1,0.3-0.3,0.3c-0.2,0-0.3-0.1-0.3-0.3C32.1,14.7,32.2,14.6,32.4,14.6z"/>
</svg>
