<?xml version="1.0" encoding="utf-8"?>
<!-- Generator: Adobe Illustrator 19.1.0, SVG Export Plug-In . SVG Version: 6.00 Build 0)  -->
<svg version="1.1" id="Layer_1" xmlns="http://www.w3.org/2000/svg" xmlns:xlink="http://www.w3.org/1999/xlink" x="0px" y="0px"
	 viewBox="0 0 48 48" style="enable-background:new 0 0 48 48;" xml:space="preserve">
<style type="text/css">
	.st0{fill:#808080;}
</style>
<path class="st0" d="M47.4,23.9c0,0,0.4-1.7-0.3-3c0,0-0.3-4.4-1.3-3.6c0,0-0.4,0.3-0.6-0.9c0,0-1.9,0.7-2.5,1.7
	c-0.1,0.3-0.3,0.5-0.5,0.7c-0.2,0.2-0.4,0.5-0.4,0.7c0,0-1.1-0.7-1.6,0c0,0-1.4-1-2.3-0.1c0,0-1.8-1-2.5-0.1c0,0-1.5-1-2.5-0.1
	c0,0-1.1-1-3.4,0.6c0,0,0.3-0.5-1.6-0.7c-0.3,0-0.6-0.3-0.6-0.6c0-0.9-0.1-2.4-0.5-2.8c0,0-0.7-1.7-1.3-1.5c0,0-2-2.2-3.4-0.9
	c-0.2,0.1-0.4,0.1-0.5,0c-0.7-1-2.9-3.5-4.1-2.6c0,0-2.3-1.8-3.2-0.4c0,0-14.8,1.6-14.4,10.8c0,0,0.5-0.6,1.1-1.2
	c0.7-0.7,1.6-1,2.6-1c0.8,0.1,1.8,0.1,2.1-0.2c0,0,4-2.8,3.9-2.1c0,0,0.2,0.6,0.9-0.5c0,0,3.9-1.7,4.1-2.9c0,0,0.4,0.6,0.3,0.8
	c0,0,0,0,0,0.1c-0.2,0.1-1,0.4-0.9,1.3c0,0-2.6,1.2-2.8,4.1c0,0-0.7,2.3-0.2,2.4c0,0,0.3,0.5,0.9,0.5c0,0,0.5,0.5-1.5,0.1
	c0,0-1.7-0.9-2.4-0.3c0,0-1.8-0.9-0.5-1.3c0,0-0.6-0.2-0.7,0.3c0,0,0,0.9,1.1,1.1c0,0-0.3,1.9,1.2,1.8c0,0-0.8,0.8-0.8,1
	c0,0-1,1.1-0.8,1.5c0,0,1.5-2.4,1.9-2.5c0,0,2.3-0.3,2.4,0c0,0-1.1,0.1-1,1c0,0,0.5,4.7,2.9,6.3c0,0-0.7-0.2-0.8,0.8
	c0,0-0.9-0.4-0.9-1.2c0,0-0.3-0.2-0.3,0.2c0,0-2.2-1.6-3.1-1.1c0,0-2-1.6-3.7-2c0,0-2.6-2.8-4.5,0.5c0,0-0.8-0.7-0.6,1.8
	c0,0,0.9,5.1,7.2,6.5c0,0,9.3,1.6,7.4-0.2c0,0,1.2-0.5,1-0.8c0,0,0.6,0.1,0.7-0.1c0,0,0.9,2.2,1.8,2.2c0,0,0.5-0.2-0.8-2.3
	c0,0,0.5,0.4,0.4-0.5c0,0,0.2-1.2,3.1-1.6c0,0,2.5-0.3,3-1.7c0.6-1.4,0.6-1.4,0.6-1.4s0-0.2,0.1-0.4c0.2-0.8,0.6-2.3,2-2.2
	c0,0-0.1,2.7-0.9,4.1c0,0-0.9,2.6-2.5,2.9c0,0-1.2-0.5-0.7,0.3c0,0,1.1,1.2,1.6,0.5l1.8-2.3c0,0,1.1-1.5,1.4-2.3l0.5-3.5
	c0,0,2-0.4,3.8,0.4c0,0,0.8,0.8,2-0.2c0,0,2,1,2.6-0.1c0,0,3.4,0.1,6.4-1c0,0,0.5,0.6,0.9,0.6c0,0-0.7,1.4,3.1,1.9
	c0,0,0.1-1.3,0.8-0.9C47.2,28.4,48.8,25.8,47.4,23.9z M2.3,30l-1.4-0.8c0,0,2.3-0.7,3.1,0.7c0,0,1.6,0.7,2,1.5
	C5.9,31.3,3,29.8,2.3,30z M14.2,34.1c-0.9-0.3-0.9-1.7-0.9-1.7l1.2,0.9C14.9,33.6,14.2,34.1,14.2,34.1z M13.5,30.2h0.3
	c-0.1,0.4,1.4,1.5,1.4,1.5C14.5,32.3,13.5,30.2,13.5,30.2z M16.4,27.4c0,0,0.3,0.4-0.4,0.7c0,0-0.8,1.1,0,1.1c0,0-0.4,0.3-0.4,0.4
	l0.4-0.1c0,0-0.1,0.8-0.6,0.7c0,0-1.3-1.4-1.6-2.3c0,0-0.9-2.9-1.7-2.3l-0.4,0.5c0,0-0.2-0.6,0.5-0.9c0,0,0.4,0.1,0.7,0
	c0,0,0.6,0,0.1,0.4c0,0,0.2,0.3,1.3,0.1C14.2,25.6,17.7,26.8,16.4,27.4z M14.2,21.4c-0.5-0.3-1.1-0.2-1.1-0.2
	c0.9,0.9-1.5,0.2-1.5,0.2c0.2-5.2,4-5.8,4-5.8l0.3,0.6l-0.5,0.1c-0.1,0.3,0.9,1.7,0.9,1.7l-0.4,0c0.3,0.3,0.6,0.8,0.6,0.8
	c-0.1,0.2,0.5,1.5,0.5,1.5L14.2,21.4z M20.6,14.9c-0.3,0.4,0.8,4.6,0.8,4.6l-1.1,0.1L20,17c0.1-0.9-0.5-1.9-0.5-1.9
	S20.7,14.8,20.6,14.9z M19.3,32.1l0.7-2.9c0,0,1.3-1.9,2.1-1.2C22,28,20.5,32.1,19.3,32.1z M24,19.2c0.1-0.3-1.1-3.8-1.1-3.9
	c1.1,0.4,1.5,3.9,1.5,3.9L24,19.2z M26.6,19.3l-1.1,0c0,0-0.6-4.4-2-4.9C24.3,14.6,26.9,15.5,26.6,19.3z"/>
</svg>
