<?xml version="1.0" encoding="utf-8"?>
<!-- Generator: Adobe Illustrator 19.1.0, SVG Export Plug-In . SVG Version: 6.00 Build 0)  -->
<svg version="1.1" id="Layer_1" xmlns="http://www.w3.org/2000/svg" xmlns:xlink="http://www.w3.org/1999/xlink" x="0px" y="0px"
	 viewBox="0 0 48 48" style="enable-background:new 0 0 48 48;" xml:space="preserve">
<style type="text/css">
	.st0{fill:#808080;}
</style>
<path class="st0" d="M47.4,18.5c0,0-13.6,0.8-16.3,0.2c-0.2-0.1-0.4-0.2-0.5-0.3c-0.4-0.4-1.2-1.5-1.8-2.4c0,0-1-1.8-1.5-0.9
	c0,0-0.6,2.5-2.2,3.3c0,0,0,0.1,0,0.1c0.4,0.1,1.5,0.3,0.9,0.4c0,0-9.2,1.3-11.4,1.9c0,0-0.5,0.2-0.8-0.1c0,0-0.5-0.4-1-0.2
	c-0.1,0.1-0.2,0.1-0.3,0.1c-0.4,0-1,0-0.5,0.1c0,0,0.8,0.5-0.4,0.5c-0.1,0-1.9,0.2-3.4-1.2c0,0-6.2-4.9-8.1-5C0,15,0,15.1,0,15.2
	c0.2,0.3,0.7,0.9,0.7,1.3c0,0,0,0.1,0.1,0.1c0.1,0,0.4,0,0.5,0c0,0,0.5,0.8,0.6,1c0,0,3.4,3.6,3.6,3.9c0,0,1.3,1.3,0.7,2.4
	c0,0-1.2,2.3-0.7,2.4c0,0,0.5,0.1,2-1.3c0,0,0.9-1,1.7-1.5c0.3-0.2,0.8-0.4,1.2-0.3c0.8,0.1,2.4,0.2,2,0.5c0,0-0.1,0-0.1,0.1
	c-0.3,0-1.2,0.1-0.5,0.2c0,0,1.2-0.1,1.1,0.2c0,0-0.5,0.9-0.2,0.8c0,0,0.5-0.1,0.9-0.6c0,0,0.5-0.6,0.8-0.5c0,0,4.9,1.4,6.8,1.6
	c0.1,0,0.1,0.1,0,0.1c-0.4,0.2-1.1,0.7-0.6,0.7c0,0,1.4,0.3,1.8,1c0,0,0.2,0.2,0.4-0.1l0.7-0.7c0.2-0.2,0.5-0.3,0.7-0.2
	c1,0.3,3.9,0.9,8.4,0.8c0.1,0,0.3,0.1,0.3,0.2c0,0.3,0,0.9-0.4,2.2c0,0-0.5,3,0.3,2.3c0,0,1.2-1,2.1-2.7c0-0.1,0.1,0,0.1,0l0.1,3.4
	c0,0,0,1.3,0.6,0.6c0,0,2.7-4.1,2.7-7c0-0.2,0.1-0.4,0.3-0.4c1.5-0.5,7.3-2.5,6.4-3.1c0,0,0,0-0.1,0c0,0,0,0,0,0
	c0,0-0.1-0.1-0.1-0.1l0,0.1c0,0,0,0,0,0c0-0.1-0.1-0.1-0.1-0.1l0,0.1c0,0-0.1,0-0.1,0c-0.1-0.1-0.2-0.1-0.2-0.1l0.1,0.1
	c-0.3,0-0.6,0-0.4-0.2l0.1,0.1c0,0,0-0.4,0.2-0.2c0,0,0.1-0.4,0.2-0.1c0,0,0.1-0.4,0.2-0.1c0,0,0.1-0.4,0.3-0.3c0,0,0.8-0.7,0.9-1.3
	c0,0,1.8-1.1,1.9-1.5C47.9,18.8,48.3,18.5,47.4,18.5z M43,20.4c-0.2,0-0.3-0.1-0.3-0.3c0-0.2,0.2-0.3,0.3-0.3c0.2,0,0.3,0.1,0.3,0.3
	C43.3,20.3,43.2,20.4,43,20.4z"/>
</svg>
