<?xml version="1.0" encoding="utf-8"?>
<!-- Generator: Adobe Illustrator 19.1.0, SVG Export Plug-In . SVG Version: 6.00 Build 0)  -->
<svg version="1.1" id="Layer_1" xmlns="http://www.w3.org/2000/svg" xmlns:xlink="http://www.w3.org/1999/xlink" x="0px" y="0px"
	 viewBox="0 0 48 48" style="enable-background:new 0 0 48 48;" xml:space="preserve">
<style type="text/css">
	.st0{fill:#808080;}
</style>
<path class="st0" d="M45.9,26.9c0,0-1.7-5.3-6-11.5c-0.1-0.2-0.2-0.3-0.3-0.4c-1-1.2-6.2-8.1-5.6-8.7c0,0,0,0,0.1-0.1
	c0.3-0.4,1.8-2.4-1.4-3.8c-0.3-0.1-0.6-0.3-0.9-0.5c-0.8-0.8-3-2.4-5.9-1.8c-0.1,0-0.2,0.1-0.4,0.1c-0.5,0.2-1.8,0.9-2.9,2.5
	c0,0,0,0.1,0,0.1c0.1,0,0.2,0,0,0.3c0,0,0,0,0,0c0.3-0.2,1.1-0.9,0.9-0.5l-0.8,0.9c0,0,0,0.1,0,0c0.1,0,0.2,0,0.2,0.1c0,0,0,0,0,0
	c0.1-0.2,0.4-0.5,0.6-0.4c0,0,0.1,0,0.1,0c0.2-0.2,0.7-0.7,0.4-0.2c0,0,0,0.1,0.1,0C24.4,3,24.5,3,24.4,3.2c0,0,0,0,0,0
	c0.1,0,0.2,0.1-0.1,0.5c0,0,0,0,0,0c0,0,0.1,0.1,0,0.5c0,0-0.8,4.6,1.3,8c0.3,0.6,0.8,1.1,1.3,1.5c1,0.8,3.1,2.5,3.8,4.1
	c0.1,0.2-0.1,0.5-0.3,0.5c-1.8,0.2-8.6,1-11,2c0,0-2.5,0.8-6,2.9c-0.7,0.4-1.5,0.8-2.2,1.1c-1.3,0.5-3.5,1.7-5,4.5
	c0,0-0.6,1.9-1.4,3.5c-0.3,0.6-0.7,1.1-1.1,1.6C2.9,35,1.1,36.9,2,36.2l2.2-2.1c0.1-0.1,0.2,0,0.1,0.1L4,35.5l0.5-0.9
	c0.1-0.1,0.2-0.1,0.3,0c0,0.2,0,0.7-0.4,1.7c0,0-1.7,3.9-1.3,5.5c0,0,0.8-2.2,1-2.3l0,2.3c0,0,0.2,0.4,0.5-2.3c0,0,0.6,0.9,0.6,2.3
	c0,0,0.4-0.2,0.4-2.5L6,41c0,0,0.3,0.2,0.3-1.9c0,0,0.6-0.3,0.8,1c0,0,0.2-0.4,0.2-0.9c0,0,0.3,0.8,0.3,1.6c0,0,0.3,0.2,0.2-0.8
	c0,0,0.3-0.1,0.3,0.5c0,0,0.2,0.1,0.2-0.2c0,0,0.2,0,0.4,0.4c0,0.1,0.1,0.1,0.2,0c0.1-0.1,0.2-0.2,0.6,0c0,0,1.9,0.6,3.2,1.1
	c0.4,0.2,0.7,0.4,1.1,0.6c0.4,0.3,1.3,0.7,3.6,0.8c0.9,0,1.8,0.3,2.5,0.8c0.8,0.5,1.9,1.1,3,0.8c0.1,0,0.2-0.1,0.4-0.1
	c0.6-0.1,2-0.2,3.1,0.6c0,0,2.4,1.7,4.5,1.9c0.1,0,0.2,0.1,0.3,0.1c0.1,0.1,0.3,0.3,0.6,0.2c0,0,0.2,0.6,0.2-0.2
	c0,0,0.4-0.1,0.5-0.6c0-0.1,0.1-0.1,0.2-0.1c0.4,0.2,1.4,0.7,1.7,0.1c0,0,0.3,0,0.5,0.3c0,0,0.4-0.7-1.1-0.7c-0.1,0-0.2-0.1-0.2-0.2
	c-0.1-0.2-0.3-0.5-0.5-0.6c0,0-0.2-0.2,0.3-0.1c0,0,1.6-1.1,4,0c0,0,0.3,0.2,0.5-0.1c0-0.1,0.1-0.1,0.2-0.1c0.1,0,0.2,0.1,0.2,0.2
	c0,0,0-0.2,0-0.4c0,0,0.5,0.4,0.8-0.3c0,0,0.5-0.1,0.7,0.3c0,0,0-0.7-0.9-0.8c-0.8-0.1-5.3-2.4-5.8-2.3c0,0-0.8-1.5-3-0.9
	c0,0-1.5,0.1-2.3,0.2c-0.4,0-0.8-0.1-1.1-0.3c-0.2-0.1-0.3-0.3-0.1-0.4c0,0,19.1-8.5,11-21.7l4.4,5.6c0,0,3.2,4.1,3.5,4.1
	c0,0,0.1,0.2,0,0.3C45.6,29.2,46.8,28.7,45.9,26.9z M30.5,4.9c0,0-1.3,0.2-0.8-0.7C29.7,4.2,30.6,3.8,30.5,4.9z M22.6,43l1.6-0.7
	c0,0,0.1,0.5,0.5,0.6L22.6,43z M28.9,43.5c0,0-0.5,0.4-0.4,0.5l-0.6-0.3L28.9,43.5z"/>
</svg>
