<?xml version="1.0" encoding="utf-8"?>
<!-- Generator: Adobe Illustrator 19.1.0, SVG Export Plug-In . SVG Version: 6.00 Build 0)  -->
<svg version="1.1" id="Layer_1" xmlns="http://www.w3.org/2000/svg" xmlns:xlink="http://www.w3.org/1999/xlink" x="0px" y="0px"
	 viewBox="0 0 48 48" style="enable-background:new 0 0 48 48;" xml:space="preserve">
<style type="text/css">
	.st0{fill:#808080;}
</style>
<path class="st0" d="M47.8,24.4c0,0-0.2-0.4-0.6-0.8c-0.2-0.2-0.3-0.3-0.5-0.5c-0.4-0.6-1.6-1.8-5-2.2c-0.4,0-0.8-0.1-1.2-0.2
	c-1.3-0.4-4.4-1.2-6.8-1.6c0,0-2-0.3-2.4-2c0,0-0.9-6.1-4.5-7.9c0,0-0.5,0.1,0,0.9c0,0,1.4,2.6,1.4,3.7c0,0,0.4,4.3-1.9,4.8
	c0,0-12.8,2.7-16.1,4.4c-0.3,0.2-0.6,0.4-0.8,0.7c-0.5,0.6-1.6,1.8-2.2,2.1c0,0-3.1,1.7-3.5,2.2c0,0-4.2,4.1-3.4,3.9
	c0,0,1.4-1.7,3.8-2.5c0,0,0.8-0.6,1.4-1c0.3-0.2,0.7-0.2,1,0c0.4,0.3,1,0.5,2.3,0.5c0,0,0.9,0.3,0.6,1.1c0,0,1.4-0.4,1.9-2.8
	c0.1-0.5,0.6-0.8,1-0.6c1.8,0.4,5.9,1.5,6.5,1.7c0,0,10.8,3,14.4,3c0.2,0,0.4,0.2,0.3,0.4L31.9,35c0,0-1.3,3.1,0,3.7
	c0,0,0.3,0.2,0.9-0.8c0,0,3-4.2,3.6-6.5c0-0.2,0.2-0.3,0.4-0.3l0.5,0c0.2,0,0.3,0.2,0.2,0.3c-0.2,0.4-0.5,1.2-0.1,2.2l0.5,2.5
	c0,0,0.6,1.2,1.9,0.3c0,0,2.2-1.3,2.1-5.7c0-0.3,0.2-0.5,0.4-0.5c0.3-0.1,0.8-0.2,1.3-0.4c0.3-0.1,0.6-0.3,1-0.4
	c0.8-0.3,2.4-0.9,2.8-1.6c0.1-0.1,0-0.3-0.1-0.4c-0.3-0.4-1.2-1.2-2.5-1.3c0,0-0.2-0.2,0.6-0.2c0,0,0.1,0.2,0.3,0
	c0-0.1,0.1-0.1,0.2-0.1l1.8-0.2C47.6,25.6,48.3,25.3,47.8,24.4z M40.3,25.3c-0.7,0.5-2.5,0.4-2.5,0.4c-2.5-0.4-2.2-1.4-2.2-1.4
	c0.6-1.1,2.3-1,2.3-1c2.8-0.5,3.7,1,3.7,1c-0.2,0.1,0,0.4,0,0.4C40.6,24.9,40.3,25.3,40.3,25.3z"/>
</svg>
