<?xml version="1.0" encoding="utf-8"?>
<!-- Generator: Adobe Illustrator 19.1.0, SVG Export Plug-In . SVG Version: 6.00 Build 0)  -->
<svg version="1.1" id="Layer_1" xmlns="http://www.w3.org/2000/svg" xmlns:xlink="http://www.w3.org/1999/xlink" x="0px" y="0px"
	 viewBox="0 0 48 48" style="enable-background:new 0 0 48 48;" xml:space="preserve">
<style type="text/css">
	.st0{fill:#808080;}
</style>
<path class="st0" d="M45,0.3c0,0-5.7-0.2-8.7,0.3c0,0-0.1,0-0.1,0c-0.4,0-2.7,0.1-3.5,0.1c-0.1,0-0.3-0.1-0.4-0.2
	c-0.1-0.2-0.6-0.6-2-0.4c-0.1,0-0.2,0-0.4,0c-0.6,0-2.4,0.2-2.9,1.6c0,0-3,5-0.1,10.9c0.1,0.1,0.1,0.3,0,0.5
	c-0.7,0.9-3.2,4.2-4.1,5.4c-0.2,0.3-0.5,0.5-0.8,0.7c-0.7,0.3-1.9,0.7-2.8,1c-0.5,0.1-1,0.1-1.4,0c-0.9-0.2-2.5-0.7-3.6-1.2
	c-0.7-0.3-1.3-0.9-1.5-1.6c-0.5-1.5-1.4-4.3-1.7-5.7L10.4,9c0,0-0.4-1.6-3-0.9c0,0-1.6-0.2-3.6,4.3c0,0-1.4,2.3-1.3,4.7
	c0,0-0.5,1.9,0.3,0.8c0,0-0.3,1.6-0.4,1.8c-0.2,0.2,0,0,0,0c0,0.1-0.8,1.2-0.3,1c0,0-0.6,1.2,0.2,0.6c0,0-0.5,0.9-0.1,0.9
	c0,0-0.6,5.2,0.2,5c0,0-0.3,3.3,0.9,3.1c0,0,0.3,2.7,1.2,2.3c0,0,0.4,1.3,0.5,0.3L5,33.2c0.1,0.1,0.2,0.1,0.2,0c0-0.2,0-0.6,0-0.6
	s0.1,1,0.6,0.5c0,0,0.4,2.2,1.7,0.9c0,0-0.2,1.1,0.9,0c0,0,1.5-1,1.7-2.2c0,0.1-0.2,1.8,0.4,1.6c0,0,0.8,0.1,0.9-1.2l0.2-3.5
	c0,0,0.2-0.3,0.3-0.1c0,0-0.3,0.6,0,0.7c0,0,0.3,0,0.4-0.2c0,0,0.2,0.3,0.4,0.3c0,0-1.2,1.4,0.5,0.3c0,0,0.1,0.9,0.6,0.2
	c0-0.1,0.1-0.1,0.2-0.1l0.6,0c0.1,0,0.2,0.1,0.2,0.3c-0.1,0.3-0.2,0.6,0.5-0.1c0,0,0.8-0.4,1.2-0.6c0.1-0.1,0.3,0.1,0.2,0.2
	c-0.4,1.2-1.9,5.4-2.6,7c-0.2,0.4-0.5,0.7-0.9,0.8l-2.7,0.7c-0.1,0-0.1,0.1,0,0.1c0.2,0.1,0.6,0.2,1.3,0c0,0-2.4,1.1-0.8,1.1
	c0,0-1.7,0.8-0.4,0.9c0,0,0.2,0.1-0.2,0.4c0,0-0.8,0.6,0.2,0.3c0,0-0.1,0.7,0.8,0.7c0,0-1.3,1.8,0,0.9c0,0,0.6,0.3,0.8-0.6
	c0,0,0.4,0.3-0.3,1c0,0-0.4,0.8,0,1c0,0,0.5,0.4,0.9-0.1c0,0,3.1-0.1,5-2.4c0,0,0.2,1.4,0.4,1.8c0,0,0.9,2.5,0.9,3.5
	c0,0-0.5,0.4,0.5,0.8c0,0,1.9,0.9,4.4,0.6c0,0,0.2,0.4,0.1-0.1c0,0,1.2-0.4,1.9-0.3c0,0,0.1-0.2,0-0.3c0,0,0.4,0,0.5,0.3
	c0,0,0,0,0,0c0,0,0-0.7-0.7-0.5c0,0-0.7,0-0.9-0.1c0,0-0.1-0.5-0.9-0.3c0,0-3.1,0.1-3.4-0.5c0,0-1.9-3.7-1.3-4.9
	c0,0,0.1-0.4-0.1-0.6c0,0-0.2-0.5,0.4-0.6c0,0,1.4-0.7,2.5-0.6c0,0,0.9-0.1,1-0.4c0,0,0.1,2.5,0.9,3c0,0,1.1,1.5,1.3,2.4
	c0,0,0.3,0.6-0.5,0.8c0,0-1.9,0.3-1.7,0.8c0,0,1.2-0.1,1.7,0l3.2,0.2c0,0,0.1,0.1,0.1,0c0,0,3-0.4,3.7-0.3c0,0,0.2,0,0.1-0.2
	c0,0,0.2,0,0.3,0.2c0,0,0.2-0.3-0.1-0.5c0,0,0.4-0.1,0.2-0.3c0,0,0.3,0,0.4,0.2c0-0.1,0-0.5-0.6-0.4c0,0-4.4,0.1-4.9-0.4
	c0,0-2.8-3.9-2.5-5.4c0,0,0.8-1.3,1.3-1.5c0,0,3.7-2.5,5-5.8c0.2-0.5,0.4-1.1,0.7-1.6c0.6-1.2,1.5-3.8,1.3-7.5c0,0-0.4-4.2-0.7-6
	c-0.1-0.5,0-1.1,0.2-1.6l1.8-4.2c0,0,1-1.6-1.4-2.4c0,0-1.4-0.4-3,1.3c-0.2,0.2-0.5,0.1-0.6-0.2C29,8.8,29,7.1,31.3,6.3
	c0.4-0.2,0.8-0.4,1.2-0.6c1.2-0.8,4.3-2.4,8.9-3.3c0,0,3.1-0.9,3.4-1.1c0,0,0.7-0.6,1.3,0.1C46.2,1.4,46.7,0.1,45,0.3z M29.8,1.5
	c-0.2,0-0.4-0.1-0.4-0.3s0.2-0.3,0.4-0.3c0.2,0,0.4,0.1,0.4,0.3S30,1.5,29.8,1.5z"/>
</svg>
