<?xml version="1.0" encoding="utf-8"?>
<!-- Generator: Adobe Illustrator 19.1.0, SVG Export Plug-In . SVG Version: 6.00 Build 0)  -->
<svg version="1.1" id="Layer_1" xmlns="http://www.w3.org/2000/svg" xmlns:xlink="http://www.w3.org/1999/xlink" x="0px" y="0px"
	 viewBox="0 0 48 48" style="enable-background:new 0 0 48 48;" xml:space="preserve">
<style type="text/css">
	.st0{fill:#808080;}
</style>
<path class="st0" d="M47.8,14.1c-0.7,0.1-6.8,1-12.2,6.1c-0.2,0.2-0.4,0.2-0.6,0.3c-0.7,0.1-2.5,0.2-3.3-0.2c0,0,0.4-1.3-1.3,0.1
	c-0.4,0.3-0.8,0.5-1.3,0.5c-2.4,0.1-9.2,0.5-10-0.3c0,0-1.5-0.7-1.3-3c0,0,0.2-3.1-0.4-3c0,0-1.1,0.1-3.2,5.3c0,0-0.2,1.4-2.6,1.6
	c0,0-9.8,0.6-11.4,1.6C0,23.4,0,23.5,0,23.7c0.1,0.5,0.6,1.7,2.1,1.7c0,0-0.4,0.4,0.5,0.6c0,0,4.7,1.9,6.7,2.1
	c0.2,0,0.3,0.2,0.3,0.4c0,0.4,0.1,1.2-0.1,2c0,0-0.3,2.4,1.3,3.2c0,0,0.5,0.3,0.7-0.6c0,0,0.2-3.4,2.1-3.7c0,0-0.9-0.6-0.5-0.6
	c0,0,5.9,0.9,9.3-1c0,0,0.6-0.5,1.7,0.3c0,0,1.1,0.7,1.5,0.5c0,0-0.2-1.6,1.1-2.1c0,0,1.8-0.7,2.3-1.1c0.1-0.1,0.3-0.2,0.5-0.2
	c0.6,0.1,1.9,0.1,2.5,0c0,0,0-0.1,0-0.1c-0.1-0.2-0.3-0.6,0-0.7c0,0,3-2,3.5-1.7c0,0,2.9,2.5,3.2,2.6c0,0,0.4,0.4,0.9,0.2
	c0,0,0.4-0.3,0-0.7c0,0-1.4-2.3-0.9-3.1c0,0,3.3-4.7,7-6.4c0.1,0,0.1,0,0.2,0c0.1,0.1,0.4,0.2,0.6,0.1c0,0,0.1-0.1,0.1-0.1
	c0-0.2,0.1-0.9,1.3-1.3c0.1,0,0.1-0.1,0.1-0.2c0,0,0-0.1,0-0.1C48,14.2,47.9,14.1,47.8,14.1z M1.6,25c-0.2,0-0.3-0.1-0.3-0.3
	s0.1-0.3,0.3-0.3c0.2,0,0.3,0.1,0.3,0.3S1.7,25,1.6,25z"/>
</svg>
