<?xml version="1.0" encoding="utf-8"?>
<!-- Generator: Adobe Illustrator 19.1.0, SVG Export Plug-In . SVG Version: 6.00 Build 0)  -->
<svg version="1.1" id="Layer_1" xmlns="http://www.w3.org/2000/svg" xmlns:xlink="http://www.w3.org/1999/xlink" x="0px" y="0px"
	 viewBox="0 0 48 48" style="enable-background:new 0 0 48 48;" xml:space="preserve">
<style type="text/css">
	.st0{fill:#808080;}
</style>
<path class="st0" d="M47.9,25.9c0,0-1.4,3-2.8,3.1c-0.4,0-0.8-0.3-0.8-0.8c0-0.3,0.1-0.7,0.4-1c0,0,0.1-0.3-0.8-0.2
	c0,0-1.8,0.6-1.9-0.9c0,0-0.2-2.8,0.5-3.9c0,0,0.1-0.4,0-0.8c-0.1-0.2,0-0.4,0-0.6c0-0.1,0-0.1,0.1-0.2c0-0.2,0.1-0.3,0.3-0.4
	c0.7-0.4,2.5-1.8,0.2-3.4c0,0,0,1.3-0.6,2.1c0,0-1.6,1.4-2.1-0.2c0,0-0.2-0.9-0.8-1.2c-0.2-0.1-0.3-0.2-0.4-0.4
	c-0.6-1.4-3.6-6.7-13.2-5.2c-0.4,0.1-0.8,0.1-1.3,0.1c-1.3,0-4.2-0.2-9.3-1c0,0-0.9-0.2-2.5,0.2c-0.6,0.1-1.1,0.3-1.7,0.3l-3.8,0.3
	c0,0-10.9,2.2-6.3,15.1c0,0,1,1.6-0.7,4.3c0,0-0.8,0.5,0.1,1.5c0,0,1.3,0.7,1.1,2.3c0,0-1,1.6-0.2,1.7l3.7,0c0.1,0,0.2,0,0.3-0.1
	c0.1,0,0.2-0.1,0.3,0.1c0,0,0.7,0.1,0.6-0.2c0,0-0.3-1-1.3-1.4c-0.1,0-0.2-0.1-0.3-0.3c-0.2-0.4-0.6-1.5-0.2-2.6
	c0,0,1.3-4.1,1.6-3.6c0,0,0.5,0.6,1,0.8c0.2,0.1,0.4,0.2,0.4,0.4c0.2,0.5,0.4,1.4,0.3,2.1c0,0.2,0,0.3,0.1,0.4C8.2,32.7,8.5,33,9,33
	c0,0,1.2,0.6,1.5,1.4c0.1,0.3,0.1,0.6,0,0.8c-0.1,0.2-0.2,0.7,0.4,0.8c0,0,1.8,0.7,3.5-0.4c0,0,1.3-0.4,0.3-0.9c0,0-2.2-0.6-2.6-3
	l-0.6-4.1c0-0.1,0.1-0.1,0.2-0.1c0.9,0.6,4.8,2.9,11.6,1.2c0.2,0,0.3,0.1,0.3,0.3c-0.2,0.9-0.9,3.3-1.8,4c0,0-1.7,1.1-0.6,2
	c0,0,0.1,0.1,0.1,0.2c0,0.2,0.1,0.7,1.3,0.7c0,0,2.4,0.7,2.5-0.6c0,0,0-0.7-0.4-0.9c-0.1-0.1-0.2-0.1-0.2-0.2
	c-0.1-0.3-0.1-0.8,0.7-1.4c0,0,1.8-1.8,2-2.1c0,0,0.2-0.2,0.4,0.3c0,0,1.6,2.9,1.7,3.3c0,0,0.1,0.5-0.1,0.9c0,0-0.8,1.5,0.2,1.4
	c0,0,0.8,0.5,1.8,0c0,0,3.1,0.8,2.6-0.9c0,0,0-0.5-1.5-1.7c0,0-0.5-0.6-0.3-1.7c0,0-0.4-4.1,0-3.9c0,0,0.5,0.5,1,0.3
	c0,0,0.1,0,0.1,0c0.1,0.2,0.3,0.6,1.5,0.4c0.1,0,0.2,0,0.2,0.1c0.2,0.7,1,3.7,3.2,4.7c0.2,0.1,0.4,0.2,0.5,0.4
	c0.2,0.2,0.4,0.5,0.8,0.6c0.1,0,0.2,0.1,0.3,0.2c0.1,0.2,0.4,0.5,1,0.4c0.1,0,0.2,0,0.3,0c0.5,0.2,2.3,0.6,2.7-1.3
	c0-0.2,0.1-0.4,0.3-0.5c0,0,0.1-0.1,0.1-0.2c0.1-0.3,0.3-0.5,0.6-0.7C45.6,31.8,48.7,29.1,47.9,25.9z M39.2,29c0,0-0.2,0.1-0.2-0.3
	c0,0-0.1-0.5-0.4-0.7c0,0,0.9,0.1,1.2,0.8C39.8,28.8,39.3,28.6,39.2,29z"/>
</svg>
