<?xml version="1.0" encoding="utf-8"?>
<!-- Generator: Adobe Illustrator 19.1.0, SVG Export Plug-In . SVG Version: 6.00 Build 0)  -->
<svg version="1.1" id="Layer_1" xmlns="http://www.w3.org/2000/svg" xmlns:xlink="http://www.w3.org/1999/xlink" x="0px" y="0px"
	 viewBox="0 0 48 48" style="enable-background:new 0 0 48 48;" xml:space="preserve">
<style type="text/css">
	.st0{fill:#808080;}
</style>
<path class="st0" d="M47.2,21.6c0,0-1.1,0.7-1.9,0.5c0,0-0.8-0.2-1.4,0.2c0,0-1.4-0.4-1.8,0.3c0,0-1.3-0.1-1.8,0.6
	c0,0-1.3,0.4-2.3,1.4c-0.1,0.1-0.3,0.1-0.4-0.1c0-0.2-0.1-0.3,0-0.5c0,0,2.3-2.4,1.6-5.4c0,0-1.7-6.4-1-6.7c0,0,3,1.3,3.8,0.2
	c0,0,0.5-0.7-0.3-1.1c0,0,2.1-0.2,2.5-1.3c0,0,0.3-1.7-0.7-2c0,0-1.3-0.4-2-0.8c-0.3-0.2-0.4-0.5-0.4-0.8c0-0.4,0-1-0.7-1.2
	c0,0-0.1,0-0.1,0c-0.6-0.2-4.7-1.6-7.6,0.5c0,0-1.8,1.3-2.7,3.9c0,0-2.1,3.3-2.7,4.8c-0.2,0.4-0.5,0.7-0.9,0.8
	c-0.7,0.2-2,0.4-4.2,0.2c0,0-6.9-0.7-10.9,2.7c-0.2,0.2-0.5,0.2-0.8,0.1c-0.9-0.5-3.1-1.6-3.8-0.8c0,0-2.1,0-1.5,0.8l1.3,1.2
	c0,0-3.6-1-5.5,0.3c-0.1,0.1-0.2,0.2-0.1,0.4c0.1,0.2,0,0.4-0.7,0.3c0,0-0.8,0.5,0.5,0.6c0,0,8.1,0.9,10.8,1.3
	c0.5,0.1,1,0.3,1.4,0.5c1.9,1.2,8,4.9,12.6,5.3c0.2,0,0.3,0.2,0.3,0.3c0,0.3-0.1,1,0.2,1.7c0.2,0.7,0.3,1.4,0.1,2.1
	c-0.2,1-0.9,2.3-2.6,3.1c0,0-2.4,1.4-2.6,2.3c0,0-1.3,0.5-1.2,2c0,0-0.7,0.4,0,1.2c0,0-1.2,1.1,0.2,1.8c0,0-1.2,1.4-0.8,1.7
	c0,0,1.1,0.5,2.6-0.8c0,0,6.3-4.4,7.1-6.7c0,0,2.2-3.1,2.2-4.5c0,0-0.1-3.8,1.1-4.4l2.9-1.7c0.3-0.2,0.7-0.2,1,0.1
	c0.7,0.6,2,1.5,3.6,1.1c0,0,3.7-0.6,7.1-3.5C46.8,23.5,49.2,21.4,47.2,21.6z M39.6,7.2c0,0-0.5,0-0.6,0.3c0,0-0.7,0.8-1.4-0.2
	C37.6,7.3,38.5,6.2,39.6,7.2z"/>
</svg>
