<?xml version="1.0" encoding="utf-8"?>
<!-- Generator: Adobe Illustrator 19.1.0, SVG Export Plug-In . SVG Version: 6.00 Build 0)  -->
<svg version="1.1" id="Layer_1" xmlns="http://www.w3.org/2000/svg" xmlns:xlink="http://www.w3.org/1999/xlink" x="0px" y="0px"
	 viewBox="0 0 48 48" style="enable-background:new 0 0 48 48;" xml:space="preserve">
<style type="text/css">
	.st0{fill:#808080;}
</style>
<path class="st0" d="M47.8,25.5l-0.5-4l-0.6-6.7c0,0,0.4-1.6-0.4-1.7c0,0-0.7-2.7-3.2-2.8c0,0-1.4-0.2-1.8,0c0,0-0.8,0.2-1.5,0.1
	c0,0-2.2,0.4-3.6,0.4c0,0-0.5-0.1-1.1-0.1c-0.6,0.1-1.1,0.1-1.7,0.1c-1.4-0.1-3.7-0.3-5.3-0.3c0,0-1.2-0.4-2.3-0.2
	c0,0-6.5-0.3-8.7,0.7c0,0-3.3,0.9-3.8,2.3c0,0-1.1,1.9-2.3,2.6c0,0-5.5,4.4-7.1,4.3c0,0-0.5-1.1-1.3-0.2c0,0-0.2,0-0.2,0.4
	c0,0-0.3,0.4-0.3,0.8c0,0-0.3,1-0.6,1.3c0,0-0.5,0.8-0.2,2c0,0-0.5,1.8-0.7,2.4c0,0.1-0.1,0.2-0.2,0.3c-0.2,0.1-0.5,0.4-0.1,0.7
	c0.1,0.1,0.1,0.1,0,0.2c-0.1,0.4-0.5,1.5-0.1,1.8c0,0,0.9,0.7,1.8,0.3c0,0,0.7,0.2,1-0.7l0.4-0.3c0,0,0.4,0.1,0.7-0.2
	c0,0,1.3-1.1,1.8-1.1c0,0,0.6-0.2,2-1.4c0.4-0.3,0.8-0.5,1.2-0.7c1-0.3,2.7-0.8,3.3-0.4c0,0,0.8,0.6,1.3,0.6c0,0,0.2,0.5,0.7,0.4
	c0,0,0.9,1.5,1.1,1.5c0,0-0.3,1.1-0.2,2.2c0,0.3,0,0.7-0.1,1c-0.2,0.7-0.5,1.8-0.9,2.3c0,0-0.2,0.4-0.1,0.7c0,0-1.1,1.4-1.3,1.5
	c0,0-0.1,0.4,0.4,0.4c0,0,1.9,0.2,1.9-0.5c0,0-0.1-1,0.4-0.5c0,0,0.7,0.1,0.3-0.9c0,0,0.9-4,1.7-4.6c0,0,0.5-1.6,1-1.8
	c0,0,1.8-0.6,2.2-1c0,0,0.3,1.8,0.3,2.4c0,0,0.2,1.2,0.7,1.6c0,0,0.6,3.2-0.5,4.1c0,0-0.5,0.6-0.2,0.8c0,0,0.7,0.7,1.3,0.4
	c0,0,0.9-0.7,0.9-0.9c0,0,1.1-0.2,0.2-0.6c0,0-0.3-1-0.3-1.4c0,0-0.3-2.6,0.2-3.7l0-4c0,0,1.1-0.7,4,0.5c0,0,2.1,0.4,3,0.8
	c0.5,0.2,1.1,0.2,1.6,0.1c0.2-0.1,0.4-0.1,0.7-0.3c0.3-0.2,0.6-0.3,0.9-0.3c0.6-0.1,1.3-0.2,1.6-0.3c0,0,1.1,1.1,1.7,1.3
	c0,0,0.4,0.7,0.5,0.7c0,0-0.1,1.3,0.2,1.3c0,0,0.6-0.6,0.6-1l0.8,0.4c0,0,0,1.8,0.5,0.2c0,0,0.5,0.8,0.6-0.4c0,0,0.9-0.5,1-0.5
	c0,0,1.4,1.3,1.1,2.1c0,0-2.2,2.8-0.9,5.8c0,0-0.9,0.5-0.5,0.7c0,0-0.4,0.6-0.1,0.7c0,0,1.1,0.9,1.5,0c0,0,0.4,0.1,0.5-0.4
	c0,0,0.7,0,0.8-0.8l0.9-4.3c0,0,0.8-3.4,1.1-3.9c0,0,0.1-0.3-0.1-0.4c0,0,1.1-1.5,0.4-2c0,0-2.4-1.2-2-3l2.2-6.1l0.4,3.7
	c0,0,0.7,4.6,0.2,5.9c0,0-0.8,1.9-0.5,2.6L46,30.4l0.3-0.5c0,0-0.2,0.7,0,0.9c0,0,0.2-0.4,0.4-0.6c0,0,0.1,0.5,0.2,0.5
	c0,0,0.1-0.8,0.3-0.9c0,0,0.1,0,0.1,0.1c0,0,0.1-0.7,0.3-0.4c0,0,0.3-1.9,0.3-3.2C47.9,26.4,48.2,26.8,47.8,25.5z M2.6,24.2
	c0,0,0.5-0.1,0.7-0.2C3.2,24.1,2.6,24.8,2.6,24.2z"/>
</svg>
