<?xml version="1.0" encoding="utf-8"?>
<!-- Generator: Adobe Illustrator 19.1.0, SVG Export Plug-In . SVG Version: 6.00 Build 0)  -->
<svg version="1.1" id="Layer_1" xmlns="http://www.w3.org/2000/svg" xmlns:xlink="http://www.w3.org/1999/xlink" x="0px" y="0px"
	 viewBox="0 0 48 48" style="enable-background:new 0 0 48 48;" xml:space="preserve">
<style type="text/css">
	.st0{fill:#808080;}
</style>
<path class="st0" d="M47.7,27.6c0,0,0.6-1.1-0.3-1.9c0,0,0.1-1-0.2-1.4c0,0-0.7-2.8-0.3-9.4l-0.4-4.8c0,0,0.5-1.4-1.2-2
	c0,0-1.8-2.4-5.6-1c0,0-1-0.5-2.2,0c0,0-3.1,0.8-3.8,0.4c-0.1,0-1.3-0.3-2.1,0.6c0,0-2.5,0.5-3.8,0.1c0,0-0.6-0.2-2.5,0.2
	c0,0-6.5-0.1-8.1,1.1c0,0-5.1,1.8-8.1,1.6c0,0-0.3-0.9-1.5-0.2c0,0-0.7-0.1-0.8-0.2c0,0-0.1-0.9-0.9-0.7c0,0-1.5-0.4-1.3,0.8
	c0,0-0.4,1.3-0.9,1.5c0,0-1.5,1.4-1,2.4c0,0-1.8,3.8-2.4,3.8c0,0-0.4,0.4-0.3,0.6c0,0-0.4,0.3,0,0.7c0,0,0.4,0.9,1,0.8
	c0,0,1,0.5,1.7,0.1c0,0,0.4-0.5,0.7-0.4c0,0,3.9,0.6,4.3,0c0,0,1.1,0,1.2-0.3c0,0,1.9,0.4,2.4,1.3c0,0,3.1,6.6,6.6,6.9
	c0,0,3.1,7.3,0.7,9.5c0,0-1.2,0.8-0.9,1.2c0,0-0.8,0.5-0.4,0.5c0,0-0.2,0.6,2.5,0.3c0,0,0.2-0.2,0.5-0.2c0,0,0.7-0.3,0.6-1
	c0,0,0.3-0.4,0.2-0.6c0,0,0.4,0.3,0.3-0.4c0,0,0.3-0.2-0.1-0.8c0,0-0.8-3.6,0.4-5.9l1.2-4.5l1-0.4c0,0,1.7,1.4,6.8,1.3
	c0,0,0.6,0.9,2.4,0l2.5-1.3c0,0,2.3,5.6,0.8,10.1c0,0-0.3,2-0.9,2.8c0,0-0.6,0.4-0.6,0.9c0,0-1.6,1.2-1.2,1.4c0,0,3.2,0.8,3.6-0.4
	c0,0,0-1.3,0.4-1.3c0,0,1.1,1.2,0.6-0.4c0,0-0.2-0.9,0.1-2c0,0,1.5-7.1,1.9-7.9c0,0,0-0.5-0.2-1l-0.5-1.7l0.7-0.4c0,0,0.5,2,0.7-0.1
	c0,0,1.1-0.3,1.5-0.7c0,0,0.5,3.4,1,3.9c0,0,0.3,2.5,1.1,3.3c0,0,1.1,4.3-0.3,7.4c0,0-0.7,1,0.4,1c0,0,0.7,0,0.9-0.1c0,0,0,0,0,0
	c0.3,0.1,1.8,0.5,1.5-0.5c0,0-0.4-1.1-0.3-1.3c0,0,0.9,0.4,0.2-0.8c0,0-0.3-2-0.6-2.3c0,0,0.6-0.7,0.2-2c0,0-0.4-1,0.2-2.3
	c0,0,0.7-1.8,0.6-2C47.4,29.4,48.5,28.8,47.7,27.6z M4.5,14.7c0,0-0.1-0.9,1-0.5C5.5,14.2,5.6,14.9,4.5,14.7z M45.7,26.6
	c-0.3-0.8-0.2-2.8-0.2-2.8l0.6-4.5L45.7,26.6z"/>
</svg>
