<?xml version="1.0" encoding="utf-8"?>
<!-- Generator: Adobe Illustrator 19.1.0, SVG Export Plug-In . SVG Version: 6.00 Build 0)  -->
<svg version="1.1" id="Layer_1" xmlns="http://www.w3.org/2000/svg" xmlns:xlink="http://www.w3.org/1999/xlink" x="0px" y="0px"
	 viewBox="0 0 48 48" style="enable-background:new 0 0 48 48;" xml:space="preserve">
<style type="text/css">
	.st0{fill:#808080;}
</style>
<path class="st0" d="M48,31.3c0,0,0.1-0.3-0.7-0.4c0,0-0.2-1.4-1.7-1.7c-0.2,0-0.4-0.1-0.5-0.3L44.4,28c-0.1-0.1-0.2-0.3-0.2-0.5
	c-0.1-0.3-0.3-0.7-0.7-1c0,0-1.4-1.7-1-4.7c0,0,0.4-4-1.4-6.8c0,0,0.5-1.8-5.2-3c-0.1,0-0.1,0-0.1-0.1c-0.1-0.1-0.5-0.4-0.8-0.3
	c0,0-0.4-0.5-1-0.2c-0.1,0.1-0.3,0.1-0.4,0.1c-0.4,0-1.6-0.1-4.2-0.3c0,0-8.2-0.5-9.6-0.5c0,0-1.7-0.3-2.6-0.3c0,0-1.4-0.4-2.7,0.2
	c0,0-2,0.7-3.4-0.4c0,0,0-0.1,0-0.1c0.4,0.1,1.3,0.3,1.9-0.2c0,0,1.8-2.2,0.8-2.6c0,0-1.1-0.5-2.1,0.3c0,0-0.9,0.6-1.2,0.8
	c0,0-0.1,0.1-0.2,0C9.8,8.5,8.9,8,8.6,7.6c0-0.1-0.1-0.1-0.1-0.2C8.4,7.2,8,6.7,7.6,6.7c0,0-0.8-0.4-1.1,0.2c0,0-0.3,0.6-0.7,0.8
	c0,0-1.5,0.9-2,1.1c0,0-1.1,0.5-0.9,1.8C3,11,2.9,11.4,2.6,11.7c-0.5,0.8-1.4,2-1.8,2c0,0-0.7,0.3-0.7,0.6c0,0-0.4,0.1,0,0.7
	c0,0,0,0.5,0,0.6c0,0,0,0.8,0.6,0.7c0,0,1.1,0.7,1.5,0.4c0,0,0.4,0.2,0.8-0.1c0.1-0.1,0.2-0.1,0.3-0.1c0,0,0.1,0,0.1,0.1
	c0,0,1.1,0.9,3.7,0.6c0.1,0,0.3,0,0.4,0.2C7.9,18,9,19.8,9.9,20.7c0.2,0.2,0.4,0.5,0.4,0.7c0.5,1.6,2.4,7.2,3.8,7.4
	c0.1,0,0.2,0.1,0.2,0.2c0,0.7,0,3.2,0.5,4.2c0.1,0.2,0.2,0.5,0.1,0.8c-0.1,1.1-0.4,3.7-1,4.5c0,0,0,0-0.1,0.1
	c-0.2,0.2-1.4,1.1-1.1,1.3c0,0,0,0.4,1.8,0.2c0,0-0.7,0.9-0.6,1c0,0,0.2,0.2,0.7,0.2c0,0,1.9,0.2,2.1-0.1c0,0,0.8-0.5,0.5-1.2
	c0,0-0.1-0.1-0.1-0.2c0-0.3,0.2-0.5,0.4-0.5c0.2,0,0.4,0,0.4-0.2c0,0-0.1-0.6-0.3-0.7c0,0-0.5-2.5-0.2-4.2c0,0,0.6-1.7,0.7-2.1
	c0,0,0.8-3.8,1.3-4.8c0.1-0.1,0.2-0.2,0.3-0.3c0.3-0.1,0.9-0.2,1.4,0.2c0,0,0.6,0.5,1.4,0.4c0,0,2.5,0.5,3.4,0.4c0.2,0,0.4,0,0.6,0
	c0.4,0.1,1.2,0.2,1.7,0.1c0,0,1.2,0.1,2.4-0.6c0,0,0.1,0,0.1,0l0.2,0c0.1,0,0.2,0.1,0.3,0.1c0.1,0.1,0.4,0.3,0.8,0.3
	c0.1,0,0.1,0,0.1,0.1c0,0.3,0.1,0.9,0.5,0.7c0,0,0.1-0.1,0.1-0.2l0-0.7c0,0,0-0.1,0-0.1c0.1,0,0.5-0.1,0.7,0.2c0,0,0,0.1,0,0.1
	c0,0.2,0,1,0.4,0.9c0,0,0.2,0.1,0.2-0.8c0,0,0,0,0,0c0-0.1,0.1-0.2,0.2,0c0,0,0.6,1,0.6,1.3c0,0,1.5,4,0.2,6.8c0,0-0.3,0.3-0.3,0.5
	c0,0-1.1,1.1-1,1.2c0,0,0.1,0.3,2,0.1c0,0,0.6-0.3,0.6-0.8c0,0-0.1-1.2,0.4-0.9c0,0,0.3,0.3,0.4,0.1c0,0,0.4-0.3-0.1-0.6
	c0,0-0.3-0.2-0.2-0.5c0,0-0.1-6,0.3-7c0,0,0.1-0.2-0.3-0.7c0,0,0-0.1,0-0.1l0.3-0.2c0,0,0.1,0,0.1,0c0.1,0.4,0.5,1.7,0.9,2.2
	c0,0,0.1,1.2,0.6,2.1c0.1,0.3,0.2,0.6,0.2,0.9c0,1.2,0,3.8-0.4,4.8c0,0-0.2,0.3-0.2,0.5c0,0-1.2,1.2-0.3,1.3c0,0,1.9,0.4,2.3-0.4
	c0,0,0.2-0.3-0.1-0.8c0,0,0-1,0.2-0.8c0,0,0.6,0.3,0.4-0.2c0,0-0.2-0.2-0.1-0.2c0,0,0-0.1,0-0.1c-0.1-0.1-0.1-0.2-0.1-0.3
	c-0.2-0.7-0.6-2.8-0.3-4.6c0,0,0.3-0.5,0.1-1.3c0-0.1,0-0.2,0-0.3c0-0.3,0.1-1,0.3-1.3c0,0,0.3-0.3-0.4-1.2c0,0-1.5-4.5,0.2-11.3
	c0-0.1,0.1-0.1,0.1,0c0.3,0.6,1.2,2.7,1,6.3c0,0-0.3,4.9,2.2,7.2c0,0,1.1,1.1,1.8,1.2c0,0,0.2,0.8,1.1,1c0,0-0.8-0.6-0.8-1.1
	c0,0,0.1,0,0.4,0.4c0,0,0.2,0.3,0.5,0.4c0,0-0.5-0.3-0.7-0.8c0,0,0.5,0.2,0.6,0.6c0,0,0.1,0.2,0.3,0.3c0,0-0.3-0.5-0.3-0.6
	c0,0,0.3,0.4,0.6,0.5c0,0-0.1-0.5-0.8-0.9l-0.1-0.3c0,0,0.5,0.3,0.8,0.6c0,0,0.4,0.4,0.5,0.4c0,0-0.3-0.6-0.8-0.9
	C47.2,31,47.5,30.8,48,31.3z M6.8,10.6c-0.3,0-0.5-0.2-0.5-0.4c0-0.2,0.2-0.4,0.5-0.4c0.3,0,0.5,0.2,0.5,0.4
	C7.3,10.4,7.1,10.6,6.8,10.6z M44.6,30.3c0.6,0.3,1.2,0.9,1.2,0.9C45.1,31,44.6,30.3,44.6,30.3z M45.8,29.5c0.8,0.2,1,1.1,1,1.1
	C46,30.2,45.8,29.5,45.8,29.5z M46.8,30.3c0,0-0.4-0.9-1.2-0.9l-0.1-0.1c0,0,0.9,0.1,1.3,0.7l0.4,0.9C47.2,30.8,46.9,30.8,46.8,30.3
	z"/>
</svg>
