<?xml version="1.0" encoding="utf-8"?>
<!-- Generator: Adobe Illustrator 19.1.0, SVG Export Plug-In . SVG Version: 6.00 Build 0)  -->
<svg version="1.1" id="Layer_1" xmlns="http://www.w3.org/2000/svg" xmlns:xlink="http://www.w3.org/1999/xlink" x="0px" y="0px"
	 viewBox="0 0 48 48" style="enable-background:new 0 0 48 48;" xml:space="preserve">
<style type="text/css">
	.st0{fill:#808080;}
</style>
<path class="st0" d="M43.6,2c-0.4-0.1-1.2-0.4-2.7-0.4c-0.2,0-0.5,0-0.7-0.1c-1-0.4-4.2-1.2-6.8,0.8c0,0-2.2,2.4-4.2,6.8
	c-0.4,0.9-1,1.7-1.8,2.4c-0.5,0.5-1.2,1-1.8,1.4c-0.4,0.2-0.8,0.4-1.2,0.6c-0.9,0.3-2.9,1.1-4.2,3.2c0,0-13,16.6-16.4,20.3
	c-0.1,0.2-0.3,0.3-0.5,0.4c-0.8,0.5-3.1,2-3.1,3.3c0,0.2,0.2,0.4,0.4,0.4c0.7-0.1,2.3-0.3,2.6-0.7c0,0,0.4,0,0,0.4
	c0,0-0.2,0.5,0.4,0.4c0,0,0.4,0,0.1,0.4c0,0,0,0.4,0.4,0.3c0,0,0.4-0.4,0.6-0.2c0.1,0.1,0.3,0.2,0.5,0.1c0.9-0.4,3.1-1.6,7.1-5.1
	c0.4-0.4,0.9-0.7,1.5-0.9c1.5-0.6,4.6-1.9,5.5-1.9c0,0-1.5,2.9-1.3,3.5c0,0,0.1,1.9,0.8,2.4c0.1,0.1,0.2,0.2,0.2,0.3
	c0.5,0.7,2.2,3.4,2.8,5.5c0,0.1,0,0.1-0.1,0.2c-0.2,0.1-0.6,0.1-1.7-0.2c0,0-1.9-1-1.9,1.5c0,0,0.4-1.8,1.5-1c0,0-0.3,0.4,0.1,0.8
	c0.1,0.1,0.2,0.2,0.3,0.2c0.2,0.1,0.7,0.2,0.8-0.1c0,0,0.9,0.3,1.8-0.2c0,0,0,0.4,0.8,0.4c0,0,2.8,0.2,3,0.1c0,0,0.1,0,0.1,0
	l2.6-0.1c0,0,0.4-0.2,0.1-0.5c0,0,1-0.4,1.8,0.2c0,0-0.1-0.4-0.7-0.6c0,0,1.3-0.3,1.6-0.1c0,0-0.1,0.4,1.4,0.3c0.1,0,0.1,0,0.2,0
	c0.3,0.1,1,0.2,0.9,0l0.6,0c0.1,0,0.2,0.1,0.2,0.1l0,0l0,0c0.1-0.1,0.2-0.1,0.3-0.1c0.6,0.1,2.3,0.2,1.8-0.6c0,0,0.7-0.4,1.4,0.5
	c0,0,0.2-1-1.5-1.1c0,0-0.2-0.4-2,0.2c0,0-0.9-0.4-1.3-0.1c0,0-0.3-0.2-0.6-0.3c-0.2-0.1-0.5-0.2-0.6-0.4c-0.9-1-3.7-4-4.6-5.3
	c-0.2-0.3-0.3-0.6-0.2-1c0.1-0.3,0.2-0.8,0.2-1.2c0-0.6,0.1-1.2,0.4-1.8c0.4-0.7,0.8-1.6,0.8-1.5l-0.6,1.8c0,0.1,0.1,0.2,0.1,0.1
	c0.3-0.2,1-0.6,1.2-1.3c0-0.1,0.1-0.2,0.3-0.2c0.1,0,0.2,0,0.3,0.2c0,0.1,0.2,0.1,0.2,0c0.2-0.3,0.5-1,0.4-1.4c0,0,0.7-0.1,0.7-1
	c0-0.2,0.1-0.4,0.2-0.5c0.5-0.6,1.7-2,1.8-2.2c0,0,5.8-6.3,5.1-13.2c0,0-0.2-6.2,0.6-7.8c0,0,1.3-2.9,4.8-3.5c0,0,0.1,0,0.1,0
	c0.4-0.1,2.2-0.5,2.5-0.7c0,0,0.5-0.2,0.8-0.1c0,0-0.1-1-3.8-1.6C44,2.1,43.8,2.1,43.6,2z M27.6,45.3l0,0.4c0,0-1.5,0.1-1.7,0.2
	c0,0,0.4-1.4,1.9-0.9C27.7,45,27.8,45.1,27.6,45.3z M30.7,44.3c0.4,1.1-2.5,0.3-2.5,0.3c-2.2-1-2.4,1.3-2.4,1.3
	c-2.8,0.7-5.2-6.4-5.2-6.4c-0.2-2.7,1.8-6.4,1.8-6.4c1.1-0.8,4-0.7,4-0.7c0,0.4-0.9,2.7-0.9,2.7c-0.5,0.8-0.5,1.9-0.5,1.9
	c0.4,0.6,0.7,1.9,0.7,1.9C27.8,39.7,30.7,44.3,30.7,44.3z M37.7,3.6c-0.5,0-0.9-0.3-0.9-0.7s0.4-0.7,0.9-0.7c0.5,0,0.9,0.3,0.9,0.7
	S38.2,3.6,37.7,3.6z"/>
</svg>
