<?xml version="1.0" encoding="utf-8"?>
<!-- Generator: Adobe Illustrator 19.1.0, SVG Export Plug-In . SVG Version: 6.00 Build 0)  -->
<svg version="1.1" id="Layer_1" xmlns="http://www.w3.org/2000/svg" xmlns:xlink="http://www.w3.org/1999/xlink" x="0px" y="0px"
	 viewBox="0 0 48 48" style="enable-background:new 0 0 48 48;" xml:space="preserve">
<style type="text/css">
	.st0{fill:#808080;}
</style>
<path class="st0" d="M42.3,8c0,0,0.2,1.4-2,2c0,0-6,1.7-1.8,4.4c0,0,6.2,3.1,5.2,3.4c0,0-2.6,1.4-5.7-0.3c0,0-5.4-3-8.5-1.6
	c0,0-5.7,1.8-3.9,5.8c0,0,0.1,1.9,6.6,4.4c0,0,1.2,0.7,0.1,1.3c0,0-1.9,1.8-7.7,2.9c0,0-5.9,1.2-9,6.8c0,0-3.2,7-8.5,6.1
	c0,0-6.3-0.2-5-4.1c0.1-0.2,0.2-0.4,0.3-0.5l6.1-8.4c0.1-0.2,0.3-0.4,0.3-0.6c0.5-1.3,1.8-6-2.2-8.3c0,0,2.6,4.3,1.4,7.2
	c0,0.1-0.1,0.2-0.2,0.3L2,36.1c0,0-4.8,6,0.5,8.5c0,0,4.7,3,10.9-0.7c0,0,1.6-0.4,5.6-6.2c0,0,1.4-3.3,10.4-5c0,0,9.8-2.2,7.1-7.4
	c0,0,0.1-1.7-6.3-4.6c-0.9-0.4-0.7-1.7,0.2-1.9c0.7-0.1,1.6,0,3.1,0.4c0.2,0.1,0.4,0.1,0.6,0.2c1.1,0.6,5.9,3,10.5,0.9
	c0,0,4.7-1.7,0.4-5.2c-0.1-0.1-0.2-0.2-0.4-0.2l-4.5-2.2c-0.3-0.1-0.3-0.6,0-0.7c0.4-0.2,1-0.4,2.1-0.7c0,0,2.6-0.9,3.4-3.7
	c0,0,0.6-2.2-0.3-3.4c0,0,1.1-0.7,1-1.2c0,0,0.9-0.7,1.5-0.6c0,0-0.3-0.5-1.6,0.4c0,0-1.2-0.8-1.7,0.1c0,0,1.7-0.2,0.9,0.2
	c0,0-0.1,0.9-0.4,0.8c0,0-1.5-0.6-2.6,1.3C42.5,5.1,41.1,7.2,42.3,8z"/>
</svg>
