<?xml version="1.0" encoding="utf-8"?>
<!-- Generator: Adobe Illustrator 19.1.0, SVG Export Plug-In . SVG Version: 6.00 Build 0)  -->
<svg version="1.1" id="Layer_1" xmlns="http://www.w3.org/2000/svg" xmlns:xlink="http://www.w3.org/1999/xlink" x="0px" y="0px"
	 viewBox="0 0 48 48" style="enable-background:new 0 0 48 48;" xml:space="preserve">
<style type="text/css">
	.st0{fill:#808080;}
</style>
<path class="st0" d="M46.3,38.1c-0.3,0-0.5-0.2-0.6-0.4c-0.4-0.9-1.5-3-2.6-2.8l-3.5,0.6c-0.1,0-0.2,0-0.2,0
	c-0.5-0.3-2.6-1.5-1.6-1.9c0.1,0,0.1-0.1,0.1-0.2c0-0.3,0-0.9,0.3-1.1c0.1,0,0.1-0.1,0.1-0.2c-0.2-0.3-0.6-1.2-0.1-1.3
	c0.1,0,0.1-0.1,0.1-0.1c-0.1-0.2-0.2-0.7,0.2-0.8c0.1,0,0.1-0.1,0.1-0.1c0.1-0.2,0.3-0.8,0.5-0.8c0.1,0,0.1,0,0.1-0.1
	c0-0.2,0.1-0.5,0.3-0.5c0.1,0,0.1,0,0.1-0.1c0-0.2,0.1-0.5,0.2-0.5c0,0,0.1-0.1,0.1-0.1c0-0.2,0-0.6,0.1-0.6c0.1,0,0.1-0.1,0.1-0.1
	c0-0.2-0.1-0.5,0.1-0.6c0.1,0,0.1-0.1,0.1-0.1c-0.1-0.2-0.2-0.6,0.1-0.7c0.1,0,0.1-0.1,0.1-0.1c-0.1-0.2-0.2-0.5,0.2-0.6
	c0.1,0,0.1-0.1,0.1-0.1c-0.1-0.2-0.2-0.6,0.1-0.7c0.1,0,0.1-0.1,0-0.1c-0.1-0.1-0.2-0.4,0-0.5c0.1,0,0.1-0.1,0.1-0.2
	c-0.1-0.2-0.2-0.5,0-0.7c0.1,0,0.1-0.1,0.1-0.2c0-0.2-0.1-0.4,0-0.5c0,0,0-0.1,0-0.1c-0.1-0.2-0.3-0.5-0.2-0.6
	c0.1-0.1,0.1-0.2,0.1-0.4c-0.1-1-0.3-4.3-0.7-5.7c-0.1-0.4,0-0.8,0.3-1.1c0.8-0.7,2.3-1.9,4.4-1.7c0,0,3.7,0.2,1.1-0.7
	c0,0,1.6,0.1,2,0.2c0,0-0.4-1-1.5-1.1c0,0,1-0.3,1.5-0.1c0,0-0.7-1.2-3.8-1.3l3.5-0.3c0,0,0.7-1.2-5-0.9c0,0,5.4-0.5,4.2-1.2
	c0,0-9-1.3-18.9,4.5c-0.1,0-0.2,0.1-0.2,0.1c-0.3,0.2-1.3,0.8-0.5,2.7c0.2,0.3,0.3,0.7,0.4,1.1c0.5,2.1,1.6,8.3-1.4,11.9
	c-0.1,0.1-0.3,0.2-0.4,0.1c-0.9-0.4-4.2-1.5-6-0.6c-0.1,0-0.1,0.1-0.2,0.1c-0.2,0.3-0.7,1.1,0.9,1.1c0.1,0,0.2,0,0.3,0.1
	c0.5,0.2,2.6,1.1,3,2.2c0.1,0.3,0,0.7-0.3,0.8l-2.2,1.3c-0.1,0-0.1,0-0.1-0.1c0.2-0.8,0.8-3.8-3-3.9c0,0-2.2,0-4.2,1.1
	c-0.1,0.1-0.3,0.1-0.4,0.2c-1.5,0.4-9.9,2.8-10.6,3.2c0,0-1.6,0.8-2.2,0.7c0,0-0.8,0.1-0.6,0.8c0,0,0.4,0.3,0.8,0
	c0,0,9.4-0.1,13.1-1.5c0.1,0,0.2,0.1,0.1,0.1c-0.4,0.5-1,1.4-0.4,2.3c0,0,1.5,2.1,3.9,2.3c0.6,0.1,1.2,0.2,1.8,0.5
	c2.6,1.4,9.9,4.7,16,2.8l5.3-1.3c0.1,0,0.3,0,0.4,0.1c0.2,0.2,1.3,0.4,5.8-0.8C46.9,38.7,47.5,38.3,46.3,38.1z M15.6,29.2
	c0,0,0.3-0.5,0.6-0.2C16.2,29,16,29.5,15.6,29.2z"/>
</svg>
