<?xml version="1.0" encoding="utf-8"?>
<!-- Generator: Adobe Illustrator 19.1.0, SVG Export Plug-In . SVG Version: 6.00 Build 0)  -->
<svg version="1.1" id="Layer_1" xmlns="http://www.w3.org/2000/svg" xmlns:xlink="http://www.w3.org/1999/xlink" x="0px" y="0px"
	 viewBox="0 0 48 48" style="enable-background:new 0 0 48 48;" xml:space="preserve">
<style type="text/css">
	.st0{fill:#808080;}
</style>
<path class="st0" d="M40.1,12.9c0,0-6.4-6.9-10.4-9.9c-0.1-0.1-0.2-0.3-0.2-0.4c0-0.7-0.3-2.6-3.8-2.5c-0.6,0-1.2,0.2-1.8,0.6
	C23.3,1,22.5,1.7,22,2.9c-0.1,0.2-0.1,0.5-0.1,0.7C22,4,22,4.6,21.8,5.2c0,0.1-0.1,0.3,0,0.4c0.1,0.9,0.4,3.8,1.5,5.1
	c0,0,3.8,7.3,2.6,9.4c-0.1,0.1-0.1,0.2-0.2,0.3c-0.2,0.4-0.6,1.1-1.3,1.6c-0.2,0.1-0.4,0.2-0.6,0.3c-0.9,0.2-5.2,1.1-7.7,3.9
	c-0.4,0.4-0.8,0.8-1.2,1.2c-1.7,1.5-5.6,5.1-5.5,7.9c0,0.3,0,0.5-0.1,0.8c-0.2,0.4-0.4,1.1-0.3,1.3l0.5-0.4c0,0,0.1,0.7-0.3,1.7
	c0,0-1.7,3.6-1.3,5.4c0,0,0.1,0,0.1,0l0.2-0.4c0-0.1,0.1-0.1,0.1,0c0.1,0.2,0.2,0.7,0.4,0.9c0,0.1,0.1,0.1,0.2,0
	c0.2-0.1,0.9-0.5,0.9-0.6c0,0,0.3,0.6,0.1,1.2l-1,2.2c0,0.1,0,0.1,0.1,0.1l0.1-0.1c0,0,0.1,0,0.1,0.1l-0.1,0.4c0,0,0,0.1,0.1,0
	c0.3-0.4,1.4-1.8,2.3-2.4c0,0,2-1.6,3.3-2.1c0.4-0.2,0.7-0.4,1.1-0.6c0.6-0.4,1.5-0.8,2.8-1.1c0.3,0,0.5,0.1,0.6,0.3
	c0.4,1,1.2,3.5,0.8,3.7c0,0-0.9,0.5-2.1,0.7c0,0,0.3,0.7,1.5,0.7c0.1,0,0.3,0.1,0.4,0.1c0.2,0.1,0.5,0.3,1.1,0.3
	c0.3,0,0.5,0.1,0.8,0.2c0.4,0.2,1.5,0.4,4.1,0.2c0,0,2.6,0.2,2.2-0.1c0,0,0.2-0.1,0.4,0.1c0,0,0-0.2-0.2-0.3c0,0,0.3,0,0.2-0.3
	c0,0,0.2,0,0.3,0.1c0,0,0-0.6-0.5-0.3c0,0-2,0.1-2.6-0.1c-0.2-0.1-0.1-0.3,0.1-0.3l1.6,0c0,0,0.1-0.5-0.5-0.5c0,0-0.1-0.2,0.2-0.2
	c0,0-0.3-0.4-0.7-0.1c0,0-2.9,0-3.7-0.2c-0.1,0-0.2-0.1-0.2-0.2C21.8,45,20.8,43.2,21,42c0,0,0.2-0.4-0.1-0.7
	c-0.1-0.1-0.1-0.1,0-0.2c0.4-0.5,1.9-2.3,4.7-4.2c0.2-0.1,0.4-0.2,0.6-0.4c0.5-0.3,3.8-2.6,4.8-8.2c0.6-3.6,0.1-7.2-1.4-10.5
	l-3.1-6.6c0,0-2.3-3.5,0.7-3.8c0,0,1.5-0.1,3,1c0,0,6.5,3.8,8.7,4.6c0,0,1.3,0.4,1.4,1.1C40.2,14.1,40.8,13.7,40.1,12.9z M27.1,2.3
	c-0.2,0-0.4-0.1-0.4-0.3c0-0.2,0.2-0.3,0.4-0.3c0.2,0,0.4,0.1,0.4,0.3C27.5,2.1,27.3,2.3,27.1,2.3z"/>
</svg>
