<?xml version="1.0" encoding="utf-8"?>
<!-- Generator: Adobe Illustrator 19.1.0, SVG Export Plug-In . SVG Version: 6.00 Build 0)  -->
<svg version="1.1" id="Layer_1" xmlns="http://www.w3.org/2000/svg" xmlns:xlink="http://www.w3.org/1999/xlink" x="0px" y="0px"
	 viewBox="0 0 48 48" style="enable-background:new 0 0 48 48;" xml:space="preserve">
<style type="text/css">
	.st0{fill:#808080;}
</style>
<path class="st0" d="M43.9,19c-0.1-0.1-0.1-0.1-0.2-0.2c-2-1.5-1-3.5-1-3.5c2-4.1,1.8-6.2,1.8-6.2c-0.3-3.5-7.3-3.4-7.3-3.4
	c-7.3-0.4-7.5,4.9-7.5,4.9c0,2.5-5.8,3.6-5.8,3.6c-8.4,2.2-8.4,5.2-8.4,5.2c-1.6,4.1,5.5,5.7,5.5,5.7c6.3,2,2.1,2.3,2.1,2.3
	c-2.8,1-7.7-1.5-8.4-1.9c-0.1,0-0.2-0.1-0.2-0.1c-7.1-2.6-9.9,2.7-9.9,2.7c-2.1,3.8,5.3,5.4,5.3,5.4c3.5,0.9,2.5,1.2,2.5,1.2
	c0,0.2-1.8,1.2-2.7,1.7c-0.2,0.1-0.4,0.1-0.6,0c-0.6-0.4-2.2-0.8-2.2-0.8C3.7,34.6,4,36,4,36s-0.3,0.4-0.1,0.6c0,0,0,0,0,0.1
	c0.1,0.3-0.2,0.9-0.2,0.9c-0.5,0,0.2,0.6,0.2,0.6c-2.1,1-1.4,2-1.4,2c0,1-2.5,1-2.5,1c1.8,0.7,2.9-0.4,2.9-0.4
	c0,0.2,0.8,0.5,0.8,0.5c0.2,0,1.5,0.8,1.5,0.8c0-0.2-1.3-1.1-1.3-1.1c-0.6-0.3-0.6-0.6-0.6-0.6c0.2-0.3,0.6-1.4,0.6-1.4
	c0-0.6,0.6-0.8,0.6-0.7c0,0.2,2.3,0.4,2.3,0.4c0.2,0.7,1,0.4,1,0.4c0.8,0.8,1.2,0.4,1.4,0c0.1-0.2,0.3-0.4,0.6-0.4
	c4-0.2,6-3.9,6-3.9c2-2.6-7.7-5.3-7.7-5.3c-1.1-1,1.3-1.4,2.6-1.6c0.4-0.1,0.8,0,1.2,0.2c1.9,1,6.7,2.4,8.5,2.9
	c0.5,0.1,0.9,0.2,1.4,0.2c9.1-0.2,6.4-5.8,6.4-5.8c-1.8-3.8-7.9-4.9-7.9-4.9c-2-0.6,1.2-1.9,1.2-1.9c6.1-1.8,8.7-3.5,8.7-3.5
	c1.6-0.7,2.2-3.4,2.4-4.8c0.1-0.8,0.6-1.5,1.4-1.9C37.2,7,42,8.7,42,8.7c2.2,0.4,0.2,4.5,0.2,4.5c-1.5,3.2-0.6,4.9,0,5.5
	c0.3,0.3,0.5,0.6,0.8,0.9c2.1,3,5.1,4.1,5.1,4.1L43.9,19z M3.3,38.9C3.4,38.9,3.4,38.9,3.3,38.9C3.4,39,3.4,39,3.3,39
	C3.3,39,3.2,39,3.3,38.9C3.2,38.9,3.3,38.9,3.3,38.9z M2.9,40.1c-0.3-0.8,0.4-0.8,0.4-0.8C3.7,39.6,2.9,40.1,2.9,40.1z M7.5,37.8
	c-0.4,0-0.7-0.2-0.7-0.4c0-0.2,0.3-0.4,0.7-0.4c0.4,0,0.7,0.2,0.7,0.4C8.2,37.6,7.9,37.8,7.5,37.8z"/>
</svg>
