<?xml version="1.0" encoding="utf-8"?>
<!-- Generator: Adobe Illustrator 19.1.0, SVG Export Plug-In . SVG Version: 6.00 Build 0)  -->
<svg version="1.1" id="Layer_1" xmlns="http://www.w3.org/2000/svg" xmlns:xlink="http://www.w3.org/1999/xlink" x="0px" y="0px"
	 viewBox="0 0 48 48" style="enable-background:new 0 0 48 48;" xml:space="preserve">
<style type="text/css">
	.st0{fill:#808080;}
</style>
<path class="st0" d="M48,9c0.1-0.2-1.1-0.3-1.4-0.4c-0.4-0.1-1.5-0.4-1.7-0.5c-0.4-0.2-1.1-0.6-1-0.7c0,0,2.6-0.6,3.3-1.9
	c0,0,1.1-2,0-2.3c-3.3-0.7-4.1,0.4-4.8-1.2c-0.4-1-4.8-1.9-8.4,1.4c-0.3,0.2-0.5-0.2-0.7-0.1c-4.4,2.3-1.7,3.2-4.4,5.1
	c-0.5,0.4-0.3,1.1,0.4,0.6c0.2-0.1,0.7-0.4,1.2-0.5c0.5-0.1,1.2-0.9,1.2-1.7c0-0.1,0.1-0.2,0.1-0.3c0.2-0.2,0.5-0.6,0.7-0.1
	c0.1,0.2,0.1,0.3,0,0.5c-0.1,0.6-0.5,2.3-0.2,3.4c0.1,0.3,0.1,0.6-0.1,0.9c-0.4,0.7-1.1,2.2-1.6,3.4c-0.5,1.5-1.3,2.9-2.1,4.2
	l-2.1,3.1l-4.9,6.7c0,0-4.6,6.9-4.2,10.3c0,0.3-0.1,0.6-0.4,0.8c-0.5,0.3-1.2,0.7-1.6,0.9c-0.3,0.2-0.6,0.3-0.9,0.3
	c-1,0-12.5-2.4-14.4,0.6c0,0,0,0.7,1.4,0.7C11.2,42.8,13,43,13,43l4.3,0.1c0.3,0,0.6,0.2,0.9,0.4l0,0c0.1,0.1,0.1,0.2,0,0.3
	c-0.2,0.2-0.7,0.7-0.5,1.2c0.1,0.3,0.3,0.4,0.6,0.5l6.2,0.8c0.2,0,0.3,0.1,0.5,0.2c0.3,0.3,0.9,0.8,1.2,0.3c0,0,0.1-0.1,0.2,0
	c0.3,0.1,1.2,0.4,1.4-0.2c0,0,0-0.1,0.1-0.1c0.2,0,0.7,0,0.3-0.7c0,0-0.4-1.5-1.8-1.5c0,0,0.2-0.7,1.4-0.8c0.6,0,2.6-1.5,3-1.9
	c0.1-0.1,0.2-0.2,0.4-0.2c0.6,0,2,0.1,2.5-0.8c0,0-0.2-0.8-0.9-1c-0.1,0-0.2-0.1-0.2-0.2c-0.1-0.3-0.1-0.8,0.4-1.2
	c0.3-0.2,0.6-0.4,0.8-0.7c1.2-1.6,4.4-5.9,4.7-5.3c0,0,2.5,6.9,2.7,8.8c0,0,0.1,0.5,0.7,0.7c0.2,0.1,0.3,0.2,0.4,0.3
	c0.4,0.5,1.1,1.6,1.1,2.1c0,0,0.4,1.6,2.2,1.5c0,0,1.8-0.2,1.8-0.6c0,0,0.2-0.2,0.7,0c0,0,0-1-1.3-1.5c0,0-2-0.4-2.4-1.5
	c0,0,0-0.1,0.1-0.1c0.2,0,0.8,0.1,0.8-0.2c0,0,0.2-0.1,0.4,0.2c0,0,0.2-0.2,0-1.7c0,0-0.1-1.9-0.3-2.6c-0.1-0.1-0.1-0.3,0-0.5
	c0.1-0.8,0.3-3-0.5-4.1l-2.3-5.6c0-0.1,0-0.1,0-0.2c0-0.2,0.1-0.7,0.6-1.1c0,0,3.2-4.8,2.1-7.8c0,0-2.9-5.6-2.8-7.6
	c0-0.2,0.2-0.4,0.4-0.3c1.1,0.2,4.3,0.6,3.9-1.1C46.4,9.6,47.9,10,48,9z M38.8,4c0,0,0.3-1.8,1.4-0.7C40.3,3.4,40.1,5.1,38.8,4z
	 M43,34.7c-1.3,1.3,0.3,1.1,0.3,1.1c-0.5,1-0.3,1.9-0.3,1.9c0,0.8-0.3,0.2-0.3,0.2c-1-1.6-1.4-6.1-1.4-6.1
	C41.7,32.2,43,34.7,43,34.7z"/>
</svg>
