<?xml version="1.0" encoding="utf-8"?>
<!-- Generator: Adobe Illustrator 19.1.0, SVG Export Plug-In . SVG Version: 6.00 Build 0)  -->
<svg version="1.1" id="Layer_1" xmlns="http://www.w3.org/2000/svg" xmlns:xlink="http://www.w3.org/1999/xlink" x="0px" y="0px"
	 viewBox="0 0 48 48" style="enable-background:new 0 0 48 48;" xml:space="preserve">
<style type="text/css">
	.st0{fill:#808080;}
</style>
<path class="st0" d="M42.1,28.2c-0.3-0.6-1.2-1.4-1.7-1.9c-0.3-0.3-0.5-0.6-0.6-1c-0.2-0.7-0.4-1.6-0.4-1.6c-0.3-3-2.1-4.1-2.1-4.1
	c-1.1-0.9-2.1-1.2-2.8-1.4c-0.4-0.1-0.8-0.2-1.2-0.4c-1.4-0.7-3.8-1.2-3.8-1.2c-2.3-0.6-7.8,0-9.8,0.2c-0.3,0-0.4-0.3-0.3-0.5l4.2-5
	c0.1-0.1,0.2-0.2,0.2-0.3c2.2-2.4,2.6-5.9,2.6-5.9C26.9,3.9,27,3,26.8,2.3c0.3,0.2,0.4,0.4,0.4,0.4c0-0.2-0.2-0.4-0.5-0.6l0,0
	c0-0.1-0.1-0.2-0.1-0.4c0.2,0.1,0.4,0.2,0.4,0.2c-0.1-0.2-0.3-0.3-0.5-0.4l0,0c-0.1-0.1-0.1-0.2-0.2-0.3l0,0C26.7,1.3,27,1.5,27,1.5
	c-0.1-0.3-0.5-0.4-0.8-0.6l0,0c-0.1-0.1-0.2-0.2-0.3-0.3l0,0c0.3-0.1,0.8,0,0.8,0c-0.2-0.2-0.6-0.2-1-0.2l0,0h0
	c-0.1-0.1-0.2-0.1-0.2-0.1c0,0,0,0,0,0c0.5-0.2,1.1-0.2,1.1-0.2c-0.3-0.2-1,0-1.5,0.1l0,0c-0.2,0-0.3,0-0.5,0l0,0
	C24.9,0.1,25.4,0,25.4,0c-0.3-0.1-0.6,0.2-0.8,0.3l0,0c-0.7,0.1-1.3,0.4-1.6,0.6c-0.1,0.1-0.3,0.1-0.4,0.2c-3.2,0.7-3.8,2.5-3.8,3.1
	c0,0.2-0.1,0.4-0.2,0.6c-1.2,2.8-5.8,7.7-5.8,7.7C8.9,16,4.1,22.6,4.1,22.6c-0.5,1,0.2,1.5,0.2,1.5c0-0.1,0-0.2,0-0.3
	c0-0.2,0.1-0.3,0.2-0.5l7.9-6.5c1.9-1.8,5.3-4.8,5.3-4.8l-2.6,4.6c-0.2,0.4-0.6,0.7-1,0.9c-2.8,1.1-2.4,3-2,3.9
	c0.1,0.3,0.1,0.6-0.1,0.8c-1.3,1.7-1.4,4-1.4,4c0.8,7.8,9.4,10.5,9.4,10.5c-1.2,3.4-3.6,2.8-3.6,2.8c-0.9-0.4-1.2,0-1.2,0
	c-0.3,0.6-2.2,0.7-2.2,0.7c-0.3-0.1-0.2,0.6-0.2,0.6l0.2-0.1c0.2-0.3,1.4,0.6,1.4,0.6c0.1,1,0.7,0.4,0.7,0.4
	c0.2-0.2,3.7,0.6,3.7,0.6c0.7,0.5,0.9,0,0.9,0c0.6,0.4,2.7-0.4,2.7-0.4c0.2,0.2,0.7-0.1,0.7-0.1v0.5c0.4-0.3,0.1-1,0.1-1
	c-0.1-0.8-1.4-1.1-1.4-1.1c-1.2-0.4-1-1.6-1-1.6c0.2-1.5,0.9-1.8,1.4-1.8c0.2,0,0.4,0,0.6,0.2c0.9,0.6,4.6,1,4.6,1
	c1,0.1,1.1,0.7,1.1,1.1c0,0.2-0.1,0.4-0.2,0.5c-0.3,0.5-0.5,1.6-0.5,1.6c0.1,2-2.3,3.8-2.3,3.8c-1.2-0.6-1.5,0.1-1.5,0.1
	c-0.2,0.1-3.5,0.1-3.5,0.1c-1.1-0.3-1.3,0.2-1.3,0.2l0.5,0l0,0.8c-0.5,0-0.5,0.4-0.5,0.4c0.2-0.1,0.6,0,0.6,0c0,0.5,0.6,0.5,0.6,0.5
	c2,0,2.9,0.8,2.9,0.8c0.1,0.3,0.4,0.1,0.4,0.1l0.5,0c2.6-0.2,2.9-2.2,2.9-2.2c0.2-0.6,0.5-1.3,0.8-1.8c0.2-0.3,0.4-0.6,0.6-0.9
	c0.7-0.8,2-3.7,2-3.7c0.7-1.2,1.4-1.9,1.8-2.3c0.2-0.2,0.5-0.3,0.8-0.1c0.8,0.3,2.6,0.5,2.6,0.5c1.7,0.1,3.6,1.7,3.6,1.7
	c0.6,0.4,2.1,1,2.1,1c0.4-0.1,0.6,0.2,0.6,0.2c0.6,0.6,0.4,0.2,0.4,0.2c-0.6-1,0.3-0.6,0.3-0.6c0.4,0.3,0.3,0.1,0.3,0.1
	c-0.1-0.3-2.7-2.9-3.8-4c-0.3-0.3-0.5-0.6-0.7-1c-0.5-1.2-1.8-3.4-1.8-3.4c-0.3-0.4-0.3-0.7-0.3-0.7c0.4,0,0.1-0.5,0.1-0.5
	c0.3-0.6,0.9-0.1,0.9-0.1c0.5,1.6,1.7,0.5,1.7,0.5c0,0.7,0.4,1,0.4,1c0.6,0.8,1.1,0.1,1.1,0.1c0.5-0.3,0.2-1.6,0.2-1.6
	c0.5,0,0.3-1.1,0.3-1.1C41.6,30,42,30,42,30l1.3,1.1c0.4,0.3,0.3-0.1,0.3-0.1c0.4,0.6,0.5,0.5,0.5,0.5
	C44.4,30.6,42.1,28.2,42.1,28.2z M22.3,4.6c0,0,0.2,1.1-1.1,0.8C21.2,5.4,21.7,3.9,22.3,4.6z"/>
</svg>
