<?xml version="1.0" encoding="utf-8"?>
<!-- Generator: Adobe Illustrator 19.1.0, SVG Export Plug-In . SVG Version: 6.00 Build 0)  -->
<svg version="1.1" id="Layer_1" xmlns="http://www.w3.org/2000/svg" xmlns:xlink="http://www.w3.org/1999/xlink" x="0px" y="0px"
	 viewBox="0 0 48 48" style="enable-background:new 0 0 48 48;" xml:space="preserve">
<style type="text/css">
	.st0{fill:#808080;}
</style>
<path class="st0" d="M46.8,16c0,0-1.6-1.2-2.7-2.8c0,0-1-1.5-3.9-1.5c0,0-3.1-1.9-9.3-0.5c-0.3,0.1-0.7,0-1-0.2c-1.2-1-3.5-4,7-5.3
	c0.2,0,0.2-0.3,0-0.4c-0.5-0.2-1.9-0.1-5.5,0.9c0,0-6,1-3.1,5.3c0.1,0.2,0.1,0.4-0.1,0.5c-1.3,0.6-5.6,3.3-3.2,8.7
	c0.1,0.3,0,0.6-0.3,0.6c-1.7,0.4-7,1.9-8.4,4.2c0,0-3.1,3.7,0.3,7.1c0.2,0.2,0.4,0.4,0.6,0.5c1.2,0.7,5.3,3,11.6,3.5
	c0.1,0,0.1,0.1,0,0.1c-1.2,0.3-5.3,1.2-11-0.7c-0.4-0.1-0.7-0.5-0.7-0.8c-0.3-1.5-1.6-5.2-6.8-5.2c0,0-2.5-0.3-5.5,1.8
	c-0.1,0-0.2,0.1-0.2,0C4.4,31.7,4,31.6,3.2,32c0,0-0.9,0.4-1.3,0.9c-0.1,0.1-0.2,0.2-0.3,0.2c-0.3,0.1-0.7,0.4-0.8,0.7
	c0,0.1-0.1,0.2-0.1,0.2c-0.3,0.4-1.3,1.9-0.2,2.1c0,0,0.8,0.5,2,0c0,0,3.9-1.1,4.9-2.3c0,0,1.2-1,3.3-0.5c0,0,2.8,0.8,2.7,2.8
	c0,0,0,2.8,1.8,3.9c0.1,0.1,0.2,0.1,0.3,0.2c0.6,0.4,3.5,2.4,10.9,2.3c0,0,10.7,0,9.9-5.6c0,0,0.2-3.9-5.7-5.6c0,0-11-2-9.4-2.6
	l7.2-2.8c0,0,3.2-2.1,2.4-5c0,0,0.2-1.3-2-3.7c0,0,3.8-3.7,9.8-1.6c0,0-1.7,4.2,0.6,5.3c0,0,3.5,2.4,7.9,0
	C47.2,21.1,49.3,18.8,46.8,16z M2.8,35.3c-0.2,0-0.4-0.2-0.4-0.4c0-0.2,0.2-0.4,0.4-0.4c0.2,0,0.4,0.2,0.4,0.4
	C3.3,35.1,3.1,35.3,2.8,35.3z M43,18.3c-0.8-0.3,0.4-1.4,0.4-1.4l1.3,0.9C45.2,18.6,43,18.3,43,18.3z"/>
</svg>
