<?xml version="1.0" encoding="utf-8"?>
<!-- Generator: Adobe Illustrator 19.1.0, SVG Export Plug-In . SVG Version: 6.00 Build 0)  -->
<svg version="1.1" id="Layer_1" xmlns="http://www.w3.org/2000/svg" xmlns:xlink="http://www.w3.org/1999/xlink" x="0px" y="0px"
	 viewBox="0 0 48 48" style="enable-background:new 0 0 48 48;" xml:space="preserve">
<style type="text/css">
	.st0{fill:#808080;}
</style>
<path class="st0" d="M33.1,28.6c-0.2-0.1-0.5-0.2-0.6-0.4c-0.9-0.9-3.8-3.9-7.6-6.5L21,18.9c-0.2-0.1-0.1-0.4,0.1-0.5
	c1.9-0.7,8.8-3.5,12.9-8c0,0,4-5.4,2.4-7.3c0,0-1.4-4.1-9.4-2.9c0,0-3.7,0.5-5.1,1c-0.3,0.1-0.6,0.2-0.9,0.2
	c-1.2,0.2-3.8,0.6-4.6,1.7c0,0-1.4,1-0.3,1.5c0,0,0.4,0.8,3.5,0.4c0,0,1.2,0,1.5-0.3c0,0,3.6-1.7,7.6-1.8c0,0,1.9-0.2,3.2,0.5
	c0.7,0.4,1.1,1.3,0.8,2.1c-0.3,0.9-0.9,2.4-2,3.4c0,0-0.9,2-11.5,6.3c0,0-3.3,1.3-3.1,3.1c0,0,0.3,1.3,2.2,2.5l4.2,2.9
	c0,0,4.5,3.3,4.9,3.9c0,0-3.8-0.4-6.1,0c0,0-5.6,0.4-11.7,2.6c0,0-5.1,1.9-7.6,5.3c0,0-3.3,3.6,4.3,8.3c0,0,4.4,2.5,14.2,3.4
	c0,0,8.4,1.7,16.9-1.1c0,0,8.7-2.5,9.2-7.1C46.6,39.4,48.9,33,33.1,28.6z M16.1,32.2c5.7-3,14.3-1.3,14.3-1.3l2.1,3.7
	c1.2,2.8-2.4,3.7-2.4,3.7c-7.9,1.9-15-2.7-15-2.7C12.8,33.7,16.1,32.2,16.1,32.2z M41.7,41.1c-4.7,4.2-19.1,3.8-19.1,3.8
	C7.3,45,3.9,40,3.9,40c-3.8-5.4,9.2-9.5,9.2-9.5c-6.5,6.7,4.1,10.2,4.1,10.2c11.9,4.5,17.3-0.4,17.3-0.4c3.7-2.1,0.8-8.1,0.8-8.1
	C48.2,37.8,41.7,41.1,41.7,41.1z"/>
</svg>
