<?xml version="1.0" encoding="utf-8"?>
<!-- Generator: Adobe Illustrator 19.1.0, SVG Export Plug-In . SVG Version: 6.00 Build 0)  -->
<svg version="1.1" id="Layer_1" xmlns="http://www.w3.org/2000/svg" xmlns:xlink="http://www.w3.org/1999/xlink" x="0px" y="0px"
	 viewBox="0 0 48 48" style="enable-background:new 0 0 48 48;" xml:space="preserve">
<style type="text/css">
	.st0{fill:#808080;}
</style>
<path class="st0" d="M45.2,4.5C45.1,4.3,45,3.9,45,3.6c0.1-0.9-0.3-3-4.7-3.6c0,0-3.2-0.3-5.1,1.3l-3.9,3.4c-0.5,0.5-1.1,0.8-1.8,1
	c-1.5,0.5-4.9,2.1-8.6,7c-0.3,0.4-0.5,0.8-0.8,1.2c-1,1.8-4.3,7.8-6,9.7c-0.1,0.1-0.2,0.2-0.3,0.4c-0.3,0.6-0.9,2,0.5,2.5
	c0,0-1.5,2.8-1.7,4.4c0,0.2-0.1,0.4-0.3,0.5c-1,0.6-4,2.5-2.5,3.7c0.2,0.2,0.2,0.4,0.1,0.6L1.8,48l4.1-3.9l-0.7,3c0,0,0,0,0,0
	c0.3-0.3,8.2-7.7,9.2-9.9c0.1-0.2,0.3-0.4,0.6-0.5c1.7-0.5,8.1-2.5,11.5-5.3c0.2-0.1,0.4-0.1,0.5,0c0.3,0.3,0.9,0.6,2,0.2
	c0,0,0.4,0.2-1.9,0.8c0,0-2.8,0.4-1.7,2.2c0,0,0.1-1.7,1-1.1c0,0,0.6,0.5,0.9-0.1c0,0,3.7-1.4,4.2-1c0,0,4.4,2.2,4.6,1.3
	c0,0,0.9,0.6,1,1.4c0,0,0.7-1.8-1.2-2.1c0,0-0.2-1.3-2-1.4c0,0-4.8-1.2-4.2-1.9c0,0,1.1-0.9,2.6-1.5c0.3-0.1,0.5-0.2,0.8-0.5
	c0.9-0.8,2.9-3.2,3.8-8.8c0,0,0.4-2.2,1.3-3.1c0,0,1.3-1.2,1.5-3.7c0-0.6,0.3-1.2,0.6-1.8l1.1-1.6c0,0,1.9,0.6,3.2-1l-0.1,2.2
	C44.4,10.1,47.7,8.5,45.2,4.5z M34.9,32.4c0.2,0,0.3,0.1,0.3,0.2c0,0.1-0.2,0.2-0.3,0.2c-0.2,0-0.3-0.1-0.3-0.2
	C34.5,32.5,34.7,32.4,34.9,32.4z M40.1,4.1c-0.6,0-1-0.4-1-0.9c0-0.5,0.5-0.9,1-0.9c0.6,0,1,0.4,1,0.9C41.2,3.7,40.7,4.1,40.1,4.1z"
	/>
</svg>
