<?xml version="1.0" encoding="utf-8"?>
<!-- Generator: Adobe Illustrator 19.1.0, SVG Export Plug-In . SVG Version: 6.00 Build 0)  -->
<svg version="1.1" id="Layer_1" xmlns="http://www.w3.org/2000/svg" xmlns:xlink="http://www.w3.org/1999/xlink" x="0px" y="0px"
	 viewBox="0 0 48 48" style="enable-background:new 0 0 48 48;" xml:space="preserve">
<style type="text/css">
	.st0{fill:#808080;}
</style>
<path class="st0" d="M46.6,3.5c-0.5-1.2-3-5.5-12-0.9C34.3,2.8,34,3,33.7,3.2C32.6,4,30,6.3,29.8,9.6c-0.1,0.8-0.3,1.5-0.6,2.2
	c-0.5,0.9-1.2,2.1-1.8,3c-0.4,0.6-0.9,1.2-1.5,1.6c-1.5,1.2-5.7,4.7-8.8,9c0,0-10.7,12.7-8,12.3c0,0,0.6,0.6-1.4,2
	c-0.3,0.2-0.6,0.4-0.8,0.7c-0.3,0.4-0.9,0.9-1.5,1.2c0,0-5.4,3.7-5.3,5.5l1.2-0.6c0,0-0.7,1.9,1.1,0.6c0,0,3.9-2.3,5.4-3.4
	c0.5-0.4,1.1-0.7,1.7-0.8c1.5-0.3,4.4-1.1,6.2-3.2c0,0,3.1-2.2,4.2-1.2c0.2,0.2,0.5,0.2,0.7,0.1c0.9-0.4,3-1.2,3.4-0.3
	c0.1,0.3,0.4,0.5,0.6,0.5c0.5,0.1,1.3,0.3,1.7,0.1c0,0-1,1.5,1.2,2.4c0,0-1.6-0.1-1.7,0.8c0,0,1.8-0.2,2.1,0c0,0-1.4,0.8,0.1,0.9
	c0,0,4.9,0,5.3-0.5c0,0,6.9,0.2,6-1c0,0,0.8-1.2,2.1,0.1c0,0-0.6-2.4-2.9-0.8c0,0-0.8-0.4-1.6,0.1c0,0-2.9,0.4-3.5,0.1
	c0,0-0.8-0.6-1.3-0.7c0,0,5.5-0.8,5.1-1.8c0,0,0.6-0.7,1.2-0.4c0,0-0.6-1.2-2.3,0.1c0,0-1.4-0.1-1.9,0.5c0,0-3.2,0-3.2-0.6
	c0,0-0.2-0.8,0.5-1.1c0,0,5.9-5.5,7.1-11.1c0,0,3.3-13.2,4.8-15.9c0.2-0.3,0.5-0.5,0.8-0.5c0.6-0.1,1.7-0.2,2.1-0.8
	c0,0,0.3,0.6,0.3,1.4c0,0,3.2-0.9,0.4-5.7C46.8,4,46.7,3.8,46.6,3.5z M40.6,5.3c-0.5,0-1-0.4-1-0.8c0-0.5,0.4-0.8,1-0.8
	c0.5,0,1,0.4,1,0.8C41.5,4.9,41.1,5.3,40.6,5.3z"/>
</svg>
