<?xml version="1.0" encoding="utf-8"?>
<!-- Generator: Adobe Illustrator 19.1.0, SVG Export Plug-In . SVG Version: 6.00 Build 0)  -->
<svg version="1.1" id="Layer_1" xmlns="http://www.w3.org/2000/svg" xmlns:xlink="http://www.w3.org/1999/xlink" x="0px" y="0px"
	 viewBox="0 0 48 48" style="enable-background:new 0 0 48 48;" xml:space="preserve">
<style type="text/css">
	.st0{fill:#808080;}
</style>
<path class="st0" d="M45.9,37c0,0,0.3-1-0.9-2.1c-0.4-0.3-0.8-0.6-1.2-0.8c-1.5-0.6-6-2.3-8.2-2.7c-0.3,0-0.5-0.3-0.5-0.6
	c0-1.1,0.2-3.9,1.7-6.2c0,0,4-6.7,3.2-11.9c-0.1-0.6-0.1-1.1-0.1-1.7l-0.1-9.3c0,0-0.8-1.4-1.6,4c0,0-2.3-8-2.4-5.1l0.4,4
	c0,0-2.9-5.9-2.5-3.3l1.2,4.7c0,0-3.4-5.1-2.8-2.4l0.6,1.7c0,0-0.9-1-1.2-0.4c0,0-0.7,0.5,0,1.5c0,0-1.5,0.3-0.3,2
	c0,0-0.4-0.3-0.6-0.1c0,0-0.6,0.8,0,1.6c0,0-0.8-0.3-0.8,0.5c0,0,0.1,1.1,0.8,1.4c0,0-1.1-0.1-1.2,0.6c0,0-0.4,0.8,0.4,1.3
	c0,0-1.3,0.1-1.1,2.1c0,0-0.5,1.4-0.2,1.8c0,0-0.9,1.4-0.5,2.1c0,0.1,0,0.2-0.1,0.3c-0.1,0.1-0.3,0.1-0.3-0.1c0,0-1.9-10.6-1.8-11.3
	c0,0-0.5-0.5-0.6,0.5c0,0-0.5,5.1,0.1,6.9c0,0-3.7-8.7-4-9c0,0-0.7-0.1-0.3,1.3l1.6,5.5c0,0-3.8-6.3-4.1-5.9c0,0-0.6,0.2,0.3,1.6
	l2.7,5.6c0,0-4.5-5.3-4.7-4.4c0,0-0.5,1,1.2,3c-0.1-0.1-1.5-1.3-1.8-0.8c0,0-0.3,0.9-0.1,1.1l0.7,1.1c0,0-0.8-0.6-0.8,0.2
	c0,0-0.1,1.3,0.8,1.7c-0.1,0-0.9-0.3-0.9,0.2c0,0-0.2,1.1,0.9,1.7c-0.1,0-1.4-0.5-1.3,0.4c0,0,0,1.2,1.8,1.9c0,0-1.9-0.7-1.8,0.4
	c0,0-0.3,1.2,1,1.4c-0.1,0-1.8-0.1-0.6,2c0,0-0.1,1.3,0.7,1.6c0.1,0,0.1,0.1,0.1,0.2c-0.1,0.4-0.1,1.4,0.9,1.5
	c-0.2,0-1.6-0.2-0.9,0.4l0.7,0.1c0,0,0.3,0.5,0.6,0.7c0.1,0.1,0.2,0.2,0.3,0.3c0.1,0.2,0.3,0.6,0.5,0.7l-16,1.2c0,0,0.1,0.4,1.4,0.1
	l6.2-0.4l-8.5,0.8c0,0-0.2,0.5,0.2,0.5l5.2-0.2c0,0-0.4,0.8,1.8,0.4c0,0-0.4,0.6,2.6,0.1c0,0-0.3,0.3,0.9,0.2c0,0,0.9,0.4,1.9,0.3
	c0,0-0.1,0.4,1.2,0.2l5.3-0.2c0.3,0,0.7,0.1,1,0.2c1.5,0.7,5.9,3.1,6,3.8c0,0,0.1,1.2,0.1,2.6c0,0.5,0.1,1,0.3,1.5
	c0.3,0.7,0.8,1.7,1,2.1c0.3,0.6,0,0,0,0s-1.8-0.3-2.1,0.7c0,0-0.4,0.4-0.2,1c0,0,0.1-0.8,0.5-0.6c0,0,0.5,0.2,0.8-0.2
	c0,0,0.8-0.3,1.5,0.9c0,0,0.2,0.5-0.2,1c0,0-0.3,0.3,0,0.5c0,0,0,0.4-0.6,0.6c0,0,0.8,0.2,1.1-0.5c0,0,0.7-0.5,0.5-1.7l0.4,0.6
	c0,0-0.2,0.4,0.2,0.5c0,0-0.2,0.7-0.4,0.9c0,0,0.9-0.4,0.8-0.9c0,0,0.4-0.7-0.4-1.4l-0.7-0.7c0,0-0.5-1.7-1-2.8
	c-0.1-0.2,0-0.5,0.2-0.7c0.5-0.3,1.3-0.8,1.4-0.9c0,0-0.2,0.8,0.2,1.1c0,0-0.2-1.1,0.1-0.8c0,0-0.1,1.5,1.4,1.3c0,0-0.8-0.2-0.7-0.5
	c0,0,0.3-0.4-0.1-0.6c0,0-0.3-0.8,0.4-0.5c0,0,0.5-0.3,0.8,0.2c0,0,0.4,0.4,0.2,0.6c0,0-0.1,0.4,0.3,0.5c0,0,0.1,0.5-0.2,0.7
	c0,0,0.6,0,0.6-0.7c0,0,0.4-0.6-0.4-1.5c0,0,0.3,0,0.5,0.4c0,0-0.1,0.4,0.3,0.4c0,0,0.3,0.3-0.1,0.9c0,0,0.7-0.2,0.5-1
	c0,0,0.1-1.2-1.1-1.3c0,0-2.2-0.5-1.3-0.8c0,0,7.7-1.4,9.7,0.5c0,0,0.1,0.3,0.3,0.1c0,0,0.8,1.3,2.8,1.2l-0.5-0.7
	c0,0,0.1-0.3,0.2-0.3c0,0,0.6,0.2,0.5,0.8c0,0-0.1,0.4-0.2,0.4C44.9,40.7,47.2,40.3,45.9,37z M42.3,37.5c-0.2,0-0.4-0.1-0.4-0.3
	s0.2-0.3,0.4-0.3s0.4,0.1,0.4,0.3S42.5,37.5,42.3,37.5z"/>
</svg>
