<?xml version="1.0" encoding="utf-8"?>
<!-- Generator: Adobe Illustrator 19.1.0, SVG Export Plug-In . SVG Version: 6.00 Build 0)  -->
<svg version="1.1" id="Layer_1" xmlns="http://www.w3.org/2000/svg" xmlns:xlink="http://www.w3.org/1999/xlink" x="0px" y="0px"
	 viewBox="0 0 48 48" style="enable-background:new 0 0 48 48;" xml:space="preserve">
<style type="text/css">
	.st0{fill:#808080;}
</style>
<path class="st0" d="M46.7,26.6c0,0-0.3-0.6-3.7,0.9c0,0-3.1-0.7-4-0.5c0,0-2.4,0-3,0.1c0,0,0.8-0.5,1.8-0.3c0,0,0.6,0,0.8-0.3
	c0,0,5.8-2.2,6-3.3c0,0-0.6-1.3-1.7-0.9c0,0,0.8,0.5,0.4,0.8c0,0-2.5,1.7-3.2,1.8c0,0-3.1,1.2-2.1,0.6c0,0,1.5-0.5,1.5-0.8
	c0,0,3-0.2,3.1-2.8l-0.3-0.3c0,0,0-1.6-0.3-1.6c0,0,0.6-1-0.3-1.1c0,0,0.3-1.4-2.5-3.8c0,0-1.7-2.6-3.6-2.3c0,0-2.7-4.3-6.7-2.5
	c0,0-1,0.5-0.9,1.5c0,0,4.8-2.3,5.6,3.6c0,0-2.8-1.2-3.6-0.6c0,0-1.7-0.2-2.7-0.9c0,0-0.8,0.8,1.2,2.1c0,0,2.7,2.4,4.3,2.8
	c0,0,2.7,2.7,4.1,3.1c0,0-0.4,0.3-0.7,0c0,0-0.1,0-0.1,0c-0.2,0.1-0.8,0.5-1.2,0.3c-0.1,0-0.3,0-0.4,0.1c-0.2,0.2-0.6,0.4-0.9,0.1
	c0,0-0.1,0-0.1,0c-0.1,0.2-0.4,0.7-0.4-0.2c0-0.1,0-0.1-0.1-0.1c-0.2,0-0.7,0-0.7-1c0,0-0.1-0.1-0.1,0c-0.2,0.2-0.5,0.4-0.7-0.4
	c0-0.1-0.1-0.1-0.2-0.1c-0.2,0-0.5,0-0.7-0.4c0,0-0.1-0.1-0.1-0.1c-0.2,0.1-0.9,0.3-1-0.4c0-0.1-0.1-0.1-0.1-0.1
	c-0.2,0.1-0.8,0.3-0.9-0.5c0-0.1-0.1-0.1-0.1-0.1c-0.3,0.1-1.1,0.4-1.2,0c0,0,0.5-0.3,0.3-0.8c0,0,0-0.1-0.1-0.1
	c-0.1,0-0.5,0-0.8,0.6c0,0-0.2-0.3-0.6,0c0,0,0.7-2.1,2-2.4c0,0-1.1-0.4-2.2,2.3c0,0.1-0.1,0.1-0.1,0c-0.2-0.1-0.5-0.4-0.8,0.1
	c0,0-0.3-0.9-0.9,0.1c0,0-0.7-0.8-0.9,0c0,0-0.6-0.9-0.9,0.1c0,0-1.2-2.1-2.4-2.5c0,0,1.6,1.4,1.9,2.3c0,0-0.4-0.1-0.3,0.2
	c0,0-0.1-0.1-0.3-0.1c-0.1,0-0.2-0.1-0.2-0.2c-0.1-0.2-0.2-0.6-0.5-0.4c0,0-0.3,0.5-0.1,0.8c0.1,0.1,0,0.3-0.1,0.4
	c-0.1,0-0.4,0-0.7-0.1c0,0-0.3-0.3-0.4,0.3c0,0-0.3,0.7-0.8,0.2c0,0-0.1,0-0.1,0c-0.1,0.3-0.5,0.9-1.2,0.5c0,0,0,0,0,0
	c0.1,0.2,0.2,0.8-0.6,0.6c-0.1,0-0.1,0-0.1,0.1c0,0.2-0.1,0.6-0.7,0.4c0,0-0.1,0-0.1,0.1c0,0.3,0,1-0.7,0.6c0,0-0.1,0-0.1,0
	c-0.1,0.1-0.5,0.2-1.2-0.4c0,0-0.1-0.1-0.2,0c-0.2,0.1-0.7,0.3-1.2-0.2c0,0-0.1-0.1-0.2,0c-0.2,0.1-0.5,0.2-1.2,0
	c-0.1,0-0.1-0.1,0-0.1c0.8-0.5,4.5-3.2,5-3.8c0,0,2.2-2.9,3.6-3.3c0,0,1.3-0.8,0.7-1.7c0,0-0.3,0.7-0.4,0.1c0,0-2.7-2.7-7.3,0.5
	c0,0-0.7-0.2-1,0.2c0,0-0.5-0.2-0.9,0.5c0,0-0.4-0.3-0.5,0.2c0,0-2.8,2.9-2.8,4.4c0,0-0.2,0.2-0.3,0c0,0-0.4,0.5-0.1,1.1
	c0,0-0.1,1.6-0.6,1.6c0,0-0.1,2.6,3.2,3c0,0-1.2,0.2-0.2,0.3c0,0,3.5,1.4,5.3,0.9c0,0,0,0.2-0.2,0.4c-0.1,0.1-0.1,0.3,0,0.4
	c0.3,0.2,0.8,0.4,0.7,0.4c0,0-2.7-0.3-4-0.9c0,0-0.9-0.4-0.9,0.1c0,0-7.7-2.8-5-3.2c0,0-1.3-0.5-1.5,0.2c0,0-0.5,0.7,0.8,1.3
	c0,0,3.2,2.5,5.3,2.6c0,0-0.2,0.6,1.7,0.4c0,0,4.1,1.2,5.2,0.9c0,0,1.3,0.9,0.2,0.9c0,0-6-1.9-8-0.7c0,0-3,0.1-3.8,0.6
	c0,0-3.7-1.4-3.8-0.6c0,0-1-0.3-1.1,1.4c0,0,0.6-0.9,1.7-0.6c0,0,4.6,1.1,5.4,0.5l1.6-0.5c0,0-0.1,0.5,0.7,0.3c0,0,3.5-0.2,4.2,0.1
	c0,0-2.9,0.2-3.3,0.4c0,0-3.1,0.5-3.8,1.2L4,32.1c0,0-0.5-0.1-0.3,1.2c0,0,0.4,1.9,1.2,2.1c0,0,0.3-1.7-0.4-2.4l0.3-0.2
	c0,0,0,0.4,0.7,0c0,0,4.2-2.3,4.9-2.4c0,0,1.4,0.6,3.9,0.2c0,0-1.5,0.8-1,2.4c0,0,0.3-0.1,0.3-0.3c0,0,0.4,0.6,1.2,0.4
	c-0.3,0.1-1.4,0.4-0.7,1.6c0,0,0.7,1.6,1.4,1.4c0,0,0.2,1.8,3.6,1c0,0,2-0.5,2.4-1.5c0.1-0.1,0-0.3-0.1-0.4C21,35,20,34.4,17.5,34.8
	c0,0-1.3-2.1-2.1-2.1c0,0-0.5-0.5,0-0.5c0,0,1.5,0.4,2.1,0c0,0,1.2,0.3,2.2-0.7c0,0,7.7,0.4,9.1-0.1c0,0,1.2,0.9,3.3,0.4
	c0,0-1.5,1.6-1.2,3.2c0,0-2.3,0.9-2.9,1.8c-0.1,0.1-0.1,0.3,0.1,0.4c0.5,0.5,2,1.6,4.5,0.4c0,0,1.5-0.6,1.3-2c0,0,0.5-0.1,0.5-0.5
	c0,0,0.3-2.1-0.8-2.4c0,0,2.4-1.3-0.1-2.2c0,0,4.9-0.7,5-0.9c0,0,1.4,1.3,2,1c0,0,1.8,1.6,3.6,1.5c0,0-0.4,2-0.2,2.4
	c0,0,1.5-1.2,0.9-2.6c0,0,0.2-0.6-0.4-0.8c0,0-1.9-1.2-2.6-1c0,0-2.8-1.9-3.3-1.6c0,0-2.7-0.2-3.3-0.1c0.3-0.1,2.2-0.5,3.2-0.2
	c0,0,0.6,0.2,0.6-0.3c0,0,2,0.2,2.7,0.3c0,0,0.9,0.4,1.9-0.3c0,0,3-1.1,3.3-0.7c0,0,0.8,0.4,0.9,0.7C47.9,28,48.4,26.7,46.7,26.6z
	 M14.3,14.3c0.2,0,0.7-0.4,0.7-0.4c-0.1-0.7,0.5-0.6,0.5-0.6c0.1-0.7,0.7-0.3,0.7-0.3c1.5-1.5,3.5-0.1,3.5-0.1
	c-0.4,0.5-2.5,0.6-2.5,0.6c-0.3-0.7-0.7,0.1-0.7,0.1c-0.1,0.1-0.3,0-0.3,0c-0.2-0.4-0.6,0.1-0.6,0.1c-0.1,0.3-0.9,0.7-0.9,0.7
	C13.9,15,14.3,14.3,14.3,14.3z M30.3,29.8v-0.5h1.2L30.3,29.8z M31.2,28.2c-1.4-0.5,1.7-0.7,1.7-0.7L31.2,28.2z M33,26.4l0.2-0.3
	l1.9,0.1L33,26.4z"/>
</svg>
