<?xml version="1.0" encoding="utf-8"?>
<!-- Generator: Adobe Illustrator 19.1.0, SVG Export Plug-In . SVG Version: 6.00 Build 0)  -->
<svg version="1.1" id="Layer_1" xmlns="http://www.w3.org/2000/svg" xmlns:xlink="http://www.w3.org/1999/xlink" x="0px" y="0px"
	 viewBox="0 0 48 48" style="enable-background:new 0 0 48 48;" xml:space="preserve">
<style type="text/css">
	.st0{fill:#808080;}
</style>
<path class="st0" d="M43.7,9.9c-1.2-0.7-5.1-2.6-7.7-0.2c0,0-1.7,1.7-2.8,4L33,14.2c-0.6,1-1.3,1.8-2.2,2.5
	c-0.5,0.4-1.1,0.9-1.7,1.5c-1.2,1.3-2.5,2.4-4,3.4c-1.9,1.3-4.4,3.3-5.9,5.5c0,0-1.8,0.9-2.8,1.7c-0.8,0.6-1.6,1.1-2.5,1.5L0.2,36.6
	c0,0-1.3,1,3-0.5c-0.1,0.1-1.7,1.2-2,1.3c0,0,2.8-0.3,4.5-1.4c0,0,0.7,0.5,0.9,0.5c0.2-0.1,0.2-0.1,0.2-0.1s3.5-3.1,3.1-1.4l8.8-4.1
	c0.7-0.3,1.5-0.5,2.3-0.6c1.7-0.1,4.5-0.1,6.5,0.9c0,0-0.7,1.5,0.2,2.1c0,0-0.2,0.7,0.9,1.1c0,0,2.9,3.1,3.2,3.6c0,0-1-0.4-1.6,0
	c0,0-0.9-0.1-1.1,1.1c0,0,0.4-0.4,0.6-0.5l-0.1,0.3l0.4-0.4c0,0,0.4,0,0.3,0.2c0,0-0.4,0.6,1,0.5c0,0,3.6,0.1,3.9,0.1
	c0,0,0.1,0.2,0.2,0c0,0,0.8,0.1,1-0.1c0,0,0.6-0.2,0.7,0.1c0,0,0.8,0.1,0.5-0.4c0,0,0.8-0.2,1.2,0.4c0,0,0.2-0.1-0.4-0.6
	c0,0,0.7,0,0.6-0.4c0,0,0.7-0.1,0.9,0.6c0,0,0.2-0.8-1.2-1c0,0-0.8-0.1-1.1,0.2c0,0-0.6-0.9-2,0.1c0,0-0.7,0-0.9-0.2
	c0,0-0.3-0.6-0.9-0.7l-3.6-3.7l0.1-0.2c0,0-0.4-1.8,1.9-2.9l4.5-2.9c0,0,2.6-1.7,3.6-4.8c0.2-0.5,0.3-0.9,0.5-1.4
	c0.5-1,1.2-3.2,0.6-5c0,0-0.7-2.4,0.9-3.6c0.4-0.3,0.8-0.4,1.3-0.5l2-0.2c0,0,2.3-0.4,2.4-0.6c0,0-1-1.2-3.6-1.2
	C44.2,10.1,43.9,10,43.7,9.9z M33.2,38.1c-1.4-0.7-3.8-4.1-3.8-4.1C30.8,35.1,33.2,38.1,33.2,38.1z M40.4,11.2
	c-0.4,0-0.6-0.3-0.6-0.6c0-0.3,0.3-0.6,0.6-0.6s0.6,0.3,0.6,0.6C41,11,40.7,11.2,40.4,11.2z"/>
</svg>
