<?xml version="1.0" encoding="utf-8"?>
<!-- Generator: Adobe Illustrator 19.1.0, SVG Export Plug-In . SVG Version: 6.00 Build 0)  -->
<svg version="1.1" id="Layer_1" xmlns="http://www.w3.org/2000/svg" xmlns:xlink="http://www.w3.org/1999/xlink" x="0px" y="0px"
	 viewBox="0 0 48 48" style="enable-background:new 0 0 48 48;" xml:space="preserve">
<style type="text/css">
	.st0{fill:#808080;}
</style>
<path class="st0" d="M22.4,23c0,0-9.4-17.7-18.6-18.5c-0.1,0-0.3,0-0.4-0.1C2.6,4.2-0.4,3.9,0,7.3c0,0,0.9,2.7,3.1,5.7
	c0,0,2.9,5.1,2.7,7.1c0,0-0.2,7.7,6,6.5c0,0-5.6,0.5-6.3,8.3c-0.1,0.8,0,1.6,0.2,2.4c0.6,2.5,2.6,7.5,8.6,6.3c0,0,8.3-0.9,8.5-11
	c0,0,0.3,0.6,0.4,0.6c0,0-0.5,0.9,0,1.3c0,0-0.4,1.1,0.1,1.4c0,0-0.4,1.2,0,1.3c0,0-0.2,0.8,0.2,1.2c0.1,1.9,0.4,1.9,0.5,1.2
	l0.2-1.3c0,0,0.4-0.9,0.1-1c0,0,0.3-1,0.1-1.2c0,0,0.4-1.4,0.1-1.5c0,0,0.3-0.9,0.2-1.2c0-0.1,0-0.1,0-0.2l0.3-0.3c0,0,0.1,0,0.1,0
	c0.2,1,1.2,6.8,3,8.1c4.8,3.3,9.6,4.2,12.8-0.5c0,0,3.1-3.7,0.6-9c0,0-0.9-3.8-5-4.6c0,0,3.9,0.5,5.1-3.2c0-0.1,0.1-0.3,0.1-0.5
	c0.1-1.2,0.3-6.9,3.6-10.8c0,0,4.8-5.8,1.3-7.9c-0.1-0.1-0.3-0.1-0.5-0.1c-1.2-0.1-6.4-0.1-12.4,6.9c0,0-7.8,10.2-8.1,11.7
	c0,0-0.8-0.1-0.5-1.2c0,0,0.7-0.6-0.3-1.4c0,0-0.2-0.9,0-1c0,0,1.6-1.8,1.9-3.5c0,0,0.5-1.5,0.2-2.8c0,0-0.1-1.3-0.9-0.8
	c0,0-0.7,0.4,0.1,1.2c0,0,0.5,0.9,0.2,2.2c0,0-0.1,1.8-1.4,3.1c0,0-0.7,1.1-1.8,0.2c0,0-2.3-1.7-3-3.3c0,0-0.5-0.9-0.3-1.9
	c0,0,0.4-1.2-0.6-1.2c0,0-0.9,0.1-0.2,2.1c0,0,1,2.7,4.3,5c0,0-0.4,0.3-0.2,0.5c0,0-1.2,0.4-0.2,2C22.9,22.1,23.1,22.7,22.4,23z"/>
</svg>
