<?xml version="1.0" encoding="utf-8"?>
<!-- Generator: Adobe Illustrator 19.1.0, SVG Export Plug-In . SVG Version: 6.00 Build 0)  -->
<svg version="1.1" id="Layer_1" xmlns="http://www.w3.org/2000/svg" xmlns:xlink="http://www.w3.org/1999/xlink" x="0px" y="0px"
	 viewBox="0 0 48 48" style="enable-background:new 0 0 48 48;" xml:space="preserve">
<style type="text/css">
	.st0{fill:#808080;}
</style>
<path class="st0" d="M41.3,21.2c0,0-7.5-1.7-7.9-2.1L33,16.9c0,0,0-0.3-0.7-0.2c0,0,0.2-0.6,0-0.7c0,0,0.7-0.5,0.4-1.3
	c0,0,1-1.1,0.2-2c0,0,0.7-2-0.9-2.1c0,0,1.3-2.7-0.8-3.1c0,0,1.4-2.3,0.3-2.9c0,0,1-1,0.3-1.6c0,0-0.5-0.8-1.5,0.6
	c0-0.1,0.5-1.3-0.1-1.8c0,0-0.1-0.1-0.1-0.1c-0.1-0.2-0.6-0.5-1.8,1.2c0-0.1,0.6-1.7-0.6-2.2c-0.1-0.1-0.3,0-0.4,0.1
	c-0.3,0.3-1,1.1-1.1,1.6c0,0,0.2-4.9-1.8-0.2c0,0-3.6,7.8-4.4,9.2c0,0-2.6,5.7-3.3,6.5c0,0-0.6,1.2-0.8,1.9c0,0.1-0.2,0.2-0.3,0.1
	c-0.9-0.5-3.9-1.9-6.6,0.1c-0.5,0.4-0.9,0.9-1.2,1.4c-0.1,0.2-0.3,0.5-0.4,0.5c0,0-1.4,1-1.5,1.4c0,0,0.3-0.1,0.5,0.1
	c0,0,0.9,0.5,2,0.5c0.2,0,0.5,0.1,0.6,0.2c0.2,0.2,0.3,0.4,0.1,0.7c0,0-2.2,3.8,1.8,7.2c0.2,0.1,0.3,0.3,0.5,0.4
	c1,1,5.8,4.9,17.3,6.3c0.2,0,0.3-0.1,0.3-0.2c0.1-0.4,0.5-1.2,1.8-0.1c0,0,1.3,1,2.2,1.4c0.3,0.2,0.7,0.4,0.9,0.7l6.8,7.7
	c-0.1-0.1-1.1-2.1-1.2-2.8c0-0.1,0-0.1-0.1-0.2L35,38.7c-0.3-0.4-0.5-0.8-0.5-1.3c-0.3-1.4-1.1-4.5-3.7-7c0,0,3.2,0.8,2.9-0.1
	c0,0,1.1-0.1,0.8-0.7c0,0,1.2-0.2,0.4-1.6c0,0,0.3-0.6-0.2-0.8c0,0,1-0.2,0.9-1.3c0-0.2,0.1-0.4,0.2-0.4c0.6-0.4,2.3-1.5,3.3-1.3
	c0,0,2.9-0.2,3-1.2C41.9,23,42.7,21.3,41.3,21.2z M11.2,22.2c-0.4,0-0.7-0.3-0.7-0.6c0-0.3,0.3-0.6,0.7-0.6c0.4,0,0.7,0.3,0.7,0.6
	C11.9,21.9,11.6,22.2,11.2,22.2z"/>
</svg>
