<?xml version="1.0" encoding="utf-8"?>
<!-- Generator: Adobe Illustrator 19.1.0, SVG Export Plug-In . SVG Version: 6.00 Build 0)  -->
<svg version="1.1" id="Layer_1" xmlns="http://www.w3.org/2000/svg" xmlns:xlink="http://www.w3.org/1999/xlink" x="0px" y="0px"
	 viewBox="0 0 48 48" style="enable-background:new 0 0 48 48;" xml:space="preserve">
<style type="text/css">
	.st0{fill:#808080;}
</style>
<path class="st0" d="M44.5,24.2c0,0,2-1.8,1.5-3.9c0-0.2,0-0.3,0.1-0.5c0.7-1.1,4-5.6,0.1-10.2c-0.1-0.1-0.2-0.2-0.3-0.4
	c-0.4-0.8-2.1-3.6-1.3,1.2c0,0-2.9-6.5-1.7-0.3c0,0,0,0-0.1,0c-0.5-1.3-1.9-5-1.7,0.6c0,0-1.4-5.1-1.6,1.6c0,0-1.3-2.1-1.8,0
	c-0.1,0.3-0.3,0.6-0.5,0.8c-0.6,0.5-1.7,1.5-1.8,2.5c0,0.3-0.2,0.6-0.4,0.8c-0.5,0.4-1,1.3-0.3,2.7c0,0-0.7,0-1,0.2
	c-0.2,0.1-0.4,0-0.4-0.1L27.7,8.1c0,0-3-6.7-3.9-7.2L25.1,4l-2.6-4c0,0.1,1.2,3,2.3,4.9C23.6,3.1,21.3,0,20.9,0l2.4,3.9l-3.2-3.6
	c0.1,0.1,3.9,6.5,6.1,8.9c0.2,0.2,0.2,0.4,0,0.6c-0.1,0.2-0.4,0.4-0.7,0.1l-3.7-4.3c0,0-0.1,0-0.1,0c0,0.1,0,0.3-0.1,0.3
	c-0.1,0-0.1,0.1-0.1,0.2c0,0.4,0.2,1.5,0.6,2.1c0,0,0.4,0.5-0.3,0.4c-0.1,0-0.2,0-0.2,0.1c-0.1,0.3-0.2,1.2,0.7,2.3
	c0,0-0.1,0.7,0.3,1.1c0,0-0.9,0.8,0.2,2.2c0,0,1.2,1.3,1.2,1.8c0,0-2.2-1.6-2.3-0.2c0,0-0.7,1.2,1.7,2.4c-0.1,0-1.6-0.3-1.7,1.2
	c0,0-0.1,0.2-0.2,0.5c-0.1,0.3,0,0.7,0.3,0.9c0.4,0.3,1.1,0.6,2.6,0.6c0,0-2.8,1.2-1.6,2.3c0,0-0.1,0.8,0.2,0.9c0,0-0.1,1.1,0.2,1.1
	c0,0-0.2,3.3-0.4,4.4c0,0.1,0,0.3,0,0.4c0.1,0.5,0.6,1.4,1.6,0.6l0.5,0c0,0-0.3,0.3-0.8,0.6c-0.1,0-0.1,0.2,0,0.2
	c0.1,0,0.2,0.1,0.3,0.2c0,0,0.4,0.7,3,0.2c0,0-3.4,1.4-4.8,2.6c-0.5,0.4-1.1,0.7-1.7,0.8c-1.2,0.2-3.1,0.6-4.6,0.5
	c0,0-0.8,0.5,2.8,0.2c0,0-4.3,1.3-8.4,0.5c0,0-0.4,0.3,1.3,0.3c0,0,4.4,0.5,5.3,0c0,0,1,0,0.2,0.2c0,0-5.1,1.9-10,1.9
	c-0.2,0-0.2,0.2-0.1,0.3c0.3,0.2,1.2,0.4,3.3,0.3l6.8-1.7c0,0-11.2,5.5-13.3,5.9c0,0-1.1,0.4-1.1,0.9c0,0-3.5,1.2-3.2,2.6
	c0,0-0.3,1.1,3-0.7c0,0,8.7-3.1,11-4.4l4.4-2.5c-0.1,0.1-3.4,3.6-8.8,6.2c0,0-1.3,1.1-0.2,0.9c0,0,7.6-4,9.7-6
	c-0.8,0.8-2.6,2.7-3.6,3.2c0,0-0.3,0.6,0.7,0c0,0,6.2-3.8,7.4-5.2c0.1-0.1,0.3-0.1,0.3,0c0.2,0.2,0.6,0.4,1.2,0.2c0,0,0.8-0.1,1.3-1
	c0.1-0.2,0.3-0.2,0.4-0.2c1.3,0.1,6.3,0.4,8.4-0.6c0,0,3.1,0.2,3.8-0.5c0,0,0.9,0.4,1.7-0.5c0.1-0.1,0.2-0.2,0.4-0.1
	c0.5,0.1,1.7,0.3,2.4-0.2c0,0,0.1,1-0.6,1.7c0.1,0,2.7-1.1,1.4-4.1c0-0.1-0.1-0.2,0-0.3c0.1-0.5-0.1-2.2-4.8-2.1
	c-0.2,0-0.3-0.2-0.2-0.4C40.2,29.6,42.9,25.5,44.5,24.2z M41.5,32.9c0.2,0,0.4,0.1,0.4,0.3c0,0.1-0.2,0.3-0.4,0.3
	c-0.2,0-0.4-0.1-0.4-0.3C41.2,33,41.3,32.9,41.5,32.9z"/>
</svg>
