<?xml version="1.0" encoding="utf-8"?>
<!-- Generator: Adobe Illustrator 19.1.0, SVG Export Plug-In . SVG Version: 6.00 Build 0)  -->
<svg version="1.1" id="Layer_1" xmlns="http://www.w3.org/2000/svg" xmlns:xlink="http://www.w3.org/1999/xlink" x="0px" y="0px"
	 viewBox="0 0 48 48" style="enable-background:new 0 0 48 48;" xml:space="preserve">
<style type="text/css">
	.st0{fill:#808080;}
</style>
<path class="st0" d="M36.2,10.5c0,0,1.6-2,0.8-1.9l-14,15.5c0,0,2-3.9-1.1-7.6c0,0-9.5-13.2-12-10.6c0,0-1.6,2.7,3.2,10.1
	c0,0-10.8-9.8-13.1-7c0,0-1.6,2.1,7.9,10.3c0,0,5.8,7.4,8,8.8c0.3,0.2,0.2,0.6-0.1,0.6c0,0-0.1,0-0.2,0c0,0-0.2,0.1-0.2,0.4
	c0,0.2-0.1,0.3-0.2,0.4c-0.5,0.5-1.6,1.7-1.2,2.8c0,0.1,0,0.1-0.1,0.1c-0.5-0.2-1.7-0.6-2.3,0.9c0,0.1-0.2,0.2-0.3,0.1
	c-0.3-0.1-0.9-0.2-1.2,0.1c0,0-1.2,1.6-1.6,3.1c0,0-2.1,1.1-1.1,1.5c0,0-0.1-0.7,1.2-1.3l1.5-2.9c0.1-0.1,0.2-0.2,0.3-0.1l0.8,0.1
	c0.1,0,0.2,0.1,0.2,0.2c0,0.4,0,1.2,0.5,1.9c0,0,2.1,2.4,2.9,0.8c0-0.1,0.2-0.2,0.3-0.2c0.2,0,0.4,0,0.6-0.1c0.1,0,0.2,0,0.2,0.1
	c0.2,0.6,0.8,2.1,0.6,2.2c0,0-1.8,1.1-2.7,1.2c-0.1,0-0.2,0.1-0.2,0.1c-0.2,0.4-0.7,1.5-1.1,1.5c0,0,0.1,0.2,0.3,0.2l0.8-1.3
	c0.1-0.1,0.1-0.1,0.2-0.2c0.6-0.2,3.2-1.2,3.2-1.6c0,0-0.1-1.6-0.6-2.7c0-0.1,0-0.2,0-0.2c0-0.1,0.1-0.2,0.1-0.3
	c0-0.1,0.1-0.2,0.2-0.2c0.5,0.1,1.6,0.3,3.4,0.2c0,0,0.8,0.1,0.6,0.5c0,0-1.6,2.7-1.9,2.7c0,0,0,0.4,0,0.6c0,0.1,0.1,0.3,0.1,0.4
	c0,0.4,0,1-0.5,1c0,0,1,0.8,0.6-1.5l1.9-3.2c0,0,0.5-0.8-0.7-1c-1.2-0.2-3.9-0.2-3.9-0.2s0.7-0.2,0.8-0.6c0-0.1,0.1-0.2,0.2-0.2
	c0.3,0,0.8-0.3,1.8-1.4c0,0,0.4-0.5,0.9-0.8c0.3-0.2,0.7-0.3,1.1-0.1l6.8,3.7c0.8,0.4,1.6,0.9,2.4,1.5c1.8,1.3,5.6,3.9,8.8,4.9
	c0,0,4.7,0.7,2.9-1.9c0,0-4.3-6.7-10.6-9.2c0,0,13.2,3.6,15.6,1.7c0,0,3-0.9-3.7-4l-10.8-4.6c0,0-2.9-1.9-7.4,1
	c0,0,11.8-14.9,12.7-15.5c0,0-1.2,0.5-1.7,1.2C36.5,10.9,36.8,10.3,36.2,10.5z"/>
</svg>
