<?xml version="1.0" encoding="utf-8"?>
<!-- Generator: Adobe Illustrator 19.1.0, SVG Export Plug-In . SVG Version: 6.00 Build 0)  -->
<svg version="1.1" id="Layer_1" xmlns="http://www.w3.org/2000/svg" xmlns:xlink="http://www.w3.org/1999/xlink" x="0px" y="0px"
	 viewBox="0 0 48 48" style="enable-background:new 0 0 48 48;" xml:space="preserve">
<style type="text/css">
	.st0{fill:#808080;}
</style>
<path class="st0" d="M45.6,8.9c0,0,4.2-0.7,1.1-1.3l-3.5-0.2c-0.1,0-0.1-0.2,0-0.2c1.4-0.2,3.5-0.6,3.6-0.9c0,0,1.5-1.2-3-0.6
	c0,0,3.9-2-1.2-0.9c-0.1,0-0.2,0.1-0.3,0.1l-7.2,2.5c0,0-0.4-0.4-1.2,0.1c0,0-4,1.8-4.3,3.3c0,0-0.9,2.6-2.8,3.3
	c0,0,0.6-0.5,0.4-1.4l0-0.7c0,0,0.6,0.2,0.6,1c0,0,0.7-1.5-0.8-2.7c0,0-1.4-0.9-3.4,1.1c0,0-1.7,1.4-0.9,1.4c0,0,0,0.3,0.3,0.2
	c0,0-0.6,0.6-0.2,0.7c0,0,0,0.4-0.4,0.3c0,0-1.8-1.2-3.2-3.4c-0.1-0.2-0.3-0.4-0.5-0.6c-0.7-0.6-2.7-2-4.7-2.5
	c-0.4-0.1-0.7-0.2-1.1-0.4l-10-4.5c0,0-0.4,0.1,0.6,0.9c0,0,2.1,1.4,3.9,2c0,0-6.6-1.3-7.1-1.2c0,0-0.2,0.4,1.9,1.1
	c0,0-2.9-0.3-1.9,0.2l4,1.3c0,0-4.2-0.2-3.2,0.3C1,7.2,2.6,8,3,8c0,0-0.3,0.3,0,0.5c0,0,0.7,1.3,2.3,1.2c-0.3,0-1.4,0.2-1.1,0.7
	c0,0,0.7,1.2,1.9,0.9c0,0-1.2,0.6-0.6,1c0,0,1,0.9,1.3,0.8c0,0-0.2,1.3,1.3,1.3c0,0,0,1.4,1.1,1.3c0,0,0.1,0.9,0.7,0.8
	c0,0,0.2,1.8,0.8,1.2c0,0,0.7,1.4,1.1,0.8c0,0,0.9,2.9,1.8,1.7c0,0,0.4,1.8,1,1.3c0,0,0.5,1.4,1.2,0.9c0,0,0.9,1.4,1.3,0.6
	c0,0,0.8,1.9,1.5,1.2c0,0,0.6,1.2,1-0.6c0,0,0.4,0.7,0.8-0.6l1.7-3.2c0.1-0.2,0.4-0.2,0.4,0c0.1,0.3,0.3,0.8,0.1,1.4
	c0,0-0.1,0.3,0,0.5c0,0.2,0,0.3-0.1,0.5c-0.2,0.4-0.4,1-0.1,1.2c0,0,0.4-0.2,0.5-0.7c0,0,0-0.1,0.1-0.1l0.1,0c0.1,0,0.1,0,0.1,0.1
	V24c0,0,0,0,0.1,0c0.1-0.1,0.3-0.4,0.3-0.5c0,0-0.1,2-0.6,3.2c-0.1,0.2-0.2,0.5-0.2,0.7l-0.3,1.8c0,0-0.3,0.4-0.3,1.4
	c0,0-0.7,3.4,0.6,1.8c0,0-0.9,8.6-2,9.9c0,0-0.2,0.5,0.7-0.4c0,0.1-0.9,3.1,0.2,3.5c0,0,0.6,0.2,0.6-1.2c0,0,2.1-3.4,2.4-4.6
	l1.3-5.5c0,0,0.5,0.5,0.7-1.6c0,0,0.5,0.2,0.6-2c0,0,0.6-6,0.4-6.8c0,0,0.3-0.2,0.6,0.2l0,0c0-0.1,0.2-0.2,0.3-0.1
	c0.2,0.1,0.5,0.2,0.9-0.1c0,0,0.2,1.5,0.9,0.8c0,0,0.9,1.6,1.3-0.3c0,0,1.1,1.5,1.6,0c0,0,0.8-0.3,0.6-1.6c0,0,1.1-0.5,1.1-0.9
	c0,0,0.9-0.4,0.9-1.1c0,0,1-0.4,0.8-1.1c0,0,0.9-0.7,0.5-1.8c0,0,2.5,0.2,1.6-1.2c0,0,2.3,0.3,1.9-1c0,0,1.8-0.1,1.7-1
	c0,0,1.5-0.3,1.3-1.3c0,0,2.4-0.6,1-1.4c0,0,5.1-0.1,0.7-1.5C45.1,10.4,51.3,10,45.6,8.9z M26.7,11.5c-0.1,0-0.1-0.1-0.1-0.2
	c0-0.1,0.1-0.2,0.1-0.2c0.1,0,0.1,0.1,0.1,0.2C26.8,11.5,26.7,11.5,26.7,11.5z"/>
</svg>
