<?xml version="1.0" encoding="utf-8"?>
<!-- Generator: Adobe Illustrator 19.1.0, SVG Export Plug-In . SVG Version: 6.00 Build 0)  -->
<svg version="1.1" id="Layer_1" xmlns="http://www.w3.org/2000/svg" xmlns:xlink="http://www.w3.org/1999/xlink" x="0px" y="0px"
	 viewBox="0 0 48 48" style="enable-background:new 0 0 48 48;" xml:space="preserve">
<style type="text/css">
	.st0{fill:#808080;}
</style>
<path class="st0" d="M47.9,24.9c0,0-0.5-0.6-0.6-0.1c0,0,0.7,1.7-3.4,1.5c0,0-6.9-1.2-9.3-2.3c0,0-1.7-0.6-4.4-3.2
	c0,0-6.7-8.7-18.6-2.1c-0.1,0.1-0.2,0.1-0.3,0.1c-0.2,0-0.7-0.1-1.1,0.3c-0.1,0-0.1,0.1-0.2,0.1c-0.4,0.1-1.7,0.2-2.7-0.1
	c0,0-1-0.5-2.6,0c-0.2,0.1-0.4,0-0.6-0.1c-0.5-0.3-1.4-0.9-2-0.3c0,0-1.2,1.7,0.9,2.9c0.3,0.2,0.4,0.5,0.3,0.9l-0.4,1.5
	c0,0.1-0.1,0.2-0.2,0.2c-0.2,0.1-0.5,0.4-0.3,1c0,0.1,0,0.3-0.1,0.4l-0.6,1c-0.1,0.2-0.2,0.5-0.3,0.7c-0.1,0.4-0.3,1-1,1.6
	C0.1,28.9,0,29.1,0,29.4c0,0.3,0.2,0.5,0.7,0.6c0,0,0.3,0.4,0.8,0.1c0,0,0.9,0.1,1.4-0.1c0,0,0.6,0.2,0.7-0.4l1.5-0.5
	c0,0-0.2,0.6,1.2,0.2c0,0,2-0.9,7.7,0.3c0,0-0.3,0.7-1.5,0.5c0,0-0.7-0.4-1.3,0.4c0,0-0.6,0.8-0.2,0.9c0,0,1.3-0.3,1.5,0.3
	c0,0,0.4,0.4,0.3-0.3c0,0,1,0.2,1.1,0.1c0,0,0.5,0.7,0.6-0.1c0,0,0.7-0.1,0.7,0c0,0,0.6,0.5,0.6,0c0,0-0.2-1.2,0.7-1.5
	c0,0,2-0.3,3.4-0.4c0,0-0.6,0.7,0.3,0.4c0,0,0.4,0.4,0.9,0c0,0,0.3,0.7,0.8,0l0.5-0.1c0,0-0.3,1,0.6,0.1c0,0,1.5,0.4,2.2-1.4
	c0.2-0.4,0.4-0.8,0.7-1.2c0.5-0.5,1.3-0.8,2,0.3c0,0,0.4,1.1,1.9-0.1c0.4-0.3,0.8-0.5,1.3-0.6c1.7-0.3,5.6-0.9,7.5-0.2
	c0.2,0.1,0.4,0.1,0.6,0.2c1.1,0.3,4.5,1,6.3,0.4C45.6,27.2,48.6,26.5,47.9,24.9z M4.8,26.2c0,0-0.2-1.8,1.3-1
	C6.1,25.1,6.4,26.7,4.8,26.2z"/>
</svg>
