<?xml version="1.0" encoding="utf-8"?>
<!-- Generator: Adobe Illustrator 19.1.0, SVG Export Plug-In . SVG Version: 6.00 Build 0)  -->
<svg version="1.1" id="Layer_1" xmlns="http://www.w3.org/2000/svg" xmlns:xlink="http://www.w3.org/1999/xlink" x="0px" y="0px"
	 viewBox="0 0 48 48" style="enable-background:new 0 0 48 48;" xml:space="preserve">
<style type="text/css">
	.st0{fill:#808080;}
</style>
<path class="st0" d="M47.2,9.3c-0.2-0.7-1-2.5-3.7-2.7c-0.3,0-0.7-0.1-1-0.1C41.7,6.3,40,6,38.7,6.3c-0.3,0.1-0.5,0.1-0.8,0.1
	c-2,0-10.5-0.1-13,0.5c0,0-1.8-0.2-4.7,1.2l-3.9,1.6c-0.3,0.1-0.7,0.2-1,0.2c-0.5,0-1.3,0.1-2,1.2c-0.2,0.4-0.5,0.7-0.8,1
	c-0.7,0.6-1.9,1.8-2,2.4c0,0.1,0,0.2-0.1,0.3c-0.2,0.9-1.3,4.7-3,6.5c0,0-2.4,3.9-3.1,5.2c-0.1,0.2-0.2,0.2-0.4,0.2
	c-0.3,0-0.7,0-1.3,0.2c0,0-0.8-0.3-0.4,0.2c0,0-1.9,1.2-0.6,2.4c0,0-0.7,1-1.6,1.6c0,0-0.1,0.4,0.4,0.1c0,0,0.8-0.3,1.3-0.5
	c0.1-0.1,0.3,0,0.3,0.2c0,0.8,0.1,2.5,0.6,2.9c0,0,0.8,0.4,1,1.7c0,0,0.5,4.2,1.2,4.3c0,0,1.5,0.5,2-0.1c0,0,0.5-0.4,0.8-1
	c0.2-0.4,0.5-0.9,0.8-1.2c0.4-0.5,0.9-1.1,1-1.5l1.3-4.1c0.1-0.4,0.3-0.8,0.6-1.2c0.1-0.2,0.3-0.5,0.4-0.8c0,0,0.4,0,0.6-0.2
	c0,0,0.5-0.3,0.8,0c0,0,0.3,0.3,0.8,0.1c0,0,0.4,0.5,0.9-0.1c0.1-0.1,0.2-0.1,0.3-0.1c0.2,0,0.4,0,0.6,0c0.1,0,0.2,0,0.2,0.1
	c0.1,0.1,0.2,0.2,0.6,0.2c0.1,0,0.2,0.1,0.2,0.2c-0.1,0.7-0.5,3.2-0.3,4.1c0,0.2,0.1,0.4,0.1,0.6c0,0.6-0.1,1.8-0.7,2.7
	c0,0-0.5,1.4-1.2,2c0,0-0.4,0.2-0.5,0.7c0,0-1.5,1.1-1.4,1.3c0,0,0.2,0.7,1.5,0.6c0,0,1.2,0.1,1.3-0.2c0,0,0.2-0.3,0.5-0.2
	c0,0,0.5-0.6,0.4-1c0,0,0.2-0.4,0.4-0.3c0,0,0.3,0.4,0.5,0c0,0,0.3-0.3,0.1-0.7l1.2-4.7c0.1-0.3,0.2-0.6,0.4-0.8
	c0.2-0.3,0.5-0.8,0.7-2.1c0,0,0.6-3.3,1.4-4.3c0.1-0.1,0.3-0.1,0.4,0c0.2,0.5,0.7,1.4,1.1,2.4c0,0,1.2,2.9,1.9,3c0,0,0.7,1.4,1,2.6
	c0,0,0,0.1,0,0.1c0.3,1.3,0.8,1.9,0.5,2.4c0,0-0.1,0.4,0,0.7c0,0-1,1.1-0.8,1.5c0,0,0.7,0.6,1.7,0.3c0,0,1.2-0.6,1.3-1.7
	c0,0-0.4-1.1-0.2-1.6c0,0,0.5,0,0.3-0.4c0,0,0.1-0.4-0.3-0.6c0,0,0.1-0.2,0-0.5c0,0-2.1-3.7-1.8-5.8c0,0,0.1-0.3-0.2-0.3L24.7,26
	c0-0.1,0-0.3,0.2-0.4c0.1,0,0.1-0.1,0.1-0.1c0,0,5.9,2.3,11.2-1c0.1-0.1,0.3-0.1,0.4,0c0.3,0.2,0.9,0.4,0.8,0.9c0,0-0.2,1.3,0.1,1.3
	c0.1,0,0.1,0,0.1-0.1c0.1-0.1,0.2-0.6,0.3-0.8c0-0.2,0.1-0.3,0.3-0.3c0.2-0.1,0.4,0,0.2,1.1c0,0-0.2,0.9,0.3,0.6
	c0.1-0.1,0.2,0,0.2,0.1c0.2,0.5,0.6,2,0.1,3.8c0,0-1.4,4.7-2.1,5.3c0,0-0.5,0.3-0.4,0.7c0,0-1.4,0.9-1.2,1.2c0,0,0.9,1.3,2.7,0
	c0,0,0.6-0.3,1-1.3c0,0,0.3-0.4,0.5-0.1c0,0,0.3,0.1,0.3-0.3c0,0,0.2-0.2,0-0.5l2.9-8c0-0.1,0.2-0.1,0.3,0c0.3,1.1,1.2,4,0.9,6.5
	c0,0-0.5,3.2-0.9,3.7c0,0-0.2,0.4,0,0.6c0,0-0.8,1.1-0.5,1.4c0,0,0.7,1,2.1,0.7c0,0,0.9-0.7,0.8-1.4c0,0-0.2-1.2,0.3-1.8
	c0,0,0.5,0.1,0.2-0.5c0,0-0.7-5.4,0.6-9.3c0,0,0.5-0.5,0-1.1c0,0-1-1.6-0.7-3.3c0,0,0.6-7.2,2.2-11.8c0.1-0.3,0.2-0.5,0.3-0.7
	c0.1-0.2,0.1-0.5-0.4-1.2C47.4,9.6,47.3,9.5,47.2,9.3z M3.9,33.5C3.5,33.2,3.8,33,3.8,33C4.2,33.2,3.9,33.5,3.9,33.5z"/>
</svg>
