<?xml version="1.0" encoding="utf-8"?>
<!-- Generator: Adobe Illustrator 19.1.0, SVG Export Plug-In . SVG Version: 6.00 Build 0)  -->
<svg version="1.1" id="Layer_1" xmlns="http://www.w3.org/2000/svg" xmlns:xlink="http://www.w3.org/1999/xlink" x="0px" y="0px"
	 viewBox="0 0 48 48" style="enable-background:new 0 0 48 48;" xml:space="preserve">
<style type="text/css">
	.st0{fill:#808080;}
</style>
<path class="st0" d="M45.2,16.2c0,0,4.1,1-0.9,0.6l-7.9-1.2c0,0-7.4-1.8-10.7-0.9c0,0-4.9,0.5-1.4,3.6c0,0-6.7-0.6-4.6,5
	c0,0,2,2,10,2.5c0,0,4.6,1.2,4.9,1.7c0,0-2.6,2.6-11.8,1.8c0,0-10.9-1.5-12.2-1.1c0,0-2.5,0.4-2.9,0.7c0,0-8.4,0.9-6.8,3l0.1,0.1
	c0,0-0.6,0.8-0.9,1.1l0.4-0.2c0,0,0.1,0.4,0.2,0.5c0,0,0.1-0.9,0.6-0.9c0,0,0.9,0.7,3.2,0.4c0,0,8.8-1,10.2-0.9c0,0,6.6,1.4,9.6,1.5
	c0,0,9,1.5,14.2-2.3c0,0,4.6-6.3-5.9-8.9c0.3,0,10.3,1.6,6.3-4.5c0,0,9,1,9.3-0.7C48,16.9,48,15.7,45.2,16.2z M4.2,31.3
	c-0.3,0-0.6-0.2-0.6-0.5c0-0.3,0.3-0.5,0.6-0.5c0.3,0,0.6,0.2,0.6,0.5C4.8,31.1,4.5,31.3,4.2,31.3z"/>
</svg>
