<?xml version="1.0" encoding="utf-8"?>
<!-- Generator: Adobe Illustrator 19.1.0, SVG Export Plug-In . SVG Version: 6.00 Build 0)  -->
<svg version="1.1" id="Layer_1" xmlns="http://www.w3.org/2000/svg" xmlns:xlink="http://www.w3.org/1999/xlink" x="0px" y="0px"
	 viewBox="0 0 48 48" style="enable-background:new 0 0 48 48;" xml:space="preserve">
<style type="text/css">
	.st0{fill:#808080;}
</style>
<path class="st0" d="M45.7,13.9c-0.2-0.9-1.1-3.2-4.5-3.7c-0.1,0-0.2,0-0.4-0.1c-0.8-0.2-4.2-0.6-6.9,2.7c-0.1,0.1-0.1,0.2-0.2,0.3
	c-0.1,0.1-0.5,0.5-2.3,0.6l-12.1,0.6c-0.3,0-0.6,0-0.9,0.1c-0.8,0.1-3.3,0.3-7.9-1.4c0,0-8.1-3.7-9.5-3.1c-0.1,0-0.1,0.1-0.1,0.1
	v0.1c0,0,0,0.1-0.1,0.1c-0.2,0-0.6,0-0.8,0.2c0,0,0,0.1,0,0.1c1,0.4,11.1,4.8,13.6,6.7c0.2,0.1,0.3,0.3,0.4,0.5
	c0.2,0.5,0.8,1.4,1.6,1.6c0,0,1.6,2.4,2.5,2.8c0.1,0.1,0.2,0.2,0.2,0.3c-0.1,0.9,0.3,3.8,5.7,7.8c0.2,0.1,0.3,0.3,0.4,0.5
	c0.1,0.3,0.4,0.9,1.5,1.6c0,0,2.1,2.4,2.4,3.4c0,0,0,0.5,0.4,0.5c0,0,0.1,0.3-0.6,0.1c0,0-0.2-0.2-0.5-0.2c0,0-0.2-0.4-1-0.5
	c0,0-2.2-1.1-2.6,1.3c0,0,1.2-1.7,2.2-0.7c0,0-0.6,0.7,0.3,0.8c0,0,1.2,0.1,1.9,0.3c0,0,0.8,0.1,1.1,0c0,0,0,0.2,0.4,0.2
	c0,0,0,0.4,0.6,0.3c0,0,0.1,0.3,0.7,0.3c0,0,0.9-0.2,1.4,0.1c0,0,0.7,0.2,0.4-0.4c0,0,0.5-0.2,1,0.8c0,0,0.3-0.5-0.4-1.1
	c0,0,0.3-0.3,0.6,0.2c0,0,0.5-0.6-1.2-0.7c0,0-0.5-0.1-1,0.2c0,0-0.8,0-1.2-0.5l-1.5-1.5c0,0,0.8-1.1,1.6-0.5c0,0-0.5,0.6,0.3,0.7
	l2.7,0c0,0,0.3-0.1,0.4,0.1c0,0,0.4-0.1,0.5,0.2c0,0,0.4-0.2,0.7,0.2l2.3,0c0,0,0.3-0.1,0-0.4c0,0,0.3-0.3,1.2,0.6
	c0,0,0.3-0.4-0.6-1c0,0,0.5-0.1,0.8,0.2c0,0,0.1-0.6-1-0.5c0,0-1.1,0-1.5,0.3c0,0-0.8,0-1.4-0.4l-1.4-0.9l-2.4-2.1
	c-0.1-0.1-0.1-0.3,0.1-0.3c2.1-0.3,11.6-2.3,12-10.4c0-0.6,0.2-1.2,0.4-1.8c0.4-1,1.2-2.5,1.8-2.5c0,0,1.9,0.1,2.1-0.3c0,0,0,0,0,0
	c0,0,0-0.1,0.1-0.1c0,0,0,0,0,0c0-0.2-0.3-0.7-1.9-1.4C45.9,14.3,45.8,14.1,45.7,13.9z M33.1,34c0,0,0,0.1,0.2,0.1
	c0,0,0.2,0.3-0.5,0.2c0,0-0.3-0.2-0.7-0.1c0,0-0.1-0.2-0.3-0.1c0,0-0.4-0.3-0.6-0.1c0,0-1.4-0.8-2.2,0.7c0,0-2.7-3.3-2.3-3.7
	c0,0,0.4-0.2,0.7,0c0.1,0.1,0.3,0.1,0.4,0.1l2.2,0.1c0.1,0,0.2,0,0.3,0.1C30.9,31.8,32.9,33.7,33.1,34z M40.9,14.7
	c-0.5,0-0.9-0.3-0.9-0.7c0-0.4,0.4-0.7,0.9-0.7c0.5,0,0.9,0.3,0.9,0.7C41.8,14.3,41.4,14.7,40.9,14.7z"/>
</svg>
