<?xml version="1.0" encoding="utf-8"?>
<!-- Generator: Adobe Illustrator 19.1.0, SVG Export Plug-In . SVG Version: 6.00 Build 0)  -->
<svg version="1.1" id="Layer_1" xmlns="http://www.w3.org/2000/svg" xmlns:xlink="http://www.w3.org/1999/xlink" x="0px" y="0px"
	 viewBox="0 0 48 48" style="enable-background:new 0 0 48 48;" xml:space="preserve">
<style type="text/css">
	.st0{fill:#808080;}
</style>
<path class="st0" d="M43.1,7.5c-0.7-0.1-3.5-0.4-5,1.8c0,0-2.4,0.5-2.4,1.5c0,0,0.6,0.7,2.3,0.7c0,0,2,1.2,1.2,2.1
	c0,0-4.2,2.3-6.7,5c-0.7,0.7-1.5,1.4-2.3,1.9c-1.9,1.2-5.3,3.4-7.1,5.2c-0.7,0.7-1.5,1.2-2.5,1.6c-0.4,0.1-0.8,0.3-1.3,0.4
	c0,0-19,6.9-19.3,7.7c0,0,3.1-0.5,3.7-0.7c0,0-1.3,0.9-2.5,1.3c0.1,0,3.3-0.4,4.8-1.1c0.3-0.1,0.5-0.2,0.8-0.3l3.4-1
	c0,0,1.1,0.3,4.3-1.5c0.1-0.1,0.3-0.1,0.4-0.2l5.2-1.9c0.7-0.3,1.5-0.4,2.3-0.4c2.1,0.1,6.2,0.2,7.9,1c0.2,0.1,0.3,0.4,0.2,0.6
	c-0.2,0.4-0.5,1.1-0.1,1.3c0,0-0.1,1,0.4,1.2c0,0,2.5,2.3,4.2,5.3c0,0-0.4,0.2-1,0c0,0-1.4-0.4-1,1.1c0,0,0.3-1,0.7-0.6
	c0,0,0.2,0.7,0.6,0.6l-0.1,0.3c0,0,1-0.9,1.7-0.5c0,0-0.3,0.5,0.5,0.5c0,0,6.6,0.2,7.2-0.3c0,0,0.4,0,0.5,0.4c0,0,0.1-0.2,0-0.5
	c0,0,0.9,0.2,0.7-0.4c0,0,0.7-0.2,1.2,0.5c0,0-0.2-1.3-1.8-1c0,0-0.9,0.3-1.2,0.2c0,0-0.9-0.8-1.5-0.3c0,0-0.7-0.4-1.6-0.3
	c0,0-0.2-0.4-1-0.3c0,0-3.1-2.9-4.1-3.7c-0.2-0.1-0.3-0.4-0.2-0.6c0.1-1,0.7-3.4,4.4-4.9c0,0,5.1-1.4,7-5.6c0,0,1.4-3.5,1.6-6.6
	c0-0.1,0.1-0.2,0.2-0.2l0,0c0.1,0,0.2-0.1,0.2-0.2c0-1.2-0.3-8-4.6-9.2C43.3,7.5,43.2,7.5,43.1,7.5z M42.5,39.5c0.1,0,0.1,0,0.1,0.1
	c0,0-0.1,0.1-0.1,0.1c-0.1,0-0.1,0-0.1-0.1C42.3,39.5,42.4,39.5,42.5,39.5z M41.2,39.4c0,0-0.4,0.4-0.6,0
	C40.6,39.3,40.9,39.1,41.2,39.4z M37.4,38.5c-0.5-0.1-0.5,0.4-0.5,0.4c-1.8-0.4-3.4-3.6-3.4-3.6C33.9,35.5,37.4,38.5,37.4,38.5z
	 M42.7,10.3c-0.4,0-0.7-0.3-0.7-0.6c0-0.3,0.3-0.6,0.7-0.6c0.4,0,0.7,0.3,0.7,0.6C43.4,10,43.1,10.3,42.7,10.3z"/>
</svg>
