<?xml version="1.0" encoding="utf-8"?>
<!-- Generator: Adobe Illustrator 19.1.0, SVG Export Plug-In . SVG Version: 6.00 Build 0)  -->
<svg version="1.1" id="Layer_1" xmlns="http://www.w3.org/2000/svg" xmlns:xlink="http://www.w3.org/1999/xlink" x="0px" y="0px"
	 viewBox="0 0 48 48" style="enable-background:new 0 0 48 48;" xml:space="preserve">
<style type="text/css">
	.st0{fill:#808080;}
</style>
<path class="st0" d="M46.2,5.9c0.1-0.4,0.1-1.2-0.5-1.8c-0.1-0.1-0.1-0.2-0.1-0.3c0.1-0.9,0-4.5-4.6-3.7c0,0-2.5,0.5-4.4,6.1
	c0,0-4.4,9.4-8.3,12.2c-0.2,0.2-0.4,0.3-0.6,0.5c-1.6,1.3-7.8,6.5-12.2,8.9c-0.2,0.1-0.4,0.2-0.6,0.3c-1,0.4-4.2,1.9-5.1,2.7
	C9.5,30.8,9.3,31,9.1,31l-2.5,0.8c-0.2,0.1-0.4,0.1-0.7,0.1c-0.7,0-2.7,0.2-3.6,2.9c0,0.1,0,0.2,0.1,0.1c0.4-0.2,1.5-0.6,2.2-0.4
	c0.1,0,0.1,0.1,0,0.1c-0.7,0.2-2.7,1.1-2.5,2.8c0,0.2,0.2,0.3,0.3,0.2c1.2-0.4,6.3-1.8,7.5-1.6c0.1,0,0.1,0.1,0,0.1
	c-1.2,0.7-8.9,5-8.7,7.1c0,0,0.3,2.3,1,0.6c0.3-0.7,0.8-1.2,1.5-1.6c0.3-0.2,0.6-0.3,0.9-0.3c0,0,1.8-0.6,2.4-1.3
	c0.1-0.1,0.2-0.1,0.3-0.2l0.8-0.2c0.1,0,0.2,0.1,0.1,0.2l-2.6,1.4c-0.1,0.1-0.2,0.2-0.2,0.4c0.1,0.2,0.2,0.3,0.6,0
	c0,0,5.3-3.3,7.7-3.2c0.2,0,0.4,0.1,0.5,0.3c0.3,0.4,1.2,1.3,3.9,0.1c0.3-0.1,0.7-0.2,1-0.1c0.9,0.2,3,0.5,5.1,0.1
	c0.2,0,0.4,0.2,0.3,0.4c-0.3,0.8-0.5,2.5,1.9,4.1c0,0,2.3,1.9,1.7,2.2c0,0-3.3-0.5-3.4,1.1c0,0,0.6-0.6,0.9-0.2
	c0.1,0.1,0.2,0.2,0.4,0.2l4,0.1c0,0-0.2,0.3-0.1,0.6c0,0,0.8-0.5,0.9-0.4c0,0,0.5,1.1,2.6,0.2c0,0,0.6-0.3,0.9,0.1
	c0,0,1,0.4,1.5-0.1c0,0,0.3-0.1,0.6,0.3c3.3,0.3,4-0.2,4-0.2c0.5,0,2.2,0.1,1.6-0.7c0,0,0.4-0.3,0.7,0.2c0-0.1-0.3-1.5-1.5-0.8
	c0,0-0.7,0.3-2,0.2c0,0-2.3,0.1-3.1-0.6l-3.1-2.6c0,0-0.9-0.5,0.2-3.4l1-3.4c0.3-1.1,0.9-2,1.8-2.6c2.8-2,8.9-7.4,7.4-14.7
	c0,0-1.5-5-0.6-10.4c0,0-0.2-3.3,2.1-1.8c0,0,1.4,1,1.5,1.2c0,0,0.6-1.2-0.2-2C46.3,6.2,46.2,6.1,46.2,5.9z M33.3,46.3
	c0,0-2.5-0.1-3.3-0.9l-2.1-2c0,0-0.6-2.1,0.8-1.8c0,0,0.6,1.5,2,2.3C30.6,43.9,34,45.9,33.3,46.3z M41.6,3.3c-0.3,0-0.6-0.3-0.6-0.7
	c0-0.4,0.3-0.7,0.6-0.7s0.6,0.3,0.6,0.7C42.2,3,41.9,3.3,41.6,3.3z"/>
</svg>
