<?xml version="1.0" encoding="utf-8"?>
<!-- Generator: Adobe Illustrator 19.1.0, SVG Export Plug-In . SVG Version: 6.00 Build 0)  -->
<svg version="1.1" id="Layer_1" xmlns="http://www.w3.org/2000/svg" xmlns:xlink="http://www.w3.org/1999/xlink" x="0px" y="0px"
	 viewBox="0 0 48 48" style="enable-background:new 0 0 48 48;" xml:space="preserve">
<style type="text/css">
	.st0{fill:#808080;}
</style>
<path class="st0" d="M48,19.7c0,0,0.7-2.3-3.2-2.1c-0.3,0-0.5,0-0.8-0.1c-0.5-0.2-1.6-0.6-2.9-0.4c-0.1,0-0.2,0-0.3,0
	c-0.7-0.1-3.2-0.6-5.8-0.1c0,0-4.5,0.8-5.8,0.6c-0.2,0-0.3-0.1-0.4-0.3c-0.4-0.8-2.3-4-6.4-6.2c0,0-0.5,0,0.1,1.3c0,0,1.6,3.4,1.3,5
	c0,0,0,0.3,0.3,0.4c0,0,0.8,0.3,0.2,0.7c0,0-9.8,3.4-10.5,3.5c0,0-0.2,0.1-0.4-0.1c0,0-2-2-2.9-1.6c0,0-0.3,0.2,0.1,0.9
	c0,0,0.4,1,0.6,1.1c0,0-0.3,0.5,0.1,0.7c0,0,0.3,0.2-0.5,0.4c0,0-2.4,0.6-3.2,0.6c-0.1,0-0.3-0.1-0.3-0.2c-0.5-0.9-3.1-5.3-6.8-6.7
	c-0.2-0.1-0.3,0-0.4,0.2c-0.1,0.3,0,0.7,0.5,1.2c0,0,0.7,0.7,0.7,1.7c0,0,0,0.5,0.8,0.9c0.1,0.1,0.2,0.1,0.2,0.2
	C2.9,22,6,26.8,4.1,30.2c0,0-0.8,2,0.5,1.4c0,0,1.1-0.4,1.6-1.8c0,0,0.8-2.1,1.4-3c0.2-0.3,0.6-0.4,0.9-0.3c0.6,0.2,1.7,0.6,1.7,0.8
	L10,28.7c0,0,0.1,0.4,0.8,0c0,0,1.4-0.8,2-1c0.1,0,0.2-0.1,0.4,0l1.6,0.2c0.2,0,0.4,0.2,0.4,0.4c0,0.3,0,0.8-0.5,1
	c0,0-0.2,1.6,0.3,1.3l2-1.6c0.2-0.1,0.4-0.1,0.5,0.1c0.1,0.4,0.3,0.8,0.5,0.7l0.8-0.8c0.1-0.1,0.3-0.2,0.4-0.1
	c0.3,0.1,1,0.3,2.2,0.9c0,0,3.7,1.6,6.1,1.3l-1.3,3.4c0,0-0.8,1.5-0.6,2.2c0.1,0.2,0.3,0.3,0.5,0.2c0.5-0.3,1.8-1.2,2.1-1.6
	c0,0,3.3-2.9,4.4-4.5c0.1-0.2,0.3-0.3,0.5-0.3c0.7,0,2-0.1,2.6-0.2c0.2,0,0.3,0,0.4,0.1c0.5,0.6,1.7,2,2.3,1.6c0,0,0.6,0-0.3-2.3
	c0,0,3.2-1,5.9-3.6c0,0,2.4-1.2,1.8-2.5l0,0c0-0.4,0.1-0.7,0.4-1C46.7,21.7,47.8,20.2,48,19.7z M37.7,19.8c0,0,0.7-0.5,1.3,0.2
	C39,20,37.9,21,37.7,19.8z"/>
</svg>
