<?xml version="1.0" encoding="utf-8"?>
<!-- Generator: Adobe Illustrator 19.1.0, SVG Export Plug-In . SVG Version: 6.00 Build 0)  -->
<svg version="1.1" id="Layer_1" xmlns="http://www.w3.org/2000/svg" xmlns:xlink="http://www.w3.org/1999/xlink" x="0px" y="0px"
	 viewBox="0 0 48 48" style="enable-background:new 0 0 48 48;" xml:space="preserve">
<style type="text/css">
	.st0{fill:#808080;}
</style>
<path class="st0" d="M47.9,18.5c0,0,0-0.4-0.4-0.6c0,0-0.5-0.4-1.1-1.6c0,0-0.6-1.1-0.9-1.6c-0.1-0.1-0.1-0.3,0-0.4
	c0.1-0.4,0.3-1.1,0-1.6l-1.3-1.3c-0.1-0.1-0.1-0.3-0.1-0.4c0.1-0.3,0.2-1,0.1-1.6c0,0,0,0-0.1,0c0,0-0.1,0.1-0.1,0.2
	c0,0,0,0.1,0,0.1L43.5,10c0,0-0.1,0-0.1,0c0-0.2-0.2-0.8-0.8-0.6c0,0-0.1,0-0.2,0c-0.2,0-0.8-0.1-1.2,0.6c-0.1,0.1-0.1,0.2-0.2,0.2
	c-0.3,0.2-0.9,0.6-2,0.5c-0.1,0-0.2-0.1-0.3-0.1c-0.3-0.2-1-0.7-2-0.3c-0.1,0.1-0.3,0.1-0.5,0c-1.2-0.3-5.9-1.7-7.7-1.6
	c0,0-4.1,0.3-5.6,0c-0.2,0-0.5,0-0.7,0c-0.4,0-1.1,0.1-1.8,0.3C20.3,9,20.1,9,19.8,9c-1.2,0-4.8,0-6-0.1c-0.1,0-0.3-0.1-0.4-0.1
	c-0.1-0.1-0.4-0.1-0.8-0.1c-0.1,0-0.3,0-0.4,0c-1.2-0.2-7.1-0.9-8.6-0.1c-0.1,0-0.1,0.1-0.2,0.1C2.9,9,1.1,9.9,0.9,12.5
	c0,0-0.2,6.2,0.2,9.5c0,0.3,0,0.7,0,1c0,0.7-0.1,1.6-0.4,2.1c0,0-0.6,1-0.4,1.6c0,0-0.4,0.7-0.1,1.4c0,0-0.3,0.8,0.2,1.4
	c0,0,0,1.3,0.5,1.6c0,0,0.2,1.5,0.5,1.9c0,0,0.2,0.3,0,0.7c0,0-0.1,0.9,0.6,0.9c0,0,0.1-0.6,0.2-0.7c0,0,0.2-0.9-0.2-1.2
	c0,0,0.4-0.5-0.1-1.2l-0.1-0.3c0,0,0.6-0.2,0.5-1c0,0,0-0.5-0.2-0.8c0,0,0.4-1.5,0.1-2.7c0,0-0.6-4.1-0.5-4.5c0,0-0.1-8.6,0.2-9.2
	c0,0,0.2,0,0.4,1.2L3,19.2c0,0,0.1,1.6,0.9,3.1c0,0,0.5,3.3-1,5.2c0,0-0.5,0.4,0.1,1.8c0,0,0.4,7,0.1,7.7c0,0,0,0,0,0
	c-0.1,0.1-0.7,1.2,0.4,0.8c0.1-0.1,0.3,0,0.3,0.1c0.1,0.3,0.3,0.7,0.2,1.3c0,0-0.1,0.6,1.3,0.6c0,0,2.6,0.1,1.9-0.5c0,0-1-1-1.2-1.1
	c0,0,0-0.5-0.3-0.6c-0.1-0.1-0.2-0.2-0.3-0.3c-0.3-0.9-1.1-4.3,0.5-7.6c0,0,0.1,0,0.1,0c0.3,0.8,1.7,4.7,2,5.9c0,0.1,0,0.3,0,0.4
	c-0.1,0.3-0.1,0.8,0.2,0.8c0,0,0.2,0.6,0.6,0.3c0.1,0,0.1,0,0.2,0.1c0.1,0.3,0.5,1.1,1.3,1.1c0,0,2.8,0,2-0.6l-1.2-0.8
	c-0.1,0-0.1-0.1-0.1-0.2c0-0.2-0.1-0.5-0.5-0.6c-0.1,0-0.2-0.1-0.3-0.2C10,34.9,8.5,32.1,8.9,30c0-0.2,0.1-0.5,0.1-0.7
	c0-0.6,0.1-1.7,0.3-2.1c0,0,0.3,0,0.3-0.7c0,0,0-0.1,0.1,0l0.1,0c0,0-0.1,1,0.3,1c0,0,0.3,0.1,0.3-0.7c0-0.2,0.1-0.3,0.2-0.4
	c0.5-0.3,1.6-1,1.9-0.8c0,0,0,0,0,0c0.4,0.1,3.6,1.4,4.1,1.6c0,0,0.4,0.1,0.7,0c0.1,0,0.1,0,0.2,0c0.2,0,0.6,0,0.9-0.2
	c0.1-0.1,0.2-0.1,0.3-0.1c0.8-0.1,4.1-0.3,6.5-1.1c0.2-0.1,0.5-0.1,0.8-0.1c0.5,0,1.3,0.1,2.1,0.4c0,0,0.2,0.8,0,1.4
	c0,0,0.2,1.7,0.2,2.4c0,0.2,0,0.3,0,0.5c0.1,0.3,0.2,0.8,0.2,1.1c0,0-0.1,3.2-0.3,3.7c0,0-0.2,0.6,0.1,0.7c0,0-0.5,1-0.1,1.1
	c0,0,0.1,0.3,0.5-0.2c0,0,0,0.8-0.1,1c0,0,0,0.3,0.6,0.7c0,0,0.3,0.5,2.2,0.3c0,0,0.5-0.1,0.5-0.3c0,0,0.7,0,0.2-0.3
	c0,0,1.1,0,1.1-0.4c0,0,0.2-0.1-0.2-0.3c0,0-1.2-0.6-1.3-0.9c0,0,0-0.4-0.4-0.6c0,0-0.3-0.3-0.3-0.9c0-0.2,0-0.4-0.1-0.6
	c-0.2-0.7-0.5-2.3-0.1-3c0,0,0.6-1.3,0.5-2.9c0-0.3,0-0.6,0.1-0.9l0.1-0.3c0-0.1,0.1-0.1,0.2-0.1c0.7,0.3,3.6,1.3,6.5-5.8
	c0,0,0.5-2.2,3.4-1.3c0.1,0,0.3,0.1,0.5,0.1c0.4,0,1.2,0,2.3-0.2c0.3-0.1,0.7,0,1,0.2c0.1,0.1,0.2,0.1,0.2,0.2c0,0,1.3,0.1,1.6-0.2
	c0,0,0.6,0,0.8-0.5c0-0.1,0-0.1,0.1-0.2C47.9,19.2,48.2,18.7,47.9,18.5z M0.2,28c-0.2-0.4,0-1.1,0-1.1C0.6,27.6,0.2,28,0.2,28z
	 M0.5,29.6C0.6,29.7,0.7,31,0.7,31C0.2,30.6,0.5,29.6,0.5,29.6z M0.8,30.6c-0.3-1.1,0-2,0-2c-0.1,0.4,0.1,0.7,0.1,0.7
	C1,29.6,1,30.1,1,30.1L0.8,30.6z M1.3,32.7C0.8,32.1,1,31.4,1,31.4C1.5,31.8,1.3,32.7,1.3,32.7z M1.6,29.3C1.9,29.4,2,30.2,2,30.2
	c0.2,0.8-0.3,1-0.3,1C1.6,31.2,1.6,29.3,1.6,29.3z M1.5,34l0.1-0.7c0.2-0.2,0.2,0.3,0.2,0.3l0,1C1.5,34.4,1.5,34,1.5,34z M42,13.8
	c0,0,1-0.4,0.9,0.5C42.9,14.3,41.9,14.8,42,13.8z"/>
</svg>
