<?xml version="1.0" encoding="utf-8"?>
<!-- Generator: Adobe Illustrator 19.1.0, SVG Export Plug-In . SVG Version: 6.00 Build 0)  -->
<svg version="1.1" id="Layer_1" xmlns="http://www.w3.org/2000/svg" xmlns:xlink="http://www.w3.org/1999/xlink" x="0px" y="0px"
	 viewBox="0 0 48 48" style="enable-background:new 0 0 48 48;" xml:space="preserve">
<style type="text/css">
	.st0{fill:#808080;}
</style>
<path class="st0" d="M47.9,24.2c0,0-0.6-1.1-0.8-1.9c0,0-1-1.9-1-2.5c0,0,0.4-1.3-0.9-2.4c0,0-0.3-0.4-0.4-0.9c0-0.1,0-0.2,0-0.2
	c0,0.1,0,0.2,0,0.2s-0.7-1.8-1.9-0.9c-0.1,0-0.1,0.1-0.1,0.2c0,0.2-0.2,0.5-1,0.4c0,0-2.3-0.3-3.6-0.9c0,0-2.8-1.1-3.6-1.3
	c0,0-0.9-1.2-2.2-1.8c0,0-0.2-0.3-3.3-1.1c0,0-0.3-0.4-2.8-0.3c-0.1,0-0.2,0-0.4,0c-0.9-0.1-5.1-0.3-6.5-0.1c-0.2,0-0.3,0.1-0.5,0.1
	c-0.9,0.1-3.7,0.3-4.6,0.5c-0.2,0-0.4,0.1-0.6,0.1c-0.9,0.1-2.9,0.3-5-0.3c0,0-0.2-0.1-0.8-0.1c-0.3,0-0.6,0-0.9-0.1
	c-0.8-0.2-2.7-0.3-4.2,0.8c0,0-0.6,0.5-0.9,1c-0.1,0.2-0.3,0.4-0.4,0.6c-0.2,0.3-0.5,0.8-0.5,1.7c0,0-0.3,5.4,0.1,7.7
	c0,0.3,0.1,0.7,0.1,1c0,0.7,0,1.7-0.1,2.1c0,0.1-0.1,0.2-0.2,0.3c-0.3,0.2-0.9,0.6-0.7,1.2c0,0,0.4,1.7,0.4,3.1c0,0,0.1,2.1,0,3.1
	c0,0.3-0.2,0.5-0.4,0.7c-0.3,0.2-0.6,0.5,0.2,0.6c0,0-0.1,0.3-0.5,0.6c0,0-0.3,0.4,0.3,0.9c0,0,0.1,1.5,0.8,1.4c0,0,0.7-0.2,0.7-0.7
	c0,0,1.1-2.7,0.9-3.6c0,0,0-0.3-0.2-0.7c0,0-0.1-2.2,0.3-2.7c0,0,0.1,0.4,0.2,0.4c0,0,0.2-0.6,0-0.8l0.2-0.5c0,0,0.2,0.2,0.2,0.4
	c0,0,0.1-0.4-0.1-0.6c0,0,0.1-0.4,0.2-0.1c0,0,1.6,5.7,1.6,6.8c0,0-0.5,1.2,0.2,0.7c0,0,0.2,0,0.3,0.3c0,0,0.8-0.2,1.2,0.1
	c0,0,1.2-0.4,0.9-0.6c0,0-1-0.7-1.2-1.7c0,0-1.3-2.4,0.4-5.9c0,0,0.2-0.1,0.4,0.7c0,0,0.1,0.3,0.3,0.1c0,0,0.2,0.1,0.3-0.2l0-0.6
	c0,0,0.4-0.3,0.5-0.1c0,0,0.4,0.9,0.5,0.4l0-0.7c0,0,0.4-0.1,0.4,0.2c0,0,0.1,0.8,0.4,0.8c0,0,0.4-0.1,0.1-1c0,0,0.3-0.7,1-1.1
	c0.2-0.1,0.4-0.3,0.5-0.5c0,0,0,0,0,0c0.1-0.1,0.3-0.2,0.4-0.1c0.5,0.2,1.3,0.5,2,0.2c0,0,1.4,1,2.8,0.4c0,0,5-1.9,7-0.9
	c0.2,0.1,0.3,0.3,0.3,0.5c0.1,0.6,0.2,2.1,0.2,3c0,0.3,0.1,0.7,0.2,1c0.1,0.3,0.3,0.8,0.2,1.3c0,0-0.2,3,0,3.1c0,0-0.3,0.6-0.1,0.7
	c0,0,0.8,0.3,1,0.9c0,0.1,0.1,0.2,0.3,0.2c0.2,0,0.6,0.1,0.9-0.1c0,0,1.3,0,0.8-0.4c0,0-0.1-0.7-1.3-1.3c0,0,0.2,0,0.1-0.5
	c0,0-0.8-1.9-0.3-3.2c0,0,0.9-1.9,0.8-3.5c0,0,1.1,0.5,1.7,0.6c0,0,0.8,2.7,0,4.7c0,0-0.7,0.1-0.6,0.7c0,0-0.1,0.5,0.7,0.3
	c0,0-0.9,1.1-0.1,1.6c0,0,1.8,0.9,1.6,0.5c0,0-0.5-1.6-0.1-2.6c0,0-0.2-2.8,0.2-3.7c0,0,0.5-0.6,0.5-1.4c0,0,0.4,0.3,1.3-1.1
	c0.2-0.3,0.4-0.6,0.7-0.8c1.4-1,5.4-3.7,8-1.9c0.4,0.2,0.8,0.3,1.3,0.2c0,0,0,0,0,0c0.1,0,0.1,0,0.2,0c0.3,0.2,1.5,0.9,1.9,0.6
	c0,0,0.5,0,0.6,0.3c0,0-0.1,0.5,1.6,0.4C46.6,25.8,48.5,25.7,47.9,24.2z M2.2,24.7c-0.7-1-0.3-7.6-0.3-7.6L2.7,22
	C3,24.1,2.2,24.7,2.2,24.7z M43.6,19.5c0,0,0.5-0.4,0.8,0.2C44.4,19.7,43.7,20,43.6,19.5z"/>
</svg>
