<?xml version="1.0" encoding="utf-8"?>
<!-- Generator: Adobe Illustrator 19.1.0, SVG Export Plug-In . SVG Version: 6.00 Build 0)  -->
<svg version="1.1" id="Layer_1" xmlns="http://www.w3.org/2000/svg" xmlns:xlink="http://www.w3.org/1999/xlink" x="0px" y="0px"
	 viewBox="0 0 48 48" style="enable-background:new 0 0 48 48;" xml:space="preserve">
<style type="text/css">
	.st0{fill:#808080;}
</style>
<path class="st0" d="M47.7,12.7c0,0-0.6-0.9-1.4-1.4c0,0-1.4-1.4-1.3-2.1c0,0,0.5-1.3-1.7-3.3c0,0,0.8-2.7-1.3-1.4c0,0-0.1,0-0.1,0
	c-0.2-0.3-1.4-1.1-2.7,0c0,0-0.1,0-0.1,0.1l-1.4,1c-0.1,0-0.2,0-0.2,0c-0.2-0.4-1-1.6-2.5-1.1c0,0-1.1,0-0.8,1.2l0.3,1.2
	c0,0-1.9,1.3-5.6,1.4c0,0-2,0.1-3.1,0c-0.2,0-0.3,0-0.5,0c-0.7,0-2.6,0.1-3.7,0.1c0,0-3.6,0.1-5.5,0c-0.4,0-0.8-0.1-1.3,0
	c-0.7,0-2,0-3.2-0.1c-0.3,0-0.5,0-0.8,0C9.8,8.1,7.1,8.1,5.5,8c0,0-1.8-0.1-3.4,1.4c0,0-2,1.7-2.1,3.2c0,0-0.1,2.8,0.5,4.6
	c0.1,0.3,0.2,0.6,0.2,0.9c0.1,0.7,0.4,2,0.6,2.8c0.1,0.3,0.2,0.7,0.2,1c0,0.5,0.2,1.3,1,1.7c0.1,0,0.2,0,0.2-0.1c0-0.5,0.1-1.7,0-2
	c0,0,0-0.1,0-0.1c-0.2-0.6-1.3-4.1-0.8-3.4c0,0,0.1,0.4,0.3,0.6c0,0,0.1,0.1,0.1,0.2c0,0.3,0.2,1.3,0.6,2c0.1,0.2,0.2,0.4,0.3,0.6
	c0.2,0.6,0.5,2.1,0.4,4c0,0.4-0.1,0.7-0.2,1.1C2.9,27,2.4,28.3,1.9,29c0,0-0.5,1.3,0,1.9c0.2,0.3,0.4,0.6,0.5,1
	c0.4,1.6,1.4,5.7,1.5,9.6c0,0,0,0.9,0.4,0.6c0,0,0.4,0.4,0.5,1.1c0,0,0,0.6,0.7,0.8c0,0,1.8,0.1,1.9-0.1c0,0,0.3-0.3,0.1-0.6
	c0,0-0.4-0.9-0.4-1c0,0,0.1-0.3-0.4-1c0,0-0.1-1.8-0.5-2.8c-0.1-0.3-0.2-0.6-0.2-0.9c0-1-0.1-2.9,0.2-2.3c0,0,1.1,3,1.2,3.4
	c0,0,0.3,1,0.8,0.8c0,0,0.7,0.7,1,1.5c0,0,0.2,0.3,1.5,0.2c0,0,1.5-0.2,1.1-0.9c0,0-0.8-0.6-1.2-1.2c0,0-4.7-8-1.2-13.1l1.4-2
	c0.1-0.2,0.3-0.3,0.5-0.2c1.3,0.3,6.3,1.2,13,0.5c0.5,0,0.9,0.2,1.1,0.7c0.1,0.3,0.2,0.7,0.3,1.2c0,0,1.5,5.4,1,7.8
	c0,0-0.3,3.2,0.3,3.4c0,0,0.6,0.2,0.3,1.1c0,0,0.4,0.7,0.8,0.5c0,0,0.2,0.7,1.6,0.4c0,0,1-0.4,0.5-0.7c0,0-2.4-3.4-1.4-7.3l-0.1-0.8
	c0,0,0.4,0.9,0.6,1c0,0,0.5,0.8,0.6,2.2l1.1,5.6c0,0,0,0.3,0.4,0.1c0,0,0.5,0.6,0.4,1c0,0-0.2,0.5,0.5,0.8c0,0,0.7,1,2.2,0.7
	c0,0,1-0.3,0.5-0.8c0,0-1.1-1.6-1.5-1.9c0,0-0.6-0.6-0.6-1.9c0,0-1.3-3.8-0.7-5.4c0,0,0.2-1.8-0.2-3.5c0,0-0.5-3,0-3.5
	c0,0,0.1-0.1,0.1-0.1c0.3,0,1.7-0.3,3.9-2.5c0,0,3-2.6,4.1-6.6c0.1-0.5,0.7-0.7,1.1-0.4c0,0,0,0,0,0c0,0,4.1,1,6.2-0.6
	c0,0,0-0.2,0.3-0.5C47.5,14.2,48.4,13.3,47.7,12.7z M41.2,9.7c-0.4,0-0.7-0.2-0.7-0.5c0-0.3,0.3-0.5,0.7-0.5s0.7,0.2,0.7,0.5
	C41.9,9.5,41.6,9.7,41.2,9.7z"/>
</svg>
