<?xml version="1.0" encoding="utf-8"?>
<!-- Generator: Adobe Illustrator 19.1.0, SVG Export Plug-In . SVG Version: 6.00 Build 0)  -->
<svg version="1.1" id="Layer_1" xmlns="http://www.w3.org/2000/svg" xmlns:xlink="http://www.w3.org/1999/xlink" x="0px" y="0px"
	 viewBox="0 0 48 48" style="enable-background:new 0 0 48 48;" xml:space="preserve">
<style type="text/css">
	.st0{fill:#808080;}
</style>
<path class="st0" d="M47.7,35.8L47.1,35c-0.2-0.2-0.3-0.5-0.3-0.8c0-0.8,0-2.5,0.2-2.8c0,0,0.3-0.2,0.1-1.4c-0.1-0.4,0-0.8,0.1-1.2
	c0.3-1.1,0.8-3.4,0.4-3.8c0,0,0.2-0.3-1.1-0.7c-0.2-0.1-0.3-0.3-0.2-0.4c0-0.1,0.1-0.1,0.1-0.2c0,0,0.1-0.2-0.1-0.4
	c-0.1,0-0.1-0.1,0-0.2c0.1-0.1,0.1-0.3-0.2-0.5c-0.1,0-0.1-0.1-0.1-0.2c0.1-0.1,0.1-0.3-0.1-0.6c-0.1-0.1-0.1-0.2-0.1-0.3
	c0-0.3,0.1-0.8-0.2-1.1c-0.1-0.2-0.2-0.5-0.2-0.7c0.2-1.3,0.6-5.1,0.3-6.8c0-0.2-0.1-0.4-0.1-0.5c0-0.8-0.7-3.4-3.3-3.4
	c-0.3,0-0.6,0-0.9-0.1c-0.8-0.1-2.5-0.3-4.2,0.1c0,0-9.7,0.8-11.6,0.8c-0.1,0-0.2,0-0.3,0c-0.3-0.1-1.4-0.4-1.7,0
	C23.4,9.8,23.2,10,23,10c-1.4,0.3-5.3,1-7,1.7c-0.4,0.2-0.9,0.3-1.4,0.4c-1.8,0.4-6,1.1-7.7,1c-0.4,0-0.6-0.3-0.7-0.7
	c-0.1-0.7-0.3-1.9-1.1-1.8c-0.2,0-0.3,0.1-0.4,0.2c-0.2,0.2-0.6,0.7-0.6,1.5c0,0.3-0.1,0.6-0.3,0.8c-0.7,0.8-2.3,2.7-2.1,4.4
	c0.1,0.3,0,0.7-0.1,1c-0.3,0.6-0.7,1.6-1.3,2.3c-0.3,0.3-0.4,0.7-0.3,1.1c0.1,0.4,0.3,0.8,0.9,0.8c0.1,0,0.2,0.1,0.3,0.2
	c0.1,0.2,0.2,0.3,0.5,0.3c0,0,0.5,0.5,1.2,0.1c0,0,1.1-0.3,1.2-0.6c0,0,0.1-0.1,0.1-0.1c0.2,0,0.8,0,1.5-0.5c0,0,2.3-1.8,2.9-1.4
	c0,0,3.7,1.2,4.7,3c0.1,0.2,0.3,0.3,0.5,0.4c0.3,0.1,0.7,0.3,0.6,0.7c0,0-0.9,1.9-2,3.2c0,0-0.4,0.5-0.3,0.9c0,0-0.6,0.5-0.7,1.3
	c-0.1,0.6-0.3,1.2-0.6,1.7c-0.4,0.8-1.1,1.8-1.8,2.6c0,0-0.5,0.7-0.4,1.3c0,0-0.8,1.9-0.9,2.1c0,0-1.1,1.4-0.2,1.3c0,0,2,0.2,2.3-1
	c0,0-0.1-1.7,0.2-1.9c0,0,0.8-0.7,1.1-2.2c0,0,4.6-9,9.5-8.9c0.1,0,0.2,0.1,0.2,0.2c0.2,0.6,0.7,2.3,0.3,3.6c0,0-0.3,2.1,0.7,3.3
	c0.1,0.2,0.2,0.4,0.3,0.7c0.1,0.8,0.3,2.5-0.3,4.3c0,0-0.9,1.7-0.1,1.5c0,0,2.4-0.1,2.4-1.5c0,0-0.7-4.8-0.5-5.2
	c0,0,0.6-0.9,0.3-3.6c0,0,0.3-2.8,0.7-4c0.1-0.2,0.4-0.4,0.6-0.3c1.5,0.5,7.3,2.1,10.8-1.2c0.2-0.2,0.4-0.1,0.6,0.1
	c0.6,1.1,2.1,4.2,2.2,6.3c0,0,0,4.1-1,5.4c0,0-0.3,1.4-1.1,2.5c0,0-0.1,0.4,0.6,0.4c0,0,1.7,0.4,1.9-0.8c0,0,0.7-1.6,0.9-2.9
	c0.1-0.7,0.3-1.5,0.7-2.2c0.6-1.4,1.6-3.7,1.9-4.9c0-0.2,0.3-0.2,0.4-0.1c0.5,0.4,1.4,1.7,1.8,4.8c0.1,0.8,0.1,1.6,0,2.3
	c-0.1,0.8-0.2,1.9,0.1,2.1c0,0,0.9,1.2,1.2,2.3c0.1,0.3,0.5,0.4,0.7,0.1c0,0,0.1-0.2,0.1-0.2C47.1,38.1,48.6,36.8,47.7,35.8z
	 M3.8,18.2C3.2,17.1,5,17.2,5,17.2C4.4,19.1,3.8,18.2,3.8,18.2z M44.7,16.5l-0.6,5.7c-0.5-0.8-0.2-2.7-0.2-2.7
	C43.6,19,44,16.4,44,16.4c0.3-0.7,0.3-2.8,0.3-2.8c0.1-1.8-0.8-2.1-0.8-2.1c-0.5-0.3,0-0.7,0-0.7C45.1,11,44.7,16.5,44.7,16.5z"/>
</svg>
