<?xml version="1.0" encoding="utf-8"?>
<!-- Generator: Adobe Illustrator 19.1.0, SVG Export Plug-In . SVG Version: 6.00 Build 0)  -->
<svg version="1.1" id="Layer_1" xmlns="http://www.w3.org/2000/svg" xmlns:xlink="http://www.w3.org/1999/xlink" x="0px" y="0px"
	 viewBox="0 0 48 48" style="enable-background:new 0 0 48 48;" xml:space="preserve">
<style type="text/css">
	.st0{fill:#808080;}
</style>
<path class="st0" d="M47.7,19.8c-0.4-0.1-1.4-0.2-2.6,0c0,0,2-0.8,2.6-1.2c0.1-0.1,0.2-0.2,0.2-0.4c0-0.3-0.2-0.9-1.2-1.2
	c0,0-3-1.3-4.1-1.2c-0.2,0-0.3,0-0.5,0c-0.4-0.1-1.1-0.2-1.5-0.1c0,0-0.8-0.4-1.3-0.1c-0.2,0.1-0.4,0.2-0.6,0.2
	c-2.2,0.3-13,2-16.2,2.4c-0.5,0.1-0.9,0-1.3-0.2c-1-0.5-3.2-1.4-5.3-1.3c0,0-0.5,0.1-0.1,0.4c0.1,0,0.1,0.1,0.1,0.2
	c0,0.1,0,0.2,0.2,0.2c0.1,0,0.2,0,0.2,0.1l1.6,0.8c0,0,0,0.1,0,0.1h-1c-0.2,0-0.3,0-0.5-0.1c-1.1-0.6-6.5-3.4-8.2-2.8
	C8.1,15.6,8,15.8,8,16.1c0,0.2,0.1,0.4,0.4,0.7c0.1,0.1,0.1,0.2,0.2,0.2c0.3,0.4,1,1.8,1.8,2.2c0.1,0.1,0.1,0.2,0,0.2
	c-0.4,0.1-1.3,0.3-2.2,0.2c-0.5,0-1-0.2-1.4-0.4c-1.3-0.8-4.7-2.9-6.1-2.9c-0.3,0-0.6,0.3-0.6,0.6c0,0.2,0.2,0.5,0.4,0.7
	c0.2,0.2,0.4,0.4,0.5,0.6c0.3,0.6,0.9,1.5,1.2,1.9c0.1,0.1,0.1,0.2,0.1,0.4c0,0.2,0.1,0.5,0.5,0.7c0.1,0,0.1,0.1,0.1,0.2
	c0,0.2-0.1,0.6,0.2,0.8c0.1,0.1,0.2,0.2,0.2,0.3C3.4,22.9,3.8,24,4.4,24c0,0,0,0,0,0c0.3,0,3.2,0.3,5.1-0.2c0.2,0,0.3,0,0.5,0
	l0.7,0.3c0.1,0,0.1,0.2,0,0.2c-0.6,0.1-1.9,0.4-2.3,0.6c-0.1,0-0.2,0-0.3,0c-0.2,0-0.5,0-0.6,0.1c-0.1,0.1-0.2,0.1-0.2,0.1
	c-0.2,0-0.5,0-0.6,0.2c0,0-1.1,0.3-0.4,0.6c0.1,0,0.1,0.1,0.2,0.1c0.2,0.1,0.7,0.4,2,0.3c0,0,3.9-0.4,4.9-0.6c0.1,0,0.3,0,0.4,0.1
	c0.5,0.3,1.6,0.8,3.3,0.7c0,0,0,0,0,0c-0.6,0.2-3.5,1.2,0.9,1.3c0,0,0.1,0.1,0,0.1c-0.5,0.4-2.5,2.1-3,2.3c-0.1,0-0.1,0.1-0.1,0.1
	c-0.1,0.1-0.1,0.3,0.7,0.1c0,0,2.4-0.5,4.3-2.7c0,0,0.5-0.6,0.9-0.9c0.2-0.1,0.4-0.1,0.5-0.1c0.9,0.3,5.6,1.4,14.8-1.4
	c0.1,0,0.1,0,0.1,0.1c-0.5,0.9-2.8,5.5-2.9,6.6c0,0.1,0.1,0.2,0.2,0.2c0.2,0,0.4,0,0.6-0.3c0,0,3.6-4.2,3.7-6.9c0,0,0.1-0.7,0.6-0.8
	l1.8-0.7c0.2-0.1,0.5,0,0.7,0.2c0.2,0.3,0.7,0.6,1,0.8c0.2,0.1,0.3,0.1,0.2-0.2c-0.1-0.2-0.1-0.7-0.2-1c-0.1-0.2,0-0.4,0.2-0.5
	c0.5-0.3,1.6-0.9,2-1c0,0,2.2-0.4,3.1-1.1c0,0,1-0.4,0.8-1.1C48,19.9,47.9,19.8,47.7,19.8z M43,19.3c-0.2,0-0.3-0.1-0.3-0.3
	c0-0.2,0.2-0.3,0.3-0.3c0.2,0,0.3,0.1,0.3,0.3C43.3,19.1,43.1,19.3,43,19.3z"/>
</svg>
