<?xml version="1.0" encoding="utf-8"?>
<!-- Generator: Adobe Illustrator 19.1.0, SVG Export Plug-In . SVG Version: 6.00 Build 0)  -->
<svg version="1.1" id="Layer_1" xmlns="http://www.w3.org/2000/svg" xmlns:xlink="http://www.w3.org/1999/xlink" x="0px" y="0px"
	 viewBox="0 0 48 48" style="enable-background:new 0 0 48 48;" xml:space="preserve">
<style type="text/css">
	.st0{fill:#808080;}
</style>
<path class="st0" d="M48,26.8c0,0-1.3-3.4-1.6-5.2c-0.1-0.4,0-0.8,0.1-1.2c0.2-0.5,0.4-1.5-0.7-2.8c0,0-1.1-1.6-1.4-2.7
	c0,0-0.2-0.9-3.3-0.1c0,0-0.1,0.1,0,0.1c0.2,0.2,0.5,0.6,0.2,0.6l-1.4-0.4c-0.1,0-0.1-0.1-0.1-0.2c0.1-0.1,0-0.3-0.9-0.3
	c-0.2,0-0.4,0-0.5-0.1c-0.9-0.5-3.8-2.2-5.9-3.5c-0.1,0-0.2-0.1-0.2-0.2c-0.2-0.1-0.9-0.5-3.8-0.8c0,0-14.9-1.7-19.7-1.8
	c-0.5,0-1,0-1.5,0.1c-1.6,0.3-5.3,1.4-6,2.3c0,0-1.3,0.6-1.1,4.8l0.9,9.9c0,0-0.1,1.3-0.5,2.6c0,0-0.2,2.1,0.3,3.3
	c0,0-0.1,0.8-0.4,1.9c0,0,0.1,0.1,0.1,0l0.3-0.5c0,0-0.5,2.1,0.2,3.7c0,0,0.5,0.4,0.2,1.2l0.4-1c0,0,0.1,0.6-0.3,1.3
	c0,0,0.4-0.2,0.5-0.8c0,0.1-0.1,1-0.3,1.2c0,0,0.5,0.2,0.7-1c0,0,0-0.1,0-0.1c0.1-1.1,0.6-1.4,0.4-2.3c-0.1-0.6-0.2-1.2-0.1-1.9
	c0-0.3,0.1-0.5,0.1-0.8c0-0.1,0.2-0.1,0.2,0c0.3,1,1.2,4.3,1.1,4.9c0,0,0.1,0.6-0.1,0.8c0,0,0.4-0.2,0.6,0.2l0.3,0.4
	C4.9,38.5,5,38.6,5,38.8c0,0.2,0,0.3,0.1,0.5c0,0,0.4,0.6,1.1,0.5c0,0,2.1-0.2,2.3-0.4c0,0-1.1-0.8-1.4-1c0,0,0-0.4-0.5-0.7
	c-0.1-0.1-0.2-0.2-0.2-0.3C6,36.6,4.5,32.9,5,30.8c0-0.1,0.1-0.1,0.2,0c0.5,1,2.5,5,2.4,5.7c0,0,0,0.2,0,0.4c0,0.1,0,0.1,0.1,0.1
	c0.2,0,0.4,0.1,0.5,0.3c0,0,0.1,0.2,0.3,0.2c0,0-0.2,1.1,1.2,1.2c0,0,2.5-0.1,2.1-0.3c0,0-0.9-0.5-1.2-1c0,0-4.4-5.2-2.3-9.5
	c0,0,0.5-1.3,0.7-3.2c0,0,0.5-1.5,1-2.2c0.1-0.1,0.3-0.2,0.4,0c0.5,0.4,1.9,1.5,4.2,2.5c0.2,0.1,0.3,0.2,0.4,0.3
	c0.2,0.2,0.6,0.6,1.4,0.2c0.2-0.1,0.4-0.2,0.7-0.2c1.6-0.1,7.2-0.5,8.7,0.6c0,0,0.5-0.1,0.5,4.9c0,0-0.1,1.2,0.3,2c0,0,0,0.1,0,0.2
	c0,0.6,0.3,4.1-0.1,4.9c0,0-0.1,0.5,0.4,0.1c0,0,0.8,0.1,0.6,1.1c0,0,0.1,0.7,0.9,0.7l2.7,0.1c0,0,0.6-0.2-0.3-0.5
	c0,0,1.3-0.1,0.9-0.4c0,0-1.3-0.7-1.5-1.2c0,0-0.1-0.5-0.4-0.8c-0.1-0.1-0.2-0.2-0.2-0.3c-0.1-0.9-0.5-4.2,0-4.7c0,0,0.5-2.1,0.7-4
	c0-0.1,0.1-0.2,0.2-0.2c0.2-0.1,0.7-0.3,0.9-0.6c0,0,0.3-0.7,2.3-0.3c0,0,1.3,0,2.2-2c0.1-0.1,0.2-0.3,0.3-0.3
	c0.5-0.4,2.1-1.4,3.4-0.4c0.1,0.1,0.2,0.2,0.2,0.2c0.4,0.5,2.3,2.7,4.1,2.9c0.1,0,0.3,0.1,0.3,0.2c0.3,0.5,1.3,1.8,2.3,0.9
	c0.1-0.1,0.2-0.1,0.3-0.1C47.2,28.2,48.2,28.1,48,26.8z M2.6,27C2.7,26.4,2,24.8,2,24.8c-0.8-1-1.1-9.7-1.1-9.7
	c0.9,0.5,2.9,7.2,2.9,7.2C4.2,26,2.6,27,2.6,27z M43.8,20.1c0,0-1.2,0.5-1.1-0.6C42.7,19.5,44,18.9,43.8,20.1z"/>
</svg>
