<?xml version="1.0" encoding="utf-8"?>
<!-- Generator: Adobe Illustrator 19.1.0, SVG Export Plug-In . SVG Version: 6.00 Build 0)  -->
<svg version="1.1" id="Layer_1" xmlns="http://www.w3.org/2000/svg" xmlns:xlink="http://www.w3.org/1999/xlink" x="0px" y="0px"
	 viewBox="0 0 48 48" style="enable-background:new 0 0 48 48;" xml:space="preserve">
<style type="text/css">
	.st0{fill:#808080;}
</style>
<path class="st0" d="M47.9,13.1c0,0,0.2-2.3-1.4-3.7c-0.1-0.1-0.1-0.1-0.1-0.2c0-0.1-0.2-0.4-0.8-0.5c-0.1,0-0.2-0.1-0.3-0.2
	c-0.1-0.2-0.4-0.7-1-0.5c-0.1,0-0.2,0-0.3-0.1c-0.2-0.1-0.6-0.4-1.1-0.3c-0.1,0-0.3,0-0.4-0.1c-0.5-0.3-1.9-1-4.5-0.7
	c0,0-3.2,0.3-5.6,0.4c-0.5,0-1.1,0.1-1.6,0.1c-1.3,0.2-4.2,0.5-9.2,0.1c-0.4,0-0.7-0.1-1.1-0.2c-0.3-0.1-1-0.2-2.6-0.4
	c-0.4,0-0.9-0.1-1.2-0.3c-0.4-0.2-1.1-0.5-1.8-0.6c-0.1,0-0.1-0.1-0.2-0.2c0-0.3-0.1-0.8-0.7-1c0,0,0.1,0.5,0.1,0.8
	c0,0.2-0.1,0.3-0.3,0.3c-0.6,0.1-2.4,0.6-3.3,2.9c-0.1,0.3-0.4,0.4-0.6,0.5c-0.3,0-0.6,0-1-0.2c0,0-0.9-0.5-1.9-0.2
	C6.8,9.1,6.6,9.1,6.3,9.1C5.8,9,5.1,8.9,4.6,8.4c0,0-3.1-1.9-3.1-2c0,0-0.1-0.9-0.5-0.1c0,0-0.6,0.9,0.9,2.1c0,0,1.8,1.5,2.3,2.1
	c0.1,0.1,0.1,0.3,0,0.4c-0.2,0.2-0.5,0.4-1,0.4c0,0-2.5-0.5-3.1,1.1c0,0.1,0,0.2,0,0.2c0.1,0.4,0.6,1.3,2.6,1.1
	c0.3,0,0.6-0.1,0.8-0.3c0.4-0.2,0.9-0.5,1.2-0.3c0,0,0.1,0.3-0.3,1c0,0-0.2,0.4,0.1,0.1c0.1-0.1,0.2,0,0.2,0.1c0,0.9-0.2,3.3,0.1,4
	c0.1,0.2,0.2,0.4,0.2,0.7c0.1,0.5,0.2,1.3,0.1,1.8c0,0-0.2,0.5,0,0.9C5,21.8,5,21.9,5,22c-0.2,0.4-0.6,1.7,0,2.1
	c0,0,0.6,0.5,1.6,0.7c0,0,1.6,0.4,2.2-0.2c0,0,0.1-0.1,0.1-0.1c0.2,0,0.9-0.1,1.1,0c0,0,2,0.6,2.2,1.2c0,0,0.3,0.9,1.1,1.3
	c0.1,0.1,0.2,0.2,0.2,0.3c0,0.8,0.1,3.9,0,5c0,0-0.1,1.5,0.3,2c0,0.1,0.1,0.2,0.1,0.2c0,0.8-0.2,4.3-1.6,5.1c0,0-0.3,0.2-0.3,0.6
	c0,0.1-0.1,0.2-0.1,0.3c-0.2,0.2-0.6,0.6-0.8,0.7c0,0-0.4,0.4,0.3,0.4c0,0,2.5,0.4,2.5-0.3c0,0,1,0.3,0.7-1.1c0,0,0.5,0.7,0.5-0.4
	c0,0,0.4,0,0.2-1.3c0,0,0.2-4.4,0.8-5.6c0,0,1.2-4.6,1.3-5.8c0-0.1,0.1-0.2,0.2-0.3l0.2-0.1c0.2-0.1,0.5,0,0.5,0.2
	c0.4,1,1.5,3.9,1.8,6.3c0,0,0.3,1.5,0.8,2c0.1,0.1,0.2,0.3,0.2,0.5c0,1.1,0.2,4.4-0.1,4.8c0,0-0.9,0.6-0.8,1.1c0,0-1.6,1-1.2,1.2
	c0,0,2,1.2,3.9-0.6c0,0,0.3-0.2-0.1-1c0,0,0.3-0.5,0.6-0.4c0.1,0,0.2-0.1,0.3-0.2c0-0.3,0-0.9-0.4-2c0,0-0.7-3.4-0.4-5.1
	c0,0-0.1-4.6-0.1-7.2c0-0.3,0.2-0.5,0.5-0.5c1.4,0.1,5.6,0.3,7.5,0.3c0.4,0,0.8-0.1,1.2-0.2c1-0.4,3.3-1.5,5.5-3.5
	c0,0,0.9-0.8,1.7,0.5c0.3,0.5,0.4,1.1,0.4,1.7c-0.1,1.2-0.2,3.7,0,5c0.1,0.6,0,1.2-0.1,1.8c-0.1,0.7-0.3,1.6-0.1,1.7
	c0,0-0.7,3.3-3.6,6.6c-0.1,0.1-0.1,0.2-0.1,0.3l0,0c0,0.1-0.1,0.2-0.2,0.3c-0.3,0.3-1,1-0.6,1.1c0,0,2.1,1.2,3.1-0.2
	c0.1-0.1,0.1-0.2,0.1-0.3c0-0.3,0-0.8,0.3-0.8c0.1,0,0.2,0,0.2,0.1c0.1,0.1,0.5,0.4,0.4-0.4c0-0.2,0-0.5,0-0.7
	c0.2-0.9,0.9-3.3,3.8-8.4c0-0.1,0.1-0.1,0.2,0c0.2,0.5,0.4,1.9,0.4,4.7c0,0,0.1,2.7-1.1,3.6c0,0-0.1,0.1-0.1,0.2c0,0-1,1-0.4,1
	c0,0,2,0.1,2.2-0.1c0,0,0.6-1.1,0.9-0.9l0.4,0.3c0.1,0.1,0.2,0,0.2-0.1l0-0.6c0,0,0.8,0,0.7-1.3c0,0,0-2.4,0.3-3.3
	c0.1-0.3,0.1-0.6,0.2-0.8c0-0.9,0-2.7-0.3-3.7c0,0-0.6-1.6,0.4-4.3c0,0,0.9-3.9,0.8-5.1C47.3,20.3,48.2,14.7,47.9,13.1z M4.7,14.1
	c0,0,0.5,0,0.6,0.7C5.2,14.9,4.6,14.8,4.7,14.1z M10.3,15.1c0,0,0.3-1.1,0.8-0.8C11,14.3,11,15.4,10.3,15.1z M46.2,22.6
	C46.1,24.2,45,27,45,27c-0.2,0.3-1.3-1.9-1.3-1.9c-0.2-0.3,2.7-6.8,2.7-6.8C46.5,18.7,46.2,22.6,46.2,22.6z"/>
</svg>
