<?xml version="1.0" encoding="utf-8"?>
<!-- Generator: Adobe Illustrator 19.1.0, SVG Export Plug-In . SVG Version: 6.00 Build 0)  -->
<svg version="1.1" id="Layer_1" xmlns="http://www.w3.org/2000/svg" xmlns:xlink="http://www.w3.org/1999/xlink" x="0px" y="0px"
	 viewBox="0 0 48 48" style="enable-background:new 0 0 48 48;" xml:space="preserve">
<style type="text/css">
	.st0{fill:#808080;}
</style>
<path class="st0" d="M47.8,15.7c0,0-0.1-0.4-0.5-0.5c-0.2-0.1-0.4-0.2-0.5-0.3L45.1,13c-0.1-0.2-0.2-0.4-0.1-0.6
	c0.1-0.3,0.1-0.9-0.1-1.2c-0.1-0.1-0.1-0.2,0-0.3c0.3-0.5,0.9-1.7,0.3-2.2c0,0-0.9-0.6-2,0.7c-0.1,0.1-0.3,0.1-0.4,0.1
	c-0.2-0.1-0.6-0.5-0.7-1c0,0,0-0.7-1.5,0c0,0-0.1,0-0.1,0.1c-0.1,0.1-0.3,0.3-0.3,0.5c-0.1,0.3-0.2,0.5-0.4,0.6
	c-0.7,0.6-2.5,0.9-7.6-0.2c-0.1,0-0.2-0.1-0.4-0.1C31.4,9.2,29.6,8.9,24,9c-0.1,0-0.3,0-0.4,0c-0.3-0.1-1.2-0.2-2.2,0.1
	c-0.3,0.1-0.6,0.1-1,0.1c-2-0.1-8.7-0.3-11.9-0.9c0,0-3.1-0.7-5.4,1C2.2,10,1.7,11,1.5,12.1c-0.2,1-0.3,2.6-0.1,4.5
	c0,0,0.2,6.7-0.7,8.2c0,0-0.2,0.5-0.1,1c0,0-0.6,0.8-0.4,1.9c0,0-0.4,0.7,0,1.1c0.1,0.1,0.1,0.2,0.1,0.3c0,0.5,0,1.7,0.7,2.3
	c0.1,0.1,0.2,0.2,0.1,0.4c-0.1,0.7-0.4,2.6,0.4,2.7c0,0-0.2-0.4,0.1-0.9l0-2.2c0,0,1.4-0.4,0.3-2.5c0,0,0.5-0.5,0.3-2.5l-0.3-4.2
	l0.3-9.1c0,0,0.2-0.7,0.3,1.7c0,0,0.5,5.1,0.9,6.5c0.1,0.3,0.2,0.7,0.2,1.1c0.1,1.2,0.1,3.3-0.7,4.5c-0.1,0.2-0.2,0.4-0.2,0.6
	c0,0.3,0,0.8,0.2,1.1c0,0,0.4,7.3-0.4,8c0,0-0.2,0.4,0.5,0.3c0,0,0,0.6,0.4,0.4c0,0-0.3,1.5,1.3,1.4c0,0,2.8,0.2,1.9-0.6l-1.1-1
	c0,0,0.2-0.5-0.6-1c0,0-0.7-4,0.5-6.3c0-0.1,0.2-0.1,0.2,0C6,31.2,7.2,36.8,7,37.2c0,0-0.3,1.3,0.5,0.8c0.1-0.1,0.3,0,0.4,0.1
	c0.2,0.5,0.5,1.6,0.8,1.6c0,0,3.8,0.4,2.5-0.6l-1-0.8c-0.1-0.1-0.2-0.2-0.2-0.4c0-0.2-0.1-0.4-0.3-0.5c-0.1-0.1-0.3-0.2-0.3-0.3
	c-0.6-1-2.4-5,0.5-10.4c0,0,0.5,1,0.6,0c0-0.3,0.2-0.5,0.4-0.6c0.4-0.2,0.9-0.4,1.3-0.6c0.3-0.1,0.7-0.1,1,0
	c1.1,0.5,3.8,1.6,4.2,1.5c0,0,2.2-0.5,3.2-0.5c0,0,0.1,0,0.1,0c0.6-0.1,5.3-1.1,5.8-0.9c0,0,2,0.2,2,0.8c0,0,0,3.6,0.3,4.6
	c0.1,0.2,0.1,0.4,0.1,0.6c0,1-0.1,3.7-0.4,4.5c0,0.1,0,0.2-0.1,0.3c0,0.4-0.1,1.2,0.7,0.5c0,0-0.4,1.6,0.7,1.8c0,0,2.5,0.5,3.2-0.6
	c0.1-0.1,0-0.3-0.1-0.4c-0.2-0.1-0.5-0.4-1.2-0.7c0,0,0.1-0.5-0.2-0.7c-0.2-0.1-0.3-0.3-0.3-0.6c-0.1-0.7-0.3-2.3-0.3-3.2
	c0-0.3,0.1-0.7,0.3-1c0.2-0.4,0.6-1.2,0.5-2.5c0-0.4,0-0.8,0.2-1.1c0.1-0.1,0.1-0.3,0.1-0.4c0-0.1,0.1-0.2,0.2-0.1
	c0.5,0.2,1.7,0.5,3.1-1.2c0,0,2.2-2.9,3.1-6c0,0,0.5-1.8,3.5-1.5c0,0,1.4-0.1,2.9-0.9c0.1-0.1,0.3-0.1,0.4,0
	c0.3,0.1,0.9,0.3,1.9-0.2C47.2,17.6,48.4,17.2,47.8,15.7z M0.8,28.4c-0.2,1.2,0.4,2,0.4,2v0.3C0.3,29.9,0.8,28.4,0.8,28.4z
	 M0.5,29.3c0,1.3,0.6,1.6,0.6,1.6l0.1,0.4C0.3,30.7,0.5,29.3,0.5,29.3z M1.7,31.2c-0.4-0.1,0-2.2,0-2.2C2.8,31,1.7,31.2,1.7,31.2z
	 M41.7,12.8c-0.2,0-0.4-0.1-0.4-0.3c0-0.1,0.2-0.3,0.4-0.3c0.2,0,0.4,0.1,0.4,0.3C42.1,12.7,41.9,12.8,41.7,12.8z"/>
</svg>
