<?xml version="1.0" encoding="utf-8"?>
<!-- Generator: Adobe Illustrator 19.1.0, SVG Export Plug-In . SVG Version: 6.00 Build 0)  -->
<svg version="1.1" id="Layer_1" xmlns="http://www.w3.org/2000/svg" xmlns:xlink="http://www.w3.org/1999/xlink" x="0px" y="0px"
	 viewBox="0 0 48 48" style="enable-background:new 0 0 48 48;" xml:space="preserve">
<style type="text/css">
	.st0{fill:#808080;}
</style>
<path class="st0" d="M36.2,22.4c0-0.1,1.8-4.5,3.6-5.7c0.4-0.3,0.9-0.3,1.4-0.1c0.8,0.4,2.7,1.3,3.7,1c0.1,0,0.2,0.1,0.2,0.2
	c0,0.5,0.1,1.5,0.3,1.5c0.9,0.3,0.7-2,0.3-2.8c-0.1-0.1,0-0.2,0.1-0.2c0.4,0,1.1-0.1,1.6-0.6c0,0,1.5-1-0.1-1.7c0,0-2-1.2-2.5-1.8
	c-0.1-0.1-0.1-0.2-0.1-0.2c-0.2-0.5-1.2-3-2.8-4.3c-0.2-0.1-0.2-0.3-0.2-0.5C41.7,6,42,3.4,41.5,3.7c0,0-1.4,1.3-2.2,1.9
	c-0.3,0.2-0.6,0.1-0.8-0.1c-0.7-0.9-2.5-2.6-3.1,2.4c0,0.4-0.3,0.8-0.7,0.9c-0.6,0.3-1.5,0.8-2.6,1.6c-0.9,0.6-1.8,1.1-2.8,1.3
	c-2.6,0.7-7.8,1.9-13.9,2.6c-0.2,0-0.3,0-0.5,0c-1.6,0.1-11.8,0.8-14.2,9.8c0,0-2.3,7.2,1.1,11.5c0,0,2.6-2.9,2.5-4
	c0,0,0.8,1.5-1.8,3.9c-0.5,0.4-0.6,1.1-0.3,1.7c0,0,0,0.1,0.1,0.1c0,0,0,0.1,0,0.1c0,0.6-0.2,5.4,0.9,6.6c0.1,0.1,0.2,0.1,0.4,0.1
	c0.4-0.1,1.1-0.2,1.1-0.6c0,0,0.2,0.6,0.6,0.5c0,0,1.3-0.4,1.3-0.7c0,0,0.7-0.1,0.3-0.6c0,0-0.8-0.8-1.8-0.8c-0.1,0-0.2,0-0.2-0.1
	c-0.1-0.2-0.4-0.7-0.4-1.5c0-0.1,0-0.2,0-0.3c-0.1-0.6-0.2-2.8,1.5-4.4c0.5-0.5,1.1-0.8,1.7-1c1.2-0.4,4.4-1.9,6.4-6.5
	c0,0,0.9-1.1,2.3,0.1c0,0,2.8,1.9,6.4,0.4c0,0,1.9-0.7,1.9,0.2c0,0,0.4,4.9,0.6,7.3c0,0.5,0,1-0.1,1.6c-0.1,0.3,0,0.6,0.3,1
	c0.1,0.1,0.2,0.2,0.2,0.4c0.1,0.8,0.5,3.8,1.9,3.9c0,0,0.9-0.1,1,0.1c0,0,0.1,0,0.1,0c0-0.1,0.1-0.1,0.2-0.1
	c0.5,0.1,1.7,0.2,1.2-0.6c0,0-0.2-1.1-1.4-1.1c-0.2,0-0.4-0.1-0.4-0.3c-0.3-0.7-1.1-2.6-0.8-3.9c0,0,0.4-5.2,0.3-6.1
	c0,0,0-0.1,0-0.1c0.1-0.5,0.5-2.9,1.3-2.2c0,0,0.3,0.1,0.4,3.5c0,0-0.1,6.8,1.3,9.1c0,0,0.6,1.8,2.7,1.2c0,0,1-0.3,1.4-0.3
	c0,0,0.3-0.5-0.9-0.9c0,0-1.3,0-1.6-0.9c0,0-0.7-2.1-0.4-4.2c0,0,0.1-8,0.8-9.1C32.9,27.4,36.5,24.8,36.2,22.4z M41.7,11.1
	c0,0,0.9-0.1,1.1-0.3c0,0-0.2,0.4,0.3,0.6C43.1,11.4,41.7,12.2,41.7,11.1z M46,18.2c0-0.1,0-0.1,0-0.1C46,18.1,46,18.1,46,18.2z"/>
</svg>
