<?xml version="1.0" encoding="utf-8"?>
<!-- Generator: Adobe Illustrator 19.1.0, SVG Export Plug-In . SVG Version: 6.00 Build 0)  -->
<svg version="1.1" id="Layer_1" xmlns="http://www.w3.org/2000/svg" xmlns:xlink="http://www.w3.org/1999/xlink" x="0px" y="0px"
	 viewBox="0 0 48 48" style="enable-background:new 0 0 48 48;" xml:space="preserve">
<style type="text/css">
	.st0{fill:#808080;}
</style>
<path class="st0" d="M47.8,21.2c0,0-0.2-2.7-0.8-3.8c0,0-0.5-1.3-0.2-3.4c0-0.1,0-0.2,0.1-0.3c0.1-0.1,0.2-0.4-0.2-0.9l-1-1.6
	c-0.1-0.1,0-0.3,0.2-0.3c0.4,0,1-0.1,1.1-0.9c0,0,0.2-1.6-0.5-2.2c0,0,0.8-2.4-0.2-2.9c0,0-0.4,0.2-0.6,0.8c0,0.1-0.2,0.2-0.3,0.1
	C44.6,5,41.6,3,34,5.7c0,0-5.3,1.7-5.5,3.8c0,0.2-0.2,0.3-0.3,0.2C27.6,9.6,26,9.5,23.5,10c0,0-4.7,0.7-8.5-0.4c0,0-6.8-2-9.8,1.1
	c-0.1,0.1-0.2,0.2-0.3,0.3c-0.7,0.6-3.3,3-2.8,5.9c0,0.2,0,0.4,0,0.7C2,18.5,1.5,21.6,1,22.8c-0.1,0.2-0.1,0.3-0.1,0.5
	c-0.2,1-0.8,4.7-0.7,5.6c0,0.2,0,0.4,0,0.6L0,29.9c0,0.1,0.1,0.1,0.1,0C0.2,29.6,0.5,29.3,1,29c0,0-0.8,0.9-0.6,1.2l-0.2,0.8
	l0.8-1.3l-0.2,1.1l1.1-2.6c0,0.1-0.9,2.8-1.1,3c0,0,0.4-0.4,0.6-0.7l0.8-2l-0.5,2.4l0.8-2.1c0,0,0.2-0.4,0.3-0.4
	c0.1,0,0.1-0.1,0.1-0.1C3.1,27.1,4,22.4,4,21c0-0.1,0.1-0.1,0.1,0c0.5,0.6,2,2.5,2.3,3.6c0.1,0.2,0,0.5-0.1,0.7
	C5.9,26,4.7,28,3.5,28.7c0,0-0.6,0.3-0.5,1.9c0,0-0.4,5.1-1.5,7.4c0,0-0.6,1.7,0.6,1.8c0,0,0.7,0.4,0.4,0.9c0,0-0.7,0.9,0.2,1.2
	c0,0,3.1,0.7,2.9,0.1c0,0-0.6-1.4-0.6-1.7c0,0-0.6-0.6-0.9-1C4,39.1,4,39,4,38.8c0-0.8-0.1-4.1,1-6.1c0,0,1.8-2.6,2.4-3.2
	c0.1-0.1,0.2,0,0.2,0.1c-0.1,0.7-0.4,3.1,0.7,3.8c0,0,3,4.5,3,6.6c0,0,0.1,1.4,1.5,1.4c0,0-0.7,1.9,1,1.7c0,0,2.5-0.2,2-1
	c0,0-0.7-1.5-1.8-2.2c0,0-2.4-4-2.9-5.2c-0.1-0.2-0.1-0.4,0-0.5c0.1-0.5,0.4-1.9-0.3-3.5l-0.1-4.5c0-0.2,0.1-0.4,0.2-0.6l1-1
	c0.1-0.1,0.3-0.1,0.4-0.1c0.2,0.1,0.5,0.2,0.8,0.1c0.1,0,0.3,0,0.4,0.1c0.9,0.7,4.5,2.9,9.3,1.6c0.2,0,0.3,0,0.4,0.2
	c0.4,1.4,1.9,7.2,0.8,9.4c0,0,0,0.4-1.1,1.5c0,0-1.1,0.8-0.7,1.8c0,0-1.8-0.2-1.8,1.5c0,0-0.2,2.7,1.6,2c0,0,0.6-0.4,0.7-0.8
	c0,0,1-0.3,0.8-1.6c0,0,0.8-0.6,1.1-1.8l1.2-2.3c0,0,2.4-1,1.4-4.2c-0.2-0.5-0.2-1-0.3-1.5c-0.1-1.3-0.1-3.6,0.3-4l0.9-0.6
	c0.1-0.1,0.3,0,0.4,0.1c0.1,0.2,0.3,0.6,0.2,1.1c0,0-0.4,4.4-0.2,5.2l-0.9,6.9c0,0-0.7,2.3,0.9,2.3c0,0,0.9,0.3,0.2,1.1
	c0,0-0.4,1,1.1,1.2c0,0,2.9,0.2,2.4-0.4c0,0-0.4-0.7-0.6-1.4c-0.1-0.3-0.3-0.5-0.5-0.7c-0.5-0.3-1.3-0.8-1.4-2c0,0,0.2-3.5,0.5-4.1
	c0,0,0.6-1.7,0.8-3.3c0.1-0.4,0.2-0.9,0.3-1.3c0.4-1.2,1.3-3.6,1.6-4.9c0.1-0.5,0.4-1,0.8-1.4c0.8-0.9,2.2-2.8,2.3-4.7
	c0-0.1,0.1-0.3,0.2-0.4l2.8-2.4c0.1-0.1,0.3,0,0.3,0.1c0.1,0.7,0.6,2.2,2.1,2.5c0.1,0,0.2,0.1,0.3,0.2c0.5,0.5,2.2,2.2,2.2,2.8
	c0,0-0.4,1.8,1.5,1.7c0,0,1.4,0.2,2-0.5C47.2,23.5,48.5,22.7,47.8,21.2z M42.4,13.6c0,0,1.3-0.4,1.8,1
	C44.1,14.6,42.6,15.4,42.4,13.6z"/>
</svg>
