<?xml version="1.0" encoding="utf-8"?>
<!-- Generator: Adobe Illustrator 19.1.0, SVG Export Plug-In . SVG Version: 6.00 Build 0)  -->
<svg version="1.1" id="Layer_1" xmlns="http://www.w3.org/2000/svg" xmlns:xlink="http://www.w3.org/1999/xlink" x="0px" y="0px"
	 viewBox="0 0 48 48" style="enable-background:new 0 0 48 48;" xml:space="preserve">
<style type="text/css">
	.st0{fill:#808080;}
</style>
<path class="st0" d="M47.2,20.3c0,0-4.3-0.7-6.8-0.2c0,0-0.2-0.2-1.4-0.2c0,0-1.6-0.2-1.6-3.9c0,0,0.4-1.8-1.4-2.1
	c0,0-1.8-0.1-2.2,1.9c0,0-0.4,1.2-0.2,2.4c0,0.1,0,0.2-0.1,0.3c-0.3,0.2-1.1,0.5-3.1-0.6c0,0-11-6.2-18.6,1.9c0,0-0.1,0.1-0.1,0.1
	c-0.3,0-1.1,0.1,0,0.1c0,0,0,0,0,0l-0.1,0.2c0,0-0.1,0.1-0.1,0.1c-0.3,0-1.1,0-1.2,0.2c0,0,0.9-0.1,1.2-0.1c0,0,0.1,0,0,0.1
	l-0.2,0.2c0,0,0,0-0.1,0c-0.2,0-1.2,0.1-1.3,0.3c0,0,0.8-0.2,1.1-0.1c0,0,0.1,0,0,0.1l-0.1,0.2c0,0,0,0-0.1,0
	c-0.2,0-1.6,0.2-1.7,0.5c0,0,1.3-0.4,1.6-0.3c0,0,0.1,0,0,0.1l-0.2,0.3c0,0,0,0-0.1,0c-0.3,0.1-1.8,0.4-2,0.7c0,0,1.3-0.4,1.7-0.4
	c0,0,0.1,0,0,0.1l-0.2,0.3c0,0-0.1,0.1-0.1,0.1c-0.3,0.1-1.7,0.5-2,1.3c0,0,1-1,1.9-1.1c0,0,0.1,0,0,0.1l-0.1,0.3c0,0,0,0-0.1,0.1
	c-0.3,0.1-1.8,0.8-2,1.3c0,0,1.2-1,1.8-1c0,0,0.1,0,0,0.1l-0.2,0.6c0,0,0,0,0,0c-0.2,0.1-1.8,0.8-1.8,1.3c0,0,1.2-1.1,1.8-1.1
	c0,0,0,0,0,0l-0.1,0.3c0,0,0,0,0,0C9,25,7.3,26.2,7.2,26.8c0,0,1.3-1.3,1.7-1.6c0,0,0.1,0,0,0l-0.3,0.7c0,0,0,0,0,0
	c-0.1,0.1-1.4,1.5-1.4,1.7c0,0,1-1.1,1.3-1.4c0,0,0,0,0,0l-0.2,0.4c-0.1,0.1-0.1,0.3-0.2,0.4c-0.3,0.3-1,1.1-1.2,1.2
	c0,0,0.7-0.3,1.2-1c0,0,0,0,0,0l-0.2,0.5c0,0,0,0.1-0.1,0.1c-0.2,0.2-0.9,0.8-1.3,1.1l0,0c0.3-0.2,1-0.6,1.3-0.8c0,0,0,0,0,0
	l-0.1,0.3c0,0,0,0,0,0.1l-1.3,0.7c0,0,0.5,0,1.1-0.5c0,0,0,0,0,0L7.6,29c0,0,0,0,0,0c-0.2,0.1-1.3,0.6-1.6,0.6c0,0,0.6,0.1,1.4-0.3
	c0,0,0,0,0,0l-0.4,0.3c0,0-0.1,0-0.1,0.1c-0.2,0-1.1,0.2-1.4,0.2c0,0,0.6,0.2,1.2,0l-0.4,0.2c0,0-1.2,0.3-1.3,0.2
	c0,0,0.2,0.1,1.1-0.1c0,0,0,0,0,0l-0.4,0.2c0,0,0,0-0.1,0l-1.4,0.1c0,0,0.6,0.1,1.1,0c0,0,0,0,0,0c-0.4,0.3-2.1,1.2-3.5,1.5
	c0,0-2,0.3-1.7,0.8c0,0,0.3,0.2,1.4,0.1c0,0,7.8-0.2,11.5-5.2c0,0,0.3-0.3,0.8-0.2c0.1,0,0.3,0,0.4-0.1c0.5-0.3,1.5-1.1,1.6-0.8
	c0,0,0,1.2,0.1,1.7c0,0.1,0,0.2-0.1,0.3c-0.3,0.3-1,1.1-0.8,1.8c0,0-0.2,1.5,0.8,1.3c0.1,0,0.1,0,0.2,0.1c0,0.4,0.2,1.3,0.9,1.2
	c0.1,0,0.2,0,0.2,0.1c0.1,0.1,0.4,0.2,0.4-0.1c0-0.1,0.1-0.1,0.1-0.1c0.1,0,0.4,0,0.5,0.1c0,0,0.5,0.1,0.6-0.1c0,0,0.8,0.1,0.6-0.2
	c0,0,0.5-0.1,0.1-0.4l-0.6-0.4c0,0-1.3-1.2-1-1.8l1.3-2.9c0.1-0.1,0.2-0.2,0.3-0.2c0.8,0.1,3.8,0.5,4.9-0.1c0,0,0.1,0,0,0
	c-0.3,0.5-1.4,2.6-0.7,4.2c0,0.1,0,0.2,0,0.2c0,0.2,0,0.5,0.4,0.9c0.2,0.1,0.3,0.3,0.4,0.5c0.1,0.3,0.4,0.6,0.7,0.5
	c0,0,0.6,0.3,0.9-0.1c0-0.1,0.1-0.1,0.2-0.1l0.4,0c0,0,0.7,0,0.5-0.3c0,0.1,1.3,0.1,0.3-0.4c-0.1,0-0.1-0.1-0.1-0.1
	c-0.1-0.1-0.3-0.3-0.6-0.4c-0.1,0-0.2-0.1-0.2-0.2c-0.2-0.3-0.5-0.9,0.1-1.5l1.2-1.6c0.1-0.1,0.2-0.1,0.2,0c0.3,0.3,1.3,1.2,1.5,1.7
	c0,0,0.7,1.3,1.7,1.3c0,0,1.5,0,1.5,0c0,0,0.8-0.1-0.2-0.5c0,0,0.1-0.3-0.9-0.5c0,0-0.1-0.5-0.3-0.5c0,0,0.4-0.2-0.1-0.8
	c-0.1-0.1-0.1-0.1-0.1-0.2c-0.1-0.5-0.4-1.9-0.1-2.2c0,0,1-0.6,1.4-1.1c0,0,1.6-1,3.4,0.1c0.1,0.1,0.2,0.1,0.2,0.2
	c0.3,0.3,1.3,1.2,3.5,0.8c0.1,0,0.2,0,0.3,0.1c0.4,0.4,2,1.8,4.3,0.2c0,0-2.2-0.3-2-1.4c0,0,1,0.8,1.7,0.9c0.2,0,0.3,0.2,0.4,0.3
	c0.1,0.2,0.1,0.4,0.1,0.5c0,0,1.3,0.1,1.2-1.2c0,0-0.1-0.7-0.7-1.3c-0.1-0.1-0.1-0.2-0.2-0.2L44,24.6c-0.1-0.1,0-0.3,0.1-0.4
	c0.3-0.3,0.9-0.9-0.4-0.8l-1.5-0.3c-0.2,0-0.3-0.1-0.4-0.2c-0.3-0.2-0.6-0.6-0.2-0.6c0,0,5.8,0.2,6.3,0.3c0,0,0.1-0.2-0.2-0.3
	l-5.2-1.1c0,0,4.2-0.6,5.4-0.5C47.9,20.7,48.4,20.5,47.2,20.3z M40,21.5c0,0,0.3-0.1,0.5,0.4C40.5,21.9,39.9,21.9,40,21.5z"/>
</svg>
