<?xml version="1.0" encoding="utf-8"?>
<!-- Generator: Adobe Illustrator 19.1.0, SVG Export Plug-In . SVG Version: 6.00 Build 0)  -->
<svg version="1.1" id="Layer_1" xmlns="http://www.w3.org/2000/svg" xmlns:xlink="http://www.w3.org/1999/xlink" x="0px" y="0px"
	 viewBox="0 0 48 48" style="enable-background:new 0 0 48 48;" xml:space="preserve">
<style type="text/css">
	.st0{fill:#808080;}
</style>
<path class="st0" d="M47.9,29.6c0,0,1.7-3.8-7.3-9.9c0,0-6.6-4.3-13.7-3.2c0,0-0.3-0.6,0.1-1.1c0,0,1.3-0.8,0-1.5
	c0,0,0.1-0.1,0.1-0.3l2.8-1.9c0,0,2.5-1.6,2.8-1.8c0,0,1.3-0.9,1.3-1.1c0,0-0.1-0.3-0.6,0.4l-1.8,1.4l-3.6,2.3l-1.1,0.8
	c0,0-0.2-0.3-0.5-0.2l-0.1-2.2L26,8.4l-0.1-3c0,0,0.2-1.2-0.1-1.1c0,0-0.3,0.4,0,1.1l0,2.5l0.2,3.7l0.1,1.7c0,0-1.4-0.5-1.2,1.1
	c0,0-0.4,1-0.9,1.1c0,0-0.1-0.5-0.6-0.9c0,0-10.1-9.8-21.6-5.5c0,0-4.5,1.8,0.5,4.7c0,0,0.9,1,1.5,1.1c0,0,0.5,1.5,1.3,1.5
	c0,0,0.4,1.7,1,1.8c0,0,0.5,1.5,1.3,1.8c0,0,0.3,1.1,1.1,1.4c0,0-1.1,1.3,0.2,2.1c0,0-2,2.2,0.9,3c0,0-1.4,3.2,1.2,3.2
	c0,0,0.1,1.7-1.6,2.7c0,0-3.1,2.3-2.8,3.4c0,0-0.1,2.3,1.2,0.9c0,0,1.7-1.5,2.2-2.6c0,0,1.4-2.7,2.9-1.5c0,0,0.4,0.4,1.2,0
	c0,0,0.4-0.4,0.8,0.1c0,0,1.1,0.4,1.8-0.7c0,0,0.4-1.1,1.3-1.2c0,0,1.1-0.7,1.5-3l1.7-4.1c0,0-1.5,4.1-0.2,3.4c0,0-2.2,3.6-1.5,4.5
	c0,0-1.3,2.9,0.5,3.1c0,0,0.3,0.2,0.6,1c0,0,0,0.4,1.1,0.6c0,0,0.9,0.3,0.6,2.1l-0.9,2.7c0,0-0.3,2.1,0.5,2.2c0,0,2.2,0.3,1.8-2.3
	c0,0-0.2-7,1.9-5.3c0,0,1.3,1.2,2.1-1.3c0,0,0.3-0.7,1.5,0c0,0,1.3,0.6,1.5-1.4c0,0,0.6-0.6,1.1-0.3c0,0,1.1,0.2,1.1-1.8
	c0,0,0.7,0.2,0.9-0.1c0,0,1.3,0.4,1.7-0.2c0,0,1.7,0.5,2.2-0.4c0,0,2,0.2,2.2-0.5c0,0,1.9,0.3,2-0.2c0,0,1.6,0.6,1.8,0.2
	C43.9,30.2,45.9,31.2,47.9,29.6z"/>
</svg>
