<?xml version="1.0" encoding="utf-8"?>
<!-- Generator: Adobe Illustrator 19.1.0, SVG Export Plug-In . SVG Version: 6.00 Build 0)  -->
<svg version="1.1" id="Layer_1" xmlns="http://www.w3.org/2000/svg" xmlns:xlink="http://www.w3.org/1999/xlink" x="0px" y="0px"
	 viewBox="0 0 48 48" style="enable-background:new 0 0 48 48;" xml:space="preserve">
<style type="text/css">
	.st0{fill:#808080;}
</style>
<path class="st0" d="M44.5,9c0,0-0.4-0.5-0.3-0.7l-0.5,0.3c0,0-0.5-1,0.6-2.1c0,0,0.4-0.6-0.6-2.3c0,0,0-0.8,0.4-0.5
	c0-0.1-1.1-2.2-2.7-0.8c0,0-5.5,3.7-6.9,8.5c-0.2,0.7-0.6,1.4-1.2,1.9c-0.7,0.6-1.6,1.5-1.4,2c0,0,0,0,0,0c0.3,0.4,0.2,0.9-0.3,1.1
	c-1.4,0.6-6,2-10.4-1c-0.5-0.4-1-0.9-1.2-1.4C18.8,11.1,14.2,1.9,9.6,2.6c0,0,2-2.8,0.3-2.4c0,0-2.8-1-4.1,0.9c0,0-1.2-1.1-1.4,1.8
	c0,0.2-0.1,0.4-0.3,0.6C3.6,4,2.9,5.2,4.3,6.7c0,0-1,1.4-0.5,2.3c0,0,1.9-1.5,2.2-0.7c0,0,0.9,4.3,2.1,1.9c0,0,0.4-0.1,0.4,0.3
	c0,0-0.1,2.7,0.6,4.3c0,0,0.5,3.3-0.1,6.8c0,0-1.2,11.3,5.5,12.7c0,0,6,0.4,9.3,3.5c0,0,0.1,5.1-0.6,5.4c0,0-1,0.4-2.9,0.1
	c0,0-0.8-0.2-1.2,0.7c0,0,1.2,0,1.7,0.1c0,0,1.7,0.2,2.2,0c0,0-0.3,0.7-2.1,1.6c0,0-1.7,0.9-1.3,2.3c0,0,1-1,1.6-1.3
	c0,0,2.6-1.3,2.8-1.7c0,0,0.5,0.1,0.6,1.2c0,0,0.6,1.1,1.1,1.2c0,0,0-3.1-0.3-3.8c0,0,0.4-0.3,1,0.6c0,0-0.9,0.4-0.2,0.6
	c0,0,4.4,1,5.4,0.6c-0.1,0.1-2,1.8-1.9,2.5c0,0,1.4-1.3,2-1.5c0,0,1.5-1.4,1.4-2.3c0,0,1.8-0.4,1.8-0.9c0,0-1.9,0.1-2.2-0.7
	c0,0-1.7-3.3,0.8-3.6c0,0,3-1.2,2.7-4.8c0,0,4-4,0-6.1c0,0,1.7-0.7,1.3-2c0,0,1.9-0.7,1.7-2c0,0,0.8-1.2,0.4-1.9
	c0,0,2.5-1.7,0.6-3.5c-0.3-0.3-0.2-0.7,0.1-0.9c0.3-0.2,0.7-0.3,1-0.1l-0.9-1c0,0,1.3-0.5,1.9,0.3c0,0,0.2-0.7-0.5-1l0.7-0.2
	c0,0-1-0.8,0-1.3l0.7-0.7l-1.2-0.9c0,0,1.8-0.6,0.2-0.7c0,0,1.5-2.1,1.8-2.3c0,0,0.1-0.2-0.4-0.2C43.8,9.6,44.2,8.9,44.5,9z
	 M8.5,5.5c-0.2,0-0.4-0.2-0.4-0.3c0-0.2,0.2-0.3,0.4-0.3C8.8,4.9,9,5,9,5.2C9,5.4,8.8,5.5,8.5,5.5z M28.6,44.5
	c-0.4-0.2-1.5-0.3-1.5-0.3L26,42.8c-1.5-1.1-0.7-4.3-0.7-4.3c0.1,0.2,4.8,1.4,4.8,1.4c0.9,0.3,1.1,2.8,1.1,2.8
	c-0.7,0.7,0.2,1.2,0.2,1.2C31.4,44.7,28.6,44.5,28.6,44.5z"/>
</svg>
