<?xml version="1.0" encoding="utf-8"?>
<!-- Generator: Adobe Illustrator 19.1.0, SVG Export Plug-In . SVG Version: 6.00 Build 0)  -->
<svg version="1.1" id="Layer_1" xmlns="http://www.w3.org/2000/svg" xmlns:xlink="http://www.w3.org/1999/xlink" x="0px" y="0px"
	 viewBox="0 0 48 48" style="enable-background:new 0 0 48 48;" xml:space="preserve">
<style type="text/css">
	.st0{fill:#808080;}
</style>
<path class="st0" d="M20.3,17.8L19,17.6c-0.1,0-0.2-0.1-0.2-0.1l-1.4-2c-0.4-0.4-0.6-0.3-0.6-0.3c-0.6-0.4-3-1.5-3-1.5
	c-0.7-0.7-0.7-0.3-0.7-0.3c-0.6-0.6-0.7-0.2-0.7-0.2c-0.5,0-1.3-0.5-1.3-0.5c-0.1-0.1-0.1-0.5-0.1-0.5c-0.2,0-0.2,0.4-0.2,0.4
	c-0.1,0-0.1-0.3-0.1-0.3c-0.2,0.3,0.2,0.5,0.2,0.5c0.1,0.7,1.5,0.6,1.5,0.6c0,0.3,0.6,0.2,0.6,0.2c0,0.4,0.7,0.3,0.7,0.3l3,1.5
	c-0.1,0.3,1.4,2,1.4,2C3.1,14.3,0.8,16.6,0.8,16.6c-2.9,2.1,2.9,5.7,2.9,5.7c1.2,1.3,3.9,1.5,3.9,1.5l1.5,1.5
	c1.5,2.1,6.3,0.3,6.3,0.3l2.8-1.4c0,0-0.8,1.8-0.8,1.8c-0.2,0.3-0.1,0.7-0.1,0.7c-0.1,0-2.5,2.2-3.1,2.7c-0.1,0.1-0.2,0.1-0.2,0.1
	c-0.6,0-0.6,0.5-0.6,0.5c-0.7-0.1-0.7,0.5-0.7,0.5c-1.5,0.2-1.6,1.1-1.6,1.1c-0.5,0.5-0.1,0.7-0.1,0.7c-0.1-0.2,0.1-0.3,0.1-0.3
	c0.1,0.4,0.4,0.4,0.4,0.4c-0.2-0.2-0.1-0.6-0.1-0.6c0.8-1,1.4-1,1.4-1c0.6,0.3,0.8-0.4,0.8-0.4c0.3,0.1,0.6-0.3,0.7-0.5
	c0.1-0.2,0.2-0.3,0.4-0.4l3.1-2.6c0.7-0.4,1.8-4.5,1.8-4.5c0.2,0.1,1-0.4,1-0.4c-3.5,5.4-1.6,10.5-1.6,10.5c1.1,4.6,3.6,6.9,4.4,7.6
	c0.3,0.3,0.8,0.3,1.2,0.1c1.9-1,3.8-6.8,3.8-6.8c2.2-4.6-1-10.9-1-10.9c0.1,0.1,0.4,0.2,0.5,0.2c0.1,0,0.1,0.1,0.1,0.1
	c0.1,1.1,1.2,3.5,1.2,3.5c0.4,0.9,0.6,0.8,0.6,0.8l3.1,2.7c0.1,0.1,0.2,0.2,0.2,0.3c0.3,0.5,0.8,0.5,0.8,0.6
	c0.1,0.9,0.8,0.4,0.8,0.4c0.4-0.1,1.5,1,1.5,1c0.1,0.1-0.1,0.5-0.1,0.5c0.3,0,0.3-0.4,0.3-0.4c0.1,0,0.2,0.4,0.2,0.4
	c0.3-0.4-0.1-0.7-0.1-0.7c0-1.1-1.6-1.1-1.6-1.1c0-0.3-0.7-0.5-0.7-0.5c0-0.3-0.3-0.5-0.5-0.5c-0.2,0-0.4-0.1-0.5-0.2l-2.8-2.7
	c0.2-0.5-0.9-2.9-0.9-2.9l4.4,2.2c0.2,0.1,0.5,0.2,0.7,0.2c3.9,0.6,5.6-2.6,5.6-2.6c4.1-0.2,6.9-3.9,6.9-3.9
	c3.9-5.7-8.9-3.9-8.9-3.9l-8.5,1.6l1.2-1.5c0.1-0.1,0.1-0.3,0.2-0.4c0-0.1,0.1-0.1,0.1-0.2c0.6-0.2,2.9-1.5,2.9-1.5
	c0.7,0.1,0.7-0.2,0.7-0.2c0.6,0.1,0.6-0.2,0.6-0.2c1.3,0.2,1.5-0.6,1.5-0.6c0.4-0.1,0.2-0.5,0.2-0.5c0,0.1-0.2,0.3-0.2,0.3
	c0-0.4-0.2-0.4-0.2-0.4c0.1,0.9-1.4,0.9-1.4,0.9c-0.1-0.4-0.7,0.1-0.7,0.1c-0.3-0.2-0.8,0.3-0.8,0.3c-0.3,0-2.5,1.1-2.9,1.4
	c-0.1,0-0.1,0-0.2,0.1c-0.7,0.1-2,2.5-2,2.5c-0.4,0.2-1.7,0.2-1.7,0.2l0.8-0.7c0.1-0.1,0.9-2.4,0.9-2.4c0.1-0.3,0.1-0.5,0.1-0.5
	l1.8-1.6c0.5-0.1,0.4-0.3,0.4-0.3c0.4,0,0.4-0.3,0.4-0.3c0.8-0.1,0.9-0.6,0.9-0.6c0.3-0.3,0-0.4,0-0.4l0,0.2
	c-0.1-0.1-0.2-0.2-0.2-0.2c0.2,0.5-0.8,0.9-0.8,0.9c-0.2-0.1-0.4,0.2-0.4,0.2c-0.3,0-0.5,0.4-0.5,0.4l-1.7,1.6c0,0-0.1,0.1-0.2,0.1
	c-0.4,0.1-0.8,2-0.9,2.4c0,0.1-0.1,0.1-0.1,0.1c-0.2,0-0.5,0.3-0.6,0.5c0,0-0.1,0-0.1,0c-0.1-0.2-0.4-0.3-0.5-0.4c0,0-0.1-0.1,0-0.1
	c3-2.3,0.5-4-0.3-4.5c-0.1-0.1-0.1-0.2-0.1-0.3l0.3-0.4c0.5-0.3,0.4-0.5,0.4-0.5c0.5-0.1,1.2-1.2,1.2-1.2c0.6-1.2-0.4-2-0.4-2
	c-0.3-0.1-0.1,0.5-0.1,0.5c1,1.2-0.8,2.5-0.8,2.5c-0.3-0.2-0.8,0.7-1,1c0,0.1-0.1,0.1-0.2,0.1c-1.2-0.4-2.4-0.1-2.9,0
	c-0.1,0-0.2,0-0.2-0.1c-0.6-1.3-0.9-1.1-0.9-1.1c-0.9-0.5-1.1-1.4-1.1-1.4C20,8.6,20.6,8,20.6,8c0-1.1-0.7,0.4-0.7,0.4
	c-0.3,1.3,1.4,2.4,1.4,2.4c-0.2,0.4,0.3,0.5,0.3,0.5c0.2,0.1,0.4,0.3,0.5,0.5c0.1,0.1,0,0.2,0,0.2c-3.1,2.2-1.3,3.9-0.5,4.4
	c0.1,0.1,0.1,0.3,0,0.3L21,17c-0.1,0.1-0.2,0.1-0.2,0l-0.6-0.4c-0.1-0.1-0.2-0.2-0.2-0.3c-0.3-1.8-1-2.3-1-2.3
	c-0.2-0.3-1.8-1.6-1.8-1.6C17.1,12,16.8,12,16.8,12c-0.1-0.4-0.4-0.2-0.4-0.2c-0.2,0-0.8-0.6-0.8-0.6c-0.1-0.1,0-0.3,0-0.3
	c-0.1-0.1-0.2,0.2-0.2,0.2v-0.2c-0.2,0.2,0,0.3,0,0.3c0.1,0.7,0.9,0.8,0.9,0.8c0.1,0.3,0.3,0.2,0.3,0.2c0.2,0.3,0.5,0.3,0.5,0.3
	l1.7,1.6c0,0,0.1-0.1,0,0s0.8,2.4,0.8,2.4s0.2,0.6,0.8,1C20.4,17.7,20.4,17.8,20.3,17.8z"/>
</svg>
