<?xml version="1.0" encoding="utf-8"?>
<!-- Generator: Adobe Illustrator 19.1.0, SVG Export Plug-In . SVG Version: 6.00 Build 0)  -->
<svg version="1.1" id="Layer_1" xmlns="http://www.w3.org/2000/svg" xmlns:xlink="http://www.w3.org/1999/xlink" x="0px" y="0px"
	 viewBox="0 0 48 48" style="enable-background:new 0 0 48 48;" xml:space="preserve">
<style type="text/css">
	.st0{fill:#808080;}
</style>
<path class="st0" d="M0.2,24.7c0,0,1.1,4.6,2.7,4.1c0,0,1.7,0,5.4-2.5c0,0,1.4-1.1,4.2-0.4c0.1,0,0.1,0.2,0,0.2
	c-0.6,0.2-1.4,0.9-0.6,2.7c0,0,1.8,4.9,9.4,0.7c0.2-0.1,0.5-0.2,0.7-0.2c0.9-0.1,3-0.2,2.9,0.6c0,0-0.2,0.4,0.3,0.1
	c0.1,0,0.1,0,0.2,0c0.3,0.1,0.8,0.5,0.7,0.8c0,0-0.4,0.6,0.2,0.2c0.1-0.1,0.2-0.1,0.3,0c0.4,0.2,1.1,0.9,0.2,1.6c0,0,0,0.4,0.6-0.3
	c0.1-0.1,0.1-0.1,0.2,0c0.3,0.2,1.1,0.7,0.6,1.1c-0.1,0,0,0.1,0,0.2c0.1,0.1,0.3,0,0.7-0.6c0,0,1.2-1.9,1.3-2.5c0,0,0.1-0.1,0.1-0.1
	c0.1,0,0.1,0,0.1,0.2c0,0,0.2,0.8,0.6-1.1c0,0,0.5,0.7,0.3-0.2c0-0.1,0.1-0.2,0.1-0.2c0.9-0.2,5.4-1.2,8.7-3.3c0,0,2.8-1.8,5.7-2.7
	c0.1,0,0.2-0.1,0.4-0.1c0.4-0.2,1.4-0.8,1.1-1c0,0-1.6-0.7-1.7-0.9c0,0,1,0,1.4,0.2c0.1,0,0.1,0.1,0.2,0.1c0.3,0,0.8,0,0.6-0.4
	c0,0-1.5-1.4-5.1-2.1c0,0-2.6-0.5-8.9-1c-0.2,0-0.5-0.1-0.6-0.3c-0.8-0.8-3.3-2.9-5.1-2.8c-0.2,0-0.4,0.1-0.4,0.3
	c-0.2,0.6-0.5,1.8,0.9,2.9c0.1,0,0,0.1,0,0.1c-1.2,0.1-6.5,0.5-8.5,0.4c-0.4,0-0.7-0.1-1.1-0.3c-0.9-0.6-3.3-2.1-5.5-1.8
	c-0.2,0-0.3,0.1-0.4,0.2c-0.7,0.6-2.8,2.9-1.2,4.3c0.1,0.1,0.1,0.3-0.1,0.3c-1,0.1-3.6,0.3-4.6-0.2c0,0-5.1-2.4-6.1-1.2
	C1.1,19.5-0.5,21.7,0.2,24.7z M44.2,22.3c0.3,0,0.5,0.2,0.5,0.4c0,0.2-0.2,0.4-0.5,0.5c-0.3,0-0.5-0.2-0.5-0.4
	C43.7,22.5,43.9,22.3,44.2,22.3z"/>
</svg>
