<?xml version="1.0" encoding="utf-8"?>
<!-- Generator: Adobe Illustrator 19.1.0, SVG Export Plug-In . SVG Version: 6.00 Build 0)  -->
<svg version="1.1" id="Layer_1" xmlns="http://www.w3.org/2000/svg" xmlns:xlink="http://www.w3.org/1999/xlink" x="0px" y="0px"
	 viewBox="0 0 48 48" style="enable-background:new 0 0 48 48;" xml:space="preserve">
<style type="text/css">
	.st0{fill:#808080;}
</style>
<path class="st0" d="M44.4,15.1c-0.1-0.3-0.3-0.7-1.1-0.6c0,0-0.4-1.2-1.5-1.1c0,0,0.3-0.4-0.8-1.2c0,0-0.9-1.7-2.2-1.5
	c-0.2,0-0.3,0-0.5-0.1c-1.9-1-14.2-7.2-22.5-0.6c0,0-1.9,1.5-0.5,2.8l0-0.5c0-0.1,0.1-0.2,0.1-0.2c0.2,0,0.6-0.1,0.9-0.2
	c0.1,0,0.1,0,0.2,0c0.3,0,1.2,0.1,1.7,0.3c0.1,0.1,0.1,0.2,0,0.3c-0.8,0.5-4.3,2.5-4.9,3.8c-0.1,0.1-0.1,0.3-0.2,0.4l-3.4,4.8
	c0,0,0,0.1,0.1,0.1l0.6-0.2c0.1,0,0.1,0,0.1,0.1c-0.4,0.6-2.3,3.4-3.5,4c-0.1,0-0.1,0.1-0.2,0.1c-0.3,0.2-1.4,0.8-3.1-1.1
	c0,0-1.2-1.4-1.7-1.3c-0.1,0-0.1,0.1-0.1,0.1c0.2,0.6,1.3,4.3,4.6,2.6C6.5,26,6.7,26,6.9,26.2C7,26.3,7,26.6,5.9,27
	c-0.1,0-0.2,0.1-0.4,0c-0.6,0-2.3-0.2-3.4-0.8c-0.4-0.2-0.7-0.5-0.8-0.9c-0.3-0.6-0.8-1.6-1.2-1.8c-0.1,0-0.1,0-0.1,0.1
	c-0.1,0.8-0.1,5.6,5.4,4.3c0,0,2.8-1.1,3.4-0.5c0.1,0.1,0.1,0.1,0.2,0.1c0.5,0,2.2-0.2,2.7-0.6c0.1-0.1,0.2-0.1,0.4-0.1
	c0.6,0.1,2.1,0.1,2.9-0.7c0,0,2.1,0.4,2.9-1.3c0,0,2.3,1.4,3.1-1.6c0,0,2.2,2.3,3.1,0.1c0.1-0.2,0.3-0.4,0.5-0.4h0.8
	c0.3,0,0.6,0.3,0.5,0.6c-0.1,0.8-0.2,2.3-0.1,3.2c0.1,0.4,0,0.9-0.1,1.3c-0.7,2.3-2.3,8.5-0.4,7.1c0,0-0.3,1.6-0.3,2.5
	c0,0.3,0.2,0.5,0.5,0.4c0.4-0.1,0.9-0.2,1.5-0.1c0.1,0,0.2,0.2,0.2,0.3c0,0.1-0.1,0.2-0.1,0.3c0,0.1,0.1,0.2,0.1,0.1
	c0.3-0.1,1.2-0.3,1.8-0.3c0.2,0,0.3,0.1,0.3,0.3l0.1,1.2c0,0.1,0.1,0.2,0.2,0.1c0.3-0.1,1.1-0.3,2-0.2c0.1,0,0.2-0.1,0.2-0.2
	c0-0.2,0-0.5,0.2-0.8c0.1-0.1,0.2-0.1,0.2,0c0.4,0.6,1.6,2.4,2.3,2.2c0,0,1.7,0.1,1.5-0.7c0,0-0.3-0.8,0.6-0.6c0.1,0,0.2,0,0.3-0.1
	c0.2-0.2,0.5-0.6,0.4-1.2c0,0,1.8,1.8,2-0.6c0-0.2,0.2-0.3,0.3-0.2c0.5,0.2,1.3,0.3,0.9-1.5c0,0,2.2,1.3,1.3-2.5c0,0,2.6,1.3,1-2.2
	c0,0,1.4,0.2,0.8-1.8c0,0,2.2-0.5,0.3-2.2c0,0,2.3-0.3,0.2-1.8c0,0,2.7-0.4-0.3-2.2c0,0,2.6-0.4,0.7-1.8c0,0,1.8-0.5,0-1.8
	c0,0,1.3-0.3,0.2-1.8c0,0,0.6-1.1,1.5-0.5c0.1,0.1,0.2,0,0.3-0.1l0,0c0-0.1,0-0.1,0-0.2l-2-1.2c0,0,0.9,0.2,1.7,0.5l1.8,0.7
	c0.2,0.1,0.3-0.1,0.2-0.2c-0.3-0.3-1.1-0.8-3.2-1.6C44.6,15.4,44.5,15.3,44.4,15.1z M18.6,10.6c-0.3,0-0.5-0.2-0.5-0.3
	c0-0.2,0.2-0.3,0.5-0.3c0.3,0,0.5,0.2,0.5,0.3C19.1,10.5,18.8,10.6,18.6,10.6z"/>
</svg>
