<?xml version="1.0" encoding="utf-8"?>
<!-- Generator: Adobe Illustrator 19.1.0, SVG Export Plug-In . SVG Version: 6.00 Build 0)  -->
<svg version="1.1" id="Layer_1" xmlns="http://www.w3.org/2000/svg" xmlns:xlink="http://www.w3.org/1999/xlink" x="0px" y="0px"
	 viewBox="0 0 48 48" style="enable-background:new 0 0 48 48;" xml:space="preserve">
<style type="text/css">
	.st0{fill:#808080;}
</style>
<path class="st0" d="M47.5,7.7c0,0-4.4-3.9-4.7-4.7c0,0-2.9-5.9-8.8-1.2c0,0-3.8,3-4.7,8.8c0,0-0.7,4.2-1,5.8c0,0,0.2,3.2-4.5,4.4
	c0,0-5.9,1.8-9.9,4.2c-0.4,0.2-0.8,0.4-1.2,0.4c-1.2,0.2-3.8,0.5-5.6,0.4c-0.2,0-0.3,0-0.5,0.1c-0.3,0.2-0.6,0.5-0.1,0.6
	c0.8,0.1,0.1,0,0.1,0s3-0.2,4.1,0.8c0,0-2.5,0.6-2.8,1c0,0-1.2,1.4-3.7,0.5c-0.1,0-0.3-0.1-0.4-0.2c-0.7-0.4-3.4-1.9-3.6-1.4
	c0,0,0.2,0.2,0.3,0.4c0.1,0.1,0.1,0.3,0,0.4c-0.2,0.2-0.4,0.8,0.8,1.7c0,0,1.4,2.3,2.9,3.2c0,0,2.9,1.9,2.9,3.4c0,0,0,0.1,0,0.1
	c0,0.4-0.2,3.3,0.9,4.1c0,0,2,3.7,6.3,3.6c0,0,4.7,0.1,7-1.2c0.2-0.1,0.5-0.1,0.7,0.1c0.2,0.2,0.4,0.7,0.4,1.6c0,0,0.3,0.8,0.1,1.4
	c0,0,0,0.1,0,0.1c-0.1,0.2-0.4,1.4,2,1.6l6.4,0.3c0.1,0,0.1-0.1,0.1-0.1c-0.1-0.3-0.2-1,0.5-1.3c0,0,0.7-0.5-5-0.2
	c-0.1,0-0.1,0-0.2,0c-0.4-0.1-1.7-0.3-1.2-0.9c0.1-0.1,0.3-0.2,0.5-0.2l5-0.3c0.1,0,0.2-0.1,0.1-0.2c-0.2-0.3-1-0.9-3.8-1
	c0,0-3.6-0.5-2.3-1.4c0,0,14.6-10.2,14-17c0-0.1,0-0.2,0-0.3c-0.2-0.8-0.8-5.2-1.9-7.9c-0.7-1.7-1-3.6-1-5.5c0-0.6-0.1-0.8,0-1.4
	c0.2-1.2,0.9-2.3,2-2.8c1.4-0.7,3.5-1.5,5.1-0.6l4.3,1.8C47.1,8.7,48.4,8.9,47.5,7.7z M39.5,2.3c-0.3,0-0.6-0.2-0.6-0.5
	c0-0.3,0.3-0.5,0.6-0.5c0.3,0,0.6,0.2,0.6,0.5C40.1,2.1,39.9,2.3,39.5,2.3z"/>
</svg>
