<?xml version="1.0" encoding="utf-8"?>
<!-- Generator: Adobe Illustrator 19.1.0, SVG Export Plug-In . SVG Version: 6.00 Build 0)  -->
<svg version="1.1" id="Layer_1" xmlns="http://www.w3.org/2000/svg" xmlns:xlink="http://www.w3.org/1999/xlink" x="0px" y="0px"
	 viewBox="0 0 48 48" style="enable-background:new 0 0 48 48;" xml:space="preserve">
<style type="text/css">
	.st0{fill:#808080;}
</style>
<path class="st0" d="M36.8,17.7c-0.9,1-3.1,3-7.1,2.2c-0.4-0.1-0.8-0.2-1.2-0.3c-2.4-0.9-14.1-5-18.8-4.4c0,0-0.9,0.1-1-2.6
	c0,0,0.3-5.8-4.4-5c-0.1,0-0.3,0-0.4-0.1C3.9,7.3,3.5,7.1,3.2,7.7c0,0-0.8,0.8-1.3,0.4c0,0-0.3-0.7-0.4,0c0,0.1-0.1,0.2-0.1,0.3
	c-0.4,0.5-1.8,2.4-1.1,3.6c0,0,0,1.3,2.1,1.2c0.1,0,0.3,0,0.4,0.1c0.4,0.1,1,0.5,1.2,1.3c0,0,1.4,3.6,2.2,4.4C6,18.9,6.1,19,6,19.1
	c-0.1,0.4-0.2,1.5,0.5,2.7c0.1,0.1,0.1,0.3,0.1,0.5c-0.1,0.2-0.2,0.7-0.1,1.4c0,0,0,1.6-0.4,2.3c0,0,0,0.5,0.2,0.8
	C6.4,26.8,6.5,27,6.5,27c-0.1,0.4-0.1,1.7,0.9,1.9c0.1,0,0.1,0,0.2,0c0.2,0,0.7-0.2,0.6-0.9c0,0-0.4,0.6-0.7,0.1
	c0,0,0.6-0.2,0.5-0.7c0,0-0.5,0.5-0.7-0.1c0,0,0.5,0.1,0.6-0.1c0,0-0.8,0-0.6-0.6c0,0,0.1-0.2,0.2-0.5c0.1-0.2,0.1-0.5,0.1-0.7
	c0-0.3,0.1-0.9,0.3-1.3c0.1-0.1,0.1-0.3,0.1-0.4l0.1-0.4c0-0.1,0.1-0.1,0.2-0.1c0.4,0.4,1.6,1.4,2.1,1.6c0.1,0,0.1,0.1,0.1,0.2
	c-0.1,0.3-0.3,1-0.7,1.4c0,0-0.4,0.7-0.1,0.8c0,0-0.2,0.3-0.7,0.2c0,0,0.1,1.1,1.7-0.2l0.3-0.5l-0.2,1.3c0,0-0.5,0.4-0.3,0.6h-0.5
	c0,0,0.5,0.8,1.1,0.2c0,0,0.6-1.2,0.6-2l0.1,1c0,0.1,0,0.2-0.1,0.3l-0.1,0.1c0,0,0.6,0.2,0.6-0.8v-1.7c0,0,1.5,0.7,2.2,0.9
	c0.2,0,0.3,0.2,0.4,0.3c0.2,0.9,0.7,3.3,3.1,4.3c0.1,0,0.1,0.1,0.2,0.1c0.4,0.2,1.7,1,1.9,2.4c0,0.2,0,0.3,0,0.5
	c-0.1,0.3-0.2,0.9-0.1,1.6c0,0.3,0,0.6-0.1,0.9c-0.2,0.7-0.6,1.7-1,2c0,0-0.3,0.4-0.3,0.7c0,0,0.4,0.3-1.4,0.3c0,0-1.3-0.1-1.2,1
	c0,0,0.2-0.4,0.5,0c0,0,1.5,0.1,2.7,0.1c0.2,0,0.4-0.1,0.6-0.2c0.2-0.2,0.5-0.4,0.7,0c0.1,0.1,0.2,0.2,0.3,0.3
	c0.4,0.1,1.2,0.1,1.3-0.1c0,0,1.7,0,0.8-1.4c0,0,0.3,0,0.4-0.4c0,0-0.3,0.2-0.5,0c0,0,0.5,0-0.1-0.7c0,0-0.4-2.2-0.1-3.4
	c0,0,0.1-0.6-0.3-1.1c0,0-0.9-1.3-0.3-3.1c0,0,0.4-1.7-0.3-3c-0.1-0.1,0-0.2,0.1-0.3c0.5-0.2,2-0.8,2.9-1.5c0.5-0.4,1.1-0.6,1.7-0.7
	c1.5-0.2,4.2-0.5,5.4-1c0.1,0,0.1,0,0.2-0.1c0.6-0.3,4.7-2,6.3-5.2c0,0,2.6-5.1,9.4-4c0,0-3.8-2.4-9.1,1.2
	C38.1,16.4,37.5,17,36.8,17.7z M4.7,9.3c-0.3,0-0.5-0.2-0.5-0.4c0-0.2,0.2-0.4,0.5-0.4s0.5,0.2,0.5,0.4C5.1,9.1,4.9,9.3,4.7,9.3z"/>
</svg>
