<?xml version="1.0" encoding="utf-8"?>
<!-- Generator: Adobe Illustrator 19.1.0, SVG Export Plug-In . SVG Version: 6.00 Build 0)  -->
<svg version="1.1" id="Layer_1" xmlns="http://www.w3.org/2000/svg" xmlns:xlink="http://www.w3.org/1999/xlink" x="0px" y="0px"
	 viewBox="0 0 48 48" style="enable-background:new 0 0 48 48;" xml:space="preserve">
<style type="text/css">
	.st0{fill:#808080;}
</style>
<path class="st0" d="M47.9,14.7c0,0-4.3-0.1-7.2,0.5c1.9-0.4,6.9-1.6,6.3-2.4c0,0-4.7,0.2-7.4,1.3c1.1-0.5,5.6-2.4,4.4-2.5l-8.5,3
	c0.2-0.1,4.4-2.6,3.7-3.2c0,0-5.3,3.5-7.4,4.4c0,0-7.1,3.2-7.6,4.7c0,0-4.1,6.4-5,6.5l-2.5,0.1c0,0-4.9-5-7.6-5.8
	c-0.2,0-0.4-0.1-0.5-0.2c-1.1-0.5-4.6-2.3-6-2.7c0,0-1.8-1.8-1.9-2c0,0,0.3,1,1.2,1.6l-1.8-1c0,0,0.3,0.8,2.1,1.5
	c-0.2,0-2.5-0.5-1.3,0.1L3.1,19c0,0-2.6,0.5-1.8,1c0,0,0.4,0.5,1.2,0.1c-0.1,0.1-0.9,1.4,1,1c0,0,1.1-0.2,1.7-0.1
	c0.1,0,0.3,0.1,0.4,0.2c0.2,0.2,0.7,0.6,1.4,0.6c0.1,0,0.3,0.1,0.4,0.1c0.5,0.4,1.8,1.4,2.9,1.6c0.2,0.1,0.5,0.2,0.6,0.3l3.5,3.7
	c0.1,0.1,0.1,0.3,0,0.4c-0.4,0.4-1.3,1.5-0.3,2.4c0,0,0.1,0.1,0.1,0.2c0.1,0.3,0.3,1.3,0.9,1.2c0,0-0.3-0.2-0.1-0.3
	c0,0,0.3-0.2,0.2-0.4c0,0,0.4-0.3,1,0.4c0,0,3,2,4.9,1.3c0,0,0.6,1.5,1.3,1.3c0,0,0.2,2,2.8,0.6c0,0,2.2,0.8,3.4,0.5
	c0,0,4.4,0.8,5,0.6c0,0,4.7,1.4,4.1,0.8l-6.3-2.2l-5.9-3.1c-0.1-0.1-0.2-0.3,0-0.4c0.1-0.1,0.2-0.2,0.2-0.3c0,0,1.1,0.4,1.6-0.7
	c0,0,2.6-3.9,4-5.3c0.2-0.2,0.4-0.5,0.6-0.9c0.1-0.2,0.3-0.5,0.7-0.6c0,0,0.2-0.4,0.8-0.6c0,0,0.5-0.8,1.3-1c0,0,0.9-0.3,0.7-0.9
	c0,0,2-0.1,2.1-1.2c0,0,2.8-0.7,4.1-1.8c0.1-0.1,0.3-0.2,0.4-0.2c1.2-0.2,5.9-0.8,4.7-1.4L43.3,16C43.3,16,48.7,14.7,47.9,14.7z
	 M15.4,29.8c-0.2,0-0.3-0.1-0.3-0.3c0-0.2,0.1-0.3,0.3-0.3c0.2,0,0.3,0.1,0.3,0.3C15.7,29.7,15.6,29.8,15.4,29.8z"/>
</svg>
