<?xml version="1.0" encoding="utf-8"?>
<!-- Generator: Adobe Illustrator 19.1.0, SVG Export Plug-In . SVG Version: 6.00 Build 0)  -->
<svg version="1.1" id="Layer_1" xmlns="http://www.w3.org/2000/svg" xmlns:xlink="http://www.w3.org/1999/xlink" x="0px" y="0px"
	 viewBox="0 0 48 48" style="enable-background:new 0 0 48 48;" xml:space="preserve">
<style type="text/css">
	.st0{fill:#808080;}
</style>
<path class="st0" d="M46.8,30.7c0,0-2.4-4.3-2-6.1c0,0,1.2-6.4,3-8.3c0.1-0.1,0-0.2-0.1-0.2c-0.8,0.2-3.6,1-9.2,5.1
	c-0.2,0.2-0.5,0.3-0.8,0.4c-0.8,0.3-2.3,0.7-3.5-0.1c0,0,1.4-0.1,1.9-0.8l1.5-2.4c0.1-0.1,0-0.3-0.1-0.3c-0.8-0.4-3.2-1.4-5.2-1.6
	c0,0-0.1,0-0.1-0.1c0-0.1-0.1-0.2-1-0.2c0,0-0.1,0-0.1-0.1c0-0.1-0.2-0.3-1.1-0.2l0,0c0,0,0-0.1-0.1-0.1c-0.3,0-1.1,0.1-1-0.1
	c0,0,0-0.1,0-0.1c-0.2,0-0.8,0.1-0.8-0.2c0,0,0-0.1,0-0.1c-0.1,0-0.5-0.1-0.9,0.3c0,0-0.1,0-0.1,0c-0.1-0.1-0.4-0.3-0.3-0.5
	c0,0,0-0.1-0.1,0l-0.4,0.3c-0.1,0-0.1,0.1-0.2,0c-0.2-0.1-0.5-0.3-0.5-0.7c0,0-0.1-0.1-0.1,0l-0.3,0.3c-0.2,0.2-0.5,0.2-0.6,0
	c-0.2-0.2-0.3-0.4-0.2-0.6c0,0,0-0.1-0.1,0l-0.3,0.2c-0.1,0.1-0.3,0.1-0.4,0c-0.2-0.1-0.4-0.4-0.3-0.8c0,0,0,0-0.1,0L23,14
	c-0.1,0.1-0.3,0.1-0.4,0c-0.1-0.1-0.3-0.4-0.3-0.7c0,0,0-0.1-0.1,0L22,13.5c-0.1,0.1-0.2,0.1-0.3,0c-0.2-0.1-0.5-0.3-0.4-0.9
	c0,0,0-0.1-0.1,0L20.9,13c-0.1,0.1-0.2,0.1-0.3,0c-0.2-0.2-0.6-0.5-0.5-1.1c0,0,0-0.1-0.1,0c-0.1,0.1-0.5,0.4-0.5,0.6
	c0,0.1-0.1,0.1-0.1,0.1c-0.2-0.1-0.8-0.3-0.8-1.1c0,0,0,0-0.1,0c-0.2,0.2-0.6,0.8-0.7,1.2c0,0.1-0.1,0.1-0.2,0.1
	c-0.2,0-0.6-0.2-0.6-0.9c0,0-0.3-0.2-0.7,1.6c0,0.1-0.1,0.1-0.2,0.1c-0.3,0-0.8-0.1-0.6-0.8c0,0-0.3-0.1-0.5,1.9
	c0,0.1-0.1,0.2-0.2,0.1c-0.1,0-0.2-0.2-0.3-0.4c0,0-0.3-0.6-0.1,1.6c0,0.1,0,0.1-0.1,0.1c-0.9,0.2-8,1.9-13.4,8.5
	c-0.1,0.2-0.3,0.3-0.4,0.4c-0.2,0.2-0.5,0.5,0.1,0.7c0,0,0,0.2,0.1,0c0,0,0.1,0.3,0.2,0.1c0,0,0.1,0.2,0.2,0.1c0,0,0.1,0.1,0.2,0.1
	c0,0,0.3,0.2-0.3,0.1c0,0-0.1-0.1-0.1,0c0,0-0.1-0.2-0.2,0c0,0-0.1-0.2-0.2,0c0,0-0.6-0.1-0.5,0.3c0,0-0.2,0.6,1.6,1.1
	c0,0,8.6,2,11.8,2.4c0.4,0,0.7,0.3,0.8,0.6c0.4,1.1,1.4,3.3,2.6,4.1c0.1,0.1,0.2,0.1,0.2,0.2c0.5,0.5,2.5,2.5,2.2,1.4
	c0,0-0.4-1.7-0.3-3.5c0,0,0-1.5-0.8-1.8l-2.3-0.7c0,0,7,0.5,9.6-0.3c0.2-0.1,0.5,0,0.7,0.2c0.4,0.4,1.3,1.2,2,1.6
	c0.2,0.1,0.4,0.1,0.6,0.1c0.2,0,0.4,0,0.7,0.1c0.1,0,0.1,0.1,0.2,0.1c0.3,0,1,0.1,1.5,0.3c0,0,0.1,0,0.1,0c0.6,0,3.7,0.1,4.8-0.1
	c0.1,0,0.1-0.2,0.1-0.2c-0.7-0.5-2.9-2.3-3.4-4c0-0.1-0.1-0.2-0.3-0.2c-0.3,0.1-0.7,0.1-1.4,0c-0.1,0-0.1-0.1,0-0.1
	c0.8-0.4,3.7-1.4,6.4-0.5c0.2,0.1,0.3,0.1,0.5,0.2c0.8,0.5,3.6,2.1,4.4,2.7c0,0,5.2,3.1,5.7,2.7L46.8,30.7z M6.2,22.5
	c-0.6,0-1-0.4-1-0.9s0.5-0.9,1-0.9c0.6,0,1,0.4,1,0.9S6.8,22.5,6.2,22.5z"/>
</svg>
