<?xml version="1.0" encoding="utf-8"?>
<!-- Generator: Adobe Illustrator 19.1.0, SVG Export Plug-In . SVG Version: 6.00 Build 0)  -->
<svg version="1.1" id="Layer_1" xmlns="http://www.w3.org/2000/svg" xmlns:xlink="http://www.w3.org/1999/xlink" x="0px" y="0px"
	 viewBox="0 0 48 48" style="enable-background:new 0 0 48 48;" xml:space="preserve">
<style type="text/css">
	.st0{fill:#808080;}
</style>
<path class="st0" d="M48,30.1L43.6,27c0,0,4.1,0.8,4.1,0l-7.8-2.5c0,0-2.2-1.1-4.1-1.2c0,0,0,0,0,0c-0.5,0-7.7-0.1-7.7-0.1
	s0.1-1.2,1.7-1.9c0,0,0.3-0.1,0.4,0c0,0,1,0.5,1.9-0.2l0,0.2c0,0,1.4-0.9,0.9-2.8c0,0-0.2-2-2.7-1.6c0,0-2.6,0.4-4.7,2
	c0,0-1.3,1.1-1.6,1.4c0,0-1.1,1.1-1.8,0.5c0,0-2.8-1.8-3.5-2.9c0,0-5.1-6.7-6-7l-2-1.1c-0.3-0.2-0.5-0.3-0.8-0.5L4.5,5.9
	c0,0-0.7,0.2,0.3,1.1l2.3,2.1c-0.1,0-4.8-1.2-5.7-1.3c-0.1,0-0.2,0.1-0.2,0.2c0,0.1,0.1,0.3,0.5,0.4l3.4,1.4L0,9.5
	c0,0-0.2,0.4,0.2,0.5l4.5,0.9l-4.4,0.6c-0.1,0-0.2,0.1-0.1,0.2c0.1,0.1,0.3,0.3,0.5,0.3l1.7,0.2c0,0-1.5,0.4-1.5,0.6
	c0,0-0.1,0.8,1.2,0.6c-0.1,0-0.6,0.3-0.4,0.6c0,0,0.1,0.7,1.4,0.4c0,0-0.7,0.3-0.5,0.6c0,0,0.3,0.5,0.6,0.5c0.1,0,0.9-0.2,0.9-0.2
	L3.1,16c0,0-0.1,0.1,0,0.2c0,0,0.2,0.5,0.9,0.3C4.6,16.3,5.7,16,5.8,16c-0.1,0.1-1.7,1.1-1.4,1.4c0,0,0.5,1,1.5,0.2
	c0,0.1-0.5,0.6-0.3,0.8c0,0,0.5,0.7,1.2,0.6c0,0,0.3,0.9,1.2,0.8c0.2,0,0.3,0.1,0.4,0.2C8.4,20.5,8.7,21,9.5,21
	c0.2,0,0.3,0.1,0.4,0.2c0.2,0.4,0.8,1.2,1.5,1.1c0,0,2.2,2.1,2.7,2.1c0,0,0.5,1.3,1.7,0.6c0,0-0.4,0.6-0.1,0.8c0,0,0.2,1,1.4,0.2
	l2.3-1.7c0.1-0.1,0.2,0,0.2,0.1l0,0.1c0,0.1,0,0.2-0.1,0.3L17,27.9c-0.1,0.1-0.2,0.2-0.3,0.3c-0.8,0.7-4.7,4.5-3.8,4.3
	c0,0-1,1-0.5,0.9c0,0-0.7,0.7-0.4,0.7c0,0-0.5,0.6-0.4,0.6l0.5,0c0,0-5.3,6.6-5.3,7.1l0.3,0.1l0.6-0.5l-0.3,0.5c0,0,0.2,0.4,0.7,0
	l3.5-3.5c0,0,0.5,0.1,1.2-1c0,0,0.2,0,0.4-0.1c0,0,1.4-1.4,1.4-1.4s0.3,0.1,0.5-0.1l0.4-0.4c0,0,0.4,0.4,1-0.4c0,0,0.5,0.4,1.1-0.6
	c0,0,0.3,0.2,0.6-0.1c0,0,3.1-3.7,3.1-3.9c0,0,0.2,0.6,0.2,0.8c0,0-1.2,1.2-1,1.5c0,0-0.3,0.6,0.2,0.9c0,0-0.2-0.7,0.1-0.7
	c0,0,0.2,0,0.3-0.4c0,0,0.2-0.2,0.2-0.4c0,0,0.2-0.3,0.1,0c0,0-0.3,0.6-0.2,0.8c0,0-0.1,0.7,0.2,0.9c0,0-0.1-0.6,0.1-0.7
	c0,0,0.2,0,0.2-0.3c0,0,0.1-1,0.9-1.1c0,0,0.2,0.2,0.4,0.1c0,0,0.1,0.4,0.1,0.6c0,0,0.2-0.4,0.2-0.7l0.2,0.1c0,0,0,0.4,0.3,0.3
	c0,0,0.4,0.4,0.1,0.3c0,0-0.6,0.8-0.6,1.1c0,0-0.2,0.7,0.2,0.8c0,0-0.2-0.5,0-0.6c0,0,0.2,0.1,0.5-0.8c0,0,0.4-0.6,0.4-0.2
	c0,0-0.4,1-0.3,1.1c0,0-0.1,0.6,0,0.7l0.2-0.6c0,0,0.3,0,0.3-0.7c0,0,0.1-0.6,0.5-0.7l0,0.5c0,0,0.2-0.5,0.2-0.6c0,0,0.3-0.2,0.3,0
	c0,0,0.1,0.4,0.4,0.3c0,0,0,0.3-0.2,0.5c0,0,0.4-0.2,0.4-0.6c0,0,0.3-0.9-0.8-0.9c0,0-0.3-0.4-0.6-0.3l-0.1-1.3c0,0,0.5-0.3,0.5-0.6
	c0,0,1,0.5,1.7,0.4c0,0,0.4,0.8,1.8,0.6c0.2,0,0.3,0.1,0.4,0.2c0.1,0.3,0.6,0.7,2,0.5c0,0,0,0.7,1.6,0.7c0.1,0,0.2,0.1,0.3,0.1
	c0.3,0.3,0.9,0.8,1.8,0.3c0.2-0.1,0.4-0.1,0.5,0.1c0.5,0.5,1.5,1.2,1.7-0.9c0,0,0.9,1.4,1.2,1.6c0.1,0.1,0.9,0.3,0.9-0.6
	c0,0,0.4,0.6,0.7,0.6c0,0,0.9,0.1,0.7-0.5c0,0,0-0.2,0.2,0.1c0,0,0.4,0.6,1.2,0.5c0,0,0.2-0.1,0.2-0.4c0,0,0.4,0.6,1,0.5
	c0,0,0.7-0.1,0.5-0.5l-0.3-0.8c0,0.1,0.8,0.9,1.6,1c0.1,0,0.2-0.1,0.2-0.3c-0.1-0.4-0.6-1.3-1.7-2.7c0,0-0.2-0.4,0.2,0
	c0,0,2.6,2,3.4,2c0.1,0,0.2-0.1,0.1-0.2l-2.7-2.9c0.1,0,3.4,1.7,3.7,1.5C47.8,30.4,48.1,30.3,48,30.1z M30.1,18c0,0,0,0.5-0.4,0.3
	C29.7,18.3,30,18,30.1,18z M24,32.1c0,0,0-0.1-0.1-0.2c0,0,0-0.9-1.7-1.1c0,0-0.4-0.8-0.3-1l1.5-0.6c0,0,0.5,0.1,0.6,0
	c0,0-0.3,0.6,0.1,0.9c0,0-0.1,0.2,0,0.7C24,30.8,24.1,32,24,32.1z"/>
</svg>
