<?xml version="1.0" encoding="utf-8"?>
<!-- Generator: Adobe Illustrator 19.1.0, SVG Export Plug-In . SVG Version: 6.00 Build 0)  -->
<svg version="1.1" id="Layer_1" xmlns="http://www.w3.org/2000/svg" xmlns:xlink="http://www.w3.org/1999/xlink" x="0px" y="0px"
	 viewBox="0 0 48 48" style="enable-background:new 0 0 48 48;" xml:space="preserve">
<style type="text/css">
	.st0{fill:#808080;}
</style>
<path class="st0" d="M46.7,20.1c0,0-1.5-0.2-4.1,1.1c0,0-1.7,1.1-4.1,0.8c0,0,1.8-0.6,1.8-1.9c0,0,0.2-1.9-1.3-2.1c0,0-0.7,0-1.5,1
	c0,0-0.6,1.2-1.6,1.7c-0.2,0.1-0.5,0.2-0.8,0.2c-2.8-0.1-22.8-0.9-26.9,0.9C8,22,7.8,22.1,7.6,22.1c-0.7,0.2-2.1,0.7-3.4,0.7
	c0,0-3.9-0.2-4.1,0.2c0,0-0.3,0.5,0.4,0.7c0,0,0.3,0.2,0.4-0.1l0.3,0.2c0,0-0.3,0.2-0.3,0.4c0,0-0.4,0.4,0.3,0.6
	c0,0,2.4,0.3,4.2,0.3l6.1,0.7c0.3,0,0.5,0.3,0.5,0.6c-0.1,0.8,0,2.3,0.7,2.6c0,0,1,0.9,2-0.1c0,0,0.9-1,0-2.4
	c-0.1-0.1,0-0.2,0.1-0.2c1.3,0.1,6.1,0.4,7.4,0.4c0.2,0,0.3,0.1,0.3,0.3c0.1,0.6,0.3,2.2,0.9,2.8c0.2,0.2,0.5,0.3,0.8,0.3
	c0.5-0.1,1.5-0.4,1.4-2c0,0-0.2-0.9-1.5-1.2c-0.1,0-0.4-0.1-0.4-0.1c0.8,0,11.2-0.3,11.7-0.3c0.1,0,0,0.1,0.1,0.2
	c0.3,0.8,1.2,3.2,2.8,3.2c0,0,2.2-0.3,1.7-2.5c0,0-0.7-1.3-1.7-1.7c-0.1,0,0-0.1,0-0.1c0.9,0,2.6,0.2,3,0.5c0,0,3.6,2.5,5.4,1.5
	c0,0,1.2-1.3,1.4-3.8C48,23.6,47.7,20.1,46.7,20.1z M1.3,24l-0.1-0.5l0.1,0.1l0.1-0.1L1.3,24z M1.6,24c-0.1,0.1,0-0.4,0-0.4l0.1,0
	C1.7,23.7,1.6,24,1.6,24z M1.8,24C1.8,24,1.8,24,1.8,24c-0.1-0.1,0-0.4,0-0.4c0.1,0.3,0.2,0,0.2,0C1.9,23.7,2,24,1.8,24z M2.1,24
	C2,24,2,23.9,2,23.8c0-0.1,0-0.2,0.1-0.2c0,0,0.1,0.1,0.1,0.2C2.1,23.9,2.1,24,2.1,24z M2.2,24c0,0,0-0.1,0-0.2c0-0.1,0-0.2,0-0.2
	c0,0,0,0.1,0,0.2C2.3,23.9,2.3,24,2.2,24z M2.4,24c0,0-0.1-0.1-0.1-0.2c0-0.1,0-0.2,0.1-0.2c0,0,0.1,0.1,0.1,0.2
	C2.5,23.9,2.5,24,2.4,24z M2.7,24c0,0-0.1-0.1-0.1-0.2s0-0.2,0.1-0.2s0.1,0.1,0.1,0.2S2.7,24,2.7,24z M3,24c0,0-0.1-0.1-0.1-0.1
	c0-0.1,0-0.1,0.1-0.1s0.1,0.1,0.1,0.1C3.1,23.9,3,24,3,24z M3.3,24C3.2,24,3.2,23.9,3.3,24c0-0.1,0-0.2,0-0.2
	C3.3,23.8,3.3,23.8,3.3,24C3.3,23.9,3.3,24,3.3,24z M3.5,23.9C3.4,23.9,3.4,23.9,3.5,23.9c-0.1-0.1,0-0.2,0-0.2
	C3.5,23.8,3.5,23.8,3.5,23.9C3.5,23.9,3.5,23.9,3.5,23.9z M3.8,23.9C3.7,23.9,3.7,23.9,3.8,23.9c0-0.1,0-0.1,0-0.1
	C3.8,23.8,3.8,23.8,3.8,23.9C3.8,23.9,3.8,23.9,3.8,23.9z M3.9,23.9C3.9,23.9,3.9,23.9,3.9,23.9C3.9,23.8,3.9,23.8,3.9,23.9
	C3.9,23.8,4,23.8,3.9,23.9C4,23.9,3.9,23.9,3.9,23.9z M6.7,24c-0.1,0-0.2-0.1-0.2-0.2c0-0.1,0.1-0.2,0.2-0.2c0.1,0,0.2,0.1,0.2,0.2
	C7,23.9,6.9,24,6.7,24z"/>
</svg>
