<?xml version="1.0" encoding="utf-8"?>
<!-- Generator: Adobe Illustrator 19.1.0, SVG Export Plug-In . SVG Version: 6.00 Build 0)  -->
<svg version="1.1" id="Layer_1" xmlns="http://www.w3.org/2000/svg" xmlns:xlink="http://www.w3.org/1999/xlink" x="0px" y="0px"
	 viewBox="0 0 48 48" style="enable-background:new 0 0 48 48;" xml:space="preserve">
<style type="text/css">
	.st0{fill:#808080;}
</style>
<path class="st0" d="M47.3,26.5c0,0,1.3-0.3-0.2-0.8c0,0,1.5-0.3-0.4-0.8c0,0,1.5-0.6-0.4-0.9c0,0,1.4-0.5,0.1-0.8
	c-0.1,0-0.2-0.1-0.2-0.2C46,22.7,45.4,22,45,22c0,0,0.3-0.9-0.9-0.6c0,0-0.1-1-1.1-0.5c0,0,0.2-0.9-0.9-0.6c0,0-3-1.5-6.1-2
	c-0.2,0-0.4-0.1-0.6-0.1c-1.6-0.4-9-2-13.8-1.4c0,0-0.5,0-0.8,0.2c-0.1,0.1-0.1,0.1-0.2,0C20.5,17,20.3,17,20,17.3
	c0,0-0.6-0.2-0.8,0.2c0,0-0.7-0.1-0.8,0.3c0,0-0.5-0.2-0.6,0.2c0,0-0.8-0.1-0.9,0.2c0,0-0.7-0.1-0.8,0.3c0,0-0.7-0.2-0.7,0.3
	c0,0-0.6,0-0.8,0.3c0,0-0.1,0.1-0.1,0.1c-0.2,0.2-1.1,0.5-2.1,0.4c-0.2,0-0.3,0.1-0.4,0.2l0,0.1c0,0.1-0.1,0.1-0.2,0.1
	c-0.3-0.1-0.8-0.1-1,0.4c0,0-0.8,0-1,0.3c0,0-0.4-0.5-0.6-0.1c0,0.1-0.1,0.2-0.2,0.2c0,0,0,0,0,0c-0.1,0-0.3,0-0.3-0.1
	c-0.1-0.2-0.5-0.6-1.6,0.5c0,0-0.8,0-0.9,0.5c0,0-0.5,0.1-0.7,0.3C5.1,22,5.1,22,5,22l-1.7,0.5c0,0-0.1,0-0.1,0
	c-0.1,0-0.5-0.1-0.7,0.2c0,0.1-0.1,0.1-0.2,0.1c-0.4,0-1.4-0.1-1.8,0.5c0,0-0.1,0.1-0.1,0.1c-0.2,0.1-0.5,0.4-0.1,0.8
	c0,0,0.1,0.1,0.1,0.1c0,0.1,0,0.4,0.2,0.2c0-0.1,0.1-0.1,0.2,0C0.8,24.5,1,24.6,1,24.7c0,0,0,1.1,0.2,0.1c0,0,0.3-0.4,0.5,0
	c0,0,0.2,1.2,0.4-0.1c0,0,0.1-0.4,0.3-0.3c0,0,0.1,0,0.1,0c0,0,0.1-0.1,0.1-0.2c0,0,0-0.1,0.1,0l0.3,0.2c0,0,0.1,0.1,0.1,0.1
	c0,0.2,0.1,0.6,0.2,0c0,0,0.3,0.7,0.4,0.1c0,0,0.4,0.2,0.5,0c0,0,0.5,0.4,0.8-0.2c0,0,0.1,0.1,0.2-0.1l0.2-0.1c0,0,0.1,0.1,0.2,0
	c0,0.1-0.1,0.2,0,0.2c0,0-0.2-0.1-0.3,0.1c0,0-0.3,0.1-0.3,0.3c0,0-0.3,0-0.3,0.1c0,0-0.3-0.2-0.3,0.1c0,0-0.3-0.5-0.4,0.3
	c0,0-0.3-0.3-0.2,0.3c0,0-0.5-0.2-0.2,0.3c0,0.1,0,0.1,0,0.2c0,0-0.1,0.1-0.2,0.1c0,0-0.1,0-0.1,0c0,0.1-0.1,0.1-0.2,0.1
	c0,0-0.1,0-0.1,0c0,0.1-0.1,0.1-0.2,0.1c0,0-0.1,0-0.1,0c0,0.1-0.1,0.1-0.2,0c0,0-0.8-0.5-0.7-0.3c0,0,0.3,0.6,0.2,0.7
	c0,0-0.3-0.2-0.1,0.2c0,0,0,0.3-0.2,0.2c0,0-0.8-0.1,0.1,0.6c0,0,0.5,0.6,2,0.3l3.2-0.7c0.1,0,0.1,0,0.2,0c0.2,0,0.6,0,1.1-0.3
	C8,27,8.1,27,8.2,27c0.4-0.1,1.4-0.4,1.8-0.3c0,0,1.8,0.4,3.6-0.6c0.1-0.1,0.2-0.1,0.4-0.1l1.2,0.1c0.1,0,0.1,0.1,0.1,0.2
	c-0.1,0.3-0.4,0.8-1,1c0,0-0.1,0.1,0,0.2c0,0-0.4,0.2-0.3,0.4c0,0,0.2-0.2,0.4-0.1c0,0,0.1,0.1,0.3,0c0,0-0.2,0.4,0,0.6
	c0,0,0.1-0.3,0.2-0.3c0,0,0.2,0.1,0.3-0.1c0,0,0.1,0.4,0.3,0.5l0-0.2c0,0,0.2-0.1,0.3-0.3c0,0,0.2-0.7,0.7-0.2l0.3,0.2
	c0,0,0.1,0,0.1,0c0-0.1,0-0.3,0-0.4c0,0,1.1,0,0.8-0.3c0,0,1.7-0.4,1.8-1.6c0-0.1,0.1-0.2,0.2-0.2l5.9-1.1c0.1,0,0.2,0.1,0.1,0.2
	c-0.2,0.3-0.4,0.6,0.3,0.2c0,0-0.7,1,0.2,0.4c0,0,0.4,0.1,0.6-0.1c0,0,0.1,0.5,0.7,0.3c0,0,0.2-0.1,0.3,0.3c0,0,0.8-0.2,1-0.6
	c0,0,1-0.1,1.2-1c0,0,0.4-0.1,0.2-0.4c0,0,0.4-0.4,0.3-0.7c0-0.1,0-0.2,0.1-0.2c1.9-0.1,13-0.8,15.5,8c0.1,0.2,0.2,0.3,0.4,0.4
	c0.4,0.2,1,0.4,1.1,0c0,0,0.1-0.2,0-0.4c0,0,0.6,0.1,0-0.4C47,30.3,47,30.2,47,30.1c0-0.2,0.2-0.4,0.6-0.3c0,0,0.2-0.3-0.4-0.8
	c0,0,0.7,0.1,0.2-0.4c0,0,1.1-0.1-0.2-0.7c0,0,1.4,0.1,0.1-0.8C47.3,27.1,48.8,27.3,47.3,26.5z M6.8,22c0,0,0.5-0.6,1.2,0
	C8,22,7.3,22.6,6.8,22z"/>
</svg>
