<?xml version="1.0" encoding="utf-8"?>
<!-- Generator: Adobe Illustrator 19.1.0, SVG Export Plug-In . SVG Version: 6.00 Build 0)  -->
<svg version="1.1" id="Layer_1" xmlns="http://www.w3.org/2000/svg" xmlns:xlink="http://www.w3.org/1999/xlink" x="0px" y="0px"
	 viewBox="0 0 48 48" style="enable-background:new 0 0 48 48;" xml:space="preserve">
<style type="text/css">
	.st0{fill:#808080;}
</style>
<path class="st0" d="M47.2,25c0,0-3-1.4-5.9-1.5c-0.3,0-0.6-0.1-0.8-0.3l-1.4-1.2c0,0,2.9,0,3.9,0.3c0.1,0,0.1,0,0.2,0
	c0.3,0,1.2-0.2,1.4-0.1c0,0-0.4-0.3-1-0.1c-0.2,0-0.4,0-0.5,0c-0.4-0.1-1.5-0.3-4.2-0.4c0,0-1.2-0.7-1.5-1.1c-0.1-0.1,0-0.3,0.2-0.2
	c0.1,0,0.2,0.1,0.4,0.3c0,0,0.4,0,0.7,0.2c0.2,0.1,0.4,0,0.5-0.2c0.2-0.4,0.4-1,0.1-1.4c0,0,0.2-1.8-1.5-1.5c0,0-1.5-0.6-1.2,1.4
	c0,0-1.3-0.3-1.1,0.1c0,0-2.9-1.8-4.4-1.3c0,0-1.1-2.5-4.2-5.4c-0.8-0.7-1.5-1.6-2-2.5c-1.7-2.8-5.8-8.7-9.8-8.3
	c0,0-2.3,0.2-1.9,3.6c0,0-6.2-4.6-8.1-2.9c0,0-2.4,1.6,1.2,5.9c0.3,0.3,0.5,0.7,0.8,1c1.4,2,8,9.7,22.6,9.5c0.1,0,0.3,0,0.4,0.1
	l0.3,0.2c0.1,0.1,0,0.2,0,0.2c-0.4,0-1,0.1-1.2,0.4L20,20.3c-0.1,0-0.2,0-0.3,0c-1-0.1-6.1-0.5-8.2-0.2c-0.4,0.1-0.7,0.1-1.1,0.1
	c-2-0.1-8.1-0.4-9.9,0.3c-0.4,0.1-0.5,0.6-0.3,1c0.5,0.7,2.1,2.1,6.2,3c0.4,0.1,0.8,0.2,1.2,0.4c1,0.5,3.8,1.5,8.6,1
	c0,0,5.6-0.3,13-4.9c0.1,0,0.1,0,0.2,0c0.2,0.1,0.7,0.3,0,0.4c-0.1,0-0.2,0-0.2,0.1c-0.5,0.5-2.9,2.9-4,3.7c0,0-11.9,8.8-16.7,10.9
	c0,0-2.5,2-3,3c0,0-1,2-1.1,3.3c0,0-0.5,2.7,0.1,2.8c0,0-0.1,1.4,0.6,1.3l0-0.4c0,0,0.7-0.5,0.7-1.6c0,0,0-2.7,0.7-4.1
	c0,0,1.4-2.3,3.1-3.2l4.8-2.8l6.2-3.9l5.3-3.9c0,0,0.1,0,0.1,0.1c-0.4,0.7-1.6,3.1-1.9,4c0,0-0.9,2.8-1.3,2.8c0,0-1.2,0.3-1.1,1
	c0,0,0.3-0.8,1.2-0.8c0,0,0.5,0,0.7-1c0,0,1.5-3.7,2.5-5.6c0.3-0.6,0.9-1.1,1.6-1.4c1.8-0.7,5.7-2.1,6.2-2c0,0-3.2,4.2-3.8,5.7
	c-0.1,0.1-0.1,0.3-0.1,0.4l0,8c0,0-1,1.4-1,2l0.1-0.2l0.2,0.2c0,0-0.2-0.2-0.1-0.4c0,0,0.5-1.2,0.8-1.5c0,0,0.1-0.2,0.1-0.5l0-7.5
	c0,0,0.4-0.3,0.5-0.7c0,0,1.7-3,2.6-4l1.4-1.7c0,0,0.5-0.6,0.5-1.3c0-0.1,0.1-0.1,0.2-0.1c0.2,0.1,0.5,0.2,0.6,0.1
	c0,0-0.8,4-0.4,4.4c0.4,0.5,3.3,2.7,3.8,3.5c0,0-0.1,0.8,0.3,1.1c0,0-0.1-0.4-0.1-1.1c0,0-1.1-1.2-3.5-3.4c-0.1-0.1-0.1-0.2-0.1-0.3
	c0-0.1,0.1-0.3-0.1-0.5l0.5-3.3c0-0.1,0.1-0.1,0.2-0.1c0.1,0.1,0.2,0.2,0.3,0.5c0,0,0.9,3.9,1.8,4.5c0,0,3.9,3.4,4.5,4.1l0.7,1.1
	c0,0,0.4,0.3-0.6-1.2c0,0-4.2-4.1-4.6-4.3c0,0-0.1-0.2-0.1-0.3c0-0.1,0-0.1,0-0.2c-0.2-0.3-0.5-0.9-0.8-1.9c0,0-0.7-3-1.4-3.5
	c-0.1,0-0.1-0.1-0.1-0.2l0-0.1c0-0.1,0.1-0.1,0.1,0c0.1,0.2,0.2,0.4,0.5,0.3c0,0-0.1,1.1,1.3,0.8c0.2,0,0.3,0,0.5,0.1
	c0.5,0.5,1.6,1.6,2.1,1.5c0,0,4.2,0.3,7.3,1.8C48,25.5,48.2,25.3,47.2,25z M37.7,18.5c0.1,0,0.2,0.1,0.2,0.3s-0.1,0.3-0.2,0.3
	c-0.1,0-0.2-0.1-0.2-0.3S37.6,18.5,37.7,18.5z M29.4,24.2c0,0,0.7-1.5,1.8-1.7c0,0,0.8,0,0.9-0.3c0,0,0.8,0.2,1,0l0.8,0.6
	C33.9,22.9,31.9,23.1,29.4,24.2z"/>
</svg>
