<?xml version="1.0" encoding="utf-8"?>
<!-- Generator: Adobe Illustrator 19.1.0, SVG Export Plug-In . SVG Version: 6.00 Build 0)  -->
<svg version="1.1" id="Layer_1" xmlns="http://www.w3.org/2000/svg" xmlns:xlink="http://www.w3.org/1999/xlink" x="0px" y="0px"
	 viewBox="0 0 48 48" style="enable-background:new 0 0 48 48;" xml:space="preserve">
<style type="text/css">
	.st0{fill:#808080;}
</style>
<g>
	<path class="st0" d="M41,15.3c0,0,0.1,0,0.1-0.1c0.6-0.3,6.1-2.6,6.8-4.6c0.1-0.2,0-0.4-0.1-0.6c-0.5-0.6-2.4-2.1-7.4-0.4l-3.8,1.2
		c-0.1,0-0.3,0.1-0.4,0.1c-1.3,0-8.1,0.3-10.1,1.9c0-0.1,0.5-1-0.6-2c0,0,1.7,0.2,1.8-0.3c0,0,0.4-1.6,0.4-2.5c0-0.1,0-0.3,0.1-0.4
		c0.2-0.3,0.6-0.9,0.6-1c0,0-0.3-0.4-0.3-0.1c0,0,0.2,0.1,0.1,0.2l-0.7,1.1c0,0-0.1,0-0.1,0.3c0,0,0.1,1,0,1.3c0,0-0.1,0.5-0.1,0.7
		c0,0,0.1,0.6-1.6,0.3c0,0-0.1-0.1,0.1-0.1c0,0,0.8-0.1,0.5-1.1c0,0-0.1-0.9-0.9-1.1c0,0-0.1-0.1-0.1-0.1c0-0.2,0-0.7-0.4-0.7
		c0,0-0.1,0-0.1,0c-0.2-0.1-1-0.6-1.9,0.1c0,0-0.5-0.1-0.3,0.7c0,0.1,0,0.1-0.1,0.1c-0.3,0.2-1.5,0.8-0.7,2c0,0.1,0,0.2-0.1,0.2
		c-0.4,0-1.2,0-1.2-0.4c0,0-0.3-1.3-0.1-2.1c0,0,0.1-0.1-0.1-0.3c0,0-0.9-1-0.6-1.3c0,0,0-0.2-0.1-0.1c0,0-0.3,0.2-0.2,0.3
		c0.1,0.1,0.5,0.8,0.6,1c0,0,0,0.1,0,0.1c0,0.4-0.1,2.1,0.3,2.8c0.1,0.1,0.3,0.2,0.4,0.2c0.4,0,1.6,0,1.7,0c0,0-1.4,1.1-0.6,2.1
		c-0.1,0-2.8-1.3-4.9-1.3c-0.1,0-0.2,0-0.3,0c-1-0.1-6.3-0.7-7.5-1.1c0,0-5.3-2-7.5-1.1c0,0-1.9,0.4-1.7,1.5c0,0.2,0.1,0.3,0.2,0.5
		c0.3,0.4,1.3,1.5,3.3,2.4c0,0,0.1,0,0.1,0c0.3,0.1,1.8,1,3.3,1.3c0.2,0,0.3,0.1,0.4,0.2c1,0.6,5.8,3.3,14.9,0.6
		c-0.4,0.1-7,2.2-8.4,2.5c-0.1,0-0.2,0-0.3,0c-1.2,0.1-11,1-12.2,3c0,0-1.6,1.7,0.6,2.6c0,0,2.6,1.6,7.9,1.5c0.1,0,0.3,0,0.4,0
		c1.1,0.2,7,1.1,11.9-1.8c0.2-0.1,0.4-0.3,0.6-0.6c0.3-0.5,0.7-1.3,0.4-1.8c0,0-0.6-2.2-0.1-1.9c0,0,0.3,0.9,0.5,1.4
		c0.1,0.1,0.1,0.3,0.1,0.4c0,0.4,0.1,1.1-0.1,1.9c-0.2,1.2,0,0.2,0,0.2l-0.2,8.7c0,0-0.1,9.1,0.4,9.9c0,0,0.3,0,0.3-0.6
		c0,0,0.3,1.3,0.4,0.1c0,0,0.4-0.9,0.3-2.1c0,0,0.4-8.3,0.3-9.3c0,0,0.5-5-0.3-7.9c0,0-0.2-0.9,0.2-1.5c0-0.1,0.1-0.2,0.1-0.2
		c0.1-0.3,0.3-0.9,0.3-1.1c0,0,0.2-0.2,0.1,0.6c0,0,0,0.8-0.2,1.1c-0.1,0.1-0.1,0.3-0.1,0.5c0,0.6,0.4,2,2.7,2.7c0,0,5.3,2,10.6,0.7
		c0,0,0.1,0,0.1,0c0.9-0.1,10.4-0.9,9-3.6c0-0.1-0.1-0.1-0.1-0.2c-0.5-0.5-3.1-3.1-10.9-2.8c-0.1,0-0.2,0-0.3,0
		c-1.2-0.2-7.9-1.4-8.3-1.9C27.7,16.1,36.2,18.3,41,15.3z M23.5,7.9c-0.3,0.3-0.7,0.1-0.7,0.1c-0.1-0.1,0-0.4,0-0.4
		c0.2,0,0.7-0.2,0.7-0.2C23.6,7.5,23.5,7.9,23.5,7.9z M24.8,8.1C24,8.3,24,7.7,24,7.7c0-0.3,0.2-0.2,0.2-0.2
		c0.2,0.1,0.5-0.1,0.5-0.1C25,7.4,25.1,8,25.1,8C25.1,8.1,24.8,8.1,24.8,8.1z"/>
</g>
</svg>
