<?xml version="1.0" encoding="utf-8"?>
<!-- Generator: Adobe Illustrator 19.1.0, SVG Export Plug-In . SVG Version: 6.00 Build 0)  -->
<svg version="1.1" id="Layer_1" xmlns="http://www.w3.org/2000/svg" xmlns:xlink="http://www.w3.org/1999/xlink" x="0px" y="0px"
	 viewBox="0 0 48 48" style="enable-background:new 0 0 48 48;" xml:space="preserve">
<style type="text/css">
	.st0{fill:#808080;}
</style>
<path class="st0" d="M42.4,22.2c0,0-0.7-0.1,0.1-0.5c0,0-1.7-0.3-3.3,0.2l-5.6,1l-8.3,1.2c-0.1,0-0.3,0-0.4,0.1
	c-0.5,0.1-1.7,0.5-2.4,0.5c-0.1,0-0.3,0-0.4,0.1c-0.4,0.1-1.4,0.4-2.5,0.3c0,0-2.5,0.4-2.3-0.1c0-0.1,0.1-0.1,0.2-0.1
	c0.5,0,2.6,0.1,3.3-0.5c0,0,4.5-3.6,4.9-10.9c0,0,1-9.7-0.6-11.1c-0.2-0.2-0.5-0.2-0.8,0c-0.7,0.5-3.2,2.7-3.8,7.7
	c0,0-2.7,9.5-3.7,11.8c0,0.1-0.1,0-0.1,0c0.4-1.6,1.7-7.4,0.3-12.5c0-0.1-0.1-0.2-0.1-0.3c-0.3-1.2-2.3-10.1-3.9-9c0,0-2,1-0.7,8.5
	c0,0,0.8,5.6,0.7,6.6c0,0-0.3,7.2,0.5,9.2c0.1,0.2,0,0.3-0.2,0.3c-0.8,0-2.7,0.3-3.8,1.9c0,0-0.1,0-0.1,0c0,0-0.1-0.1-0.1-0.1
	c-0.1,0-0.1,0-0.2-0.1c-0.1-0.2-0.4-0.6-1.4-0.6c-0.1,0-0.1,0-0.2-0.1c-0.3-0.1-1-0.5-0.8,0c0,0.1,0,0.2-0.1,0.3
	C6,26.5,5,27.6,5.2,28.5c0,0.1,0,0.2,0,0.2c0,0.4,0.1,1.3,1.2,1.2c0.1,0,0.1,0.1,0.1,0.1c-0.1,0.2-0.4,0.6-0.6,0.8c0,0,0,0,0,0
	c0.2-0.1,0.4-0.3,0.5-0.6c0,0,0.1-0.1,0.1,0C6.9,30.5,7.4,31,8.2,31c0.1,0,0.1,0.1,0.1,0.1c-0.2,0.4-0.6,1.3-0.2,1.8
	c0,0,0.1,0.1,0.1,0c0.2,0,0.5-0.3,0.9-1.2c0.1-0.1,0.1-0.3,0.2-0.4C9.4,31,9.6,30.5,9.5,30c0,0,0-0.1,0.1-0.1
	c0.7,0.2,4.1,1.5,4.9,1.4c0,0,0.1,0,0.1-0.1c0.1-0.1,0.4-0.6-0.9-1c-0.2-0.1-0.2-0.3-0.1-0.4c0.1-0.1,0.5-0.3,1.1-0.2
	c0.1,0,0.1,0,0.2,0.1l3.9,6.1c0,0,4.2,7.2,4.6,8.6c0,0,3.1,5.3,4,3c0.1-0.3,0.2-0.7,0.1-1c-0.2-1.5-1.2-7.4-3-9.4
	c-0.1-0.1-0.2-0.3-0.3-0.4c-0.6-1-2.7-4.2-2.9-4.6c0,0,5.5,4.4,6.4,5.6c0,0,4.5,5.4,8.4,4.6c0,0,1.1-0.6-1-3.4l-4.3-5.9
	c0,0-4.7-5.8-9.4-5.7c0,0,2.2-0.6,3.7-0.7c0.1,0,0.3,0,0.4-0.1c0.4-0.2,1.5-0.5,2.4-0.5c0.2,0,0.3,0,0.4-0.1
	c0.3-0.2,1.1-0.5,2.4-0.4c0.2,0,0.4,0,0.6-0.1c0.3-0.1,0.9-0.4,1.8-0.3c0.2,0,0.4,0,0.6-0.1c0.3-0.2,1-0.5,2-0.5
	c0.1,0,0.3-0.1,0.4-0.1c0.2-0.2,0.7-0.4,1.6-0.4c0.1,0,0.2,0,0.3-0.1c0.4-0.2,1.5-0.7,3-0.8C40.9,23,43.8,22.3,42.4,22.2z
	 M41.2,22.4c0,0-0.6,0.6-1,0.4c0,0-0.2-0.2-0.1-0.6C40.1,22.1,41.6,22,41.2,22.4z"/>
</svg>
