<?xml version="1.0" encoding="utf-8"?>
<!-- Generator: Adobe Illustrator 19.1.0, SVG Export Plug-In . SVG Version: 6.00 Build 0)  -->
<svg version="1.1" id="Layer_1" xmlns="http://www.w3.org/2000/svg" xmlns:xlink="http://www.w3.org/1999/xlink" x="0px" y="0px"
	 viewBox="0 0 48 48" style="enable-background:new 0 0 48 48;" xml:space="preserve">
<style type="text/css">
	.st0{fill:#808080;}
</style>
<path class="st0" d="M47.3,32.4c0,0-1.3-0.4-2.3,0c0,0-4.2-0.7-5.3-0.5c0,0,0.5-0.4-3.5,0c0,0-0.1-0.4-3.7,0.2c0,0,0.1-0.6-4.1,0.2
	c0,0-1.9,0-3.5,0.3c0,0-0.1,0-0.1,0c-1.5,0.3-3.2,0-3.9,0c0,0-0.5-0.5-1.3-0.3c0,0-0.9-0.4-1.6-0.1l-0.9-0.1c0,0,0.1-0.5-0.2-0.6
	c0,0,1.5-1.3,4.1-1.4c0,0,0.4,0,0.4-0.6c0,0,0.3-0.1,0.4,0c0,0,0-1.1,0.7-1.7c0,0,14.5-6.4,17-11.3c0,0,0.1-1.5-5.9,2.4
	c0,0-0.6-0.2-0.9,0.4c0,0-2.4,0.4-2.9,1.2c0,0-2.7-0.3-8.7,6.5c0,0-0.6-1.3-2.3,0.5c0,0-3.2,3-3.8,3.2l1.3-1.3l5.8-7
	c0,0,2.3-3,3.2-5.7c0,0,2.2-8.6,1.9-12c0,0,0.4-4.6-2.2-4.5c-0.4,0-0.7,0.1-1,0.3c-1,0.6-3.4,2.6-4.5,7.4c0,0-2.9,10.5-4,12.6
	c-0.1,0.2-0.1,0.3-0.2,0.5c-0.6,1.3-2.5,6-2.4,7.3l-1.9-2.2c-0.2-0.3-0.4-0.5-0.6-0.8c-0.9-1.4-3.5-5.8-4.1-7.6
	C6.1,17.4,6,17.2,5.9,17c-0.5-1-1.9-3.9-0.9-1.4c0.1,0.4,0.3,0.8,0.3,1.2c0.4,1.9,1.8,8,4.1,9.9c0.2,0.1,0.3,0.3,0.4,0.5
	c0.2,0.7,0.7,2.2,1.3,2.9c0.1,0.1,0.1,0.3-0.1,0.4c-0.6,0.2-1.7,0.9-2.2,2.5c-0.1,0.2-0.3,0.3-0.5,0.2c-0.6-0.2-1.7-0.3-2.8,0.6
	c-0.1,0.1-0.2,0.1-0.3,0C5,33.5,4.4,32.9,4.2,33c0,0,0.6,0.5,0.9,0.8C5.1,33.9,5.1,34,5,34c-0.4,0-1.3,0-1,1.2c0,0.1,0,0.2,0,0.3
	c-0.1,0.1-0.2,0.4-0.1,0.6c0,0-1.8,0-2.4,0.2c-0.1,0-0.1,0-0.2-0.1C1.1,35.7,0.7,34.2,0,35c0,0,0.4-0.2,0.7,0.3c0,0,0.5,1,0.5,1.1
	c0,0,0,0.3,0.7,0.1c0,0,1.8-0.2,2,0c0,0-0.1,0.8,0.4,1.1c0.1,0,0.1,0.1,0.1,0.2c-0.1,0.3-0.1,1.1,0.8,1.3c0,0,1,0.9,2-0.1l1.4-1.2
	c0,0,0.1,0,0.1,0c0.1,0.2,0.1,0.7-0.5,0.9c0,0-0.8,0.2-0.8,0.5c0,0-2.8,1.4-3.6,1.9c-0.2,0.1-0.3,0.2-0.5,0.2
	c-0.4,0.1-0.9,0.3-1.1,0.5l-0.4,0.1l0.4,0l0,0.4L2.4,42c0,0,0.9-0.5,1.5-0.5c0,0,0.1,0,0.1,0l3.7-2c0,0,1.2-0.1,1.6-0.8
	c0,0,0.1,0.7,0.3,0.8c0,0,0.5,0.5,0.7,0.9c0.1,0.2,0,0.4-0.1,0.5l-1.6,1.5c0,0-1.6,1.4-1.7,1.6l-1.3,0.8l-0.4,0l0.4,0.1l0.1,0.6
	L5.8,45l1.3-0.8c0,0,0,0.2,0.4-0.3l3.2-2.9c0,0,0.7,1.4,0.2,2l-3.5,2.6c0,0-0.2,0.1-0.2,0.3c0,0-0.9,0.6-1.7,0.7l0.3,0.1l-0.2,0.5
	L6,46.8c0,0,1.4-0.5,1.8-1l3.9-2.9c0,0,0.2-0.5,0.1-0.8c0,0-0.4-1.7-0.6-2c0,0-0.7-1.1-0.3-1.6c0,0,0.5,0.8,1.2,0.7
	c0,0,2.8,0.5,2.6,1.1c0,0-0.7,4.5-1.2,5.1l-0.2,0.4l0.4-0.3L14,46l-0.3-0.6c0,0,0.3-0.1,0.5-0.9l0.9-4.4c0,0,0.2-0.6-0.5-0.8
	c0,0,4.5,0.2,4.5,1.1l-0.5,5c0,0-0.1,0.4,0.3,0.8c0,0,0.7,1-0.3,1.3l0.5-0.1l0.1,0.5l0.1-0.6c0,0,0.4-1.2-0.3-1.6l0.3-2.8
	c0,0,0.5-3.3-0.1-3.5c0,0-4.4-1.1-6.5-1c-0.1,0-0.2,0-0.3-0.1l0,0c0,0,0.7-0.6,0.9-1c0-0.1,0.1-0.1,0.2-0.2c0.4-0.1,1.3-0.3,1.7-0.6
	c0.1,0,0.1-0.1,0.2-0.1c0.2,0,0.8,0,1-0.4c0-0.1,0.1-0.1,0.2-0.1l0,0c0.1,0,0.2,0,0.3,0.1c0.1,0.2,0.4,0.4,0.8,0c0,0,0.3,0.2,0.4,0
	c0.1-0.1,0.2-0.1,0.3,0c0.5,0.2,1.6,0.5,1.9-0.2c0,0,0.6-1,2.4-1c0,0,1.8,0.1,2.9-0.2c0,0,2.1,0.2,3.1-0.5c0,0,3,0.3,3.8-0.1
	c0,0,2.8,0.3,3.8-0.2l5.7,0.2c0,0,2.8,0.7,3.7-0.3c0,0,1.1-0.2,1.1-0.5c0,0,0.9-0.4,1.2,0C48,33.1,48.2,32.2,47.3,32.4z M20.8,30
	l-1.9,0.1c0,0,1.9-0.8,2.2-0.6C21.1,29.4,21.3,29.9,20.8,30z M22.1,28c0,0-0.5,0.9-0.5,1.3c0,0-1.2-0.2-1.7-0.2L22.1,28z M18.5,30
	c0,0,0.9-1,2.2-0.7c0,0-1.6,0.4-2,0.7C18.8,30,18.4,30.2,18.5,30z"/>
</svg>
