<?xml version="1.0" encoding="utf-8"?>
<!-- Generator: Adobe Illustrator 19.1.0, SVG Export Plug-In . SVG Version: 6.00 Build 0)  -->
<svg version="1.1" id="Layer_1" xmlns="http://www.w3.org/2000/svg" xmlns:xlink="http://www.w3.org/1999/xlink" x="0px" y="0px"
	 viewBox="0 0 48 48" style="enable-background:new 0 0 48 48;" xml:space="preserve">
<style type="text/css">
	.st0{fill:#808080;}
</style>
<path class="st0" d="M47.9,15.1c0,0-0.3-1.2-2.5-1.2c0,0-2.9-0.4-5.8,0.8c0,0-6.3,2.7-8,3.1c-0.1,0-0.3-0.1-0.3-0.2
	c0-0.6-0.1-1.8-0.3-2.2c0-0.1,0-0.1,0-0.2l0.1-0.2c0-0.1,0-0.2-0.1-0.3c-0.2-0.1-0.7-0.3-0.7,0c0,0,0.5,0.1,0.2,0.2
	c0,0-0.6-0.5-1-0.1c0,0-1.2,1.3-1.5,1.7c0,0-0.1,0-0.1,0c0,0-0.1-0.1-0.2-0.1c0,0,0-0.1,0-0.1c0.1-0.1,0.3-0.4,0.4-0.7
	c0,0,0.2-1.5-0.3-1.9c0,0,0-0.1,0-0.1c0.3-0.1,1.2-0.3,2.2-0.1c0,0,0.3,0,0.4-0.3c0,0-1.6-0.5-2.7,0c-0.1,0.1-0.3,0-0.4,0
	c0,0-0.1-0.1-0.2-0.1c-0.1,0-0.1-0.1-0.1-0.2l0-0.5c0,0,0,0,0,0c-0.2,0.4-0.2,0.2-0.2,0c0,0,0,0,0,0c-0.1,0.2-0.2,0-0.2-0.1
	c0,0,0,0,0,0c-0.1,0.5-0.1,0.1-0.2-0.1c0,0,0,0,0,0c-0.1,0.4-0.3,0.1-0.3-0.1c0,0,0,0,0,0c-0.2,0.5-0.3,0.1-0.3-0.1c0,0,0,0,0,0
	c-0.1,0.3-0.2,0.1-0.3,0c0,0,0,0,0,0c-0.1,0.3-0.2,0-0.3-0.1c0,0,0,0,0,0c-0.1,0.3-0.3,0.2-0.3,0.1c0,0,0,0,0,0
	c-0.2,0.3-0.2,0.1-0.2,0c0,0,0,0,0,0c-0.1,0.6-0.3,0.2-0.3,0c0,0,0,0,0,0c-0.1,0.3-0.2,0.1-0.3,0c0,0,0,0,0,0
	c-0.1,0.3-0.2,0.1-0.3-0.1c0,0,0,0,0,0c0,0.3-0.2,0.2-0.3,0.2c0,0,0,0,0,0c-0.1,0.5-0.2,0.2-0.3,0.1c0,0,0,0,0,0
	c0,0.3-0.1,0.1-0.2,0c0,0,0,0,0,0c0,0.4-0.1,0-0.2-0.1c0,0,0,0,0,0c-0.1,0.3-0.1,0.1-0.2,0c0,0,0,0,0,0c0,0.5-0.1,0.3-0.2,0.2
	c0,0,0,0,0,0c0,0.3-0.1,0.1-0.2,0c0,0,0,0,0,0c0,0.5-0.2,0.2-0.2-0.1c0,0,0,0,0,0l0.1,0.6c0,0.1,0,0.2-0.2,0.3c0,0-0.1,0-0.1,0
	c0,0-0.1,0.1-0.5-0.1c0,0,0,0,0,0c-0.4-0.2-2.1-0.2-2.7,0c0,0,0.2,0.3,0.5,0.3c0,0,1.9-0.1,2.2,0.2c0,0-0.8,0.7-0.5,1.3
	c0,0.1,0,0.1,0,0.2c0,0.3-0.1,1.2,0.6,1.3c0,0-0.3,0-0.4,0.1c-0.1,0-0.1,0-0.2,0c-0.3-0.3-1.3-1.4-1.7-1.8c-0.1-0.1-0.3-0.1-0.4,0
	c-0.2,0.1-0.4,0.3-0.5,0.2c0,0-0.1-0.4,0.3-0.3c0,0-0.1-0.3-0.3-0.2c0,0-0.6,0.1-0.5,0.3l0.1,0.1c0.1,0.1,0.1,0.3,0,0.5
	c-0.2,0.4-0.4,1.2-0.4,1.9c0,0.2-0.2,0.4-0.4,0.3c-1.1-0.4-3.5-1.2-4.7-1.8c0,0-4.9-2.6-8.8-2.1c0,0-4,0.1-2.4,2.7
	c0,0,2,3.4,5.4,4.2C6.3,21,6.9,21,7.4,20.8c0.5-0.2,1.3-0.5,1.8-0.6c0,0-3.3,1.4-2.2,2.4c0,0,1.4,1.6,6,1.6c0.2,0,0.4-0.1,0.6-0.2
	l0.2-0.2c0,0,0,0.9,0.8,0.1c0.1-0.1,0.1-0.1,0.2-0.1c0.4-0.1,1.7-0.5,2.8-1.7c0.1-0.1,0.2-0.1,0.3,0c0.1,0.1,0.4,0.3,0.6,0.4
	c0.3,0.3,0.2,0.8-0.1,1c-0.9,0.4-2.5,1.4-2.7,3.2c0,0,0,0.3,0.4,0.4c0,0-0.9,0.5-1,1.3c0,0-0.9,3.6,0.3,4.9c0.1,0.1,0.1,0.2,0,0.2
	c-0.1,0.2-0.3,0.4-0.4,0.1c0,0-0.1,0.1,0,0.2l0.6,0.4c0,0,0-0.1,0-0.2l0.1-0.5c0-0.1,0.1-0.1,0.1-0.1c0.3-0.1,1.2-0.5,1.5-2.9
	c0,0,0.3-4.5,1.4-5.8c0,0-0.7,5.3-0.5,6.2c0,0,0,4.9,4.4,4.8c0.2,0,0.4,0.1,0.5,0.2c0.3,0.3,0.8,0.6,1.6-0.1
	c0.1-0.1,0.2-0.2,0.4-0.2c0.9-0.2,3.9-0.9,4.1-3.1c0,0,0.8-6.1-0.4-6.8c0,0,0.5-0.3,0-0.9l0.2-0.3c0.1-0.1,0.2-0.1,0.2,0l1.1,1.7
	c0.1,0.2,0.2,0.4,0.1,0.7c-0.2,1.1-0.7,4.5,1.3,6.3c0.1,0.1,0.2,0.2,0.2,0.3l0.2,0.4c0,0-0.3,0.3,0,0.1c0,0,0.8-0.3,0.6-0.5
	c0,0-0.2,0.2-0.3,0.1l-0.1-0.1c-0.1-0.1-0.1-0.3,0-0.5c0.3-0.6,1.1-2.6,0.1-5.2c-0.1-0.3-0.4-0.6-0.7-0.7l-0.3-0.2
	c0,0,0.8-0.1,0.6-0.7c0,0-0.1-2.6-3.3-3.1c-0.1,0-0.1-0.1-0.1-0.2c0.2-0.3,0.7-0.8,1.1-1c0.1-0.1,0.2,0,0.3,0
	c0.2,0.3,0.9,1.1,2.7,1.7c0,0,0.1,0,0.1,0c0,0,0.1,0,0.2,0.1c0,0,0.7,0.6,0.9,0.2c0,0,0.1,0,0.1,0c0.1,0.2,0.6,0.5,2,0.3
	c0,0,5.7-0.5,4.6-2.5c0,0-1-1-2.1-1.4l1,0.3c0,0,1.5,1,2.9,0.1c0,0,1.8-0.8,3.6-2.5C46.4,18.2,48.5,16.1,47.9,15.1z M19,18.3
	c0,0.1-0.2,0.1-0.2,0.1c-0.3-0.1-0.7-0.3-0.8-0.3l-0.1-1.9l1.7,1.4C19.6,17.6,19.1,18,19,18.3z M30,18.2c0,0-0.8,0.1-0.9,0.2
	c0,0-0.2-0.7-0.5-0.8c0,0-0.1-0.1,0-0.1l1.5-1.4C30,16.1,30.4,17.4,30,18.2z"/>
</svg>
