<?xml version="1.0" encoding="utf-8"?>
<!-- Generator: Adobe Illustrator 19.1.0, SVG Export Plug-In . SVG Version: 6.00 Build 0)  -->
<svg version="1.1" id="Layer_1" xmlns="http://www.w3.org/2000/svg" xmlns:xlink="http://www.w3.org/1999/xlink" x="0px" y="0px"
	 viewBox="0 0 48 48" style="enable-background:new 0 0 48 48;" xml:space="preserve">
<style type="text/css">
	.st0{fill:#808080;}
</style>
<path class="st0" d="M47.3,27.1l-1.1-1C46,26,45.9,25.7,46,25.4c0.3-1.1,0.2-4.2-10.2-6.2c0,0-6.1-1.4-7.8-0.4
	c-0.1,0.1-0.3,0-0.3-0.2c0-0.3,0.2-0.7,1.2-1c0,0,2.2-0.9,1.7-1.4c0,0,0.3-0.7,0.1-1.7c0,0,0.8,0.1,1.1-0.1c0,0,1,0.3,1.4,0.1
	c0,0,0.8,0.4,1.3,0.2c0,0,0.7,0.4,1.3,0.2c0,0,0.8,0.3,1.3,0.1c0,0,0.7,0.4,1.1,0.1c0,0,0.7,0.3,1,0.1c0,0,0.8,0.1,1.1,0.2
	c0,0,0.2-0.5-1-0.5c0,0-0.7-0.2-1-0.1c0,0-0.7-0.2-1.1-0.1c0,0-1-0.3-1.2-0.1c0,0-1.1-0.3-1.4-0.2c0,0-0.9-0.4-1.3-0.2
	c0,0-0.8-0.3-1.3-0.1c0,0-0.5-0.2-1-0.2c-0.2,0-0.3-0.1-0.3-0.3c-0.1-0.8-0.4-2.9,0.3-3.3c0,0,0.1-0.2-0.2-0.2c0,0,0.5-0.2,0.6-0.8
	c0,0,0.5-0.8-0.2-0.9c0,0,0-0.8,0.4-0.8c0,0-0.1-0.2-0.5-0.1c0,0-0.2-0.3-0.4-0.2c0,0,0.4,0.2,0.2,0.9c0,0-0.6-0.1-0.7,0.7
	c0,0-0.3,0.1-0.2,0.8c0,0-0.4,0.5,0,0.9c0,0-0.8,0.2,0.1,2.6c0,0.1-0.1,0.3-0.2,0.2c-0.5-0.1-1.4-0.3-1.7-0.3c0,0-0.2-0.4-0.6-0.3
	c0,0,0.7-0.8-0.4-2.1c0,0,0.1,0.8-0.8,1c0,0-0.5-0.4-0.6,0c0,0,0,0.3,0.5,0.3c0,0,0.1,0.2-0.3,0.4c0,0-0.2,0-0.1,0.3
	c0,0-0.1-0.1-0.3,0c0,0,0.4-0.9,0-1c0,0-0.4,0.1-0.1,0.5c0,0,0,0.5-0.3,0.6c0,0-0.8,0.1-0.7-0.5c0,0,0.3-0.2,0.2-0.4
	c0,0-0.2-0.2-0.3,0c0,0-0.5,0.1-0.3-0.3c0,0,0.5,0,0.6-0.3c0,0-0.4-0.6-1,0.3c0,0-0.1-0.9,0.3-1.3c-0.1,0-1.9,1.2-1.5,1.8l0.6,0.8
	c0,0-1-0.4-1.2,0.3c0,0-2.1-0.1-2.3,0.2c0,0,0.5-3.2-0.3-3.1c0,0,0.6-0.7,0-1.1c0,0,0.2-0.5,0.1-0.7c0,0,1-0.5,0.8-0.8
	c0,0-0.1,0.2-0.3,0c0,0-0.2-0.4-0.4-0.3c0,0,0.5,0.4-0.3,0.8c0,0-0.3-0.9-0.8-0.2c0,0-0.9-0.2-0.5,0.7c0,0-0.2,0.5,0.4,0.8
	c0,0-0.2,0.5,0.4,0.8c0,0,0.4,2.2,0.2,3.1c0,0-0.8-0.2-1,0.1c0,0-1.2-0.1-1.4,0.1c0,0-1.2-0.1-1.3,0.1c0,0-1.1-0.1-1.3,0.1
	c0,0-3.3,0.7-4.7,2.1c0,0-0.1,0.3,0.4,0c0,0,2.5-1.5,4.4-1.9c0,0,0.8,0.2,1.2-0.1c0,0,1,0.2,1.3-0.1c0,0,1,0.2,1.4-0.1
	c0,0,0.7,0.1,0.9,0c0,0-0.3,1.5,0.2,1.9c0,0-0.2,0.6,0.4,0.8l2.1,1.2l0,0.1c0,0.2-0.2,0.3-0.4,0.2c-0.5-0.2-1.8-0.6-4.4-0.3
	c-0.1,0-0.3,0-0.4,0c-1.6,0.1-11,0.5-12.2,4.9c-0.1,0.3-0.3,0.5-0.5,0.7c-1.2,0.8-4.5,2.9-3,3.6c0,0,0.7,0.7,1.6,0.7
	c0.2,0,0.5,0,0.7,0.1c0.6,0.1,1.5,0.4,2.2,0.8c0,0,0.9,0.6,3,0.5c0.1,0,0.2,0,0.3,0c0.9,0.1,5.5,0.5,6.2-0.4
	c0.1-0.1,0.2-0.2,0.3-0.1c0.4,0.1,1.3,0.3,1.8,0.2c0.1,0,0.2,0.1,0.2,0.2c0,0.2-0.1,0.6,0,1c0,0,0.9,3.8,0.7,4.3c0,0,0.1,0.1,0.2,0
	c0,0-0.2,0.6,0.1,0.9c0,0-0.2,0.6,0.1,0.9c0,0.1,0.1,0.1,0.1,0.2c0,0.3,0.1,0.9,0.5,0.7c0,0,0.2-0.1,0.2-0.5c0,0,0,0,0,0l0.7,1.3
	c0,0,0.1,0.4-0.3,0.2c0,0,0,0.2,0.2,0.2c0,0,0.3-0.2,0.5-0.3c0,0,0.4-0.2,0.1-0.4c0,0,0,0.3-0.2,0.1l-0.5-0.8c0-0.1-0.1-0.1,0-0.2
	c0-0.2,0.1-0.7-0.2-0.8c0,0,0.2-0.5-0.1-0.7c0,0-0.1-1-0.7-1.3c0,0,0-0.1,0.1-0.1c0,0,0.1,0,0-0.1c-0.1-0.2-0.3-0.5-0.4-0.8
	c0,0-0.4-2.7-0.7-3.2c0-0.1,0-0.1,0-0.2c0.3-0.3,1.5-1.3,2.3-1.5c0,0-0.5,0.7-0.1,1.3c0,0.1,0.1,0.1,0,0.2c-0.1,0.5-0.5,2.2,0.4,2.6
	c0,0-0.7,2,0.3,2.5c0,0-0.4,2.1,0.8,2.2c0,0,0.6,1.5,1.5,1.9c0.1,0.1,0.3,0.2,0.4,0.3c0.4,0.5,1.3,1.5,2-0.2l0.9-0.8v0
	c0.2,0.1,0.4,0,0.5-0.2c0.1-0.3,0.1-0.6,0.2-0.7c0,0,0.7,0,0.7-0.8c0-0.1,0-0.2,0-0.2c0.1-0.3,0.5-1.1,0.6-1.7c0,0,0.1,0,0.2,0
	c0.1,0,0.2,0,0.2-0.1c0.2-0.3,0.5-0.9,0.7-1.2c0,0,1.8-2.4,2-3.3c0-0.1,0.2-0.2,0.3-0.2l0.7,0c0.2,0,0.3,0,0.5,0.1
	c0.4,0.3,1.3,0.8,3.1,0.7c0,0,5.2,0.3,7.3-0.5c0,0,2.1-0.8,2.8-0.9c0.1,0,0.2,0,0.3,0c0.2,0,1,0.1,1.6-0.3
	C47.6,29,48.7,28.7,47.3,27.1z M22.4,15.7l0,0.8c0,0-1-0.5-1.1,0.1c0,0-1.3-0.3-1.7-0.9c0,0-0.2-0.2-0.4,0.1c0,0-0.1-1,0.1-1.6
	c0,0,1.3,0.4,1.8,0.1c0,0,1.5,0.2,1.6,0.1C22.8,14.3,22,15.1,22.4,15.7z M26.8,16.6l0-0.6c0,0,0.6-0.7-0.2-1.5c0,0,1.1,0,1.2-0.3
	c0,0,1.6,0.7,2.1,0.5c0,0,0.4,1.1,0.3,1.3c0,0-0.1-0.4-0.7,0.2c0,0-1,0.5-1.9,0.6C27.6,16.7,27.3,16.4,26.8,16.6z M28,33.9
	c0-0.1,0.2-1.3-0.1-1.5c0,0,0.8-1.7,0.1-2.4c0,0,0.5-0.5,0.3-0.8c0.1,0,1.8,1.5,2.1,1.5c0,0,0,0,0.1,0C30.4,30.9,28.1,33.6,28,33.9z
	"/>
</svg>
