<?xml version="1.0" encoding="utf-8"?>
<!-- Generator: Adobe Illustrator 19.1.0, SVG Export Plug-In . SVG Version: 6.00 Build 0)  -->
<svg version="1.1" id="Layer_1" xmlns="http://www.w3.org/2000/svg" xmlns:xlink="http://www.w3.org/1999/xlink" x="0px" y="0px"
	 viewBox="0 0 48 48" style="enable-background:new 0 0 48 48;" xml:space="preserve">
<style type="text/css">
	.st0{fill:#808080;}
</style>
<g>
	<path class="st0" d="M47.3,24.8l0.7-10c0,0-0.6-5.1-5.4-4c-0.1,0-0.3,0.1-0.4,0.1c-1.8,0.2-13.8,1.3-15.4,1.1
		c0,0-10.3-0.5-12.4-0.2c-0.1,0-0.2-0.1-0.2-0.2c0.2-0.4,0.3-1.2-0.9-1.4c0,0-1.4-0.2-2.3,1.2c-0.1,0.1-0.2,0.1-0.3,0
		c-0.1-0.1-0.2-0.3,0-0.4c0,0,3.2-1.6,2.6-4.4c0,0-0.6,2.6-2.8,3.2c-0.1,0-0.2,0-0.2,0c-0.6-0.1-3.8-0.6-5.6,0c-0.1,0-0.2,0-0.2,0
		C3.9,9.9,2.1,9.8,0,7.4c0,0,0.7,2.7,4.1,3.5c0.1,0,0.2,0.1,0.2,0.2c0.1,0.2,0.1,0.6-0.5,0.5c-0.1,0-0.2-0.1-0.3-0.1
		c-0.4-0.4-1.7-1.6-3.1-0.8c0,0-0.8,0.5,0,1.6c0,0,0.1,0.1,0.1,0.1c0.2,0.3,1,1.7,2.6,0.9c0.1,0,0.2-0.1,0.2-0.1
		c0.2,0,0.5,0,0.6,0.3l-0.1,0.7c0,0,0-0.1,0.1-0.1c0.1-0.1,0.2,0,0.2,0.1c0.1,0.8,0.5,3.9,0.7,4.8c0.1,0.2,0.1,0.5,0,0.7
		c-0.1,0.3-0.1,0.8-0.2,0.9c0,0-0.5,1,0.7,1.1c0,0,0.1,0,0.1,0c0.2,0.1,0.9,0.3,1.8,0.3c0.2,0,0.3,0.1,0.4,0.3c0.3,1.5,2,8,8.1,7.5
		c0.2,0,0.3,0.1,0.3,0.3c0.1,0.6,0.2,2,0.7,3.2c0.2,0.6,0.4,1.3,0.4,2l0,2c0,0-0.4,0.3-0.6,0.9c0,0-0.1,0.4-0.5,0.7
		c0,0,0.1,0.1,0.4,0c0,0-0.6,0.8,0.6,0.4l0,0.3c0,0-0.8,0.7-0.8,0.8c0,0,0,0.4,0.3,0.2l0.6-0.5c0,0-0.2,0.4-0.5,0.5
		c0,0-0.3,0.5,0.3,0.6c0,0,2.7,0.1,2.2-1.4c0,0-0.1-0.7,0.2-0.4c0,0,0.6,0.2,0.3-0.8l-0.2-3.6l0,0c0,0,0.5-0.7,0.5-2.1
		c0,0,0-0.1,0-0.1c0-0.5-0.4-5.3,2.2-4.3c0.1,0,7.3,1,10.2,0c0,0,2.5-0.8,4.2-2.2c0.1-0.1,0.1-0.1,0.2-0.2c0.5-0.3,2.5-1.6,2.6-0.3
		c0,0,0.3,3,1,4.6c0.1,0.1,0.1,0.3,0.1,0.4c0.1,0.7,0.3,3-0.6,5.3c0,0.1-0.1,0.1-0.1,0.1c-0.2,0.1-0.7,0.4-0.8,0.8
		c0,0.1-0.1,0.1-0.1,0.2c-0.3,0.1-1,0.4-0.6,0.8c0,0,0.5,0.5,2.2,0.1c0.1,0,0.2,0.1,0.2,0.2c-0.1,0.2-0.2,0.4-0.2,0.4
		c0,0-0.9,0.7-0.8,1.2c0,0,0.5-0.3,0.7-0.3c0.1,0,0.2,0,0.2,0.2c0,0.2,0.1,0.4,0.2,0.4c0,0,2.3,0.2,2.4-0.8c0,0-0.5-0.4-0.3-0.8
		c0,0,0-0.1,0.1-0.1c0.1,0,0.2-0.1,0.4,0.1c0,0,0.3-0.2,0.1-0.6c0,0,0-0.1,0-0.1c0.1-0.7,0.6-6.1,1.6-6.9c0,0,0,0,0,0
		c0.1-0.1,0.5-0.4-0.4-2.4c0,0,0-0.1,0-0.2c0.1-0.8,1-6.4,2.4-8.6c0,0-1.1,6.3-0.4,6.8c0,0-0.3,1.1-0.3,1.7l0.1,6.7
		c0,0,0.4-0.3,0.3-0.8c0,0,0-0.1,0-0.1c0-0.5,0.2-4,0.7-4.6c0,0,0.4-1,0.1-2.9c0,0,0.5,0.1,0-1.6C47.3,25.1,47.2,25,47.3,24.8z
		 M9.8,14.7C9.8,14.7,9.8,14.7,9.8,14.7c0-0.2,0.1-0.8,0.5-0.5C10.3,14.2,10.5,14.7,9.8,14.7z"/>
</g>
</svg>
