<?xml version="1.0" encoding="utf-8"?>
<!-- Generator: Adobe Illustrator 19.1.0, SVG Export Plug-In . SVG Version: 6.00 Build 0)  -->
<svg version="1.1" id="Layer_1" xmlns="http://www.w3.org/2000/svg" xmlns:xlink="http://www.w3.org/1999/xlink" x="0px" y="0px"
	 viewBox="0 0 48 48" style="enable-background:new 0 0 48 48;" xml:space="preserve">
<style type="text/css">
	.st0{fill:#808080;}
</style>
<path class="st0" d="M48,15.1c0,0-0.1-0.6-0.6-0.6c0,0,0.1-0.6-0.6-0.6c0,0,0.6-0.5-0.4-0.4c0,0,0.7-0.3-0.4-0.5
	c0,0,0.8-0.4-0.3-0.5c0,0,0.2-0.7-1.1-0.7c0,0,1.1-0.7-0.6-0.5c0,0,1.2-0.7-0.5-0.5c0,0,1.1-0.9-0.7-0.4c0,0,0.9-1-0.7-0.4
	c0,0,0.6-0.8-0.8-0.3c0,0,0.8-0.8-0.7-0.2c0,0,0.6-0.8-0.8,0.1c0,0,0.6-0.7-0.6-0.1c0,0-0.2-0.6-1.1,0.2c0,0-0.4-0.9-0.9,0.1
	c0,0-0.4-0.8-0.8,0.3c0,0-0.6-1-0.9,0.3c0,0-0.3-1.2-0.9,0.3c0,0-0.1-1.1-0.8,0.4c0,0-0.4-1-0.7,0.3c0,0-0.7-0.6-0.8,0.5
	c0,0-0.5-0.8-0.7,0.6c0,0-0.7-0.7-0.7,0.5c0,0-0.3-0.2-0.6,0.2c-0.1,0.3-0.3,0.5-0.6,0.7c-1,0.8-3.2,2.8-4.2,3.8
	c-0.3,0.3-0.7,0.4-1.1,0.2c-1.1-0.4-3.2-1-4.5-0.3c0,0-0.5,0.4-1.3,0.4c0,0-2.6,1-3.2,0.8c0,0,0.1,0.3,0.7,0.4c0,0-0.1,0.2-0.8,0.4
	c0,0-0.3,0.4,0.2,0.3c0,0,1-0.3,0.9-0.1c0,0-0.9,0.7-1,0.9c0,0,0.4-0.3,0.5-0.2c0,0,0.2,0.1,1-0.3c0,0-1.1,1.3-2.5,2
	c0,0-2.1,0.8-2.6,1.8c0,0-0.3,0.3-0.5-0.9c0,0-0.3-2.2-2.6-1c0,0-1.6,1.2-1.9,1.1c0,0-0.3-0.5-0.6-0.4c0,0,0.3,0.4,0.2,0.5
	c0,0-0.2,0.2-0.6-0.2L5.3,23c0,0,0.1,0.5,0.3,0.7c0,0,0.1,0.3-0.5,0.4c0,0-1,0-0.8,0.2c0,0,0.1,0.2,0.7,0.1c0,0-0.6,0.4-0.6,0.6
	c0,0,0.8-0.2,1.1-0.1c0,0-0.4,0.4-0.4,0.6c0,0,1-0.3,1-0.3c0,0,2-0.6,2.8-1.1c0.1-0.1,0.3,0,0.3,0.1c0,0.1,0.1,0.2,0.2,0.3
	c0,0,0.4,1.2-0.2,1.5c0,0-2.9,1.4-3.4,2.9l-1.8,2.6c0,0-0.8,1.1-1.4,1.7c-0.1,0.1-0.2,0.2-0.4,0.4C2,33.7,1.5,34,1.3,34.7
	c-0.1,0.2-0.2,0.4-0.4,0.5c-0.1,0.1-0.3,0.2-0.4,0.3c0,0-1.1,1.1-0.2,1.9c0,0,0.4,0.8,1.6,0.3c0,0-0.2,1,1.6,0l5.5-3.8
	c0.3-0.2,0.7-0.4,1-0.4c0.8,0,2.1,0,2.8-1.1c0.1-0.1,0.3-0.2,0.4,0c0.1,0.1,0.2,0.2,0.3,0.4c0.1,0.2,0.1,0.5-0.1,0.6
	c-0.5,0.3-1.4,1-2,2c0,0-0.6,0.7-1,1c0,0-0.3,0.5,0.1,0.2c0,0,0.5-0.2,0.6-0.1c0,0-1.2,1.1-0.4,1l0.5-0.2c0,0-0.4,0.7-0.4,0.8
	c0,0-0.3,0.7,0.2,0.8c0,0-0.3-0.3,0-0.6c0,0,0.4-0.1,0.5-0.5c0,0,0.6-1,0.8-0.6c0,0,0.1,0.8,0.4,0.9l0-1.6c0,0,0.4,0.6,0.5,0.9
	c0,0,0.2-0.6,0-1.2c0,0-0.1-0.3,0.9-0.5c0,0,0.7-0.2,0.7-0.4c0,0,0.6-0.1,0.7-0.4c0,0,1.7-1.2,0.5-3c-0.1-0.2,0-0.5,0.2-0.5
	c0.9-0.3,2.6-0.8,3.8-1.4c0.5-0.2,1-0.4,1.5-0.5c0.8-0.2,1.9-0.5,2.7-1.1c-0.1,0.1-1,0.9-1,1c0,0-0.8,0.7,0.1,0.3
	c0,0,1.1-0.5,0.7-0.1c0,0-0.5,0.7-0.5,0.8c0,0-0.4,0.9,0.2,0.2c0,0,0.3,0,0.6-0.4c0,0,0.6-0.3,0.4,0.5c0,0,0,0.3,0.1,0.3
	c0,0,0.1-0.7,0.6-1.1c0,0,0.7-0.7,1.2-1c0,0,0.6-0.8,1-1.6c0,0,0.7-1.1,0.3-1.3c0,0-0.6-0.2-0.5-0.4c0,0,0.5-0.9,0.7-1.9
	c0-0.3,0.2-0.6,0.5-0.8c0.5-0.3,1.2-0.7,1.5-1.1c0,0,1.4-1.8,2.1-3.3c0.2-0.4,0.3-0.8,0.4-1.2c0.2-0.8,1-3.7,5.2-4.9
	c0,0,2.1-0.8,6.6,1.7C44.6,14,48.4,16.1,48,15.1z M4.8,31.5c0.3-0.8,1-0.8,1-0.8C5.6,31.5,4.8,31.5,4.8,31.5z M6.4,32.6
	c0,0,0.5-0.4,1-0.4C7.4,32.2,7.4,32.8,6.4,32.6z"/>
</svg>
