<?xml version="1.0" encoding="utf-8"?>
<!-- Generator: Adobe Illustrator 19.1.0, SVG Export Plug-In . SVG Version: 6.00 Build 0)  -->
<svg version="1.1" id="Layer_1" xmlns="http://www.w3.org/2000/svg" xmlns:xlink="http://www.w3.org/1999/xlink" x="0px" y="0px"
	 viewBox="0 0 48 48" style="enable-background:new 0 0 48 48;" xml:space="preserve">
<style type="text/css">
	.st0{fill:#808080;}
</style>
<path class="st0" d="M22.5,19.7c-0.1-0.4-0.1-1.1,0.2-1.6c0,0,0.3-1.1-1.3-2c0,0-6-4-6.8-4.1c0,0-3.9-1.7-4.3-1.4
	c0,0-3.6-1.6-2.9-0.6l6.5,2.6c0.2,0.1,0.4,0.2,0.6,0.4c1,0.7,4.2,3.1,5.8,3.9c0.1,0.1,0.2,0.3,0.1,0.4c-0.1,0.1-0.1,0.3-0.1,0.5
	c0,0-2.9-2.4-3.6-2.1c0,0-0.6,0.3,0.9,1.2l2,1.4c0,0,0.2,0.4-0.4,0.1c0,0-2.1-0.5-2.3,0.9c0,0.3-0.2,0.5-0.4,0.6
	c-0.6,0.4-1.5,1.3,0.4,2.5c0,0-0.3,0.5-1-0.4c0,0-1.9-1.9-3.4-1.4c0,0-1.1,0.8,0.8,0.9c0.1,0,0.3,0,0.4,0.1c0.4,0.1,1.2,0.4,1.5,0.8
	c0,0.1,0.1,0.1,0.2,0.2c0.3,0.3,1.3,1,2.3,0.6c0,0-0.5,0.6-2.1,0.3c0,0-0.8-1-1.4-0.7c-0.2,0.1-0.3,0-0.5,0l-3.7-1.7
	c0,0-3.4-1.7-3.6-1.6l-6.3-3.3c0,0-0.6,0.1,0.1,0.6l2.2,1.2c0,0,3.1,2.1,3.5,2.1c0,0,4.1,3,7.7,4c0.3,0.1,0.5,0.2,0.7,0.4
	c0.4,0.5,1.4,1.3,2.6,0.5c0,0,1.4,0.3,2-0.1l-1.7,1.4c0,0-2.2,1.4-3.1,2.1c-0.3,0.2-0.6,0.4-1,0.5c-1.6,0.5-5.8,1.7-5.8,1.9
	c0,0-3.5,1.2-3.7,1.5c0,0-2.1,1-2.4,0.9c0,0,0.3,0.1,0.2,0.4c0,0,0.1-0.2,0.3-0.2l2.2-0.7c0,0,3.2-0.6,3.5-1c0,0,5.4-1,6.9-1.8
	c0.2-0.1,0.5-0.2,0.7-0.3c0.9-0.3,2.6-1,3.1-2.2l2-1l0.5,0.2c0,0,0,4.2,0.3,5.9c0.1,0.4,0.1,0.9,0,1.3c-0.2,1.4-0.5,4.1,0,4.5
	c0,0-0.5,3-0.4,3.4c0,0-0.7,3.5,0,2.5l0.6-2.5c0,0,0.9-2.5,0.5-3.6c0,0,0.9-3.7,0.7-5.1c0,0-0.9-6.4,0-4.9c0,0-0.1,0.9,0.2,1.1
	c0,0,0.1,2.5,2.3,5.2c0,0,4,5.7,4.5,5.7c0,0,2.8,3.8,3.1,3.9c0,0,2.9,2.8,2.2,1.4c0,0-4.5-4.6-4.7-5.8c0,0-2.4-4.3-3.9-5.8
	c-0.1-0.1-0.2-0.2-0.2-0.3l-1.2-2c0,0,3.8,5.6,8,3.6c0,0,7-2.9-0.3-9.2l-2.2-1.2c0,0,1.9-0.1,6.3,1.9c0,0,3.8,2.1,4.4,1.9
	c0,0,3.4,2.4,4,2.3l2.5,1c0,0,1.2-0.3-2.5-1.6c0,0-4.9-3.4-6.3-3.8c0,0-8.7-4.6-12-3.2c-0.1,0-0.2,0-0.2,0c-0.2-0.1-0.5-0.1-0.7-0.1
	c-0.1,0-0.1-0.1,0-0.1c0.2-0.2,0.4-0.4,0.5-0.6c0.1-0.1,0.2-0.2,0.3-0.2c0.7,0,3.2-0.2,5.2-1.5c0,0,3.6-1.5,4.1-2.2
	c0,0,3.2-2.3,3.7-2.2c0,0,0.5-1.2-2.4,0.5l-1.7,1c0,0-3.9,1.4-5.7,2.5c0,0-3.7,0.1-4.8,0.8c-0.1,0.1-0.2,0-0.3-0.1
	c0-0.3,0-0.9,0.3-1.4c0,0,2.4-2.4,2.8-4.5c0,0,0.8-0.9,0.9-2.4c0,0,2.8-4.1,2.8-4.6c0,0,2.8-5.2,3.2-5.6c0,0-0.3-0.5-0.4-0.1
	l-3.6,5.5c0,0-3.4,4.4-3.8,6.8c0,0-3.2,3.9-3.8,5.3c-0.1,0.2-0.3,0.2-0.4,0.2l0,0C22.6,20,22.5,19.9,22.5,19.7z"/>
</svg>
