<?xml version="1.0" encoding="utf-8"?>
<!-- Generator: Adobe Illustrator 19.1.0, SVG Export Plug-In . SVG Version: 6.00 Build 0)  -->
<svg version="1.1" id="Layer_1" xmlns="http://www.w3.org/2000/svg" xmlns:xlink="http://www.w3.org/1999/xlink" x="0px" y="0px"
	 viewBox="0 0 48 48" style="enable-background:new 0 0 48 48;" xml:space="preserve">
<style type="text/css">
	.st0{fill:#808080;}
</style>
<path class="st0" d="M34.2,16.7c0,0-0.4-0.9-1.5-0.5c0,0-0.8,0.2-1.3-1.1c0,0-0.8-2.3-2.3-3.3c0,0-2.4-1.8-2.7-3
	c0,0-0.8-2.7-0.4-3.8c0,0,0.1-0.6-0.3-0.4c0,0-1.3,0.8-1.8,0.4c0,0,0.1-2.3,1.2-2.3c0,0,0.4,0.6,0.6,0.1c0,0,0-1.6-1.2-1.6
	c0,0-1,0-1.5,0.4c0,0-1.1-0.6-1.6,0.1c0,0-0.8,0.5,0.2,1.6c0,0,1.1,4.6-1,4.7c0,0-1.9,1.4-0.6,1.7c0,0-0.1,0.2-0.1,0.4
	c-0.1,0.5-0.3,0.9-0.7,1.3c-0.8,0.8-2,2.3-2.3,4.2c0,0-0.8,0-1.4,0.3c0,0-0.4,0.2-0.9-0.1c0,0-0.9-0.1-0.9,0.5c0,0-0.3,0.1-0.9-1
	l-2.3-2.9c0,0-1.4-2.2-1.5-2.3c0,0-0.1,0.6-0.4,0.2c0,0,0-0.2-0.3-0.1c0,0-0.3-0.1-0.3-0.5c0,0-0.4,0.1-0.5-0.1c0,0-0.6-0.5-0.5-0.9
	c0,0,0-0.2-0.2-0.1c0,0-0.8-0.5-0.7-1.6c0,0-0.3,0.1-0.4-0.9c0,0-0.6-1.7,0-3c0,0,0.1-0.2,0.1-1c0,0,0.6-1,1.2-1.2
	c0,0-0.6-0.1-1.3,1.2c0,0-0.3-0.5,0.2-1.2c0,0,1-1,1.8-0.7c0,0-0.4-0.5-1.5-0.3c0,0-1.7,0.7-1.4,2.5L4.7,2.6c-0.2,0.5-0.3,1-0.3,1.5
	c0.1,0.9,0.3,2.4,0.7,2.8c0,0-0.5-0.2,0,0.5c0,0,0.7,1.1,1.1,1.3c0,0-0.6,0-0.1,0.5l1.1,1c0,0-0.6,0.1-0.7,0.4c0,0,1.2-0.1,1.1,0.8
	c0,0-0.8,0.4-0.9,0.7c0,0,1.3-0.5,1.8,0.1c0,0,0.7,0.8,0.4,1.1c0,0-0.7,0.5-0.8,0.7c0,0,1.1-0.3,1.4,0.2c0,0,2.1,2.9,3.8,3.5
	c0,0-0.1,0.6,0.8,0.6c0,0,2.4,0.1,3,0c0.1,0,0.2,0,0.2,0.1c0.3,0.4,1.1,1.5,2.9,1.2c0,0,0.4,0.4-2.3,0.7c0,0-3.7,0.1-3.9,0.7
	c0,0-5.9,4.4-6.1,5.1l0.4-0.1c0,0-0.4,0.3-0.3,0.4c0,0-1.2,0.4-1.2,0.7c0,0-1.5,0.3-1.4,0.8c0,0-1.4,0.7-1.2,1.1
	c0,0-2.2,1.6-1.4,2.6c0,0-1.1,2.4,1.1,2.3c0,0-0.4-0.1-0.4-0.2c0,0,0.5,0,0.7-0.1c0,0-1,0.1-1.1-0.5c0,0-0.4-0.9,0.2-1.2
	c0,0,0,1.3,0.8,1.6c0,0-0.8-0.7-0.7-1.5c0,0,0.4-1,0.3-1.3c0,0,1.3-2.1,2.2-2.6l0.1,0.3c0,0,0.9-0.9,1.3-1.1v0.2l0.9-0.5
	c0,0,0.7-0.5,0.8-0.8c0,0,0.5-0.3,0.4,0.3c0,0,0,0.3,0.1,0.5c0,0,0.2-0.9,0.7-1.4l3.7-3.2c0.2-0.2,0.6-0.3,0.8-0.1
	c0.2,0.1,0.4,0.1,0.7,0.1c0.3,0,0.5,0.3,0.4,0.5c-0.3,1-0.9,3.1-0.7,5.6c0,0.3-0.2,0.6-0.5,0.8c-0.6,0.2-1.5,0.7-1.7,1.2
	c-0.1,0.3-0.3,0.6-0.4,0.8c-1.1,1.4-4,5.4-4.2,6.2c0,0-0.6,0.2-0.3,0.6c0,0-0.4,0.4-0.4,0.6c0,0-3,1-3,1.5c0,0-3.9,2.3-3.1,3.5
	c0,0-1.1,2.1,1.1,2.1c0,0-1.1-0.4-0.7-1.7c0,0,0.1,1.2,0.8,1.5c0,0-0.7-0.7-0.5-1.6c0,0,0.4-0.7,0.4-1.1c0,0,2.3-2.6,4.2-3l-0.1,0.3
	c0,0,2.2-1.2,2.5-1.7c0-0.1,0.1-0.1,0.1-0.1l2.9-4.2c0,0,1.1-2.6,1.5-2.3c0,0,0.3,0.4,1.1,0.1c0.3-0.1,0.6,0.1,0.6,0.4
	c0.2,1.9,1.2,7.3,4.9,9.1c0,0,6.5,4,12-2.3c0,0,2.1-1.9,2.7-6c0-0.2,0.2-0.3,0.4-0.3c0.2,0.1,0.5,0,0.8-0.3c0,0,0.5,0.3,0.7,1.3
	c0,0,3,5.6,3.3,6c0,0,0,1.8,0.2,0.1c0,0,0.5-0.1,0.8,0.6c0,0,0.1-0.4,0.3-0.2c0.2,0.2,0,0,0,0s1.6,1.7,1.7,1.8c0,0,2.3,2,2.2,4.3
	c0,0-0.3,1.1-2,0.6c0,0,0.7,1.4,2.2,0.1c0,0,0,0.5-0.3,0.7c0,0,0.7-0.2,0.6-1.3c0,0,0.6-0.4,0.4-1.1c0,0-0.1-0.8-1.5-2.3
	c0,0-0.7-1-1-1.2c0,0-0.1-0.9-1.1-1.2c0,0-0.4-1.1-1.1-1.1c0,0,0-0.5-0.5-0.4l0.2-0.4c0,0-1.6-1.9-1.6-2.8l-1.5-2.4
	c0,0-1.4-1.9-1.7-1.9c0,0,0.4-0.4-1.4-1.4c-0.2-0.1-0.3-0.3-0.3-0.5c0-1.2-0.3-5.3-0.8-6.9c-0.1-0.2,0.1-0.4,0.2-0.4
	c0.2,0,0.4-0.1,0.4-0.3c0,0,0.3-0.1,0.5,0.3c0,0,2.1,3.4,3.1,4.4l-0.1,0.8l0.3-0.9c0,0,2,1.4,2.1,1.5c0,0-0.1-0.4,0.1-0.2
	c0,0,2.9,1,3.5,2.3c0,0,0.9,1.1,0.8,1.8c0,0-0.1,1.1-0.8,1.4c0,0,0.2,0.3,1.1-0.3c0,0,0.2,0.2-0.5,0.5c0,0,0.7,0.2,1-0.6
	c0,0,0.7-0.7-0.2-1.7c0,0-0.3-2.3-3.2-3.1c0,0,0-0.5-1.3-0.6c0,0-0.3-0.5-1-0.6c-0.2,0-0.3-0.1-0.4-0.2l-0.2-0.4l0.7,0.3
	c0,0-2.3-2.1-1.6-2.1c0,0-1.4-1.6-1.6-2.2c0,0-1.4-1.3-1.9-1.5c0,0,0.2-0.5-2-0.6c0,0-0.1-0.5-1.1-0.6l-2.3-0.2
	c-0.2,0-0.3-0.2-0.2-0.4c0.2-0.3,0.6-0.7,1.6-0.6c0,0,0.6,0,0.8-0.3c0,0,1.9,0.3,2.3-0.2c0.1-0.1,0.2-0.2,0.3-0.2
	c0.5-0.1,1.7-0.6,2.9-1.5c0,0,1.3-1.3,2.4-0.8c0,0-0.8-0.6-0.5-0.9c0,0,0.8-1.5,2.2-0.4c0,0-0.1-0.5-0.6-0.8c0,0,0-0.8,1-0.5
	c0,0,0-0.3-0.4-0.4c0,0-0.2-0.2,0.4-0.2c0,0,1.2-0.4,0.8-0.7c0,0,2-1.3,1.4-1.4c0,0,2.2-3.2,1.7-3.9c0,0,1-3.7-1.9-3.2
	c0,0,2.1,0.8,1.2,2.6c0,0.1-0.1,0.1-0.1,0c-0.1-0.4-0.4-1.4-0.7-1.4l0.3,1c0.2,0.5,0.2,1,0.1,1.4C45,7.1,44.9,7.5,45,7.8
	c0,0-1.1,2.5-1.5,2.4c0,0-0.4,1.1-1.3,1.3c0,0-0.4,0.8-1.2,0.6c0,0-0.2,0.5-1.1,0.4c0,0,0.2-0.6-0.4-0.1c0,0-0.6,0.1-0.7,0.5
	C38.8,13,35.5,16.1,34.2,16.7z"/>
</svg>
