<?xml version="1.0" encoding="utf-8"?>
<!-- Generator: Adobe Illustrator 19.1.0, SVG Export Plug-In . SVG Version: 6.00 Build 0)  -->
<svg version="1.1" id="Layer_1" xmlns="http://www.w3.org/2000/svg" xmlns:xlink="http://www.w3.org/1999/xlink" x="0px" y="0px"
	 viewBox="0 0 48 48" style="enable-background:new 0 0 48 48;" xml:space="preserve">
<style type="text/css">
	.st0{fill:#808080;}
</style>
<path class="st0" d="M43.4,3.9c0,0-1.4,0.2-2.8-0.7c0,0-4-1.7-6.7,2.4l-2.1,5c-0.5,1.2-1.4,2.2-2.5,2.8c-2.6,1.5-7.9,5-13.2,11
	c-0.5,0.6-1.1,1.2-1.8,1.7c-2.8,2.4-10.3,9-11.1,10.4c0,0-5.6,3.2-2,4.1c0,0,1.2,0.8,2.6-0.2c0,0,6.4-7.1,11.6-6.9
	c0,0,3.7,0,5.1-0.5c0.1,0,0.2,0.1,0.2,0.2c-0.2,0.6-0.6,1.9,0.4,2.9c0.3,0.3,0.6,0.7,0.8,1l2.9,4.3c0,0-0.3,0.3-0.4,0.6
	c0,0,0.4-0.2,0.5-0.2c0,0,0.1,0.5-1.4,0.8c0,0-3.2,0.2-3.6,0.7c0,0-1,0.3-1,0.8c0,0,0.8-0.6,1-0.3c0,0,0.1,0.4,1-0.1
	c0,0,4.3-1.1,6-0.4l3.6,1.4c0,0,0.6,0.6,0.7,0c0,0,0.5-0.1,0.7,0.2c0,0-0.1-0.7-1.2-0.9l-1-0.3c-0.1,0,0-0.1,0-0.1
	c1.1,0.2,2.5,0.4,2.4,0c0,0,0.5,0,0.6,0.2c0-0.1-0.4-0.7-1-0.9c0,0,0.3,0,0.3-0.2c0,0,0.1-0.1,0.1,0c0.1,0.1,0.3,0.2,0.3,0.3
	c0,0,0.1-0.8-1.1-0.7c0,0-5.5,0.1-5.3-0.5c0,0,5.6-0.1,7.1,0.4c0,0,2.9,1.2,3.3,0.5c0,0,0.4,0.1,0.6,0.2c0,0-0.2-0.7-1-0.9
	c0,0,0.5,0,0.5-0.3c0,0,0.4,0.1,0.5,0.3c0,0-0.2-0.6-0.7-0.6c0,0,0.2-0.3,0.6,0c0,0-0.3-0.8-1.4-0.9l-4.1,0.2
	c-0.2,0-0.4-0.1-0.5-0.2c-0.6-0.9-2.8-3.8-2.8-3.8c0,0-1.5-2.1-1-2.9c0,0,2-4.5,4.2-5.1c0.5-0.2,1-0.4,1.4-0.7
	c2.2-1.5,7.3-5.5,6.4-10.7c-0.1-0.6,0-1.3,0.3-1.8c0.3-0.5,0.5-1.2,0.6-1.9c0,0-0.4-4.2,1-5.5c0.2-0.2,0.4-0.4,0.5-0.6
	c0.3-0.5,1.3-1.3,3.6-1.4c0,0,1.1-0.1,1.9-0.5c0.2-0.1,0.5-0.1,0.7-0.1c0.1,0,0.3,0.1,0.4,0.2C48,6.1,48,4.4,43.4,3.9z M29.3,41.3
	c-1.5-0.1-3.8,0.3-3.8,0.3l-2.8-4.9c-0.3-0.8,2.1-4.3,2.1-4.3c-0.6,2.9,1.1,3.3,1.1,3.3c0.1,0.4,2.6,3.9,3.6,5.2
	C29.7,41,29.5,41.3,29.3,41.3z M39,5.7c-0.6,0-1.1-0.3-1.1-0.7s0.5-0.7,1.1-0.7c0.6,0,1.1,0.3,1.1,0.7S39.6,5.7,39,5.7z"/>
</svg>
