<?xml version="1.0" encoding="utf-8"?>
<!-- Generator: Adobe Illustrator 19.1.0, SVG Export Plug-In . SVG Version: 6.00 Build 0)  -->
<svg version="1.1" id="Layer_1" xmlns="http://www.w3.org/2000/svg" xmlns:xlink="http://www.w3.org/1999/xlink" x="0px" y="0px"
	 viewBox="0 0 48 48" style="enable-background:new 0 0 48 48;" xml:space="preserve">
<style type="text/css">
	.st0{fill:#808080;}
</style>
<path class="st0" d="M48,16.1c0-0.1-0.1-0.1-0.1-0.1c-0.4,0-2.1,0.1-4.1,0.8c0,0-3.8,1.5-4.8,2.2c0,0,0,0,0,0
	c-0.1,0.1-6.6,3.9-6.9,4.2c0,0,0,0,0,0c-0.3,0.2-9,6-9.9,6.8c0,0-0.1,0-0.1,0c-0.1-0.1-0.2-0.4,0.2-0.6l1.5-1.1c0,0,0,0,0,0
	c0.1-0.1,1.6-1.4,1.7-1.6c0,0,0.8-0.8,0.8-1.5c0,0,0,0,0,0c0-0.1,0.3-0.9-0.1-0.8c0,0-0.2,0.1-0.1,0.5c0,0,0,0,0,0
	c0,0.1,0,0.6-0.1,0.9c-0.2,0.3-0.8,1.1-0.8,1.1c0,0,0,0,0,0c-0.1,0.1-1.5,1.3-1.7,1.4c0,0,0,0,0,0l-1.2,0.8c0,0-0.1,0-0.1,0l0,0
	c0,0-0.1-0.1-0.1,0c-0.1,0.1-0.4,0.3-0.4,0.1c0,0,0-0.3-0.2-0.3c0,0-0.1,0-0.1,0c0-0.1-0.1-0.2-0.2-0.3c0,0,0,0,0-0.1
	c0.1-0.4,0.5-2.3,0.5-2.5c0,0,0.5-1.9,0.9-2.3c0,0,0.6-0.8,1.2-0.8c0,0,0.1,0,0.1-0.1c0-0.1,0-0.4-0.4-0.1c0,0-1.1,0.7-1.3,1.4
	c-0.1,0.6-0.7,2.2-0.8,2.3c0,0,0,0,0,0L21,28.5c0,0,0,0.5-0.5,0.4c0,0-0.2,0-0.3,0c-0.1,0-0.1,0-0.1-0.1c0.3-1.3,2.1-9.2,1.5-12.2
	c0,0,0,0,0,0c0-0.2-0.4-7.8-3.8-12.2c0,0,0,0,0,0c0-0.1-0.8-0.8-1.6,0.5c0,0,0,0,0,0C16.1,5,15,6.9,14,8.4c-0.7,1-1.4,1.9-2.3,2.7
	C10.3,12.4,8,14.7,9,16l2.8,3.8c0,0.1,0,0.1-0.1,0.1c-1.1-0.6-4.6-2.5-7.5-0.5c0,0,0,0,0,0C4.1,19.4-1.8,24.4,0.6,32
	c0.1,0.2,0.1,0.4,0.1,0.6C1,33.8,2.5,39,7.9,37.4l7.1-2.4c0.1,0,0.2,0.1,0.1,0.2c-0.1,0.2-0.4,0.6-1.1,0.9c0,0,0,0,0,0
	c0,0-1.5,0.9-1.9,1.7c-0.1,0.2-0.2,0.3-0.4,0.4c-0.3,0.2-0.9,0.7-0.6,1.4c0,0,0,0,0,0c0.1,0.1,0.7,0.4,2.6-1.5c0,0,0,0,0,0
	c0.1-0.1,1.3-1.9,2.3-2.5c0.2-0.1,0.5-0.2,0.4,0l-2.1,3.6c0,0,0,0,0,0l-1.7,2.6c-0.1,0.1-0.1,0.3-0.2,0.5c0,0.5,0,1.3,1.2,1.5
	c0,0,0,0,0,0c0.2,0,3.1-0.5,4.6-1.5c0.2-0.2,0.5-0.3,0.7-0.5c1-0.5,3.6-1.8,4.4-2.6c0,0,0,0,0,0c0.2-0.1,10.7-7.7,6.8-9.2
	c-0.1,0-0.1-0.1,0-0.1c0.4-0.1,1.3-0.4,2.9-0.5c0,0,0,0,0,0c0.1,0,1,0.2,3.6-2.7c0,0,0,0,0,0C37.3,26.5,48,17.4,48,16.1z"/>
</svg>
