<?xml version="1.0" encoding="utf-8"?>
<!-- Generator: Adobe Illustrator 19.1.0, SVG Export Plug-In . SVG Version: 6.00 Build 0)  -->
<svg version="1.1" id="Layer_1" xmlns="http://www.w3.org/2000/svg" xmlns:xlink="http://www.w3.org/1999/xlink" x="0px" y="0px"
	 viewBox="0 0 48 48" style="enable-background:new 0 0 48 48;" xml:space="preserve">
<style type="text/css">
	.st0{fill:#808080;}
</style>
<path class="st0" d="M43.5,7.5c-0.6-0.6-2.5-1.9-4.9,0.4c-0.2,0.2-0.5,0.3-0.8,0.2c-0.4-0.1-1.3-0.2-2.7,0.1c-0.2,0-0.3,0-0.5-0.1
	c-0.3-0.3-1.1-0.7-2.8-0.4c-0.3,0.1-0.7,0.1-1,0c-1-0.2-3.2-0.5-4.3-0.7c0,0-4.6-1.2-9.4,0.7C16.6,8,16,8.2,15.5,8.3
	c-1.3,0.3-4,1-6.1,2.4c-1.3,0.9-2.3,2.1-2.8,3.6c-0.4,1.1-1,2.8-1.2,3.5L4.1,24c0,0-1.4,3.6-1.5,4c0,0-1,2.8-1,3.8
	c0,0-0.7,1.7-1.1,2c0,0-0.8,0.4-0.5,0.9c0,0,0.1-0.6,0.4-0.6c0,0-0.1,0.6,0.6,0.5c0,0,0.2,0.1,0.1,0.4c0,0,1-1.2,1.1-2.7
	c0-0.5,0.1-1,0.2-1.4c0.4-1.5,1.3-4.3,2.1-5.4l1.5-4.2c0,0,0.2-0.3,0.3,0.3c0,0,0.4,1.2,0.3,1.7c0,0-0.1,1.2,0.1,1.5
	c0,0-1.4,8.4-1.8,9.2c0,0-1.2,1.9-1.4,3.5c-0.1,0.5-0.2,1.1-0.4,1.6C2.9,39.8,2.8,40.7,4,41c0,0,5.3,0.2,5.2-1.3
	c0,0,1.1,0.1,0.4-0.9c0,0-0.2-0.6-0.8-0.8c0,0-0.7-0.4-0.4-1.5c0,0,0.6-4.5,1.7-5.7c0,0,1.1,3.1,0.8,4.5c0,0-0.1,1.7,0.1,2.2
	c0,0-1.6,2.6,1,2.8l1.9,0c0,0,1.3,0.3,1.5-0.5c0,0,1.8,0.4,1-1c0,0,0.2-0.7-0.7-1c0,0-0.8-0.7-0.9-1.8c0,0-0.6-1.8-0.5-2.9
	c0-0.1,0-0.3,0-0.4c0-0.6,0-2.2,0.4-2.8c0,0,0.8-1,1.1-1.8c0.1-0.4,0.5-0.6,0.9-0.5c0.5,0.1,1.1,0.1,1.5,0c0,0,0.7-0.4,2.5-0.3
	c0,0,2.5-0.1,5.3-1.1c0,0,2.4-0.3,3.5-0.1c0.3,0,0.5,0.3,0.5,0.5c0,1.7-0.1,8-0.7,9.9c-0.1,0.3,0,0.6,0.2,0.8
	c0.5,0.5,1.7,1.3,3.7,0.4c0,0,0.1,0.2-0.1,0.6c0,0-1,1.5,0.2,2.3c0,0,1.3,0.9,2.1,0.5c0,0,1.5,0.7,2.2-0.1c0,0,1.3-0.2,0.5-1.7
	c0,0-1.4-1.7-1.3-2.4c0,0,0.2-5.8,0-6.9c-0.2-1-0.4-5.9-0.4-7.4c0-0.4,0.2-0.8,0.5-1c0.3-0.2,0.6-0.3,1.1-0.1c0.3,0.2,0.6,0.2,1,0.3
	c1,0.1,3,0.7,4,3.1c0,0,0.6,0.4,0.4-1.2c0,0,0-2.9,0.5-1.5l-0.1,6.1c0,0,0.1,6.6,0.6,8.6c0.1,0.4,0.1,0.8,0.1,1.1
	c0,0.4-0.1,0.8-0.3,0.6c-0.2-0.1-0.3-0.1-0.5-0.1c-0.5,0-1.5,0.2-1.3,1.4c0,0,0.6,1.9,2.7,0.8c0,0,1.5-0.6,1.2-4.2
	c0,0-0.9-6.2,0.6-9.4c0,0,1.8-3,1-8.3c0,0-0.1-4.5-1.1-5.8c0,0-0.5-3.8-2.6-4.9C43.9,7.8,43.7,7.7,43.5,7.5z M33.1,35.7
	c-1.1-0.3-0.1-1.6-0.1-1.6C33.3,34.8,33.1,35.7,33.1,35.7z M43.4,14.8c0,0,0.5-0.3,0.8,0.2C44.2,15,43.5,15.3,43.4,14.8z"/>
</svg>
