<?xml version="1.0" encoding="utf-8"?>
<!-- Generator: Adobe Illustrator 19.1.0, SVG Export Plug-In . SVG Version: 6.00 Build 0)  -->
<svg version="1.1" id="Layer_1" xmlns="http://www.w3.org/2000/svg" xmlns:xlink="http://www.w3.org/1999/xlink" x="0px" y="0px"
	 viewBox="0 0 48 48" style="enable-background:new 0 0 48 48;" xml:space="preserve">
<style type="text/css">
	.st0{fill:#808080;}
</style>
<path class="st0" d="M47.8,31c0,0-0.4-0.3-1-1.5c0,0-0.9-2.1-1.4-2.8c-0.1-0.1-0.1-0.3,0-0.4c0.2-0.4,0.6-1.1,0.2-1.5
	c0,0-0.8-0.4-1.1-1.4c0,0-0.4-1.3-0.8-1.5c0,0,0.4-1.2-0.5-1c-0.2,0.1-0.4,0-0.5-0.2c-0.9-1.1-5-5.3-13.6-7.5
	c-0.5-0.1-1.1-0.2-1.6-0.2c-2.3,0-9.1-0.1-12.5-0.4c-0.6,0-1.1,0-1.7,0C10.5,12.8,2.7,14.1,1,19.1c-0.1,0.3-0.2,0.6-0.3,0.9
	c-0.4,1.1-1.4,3.9,0.1,6.2C1,26.5,1,26.9,0.9,27.3c-0.1,0.3-0.1,0.6,0.1,1.1c0,0-0.6,3.9-0.1,4c0,0-0.1,2.5,1.2,1.6
	c0,0,1.4,0.6,2.5-0.2c0,0,0.7-0.4-0.7-1c0,0-0.2-1.5,0.5-2.6c0,0,2.1-1.4,2-0.7c0,0,0.4,0.8,0.7,1.2c0.1,0.2,0.2,0.3,0.3,0.5
	c0.3,0.7,1.1,2.2,1.9,2.2c0,0-0.3,0.7,1.4,0.4c0,0,1,0.7,1-0.2c0,0,1.1,0.4,1.2,0.5c0,0,1.7-0.9-0.5-1.4c0,0-0.6-0.4-0.7-0.3
	c0,0,0.4-0.5-0.8-1.5c-0.1,0-0.1-0.1-0.1-0.2l0-0.3c0,0,0.3-0.2,0.2-0.4c0-0.1,0-0.1,0-0.2l0.1-0.2c0.1-0.1,0.2-0.1,0.2-0.1
	c1,0.5,7.3,3.4,14.2,0.4c0.2-0.1,0.3,0.1,0.3,0.2c-0.2,0.5-0.4,1.5-0.1,2.2c0,0-0.5,2.1,1.3,1.6c0,0,1.7-0.6,2-0.3
	c0,0,0.5,0.1,0.4-0.1c0,0-0.3-0.8-0.8-0.6c0,0-1-0.4-0.7-0.7c0,0,0.3-0.2,0.2-1c0-0.2,0.1-0.3,0.2-0.4c0.4-0.2,1.1-0.7,1.3-1.1
	c0,0,0.5,2.2,1.8,2.8c0,0-0.1,2.8,1.5,2.7c0,0,1.1,0.1,1.1-0.2c0,0,0.2,0.3,0.7,0.2c0,0,0.2,0.4,0.9,0.2c0,0,0.4-0.1,0.1-0.5
	c0,0,1.5,0.2,0.6-0.7c0,0-2.1-1.3-2.2-2.4c0,0,0.2-0.8-0.3-1.6c0,0,0.1-1.3-0.1-1.6c0,0.1,0.6,0.9,1.2,0.1c0,0,0.2,1.9,1.3,0.9
	c0,0,0.8,2.2,2.4,1.2c0.3-0.2,0.6-0.1,0.9,0.1c0.8,0.6,2.4,1.9,3,2.5c0,0,2.2,1.6,3.4,0.6C46.1,34.1,48.7,32.4,47.8,31z M44.9,26.2
	c0,0-0.5,0.1-0.3-0.5C44.6,25.7,45.3,25.7,44.9,26.2z"/>
</svg>
