<?xml version="1.0" encoding="utf-8"?>
<!-- Generator: Adobe Illustrator 19.1.0, SVG Export Plug-In . SVG Version: 6.00 Build 0)  -->
<svg version="1.1" id="Layer_1" xmlns="http://www.w3.org/2000/svg" xmlns:xlink="http://www.w3.org/1999/xlink" x="0px" y="0px"
	 viewBox="0 0 48 48" style="enable-background:new 0 0 48 48;" xml:space="preserve">
<style type="text/css">
	.st0{fill:#808080;}
</style>
<path class="st0" d="M47.9,21.4c0,0-4.7-12.3-21.2-8.6c-0.3,0.1-0.6,0.1-0.9,0c-2.3-0.4-12.9-1.4-21.8,7c-0.1,0.1-0.3,0.1-0.4,0.1
	c-0.4-0.2-1-0.4-0.2,0.8c0.1,0.1,0.1,0.3,0,0.4c-0.1,0.1-0.1,0.3-0.2,0.5c-0.2,0.4-0.5,0.7-0.9,0.8c-0.4,0.2-0.8,0.6,0.2,1.8
	c0.2,0.2,0.3,0.5,0.2,0.8c0,0.2-0.1,0.4-0.2,0.5c-0.1,0.1-0.1,0.2-0.2,0.3C2,26.4,1.1,28.5,0.4,29c0,0-1.2,0.7,0.7,3
	c0,0,0.6,2.2,1.5,1.5c0.1-0.1,0.3-0.2,0.5-0.2c1-0.3,4.6-1.6,5.3-3.8c0.1-0.2,0.3-0.3,0.5-0.1c0.6,0.5,1.7,1.1,2.8-0.6
	c0,0,0.7,0,1.1-0.2c0.2-0.1,0.3-0.1,0.5-0.1c0.3,0.1,0.6,0.1,0.8-0.3c0,0,0.5,0.1,0.3,0.7c0,0-0.1,2.6-0.7,2.9c0,0-1.8,0.9-0.1,1.5
	c0,0,2.3,0,3-1.1c0,0-0.4,1.1-1,1.2c0,0-1.5,0.1-1.4,1.4h0.3c0,0-0.1,0.5,1.7,0.2c0,0,0.4,1,1.7,0.2c0.1,0,0.2-0.1,0.3-0.1
	c0.2,0,0.5-0.2,0.5-0.8c0,0,0.8-1.3,0.5-2.4c0,0,0.1-2.3,0.7-2.1c0,0,0.5,0.4,0.8-0.1c0,0,9.1,3.1,14.2,1.1c0.2-0.1,0.5-0.1,0.8-0.1
	l1,0c0.4,0,0.8,0.2,1.1,0.5c0.1,0.1,0.2,0.2,0.2,0.2c0.1,0,0.1,0,0.1,0l0.5-0.8c0.1-0.1,0.3-0.1,0.3,0c0.2,0.4,0.4,1.2,0.2,1.6
	c0,0-0.5,0.9-0.5,1.6c0,0-1.6,0.1-1.8,1.2c0,0,0.2,0.2,0.4,0.3c0,0,0.7,0.3,1,0c0,0,0.5,0.2,0.7,0.1c0,0,0.8,0.8,1.4,0.2
	c0,0,0.9,0,1.1-1.2c0,0-0.2,1.3,0.7,1.2c0,0,0.7-0.3,0.9-0.8c0,0,0.2,0.5,0.6,0c0,0,1.1-1.3,1-1.9c0,0,0.4,0.2,0.4-0.7
	c0,0,0.3-2.2,1.1-2.8c0,0,0.7-1.1-0.6-2.1c0,0,0.8-0.6,1.6,0.8c0,0,0.8-0.4,0.7-1.7c-0.1-0.8-0.2-1.1-0.3-1.2
	c-0.1-0.1-0.1-0.2-0.1-0.3l0,0c0-0.1,0-0.2,0.1-0.3c0.1-0.1,0.2-0.2,0.1-0.5c0-0.1,0-0.2,0-0.4c0.1-0.2,0.3-0.6,0.2-1
	C47.9,22.9,48.1,22.3,47.9,21.4z"/>
</svg>
