<?xml version="1.0" encoding="utf-8"?>
<!-- Generator: Adobe Illustrator 19.1.0, SVG Export Plug-In . SVG Version: 6.00 Build 0)  -->
<svg version="1.1" id="Layer_1" xmlns="http://www.w3.org/2000/svg" xmlns:xlink="http://www.w3.org/1999/xlink" x="0px" y="0px"
	 viewBox="0 0 48 48" style="enable-background:new 0 0 48 48;" xml:space="preserve">
<style type="text/css">
	.st0{fill:#808080;}
</style>
<path class="st0" d="M47.7,28.1l-0.6-1.7c-0.1-0.2,0-0.5,0.1-0.7c0.2-0.3,0.5-0.7,0.2-1.1c-0.1-0.1-0.1-0.3,0-0.4
	c0.4-1.4,2-8.6-3.5-10.5c-0.3-0.1-0.5-0.2-0.7-0.4c-0.7-0.7-2.8-2.4-7.2-2.1c-0.1,0-0.3,0-0.4,0c-0.6-0.2-2.4-0.5-4,0.3
	c-0.2,0.1-0.4,0.1-0.5,0.2c-1.1,0.3-4.8,1-8.2,0c0,0-0.8-0.4-2.4,0c-0.3,0.1-0.7,0.2-1,0.3c-0.3,0.1-1,0.3-2.1-0.1
	c0,0-3-0.3-4.1,1.8c0,0-2.1-0.8-1.9,1.4c0,0-0.8-0.2-1.1-0.7c-0.1-0.1-0.1-0.2-0.2-0.2c-0.5-0.4-1.8-1.3-2.5-1.3
	c-0.1,0-0.2,0.1-0.2,0.2c0.1,0.7,0.4,3.4,2.3,3.6c0,0-0.2,0.5,0.1,0.5c0.1,0,0.2,0.1,0.2,0.3c-0.1,0.8-0.4,3.2-2.7,4.3
	c-0.1,0.1-0.3,0.1-0.4,0C6.6,21.5,6,21.3,5.8,21c0-0.1-0.1-0.1-0.2,0c-0.2,0.3-0.5,1-0.3,2.2c0.1,0.3-0.3,0.6-0.6,0.5
	c-0.2-0.1-0.4-0.2-0.7-0.4c0,0-2.4-1.4-3.1-3.8c0-0.1-0.1-0.1-0.2-0.2c-0.3-0.1-1.1-0.2-0.7,1.8c0,0,1.4,4.8,2.5,5.8
	c0.2,0.1,0.2,0.3,0.2,0.5c0,1,0.1,3.5,3.3,3.2c0,0,4.2-0.3,6.5-1.8c0,0,2.7-1.8,3.2-2.7c0.1-0.1,0.2-0.1,0.3-0.1l0.2,0.1
	c0.2,0.1,0.3,0.3,0.3,0.4c0.1,0.7,0.4,2.3,1.4,3.1c0,0,1.8,1.9,0,3.1c0,0-1.8,1.1-1.8,1.6c0,0-0.3,1.1,1.2,1c0.2,0,0.4,0,0.5,0.1
	c0.2,0.1,0.8,0.3,2,0.1l1.8-0.2c0.2,0,0.4,0.2,0.4,0.4c-0.1,0.3-0.1,0.7,0.3,0.6c0,0-0.3,0.9,2.4,0.6c0.1,0,0.2,0,0.2,0
	c0.4,0,1.7,0.2,2.1-0.3c0,0,1.4-0.5,1.1-1.1C28,35.4,28,35.1,28,34.9c0.2-1.3,0.6-4.6,0.8-5.9c0-0.2,0.2-0.3,0.4-0.3
	c1,0.2,4.1,0.5,7-1.1c0.2-0.1,0.3,0,0.4,0.1c0.3,0.6,0.7,2,0,2.4c0,0-4.3,2.7-0.7,3c0.1,0,0.3,0,0.4,0.1c0.4,0.2,1.4,0.5,1.9,0
	c0,0,3,0.5,1.9-1.7c0,0,0.2-1.9,1-2.8c0,0,0.5-1.1-0.8-3.1c-0.1-0.1-0.1-0.3,0-0.4c0.1-0.1,0.3-0.3,0.6,0c0,0,3.4,2.3,2.8,5.7
	c-0.1,0.3-0.2,0.5-0.4,0.7c-0.6,0.5-2,1.8-1,2.4c0,0,1.8,0.6,2.2,0.3c0,0,2.6,0.6,3.2-0.6c0,0,0.5-0.6-0.4-1.4c0,0-0.3-1.5,0.5-2.6
	C47.9,29.8,48.3,29.2,47.7,28.1z M9.7,24c0,0,0.1-1.1,1.5-0.5C11.1,23.5,10.5,24.8,9.7,24z M22.6,34.9c-0.7-1,0-3.4,0-3.4
	c0.4-1.5,0.2-3.4,0.2-3.4h0.3c-0.1,1.1,1.1,3.7,1.1,3.7C25,34,22.6,34.9,22.6,34.9z"/>
</svg>
