<?xml version="1.0" encoding="utf-8"?>
<!-- Generator: Adobe Illustrator 19.1.0, SVG Export Plug-In . SVG Version: 6.00 Build 0)  -->
<svg version="1.1" id="Layer_1" xmlns="http://www.w3.org/2000/svg" xmlns:xlink="http://www.w3.org/1999/xlink" x="0px" y="0px"
	 viewBox="0 0 48 48" style="enable-background:new 0 0 48 48;" xml:space="preserve">
<style type="text/css">
	.st0{fill:#808080;}
</style>
<path class="st0" d="M40.7,6.8c0,0-1.3-1.7-1.5-2.2c0,0-0.4-1.5-1.3-2c-0.4-0.3-0.7-0.7-0.7-1.2c0-0.1,0-0.3,0-0.4
	c0,0-0.1-1.2-0.6-0.9c0,0-0.1,0-0.1,0c-0.3-0.1-1-0.2-0.7,0.6c0,0,0.7,0.9,0.2,1.4c-0.1,0.1-0.2,0.1-0.4,0.2l-0.8,0.2
	c-0.1,0-0.2,0-0.3-0.1c-0.3-0.3-1.2-0.9-1.9-0.7c-0.1,0-0.1,0.1-0.1,0.2l1,1.3c0.1,0.1,0.1,0.2,0.1,0.3l-0.9,0.1l0.7,0.2
	c0,0-0.1,0.1-0.2,0.2l-1.3,0.2H33c0,0-0.1,0.1-0.1,0.1l-1.3,0.3l0.8,0.2c-0.1,0.1-0.1,0.1-0.2,0.2l-1.2,0.3l0.8,0.1l-1.2,0.5L31.4,6
	c-0.1,0.1-0.1,0.1-0.2,0.2l-0.9,0.3l0.6,0.1c0,0-0.1,0.1-0.1,0.1l-0.9,0.4l0.6,0.1c-0.1,0.1-0.1,0.2-0.2,0.3c-0.4,0.3-1,0.6-1.2,0.8
	c0,0,0.5-0.2,1-0.4c0,0.1-0.1,0.2-0.1,0.3l-1.1,0.6h0.8c0,0.1-0.1,0.1-0.1,0.2l-1,0.5h0.8c0,0,0,0.1-0.1,0.1l-1.1,0.6l0.8,0.1
	c0,0.1-0.1,0.2-0.1,0.3l-1.2,0.7l0.7,0.2c-0.1,0.1-0.1,0.2-0.2,0.3L27,12.2l0.7,0.2c-0.1,0.1-0.2,0.3-0.2,0.4l-1.3,0.7l0.7,0.2
	c-0.1,0.1-0.2,0.2-0.2,0.4l-1.1,0.4l0.6,0.2c-0.1,0.1-0.1,0.2-0.2,0.3l-1.1,0.3l0.6,0.3c-0.1,0.1-0.2,0.2-0.3,0.3h-1.1l0.5,0.4
	c-0.1,0.1-0.2,0.1-0.3,0.1c0,0-0.1,0-0.1,0.1l-0.8-0.1l0.4,0.4c-0.1,0.1-0.1,0.1-0.2,0.2c0,0,0,0,0,0l-1-0.1l0.6,0.4
	c-0.1,0.1-0.3,0.2-0.4,0.3l-1.2,0.1c0,0-0.4,0.6-0.1,0.9c-0.3,0.3-0.6,0.6-0.8,1c0,0-1.2,1.3-5.3,2.2c0,0-5.7,1.2-5.9,4.2
	c0,0-1,6.3-1.8,6.8c0,0-1.1,1.5-0.4,3.3c0.1,0.3,0.2,0.6,0.2,0.9c0,0.3,0,0.7-0.1,1.1c0,0.1,0,0.2,0,0.3c0,0.4,0.3,1.5,1.4,1.8
	c0,0-0.7-1.9,0-2.3c0.1-0.1,0.2-0.2,0.2-0.3c0-0.2,0-0.5-0.2-0.8c-0.2-0.4-0.3-0.8-0.3-1.2c-0.1-1-0.2-2.6,0-3c0,0,1.2-3.5,1.5-5.1
	c0-0.1,0.2-0.1,0.2,0l0.7,4.3c0,0,0.1,2.7-0.6,3.9c-0.2,0.3-0.3,0.7-0.2,1c0,0.4,0.1,0.9,0.4,1.6c0,0,0.9,5.2,0.5,6.4
	c0,0.1,0,0.2,0,0.3c0,0.3,0.2,1,0.6,1.4c0,0,0.1,0.5-0.1,0.8c0,0-0.2,0.3,0.5,0.3c0,0,2.6,0,1.9-0.3c0,0-1.6-1.6-1.5-2.9
	c0,0-0.3-6,0.3-7.5c0-0.1,0.1-0.1,0.1,0c0.1,0.3,0.3,1,0.7,1.4c0.4,0.5,2,5.9,2,6.6c0,0,0,0.7,0.6,0.9c0,0,0.6,0.4,0.5,1
	c0,0-0.1,0.7,0.5,0.6c0,0,2.4,0.1,1.5-0.4l-1.3-1.7c-0.4-0.6-0.8-1.2-1-1.9c-0.4-1.2-0.9-3-0.9-3.2c0-0.4-0.5-4.7-0.1-5.3
	c0,0,1.8-3.3,1.7-4.3c0-0.1,0.1-0.2,0.2-0.1c0.6,0.1,2.3,0.2,3.6-0.5c0,0,1.1-0.4,1.7-0.5c0.1,0,0.2,0.1,0.3,0.2l0.3,3.6
	c0,0,0.4,10,0,11.7c0,0-0.1,1,0.3,1c0,0-0.8,2,0,2c0,0,3.1,0.4,2.2-0.5c-0.1-0.1,0-0.2,0.1-0.2c0.5,0,1.4,0,1.2-0.2
	c0,0-0.5-0.4-0.9-0.8c-0.3-0.3-0.4-0.7-0.4-1.1c0-0.8,0-2.6-0.2-3L25,39.2c0-0.1,0-0.3,0.2-0.4c0.2-0.1,0.3-0.5,0.2-1.8
	c0,0,0-3.6,1-5.6c0.2-0.3,0.3-0.7,0.4-1c0-0.2,0.1-0.4,0.1-0.6c0.1-0.6,0.4-1.1,0.7-1.6l1.2-1.7c0,0,1-1.2-0.1-3
	c0,0-0.7-1.3,0.4-2.9c0.1-0.2,0.3-0.4,0.4-0.7c0.6-1.1,2.2-4.5,2.2-5.7c0,0,1.2-4.8,1.6-5.7c0,0,1.1-3.4,2.7-2.3c0,0,1,0.5,2.2,0.8
	c0.3,0.1,0.6,0.2,0.8,0.4c0.4,0.3,0.9,0.8,1.3,0.6c0.1,0,0.2-0.1,0.2,0c0.1,0,0.3,0.1,0.4,0.3C40.9,8.4,41.2,7.5,40.7,6.8z
	 M36.2,4.2c0.9-0.8,1.5,0.3,1.5,0.3C36.2,5.1,36.2,4.2,36.2,4.2z"/>
</svg>
