<?xml version="1.0" encoding="utf-8"?>
<!-- Generator: Adobe Illustrator 19.1.0, SVG Export Plug-In . SVG Version: 6.00 Build 0)  -->
<svg version="1.1" id="Layer_1" xmlns="http://www.w3.org/2000/svg" xmlns:xlink="http://www.w3.org/1999/xlink" x="0px" y="0px"
	 viewBox="0 0 48 48" style="enable-background:new 0 0 48 48;" xml:space="preserve">
<style type="text/css">
	.st0{fill:#808080;}
</style>
<path class="st0" d="M12.8,47.1c-0.5-0.7-1.8-2.3-2.6-2.8c-0.1,0-0.1-0.1-0.2-0.1c-0.5-0.4-2.5-2.1-2.4-4c0-0.1,0-0.3,0-0.4
	c0-0.7,0.3-3.3,4.7-5.5c0,0,4.5-1.7,8.1-1.8c0,0,6.5,0,9.5,1.2c0,0,6.2,1.9,8.7-1.8c0,0,1.1-1.4-0.2-4.1c-0.3-0.7-0.8-1.4-1.3-2
	c-1-1.1-3.1-3.6-3-5.4c0,0-0.3-3.2,4-5.4c0,0,3.1-1.2,5.1-1.7c0.3-0.1,0.7-0.2,1-0.4c0.7-0.5,1.6-1.5-0.9-2.8c0,0-1.9-0.5-4.8-0.5
	c0,0-2.5,0.1-6.7-0.9c-0.3-0.1-0.5-0.1-0.8-0.1c-1.2-0.1-4.5-0.4-6.5,0.4c0,0-5.9,2.7-11.7,0.6c0,0-3-0.9-4.4-1.2
	c0,0-2.6-0.5-3.7-2.7C4.6,5.6,4.5,5.3,4.4,5C4.4,4.6,4.2,3.9,3.4,3.4C3.1,3.2,2.8,3.1,2.6,3C2.2,2.9,1.3,2.6,1,1.4
	c0,0-0.1-0.8-0.9-0.8c0,0-0.3-0.2,0.1-0.3c0,0,1.1,0,1.2,0.8c0,0,0.3,0.8,1.5,1c0,0,1.7,0.5,2.1,1.3c0,0,0.9,2.5,2.5,3
	c0,0,1.6,0.4,3,0.5c0,0,4,0.6,5,0.9c0,0,3.3,0.5,5.1-0.3c0,0,4.8-1.5,6.1-1.6c0,0,4.3-0.4,6.2,0.1c0,0,5.1,0.9,6,0.9
	c0,0,5.7,0,7.2,1.3c0,0,2.3,1.2,1.8,4.2c-0.2,1.1-0.8,2-1.6,2.6c-0.6,0.4-1.4,0.9-2.4,1.1c0,0-6,1.9-6.5,4c0,0-0.5,1,2.4,3.9
	c0.6,0.6,1,1.2,1.4,1.9c0.9,1.6,2,4.5,0.8,7.7c0,0-1.5,3.7-6.9,4.1c-0.2,0-0.5,0-0.7,0c-1-0.1-4.1-0.4-6.1-1.1
	c-0.5-0.2-1.1-0.3-1.6-0.4C24.7,36,21,35.5,18.9,36c-0.2,0.1-0.5,0.1-0.7,0.1c-1.2,0.1-4.7,0.5-6.9,2.5c0,0-1.7,1.7,0.3,3.6
	c0,0,2.7,1.8,2.9,2.6c0,0,0.7,2.9-0.7,2.9C13.3,47.6,13,47.4,12.8,47.1z"/>
</svg>
