<?xml version="1.0" encoding="utf-8"?>
<!-- Generator: Adobe Illustrator 19.1.0, SVG Export Plug-In . SVG Version: 6.00 Build 0)  -->
<svg version="1.1" id="Layer_1" xmlns="http://www.w3.org/2000/svg" xmlns:xlink="http://www.w3.org/1999/xlink" x="0px" y="0px"
	 viewBox="0 0 48 48" style="enable-background:new 0 0 48 48;" xml:space="preserve">
<style type="text/css">
	.st0{fill:#808080;}
</style>
<path class="st0" d="M47.7,17.9l-3.6-3.4c0,0,0-0.5-0.2-0.8c-0.1-0.2-0.2-0.3-0.2-0.5c-0.1-0.5-0.5-1.3-1.5-1.9c0,0-1.4-0.6-2.2,0
	c-0.1,0.1-0.2,0.1-0.4,0.2l-0.6,0.1c-0.1,0-0.2-0.1-0.3-0.2c0-0.6-0.2-2.1-1.1-1.7c0,0,0.4,0.4,0.2,1c0,0-0.1,1.1-0.1,1.3
	c0,0-0.3,0.5-0.3,0c0,0,0.3-2.6-0.5-2.1c0,0,0,0.7-0.3,1.1c0,0-0.2,0.7-0.2,1.1c0,0.1-0.1,0.3-0.3,0.3c-0.7,0-2.6,0-4.9-1.4
	c-0.3-0.2-0.6-0.4-0.8-0.7c-0.2-0.2-0.7-0.5-1.7-0.5c-0.1,0-0.3,0-0.4,0c-1-0.2-5.3-0.8-8.9,0.5c-0.2,0.1-0.3,0.1-0.5,0.1
	c-1.4,0-8.4,0.1-11,0.5c-0.5,0.1-0.9,0.3-1.3,0.6c-1,0.8-3.4,2.7-3.9,2.9c0,0-3.5,2-0.5,7.2c0.1,0.1,0.1,0.3,0.1,0.5
	c0,0.3,0,0.8,0.2,1c0.1,0.1,0.1,0.3,0.1,0.5c-0.1,0.4-0.2,1,0,1.3c0.1,0.1,0.1,0.1,0.1,0.2c0,0.2-0.1,0.6-0.4,1.1
	c-0.3,0.4-0.7,0.6-1.1,0.8c-0.5,0.2-1.4,0.9-1.1,2.2c0,0,1.1,7,1,7.8c0,0,0.2,0.7,0.6,0c0,0,0.4,0.2,0.2,1.1c0,0-0.4,0.5,1.8,0.6
	c0,0,1.6,0.2,1-0.4l-0.8-0.8c0,0,0.1-0.5-0.5-1c0,0-0.9-3.6-0.3-5.1c0-0.1,0.2-0.1,0.2,0c0.5,0.9,2.9,5.1,3,5.9c0,0,0.2,0.6,0.4,0
	c0,0,0.3,0.5,0.4,0c0,0,0.1,0.6,1.1,0.6c0,0,2.3,0.1,1.9-0.3L9,36.4c0,0-0.4-0.6-1.1-1c0,0-1.1-1.7-1.2-2c0,0-1.7-2.4,0.1-4.1
	c0,0,1.4-1.8,1.6-2.4c0-0.1,0.1-0.1,0.2-0.1c0.3,0,1,0.1,1.5-0.3c0.1-0.1,0.3-0.1,0.4,0c0.9,0.8,4.8,3.4,13.5-0.3
	c0.5-0.2,1,0.1,1.2,0.6c0.6,2,1.9,6.5,0.9,7.9c0,0,0,0.5,0.4,0c0,0,0.2,0.2,0,0.7c0,0,0.3,1.4,2.5,1.1c0,0,0.1,0.7,1.8,0.6
	c0,0,1.7,0.1,1-0.6c0,0-1.8-1.6-1.9-2.5c-0.1-0.9-0.8-2-0.5-3.7c0,0,0.3-1.2-0.1-1.8v-1.7c0-0.4,0.2-0.8,0.5-1
	c0.4-0.4,0.9-0.9,1.2-1.4c0.1-0.2,0.3-0.5,0.6-0.6c1.5-0.9,6.8-3.7,8.9-4.1c0.3-0.1,0.7,0,0.9,0.2c0.4,0.3,1.4,0.7,2.5,0.3
	c0.1,0,0.1,0,0.2,0c0.3,0,1.1-0.1,1.7,0.1c0.3,0.1,0.5,0.1,0.8,0.1c0.2,0,0.4-0.1,0.5-0.4c0,0,0.4,0.2,0.7-0.6
	C47.7,19.4,48.3,18.6,47.7,17.9z M42.9,14.8c0,0,0.4-0.4,0.6,0C43.5,14.8,43.2,15.2,42.9,14.8z"/>
</svg>
