<?xml version="1.0" encoding="utf-8"?>
<!-- Generator: Adobe Illustrator 19.1.0, SVG Export Plug-In . SVG Version: 6.00 Build 0)  -->
<svg version="1.1" id="Layer_1" xmlns="http://www.w3.org/2000/svg" xmlns:xlink="http://www.w3.org/1999/xlink" x="0px" y="0px"
	 viewBox="0 0 48 48" style="enable-background:new 0 0 48 48;" xml:space="preserve">
<style type="text/css">
	.st0{fill:#808080;}
</style>
<path class="st0" d="M47,43.2l1-0.1c0,0-2.9-0.8-13.3-7.2c0,0,0.8-0.1-3.1-2.9c-0.1-0.1-0.2-0.2-0.3-0.3l-8.4-9
	c0,0-5.6-5.7-8.9-13.7c0,0-1.1-6.1-6.9-6.5c-0.2,0-0.4,0-0.7,0C5.6,3.7,2.9,4.1,2.6,5c0,0-2.4,0.7-2.6,1.6c0,0,0,0.1,0.3-0.1
	c0,0,0.8,0.7,1.6,1.2c0.6,0.3,1,0.9,1.2,1.5c0.3,0.8,0.8,1.9,1.2,2.9c0.3,0.6,0.5,1.3,0.5,2c0,0.3,0,0.7-0.1,1c0,0-0.5,8.2,2.6,13.3
	c0,0,4.9,6.9,9.7,7.5c0.2,0,0.3,0.2,0.2,0.4c-0.1,0.3-0.2,0.8,0.1,1.5c0.1,0.3,0.1,0.5-0.1,0.7c-0.6,0.8-2.2,2.8-2.8,3.3
	C14.3,42,14.1,42.1,14,42c-0.2,0-0.4,0-0.4,0.3c0,0-0.7-0.2-0.9,0c0,0-0.6-0.3-0.9-0.3c0,0-1.5-0.8-2.2,0.8c0,0,1.2-1,1.9-0.3
	c0,0-0.4,0.6,0.4,0.4c0.1,0,0.1,0,0.1,0.1l0,0.2c0,0.1,0,0.1-0.1,0.1c-0.2,0-0.6,0-0.8-0.2c0,0-0.2-0.2-0.2,0c0,0-1.3-0.7-2,0.4
	c0,0-0.1,0.1-0.5-0.1c0,0-0.4-0.2-0.4-0.1c0,0-1.9-0.8-2.3,0.9c0,0,0.9-1.1,1.9-0.5c0,0-0.3,0.3,0,0.4c0,0,0.5,0.2,0.8,0
	c0,0,0.3-0.1,0.3,0.1c0,0,0.2-0.8,1-0.6c0,0-0.2,0.6,0.6,0.3c0,0,0,0.2,0.5,0.2c0,0,2.6,0.2,2.7-0.4c0,0,0.1-0.3,0.3-0.1
	c0,0,0.2,0.2,1,0.1c0,0,1.1,0.4,1.6,0.2c0,0,0.3-0.3,1-0.1c0,0,0.3,0.2,0.7,0.1c0,0,0.5-0.3,0.1-0.5c0,0,0.9-0.9,2.3,0.5
	c0,0-0.1-1.1-1.4-1.4l0.7,0c0,0,1.1,0.5,0.9-0.4c0,0,1.3,0.2,1.6,0.9c0,0-0.1-1.6-2.1-1.4c0,0-3,0.4-2.5-0.2c0,0,1-1.8,2-3
	c0.4-0.5,1-0.7,1.6-0.5c1.4,0.3,4.5,0.9,7.2,0.4c0.3-0.1,0.6-0.1,0.8,0c1.4,0.2,5.5,0.8,7.1,1.1c0.2,0,0.5,0.1,0.7,0.2l8.3,3.8
	c0.1,0.1,0.2,0.1,0.4,0.1c0.4,0.1,1.4,0.1,1.8-0.1L47,43.2C46.9,43.3,47,43.2,47,43.2z M7.8,6.7C7.3,6.7,7,6.4,7,6
	c0-0.4,0.4-0.7,0.8-0.7c0.4,0,0.8,0.3,0.8,0.7C8.6,6.4,8.2,6.7,7.8,6.7z"/>
</svg>
