<?xml version="1.0" encoding="utf-8"?>
<!-- Generator: Adobe Illustrator 19.1.0, SVG Export Plug-In . SVG Version: 6.00 Build 0)  -->
<svg version="1.1" id="Layer_1" xmlns="http://www.w3.org/2000/svg" xmlns:xlink="http://www.w3.org/1999/xlink" x="0px" y="0px"
	 viewBox="0 0 48 48" style="enable-background:new 0 0 48 48;" xml:space="preserve">
<style type="text/css">
	.st0{fill:#808080;}
</style>
<path class="st0" d="M42.4,24c0,0,0.2-0.5-0.4-1.1c0,0-0.5-0.8-3.5-1.2c0,0-3.1-0.1-3.4-1.4c0,0,0.6-2-0.1-3.1c0,0,1,0.9,0.9-0.1
	c0,0,0.3-0.8-0.1-1.3c0,0,1.1,0.3,1-0.7c0,0,0.4-0.9-0.2-1.3c0,0,1-0.3,0.9-1.5c0,0,0-0.6,0.1-0.8c0,0-0.1-0.4-0.3-0.3
	c0,0,0.3-1.2-0.2-1.5c0,0,1-1.6,1.4-1.7c0,0,0.1-1-1.3,0c0-0.1,1.5-3.9,2.4-4.8c0,0,0-0.6-0.5-0.4c0,0,0.2-0.5-0.4-0.5
	c0,0,1.3-1.4,0.3-1.2c0,0-1.1,0.9-1.3,1.5c0-0.1,0.3-1.6-0.3-0.9c0,0-1.4,3.5-1.3,4.3c0,0-1.8,3.9-1.8,6c0,0-1.9,0.6-1.2,1
	c0,0-1.3,0.3-0.6,0.6c0,0-2.3,0.1-0.7,0.5c0,0,0.1,0.4-0.5,0.3c0,0-1.5-0.4-1.1,0.4c0,0,0.5,0.6,0,0.6c0,0-0.3-2.3-2.5-3.1
	c-0.2-0.1-0.5-0.2-0.7-0.3C25,11,14.4,5.9,12.1,4.7c0,0-3.5-2.2-4.3-4.6C7.7,0,7.6,0,7.6,0C7.4,0.2,7,0.8,7.6,2.7c0,0-0.6-0.2,0,1
	L6.6,2.5c-0.1-0.1-0.2-0.1-0.2,0C6,2.9,5.4,3.9,7.9,5.9c0,0,0.3,0.4-0.4,0C7.2,5.8,7,5.7,6.9,5.5C6.5,5.2,6,4.7,5.8,4.5
	c0-0.1-0.1-0.1-0.2,0c-0.2,0.1-0.4,0.4,0,0.9c0,0,1.9,2.8,5.1,4.3c0,0-3.5-0.8-4.1-1.1C6.7,8.6,6,9,7.3,10c0,0,2.5,2.3,4.4,2.4
	c0,0,0.3,0.2-0.4,0.2c-0.1,0-2.9-0.4-2.6,0.5c0,0,1.1,1.7,2.1,1.7c0,0,0.1,0.1-0.1,0.2c0,0-1.1,0.9,1.3,2c0.1,0,0.1,0.1,0.2,0.2
	c0.2,0.3,0.7,1.1,1.5,1.2c0.1,0,0.2,0.1,0.2,0.2c0.1,0.3,0.3,1.1,1.4,1.2c0.2,0,0.4,0.3,0.4,0.5c-0.1,0.6-0.2,1.4,0.9,1.6
	c0.2,0,0.3,0.3,0.2,0.5c-0.3,0.5-0.5,1.2,0,1.6c0.2,0.1,0.3,0.4,0.3,0.6c0,0.3,0.1,0.7,0.6,0.8c0.2,0,0.4,0.2,0.3,0.4
	c-0.1,0.5,0,1.2,1.9,0.5c0.1-0.1,0.3,0.1,0.2,0.2c-0.4,0.6-0.9,1.6-0.1,1.8l0.9-0.2c0,0-0.2,1.2,1.2,0.1c1.4-1,0.2-0.2,0-0.1
	c0.4-0.3,4.7-3.5,5.1-3.5l0,0.2c0,0.2-0.1,0.4-0.3,0.6c-0.7,0.7-2.7,2.8-3.7,6.5c0,0.1,0,0.1-0.1,0.2c-0.5,0.9-4.3,8.3-6.2,9.3
	c0,0-2.2,1.1-2.3,1.4c0,0,1.6-0.5,1.8-0.7c-0.1,0.1-2.6,3.7-8.3,3.9c-0.1,0-0.1,0-0.2,0.1c-0.1,0.1-0.3,0.3-0.3,0.3
	c0.1,0,2.9,0.3,7.1-1.7L10.8,48c0.3-0.2,4.9-3.1,5.3-3.6l5.5-7.1l-2.4,7.9l1.3-3.2c0.1-0.2,0.2-0.3,0.3-0.5c0.7-0.7,3-3.2,4.1-5.9
	c0,0-1,6.9-0.1,7.2c0,0,0.7,0.2,1.2-3.5l0.8-4.6l1,6.6c0,0,0.2,0.8,0.6,0c0,0,0.8-4.1,0.5-6.2l0,0c0.3-0.1,0.6,0,0.7,0.2
	c0.8,1,2.5,3,2.5,2.5c0,0,0.8,0.2-0.4-2.2c-0.1-0.3-0.1-0.6,0-0.8l0,0c0,0,1.3,0.8,0.9-0.7c0,0-0.8-2-1.4-3.1
	c-0.2-0.3-0.1-0.6,0-0.9c0.6-0.9,2.1-2.8,4.5-3.8c0.3-0.1,0.7-0.2,1.1-0.1c0.4,0.1,1,0.2,1.4,0.6c0,0,0.1,0.1,0.2,0.1
	c0.2,0,0.6-0.1,0.8-0.4c0-0.1,0.1-0.1,0.2-0.1c0.3,0.2,1.3,0.5,2.1,0.2c0,0,0.1,0.8-0.7,1.1C40.6,27.8,43.3,27.6,42.4,24z
	 M39.5,23.7c-0.1,0-0.2-0.1-0.2-0.2c0-0.1,0.1-0.2,0.2-0.2c0.1,0,0.2,0.1,0.2,0.2C39.7,23.6,39.6,23.7,39.5,23.7z"/>
</svg>
