<?xml version="1.0" encoding="utf-8"?>
<!-- Generator: Adobe Illustrator 19.1.0, SVG Export Plug-In . SVG Version: 6.00 Build 0)  -->
<svg version="1.1" id="Layer_1" xmlns="http://www.w3.org/2000/svg" xmlns:xlink="http://www.w3.org/1999/xlink" x="0px" y="0px"
	 viewBox="0 0 48 48" style="enable-background:new 0 0 48 48;" xml:space="preserve">
<style type="text/css">
	.st0{fill:#808080;}
</style>
<path class="st0" d="M46.6,24.2c-0.2,0-0.4-0.2-0.4-0.3c-0.1-0.6-0.5-1.6-2.8-0.2c0,0-2.7,1.8-5.9,2.3c-0.2,0-0.4,0-0.6,0l-10.4-1.3
	c-0.2,0-0.4-0.1-0.6-0.2C25,23.9,22.7,22.3,21,22c-0.3-0.1-0.6-0.2-0.9-0.4c-1-0.8-3.3-2.5-4.8-1.5c0,0-2.5-6-3.4-7.1
	c0,0-1.4-1.9-1.3-2.4c0,0-0.9-0.1,0.9,2.8l3.3,7.2c-0.1-0.1-5.9-6.3-7.1-7.2c0,0-5-4.2-7.6-4.9c0,0-0.8,0.4,3.5,2.5
	c0,0,9.1,7,10.8,10.1c0,0-1,1.7,1.3,6.8c0,0-0.7-0.1-1.5,1.2c-0.8,1.3-0.1,0.1-0.1,0c-0.1,0.1-3.2,4.4-4,4c0,0-1.1-0.7-1.3,0.3
	c0,0,0.8-0.7,1.3,0.1c0,0-0.1,0.7,0.7,0.1c0,0,4-3.6,4.3-4.8l1.3,0.2l0.6,0.4c0,0-0.9,2-0.4,2c0,0,0.5-1.2,0.5-1.8l1,0.5
	c0,0-0.5,0.4-0.4,0.7c0,0-0.5,1-0.1,1.1c0,0,0.3,0.2,0.4-1c0,0,0.4-0.4,0.4-0.7c0,0,0.2,1.1,0.7,1c0,0,0,0.4,0.3,0.3
	c0,0,0.3,0,0-0.7l0.1-1.1c0-0.2,0.1-0.3,0.3-0.3c0.2,0,0.4-0.1,0.6-0.2c0,0,0.1,0,0.1,0c0,0.2,0,0.7,0,1c0,0.1,0,0.2-0.1,0.3
	c-0.3,0.4-1.1,1.6-1,2.2c0,0-2.7,4-2.6,4.5c0,0,0,1.1-0.8,1.1c0,0-1.5,0.3-1.1,0.9c0,0,0.7,0.3,0.6-0.4c0,0,0.6-0.2,0.6,0.1
	c0,0,0.6,0.4,1-0.4c0,0,0.5-1.6,0.9-2.2l1.5-2.7c0.2-0.4,0.6-0.7,1-1c0.4-0.2,0.8-0.6,1-1.3c0-0.1,0.1-0.1,0.2-0.1
	c1.1,0.5,6.8,3.1,8.5,2.9c0,0-0.4,0.2-0.2,0.6c0,0,0.2-0.5,0.6-0.6l0.5,0.1c0,0-0.4,0.5-0.1,0.7c0,0,0-0.4,0.5-0.6
	c0,0,0.4,1.4,1,0.5c0,0,0.4,1.3,1.3,0.7c0,0,0.5,0.4,0.8,0.2c0,0,0.6,1,1,0.9c0,0,0.1,0.5,0.4,0.5c0,0,0.3,0.7,0.7,0.2
	c0,0,0.7,0.8,0.7-0.1l0.7,0.2c0,0-0.7,0.9,0.1,0.2c0,0,0.7,0.7,0.8,0.1c0,0-0.1-0.9-1.4-0.9l-1-0.1l-1.1-1c0,0,1-0.1,0.3-0.7
	c0,0,1.6-0.1,2.4,0.1c0.2,0,0.4-0.2,0.3-0.4c-0.1-0.2-0.2-0.4-0.5-0.4l4.3,0.3c0.1,0,0.1,0,0.2,0c0.6-0.1,3.7-0.6,3.9-3.2
	c0-0.2-0.1-0.4-0.2-0.5c-0.6-0.4-2.3-1.5-4.8-1.2c0,0,4-1.8,5-2.4c0.2-0.1,0.4-0.2,0.6-0.3c0.3-0.1,0.8-0.4,0.5-0.8
	C47.6,26.4,49,24.2,46.6,24.2z M18.9,30.8c0,0-0.4-0.3-0.3-0.5c0,0,0.2-0.1,0.3-0.5c0,0-0.1,0.7,0.1,0.8
	C18.9,30.7,19.1,31,18.9,30.8z M19.3,24c-2.7,1.7-2.1-1.6-2.1-1.6c0.1-3.1,2.1-1,2.1-1C20.3,22.3,19.3,24,19.3,24z M42.6,26.1
	c0,0-1,0.7-1.3,0.4C41.3,26.5,41.7,25.6,42.6,26.1z M44.9,27.4c0,0-4.1,2.2-4.3,1.8c0-0.1,4.2-2.5,4.8-2.3
	C45.4,26.9,45.8,27.1,44.9,27.4z"/>
</svg>
