<?xml version="1.0" encoding="utf-8"?>
<!-- Generator: Adobe Illustrator 19.1.0, SVG Export Plug-In . SVG Version: 6.00 Build 0)  -->
<svg version="1.1" id="Layer_1" xmlns="http://www.w3.org/2000/svg" xmlns:xlink="http://www.w3.org/1999/xlink" x="0px" y="0px"
	 viewBox="0 0 48 48" style="enable-background:new 0 0 48 48;" xml:space="preserve">
<style type="text/css">
	.st0{fill:#808080;}
</style>
<path class="st0" d="M46.5,20.5c0,0-1.6-1.3-7.3-1.7c-0.1,0-0.2-0.1-0.2-0.2c0-0.4,0.1-1.4,2.1-1.7c0,0,3.4-0.5,4.5,0.2
	c0.2,0.1,0.2,0.3,0,0.4c-0.5,0.4-1.5,1.3-0.3,1c0,0,2.1-0.5,1.5-1.8c-0.1-0.3-0.3-0.5-0.6-0.6c-0.7-0.4-2.7-1.3-6-0.7
	c0,0-2,0.4-2.6,1.2c-0.2,0.3-0.5,0.6-0.9,0.7c-0.8,0.2-1.9,0.5-2.5,0.7c-0.2,0.1-0.5,0.1-0.7,0c-1.2-0.3-4.7-1.1-6.6-1.1
	c0,0,1.8-2.7,0.8-4.3c0,0-1-2.6-8.6-2c0,0-4.8,0.5-7.5,2.3c0,0-5.5,3.3-2.1,8c0,0,1.1,1.5,5.2,3.6c0.4,0.2,0.6,0.8,0.3,1.2
	c-0.5,0.6-1.5,1.3-4,1.3c0,0-5.8-0.3-7.4,1.1c0,0-2.8,1.6-0.7,4.1c0,0,0.2,0.2,0.4,0.4c0.3,0.3,0.2,0.7-0.1,0.9
	c-0.9,0.4-2.2,1.1-2.6,1.7c0,0-1.3,1.4-0.1,1.9c0.1,0,0.1,0.1,0.2,0.1c0.3,0.2,1.3,0.6,3.2-0.2c0,0,3.2-1.2,4-2.7c0,0,1-2-0.1-2.9
	c-0.1-0.1-0.1-0.2,0-0.2c0.3-0.1,0.9-0.2,2.5-0.3c0,0,4.1-0.2,5.5-0.8c0.1,0,0.2-0.1,0.3-0.1c0.7-0.2,3.2-1.3,3.6-4
	c0-0.2,0.1-0.4,0.1-0.5c0.2-0.8,0.6-3.5-3.2-5c0,0-3-0.9-3.8-2.1c-0.2-0.2-0.1-0.6,0.1-0.8c0.7-0.7,2.9-2.4,8-2.4c0,0,0.1,0.1,0,0.1
	c-0.5,0.3-1.9,1.3-1.5,3.2c0,0.2,0.1,0.4,0.1,0.6c0,0.7,0.4,2.4,3.2,2.5l3.1-0.1c0.1,0,0.1,0.1,0,0.1c-0.7,0.4-2.3,1.6-0.5,3.9
	c0.3,0.3,0.6,0.6,1,0.9c1.4,1,5.6,3.4,12.5,3c0,0,6.7-0.5,8.2-2.9C47.1,26.2,49.5,22.5,46.5,20.5z M2.7,36.1c-0.2,0-0.3-0.1-0.3-0.3
	c0-0.2,0.1-0.3,0.3-0.3c0.2,0,0.3,0.1,0.3,0.3C3,35.9,2.9,36.1,2.7,36.1z M39.5,24.6c-6.1,0.9-8.6-0.6-8.6-0.6
	c-2.2-0.5-0.2-1.3,0.6-1.7c0.2-0.1,0.4-0.1,0.6,0c1.4,0.5,6.1,1,6.1,1c1.2,0.1,3.8,0.5,3.8,0.5L39.5,24.6z"/>
</svg>
