<?xml version="1.0" encoding="utf-8"?>
<!-- Generator: Adobe Illustrator 19.1.0, SVG Export Plug-In . SVG Version: 6.00 Build 0)  -->
<svg version="1.1" id="Layer_1" xmlns="http://www.w3.org/2000/svg" xmlns:xlink="http://www.w3.org/1999/xlink" x="0px" y="0px"
	 viewBox="0 0 48 48" style="enable-background:new 0 0 48 48;" xml:space="preserve">
<style type="text/css">
	.st0{fill:#808080;}
</style>
<path class="st0" d="M46,18.4c0.1-0.6,0.2-1.8-0.9-2.6c0,0-4.9-4.2-9.2-3.9c0,0-5.3-0.1-6.6,1.9c0,0-1.6,2.1-3.2,2.2
	c0,0-4.2,0.4-5.5,1.2c-0.1,0-0.1,0.1-0.2,0.1c-0.4,0.2-2.3,1.4-2,3.9c0,0.2-0.2,0.4-0.4,0.3c-1.1-0.5-3.6-1.2-6.1-0.1
	c0,0-1.5,0.9-1.9,1.4c0,0-1,1.2-2.9,0.6c0,0-3.7-1.3-5.7-0.4c0,0-1.6,0.4-1.4,1.2c0,0-0.1,1.1,2.6,1.3L7,26c0,0,2.6,0.5,4.2-0.8
	c0,0,2.5-1.9,4.8-1.1c0,0,2.3,0.3,2.8,3.6c0,0,0.8,5.3,7.9,7.7c0,0,6.2,2.2,9.8-0.6c0,0,2-1.5,1.3-4.5c0,0-0.4-1.5,2.1-2.1
	c0,0,6.5-1,7.5-3.3c0,0,2.2-3.1-1.1-5.8C46.1,18.9,46,18.6,46,18.4z M1.9,24.7c-0.2,0-0.3-0.1-0.3-0.3c0-0.2,0.2-0.3,0.3-0.3
	s0.3,0.1,0.3,0.3C2.2,24.6,2.1,24.7,1.9,24.7z M39,23.9c-3.6,0.7-4.4,2.7-4.4,2.7c-0.8,1.3-0.7,3.2-0.6,4.1c0.1,0.4-0.1,0.8-0.5,1
	c-2.5,1.2-6-0.2-6-0.2c-4.5-1.4-5.8-5.3-5.8-5.3l-0.8-1.9c-0.1-0.2,0.1-0.3,0.3-0.3c3.8,1.5,8.4-0.3,8.4-0.3
	c1.6-0.7,6.9-1.5,6.9-1.5c3.2-0.4,5-0.1,5.9,0.2c0.2,0.1,0.2,0.3,0,0.4L39,23.9z M44,17.9c-2.2-0.9-8.5,0-8.5,0
	c-2.7,0.1-7.7,2.3-7.7,2.3c-1.7,0.8-3.6,0.7-4.6,0.5c-0.2,0-0.2-0.3,0-0.3l2.7-0.7c4.1-0.9,4.9-2.5,4.9-2.5c0.9-1.2,2.1-1.7,2.1-1.7
	c3.1-1.3,7.6,0,7.6,0c2.5,0.9,3.4,1.6,3.7,2.1C44.4,17.8,44.2,18,44,17.9z"/>
</svg>
