<?xml version="1.0" encoding="utf-8"?>
<!-- Generator: Adobe Illustrator 19.1.0, SVG Export Plug-In . SVG Version: 6.00 Build 0)  -->
<svg version="1.1" id="Layer_1" xmlns="http://www.w3.org/2000/svg" xmlns:xlink="http://www.w3.org/1999/xlink" x="0px" y="0px"
	 viewBox="0 0 48 48" style="enable-background:new 0 0 48 48;" xml:space="preserve">
<style type="text/css">
	.st0{fill:#808080;}
</style>
<path class="st0" d="M45.4,6.5c0-0.1-0.1-0.1-0.1-0.2c-0.3-0.6-0.7-0.8-0.8-0.8c0,0-0.1,0-0.1,0c-0.3-0.2-1.5-1.3-1.8-1.6
	c0,0-0.1-0.1-0.1-0.2c-0.1-1.1-0.7-1.3-0.9-1.3c-0.1,0-0.1,0-0.2,0c-0.8,0.4-1.1-2.1-1.1-2.1c-0.5-0.6-0.9-0.2-1.1,0
	c-0.1,0.1-0.1,0.2,0,0.3c0.8,1.4-0.4,1.9-0.4,1.9c-0.7-0.3-0.8,0.4-0.8,0.4c0,0.1-0.1,0.2-0.2,0.3l-1.3,0.3l0.5,0.2l-1.2,0.4
	l0.5,0.2c0,0-0.8,0.6-1.2,0.8c0,0,0.5-0.1,0.5,0l-1.3,0.7h0.7l-1.7,0.9L34,6.5l-1.7,1.3h0.4l-1.1,0.6h0.5L30.8,9h0.7l-2,1.2l1.1-0.3
	l-2.3,1.2l0.9-0.1l-1.9,0.7H28l-2.1,0.9l0.6,0.2L24,13.5l0.8,0.1l-1.7,0.6h0.8c-0.6,0.3-1.2,0.6-1.7,1c-2.3,1.9-5.7,2.4-5.7,2.4
	c-2.5,0.2-3.7,0.9-4.1,1.2c-0.2,0.2-0.4,0.3-0.7,0.5c-3,1.8-2.8,4-2.8,4c0.2,1.3-0.2,5.8-0.2,5.8c-0.1,1-1.5,2.7-2.2,3.5
	c-0.2,0.3-0.3,0.6-0.3,0.9c0,3-2.7,10.1-2.7,10.1c-0.3,0.6-0.1,1-0.1,1c0.2,1-0.6,1.4-0.6,1.4c-0.4,0-0.4,0.5-0.4,0.5
	c0.1,0.3,2.3,1.2,2.3,1.2c0.6,0.1-0.2-1.3-0.2-1.3c-0.3-0.5,0.1-1.7,0.1-1.7c0.4-0.3,0.5-1.5,0.5-1.5c0.5-5,5-10.9,6-12.1
	c0.1-0.1,0.2,0,0.3,0.1c0,0.8-0.2,2.4-0.2,2.4c-0.1,0.5-0.3,0.9-0.5,1.2c-0.1,0.1-0.1,0.3,0,0.4l0.2,0.4c0.1,0.2,0.2,0.4,0.3,0.5
	c1.5,1.8,3.7,8.5,3.7,8.5c0.1,0.7,0.4,0.8,0.4,0.8c0.7,0.2,0.8,0.8,0.8,0.8c-0.4,0.3-0.4,0.7-0.4,0.7c0,0.6,2.3,0.3,2.3,0.3
	c0.2,0.5,2.4,0.3,2.4,0.3c0.6-0.1,0.4-0.2,0.4-0.2l-0.7-1c0.1-0.2,0-0.4-0.1-0.5c0-0.1-0.1-0.2-0.2-0.2c-0.5-0.3-0.3-2.4-0.3-2.4
	c0-1,0.9-4.6,1.2-5.6c0-0.2,0.1-0.3,0.3-0.5c0.3-0.4,0.5-1.1,0.5-1.1c0.2-2.7,2.5-6.7,3-7.5c0,0,0.1,0,0.1,0c2.8,5.3,4.2,16,4.2,16
	c0.1,0.6,0.3,0.8,0.3,0.8c0.5,0.3,0.6,0.8,0.6,1.1c0,0.2-0.1,0.3-0.2,0.5c-0.3,0.2-0.2,0.6-0.2,0.6c0,0.6,2.3,0.5,2.3,0.5
	c0.9,0,0.8-0.3,0.8-0.3l-1-1c0-0.4-0.4-0.8-0.5-1C31,45.5,31,45.4,31,45.3c0.1-1-0.3-1.7-0.5-2c-0.1-0.1-0.1-0.2-0.1-0.4l-0.9-4.6
	c0-0.2,0-0.3,0-0.5c0.2-0.8,0.2-1.5,0.2-1.8c0-0.2-0.1-0.4-0.2-0.5c-0.8-1.3-1.2-6.9-1.2-6.9c-0.6-1.9,0.9-4.5,0.9-4.5
	c0.6-1.1,0-2.6-0.4-3.3c-0.1-0.2-0.1-0.4,0.1-0.6c2.7-2.6,9.5-12.9,9.5-12.9c0.3-0.5,0.7-0.7,1.1-0.8c0.3-0.1,0.5,0,0.8,0.1l0.9,0.4
	c0.3,0.1,0.5,0.1,0.8,0.1c0.6,0,1.4,0.1,1.7,0.2c0.1,0,0.2,0.1,0.4,0.1c0.8,0.4,1.3-0.2,1.3-0.2C45.9,7.5,45.5,6.8,45.4,6.5z
	 M18.3,43.1c-0.4,1.2-0.1,1.7-0.1,1.7c0.4,0.7,0.3,1.2,0.2,1.5c-0.1,0.1-0.3,0.2-0.4,0c-6.5-7.5-2.7-16.9-2.8-16.9
	c0.3-0.4,0.5-1.2,0.6-1.5c0-0.1,0.1-0.2,0.3-0.2l0.7,0.2c0,0,0.1,0,0.1,0.1c0.6,0.5,0.9,0.4,1.1,0.2c0.1-0.1,0.3-0.2,0.5-0.1
	c0.8,0.1,2.3-0.2,2.9-0.3c0.1,0,0.2,0.1,0.2,0.2C20.8,30,18.3,43.1,18.3,43.1z M40.5,4.1c0,0,0.8-0.3,1,0C41.5,4.1,41,5,40.5,4.1z"
	/>
</svg>
