<?xml version="1.0" encoding="utf-8"?>
<!-- Generator: Adobe Illustrator 19.1.0, SVG Export Plug-In . SVG Version: 6.00 Build 0)  -->
<svg version="1.1" id="Layer_1" xmlns="http://www.w3.org/2000/svg" xmlns:xlink="http://www.w3.org/1999/xlink" x="0px" y="0px"
	 viewBox="0 0 48 48" style="enable-background:new 0 0 48 48;" xml:space="preserve">
<style type="text/css">
	.st0{fill:#808080;}
</style>
<path class="st0" d="M48,40.6c0,0-0.4-3.1-3.1-6.8c-0.2-0.2-0.2-0.5-0.2-0.8c0.1-1.8-0.1-8.9-5.4-13.5c0,0-4.7-4.4-7.7-6.1
	c0,0-1-0.7-0.4-2.4L33,7.7c0,0,0-0.8-1.4-0.5c-1.2,0.3-4.7,2.2-6.6,2.9c-0.5,0.2-1,0.2-1.5,0.1c-2.5-0.6-12.1-2-19.7,7.3
	c0,0-7.2,7.7-1.9,13.2c0.3,0.3,0.4,0.6,0.4,1c-0.1,1.2-0.2,3.6,0.7,3.4c0.1,0,0.1,0,0.2,0c0.1,0.1,0.5,0.3,1.1-0.4
	c0,0,1.1-2.1,2.1-3.6c0.4-0.6,0.9-1.1,1.4-1.5c0.3-0.2,0.8-0.7,1.4-1.5c0.4-0.4,0.8-0.8,1.4-0.9c1.7-0.5,5.6-1.7,6.9-2.2
	c0.3-0.1,0.5-0.2,0.8-0.2c0.7-0.1,2.2-0.1,3.7,0.4c0.2,0.1,0.5,0.1,0.7,0.1c2.1,0,12.8,0.2,14.7,2c0.1,0.1,0.2,0.1,0.2,0.2
	c0.8,0.5,3.9,2.6,3.7,4.8c0,0.3-0.2,0.6-0.4,0.8c-0.6,0.7-2.2,2.6-2.3,3.7c0,0-0.6,1.1,0.1,1.1c0,0,3.4,0.2,3.7-0.8
	c0,0,0.4,0.7,1.3,1.2c0.3,0.2,0.6,0.4,0.9,0.6C45.9,39.7,48.2,41.5,48,40.6z M6.5,27.1c0,0-0.6-1.6,1.1-1.5
	C7.7,25.7,7.1,27.1,6.5,27.1z"/>
</svg>
