<?xml version="1.0" encoding="utf-8"?>
<!-- Generator: Adobe Illustrator 19.1.0, SVG Export Plug-In . SVG Version: 6.00 Build 0)  -->
<svg version="1.1" id="Layer_1" xmlns="http://www.w3.org/2000/svg" xmlns:xlink="http://www.w3.org/1999/xlink" x="0px" y="0px"
	 viewBox="0 0 48 48" style="enable-background:new 0 0 48 48;" xml:space="preserve">
<style type="text/css">
	.st0{fill:#808080;}
</style>
<path class="st0" d="M48,27.7c0,0-4.3-1.2-4.6-1.4c0,0,2.6,0.2,3.7-0.2c0.1,0,0.1-0.1,0-0.1c-1-0.2-5.2-0.8-8.1-2
	c-0.1,0-0.1-0.1,0-0.1c0.3,0,0.7-0.1,1.1-0.3c0,0-1.9,0.2-3.5-0.5c0,0,0-0.1,0-0.1c0.3,0,0.8,0,1.2,0c0,0-1.9-0.4-3.8-1.1
	c-0.1,0-0.2-0.1-0.3-0.1l-5.6-2.6c-0.1,0-0.1-0.1-0.1-0.1c-0.2-0.3-1-1.6,0.7-1.9c0.2,0,0.5,0,0.7,0.1c0.6,0.3,2.1,0.8,2.5,0.7
	l-0.1-0.2c0,0,0.4-0.3,0.3-0.7c0,0,0.2,0,0.3,0.1c0,0,0-1-2.7-1.6c-0.1,0-0.2-0.1-0.2-0.1c-0.4-0.6-2.2-2.9-4.7-2
	c0,0-2.6,1.1-3.7,1.8c-0.2,0.1-0.4,0.2-0.7,0.2c-0.5,0-1.5-0.1-3-0.9c0,0-4.4-1.7-5.7-2c0,0-3.7-1.1-4.9-2.4c0,0,0,0,0,0
	C6.7,10.2,5.2,9,4.6,7.9c0,0-0.1,0,0,0c0.3,0.7,1.1,2.2,2.7,3C6.9,10.8,3,8.9,1.9,7.6c0.4,0.5,2,2.3,3.7,3c0,0,0.3,0.3-0.1,0.2
	l-5-2.3l4,2.7l-4.4-1c0,0,1.8,1.9,4.9,2.2l-4.2-0.3c-0.1,0-0.1,0.1-0.1,0.2c0.4,0.3,1.3,1,2,1.2l-0.7,0.2c-0.1,0-0.2,0.2-0.1,0.3
	C2,14.3,2.5,14.9,3,14.9c0,0-0.8,0.4,0.8,1.3c0,0-0.6,0.9,0.6,1.3c0,0,0.3,1.2,1.4,0.9c0,0-0.2,1.2,1.4,0.7c0,0-0.7,1,0.3,1.1
	c0,0,0.4,2.1,3.3,3.1c0.3,0.1,0.7,0.3,0.9,0.5c0.4,0.3,0.9,0.6,1.5,0.3c0,0,1.2,1.4,2.3-0.6c0,0,0.8,0.7,1.4-0.4c0,0,0.1,0,0.1,0
	c-0.1,0.8-0.2,3.7,0.1,4.8c0.1,0.2,0,0.4,0,0.6c-0.2,0.4-0.3,0.8,0.2,0.2c0,0,0.1,0,0.1,0c0,0.2,0.1,0.5,0,0.9c0,0-0.2,1.2,0.1,0.4
	c0-0.1,0.1-0.1,0.1,0c0.2,0.4,0.7,1.5,1.2,1.2c0.1,0,0.1,0,0.1,0.1c0.2,1.4,1.6,11,3.4,8.8c0,0,2.1,1.5,2.4-0.7c0,0,1.4,0.1,0.2-2.7
	c0,0-1.4-5.1-1.3-6.9c0,0,0.3,1.1,0.7,0.1c0,0,0.7,1.9,2.4,1.2c0,0,1,1.2,2,0.4c0,0,0.6,1.2,2.1,0.5c0,0,0.5,1.4,2,0.6
	c0,0,0.6,0.8,1.5,0.4c0,0,0.7,0.7,1.7,0c0,0,2.2,1,1.4-0.3c0,0,2.1,0.9,1.6-0.2c0,0,2.9,1.1,1.6-0.9c0,0,5.3,3.2,1.4-1.1
	c0,0,0-0.1,0.1-0.1c0.7,0.4,2.6,1.4,3.5,1.4c0,0,0.3-0.6-2.6-2.6c0,0,0-0.1,0-0.1c0.8,0.3,2.9,1,4,1.1c0.1,0,0.1-0.1,0-0.2
	c-0.8-0.5-3.6-2.2-3.7-2.2C43.2,27.6,47.2,28.1,48,27.7z M31.2,16.9c0,0-0.3,0.3-0.2,0.5c0,0-1.6-0.6-1.7-0.7
	C29.3,16.7,30.8,16.5,31.2,16.9z M27.1,15.1c0-0.3,0.2-0.5,0.5-0.5c0.3,0,0.5,0.2,0.5,0.5c0,0.3-0.2,0.5-0.5,0.5
	C27.3,15.5,27.1,15.3,27.1,15.1z"/>
</svg>
