<?xml version="1.0" encoding="utf-8"?>
<!-- Generator: Adobe Illustrator 19.1.0, SVG Export Plug-In . SVG Version: 6.00 Build 0)  -->
<svg version="1.1" id="Layer_1" xmlns="http://www.w3.org/2000/svg" xmlns:xlink="http://www.w3.org/1999/xlink" x="0px" y="0px"
	 viewBox="0 0 48 48" style="enable-background:new 0 0 48 48;" xml:space="preserve">
<style type="text/css">
	.st0{fill:#808080;}
</style>
<path class="st0" d="M48,31.7c0,0,0.4-5.5-3.9-9.2c0,0-3.1-2.6-10.7-5.6c-0.6-0.3-1.2-0.6-1.7-1.2c-1.4-1.5-4.6-4.7-7.3-4.5
	c0,0-1.7,0.3-0.7,0.9c0,0,1.5,0.6,1.6,1.3c0,0,0.3,1.7-0.5,2.3c0,0-0.6,0.5-2.2,1.5c-0.1,0.1-0.2,0.1-0.3,0.2L15,21.1
	c0,0-4.4,1.9-6,2.9c-0.2,0.2-0.5,0.3-0.7,0.6C7.6,25.4,5.3,28,4.7,29c-0.1,0.2-0.3,0.4-0.5,0.5C3.2,30,1,31.1,0,32.2
	c0,0.1,0,0.1,0.1,0.1c0.5-0.3,1.7-0.8,2.6-0.5c0,0,1,0.3,0.6,0.9c0,0.1,0,0.1,0.1,0.1c0.6-0.3,1.8-1.2,2.6-2.1
	c0.3-0.3,0.7-0.6,1.1-0.7c2-0.3,7.6-1.3,12.4-2.9c0.3-0.1,0.6-0.1,0.9-0.1c1.9,0.2,9,0.9,10.6,1.7c0.1,0,0.1,0.2,0,0.2
	C30.8,29,30.4,29,29.8,29c0,0-0.7,0.2,0.2,0.7c0,0,2.7,2.3,8,0.3c0.2-0.1,0.5-0.1,0.7,0c1,0.4,3.8,1.6,4.7,2.7c0,0,2.4,2.7,3.4,3.9
	c0,0,0.8,0.4,0.7-1.1c0,0-0.3-0.9-0.4-1.4c0-0.2,0-0.4,0.2-0.6C47.6,33.3,48,32.7,48,31.7z M45.6,29c0,0,0.3-0.2,0.5,0.6
	C46,29.7,45.6,29.9,45.6,29z"/>
</svg>
