<?xml version="1.0" encoding="utf-8"?>
<!-- Generator: Adobe Illustrator 19.1.0, SVG Export Plug-In . SVG Version: 6.00 Build 0)  -->
<svg version="1.1" id="Layer_1" xmlns="http://www.w3.org/2000/svg" xmlns:xlink="http://www.w3.org/1999/xlink" x="0px" y="0px"
	 viewBox="0 0 48 48" style="enable-background:new 0 0 48 48;" xml:space="preserve">
<style type="text/css">
	.st0{fill:#808080;}
</style>
<path class="st0" d="M41.7,34.4c0,0-4.6-8.4-5.3-11.8c0,0-1.3-8.7-8.8-10.4c-0.1,0-0.3-0.1-0.4-0.1c-0.7-0.2-4.3-1-10.4,2
	c-0.3,0.2-0.7,0.3-1.1,0.4c-1.4,0.4-4.6,0.8-6.8-1.9c0,0,1-2.9-0.5-4.2C8.3,8.3,8,8.3,7.8,8.4c-0.6,0.4-1.7,1.5-1.4,3.6
	c0,0-3.1-1.2-4.4-1.3c-0.3,0-0.6-0.1-0.9-0.3c-0.6-0.3-1.6-0.8-1-0.2c0,0,1,1,1.3,1.4c0,0,1.1,1.8,3.3,2.2c0,0-0.1,1.1-0.9,1.8
	c0,0-0.6,0-0.2,1.2c0,0-0.2,2.2-0.7,3.1c0,0-0.6,1.5,0.5,1.8c0,0,0.5,0.9,2.1-0.2c0.2-0.2,0.4-0.4,0.6-0.6c0.1-0.3,0.3-0.6,0.4-0.8
	c0,0,2.6-1.7,2.8-1.3c0,0,1,2.1,3.4,2.6c0,0,0.4,0,0.2,1.1c0,0,0,0.1,0,0.1c0,0.4-0.3,3.7-0.4,4.1c0,0,0,0,0,0.1c0,0.2,0,1,1.6,1.6
	c0.1,0,0.2,0.1,0.2,0.2c0.2,0.5,0.7,1.9,1.1,1.4c0,0,0.8,0.4,0.8-0.6c0,0,0.1-0.5-0.2-0.9c0,0-0.6-1.9,1-3.4
	c0.2-0.2,0.4-0.2,0.6-0.2c1.1,0.1,4.5,0.3,4.6,1.3c0,0.1,0,0.2,0,0.3c0.4,1,2.3,6.6,0.8,7.3c-0.1,0-0.2,0-0.2,0
	c-0.6-0.1-3.7-0.3-4.4,0.1c0,0-1.7-0.4-2.1,0.2c0,0-3.2-0.4-3.3,1c0,0,0.5-0.4,0.6-0.2c0,0-0.1,0.3,0.6,0.3c0,0,8-0.2,8.7,0.5
	c0,0,1.3,0.1,1.6,0c0,0,0.8-0.4,1.6-0.4c0,0,1.3,0.1,1.1-1.3L25.1,26c0,0,2.8,0.1,3.5-0.6c0,0,0.7,1.1,1,2.4c0,0,0,0.7,0.6,1.4
	c0,0,1.5,5,0.3,5.4l-2.3,0.7c0,0-1.3-0.3-1.6,0.6c0,0-1.9-0.5-1.8,1.3c0,0,4.4,0.3,4.6-0.5l1.6-0.1c0,0,1,0.3,1.5-0.2
	c0,0,1.9-0.7,0.9-2.1c0,0-2.7-9.1-0.3-9c0.3,0,0.6,0.2,0.7,0.5c0.8,1.3,3.7,6.2,4.3,7.4c0,0,0,0,0,0c0.3,0.6,5.7,10.1,10,4.8
	C48,38.1,44.6,39.2,41.7,34.4z M6.2,17.2c0,0-0.9,0.2-0.8-0.3c0.1-0.4,0.8-0.4,1-0.4c0.1,0,0.1,0,0.1,0.1C6.6,17,6.2,17.2,6.2,17.2z
	 M14.5,26.9c-0.3-0.1-0.5,0-0.5,0c-0.8-0.6,0.4-3.9,0.4-3.9c0.4,0,1.5,0.8,1.5,0.8C16.2,24,14.5,26.9,14.5,26.9z"/>
</svg>
