<?xml version="1.0" encoding="utf-8"?>
<!-- Generator: Adobe Illustrator 19.1.0, SVG Export Plug-In . SVG Version: 6.00 Build 0)  -->
<svg version="1.1" id="Layer_1" xmlns="http://www.w3.org/2000/svg" xmlns:xlink="http://www.w3.org/1999/xlink" x="0px" y="0px"
	 viewBox="0 0 48 48" style="enable-background:new 0 0 48 48;" xml:space="preserve">
<style type="text/css">
	.st0{fill:#808080;}
</style>
<path class="st0" d="M48,43c0,0-0.8-3.1-4.1-5.7c0,0-3.7-2.7-3.4-4c0,0,0.7-4.6-0.7-8.8c0,0-3.4-10.3-5.6-13c0,0-1.4-3.2,2-5.1
	c0,0,3.1-1.3-0.2-2.1c0,0-2.8-0.2-5.8,1.7c0,0-0.8,0.3-1.5,0.1c0,0-16.7-4-21.2,0.4c0,0-2.3,1.8-2,2.9c0,0-1.3,0.8-2.1,1.1
	c0,0-2.6,0.9-2.9,2.3c0,0,0.4,0.2,0,0.2c0,0-0.9,0.9-0.1,1.4c0,0,0.5,0.7,2.5,0.3c0,0,2.7,0.1,3.5,0.5c0,0-0.5,0.4-0.3,1
	c0,0,0.2,0.8,1.2,0.5c0,0,2.1-0.6,2.3-0.5c0,0,12,5.7,13.1,5.7c0,0,5.2,8.4,9.5,10.6c0,0-0.7,1.7,0.8,1.5c0,0,2.9,0.8,4,1.8
	c0,0,1.9,1.5,2.3,0.8c0,0,0.2-0.4,0.4-0.1c0,0,0.3,1.1,1.1,1.6c0,0,0.9,0.7,2.7,1.7c0,0,3.7,3.1,4.1,3.7C47.7,43.7,48.1,43.7,48,43z
	 M14.5,14.1L14.5,14.1c0-0.1,0.8-0.3,1.1,0.1C15.6,14.2,14.9,14.5,14.5,14.1z M32.5,32.1c0,0-5-6.9-5-7.6l9.9,7.9
	C37.4,32.4,33.5,30.8,32.5,32.1z"/>
</svg>
