<?xml version="1.0" encoding="utf-8"?>
<!-- Generator: Adobe Illustrator 19.1.0, SVG Export Plug-In . SVG Version: 6.00 Build 0)  -->
<svg version="1.1" id="Layer_1" xmlns="http://www.w3.org/2000/svg" xmlns:xlink="http://www.w3.org/1999/xlink" x="0px" y="0px"
	 viewBox="0 0 48 48" style="enable-background:new 0 0 48 48;" xml:space="preserve">
<style type="text/css">
	.st0{fill:#808080;}
</style>
<path class="st0" d="M22.8,23.5c-0.3-1.5-1.5-8.2-2.5-8.7c0,0-0.1,0-0.1-0.1c-0.4-0.3-3.4-2.2-5-2c-0.2,0-0.4,0-0.6,0
	c-0.8-0.1-2.8-0.3-3.7-0.3c0,0-6.9-0.8-8.5-2.1c0,0-0.1,0-0.1,0c0.1,0.3,0.6,1,1.6,1.3c0.1,0,0.1,0.1,0.1,0.1c0,0.1,0,0.1-0.2,0.1
	c0,0-2.8-0.8-3.6-1.6c0,0-0.1,0-0.1,0c0.1,0.3,0.3,0.7,0.8,1.2c0,0-0.7-0.2-1-0.5c0,0-0.1,0-0.1,0c0.1,0.2,0.3,0.7,1,1.1
	c0,0-0.5-0.2-0.8-0.3c-0.1,0-0.1,0-0.1,0.1c0.2,0.4,0.9,1.4,4,2c0,0-1.2,0-1.9-0.2c-0.1,0-0.1,0-0.1,0.1c0.1,0.3,0.4,0.7,1.4,1
	c0.4,0.1,0.7,0.3,1,0.5c0.4,0.3,0.9,0.7,1.4,0.9c0,0,0.4,0.6,1,0.8c0.2,0.1,0.4,0.2,0.5,0.4c0.3,0.4,0.9,1,1.5,1c0,0-0.1,0.9,1.5,1
	c0,0,0.6,0.5,1.3,0.4c0,0,0,0.6,1.2,0.5c0.3,0,0.5,0.1,0.7,0.3c0.1,0.1,0.1,0.2,0.1,0.4c0,0-0.2,0.6,0.6,0.6c0.1,0,0.1,0.1,0.1,0.2
	c-0.1,0.3-0.3,0.9,0.6,1c0,0-0.5,0.5,0,1c0.1,0.1,0.2,0.3,0.1,0.4c-0.2,0.6-0.4,2,0.9,1.7c0.1,0,0.1,0,0.2,0l0,0
	c0.1,0.1,0.2,0.2,0.1,0.4c-0.2,0.4-0.5,1,0.2,1c0,0-0.6,1.8,1.8-0.6c0,0,1.3-0.9-0.1,0.5c-0.1,0.1-0.2,0.3-0.2,0.5
	c0,0.5,0.1,1.4,1.2,0.6c0.3-0.2,0.7-0.2,1,0c0.2,0.1,0.4,0.4,0.5,0.8c0,0.1,0,0.3,0,0.4c-0.1,0.4-0.4,1.1-0.8,1.3l-6,4.2
	c-0.1,0.1-0.1,0.2,0,0.2c0.2,0.2,0.6,0.4,1.9-0.6c-0.1,0.1-1.6,1.4-1.1,1.5c0.1,0,0.2,0,0.2-0.1c0.1-0.2,0.2-0.4,0.3-0.1
	c0,0,0.1,0.1,0.1,0.1c0.1,0,0.4,0.1,0.5-0.1c0,0-0.3,0.4,0.1,0.5c0,0,0.2,0.1,0.2-0.1c0,0.2,0.1,0.4,0.6,0.2c0,0-0.3,0.7,0.1,0.4
	c0,0,0.1,0,0.1,0c0.2,0.1,0.6,0.3,1.2-0.5c0,0-0.4,0.9,0.1,0.6c0,0,0.1,0.8,1.1,0.5c0,0-0.9,0.1-0.8-0.5c0,0,0.6,0.3,1-0.3
	c0,0-0.1,0.4,0.2,0.6c0,0-0.1-0.8,0-0.9c0,0,0.4-0.3,0.3,0.3c0,0-0.2,0.4,0.2,0.3c0,0,0,0.2,0,0.2c0,0,0.1,0,0.1-0.2
	c0,0,0,0,0.1-0.1c0.1,0,0.4-0.2,0.6-0.1c0.1,0,0.2,0.2,0.1,0.2c-0.1,0.1-0.1,0.1-0.3,0.2c0,0,0.3,0.2,0.5-0.3c0,0,0.1-0.1,0.1-0.1
	c0.2,0,0.6-0.1,0.4-0.5c0,0,0.4,0.4,1.4,0.2c0,0-0.9,1.1,0,1.2c0,0-0.3-0.3,0-0.7c0,0,0.3,0.2,0.4-0.1c0,0,0.2,0,0.2,0.1
	c0,0-0.7,1.6,0.1,0.1c0,0,0.1-0.1,0.1-0.1c0.2,0,0.6,0.2,0.7,0.7c0,0,0,0.2,0.2,0.4c0,0-0.1,0.1-0.3,0.1c0,0,0.1,0.3,0.5,0.1
	c0,0-0.1,0.5-0.6,0.2c0,0-0.3-0.2-0.3-0.3c0,0-0.2,0.5,0.5,0.6c0,0,0,0,0.1,0c0.1,0,0.4-0.1,0.5-0.6c0,0,0.5-0.3,0.3-0.8
	c0,0,0.1-0.5-0.4-0.6c0,0-0.7-0.6-0.7-0.8c0.1,0,1.3-0.1,1-1c0,0,0,0,0,0c0.2,0.2,0.6,0.5,1.1-0.2l0,0.3c0,0,0,0.1,0.1,0
	c0.2,0,0.5-0.2,0.4-0.6c0,0,0.9,0.3,1-0.3c0,0,0.8,0.3,0.4-0.3l-0.5-0.4c0,0,0.2-0.2,0.6,0.2c0,0,0.5,0.3,0.8-0.4
	c0,0,0.1,0.5,0.4,0.2c0.1-0.1,0.1-0.2,0-0.2l-3.9-2.4c-0.1-0.1-0.2-0.2-0.2-0.4c0-0.4,0.1-1.3,1.1-0.8c0,0,0,0.2,0.3,0.5
	c0,0,0.1,0.1-0.1,0.2c0,0,0.8,0,0.6-1.3c0-0.1,0-0.1,0.1-0.2c0.2-0.2,0.5-0.7-0.2-1.3c0,0-0.2-1,0.7-2.1c0,0,1.1-1.1,1.3-2.2
	c0,0,0.7,1.2,1,0.2c0,0,0.7,0.1,0.8-0.7c0,0,0.9-0.2,1-0.5c0,0,0.8,0.8,1.4-0.4c0,0,1.8,0.9,1.5-0.5c0,0,1.5,0.6,2.1-0.2
	c0,0,1.4,0.5,1.6-0.7c0,0,1.9-0.2,1.5-1c0,0,3.1-0.7,1.4-1.6c0,0,3.6-1.4,2.2-1.7c-0.1,0-3.5-0.3-3.5-0.3s1.9-0.5,3.2-1.3
	c0.3-0.2,0.7-0.4,1.1-0.5c1-0.3,3-1.1,3.4-1.8c0.1-0.1,0-0.2-0.1-0.2l-5.4,1.3c0,0,5-2.3,5.6-3.4c0-0.1,0-0.2-0.1-0.2l-7.6,2.7
	c-0.2,0.1-0.5,0-0.5-0.2c0-0.1,0-0.3,0.2-0.4c0,0,4.2-1.3,5-2.8c0-0.1,0-0.2-0.1-0.1L37,12.4c0,0-7.4,2.3-8.1,4c0,0-3.3,5.1-3.4,7.9
	c0,0-0.2,1.3-0.8,1.1c-0.1,0-0.2-0.1-0.3-0.2c-0.2-0.2-1-1.1-1.4-1.4C22.9,23.8,22.8,23.6,22.8,23.5z M26.4,28.6
	c-0.1,0-0.2-0.1-0.2-0.2c0-0.1,0.1-0.2,0.2-0.2c0.1,0,0.2,0.1,0.2,0.2C26.6,28.5,26.5,28.6,26.4,28.6z"/>
</svg>
