<?xml version="1.0" encoding="utf-8"?>
<!-- Generator: Adobe Illustrator 19.1.0, SVG Export Plug-In . SVG Version: 6.00 Build 0)  -->
<svg version="1.1" id="Layer_1" xmlns="http://www.w3.org/2000/svg" xmlns:xlink="http://www.w3.org/1999/xlink" x="0px" y="0px"
	 viewBox="0 0 48 48" style="enable-background:new 0 0 48 48;" xml:space="preserve">
<style type="text/css">
	.st0{fill:#808080;}
</style>
<path class="st0" d="M47.8,12c0.1-0.3,0.2-1.2-0.5-1.3c0,0,0.1-0.2-2.8-0.8c-0.2,0-0.4-0.1-0.5-0.3c-0.2-0.2-0.6-0.6-0.7-0.8
	c0,0,0-0.1,0-0.1c0-0.1,0-0.4-0.4-0.6c-0.1,0-0.1-0.1-0.2-0.1c-0.3-0.3-1.4-1.4-3.5-1.3c0,0-3.3-0.3-4.5,1.6c0,0-3.7,4.9-5.6,6
	c0,0-2.7,1.7-8,1.9c-0.4,0-0.8,0-1.2,0c-0.8,0-2.6-0.1-5.5,0.4c-0.3,0-0.5,0.1-0.8,0c-0.8,0-2.6-0.1-3.8,0.3c0,0-1.1,0.3-2.5,0.2
	c-0.5,0-1.1,0-1.5,0.3c-0.9,0.4-2,1.4-2.7,3.8c0,0-0.6,2.9-0.4,4.8c0,0.4,0,0.7-0.1,1l-0.7,2.5c-0.1,0.5-0.4,1-0.7,1.4
	c-0.4,0.6-1,1.6-0.9,2.9c0,0-0.1,1.8,0.2,2.8c0,0-0.1,3.8,1.1,3.8c0,0,2.7,0.5,2.7-0.2c0,0,0.1,0.2,0.1,0.3c0,0,0.2,0,0.2-0.2
	c0,0,1.2,0.4,1.4-0.2c0,0,0.2,0.1,0.2,0.3c0,0,0.2-0.2,0-0.4c0,0,0.8,0.1,0.9-0.3c0,0,0.1,0.1,0.1,0.3c0,0,0.4-0.7-0.2-1.4
	c0,0-0.4-0.8-1.3-0.6c0,0-0.8-0.2-0.5-2c0,0,0.8-3.2,3.3-4.4c0.3-0.2,0.6-0.3,0.9-0.6c0.6-0.5,1.7-1.3,2.1-1.6
	c0.1-0.1,0.2-0.1,0.4,0l0.5,0.3c0,0,0.7,1.4,1.2,0.6c0.1-0.1,0.1-0.2,0.2-0.3c0,0,0,0,0,0c0.1-0.1,0.3-0.1,0.4,0
	c0.6,0.4,2.7,1.4,9.5,1.1c0.2,0,0.4,0.2,0.4,0.4c-0.1,0.9-0.2,3.1-0.2,3.9c0,0.1,0,0.3-0.1,0.4c-0.1,0.3-0.3,0.9,0,1.7
	c0.1,0.3,0.2,0.7,0.2,1c0,0.8,0.2,2.3,1.4,2.4c0,0,0.8,0.7,1.4,0c0,0,1.9,0.8,2.3,0c0,0,1,0.6,1.2-0.2c0,0,0.1,0,0.2,0.2
	c0,0,0.1-0.2,0-0.3l3,0.1c0,0,0.4,0,0.3-0.3c0,0,0.2,0.1,0.2,0.2c0,0,0.1-0.3,0-0.4c0,0,0.3,0.1,0.1,0.6c0,0,1.2,0.2,1.3-0.5
	c0,0,0.2,0,0.2,0.1c0,0,0.1-0.3-0.1-0.4c0,0-0.5-1.5-1.9-1.2c0,0-2.4-0.3-1.8-2.9c0,0,0.5-1,0-2.6c0,0-0.9-3.5,2.3-5.2
	c0.6-0.3,1.1-0.8,1.4-1.3c0.4-0.6,0.9-1.6,1.4-2.8c0.2-0.6,0.5-1.2,0.9-1.7c0.8-1.2,2.2-3.1,3.6-4c0.3-0.2,0.6-0.3,0.9-0.3
	c0.4,0,1-0.1,1.1-0.8c0.1-0.3,0.3-0.5,0.6-0.6c0.6-0.1,1.4-0.3,1.9-0.7c0,0,3.3-1.3,2.4-3.8C47.8,12.1,47.8,12.1,47.8,12z
	 M27.6,36.3c0.2,0,0.3,0.7,0.3,0.7c-0.6,0.5-0.1,0.5-0.1,0.5c-0.1,0.5,0.5,0.8,0.5,0.8c0.4,0.1,0.5,0.9,0.5,0.9
	C26.8,38.9,27.6,36.3,27.6,36.3z M41.1,9.8c0,0,0.4-1.1,1-0.5C42,9.2,42.7,10.6,41.1,9.8z"/>
</svg>
