<?xml version="1.0" encoding="utf-8"?>
<!-- Generator: Adobe Illustrator 19.1.0, SVG Export Plug-In . SVG Version: 6.00 Build 0)  -->
<svg version="1.1" id="Layer_1" xmlns="http://www.w3.org/2000/svg" xmlns:xlink="http://www.w3.org/1999/xlink" x="0px" y="0px"
	 viewBox="0 0 48 48" style="enable-background:new 0 0 48 48;" xml:space="preserve">
<style type="text/css">
	.st0{fill:#808080;}
</style>
<path class="st0" d="M46.8,45.2c0,0-0.6-1.2-1.7-1.4c0,0-1.2-0.4-1.3-0.8c0,0,0.9,0.1,1-0.5c0,0,0.6,0.2,0.7-0.4
	c0,0,0.2,0.1,0.2,0.1c0,0,0.2-0.2-0.2-0.5c0,0-1.2-1.4-1.9-1.1c0,0-0.8,0.5-1.4-0.4c0,0-4.1-8-4.1-10.6c0-0.1,0-0.3,0.1-0.4
	c0.3-0.9,1.8-6.7,0.7-7.9c0,0-0.2-0.6-0.1-1.2c0-0.3,0-0.5-0.2-0.7c-0.4-0.6-1-1.8-0.8-3.2c0,0,0.3-2.1-0.3-3.6
	c-0.1-0.2-0.2-0.4-0.2-0.7c-0.2-0.9-0.4-2.8,0.6-4.5c0,0,0.5-0.8,1.3-1.2C39.6,6,40,5.7,40.4,5.4C41,4.8,41.7,3.9,42,3.3
	c0,0,0.4-1.2,0-1.7c0,0,0.1-0.5-0.2-0.7c0,0,0.3-1.6-1.5-0.6c0,0-1.3,0.2-2,0.7c0,0-1.2,0.5-1.8,0c0,0-2-0.7-3.3-0.2
	c0,0-4.2,1.9-4,4c0,0,0.1,1.1-0.1,1.9c0,0-1.1,3-0.2,5c0,0,0.3,2.3-1.2,3.3c-0.3,0.2-0.5,0.4-0.6,0.8c-0.1,0.5-0.5,1.2-1.2,2
	c0,0-2.6,2.6-3.3,4c-0.1,0.3-0.3,0.5-0.6,0.8c-2,1.9-10.4,10.1-9.5,14.3c0,0-0.1,2.8,0.7,4.2c0.2,0.4,0.3,0.8,0.1,1.2
	c-0.2,0.6-0.8,1.4-2.4,2.3c0,0-5.1,2.2-7.6,2c-0.3,0-0.3-0.4-0.1-0.5l1.2-0.6c0.1-0.1,0.1-0.3,0-0.4c-0.3-0.1-1-0.3-1.9,0.1
	c0,0-2.6,0.9-1.3,2.3c0.1,0.1,0.1,0.1,0.2,0.2c0.6,0.2,2.9,1,7-0.2c0.1,0,0.2,0,0.3-0.1c0.6-0.1,3.1-0.6,6-3.1c0,0,0.3-0.2,0.4,0
	c0,0,0.2,0.4,1,0.3c0.2,0,0.3,0,0.5,0.1c0.5,0.4,1.9,1.3,4.4-0.1c0.1,0,0.2,0,0.1,0.1c-0.3,0.6-1.3,2.2,0.2,2.4c0,0,7.2-0.8,8.1-0.7
	c0,0,1.5,0.1,1.7-0.2c0,0,1.1-0.2,1-1l0.3-0.1c0,0,0.1-0.3-0.5-0.4c0,0-0.9-0.8-1.9-0.5c0,0-4.7,0.9-5.4,0.4c0,0-0.4-0.3-0.4-1.3
	c0-0.1,0.1-0.2,0.2-0.3c0.1,0,0.2-0.1,0.3,0c0,0,0.2,0,0.2-0.2c0,0,0.5,0.1,0.4-0.3c0,0,0.1-0.1,0.3,0.1c0,0,0-0.6-0.6-1
	c-0.1-0.1-0.2-0.2-0.1-0.4c0.2-0.4,0.5-1.1,1.1-1.8c0,0,2.2-2.6,0.4-5.5c-0.1-0.1,0-0.2,0.1-0.3c1-0.3,5.3-1.3,6.9-2.4
	c0.2-0.1,0.5-0.1,0.6,0.1c0.2,0.3,0.5,0.8,0.9,1c0,0,3,4.9,3.3,5.9c0,0,0.1,0.9,0.5,1.1c0,0-0.2,1.1,0.4,1c0.1,0,0.3,0,0.3,0.2
	c0.1,0.2,0.1,0.4,0.2,0.5c0.1,0.1,0.1,0.2,0.1,0.3c0,0.4,0,1,0.6,0.7c0.1-0.1,0.3,0,0.4,0.1c0.2,0.2,0.4,0.5,0.7,1.1
	c0,0,0.8,2.8,1.8,2.6c0,0,0.5,0.7,1.7,0.1c0,0,0.9,0.5,1.4-0.1c0,0,0.5,0.5,0.4-0.2C46.8,45.7,47.4,46.2,46.8,45.2z M36.9,2.5
	c0,0-0.3,0.1-0.4,0c0,0-0.1-0.7,0.2-0.6C36.7,1.8,37,2.1,36.9,2.5z"/>
</svg>
