<?xml version="1.0" encoding="utf-8"?>
<!-- Generator: Adobe Illustrator 19.1.0, SVG Export Plug-In . SVG Version: 6.00 Build 0)  -->
<svg version="1.1" id="Layer_1" xmlns="http://www.w3.org/2000/svg" xmlns:xlink="http://www.w3.org/1999/xlink" x="0px" y="0px"
	 viewBox="0 0 48 48" style="enable-background:new 0 0 48 48;" xml:space="preserve">
<style type="text/css">
	.st0{fill:#808080;}
</style>
<path class="st0" d="M48,24.9c0-0.1-0.1-0.1-0.1-0.1c-0.3-0.1-1.2-0.5-1.7-0.8C46,24,45.9,23.8,46,23.6c0.1-0.6,0.5-2.1,0.7-2.3
	c0,0,0.2-0.4-1.3-0.3c-0.3,0-0.6,0-0.8-0.1c-0.8-0.3-2.9-1-5.8-1c0,0-4-0.1-6.1,0c-0.2,0-0.3,0-0.5-0.2c-0.3-0.2-0.8-0.7-1.1-1.5
	l-0.6-1.1c0,0-0.1,0-0.1,0c-0.1,0.1-0.4,0.4-0.7,0c0,0-0.1,0-0.1,0c-0.1,0.3-0.5,0.8-1.1,0.3c0,0-0.1,0-0.1,0
	c-0.1,0.2-0.3,0.8-0.7,0.8c0,0-0.1,0-0.1,0.1c-0.1,0.2-0.3,0.6-0.8,0.7c0,0,0,0,0,0c-0.1,0.1-0.3,0.3-0.3,0.8c0,0,0.1,0.5-1.1,0.5
	c0,0-1.9,0.2-3-0.2c-0.1,0-0.2-0.1-0.3-0.2l-3-2.6c-0.1-0.1-0.3-0.1-0.4,0c0,0,0,0,0,0c-0.8,0.8-1.7,1.4-2.7,1.8l-1.4,0.5
	c-0.1,0.1-0.2,0.2-0.1,0.3c0.2,0.2,0.5,0.4,0.8,0.5c0,0,0.6,0.3-0.2,0.2c0,0-4.7-0.4-6-2.2c0,0-3.5-4.7-5-5.2c-0.1,0-0.2,0-0.3,0.2
	c-0.2,1.1-1.5,6.1-3.8,9.3C0,23,0,23.1,0.1,23.2c0.5,0.2,1.8,0.6,3.2,0.2c0.1,0,0.2,0,0.2-0.1c0.7-0.1,4.5-0.7,5.7-0.2l3.8,1.8
	c0.1,0,0.1,0.1,0,0.2c-0.2,0-0.5,0.1-0.8,0c0,0-0.1,0,0,0.1c0.2,0.3,0.8,1,1.1,1.7c0,0.1,0,0.1,0.1,0.2c0.1,0.5,0.9,3.5,1.7,2.9
	c0,0,2.1-2.1,3.2-1.8c0,0,1,0.2,1.7,0.8c0.2,0.2,0.4,0.3,0.6,0.4c1.3,0.7,5.1,2.1,12.5,0.7c0,0,0.1,0,0,0.1
	c-0.4,0.3-1.3,1.1-1.7,1.3c0,0-0.8,0.6,0.5,2.2c0,0,1,1.4,1.3,0.7c0,0,1.3-2.9,1.4-4.1c0-0.2,0.1-0.3,0.3-0.3c1.1-0.2,4.8-1,7.7-2.3
	c0,0,1.5-0.7,2.8-0.8c0.2,0,0.5-0.1,0.7-0.2C46.8,26.2,48.2,25.4,48,24.9z M42.3,21.9c-0.2,0-0.4-0.1-0.4-0.3c0-0.2,0.2-0.3,0.4-0.3
	c0.2,0,0.4,0.1,0.4,0.3C42.7,21.7,42.6,21.9,42.3,21.9z"/>
</svg>
