<?xml version="1.0" encoding="utf-8"?>
<!-- Generator: Adobe Illustrator 19.1.0, SVG Export Plug-In . SVG Version: 6.00 Build 0)  -->
<svg version="1.1" id="Layer_1" xmlns="http://www.w3.org/2000/svg" xmlns:xlink="http://www.w3.org/1999/xlink" x="0px" y="0px"
	 viewBox="0 0 48 48" style="enable-background:new 0 0 48 48;" xml:space="preserve">
<style type="text/css">
	.st0{fill:#808080;}
</style>
<path class="st0" d="M48,15.1c0,0-0.6-2.5-7.8-1c0,0-11.5,2.5-13.8,5.9c0,0-0.5-0.4-0.8-0.5c0,0-0.3-0.4-0.6-0.4
	c0,0-0.1-0.5-0.3-0.6c0,0,0.7-0.9,2.2-1c0,0,2-0.2,2.2-0.3c0,0,0.7-0.2,1-0.4c0,0,0.4-0.2,0.4-0.2c0,0-0.1,0.1-0.2,0.1
	c0,0-0.4,0.1-0.5,0.1c0,0-0.8,0.3-1.2,0.3l-2,0.2c0,0-0.9,0-2,1.1c0,0-0.7-0.9-1.5,0c0,0-1-1.2-2.4-1.3c0,0-2.1-0.3-2.5-0.6
	c0,0-0.3-0.3-0.8-0.3L17.2,16c0,0-0.1,0,0.2,0.2c0,0,0.7,0.5,1.3,0.7c0,0,2.4,0.4,2.6,0.5c0.2,0.1,1.4,0.6,1.6,1.1
	c0,0-0.4,0.7-0.8,0.8c0,0-0.3,0.1-0.3,0.3c0,0-0.4,0.5-0.7,0.4c0,0-13.2-7.8-18.5-6.4c0,0-3.8,0.4-2.2,2.3c0,0,6.5,7.5,8.9,6.8
	l1.7-0.3c0,0-3.6,1.7-1.4,2.7c0,0,3.6,2.3,5.5,2.2c0,0,1.1,0.2,1.6,0.6c0,0,0.4,0.3,1.6-0.2c0,0,2.1,0,2.8-1.8c0,0,0.4,2.3,0.1,3.3
	c0,0-0.2,0.5,0.1,1c0,0-0.3,1.3,0.9,2.3c0,0,0.9,1.3,0.9,1.8c0,0,0.2,1.1,0.7,0c0,0,1.9-2.2,2.1-2.9c0,0,0.8-4.3,0.6-5.1
	c0,0,2,2.5,4.5,1.9c0,0,1.2-0.7,1.9-0.6c0,0,2.7-0.6,4-1.4c0,0,3.8-1.5,0.6-3.1c0,0,1.2,0.6,2.2-0.2C39.8,22.7,45.8,19.6,48,15.1z"
	/>
</svg>
