<?xml version="1.0" encoding="utf-8"?>
<!-- Generator: Adobe Illustrator 19.1.0, SVG Export Plug-In . SVG Version: 6.00 Build 0)  -->
<svg version="1.1" id="Layer_1" xmlns="http://www.w3.org/2000/svg" xmlns:xlink="http://www.w3.org/1999/xlink" x="0px" y="0px"
	 viewBox="0 0 48 48" style="enable-background:new 0 0 48 48;" xml:space="preserve">
<style type="text/css">
	.st0{fill:#808080;}
</style>
<path class="st0" d="M45.6,33.2c0,0-0.7-1.3-0.6-3.3c0,0,0-3.2-0.7-3.6c0,0,0.4-0.2,0-0.5l-2-1.9c-0.1-0.1-0.1-0.3,0-0.4
	c0.9-0.8,4-3.7,2-3.1c0,0,4-4.1,2.5-3.8c0,0,2-4,0.8-4.8c0,0-0.1-3.8-2-4.9c0,0-3.3-4.3-6.4-2.6c0,0-6.8,3.5-6,6.2
	c0,0,0.7,4.5,4.4,1.4c0,0,3.7-2.6,4.2,0.8c0,0,0.9-1.9-2.2-2.5L36,9.9c0,0,3.6-1.4,4.4-3.2c0,0,1.9,1.6,3.1,1.6c0,0,0.1,0.3-0.2,0.3
	c0,0,0.3,1.6,2.1,2.5c0,0,0.1,0.7-0.7,0.7c0,0-0.8,2.4,0.4,3c0,0,0,0.6-1,0.4c0,0-0.8,0.1-1.1,2c0,0-0.4,0.6-0.8,0.1
	c0,0-3.2,0.9-3.4,0.7c0,0,0-0.7-2.7,0.7c0,0,0-0.2-0.6,0L32,19.8c0,0,1.7-2,4.2-2.1c0,0,3.1-2.5,2.8-3.4c0,0-0.1-0.5-0.5-0.4
	c0,0,0-0.6,1-0.5c0,0,0.6-0.4,0.7-0.5l-0.2,0c0,0,0.2-0.4,0.6-0.3c0,0,0.1-0.3-0.6-0.1c0,0,0.2-0.4,0.1-0.6c0,0-0.1,0.2-0.6,0.5
	c0,0-1.2,1-1.6,1.1c0,0-0.6,0.5-0.2,1c0,0-1.4,0.8-1.5,1.3l-0.9,0.5c0,0-3.7,3.2-5,3.5c0,0-0.3-0.1-0.5,0.3c0,0-1.4,1.5-2.9,1.9
	c0,0,1-2.9,3.6-3.9c0,0,1.7-1.5-0.5-3.7c0,0-3.6,0.1-3.3-0.2c0,0,0.6-0.8,0.5-1.4c0,0-0.2-0.1-0.2,0.1c0,0-0.1-0.4-0.1,0.2
	c0,0-0.3-0.6-0.5-0.4c0,0,0.2,0.2,0.1,0.3c0,0-0.2,0.9-0.2,1.2c0,0-0.8,1,0.3,1l1.2,0c0,0,0.4,0.4,0.9,0.3c0,0-0.3,1.4,0.7,1.4
	c0,0-3.4,4-3.4,4.6c0,0-1.2,0.4-1.3,1.6c0,0-1.6-0.2-2.3,0.1c0,0,0.3-3.2-0.3-3.3c0,0-0.2-5.2-4.8-5.4c-0.3,0-0.6-0.1-0.8-0.3
	c-0.9-0.8-4-2.8-9.3-0.5c0,0-5.5,0.1-6.4,3c0,0,2.9-2.2,4.6-1.5c0,0-4.9,1.7-5.1,2.7c0,0,0,0.4,1-0.1c0,0,4.7-2.1,6.7-1.1
	c0,0,3.8,1.9,7.2,0.2c0.4-0.2,0.9-0.1,1.2,0.3c0.6,0.7,1.5,1.8,1.7,1.8c0,0-1.8,2.3-2.1,3.6c-0.1,0.4-0.4,0.7-0.7,1
	c-0.7,0.4-1.8,1.2-1.9,1.6c0,0-1.7-0.2-1.6,1.1c0,0,0.6-0.7,0.7-0.1c0,0-0.9,1.1-1,1.7l-0.7,1.6c0,0-1.9,0-2,1.1
	c0,0,0.1-0.2,0.2-0.2c0,0-0.2,0.4,0,0.7c0,0,0-0.4,0.2-0.5c0,0,0.3,0.4,1.3-0.5l0.5-0.3l0,0.3L11,30c0,0,0.3,0.2,0.4-0.3l0.9-2
	c0,0,0.7,0.1,0.8-1.1c0,0,0.3-0.8,0.9-0.6c0.2,0.1,0.4,0,0.5-0.1c0.2-0.1,0.4-0.2,0.4,0.6c0,0,0.6,0.2,0.4,0.7
	c0,0.1-0.1,0.2-0.1,0.2c0,0,0-0.1,0-0.1s0.5,0.1,0.8,0c0.1,0,0.2,0.1,0.2,0.2c-0.2,0.6-0.3,2.1,1.1,2.3l0,0c-0.1-0.1,0-0.3,0.1-0.3
	c0.3,0,0.7-0.1,0.6,0.2c0,0-0.9,0.5-0.5,1.4c0.1,0.2,0,0.4-0.2,0.5c-1,0.5-3.7,1.7-4.4,1.7c0,0-2.7,0.2-3.7-0.6c0,0,0,0,0,0
	c-0.4-0.1-0.8,0.3-0.6,0.7c0.1,0.3,0.3,0.7,0.6,0.6c0,0,1.3,1.6,2.5,1.2c0,0,0.5,0,0.7,0.4c0,0,0.2,0.6,0.9,0.4c0.1,0,0.2,0,0.3,0.1
	c0.2,0.3,0.4,1-0.7,1.1c0,0-0.7,0.6-1.1,0c0,0-0.3-0.6-1.1,0.2c0,0-0.5,0.2-0.9-0.2c0,0-0.3-0.2-0.6,0c0,0-0.6-0.3-0.7-0.6
	c0,0-0.6-0.1-0.3,0.5c0,0,1.3,3.1,7.6,1.9c0.2,0,0.4,0,0.5,0c1.1,0.1,5.3,0.5,7-0.8c0.2-0.1,0.4-0.2,0.6-0.1
	c0.5,0.2,1.4,0.3,2.4-1.2c0.1-0.2,0.2-0.5,0.3-0.7l0.5-1.8c0.1-0.5,0.6-0.9,1.1-0.9c0.3,0,0.6,0.1,0.6,0.6c0,0-0.2,2,0.2,2.9
	c0.1,0.2,0.1,0.4-0.1,0.6c-0.4,0.6-1.1,1.6-1.1,2l-0.9,1.8c0,0-0.4,0.5-0.1,0.9c0,0,0.1,0.3,0,0.7c0,0-0.1,0.8,0,0.8
	c0,0-0.3,0.8,0,0.4c0,0,0.3-0.6,0.5-0.4c0,0,0.5,0.8,0.1-0.1c0,0,0.3-0.2,0.1-0.9c0,0-0.2-0.9,0.1-0.6c0,0,0.1-0.9,1.6-2.8
	c0,0,1-1.4,1.1-2c0,0,1-1.8-0.2-4.2c-0.1-0.2-0.1-0.5,0-0.7c0.1-0.2,0.3-0.5,0.8-0.4c0,0,2.8-0.4,3.6-1.3c0.1-0.1,0.3-0.2,0.4-0.2
	c0.3,0,0.6,0,0.9-0.1c0.1-0.1,0.2,0,0.2,0.1c0.3,0.6,1.5,2.5,3,3.1c0.2,0.1,0.3,0.2,0.3,0.4c0.2,1.2,1.3,5.9,2.2,4.9
	c0,0,1.5,0.9,1.8,0.4c0,0,0.4,0.2,0.3,0.6c0,0,0.3-0.1,0-0.7c0,0,1,0.2,0.1-0.3c0,0,0.2-0.8-1.8-0.6c0,0-0.7-1.3-0.7-2.2
	c0,0,0.1-1.6-1.1-3.4c0,0,0.3-0.3-0.1-0.8c0,0-2.3-3-3.9-3.2l0.4-0.5c0.2-0.3,0.5-0.5,0.9-0.7c0.8-0.3,2.3-1,2.4-1.6
	c0-0.1,0.1-0.2,0.1-0.2l0.4-0.2c0.1-0.1,0.3,0,0.4,0.1c0.4,0.6,1.7,2,2.8,2c0,0,0.3,6.9,1.7,6.4c0,0,1.9,1.4,2.1,0.5
	c0,0,0.3,0.2,0.2-0.2c0,0,0.5,0,0.5,0.2C48,34.3,48.1,33.5,45.6,33.2z M18.9,24c0,0-1,0.4-0.9,0.2c0,0,1-2,2.5-2.7l0.2,1.9
	C20.8,23.4,19.1,23.7,18.9,24z"/>
</svg>
