<?xml version="1.0" encoding="utf-8"?>
<!-- Generator: Adobe Illustrator 19.1.0, SVG Export Plug-In . SVG Version: 6.00 Build 0)  -->
<svg version="1.1" id="Layer_1" xmlns="http://www.w3.org/2000/svg" xmlns:xlink="http://www.w3.org/1999/xlink" x="0px" y="0px"
	 viewBox="0 0 48 48" style="enable-background:new 0 0 48 48;" xml:space="preserve">
<style type="text/css">
	.st0{fill:#808080;}
</style>
<path class="st0" d="M47.7,25.3c0,0-2.6-4.8-9.5-6.2c-0.1,0-0.3-0.1-0.3-0.3c-0.2-0.5-0.8-1.7-2.1-1.5c0,0-0.7,0.4-0.7,1.1
	c0,0-1.2-0.3-1.7,0.5c-0.1,0.2-0.3,0.4-0.5,0.5c-1,0.6-3.7,2.1-6.3,0.7c0,0-5.1-2.8-10.5-0.5l-4.4-1.9l5.6,0.3l-5.6-1.1l4.9-1.3
	l-4.6,0.6c0.1,0,0.1-0.1,0.2-0.1l6.7-2.6l-6,1.7c0.2-0.3,0.3-0.7,0.4-1l2.6-2.3l-2.6,1.4c0-0.5-0.1-1.1-0.4-1.6
	c0.5-0.6,0.8-1.1,0.8-1.1l-0.9,0.9c-0.1-0.2-0.3-0.5-0.5-0.7c-0.2-0.2-0.4-0.4-0.6-0.6c0,0,0,0,0,0c0,0,0,0,0,0
	C9.9,8.8,7,7.8,3.5,11.7c-0.1,0.2-0.3,0.3-0.4,0.4C2.8,12.4,2.3,13,1.9,14l0-0.1l0,0.1c-0.1,0.4-0.3,0.8-0.4,1.2l-0.2-0.6l0.2,0.8
	c-0.1,0.4-0.2,0.9-0.2,1.4l-0.5-1l0.5,1.7c0,0.3,0,0.7,0,1l-0.7-1.7l0.9,3.1c0.1,0.5,0.2,0.9,0.3,1.4C1.2,20.5,0,17.8,0,17.8
	l1.8,4.4L0,19.5l1.7,3.3L0,21.1l1.7,2.2L0,22.2l2.3,2.2c-1.7,0.5-1.6,1.9-1.6,1.9l2,0.6l-1.8,0.9l2.4,0.9l-2,1L4,30.2l-2,0.5
	l2.4,0.4l-1.7,1l2.8,0.2l-2.1,0.9h2.9c-0.5,0.1-2.3,1.6-2.3,1.6l2.8-0.2l-2.2,0.7L7,35.1c-0.7,0.2-1.4,0.7-1.4,0.7l2.3-0.4
	c-0.5,0-1.7,1.1-1.7,1.1l2.7-0.5L6.4,37l2.9-0.8C8.6,36.3,8,37.4,8,37.4l1.7-0.9c-0.3,0.2-1.1,1.2-1.1,1.2L9.9,37c0,0,0-0.3,0.3-0.8
	c0.1-0.2-0.5-1.6-1.3-3.3c1.2,0.9,2.6,1.7,4.2,2.3c0.5,0.2,0.8,0.5,1.1,1c0.4,0.9,1.4,2.5,3.1,2.5l0,0.5c0,0,0.2-0.4,0.5-0.4
	c0,0,0.1,0.8,1,0c0,0,2.5,0.5,2.8-0.1c0,0,0.8,1,0.8-0.1c0,0,0.5-0.4,0.7,0.4c0,0,0.6,0.4,0.6-0.3c0,0,0.9,0.9,0.9-0.2
	c0,0,0.5,0,0.8,0.4c0,0,0-1-1.6-1.3c0,0-0.7-0.1-0.3-0.7c0,0,0.3,0,0.5,0.2c0,0-0.1-0.9-1.6-0.9c0,0-1.6-0.5-3,0.2
	c0,0-1.9,0.2-0.8-0.4c0,0,3.9-1.9,6.4-0.9c0,0,4.2,1.4,6.6,1.7c0.3,0,0.5,0.2,0.7,0.4c0.1,0.2,0.4,0.5,0.9,0.3c0,0,0.4,1.1,2.7,0.7
	c0,0,0.5,0.6,1,0.3c0,0,1.8,0.2,2.1,0.4l0-0.2c0,0,0.5,0.1,0.5-0.2c0,0,0.5-0.6,1.5,0.2c0,0,0.2,0.1,0.5,0.1c0,0,0.5,0,0.4-0.4
	c0,0,0.3-0.3,0.8,0.3c0,0,0.3-0.9-0.9-1c0,0-0.8,0.1-1.1-0.1c0,0-0.3-0.3-0.9-0.1c0,0-2.2,0.3-3.8-2.2c0,0-0.5-1.7,0.9-3.2
	c0.3-0.3,0.6-0.7,0.9-1.1c0.4-0.7,1.3-1.7,2.6-1.7c0,0,3.5,0.6,4-0.8c0.1-0.2,0.2-0.3,0.4-0.4c0.5-0.1,1.5-0.4,1.6-0.8
	c0,0,0.4,0.2,0.6-0.2C47.2,27.1,48.7,26.4,47.7,25.3z M12,22.3L10.2,20l2.6,1.5C12.5,21.8,12.3,22,12,22.3z M11.6,19.5l2.4,1.1
	c-0.3,0.2-0.5,0.4-0.8,0.6L11.6,19.5z M8.4,25.9c-0.2-0.3-0.5-0.6-0.7-1.2c0,0-0.4-1-0.7-2.2C7.2,22.1,7.4,22,7.4,22L9,23.6l0.1-2.3
	l1.5,2l-1-2.5l2.3,1.6c-0.9,0.9-1.7,2-2.5,3.3C9.2,26.1,8.7,26.2,8.4,25.9z M14.2,20.5l-2.5-1.8l3.9,1
	C15.2,19.9,14.7,20.2,14.2,20.5z M41.4,24.1c-0.6,0-1.1-0.4-1.1-0.9c0-0.5,0.5-0.9,1.1-0.9c0.6,0,1.1,0.4,1.1,0.9
	C42.5,23.7,42,24.1,41.4,24.1z"/>
</svg>
