<?xml version="1.0" encoding="utf-8"?>
<!-- Generator: Adobe Illustrator 19.1.0, SVG Export Plug-In . SVG Version: 6.00 Build 0)  -->
<svg version="1.1" id="Layer_1" xmlns="http://www.w3.org/2000/svg" xmlns:xlink="http://www.w3.org/1999/xlink" x="0px" y="0px"
	 viewBox="0 0 48 48" style="enable-background:new 0 0 48 48;" xml:space="preserve">
<style type="text/css">
	.st0{fill:#808080;}
</style>
<path class="st0" d="M44.9,43.2c0,0-0.5-1.5-5-1.1c0,0-1.4,0.4-2.7,0.1c-0.7-0.1-1.3-0.5-1.8-1c-0.6-0.7-1.5-1.7-2-2.3
	c-0.1-0.1-0.1-0.3-0.1-0.4c0.3-0.6,0.5-3.1-1.7-13.5c0,0-1.7-7.5-1-9.7c0,0,0-0.1,0-0.1c0.2-0.6,2.2-5.3,1.9-6.7c0,0-0.1-1,0.1-1.5
	c0-0.1,0.1-0.2,0.2-0.2c0.2-0.1,0.7-0.4,0.4-1.3c0,0-0.2-1.2-1.3-2.1c-0.1-0.1-0.2-0.2-0.2-0.3c-0.1-0.3-0.5-0.9-1-1
	c-0.1,0-0.3-0.1-0.4-0.2C30,1.7,28.9,1,27.6,1.2c-0.1,0-0.2,0.1-0.3,0.2c-0.2,0.1-0.5,0.4-1.5,0.2c-0.2,0-0.3-0.1-0.5-0.2
	c-0.7-0.5-3-1.9-3.4-1.2c0,0-0.8,1.1-0.3,2.4c0,0,0.4,1.4,0.8,1.7c-0.1-0.1-0.6-0.4-1.2-0.1c-0.1,0-0.2,0.1-0.3,0.1
	c-0.2,0-0.6,0-0.7,0.1c0,0-0.5,0.4-0.2,0.4c0,0,1,0,1.1,0.2c0,0-0.4-0.1-0.5,0.4c0,0-0.5,1.3,2.7,2.6c0.1,0,0.2,0.2,0.2,0.3
	c0,0.2,0.1,0.4,0.5,0.3c0,0,0.1,0.2-0.3,0.4c0,0-0.6,0.5-0.7,0.9c0,0.2-0.1,0.3-0.2,0.4c-0.1,0.1-0.1,0.1-0.2,0.2
	c-0.2,0.1-0.3,0.2-0.3,0.4c-0.3,0.7-1.2,2.4-3.5,2.6c-0.1,0-0.1,0.1-0.2,0.1c-0.1,0.3-0.4,1-1,1.1c-0.2,0-0.4,0.2-0.4,0.5
	c0,0.1,0,0.3,0,0.5c0,0-1.2,3.2-1.4,4.4c0,0.3-0.2,0.5-0.5,0.6c-0.6,0.2-1.5,0.5-2.8,0.5c0,0-3.6-0.2-4.3,0.6c0,0-0.8,0.2-1.1,0.7
	c0,0-1.5,1.3-3.1,2.2c0,0-1.8,1.1-0.3,1.7c0,0,0.7,0.2,1.4,0.1c0,0,0.5,0.3,0.6-0.1c0,0,0.2-0.1,0.4,0c0,0-0.1-0.2-0.1-0.3
	c0,0,0.7,0.2,0.9-0.4c0,0,1.4-1.5,1.8-1.3c0,0,0.2,0.4,0.7-0.1c0,0,0.2,0,0.3-0.1c0.1-0.1,0.2-0.2,0.3-0.1c1,0.2,4.3,0.8,5.3,0.8
	c0,0-0.5,0.6-2.5,1.6c0,0-1.1,0.5-2.2,1.9c0,0-3.3,3.6-4,3.9c0,0-1.4,1-0.6,1.4c0,0,0,0.5,0.6,0.3c0,0,2.1,0.2,2.8-0.3l0.2-0.3
	c0,0,0.4-0.1,0.6-0.6c0,0,1.5-1.9,2-1.9c0,0,0.4,0,0.4-0.4c0,0,0.4-0.2,0.2-0.3c0,0,0.6-0.6,0.8-0.4c0,0,2.7-1.4,3.6-1.7
	c0.2,0,0.3,0,0.4,0.2c0.3,0.6,1.3,2.4,1.4,3.2c0,0,0.2,2.2,0.8,3.2c0.1,0.2,0.1,0.4,0,0.6c-0.5,0.7-1.4,2.4,1.2,4.7
	c0.1,0.1,0.1,0.2,0.2,0.3l0.3,0.8c0.1,0.2-0.1,0.4-0.2,0.4c-0.2,0-0.4,0.1-0.6,0.2c0,0-1,0.4-0.5,1.2c0.1,0.1,0.2,0.2,0.4,0.2
	c0.2,0,0.4,0.1,0.5,0.2c0,0,1.2,0.3,2,0.2c0.2,0,0.3,0,0.4,0.1c0.4,0.4,1.5,1.3,3.1,1.2c0,0-0.6,0.3-1.2,0.3c0,0-1.7,0.1-2,0.3
	l0.3,0.1c0,0-1.7,0.8-0.6,2.2c0,0,0.2,0.3,0.3,0.3c0,0,0.1-0.3,0.4-0.4c0.1,0,0.2-0.1,0.3-0.2c0.1-0.1,0.2-0.2,0.4-0.1
	c0.1,0,0.1,0.1,0.1,0.1c0.1,0.2,0.3,0.6,0.5,0.5c0,0,0.2-0.4,0.4-0.5c0,0,0.6,0,1.5-0.3c0,0,3.2-0.5,3.9-1c0,0,1.2-0.5,0.7-1.5
	c0,0-0.2-0.4-0.5-0.6c-0.1-0.1-0.1-0.2-0.1-0.3c0.1-0.2,0.2-0.4-0.2-0.7c-0.1-0.1-0.1-0.2-0.1-0.3c0.1-0.3,0.4-0.8,0.7-0.6
	c0,0,1.3,1.3,2.1,1.7c0.1,0.1,0.2,0.3,0,0.4c-0.1,0.1-0.2,0.2-0.1,0.2c0,0,4.7,0.2,6.8-0.3c0.1,0,0.2,0,0.4-0.1
	C41.7,44.2,45.3,44,44.9,43.2z M27.2,2.4c0,0-0.1-0.3,0.3-0.4c0,0,0.1,0.4,0.3,0.5C27.8,2.5,27.4,2.6,27.2,2.4z"/>
</svg>
