<?xml version="1.0" encoding="utf-8"?>
<!-- Generator: Adobe Illustrator 19.1.0, SVG Export Plug-In . SVG Version: 6.00 Build 0)  -->
<svg version="1.1" id="Layer_1" xmlns="http://www.w3.org/2000/svg" xmlns:xlink="http://www.w3.org/1999/xlink" x="0px" y="0px"
	 viewBox="0 0 48 48" style="enable-background:new 0 0 48 48;" xml:space="preserve">
<style type="text/css">
	.st0{fill:#808080;}
</style>
<path class="st0" d="M43.8,6.3c0,0,3.6-0.6,4.2-0.5c-3-3.4-2.3-2.6-3.3-3.6c-4.5-5-12.5-4.3-15,3.8c-0.7,2.4-2.2,4.3-3.7,5.2
	c0,0-8.2,8.3-10.5,16.3c-0.7,2.4-3.4,5.8-5.5,7.5C6.5,38.1,0,43.8,0.1,45.2c0,0-0.8,2,2.3,1.5c0.6-0.1,1.1,0.2,1.4,0.8
	c0.5,1.1,1.5,2.5,3.1,0.4c1.7-2.2,6.6-7.2,9.4-10.1c1.4-1.4,3-2.5,4.8-3.2c3.4-1.4,8.8-3.4,9.2-2.7c0,0-1.4,3.3,1.1,3.8l5.1,0.1
	c0,0-1.1,0.7-2.2,0.6c0,0-1.6,0.4-1.2,2.1c0,0,0.5-1.5,1-1.2c0,0-0.1,1.7,3.9-0.8c0,0,5.8-0.4,5.1-1.5c0,0,0.4-0.1,0.7,0.3
	c0,0,0.2-1-1.7-0.7c0,0,1.2-0.9,1-1.5c0,0,0.3-0.4,0.7-0.1c0-0.1-0.5-0.8-1.4-0.2c0,0-1.4,1.9-3.3,1.8c0,0,0-1.4,0.2-1.7
	c0,0-1.1,0.4-1,1.5c0,0-5.4,0.3-5.5-0.5c0,0-0.2-2.3,0.5-3c0,0,1.1-1.7,2.3-3.3c1-1.4,2.2-2.7,3.6-3.8c1.1-0.9,2.6-2.5,3.4-5.4
	c0.2-0.5,0.3-1.1,0.5-1.6c0.3-0.8,0.5-2.6-1.1-6.1C41,8.6,42.7,6.4,43.8,6.3z M39,4c-0.5,0-0.9-0.3-0.9-0.8s0.4-0.8,0.9-0.8
	c0.5,0,0.9,0.3,0.9,0.8S39.5,4,39,4z"/>
</svg>
