<?xml version="1.0" encoding="utf-8"?>
<!-- Generator: Adobe Illustrator 19.1.0, SVG Export Plug-In . SVG Version: 6.00 Build 0)  -->
<svg version="1.1" id="Layer_1" xmlns="http://www.w3.org/2000/svg" xmlns:xlink="http://www.w3.org/1999/xlink" x="0px" y="0px"
	 viewBox="0 0 48 48" style="enable-background:new 0 0 48 48;" xml:space="preserve">
<style type="text/css">
	.st0{fill:#808080;}
</style>
<path class="st0" d="M47.2,8c-0.2-0.6-1-1.7-4.5-0.1c-0.5,0.2-0.9,0.5-1.4,0.8c-2.8,2-14.6,10.6-15.8,12.9c0,0.1-0.1,0.1-0.2,0
	c-0.1-0.3-0.3-0.9-0.7-0.9c0,0,1.3-1.2,1.5-2.1c0,0,0.7-2.7,0.6-4.4l0.1-4.9l-0.5,3.5l-0.4,4.5c0,0-0.3,2.5-1.5,3.1
	c0,0-0.5,0.2-0.3-0.3c0,0-0.3-0.9-1.2,0c0,0-0.3-1.9-0.6-2.4l-2.2-3.8c0,0-2.2-4-3.3-4c0,0,1.7,1.9,2.1,2.9l2.1,3.8l1.7,3.3
	c0,0,0,0.1,0,0.1l-0.1,0.4c0,0-0.7,0.3-0.4,0.9c0,0,0,0.6-0.4,0.2c0,0-10.6-9.7-14.2-12.1c0,0-6-3.8-7.1-1.7C0.7,7.8,0.6,7.9,0.6,8
	C0.2,8.7-1,11.5,2,16.5c0.3,0.5,0.5,1,0.8,1.5c0.8,1.8,2.8,6,4.7,6.1l4.9,0.8c0,0-8.4,4-7.3,7.9c0,0-0.1,2.5,1.2,4.2
	c0,0,0.7,5.2,8.1,3.7c0.8-0.2,1.4-0.7,1.7-1.4c1.2-2.8,4.3-10.2,5.3-12.2c0.1-0.2,0.4-0.2,0.4,0c0.3,1.2,0.9,4,0.8,5.5
	c0,0-0.4,2.5,1.1,4.6c0.5,0.7,1.5,0.5,1.8-0.3c0,0,0,0,0,0c0,0,0.6-3.4-0.1-5.2l0-1.8c0-0.2,0-0.3,0.1-0.4c0.2-0.3,0.6-1,0.5-2.3
	l1.6,3.8c0,0,4.2,10.8,8.1,9.9c0.1,0,0.1,0,0.2,0c0.6-0.1,4.9-0.9,6.1-3.1c0.1-0.2,0.2-0.5,0.3-0.8c0.2-1.1,0.5-4.9-0.1-5.6
	c0,0-1.9-3.9-6.6-5.7c-0.1,0-0.1-0.2,0-0.2c1.6-0.1,6.1-0.6,7.1-2.6c0,0,4.7-7.5,5.1-10.6c0,0,0.4-1.7-0.4-3.3
	C47.4,8.4,47.3,8.2,47.2,8z"/>
</svg>
