<?xml version="1.0" encoding="utf-8"?>
<!-- Generator: Adobe Illustrator 19.1.0, SVG Export Plug-In . SVG Version: 6.00 Build 0)  -->
<svg version="1.1" id="Layer_1" xmlns="http://www.w3.org/2000/svg" xmlns:xlink="http://www.w3.org/1999/xlink" x="0px" y="0px"
	 viewBox="0 0 48 48" style="enable-background:new 0 0 48 48;" xml:space="preserve">
<style type="text/css">
	.st0{fill:#808080;}
</style>
<path class="st0" d="M47.8,15.1c0,0,1.8-1.3-6.5-3.6c-0.5-0.1-1-0.2-1.5-0.3c-3.5-0.4-18.2-1.7-19.9-0.7c0,0,0.1-0.8,1.1-0.6
	c0,0,1.2-0.3,1.3-1.1c0,0,1.1-0.9,2.5-2c0,0,1.5-1.8,1.4-2.2c0,0,0.1-0.2,0.4-0.2c0,0-0.1-0.2-0.5,0.1c0,0-0.1-0.5-0.4-0.4
	c0,0,0.2,0.3,0.1,0.3c0,0-1,1.9-2.4,2.6c0,0-1.6,1.3-2.9,1.7c0,0-2,0.8-1.9,1.6c0,0-1.1-0.8-1.7-1c-0.2-0.1-0.3-0.2-0.4-0.4
	c-0.1-0.5-0.3-1.3,0.4-1.5c0,0,0.2-2.1,0-2.9c0,0,0-0.6,0.4-0.5c0,0-0.6-0.5-1,0.2h0.1c0,0,0.1,1.4-0.3,1.6c0,0-1.5,0.4-1.1,2.8
	c0,0-0.8-0.4-1.3-0.3c-0.1,0-0.2-0.1-0.2-0.2c0.1-0.9,0.6-3.5,0.8-4c0,0,0.2-0.7-0.1-0.4c0,0-0.4-1,0.8-1.2c0,0-1-0.6-1.2,1.2
	c0,0-1.1,3.3-0.9,3.9c0,0-0.9-0.8-1.8,0c0,0-0.9-1.1-1.5,0.1L9.2,8.5c0,0-0.8,0.6,0,1.1c0.2,0.1,0.3,0.3,0.2,0.5
	c-0.1,0.5-0.3,1.4,0.4,1.6c0,0-3.1-0.2-3.3-0.1c0,0-1.1-0.6-2-0.3c-0.1,0-0.3,0-0.4,0c-0.8-0.4-3.3-1.6-3.5-1.4L0.3,9.5
	c0,0,0.1,0.4,0.2,0.4L0,10.1c0,0,0.4,0,0.5,0.1c0,0,4.5,3.2,5.9,2.6c0.1,0,0.2,0,0.3,0C7,12.8,7.4,13,7.8,12.9c0,0-2,1-1.7,1.8
	c0,0,0.2-0.7,1-0.8c0.1,0,0.1,0,0.2,0c0.3-0.1,1.1-0.5,1.4-0.8C8.8,13,8.9,13,9,13l1.1,0.1c0.2,0,0.3,0.1,0.3,0.3
	c0.1,0.2,0.2,0.5,0.5,0.6c0.1,0,0.2,0.1,0.2,0.2c0,0.3,0,1,0.6,1.6c0,0-1.3,0.4-0.6,2.2c0,0,0.4,2-2.3,3c0,0-0.1,0,0-0.1
	c0,0-0.3,0.1-0.1,0.4c0,0,0.1,0.7,0.3,0.4c0,0,1.9-1.2,2-1.3c0,0,0.9-1.4,1-1.8c0,0-0.2,5.9,0.2,7.6c0,0-0.1,17.5,4.1,19.5
	c0.2,0.1,0.5,0.1,0.7-0.1c1.1-1.1,5.5-5.8,5.2-10.2c0-0.2,0-0.4,0.2-0.6c0.6-0.8,2.4-3.3,1.5-5.9c0,0,1.7,1.9,3,2
	c0,0,5.1,3.1,5.6,1.8c0,0,1,0.2,0.5-1.2c0,0-0.2-3.7-1.2-4.7c-0.1-0.1-0.2-0.3-0.2-0.5c0-0.5-0.2-1.4-0.6-1.8c-0.1,0,0-0.1,0-0.1
	c0.9-0.1,4.1-0.7,5.7-3.1c0.2-0.2,0.4-0.4,0.7-0.4c1,0,3.2-0.1,4.9-1.4C42.6,19.2,47.6,16,47.8,15.1z"/>
</svg>
