<?xml version="1.0" encoding="utf-8"?>
<!-- Generator: Adobe Illustrator 19.1.0, SVG Export Plug-In . SVG Version: 6.00 Build 0)  -->
<svg version="1.1" id="Layer_1" xmlns="http://www.w3.org/2000/svg" xmlns:xlink="http://www.w3.org/1999/xlink" x="0px" y="0px"
	 viewBox="0 0 48 48" style="enable-background:new 0 0 48 48;" xml:space="preserve">
<style type="text/css">
	.st0{fill:#808080;}
</style>
<path class="st0" d="M36.1,26.1c-0.1-0.1,0-0.3,0.1-0.2c1.2,0.3,4.7,1,7-1.3c0,0,6.7-6.4,4.3-10.9c-0.5-0.9-1.3-1.5-2.2-1.8
	c-1.4-0.4-4.1-0.5-7.3,1.3c0,0-10.7,5.6-12,8.6c0,0-0.1,0.1-0.1,0.1c0,0,0,0,0,0c-0.1,0-0.2,0-0.3-0.2c0-0.3-0.2-1.2-0.7-0.4
	c0,0.1-0.1,0.1-0.2,0.1c-0.1-0.1-0.4-0.2-0.6-0.3c-0.1-0.1-0.1-0.2,0-0.2l1.5-1.8c0,0,1-1.4,0.8-2.3c0,0-0.2-0.1-0.5,1
	c0,0-0.9,1.5-1.2,1.8c0,0-0.8,0.9-0.8,1.2c0,0-0.4-0.1-0.6,0c0,0-0.9-1.6-1.3-1.9c0,0-1.5-1.2-0.4-1.8c0,0-0.3-0.2-0.5,0.2
	c0,0-0.6,0.9,0.5,1.8l1.6,1.8c0,0,0,0.2-0.3,0.3c0,0-0.2,0-0.3,0.2c0,0-0.4,0.3-0.7,0c0,0-2.6-3.7-8.9-7.9c0,0-6.5-4.9-11-3.3
	c-0.5,0.2-1,0.5-1.2,1c-0.6,1-1.1,3.1,0.2,6.7c0,0,2.2,7.5,9.1,6.9c0,0-5.8,1.5-5.1,4.6c0,0-0.5,3.7,6,6.3c0,0,3,2.2,6.2,0.4
	c0,0,1.3-0.5,1.6-2.8c0.1-0.4,0.3-0.7,0.5-1c0.4-0.4,1-1,1.2-2.1c0,0,0.8-3.6,1.2-2.8c0,0-0.2,4.4,0.4,5.8c0.1,0.3,0.2,0.6,0.2,0.9
	c0,0.6,0.1,1.5,0.7,1.8c0,0,1.6,0,1.4-2.2c0,0,0.6-3.2,0.8-4.9c0-0.1,0.2-0.1,0.2,0c0.1,1.1,0.4,2.8,0.7,3.6
	c0.1,0.2,0.4,0.3,0.6,0.2l0,0c0,0,0.5,4.6,2.2,5.1c0.1,0,0.3,0.1,0.4,0.1c0.8,0.3,3.6,1.2,6.1-0.3c0.3-0.2,0.7-0.3,1-0.5
	c1.4-0.5,4.9-2.1,4.9-5.6c0,0,0.4-1.9-2.7-3.6C38.6,27.7,36.8,26.7,36.1,26.1z"/>
</svg>
