<?xml version="1.0" encoding="utf-8"?>
<!-- Generator: Adobe Illustrator 19.1.0, SVG Export Plug-In . SVG Version: 6.00 Build 0)  -->
<svg version="1.1" id="Layer_1" xmlns="http://www.w3.org/2000/svg" xmlns:xlink="http://www.w3.org/1999/xlink" x="0px" y="0px"
	 viewBox="0 0 48 48" style="enable-background:new 0 0 48 48;" xml:space="preserve">
<style type="text/css">
	.st0{fill:#808080;}
</style>
<path class="st0" d="M47.1,41.2c0,0-9.3-4.3-8.7-4.6c0,0,8.3-0.7,6.2-2.3c0,0-0.2-0.3-6.3-2.1c0,0-4.8-1.1-10.4-6.5
	c0,0-5-4.1-8.7-7.6c-2.9-2.8-4.8-6.5-5.2-10.4c0-0.1,0-0.2,0-0.2c0,0-0.7-7.9-6.7-7.9c-0.1,0-0.3,0-0.4,0c-0.6,0-2.8,0.1-4.2,3
	C2.4,2.9,2.2,3.2,2,3.5C1.7,3.7,1.4,4,1.1,4.3c0,0-1.4,0.8-1,2.2c0,0,0.1,0,0.1-0.1c0,0,1.4-0.7,3.2-0.6c0.3,0,0.7,0.1,0.9,0.3
	c0.5,0.4,1.2,1.1,0.9,2.3c0,0-9.3,17.7,9.8,26.5c0,0,1.6,0.7,2.4,1.6c0.1,0.1,0.1,0.1,0.2,0.2c0.4,0.3,1.8,1.6,0.4,2.1
	c0,0-1.4,0.4-1.9,1.2c0,0.1-0.1,0.1-0.1,0.2c-0.4,0.3-2.2,1.6-3.6,1.4c0,0-1.1-0.4-1.8,0.2c-0.1,0.1-0.2,0.1-0.3,0.1
	c-0.5-0.1-2.1-0.1-2.3,1.3c0,0,0.4-0.3,0.9-0.3c0,0,0.9-0.1,1.2-0.2c0,0,2.4-0.1,2.4,0.3c0,0-0.1,0.9,0.6,1.1c0,0,0-0.7,1-0.9
	c0,0,0.6-0.1,1-0.4c0.1-0.1,0.3-0.2,0.4-0.2c0.7,0,2.3-0.1,3.3,0.2c0.1,0,0.1,0.2,0.1,0.2c-0.3,0.3-0.8,0.7-0.8,1c0,0.1,0,0.1,0,0.2
	c-0.2,0.4-1,1.4-2.5,1c0,0-2.3-1.5-2.4-0.1c0,0,0,0.1,0.2,0.1c0,0,0.8,0.1,0.4,0.6c0,0,0,0.2-0.7,0.2l-3.2,0c0,0-1,0.1-1,0.8
	c0,0,0.5-0.5,0.8-0.2c0,0,0.1,0.3,0.6,0.3c0,0,2.6,0,3.9,0c0.2,0,0.3,0.2,0.1,0.4c-0.3,0.2-0.5,0.6-0.4,1.3c0,0,0.5-0.7,0.8-0.6
	c0,0,0,0.2,0.5,0c0,0,1.5-0.5,2.2-0.9c0.2-0.1,0.5-0.3,0.7-0.3c1-0.3,3.5-1,3.7-1c0,0,0.2-0.1,0.1-0.4c0,0,0.2-0.1,0.7,0.1
	c0,0-0.2-0.8-0.9-0.5c0,0-2.1,0.9-1.7,0.3c0,0,1.6-1.1,1-1.5c0,0,3-1.7,2.1-5c-0.1-0.3,0-0.6,0.3-0.8c0.7-0.5,2.6-1.3,6.6-0.2
	c0,0,10.6,2.3,14.8,4.4c0,0,2.3,1.1,3.2,0C48,42.1,48.1,41.7,47.1,41.2z M6.9,2.8C6.4,2.8,6,2.5,6,2c0-0.4,0.4-0.8,0.9-0.8
	S7.8,1.6,7.8,2C7.8,2.5,7.4,2.8,6.9,2.8z M20.5,41.1c-0.3,0.2-0.5,1.2-0.5,1.2c0,0.3-0.3,0.1-0.3,0.1C19.6,42.2,19,42,19,42
	c-0.5,0-0.8-0.1-0.8-0.1C17.8,41.5,19,41,19,41c0.6-0.3,0.1-0.7,0.1-0.7l0.1-0.1c0.2,0.1,0.3-0.2,0.3-0.2c0.3-0.3,0.5,0,0.5,0
	C20.7,40.4,20.5,41.1,20.5,41.1z"/>
</svg>
