<?xml version="1.0" encoding="utf-8"?>
<!-- Generator: Adobe Illustrator 19.1.0, SVG Export Plug-In . SVG Version: 6.00 Build 0)  -->
<svg version="1.1" id="Layer_1" xmlns="http://www.w3.org/2000/svg" xmlns:xlink="http://www.w3.org/1999/xlink" x="0px" y="0px"
	 viewBox="0 0 48 48" style="enable-background:new 0 0 48 48;" xml:space="preserve">
<style type="text/css">
	.st0{fill:#808080;}
</style>
<path class="st0" d="M48,32.7c-1-0.4-4.6-1.9-6.9-2c0,0,0,0,0-0.1l3.6-0.7c0,0,0-0.9-1.4-0.7l-4.4,0c-0.3,0-0.5-0.1-0.7-0.3
	c-0.1-0.2-0.4-0.4-0.7-0.8c-0.2-0.3-0.5-0.5-0.8-0.7c-1.2-0.7-4.4-2.7-6.1-3c-0.3,0-0.5-0.2-0.7-0.4c-0.5-0.5-1.4-1.3-2.5-1.7
	c0,0-3.8-2.2-7.9-2.9c0,0-1.9,0-4.2-3.2c0,0-1.6-1.7-2.3-6.2c0,0-1.2-5.1-4.6-5.6C8,4.4,7.6,4.5,7.2,4.6C6.3,5,4.6,5.8,4.4,6.7
	c0,0.1-0.1,0.3-0.2,0.4C4.1,7.3,3.7,7.7,3.4,7.9C3.4,7.9,3.3,8,3.2,8c-0.6,0.2-3.9,1.5-3.1,3.2c0,0,0.7-0.3,1.2-0.3
	c0.3,0,0.5-0.1,0.7-0.2C2.5,10.4,3.2,10,4,9.9c0.3,0,0.6,0.1,0.9,0.2c0.2,0.1,0.5,0.2,1,0.4c0.7,0.2,1.2,0.7,1.4,1.4
	c0.1,0.3,0.1,0.5,0.1,0.9c0,0,0.4,5.4-1,8.2c0,0-2,5.7,3.9,9.2c0.2,0.1,0.4,0.2,0.6,0.4c0.6,0.4,2.3,1.6,6.1,2.1
	c0,0,2.9,0.2,2.7,2.5c0,0-0.1,1.7-0.5,2.5c0,0-0.7,2.8-1.3,3.5c-0.1,0.1-0.1,0.1-0.1,0.2c0,0.1-0.1,0.3-0.6,0.4c0,0-1.3,0.7-2.7,0.8
	c0,0-0.9,0.1-1.3,0.4c0,0-0.5,0.1-0.5,0.5c0,0,0.5-0.2,0.7-0.2c0,0,0.6,0.4,1,0c0,0,1-0.1,1,0.1c0,0,0.7,0.2,1,0
	c0.1,0,0.1-0.1,0.2-0.1l1.2-0.1c0,0-0.1,0-0.1,0.1c0,0,0.4-0.1,0.4-0.1c0,0,1.8-0.2,2-0.3c0,0,2.1-0.4,1.9-1.1c0,0-0.2-0.3,0.1-0.4
	c0,0,0.1-0.2-0.1-0.5c0,0,0-4.1,0.4-5.3c0,0,0.1-0.5-0.3-1.1c0,0-0.9-1.4-0.3-1.5c0,0,7.5,0.3,6.5-0.6c-0.1-0.1,0-0.1,0.1-0.2
	c0.8-0.1,3.6-0.2,6.9,0.6c0,0,0.6,0.2,1.1,0.1c0.3,0,0.6,0,0.9,0.2c0.7,0.3,2.2,0.9,3.7,0.8c0,0-1.5-0.6-0.2-0.5
	c0,0,1.7,0.9,1.4,0.1c0,0,0.6-0.6-0.9-1.1l-2.6-1.3c-0.1,0,0-0.1,0-0.1c0.9,0.1,3.4,0.3,5.1,0.8C43.7,31.9,47,32.3,48,32.7z
	 M7.3,6.9C7,6.9,6.7,6.7,6.7,6.5S7,6.1,7.3,6.1c0.3,0,0.6,0.2,0.6,0.4S7.6,6.9,7.3,6.9z M20.8,41.2c-0.4,0.2-0.3,0.6-0.3,0.6
	L19,42.2c-0.1-0.9,0.5-0.3,0.5-0.3c0.2-0.4-0.1-0.6-0.1-0.6c-0.5-0.6,1.4-5.4,1.4-5.4C21.6,36,20.8,41.2,20.8,41.2z M20.9,35.5
	L20,33.6c0,0,0.5-0.9,0.7-0.2C20.7,33.4,21.6,35.2,20.9,35.5z"/>
</svg>
