<?xml version="1.0" encoding="utf-8"?>
<!-- Generator: Adobe Illustrator 19.1.0, SVG Export Plug-In . SVG Version: 6.00 Build 0)  -->
<svg version="1.1" id="Layer_1" xmlns="http://www.w3.org/2000/svg" xmlns:xlink="http://www.w3.org/1999/xlink" x="0px" y="0px"
	 viewBox="0 0 48 48" style="enable-background:new 0 0 48 48;" xml:space="preserve">
<style type="text/css">
	.st0{fill:#808080;}
</style>
<path class="st0" d="M46.4,26c0,0,0.1-1.3-0.6-1.5c-0.2-0.1-0.4-0.2-0.6-0.4c-0.6-0.8-2.3-2.4-5.7-1.3c0,0-1.1,0.2-6.2,0.9
	c-0.5,0.1-1,0-1.5-0.1c-0.6-0.2-1.5-0.4-2.6-0.2c-0.4,0-0.8,0-1.1-0.1c-1.5-0.4-5.3-1.3-7.7-2c-1.6-0.5-2.9-1.5-3.6-2.9
	c-0.2-0.4-0.4-0.9-0.5-1.4c0,0-1.2-9.9-3.1-11.9c0,0-0.9-3.6-3-2.7c0,0,0-0.5,0.2-0.8c0,0,0.7-1,0.2-1c0,0,0-0.6-0.4,0.1
	c0,0-0.1-0.7-0.3,0.1c0,0-0.1-0.6-0.4-0.6c0,0,0,0,0,0c0,0.1,0,0.1-0.1,0.2c0,0-0.3,0.2-0.2,1c0,0-0.1-0.5-0.3-0.2
	c0,0-0.1,0.5-0.1,0.7c0,0-0.3-0.5-0.3,0.2c0,0.1,0,0.2-0.1,0.2C8.2,2.1,8.1,2.2,8.1,2.3C8.1,2.3,8,2.4,8,2.4C7.8,2.6,7.3,3,7.4,3.4
	c0,0-0.1,0.3-0.3,0.3c0,0-0.9,0.4-0.9,1.4c0,0,0.4,0.1,0.8,0.2c0.1,0,0.2,0.1,0.3,0.2c0.1,0.3,0.3,0.8,0.3,1.1l0,0.9
	c0,0,0,0.2,0.2,0L7,12.2c0,0-1.2,4-2.7,5.8c0,0-5.2,6.7-1,13.1c0.5,0.7,1.2,1.3,2,1.6c1.6,0.7,4.6,2.1,5.6,3c0,0,2.5,1.7,3.1,3
	c0,0,0.3,0.4,1,1c0.2,0.2,0.4,0.4,0.5,0.7c0.1,0.3,0.3,0.7,0.7,0.9c0.1,0.1,0.2,0.2,0.1,0.3c-0.3,1-1.5,4.3-2,4.4
	c0,0-0.6-0.1-1.1,0.2c-0.1,0.1-0.3,0.1-0.4,0.1l-1.6,0.1c0,0-2.2-0.3-2.3,0.8c0,0,0.2,0,0.2,0c0,0-0.3,0.5,0.2,0.3
	c0,0,0.5-0.5,0.7-0.2c0,0-0.2,0.3,0.7,0.3l2.8,0c-0.2,0,0.6,0.4,0.7,0.1l2.2-0.1c0,0,0.5-0.4,0.4-0.8c0,0,1,1.2,1.4,0.5
	c0,0,0.3,0.1,0.4,0.3c0,0,0.3-0.6-0.5-0.9c0,0-1-0.6-0.9-1l1.3-3.8c0.1-0.2,0.4-0.4,0.6-0.3c0.9,0.4,3.6,0.9,8.6-2
	c0.3-0.2,0.6-0.3,0.9-0.4c0.8-0.2,2.5-0.8,1.5-2c-0.1-0.1-0.1-0.3,0-0.4c0.2-0.3,0.5-0.9-1-1.9c-0.1-0.1,0-0.2,0.1-0.2
	c1,0,3.5-0.1,3.6-1.2c0,0,0,0,0,0l0,0c-0.1,0-0.1-0.2,0-0.2c0.3-0.2,0.8-0.7,1.1-0.9c0.1-0.1,0.3-0.1,0.4-0.1
	c0.4,0.1,1.6,0.3,2.2,0.2c0.2,0,0.3,0,0.5,0.1c0.5,0.2,1.8,0.6,3.1,0.8c0.2,0,0.4,0.1,0.6,0.2c0.3,0.2,1,0.5,2.5,0.4
	c0.1,0,0.3,0.1,0.3,0.2l0,0c0,0,1.6-0.6,1.5-1.2c0,0-0.1-1.4-0.6-1.7c0,0,2-0.9,1-2c0,0,0.1-1.1-0.6-1.4C44.9,28,46.5,27.6,46.4,26z
	 M10.6,4.7c-0.3,0-0.5-0.2-0.5-0.5c0-0.3,0.2-0.5,0.5-0.5c0.3,0,0.5,0.2,0.5,0.5C11.1,4.4,10.9,4.7,10.6,4.7z"/>
</svg>
