<?xml version="1.0" encoding="utf-8"?>
<!-- Generator: Adobe Illustrator 19.1.0, SVG Export Plug-In . SVG Version: 6.00 Build 0)  -->
<svg version="1.1" id="Layer_1" xmlns="http://www.w3.org/2000/svg" xmlns:xlink="http://www.w3.org/1999/xlink" x="0px" y="0px"
	 viewBox="0 0 48 48" style="enable-background:new 0 0 48 48;" xml:space="preserve">
<style type="text/css">
	.st0{fill:#808080;}
</style>
<path class="st0" d="M48,12.6c0,0-0.2-0.8-1.2-1.3c-0.1,0-0.1-0.1-0.2-0.1l-3.7-2.8c0,0-3.1-2-5.6-1.5c-0.1,0-0.2,0-0.3-0.1
	c-0.5-0.3-2.4-1.4-3.2-0.9c0,0-0.9,0.5-0.6,1.6c0,0,0.2,0.5-0.2,0.9c0,0-7.7,4.6-11.9,8.6c-1.7,1.6-2.7,3.7-3.1,6
	c-0.5,3.3-0.8,9.1,0.5,11.6c0.2,0.4,0.2,1-0.1,1.3c-0.4,0.5-1.5,1.1-3.9,1.1c0,0-9.8-0.4-12.7,2.3c0,0-3.5,3-0.9,2.7
	c0,0,16-1,20.3-1.8c0,0,3.4-0.2,4.8-0.8c0.2-0.1,0.4,0,0.6,0.1c0.3,0.4,1,1.1,2.1,1.1c0,0,4.6-0.2,5.6-0.1c0.1,0,0.2,0,0.3-0.1
	c0,0,0-0.1,0-0.1c0,0,0.3,0.4,0.8,0.4c0,0,0.3,0,0.4-0.2c0-0.1,0.1-0.1,0.1-0.1c0.2,0,0.6,0,0.7,0.2c0,0,1.1,0.4,0.8-0.5
	c0,0,0.5-0.2,0.8,0.1c0,0-0.1-0.6-0.7-0.6c0,0-0.6-0.4-1-0.4c-0.1,0-0.3,0-0.4-0.1c-0.2-0.1-0.8-0.3-2,0.2c0,0-3.4,0.3-4.4-0.2
	c-0.1,0-0.2-0.1-0.2-0.2c-0.1-0.3-0.1-0.9,0.5-1.3c0.3-0.2,0.5-0.4,0.7-0.7c1.2-1.7,5-7.5,2.4-9.3c0,0-6.6-4.2-1.9-4.2
	c0,0,5,0.3,5,1.4c0,0,0.7,0.6,1.4,0.1c0,0,0.9,0.4,0.9-0.8c0,0,0.7-1.8-2.2-1.8c0,0-0.9-0.3-0.3-1.4c0.2-0.3,0.3-0.6,0.5-1
	c0.4-1,1.4-2.8,3.2-3.3c0,0,5.5-0.9,7-2.4c0,0,0.1-0.1,0.1-0.1c0.1,0,0.3-0.1,0.4-0.3c0-0.1,0.1-0.1,0.1-0.2
	C47.5,13.7,48.1,13.3,48,12.6z M42.1,11.8c-0.5,0-0.9-0.4-0.9-0.8c0-0.5,0.4-0.8,0.9-0.8s0.9,0.4,0.9,0.8
	C43.1,11.4,42.7,11.8,42.1,11.8z"/>
</svg>
