<?xml version="1.0" encoding="utf-8"?>
<!-- Generator: Adobe Illustrator 19.1.0, SVG Export Plug-In . SVG Version: 6.00 Build 0)  -->
<svg version="1.1" id="Layer_1" xmlns="http://www.w3.org/2000/svg" xmlns:xlink="http://www.w3.org/1999/xlink" x="0px" y="0px"
	 viewBox="0 0 48 48" style="enable-background:new 0 0 48 48;" xml:space="preserve">
<style type="text/css">
	.st0{fill:#808080;}
</style>
<path class="st0" d="M48,31.7c-0.2-0.2-0.7-0.7-1.5-0.8c0,0-0.1,0-0.1-0.1c0-0.2,0-0.5-0.9-0.7c0,0-0.1,0-0.1,0c0.1,0,0.1,0,0.1,0
	S45,30.1,45,30.1c0,0,0.1,0,0.4,0.1c-0.4,0-2.1-0.3-3.3-1.1c-0.1-0.1-0.2-0.1-0.2-0.2c-0.2-0.3-0.6-0.8-1.7-1.1
	c0,0-9.9-3.3-11.1-3.3c0,0,0.2-0.4-0.8-0.6c0,0-0.8-0.8-1.3-0.9c-0.1,0-0.1-0.1,0-0.1c0.2-0.2,0.5-0.8-1.4-1.2
	c-0.1,0-0.2-0.1-0.3-0.2c-0.9-0.6-5.3-3.5-6.9-3.7c-0.1,0-0.3,0-0.4-0.1c-0.7-0.2-3.1-0.7-7.5-0.7c-0.4,0-0.8-0.1-1.2-0.3
	c-0.3-0.1-0.6-0.4-0.7-0.6c0-0.1-0.1-0.2-0.1-0.3c-0.4-0.6-1.7-2.7-3.2-3c0,0-2.5-0.4-3.8,1.8c0,0-0.3,0.5-0.3,0.5
	c0,0-1.3,1.1-1,1.7c0,0,0.5-0.6,1-0.7L0.2,17c0,0,0.6-0.1,1.1-0.4c0.1-0.1,0.2-0.1,0.3-0.1c0.4,0,1.4-0.1,1.7,0.4
	c0,0,0.6,0.5,0.1,1.5c0,0-2.9,4.6,4.5,9.9c0,0,4.6,2.3,6.1,3c0.2,0.1,0.3,0.2,0.4,0.4c0.1,0.2,0.3,0.5,0.4,0.2c0,0,0,0,0.1,0
	l0.1,0.1c0,0,0,0.1,0,0.1c-0.3,0.2-1.4,0.9-2.1,1.2c0,0-0.1,0-0.1,0c-0.1,0.1-0.5,0.3-0.6,0.4c0,0-0.1,0-0.1,0.1
	c-0.1,0-0.3,0.1-0.5,0.3c0,0-0.1,0.1-0.2,0.1c-0.3,0.1-1.2,0.2-1.9,0.1c0,0-1.1-0.1-0.7,0.6c0,0,0.1,0.1,0.1,0.1l0,0
	c0,0,0.1,0,0.1,0.1l0,0.2c0,0,0.1,0.1,0.1,0l0,0c0-0.1,0.1-0.1,0.2-0.1c0.6,0,3.6,0.1,3.6-0.1l0-0.1c0-0.1,0.1-0.2,0.2-0.2
	c0.1,0,0.4,0,0.6,0.3c0,0,0,0,0,0c0.1,0,0.3,0.1,0.3-0.1c0,0,0.2,0.4,0.3,0.1c0-0.1,0.1-0.3,0.3-0.2c0.5,0,1.5,0.1,1.5-0.2
	c0,0,0-0.7,0.5,0.1c0,0,0.2,0.2,0.3,0c0,0,0.4,0.3,0.3,0l-0.5-0.6c-0.1-0.1-0.1-0.2,0-0.3c0-0.1,0.1-0.2,0.1-0.3c0,0,0-0.1,0-0.1
	l0.1-0.2c0.1-0.1,0.2-0.2,0.4-0.3c1-0.3,4.6-1.8,5.6-4.2c0.1-0.2,0.3-0.3,0.5-0.3c0.9,0,3.4-0.1,4.7,0.6c0,0,3.2,0.9,5,1
	c0.1,0,0.2-0.1,0.1-0.2c0-0.1-0.1-0.1-0.2-0.2l5.1,0.9c0,0,0.1-0.1-0.2-0.2c0,0,2.3,0.4,3,0.5c0.1,0,0.2-0.1,0.1-0.2
	c0-0.1-0.1-0.1-0.2-0.2c0,0,3.8,0.3,4.7,0.7c0,0,0.8,0.4,0.9,0.2c0,0,0.1,0,0.1,0L48,31.7C48,31.8,48,31.7,48,31.7z M3.2,14.9
	c0,0,0-0.9,0.9-0.5C4.1,14.4,4.1,15.5,3.2,14.9z M15.3,33.7C15,33.9,13.8,34,13.8,34c0-0.2,2.4-1.6,2.4-1.6l0.2,0.2
	C16.2,32.6,15.3,33.7,15.3,33.7z"/>
</svg>
