<?xml version="1.0" encoding="utf-8"?>
<!-- Generator: Adobe Illustrator 19.1.0, SVG Export Plug-In . SVG Version: 6.00 Build 0)  -->
<svg version="1.1" id="Layer_1" xmlns="http://www.w3.org/2000/svg" xmlns:xlink="http://www.w3.org/1999/xlink" x="0px" y="0px"
	 viewBox="0 0 48 48" style="enable-background:new 0 0 48 48;" xml:space="preserve">
<style type="text/css">
	.st0{fill:#808080;}
</style>
<path class="st0" d="M44.1,11.3c-0.7-0.8-2.9-2.9-7-1.9c0,0-2.4,0.3-4.6,3.1c0,0-1.9,2.7-4.9,4.4c0,0-4.9,2.5-9.1,6.2
	c0,0-4.2,3.2-5.2,5.8c-0.2,0.6-0.7,1.1-1.2,1.5c-0.3,0.2-0.7,0.4-1.2,0.7c0,0-10.2,4.6-10.8,5.4c0,0,1.1-0.1,2.3-0.6
	c0.3-0.1,0.7-0.2,1,0c0.5,0.2,1.3,0.3,2.4-0.4c0,0,1.5-0.8,2.7-1.4c0.7-0.4,1.6-0.5,2.4-0.5c2.2,0,7,0.1,9,0.5
	c0.4,0.1,0.7,0.3,1,0.6c0.3,0.4,1.1,0.9,2.9,1.2c0,0,2.8,1.1,3.4,1.8c0,0-0.7-0.4-1-0.3c0,0-1.2-0.5-1.4,1c0,0,0.8-0.9,1.1-0.5
	c0,0-0.3,0.6,0.2,0.7c0,0,0.5,0.1,0.5-0.1l2.1,0.4c0,0,3.2,0.6,2.6-0.3c0,0,0.8,0,1.3,0.6l0.1-0.2c0,0,2.2,0.5,1.8-0.3
	c0,0,0.9-0.1,1.4,0.5c0,0-0.4-1.2-1.9-1c0,0-0.1-0.2-0.3,0c0,0-1.2-0.9-2.4-0.1c0,0-1,0.1-2.1-0.3c0,0-0.2-0.5-1.1-0.8
	c0,0,0.7-0.5,1.2-0.1c0,0-0.3,0.5,0.3,0.7c0,0,0.4,0,0.4-0.3c0,0,1,0,1.2,0.3c0,0,0.5,0,1.1,0c0,0,0.9,0,0.9,0s0.3-0.3,0.5,0.2
	c0,0,2.7,0.2,3.2,0.1c0,0,0.1,0.1,0.1,0.2c0,0,0.2-0.1,0.2-0.2c0,0,1.3-0.2,1.6,0c0,0,1,0.2,0.7-0.4c0,0,1.1,0,1.4,0.5
	c0,0-0.3-1.3-1.9-0.9c0,0-0.3-0.1-0.4,0c0,0-1.1-0.5-1.6-0.1c0,0-1.1-0.6-1.6,0c0,0-3.5-1.5-3.8-2.1c0,0,4.5-0.4,10.5-10.6
	c0.7-1.2,1.1-2.4,1.2-3.8c0.1-1.4,0.3-3.3,0.7-4.2c0.1-0.4,0.5-0.6,0.9-0.7c0.6-0.1,1.8-0.3,2.9-0.9c0,0,0.2-0.1,0.4,0.2
	c0,0,0.4-0.7-3.2-2.6C44.5,11.7,44.3,11.5,44.1,11.3z M32,36.6c0,0-1.4-0.3-2.5-0.5c0,0-1.1-0.5-1.7,0.3l-2-1.2c0,0,3.4-0.2,4-0.5
	C29.8,34.7,32.7,36.3,32,36.6z M39.6,13.4c-0.5,0-0.9-0.3-0.9-0.7c0-0.4,0.4-0.7,0.9-0.7c0.5,0,0.9,0.3,0.9,0.7
	C40.5,13.1,40.1,13.4,39.6,13.4z"/>
</svg>
