<?xml version="1.0" encoding="utf-8"?>
<!-- Generator: Adobe Illustrator 19.1.0, SVG Export Plug-In . SVG Version: 6.00 Build 0)  -->
<svg version="1.1" id="Layer_1" xmlns="http://www.w3.org/2000/svg" xmlns:xlink="http://www.w3.org/1999/xlink" x="0px" y="0px"
	 viewBox="0 0 48 48" style="enable-background:new 0 0 48 48;" xml:space="preserve">
<style type="text/css">
	.st0{fill:#808080;}
</style>
<path class="st0" d="M3.7,41.9c-0.1,0-0.2,0-0.2,0c-0.1,0-0.3-0.1-0.4-0.1c0,0-1.6-0.9-2.1,0.8c0,0,1.2-1,1.8-0.4
	c0,0-0.3,0.3,0.1,0.5l0,0.1c0,0,0,0,0.1,0c0,0,0.1,0,0.1,0c0,0,1-0.1,1.7,0c0.1,0,0.2,0,0.3,0c0.6,0,2.6,0.1,3,0.1
	c0,0,0.8,0.1,1.1-0.2c0-0.1,0.1-0.1,0.2-0.1c0.3,0.1,0.9,0.3,1.7,0.3c0,0,0.8,0.1,0.9,0c0,0,0.7-0.1,0.9,0c0.1,0.1,0.2,0.1,0.3,0.1
	c0.2,0,0.5-0.1,0.5-0.5c0-0.2,0.1-0.3,0.3-0.4c0.4-0.1,1.2-0.1,1.8,0.9c0,0,0.2-0.3-0.3-0.9c0,0,0.6-0.7,1.1-0.3
	c0.1,0.1,0.2,0.1,0.3,0.1c0.3,0.1,1,0.2,1.3,0.2c0,0,1.2,0.3,2.1-0.1c0.1-0.1,0.2-0.1,0.4-0.1c0.3,0,1,0.1,1.4,0.3
	c0,0,2.6,0.6,2-0.6c0,0,0.6-0.2,1.3,0.7c0,0-0.5-1.7-1.9-1.2c0,0-2.1,0.5-1.7-0.2c0,0,0.4-1.1,0.7-1.9c0.2-0.4,0.5-0.6,0.9-0.7
	c0.7-0.1,1.9-0.2,2.7-0.1c0.3,0,0.6,0.1,0.9,0c1-0.1,3.1-0.1,4.2,0.2c0,0,3.6,0.4,5.2,1.4c0,0,6.3,3.4,7.5,4.1
	c0.1,0.1,0.3,0.1,0.5,0.2c0.4,0.1,1.3,0.1,2.2-0.3c0,0,2.7,0.2,1.8-0.2c0,0-10.6-6.4-13.4-7.7c-0.3-0.1-0.6-0.3-0.8-0.6
	c-0.5-0.5-1.4-1.3-1.8-1.8c-0.1-0.1,0-0.2,0.1-0.2c0.9,0.3,3.4,1.1,3.6,0.8c0,0,0.5-0.3-2.2-2.3c0,0-1.7-0.9-2.1-1.5
	c-0.1-0.2-0.2-0.3-0.4-0.4L24,25.2c0,0-5.4-5.8-6.5-7.7c0,0-3.1-4.4-3.4-8.7c0,0-0.8-3.8-5.3-5.1c-0.3-0.1-0.7-0.2-1-0.2
	C6.6,3.5,3.6,3.4,2.6,5.1c0,0-2.5,1-2.6,1.8l0.3-0.1c0,0,0.7,0.7,1.7,1.3C2.4,8.3,2.6,8.6,2.8,9c0.2,0.6,0.5,1.5,0.7,2.4
	c0.2,0.9,0.2,1.8-0.1,2.6c-1.1,3.2-3.7,14,9.8,21.8c0.3,0.2,0.5,0.5,0.5,0.9c0,0.2,0,0.5,0,0.7c-0.1,0.4-0.2,0.7-0.5,0.9
	C12.2,39,9,41.6,6.9,41.8c0,0-0.1-0.4-0.4-0.1c0,0-1-0.8-1.5,0.2C5,42,4.9,42.1,4.8,42C4.5,42,3.9,41.9,3.7,41.9z M8.4,7.4
	c-0.5,0-0.9-0.3-0.9-0.7c0-0.4,0.4-0.7,0.9-0.7c0.5,0,0.9,0.3,0.9,0.7C9.2,7.1,8.9,7.4,8.4,7.4z M15.2,42.3c0,0-0.7-0.8-1.2-0.6
	c0,0,0.7-0.8,1.7-0.2C15.7,41.4,15.2,42,15.2,42.3z M20.4,40.5c-0.9,0.3-1.4,0.8-1.4,0.8c-0.8-0.5-0.8,0.2-0.8,0.2
	c-0.4,0.1-2.1-0.4-2.1-0.4c-1.4-0.8-2.1,0.6-2.1,0.6c-0.4-0.1-1,0.2-1,0.2c-1.6,0.5-2.5,0.2-2.5,0.2c-0.9-0.5,4.5-3.6,4.5-3.6
	c0.6-0.1,0.7-0.8,0.7-0.8c0.7-0.3,1-1.1,1-1.1c0.3,1.2,4.6,2,4.6,2S20.4,40.4,20.4,40.5z"/>
</svg>
