<?xml version="1.0" encoding="utf-8"?>
<!-- Generator: Adobe Illustrator 19.1.0, SVG Export Plug-In . SVG Version: 6.00 Build 0)  -->
<svg version="1.1" id="Layer_1" xmlns="http://www.w3.org/2000/svg" xmlns:xlink="http://www.w3.org/1999/xlink" x="0px" y="0px"
	 viewBox="0 0 48 48" style="enable-background:new 0 0 48 48;" xml:space="preserve">
<style type="text/css">
	.st0{fill:#808080;}
</style>
<path class="st0" d="M1.3,40.1c0,0,0.9-0.6,1.1-0.4c0,0,0.2,0.4,1.2-0.6c0,0,1.5-1.4,7.5-3.3c1.1-0.3,2.2-0.5,3.3-0.5
	c6.2-0.2,10.9-1.7,10.9-0.3c0,0-0.3,2.5,1.5,3c0.3,0.1,0.6,0.3,0.8,0.5l0.3,0.3c0.1,0.1,0,0.2-0.1,0.2c-0.2,0-0.5,0.1-0.6,0.4
	c0,0.2,0.1,0.4,0.3,0.4c0.4,0,1.1,0.2,1.3,0.4c0.1,0.1,0.2,0.1,0.4,0.1l5.5,0.2c0,0-0.2-0.3-0.5-0.2c0,0-0.1-0.1-0.3-0.2
	c-0.2-0.2-0.3-0.4-0.3-0.6c0-0.3-0.2-0.8-1.2-0.5c0,0-0.6,0.1-1.3-0.5c-1.5-1.3-3.2-2.2-2.1-3.9c0,0,0.7-1.2,2-1.5
	c0,0,3.8-1.4,7-5.7c0.4-0.5,0.7-1.1,0.8-1.7c0.5-1.6,1.5-5.3,2.2-8.1c0,0,1.2-4,3.1-4.7c0,0,0.8-0.5,1.8-0.2c0,0,1.5,0.4,1.9,0.8
	c0,0,0.3-0.5,0-1.1c0,0-1.4-1.6-1.9-1.8c0,0,0.2-3.4-4-3.2c0,0-2.8,0.1-4,2.7l-1.7,2.7c-0.7,1.1-1.6,2.1-2.7,2.9
	c-0.5,0.4-1.1,0.7-1.8,1c-2.7,1.6-3.5,2.5-6.6,3.9c-2.7,1.3-2.3,1.3-4.8,2.6c-3,1.5-8.6,4.6-8,6.2c0.1,0.2,0,0.4-0.2,0.4l-9.5,3.3
	c0,0-3.1,1.4-1.8,1.8C1,35,0.8,35.7,2,35.5c0,0,2.9-0.2,2.6,0.1c0,0-6,3.7-4.4,3.7c0,0,3.8-2.1,4.6-2.1c0,0-2.3,2-4.3,2.8
	c-0.1,0-0.1,0.1,0,0.2C0.8,40.2,1,40.2,1.3,40.1z M43.3,10.2c-0.3,0-0.5-0.2-0.5-0.5c0-0.3,0.2-0.5,0.5-0.5c0.3,0,0.5,0.2,0.5,0.5
	C43.9,10,43.6,10.2,43.3,10.2z"/>
</svg>
