<?xml version="1.0" encoding="utf-8"?>
<!-- Generator: Adobe Illustrator 19.1.0, SVG Export Plug-In . SVG Version: 6.00 Build 0)  -->
<svg version="1.1" id="Layer_1" xmlns="http://www.w3.org/2000/svg" xmlns:xlink="http://www.w3.org/1999/xlink" x="0px" y="0px"
	 viewBox="0 0 48 48" style="enable-background:new 0 0 48 48;" xml:space="preserve">
<style type="text/css">
	.st0{fill:#808080;}
</style>
<path class="st0" d="M47.8,34.6L45,33.2c0,0,0.3-0.6-0.4-0.6c0,0,0.6-0.4,1.2,0c0,0-0.8-1.3-1.9-1.7c-0.2-0.1-0.4-0.2-0.6-0.3
	c-0.3-0.3-0.9-0.8-1.5-1l-5.1-2.6c-0.1-0.1-0.1-0.3,0-0.3c0,0,0,0,0,0c0.1,0,0.1-0.1,0-0.2c-0.4-0.3-0.9-0.8-1.2-0.8
	c0,0,1.1-0.1,0.1-0.5c0,0-0.1-0.1,0-0.1c0.1,0,0.1-0.1,0-0.2c-0.6-0.5-2.8-2.1-5.7-3.1c-1-0.3-1.9-0.8-2.8-1.3
	c-0.9-0.5-1.9-1.2-2.4-1.6c0,0-6-4-7.5-4.5c0,0-1.3-0.4-2.3-2.1c0,0-2.6-3.6-5.7-3.5c0,0-2.1,0.1-3.4,1.2c0,0-1.6,0.9-2.8,1.2
	c-0.2,0.1-0.5,0.1-0.7,0.3c-0.8,0.4-2.5,1.3-2.4,2.3c0,0,0.2-0.1,1.5-0.1c0.1,0,0.1,0,0.2,0c0.6-0.1,3.4-0.3,3.9,0.1
	c0,0,2,1.5,2.7,3.3l0.5,1.6C9,19,9.1,19.4,9.1,19.8c0.2,1.5,0.5,5.8,1.4,4.4c0,0,1.2,3.7,4.1,5.1c0.7,0.3,1.4,0.8,1.9,1.4l0.9,0.9
	c0,0,1.1,1.5,0.7,2.3c0,0.1,0,0.2,0.1,0.2l0,0c0,0-0.3,0.5-0.2,0.7c0,0.1,0,0.2-0.1,0.2c-0.6,0.4-2.7,1.8-3.5,2c0,0-0.6,0.1-1.3,0.8
	c-0.3,0.3-0.7,0.5-1.1,0.5c-0.2,0-0.5,0-0.8-0.1c0,0-1.3-0.4-1.5,0.5c0,0,0.5-0.4,0.8-0.1c0,0-0.5,0.5,0.3,0.5c0,0,2.3,0.3,3.2,0
	c0.1,0,0.2-0.1,0.3-0.2l0.2-0.3c0,0,0.5,0.6,1.4,0.3c0.1,0,0.2,0,0.3,0c0.4,0.1,1.2,0.3,1.2-0.5c0,0,0.8,0.1,1.2,0.6
	c0,0,0.1-1.2-1.7-1.2c0,0-0.4-0.1-0.7,0.1c0,0-1.5,0-0.8-0.3c0,0,2.8-1.8,3.7-2c0,0,0.1,0,0.1-0.1c0.3-0.2,1.4-0.8,0.8-2.7
	c0,0,0,0,0,0c0.1,0.2,0.3,0.4,0.4,0.4c0,0-0.4-0.6,0-0.8c0.1,0,0.2,0,0.2,0.1c0.1,0.2,0.3,0.5,0.8,0.6c0.1,0,0.1,0,0.1-0.1
	c0-0.2,0-0.4-0.2-0.6l0.7,0.2c0.1,0,0.1,0,0.1-0.1c0-0.1,0.1-0.4-0.1-0.5c0,0,0.6,0.4,0.9,0.5c0,0,0.1,0,0-0.1L23,32.3
	c0,0,1.2,0.4,0.8-0.1c0,0,0.6,0,1,0.2c0,0,0.1,0,0.1,0c0,0,0-0.1,0-0.2c0-0.1,0-0.1,0-0.1c0.2-0.1,0.7-0.4,0.8-0.5c0,0,0,0.2,0,0.4
	c0,0,0,0,0,0c0-0.1,0.1-0.4,0.3-0.3c0,0,0,0.3,0.2,0.5c0,0,0.1,0,0.1,0c0-0.2,0-0.6,0-0.6c0,0,0.2,0.6,0.5,0.9c0,0,0.1,0,0.1,0
	l0-0.2c0,0,0.1,0.3,0.4,0.4c0.1,0,0.2,0,0.2-0.1c0-0.1,0.1-0.4,0-0.4c0,0,0.5,0.4,0.4,1.1c0,0-0.1,4-0.8,4.5c0,0-0.4,0.6-1.1,0.6
	c0,0-0.7-0.1-0.9,0.2c0,0-2.5-0.4-2.6,0.6c0,0,0.6-0.4,1.1-0.2c0,0-0.2,0.4,0.6,0.4c0,0,2.4,0.3,3-0.2c0,0,1-1.1,1.4-0.9
	c0,0,0.8,0.4,1.4,0.2c0,0,1.7,0.6,1.4-0.3c0,0,0.9-0.2,1.5,0.5c0,0-0.3-1.2-1.6-1c0,0-0.7-0.2-0.9,0c0,0-1.8,0-1.6-0.8
	c0,0,0.1-3.2,0.4-4.6c0.1-0.3,0.4-0.5,0.7-0.4c1.5,0.5,5.8,1.7,9.4,1.9c0.3,0,0.6,0.1,0.9,0.3c0.7,0.4,2,1.2,2.8,1.1l0.5-0.1
	c0,0,1.1,0.6,0.8-0.1c0,0,1.4,0.5,1.8,0.8c0,0,0.4,0,0.3-0.1c0,0,0.2,0.3,0.8,0C47.3,35.4,48.5,35,47.8,34.6z M6.9,11
	c0,0-0.3-1.4,1.2-0.6C8.2,10.4,7.8,11.8,6.9,11z"/>
</svg>
