<?xml version="1.0" encoding="utf-8"?>
<!-- Generator: Adobe Illustrator 19.1.0, SVG Export Plug-In . SVG Version: 6.00 Build 0)  -->
<svg version="1.1" id="Layer_1" xmlns="http://www.w3.org/2000/svg" xmlns:xlink="http://www.w3.org/1999/xlink" x="0px" y="0px"
	 viewBox="0 0 48 48" style="enable-background:new 0 0 48 48;" xml:space="preserve">
<style type="text/css">
	.st0{fill:#808080;}
</style>
<path class="st0" d="M47.7,24.4l-0.2-0.8c0-0.1,0-0.3,0-0.4c0.4-1.1,1.9-6.1-4-9.2c-0.2-0.1-0.5-0.3-0.7-0.4c-0.4-0.2-1.1-0.6-2-0.6
	c-0.4,0-0.8-0.1-1.1-0.1c-1.1-0.2-3.1-0.7-4.2-1.4c0,0-1.2-0.7-3.8,0.2c0,0-5.9,1.4-8.2,0.3c-0.1,0-0.1-0.1-0.2-0.1
	c-0.2-0.1-1.2-0.6-4.8-0.3c-0.3,0-0.7,0-1-0.1c-1-0.4-3.4-1-4.7,1.1c-0.2,0.3-0.4,0.5-0.7,0.6c-0.5,0.2-1.2,0.6-1,1.7
	c0,0.1,0,0.3-0.1,0.4c-0.1,0.2-0.3,0.4-0.7,0.6c0,0-0.7,0.6-0.7,1.2c0,0.2-0.1,0.4-0.2,0.5c-0.6,0.5-2.1,1.6-3.1,1.3l-0.6-0.4
	c0,0-3.6-2.9-3.8-2.7c0,0-0.5,0.5,0.2,0.9c0.1,0,0.2,0.1,0.2,0.2c0,0.2,0.2,0.7,0.7,1.1c0,0,1,1.3,1.2,1.9c0,0.1,0,0.1-0.1,0.1
	c-0.4-0.1-1.7-0.7-2-2.5c0-0.2-0.2-0.4-0.4-0.5c-0.3-0.1-0.6-0.3-0.7-0.5c0-0.1-0.1-0.1-0.1,0c-0.2,0.1-0.8,0.6-0.7,2.3
	c0,0,0.3,2.7,1.3,3.3c0,0,0,1,0.5,1.2C1.9,22.8,2,22.9,2,23h0c0,0.2,0,0.3,0,0.5c-0.1,0.3-0.2,1,0.1,1.5c0,0-0.1,1.2,0.6,1.3
	c0.1,0,0.3,0.1,0.3,0.2c0.2,0.2,0.6,0.6,1.5,0.5c0,0,0.6,0.5,1.9,0.1c0.1,0,0.2,0,0.3,0c0.5,0,2.3-0.2,2.8-1
	c0.1-0.2,0.2-0.3,0.4-0.4c0.8-0.5,2.7-1.6,3-1c0,0,0.5,1.5,1.9,1c0.1,0,0.3,0,0.4,0c0,0,0.1,0,0.1,0c0.1,0,0.2,0.1,0.2,0.2
	c0.1,0.2,0.3,0.6,1.2,0.5c0.2,0,0.3,0,0.5,0.2c0.1,0.1,0.3,0.3,0.3,0.6c0,0,1.2,2,1.9,2.7c0.2,0.2,0.3,0.3,0.4,0.5
	c0.3,0.7,0.9,2.4,0.8,2.7c0,0,0,0.8-1,1c0,0-0.8,0.6-0.7,1.3c0,0,0.7,0.3,1.2,0.1c0,0,3.9,0.7,3.6-0.7c0,0,1,0.5,1.4,0.1
	c0,0,1.9,0.3,1.9-0.7c0,0,0.1-0.5-0.7-1.6c-0.1-0.2-0.2-0.4-0.2-0.6c0-0.9-0.1-3,0-3.1c0,0,6.9,1.8,10.7-1.2c0.3-0.2,0.7-0.3,1.1,0
	c0.5,0.3,1.2,1,1.6,2.3c0,0,2.1,4.5,0,5.6c0,0-0.9,0-1.1,0.6c0,0-0.7,1,0.8,0.9c0,0,2.4,0.5,3.4-0.1c0,0,0.3-0.6,1.1-0.5
	c0,0,1,0.1,0.7-0.8c0,0-1-2.3,0.9-2.6c0.2,0,0.3-0.2,0.3-0.3l0-1.8c0,0-0.2-2.7,0.6-3.6c0,0,0.5-0.5,0.6-1.5l0.4-1.5
	c0-0.1,0.2-0.1,0.2,0c0.1,0.2,0.3,0.6,0,0.8c0,0-0.3,0.1-0.2,0.7c0,0,0,0.6,0.2,0.6l0.1,0.5c0,0,0.6-0.7,0.4-1.2l-0.2-0.1
	C47.5,25.7,48.2,25.2,47.7,24.4z M6,21.2c0,0,1-0.1,1,0.2C7,21.4,6.5,22,6,21.2z M23.1,33.3l0.1-1.9C24.3,32.7,23.1,33.3,23.1,33.3z
	"/>
</svg>
