<?xml version="1.0" encoding="utf-8"?>
<!-- Generator: Adobe Illustrator 19.1.0, SVG Export Plug-In . SVG Version: 6.00 Build 0)  -->
<svg version="1.1" id="Layer_1" xmlns="http://www.w3.org/2000/svg" xmlns:xlink="http://www.w3.org/1999/xlink" x="0px" y="0px"
	 viewBox="0 0 48 48" style="enable-background:new 0 0 48 48;" xml:space="preserve">
<style type="text/css">
	.st0{fill:#808080;}
</style>
<path class="st0" d="M47.6,16.7c0,0,0.4-0.3-0.5-1.5c-0.1-0.1-0.1-0.3-0.1-0.4c0-0.2,0-0.4,0-0.6c0-0.1-0.1-0.2,0-0.4
	c0-0.3,0-1-0.4-1.2c0,0,0,0,0,0c0.1-0.3,1.2-2.2-0.1-2.8c-0.1,0-0.1,0-0.2,0c-0.3,0-1.4,0.1-2.1,0.7c-0.2,0.1-0.4,0.1-0.6,0.1
	c-0.5-0.2-1.7-0.5-2.4-0.2c-0.1,0-0.2,0-0.3,0c-0.5-0.3-2-1-2.8-0.5c0,0-0.7,0.5-0.7,1.7c0,0.1-0.1,0.2-0.2,0.3
	c-0.6,0.1-2,0.4-2.9,0.2c-0.1,0-0.2,0-0.2-0.1c-0.2-0.1-1-0.3-1.8,0c-0.1,0.1-0.3,0.1-0.4,0.1c-0.6,0-2.3,0.1-3.3,1.2
	c-0.3,0.3-0.6,0.6-1,0.8c-0.5,0.3-1.2,0.6-1.9,0.6c-0.6,0.1-1.2-0.1-1.7-0.4c-0.6-0.4-1.8-1-2.6-1.4c0,0-2.4-1.7-6.3-0.4
	c-0.2,0.1-0.5,0-0.7-0.2c-0.8-0.7-3.1-2.7-5.6-2.5c0,0-2.7,0.2-4.5,2.7c0,0-1.1,1.5-1.9,0.5c0,0-1.1-2.5-1.7-2.3
	c0,0-1.4,0.2-0.1,2.1c0,0,0.8,2.4,3.8,1.5c0,0,0.8-0.6,1.2-1.2c0,0,3.6-4.1,7.6,0c0.2,0.2,0.2,0.4,0,0.6c-0.6,0.5-1.7,2-1.6,5.4
	c0,0-1.1,2.8-2.2,4.4C9,23.6,8.8,24,8.7,24.5c-0.4,1.2-1.2,3.4-1.6,3.7c0,0-2.2,1.5-1.6,1.9c0,0-0.2,0.5,0.3,0.8c0,0,0,0.1-0.2,0
	c0,0,0.1,0.2,0.3,0.2c0,0,0.2,0.2,0.4,0.1c0,0,0.1,0.7,0.8,0.2c0,0,0.5,0.3,0.9-0.2c0,0,0.5-0.6,0.6-1.1c0,0,1.7-4.8,2.6-5.3
	c0,0,2.6-1.3,3-1.7c0,0,1.6-1.3,1.7-2.1c0,0,2.4,3.5,1.6,7.9c0,0,0,0.6,0.5,1.2c0,0,2.1,3.1,2.2,4c0,0,0.1,0.4,0.3,0.5
	c0,0,0,1.8,1.1,1.2L21.6,36c0,0,0.2,0,0.2-0.2c0,0,0.4,0.3,0.7-0.1c0,0,0,0.1-0.1,0.2c0,0,0.2,0,0.2-0.1c0,0,0.3,0.1,0.5-0.3
	c0,0,0,0.2-0.1,0.3c0,0,0.4-0.2,0.4-0.5c0,0,1-1.1-0.8-2.7c0,0-1.5-1.3-1.9-2.1c0,0-1.3-2,0.1-4.2c0.1-0.1,0.3-0.2,0.4-0.1
	c0.6,0.4,2.3,1.3,4.2,1.4c0.2,0,0.4,0.1,0.5,0.3c0.7,0.9,3.1,4.3,3.4,5.4c0,0,0.4,0.9,0.8,1.2c0,0,0.1,0.1,0.1,0.1
	c0,0.2,0.2,0.6,0.5,0.5c0.1,0,0.2,0,0.2,0.1l1.2,1.1c0.1,0.1,0.1,0.2,0.2,0.3c0,0.6,0.3,2.2,1.7,1.5c0.1,0,0.1,0,0.2,0
	c0.2,0.2,0.5,0.4,1.2,0.2c0.1,0,0.2,0,0.2,0c0.2,0.1,0.6,0.3,1-0.1c0,0,1.7,0.7,1.2-1.3c0,0-0.2-0.9-1.8-1.7c0,0-2.2-1.6-2.8-2.3
	c-0.1-0.1-0.1-0.3,0-0.4c0.5-0.5,2.3-1.9,2.3-2.2c0,0,2.8-1.3,0.1-4.4c0,0,1.2-1.9,1.3-2.9c0,0-0.1-2.3,1.4-2.6l2.4-0.8
	c0.5-0.2,1.1-0.2,1.7,0c0.6,0.2,1.3,0.5,1.5,0.7c0,0,2.1,1,3-0.7C47,19.4,48.7,18.6,47.6,16.7z M33.8,28.5c0,0-1.8,1.4-1.8,1.6
	c0,0-1.3-1.9-1.4-2.3c0,0,1.8,0.1,2.4-0.4c0,0,0.2,0.7,0.6,0.6C33.7,28.1,34.3,28,33.8,28.5z M43,14.3c-0.3,0-0.6-0.2-0.6-0.5
	s0.3-0.5,0.6-0.5s0.6,0.2,0.6,0.5S43.4,14.3,43,14.3z"/>
</svg>
