<?xml version="1.0" encoding="utf-8"?>
<!-- Generator: Adobe Illustrator 19.1.0, SVG Export Plug-In . SVG Version: 6.00 Build 0)  -->
<svg version="1.1" id="Layer_1" xmlns="http://www.w3.org/2000/svg" xmlns:xlink="http://www.w3.org/1999/xlink" x="0px" y="0px"
	 viewBox="0 0 48 48" style="enable-background:new 0 0 48 48;" xml:space="preserve">
<style type="text/css">
	.st0{fill:#808080;}
</style>
<path class="st0" d="M47.9,31.1l-1.5-3.7c0,0,0.3-0.4-0.8-1c0,0-2.2-1.9-2.2-4.7c0,0,1.2,2.6,1.9,2.1c0,0,0.6-0.3,0.2-1.1
	c0,0-1.6-6.1-2.7-7.3c-0.1-0.1-0.1-0.1-0.1-0.2c-0.4-0.5-2.4-2.7-6.1-0.2c0,0-6.3,4.1-9.7,4.9c-0.5,0.1-1.1,0-1.6-0.3
	c-0.4-0.3-0.9-0.7-1.1-1c0,0-2-1.8-5-1.1c-0.1,0-0.2,0-0.2,0c-0.6,0-3.5,0.1-4.6-0.9c-0.1-0.1-0.2-0.3-0.3-0.4
	c-0.1-0.5-0.5-1.6-1.2-0.5c0,0-0.2-0.1-0.3,0c0,0-0.1,0.1-0.1,0.1C12,16,9.3,16.6,8.8,17.3c-0.1,0.1-0.1,0.1-0.2,0.2l-2.5,1.5
	c0,0-0.9,0.3-0.4,1.2c0,0.1,0,0.2,0,0.2c0,0.2-0.1,0.6,0.2,0.9C6,21.3,6,21.4,6.1,21.4c0.1,0.4,0.4,1.5,1.8,1.1c0,0,2-0.6,3.3,0.1
	l3.7,1.5c0.1,0.1,0.2,0.2,0.1,0.4c-0.3,0.5-1.1,1.4-2.3,1.4c0,0-3.6,0.3-4.7,0.1c0,0-1.3,0-2.1,0.3c0,0-0.1,0-0.1,0
	c-0.3,0-1.6,0.1-2.5-0.6c0,0-0.1-0.1-0.1-0.1c-0.2-0.3-0.9-1.4-2-1.1c0,0-0.7,0-0.7,0.3c0,0,0.3-0.2,0.5-0.1c0,0-0.6,0.3-0.6,0.5
	c0,0-0.1,0-0.2,0.1c0,0,0.1-0.1,0.2-0.1c0,0-0.3,0.1-0.3,0.4c0,0,0,0.5,0.2,0.7c0,0-0.1,0-0.2,0.1c0,0,0.1-0.1,0.2,0
	c0,0-0.2,1.1,0.4,1.3c0.1,0,0.2,0.1,0.3,0.2c0.1,0.3,0.4,0.7,0.9,0.7c0,0,3.5-0.2,3.4,0.7c0,0,0.2,0.5,0.9-0.1
	c0.1-0.1,0.3-0.2,0.4-0.1c1.1,0,5.4,0.1,6.4,0.5c0,0-0.9,0.8-1.6,1.1c0,0-0.1,0-0.1,0C11,31,9.1,31.4,8.5,31.6
	c-0.1,0-0.2,0.1-0.3,0.1c-0.4,0.1-1.6,0.4-1.6,1.3c0,0-0.2,0.5,0,0.7c0,0,0-0.3,0.1-0.5c0,0,0,0.8,0.3,0.7c0,0,0.8,0.3,1.4,0
	c0.1,0,0.2-0.1,0.3-0.1c0.3,0,1-0.1,1.4-0.4c0.1-0.1,0.2-0.1,0.3-0.2c0.4-0.2,1.3-0.5,1.5-0.2c0,0,0.3,0.5,0.8,0
	c0.1-0.1,0.2-0.2,0.3-0.2c0.7-0.4,3.5-1.7,5-2.1c0,0,1.3-0.4,2.1-0.7c0.5-0.2,0.9-0.2,1.4-0.1c1.6,0.3,5.2,0.8,8.5,0
	c0,0,4.7-0.9,6.8-4.1c0.1-0.2,0.5-0.3,0.7,0c0.2,0.2,0.4,0.5,0.8,0.6c0,0,0.7,0.7,0.3,1.8c0,0-0.6,1.8-1.5,2.1c0,0-1.1-0.2-1.3,0.9
	c0,0-0.2,0.7,0.3,0.8c0,0,0.5,0.2,0.8,0.2c0,0,0.8,0.4,1,0c0,0,0.7,0.2,1-0.5l2.3-4.1c0,0,0.1-0.4,0.1-0.8c0-0.1,0.1-0.1,0.1-0.1
	c0.8,0.4,3.4,2,4.4,4.2c0,0-1.2-0.1-1.4,0.9c0,0-0.3,0.3,0,0.7c0,0,0,0.1,0.3,0.2c0,0,0,0.3,0.6,0.2c0,0,0.5,0.5,0.9,0.1
	c0,0,0.6,0.4,1,0c0,0,0.6,0.1,0.6-0.4C47.6,32.8,48.3,32.3,47.9,31.1z M9.2,18.1c0,0,0.4-1,0.9-0.1C10.1,18,9.4,18.3,9.2,18.1z
	 M43.1,18.6l0.7,2.3l-0.6-0.7L43.1,18.6z"/>
</svg>
