<?xml version="1.0" encoding="utf-8"?>
<!-- Generator: Adobe Illustrator 19.1.0, SVG Export Plug-In . SVG Version: 6.00 Build 0)  -->
<svg version="1.1" id="Layer_1" xmlns="http://www.w3.org/2000/svg" xmlns:xlink="http://www.w3.org/1999/xlink" x="0px" y="0px"
	 viewBox="0 0 48 48" style="enable-background:new 0 0 48 48;" xml:space="preserve">
<style type="text/css">
	.st0{fill:#808080;}
</style>
<path class="st0" d="M46.5,28.9c0,0-1.1-0.2-1.1,1.8c0,0.3-0.2,0.6-0.4,0.8c-0.6,0.5-1.8,1.4-2.8,1.1c-0.4-0.1-0.7-0.4-0.9-0.7
	c-0.5-0.8-1.9-3.1-1.8-5.5l0.1-13.3c0,0-0.1-12.8-13.2-6c-0.3,0.2-0.8,0.2-1.1,0c-1.3-0.6-4.7-2.1-6.7-2.5c-0.1,0-0.2-0.1-0.2-0.2
	c0-0.5-0.3-1.6-2.3-1.3c-0.1,0-0.2-0.1-0.2-0.2c0.1-0.6-0.1-1.8-3.1-0.9c-0.2,0-0.3,0.1-0.5,0.1C11.1,2,6.3,1.7,5,2.8
	c0,0-2.2,1.4-3.3,1.7c-0.2,0-0.3,0.1-0.4,0.2c-0.6,0.3-2,1.2-1,2.5C0.3,7.2,0,9.2,3,10c0.2,0.1,0.5,0.1,0.8,0.1c0.3,0,0.7,0,0.7,0.1
	c0,0-0.3,1.3-0.9,1.2c0,0-0.4-0.2-0.5,0.1c0,0-0.5-0.3-0.6-0.8c0,0-0.1,0.1-0.1,0.4c0,0-0.4-0.3-0.4-0.5c0,0-0.3,0.8,0.3,1.5
	c0,0-0.6,0.2,0,1.6c0,0,0.6,1.5,2.4,0.3c0,0,3.2-2.1,4.8-0.9c0.2,0.2,0.4,0.3,0.7,0.4c0.9,0.5,2.6,1.6,3.6,2.3
	c0.4,0.3,0.7,0.8,0.7,1.3c0.2,1.6,0.8,5.7,2.9,8.9c0.4,0.6,0.6,1.2,0.8,1.9c0.1,0.6,0.2,1.4,0.4,1.9c0.2,0.7,0.1,1.5-0.2,2.2
	c-0.7,1.9-2.1,5.5-2.6,7.6c-0.2,0.9-0.6,1.7-1.3,2.4c-1.3,1.3-2.9,3.5-1.1,4c0,0,1.3,0.5,1.6,0c0,0,2.6,0.6,2.8-0.1
	c0,0,1.9,0.8,1.6-1.8c0-0.2,0-0.4,0.1-0.6l1.6-5.2c0.1-0.4,0.6-0.4,0.8-0.1c0.2,0.3,0.3,0.8,0.2,1.4c0,0,0,2.9,1.6,2.8
	c0,0,4.3,0.6,3.6-2.9c0,0,0.1-3.1-3.3-3.4c0,0-0.8,0-0.4-2c0.1-0.4,0.1-0.8,0.1-1.2c-0.1-1.5,0-5.2,2.6-6.3c0.4-0.2,0.9,0,1.1,0.4
	c0.3,0.6,0.8,1.6,1.4,2.3c0.3,0.4,0.6,0.8,0.7,1.3c0.4,1.3,1,4,0.3,5.3c0,0-1.4,3.3,0.3,4.1c0,0,2,1,3.1-1.3c0,0,0.6-1-0.1-3.5
	c0,0-0.1-4.8-1.1-6.3c0,0-0.8-1.7-0.7-3.2c0-0.5,0.3-0.9,0.7-1.2l1.2-0.9c0.4-0.3,0.9-0.1,1,0.4c0.6,2.4,1.9,8.6,1,11l-0.7,2.5
	c-0.1,0.3-0.3,0.5-0.5,0.6c-0.4,0.2-0.9,0.6-0.9,1.6c0,0-0.2,1,1.3,1c0,0,3.5,0.2,3.6-0.7c0,0-0.3-2.4,0.3-3.7
	c0.6-1.3,0.2-3.4,0.2-3.4s3.3,6,8.6,0.7C47.2,33.7,49.4,31,46.5,28.9z M6.1,4.5C6,4.8,6,4.5,6.1,4.5l0-0.6c0,0,0.5-0.7,1,0
	C7.1,4,6.2,4.3,6.1,4.5z"/>
</svg>
