<?xml version="1.0" encoding="utf-8"?>
<!-- Generator: Adobe Illustrator 19.1.0, SVG Export Plug-In . SVG Version: 6.00 Build 0)  -->
<svg version="1.1" id="Layer_1" xmlns="http://www.w3.org/2000/svg" xmlns:xlink="http://www.w3.org/1999/xlink" x="0px" y="0px"
	 viewBox="0 0 48 48" style="enable-background:new 0 0 48 48;" xml:space="preserve">
<style type="text/css">
	.st0{fill:#808080;}
</style>
<path class="st0" d="M46.4,7.6c0-0.1-0.1-0.3-0.2-0.4C46.1,7.1,46,7,46,6.9c-0.2-0.6-0.8-2.2-1.6-2.1c-0.1,0-0.2-0.1-0.2-0.2
	c-0.1-0.8-0.4-3.6-2.4-4.1c0,0-1.2-0.3-0.8,0.6c0,0,0.9,2.6,0.2,2.9c-0.1,0-0.1,0-0.2,0.1c-0.8,0.3-4,1.9-4.5,6.5
	c0,0,0.3,0.4-0.7,1.7l-0.2,0.3c-0.3,0.4-0.9,0.4-1.3,0.1c-2.1-1.6-3.4-5.9-16.7-3C12.4,10.8,7,16.9,5.8,19.9
	c-0.7,1.8-1.3,2.2-1.8,3.7c-0.5,1.6-2.2,4.3-2.8,4.8c-0.6,0.5-1.4,1.2-1.1,1.7c0,0,0.4,0.2,0.7,0C0.8,30,1,30,1.1,30.1
	c0.4,0.2,1.1,0.4,1.8,0.5c0.2,0,0.2,0.2,0.2,0.3c-0.3,0.4-0.6,1,0.3,0.7c0.1,0,0.3,0.1,0.2,0.2c-0.1,0.2-0.1,0.5,0,0.6
	c0,0,1.1-0.2,1.9-0.8c0.3-0.2,0.7-0.3,1.1-0.3c1,0.1,2.8,0.3,4.8-0.4c0.3-0.1,0.6-0.1,0.9,0.1c0.9,0.5,3,1.6,4.8,1.6
	c0.2,0,0.4,0.2,0.4,0.4c0,0.2,0.1,0.5,0.1,0.7c0.1,0.4,0.2,0.7,0.2,1.1c0,0.4,0.1,1,0.2,1.4c0,0,0.1,3.7-0.2,4.6
	c0,0.1-0.1,0.2-0.1,0.3c-0.1,0.3-0.3,1-1.4,1.7c0,0-1.7,0.7-0.6,1.7c0,0-0.1-0.7,0.3-0.8c0,0,0.3,0.4,1.1-0.5c0,0,0.2,0,0.1,0.4
	c0,0-0.2,1-0.8,1.4c0,0-1.2,0.7-1.3,1.1c0,0,0.2-0.1,0.1,0.1c0,0,0.1,0.1,0.4,0c0,0,0.2-0.1,0.4,0c0,0,0.2,0.2,0.7-0.4
	c0.1-0.1,0.1-0.1,0.2-0.1c0.2,0,0.4-0.1,0.5-0.3c0-0.1,0.1-0.1,0.2-0.2c0.2-0.1,0.6-0.3,0.9-0.2c0.2,0,0.4,0.2,0.5,0.4
	c0,0.2,0.1,0.5,0.5,0.6c0,0-0.7,0.4-0.5,0.9l0.3-0.1c0.1,0,0.2,0,0.2,0c0.2,0.1,0.6,0.2,1.4-0.1c0,0,1.3-0.7,2.1-0.6
	c0.2,0,0.4,0.1,0.5,0.3c0.1,0.2,0.4,0.6,1.2,0.6c0,0,1.8,0.6,2.2,0.1c0,0,0.1-0.1,0.1,0c0.1,0,0.3,0.2,0.5,0.4c0,0,0.2-0.2,0-0.6
	c0,0,0-0.1,0-0.1c0.1-0.1,0.2-0.2,0.2-0.4c0,0,0-0.1,0.1-0.1c0.3,0,1.2,0.2,1.6,0.5c0,0-0.3-1.3-2.7-1.1c0,0-2.6,0.3-3.7-3.2
	l-1.6-3.8c-0.2-0.6-0.3-1.2-0.3-1.8c0-0.5,0-1.2-0.3-1.8c0-0.1,0-0.2,0.1-0.2c0.3,0,1,0,1.4-0.1c0,0-0.9-0.3-1.1-0.7
	c-0.1-0.1,0-0.3,0.2-0.3l2.2-0.1c0,0-0.8-0.5-0.4-1c0.1-0.1,0.3-0.2,0.4-0.2c0.9-0.1,4.9-0.9,8.4-3.9c0,0,6.7-4.5,7.2-12.8
	c0-0.2,0.2-0.2,0.3-0.1c0.4,0.3,1.2,0.7,1.9-0.1c0.3-0.3,0.4-0.7,0.5-1.2c0.1-0.6,0.3-1.6,1-2.2c0,0,0.5-0.5,1.2-0.8
	c0.2-0.1,0.5-0.1,0.7,0.1l2.1,1.3c0,0,0.4-1-1.2-2.4c-0.1-0.1-0.2-0.3-0.2-0.5l0,0c0-0.1,0.1-0.2,0.2-0.1c0.4,0.2,1.5,0.7,2.1,1.7
	c0,0,0.7-1.3-1.2-3.4C46.5,7.9,46.5,7.7,46.4,7.6z M21.3,44.4c-0.1,0.6-1.1-0.6-1.1-0.6c-0.9-1-0.8-5.4-0.8-5.4
	C20.3,38.3,21.3,44.4,21.3,44.4z M41.9,7.7c-0.4,0-0.8-0.3-0.8-0.6c0-0.3,0.3-0.6,0.8-0.6s0.8,0.3,0.8,0.6
	C42.7,7.4,42.4,7.7,41.9,7.7z"/>
</svg>
