<?xml version="1.0" encoding="utf-8"?>
<!-- Generator: Adobe Illustrator 19.1.0, SVG Export Plug-In . SVG Version: 6.00 Build 0)  -->
<svg version="1.1" id="Layer_1" xmlns="http://www.w3.org/2000/svg" xmlns:xlink="http://www.w3.org/1999/xlink" x="0px" y="0px"
	 viewBox="0 0 48 48" style="enable-background:new 0 0 48 48;" xml:space="preserve">
<style type="text/css">
	.st0{fill:#808080;}
</style>
<path class="st0" d="M16,21.2c-0.9-0.4-3.7-1.7-4.6-1.6c-0.1,0-0.2,0-0.3,0.1c-0.5,0.2-2.9,1.5-2.6,2.1l0.7,0.8l-1.8-0.1
	c-0.3,0-0.6-0.1-0.8-0.2c-1.2-0.5-5-2.1-6.3-2c-0.2,0-0.4,0.2-0.3,0.5c0.1,0.3,0.2,0.7,0.1,1c0,0,0,1,0.2,1.6c0.1,0.3,0.1,0.5,0,0.8
	c-0.2,1-0.6,3,0.1,3.6c0.1,0.1,0.3,0.1,0.4,0.1c0.8-0.3,5-2,6-2.7C7,25,7.2,24.9,7.4,24.9l1.2,0c0.3,0,0.6,0.2,0.7,0.5
	c0.2,0.9,0.9,2.7,2,2.8c0,0,3.7-0.7,4.7-1.7c0,0,0.6-0.1,0.5,0.3c0,0,0.8,3,1.7,3.9c0.2,0.2,0.4,0.2,0.7,0.2c1-0.3,5.1-1.4,6-1.9
	C25,29,25.2,29,25.3,29c1.3,0.3,7.1,1.3,10.2-0.4c0,0-0.4,0.6-1.4,1.2c-0.1,0.1-0.2,0.1-0.2,0.2c0,0.2,0,0.4,0.1,0.8
	c0,0,0.3,1.3,0.4,2c0,0.1,0.2,0.2,0.2,0.1c0.6-0.8,2.1-2.9,2.3-4.2c0-0.1,0.1-0.2,0.2-0.2c1.3-0.2,8.8-1.7,10.3-3.4
	c0,0,0.3-0.4-0.3-0.3l0.7-0.6c0,0,1-0.7-4.4-2.9c0,0-6.2-2.3-9.2-2.7c-0.1,0-0.3-0.1-0.4-0.2c-0.9-0.8-4.7-4.1-6.9-3.3
	c0,0-1.7,0.6,0.4,3.1c0.1,0.1,0,0.3-0.1,0.4l-0.5,0c-0.1,0-0.2,0-0.3-0.1c-0.7-0.4-4.4-2.5-5.3-1.9c0,0-4.7,2.9-4.2,3.3l0.5,0.5
	c0.1,0.1,0.1,0.4-0.1,0.4 M42.6,23.9c-0.6,0-1-0.4-1-0.9c0-0.5,0.5-0.9,1-0.9c0.6,0,1,0.4,1,0.9C43.7,23.4,43.2,23.9,42.6,23.9z"/>
</svg>
