<?xml version="1.0" encoding="utf-8"?>
<!-- Generator: Adobe Illustrator 19.1.0, SVG Export Plug-In . SVG Version: 6.00 Build 0)  -->
<svg version="1.1" id="Layer_1" xmlns="http://www.w3.org/2000/svg" xmlns:xlink="http://www.w3.org/1999/xlink" x="0px" y="0px"
	 viewBox="0 0 48 48" style="enable-background:new 0 0 48 48;" xml:space="preserve">
<style type="text/css">
	.st0{fill:#808080;}
</style>
<path class="st0" d="M48,14.5c0,0-1-0.7-6.1,7.3c-0.1,0.1-0.2,0.3-0.4,0.3c-0.2,0.1-0.6,0.1-0.9-0.1l-1.1-1c-0.1-0.1-0.2-0.1-0.2,0
	l-0.4,0.4c-0.1,0.1-0.1,0.1-0.2,0.1c-0.5,0.1-1.9,0.2-2.1-0.6c0-0.1-0.1-0.2-0.2-0.2c-0.3,0-0.8,0-0.2-0.5c0,0,0.5-1.1-0.6-1.1
	c0,0-0.3-0.1,0.1-0.5c0,0,0.5-2.4-0.1-2.6c0,0-1.6,1.3-1.7,0.3l0.3-0.6c0-0.1,0-0.2-0.1-0.2c-0.4,0.1-1.3,0.1-0.6-0.6
	c0.1-0.1,0.1-0.2,0-0.2c-0.2-0.1-0.5-0.5,0-1c0.1-0.1,0-0.2-0.1-0.2c-0.5-0.1-1.7-0.3-2.2,0c0,0-0.2-0.7-0.9-0.6c0,0,0-1-1.3-0.7
	c0,0-0.4-0.5-1.4-0.3c0,0-1.3,0.2-1.5-0.2c0-0.1-0.1-0.1-0.2-0.1c-0.3,0.1-0.8,0.1-1.1-0.3c0,0-1.8-0.8-2-1.4c0-0.1-0.1-0.1-0.2-0.1
	c-0.3,0.1-0.8,0.1-0.9-0.3c0-0.1-0.1-0.1-0.1-0.2c-0.2-0.1-0.6-0.5-0.6-1c0-0.1,0-0.2-0.1-0.2c-0.1-0.1-0.3-0.1-0.6,0.4
	c0,0-0.3-1.5-0.7,0.2c0,0-2.5,7.9-2.7,10.5c0,0.2-0.1,0.5-0.3,0.6c-0.8,0.6-2.8,2-4.9,2.1c0,0-3.6,0.5-11.5-0.6c0,0,0.3,0.2,1.7,0.4
	c0,0,8.8,1.1,8.3,1.4l-1.9,0c0,0-0.1,0,0,0.1c0.2,0.1,0.7,0.4,1.4,0.7c0.1,0,0.3,0.1,0.4,0.2c0.6,0.3,2.3,1.2,3.1,1.8
	c0.3,0.2,0.7,0.4,1,0.6c0.9,0.4,2.6,1,4.6,1.3c0.1,0,0.2,0.1,0.2,0.2c0.1,0.9,0.8,4.4,2.6,5.4c0.1,0,0.1,0,0.1-0.1
	c-0.2-0.8-1.1-3.9-1-4.5c0,0,5,10.2,9,11.6c0.1,0,0.2-0.1,0.1-0.1l-1.1-1c-0.1-0.1-0.1-0.1-0.1-0.2c-0.1-0.3-0.3-0.9-0.8-1.2
	c-0.1-0.1-0.2-0.1-0.3-0.2c-0.4-0.7-2.1-3.2-2.3-3.7c0,0,1.5,1.6,2.8,1.8c0.1,0,0.2-0.1,0.1-0.2c-0.6-0.5-2.4-2-2.9-2.9
	c0,0-2.9-3.4-3.7-4.4c-0.1-0.1,0-0.2,0.1-0.2c1.8-0.1,10.9-0.6,12.6-1c0.2,0,0.3,0,0.4,0.2l1,2.1c0,0,0.4-1,0.4-2.2
	c0-0.2,0.1-0.4,0.2-0.6c0.4-0.5,1.4-1.5,3.1-1.3c0.1,0,0.3,0,0.4-0.1l1.6-1.1c0.1-0.1,0.3-0.1,0.4,0.1c0.7,1.2,3.8,6.3,5.2,7
	c0.1,0,0.1,0,0.1-0.1c-0.5-1-3.2-6-3.2-7.5c0-0.1,0-0.2,0.1-0.2c0.1-0.1,0.2-0.5,0.1-1.1c0-0.1,0-0.2,0-0.4
	C44.4,20.7,46.9,15.4,48,14.5z M13.1,23.8c-0.2,0-0.4-0.2-0.4-0.3c0-0.2,0.2-0.3,0.4-0.3c0.2,0,0.4,0.2,0.4,0.3
	C13.5,23.7,13.3,23.8,13.1,23.8z"/>
</svg>
