<?xml version="1.0" encoding="utf-8"?>
<!-- Generator: Adobe Illustrator 19.1.0, SVG Export Plug-In . SVG Version: 6.00 Build 0)  -->
<svg version="1.1" id="Layer_1" xmlns="http://www.w3.org/2000/svg" xmlns:xlink="http://www.w3.org/1999/xlink" x="0px" y="0px"
	 viewBox="0 0 48 48" style="enable-background:new 0 0 48 48;" xml:space="preserve">
<style type="text/css">
	.st0{fill:#808080;}
</style>
<g>
	<path class="st0" d="M47.3,32.7c0,0,0.2-1-1.4-0.9c0,0-1.5-0.2-2.7-2.4c0,0-1-1.8-2.2-2.8c0,0-2.6-2.4-2.8-2.9c0,0-0.6-0.8,0.3-1.4
		c0,0,0.1,0,0.1-0.1c0.1,0,0.3-0.3,0.8-1.8c0,0,1.9-3.6,1.8-4c0,0-3.5,2.9-4.5,4.9c0,0-0.2-2.3-0.1-3.4c0-0.1,0-0.3,0-0.4
		c-0.2-0.6-0.7-2.1-1.5-2.6c-0.3-0.3-0.8-0.1-1.1,0.2c-0.5,0.8-1.3,2.5-1.3,4c0,0.2-0.2,0.2-0.3,0.1c-0.7-0.7-2.3-2.3-4.6-3.1
		c-0.5-0.2-1-0.4-1.4-0.7c-1.8-1.2-7-4.5-11.1-3.3c-0.2,0.1-0.4,0.1-0.6,0.1c-1.2,0.2-5.7,1.1-7.7,4.8c0,0-1.1,2.3-1.4,4.7
		c0,0-1.1,8.5-5.8,10.4c-0.1,0.1-0.1,0.2,0,0.3c0.4,0.1,1.1,0,2.3-0.7c0,0,2.2-1.3,5.4-6.8c0,0,0.8-1.7,1.7-0.6c0,0,1.3,1.2,0.5,3.4
		c0,0-1.1,2.5-0.9,3c0,0.1,0,0.2,0,0.2c-0.1,0.3-0.4,0.8,0,0.8c0,0,0.4-0.5,0.6-1c0-0.1,0.2-0.1,0.2,0c0.1,0.2,0.2,0.7,0.3,1.3
		c0,0.3,0.2,0.6,0.5,0.6c0.4,0.1,0.9,0.2,1.3,0c0.3-0.1,0.5,0,0.6,0.3c0.3,0.8,0.7,1.8,0.7-0.6c0,0,0.3,1,0.4,1.8
		c0,0.2,0.2,0.4,0.4,0.5c0.4,0.2,1,0.4,1.2,0.2v-0.3c0,0,2,0.3,2.2,0c0,0,0-0.3-0.1-0.4c0,0,0.7,0.1,0.8-0.1c0,0-0.2-1.1-1.4-1.2
		c-0.1,0-0.1,0-0.2-0.1c-0.3-0.4-1.6-1.8-1.8-3.1c-0.1-0.4,0.1-0.9,0.3-1.2c0.6-0.6,1.6-1.9,1.9-2.7c0-0.1,0.2-0.1,0.2-0.1
		c0.1,0.1,0.3,0.2,0.6,0.4l-0.2,0.6c0,0,0.2-0.3,0.4-0.5c0.1,0,0.1,0.1,0.2,0.1c0,0.1,0,0.2-0.1,0.3c0,0,0.3,0,0.4-0.2
		c0.1,0,0.1,0.1,0.2,0.1c0.1,0.2,0.2,0.5,0,0.8c0,0,0.5-0.2,0.5-0.5l0,0.9c0,0,0.3-0.6,0.5-0.8c0,0,0,0,0.1,0l-0.2,0.9
		c0,0,0.2-0.6,0.6-0.9c0,0,0,0,0.1,0c-0.2,0.3-0.4,0.8-0.3,1.1c0,0,0.5-0.7,0.9-1.2l0,0c0.1,0,0.1,0.1,0.1,0.1
		c-0.2,0.3-0.3,0.7-0.4,1.2c0,0,0.8-1.1,1.3-1.5c0,0,0,0,0,0.1c-0.3,0.4-1.1,1.6-1.2,2c0,0,0.7-1,1.3-1.6c0.1-0.1,0.1,0,0.2,0l0,0
		c-0.5,0.7-1.5,1.9-1.6,2.2c0,0,0.7-0.7,1.3-1.3c0.3-0.2,0.7-0.2,0.8,0.2c0,0,0,0.1,0.1,0.1c-0.3,0.6-0.9,1.1-2.2,1.2
		c0,0,1.1,0.3,2.6,0c0,0,0,0,0,0c-0.3,0.2-1.4,0.6-1.8,0.6c0.3,0,1.2,0.1,1.9-0.1c0,0,0,0,0,0.1c-0.4,0.2-1.3,0.7-1.8,0.7
		c0,0,0.7,0.2,1.7,0.1c0,0,0,0,0,0c-0.4,0.1-1,0.4-1.2,0.7c0,0,0.5-0.2,1.1-0.4c0,0.1,0,0.1-0.1,0.2c0,0.1-0.1,0.1-0.1,0.2
		c-0.3,0.1-0.6,0.3-0.7,0.6c0,0,0.1,0,0.2-0.1c0.2-0.1,0.5,0.1,0.4,0.4c0,0.3,0,0.7,0.1,1c0,0.1,0.1,0.2,0,0.3c0,0.3,0,1.1,0.3,1
		c0,0,0.2,0,0.3-0.3c0,0,0.2-0.1,0.4,0.2c0,0,0.3,0.2,0.6,0.3c0.1,0,0.3,0.1,0.4,0.2c0.2,0.3,0.7,0.7,1.2,0.5c0,0,0.4-0.1,0.1-0.4
		c0,0,1,0.5,1.3,0.1c0,0,0.2-0.3-0.5-0.8c0,0-0.3-0.8-0.9-0.9c0,0-1.7-1,0.5-4.1c0,0,0.5-1.2,1.2-1.6c0,0,0.1,0,0.1,0.1
		c-0.2,0.8-0.2,2.1,0.5,2.9c0,0-0.6-1.7-0.3-2.9c0-0.1,0.2-0.3,0.3-0.3c0,0,0,0,0,0c0,0.9,0,2.9,0.4,3.4c0,0-0.3-2-0.2-3.2
		c0-0.1,0.1-0.2,0.2-0.2l0,0c0,1-0.1,3,0.2,3.4c0,0-0.1-1.9,0.1-3.1c0-0.1,0.1-0.1,0.1-0.1l0,0c0,0,0,0.1,0.1,0.3
		c-0.1,1.1-0.3,2.9,0,3.3c0,0-0.1-1.2,0.1-2.4c0-0.2,0.3-0.3,0.4-0.1c0,0,0,0,0,0c-0.1,1.1-0.2,2.3,0.1,2.8c0,0,0-0.9,0.1-1.9
		c0-0.1,0.2-0.2,0.3-0.1c0.1,0.1,0.1,0.2,0.2,0.2c0.1,0.1,0.1,0.2,0.1,0.4c0,0.6-0.1,1.1-0.2,1.3c0-0.1,0.2-0.5,0.4-1
		c0.1,0,0,0,0.1,0c-0.1,0.7-0.1,1.4-0.1,1.8c0,0,0.3-0.7,0.6-1.1c0-0.1,0.1-0.1,0.2,0l0,0c-0.2,0.5-0.5,1.3-0.5,1.5
		c0,0,0.3-0.6,0.7-1c0.1-0.1,0.2-0.1,0.4,0l0,0c-0.2,0.7-0.5,2.2,0,2.8c0,0-0.1-1.2,0.6-1.7c0,0-0.6,1.4-0.2,1.8
		c0,0,0.1-1.3,0.4-1.7c0,0,0,0,0,0c-0.1,0.4-0.5,1.5-0.2,1.8c0,0,0-1.1,0.2-1.7c0,0,0,0,0,0c0.1,0.1,0.2,0.3,0.2,0.4
		c0,0.5,0,1.1,0.3,1.3c0,0-0.3-0.9-0.2-1.5c0,0,0,0,0,0c0.1,0.1,0.1,0.2,0.2,0.3c0,0.2,0.1,0.5,0.2,0.7c0,0,0-0.1-0.1-0.2
		c0-0.2,0.2-0.3,0.3-0.2c0,0,0.1,0,0.1,0.1c0.1,0.1,0.1,0.2,0.1,0.2c-0.2,0.3-0.3,1.2,2.2,1.4c0,0,0.2,0,0.3-0.1
		c0.1-0.1,0.2-0.1,0.3-0.1c0.4,0.2,1,0.4,1.1,0.1c0,0,0.4-0.2,0-0.4l-0.8-0.6c0,0-0.2-1-1.2-1c-0.1,0-0.2,0-0.2-0.1
		c-0.4-0.3-2-1.3-2-3.6c0-0.1,0-0.3-0.1-0.4c-0.1-0.5-0.4-1.5,0.2-1.2l9.4,5.4c0.2,0.1,0.4,0.3,0.5,0.4c0.4,0.5,1.5,1.7,3.6,1.2
		c0.2,0,0.3-0.1,0.4-0.3C48,35,48.4,33.9,47.3,32.7z M12.5,31.5c-1.7-0.7-0.5-2.8-0.5-2.8C12.9,29.8,12.5,31.5,12.5,31.5z
		 M38.4,27.7c0,0,1.3-0.6,1.5,0.7C39.9,28.4,38.6,28.8,38.4,27.7z"/>
	<path class="st0" d="M21.2,30.2c-0.1,0-0.1,0-0.1,0C21.1,30.2,21.2,30.2,21.2,30.2z"/>
</g>
</svg>
