<?xml version="1.0" encoding="utf-8"?>
<!-- Generator: Adobe Illustrator 19.1.0, SVG Export Plug-In . SVG Version: 6.00 Build 0)  -->
<svg version="1.1" id="Layer_1" xmlns="http://www.w3.org/2000/svg" xmlns:xlink="http://www.w3.org/1999/xlink" x="0px" y="0px"
	 viewBox="0 0 48 48" style="enable-background:new 0 0 48 48;" xml:space="preserve">
<style type="text/css">
	.st0{fill:#808080;}
</style>
<path class="st0" d="M47.6,17.5c0,0-1.2-1-2.2-1.5c-0.4-0.2-0.8-0.5-1.1-0.9c-0.1-0.2-0.3-0.3-0.3-0.5c0,0,0-0.1,0-0.1
	c-0.1-0.3-0.7-2.6-3.1-3.7c0,0-3.6-1.3-5.4,0.5c-0.1,0.1-0.1,0.1-0.1,0.2c-0.3,0.5-2.1,2.9-4.7,4.7c-0.1,0.1-0.2,0.2-0.3,0.3
	c-0.6,0.5-3.2,2.5-10.3,2.8c0,0-5.9,0-8.4,0.6c-0.2,0-0.4,0.1-0.7,0.1c-0.8,0-2.3-0.3-3.8-1.8c0,0-3.1-2.8-4.3-4.2
	c0,0-1.8-2.3-2.8-2.6c-0.1,0-0.2,0-0.2,0.1c0,0.4,0.2,1.4,1.2,2.6c0,0,4,5.6,5.2,6.5c0,0,0.5,0.3,0.3,0.8c-0.1,0.2-0.1,0.3-0.1,0.5
	c0,0.2,0,0.4-0.1,0.7c0,0.2-0.1,0.3-0.1,0.4c-0.3,0.5-1,1.8-0.6,3c0,0.1,0,0.3,0,0.4C5.6,26.8,5.3,27.7,4,28c-0.1,0-0.2,0-0.3,0
	c-0.5,0-2.1,0.2-1.9,1.9c0,0,0.2,2.8,0,4.5c0,0,0.1,1.9,1.1,2.1c0.1,0,0.1,0,0.2,0.1c0.1,0.2,0.6,0.6,1.4,0.3c0,0,0.7-1.2,0-1.9
	c-0.1-0.1-0.1-0.2-0.2-0.3c-0.2-0.9-0.8-4.4,3.9-4.2c0,0-2.1,1.7-0.3,3.2C7.9,33.9,8,34,8,34c0.4,0.5,2.1,2.5,3.2,2.6l3,0.1
	c0,0,0.2-0.2,0.3,0c0,0,0.4-0.1-0.1-0.5c0,0-0.5-1.3-1.4-1.1c0,0-0.7,0.3-1.3-0.4c0,0-1.8-1.2-1.1-2.3c0,0,0.6-2.1,1.9-2.9
	c0.1,0,0.1,0,0.2,0c0.3,0.2,1.6,0.9,5.4,0.9c0,0,5.7,0.4,6.8,0.2c0.1,0,0.1,0,0.1,0.1c0.1,0.7,0.5,3.4,0.8,4c0,0-0.1,0.8,0.3,0.6
	c0.1,0,0.3,0,0.4,0.1c0.3,0.4,0.8,1.1,1,1.6c0,0.1,0.2,0.2,0.3,0.2c0.9,0.1,4.4,0.5,4.2-0.2c0,0,0.3-0.1,0.5,0.3
	c0,0-0.1-0.8-1.4-1.4c0,0-0.7,0.1-1.2-0.4c0,0-1.1-0.4-0.9-2.5c0,0-0.6-3-0.2-3.5c0,0,0.8-0.7,1.4,0c0,0,1.2,0.9,1.3,1.3
	c0,0-0.1,0.7,0.3,0.6c0,0-0.4,0.5-0.2,0.7c0,0-0.8,0.6-0.2,1.3c0,0-0.8,1.9,0.4,2.1c0,0-0.1,0.2-0.4,0.2c0,0,0.4,0.2,0.8-0.3
	c0,0,1.7-1.7,1.8-3c0-0.2,0-0.3,0.1-0.5c0.3-0.7,0.8-2.6,0-3.7l-1.1-1.3c-0.2-0.2-0.2-0.5,0-0.7c0.7-0.7,2-2.4,1.7-3.2
	c-0.1-0.1-0.1-0.3,0-0.4c0.4-0.8,1.9-3.5,4.7-2.9l4.5,1.2c0,0,1.2,0.6,2.2-0.5c0,0,0.8-0.8,0.1-0.9c0,0,0.8-0.2,1.3-0.8
	c0.1-0.2,0.2-0.3,0.4-0.5C48,18.5,48.2,17.9,47.6,17.5z M42.2,15.4c0,0,0.6-1,1-0.5C43.2,14.9,43.2,16.3,42.2,15.4z"/>
</svg>
