<?xml version="1.0" encoding="utf-8"?>
<!-- Generator: Adobe Illustrator 19.1.0, SVG Export Plug-In . SVG Version: 6.00 Build 0)  -->
<svg version="1.1" id="Layer_1" xmlns="http://www.w3.org/2000/svg" xmlns:xlink="http://www.w3.org/1999/xlink" x="0px" y="0px"
	 viewBox="0 0 48 48" style="enable-background:new 0 0 48 48;" xml:space="preserve">
<style type="text/css">
	.st0{fill:#808080;}
</style>
<path class="st0" d="M31,10.6c0,0-16.6-1.4-21.6-0.9c0,0-10,0.1-9,13.3c0,0-1.7,3.2,2.3,7.9l0.2,5.9c0,0,1.4,2.3,1.9,2.4
	c0.5,0.1,2.3,0.1,2.3,0.1s0.1-2-1.1-3l-0.5-5.7L8,38.2c0,0,0,1.4,1.1,1.4l0.1,1.1c0,0,5.2,1.4,2-2.5l-2-5.1c0,0-0.4-2.8,0.5-4.1
	l1.7-3.9c0,0,2.7,5,18.2,1.2l1.6,4.1c0,0-0.1,3.9-0.3,5.2s1.2,4,2.2,4.4c1,0.4,4.7,1.1,2.4-1.7s-1.6-4.9-1.6-4.9l0.2-5.2
	c0,0-0.1-1.9,2.6-2.6c2.6-0.6,2.9-4.2,2.9-4.4c-0.1-0.2,3.2-3.4,3.1-10.4c0,0,4.3,2.5,5.4,0.5c0,0,0.1-0.6-1.3-0.5
	c-1.4,0.1-0.2,0.1-0.2,0.1s-6.7-7.6-13.8-0.9C32.7,9.8,30.7,9.6,31,10.6z"/>
</svg>
