<?xml version="1.0" encoding="utf-8"?>
<!-- Generator: Adobe Illustrator 19.1.0, SVG Export Plug-In . SVG Version: 6.00 Build 0)  -->
<svg version="1.1" id="Layer_1" xmlns="http://www.w3.org/2000/svg" xmlns:xlink="http://www.w3.org/1999/xlink" x="0px" y="0px"
	 viewBox="0 0 48 48" style="enable-background:new 0 0 48 48;" xml:space="preserve">
<style type="text/css">
	.st0{fill:#808080;}
</style>
<path class="st0" d="M47.8,36.4c0,0-0.2-1.6-4.9-4.4c0,0-1.6-1.1-0.8-1.8c0,0,1.2-1.4,0.3-2.7c-0.2-0.3-0.2-0.6-0.1-1
	c0.2-0.7,0.5-1.9,0.5-2.9c0-0.5,0.3-1,0.7-1.3c0.3-0.2,0.6-0.6,0.2-1.1c0,0-1.2-4.5-6.9-5.1c0,0,4.9-0.1,4.9-1.8c0,0,0.7-5.2,2.2-9
	c0.1-0.3,0.3-0.7,0.5-1c0.3-0.7,1-2.1,0.5-2.3c0,0-1.4-2.2-8,0.3c0,0-8.9,3.3-11.1,13.6c0,0-0.4,0.2-0.2-0.3c0,0,0.1-1.1-0.6-1
	l-0.2-0.4c-0.6-0.6-0.4-2.5-0.4-2.5c-0.1-0.4,0.4-2.8,0.4-2.8C24.9,8.3,25,6,25,6c-0.1-0.7-0.7-1.3-0.7-1.3c0-0.4-0.3-0.4-0.3-0.4
	c-0.5,0.3,0.2,0.5,0.2,0.5c0.2,0.1,0.5,0.9,0.5,0.9C25.1,6.2,24.7,8,24.7,8c-0.7,4.9-0.8,5.8,0,6.8c-0.1,0-0.1,0.1-0.2,0.1
	c0,0-0.1,0-0.3,0c-0.1-0.6-0.4-1.5-0.9-2.2c-0.7-0.7-3.2-3.3-4-3.8c-0.6-0.4-0.9-2-0.9-2c0-0.5,0-0.7,0-0.7
	c-0.2-0.4-0.5,1.2,0.1,2.1c1.4,1.5,0.8,0.9,2.9,2.8l2,2.4L24,15c-0.4,0.2-0.7,0.5,0.3,1.4c0,0-17.3-10.2-24.1-1.7
	c-0.3,0.4-0.2,0.9,0.1,1.2c2,1.5,8,6.1,9,8.2c0,0,0.3,0.8,1.6,0.3l4.6-2.1c0,0-4,4.2-3.4,6.5c0.1,0.3,0.1,0.5,0.1,0.8
	c0,0.8,0.2,2.4,1.5,2.3c0.3,0,0.7,0.1,0.9,0.4c0.5,0.7,1.4,1.9,2.3,2.3c0.2,0.1,0.4,0.3,0.4,0.5c0.1,0.7,0.4,2.1,2.1,2.4
	c0.2,0,0.3,0.2,0.3,0.4c0,0.7-0.1,2.3-0.8,4.1c-0.2,0.6-0.3,1.2-0.4,1.8c-0.1,1.1,0,2.6,0.6,3c0,0,1.1,0.5,1.3-2.3
	c0,0-0.5-5.2,1.8-4.3c0.2,0.1,0.5,0,0.7-0.1c0.3-0.3,0.8-0.8,1.3-0.8c0.4-0.1,0.7-0.3,0.8-0.7c0.7-2,2.4-7.4,3.1-10.6
	c0-0.1,0.1-0.2,0.2-0.2c0.1-0.1,0.3-0.1,0.4,0.3c0,0.1,0.1,0.3,0.1,0.4c0.5,0.9,2.5,4.6,0.7-0.9c0,0,9.1,8,9.8,7.5
	c0,0,0.8-0.8,1.5-0.1c0,0,0.9,0.3,0.8-0.3c0-0.3,0-0.5,0.2-0.7c0.3-0.3,0.8-0.6,1.7,0.2c0,0,1.5,1,2.4,2.5c0.2,0.3,0.4,0.5,0.6,0.7
	C47.2,37.8,48.5,38.5,47.8,36.4z"/>
</svg>
