<?xml version="1.0" encoding="utf-8"?>
<!-- Generator: Adobe Illustrator 19.1.0, SVG Export Plug-In . SVG Version: 6.00 Build 0)  -->
<svg version="1.1" id="Layer_1" xmlns="http://www.w3.org/2000/svg" xmlns:xlink="http://www.w3.org/1999/xlink" x="0px" y="0px"
	 viewBox="0 0 48 48" style="enable-background:new 0 0 48 48;" xml:space="preserve">
<style type="text/css">
	.st0{fill:#808080;}
</style>
<path class="st0" d="M43.2,48c-0.5-1.4-5-13-8.6-19.7c0,0,2.4,0.7,4.3,3.7c0,0,0.1-1.4-1.1-2.9c0,0,2.3,0.5,3.1,2.1
	c0,0,0-0.7-0.4-1.1c0.1,0,0.5,0.3,1.2,1.4c0,0-0.3-2.1-3.1-4.1c0,0-3.7-3-4.5-4.3c0,0-0.2-2.1-4.8-8.1c0,0-1.7-4.6-7.1-7.2
	c-2.2-1.1-2.5-2.3-5.2-4.3c0,0-6.6-6.7-11.2-1.6c0,0-2,1.1-0.4,2.3c0,0-1.7,3.7,1.5,5c0,0-0.9-1.2-0.3-2.7c0,0,1-0.7,1.2-1.5
	c0,0,0.6-0.2,0.9,0.2c0,0-0.4,0.1-0.7,0c0,0,0,1.2-1.3,1.6c0,0,0.3,1.8,2.3,1.3c0,0,2.2,2.2,2.6,3.7c0,0,1.7,5.9,6.1,9.3
	c0,0,3.2,2.8,3.2,3.6c0,0-4,1-3.3,2.9c0-0.1,0-0.5,0.3-0.6c0,0,0.3,0.3,0.5,0c-0.2,0.3-1.1,2.1,0.5,2.2c0,0-0.3-0.1-0.1-0.5
	c0,0,0.6,0.1,0.5-1.5c0,0,1-0.2,1.3-1c0,0,0.7,0.4,1.1,0.9c0,0,1,0.9,0.9-0.3c0,0-0.3-0.9-0.8-1.1l0.1-0.5c0,0,1.5-0.2,2.3,0.9
	c0,0,1.3-0.5,2.3,1.3c0,0-0.6,1.1-2.4,1.3c0,0-2.6,1-1.7,2.2c0,0-0.1-0.4,0.2-0.7c0,0,0,0.4,0.6,0.2c0,0-1,2,0.5,2.3
	c0,0-0.5-0.4,0-0.8c0,0,0.5,0.2,0.3-1.1c0,0,0.3-1.1,1.4-1.1c0,0,0.2,1.3,1.7,1.2c0,0,0.7,0,0.1-1c0,0-1.5-0.9-0.2-1.7
	c0,0,1.5,0.6,1.6-1.2c0,0-0.4-1.5,0.5-1.2c0,0,9.9,18.1,11.6,19.4l-0.4-1.7C40.2,43.7,42.6,46.6,43.2,48z M8.2,3.1
	c0,0,0.4-2.2,2.5-1.1c0,0,0.6,0.5,1,0.2C11.8,2.2,10.1,6.2,8.2,3.1z"/>
</svg>
