<?xml version="1.0" encoding="utf-8"?>
<!-- Generator: Adobe Illustrator 19.1.0, SVG Export Plug-In . SVG Version: 6.00 Build 0)  -->
<svg version="1.1" id="Layer_1" xmlns="http://www.w3.org/2000/svg" xmlns:xlink="http://www.w3.org/1999/xlink" x="0px" y="0px"
	 viewBox="0 0 48 48" style="enable-background:new 0 0 48 48;" xml:space="preserve">
<style type="text/css">
	.st0{fill:#808080;}
</style>
<path class="st0" d="M25.6,20.6c0,0-7.2-1.3-9.5,3.6l-9.8,6.4c0,0-0.3,0.3,0.1,0.4c0.4,0.1,11-5.6,11-5.6s4-0.7,4.8,0.2
	c0,0,1.5,0.6,1.6,0.9c0.2,0.3,3.1,2.8,6.2,3.6l0.6,0.5l3,7l0.4,1.4c0,0,0.8,0.8,0.9-0.1c0.1-0.9-1-3.6-1-3.6l-1.2-2.5l2.4,4.2
	l1.3,1.9c0,0,1.2,0.6,0.9-0.5c-0.3-1.1-1.1-2.5-1.1-2.5l-2.3-3.4l4.6,5.2c0,0,1.7,0.6,1-0.9c-0.7-1.4-5-5.4-5-5.4l6.1,4.3
	c0,0,1.6,0.5,1.1-0.7c-0.5-1.3-7-4.8-7-4.8l6.3,3.1c0,0,1,0.2,0.5-0.8l-7-3.5l5.6,2.5c0,0,1.3,0.1,0.9-0.5c-0.4-0.6-7-3.2-7-3.2
	s-0.7-2.8-1.6-3.9l0.7-0.9l0.5-0.7l-0.4,0c0,0,0.9-0.7,0.9-0.9s-0.2-0.3-0.2-0.3s0.6-0.8,0.5-1.1s1.1-0.7,0.5-1.4
	c0,0,1.2-0.6,0.8-0.7c-0.3-0.2-0.3-0.3-0.3-0.3s1.1-0.8,1-1.1c-0.2-0.3-1.1-0.1-1.1-0.1s2-1.5,1.8-1.9s-0.3-0.4-0.3-0.4
	s0.9-1,0.7-1.3c-0.2-0.3-0.4-0.3-0.4-0.3s1.5-0.5,0.7-1.6c0,0,1.4-1.9,0.6-1.9c0,0-5.2,3.6-5.3,4.3L32.7,13l0.2-3.7
	C32.9,9.3,25.4,20,25.6,20.6z"/>
</svg>
