<?xml version="1.0" encoding="utf-8"?>
<!-- Generator: Adobe Illustrator 19.1.0, SVG Export Plug-In . SVG Version: 6.00 Build 0)  -->
<svg version="1.1" id="Layer_1" xmlns="http://www.w3.org/2000/svg" xmlns:xlink="http://www.w3.org/1999/xlink" x="0px" y="0px"
	 viewBox="0 0 48 48" style="enable-background:new 0 0 48 48;" xml:space="preserve">
<style type="text/css">
	.st0{fill:#808080;}
</style>
<path class="st0" d="M21.7,19.2C19.5,20.1,14,23,9.8,30.1c0,0-9,0.3-9.7,6c0,0-1.1,5.8,4,6.7l-1.4,1.6c0,0,8.3,0.5,10.3-0.3l-1-0.9
	c0,0,1.1-2.1,3.7-1.4c0,0,5.3,3.4,9.4,2.4c0,0-0.4,1.4,0.5,1.4c0.9,0.1,7.7,0.7,8.2,0.2s1.2-1.9,0.9-2.1c0,0,2.3-0.3,1.8-1.4
	c0,0-0.7-1.4,1.2-2.8c0,0,0.6-0.6,0.9-0.2c0.2,0.3,0.4,0.5,0.4,0.5s0.8,2.6,0,4.8c0,0-0.4,1,0,1.1c0,0,9,0.7,9,0.3
	c0-0.4,1-1.8-1-2.7c-2-0.9-1.6-1.3-1.4-1.8c0.2-0.5,0.6-18.2-7-30.6c-0.1-0.2-0.2-0.5-0.1-0.7c0.3-1.7,1-8.4-5.6-7.8
	c-0.1,0-0.2,0-0.3,0c-0.8-0.2-5.4-1.3-10.7,2c-0.1,0.1-0.3,0.1-0.4,0.1c-0.8,0-3.7,0.2-2.9,4c0,0-1.3,6.8,3.5,9.9
	C22.1,18.5,22,19,21.7,19.2z"/>
</svg>
