<?xml version="1.0" encoding="utf-8"?>
<!-- Generator: Adobe Illustrator 19.1.0, SVG Export Plug-In . SVG Version: 6.00 Build 0)  -->
<svg version="1.1" id="Layer_1" xmlns="http://www.w3.org/2000/svg" xmlns:xlink="http://www.w3.org/1999/xlink" x="0px" y="0px"
	 viewBox="0 0 48 48" style="enable-background:new 0 0 48 48;" xml:space="preserve">
<style type="text/css">
	.st0{fill:#808080;}
</style>
<path class="st0" d="M0,17.6l0.6,0.5c0,0-0.3,1.3,0.6,0.6c0,0,1.5-1,1.7,0.6l0,0.1c0,0,0,1.4-0.2,2.7c-0.2,1.1-1.7,1.3-2.3,0.4
	l-0.2-0.4c0,0-0.6,1.7,0.3,2.8c0.9,1.1,0.1,0.2,0.1,0.2s-0.6,1,0.2,1.5s0,0.1,0,0.1s3.4,0.6,3.9,0.4c0.5-0.2,1.6-0.2,1.4-0.9
	c-0.1-0.5,1.3-1,1.4-1c0.2,0,1.9,0.9,2.4,1.2c0.5,0.3,0.1,0,0.1,0s5.3,2.2,5.3,2.3c0.1,0.1,0.2,1.8,0.2,2.2c0,0,0,0.1,0,0.1
	c0,0.3-0.1,1.2,0,1.2c0.1,0.1-0.4,1-0.4,1s-1,1.1,1,1c0,0,1.8,0.2,1.9-0.5l0.9-2l0,1.6c0,0.2-0.1,0.5-0.2,0.7
	c-0.3,0.4-0.7,1.3,0.7,1.2c0,0,0,0,0.1,0c1.9-0.1,2.7-0.3,2.6-0.8c0-0.5,0,0,0,0s0.8-3.8,1.6-4c0,0,0.2-0.2,0.7-0.2
	c0,0,7.9,1,10.7-0.5c0,0,0.7-0.2,0.7,1.1c0,0-0.2,2.6-1,3.2c0,0-1.8,1.8,0.3,1.9c0,0,1.6-0.4,2.4-0.5c0.3,0,0.6-0.2,0.8-0.4
	c0.6-0.6,1.9-2,2.7-3.2c0.7-1.1,2.4-0.7,2.6,0.5c0,0.2,0.1,0.3,0.1,0.5c0.1,0.4-0.1,0.9-0.4,1.2c-0.2,0.2-0.3,0.5,0.6,0.8
	c1.6,0.5-0.1,0-0.1,0s2.9,0.4,3-1.2c0.1-1.4,1.4-4.3,0.6-5.7c-0.2-0.4-0.2-0.8,0-1.2c0.5-0.9,1-2.7,0.4-6.1c0-0.1,0-0.2-0.1-0.3
	c-0.7-1.5-7.2-13.9-32.3-6.5c-0.1,0-0.1,0-0.2,0c-0.4,0-2,0.2-2.9,0.4c-0.2,0.1-0.4,0-0.7,0c-0.5-0.2-1.7-0.3-3,0.6
	c0,0-0.7,1.2-2.2,0.1c0,0-1.4-1.6-2.7-0.7c0,0-1.6-1.4-3.3,1.5c-0.1,0.1-0.1,0.3-0.1,0.4L0,17.6z"/>
</svg>
