<?xml version="1.0" encoding="utf-8"?>
<!-- Generator: Adobe Illustrator 19.1.0, SVG Export Plug-In . SVG Version: 6.00 Build 0)  -->
<svg version="1.1" id="Layer_1" xmlns="http://www.w3.org/2000/svg" xmlns:xlink="http://www.w3.org/1999/xlink" x="0px" y="0px"
	 viewBox="0 0 48 48" style="enable-background:new 0 0 48 48;" xml:space="preserve">
<style type="text/css">
	.st0{fill:#808080;}
</style>
<path class="st0" d="M29.7,5.9c0,0-24.1-14.3-28.3,3c0,0-4,5.8,1.7,3.4c0,0,2.5-2,7-1.8c0,0,4.1,6.2,6.9,6.6c0,0,3.2,1.3,1.9-1.1
	c0,0-1.4-1.6-1.1-1.5c0,0,20.6,11.9,24.2,24.1l-0.7,5.6c0,0,4.2-1.5,6.7,3.3c0,0-0.2-6-2.4-8.3c0,0,0,0,0-0.1
	c0.1-0.5,0.8-6.3-0.4-8.5l-7.6-16.9c0,0-2.2-4.5,3.3-5.6C40.9,8.2,46.1,4.6,29.7,5.9z"/>
</svg>
