<?xml version="1.0" encoding="utf-8"?>
<!-- Generator: Adobe Illustrator 19.1.0, SVG Export Plug-In . SVG Version: 6.00 Build 0)  -->
<svg version="1.1" id="Layer_1" xmlns="http://www.w3.org/2000/svg" xmlns:xlink="http://www.w3.org/1999/xlink" x="0px" y="0px"
	 viewBox="0 0 48 48" style="enable-background:new 0 0 48 48;" xml:space="preserve">
<style type="text/css">
	.st0{fill:#808080;}
</style>
<path class="st0" d="M25.3,6.5c-0.5,0.5-1.2,0.8-1.9,0.8c-1.7,0-4.8-0.1-6.9-0.5c-3-0.6,0.1-2.6-5.5-0.3S5.4,7.3,4.8,9.7
	s-1.9,0.1-1.9,2c0,0-4.8,12.4-2,15.9c0,0,6,9,4.8,14c0,0-1.3,3.3,5.2,3.4c0,0,0.1,0,0.1-0.1c-0.4-0.7-3.1-5.1-1.9-8.1
	c0,0,0-0.4,0.1-0.4c0.7,0.6,6.7,6.4,15.3,2.1c0,0,0.1,0,0.1,0l0,3.3l0,0c0,0-0.6,2.7,0.3,3.2c0,0,0,0,0.1,0c0.9,0.6,3.6,0.5,4.2-0.1
	c0,0,0,0,0-0.1c-0.2-0.4-1.7-4.4-1.5-5.4c0,0,0-0.1,0.1,0c0.7,0.2,6.1,1.2,4.8-5.2c0-0.1,0-0.5,0-0.4c0.5,0.6,2.9,3.4,2.5,4.8
	c0,0,0.4,3.3-0.2,3.8c-0.6,0.5,0.7,2.1,1.2,2.3c0.5,0.3,3.5,0.3,3.9-0.2c0.8-1.2-3-3.4-2-6.8c0.4-1.2,7.9-3.2,5.1-6.3c0,0,0,0,0,0
	c-0.1-0.2-3.5-9.9-0.4-10.8c0,0,4.2-3.6,0.6-3.3c0,0,10.6-2.2,0.4-11.2c0,0-0.4,0.6-0.1,0.9c0.3,0.3,5.5,9-2.8,7.9
	C40,14.9,38.3-5.7,25.3,6.5z"/>
</svg>
