<?xml version="1.0" encoding="utf-8"?>
<!-- Generator: Adobe Illustrator 19.1.0, SVG Export Plug-In . SVG Version: 6.00 Build 0)  -->
<svg version="1.1" id="Layer_1" xmlns="http://www.w3.org/2000/svg" xmlns:xlink="http://www.w3.org/1999/xlink" x="0px" y="0px"
	 viewBox="0 0 48 48" style="enable-background:new 0 0 48 48;" xml:space="preserve">
<style type="text/css">
	.st0{fill:#808080;}
</style>
<path class="st0" d="M33.8,11.8c0,0-2.2-4.3-11.4-0.5c0,0-14.3-1.8-16.6,1.8c0,0-3.8,3.2-4.2,3.5C1.2,16.8,1,17.2,1,17.2
	c0,0.2-0.2,6.8,2.7,8.8c0,0,2.6,1.3-1,7.6c0,0-0.1,8.2,0.2,8.5c0,0,0.6,3,1.8,4.4c1.2,1.4,4.2-0.2,2.2-2.6s-1.4-6.7-1.4-6.7
	s2.5,6.7,3.1,6.8c0,0,1.3,3.3,3.6,0.3c0,0-3.8-5.1-3.5-6.1c0.3-1-1.5-2.3,1-4.3l3-4c0,0,1.1-0.6,2.1-0.2s0.2,0.1,0.2,0.1
	s9.1,1.4,9.5,0.8c0.3-0.6-1.3,3.4-1.3,3.4s-0.5,2.5,0.9,2.8c1.4,0.3,1.3,1.3,1.3,1.3l0.2,4.1l-0.2,4.5c0,0-0.4,1.7,1.1,1.6
	s3-0.4,2.4-2.1c-0.5-1.7-1-1.5-0.9-1.9c0.1-0.4-0.2-4.4-0.2-4.4s1.1,0,1,0.6c-0.1,0.5-0.1,3.7-0.1,3.7s0.7,2.5,0.9,2.5
	s2.5-0.1,2.5-0.1s1.6-0.9-0.8-3.7L31,38.7c0,0,1.4,0.8,1.5-0.7s0.4-3.2,0.4-3.2s3.2-1.5,3-3.1l0.4,1.7c0,0,0.3,4.9,3.5-1.2
	c3.1-6.1,3.1-9.1,3.2-10.4c0.2-1.3,1.3-2.9,1.2-3.2c-0.1-0.3,3.2,0.2,1.7-4.2c0,0-1.1-3.7-0.8-4.2c0.4-0.5,0.9-0.7-0.2-4.1
	c0-0.1-0.2-1.6-0.2-1.7C44.8,4.3,49.6,0,45,0c0,0-2.2,0.5-3.3,4L41,4.3c0,0-7.3-7.8-13.6-0.6c0,0-1.2,2.8,1.4,1.6
	c0,0,4.3-4.8,9.4,1.1c0,0-0.3,0.4-0.8,0.2c-0.4-0.1-4.2-0.2-4.2-0.2S36.6,9.1,37,9C37.3,8.9,34.7,12.3,33.8,11.8z"/>
</svg>
