<?xml version="1.0" encoding="utf-8"?>
<!-- Generator: Adobe Illustrator 19.1.0, SVG Export Plug-In . SVG Version: 6.00 Build 0)  -->
<svg version="1.1" id="Layer_1" xmlns="http://www.w3.org/2000/svg" xmlns:xlink="http://www.w3.org/1999/xlink" x="0px" y="0px"
	 viewBox="0 0 48 48" style="enable-background:new 0 0 48 48;" xml:space="preserve">
<style type="text/css">
	.st0{fill:#808080;}
</style>
<path class="st0" d="M47.3,33.1c0,0-0.7-0.3-2.2-0.3c0,0-3.4-0.7-3.8-1.6c0,0-2.2-5.3-3.4-6.9c-0.1-0.2-0.1-0.5,0.1-0.6
	c1-0.8,3.6-3.1,4.1-4.4c0-0.1,0.1-0.2,0.3-0.3c0.7-0.3,2.8-1.4,2.7-2.6c0-0.2,0.1-0.5,0.2-0.6c0.6-0.8,1.6-2.9-2.2-4.3
	c-0.5-0.2-0.9-0.6-1.1-1.1c-0.4-1.1-1.6-2.9-5.3-0.7c-0.1,0.1-0.3,0.1-0.4,0.1c-0.8-0.2-3.8-0.9-4.9,1.8c-0.1,0.4-0.4,0.6-0.8,0.7
	c-1.6,0.4-5.8,1.4-10.7,1.6c-0.1,0-0.2,0-0.4,0c-0.7,0-4.1,0-7.2,3.4c-0.5,0.5-1,0.9-1.5,1.4c-1.4,1-3.8,3.2-3.5,5.3
	c0,0-2.2-2.8-4.9-1.5c0,0-2.8,1.2-2.2,5.4c0.1,0.6,0.2,1.2,0.2,1.8c0.1,0.9,0.4,2.5,1.9,4.2l3.6,3.7c0,0-0.5,1.5,0.4,1.2
	c0,0,0.3-0.2,0.2-0.5c0,0,0.2-0.1,0.4-0.2c0.5-0.3,1-0.5,1.6-0.5c0.8,0,1.9,0.1,3.3,0.4c0,0,2.6,0.6,3.1,0.8c0,0,0.9,0.4,1,0.5
	c0,0,0.1,0.3,0.6,0.2c0,0,0.4-0.4-0.1-0.7c0,0-1.4-1.4-2.9-1.5l1.7-0.1c0,0,0.4-0.3-0.2-0.6c0,0-1.6-1.2-1.9-1.2c0,0,0.2-0.2,0-0.3
	c0,0-1.1-1.4-2.2-1.5c0,0,1.7-0.7,2.2-1.9c0.1-0.3,0.4-0.4,0.7-0.3c0.1,0,0.2,0.1,0.3,0.2c0.2,0.2,0.4,0.3,0.7,0.4
	c0.7,0.3,2,0.7,3.6,0.8c0.2,0,0.4,0.1,0.4,0.3c0.1,0.2,0.1,0.5,0.2,0.7c0,0.2-0.1,0.3-0.2,0.4c-0.4,0.2-1.5,0.6-1.4,1.2
	c0,0,0,1,1,0.2c0,0,0.9-0.6,1-0.3c0,0,0.3,1.2,1.1,1.3c0.1,0,0.2,0.1,0.2,0.2c0.1,0.3,0.6,0.8,2.2,0.7c0,0,3.5,0.3,3.4-0.2l1.3,0.1
	c0.1,0,0.1,0,0.2,0.1c0.1,0.1,0.3,0.2,0.6,0c0.1,0,0.1-0.1,0.2-0.1c0.3,0,1.1,0,1.4,0.4c0,0-0.1,0.5,0.2,0.5c0,0,0.8,0.1,0.4-0.6
	c0,0-0.3-0.9-0.9-0.9c0,0,1.7-0.5,2.3,0.1c0,0,0.2,0.4,0.7,0.1c0,0,0.3-0.4-0.2-0.6c0,0-1.1-1-2.1-0.6c0,0-3.4,0.2-3-0.2
	c0,0,0.1-1-1-0.9c-0.1,0-0.1,0-0.2,0c-0.3,0.2-1.7,0.9-2.1-0.1c0,0-0.4-1.6-0.4-2.3c0-0.2,0.1-0.3,0.2-0.3l2.2-0.7
	c0.1,0,0.3,0,0.4,0c0.4,0.2,1.3,0.4,1.3-0.2c0-0.2,0.2-0.4,0.4-0.4c0.9-0.1,3.1-0.3,5.2,0.3c0,0,0.9,0.4,0.5-0.4l3-0.1
	c0,0,0.7,0.8,0,0.8c0,0-3.5,0.8-4.7,0.5c0,0-2.2,0.2-1.7,0.9c0,0,0.5,0.3,0.7-0.1c0.1-0.1,0.2-0.1,0.3-0.1l1.8,0
	c0.1,0,0.2,0.1,0.2,0.1c0,0.2,0.2,0.4,1.1,0.4l2.3,0.2c0,0-1.1,0.9-0.7,1.2c0,0,0.7,0.4,1-0.3c0,0,0.9,0,1.2-0.3
	c0.1-0.1,0.3-0.2,0.4-0.2c1,0,3.8,0.1,4.1,0.4c0,0,0.2,0.9,0.5,0.1c0,0,0.6-0.1,1,0.8c0,0,0.2,0.3,0.6,0.1c0,0,0.2-0.4-0.4-1.3
	c0,0,1.1,0.2,1.1-0.2c0,0,1.5-0.2,2,0.2c0,0,0.5,0.2,0.6-0.1C48,33.7,48,33.3,47.3,33.1z M34.2,10.3c0.8,0,1.5,0.5,1.5,1.1
	c0,0.6-0.7,1.1-1.5,1.1s-1.5-0.5-1.5-1.1C32.7,10.8,33.3,10.3,34.2,10.3z M35.3,29.5l-1.7-0.2c0,0-0.3-1-2.4-1l3.4-3
	c0,0,0.4,0.3,0.5,1.2c0,0,0.8,2.5,0.9,2.7C36,29.3,36.6,29.7,35.3,29.5z"/>
</svg>
