<?xml version="1.0" encoding="utf-8"?>
<!-- Generator: Adobe Illustrator 19.1.0, SVG Export Plug-In . SVG Version: 6.00 Build 0)  -->
<svg version="1.1" id="Layer_1" xmlns="http://www.w3.org/2000/svg" xmlns:xlink="http://www.w3.org/1999/xlink" x="0px" y="0px"
	 viewBox="0 0 48 48" style="enable-background:new 0 0 48 48;" xml:space="preserve">
<style type="text/css">
	.st0{fill:#808080;}
</style>
<path class="st0" d="M47.3,17.1c0,0-0.3-0.4,0-0.5c0,0,0.6-1-0.4-1.4c0,0-0.5-0.4,0-0.8c0,0,0.7-0.8,0.4-1.4c0,0,0.5-1.4-0.4-1.8
	c0,0,0.2-2.4-1.2-2.5c0,0-0.7-1.7-1.4-1.9c0,0,0-2-1.2-2.2c0,0-0.2-1.4-1.3-0.6c0,0-0.9-2.1-2.7-1.2c0,0-1.7-0.4-2.7,1.7
	c-0.9,1.9-2,4.1-1.8,6.6c0.1,0.8-0.4,1.5-1.3,1.9c-0.9,0.3-2.2,0.6-4.4,0.3c0,0-3.9-0.5-6.7-1c-1.3-0.2-2.5-0.7-3.5-1.5l-6-4.4
	c-0.1-0.1-0.2-0.2-0.3-0.3c-0.2-0.1-0.6-0.4-1.9-0.6c0,0-1.5-0.3-2.3-0.4C8,5.1,7.7,5.1,7.4,5C7,4.9,6.5,4.7,6.1,4.8
	c0,0,0-0.4,0.6-0.4c0,0,0.4-0.1,0.3-0.6c0,0,0.5-1.2-0.4-0.9c0,0-0.4-0.6-0.5-0.4L5.6,3.2c0,0-0.1,0-0.1,0L5.5,2.1
	c0,0-0.1-0.1-0.1,0C5.2,2.3,4.8,2.7,4.9,3.3c0-0.1-0.2-1.2-0.5-0.7c0,0-0.2,0.6-0.2,0.9c0,0-0.3-1-0.6-0.6L3.3,3.8L3,3.1
	c0,0-0.1,0-0.1,0C2.9,3.3,2.7,3.6,2.6,3.7C2.5,3.8,2.4,3.9,2.4,4c0,0.1-0.1,0.2-0.3,0.1C2,4,1.9,4,1.8,4.1C1.4,4.5,0.1,6.2,1.1,7.2
	c0,0-1.5,0.8-1,1.8c0,0,1.8-0.8,2.5-0.4c0,0-0.3,0.8,0.3,1.5c0,0,1.2,1.8,2.3,0.5c0,0.1-0.3,1-0.4,1.8c0,0.5-0.2,1-0.4,1.4
	c-1,2-2.7,7.8,6.5,14.7c0.3,0.2,0.5,0.5,0.4,0.8c0,0.4,0.4,1.2,3.1,1.6c0.4,0.1,0.7,0.2,1,0.4c1.5,1.1,6.5,4.7,10.4,5.8
	c0.4,0.1,0.6,0.5,0.5,0.8c-0.6,1.4-1.9,4.6-3.2,4.9c0,0-0.9,0-1.3,0.1c0,0-1.8,0.1-2.3-0.1c0,0-0.6-0.2-1.2,0c0,0-0.7,0-1,0.7
	c0,0,0.6-0.1,0.8,0c0,0,0.4,0.1,1.1,0.1c0.7-0.1,1.2,0.3,1.2,0.3s-1.7,0.8-0.8,1.8c0,0,0-0.5,0.3-0.4c0,0,0.4-0.1,0.8-0.3
	c0.2-0.2,0.4-0.3,0.7-0.3c0.8-0.2,2.6-0.6,3.2-0.4c0,0,1,0.5,1.1-0.1l0.1-0.4c0-0.2,0.3-0.4,0.5-0.3c0.2,0,0.6,0.2,0.8,0.5
	c0,0.1,0.1,0.1,0.2,0.2c0.2,0.1,0.5,0.2,0.8-0.1c0,0,0.3-0.1,0.5,0.1c0,0,0.4-0.3-1.5-1.2c0,0-0.1-0.3,0.1-0.2c0,0,0.7-0.3,0.4-1.6
	c0,0,0.4-0.7,0.1-1.2c0,0,0.3-0.4,0.2-0.8l0.1,0c0,0-0.3,1.5,0.4,1.7l0-0.5c0,0,0.2,0,0.1,0.6c0,0,0.2,0.7,0.6,0.7
	c0,0-0.2-0.8,0-0.8c0,0,0.4-0.4,0.4-0.7c0-0.1,0-0.2,0-0.3c0.1-0.5,0.4-1.8,0-2c0,0,0.9-0.4,0.7-1.1c0,0,0.8,0,1.3,0.5
	c0.1,0.1,0.2,0.1,0.4,0.1c0.1,0,0.3-0.1,0.3-0.3c0,0,0.5,0.2,0.5,0c0-0.1,0.1-0.3,0.3-0.3c1.9-0.7,10.4-4.3,8.3-9
	c-0.1-0.2,0-0.3,0.2-0.4c0.9-0.4,3.2-1.4,2.8-2.4c-0.1-0.2,0.1-0.3,0.2-0.4c0.8-0.2,2.2-0.6,1.4-1.9c0,0,0.8-0.7,0.1-1.5
	c0,0,0.4-0.1,0.7,0.1c0.1,0.1,0.2,0,0.3-0.1c0.1-0.3,0.3-0.8,0.2-1.3c0-0.1,0-0.2,0-0.3C47.9,19.1,48.5,17.8,47.3,17.1z M4.5,7.1
	C4.2,7.1,4,7,4,6.8c0-0.2,0.2-0.3,0.4-0.3c0.2,0,0.4,0.2,0.4,0.3C4.9,7,4.7,7.1,4.5,7.1z"/>
</svg>
