<?xml version="1.0" encoding="utf-8"?>
<!-- Generator: Adobe Illustrator 19.1.0, SVG Export Plug-In . SVG Version: 6.00 Build 0)  -->
<svg version="1.1" id="Layer_1" xmlns="http://www.w3.org/2000/svg" xmlns:xlink="http://www.w3.org/1999/xlink" x="0px" y="0px"
	 viewBox="0 0 48 48" style="enable-background:new 0 0 48 48;" xml:space="preserve">
<style type="text/css">
	.st0{fill:#808080;}
</style>
<path class="st0" d="M47.8,15.3c0,0-0.8-0.8-1.5-1.2c0,0-1.5-0.8-1.7-1.7c0,0-0.6-2.3-1.8-3.3c-0.3-0.3-0.5-0.6-0.7-0.9
	c-0.8-1.6-2.8-5.6-2.7-6.9c0,0-0.4-0.2-0.3,1c0,0,1.3,5.1,2.1,6.3c0,0.1,0.1,0.1,0.1,0.2c0,0.1,0,0.2-0.2,0.1l-2.3-2.5
	c-0.2-0.2-0.3-0.4-0.5-0.6c-0.1-0.2-0.5-0.7-1.2-1.4c0,0-0.8-0.6-0.4-1.9c0,0-0.9,0.4,0,2l2.6,3.6c0,0,0,0.1,0,0.1
	c0,0.1-0.1,0.3-0.7,0.1c-0.2-0.1-0.5-0.2-0.6-0.4c-0.5-0.6-2-2.1-4.5-2.5c0,0-0.1,0-0.1,0c-0.2,0.1-0.6,0.5,0,1.5
	c0,0,0.8,1.5,1.7,2.1c0,0-1.8-0.4-3.1-0.4c-0.1,0-0.1,0-0.1,0C31.6,8.6,30,8.3,29,8c-0.1,0-0.2,0-0.3,0c-0.2,0.1-0.5,0.4,0.3,1.1
	c0,0,1.3,1.8,4.1,2.1c0,0,0.5,0,0.8,0.1c0.2,0.1,0.3,0.3,0.2,0.5c-0.7,1-3.5,4.5-6.3,2.9c-0.5-0.3-0.9-0.8-1.2-1.3
	c-0.5-1-2-3.2-5-4.6c0,0-11.4-6.8-17.4-2.9C4.3,6,4.1,6,4,6.1C3.7,6.3,2.9,6.8,2.1,7.7C0.3,9.8-1.5,14,2,21.1
	c0.4,0.7,0.4,1.6,0.2,2.4C2,24,1.8,24.4,1.4,24.7c0,0-0.5,0.3,0.1,1.7c0,0,0.4,2.3,0.4,3.2l0.9,9.3c0,0-0.1,0.5,0.4,0.4
	c0,0,0.7,0.6,0.8,1.7c0,0,0,0.6,0.8,0.6c0,0,1.7,0.1,1.4-0.7c0,0-1.2-1.3-1.4-1.8c0,0-0.7-0.8-0.8-3.6c0,0-0.8-6.6-0.4-7.7
	c0,0,0.5-2.7,2.1-4.3C6,23,6.4,22.4,6.7,21.8C7,21.3,7.3,20.9,7.6,21c0,0,1.3,0.6,1,1.2c0,0-1.5,3.7-1.8,4.1c0,0-0.5,0.6,0,1.7
	l1.6,4.2c0,0,3.1,7.2,3,8.2c0,0,0,0.9,0.6,0.4c0,0,0.7-0.2,0.8,1.2c0,0,0,0.8,0.7,0.8c0,0,2.3,0.3,1.9-0.6c0,0-0.6-0.9-0.9-1.3
	c0,0-0.4-0.8-1-1c0,0-4.8-9.3-3.9-11.7c0,0,1.1-3.1,1.9-4.3c0.2-0.3,0.6-0.5,1-0.5c0.7,0,2.2-0.1,3,0.1c0.3,0.1,0.5,0.3,0.5,0.6
	c0.2,1.6,1.1,8.3,0.9,10.4c0,0-0.3,6.7-0.8,7.6c0,0-0.2,0.1,0.2,2c0,0.2,0,0.5,0,0.7c-0.1,0.4-0.4,1.1-0.2,1.3c0,0,1,1.6,2.1,0.4
	c0,0,0.2-1.3-0.5-3.3c0,0-0.4-2-0.2-2.8c0,0,0.3-4.8,1.1-6.3c0.2-0.4,0.3-0.9,0.3-1.4c0-0.4,0-0.9-0.1-1.3l0.4-5.1
	c0,0,0-2.3,0.7-1.8c0,0,0.6,0.5,0.6,1.3c0,0,0.1,5.6,0.2,5.9c0,0.4,0.2,6.3,0.2,6.3s-0.2,1.1,0.7,2.2c0,0,0.3,0.6,0.2,1.5
	c0,0-0.1,0.6,0.5,0.8c0,0,2.3,0.7,1.9-0.2c0,0,0.3,0-0.1-0.4c0,0-2.1-3.1-2-3.9c0,0-0.4-6.2-0.1-6.7c0,0,0.1-3.4,0.4-4.2
	c0,0,0-1.4,0.4-1.5c0,0,9-1.5,14.9-6.8c0.5-0.4,1.2-0.7,1.8-0.7c1.7-0.1,5-0.1,6.5,0.1c0,0,1.5-0.1,1.8-1.1
	C47.9,16.7,48.2,15.5,47.8,15.3z M40.3,12.3c0,0,1.6-1.1,2.3,0.1C42.6,12.4,41.1,14.1,40.3,12.3z"/>
</svg>
