<?xml version="1.0" encoding="utf-8"?>
<!-- Generator: Adobe Illustrator 19.1.0, SVG Export Plug-In . SVG Version: 6.00 Build 0)  -->
<svg version="1.1" id="Layer_1" xmlns="http://www.w3.org/2000/svg" xmlns:xlink="http://www.w3.org/1999/xlink" x="0px" y="0px"
	 viewBox="0 0 48 48" style="enable-background:new 0 0 48 48;" xml:space="preserve">
<style type="text/css">
	.st0{fill:#808080;}
</style>
<path class="st0" d="M45.1,20.2c0,0-0.9-1.1-1.1-2.2c0,0-0.2-0.5-0.6-1.2C43.2,16.4,43,16,43,15.6c-0.1-0.5-0.2-1.1-0.4-1.6
	c-0.1-0.3-0.1-0.6-0.1-0.9c0.1-0.7,0.2-2-0.2-3.2c-0.3-0.9-1-1.7-1.9-2.1c-1.4-0.6-4.1-1.9-4.2-3.4c0,0-0.4-3.1-0.1-4.3
	c0,0-0.9,2.2-0.6,4.4c0,0,0.2,2.2,2.7,3.4c0,0,2.3,0.9,2.6,1.9c0,0-1.4-1.2-3.4-2.2c0,0-2-0.8-2.3-4.1l0-3.6c0,0-0.5,1.8-0.4,3.2
	c0,0-0.6,3.2,1.5,4.6c0,0,3.8,2.3,4,4.1c0,0.2,0,0.4-0.2,0.5c-0.1,0.1-0.4,0.3-0.7,0.5c-0.4,0.2-0.8,0.1-1.1-0.2
	c-0.6-0.5-1.8-1.5-2.8-2.2c-0.1-0.1-0.3,0-0.3,0.2c0,0.3,0.1,0.7,0.4,0.9c0,0-0.3,2,1.9,2.6c0,0-4.9,6.6-9.2,3.4
	c0,0-1.7-1.5-5.9-0.9c-0.6,0.1-1.2,0-1.7-0.1c-1.3-0.3-3.8-0.8-6.4,0c-0.3,0.1-0.5,0.1-0.8,0.1c-0.6,0-2.2,0.3-4.4,2.5
	c-0.3,0.3-0.6,0.5-0.9,0.7C7.6,20.1,7,21,7.6,23.4c0,0,0.8,3.1,2,4.5c0.1,0.1,0.1,0.3,0,0.4c-0.2,0.2-0.4,0.6-0.5,1
	c0,0.1,0.1,0.1,0.1,0.1l0.5-0.5c0,0,0.1,0,0.1,0.1c-0.1,0.5-0.5,1.9-3.1,3.9c-0.1,0.1-0.2,0.2-0.4,0.3c-0.1,0.1-0.4,0.4-0.5,1.6
	L4.4,40c-0.1,0.5-0.4,1-0.7,1.4c-0.3,0.4-0.7,1.1-0.4,1.7c0,0.1,0,0.2,0,0.3l-0.4,1.3c0,0-0.1,0.2,0.3,0.5c0,0,0.4,0.4,0.2,0.6
	c0,0-0.9,0.6,0,1.3c0,0,1.3,1.1,1.2,0.7l0-1.1c0,0,0.4-0.5,0.2-1c-0.1-0.3-0.1-0.6-0.1-0.9c0.3-2.1,1.5-9.4,5.6-11.8
	c0.1-0.1,0.3,0,0.3,0.2c-0.1,0.7-0.3,2.3-0.3,2.6c0,0-0.2,0.3,0.5,1.2l2.4,4.9c0.1,0.3,0.2,0.7,0.2,1c-0.1,0.6,0,1.4,0.6,1.5
	c0.1,0,0.2,0.1,0.3,0.2c0.1,0.2,0.2,0.4,0.2,0.9c0,0-0.1,0.2,0.6,0.4c0.2,0,0.3,0.2,0.3,0.3c0,0.4,0.1,1.1,0.6,1.2l1.4,0
	c0.1,0,0.2-0.1,0.1-0.2c-0.2-0.3-0.5-0.7-0.5-1.1c0,0,0.1-0.6-0.5-0.9c-0.1-0.1-0.3-0.2-0.4-0.4c-0.7-1.1-3.4-5.7-3.3-9.1
	c0,0,0.6-3.7,0.7-5.1c0-0.4,0.2-0.7,0.4-1l1-1c0.3-0.3,0.7-0.4,1.1-0.2c1.1,0.5,3.6,1.5,6.1,0.1c0,0,1.1-0.5,2.1,1.2
	c0.2,0.4,0.3,0.8,0.2,1.3c-0.2,1.2-0.6,3.9-0.6,5.1c0,0-0.6,7.5-1,8.6c0,0-0.1,0.3,0.8,0.9c0,0,0.6,0.5,0.2,1.4c0,0-0.2,0.9,0.7,0.8
	l1.3-0.1c0.1,0,0.1-0.1,0.1-0.2c-0.2-0.2-0.5-0.6-0.6-1c0,0,0-0.9-0.7-1.8c-0.1-0.2-0.2-0.4-0.2-0.6c0.1-1.7,0.4-8.7,1.5-11.3
	c0.1-0.2,0.3-0.2,0.4-0.1c0.6,0.5,1.8,1.8,1.9,4.5c0,0,0.8,4.5,0.2,4.7c0,0-0.3,1.2-0.1,1.7c0,0-1,0.8-0.8,1.7c0,0,0.6,2.3,1,1.2
	c0,0,0.3-1.4,0.9-1.7c0,0,0.2-0.5,0.2-1c0-0.3,0.1-0.6,0.2-0.8c0.1-0.3,0.2-0.7-0.1-1.3c0,0-0.7-5.9-0.4-6.5c0,0,0.7-1.4-2.3-5.2
	c0,0,0-0.5,0.4-0.9c0,0,1.3-0.5,2.2-1.5c0.3-0.4,0.7-0.7,1.1-1c1.9-1.2,6.1-3.3,8.6-6.6c0.2-0.2,0.5-0.2,0.7,0
	c0.4,0.4,1.1,0.9,2.4,1.3c0,0,0.6,1.3,2,0.6C44.3,21.8,45.7,21.1,45.1,20.2z M41.2,15.6c0,0,1.2-0.7,1.4,0.7
	C42.5,16.2,41.3,16.5,41.2,15.6z"/>
</svg>
