<?xml version="1.0" encoding="utf-8"?>
<!-- Generator: Adobe Illustrator 19.1.0, SVG Export Plug-In . SVG Version: 6.00 Build 0)  -->
<svg version="1.1" id="Layer_1" xmlns="http://www.w3.org/2000/svg" xmlns:xlink="http://www.w3.org/1999/xlink" x="0px" y="0px"
	 viewBox="0 0 48 48" style="enable-background:new 0 0 48 48;" xml:space="preserve">
<style type="text/css">
	.st0{fill:#808080;}
</style>
<g>
	<path class="st0" d="M46.7,27.2c0,0-0.4-2,0.3-9c0,0,2.1-6.5-10.3-4.9c0,0-6.7,1.8-9.8-0.5c0,0-1.9-2-6.1-0.8c0,0,0,0,0,0
		c0-0.1,0-0.2,0-0.3c0-0.1-0.1-0.2-0.1-0.2c0,0.1,0,0.2,0,0.3c0,0.1-0.1,0.2-0.2,0.2c0.1-0.1,0.1-0.3,0-0.4c0-0.1,0-0.1-0.1-0.1
		c0,0.2,0,0.3,0,0.5c0,0.1-0.1,0.1-0.1,0.1c0.1-0.2,0-0.4-0.1-0.5c0,0,0,0,0-0.1c0,0,0,0-0.1,0c0.1,0.1,0.1,0.3,0.1,0.5
		c0,0.1-0.1,0.2-0.2,0.2c0-0.1,0-0.2,0-0.3c0-0.1,0-0.2-0.1-0.2c0-0.1-0.1-0.1-0.2-0.2c0,0,0.1,0.1,0.1,0.1c0,0.1,0,0.1,0,0.2
		c0,0.1,0,0.1,0,0.2c0,0.1-0.1,0.2-0.2,0.3c0.1-0.2,0-0.4-0.1-0.6c0.1,0.2,0.1,0.4,0,0.6c0,0.1-0.1,0.1-0.2,0.2
		c0.1-0.2,0-0.5-0.1-0.7c0.1,0.1,0.1,0.2,0.1,0.4c0,0.1,0,0.3-0.1,0.4c0,0-0.1,0.1-0.1,0.1c0.1-0.2,0.1-0.4,0-0.6c0,0.2,0,0.4,0,0.5
		c0,0.1,0,0.1,0,0.2c0,0-0.1,0.1-0.1,0.1c0-0.2,0-0.3-0.1-0.5c0,0.2,0,0.4-0.1,0.6c0,0-0.1,0-0.1,0c0,0,0,0.1-0.1,0.2c0,0,0,0,0,0
		c-0.4-0.3-1.2-0.1-1.2-0.1l0.3,0.9l0,0c0,0-0.1,0.1-0.1,0.1c-0.2-0.3-0.3-0.9-0.3-0.9c0,0.3,0.2,0.7,0.3,1c0,0,0,0,0,0
		c-0.3-0.4-0.6-1.1-0.6-1.1l0.4,1.2c0,0-0.1,0-0.1,0.1c-0.3-0.4-0.6-1.2-0.6-1.2c-0.1,0.1,0.3,0.9,0.5,1.3c0,0-0.1,0-0.1,0.1
		c-0.2-0.2-0.4-0.6-0.5-0.9l0.3,1c0,0-0.1,0-0.1,0l0,0c-0.4-0.4-0.5-1.2-0.5-1.2l-0.2,0.8c0-0.4,0-0.8,0-0.8
		c0.1,0.4-0.5,1.7-0.5,1.7l0.4-1.7l-0.3,1c0.1-0.5,0-1.1,0-1.1c0,0.5-0.3,1-0.4,1.3c0.2-0.5,0.3-1.3,0.3-1.3
		c0.1,0.2-0.6,1.6-0.6,1.6l-0.4-0.1c0.6-0.4,0.7-1,0.8-1.4c-0.1,0.3-0.5,0.8-0.8,1.2c0.4-0.6,0.7-1.5,0.7-1.5l-1,1.5
		c0.3-0.5,0.7-1.3,0.7-1.3l-1,1.1l0,0c0,0,0,0,0,0l0,0c0.3-0.4,0.5-1.2,0.5-1.2l-0.8,0.9v0l0,0c0.2-0.3,0.4-0.8,0.4-0.8l-0.6,0.7
		l0,0c0,0,0,0,0,0l0,0c0.2-0.3,0.2-0.7,0.2-0.7l-0.4,0.6c0,0-0.1-0.1-0.1-0.1l0,0l0.2-0.5l-0.4,0.3c0,0-0.1-0.1-0.1-0.1l0,0l0.2-0.3
		L12.6,13v0c0,0,0,0-0.1-0.1l0.2-0.2c0,0-0.1,0.1-0.2,0.2c-0.2-0.1-0.3-0.2-0.5-0.2c0,0,2.7-1.5,2.4-3.7c0,0-0.8,1.1-2,1.4l-1.3,1.1
		c0,0,0.2-0.9,0.8-1.4c0,0,0.3-0.5,0.3-0.9c0,0,1.1-1.1,1.5-1c0,0,2.3-4.8,4.3-6.3c0,0-2.2,0.3-4.8,4.3c0,0-1.5,1.8-2.4,2.1
		c0,0-0.6,0.7-0.6,1.2c0,0-0.5,0.8-0.9,0.9c0,0-0.8-0.5-1.9,0.2c0,0-0.7,0.1-0.6-0.6c0,0,0.6-1.1-0.1-2c0,0-0.5-1-0.2-1.9
		c0,0-0.6-5.5-1.7-6.2c0,0,1.7,4.8,0,6.9c0,0-0.2,0.1,0.1,0.4c0,0,0.7,1.8,0.2,2c0,0-0.1,0.1,0,0.3c0,0,0.3,0.6-0.2,0.9
		c0,0-0.2,0.3,0.1,0.5c0,0,0.4,0.2,0.1,0.4c0,0-1.3-0.9-2.2-1.1c0,0-1.6-0.1-2.2-1.3c0,0-0.2,1.1,1.3,2.2c0,0,1,1.4,2.6,1.8
		c0,0,0.4,0.4,0.1,0.8c0,0,0.2,0.7,0.2,0.9c0,0,0.3,3,0,3.8c0,0-1.2,2.6,0.5,3.2c0,0,1.1,0.8,2.6-1.5c0,0,2.1,1.7,1.5,4.6
		c0,0-0.7,1.6,1.5,3.9c0,0,1-3.5,3.7-1.3c0,0,0.8,2.8,3.7,4.5c0,0,0.9,3.4,0.9,4.3c0,0-0.4,0.4,0.4,1.9c0,0,0.2,5-1.6,6.5
		c0,0-1.6,1.8-0.8,1.6c0,0,0.1,0.5,1.7,0.2c0,0,1.3,0.4,1.3-1.3c0,0,0.3-0.5,0.4-0.8c0,0,0.3,1.1,0.6-0.6l0.1-4.1l0.3-2.8
		c0,0,0.5-3.3,0.4-3.9c0,0,0.3,1,0.1,2.2c0,0-0.6,2.1,0.2,3.5c0,0,0.3,2.2,0,3.9c0,0,0,2.1-0.7,3.2c0,0-0.7,0.8-0.1,0.5
		c0,0-1.3,1.8-0.2,1.3c0,0,0,0.5,1.2,0.3c0,0,1.8,0,1.8-0.9l0-0.5c0,0,0.6,0.5,0-0.7L24.2,45c0,0,0.6,0.3,0.2-0.8
		c0,0-1.1-4.1,0.1-6.9c0,0,1.8-7.3,1.7-7.9c0,0,8.8,0.9,10.3-2c0,0,4.6,6,4.6,7.3c0,0,0.1,5.2-2,6.8c0,0-0.1,0.2,0,0.2
		c0,0-1.3,1.5-0.8,1.3c0,0-0.3,0.2,0.6,0.2c0,0,1.8,0.1,1.9-0.8c0,0,0.5-1.4,0.7-0.9c0,0,0.5,0.6,0.5-0.6l0.6-3.9
		c0,0,0.3-2.6,0.5-2.2c0,0,1.4,4.3-0.6,8.4c0,0-0.5,0.6-0.1,0.4c0,0-1.4,2.4,0.4,0.9c0,0-0.2,0.5,0.2,0.5c0,0,1.9,0.4,1.8-1.3
		c0,0,0-1.2,0.2-0.9c0,0,0.5,0.3,0.2-1c0,0-0.4-7.3,0.4-8.5c0,0,0.3-0.8-0.8-2.7c0,0-0.1-4.2,1-6.3L45.8,28c0,0-0.6,2-0.2,3.6
		l0.2,1.7c0,0,0.1-0.3,0.1-0.6c0,0.1,0.1,1.7,0.8,2.1c0,0-0.6-1.1-0.6-1.7c0,0,0.2,1.1,0.7,1.5c0,0-0.5-0.6-0.3-1.9
		c0,0,0,1.1,0.2,1.2c0,0-0.3-0.9,0.4-2.3C47.1,31.6,47.7,29.4,46.7,27.2z M9,14c0,0,0.2-1,1-0.6C10,13.4,9.8,14.3,9,14z M19.1,12.6
		l0.2-0.1C19.2,12.6,19.1,12.6,19.1,12.6C19.1,12.6,19.1,12.6,19.1,12.6z"/>
	<path class="st0" d="M15.3,13.1c0,0,0,0.1,0,0.2C15.3,13.2,15.3,13.1,15.3,13.1z"/>
	<path class="st0" d="M16.6,13.4l-0.1-0.3C16.5,13.1,16.6,13.3,16.6,13.4z"/>
</g>
</svg>
