<?xml version="1.0" encoding="utf-8"?>
<!-- Generator: Adobe Illustrator 19.1.0, SVG Export Plug-In . SVG Version: 6.00 Build 0)  -->
<svg version="1.1" id="Layer_1" xmlns="http://www.w3.org/2000/svg" xmlns:xlink="http://www.w3.org/1999/xlink" x="0px" y="0px"
	 viewBox="0 0 48 48" style="enable-background:new 0 0 48 48;" xml:space="preserve">
<style type="text/css">
	.st0{fill:#808080;}
</style>
<path class="st0" d="M47.9,18.3l-0.5,0.2c0,0-4.8,4.8-10.5,0.4c0,0-1.5-3-16.2,0.8c0,0-4.2-0.6-4.5-1c0,0,1.3-1.2,1.2-1.5
	c-0.1-0.3,0.2-2.4-1.1-4S13,6.8,6.7,9.3c0,0-1,0.3-0.9,1.3c0,0-0.1,0.9-1.3,1.2c-1.3,0.3-3.7,1.4-3.7,1.4s-2.5,0.4,1.4,3.3
	c0,0,0.3,0.9,3.5,0.6c0,0,0.9,0.2,1.1,0c0,0,0,0,0,0C6.9,17,6.4,18,7.5,17.6c0,0,0.5,2.3-0.1,5l0,0.1c0,0-0.7,4.8,2.3,7.9l1.6,3.4
	c0,0,0.4,0.9-2.4,2.2c0,0-2.6,2.2,3.3,0.9c0,0,1.5,0.5,1.4-4l1.5,0.2c0,0,0.3,2.9-0.3,3.9c0,0-1.8,2,0.4,2.2c0,0,3.3,0.7,3-1.6
	c0,0-0.5-2-0.3-3.7c0.1-0.8,0.6-1.7,1.5-1.8c1.1-0.1,7.8-2.2,11-4c0,0,0.7,1,0.1,1.7c0,0-0.6,1.4-3.2,2.1c0,0-2,2,2.2,1.5l1.1-0.5
	c0,0,1.6-2.6,2.5-2.8c1-0.2,1-1.7,0.4-1.9c-0.6-0.2-1.6-2.9,1.5-0.6c0,0,1.1,2.3,3.3,2.6c0,0,1.5,0.5,0.9,4.2c0,0-2.3,1.7-0.1,1.9h2
	c0,0,0.8,0,0.7-1.7c0,0-1-1.6-0.2-4.6c0,0,0.3-1.2-1.2-1.5c0,0-0.5-0.1-0.9-2.1s-0.8-3.1-1-3.4s-0.5-1.3-0.5-1.3L37,20.3
	c0,0,2.6,2,3.9,1.7c0,0,3-0.1,3.7-0.5C45.2,21,48,19,48,19"/>
</svg>
