<?xml version="1.0" encoding="utf-8"?>
<!-- Generator: Adobe Illustrator 19.1.0, SVG Export Plug-In . SVG Version: 6.00 Build 0)  -->
<svg version="1.1" id="Layer_1" xmlns="http://www.w3.org/2000/svg" xmlns:xlink="http://www.w3.org/1999/xlink" x="0px" y="0px"
	 viewBox="0 0 48 48" style="enable-background:new 0 0 48 48;" xml:space="preserve">
<style type="text/css">
	.st0{fill:#808080;}
</style>
<path class="st0" d="M27.3,19.2l-0.2-0.7c0-0.1,0-0.3,0.2-0.3c0.4-0.2,1.2-0.6,1-1.2c0-0.1,0-0.2,0-0.3c0.3-0.4,1.1-1.3,2.1-1.5
	c0,0,0.2,0,0.1-0.2c0,0,0.2-0.3,0.5-0.2c0,0,0-0.1-0.2-0.1c0,0,0,0,0.1-0.1c0,0-0.2-0.1-0.5,0.1c0,0-1.5,0.5-2.6,1.5
	c-0.1,0.1-0.2,0.2-0.4,0.2c-0.3,0.1-0.7,0.3-0.8,0.6c0,0-0.1,0.1-0.1,0L26.4,17c0,0,0-0.1,0-0.1c0-0.1,0.1-0.5-0.1-0.8
	c0-0.1,0-0.1,0-0.2c0.4-0.4,2.1-1.8,2.5-2c0,0,1-0.6,0.9-1.1c0,0-2.8,1.8-3.6,2.7c-0.1,0.1-0.1,0-0.2,0c-0.1-0.3-0.5-0.9-1.3-0.9
	c0,0-0.1,0-0.1,0c-0.2-0.1-1-0.3-1.2,0.5c0,0.1-0.1,0.2-0.2,0.2c-0.2,0-0.4,0.1-0.4,0.4c0,0-1.4-1.5-2.1-2.6c0,0-0.1-0.1-0.1,0
	c0,0-0.6-0.5-0.6-0.9c0,0-0.2,0.1,0,0.6c0,0,1.6,2.7,2.4,3.3c0,0,0.1,0.1,0,0.1c0,0-0.1,0.1-0.1,0.2c0,0.1-0.1,0.1-0.1,0
	c-0.5-0.4-2.6-1.9-3.6-1.6c0,0-0.5-0.2-0.5,0.2c0,0,0.3-0.2,0.4-0.1c0,0,0,0.1,0.2,0.1c0,0,1.6,0.7,2.2,1.2c0.1,0.1,0.2,0.2,0.2,0.4
	c0,0.3-0.1,1,0.4,1.2c0.2,0.1,0.3,0.3,0.1,0.5l-0.3,0.5C21.2,19,21,19,20.8,18.9c-2.1-1.3-15.2-9.5-20.2-7.3
	c-0.4,0.2-0.6,0.6-0.5,1.1c0.5,2,2.4,8,7,8.6l3.5,0c0,0-4.5,1.3-3.8,2.7c0,0,1.9,3.7,6.1,3.7c0.2,0,0.5,0.1,0.6,0.2
	c0.4,0.4,1.3,0.9,3,0.4c0.2-0.1,0.4-0.1,0.6,0c0.6,0.1,1.9,0.1,2.9-1.3c0.1-0.2,0.4-0.1,0.4,0.1c0,0.6,0,1.4,0.1,1.9
	c0,0,0.8,8,3.4,8.4c0.1,0,0.2,0,0.3,0.1c0.5,0.1,2.5,0.1,2.9-7.4c0-0.5,0-1-0.1-1.5c-0.1-0.3,0-1,0.5-2.3c0,0,1.3,2.9,4.5,2.4
	c0.2,0,0.5,0,0.7,0c0.4,0.1,1.3,0.1,2.2-0.6c0.3-0.2,0.6-0.3,0.9-0.3c1.2-0.1,4.3-0.7,5.5-3.5c0.3-0.6,0.1-1.4-0.5-1.8
	c-0.5-0.4-1.5-0.8-3.1-1.1c0,0,1.3-0.4,3.1-0.4c0.7,0,1.3-0.2,1.9-0.5c0.8-0.4,1.8-1.1,2.7-2.5c0,0,3.8-6.4,2.2-7.2
	c0,0-2.3-1.3-7.2,1c0,0-11.1,5.7-12.9,7.4C27.4,19.3,27.3,19.3,27.3,19.2z"/>
</svg>
