<?xml version="1.0" encoding="utf-8"?>
<!-- Generator: Adobe Illustrator 19.1.0, SVG Export Plug-In . SVG Version: 6.00 Build 0)  -->
<svg version="1.1" id="Layer_1" xmlns="http://www.w3.org/2000/svg" xmlns:xlink="http://www.w3.org/1999/xlink" x="0px" y="0px"
	 viewBox="0 0 48 48" style="enable-background:new 0 0 48 48;" xml:space="preserve">
<style type="text/css">
	.st0{fill:#808080;}
</style>
<path class="st0" d="M47.8,17.2c-0.2-0.3-0.5-0.7-0.9-1.1c0,0-1.6-1.9-1.6-2.3c0,0,0.5-0.8-0.5-2.4c0,0,1.4-5.1-2.1-7.8
	c0,0-4-2.8-4.4-3.5c0,0,0,0,0,0c-0.3-0.7-0.2,1.2,2,2.8c0,0,3.8,3.5,3.1,5.3c0,0-1.9-3.2-5.9-5.3c0,0-1.7-1-1.8-2.2
	c0,0-1.2,0.9,2.8,4c0,0,2.7,2,3.5,4.5c0,0-1.1,1.9-3.2,1.7c0,0-1.4-0.6-2.8-0.9c0,0-2.6-0.6-3.2-1c0,0-0.6-0.1,0.1,0.5l3.7,2.4
	c0,0-3.9,5.9-9.4,2.5c0,0-0.1-0.8-4.6-2c-0.2-0.1-0.5-0.1-0.7-0.2c-1.7-0.6-9.4-3.2-12.9-1.7c-0.7,0.3-1.6,0.1-2.1-0.5
	c0-0.1-0.1-0.1-0.1-0.2c0,0-0.9-0.5-2.6,0.5l-3.6,2.1c-0.3,0.2-0.5,0.6-0.4,1c0.2,0.5,0.5,1.2,1.1,1.1c0,0,1.1-1.5,1.9-1.7
	c0,0,2.5-2.6,3.7-1.2c0,0-3.5,1.5-1.4,8.2l1.1,4.9c0.1,0.4,0,0.9-0.2,1.3c-0.5,0.9-1.3,2.7-1.2,3.2l0.7,6.6l0.4,6.7
	c0,0,0,0.3,0.5,0.1c0,0,0,1.5,0,1.9c0,0-0.1,0.4,0.3,0.4c0,0,1.5,0.1,1.4-0.2c0,0-0.2-0.7-0.1-1.3c0,0,0-0.3-0.3-0.8
	c-0.1-0.2-0.3-0.5-0.3-0.8c-0.4-1.5-1.5-6.3-0.9-12.1c0,0,0.8-2.1,1.8-3.6c0.2-0.3,0.4-0.7,0.6-1.1l1.2-2.7c0-0.1,0.2-0.1,0.3,0
	l0.5,0.7c0.1,0.1,0.2,0.1,0.3,0.1c0.2-0.1,0.5-0.2,0.8,0c0,0,0.5,0.2,0.3,0.7c0,0-3.4,4-3.7,4.3c0,0-0.6,0.6,0.1,1.5
	c0,0,0.6,2.4,1.2,3.6c0.7,1.2,2.5,5.9,2.3,7.5l0,0c0,0-0.2,0.4,0.3,0.5c0,0,0.3,1.2,0.1,2c0,0,1.9,1.5,1.8,0.9c0,0-0.2-1.5-0.2-2
	c0,0,0-0.6-0.4-1.4c0,0-0.2-1.2-0.4-1.5c0,0-3.6-8.1-2.5-9.8c1.2-1.7,3.8-4.3,4.3-4.3c0.3,0,1.5,0.5,3.1,0.3c0,0,0.8-0.2,1.6,0.1
	c0,0,1.3,0.3,2,0.3c0.3,0,0.5,0.2,0.5,0.5l2.4,9.5c0,0-3.8,4.8-4.5,5.1c0,0-0.5-0.2-0.8,0.9c0,0-0.7,0.8-1.3,0c0,0-0.7-0.2-0.7,0.9
	c0,0-0.2,2.1,0.5,1.5c0,0,1.5-0.9,1.9-1.4c0,0,0.5-0.6,1.2-0.7c0,0,0.4,0,0.8-0.9c0,0,3.2-4.3,3.3-3.8c0,0,0.8,7,0.6,7.7
	c0,0-0.2,0.4,0.2,0.5c0,0,1.4,0.4,0.8,1.2c0,0-0.3,0.9,0.3,1c0,0,1.6,0.5,1.8,0c0,0,0.1-0.6-0.5-1.5c0,0,0.2-0.8-0.7-1
	c0,0-1.1-0.8-1.2-3.1l-0.3-3.6c0-0.6,0-1.2,0.2-1.7c0-0.2,0.1-0.4,0.1-0.6c0-0.2,0.1-0.4,0.2-0.6c0.1-0.2,0.3-0.6,0.2-1.1
	c0,0-0.6-4.4-0.3-7.1c0.1-1,0.7-1.9,1.6-2.3c0.7-0.4,1.9-0.9,3.4-1.4c0,0,3.7-1.4,5.2-2.7c0,0,3.8-2.8,4.8-2.6c0,0,1.9,0.5,3,1.1
	c0.4,0.2,0.9,0.4,1.4,0.4c0.5,0,1-0.2,0.9-0.9c0,0,0.7-0.2,0.7-1.2C47.9,17.6,47.9,17.4,47.8,17.2z M41.8,13.8c0,0,1.6-0.8,2,0.4
	C43.8,14.1,42.6,15.3,41.8,13.8z"/>
</svg>
