<?xml version="1.0" encoding="utf-8"?>
<!-- Generator: Adobe Illustrator 19.1.0, SVG Export Plug-In . SVG Version: 6.00 Build 0)  -->
<svg version="1.1" id="Layer_1" xmlns="http://www.w3.org/2000/svg" xmlns:xlink="http://www.w3.org/1999/xlink" x="0px" y="0px"
	 viewBox="0 0 48 48" style="enable-background:new 0 0 48 48;" xml:space="preserve">
<style type="text/css">
	.st0{fill:#808080;}
</style>
<path class="st0" d="M46.9,16.6c0,0-2.7-4-6.4-4c0,0-2.9,0.3-4.5-0.5c0,0-0.1,0-0.3-0.1c-0.6-0.3-1.3-0.3-2-0.2
	c-2.1,0.4-8,1.4-10.9,0.4c-0.1,0-0.2-0.1-0.3-0.1c-0.5-0.2-3-1.2-7.6,0.9c-0.3,0.1-0.6,0.2-0.8,0.3c-0.8,0.3-2.8,1.2-3.5,3.7
	c-0.2,0.5-0.4,0.9-0.7,1.3c-0.2,0.2-0.4,0.5-0.4,0.7c0,0-0.4,1.5-2.6,0.4c0,0,0-0.5-0.7-0.2c0,0-0.5-0.1-0.7-0.6
	c0,0-0.3-0.2-0.3,0.1c0,0,0.9,2.4,2.2,2.7c0.1,0,0.3,0.2,0.3,0.3c0.1,1.3,0.5,6.8-3.3,5.8c0,0-1-0.3-0.6,0.4c0,0,0.9,0.9,1.1,1.5
	c0,0.2,0,0.3-0.2,0.4c-0.6,0.3-2.4,1.2-4.3,0.3c0,0-0.7,0.4-0.3,0.7c0,0,2.5,2.2,4.8,3c0.2,0.1,0.4,0.2,0.6,0.4
	c0.5,0.6,1.6,1.9,2.7,1.1c0.1-0.1,0.2-0.1,0.3-0.1c0.3,0.1,1.2,0.1,1.9-0.7c0.2-0.2,0.4-0.4,0.6-0.6c0.7-0.5,2-1.6,2.6-3.1
	c0,0,0.5-0.9,0.6-2.1c0,0,0.2-0.9,0.5-0.6c0,0,0.4,0.7,1.2,0.4c0,0,0.3,0,0.2-0.8c0,0,0.3-0.1,0.5,0.4c0,0,0.3,0.2,0.6-0.2
	c0,0,0.2,0,0.3,0c0.1,0,0.2,0.1,0.2,0.3c0.1,0.6,0.2,2.8-0.4,4.5c-0.1,0.4-0.4,0.7-0.6,1c-0.6,0.6-1.9,2.1-0.9,2.4
	c0,0,0.5,0.3,1.8,0.1c0,0,0.3-0.1,0.5,0.1c0,0,1.7,0.2,1.9-0.7c0,0-0.1-0.6-0.3-1c-0.1-0.4-0.1-0.8,0.2-1.1c0,0,0,0,0,0
	c0,0,1.4-3.1,2.3-3.9c0.1-0.1,0.2-0.1,0.2,0c0.5,0.4,2.6,2.3,3.1,3.3c0.1,0.2,0.1,0.5-0.1,0.7c-0.1,0.1-0.1,0.1-0.2,0.2
	c0,0-1.6,1.3,0.6,1.3c0,0,1.1,0.4,2.3-0.4c0,0,1-0.7,0-1.5c0,0-0.8-0.6-1-1.3c0,0-0.8-2.6-1.3-3.5c0-0.1,0-0.2,0.1-0.2
	c1.5,0.3,8.2,1.3,11.6-1.4c0.1-0.1,0.3,0,0.4,0.1c0.2,0.6,0.7,2,0.9,3c0.1,0.5,0,0.9-0.2,1.4c-0.3,0.6-0.9,1.7-1.7,2.1
	c0,0-0.5,0.8,0.6,0.6c0,0,2.5,0.6,3.4-1.1c0,0-0.9-0.7,0.2-1.7c0,0,1.9-1.2,1.4-2c0,0-0.9-1.8-0.9-2.4c0-0.1,0-0.2,0.1-0.2
	c0.1-0.1,0.2-0.1,0.4-0.2c0.1-0.1,0.3-0.1,0.4,0.1c0.3,0.4,1.1,1.4,1.1,2.3c0,0,0.4,4.1-0.3,4.5c0,0-2,1-1.2,1.7c0,0,1,0.4,1.8,0.2
	c0.2,0,0.4,0,0.5,0c0.5,0.1,1.5,0.2,1.8-0.4c0.1-0.1,0.1-0.2,0-0.4c-0.2-0.4-0.8-1.7,0-2.6c0,0,1.3-1,0.8-2.1
	c-0.1-0.2-0.2-0.5-0.2-0.7c-0.1-0.8-0.2-2.2,0.5-3C46.9,25.9,49.4,19.3,46.9,16.6z M8.8,29.3c0,0-0.3-0.1-0.4,0c0,0,0.2-0.7,1.3-0.5
	C9.7,28.8,9.2,29.6,8.8,29.3z"/>
</svg>
