<?xml version="1.0" encoding="utf-8"?>
<!-- Generator: Adobe Illustrator 19.1.0, SVG Export Plug-In . SVG Version: 6.00 Build 0)  -->
<svg version="1.1" id="Layer_1" xmlns="http://www.w3.org/2000/svg" xmlns:xlink="http://www.w3.org/1999/xlink" x="0px" y="0px"
	 viewBox="0 0 48 48" style="enable-background:new 0 0 48 48;" xml:space="preserve">
<style type="text/css">
	.st0{fill:#808080;}
</style>
<path class="st0" d="M47,25.3l0.9-3.8c0,0,0.7-3.3-2.5-6.6c0,0-1.5-2.3-3.6-2.2c-0.3,0-0.6,0-0.9-0.1c-1-0.2-3.2-0.6-4.3-0.9
	c0,0-1.4-0.9-3.8,0.2c0,0-4.7,1-7.3,0.4c-0.3-0.1-0.6-0.2-0.8-0.3c-0.5-0.3-2.1-0.9-4.7,0c-0.2,0.1-0.5,0.1-0.7,0.2
	c-0.4,0.1-1.2,0.2-1.9,0.2c0,0-3.3,0.1-4.6,2.6c0,0-0.1,0-0.1,0c-0.1-0.1-0.2-0.5-0.1-0.9c0,0-0.4-0.1-0.6,0.3c0,0-1.5-0.1-1.5,1.3
	c0,0,0,0.1-0.1,0c-0.3-0.2-1.1-1-1.7-1.1c-0.1,0-0.1-0.1-0.1-0.1c0-0.2-0.1-0.7-0.9-0.6c0,0-0.1,0.3,0.1,0.8c0,0.1,0,0.1,0,0.2
	c0,0.4,0.2,2.1,1.6,2.4c0.1,0,0.2,0.1,0.1,0.2c-0.1,0.4-0.4,1.2-0.3,2c0,0,0,4.3-3.3,2.9c0,0-1-0.2-0.6,1c0,0,0.4,0.9,0.6,1.3
	c0.1,0.1,0,0.3-0.1,0.4c-0.1,0.1-0.2,0.1-0.3,0.2c-0.1,0-0.2,0.1-0.3,0.1c-0.6,0-1.7,0.1-2.5,0.2c-0.2,0.1-0.5,0.1-0.7,0.1
	c-0.8,0-2.6-0.1-2.1,0.3c0,0,3.5,2.2,5.4,2.7C5.7,28.6,6,28.8,6,29c0.2,0.8,0.9,2.6,2.4,1.9c0,0,1.9,0.5,2.5-1.1c0,0,2.6-2,2.9-3
	c0,0,0.5-0.3,0.7-1.4c0-0.1,0-0.2,0.1-0.2c0.1-0.2,0.4-0.4,0.8,0c0,0,0.8,0.7,1.2,0c0,0,0.2-0.9,0.5,0c0,0,0.4,0.9,1,0.3
	c0,0,0.4,0.6,0.9,0.3c0.1-0.1,0.2,0,0.2,0.1c0.1,0.5,0.5,1.5,0.8,2.1c0.1,0.2,0.2,0.4,0.2,0.6c0.2,0.9,0.7,2.9,0.7,3.9
	c0,0.2,0,0.5-0.1,0.7c-0.2,0.4-0.6,1.2-1.2,1.4c-0.1,0-0.3,0.1-0.4,0.2c-0.3,0.3-0.7,1,0.4,1c0,0,1.2-0.3,2,0.1c0,0,2.3,0.2,1.9-0.7
	c0,0,3.2,0.6,3.3-0.6c0,0-0.3-0.8-0.7-1.5c-0.2-0.3-0.3-0.6-0.3-1c0-0.8,0-2.4-0.3-3.1c0,0-0.4-1.9,0.4-1.7c0,0,10.2,2.6,13.4-2.5
	c0.1-0.1,0.2-0.1,0.2,0c0.3,0.4,0.9,1.2,1.4,2c0.4,0.6,0.6,1.2,0.8,1.9c0.2,1.1,0.4,2.7,0.2,3.2c0,0-0.1,1.4-1.5,1.7
	c0,0-0.6,0.9,0,1l1.6,0.1c0.2,0,0.2,0.2,0.1,0.3c-0.6,0.5-1.7,1.4-0.2,1.5c0,0,4.2,0.3,4.1-0.6c0,0,0.1-0.4-0.4-0.9
	c0,0-1.1-0.5,1.2-2.6c0.4-0.3,0.5-0.9,0.4-1.4c0-0.1,0-0.1-0.1-0.2c0,0-0.8-2-0.8-2.6c0,0,0.2-0.8-0.3-1.2
	C46.2,27.2,47,26.8,47,25.3z M9.9,24.6c0,0-0.2-0.2-0.4,0c0,0,0.3-0.6,1-0.5C10.5,24.2,10.5,24.8,9.9,24.6z M23,33.8
	c0,0-0.1-0.9,0.4-1.1C23.4,32.7,23.9,33.4,23,33.8z"/>
</svg>
