<?xml version="1.0" encoding="utf-8"?>
<!-- Generator: Adobe Illustrator 19.1.0, SVG Export Plug-In . SVG Version: 6.00 Build 0)  -->
<svg version="1.1" id="Layer_1" xmlns="http://www.w3.org/2000/svg" xmlns:xlink="http://www.w3.org/1999/xlink" x="0px" y="0px"
	 viewBox="0 0 48 48" style="enable-background:new 0 0 48 48;" xml:space="preserve">
<style type="text/css">
	.st0{fill:#808080;}
</style>
<path class="st0" d="M47.4,25.1c0,0-3.3-3.4-3.2-4.7c0,0,0.8-0.3,0.7,0.9c0,0,0.9-0.2,0.9-1.4c0,0,0-0.7-0.2-1.2c0,0,0.5,0.4,0.6,1
	c0,0,0.5-1.2,0.2-2.5c0,0,0.2,0,0.2,0.4c0,0,0.5-2.2,0.7-3.6c0,0,0.2-0.9-0.2-2c-0.1-0.2-0.1-0.4-0.2-0.7c-0.1-0.5-0.7-1.7-4-3.2
	c-0.3-0.1-0.6-0.3-0.9-0.5c-0.8-0.5-2.7-1.5-5.5-0.9c0,0-4.3-0.1-11.1,3.1c-0.6,0.3-1.1,0.4-1.7,0.5c-1,0.1-3.1,0.7-5.5,3.8
	c0,0-1.3,2.5-3.6,2.9c0,0-0.2-0.4-0.4-0.3c0,0,0.1,0.7-0.9,0.9l-4,0.3c-0.2,0-0.3-0.1-0.3-0.3c0-0.2,0.1-0.4,0.3-0.5
	c0,0,0.9-0.5,1-1.8l0-3c0,0-0.2-0.5-0.6,0.2l-1.3,2.4c0,0-1,1.2-1.2,2.4c0,0-0.4,0.1-0.4-0.3c0,0-0.1-1.5,0.4-2.4
	c0.1-0.3,0.2-0.6,0.2-0.9c0-1.3-0.2-4.4-0.8-4c0,0-1.1,1.1-1.2,3.2c0,0.5-0.1,1-0.1,1.5c-0.2,1.3-0.6,3.4-0.6,3.9c0,0-1.9-5-3-4.9
	c0,0,1.7,3,1.5,4.3c0,0-2.2-4.3-3.5-4.8c0,0,1.6,2.8,1.9,3.6c0,0.1,0.1,0.2,0,0.3c0,0.3,0,0.9,0.3,1c0,0-0.1,0.7,0.2,1
	c0,0,0.1,1.9,0.7,3.5c0.2,0.4,0.2,0.9,0.2,1.3c0,0.8-0.1,2.3-0.5,3.9c0,0-0.2,1.5,1.6,1.6c0,0,0,0.2,0.6-0.1c0,0,1.9-1.6,2.4-2.7
	c0,0,1-2,3.1-2c0,0,6-0.6,8.1-0.2c0.3,0,0.4,0.3,0.4,0.6c-0.1,0.6-0.3,1.6-1.1,3.1c0,0-0.8,1.9-0.8,3.1c0,0.4,0,0.7-0.2,1
	c-0.4,1.1-1.4,3.4-2,4.1c0,0-2,1.5-1.3,1.5c0,0,1.5,0.2,1.9,0c0,0,0.3-0.4,0.7-0.2c0,0,0.2,0,0.2-0.2c0-0.1,0-0.2,0.1-0.3
	c0.2-0.2,0.5-0.7,0.6-1.7c0,0,1.5-4.2,1.9-4.7c0,0,2.3-4.6,2.7-5.6c0-0.1,0.1-0.2,0.2-0.2c0.2,0,0.5,0.1,0.4,0.3
	c0,0,0.1,1.4-0.2,2.7c0,0-0.6,3.5-0.1,4.7c0.1,0.2,0.1,0.3,0.1,0.5c-0.1,0.9-0.3,3.6-0.6,5.1c-0.1,0.5-0.3,1-0.6,1.4
	c-0.5,0.7-1.5,2-0.9,2c0,0,2.4,0.2,1.9-0.5c0-0.1-0.1-0.2,0-0.3c0.1-0.3,0.2-0.5,0.7-0.9c0.2-0.2,0.3-0.4,0.3-0.6
	c0-0.3,0.1-0.7,0.1-1.3c0,0,0.8-9.9,2.1-13.2c0.1-0.2,0.2-0.3,0.4-0.4c1.6-0.4,8.6-2,10.6-3c0.2-0.1,0.5,0,0.6,0.2
	c0.3,0.5,0.9,1.3,2.1,1.9l3.9,3.2c1.2,0.9,1.9,2.4,1.9,4c0,0.4,0,0.8-0.2,1.3c0,0-1,6.2-2.2,7.8c-0.1,0.2-0.2,0.4-0.3,0.6
	c0,0.2-0.1,0.4-0.2,0.6c0,0-0.9,1-0.3,1c0,0,2.3,0.3,2.1-0.6c0,0,0.5,0,0.3-0.6c0-0.1,0-0.2,0-0.3c0.1-0.3,0.2-0.7,0.5-0.6
	c0,0,0.4,0.1,0.4-0.3c0,0,0.2-1.1,0.5-0.7c0,0,0.3,0.5,0.4-0.2c0,0,0.3,0.1,0.3-0.3c0,0,1.3-10.7,1.7-11.4
	C47.9,26.4,48.3,25.8,47.4,25.1z M5.3,23c0,0-0.3-1.5,1.5-1.1C6.8,21.9,7,23.5,5.3,23z"/>
</svg>
