<?xml version="1.0" encoding="utf-8"?>
<!-- Generator: Adobe Illustrator 19.1.0, SVG Export Plug-In . SVG Version: 6.00 Build 0)  -->
<svg version="1.1" id="Layer_1" xmlns="http://www.w3.org/2000/svg" xmlns:xlink="http://www.w3.org/1999/xlink" x="0px" y="0px"
	 viewBox="0 0 48 48" style="enable-background:new 0 0 48 48;" xml:space="preserve">
<style type="text/css">
	.st0{fill:#808080;}
</style>
<path class="st0" d="M40.4,22.8c-1.2,0.2-4.1,0.7-3.5-0.4c0,0,2.5-4,2.5-5c0,0-3.9,4.6-5,2.7l-0.7-2.3c0-0.1,0-0.3,0.1-0.4l0.5-0.5
	c0.1-0.1,0.1-0.2,0-0.3c-0.2-0.2-0.5-0.5-0.9-0.4c-0.1,0-0.2,0-0.3-0.1c-0.2-0.4-0.8-1.2-1.5-1.4c-0.2,0-0.3-0.1-0.4-0.3
	c-0.2-0.3-0.6-0.8-1-0.9c-0.1,0-0.2-0.1-0.2-0.1c-0.4-0.3-1.6-1.1-2.5-1.1c-0.1,0-0.2,0-0.3-0.1c-0.3-0.2-1-0.6-1.9-0.4
	c-0.1,0-0.2,0-0.3,0c-0.3-0.1-1.1-0.4-2-0.1c-0.1,0-0.3,0.1-0.4,0c-0.4-0.1-1.4-0.1-2.1,0.3c0,0-0.5-0.2-3.6,1.8
	c-0.4,0.2-0.7,0.5-1.1,0.8c-1,0.8-3.6,2.8-5.3,2.8c0,0-3.7-0.1-5.9,1.8c0,0-0.8-1.7-3-0.2c0,0,1.2,1.2,1.4,1.9c0.1,0.1,0,0.3,0,0.4
	c-0.4,0.6-1.9,3.3-1.6,5.2c0,0,0.3,1.1-0.1,2c0,0-0.3,0.8,0.1,1.2c0.1,0.1,0.1,0.2,0,0.3c-0.3,0.4-1.2,1.2-0.7,2.4
	c0,0,0.5,1-0.2,1.7c0,0-1,1,0.1,1c0,0,1.2,0.4,1.5,0c0-0.1,0.1-0.1,0.2-0.1c0.1,0,0.1,0,0.2,0c0.3,0.1,1.2,0.3,1.7-0.1
	c0.1-0.1,0.1-0.3,0-0.4c-0.4-0.4-1.4-1.4-1-1.9c0.1-0.1,0.2-0.2,0.3-0.3c0.2-0.3,0.7-0.9,1.4-1.2c0.4-0.2,0.7-0.4,1-0.7
	c0.2-0.2,0.4-0.5,0.5-0.8c0.1-0.2,0.3-0.4,0.5-0.4C7.4,29,8.4,29,8.7,29.7C8.8,29.8,8.9,29.9,9,30c0.1,0.1,0.3,0.3,0.4,0.5
	c0.1,0.2,0.1,0.5,0,0.7c-0.3,0.5-1,2.1,0.1,2.8c0,0,0.5,0.4,0.1,0.8c0,0-0.8,1,0.6,1.1c0,0,0.7,0.1,1-0.1c0.1-0.1,0.2-0.1,0.4-0.1
	l0.3,0c0.1,0,0.2,0.1,0.2,0.2c0,0.1,0.2,0.2,0.7,0.2c0.1,0,0.1,0,0.2,0c0.3,0.2,1.2,0.6,1.7,0c0.1-0.1,0.2-0.1,0.3-0.1
	c0.5,0.2,1.6,0.6,1.7-0.1c0,0,0.1-0.4-0.8-1c0,0-1-1-0.6-1.4c0.1-0.1,0.1-0.2,0.2-0.3c0.1-0.3,0.3-0.8,0.4-1.3
	c0.1-0.2,0.2-0.4,0.5-0.5c0.5-0.1,1.5-0.5,3.3-1.8c0.2-0.1,0.4-0.2,0.6-0.1c0.9,0.2,3.3,0.7,4.5-0.3c0.1-0.1,0.2,0,0.3,0.1
	c0.1,0.3,0.3,0.9,0.6,1.4c0.3,0.5,0.6,1,0.8,1.5c0.1,0.3,0.2,0.7,0.3,1.1c0,0.1,0,0.2,0.1,0.2c0.1,0.1,0.3,0.4,0.2,0.8
	c0,0-0.9,1.5-0.2,1.7c0,0,0.7-0.3,1.2,0.1c0.1,0.1,0.2,0.1,0.3,0.2c0.3,0.1,0.7,0.1,1.1-0.2c0,0,1.8,0.3,1.8-0.2
	c0,0,0.3-0.4-1.2-1.4c0,0-0.7-0.7-0.6-1.5c0,0,0.2-0.1-0.1-0.7c-0.1-0.2-0.2-0.5-0.2-0.7c-0.1-0.8-0.1-2.4,0.2-3.4
	c0-0.1,0.1-0.2,0.1-0.2c0.1-0.1,0.2-0.5-0.1-1.2c-0.1-0.2,0.1-0.3,0.3-0.3c1,0.5,3.5,1.6,4.5,2.8c0.2,0.2,0.5,0.3,0.7,0.2
	c0.2-0.1,0.4-0.2,0.6-0.4c0,0,0.6,1,1.6-0.7c0,0,0.8-1,0.8-1.7c0-0.3,0.1-0.5,0.3-0.7c0.3-0.3,0.8-0.6,1.7-0.9c0,0,7.2-3.9,8-6.3
	c0,0-1.3,1.5-6.7,3.5C41,22.6,40.7,22.7,40.4,22.8z M12.5,34.7c-0.1-0.1-1.2-1.2-0.7-1.8c0,0,1-1.8,1-1.3
	C12.8,31.6,12.4,34.6,12.5,34.7z M31.8,21.4c0,0,0.5-0.3,0.7,0.4C32.5,21.8,31.7,22,31.8,21.4z"/>
</svg>
