<?xml version="1.0" encoding="utf-8"?>
<!-- Generator: Adobe Illustrator 19.1.0, SVG Export Plug-In . SVG Version: 6.00 Build 0)  -->
<svg version="1.1" id="Layer_1" xmlns="http://www.w3.org/2000/svg" xmlns:xlink="http://www.w3.org/1999/xlink" x="0px" y="0px"
	 viewBox="0 0 48 48" style="enable-background:new 0 0 48 48;" xml:space="preserve">
<style type="text/css">
	.st0{fill:#808080;}
</style>
<path class="st0" d="M40.4,2c0,0-0.1-0.4-0.5-0.5c0,0-1.5-2.9-5.2-0.7c0,0-2.1,0.8-4.5,7.5c0,0-0.8,3.6-5,6.7
	c-0.4,0.3-0.9,0.6-1.3,0.8c-1.3,0.8-5.3,3.1-6.5,5.2c-0.3,0.5-0.6,0.9-1,1.4c-1.7,2-6.2,7.5-6.1,11.2c0,0,0.4-0.4,0.8-0.4
	c0.1,0,0.2,0.1,0.2,0.2c-0.4,1.1-2.6,6.8-5.1,9.7c0,0-0.8,1.1-0.1,1.1c0.1,0,0.2,0.1,0.2,0.2c-0.1,0.3-0.1,0.8,0.7,0.4
	c0.1,0,0.2,0,0.2,0.1c0,0.3,0.1,0.6,1.5-0.5c0.1-0.1,0.2-0.1,0.3-0.1c0.2,0,0.3,0.2,0,1c-0.1,0.1-0.1,0.3,0,0.4c0.1,0.2,0.3,0.3,1-1
	l-0.1,0.9c0,0.1,0.1,0.2,0.2,0.1c0.7-0.4,3.1-1.7,4-3.9c0.1-0.4,0.4-0.6,0.7-0.8c1-0.5,3.1-1.7,3.6-2.7c0.1-0.2,0.3-0.2,0.4-0.2
	c0.5,0.2,1.3,0.5,1.8,0.3c0.1,0,0.2,0,0.2,0.1c0.1,0.5,0.3,1.6,1,2.8c0.1,0.3,0.3,0.5,0.4,0.8c0.3,0.9,1,2.7,1.3,3.6
	c0.1,0.4,0.1,0.8,0,1.2l0,0c0,0-0.9,0.5-0.8,0.9c0,0,0.3-0.2,0.5-0.1c0,0,0.1,0,0.1,0.1c0.3,0.1,1.6,0.4,2-0.1c0,0,0.2-0.1,0.3,0.1
	c0,0.1,0.1,0.1,0.2,0.1c0.7,0,3.9,0.1,4.1-0.1c0,0,0.5-0.1,0.6,0.1c0,0,0.2,0.1,0.4-0.1c0,0,0.4-0.3,0.7,0c0,0,0-0.1,0.1-0.2
	c0,0,0-0.1,0.1-0.1H33c0.2,0,0.3-0.1,0.3-0.3c0-0.1,0.1-0.3,0.3-0.2l1,0.5c0,0-0.4-1.3-1.8-1.3c0,0-0.9,0-1.6,0.3l-1.3,0.1
	c-0.2,0-0.3,0-0.4-0.1c-0.3-0.2-0.9-0.5-1.9,0c0,0-0.7,0.3-1-0.9c0,0-1.9-4.7-1.6-5.1c0,0,0.7-1,0.9-1.9c0.1-0.3,0.2-0.5,0.3-0.7
	c0.4-0.5,1.3-1.5,2.6-2.5c0,0,10-7,8-19.6c0,0-0.9-8.8,1.3-10.1c0,0,0.1,0,0.1,0l-0.1,0.5c0,0,0,0,0,0c0.2-0.4,0.7-1.5,1-0.6
	c0,0,0.1,0,0.1,0l0.2-0.3c0-0.1,0.1-0.1,0.2,0c0.1,0.1,0.1,0.2,0.2,0.4c0,0,0.2-2.2,1-2.3c0,0,1.2-0.1,1.5,0
	C42.2,3.8,41.9,2.2,40.4,2z M23,40.6c1,1.4,1.6,4.9,1.6,4.9C23.3,43.8,23,40.6,23,40.6z M38.3,2.5c-0.4,0-0.7-0.2-0.7-0.5
	c0-0.3,0.3-0.5,0.7-0.5c0.4,0,0.7,0.2,0.7,0.5C38.9,2.3,38.6,2.5,38.3,2.5z"/>
</svg>
