<?xml version="1.0" encoding="utf-8"?>
<!-- Generator: Adobe Illustrator 19.1.0, SVG Export Plug-In . SVG Version: 6.00 Build 0)  -->
<svg version="1.1" id="Layer_1" xmlns="http://www.w3.org/2000/svg" xmlns:xlink="http://www.w3.org/1999/xlink" x="0px" y="0px"
	 viewBox="0 0 48 48" style="enable-background:new 0 0 48 48;" xml:space="preserve">
<style type="text/css">
	.st0{fill:#808080;}
</style>
<path class="st0" d="M46.6,12.5c-2.3-0.9-12-3.8-26.7,3.7c-0.2,0.1-0.4,0.1-0.7,0.1c-0.4,0-1-0.2-1.4-0.7c0,0-0.2-0.5-0.7-0.3
	c0,0,0-1,0.6-2.1l0.9-2.4c0,0,0.3-0.5,0.3-1c0,0,0.1-0.6,0.6-0.5c0,0,0.6,0,0.1-0.3c0,0-0.7-0.2-0.9,0.8l-0.9,2.3l-0.8,2l-0.2,1
	c0,0-0.2,0.3-0.3-0.1c0,0-0.2,0.1-0.2,0.3c0,0-0.4,0.6-0.6,0.2c0,0-0.2-0.1-0.3,0l-2.6,0.1c0,0-1.8,0-2.5,0.3c0,0-1.1,0.2-2,0.1
	c0,0-0.6,0.1-0.8,0.4c0,0-0.7,0.8,0,0.7c0,0,0.3-0.8,1.1-0.9c0.8,0,1.7,0,2.2-0.1l2.9-0.3c0,0,1.7-0.1,1.9,0c0,0,0.4,0.2,0.2,0.5
	c0,0-0.3,0.5,0.4,1c0.1,0,0.1,0.1,0,0.2c0,0.1-0.1,0.1,0,0.2c0,0.1,0,0.1-0.1,0.2c-0.1,0-0.3,0.1-0.3,0.3c0,0.1-0.1,0.1-0.2,0.1
	c-0.2,0.1-0.6,0.2-0.9,0.4c0,0-3.9,2-6.9,5.1c-0.1,0.1-0.3,0.3-0.4,0.4c-0.9,0.9-5.2,5.1-6.5,9.1c0,0-2.8,5.1,1.4,5.6
	c0,0,3.3-0.2,5.7-1.9c0,0,2.1-1.3,3.6-1.1c0,0,1.3,0,1.5-0.4c0,0,1.8,1.7,4.5,1.8c0.4,0,0.8,0,1.2-0.2c0.7-0.2,2.1-0.6,3.2-0.4
	c0,0,0.5,0,0.8-0.3c0.1-0.1,0.3-0.2,0.5-0.3c0.4,0,1-0.2,1.3-0.5c0.1-0.1,0.3-0.2,0.5-0.1c0.2,0.1,0.6,0,1.2-0.4
	c0,0,0.9-0.5,0.4-1.5L25.2,31c0-0.1-0.1-0.2,0-0.3c0-0.1,0.1-0.3,0.3-0.2c0.1,0,0.1,0.1,0.1,0.2c0.3,0.5,2.2,4,7.2,1.3
	c0,0,5.3-2.4,5.9-6.4l0.3-2.9c0-0.5,0.3-0.9,0.7-1.2c0.3-0.2,0.7-0.5,0.9-0.9c0.2-0.3,0.4-0.5,0.7-0.6c1.4-0.6,5.2-2.5,6.3-4.3
	c0-0.1,0.1-0.1,0.1-0.2c0.2-0.2,0.7-1.2,0-2.2C47.4,13,47,12.7,46.6,12.5z"/>
</svg>
