<?xml version="1.0" encoding="utf-8"?>
<!-- Generator: Adobe Illustrator 19.1.0, SVG Export Plug-In . SVG Version: 6.00 Build 0)  -->
<svg version="1.1" id="Layer_1" xmlns="http://www.w3.org/2000/svg" xmlns:xlink="http://www.w3.org/1999/xlink" x="0px" y="0px"
	 viewBox="0 0 48 48" style="enable-background:new 0 0 48 48;" xml:space="preserve">
<style type="text/css">
	.st0{fill:#808080;}
</style>
<path class="st0" d="M47.7,29.8c0,0-0.6-2.5-1.6-3.9c-0.2-0.2-0.3-0.5-0.5-0.7c-0.5-0.9-1.7-3-2-3.8c0,0-1.5-3.4-5.2-4.1
	c0,0-3.5-0.5-6.1-1.8c0,0-1.6-1-3.4-0.7c-0.2,0-0.3-0.1-0.4-0.2c-0.3-0.7-0.8-2.5,0.7-3.7c0.5-0.4,1-0.6,1.6-0.7
	c0.4-0.1,1.1-0.3,1.4-0.7c0,0,0.7-0.9,0.3-0.6c0,0-0.7,0.9-1.9,1c0,0-1.9,0.4-2.5,1.5c0,0-1.1,1.3-0.4,3.5c0.1,0.2,0,0.4-0.2,0.5
	c-0.9,0.5-3.4,2.1-2.1,5c0,0-4.7-2.2-9.2,1c0,0-4.1,2.5-1.5,6.5c0,0,0.9,1.3,2.7,2.7c0,0,0.9,0.6,0.5,1.3c0,0-0.6,1.2-2,1.5
	C15,33.2,14,33,13.3,32.3c-0.5-0.5-1.1-1.1-1.6-2.1c0,0-1.1-1.9-3.2-2.8c0,0-1.5-0.8-2.2-1.5c-0.1-0.1-0.3-0.3-0.4-0.4
	c-0.9-0.6-3.7-2.2-4.8-0.7c0,0-0.1,0.1-0.2,0c-0.2-0.1-0.7-0.5-0.6-1c0,0-0.3,0.4,0.1,0.9c0,0-0.3-0.3-0.5-0.1c0,0,0.3,0.1,0.4,0.2
	c0,0,0.2,0.2,0.5,0.4c0.1,0,0.1,0.1,0.2,0.2c0.1,0.2,0.2,0.5,0.6,0.7c0,0,1.8,1.3,3.5,1.8c0.2,0.1,0.4,0.1,0.6,0.3
	c0.6,0.4,2.1,1.3,2.6,1.6c0,0,1.5,1.2,2.2,2.7c0.1,0.2,1.4,3.6,5,3.6c0,0,3.5,0,4.7-2.1c0.1-0.2,0.3-0.4,0.4-0.7
	c0.5-0.7,1.3-2.6-0.9-5.2l-2-1.6c0,0-1.6-0.9-0.1-2.3c0,0,1.5-1.2,4-1.2c1.4,0,2.8,0.4,4,1.2c1.1,0.7,2.9,2,3.7,2.9
	c0,0,2.2,2,2.6,4.8c0,0,0.1,5,4.6,6.7c0,0,3.9,2.3,8.6-1.1C45.1,37.5,49.1,34.7,47.7,29.8z M27.4,19.1c0.4-1.2,2.2-1.4,2.2-1.4
	c0.7,2.1,3.9,1.6,3.9,1.6c0.5,0.2,2,0.5,2,0.5c2,0.2,2.9,0.8,3.1,1c0,0,0,0,0,0c-0.7,2.5-6,1.3-6,1.3c-3.1-0.9-4.7-2.2-5.2-2.6
	C27.4,19.5,27.3,19.3,27.4,19.1z M44.9,31.9c-1.2,3.5-4.5,3.5-4.5,3.5c-4.9,0.1-4.9-3-4.9-3c-0.2-1.2-1.7-4.9-1.7-4.9
	c-0.7-1.8-3.1-3.7-3.1-3.7c7.9,2.2,9.3-1.9,9.3-1.9c0.7,0.6,1.7,2.5,1.7,2.5c0.4,1.2,2.1,4.1,2.1,4.1C45,30.1,44.9,31.9,44.9,31.9z"
	/>
</svg>
