<?xml version="1.0" encoding="utf-8"?>
<!-- Generator: Adobe Illustrator 19.1.0, SVG Export Plug-In . SVG Version: 6.00 Build 0)  -->
<svg version="1.1" id="Layer_1" xmlns="http://www.w3.org/2000/svg" xmlns:xlink="http://www.w3.org/1999/xlink" x="0px" y="0px"
	 viewBox="0 0 48 48" style="enable-background:new 0 0 48 48;" xml:space="preserve">
<style type="text/css">
	.st0{fill:#808080;}
</style>
<path class="st0" d="M22.3,22.7c0,0-11.6-16.5-20.7-14.5c-0.2,0-0.4,0.1-0.5,0.2c-0.6,0.5-1.7,1.9-0.6,5.9c0,0,2.2,11.4,11.2,11.2
	c0,0-6.7,3.4-5.8,7.2c0,0,0.6,8.6,10,7c0.9-0.2,1.7-0.6,2.3-1.3c0.7-0.8,1.5-2.3,2.3-4.7l1.7-4.9c0,0,1.3,0.4,1.6,4.2
	c0,0-0.2,4-0.4,4.9c0,0-0.6,1.6,0.6,1.8c0,0,0.4,0.8,0.8,0c0,0,1-0.5,0.3-2.3c0,0-0.4-7.8,0.9-8.8c0,0,1.1,4.3,1.4,5.2
	c0,0,1,5.5,2.6,6.1c0,0,8.3,1.7,10.8-4.6c0,0,3.9-5.3-4.7-9.1c-0.2-0.1-0.2-0.4,0-0.4c1.1-0.2,3.3-0.7,5.2-1c0,0,2.4,0.1,4.7-5.5
	c0,0,4.8-10.5,0.1-11.1c0,0-4.9-0.9-10.7,4.5c0,0-7.1,7.1-8.8,10.1c0,0.1-0.1,0.1-0.2,0c-0.2-0.1-0.5-0.4-0.9-0.5
	c0,0-0.1-0.1-0.1-0.1c0-0.2,0-0.5-0.4-0.6c0,0,0,0,0-0.1v-0.2c0-0.1,0-0.1,0.1-0.1c0.1-0.1,0.3-0.3,0.3-0.9c0-0.1,0-0.2,0-0.3
	c0.1-0.4,0.5-1.2,1.6-2.1c0,0,1-1,1-1.4l-1.4,1.1c0,0-1.8,1.4-1.7,3.3c0,0.1-0.1,0.2-0.2,0.3c-0.1,0-0.2,0-0.3-0.1
	c0,0-0.1-0.1-0.1-0.1c0-0.2-0.2-1-0.7-1.6c0,0-1.7-2.6-2.7-2.8c0,0,0.9,1.5,1.7,2.1c0,0,1,1.2,1.1,1.7c0,0,0.2,0.6,0.4,0.8
	c0,0,0.1,0.1,0.1,0.1l0,0.1c0,0.1-0.1,0.1-0.1,0.1c-0.2,0.1-0.6,0.2-0.5,0.6C23.3,22.2,22.6,22.3,22.3,22.7z"/>
</svg>
