<?xml version="1.0" encoding="utf-8"?>
<!-- Generator: Adobe Illustrator 19.1.0, SVG Export Plug-In . SVG Version: 6.00 Build 0)  -->
<svg version="1.1" id="Layer_1" xmlns="http://www.w3.org/2000/svg" xmlns:xlink="http://www.w3.org/1999/xlink" x="0px" y="0px"
	 viewBox="0 0 48 48" style="enable-background:new 0 0 48 48;" xml:space="preserve">
<style type="text/css">
	.st0{fill:#808080;}
</style>
<path class="st0" d="M48,20.8c0,0,0-0.2-0.4-0.2c-0.1,0-0.3,0-0.4-0.1c-0.4-0.1-1.2-0.5-1.7-1l-0.4-0.4c-0.4-0.5-0.7-1-1-1.6
	c-0.2-0.4-0.4-1-0.7-1.3c0,0-1.8-3.3-5.8-4.2c0,0-5.7-0.5-7.3-1.2c0,0-1-0.3-2.7,0.4c0,0-5.3,1.9-7.4,1c0,0,0.1-0.2-0.2-0.2
	c-0.2,0-0.4,0-0.5,0c-0.7-0.1-2.4-0.4-3.8,0.1c-0.2,0.1-0.4,0.1-0.7,0.1c-0.5,0-1.3,0.1-1.9-0.1c0,0-0.8-0.5-1.2,0
	c0,0-1.2-0.3-2.1,0.6c0,0-0.7,0.8-0.9,1.7c0,0-0.9-0.1-0.9,0.7c0,0-0.7,0.4-1.3,0.1L4,14.1c-0.2-0.1-0.3-0.2-0.4-0.4l0,0
	c-0.1-0.2-0.3-0.3-0.5-0.3c-0.5-0.1-1.2-0.2-1,0.2c0,0,0.2,0.8,0.8,0.9c0,0-0.6,0.5,0.1,0.5c0,0,0,0.1,0,0.2c-0.1,0.2-0.1,0.5,0,0.7
	c0.3,0.4,0.9,1,2.5,1.2c0,0-0.4,0.7-0.4,1.5c0,0-0.1,1.4-1.2,2.6c-0.2,0.2-0.4,0.3-0.7,0.4c-0.1,0-0.3,0.2-0.4,0.5
	c0,0-0.2,0.9-1,0.6c0,0-0.9-0.3-1.5-0.6c-0.1-0.1-0.3,0-0.3,0.1c-0.1,0.2-0.1,0.5,0.3,1.2c0,0,1.5,2.1,0.2,4c0,0-0.4,0.5,0.4,1.4
	c0,0,0.2,0.6,0.8,0.4c0,0,1,0.4,1.7,0.2c0.1,0,0.3,0,0.4,0c0.3,0.1,1,0.3,1.7-0.4c0.1-0.1,0.3-0.2,0.5-0.3c0.6-0.1,2.2-0.7,4-3.5
	c0.1-0.1,0.3-0.2,0.4-0.1c0.3,0.1,0.9,0.2,1.8,0c0.2,0,0.4,0,0.5,0.2c0.1,0.2,0.4,0.4,1,0.3c0.2,0,0.3,0.1,0.4,0.2l0.8,1.6
	c0.1,0.3,0.1,0.5,0,0.8c-0.3,0.5-0.7,1.5-0.7,2.3c0,0-0.2,1.2-0.2,2.1c0.1,0.8-0.2,1.6-0.7,2.3c-0.1,0.1-0.2,0.2-0.3,0.3
	c0,0-1.2,1.4-0.4,1.6c0,0,2.5,0.5,2.9,0.2c0,0,1.8,0.5,2.2-0.3c0,0,2.7,0.4,2.8-0.3c0,0,0.9,0,0.3-0.9c0,0-1.5-1.7-1-2.1
	c0,0,0.7-2.4,0.1-4c0,0-0.2-1.8,0.3-1.5c0,0,10.7,2.7,14.3-2.2c0.1-0.1,0.3-0.2,0.4-0.1c0.5,0.4,1.6,1.1,2.5,1.4
	c0.2,0.1,0.4,0.3,0.5,0.6c0.2,1.5,0.4,5.9-2.4,7.1c-0.1,0-0.2,0.1-0.2,0.2c-0.2,0.3-0.9,1.2-0.3,1.2c0,0,2,0,2.4-0.2
	c0,0,0.2,0.4,1.3,0c0,0,2.7,0.4,2-0.7c0,0-1-1.2-0.8-1.5c0,0,1.1-1.7,1.8-2c0,0,1-0.5,0.1-2c0,0,0.8,0.8,2.2,3.7
	c0,0,0.8,2.3,1.2,1.7c0,0,2.3-2.2,1-4.7c0,0-0.5-0.8-0.9-0.2c0,0-0.8-0.5-0.3-2.4c0,0,0.6-1.4-1.1-1.8l-1.4-0.6
	c-0.2-0.1-0.3-0.3-0.2-0.5c0.4-1.1,1.6-4.2,1.7-5.5c0-0.2,0.2-0.2,0.3-0.1c0.8,0.7,2.8,2.3,3.1,2.4c0,0,0.5-0.5,0.1-0.9
	C47.6,20.7,47.9,20.7,48,20.8z M6.6,22.9c0,0,0.4-0.6,0.8-0.2C7.4,22.7,6.9,23.2,6.6,22.9z"/>
</svg>
