<?xml version="1.0" encoding="utf-8"?>
<!-- Generator: Adobe Illustrator 19.1.0, SVG Export Plug-In . SVG Version: 6.00 Build 0)  -->
<svg version="1.1" id="Layer_1" xmlns="http://www.w3.org/2000/svg" xmlns:xlink="http://www.w3.org/1999/xlink" x="0px" y="0px"
	 viewBox="0 0 48 48" style="enable-background:new 0 0 48 48;" xml:space="preserve">
<style type="text/css">
	.st0{fill:#808080;}
</style>
<path class="st0" d="M47.8,18.1c0,0-0.6-1-0.8-1.5c0,0-0.5-1.5-2.7-2.4c-0.1,0-0.2-0.1-0.2-0.3c-0.1-0.4-0.5-1.3-1.1-0.3
	c-0.1,0.1-0.1,0.1-0.2,0.1l0,0c-0.1,0-0.2,0-0.3-0.1c-0.2-0.2-0.9-0.5-1.2,0.1c0,0.1-0.1,0.1-0.2,0.2c-0.5,0.2-2.3,0.5-4.4,0.3
	c-0.1,0-0.2,0-0.2,0c-0.4-0.1-1.7-0.3-3,0.6c-0.3,0.2-0.6,0.3-1,0.3c-1.7-0.1-7-0.3-11.5-0.7c0,0-9.3-0.9-10.5,4.2
	c0,0-0.3,2.2,0,3.6c0.1,0.5,0.1,0.9,0.1,1.4c-0.1,1.3-0.5,3.5-2.3,4.1c0,0-0.4,0-0.5,0.5c0,0.1-0.1,0.2-0.2,0.2
	C7,29,4.1,30.4,2,29.5c0,0-1.1-0.9-1.9-0.2C0,29.3,0,29.4,0,29.5c0.1,0.5,0.4,1.8,2.7,2c0.4,0,0.8,0,1.3-0.1
	c0.9-0.2,2.8-0.5,3.6-0.8c0.1,0,0.2,0,0.2,0.2c0,0.8-0.3,3,0.6,3.4c0,0,0.6,0.9,2.2,0.3c0,0,0.8-0.8-0.3-1.4c0,0-0.2,0-0.5-0.1
	c-0.2,0-0.3-0.2-0.3-0.3c0-0.7,0.2-2.3,0.7-2.7c0,0,4.8-3.1,5.8-4.1c0.1-0.1,0.2,0,0.2,0.1c0,0.7,0,2.9-0.9,3.7c0,0-0.4,0.5,0.1,1
	c0,0,2.6,2.9,3.8,3l2.4-0.1c0,0,0.8-0.9-0.2-1.2c0,0-1.1-0.3-1.3-0.1c0,0-0.2,0.3-0.7-0.1c0,0-1.7-1-1.4-1.7c0,0,2.1-4.1,2.8-5.5
	c0.2-0.5,0.8-0.7,1.3-0.4c0,0,0.1,0,0.1,0.1c0,0,2.7,1.4,4.7,1.3c0.1,0,0.2-0.1,0.2-0.1c0,0,0.2-0.1,0.4,0.1c0.1,0,0.1,0.1,0.2,0
	c0.8-0.2,4.8-1,4.9-0.5c0,0,0,4.5,0.2,5.5c0,0.1,0,0.2-0.1,0.3c-0.1,0.1-0.1,0.3,0.2,0.6c0.1,0.1,0.2,0.2,0.2,0.4
	c0.1,0.4,0.3,1.2,1,1.2c0,0,2.9,0.3,2.7-0.8c0,0,0-0.1,0-0.1c-0.1-0.2-0.8-0.9-1.9-0.6c-0.1,0-0.1,0-0.1-0.1c-0.1-0.3-0.2-1,0-1.8
	l0.8-3.2c0-0.1,0.2-0.2,0.3-0.1c0.6,0.5,2.4,1.9,3.9,2.3c0.2,0.1,0.3,0.2,0.4,0.3c0.1,0.1,0.3,0.3,0.5,0.5c0.3,0.3,0.6,0.6,0.8,0.9
	c0.1,0.1,0.2,0.2,0.3,0.3c0,0,1,1.9,2.5,1.3c0,0,1.3-0.4-0.1-1.9L43.7,30c0,0-0.1-0.6-0.7-1c-0.3-0.2-0.6-0.5-0.9-0.8
	c-0.5-0.5-1.1-1.3-1.5-1.6c0,0-2.2-1.7-1.8-2.7c0,0,0.6-3.2,1.2-3.7c0.2-0.2,0.3-0.4,0.5-0.6c0.3-0.4,0.8-0.9,1.1-0.8
	c0,0,3.2,0.7,3.9,1.6c0,0,0.7,0.3,1.2-0.4c0-0.1,0.1-0.1,0.2-0.2c0.2-0.1,0.4-0.2,0.5-0.4c0.1-0.1,0.1-0.2,0.3-0.3
	C47.9,19.1,48.2,18.8,47.8,18.1z M46.1,17.1c0,0-0.3,0.6-0.6-0.3C45.5,16.8,46.2,16.5,46.1,17.1z"/>
</svg>
