<?xml version="1.0" encoding="utf-8"?>
<!-- Generator: Adobe Illustrator 19.1.0, SVG Export Plug-In . SVG Version: 6.00 Build 0)  -->
<svg version="1.1" id="Layer_1" xmlns="http://www.w3.org/2000/svg" xmlns:xlink="http://www.w3.org/1999/xlink" x="0px" y="0px"
	 viewBox="0 0 48 48" style="enable-background:new 0 0 48 48;" xml:space="preserve">
<style type="text/css">
	.st0{fill:#808080;}
</style>
<path class="st0" d="M46.3,31.8c0,0-2.8-3-2.9-4.4c0,0-0.5-2.3,1-4c0,0,2.1-3.3,0.7-5.8c0,0,0.2-2.1-1.9-2.6c0,0-2.3-2.6-7.2-2
	c0,0-6.3,0.4-9.4,1.2c-1,0.3-2.1,0.4-3.1,0.4c-0.8,0-1.7,0-2.2-0.1c0,0-1.5-0.9-4,1c0,0-3,1.5-3.5,0.4c0,0-0.9-2.5-1-3.6
	c0-0.3,0.1-0.6,0.3-0.7c0.3-0.2,0.7-0.5,0.9-0.8c0,0,0.8-0.6,2-1c0.3-0.1,0.6-0.2,0.8-0.4C17.4,9,18,8.4,18.4,7.7
	c0.1-0.2,0-0.4-0.2-0.4c-0.4-0.1-1.2-0.2-2.3,0.5c0,0-1.5,0.8-2.2,1.2c-0.2,0.1-0.4,0.2-0.6,0.2c-0.1,0-0.3,0-0.4,0
	c-0.1,0-0.3-0.1-0.2-0.3c0.1-0.6,0.3-2.2,1-2.9c0,0,1.1-1.7,1.3-2.5c0,0,0.6-1.9-0.4-2.8c0,0-1-1.2-2-0.6c0,0,1.4,0.3,1.6,1.3
	c0,0,0.5,1-0.6,2.4l-1.7,2c0,0-0.9,0.5-1,2.7c0,0.1-0.1,0.1-0.1,0.1c-0.1,0-0.4,0-0.6,0.1c-0.1,0-0.1,0-0.1-0.1
	c0-0.5-0.2-1.9-0.8-2.4c0,0-1.7-1-2.5-3.2c0,0-1-2.5,1.7-2.5c0,0-0.7-0.8-1.8,0c0,0-1.8,1-0.5,4c0,0,1.5,2.3,1.7,3c0,0,0,0.1,0,0.1
	l0.3,1.6c0,0.1,0,0.2-0.1,0.2C7.9,9.5,7.5,9.4,7.2,9.2c0,0-0.7-0.7-1-0.6L6.3,9c0,0-4.4-2-5-1.7c0,0,1.2,2.2,3.2,2.7
	c0,0,1.4,0.4,2,0.9c0,0,0.8,1.2,1.3,0.7l0.1,1c0,0,0,1.6,0.3,3.2c0,0,0.8,7,5.5,9.2c0,0,0.7,0.4,1.4,0.8c1.1,0.7,1.7,1.9,1.8,3.2
	l0.2,4.5c0,0-0.5,1.5,0,2.6c0,0,0.2,7.8-1,9.2c0,0-1.5,1.3-1.4,1.9c0,0-0.4,0.9,1.2,0.7c0,0,0.6,0,0.6-1.2c0,0,0.5-0.5,1.5-1
	c0.1,0,0.4,0,0.3-1.3c0,0,0.3-12.1,1.4-15.6c0-0.1,0.2-0.1,0.2,0c0.1,1.4,0.5,5.3,0.4,6.1c0,0-0.2,1.1,0.5,2.1c0,0,1.1,7,0.7,8.8
	c0,0-1.4,1.8-0.7,2c0,0,1.1,0.4,1.4-0.4c0,0,0.8-1.4,1.2-1.4c0,0,0.1-0.4-0.2-1.3c0,0-1.8-11.6-0.1-16.6c0.1-0.4,0.5-0.6,0.9-0.7
	c1.4-0.1,4.6-0.2,6.3,0c0,0,3.9,0.3,5.5-1.6c0,0,0.8,1,2.5,2.4c0,0,4.7,4,4.7,6.1c0,0,0.3,3-1.2,7.8c0,0-0.4,1.9-0.9,2.6
	c0,0-1.3,1.2-0.9,1.8c0,0,0.9,0.6,1.5-0.1c0,0,0.1-1.1,0.8-1c0,0,0.5,0.3,0.7-0.2l0.4-3l1.3-5.6c0,0-0.4,7.9-0.6,8.4
	c0,0-1.2,1.4-0.7,2.2c0,0,2.3,0.7,1.7-0.5c0,0-0.3-0.9,0.4-0.8c0,0,0.9-0.2,0.2-0.8c0,0,0.3-11.3,1.1-12.8
	C46.7,32.5,46.8,32.2,46.3,31.8z M7.8,11.6c0,0,0.5,0.3,0.5,0.6C8.3,12.1,7.9,12.5,7.8,11.6z M12.2,12.2c0,0,0.2-0.6,0.4-0.6
	C12.6,11.6,12.8,12.2,12.2,12.2z"/>
</svg>
