<?xml version="1.0" encoding="utf-8"?>
<!-- Generator: Adobe Illustrator 19.1.0, SVG Export Plug-In . SVG Version: 6.00 Build 0)  -->
<svg version="1.1" id="Layer_1" xmlns="http://www.w3.org/2000/svg" xmlns:xlink="http://www.w3.org/1999/xlink" x="0px" y="0px"
	 viewBox="0 0 48 48" style="enable-background:new 0 0 48 48;" xml:space="preserve">
<style type="text/css">
	.st0{fill:#808080;}
</style>
<path class="st0" d="M39,37.2c0,0-2.8-4.1-3.3-5.1c-0.1-0.1,0-0.2,0.1-0.2c0.2,0,0.5,0,0.8,0.2c0,0,1.1,0.3,0.8-0.6
	c0,0-0.1-0.7-1.4-1.4c0,0-1.4-0.8-1.9-1.2c-0.1-0.1-0.3-0.2-0.4-0.3c-0.8-1-5-6-9-8.5c0,0-4.6-3.1-7.1-5.6c-1.1-1.1-1.8-2.4-1.9-3.9
	c-0.1-1-0.2-2.4-0.1-4.1c0,0,0.3-3.1-1.8-5.3c-0.5-0.6-1.3-1-2-1.1c-0.7-0.1-1.7,0-2.4,0.7c0,0-0.5,0-0.8,0.3c0,0-1.8-0.4-2.6,0.9
	l0.3,0c0,0,0.4,0.3,1.1,0.6c0.2,0,0.3,0.2,0.3,0.3L8,3c0,0.1,0,0.3,0,0.5C7.8,3.8,7.6,4.2,7.7,4.4c0,0,0.5,1.1,1.5,1.9
	c0.3,0.2,0.4,0.7,0.3,1c-1.3,3.2-6.2,17.5,5.9,27.9c0,0,2.7,2.5,1.8,4.5c-0.1,0.2-0.2,0.5-0.2,0.7c0,0.6,0,1.4,0.5,1.5
	c0,0-3.3,4.3-4.2,4.5c-0.1,0-3.5,0.4-5.1,0.1c0,0-0.6-0.1-0.8,0.1c0,0-1.4,0.1-1.5,1c0,0,0.8-0.6,1.4-0.5c0,0,0,0.7,0.6,0.4
	c0.1,0,0.2-0.1,0.3-0.1c0.3,0,0.9,0,1.1,0.2c0,0,0.2,0.1,0.5,0.1l0,0.2c0,0,0.2,0,0.3-0.2c0,0,0.1-0.1,0.1,0
	c0.2,0.1,0.5,0.1,1.1,0.1c0,0,3.7,0.2,3.7-0.2c0,0,0.2-1.1,1.1-0.5c0,0,0.1,0,0.2,0c0.1,0,0.4,0,0.5,0.3c0,0-0.1,0.1-0.1,0.2
	l0.1-0.1c0,0,0,0,0.1,0l0.1,0.1c0,0,0.1-0.5,0.9-0.4c0,0-0.1,0.7,0.7,0.4c0.1,0,0.1,0,0.2,0c0.3,0.1,1.3,0.2,1.7,0.2
	c0.1,0,0.1,0,0.1,0.1l0,0.2c0,0,0.4-0.3,0.5-0.2c0,0,0.1,0.2,0.6,0.2l2.1-0.1c0.1,0,0.2,0,0.3-0.1c0.1-0.1,0.4-0.2,0.8-0.2
	c0,0,0.7-0.1,0.6-0.9c0,0-0.2-1.3,1.1-0.5c0,0,0.2-0.8-1-1c0,0,1.2-5.9,0.7-7.6c0-0.2,0.1-0.3,0.3-0.3c0.8,0.1,2.6,0.2,3.6-0.9
	c0.1-0.1,0.3-0.1,0.4,0.1c0.2,0.5,0.7,1.5,2,2.2l-0.4-1.2c0-0.1,0.1-0.1,0.1-0.1c0.4,0.5,1.2,1.5,1.9,1.9l-0.5-1
	c0-0.1,0-0.1,0.1-0.1l2.1,1.3c0,0-0.2-0.4,0.1-0.5c0.1,0,0.1,0,0.2,0l3.2,2.5c0.1,0.1,0.2,0,0.1-0.1c-0.1-0.4-0.2-1,0.9-0.2
	c0,0,0.8,0.5,1.7-0.1c0.2-0.1,0.2-0.3,0.1-0.5L39,37.2z M12.1,3.5c-0.4,0-0.7-0.3-0.7-0.6c0-0.3,0.3-0.6,0.7-0.6
	c0.4,0,0.7,0.3,0.7,0.6C12.8,3.2,12.5,3.5,12.1,3.5z M23.5,46.4l-2,0.4c0,0-4-0.4-4.7,0.3c0,0-0.2-0.8-0.9-1c0,0,0.8-1.4,2.1-2.5
	c0,0,3.2-2.6,2.7-5c0,0,1.3-0.9,4,1.9C24.6,40.6,24.3,46.1,23.5,46.4z"/>
</svg>
