<?xml version="1.0" encoding="utf-8"?>
<!-- Generator: Adobe Illustrator 19.1.0, SVG Export Plug-In . SVG Version: 6.00 Build 0)  -->
<svg version="1.1" id="Layer_1" xmlns="http://www.w3.org/2000/svg" xmlns:xlink="http://www.w3.org/1999/xlink" x="0px" y="0px"
	 viewBox="0 0 48 48" style="enable-background:new 0 0 48 48;" xml:space="preserve">
<style type="text/css">
	.st0{fill:#808080;}
</style>
<path class="st0" d="M47.8,9.3c0,0-1.2-2.3-1.5-3.1c0,0-0.1-0.9-0.9-1.4c-0.1,0-0.2-0.1-0.2-0.2c-0.3-0.3-1-1.2-1.6-1.6
	c-0.2-0.1-0.3-0.3-0.3-0.6l0-1c0,0-1.1,0.3-1.4,0.8c0,0-0.4-1-1.1-0.3c-0.2,0.2-0.5,0.3-0.7,0.3c-1.6,0-6.6,0-8.8-0.3
	c-0.2,0-0.3,0-0.5-0.1C30,1.9,26.8,1.6,24.1,5c0,0-1.8,1.8-6.1,3.7c-1.6,0.7-3.1,1.6-4.5,2.8c-2.7,2.3-6.5,6.3-6.9,10.8
	c0,0.1,0,0.1,0,0.2c0,0.4-0.3,2.8-2.5,5c0,0-4.6,4.2-4,6.5c0,0-0.1,2.6,6.2,4.5c0,0,8,2,9.5,4.1c0,0,0.1,0.4-0.1,0.9
	c-0.2,0.5-0.3,1.1-0.2,1.6c0.1,0.7,0.4,1.3,1.1,1.5c0,0,2.4,0.5,2.2-2.3c0,0,0.3-3.3-4.2-5.1L4.3,34.9c0,0-2.3-0.9-0.5-2.3
	c0,0,1.4-1.9,3.5-0.7c0.9,0.5,1.8,0.8,2.8,0.8c1.4,0.1,3.3,0.1,4.6-0.1c0.3,0,0.7,0,1,0c0.8,0.1,2.4,0.3,3.2-0.2
	c0,0,1.5-0.9,0.6-1.8c-0.2-0.2-0.2-0.6,0-0.8c0.3-0.3,0.6-0.9,0.8-1.6c0.2-0.6,0.6-1.2,1.2-1.6c1.4-1,3.9-2.9,4.3-3.9
	c0,0,1.6-1.5,1.4,1.4c0,0-0.4,0.9,0.3,1.9c0,0,0.1,1.8,1,2.9c0,0,0.1,2.8,2.3,3c0,0,6.9-0.2,1.3-2.9c-0.2-0.1-0.3-0.2-0.3-0.4l0,0
	c0,0,1.4-0.9,0.5-1.9c-0.4-0.4-0.6-0.9-0.5-1.5c0.1-1.8,0.5-5.6,1.7-7c0,0,1.3-1.8,1.1-3.4c0,0,1.8-0.8,1.5-2.2c0,0,0.3-3.7,2.8-2
	c0,0,3.3,1.5,3.5,2.2c0,0,0.4,1.4,1.7,0.9c0,0,0.6-0.5,0.7-0.8c0.1-0.1,0-0.3-0.2-0.3l-0.3,0c-0.1,0-0.1-0.1,0-0.1
	c0.1-0.1,0.2-0.2,0.1-0.3c0,0,0-0.1,0-0.1c0.2,0,0.9-0.1,1.4-0.1c0.3,0,0.7-0.2,0.9-0.4c0.3-0.3,0.7-0.6,0.8-0.7
	C47.5,10.9,48.4,10.3,47.8,9.3z M45.5,7.8c0,0-1-0.1-1-1C44.5,6.8,45.7,6.9,45.5,7.8z"/>
</svg>
