<?xml version="1.0" encoding="utf-8"?>
<!-- Generator: Adobe Illustrator 19.1.0, SVG Export Plug-In . SVG Version: 6.00 Build 0)  -->
<svg version="1.1" id="Layer_1" xmlns="http://www.w3.org/2000/svg" xmlns:xlink="http://www.w3.org/1999/xlink" x="0px" y="0px"
	 viewBox="0 0 48 48" style="enable-background:new 0 0 48 48;" xml:space="preserve">
<style type="text/css">
	.st0{fill:#808080;}
</style>
<path class="st0" d="M20.3,45.7c0,0-1.3,0-1.8,0c-0.1,0-0.2,0.1-0.2,0.2l0,0.1c0,0-2.1,0.3-2.6,0.8c0,0-0.5,0.2-0.5,0.4
	c0,0,0.3-0.2,0.6,0c0,0,0.2,0.1,0.5,0l0.8,0c0,0,0,0.6,0.4,0.6c0,0-0.4,0.2-0.3,0.5c0,0,0.6-0.2,1-0.2c0,0,1.3-0.3,1.5-0.4
	c0,0,1.3-0.2,1.6-0.5c0,0,1.4-0.6,1.8-1c0.1-0.1,0.1-0.1,0.2-0.1c0.5,0.2,2.2,0.6,3,0.4c0,0,0,0.3,0.1,0.3c0,0,0.3-0.8,0.9-0.7
	c0,0,0.5-0.4-0.3-1.5c0,0-0.3-1.7,0-1.4c0,0,0.3,0.4,0.8,0.3c0,0-0.2-0.4-0.8-1c0,0-0.9-1.5-0.8-1.7c0,0,1,0.2,1.7-0.3
	c0,0,5.8-4.9,6.6-7.5c0,0-0.8-1.2,0.6-1c0,0,0.8-0.3,0.7-0.6c0,0,1.1,0.1,0.8-0.9c0-0.2,0.1-0.3,0.2-0.4c0.4-0.1,1.1-0.4,0.6-1.5
	c-0.1-0.2,0-0.3,0.1-0.5c0.4-0.3,1.1-1,0.8-1.5c0,0,0.3-0.6,0.2-0.9l1.3,0.1c0,0-0.7-0.4-1.3-0.3c0,0,0.9-0.5,0.1-0.7
	c0,0-3.1,0.3-8.4,0c-0.5,0-1-0.1-1.5-0.3c-0.6-0.2-1.6-0.5-2.9-1.1c0,0-3.1-1.2-4.7-1.9c-0.6-0.3-1.1-0.9-1.1-1.6c0-0.2,0-0.4,0-0.6
	c0,0-0.2-1-0.6-2.4c0,0-0.4-5-0.2-6c0,0,0.3-7.8-2.6-9.6c0,0-2.6-1.2-4-0.8c-0.2,0.1-0.4,0.2-0.5,0.4c-0.2,0.3-0.6,0.7-1.6,1
	c0,0-3,0.7-2.8,1.5l0.4,0c0,0,0.2,0.3,0.9,0.3c0.3,0,0.5,0.1,0.8,0.2c0.4,0.2,1.1,0.5,1.7,0.8c0,0,0.2,0.4,1.4,0.6
	c0,0,1.5,0.1,1.9,1.7c0,0.1,0.1,0.2,0.1,0.3c0.2,0.5,0.6,2.1,0.3,4c0,0.3-0.1,0.5,0,0.8c0.1,0.8-0.1,3.6-3.1,11.1
	c0,0-2.9,6.5,2.4,9.7c0,0,1.7,3,3.9,4.8c0,0,1.4,2.6,3.2,2.7c0,0,0.5,0.9,0.2,2.2c0,0-0.8,2.3-1.3,2.7
	C20.5,45.1,20.3,45.7,20.3,45.7z M15.2,1.9c-0.2,0-0.4-0.1-0.4-0.3s0.2-0.3,0.4-0.3c0.2,0,0.4,0.1,0.4,0.3S15.5,1.9,15.2,1.9z
	 M23.2,44.2c-0.3-0.8,0.7-3.8,0.7-3.8c0.6,0.3,0.9-0.1,0.9-0.1l0.2,3C24.8,43.5,23.2,44.2,23.2,44.2z"/>
</svg>
