<?xml version="1.0" encoding="utf-8"?>
<!-- Generator: Adobe Illustrator 19.1.0, SVG Export Plug-In . SVG Version: 6.00 Build 0)  -->
<svg version="1.1" id="Layer_1" xmlns="http://www.w3.org/2000/svg" xmlns:xlink="http://www.w3.org/1999/xlink" x="0px" y="0px"
	 viewBox="0 0 48 48" style="enable-background:new 0 0 48 48;" xml:space="preserve">
<style type="text/css">
	.st0{fill:#808080;}
</style>
<path class="st0" d="M47.1,16l-2.6-1.3c-0.1,0-0.2-0.1-0.2-0.2c0-0.3-0.3-1-1.9-1.7c-0.1,0-0.1-0.1-0.1-0.1c0-0.1,0-0.3,0.2-0.5
	c0,0,1.6-1.6,0.6-3.8c0,0-0.6,3.6-1.5,3.2c0,0-0.1,0-0.1-0.1c-0.1-0.3-0.9-2.3-0.7-4.2c0,0,0.3-4.9-1.6-6c0,0,1.3,3.3,0.6,3.4
	c0,0-0.3,0.5-2-2.6c0,0-0.7-0.4,0.1,1.1c0,0,0.8,2,1.7,2.5c0,0,0.2,0.2,0.1,1.9c0,0,0,2.5,0.3,3.6c0,0-0.3-0.5-0.8-0.5
	c-0.1,0-0.2,0-0.2-0.1l-1.3-2.4c0,0,0.1,1.6,0.4,2.6c0,0.1-0.1,0.2-0.2,0.2c-1-0.3-4.3-1.6-5.4-3.3c0,0-1.4-2.1-1.4-5.3
	c0,0-0.3-0.4-0.3,0.6c0,0,0.4,3,0.1,2.9c0,0-0.9-0.8-0.9-2.4c0,0-0.6-0.2-0.2,1.1c0,0,0.3,1.5,1.3,2.4c0,0,1,3,4.6,4.2
	c0.2,0.1,0.3,0.3,0.2,0.5c-0.2,0.6-0.5,1.8,0.3,2.8c0.1,0.1,0.1,0.4-0.1,0.5c-0.6,0.4-2.1,1.4-3.6,2.2c-0.4,0.2-0.8,0.3-1.3,0.3
	c-1.3,0-4.2,0.2-6.2,0.9c-0.6,0.2-1.2,0.3-1.8,0.4c-1.8,0.2-5.3,0.4-7.9-0.1c0,0-7.2-0.7-11.1,3c0,0-2.8,2.2-1.8,4.9
	c0,0,0.5,1.8,1.6,2.3c0.3,0.1,0.6,0.4,0.7,0.8c0.2,0.9,0.1,2.8-3,5.1c0,0-0.4,0.2-0.4,0.9L0,44.1c0,0-0.2,1.2,0.4,0.6
	c0,0,0.2,0,0.2,0.7c0,0-0.2,0.8,0.7,0.8c0,0,1.2,0.1,1-0.5c0,0-1-1.5-0.6-2.3c0,0,0.9-5.8,2.3-6.9c0,0,5.1-3.4,5.3-4.4
	c0,0,0.7-0.7,1.1,0.9c0,0,0.3,0.6-0.1,1.4c-0.1,0.2-0.3,0.5-0.5,0.7c-0.2,0.2-0.7,0.9-0.4,1.7l2.8,8.6c0,0,0,0.4,0.6,0.3
	c0,0,0.2,1.2,1.7,1c0,0,1.2-0.2,0.5-0.7c0,0-1.8-1.3-2.5-4.9c0,0-1.2-3.5,0-4.5l3.2-4.4c0.1-0.2,0.3-0.4,0.4-0.6
	c0.1-0.1,0.2-0.2,0.7,0c0,0,2.4,1.4,7.1,0.2c0,0,4-0.5,4,0.1l1.1,6c0,0.2-0.1,0.3-0.3,0.4c-0.5,0.1-1.2,0.5-1.1,1.7
	c0,0,1.4-0.7,1.5-0.2c0,0-0.2,4.2,0.3,4.3c0,0,0.4,0.1,0.6,0.3c0,0,0.5,1,2.2,0.4c0,0-0.1-0.6-1.4-1.6c-0.1-0.1-0.2-0.2-0.2-0.4
	c-0.1-0.8-0.4-3.6,0-3.8c0,0,2-1.9,2.3-2.5c0,0,2.9-2.9,1.5-3.7L32.1,31c-0.1-0.1-0.1-0.3,0-0.4c0.5-0.3,1.5-1.1,1.9-1.7
	c0,0,1.1-2.6,3.1-3.7c0.5-0.3,1.1-0.6,1.5-1c0.8-0.7,2-1.6,2.2-2c0,0,0.2-0.9,1.9-1.7c0.2-0.1,0.4-0.2,0.5-0.4
	c0.4-0.6,1.5-2.1,2.5-2c0,0,0.8,0.4,1.3-0.2C47.1,18.1,49.2,16.4,47.1,16z M32.5,34.3c0,0-1.3,2.5-2,2.8l0.5-4
	C31,33.2,32.8,33.6,32.5,34.3z M40.9,15.1c0,0,0.7-1.1,1.7,0.1C42.6,15.2,41.6,16.1,40.9,15.1z"/>
</svg>
