<?xml version="1.0" encoding="utf-8"?>
<!-- Generator: Adobe Illustrator 19.1.0, SVG Export Plug-In . SVG Version: 6.00 Build 0)  -->
<svg version="1.1" id="Layer_1" xmlns="http://www.w3.org/2000/svg" xmlns:xlink="http://www.w3.org/1999/xlink" x="0px" y="0px"
	 viewBox="0 0 48 48" style="enable-background:new 0 0 48 48;" xml:space="preserve">
<style type="text/css">
	.st0{fill:#808080;}
</style>
<path class="st0" d="M47.8,35.5c0,0-3-2-4-10.6c0,0,0.7-8.3-8.2-13.7c-0.1-0.1-0.3-0.2-0.4-0.3c-1.3-0.8-10.2-5.8-21.1,5.2
	c0,0-0.2-1.6-0.5-2.4c0,0,0.1-2-1-1.6c0,0-2.4,1.1-2.3,3.4c0,0-0.1,1.5-0.3,2.2c0,0-0.3,1.1-0.3,1.7c0,0.2-0.2,0.4-0.4,0.3
	c-0.3,0-0.7-0.2-1.2-0.8c0,0-1.9-3.1-3.3-4.1c-0.2-0.2-0.5-0.3-0.7-0.5l-1.9-1.6c-0.1-0.1-0.2,0-0.3,0.1c0,0.3,0,1,0.6,1.8L4,17.9
	c0.2,0.4,0.5,0.9,0.8,1.2c0.3,0.4,0.8,0.8,1.3,1.1c0.2,0.1,0.3,0.2,0.3,0.4c0.2,0.4,0.3,1.2-0.5,2.3c0,0-0.6,0.5-0.6,1
	c0,0.1-0.1,0.2-0.2,0.3c-0.2,0.1-0.6,0.4-0.6,0.9c0,0.4-1.4,2.2-1.4,2.9c0,0-0.6,1.3-1.5,1.7c0,0-2.2,0.5-1.5,2c0,0,0.8,1.8,1.6,1.1
	c0,0-0.1,1.2,0.9,1.3c0,0-0.2-0.4-0.1-0.5c0,0,0.8,0.6,1.9-1.2c0.2-0.4,0.6-0.7,0.9-1c0.5-0.4,1.3-0.9,2.3-1.4c0.5-0.3,1-0.6,1.4-1
	c1-0.9,2.8-2.3,3.8-1.5c0,0,1,0.5,1.6,3.3c0,0,0.6,1.8,1,2.5c0.1,0.2,0.2,0.5,0.3,0.7c0.1,0.7-0.1,1.7-1.6,2.6c0,0-1.9,1-1.6,1.4
	c0,0,0.2-0.1,0.3,0c0,0-0.1,0.3,0.5,0c0.1,0,0.2-0.1,0.3-0.1c0.2,0,0.7-0.1,1,0C14.8,38,15,38,15.1,38c0.7,0.1,2.4,0.1,2.2-0.6
	c0-0.1,0-0.3,0-0.4c0.1-0.2,0.4-0.6,0.7-0.9c0.2-0.2,0.3-0.4,0.4-0.7c0.1-0.4,0.2-1-0.2-1.5c-0.1-0.1-0.2-0.3-0.2-0.5
	c0-0.3,0-0.8,0.3-1.5c0.1-0.2,0.1-0.4,0.2-0.6c0.1-0.4,0.1-1.1,0.1-1.6c0-0.1,0.1-0.2,0.2-0.1c0.3,0.3,0.8,0.9,1.1,2.1
	c0.1,0.2,0.1,0.4,0.2,0.6c0.4,0.8,1.4,3.3,0.7,4.4c-0.1,0.2-0.3,0.3-0.6,0.3c-0.4,0-1.1,0.1-1.5,1c0,0-0.8,0.3-0.7,0.8
	c0,0,0.6-0.4,0.9-0.5c0,0,0.1,0,0,0.1c-0.1,0.1-0.3,0.4-0.2,0.5c0,0,0.9,0.2,1.7-0.3c0,0,0.1,0,0,0c0,0.1-0.1,0.2,0,0.3
	c0,0,1,0.2,1.6-0.5c0,0,0.1-0.1,0.1,0c0.2,0.1,0.8,0.2,1-0.7c0,0,0.1,0,0.1,0c0.2,0.3,0.6,1,0.8,0.3c0-0.1,0.1-0.1,0.1-0.1
	c0.2,0,0.7,0.1,1-0.1c0,0,0.1,0,0.1,0c0.1,0.1,0.3,0.3,1,0c0.1,0,0.1,0,0.2,0c0.1,0.1,0.4,0.2,0.9-0.1c0,0,1.2-1.2,1.2-0.9
	c0,0-0.6,1,0.1,0.6l0.6-0.4c0.1,0,0.2-0.1,0.2-0.1c0.2,0,0.8-0.1,1.1-1.2c0-0.1,0.1-0.1,0.1-0.2c0.1-0.1,0.3-0.4,0.3-0.8
	c0-0.2,0.1-0.4,0.2-0.5c0.1-0.1,0.3-0.3,0.3-0.5c0-0.2,0.2-0.4,0.3-0.6c0.4-0.3,0.9-0.9,1-1.5c0,0,0.3-1.8-0.2-2.8
	c-0.1-0.3-0.2-0.5-0.1-0.8l0.1-0.6c0-0.1,0.1-0.2,0.2-0.3l0,0c0.1-0.1,0.3,0,0.4,0.1c0.2,0.5,0.6,1.6,1.1,2.2
	c0.1,0.2,0.2,0.4,0.3,0.6c0.1,0.3,0.2,0.7,0.2,1c0,0,0.2,3.2-0.6,4.6c0,0-0.9,1.3-0.5,1.9c0,0,0.8,0.6,1.6,0.1c0.1,0,0.2,0,0.2,0
	c0.2,0.2,0.6,0.7,1.4,0c0.1-0.1,0.2-0.1,0.3,0c0.4,0.2,1.4,0.5,1.2-0.4c0-0.1,0-0.2,0.1-0.2c0.1-0.1,0.2-0.3,0.2-0.8
	c0,0,0.3-0.4,0.1-0.9c0-0.1-0.1-0.2-0.1-0.3c-0.2-0.5-0.7-2.2-0.4-3.2c0,0-0.1-3,0.9-5.3c0.1-0.2,0.4-0.3,0.6-0.1
	c0.3,0.4,0.9,1.1,1.3,2c0,0,3.7,7,6.2,8C46.9,36.4,48.5,36.6,47.8,35.5z M7.8,25.6c0,0,0.4-0.8,1.3-0.7C9.1,24.9,9.2,26.1,7.8,25.6z
	 M28.8,32c0,0-0.8,1.5-0.9,2.2c0,0-0.7,0.8-1.9,1.4c0,0-1.4,0.5-1.7,1l0-0.3c0,0,0.3-0.3,0.1-0.9c0,0,0.4-0.7-0.4-1.9
	c0,0,0.1-3.7,0.8-5c0,0,1-1.4,2.4,0.6C27.2,29.1,29.1,31.2,28.8,32z"/>
</svg>
