<?xml version="1.0" encoding="utf-8"?>
<!-- Generator: Adobe Illustrator 19.1.0, SVG Export Plug-In . SVG Version: 6.00 Build 0)  -->
<svg version="1.1" id="Layer_1" xmlns="http://www.w3.org/2000/svg" xmlns:xlink="http://www.w3.org/1999/xlink" x="0px" y="0px"
	 viewBox="0 0 48 48" style="enable-background:new 0 0 48 48;" xml:space="preserve">
<style type="text/css">
	.st0{fill:#808080;}
</style>
<path class="st0" d="M28.4,12.8c0,0-20.1-15.3-27.3-11c0,0-5,4.4,5.6,11.9c1.6,1.1,3,2.4,4.4,3.9l0,0c0.3,0.3,0.3,0.8,0.1,1.2
	c-0.8,1.6-2.6,5.9,0.5,10.8c0,0,0.7,0.5-2,2c0,0-3.4,1.2-6.8,6.9c0,0-4.3,5.4-1.6,7.3c0,0,0.1,0,0.1,0.1c0.5,0.3,4.5,2.4,8.8,0
	c0,0,14.6-7.3,18.2-11.3c0,0-0.4,1,1.1,1.8l4,2.2c0,0,0.6,0.8,0.9,0.6c0,0,1.4,2.5,1.9,2.4c0,0,0.6,1.2,0.9,2.2
	c0.1,0.3,0.1,0.5,0.1,0.8c0,0.4,0,1.1,0.5,1l0,0.5c0,0.2,0.1,0.3,0.3,0.3c0.2,0,0.5,0,0.6-0.2l-0.2-0.1c0,0,0.3-0.7-0.2-1.2
	c0,0,0.5-0.1-0.3-0.9c0,0,0.6-0.1-0.4-1.1c0,0,0.5-0.2-0.9-1.5c0,0,0.4-0.3-1.6-2.3c0,0,0.1-1-0.6-1.3c0,0-4.5-1.9-4.5-2.3
	c0,0-0.2-1.9,0.1-2.2l1.3-1.1c0,0,0.5-0.3,0.7-0.9c0.3-0.8,1-1.3,1.8-1.3c1.1,0,2.4-0.1,3.5-0.4c0.5-0.1,1-0.1,1.5,0.1
	c0.7,0.3,1.8,0.6,2.7,0.2c0,0,0.8-0.5,1.2-0.2l2,1c0,0,2.4,1.6,2.2,2.1c0,0,0.4,0.9,0.8,0.6c0,0,0.7-0.5,0.1-0.9
	c0,0-2.5-2.7-5.2-3.2c0,0-0.3-0.1,0-0.3c0,0,1.3-1.2,1.3-2.8c0-0.2,0.1-0.3,0.2-0.4c0.3-0.2,0.7-0.7,0.8-1.4c0-0.2,0.2-0.3,0.4-0.3
	c0.1,0,0.1,0.1,0.2,0.1c0,0,0.9,0.5,1.1,0.7c0,0,0.2-0.1-0.9-0.8c0,0,0-0.5-0.4-0.8c-0.1,0-0.1-0.1-0.1-0.2c0-0.1-0.1-0.4,0.2-0.5
	c0,0,0.5-0.2,0.3-0.5c0,0-0.3-0.2-0.5,0c0,0-0.2-0.3,0.4-0.4c0,0,1.4-0.2,1.7-0.5c0,0-0.1-0.1-0.8,0.1c0,0-1.4,0.3-1.5,0.4
	c0,0-0.4-0.9-0.8-1.3c-0.1-0.1-0.2-0.2-0.2-0.3c-0.3-0.9-1.3-4.1-3.3-2.8c0,0-1.2,0.8-1.5,1.2c0,0.1-0.1,0-0.1,0l-0.2-0.8
	c-0.1-0.2,0-0.4,0.2-0.6c0.5-0.4,1.6-1.2,2.3-0.5c0.1,0.1,0.3,0.1,0.4,0.1c0.3,0,0.6-0.1,0.5-0.2c0-0.1,0-0.1,0.1-0.2
	c0.3-0.1,0.9-0.2,1.1-0.5c0,0,0.6-0.1,0.9-0.4c0,0,0.6,0,0.8-0.4c0,0,0.7,0,0.8-0.4c0,0,0.9-0.1,1-0.7h-0.2c0,0,0-0.7-0.3,0
	c0,0-0.6,0.1-0.7,0.3c0,0-0.5,0-0.8,0.4c0,0-0.4-0.1-0.9,0.5c0,0-0.3-0.1-0.9,0.3c0,0-0.4-0.1-1,0.4c0,0-0.5,0.1-1-0.2
	c0,0-1.1-0.4-2,0.2c-0.8,0.6-2.1,1-3.9,0.6c-0.2-0.1-0.5-0.2-0.7-0.3c-0.3-0.2-0.9-0.6-2-0.7c-0.3,0-0.6-0.1-0.8-0.3
	c-0.4-0.4-1.1-1-1.5-1.3c-0.1-0.1-0.2-0.2-0.3-0.4c0-0.9-0.1-3.4,0.5-3.5c0,0,4.4-0.1,4.3-1.3c0,0,1.7-1.5,1.7-1.9
	c0,0,1.5-1.8,1.4-3.1l0.4-1.1c0,0-0.4,0.2-0.5-0.1L37.5,3c0,0-0.2,0.2-0.2,0.7c0,0-0.2,0.2-0.3,0.7c0,0-0.3,0.1-0.2,1
	c0,0-0.7,0.8-0.7,1.1c0,0-1.5,2-2.1,2.1c0,0-5.2,0.9-5.2,1.6C28.8,10.2,28.8,13,28.4,12.8z"/>
</svg>
