<?xml version="1.0" encoding="utf-8"?>
<!-- Generator: Adobe Illustrator 19.1.0, SVG Export Plug-In . SVG Version: 6.00 Build 0)  -->
<svg version="1.1" id="Layer_1" xmlns="http://www.w3.org/2000/svg" xmlns:xlink="http://www.w3.org/1999/xlink" x="0px" y="0px"
	 viewBox="0 0 48 48" style="enable-background:new 0 0 48 48;" xml:space="preserve">
<style type="text/css">
	.st0{fill:#808080;}
</style>
<path class="st0" d="M47.4,16.6c0,0-0.9-2.5-5.8-3.5c0,0-6.2-1.2-9.5-0.4c-0.4,0.1-0.7,0.2-1.1,0.3c-1.3,0.2-4.3,0.9-6.6,2.9
	c0,0-3.1,2.6-0.7,6.1c0,0,0.8,1.3,0.8,2.1c0,0,0,0.1,0,0.1c-0.2,0.5-1.3,4.5,0.2,6.6c0.3,0.4,0.2,1-0.2,1.3
	c-0.6,0.4-1.7,0.8-4.1,0.2c-0.7-0.1-1.4-0.4-2-0.7c-1.5-0.8-5.3-2.4-8.1-1.1c-0.3,0.1-0.6,0.2-0.9,0.3c-0.7,0.2-1.8,0.4-2.4,0.2
	c0,0-0.9-1-2.3-0.3c0,0-0.9-0.1-1.5,0.3c0,0-1.3,0.2-1.1,1C2.1,32,2,32,2,32l-1.1,0.1c-0.1,0-0.1,0-0.2-0.1l-0.5-0.4l0.5,0.6L0,32.4
	l2.3,0.1c0,0,0.1,0,0.1,0.1c0.2,0.2,1,1,3,1.1c0.5,0,0.9,0,1.4-0.1c0.7-0.1,2-0.4,3.2-0.8c0,0,1.9-0.8,4.4-0.1
	c0.8,0.2,1.5,0.6,2.2,1.1c0.9,0.6,3.6,2.1,8.3,1.9c0,0,3.8-0.5,4.2-3c0-0.2,0.1-0.4,0.1-0.6c0.1-0.5,0.3-1.6-0.4-2.7
	c0,0-0.7-1.2-0.5-2c0,0,2.3,2,4.4-1.5c0,0,0-0.2,0.2-0.1c0,0-0.3-0.3-0.5,0c0,0-1.7,1.8-2.9,1.2c-0.2-0.1-0.4-0.3-0.4-0.5
	c-0.1-0.4-0.2-1.2,0.4-1.5c0,0,1.7-1.7,7-2.1c0,0,6.5,0,9.6-1.6C46.1,21.2,49.2,19.9,47.4,16.6z M43.6,17.9c0,0-1,1.1-4.8,1.4
	c0,0-7.4,0.2-9,0.6c0,0-2.5,0.7-3.6,1.8c0,0-1.2-3.4,1-4.5c0,0,4.4-2.7,11.9-1.4C39.2,15.8,44.5,16.9,43.6,17.9z"/>
</svg>
