<?xml version="1.0" encoding="utf-8"?>
<!-- Generator: Adobe Illustrator 19.1.0, SVG Export Plug-In . SVG Version: 6.00 Build 0)  -->
<svg version="1.1" id="Layer_1" xmlns="http://www.w3.org/2000/svg" xmlns:xlink="http://www.w3.org/1999/xlink" x="0px" y="0px"
	 viewBox="0 0 48 48" style="enable-background:new 0 0 48 48;" xml:space="preserve">
<style type="text/css">
	.st0{fill:#808080;}
</style>
<path class="st0" d="M44.4,17.7c0,0-7.5-0.9-14.3-0.2c-0.1,0-0.2,0-0.2,0c-0.3,0.1-1.7,0.2-2.6-1.6c0,0-1.5-4.3-3.3-4.5
	c0,0-0.2-0.2-0.1,1.4c0,0,0.3,5-0.4,5.8c0,0-5.9,4.5-7.4,4.8c-0.1,0-0.2,0-0.3-0.1c-0.2-0.2-0.6-0.4-0.6-0.3c0,0,0.1,1.1-1.3,1.4
	c0,0-4.7,1.7-5.9,0.5c0,0-0.1-0.1-0.1-0.1c-0.4-0.7-4-7.4-7.7-7.2c0,0,0,0,0,0.1c0.2,0.1,0.7,0.5,0.6,1c0,0.1,0,0.1,0.1,0.1
	c0,0,0.1,0,0.2,0c0.2,0.1,0.3,0.2,0.4,0.3c0.1,0.3,0.4,0.9,0.6,1.3c0,0,2.8,4.5,1.7,8.1c0,0.1,0,0.1-0.1,0.2c-0.1,0.4-0.6,2.2-2,3.3
	c0,0-0.1,0.1-0.1,0.2c0,0.1,0.1,0.3,1.2,0c0,0,2.2-0.7,5-4.2c0,0,0.6-0.9,2.6-0.7c0,0,2,0.2,2.3,0.6c0,0,0.3,0.3,0.4,0.7
	c0,0.1,0.1,0.1,0.2,0.1c0.1-0.1,0.3-0.2,0.4-0.4c0,0,0.1-0.3,0.8-0.1l3.3,0.8c0.1,0,0.1,0.1,0,0.1c-0.2,0.1-0.6,0.3-0.2,0.3
	c0,0,1.2-0.1,1.7-0.1c0.1,0,0.1,0,0.2,0c0.3,0.1,1.5,0.3,2.2,0.2c0.1,0,0.1,0.1,0.1,0.1L19.8,32c0,0-1.5,1.7-1.9,2.5
	c0,0-1.4,1.6-0.4,1.2c0,0,1.8-1.4,2.6-2.1l4.3-3.5c0.2-0.2,0.5-0.3,0.8-0.3c1.3-0.1,4.8-0.3,6-0.4c0.2,0,0.5,0,0.7,0.2
	c1,0.7,4.3,3,5.5,5.2c0,0.1,0.1,0.1,0.2,0.1c0.2,0,0.5,0.2,0.4,0.6c0,0.1,0,0.3,0.1,0.4c0.2,0.4,0.6,1,0.9,0.6c0,0,0.6-0.5,0.3-2.4
	c0,0-0.5-3-2.9-5.5c-0.1-0.1-0.1-0.4,0.1-0.4c1.4-0.5,7.2-2.7,7.9-4.3c0,0,0.3-0.5-0.1-0.6c0,0,0.6-0.9-0.2-0.1l0.1-0.5
	c0,0,1.1-0.2,1.4-0.7c0,0,1.1-1.3,1.5-1.6c0,0,0.6-0.6,1-1.3c0.1-0.1,0-0.3-0.1-0.4C47.6,18.4,46.7,18,44.4,17.7z M41.4,19.9
	c-0.2,0-0.4-0.2-0.4-0.6c0-0.3,0.2-0.6,0.4-0.6c0.2,0,0.4,0.2,0.4,0.6C41.9,19.7,41.7,19.9,41.4,19.9z M43.3,23.1
	C43.3,23.1,43.2,23,43.3,23.1c-0.1-0.1,0-0.1,0-0.1C43.3,23,43.4,23,43.3,23.1C43.4,23,43.3,23.1,43.3,23.1z M43.6,23.1
	c0-0.4,0.3-0.3,0.3-0.3L43.6,23.1z"/>
</svg>
