<?xml version="1.0" encoding="utf-8"?>
<!-- Generator: Adobe Illustrator 19.1.0, SVG Export Plug-In . SVG Version: 6.00 Build 0)  -->
<svg version="1.1" id="Layer_1" xmlns="http://www.w3.org/2000/svg" xmlns:xlink="http://www.w3.org/1999/xlink" x="0px" y="0px"
	 viewBox="0 0 48 48" style="enable-background:new 0 0 48 48;" xml:space="preserve">
<style type="text/css">
	.st0{fill:#808080;}
</style>
<path class="st0" d="M47.9,25.8c-1.3-0.4-8.7-2.9-10.5-3.3c-0.1,0-0.3-0.1-0.4-0.1c-0.3-0.1-0.9-0.4-1.8-0.2c0,0-3.8-0.2-4.9-0.5
	c-0.1,0-0.2-0.2-0.1-0.3c0.1-0.3,0.3-1.1-0.6-3.2c0,0-0.6-2.4,0-3.3c0,0,0.3-0.5,0.4-1c0.1-0.2,0.2-0.4,0.5-0.5c0.1,0,0.3-0.1,0.5,0
	c0,0-0.1-0.6-0.7-0.8c-0.1,0-0.1-0.1-0.1-0.1c0-0.2-0.1-0.8-0.6-0.8c0,0-1.6-0.1-2.1,0.6c-0.1,0.1-0.1,0.2-0.2,0.2
	c-0.2,0.2-0.6,0.9-0.3,3.1c0,0-0.1,1.1-1.8,2.1c-0.3,0.2-0.7,0.2-1,0c-0.5-0.3-1.3-0.9-1.9-1.8c0-0.1-0.1-0.1-0.1-0.2
	c-0.2-0.4-0.9-1.6-1.5-2.2c-0.1-0.1-0.2-0.3-0.3-0.5c-0.1-0.3-0.3-0.9-1-1.2l-7.1-6.4c-0.1-0.1-0.2-0.1-0.3,0
	c-0.3,0.4-0.8,1.3,1,2.6l-2.6-1.5c-0.1-0.1-0.3,0-0.3,0.1c-0.1,0.4-0.1,1.3,1.4,1.9l-2.5-1c-0.2-0.1-0.3,0-0.4,0.2
	C8.4,8.2,8.4,8.7,9,9L7.5,8.6c-0.2,0-0.3,0.1-0.3,0.3c0.1,0.4,0.5,1.1,1.9,1.3l-1.6-0.1c-0.1,0-0.3,0.1-0.3,0.2
	c0,0.2,0.1,0.5,0.7,0.8c0,0-0.6,0-0.5,0.3c0,0,0.1,0.8,0.7,1c0.1,0,0.1,0.1,0.1,0.2C8,13,7.4,13.8,8.6,13.9c0.2,0,0.3,0.2,0.2,0.4
	c-0.3,0.4-0.5,0.9,0.4,1c0.2,0,0.4,0.3,0.3,0.5c-0.2,0.5-0.2,1.4,1.2,1c0.1,0,0.1,0.1,0,0.1c-0.4,0.3-0.8,0.8,0,1.4
	c0.1,0.1,0.2,0.2,0.2,0.4c0,0.4,0,1.1,0.7,1c0,0-0.4,0.7,0.5,1.3c0.1,0.1,0.2,0.2,0.2,0.3c0.1,0.3,0.4,1,1,0.9c0,0,0,0.8,0.7,0.9
	c0.1,0,0.2,0.1,0.2,0.2c0.1,0.3,0.2,0.9,0.8,0.6c0.1-0.1,0.3,0,0.4,0.1c0.2,0.3,0.5,0.7,1.1,0.3c0,0,0.7,0.2,1,0
	c0.1-0.1,0.2-0.1,0.3-0.1l0,0c0.2,0,0.3,0.3,0.2,0.4l-1.4,2c-0.2,0.3-0.5,0.5-0.9,0.5l-3.6,0c-0.1,0-0.2,0.1-0.2,0.1
	c-0.1,0.2-0.1,0.7,0.8,0.6c0,0-0.6,0.4-1.9,0.4c-0.1,0-0.1,0-0.1,0.1c0.1,0.2,0.3,0.8,0.8,0.8l-2.2,0.7c-0.1,0-0.1,0.1-0.1,0.2
	c0.2,0.2,0.7,0.7,2.2,0.2l-3.3,1.6c-0.1,0-0.1,0.2,0,0.2C8.5,32,8.8,32.2,9.5,32c0,0-2.4,1.4-2.8,2.1c0,0.1,0,0.1,0.1,0.1
	c0.5-0.1,1.9-0.5,2.8-1l-6.5,4.6c0.1,0,1,0.4,6-3.2c-0.1,0.1-3.8,3.4-9.2,7c0.1,0,0.5,0.2,3.7-1.6c0.1,0,0.1,0.1,0.1,0.1
	c-1,0.7-2.3,1.6-2.8,2.1c-0.1,0.1,0,0.1,0.1,0.1c1.5-0.8,8-4.5,10.8-7.1c-0.3,0.3-4.8,4.7-5.1,6c0,0,6-5.5,6.7-6.3
	c-0.1,0.2-1.6,2-1.8,2.9c0,0.1,0.1,0.2,0.2,0.1c0.7-0.6,2.6-2.2,2.9-2.8c0,0.1-0.6,1.6-0.1,1.9c0.1,0.1,0.3,0,0.3-0.1l1.9-3.5
	c0,0-0.4,1.8,0.1,2.1c0.2,0.1,0.4,0,0.4-0.2l0.6-2.2c0,0,0.5,1.2,1,1.3c0.1,0,0.3-0.1,0.3-0.2l0.1-2c0,0,1.1,2,1.3,0.9l-0.3-2.2
	c0-0.2,0.1-0.4,0.3-0.4l0.8-0.1c0.1,0,0.2,0.1,0.2,0.2c0.1,0.6,0.5,2.2,1.3,1.2c0.1-0.2,0.3-0.3,0.5-0.5l0.9-0.8
	c0.1-0.1,0.2-0.1,0.3,0c0.3,0.4,0.9,1.3,1.3,0.8c0,0,0.5-0.2,0.5-0.6l0.2,0l-0.1,0.3l0.3-0.3l0.5-0.1c0,0,0.4,0.2,0,0.8
	c0,0,0.5,0,0.5-0.5l-0.1-0.4l0.6-0.7c0,0,0,0,0,0l-0.4,0.7c0,0-0.3,0.6,0.6,0.6c0,0,0.6,0,1-0.6c0,0,0,0,0,0
	c-0.1,0.3-0.2,0.5-0.1,0.6c0,0,1.1,1,2.3-1.4c-0.1,0.2-0.8,1.7-0.2,1.8c0,0,0.1,0,0.1,0c0.3,0.1,1.3,0.3,1.7-1.1
	c-0.1,0.5-0.2,1.3,0.3,1.3c0,0,1.3,0.2,1.6-1.3c0,0-0.2,1.6,0.8,1.3c0,0,0.9-0.2,1-0.8c0-0.1,0.1-0.1,0.2-0.1c0.4,0.3,1.7,1,1.7-0.3
	c0,0,0.6,1,1.7,0.7c0,0,0.7-0.1,0-1.6c0,0,1.2,1.7,2.5,1.1c0,0,0.3-0.1,0-0.5L42,29.2c0,0,1.3,0.8,2.2,0.6c0.3-0.1,0.4-0.4,0.2-0.6
	l-1.8-1.8c0,0,2.1,1.5,3.6,0.6c0.1-0.1,0.1-0.2,0-0.3L43.4,26c0.1,0,2.9,1.2,4.6,0C48,26,48,25.9,47.9,25.8z M30,12.7
	c0.1,0,0.2,0.1,0.2,0.2c0,0.1-0.1,0.2-0.2,0.2s-0.2-0.1-0.2-0.2C29.7,12.8,29.8,12.7,30,12.7z M25.9,31.3c-0.1-0.3-0.5-0.2-0.5-0.2
	c-0.2-0.1-0.2-0.5-0.2-0.5c0.1,0.4,1,0,1,0C26.1,31,26.4,31,26.4,31C26.3,31.2,25.9,31.3,25.9,31.3z"/>
</svg>
