<?xml version="1.0" encoding="utf-8"?>
<!-- Generator: Adobe Illustrator 19.1.0, SVG Export Plug-In . SVG Version: 6.00 Build 0)  -->
<svg version="1.1" id="Layer_1" xmlns="http://www.w3.org/2000/svg" xmlns:xlink="http://www.w3.org/1999/xlink" x="0px" y="0px"
	 viewBox="0 0 48 48" style="enable-background:new 0 0 48 48;" xml:space="preserve">
<style type="text/css">
	.st0{fill:#808080;}
</style>
<g>
	<path class="st0" d="M47.3,5.3c-0.3-0.4-0.6-0.7-0.9-1.1c-0.6-0.9-1.5-2.5-1.7-3.1c0-0.1-0.1-0.1-0.2,0c-0.1,0.1-0.2,0.3-0.2,0.6
		c0,0,0.1-2.1-1.4-1.4c0,0-0.8,0.4-0.3,1.5c0.1,0.1,0,0.3-0.2,0.3c-1.4,0.2-6.6,1.3-7.4,5.7c0,0-0.2,1.1-0.7,2.5
		c-0.9,2.4-3.1,4-5.6,4.3c-1.7,0.2-4.2,0.4-7.8,0.5c0,0-5.4-0.4-10.9,1.2c-0.7,0.2-1.5,0.3-2.3,0.3c-2.1-0.1-6.5,0-7.8,2.5
		c0,0-0.3,1.4,2.3,1.2c0.4,0,0.7,0.1,0.9,0.4c0.4,0.4,1,1,1.6,1.1l-2,0.1c-0.4,0-0.6,0.5-0.4,0.8c0.4,0.6,1.2,1.3,2.7,1.5
		c0.4,0,0.7,0.2,1,0.5c0.3,0.3,0.9,0.7,2,0.8c0,0,1.2,1.2,2.1,1.8c0.5,0.3,0.8,0.9,0.9,1.5c0.1,0.6,0.1,1.4-0.2,2.1
		c0,0-1.3,5.7,4.1,8.6c0.3,0.2,0.7,0,0.8-0.4c0-0.2,0.3-0.3,0.5-0.2c0.8,0.6,2.9,2,4.9,2.7c0.9,0.3,1.7,1,2.1,2
		c0.5,1.2,0.9,2.7,0.3,3.1l-1.2,0.5c0,0-1,0.2-1,0.6l1-0.1c0,0,1.4,0.5,2.5-0.1c0,0,3.3-0.1,5.8,0.5c0,0,0.7,0.2,0.6-0.2
		c0,0,0.4-0.1,0.7,0.3c0,0-0.2-0.8-0.9-1.1c0,0-0.6-0.7,2.2-0.2c0,0,4,0.8,3.6,0c0,0,0.6,0,0.7,0.4c0,0-0.1-1.8-2.8-1.7
		c0,0-0.2-0.9-2.8-0.6c0,0-2.2-2-2.8-3.2c0-0.1,0-0.1,0.1-0.1l0.2,0.1c0.2,0.1,0.5-0.1,0.5-0.3v-1.1c0-0.4,0.1-0.8,0.3-1.2
		c0.7-1,2.2-3.1,4.3-3c0.5,0,1.1,0,1.6-0.1c2.4-0.4,7.6-1.9,8-7.3c0,0,1.4-6.9,0.3-11.7c-0.1-0.4-0.1-0.7-0.2-1.1
		c-0.1-1.2-0.2-3.6,0-5.2c0.1-0.7,0.5-1.4,1.1-1.8c0.5-0.3,1.1-1,1.1-2.3c0,0,1.2-0.1,1.6,0.1C47.9,6.7,48.1,6.2,47.3,5.3z
		 M27.8,44.6c0,0-1.4,1-1.8,0.4l-1.5-2.4c0,0,0.1-3.3,1.6-1.8C26.2,40.9,28.7,44,27.8,44.6z M42.5,5c-0.3,0-0.6-0.2-0.6-0.4
		s0.3-0.4,0.6-0.4c0.3,0,0.6,0.2,0.6,0.4S42.8,5,42.5,5z"/>
	<ellipse class="st0" cx="7" cy="41.7" rx="5.9" ry="4.4"/>
</g>
</svg>
