<?xml version="1.0" encoding="utf-8"?>
<!-- Generator: Adobe Illustrator 19.1.0, SVG Export Plug-In . SVG Version: 6.00 Build 0)  -->
<svg version="1.1" id="Layer_1" xmlns="http://www.w3.org/2000/svg" xmlns:xlink="http://www.w3.org/1999/xlink" x="0px" y="0px"
	 viewBox="0 0 48 48" style="enable-background:new 0 0 48 48;" xml:space="preserve">
<style type="text/css">
	.st0{fill:#808080;}
</style>
<path class="st0" d="M47.8,9.6c-1-0.7-4.6-2.2-16,0.2c0,0-13.1,3.4-17.4,5.3c-0.3,0.1-0.6,0.2-0.9,0.1c-1.3-0.1-4.8-0.2-7,2.3
	c0,0.1-0.1,0.1-0.2,0.1c-0.2,0-0.5,0-0.7,0.1c-0.1,0-0.1,0-0.2-0.1c0-1.1-0.1-5.8,0.2-6.7c0,0,0.5-2.4,0.1-3.3c0-0.1-0.2-0.1-0.3,0
	C5.3,7.8,5.1,8.3,5.2,9.3c0,0-0.3,7.3-0.1,8.6c0,0,0,0.1,0,0.1c-0.3,0.1-1.3,0.7-1,1.5c0.1,0.2,0,0.4-0.1,0.6
	c-0.1,0.1-0.2,0.1-0.3,0.2c0,0-2,1.8-0.1,3.1c0.1,0.1,0.2,0.2,0.2,0.4c-0.1,0.5-0.2,1.4-0.4,1.9c0,0.1,0,0.2,0,0.3
	c0,0.3,0.2,0.9,0.6,0.2l0.2-2.5c0-0.1,0.1-0.2,0.2-0.2c0.2,0,0.5,0,0.7,0c0.1,0,0.1,0,0.2,0c0.2,0.1,0.8,0.5,1.5,0c0,0,0.1,0,0.1,0
	c0,0.2,0.1,0.7,0.5,0.8c0.1,0,0.1,0.1,0,0.1C7,25,4.9,26.8,5,27.2c0,0-3.5,4.2-4,4.9c0,0-1.2,0.9-0.9,1.4c0,0,0-0.3,0.2-0.3
	c0,0-0.1,0.3,0,0.4c0,0,0-0.1,0.3-0.4l2-2.4l2.8-3.1c0,0,0.4,0.5,1-0.3c0,0,1.8-2.5,2-2.4c0,0,0.3,0,0.2,0.6c0,0.2,0,0.3,0.1,0.5
	l0.7,1.2c0,0,2.3,3.1,2.8,4.2c0,0,1.5,3.9,1.5,6.3c0,0,0,1,0.4,1.3c0,0,0-0.4,0.3-0.3c0,0-0.4-0.6-0.4-1.8c0,0-0.5-4-1.5-5.7
	c0,0-1.5-2.1-0.3-2c0,0,4.8,1.5,0.2-0.1c-0.2-0.1-0.3-0.1-0.4-0.3c-0.5-0.5-2-2-2-2.3c0,0,2.2,1,3.8,0.5c0.3-0.1,0.6-0.1,0.8,0.1
	c1.3,0.6,5.4,2.6,12.9,7.5c0,0,11.2,7.3,17,5.7c0.9-0.2,1.4-1.2,1.1-2.1c-1-2.6-3.7-8.5-8.7-13c-0.3-0.2-0.2-0.7,0.1-0.9
	c1-0.6,3.1-1.8,5.2-1.8c0.4,0,0.8-0.1,1.1-0.4c0.5-0.4,0.7-1-1.8-1.6c0,0-5.7-1.8-7.3-2.5c-0.1-0.1-0.1-0.2,0-0.2
	c0.8,0,2.5,0,3.8-0.6c0,0,0.6-0.4,1,0c0,0,0.1-0.5-0.3-0.5c0,0,7.8-3.5,9.1-6.4C48.1,10,48,9.7,47.8,9.6z M6.3,22.7
	C5.2,22.6,5.7,22,5.7,22C6.3,21.8,6.3,22.7,6.3,22.7z"/>
</svg>
