<?xml version="1.0" encoding="utf-8"?>
<!-- Generator: Adobe Illustrator 19.1.0, SVG Export Plug-In . SVG Version: 6.00 Build 0)  -->
<svg version="1.1" id="Layer_1" xmlns="http://www.w3.org/2000/svg" xmlns:xlink="http://www.w3.org/1999/xlink" x="0px" y="0px"
	 viewBox="0 0 48 48" style="enable-background:new 0 0 48 48;" xml:space="preserve">
<style type="text/css">
	.st0{fill:#808080;}
</style>
<path class="st0" d="M47.5,27.4c0,0,1.1-0.1-0.1-0.8c0,0,1.1,0,0-0.9c0,0,1-0.1,0-0.8c0,0,1-0.4-0.2-0.9c0,0,1-0.5-0.2-0.9
	c0,0,0.9-0.7-0.3-0.9c0,0,1-0.8-0.5-0.9c0,0,0.8-0.9-0.6-0.8c0,0,0.9-0.5-0.2-0.9c0,0-0.3-0.5-1-0.4c0,0,0.3-0.3,0.5-0.4
	c0,0,0-0.1,0-0.1c-0.2-0.1-0.6-0.3-1.3-0.1c0,0,0.3-0.3,0.5-0.4c0.1,0,0.1-0.1,0-0.1c-0.1-0.1-0.4-0.2-1.3,0c0,0,0.2-0.3,0.4-0.4
	c0,0,0-0.1,0-0.1c-0.2-0.1-0.6-0.3-1.3,0.1c0,0,0-0.4,0.3-0.6c0.1,0,0.1-0.1,0-0.1c-0.1-0.1-0.5-0.2-1.2,0.2c0,0-0.3-0.2,0-0.5
	c0,0,0-0.1,0-0.1c-0.1-0.1-0.5-0.2-1.2,0.3c0,0-0.2-0.3,0-0.5c0-0.1,0-0.1-0.1-0.1c-0.2-0.1-0.6-0.1-1.1,0.4c0,0,0-0.4,0-0.5
	c0,0,0-0.1-0.1-0.1c-0.2-0.1-0.8-0.2-1.1,0.5c0,0-0.1-0.4-0.1-0.6c0,0,0-0.1-0.1-0.1c-0.2,0-0.6,0.1-0.9,0.5c0,0-0.1,0-0.1,0
	l-0.1-0.4c0-0.1-0.1-0.1-0.2-0.1c-0.2,0.1-0.7,0.2-0.8,0.6c0,0-0.5-0.7-1.1-0.2c0,0-0.8-0.5-1,0c0,0-0.7-0.4-0.9,0.1
	c0,0-0.5-0.2-0.8,0.1c0,0-0.7-0.2-1,0.1c0,0-0.4-0.2-0.6-0.1c-0.1,0.1-0.2,0.1-0.3,0.1c-0.2,0-0.3,0.1-0.4,0.2c0,0-0.2-0.2-0.7,0.1
	c0,0-0.4-0.3-0.8,0c0,0-0.3-0.3-0.6-0.2c-0.1,0-0.2,0-0.2,0c-0.6-0.3-3.1-1.6-3.7,0.1c-0.1,0.1-0.2,0.2-0.3,0.2
	c-0.7,0.1-2.8,0.3-6.3,1.7c-0.2,0.1-0.3,0-0.5-0.1c-0.4-0.2-1.2-0.6-2.1,0.3c0,0-1.3,1.2-3.5,0.8c0,0-1-0.3-1.7,0.2
	c-0.1,0-0.1,0-0.2,0c-0.1-0.2-0.6-0.4-1.9,0.4c0,0-0.4-0.4-0.9,0.4c0,0-0.1,0.1-0.1,0.1c-0.5,0.2-3,1.4-4.3,1.2
	c-0.2,0-0.3,0-0.5,0.1c-0.4,0.2-1,0.6-0.6,1.2c0,0,0.3,0.8,1.4,0.8c0.1,0,0.3,0,0.4,0c0.7,0.2,3.2,0.7,5.6,0.6c0.2,0,0.4,0,0.5,0.1
	c0.5,0.2,1.9,0.7,4.2,0.7c0.2,0,0.3,0.1,0.4,0.2c0.1,0.3,0.2,0.7-0.2,0.5c0,0-0.4-0.2-1.2,0c0,0-1.3,0.3-1.8,0.2
	c0,0-0.6-0.1-0.8,0.3c0,0-0.7,0-0.7,0.4c0,0,0.2-0.2,0.3-0.1c0,0,0.1,0.1-0.4,0.2c0,0-0.4,0.2-0.3,0.4c0,0,0.3-0.3,0.3-0.2
	c0,0,0,0.2,0.2,0.2l0.9,0c0,0-1.1,0.8-0.5,0.7l1-0.4c0,0-0.4,0.7,0.2,0.4c0,0,1-0.6,1.2-0.3c0,0,0.1,0.1,0.3,0c0,0,0,0.4,0.4,0
	c0,0-0.1,0.3,0.8,0.2c0,0,1.6,0.1,1.9-0.7c0,0,0.3,0,0.3-0.4c0,0,0.3-0.1,0.4-1.1c0-0.1,0.1-0.2,0.2-0.2c1.3,0,7,0,8.8-0.5
	c0,0,0.1,0,0,0.1c-0.2,0.2-0.4,0.4-0.1,0.5c0,0-0.6,0.3-0.4,0.6c0,0,0.2-0.3,0.3-0.2c0,0,0.1,0.3,0.4,0.1c0,0-0.6,0.5-0.4,0.8
	c0,0,0.2-0.4,0.3-0.3c0,0,0.2,0.2,0.4,0c0.1-0.1,0.3-0.2,0.4-0.2c0.1,0,0.2,0,0.2,0c0,0-0.3,0.4-0.1,0.6c0,0,0.3-0.5,0.9-0.5
	c0,0,1.1-0.2,1.5-0.6l0.7-0.5c0.1-0.1,0.3-0.2,0.4-0.2c0.2-0.1,0.6-0.3,0.3-0.8c0,0,0.9,0.1,0.2-0.6c0,0,0.4-0.4,0-0.7
	c0,0-0.1-0.1-0.1-0.1l0,0c0-0.1,0-0.3,0.2-0.3c0.5-0.2,1.7-0.8,2.3-0.8c0,0,1.6,0,2.7-0.4c0.1,0,0.2-0.1,0.3-0.1
	c0.7-0.1,3.2-0.5,3.6-0.5c0,0,5.7-0.3,6.7,5c0,0,1.2,7.5,2.8,6.4c0,0,0.5-1.3,0-1.8c0,0,0.6,0,0-0.6c0,0,0-0.1,0-0.1
	c0.2,0,0.4,0,0-0.5c0,0,0.4-0.2-0.1-0.6c0,0,0.7-0.2-0.1-0.8l0.4-0.1c0.1,0,0.1-0.1,0.1-0.2C47.9,27.7,47.8,27.5,47.5,27.4z
	 M5.7,21.2c0,0,0.6-0.2,0.7,0C6.3,21.2,6,21.9,5.7,21.2z"/>
</svg>
