<?xml version="1.0" encoding="utf-8"?>
<!-- Generator: Adobe Illustrator 19.1.0, SVG Export Plug-In . SVG Version: 6.00 Build 0)  -->
<svg version="1.1" id="Layer_1" xmlns="http://www.w3.org/2000/svg" xmlns:xlink="http://www.w3.org/1999/xlink" x="0px" y="0px"
	 viewBox="0 0 48 48" style="enable-background:new 0 0 48 48;" xml:space="preserve">
<style type="text/css">
	.st0{fill:#808080;}
</style>
<path class="st0" d="M43.4,22.6c0,0-0.4-1.3-0.9-1.6c-0.1,0-0.1-0.2-0.1-0.2c0.2-0.3,0.5-1,0.1-2c-0.1-0.3-0.1-0.6,0-0.9
	c0.1-0.2,0.3-0.4,0.5-0.3c0.1,0,0.2,0,0.3-0.1c0.2-0.4,0.6-1.4,0-2.1c-0.2-0.2-0.2-0.4-0.1-0.7c0.2-0.5,0.4-1.5-0.7-2.3
	c-0.2-0.2-0.4-0.4-0.4-0.7c0-0.4,0-1,0.4-1.8c0,0-0.9-1.9-1.4-0.9c0,0-1.6-0.9-2.9,1.9c-0.3,0.7-0.9,1.3-1.7,1.4
	c-0.9,0.2-2.3,1-4,3.2c0,0-2.3,2.4-7,1.6c0,0-5.3-1.1-6.4-3.8c-0.1-0.3-0.2-0.6-0.4-0.8c-1.2-2.2-6.1-10.8-9.2-10.9
	c-0.1,0-0.1-0.1,0-0.1c0.5-0.2,1.2-0.7,0.5-1.5c0,0-0.2,0.6-0.6,0.6c0,0,0.2-1.6-0.5-0.1L9.1,0.5c0,0-1.5,0.3-1.6,0.6
	c0,0,0.1-0.8-0.1-0.8c0,0-0.7,1.3-1,1.1c0,0-0.3-0.8-0.5-0.6c0,0-0.5,0.6-0.5,0.8c0,0-1,0.1-0.3,2.5c0,0.2,0,0.3-0.1,0.4
	c-0.4,0.3-1,1-0.7,1.8l1.9-0.7c0,0-0.4,2.8,1.4,2.4c0.1,0,0.2,0,0.3,0c0.2,0.1,0.5,0.2,0.5,0.6c0,0,0.8,3.7,0.9,6.4
	c0,0.4,0,0.9-0.1,1.3c-0.3,2.5-1.4,13.5,5,16.6c0.1,0.1,0.3,0.2,0.4,0.3c0.6,0.6,2.8,2.4,4.4,2.7c0.3,0,0.5,0.2,0.6,0.4
	c0.6,0.9,2.2,3.2,4.7,4.6c0.1,0.1,0.2,0.3,0.1,0.4c-0.5,0.9-2.3,3.8-2.9,4.4c-0.1,0.1-0.2,0.1-0.3,0.1c-0.5,0-2.1-0.2-2.9-0.4
	c0,0-1.1-0.6-1.6,0.2c0,0,0.6-0.1,0.7,0c0,0-0.2,0.5,0.8,0.6c0,0,1.1,0.3,1.3,0.5c0,0-2.3,0.1-2.6,0.3c0,0-1.1,0.1-0.9,1
	c0,0,0.4-0.5,0.6-0.4c0,0,0,0.4,0.7,0.2l3.3-0.1c0,0,0.5-0.4,1.2-0.1c0,0,1.1,0.2,1.4-0.6c0,0,0.3-0.2,0.7,0.3c0,0,0.7,0.9,1.6,0.4
	c0,0,0.1-0.1,0.4,0.1c0,0,0.2-0.3-0.8-0.8l-0.8-0.6c0,0,3,0.1,3.5-0.2c0,0,1.3-0.4,1.9-0.3c0,0,0.1,1,0.9,0.9c0,0,0.2,0.1,0.3,0.2
	c0,0,0.2-0.8-0.5-1.5c0,0-0.7-1.7,0.9-4.8c0,0,1.1-2.2,1.8-3.2c0.1-0.2,0.4-0.3,0.7-0.2c1,0.3,3.8,1,4.5-0.3c0,0,3.6-4.9,3.7-10.5
	c0-0.4,0.2-0.9,0.6-1.2C43.4,24.8,44.2,23.8,43.4,22.6z M9.2,4.2C9,4.2,8.7,4,8.7,3.7c0-0.3,0.2-0.5,0.5-0.5c0.3,0,0.5,0.2,0.5,0.5
	C9.7,4,9.5,4.2,9.2,4.2z M24.1,45.9c0,0-0.2-0.1,0-0.5l0.9,0.1C25,45.5,24.3,45.6,24.1,45.9z M28,44.5c0,0-2.9,0.2-3.5-0.1
	c0,0,1.3-2.4,2.1-3.1c0,0,0.4-0.4,0.5-1.2c0,0,0.8-0.9,0.9-1.5c0-0.1,0.2-0.2,0.3-0.2c0.4,0.2,1.3,0.5,1.7,0.9
	c0.1,0.1,0.2,0.3,0.1,0.4C29.9,40.8,28.9,44.2,28,44.5z"/>
</svg>
