<?xml version="1.0" encoding="utf-8"?>
<!-- Generator: Adobe Illustrator 19.1.0, SVG Export Plug-In . SVG Version: 6.00 Build 0)  -->
<svg version="1.1" id="Layer_1" xmlns="http://www.w3.org/2000/svg" xmlns:xlink="http://www.w3.org/1999/xlink" x="0px" y="0px"
	 viewBox="0 0 48 48" style="enable-background:new 0 0 48 48;" xml:space="preserve">
<style type="text/css">
	.st0{fill:#808080;}
</style>
<path class="st0" d="M20.3,31.6C20,30.2,16.1,12.6,7.1,6C6.7,5.8,6.4,5.8,6,5.7c-1.2-0.3-3.1,0-2.4,5.1c0,0,0.1,1.9-0.3,3.6
	c0,0-2.2,6.6,0.9,8.4c0,0-4.6,0.2-4.2,5.3c0,0,0.2,5.2,2.9,8.5c0.2,0.2,0.4,0.4,0.7,0.5c0.3,0.1,0.8,0.5,1.5,1.2c0,0,2,2.3,9.8-0.2
	c0.1,0,0.2,0.1,0.2,0.2c-0.2,0.7-0.7,2.1,0.1,2.4c0,0,0.7-0.2,0.3-0.7c0,0,0-0.3,0.2,0.1c0,0,0.3,0.3,0.5-0.2c0,0,0.7-2.1,1.7-2.9
	c0.1-0.1,0.2-0.1,0.2-0.2l1.1-1c0,0,0.1,0.1,0,0.3c0,0-1.1,1.1-0.7,2.7l0.4,1.9c0,0,0.6,2.3,2.7,1.5c0,0,0.6-0.3,1.1-0.5
	c0.5-0.1,0.9-0.3,1.3-0.6l0.9-0.6c0,0,9.9-7.1,9.6-10.4c0,0,0-0.2-0.2-0.5c-0.1-0.1,0-0.2,0.1-0.2c0.6-0.3,2.5-1.2,3.5-2.7
	c0,0,6-7,7.5-8.2c0,0,3.7-3.4,2.3-4.1c0,0-1.5-0.1-4.9,2.1c0,0-4.7,2.8-6.6,4.2l-9.9,7.6l-3.7,3.2c0,0-0.1,0-0.1,0
	c-0.1,0-0.2,0-0.3,0.1c0,0,0,0-0.1,0c-0.1,0-0.2,0-0.2-0.1c0,0,2.1-2.2,3.1-3.1l5.3-4.9c0,0,0.7-0.2,0.5-0.6c0,0-0.2-0.2-0.4,0.1
	c0,0-0.2,0.2-0.2,0.3l-1,1l-1.8,1.6L25.3,28l-2,1.9c0,0-1.4,1.4-1.4,1.6c0,0,0.1-1.5-0.2-2.1c0,0-1.4-2.6-1.8-3.1l-1.3-2
	c0,0-0.6-1.4,0-2.1c0,0,0.6-0.3,0.4-0.5c0,0-0.2-0.2-0.4,0.1c0,0-0.1,0.2-0.1,0.4c0,0-0.3,0.3-0.2,0.7c0,0-0.1,0.8,0.1,1.1
	c0,0,0.7,1.6,1.3,2.2l1.3,2.1c0,0,1.2,1.7,0.8,3.2c0,0-0.1,0.1-0.1,0c-0.2-0.1-0.6-0.3-0.9,0.2c0,0-0.1,0.1-0.2,0.1
	C20.4,31.8,20.3,31.7,20.3,31.6z"/>
</svg>
