<?xml version="1.0" encoding="utf-8"?>
<!-- Generator: Adobe Illustrator 19.1.0, SVG Export Plug-In . SVG Version: 6.00 Build 0)  -->
<svg version="1.1" id="Layer_1" xmlns="http://www.w3.org/2000/svg" xmlns:xlink="http://www.w3.org/1999/xlink" x="0px" y="0px"
	 viewBox="0 0 48 48" style="enable-background:new 0 0 48 48;" xml:space="preserve">
<style type="text/css">
	.st0{fill:#808080;}
</style>
<path class="st0" d="M22.1,16.8c0,0-7-15.9-19.4-14.2C1.8,2.7,1.1,3.3,0.8,4.1C0.5,5,0.4,6.5,1,8.7C1.1,9,1.1,9.4,1.1,9.7
	C1.3,12.2,2,21.8,4.9,22l3.4,0.2c0,0-2.9,1.8-3.4,4.1c-0.1,0.3-0.2,0.5-0.4,0.7C4,27.6,3.2,28.7,4,29.3c0.1,0.1,0.2,0.2,0.2,0.4
	c0,0.2,0,0.4,0.2,0.7c0.1,0.1,0.1,0.3,0,0.4c-0.3,0.6-1.1,2.3,0.4,2.7c0.2,0.1,0.4,0.2,0.6,0.4c0.3,0.4,0.8,1.2,0.7,1.7
	c0,0-0.6,2.1,0.8,2.5c0.3,0.1,0.6,0.3,0.7,0.6c0.4,0.7,0.9,1.8,0.7,2.1c0,0-0.8,3.4-2.1,4.8c0,0-1.2,1.8,0.9,1.8
	c0.1,0,0.2,0,0.4-0.1c0.3-0.2,0.8-0.6,0.9-1.8c0,0,0.1-4.7,3-3.2c0,0,0.4,0.5,1.2,0.1c0,0,0.7-0.2,1.4,0.6c0,0,1,1,1.7,0
	c0,0,0.2,0,0.3-1.1c0-0.3,0.1-0.6,0.4-0.9c0.2-0.3,0.6-0.4,1.1-0.2c0,0,0.4,0.2,0.6-0.4c0,0,0.7-2.5,1.2-3.5c0.1-0.3,0.2-0.6,0.3-1
	c0.3-2,1.2-8.8,2.8-11.4l0.1,0.9c0,0.2,0,0.3-0.1,0.5c-0.2,0.3-0.4,1.1-0.2,3c0,0-0.1,2.4,0.6,2.9c0.1,0,0.1,0,0.1-0.1
	c0-0.1,0-0.3,0-0.4c0,0,0-0.1,0.1,0c0.1,0.1,0.2,0.1,0.4,0c0,0,0.1,0,0.1,0c0,0.2,0.1,0.7,0.3,0.5c0,0,1.2-5.1,0.9-7
	c0,0,0.1-1.1,0.6-0.1c0,0,3.2,9.5,3.9,13.5c0,0,0.4,3.2,1.8,2.6c0.2-0.1,0.4,0,0.5,0.1l0.3,0.3c0.2,0.1,0.2,0.4,0.3,0.6
	c0,0.8,0.3,2.7,2.3,1.4c0.1-0.1,0.2-0.1,0.2-0.2c0.1-0.2,0.6-0.6,1.6-0.3c0,0,0.1,0.2,0.9-0.3c0,0,1.2-0.6,1.9,0.3
	c0,0,1,1.5,1.3,3.2c0,0,0.6,3,2.3,1.7c0,0,1.4-0.6-0.8-2.7c0,0-2.6-4.2-1.6-5.7c0,0,0.3-0.3,0.5-0.7c0.1-0.2,0.2-0.3,0.4-0.4
	c0.6-0.3,1.7-1,1.3-2.7c-0.1-0.4-0.1-0.8,0.1-1.1c0.3-0.7,0.8-1.6,1.3-1.7c0,0,1-0.3-0.1-2.2c0,0-0.5-1.3,0.3-1.8
	c0,0,0.7-0.7-0.3-2.1c-0.2-0.3-0.4-0.6-0.5-0.9c-0.4-0.9-1.4-2.9-3.9-4.4c0,0,5.3,0.8,6.1-3.3c0,0,5.1-18.5,0.5-17.8
	c0,0-12.9-1.4-20.4,17.1L24.5,19c0,0-0.1-0.1,0-0.6c0,0,0.7-0.8-0.4-1.5c0,0,0.1-0.9-0.5-0.5l-0.4,0l2.7-4.5l1.8-3.7
	c0,0,0.6-1.2,0.1-0.8c0,0-0.7,1.2-0.6,1.5l-4.1,7.4c0,0-0.8,0-0.8,0.3l-0.2-2.8l0.1-2c0,0-0.2-1.4-0.3-1.8l-0.2-1.5
	c0,0-0.2-1.6-0.5-0.8l0.4,1.6c0,0,0.4,2.3,0.4,2.7L22.1,16.8z"/>
</svg>
