<?xml version="1.0" encoding="utf-8"?>
<!-- Generator: Adobe Illustrator 19.1.0, SVG Export Plug-In . SVG Version: 6.00 Build 0)  -->
<svg version="1.1" id="Layer_1" xmlns="http://www.w3.org/2000/svg" xmlns:xlink="http://www.w3.org/1999/xlink" x="0px" y="0px"
	 viewBox="0 0 48 48" style="enable-background:new 0 0 48 48;" xml:space="preserve">
<style type="text/css">
	.st0{fill:#808080;}
</style>
<path class="st0" d="M48,26.8c0,0,0.2-0.2-0.6-0.5c0,0-2.6-1-4.4-1.4c-0.1,0-0.1-0.1,0-0.1c0.2-0.1,0.4-0.2,0-0.5
	c-0.1-0.1-0.1-0.2,0-0.2c0.2-0.2,1-0.5,3.4,0.7c0,0,0.2-0.1,0.5,0c0,0,0.3-0.1-0.3-0.4c0,0-1.7-1-3-1.3c0,0,0.8,0.1,0.3-0.3
	c0,0,1.2,0.1,2,0.4c0,0,0.1,0,0-0.1c-0.4-0.4-1.7-1.3-4-1.6c-0.2,0-0.5-0.1-0.7-0.1c-1.5-0.4-7.3-2.1-9.1-2.7c0,0-10.1-2.8-14.4-1
	c0,0-3.4,1.7-4.3,2.3c-0.1,0.1-0.3,0.1-0.4,0.1C12.6,20.4,11.6,20,12,18c0,0,1.4-4.6-2.5-10.3C8.9,6.8,8,6.1,7,5.8
	C6.1,5.5,5,5.4,3.9,6.2C3.7,6.3,3.6,6.4,3.4,6.4C2.8,6.5,1.7,6.5,0.9,6.3c-0.2,0-0.3,0-0.5,0c-0.3,0.1-0.7,0.4,0,0.9
	c0,0,5.3,2.2,7.3,4.4c0,0,3.1,2.8-0.2,8.4c0,0-2.6,4.7,4,9.4c0.1,0.1,0.2,0.1,0.3,0.2c0.6,0.4,4,2.7,11.9,3.5c0.1,0,0.2,0.2,0.1,0.3
	c-0.2,0.3-0.3,0.9,0,2c0,0.1,0.1,0.2,0,0.3c0,0.6-0.1,2.4-0.5,3.3c-0.2,0.4-0.6,0.7-1.1,0.6c-1.1-0.2-4-0.5-3.8,0.2
	c0,0,0.3,0.4-0.4,0.4c0,0-0.5,0-0.6,0.3c0,0,0.2,0,0.3,0.1c0,0,0.1,0.3,0.6,0.1c0.1,0,0.1,0,0.2,0c0.1,0.1,0.3,0.2,0.7,0.2
	c0.1,0,0.1,0,0.1,0.1c0,0.1,0,0.3-0.5,0.3c0,0-1,0-1.1,0.2c0,0-0.8-0.2-0.8,0.3c0,0,0,0.2,0.7,0.1c0,0,1.5,0,1.4,0.3
	c0,0,0,0.1,0,0.1c0.3,0.1,1.6,0.4,2.6-0.2c0.1-0.1,0.2-0.1,0.3,0c0.4,0.1,1.3,0.2,2.1-0.4c0,0,0.1-0.1,0.2,0c0.2,0.1,0.8,0.1,0.8-1
	c0,0,0.1-0.5,0.2-0.1c0,0,0.3,0.5,0.6,0.1c0,0,0.2-0.8-0.4-1.3c-0.1-0.1-0.2-0.2-0.2-0.4c0-0.7,0-2.5,0.5-4.2c0,0,0.2-0.4,0.1-0.9
	c0-0.2,0-0.4,0.1-0.5c0.1-0.1,0.1-0.2,0.2-0.3c0.1-0.2,0.3-0.4,0.6-0.5c0.5-0.1,1.2-0.2,2.1-0.2c0.4,0,0.8,0,1.1-0.1
	c0.6-0.2,1.5-0.4,2.7-1c0.3-0.1,0.5-0.3,0.8-0.5c0.4-0.3,1.2-0.8,2.2-1c0.4-0.1,0.9-0.3,1.2-0.5c0.3-0.2,0.8-0.5,1.3-0.6
	c0.1,0,0.2-0.1,0.3-0.1c0.7-0.2,3.2-1.1,4-1.6c0.2-0.1,0.5-0.2,0.8-0.1c0.2,0,0.4,0.1,0.7,0.3c0,0,2.7,0.9,3,0.9
	c0,0,0.6-0.2-0.7-0.6c0,0-0.1-0.1-0.1-0.1l0,0c0-0.1,0.1-0.1,0.1-0.1c0.3,0.1,1.2,0.3,1.5,0.1c0.1,0,0.1-0.1,0-0.2
	C47.6,27.1,47.4,26.9,48,26.8z M7.2,7.2C7.1,7.3,7,7.3,6.9,7.3H6.8C6.6,7.3,6.4,7.2,6.4,7c0-0.1,0-0.2,0.1-0.2
	c0.1-0.1,0.1-0.1,0.2-0.1h0.2c0.2,0,0.3,0.1,0.3,0.3C7.2,7.1,7.2,7.1,7.2,7.2z"/>
</svg>
