<?xml version="1.0" encoding="utf-8"?>
<!-- Generator: Adobe Illustrator 19.1.0, SVG Export Plug-In . SVG Version: 6.00 Build 0)  -->
<svg version="1.1" id="Layer_1" xmlns="http://www.w3.org/2000/svg" xmlns:xlink="http://www.w3.org/1999/xlink" x="0px" y="0px"
	 viewBox="0 0 48 48" style="enable-background:new 0 0 48 48;" xml:space="preserve">
<style type="text/css">
	.st0{fill:#808080;}
</style>
<path class="st0" d="M43.2,35.2c0,0-1-1.4-3.3-2.6l2,0.7c0,0,0.7,0.2-0.4-1c0,0-1-0.6-1.5-1.1c-0.1-0.1-0.2-0.3-0.3-0.5
	c-0.2-0.7-1.1-2.8-5-4.2c-0.4-0.1-0.8-0.3-1.1-0.6c-1.8-1.3-7.6-5.4-12-5.2c-0.3,0-0.6,0-0.9-0.1c-0.5-0.1-1.5-0.2-3.4,0.1
	c-0.7,0.1-1.5-0.1-2.1-0.5c-0.4-0.3-0.7-0.8-0.6-1.3c0,0-0.1-2.2-0.3-3.5c-0.1-0.6-0.1-1.1-0.1-1.7c0.2-2.9,0.9-10.8,0.2-12.2
	c0,0-1.1-2.2-4.2-1.4C9.7,0.4,9.2,0.7,8.8,1.1c-0.5,0.6-1.6,1.5-3.5,2c0,0-0.8,0.5-0.3,0.9c0,0,0-0.2,0.4-0.1c0,0,3.1-0.3,4,0.2
	c0,0,0.5,0.3,1.6,0.6c0,0,0.7,0.1,0.5,1.3c0,0-0.6,7.5-2.1,11.2c-0.1,0.2-0.2,0.4-0.3,0.6c-0.4,0.7-1.6,3.5-0.3,6.8
	c0.3,0.7,0.5,1.3,0.7,2c0.7,2.4,2.9,8.6,9.6,10c0.2,0,0.3,0.1,0.4,0.3c0.2,0.4,0.6,1.3,0.9,1.4c0,0,0.4,0.6,0.2,1
	c-0.1,0.2-0.1,0.5-0.1,0.7c0,0.1,0.1,0.3,0.1,0.4c0.1,0.4,0.2,0.8,0.3,1.3c0.1,1.4,0.3,4.1-0.2,4.1c0,0-4.1,0.5-5.1,0.5
	c0,0-1.1,0.2,0.2,0.4c0,0-0.4,0.4,1.1,0.4l3.4,0.1c0.1,0,0.2,0,0.3,0.1c0,0,0,0,0,0c0,0,0.3,0,0.7-0.1c0.1,0,0.2,0,0.3,0
	c0.4,0,1.4,0,1.2-0.8l0-0.9c0,0,0.1-0.1,0.1,0c0.2,0.2,0.6,0.6,0.7,0.1c0,0,0.2,0.1,0.2,0.3c0,0,0.1-0.3-0.8-0.9
	c-0.3-0.2-0.4-0.4-0.5-0.8c-0.2-0.8-0.5-2.9-0.3-7c0-0.2,0.1-0.3,0.3-0.3c1-0.1,4.3-0.6,5.1-0.8c0.1,0,0.2,0,0.3,0.1
	c0.2,0.2,0.7,0.7,1.7,0.8c0.1,0,0.2,0.1,0.2,0.2l-0.1,0.4c0,0,0,0.1-0.1,0.1c-0.1,0.1-0.3,0.5,0.4,1.5c-0.2,0,2,7.3-3.4,7.5
	c0,0-0.7,0.1-0.2,0.2c0,0-0.7,0.3-0.7,0.6H26c0,0-0.1,0.1,0.3,0.1c0,0,1.6-0.2,2.2,0.1c0,0,1.3,0.3,1.6,0c0,0,0.1-0.1,0.3-0.2
	c0.2-0.1,0.3-0.1,0.5-0.3c0.3-0.3,0.7-0.7,0.8-1.2c0,0,0-2.4-0.3-3.6l-0.1-4.4c0,0,0.2-0.6-0.4-1.4c0,0-0.4-1.2-0.1-1.3
	c0,0,4.1-1.1,6.6-1c0.3,0,0.5,0.1,0.8,0.2c1,0.5,3.7,1.8,2.8,0.2c0,0,0-0.1,0.1-0.1c0.2,0.1,0.6,0.4,0.8,0.7
	C41.8,35.5,43.3,35.9,43.2,35.2z M10.7,1.7c0,0,0.4-0.8,0.9-0.2C11.6,1.4,11.6,2.2,10.7,1.7z"/>
</svg>
