<?xml version="1.0" encoding="utf-8"?>
<!-- Generator: Adobe Illustrator 19.1.0, SVG Export Plug-In . SVG Version: 6.00 Build 0)  -->
<svg version="1.1" id="Layer_1" xmlns="http://www.w3.org/2000/svg" xmlns:xlink="http://www.w3.org/1999/xlink" x="0px" y="0px"
	 viewBox="0 0 48 48" style="enable-background:new 0 0 48 48;" xml:space="preserve">
<style type="text/css">
	.st0{fill:#808080;}
</style>
<path class="st0" d="M47.1,6.7c0,0-3.2-1.3-3.9-2c0,0-3-2.8-5.8-0.4c0,0-2.5,2.2-1,6.7c0,0,1.1,3.7,0.8,5c0,0.1,0,0.2,0,0.3
	c0,0.5-0.4,2.1-4.6,1c-0.2,0-0.4-0.1-0.5-0.2c-1.2-0.6-7.8-3-16.4,2.3c0,0-1.3,1.2-2.6,1.7c-0.1,0-0.2,0.1-0.3,0.1
	c-0.2,0-0.6,0.1-0.9,0.6c-0.1,0.2-0.3,0.4-0.5,0.5c-0.6,0.3-1.6,0.8-2,1.3c0,0-2.6,1.5-4.4,1.9c0,0-3.4,1.2-3.4,2.4
	c0,0-0.6,0.4-0.6,0.8c0,0,0.6-0.5,0.8-0.3c0,0-0.1,0.3,0.7-0.1c0,0,3.4-0.7,3.1,0c0,0-0.2,0.2-0.3,0.4c-0.1,0.2-0.3,0.4-0.6,0.6
	c-0.8,0.5-2.4,1.6-4.2,3.7c0,0,0,0.3,0.3,0.3c0,0-1.1,0.6-0.7,0.8c0,0,1.3,0,2-0.6c0,0,3.6-3.2,6.5-2.9c0.1,0,0.2,0,0.2,0.1
	c0.7,0.3,5,2.2,11.3,2.6c0.2,0,0.4,0.2,0.5,0.4c0.1,0.3,0.3,0.6,0.6,0.8c0,0-0.1,1.6,0.4,2.9l0.8,5.5c0,0-0.2,0.5,0.8,0.4
	c0.1,0,0.2,0,0.3,0.1c0.4,0.4,2,1.6,4.7,1.4c0,0-1.7-0.3-0.6-0.7c0,0,1.6,0.2,2.5-0.3c0,0,0.7-0.2,1.1,0c0,0,0.2-0.5-1.3-0.6
	c0,0-1.4-0.2-1.3-0.8c0,0,0.8-0.1-0.1-0.4c0,0-4.1,0.5-4.4-0.6c0,0-1.1-3.4-1-4.1c0,0,0-1.2,0.2-1.7c0,0,0.3-0.3-0.3-0.9
	c0,0,0-0.1,0-0.1c0.1-0.1,0.3-0.2,0.5-0.3c0,0,0.1,0,0.1,0c0.2,0.6,0.8,3.2,0.4,4.2c0,0,0,0,0,0.1c-0.1,0.2-0.5,1.2,1.6,1.7
	c0,0,3.1,1.6,4.1,0.7c0,0-0.8-0.1-0.2-0.6c0,0,1.7,0,2-0.4c0,0,0.5-0.1,0.8,0.1c0,0,0-0.6-2-0.5c0,0-1.9-0.2-0.8-0.7
	c0,0-3.2,0.2-3.5-0.7c0,0-1.4-3.9-1-4.2c0,0,2.3-0.5,4.2-1.9c0,0,15.8-7.9,12.8-14.4c0,0-2-5-2.2-7.4c0-0.6,0.3-1.1,0.8-1.4
	c0.8-0.3,2.1-0.8,3.7-0.8l3.6,0C47.9,7.7,48.4,7,47.1,6.7z M40.6,5.6c-0.3,0-0.5-0.2-0.5-0.4s0.2-0.4,0.5-0.4c0.3,0,0.5,0.2,0.5,0.4
	S40.8,5.6,40.6,5.6z"/>
</svg>
