<?xml version="1.0" encoding="utf-8"?>
<!-- Generator: Adobe Illustrator 19.1.0, SVG Export Plug-In . SVG Version: 6.00 Build 0)  -->
<svg version="1.1" id="Layer_1" xmlns="http://www.w3.org/2000/svg" xmlns:xlink="http://www.w3.org/1999/xlink" x="0px" y="0px"
	 viewBox="0 0 48 48" style="enable-background:new 0 0 48 48;" xml:space="preserve">
<style type="text/css">
	.st0{fill:#808080;}
</style>
<path class="st0" d="M48,11.9c0,0-0.1-0.8-0.6-0.8c0,0-0.5-1-1.4-0.9c0,0-2.6-0.3-3.2-0.7c0,0-1.2-1-2.6-0.6c0,0-0.7-0.2-1-0.1
	c0,0-1.3-0.4-1.1,0.4c0,0,0.1,0.5,0.6,0.8c0,0-4.7,7.6-8.9,4.7c0,0-2.8-2.9-4.1-3.2c0,0-3.4-1-4-1.7c0,0-2.2-3.2-4-3
	c0,0-1.7,0.2-2.5,0.8l-2.6,2c0,0-0.7,0.7-3.2,1.6c0,0-3.3,0.6-4.4,4.4c0,0-1.3,2.1-1.3,3.1c0,0-0.2,2.8-1,3.5c0,0-1.8,3.2,0,2.5
	c0,0,1.1-0.6,0.9-2.1l0.7-2.4c0,0,0.1,3-0.9,4.5c0,0-1.3,2.2-2.4,2.8c0,0-1,0.9-0.5,2.2c0,0,0.6,3.3,0.4,4.4c0,0-0.2,3.9-0.4,4.3
	c0,0-0.6,1-0.1,1.5c0,0-0.2,1.1,1.4,1.2c0,0,1.6,0.3,2.4,0c0,0,0.8,0.3,0.6-0.2c0,0,0.5,0.1,0.3-0.3c0,0-0.3-1.2-1.7-1
	c0,0-0.4-1.3-0.9-1.6c0,0,0.1-0.7-0.2-0.9c0,0,0.6-6.2,1-7.2c0,0,0.1-0.3-0.1-0.4c0,0,0.8-0.9,1-1.3c0,0,1.2-0.7,1.1-1.1
	c0,0,0.7,0.1,0.7-0.6c0,0,2.1-0.7,2.1-2.6c0,0,0.5-0.3,0.6-1.4c0,0,0.6-0.5,0.7-1c0,0,4.2,4.9,4.8,7.2c0,0,0.4,1.6,1.4,1.4
	c0,0-2.6,4.7-3.2,5.4c0,0-0.5,0.4-0.5,1.1c0,0-1,0.1-0.9,1.2c0,0,2.2,2.3,3.5,2.3c0,0,0.4,0.8,0.6,0.1c0,0,0.2,0.1,0.2-0.4
	c0,0,0-0.7-0.3-0.8c0,0,0-0.8-0.5-0.9c0,0-0.5-0.6-0.4-1c0,0,0.6-0.9,0.5-1.4c0,0,0-0.7,0.3-1.2l1.6-3c0,0,2.7,3.8,3,4.3
	c0,0,0,0.4,0.1,0.5c0,0-0.2,1.2,0.3,1.4c0,0-0.1,1,1.7,0.9c0,0,1.9,0,2.2-0.3c0,0,0.6,0.1,0.3-0.4c0,0-0.8-1.6-1.7-1
	c0,0-0.7-1.5-1.4-1.5c0,0-0.2-0.8-0.7-0.8l-2.6-4.4c0,0,1.3-0.7,1.3-1.9c0,0,0.5-0.1,0.3-0.8c0,0,0.6-1.8,2.8-3c0,0,2.2-2.3,3.2-1.9
	c0,0-0.2,0.5,0.3,0.7c0,0,1.6,3,2,6.1c0,0,0,0.6,0.6,1c0,0,2.7,6.1,2.7,7.2c0,0,0,0.8,0.5,0.9c0,0-0.9,0.9,0.1,1.4
	c0,0,0.4,0.2,1.3,0.1c0,0,0.7-0.2,1.3,0c0,0,1.3,0,1.4-0.4c0,0,0.2-0.1,0.6,0.2c0,0-0.2-1-0.9-1.2c0,0-0.3-0.7-1-0.3
	c0,0-0.8-0.4-0.9-1c0,0-0.2-0.9-1-1.6c0,0-2.3-4.2-2-4.9c0,0,0.1-0.3-0.1-0.5c0,0,0.1-0.5-0.1-0.7c0,0,0.5-0.6-0.5-1.5
	c0,0,0.1-0.6-0.4-0.7c0,0-0.1-0.5-0.3-0.6c0,0-0.5-4.3,0-5c0,0,5.1,0.2,7.8-3.7c0,0,3.3-4.3,5.3-4.2c0,0,2.3-0.4,3.3-0.1
	c0,0,0.5,0.5,1.2,0c0,0,1-0.4,0.5-0.9l0.1-0.1c0,0-1.3-0.3-1.4-0.4c0,0,0.9,0.1,1.3,0.2C47.4,12.3,48.1,12.4,48,11.9z M16.7,27.4
	c0,0-0.5-1.4-0.8-1.5c0,0,0.2-0.7-0.3-0.9c0,0,0.4-0.6-0.1-0.9c0,0,0.3-0.9-0.5-2.1c0,0,4,1,4.8,0.7C19.8,22.6,17.7,27,16.7,27.4z"
	/>
</svg>
