<?xml version="1.0" encoding="utf-8"?>
<!-- Generator: Adobe Illustrator 19.1.0, SVG Export Plug-In . SVG Version: 6.00 Build 0)  -->
<svg version="1.1" id="Layer_1" xmlns="http://www.w3.org/2000/svg" xmlns:xlink="http://www.w3.org/1999/xlink" x="0px" y="0px"
	 viewBox="0 0 48 48" style="enable-background:new 0 0 48 48;" xml:space="preserve">
<style type="text/css">
	.st0{fill:#808080;}
</style>
<path class="st0" d="M47.9,29.7c0,0-0.5-1.7-2.4-1.9c-0.2,0-0.4-0.2-0.4-0.4c0.1-0.6-0.1-1.6-2.4-2c-0.2,0-0.4-0.1-0.6-0.2
	c-0.2-0.1-0.4-0.2-0.7-0.3c-0.6-0.3-1.2-0.7-1.7-1.2c-1.4-1.5-5-5.1-5.9-6.1c-0.1-0.1-0.2-0.2-0.2-0.3c-0.1-0.2-0.6-0.6-1.9-0.9
	c0,0-7.5-1.6-10.6-3.8c-0.4-0.3-0.7-0.5-1.1-0.7c-1.4-0.8-4.3-2.3-5-2.4c0,0-0.2-0.6-0.5-0.8c-0.2-0.1-0.4-0.3-0.5-0.5
	c-0.5-0.8-1.8-2.4-3.8-0.9C9.8,7.7,9.4,7.8,9,7.7C7.6,7.4,4.7,6.8,4,7.6c0,0-1.7,1-0.9,2.3c0,0-0.4,1.6,1.7,2.4
	c0.4,0.2,0.7,0.4,1,0.6C6.7,13.6,8.3,15.1,9,17c0,0,0.9,3.3,4.6,6.1c0.2,0.1,0.2,0.4,0,0.6c-0.9,0.8-3.4,3.1-3.9,4.7
	c0,0-0.7,0.7-0.7,1.3c0,0.1-0.1,0.2-0.1,0.3c-0.8,0.5-3.7,2.2-4.8,1.8c0,0-1.1-0.3-1.4-0.4c0,0-0.2-0.2-0.6,0.1c0,0-0.6,0.2-1,0.1
	c0,0-0.9-0.3-1.1,0.5c0,0-0.3,0.8,1,0.7c0,0,0.5-0.1,0.7-0.4c0.1-0.1,0.1-0.1,0.2-0.1c0.4-0.1,1.4-0.2,1.6,0.2c0,0,0.2,0.4,1.3,0.2
	c0.1,0,0.2,0.1,0.1,0.1C5,32.8,4.8,33,4.3,33.1c0,0-0.4,0.2-0.6,0.5c-0.1,0.1-0.2,0.2-0.3,0.3c-0.5,0.2-1.4,0.7-1.4,1
	c0,0-0.2,0.4,0.5,0.4c0,0,2.3,0.3,2.5-0.1c0,0,0.3-0.4,0.1-0.9c0-0.1-0.1-0.2-0.1-0.3c0-0.2,0.1-0.5,0.3-0.6c0.1,0,0.2-0.1,0.2-0.1
	c0.3-0.2,0.9-0.7,1.8-0.8c0,0,1.9-0.3,2.3-0.2c0,0,0.1,0,0.1,0c0.2,0.1,0.7,0.6,0.1,1.2c0,0-0.8,0.6-0.6,1c0,0,0,0.2,0.7,0.2
	c0,0,2,0.2,1.8-0.5c0,0-0.8-0.8-0.8-1.3c0,0-0.1-0.8,1.4-0.5c0,0,1.3-0.1,1.5,0.1c0,0,0.3,0.1,0.5-0.1c0.1-0.1,0.3-0.2,0.5-0.2
	c0.4,0,1.2,0.1,1.8,0.4c0,0,0.6,0.4,0.9,0.1c0,0,0.5-0.7-0.6-0.7c0,0-1.2-0.5-2-0.3c0,0-1.7-0.1-2.4-0.9c0,0-0.4-0.3,0.3-0.8
	c0,0,2.9-3,3.3-4.2c0-0.1,0.2-0.2,0.3-0.1c0.6,0.4,2.3,1.6,2.6,2.6c0.1,0.3-0.1,0.6-0.4,0.7c-0.6,0.1-1.9,0.3-2.4,0.2
	c0,0-1.5,0-0.8,0.9c0,0,0.1,0.4,1.1,0.1c0,0,2.4-0.7,2.4-0.5c0,0-1,3.1-1,3.3l-0.8,3.8c0,0-0.5,0.3-0.9,0.2c0,0-1.4-1.4-2.4-1.1
	c0,0-1.4,0.4-1.2,1c0,0-0.1,0.7,1.4,0.2l1.1,0.1c0,0-0.5,0.4-1.6,0.4c0,0-3,0.3-4.7-0.4c0,0-0.4-0.1-0.6,0.1c0,0-0.4,0.2-1.2,0.1
	c0,0-1.4,0.1-1.3,1c0,0-0.3,1,1,0.6c0,0,1.3-0.7,1.5-0.6c0,0,0.4,0.1,0.8-0.1c0,0,1.8,0.2,1.8,0.4c0,0-1,0.7-1.9,1.1
	c0,0-0.4,0.4,0.2,0.7c0,0,0.9,1.1,1.9,0.6c0,0,0.3-0.1,0.2-0.8c0,0,0.4-1,1-0.6c0,0,0,0.8,1.1,0.2c0,0,0.1,0.3,1.5-0.2
	c0,0,4.9,0.4,5.6-0.9c0,0,1.2-0.2,0.6-0.9c0,0,0.5-0.4,0.4-0.7c0,0,1-0.5,1.8-0.2c0,0,0.2-0.8-0.8-0.8l-0.7,0.1c0,0,1.3-4.9,0.9-6.3
	c0,0,3.6,2,6.2,2.3c0.3,0,0.6,0.3,0.7,0.6c0.2,0.8,0.8,2.2,2.7,2.2l0.3,0.2c0.2,0.2,0.2,0.5-0.1,0.6c-0.8,0.3-2.2,0.7-3.4,0.8
	c0,0-1.5,1-4.4,1.1c0,0-0.4,0.1-0.8,0.4c0,0-2.4,0.6-2.2,1.1c0,0,0.7,1.5,2,0.8c0,0,0.4-1,1-1c0,0,0.2,0.1,0.5-0.4
	c0,0,1.3-0.5,1.7,0c0,0,0.6,1,1.7,0.3c0,0,1.5-1.1,2.7-0.8c0.1,0,0.2,0,0.3,0c0.4-0.1,1.6-0.4,2.4-0.8c0.3-0.2,0.7-0.3,1.1-0.2
	c1.2,0.1,4,0.3,5.8,0c0.5-0.1,0.9-0.2,1.3-0.4c1.1-0.5,3.4-1.9,4.2-3.2C46.1,33.4,48.4,30.5,47.9,29.7z M12.5,12.5
	c-1.2,0-2.1-0.9-2.1-2.1c0-1.1,0.9-2.1,2.1-2.1c1.2,0,2.1,0.9,2.1,2.1C14.6,11.5,13.7,12.5,12.5,12.5z"/>
</svg>
