<?xml version="1.0" encoding="utf-8"?>
<!-- Generator: Adobe Illustrator 19.1.0, SVG Export Plug-In . SVG Version: 6.00 Build 0)  -->
<svg version="1.1" id="Layer_1" xmlns="http://www.w3.org/2000/svg" xmlns:xlink="http://www.w3.org/1999/xlink" x="0px" y="0px"
	 viewBox="0 0 48 48" style="enable-background:new 0 0 48 48;" xml:space="preserve">
<style type="text/css">
	.st0{fill:#808080;}
</style>
<path class="st0" d="M47.9,35.9c0,0,0.3-0.9-0.2-1.9c0,0,0.3-0.6-0.3-1.3L47,29.8c0,0-0.3-5.2-0.1-5.8c0,0,1-6.9,0-8.5
	c0,0-2.8-4.5-7.3-4.5c0,0-7.2,0.5-9.1,1.2c-0.3,0.1-0.7,0.2-1.1,0.3c-1.5,0.3-5,1-7.9,0.3c-0.1,0-0.2,0-0.3-0.1
	c-0.5-0.1-2.3-0.5-2.8-0.9c0,0-1.8-1.3-3.9,0.4c0,0-1.1,0.8-4.5-0.6c-0.2-0.1-0.3-0.4-0.1-0.6c0.6-0.7,1.7-2.2,1.6-4
	c0,0,0-2.5,0.2-3.3c0,0-0.6,0.1-1.8,3.6c0,0-1-2.9-1-3.4c0,0-0.5-0.1-0.5,2.4c0,0,0.2,2.3-1,2.8C7.3,9.2,7.1,9.3,7,9.4
	c-0.7,0.7-2.3,2.4-3,3.6c-0.4,0.6-0.8,1.2-1.3,1.8c-0.7,0.8-1.7,1.8-2.1,2.3c0,0-1.4,1,0.3,1.9c0,0,0.5,0.8,1.6,0.3
	c0,0,1.3-0.1,2.9,0.9C5.9,20.5,6.4,20.8,7,21c0.5,0.2,1.2,0.6,1.5,1.1c0,0,1.6,2.8,1.9,3.9c0,0,0.6,1.1,1.9,1.7
	c0.8,0.4,1.5,0.9,2,1.5c0.5,0.6,1.2,1.3,1.7,1.3c0,0-0.9,4-0.1,5.1c0,0,0.2,2-0.6,3.2c0,0-0.3,0.6-0.3,1c-0.1,0.3-0.2,0.5-0.3,0.8
	c-0.2,0.2-0.3,0.5-0.4,0.8c-0.1,0.2-0.2,0.4-0.3,0.6c-0.2,0.3-0.5,0.6-0.6,0.6c0,0,0.6,0.4,2.5,0.2c0.1,0,0.1,0,0.2-0.1
	c0.2-0.1,0.9-0.6,0.6-1.2c0,0-0.2-0.6,0.2-0.5c0,0,0.3,0.3,0.3-0.1l0-2.8c0,0,0.1-2.3,0.8-3.4c0.1-0.2,0.2-0.4,0.2-0.6l0-0.4
	c0,0,0.2,1.6,0.6,2.2c0.1,0.1,0.1,0.2,0.1,0.4c0.1,0.6,0.2,2.2-0.1,2.7c0,0-0.2,1-0.1,1.5c0,0.2,0,0.3-0.1,0.5
	c-0.1,0.3-0.3,0.8-0.7,1.2c0,0-0.8,1.1-1.1,1.2c0,0-0.1,0.2,0.5,0.2c0,0,2.1,0.2,2.5-0.4c0,0,0.8-0.6,0.3-1.3c0,0,0-0.1,0-0.2l0-0.2
	c0-0.1,0.1-0.1,0.1-0.1c0.2,0.1,0.4,0.1,0.4-0.3L20.5,37c0,0,0-2.1,0.2-2.5l0-4.4c0-0.4,0.2-0.7,0.6-0.9c1.3-0.6,4.9-2,7.6-1.5
	c0.3,0,0.5,0.2,0.6,0.4c0.3,0.3,0.7,0.8,1.4,0.7c0,0,0,1.5,0.7,1.4c0,0,0.1-1.1,0.9-1.2c0,0,0.4-1.9,2.8-2.7l1.4-0.7
	c0.3-0.1,0.6-0.1,0.8,0.1c0.5,0.5,1.5,1.5,1.9,3.1c0,0,1.5,4.9,1.6,5.2c0,0,0.4,4.3-0.6,5.7c0,0-0.3,1.9-0.8,2.4
	c0,0-0.1,0.3-0.3,0.6c-0.1,0.2-0.2,0.4-0.4,0.5c-0.4,0.3-1,0.9-0.8,1c0,0,2.1,0.2,2.8,0c0,0,0.4-0.2,0.3-0.4l2.7,0
	c0,0,0.4-0.1,0.3-0.8c0,0-0.3-1.2,0.7-1.2c0,0,0.3-0.1,0.1-0.8c0,0,0.1-7.2,0.5-8.9c0,0,0.2-0.6-0.2-1.1c0,0-1.2-2.7-1-3.7
	c0,0,0-3.2,1.8-5.7c0,0.8-0.2,6.8,0.3,8.8l-0.1,2c0,0-1,2.9-0.2,3.5c0,0-0.2,1.1,0.3,1.4c0,0-0.3,0.4,0,0.7c0,0-0.2-0.5,0-0.6
	c0,0,0.2,0.3,0.3,0.3c0,0,0,0.6,0.1,0.8c0,0-0.5,0.4-0.4,0.6c0,0,0.3-0.5,0.4-0.5c0,0,0.1,0.4,0.6,0.5c0,0-0.4-0.2-0.3-0.4
	c0,0,0.6-0.3,0.1-1.3C47.3,37.5,48.2,36.9,47.9,35.9z M5.3,14C5.1,14,5,13.9,5,13.8c0-0.1,0.1-0.2,0.3-0.2c0.2,0,0.3,0.1,0.3,0.2
	C5.6,13.9,5.4,14,5.3,14z M42.8,41.4c0,0-0.6,1.1-0.5,1.3l-0.8,0.7c0,0-0.2-1,0.5-1.4c0,0,0.5,0.3,0.3-0.7c0,0,0.6-4.2,1.1-5.2
	C43.3,36.1,43.5,40.4,42.8,41.4z"/>
</svg>
