<?xml version="1.0" encoding="utf-8"?>
<!-- Generator: Adobe Illustrator 19.1.0, SVG Export Plug-In . SVG Version: 6.00 Build 0)  -->
<svg version="1.1" id="Layer_1" xmlns="http://www.w3.org/2000/svg" xmlns:xlink="http://www.w3.org/1999/xlink" x="0px" y="0px"
	 viewBox="0 0 48 48" style="enable-background:new 0 0 48 48;" xml:space="preserve">
<style type="text/css">
	.st0{fill:#808080;}
</style>
<path class="st0" d="M47.5,13.7l-0.1-0.1C47,13,46.5,12.6,46,12.2c-0.5-0.3-1-0.6-1.6-0.8c-1.4-0.5-3.6-0.9-5.7-0.6
	c0,0-8.1,0.2-10.3-0.2c0,0-2.3-0.5-4.3,0c0,0-6.6-0.1-8.3,0.9l-3.5,1c0,0-1.2-1-3.1,0.7c-0.1,0.1-0.3,0.2-0.5,0.1
	c-0.5-0.2-1.6-0.6-1.8-0.9c0,0-1-1.3-1.9-0.2l-1,1c-0.1,0.1-0.3,0.2-0.5,0.1c-0.5-0.2-1.5-0.7-1.9-0.3c0,0-0.7,0.4-0.2,0.9
	c0,0,0.4,0.7,0.7,1c0.1,0,0.1,0.1,0.1,0.2c0,0.2-0.1,0.5-0.1,0.8c0,0.1,0,0.1,0.1,0.2c0.1,0.1,0.3,0.3,0.2,0.7c0,0-0.2,0.9-0.6,1.4
	c-0.1,0.1-0.1,0.2-0.2,0.2c-0.2,0.4-0.7,1.2-1.1,1.4c0,0-0.7,0.4-0.5,1c0,0,0.3,1.2,0.8,1.1c0,0,0.3,0,0.6,0.1
	c0.1,0,0.1,0.1,0.1,0.2c0,0.2-0.1,0.6,0.6,0.6c0,0,0.7,0.2,1.3-0.3c0.1-0.1,0.2-0.1,0.2-0.1c0.4-0.2,1.2-0.6,1.7-0.7
	c0.1,0,0.2,0,0.3,0c0.2,0.1,0.6,0.2,1-0.3c0-0.1,0.1-0.1,0.2-0.1c0.4-0.3,2.4-1.3,4,1.2c0,0.1,0.1,0.2,0.1,0.2
	c0.3,0.9,2.4,6.4,7.2,5.1c0.2,0,0.3,0,0.4,0.2c0.1,0.4,0.3,1.1,0.3,1.5c0,0-0.2,1,0.5,2.1c0.1,0.2,0.2,0.4,0.2,0.6L19.3,35
	c0,0-0.5,0.5-0.4,0.9c0,0.1,0,0.2-0.1,0.3c-0.3,0.3-0.9,0.8-0.7,0.9c0,0,1.1,0.5,1.9,0.2c0,0,0.8-0.4,0.8-0.8c0,0-0.2-1,0.1-0.9
	c0,0,0.3,0.4,0.6,0c0,0,0.8,0.1,0.7-0.4c0,0,0-0.8,0.3-1.1c0,0,0.3-0.9-0.2-1.6c0,0-0.1-0.1-0.1-0.2c-0.1-0.4-0.5-2.1-0.1-3.1
	l-0.1-2.4c0-0.1,0.1-0.3,0.2-0.3c0.6-0.3,2.9-1.2,8,0.4c0,0,0.3,0.1,0.3-0.1c0,0,0.5-0.1,1,0.3c0,0,0.6,0.2,2-0.5l1.7-0.3
	c0.1,0,0.2,0,0.3,0.1c0.1,0.2,0.5,0.7,1.4,1.3c0.2,0.1,0.3,0.4,0.3,0.6c0,0.4,0,0.8,0.3,0.8c0,0,0.3,0,0.3-0.6
	c0-0.1,0.1-0.2,0.1-0.3c0.3-0.2,0.8-0.4,1-0.1c0,0-0.1,1.2,0.4,0.6c0,0,0,0.6,0.3,0.7c0,0,0.3,2.8-1.4,5c0,0-0.7,1.4-1.2,1.7
	c0,0-0.9,1.3-0.2,1.3c0,0,0.8,0.4,1.2-0.2c0,0,0.5,0.1,0.9-0.9c0,0,0.6,0.4,0.7-0.3c0,0,1.1,0.5,1.3-0.7c0,0,0.7,0.4,0.8-0.2
	c0,0,1.3-6.1,1.9-6.9c0,0,0.3-0.5-0.2-2.1c-0.1-0.2,0-0.4,0.1-0.5c0.3-0.5,0.9-1.6,1-2.3c0-0.1,0.1-0.2,0.1-0.3l1.9-3.4
	c0,0-0.7,3.6-0.7,5.2c0,0.3-0.1,0.6-0.2,0.9c-0.3,0.6-0.7,1.9-0.3,3.8c0,0,0,3.2,0.4,4.3c0.1,0.2,0.3,0.2,0.4,0
	c0.1-0.4,0.3-0.9,0.4-1.7c0,0,0.7-2.4,0.2-4.8c0,0-0.5-2.1-0.4-3.6l1-4.4l0.4-2.7c0,0,0.7-2.3,0-2.8C47.6,13.8,47.5,13.7,47.5,13.7z
	 M5.6,16.2c0,0,0.1-0.7,1.1-0.4C6.6,15.9,6.3,16.6,5.6,16.2z M20.6,35c0,0-0.5-3,0.3-3.9c0,0-0.1,2.6,0.1,2.9
	C21.1,34.1,21.3,34.8,20.6,35z"/>
</svg>
