<?xml version="1.0" encoding="utf-8"?>
<!-- Generator: Adobe Illustrator 19.1.0, SVG Export Plug-In . SVG Version: 6.00 Build 0)  -->
<svg version="1.1" id="Layer_1" xmlns="http://www.w3.org/2000/svg" xmlns:xlink="http://www.w3.org/1999/xlink" x="0px" y="0px"
	 viewBox="0 0 48 48" style="enable-background:new 0 0 48 48;" xml:space="preserve">
<style type="text/css">
	.st0{fill:#808080;}
</style>
<path class="st0" d="M12.3,14.2c0,0-0.8-0.9-2.3-1.7c0,0,0.1-0.1,0.4,0c0,0-0.4-0.3-0.9-0.5c-0.1,0-0.1-0.1-0.1-0.1
	c0-0.3-0.5-0.3-0.7-0.5c-0.2-0.3-0.8-0.9-1.6-1.4c0,0-2.1-1.4-5.1,0.4c0,0-2.9,1.9-1.8,2.5c0,0,0,0,0,0.1c-0.1,0.5-1,4.1,2.1,4.6
	c0,0-0.9-1.6-0.2-1.5c0.1,0,0.1,0,0.1-0.1l0-0.1c0-0.1,0.1-0.2,0.2-0.2c0.3,0,1.1,0.1,1.6-0.1c0.1,0,0.2,0,0.2,0.1
	c0,0.3,0.2,0.7,0.6,1C5.1,16.9,5.1,17,5.1,17c0,0.3,0,1,0.5,1.6c0.2,0.2,0.3,0.5,0.5,0.8c0.4,0.9,1.3,2.8,3,3.7
	c0.2,0.1,0.3,0.2,0.4,0.4c0.1,0.2,0.2,0.3,0.1-0.3c0,0,0.2-0.1,0.4,1.1c0,0,0.4,1.4,0.3,1.9c0,0.1-0.1,0.1-0.2,0.1
	c-0.1,0-0.2,0-0.2,0.2c0,0.1-0.1,0.1-0.1,0.1c-0.3,0-1,0.1-1.6,0.5c-0.1,0.1-0.2,0.1-0.3,0.2c-0.3,0.1-1,0.4-1.2,0.6
	c-0.1,0.1-0.2,0.1-0.2,0.1c-0.3,0.1-0.8,0.4-0.8,0.8c0,0-0.8,0.5-0.3,1.2c0,0,0.2-0.8,0.4-0.8c0,0,0.4,0.3,0.5-0.2l0.2-0.2
	c0.1-0.1,0.2,0,0.2,0c0.1,0.1,0.1,0.1,0.2,0.1c0,0-0.2-0.8,0.3-0.4c0,0,0.2-0.1,0.2,0c0,0,0,0,0,0c0,0,0,0,0,0
	c-0.1,0.1-0.3,0.4-0.5,0.4c0,0-0.3,0.8,0.2,1c0,0,0.2-0.8,0.3-0.8c0,0,0.3,0.2,0.7-0.1c0.1-0.1,0.2-0.1,0.4-0.1c0.2,0,0.7,0,1.2-0.3
	c0,0,1.2-0.4,1.8-0.4c0,0,2.9,0.2,2.9-0.1c0,0,0.4,0.2,0.3,0.6c0,0,0.5-0.8-0.5-1.2c0,0-0.1,0-0.1,0c-0.1,0-0.4-0.2-0.7,0
	c0,0,0.3-0.8,0.3-1.4c0-0.1,0.1-0.1,0.2-0.1c0.7,0.5,3.1,2.4,3.9,2.8l6.3,3.8c0,0,0.1,0,0.1,0c0.1-0.1,0.2-0.2,0-0.4
	c-0.1-0.1,0-0.1,0-0.2c0.1,0,0.2-0.1,0.2-0.2c0,0,0-0.1,0.1,0c0.3,0.2,1.3,1,1.4,0.4c0-0.1,0.1-0.1,0.2-0.1c0.1,0,0.1,0-0.1-0.1
	c0,0-0.6-0.6-0.4-0.6l1.7,1.5l4.2,3.5c-0.1-0.1-2.5-2.6-3.7-3.7l4.1,2.9l-7.4-6.1l3.6,2.7c0,0,7.7,5.7,8.6,6c0,0,0.1-0.3-1-0.8
	c0,0-8.1-6-8.7-7.1l9.5,7c0,0,0.6,0.5,1.3,0.6l-0.9-1.1c0,0,2.9,1.8,4,1.5c0,0,0.5-0.5-0.5-0.5c0,0-0.9,0.1-2.4-0.9
	c-1.5-1-10.3-6.9-10.5-7.1l8.6,4.7c0,0,7.7,4.1,12.1,3.3l-4.1-0.9l-7-3c0,0-12.1-6.5-12.6-7.4c0,0,3.3,0.8,3.6,0.8
	c0,0,0.1-0.2-0.6-0.7c0,0-1.1-0.7-2.2-1.2c-0.9-0.4-1.7-0.9-2.3-1.6c-1.1-1.2-2.9-2.7-3.4-3.5C18.6,19.2,9.6,12.8,12.3,14.2z
	 M13.6,15.7 M4,12.5c-0.2,0-0.3-0.1-0.3-0.3c0-0.1,0.2-0.3,0.3-0.3c0.2,0,0.3,0.1,0.3,0.3C4.4,12.4,4.2,12.5,4,12.5z M8,28.2
	c0,0-0.4,0-0.5,0c0,0,0.5-0.4,0.8-0.3C8.2,28,8.3,28.2,8,28.2z M8.9,27.6c0,0,1.1-0.2,1.3,0C10.3,27.5,9.2,27.9,8.9,27.6z"/>
</svg>
