<?xml version="1.0" encoding="utf-8"?>
<!-- Generator: Adobe Illustrator 19.1.0, SVG Export Plug-In . SVG Version: 6.00 Build 0)  -->
<svg version="1.1" id="Layer_1" xmlns="http://www.w3.org/2000/svg" xmlns:xlink="http://www.w3.org/1999/xlink" x="0px" y="0px"
	 viewBox="0 0 48 48" style="enable-background:new 0 0 48 48;" xml:space="preserve">
<style type="text/css">
	.st0{fill:#808080;}
</style>
<path class="st0" d="M47.3,34.3l-3.2-5.6C44,28.5,44,28.3,44,28.1c0.2-1.3,0.7-5.6,1.3-6.9c0,0,0.1-4.9-0.1-6.2c0,0,0.5-2.4,0.2-3.1
	c0,0-0.1-2.4-3.8-3.8c0,0-1.7-5.7-3.5-5c0,0-0.8,0.7-0.3,1.6l-0.2,0.9c0,0-2.2-1.2-3.7-0.6c0,0-7.5-6.8-15.9-3.6
	c-0.2,0.1-0.4,0.1-0.6,0.2c-1.3,0.3-6.1,1.6-7,3.4c-0.1,0.2-0.2,0.5-0.1,0.8l0.2,1.2c0,0.2,0,0.3-0.2,0.4c-1,0.7-5.3,3.5-8,6.9
	c-1.2,1.5-1.9,3.3-2.1,5.1c-0.3,2.3-0.3,5.7,1.3,8.7c0,0.1,0,0.2,0,0.3c-0.2,0.2-0.5,0.8-0.3,1.6c0,0.1,0.1,0.1,0.1,0.1
	c0.1-0.1,0.4-0.2,0.5-0.4c0,0,0.1,0,0.1,0c0.1,0.3,0.4,1,0.2,1.9c0,0-1.7,11.1-1.4,11.7c0,0,0.3,0.8,1.2,0.9c0,0,1.5-0.1,1.9,0
	c0,0,1.2,0.1,1.4-0.1c0,0,1.2,0.1,1.6-0.4c0,0,0.4,0.1,0.4-0.1c0,0,0-1.1-0.6-1.3c0,0-1.3-1.4-1.3-2.3c0-0.1,0.1-0.1,0.1-0.1
	c0.3,0.1,0.9,0.2,1,0L7,40.1c0,0,0.9,0.3,1.2-0.2c0,0,0.8,0,0.6-1c0,0,0-0.9-0.4-0.9c0,0,0-1-0.2-1.2c0,0-0.1-0.8,0.1-1.2
	c0,0,1.1-2.9,1.6-3.3c0,0,2.3-1.7,2.9-2.6c0.1-0.1,0.2-0.2,0.4-0.1c0.9,0.2,4,0.8,6.7-0.4c0,0,0.3,1.1,1.3,1.7c0,0,1.7,1.7,2.5,3.1
	c0.1,0.2,0.2,0.5,0.2,0.7l-0.1,2.1c0,0.3-0.1,0.7-0.2,1c-0.2,0.6-0.4,1.5-0.2,2.2c0.1,0.4,0.1,0.8-0.1,1.2c-0.3,1.1-0.8,3.1,0.2,3.5
	c0,0,0.1,0.2,1,0.3c0,0,0.2,0.5,1.2,0.1c0,0,0.3,0.1,0.6,0.1c0.2,0,0.4,0.1,0.5,0.3c0.2,0.4,0.5,0.9,1.4,1.3c0,0,0,0.6,1.8,0.3
	c0,0,2.1,0.3,3.4-0.4c0,0,1,0.2,1.1-0.8c0,0-0.2-1.6-0.7-2c0,0-0.1-0.5-0.7-1.2c-0.4-0.5-0.6-1-0.8-1.6l-1.2-5.1L29.7,32
	c-0.1-0.3-0.1-0.6,0-0.9c0.5-1.3,1.9-5.3,2.6-9.6c0-0.2,0.2-0.3,0.4-0.2c0.5,0.2,1.5,0.6,1.6,1.3c0,0,0.2,1.1,0.4,1.6
	c0.1,0.2,0.1,0.5,0.1,0.7c0.1,1.5,0.6,6.6,2.8,7.8c0,0,0,2.8,1.1,4.6c0.2,0.3,0.3,0.6,0.4,0.9c0.5,1.1,1.2,3.5-0.2,5.3
	c-0.4,0.6-1.3,0.6-1.7,0c0-0.1-0.1-0.1-0.1-0.2c0,0-0.8-0.8-2-0.1c0,0,0.4,0.7-0.1,1.2c0,0-0.6,0.3,0,0.4l1.3,1.1
	c0,0,2.3,1.5,5.2-0.4c0,0,1.9-1.3,2.2-3.1c0,0,0.9-2,0.6-4.8c0,0-1.1-4.2-0.7-5.8c0-0.1,0.2-0.2,0.3,0c0.6,1,2.5,4.1,4.1,3.7
	c0,0,0.2,0,0-0.3C47.7,34.8,47.5,34.6,47.3,34.3z M36.7,15c0,0,0.6-0.8,1.1,0.4C37.8,15.4,36.7,15.7,36.7,15z"/>
</svg>
