<?xml version="1.0" encoding="utf-8"?>
<!-- Generator: Adobe Illustrator 19.1.0, SVG Export Plug-In . SVG Version: 6.00 Build 0)  -->
<svg version="1.1" id="Layer_1" xmlns="http://www.w3.org/2000/svg" xmlns:xlink="http://www.w3.org/1999/xlink" x="0px" y="0px"
	 viewBox="0 0 48 48" style="enable-background:new 0 0 48 48;" xml:space="preserve">
<style type="text/css">
	.st0{fill:#808080;}
</style>
<path class="st0" d="M47.5,33.1c-0.1-0.1-0.2-0.2,0-0.3c0.1,0,0.1-0.1,0.1-0.2c0-0.2,0-0.6,0.2-0.6c0,0,0-0.1,0-0.1
	c-0.3-0.2-1.3-0.7-3.2-0.9c-0.1,0-0.3-0.1-0.3-0.2c-0.7-1.3-4.6-8.3-11.1-9.9c-0.2-0.1-7-2.8-8.3-3.3c-0.4-0.1-0.7-0.4-0.8-0.8
	c-0.2-0.5-0.2-1.3,0.6-2.4c0,0,1.6-2.1,0.3-1.8c0,0-2.4,0.9-3.4,2c0,0-3.3,3.7-5.4,4.3c0,0-7.8,1.9-11,5.5c0,0-0.7,0.7-1.3,1.4
	c-0.3,0.3-0.5,0.7-0.6,1.1c-0.1,0.2-0.3,0.6-0.9,1.1c0,0-1.6,1.9-1.2,3.9c0.1,0.3,0,0.6-0.2,0.9c-0.4,0.7-1.2,1.9-0.8,2.1
	c0,0-0.2,1.2,1.3,0.3c0,0,2.9-3.4,9.6-4.2c0,0,1.8,2,5.4,1.7c0,0,1.1-0.2-0.3-0.9l-1.1-1c0,0,3.6,0.3,1.2-0.9c0,0,8.9-1.3,13.4-1.6
	c1.1-0.1,2.1,0.1,3.1,0.5c0.6,0.2,1.4,0.5,2.2,0.6c0.8,0.1,1.5,0.3,2.3,0.6c0.9,0.3,1.9,0.8,2.7,1.4c0,0,1.9,0.9,3.8,0.9
	c0.3,0,0.6,0.1,0.9,0.4c0.8,0.8,2.8,2.6,2.8,2.6c0,0,0.3,0,0.6,0c0.1,0,0.2-0.1,0.1-0.2c-0.2-0.3-0.6-1-0.4-1.9
	C47.5,33.2,47.5,33.1,47.5,33.1z M4.4,30c0,0,0.5-1,1.1-0.6C5.5,29.4,5.6,30.2,4.4,30z"/>
</svg>
