<?xml version="1.0" encoding="utf-8"?>
<!-- Generator: Adobe Illustrator 19.1.0, SVG Export Plug-In . SVG Version: 6.00 Build 0)  -->
<svg version="1.1" id="Layer_1" xmlns="http://www.w3.org/2000/svg" xmlns:xlink="http://www.w3.org/1999/xlink" x="0px" y="0px"
	 viewBox="0 0 48 48" style="enable-background:new 0 0 48 48;" xml:space="preserve">
<style type="text/css">
	.st0{fill:#808080;}
</style>
<path class="st0" d="M46.8,21.3c0-1.5-0.7-6.5-8.1-6.5c-0.2,0-0.4,0-0.6,0c-1.1,0.2-5,0.9-10.9,3.6c-0.3,0.1-0.7,0.2-1,0.1
	c-1.5-0.4-6.1-1.3-7.1,0.6c0,0-0.2,0.4,0.5,0.5c0.3,0.1,0.5,0.2,0.7,0.4c0.5,0.5,1,1.4-0.1,2.3c-0.2,0.2-0.3,0.3-0.5,0.5
	c-0.9,1-3.9,4.1-7.6,3.8c0,0-2.4,0-3.5,0.4c-0.1,0-0.2,0-0.2-0.1c0-0.6-0.1-1.9-0.4-1.8c0,0-0.6,1-1.9-0.1c0,0-0.9-0.7-0.8,0.3
	c0,0-0.3-0.9-2.1-0.7c0,0-1.5-0.1-2.9-1.1c-0.1,0-0.1,0-0.1,0.1c0.1,0.8,0.7,3.6,5,5.1c0.2,0.1,0.5,0.2,0.6,0.4
	c1,1.3,5.9,6.4,16.6,2.6c0,0,11.3-4.3,15-7.2c0,0-0.9,0.9-0.7,1.4c0,0,0.4,2.3,0.1,3.3c0,0-0.4,1.9,0.4,1.4c0,0,3.5-2,3.7-7.4
	c0-0.1,0.1-0.2,0.2-0.1c0.2,0.1,0.5,0.1,0.8,0c0.3-0.1,0.6-0.1,0.8,0c0.3,0.2,0.8,0.6,1.2,1.3c0,0,2,3,2.7,1.3c0,0,0.1-0.4-0.4-0.6
	c-0.1-0.1-0.2-0.2-0.3-0.3c-0.3-0.6-1.2-2.3-1.2-3.2c0,0,2.3,2.3,3.3,1.8c0,0,0.4-0.6-0.8-1.5C46.9,21.8,46.8,21.6,46.8,21.3z
	 M41.3,19c-0.3,0-0.5-0.2-0.5-0.3c0-0.2,0.2-0.3,0.5-0.3c0.3,0,0.5,0.2,0.5,0.3C41.8,18.9,41.6,19,41.3,19z"/>
</svg>
