<?xml version="1.0" encoding="utf-8"?>
<!-- Generator: Adobe Illustrator 19.1.0, SVG Export Plug-In . SVG Version: 6.00 Build 0)  -->
<svg version="1.1" id="Layer_1" xmlns="http://www.w3.org/2000/svg" xmlns:xlink="http://www.w3.org/1999/xlink" x="0px" y="0px"
	 viewBox="0 0 48 48" style="enable-background:new 0 0 48 48;" xml:space="preserve">
<style type="text/css">
	.st0{fill:#808080;}
</style>
<path class="st0" d="M47.9,19.1c0,0-2.2-1-5.9,1.2c0,0-1.6,0.4-2.5,0.9c0,0-0.5,0.4-1.7,0.2l-1.2-0.1c-0.1,0-0.2-0.1-0.1-0.2
	c0.1-0.2,0.1-0.4-0.2-0.6c0,0-0.3-0.5-1.2,0.1L34.5,21c-0.1,0.1-0.3,0.1-0.4,0.1c-1.1-0.1-6-0.6-6.4-0.4c0.1-0.1,0.7-0.4,0.4-0.5
	c0,0,0-0.2,0.1-0.2c0,0-0.1-0.2-0.5-0.2c0,0-0.2-0.2,0.2-0.4c0.1,0,0.1-0.1,0-0.1c0,0-0.1-0.1-0.2-0.1c0,0-0.1-0.2,0-0.4
	c0,0,0-0.3-0.5-0.3c-0.1,0-0.1-0.1-0.1-0.1c0.1-0.2,0.3-0.6-0.2-0.6l0,0c0-0.1,0-0.1,0-0.2c0-0.1,0-0.3-0.2-0.6c0,0-0.1,0-0.2,0
	c0,0-0.1,0-0.1,0c-0.1-0.2-0.3-0.6-0.5-0.8c-0.1-0.1-0.1-0.1,0-0.2c0-0.1,0-0.1-0.2,0c0,0-0.3-0.1-1.2,1.2c0,0-2.4,3.2-3.2,3.3
	c0,0-0.4,0.2-2.2,0.2c0,0-14.7,0.3-18.6,2.1c0,0-0.8,1.1,0.2,1.2c0,0-0.1,0.3,0.4,0.2c0,0,0.7,0.9,1.1,1.1c0,0,0.2,0.2-0.4,0.2
	c0,0-0.8-0.1-1.2,0.3c0,0-0.4-0.2-0.3,0.3c0,0,0,0.5,0.6,0.7L3,27.9c0,0,0.1,0.4,2.7,0.5c0.2,0,0.4,0,0.7,0.1
	c1.2,0.2,5.4,0.8,6.2,0.9c0,0,4.9,0.8,6.4,0.6l5-0.8c0,0,0,0.2,0.2,0.1c0,0,1.8,2.7,4.3,2.9c0.1,0,0.2-0.1,0.1-0.2
	c-0.2-0.2-0.4-0.6-0.4-0.8c0,0-0.3-0.2-0.1-0.3c0,0,0.4-0.2,0.4-0.3c0,0-0.1-0.2,0-0.4L28.1,30c0,0,0.5,0,0.4-0.1l0.8,0.1
	c0,0,0.3-0.2-1.1-1.1c0,0,0-1.1-1-1c0,0,4-1.3,4.3-1.2c0,0,3.9,1.2,5.4,0.6c0,0-0.5-0.1-0.3-0.3c0,0,0-0.2-0.3-0.2
	c0,0-0.3-0.1,0-0.3c0,0,0.1-0.2,0-0.2c0,0-0.1-0.4,0.1-0.5c0,0,0.1-0.3-0.2-0.2c0,0,0.4-0.4,0.2-0.8l0,0c0.5-0.1,3-0.7,5.6,1.6
	c0,0,2.4,1.6,4.2,1.5c0,0-0.2-2.5-1.6-4.1c0,0-0.4-0.9,0.5-1.2c0,0,1.4-0.6,2-2C47.1,20.5,48.3,19.4,47.9,19.1z M3.2,23.8
	c-0.1,0-0.3-0.1-0.3-0.2s0.1-0.2,0.3-0.2c0.1,0,0.3,0.1,0.3,0.2S3.4,23.8,3.2,23.8z"/>
</svg>
