<?xml version="1.0" encoding="utf-8"?>
<!-- Generator: Adobe Illustrator 19.1.0, SVG Export Plug-In . SVG Version: 6.00 Build 0)  -->
<svg version="1.1" id="Layer_1" xmlns="http://www.w3.org/2000/svg" xmlns:xlink="http://www.w3.org/1999/xlink" x="0px" y="0px"
	 viewBox="0 0 48 48" style="enable-background:new 0 0 48 48;" xml:space="preserve">
<style type="text/css">
	.st0{fill:#808080;}
</style>
<path class="st0" d="M46.9,18.7c-0.1-0.3-0.6-0.9-1.8-0.4c0,0-3.9,2.2-4.6,3.1c0,0-1.1,1.4-4.3,0.3c0,0,2.3-0.1,2.5-1.4
	c0,0,0.8-2.4-2.4-4.4c0,0-2.8-3.4-5.6-0.5c0,0-0.2,0.1-0.2-0.1c0,0,0-0.1-0.1,0c-0.2,0.3-0.8,0.8-1.2,0.7c0,0-0.1-0.1,0-0.1
	c0.1-0.2,0.3-0.6-0.2-0.2c0,0-0.1,0-0.1,0c-0.2,0-0.5-0.2-0.2-1c0,0,0-0.1-0.1-0.1c-0.2,0-0.7-0.1-0.7-0.8c0,0,0-0.1-0.1,0
	c-0.3,0.1-1.1,0.5-1.1-0.9c0-0.1,0-0.1-0.1-0.1c-0.3,0.1-1.4,0.2-1.3-1c0,0,0,0-0.1,0c-0.3,0.4-1.7,1.8-1.6-0.8c0,0,0,0,0,0
	c-0.3,0.4-1.4,2.3-1.7-0.7c0,0,0,0,0,0c-0.2,0.4-1.3,2.3-1.9-0.5c0,0,0,0-0.1,0c-0.2,0.2-0.7,0.9-0.9,1.6c0,0.1-0.2,0.2-0.3,0.2
	c-0.4-0.1-1-0.4-1.1-1.6c0,0-0.7,0.9-0.9,1.9c0,0.1-0.1,0.2-0.2,0.2c-0.4,0-1.2-0.1-1.3-1.6c0-0.1-0.1-0.1-0.1,0
	c-0.2,0.5-0.5,1.5-0.5,2.1c0,0.1-0.1,0.2-0.2,0.2c-0.4-0.1-1-0.4-1.2-1.3c0,0-0.3,1.3-0.2,2.2c0,0.2-0.2,0.4-0.4,0.3
	c-0.2-0.1-0.4-0.2-0.5-0.5c0,0-0.4,1,0.3,2.1c0.1,0.2,0,0.4-0.2,0.5c-0.6,0.2-1.9,0.7-2.6,1.5c-0.1,0.1-0.2,0.2-0.3,0.2
	c-0.4,0.1-1.4,0.3-1.7,1.1c0,0.1-0.1,0.2-0.2,0.2c-0.5,0-2.2,0.1-3.6,1.5c-0.1,0.1-0.2,0.2-0.3,0.3C3,21,1.9,21.6,1.6,22.3
	c0,0.1-0.1,0.2-0.2,0.2c-0.3,0.1-0.9,0.4-0.6,1.1c0,0.1,0.1,0.1,0.2,0.2l2.5,1.4c0.2,0.1,0.2,0.3,0,0.4c-0.1,0.1-0.3,0.1-0.5,0.1
	c0,0-2.6-0.5-2.9,0.2c0,0-0.8,1.1,1.4,1.4c0.2,0,0.3,0.1,0.5,0.1c1,0.4,5,2,7.4,2c0.4,0,0.8,0.1,1.1,0.3c0.8,0.4,2.4,0.9,5,1
	c0.5,0,0.9,0.4,1,0.8c0.2,1.2,0.7,3.4,1,4c0,0.1,0.1,0.1,0.2,0c0.1-0.1,0.1-0.2,0.2,0c0,0,0.7,3.2,3.2,2.5c0,0,1.7-1,1.5-2.8
	c0-0.2,0-0.5,0-0.7c0.1-0.9,0.2-2.9-0.7-3.3l-1.2-0.6c0,0,5.4,0,6.9-1.4c0.1-0.1,0.2,0,0.2,0.1c0.1,0.6,0.4,2.1,0.7,2.6
	c0,0,0.1,0,0.1,0c0.1-0.3,0.2-1.1,0.4-0.7c0,0,1.2,2.8,2.1,3.2c0,0,0.1,0,0.1-0.1C31,34,30.3,32.4,30.6,32c0,0,0.9,1.1,1.4,1.3
	c0.1,0,0.1,0,0.1-0.1c0-0.1,0-0.2,0.2-0.1c0,0,2.6,1.7,3.8,0c0.2-0.3,0.3-0.5,0.4-0.9c0.2-0.8,0.4-2.8-0.6-4.3
	c-0.2-0.2-0.4-0.4-0.7-0.5l-1.8-0.4c-0.1,0-0.1-0.1,0-0.1c0.8-0.3,3.7-1.1,5.4-0.8c0.2,0,0.4,0.1,0.5,0.2l4.7,2.7
	c0,0,1.6,1.3,2.8,0.3c0.3-0.3,0.6-0.7,0.6-1.1c0.3-1.6,1.1-7.3-0.4-9.3C47,18.8,47,18.8,46.9,18.7z M5.7,21.9
	c-0.6,0-1.2-0.5-1.2-1.1c0-0.6,0.5-1.1,1.2-1.1c0.6,0,1.2,0.5,1.2,1.1C6.9,21.4,6.4,21.9,5.7,21.9z"/>
</svg>
