<?xml version="1.0" encoding="utf-8"?>
<!-- Generator: Adobe Illustrator 19.1.0, SVG Export Plug-In . SVG Version: 6.00 Build 0)  -->
<svg version="1.1" id="Layer_1" xmlns="http://www.w3.org/2000/svg" xmlns:xlink="http://www.w3.org/1999/xlink" x="0px" y="0px"
	 viewBox="0 0 48 48" style="enable-background:new 0 0 48 48;" xml:space="preserve">
<style type="text/css">
	.st0{fill:#808080;}
</style>
<path class="st0" d="M47.4,17.1c0,0-1.7-0.7-2.4-1.4c-0.2-0.2-0.3-0.4-0.3-0.6c-0.1-0.4-0.4-1.4-2.6-2.5c-0.1-0.1-0.2-0.2-0.2-0.3
	c-0.1-0.4-0.2-1.2,0.2-2.2c0-0.1,0-0.2-0.1-0.1c-0.3,0.1-0.9,0.5-2,1.9c-0.1,0.1-0.2,0.2-0.4,0.2c-0.5,0-2.2,0.1-5.1,1.4
	c0,0-2.5-0.1-4.1,1c-0.4,0.3-0.8,0.5-1.3,0.6c-1.6,0.4-5.3,1.2-8.8,0.7c-0.1,0-0.2,0-0.3-0.1c-0.8-0.2-4.7-0.8-7.7,1.9
	c0,0-2.3,2-3.8,3.4c0,0-2,2.1-7.6,4.1C0.3,25.2,0,25.6,0,26c0,0.4,0.2,0.9,1.3,0.8c0,0,5,1.1,10-4.1c0.2-0.3,0.7-0.3,0.9,0
	c1.1,1.2,3.7,4.5,0.7,7.6c0,0-0.4,0.3,0,1.2c0,0,0.6,2.8,0.6,4.1c0,0-0.1,1.2,1.4,0.8c0,0,0.3,0.3,1,0.1c0,0,0.6,0.3,0.8-0.2
	c0,0,0.2,0.1,0.2,0.2c0,0,0.2-0.4-0.1-0.6c0,0,0.1-0.4-0.6-0.7c-0.1,0-0.2-0.1-0.3-0.2c-0.5-0.6-1.8-2.9-0.3-4.9
	c0.1-0.1,0.2,0,0.2,0.1c0,0.5,0,1.7,0.4,2.5c0,0,1.4,2.1,2,3.1c0.1,0.2,0.2,0.5,0.2,0.8c0,0.4,0.2,1,1.1,1c0,0,2.1,0.5,2.2-0.2
	c0,0,0.1,0,0.2,0.1c0,0-0.1-1-0.8-1.3c0,0-0.9-1-1.4-1.6c0,0-2.8-2.5-0.9-6c0.1-0.1,0.1-0.3,0.2-0.4c0.2-0.7,0.9-2.9,1.6-2.9
	c0,0,4.6-0.2,4.9,0.6c0,0,3.4,4.7,3,7.7c0,0-0.5,0.3-0.2,1.3c0,0-0.3,0.9,0.3,1.2c0,0,0,0.1-0.1,0.1c0,0,0.1,0.1,0.3,0
	c0,0,0,0.4,0.3,0.5c0,0-0.1,0.3,0.2,0c0,0,0.5,0.3,0.6-0.6c0,0,0-0.9,0.2-1.8c0,0,0.6-2.8-0.8-6c0,0-0.5-1.6-0.5-2.4
	c0-0.2,0.2-0.5,0.4-0.5c0.4-0.1,1.1-0.3,1.5-0.2c0.2,0,0.4,0.2,0.4,0.4c0.1,1.1,0.7,5.7,0.3,6.7c0,0-0.2,0.8,0.1,1.6
	c0,0-0.4,3.8,2.2,2.6c0,0,0.4,0.5,1.1,0.1c0,0,0.2,0,0.2,0.1c0,0,0.1-0.1,0-0.2c0,0,0.3-0.2,0.6,0c0,0,0.1-0.6-0.6-1
	c0,0-1.3-0.1-1.5-1.2c0,0-0.7-2.8,0.2-5.8c0.1-0.5,0.2-1,0.2-1.6c0-1.1,0.1-2.9,1-3.9c0,0,4.2-4.3,8.4-4.2c0.1,0,0.2,0,0.3,0
	c0.6,0.1,3.6,0.3,4-1.2C47.5,18.3,48.7,17.2,47.4,17.1z M43.9,15.1c0,0,0.5-0.4,0.6,0.6C44.4,15.6,44,15.6,43.9,15.1z"/>
</svg>
