<?xml version="1.0" encoding="utf-8"?>
<!-- Generator: Adobe Illustrator 19.1.0, SVG Export Plug-In . SVG Version: 6.00 Build 0)  -->
<svg version="1.1" id="Layer_1" xmlns="http://www.w3.org/2000/svg" xmlns:xlink="http://www.w3.org/1999/xlink" x="0px" y="0px"
	 viewBox="0 0 48 48" style="enable-background:new 0 0 48 48;" xml:space="preserve">
<style type="text/css">
	.st0{fill:#808080;}
</style>
<path class="st0" d="M44.9,28.7c0,0,0.3-2.3-4.1-2.8c0,0-5.3-0.2-7.7,1c-0.1,0-0.2,0-0.2-0.1c0.1-0.8,0.6-3.5,1.4-6.4
	c0,0,1.8-4.5-0.2-9.2c0-0.1-0.1-0.2-0.1-0.3l-2-8.4c0,0-0.5-0.3-0.6,1.4l-0.1,2.4c0,0.1-0.1,0.1-0.2,0c-0.5-0.8-2-3.2-2.5-3.6
	c-0.1,0-0.1-0.1-0.2,0c-0.1,0-0.3,0.2,0,1l1.1,2.9L27,4.2c-0.2-0.2-0.5,0-0.5,0.2c0,0.1,0,0.2,0.1,0.4l1.7,3C28.4,7.9,28.2,8,28.1,8
	l-2.4-1.5c0,0-0.3-0.1-0.3,0.3c0,0-0.4,0.3,0.8,1.5c0,0.1,0,0.1-0.1,0.1c-0.3-0.1-0.8-0.3-1,0.1c0,0-0.5,0.7,0.1,1.3
	c0.1,0.1,0.1,0.2,0,0.3c-0.3,0.2-0.6,0.7-0.1,1.3c0.1,0.1,0.1,0.3,0,0.4c-0.3,0.3-0.7,0.8-0.2,1.3c0.1,0.1,0.1,0.3,0,0.4
	c-0.4,0.2-0.9,0.7,0.2,1.4c0.2,0.1,0.2,0.3,0,0.4c-0.5,0.3-1.3,0.9-0.5,1.5c0.2,0.1,0.2,0.4,0,0.5c-0.4,0.4-0.9,1-0.4,1.9
	c0,0.1,0.1,0.2,0,0.3c-0.1,0.4-0.4,1.3,0.2,1.3c0,0-0.3,0.2-0.4,0.7c0,0.1-0.2,0.1-0.2,0c-0.5-1.8-2.6-8.2-4.8-10.9
	c-0.4-0.4-0.7-0.9-1-1.5L13.2,0c0,0-0.1-0.1-0.1,0c-0.1,0.1-0.4,0.4-0.2,0.8c0,0,1.7,5.6,2.3,6.5c-0.5-0.6-4.9-5.9-6.1-6.7
	C9,0.6,8.9,0.6,8.8,0.7c-0.1,0.2-0.1,0.4,0,0.7l3.1,4.5C12,6,11.9,6.1,11.8,6C10.7,5.1,8,3,7.2,2.6C7.1,2.5,7,2.6,7,2.7
	c0,0.2,0,0.4,0.2,0.6l4.5,4.8l-5-2.3c0,0-0.3-0.1-0.3,0.2c0,0-0.1,1.2,2,2.4c-0.1,0-1.6-0.6-1.7-0.1c0,0-0.1,1.1,0.3,1.4l0.7,0.6
	c0,0-0.7-0.1-0.6,0.4c0,0-0.1,1.3,1.4,1.6c-0.1,0-0.9,0-0.9,0.5c0,0,0.2,1.5,1.3,1.5c0,0-1.1,0.1-1,0.7c0,0-0.2,1.2,2,1.6
	c0,0-1.5,0.1-1.3,0.9c0,0,0,1.6,1.4,1.5c0,0-1.5,0.7,0.2,2.6c0,0,0.3,1.7,1.1,1.9c0.2,0,0.3,0.2,0.3,0.3c0.2,0.6,0.6,1.8,1.3,1.8
	c0,0,0.7,1.7,1.2,2c0.1,0.1,0.3,0.2,0.3,0.3c0.6,1,2.3,4.3,4.2,3.6c-0.1,0.1-1.4,0.7-0.2,1.1c0.1,0,0.3,0,0.4,0l3-1.1
	c0,0-3.2,2.9-4.4,3.4c0,0-1.1,0.7-0.7,0.6c-0.1,0.1-1.1,0.6-0.4,0.6l-0.7,0.5c-0.1,0,0,0.1,0,0.1c0.2,0,0.4,0,0.6-0.1L2.3,48
	c0,0,0.2,0.1,0.5-0.1c0,0,0.6,0.2,1.8-0.9c0.3-0.2,3.8-3,4.1-3c0.2,0,0.6-0.1,1.1-0.5c0.3-0.2,0.7-0.6,1.1-0.7
	c0.2,0,0.5-0.1,0.8-0.4c0.2-0.1,1.6-1.3,1.8-1.3c0.2,0,0.5-0.1,0.9-0.4c0.1-0.1,0.2-0.1,0.3-0.1c0.1,0,0.4-0.1,0.9-0.5
	c0.3,0.1,1-0.7,1.3-0.7c0.1,0,0.4,0,0.6-0.3c1.5-1.1,2-1.6,3.3-1.9c1.6-0.3,4.5-0.8,6.1-0.8c0.3,0,0.5,0.2,0.7,0.5c0,0,0,0,0,0.1
	c0.2,0.5,0.3,1,0.3,1.6c0,0.4,0.1,1,0.2,1.2c0.1,0.1,0.1,0.2,0.1,0.3c0,0.2,0.2,0.5,0.7,0.6l1.4,1c0,0-0.6,0.4,0,1.2
	c0,0-0.1-0.8,0.2-0.9l0.1,0.5c0,0-0.9,1.4-0.6,1.6c0,0-0.1,0.9,0.6,1.2c0,0-0.4-0.3-0.3-0.7c0,0,0.2,0.8,0.6,0.9
	c0,0-0.4-0.5-0.3-0.9c0,0,0.3,0.1,0.3-0.4c0,0-0.1-0.8,0.6-1.3c0,0,1.6-1.2,2.2-0.9c0,0,0,0.6,0.4,0.5c0,0,0.3,0.6,0,1
	c0,0,0.9-0.2,0.7-1.2l0.1-0.5c0,0,0.3,0.1,0.4,0.6c0,0,0.1-0.9-0.7-1.1c0,0-0.9-0.9-1.8-1.1l-2.7-1.9c0,0,2-1.3,2.9-2.4
	c0.4-0.5,0.9-1.1,1.4-1.5c1.4-1.1,3.8-2.8,5.1-2.3c0,0,2.2,1,2.4,0.7c0,0,1.5,0.7,2.6,0l0,0.7C44.7,33.3,46.8,31.6,44.9,28.7z
	 M31.9,40.4c0,0-0.1,0.2-0.4,0.2c0,0-0.6,0.2-0.6,0.3c0,0-1.4-1-1.6-1.3l0.5-0.7C29.8,38.9,32,40.2,31.9,40.4z M40.9,29.4
	c-0.3,0-0.5-0.2-0.5-0.4c0-0.2,0.2-0.4,0.5-0.4c0.3,0,0.5,0.2,0.5,0.4C41.4,29.2,41.2,29.4,40.9,29.4z"/>
</svg>
