<?xml version="1.0" encoding="utf-8"?>
<!-- Generator: Adobe Illustrator 19.1.0, SVG Export Plug-In . SVG Version: 6.00 Build 0)  -->
<svg version="1.1" id="Layer_1" xmlns="http://www.w3.org/2000/svg" xmlns:xlink="http://www.w3.org/1999/xlink" x="0px" y="0px"
	 viewBox="0 0 48 48" style="enable-background:new 0 0 48 48;" xml:space="preserve">
<style type="text/css">
	.st0{fill:#808080;}
</style>
<path class="st0" d="M47.4,23.7c-0.2-0.4-0.4-0.8-0.4-1.2C46.9,19.9,45,10.3,26.9,9.1c-0.5,0-1-0.2-1.5-0.5
	c-1.4-1.1-4.9-3.3-7.7-1.8c0,0-0.7,0.5,0.5,1c0.2,0.1,0.5,0.2,0.7,0.4c0.6,0.5,1.4,1.6,0.1,2.7c0,0-14.3,10.8-13.1,22.4
	c0,0.2-0.1,0.4-0.3,0.5C4.5,34.4,0,36.6,0,39.7c0,0.1,0.1,0.1,0.2,0.1c0.4-0.5,1.7-1.7,4.4-1c0.1,0,1,0.3,1.2-0.4
	c0,0.1-0.1,0.8,1.2,0.9c0.8,0,1.6,0.3,2.2,0.9c0.3,0.3,0.6,0.7,0.7,1.3c0,0.2,0.2,0.2,0.3,0c0.5-0.8,1.2-3.1-1.7-7.1
	c-0.2-0.2-0.2-0.5-0.1-0.7c0.8-1.8,4.7-8.9,9.2-11.1c0.1,0,0.2-0.1,0.3-0.1c1.1-0.3,7.5-1.8,13.6-1.7c0.2,0,0.3,0.3,0.2,0.4
	c-0.4,0.3-1.2,0.8-2.7,0.9c-0.3,0-0.4,0.3-0.3,0.5c0.1,0.2,0.5,0.5,1.3,0.7c0,0,4,2,7.5-1.7c0.1-0.1,0.3-0.2,0.5-0.2
	c0.5,0.1,1.7,0.4,3.8,1.6c0,0,3.3,1.4,4,2.1c0,0,2.1,1.8,2,0C47.8,25.3,48.4,25.2,47.4,23.7z M40.8,18.5c0,0,0.6-0.1,0.7,0.5
	C41.6,19,40.7,19.1,40.8,18.5z"/>
</svg>
