<?xml version="1.0" encoding="utf-8"?>
<!-- Generator: Adobe Illustrator 19.1.0, SVG Export Plug-In . SVG Version: 6.00 Build 0)  -->
<svg version="1.1" id="Layer_1" xmlns="http://www.w3.org/2000/svg" xmlns:xlink="http://www.w3.org/1999/xlink" x="0px" y="0px"
	 viewBox="0 0 48 48" style="enable-background:new 0 0 48 48;" xml:space="preserve">
<style type="text/css">
	.st0{fill:#808080;}
</style>
<g>
	<path class="st0" d="M47.4,34.1c0,0-3.5-3.5-3.6-13.1c0-0.2,0.1-0.5,0.2-0.7c0.4-0.7,1-2.8-1.3-5.4c-0.2-0.2-0.4-0.5-0.5-0.7
		c-0.5-1-2-3.6-5.3-5c0,0-8.7-12.9-16.6-2.1c0,0-0.8,1.2-3.5,1.9c0,0-3.3,0.4-5.5,4.6c0,0-2,2.8-3,1.8l0.6-0.3c0,0-0.4,0-0.7,0.1
		c-0.1-0.1-0.1-0.2-0.1-0.3c0,0-0.2-0.2-0.3-0.7c0.2-0.1,0.4,0,0.8,0.1c0,0-0.3-1-0.9-1c0-0.1,0-0.2,0-0.3C8,12.8,8.4,12.6,8.6,13
		c0,0-0.3-1-0.8-1.1c0-0.1,0-0.2,0-0.3c0.2-0.2,0.4-0.3,0.5-0.2C8.4,11.3,8.2,11.1,8,11c0,0,0-0.1,0-0.1c0.2-0.1,0.3-0.1,0.5,0.2
		c0,0-0.2-0.7-0.4-0.5c0,0,0,0,0-0.1c0.1-0.2,0.3-0.5,0.5-0.2c0,0-0.1-0.4-0.4-0.4c0-0.1,0.1-0.2,0.1-0.3c0.1-0.1,0.2-0.2,0.3-0.2
		c-0.1,0-0.1-0.1-0.2-0.1c0-0.1,0.1-0.3,0.1-0.5c0.1-0.1,0.2-0.2,0.2-0.1c0,0,0-0.2-0.2-0.2c0.2-1,0.4-2.7-0.3-4.1
		c0,0,1.7-1.6,0.6-1.6c0,0,0.4-1.8-0.9-0.4c0,0-2-2.1-4-0.5c0,0,0.2-0.6-0.8,0.2c0,0-2-0.2-2.2,0.3c0,0-0.3,0.1-0.2,0.3
		c0,0-1.5,0.6-0.6,1.2c0,0-0.2,1.4,1.2,1.4c0,0-0.1,0.6,1,2.5c0.2,0.3,0.2,0.7,0.1,1c-0.3,0.8-0.8,2.3-0.5,4
		c0.1,0.5,0.2,1.1,0.2,1.6L2.4,18c0,0-0.2,6.6,8.7,5.9c0.2,0,0.4,0.1,0.6,0.2c0.2,0.2,0.3,0.6,0.3,0.9c0,0.2,0,0.4-0.1,0.6
		c-0.8,1.6-2.6,5.1-3.6,6.1c-0.3,0.3-0.4,0.6-0.5,1c0,0.6,0.2,1.4,1.7,2.1c0.3,0.1,0.6,0.3,0.8,0.5c0.8,0.7,2.7,2.3,3.6,3.4
		c0.3,0.4,0.4,0.8,0.4,1.3c-0.1,1.2-0.7,3.8-2.7,4.5c0,0-0.1,0-0.1,0c-0.2,0-0.7,0-0.9,1c0,0,0,0.6,1.3,0.6c0,0,2.8,0.1,2.9-0.4
		c0,0,0-0.7,0.3-1.1c0.1-0.1,0.1-0.2,0.1-0.3l0.2-2c0-0.2,0.1-0.3,0.2-0.5c0.6-0.5,2.1-2.1,0.9-3.3c-0.2-0.2-0.3-0.5-0.2-0.8
		c0.4-1.8,1.7-7.5,2.1-9.6c0.1-0.4,0.4-0.8,0.8-0.8c2.6-0.3,10.9-1.4,14.7-4.5c0,0,0,1.1-0.7,1.8c0,0-1.1,1.1-0.2,2.3
		c0,0-0.2,0.7,0.4,1.9c0.1,0.3,0.2,0.5,0.2,0.8c-0.1,0.8-0.2,2.3,0,3.4c0.1,0.6,0,1.2-0.1,1.8c-0.5,1.6-1.7,4.6-3.9,6.8
		c0,0-0.6,0.5-0.8,1.1c0,0-0.2,0.5-1.6,0.7c0,0-0.7,0.6,0.1,0.9c0,0,2.5,0.9,2.9-0.3c0,0-0.3-0.5,0.4-0.9c0.1-0.1,0.2-0.2,0.3-0.3
		C31,42,32,40.3,33,39.3c0,0,2.8-3.1,3.6-3.5c0,0,0.4-0.2,0-1.1c0,0-0.3-4.9,2-8.3c0,0,0.2,0.3,0.2,0.9c0.1,0.7,0.4,1.4,0.8,1.9
		c0.4,0.5,1,1.1,1.8,1.6c0,0,0.6,0.5,1,1.7c0,0,2.5,2.5,2.5,5.2c0,0,0.6,3.8-0.3,5.9c0,0-0.6,1.5-1.4,1.6c0,0-1.1-0.2-1.4,0.6
		c0,0-0.4,0.7,1.1,0.7c0,0,2.2,0.4,2.6-0.3c0,0,0.2-0.6,0-0.9c0,0,0.7-0.6,0.6-1.3c0,0,0.7-7.2,1.7-8.5
		C47.9,35.4,48.3,34.6,47.4,34.1z M5.7,4.3c0,0,0.2-0.5,0.8,0C6.5,4.2,6,4.9,5.7,4.3z M14.1,35.5c-0.4,0.4-0.3,1.1-0.3,1.1l-2.6-2.4
		c-1.8-1.9,3-5.2,3-5.2C14.5,29.2,14.1,35.5,14.1,35.5z"/>
	<path class="st0" d="M8.7,9.6c0-0.1-0.1-0.1-0.1-0.1C8.7,9.6,8.7,9.6,8.7,9.6z"/>
	<path class="st0" d="M8.4,11.5C8.5,11.5,8.5,11.6,8.4,11.5C8.5,11.5,8.5,11.5,8.4,11.5z"/>
</g>
</svg>
