<?xml version="1.0" encoding="utf-8"?>
<!-- Generator: Adobe Illustrator 19.1.0, SVG Export Plug-In . SVG Version: 6.00 Build 0)  -->
<svg version="1.1" id="Layer_1" xmlns="http://www.w3.org/2000/svg" xmlns:xlink="http://www.w3.org/1999/xlink" x="0px" y="0px"
	 viewBox="0 0 48 48" style="enable-background:new 0 0 48 48;" xml:space="preserve">
<style type="text/css">
	.st0{fill:#808080;}
</style>
<path class="st0" d="M47.9,7.8c0,0-0.3-0.7-1.1-0.6c0,0-2-0.1-3.1,1.2c0,0-0.9,1.3-5.4,2.4c0,0-5.9,1.3-6.9,4.3
	c-0.1,0.2-0.1,0.3-0.2,0.5c-0.4,0.8-1.2,3.6,1.1,6.9c0,0,2.6,2.9,1.6,4.1c0,0-1,1.7-3-0.8c0,0-2.4-5.4-5.8-4.5c0,0-4.6,1.1-3.8,5.1
	c0,0,0.6,2.6,2.6,4.3c0.6,0.5,1,1.1,1.3,1.9c0.3,0.8,0.4,1.9-0.2,2.9c0,0-0.9,2.1-3.2,2.1c-1.6,0-3-1-3.5-2.5
	c-0.3-0.9-0.5-2.2-0.1-3.8c0-0.1,1.4-4.4,2.5-5.9c0,0,2.2-4.7,0.9-8.3c0,0-2-5.8-6.4-6.8c0,0-0.1,0-0.1,0c-0.5-0.1-4.5-1-6.7,2.4
	c0,0-3.8-0.2-5.4,3.2c0,0-2.1,4-2.4,5.6c0,0-1.6,4,0.8,6.3c0.1,0.1,0.2,0.2,0.4,0.4c0.6,0.7,3.2,3,7.6,0.1c0,0,3.8-3.1,2.2-7.6
	c0,0-2.2-5.3-0.7-6.4c0,0,2.6,0.9,3.4,0.1c0.1-0.1,0.1-0.3-0.1-0.4l-2.3-0.6c0,0,2-1.1,3.6,0c1.6,1.2,3.9,3.4,3.6,6.6
	c0,0,0.6,1.8-2.5,6.6c0,0-3.6,7.5,0,11.5c0,0,5,5.8,10.7-0.5c0,0,3.6-4.3-0.5-8.9c-0.1-0.1-0.1-0.1-0.2-0.2
	c-0.5-0.4-2.8-2.5-2.2-3.8c0,0,0.5-1.4,2-0.5c0.5,0.3,0.9,0.7,1.2,1.3c0.6,1.1,2,3.7,3.9,3.9c0,0,4.4,0.9,5.5-3.2
	c0,0,0.7-1.9-1.6-4.6c0,0-3-3.5-1.6-5.6c0,0,0.1-1.9,6.7-3.7c0,0,2.6-1.1,3.4-1.6c0,0,2.6-0.3,3.4-1.9C47.2,9.2,48.3,8.4,47.9,7.8z
	 M8.3,25.4c-2,3.3-4.8,0.8-4.8,0.8c-1.9-2.3,1-7.5,1-7.5c1-3.6,2.8-3.8,2.8-3.8l0.1,0c-0.9,0.8,0.7,5.3,0.7,5.3
	C9.7,23.2,8.3,25.4,8.3,25.4z"/>
</svg>
