<?xml version="1.0" encoding="utf-8"?>
<!-- Generator: Adobe Illustrator 19.1.0, SVG Export Plug-In . SVG Version: 6.00 Build 0)  -->
<svg version="1.1" id="Layer_1" xmlns="http://www.w3.org/2000/svg" xmlns:xlink="http://www.w3.org/1999/xlink" x="0px" y="0px"
	 viewBox="0 0 48 48" style="enable-background:new 0 0 48 48;" xml:space="preserve">
<style type="text/css">
	.st0{fill:#808080;}
</style>
<path class="st0" d="M41.9,9.3c0,0-10.6-3.4-16.2-1.1c0,0-2.7,0.4-4.8,3.6c0,0-1.7,3.3,2.1,4.3c0,0,4.2,1.4,9.3-0.7c0,0,3-1.5,4-2.1
	c0,0,4.1-2.1,7.8-0.6c0,0,2.4,0.8-1.7,2.1c0,0-6.8,1.8-7.1,2.2c0,0-5.3,3-4,8.5c0,0,0.2,3,5.4,6.6c0,0,4.7,2.6,3.4,3.5
	c0,0-0.3,1.9-9.6,1.7c0,0-6.4-0.2-9.5-4.2c0,0-5-4.8-9.9-5.2c0,0-6.4-0.6-6.8-0.5c0,0-3.2-0.5-3.1,0.8c0,0-0.6,0-0.8-0.1
	c0,0,0.2,0.1,0.3,0.2L0,28.5c0,0,1-0.1,1.2,0c0,0,1.3,0.9,3,0.9c0,0,7.3,0.2,9.6,1.9c0,0,5.1,3.5,6.3,5.7c0,0,3.8,4.7,15.2,3.5
	c0,0,9.2-0.2,8.7-5.6c0,0-0.2-2.6-5.5-5.7c0,0-5.4-3.4-3.8-7.1c0,0,1-3.1,5.7-3.6c0,0,6.7-1.9,7.3-4.2C47.7,14.3,50,10.1,41.9,9.3z
	 M37.3,9.9c-1.7,0.2-5.6,2.9-5.6,2.9c-4.5,1.8-8.5,0.6-8.5,0.6c-0.3-1.9,3.2-3.6,3.2-3.6C31.1,7.6,39,9.5,39,9.5L37.3,9.9z"/>
</svg>
