<?xml version="1.0" encoding="utf-8"?>
<!-- Generator: Adobe Illustrator 19.1.0, SVG Export Plug-In . SVG Version: 6.00 Build 0)  -->
<svg version="1.1" id="Layer_1" xmlns="http://www.w3.org/2000/svg" xmlns:xlink="http://www.w3.org/1999/xlink" x="0px" y="0px"
	 viewBox="0 0 48 48" style="enable-background:new 0 0 48 48;" xml:space="preserve">
<style type="text/css">
	.st0{fill:#808080;}
</style>
<path class="st0" d="M47.5,24.4c-0.1,0-0.9-0.3-1.2-0.6c0,0-0.1-0.2-0.3-0.1l0.5-3.3c0-0.1,0-0.1-0.1-0.2c-0.1-0.1-0.4-0.3-0.8-0.1
	c0,0-0.1,0-0.1,0c-0.1,0-0.5,0-1-0.1c-0.1,0-0.2,0-0.3,0c-0.8,0-4.7-0.2-7.2-2.5c-0.1-0.1-0.3-0.2-0.4-0.3c-0.5-0.2-1.6-0.3-3.3,0.6
	c-0.1,0-0.2,0-0.2-0.1c-0.3-0.8-1.7-4.4-2.1-3.6c0,0-0.2,0.2-0.4,0c0,0-0.1,0-0.1,0c-0.1,0.1-0.3,0.3-0.6,0.2c0,0-0.1-0.1-0.3,0
	c0,0-0.1,0.1-0.1,0.1c-0.1,0-0.2,0-0.2-0.1c0,0-0.1,0-0.1,0c-0.1,0-0.2,0.1-0.3,0.2c0,0-0.1,0.1-0.1,0.1c-0.1,0-0.3,0-0.4-0.1
	c0,0-0.1-0.3-0.3,0.1c0,0,0,0-0.1,0c-0.1,0-0.3,0.1-0.4,0c0,0-0.1-0.2-0.3,0.2c0,0-0.1,0.1-0.1,0.1c-0.1,0-0.4,0.1-0.7,0
	c0,0-0.2-0.1-0.4,0.3c0,0.1-0.1,0.1-0.2,0.1l-0.5,0c-0.1,0-0.1,0-0.2,0.1c-0.1,0.1-0.3,0.3-0.7,0.3c0,0-0.1,0-0.1,0.1
	c-0.1,0.1-0.2,0.2-0.6,0.1c0,0,0,0-0.1,0c0,0.1-0.1,0.4-0.7,0.4c0,0-0.1,0-0.1,0.1c0,0.1-0.2,0.4-0.8,0.3c-0.1,0-0.1,0-0.1,0.1
	c0,0.1-0.1,0.3-0.4,0.2c-0.1,0-0.1,0-0.1,0.1c0,0.1-0.1,0.3-0.5,0.3c0,0-0.1,0-0.1,0.1c0,0.1,0,0.4-0.5,0.3c-0.1,0-0.1,0-0.1,0.1
	c0,0.2-0.2,0.6-0.8,0.2c0,0-1.5-1-2.4-1.5c-0.3-0.1-0.6-0.2-0.9-0.1c-1.1,0.3-4,1.3-4.8,2c-0.1,0.1-0.2,0.3-0.2,0.5
	c0,0.4,0.2,1.2,0.7,1.5c0,0-2.1-0.3-2.8-2.2c0,0-1.4-4.3-2.7-4.9c-0.2-0.1-0.5-0.1-0.7,0.1c-0.8,0.7-4.5,4.2-5.1,6.4
	c-0.1,0.3-0.2,0.6-0.3,0.9c-0.3,0.9-0.8,2.5-0.2,2.8c0,0,1.9,1.2,3.8,0.6c0.3-0.1,0.6-0.2,1-0.2c1-0.1,2.9-0.3,3.4,0l3.4,1.6
	c0,0-2.8-0.2-2.5,1.4c0,0,1.3,3.4,4,2.7l2.5-1c0.4-0.1,0.8-0.2,1.2,0c1.6,0.5,6.6,1.9,13.2,1.1c0.1,0,0.2,0.1,0.1,0.2
	c-0.4,0.5-1,1.4,0.1,2.2c0,0,1.6,1.8,2.1,2.4c0.1,0.2,0.4,0.2,0.5,0c0.1-0.1,0.2-0.3,0.4-0.6c0-0.1,0.1-0.1,0.2-0.1
	c0.2,0,0.5-0.1,0.7-0.7c0,0,0.9-2.6,0.3-3.7c0-0.1,0-0.2,0.1-0.2l3.4-0.8c0.1,0,0.1,0,0.2,0c0.2,0.1,0.7,0.3,1.9-0.1
	c0,0,4.1-1,5.6-2.1c0.2-0.2,0.4-0.3,0.7-0.4C47.2,25.5,48.8,24.6,47.5,24.4C47.6,24.4,47.5,24.4,47.5,24.4z M40.5,20.8
	c-0.3,0-0.6-0.2-0.6-0.5c0-0.3,0.3-0.5,0.6-0.5c0.3,0,0.6,0.2,0.6,0.5C41.1,20.6,40.8,20.8,40.5,20.8z"/>
</svg>
