<?xml version="1.0" encoding="utf-8"?>
<!-- Generator: Adobe Illustrator 19.1.0, SVG Export Plug-In . SVG Version: 6.00 Build 0)  -->
<svg version="1.1" id="Layer_1" xmlns="http://www.w3.org/2000/svg" xmlns:xlink="http://www.w3.org/1999/xlink" x="0px" y="0px"
	 viewBox="0 0 48 48" style="enable-background:new 0 0 48 48;" xml:space="preserve">
<style type="text/css">
	.st0{fill:#808080;}
</style>
<path class="st0" d="M34.4,27.2c0,0-0.5-5.1-5.6-5.1c-0.1,0-0.2-0.2-0.1-0.3c0.6-0.6,2-2.2,1.8-3.6c0,0-0.1-1.9-1.9-3.5
	c-0.8-0.7-1.5-1.4-2.1-2.2c-0.7-0.9-1.4-2.1-1.5-2.9C25,9.6,23.8,6,28,4c0.1-0.1,0.2-0.1,0.4-0.1C28.8,4,30.1,4,30.7,3.1
	c0,0,0.4-0.6,1.3-1.3c0,0,1.4-1.9-1.5-1.7c0,0-2.8-0.8-3.6,1.5c0,0.1-0.1,0.2-0.2,0.3c-0.7,0.4-3.2,2-4.2,4.7c0,0-2.5,6.9,4,11
	c0.1,0.1,0.2,0.1,0.2,0.2c0.3,0.4,1,1.6-1.5,1.2c-0.2,0-0.4-0.1-0.6-0.2c-1.1-0.5-5.9-2.3-8.4-0.4c0,0-3.7,2.2-2.4,6
	c0.2,0.6,0.5,1.2,1,1.7c1.1,1.2,3.9,3.2,8.3,1.5c0,0,2.4-0.9,3.5-1.6c0.5-0.3,1.1-0.6,1.7-0.7c0.7-0.1,1.5-0.1,1.8,0.4
	c0,0,2.2,2.5,0,3.8c0,0-0.6,0.8-4.5,1c0,0-4.4,0-5.5,2.8c0,0-1.9,3.4,2.6,5.5c0,0,3.7,1.7,5.6,2.1c0,0,1.8,0.8,0.3,3.4
	c0,0-0.9,1.8-3.2,2.9L25.3,48c0.1,0,2.8-1.1,3.6-2.1c0,0,2.4-1.9,1.7-4.1c0,0-0.4-2-4.3-3.4c0,0-3.7-1.7-3.7-2.9
	c0,0-0.1-1.9,3.1-1.9c0,0,5.3,0,6.5-1.4C32.1,32.2,34.9,30.4,34.4,27.2z M21.5,24.4c-3.7,1-4-0.7-4-0.7c-0.3-2.6,2.3-2,2.3-2
	c0.4,0.4,6,1.1,6,1.1L21.5,24.4z"/>
</svg>
