<?xml version="1.0" encoding="utf-8"?>
<!-- Generator: Adobe Illustrator 19.1.0, SVG Export Plug-In . SVG Version: 6.00 Build 0)  -->
<svg version="1.1" id="Layer_1" xmlns="http://www.w3.org/2000/svg" xmlns:xlink="http://www.w3.org/1999/xlink" x="0px" y="0px"
	 viewBox="0 0 48 48" style="enable-background:new 0 0 48 48;" xml:space="preserve">
<style type="text/css">
	.st0{fill:#808080;}
</style>
<g>
	<path class="st0" d="M47.6,32.5c-0.1-0.3-0.1-0.6,0-0.8c0.3-0.7,0.4-2.4-3.1-6.2c0,0-2.8-3.1-9-6.8c-0.3-0.2-0.6-0.5-0.7-0.9
		c-0.5-1.4-2.1-5.2-4-5.4c-0.3,0-0.5,0.2-0.4,0.5c0.3,1,0.9,3.6-1.3,3.9c0,0-10.9,0.3-13.4,1.3c0,0-2.7,0.9-4.4,2.6
		c-0.3,0.2-0.6,0.4-1,0.3C9.9,21,9.1,21,7.8,21.5c0,0-2.2,0.6-3,1.8c0,0-0.5,0.7,0.4,0.4c0,0,0,0,0,0c0.8-0.3,2-0.4,3,1.3
		c0,0,0.2,0.3,0.7,0c0,0-0.3,0.3,0,0.6c0,0,0.5,0.5-0.2,1c0,0-0.1,0.5,0.7-0.2c0,0,1.6-1.5,2.2-2.6c0.1-0.2,0.4-0.4,0.6-0.5
		c1.8-0.4,8.8-1.7,12.9,0.1c0,0,6.3,2.1,8.2,3.2c0.2,0.1,0.4,0.3,0.6,0.5l0.5,0.7c0,0-1.8-0.2-1.4,0.4c0,0,0.9,1.6,3.7,1.6
		c0,0,1.4,0,2.4-0.3c0.4-0.1,0.9,0,1.3,0.2c0.2,0.2,0.5,0.3,0.8,0.5c0.4,0.2,0.7,0.5,1,0.8c0.3,0.2,0.6,0.5,1.2,0.8l2.4,1.4
		c0,0,1.9,2,2.1,0.6C47.8,33.8,48.3,33.7,47.6,32.5z M44.7,29.4c-0.2,0-0.4-0.1-0.4-0.3c0-0.2,0.2-0.3,0.4-0.3
		c0.2,0,0.4,0.1,0.4,0.3C45.1,29.3,44.9,29.4,44.7,29.4z"/>
	<path class="st0" d="M24.2,26.5C24.1,26.6,24.1,26.6,24.2,26.5C24.1,26.6,24.3,26.5,24.2,26.5z"/>
	<path class="st0" d="M24.2,25.9c0,0,0.1-0.3-0.9-0.1c0,0-0.6-1.3-7.9,1.1c-0.2,0.1-0.4,0.1-0.6,0c-0.8-0.3-3.2-1-4.1-0.6
		c-0.2,0.1-0.2,0.4,0,0.4c0.5,0.2,1.5,0.7,1,1.5c0,0-2.4,2.8-4.9,4.1c-0.2,0.1-0.4,0.3-0.6,0.4c-0.4,0.4-1.2,1.1-1.6,1.6
		c-0.1,0.2-0.3,0.3-0.5,0.3c-1,0.1-4,0.5-4.2,0.7c0,0,3.1-0.1,4-0.2c0.1,0,0.2,0,0.3,0c0.3,0.1,1.4,0.3,3.6-0.8c0,0,7.7-4,10.3-4.5
		c0.2,0,0.3,0.1,0.3,0.3c-0.1,0.2-0.2,0.4-0.5,0.8c0,0-0.2,0.5,0.7,0c0,0,1.5-0.9,1.8-2.2c0.1-0.3,0.3-0.6,0.6-0.7
		c0.9-0.5,2.7-1.7,2.9-1.6c0,0,0,0,0.1,0C24.3,26.4,24.7,26.2,24.2,25.9z M21.3,26.6c-0.1,0-0.2-0.1-0.2-0.1c0-0.1,0.1-0.1,0.2-0.1
		c0.1,0,0.2,0.1,0.2,0.1C21.4,26.5,21.4,26.6,21.3,26.6z"/>
</g>
</svg>
