<?xml version="1.0" encoding="utf-8"?>
<!-- Generator: Adobe Illustrator 19.1.0, SVG Export Plug-In . SVG Version: 6.00 Build 0)  -->
<svg version="1.1" id="Layer_1" xmlns="http://www.w3.org/2000/svg" xmlns:xlink="http://www.w3.org/1999/xlink" x="0px" y="0px"
	 viewBox="0 0 48 48" style="enable-background:new 0 0 48 48;" xml:space="preserve">
<style type="text/css">
	.st0{fill:#808080;}
</style>
<path class="st0" d="M47,28.7c0,0-1.8-4-3.2-4.8c0,0-1.8-2.7-1.6-6.6l-0.1-5.8c0,0,1.2-3.2-9.2-2.6c0,0-16.5-1.1-19,0.2
	c-0.2,0.1-0.4,0.2-0.7,0.3c-0.5,0.2-1.4,0.5-1.9,0.9c-0.4,0.2-0.8,0.4-1.2,0.5c-0.9,0.2-2.3,0.4-2.4,0.1c0,0-0.5-1.1-1.3-1.3
	c-0.4-0.1-0.8,0-1,0.4c-0.2,0.3-0.5,0.7-0.7,0.8c-0.1,0.1-0.2,0.2-0.4,0.3c-0.1,0.2-0.3,0.4-0.5,0.6c-0.1,0.2-0.4,0.3-0.6,0.2
	c-0.6-0.2-1.6-0.5-2.2-0.1c0,0-1.5,0.5-0.6,1.7c0,0,1.1,0.8,1.7,0.9c0.2,0,0.3,0.1,0.3,0.3c0.1,0.4,0.1,1-0.2,1.6c0,0-1,2.3-1.7,2.8
	c0,0-1.2,0.5-0.2,1.7c0,0,0,0.7,0.7,0.8c0,0,1.6,0.4,2.1,0c0.1-0.1,0.3-0.2,0.4-0.2C4.4,21,6.3,20.7,7,20.2C7.3,20,7.6,19.9,7.9,20
	c0.4,0,1,0.3,1.4,1.1c0,0,1.1,1.7,1.7,3.8c0.1,0.3,0.2,0.6,0.3,0.9c0.6,1.2,2.1,4,3.9,3c0.1-0.1,0.2,0,0.2,0.1c0,0.6,0,2,0.5,2.9
	c0.3,0.5,0.4,1.1,0.4,1.7c0,1.1-0.1,2.6-0.4,3.5c-0.1,0.3-0.3,0.6-0.6,0.8c-0.4,0.3-1.3,1-1,1.2c0,0,0.7,0.2,1.8,0.1
	c0,0,1.2,0.1,1.4-0.7c0,0,0.2-0.4,0-0.6c0,0-0.2-1,0.2-0.5c0,0,0.8-0.1,0.4-0.8l-0.2-0.5c0,0,0.2-0.5,0-1c-0.1-0.1-0.1-0.2-0.1-0.3
	c0-1-0.1-5.2,0.2-6.4c0,0,0.1,0,0.1,0c0,0.8,0,3.6,0.8,4.1c0,0,0.7,4-0.4,5.2c0,0-1.9,1.7-0.9,1.7c0,0,2.5,0.5,2.9-0.3
	c0,0,0.4-0.4,0.1-1c0,0-0.3-1.1,0.4-0.9c0.2,0.1,0.3-0.1,0.3-0.2c0-0.1-0.1-0.3-0.3-0.6c0,0-0.1-0.1-0.1-0.2
	c-0.1-0.6-0.8-3.5-0.2-5.7l0.3-4.8c0-0.1,0.1-0.2,0.2-0.2c0.5,0.1,1.9,0.3,3.4,0.8c0,0,3.3,1.4,6.4,0.4c0.9-0.3,1.8-0.2,2.6,0.1l0,0
	c0.1,0,0.1,0.1,0.2,0.2l0.6,1.8c0,0,1,3.1-2.5,8.4c0,0-1.6,1.5-1,1.5c0.1,0,2,0.3,3-0.4c0,0,0-1.5,0.6-1c0,0,0.4,0.3,0.6-0.1
	c0,0,0.2-0.6-0.3-0.9c0,0,0.5-2.4,1.4-4.1c0,0,2.5-3,1.4-5.1c-0.1-0.2,0-0.5,0.2-0.6l0.3-0.1c0.1,0,0.2,0,0.2,0.1
	c0.1,0.3,0.2,0.7,0.5,0.7c0,0,0.4-0.1,0.2-1c0-0.1,0-0.1,0.1-0.1c0.1,0,0.1,0,0.2,0.1c0,0,0.4,1.3,0.6,0.6l-0.1-0.8
	c0-0.1,0-0.2,0.1-0.3l0.2-0.3c0.1-0.1,0.2-0.1,0.2,0c0.5,0.8,3.1,5.3,3.4,7.8c0,0,0.2,3.1-0.2,3.8c0,0-1.3,1.5-0.5,1.5
	c0,0,2.9,0.3,2.8-0.9c0,0-0.7-1.8,0-1.5c0,0,0.8,0.5,0-0.9c0,0-1.1-3.5-1-4.9c0,0,0.8,3.1,1.5,3.4C46.3,33.9,49.6,33.9,47,28.7z
	 M5.5,14.7c0,0,0-1.2,0.9-0.6C6.4,14.2,6.4,14.9,5.5,14.7z"/>
</svg>
