<?xml version="1.0" encoding="utf-8"?>
<!-- Generator: Adobe Illustrator 19.1.0, SVG Export Plug-In . SVG Version: 6.00 Build 0)  -->
<svg version="1.1" id="Layer_1" xmlns="http://www.w3.org/2000/svg" xmlns:xlink="http://www.w3.org/1999/xlink" x="0px" y="0px"
	 viewBox="0 0 48 48" style="enable-background:new 0 0 48 48;" xml:space="preserve">
<style type="text/css">
	.st0{fill:#808080;}
</style>
<path class="st0" d="M47.7,36.8c0,0-1.9-5.6-5.2-7.7c-0.1-0.1-0.2-0.2-0.2-0.4c0-0.4,0-1.3-0.5-1.5c-0.1-0.1-0.2-0.2-0.3-0.3
	c-0.2-0.8-1.1-3-3.1-2.6c0,0-1.6,0-1.4,2.1c0,0.1-0.1,0.3-0.2,0.3c-0.4,0-1-0.1-1.5-1c-0.1-0.2-0.1-0.4-0.2-0.5
	c-0.1-0.5-0.9-2.2-5.4-2.3c0,0-9-0.3-13.7,10.4c0,0-0.6,1.6-1.6,2.3c-0.5,0.4-1.3,0.3-1.7-0.2c-0.8-1-2.4-3.2-2.2-5.9
	c0,0,0.1-4.3,1.8-6.7c0,0,4.9-8.4-1.1-13.8c0,0-5.4-4.6-10,1.4c0,0-1.9,3.3-0.6,6.1l0.4-3.2c0.1-1.1,0.6-2.1,1.3-3
	C3,9.1,4.5,8.2,7,8.4C8.1,8.5,9.1,9,10,9.7c1.1,1,2.6,2.7,2.7,5.6c0,0,0.1,2.6-2.5,7.8c0,0-4.6,6.9,2.2,14.6c0,0,0.7,1.7,3.3,2.2
	c0,0,2.9,0.7,5.4,0.7l2.2,0.1c0,0,0.5,0.3,0.6,0c0-0.1,0.1-0.1,0.1-0.2c0.2-0.1,0.5-0.2,0.7,0.2c0,0,0.3,0.3,0.6,0
	c0.1-0.1,0.2-0.1,0.3-0.1c0.3,0.1,1.1,0.3,2,0l4,0c0.1,0,0.2,0,0.3,0.1c0.1,0,0.2,0.1,0.4,0.1c0.1,0,0.1,0,0.2,0
	c0.4,0,1.7,0.2,1.6-0.2c0,0,2.3,0.3,1.7-0.3c-0.1-0.1,0-0.2,0.1-0.2c0.5,0,1.4,0,2,0.4c0.1,0,0.2,0.1,0.2,0.1
	c0.5,0.1,2.3,0.2,2.3-0.2c0,0,1.1,0.6,1.1-0.1c0,0,0.2-0.1,0.5,0.2c0-0.1-0.7-1.2-1.8-0.7c0,0-1.5-0.4-1.2-0.6c0,0,1.4-0.7,1.7-1.2
	c0.1-0.1,0.2-0.1,0.3-0.1c0.6,0.3,2.7,1.3,3.4,0.8c0,0,1.8,0.6,2.3,0c0.1-0.1,0.2-0.2,0.4-0.2C47.5,38.3,48.5,38.1,47.7,36.8z
	 M43.4,32.9c0,0,1.2-1.3,1.4,0.6C44.8,33.5,44,34.4,43.4,32.9z"/>
</svg>
