<?xml version="1.0" encoding="utf-8"?>
<!-- Generator: Adobe Illustrator 19.1.0, SVG Export Plug-In . SVG Version: 6.00 Build 0)  -->
<svg version="1.1" id="Layer_1" xmlns="http://www.w3.org/2000/svg" xmlns:xlink="http://www.w3.org/1999/xlink" x="0px" y="0px"
	 viewBox="0 0 48 48" style="enable-background:new 0 0 48 48;" xml:space="preserve">
<style type="text/css">
	.st0{fill:#808080;}
</style>
<path class="st0" d="M42.6,13.6c-0.2,0-0.3-0.3-0.1-0.4c0,0,0.1,0,0.2,0c0,0,5.6-2.1,5.3-3.2l-7.8,2.8c-0.1,0-0.3,0-0.4-0.1
	c-0.1-0.1-0.2-0.3-0.1-0.4c0,0,5.9-2.2,5-3.1c0,0-6.3,2.6-7.9,3.3c-0.1,0.1-0.2,0.1-0.4,0.1c-1.1,0.3-7,2.2-7.9,4.3
	c0,0-3,5.2-3.1,7.4c0,0.2-0.1,0.4-0.2,0.6c-0.3,0.4-0.9,0.7-2.2-1c-0.1-0.1-0.1-0.2-0.2-0.3c-0.2-1-1.4-5.5-1.7-6.6
	c0-0.1,0-0.2,0-0.3c0-0.5-0.2-2.2-2.7-3.1c0,0-2.3-1-3.3-0.9c-0.2,0-0.5,0-0.7,0c-2.1-0.2-10-0.9-11.9-2.4c0,0-0.4,0.5,1.6,1.4
	c0,0-1.6,0.1-3.9-1.5c0,0,0.2,0.7,0.9,1.1c0,0-0.6,0.1-1.1-0.4c0,0,0.1,0.5,1,0.9c0,0,0,0.3-0.2,0.2c0,0-0.5-0.1-0.7-0.3
	c0,0,0.1,1,4,2.1c0,0-0.5,0.2-2-0.3c0,0-0.2,0.2,0.2,0.6c0,0,0.9,0.5,1.4,0.5c0,0,0.7,0.6,1.7,1.1c0.2,0.1,0.3,0.2,0.5,0.3
	c0.1,0.2,0.4,0.4,1,0.7c0.1,0.1,0.3,0.2,0.4,0.3c0.2,0.3,0.7,0.7,1.3,1c0.2,0.1,0.3,0.2,0.3,0.4c0.1,0.2,0.4,0.6,1.3,0.7
	c0.1,0,0.1,0,0.2,0.1c0.1,0.1,0.3,0.2,1.1,0.4c0.1,0,0.2,0.1,0.2,0.1c0.1,0.2,0.5,0.6,1.3,0.3c0,0,0.5-0.1,0.5,0.7
	c0,0-0.1,0.5,0.4,0.6c0.1,0,0.2,0.2,0.2,0.3c0,0.3,0,0.6,0.4,0.8c0.1,0.1,0.2,0.2,0.2,0.4c-0.1,0.2-0.1,0.5,0.1,0.7
	c0.1,0.1,0.2,0.3,0.1,0.4c-0.1,0.5-0.2,1.7,0.8,1.7c0.2,0,0.3,0.1,0.3,0.3c0,0.7,0.3,2,1.8,0.6c0,0,2.1-1.8,0.6,0.1
	c0,0-0.1,0.1-0.1,0.1c-0.2,0.2-1.2,0.9-0.1,1.6c0,0,0.8,0.2,1.1-0.3c0.1-0.1,0.2-0.2,0.4-0.2l0.2,0c0.3,0,0.5,0.2,0.6,0.5
	c0.1,0.2,0.1,0.4,0.2,0.6c0.1,0.2,0,0.3,0,0.5c-0.2,0.3-0.5,0.9-0.7,1.1c0,0.1-0.1,0.1-0.1,0.1l-6,4.1c0,0,0.5,1,2.2-0.6l-1.5,1.6
	c0,0,0,0.6,0.3,0.1c0.1-0.1,0.2-0.1,0.2,0c0.1,0.1,0.2,0.2,0.4,0.1c0.1,0,0.2,0,0.2,0.1c0.1,0.2,0.2,0.5,0.7,0.3
	c0.1,0,0.2,0,0.2,0.1c0,0.3,0.2,0.7,1.2,0.1c0.1,0,0.2,0,0.2,0.1c0,0.1,0,0.3,0.2,0.3c0,0,0,0.9,1,0.4c0,0-1,0.2-0.8-0.4
	c0,0,0.8-0.1,0.9-0.4c0,0-0.1,0.5,0.2,0.7c0,0-0.1-0.8,0-0.9c0,0,0.4-0.3,0.3,0.2c0,0-0.1,0.5,0.3,0.5c0,0,0,0,0,0.2
	c0,0,0,0,0.1-0.1c0-0.1,0.1-0.1,0.1-0.1c0.1,0,0.4-0.1,0.6-0.4c0,0,0.3,0.5-0.3,0.7c0,0,0.3,0.2,0.5-0.3c0-0.1,0.1-0.1,0.2-0.1
	c0.2,0,0.5-0.1,0.4-0.4L21.5,36c0,0,0.1,0,0.7,0.4c0.5,0.4,1,0.2,1.1,0.1c-0.1,0.1-0.9,1.2,0,1.3c0,0-0.5-0.3-0.1-0.7
	c0,0,0.3,0.3,0.5,0c0,0,0.2,0,0.1,0.2c0,0-0.4,0.7-0.1,0.6l0.3-0.6c0,0,0.1,0.1,0.2,0c0,0,0.5,0.2,0.5,0.4c0,0-0.1,0.6,0.3,0.6
	c0,0-0.1,0.1-0.3,0c0,0,0,0.2,0.4,0.1c0,0-0.3,0.5-0.8,0c0,0,0.6,1,1-0.1c0,0,0.4-0.5,0.3-0.8c0,0,0.1-0.3-0.1-0.4
	c-0.1-0.1-0.3-0.1-0.4-0.2c-0.3-0.3-0.7-0.6-0.6-0.7c0,0,1.1-0.1,1-0.8c0-0.1,0.1-0.2,0.2-0.2c0.4,0.1,1.1,0.2,1.3-0.4
	c0.1-0.1,0.2-0.2,0.3-0.2c0.6,0,1.9,0,0.6-1.1c0,0,0.2-0.1,0.5,0.1c0,0,1.2,0.6,1.5-0.2c0,0-3.4-1.9-4.1-2.5
	c-0.1-0.1-0.1-0.2-0.1-0.3c0.1-0.4,0.3-1.5,1.1-0.8c0,0,0.1,0.3,0.3,0.4c0,0,0.1,0.1-0.1,0.2c0,0,0.8,0.1,0.6-1.2
	c0-0.1,0-0.2,0.1-0.2c0.2-0.2,0.5-0.7-0.1-1.3c-0.1-0.1-0.2-0.3-0.2-0.4c0-0.4,0.1-1.2,0.8-1.8c0,0,1.2-1.2,1-1.9c0,0,0.2-0.5,0.6,0
	c0.1,0.1,0.2,0.1,0.3,0c0.1-0.1,0.3-0.3,0.5-0.3c0.1,0,0.2-0.1,0.2-0.1c0.1-0.3,0.4-1.1,1.3-1c0,0,0.6,0.9,1.2-0.1
	c0.1-0.1,0.2-0.1,0.3-0.1c0.4,0.1,1.1,0.2,1.3-0.4c0-0.1,0.1-0.1,0.2-0.1c0.3,0.1,1,0.3,1.6-0.2c0.1-0.1,0.1-0.1,0.2-0.1
	c0.3,0,1.1,0.1,1.5-0.6c0-0.1,0.1-0.1,0.2-0.1c0.3-0.1,1.2-0.4,1.4-0.8c0-0.1,0.1-0.1,0.1-0.2c0.5-0.2,2.2-0.8,1.5-1.4
	c-0.1-0.1-0.1-0.2,0-0.2c1-0.4,4.5-1.9-0.8-2c-0.1,0-0.1-0.1,0-0.1c0.5-0.2,1.5-0.6,2.7-1.3c0.1-0.1,0.2-0.1,0.4-0.2
	c0.8-0.3,4.1-1.4,3.9-2.2C47.8,12.2,43.8,13.4,42.6,13.6z M26.4,28.6c-0.1,0-0.3-0.1-0.3-0.2s0.1-0.2,0.3-0.2s0.3,0.1,0.3,0.2
	S26.5,28.6,26.4,28.6z"/>
</svg>
