<?xml version="1.0" encoding="utf-8"?>
<!-- Generator: Adobe Illustrator 19.1.0, SVG Export Plug-In . SVG Version: 6.00 Build 0)  -->
<svg version="1.1" id="Layer_1" xmlns="http://www.w3.org/2000/svg" xmlns:xlink="http://www.w3.org/1999/xlink" x="0px" y="0px"
	 viewBox="0 0 48 48" style="enable-background:new 0 0 48 48;" xml:space="preserve">
<style type="text/css">
	.st0{fill:#808080;}
</style>
<path class="st0" d="M39.8,5.6c0.9-0.3,3.4-1.3,2.9-2.7c0,0-2,1-3.8,1.2c-0.2,0-0.3-0.1-0.4-0.2c-0.1-0.2-0.4-0.4-0.8-0.6
	c0,0-1.4-3.4-2.5-3c-0.2,0.1-0.3,0.3-0.3,0.5l0.1,0.8c0,0-2.1-2.1-4.8-1.4C30,0.2,30,0.2,30,0.3C29.9,0.5,30,1,30.8,1
	c0,0,0.1,0,0.1,0c0.4,0.1,2.4,0.7,3.2,2.5c0,0.1,0,0.2-0.1,0.2c-0.2,0.1-0.6,0.4-1.3,0.3c0,0-1.9,1.1-0.6,1.8c0,0,0.2,0.2,0.1,0.4
	c0,0-1.3,3.2-2,5c-0.1,0.3-0.2,0.6-0.3,0.9c-0.1,0.3-0.4,0.9-1.6,1.2c-0.4,0.1-0.8,0.3-1.2,0.1c-0.7-0.4-2.6,0-4.8,0.7
	c-1,0.3-2,0.2-2.9-0.2c-2.7-1.1-7-3.5-11.6,1.3c-0.1,0.1-0.2,0.1-0.3,0c-0.2-0.4-0.7-1.1-1-0.3c0,0.1-0.1,0.1-0.1,0.2
	C6.4,15.3,6,15.8,6,16.5c0,0.5,0,0.9-0.2,1.4c-0.4,1.1-1,3.4,0.3,6.7c0.1,0.2,0.1,0.3,0.1,0.5c0.1,0.4,0.2,1,0.3,1.5
	c0.1,0.4,0.2,0.8,0.1,1.2c0,0.9,0,2.7,0.5,4.6c0,0,0.2,1.1,0.1,2.6c0,0.2-0.1,0.3-0.1,0.5c-0.2,0.5-0.6,2,0,4.2c0,0-0.1,3.6-0.9,5
	h0.4c0,0-0.2,0.2,0,0.5c0,0-0.5,2.2,1.2,1.2c0,0,1.9,0.9,1.1-1.5c0,0,0.1-0.3-0.2-0.7c0,0-1-1.5-0.3-4.8c0-0.2,0.1-0.3,0.1-0.5
	C8.6,38.4,9,37.1,8.7,36c0,0,0.7-6.8,1.5-5.9c0,0-0.4,2.8,0.7,0.4c0,0,1.7,1.2,2.7,1.1c0,0,0,1.3-0.2,2.5c-0.1,0.7-0.3,1.4-0.7,2.1
	c-0.3,0.5-0.6,1.4,0,2.4c0,0,0.4,6.3,0.4,7.1c0,0-0.3,1.1,0.7,0.8L13.8,47l0.4,0.1c0,0-0.3,1.2,0.9,0.6c0,0,1.9,1.4,2.1-1.7
	c0,0-0.4-0.8-1.4-1.1c0,0-1-2.1-0.7-5.8c0-0.1,0-0.2,0-0.3c0.2-1,1-6.2,2-6.2c0,0,2.6,0.3,5.6-0.8c0.2-0.1,0.4,0.1,0.4,0.3v0.8
	c0,0-0.4-0.1-0.1,1.7c0,0,0.8,4.6-1.4,7.2c0,0-0.1,0.6,0.3,0.7c0,0-2.1,2.8,0.6,1.8c0,0,2.3,1,1.9-1.3c0,0-0.9-3.5,0.4-5.6
	c0,0,0.9-0.8,0.7-2.5c0,0-0.3-4.2,1.4-4.5c0.6-0.1,1.2,0.4,1.3,1c0.1,1.2,0.5,3.6,0.9,4.4c0,0,0.6,4.1,0.1,6.4c0,0-0.3,1.2,0.5,0.9
	c0,0,0.4,0,0.3,0.7c0,0-0.2,1.5,2.5,1.4l0.1-0.2c0,0,1.3,0.4,1.1-0.1c0,0-2.3-1.9-2.6-3.6c0,0-0.5-2.4-0.1-3.8c0,0,0.4-1.9,0-3.5
	c0,0-0.2-5,1.6-7.2c0.7-0.8,1.2-1.8,1.4-2.8c0.1-0.5,0.2-1,0.3-1.6c0-0.6,0.2-1.2,0.4-1.8c0.7-1.7,2-5.2,2-7.5l0.2-1.2
	c0,0,3.7,0.6,4.1-0.2c0,0,0.6-0.8,0.5-1.7c0,0-0.4-1.5-1.5-2.8c-0.1-0.1-0.2-0.3-0.2-0.5l0-0.7C39.5,5.8,39.6,5.6,39.8,5.6z
	 M35.1,6.2c-0.2,0-0.3-0.1-0.3-0.3c0-0.1,0.2-0.3,0.3-0.3s0.3,0.1,0.3,0.3C35.5,6.1,35.3,6.2,35.1,6.2z M35.1,1.7
	c0.3,0,0.2-0.3,0.2-0.3C35.5,1.3,36,3,36.1,3.1C36,2.9,35.1,1.7,35.1,1.7z"/>
</svg>
