<?xml version="1.0" encoding="utf-8"?>
<!-- Generator: Adobe Illustrator 19.1.0, SVG Export Plug-In . SVG Version: 6.00 Build 0)  -->
<svg version="1.1" id="Layer_1" xmlns="http://www.w3.org/2000/svg" xmlns:xlink="http://www.w3.org/1999/xlink" x="0px" y="0px"
	 viewBox="0 0 48 48" style="enable-background:new 0 0 48 48;" xml:space="preserve">
<style type="text/css">
	.st0{fill:#808080;}
</style>
<path class="st0" d="M47.4,9.3c0,0-1.1-0.2-2.1,0.5c0,0-1.1,0.9-2.2-0.5c0,0-0.1-0.8-0.6-0.8c0,0-1.7-0.3-2.1,0.8
	c0,0-0.1,1.4-7.2,0.2c-0.2,0-0.4-0.1-0.5-0.1c-0.4-0.1-2-0.4-8-0.4c-0.3,0-0.5,0-0.8-0.1c-0.5-0.1-1.4-0.2-2.5,0.1
	C20.9,9,20.4,9.1,19.8,9C17.1,8.9,9.2,8.4,6,8c0,0-5-0.4-5.2,5.5v9.4c0,0.3,0,0.5-0.1,0.8c-0.1,0.6-0.4,1.7-0.4,2.1
	c0,0.1,0,0.1,0,0.2c-0.1,0.3-0.4,1.2-0.2,1.9c0,0.1,0,0.2,0,0.2c-0.1,0.1-0.1,0.5,0.2,1.2c0,0.1,0,0.2,0,0.3
	c-0.1,0.2-0.1,0.6,0.4,1.5c0,0.1,0,0.1,0.1,0.2c0,0.3,0.2,1.1,0.4,1.6c0.1,0.2,0.2,0.5,0.2,0.8c0,0.4,0,1.1,0.3,1.2
	c0.1,0.1,0.3,0,0.4-0.1c0.1-0.3,0.2-0.8-0.1-1.7c0-0.1,0-0.1,0-0.2c0-0.2,0.1-0.6-0.1-1.1c-0.1-0.1,0-0.3,0.1-0.4
	c0.2-0.2,0.5-0.7-0.1-2.3c0-0.1,0-0.1,0-0.2c0.1-0.5,0.4-2.9-0.1-5.4c0-0.1,0-0.2,0-0.2c-0.1-1.1-0.5-8.7,0-10.4
	c0-0.1,0.1-0.1,0.2,0C1.9,12.7,2,12.9,2,13.1c0,0,0.4,4.8,1,6.3c0,0,1.2,3.1,0.8,5.2c0,0.1,0,0.2,0,0.2c-0.5,2.1-0.8,2.3-0.8,2.3
	s-0.3,0.5,0,1.5c0,0.1,0,0.1,0,0.2c0.1,0.8,0.3,5.3,0.3,6.8c0,0.2-0.1,0.5-0.2,0.7c0,0.1-0.1,0.1-0.1,0.2c-0.1,0.1-0.1,0.2-0.1,0.3
	C2.9,37,3,37.1,3.3,37c0,0,0,0.8,0.5,0.4c0,0,0.1,0,0.1,0c0,0.4-0.1,1.6,1.8,1.5c0,0,0.1,0,0.1,0.1c0,0.2,0,1,0.8,0.9
	c0,0,3,0.2,2.6-0.4c0,0-0.9-0.9-1.3-1.1c0,0,0,0,0-0.1c0-0.1-0.1-0.6-0.5-0.7c-0.5-0.2-2.7-6.6,1.3-11.8c0.1-0.1,0.2-0.1,0.2,0
	L9,26.1c0.1,0,0.1,0.1,0.1,0.1c0,0.3,0.1,1.1,0.5,0.6c0,0,0.1,0,0.1,0c0,0.2,0,0.6,0.3,0.6c0,0,0.2,0.1,0.3-0.8c0-0.1,0-0.1,0.1-0.1
	c0.3-0.2,1.7-1.3,2.3-0.9c0,0,3,1,3.9,1.6c0.1,0,0.1,0.1,0.2,0.1c0.3,0.1,0.9,0.2,1.7-0.2c0.1-0.1,0.2-0.1,0.3-0.1
	c0.9,0,4.9-0.3,6.9-0.9c0.1,0,0.2,0,0.2,0c0.4,0,2-0.1,3.3,0.4c0.1,0,0.2,0.1,0.2,0.2c0,0.6,0,3.1,0.4,4.5c0.1,0.2,0.1,0.5,0.1,0.7
	c-0.1,1.1-0.2,4.1-0.2,4.6c0,0,0,0.1,0,0.1c-0.1,0.3-0.4,1.6,0.4,0.8c0,0,0.1,0,0.1,0c0.1,0.1,0.1,0.4,0.1,1c0,0,0,0.1,0,0.1
	c0.1,0.3,0.5,1.2,3.2,0.6c0,0,0.2-0.3,0.8-0.3c0,0,0.6-0.2,0.3-0.5c0,0-1.4-0.6-1.5-1.1c0,0,0.1-0.3-0.4-0.6c0,0-0.1-0.1-0.1-0.2
	c-0.1-0.5-0.6-3.1-0.2-4.4c0,0,0,0,0-0.1c0.1-0.2,0.7-1.6,0.5-4c0-0.1,0-0.1,0.1-0.2c0.8-0.2,5-1.8,6.7-7.9c0,0,0,0,0,0
	c0.1-0.2,0.9-1.6,2-1c0,0,0.3,0.3,0.8,0.2c0,0,0,0,0.1,0c0.1,0,0.5,0,0.9,0.2c0.1,0,0.2,0.1,0.3,0.1c0.5,0,2.1,0.1,2.3-0.6
	c0,0,0.1-0.7,0-1.2c0-0.2-0.1-0.4-0.2-0.5c-0.1-0.1-0.3-0.4-0.5-0.5c-0.1-0.1-0.2-0.2-0.2-0.4c-0.1-0.5-0.3-1.6,0.1-2.9
	c0,0,0.3-0.8-0.1-1.7c0-0.1,0-0.1,0.1-0.1c0.5,0.2,1.8,0.6,2.7-0.8c0,0,0,0,0,0C47.7,10.6,48.5,9.4,47.4,9.3z M43.4,13.5
	c0-0.1,0-0.2,0.1-0.2c0.3,0,0.8,0.1,0.7,0.7C44.2,14,43.5,14.2,43.4,13.5z"/>
</svg>
