<?xml version="1.0" encoding="utf-8"?>
<!-- Generator: Adobe Illustrator 19.1.0, SVG Export Plug-In . SVG Version: 6.00 Build 0)  -->
<svg version="1.1" id="Layer_1" xmlns="http://www.w3.org/2000/svg" xmlns:xlink="http://www.w3.org/1999/xlink" x="0px" y="0px"
	 viewBox="0 0 48 48" style="enable-background:new 0 0 48 48;" xml:space="preserve">
<style type="text/css">
	.st0{fill:#808080;}
</style>
<path class="st0" d="M47.7,10.6c-0.2-0.2-0.5-0.6-0.5-1.2c0-0.1-0.1-0.2-0.1-0.3c-0.3-0.4-1-1.3-2.1-1.3c-0.1,0-0.2-0.1-0.2-0.2
	c0.1-0.2,0-0.5-0.8-0.3c0,0-0.1,0-0.1,0c-0.2,0-0.8-0.1-0.6-0.6c-0.1,0-3.8,2.5-4.7,3.8c-0.4,0.5-0.8,0.9-1.4,1.2
	c-1.3,0.7-4,1.4-8.6,0.9c-0.3,0-0.6-0.1-0.8-0.1c-1.6-0.4-7.8-1.9-9.3-0.6c-0.1,0-0.1,0.1-0.1,0.2c0,0.1-0.6,0.1-5-1.7
	c-0.1,0-0.1,0-0.2-0.1C12.6,10,9,8.3,5.5,7.9c-0.2,0-0.3-0.2-0.3-0.3c0-0.4-0.2-1-0.8-0.7c0,0,0.1,0.8-0.5,0.1c0,0-0.2,0.2,0,0.5
	c0,0-0.1,0.5-0.7-0.3c0,0-0.2,0.3,0.2,0.8c0,0,0,0.5-0.8-0.3c0,0-0.1,0.3,0.2,0.7c0,0,0,0.3-0.6-0.1c0,0-0.8-0.2-0.6,0.7H1.2
	c0,0,0.3,0.6,0.2,0.8c0,0-0.3,1-1,0.9c0,0-0.6,0.4-0.4,0.8c0,0,0.5-0.4,0.8-0.1c0,0-0.6,0.5-0.5,0.6c0,0,2.1-0.5,2.4,0.3
	c0,0,0.8,1.7,2.2,0.7c0.1-0.1,0.2,0,0.2,0c0.5,0.5,2.3,2.3,3.4,4.5c0,0.1,0.1,0.1,0.1,0.2c0.4,0.6,2.7,4,5,5.1c0,0,0.1,0.5,0.6,0.5
	c0.2,0,0.3,0.1,0.3,0.2c0.1,0.4,0.4,1.2,1.3,1.7c0,0,0.5,0.4,0.8,1.7c0,0,0-0.3,0.1-0.5c0.2-0.3,0.6-0.3,0.7,0.1
	c0.1,0.4,0.5,1.2,0.9,1.4c0,0-0.4-1,0-0.8c0,0,0.1,0,0.1,0.1c0.5,0.2,3.7,1.6,3.7,2.9c0,0.1,0.1,0.3,0.2,0.4l0.1,0.1
	c0,0,0.7-0.2,1.2,0.8c0.1,0.1,0,0.2-0.1,0.3c-0.6,0.5-3,2.6-3.8,3.4c-0.2,0.2-0.4,0.2-0.6,0.1c-0.8-0.4-2.9-1.3-3.1-1.3
	c0,0,0.2,0.2,0.2,0.3c0,0,1,0.8,1.5,1.4c0.2,0.2,0,0.5-0.2,0.5c-1.1,0.1-4.1,0.6-4.2,1.3c0,0,0.3-0.3,0.6-0.1c0,0,0.8,0.4,2.8-0.3
	c0.1,0,0.2,0,0.3,0c0.3,0.1,1.1,0.3,1.4,0.1c0.1-0.1,0.2-0.1,0.3,0l0.2,0.1c0.1,0.1,0.2,0.3,0.1,0.4c-0.3,0.4-0.8,1.4,0,1.9
	c0,0-0.1-1.1,0.6-1.3c0.1,0,0.1-0.1,0.2-0.1c0.2-0.2,0.9-0.7,0.9-1.1c0,0,0.4-0.6,1.2-0.1c0.1,0.1,0.1,0.1,0.2,0.2
	c0.1,0.1,0.3,0.4,0.9,0.3c0,0,0.2-0.1,0.2,0.1c0,0,0.2-0.4-0.9-1c0,0-1.3-0.6-0.1-1.7c0,0,3.4-3.3,3.8-3.6c0,0,0.3-0.4,0.5,0.3
	c0,0,0.2,0.1,0.6,0.1c0.1,0,0.1,0.1,0.2,0.1c0,0.1,0.2,0.2,0.8,0.2c0,0,0.1,0,0.1,0c0.2,0.1,0.8,0.3,0.9,0.5c0,0-0.1-0.7,0.7-0.7
	c0,0,0.8,0,1.3-0.1c0.1,0,0.2,0,0.3,0.1c0.2,0.2,0.6,0.6,1.2,0.1c0.1-0.1,0.2-0.1,0.2,0c0.4,0.1,1.3,0.4,2.2,0
	c0.1-0.1,0.3,0,0.3,0.1c0.2,0.8,0.9,3.3,1,4.2c0,0.2,0,0.3-0.1,0.5c-0.1,0.2-0.3,0.4-0.4,0.5c-0.1,0.1-0.2,0.3-0.4,0.3
	c-0.3,0.1-1,0.3-2.1-0.1c0,0-0.2-0.1-0.4,0.1c0,0-0.2,0.1-0.5-0.1c0,0-0.5,0-0.5,0.4c0,0,0.7,0,0.9,0.2c0,0,0.2,0.1,0.6,0
	c0,0,0.3-0.1,0.8,0.1c0,0,0.1,0,0.1,0c0.2,0,1.1,0.2,2-0.3c0.1,0,0.2,0,0.1,0.1c-0.1,0.4-0.3,1.4-0.8,2c-0.1,0.1-0.1,0.2-0.1,0.2
	c-0.1,0.3-0.1,0.9,0,1c0,0,0.1-0.4,0.5-0.7c0.1-0.1,0.1-0.1,0.2-0.2c0.3-0.5,1.1-2.3,1.1-3.3c0-0.1,0-0.2,0.1-0.2
	c0.2-0.2,0.7-0.6,0.6-0.8c0,0-0.3-0.6-0.1-0.9c0.1-0.1,0.1-0.1,0.2-0.1c0.2,0,0.7,0,1-0.2c0.1,0,0.1-0.1,0.1-0.2
	c0-0.2,0.2-0.5,0.4-0.5c0,0-0.4-0.3-0.7,0.2c0,0-0.4,0.2-0.8,0.2c0,0-0.3,0-0.4,0.2c0,0,0,0.1-0.1,0.1c-0.1,0.1-0.3,0.1-0.5-0.5
	c0,0-1.3-3.7-0.7-4c0.1,0,0.1-0.1,0.2-0.2c0.7-0.8,4.4-4.9,3.8-7.7c0-0.2,0-0.3,0.2-0.4c0.7-0.3,2.7-1.2,3.1-3.6
	c0,0-0.9,0.6-0.5-0.2c0.1-0.1,0.1-0.2,0.1-0.3c0.1-0.8,0.6-4,2.3-4.8c0,0,0.1,0,0.1,0c0.2-0.1,1.3-0.8,1.8-1.6
	C48.1,11.4,48,10.9,47.7,10.6z M4.4,10.8c-0.2,0-0.3-0.1-0.3-0.2c0-0.1,0.1-0.2,0.3-0.2c0.2,0,0.3,0.1,0.3,0.2
	C4.8,10.7,4.6,10.8,4.4,10.8z"/>
</svg>
