<?xml version="1.0" encoding="utf-8"?>
<!-- Generator: Adobe Illustrator 19.1.0, SVG Export Plug-In . SVG Version: 6.00 Build 0)  -->
<svg version="1.1" id="Layer_1" xmlns="http://www.w3.org/2000/svg" xmlns:xlink="http://www.w3.org/1999/xlink" x="0px" y="0px"
	 viewBox="0 0 48 48" style="enable-background:new 0 0 48 48;" xml:space="preserve">
<style type="text/css">
	.st0{fill:#808080;}
</style>
<path class="st0" d="M47.9,27.1c0,0-0.9-1.7-1.5-2.5c0,0-1-1.4-0.5-2.5c0,0,0.7-2.3-1-4.4c0,0-1.2-2,1.7-3.9c0,0,0.1-0.8-0.6-0.4
	l-3.4,1.5c-0.1,0.1-0.3,0-0.3-0.2c-0.1-0.7-0.6-2.1-2.2-1c-0.2,0.1-0.5,0.1-0.6,0c-1.3-1-6.1-4.6-10.6-4.5c-0.9,0-1.7-0.1-2.6-0.3
	c-4.1-1.1-15.8-3.6-19.1,4.1L0.7,27.3c0,0-0.9,1.6-0.7,2.9c0.1,0.8,1.1,1.2,1.7,0.6c1.5-1.3,5.1-4.4,6.8-6.7c0.2-0.3,0.7-0.3,0.9,0
	c0.5,0.8,1.2,2.2,0.7,4.1c0,0-1.6,3-2.2,3.3c0,0-0.5,0.5-0.4,1.4c0,0-0.5,7.2,0.6,7.3l2.7,0.2c0,0,0.5-1-0.8-1.5
	c-0.2-0.1-0.4-0.2-0.4-0.5c-0.2-0.9-0.4-3,0.3-4.7l2.3,5.3c0,0,1.1,2,2.3,0.5c0,0,0.3-0.8-0.5-1.9c0,0-2.2-3.2-2.1-5.6
	c0-0.7,0.4-1.4,0.9-1.9c1.2-1,4-3.6,4.5-6.6c0-0.2,0.2-0.4,0.4-0.4c0.7,0,2.4,0.2,3.1,1.5c0.1,0.1,0.1,0.2,0.1,0.3
	c-0.1,1.2-0.5,8.6-1,9.4c0,0-1.8,2.1-2.6,2.7c0,0-0.9,0.4-0.6,1.2c0,0-0.7,0.2-0.1,1.2c0,0,0.6,1.5,1.3,0.7c0,0,1.3-1.9,3.8-3.8
	c0,0,1-0.6,1.1-2.8c0,0,0.7-9.7,5-8c0.3,0.1,0.4,0.3,0.5,0.6l2.7,10.8c0,0,0.1,0.9,0.8,1.3c0,0-0.1,1.1,1.4,0.9c0,0,2.5,0,1.5-0.6
	c0,0-1.5-1.7-1.6-2.5c0,0-1.6-8.4,0-10.4c0,0,0.7-1.8,4.8-0.5c0,0,2.1,0.2,4,1c0.4,0.2,0.8,0.4,1.2,0.7c0.6,0.5,2,1.5,3.3,1.4
	C46.2,28.4,48.6,28.3,47.9,27.1z M43.3,22.2c0,0,0.7-0.3,1.1,0.6C44.3,22.8,43.4,23,43.3,22.2z"/>
</svg>
