<?xml version="1.0" encoding="utf-8"?>
<!-- Generator: Adobe Illustrator 19.1.0, SVG Export Plug-In . SVG Version: 6.00 Build 0)  -->
<svg version="1.1" id="Layer_1" xmlns="http://www.w3.org/2000/svg" xmlns:xlink="http://www.w3.org/1999/xlink" x="0px" y="0px"
	 viewBox="0 0 48 48" style="enable-background:new 0 0 48 48;" xml:space="preserve">
<style type="text/css">
	.st0{fill:#808080;}
</style>
<path class="st0" d="M47.7,18c0,0-2.2-5-3.1-4.1c0,0-0.1,0.1-0.1,0.1c-0.1,0.3-0.7,1.9-1.2,1.9c0,0-0.5,0-0.9,0
	c-0.2,0-0.5-0.1-0.7-0.2c-0.3-0.2-0.8-0.5-1.2-0.7c-0.1-0.1-0.2-0.2-0.2-0.4c0-0.3-0.2-0.8-0.4-1c-0.1-0.1,0-0.2,0-0.2
	c0.2-0.1,0.5-0.5,0.7-1.1c0,0,0.3-0.6,0.6-0.8c0,0,0.6-0.5,0.6-0.8c0-0.1-0.2-0.2-0.2-0.1c-0.2,0.3-0.8,0.9-1.4,1c0,0-1,0.5-1.8,1
	c-0.3,0.2-0.7,0-0.7-0.4c0,0,0,0,0,0c0,0,0.1-1.2-0.7-1.7c0,0-1.1-0.6-1.4-0.1c0,0-0.4,0.9-0.1,1.6c0,0,0.2,1,1.2,1.3
	c0,0-0.3,0.3-0.7,0c0,0,0.2-0.4-0.6-0.3c-0.1,0-0.2,0-0.2,0c-1-0.2-8.3-1.8-11.7-1.7c-0.1,0-0.3,0.1-0.3,0.2c0,0.1,0,0.1,0,0.1
	c0.1,0.1-4.3,1.1-10.6-0.2c0,0-4.9-1.1-8.4,2.9c-0.1,0.1-0.2,0.2-0.3,0.3C3.3,15.3,1.3,17,1.3,18c0,0.1,0,0.2-0.1,0.3
	C0.9,19.1-1,22.4,0.7,25c0.1,0.1,0.1,0.3,0.1,0.5c-0.2,0.5-0.4,1.7,0.3,2.9c0.1,0.1,0.1,0.3,0.1,0.5l-0.9,3.5c0,0-0.4,0.8,0.2,1.4
	c0,0,0.9,1.3,0.3,3.1c0,0-0.5,0.9,0,1c0.5,0,3.9-0.1,3.9-0.1s-0.1-0.3-0.2-0.6c0-0.1-0.1-0.2-0.2-0.3c-0.1-0.2-0.4-0.4-0.6-0.6
	c0,0-0.4-2.8,0-3.6c0.1-0.1,0.2-0.1,0.3,0c0.4,0.6,1.6,2.4,2.2,2.9c0.1,0.1,0.1,0.2,0.2,0.3C6.5,36,6.5,36.4,6.2,37
	c0,0-0.2,0.2,0.1,0.4l0,0.2l3.9-0.1c0,0-0.3-0.1-0.7-0.7c0,0-0.5-0.7-0.8-0.8c0,0-0.3-1.2-0.6-1.8c0-0.1,0-0.1,0-0.2
	c-0.1-0.7-0.2-4.4,3-6.4c0.1-0.1,0.3-0.1,0.4,0c0.7,0.7,4.1,3.3,10.6,1.5c0.1,0,0.3,0.1,0.3,0.2c0,0.8,0,3,0.2,3.8c0,0,0,0.1,0,0.1
	c0,0.2,0.1,1.1-0.1,1.9c-0.1,0.2-0.1,0.4-0.2,0.5c-0.2,0.4-0.6,1.4-0.2,1.6l4.5,0.1l4.6,0c0,0-0.9-0.9-1.6-1.1c0,0-1.9-0.5-1.3-3.7
	c0-0.3,0.2-0.5,0.3-0.7c0.3-0.4,0.7-1.1,1-1.6c0,0,0.7-2.1,0.8-2.8c0-0.1,0.1-0.2,0.2-0.3c0.4-0.2,1.5-0.8,1.7-1
	c0,0,0.9,0.1,1.5-0.9c0.1-0.1,0.2-0.1,0.2,0c0.3,0.4,1,1.2,1.1,0.2c0,0,2-0.9,0.8-2.6c0,0-0.1-0.3,0.2-0.2c0,0,0.8,0,1.1-0.2
	c0,0,0.2-0.1,0.3,0c0,0,1.6,0.9,4,0.3c0,0,0.1,0,0.1,0c0.3,0,1.5,0.1,2.4-0.5C43.9,22,44,22,44.1,22c0.3,0,1.1,0,2.3-0.9
	c0,0,1.4-0.1,1-1.2C47.5,19.9,48.4,19.9,47.7,18z M25.8,36.1c-1.4-1.4-0.6-3-0.6-3c0.1,0.6,0.3,1.1,0.4,1.2
	C25.9,35.2,25.8,36.1,25.8,36.1z"/>
</svg>
