<?xml version="1.0" encoding="utf-8"?>
<!-- Generator: Adobe Illustrator 19.1.0, SVG Export Plug-In . SVG Version: 6.00 Build 0)  -->
<svg version="1.1" id="Layer_1" xmlns="http://www.w3.org/2000/svg" xmlns:xlink="http://www.w3.org/1999/xlink" x="0px" y="0px"
	 viewBox="0 0 48 48" style="enable-background:new 0 0 48 48;" xml:space="preserve">
<style type="text/css">
	.st0{fill:#808080;}
</style>
<path class="st0" d="M21.6,16.6l0.1,0.3c0,0,0,0,0,0.1l0.7,1.3c0,0.1,0.1,0.1,0.1,0.1l1.9,1l-0.9,1.4c0,0-3.6-7.5-6-9.8
	c-0.4-0.4-0.8-0.8-1.1-1.3c-1.4-2.2-5.1-7.7-7.8-9C7.6,0,6.6,0.9,6.8,1.9C7,2.7,7.5,3.9,8.4,5.8L13.6,16c0,0,0,0.1,0.1,0.1
	c0.2,0.4,1.6,2.5,2.3,3.2c0,0,0.1,0.1,0.1,0.1c0.7,0.6-9.9-7.4-13.8-7.6c0,0-4.3-0.8-0.9,3.1c0,0,10.5,13.6,19.4,9
	c0,0-1,0.3-1.6,2.3c0,0.2-0.1,0.3-0.2,0.5c-0.2,0.5-0.9,1.6-2,2.4c0,0-3.6,3.5-5.4,5.5c0,0-9.4,9.8-9.2,10.8c0,0-1.7,0.7-1.3,1.5
	c0,0,0.7-1,1-0.7c0,0-0.6,0.5-0.6,0.9c0,0,0.8-0.5,1-0.3l-0.5,0.8c0,0,0.8,0.1,1-1c0,0,0.3-0.5,0.7-0.4l6.3-6.3c0,0,4.3-4.7,4.5-5.1
	s0.1,0,0.1,0s2.4-2.6,3.3-3.7c0.1-0.1,0.2-0.3,0.3-0.5c0.3-0.5,1.4-2.3,4.4-3.3c0,0-2,2.9-0.3,6.1c1.6,2.9,6.4,6.6,7,7
	c0,0,0.1,0,0.1,0s2.3,4,5.5,4.7c0,0,2.5,0.6,2.2-0.9c0,0,0-0.1,0-0.1c-0.4-1.5-1.7-4-3.5-6c-0.1-0.1-0.1-0.1-0.2-0.2
	c-0.7-0.9-6.4-7.9-6.4-8.6c0.1-0.7,0.1,0.1,0.1,0.1s5.7,4.1,6.8,4.5c0,0,7.2,3.1,8.5,3.4c0,0,4,1.8,5.3,1.2c0,0,0.8-0.8-1-2.9
	c0,0-1.9-2.8-7.1-4.7c-0.1,0-0.1-0.1-0.2-0.1l-2.1-0.9c-0.3-0.1-0.6-0.3-0.8-0.5c-1.2-0.9-5.3-3.7-9.3-5.6C27.1,24,27,23.8,27,23.6
	c0.1-0.5,0.5-1.2,1-1c0,0,1.3,2.3,1.8,2.7c0,0,2.5-0.2,2.6-0.1c0,0,0.1,0.3,0.6-0.1l1.6-0.1l-1.4-0.2c0,0-1.1-0.2-2.9,0.2
	c-0.1,0-0.2,0-0.3-0.1c-0.5-0.6-2.1-2.5-1.6-2.8c0,0,2.9,0.3,3-0.1c0.1-0.3,0.7-3.7,1-3.9c0.3-0.2,1.1-0.8,1-1.1h-0.1l0-0.4
	c0,0-0.1,0.2-0.2,0.4c0,0-0.1,0.1-0.1,0.1c-0.2,0.2-1.3,1.1-1.5,1.7l-0.4,2.7c0,0.1-0.1,0.1-0.2,0.1c-0.5,0-2.2-0.1-2.5,0.1l0-1.1
	c0,0,1.7,0.2,1.1-1.9c0,0,0.4-0.4,0-0.7c0,0-1-1.2-1.4-1c0,0-0.3,0.2-0.3,0.3c0,0-1.8-1.2-2.1,1.1c0,0.1-0.1,0.2-0.2,0.2l-0.3,0
	c0,0-0.2-2.5-0.3-2.9c0,0,0-0.1,0-0.1c0.1-0.2,0.6-0.7,2.4-1.1c0,0,0.1,0,0.4-0.3c0,0,0.1-0.1,0.1-0.1c0.3-0.2,1.4-1.3,1.5-1.3
	c0,0,0-0.1-0.2-0.1c-0.2,0.1,0,0,0,0s-0.1-0.1,0-0.2c0,0-0.5,0.6-0.7,0.8c0,0,0,0,0,0c-0.2,0.1-0.4,0.4-0.6,0.5c0,0-0.1,0.1-0.1,0.1
	c-0.4,0.1-2.2,0.7-2.9,1.4c0,0,0,0-0.1,0c-0.1,0-0.3,0.1-0.2,0.5c0.1,0.5,0,0.1,0,0.1l0.6,2.9c0,0-0.6,0.3-0.6,0.4
	c0,0-1.3-0.7-2.1-1.1c-0.1-0.1-0.2-0.1-0.3-0.2L21.8,17c0,0,0.5-1.9,0.3-2.4c0,0-0.7-1.5-1.1-1.9c0-0.1-0.1,0-0.1,0.1
	c0.1,0.3,0.3,1,0.9,1.6"/>
</svg>
