<?xml version="1.0" encoding="utf-8"?>
<!-- Generator: Adobe Illustrator 19.1.0, SVG Export Plug-In . SVG Version: 6.00 Build 0)  -->
<svg version="1.1" id="Layer_1" xmlns="http://www.w3.org/2000/svg" xmlns:xlink="http://www.w3.org/1999/xlink" x="0px" y="0px"
	 viewBox="0 0 48 48" style="enable-background:new 0 0 48 48;" xml:space="preserve">
<style type="text/css">
	.st0{fill:#808080;}
</style>
<path class="st0" d="M47.2,30.5c0,0-4-5.5-4.3-10.1c0-0.1,0-0.1,0-0.2C42.8,19,42.1,5,22.6,9.6c0,0-0.9,0.2-2,0.1
	c-0.5,0-0.9-0.2-1.4-0.4c-0.9-0.4-3.4-1.1-7.3,0.6C11.8,10,11.6,10,11.5,10c-0.7-0.1-2.6-0.2-4,0.6c-0.1,0-0.2,0.1-0.3,0.1
	c-0.4,0-1.3,0.1-1.5,1.1c0,0.3-0.2,0.5-0.4,0.6c-0.7,0.4-2.3,1.6-2.8,4c0,0,0.4,0.9-0.1,1.5c0,0-1,1.3-1.8,2.1c0,0-0.1,0.1-0.1,0.1
	c-0.2,0.2-1,0.9,0.2,1.4c0,0,0.2,1.1,1.7,0.9c0,0,6.8-1.1,6.8,0.5c0,0-0.9,4.2,0.6,7.6c0,0.1,0.1,0.2,0.1,0.4c0.2,1.2,1,6.9-3.8,6.3
	c0,0,0,0-0.1,0c-0.2,0-1.5,0.1-1.1,1.7c0,0,0.1-0.7,0.4-0.7c0,0-0.1,0.2,0,0.4c0,0,0.1-0.2,0.2-0.1c0,0-0.1,0.3,0.1,0.4
	c0,0,0,0.1,0.6,0.2c0,0,3.7,0.2,4.2-0.1c0,0,1-0.2,1.5-0.2c0,0,0-0.1-0.1-0.2c-0.1-0.1-0.1-0.4,0.1-0.5c1.3-0.8,5.5-4,5.3-9.3
	c0-0.2,0.3-0.4,0.5-0.3c0.9,0.5,2.7,1.7,3.5,3.9c0.1,0.3,0.2,0.6,0.4,0.9c0.6,1.2,2.2,4.6-0.6,4.2c0,0-0.7-0.1-1.1,0.3
	c0,0-1.2,0.3-0.7,1.4c0,0,0.1-0.5,0.3-0.5c0,0,0.2,0.4,0.4,0c0,0-0.1,0.4,0.1,0.5c0,0,5.6,0.3,6,0c0,0,0.5-0.2-0.4-0.4
	c0,0-1.1-1,1.4-1.8c0.2-0.1,0.2-0.3,0-0.4c-0.3-0.1-0.5-0.3-0.5-0.4c0-0.3-1-4.5,0.2-6.9c0.3-0.7,1.1-1.2,1.9-1.1
	c1.1,0.1,2.7,0.4,3.2,1.7c0,0.1,0,0.1,0.1,0.2c0.3,0.9,1.8,6.1,1.2,6.5c0,0-0.1,0-0.1,0.1c-0.2,0.1-0.8,0.5-1.4,0.3
	c0,0-1.6-0.1-1.3,1.3c0,0,0.2,0.2,0.5-0.3c0,0,0,0.5,0.7,0.5c0.7,0,6.3,0.2,7.1-0.4c0,0-1-0.4,0.5-0.5c0,0-1.1-2.8,0.1-4.8
	c0.1-0.2,0.3-0.2,0.5-0.1c0.7,0.7,2.7,2.3,3.8,1.8c0.2-0.1,0.3,0,0.4,0.2l0.1,1.1c0,0-0.6,0.3-0.7,0.7c0,0,0,0.1-0.1,0.1
	c-0.3,0.2-1.5,1.1-0.3,2.2c0,0,0.1-0.6,0.3-0.6c0,0,0.2,0.5,0.9,0.1c0.6-0.4,3.6-2.1,4-3.8c0,0,0,0,0-0.1
	C47.9,34.2,48.5,32.2,47.2,30.5z M4.4,17.7c0,0-0.2-0.6,0.7-0.4C5,17.3,4.9,18.1,4.4,17.7z"/>
</svg>
