<?xml version="1.0" encoding="utf-8"?>
<!-- Generator: Adobe Illustrator 19.1.0, SVG Export Plug-In . SVG Version: 6.00 Build 0)  -->
<svg version="1.1" id="Layer_1" xmlns="http://www.w3.org/2000/svg" xmlns:xlink="http://www.w3.org/1999/xlink" x="0px" y="0px"
	 viewBox="0 0 48 48" style="enable-background:new 0 0 48 48;" xml:space="preserve">
<style type="text/css">
	.st0{fill:#808080;}
</style>
<path class="st0" d="M47.3,19.6c0,0-1.7-2.3-3.6-1.2c-0.2,0.1-0.4,0.2-0.6,0.2c-0.8,0.1-2.7,0.6-3.4,1.3c0,0,0.2-0.5,0.2-0.9
	c0-0.2,0-0.3,0.1-0.5c0.2-0.4,0.5-1.4,0.2-2.3c0,0-0.2-1.2,0.2-1.5c0,0,1.5-1,1.2-1.7c0,0,0-0.6-0.9-0.5c0,0-1-0.1-1.6-0.1
	c-0.1,0-0.3,0-0.4,0.1c-0.1,0-0.3,0-1-0.1c0,0-1.4-0.4-2.2,0c0,0-1.6,0.2-1.9,0c-0.3-0.2-0.1,0,0,0c-0.1,0-1.6-1-1.7,0.7
	c0,0-1,0.3-1.4,0.8c0,0-2-0.5-4,3.4c-0.3,0.6-0.7,1.1-1.2,1.6c-0.9,0.9-2.5,1.8-4.2,1.1c-0.2-0.1-0.4-0.2-0.6-0.2
	c-0.9-0.2-3.3-0.7-5.7,0c-0.3,0.1-0.6,0.2-0.9,0.4c-1.2,0.8-5.7,3.5-10.8,1.4c0,0-2.7-1.4-3-0.8c0,0,5.9,6.3,14.9,0.1
	c0,0-2.9,3-3.9,6.6c-0.1,0.5-0.5,1-0.9,1.3l0,0c0,0-1.3,0.2-0.7,1c0.2,0.2,0.2,0.5,0.1,0.8l-1.3,3.5c0,0-0.4,0.3-0.2,1.3
	c0,0,0.1,0.7,0.5,0.5c0,0,0.1,0,0.1,0c0.1,0.1,0.3,0.3,0.5,0.2c0.1,0,0.2,0,0.2,0C9.5,36,9.8,36.1,10,36c0.1-0.1,0.1-0.1,0.2,0
	c0.2,0.1,0.6,0.1,0.6-0.4c0,0,0.2-1.1-0.4-1.4c-0.1,0-0.1-0.1-0.1-0.2c0-0.5,0.3-1.9,1.4-3.1c0.1-0.1,0.1-0.2,0.2-0.3
	c0.3-0.5,1-1.7,1.7-1.8c0,0,1.5-0.1,4.1,0.3c0,0,2.8,0.8,3.8-0.7c0.1-0.1,0.2-0.1,0.3-0.1c0.8,0.3,4,1.1,7.5-0.6
	c0.2-0.1,0.5-0.1,0.8,0c0.9,0.4,2.9,1.4,4,1.6c0.1,0,0.2,0.1,0.3,0.1c0.2,0.1,0.6,0.3,0.8-0.1c0-0.1,0.1-0.1,0.2-0.1
	c0.3,0,1.1,0.1,1.8,0.8c0,0,0.7,1.2,1.6,0.4c0,0,0.1,0,0.2,0.1c0,0,0.1-0.1,0-0.3c0,0,0.1,0,0.1-0.1c0,0,0-0.1,0.1-0.1
	c0.1,0,0.2,0,0.4-0.2c0,0,0.1-0.1,0.1,0.1c0,0,0.1-0.1,0.1-0.2c0,0,0.7-0.6,0.7-0.7c0,0,0.1,0,0.1,0.2c0,0,0.2,0,0.1-0.8
	c0,0,0-0.1,0-0.1c0.1,0,0.2-0.2,0.2-0.6c0,0,0.1,0.1,0.1,0.2c0,0,0.2-0.2-0.2-0.6c0,0-1.5-1.7-4.7-0.9c0,0-0.6,0.3-1.4-0.2
	c0,0,0,0-0.1,0l-0.8-0.4c0,0,0-0.1,0-0.1c0.2-0.1,0.8-0.3,1.1-0.4c0.1,0,0.1,0,0.2,0.1c0.2,0.2,0.8,0.8,2,0c0,0,4.8-3.2,6-3.6
	c0.1,0,0.2,0,0.3,0c0.2,0.1,0.5,0.1,0.6-0.2c0-0.1,0.1-0.2,0.2-0.2l0.8-0.4c0.1,0,0.2,0,0.2,0c0.2,0.2,0.9,0.8,1.5,0.9c0,0,0,0,0,0
	c0.1,0,0.2,0,0.3,0.1c0.1,0.1,0.2,0.1,0.3,0.1c0.2,0,0.4,0,0.6-0.3c0,0,0,0.2,0,0.2c0,0,0.3-0.2,0.3-0.6
	C47.8,21.4,48.5,20.8,47.3,19.6z M35.2,15.5c0,0,1-0.7,1.3,0.1C36.5,15.6,35.9,16.7,35.2,15.5z M38.9,15.9c0,0,0.3-0.8,0.8-0.3
	C39.7,15.6,39.7,16.6,38.9,15.9z"/>
</svg>
