<?xml version="1.0" encoding="utf-8"?>
<!-- Generator: Adobe Illustrator 19.1.0, SVG Export Plug-In . SVG Version: 6.00 Build 0)  -->
<svg version="1.1" id="Layer_1" xmlns="http://www.w3.org/2000/svg" xmlns:xlink="http://www.w3.org/1999/xlink" x="0px" y="0px"
	 viewBox="0 0 48 48" style="enable-background:new 0 0 48 48;" xml:space="preserve">
<style type="text/css">
	.st0{fill:#808080;}
</style>
<path class="st0" d="M46.7,17.4c0.2-1.4,0-5.2-5.9-5.7c0,0,0.2,1-0.2,1.1c0,0-4.5,2.5-6.7,2.8c0,0-1.9,0.4-4.8,1.9
	c0,0-0.9,0.5-2.9,1c0,0-2.3,0.7-3.1,1.1c-0.4,0.2-0.8,0.3-1.2,0.5c-1.2,0.4-3.2,1.2-3.9,1.7c-0.3,0.2-0.7,0.4-1.1,0.4
	C13.5,22.6,1.2,24.4,0,25.3c0,0,0,0.1,0,0.1c0.3,0.2,1.4,0.8,2.4,0.6c0.1,0,0.2,0,0.2,0c0.3,0.2,1.1,0.5,2.6,0c0.1,0,0.1,0,0.2-0.1
	c0.6-0.2,4.8-1.2,6.5-1.6c0.5-0.1,1-0.1,1.5,0c1.8,0.4,6.4,1.5,8.4,1.8c0.6,0.1,1,0.4,1.3,0.9c0.6,1.1,2.1,3.1,5.5,4
	c0.1,0,0.2,0.1,0.3,0.2c0.6,0.5,2.8,2.4,2.5,2.6c0,0-1.9-0.3-2,0.5c0,0-0.8,0.5-0.4,1.8c0,0,0-1.2,0.5-1.4c0,0,0.2,0.5,0.5-0.1
	c0.1-0.1,0.2-0.2,0.3-0.2c0.5-0.1,2-0.3,2.3,0.2c0,0.1,0.1,0.1,0.2,0.2c0.2,0.1,0.5,0.2,0.8,0.2c0,0,0,0,0.1,0c0.1,0,0.2,0.1,0.3,0
	c0,0,0.1-0.1,0.1-0.1c0.1,0,0.2,0,0.3,0.2c0,0,0.1-0.1,0.1-0.1c0,0,0-0.1,0.1-0.1c0.2,0,0.5,0.2,1,0.1c0,0,0.1,0,0.1,0
	c0.1,0.1,0.4,0.2,0.4-0.1c0-0.1,0.1-0.1,0.1-0.1c0.2,0,0.6,0,1,0.4c0,0-0.1-0.8-1.3-0.7c0,0-0.1,0-0.2,0c-0.1,0-0.1,0-0.2-0.1
	c-0.2-0.2-0.7-0.7-1.3-0.4c0,0-0.7,0.3-1,0.1c0,0-1.3-0.8-3.6-3.3c0,0,0.8-0.2,1-0.1c0,0,0.8,0.6,1.7,0.4c0.1,0,0.2,0,0.3,0l3,1
	c0,0-0.8-0.1-1,0.2c0,0-0.6,0.5-0.2,1.1c0,0,0-0.8,0.4-0.8c0,0,0.1,0.4,0.5,0c0,0,1.3,0.3,1.9,0.3c0.1,0,0.2,0,0.3,0.1
	c0.1,0.1,0.4,0.3,1,0.2c0,0,1.4-0.1,1.6,0.1c0,0,0.2,0.3,0.3,0.4c0,0,0.1-0.2,0-0.4c0,0,0.4,0.4,0.5,0.2c0,0,0.1-0.2,0-0.3
	c0,0,0.6,0.1,1,0.6c0,0-0.1-1.2-1.8-1c0,0-1.2-0.7-1.6-0.3c0,0-0.5-0.1-0.7-0.4c-0.1-0.1-0.2-0.2-0.3-0.2l-3.9-1.4
	c-0.1,0-0.1-0.2,0-0.2c2.2,0,9.3-0.9,10.8-10.2c0-0.2,0.2-0.5,0.4-0.6c0.2-0.2,0.7-0.3,1.3,0.1c0,0,1.1,0.7,2,0.6
	c0,0,0.3-0.4-0.9-1.9C46.8,18.2,46.7,17.8,46.7,17.4z M43.3,16.1c0,0-1.3,0.7-1.2-0.9C42.2,15.3,43.5,14.6,43.3,16.1z"/>
</svg>
