<?xml version="1.0" encoding="utf-8"?>
<!-- Generator: Adobe Illustrator 19.1.0, SVG Export Plug-In . SVG Version: 6.00 Build 0)  -->
<svg version="1.1" id="Layer_1" xmlns="http://www.w3.org/2000/svg" xmlns:xlink="http://www.w3.org/1999/xlink" x="0px" y="0px"
	 viewBox="0 0 48 48" style="enable-background:new 0 0 48 48;" xml:space="preserve">
<style type="text/css">
	.st0{fill:#808080;}
</style>
<path class="st0" d="M14.5,33c0,0-0.5,0.3-0.7,0.5c-0.1,0.1-0.2,0.2-0.4,0.2c-0.5-0.1-1.4-0.1-1.6,0.1c0,0-0.5,0-0.5,0.5
	c0,0,0.3-0.3,0.4-0.2c0,0,0.2,0.6,0.8,0.3l0.5,0c0,0-0.4,0.4-0.6,0.7c0,0.1-0.1,0.1-0.2,0.2c-0.4,0.2-1.7,1.1-1.8,2
	c0,0-0.6,1.5-1.1,2.1c0,0-0.1,0.1,0,0.3c0,0-0.1,0.3,0,0.4c0,0,0.1,0.2-0.1,0.3c0,0,0.2,0.1,0.3-0.3c0,0,0.8,0.8,1.2,2.5l0.4,1.3
	c0,0,0.6-0.2,0.6-0.9c0,0,0.2-1.6,4-1.1c0,0,0,0.2-0.2,0.3c0,0,0.4,0,0.4-0.5c0,0,0.5-2.6-1.2-5.4c0,0,0.6-0.8,0.7-1.4c0,0,0,0,0,0
	c0-0.6,1.1-2,1.1-1.5c0,0,0.3,4.5,0.3,5.7c0,0-0.1,0.8,0.4,0.9c0,0-0.2-0.8,0.3-0.6c0,0,1,0.4,2.2,1c0,0,3.9,0.9,3.6,0.3
	c0,0,0.3,0,0.3,0.2c0,0,0-0.4-0.3-0.5c0,0-0.1-1.2,0.8-1.2c0,0-0.1-0.4-0.9-0.4c0,0-0.7,0-1.3-0.5c0,0-1.8-0.7-1.9-0.9
	c0,0-0.1-0.1-0.6,0l-1.1,0.1c0,0-1-2.8,0.1-4.6c0,0,9.6-0.1,11.4-1.2c0,0,1.8,0.1,2.2,0.7c0,0,0.3,0.1,0.6-0.2c0,0,1.7-1.2,1-2.9
	c0,0,9.8-9.1,2.5-14.3c0,0-2.7-2.1,1.4-4.8c0,0,0.8-1.1,7.6-1.2l2.9,0c0,0,0.3-0.8-0.5-1c0,0-1.6-0.7-2.1-1.6c0,0-1.6-5.2-7.5-0.9
	c0,0-6.8,3.8-7.3,7.6c0,0,0,1.4-0.5,2.4c-0.4,0.7-1.3,1-2,0.7c-1.7-0.7-6.1-2.2-12.1-0.4c-1.8,0.5-3.7,1-5.6,1.3
	c-1.3,0.2-2.7,0.3-3.6,0.2c0,0-5.6-0.6-6.5-0.1c0,0,6.4,1.4,5.6,1.5c0,0,0,0-0.1,0C5,18.7,1,17.6,0,17.7c0,0,0.8,0.2,1.1,0.5
	c0.1,0.1,0.2,0.1,0.2,0.1c0.4,0,1.5,0,2,0.2c0,0,3.6,1.2,4.8,2c0.1,0.1,0.1,0.2,0,0.3C7.7,21,6.8,21.9,6.8,23c0,0.2-0.1,0.4-0.3,0.6
	c-0.7,0.6-2.3,2.3-2.2,3.3c0,0.2-0.1,0.4-0.2,0.6c-0.5,0.7-1.6,2.2-1.1,2.3c0,0,0.9,0.2,0.9,0.4c0,0-0.2,1,0.8,1
	c0,0,1.1,1.9,3.2,1.1c0.1,0,0.3,0,0.3,0.2c0.1,0.5,0.5,1.6,3.3,0.8C11.5,33.3,14.1,32.8,14.5,33 M43.3,6.5c0,0,0.8-0.7,0.8,0
	C44.1,6.5,43.4,7.4,43.3,6.5z"/>
</svg>
