<?xml version="1.0" encoding="utf-8"?>
<!-- Generator: Adobe Illustrator 19.1.0, SVG Export Plug-In . SVG Version: 6.00 Build 0)  -->
<svg version="1.1" id="Layer_1" xmlns="http://www.w3.org/2000/svg" xmlns:xlink="http://www.w3.org/1999/xlink" x="0px" y="0px"
	 viewBox="0 0 48 48" style="enable-background:new 0 0 48 48;" xml:space="preserve">
<style type="text/css">
	.st0{fill:#808080;}
</style>
<path class="st0" d="M44.9,5.4c-0.7-0.8-3.2-3.2-7.9-1.6c-0.9,0.3-1.6,0.8-2.3,1.5c-1,1.1-2.5,3-3.3,5.5c0,0-0.6,1.4-1.9,2.4
	c-0.6,0.4-1.1,0.9-1.6,1.4c-3.1,3.1-12.4,12.7-15.1,17.5l0.5-0.2c0,0-0.8,1-0.8,1.2c0,0,0.3,0.1,0.5-0.1c-0.2,0.2-0.9,0.8-2.3,1.8
	c-1.6,1.2-5.3,4-5.3,4S0,44.3,0,44.6c0,0,1.7,0.4,2.3-0.1c0.6-0.5,6.7-6,9.2-7.3c0.1,0,0.2-0.1,0.3-0.1c0.6-0.3,3.4-1.4,5-1.9
	c0.5-0.2,1-0.2,1.5-0.2c0.8,0,2.4-0.1,4.4-0.8c0,0,3.2-1.6,4.2-1.4c0.2,0,0.4,0.3,0.3,0.5c-0.2,0.4-0.6,1.6,0.5,2.2
	c1.1,0.7,3.2,2.5,3.8,3.2c0.1,0.1,0,0.2-0.1,0.2c-0.4,0.1-1,0.3-1.2,1.2c0,0.1-0.1,0.2-0.2,0.2c-0.4,0.1-1.5,0.3-1.6,1.5
	c0,0,0.6-1,1.6-0.9c0.1,0,0.2,0.1,0.2,0.2c0,0.2,0.2,0.7,1.2,0.3c0,0,0.6-0.2,1,0.1c0,0,0,0.3,1.8-0.2c0.2-0.1,0.4-0.1,0.6-0.1
	c1,0,4.3-0.1,4.6-0.5c0,0,0.3,0.1,0.3,0.3c0,0,0.1-0.2,0.1-0.4l0.9,0c0,0,0.6,0.3,0.8-0.1l0-0.3c0,0,1.2-0.3,1.6,0.3
	c0,0-0.3-1.1-1.8-0.9c0,0-0.1-0.2,0-0.2c0,0,0.5,0,0.5-0.5c0,0,0.1-0.5,1.7,0.1c0,0-0.4-1.1-2.2-0.8c0,0-1,0.2-1.5,0.4
	c-0.1,0.1-0.3,0-0.3-0.1c-0.2-0.2-0.8-0.5-2,0.1c-0.1,0.1-0.3,0.1-0.4,0.1c-0.4,0-1.2-0.1-2.1-0.6c-0.1-0.1-0.3-0.2-0.4-0.3
	l-3.6-2.7c0,0-0.1-0.5,0.1-0.8c0,0,0,0,0.1,0c0.1,0,0.3-0.2,0.4-1.1c0.2-1.1,0.6-2.1,1.2-3c0.6-0.8,1.4-1.8,2.5-2.4
	c0,0,7.9-5.3,7.4-13.7c-0.1-1.1,0.1-2.3,0.5-3.3c0.4-1,1-2,2-2.1c0,0,2.6-0.4,3.1-1.1c0,0,0.3-0.4-2.7-2C45.2,5.7,45,5.6,44.9,5.4z
	 M39.4,39.7c0,0,0.3,0,0.3-0.2c0,0,0.8-0.3,1.1,0.1C40.8,39.6,39,40.2,39.4,39.7z M37.5,39.8c0,0-2,0.6-2.7,0.2
	C34.8,40,35.9,39.6,37.5,39.8z M32.2,40.2c0,0,0.7-0.2,0.9,0.4c0,0-2.5,0.2-2.9-0.2c0,0,0.8-1.2,1.3-0.6
	C31.5,39.8,31.4,40.3,32.2,40.2z M39.4,5.8c0,0,1.5-1.1,1.8,0.7C41.2,6.5,39.6,7.6,39.4,5.8z"/>
</svg>
