<?xml version="1.0" encoding="utf-8"?>
<!-- Generator: Adobe Illustrator 19.1.0, SVG Export Plug-In . SVG Version: 6.00 Build 0)  -->
<svg version="1.1" id="Layer_1" xmlns="http://www.w3.org/2000/svg" xmlns:xlink="http://www.w3.org/1999/xlink" x="0px" y="0px"
	 viewBox="0 0 48 48" style="enable-background:new 0 0 48 48;" xml:space="preserve">
<style type="text/css">
	.st0{fill:#808080;}
</style>
<path class="st0" d="M3.2,16.1C3.9,17,4.9,18.6,5,19.9c0,0.1,0,0.2,0,0.3c-0.1,0.9-0.6,7.7,11.5,11.6c0.1,0,0.1,0.1,0.1,0.2
	c-0.2,0.4-0.5,1.4-0.4,2.2c0,0.1,0,0.2-0.1,0.2c-0.9,0.3-4.8,1.8-6.7,2.7c-0.1,0.1-0.3,0-0.4-0.1c-0.2-0.2-0.5-0.4-0.7,0.2
	c-0.1,0.1-0.2,0.2-0.3,0.2c-0.3,0-1,0.1-2.1-0.2c0,0-1.5-0.5-1.7,0.8c0,0,0.6-0.6,0.9-0.5c0.1,0,0.1,0.1,0.1,0.1
	c0,0.2-0.1,0.6,0.4,0.5c0,0-0.1,0.2,0,0.2c0,0,0.5-0.3,0.8-0.3c0,0,0.1,0,0.1,0.1c0.1,0.1,0.3,0.4,0.6,0c0,0,0,0,0,0
	c0,0,0.3-0.2,0.5,0c0,0,0,0,0,0c0.1,0,0.4,0.2,0.5-0.1c0,0,0-0.1,0.1-0.1c0.1,0,0.1-0.1,0.2,0.1c0,0,0,0.1,0.1,0.1
	c0.3,0,1.2,0.2,2.2-0.2c0.1,0,0.1,0,0.2,0c0.2,0.1,1.1,0.4,3.5,0.3c0,0,0.5-0.4,0.1-0.6c0,0,0.5-0.7,1.4,0.5c0,0,0-1.5-1.9-1.1
	c0,0-2.4,0.4-1.9,0c0,0,4.4-1.7,4.9-1.7c0,0-0.4,0.5-0.2,0.8c0,0,0.3-0.8,0.8-0.8c0,0,0.2,0.1,0.1,0.5c0,0-0.4,0.6-0.1,0.9
	c0,0,0.3-0.9,0.7-0.8c0,0,0.2,0.6,0.6,0.1c0,0,0.4,0.1,0.8,0.3c0.2,0.1,0.4,0.2,0.6,0.2c0.5,0.1,1.6,0.2,3.4,0.1c0,0,1.3,0.3,1.2,0
	c0,0,0.2-0.4,0-0.6c0,0,0-0.5,0.9,0.7c0,0-0.1-1.5-1.3-1.2c0,0-0.5,0.1-0.6,0.2c0,0-0.9,0.1-0.8-0.1c0,0,1.6-2.4,3.1-3.7
	c0.3-0.3,0.8-0.4,1.2-0.4c1.4,0.1,5,0.2,6.8-0.1c0.4-0.1,0.8,0,1.1,0.2c1.9,0.9,7.9,3.6,9.5,4.8c0,0,0.4,0.2-0.4-0.5
	c0,0,1.5,1,1.5,0.6l-0.7-0.5c0,0,0.7,0.3,0.4,0l-1.4-1c0,0,0-0.2,0.4,0l1.7,0.8c0,0-0.5-0.5-1-0.8c-0.1,0,0-0.1,0.1-0.1
	c0.5,0.2,1.2,0.5,1.6,0.8c0,0,0.2-0.1-0.2-0.4c0,0,1.1,0.5,1.2,0.4c0,0-1.6-1.2-2.3-1.4c0,0,0.3-0.2,1.4,0.6c0,0,0.2,0.1,0.4,0.2
	c0,0,0.1,0,0-0.1l-1.3-0.9c0,0-8.2-4.4-10.9-5.5c0,0,0.3-0.3-0.5-0.8c-0.1-0.1-0.1-0.2,0-0.2l1.3-0.1c0.4,0,0.6-0.4,0.3-0.7
	c0-0.1-0.1-0.1-0.2-0.2c0,0-2.7-1.5-4-1.6c0,0-0.8-0.2-1-0.7c0-0.1,0-0.2,0-0.3c0.1-0.1-0.3-0.8-7-4.4c-0.4-0.2-1.1-0.7-1.5-1
	c-1.3-1.1-7-3.6-7-3.6c-0.9-0.4-1.7-1.1-2.2-2c-0.9-1.6-4.1-5.6-10.2-2.3c-0.4,0.2-0.8,0.5-1.1,0.9c-0.2,0.2-0.3,0.4-0.3,0.6
	c0,0-2.2,1.6-2.1,2.1c0,0,1,0.4,1.8,0.6C2.4,15.3,2.9,15.7,3.2,16.1z M6.8,13c-0.4,0-0.7-0.3-0.7-0.7c0-0.4,0.3-0.7,0.7-0.7
	c0.4,0,0.7,0.3,0.7,0.7C7.5,12.7,7.2,13,6.8,13z M21.3,35.6c0,0-0.5-1.1-0.6,0.2c0,0-1.5,0.3-2.6-0.8c0,0,1.2-0.8,1.2-1.7
	c0,0,2.4,0.1,5.3-1.1C24.5,32.2,22.4,35.2,21.3,35.6z"/>
</svg>
