<?xml version="1.0" encoding="utf-8"?>
<!-- Generator: Adobe Illustrator 19.1.0, SVG Export Plug-In . SVG Version: 6.00 Build 0)  -->
<svg version="1.1" id="Layer_1" xmlns="http://www.w3.org/2000/svg" xmlns:xlink="http://www.w3.org/1999/xlink" x="0px" y="0px"
	 viewBox="0 0 48 48" style="enable-background:new 0 0 48 48;" xml:space="preserve">
<style type="text/css">
	.st0{fill:#808080;}
</style>
<path class="st0" d="M47.2,45.2c0,0-0.7-0.6-0.2-0.6l0.6,0.4c0,0,0.5,0.1,0.1-0.3c0,0-10.6-5.7-14.4-8.8c-0.2-0.2-0.4-0.4-0.6-0.6
	l-5.2-6c-0.1-0.1,0-0.2,0.1-0.2c0.3,0.1,0.9,0.3,1.7,1c0,0,2.2,2,2.8,0.8c0-0.1,0.2-0.1,0.2,0c0.2,0.3,0.6,0.8,1.2,0.7
	c0,0,4.4,0.5,2.7-1.6c-0.1-0.1-0.1-0.2-0.1-0.2c0.1-0.3,0.3-1.1,1.1-0.6c0.1,0.1,0.3,0,0.3-0.1c0.5-1.2,2.7-6.1,6.9-5.5
	c0.2,0,0.3-0.1,0.3-0.2c0.1-0.5,0.4-1.7,1.6-2.3c0.1-0.1,0.1-0.3-0.1-0.3c-0.9,0-2-0.2-1.1-0.8c0,0,1.7-0.6,2.2-1.4
	c0.1-0.1,0-0.2-0.2-0.2c-0.7,0.3-2.7,1-3.5,1c-0.2,0-0.2-0.2-0.1-0.3c0.7-0.5,2.6-1.9,2.4-2.9c0-0.2-0.2-0.3-0.4-0.2
	c-0.9,0.5-4,2.1-5,2.4c-0.1,0-0.3-0.1-0.2-0.2c0.3-0.5,1-1.5,1.8-1.8c0,0,2.1-1.1,1.9-2c0-0.1-0.2-0.2-0.3-0.1l-7.2,4
	c-0.1,0.1-0.3-0.1-0.3-0.2c0.2-0.7,0.8-2.1,2.2-2.9c0,0,2.5-1.8,1.9-2.9c-0.1-0.1-0.2-0.1-0.3-0.1l-6.7,6.2c0,0-0.1,0-0.1-0.1
	c0-0.4,0-1.4-0.3-1.6c-0.1,0-0.1-0.1,0-0.2c0.3-0.6,1.5-2.7-0.6-2.4c-0.1,0-0.1-0.1-0.1-0.1c0.4-0.4,1.5-1.6,0.9-2.2
	c0,0-0.8-0.3-1.7,0.2c0,0-0.1,0,0,0c0.5-0.6,1.2-1.5,0.6-2.2c-0.2-0.2-0.4-0.3-0.7-0.3c-0.4,0-1,0.1-1.5,0.4c-0.1,0-0.1,0-0.1-0.1
	c0.6-0.9,1.7-2.7,0.3-2.7c-0.1,0-1.1-0.3-3.3,1.7c0,0-0.1,0-0.1,0c0.6-0.9,2-3.4,0.3-5c-0.1-0.1-0.2-0.1-0.3,0
	c-0.5,0.8-2.4,3.9-4.1,4.3c-0.1,0-0.2-0.1-0.1-0.2c0.9-0.9,3.4-4,0.9-5.5c-0.2-0.1-0.4,0-0.4,0.2c-0.3,1.1-1.2,4.3-2.9,5.3
	c-0.1,0.1-0.3,0-0.3-0.2c0-0.7-0.2-2-1.1-1.6c0,0-3.3,6.8-4.9,9.2c-0.2,0.4-0.7,0.5-1.1,0.3c-2.2-0.9-9.3-3.3-12,5.6
	c0,0-1.1,4.1-0.8,4.6c0,0,1.3-0.5,2.2-0.8c0.7-0.2,1.4-0.3,2.1,0c0.8,0.3,1.9,0.7,2.4,1.7c0,0,4.9,8.7,10.3,11.5
	c0.4,0.2,0.5,0.6,0.4,1c-0.4,0.9-1.2,2.3-1.9,2.1l-4.4-1c-0.1,0-0.2,0-0.3,0c-0.9-0.1-6.1-0.7-9.3-1.8c0,0-1.4-0.6-1.7,0.5
	c0,0,0.6-0.6,1.6-0.1c0,0-0.5,0.8,0.6,0.6c0,0,0.7,0,1,0.1c0.1,0,0.1,0.1,0,0.1c-0.2,0.2-0.8,0.7-0.7,1.3c0,0,0.5-1.1,1.5-0.9
	c0.1,0,0.1,0.1,0.1,0.1c-0.1,0.1-0.1,0.3,0,0.4c0,0,1.4,0.1,1.8-0.1c-0.1,0-0.7,0.4-0.4,1c0,0,0.3-0.8,1-0.7c0.1,0,0.1,0,0.1,0.1
	c0.1,0.1,0.2,0.2,0.1,0.5c0,0,0.2-0.1,0.3-0.2C7,41,7.1,41,7.2,41c0.1,0,0.3,0,0.3,0.2c0,0-0.2,0.2,0.8,0.1c0.1,0,0.3,0,0.4,0.1
	c0.4,0.3,1.7,1.3,2.5,2.5c0,0,0.7,1,0.8,0c0,0,1.2,0,1.3,1.3c0,0,0.5-1.4-1.3-1.9c0,0-1.6-1.1-2-1.7c-0.1-0.1,0-0.3,0.2-0.3
	c0.4,0,1.2,0,2,1.2c0,0,0.4,0.7,0.9,0.7c0.1,0,0.2,0,0.2,0.1c0.1,0.3,0.3,0.9,1.1,1c0.1,0,0.1,0,0.2-0.1c0.1-0.3,0.4-0.9,1.3,0.9
	c0,0,0-1.3-1-1.6c0,0-0.1,0-0.1,0c-0.3-0.2-1.6-0.9-2-1.3c0,0,0-0.1,0.1-0.1c0.5,0.1,2.1,0.3,3.4,1c0,0,0.6,0.2,1.4-0.1
	c0.1,0,0.2,0,0.3,0.1c0.2,0.2,0.5,0.4,1.2,0.1c0,0,1.9-1.2,2.8-0.7c0,0,5.5,2.6,11.2,1.3c0.1,0,0.2,0,0.3,0c1.1,0,7.7-0.1,10.9,0.8
	c0.1,0,0.3,0.1,0.4,0.1L48,46C48,46,48.2,45.8,47.2,45.2z M3.4,20.2c0,0-0.8-1.5,0.9-1.3C4.3,18.9,5,20.7,3.4,20.2z"/>
</svg>
