<?xml version="1.0" encoding="utf-8"?>
<!-- Generator: Adobe Illustrator 19.1.0, SVG Export Plug-In . SVG Version: 6.00 Build 0)  -->
<svg version="1.1" id="Layer_1" xmlns="http://www.w3.org/2000/svg" xmlns:xlink="http://www.w3.org/1999/xlink" x="0px" y="0px"
	 viewBox="0 0 48 48" style="enable-background:new 0 0 48 48;" xml:space="preserve">
<style type="text/css">
	.st0{fill:#808080;}
</style>
<path class="st0" d="M47.5,25.4c0,0-5.5-5.6-11.1-5.6c-0.1,0-0.2,0-0.3,0c-1-0.2-5.4-1-8.5-2.1c0,0-5.1-3.1-14.1,0.3
	c0,0-1.3,0.9-5.5,0c0,0-2.6-0.9-5,1.2c0,0-1.5,1.1-2.3,2.1c0,0-0.2,0.3-0.5,0.4c0,0-0.5,0.7,0.5,0.9c0.2,0,0.3,0.1,0.5,0.2
	C1.4,22.9,2,23,3,22.8l1.7-0.4c0,0,1.5-0.5,3.4,1c0,0,1.8,1,1.3,1.6c0,0-3.2,2.2-3.3,3.7c0,0-0.2,1.4,0.5,2c0,0-0.1-0.5,0.3-0.5
	c0,0,0.7-0.1,0.2-0.5c0,0-0.2-0.5,0.3-0.5c0,0,0.2-0.2-0.1-0.4c0,0,0-0.2,0.3-0.1c0,0,0.3-0.1,0.3-0.4c0,0,0.2-0.5,1.6-0.8
	c0,0,1.4-0.5,2.2-0.9c0.4-0.2,0.9-0.3,1.3-0.2c0.9,0.1,2.2,0.5,2.9,1.9c0,0,1,2.1,2.1,2.5c0,0,1.1,0.6,1.4,1.1
	c0.1,0.1,0.2,0.1,0.3,0.1c0.2-0.1,0.4-0.2,0.7-0.1c0,0,0.1-0.2-0.1-0.4c0,0,0.2-0.4-0.2-0.7c0,0,0.3-0.2,0.4-0.2c0,0,0.1,0.3,0.6,0
	c0.1-0.1,0.2-0.1,0.3-0.1c0.2,0,0.5,0,0.7-0.2c0.1-0.1,0.2-0.1,0.3-0.1c0.6-0.1,2.5-0.3,3.2-1.1c0.2-0.2,0.2-0.4,0.2-0.7
	c-0.1-0.5-0.2-1.8-0.1-2.5c0.1-0.3,0.4-0.5,0.7-0.5c0.4,0.1,1.2,0.3,1.9,0.6c0.1,0.1,0.3,0.1,0.5,0.2c0.8,0.2,3.1,0.8,4.4,0.7
	c0,0,1.4,0.1,2,0.9c0,0,0,0,0,0l2.5,2.7c0.1,0.1,0.3,0.1,0.3,0c0.1-0.2,0.2-0.6,0-1c0,0-2.5-3.6-3.6-4.4c-1.1-0.8-4.1-1.2-3.7-2.9
	c0-0.1,0.2-0.2,0.3-0.1c0.8,0.4,4,1.7,6,1.6c0.2,0,0.4,0,0.6,0c1.2,0.1,5,0.7,6.2,1.8c0,0,3.1,2.6,4,2
	C47.8,27.3,48.4,26.4,47.5,25.4z M2.5,20.8c0,0,0.3-0.7,0.7-0.2C3.2,20.6,2.9,21.3,2.5,20.8z M20.7,28.9c-0.7,0.1-1.5,1-1.5,1
	c-0.2-0.6-1-0.7-1-0.7c0.1-0.5-1.2-3.3-1.2-3.3c-0.7-1.1,3.2-1.2,3.2-1.2c1.5-0.2,3,3.1,3,3.1C24,28.6,20.7,28.9,20.7,28.9z"/>
</svg>
