<?xml version="1.0" encoding="utf-8"?>
<!-- Generator: Adobe Illustrator 19.1.0, SVG Export Plug-In . SVG Version: 6.00 Build 0)  -->
<svg version="1.1" id="Layer_1" xmlns="http://www.w3.org/2000/svg" xmlns:xlink="http://www.w3.org/1999/xlink" x="0px" y="0px"
	 viewBox="0 0 48 48" style="enable-background:new 0 0 48 48;" xml:space="preserve">
<style type="text/css">
	.st0{fill:#808080;}
</style>
<path class="st0" d="M47.3,22.7c0,0,0.2-7.7-4.3-8.4c0,0-5.2-3-9.2-1.3c-0.3,0.1-0.7,0.3-1,0.4c-1.9,0.6-7,2.1-9.3,0.3
	c-0.3-0.3-0.7-0.5-1.1-0.7C19.4,11.4,8.7,5.2,7.1,4.9c0,0-0.5-2-1.2-1.9c0,0,0.1,0.6-0.1,0.9c0,0-0.2,0.5,0,0.7c0,0-0.8,0-1,0.2
	c0,0-1.2-0.9-1.2-1.7c0,0-0.8,0.8,0,2.2c0.1,0.1,0.1,0.2,0,0.3C3.3,6,2.7,7,2.4,7.5C2.2,7.7,2.1,8,2.1,8.2c0,0.2,0,0.5,0,0.7
	c0,0.1,0,0.2,0,0.2L1.8,9.8c0,0.1-0.1,0.2-0.2,0.2C1.3,10.2,0.7,10.6,1,11c0,0-1.6,2.5-0.9,3.3c0,0-0.4,1.8,2.4,1.5
	c0,0,1.5,0.1,1.5-1.2c0,0,0.9-0.3,1.4-1.3c0,0,1,0.2,1.3-0.3c0,0,0.9-0.3,1.4,0.8l2.3,3.9c0.6,1.1,1,2.2,1.2,3.4
	c0.1,0.7,0.2,1.3,0.4,1.5c0,0-0.7,1.6,1.2,3.7c0.5,0.5,0.9,1.2,1.1,1.9c0.2,0.7,0.6,1.8,1.2,3.3c0,0,2.3,9.3,0.4,11.3
	c0,0-0.9,1.3-1.1,1.5c0,0-0.2,0.4,0.4,0.3c0,0,2.1,0.5,2.5-0.6c0,0,0.4-0.4-0.2-0.9c0,0,0-0.6,1.2-1.5c0,0,0.2-0.8,0-1.4
	c0,0-0.9-4.3-0.2-5.6c0,0,1.7,3.9,1.7,6.5c0,0,0,0.8-1.5,2.5c0,0-0.3,0.4,0.3,0.4c0,0,2.8,0.3,2.6-0.9c0,0-0.1-0.4-0.4-0.6
	c0,0,0.1-1.3,0.9-1.6c0,0,0.1-0.7-0.1-1.3c0,0-1.6-3.9-1.3-5.1c0,0-0.3-3.9-0.5-5.8c-0.1-0.5,0.3-0.9,0.8-0.9
	c2.4,0,8.6-0.3,11.8-2.4c0,0,2.1-1.4,2.2-0.5c0,0,0,2.1,1.3,0.1c0,0,1.7,0.3,2.3,3.6c0,0,2.1,5.4,1.9,7.1c0,0-0.2,5.8-2.2,6.8
	c0,0-1.3,1.9-0.9,1.7c0,0,4,0.6,2.7-1.3c0,0,0.3-0.8,1.1-0.8c0,0,0.5-0.1,0.5-1c0,0,0.8-6.7,1.5-7.7c0,0,1.4,1,1.8,6.7
	c0,0,0.4,1.6-0.6,3c0,0-1.5,1.6-0.7,1.6c0,0,3.6,0.6,2.7-0.9c0,0-0.7-1.3,0.7-2.2c0,0,0.2-0.3,0-1.3l-0.7-4.9c0,0,1.1,0.5,1.5-0.3
	C47.6,35.4,48.7,34.2,47.3,22.7z M4.5,8.6c0,0,0.2-1.2,1.2-0.3C5.7,8.3,5.2,8.9,4.5,8.6z"/>
</svg>
