<?xml version="1.0" encoding="utf-8"?>
<!-- Generator: Adobe Illustrator 19.1.0, SVG Export Plug-In . SVG Version: 6.00 Build 0)  -->
<svg version="1.1" id="Layer_1" xmlns="http://www.w3.org/2000/svg" xmlns:xlink="http://www.w3.org/1999/xlink" x="0px" y="0px"
	 viewBox="0 0 48 48" style="enable-background:new 0 0 48 48;" xml:space="preserve">
<style type="text/css">
	.st0{fill:#808080;}
</style>
<path class="st0" d="M47.9,13.7c0,0-0.5-7.5-8.1-5.2c-7.5,2.2-5.1,1.5-8.3,1.9c0,0-11-0.7-10.4,7.9c0,0,1.6,6.3,0.6,7.7
	c0,0-2.9,5.3-8.2,1.3c0,0-1.5-1.4,0.8-5.6c0,0,3.5-6.4-2.5-10.6c0,0-5.3-3.3-9.5,2.6c0,0-3.2,3.5-2.1,10.9c0,0.3,0.1,0.5,0.1,0.8
	c0.1,1.9,1,10.9,8,9.2c0.2-0.1,0.4-0.1,0.6-0.2c0.5-0.2,1.5-0.6,2.1-1c0.3-0.2,0.7-0.3,1.1-0.4c1-0.2,2.8-0.4,3.8,0
	c0.3,0.1,0.6,0.5,0.7,0.8c0.1,0.5,0.2,1.4-0.1,2.2c0,0-0.9,2.1,0.7,3.4c0,0,2,1.6,3.9-0.4c0,0,0.6-0.7,0.7-1.6
	c0-0.1,0.1-0.2,0.1-0.3c0.2-0.2,0.5-0.4,1-0.1c0,0,1.6,1.1,2.5,1.1c0,0,0,0.5,0.8,0.2c0,0,1,0.8,1.6,0.2c0,0,0.7-0.9-0.8-1.8
	c0,0,0-0.7-0.6-0.6c0,0-1.4-1.9-3.4-1.5c0,0-2.1-0.2-3.1,2c0,0-0.8,1.6-1.5,1.2c-0.1-0.1-0.2-0.2-0.3-0.3c-0.1-0.3-0.3-1,0.2-1.9
	c0,0,1.1-3-1.5-4.2c0,0,6.4,0.5,7.8-6c0,0,0.8-2.9-0.8-7.6c0,0-0.7-5.2,8.5-5.2c0,0,1.2,0.3,6.7-1.6c0,0,0.1,0,0.1,0
	c0.5-0.1,5.2-1.3,6.1,1.2c0,0,1.3,3.7-1.1,5.8c0,0,0,0,0,0c-0.1,0.1-2.2,2.1-6,0.4c0,0-2.2-0.8-3.1-1c0,0,1.3-0.5,1.6-1.6
	c0,0,0.6-1.8-0.7-2.7c0,0-1.7-1.3-3.1,0.3c0,0-0.9,2,0.8,2.5c0,0,1.2,0.4,1.8-0.7c0,0,0.7-2.6-2.2-1.7c0,0,0.9-1.1,2.3-0.2
	c0,0,2.6,2.4-1.4,3.7c0,0-3,0.4-4.5,2.2c0,0-3.3,2.4-2.7,6.4c0,0,0.2,8,5.2,9.9c0,0,4.2,2.4,6.8-2.3c0,0,1.7-4.2-3.5-6.3
	c0,0-5.4-3-3.6-6.3c0,0,0.5-2.6,4.9-0.8c0,0,5.3,2.5,8.4-0.6c0.1-0.1,0.1-0.1,0.2-0.2C46.3,19,48.5,17.1,47.9,13.7z M8.6,31.9
	c0,0-3.3,1.3-4.7-1.8c-0.2-0.4-0.3-0.9-0.4-1.4c-0.3-1.8-1.2-9,0.3-11.6c0,0,2.9-5.9,6.6-3.8c0,0,3.3,2,2.1,5.4c0,0-3,4.9-2.4,7
	c0,0-0.1,4,4.5,5.4C14.5,31,10.9,30.8,8.6,31.9z M35.6,14.2c0,0,0.5,1.6-1,1.6c0,0-1.2,0.1-1.4-1c0,0-0.2-0.7,0.2-1.1
	C33.4,13.8,35.1,13.3,35.6,14.2z M37.3,29.6c3,4.2-1.6,5.5-1.6,5.5c-5.4,1.2-6.9-5.6-6.9-5.6C25.9,22.3,31,19.4,31,19.4
	c-1.8,2.5,0.6,6.2,0.6,6.2C33.1,27.3,37.3,29.6,37.3,29.6z"/>
</svg>
