<?xml version="1.0" encoding="utf-8"?>
<!-- Generator: Adobe Illustrator 19.1.0, SVG Export Plug-In . SVG Version: 6.00 Build 0)  -->
<svg version="1.1" id="Layer_1" xmlns="http://www.w3.org/2000/svg" xmlns:xlink="http://www.w3.org/1999/xlink" x="0px" y="0px"
	 viewBox="0 0 48 48" style="enable-background:new 0 0 48 48;" xml:space="preserve">
<style type="text/css">
	.st0{fill:#808080;}
</style>
<path class="st0" d="M47.6,7.9c0,0-3.2-0.8-6.2,2.5c0,0-1.9,4.1-2.1,5.2c0,0,0.1,0.8-2,1.5c-1.1,0.4-2.3,0.5-3.5,0.4
	c-3.5-0.3-13.9-1-22.2,2.4c-0.9,0.4-1.7,1-2.2,1.8c-0.7,1.1-1.1,2.7,0.5,4.6c0,0,2.4,2.4,7.7,2.6c0,0,12,2,11.8,2.9
	c0,0-4.1,1.9-11.8-0.9c-0.7-0.3-1.4-0.6-2-1c-1.2-0.8-4.1-2.3-9.3-2c0,0-7.4-0.4-6.2,4.9c0,0-0.1,2.7,7.8,4.8c0,0,3,0.7-0.2,1.3
	l-4.1,0.3c0,0,0.2,1.1,4.6,1c0,0,5-0.2,3.2-3c0,0-0.3-1-5.7-3.5c0,0-2.7-1.3-1.8-1.5c0,0,4.2-0.8,7.7,0.8c0,0,5.2,3.7,13.2,3.9
	c0,0,6.3,0.5,8.9-2.8c0,0,2.8-3.6-1.9-6.7c-0.2-0.1-0.3-0.2-0.4-0.3c-0.5-0.4-2.3-1.5-8.8-2.5l-6-0.8c-0.3,0-0.3-0.4-0.1-0.5
	c1.4-0.6,4.6-1.6,9.3-1.6c6.4,0,10.2-0.2,10.2-0.2s3.4-0.1,5.2-3c0,0,1.6-1.7,2-4.5c0,0,0.3-1.9,2.5-3.3C46,10.6,49.1,8.5,47.6,7.9z
	 M45.3,9.6c-0.2,0-0.4-0.1-0.4-0.3c0-0.2,0.2-0.3,0.4-0.3c0.2,0,0.4,0.1,0.4,0.3C45.8,9.5,45.6,9.6,45.3,9.6z"/>
</svg>
