<?xml version="1.0" encoding="utf-8"?>
<!-- Generator: Adobe Illustrator 19.1.0, SVG Export Plug-In . SVG Version: 6.00 Build 0)  -->
<svg version="1.1" id="Layer_1" xmlns="http://www.w3.org/2000/svg" xmlns:xlink="http://www.w3.org/1999/xlink" x="0px" y="0px"
	 viewBox="0 0 48 48" style="enable-background:new 0 0 48 48;" xml:space="preserve">
<style type="text/css">
	.st0{fill:#808080;}
</style>
<path class="st0" d="M47.6,15.9c-1.9,0-8.3,1.3-25.6,14.1c0,0-0.2-0.4,0.1-0.6l1.2-0.8c0,0,1.5-1.2,1.6-1.3c0.1-0.1,0.9-1,1-1.1
	c0.1-0.1,0.4-0.7,0.4-1.1c0,0,0.2-0.9-0.3-0.6c0,0,0.2,0.8,0,1.1c-0.2,0.3-0.2,0.8-0.9,1.4c-0.7,0.7-0.8,0.7-0.8,0.7l-2.2,1.7l0-0.2
	c0,0-0.6,0.6-0.5,0c0,0-0.1-0.3-0.3-0.1c0,0,0-0.3-0.2-0.4l0.3-1.8l0.5-1.8c0,0,0.4-1.3,1-1.7c0,0,0.7-0.4,1-0.4
	c0,0,0.2-0.5-0.3-0.3c0,0-1.1,0.7-1.2,1s-0.6,1.2-0.7,1.8c-0.1,0.6-0.3,0.9-0.4,1.7c-0.1,0.8-0.3,1.4-0.3,1.4s0,0.4-0.3,0.4
	c0,0-0.5,0-0.6,0.1c0,0,4.3-16.9-1.9-24.5c-0.4-0.4-1-0.4-1.4,0c-0.8,0.8-2.2,2.3-3.2,4.4c-0.2,0.5-0.6,0.9-0.9,1.3
	c-1,1-3.1,3.1-3.6,4.2c0,0-1.4,1.6,3,5.6c0,0-9.2-5.7-11.6,4.4c0,0-2.4,10.1,3.3,13c0.7,0.3,1.4,0.4,2.1,0.2l8.6-2.5
	c0.3-0.1,0.4,0.2,0.3,0.4c-0.1,0.1-0.2,0.2-0.4,0.3c0,0-0.1,0-0.1,0c-0.4,0.2-3.1,1.9-3.4,3.4c0,0,0.3,1.1,1.3,0.2
	c0,0,2.5-2.7,3.7-3.7c0.1-0.1,0.3,0,0.2,0.2c-0.7,1.2-2.2,4.1-3,4.9c0,0-1.9,2.4,0,3c0.3,0.1,0.6,0.1,0.9,0c1.1-0.2,5-1,7.9-3.3
	c0,0,12.8-9.1,8.5-10.7c0,0,3.8,0,5.6-1.9c1.5-1.7,9.9-9.3,11.9-11.4C48.1,16.2,48,15.9,47.6,15.9z"/>
</svg>
