<?xml version="1.0" encoding="utf-8"?>
<!-- Generator: Adobe Illustrator 19.1.0, SVG Export Plug-In . SVG Version: 6.00 Build 0)  -->
<svg version="1.1" id="Layer_1" xmlns="http://www.w3.org/2000/svg" xmlns:xlink="http://www.w3.org/1999/xlink" x="0px" y="0px"
	 viewBox="0 0 48 48" style="enable-background:new 0 0 48 48;" xml:space="preserve">
<style type="text/css">
	.st0{fill:#808080;}
</style>
<path class="st0" d="M45.6,6.9c0,0-0.3-1-1.1-1.3c-0.1-0.1-0.3-0.2-0.4-0.3l-0.7-0.6c-0.5-0.4-0.9-0.9-1.1-1.5
	c-0.2-0.4-0.4-0.8-0.8-0.7c0,0-0.5,0.3-0.7-0.3c0,0-0.3-0.9-0.4-1.3c0,0-0.2-1.1-1-0.8c0,0-0.6,0.1-0.5,0.4c0,0,0.8,0.9,0.1,1.9
	c-0.1,0.2-0.3,0.3-0.6,0.3c-0.2,0-0.6,0-0.8,0.2c-0.2,0.3-0.5,0.5-0.9,0.7c-0.3,0.2-0.6,0.4-0.7,0.6c0,0-6,7.3-11.1,9.3
	c-0.8,0.3-1.5,0.8-2.2,1.3c-1.2,1.1-3.5,2.7-7,3.1c0,0-2.6,0.3-4.7,1.9c-1.5,1.2-2.3,3-2.2,4.9c0.1,1.6,0.2,4.6-0.5,5.5
	c0,0-0.4,1-1.7,2.4c-0.3,0.3-0.5,0.7-0.5,1.1C5.9,35.4,5,40.7,3.7,43c0,0-0.6,1.4-0.3,1.9c0,0,0.1,0.9-0.8,1.3c0,0-0.7,0.4,0.1,0.8
	c0,0,2.5,1.3,2.3,0.8c0,0-1-2-0.2-3.1c0,0,0.5-0.9,0.5-1.7s1.7-5.5,2.1-6.3c0.3-0.6,2.9-4.2,3.8-5.4c0.1-0.1,0.3,0,0.3,0.1
	c0,0.7-0.1,2.1-0.4,3c-0.2,0.5-0.1,1.1,0.2,1.6c0.1,0.1,0.1,0.2,0.2,0.2l1.9,3.6c0.1,0.2,0.2,0.3,0.2,0.5l1.7,4.9c0,0,0,0.3,0.6,0.4
	c0,0,0.6,0.5,0.4,0.7c0,0-0.7,0.8,0.1,0.9c0,0,1.6,0.1,1.8,0c0,0,0.2,0.2,0.9,0.3c0,0,2.3,0.1,2-0.2c0,0-0.8-0.9-0.8-1.3
	c0,0-0.2-0.5-0.3-0.8c0,0-0.3-4.2,1.2-7.8c0,0,0.8-0.8,0.8-1.9c0,0,1.4-5.3,2.6-6.7c0.2-0.2,0.5-0.2,0.6,0.1
	c0.8,2.2,4.1,11.9,4,15.7c0,0-0.1,0.4,0.5,0.8c0,0,0.6,1,0.3,1.3c0,0-0.6,0.6-0.2,0.9c0,0,0.2,0.3,1.6,0.2c0,0,1.6,0.2,1.3-0.3
	c0,0-1-1-1-1.1c0,0-0.2-0.6-0.5-1c0,0,0-1-0.5-2.2c0,0-1.4-4.2-0.9-6.6c0,0-0.1-1.1-0.4-2c0,0-2.5-5-0.1-11.1
	c0.1-0.3,0.2-0.7,0.1-1.1c-0.1-0.4-0.3-1-0.5-1.5c-0.2-0.3-0.1-0.7,0.1-0.9c1.6-1.7,7.1-7.9,8.8-12.1c0.2-0.4,0.5-0.8,0.8-1.1
	c0.4-0.4,1.1-0.6,1.8-0.4c0,0,0.4,0.5,3,0.6c0.2,0,0.4,0.1,0.5,0.1c0.3,0.2,1,0.4,1.5-0.1C45.3,7.3,45.8,7.5,45.6,6.9z M20.2,34.3
	L18.5,43c-0.1,0.3-0.1,0.6-0.3,0.9c-0.2,0.6-0.1,0.8-0.1,0.8c1,1.2,0.1,2,0.1,2c-6.5-8.5-3.7-16.3-2.7-18.4c0.1-0.3,0.5-0.4,0.7-0.3
	c1.3,0.7,3.8,0.1,4.9-0.2c0.2-0.1,0.5,0.1,0.4,0.4L20.2,34.3z M41,4.5c0,0-0.5,0-0.5-0.3c0,0,0.4,0,0.7-0.1c0,0,0.3-0.1,0.3,0.1
	C41.5,4.2,41.4,4.5,41,4.5z"/>
</svg>
