<?xml version="1.0" encoding="utf-8"?>
<!-- Generator: Adobe Illustrator 19.1.0, SVG Export Plug-In . SVG Version: 6.00 Build 0)  -->
<svg version="1.1" id="Layer_1" xmlns="http://www.w3.org/2000/svg" xmlns:xlink="http://www.w3.org/1999/xlink" x="0px" y="0px"
	 viewBox="0 0 48 48" style="enable-background:new 0 0 48 48;" xml:space="preserve">
<style type="text/css">
	.st0{fill:#808080;}
</style>
<path class="st0" d="M10.4,16.8c-0.5-0.2-0.7-0.8-0.6-1.3c0.1-0.4,0.2-0.9,0.4-1.2c0,0,1.7-4.5,1-4.8c0,0-0.1-0.7-2.9,1.7
	c-0.4,0.3-0.8,0.5-1.3,0.5c-0.7,0-1.9,0-2.9-0.5c-0.4-0.2-0.7-0.5-0.8-0.8C2.9,9,1.7,6.3,0.8,7.6c0,0-0.5,0.4-0.5,2.5
	c0,0.5,0,1-0.1,1.4c0,0.2-0.1,0.6-0.1,1c-0.1,1.5,0,2.9,0.3,4.4c0.5,2,1.3,5.5,1.7,7.8c0.1,0.5,0.1,0.9,0.1,1.4
	c0,0.4,0.1,1.1,0.9,1.4c0,0,4.1,2.6,4,3.6c0,0-0.1,4.6-3.1,8c0,0-1.5-0.2-1.8,0.4c0,0-1.5,1.6,0,1.7c0,0,3.4,0.2,3.8-0.2l5.5-7.3
	c0.2-0.3,0.6-0.3,0.8,0c0.6,0.8,1.7,2.4,1.6,4.5c0,0.2-0.2,0.5-0.4,0.5c-0.5,0.1-1.4,0.4-1.5,1.4c0,0-0.1,1,2.1,0.8
	c0,0,2.2,0.3,2-1.2c0,0,0.5-0.3,0.4-1.7l-0.7-4.3c-0.1-0.3,0.2-0.6,0.5-0.6c2,0.1,8.6,0.4,10.7,0.9c0.3,0.1,0.5,0.2,0.8,0.4
	c0.5,0.4,1.8,1.4,3,1.7c0,0,0.7,0.4-0.1,0.9c-0.8,0.5-2.8,2-3.4,1.7c0,0-1.4-0.7-1.6,0.2c0,0-1.2,1.5,0.1,1.6c0,0,2.8,0.6,4.5-0.4
	c0,0,4.2-2.3,5.1-3.7c0.2-0.3,0.6-0.6,1-0.6c1.6-0.1,4.9-0.2,4.9,0.3c0,0,0.1,2.6-1,2.6c0,0-1.3-0.2-1.3,0.7c0,0-0.5,1.7,0.8,1.6
	c0,0,2.6,0.3,2.7-0.5c0,0,0.8,0.3,1-1.8c0,0,2.3-6.4-0.1-6.6c0,0-5.2-1.3-5-3c0,0-0.2-2.3,0-3.7c0.1-0.6,0.5-1,1-1.1
	c1.9-0.4,7.7-2.1,8.5-6.9c0,0,2-7.1-5-10.6c-0.3-0.1-0.6,0.1-0.4,0.4c0.2,0.5,0.7,1.3,2,2.7c0.4,0.4,0.6,0.9,0.8,1.4
	c0.8,2.2,2,7.7-5.4,9.7c-1.3,0.3-2.6,0.3-3.9-0.2c-1.8-0.6-5.1-1.5-8.4-0.8c-0.6,0.1-1.2,0.2-1.8,0.2c-2.3,0-7.6,0.1-10.6-0.3
	c-1-0.1-2-0.6-2.7-1.4C11.8,17.8,11,17.1,10.4,16.8z M2.5,14.7c0,0-1.6,0.4-1.3-1.1C1.3,13.6,2.9,12.7,2.5,14.7z M4.5,15.1
	c0,0,1-1.8,2.1-0.5C6.6,14.6,6,16.3,4.5,15.1z"/>
</svg>
