<?xml version="1.0" encoding="utf-8"?>
<!-- Generator: Adobe Illustrator 19.1.0, SVG Export Plug-In . SVG Version: 6.00 Build 0)  -->
<svg version="1.1" id="Layer_1" xmlns="http://www.w3.org/2000/svg" xmlns:xlink="http://www.w3.org/1999/xlink" x="0px" y="0px"
	 viewBox="0 0 48 48" style="enable-background:new 0 0 48 48;" xml:space="preserve">
<style type="text/css">
	.st0{fill:#808080;}
</style>
<path class="st0" d="M47.3,31.7c0,0-0.3-1.6-0.7-2.1c0,0-0.3-0.7,0.3-0.8c0,0,1.4-0.4,1.1-1.6c0,0-0.3-0.7-0.9-0.2
	c0,0-0.7,1-0.9,0.7c0,0-0.3-9.6-3-12.9c0,0,0.1-4.9-12.9-4.1c0,0-4.5,0-9,1.3c-1,0.3-2.1,0.4-3.1,0.2c-1.6-0.2-3.9-0.3-4.5,0.2
	c0,0-8.2,3.7-8.7,4.2c0,0-0.7-0.3-1.2,0.3c-0.2,0.2-0.4,0.4-0.7,0.6c-0.3,0.3-0.7,0.6-0.7,0.7c0,0-0.7-0.3-1.1-0.1
	c0,0-0.7-0.4-0.8-0.5c0,0.1,0.1,0.4,0.3,0.8c0.2,0.8,0.2,1.6-0.1,2.3l-0.3,0.9c0,0-0.2,0.9,0.2,1.6c0,0,0.3,1.2-0.3,2.2
	c0,0-0.5,1.3,0.3,1.7c0,0,1,0.8,1.9,0.6c0,0,2.4-0.1,2.1,0.3c0,0-0.6,0.9,0.7,0.8c0,0,1.8-0.5,1.7-1.9c0,0,0.4-0.9,2.3-1.2
	c0.2,0,0.4,0.2,0.3,0.3C9,27.7,6.6,34.6,4,34.8c0,0-0.3-0.1-0.5,0.1c0,0-0.8-0.2-1.2,0.3c0,0-1.2,0.3-1,0.9c0,0-0.2,0.6,1.1,0.6
	c0,0,0.8,0.3,1.5,0.1c0,0,1.4,0.3,2.1-0.1c0,0,0.5-0.2,0.9-0.3c0.3-0.1,0.5-0.2,0.6-0.4c0.1-0.2,0.3-0.3,0.7-0.2
	c0,0,0.4,0.1,0.6-0.4c0.1-0.1,0.2-0.2,0.3-0.3c1-1.1,6.1-6.2,8.2-7.2c0.3-0.2,0.7-0.1,0.9,0.2c1.2,1.1,5,5.2,3.8,7.3
	c0,0-1,0.2-1.1,0.6c0,0-0.9,0.1-0.5,1c0,0,0.1,0.2,1.2,0.3c0,0,0.5,0.1,0.9,0.3c0,0,0.9,0.5,1,0c0,0,1,0.2,1-0.9c0,0,1,0,0.5-0.8
	c-0.1-0.2-0.2-0.4-0.2-0.7L23.7,28c0-0.2,0.1-0.3,0.2-0.4c0.5-0.3,1.9-1,3.6-0.2c0,0,3.8,1.7,9.1-0.4c0.2-0.1,0.5-0.1,0.7,0.1
	c0.9,0.6,3.4,2.3,4.3,3.9c0.2,0.5,0.3,1,0.1,1.5c-0.3,0.8-0.9,2.2-1.7,1.9c-0.1,0-0.1,0-0.2,0c-0.1,0-0.4,0.1-0.6,0.3
	c0,0-1.1,0.5-0.4,1.2c0,0,0.2,0.6,0.8,0.5c0.1,0,0.2,0,0.3,0.1c0.1,0,0.1,0.1,0.2,0c0.1,0,0.2-0.1,0.3,0c0.2,0.1,0.6,0.2,0.8,0.1
	c0.1,0,0.1,0,0.1,0.1c0,0.1,0.1,0.1,0.2,0c0.1,0,0.2,0,0.3,0.1c0.1,0.2,0.4,0.4,0.8-0.1l2.1-4.9c0-0.1,0.2-0.1,0.3,0
	c0.2,0.5,0.8,1.7,0.8,2.8c0,0,0,1.1,1.2,0.8c0,0,0.3-0.2,0.6-0.1c0,0,0.2-1.3,0-1.7C47.5,33.3,48.2,32.4,47.3,31.7z M2.2,22.4
	c0,0,0.1-0.5,0.7-0.3C2.8,22.2,2.9,22.9,2.2,22.4z M42.7,24.5c0,0-0.2-4.7,0.4-3.5l0.8,4.1C43.9,25.1,42.9,25,42.7,24.5z"/>
</svg>
