<?xml version="1.0" encoding="utf-8"?>
<!-- Generator: Adobe Illustrator 19.1.0, SVG Export Plug-In . SVG Version: 6.00 Build 0)  -->
<svg version="1.1" id="Layer_1" xmlns="http://www.w3.org/2000/svg" xmlns:xlink="http://www.w3.org/1999/xlink" x="0px" y="0px"
	 viewBox="0 0 48 48" style="enable-background:new 0 0 48 48;" xml:space="preserve">
<style type="text/css">
	.st0{fill:#808080;}
</style>
<path class="st0" d="M47.5,23.8c-1.8-1.7-8.1-6.4-22.6-1.5c0,0,0.8-0.8-0.2-1.1c0,0,0-0.4,0.2-0.5c0.3-0.1,1.3-0.9,3.3,0
	c0,0,1.3,0.4,1.4-0.4c0,0-0.4-0.8-0.8,0c0,0,0,0.3-0.6,0.1c0,0-2.2-1-3.6,0.1c0,0-0.4,0-0.4-0.5c0,0,0.3-2-1.1-2.7c0,0-1-0.4-1-1.2
	c0,0-0.2-1.5-0.7-0.9c0,0-3.6-13.3-10.2-14.2c-0.4-0.1-0.9,0.1-1.2,0.4c-0.5,0.5-1,1.4-1,3.2c0,0-0.8,5.6-1.6,8.2
	c-0.3,0.9-0.3,1.9,0,2.8c0.3,1,1.1,2.2,2.6,3.1c0,0-2.9-0.1-3.4,2.1c0,0,0,0.3-0.3,0.4c-0.3,0.1-0.7,0.3-0.9,0.6
	c-0.5,0.6-1.2,1.5-1.1,1.6c0,0,1.6,1.2-0.2,2.4c0,0-0.8,0.4-0.1,1.6c0,0,0.8,1.6-1.9,2.3c0,0-2.9,0.6-2.4,1.7c0,0,0.1,0.9,1.4,0.1
	c0,0,3.8-2.5,5.2,1.8c0,0,0.2,1,1.1,0.2c0,0,0.4-0.3,1,0.1C9,33.8,9.3,34,9.7,34c0.5,0.1,1.3-0.1,1.8-1c0.1-0.1,0.2-0.3,0.3-0.4
	c0.8-0.9,3.8-4.6,6.4-5c0.1,0,0.1,0.1,0.1,0.2c-0.3,0.6-1.3,2.8-1,3.7c0,0.2,0.2,0.3,0.3,0.3c0.3,0.1,0.8,0,1.5-1c0,0,1.9-2.8,2-2.6
	c0,0-0.1,6.3-1.1,8c-0.2,0.3-0.3,0.7-0.3,1c-0.1,1.5,0,4.7,3.4,5.3c0.5,0.1,0.9,0.3,1.2,0.7c0.4,0.5,0.8,1.5,1,3.1
	c0,0,0.1,0.6,0.5,0.7c0.2,0,0.4-0.1,0.4-0.3c0-0.5,0-1.7-0.2-2.3c-0.1-0.2-0.1-0.5,0-0.7c0.1-0.5,0.3-1.1,0.9-1.6
	c0,0,1.1-0.6,1.6-1.2c0.2-0.3,0.5-0.5,0.9-0.7c0.5-0.3,1.1-0.5,1.6-0.6c0,0,0.5,0,0.5-1.3c0,0-0.1-1.4,1.2-2.2
	c0.3-0.2,0.4-0.4,0.4-0.8c-0.1-0.7-0.3-1.9-0.7-2.6c0,0,0.7,0.6,0.3-0.2c0,0,0.6,0.2,1.4,0.7c0,0,1.8,1.3,3.4,0.2s5-4.7,9.4-6.7
	c0,0,0.7-0.1,1-0.9C48.1,25.1,48,24.3,47.5,23.8z M23.9,20.2c-0.3-0.1-1.4,0.6-1.4,0.6l-0.8-4.2l0-0.1c0,0,0.7,0.4,1.6,1.2
	C24.3,18.6,23.9,20.2,23.9,20.2z"/>
</svg>
