<?xml version="1.0" encoding="utf-8"?>
<!-- Generator: Adobe Illustrator 19.1.0, SVG Export Plug-In . SVG Version: 6.00 Build 0)  -->
<svg version="1.1" id="Layer_1" xmlns="http://www.w3.org/2000/svg" xmlns:xlink="http://www.w3.org/1999/xlink" x="0px" y="0px"
	 viewBox="0 0 48 48" style="enable-background:new 0 0 48 48;" xml:space="preserve">
<style type="text/css">
	.st0{fill:#808080;}
</style>
<path class="st0" d="M2.3,14.5c0,0,0,2.2,0.8,3.4c0,0-0.2,2.1,0.9,3.5c0,0-0.6,4.2,5.2,3.3c0,0-5.3,1.7-3.7,4.9c0,0-0.3,1.8,0.9,2.9
	c0,0-0.4,1.4,0.8,2.1c0,0,0.2,2.4,1.7,2.8c0,0,0.5,2.9,2.6,2.3c0,0,2,2,3.2,0c0,0,6.3-4.1,8.2-9.4c0,0,0.1,1.3,0.6,1.4
	c0,0,0.1-0.3,0.4-0.2c0,0,0.2-1.7,0.5-1.4c0,0-0.2,2.1,0.6,2.6c0,0,1,0.3,1.1,1.9c0,0,1,4.7,5.8,6.8c0.1,0.1,0.3,0.1,0.4,0
	c0.1,0,0.2-0.1,0.3-0.2c0.1-0.1,0.3-0.3,0.5-0.3c0.4-0.2,1.2-0.4,1.8-0.2c0,0,0.5,0.2,1-0.9c0.1-0.2,0.2-0.3,0.3-0.4
	c0.3-0.3,0.7-0.7,1.2-0.9c0.3-0.1,0.6-0.4,0.7-0.7c0.1-0.1,0.1-0.3,0.1-0.4c0.1-0.3,0.2-0.6,0.3-0.8c0.2-0.3,0.4-0.6,0.7-0.8
	c0.2-0.2,0.4-0.4,0.5-0.6l1.1-2.3c0,0,2.3-4.3-2.6-6.6c0,0,3.1,0.4,3.4-0.4c0,0,3.2-6.3,3.5-8.5c0,0,0.9-3.3,2.2-5c0,0,1-1.6,0.9-3
	c-0.1-0.7-0.6-1.2-1.2-1.3c-2.9-0.3-12.6-0.1-22.4,15.1c0,0-0.2,0-0.4-0.1l0-0.3l0.6-1l0.8-1.3l0.8-1.5l0.8-1.4
	c0.1-0.1,0.7-0.8,0.7-0.8c0-0.3-0.7,0.7-0.7,0.7L26,18.8l-0.9,1.7L24,22.3c-0.1,0.2-0.2,0.4-0.2,0.6c0,0.1-0.1,0.1-0.1,0.1
	c0,0,0,0,0,0c-0.1,0-0.1,0-0.1-0.1c0-0.1-0.1-0.3-0.3-0.4l-0.8-1c0,0-0.6-1-0.6-1.4c0,0-0.2-1.4,0-1.9c0,0,0.5-0.9,0.3-1.3
	c0,0-0.1,0.1-0.1,0.3c0,0-0.4,1-0.4,1.1c0,0.2,0,1.7,0.1,1.8c0.1,0.1,0.4,1.2,0.5,1.3c0.1,0.1,1,1.2,1,1.2s0.1,0.1,0.1,0.2
	c0,0,0,0.1,0,0.1c-0.7,0-0.7,0.4-0.7,0.4s-0.2,0.5-0.5-0.4c0,0-0.3-1.1-0.8-1.7c0,0-10.7-15.5-19.9-14.7C0.7,6.7,0.1,7.3,0,8.1
	C-0.1,9.5,0.2,11.7,2.3,14.5z"/>
</svg>
