<?xml version="1.0" encoding="utf-8"?>
<!-- Generator: Adobe Illustrator 19.1.0, SVG Export Plug-In . SVG Version: 6.00 Build 0)  -->
<svg version="1.1" id="Layer_1" xmlns="http://www.w3.org/2000/svg" xmlns:xlink="http://www.w3.org/1999/xlink" x="0px" y="0px"
	 viewBox="0 0 48 48" style="enable-background:new 0 0 48 48;" xml:space="preserve">
<style type="text/css">
	.st0{fill:#808080;}
</style>
<path class="st0" d="M46.1,33c0,0-3.8-3.8-2.8-5.8c0.1-0.1,0.1-0.3,0.2-0.4c0.4-1.2,2.1-5.9,1.8-3c0,0,3.2-2.1-1-5.1
	c-0.3-0.2-0.6-0.5-0.8-0.7c-0.8-0.9-3.6-3.2-11.9-1.9c-0.1,0-0.2,0-0.3,0c-0.7,0.2-4.7,1-8.9,0.4c0,0-1.6-0.5-3.6,0.7
	c-0.2,0.1-0.4,0.2-0.7,0.2c-1.2,0.1-4.4,0-6.3-3.3c-0.1-0.2-0.1-0.5,0-0.7c0.1-0.2,0.2-0.4,0.3-0.6c0-0.2,0.2-0.3,0.3-0.4
	c0.6-0.4,2-1.7,0.3-3.9c0,0-0.7,0.3-1.7,1.8c0.1-0.2,2.4-6.8,1.5-9.7c0,0-0.1-0.6-0.5-0.1c0,0-1.6-1.1-0.7,0.9c0,0,1.8,1.9-1.4,8.7
	c-0.1,0.1-0.2,0.2-0.3,0.2c-0.3,0-0.7,0.1-0.7,0.7c0,0.3-0.2,0.4-0.5,0.4c-0.5,0-1.3-0.1-1.5-0.5c0,0,0.1-0.3-0.4-0.4
	c0,0-3.7-4.4-0.4-8.3c0,0,0.2-1.2-0.8-0.6c0,0-3.5,2.2-0.2,8.9c0,0-2.5-0.2-3.5-0.7c0,0-0.7,0.1,0.4,0.5c0,0,1.8,1.5,3.8,2
	c0.2,0,0.3,0.2,0.4,0.3c0.1,0.3,0.1,0.7-0.3,1.1c0,0-0.8,0.1,0.1,2.3c0.1,0.2,0.1,0.4,0.1,0.7c0,0.4-0.1,1.1-0.7,2
	c0,0-0.8,1.3,0.9,1.8c0,0,1,1.1,1.8-0.4c0.1-0.1,0.1-0.2,0.2-0.3l0.4-0.2c0.1-0.1,0.3,0,0.4,0.1c0.6,1,3.1,4.8,7.3,7.2
	c0.2,0.1,0.3,0.3,0.4,0.5c0.2,0.5,0.5,1.3,1.1,1.8c0.2,0.2,0.3,0.5,0.3,0.8c-0.1,1-0.5,3-1.4,4.7c0,0.1,0,0.1-0.1,0.2
	c-0.1,0.2-0.2,0.7-0.1,1.4c0,0.2,0,0.4-0.1,0.6c-0.5,1.3-2.4,5.7-3.4,7.2c-0.1,0.1-0.2,0.2-0.3,0.2c-0.4,0.2-1.5,0.9-1,1
	c0,0,2.5,0.9,2.8-1c0,0,0.3-0.6,0.6-0.2c0,0,0.3,0.2,0.3-0.6c0,0,3.4-10.5,5.8-13.3c0,0,0.6-0.5,0.3,1.8c0,0.1,0,0.1-0.1,0.2
	c-0.2,0.4-0.9,2.3-0.4,4.4c0,0-0.5,6-2.1,8.1c0,0-1.7,1-1.2,1.2c0,0,3,1,2.9-1.2c0,0,0.2-0.5,0.5,0c0,0,0.5,0.1,0.4-1.1
	c0,0,0.6-8,2.7-12.8c0.3-0.7,0.9-1.2,1.6-1.3c0.9-0.2,2.3-0.4,4.1-0.4c0,0,3.4,0.1,4.7-0.7c0.2-0.1,0.4-0.1,0.6,0.1
	c0.8,0.9,3.2,3.5,4.4,4.7c0,0,3,2.1,1.6,6.4c0,0-0.9,4.6-2.5,5.6c0,0-1.8,0.6-1,0.9c0,0,2.6,0.9,3.1-0.9c0,0,0.7,0.4,0.8-0.9
	c0,0,1-5.4,1.9-7.4c0.1-0.1,0.3-0.1,0.3,0c0.4,1.1,1.3,4.6-0.9,9.8c0,0-1.6,1.5-0.9,1.5c0,0,2.5,0.4,3-1.6c0-0.2,0.1-0.3,0.3-0.4
	c0.1-0.1,0.3-0.1,0.4,0c0,0,0.2-0.2,0-0.7c-0.2-0.3-0.2-0.7-0.2-1.1c0-1.3,0.1-4.4,0.6-9.9C46.4,34.3,46.7,33.5,46.1,33z M9.5,14.6
	c0,0-0.3-0.9,0.8-0.7C10.3,14,10.4,15,9.5,14.6z"/>
</svg>
