<?xml version="1.0" encoding="utf-8"?>
<!-- Generator: Adobe Illustrator 19.1.0, SVG Export Plug-In . SVG Version: 6.00 Build 0)  -->
<svg version="1.1" id="Layer_1" xmlns="http://www.w3.org/2000/svg" xmlns:xlink="http://www.w3.org/1999/xlink" x="0px" y="0px"
	 viewBox="0 0 48 48" style="enable-background:new 0 0 48 48;" xml:space="preserve">
<style type="text/css">
	.st0{fill:#808080;}
</style>
<path class="st0" d="M40.8,9.2c0,0,0.8-0.2,0.3-0.6c0,0,1-0.2,1-0.4c0,0-0.4-0.6-1.2-0.6c0,0,0.2-0.3-0.2-0.4c0,0,0,0,0,0
	c0.2-0.1,1.3-0.6,0.9-1.1c0,0-0.3-1.3-1-0.9c0,0-1.5,0.7-1.4,0.5c0,0,0.5-0.3,0.8-0.5c0.1,0,0-0.1,0-0.1c-0.2,0-0.6,0-1.1,0.3
	c0,0,0,0-0.1,0c-0.2,0.2-2,1.3-2.2,1.5c0,0-0.1-0.3,0.6-0.7c0,0,3-2.2,3.4-1.9c0,0,3.3,3.2,4.5,5.7c0,0,0-5.9-5.5-9.2
	C39,0.4,38.3,0.1,37.5,0c-3-0.3-10.3,0.3-9.6,12.4c0,0,0.8,1.4-4.2,1.8c-0.7,0.1-1.3-0.1-1.9-0.5c-0.8-0.5-2.1-1.4-3.6-2.6
	c-0.6-0.5-1.2-1.1-1.7-1.8c-1-1.4-3.5-4.1-7.2-5.1c0,0,2.1-0.7,1.1-1.6c0,0-0.2-1-0.9-1.3c0,0,0-0.8-1.7-0.2c0,0-0.5-0.6-1.5,0.3
	c0,0-1-0.2-1.9,1.4c0,0-1.8,2.8-0.9,3.1c0,0-0.7,0.4-0.5,1c0,0,0.6,0.1,0.9-0.2c0,0,0.1,0,0.1-0.1c0.3,0,1.1-0.1,0.9,0.5
	c0,0-0.5,0.7-0.2,1.4c0,0.1,0,0.1,0,0.2c0,0.3-0.1,1.1,0.5,1.7c0.1,0.1,0.2,0.2,0.2,0.4c0.1,0.4,0.3,1,0.8,0.7c0,0,0.1,1.9,1.4,4.7
	c0.2,0.5,0.4,1,0.4,1.5c0.2,2.2,1.1,8.7,5.2,12.4c0,0,3.9,3.9,3.3,5.1c0,0-0.2,2.4,2,3.4L17.7,42c0,0.2-0.1,0.4-0.3,0.5
	c-0.2,0.2-0.6,0.6-0.5,1.1c0,0-1-0.6-1.2-0.3c0,0-0.2,0.4,0.2,0.5c0,0-0.1,0.4,0.5,0.5c0,0-0.6,0.6-1.5,0.9c-0.8,0.2-2,0.5-2.3,0.6
	c-0.1,0-0.1,0-0.2,0.1c-0.2,0.1-0.5,0.4-0.4,0.7c0,0,0.6-0.3,1-0.1c0,0,1,0.1,1.8-0.2c0,0,0,0,0,0c0.2,0,1.6-0.4,1.7-0.3l-0.4,0.4
	c0,0-0.1,0.1-0.1,0.1c-0.1,0.1-0.5,0.3-0.5,0.8c0,0,0,0.1,0,0.1c-0.1,0.1-0.2,0.4,0,0.7c0,0,0.3-0.2,0.3-0.4c0,0,0.1-0.1,0.1-0.1
	c0.1,0,0.4-0.1,0.6-0.5c0.1-0.1,0.2-0.3,0.3-0.3c0.4-0.2,1.1-0.7,1.2-1.3c0-0.1,0.1-0.2,0.2-0.2c0.2-0.1,0.6-0.4,0.7-1.1
	c0-0.1,0.1-0.1,0.1,0c0.2,0.3,0.7,0.9,1,0c0,0,0-0.1,0.1-0.1l0.2,0c0,0-0.1-0.4-0.4-0.4c-0.1,0-0.2,0-0.2-0.1
	c-0.2-0.2-0.6-0.7-0.6-1.6c0-0.4,0.2-0.8,0.5-1.1l2.1-2.5c0,0-1.7,0.7-2.1,1.3l0.1-0.8c0-0.3,0.2-0.5,0.4-0.6c0.4-0.3,1.1-0.9,1.4-2
	c0-0.1,0.2-0.3,0.3-0.3c0.2,0,0.5-0.1,0.9-0.1c0.3,0,0.6,0.2,0.8,0.5c0.2,0.3,0.5,0.7,1.2,0.4c0,0,0.4-0.1,0.6,0.9c0,0,0,0.1,0,0.1
	c0.1,0.3,0.7,3.1,0.7,4.8c0,0.2-0.2,0.3-0.4,0.2c-0.3-0.1-0.6-0.2-0.6,0.3c0,0-0.1,0.3,0.3,0.5c0.1,0,0.1,0.2,0,0.2
	c-0.1,0.1-0.4,0.1-0.7,0.2l-1.7,0c0,0-0.6-0.1-1,0.3c0,0-0.9,0.3-0.9,0.8c0,0,0.7-0.4,0.8-0.3c0,0,0,0.7,0.9,0.3c0,0,0.4-0.1,0.7,0
	c0.1,0,0.2,0,0.2,0.1c0.2,0,0.7,0,0.9,0c0.1,0,0.1,0,0.2,0c0.1,0.1,0.4,0.2,0.8-0.1c0,0-0.9,0.6-1,0.7c0,0-0.8,0.3-0.7,1
	c0,0,0.8,0.1,1-0.2c0,0,0.6-0.5,1.1-0.5c0.1,0,0.1,0,0.2,0c0.2-0.1,0.7-0.4,0.8-1c0-0.2,0.2-0.4,0.4-0.4c0.2-0.1,0.5-0.3,0.6-0.6
	c0,0,0.2,0.5,0.8,0.5c0,0,0.3-0.1,0.5,0.2c0,0,0.1-0.6-0.5-1l-1.1-2.3c-0.1-0.2,0-0.4,0.1-0.5c0.5-0.5,1.5-1.5,1.3-2.1
	c0,0-1.7,1.6-1.8,1.3l-0.7-3.7c0-0.1,0-0.3,0.1-0.4c0.2-0.3,0.6-1,0.6-1.5c0-0.2,0.1-0.3,0.2-0.4c1.3-0.8,7-4.8,10.1-12.2
	c0,0,0.5,0.8,0.4,2.5c0,0.2,0,0.3,0.2,0.4c0.2,0.2,0.6,0.3,1-1.6c0.1-0.4,0.2-0.7,0.3-1c0.8-1.6,2.9-6.7,1.3-10.1
	C41,12,44.1,9.9,40.8,9.2z M6.4,5.2L6.4,5.2c0,0,0-0.5,0.5-0.2C6.8,5,6.7,5.5,6.4,5.2z M32.9,7.2c0,0-0.2,0.2-0.5,0c0,0,0,0,0,0
	c0.1-0.2,0.8-2.9,3.8-3.6c0,0,1-0.5,0.2,0.3C36.4,3.9,34.7,4.8,32.9,7.2z M39.4,21.5c0,0-0.2-0.6-0.3-0.7c0,0,0.1-0.6,0.2-0.3
	C39.3,20.5,39.6,21.4,39.4,21.5z M40.6,19.4c-0.1,0.4-0.2,1-0.2,0.7l-0.1-1c0,0,0.1-1.4,0.3-0.8C40.6,18.3,40.7,19,40.6,19.4z"/>
</svg>
