<?xml version="1.0" encoding="utf-8"?>
<!-- Generator: Adobe Illustrator 19.1.0, SVG Export Plug-In . SVG Version: 6.00 Build 0)  -->
<svg version="1.1" id="Layer_1" xmlns="http://www.w3.org/2000/svg" xmlns:xlink="http://www.w3.org/1999/xlink" x="0px" y="0px"
	 viewBox="0 0 48 48" style="enable-background:new 0 0 48 48;" xml:space="preserve">
<style type="text/css">
	.st0{fill:#808080;}
</style>
<path class="st0" d="M47.2,37.5l-2.7-7.1c-0.4-0.9-0.5-1.9-0.5-2.9c0-0.7-0.1-1.7-0.8-2.9c-0.3-0.5-0.5-1-0.7-1.5
	c-0.8-2.4-4.8-9.5-22.2-6.6c0,0-2.3,0.6-5-2c0,0-0.6-0.5-1.4-0.9c-0.5-0.2-0.9-0.6-1.2-1.1c-0.3-0.6-0.5-1.5,0-2.7
	c0,0,1.2-2,1.8-2.7c0.1-0.1,0.3-0.1,0.4,0.1c0.1,0.2,0.4,0.5,0.7,0.2c0,0-0.1-0.4,0.3-0.7c0,0,0.3-0.7-0.3-1.3c0,0-0.3-1-1.3-0.4
	c0,0-2.8,0.6-3.9,1.2c-0.3,0.1-0.7,0.2-1,0.1C9.1,6.2,8.6,6.2,7.8,6.2c-0.2,0-0.4-0.1-0.5-0.3C6.8,4.9,5.1,2.1,3.9,1.6
	c-0.1,0-0.1,0-0.2,0c-0.4,0-1.7,0-1.1,0.9c0,0,0.1,0.3,0.6,0.6c0.2,0.1,0.3,0.3,0.4,0.5C3.8,3.8,3.9,4.3,4,4.8
	c0.1,0.8-0.3,1.5-0.9,2c-0.7,0.6-2,1.9-1.8,3.9c0,0,0.1,1.2-0.5,1.8c0,0-1.2,0.5-0.7,1.3c0,0,0.1,1.7,1.7,1.9c0.1,0,0.2,0.1,0.2,0.1
	h0c0,0,0.6,9.6,5,14.1c0.9,0.9,1.5,2.1,1.7,3.4c0.2,1.3,0.2,2.9-0.2,4.4c0,0-0.1,0.9-0.1,1.8c0,0.6,0,1.2-0.2,1.9
	c-0.2,1.2-0.7,2.7-1.5,2.7c0,0-0.9-0.4-2,0.5c0,0-1.1,0.8-0.4,1c0,0,0.7,0.4,1.9,0.3c0,0-0.2,0.5,0.7,0.5c0,0,4.7,0.5,3.7-1.1
	c0,0,0.8-2.8,1.7-2.6c0,0,0.4,0.1,0.4-0.8c0,0,2.3-5.2,2.9-8.4c0.1-0.5,0.6-0.8,1.1-0.7c2.3,0.4,8.3,1.4,11.5,0.2
	c0.6-0.2,1.2-0.1,1.7,0.3c1.3,1.3,3.9,3.8,5.1,5.9c0.5,0.9,0.6,1.9,0.3,2.9c-0.2,0.5-0.4,1.1-0.6,1.5c-0.1,0.3-0.5,0.4-0.8,0.3
	c-0.5-0.3-1.5-0.4-2.5,1.1c0,0,0.4-0.2,0.5,0c0,0,0.1,0.6,0.8,0.7c0,0-0.1,0.3-0.1,0.4c0,0,0.3-0.1,0.3,0c0,0-0.1,0.3,0.7,0.3
	c0,0,2.8,0.1,2.9-0.2c0,0,1.6-6.2,2.1-7c0,0,0.4-1.2-0.6-1.7c0,0-2.6-2.2-0.7-4.8c0.1-0.2,0.4-0.1,0.4,0.1c0,1.1,0.2,3.4,2,5.2
	c0,0,1.6,1.8,1.5,4.7c0,0-0.3,2,1.9,2.3c0,0,2.9,1.6,4.5-1.1C47.5,43.9,48.8,40,47.2,37.5z M2.5,10.6c0,0-1,0.3-0.9-0.9
	C1.6,9.7,2.9,9.3,2.5,10.6z M5.1,11.4c0,0,0.8-1.7,2.3-0.1C7.4,11.3,6,12.3,5.1,11.4z"/>
</svg>
