<?xml version="1.0" encoding="utf-8"?>
<!-- Generator: Adobe Illustrator 19.1.0, SVG Export Plug-In . SVG Version: 6.00 Build 0)  -->
<svg version="1.1" id="Layer_1" xmlns="http://www.w3.org/2000/svg" xmlns:xlink="http://www.w3.org/1999/xlink" x="0px" y="0px"
	 viewBox="0 0 48 48" style="enable-background:new 0 0 48 48;" xml:space="preserve">
<style type="text/css">
	.st0{fill:#808080;}
</style>
<path class="st0" d="M47.5,6c0-0.2,0-0.6,0.1-0.8c0,0-0.3,0-0.5,0.3C47,5.5,47,5.5,46.9,5.5c-0.1,0-0.2-0.1-0.2-0.4
	c0,0,0.4-0.9-0.1-1c0,0-0.3,0.8-0.7,0.8c0,0-0.3,0.1-0.3-0.3c0,0,0.1-0.9-0.5-0.7c0,0-0.3,0.4-0.7,0.7c-0.1,0.1-0.3,0.1-0.5,0.1
	c-0.4,0-1.5-0.1-2.9,0.9c-0.1,0.1-0.3,0.1-0.5,0.1c-0.3-0.1-0.9-0.4-1.2-0.3c-0.1,0-0.1,0.2,0,0.2c0.3,0.1,0.9,0.5,0.6,0.6
	c0,0-2.6,0.3-10.9,5.9c-0.6,0.4-1.2,0.7-1.9,0.8c-0.7,0.1-1.5,0.3-1.8,0.6c0,0-0.3,0.5-1.8-0.2c0,0-3-1-5-1c-0.5,0-0.9-0.2-1.3-0.5
	c-0.8-0.8-2.2-2.2-3-1.9c0,0,0.1-0.6-1.4-1.9c-0.4-0.4-0.8-0.7-1.1-1.1c-1.3-1.5-4.4-5.1-6.7-5.4c0,0-2.3-0.7-1.9,2.6
	c0,0.3-0.1,0.6-0.3,0.8C2.5,5.3,2,6,2,7c0,0.3-0.1,0.6-0.4,0.9c-0.5,0.5-1.1,1.3-0.9,2.2c0.1,0.3,0,0.6-0.2,0.8
	c-0.5,0.6-1.1,1.7,0.2,3.3C1,14.5,1.1,14.7,1.1,15c0.1,0.5,0.7,1.5,2.9,2.2c1,0.3,1.9,0.8,2.7,1.4C7.4,19,8,19.5,8,19.8
	c0,0-0.1,0.7,0.5,1c0.3,0.1,0.4,0.4,0.5,0.6c0.2,0.7,0.6,1.9,2,2.5c0.3,0.1,0.5,0.4,0.6,0.7c0.1,0.5,0.4,1.3,1.6,1.4
	c0,0,0.5,0.3,1,0.7c0.5,0.4,0.7,1,0.6,1.7c-0.4,1.6-1.7,5.9,5.4,7.3c0.5,0.1,0.9,0.5,1,1c0.1,0.6,0.4,1.4,1,1.7c0,0,2.1,4.6,1.2,5.6
	c0,0-0.2,0.7-0.8,1.2c0,0-0.6,0.5-0.5,1.2c0,0,0.3-0.5,0.5-0.3c0,0,0.6,0.2,0.8-0.4c0,0,0.3-0.5,0.6-0.1c0,0,0.1,0.4,1.3,0.3
	c0,0,1.7,0.5,2.4,0.6c0,0,1.1,0.1,1.4-0.2c0,0,0.4,0,0.7,0.3c0,0,0.7-0.6-0.7-1.2c0,0,0.3-0.3,1.1-0.2c0,0,0.9-0.1,1.1-0.6
	c0,0,0.4-0.1,0.7,0.1c0,0,0.2-0.7-0.8-0.6c0,0-0.4-0.3-1.7,0.2c0,0-2.9,0.8-2.9-0.1c0,0,0.4,0,0.3-0.4c0,0,0-0.1,0.2-0.1
	c0,0-0.6-0.6-1.3-0.1c0,0-0.2,0.1-0.3-0.5c0-0.1,0-0.3-0.1-0.4l-1-3.2c0,0-0.2-0.5,0.3-0.6c0,0,1.2-1.8,2.8-3
	c0.5-0.3,1.1-0.4,1.6-0.1c0.6,0.3,1.8,0.7,4.3,0.9c0,0,0.2,0.3,0.1,0.9c0,0-0.5,1,0,1.5c0,0,0.8-1.8,1.1-1.1c0,0,0.1,0.5,0.6,0.7
	c0,0,0.7,2.7,1.1,2.8c0,0,0.1,0.2-0.1,0.3c0,0,0.1,0,0.2-0.2c0,0,0.1,0.6,0.4,0.6c0,0,0.1,0.2,0,0.3c0,0,0.3-0.1,0.3-0.6
	c0,0,0.2,0,0.2,0.3c0,0,0.4-0.1,0.4-0.6l-0.7-2.9c0,0-0.2-2.2-1.8-2.7l-3-1.2c-0.1,0-0.1-0.2,0-0.3c0.8-0.4,3-1.9,3.3-4.5
	c0,0,0.2-1.2,1.6-1.8c0.4-0.2,0.8-0.4,1.2-0.7c1.4-1.1,4-3.9,3.7-8.8c0,0-0.8-3.3,0-4.6c0,0,0.5,1.4,2.1-0.2
	c0.1-0.1,0.3-0.3,0.4-0.4c0.4-0.2,1.1-0.8,1-1.8c0-0.1,0.1-0.2,0.2-0.2c0.3,0,1,0.1,1.4,0.5c0,0,0.4-1.1-0.3-1.9
	c-0.1-0.1-0.1-0.2,0-0.3c0.5-0.5,1.6-1.8,0.7-3.3C47.6,6.3,47.5,6.1,47.5,6z M42.4,8.2c0,0,0.7-0.7,1.2,0.3
	C43.6,8.6,42.8,9.4,42.4,8.2z"/>
</svg>
