<?xml version="1.0" encoding="utf-8"?>
<!-- Generator: Adobe Illustrator 19.1.0, SVG Export Plug-In . SVG Version: 6.00 Build 0)  -->
<svg version="1.1" id="Layer_1" xmlns="http://www.w3.org/2000/svg" xmlns:xlink="http://www.w3.org/1999/xlink" x="0px" y="0px"
	 viewBox="0 0 48 48" style="enable-background:new 0 0 48 48;" xml:space="preserve">
<style type="text/css">
	.st0{fill:#808080;}
</style>
<path class="st0" d="M47.8,12.5c0,0-0.7-1-1.3-0.6c0,0-0.1,0.2-0.7,0.1c0,0-1.3-0.9-3.2,1.1c0,0-1.3,0.1-1.9,1.3
	c0,0-0.7,0.7-3.5,1.3c0,0-0.4,0.5-1.1,0.5c0,0-1.2-0.6-1.7,0c0,0-0.1,0.1-0.1,0.1c-0.1,0.2-0.3,0.6,0,0.8c0,0-2.3,0.8-3.9,0.6
	c0,0-0.6-0.6-1.7-0.4c0,0-2-1.5-8.2-0.7c-0.2,0-0.4,0-0.6,0c-1.6,0-9.4,0.2-12.9,1.7c-0.4,0.2-0.9,0.3-1.3,0.4
	c-0.9,0.1-2.5,0.6-3.8,2.5c-0.2,0.3-0.4,0.5-0.7,0.8c-0.7,0.6-2,2.3-1.3,6.4c0,0,0.7,2.1,0,3.3c0,0,0,2,0.3,2.7
	c0.1,0.1,0.2,0.2,0.3,0.3c0.5,0.1,2.2,0.3,3,0C4,34.5,4.1,34.3,4,34.2c-0.1-0.1-0.3-0.3-0.6-0.4c0,0-1.1-0.2-1-2.2
	c0,0,0.3-2.3,1.9-3.3c0.1-0.1,0.3-0.1,0.4,0c0.4,0.4,1.7,1.3,3.2,1c0.1,0,0.2,0,0.3,0c0.3,0.1,0.9,0.4,1,1.3c0,0,0.5,2.6,0.7,3.5
	c0.1,0.2,0.2,0.4,0.4,0.4c0.3,0.1,0.9,0.3,1.2,0.1c0,0,0.1,0,0.1,0c0.2,0,0.8,0.2,1,0c0.1-0.1,0.2-0.1,0.3-0.1c0.3,0,0.9,0,0.7-0.4
	c0,0-0.1-0.1-0.1-0.1c-0.3-0.1-1.5-0.8-1.5-2.9c0-0.1,0.1-0.1,0.2-0.1c0.8,0.3,4.3,1.4,12.5-1.3c0.1,0,0.2,0.1,0.2,0.2
	c-0.2,1-0.8,4.2-0.6,5.1c0,0.1,0.1,0.2,0.1,0.2c0.2,0.1,0.8,0.4,2.1,0.2c0,0,0.1,0,0.1,0c0.2,0,0.9,0.1,0.6-0.4c0,0,0-0.1-0.8-0.6
	c-0.1-0.1-0.2-0.2-0.1-0.3c0.1-0.4,0.2-1.2,0.4-1.6c0.1-0.1,0.2-0.1,0.3,0c0.3,0.7,1.2,2.7,1.6,2.9c0,0-0.1,0.6,0.5,0.6
	c0,0,0.4,0.1,0.6,0c0,0,1,0.2,1.2-0.1c0,0,1.4,0.3,0.8-0.4c0,0-1-0.6-1.3-1.1c0,0-1-1.7-0.9-3.1L29.3,30c0-0.2,0.1-0.3,0.2-0.3
	c0.7-0.2,2.5-0.8,3.3-1.6c0,0,0.1-0.1,0.1-0.1c0.2,0,0.8-0.1,1.4-0.6c0.1-0.1,0.2-0.1,0.3-0.1c0.5,0,1.8-0.3,3.2-2.2
	c0-0.1,0.1-0.1,0.2-0.2c0.2-0.1,0.8-0.4,1.1-0.8c0.1-0.1,0.2-0.2,0.3-0.3c0.2-0.1,0.7-0.3,0.9-0.8c0,0,0.2-0.4,1.4-0.5
	c0,0,1.3,0.1,2.7-2.6c0.1-0.1,0.1-0.2,0.2-0.2c0.5-0.5,2.2-2.3,2-3.3c0,0,0,0,0-0.1c0-0.1,0.2-0.7,0-0.2c0,0,0.2-1.3-0.3-0.1
	c0,0,0.2-1.3-0.3,0.2c0,0,0,0.1-0.1,0.1l-0.6,0.2c-0.1,0-0.2,0-0.2-0.1c0-0.4,0.1-1.3,0.7-1.7c0,0,0.1,0,0.1,0
	c0,0.1,0.1,0.3,0.3,0.3c0,0,0-0.3-0.2-0.5c0,0,0,0,0,0c0.1,0,0.3,0.2,0.7,0.5c0,0,0.1-0.3-0.2-0.6c0,0,0-0.1,0-0.1
	c0.2-0.1,0.7-0.4,1-0.8c0-0.1,0.1-0.1,0.1-0.1C47.9,13.4,48.2,13,47.8,12.5z M41.5,14c0,0,0.2-0.5,0.6-0.3
	C42.1,13.7,42,14.2,41.5,14z"/>
</svg>
