<?xml version="1.0" encoding="utf-8"?>
<!-- Generator: Adobe Illustrator 19.1.0, SVG Export Plug-In . SVG Version: 6.00 Build 0)  -->
<svg version="1.1" id="Layer_1" xmlns="http://www.w3.org/2000/svg" xmlns:xlink="http://www.w3.org/1999/xlink" x="0px" y="0px"
	 viewBox="0 0 48 48" style="enable-background:new 0 0 48 48;" xml:space="preserve">
<style type="text/css">
	.st0{fill:#808080;}
</style>
<path class="st0" d="M42.3,6.2c0,0,0.6-1,1-0.9c0,0,1.2,0.3,1.6,0.7c0,0,0.2-1.1-0.8-1.9c-0.1,0-0.1-0.1-0.1-0.2
	c0-0.1-0.1-0.4-0.2-0.5c-0.1,0-0.1-0.1-0.1-0.2c0-0.3,0.1-1.2-0.7-1.7c-0.1,0-0.1-0.1-0.1-0.2c0-0.2,0-0.6-0.3-0.6
	c0,0,0,0.8-0.2,0.7c0,0,0.2-1.2-0.4-1c0,0,0.2,0.8-0.1,0.7c0,0,0-1.1-0.4-1c0,0,0.1,0.5-0.1,0.4c0,0-0.3-0.9-0.9,0.3
	c0,0-5.4-0.9-7.1,8.6c0,0.2-0.1,0.3-0.2,0.5c-0.3,0.6-1,2.1-1.5,3.6c-0.1,0.4-0.4,0.8-0.8,1c-0.9,0.6-3.1,1.5-8,1.7
	c0,0-4.8-0.1-8.3,0.9c-0.4,0.1-0.9,0-1.2-0.2c-0.6-0.4-1.4-1.1-1.7-1.7c0,0,0-0.1,0-0.1c-0.2-0.3-1.2-1.9-2-1.7c0,0,0,0.8-0.6,0.1
	c0,0-1-1.1-2.5-0.1c-0.4,0.3-0.7,0.7-0.7,1.1c-0.1,0.4-0.2,0.9-0.8,1.2c0,0-2.1,1.2-1.9,3.3c0,0.1,0,0.3,0,0.4
	c-0.2,0.9-0.6,4.1,3.2,4c0.3,0,0.6,0.1,0.8,0.3c0.5,0.4,1.5,1.2,3.8,1.8c0.3,0.1,0.5,0.3,0.5,0.6c0.1,0.4,0.3,0.9,1,0.9
	c0.2,0,0.4,0.2,0.4,0.4c0.1,0.5,0.5,1.4,2.2,1.3c0.2,0,0.4,0.2,0.4,0.4c0,0.6,0.2,1.6,1.6,1.9c0.2,0.1,0.4,0.2,0.4,0.5
	c0.2,1.1,1,4.2,4.5,4.6c0.4,0,0.6,0.4,0.6,0.7c0,0.3-0.1,0.7-0.2,1.2c-0.1,0.2-0.1,0.4-0.1,0.6c0,0.7,0,2.4-0.5,3.4
	c-0.1,0.1-0.1,0.3-0.1,0.5c0,0.3-0.2,0.7-0.8,1c0,0-1.2,0.8-1.7,1c0,0-0.7,0.4-0.5,0.7c0,0,0.4-0.3,0.6-0.1c0,0,0.3,0.2,0.6-0.1
	c0,0,0.4-0.3,0.7-0.5c0.1,0,0.2,0,0.2,0.1c0,0.4,0.2,1.3,0.8,1.1c0.3-0.1,0.6,0,0.7,0.2c0.1,0.1,0.1,0.2,0.2,0.3
	c0.1,0.2,0.2,0.3,0.3,0.4c0.5,0.4,1.8,1.3,3.4,1c0,0,0.5,0.1,0.7,0.4c0,0,0.1-0.9-1.1-1c0,0-1.6-0.3-2.1-0.7
	c-0.1-0.1-0.1-0.3,0.1-0.4c0.4-0.2,1.5-0.6,2.3-0.5c0.1,0,0.2,0,0.2,0c0.1-0.1,0.3-0.2,0.1-0.4c0,0,0.3-0.3,0.9-0.1
	c0,0-0.2-0.6-1.3-0.3c0,0-3.3,0.9-3.3,0c0,0,0.3-3.1,0.8-4.7c0.1-0.5,0.4-0.9,0.9-1.2c1-0.6,3.1-1.9,4.9-2c0.2,0,0.3,0.1,0.4,0.2
	l1.6,5.2c0,0,0.4,1.5-0.9,2.8c0,0-0.7,0.3-0.5,0.9c0,0,0.4-0.4,0.7-0.2c0,0,0.4,0.2,0.6-0.4c0.1-0.2,0.1-0.3,0.2-0.5
	c0.1-0.1,0.2-0.3,0.3-0.2l1.7,1.3c0,0,0.1,0.2,1,0.3c0,0,0.9,0.6,1.1,0.2c0,0,0.3-0.1,0.5,0.4c0,0,0.2-0.9-0.8-1.1
	c0,0-1.3-0.4-0.8-0.4c0,0,1.6,0.2,2.4,0.3c0.1,0,0.2,0,0.3,0.1c0.4,0.2,1.6,0.9,1.7,0.3c0,0,0.6-0.1,1,0.4c0,0-0.2-1-1.4-1
	c0,0-1.6-0.7-2.4-0.8l-1.6-0.3c-0.1,0-0.1-0.1,0-0.2c0.3-0.3,0.9-0.8,0.8-1.3c0,0-1.6,1.2-1.7,0.8c0,0-1.7-3.9-1.8-5.3
	c0-0.2,0.1-0.4,0.3-0.5c0.3-0.1,0.9-0.6,1.2-2.5c0,0,0.6-2,2.1-2.6c0,0,4-2.1,6.7-4.6c1.2-1.1,2-2.6,2.2-4.2
	c0.6-4,1.4-12.6-2.4-15.3c0,0-0.4-1,0-1.5C41.7,6.9,42.2,6.8,42.3,6.2z M40.7,3.5c0,0.2-0.3,0.3-0.5,0.2c-0.2-0.1-0.4-0.2-0.4-0.4
	c0-0.2,0.3-0.3,0.5-0.2C40.6,3.1,40.7,3.3,40.7,3.5z"/>
</svg>
