<?xml version="1.0" encoding="utf-8"?>
<!-- Generator: Adobe Illustrator 19.1.0, SVG Export Plug-In . SVG Version: 6.00 Build 0)  -->
<svg version="1.1" id="Layer_1" xmlns="http://www.w3.org/2000/svg" xmlns:xlink="http://www.w3.org/1999/xlink" x="0px" y="0px"
	 viewBox="0 0 48 48" style="enable-background:new 0 0 48 48;" xml:space="preserve">
<style type="text/css">
	.st0{fill:#808080;}
</style>
<path class="st0" d="M19.2,19c-0.3-0.2-0.8-0.6-1.3-0.5l-3.6-0.3c-0.3,0-0.5-0.1-0.7-0.3c-0.4-0.4-1.2-0.9-2.4,0.4
	c-0.2,0.2-0.4,0.3-0.6,0.4c-1.4,0.4-6.4,1.6-7.9,1.1c0,0-1.2-0.8-2.2,0.3c0,0-1.1,1.1,0.1,2.1c0,0,0.1,0.9,0.2,0.2
	c0,0,0.2,0.8,0.2,0.1c0,0,0.2,0.1,0.2,0.2c0,0-0.1,0.7,0.3,0.1c0,0,0.3,0,0,0.3c0,0-0.6,1.2,0.8,1.6c0,0,2.3,0.9,8.3,0.8
	c0.3,0,0.6,0.1,0.8,0.3c0.5,0.5,1.6,1.5,2.5,2.2c0.1,0.1,0.1,0.2,0.1,0.3c-0.1,0.2-0.3,0.6-0.9,0.7c0,0,0,0-0.1,0
	c-0.3,0-3.4,0.5-3.9,1.6c0,0,0.7-0.1,1.1,0c0,0-0.7,0.8-0.6,1c0,0,1.7-0.7,1.8-0.3c0,0-0.2,1-0.2,1c0,0,1.3-1.3,2.6-0.9
	c0,0,0.5-0.1,0.6,1.2c0,0,0.4-0.7,0.4-1.6c0-0.1,0.1-0.2,0.1-0.3c0.3-0.2,1.1-0.8,1.6-1.2c0.2-0.2,0.4-0.3,0.7-0.2
	c1.3,0.2,5.5,0.9,9,0.4l-0.9,1.4c-0.1,0.1-0.2,0.3-0.4,0.3c-0.5,0.2-1.6,0.7-2.7,1.7c0,0-0.4,0.5-0.4,0.7c0,0,0.8-0.4,0.8-0.2
	c0,0-0.6,0.9-0.5,1.3c0,0,1.3-1,2.1-0.7c0,0,0.1,0.4-0.4,1.2c0,0,0.3,0.2,1.4-1.1c0,0,1.2-0.4,1.8,0.1c0,0,1.1,1.2,1.3,1.1
	c0,0,0.1-0.6-0.6-1.5c0,0-0.1-0.7,0.9-0.1c0,0,0.1-0.5-0.8-1c0,0-0.5-0.5,0-0.8c0,0,4.2-2.2,3.8-3c0-0.1,0-0.2,0.1-0.2
	c1.3-0.2,7.8-1.3,11.3-4.3c0.1-0.1,0.2-0.1,0.3-0.1c0.3,0.1,0.8,0.2,1.3,0.2c0.1,0,0.2,0.1,0.1,0.2c-0.3,0.6-1.1,1.9-1.1,1.9
	c0,0,0.4-0.1,0.6-0.4c0,0,0,0.2,0.2,0.3c0,0-0.2,0.5-0.2,0.7c0,0,0.5-0.1,0.9-0.4c0,0,0.3-0.1,0.3,0.1c0,0-0.4,0.5-0.3,0.7
	c0,0,0.5-0.2,1-0.7c0,0,0.5-0.2,0.4,0.7c0,0,0.4-0.2,0.6-0.9c0,0,0.4-1.7,0.5-2.8c0,0,0.4-1.4-0.4-1.5c0,0-1.7-0.5-1.3-1
	c0,0,1.4-2.3,1.1-3.2c0,0,0.3-2.7-1.9-4c0,0-0.1,0-0.1,0c-0.1,0-0.3-0.1-0.4-0.4c0,0,0-0.2-0.3-0.1c-0.1,0-0.2,0-0.2,0
	c-0.1-0.1-0.3-0.2-0.3-0.3c0,0,0-0.1-0.2-0.1c0,0-0.3,0-0.5-0.2c0,0,0,0,0,0c0,0-0.1-0.1-0.2-0.1c0,0-0.1,0-0.2,0
	c-0.1,0-0.3,0-0.5-0.3c0,0-0.1-0.1-0.3-0.1c0,0-0.1,0-0.1,0c-0.1,0-0.5,0-0.6-0.2c0,0-0.2-0.1-0.4,0c0,0-0.2,0.1-0.4-0.1
	c0,0-0.2-0.2-0.5,0c0,0-0.1,0.1-0.3-0.1c0,0-0.2-0.3-0.4,0c0,0-0.2,0.2-0.5-0.1c0,0-0.1-0.1-0.3,0c0,0-0.1,0-0.1,0
	c-0.2,0-0.6,0-1-0.1c0,0-0.1,0-0.3,0.1c0,0-0.1,0-0.1,0c-0.3,0-1.4-0.2-1.6,0.1c0,0-0.1,0-0.1,0c-0.2-0.1-0.8-0.5-1.2-0.2
	c0,0-0.1,0-0.1,0c-0.2-0.1-0.7-0.2-0.9,0c0,0-0.1,0-0.1,0c-0.2-0.1-0.7-0.3-1.2,0c0,0-0.1,0-0.1,0c-0.2-0.1-0.8-0.3-1.2,0
	c0,0-0.1,0-0.1,0c-0.2-0.1-0.6-0.3-1,0.1c0,0-0.1,0-0.1,0c-0.1-0.1-0.5-0.2-0.8,0.1c0,0-0.1,0-0.1,0c-0.2-0.1-0.6-0.2-0.8,0
	c0,0-0.1,0-0.1,0c-0.2,0-0.8,0-1.1,0.2c0,0-0.1,0.1-0.1,0c-0.2,0-0.8-0.1-1,0.1c0,0-0.1,0.1-0.1,0.1c-0.2,0-0.9-0.1-1.1,0.1
	c0,0-0.1,0-0.1,0c-0.2,0-0.8-0.1-1,0.1c0,0-0.1,0.1-0.2,0c-0.2,0-0.7-0.1-0.9,0.1c0,0-0.1,0.1-0.2,0.1c-0.2,0-0.5-0.1-0.6,0.1
	c0,0-0.1,0.1-0.1,0.1c-0.1,0-0.3,0-0.4,0.1c0,0-0.1,0.1-0.1,0c-0.1,0-0.3,0-0.5,0.1c0,0-0.1,0-0.1,0c-0.1,0-0.5,0-0.5,0.2
	c0,0-0.5-0.1-0.6,0.1c0,0-0.1,0-0.1,0c-0.2,0-0.6,0-0.7,0.1c0,0-0.6,0-0.7,0.2c0,0-0.1,0-0.1,0c-0.1,0-0.5,0-0.6,0.1c0,0,0,0-0.1,0
	c-0.1,0-0.4,0-0.5,0.2c0,0-0.1,0.1-0.1,0.1c-0.2,0-0.6,0.2-0.1,0.3l20.2,1c0,0,0.2,0.2-0.1,0.2c0,0-1,0-1.2,0.3
	c0,0.1-0.1,0.1-0.2,0.1c-0.2,0-0.6,0-0.9,0.2c0,0-0.1,0.1-0.2,0.1c-0.2,0-0.8,0-1,0.2c-0.1,0.1-0.1,0.1-0.2,0.1
	c-0.3-0.1-0.9-0.2-1.3,0.2c0,0-0.1,0.1-0.2,0.1c-0.3,0-1,0-1.3,0.2c-0.1,0-0.2,0.1-0.3,0.1c-0.3-0.1-0.9-0.1-1.5,0.4
	c-0.1,0-0.1,0.1-0.2,0.1c-0.2,0-0.6,0-0.9,0.2c-0.1,0.1-0.1,0.1-0.2,0.1c-0.3,0-0.9-0.1-1.3,0.3c-0.1,0.1-0.2,0.1-0.3,0
	c-0.2-0.1-0.7-0.3-1.1,0.3c-0.2,0.1-0.4,0.1-0.6,0.1c-0.1,0-0.2-0.1-0.3-0.2c-0.1-0.2-0.4-0.4-0.9,0c-0.1,0.1-0.2,0.1-0.2,0
	c-0.2-0.2-0.5-0.5-0.9-0.1c-0.1,0.1-0.1,0.1-0.2,0c-0.2-0.1-0.7-0.4-1.1-0.2C19.5,19.1,19.3,19.1,19.2,19z M13.3,19.3
	c0,0,0.9-0.9,1.6,0C14.9,19.4,14.2,19.9,13.3,19.3z"/>
</svg>
