<?xml version="1.0" encoding="utf-8"?>
<!-- Generator: Adobe Illustrator 19.1.0, SVG Export Plug-In . SVG Version: 6.00 Build 0)  -->
<svg version="1.1" id="Layer_1" xmlns="http://www.w3.org/2000/svg" xmlns:xlink="http://www.w3.org/1999/xlink" x="0px" y="0px"
	 viewBox="0 0 48 48" style="enable-background:new 0 0 48 48;" xml:space="preserve">
<style type="text/css">
	.st0{fill:#808080;}
</style>
<path class="st0" d="M43,25.5c0,0-3.1-2.5-7.4-3.8l-5.7-3.2c0,0-0.8-1.8-9.1-1.8c0,0-5.8-1.9-7.6-4.7c0,0-3.1-5.9-6.8-7.5
	c0,0-3.2-2.1-5.6,2.1c0,0-1.2,0.6-0.7,1.9c0,0,1.2-1,1.8-0.5c0,0,0.2,0.2,0.9,0.2c0,0,2.4,2,3.4,6.5c0,0,0.7,10.3,4,12.1
	c0,0,1.1,0.3,3.8,4.1c0,0,3.6,3.3,6.5,4.7c0,0,0.6,0.5-0.7,2.7c0,0-2.2-0.6-2.4,0c0,0,0.2-0.1,0.2,0c0,0,0.4,0.3,1.2,0.4
	c0,0,0.4,0.2-2.2,0.1c0,0-1,0.1-0.9,0.6c0,0,0.3-0.2,0.5,0c0,0,2,0.1,2.5,0.1c0,0-1.5,0.7-1.8,1c0,0-1.9-0.3-2.1,0.3
	c0,0,0.3-0.1,0.3,0.1c0,0,0.6,0.4,1.4,0.4c0,0-3.8-0.1-3.7,0.8c0,0,0.4-0.3,0.5-0.1c0,0,0.7,0.2,3.1,0.1c0,0,0.5,0.1,0,0.3
	c0,0-2.8,0.9-2.4,1.6c0,0,0.3-0.4,0.6-0.2c0,0,0.4,0.2,0.9-0.2c0,0,2.5-0.8,2.9-1.1c0,0,1.4-0.5,1.3-0.9c0,0,0-0.7,0.3-0.5
	c0,0,0.7,0.5,1,0.5c0,0,0.2,0,0.2,0.1c0,0,0.4-0.6-0.9-1.2c0,0-0.4-0.7,0.2-0.9c0,0,1.1-0.2,1-1c0,0,0.6,0.4,1,0.3
	c0,0,0.1,0,0.2,0.2c0,0,0.3-0.4-0.9-1.2c0,0,0.7-2.5,1.4-2.7c0,0,0.9-0.1,1.6-0.5c0,0,1.4,0.8,1.9,0.6c0,0-0.3-0.9,1-1.5
	c0,0,2.7-0.6,2.5-3.2c0,0,0.9,1.3,1.9,1.5c0,0,4.6,6.4,6.9,5.1c0,0,2,0.6,2.1-1.6c0,0,2.7,0.9,3.2-0.9c0,0,3,1.1,3.6-2.5
	C48,32.3,48.7,26.9,43,25.5z M3.6,6.3c-0.1,0,0.3-1,1.4-0.4C4.9,5.9,4.5,7.1,3.6,6.3z"/>
</svg>
