<?xml version="1.0" encoding="utf-8"?>
<!-- Generator: Adobe Illustrator 19.1.0, SVG Export Plug-In . SVG Version: 6.00 Build 0)  -->
<svg version="1.1" id="Layer_1" xmlns="http://www.w3.org/2000/svg" xmlns:xlink="http://www.w3.org/1999/xlink" x="0px" y="0px"
	 viewBox="0 0 48 48" style="enable-background:new 0 0 48 48;" xml:space="preserve">
<style type="text/css">
	.st0{fill:#808080;}
</style>
<path class="st0" d="M47.6,11.4c0,0-3.3-1.5-4.3-2.7c0,0-1.7-2.3-3.1-2.3c-1.4,0,0,0,0,0S38.8,4,38.6,1.8c0,0-1-0.1-0.5,4.1
	c0,0-1.7-2-2.1-3.5c0,0-0.9,2.3,0.5,4.3c0,0-0.8,0.4-1.6,0c0,0-1.6-1.3-1.6,0.6c0,0-2.6,1.8-5.1,1.5c0,0-7.7-2-8.7,0.3
	c0,0,0.2,1.7-3.3,1.8c0,0-6.2,0-7.8,1.3c0,0-5.1,0.9-5.3,5.6c0,0,0.5,7.5-0.9,9.9c0,0-0.5,1.8,1.2,1.5c0,0-0.3,1-0.7,1.2
	c0,0-0.3-0.1-0.3,1.3c0,0-1.7,6.2-2,7c0,0-1,1.8,0,1.6c0,0-0.3,2.5,0.1,2.6c0,0,2.2,0.5,2.2,0.1c0,0,0.6,0.2,0.4-0.4
	c0,0-1.7-2.2,0-6.2c0,0,1.5-4.7,3-6.1c0,0,2.6-3.1,2.8-3.8c0,0,0.7,2.4-1.1,4.3c0,0-0.5,0.4,0.1,1.6c0,0,1.7,5.7,1.8,6.9
	c0,0-0.1,2.1,0.6,1.4c0,0,1-0.5,0.9,1c0,0-0.2,0.7,0.8,0.8c0,0,2.7,0,2-0.7l-0.9-0.8c0,0,0-0.7-0.8-1c0,0,0.2-0.8-0.4-1.6
	c0,0-3.4-5.7-0.1-8.9c0,0,1.5-2,1.8-3c0,0,3.5,1.7,6.9,0.9c0,0,1.5,4.6,0.7,6.3c0,0-0.1,1.1,0.3,2c0,0,0.5,4.8-0.2,5.9
	c0,0-0.4,1.8,0.2,1.4c0,0,0.4,0.2,0.4,1c0,0-0.1,1.5,0.3,1.6c0,0,2.2,0.4,2.2,0.1c0,0,1,0.1,0.5-0.5c0,0-0.8-0.8-0.8-1.3
	c0,0-0.2-0.5-0.3-0.7c0,0,0-1.5-0.3-2.1c0,0-0.2-4.2,0.5-5.8c0,0,0,0,0,0c0.7-1.6,0.3-2,0.3-2.9c0,0,0.9-3.9,0.8-4.4l0.6,0l0.1,4.3
	c0,0-0.7,0.6,0,2.2c0,0,0.5,5.4-0.1,6.2c0,0-0.6,1.6,0,1.9c0,0,0.4-0.4,0.7,0c0,0-0.2,1.7,0.7,1.9c0,0,2.7,0.4,2.3-0.3
	c0,0-1.3-1.5-1.4-2.9c0,0-0.7-5.3,0.4-7.3c0,0,0.6-0.9,0.2-1.7c0,0,0.7-5,1.4-5.6c0,0,1.7-3.2,1.7-3.9c0,0,1.6-1.9,1.4-1.2
	c0,0-1.2,2.3,0.1,2.4c0,0,1.4-1.7,1.5-2.5c0,0,0.8,1.6,1.1,0c0,0,0.8-2.8,0.1-3.7c0,0,0.7-3.4,3.6-4c0,0,4.8-0.4,6.3,0.2
	c0,0,1.7,0.2,1.4-0.7C47.3,13.6,48.6,13,47.6,11.4z M39.4,9.7c0,0,0.9-1.1,2,0.1C41.5,9.8,39.9,10.7,39.4,9.7z"/>
</svg>
