<?xml version="1.0" encoding="utf-8"?>
<!-- Generator: Adobe Illustrator 19.1.0, SVG Export Plug-In . SVG Version: 6.00 Build 0)  -->
<svg version="1.1" id="Layer_1" xmlns="http://www.w3.org/2000/svg" xmlns:xlink="http://www.w3.org/1999/xlink" x="0px" y="0px"
	 viewBox="0 0 48 48" style="enable-background:new 0 0 48 48;" xml:space="preserve">
<style type="text/css">
	.st0{fill:#808080;}
</style>
<path class="st0" d="M46.7,11c0,0-0.8-0.5-1.2-1c-0.2-0.2-0.4-0.4-0.7-0.4c-0.3-0.1-0.7-0.1-1.4-0.2c-0.1,0-0.2-0.1-0.3-0.2
	c-0.1-0.1-0.2-0.3-0.3-0.5c-0.1-0.1-0.2-0.3-0.3-0.5c-0.1-0.6-0.7-1.9-2.4-1.9c-0.1,0-0.2,0-0.3,0c-0.4-0.1-1.9-0.3-2.9,1.7
	c-0.2,0.3-0.5,0.5-0.8,0.6C34.2,9,28.9,10,26,10c-0.3,0-0.6,0-0.9,0.1c-1.7,0.2-6.7,0.9-8,2.1c-0.3,0.3-0.6,0.6-1,0.8
	c-0.9,0.7-2.5,1.8-3.3,2.7c-0.4,0.5-1,0.8-1.6,0.9c-2.3,0.5-7.1,2-5,4.7c0.3,0.4,0.3,0.9,0.1,1.3l0,0c-0.1,0.2-0.4,0.3-0.6,0.2
	c-1.3-0.7-5.2-2.6-5.6,1.8c0,0-0.2,5.9,3.2,10.6c2.1,2.9,6.3,4.4,7.3,4.6c0.2,0,0.3,0,0.5,0c0.6,0,2.5,0,2.8,1c0,0,0.3,0.9,0.9,0.4
	c0,0,0.2-0.3-0.2-0.8c0,0,0,0,0,0c-0.2-0.2,0-0.5,0.3-0.5l5.1,1.2c0,0,1.6,0.5,1.8,0.9c0,0,0.8,0.1,0.3-0.6c0,0-0.6-0.9-2.4-1.5
	c0,0-2.7-0.8-3.3-1.4c0,0-0.5-0.3-0.9-0.4c0,0,0.3-0.5-1.5-1.1c0,0,3.2-0.8,3.7-4.4c0-0.3,0.3-0.4,0.5-0.3c0.6,0.4,1.8,1,3.1,1.2
	c0.5,0.1,0.9,0.3,1.1,0.8c0.7,1.3,2.6,3.8,6.5,4.7c0.3,0.1,0.6,0.1,0.8,0.2c0.4,0.2,1.3,0.4,2.4,0.6c0.6,0.1,1.2,0.2,1.8,0.5
	c0.7,0.3,1.7,0.6,2.5,0.3c0,0,0.6,0.2,0.6,0.7c0,0,0,0.6,0.5,0.4c0,0,0.4-0.3,0-0.9c0,0-0.1-0.8-1.2-0.9L34.8,39
	c0,0,3.1,0.1,3.7-0.6c0,0,2-1,2.7-0.3c0,0-0.1,0.4,0.5,0.1c0,0-0.1-1.2-1.5-1.1l-1.9,0.4c0,0-3.1,0.2-4.2-0.5c0,0,1.7-0.7,2.4-0.4
	c0,0,0.1,0.4,0.4,0.1c0,0,0.6-0.7-0.3-0.8c0,0-0.7-0.4-2.7,0.1c0,0-1-0.1-1.8-0.1c-0.4,0-0.9-0.2-1.1-0.5c-0.2-0.2-0.4-0.4-0.6-0.6
	l-2.5-3.1c0.6-0.6,1.9-2.1,2.6-2.4c1-0.5,3.2-1.3,3.3,0.2c0,0-0.4,2.7,0.7,1.6c0,0,0.3-0.7,0.4-1.4c0.1-0.6,0.5-1,1.1-1.1
	c0.8-0.1,1.9-0.1,3.1,0.6c0,0,0.5,0.6,1.1-0.2c0,0,1,0,1,1c0,0,0.6,0.6,0.7-0.2c0,0-0.3-1.4-1.4-1.4c0,0-1,0.1-0.7-0.4
	c0,0,1.4,0.5,1.5,0c0,0,1.8-0.2,1.7,0.5c0,0,0.1,0.4,0.4,0.1c0,0-0.1-1.1-1.3-1.2c-2.4-0.2-5.2-2.1-5.3-2.6
	c-0.1-0.2-0.2-0.5-0.4-0.5c-0.4-0.2,5.2-4.2,7-6.3c0.3-0.4,0.7-0.6,1.1-0.8c0.6-0.3,1.4-0.7,1.7-1.6c0.2-0.4,0.4-0.8,0.7-1.2
	C48,13.8,48.7,12.4,46.7,11z M36.4,13.3c-1.4,0-2.6-0.9-2.6-2s1.2-2,2.6-2c1.4,0,2.6,0.9,2.6,2S37.8,13.3,36.4,13.3z"/>
</svg>
