<?xml version="1.0" encoding="utf-8"?>
<!-- Generator: Adobe Illustrator 19.1.0, SVG Export Plug-In . SVG Version: 6.00 Build 0)  -->
<svg version="1.1" id="Layer_1" xmlns="http://www.w3.org/2000/svg" xmlns:xlink="http://www.w3.org/1999/xlink" x="0px" y="0px"
	 viewBox="0 0 48 48" style="enable-background:new 0 0 48 48;" xml:space="preserve">
<style type="text/css">
	.st0{fill:#808080;}
</style>
<path class="st0" d="M48,39.2c0,0-8.2-1.9-11.2-4.6c0,0,1-0.1-0.2-1c-0.1-0.1-0.2-0.1-0.2-0.2c-0.7-0.4-3.1-1.8-3.3-2.1
	c0,0-0.6-1.3-1.1-1.7c0,0-8-8.5-11.2-10.7c0,0-5.9-4.8-6.9-6.2c0,0-2.4-4.1-5-4.4c0,0-7.3-1.1-7.8,3.8c0,0-2.4,3.5,0.2,5.6
	c0,0-0.4-1.4-0.2-1.7c0,0,1.3,0.8,2.3,0.2c0,0,0.7,0.1,1.2,1.2c0,0,2.9,11.5,10.3,14.6c0,0,2.4,4.1,1.8,4.8c0,0-0.1,1.1-4.3,1.8
	c0,0-1.2-0.5-2.4-0.2c0,0-2.2-1.2-1.9,1.1c0,0,0.2-1.6,1.5-0.7c0,0-0.4,0.5-0.3,0.8c0,0,0.1-0.4,0.4-0.3c0,0,0.8-0.1,0.9,0.2
	c0,0,0.2-0.2,0.5-0.2c0,0-0.1,0.6,0.7,0.3c0,0,1.2-0.3,2.2,0.2c0,0,7.5,0.2,7.7-0.1c0,0,0.3-0.1,0.5,0c0,0,0.6-0.1,0.5-0.7
	c0,0,1.2-0.8,1.4,0.5c0,0,0.4-1.1-0.9-1.3c0,0-1.1,0.2-1.1,0.5c0,0-3.1,0.6-4,0c0,0,1.1-0.7,2-0.8c0,0,0.9-0.2,0.8-1.8
	c0,0,0.2-2.1,1.3-1.8c1.1,0.2,6.9-0.4,17.2,4.5c0,0,0.7,0.3,0.5-0.3c0,0,2.7,1.2,5.2,0.8c0,0-3.1-0.8-4.1-1.9
	C41,37.4,46.6,39.5,48,39.2z M4.6,11.7c0,0-0.9-1.4,1-1.2C5.6,10.5,6.5,12.2,4.6,11.7z"/>
</svg>
