<?xml version="1.0" encoding="utf-8"?>
<!-- Generator: Adobe Illustrator 19.1.0, SVG Export Plug-In . SVG Version: 6.00 Build 0)  -->
<svg version="1.1" id="Layer_1" xmlns="http://www.w3.org/2000/svg" xmlns:xlink="http://www.w3.org/1999/xlink" x="0px" y="0px"
	 viewBox="0 0 48 48" style="enable-background:new 0 0 48 48;" xml:space="preserve">
<style type="text/css">
	.st0{fill:#808080;}
</style>
<path class="st0" d="M44,20.3c0,0,3.4-0.1,4-0.8c0,0-0.4-0.4-4.6-0.3c0,0,0,0,0,0c0.9-0.2,4.3-1,4.5-1.6c0,0-3.2,0-5.4,0.5
	c0.4-0.1,4.5-1.3,4.7-2.7l-5.7,2c0.1-0.1,4-2,4.5-3.4c0,0-5,3-5.5,3c0,0,2.9-2.2,3.2-3.6c0,0-4.6,4.4-6.1,4.7l-0.3,0
	c0,0,0.6-0.5,0.4-0.8c0,0-2.4,1.6-3.2,2.2c0,0-0.1,0-0.1,0.1c-0.2,0.2-1.7,1.2-7.1,1.5c0,0-2.4-0.6-2.6-0.8c0,0-0.3-1.3-1.3-1.4
	c0,0-0.3-0.1-0.4-0.3c0,0-0.7-0.3-0.2,0.7c0,0-0.2,1.3,0.1,1.7c0,0-0.7,1-2.3,1.2c0,0-4.3,0.8-6.6,0.4c0,0-4.5-0.5-4.7-0.3
	c0,0,1,0.3,0.6,0.5c0,0-5.6-0.1-7.6-1c-0.1,0-0.1,0-0.1,0.1c0.3,0.3,1.3,1,3.8,1.1c0,0,0,0.1,0,0.1c-0.7,0.1-2.5,0.3-5.7,0
	c0,0,0.6,1.1,5.3,0.8l0,0c0.1,0,0.1,0.1,0,0.1c-0.9,0.2-4.1,0.7-5.7,0.9c0,0,0.6,1,5.2,0.1c0,0,0,0,0,0c-1,0.4-4.5,1.7-4.9,1.9
	c0,0,1.4,0.4,4.9-0.8c0,0,0.1,0,0,0c-0.9,0.5-3.8,2.1-4,2.6c0,0,0.8,0.2,3.5-1c0,0,0.5-0.2,0.8-0.3c0.1,0,0.1,0.1,0.1,0.1
	c-0.7,0.5-2.7,2.1-2.8,2.6c0,0,2.9-0.9,3.3-1.6l0.1-0.7c0-0.1,0.1-0.1,0.1,0c0,0.2,0.1,0.5,0.2,0.7c0,0.1,0,0.2,0,0.3
	c-0.3,0.4-1,1.5-1,1.6c0,0,0.8,0.3,1.9-0.4c0.1-0.1,0.2-0.1,0.3,0c0.2,0.1,0.5,0.2,1.1,0.2c0.1,0,0.2,0,0.4,0.1
	c0.2,0.2,0.6,0.4,1.2,0.2c0.1-0.1,0.3,0,0.4,0.1c0.2,0.1,0.4,0.3,0.8,0.2c0.1,0,0.3,0,0.3,0.1c0.1,0.3,0.4,0.6,1.1,0.3
	c0.1-0.1,0.3,0,0.4,0.1c0.1,0.2,0.4,0.5,0.9,0.2c0.1-0.1,0.2-0.1,0.3,0c0.2,0.2,0.5,0.3,0.8,0.1c0.1-0.1,0.2,0,0.3,0
	c0.2,0.1,0.4,0.3,0.8,0c0,0,0.1,0,0.2,0c0.2,0.1,0.6,0.4,0.9,0.1c0,0,0.1,0,0.1,0c0.2,0.1,0.9,0.2,1-0.5c0-0.1,0.1-0.1,0.1,0
	c0.2,0.3,0.7,0.8,1.5,0.5c0.1,0,0.1,0,0.2,0.1c0,0.1,0.1,0.2,0.3,0.2c0,0,0.3,0.1,0.3,0.3c0,0.1,0,0.3,0.1,0.3
	c0.1,0.1,0.1,0.1,0.2,0.1c0,0,1.9,1.9,5.3,1.8c0.1,0,0.1,0,0.2,0c0.6-0.2,4.1-1.2,5.2-3.4c0,0,0.4-1.3,2.3-1.6c0,0,0.2,0,0.4-0.2
	c0,0,0.1-0.1,0.2-0.1c0.2,0,0.5,0,0.7-0.2c0.1-0.1,0.1-0.1,0.2-0.1c0.2,0,0.6,0.1,0.7-0.3c0-0.1,0.1-0.1,0.2-0.1
	c0.2,0,0.4,0,0.7-0.2c0,0,0.1-0.1,0.2-0.1c0.2,0,0.7,0,0.8-0.5c0-0.1,0.1-0.1,0.2-0.1c0.3,0,0.8,0,0.9-0.6c0-0.1,0.1-0.1,0.2-0.1
	c0.3,0,1-0.1,0.9-0.8c0-0.1,0-0.1,0.1-0.1c0.2,0,0.7-0.1,0.8-0.7c0-0.1,0.1-0.1,0.1-0.1c0.3-0.1,0.8-0.3,0.9-0.7
	c0-0.1,0.1-0.1,0.2-0.2c0.3-0.1,0.9-0.3,1-0.8c0-0.1,0.1-0.2,0.2-0.2c0.5,0,1.7,0,1.8-0.5c0,0,0.1-0.3-1.6-0.9
	c-0.1,0-0.1-0.1-0.1-0.1c0-0.1,0.1-0.1,0.3-0.1c0,0,2.4,0.1,3.1-0.3c0.1,0,0-0.1,0-0.1c-0.4-0.2-2-0.7-3.7-0.9
	C43.7,20.6,43.5,20.4,44,20.3z M24,19.5c-0.1,0-0.1,0-0.1-0.1c0-0.1,0.1-0.2,0.2-0.1c0,0,0.1,0,0.1,0.1C24.2,19.5,24.1,19.5,24,19.5
	z"/>
</svg>
