<?xml version="1.0" encoding="utf-8"?>
<!-- Generator: Adobe Illustrator 19.1.0, SVG Export Plug-In . SVG Version: 6.00 Build 0)  -->
<svg version="1.1" id="Layer_1" xmlns="http://www.w3.org/2000/svg" xmlns:xlink="http://www.w3.org/1999/xlink" x="0px" y="0px"
	 viewBox="0 0 48 48" style="enable-background:new 0 0 48 48;" xml:space="preserve">
<style type="text/css">
	.st0{fill:#808080;}
</style>
<path class="st0" d="M30.1,23c0,0-0.8,0.7-6.9-0.7c0,0-6.4-1.7-8-1.7c-0.1,0-0.1,0-0.2,0c-0.7-0.1-5.6-0.6-9.6-2.2l-2.3-0.8
	c0,0-2.2-0.6-2.9-0.3c0,0-0.1,0.2,0.3,0.3l-0.5,0c0,0,0,0.3,1,0.4c0,0,0.9,0.2,1,0.4c0,0,0,0,0,0c0,0.2,0.2,0.5,0.4,0.7
	c0,0-0.1,0.3,0.7,0.6c0,0,0.2,1,2.6,1.3c0,0,4.2,1.4,9.1,1.8l6.8,1.1c0,0-3.1,1.8-4.1,4.8c-0.1,0.2-0.2,0.4-0.3,0.6
	c-0.5,1.1-2.1,4.4-1.7,6.6c0,0,3.5,2.6,9.7-3.9l3.4-3.5c0,0-1.6,1.6-0.6,5.9c0,0,0.3,8.8,5.2,5c0,0,1.9-1.5,1.7-6.8
	c0-0.1,0-0.3,0-0.4c0.1-0.6,0.5-2,1.1-1.7c0,0,0.8,0.2,1.3,0.6c0,0,1.2,0.6,1.9-1.1c0,0,0.3,0.6,0.5,1.6c0,0,1,1.8,1.5,1.9
	c0,0,0.2-0.1,0.7,0.2c0,0,3,1,3.4,1.2c0,0,1.8,0.1,1.7,0.6c0,0,0.1,0.1,0.2-0.3c0,0,0-0.1-0.5-0.3l-1.3-0.3c0,0-1.9-0.5-2-0.6
	c0,0-1.4-0.6-1.6-0.6L41.5,33c0,0-1.3-1-1.3-2.1c0,0,0.1-0.2,0.6,0.4c0,0,1.6,1.8,3.4-1.5c0,0,1,1.1,2.2,1.2c0,0,1.7-0.1,1.4,0.6
	c0,0,0.3,0,0.1-0.5c0,0-1.1-0.3-1.9-0.2c0,0-1.5-1.2-1.6-1.3c0,0,1-2.3-0.9-2c0,0-2-3.8-3.2-0.8c0,0-0.6-3.5-2.2-3.8
	c-1.6-0.3,1.3,0.6,3.3-6.4c0.1-0.3,0.2-0.6,0.4-0.8c1-1.3,4.4-5.7,3.3-7.1c0,0-0.6-2.6-4.4-0.1c0,0-7.5,4.2-6.4,7.9c0,0,0,0.1,0,0.1
	c0,0.7-0.3,5.6,1.5,6c0,0,0.5,1-1.6,0.1c0,0-0.5-3.5-0.6-4.6c0-0.2,0-0.4,0-0.6c0.3-1.1,1-5.1-0.1-6.7c0,0-1.8-3.1-4-1.1
	c0,0-2.7,2.3-3.4,3.6c-0.1,0.2-0.3,0.4-0.4,0.6c-0.5,0.5-1.6,1.9-1.2,4.6c0,0,0.2,4.6,4.5,4.2L30.1,23z"/>
</svg>
