<?xml version="1.0" encoding="utf-8"?>
<!-- Generator: Adobe Illustrator 19.1.0, SVG Export Plug-In . SVG Version: 6.00 Build 0)  -->
<svg version="1.1" id="Layer_1" xmlns="http://www.w3.org/2000/svg" xmlns:xlink="http://www.w3.org/1999/xlink" x="0px" y="0px"
	 viewBox="0 0 48 48" style="enable-background:new 0 0 48 48;" xml:space="preserve">
<style type="text/css">
	.st0{fill:#808080;}
</style>
<path class="st0" d="M47.9,30.6c0,0-3.7-5.1-8.7-6.3c-0.3-0.1-0.7-0.1-1.1-0.1c-0.8,0.1-2.7,0.1-3.8-1.4c-0.1-0.1-0.1-0.2-0.2-0.2
	c-0.9-1.1-6.7-7.1-15.5-6.9c-0.3,0-0.6,0.1-0.9,0.2c-0.9,0.3-3.4,0.7-4.6-2.2c0,0-2.1-4.9-6.2-5.8c-0.1,0-0.2-0.1-0.2-0.3
	c0-0.6,0-2.1-1.6-0.8c0,0-0.2,0.2-0.6-0.2C4.7,6.5,4.6,6.4,4.5,6.4C3.8,6.2,1,5.5,0.2,7.7c0,0-0.2,0.7,0.3,1.4c0,0-0.3,1.3,0.3,0.4
	c0,0,0.1,1,0.3,0.1c0,0,0,1.2,0.2,0.2c0,0,0.1,1.5,0.3,0.3c0,0,0.1,0.8,0.2,0.1c0,0,0.1,0.8,0.2,0c0,0,0.1,0.9,0.2,0.1
	c0,0,0,0.1,0.2,0.2c0,0,0.1,0,0.1,0.1c0,0.2-0.1,0.7,0.2,1.2c0,0,0,0.1-0.1,0.1c-0.4,0-1.5-0.1-1.8,0.4c0,0,0,0-0.1,0
	c-0.1,0-0.1,0-0.2-0.2c0,0-0.3,0-0.2,0.8c0,0,0,0,0,0C0.1,12.9,0,13,0,13.2c0,0,0,0.1,0,0.1c0,0.3,0.1,1.3,1.6,1.1
	c0.1,0,0.2,0,0.2,0.1c0.2,0.2,0.8,0.7,2.2,0.5c0.1,0,0.2,0,0.3,0c0.7,0.2,3.7,1,4.7,3.9c0,0,0.9,2.8,2.3,4.3
	c0.1,0.1,0.2,0.3,0.2,0.4c0,0.4,0.1,1.2,0.5,1.7c0.1,0.1,0.1,0.3,0.1,0.4c-0.1,0.4-0.3,1.2-0.3,1.9c0,0.3-0.1,0.6-0.3,0.8
	c-0.5,0.5-1.3,1.5-1.7,2.2c-0.1,0.2-0.2,0.3-0.3,0.4c-0.3,0.3-0.8,0.8-1,1.7c0,0-0.4,1.4,0.6,2c0,0,0.5,0.2,0.2-0.3
	c0,0-0.4-1.1,0.1-0.7c0,0,0.5,0.8,1,0.4c0,0,0-0.1,0-0.1c-0.2-0.1-0.7-0.6-0.5-0.6c0,0,0.6,0.3,0.4-0.1c0,0-0.7-0.6-0.2-1.1
	c0,0,0.1-0.1,0.2-0.2c0.2-0.3,0.4-0.5,0.6-0.7c0.6-0.5,1.7-1,3.1-0.8c0,0-0.4,0.1-0.5,0.4c0,0,0,0.1-0.1,0.1
	c-0.2,0.1-0.8,0.3-0.7,0.7c0,0,0.1,0.1,0.1,0c0.2-0.1,0.7-0.5,1-0.4c0,0,0,0,0.1,0c0.1,0,0.6-0.1,1-0.5c0.1-0.1,0.3-0.2,0.5-0.2
	c0.9,0.1,3.6,0.2,3.5-2c0,0,0.4-0.5,0.4,0.6c0,0,0.1,1.3,0.3,2.2c0,0,1.4,6.6-3.1,8.3c0,0-1.5,0.5-1.1,1.3c0,0-0.1,0.2,0,0.4
	c0.1,0.1,0.2,0.1,0.2,0c0.2-0.2,0.6-0.5,0.7-0.3c0,0,0.4,0.4,1,0c0,0,0.3-0.2,0.3,0.4c0,0,0,0,0,0c0.1,0.1,0.4,0.3,0.6-0.2
	c0,0,0,0,0.1,0c0.1,0.1,0.5,0.2,0.8-0.1c0,0,0.7-0.5,1.1-0.6c0,0,0.2,0,0.3-0.3c0,0,0.2-1.5,0.5-1.1c0,0,0.6,1.1,1.1,0.6
	c0,0,0,0,0-0.1c-0.2-0.2-1.1-1.4-0.4-2.2c0,0,0.9-1.7,0.8-3.3c0,0-0.1-1.2,0.9-2.6c0,0,0.3-0.5,0.5-1.8c0,0,2.2-0.8,2.3-0.5
	c0,0,0.9,2.9,4.3,3.9c0,0,0.6,0.3,0.9,1c0,0,1.7,2.6,0.9,3.4c0,0-0.5,0.3-0.9,0.4c0,0-0.9,0.2-0.9,0.8c0,0,1.2-0.3,1.2,0.5
	c0,0,0.9,0.2,1.8-0.7c0,0,0.2-0.1,0.2,0.6c0,0,0,0.4,0.5,0c0,0,0.7,0.3,0.7-0.5c0,0,1-1.4,0-2.8c0,0,0-1.2-1.5-3
	c0,0-0.6-0.5-0.7-2.2c0,0-0.5-1.7-1.7-2.3c-0.1-0.1-0.2-0.2-0.1-0.3c0.2-0.3,0.6-0.7,1.1-0.7c0.1,0,0.3,0,0.4,0.1
	c0.4,0.3,2.2,1,5.5-0.8c0.4-0.2,0.8-0.4,1.3-0.4c0.9-0.1,2.3,0,3.7,1c0,0,2.8,1.3,4.6,3.4C47.7,30.9,48.2,31.1,47.9,30.6z M6.9,9.1
	C6.8,9.1,6.7,9,6.7,8.9s0.1-0.3,0.2-0.3c0.1,0,0.2,0.1,0.2,0.3S7,9.1,6.9,9.1z M16.5,28.6c-1.3,0.9-2.4,0.4-2.4,0.4
	c-0.4-0.1-0.1-0.5-0.1-0.5c0.3-0.4,0.7-1.7,0.7-1.7c1.3-0.2,1.9,1.5,1.9,1.5C17,28.7,16.5,28.6,16.5,28.6z"/>
</svg>
