<?xml version="1.0" encoding="utf-8"?>
<!-- Generator: Adobe Illustrator 19.1.0, SVG Export Plug-In . SVG Version: 6.00 Build 0)  -->
<svg version="1.1" id="Layer_1" xmlns="http://www.w3.org/2000/svg" xmlns:xlink="http://www.w3.org/1999/xlink" x="0px" y="0px"
	 viewBox="0 0 48 48" style="enable-background:new 0 0 48 48;" xml:space="preserve">
<style type="text/css">
	.st0{fill:#808080;}
</style>
<path class="st0" d="M47.7,28.7l-0.8-2.1c-0.1-0.2-0.1-0.4,0-0.5c0.2-1,0.9-4.4,0.5-5.8c0-0.1,0-0.2-0.1-0.3c-0.1-0.7-0.9-4-8-4.5
	c0,0-0.1,0-0.1,0l-12.1,0.3c-0.1,0-0.2,0-0.3-0.1c-0.7-0.6-5-3.7-9.4-0.2c0,0-0.1,0-0.1,0.1c-0.4,0.2-2.5,1.4-5.8-0.8
	c-0.1-0.1-0.2-0.2-0.1-0.4c0.2-0.4,0.7-1.3,0.3-1.6c0,0-1.7-0.6-2.3,0.6c0,0.1-0.1,0.1-0.2,0.1c-0.3,0-0.9-0.1-0.7-0.5
	c0,0,6.1-7.5,6.3-8.1c0,0-6.1,6.1-7.4,7.2c0.1-0.1,5.2-6.9,5.1-7.5c0,0-5.4,5.5-7,7c-0.2,0.2-0.6,0.3-0.8,0.1
	c-0.3-0.2-0.6-0.3-0.1,0.3c0.1,0.2,0.1,0.4-0.1,0.6c-0.5,0.4-1.4,1.4-1.8,2.9c-0.2,0.6-0.4,1.1-0.7,1.6c-0.5,1-1.3,2.4-1.8,3
	c0,0-1.2,1.5,0.9,2c0,0,0.8,0.4,1.2,0.1C2.5,22.1,2.6,22,2.7,22c0.7-0.3,2.6-1.3,3.6-2.3c0.2-0.2,0.5-0.2,0.7,0
	c0.2,0.2,0.5,0.6,0.6,1.4c0,0,0.7,4.2,0.4,6.2c0,0.3,0.2,0.6,0.5,0.6c0.7,0,1.9-0.2,2.5-1.2c0.1-0.2,0.4-0.4,0.7-0.3
	c1.5,0.2,6.1,1.5,4.2,11.3c0,0,0,1.4-1.8,2.4c0,0-0.8,1,0.6,0.9c0,0,2.1,0.4,2.1-1.7c0,0,0.2-0.2,0.3,0.3c0,0,0.3,0.3,0.2-0.9
	c0,0-0.1-2.7,1.1-4.8c0.1-0.1,0.3-0.1,0.3,0.1c0.3,1.7,1,7.3-1.9,8.8c0,0-0.1,0-0.1,0.1c-0.1,0.1-0.3,0.4,0.2,0.3
	c0,0-0.4,0.4-0.1,0.4c0,0,2.9,0.6,2.8-2c0-0.1,0.1-0.2,0.2-0.2c0.1,0,0.2,0.1,0.2,0.3c0,0,0.2,0.6,0.1-1c0,0,0.4-4.7,2.6-9.9
	c0.1-0.3,0.4-0.5,0.7-0.4c1.9,0.3,8.7,1,12.9-1.4c0.5-0.3,1-0.2,1.4,0.2c1.6,1.5,5.3,5.6,1.8,10c-0.1,0.2-0.3,0.3-0.5,0.4
	c-0.4,0.2-1.1,0.5-1,0.8c0,0,0.3,0,0.1,0.2c0,0,2.1,1.3,3-1.1c0,0,0.6-0.1,0.2,0.9c0,0-0.5,0.9-1.4,1.7c0,0-1.2,0.5-1.1,1
	c0,0,0.6,0,0.2,0.2c0,0-0.2,0.3,0.4,0.3c0,0,2.3,0.4,2.7-1.7c0-0.1,0.1-0.1,0.1-0.1c0.1,0,0.2,0,0.1,0.4c0,0,0.3,0.5,0.4-0.7
	c0,0,1-4.7,2-7c0,0,0.4-0.6-0.3-1.6c0,0-0.9-1.7-0.3-3.7c0,0,2.4-4.4,2.6-8.4c0,0,0.4-0.4-0.1,2c0,0-0.5,2.6-0.6,3.6
	c0,0.1-0.1,0.3-0.1,0.4c-0.3,0.7-1.2,2.8-1.2,4.3c0,0.1,0.1,0.2,0.2,0.2c0.2,0,0.5,0.1,0.6,0.5c0,0,0,0,0,0.1
	c0.1,0.1,0.6,0.4,0.5-0.8c0-0.1,0.2-0.1,0.2,0c0.1,0.1,0.1,0.3,0.1,0.7c0,0,0,0,0,0c0.1,0.1,0.3,0.2,0.3-0.3c0-0.1,0-0.1,0.1-0.1
	c0.1,0,0.2,0.1,0.2,0.6c0,0,0.3,0.5,0.1-1.7c0-0.1,0.1-0.2,0.2,0c0.1,0.2,0.1,0.6,0.1,1.4C47.7,31.3,48.3,31.9,47.7,28.7z M5.3,15.8
	c0,0,0.1-1.3,1.8-1C7.1,14.8,6.7,16.2,5.3,15.8z"/>
</svg>
