<?xml version="1.0" encoding="utf-8"?>
<!-- Generator: Adobe Illustrator 19.1.0, SVG Export Plug-In . SVG Version: 6.00 Build 0)  -->
<svg version="1.1" id="Layer_1" xmlns="http://www.w3.org/2000/svg" xmlns:xlink="http://www.w3.org/1999/xlink" x="0px" y="0px"
	 viewBox="0 0 48 48" style="enable-background:new 0 0 48 48;" xml:space="preserve">
<style type="text/css">
	.st0{fill:#808080;}
</style>
<path class="st0" d="M47.1,16.2c0,0-1.6-3.1-8.8-6.6c0,0-4-2.5-9.6-2.7c0,0-5.6-0.3-7.9-0.9c-0.1,0-0.1,0-0.2-0.1
	c-0.6-0.3-4.8-2-7,0C13.5,6,13.4,6,13.4,6C13,6.2,11.7,6.9,12,8.7c0,0.1,0.1,0.2,0.1,0.3C12.2,9,12.2,9.2,12,9.6l-0.6,2.1
	c0,0.1-0.1,0.2-0.2,0.2c-0.5,0.2-2.2,1.2-2.2,3.7c0,0.2,0,0.4-0.1,0.6C8.5,17.5,7,22.5,7,24.5c0,0.1,0,0.1-0.1,0.2
	c-0.5,0.2-2.6,0.7-6.2-0.3c-0.1,0-0.1,0-0.2,0c-0.1,0.1-0.3,0.2-0.2,0.6c0,0,0,0.1,0.1,0.1c0.4,0.1,2.8,0.9,4.9,0.9
	c-1.1,0-3.1,0-4.9-0.8c0,0-0.1,0-0.1,0c-0.2,0.1-0.6,0.4,0,0.8c0,0,4.2,1,6.2,0.1c0.1-0.1,0.3,0,0.3,0.2c-0.1,1.4-0.3,6.6-0.2,7.8
	c0,0-0.1,5.8,3.1,7.2c0,0,1.8,0.4,2.5-0.2c0,0-0.2-0.1-0.4,0.1c0,0,0.5-1.3-0.6-1.4c0,0-0.3,0.4-0.9,0.2c-0.5-0.3-1.3-2.4-0.8-6.6
	c0-0.1,0-0.2,0.1-0.3c0.2-1.2,1.7-8,3.1-10c0-0.1,0.2,0,0.2,0c0,0.6,0.1,1.8,0.6,1.5c0,0,0.7-0.6,0.9-1.4c0.1-0.2,0.2-0.4,0.3-0.5
	c0.4-0.4,1.1-0.9,1.2-0.7c0,0,0.4,0.2,1,0c0.1,0,0.2,0,0.3,0c0.2,0,0.6,0.1,0.9,0.1c0.3,0,0.6,0.2,0.7,0.5c0.2,0.4,0.7,0.8,1.6,1
	c0,0,0,0,0,0c0,0-1.2,3.8,0.1,7.2c0,0,1.2,3.7,1.2,5c0,0.1,0,0.1,0,0.2c0,0.1-0.1,0.4,0.1,0.7c0,0,0.5,0.9,0,1.7
	c0,0-0.1,0.1-0.1,0.1c-0.2,0.2-0.7,0.9-0.9,1.1c0,0-0.1,0.1-0.1,0.1c-0.1,0-0.2,0.2-0.1,0.5c0,0,0,0,0,0c0,0-0.2,0.8,0.4,1.1
	c0,0,0,0,0,0c0,0.1,0.3,0.6,1.2,0.1c0,0,0.1,0,0.1,0c0.1,0.1,0.3,0.3,1.6-0.4c0,0,0.1,0,0.1,0c0.4,0,2.3,0.1,2.1-0.8
	c0,0-0.1-1-0.8-2c-0.2-0.2-0.2-0.5-0.2-0.8c0.2-1.6,0.8-7,0.7-8.8c0-0.1,0.1-0.1,0.2,0c0.5,1,1.6,3.4,2,6.5c0,0,0,1,0.6,1.7
	c0.1,0.1,0.1,0.1,0.1,0.2c0.2,0.4,0.7,1.8,0.3,2.9c-0.1,0.2-0.2,0.3-0.3,0.5c-0.3,0.3-0.9,1.1-0.5,2c0,0,0.2,0.7,0.6,0.6
	c0,0,0.1,0,0.1,0c0.2,0.1,0.9,0.5,1.5,0c0,0,0.1,0,0.1,0c0.3,0.1,1.2,0.5,2.1-0.2c0,0,0.1,0,0.1,0c0.3,0,1.7-0.1,0.9-2
	c0-0.1,0-0.2,0.1-0.2c0.4,0,1.1-0.2,1.2-1.2c0,0,0-1.7,0.4-2.4c0,0,2-4.8,3.3-6c0.1-0.1,0.2-0.1,0.4-0.1c0.1,0,0.3,0.1,0.4,0.1
	c0.1,0,0.3,0.1,0.3,0.2c0.1,0.8,0.2,3.5-0.2,4.5c0,0-0.6,1.3-0.7,3c0,0.2-0.1,0.4-0.1,0.5c-0.1,0.3-0.4,0.9-0.6,1.2
	c-0.1,0-0.1,0.1-0.1,0.2c-0.1,0.3-0.2,1,0.2,1.1c0,0,0.7,0.7,1.6,0.1c0,0,1.2,0.4,1.5-0.3c0,0,1.1-0.1,1.1-0.8c0,0,0.3-0.9-0.5-1.8
	c0,0-0.2-0.1,0.1-0.7c0,0,0.5-4,1.9-5.9c0,0,2.9-4.5,3.9-8.7C47.7,23.3,48.7,18.5,47.1,16.2z M12.2,15c0,0,0-0.9,0.8-0.6
	C13,14.4,13,15.1,12.2,15z M33.7,31.9c0,0-0.7,2.6-1.3,3.2c0,0-0.8-5.6-0.4-5.9c0,0,1.5-0.1,1.5,0.7C33.6,29.8,33.9,31.4,33.7,31.9z
	"/>
</svg>
