<?xml version="1.0" encoding="utf-8"?>
<!-- Generator: Adobe Illustrator 19.1.0, SVG Export Plug-In . SVG Version: 6.00 Build 0)  -->
<svg version="1.1" id="Layer_1" xmlns="http://www.w3.org/2000/svg" xmlns:xlink="http://www.w3.org/1999/xlink" x="0px" y="0px"
	 viewBox="0 0 48 48" style="enable-background:new 0 0 48 48;" xml:space="preserve">
<style type="text/css">
	.st0{fill:#808080;}
</style>
<path class="st0" d="M41.4,15.2c0,0-1.2-0.6-2.2-0.7c-0.1,0-0.1-0.2,0-0.2c0.1,0,0.4,0,0.8,0.1c0,0-0.2-0.5-1.1-0.9
	c0,0,0.8-0.1-0.1-0.7c0,0-21.9-13.3-29.4,6.5c0,0-3.4-8-8.1-0.7c0,0-0.2,0.4-1.4,0.4c0,0-0.3,0.8,1.3,1.4c0,0-0.4,1.7,0.4,2.4
	c0,0,0-0.8,0.7-1.4c0.2-0.1,0.4-0.1,0.6,0.1c0.7,0.8,3.2,3.3,5.3,2.4c0.1,0,0.1,0,0.2,0c0.2,0.1,0.8,0.2,1.6,0.9
	c0,0,1.9,0.2,1.4-1.2c0-0.1,0-0.3,0-0.5c0.1-0.5,0.6-1.3,2.2-1.3c0,0,0.4-0.1,0.3,2.3c0,0,0,0.7-0.3,1c-0.1,0.1,0,0.2,0,0.2
	c0.4,0.2,1.3,0.4,1.7-0.9c0,0,0.7,0.3,1.3,0.2c0.2,0,0.3,0,0.4,0.1c0.5,0.5,1.6,1.5,2.1,0.7c0.1-0.1,0.2-0.2,0.4-0.2
	c0.5,0.1,1.7,0.3,2.7,0.2c0.1,0,0.1,0.1,0.1,0.1c-0.1,0.4-0.4,1.5,0.1,2.4c0.1,0.1,0.1,0.3,0.1,0.5c0,0.3,0,0.8-0.3,1.5
	c0,0-1.6,5.4-2,4.8c0,0-1-1.3-1.1-0.8c0,0-0.2,0.6,0.4,1c0,0,0.2,0.2-3,0.1c0,0-0.1,0-0.1,0c-0.2,0-0.8-0.1-0.9,0.5
	c0,0,0.4-0.3,0.5-0.1c0,0-0.1,0.2,0.4,0.3l2.2,0.3c0,0-0.9,0.3-0.5,0.8c0,0,0.1-0.2,0.3-0.2c0,0,2.3,0.1,3-0.4c0,0,0.3-0.3,0.3-0.7
	c0-0.1,0.1-0.2,0.2-0.1c0.1,0.1,0.1,0.2,0.2,0.5c0,0,0.5,0.4,0.5,0.5c0,0,0.6-0.5-0.3-1.5c0,0-1,0,1.6-6c0,0,0.5-1.5,0.6-2
	c0,0,0.4-0.6,0.7,1.7c0,0,0,0.2,0.4,0.7c0.1,0.1,0.1,0.2,0.1,0.3c0,0.8-0.1,3.8-1.1,5.8c0,0-0.3,0.6-0.4,0.9c0,0.1-0.1,0.2-0.2,0.3
	c-0.3,0.1-0.8,0.2-1.6,0c0,0-1.1-0.2-1,0.6c0,0-2.2,0-2.2,0.9c0,0,0.2,0,0.5-0.2c0,0,0,0.4,2.1,0.2c0,0,2.4-0.2,2.2,0
	c0,0-0.5,0.7,0.2,0.8c0,0,0.8-0.7,1.2-1c0,0,0.5-0.2,0.5-1.1c0,0,0.7,0.2,0.8,0.7c0,0,0.7-0.4-0.4-1.4c0,0-0.2-2.4,1.1-6.5
	c0-0.1,0.2-0.2,0.3-0.1c0.4,0.5,1.6,1.5,3.8,1c0,0-1.5-0.9-2.1-2.4c0.1,0.1,2.5,3,4,2.2c0.4-0.2,0.6-0.3,0.7-0.3l0,0c0,0,0,0,0,0
	c0,0,0,0,0,0c0.2-0.2,0.4-0.6,0.2-1.1c0,0,1,1.1,1.8-0.4L32,25.3c0.1,0.1,3.8,2.7,4.1,2.5c0,0,0.9-0.5,0.7-0.7c0,0-3.2-3-4.6-3.6
	c0,0,0.1-0.6,3.5,1.1c0,0-0.3-0.3,0-0.5c0,0,1.7,1.3,1.9,0.9c0,0,0.3-1-2.1-2.9c0,0-0.1-2,1.6-1.1c0,0,5.3,2.5,6.8,1.2l-1.1-0.6
	c0,0,2.3-1.5,3.6,0.4c0,0,1.3,1.5,1.5-0.7C48,21.2,42.6,15.6,41.4,15.2z M3.8,18.8C3.6,19,3.4,19.1,3.2,19c-0.2-0.1-0.2-0.4-0.1-0.5
	c0.1-0.2,0.4-0.3,0.5-0.2C3.9,18.4,3.9,18.6,3.8,18.8z"/>
</svg>
