<?xml version="1.0" encoding="utf-8"?>
<!-- Generator: Adobe Illustrator 19.1.0, SVG Export Plug-In . SVG Version: 6.00 Build 0)  -->
<svg version="1.1" id="Layer_1" xmlns="http://www.w3.org/2000/svg" xmlns:xlink="http://www.w3.org/1999/xlink" x="0px" y="0px"
	 viewBox="0 0 48 48" style="enable-background:new 0 0 48 48;" xml:space="preserve">
<style type="text/css">
	.st0{fill:#808080;}
</style>
<path class="st0" d="M40,21c0,0-5.6-1-4.6-4.7c0-0.1,0-0.1,0-0.2c0-0.4,0.5-2.1,4.6-1.9c0,0,2.6-0.1,4.5-0.9c0,0,1.3-0.6,1.5-1.3
	L48,12c0-0.1-0.7-0.2-0.7-0.2c-0.1,0,0-0.1,0-0.1c0.4,0,0.7-0.4,0.7-0.4c-0.5,0.2-1.5,0.3-2,0.3l0,0c-0.1-0.6-1-1.2-3.9-1.5
	c0,0-9.1,0.5-9.7,5.3c0,0.1,0,0.2-0.1,0.4c-0.2,0.9-1,5.8,6.1,8.2c0,0,8.9,3.9,1.9,8.8c-0.2,0.2-0.5,0.3-0.7,0.3
	c-1.9,0.4-9.6,1.6-9.1-3.8c0-0.3,0.1-0.6,0.3-0.9c0.8-1.3,3-6.1-1.3-10c-0.1-0.1-0.2-0.2-0.3-0.2c-1-0.6-6.1-3.4-9.5,2.5
	c0,0-0.1,0.1-0.1,0.1c-0.2,0.4-1.3,2.7-1.7,5.4c0,0.1-0.1,0.3-0.1,0.4c-0.4,1.1-2.3,5.7-6.7,3.1c-0.3-0.2-0.5-0.4-0.7-0.7
	c-0.4-0.8-0.8-2.6,1.9-4.5c0.1-0.1,0.2-0.1,0.3-0.2c0.8-0.4,5.9-3,6.7-5.8c0,0,2.2-5.7-3.2-8c0,0-5.5-2.1-8.7,2.6
	c0,0-1.5,1.8,0.5,4.8c0,0,2,3.1-0.8,3.7c0,0-0.6,0.3-3.6,0.8c0,0-3.2,0.4-3.2,2.3c0,0,0.1-1.6,3.1-2c0,0,3.4-0.1,4.6-0.7
	c0,0,3.1-0.6,0.6-5.3c0,0-2-3.2,3.2-4.7c0.1,0,0.3-0.1,0.4-0.1c1-0.1,4.8-0.1,5,3.8c0,0,0.2,2.7-3.7,4.3c0,0-8.2,3.5-6.9,8.8
	c0,0,0.9,7,9.3,5.4c0,0,4.3-0.7,6.1-6.9c0,0,0.8-6.4,3.4-6.1c0,0,4.2,0,1.7,5.3c0,0-2.5,4.9,1.4,8.5c0,0,4.2,4.2,12.3,2.1
	c0,0,7.6-3,6.1-9.4C46.7,27.9,46.2,23.3,40,21z M43.7,13.3c0,0.1-0.1,0.2-0.3,0.2c-0.2,0-0.3,0-0.4-0.1c0-0.1,0.1-0.2,0.3-0.2
	C43.5,13.1,43.7,13.2,43.7,13.3z M43,10.4c0.2,0,0.3,0.1,0.3,0.2c0,0.1-0.1,0.2-0.3,0.2c-0.2,0-0.3-0.1-0.3-0.2
	C42.7,10.5,42.8,10.4,43,10.4z"/>
</svg>
