<?xml version="1.0" encoding="utf-8"?>
<!-- Generator: Adobe Illustrator 19.1.0, SVG Export Plug-In . SVG Version: 6.00 Build 0)  -->
<svg version="1.1" id="Layer_1" xmlns="http://www.w3.org/2000/svg" xmlns:xlink="http://www.w3.org/1999/xlink" x="0px" y="0px"
	 viewBox="0 0 48 48" style="enable-background:new 0 0 48 48;" xml:space="preserve">
<style type="text/css">
	.st0{fill:#808080;}
</style>
<path class="st0" d="M20.9,28.8l0.7-2c0,0,0-0.1-0.1-0.1l-0.1,0c-0.1,0-0.2,0-0.2,0.1c0,1.4-1.3,3-1.6,3.4c-0.1,0.1-0.1,0.2-0.1,0.3
	c-0.8,4.5-4.8,6.2-4.8,6.2C11.3,37.4,7.2,28,7.2,28C5,22.9,1.7,15.8,1.1,14.6c-0.1-0.1-0.1-0.2-0.2-0.3c-2-2.9-0.3-4,0-4.2
	c0,0,0.1,0,0.1,0c10.9-3.8,21.5,8.1,21.5,8.1c0.1,0.3,0.3,0.2,0.4,0.1c0,0,0.1-0.1,0.2-0.1c0.4,0-0.5-1.3-0.5-1.3
	c-0.3-0.5-0.2-1.8-0.2-1.8c0-0.3-0.1-1.7-0.1-1.7c0.3-0.4,0.3,1.9,0.3,1.9c0,1,0.2,1.5,0.2,1.5c0.2,0.2,0.7,1.3,0.7,1.3
	c0.1,0.2,0.3,0,0.3,0c-0.5-0.2,0-0.4,0-0.4c-0.5-0.3-0.2-0.7-0.2-0.7c0.2-0.3,0.6-0.2,0.7-0.2v-0.6c0,0,0-1-0.1-1.2L23.8,13
	l-0.3-1.2c0,0-0.3-1-0.3-1.1l-0.6-1c0,0,0-0.1,0.1,0l0.6,1c0,0,0.2,0.5,0.2,0.7c0.1,0.2,0.3,1.2,0.3,1.2l0.3,1l0.3,1.1
	c0,0,0.2,0.6,0.2,0.9l0,1.2c0.2-0.3,0.5-0.3,0.5-0.3c0,0.1,0,0.1,0,0.2l0.4-0.4c0,0,0.6-0.5,0.8-0.6l1.2-0.9l1.3-0.9
	c0,0,0.7-0.6,1.3-0.8c0,0,1.2-0.4,1.2-0.2l-1,0.3c0,0-0.9,0.4-1,0.5c-0.1,0.1-0.6,0.5-0.6,0.5l-0.9,0.6l-0.9,0.7l-1,0.7L25,16.8l0,0
	c0,0.2,0,0.3,0,0.3c0.7,0.6-0.1,0.9-0.1,0.9c-0.2,0-0.2,0.1-0.2,0.1c0.3,0.2-0.1,0.3-0.1,0.3c-0.1,0.1,0.1,0.2,0.2,0.2
	c0.1,0,0.1,0,0.2,0l1.3-0.3c0.3-0.1,0.7,0,0.7,0s-0.1,0.1,0,0c0.2-0.1,0.8-0.4,0.8-0.4c0.6-0.2,0.2,0.1,0.2,0.1
	c-0.9,0.2-0.9,0.5-0.9,0.5c11-2.6,18.1,2.6,18.1,2.6c4.2,2.4,2.4,4.3,2.4,4.3c-0.3,0.5-1.8,1.4-1.8,1.4c-2,0.9-6.3,3.7-6.3,3.7
	c-3.2,2.3-4.8,2-5.4,1.7c-0.1,0-0.2,0-0.2,0.1c0,2.2-3.4,3.2-3.4,3.2c-2.2,0.2-3,0.8-3.3,1.2C27,37.1,27,37.2,27,37.4l0,0
	c0,1.2-0.7,0.9-0.7,0.9c-1.2,0.8-1.9,0.3-1.9,0.3c-0.4-0.5-1.3-0.6-1.9-0.6c-0.3,0-0.5-0.2-0.4-0.5c0.1-0.6,0.1-1.6,0.1-1.6
	c-0.1-1.4-1,0.7-1,0.7c-0.9-0.5-1.3-2.4-1.4-3.1c0-0.2-0.1-0.4-0.2-0.5C19,31.9,20,30.6,20,30.6S20.6,28.9,20.9,28.8z"/>
</svg>
