<?xml version="1.0" encoding="utf-8"?>
<!-- Generator: Adobe Illustrator 19.1.0, SVG Export Plug-In . SVG Version: 6.00 Build 0)  -->
<svg version="1.1" id="Layer_1" xmlns="http://www.w3.org/2000/svg" xmlns:xlink="http://www.w3.org/1999/xlink" x="0px" y="0px"
	 viewBox="0 0 48 48" style="enable-background:new 0 0 48 48;" xml:space="preserve">
<style type="text/css">
	.st0{fill:#808080;}
</style>
<path class="st0" d="M29.6,14.2c0.4,0.2-2-0.6-2.7-0.4c0,0,0.4,0.3,0.7,0.4c0,0,0,0,0,0c-0.5-0.1-2.2-0.2-2.5-0.1
	c0,0,0.2,0.4,1.1,0.5c0,0,0,0,0.1,0c1,0.1-2.1-0.1-2.3,0.1c0,0,0.2,0.1,0.4,0.2c0,0-1.9,0-2.1,0.4c0,0-0.1,0.1-0.1,0.1
	c-0.6,0.1-3.9,0.4-4.5,0.6c0,0,0.1,0.2,0.5,0.2c-0.3,0-1-0.1-1.3,0.3c0,0,0.5-0.1,0.6,0.2h-1.4c-0.1,0-0.1,0-0.1,0.1
	c0,0.1-0.1,0.2-0.3,0.2c0,0-0.6-0.1-0.9,0.2c-0.1,0-0.1,0.1-0.2,0.1c-0.3,0-1,0-1.1,0.3c0,0,0,0-0.1,0.1c-0.1,0-0.5,0.1-0.6,0.2
	c0,0,0,0-0.1,0c-0.2,0-0.7,0-0.8,0.3c0,0,0,0-0.1,0c-0.1,0-0.5,0-0.6,0.2c0,0,0,0-0.1,0c-0.1,0-0.4-0.1-0.5,0c0,0-0.1,0-0.1,0
	c-0.9-0.1-10.1-1.1-2.1,4.9c0,0-7.7-1.3-7.9-0.7c0,0-3.6,13.4,6.7,8.5c0.2-0.1,0.4,0,0.4,0.2c0.2,0.5,0.9,1.2,4,0.6
	c0.4-0.1,0.8-0.1,1.1-0.1c2.3,0.2,10.7,0.9,15-0.8c0.4-0.1,0.7,0.2,0.6,0.6c0,0,0,0,0,0c-0.1,0.3-0.2,0.7-0.1,1.1
	c0.1,0.8,0.5,1.9,1.4,1.2c0,0,0.3,0-0.6,0.8c0,0,0,0.1,0.2,0c0,0,0.9-0.6,0.4-0.1c0,0,0.1,0.1,0.5-0.2l0.8-0.8c0,0,0.3,0.1,0.7-0.4
	c0,0,2.2-2.9,2.3-2.4c0,0,1.5-0.7,1.9,0.7c0,0,1.1,0.3,0.3-0.7c0,0-0.8-0.2-0.8-0.9c0-0.3,0.2-0.5,0.4-0.7c1.9-1,13.7-7,12-9.2
	c0,0-0.2,0,0-0.2c0,0,0.1-0.1,0-0.2c0,0-2-2.8-11.8-4.1c-1-0.1-2-0.5-2.9-1.1c-0.7-0.5-1.5-1-1.9-1c0,0,0.5,0.8,0.3,0.8
	c0,0-2.1-1-2.6-1c0,0,0,0,0,0.1C28.9,13.5,29.6,14.2,29.6,14.2z M44.6,19.5c0.7,0,1.3,0.6,1.3,1.3c0,0.7-0.6,1.3-1.3,1.3
	c-0.7,0-1.3-0.6-1.3-1.3C43.3,20,43.9,19.5,44.6,19.5z"/>
</svg>
