<?xml version="1.0" encoding="utf-8"?>
<!-- Generator: Adobe Illustrator 19.1.0, SVG Export Plug-In . SVG Version: 6.00 Build 0)  -->
<svg version="1.1" id="Layer_1" xmlns="http://www.w3.org/2000/svg" xmlns:xlink="http://www.w3.org/1999/xlink" x="0px" y="0px"
	 viewBox="0 0 48 48" style="enable-background:new 0 0 48 48;" xml:space="preserve">
<style type="text/css">
	.st0{fill:#808080;}
</style>
<path class="st0" d="M32.2,16c0,0,8.1-2.3,11.2-6.4c0,0,6-5.8,1.4-5.3c0,0-2,0-7.1,3.7c-0.5,0.4-1,0.7-1.6,0.9
	c-2.4,1-9.3,4.1-10.2,6.1c0,0,0.4-1.3-1.5-2.9c0,0,0.8-2.2-1.2-2.3c0,0-0.6-1.2-2-0.2c0,0-1.3,0.3-1.1,1.5c0,0-1.5,2.4,1.2,2.4
	c0,0-0.8,1.2,0.2,2.7c0,0-5.8,0.5-11.1,3c-0.4,0.2-0.8,0.3-1.3,0.3c-2.1,0.1-8.5,0.8-8.9,3.6c0,0,5.9,4.5,18.1-1.5
	c0,0-4.3,3.4-7.6,4.2c0,0-7.6,3.6-5.3,5.6c0,0,8.8,0.4,15.7-3.7c0,0,5.2-2.4,4.3-5.9L35,42.2c0,0,0.2,1.4,1.1,1.5
	c0,0-0.6-1.2-0.4-1.7l0.3-0.2c0,0,0.9,0.8,1.1,1.3c0,0,0.3-0.8-0.5-1.6l-9-19.9c0,0,1.2,2.4,6.9,0.6c0,0,7.1-1.6,12.9-6.9
	c0,0,3-3.7-4-2.3C43.3,13.1,35.4,16.5,32.2,16z"/>
</svg>
