<?xml version="1.0" encoding="utf-8"?>
<!-- Generator: Adobe Illustrator 19.1.0, SVG Export Plug-In . SVG Version: 6.00 Build 0)  -->
<svg version="1.1" id="Layer_1" xmlns="http://www.w3.org/2000/svg" xmlns:xlink="http://www.w3.org/1999/xlink" x="0px" y="0px"
	 viewBox="0 0 48 48" style="enable-background:new 0 0 48 48;" xml:space="preserve">
<style type="text/css">
	.st0{fill:#808080;}
</style>
<path class="st0" d="M47.3,11.9l-1.1-1C46,10.8,46,10.7,46,10.5c-0.1-0.9-0.7-3.8-5.5-2.7c0,0-1.5,0.5-2.3,1.9
	c-0.1,0.2-0.2,0.4-0.4,0.6c-0.4,0.6-1.2,1.8-1.8,2.8c-0.3,0.5-0.6,0.9-0.9,1.2c-0.7,0.7-1.9,1.7-3.5,2.5c-0.2,0.1-0.4,0.2-0.5,0.3
	c-0.6,0.4-1.9,1.2-2.8,1.9c-0.5,0.4-1.1,0.8-1.8,1c-1.2,0.5-3.2,1.4-4.1,2.1c-0.5,0.3-0.9,0.6-1.4,0.9l-4.6,2.5
	c-0.2,0.1-0.4,0.2-0.5,0.3c-0.9,0.4-3.9,1.9-3.4,3.6c0,0.1,0,0.3-0.2,0.3C10.7,30.3,2.2,33,0.7,34.5c0,0,0,0,0,0.1
	c0,0.1-0.1,0.5,0.2,0.5C1,35,1,35,1,35.1c0,0.2,0,0.7,1,0.4c0.1,0,0.2,0,0.2,0c0.6,0,2.7-0.2,2.5,0.1c0,0-4.7,3.1-4.7,3.6
	c0,0,0.2,0.1,0.7-0.2c0,0,4.4-2.2,4.2-1.8c0,0-3,2.2-4.3,2.6c-0.1,0-0.1,0.1,0,0.1c0.2,0,0.5,0.1,0.8-0.1l0.7-0.4
	c0.1-0.1,0.2,0,0.3,0c0.1,0.1,0.4,0.1,0.7-0.3c0,0,1-1.4,9.3-3.9c0.2-0.1,0.3-0.1,0.5-0.1c1.1,0,5.5-0.2,7.3-0.7
	c0.1,0,0.3-0.1,0.5,0c0.4,0.1,1.2,0.2,2-0.1c0.1,0,0.3-0.1,0.4-0.1c0.7,0,2.3-0.1,2.2,0.4c-0.1,0.1-0.1,0.3-0.1,0.4
	c0,0.7,0.1,2.5,1.6,2.9c0.2,0,0.4,0.1,0.5,0.3c0.3,0.3,0.7,0.6,0.4,0.6c-0.1,0-0.3,0-0.4,0.1c-0.2,0.2-0.5,0.6-0.2,0.8
	c0,0,1.4,0.1,1.6,0.5c0.1,0.1,0.1,0.1,0.2,0.1h5c0,0,0.3-0.1-0.3-0.4c-0.1,0-0.1-0.1-0.1-0.2c0-0.4-0.1-1.4-1.2-0.8
	c0,0-0.8,0.1-1.2-0.4c0,0-2.6-1.8-2.5-2.6c0,0-0.4-1.9,2-2.8c0.1,0,0.2-0.1,0.3-0.2c0.7-0.4,3.1-1.8,5.1-3.7
	c1.5-1.5,2.6-3.4,3.1-5.4c0.8-3.1,2.5-9.5,3.9-10.3c0.1,0,0.1-0.1,0.2-0.1c0.4-0.3,1.7-1.2,3-0.6l1.4,0.7
	C47.9,13.7,48.4,12.7,47.3,11.9z M43.3,10.3c-0.3,0-0.6-0.2-0.6-0.5c0-0.3,0.3-0.5,0.6-0.5c0.3,0,0.6,0.2,0.6,0.5
	C43.9,10.1,43.6,10.3,43.3,10.3z"/>
</svg>
