<?xml version="1.0" encoding="utf-8"?>
<!-- Generator: Adobe Illustrator 19.1.0, SVG Export Plug-In . SVG Version: 6.00 Build 0)  -->
<svg version="1.1" id="Layer_1" xmlns="http://www.w3.org/2000/svg" xmlns:xlink="http://www.w3.org/1999/xlink" x="0px" y="0px"
	 viewBox="0 0 48 48" style="enable-background:new 0 0 48 48;" xml:space="preserve">
<style type="text/css">
	.st0{fill:#808080;}
</style>
<path class="st0" d="M47.8,27.8c0,0,0.5-1.4-0.2-1.7c0,0,0.3-0.9-0.5-2.3l-0.2-12.2c0,0-0.1-4.4-7.8-3.5C31.4,9,27.5,9.2,26.7,9
	c0,0-8.1-0.6-12.4,0.5c-0.2,0-0.3,0.1-0.5,0.1c-1,0.1-4.5,0.6-5.2,0.3c0,0-1.1-0.5-1.2-0.9c0,0-0.2-0.6-1.1-0.6c0,0-0.1,0-0.1,0
	C5.9,8.3,5.2,8.2,5,8.9c0,0-0.2,0.4-0.6,0.8C4,10,3.4,10,2.9,9.7C2.4,9.4,1.3,8.9,0.4,9.3c0,0-0.4,0.1-0.4,0.5
	c0,0.3,0.2,0.6,0.7,1.1c0,0,0.9,1.5,2.6,0.4c0,0-0.1,0.9-0.7,1.1l0.3,0c0.1,0,0.1,0.1,0.1,0.1c0,0.1,0,0.3,0.1,0.5
	c0,0,0.3,0.8,0.3,1.4c0,0,0.4,1.8-0.8,2.6c0,0-0.3,0.2-0.2,0.9c0,0-0.4,1.2,0.5,1.2c0,0,1.2,0.6,2.2,0.2c0.2-0.1,0.4-0.1,0.6-0.2
	c0.4,0,1-0.1,1.1-0.4c0,0,0.9-0.3,1.6,0.5c0.2,0.2,0.3,0.4,0.3,0.6c0.2,0.8,1.4,4.5,3.9,6.7c0,0,0.8,1.3,2.3,1
	c0.3-0.1,0.5,0.1,0.5,0.4c0,0.9,0,2.5,0.4,3.6c0.2,0.5,0.3,1.1,0.2,1.7c-0.1,1.2-0.2,3-0.1,3.3c0,0-0.7,0.2-0.7,0.8
	c0,0-1.9,1.1-1.5,1.3c0,0,0.3,0.2,0.8,0.3c0.2,0,0.3,0.1,0.5,0.2c0.5,0.2,1.7,0.5,3.1-0.3c0,0-0.1-2.1,0.3-1.2c0,0,0.8,0.3,0.3-1.1
	c0,0,0.2-0.3,0-0.9c-0.1-0.4-0.2-0.8-0.2-1.2c-0.1-1-0.1-2.5,0.1-3.3c0.1-0.2,0.1-0.5,0.1-0.7c0-0.9,0.1-2.8,0.2-3.6
	c0-0.2,0.2-0.5,0.4-0.5c0.7-0.2,2.4-0.6,4.1-0.1c0,0,4,0.7,5.8,0.7c0.3,0,0.5,0.1,0.8,0.2c0.4,0.2,1.3,0.4,2.4-0.4
	c0,0,1.7-0.9,2.8-1.2c0.4-0.1,0.9,0,1.3,0.2c0.4,0.3,1,0.6,1.4,0.6c0,0,0.2,1.9,0.6,0.4c0,0,0.5,0.5,0.5-0.6c0-0.1,0.1-0.3,0.2-0.3
	l0.2-0.1c0.1-0.1,0.3,0,0.3,0.1c0.2,0.6,0.6,2.1,1.1,2.9c0.2,0.3,0.3,0.6,0.4,1c0.4,1.5,1.2,5.1-0.1,7.8c-0.1,0.1-0.2,0.2-0.3,0.2
	c-0.2,0-0.7,0.1-0.7,0.5c0,0.2-0.1,0.3-0.2,0.4c-0.5,0.4-1.3,1.2-0.8,1.2c0,0,3,0.8,3.2-0.5c0-0.2,0.2-0.3,0.4-0.4
	c0.5-0.1,1.4-0.3,1.4-1.4c0-0.1,0.1-0.2,0.2-0.2c0.2,0,0.4,0,0.4-0.5c0,0,0.6,0.1,0.2-0.6c-0.1-0.1-0.1-0.3-0.1-0.5
	c0-1.3,0-6.8,0.5-8c0,0,0.2-0.5-0.5-1.3c0,0-1.2-3.5-0.1-5.7c0,0,1.5-6.7,1.3-8.1c0,0,0.4-1,0.4,0.9c0,0,0.5,8.8-0.3,11.2
	c0,0-0.7,3.4-0.1,4.4c0,0-0.6,1.4,0.2,1.8c0,0-0.7,3.3,0,3.6c0.1,0,0.8-0.1,0.4-1.4c0,0,0.9-1.4,0.7-2.2c0,0,0.9-0.5,0.4-1.7
	C47.6,29.2,48.3,28.4,47.8,27.8z M7.1,13.3c0,0,0.2-0.8,0.9-0.4C8,12.9,7.6,13.7,7.1,13.3z M46.2,26.5c0,0,0.2,0.6-0.2,0.6h0
	C46,27.1,46.2,26.5,46.2,26.5z M45.9,29.7l0.4-0.7l-0.1,2C46.2,30.9,45.6,30.5,45.9,29.7z M46.1,34.5l0.1-1.6
	C46.2,32.9,46.8,34.1,46.1,34.5z M46.7,32.6c-0.4-0.7,0.3-1.4,0.3-1.4C47.1,31.7,46.7,32.6,46.7,32.6z M47.2,30.7
	c-0.1,0.1,0.3-1.5,0.3-1.5S47.7,30.5,47.2,30.7z M47.9,26.6l0,1C47.4,27.5,47.9,26.6,47.9,26.6z"/>
</svg>
