<?xml version="1.0" encoding="utf-8"?>
<!-- Generator: Adobe Illustrator 19.1.0, SVG Export Plug-In . SVG Version: 6.00 Build 0)  -->
<svg version="1.1" id="Layer_1" xmlns="http://www.w3.org/2000/svg" xmlns:xlink="http://www.w3.org/1999/xlink" x="0px" y="0px"
	 viewBox="0 0 48 48" style="enable-background:new 0 0 48 48;" xml:space="preserve">
<style type="text/css">
	.st0{fill:#808080;}
</style>
<path class="st0" d="M19,3.4c0-0.5,0-1.7-0.4-1.8c0,0-1,0.5-1.2,0.8c0,0.1-0.1,0.1-0.2,0c-0.1,0-0.1-0.1-0.1-0.2
	c0,0,0.9-1.6-0.8-1.3c-0.2,0-0.3,0-0.5-0.1c-0.5-0.5-2.1-1.6-4,0.1C11.8,1,11.7,1,11.6,1C11,0.9,9,0.8,8.3,1.8C8.2,2,8,2.1,7.8,2.1
	c-0.9,0-3,0-2.6,1c0,0,0.7,2.7,3.2,2.5c0.1,0,0.2,0.1,0.2,0.2c0.1,0.3,0.3,1,0.4,1.7c0.1,0.8-0.1,1.6-0.6,2.2
	c-0.3,0.4-0.8,0.8-1.5,1.1c0,0-0.7,0.4-0.6,1c0,0,0.3,0.3,0,0.8c0,0-0.3,1.9,0.9,1.7c0,0-0.1,0.8,1.5,0.7c0,0,0.8,0.4,1.7,0.1
	c0.4-0.1,0.8-0.1,1.2,0.1c1.5,0.7,4.9,3.2,6.1,11.3c0,0,0.8,4.1,1.7,5.3c0,0,0.6,1.2,0.2,2.8c0,0-0.2,1.3,0.4,2.5
	c0.2,0.3,0.3,0.7,0.2,1c0,1.5-0.3,5.4-1.9,6.5c0,0,0,0,0,0c0.1,0,0.5-0.1,0.6-0.3c0,0,0,0,0,0c0,0.1-0.1,0.3-0.5,0.5c0,0,0,0,0,0
	c0.1,0,0.2,0,0.3,0c0,0,0,0,0,0c-0.3,0.3-1.9,1.8-1.1,1.8c0,0,1.5,0.9,3.9-0.6c0,0,0.1,0,0.1,0.1c-0.3,0.5-1.1,1.9,0.6,1.6
	c0,0,0.1,0.9,2.2-0.2c0.5-0.3,0.8-0.8,0.8-1.4c0-0.2-0.1-0.5-0.2-0.9c0,0,0.7,0.2,0.6-1.2c0,0-1.2-3.8,0-7.1
	c0.1-0.2,0.1-0.4,0.2-0.7c0.2-1.6,1.1-7.6,2.1-7.7c0.3,0,3.7-1.3,3.5-0.3c0,0-1.1,1.3-0.2,2.7c0,0-0.2,5.6-1.9,8
	c-0.2,0.2-0.4,0.3-0.7,0.4v0c0,0,0,0,0,0.1c0.1,0,0.2,0.1,0.4,0c0,0-0.2,0.7-1.5,1.6c0,0-0.1,0.4,0.3,0.2c0,0,0.4,0.9,3,0.3
	c0,0,1.1-0.1,1.2-2.5c0,0,0.8,1.5,0.7-0.4c0,0-0.1-4.9,1.4-7.3c0,0,0.3-1.4,0.7-2.1c0,0-0.2,0.9,0.3,0.8c0,0,0.4-0.2,0.4-1
	c0-0.1,0.1-0.2,0.1-0.2l0.3-0.2c0.1,0,0.1,0,0.1,0.1c0,0.3,0.1,1.1,0.3,1.1c0,0,0.5-0.2,0.6-1.1c0,0,0.1,1,0.1,2.2
	c0,0,0.3,1.7,0.4,2.5c0.1,0.2,0.1,0.5,0.1,0.7c0,1.1-0.1,4.3-1.3,5.4c0,0,0,0.1,0,0.1c0.1,0,0.1,0,0.2-0.1c0,0,0.1,0,0.1,0.1
	c-0.2,0.4-0.9,1.6-1.2,1.8c0,0-0.4,0.5,0.7,0.5c0.1,0,0.2,0.1,0.3,0.2c0.2,0.3,0.7,0.7,2.1-0.1c0.2-0.1,0.3-0.3,0.3-0.5
	c0.1-0.3,0.1-0.8,0.1-1.2c0,0,0.9,0.1,0.5-0.6c0,0-0.6-6.2,0.3-7.9c0,0,0.5-1.5,0.1-3.1c-0.1-0.2-0.1-0.5,0-0.8l0.7-4.7
	c0,0,0.9,2.1,0.9,3.2c0,0.1,0,0.3-0.1,0.4c-0.3,0.7-1.6,3.6,1.5,4.9c0,0,0.1,0,0.1-0.1c-0.2-0.3-0.5-0.9-0.6-1.9
	c0-0.4,0.1-0.8,0.2-1.2c0.2-0.5,0.4-1.7-0.7-3.9c0,0-1.2-1.6-0.8-4.6c0,0-0.5-4.8,0-6.3c0,0,0.8-3.7-1.5-6.7c0,0-2.8-3.1-6.7-1.8
	c0,0-4.9,1.7-6.9,0.9c-0.1,0-0.2-0.1-0.3-0.1l-6.2-2.2C19.1,3.8,19,3.6,19,3.4z M10,3.2L9.3,2.6l1.5-0.2C10.9,2.4,10.5,3.2,10,3.2z
	 M13.9,6.2c0,0,0.1-1.2,1.6-0.5C15.5,5.7,15.2,6.5,13.9,6.2z M22,45.2c0,0-0.2-1.5,0.6-1L22,45.2z M22.9,43.4
	c-1-1.2-0.1-6.1-0.1-6.1C24.1,39.4,22.9,43.4,22.9,43.4z M22.9,34.6c0,0-0.9-3.6-0.4-3.6c0,0,1.5-0.3,1.3,0.3c-0.2,0.6,0,0.2,0,0.1
	L22.9,34.6z"/>
</svg>
