<?xml version="1.0" encoding="utf-8"?>
<!-- Generator: Adobe Illustrator 19.1.0, SVG Export Plug-In . SVG Version: 6.00 Build 0)  -->
<svg version="1.1" id="Layer_1" xmlns="http://www.w3.org/2000/svg" xmlns:xlink="http://www.w3.org/1999/xlink" x="0px" y="0px"
	 viewBox="0 0 48 48" style="enable-background:new 0 0 48 48;" xml:space="preserve">
<style type="text/css">
	.st0{fill:#808080;}
</style>
<path class="st0" d="M47.2,33.7c0,0-1.2-0.4-1.7-0.5c0,0-0.8-1.8-0.5-2.9c0,0-0.1-3.2-0.8-3.9c0,0,0.3-0.1,0.1-0.4l-2.2-2.1
	c0,0,0.1-0.2,0.1-0.3c0-0.1,0.1-0.3,0.2-0.3c0.8-0.6,3.5-2.5,2.2-2.7c-0.1,0-0.2-0.2-0.1-0.3c0.8-0.7,2.7-2.5,2.3-3.3
	c-0.1-0.1-0.1-0.3,0-0.4c0.4-1,1.8-4.5,0.7-4.7c0,0,0-3.9-1.9-4.8c0,0-0.5-0.2-0.7-0.6c-0.1-0.2-0.3-0.5-0.5-0.6
	c-0.9-0.8-3.2-2.4-4.5-1.6c0,0-8.2,4.3-6.6,5.9c0,0-0.9,2.1,1,2.7c0,0,2.2,1.1,3.2-0.7c0.1-0.1,0.1-0.2,0.2-0.3
	c0.4-0.4,1.5-1.3,3.1-0.6c0,0,0.9,0.6,0.9,1.6c0,0,0.7-2.4-3-2.7L36,9.8c0,0,3.5-1.5,4.4-3.2c0,0,1.8,1.8,3.1,1.6
	c0,0,0.1,0.4-0.2,0.4c0,0-0.1,1.1,1.4,2.2c0,0,1.1,0.2,0.6,0.6c0,0-0.1,0.3-0.4,0.4c-0.2,0-0.3,0.2-0.4,0.4c-0.2,0.6-0.4,2,0.4,2.7
	c0,0,0,0.7-1,0.3c0,0-1,0.4-1.1,2c0,0-0.3,0.3-0.6,0.1c-0.2-0.1-0.5-0.1-0.7,0L38.8,18c0,0-0.1-0.4-0.7-0.2l-2.2,1
	c0,0,0-0.6-2.6,0.7l-1.6,0.4c0,0,0.7-1.5,4.5-2.2c0,0,4-3.7,2.2-3.8c0,0,0.1-0.4,0.8-0.5c0,0,0.8-0.3,0.9-0.5c0,0-0.6-0.1,0.4-0.3
	c0,0-0.1-0.3-0.7-0.1c0,0,0.2-0.5,0.1-0.6c0,0-0.3,0.4-0.7,0.6c0,0-0.8,0.7-1.4,0.9c0,0-0.9,0.4-0.3,1.1c0,0-1.1,0.6-1.5,1.3
	l-5.8,4.1c0,0-0.4-0.4-1.3,0.9c-0.2,0.2-0.4,0.4-0.6,0.5l-1,0.5c-0.2,0.1-0.4-0.1-0.3-0.3c0.4-0.8,1.3-2.2,3.2-3.2
	c0.2-0.1,0.3-0.2,0.4-0.4c0.3-0.5,0.7-1.4,0.1-2.5c-0.3-0.6-0.9-0.9-1.5-0.9c-0.7,0-1.7,0-2.6,0c0,0-0.2-0.2,0.3-0.9
	c0,0,0.4-0.9-0.1-0.6c0,0-0.2-0.4-0.2,0.2c0,0-0.3-0.7-0.5-0.4c0,0,0.2-0.1,0.1,0.6l-0.1,1.1c0,0-0.8,0.8,0.4,0.9h1.2
	c0,0,0.4,0.5,0.9,0.2c0,0-0.3,1.1,0.7,1.5c0,0-3.4,4.2-3.4,4.5c0,0-1.3,0.5-1.4,1.6c0,0-1.3,0-1.9,0.1c-0.2,0-0.3-0.1-0.3-0.3
	c0.1-0.8,0.2-2.4-0.2-2.8c-0.1-0.1-0.2-0.3-0.2-0.4c-0.1-1.2-0.8-5.4-5-5.1c-0.1,0-0.3,0-0.4-0.1c-0.8-0.6-3.4-3.8-9.4-0.8
	c-0.2,0.1-0.4,0.1-0.6,0.1c-1,0-4,0.1-5.8,2.6c-0.1,0.1,0,0.2,0.1,0.1c0.8-0.5,2.9-1.6,4.3-1.3c0,0-5,1.6-4.7,2.9
	c0,0,4.7-2.4,7.4-1.5c0,0,5.1,2.6,7.8,0.1c0.1-0.1,0.3-0.1,0.4,0.1c0,0,0.3,1.4,1.6,2.1c0.2,0.1,0.3,0.4,0.2,0.6
	c-0.5,0.9-1.7,2.9-2,3.7c0,0.2-0.1,0.3-0.3,0.4l-1.9,1.2c-0.1,0.1-0.2,0.2-0.3,0.3c0,0.1-0.2,0.2-0.5,0.2c0,0-1.3-0.1-1.3,1
	c0,0,0.5-0.7,0.8-0.1c0,0-0.8,0.8-0.9,1.4c0,0-1.1,1.3-0.9,2c0,0-1.9,0.2-2,1.2l0.3-0.2c0,0-0.2,0.5-0.1,0.7c0,0,0-0.6,0.8-0.5
	c0,0,0.7-0.3,1.1-0.6c0.1-0.1,0.2,0,0.3,0.1l0.1-0.3c0,0,0.3,0.1,0.4-0.3L12,28c0.1-0.2,0.2-0.4,0.4-0.5c0.2-0.2,0.5-0.5,0.6-1
	c0,0,0.2-0.6,1.3-0.6c0.2,0,0.3,0.1,0.3,0.3c0,0.4,0.1,1,1.5,1c0.1,0,0.2,0.1,0.2,0.2c-0.2,0.8-0.6,3.3,1.6,2l0,0
	c0.1,0.1,0.1,0.3-0.1,0.5c-0.3,0.3-0.7,0.8-0.4,1.3c0.1,0.2,0,0.4-0.1,0.4c-0.7,0.4-2.3,1.2-4.2,1.6c-0.5,0.1-1.1,0.1-1.6,0.1
	c-0.6-0.1-1.4-0.2-2-0.4c0,0-0.4-0.2-0.7-0.2c-0.3,0-0.4,0.3-0.3,0.5c0.2,0.4,0.6,1,1.2,1.2c0.1,0,0.2,0.1,0.3,0.2
	c0.2,0.2,0.6,0.6,1.4,0.5c0,0,0.5-0.1,0.8,0.6c0,0,0.1,0.3,0.6,0.2c0.1,0,0.3,0,0.3,0.1c0.3,0.3,0.7,0.9-0.4,1.1
	c-0.1,0-0.2,0.1-0.2,0.1c-0.2,0.2-0.7,0.5-1-0.1c0,0-0.3-0.3-0.9,0.2c-0.1,0.1-0.3,0.1-0.4,0.1c-0.5-0.1-1.7-0.3-1.9-0.7
	c0-0.1-0.1-0.1-0.2-0.1c-0.2,0-0.6,0.1,0,0.8c0,0,0.8,2.5,7.3,1.7c0.2,0,0.4,0,0.5,0c1.2,0.1,6.4,0.4,7.7-1.2c0,0,2.3,1.5,3.4-3.9
	c0-0.2,0.2-0.4,0.4-0.5l0,0c0.5-0.2,1,0.2,1,0.7c0,1.1,0,2.7,0.5,3c0,0,0,0,0,0c0.1,0.1,0.1,0.2,0.1,0.3l-2.4,4
	c-0.1,0.1-0.1,0.3-0.1,0.5c0.1,0.2,0.1,0.6,0,1l0,0.8l0.1,0l-0.2,0.5l0.4-0.5l0.2,0l0.4,0.4l-0.1-0.5l0.1,0L27.1,42l0,0
	c0.1,0.1,0.3,0,0.3-0.1c0.2-0.5,0.6-1.7,1.7-2.7c0,0,0.9-1,0.9-1.6c0-0.2,0-0.3,0.1-0.5c0.2-0.8,0.6-3.1-0.3-4.4
	c-0.1-0.1-0.1-0.3,0.1-0.5l0,0c0.2-0.2,0.5-0.3,0.8-0.3c0.8,0,2.8-0.2,3.6-1.1c0.1-0.2,0.3-0.2,0.5-0.3c0.2,0,0.5,0,0.8-0.1
	c0.2-0.1,0.4,0,0.4,0.2c0.3,0.7,1.2,2.1,2.7,2.7c0,0,0.6,0.2,0.6,1c0,0,1.3,5.3,2.2,4.6c0,0,1.5,1,1.7,0.4c0,0,0.5,0.1,0.4,0.6
	c0,0,0.3-0.2,0-0.6c0,0,0.3,0,0.5,0.1c0,0,0-0.4-0.5-0.5c0,0,0.5-0.8-1.7-0.6c0,0-1.2-5.2-1.8-5.6c0,0,0.4,0,0.1-0.5
	c0,0-2.3-3.5-4.1-3.6l0.7-0.7c0.1-0.1,0.3-0.3,0.5-0.3c0.6-0.3,2.3-1.1,2.5-1.7c0-0.1,0.1-0.2,0.2-0.3l0,0c0.3-0.2,0.6-0.1,0.8,0.1
	c0.4,0.4,1.2,1.1,2.1,1.6c0.4,0.2,0.6,0.6,0.6,1c0.1,1.6,0.4,5.6,1.6,5.8c0,0,2.2,1.2,2.3,0.2c0,0,0.4,0,0.6,0.2
	C47.9,34.2,47.6,33.7,47.2,33.7z M20.3,23.6c-0.1,0-1.7,0.1-1.8,0.5c0,0-0.6,0.6-0.6,0.1c0,0,1.4-2.8,2.5-2.6l0.3,1.8
	C20.7,23.3,20.5,23.6,20.3,23.6z"/>
</svg>
