<?xml version="1.0" encoding="utf-8"?>
<!-- Generator: Adobe Illustrator 19.1.0, SVG Export Plug-In . SVG Version: 6.00 Build 0)  -->
<svg version="1.1" id="Layer_1" xmlns="http://www.w3.org/2000/svg" xmlns:xlink="http://www.w3.org/1999/xlink" x="0px" y="0px"
	 viewBox="0 0 48 48" style="enable-background:new 0 0 48 48;" xml:space="preserve">
<style type="text/css">
	.st0{fill:#808080;}
</style>
<path class="st0" d="M46.1,32.6l-5.2-2.2c0,0-0.6-0.7,0.4-1.2l2.4-0.9c0,0,1.2-0.6,0.3-1.3c0,0-1.2-0.6-1.6,0.3L38,28.9
	c0,0-1.2-0.4-1.2-1.9l0-1c0,0,0.4-1.2-0.6-1.1c0,0-1.4,0.4-0.6,1.2l-0.3,2.6c-0.1,0.6-0.5,1.1-1.1,1.2c-0.9,0.2-2.1,0.2-1.9-0.9
	l0.9-4.1c0.1-0.6,0.5-1.2,1.1-1.5c1.4-0.9,4-2.5,4.5-3.1c0,0,4.5-1.4,3.2-4.1c-0.3-0.7-1-1.2-1.7-1.4c-0.9-0.3-2.3-0.8-2.5-1.3
	c0,0-1.6-3.3-4.3-0.2c-0.1,0.1-0.3,0.3-0.5,0.3c-0.9,0.4-4,1.5-5.4,1.5c0,0,1.6-2-0.5-2.2c0,0,1.6-2.7,3.3-2.8c0,0,0.9-0.6,0.3-1.3
	c0,0-1.1-0.5-1.4,0.6l-2.8,1.7c0,0-0.7-1.2-0.1-2.8l0.8-2.4c0,0,1.6-1,0.5-1.8c0,0-1.5-0.6-1.4,1.1c0,0,0.2,1.1-0.4,1.6
	c0,0-1.4,1.7-1.4,2.6c0,0-1.7-1.9-1.5-2.8c0,0-0.1-1.5-1.2-1.1c0,0-1.1,1,0,1.4c0,0,1,2.1,1.2,2.9l0.1,2.2c0,0.4-0.1,0.9-0.3,1.2
	c-0.4,0.7-1,2.1-0.9,3.6c0,0.5-0.3,1-0.8,1.2c-2.2,0.9-7.8,3.3-8.6,4.9c0,0-1-3.1,2.9-3.1c0,0,1.6,0,1.3-1.3c0,0-0.5-0.8-1.5,0.1
	c0,0-3.1,0.6-1.8-1.1c0,0,1.6-1.5,2.4-1.1c0,0,2.5-0.4,0.9-1.6c0,0-0.5-0.5-2.1,0.6c0,0-4.1,2.6-3.9,0.8c0,0,0.1-0.7,0.6-0.7
	c0,0,0.9-1.3-0.3-1.4c0,0-1.2,0.1-1.3,1.3c0,0-1.8,4-3.1,5.4c0,0-11.2,12.8-5.2,12.1l2.9-2.7c0,0-1.4,4.4-0.2,4.9
	c0,0-3.5,1.5-0.9,3.6c0,0,7.4,5.9,12.2,4.1c0.3-0.1,0.7-0.1,1.1-0.1c1.3,0.4,4.4,1.1,5.4,0.1c0,0,1.3,2.5,2.7,1.2
	c0,0,0.7-1.3-0.8-1.4c0,0-0.8-3.5,4.2-4.1c0,0,1.9-0.4,0.9-1.6c0,0-1.1-0.6-1.6,0.4c0,0-3.4,1.7-4.7-0.3c0,0-1-1.2,0-1.7
	c0,0,1.2-0.8,0.4-1.5c0,0-1.6-0.4-1.6,1c0,0-0.9,1.2-1.6,1.7c-0.3,0.3-0.8,0.3-1.1,0.1l-1.7-0.9c0,0,0.6-0.7,0.1-1.2
	c0,0,9.4-4.8,11.7-6c0.2-0.1,0.5,0,0.5,0.3c0,1.7,0.5,6.3,6.7,3.7c0.3-0.1,0.6-0.1,0.9,0c0.9,0.3,2.8,1.2,4.6,3.4
	c0,0,0.8,1.6,2.1,0.8c0,0,0.9-1.1-0.9-1.6l-1.6-2c0,0,2.9,0,4.5,1.2c0,0,1,0.9,1.8,0.1C47.7,34.3,49,32.6,46.1,32.6z M34.8,15.9
	c1,0,1.8,0.7,1.8,1.6c0,0.9-0.8,1.6-1.8,1.6c-1,0-1.8-0.7-1.8-1.6C33.1,16.7,33.9,15.9,34.8,15.9z"/>
</svg>
