<?xml version="1.0" encoding="utf-8"?>
<!-- Generator: Adobe Illustrator 19.1.0, SVG Export Plug-In . SVG Version: 6.00 Build 0)  -->
<svg version="1.1" id="Layer_1" xmlns="http://www.w3.org/2000/svg" xmlns:xlink="http://www.w3.org/1999/xlink" x="0px" y="0px"
	 viewBox="0 0 48 48" style="enable-background:new 0 0 48 48;" xml:space="preserve">
<style type="text/css">
	.st0{fill:#808080;}
</style>
<path class="st0" d="M47.6,30c0,0-1.9-2.9-1.8-3.9c0,0,0.1-1.5-0.1-3.1c0,0-0.3-2.5-0.2-3.5c0,0,0.6-2.1-0.6-3.7l-0.9-1.3
	c0,0-1.3-2.8-4.2-3.4c-0.3-0.1-0.6-0.2-0.9-0.3c-1.2-0.6-4.7-1.9-10-1.2c0,0-1.3,0.2-3-0.4c-0.3-0.1-0.6-0.2-0.9-0.2c0,0,0,0-0.1,0
	c-1.7-0.2-3.5,0.4-4.7,1.6c-1,0.9-2.6,2.6-3.3,3.5c0,0-2,2.2-3.6,0.9c0,0-0.1-0.1-0.1-0.1c-0.1-0.2-0.6-0.8-0.5-3.1
	c0,0-0.3-2.5-1.8-4.4c0,0,0.4-0.5-0.8-0.8L8,6c0,0-0.5-0.5-1.3,0.2c0,0-0.6,0.6-2.8,0.5c0,0-1.8,0-2.6,0.4c0,0-0.5,0-0.7,0.5
	c0,0-0.2,0.4-0.5,0.7c0,0-0.6,0.5,0.1,0.8c0,0,0.1,1.2,1.4,1c0.2,0,0.4,0,0.5,0c0.7,0.2,2.4,0.8,3.7,1.2c0.3,0.1,0.6,0.3,0.7,0.7
	c0.1,0.4,0.2,0.9,0.1,1.3c0,0-0.8,3.9,1.4,6.7c0.1,0.1,0.2,0.3,0.3,0.4c0.5,0.9,2.3,4.1,5.7,3.4c0.3-0.1,0.6-0.2,0.8-0.5
	c0.4-0.5,1.2-1.4,2.5-1.2c0.2,0,0.3,0.1,0.5,0.2c0.3,0.2,1,0.7,2,1.1c0.3,0.1,0.6,0.4,0.6,0.8c0.2,1.5,0.7,5.4,0.6,6.1
	c0,0-0.4,1.3,0.2,2.5c0,0,0.2,3-0.5,4.1c0,0-0.4,0.5-0.4,1.2c0,0-0.1,0.3-0.7,0.1c0,0-0.3,0-0.4,0.3c0,0-1,0.5-0.7,0.7
	c0,0,0.9,1,3,0.3c0,0,0.2-0.1,0.2-0.3c0,0,0.8,0,0.5-0.5c0,0,0-0.5-0.4-0.7c0,0,0.4-0.3,0.2-1c0,0,0.1-2.1,0.3-2.8
	c0,0,0.3-2.1,0.7-2.6c0,0,0.2-0.6-0.1-1.4l0-1.7c0,0,1.3,2.7,1.4,3.8c0,0.2,0.1,0.5,0.1,0.7c0.2,0.4,0.5,1.1,0.8,1.3
	c0,0,1.3,4.5,0.5,6c0,0,0,0.3-1.1,0.3c0,0-0.2,0-0.3,0.2c0,0-0.1,0.2-0.4,0.3c0,0-0.3,0.2-0.1,0.4c0,0,0.3-0.1,0.2,0.1
	c0,0-0.4,0.3,0,0.4c0,0,0.7,0.3,1.6,0.2c0,0,1.7,0,1.9-0.3c0,0,0.3-0.3,0.1-0.6c0,0,0-0.5-0.4-0.9c0,0-0.1-0.3,0.1-0.6
	c0,0,0.1-1.7-0.3-3c0,0-0.5-2.8-0.4-3.9c0,0,0.1-0.8-0.4-1.8c-0.1-0.2-0.2-0.4-0.2-0.6c-0.2-0.8-0.6-2.8-0.7-3.5l-0.3-1.2
	c-0.1-0.4,0.2-0.7,0.5-0.8c0.9-0.1,2.3-0.1,3.3-0.1c0,0,3.8,0.4,9.1-3.9c0.1-0.1,0.4,0,0.3,0.2c-0.2,1.3-0.5,4.6,1.8,6.4
	c0,0,1.3,4.5,0.7,6.3c0,0-0.5,4.3-2.9,5.7c0,0-0.5,0.4-0.4,0.7c0,0-0.7,0.6-1.7,0.6c0,0-0.8,0.4-0.6,1c0,0,0.3,0.6,1.6,0.5
	c0,0,1.9,0.2,2-0.5c0,0,0.1-0.6-0.1-0.8c0,0,0.7-0.3,0.7-0.8c0,0,0.9-1.8,1.8-3.1l2.6-3.9c0,0,0.1-0.8-0.4-1.8c0,0-0.8-2.6-0.3-4.8
	c0,0,2.1,3.3,2.4,5.8c0,0,0.5,2.5-0.2,4.8c0,0-0.8,1.2-0.6,1.8c0,0-0.3,0.4-0.9,0.1c0,0-0.4-0.1-0.5,0.3c0,0-0.8,0.4-0.5,0.6
	c0,0,2.4,1.3,3.1,0.3c0,0,0.5-0.1,0.4-0.4c0,0,0-0.5-0.3-0.7l2.1-7.9C48,31.3,48.1,30.6,47.6,30z M6.3,7.8c0,0-0.6,0-0.4-0.4
	c0,0,0.2,0.3,0.6,0C6.5,7.5,6.6,7.8,6.3,7.8z"/>
</svg>
