<?xml version="1.0" encoding="utf-8"?>
<!-- Generator: Adobe Illustrator 19.1.0, SVG Export Plug-In . SVG Version: 6.00 Build 0)  -->
<svg version="1.1" id="Layer_1" xmlns="http://www.w3.org/2000/svg" xmlns:xlink="http://www.w3.org/1999/xlink" x="0px" y="0px"
	 viewBox="0 0 48 48" style="enable-background:new 0 0 48 48;" xml:space="preserve">
<style type="text/css">
	.st0{fill:#808080;}
</style>
<path class="st0" d="M47.5,13.9c0,0-0.3-0.5-0.6-0.8c-0.2-0.2-0.5-0.5-0.6-0.8c-0.2-0.3-0.3-0.5-0.4-0.8c0,0-0.3-0.9-2.2-1
	c0,0-2-0.6-2.9,0.4c-0.2,0.2-0.3,0.3-0.5,0.5c-0.6,0.5-1.8,1.9-0.6,5c0.2,0.4,0.2,0.9,0,1.3c-0.1,0.4-0.3,0.7-0.6,0.3
	c0,0-1.3-2.4-3.3-2.1c-0.3,0-0.5,0-0.7-0.2c-0.4-0.3-1.1-1-2.2-2.8c-0.2-0.4-0.5-0.7-0.8-1.1c-0.7-0.7-2.1-1.9-3.3-2.6
	c-0.2-0.1-0.4-0.3-0.4-0.5L28,8.5c0-0.1-0.2-0.2-0.3-0.1c-0.1,0.2-0.4,0.4-0.7,0.2c0,0-1.4-0.8-6.2-1.5c-0.1,0-0.2,0-0.3,0
	c-0.5,0.1-1.8,0.4-2.8,1.8l-0.9-1.2c-0.1-0.1-0.3-0.1-0.4-0.1c-0.2,0.2-0.5,0.5-0.7,0.9c0,0-2.1-4.9-5.1-6.2c0,0-2.6-2.2-4.7-1.5
	c-0.1,0-0.3,0.1-0.4,0.1C4.9,1,3.3,1.4,1.8,3.6c0,0-3.3,3.7-0.9,8.3c0.1,0.2,0.2,0.5,0.2,0.7L1,14c0,0.2,0.1,0.3,0.2,0.4
	c0.2,0.1,0.4,0.3,0.6,0.5C1.9,15,2,15.1,2,15.3c0,0.4,0.2,1.4,0.8,1.8C2.9,17.1,3,17.2,3,17.3c0,0.7,0.2,2.6,1.5,2.1
	c0,0,0.4,0.2-1.7,0.9c0,0,1.1,0.1,1.5,0.4c0.1,0,0.1,0.1,0.1,0.2c-0.1,0.4-0.5,1.7,0.4,1.9c0.1,0,0.1,0.1,0,0.2
	c-0.3,0.3-1,1.1-1.1,1.5c0,0.1-0.1,0.1-0.1,0.2c-0.3,0.1-0.8,0.3-0.8,0.5c0,0,0.2,1.4,1.9,1.5c0,0,0.9,0,1.6-0.1
	c0.1,0,0.1,0,0.1,0.1c0,0.1,0.2,0.3,0.6-0.1c0,0,0.1,0,0.1,0c0,0.3,0.2,0.8,0.8,0.7c0.1,0,0.1,0,0.1,0.1l0.2,0.4c0,0,0.1,0.1,0.1,0
	c0.1-0.1,0.3-0.2,0.5-0.1c0,0,0,0,0,0h0c0.1,0.1,0.8,1.2,3.5,0.3c0.1,0,0.1,0,0.1,0.1c-0.2,0.3-0.5,0.8,0.1,1.1
	c0.1,0.1,0.1,0.2,0.1,0.3c0,0.1-0.1,0.1-0.1,0.2c0,0-0.1,0.1-0.1,0.1c-0.4,0.3-4,2.7-3.6,3c0,0-0.7,1.4,0.9,1.3c0.1,0,0.1,0,0.2,0.1
	c0.1,0.2,0.4,0.4,1.4,0.1c0,0,2.4-1,2.9-1c0,0,0.1,0,0,0.1c-0.2,0.2-0.8,0.9-1.1,1.2c0,0,0,0.1,0,0.2c0.1,0.1,0.2,0.3,0,0.7
	c0,0.1-0.1,0.1-0.1,0.2c0,0.3,0,1.1,0.6,1.5c0.1,0,0.1,0,0.2,0c0.2-0.1,0.7-0.4,1.5,0.2c0,0,0,0.1,0,0.1L15.2,37c0,0,0,0,0,0h0.2
	c0,0,0,0,0,0l0.3-0.1c0,0,0.1,0,0.1,0c0.2,0.2,1.2,0.8,1.7,0.5c0,0,0,0,0,0c0,0.1,0,0.6,0.4,0.7c0,0,0,0,0,0c0.1,0,0.4-0.2,0.5-0.4
	c0,0,0,0,0.1,0c0.1,0,0.6,0.2,1,0c0,0,0.1,0,0.1,0l0,2.3c0,0,0,0.1,0,0.1c0,0.2,0.2,1.1-0.5,1.8c0,0-0.1,0-0.1,0.1
	c-0.2,0.1-1.2,0.6-0.9,1.2c0,0,0.2-0.5,0.4-0.3c0,0,0.4,0.2,0.7-0.3c0,0,0.2-0.3,0.4,0c0.1,0.4,0.4,0.7,0.4,0.7l-0.1,0.1
	c0,0,0,0.1,0,0.1c0.1,0.1,0.2,0.1,0.2,0.2c0,0,0,0.2,0.1,0.3c0,0,0,0,0,0.1c0,0.1,0,0.4,0.5,0.6c0,0,0,0,0.1,0
	c0.1,0.1,0.4,0.3,0.7,0.3c0,0,0.1,0,0.2,0.2c0,0,0.1-0.3,0-0.6c0,0-0.2-0.4-0.4-0.5c0,0,0.4,0.1,0.7,0.2c0.1,0,0.1,0,0.2,0
	c0.4,0,2.3,0,2.3,0.2c0,0-0.2,1.3,0.2,0.8c0,0,0.2-0.3,0.4-0.1c0,0,0.4,0.3,0.7,1.1c0,0.1,0.1,0.2,0.3,0.3c0.4,0.2,1.2,0.6,1.3,0.8
	c0,0,0.3,0.2,0.1-0.6c0,0,0,0,0-0.1c-0.1-0.1-0.4-0.6-0.7-0.7c0,0,0.4-0.1,0.7,0c0,0,2.1,0.5,3.4,0.4c0,0,0-0.1,0.2,0l0.6,0
	c0,0,0.1-0.1-0.2-0.2c0,0-0.5-0.5-1.2-0.5c0,0-1.5-0.3-1.9-0.4c0,0,0,0,0,0c0.1,0,0.4-0.1,0.5-0.3c0,0,0,0,0,0l0.4-0.1
	c0,0-0.2-0.6-1.1-0.3c0,0-1.6,0.3-2-1c0,0-0.9-2.5-1.3-3.1c0,0,0,0,0,0c0-0.1-0.3-0.9-0.1-1.5c0,0,0-0.1,0-0.1
	c0-0.1-0.1-0.4-0.3-0.7c0,0,18.1-0.5,16.8-12.1c0,0-0.5-0.9,0.8-1.1c0,0,0.5-0.1,0.4-0.7c0-0.2,0-0.3,0.2-0.5c0.4-0.3,1-1,0.9-1.8
	c0-0.1,0-0.3,0.1-0.4c0.3-0.6,1-2.5,0.9-3.1c0-0.2,0-0.3,0-0.5c0.3-0.9,1.1-3.3,1.7-2.8c0,0,0.8,0.8,0.8,2.2c0,1.4,0,2.8,0,2.8
	s0.2,0.5,0.5,0l0.3-3.5c0-0.2,0-0.3,0.1-0.5C48,15.7,48.1,14.6,47.5,13.9z M24.5,43.4c0,0.1-0.9-0.1-0.9-0.1
	c-0.3-0.1,0.3-0.4,0.3-0.4c-0.1-0.6-1.8-0.1-1.8-0.1l-0.8-0.3c-0.2,0-0.1-1-0.1-1c0.3-0.1-0.2-1.9-0.2-1.9c-0.2-0.9,0-2.2,0-2.2
	c0.4,0.6,1.7,0.4,1.7,0.4c0,1,0.7,1.5,0.7,1.5C23.8,39.9,24.5,43.4,24.5,43.4z M43.5,12.7c0,0-0.2-0.3,0-0.5c0,0,0.6-0.3,0.8,0.5
	C44.3,12.7,43.9,13.2,43.5,12.7z"/>
</svg>
