<?xml version="1.0" encoding="utf-8"?>
<!-- Generator: Adobe Illustrator 19.1.0, SVG Export Plug-In . SVG Version: 6.00 Build 0)  -->
<svg version="1.1" id="Layer_1" xmlns="http://www.w3.org/2000/svg" xmlns:xlink="http://www.w3.org/1999/xlink" x="0px" y="0px"
	 viewBox="0 0 48 48" style="enable-background:new 0 0 48 48;" xml:space="preserve">
<style type="text/css">
	.st0{fill:#808080;}
</style>
<path class="st0" d="M46.3,18.6c0,0-3.2-2.3-4.5-2.9c-0.2-0.1-0.4-0.2-0.6-0.4c-0.6-0.4-2.5-1.2-8.6,0.2c-0.1,0-0.3,0.1-0.4,0.1
	c-0.8,0.3-4.3,1.7-8.8,2c0,0-4.2,0.2-7.1,2.3c0,0-1.9,1.2-3.3,0.4c0,0-0.8-0.6,0.3-0.8c0,0,1.9,0.2,1.9-0.9c0,0,0.2-2.4,0.3-2.9
	c0,0-0.1-0.1-0.5,0.2c-0.1,0.1-0.3,0.2-0.4,0.2c-0.4,0.2-1.4,0.5-1.7,0.9c0,0-0.1,0.1-0.1,0.1c-0.2,0.2-1,0.7-1.1,0.8
	c0,0-0.2,0.1-0.4,0.1c-0.2,0-0.4-0.2-0.4-0.4c0-0.2,0-0.4,0.2-0.5c0,0,0.7-1.2,1.3-1.7c0,0,3.4-2.9,4.8-7.9c0-0.1,0-0.2,0-0.3
	c0-1-0.3-6.3-2.3-7.2c-0.1,0-0.2,0-0.3,0.1c-0.1,0.2-0.1,0.5,0.4,1c0,0,2.4,2.7,0.8,7.5c0,0-0.4-1.9-1-1.2c0,0,0.9,1.8,0.2,3
	c0,0-1,1.9-1.6,2.6c-0.1,0.1-0.3,0-0.3-0.1c0-0.7-0.2-2.1-0.7-2c0,0,0.3,2.2-0.5,3.2c0,0-1.6,2.7-2.8,3.5C9,17.8,8.9,18,8.9,18.3
	v0.1c0,0-0.4,0.1-0.7,0.1c-0.1,0-0.2,0-0.3-0.1c-0.1-0.2-0.2-0.5-0.5-0.8c-0.1-0.1-0.1-0.1-0.1-0.2c0-0.4-0.2-1.7-0.9-3
	c0,0-1.8-3.7-0.8-4.5c0,0,1.8-1.9,2.4-2.1c0,0-0.3-0.9-2.5,1.4c0,0-1,1.3-1.9,0c0,0-2.5-3.4-2.4-6.8c0,0-1.3-1.1-0.6,2
	c0,0,0.1,2.6,2.2,5c0.3,0.4,0.6,0.8,0.8,1.2c0.6,1.1,1.8,3.4,2.4,5.1c0,0,0.4,1.4-0.4,0.9c0,0-3.6-1.6-4.3-4.6c0,0-1,0.4,1.6,3.6
	c0,0,0,0,0.1,0.1c0.3,0.3,2.2,2,2.8,2.3c0,0,0.2,0.2,0.3,0.4c0.1,0.3-0.1,0.5-0.3,0.6c-0.3,0.1-0.7,0.3-0.4,0.5c0,0,0.3,0.7,1.1,0.6
	c0,0,0.6,0.3-0.4,1.1c0,0-0.3,0.2,0.4,1.2c0.1,0.2,0.2,0.5,0.2,0.7c0,0.2,0,0.5,0,0.6c0,0.1,0,0.1,0,0.2c-0.1,0.3-0.3,1-0.4,1.5
	c0,0.2-0.1,0.3-0.2,0.5c-0.2,0.3-0.4,0.8-0.1,1.1c0,0,0.9,1.5,1.7,1.1c0,0,0.6-0.2,0.8-0.9c0,0,0,0,0-0.1c0.1-0.2,1-1.4,1.5-1.1
	c0.1,0,0.1,0.1,0.2,0.2c0.1,0.3,1,1.8,4.1,3.3c0,0,2.1,0.9,2.3,1.2c0,0,0.3,0.7,0.8,1.3c0.3,0.3,0.6,0.8,0.6,1.3
	c0.1,0.7,0.1,1.6,0,2.3c0,0-0.2,2.9-0.2,3.9c0,0-1,6.7-1.8,7.1l-1.2,0.7c-0.1,0-0.1,0.2,0,0.2c0.1,0,2.1,0.4,2.1-0.1
	c0,0,0.4-1.5,0.6-1.2c0,0,0.1,0.7,0.3,0.4l0.1-1c0-0.1,0-0.1,0.1-0.2c0.1-0.1,0.3-0.5,0.2-1.3c0-0.1,0-0.2,0-0.4
	c0.2-0.8,0.8-3.8,1.3-4.6c0,0,1.3-3.3,1.4-4.8c0-0.1,0-0.2,0.1-0.3c0.2-0.3,0.5-0.9,0.6,0.3c0,0,0.4,4.2,0.6,4.8c0,0,0.5,1.5,0.3,3
	c0,0-0.4,4.3-0.6,4.5c0,0-0.8,0.8-1.2,1.1c-0.1,0-0.1,0.1,0,0.2c0.2,0.1,2,0.1,2.3-0.8c0,0,0.1-1.3,0.3-0.8c0,0,0.3,0.3,0.4,0.1
	c0,0-0.1-0.9,0-1.2c0-0.1,0-0.1,0-0.2c-0.1-0.7-0.4-4.3,0.1-5.8c0,0,0.9-4,0.6-6.4c0,0-0.1-0.5,0.8-0.5c0,0,6.6,0.2,9.2-1.4
	c0.3-0.2,0.7-0.3,1.1-0.4c0.3,0,0.7-0.1,1-0.2c0.2-0.1,0.4,0,0.4,0.2c0.5,1.1,1.7,4.2,1.8,7.2c0,0.9-0.1,1.8-0.4,2.6
	c-0.6,1.8-1.9,5.4-2.7,6c0,0-1.9,0.9-1.3,1.1c0.2,0.1,0.2,0.1,0.3,0.1c0,0-0.2-0.1-0.2-0.1s0.6,0.1,2.1-0.4c0,0,0.1,0,0.1-0.1
	c0.1-0.2,0.3-0.7,0.9-0.7c0,0,0.3,0,0.4-0.4c0,0,0-0.1,0-0.1c0.1-0.4,1.2-3.7,2-4.9c0,0,2.1-5.3,2.3-4.3c0,0,0.6,1.5,0.3,3.7
	l-0.3,3.1c0,0-0.1,1.3-0.8,1.9c0,0-2.2,1.2-1.3,1.2c0,0,2,0.7,2.4-0.8c0,0,0-0.1,0-0.1c0.1-0.2,0.4-0.6,0.5-0.2c0,0,0.1,0.4,0.3,0.1
	c0,0,0-1,0.2-1.2c0,0,0.9-7.9,1.5-9.1c0,0,0.2-0.5-0.3-0.8c0,0-3.8-3.7,0.5-10.9c0.1-0.1,0.2-0.1,0.2,0.1c0,0.8,0.1,2.4,0.9,2.3
	c0,0,0.5,0.1,0.8-1.3C47.3,24.5,48.2,20,46.3,18.6z M9.6,22c0,0-0.1-1,0.9-0.8C10.5,21.2,10.7,22.2,9.6,22z"/>
</svg>
