<?xml version="1.0" encoding="utf-8"?>
<!-- Generator: Adobe Illustrator 19.1.0, SVG Export Plug-In . SVG Version: 6.00 Build 0)  -->
<svg version="1.1" id="Layer_1" xmlns="http://www.w3.org/2000/svg" xmlns:xlink="http://www.w3.org/1999/xlink" x="0px" y="0px"
	 viewBox="0 0 48 48" style="enable-background:new 0 0 48 48;" xml:space="preserve">
<style type="text/css">
	.st0{fill:#808080;}
</style>
<path class="st0" d="M45.9,19.3c0,0-5.8-1.5-11.9-0.7c-0.1,0-0.2,0-0.3-0.1c-0.3-0.2-1.3-0.5-3.7-0.7c-0.6,0-1.1-0.3-1.4-0.7
	c-0.3-0.4-0.8-0.9-1.1-1.2C27.2,15.7,27,15.3,27,15c-0.1-1.5-1-5.9-7.7-8.4c0,0-0.7-0.3-0.2-1.3c0,0,1-3.1,1.9-3.8
	c0,0,1.7-1.7,0.3-1.3c0,0-13.9,7.3-10.6,9.4l4.5,2.2c0.8,0.4,1.4,1.1,1.7,1.9c0.2,0.7,0.3,1.6-0.4,2.6c0,0-1.2,2.5-3.8,2.3
	c-0.1,0-0.1,0-0.2,0C12,18.2,8,16.9,5.4,19.8C5.3,19.9,5.2,20,5,20c-1.1,0.2-5.2,0.9-5,1.9c0,0,6,0,6.3,0.1c0,0,9,3,14.3,3.4
	c0.5,0,0.9,0.3,1.1,0.7c0.4,0.6,0.8,1.6,0.2,2.6c0,0-3.2,5.9-2.3,6.7c0,0,6.6,9.3,19.3,12.6c0,0,0.3-0.4-0.1-0.8L30,35.4
	c0,0-0.2-0.3-0.1-1c0-0.1,0.1-0.2,0.1-0.3c0.3-0.8,2.5-6.4,1.1-9.7c-0.1-0.3,0.1-0.6,0.3-0.6c0.5-0.1,1.3-0.3,2-0.6c0,0,2.8-1,4.5-1
	c0,0,6.8-1,7.8-1.6c0,0,1.7-0.7,2.3-0.5C47.9,20.2,48.6,19.4,45.9,19.3z M8.6,20.5c-0.3,0-0.5-0.2-0.5-0.4c0-0.2,0.2-0.4,0.5-0.4
	s0.5,0.2,0.5,0.4C9.1,20.3,8.9,20.5,8.6,20.5z"/>
</svg>
