<?xml version="1.0" encoding="utf-8"?>
<!-- Generator: Adobe Illustrator 19.1.0, SVG Export Plug-In . SVG Version: 6.00 Build 0)  -->
<svg version="1.1" id="Layer_1" xmlns="http://www.w3.org/2000/svg" xmlns:xlink="http://www.w3.org/1999/xlink" x="0px" y="0px"
	 viewBox="0 0 48 48" style="enable-background:new 0 0 48 48;" xml:space="preserve">
<style type="text/css">
	.st0{fill:#808080;}
</style>
<path class="st0" d="M46.3,32.5c0,0,1.1-0.3,1.7,0c-0.1-0.1-1.2-0.8-2.3-1c0,0-1.8-0.8-1.4-2.8c0.1-0.5-0.4-0.6-0.4-0.6
	s1.2-13.3-13.9-17c0,0-5-1-8.2-0.3c-0.9,0.2-1.8,0.3-2.8,0.3c-2.3,0-6.3-0.1-8.4-0.9c-0.2-0.1-0.3-0.2-0.3-0.4
	c-0.1-0.5-0.4-1.5-2.1-0.6C8,9.4,7.8,9.4,7.7,9.4C6.9,9.3,4.3,9.2,2.8,9.7c-0.2,0.1-0.4,0-0.5-0.1c-0.6-0.4-2.1-1.1-1.5,1.1
	c0,0.2,0,0.4,0,0.5c-0.4,0.9-1.7,4.3,0.8,6.2c0.1,0.1,0.2,0.2,0.1,0.3c-0.2,1,0.7,3.4,3.3,2c0.1-0.1,0.2,0,0.3,0L5,20.2L5.3,20
	c0,0,0,0,0,0.1l-0.2,0.3l0.3,0c0,0,0,0.1,0,0.1l-0.4,0.5l0.5-0.3c0,0,0,0.1,0,0.1l-0.4,0.6l0.5-0.3c0,0.1,0.1,0.2,0.1,0.3l-0.2,0.4
	L6,21.5c0,0,0,0.1,0.1,0.1l-0.3,0.5l0.4-0.3c0,0,0,0,0,0l-0.3,0.6l0.4-0.3c0,0,0,0,0,0l-0.3,0.5l0.4-0.2c0,0.1,0.1,0.1,0.1,0.2
	l-0.1,0.7L6.7,23c0.1,0,0.1,0,0.1,0.1l-0.2,0.9L7,23.7C7,23.8,7,23.8,7.1,23.8l-0.2,0.9l0.4-0.4c0.1,0,0.1,0,0.1,0.1l-0.1,1l0.3-0.4
	c0,0,0,0,0,0l-0.3,0.7l0.4-0.4c0,0.1,0.1,0.1,0.1,0.2l-0.2,0.8l0.3-0.5c0,0,0,0,0.1,0l-0.1,0.8L8.4,26c0,0,0,0,0.1,0l-0.1,0.8
	l0.3-0.4c0,0.1,0.1,0.1,0.1,0.2l-0.1,0.8L9,26.9C9,26.9,9,27,9,27l-0.1,0.6l0.3-0.4c0,0,0.1,0.1,0.1,0.1l-0.1,0.5l0.3-0.3
	c0,0,0,0,0,0c0,0,0,0,0.1,0.1l-0.1,0.8l0.4-0.3c0,0,0,0.1,0,0.1l-0.4,0.8l0.6-0.2c0.1,0.3,0.3,0.6,0.4,1L10.2,30l0.4,0
	c0.1,0.3,0.1,0.5,0.2,0.7l-0.4,0.1l0.5,0.1c0,0.4,0,0.7-0.1,0.9c0,0.1-0.1,0.1-0.2,0.1c-0.4,0.2-2.8,1.4-2.7,2.6
	c0,0,0.5-0.4,0.7-0.5c0.1,0,0.1,0,0.1,0.1c-0.1,0.3-0.5,0.9-0.4,1c0,0,0.7-0.6,1.1-0.7c0.1,0,0.1,0.1,0.1,0.1
	c-0.1,0.2-0.4,0.6-0.1,0.8c0,0,0.8-0.8,1.3-0.8c0.1,0,0.1,0.1,0.1,0.1c-0.1,0.3-0.4,0.9-0.4,1.1c0,0,0.9-1.1,1.6-0.9
	c0.1,0,0.1,0.2,0,0.2c-0.4,0.3-1.3,0.8-1.3,1c0,0,0.4-0.1,0.5-0.1c0,0-0.7,1.2-0.5,1.6c0,0,0.9-1,1-1c0,0-0.3,0.4,0.3,0.5
	c0,0-0.3,0.9-0.1,1.2c0,0,0.6-1.1,0.8-1.1c0,0,0.1,0.2,0.4,0.2c0.1,0,0.2,0.1,0.2,0.2c0,0.3,0,1,0.1,1.1c0,0,0.5-1.2,0.7-1.1
	c0,0,0.1,0.2,0.3,0c0,0,0.1,1.1,0.2,1.3c0,0,0.6-1.7,1.3-1.9c0,0,0.6-0.6,1.5-1.9l0.3,0.4L17.6,35c0-0.1,0.1-0.1,0.1-0.2l0.1,0.2
	l0.1-0.5c0.1-0.2,0.2-0.3,0.3-0.5l0.2,0.5l-0.1-0.7c0.1-0.1,0.1-0.2,0.2-0.4l0.2,0.3l0-0.5c0-0.1,0.1-0.2,0.1-0.3l0.2,0.4l0-0.8
	c0.1-0.2,0.2-0.3,0.2-0.5l0.3,0.4l-0.2-0.7c0.1-0.1,0.1-0.3,0.2-0.4l0.4,0.4l-0.2-0.8c0-0.1,0.1-0.2,0.1-0.3l0.3,0.3l-0.2-0.7
	c0-0.1,0.1-0.2,0.1-0.2l0.6,0.3l-0.2-0.8c0,0,0.1,0,0.1-0.1l0.3,0.5l0.2-0.6c0.1,0,0.1,0,0.2,0l0,0.7l0.4-0.5c0.1,0,0.1,0,0.2,0.1
	l0,0.7l0.5-0.5c0,0,0.1,0,0.1,0.1l0,0.9l0.4-0.7c0.1,0,0.2,0.1,0.2,0.1l0.1,0.7l0.4-0.4c0.1,0,0.2,0.1,0.2,0.1l-0.1,0.4l0.2-0.3
	c0.2,0.1,0.3,0.2,0.5,0.3c0,0-1.5,0.8-1.5,1.3c0,0,0.4-0.2,0.5-0.1c0,0-0.4,0.5-0.4,0.7c0,0,1.1-0.7,1.8-0.6c0,0-0.6,0.7-0.6,1
	c0,0,1-0.8,2.1-0.6c0,0,0.1,0.3-0.2,0.7c0,0,0.5-0.3,0.9-0.5c0.1-0.1,0.2-0.1,0.3-0.1c0.2-0.1,0.7-0.2,1-0.2c0.2,0,0.3,0.2,0.2,0.3
	l-0.3,0.3c0,0-1,0-1.2,0.8c0,0-0.7,0.6-0.6,1.1c0,0,0.7-0.5,1.1-0.4c0,0-0.5,0.6-0.3,0.9c0,0,0.6-0.5,0.9-0.6c0.1,0,0.2,0,0.2,0
	c0.1,0.1,0.1,0.1,0.3,0.1c0.1,0,0.1,0.1,0.1,0.2c-0.1,0.2-0.2,0.6-0.1,0.8c0,0,0.9-0.8,1.1-0.7c0,0,0.1,0.1,0.3,0.2
	c0.1,0,0.1,0.1,0.1,0.2c-0.1,0.1-0.2,0.4-0.1,0.6c0,0,1-0.5,1.1-0.5c0,0,0.9,0.2,1.3-0.3c0.3-0.5,2.7-0.1,3.6-2
	c0.2-0.4,0.5-0.8,0.9-1c0.4-0.3,0.9-0.6,1.4-0.8c0.7-0.3,1.5-0.1,2.1,0.4c0.8,0.8,2.8,2.2,6.7,1.7C47.4,33.6,46.3,32.7,46.3,32.5z
	 M2.2,15.3c0,0-0.6-0.2,0-0.6C2.2,14.6,2.7,14.9,2.2,15.3z M5.6,15.2c0,0,0.3-0.8,0.7-0.4C6.3,14.8,6.5,15.5,5.6,15.2z"/>
</svg>
