<?xml version="1.0" encoding="utf-8"?>
<!-- Generator: Adobe Illustrator 19.1.0, SVG Export Plug-In . SVG Version: 6.00 Build 0)  -->
<svg version="1.1" id="Layer_1" xmlns="http://www.w3.org/2000/svg" xmlns:xlink="http://www.w3.org/1999/xlink" x="0px" y="0px"
	 viewBox="0 0 48 48" style="enable-background:new 0 0 48 48;" xml:space="preserve">
<style type="text/css">
	.st0{fill:#808080;}
</style>
<path class="st0" d="M46.4,36.1c0,0-2.4,0-3-0.4c0,0-1.4-1.3-6.9-0.8c0,0,0.2-3.8,1.7-6c0,0,3.2-4.4,3.4-5.6c0,0,1.2-3.2,0.2-4.2
	c0,0-0.2-3.8-4.9-6c0,0-0.7,0.2-0.5,0.3c0,0-1,0-0.9,0.8c0,0-0.9,0.4-0.7,1.6c0,0-0.9,0.3-0.8,2.1c0,0-0.8,0.5-0.6,1.8
	c0,0-1.7,2.5-1.8,4c0,0-0.7,0.1-0.7,0.9c0,0-0.7,0.6-0.2,0.9c0,0-1.1,0.7-0.8,1c0,0-0.8,0.6-0.8,0.9l-0.2,0.2l-2.1-6.4
	c0,0-0.3-1.5-0.8-1.9c-0.1-0.1-0.1-0.1-0.2-0.2c-0.9-0.9-5.5-5.8-6.8-6.3c-1.4-0.5-6.7-4.2-6.7-4.2l-9.6-6L0.9,1.7
	c-0.1-0.1-0.2-0.1-0.3,0C0.5,1.8,0.3,2,0.5,2.3c0,0-0.8,0.1-0.4,0.8c0.1,0.1,0,0.2,0,0.3C0,3.6-0.1,4.2,1.2,5.4
	c0.1,0.1,0.1,0.2,0,0.2c-0.1,0.2-0.1,0.7,1.2,2c0.1,0.1,0.1,0.2,0.1,0.2c0,0.3,0.1,1.2,1,2c0.1,0.1,0.2,0.3,0.2,0.4
	c0.1,0.4,0.3,1.1,1.3,1.9c0.1,0.1,0.2,0.2,0.2,0.3c0,0.3,0.2,0.8,1.3,1.7c0.1,0.1,0.2,0.3,0.1,0.4c0,0.1-0.1,0.2,0,0.3
	c0.1,0.2,0.1,0.2,0.1,0.2c0.4,0.4,2,1.9,2.9,2.5c0.1,0.1,0.1,0.1,0.1,0.2c0,0.2,0.2,0.5,1,1.2c0.1,0.1,0.2,0.2,0.1,0.4
	c0,0.2,0,0.6,0.7,1c0.1,0.1,0.1,0.2,0.1,0.3c0,0.3,0,0.7,0.6,1.1c0.1,0,0.1,0.1,0.2,0.2c0,0.2,0.2,0.7,0.6,1c0,0,0.1,0.1,0.1,0.1
	c0,0.2,0.2,0.7,0.7,1.2c0,0,0.1,0.1,0.1,0.1c0,0.2,0.2,0.6,0.5,1.2c0,0,4.3,9.3,5,11.3c0,0.1,0,0.3,0,0.4c-0.2,0.3-0.4,1.1-0.1,1.4
	c0.1,0.1,0.1,0.2,0.1,0.4c-0.2,0.4-0.4,1.2,0.9,1.1c0.1,0,0.2,0.1,0.1,0.2c-1.2,0.7-4.9,2.7-11.9,3.1c0,0-0.5,0.3-0.2,0.6
	c0,0,0,0.4,0.3,0.7c0.1,0.1,0.1,0.2,0.1,0.3c0,0.1,0,0.2,0.1,0.3c0,0-0.1,0.5,0.6,0.6c0,0,0.4,0.5,1.4,0.2c0,0,2.6-0.2,3.4-0.1
	c0,0,0.1,0,0.1,0c0.1,0,0.6,0.1,2-0.3c1.6-0.4,0,0,0,0s4-0.1,5.5-0.5c0.2,0,0.3-0.1,0.5-0.1c0.9,0,3.5-0.2,5.4-0.5
	c0,0,8.1-1.4,11.9-4.2c0,0,4.5-3.5,6.8-2.9c0,0,0.6,0.1,1.1-0.1c0,0,0.3-0.1,0.4,0.1C48,37.6,48,36.2,46.4,36.1z M41.9,36.2
	c0,0,0.3-0.5,0.7-0.2C42.5,36.1,42.5,36.7,41.9,36.2z"/>
</svg>
