<?xml version="1.0" encoding="utf-8"?>
<!-- Generator: Adobe Illustrator 19.1.0, SVG Export Plug-In . SVG Version: 6.00 Build 0)  -->
<svg version="1.1" id="Layer_1" xmlns="http://www.w3.org/2000/svg" xmlns:xlink="http://www.w3.org/1999/xlink" x="0px" y="0px"
	 viewBox="0 0 48 48" style="enable-background:new 0 0 48 48;" xml:space="preserve">
<style type="text/css">
	.st0{fill:#808080;}
</style>
<path class="st0" d="M42.3,41.1c0,0,0.1-0.4-2-0.3c0,0-6.5,1.2-8.6-3.2c-0.1-0.1-0.1-0.3-0.2-0.4c-0.4-1.1-2.3-7-2.1-8
	c0,0,1.8-12.6-12.6-15.5c0,0-0.1,0-0.1,0c-0.4-0.1-4.2-0.8-5-5.2c0,0-0.2-2.2-0.4-3.2c-0.1-0.2,0-0.4,0.1-0.6c0.4-0.6,1-1.8,0.9-3.4
	c0,0,0.3-1.5-1.2-1.2c0,0-1.3,0.2-2.1,2.6c0,0,0,0,0,0.1C9.1,2.8,8.6,3.7,8,3.9C7.8,4,7.5,3.8,7.4,3.6C7.2,3,6.4,1.5,5.5,1.7
	c0,0-0.8,0-0.5,1.1c0,0,0.2,0.9,0.4,1.3c0.1,0.1,0,0.2-0.1,0.3c-0.5,0.3-1.7,1-1.5,2.2c0,0,0,0.4-0.7,0.8c0,0-1.7,0.9-1.7,1.1
	c0,0-0.4,0.3,0,0.7c0,0,0.1,0.1,0.1,0.5c0,0,0.1,1,1.9,1c0.1,0,0.2,0,0.4,0c0.3,0,0.8,0.1,1.3,0.3c0.1,0.1,0.3,0.1,0.5,0.1
	c0.5,0.1,1.6,0.3,1.8,1.6c0,0.1,0.1,0.3,0.1,0.4c0.2,0.5,0.5,2.1-0.3,4.2c0,0-0.3,1.6,0.7,3.7c0,0,0.6,1.2-0.1,3.1c0,0,0,0.1,0,0.1
	c-0.1,0.2-0.2,0.8-0.2,1.2l-1,3c0,0-0.5,2.1-0.4,2.6c0,0-0.1,0.8,0.9,0.9c0,0,0.1,0.4,0.7,0.2c0,0-0.4-0.1-0.2-0.3
	c0,0,0.4,0.4,0.8,0.4c0,0-0.3-0.1-0.2-0.3c0,0-0.4-0.5,0.2,0c0,0,0.2,0.1,0.4,0.1c0,0-0.4-0.2-0.4-0.4c0,0,0.2,0.2,0.3,0.1
	c0,0-0.2-0.3-0.3-0.5c-0.1-0.2,0,0,0,0s-0.9-1.4-0.7-2c0,0,0.1-1,1.6-3.4c0.1-0.1,0.1-0.2,0.2-0.2c0.3-0.3,1.3-1.3,1.2-2.4
	c0-0.1,0.1-0.1,0.1-0.1l1.1,0.8c0,0,0.1,0.1,0,0.3c-0.1,0.2-0.1,0.3-0.1,0.5c-0.1,0.3-0.2,0.9-0.6,1.6c0,0-1.2,1.8-1.5,2.9
	c-0.1,0.2-0.2,0.5-0.3,0.7C9.2,30.4,9,31.5,10.2,32c0,0,0.3,0.6,0.9,0.3l-0.3,0c0,0,0-0.3,0.2-0.2c0,0,0.1-0.4-0.1-0.6
	c-0.1-0.1-0.1-0.2-0.1-0.3c0-0.5,0-1.7,0.2-2c0,0,2-3.1,2.7-3.7c0.1-0.1,0.2-0.1,0.3,0c0.3,0.2,0.7,0.7,0.2,1.1c0,0-0.5,0.4-0.3,1.2
	c0,0-0.8,0.9-0.5,1c0,0,0.5,0.3,0.8,0.1c0,0,0.4-0.2,0.3,0c0,0-1.3,4,0.5,8.2c0,0,1.6,7,0.2,7.1c0,0-3.1,0.6-4.7,1.5
	c-0.4,0.2-0.8,0.3-1.2,0.3C9,46,8.6,46,8.6,46.2c0,0,0.3-0.1,0.3,0c0,0-0.5,0.2-0.4,0.4c0,0,0.4-0.1,0.4,0c0,0,0.3,0.7,1,0.1
	c0,0,0.3,0.1,0.6-0.1c0,0,0.1,0.7,1.9-0.2c0.1,0,0.1,0,0.2,0c0.3,0,1.2,0,2.1-0.4c0.1,0,0.1-0.1,0.2-0.1c0.2,0,0.9-0.1,1.4-0.1
	c0.7,0,1.9-0.2,1.9-1.1c0,0-0.2-6.7,0.1-7.8c0,0,0.4-4.3,1.8-3.9c0.2,0.1,0.4,0.2,0.4,0.4c0.3,1,1.4,4.9,1.4,7.8
	c0,0,0.3,3.2-0.8,3.9l-1.7,0.8c0,0-1.6,0.2-2.2,0.8c0,0-0.7,0.3-0.9,0.3c0,0-1.2-0.2-1.3,0.3c0,0,0.4-0.2,0.3,0c0,0-0.4,0.3-0.4,0.4
	c0,0,0.4-0.2,0.4,0c0,0,0.2,0.7,1.1,0.1c0,0,0.5,0,0.6-0.1c0,0,0.2-0.1,0.2,0c0,0,0.2,0.7,1.7-0.1c0.1-0.1,0.2-0.1,0.3-0.1
	c0.5-0.1,1.8-0.5,2.1-0.6c0,0,1.2-0.2,1.8-0.2c0,0,1.3-0.1,1.2-1.1c-0.1-0.9-0.3-9.2,1.2-11.4c0.1-0.1,0.2-0.1,0.3,0l3.2,5.4
	C29.1,39.6,32.3,46.4,42.3,41.1c3.1-1.6,4.3-2.2,4.4-2.3C46.5,39,42.3,41.1,42.3,41.1z M7.4,6.3c0,0-0.2,0.2-0.4,0.5
	c0,0-0.2,0.3-1,0.1c0,0-0.3-0.3-0.8-0.1c0,0,0.8-0.9,1.4-0.8C6.7,6.1,7.8,6,7.4,6.3z"/>
</svg>
