<?xml version="1.0" encoding="utf-8"?>
<!-- Generator: Adobe Illustrator 19.1.0, SVG Export Plug-In . SVG Version: 6.00 Build 0)  -->
<svg version="1.1" id="Layer_1" xmlns="http://www.w3.org/2000/svg" xmlns:xlink="http://www.w3.org/1999/xlink" x="0px" y="0px"
	 viewBox="0 0 48 48" style="enable-background:new 0 0 48 48;" xml:space="preserve">
<style type="text/css">
	.st0{fill:#808080;}
</style>
<path class="st0" d="M47.9,18.9c0,0,0-0.1,0-0.1c0-0.2,0.1-0.7-0.2-0.9c0,0-0.1-0.1-0.1-0.1c-0.1-0.2-0.4-0.8-0.5-1.4l-0.2-1.8
	c0,0-0.1-0.4-0.8-1.2c-0.1-0.1-0.1-0.2-0.1-0.3c0.2-0.5,0.6-2.2-0.6-2.1c0,0-0.9,0-1.4,0.3c-0.1,0.1-0.3,0.1-0.5,0.1
	c-0.4-0.1-1.2-0.2-2,0c-0.1,0-0.2,0-0.4,0c-0.4-0.2-1.5-0.5-2.2,0.5c-0.2,0.3-0.4,0.4-0.8,0.4c-0.8,0-2.4,0-3.1-0.6
	c0,0-0.1,0-0.1-0.1c-0.3-0.1-1.6-0.4-2.5,0.2c-0.2,0.1-0.3,0.1-0.5,0.1c-0.5,0-1.7,0.1-2.9,1.5c0,0-2.1,2.1-3.8,0
	c0,0-3.2-3.4-8.1-3.4c-0.1,0-0.2,0-0.2-0.1C16.4,9,12,4.7,8.8,6.3c0,0-2.3,1.1-3.5,3.2c0,0,0,0,0,0c-0.1,0.2-1.5,1.8-2.8,0.3
	c0,0,0,0,0,0C2.4,9.7,1.4,8.3,1.2,7.6c0,0-0.4-1-1-0.7c0,0-0.4-0.1,0.1,1.3c0,0,0,0,0,0c0.1,0.2,0.7,2.4,2.8,3.3c0,0,0,0,0,0
	c0.2,0,1.8,0.4,2.7-0.9c0,0,0,0,0,0C6,10.3,8.5,6.3,12,8c0,0,0,0,0,0c0.2,0.1,2.3,1.4,3.2,2.6c0.1,0.1,0.1,0.3,0,0.4
	c-0.6,0.6-2.3,2.6-2.3,7c0,0,0,0.1,0,0.1c-0.2,0.4-1.1,2.5-2.6,5.1c0,0,0,0,0,0c-0.1,0.1-0.4,0.6-0.5,1.2c0,0,0,0,0,0
	c-0.1,0.2-0.7,2.7-1.1,2.9c0,0-0.1,0-0.1,0c-0.2,0.2-1.4,1.2-1.3,1.5c0,0,0,0,0,0c0,0-0.2,0.6,0.2,0.8c0.1,0.1,0.1,0.1,0.1,0.2
	c0,0.2,0.1,0.4,0.6,0.5c0.1,0,0.2,0,0.2,0.1c0.1,0.1,0.2,0.2,0.5,0c0.1,0,0.1,0,0.2,0c0.3,0,1-0.1,1-0.9c0,0,0-0.1,0-0.1
	c0.2-0.4,1.3-3.7,1.5-4.3c0,0,0-0.1,0.1-0.1c0.2-0.3,1.2-1.5,2.5-2.5c0,0,2.2-1.6,2.9-2.9c0.1-0.2,0.4-0.2,0.5,0
	c0.6,0.8,1.8,2.8,2.4,5.5c0,0,0,0.1,0,0.1c0,0.4-0.2,4,0,4.2c0,0,1.8,3.4,2.1,4c0,0,0,0,0,0c0,0.2,0.3,1.2,0.4,1.7c0,0,0,0,0,0
	c0,0.1,0,1.5,1,1c0.1,0,0.2-0.1,0.3,0c0.2,0.1,0.5,0.2,0.9-0.1c0,0,0.1,0,0.1-0.1c0.1,0,0.5-0.2,0.7-1.2c0,0,0-0.1,0-0.1
	c0-0.2-0.2-0.9-0.9-1.8c0,0,0,0,0,0c-0.2-0.2-3-2.8-2.1-5.6l0.6-2c0.1-0.2,0.3-0.3,0.4-0.2c0.6,0.4,2.1,1.1,3.5,1
	c0.1,0,0.2,0.1,0.3,0.2c0.6,1,3.6,6.4,3.9,7.6c0,0,0,0,0,0c0,0.2,0.4,2.4,2.7,4.2c0,0,0,0,0,0c0.1,0.1,1,0.6,1,1.9c0,0,0,0,0,0
	c0,0.2-0.2,2.2,1.3,1.6c0.1,0,0.2,0,0.3,0.1c0.2,0.2,0.6,0.4,1,0.1c0.1-0.1,0.3-0.1,0.4,0c0.2,0.1,0.5,0.3,0.8-0.1
	c0.1-0.1,0.2-0.1,0.3-0.1c0.3,0.1,1,0.1,1-0.5c0,0,0.1-1.5-1-2.4c0,0,0,0,0,0c-0.2-0.2-2-2.1-2.9-2.7c-0.1-0.1-0.2-0.2-0.3-0.3
	c-0.2-0.2-0.6-0.7-0.8-1.3c-0.1-0.2,0.1-0.4,0.4-0.4c0.4,0.1,1.1,0.1,1.8-0.6c0.1-0.1,0.1-0.1,0.2-0.2c0.6-0.4,3.5-2.4,2.5-4.2
	l-2-3.6c-0.3-0.5-0.3-1.1,0-1.6c0.4-0.9,1-2.2,0.8-3.2c0-0.1,0.1-0.3,0.2-0.3l2.1-0.6c0.1,0,0.2,0,0.2,0c0.3,0.2,1.4,0.6,2.8,0.8
	c0.1,0,0.1,0,0.2,0.1c0.4,0.3,2.1,1.5,3.1-0.1c0-0.1,0.1-0.1,0.2-0.1C47.5,20.4,48.3,20.1,47.9,18.9z M36.5,30.4
	c-0.1,0.1-0.2,0.1-0.3,0.1c0,0-0.1,0-0.1-0.1c-0.4-0.3-1,0.5-1.1,0.6c0,0,0,0,0,0c-0.1,0.1-0.5,0.5-0.7,0.6c-0.1,0-0.2,0.1-0.2,0.1
	c-0.1,0-0.3,0-0.4,0c-0.2,0-0.3,0-0.4-0.2l-1.5-4c0,0,0,0,0,0c-0.1-0.4-0.1-0.7,0-0.8c0-0.1,0.2-0.2,0.3-0.2c0.9,0,1.8-0.3,2.2-0.4
	c0.1-0.1,0.3,0,0.4,0.2c0.3,0.7,1.3,2.2,1.4,2.4c0,0,0,0,0,0c0.3,0.5,0.5,0.6,0.7,0.6c0.1,0,0.1,0,0.2,0.1
	C37.3,29.8,36.5,30.4,36.5,30.4z M43,14.9c0,0,1.1-0.8,1.4,0.5C44.4,15.4,43.4,16.1,43,14.9z"/>
</svg>
