<?xml version="1.0" encoding="utf-8"?>
<!-- Generator: Adobe Illustrator 19.1.0, SVG Export Plug-In . SVG Version: 6.00 Build 0)  -->
<svg version="1.1" id="Layer_1" xmlns="http://www.w3.org/2000/svg" xmlns:xlink="http://www.w3.org/1999/xlink" x="0px" y="0px"
	 viewBox="0 0 48 48" style="enable-background:new 0 0 48 48;" xml:space="preserve">
<style type="text/css">
	.st0{fill:#808080;}
</style>
<path class="st0" d="M48,33c0,0-0.5-2.3-2.3-5.5c0,0-1-1.2,0-2.7c0,0,2.3-4.1,2.2-5.4c0,0,0-1.6-1.3-0.8c-0.1,0.1-3.3,2-4.6,3.1
	c-0.6,0.5-1.2,0.8-2,1c-1.3,0.4-3.3,0.7-4.7,0.3l-9.9-2.9c0,0,2.3,0.4,2.4,0.2c0,0,0.7,0.1,0-1.5l-1.6-4.2c0,0-0.9-1.7-2.3-0.6
	l-4.2,4.4c-0.2,0.2-0.5,0.3-0.7,0.3c-1.6,0-7.3,0.2-10.7,1.7c0,0-0.1,0-0.1,0.1C7.8,20.8,6,21.7,5.3,22c0,0-5.8,1.9-5.2,3.8
	c0,0-0.1,0.4,0.3,0.4c0,0,1,0.2,1.2,0.4l-1.1,0c-0.1,0-0.1,0-0.2,0.1C0.2,26.8,0,27,0.4,27.3c0,0,1.1,0.7,1.5,0.9
	c0,0,1.8,1.2,9.1,2.1c0.5,0.1,1,0.3,1.3,0.7c0.8,1,2.6,2.8,4,1.8c0,0,1.2-0.7,0-2.3l2.5,0c0.2,0,0.4,0.1,0.5,0.3
	c0.6,1.1,3.1,4.8,4.5,3c0,0,2.2-2.9,0.5-3.5l2.5-0.2c0.1,0,0.3,0,0.4,0.2c0.8,0.9,4.4,5,5.3,3.1c0,0,3.3-4.7,2-4.8l-2.4-0.1
	c0,0,3.5-0.8,6.4,0c0.1,0,0.2,0.1,0.3,0.1c0.3,0.1,1.1,0.4,1.7,0.8c0.2,0.1,0.5,0.3,0.7,0.4c0.9,0.8,3.4,3,5.2,3.8
	C46.6,33.5,48.1,34.2,48,33z M4.4,25.9c-0.6,0-1.2-0.5-1.2-1.1c0-0.6,0.5-1.1,1.2-1.1c0.6,0,1.2,0.5,1.2,1.1
	C5.6,25.4,5.1,25.9,4.4,25.9z"/>
</svg>
