<?xml version="1.0" encoding="utf-8"?>
<!-- Generator: Adobe Illustrator 19.1.0, SVG Export Plug-In . SVG Version: 6.00 Build 0)  -->
<svg version="1.1" id="Layer_1" xmlns="http://www.w3.org/2000/svg" xmlns:xlink="http://www.w3.org/1999/xlink" x="0px" y="0px"
	 viewBox="0 0 48 48" style="enable-background:new 0 0 48 48;" xml:space="preserve">
<style type="text/css">
	.st0{fill:#808080;}
</style>
<path class="st0" d="M46.3,27.6c0,0-1.2-2.3-3.3-0.4c0,0-1,0.8-1.2,1.3c0,0.1-0.1,0.2-0.2,0.2c-0.2,0.1-0.6,0.3-0.7,0.6
	c0,0.1-0.1,0.2-0.2,0.2c-0.2,0.1-0.4,0.3-0.6,0.7c-0.1,0.2-0.3,0.4-0.5,0.5c-0.8,0.5-2.7,1.6-2.9,2.5c0,0-0.7,1.1-1.2,0.5
	c0,0-3.3-6.1-5.9-7.7c0,0,2.1-1.9,0.4-3.7c0,0,0-3.8-1-5.6c-0.2-0.4-0.1-0.9,0.3-1.3l2.9-2.5c0.3-0.3,0.7-0.4,1.1-0.3
	c1.1,0.3,3.3,0.5,5.1-1.5c0,0,0.2,1.9-0.1,2.9c0,0,5-2.9,0.8-9.4c0,0,0.9-1.9-3.4-4.2c-0.1-0.1-0.2-0.1-0.3-0.1
	c-1-0.3-5.9-1.6-11.6,1.6c0,0-6.4,3.7-7.8,6.1c-0.4,0.7-0.9,1.4-1.5,2l-7.4,7.7c-0.3,0.3-0.5,0.5-0.8,0.7c-1.2,1-4.9,4.8-4.1,12.3
	l1,4.5c0.1,0.2,0,0.5-0.1,0.7c-0.6,1.1-2.6,5.1-1,5.9c0,0,0.5-0.7,0.7-0.3c0,0,0.2,0.2,0.6-0.3c0,0,0.4-0.3,0.5,0.5
	c0,0,0.1,0.2,0.4-0.1l1.3-1.1c0.2-0.1,0.4-0.1,0.6,0C7,40.9,8.3,42,7.5,41.9c0,0-0.3,0.1,0.2,0.3c0,0,0.5,0.2,0.1,1.5
	c0,0-0.5,2.5-0.5,2.7c0.1,0.1,0.1,0.1,0.1,0c0,0.2,0.4,0.6,2.9-0.3c0.1,0,0.1,0,0.1,0.1c-0.1,0.3-0.4,1.1,0,1.4c0,0,0.4-1.6,1.3-1.4
	c0.1,0,0.1,0.1,0.1,0.1c-0.1,0.4-0.3,1.9,1.1,1c0,0,0.3-0.1,0.4,0.3c0,0,0.4,0.1,0.6,0c0,0,0.1,0,0.1,0c0.2,0.1,1,0.2,1.1,0
	c0,0,0.1-0.1,0.2,0c0.4,0.1,1.4,0.3,1.7,0c0-0.1,0.1-0.1,0.2,0c0.2,0.1,0.7,0.3,1.3,0c0,0,0.1,0,0.1,0c0.2,0,1-0.1,1.4,0.1
	c0.1,0.1,0.3,0.1,0.4,0.1c0.3,0.1,0.9,0.1,1.5,0.1c0.1,0,0.2,0,0.3,0c0.3,0.1,1.3,0.2,1.8-0.1c0,0,0.1,0,0.1,0c0.1,0,0.3,0,0.5,0.1
	c0,0,1,0.5,1-0.6c0,0,0.1,0.3,0.2,0.6c0,0,0.3-0.3,0.2-1.1c0-0.1,0.1-0.1,0.1-0.1c0.2,0.2,0.7,0.6,0.9,1.4c0,0,0.4-2.8-1.9-2.4
	c0,0-1.3,0.1-1.7,0.3c-0.1,0-0.1,0.1-0.2,0c-0.3,0-1-0.1-1.4,0c-0.1,0-0.2,0-0.3-0.1c-0.3-0.3-1.1-0.9-2.6-1c-0.2,0-0.3-0.1-0.4-0.3
	c-0.3-0.5-1-1.8-1-3.2c0-0.5,0.2-0.9,0.6-1.2c0,0,0,0,0,0c0.1-0.1,0.2-0.1,0.3-0.1c0.6-0.1,2.8-0.9,6-4.3c0.2-0.2,0.5-0.2,0.6,0
	c0.3,0.4,0.6,1.2-0.2,2.8c0,0,2-0.2,3.5-3.4c0.1-0.2,0.3-0.2,0.5-0.1c1,1,4.5,4.1,6.8,2.6c0,0,0.5-0.2,0.4,0.5c0,0-0.7,2.6,1.3,2.4
	c0,0-0.9-1-0.6-1.5c0,0,1.1,0.2,0.9-1c0,0-0.2-0.5,0.2-0.7c0,0,0.4-0.4,0.3-0.9c0-0.1,0-0.2,0.1-0.3c0.1-0.2,0.4-0.5,0.4-1.1
	c0,0,0.5-1.2,1.1,0.3c0,0,0.4,0.9,0.4,1.7c0,0.1,0,0.2,0,0.3c0.1,0.3,0.3,1,0.5,1.3c0,0,0.7,1.6,2.4,1.5c0,0-1.7-1-1.5-1.6
	c0,0,1.5-0.2,0.2-1.3c0,0-0.1-0.1,0-0.2c0.1-0.2,0.2-0.7-0.2-0.9c-0.1,0-0.1-0.1-0.1-0.2c0.1-0.2,0.3-0.7-0.2-1.1
	c-0.1-0.1-0.1-0.2-0.1-0.3c0-0.3,0-1-0.5-1.2c0,0,0-0.3-0.1-0.5c-0.1-0.1,0-0.3,0.1-0.3c0.4-0.3,1-0.8,1-1.2c0,0,1.3-1.4,1.4-1.7
	c0,0,0.2-0.2,0.4,0.1c0,0,0.1-0.2,0-0.4c0,0,0.3-0.5,0.5-0.5c0,0,1.8-0.6,0.4-1.4C44.2,27.5,44.7,26.9,46.3,27.6z M30.7,2.8
	c0.7,0,1.2,0.5,1.2,1.1S31.3,5,30.7,5c-0.7,0-1.2-0.5-1.2-1.1S30,2.8,30.7,2.8z"/>
</svg>
