<?xml version="1.0" encoding="utf-8"?>
<!-- Generator: Adobe Illustrator 19.1.0, SVG Export Plug-In . SVG Version: 6.00 Build 0)  -->
<svg version="1.1" id="Layer_1" xmlns="http://www.w3.org/2000/svg" xmlns:xlink="http://www.w3.org/1999/xlink" x="0px" y="0px"
	 viewBox="0 0 48 48" style="enable-background:new 0 0 48 48;" xml:space="preserve">
<style type="text/css">
	.st0{fill:#808080;}
</style>
<path class="st0" d="M47.9,17c0,0-0.1-0.5-1-0.5c0,0-1.3-0.2-2-0.3c-0.2,0-0.3-0.2-0.4-0.4c-0.1-0.4-0.6-1.1-1.9-1.8
	c-0.4-0.2-0.8-0.4-1.2-0.6c-0.9-0.5-3-1.4-5.8-1.5c0,0-8.9-1.1-14.5,0.2c0,0-4.9,0.9-6.6-0.4c0,0-3.5-3-6.8-2.5
	c-0.3,0-0.4,0.4-0.2,0.6c0.8,0.6,2.1,1.9,2.7,3.2c0.3,0.9,0,1.9-0.7,2.4c-1.3,0.9-4.1,3.1-5.1,5.1c-0.2,0.3-0.3,0.7-0.5,1
	c-0.5,0.9-1.4,3.8-0.4,11.8c0.1,0.4-0.1,0.8-0.4,1.1c-0.9,1-2.9,3.2-3.2,4.7c0,0,1.9-1.8,3.1-2.4c0,0,0.7-0.4,1-1c0,0,0.2,0.3,0.5,0
	c0,0,1.3-1.4,2.8-1.9c0,0,0.2-0.3,0.1-0.6c0,0,0-0.8-1-0.5c-0.1,0-0.2-0.1-0.2-0.2c0.5-1.2,2.5-5.5,3.3-6c0,0,0.4-1.2,6-0.8
	c0,0,6.7,0.9,11.8-1.3l1.3-0.2c0,0-1.5,0.8-1.6,2.3c0,0,0.1,1.2-1,2.7c0,0-2,2.6-1.2,2.5c0,0,2.7,0.3,7.1-7.7c0.3-0.6,0.8-1,1.4-1.3
	c2.5-1,9.3-3.7,12.7-4.1C46.1,18.4,48.6,18.1,47.9,17z M38.6,17.4c-0.2,0-0.4-0.1-0.4-0.2c0-0.1,0.2-0.2,0.4-0.2
	c0.2,0,0.4,0.1,0.4,0.2C39,17.3,38.8,17.4,38.6,17.4z"/>
</svg>
