<?xml version="1.0" encoding="utf-8"?>
<!-- Generator: Adobe Illustrator 19.1.0, SVG Export Plug-In . SVG Version: 6.00 Build 0)  -->
<svg version="1.1" id="Layer_1" xmlns="http://www.w3.org/2000/svg" xmlns:xlink="http://www.w3.org/1999/xlink" x="0px" y="0px"
	 viewBox="0 0 48 48" style="enable-background:new 0 0 48 48;" xml:space="preserve">
<style type="text/css">
	.st0{fill:#808080;}
</style>
<path class="st0" d="M47.7,16.2c0,0-2.2-2.3-3.4-4.1c0,0,0.8-0.5-2-2.4c0,0-0.2-0.2-0.4-0.6c0,0-0.3-1.2-1.4-0.5
	c0,0-0.6,0.4-0.4,0.8c0,0-1.1,0.8-2.2,0.9c0,0-2-0.7-2.3,0.6c0,0-2.5,1-6.9-0.5c0,0-9.1,0.8-12.2,1c-0.1,0-0.1,0-0.2,0
	c-0.8,0.1-6.4,0.9-7.7,0.6c0,0-7.7,0.3-7.1,5.5L2,23.6c0,0-0.2,2.9-0.3,3.8c0,0.1-0.1,0.2-0.1,0.4c-0.2,0.3-0.5,1.1-0.4,2
	c0,0.1,0,0.3,0,0.4c-0.1,1.1-0.5,6.2-1,6.6c0,0-0.4,0.5-0.1,0.6c0,0,0.6-0.2,0.6,0.4c0,0,0.1,0.5-0.1,0.8c0,0-0.3,1,0.9,1
	c0.7,0,0.6,0,0.4,0c0.6,0,1.7-0.1,1.5-0.5c0,0-0.1-0.2-0.3-0.4c-0.3-0.4-0.5-0.9-0.7-1.3c0-0.1,0-0.1-0.1-0.2
	c-0.1-0.2-0.1-0.3-0.1-0.5c0-1,0-4.4,1.9-7.3c0,0,0.8-1.3,1.1-2c0-0.1,0.2-0.1,0.3,0c0.2,0.2,0.6,0.5,1.3,0.8
	c0.2,0.1,0.3,0.3,0.2,0.4c-0.1,0.3-0.3,0.9,0.2,1.4c0.1,0.1,0.2,0.2,0.2,0.4c0.3,1.1,1.6,5.5,1.7,6c0,0-0.3,0.4,0,0.8
	c0,0,0.2,0.3,0.5-0.1c0,0,0.3-0.1,0.5,0.8c0,0,0,0.7,0.8,0.7c0,0,2.2,0.1,1.9-0.4c0,0-1.4-1.1-1.7-1.6c0,0-2.7-4-0.9-8.3
	c0.1-0.2,0.3-0.2,0.4-0.1c0.1,0.1,0.2,0.2,0.2,0.5c0,0-0.2,0.7,0.3,0.6c0,0,0.3-0.1,0.2-0.9c0,0,0.8-0.3,1-0.5c0,0,0.7,0.1,1.1,0
	c0.2-0.1,0.4-0.1,0.6,0c0.7,0.2,2.3,0.5,3.3,0.3c0.1,0,0.1,0,0.2,0c0.8-0.2,5-1,5.9-1.5c0,0,0.1,0,0.1,0c0.2-0.1,1.1-0.4,2-0.2
	c0.6,0.1,1.1,0.7,1.1,1.4c0,0,0,0.1,0,0.1l-0.1,2.6c0,0-0.3,0.7,0.1,1.3c0,0-0.2,3.9-0.7,4.6c0,0-0.5,0.8,0.4,0.6c0,0,0.2,0.4,0,1
	c0,0-0.1,0.7,0.7,0.9c0,0,2,0.2,2.1-0.4c0,0.2,0,1.1,0.9,1.2c0,0,1.8,0.1,1.8-0.2c0,0,0.7,0.2,0.3-0.4c0,0-2.4-1.9-2.4-6
	c0,0,0.6-0.8,0.2-2.4l-0.3-2.7c0-0.1,0.1-0.2,0.2-0.2c0.5,0.1,1.8,0.2,2.4-1c0-0.1,0.1-0.2,0.2-0.3l3.4-5.7c0.3-0.6,0.8-1.1,1.2-1.5
	c0.3-0.2,0.5-0.5,0.8-0.7c0.9-0.7,2-1,3.1-0.9c1.1,0.1,2.5,0.3,3.3,0.2c0,0,1.1-0.1,1.5,0.4c0,0,1.1,0.2,1.8-0.6
	C47.4,17.7,48.5,17,47.7,16.2z M28.1,37.5c-0.8-0.4-0.7-2.9-0.7-2.9C27.2,33,28,32.2,28,32.2c0.8,1,0.6,4.1,0.6,4.1
	C28.7,37.2,28.1,37.5,28.1,37.5z M29.1,38.2c0,0-0.5-0.2-0.5-0.4c0,0,0.2-0.3,0.4-0.1C28.9,37.8,29.2,38,29.1,38.2z M42.5,12.6
	c0,0,0.1-0.7,0.7-0.3C43.2,12.3,43,13,42.5,12.6z"/>
</svg>
