<?xml version="1.0" encoding="utf-8"?>
<!-- Generator: Adobe Illustrator 19.1.0, SVG Export Plug-In . SVG Version: 6.00 Build 0)  -->
<svg version="1.1" id="Layer_1" xmlns="http://www.w3.org/2000/svg" xmlns:xlink="http://www.w3.org/1999/xlink" x="0px" y="0px"
	 viewBox="0 0 48 48" style="enable-background:new 0 0 48 48;" xml:space="preserve">
<style type="text/css">
	.st0{fill:#808080;}
</style>
<path class="st0" d="M47.5,15.1c0,0,1.8-1.4-1.7-3c0,0-4.9-2.5-8.7,2.2c0,0-3.3,4-5,5c-0.1,0.1-0.3,0.1-0.4,0.2
	c-1.1,0.7-6.2,4-7.1,4.9c-1,0.9-0.1,0.2,0,0.1c-0.1,0.1-1.4,1.2-2.5,1.5c-0.1,0-0.1,0-0.2,0.1c-0.9,0.3-6.1,2.3-6,3.1l0.7-0.2
	c0,0,0.1,0,0.1,0.1c0,0.1,0,0.1,0.1,0.2c0,0,0,0.1,0,0.1c-0.8,0.2-5.6,1.4-16.7,2.9c0,0,0.3,0.3,1.6,0.3l3.9,0c0,0,0.1,0.1,0,0.1
	l-2,0.6c0,0,0,0.1,0,0.1l1.3,0.1c0,0,0,0,0.1,0c0.4,0,5.9-0.3,7.9-0.7c0,0,0.1,0,0.1,0c0.7-0.1,8.2-0.7,11.1-1.8
	c0.1,0,0.2-0.1,0.3,0c0.5,0.1,2.4,0.3,3.3,0c0.1,0,0.2,0,0.3,0c0.4,0.1,1.2,0.2,2-0.1c0.1,0,0.1,0,0.2,0c0.2,0.1,0.7,0.3,1.2,0.3
	c0.3,0,0.5,0.3,0.5,0.5c0.1,0.7,0.3,1.9,0.7,2.5c0.1,0.2,0.3,0.3,0.5,0.4c0.3,0.1,0.9,0.4,1.2,0.7c0.1,0.1,0,0.3-0.2,0.3l-2.6-0.1
	c0,0-1.5-0.6-1.4,0.5c0,0,0.8-0.7,1.1-0.2c0,0-0.2,0.5,0.2,0.5l1.7,0.1c0,0,0,0,0.1,0c0.2,0,0.9,0.2,1.4,0c0,0,0,0,0.1,0
	c0.2,0,1-0.1,1.6,0.1c0,0,1.9,0.2,2.1,0.1c0,0,1.4,0.2,1.1-0.3c0,0,0.6-0.3,1.4,0.4c0,0,0.1-0.8-1.5-0.9c0,0-0.3-0.4-0.9-0.5
	c0,0-2.5,0.1-2.9-0.3c0,0-1.5-1.1-1.3-1.6l0.5-1.4c0.1-0.3,0.3-0.5,0.6-0.5c0.1,0,0.3,0,0.4,0.1c0,0,0,0.1,0.1,0.1
	c0,0.1,0.1,0.4,0.5,0.5l1.8,0.1c0,0,0,0.4-0.8,0.4c0,0-1.3-0.2-1,0.9c0,0,0.2-0.8,0.7-0.5c0,0,0.2,0.6,0.7,0.3c0,0,0.1,0,0.1,0
	c0.1,0,0.3,0,0.4-0.2c0,0,0.1-0.1,0.1-0.1c0.1,0,0.3,0,0.4-0.2c0,0,0-0.1,0.1-0.1c0.1,0,0.1,0,0.2,0.1c0,0,0.8,0.6,1.3,0.4
	c0,0,0.1,0,0.1,0c0.3,0.1,1.4,0.5,1.3-0.1c0-0.1,0-0.1,0.1-0.1c0.2-0.1,0.5-0.1,0.6,0.4c0,0,0.1-0.2,0.1-0.3c0,0,0.9,0.3,0.8-0.3
	c0,0,0-0.1,0.1-0.1c0.2,0,0.6-0.1,1,0.5c0,0,0.2-0.9-1.4-0.9c0,0-3.6,0.3-5.1-1.3c-0.3-0.3-0.4-0.7-0.3-1.1c0.1-0.4,0.2-0.8,0.3-1.2
	c0.1-0.4,0.3-0.8,0.7-1.1c1.3-0.9,4.3-3.4,4.3-5.9c0,0,0.2-4.1,1.8-3.9c0,0,1.2,0.4,1.9-0.2c0,0-0.2,1.1-0.4,1.3
	C46.2,19.2,49.2,18.4,47.5,15.1z M44.3,14.8c0,0-1.7,0.1-0.8-1.1C43.5,13.7,44.7,14,44.3,14.8z"/>
</svg>
