<?xml version="1.0" encoding="utf-8"?>
<!-- Generator: Adobe Illustrator 19.1.0, SVG Export Plug-In . SVG Version: 6.00 Build 0)  -->
<svg version="1.1" id="Layer_1" xmlns="http://www.w3.org/2000/svg" xmlns:xlink="http://www.w3.org/1999/xlink" x="0px" y="0px"
	 viewBox="0 0 48 48" style="enable-background:new 0 0 48 48;" xml:space="preserve">
<style type="text/css">
	.st0{fill:#808080;}
</style>
<path class="st0" d="M47.7,20.7c0,0-4.6-5.7-7.7-5.5c-0.2,0-0.3,0-0.4-0.1c-0.6-0.3-2.4-1.3-2.9-2.5c0,0-2-3.4-4.3-4.8l-2.8-2
	c0,0,0,0-0.1,0c-0.2-0.2-1.6-1.6-2.2-0.3c0,0-1.1-0.7-1,1.6c0,0,0,0,0,0.1c0.1,0.4,1.1,5.5,5.1,7.3c0.2,0.1,0.3,0.2,0.4,0.4l1.1,1.9
	c0.1,0.2,0.1,0.5,0,0.7c-0.4,0.5-1,1.5-0.6,2.8c0,0.1-0.1,0.3-0.2,0.3c-0.4,0-1,0.1-1.6,0.3c-0.1,0-0.1,0-0.2,0
	c-0.3,0-1.1,0-1.2-0.1l-0.6-0.4c-0.1-0.1-0.2-0.1-0.3-0.1c-2.2-0.3-24-2.9-25,14.5c0,0-0.7,0.8-0.2,1.6c0,0-2.4-0.1-2.8,1.6
	c0,0,1.6,2,5.3,2.2c0,0-0.3,1,2,1.1l4.9,0.7c0,0,5.4,0.5,3.6-0.9c0,0,6.3,0.1,6.8-0.6c0,0-0.7,2.3,3.1,2.5l2.5-0.1
	c0,0-0.2-2.2-1.6-1.9c0,0-0.3-0.8-0.6-1c0,0-0.4-0.8,0.6-0.9c0,0,3.8-1.5,4.2-1.6c0,0,0.7-0.2,1.1,0.5c0,0,1.3,2.4,3.8,3
	c0.1,0,0.1,0,0.2,0l3.4,0c0.2,0,0.3-0.1,0.4-0.2c0.3-0.4,0.8-1.4-0.5-1.7c0,0-1-0.3-1.6-0.4c-0.1,0-0.2-0.1-0.3-0.1
	c-0.1-0.2-0.4-0.4-1-0.5c0,0-0.1,0-0.1-0.1c-0.2-0.2-0.6-0.7-0.5-1.2c0-0.1,0.1-0.2,0.2-0.2c0.7-0.2,3.8-1.5,5.6-8.7
	c0,0,0.1-0.6,0.8-0.7c0,0,0.9-0.1,0.7-0.8c0,0,1.7-0.3,2.4-0.9c0.1-0.1,0.2-0.2,0.3-0.2c0.6-0.3,2.1-1.3,2-2.6c0,0-0.1-0.7,0.1-0.7
	C47.9,21.9,48.2,21.3,47.7,20.7z M41.2,19.4c-0.8,0.2-1.4-0.1-1.4-0.1c-0.9-1,0.2-1.5,0.2-1.5c1.4-0.6,1.6,1,1.6,1
	c0,0.4,0.2,0.6,0.2,0.6C41.8,19.3,41.2,19.4,41.2,19.4z"/>
</svg>
