<?xml version="1.0" encoding="utf-8"?>
<!-- Generator: Adobe Illustrator 19.1.0, SVG Export Plug-In . SVG Version: 6.00 Build 0)  -->
<svg version="1.1" id="Layer_1" xmlns="http://www.w3.org/2000/svg" xmlns:xlink="http://www.w3.org/1999/xlink" x="0px" y="0px"
	 viewBox="0 0 48 48" style="enable-background:new 0 0 48 48;" xml:space="preserve">
<style type="text/css">
	.st0{fill:#808080;}
</style>
<path class="st0" d="M47.1,44.4c0,0,0.5,0.4,0.9,0.5l-4.1-4.2L37.4,34l-7.4-7.5c-0.1-0.1-0.1-0.1-0.1-0.2l-0.1-0.2
	c-0.1-0.2,0.1-0.4,0.3-0.4c0.5,0,1.3,0.1,1.6,0.3c0,0,0.3,0.2,0.3-0.4l1.4,0.8c0,0-0.4-0.6-0.2-0.6c0,0-0.2-0.7-1-1.6
	c0,0-0.1-0.1-0.1-0.1c-0.3-0.3-2.1-1.6-3.4-2.5c-0.6-0.4-1.1-1-1.5-1.6c-1-1.5-4.1-5-13.1-9.9c-0.2-0.1-0.5-0.3-0.7-0.5
	c-0.5-0.4-1.4-1.3-2.2-2.1c-0.3-0.3-0.5-0.6-0.8-0.9C9.8,5.5,8.1,3,6.1,2.3c0,0-3.1-1.4-5,0.1c0,0-1.2,0.5-0.7,1.7
	c0,0-0.8,1.8-0.2,3.1c0,0,0.4,1.2,0.7,0.5c0,0,0,0.5,0.5,0.5c0,0,0.2,1.3,0.5,2.2c0,0,0,2,1.1,4.6c0.2,0.6,0.4,1.2,0.5,1.8
	c0.2,1.3,0.9,3.9,4.4,4.9c0.5,0.1,0.9,0.3,1.3,0.6c0.9,0.5,2.6,1.4,4.8,1.7c0,0,0.7,0,0.6,0.5c0,0-2.5,0.1-2.8,0.5
	c0,0,0,0.1-0.1,0.1c-0.2,0.3-1.1,1.6-1.1,2c0,0-0.1,0.4,0.2,0.8c0,0-0.2,0.7,0.5,1.2c0,0,0.8,0.9,1.7,0.3c0,0-1.1,0-1.2-0.5
	c0,0,0.5-0.5-0.3-0.6l0.1-0.1c0,0,0-0.1,0-0.1c-0.1-0.1-0.3-0.2-0.3-0.4c0,0,0.2-1.5,1.3-1.9c0,0-1,1.1-0.7,1.7c0,0,0,0.4,0.2,0.6
	c0,0,0,0,0,0c0,0.1-0.1,0.5,0.4,0.8c0,0,0.9,1.1,1.7,0.3c0,0-1,0.2-1.2-0.4c0,0,0.4,0,0.2-0.6c0,0-0.1-0.1-0.3-0.1
	c0,0,0.2-0.4-0.1-0.5c0,0,0.3-0.5,0.3-0.7c0,0,0.2-1.5,2.6-1.4c0,0,2.1,0.1,2.2-0.3c0,0,0.3-0.2,0.7,0c0,0,5.2,2,7.6,5.3
	c0,0,5.7,5.6,8.5,7.3c0.4,0.2,0.7,0.5,1.1,0.8c1.7,1.3,6.3,4.9,7.9,5.7c0.4,0.2,0.9,0.5,1.2,0.8c0.7,0.6,1.7,1.3,2.7,1.2L43.2,42
	C43.4,42.2,47,45.4,47.1,44.4z M5.1,4.9c-0.4,0-0.7-0.3-0.7-0.6c0-0.3,0.3-0.6,0.7-0.6c0.4,0,0.7,0.3,0.7,0.6
	C5.7,4.7,5.5,4.9,5.1,4.9z"/>
</svg>
