<?xml version="1.0" encoding="utf-8"?>
<!-- Generator: Adobe Illustrator 19.1.0, SVG Export Plug-In . SVG Version: 6.00 Build 0)  -->
<svg version="1.1" id="Layer_1" xmlns="http://www.w3.org/2000/svg" xmlns:xlink="http://www.w3.org/1999/xlink" x="0px" y="0px"
	 viewBox="0 0 48 48" style="enable-background:new 0 0 48 48;" xml:space="preserve">
<style type="text/css">
	.st0{fill:#808080;}
</style>
<path class="st0" d="M40.8,36.5c0,0,4.8,1.7,7.2,1.3c0,0-4.4-1.1-5.7-1.6l-6.6-3l-6.2-3.5l-5.1-3.2c0,0,0-0.1,0-0.1l3.3,0.8
	c0,0,0.1-0.3-0.4-0.7c0,0-1-0.8-2.8-1.4c-0.5-0.2-0.9-0.5-1.3-0.9c-1-1.1-3.2-3.6-4.8-4.9c0,0-3.1-2.6-4.6-3.5
	c-0.2-0.1-0.4-0.3-0.6-0.5L9,11.6c-0.1-0.1-0.2-0.2-0.3-0.3c-0.4-0.4-1.9-1.9-3.4-1.7c-0.1,0-0.2,0-0.3,0c-0.5,0-2.4,0.1-4.1,1.6
	c0,0-1.7,1.5-0.7,2c0,0-1.3,3.6,2.1,4.5c0,0-1-1.7-0.3-1.5c0,0,0.3,0,0.3-0.4c0,0,0.5,0.2,1.8-0.2c0.1,0,0.2,0,0.2,0.1
	c0.3,0.9,1.5,4.7,4.8,7.4c0.2,0.1,0.3,0.3,0.4,0.5c0.3,0.8,1,2.6,0.6,2.7c0,0-0.2-0.2-0.3,0.1c0,0-1.3,0.1-1.8,0.5
	c-0.1,0.1-0.2,0.1-0.3,0.2l-1.6,0.9c-0.1,0-0.1,0.1-0.2,0.1c-0.1,0-0.3,0.2-0.4,0.4c0,0-0.8,0.6-0.3,1.3c0,0,0.2-1,0.4-0.8
	c0,0,0.3,0.3,0.5-0.1c0,0,0.3-0.3,0.4-0.3c0,0,0.1,0.2,0.3,0.2c0,0-0.2-0.6,0.2-0.5c0,0,0.3,0.1,0.4-0.2c0,0,0-0.1,0.1-0.1
	c0.1,0,0.2,0,0.4-0.2c0,0,0,0,0.1,0c0.1,0,0.2,0,0.3,0c0,0,0,0,0,0.1c0,0-0.1,0.1-0.1,0.2c0,0,0,0,0,0c-0.1,0-0.9,0.2-1.2,0.8
	c0,0-0.3,0.5,0.2,0.9c0,0,0.1-1,0.3-0.9c0,0,0.4,0.3,0.8-0.1c0,0,0.1,0,0.1-0.1c0.1,0,0.2-0.1,0.3,0c0,0,0,0,0,0
	c0.1,0,0.7,0.1,1-0.2c0,0,0,0,0.1,0c0.1-0.1,0.8-0.3,1.3-0.3c0,0,3.3,0.1,3.5-0.2c0,0,0.4,0.2,0.3,0.6c0,0,0.5-0.8-0.5-1.1
	c0,0-0.3-0.1-0.5-0.1c-0.1,0-0.1-0.1-0.1-0.1c0.1-0.2,0.1-0.6,0.1-1.2c0-0.1,0.1-0.1,0.2-0.1c1.2,0.8,7.8,5.2,10.2,6.5
	c0,0,0.1,0,0.1,0c0.1-0.1,0.2-0.2,0-0.4C24,32.1,24,32,24,31.9c0.1,0,0.1-0.1,0.2-0.2c0,0,0.1,0,0.2,0c0.4,0.2,1.8,1.1,1.1-0.2
	c0,0,0,0,0,0l5.7,4.8c-0.1-0.1-2.5-2.7-3.8-3.7l4.2,3l-5.3-4.3l-2.1-1.8c0,0,0,0,0,0l4.2,3.2c0,0,4.7,3.4,5.2,3.7
	c0,0,3.2,2.3,2.8,1.6l-4.8-3.5c0,0-4.6-3.7-4.7-4.1l6.5,4.9c0,0,3.5,2.7,4.2,2.6c0,0-0.7-0.9-0.9-1c0.1,0.1,4.5,2.6,4.1,1
	c0,0-1.2,0-1.7-0.3c-0.1,0-0.1-0.1-0.2-0.1l-6-3.7l-4.9-3.4l-0.9-0.6l6.4,3.6C33.6,33.3,39.3,36.2,40.8,36.5z M3.8,12.4
	c0,0-0.3-0.6,0.4-0.5C4.2,11.8,4.5,12.4,3.8,12.4z"/>
</svg>
