<?xml version="1.0" encoding="utf-8"?>
<!-- Generator: Adobe Illustrator 19.1.0, SVG Export Plug-In . SVG Version: 6.00 Build 0)  -->
<svg version="1.1" id="Layer_1" xmlns="http://www.w3.org/2000/svg" xmlns:xlink="http://www.w3.org/1999/xlink" x="0px" y="0px"
	 viewBox="0 0 48 48" style="enable-background:new 0 0 48 48;" xml:space="preserve">
<style type="text/css">
	.st0{fill:#808080;}
</style>
<path class="st0" d="M40.3,37.3c-0.4-0.1-4.4-1.5-1.4-5.3c0.3-0.4,0.6-0.7,1-1c1.1-0.8,3.7-3.2,1.5-5.8c0,0-1.6-2.1-7-1.2
	c0,0-4.7,0.9-7.6,1.5c0,0-6.5,1.7-10.7,1.1c0,0-4-0.7-4.7-2.2c0,0,0,0,0-0.1c-0.1-0.3-1.4-3.2,2.7-3.3c0.3,0,0.5,0,0.7,0
	c1.3,0.1,4.2,0.5,8.3,1.7c0,0,6.8,1.7,10.5-0.5c0,0,9.2-5.6-1-11.6c0,0-5.4-2.4-11.1-0.8c0,0-9,2.2-12.8,0.6c0,0-0.1,0-0.1-0.1
	c-0.5-0.3-4.6-2.1-7-0.7c0,0-2.2,0.7-1.2,1.4c0,0,0.2,0.2,2.3,0.3c0,0,2.6-0.1,3.6,0.7c0,0,0.1,0.1,0.1,0.1
	c0.6,0.3,4.5,2.2,12.9,1.1c0,0,0.1,0,0.1,0c0.5-0.1,4.2-0.9,4.9-1c0,0,4-0.4,5.8,0.8c0.1,0.1,0.3,0.2,0.4,0.3
	c1.1,0.6,4.9,2.8,2.9,4.9c0,0-0.1,0.1-0.1,0.1c-0.3,0.3-2.1,2.1-7.2,1.2l-9.4-1.8c0,0-7-1.3-8.4,2.7c0,0-4.7,12.6,16.4,8.9
	c0.1,0,0.1,0,0.2-0.1c1.1-0.4,11.1-3.5,13.8-2.5c0.6,0.2,0.7,1,0.2,1.4c-1.4,1.3-6.2,6.2,0.1,10.3c0.1,0.1,0.2,0.1,0.3,0.1
	c1.1,0.3,7.3,1.5,8.7-5.1C48,33.4,45,38.9,40.3,37.3C40.3,37.3,40.3,37.3,40.3,37.3z M2.3,10.6c-0.2,0-0.3-0.1-0.3-0.3
	c0-0.1,0.1-0.3,0.3-0.3s0.3,0.1,0.3,0.3C2.6,10.5,2.5,10.6,2.3,10.6z"/>
</svg>
