<?xml version="1.0" encoding="utf-8"?>
<!-- Generator: Adobe Illustrator 19.1.0, SVG Export Plug-In . SVG Version: 6.00 Build 0)  -->
<svg version="1.1" id="Layer_1" xmlns="http://www.w3.org/2000/svg" xmlns:xlink="http://www.w3.org/1999/xlink" x="0px" y="0px"
	 viewBox="0 0 48 48" style="enable-background:new 0 0 48 48;" xml:space="preserve">
<style type="text/css">
	.st0{fill:#808080;}
</style>
<path class="st0" d="M43.3,9.8c0,0-2.7-1.6-3.7-4c-0.2-0.4-0.3-0.9-0.3-1.3c-0.1-1.1-0.5-4.2-3.9-4.4c0,0-4.5-1.3-4.8,7.9
	c0,0-0.4,5.6,0.4,7.4c0,0,0.2,2.4-1.2,2.9c0,0-2.1-0.6-7.5,0.8c-0.2,0-0.4,0.1-0.5,0.1c-1.2,0.2-6.3,1.3-11.3,4.3
	c-0.2,0.1-0.4,0.1-0.6,0.1c-0.1,0-0.4,0-0.7,0.2c0,0-2.4-0.8-2.1,1.7c0,0,0.2,1.3,0,1.1c0,0-1.1-1-0.5-2.3c0,0-0.5-0.2-0.6,0.2
	c0,0-0.6,0.8,0.1,2.5c0,0.1,0,0.2-0.1,0.2c-0.2,0.1-0.6,0.3-1.7,0.3c0,0,0.1,0.1,0.3,0.2c0.1,0.1,0.1,0.2,0,0.3
	c-0.2,0.4-0.5,1.3,1.8,1.6c0,0,6.6,5.6,12.1,7.9c0.5,0.2,0.8,0.6,0.9,1.1c0.2,1.1,0.5,3.2,0.5,5c0,0,0.6,3.8,4.2,4.2
	c0,0,0.6,0.3,0.6-0.1c0,0,0.8-0.1,1.2-0.4c0.1-0.1,0.2-0.1,0.4-0.1c0.6,0,2.1-0.1,2.4,0.1c0,0,0.9,0.1-0.2-0.5c0,0-0.2-1-0.8-1.5
	c0,0-0.2,0-0.3-0.6c0,0-0.2-0.3-1.1-0.3c0,0-4.4,0.1-4.4-0.6c0,0-0.1-0.6-0.2-0.9c0,0-0.4-1.6-0.6-2.5c0-0.3,0-0.5,0-0.8
	c0.1-0.4,0.2-1,0.2-1.4c0-0.1,0.1-0.2,0.2-0.2c0.8,0.1,3.4,0.5,4.7,0.2c0.1,0,0.2,0.1,0.2,0.2c0.1,0.6,0.2,2.3-0.4,2.8
	c0,0-0.7,0.6,0,1.2c0,0,0.2,0.1,0.3-0.2c0,0,0.2-0.7,0.4-0.4c0,0,0.3,0.4,0.3,1.1c0,0,0,0.2,0.2,0.5c0.2,0.4,0.8,0.8,1.9,1.2
	c0,0,0.1,0,0.1,0c0.1,0,0.2,0,0.3,0.1c0,0,0.2-0.1,0.1-0.4c0,0,1.4-0.1,2-0.3c0.2,0,0.3-0.1,0.5-0.1c0.5,0,1.5,0,1.9,0.1
	c0,0,0.7,0.1,0-0.4c-0.2-0.1-0.3-0.3-0.3-0.5c0-0.3,0-0.8,0.2-1.2c0.1-0.2,0.3-0.3,0.5-0.3c0,0,0.1,0,0.1,0c0,0,0.1-0.5-1.3-0.3
	c0,0-3.5,0.7-4.3,0.3c0,0,0-0.2-0.2-0.3c0,0,0-1.3-0.2-1.7c-0.1-0.1-0.1-0.3-0.1-0.5c0-0.3-0.1-0.7-0.2-1c0-0.2,0.1-0.3,0.2-0.4
	c1.7-0.4,9.7-2.2,11.9-4.7c0,0,5.8-5.4-2-16.5c0,0-2.2-4-1.5-7.2c0,0-0.1-1.4,1-0.6c0,0,1.9,1.7,3.2,1.6c0,0,1.4,0.1,1.5,0.5
	c0,0,0.8,0.2,0.9-0.2C43.2,11,44.2,10.4,43.3,9.8z M35.2,3.7c0,0-1.2,0.5-1-0.7C34.2,2.9,35.2,2.3,35.2,3.7z"/>
</svg>
