<?xml version="1.0" encoding="utf-8"?>
<!-- Generator: Adobe Illustrator 19.1.0, SVG Export Plug-In . SVG Version: 6.00 Build 0)  -->
<svg version="1.1" id="Layer_1" xmlns="http://www.w3.org/2000/svg" xmlns:xlink="http://www.w3.org/1999/xlink" x="0px" y="0px"
	 viewBox="0 0 48 48" style="enable-background:new 0 0 48 48;" xml:space="preserve">
<style type="text/css">
	.st0{fill:#808080;}
</style>
<path class="st0" d="M46.7,21.7c0,0-6.3-14.6-19.6-10.9c-0.8,0.2-6.6,3.1-5.3,9.7c0,0-0.7,6.1-4.3,2.5c0,0-1-8.2-4.6-10.5
	c-0.1-0.1-0.2-0.1-0.3-0.2c-0.7-0.5-3-2.1-3.4-2.4c0,0-0.5-0.7-1-1.2C8.1,8.7,8,8.7,7.9,8.6c-0.8-0.5-4.6-3-5.6-1.8
	c0,0-1.2,0.7,0.8,2.8c0,0,0.7,1.8,3.4,2.8c0,0,5,2.7,6.1,5.9c-0.1-0.2-2.9-4.5-7.7-1.6C4.6,17,4.3,17.3,4,17.6
	c-0.9,1.1-2.9,4-3.2,7.7c0,0.4-0.1,0.8-0.1,1.1c-0.2,1.3-0.6,4.6-0.4,7.1c0,0-0.6,3.4-0.3,3.7c0,0,0.9-1.4,1-3.7c0,0-0.1-8.1,1.6-11
	c0,0,2.3-7.5,7.1-5.3c0,0,3.4,1.6,1.5,7.7c0,0-2.7,8.1,1.1,12.8c0,0,5.2,7,12.8,1.7c4-2.8,2.4-6.9,3.2-8.8c0.5-1.3,1.6-3.1,4.1,0.2
	c0,0,5.9,9,13,2.8C45.4,33.7,50.3,28.8,46.7,21.7z M2.9,9.2C2.8,9.2,2.6,9,2.6,8.9c0-0.2,0.1-0.3,0.3-0.3s0.3,0.1,0.3,0.3
	C3.2,9,3.1,9.2,2.9,9.2z M4.2,7.6C4,7.6,3.8,7.4,3.8,7.3c0-0.2,0.2-0.3,0.4-0.3c0.2,0,0.4,0.1,0.4,0.3C4.6,7.4,4.4,7.6,4.2,7.6z
	 M42.4,28.1c-1.2,5-5.3,1.4-5.3,1.4c-3.9-5.8-7.9-4.8-7.9-4.8c-5.8,1.6-5.5,7.1-5.2,9c0.1,0.7,0.1,1.4-0.1,2.1
	c-1.4,4.5-7.8,1.6-7.8,1.6c-6.1-3.1-3-13.4-3-13.4c5.6,10.1,11.5,1.8,12.4,0.4c0.1-0.1,0.1-0.2,0.2-0.4c0.6-1.4,0.9-4.2,1.1-5.6
	c0.1-1,0.6-1.9,1.3-2.6c4.1-3.3,11.4,4.2,11.4,4.2C43.4,23.9,42.4,28.1,42.4,28.1z"/>
</svg>
