<?xml version="1.0" encoding="utf-8"?>
<!-- Generator: Adobe Illustrator 19.1.0, SVG Export Plug-In . SVG Version: 6.00 Build 0)  -->
<svg version="1.1" id="Layer_1" xmlns="http://www.w3.org/2000/svg" xmlns:xlink="http://www.w3.org/1999/xlink" x="0px" y="0px"
	 viewBox="0 0 48 48" style="enable-background:new 0 0 48 48;" xml:space="preserve">
<style type="text/css">
	.st0{fill:#808080;}
</style>
<path class="st0" d="M47.8,24.9c0,0-0.4-0.3-0.6,0c0,0-0.5,0.7-1,0.8l-1.9,0.2c-0.1,0-0.1-0.1,0-0.1l1.8-1.4c0,0,0.7-0.6,1.2-0.1
	c0,0,0.5,0.1,0.5-0.2c0,0-0.1-0.8-0.8-0.9c-0.7-0.1-0.1,0-0.1,0c-0.1,0-2.9-0.8-3.2-0.9c0,0-1.2-0.6-2.9-0.7c-0.1,0-0.1,0-0.2,0
	c-0.3-0.1-1.4-0.3-1.5-0.4c0,0-5.3-4.9-12.1-2.9c-0.5,0.1-0.8,0.4-2.3-0.9c0,0-2.1-2.7-2.9-1.8l-2.5,3.9c0,0-0.1,0.1,0.1,0.3
	c0,0,0.8,0.3,0.5,0.4l-7,0.8c-0.1,0-0.2,0-0.2-0.1c-0.4-0.3-1.6-1.1-2.6,0.1c0,0-0.2,0.5,0.4,0.5c0,0,0.3,0.2-0.5,0.3
	c0,0-2,0.4-2.7,0c0,0-6.5-4.6-6.7-3.7c0,0,0.6,3.4,1.4,4.9c0,0.1,0.1,0.1,0.1,0.2C2,23.1,2,23.5,1.9,24c0,0.1,0,0.1-0.1,0.2
	c-0.3,0.6-2.4,5-1.7,5.1c0,0,1.7-0.2,3.6-1.3c0,0,3.2-1.9,4.8-1.9c0,0,1.8,0,2.5,0.2c0.1,0,0.1,0.3,0,0.3l-0.7,0.3
	c-0.1,0-0.2,0.2-0.1,0.3c0.4,0.6,1.6,2.4,1.8,2.9c0,0,0.3,0.8,1.5,0.7c0,0,3.7-0.9,3.8-1c0,0,2.5,0.1,3.4,0c0.1,0,0.2,0.1,0.1,0.2
	c-0.4,0.7-1.4,2.9-0.9,2.8l2-0.8c0.1,0,0.2,0,0.2,0.1l0.3,0.5c0.1,0.1,0.2,0.1,0.3,0c0.4-0.4,1.6-1.5,2.1-2c0.2-0.3,0.6-0.4,0.9-0.5
	c0,0,0.1,0,0.1,0c0.3,0,5.7,0,6.5-0.1c0.8,0,3.9-0.7,4.8-0.8c0.1,0,0.2,0,0.3,0c0.4,0,2,0.1,3-0.5c0.1,0,0.1-0.1,0.2-0.1
	c0.4,0,2-0.3,3.2-1.1c0,0,3-1.5,3.3-1.7C47.4,25.8,48.4,25.2,47.8,24.9z M43.1,24.6c-0.4,0-0.7-0.2-0.7-0.5c0-0.3,0.3-0.5,0.7-0.5
	s0.7,0.2,0.7,0.5C43.8,24.3,43.5,24.6,43.1,24.6z"/>
</svg>
