<?xml version="1.0" encoding="utf-8"?>
<!-- Generator: Adobe Illustrator 19.1.0, SVG Export Plug-In . SVG Version: 6.00 Build 0)  -->
<svg version="1.1" id="Layer_1" xmlns="http://www.w3.org/2000/svg" xmlns:xlink="http://www.w3.org/1999/xlink" x="0px" y="0px"
	 viewBox="0 0 48 48" style="enable-background:new 0 0 48 48;" xml:space="preserve">
<style type="text/css">
	.st0{fill:#808080;}
</style>
<path class="st0" d="M14.1,42.9C14.1,43,14.1,43,14.1,42.9c0,0.3-0.2,1.6-0.6,1.8c0,0-0.9,0.6-1.9,0.9c0,0-0.3,0.2-0.5,0.3
	c0,0,0,0.1,0,0.1c0.1,0,0.3,0,0.4,0c0,0,0.5,0.9,1,0.1c0,0,0.1,0,0.1,0c0.1,0,0.2,0,0.3-0.1c0,0,0,0,0,0c0.1,0,0.5,0,0.3,0.2
	c0,0-0.1,0.1-0.1,0.1c0,0.3-0.1,1,0.5,1c0,0,0.1,0,0.1,0.1c0.1,0.1,0.3,0.4,0.9,0.6c0,0,1.5,0.1,1-0.4c0,0,0,0,0,0l4.1,0.1
	c0,0,0,0,0,0c0.1,0.1,0.8,0.3,1-0.2c0,0,0.1-0.1,0.1-0.1c0.1,0,0.4,0.1,0.6,0.6c0,0,0.5-1.1-1.1-1.1c0,0-3.3-0.2-4.6-0.5
	c-0.3-0.1-0.4-0.3-0.4-0.6c0.1-1.2,0.5-5.1,0.8-5.9c0-0.1,0.1-0.2,0.2-0.2c0.5,0,2.2-0.1,3-0.9c0,0,0.1-0.1,0.1-0.1
	c0.4-0.2,3.1-1.5,4.9,1l3.4,5c0,0-0.1,0.8,0.3,0.9c0,0-0.7,0.6-1.3,0.8c0,0-0.9,0.4-0.8,0.9c0,0,0.5-0.4,0.6-0.2c0,0,0.3,0.3,0.8,0
	c0,0,1-0.8,1.3-0.5c0,0-0.2,0.7,0.5,0.6c0,0,0.3,0.9,1.9,0.4c0,0,0.2-0.2-0.1-0.4c0,0,3.8-0.1,4.2,0c0,0,0.8,0.4,1.1-0.2
	c0,0,0.5,0,0.7,0.6c0,0,0.5-1-1.2-1.2c0,0-2.9-0.2-3.3-0.3c0,0,0,0-0.1,0c0,0,0,0,0,0h0c-0.2-0.1-1.2-0.3-1.6-0.3c0,0-0.5-1.2-1-1.4
	c0,0-2.4-2.7-2.9-3.9c-0.1-0.2,0-0.4,0.2-0.6c0.7-0.5,2.8-2.1,3-4.8c0-0.4,0.2-0.7,0.5-0.9c0.6-0.5,1.8-1.3,3-1.8
	c1.2-0.6,2.2-1.4,2.9-2.5c2.7-3.7,8.1-11.9,5.7-17c-0.1-0.2-0.1-0.5,0.2-0.7c0.7-0.6,2.2-1.9,1.5-3.5c-0.1-0.2,0.1-0.3,0.3-0.3
	C45.1,8.6,46,8.8,46.4,9c0,0,0.4-1-0.8-1.9c0,0,1.5-1.2,0.5-2.6l0.1-0.7c0,0-0.2-0.1-0.3-0.1c-0.1,0-0.1-1-0.1-1s-0.7,0.1-0.8,0.5
	h-0.3c0,0,0.3-0.5,0.3-0.8c0,0,0-1.2-0.3-1.1c0,0-0.8,1-1,1c0,0-0.1-2.1-0.6-2c0,0-0.6,1.3-0.6,1.4c0,0-0.3,0.3-0.3-0.2
	c0,0-0.3-2.1-0.7-1.4c0,0-0.3,1.7-0.5,1.4c0,0-0.5-1.9-0.8-1.3c0,0-0.1,1.4-0.4,1.1c0,0-0.5-0.7-0.7-0.6c0,0-0.3,0.3-0.4,0.7
	c0,0-0.6,0-0.5,0.8c0,0-1,0.9,0.2,1c0,0,0.2,0.6,0.9,0.8c-0.8-0.1-3.8,0-7.7,8.5c0,0-0.7,2.9-6.7,2.7c-0.1,0-0.2,0-0.3,0
	c-0.8-0.1-4.8-0.8-6.8-0.7c0,0-3.1,0.3-5.8-2.4c0,0-2.3-2.3-3.3-3.2c0,0-4.7-3.4-6-0.1C2.6,9,2.5,9,2.5,9.1C2.1,9.5,0.9,10.6,2,11.4
	c0.1,0.1,0.1,0.2,0.1,0.3c-0.2,0.3-0.3,1.2,1.2,2.5c0,0-1.8,0.4-0.6,1.6c0.1,0.1,0.1,0.2,0,0.3c-0.3,0.4-0.6,1.4,2.3,3.4
	c0.1,0.1,0.2,0.2,0.2,0.4c0,0.7,0.2,2.8,1.7,2.9c0.1,0,0.2,0.1,0.1,0.2c-0.3,0.6-1,2.4-0.7,2.6c0,0,1.2,0.4,1.5,0.9
	c0.1,0.1,0,0.2-0.1,0.3c-0.3,0.2-0.7,0.6,0.7,1.6c0.1,0.1,0.1,0.1,0.1,0.2c-0.1,0.9-0.5,5.5,6.3,8.8L14.1,42.9z M42,6.4
	c-0.2,0-0.4-0.2-0.4-0.4s0.2-0.4,0.4-0.4c0.2,0,0.4,0.2,0.4,0.4S42.2,6.4,42,6.4z"/>
</svg>
