<?xml version="1.0" encoding="utf-8"?>
<!-- Generator: Adobe Illustrator 19.1.0, SVG Export Plug-In . SVG Version: 6.00 Build 0)  -->
<svg version="1.1" id="Layer_1" xmlns="http://www.w3.org/2000/svg" xmlns:xlink="http://www.w3.org/1999/xlink" x="0px" y="0px"
	 viewBox="0 0 48 48" style="enable-background:new 0 0 48 48;" xml:space="preserve">
<style type="text/css">
	.st0{fill:#808080;}
</style>
<path class="st0" d="M47.5,8.5c0,0-0.1-0.7,0.3-1.1c0-0.1,0.1-0.1,0.1-0.2c0.2-0.5,0.7-2.4-5.8-1.8c0,0-13.7,1.1-17.7,16.9
	c0,0-0.2,0.2-0.2-0.2c0,0,0.1-0.8-0.2-1l0-0.2l0-1l0.1-1.2l0.2-1.1c0,0,0.2-0.7,0.2-0.9c0-0.2,0.3-0.6,0.3-0.6
	c0.3-0.3,0.1-0.4,0.1-0.4c-0.2-0.1-0.4,0.5-0.4,0.5l-0.1,0.4l-0.3,1.6L24,19.3l-0.1,1.2v0.6c-0.1,0-0.1,0-0.2,0v-0.8l-0.1-1.4
	l-0.2-1.1l-0.2-1l-0.2-0.8c0,0-0.2-0.5-0.3-0.5c0,0-0.2,0.1,0,0.3c0.1,0.2,0.3,0.5,0.3,0.5l0.2,0.8l0.2,1.2l0.1,1.1l0.1,1.5l0,0.2
	c0,0,0,0-0.1,0.1c0,0-0.2,0.7-0.1,0.9c0,0,0,0.4-0.3-0.2S19.5,7.8,6.1,5.5c0,0-7.5-0.9-5.9,2.2c0,0,0.4,0.5,0.1,1
	c0,0-0.8,0.9,0.4,1.6c0,0,0.7,0.2,0.3,1.2c0,0-0.3,0.6,0.6,1.3c0,0,0.5,0.4,0,1c0,0-0.6,0.8,0.4,1.5c0,0,0.6,0.9-0.1,1.7
	c0,0-0.4,0.5,0.4,1.5c0,0,0.1,0.7-0.2,1.1c0,0-0.6,1,0.6,1.4c0,0,0.5,0.3,0.2,0.9c0,0-0.3,1.6,2.5,1.9c0,0,2.8,0.2,5-0.1
	c0.1,0,0.1,0.1,0,0.1c-1,0.4-2.2,1.1-3.4,2.2c0,0-2.9,2-2.6,3.2c0,0,0.1,0.2-0.2,0.7c0,0-0.6,0.8,0.4,1.2c0,0,0.1,0.6,0.5,0.9
	c0,0,0.1,0.2-0.1,0.5c0,0-0.6,1.1,0.8,1.5c0,0,0.3,0,0.3,0.3c0,0,0,0.2,0.4,0.4c0,0,0.4,0.1,0,1c0,0-0.5,1,0.5,1.2
	c0,0,0.5,0,0.6,0.6c0,0,0,0.4,0.5,0.7c0,0,0.4,0.1,0.1,0.9c0,0-0.6,1,0.6,0.9c0,0,1-0.3,1.2,0.3c0,0-0.1,0.4,0.8,0.6
	c0,0,0.2,0.2,0.2,0.8c0,0-0.2,1,1.2,0.4c0,0,0.6-0.2,0.8,0.1c0,0,0.1,0.5,1.6,0.1c0,0,0.5,1.1,1.4-0.4c0,0,0.1-0.2,0.4-0.1
	c0,0,0.5,0.2,0.9-0.5c0.1-0.1,0.1-0.2,0.2-0.3c0.5-0.5,2.6-2.3,3.3-3.8c0,0,2.3-4.3,2.5-7.4c0,0,0.8,1.6,1.2-0.2
	c0,0,0.7,6.9,5.4,10.8l0.5,0.5c0.1,0.1,0.2,0.3,0.3,0.4c0.1,0.2,0.4,0.5,0.8,0.3c0,0,0.3-0.2,0.5,0.3c0,0,0.2,0.7,0.9,0.5
	c0,0,0.5-0.4,1.1-0.2c0,0,0.4,0,0.8-0.1c0,0,0.5-0.4,1-0.1c0,0,0.9,0.6,1.1-0.1c0,0-0.1-0.9,0.3-1.2c0,0,0.6-0.1,0.7-0.6
	c0,0,0.1-0.6,0.9-0.3c0,0,0.9,0.3,0.9-0.4c0,0-0.5-1.5,0.3-1.6c0,0,0.4-0.1,0.3-0.7c0,0,0.2-0.4,0.8-0.4c0,0,0.7,0,0.1-1.4
	c0,0-0.2-0.7,0.4-0.8c0,0,0.2,0,0.2-0.4c0,0,0-0.1,0.4-0.2c0,0,1.3-0.4,0.6-1.6c0,0-0.2-0.5,0.2-0.7c0,0,0.2-0.1,0.2-0.5
	c0,0,1.4-0.6,0.3-1.7l0,0c0-0.2,0-1.3-1.3-2.3c-1.4-1.1-0.1,0-0.1,0s-2.9-2.3-4.3-3.1c-0.1,0,0-0.1,0-0.1c1.9,0.1,7.5,0.2,7.1-2
	c0,0-0.3-0.8,0.7-1.4c0,0,0.5-0.4-0.1-1.4c0,0-0.4-0.6,0.3-1.4c0,0,0.3-0.5-0.2-1.3c0,0,0,0,0-0.1c-0.1-0.2-0.4-1.1,0.4-1.6
	c0,0,0.5-0.6,0-1.3c-0.1-0.1-0.1-0.2-0.1-0.3c0-0.2,0.1-0.5,0.6-0.9c0,0,0,0,0,0c0.1,0,0.4-0.3,0.1-1.3c0,0-0.2-0.5,0.7-1
	c0.1-0.1,0.2-0.2,0.3-0.3C47.9,9.4,47.9,9,47.5,8.5C46.8,7.7,47.5,8.5,47.5,8.5z"/>
</svg>
