<?xml version="1.0" encoding="utf-8"?>
<!-- Generator: Adobe Illustrator 19.1.0, SVG Export Plug-In . SVG Version: 6.00 Build 0)  -->
<svg version="1.1" id="Layer_1" xmlns="http://www.w3.org/2000/svg" xmlns:xlink="http://www.w3.org/1999/xlink" x="0px" y="0px"
	 viewBox="0 0 48 48" style="enable-background:new 0 0 48 48;" xml:space="preserve">
<style type="text/css">
	.st0{fill:#808080;}
</style>
<path class="st0" d="M47.6,20.5C47.6,20.5,47.6,20.5,47.6,20.5c0.2-0.1,0.8-0.4-0.1-0.6c0,0,0,0,0-0.1c0.2-0.1,0.7-0.5-0.1-0.6
	c0,0,0,0,0-0.1c0.2-0.2,0.6-0.7-0.2-0.7c0,0,0,0,0-0.1c0.2-0.2,0.7-0.8-0.4-0.7c0,0,0,0,0,0c0.1-0.2,0.6-0.8-0.5-0.7c0,0,0,0,0,0
	c0.1-0.2,0.4-0.8-0.7-0.8c0,0-0.1,0,0-0.1c0.1-0.2,0.4-0.8-0.8-0.7c0,0,0,0,0,0c0.1-0.2,0.3-0.8-0.8-0.7c0,0,0,0,0,0
	c0.1-0.2,0.2-0.9-1.1-0.6c0,0,0,0,0,0c0.1-0.2,0.2-0.9-1.1-0.4c0,0,0,0,0,0c0-0.2,0-0.8-1-0.4c0,0-0.1,0-0.1,0
	c0-0.2-0.1-0.8-1.1-0.4c0,0,0,0-0.1,0c0-0.2-0.3-0.9-1.4-0.2c0,0-0.1,0-0.1,0l-0.2-0.5c0,0,0-0.1-0.1-0.1c-0.2,0-0.7,0-1.1,0.5
	c0,0-0.1,0-0.1,0c-0.1-0.3-0.5-1-1.2-0.1c0,0-0.1,0-0.1,0c-0.1-0.2-0.6-0.8-1.1,0.1c0,0-0.1,0-0.1,0c-0.2-0.2-0.8-0.9-1.1,0.2
	c0,0-0.1,0.1-0.1,0c-0.2-0.2-0.8-0.7-0.9,0.2c0,0,0,0.1-0.1,0c-0.2-0.1-0.8-0.3-0.8,0.3c0,0,0,0-0.1,0c-0.2-0.1-0.6-0.3-0.6,0.4
	c0,0,0,0.1-0.1,0c-0.2-0.1-0.6-0.4-0.6,0.4c0,0,0,0.1-0.1,0.1c-0.1,0-0.5,0-0.5,0.3c0,0,0,0.1,0,0.1c-0.1,0-0.5,0-0.5,0.3
	c0,0,0,0,0,0c-0.1,0-0.4-0.1-0.4,0.2c0,0,0,0.1-0.1,0c-0.1,0-0.3,0-0.4,0.3c0,0,0,0.1-0.1,0c-0.1,0-0.4-0.1-0.4,0.4c0,0,0,0,0,0
	c-0.1,0-0.3-0.1-0.5,0.2c0,0,0,0-0.1,0c-0.1,0-0.3,0.1-0.4,0.3c0,0,0,0-0.1,0c-0.1,0-0.4,0-0.4,0.3c0,0,0,0-0.1,0
	c-0.1,0-0.3,0-0.4,0.2c0,0,0,0-0.1,0c-0.1,0-0.3-0.1-0.5,0.2c0,0,0,0-0.1,0c-0.1,0-0.6,0.1-0.7,0.3c0,0,0,0-0.1,0
	c-0.1-0.1-0.5-0.2-0.8,0c0,0-0.1,0-0.1,0c-0.4-0.1-2.8-0.8-5.2,0.3c-0.2,0.1-0.5,0.1-0.6-0.1c-0.1-0.1-0.2-0.2,0-0.4l0.2-0.4
	c0,0-0.7,0.1-0.7,0.7l0,0.1c0,0.2,0,0.4-0.2,0.5l-0.2,0.2c-0.1,0.1-0.2,0.2-0.4,0.2c-0.2,0-0.4,0-0.6,0c0,0,0,0,0,0
	c0,0.1,0.2,0.6,0.9,0.6c0,0,0,0,0,0c0,0.1-0.1,0.3-0.5,0.2c0,0-0.5,0-0.8,0.3c0,0,0,0-0.1,0c-0.2,0-0.8,0-1.2,0.6c0,0,0,0-0.1,0
	c-0.1,0-0.6,0.1-0.7,0.5c0,0,0,0,0,0.1c-0.2,0.1-1.3,0.9-1.5,1.4c0,0,0,0.1-0.1,0.1c-0.2,0-0.8,0.2-0.9,0.5c0,0,0,0,0,0
	c-0.1,0-0.3-0.1-0.3,0.2c0,0,0,0,0,0c-0.1,0-0.4,0-0.4,0.3c0,0-0.4,0.7-0.7,0.5c0,0-0.9-0.8-1.5-0.7c0,0-2.6-0.4-3.2,0.2
	c-1,1.9-1.4,1.5-2.5,2.4c0,0-0.4,0.2-1.3,0.4c0,0-0.5,0.1-0.4,0.3l0.7,0.1c0,0-0.3,0.1-0.4,0.2c0,0-0.3,0.2-0.3,0.3h0.4
	c0,0,0.9,0,1-0.1c0,0-0.1,0.6-0.1,0.6c0,0,0.6-0.3,0.7-0.4l0.3,0c0,0-0.1,0.4,0.1,0.4c0,0,0.5-0.3,0.9-0.5c0.7-0.3,2.5-1.5,2.5-1.7
	c0,0,0.6,0.5,0.7,0.5c0,0-1.7,1-1.3,1.4c0,0-2.5,2.1-2.4,2.3c0,0-1.3,0.5-0.4,1.6c0,0,0.1-0.1,0.2,0c0,0,0.7,0.3,0.8,0.3
	c0,0,0.1,0.6-0.3,0.8c0,0-0.2,0.1-0.1,0.5l-0.1,0.2c0,0-0.3-0.3-0.2,0.2c0,0,0,0.1-0.1,0.1c0,0-0.1-0.2-0.1,0.2L2.6,34
	c0,0-0.1-0.4-0.2-0.4c0,0-0.4,1.5,0,2c0,0,0.6,0.9,1.9,0.3l2.3-1.2c0,0,0,0,0.1,0l1.8-1l2-1.1c0.1-0.1,0.2-0.1,0.3-0.1
	c0.5,0,2-0.2,3.2-1.3l0.3-0.3c0,0,0.9,0.1,0.9-0.3l0.1,0.1c0.2,0.2,0.2,0.5,0,0.6c-0.6,0.5-1.6,1.2-1.8,1.4l0,0c0,0-0.7,0.6-0.7,0.8
	l0.3,0L12.6,34c0,0,0.2,0.4,1.1,0c0,0-0.2,0.5,0,0.8c0,0,0.8-0.7,1-0.8c0,0,0.3-0.2,0.4,0c0,0,0,0.6,0.5,0.6c0,0,0-0.7,0.2-0.7
	c0,0-0.1,0.6,0.3,0.4c0,0,0.4-0.1,0.5-0.6c0,0,0.4-0.1,0.4-0.3c0,0,0.8,0.3,1.5-0.2c0,0,1.2-0.5,1.2-1c0,0,0.2-0.9-0.3-1.9
	c-0.2-0.3,0-0.7,0.3-0.9c0.9-0.5,2.6-1.4,3.5-1.6c0.1,0,0.2,0,0.2,0c0.3,0,1.3-0.2,2.7-1.4c0,0-0.2,0.4-0.1,0.4c0,0,0.3,0.1,0.4-0.1
	c0,0,0.3,0,0.1,0.2c0,0-0.4,0.4,0,0.5c0,0,0.3,0.2,0.5-0.1l0.4-0.1c0,0-0.1,0.1-0.1,0.4c0,0-0.1,0.8,0.3,0.4c0,0,0.3-0.1,0.3-0.3
	l0.4,0c0,0,0.6,0.6,0.9,0.5c0,0,0.1-0.1,0-0.2c-0.1-0.1-0.1-0.3,0-0.4c0.1-0.1,0.2-0.2,0.3-0.3l0.5-0.4c0,0,0.1,0,0.1-0.1
	c0.2-0.1,0.6-0.3,0.6-0.8c0,0,0,0,0,0c0.1-0.1,0.2-0.3,0.1-0.6c0,0,0-0.1,0-0.1c0.1-0.1,0.2-0.2,0.1-0.5c0-0.1-0.1-0.2,0-0.3
	c0-0.2,0-0.5-0.2-0.6c0,0-0.1,0-0.1-0.1l0-0.1c0,0,0,0,0,0c0-0.1,0.2-0.3-0.1-0.4c0,0,0,0,0,0c0-0.1-0.1-0.4-1.3-0.4
	c0,0-0.1,0-0.1-0.1l0,0c0-0.1,0-0.1,0.1-0.1c0.5-0.2,3-1.5,4.5-4.5c0-0.1,0.1-0.2,0.1-0.3c0.3-1.3,9.7-3.7,13.2,4.9
	c0,0,0,0.1,0.1,0.1c0.2,0.1,0.7,0.4,1-0.7c0,0,0-0.1,0-0.2c0,0,0,0,0-0.1c0.1,0,0.2-0.2,0-0.3c0,0,0-0.1,0-0.1
	c0.1-0.1,0.4-0.3,0-0.5c0,0,0,0,0,0C47.8,20.9,48.3,20.7,47.6,20.5z M8.7,28.2c0,0,0.3-0.5,0.6-0.2C9.3,28,9.2,28.5,8.7,28.2z"/>
</svg>
