<?xml version="1.0" encoding="utf-8"?>
<!-- Generator: Adobe Illustrator 19.1.0, SVG Export Plug-In . SVG Version: 6.00 Build 0)  -->
<svg version="1.1" id="Layer_1" xmlns="http://www.w3.org/2000/svg" xmlns:xlink="http://www.w3.org/1999/xlink" x="0px" y="0px"
	 viewBox="0 0 48 48" style="enable-background:new 0 0 48 48;" xml:space="preserve">
<style type="text/css">
	.st0{fill:#808080;}
</style>
<path class="st0" d="M48,31l-1.6-3.2c0,0,0,0,0,0c0-0.1-1.1-1.7,0.1-3.1c0,0,2.3-2.9,1-3.7c0,0-0.7-0.6-3.1,0.7
	c-2.4,1.2-4.1,1.8-5.2,2.4c0,0,0,0,0,0c-0.1,0-3.5,1.5-6,0.3c0,0,0-0.1,0-0.1l2.1-0.2c0.1,0,0.2-0.1,0.1-0.2c-0.3-0.8-1.3-3.3-3-4.7
	c0,0,0,0,0,0c-0.1-0.1-1.7-0.9-3.1,0.2c0,0,0,0,0,0c-0.1,0-0.5,0.1-0.4-0.1c0,0,0,0,0,0l0.1-0.1c0,0,0-0.1-0.1-0.1
	c-0.1,0-0.1,0.1-0.2,0.2c-0.1,0.1-0.2,0.1-0.3,0c-0.1-0.1-0.2-0.3,0.1-0.7c0,0,0-0.1,0-0.1c-0.1,0-0.2,0-0.4,0.2c0,0-0.1,0-0.1,0
	c-0.2,0-0.8,0-0.5-0.8c0,0,0,0,0,0c0,0,0.3-0.4-0.1-0.1c0,0,0,0,0,0c-0.1,0-1.1,0.4-0.8-0.7c0,0,0-0.1,0-0.1
	c0.1-0.1,0.2-0.3-0.1-0.2c0,0-0.1,0-0.1,0.1c-0.3,0-1.1,0.1-1-0.5c0,0,0-0.1,0-0.1c0.1-0.2,0.5-0.8-0.3-0.2c-0.1,0-0.1,0.1-0.2,0.1
	c-0.3,0-1.1-0.2-0.6-0.9c0,0,0.1-0.3-0.5,0.3c-0.1,0.1-0.1,0.1-0.2,0.1c-0.3,0-1-0.2-0.4-1c0,0,0-0.1-0.1-0.1
	c-0.1,0-0.2,0.1-0.5,0.4c-0.1,0.1-0.1,0.1-0.2,0.1c-0.3-0.1-0.9-0.3-0.5-1.1c0,0,0,0,0,0c0-0.1,0-0.3-0.5,0.4c0,0-0.1,0.1-0.2,0.1
	c-0.3,0-1-0.2-0.6-1.1c0,0,0-0.2-0.2,0.1c0,0,0,0,0,0L20,13.9c-0.1,0.1-0.1,0.1-0.2,0c-0.3-0.2-1.2-0.6-0.7-1.5c0,0,0-0.1,0-0.1
	c0,0-0.1,0-0.2,0.1c0,0,0,0,0,0l-0.8,1c0,0-0.1,0.1-0.1,0c-0.3-0.1-1.3-0.5-0.7-1.7c0,0,0-0.1-0.1-0.1c-0.1,0-0.2,0.1-0.3,0.3
	l-1.3,2c0,0-0.1,0.1-0.1,0.1c-0.2,0-1-0.1-0.9-0.6c0,0,0,0,0,0l0.2-0.6c0,0,0-0.1-0.1-0.1c-0.1,0.1-0.2,0.2-0.4,0.8l-0.7,2.1
	c0,0,0,0.1-0.1,0.1c0,0,0,0,0,0c-0.3,0.1-0.6-0.1-0.6-0.4l0-0.3c0-0.1-0.1-0.1-0.1,0c0,0.1,0,0.2,0,0.5l0,0l-0.2,3.1
	c0,0.2-0.2,0.4-0.4,0.5c-1,0.4-3.9,1.5-5.6,3c-1.8,1.5-3.4,2.5-3.8,2.7c-0.1,0-0.1,0.1-0.2,0.1l-2.1,1.7c0,0-0.2,0.1-0.2,0.5
	c0,0,0,0,0,0c-0.1,0.1-0.5,0.6,0.1,0.8c0,0,0,0,0,0c0.1,0,0.7,0.2,0.9,0.3c0,0,0,0.1,0,0.1c-0.4,0-1.3,0.2-0.7,0.7
	c0,0,0.3,0.3,1.5,0.5c0,0,0,0,0,0c0.1,0,0.9,0.4,1.8,0.4c0,0,0,0,0,0c0.1,0,1.9,0.2,2.1,0.2c0,0,0,0,0,0l8.1,1.2
	c0.1,0,0.3,0.1,0.4,0.2c0.4,0.7,4,5.4,6.2,4.3c0,0,0,0,0,0c0,0,0.2-0.3,0-1.3l0,0c0-0.1-0.6-2-0.9-2.7c-0.1-0.1,0-0.2,0.1-0.2
	l4.8-0.2c0.1,0,0.1,0,0.2-0.1c0.3-0.1,1.2-0.5,1.6,0c0,0,2,2.4,3,2.8c0.1,0,0.3-0.1,0.3-0.2c0-0.3,0.1-0.7,0.8-0.2
	c0,0,1,0.8,1.9,0.5c0,0,2.9-0.9,2.3-4.4c0-0.2-0.1-0.3-0.3-0.3l-2.5-0.5c-0.1,0-0.1-0.1,0-0.2c1-0.4,4.2-1.3,7.2,0l7,3.1
	c0,0,0.1,0,0.1,0C46.4,32.2,48.3,32.4,48,31C48,31,48,31,48,31z M5.1,26.2c-0.4,0-0.8-0.3-0.8-0.6c0-0.3,0.4-0.6,0.8-0.6
	c0.4,0,0.8,0.3,0.8,0.6C5.9,25.9,5.6,26.2,5.1,26.2z"/>
</svg>
