<?xml version="1.0" encoding="utf-8"?>
<!-- Generator: Adobe Illustrator 19.1.0, SVG Export Plug-In . SVG Version: 6.00 Build 0)  -->
<svg version="1.1" id="Layer_1" xmlns="http://www.w3.org/2000/svg" xmlns:xlink="http://www.w3.org/1999/xlink" x="0px" y="0px"
	 viewBox="0 0 48 48" style="enable-background:new 0 0 48 48;" xml:space="preserve">
<style type="text/css">
	.st0{fill:#808080;}
</style>
<path class="st0" d="M47.9,14.3c0-0.4,0-1-0.2-1.3c-0.1-0.1-0.1-0.2-0.1-0.3c-0.2-0.8-1.1-4-7-2.3c-0.1,0-0.2,0.1-0.2,0.1
	c-0.4,0.3-1.9,1.3-4,3.9c-0.1,0.1-0.1,0.2-0.2,0.3c-0.2,0.2-0.8,0.7-1.2,1.1c0,0,0,0,0,0c-0.2,0.1-1.3,1-1.9,1.7
	c-0.1,0.1-0.1,0.1-0.2,0.2l-5.1,3.6c0,0-6.1,4.3-6.5,4.9l-0.6,0.7c-0.1,0.1-0.2,0.2-0.4,0.3c-0.9,0.4-4.5,2.1-6.8,2.2
	c0,0-0.3,0-0.3,0.2c0,0-11,0.8-12.8,0.3L0,29.9c0,0,0.3,0,0.6,0.2c0,0,2,1,5,1c0.1,0,0.2,0.1,0.2,0.2c0.1,0.3,0.6,0.9,3.8,0.9
	c0.1,0,0.1,0.1,0.1,0.2c-0.2,0.2-0.5,0.5,0,0.5c0,0,2.4,0,3.1-0.1c0.1,0,0.1,0,0.2,0c0.4,0.1,2.4,0.4,4.2-0.3c0.1,0,0.1,0,0.2,0
	c0.7,0,4.7,0.2,7.1,1c0.2,0.1,0.5,0.1,0.8,0.1c0.9,0,3,0.3,5,1.7c0.1,0.1,0.2,0.2,0.3,0.4c0.1,0.3,0.6,1,1.9,1.1c0,0,1,0.1,0.7,0.3
	c0,0-0.7-0.2-0.9,0c0,0-2.2-0.5-2.5,0c0,0-0.3,0.5-0.2,0.6c0,0,0.7-0.7,1.5-0.3c0,0-0.1,0.9,0.7,0.4c0,0,0.3,0.3,0.7,0.1
	c0,0,1.2,0.4,2.7-0.1c0.1,0,0.2-0.1,0.3-0.1c0.4,0,1.6,0,2,0.1c0,0,1.4,0.4,2.3,0c0,0,2.3,0.4,1.6-0.6c0,0,0.6-0.5,1.8,0
	c0,0-0.4-1.1-2.1-0.5c0,0-2.3,0.6-2,0.2c0,0-0.1-0.5,0.3-0.5c0,0,0.9,0,1.1,0.1c0,0-0.2-1-1.5-0.5c0,0,0.1-0.6-0.1-0.8
	c0,0,0.5,0.1,0.8,0c0,0,0.5,0.1,0.6,0.2c0,0,0.6,0.6,0.8-0.2c0,0,0.3-0.3,0.6,0.2l0.4,0.4c0,0,0.2-0.5-0.5-0.8c0,0-0.2-0.2-1.1-0.3
	c-0.1,0-0.3,0-0.4-0.1c-0.5-0.1-1.6-0.4-2-0.5c-0.1,0-0.1,0-0.2-0.1c-0.5-0.2-2.5-1.1-2.8-1.2c-0.4-0.1-1.1-0.3-1.1-0.3
	s-0.2-0.3,0.2-0.4c0.4-0.1,0.4-0.1,0.4-0.1s5.7-1.7,8.4-7.4c0,0,3.8-7.8,3.9-8.2c0,0,0.6-0.2,0.4,0.4c0,0,1.3-0.7,0.9-2.2
	C47.9,14.7,47.9,14.5,47.9,14.3z M44.4,14.3c-0.5,0-0.8-0.3-0.8-0.7c0-0.4,0.4-0.7,0.8-0.7c0.5,0,0.8,0.3,0.8,0.7
	C45.2,14,44.8,14.3,44.4,14.3z"/>
</svg>
