<?xml version="1.0" encoding="utf-8"?>
<!-- Generator: Adobe Illustrator 19.1.0, SVG Export Plug-In . SVG Version: 6.00 Build 0)  -->
<svg version="1.1" id="Layer_1" xmlns="http://www.w3.org/2000/svg" xmlns:xlink="http://www.w3.org/1999/xlink" x="0px" y="0px"
	 viewBox="0 0 48 48" style="enable-background:new 0 0 48 48;" xml:space="preserve">
<style type="text/css">
	.st0{fill:#808080;}
</style>
<path class="st0" d="M47,9.4c0-0.1-0.5-1.3-2-1.6c0,0,0,0,0,0c-0.1,0-1.7,0.1-1.8-0.9c0,0-0.1-0.1-0.1,0c-0.6,0.4-3.8,2.7-5.4,4.6
	c0,0,0,0,0,0c0,0.1-1.5,2.1-9.2,1.3c-0.3,0-0.6-0.1-0.9-0.2c-1.5-0.4-6.8-1.6-8.9-0.7c-0.5,0.2-1.2,0.2-1.7,0
	C14.5,10.7,7.7,8,5.3,8.1c0,0-0.1,0-0.1-0.1c0.1-0.2,0.1-1-0.8-1c0,0-0.1,0-0.1,0.1c0,0.1,0,0.4-0.1,0.4c0,0,0,0-0.1,0L3.9,7.1
	c-0.1-0.1-0.2,0-0.2,0c0,0.1,0,0.3,0,0.4c0,0,0,0,0,0.1c0,0-0.2,0.1-0.3,0c0,0-0.1-0.1-0.2-0.2C3.2,7.3,3,7.4,3.1,7.6
	C3.2,7.7,3.2,7.9,3.3,8c0,0.2-0.1,0.3-0.2,0.1L2.7,7.8c-0.1-0.1-0.2,0-0.2,0.1c0,0.2,0,0.4,0.2,0.5c0,0,0,0.1,0,0.1c0,0-0.1,0-0.3,0
	c0,0,0,0,0,0c-0.1,0-0.8-0.6-0.8,0.5c0,0.1-0.1,0.1-0.1,0.1l-0.2,0c-0.1,0-0.1,0.1-0.1,0.1c0,0.1,0.1,0.2,0.2,0.3
	c0,0,0.1,0.1,0.1,0.1c0,0.2-0.1,0.7-0.6,1c0,0-0.1,0-0.1,0c-0.2,0-0.7,0.1-0.7,0.8c0,0,0.1,0.1,0.1,0c0.2-0.1,0.6-0.4,0.7-0.1
	c0,0,0,0.1,0,0.1L0.4,12c0,0,0,0.1,0.1,0.1c0.3-0.1,1-0.2,1.6-0.2c0.3,0,0.5,0.2,0.7,0.4C3,12.9,3.8,13.9,4.9,13C5,13,5.1,13,5.2,13
	c0.2,0.3,0.8,1,1.6,1.8c0.3,0.3,0.5,0.6,0.8,1l1.9,3c0,0,0,0,0,0c0.1,0.1,2.4,2.8,3.9,3.7c0.1,0.1,0.2,0.2,0.3,0.3l0.3,0.5
	c0,0,0.1,0.1,0.1,0c0,0,0.1,0,0.1-0.1c0.1,0,0.2,0,0.3,0.1c0.1,0.3,0.6,1.3,1.3,1.8c0.3,0.2,0.4,0.3,0.4,0.3c0,0-0.4-0.2-0.4-0.3
	c0,0,0.7,0.5,0.8,1.3c0,0.1,0.1,0.1,0.2,0c0.2-0.3,0.6-0.7,0.7-0.3c0,0,0.2,0.6,0.5,1.1c0.1,0.1,0.2,0,0.1-0.1
	c-0.1-0.2-0.1-0.3,0.1-0.3c0,0,3.4,1.1,4.1,2.8c0,0.1,0,0.2-0.1,0.2l0,0c-0.1,0-0.1,0.1,0,0.2l0.1,0.1c0.1,0.1,0.2,0.1,0.2,0.1
	l0.1-0.1c0.1,0,0.2,0,0.2,0c0.2,0.1,0.6,0.4,0.8,0.7c0.1,0.2,0.1,0.4-0.1,0.6c-0.7,0.6-3,2.5-3.8,3.3c-0.1,0.1-0.2,0.1-0.3,0.1
	c-0.6-0.3-2.5-1.2-3.1-1.3c-0.1,0-0.1,0.1,0,0.1c0.1,0,0.1,0.1,0.1,0.2c0,0,0,0.2,0.4,0.5c0,0,0,0,0,0c0,0,1,0.6,1.3,0.9
	c0,0,0,0,0,0c0.1,0,0.7,0.2-0.4,0.6c0,0,0,0-0.1,0c-0.3,0.1-2.6,0.6-2.9,0.7c0,0,0,0,0,0c-0.1,0-0.6,0-1.1,0.5c0,0,0,0.1,0.1,0.1
	c0.2-0.1,0.3-0.1,0.4,0c0,0,0,0,0,0c0.1,0,0.5,0.3,1.1,0c0.1,0,0.1-0.1,0.2,0c0.3,0,1,0,1.6-0.3c0.1,0,0.1,0,0.2,0
	c0.3,0.1,0.9,0.2,1.4-0.1c0,0,0,0,0,0c0.1,0,0.6,0.2,0.3,0.7c0,0,0,0,0,0c0,0.1-0.7,1,0,1.7c0,0,0.1,0,0.1,0c0-0.3,0-1,0.5-1.1
	c0,0,0,0,0,0c0.1,0,0.6-0.4,0.9-0.9c0,0,0.6-0.9,1.3-0.3c0,0,0.1,0.1,0.1,0.1c0.1,0.2,0.6,0.7,1.1,0.4c0,0,0,0,0,0
	c0,0,0.1,0,0.2,0.1c0,0,0.1,0,0.1,0c0-0.2-0.3-0.5-1.4-1.2c-0.1,0-0.1-0.1-0.2-0.2c-0.1-0.2-0.2-0.8,0.4-1.2c0.1,0,0.1-0.1,0.2-0.1
	l2.5-2.4c0,0,0,0,0,0c0,0,1.2-1.3,1.4-1.2c0,0,0,0,0,0c0,0.1,0,0.4,0.6,0.5c0.1,0,0.1,0.1,0.1,0.2c0,0.1,0.1,0.3,0.9,0.2
	c0,0,0.1,0,0.1,0c0,0.1,0.2,0.4,0.7,0.3c0.1,0,0.1,0,0.1-0.1c0.1-0.2,0.2-0.5,0.5-0.4c0,0,1.1,0,1.5-0.2c0.1,0,0.1,0,0.2,0.1
	c0.1,0.2,0.5,0.8,1.3,0.2c0,0,0,0,0.1,0c0.2,0.1,1.3,0.5,2.6-0.1c0,0,0.1,0,0.1,0c0.1,0.5,1.1,4.3,1.1,4.6c0,0-0.4,1.9-3,1
	c0,0-0.2-0.1-0.4,0.2c0,0,0,0,0,0c-0.1,0-0.2,0-0.4-0.1c0,0,0,0,0,0c-0.1,0-0.3-0.1-0.5,0.2c0,0,0,0.1,0,0.1c0.1,0,0.5,0.1,0.6,0.1
	c0,0,0,0,0,0c0.1,0.1,0.2,0.3,0.8,0.1c0,0,0.1,0,0.1,0c0.2,0.1,1.3,0.6,2.9-0.1c0,0,0.1,0,0.1,0c0,0.2-0.1,0.9-0.9,2.2c0,0,0,0,0,0
	c0,0.1-0.2,1.2,0,1.1c0,0,0.2-0.5,0.5-0.7c0,0,0,0,0,0c0.1-0.2,1.4-2.5,1.2-3.4c0,0,0,0,0-0.1c0.2-0.1,1-0.8,0.6-1.1c0,0,0,0,0,0
	c0-0.1-0.1-0.8,0.5-0.8c0,0,0,0,0,0c0.1,0,0.9,0.2,1.2-0.6c0,0,0-0.1,0.1-0.1c0,0,0.1-0.1,0-0.1c-0.1-0.1-0.4-0.2-0.7,0.2
	c0,0,0,0,0,0c0,0-0.4,0.2-0.9,0.1c0,0,0,0,0,0c0,0-0.2,0-0.3,0.2c0,0,0,0,0,0c0,0-0.3,0.2-0.6-0.5c-0.3-0.8-1.1-3.5-0.7-3.8
	c0,0,6-4.9,4-8.1c0,0,0-0.1,0-0.1c0.6,0,3.8-0.4,3.7-6.7c0,0,0,0,0,0c0-0.1,0.5-2,3.7-4.1c0,0,0-0.1,0-0.1
	C47.8,11.2,47.1,10.2,47,9.4C47,9.4,47,9.4,47,9.4z M4.5,11C4.2,11,4,10.9,4,10.7c0-0.2,0.2-0.3,0.4-0.3s0.4,0.1,0.4,0.3
	C4.9,10.9,4.7,11,4.5,11z"/>
</svg>
