<?xml version="1.0" encoding="utf-8"?>
<!-- Generator: Adobe Illustrator 19.1.0, SVG Export Plug-In . SVG Version: 6.00 Build 0)  -->
<svg version="1.1" id="Layer_1" xmlns="http://www.w3.org/2000/svg" xmlns:xlink="http://www.w3.org/1999/xlink" x="0px" y="0px"
	 viewBox="0 0 48 48" style="enable-background:new 0 0 48 48;" xml:space="preserve">
<style type="text/css">
	.st0{fill:#808080;}
</style>
<path class="st0" d="M47.6,19.4c0,0-0.8-0.7-1.2-1.1c0,0-2.7-1.5-2.7-3c0,0-0.5-0.8-0.6-1.7c0-0.1,0-0.2,0-0.3
	c-0.1-0.5-0.8-2.5-2-3.1c-0.1,0-0.1-0.1-0.2-0.1c-0.4-0.3-3-1.8-5.1-0.3c0,0-2.6,1.7-3.2,3.3c0,0-1.1,2.6-1.1,3.6
	c0,0.1-0.1,0.2-0.3,0.1c-1.5-0.8-8.1-3.8-19,2.3c0,0-10.2,1.9-11.2,2.5c0,0,5.1-0.7,5.8-0.2c0,0-4.1,0.8-4.6,1.4
	c0,0,2.4-0.4,2.8-0.3c0,0,1,0.5,1.5,0.8c0.2,0.1,0.3,0.4,0.1,0.6c-0.5,0.6-1.5,1.8-2,2.6c-0.7,1.1-1.8,1.8-3,2.1
	c-0.2,0.1-0.5,0.1-0.8,0.2c0,0,0.1,0.2-0.5,0.2c0,0,0,0.3,0.6,0.2c0,0-0.6,0.3-1,0.3l0,0c0,0,0.2,0.1,0.2,0.1c0,0-0.4,0.3,0,0.5
	c0,0,0.4-0.2,0.4,0.1c0,0,0,0.2,0.6,0c0,0,0.5-0.3,1.3-0.1c0,0,1.5,0.2,2.2,0.2c0.1,0,0.3,0,0.4,0.1c0.4,0.2,1.4,0.5,2.2,0.3
	c0.1,0,0.2,0,0.2,0.1c0.1,0.3,0.6,0.7,1.6-0.1c0.1-0.1,0.2-0.1,0.3-0.1c0.5,0,1.7,0.1,3.2,0.3c0,0,0.1,0,0.1,0
	c0.4,0.1,3.3,1.1,4,0.6c0,0,0.1,2,0.3,3c0,0.1,0,0.2,0,0.3l0,1c0,0.1,0,0.1-0.1,0.2c-0.2,0.2-0.8,0.7-0.6,1.2c0,0,0.2-0.3,0.2-0.1
	c0,0,0.4,0.2,0.4-0.2c0,0,0-0.1,0.1-0.2c0.1-0.1,0.2-0.1,0.3,0c0,0.1,0.1,0.2,0.1,0.4c0,0-0.1,0.9,1,0.7c0,0,0.5,0.7,2.1,0.8
	c0,0,3.4,0.1,3.4,0.1c0,0,0-0.2-0.2-0.3c0,0,0.1-0.2,0-0.4c0,0,1.8,0,1.6-0.3c0,0,0.3-0.1,0.4,0.1c0,0-0.1-0.6-0.9-0.6
	c0,0-0.3-0.1-1.3,0c0,0-2.5,0.2-2-0.1c0,0,0.1-0.1,0.3,0c0,0,0-0.5-1.3-0.2c0,0-1.7,0-1.7-0.5c0,0-0.3-2-0.6-3.3c0,0,0-0.1,0-0.1
	c0.1-0.2,0.2-0.9,0.2-1.4c0-0.1,0.1-0.2,0.2-0.2l4.1,0.3c0.2,0,0.4,0.1,0.4,0.3c0.3,0.6,0.9,1.9,0.9,2.6c0,0.1,0,0.2-0.1,0.2
	c-0.2,0.2-0.8,0.7-0.8,0.9c0,0-0.2,0.2-0.1,0.4c0,0,0.2-0.3,0.2-0.2c0,0,0.3,0.4,0.5,0c0,0,0.5-0.8,0.7-0.5c0,0,0.1,0.2,0.2,0.4
	c0,0.1,0.1,0.1,0,0.2c-0.1,0.3-0.1,0.8,0.6,1c0,0,0.4,0.2,0.6,0.3c0,0,0.1,0,0.1,0c0.1,0,0.5,0.1,0.4-0.1c0,0,3.6-0.4,4.1-0.3
	c0,0,0.8,0.2,0.7,0.1c0,0,0.1,0,0.2,0.1c0,0,0.1-0.3-0.3-0.7c0,0,1.2-0.1,1.1-0.3c0,0,0-0.1,0.2,0c0,0,0,0,0,0
	c0.2,0.2-0.1-0.6-1.2-0.5c0,0-3.3,0.1-4.6-0.1c-0.3,0-0.5-0.2-0.6-0.5l-0.2-0.6c0-0.1,0-0.1-0.1-0.2c-0.2-0.4-1-1.8-1.2-2.4
	c0-0.1,0-0.2,0.1-0.2l1.3-0.1c0.1,0,0.2,0.1,0.1,0.1c0,0.1,0,0.1,0,0.1c0,0,1,0.6,1.2,0.1l0-0.3c0-0.1,0.1-0.2,0.1-0.2
	c0.7-0.1,3.8-0.6,5.5-0.8c0.3,0,0.5-0.1,0.8-0.1c1.1-0.3,4.1-1.2,5.3-2.9c0,0,4-4.1,0.4-8c-0.2-0.2-0.4-0.4-0.7-0.6
	c-0.3-0.2-0.9-0.6-0.9-1.1c0,0-0.5-1.1,1.6-1.3c0.1,0,0.3,0,0.4,0c0.3,0.1,0.9,0.3,1.2,0.3c0.2,0,0.4,0.1,0.5,0.2
	c0.4,0.2,1.2,0.7,1.3,0.7c0.1,0,1.7,1.1,2.1,1.3c0,0,2,0.8,2.9,1c0.1,0,0.1,0,0.1-0.1C48,20.2,48.1,19.8,47.6,19.4z M40.7,13.1
	c-0.1,0.2-0.4,0.4-0.7,0.3c-0.4-0.1-0.6-0.3-0.5-0.6c0.1-0.2,0.4-0.4,0.7-0.3C40.5,12.6,40.8,12.9,40.7,13.1z"/>
</svg>
