<?xml version="1.0" encoding="utf-8"?>
<!-- Generator: Adobe Illustrator 19.1.0, SVG Export Plug-In . SVG Version: 6.00 Build 0)  -->
<svg version="1.1" id="Layer_1" xmlns="http://www.w3.org/2000/svg" xmlns:xlink="http://www.w3.org/1999/xlink" x="0px" y="0px"
	 viewBox="0 0 48 48" style="enable-background:new 0 0 48 48;" xml:space="preserve">
<style type="text/css">
	.st0{fill:#808080;}
</style>
<path class="st0" d="M46.5,20.7c0,0-2.1-5.8-5.1-6.2c-0.5-0.1-0.9-0.2-1.3-0.5c-0.6-0.4-1.9-0.8-4.8-0.8c0,0-4.4,0.3-8.3-0.5
	c-0.5-0.1-1.1-0.3-1.6-0.5c-2.2-1-10.1-3.9-15.3,1.1c0,0-0.4-3.4,3-3.8c0,0-3.5-1-4.3,3.9c0,0-0.1,0.1-0.4-0.1c0,0-1.8-2.2-4.2-1.1
	c-0.4,0.2-0.8,0.3-1.2,0.3l-0.1,0c0,0-0.5-2,1.9-2.9c0,0-3.6-0.1-2.6,3.7c0.1,0.3,0.1,0.7,0,1c-0.1,0.6-0.3,1.4-0.3,1.9
	c0,0-0.4,0.3-0.4,1.5c0,0.1,0,0.3-0.1,0.4c-0.4,0.7-1.8,3-1.4,3.6c0,0,0.2,0.5,0.7,0.4c0,0,1.3,0.9,2,0.3c0,0,4.1-4,8-0.3
	c0,0,4.1,3.4,5.3,5.1c0.2,0.2,0.2,0.5,0.3,0.8c0,1,0.3,3.7,2.4,4.2c0.2,0.1,0.4,0.2,0.5,0.4c0.3,0.7,0.7,2.3-0.3,2.8
	c0,0,0.1,0.7-0.8,1.2l0,0.1c0,0-0.6,0.4,0.2,0.7c0,0,2.4,0.2,2.5-0.6c0,0,0.1-0.9,0.6-0.7c0,0,0-1.3,0.3-1c0,0,0-0.5-0.4-1
	c0-0.1-0.1-0.1-0.1-0.2c0-0.4-0.1-1.6,0.9-0.4c0,0,1.3-1.5,1-3.5c0-0.1,0.1-0.2,0.2-0.1c1.2,1,6.7,5.1,10.2-1.6c0,0,0-0.1,0.1-0.1
	c0.2-0.3,1.2-1.4,1-0.1c0,0.2,0,0.3,0,0.5c0.1,1,0.9,4.6,3.8,3c0,0,0.7,2.2-0.7,4.2c-0.2,0.3-0.3,0.6-0.4,0.9c0,0.3-0.1,0.6-0.1,0.8
	c0,0.6,0,0,0,0s-1,0.7-0.6,0.8c0,0,2.2,0.8,2.8-0.4c0,0,0.2-0.8,0.9-1c0.1,0,0.2-0.2,0.1-0.3c-0.1-0.2-0.2-0.7,0.1-1.4l1.8-5.2
	c0-0.1,0.1-0.1,0.1,0c0,0.9,0.3,2.8,1.7,2C44,32.1,51,31.1,46.5,20.7z M5,16c-0.3,0.1-0.6,0-0.6-0.2c0-0.2,0.2-0.4,0.5-0.4
	c0.3-0.1,0.6,0,0.6,0.2C5.5,15.7,5.3,15.9,5,16z"/>
</svg>
