<?xml version="1.0" encoding="utf-8"?>
<!-- Generator: Adobe Illustrator 19.1.0, SVG Export Plug-In . SVG Version: 6.00 Build 0)  -->
<svg version="1.1" id="Layer_1" xmlns="http://www.w3.org/2000/svg" xmlns:xlink="http://www.w3.org/1999/xlink" x="0px" y="0px"
	 viewBox="0 0 48 48" style="enable-background:new 0 0 48 48;" xml:space="preserve">
<style type="text/css">
	.st0{fill:#808080;}
</style>
<path class="st0" d="M47.1,14.3c0,0-3.3-4-6.8-5.1c0,0-1.1-3.2-1.4-2.7l-0.7,2.5c0,0-0.8-0.2-1.4,0.1c0,0-2.3-3.4-4-2.7
	c0,0-1.9,0.5-1.5,3c0,0-0.1,1.1,1.1,2.6c0,0-1.7,1.1-3.6,0.2c0,0-19.4-9-26.6,20.1c0,0-4.9,2.8,0,6c0,0,2.6,2.2,8.9,3.2
	c0,0,6.4,0.4,8.5,0.2c0.1,0,0.1,0,0.2,0c1-0.1,8.6-0.7,9.6-0.9c1.1-0.3,8.3-0.1,8.3-0.1s-0.3-0.8-2.3-0.9c-2-0.1-6.4-0.3-6.4-0.3
	s-5.1,0.1-5.7,0.3c-0.6,0.2-7.1-0.1-7.1-0.1s-5.7-0.4-6.8-0.9c-0.1,0-0.1,0-0.2-0.1c-0.8-0.3-5.2-1.7-5.5-2.5
	c-0.3-0.9,0.5-1.8,1.4-1.5c0,0,8,2.7,12.7,1.3c0,0,1.2,1.6,6.1,1.2c0,0,1.2-0.3,2.1,0.3c0,0,0.3,0.3,1.1,0.1c0,0,0.7-0.1,0.9,0.3
	c0,0,0-0.8-0.7-1c0,0-0.8-0.4-1-0.5c0,0,1.8,0.3,2-0.1c0,0,0.7-0.3,1.1,0.1c0,0,0-0.4-0.2-0.6c0.1,0,0.7,0.3,0.6-0.1
	c0,0-1.2-1.3-2.2-1c0,0-0.3-1-2.2,0C25.1,35,24.9,35,24.6,35c-0.7,0-2.1,0-2.8-0.4c0,0,5.8-5.8,10.1-1.5c0,0,2.4,2.1,4.2,3.1
	c0,0,1,0.8,1.8,1.1c0.1,0,0.3,0.1,0.4,0.2c0.3,0.2,0.9,0.5,1,0.2c0,0,0.5,0,0.6,0.5c0,0,0.3-0.3-0.3-0.9c0,0,0-0.6,0.7,0
	c0,0,0.3,0.2,0.6,0.1c0,0,0.3,0,0.4,0.6c0,0,0.7-0.4,0-1.2c0,0,0.5-0.2,0.8-0.1c0,0,0.1-0.6-0.7-0.6c0,0-1.2-0.7-1.3-0.9
	c0,0,0.5-0.4,0.9-0.2c0,0-0.3-0.6-1.1-0.6c-0.1,0-0.2,0-0.3,0c-0.2-0.1-0.5-0.1-0.9-0.1c-0.3,0-0.5-0.1-0.7-0.3
	c-0.5-0.5-1.4-1.8-0.9-3.7c0,0,0.6-7.4,7.9-10.4C44.9,19.9,50,17,47.1,14.3z M39.6,14.7c-0.6,0-1.1-0.4-1.1-1c0-0.6,0.5-1,1.1-1
	c0.6,0,1.1,0.5,1.1,1C40.7,14.3,40.2,14.7,39.6,14.7z"/>
</svg>
