<?xml version="1.0" encoding="utf-8"?>
<!-- Generator: Adobe Illustrator 19.1.0, SVG Export Plug-In . SVG Version: 6.00 Build 0)  -->
<svg version="1.1" id="Layer_1" xmlns="http://www.w3.org/2000/svg" xmlns:xlink="http://www.w3.org/1999/xlink" x="0px" y="0px"
	 viewBox="0 0 48 48" style="enable-background:new 0 0 48 48;" xml:space="preserve">
<style type="text/css">
	.st0{fill:#808080;}
</style>
<path class="st0" d="M47.8,23.5c0,0-2.4-2.5-4.3-2.8c0,0,0.3-1.8-1-1.8c0,0-1.1,0-1.1,1.2c0,0-0.8-2.2-1.8-2.2c0,0-1.8-0.4-1.9,1.2
	c0,0,0.1,0.8,0.5,1.2c0,0-0.2,0.4-1.2,0.6c-0.7,0.1-1.5,0-2.1-0.3c-2-1-8.5-3.3-14.6,4.7c-0.2,0.2-0.4,0.4-0.6,0.5
	c-0.3,0.2-0.8,0.3-1.3,0c0,0-2-1-3.9-3.8l-2.1-3.1c0,0-1.3-2.1-3.7-2.8c0,0-2.6-0.8-5.3,1.1c0,0-2.1,1.5-2.7,2.6L0,21
	c0.1-0.1,2.3-2.4,2.9-2.7c0.6-0.4,2.4-1.7,4.4-1.6c0.1,0,0.1,0,0.2,0c0.4,0,2.2,0.1,3.8,2.5l1.9,3c0,0,1.7,2.5,2.9,3.6
	c0.1,0.1,0.2,0.1,0.2,0.2l2.2,1.4c0.1,0.1,0.2,0.1,0.3,0.2c0.2,0.1,0.4,0.3,0.4,0.9c0,0-0.4,0.7,0.9,1.3c0.4,0.2,0.7,0.5,0.9,0.8
	l0.5,0.8c0.1,0.1,0.2,0.2,0.3,0.2c0.2,0,0.5,0,0.6,0.4c0,0,2.1,0.2,2.1-0.2c0,0,0-0.1,0.1,0.1c0,0,0.1-0.4-0.6-0.5
	c0,0-0.1-0.5-1.1-0.3c0,0-0.6-0.5,0.1-0.5l2.5-0.1c0.1,0,0.2,0.1,0.2,0.1c0.1,0.2,0.5,0.8,2,1.1c0.1,0,0.2,0,0.3,0
	c0.4,0,1.7,0.1,1.7,0.3c0,0,0.1-0.1,0.1-0.2c0,0,0.5,0.1,0.7-0.2c0,0,0.4-0.3,0.4,0.6c0,0,0.3,0.3,0.5-0.1c0,0,0.1-0.3,0.6,0.2
	c0,0,0.4,0.1,0.7-0.2c0,0,0.1-0.1,0.2,0c0,0-0.2-0.4-0.5-0.5c0,0,0-0.4-0.3-0.5c0,0,0-1.8,2.1-1.8c0,0,0.1,0,0.1,0
	c0.4,0,3.5-0.2,5.9,1.5c0,0,0.1,0.3,0.3,0c0,0,0.4-0.2,0.5,0.1c0,0,0.1,0.2,0.2,0c0,0,0.2-0.1,0.5,0.2c0,0,0.3,0.1,0.2-0.2
	c0,0,0-0.4,0.4,0c0,0,0.4,0.2,0.5-0.2c0,0,0,0,0.1,0c0,0,0-0.4-0.6-0.4c0,0-0.1-0.1-0.4-0.2c-0.4-0.1-0.7-0.2-0.9-0.5
	c-0.3-0.3-0.6-0.7-0.3-1.2c0,0,1.1-2.6,3.8-2.5c0.1,0,0.1,0,0.2,0c0.5,0,2.7-0.3,3.1-1.1C47.4,25.1,48.4,24,47.8,23.5z M30.8,30.6
	C30.7,31,30,30.9,30,30.9c-0.5-0.3-2.3-0.4-2.3-0.4c-0.4-0.1,0-0.4,0-0.4l3.2-1C31.4,29.3,30.8,30.6,30.8,30.6z M43.9,22.8
	c-0.3,0-0.6-0.2-0.6-0.5s0.3-0.5,0.6-0.5c0.3,0,0.6,0.2,0.6,0.5S44.2,22.8,43.9,22.8z"/>
</svg>
