<?xml version="1.0" encoding="utf-8"?>
<!-- Generator: Adobe Illustrator 19.1.0, SVG Export Plug-In . SVG Version: 6.00 Build 0)  -->
<svg version="1.1" id="Layer_1" xmlns="http://www.w3.org/2000/svg" xmlns:xlink="http://www.w3.org/1999/xlink" x="0px" y="0px"
	 viewBox="0 0 48 48" style="enable-background:new 0 0 48 48;" xml:space="preserve">
<style type="text/css">
	.st0{fill:#808080;}
</style>
<path class="st0" d="M44,12c0,0-0.2-0.9,0.2-1.2c0,0,1.4-1.9-1.9-2.4c0,0-1.6-1.2-3.8,0.3c0,0-0.8-1.6-2.2-0.1c0,0-0.9,1.2-0.1,2
	c0,0-1.7,0.1-3.4-0.7c0,0-5.1-1.9-10.8,0.2c-0.4,0.2-0.9,0.2-1.4,0.2C19.6,10,17,9.7,11.8,8.7c-0.1,0-0.3-0.1-0.4-0.1
	C10.8,8.3,8.8,7.5,8,8.2C7.9,8.4,7.8,8.4,7.6,8.5C6.9,8.6,5,9,4.2,9.9c-0.2,0.2-0.4,0.4-0.7,0.5c-0.9,0.3-2.7,1.2-2.4,3.9
	c0,0.2,0,0.3,0,0.5c-0.1,0.9-0.5,3.8-0.4,6.1l0,8.1c0,0-1.2,0.8-0.2,3.4c0,0,0.7,2.3,0.6,4c0,0.1,0.1,0.2,0.2,0.1l0.2-0.2
	c0.1-0.1,0.2,0,0.3,0.1c0.1,0.3,0.2,0.8,0.1,1.1c0,0.1,0,0.2,0.1,0.3c0.5,0.3,1.9,1,3.2,0.2c0,0,0.3-0.4-1.3-1.5c0,0-1.4-0.7-0.8-4
	c0,0,0.4-2.7,0.8-2.2c0,0,2.5,5.6,2.6,7.3c0,0.1,0,0.1,0,0.2c-0.1,0.2-0.3,0.8,0.1,1.3c0,0,0.4-1.1,0.7-0.5c0,0,0.4,1.6,1.5,1.6
	c0,0,2.8,0.2,1.9-1c0,0-0.6-1.3-1.5-1.4c0,0-2.6-2.7-1.7-7.9c0,0,0.2,0.3,0.4-0.1c0,0,0.1-0.7,0.3-0.6c0,0,0.5,0,0.5,0.4
	c0,0-0.4,0.7-0.1,1.3c0,0,0.4,0,0.6-0.5c0,0,0.8,0.1,0.9-0.8c0-0.2,0.2-0.3,0.4-0.4c0.7-0.2,2.3-0.5,2.7-0.5c0,0,0.5-0.1,0.9-0.3
	c0,0,0.9-1.2,1.1-1c0,0,0.8,1.3,3.1,0.4c0.3-0.1,0.6-0.2,1-0.2c1.4-0.2,5.1-0.5,6.7-0.2c0.3,0.1,0.4,0.3,0.4,0.6
	C26.1,29,25.8,32,26,32.2c0,0-0.5,4.4-0.7,4.8c0,0-0.4,0.8-0.2,1.1c0,0,0.9-0.9,0.7,0c0,0-0.6,1.1,0.7,1.6c0,0,1.5,0.7,2.9-0.1
	c0,0,0.6-0.4-1-1.3c0,0-0.3-0.8-0.7-1c-0.1-0.1-0.2-0.2-0.2-0.3c-0.1-0.7-0.4-2.4,0.1-3.1c0.1-0.1,0.2-0.3,0.2-0.5
	c0.3-0.9,1.1-3.6,1.3-4.6c0-0.2,0.2-0.3,0.4-0.2c0.5,0.2,1.3,0.8,1.8,3.1c0,0,0.1,0.3,0.3,0.6c0.1,0.2,0.1,0.3,0.2,0.5
	c0.2,0.9,0.8,3.5,0.4,4.4c0,0-0.1,0.4,0.5,0.4c0,0,0.8,2.3,3.2,1.5c0,0,0.9-0.2,0.4-0.8c0,0-1.4-1.3-1.5-1.6c0,0-0.4,0.2-0.4-0.7
	c0-0.1,0-0.1,0-0.2l-0.8-2.3c0,0,0.5-0.5,0.4-0.9c0-0.1-0.1-0.2-0.1-0.2c0-0.6-0.1-2.6-0.4-3.4c-0.1-0.2,0-0.4,0.1-0.6
	c0.4-0.8,1.4-2.7,1.6-4c0,0-0.3-1.4,1.4-2.6c0,0,3.5-2.5,3.8-3c0,0,0.7,0.3,1.2,0c0,0,0.3-0.1,0.5,0.1c0,0,0.3,0.5,1-0.1
	c0,0,1,0.1,1.3-0.2c0,0,0.5,0,0.7,0.3c0,0,0.8-0.4,0.4-1.3c0,0,0.2-1.8-1.3-2.4c0,0,3.3,0,3.6-0.4C48,14.6,48.2,11.8,44,12z
	 M1.6,25.9l0-2.8c0.1,0.5,0.6,1.5,0.6,1.5C2.3,25,1.6,25.9,1.6,25.9z M37.8,9.6c0,0,0,0.3-0.5,0.3c0,0-0.1-0.8,0.5-0.7
	C37.7,9.1,38.1,9.2,37.8,9.6z M39.9,11.8c-0.4-0.4-1.4-0.4-1.4-0.4c-0.2-0.1,0.4-0.7,0.4-0.7c1.1-0.6,1.9,1.2,1.9,1.2
	C40.3,12,39.9,11.8,39.9,11.8z"/>
</svg>
