<?xml version="1.0" encoding="utf-8"?>
<!-- Generator: Adobe Illustrator 19.1.0, SVG Export Plug-In . SVG Version: 6.00 Build 0)  -->
<svg version="1.1" id="Layer_1" xmlns="http://www.w3.org/2000/svg" xmlns:xlink="http://www.w3.org/1999/xlink" x="0px" y="0px"
	 viewBox="0 0 48 48" style="enable-background:new 0 0 48 48;" xml:space="preserve">
<style type="text/css">
	.st0{fill:#808080;}
</style>
<path class="st0" d="M44.9,35c0,0,0.5-0.2,0.6-0.5c0,0-0.6,0.4-0.9,0.4l-0.3-0.1c0,0,0.7-0.7,0.7-0.9c0,0-0.1,0-0.1,0.1l-0.3-0.3
	c0,0,0.3-0.1,0.4-0.1c0,0,0.4,0.3,0.4,0.4l0-0.6l0.3,0.2l-0.1-0.2c0,0,2.3-0.7,2.5-0.8c0,0-0.6,0.2-2,0.4c0,0-3.1,0.2-4.4-0.2
	c0,0-1.8-0.4-2.4-0.4c0,0-1.6-0.6-2.4,0c0,0-1.5,0.8-1.8,1.8c0,0,0.4-1.8,1-2.6c0.1-0.1,0.1-0.2,0.2-0.2c0.2-0.3,0.7-1.1,0.8-1.5
	c0,0,1.2-1.7,2.4-2.3c0,0,0.1-0.1,0-0.1c0,0,0.1-0.3,0.3-0.3c0,0-0.2-0.1-0.4,0.2l-0.4,0.3c0.1-0.1,0.8-0.7,0.6-0.8
	c0,0,0.2-0.2,0.2-0.3c0,0-0.1-0.1-0.4,0.2l-0.6,0.6c0.2-0.2,0.9-1,0.6-1c0,0,0-0.2,0.2-0.3c0,0-0.2-0.1-0.6,0.6l-0.9,1.1
	c0-0.1,3.4-14-3.4-24.9c0,0,1,25.6-5.8,32L0.3,21.8c0,0,9,10.2,22.9,15.3L20,38.7c0,0-1.6,0.5-2.5,0.7l-3.3,1c0,0-2.2,0.6-3.5,0.7
	c-1.3,0.2-3.4,0.4-4,0.4s-3.2,0.4-4-0.2l-1.3-1.2c0,0-0.4-0.4-0.7,0.2L0,41.6c0,0,0.6,0.4,0.7,0.7c0,0,0.8,1,1.4,0.6
	c0,0,0.5-0.8,1.6-0.9l4.8-0.1c0,0,4.4-0.5,5.6-0.8c1.2-0.3,4.4-1.1,5.8-1c0,0-0.4,0.3-1.4,0.3c-0.1,0-0.3,0.1-0.4,0.1
	c-0.1,0.1-0.3,0.3-0.3,0.3c0,0-0.3,0.1-0.7-0.1c0,0,0.2,0.3,0.6,0.3c0,0-0.6,0.8-1,0.9c0,0-0.4-0.1-0.4,0l-0.1,0l0.1,0.1
	c0,0-0.4-0.1-0.5,0l-0.2,0c0,0,0.2,0.1,0.3,0.1c0,0-0.1,0.1-0.1,0.1l-0.2,0c0,0,0.2,0.2,0.3,0.2c0,0,0.3,0,0.3,0c0,0,0,0.1-0.1,0.1
	c0,0,0.5,0,0.7-0.3c0,0,0.3,0,1-0.9c0,0,0.7-0.8,2.2-0.5c0.1,0,0.2,0.1,0.2,0.2l0,0.2c0,0-0.5,0-1,0.6c-0.1,0.1-0.1,0.1-0.2,0.1
	c-0.2,0.1-0.5,0.3-0.8,0.4c0,0-0.2,0.1-0.2,0.3c0,0-0.5,1-1.6,0.9c0,0,0,0.2,0.7,0.1c0,0,0.4-0.1,0.7-0.5c0,0-0.4,1.6-1.6,1.6
	c0,0-0.2,0.1-0.1,0.1l-0.2,0c0,0,0,0.1,0.3,0.1c0.3,0,1-0.2,1.2-0.4c0,0,0.2-0.4,0.4-0.8c0,0,0.5-1,0.8-1.1c0,0,0.6-0.3,1.2-0.3
	c0.6,0,1.3-0.2,1.6-0.6c0-0.1,0.1-0.1,0.2-0.2c0.2-0.3,0.8-0.8,1.1-0.8c0.5,0,6.6,0.4,9.5-0.7c0,0,1.4-0.5,1.7-1.8
	c0-0.1,1.6-1.2,3.5-1.6c0,0,0,0,0,0c0.2,0,1.3-0.1,1.7-0.6C38.9,36,39,36,39.1,36c0.2,0,0.6-0.1,0.9-0.3c0.1-0.1,0.3-0.2,0.5-0.2
	c0.5,0,1.7-0.1,3.5,0c0,0,2.5,0.2,3.8-0.6C47.7,34.9,44.3,35,44.9,35z M38.1,34.2c-0.3,0-0.5-0.2-0.5-0.5s0.2-0.5,0.5-0.5
	c0.3,0,0.5,0.2,0.5,0.5S38.4,34.2,38.1,34.2z M40.8,34.2l0.4-0.1l0.1,0.2L40.8,34.2z M41.5,34.3c0,0-0.1-0.2-0.1-0.2l0.4-0.1
	C41.8,34,41.6,34.3,41.5,34.3z M41.8,34.3l0.1-0.2l0.1,0.2L41.8,34.3z M42,34c0.2-0.1,0.5,0,0.5,0l-0.3,0.3L42,34z M42.4,34.4
	l0.2-0.3c0.1,0,0.2,0.3,0.2,0.3L42.4,34.4z M42.9,34.2c0,0-0.3-0.3-0.3-0.3l0.5,0C43.1,33.9,42.9,34.2,42.9,34.2z M42.9,34.4
	l0.3-0.4l0-0.1h0.3l0.1,0.1l-0.3,0.5L42.9,34.4z M43.6,34.6l-0.2-0.1l0.2-0.4l0.2,0.2L43.6,34.6z M43.8,33.9l0.5-0.1l-0.3,0.4
	C44.1,34.2,43.8,34,43.8,33.9z M44.4,33.9c0.1,0,0.3,0.3,0.3,0.3l-0.5,0.4C44.1,34.4,44.4,33.9,44.4,33.9z"/>
</svg>
