<?xml version="1.0" encoding="utf-8"?>
<!-- Generator: Adobe Illustrator 19.1.0, SVG Export Plug-In . SVG Version: 6.00 Build 0)  -->
<svg version="1.1" id="Layer_1" xmlns="http://www.w3.org/2000/svg" xmlns:xlink="http://www.w3.org/1999/xlink" x="0px" y="0px"
	 viewBox="0 0 48 48" style="enable-background:new 0 0 48 48;" xml:space="preserve">
<style type="text/css">
	.st0{fill:#808080;}
</style>
<path class="st0" d="M12.4,0.4c-0.3,0-0.7,0-1-0.1c-1.1-0.2-3.7-0.6-5.3,0c0,0-2.2,0.5-0.3,2.2C6,2.6,6.1,2.8,6.2,3
	C6.4,3.7,6.9,4.9,7,4.3c0,0,0.4,0.3,0.3-0.2c0,0,0-1.1,0.2-0.5c0,0,0.6,2,0.7,1.4c0,0-0.1-0.7,0.1-0.7c0,0,0.1-0.9,0.4-0.3
	c0,0,0.1,1,0.5,1.3c0,0,0.1-1.6,0.5-0.8c0,0,0,0,0,0c0,0,0.2,1.1,0.5,1.3c0,0,0.1-1.4,0.3-1.2c0,0,0.2,0.8,0.5,1l0.1-0.8
	c0,0,0,0,0,0c0,0.2,0.2,0.7,0.5,1c0,0,0-1.3,0.8-1.2c0,0,0.2,0,0,0.6c0,0-0.2,0.5,0,0.7c0,0,0.6-0.9,0.9-0.7l0.1,1.2c0,0,0,0,0.1,0
	c0.1-0.3,0.5-1.2,0.7-0.7c0,0-0.3,0.8-0.1,1.1c0,0,0.8-1,0.7-0.7c0,0-0.2,1.1-0.1,1.1c0,0,0.5-0.5,0.6-0.8c0,0,0-0.1,0.1-0.1
	c0.1,0,0.2,0,0.2,0.3V7c0,0,0.3-0.5,0.5-0.5c0,0,0.7-0.4,0.6,0.4c0,0,0,1.2-0.1,1.2c0,0-0.3,0-0.3,0.1c0,0-0.1,1.6-0.5,0.3
	c0,0-0.3-0.3-0.3,0.2c0,0,0.2,1-0.2,0.2c0,0-0.3-0.1-0.2,0.2c0,0,0.3,0.8,0.1,0.7c0,0-0.3-0.8-0.6-0.6c0,0-0.5,0.6-1.2,0.7
	c-0.1,0-0.2,0.1-0.2,0.2c-0.1,0.3-0.2,0.8-0.3,0.5c0,0,0-0.8-0.3-0.6c0,0-0.1,0.2-0.1,1c0,0.1,0,0.1-0.1,0.1c-0.2,0-0.6,0-0.9-1.5
	c0,0-0.4,0.1-0.3,1.5c0,0,0,0.1-0.1,0.1c-0.1,0-0.4-0.2-0.5-1.1c0,0-0.4,0.1-0.2,1.5c0,0.1-0.1,0.1-0.1,0.1c-0.1,0-0.3-0.3-0.6-1.1
	c0,0-0.4-0.2-0.5,1.5c0,0.1-0.1,0.1-0.1,0c-0.1-0.1-0.4-0.4-0.6-1.1c0,0-0.3,0.5-0.2,1c0,0,0,0.1-0.1,0.1c-0.1-0.1-0.3-0.2-0.5-0.6
	c0,0-0.3,0.2,0.1,1.2c0,0.1,0,0.2,0,0.2c-0.2,0.2-0.5,0.6,0.3,1.4c0,0,0.9,1,2.7,0.3c0,0,0.1,0,0.1,0l8.8-2.1
	c0.6-0.1,1.2-0.1,1.7,0.1l3.8,1.2c0.1,0,0.2,0.2,0.1,0.3c-1,1.3-6.9,9-6.9,9.3c0,0,0,0.5,0.4,0.2c0,0,1-1.2,1.3-0.3
	c0,0,0.7-1,1.2-0.4c0,0,0.2,0.3,0.2-0.1c0,0,0.7-1.1,1.1-0.4c0,0,0.9-0.9,1-0.3c0,0,0.1,0.2,0.3-0.4c0,0,1.7-4.4,2.7-5.5
	c0.2-0.2,0.5-0.2,0.6,0c0.6,0.9,2.1,3.4,2.1,3.6c0,0-0.3,3.1-4.9,4.6c-0.1,0-0.3,0.1-0.4,0.1c-0.9,0.2-4.5,0.9-7.1,1.1
	c0,0-4.3,0.6-6.6,2.4c-0.2,0.2-0.5,0.4-0.8,0.5C7.6,29.3,1.7,32.6,1,38c0,0.2-0.1,0.3-0.1,0.5C0.5,39.5-0.6,44,4.7,48
	c0,0-1.5-5.9,1.9-12.1c0.3-0.5,0.7-0.8,1.3-0.8c2.6-0.3,10.5-1.2,12-1.9c-0.1,0.1-1.8,2.1,1.1-0.1c0,0,11-2.3,13.2-4.9
	c0.1-0.1,0.2,0,0.2,0.1c0.1,0.9,0.3,3.7-1.3,5.5c0,0-0.1,0.5,0.3,0.1c0,0,0.2,0.2,0,0.8c0,0-0.2,0.5,0.4,0.2c0,0-0.1,1.2,0.2,0.9
	c0,0,0.4-0.5,0.2,1c0,0,0,0.7,0.2,0.1c0,0,0.4-0.4,0.2,0.9c0,0-0.1,0.8,0.2,0.6c0,0,2-5.7,1.9-6.6L36.3,27c-0.1-0.5,0.1-0.9,0.4-1.3
	c0.9-1.1,2.9-4,2.7-7.6c0,0,0.1-0.1,0.1,0l2.1,3c0,0,0.1,0,0.1,0c0.1-0.3,0.4-1.1,1.5,0.2c0,0,0.1,0,0.1,0c0-0.3,0.2-0.8,1.4,0.1
	c0,0,0.1,0,0.1,0c0.1-0.2,0.5-0.7,1.7,0.3c0,0,0.1,0,0.1,0c0-0.2,0.1-0.8,1-0.5c0,0,0.1,0,0.1-0.1c0-0.3-0.6-1.6-8-6.7
	c0,0-0.1-0.1-0.1-0.1c-0.1-0.9-1.2-7.9-8.6-10.6c0,0-2.2-0.9-4.1-1.1c-0.2,0-0.4-0.1-0.6-0.1c-1.3-0.3-5.9-1.4-7.1-1.2
	C18.9,1,14.6,0.4,12.4,0.4z M19.4,2.9c0,0-0.3,0-0.6-0.3c0,0,0.5-1,1.5-0.5C20.3,2.1,20.5,2.8,19.4,2.9z"/>
</svg>
