<?xml version="1.0" encoding="utf-8"?>
<!-- Generator: Adobe Illustrator 19.1.0, SVG Export Plug-In . SVG Version: 6.00 Build 0)  -->
<svg version="1.1" id="Layer_1" xmlns="http://www.w3.org/2000/svg" xmlns:xlink="http://www.w3.org/1999/xlink" x="0px" y="0px"
	 viewBox="0 0 48 48" style="enable-background:new 0 0 48 48;" xml:space="preserve">
<style type="text/css">
	.st0{fill:#808080;}
</style>
<path class="st0" d="M47.9,22.4c0,0-0.2-0.1-0.5-0.6c0,0-2.2-4.7-4.8-4.8c0,0-4.7-0.2-7-0.5c-0.2,0-0.4-0.1-0.7-0.1
	c-0.7-0.2-2.3-0.7-2.3-0.9c0,0-1.9-2-5.4-2c0,0-8,0-9.6,0.1c-0.1,0-0.3,0-0.4,0c-1.4,0-9.3-0.1-12.5,2.9c0,0-2,1.2-2.7,5.3
	c0,0.2-0.1,0.4-0.2,0.6l-1.2,3.1l1-0.7c0,0,0.2,1.4,0.4,2.1c0.1,0.3,0.1,0.6,0.1,0.9c0,0.2-0.2,0.5-0.4,0.7c0,0-0.8,1-0.8,2.6
	c0,0-0.1,1.9-1,2.5c0,0-0.3,0.7,0.4,0.7c0,0,2.2,0.2,2.7,0.1c0,0,0.4,0.1,0.8-0.1l1,0c0,0,0.4-0.7-1-1.3c0,0-0.2-0.3,0.1-0.4l4-3.4
	c0.1-0.1,0.4,0,0.4,0.2l0,0.5c0,0.3,0.1,0.6,0.1,0.8c0.2,0.6,0.4,1.7,0.3,2.4c0,0-0.2,0.7-0.2,0.8c0,0-0.2,0.5,0.2,0.5
	c0.4,0,4.3,0.2,4.3,0c0,0,0.3-0.3,0.2-0.5c0,0,0-0.4-0.5-0.7c0,0-0.9-0.8-0.9-1.3c0,0,0.9-2.2,1-2.7c0,0,0.5-1.8,0.8-1.7
	c0,0,3.3,0.5,4.4,0.8c0.2,0.1,0.5,0.1,0.7,0.1c0.7,0,2,0.1,2.5,0.2c0.2,0,0.3,0.2,0.3,0.3c0.1,0.7,0.3,2.6-0.6,4.1
	c0,0-0.6,1.1,0.7,1.1c1.3,0,3,0.1,3,0.1s0.6,0.1,0.6-0.2h0.3c0,0,0.3,0.2,0.6-0.1c0,0,0.6,0.1,0.2-0.9c0,0-1.3-0.6-1.3-1
	c0,0,0.2-1.4,0.6-2c0-0.1,0.1-0.1,0.1-0.2c0.2-0.3,0.9-1.4,1.3-0.9c0,0,1.8,2.5,1.4,3.9c0,0-0.1,0.9,0.6,0.9l3.4,0.1
	c0,0,0.4,0,0.6-0.1c0,0,0.5,0.1,0.6-0.1c0,0,0.4,0.1,0.3-0.4c0,0,0-0.5-0.3-0.7c-0.3-0.2-2.1-1.2-2.1-2.4c0,0-0.1-1.7,0.3-1.9
	c0,0,2-0.5,2.5-1c0,0,0.1-0.1,0.1-0.1l1.9-1.4c0.2-0.2,0.5-0.2,0.7-0.1c0.8,0.2,2.6,0.7,4,0.4c0,0,1.8-0.5,2.2-0.5
	c0,0,0.9,0-0.1-0.9l0.6-0.8c0,0,0-0.1-0.1-0.1l-1.1,0c0,0-0.1,0-0.1,0c-0.2-0.1-0.7-0.6-0.6-0.9c0,0,0.2-0.3,0.4,0l0.4,0.5
	c0,0.1,0.1,0.1,0.2,0c0.1-0.1,0.3-0.2,0.6,0c0,0,0.3-0.2-0.2-1.4c0,0,0.1-0.3,0.3-0.1c0,0,1.5,1.4,2.5,1.5c0,0,1.4,0.1,1.6-0.5
	C48,22.7,48.1,22.5,47.9,22.4z M37.5,19.6c0,0,0.7-0.5,1.3,0.1C38.8,19.6,38.2,20.4,37.5,19.6z"/>
</svg>
