<?xml version="1.0" encoding="utf-8"?>
<!-- Generator: Adobe Illustrator 19.1.0, SVG Export Plug-In . SVG Version: 6.00 Build 0)  -->
<svg version="1.1" id="Layer_1" xmlns="http://www.w3.org/2000/svg" xmlns:xlink="http://www.w3.org/1999/xlink" x="0px" y="0px"
	 viewBox="0 0 48 48" style="enable-background:new 0 0 48 48;" xml:space="preserve">
<style type="text/css">
	.st0{fill:#808080;}
</style>
<path class="st0" d="M29.6,17.4c0,0-3.2,2.5-4.6,5.6c0,0-0.1-0.6-0.4-0.8c0,0,0.4-0.7-0.4-1c0,0-0.1-0.1,0-0.2c0,0,0,0-0.1,0
	c0,0,0,0-0.1-0.1l0.6-0.9l0.7-1l1-1.3l0.8-1l0.5-0.7l0.5-0.7l0.5-0.8l0.3-0.7l0.3-0.7c0,0,0.3-1,0.3-1.1c0-0.1-0.1,0.1-0.1,0.1
	l-0.3,1l-0.4,1.1L28.3,15l-0.5,0.7l-0.5,0.7l-0.5,0.7l-0.5,0.6L26,18.2L25.4,19L25,19.6l-0.4,0.6L24.1,21c-0.1-0.1-0.2-0.1-0.4-0.1
	c0,0-0.1-0.1-0.2,0.1c0,0-0.4-0.1-0.6,0l-0.3-0.3l-0.5-0.7l-0.4-0.8l-0.6-1.5l-0.8-1.7L19,13.6l-0.3-0.4l-0.6-0.6
	c0,0-0.3-0.2-0.5-0.4S17.4,12,17.4,12c-0.1,0-0.1,0.1-0.1,0.1l0.1,0.1l0.5,0.4l0.6,0.6l0.5,0.6l0.4,0.6l0.4,0.6l0.4,0.6l0.3,0.6
	l0.3,0.7l0.3,0.7l0.4,0.8l0.3,0.6l0.3,0.6l0.1,0.3l0.3,0.5l0.2,0.3l0.3,0.3c-0.1,0.1-0.2,0.3-0.1,0.7c0,0-0.2,0.1,0,0.1
	c0,0,0,0.1-0.1,0c0,0,0,0.2,0.2,0.1c0,0,0.2,0.2-0.1,0.2c0,0-0.3,0-0.1,0.5c0,0,0,0.4-0.2,0.3c0,0-2.6-8.2-15.4-12.2
	c0,0-5.7-1.8-7,0.4c-0.2,0.3-0.2,0.7-0.1,1c0.8,2,4.2,11.9,10.8,13.7c0.5,0.1,1,0.2,1.5,0.1c0.6-0.1,1.3-0.1,1.2-0.1
	c0,0-4.4,3.8-3.2,4.4c0,0-0.2,1.4,1.1,2.2c0,0,0,1.4,1.2,1.7c0,0,2.8,5.8,7.1,1.3c0.4-0.4,0.6-0.8,0.7-1.3c0.5-2.2,1.9-8.4,2.2-6.7
	c0,0-1.4,7.9-0.1,9.2c0.1,0.1,0.2,0.1,0.3,0.1c0.4,0,1.2-0.1,1.4-1.5c0,0,0.4-6.6,0.7-7c0,0,0.9,9.7,6.7,9.4c0,0,4.8-2.5,5.5-6.9
	c0-0.3,0-0.5-0.1-0.7c-0.5-0.9-2.1-3.3-3.5-4c0,0-0.1-0.1,0.2-0.1c0,0,3.1,0.2,4.5-0.1c0.3-0.1,0.6-0.2,0.8-0.4
	c1.2-1.2,7.1-6.9,9.1-13.3C48,12.2,42.8,7,29.6,17.4z"/>
</svg>
