<?xml version="1.0" encoding="utf-8"?>
<!-- Generator: Adobe Illustrator 19.1.0, SVG Export Plug-In . SVG Version: 6.00 Build 0)  -->
<svg version="1.1" id="Layer_1" xmlns="http://www.w3.org/2000/svg" xmlns:xlink="http://www.w3.org/1999/xlink" x="0px" y="0px"
	 viewBox="0 0 48 48" style="enable-background:new 0 0 48 48;" xml:space="preserve">
<style type="text/css">
	.st0{fill:#808080;}
</style>
<path class="st0" d="M38.8,25C38.8,25,38.8,25,38.8,25c0.1-0.2,0.4-0.6,0-0.7c0,0-6.2-0.1-8.3,0c-0.4,0-0.8,0-1.2-0.2
	c-1.6-0.6-4.8-2.5-8.1-2.8c-0.5-0.1-0.8-0.5-1-1c-0.1-0.4-0.2-1.1-0.3-2c0,0-0.7-5.4-0.5-10c0,0-0.2-5.9-2.3-7.3c0,0-1-1.1-4.1-1.1
	c0,0-0.7,0-1.2,1c0,0-0.1,0.2-2.1,0.8c-0.1,0-0.1,0-0.2,0C9.3,1.9,8,2.2,8.1,2.9l0.4,0c0,0,0.3,0.2,1,0.3c0.2,0,0.5,0.1,0.7,0.2
	c0.3,0.1,0.7,0.3,1,0.5c0.2,0.2,0.5,0.3,0.8,0.4c0.7,0.3,2,0.8,2.3,0.9c0.3,0.1,0.5,0.4,0.6,0.7c0.4,1,1.1,3.7,0.2,9.3
	c0,0.2-0.1,0.4-0.1,0.7c-0.3,1.1-1.5,4.7-3,8.6c0,0-2,3.8,2.3,7.7c0.3,0.3,0.6,0.7,0.9,1c0.6,1,1.9,3,3.2,4c0.2,0.2,0.4,0.3,0.5,0.6
	c0.4,0.6,1.5,2,2.9,2.3c0,0,0.9,0.7-0.2,3.7c0,0-0.8,1.8-1.6,2c0,0-1.1-0.1-1.4,0c0,0-0.6,0-0.3,0.2c0,0-0.3,0.2-1,0.3
	c-0.1,0-0.1,0-0.2,0c-0.3,0.1-1.1,0.3-1.3,0.5c0,0-0.5,0.2-0.5,0.4c0,0,0.5-0.1,0.6,0l1.2-0.1c0.1,0,0.1,0,0.1,0.1
	c0,0.2,0,0.4,0.3,0.5c0,0-0.4,0.2-0.4,0.4c0,0,0.7-0.2,1-0.2c0.1,0,0.1,0,0.2,0c0.3-0.1,1.2-0.4,1.7-0.5c0.1,0,0.2,0,0.2-0.1
	c0.5-0.2,2.3-1,2.6-1.4c0,0,0.1-0.1,0.4,0c0,0,2.1,0.7,2.9,0.3l0.1,0.4c0,0,0.4-0.6,0.7-0.7c0,0,0,0,0.1,0c0.1,0,0.6-0.1,0.4-0.6
	c0,0-0.4-0.7-0.5-1.1c0,0-0.2-1.4,0.1-1.1c0,0,0.2,0.4,0.8,0.3c0,0,0.1-0.3-0.7-0.9c0,0,0,0-0.1-0.1c-0.1-0.2-0.8-1.1-0.9-1.7
	c0,0,0-0.1,0.1-0.1c0.3,0.1,1.8,0.1,5-3.2c0.1-0.1,0.2-0.2,0.2-0.3l2.8-4.2c0,0,0-0.1,0-0.1c-0.1-0.2-0.5-1.1,0.4-1.1
	c0.1,0,0.1,0,0.2,0c0.4-0.1,2-0.7,1.6-1.7c0-0.1,0-0.1,0.1-0.1c0.4,0,1.5-0.3,0.8-1.7c0-0.1,0-0.1,0-0.2c0.3-0.3,1.4-1.2,1.1-1.5
	c0,0-0.2-0.2,0-0.4c0,0,0.2-0.4,0.2-0.6c0,0,0-0.1,0.1-0.1l1.1,0.1C39.9,25.4,39.6,25.1,38.8,25z M15.1,1.7c0,0-0.3-0.2-0.3-0.2
	c0,0,0.5-0.6,0.8-0.1C15.6,1.4,15.7,1.8,15.1,1.7z M23.3,44.2c-0.6-1.1,0.7-3.9,0.7-3.9c0.6,0.5,0.8-0.1,0.8-0.1
	c-0.1,0.1,0.2,3,0.2,3C24.9,43.5,23.3,44.2,23.3,44.2z"/>
</svg>
