<?xml version="1.0" encoding="utf-8"?>
<!-- Generator: Adobe Illustrator 19.1.0, SVG Export Plug-In . SVG Version: 6.00 Build 0)  -->
<svg version="1.1" id="Layer_1" xmlns="http://www.w3.org/2000/svg" xmlns:xlink="http://www.w3.org/1999/xlink" x="0px" y="0px"
	 viewBox="0 0 48 48" style="enable-background:new 0 0 48 48;" xml:space="preserve">
<style type="text/css">
	.st0{fill:#808080;}
</style>
<path class="st0" d="M46.8,21.8c0,0-1.8-3.7-10-4.4c-0.3,0-0.6-0.2-0.9-0.4c-0.9-0.8-3.1-3.1-2.1-3.8c0,0,0.1-0.1,0.1-0.1
	c0.2-0.3,0.9-1,1.5-0.9c0,0,0.1-0.9-2.1,0.3c0,0-0.8-0.8-1.1-0.7c0,0-0.2-2.7-1-2.3c0,0,0.6,2,0.1,2.3c0,0-2.1-1.4-2.2-0.5
	c0,0,1,0,1.7,0.9l-0.2,0.3c0,0-1.6-0.2-1.4,0.7c0,0,0.9-0.4,1.2-0.1l0,0.3c0,0-0.6,0.4-0.2,1c0,0,0.5-0.5,0.6-0.4l0.5,1.2
	c0.1,0.1,0,0.3-0.2,0.3c-1-0.1-4.1-0.2-5.3-0.2c-0.4,0-0.8,0-1.2-0.1c-1.4-0.2-4.3-1-7.8-3.6c-0.3-0.2-0.3-0.5-0.2-0.8
	c0.3-0.5,0.6-1.4,0.4-1.6c0,0-0.2-0.5-0.8-0.5c0,0-1.4,0.2-2,0.4c-0.2,0.1-0.5,0-0.7-0.1c-1.1-1-4.7-3.9-6-3.4L5.3,6.5
	c0,0-2-1.2-2.4,1.3c0,0-3,1.4-2.9,1.8c0,0-0.6,1.6,2.2,2.6l2.9,1.1c0.3,0.1,0.6,0.3,0.9,0.5c0.2,0.1,0.4,0.2,0.6,0.2c0,0,0,0,0,0
	c0.2,0,0.5,0,0.7,0c0,0,4.6,0.2,4.5,1.2c0,0,0.7,1.7-3.9,6.3c0,0-0.1,0-0.1,0c0-0.3-0.1-0.9-0.1-1.3c0,0-0.4-0.7-0.6,0.2l0.1,1.1
	c0,0.1,0,0.1-0.1,0.1c-0.2,0-0.7,0-1.6-0.9c0,0-0.1,0.9,1.2,1.5c0,0,0.2,0.3-0.1,0.4c0,0-0.7,0.4-1.9,0.6c0,0,0.5,0.7,2.2-0.1
	c0.1,0,0.1,0,0.2,0.1c0,0.1,0,0.2-0.1,0.3c0,0-0.6,1,0,1.3c0,0,0-0.9,1.5-1.8c0,0,2.7-1.5,3-3.2c0,0,0-0.1,0-0.1
	c0.2-0.3,1.3-2.5,2.3-2.1c0.1,0,0.1,0.1,0.2,0.1c0.8,0.7,9.2,8.5,16.9,4.7c0.1-0.1,0.2,0.1,0.2,0.2c-0.1,0.3-0.3,0.7-0.5,1.1
	c-0.2,0.4-0.4,0.9-0.5,1.3c0,0.1,0,0.2,0,0.3c0,0-0.8,3.4-0.9,4.1c0,0.1,0,0.2-0.1,0.3c-0.2,0.3-0.6,0.6-1.4-0.2
	c0,0-0.6-0.1-0.2,0.4c0,0,0.9,0.9,0.6,1c0,0-1.1,0.5-1.8,0.1c0,0,0.1,1,1.8,0.7c0,0,0.1,0.9-1.7,1.4c0,0,0.8,0.8,2.1-0.7
	c0,0,0.4,1.7-0.1,2.7c0,0,0.9,0.2,0.8-2.3c0-0.1,0-0.2,0.1-0.3c0.2-0.3,0.9-1.1,1.5-0.6c0,0,0.3,0.5,1.1,0l1,0.1
	c0,0-0.5-0.7-1.5-0.5c0,0-0.6-0.1-0.4-0.7c0-0.1,0-0.1,0-0.2c0-0.4,0.1-1.8,0.6-2.3c0,0,0,0,0-0.1c0.1-0.2,0.5-0.9,0.2-2.1
	c-0.1-0.3,0-0.6,0.2-0.8c0.9-1,3.3-3.7,4-3.7c0.8,0,10.1,1.5,6.7,7.6c-0.1,0.3-0.3,0.5-0.6,0.7c-1.3,1.3-6.1,6.6-3,12.3
	c0,0-0.6-5.8,2.6-8.4c0.2-0.1,0.3-0.2,0.5-0.3C43.7,32.9,50.8,28.6,46.8,21.8z M3.8,11.2c0,0,1.3,0.5,1.9,0.2
	C5.7,11.4,4.9,13.1,3.8,11.2z"/>
</svg>
