<?xml version="1.0" encoding="utf-8"?>
<!-- Generator: Adobe Illustrator 19.1.0, SVG Export Plug-In . SVG Version: 6.00 Build 0)  -->
<svg version="1.1" id="Layer_1" xmlns="http://www.w3.org/2000/svg" xmlns:xlink="http://www.w3.org/1999/xlink" x="0px" y="0px"
	 viewBox="0 0 48 48" style="enable-background:new 0 0 48 48;" xml:space="preserve">
<style type="text/css">
	.st0{fill:#808080;}
</style>
<path class="st0" d="M47.7,22.5c0,0-1.2-3.1-2.1-3.6c0,0-1.2-2.4-1-3c0,0-0.8-0.1-0.3,1.8c0,0,0,1.5,0.5,2.4c0,0,0.5,1,0.6,1.7
	l0,0.1c0.2,0.7-0.2,1.5-0.9,1.8c-2,0.8-6.2,2-11,0.2c0,0-0.2-0.8,0.5-1.1c0,0,1.4-0.2,1.8-0.7l0.7-0.6c0,0-0.4-0.3-1.1,0.4
	c0,0-1.5,0.5-1.7,0.1c0,0,1-1.1,0.4-1.6c0,0-0.6,1.8-0.9,1.2c0,0-0.8-8.2-4.2-1.5c0,0-1-10.4-14.7-7.8c0,0,1.2-4.2-3.5,0.5
	c0,0-0.8,0.1-0.1-1c0,0-0.2-0.5-0.5,0c0,0-0.3,0.3-0.3,1c0,0.1-0.1,0.3-0.3,0.2c-0.1,0-0.2,0-0.3-0.1c0,0-2.4-1.1-2.3-0.3
	c0,0,0.3,0.5,0.7,0.3c0,0,0.1,0,0.1,0C7.8,12.9,8,13,7.9,13c0,0,0,0,0,0s-1.4,0.2-2.3,0.2c0,0-1.9-0.1-3.3,2.3L2,16
	c0,0-0.8,0.6-0.7,1.6c0,0-0.8,2.6-1.2,3.3c0,0-0.4,1.8,0.7,2.2c0,0,2.8,0,4.8-0.6c0,0,0,0,0.1,0c0.3,0,2.9-0.5,3.8-1.6
	c0.1-0.1,0.1-0.1,0.2-0.2c0.3-0.1,0.9-0.5,1.2-0.8c0.2-0.2,0.6-0.2,0.8-0.1c0.4,0.2,1,0.7,1.4,1.2c0,0,0.4,0.5,0.8,0.7
	c0.1,0.1,0.2,0.2,0.1,0.4l-1.9,3c0,0-0.5,0.3-0.4-0.6c0,0-0.1-0.5-0.5,0c0,0-0.2,0.2-0.2,0.7c0,0.1-0.1,0.2-0.1,0.2
	c-0.2,0.1-0.5,0.1-0.8-0.4c0,0-0.2-0.6-0.6-0.3c0,0-0.3,0.4,0.5,1c0,0,0,0,0.1,0c0.1,0.1,0.7,0.4,0.6,0.4c0,0-0.7,0.5-1.5,0.3
	c0,0-0.8-0.1-0.7,0.3c0,0,0.3,0.3,1.6,0.2c0,0,0.8-0.2,1.1-0.1c0.1,0,0.1,0.1,0.1,0.1c-0.1,0.1-0.3,0.6-0.7,1.1c0,0-0.2,0.4,0,0.5
	c0,0,0.4,0.1,0.7-0.5c0,0,0.4-0.6,0.7-0.8c0.1,0,0.2,0,0.2,0.1c0.1,0.2,0.2,0.6,0.6,0.8l0.6,0.3c-0.1-0.1-0.3-0.4-0.3-0.9
	c0,0-0.2-0.6,0.1-0.9c0.3-0.3,3.2-3.5,3.2-4.4c0,0,0.5-0.8-1.1-2.4c0,0,1.3-0.4,3.5,0.4c0.8,0.3,1.5,0.8,2,1.4
	c0.7,0.9,2.1,2.3,3.7,2.9c0,0,0.1,0.1,0,0.1l-2.3,2.1c0,0-0.9,1.2,0.5,2.2c0,0,2.4,2.1,2.9,2.7c0.1,0.1,0,0.2-0.1,0.2
	c-0.2,0-0.6-0.1-1-0.4c0,0-0.3-0.3-0.7,0.2c0,0-0.3,0.2,0.3,0.5l0.4,0.3c0.1,0,0.1,0.1,0,0.2c-0.2,0.1-0.4,0.3-0.9,0.1
	c0,0-0.5-0.3-0.7-0.2c0,0-0.6,0.2-0.3,0.5c0,0,0.6,0.6,1.3,0.4l0.3,0c0.1,0,0.2,0.1,0.2,0.2c-0.1,0.4-0.4,1-0.8,1.1
	c0,0-0.8,0.2-0.8,0.8c0,0,0.1,0.2,0.3,0c0,0,1-0.3,1.3-0.7c0,0,0.3-0.7,0.4-0.3c0,0,0.1,0.5,0.2,0.9c0,0.2,0.1,0.4,0,0.6
	c-0.1,0.4-0.2,1.2,0.2,1.3c0,0,0.5-1.2,0.4-1.7c0,0-0.4-1.4,0.6-1.6c0,0,0.4-0.3,0.8,0c0,0,0.7,0.7,1.2,0.5c0.1,0,0.2,0,0.3,0
	c0.3,0,1,0.1,1.2,0.5c0,0,0.4-0.6-0.4-1c0,0-0.5-0.3-1-0.2c-0.2,0-0.4-0.1-0.5-0.3c-0.1-0.2-0.1-0.5,0-0.9c0,0,0.2-2.3-2.7-4.2
	c0,0,2.4-1.6,2.6-1.1c0,0,0.9,1.7,2.2,0.9c0,0,4.6,3.9,13.7,0.7C44.1,28.9,49.2,26.3,47.7,22.5z M4.4,20.5c0,0,0.3-0.2,0.6-0.3
	c0,0,1.3-0.4,1.4-0.5C6.4,19.7,6,21.4,4.4,20.5z"/>
</svg>
