<?xml version="1.0" encoding="utf-8"?>
<!-- Generator: Adobe Illustrator 19.1.0, SVG Export Plug-In . SVG Version: 6.00 Build 0)  -->
<svg version="1.1" id="Layer_1" xmlns="http://www.w3.org/2000/svg" xmlns:xlink="http://www.w3.org/1999/xlink" x="0px" y="0px"
	 viewBox="0 0 48 48" style="enable-background:new 0 0 48 48;" xml:space="preserve">
<style type="text/css">
	.st0{fill:#808080;}
</style>
<path class="st0" d="M47.9,39.1c0,0-6-1.6-10.9-1c0,0-4.1,0.8-5.4-2.5c0,0-1.4-2.9-2.1-7.8c0-0.2,0-0.3,0-0.5
	c-0.1-1.1-0.6-6.9-6.9-9.3c0,0-6.1-2.1-11-2c-0.1,0-0.2,0-0.3-0.1l-1.6-1c-0.3-0.2-0.5-0.5-0.5-0.9C9.2,13,9.3,10.7,9,9.3
	c0-0.1,0-0.2-0.1-0.3c0-0.1-0.1-0.4,0.1-0.6C9.1,8.2,9.2,8,9.2,7.9c0.3-0.8,1-2.8,0.2-4.2C9.3,3.4,9,3.2,8.6,3.3
	C8.1,3.4,7.4,3.7,7,5c0,0,0,0.1,0,0.1c0,0.1-0.1,0.4-0.2,1.5c0,0-0.1,0.4-0.4,0.8C6.2,7.6,5.8,7.6,5.5,7.4c-1-0.7-4.1-2.9-5.1-3.2
	c0,0-0.7-0.2-0.1,0.6l1.8,3c0,0,0.3,0.6,1.2,0.8l0.2,0.1c0.1,0.1,0.1,0.2,0,0.2c-0.2,0.3-0.6,1-0.6,1.4c0,0,0,0,0,0l0.2-0.1
	c0,0,0.1,0,0.1,0.1c0,0.2,0.1,0.6,0,1.1c0,0-0.2,1.5,0.6,2.7c0.1,0.1,0.2,0.2,0.3,0.3c0.1,0.1,0.4,0.4,0.4,1.2
	c0,0.4-0.1,0.8-0.2,1.2c-0.2,0.6-0.5,2,0.3,4.1c0,0,0.8,2.6,0.8,3.8l-0.2,3.6c0,0-0.1,2.2,0,2.4c0,0-0.1,1.9,1.1,1.6
	c0,0,0.3,0.2,0.4,0.1c0,0-0.4-0.2-0.3-0.4c0,0,0-0.2-0.2-0.3c0,0-0.1-0.1,0.2,0c0,0,0.1,0.2,0.4,0.3c0,0-0.1-0.1-0.1-0.2
	c0,0,0.6,0.1,0.6-0.1c0,0,0-0.1,0.1,0c0,0-0.1-0.2-0.2-0.1c0,0-0.3,0-0.2-0.2l-0.3-0.4c0,0,0.7,0.2,0.9-0.1c0,0-0.4,0.1-0.3-0.1
	c0,0,0-0.2-0.2-0.2c0,0,0.1-0.6-0.2-0.9c0,0-0.9-1-0.3-3.4c0-0.1,0.1-0.2,0.1-0.3c0.2-0.5,0.7-2.1,0.9-2.9c0-0.1,0.2-0.2,0.3-0.1
	c0.5,0.4,1.7,1.6,2.1,2.5c0,0.1,0.1,0.1,0.1,0.2c0.1,0.1,0.1,0.4-0.3,1.7l-1.1,2.4C8,30.2,8,30.6,8,31l0,0.1c0,0-0.3,0.4-0.2,0.7
	c0,0-0.3,0.5,0.1,0.5c0,0-0.3,1,0.1,0.7c0,0-0.2,0.9,0.3,0.7c0,0,0.3,0.1,0.3-0.9c0,0,0.1,0.8,0.1,0.8c0,0,0.7,0.1,0.5-0.9
	c0,0,0.1-0.1,0.2,0.1c0,0,0.4,0.6,0.4-0.2c0,0-0.1-0.7,0.1-0.8c0,0-0.2-0.6-0.4-0.7c0,0,0.3-2.3,0.8-3.3c0.1-0.2,0.3-0.3,0.5-0.3
	c0.5,0,1.7,0,2.9,1.1c0.1,0.1,0.3,0.3,0.3,0.5c0.2,0.6,0.7,2.2,1.3,2.7c0,0,0.1,0.1,0.1,0.1c0.2,0.7,1.3,5.4,1.1,7.4
	c0,0.5-0.4,0.9-0.9,0.9c-1.4,0.1-5.3,0.3-6.7,0.9c0,0-0.9,0.2-1.5,0.2c0,0-0.6-0.2-1,0.5c0,0-0.7,0.4-0.5,0.7c0,0,0.5-0.4,0.6-0.4
	l-0.4,0.5c0,0,0.4,0,0.6-0.4c0,0,0,0.4,0.3,0.5c0,0-0.1-0.2-0.1-0.5l0.2,0.4l7.6-0.5c-0.1,0-3.5,0.8-3.6,0.9l-1.1,0
	c0,0,0.5,0.3,0.4,0.4c0,0-0.9,0.2-1,0.3c0,0-1.8,0-1.7,0.8L8,44.2c0,0,0.2,0.7,2.6,0.2c0,0-0.4,0.2-0.4,0.4l0.8-0.4
	c0,0,1.1,0.5,2.8,0c1.7-0.5,4.9-0.7,4.9-0.7s3.4-0.1,3.2-1.8c-0.2-1.7-0.3-7.2-0.3-7.2s0.1-3.6,1.5-2.4c0,0,0.7,1.1,0.8,1.6
	c0,0,1.5,0.2,2.3-1.4c0-0.1,0.2-0.1,0.2,0c0.5,1.3,2.7,6.9,7.4,7.9c0,0,1.9,0.4,6.4-0.4c0,0,6.8-0.5,7.3-0.3
	C47.5,39.6,48.3,39.4,47.9,39.1z M7.4,11c0,0-0.5-0.1-0.6-0.4c0,0,0.6-1,1.2-0.3C8.1,10.4,8,11,7.4,11z"/>
</svg>
