<?xml version="1.0" encoding="utf-8"?>
<!-- Generator: Adobe Illustrator 19.1.0, SVG Export Plug-In . SVG Version: 6.00 Build 0)  -->
<svg version="1.1" id="Layer_1" xmlns="http://www.w3.org/2000/svg" xmlns:xlink="http://www.w3.org/1999/xlink" x="0px" y="0px"
	 viewBox="0 0 48 48" style="enable-background:new 0 0 48 48;" xml:space="preserve">
<style type="text/css">
	.st0{fill:#808080;}
</style>
<path class="st0" d="M46.5,34.3c0-0.4-0.1-0.8-0.3-1.1c-1-1.2-3.5-4.3-3-5.2l1.9-4.8c0-0.1,0.2-0.1,0.2,0l0,1c0,0,3-2.6-0.5-5.2
	c-0.1-0.1-0.2-0.1-0.3-0.2c-0.8-0.6-4.2-3.4-6.5-3.1c-0.1,0-0.1,0-0.2,0c-0.9,0-7.1,0.3-9.1,0.8c-0.4,0.1-0.9,0.2-1.3,0.2
	c-1.5,0-4.6,0.1-5.2-0.2c0,0-1.6-0.2-2.9,0.6c0,0-4.4,2.2-7.5-3.2c-0.1-0.1-0.1-0.3,0-0.4c0.2-0.2,0.5-0.7,0.4-1
	c0,0,2.5-1.2,0.6-3.9c-0.1-0.1-0.2-0.1-0.2,0c-0.4,0.4-1.6,1.6-1.6,1.9c0,0-0.2,0.9-0.5,1L11.3,9l0.8-2.5c0.1-0.2,0.1-0.5,0.2-0.7
	c0.2-1,0.7-3.6,0.3-4.7c0-0.1,0-0.1,0-0.2c0.1-0.3,0.2-0.9-0.7-0.6c0,0-1.2-0.9-0.9,0.5c0,0,2.1,1.7-1.3,9.2c0,0.1-0.1,0.1-0.2,0.1
	c-0.2,0-0.8,0.2-0.7,1c0,0.1-0.1,0.2-0.2,0.2c-0.5,0-1.6-0.2-1.7-0.6c0,0,0.1-0.2-0.4-0.3C6,10.3,3.2,4.6,6.2,2c0,0,0.1-1.3-1-0.4
	C5,1.7,4.8,2,4.7,2.2c-0.5,0.9-1.5,3.7,0.5,8c0,0.1,0,0.2-0.1,0.2L3,10.1C2.8,10,2.6,10,2.4,9.9C2,9.7,1.2,9.4,1.5,9.8
	c0,0,2,1.2,2.6,1.6c0.1,0,0.1,0.1,0.2,0.1c0.3,0.2,1.4,0.7,1.8,0.9c0.1,0,0.2,0.1,0.2,0.2c0.1,0.2,0.1,0.7-0.4,1
	c-0.1,0-0.1,0.1-0.2,0.2C5.7,14,5.6,14.6,6,15.7c0.2,0.4,0.2,0.9,0.1,1.3c-0.1,0.4-0.2,0.9-0.6,1.4c-0.1,0.2-0.2,0.4-0.2,0.7
	c0,0.5,0.2,1.2,1.4,1.5c0,0,1.1,0.2,1.5-0.8c0-0.1,0.1-0.2,0.2-0.2l0.4-0.2c0.1-0.1,0.2,0,0.3,0.1c0.3,0.8,1.9,4.2,7.5,7.2
	c0.2,0.1,0.3,0.2,0.4,0.4c0.2,0.5,0.7,1.6,1.2,2.1c0.1,0.1,0.2,0.2,0.2,0.4c0,0.6-0.2,2.3-1.5,5.1c0,0.1-0.1,0.2-0.1,0.3
	c0,0.7-0.2,3.3-2.1,6.2l-1.4,2.7c0,0.1-0.1,0.1-0.1,0.1c-0.3,0.2-1.7,1-1.3,1.2c0.5,0.1,2.6,0.6,2.7-0.5c0,0,0.3-1,0.9-0.6
	c0.3,0.2,0.2-0.6,0.2-0.6v0c0,0,1.4-4.6,2.6-7.1l3-6.1c0-0.1,0.1-0.1,0.2-0.2c0.1,0,0.2,0,0.3,0c0.1,0,0.1,0.1,0.1,0.2
	c0,0.3-0.2,1.7-0.4,2.7c0,0,0,0.1,0,0.1c-0.1,0.3-0.6,2-0.1,3.2c0,0-0.2,4.2-1.5,7.2c0,0-0.2,1-1.9,2.1c0,0,0.1,0.2,0.4,0.3
	c0,0,2.8,0.8,2.6-1.2c0,0,0.4-1.1,0.6-0.1c0,0,0.5,0.1,0.3-1.1c-0.2-1.2,1.1-7.3,1.1-7.3l1.8-5.5c0.2-0.6,0.7-1.1,1.3-1.3
	c0.9-0.2,2.2-0.5,3.2-0.2c0,0,4.5,0,5.9-0.9c0.1-0.1,0.3-0.1,0.4,0.1c0.9,0.9,4.2,4.3,4.7,4.9c0,0,3.2,2.2,1,7.5l-1,3
	c0,0.1-0.1,0.2-0.2,0.3l-0.6,0.7c-0.2,0.2-0.5,0.4-0.8,0.5c-0.5,0.2-1.3,0.6-0.5,0.7c0,0,2.2,0.2,2.4-0.1c0,0,0.5-0.9,0.9-0.8
	c0,0,0.8,0.2,0.5-1.2c0,0,1.4-6,2-7.2c0-0.1,0.2-0.1,0.2,0c0.1,0.3,0.4,1.1,0.5,2.4c0,0-0.2,5.7-1.1,7.2c0,0-0.1,0.1-0.1,0.1
	c-0.2,0.3-1.4,1.6-1.2,1.6c0,0,2,0.4,2.6-0.8c0,0,0.7-1.4,1.2-1.1c0,0,0.3-0.3-0.2-1C45.6,44.4,46.3,36.6,46.5,34.3z M9.6,14.8
	c0,0-0.2,0-0.4,0.2c0,0,0.3-1.3,1-0.9C10.3,14.1,10.5,14.7,9.6,14.8z"/>
</svg>
