<?xml version="1.0" encoding="utf-8"?>
<!-- Generator: Adobe Illustrator 19.1.0, SVG Export Plug-In . SVG Version: 6.00 Build 0)  -->
<svg version="1.1" id="Layer_1" xmlns="http://www.w3.org/2000/svg" xmlns:xlink="http://www.w3.org/1999/xlink" x="0px" y="0px"
	 viewBox="0 0 48 48" style="enable-background:new 0 0 48 48;" xml:space="preserve">
<style type="text/css">
	.st0{fill:#808080;}
</style>
<path class="st0" d="M29.6,25.6c0,0,1.6,0.1,2.2,0.3c0,0,0.3,0,0.2-0.5c0,0,2,1.5,1.2,0.4c0,0,0.5-0.4-1.2-2l-2.7-1.8
	c-0.9-0.6-1.6-1.3-2.2-2.2c-1.4-2-5.2-6.1-13.4-10.1c0,0-2.8-2.3-3.7-3.8c0,0-2.1-3.8-5.8-4.1c0,0-4-0.3-3.8,2.4c0,0,0,0.1,0,0.1
	C0.2,4.7-0.5,7.1,0.7,7.9c0,0,0.1,0,0.1,0c0,0,0.1,0,0.1,0c0.2,0.2,0.7,0.8,0.9,2.2c0,0,0.2,2.8,1.4,5.7c0.1,0.1,0.1,0.3,0.1,0.4
	c0,1,0.5,5.1,5.2,5.6c0,0,3.2,2,5.5,2.1c0,0,0.5,0,0.4,0.4c0,0-2.8-0.1-2.9,0.7c0,0-1.4,1.5-1,2.3c0,0.1,0,0.1,0.1,0.1
	c0,0.1,0.1,0.3,0.1,0.4c0.1,0.5,0.4,0.9,0.7,1.2c0.4,0.3,0.9,0.5,1.4,0.1c0,0-1.2,0-1.1-0.5c0,0,0.5-0.4-0.2-0.7l0.2-0.1
	c0,0-0.4-0.2-0.4-0.4c0,0,0.2-1.9,1.2-1.9c0,0-1.2,0.9-0.5,2.1c0,0-0.2,0.5,0.4,0.9c0,0,0.8,1.1,1.7,0.3c0,0-1.2,0.1-1.2-0.3
	c0,0,0.5-0.3,0-0.7c-0.1,0-0.1-0.1-0.1-0.2c0-0.4,0-2,1.4-2.4c0.1,0,0.1,0,0.2,0c0.5,0,2.8,0,3.2-0.4c0.1-0.1,0.2-0.1,0.3-0.1
	c0.8,0.1,3.9,0.8,6.7,3.8c3.3,3.4,10,9.5,10.4,9.1c0.4-0.4,0.1,0,0.1,0s6.4,4.6,6.9,5c0,0,1.9,2,2.1,1.2c0,0,1.5,1.9,1.8,1.5
	c0,0,0.3,0.4,0.4,0.4c0,0-1.1-1.4-0.9-1.5c0,0,1.9,2.2,2,1.5c0,0-4-3.7-4-3.8c0,0-0.1-0.5,1.8,1.4c0,0,1.8,1.5,1.8,0.7
	c0,0,0.7,0.7,0.9,0.4C48.2,44.5,29.3,26.3,29.6,25.6z M5.1,4.9c-0.3,0-0.6-0.3-0.6-0.6c0-0.3,0.3-0.6,0.6-0.6S5.7,4,5.7,4.3
	C5.7,4.6,5.5,4.9,5.1,4.9z"/>
</svg>
