<?xml version="1.0" encoding="utf-8"?>
<!-- Generator: Adobe Illustrator 19.1.0, SVG Export Plug-In . SVG Version: 6.00 Build 0)  -->
<svg version="1.1" id="Layer_1" xmlns="http://www.w3.org/2000/svg" xmlns:xlink="http://www.w3.org/1999/xlink" x="0px" y="0px"
	 viewBox="0 0 48 48" style="enable-background:new 0 0 48 48;" xml:space="preserve">
<style type="text/css">
	.st0{fill:#808080;}
</style>
<path class="st0" d="M48,8.6l-0.3,0c0,0,0,0,0,0c0-0.1,0-0.5,0.3-0.5c0,0-0.2-1.3-1.9-1.4c0,0-0.1,0-0.1,0c-0.2,0-1.1-0.1-1.6-0.4
	c0,0-0.5-0.2-0.8,0c-0.1,0-0.2,0.1-0.3,0.1c-0.2,0-0.6,0.1-0.9-0.1c0,0-0.7-0.4-1.3,0.2c0,0-0.5,0.3-1.2,0.3c0,0-0.1,0-0.1,0
	c-0.5,0-5.6,0.5-3.7,7.3c0,0,0.6,1.6-0.8,1.5c-0.1,0-0.2,0-0.3,0c-0.5-0.1-3.2-0.3-6.9,2.6c-0.5,0.4-1.1,0.7-1.7,0.9
	c-1,0.3-2.7,1.1-4.6,3.1c-0.5,0.6-1.1,1.1-1.8,1.5c-1.7,1.1-4.9,3.4-6.4,6.3l-3.3,5.9C10,36,9.9,36.2,9.8,36.4
	c-0.2,0.7-1,2.4-2.7,3.4c0,0-3.6,2.3-6.7-1c0,0-0.7-0.1-0.3,0.6c0,0,3.1,4.7,8.6,1.2c0.2-0.1,0.4-0.3,0.6-0.5c1-1.3,5.5-6.9,8.5-9.4
	c0.8-0.7,1.8-1.1,2.8-1.2c1.1-0.1,2.5-0.2,3.3,0.5c0,0-0.8,0.8-0.6,1.9c0,0.2,0,0.5-0.2,0.6c-0.4,0.4-1,1.3,0.1,2
	c0,0,2.8,1.5,4.2-0.4c0,0,0.4-0.5,0.2-1.1c0,0-0.2-1.3,0.4-1.4c0,0,0.3-0.9-0.5-0.6c0,0-0.7,0.5-0.7,1.4c0,0-0.2-0.1-0.5,0
	c-0.2,0-0.4,0-0.5-0.2c-0.2-0.5-0.5-1.5,0.7-2.6c0,0,0.3-0.1,0.5,0c0,0,1.5,1.9,2.3-0.5c0.1-0.2,0.2-0.3,0.4-0.3l2-0.2
	c0.2,0,0.3,0.2,0.2,0.3c-0.3,0.6-0.8,1.7-0.8,3.1c0,0.2-0.1,0.3-0.1,0.5l-0.7,1.1c0,0-0.7,0.7,0.3,1.7c0,0,2.6,2.3,3.1,3
	c0.1,0.1,0.1,0.2,0.1,0.2c0,0.2,0.2,0.9,1.2,1.3c0,0,2.2,1,2.1,0c0,0,0.1,0.2,0.4,0.2c0,0-0.2-0.4-0.2-0.6c0,0,1,0.5,1.2-0.6
	c0,0,0.1-0.2,0.4,0.1c0,0,0.4-0.6-0.5-1.3c0,0-0.4-0.5-1.2-0.4c0,0-0.4-1.8,1-1.7c0,0-1.2-1.5-2.1,0.4c0,0-0.2,0.5-0.8,0.2
	c0,0-2.6-1.1-1.7-2.8l4-5.2c0,0,0.6-1.2-0.8-1.9c0,0,1.6-0.2,2.1-0.4c0.1,0,0.1,0,0.1,0.1c0,0.4,0.1,1.5,0,2.1c0,0,0,0,0,0.1
	C38.5,28,38,28.7,38.5,29c0,0,0,0.1,0,0.1l-0.4,1c0,0,0.3,0,0.7-0.1c0,0,0.1,0,0.1,0.1l0,0.9c0,0,0.9-0.3,0.9-1.3
	c0,0,0.5-3.3-0.3-4.3c0-0.1,0-0.1,0-0.2c0.4-0.2,1.8-0.8,1.9,0.2L41.3,27c0,0-0.7,0.8-0.3,1.4l-0.4,0.8c0,0,0.6,0.1,0.8-0.4
	c0,0,0.4,0,0.2,0.4L41,30.1c0,0,0.6,0.2,0.9-0.3l-0.1,0.7c0,0,0.5-0.1,0.6-0.8c0,0,0,0,0,0l0.1-2.8c0-0.2,0-0.5-0.1-0.7
	c-0.2-0.9-0.9-2.9-1.8-2.3c0,0-0.1,0-0.1,0c-0.5,0-3.6,0.1-3.4-1l0-1.6c0-0.1,0-0.1,0.1-0.2c0.3-0.2,1.1-0.9,0.9-2
	c0-0.1,0-0.2,0.1-0.3c0.3-0.3,1.1-1.5,2.2-5c0-0.1,0.1-0.2,0.2-0.3c0.3-0.4,1.3-1.6,3-2.1c0.1,0,0.2-0.1,0.2-0.1
	c0.4-0.2,2.1-0.9,2.7-0.9C46.6,10.2,48.3,10.2,48,8.6z M41.5,8.5c-0.3,0-0.5-0.2-0.5-0.4s0.2-0.4,0.5-0.4C41.7,7.8,42,8,42,8.2
	S41.7,8.5,41.5,8.5z"/>
</svg>
