<?xml version="1.0" encoding="utf-8"?>
<!-- Generator: Adobe Illustrator 19.1.0, SVG Export Plug-In . SVG Version: 6.00 Build 0)  -->
<svg version="1.1" id="Layer_1" xmlns="http://www.w3.org/2000/svg" xmlns:xlink="http://www.w3.org/1999/xlink" x="0px" y="0px"
	 viewBox="0 0 48 48" style="enable-background:new 0 0 48 48;" xml:space="preserve">
<style type="text/css">
	.st0{fill:#808080;}
</style>
<path class="st0" d="M47.9,9.9c-0.1-0.1-0.2-0.2-0.3-0.2c-0.3-0.1-1.1-0.1-2.5,0.6c0,0-2.1,0.9-5.2,3.3l-3.5,2.4c0,0-6,4.2-12.6,2.8
	c-0.6-0.1-1.1-0.3-1.7-0.6c-0.9-0.5-2.8-1.3-5-1.2c0,0-1.5,0.2-2.1-0.3c0,0-2-1.3-7.1,0.5c-0.2,0.1-0.3,0.1-0.5,0.1
	c-0.3,0-0.7-0.1-0.8-0.6c0,0-0.6-1.5-1.8-2.4c0,0-1.4-1.1-1.9-0.6c0,0-0.8,0.6-1,1.1c0,0,0,0.1-0.1,0.1c-0.2,0.1-1.2,0.4-1.3,1.2
	c0,0-0.2,1.2-0.2,2.1c0,0.1,0,0.2,0,0.2c-0.1,0.5-0.5,2.8,0.2,2.7H1L1,21c0,0,0,0,0,0l0.2,0l-0.1-0.2c0,0,0,0,0,0l0.1,0
	c0,0,0,0,0,0.1c0,0.2-0.1,1.1,0,1.5c0,0,0.5,0.6,1,0c0,0,1.8-2.7,1.9-3.2c0,0,0.2,0.1,0.2,0.7c0.1,0.4,0,0.9,0,1.3
	c-0.1,0.4-0.2,1.2-0.3,2.1c0,0.1,0,0.1,0,0.2c0,0.2-0.1,1-0.6,1.8c0,0-0.1,0.1-0.1,0.1c-0.2,0.3-0.9,1.4-1.3,0.6
	c0,0-0.3-0.8-0.8-0.6c0,0-0.5,0.4-0.2,0.5c0,0,0.6,0.7-0.2,1.1c0,0-0.8,0-0.8,0.8c0,0,0,1.5,0.8,1c0,0,0,0.8,0.1,0.9
	c0,0,0.7,0.8,0.8,0.1c0,0-0.3-1.1,0.5-1.9c0,0,0,0,0.1-0.1c0.1-0.1,0.5-0.5,0.9-0.6c0,0,1.5-0.8,1.6-2c0,0,0.5-1,0.8-0.9
	C6,24.3,6.4,25.2,10,25c0.1,0,0.2,0.1,0.2,0.2c0,0.4,0.1,1.2,0.7,2.3c0,0,0.4,0.8-1.9,1.3c0,0-0.1,0-0.2,0.2c0,0-1.1-0.1-1,0.6
	c0,0,1,0.2,1.5-0.1c0,0,1.7-0.4,1.4,0.6c0,0,0.1,0.7-0.8,1.6c0,0-0.6,0.4-0.4,0.8c0,0,0.4-0.3,0.7-0.2c0,0,0.7-0.6,0.9-0.9
	c0,0,0,0,0.1,0c0.1,0.1,0.3,0.3,0.8-0.2c0,0,0,0,0,0c0,0.4,0,2.7-1.8,3.7C10,34.9,9.9,35,9.7,35c-0.5,0-1.8,0.1-1.8,1.3v0.9
	c0,0,0.3,0,0.4-0.4c0,0,0.4-0.2,0.5,0.2c0,0,0.5,0.1,1.5-0.2c0,0,0.5,1,1.2-0.1c0,0,1.1-0.1,0.7-0.8c0-0.1-0.1-0.1-0.1-0.2
	c0-0.2,0-0.6,0.3,0c0,0,0.2,0.5,0.2-0.9c0-0.1,0-0.3,0-0.4c0.1-0.5,0.5-1.8,1.2-2.6c0.1-0.1,0.1-0.2,0.2-0.3
	c0.1-0.3,0.1-0.7-0.2-1.3c0,0-0.2-0.7,0.2-2c0,0,0.4-1.6-0.1-2.1c0.1,0,2.5,0.5,3.1,0.4c0.1,0,0.1,0,0.1,0.1
	c0.1,0.3,0.4,0.9,1.1,1.4c0,0,4,3,3.1,6.4c0,0,0,1.8-1.8,1.4c0,0-0.4,0-0.4,0.4c0,0-1.3-0.2-0.7,1.1c0,0,0.5-0.7,0.8-0.3
	c0,0-0.3,1.8,0.4,0.9c0,0,0.1,0,0.1,0c0.2,0.1,0.7,0.3,0.9,0c0,0,0,0,0.1,0l0.3,0c0.2,0,0.5,0,0.7,0.2c0.2,0.1,0.4,0.3,0.5,0.5
	c0,0,0.4,0,0.4-0.5c0,0,0-0.1,0.1-0.1c0.1-0.1,0.4-0.5,0.1-0.8c0-0.1-0.1-0.1-0.1-0.2c0-0.7,0.3-4.7,0.7-5.3c0,0,0.5-0.7-0.7-1.8
	c-0.1-0.1-0.2-0.2-0.2-0.3c-0.1-0.7-0.4-2.9-1.5-3.6c-0.1-0.1-0.1-0.2,0-0.3c0.3-0.3,1.1-0.8,2.9-1.2c0,0,5.7-1.1,7.7-2.7
	c0,0,4.4-3.2,5.8-4.4c0.3-0.2,0.5-0.5,0.8-0.7c1.8-1.5,7.2-5.8,8.7-6C46.9,10.4,48.5,10.4,47.9,9.9z M3.2,17C3.1,17,3,16.8,3,16.6
	c0-0.2,0.1-0.4,0.2-0.4c0.1,0,0.2,0.2,0.2,0.4C3.4,16.8,3.3,17,3.2,17z"/>
</svg>
