<?xml version="1.0" encoding="utf-8"?>
<!-- Generator: Adobe Illustrator 19.1.0, SVG Export Plug-In . SVG Version: 6.00 Build 0)  -->
<svg version="1.1" id="Layer_1" xmlns="http://www.w3.org/2000/svg" xmlns:xlink="http://www.w3.org/1999/xlink" x="0px" y="0px"
	 viewBox="0 0 48 48" style="enable-background:new 0 0 48 48;" xml:space="preserve">
<style type="text/css">
	.st0{fill:#808080;}
</style>
<path class="st0" d="M46.3,28.9c-2.8-5.2-9.8-9.9-11.8-11.1c-0.3-0.2-0.6-0.4-0.8-0.7c-2.1-2.1-5.4-3.6-5.4-3.6
	C27.3,13,26.6,13,26.3,13c-0.2,0-0.3,0-0.5,0c-0.5,0-1.1-0.1-1.4-0.2c-0.2,0-0.3-0.1-0.5-0.1c-0.6-0.2-2.5-0.6-3.3-0.8
	c-0.2,0-0.4-0.1-0.5-0.2c-1.6-0.6-3.4-0.5-3.4-0.5c-2,0.2-3.5-2.6-3.5-2.6C11.9,6.3,9.7,6.2,9,6.3c-0.2,0-0.3,0-0.5,0
	c-0.6-0.1-2-0.1-2-0.1C5.2,6.3,4.3,5.9,4.3,5.9c-1.5-0.7-2.1-0.1-3-0.1c-0.9,0-1.3,1.3-1.3,1.3c-0.1,0.4,0,0.6,0,0.7c0,0,0,0,0,0.1
	C0,8.1,0.1,8.1,0.2,8.2c0,0,0,0,0,0.1c-0.1,0.1,0,0.3,0,0.3l0.2-0.1C0.4,8.9,0.5,9,0.5,9c0-0.1,0.1-0.2,0.1-0.2c0,0.2,0,0.5,0,0.5
	c0.2,0.4,0.3-0.5,0.3-0.5c0.1,0.2,0.2,0,0.2,0C1.1,9.7,1.3,9.7,1.3,9.7c0-0.2,0.2-0.4,0.2-0.4c0,0.4,0.2,0.3,0.2,0.3
	c0.1-0.3,0.2-0.2,0.2-0.2c0.2,0.4,0.3,0.2,0.3,0.2C2.4,10,2.5,9.5,2.5,9.5c0,0.1,0.2,0.1,0.2,0.1c0-0.3,0.2-0.3,0.2-0.3
	c0,0.2,0.3,0.1,0.3,0.1c0,0.4,0.1,0.4,0.1,0.4c0.1-0.4,0.3-0.4,0.3-0.4c0.1,0.3,0.2,0.2,0.2,0.2c0-0.1,0.1-0.1,0.1-0.1L4,10.6
	c0,0.1,0,0.2,0,0.2C4.3,11.8,4,12.2,4,12.2c-0.1,0.3-0.2,0.9-0.2,0.9c0,0.1-0.1,0.1-0.2,0.1c0,0-0.1,0-0.1,0.1l-0.1,0.1
	c-0.4-0.1-1.3,0.2-1.3,0.2C1.9,13.3,2,13.7,2,13.7l-0.1,0c-0.1-0.2-0.3-0.3-0.3-0.3c-0.1,0.2,0,0.6,0,0.6c-0.1-0.1-0.3-0.6-0.3-0.6
	c-0.3,0.1-0.2,0.5-0.1,0.7c-0.1-0.3-0.3-0.3-0.3-0.3v0.4l-0.2-0.2c-0.4-0.1-0.1,0.9-0.1,0.9l-0.1,0.1c0.1,0.3,0.6,0.7,0.6,0.7
	C2,16.4,5,15.6,5.9,15.3c0.1,0,0.3-0.1,0.4-0.1c0.9,0,1.4-0.2,1.7-0.4c0.3-0.2,0.6-0.2,0.9-0.2c1.7,0.1,2.6,2,2.8,2.6
	c0,0.1,0.1,0.2,0,0.3c-0.2,1.2,0.5,2.1,0.5,2.1c-0.1,0.4-0.1,0.7-0.1,0.7c0.2,0.3,0,0.6,0,0.6c-0.3,0.2-0.5,0.6-0.5,0.6
	c-0.5-0.1-0.5,0.1-0.5,0.1C11.1,22,11.4,22,11.4,22c0.1,0.1-0.3,0.4-0.3,0.4c-0.2,0.3,0.1,0.8,0.1,0.8c0-0.3,0.2-0.3,0.2-0.3
	c0-0.2,0.1-0.2,0.1-0.2c0.1-0.1,0.5-0.5,0.5-0.5c0.1-0.2,0.3-0.3,0.3-0.3c0.4-0.2,0.6-0.4,0.8-0.7c0.2-0.3,0.6-0.4,0.9-0.3
	c1.1,0.5,3.1,1.6,3.1,1.6c1.1,0.5,1.7,1.2,2,1.7c0.1,0.2,0.2,0.4,0.1,0.6c-0.2,1.3,0.5,4.8,0.5,4.8c0.3,0.7,0.4,1.5,0.4,1.9
	c0,0.1,0,0.2,0,0.3c-0.2,0.5-0.5,2.5-0.5,2.5s-0.5,1.4-1.3,2.2c-0.7,0.8-2,0.5-2,0.5c-1.2-0.2-1.5,0.2-1.5,0.2
	c-1.2,0.2-1.4,0.8-1.4,0.8c-0.4,0.9,0.5,0.6,0.5,0.6c0.2-0.1,0.6-0.1,0.6-0.1c0.1,0,0.3,0,0.3,0c0.1-0.1,0.2,0,0.2,0
	c-0.2,0.8,0.8,0.5,1.1,0.4c0,0,0,0,0.1-0.1c0.2-0.1,1-0.2,1-0.2c0.2,0,0.6-0.1,0.8-0.2c0.2-0.1,0.4-0.1,0.6-0.1
	c0.6,0,1.5-0.2,1.5-0.2c0.2-0.1,0.3-1.4,0.3-1.4c0.5,0.9,0.6-0.2,0.7-0.9c0-0.4,0.2-0.8,0.4-1.1c0.9-1.3,0.9-2,0.8-2.2
	c0-0.1,0-0.1,0-0.2c0.1-0.9,1-2.6,1-2.6c0.6-0.8,0.5-2.6,0.4-3.2c0-0.1,0.1-0.2,0.2-0.1c0.4,0.1,1.2,0.2,1.5,0.3
	c0.1,0,0.1,0.1,0.2,0.1l1.1,2.6C27,30,27,30.8,27,31.2c0,0.1,0,0.2-0.1,0.3c-0.1,0.3,0,1.1,0,1.1c0.2,1-0.1,1.7-0.1,1.7
	c-0.5,1.3-2.1,1-2.1,1c-0.7-0.2-1.1,0.1-1.1,0.1c-0.5-0.1-0.9,0.5-0.9,0.5c-0.7,0.2-0.7,0.8-0.7,0.8c0.4,0.2,1,0,1,0
	c0.1,0.2,0.2,0.1,0.2,0.1c0.1,0,1.8,0.1,2.1,0.1c0,0,0,0,0.1,0c0.3,0.1,2,0.1,2,0.1c0.2,0,0.3-0.2,0.3-0.2c-0.1-1,0.8-2.5,0.8-2.5
	c1.1-2.2,0.7-2.9,0.7-2.9c-0.6-1.4,0.2-3.3,0.2-3.3c0.4-0.9,0-1.7,0-1.7c1.2,0.4,2-0.3,2-0.3c0.3-0.2,0.5-0.2,0.6-0.2
	c0.1,0,0.1,0.1,0.2,0.1c0.5,0,2.4,0.2,3.1,0.3c0.2,0,0.4,0.1,0.6,0.2c1.1,0.5,3.9,1.7,3.9,1.7c0.9,0.3,2.8,1.6,3.2,1.9
	c0,0,0.1,0.1,0.1,0.1c2.8,2.4,2.9,3.6,2.9,3.6c0.6,1.2,0.3,2.9,0.3,2.9c-0.1,1.3-1.5,2.9-1.5,2.9c-0.3,0.4-1.4,1-1.8,1.3
	C43.1,40.9,43,41,42.9,41l-2.2,1.1c0,0-0.1,0.1,0,0.1c0.2,0.3,0.5,0.2,0.7,0.2c0.2-0.1,0.3-0.1,0.5-0.1c4.3-0.7,5.5-3.9,5.7-4.6
	c0-0.1,0.1-0.2,0.1-0.3C49,33.3,46.3,28.9,46.3,28.9z M7.6,8C7.4,8,7.2,7.9,7.2,7.7s0.2-0.3,0.4-0.3C7.8,7.4,8,7.5,8,7.7
	S7.8,8,7.6,8z"/>
</svg>
