<?xml version="1.0" encoding="utf-8"?>
<!-- Generator: Adobe Illustrator 19.1.0, SVG Export Plug-In . SVG Version: 6.00 Build 0)  -->
<svg version="1.1" id="Layer_1" xmlns="http://www.w3.org/2000/svg" xmlns:xlink="http://www.w3.org/1999/xlink" x="0px" y="0px"
	 viewBox="0 0 48 48" style="enable-background:new 0 0 48 48;" xml:space="preserve">
<style type="text/css">
	.st0{fill:#808080;}
</style>
<path class="st0" d="M47.7,17.1c0,0,0.2-0.3,0.2-0.4c0,0-0.6-0.5-0.6-0.7c0-0.1,0-0.6,0-0.6s0.6-1.7-0.8-1.6c0,0-2.4,0-3.5,0.4
	c-0.4,0.1-0.5,0.2-0.5,0.2c0,0,0.3-0.1,0.4-0.2c-0.3,0.1-8.2,2.4-8.6,1.5c0,0-3.1-5-6.3-3.6c-0.1,0-0.1,0.1,0,0.2
	c0.5,0.4,2.2,2,1.9,3.7c0,0-0.2,1-0.5,1.5l0,0c-0.1,0.4-0.4,0.7-0.8,0.8c-1.2,0.4-3.5,1.2-4.4,1.4c0,0-0.9,0.3-1.8-0.7
	c0,0-0.5-0.4-0.9,0.1c0,0-1.1,1.1-1.4,1.1c0,0-3.2,0.1-4.6-0.3c-0.3-0.1-0.6-0.2-0.8-0.4c-1.4-1.1-8.9-6.6-14.7-2.7
	c0,0,1.6,0.4,2.9,0c0.4-0.1,0.7-0.1,1.1,0c1.6,0.4,5.5,1.8,6,4.9c0,0.3,0,0.5-0.1,0.8L8,27.9c0,0,2.3,1.4,6.2-5
	c0.1-0.2,0.3-0.2,0.5-0.2l4.4,1.7c0.2,0.1,0.4,0.2,0.4,0.4c0.2,0.5,0.7,1.4,1.1,1.6c0,0,1.1-0.9,1.8-1c0,0,1.7-0.2,1.6,0.7
	c0,0-1,1.8-0.7,2.3c0,0,0.7,0.2,1.6-0.8c0,0,1.3-1.1,2.2-0.8c0.1,0,0.3,0.1,0.4,0.1c0.7,0.1,2.9,0.3,3.7,0.4c0.1,0,0.2,0.2,0.2,0.3
	c-0.2,0.6-0.6,1.9-0.7,2.8c0,0,0.1,0.4-2,4.2c0,0-0.7,1.5,0.1,1.5c0,0,1.1,0.1,3.3-3c0,0,2.3-3.9,3-5.5c0-0.1,0.1-0.2,0.3-0.2
	c0.6,0,2.7,0.1,4.8-1.1c0,0,1.2-0.2,2.2,2.2c0,0,0.9,2.4,1,3.1c0,0,1.5,0.1,1.7-3.4c0,0-0.4-3.2-2.3-4c0,0,2.1-1.1,2.2-1.4
	c0,0,3.9-0.1,1.9-2.4c0,0,0.2-1.5,0.9-1.7c0,0,0.2-0.2,0-0.6C47.9,18.2,48.2,17.8,47.7,17.1z M43.2,17.5c-0.3,0-0.5-0.3-0.5-0.6
	c0-0.3,0.2-0.6,0.5-0.6c0.3,0,0.5,0.3,0.5,0.6C43.6,17.2,43.4,17.5,43.2,17.5z"/>
</svg>
