<?xml version="1.0" encoding="utf-8"?>
<!-- Generator: Adobe Illustrator 19.1.0, SVG Export Plug-In . SVG Version: 6.00 Build 0)  -->
<svg version="1.1" id="Layer_1" xmlns="http://www.w3.org/2000/svg" xmlns:xlink="http://www.w3.org/1999/xlink" x="0px" y="0px"
	 viewBox="0 0 48 48" style="enable-background:new 0 0 48 48;" xml:space="preserve">
<style type="text/css">
	.st0{fill:#808080;}
</style>
<path class="st0" d="M47.3,39.5c0.4-0.1,1.1-0.3,0.4-1.3c0,0-0.8-1.1-0.8-3.2c0,0,0-0.1,0-0.1c0-1.8-0.2-4.2-0.2-4.9
	c0-0.1,0-0.2,0.1-0.2c0.2-0.2,0.5-0.5,0.1-1.3c0,0-1.7-2.6-1.4-5l1.1-5.7c0,0,0.4-3.2-0.1-4.6c0,0-0.4-1.5-0.8-2
	c0,0-1.5-2.7-9.9-0.7c-0.1,0-0.2,0-0.3,0.1c-0.9,0.3-6.6,1.8-12.9,1c-0.1,0-0.2,0-0.3-0.1c-0.6-0.1-2.5-0.4-3.6-0.4
	c-0.3,0-0.7,0-1-0.2c-1-0.5-3.2-1.5-4.6-1.8c0,0,1.3-2.1,0.8-3c0,0-0.3-0.3-0.7,0.3c0,0-0.9,1.8-2.8,1.4c0,0-0.4-0.9-2.4-0.6
	c-0.1,0-0.3,0-0.4-0.1c-0.4-0.2-1.6-0.6-3,0.3c0,0-2.3,0.5-3.7-1.9c0,0-0.4-0.3-0.4,0.3c0,0-0.3,3,3.3,3.7c0.1,0,0.1,0.1,0,0.2
	C3.6,9.8,3.3,10,3.3,10l-3-0.1c0,0-0.5,0-0.1,0.8c0,0,0.7,1.6,2.5,2c0,0,0.3,0,0.5,0c0.1,0,0.2,0,0.2,0.1c0,0.2,0.1,0.4,0.1,0.6
	c0,0.3,0,0.5-0.1,0.8c-0.1,0.3-0.2,0.6-0.3,0.8c0,0.1-0.1,0.3-0.2,0.4c-0.2,0.3-0.5,0.8-1,1.2c0,0-0.8,0.6-0.6,1.8c0,0,0,1.2,0.9,1
	c0,0,0.9,1.3,3,0.8c0.1,0,0.2,0,0.3,0.1c0.2,0.3,0.6,1,1.3,1.3c0.1,0,0.1,0.1,0.2,0.1c0.3,0.3,1.2,1.1,1.2,2.1c0,0-0.6,2.5,2.1,3
	c0.1,0,0.1,0.1,0.2,0.1c0.1,0.1,0.3,0.3,0.7,0.5c0,0,1,2.6,3.1,2.2c0,0,0.4-0.1,0.8-0.4c0.1,0,0.1-0.1,0.2-0.1
	c0.2,0,0.6-0.1,0.7,0.3c0,0,0.6,1.1,0.3,2.6c0,0,0,0.1,0,0.1c-0.1,0.2-0.2,0.8,0.2,1.5c0,0,0.5,0.7,0.3,1.8c0,0.1-0.1,0.3-0.1,0.4
	l-0.7,1.7c0,0,0,0,0,0c0,0-0.1,0.2-0.4,0.3c0,0-1,0.7-1.5,1.3c-0.1,0.2-0.2,0.3-0.3,0.4c-0.2,0.2-0.4,0.4-0.2,0.5
	c0,0,1.5,0.4,3.1,0.2c0.1,0,0.2,0.1,0.1,0.2c-0.1,0.2-0.4,0.5-0.6,0.7c0,0-0.9,0.8,0.3,0.7c0.1,0,0.2,0,0.2,0c0.2,0.1,0.9,0.3,2.2,0
	c0,0,0.1,0,0.1,0c0.2,0,1.1,0,1.2-0.4c0,0,0.1-1,0-1.5c0-0.1,0-0.1,0.1-0.1c0.2,0,0.5,0,0.7-0.2c0.2-0.3,0.1,0,0.1,0
	c0,0,1.3-0.4,0.3-1.4c-0.1-0.1-0.1-0.2-0.2-0.3c0-0.6-0.1-2.4,0.6-3.5c0,0,0.2-0.5,0.1-1.1c0,0,0-0.1,0-0.1c0-0.4,0-3.2,0.5-4.4
	c0.1-0.3,0.4-0.5,0.8-0.4c0.6,0.1,2.1,0.3,4.7,0.3c0.1,0,0.2,0.1,0.2,0.2c0.1,0.4,0.4,1.5,0.8,1.6c0,0,1.6,0.1,1.9-2.2
	c0-0.1,0.1-0.2,0.2-0.3c0.7-0.4,3.4-1.7,4-2.3c0,0,0.6,1.1,1.5,2c0,0,0.9,1,0.5,3.5c0,0.1-0.1,0.2-0.1,0.3c-0.3,0.7-1.5,3.5-2.3,4.7
	c0,0.1-0.1,0.1-0.2,0.1c-0.2,0.1-0.5,0.2-0.7,0.5c0,0-1.6,1.9-1.3,2.1c0,0,3.9,0.9,4.1-0.4c0,0,0-1.5,0.6-0.7c0,0,0.9,0.3,0.9-1.1
	c0,0,0.2-2.2,1.3-4.6l1.6-3.1c0.1-0.1,0.2-0.2,0.3-0.1c0.5,0.2,1.6,1,2.4,2.9c0,0,1.5,2.9,1.1,6c0,0.1,0,0.1-0.1,0.2
	c-0.1,0.1-0.2,0.2-0.3,0.3c0,0-0.1,0.1-0.1,0.1c-0.2,0.4-1.1,2.1-1.1,2.2c0,0,0.3,0.7,1.2,0.3c0.3-0.1,0.4-0.2,0.4-0.2
	c0,0-0.4,0.2-0.4,0.2s3.5,0.8,2.9-1.2c0-0.1,0-0.1-0.1-0.2l-0.1-0.5C47.1,39.6,47.2,39.5,47.3,39.5z M6.9,12.9c0,0,0.4-1,1.6-0.5
	C8.5,12.4,7.9,13.7,6.9,12.9z"/>
</svg>
