<?xml version="1.0" encoding="utf-8"?>
<!-- Generator: Adobe Illustrator 19.1.0, SVG Export Plug-In . SVG Version: 6.00 Build 0)  -->
<svg version="1.1" id="Layer_1" xmlns="http://www.w3.org/2000/svg" xmlns:xlink="http://www.w3.org/1999/xlink" x="0px" y="0px"
	 viewBox="0 0 48 48" style="enable-background:new 0 0 48 48;" xml:space="preserve">
<style type="text/css">
	.st0{fill:#808080;}
</style>
<path class="st0" d="M46.2,13.2c0-0.1-1.2-2.3-6-1.3c0,0,0,0,0,0c0,0-3.6,0.4-5.3,4.3l0,0c0,0-0.4,1.5-3.9,2c-0.1,0-0.2,0-0.3,0
	c-0.8,0.1-6.1,0.5-10.2,2.1c-0.1,0-0.2,0.1-0.3,0.1c-1,0.3-6.7,2.1-10.4,3.9l0,0l-5.7,2.3c0,0,0,0,0,0c0.8-0.2,3.9-1,5.1-0.6
	c0.1,0,0.1,0.2,0,0.2c-1,0.2-3.9,0.8-4.8,1.7c0,0,0,0,0,0c0.4,0,4.4-0.4,4.4,0.1c0,0,0,0,0,0c-0.3,0.1-11.9,5.3-7.9,5.1c0,0,0,0,0,0
	c0,0.1-0.1,0.4,0.7,0.3c0,0,0,0,0,0c-0.1,0.1-0.3,0.7,1.3-0.1c-0.3,0.2-0.6,0.4,0,0.2c0,0,1.9-1.1,2.3-1.2c0,0,0,0,0,0l-0.8,0.6
	c-0.1,0.1-0.1,0.2,0.1,0.2h0c0.1,0,0.3,0,0.4-0.1c0.4-0.3,1.5-1.1,1.6-0.9c0,0,0,0,0,0c0.2-0.1,2.8-1.5,3.8-1.3l0,0
	c0,0,2.9,0,4.1-0.3c0.3-0.1,0.6,0,0.9,0c0.9,0.2,2.9,0.6,4.8,0.4c0,0,0,0,0,0c-0.1,0.1-0.3,0.7,1.3,0.4c0,0,0,0,0,0
	c-0.2,0.1-1,0.5-0.5,0.6c0,0,0,0,0,0c0,0,1.8,1,3.2,0.7c0.1,0,0.2,0,0.3-0.1c0.3,0,0.8-0.1,0.9-0.1c0,0,0,0,0,0
	c0,0.2-0.2,1.6,0.4,2.1c0,0,0,0,0,0c-0.2,0.1-1.3,0.6-0.9,1.2c0,0,0,0,0,0c0.1-0.1,0.5-0.8,0.9-0.3c0,0,0,0,0,0c0,0,0.2,0.3,0.6,0.1
	c0,0,0,0,0,0c0,0,0.5,0.2,1.1,0.3c0,0,1.9,0.1,2.4-0.2c0,0,0,0,0,0c0.1,0,0.8,0.1,1-0.1c0,0,2.4,0.8,3,0.3c0,0,0,0,0,0
	c0,0,0.4,0.2,0.7-0.1c0,0,0,0,0,0c0.1,0,1.1,0.4,0.9-0.2c0,0,0,0,0,0c0.1,0,0.5-0.1,0.8,0.2c0,0,0,0,0,0c0-0.1,0-0.6-0.8-0.7
	c0,0,0,0,0,0c0,0-0.7-0.3-1.6,0c0,0,0,0,0,0c-0.1,0-0.7-0.4-1.4,0c0,0,0,0,0,0c-0.1,0-1.4-0.2-1.8-0.8c0,0,0,0,0,0
	c-0.1,0-0.7,0-0.9,0.1c0,0-1.3,0.1-1.2-0.4c0,0,0,0,0,0c0.1,0.1,0.5,0.4,1.3,0.3l0,0c0,0,0.5,0,0.8-0.1c0,0,0,0,0,0
	c0,0,0.5,0.1,0.7-0.1c0,0,0,0,0,0c0,0,0.8-0.1,1.2,0c0.3,0.1,1.9,0.5,2.8,0.3c0,0,0,0,0,0c0,0,0.1-0.2,0.3-0.1l0,0
	c0,0,0.7,0.3,0.7-0.3c0,0,0,0,0,0c0,0,0.3-0.4,0.7,0.2c0,0,0,0,0,0c0-0.1,0-0.8-1.2-0.8l0,0c0,0-0.8,0-1.1,0.1c0,0,0,0,0,0
	c-0.1,0-0.6-0.4-1.1,0c0,0,0,0,0,0c-0.1,0-1.2-0.4-1.6-0.7c0,0,0,0,0,0c0,0-0.4-0.2-1.5,0c0,0,0,0,0,0c0,0-0.6-0.2-0.1-0.3l0,0
	c0,0,1.1-0.1,1.3-0.3c0,0,10.6-4.3,11.6-12c0,0,0,0,0,0c0,0,0.3-0.8,0.7-1.3c0.3-0.4,0.7-0.6,1.1-0.6c0.4,0,0.9-0.1,1-0.5
	c0,0,0,0,0,0c0.1,0,0.4,0.2-0.3,1.3c0,0,0,0,0,0C46.5,18.9,50.1,16.3,46.2,13.2C46.2,13.2,46.2,13.2,46.2,13.2z M44,15.1
	c-0.3,0-0.6-0.2-0.6-0.5c0-0.3,0.3-0.5,0.6-0.5c0.3,0,0.6,0.2,0.6,0.5C44.6,14.9,44.3,15.1,44,15.1z"/>
</svg>
