<?xml version="1.0" encoding="utf-8"?>
<!-- Generator: Adobe Illustrator 19.1.0, SVG Export Plug-In . SVG Version: 6.00 Build 0)  -->
<svg version="1.1" id="Layer_1" xmlns="http://www.w3.org/2000/svg" xmlns:xlink="http://www.w3.org/1999/xlink" x="0px" y="0px"
	 viewBox="0 0 48 48" style="enable-background:new 0 0 48 48;" xml:space="preserve">
<style type="text/css">
	.st0{fill:#808080;}
</style>
<path class="st0" d="M47.1,21.2c0,0,2.2-6.6-0.2-9.4c-0.3-0.3-0.5-0.7-0.7-1.1c-0.3-0.7-1.2-1.9-3-2.1c-0.1,0-0.2-0.1-0.3-0.2
	c-0.2-0.2-0.6-0.4-1.5-0.3c-0.1,0-0.2,0-0.3,0c-0.5-0.1-1.9-0.5-3.2,0.2c0,0-0.1,0-0.1,0c-0.2,0-0.8,0-1.6,0.4c0,0,0,0,0,0
	c-0.3,0.1-4.8,0.8-11.1,0c-0.2,0-0.3,0-0.5-0.1c-1-0.2-6.8-0.9-14.3,3.8c-0.5,0.3-1.1,0.5-1.6,0.6l-0.2,0c0,0-0.5-1.4-2.2-1.3
	c-0.1,0-0.2,0-0.2-0.1c-0.1-0.3-0.4-1-0.3-1.7c0,0-1,0.5-0.6,2.1c0,0.1,0,0.2-0.1,0.2c-0.2,0.2-0.8,0.8-0.7,1c0,0,0.7,0,1.2-0.5
	l-0.1,0.2c0,0-0.6,0.5-1.6,0.5c0,0-2.7,0.2-3.8-3.2c0,0-1,3.9,3.5,4.7c0.1,0,0.1,0.1,0.1,0.2c0,0.1-0.1,0.3-0.2,0.4
	c-0.1,0.2-0.2,0.3-0.3,0.5c-0.2,0.4-0.5,1-0.4,1.3c0,0-0.5,0.4-0.7,1c0,0-0.8,2.6-1.4,3.2c0,0-0.1,0.1-0.1,0.1
	c-0.1,0.1-0.5,0.4-0.4,1c0,0,0.2,1.2,1.4,1.3c0,0,1.5,0.3,1.9-0.3c0,0,0.3-0.3,1.1,0c0,0,1.8,0.2,3.2-0.6c0.1-0.1,0.3-0.2,0.4-0.2
	v4.5h0.6c0,0.1-0.1,0.4,0,0.6l0.3,0.7c0,0,0.4-0.6,0.4-0.8l0-0.5h0.9v-4.5c0.9,0.3,2.1,1,3.3,2.5c0.1,0.1,0.1,0.1,0.1,0.2
	c0.2,0.3,1.3,1.7,4.9,3.1c0.1,0,0.2,0.2,0.1,0.3c-0.1,0.4-0.5,1.3-0.7,1.7c0,0,0,0,0,0c-0.1,0.1-0.4,0.3,0.1,1.2c0,0,0,0,0,0.1
	c0,0.1,0,0.7,0.5,1.4c0,0,0,0,0,0.1c0,0.2,0.2,1-0.4,2.1c0,0,0,0,0,0c0,0.1-0.2,0.4-0.2,0.8c0,0,0,0.1,0,0.1
	c-0.2,0.1-0.6,0.5-0.6,0.9c0,0.1,0,0.1-0.1,0.1c-0.3,0.2-1.4,1-0.9,1.1c0,0,1.7,0.7,3.2-0.2c0,0,1-0.8,0.3-1.3c0,0,0.2-0.3,0.4-0.1
	c0,0-0.2-4.2,0.1-4.6l0.5-1c0-0.1,0.1-0.1,0.1,0c0.2,0.4,0.6,1.3,1.2,1.8c0,0,0.1,0.1,0.1,0.1c0.1,0.3,0.6,1.4,0.4,3.7
	c0,0.1,0,0.1-0.1,0.2c-0.1,0.1-0.4,0.4-0.3,0.6c0,0,0,0.1-0.1,0.1c-0.3,0.2-1.1,1.1-0.9,1.1c0,0,1.8,0.6,3.1-0.2
	c0,0,0.7-0.6,0.1-1.4c0,0-0.1-0.7,0.4-0.5c0,0,0.4,0-0.1-0.7c0,0,0-0.1,0-0.1c0-0.1,0.1-0.3-0.1-0.7c-0.3-0.6-0.3-0.7-0.3-0.7
	s-0.7-2.1-0.8-3.8c0,0-0.3-2.7-0.7-3.3c0-0.1,0-0.1,0-0.2c1-0.4,6.6-2.7,10.1,0.3c0,0,0.3,1.6,1.5,0.7c0,0,0.4-1.2,2.3-1.9
	c0.1,0,0.2,0,0.3,0.2c0.1,0.8,0.5,3.7,1,3.9L38,30.8c0,0-0.2,0.9-0.1,1.8c0,0.1,0,0.2,0,0.3c-0.1,0.7-0.5,3.6-2.1,5.1
	c0,0-1.6,1.1-1.2,1.5c0,0,0.2,0.5,2.1,0.2c0,0,1.5-0.2,1.2-0.7l0-0.2c0,0,0.9,0.2,0.8-0.8c-0.1-0.9,1.3-5,2.3-7.4c0,0,0.1-0.5-0.1-1
	c-0.3-0.5-0.4-2.5,0.2-3.8c0,0,0.7,0.3,0.8-1.1c0,0,0.1-0.3,0.2,0.3c0,0,0.5,3.1,1,4.2c0.1,0.2,0.1,0.3,0.1,0.5c0,0.4,0.1,1,0.4,1.9
	c0.5,1.3,0,0.2,0,0.1c0,0.1,1.2,4.3-0.2,6.3c-0.2,0.2-0.3,0.4-0.3,0.7c0,0,0,0.1-0.1,0.1C42.8,39,41.7,40,42.5,40
	c0,0,3.4,0.2,3.1-1.2c0,0-0.2-0.4,0.6-0.4c0,0,0.3,0,0.1-0.4c-0.1-0.3-0.8-3.9-0.1-5c0,0,0.2,0.5,0,1.1c0,0,0.4-0.7,0.1-1.3
	c0,0,0.6-2.6,0.6-2.9c0-0.3,0.2-1.7,0.4-2.1c0,0,0.3-1-0.1-2.8C47.1,24.9,46.7,22.2,47.1,21.2z M3.3,17.6c0,0,0.1-0.8,0.9-0.4
	C4.2,17.2,4.1,17.9,3.3,17.6z"/>
</svg>
