<?xml version="1.0" encoding="utf-8"?>
<!-- Generator: Adobe Illustrator 19.1.0, SVG Export Plug-In . SVG Version: 6.00 Build 0)  -->
<svg version="1.1" id="Layer_1" xmlns="http://www.w3.org/2000/svg" xmlns:xlink="http://www.w3.org/1999/xlink" x="0px" y="0px"
	 viewBox="0 0 48 48" style="enable-background:new 0 0 48 48;" xml:space="preserve">
<style type="text/css">
	.st0{fill:#808080;}
</style>
<path class="st0" d="M48,34.3c0,0-0.7-0.8-0.3-0.9c0,0,0.6-0.1-0.3-0.8c0,0,0.1-0.4-0.3-0.6c-0.1,0-0.1-0.1-0.2-0.2
	c-0.2-0.4-0.7-1.3-1.1-1.6c-0.1,0-0.1-0.1-0.1-0.2c0-0.4-0.2-1.5-1.7-2.4c0,0,0,0,0,0c-0.1-0.1-0.5-0.5-0.7-1.5c0,0-0.1-1.1-1.8-1.9
	c-0.1-0.1-0.2-0.2-0.3-0.3c-0.2-0.3-0.7-1-0.7-1.3c0,0-1.7-6.7-10.4-4.4c0,0-5.3,1.4-8.2-0.1c0,0-1.8-0.8-5-0.3c0,0,0,0-0.1,0
	c-0.3-0.2-3.5-1.9-4.5-4.2c0-0.1,0-0.1,0.1-0.1c0.4-0.1,2-0.5,2.7-2.3c0-0.1,0-0.1-0.1-0.1c-0.4-0.1-2-0.4-3.8,0.8l0.3-1.4
	c0,0,0,0,0,0c0.3-0.4,6.9-9.7,15-6.9c0,0,0.6,0,0.5-0.4c0-0.1,0-0.2,0.1-0.1c0.8,0.1,3.4,0.6,2.4-0.3c0,0-4.7-1.4-7.9-0.8
	c-0.1,0-0.2,0-0.3,0c-1.1-0.1-8.2-0.3-14.1,8.8C7,10.7,7,10.8,6.9,10.9c-0.6,0.5-2.8,2.3-2.6,3.3c0,0.1,0,0.3-0.1,0.4
	c-0.8,0.7-3.4,2.9-3.7,3.1c0,0-1.2,1.4,0.3,2.1c0,0,1.2,1.6,2.1,0.6c0,0,0.4-0.7,2.6-0.5c0,0,0,0,0,0c0.1,0,1.5-0.2,2.1-0.4
	c0,0,0.3-0.2,0.3,0.2c0,0,0.2,1.2,1.7,2.4c1.3,1.1,2.3,3.4,2.6,4c0,0.1,0.1,0.2,0,0.4c-0.1,0.4-0.3,1.3,0.4,2.5
	c0.1,0.2,0.1,0.4,0,0.6c-0.6,1-2.5,3.8-4.2,4.5c-0.1,0-0.1,0.1-0.2,0.1c-0.3,0.2-1,1-1.7,2.3c0,0,0,0.1-0.1,0.1
	c-0.2,0.4-1.7,3-2.3,3.9c0,0,0,0,0,0c0,0.1-1.5,1.8-1.8,4c0,0-0.5,1.3,0.2,1.1c0,0,0.9,0.7,2.5-0.9c0.1-0.1,0.2-0.4,0.1-0.5
	c0-0.1-0.1-0.1-0.1-0.2c0,0-0.4-0.5-0.2-0.9c0,0,0.4-0.4,0.5-0.1c0,0,0.2,0.6,0.5,0.1c0,0-0.5-1.3,1.3-3.9c0-0.1,0.1-0.1,0.1-0.2
	c0.5-0.6,4-4.7,8.6-6.9c0.1,0,0.2,0,0.3,0c0.2,0.1,0.8,0.4,1.2,0.1c0.1,0,0.1-0.1,0.2-0.1c0.3,0,1.3,0,1.9-0.1
	c0.2,0,0.4,0.1,0.4,0.4c0,0.7,0,2.1-0.4,3.3c0,0-0.6,0.8,0.6,2.3c1.2,1.5,2.6,4,2.9,4.9c0,0,0,0,0,0c0,0.1,0.2,2,2.2,3
	c0,0,0.1,0,0.1,0c0.2,0.1,1,0.4,1-0.2c0,0,0.6-2.6-0.5-2.7c0,0-0.7,0.1-0.7-0.6c0,0,1,0-0.1-0.8c0,0-5.1-4-1.8-9.3
	c0.1-0.2,0.4-0.3,0.6-0.3c1.3,0.1,5.7,0.4,7.9-1c0.3-0.2,0.7-0.1,0.9,0.1c0.9,1,2.8,3.5,1.9,4.7c-1.1,1.6-4.4,6.4-4.3,7.2
	c0,0-0.5,3.2,0.2,2.7c0,0,0.4,0.5,1.3-0.1c0,0,2-1.1,1-1.9c0,0-0.6-0.6,0-0.7c0.1,0,0.2,0,0.3,0.1c0.1,0.1,0.3,0.1,0.4-0.2
	c0,0-0.5-1.2,1.2-3c0.1-0.1,0.1-0.1,0.2-0.2c0.5-0.6,3.4-4.1,3.4-4.2c0-0.1,0.1-0.5-0.2-0.9c0,0-1-1.4-0.8-1.7c0,0,1.1,1.3,2.3,4.9
	c0,0,0,0,0,0c0,0,0.9,2.4,1.3,3.5c0.1,0.3,0.2,0.5,0.4,0.7c0.5,0.5,1.5,1.3,2.5,0.7c0.2-0.1,0.3-0.4,0.4-0.6c0-0.5-0.3-1.8-0.9-1.8
	c0,0-0.6-0.2,0-0.5c0.1-0.1,0.2-0.2,0.1-0.4c-0.1-0.1-0.2-0.2-0.4-0.3c-0.1,0-0.2-0.1-0.3-0.2c-0.5-0.9-2.6-4.3-2.7-6.5
	c0,0,0.2-1.1-1.1-2.4c0,0,0,0,0,0L38,29c-0.1-0.1-0.1-0.3,0-0.4c0.4-0.5,1.4-1.9,1.9-2.7c0.1-0.2,0.3-0.2,0.4,0
	c0.2,0.5,0.5,1.2,0.9,1.9c0,0.1,0,0.1,0,0.2c0,0.4,0.2,1.9,1,2.4c0,0,0.1,0.1,0.1,0.1c0.2,0.3,1.4,1.9,1.2,1c0,0,0-0.3,0.8,0.6
	c0,0,0.1,0.1,0.1,0.1c0.2,0.2,1.3,1,2,1.3c0,0,0.1,0,0.1,0c0.1,0,0.5,0.1,1,1c0,0.1,0.1,0.1,0.2,0.1C47.9,34.6,48,34.5,48,34.3z
	 M14.7,4.9c-0.4,0.5-3.3,2.9-3.4,2.9C12.5,6.1,14.7,4.9,14.7,4.9z M7.9,14.4c-0.2,0.3-0.6,0.9-1.4,0.5c0,0,0.2-0.7,1.3-0.7
	C7.9,14.3,8,14.3,7.9,14.4z"/>
</svg>
