<?xml version="1.0" encoding="utf-8"?>
<!-- Generator: Adobe Illustrator 19.1.0, SVG Export Plug-In . SVG Version: 6.00 Build 0)  -->
<svg version="1.1" id="Layer_1" xmlns="http://www.w3.org/2000/svg" xmlns:xlink="http://www.w3.org/1999/xlink" x="0px" y="0px"
	 viewBox="0 0 48 48" style="enable-background:new 0 0 48 48;" xml:space="preserve">
<style type="text/css">
	.st0{fill:#808080;}
</style>
<path class="st0" d="M47.4,23.7c0-0.5-0.2-1.9-1.7-2.8c-0.1-0.1-0.2-0.2-0.2-0.3c0-1.3-0.3-9-4.7-6c-0.1,0.1-0.3,0.1-0.4,0.1
	l-1.8-0.3c-0.3,0-0.5-0.2-0.7-0.4c-0.7-0.8-2.6-3.1-4-3.6c-0.2-0.1-0.4-0.2-0.5-0.4c-0.5-0.9-2.1-3.3-5-3.4c-0.2,0-0.5,0-0.7-0.1
	c-1.4-0.3-6.4-1.3-10.9-0.8c-0.2,0-0.4-0.1-0.3-0.3c0-0.5-0.3-1.5-2.1-1.8l-6.8,0c0,0,2.2,1.3,4.7,1.5c0,0-3.1,0.8-4.2,2.7
	c0,0,0,0.1,0,0.1c0,0.1-0.4,0.3-4.6,0.8c0,0-1.8,0.6-3.2-1c0,0-0.7,3.5,7.3,2.6c0.1,0,0.1,0.1,0.1,0.1l0,0.1c0,0.1-0.1,0.1-0.1,0.1
	c-0.3-0.1-1.5-0.3-1.8,0.4c0,0-0.5,0.8-0.4,1.5c0,0,0.1,0.7,1.2,0.7l1,0c0.1,0,0.2,0.1,0.2,0.2c0,0.1,0.1,0.3,0.1,0.4
	c0,0.1,0,0.1,0,0.2c-0.2,0.4-0.9,2-0.8,3.2c0,0.1,0,0.1-0.1,0.1c-0.2,0.2-0.8,0.9,0,1.7c0,0,1.6,1.8,3.8,1.4c0.1,0,0.1,0,0.2,0
	c0.2,0.1,0.9,0.5,1.7,0.2c0.1,0,0.3,0,0.4,0.1c0.3,0.3,0.9,1.1,1.1,2.4c0,0,0.7,2.5,1.8,4.1c0,0-0.1,2.5,0.3,3.5c0,0-0.4,1.4,0,3.4
	c0,0.1,0.2,1.7-2.5,4.9c0,0-0.1,0.2,0,0.3c0,0-2.1,2.3-0.7,1.9c0.1,0,0.2,0,0.3,0c0.5,0.2,2.7,0.8,3.8-1.1c0,0,0.3-0.7,0.2-1.2
	c-0.1-0.5-0.3-3.6,1.5-5.2c0.1-0.1,0.1-0.1,0.2-0.2c0.1-0.2,0.2-0.5,0.4-1c0.1-0.2,0.2-0.3,0.3-0.4c0.3-0.2,1-0.9,1.7-2.7
	c0.1-0.2,0.3-0.2,0.4-0.1c0.9,0.7,3.6,2.7,6.1,1.4c0.1-0.1,0.2,0,0.3,0.1c0,0.3,0.1,0.7,0,1.2c0,0-0.3,1.4,0.2,2.6
	c0.1,0.1,0.1,0.3,0.1,0.4c0,0.7-0.3,3-2.6,6c0,0.1-0.1,0.1-0.1,0.2l0,0.2c0,0-2.2,3.2-0.3,2.4c0,0,0.5,0.9,3,0.1
	c0,0,1.2-0.3,1.2-1.3c0,0,0-0.1,0-0.1c0.1-0.2,0.4-0.7,0.4-1.3c0-0.1,0.1-0.1,0.2-0.2c0.2,0,0.5-0.2,0-1c0,0,0-0.1,0-0.1
	c0-0.1-0.2-0.6-0.4-1.2c0,0,0-0.1,0-0.1c0-0.5-0.2-3,1.2-4.3c0.1-0.1,0.2-0.2,0.2-0.3c0.1-0.4,0.3-1.5,0.5-1.6c0.2-0.1,0-0.1,0-0.1
	c0,0,1.2-1.3,1.7-3.5c0-0.2,0.2-0.3,0.3-0.4l0.7-0.2c0.1,0,0.3,0,0.3,0.2c0.1,0.5,0.3,1.5,0.5,2c0,0.1,0,0.1,0,0.2
	c-0.1,0.2-0.2,0.7,0.1,1c0,0,0.1,0.1,0,0.2c-0.1,0.4-0.5,2.1-0.3,2.5c0,0,0,0.1,0,0.1c-0.2,0.3-1.2,1.6-1.3,1.9c0,0-0.2,0.1-0.2,0.4
	c0,0-1.3,1.8,0.1,1.4c0,0,2.4,0.7,2.4-0.7c0,0,0.4-0.4,0-1.3c0,0-0.5-1.6,0.4-2.2c0,0,0-0.1,0-0.1c0-0.3-0.1-1.9,0.3-2.2
	c0,0,0.1-0.1,0.1-0.1c0.1-0.1,0.1-0.4,0.1-0.6c0-0.1,0-0.2,0-0.3l0.5-1.1c0.1-0.1,0.2-0.2,0.4-0.2c0.5,0.2,1.8,0.4,1.1-2
	c0-0.1,0-0.3,0-0.4c0.1-0.1,0.1-0.2,0.2-0.4c0.3-0.4,0.9-0.3,1.1,0.1c0.5,0.9,2,3.2,2.9,4.2c0.1,0.1,0.2,0.3,0.3,0.5
	c0.1,0.4,0.1,1-0.1,2.1c0,0-0.3,1-0.1,1.6c0,0-2.2,3.3-1.6,4c0,0,0.7,0.3,0.7-0.1c0,0.1,0.2,0.4,1.2,0.4c0,0,1.2,0,1.2-0.8
	c0,0,0.9-1.1-0.3-3l0,0c0-0.2,0-0.4,0.2-0.6c0.1-0.1,0.2-0.4,0.3-0.7c0,0,0.4-1.8,0.4-2.5c0,0,0.1-0.9-0.1-1.3
	c-0.2-0.4,0.1-4.3,0.6-5.8c0.1-0.1,0.2-0.2,0.3-0.2c0.5,0.1,1.8,0.3,2.1-0.8c0,0-0.2-0.1-0.4-0.1C47.5,23.9,47.4,23.8,47.4,23.7z
	 M11.8,13.4c0,0-0.4-1.3,1.1-1.4C12.9,12,13.1,13.2,11.8,13.4z M41.9,15.5c1.8-2.1,2.4,3.5,2.4,3.5L41.9,15.5z"/>
</svg>
