<?xml version="1.0" encoding="utf-8"?>
<!-- Generator: Adobe Illustrator 19.1.0, SVG Export Plug-In . SVG Version: 6.00 Build 0)  -->
<svg version="1.1" id="Layer_1" xmlns="http://www.w3.org/2000/svg" xmlns:xlink="http://www.w3.org/1999/xlink" x="0px" y="0px"
	 viewBox="0 0 48 48" style="enable-background:new 0 0 48 48;" xml:space="preserve">
<style type="text/css">
	.st0{fill:#808080;}
</style>
<path class="st0" d="M44.6,40.1l-2.3-1.5c0,0,2,0.2,1.2-1c0,0-0.9-1.1-2-1.6c-0.3-0.1-0.7-0.3-0.9-0.6c-1-0.9-3.3-2.9-4.4-3.5
	c-0.2-0.1-0.4-0.3-0.5-0.5c-0.1-0.2-0.2-0.3-0.3-0.4c-0.2-0.1-0.3-0.3-0.3-0.5c-0.1-0.4-0.4-1-0.8-1.3c-0.6-0.5-4.4-4-5.9-6.2
	c-0.3-0.5-0.7-0.9-1-1.3c-0.9-0.9-1.2-1.5-3-2.9c-3.1-2.3-5.7-5.2-7.6-8.5c-0.7-1.2-1-2.4-1.6-3.5c0,0-1.5-8.2-7.1-6.5
	c-1,0.3-1.7,1-2.1,1.9C5.7,2.5,5.6,3.1,5.6,3.7c0,0.1,0,0.2-0.1,0.2C5.2,4,4.7,4.3,4.4,5c0,0,0,0.1-0.1,0.1C4,5.2,2.7,6.2,3.1,7.2
	c0,0,0.1-0.3,0.3-0.3c0,0,0.4-0.1,1.5-0.7C5.4,5.9,6,5.8,6.6,5.9C7.2,6,7.7,6.3,8.2,6.9c0.4,0.5,0.5,1,0.5,1.6
	c0,1.4-0.1,4.9-0.1,5.5c0,0-3.1,6.1-0.8,12.3c0.7,1.7,1.7,3.3,3.1,4.5c1.9,1.7,5.9,5.5,6.7,7.6c0,0.1,0.1,0.2,0.2,0.3
	c0.1,0.2,0.1,0.7-1.1,2.6c0,0-0.1,0.1-0.1,0.1c-0.1,0.1-0.3,0.3-0.4,0.5c0,0,0,0.2-0.7-0.1c0,0-1.2-0.7-1.5-0.4c0,0-0.2,0.5,1.2,0.8
	c0,0-0.4,0.1-0.6,0.2c-0.1,0-0.2,0-0.3,0c-0.6,0-2.9,0-3.1-0.1c0,0-1.5-0.3-1.5,1c0,0,0.6-0.8,1.1-0.4c0,0-0.2,0.6,0.9,0.5
	c0,0,2.7-0.1,2.8,0c0,0-1.5,0.5-0.7,1.4c0,0,0-0.7,0.3-0.6c0,0,0.4,0.6,1.4-0.1c0,0,1,0.2,1.4-0.7c0-0.1,0.1-0.1,0.2-0.1
	c0.2,0,0.5,0,0.8-0.3c0,0,0.1-0.1,0.1-0.1c0.1,0,0.3-0.1,0.6,0.1c0,0,1.2,0.9,1.8,0.7c0,0,0.3,1.1-1.4,1.2l-3.1,0c0,0-0.6,0-0.8,0.6
	c0,0,0.5-0.3,0.9-0.2c0,0,0,0.5,0.5,0.5l1.5,0.1c0.1,0,0.1,0.1,0,0.1c-0.4,0.2-1,0.5-1.4,0.6c0,0-1.2,0.3-1.3,1.1
	c0,0,0.6-0.6,0.9-0.5c0,0,0.2,0.4,1,0.1c0.8-0.3,2.2-0.6,3-1.2c0,0,0.6-0.3,0.6,0.1c0,0-0.1,1.3,0.6,1.2c0,0,0.1,0.4,0.4,0.5
	c0,0,0-0.4-0.2-0.8c0,0,0-1.9,0.1-1.9c0,0,1.1,0,0.7-0.7l0.1,0.1c0,0,0.1-0.9-0.2-0.8c0,0-0.2,0-0.6,0.2c-0.1,0-0.2,0-0.1-0.1
	c0.1-0.7,0.6-3,1.5-3.9c0.1-0.1,0.2-0.2,0.2-0.4c0.1-0.3,0.3-0.9,0.1-1.5c0-0.1,1.7-1.4,3.9-0.6c0,0,0.8,0.7,1.5,0.8L28.9,38
	c-0.1-0.2,0.1-0.4,0.3-0.3c0.4,0.1,0.9,0.2,0.9-0.3l1.6,1.1c0,0,0.1-0.8-1.2-1.5c0,0,0.2-0.5,1.6-0.1c0,0,5.7,1.3,7.6,1.5
	c0.2,0,0.3,0.1,0.5,0.1c0.9,0.5,4.4,2.2,4.8,2.2l0-0.1C44.9,40.4,44.8,40.3,44.6,40.1z M9.5,3.9C9,3.9,8.7,3.6,8.7,3.3
	C8.7,3,9,2.8,9.5,2.8c0.4,0,0.8,0.3,0.8,0.6C10.2,3.6,9.9,3.9,9.5,3.9z"/>
</svg>
