<?xml version="1.0" encoding="utf-8"?>
<!-- Generator: Adobe Illustrator 19.1.0, SVG Export Plug-In . SVG Version: 6.00 Build 0)  -->
<svg version="1.1" id="Layer_1" xmlns="http://www.w3.org/2000/svg" xmlns:xlink="http://www.w3.org/1999/xlink" x="0px" y="0px"
	 viewBox="0 0 48 48" style="enable-background:new 0 0 48 48;" xml:space="preserve">
<style type="text/css">
	.st0{fill:#808080;}
</style>
<path class="st0" d="M48,38.9c0,0-5.5-1.2-7.8-2.5c0,0,0,0,0,0c-2.2-1.3-3.3-1.7-3.4-2c0,0,0.7-0.1,0.1-0.6c0,0-2.5-1.9-3.6-2.5
	c-0.2-0.1-0.4-0.3-0.5-0.5c-0.5-0.8-2.2-3.2-7-7.2c-0.2-0.1-0.3-0.3-0.4-0.4c-0.7-0.7-3.2-3.4-6.4-5.5c-0.4-0.2-0.7-0.5-1-0.8
	c-1.4-1.3-5.2-5-5.7-6c0,0-1.5-3.5-7.2-2.2C4.7,8.8,4.3,8.9,4,9.1C3,9.6,0.5,11,1.1,12c0,0,0,0,0,0.1c-0.1,0.3-0.2,0.6-0.3,0.9
	c-0.5,0.8-1.6,3.2,0.6,4.9c0,0-0.4-1.5-0.3-1.7c0,0,1.2,0.8,2.2,0.3c0.1-0.1,0.3-0.1,0.4-0.1c0.4,0.1,1.1,0.8,1.9,3.3
	c0,0,1.8,8.5,9.5,12.4c0,0,2.2,3.9,1.7,4.6c-0.2,0.2-0.2,0.3-0.2,0.3c-0.3,0.3-1,0.9-3.2,1.3c0,0-0.3-0.1-0.8,0c-0.1,0-0.1,0-0.2,0
	c-0.3-0.1-0.9-0.2-1.4-0.1c0,0-0.1,0-0.1,0c-0.2,0-0.6-0.1-0.9,0c0,0-1-0.7-1.6-0.1c0,0-0.6,0.3-0.1,1.1c0,0,0-1.6,1.4-0.7
	c0,0-0.5,0.4-0.3,0.8c0,0,0.1-0.5,0.4-0.4c0,0,0.2,0.1,0.3,0c0,0,0.5-0.2,0.6,0.2c0,0,0.1-0.1,0-0.1l0.5,0c0,0,0.2,0.5,0.6,0.2
	c0,0,0.4-0.1,0.4,0.1c0,0,0.4-0.3,0.9,0c0,0,0.3-0.1,0.8,0.1l6.9,0c0,0,0.1-0.3,0.4,0l0.5-0.1c0,0,0.2-0.1,0.4,0
	c0.1,0,0.6,0.1,0.5-0.6c0,0,1.2-0.8,1.4,0.5c0,0,0.5-1.5-1.6-1.1c0,0-1.2,1-4.3,0.4c-0.1,0-0.1-0.1,0-0.2c0.3-0.2,0.8-0.5,1.3-0.5
	c0,0,1.5-0.2,1.4-1.8c0-0.1,0-0.1,0-0.2c0-0.4,0.3-2,1.8-1.6c0,0,3.1,0.8,3.9,0.4c0,0,0.1,0,0.1,0c0.3,0,1.6-0.2,2.7,0.4
	c0,0,0.1,0.1,0.1,0.1c0.3,0.2,1.3,0.9,2,0.5c0,0,0.1,0,0.2,0c0.9,0.4,8.7,4.3,8.2,2.8c0,0,2.2,1.1,5.1,0.8c0,0-3.3-0.9-4.2-1.9
	C40.8,37.2,46.1,39.4,48,38.9z M5.1,12.1c-0.5,0-0.9-0.3-0.9-0.7s0.4-0.7,0.9-0.7c0.5,0,0.9,0.3,0.9,0.7S5.6,12.1,5.1,12.1z"/>
</svg>
