<?xml version="1.0" encoding="utf-8"?>
<!-- Generator: Adobe Illustrator 19.1.0, SVG Export Plug-In . SVG Version: 6.00 Build 0)  -->
<svg version="1.1" id="Layer_1" xmlns="http://www.w3.org/2000/svg" xmlns:xlink="http://www.w3.org/1999/xlink" x="0px" y="0px"
	 viewBox="0 0 48 48" style="enable-background:new 0 0 48 48;" xml:space="preserve">
<style type="text/css">
	.st0{fill:#808080;}
</style>
<path class="st0" d="M47.8,45.3c0,0-1.8-8.9-0.6-11.4c0,0,0.1-0.7-0.4-1.2c-0.6-0.4-1.7-4.4-1.3-8.5c0-0.1,0-0.3,0-0.4
	c-0.1-1.6-0.6-11.1-4.6-12.2c-0.4-0.1-0.7-0.2-1-0.4c-1-0.5-2.8-1.4-3.6-1.2c0,0-4.6,0.7-8.8-0.8c-0.7-0.2-1.2-0.6-1.7-1.1
	c-0.3-0.3-0.8-0.6-1.7-0.7c0,0-4.6,0.1-6.1,0.6c-0.1,0-0.3-0.1-0.3-0.2c0.1-0.5,0-1.1-1-1.2c0,0-1.7-0.3-2.6,0.7
	c-0.4,0.5-0.4,0.5-0.3,0.4c-0.2,0.2-0.5,0.3-0.8,0.2c0,0-1-0.1-0.6-0.4c0.3-0.2,2.5-1.2,2.4-3.7c0-0.7-0.3-1.5-0.7-2.1
	c-0.5-0.7-1.3-1.5-2.5-1.8c0,0,4.5,4,0.3,6.1c0,0-1.4-0.6-2.3-0.1c-0.1,0-0.1,0-0.2,0C9.2,5.8,8.6,5.7,8,5.9C8,6,7.9,6,7.9,5.9
	C7.5,5.8,6.3,5.4,5.6,6.2c0,0-2.8-0.4-2.2-3.4c0,0,0.2-1.1,1.8-2.6c0,0-6.8,3.5-0.1,7.6c0,0-0.3,1-1.1,0.4c0,0-0.9-1.8-3.1-1.2
	c0,0-1.7,0.5-0.3,2.4c0,0,1.7,2.4,2.9,1.6c0,0,0.1,0,0.1-0.1c0.1,0,0.5-0.1,0.7-0.2c0.1,0,0.1-0.1,0.2-0.1l0.5,0
	c0.2,0,0.4,0.2,0.5,0.4c0.2,0.7,0.7,2.3,0.6,3c0,0-0.2,1.3,1.7,2.6C7.9,16.7,8,16.8,8,17c0.1,0.9,0.7,4.3,4.3,9.8
	c0,0.1,0.1,0.2,0.1,0.2c0.2,0.8,1.4,5.1,2.3,6.9c0,0.1,0.1,0.2,0.1,0.3c0.1,0.6,0.5,3,0.7,3.9c0,0,0.5,6.2-0.8,7.4
	c-0.1,0.1-0.2,0.2-0.3,0.3c-0.3,0.4-0.8,1-0.5,1c0,0,3.2,0.4,3.2,0c0,0,0.1-2,0.4-2c0,0,0.5-0.1,0.3-0.6c0,0,0-2-0.3-2.2
	c0,0,0.1-6.2,0.3-7.2c0,0,0.3-1.6,0.1-2.8c0-0.2,0.1-0.4,0.2-0.4c0.3-0.1,0.6-0.2,0.9-0.3c0.2,0,0.3,0.1,0.3,0.3V35
	c0,0-0.4,2.9,0.4,4c0,0,0.2,4.8-1.2,7.1c0,0-0.2,0-0.1,0.5c0,0-1,0.8-0.3,0.9c0,0,2.9,0.7,2.9-0.2c0,0,0.3-0.4,0.1-1
	c0,0-0.1-1.4,0.4-1.5c0.1,0-0.7-5.1,0.4-7.4c0-0.1,0.1-0.2,0.1-0.3l0.2-1.6c0-0.1,0.1-0.2,0.1-0.3c0.2-0.4,0.9-1.6,1-3.4
	c0-0.3,0.3-0.5,0.5-0.4c1.5,0.4,6.3,1.2,10.1-1.5c0.2-0.1,0.5,0,0.6,0.2c0.4,1.2,1.4,4.1,2.2,4.9c0.1,0.1,0.2,0.3,0.3,0.5
	c0.1,0.6,0.4,2,0.3,2.9c0,0-0.9,6.3-1.6,6.8c0,0-0.7,1.1-1.5,1.6c0,0-0.4,0.2,0.1,0.3c0,0,2.8,0.6,2.7-0.5c0,0,0.4-1,0.9-0.4
	c0,0,0.3,0.2,0.4-0.3c0.1-0.5,1.1-8.5,2.7-10.9c0,0,0,1.9,0.4,2.3c0,0-0.1,2.1,0.2,1.1c0,0,0.4-0.3,0.6,0.3c0,0,0.8-0.5,0.5-1.9
	c0-0.1,0-0.2-0.1-0.3l0.2-2.2c0,0,0.9,0.9,1.1,1.5c0,0.1,0.1,0.1,0.1,0.2c0.3,0.6,1.4,3.1,1.5,4.2c0,0,0.5,6-0.7,7.6
	c0,0,0,0.4,0.4,0.3c0,0,2.3,0.5,2.4-0.4l0-2C47.6,45.7,48.3,45.8,47.8,45.3z M6.1,10.4c0,0-0.5,0.2-0.5-0.1c0-0.3,0-0.5-0.1-0.5
	c0,0,0.8-0.8,1.1,0.3C6.6,10.2,6.2,10.2,6.1,10.4z M12,10.1c0,0-0.8-0.1-0.8-0.3c0,0,0.5-0.9,0.9-0.5C12.1,9.3,12.3,10.1,12,10.1z
	 M41,33.3c-1.5-1.5-1.3-4.6-1.3-4.6c0.7,0.3,1.5,1.9,1.5,1.9C41.5,31.2,41,33.3,41,33.3z"/>
</svg>
