<?xml version="1.0" encoding="utf-8"?>
<!-- Generator: Adobe Illustrator 19.1.0, SVG Export Plug-In . SVG Version: 6.00 Build 0)  -->
<svg version="1.1" id="Layer_1" xmlns="http://www.w3.org/2000/svg" xmlns:xlink="http://www.w3.org/1999/xlink" x="0px" y="0px"
	 viewBox="0 0 48 48" style="enable-background:new 0 0 48 48;" xml:space="preserve">
<style type="text/css">
	.st0{fill:#808080;}
</style>
<path class="st0" d="M48,17.6c0,0,0-2.2-0.9-2.5c0,0-1.1,0.4-1.1,0.5c0,0-1.5-0.5-1.9,0.9c0,0-2.8,0.7-3.7,3.7
	c-0.1,0.3-0.2,0.6-0.3,0.9c-0.2,0.3-0.4,0.7-0.6,1c-0.1,0.2-0.4,0.3-0.6,0.1c-0.4-0.2-1.1-0.6-1.8-0.6c-0.2,0-0.5-0.1-0.7-0.3
	c-0.6-0.5-2.1-1.6-4.3-1.7c-0.3,0-0.7-0.1-1-0.1c-2-0.4-9.5-1.6-16.7,1.7c-0.1,0-0.1,0.1-0.2,0.1c-0.5,0.2-2.3,1-2.8,2.4
	c0,0-0.9,1.7-2.3,1.9c0,0-0.1,0.5,0.7,0.6c0,0-6.3,2.5-10.1,3c0,0-0.2,0.3,0.6,0.4l10.8,0.6c0,0-1.2,1.2,0.5,2.1
	c0,0,0.5-0.5,0.6,0.3c0,0,0.5,0,0.8-0.6c0,0,0.5,0.1,0.3,0.7c0,0,0.5,0.1,0.8-0.6c0,0,0.3,0.4,0.3,0.8c0,0,0.4-0.5,0.4-0.9
	c0,0,0.4-0.1,0.2,0.8c0,0,0.4,0,0.6-0.6c0,0,0.3,0.2,0.3,0.6c0,0,0.3-0.1,0.4-0.3l0.1,0.4c0,0,0.8-0.1,0.8-1.6c0,0,0.1-0.5,0.3-0.6
	c0.2-0.1,2.3-0.1,3.3-0.3c0.3,0,0.7-0.1,1,0c1.4,0.1,4.7,0.3,5.8,0.2c0.3,0,0.5,0,0.8,0c1.5,0.1,5.8,0.5,6.4,0.2
	c0,0.1-0.6,2.2,1.4,1.9c0,0,2.1-0.3,2.6-0.5c0.1,0,0.2-0.1,0.2-0.1c0.6,0,2.6-0.1,2.8,0c0,0-0.3-0.9-3-0.6l-1.2,0
	c0,0,1.4-0.8,1.7-1.4c0-0.1,0.1-0.1,0.2-0.1c0.2,0,0.7,0,0.9-0.2c0,0,0.1,0.2,0.1,0.4c0,0,0.3-0.3,0.3-0.5c0,0,1.2-0.8,1.7-0.3
	c0,0,0.2,0.2,0.2,0.4c0,0,0.3-0.2,0-0.6c0,0,2.2-0.1,3.1,0.6c0,0-0.7-0.7-1.7-0.9c0,0,1.2,0.1,1.8,0.3c0,0-1.5-1.1-4.4-1.1h0
	c0,0-0.6,0,0-0.8c0,0,0.6-0.9,0.4-1.4c-0.2-0.5,3-3.1,3-3.1s1.6-1.2,1.6-2.2c0-0.1,0-0.1,0.1-0.2C47.1,20.2,48,19.2,48,17.6z
	 M45.2,16.9c-0.3,0-0.5-0.2-0.5-0.4s0.2-0.4,0.5-0.4c0.3,0,0.5,0.2,0.5,0.4S45.5,16.9,45.2,16.9z"/>
</svg>
