<?xml version="1.0" encoding="utf-8"?>
<!-- Generator: Adobe Illustrator 19.1.0, SVG Export Plug-In . SVG Version: 6.00 Build 0)  -->
<svg version="1.1" id="Layer_1" xmlns="http://www.w3.org/2000/svg" xmlns:xlink="http://www.w3.org/1999/xlink" x="0px" y="0px"
	 viewBox="0 0 48 48" style="enable-background:new 0 0 48 48;" xml:space="preserve">
<style type="text/css">
	.st0{fill:#808080;}
</style>
<path class="st0" d="M44.4,19.5c-0.1,0-0.2,0.1-0.4,0.1c-0.9,0.2-5.1,1-6.8,1l-5.7,0.1l1.5-0.9c0.8-0.5,1.5-1.2,1.8-2.1
	c0.2-0.4,0.2-1,0-1.4c0-0.1,0-0.1,0-0.2c-0.1-0.5-0.6-3.3-2-3.8c0,0-6.4-4.1-16.8-1.4c0,0-0.6,0.2-1.5,0.5c-2,0.9-3.1,2.9-3,5.1
	l0.1,1c0,0-1.5-1.5-2.2-1.9c0,0-3.6-1.9-4.9-2c0,0-0.1-0.6-1.9-0.5c0,0-2.6-0.5-2.5,1.3c0,0,0.9,1.5,3.2,2.3
	c0.2,0.1,0.4,0.2,0.6,0.2c0.9,0.4,3,1.5,4.2,2.3c0,0,1.5,1,2.3,1.6c0.2,0.2,0.4,0.3,0.6,0.5c0.4,0.4,1.7,1.4,5.3,1.4
	c0,0-2.4,1-3.3,2.5c-0.1,0.1-0.1,0.2-0.2,0.3c-0.3,0.5-1.3,2.2-0.6,4.2c0.1,0.3,0.2,0.6,0.3,1c0.2,0.8,1.2,2.8,5.9,4.8
	c0.3,0.1,0.7,0.3,1,0.5c1,0.6,4.3,2.1,13,2.1c0,0,7.6-0.2,9.5-3.9c0.1-0.1,0.1-0.2,0.2-0.3c0.4-0.6,1.6-3.1-0.7-5.8
	c0,0-2.5-2.4-6.6-2.9c0,0-3.5-0.6-5.1-1c-0.4-0.1-0.6-0.6-0.4-1c0.1-0.2,0.2-0.3,0.4-0.5c0.4-0.5,1-0.8,1.6-0.7
	c1.2,0.1,3.7,0.1,8-0.5c0.1,0,0.2,0,0.4-0.1c0.7-0.2,3.5-0.7,4.6-1c0.1,0,0.2-0.1,0.3-0.1c0.7-0.2,3.6-1.3,3.8-1.5
	C48,18.9,46.4,18.9,44.4,19.5z M2.9,15.7c-0.5,0-0.8-0.3-0.8-0.8s0.4-0.8,0.8-0.8s0.8,0.3,0.8,0.8S3.4,15.7,2.9,15.7z M30.3,29.7
	c7.8,1.4,7.3,2.2,7.3,2.2c2.1,1.2-5.2,1.7-5.2,1.7c-7.1,0.6-13.5-1.9-13.5-1.9c-2.5-0.8-4.1-3.2-4.1-3.2c-0.7-3,4.9-4.7,4.9-4.7
	l4.6-1.3c-0.6,3.7,1.5,5.3,1.5,5.3C27.3,29.1,30.3,29.7,30.3,29.7z M25.4,20.4c0,0-3.2-0.1-5.7,1.3c0,0,1.8-2.6-0.7-4
	c0,0-2.9-1.5-3.7-1.8c0,0,1.6-2.4,9.5-1.8c0,0,4.1,0.4,5.3,1.9C30.1,16,27.5,16.8,25.4,20.4z"/>
</svg>
