<?xml version="1.0" encoding="utf-8"?>
<!-- Generator: Adobe Illustrator 19.1.0, SVG Export Plug-In . SVG Version: 6.00 Build 0)  -->
<svg version="1.1" id="Layer_1" xmlns="http://www.w3.org/2000/svg" xmlns:xlink="http://www.w3.org/1999/xlink" x="0px" y="0px"
	 viewBox="0 0 48 48" style="enable-background:new 0 0 48 48;" xml:space="preserve">
<style type="text/css">
	.st0{fill:#808080;}
</style>
<path class="st0" d="M43.9,9.2c0,0,0.5-4.3-4.8-2.3c-0.5,0.2-0.9,0.4-1.3,0.7c-0.8,0.6-2.2,1.9-2.9,2.6c-0.1,0.1-0.3,0.2-0.6,0.2
	c-0.6,0-2,0.4-4.9,3.2c-0.3,0.3-0.7,0.5-1.1,0.6l-4.3,1.1c-0.7,0.2-1.4,0.1-2.1-0.1c-0.8-0.3-1.8-0.6-2.4-0.8
	c-0.5-0.1-0.9-0.4-1.2-0.7c-0.7-0.8-1.9-2.2-2.1-3.5c0,0,0-0.1,0-0.1C15.9,9.3,15,2.1,8.7,1.6c0,0,1.1-0.7-0.7-1.5L7.9,0.7
	c0,0-0.3-0.8-0.4-0.7c0,0,0,0.5-0.1,0.7c0,0-0.3-0.9-0.4-0.7c0,0-0.2,0.4-0.1,1c0,0-0.4-0.8-0.7-0.6c0,0,0,0.5-0.1,0.6
	c0,0-0.3-0.1-0.4,0.4c0,0-0.1,0-0.2,0.4c0,0-0.6,0.5-0.5,1.1c0,0-0.5,0.6-0.3,1c0,0-1.1,0.4-1,1.4c0,0,1.8-0.4,1.8,0.3
	c0,0-0.7,1.6,1.2,2.7c0,0-1.3,4.9-2.2,9.2c0,0-3.7,8,3.6,13.8l7.3,5.6c0.1,0.1,0.1,0.1,0.2,0.2c0.1,0.4,0.6,1.5,2.4,2.9
	c0.2,0.1,0.2,0.3,0.2,0.5c-0.4,1.1-1.9,4.7-2.5,4.3c0,0-0.5-0.1-0.3,0.5c0,0-1.4,0.3-3.9-0.1c0,0-1.6,0.1-1.4,0.8c0,0,0.3-0.3,0.6,0
	c0,0,0.2,0.2,0.6,0c0,0,2.5,0.4,3.4,0.4c0.1,0,0.1,0.1,0,0.1c-0.3,0.3-0.9,0.9-0.4,1.4c0,0,0-0.5,0.5-0.2c0,0,0.8-0.7,1.2-0.7
	c0,0,0,0,0,0c0.5,0.1,0.6-0.5,0.6-0.5s1.6,0.3,1.2-0.8l0.4-0.1c0,0,0.3,0.6,0.9,0.3c0,0,0.4-0.4-0.3-0.7c0,0-0.9-0.5-0.5-1.3
	c0,0,1.7-4.1,2.1-4.5c0,0,0.5,0.3,1.5-0.3c0,0,2.7-1.7,3.2-1.1c0,0,0.3,2.7,0.5,3.7c0,0.2,0,0.4-0.2,0.5c-0.5,0.4-1.8,1.1-3.6,1.1
	c0,0-0.5,0-0.5,0.2c0,0-1.2,0.2-0.9,0.7c0,0,0.4-0.5,0.8-0.3c0,0-0.3,0.4,0.7,0.2c0,0,2.6,0,3.4-0.6c0,0,0.1,0.1,0.4,0.1
	c0,0-0.5,0.5-0.5,0.6c0,0-0.5,0.3-0.2,0.7c0,0,0.2-0.3,0.5-0.3c0,0,0.4,0.4,0.8-0.8c0,0,0.2-0.8,0.6-0.4c0,0,0.3-0.6,0.5-0.6
	c0,0,0.4-0.3,0.3-1c0,0,1.4,0.5,1.6-0.1c0,0,0.3,0.1,0.4,0.1c0,0-0.3-0.5-1.2-0.5c0,0-1.3-0.4-1.6-1.5c0,0-0.6-2.5-0.2-2.4
	c0.2,0.1,8.5-4.9,8.3-8.3c0,0,0.4-0.6,0-1.2c0,0,2.5-0.9,3.1-4.2c0.1-0.5,0.3-1.1,0.6-1.6c0.5-0.9,1.1-2.2,1.3-2.9
	c0,0,1.4-1.4,1.4-2.3c0,0,1.2-1.5,0.8-2.9c0-0.1-0.1-0.1-0.1-0.2c-0.1-0.2-0.2-0.8,2-2.4C44.1,11.8,45.1,10.2,43.9,9.2z M8.6,4.2
	c-0.3,0-0.5-0.2-0.5-0.4c0-0.2,0.2-0.4,0.5-0.4c0.3,0,0.5,0.2,0.5,0.4C9.1,4.1,8.8,4.2,8.6,4.2z"/>
</svg>
