<?xml version="1.0" encoding="utf-8"?>
<!-- Generator: Adobe Illustrator 19.1.0, SVG Export Plug-In . SVG Version: 6.00 Build 0)  -->
<svg version="1.1" id="Layer_1" xmlns="http://www.w3.org/2000/svg" xmlns:xlink="http://www.w3.org/1999/xlink" x="0px" y="0px"
	 viewBox="0 0 48 48" style="enable-background:new 0 0 48 48;" xml:space="preserve">
<style type="text/css">
	.st0{fill:#808080;}
</style>
<path class="st0" d="M45.1,11.7c0,0-1-1.4-2.5-2.1c-0.7-0.3-1.3-0.9-1.7-1.7c-0.1-0.3-0.2-0.6-0.2-0.9c0,0,0.1-0.2,0.2-0.1
	c0,0,0.2,0.2,0.4-0.2c0,0,0.1-0.1,0.1,0c0.1,0.2,0.5,0.4,0.7-0.3c0,0,0.1-0.2,0.2,0c0,0,0.2,0.8,0.6,0c0,0,0.1-0.1,0.1,0
	c0.2,0.1,0.6,0.4,0.7-0.1c0,0,0.1,0,0.1,0l0.2,0.5l0.3-0.7c0,0,0.1-0.1,0.1-0.1c0,0,0.1,0,0.1,0c0,0,0.2,0.9,0.5-0.1
	c0,0,0-0.1,0.1-0.1l0.1,0c0,0,0,1.3,0.3,0c0-0.1,0-0.1,0.1-0.1l0.2-0.1c0,0,0.2,0.2,0.2,0.4c0,0,0.2-0.1,0.2-0.5c0,0,0-0.1,0.1,0
	c0.2,0.1,0.5,0.3,0.4-0.2c0,0,0,0,0.1,0C46.8,5.3,47,5.5,47,4.9c0,0,0-0.1,0.1,0L47.2,5c0,0,0.5-0.4,0.5-1c0,0,0-0.1,0-0.1
	c0.1-0.2,0.4-0.9,0.3-1c0,0-1.2-1.6-2.4-1.6c0,0-0.1,0-0.1,0c-0.3-0.1-2.4-0.7-4.7,0.5c-0.2,0.1-0.4,0.1-0.6,0
	c-0.7-0.5-2.8-1.5-4.6,0.6c-0.1,0.1-0.2,0.1-0.3,0.1c-0.8-0.1-3.8-0.2-4.7,2c-0.1,0.2-0.2,0.4-0.4,0.5c-0.5,0.4-1.6,1.2-2.9,1.7
	c-0.1,0-0.2,0.1-0.3,0.1c-0.6,0.1-2.9,0.5-4.1,1.9c-0.2,0.2-0.5,0.4-0.8,0.4c-1.1,0.1-3.9,1.1-7.2,6.9c-0.1,0.1-0.1,0.2-0.2,0.3
	c-0.5,0.6-2.3,2.9-4.9,4.3c0,0-2.6,1.6-1.8,5.5c0,0,0.3,0.7-0.8,2.8c0,0,0,0,0,0c-0.1,0.2-0.9,1.5-0.6,3.4c0,0,0,2-0.8,4.4l-0.6,5.8
	c0,0.2-0.1,0.4-0.3,0.6c-0.4,0.4-1.3,1.3-2,1.5c0,0-0.6-0.2-0.9,0c0,0-0.8-0.1-1.1,0.5c0,0-1.1,1.6-1,1.8c0,0,1.6-0.6,2.2-0.5
	c0,0,0.6,0.2,1.1-0.1c0,0,1-0.3,1.2,0.5c0,0,0.3-0.3,0.7-0.2c0,0,0.9,0,1.4-0.7c0.1-0.2,0.3-0.3,0.6-0.2c0.2,0.1,0.3,0.2,0.4,0.6
	c0,0,0.1,0.3,0.6,0.3c0,0,0.6,0.2,0.8,0.4c0,0,0.4-0.7,0.6-0.7c0,0,0.6-0.2,0.3-1c0,0-0.5-1.3-1.4-1.3c-0.1,0-0.2,0-0.3-0.1
	c-0.2-0.2-0.4-0.6-0.5-1c-0.1-0.6-0.2-4.2,0.1-3.9c0,0,0.2,1,0.4,1.3c0,0,0-3.6,0.2-4.1c0-0.1,0-0.1,0.1-0.2
	c0.1-0.4,0.6-1.9,1.6-3.5c0,0,0.8-2,0.8-2.1c0,0,1.6,0.4,3,3.1c0.1,0.2,0.2,0.4,0.3,0.6c0.9,1.2,4.4,5.1,11,3.3c0,0,0.4,1.2,0,1.8
	c0,0,0.3-0.1,0.4-0.8c0,0,0.2,2.6,0.1,3.4c0,0.1-0.1,0.2-0.2,0.3c-0.4,0.1-1.4,0.5-1.1,1.8l0.3,0c0,0-0.1,0.6,0.2,0.6
	c0,0,0.7-0.2,0.8-0.4c0,0,0.6,0.1,0.6-0.5c0,0,1-0.6,1.9,0c0,0,0.6,0.3,1.3,0.1c0,0,0.3,0,0.3,0.3c0,0,0.2-0.2,0.2-0.5
	c0,0,0.9,0.3,1.1-0.3c0,0,1.6-0.1,1.9,0.1c0,0-1-2.1-2.1-1.4c0,0-0.4-0.2-0.8,0c0,0-2.5-0.4-2.5-2.2l-0.3-3.2c0,0,5.7-2.2,8.9-4.9
	c-0.1,0-8.3,3.1-9.1,2.7c0,0,0.3-3-0.5-3.8c0,0-0.4-1.6-0.6-3.1c0,0,0-1.6-1.7-3.9c0,0,0.5-2.4,1-2.5c0,0,0.4,0,0.5,0.5
	c0,0.1,0.1,0.2,0.2,0.3c0.2,0.1,0.5,0.4,0.5,0.9c0,0,0.3,1.3,1.4,0.5c0.1,0,0.1,0,0.1,0.1c-0.2,0.4-0.5,1.3-0.3,1.4
	c0,0,0.7,0.2,1.1-1.5c0-0.1,0.2-0.2,0.3-0.1c0.1,0.1,0.2,0.2,0.2,0.6c0,0-0.1,0.9,0.1,1.3c0,0,0.4-0.1,0.4-0.8c0,0,0.3-1.3-0.2-1.7
	c-0.1-0.1-0.2-0.1-0.2-0.2c-0.2-0.3-0.7-0.8-1.1-0.9c-0.1,0-0.2-0.1-0.2-0.2c0-1-0.2-4.8-0.8-5.7c0,0,0.2-0.1,0.5-0.2
	c0.4-0.2,0.7-0.3,1.1-0.3c1.6,0,5.6-0.2,6.8-1.1c0,0,0.5-0.2,0.8,0.2c0,0,0.1,0.8,1.9,0.1c0.4-0.2,0.8-0.2,1.3-0.2
	c0.5,0,1,0.1,1.5,0.4c0,0,4,1.7,4.9,1.3c0,0,2-1.5,1.4-2.4L45.1,11.7z M24.5,34.5c0,0-2.2,0.2-3.2-0.7c0,0-1.9-1.1-2.2-2.9
	c0-0.2,0.1-0.4,0.3-0.5c0.7-0.2,2.3-0.5,3.1,0c0.9,0.7,0,0.1,0,0.1c0,0,1.1,1.1,1.2,1.8C23.7,32.3,24,34.2,24.5,34.5z M39.9,2.7
	c-0.2,0.2-0.6,0.5-1.4,0.2c0,0-0.1-0.1,0-0.1c0.1-0.2,0.6-0.8,1.5-0.2C39.9,2.6,40,2.6,39.9,2.7z"/>
</svg>
