<?xml version="1.0" encoding="utf-8"?>
<!-- Generator: Adobe Illustrator 19.1.0, SVG Export Plug-In . SVG Version: 6.00 Build 0)  -->
<svg version="1.1" id="Layer_1" xmlns="http://www.w3.org/2000/svg" xmlns:xlink="http://www.w3.org/1999/xlink" x="0px" y="0px"
	 viewBox="0 0 48 48" style="enable-background:new 0 0 48 48;" xml:space="preserve">
<style type="text/css">
	.st0{fill:#808080;}
</style>
<path class="st0" d="M45.2,27.2c-0.2-0.2-0.1-0.5,0.2-0.6c1.2-0.2,3.4-0.8,1.1-3.1c-0.1-0.1-0.3-0.3-0.5-0.4
	c-0.7-0.4-3.2-1.9-5.5-3.6c0,0-3-2.2-6.6-2.2c-0.2,0-0.4-0.1-0.5-0.3c-0.2-0.3-0.9-0.6-3.4-0.1c-0.3,0.1-0.7,0-1-0.1
	c-1.2-0.4-4.4-1.5-6.1-2.3c-0.3-0.2-0.6-0.4-0.9-0.7c-0.3-0.3-0.7-0.8-1.3-1.1c-0.4-0.2-0.8-0.4-1.1-0.8c-0.9-0.9-2.7-2.4-4.8-2.6
	c-0.3,0-0.6-0.2-0.8-0.5c-0.7-1.4-3.1-4.9-6.5-1c-0.2,0.3-0.6,0.4-1,0.4c-0.9,0-2.6,0-3.2,0.3c-0.1,0-0.2,0.1-0.3,0.1
	c-0.9,0.1-5,0.6-2.6,4.3C0.9,13.3,1,13.4,1,13.6c0.2,0.8,1.2,3.2,5.1,6L9,22.5c0.2,0.2,0.3,0.4,0.5,0.6c0.3,0.7,1.1,2.2,1.6,3
	c0.1,0.2,0,0.5-0.2,0.6c-0.4,0.1-0.9,0.2-1.3,0.4c-0.3,0.1-0.6,0.2-0.9,0.2c-0.7,0-1.8,0.1-2.4,0.2c0,0-2.4-0.2-2.3,0.4
	c0,0-0.2,0.6,1.3,0.5c1.5-0.1,0,0,0,0s1.7,0,2.1-0.1c0,0,1.7,0,1.7,0.1c0,0-4.7,2.1-4.8,2.6c0,0-0.5,0.4-0.2,0.6
	c0,0,0.3,0.3,0.7-0.2c0,0,0.9-0.8,2.3-0.9c0,0,2.9-1.1,3.2-1c0,0-0.8,2.3,1,0.9c0,0,1.1-0.1,1.8-0.4c0.2-0.1,0.5,0,0.6,0.2
	c0.4,0.5,1,1.3,1.2,1.8c0.1,0.2-0.1,0.4-0.1,0.7c-0.2,0.8-1.4,1.9-1.4,2c0,0-1.2-2.9-1.8-1.8c0,0-0.4,0.4,0.3,2
	c0.1,0.2,0.1,0.3,0,0.5c-0.1,0.3-0.3,0.7-0.8,0.5c0,0-3.6-0.6-4.9-1.8c0,0-2.4-1.4-2.9-1.3c0,0-0.9,0-0.5,0.6c0,0,2.1,1.1,2.8,1.7
	c0,0,2.7,1.6,3.5,2c0,0-0.1,0.3-2.4,0.3l-3.2,0.1c0,0-1,0-0.6,0.9c0,0,0,0.1,0.4,0.1c0,0,3.5-0.4,4.3,0c0,0,5.7,2.1,7.8,0.1
	c0,0,3.3-1.1,4.6-2.7c0.2-0.3,0.6-0.3,0.8-0.2c0.7,0.3,1.9,0.7,2.5,0.6c0.2-0.1,0.5,0.1,0.6,0.3c0.1,0.3,0.3,0.6,0.5,0.8
	c0.2,0.3,0,0.8-0.4,0.8c-0.6,0.1-1.7,0.2-3.3,0.1c0,0-3.3-0.4-6.5,2.2c0,0-0.4,0.2-0.2,0.6c0,0,0.2,0.3,0.8-0.2c0,0,4.4-2.6,6.2-0.2
	c0,0-1.4,1.2,0.2,0.7c0,0,2.2-1.2,9-1.4c0,0,7.7,0.1,10.2-1.1c0,0,3.4-1,6.4-5.3c0.1-0.1,0.2-0.3,0.3-0.4
	C47.9,33.1,49.2,31,45.2,27.2z M10.4,14.8c0,0-0.7,1.4-2.5,0.7c0,0-2.4-1.4-1.4-3.3c0,0,1.1-2,3.1,0C9.6,12.2,11.1,14,10.4,14.8z"/>
</svg>
