<?xml version="1.0" encoding="utf-8"?>
<!-- Generator: Adobe Illustrator 19.1.0, SVG Export Plug-In . SVG Version: 6.00 Build 0)  -->
<svg version="1.1" id="Layer_1" xmlns="http://www.w3.org/2000/svg" xmlns:xlink="http://www.w3.org/1999/xlink" x="0px" y="0px"
	 viewBox="0 0 48 48" style="enable-background:new 0 0 48 48;" xml:space="preserve">
<style type="text/css">
	.st0{fill:#808080;}
</style>
<path class="st0" d="M47.8,23c0,0,0.3-0.8-0.1-0.9c0,0,0.3-0.8-0.4-0.9c0,0,0.3-0.8-0.5-0.7c0,0,0.3-1.3-1.2-1.1
	c0,0-0.1-0.3,0.3-0.5c0,0-0.7-0.4-1.1,0c0,0-0.1-0.3,0.1-0.4c0,0-0.3-0.4-1.1,0.1c0,0-0.3-0.1,0-0.4c0,0-0.4-0.4-1.2,0.1
	c0,0-0.1-0.2,0.2-0.5c0,0-0.3-0.4-1.2,0.2c0,0-0.2-0.3,0-0.6c0,0-0.7-0.1-1.2,0.4c0,0-0.2-0.2-0.1-0.6c0,0-0.4-0.2-1.1,0.4
	c0,0-0.2-0.4-0.1-0.6c0,0-0.7,0-1,0.5c0,0-0.1-0.3-0.1-0.6c0,0-0.7-0.1-1,0.5c0,0-0.2-0.3-0.2-0.6c0,0-0.6-0.1-0.9,0.5
	c0,0-0.3-1.1-1-0.1c0,0-0.3-0.8-0.9,0c0,0-0.4-0.8-1.1,0c0,0-0.3-0.7-0.9,0c0,0-0.5-0.5-1,0c0,0-0.3-0.5-0.8,0c0,0-0.4-0.5-0.7,0
	c0,0-0.6-0.3-0.8,0.1c0,0-0.2-0.5-0.9-0.1c0,0-4.9-2.1-15,2.5c-0.1,0-0.1,0-0.2,0c-0.2,0-0.8-0.1-1.1,0.1c-0.1,0-0.1,0.1-0.2,0.1
	c-0.2,0-0.8,0-1,0.2c0,0-0.1,0.1-0.2,0c-0.3-0.1-1.1-0.2-1.5,0.1c-0.1,0-0.1,0-0.2,0c-0.2-0.2-0.6-0.4-1.4,0c0,0-0.1,0-0.1,0
	c-0.2-0.1-0.6-0.2-1.1,0.2c0,0-0.1,0.1-0.1,0.1C5.3,20.6,3.9,21,1.9,21c0,0-0.4-0.7-1.3-0.2c0,0-1.3,0.5-0.2,1c0,0,0.1,0.7,0.2,0.2
	c0,0,0.3-0.1,0.3,0.1l0,0.3c0,0,0.3-0.4,0.5-0.4v0.2c0,0,0.3-0.4,0.5-0.2c0,0,0.3,0.1,0.3,0.5c0,0,0.3-0.4,0.3,0.2
	c0,0,0.3-0.5,0.4,0.3c0,0,0.3-0.7,0.4,0.3c0,0,0.4-1,0.5-0.5c0,0,0.2-0.5,0.4-0.2c0,0,0.3-0.4,0.5,0c0,0,0.3-0.4,0.4,0.2
	c0,0,0.5-0.1,0.3,0.2c0,0-0.4,0.3-0.9,0.5c0,0-0.2,0-0.2,0.1c0,0-0.4-0.3-0.4,0.2c0,0-0.3-0.2-0.3,0.4c0,0-0.4-0.2-0.3,0.3
	c0,0-0.1,0.3-0.4,0.1c0,0,0,0.4-0.2,0.2c0,0-0.1,0.3-0.3,0.1c0,0-0.6,0.2-0.7-0.2c0,0-0.1,0.2,0,0.4c0,0,0.1,0.6-0.8,0.4
	c0,0-0.2,0.9,0.7,1.1c0,0,1.1-0.2,1.5,0c0.1,0,0.1,0,0.2,0c0.5,0,2.5,0,3.8-0.5C7.3,26.1,7.7,26,8,26c0.5,0,1,0,1.4,0.3
	c0,0-1.6,0.7-1.8,1.4c0,0-0.3,0.1-0.2,0.3c0,0,0.2-0.2,0.3-0.1c0,0,0.2,0.2,0.9-0.3c-0.1,0-0.5,0.3-0.3,0.7c0,0,0.5-0.5,0.6-0.3
	c0,0,0.1,0.5,1-0.2c0,0,0.4-0.4,0.9,0c0.4,0.3,3.5,0.4,3.9-2.1c0,0,8.3-0.5,10.3-1.3c0,0,0.5,1.2-0.4,1.2c0,0-1.8,0.9-1.8,1.8
	c0,0,0.2-0.1,0.3-0.1c0,0-0.4,0.3-0.3,0.7c0,0,0.4-0.4,0.7-0.2c0,0-0.2,0.6,0,0.9c0,0,0.4-0.9,1-0.3c0,0-0.1,0.2,0.1,0.3
	c0,0,0.6-0.7,1.4-1.2c0.1,0,0.2-0.1,0.2-0.1c0.3-0.2,1.2-0.9,1.3-1.5c0,0,0,0,0,0c0.2-0.7-0.2-2-0.2-2s0.7-0.6,2.6-0.7
	c0,0,6.8-0.6,8.4-0.7c0,0,7.6-1,7.1,2.8c0,0.1,0,0.2,0,0.2c-0.4,0.7-3.2,5-3,5.9c0,0,1.2-0.9,1.9-1.6c0,0,2.4-2.8,2.6-3.6
	c0,0,0.9-1.9,0.8-2.6C47.8,23.6,48.2,23.1,47.8,23z M7,21.6c-0.3,0-0.5-0.1-0.5-0.3C6.5,21.1,6.7,21,7,21c0.3,0,0.5,0.1,0.5,0.3
	C7.6,21.4,7.3,21.6,7,21.6z"/>
</svg>
