<?xml version="1.0" encoding="utf-8"?>
<!-- Generator: Adobe Illustrator 19.1.0, SVG Export Plug-In . SVG Version: 6.00 Build 0)  -->
<svg version="1.1" id="Layer_1" xmlns="http://www.w3.org/2000/svg" xmlns:xlink="http://www.w3.org/1999/xlink" x="0px" y="0px"
	 viewBox="0 0 48 48" style="enable-background:new 0 0 48 48;" xml:space="preserve">
<style type="text/css">
	.st0{fill:#808080;}
</style>
<path class="st0" d="M47.9,24.9c0,0-0.6-0.9-2.1-1.5c-0.1,0-0.2-0.1-0.2-0.3c0-0.2,0-0.5,0.2-0.6c0,0,0.3-0.4-0.2-0.8
	c0,0,0.1-0.5-0.1-0.9c0,0-1-2.3-0.6-3.5c0.1-0.2,0-0.3-0.2-0.4c-0.1,0-0.3-0.1-0.6-0.1c0,0-2.5,0.3-5.2-0.1c0,0-8.4-1.1-9.8-0.8
	c0,0-0.9-2.3-1.1-2.4l0.1,0.3c0,0,0,0.3-0.6,0.1c0,0-0.9-1.1-1-0.9c0,0,0.3,0.5-0.3,0.6c0,0-0.9-0.9-0.9-0.8c0,0,0.4,0.7-0.4,0.7
	c0,0-0.5-0.4-0.6-0.4c0,0,0.3,0.4-0.3,0.7l-0.6-0.4c0,0,0.2,0.7-0.2,0.7L22.9,14c0,0,0.8,1-0.2,1c0,0-0.9-0.5-1-0.5
	c0,0,0.6,0.5,0,0.7c0,0-0.5-0.2-0.6-0.3c0,0,0.5,0.6-0.1,0.6c0,0-1.1-0.3-1,0c0,0-0.9-0.3-1.1-0.5l-0.2,0c0,0-3.7-2.1-4-2
	c0,0-0.6-0.1-0.9-0.1c-0.3,0-2.4,0.4-3.7,3.6c-0.2,0.4-0.1,1,0.2,1.3c0.2,0.2,0.5,0.5,0.9,0.5c0,0,0.1,0,0.1,0l1.3,0.1
	c0.1,0,0.1,0.1,0,0.1c-0.9,0.3-4,0.8-7.3-0.7c-0.1,0-0.2-0.1-0.3-0.2c-0.6-0.8-3.7-4.5-4.1-2c0,0,0,0.1,0,0.1
	c-0.1,0.1-0.3,0.5-0.2,0.9c0,0.1,0,0.1,0,0.2c-0.1,0.2-0.4,1,0.4,3.9c0.1,0.3,0.1,0.6,0,0.9c-0.2,0.6-0.5,1.5-0.4,1.7
	c0,0,0,0.1,0,0.1c-0.2,0.6-1.1,4.1,0.1,4c0,0,1.4-0.1,2.4-0.9c0,0,1.9-1.5,2.6-2c0,0,0,0,0.1,0c0.2-0.1,1.2-0.9,2.8-0.3
	c0,0,4.5,0.9,3.5,1.2c0,0-2.8-0.7-2.5,1.2c0.1,0,1.1,3.3,2.6,3.6c0,0,0.1,0,0.1,0c2.1-0.6,3.8-1.7,3.8-1.7s0.6-0.2,1.2-0.1
	c0.3,0,0.6,0.2,0.7,0.5c0.4,0.9,2.8,5.1,10.7,3c0,0,0.5,0.1-1.4,0.8c0,0-1.6,1.3,0,2.8c0,0,0.7,0.6,1.3,0.1c0.2-0.1,2-3.4,2-3.8
	c0,0,5.1,0.1,9.2-2.1c0,0,0.1,0,0.1,0c0.2-0.1,1.2-0.4,1.6-0.3c0,0,0.7,0,1.3-0.6c0,0,3.6-2.4,4.8-2.3
	C47.6,25.9,48.2,25.7,47.9,24.9z M40.5,18.6c-0.3,0-0.6-0.3-0.6-0.7c0-0.4,0.3-0.7,0.6-0.7c0.3,0,0.6,0.3,0.6,0.7
	C41.1,18.3,40.8,18.6,40.5,18.6z"/>
</svg>
