<?xml version="1.0" encoding="utf-8"?>
<!-- Generator: Adobe Illustrator 19.1.0, SVG Export Plug-In . SVG Version: 6.00 Build 0)  -->
<svg version="1.1" id="Layer_1" xmlns="http://www.w3.org/2000/svg" xmlns:xlink="http://www.w3.org/1999/xlink" x="0px" y="0px"
	 viewBox="0 0 48 48" style="enable-background:new 0 0 48 48;" xml:space="preserve">
<style type="text/css">
	.st0{fill:#808080;}
</style>
<path class="st0" d="M48,29c0,0-0.5-2-3.3-5c0,0-0.7-0.7,0.3-2.3c0,0,1.8-3.1,2-4.4c0-0.2-0.2-0.4-0.4-0.4c-1.3,0.2-5.8,1.3-8.8,3.4
	c0,0-0.1,0.1-0.1,0.1c-0.3,0.2-1.6,0.8-2.9,0.5l-4.1-1.2c0,0,1.6-0.1,2.2-0.2c0,0,0.3-0.2,0-0.6c0.1,0-2.5-2.1-2-4.2
	c0,0,0.4-1.6-3.8,0.6c0,0,0.3-0.7-3.4,1.2c0,0-0.8,0.1-0.3-0.4c0,0-0.6,0-0.4-0.5c0,0-0.9,0-0.2-0.5c0,0-2.1,0.1-1-0.8
	c0,0-1.5,0.2-0.6-0.8c0,0-2,0.6-1.4-0.7c-0.1,0-3.1,1.7-2.6,0.2c0,0-0.7,0.1-2,1.8c0,0-0.5,0-0.4-0.5c0,0-0.4,0.4-0.6,0.9
	c0,0-0.3,0.1-0.5,0.5c-0.1,0.3-0.4,0.5-0.6,0.6c-1.3,0.5-5,2-6.3,3.5c0,0-2.6,2.7-3.6,3.1c0,0-2.5,1.4-2.8,2.1l0.7,0.6
	c0,0-0.2,0.3-0.5-0.3c0,0-0.7-0.3-0.6,0.4c0,0,0.8,1.2,2.9,2c2.1,0.8,5.1,2.5,10,2.8l1.6,1.9c0.6,0.6,1.1,1.2,1.3,1.2
	c0.1,0,0.1,0,0.2,0c0.5,0.3,2.4,1.7,2.6,1.4c0,0,1.2-1.9-0.2-3.6c-0.1-0.1-0.2-0.1-0.2-0.2c-0.6-0.1-2.8-0.6-2.8-0.7
	c0,0,7.9,0.8,9.5,0c0,0,1-0.5,1.6,0.1c0.5,0.6,3,1.6,3.6,1.4c0.1,0,0.2,0,0.2,0c0.6,0.4,3.1,2,3.7,1c0,0,0.5-0.8-0.3-3
	c0,0-0.2-1.4,0.3-3c0.2-0.5,0.5-0.8,1-0.9c0.7-0.1,1.8-0.2,2.8,0.4c0,0,7.3,3.5,10,2.6C48.1,29.1,48,29,48,29z M3.3,24.8
	c-0.3,0-0.5-0.2-0.5-0.5s0.2-0.5,0.5-0.5s0.5,0.2,0.5,0.5S3.6,24.8,3.3,24.8z"/>
</svg>
