<?xml version="1.0" encoding="utf-8"?>
<!-- Generator: Adobe Illustrator 19.1.0, SVG Export Plug-In . SVG Version: 6.00 Build 0)  -->
<svg version="1.1" id="Layer_1" xmlns="http://www.w3.org/2000/svg" xmlns:xlink="http://www.w3.org/1999/xlink" x="0px" y="0px"
	 viewBox="0 0 48 48" style="enable-background:new 0 0 48 48;" xml:space="preserve">
<style type="text/css">
	.st0{fill:#808080;}
</style>
<path class="st0" d="M47.9,21c0,0-0.8-3-2-4c0,0,1.5-3.6-1.7-1.4c0,0-2.1-0.9-4.2,0.3c0,0-0.5-0.4-0.9,0.4c0,0-2,0.7-7.3-0.9
	c-0.1,0-0.1,0-0.2-0.1c-1-0.4-12-4.1-17.5,1.7c0,0-3.3,3.2-5,6.5c0,0-2.9,6.1-8.7,4.9c0,0-0.6-0.5-0.5,0.3c0,0,0.7,1,3,1.2
	c0,0,3.9,0.8,6.1-2c0,0,3.8-3.9,5.1-5.5c0.2-0.3,0.6-0.3,0.8,0c0.2,0.3,0.5,0.6,0.7,0.8c0.3,0.3,0.2,0.8-0.1,1.1
	c-1,0.8-2.6,2.3-2.4,3c0,0,0.6,4.2,1.6,4.1c0,0,0.3,0,0.3,0.3c0,0,0.1-0.2,0-0.4c0,0,0.5,0,0.6,0.4c0,0,0.2-0.1,0-0.4l0.4,0
	c0,0,0.2,0,0.2,0.2c0,0,0.1-0.1-0.1-0.4c0,0,0-0.2,0.2-0.1c0,0,0.1,0,0.2,0.2c0,0,0.2-0.2-0.2-0.6c0,0,0-0.3,0.3,0.1
	c0,0,0.1-0.3-0.1-0.5c0,0-1.5-1.9-0.9-2.5c0,0,2-1.3,2.1-1c0,0-0.2,3.4-0.4,4.1c0,0-0.4,1.2,0.3,1.5c0,0,2.2,1.1,2.4,1.4
	c0,0,0.6-0.1,0.9,0.3c0,0,0-0.4-0.2-0.6c0,0,0.8-0.1,1.1,0.4c0,0,0.1-0.3-0.1-0.6c0,0,0.5-0.3,0.8,0.1c0,0,0.3-0.3-0.3-0.6
	c0,0,0.1-0.2,0.2,0c0,0,0.1-0.3-0.3-0.5c0,0-0.1-0.5-0.6-0.5c0,0-1.1-0.6-1.6-0.5c0,0,3.4-5.8,4.3-5.8c0,0,3.8,0.3,5.6,0.5
	c0.5,0.1,0.9,0.3,1.2,0.7c0.5,0.7,1.7,1.9,4.2,2.3c0,0,0,0,0,0c0.2,0,1.9,0.2,1.4,1.8c0,0,0.2,0.4-0.2,0.5c0,0,0.3,0.2,0.5-0.2
	c0,0,0.4,0,0,0.6c0,0,0.2,0.2,0.4-0.1c0,0,0.3,0.2-0.1,0.4c0,0,0.2,0.2,0.5-0.3c0,0,0.2-0.1,0.1,0.3c0,0,0.3-0.1,0.4-0.5
	c0,0,0.1-0.7,0.3-0.8c0,0,0.2-1.1-0.3-1.8c0,0-2.1-2.4-2.3-2.5c0,0,1,0.3,1.2,0.1c0,0,0.4,1.3,1.7,1.9c0.1,0.1,0.3,0.1,0.3,0.2
	c0.3,0.3,1,1.1,1.2,1.6c0,0,0.3,0.7,1.5,0.6c0,0,0.9,0.2,1.1,0.5c0,0,0.1-0.3-0.1-0.5c0,0,0.8-0.3,1.4,0.2c0,0,0.1-0.2-0.2-0.4
	c0,0,0.2-0.3,0.4,0.1c0,0,0-0.2-0.1-0.3c0,0,0.1,0,0.1,0c0,0-0.2-0.5-0.6-0.5c0,0-1.8-0.3-2-0.6c0,0-1.8-3.1-1.1-3.7
	c0,0,2.1-2.9,3.7-2.6c0.1,0,0.1,0,0.2,0.1c0.2,0.1,0.7,0.3,1.5,0.1c0,0,0.6,0.4,0.8-0.1C47.2,23.3,48.3,23.8,47.9,21z M43.3,19.7
	c-0.1,0.3-0.6,0.4-1,0.2c-0.4-0.2-0.7-0.6-0.6-0.8c0.1-0.3,0.6-0.4,1-0.2C43.2,19,43.4,19.4,43.3,19.7z"/>
</svg>
