<?xml version="1.0" encoding="utf-8"?>
<!-- Generator: Adobe Illustrator 19.1.0, SVG Export Plug-In . SVG Version: 6.00 Build 0)  -->
<svg version="1.1" id="Layer_1" xmlns="http://www.w3.org/2000/svg" xmlns:xlink="http://www.w3.org/1999/xlink" x="0px" y="0px"
	 viewBox="0 0 48 48" style="enable-background:new 0 0 48 48;" xml:space="preserve">
<style type="text/css">
	.st0{fill:#808080;}
</style>
<g>
	<path class="st0" d="M41.8,14.4c0,0,3.6-3.1,3.6-7.4c0-1.1-0.2-2.2-0.8-3.4c0,0-1.7-0.9-1.7-2.1c0-0.5,0.2-1,0.9-1.5
		c0,0-0.2-0.1-0.5-0.1c-0.7,0-2,0.2-3.9,1.8c-1.5,1.3-1.3,1-0.8,0.6c0.2-0.2,0-0.5-0.2-0.4c-1.5,0.7-4,2.1-4.8,4.2
		c0,0-0.2,0.1-0.5,0.1c-0.3,0.1-0.7,0.2-1,0.3C31.7,6.9,31.2,7,30.8,7c-2.6,0.2-10.6,1.4-14.1,9c-0.5,1-1.1,1.9-1.8,2.7
		c-0.7,0.8-1.5,1.7-1.6,2.5c-0.1,0.5-0.1,0.7-0.1,0.7c0,0,0.1-0.5,0.1-0.5S9.7,25,9.6,25.6c0,0-4.7,3.2-4.3,5.3c0,0-0.6,0-1.5-0.3
		c0,0-1-0.3-1.2,0.8c0,0-0.1,0.4,0.4,0.5c0,0-0.7,0.6-0.3,0.8c0,0,1,0.3,1.1,0c0,0-0.1,0.2-0.3,0.5c-0.2,0.2-0.4,0.5-0.7,0.8v0
		c0,0,0,0.5,0.9,0c0,0,0,0,0,0c0,0,0,0.5-0.7,0.9c0,0,0,0.2,0.1,0.2c0,0-0.5,0.4-0.1,0.5c0,0,1.2-0.1,1.2,0.1c0,0,0,0.1,0,0.2
		C4.1,36,4.3,36.2,5,36c0,0,0,0,0,0c0,0.1,0.2,0.6,0.5,0.8l0,0c0,0,0,1.8,1,1.9l0,0l0-0.2c0,0,0.1,0.1,0.2,0c0,0,0.7-1.4,0.9-2
		c0,0,0.1,0,0.2-0.1c0.1-0.1,0.3-0.2,0.4-0.4c0,0,0.6,0.5,1.3,0.5c0.4,0,0.9-0.1,1.4-0.5c0.1,0,0.1-0.1,0.2-0.1
		c0.2-0.1,0.7-0.5-0.4-1.4v0c0,0,5.1-6.1,10.3-4c0,0,0.1,0,0.1,0.1c0,0.3,0.2,1.7,2.6,4.1c0.2,0.2,0.3,0.5,0.3,0.9
		c-0.1,1.2-0.5,4.1-1.2,5.4c-0.2,0.3-0.3,0.7-0.3,1c0,0.1,0,0.2,0,0.2c0,0,0.1,0.6-4,1.1c0,0,0,0-0.1,0c-0.1,0-0.3,0-0.4,0.2
		c0,0-1.1,0-1.1,0.7v0c0,0,0.6-0.4,0.8-0.2c0,0,0,0,0,0c0,0,0.1,0.5,0.9,0.3c0,0,1.9,0,2.2-0.2l1,0c0,0,0,0,0,0c0,0-0.3,0.6-0.4,0.7
		c0,0-0.3,0-0.4,0.6c0,0-0.1,1.3,0.3,1.4c0,0,0,0,0.1,0c0,0,0.1-0.1,0.1-0.2c0,0,0.8,0.2,0.7-0.7c0,0,1.1-0.7,1-1.3
		c0,0,0.2-0.2,0.6-0.2c0.2,0,0.4,0,0.7,0.1c0.1,0,0.2,0.1,0.3,0.1c0.5,0.2,2,1,2.4,0.6c0,0,0.3,0.3,0.6,0.1c0,0,0-0.1-0.1-0.2
		c-0.1-0.1-0.2-0.2-0.4-0.4c0,0-0.7-0.7-1.2-0.9c0,0-1.2-1-1.2-1.1c0,0,0,0,0.1,0c0,0,1.4,0.5,1.3-0.3c0,0,0.6-0.4-0.6-0.7
		c0,0-1-0.2-1-0.5c0,0,0-3.3,0.7-5.7c0.2-0.7,0.7-1.2,1.4-1.5c1.2-0.5,3.4-1.6,4.4-2.7c0,0,0,0,0.1,0c0.2,0.3,1.2,1.9,4.9,2.2
		c0,0,0,0,0,0c0,0.3-0.7,5.1-1.7,5.6c0,0,0.1,0.5-2.1,0.1c0,0-0.4-0.1-0.7,0c0,0-0.2,0-0.4,0c-0.2,0-0.4,0-0.4,0.2
		c0,0,0,0.5,0.2,0.3c0,0,0,0,0,0c0.1,0,0.2,0.1,0.2,0.2c0,0.1,0.1,0.5,1.3,0.5c0,0,0,0,0,0c-0.1,0-1.2,0.3-2.2,0.4
		c0,0-0.7-0.2-1.4,0.2c0,0-0.3,0-0.7,0.1c-0.3,0.1-0.7,0.3-0.7,0.7c0,0,0,0,0,0c0.1,0,0.8-0.4,0.9-0.2c0,0,0.2,0.6,1.2,0.2
		c0,0,3.3-0.1,3.8-0.4c0,0,0,0,0,0c0,0,0.3,0.2,0.5-0.1c0,0,0,0,0,0c0,0,0.4,0,0.5,0.2c0,0-0.3,0.5-0.3,0.8c0,0,0,0.1,0,0.1
		c0,0-0.2,0.4,0.2,0.5c0,0,0,0,0,0c0,0.1,0.3,0.7,0.5,0c0,0,0.2-0.3,0.3-0.7c0,0,1.8-1.3,1.4-2.5c0-0.1,0-0.1,0-0.2l0.1-0.2v0
		c0,0,0.9,0.3,1-0.4c0,0,0,0,0-0.1c0.1-0.1,0.3-0.5-0.9-0.6c0,0,0,0,0-0.1c0-0.5,0.1-2.9,1.2-5.1c0.1-0.2,0.2-0.4,0.4-0.6
		c0.3-0.3,0.8-1,0.8-1.8c0-0.2,0.1-0.3,0.2-0.5c0.9-0.9,4.5-4.9,3.9-8.3C43.7,22,45,17,41.8,14.4z M7.1,33.7c0,0,0.1-0.5,0.6-0.2
		C7.7,33.5,7.7,34.1,7.1,33.7z"/>
	<path class="st0" d="M8.7,42.2c-3.2-2.6-5.3,0.1-5.3,0.1c-0.5,0.5-0.6,1.7-0.6,1.7c-0.2,1.3,1,2.7,1,2.7c0.7,0.9,2.4,1.3,2.4,1.3
		c2.5,0.5,3.4-1.1,3.4-1.1c0.8-1.3,0.5-2,0.5-2C10,43.5,8.7,42.2,8.7,42.2z"/>
</g>
</svg>
