<?xml version="1.0" encoding="utf-8"?>
<!-- Generator: Adobe Illustrator 19.1.0, SVG Export Plug-In . SVG Version: 6.00 Build 0)  -->
<svg version="1.1" id="Layer_1" xmlns="http://www.w3.org/2000/svg" xmlns:xlink="http://www.w3.org/1999/xlink" x="0px" y="0px"
	 viewBox="0 0 48 48" style="enable-background:new 0 0 48 48;" xml:space="preserve">
<style type="text/css">
	.st0{fill:#808080;}
</style>
<path class="st0" d="M47.8,41c0,0-7-13-7.2-16.7c0,0-0.3-4.9-1.5-8.9c0,0-0.1-1.1,0.2-2.4c0,0-0.1-0.7-1.2-1.8c0,0-0.9-6-5-5.7
	c0,0-1.1-1-5.2-0.1c0,0-2.8-0.9-5-1c-0.2,0-0.4,0-0.6-0.1C21,4.1,15.3,3,10.8,4.9c0,0-10.7,4.2-10.7,11.5c0,0.1,0,0.2,0,0.4
	C0,18-0.3,25.3,1.7,27.3l-0.3,3.9c0,0,0.4,1.1,0.6-0.3L2,28.9c0,0,0.2,0.2,0.2,2.7c0,0-0.7,2.3-0.3,2.8c0,0-1.2,3,0.7,3.2
	c0,0,1,0,1.3,0c0.1,0,0.1,0,0.2,0c0.3,0,1.3,0.1,1.5-0.2c0,0,1.2,0.2,0.9-1c0-0.1-0.1-0.2-0.2-0.3c-0.3-0.3-1.1-1-1.1-2.2
	c0,0,0-6.7,0.9-6c0.1,0,0.1,0.1,0.1,0.1c0.1,0.6,1,4.7,0.5,6.7c0,0-0.7,2.5,1.7,2.5c0,0,0.7,0.5,1.2,0.1c0,0,1.9,0.7,1.5-1.2
	c0,0-0.3-0.6-0.6-1.1c0,0,0-0.1,0-0.1c0-0.5,0.2-3.4-0.4-5.3c0-0.1,0-0.1,0-0.2c0-0.5,0-2.2,1.1-2.8c0.2-0.1,0.3-0.1,0.5-0.1
	c1-0.1,5.3-0.4,6.8-1.2c0.1,0,0.2,0,0.2,0c0.2,0.2,0.8,0.8,0.9,2.2c0,0,1.3,8.7,0,10.1c0,0-0.7,1.5,0.6,1.9c0,0,1.5-0.1,2.1,0.1
	c0,0,1.3,0.2,1.6-0.2c0,0,1.7,0.6,1.1-1.4c0,0-2.2-1.8-1.1-3c0-0.1,0.1-0.1,0.1-0.2c0-0.3,0-1,0.2-1.2c0-0.1,0.1-0.1,0.1-0.2
	l0.7-8.3c0,0,1.4,5,1.8,7.1c0,0,0,0.1,0,0.1c0.5,2,1,4,0,4.7c-0.1,0-0.1,0.1-0.1,0.2c-0.1,0.4-0.4,1.5,1,1.3c0,0,1.6,0.6,2.5,0.1
	c0,0,0.8,0.4,1.4-0.1c0,0,0.6-0.9-0.1-1.6c0,0-1.2-1.2-1-2.7c0,0,0-0.5-0.3-1.6c0,0,0-0.1,0-0.1c0.1-0.7,0.7-8.2-0.6-10.7
	c-0.1-0.1,0-0.2,0.1-0.2c0.7,0.1,2.4,0.4,3.4,0.4c0.1,0,0.2,0.1,0.2,0.1c0.3,0.5,1.5,2.3,1.6,2.7c0,0,0.6-0.1,0.5-1.5
	c0,0,3.5,6.6,5,8.9c0.3,0.5,0.6,0.9,0.8,1.4c0.8,1.5,2.4,4.5,3.3,5.4c0.1,0.1,0.2,0.2,0.3,0.3c0.7,0.8,2.8,3.5,1.3,4.1
	c0,0,0,1.1,1.2,0.8C47.2,44.1,48.4,43.8,47.8,41z M32.2,14.3c0,0,2-0.8,2.3,0.1C34.5,14.4,33.8,14.9,32.2,14.3z"/>
</svg>
