<?xml version="1.0" encoding="utf-8"?>
<!-- Generator: Adobe Illustrator 19.1.0, SVG Export Plug-In . SVG Version: 6.00 Build 0)  -->
<svg version="1.1" id="Layer_1" xmlns="http://www.w3.org/2000/svg" xmlns:xlink="http://www.w3.org/1999/xlink" x="0px" y="0px"
	 viewBox="0 0 48 48" style="enable-background:new 0 0 48 48;" xml:space="preserve">
<style type="text/css">
	.st0{fill:#808080;}
</style>
<path class="st0" d="M47.5,12.1c0.2,0,0.3-0.1,0.4-0.2c0.1-0.2,0.1-0.4-0.3-0.6c0,0-18.1-10.1-23.9,9.2c0,0-0.4,0.5-0.6,0
	c0,0-0.3-0.3-0.5-0.2c-1.3-1-1.5-3.4-1.5-3.4l-0.2-3.7c0-1.2-1.2-1.9-1.2-1.9c-0.2-0.5-0.6-0.3-0.6-0.3c-0.2,0.3,0.2,0.3,0.6,0.4
	s0.9,1.1,0.9,1.1l0.1,1.8c0,0,0.2,1.6,0.2,2.6c0,0.3,0,0.6,0,0.7c0,0.6,0.7,1.9,0.7,1.9l0.7,0.8c0,0.1,0,0.1,0,0.2
	c0,0-0.1,0-0.2,0.1c-0.5-1-1.9-1.9-1.9-1.9c-0.5-0.3-3.3-1.3-3.3-1.3c-0.8-0.2-1.8-1-1.8-1c-0.6-0.6-0.7-1.5-0.7-1.5
	c0.3-0.7-0.2-0.6-0.2-0.6c-0.3,0.3,0.1,0.8,0.1,0.8c0,0.8,0.5,1.2,0.5,1.2c0.6,1,1.6,1.3,1.6,1.3l3.2,1.2c1.6,0.5,2.1,1.6,2.3,2
	c-0.2,0.1-0.3,0.4,0.2,0.9c0,0-15.5-2-22.1,13.8c0,0-1.1,2.3,3.5,0.4c2.1-0.8,6.4-1.2,10.3,0c0,0,2.4,0.9,3.9-2.2
	c0,0,1.5,5.9,8.6,5.7c0,0,3.5,0.2,5.5-0.7c1-0.5,1.5-1.6,1.2-2.6l-0.6-2.2c0,0,1.3,2.3,4,1.2c3.7-1.4,6.1-9.1,0.1-13.5
	c0,0,3.6,0,4.1-2.6C40.6,18.8,41.2,12.1,47.5,12.1z"/>
</svg>
