<?xml version="1.0" encoding="utf-8"?>
<!-- Generator: Adobe Illustrator 19.1.0, SVG Export Plug-In . SVG Version: 6.00 Build 0)  -->
<svg version="1.1" id="Layer_1" xmlns="http://www.w3.org/2000/svg" xmlns:xlink="http://www.w3.org/1999/xlink" x="0px" y="0px"
	 viewBox="0 0 48 48" style="enable-background:new 0 0 48 48;" xml:space="preserve">
<style type="text/css">
	.st0{fill:#808080;}
</style>
<path class="st0" d="M46.3,20.7c0,0-8.2-6-8.9-7.1c0,0-2.1-2-6.8-3.3c0,0-0.9-0.7-1.8-0.7c-0.2,0-0.4-0.1-0.6-0.2
	c-0.6-0.3-2-0.9-3.4,0.1c-0.3,0.2-0.7,0.4-1.1,0.4c-1.5,0.3-5.1,1-7.2,2.8c-0.3,0.3-0.8,0.2-1-0.2c-0.7-1.3-2.3-4.1-4.1-5.3
	c-0.3-0.2-0.5-0.5-0.6-0.8c-0.2-0.6-1-1.5-3.4-0.9C6.8,5.8,6.1,5.7,5.6,5.4C4.3,4.7,2,3.9,0.4,7.1c0,0,0,0,0,0.1
	C0.2,7.3-0.5,8.4,0.6,9.3c0,0-0.1,0.7,0.4,0.3c0,0,0,0.7,0.3,0c0,0-0.3,2,0.2,0.4c0,0,0,1.6,0.3,0.2c0,0,0.1,2.1,0.5-0.1
	c0,0,0.2,2.3,0.4,0.2c0,0,0.2,1.7,0.4,0.3c0,0,0.3,1.4,0.3,0c0,0,0.3,1.4,0.4,0.3c0,0,0.2-0.3,0.3,0.4c0,0,0,0.7,0.5,0.7
	c0.4,0,0.5,1.4,0.4,1.8c0,0.1,0,0.1,0,0.2C5,14.2,4.8,15.1,5,15.9C5,16,4.9,16,4.9,16c-0.5,0-1.6,0-1.5,0.5c0,0,1.7,0,1.7,0.3
	c0,0,0,0.5-2.4,3.3c0,0-0.7,1.2,1,1.8c0,0,1.1,0.4,2.2-0.6c0,0,3.8-3.5,4.4-3.2c0,0,2.2,1.6,2.8,3c0.1,0.2,0.1,0.4,0.1,0.6
	c0,0.2,0,0.6,0.2,0.9c0.1,0.2,0.2,0.4,0.1,0.7c-0.1,0.3-0.4,0.9-0.8,1.7c0,0-1.3,2.5-2.4,3.5c0,0-2.3,1.9-1.9,3c0,0-0.1-1,0.4-0.4
	c0,0,0,0.2,0.2-0.2c0.3-0.4,0,0,0,0s2.4-1.7,2.6-2.6c0,0,0.9-0.6,1.3-1.7c0,0,1.3-2,1.6-2c0,0,2.6,0.1,2.6,1c0,0.8-0.1,3,0,3.9
	c0,0.2,0.1,0.3,0.2,0.5c0.4,0.6,1.8,2.5,4.2,4.2c0.2,0.1,0.2,0.3,0.2,0.5c-0.2,0.7-0.7,2.4-1.2,3c0,0-1.2,1.7-1.6,2.6
	c-0.1,0.3-0.4,0.4-0.7,0.5c-0.8,0.2-2.2,0.6-2.4,0.8c0,0,0,0-0.1,0c-0.2,0.1-0.8,0.3-0.8,0.9c0,0,0.1,0,0.3,0c0.1,0,0.2,0,0.2,0.1
	c0.1,0.2,0.4,0.5,1.2,0.1c0,0,0,0,0,0c0.1,0,0.3-0.1,0.4,0.1c0,0.1,0.1,0.1,0.2,0.1c0.3,0,0.9,0.1,1.4-0.1c0,0,0.1,0,0.1,0
	c0.3,0,1.4,0.2,1.9,0.2c0,0,0.2,0.2,0.5-0.1c0,0,0.1-0.2,0.6-0.2c0,0,0.7,0.1,0.9-0.6c0,0-0.1-4,0.6-4.1c0,0-0.1,0.7,0.2,0.7
	c0.1,0,0.2,0.1,0.2,0.2c0,0.1,0,0.2-0.1,0.4c0,0,0.5-0.1,0.5-1c0,0-0.1-0.7-0.3-1.3c-0.1-0.3-0.1-0.6-0.1-0.8c0-0.4,0.1-1,0.2-1.4
	c0,0,0.3-0.6-0.2-1.8c0,0-0.8-1.3-0.8-2.3c0,0,0-0.1,0-0.1c0-0.2,0-1.6-1.6-2.3c-0.1-0.1-0.2-0.2-0.1-0.3l0.4-0.9
	c0.1-0.2,0.3-0.3,0.5-0.3c0.7,0.1,2.2,0.1,3.1-0.3c0.1-0.1,0.3-0.1,0.4-0.1c0.4,0.1,1.5,0.1,2.8-1.3c0.1-0.1,0.1,0,0.2,0
	c0.2,0.8,1,4.5,3,5.8c0,0,0.1,0.1,0.1,0.1c0.3,0.2,1.9,1.2,1.4,3.7c-0.1,0.3-0.2,0.6-0.5,0.8c-0.2,0.1-0.4,0.3-0.5,0.5
	c0,0-0.1,0.1-0.1,0.1c-0.1,0.1-0.4,0.3-0.5,0.9c0,0.1,0,0.2-0.1,0.3c-0.2,0.3-0.4,0.8,0.2,1.1c0,0-0.2-0.6,0-0.6
	c0,0,0.5-0.1,0.7-0.7c0-0.1,0.1-0.1,0.1-0.1c0.2-0.1,0.4-0.1,0.2,0.3c0,0-1,2.6-1.5,2.9c0,0-2.2,1.1-2.6,1.4c-0.1,0-0.1,0.1-0.2,0.1
	c-0.3,0.1-0.8,0.5-0.8,1.2c0,0,0.5-0.4,0.8,0c0,0,0.9,0.1,1.3-0.4c0.1-0.1,0.1-0.2,0.2-0.2c0.2-0.1,0.4-0.1,0.5,0.2
	c0,0,0.4,1.1,1.5,0.2c0.1-0.1,0.3-0.2,0.5-0.2c0.5-0.1,1.5-0.1,1.5,0.4c0,0,0.1,0.1,0.3,0c0,0,0.6,0.5,0.8,0c0-0.1,0.1-0.2,0.3-0.2
	c0.3,0,0.8-0.1,0.7-0.8c0,0-0.1-1.5-0.2-3.3c0,0,0-0.1,0-0.1c0-0.5,0.4-5.2-0.2-6.9c0-0.1-0.1-0.2-0.1-0.3c-0.3-0.4-1.2-2-1.3-3.1
	c0,0-0.1-1.9-1.8-2.2c-0.1,0-0.2-0.2-0.1-0.3c0.5-1,2.3-4.4,2.2-6.6c0-0.2,0.1-0.3,0.3-0.3c0.4-0.1,1.2-0.1,2,0.3c0,0,0.1,0,0.1,0
	c0.7,0.2,8.7,2.8,9.8,4.3c0.1,0.2,0.1,0.4,0.1,0.5c-0.1,0.3-0.3,1.1,0.4,0.8C47.2,25,49.5,23.5,46.3,20.7z M9.8,7.7
	C9.4,8,8.9,7.4,8.9,7.4C9.8,7,9.8,7.7,9.8,7.7z"/>
</svg>
