<?xml version="1.0" encoding="utf-8"?>
<!-- Generator: Adobe Illustrator 19.1.0, SVG Export Plug-In . SVG Version: 6.00 Build 0)  -->
<svg version="1.1" id="Layer_1" xmlns="http://www.w3.org/2000/svg" xmlns:xlink="http://www.w3.org/1999/xlink" x="0px" y="0px"
	 viewBox="0 0 48 48" style="enable-background:new 0 0 48 48;" xml:space="preserve">
<style type="text/css">
	.st0{fill:#808080;}
</style>
<path class="st0" d="M45.8,34c-0.6-0.7-0.3-1.7-0.3-1.7l1.7,0.1c0.3-0.1,0.6,0.1,0.6,0.1c-0.3-0.6-1.9-0.5-1.9-0.5
	c-0.4,0-0.5-0.1-0.5-0.1c-0.7-2.2-2-3-2-3c-0.9-0.4-0.9-0.9-0.9-1c0,0,0-0.1,0-0.1c-0.1-1.5-1.1-2.7-1.1-2.7
	c2.8-5.2,2.3-8.6,2.3-8.6C42.8,9.8,35,8.2,35,8.2c-9.1-2.2-17.2,3.6-18.6,4.7c-0.1,0.1-0.3,0.2-0.4,0.3C12.8,15.3,2,25.7,0.1,27.5
	c2.3-2.1,16.5-13.1,16.5-13.1c6.4-4.6,14-4.2,14-4.2c8.9,0.4,9.6,6.2,9.6,6.2c1.1,3.5-3.7,6.1-3.7,6.1c-0.1,0.1-2.8,0.2-3.6,0.2
	c-0.1,0-0.2,0-0.3-0.1c-0.8-0.5-1.3,0.2-1.3,0.2c-0.7,0.4-0.4-1.4-0.4-1.4c0,0,0,0,0,0c0.2-0.5,0-0.5,0-0.5
	c-0.3-0.1-0.3,1.9-0.3,1.9c-0.2-0.1-1.6-0.1-1.6-0.1c-0.5,0-3.2-1.4-3.2-1.4c-0.6-0.3-0.8,0-0.8,0c0.9,0,3.4,1.8,3.4,1.8
	c0.6,0.6-0.2,0.7-0.2,0.7c-0.8,0-1.8,0.3-1.8,0.3c-0.6,0.2-0.6,0.6-0.6,0.6c0.6-0.7,3-0.6,3-0.6c0.3,0.2-0.6,0.5-0.6,0.5
	c-0.7,0.4-0.5,0.7-0.5,0.7c0.2-0.3,1.4-0.8,1.4-0.8l0,0.2c0,0.1,0.1,0.2,0.2,0.1c0.6-0.3,1.4-0.3,1.4-0.3c-0.2,0.4,2,0.1,2,0.1
	c-2.8,2.1-7.3,1.4-7.3,1.4c-2.9,0.2-7,1.1-7,1.1c-0.2-1.8-2.6,0.1-2.6,0.1c-0.4,0.2-1.8-0.6-1.8-0.6c0.1,0.2,0.6,0.6,0.8,0.7
	c0,0,0.1,0.1,0,0.1c-0.2,0.3-1.8-0.6-1.8-0.6c-0.7-0.3-0.7,0.1-0.7,0.1c0.3,0.1,1.3,0.6,1.6,0.8c0,0,0,0,0,0c-5.1,0-7.3,5.3-7.6,6
	c0,0.1,0,0.1,0,0.2c-0.1,2.1,6.4,1.2,7.2,1.1c0.1,0,0.1,0,0.2,0c1.4,0.3,3.4-0.9,3.9-1.2c0.1,0,0.2,0,0.2,0c0.4,0.4,0.9,0.2,1,0.1
	c0.1,0,0.1,0,0.2,0c0.6,0.8,2.3,0.8,2.3,0.8c-0.5,0.4-0.9,2-0.9,2c-0.3,0.7-1.2,0.4-1.2,0.4c-0.5,0-0.5,0.4-0.5,0.4
	c0.8,0,0.9,0.3,0.9,0.3c-0.2,0.1-1.3,0.4-1.3,0.4C18.1,38.5,18,39,18,39c0.7-0.5,1.8-0.4,1.8-0.4c-0.2,0-1,0.8-1,0.8
	c-0.3,0.4-0.2,0.9-0.2,0.9c0.1-0.3,0.5-0.6,0.5-0.6c0.9-0.9,2.3-0.8,2.3-0.8c-0.2,0.1-0.1,0.6-0.1,0.6c0.3,0.5,1.1,0.4,1.1,0.4
	c-1.4-0.8,0.5-3.3,0.5-3.3c0.9-1.2,0.9-2.1,0.8-2.5c0-0.2,0.1-0.3,0.3-0.3c2.2-0.3,9.6-1.9,9.6-1.9c3.8-1.1,5.2-3.2,5.6-3.9
	c0.1-0.1,0.3-0.2,0.4-0.1c1.8,0.9,3.9,4.6,3.9,4.6c-0.7,0.1-0.7,1-0.7,1c0.1-0.1,0.5,0,0.5,0c0,0.1-0.6,0.4-0.6,0.4
	c-0.2,0.2-0.2,0.6-0.2,0.6c0.3-0.5,1-0.4,1-0.4c0.1-0.2,0.7-0.5,0.7-0.5c0.3,0.4,0.1,1.5,0.1,1.5c-0.2,0.5-0.2,1.1-0.2,1.1
	c0-0.4,0.3-0.6,0.3-0.6c0.2-0.5,0.2-1.3,0.2-1.3c0.2-1.2,1-0.2,1-0.2c0,0.2,0.4,0.6,0.4,0.6l1.7,2c0.1,0.1,0.2,0.3,0.2,0.3
	C47.8,36.1,45.8,34,45.8,34z M10.8,33c0,0,0.4-1.1,1.4-0.8C12.2,32.1,12.1,33.5,10.8,33z"/>
</svg>
