<?xml version="1.0" encoding="utf-8"?>
<!-- Generator: Adobe Illustrator 19.1.0, SVG Export Plug-In . SVG Version: 6.00 Build 0)  -->
<svg version="1.1" id="Layer_1" xmlns="http://www.w3.org/2000/svg" xmlns:xlink="http://www.w3.org/1999/xlink" x="0px" y="0px"
	 viewBox="0 0 48 48" style="enable-background:new 0 0 48 48;" xml:space="preserve">
<style type="text/css">
	.st0{fill:#808080;}
</style>
<path class="st0" d="M47.5,12.5c0,0-2.8-1-4.9,0.4c0,0-1.7,0.7-1.8,2.2c0,0.2-0.1,0.3-0.2,0.5c-0.7,0.6-2.9,2.4-3.9,0.3
	c-0.1-0.2-0.1-0.4,0-0.5c0.3-0.6,0.9-2.1,0.2-3.5c0,0-2-3.4-7.3-1.9c0,0-1.9,0.5-3.2,3.1c0,0-0.4-4.6-4-6.2
	c-0.2-0.1-0.4-0.2-0.6-0.3c-1.1-0.7-5.6-3.1-10.6-2.4c-0.1,0-0.1,0-0.2,0c-0.8,0.1-7.4,0.7-9.8,6.2c0,0-2.4,4.6-0.3,8.6
	C0.9,19,0.9,19.2,1,19.3c0.5,1.1,3.1,6.1,11.2,9.5c0,0-3.7,0.3-4,3.1c0,0-0.2,0.8,0.6,2.4c0.3,0.6,0.5,1.2,0.5,1.9
	c0,0.5-0.1,1.1-0.5,1.6c0,0-1.4,1.7-4,2.5c0,0-1.4,1.2-0.8,1.4c0,0,1.5-0.9,2.5-1.2c0,0,2.6-1.2,3.6-2.7c0,0,1-1,0.5-3.8
	c0,0-1.5-3,1.9-2.6c0.2,0,0.3,0,0.5,0c0.6,0,2.4,0.1,3.5,2.8c0,0,0.9,4,4.1,6.8c0,0,4.4,4.2,11,2.8c0,0,4.9-0.6,4.4-6.7
	c0,0-0.3-5.5-8.6-8.5c0,0,6,0.5,6.4-4.8c0-0.2,0.1-0.5,0.1-0.7c0.2-0.8,0.3-3.3-2.2-6c0,0-2.5-2.6-0.3-3.9c0.2-0.1,0.5-0.2,0.8-0.2
	c0.5,0,1.4,0.1,1.7,0.8c0.1,0.3,0.1,0.6,0,0.9c-0.3,0.7-0.9,2.8,1.2,4.3c0,0,1.1,0.9,2.7,0.8c0.8,0,1.6-0.3,2.2-0.8
	c0.7-0.5,2.4-1.7,3.5-1.6c0,0,2.7-0.1,3.8-1.9C47.1,15.4,48.8,13.2,47.5,12.5z M11.2,22.5c0,0-0.1,0-0.1-0.1
	c-5.5-2.6-5.5-7.6-5.5-8.1c0,0,0-0.1,0-0.1c0-4.1,4.4-4.7,5-4.8c0.1,0,0.1,0,0.2,0c5.4-1,9.7,2.3,9.7,2.3c1.7,1.2,0.8,2.8,0.8,2.8
	l-1.5,4.2c-0.1,0.2-0.1,0.4-0.2,0.6c-1,5,2.5,7.3,2.5,7.3S17.1,25.3,11.2,22.5z M27.4,33.8c0,0,4.6,2.4,4.2,4.6c0,0-0.6,3.5-6.7,1
	c-0.1,0-0.1,0-0.1-0.1c-0.5-0.3-3.5-2-4.6-4.7c0-0.1-0.1-0.2-0.1-0.2c-0.1-0.5-0.7-2.8-2.5-3.8C17.7,30.7,25.5,32.5,27.4,33.8z
	 M29.6,23.1c-1.5,2.5-4.6-0.2-4.6-0.2c-1-2.8,1.1-6.5,1.1-6.5c0,0.4,2.4,3.3,2.4,3.3C29.8,20.8,29.6,23.1,29.6,23.1z M46.3,15.7
	c0,0-1.1,0.2-1.4,0.3c0,0-0.4,0.1-0.4-0.4c0,0,0.9-1.6,2.3-1.5l0.5,0C47.4,14.1,47.5,15.5,46.3,15.7z"/>
</svg>
