<?xml version="1.0" encoding="utf-8"?>
<!-- Generator: Adobe Illustrator 19.1.0, SVG Export Plug-In . SVG Version: 6.00 Build 0)  -->
<svg version="1.1" id="Layer_1" xmlns="http://www.w3.org/2000/svg" xmlns:xlink="http://www.w3.org/1999/xlink" x="0px" y="0px"
	 viewBox="0 0 48 48" style="enable-background:new 0 0 48 48;" xml:space="preserve">
<style type="text/css">
	.st0{fill:#808080;}
</style>
<path class="st0" d="M37.2,20.9c0.6-0.3,8.2-2.1,10.8-11.4c-0.1,0.1-4,7.9-9.7,8.7c-0.2,0-0.4,0.1-0.5,0.1
	c-1.7,0.4-9.2,2.1-12.9,4.4c-0.1,0.1-0.2,0.1-0.3,0.2c-1,0.5-6.6,3.7-8,5.7c0,0-2.7,3.5-8.3,4.9c-0.3,0.1-0.5,0.1-0.8,0.1
	c-0.9,0.1-3.2,0.3-4.6,1.5c0,0-0.4-0.4-1.1,0.6c0,0-2,1.1-1.7,1.5c0,0,0,0.1,0,0.1l0,0.3c0,0,0.1-0.2,0.2-0.2l0.2,0l0-0.2
	c0,0,0.2,0.1,0.3,0.2l0-0.4c0,0,0.1,0.2,0.2,0.3c0,0,0.1-0.3,0-0.3c0,0,0.1,0,0.2,0.1c0,0,0.1-0.2,0.1-0.3c0,0,0.1,0,0.2,0.2
	c0,0,0.1-0.2,0-0.2c0,0,0.1,0,0.2,0.1c0,0,0.1-0.2,0.2-0.3l0,0.2c0,0,0.4-0.5,0.6-0.6c0,0,0.9-0.6,0.8-0.2c0,0,0,0.1-0.1,0.1
	c-0.2,0.2-1.2,1.4-2,1.7c0,0,0,0-0.1,0L0.6,38c0,0,0.1,0.2,0.2,0.1c0,0-0.2,0.7,0.7,0.2c0,0,0.9-0.3,1.6-0.9
	c0.2-0.2,0.5-0.4,0.7-0.5c0.6-0.3,1.7-0.8,3.2-0.9c0.1,0,0.2,0,0.2,0c0.8-0.2,5.3-1.1,6.4-1.4c0.1,0,0.1,0,0.2,0
	c0.4-0.1,2.2-0.7,5.4-0.6c0.3,0,0.6,0.1,0.9,0.3c1,0.7,3.8,2.1,6-0.4c0,0-0.1,0-0.5,0.2c0,0-0.1,0-0.1,0c-0.1,0-0.3-0.1-0.1-0.4
	c0,0-1.1,0.5-1.6,0.5c0,0-1.8-0.1-2.2-1c0-0.1,0-0.2,0.1-0.2c0.3-0.2,1.2-0.7,1.5-0.9c0,0,0.1-0.1,0.2-0.1c0.4,0,1.8-0.1,2.5-1
	c0,0-0.3,0.1-0.5,0c0,0,0.1-0.3-0.1-0.2c0,0-0.4-0.1,0.2-0.5c0,0,2.6-2.5,3.4-3.5c0.1-0.1,0.1-0.1,0.2-0.1c0.5-0.1,2.1-0.2,2.6-0.4
	c0,0,0.5-0.3,0.9-0.2c0,0,1.3,0,2.1-0.9c0,0,0.9-0.6,2.9-0.5l-0.1-0.2c0,0,0.1-0.4,0.7-0.5c0,0-0.3-0.1-0.4-0.1c0,0,0.2-0.6,0.6-0.7
	c0,0-0.6,0.1-0.6-0.2l0.2-0.4c0,0-0.6,0.3-1.1,0.1c0,0-0.3,0,0-0.4c0,0-1.1,0.8-1.6,1c0,0-1.9,0.3-2.8,0.7c-0.2,0.1-0.5,0.2-0.8,0.2
	c-0.3,0-0.5-0.1-0.5-0.3c0,0,0.3-0.5,0.8-0.5c0,0,0.8,0.1,1.8-0.3c0.1,0,0.2,0,0.2-0.1c0.5,0,2.3-0.3,3.2-1.4c0,0-0.7-0.2,0.1-0.6
	c0,0-0.3-0.1-0.5,0.1C37.1,21.3,36.5,21.2,37.2,20.9z M2.5,35.6c-0.1,0.1-0.2,0-0.3-0.1c0-0.1,0-0.2,0.2-0.2c0.1-0.1,0.2,0,0.3,0.1
	C2.7,35.5,2.6,35.6,2.5,35.6z"/>
</svg>
