<?xml version="1.0" encoding="utf-8"?>
<!-- Generator: Adobe Illustrator 19.1.0, SVG Export Plug-In . SVG Version: 6.00 Build 0)  -->
<svg version="1.1" id="Layer_1" xmlns="http://www.w3.org/2000/svg" xmlns:xlink="http://www.w3.org/1999/xlink" x="0px" y="0px"
	 viewBox="0 0 48 48" style="enable-background:new 0 0 48 48;" xml:space="preserve">
<style type="text/css">
	.st0{fill:#808080;}
</style>
<path class="st0" d="M47.8,15.4l-3.5-3.1c0,0-0.5-0.9-0.7-1.8c0,0-0.8-1.7-1.9-2.6c0,0-0.3-0.5,0.2-1.3C41.9,6.5,42,6.4,42,6.3
	c0.2-0.3,1-1.4,0.7-1.8c0,0-0.2-0.5-1.3,0.4c0,0,0.3-0.8,0-1c0,0-0.4-0.2-1.1,0.5c0,0-0.9,0.8-2.1,1.3c-0.1,0.1-0.3,0.1-0.4,0.2
	C37.3,6.3,36,7.1,35.3,8c-0.1,0.2-0.3,0.3-0.4,0.5c-0.5,0.4-1.4,1.1-1.5,1.8c0,0-0.9,3.2-5.9,3.8c-0.2,0-0.4,0-0.6,0H13.6
	c0,0-3.2,0-4.7,1.6c-0.2,0.2-0.4,0.3-0.6,0.4c-0.4,0.2-1.1,0.4-1.7,0.4c0,0-3.1,0.1-3.5,3.5c0,0-0.1,3.3-0.8,5.1
	c-0.2,0.6-0.4,1.3-0.5,1.9c-0.2,1-0.4,2.4-0.5,3.3c-0.1,0.6-0.2,1.2-0.5,1.8c-0.4,0.8-0.8,1.9-0.5,2.6l0.4,1c0,0-0.3,1.9,2.1,1.1
	c0,0,0.8,5.4,0.7,5.7c0,0,0,0.9,0.6,0.8c0,0,2.4,0.4,2.7-0.4c0-0.1,0.1-0.2,0.1-0.3c0.2-0.4,0.5-1.3-1.1-1.2c0,0-1.6-3.4-0.1-4.9
	c0,0,1.7,6.2,2.8,6.2c0,0,0.1,0.1,0.2,0.3c0.4,0.6,1.1,1,1.8,1.1c1,0.1,2.3,0.2,2.8,0.1c0,0,0.5,0.1,0.6-0.4c0,0,0.2-0.4,0.4-0.1
	c0,0,0.2-1.6-3-1.2c0,0-5-3.5,0.6-10.8c0,0,1.1-1.5,2-3c0,0,0.7-1.9,2.1-0.6c0,0,1.9,2.2,7.5,0.4c0.7-0.2,1.4-0.3,2.1-0.2
	c0.7,0.1,1.4,0.4,1.6,1.2c0,0,1.8,7,1.6,8.1c0,0-0.1,1,0.5,2.4c0,0,1.2,2.6,1.1,3.6c0,0,0.5,0.7,1.4,0.2c0,0,0.6,0.6,1.4,0.1
	c0,0,0.1,0.4,0.7,0c0,0,0,0.3,0.3,0.3c0,0,0.8,0.1,0.9-0.3c0,0-0.1-0.9,0.6-0.6c0,0,0.1,0.1,0.3,0c0,0,0.4-0.1,0.2-0.5
	c0,0-0.8-1.3-2.3-1.1c0,0-0.6,0.1-1-0.5c0,0-1.4-1.7-1.2-2.9c0,0,0.5-1.3,0.2-2.2c0,0-0.7-7.2,1.3-8.7c0.3-0.3,0.7-0.5,0.9-0.9
	c1.4-1.7,5.1-6.2,5.5-9c0,0,0.2-0.6,0.5-0.2c0,0,2.1,2.9,3.7,1.8c0,0,0.1,0.7,0.6,0.6c0,0,0.3-0.1-0.2-1.1c0-0.1,0-0.1,0-0.2
	c0-0.1,0-0.4-0.3-0.7c0,0-1.4-2.3-1.5-2.4c0,0,1.9,1.2,2.8,1.5c0,0,0.8,0.7,1.6,0.2c0,0,0.3,0.2,0.9-0.5
	C47.7,16.2,48.3,15.8,47.8,15.4z M42.6,11.9c0,0-0.4-0.2-0.6-0.6c0-0.1,0-0.2,0.1-0.3c0.2-0.1,0.5-0.3,0.8,0.2c0,0,0.2,0.4,0.4,0.6
	C43.2,11.8,42.7,11.8,42.6,11.9z"/>
</svg>
