<?xml version="1.0" encoding="utf-8"?>
<!-- Generator: Adobe Illustrator 19.1.0, SVG Export Plug-In . SVG Version: 6.00 Build 0)  -->
<svg version="1.1" id="Layer_1" xmlns="http://www.w3.org/2000/svg" xmlns:xlink="http://www.w3.org/1999/xlink" x="0px" y="0px"
	 viewBox="0 0 48 48" style="enable-background:new 0 0 48 48;" xml:space="preserve">
<style type="text/css">
	.st0{fill:#808080;}
</style>
<path class="st0" d="M43,42.2c0,0-0.3,0.1-0.1-0.4c0-0.1-1-1.5-0.3-1.7c0,0,0.3-0.1-0.3-1.1c-0.2-0.3-0.4-0.7-0.5-1.1
	c-0.8-3-4-15.9-3.4-21.4c0.1-0.6-0.1-1.2-0.4-1.7c-0.1-0.1-0.2-0.2-0.3-0.3c0,0,1.1-1.9-0.7-3.7c-0.1-0.1-0.2-0.3-0.3-0.5
	c-0.2-0.7-0.8-2.7-2.3-3.9c-0.1-0.1-0.3-0.1-0.5,0c-0.5,0.2-1.3,0.9-0.1,1.9c0,0,0.1,0.1,0.1,0.1c0.2,0.3,0.6,1.1,0.7,1.7
	c0.1,0.3-0.2,0.5-0.4,0.4c-0.9-0.2-3.6-0.4-7.1,1c-0.8,0.3-1.8,0.4-2.7,0.2c-0.9-0.2-2.2-0.5-3.3-0.4c-0.7,0-1.4-0.1-2-0.6
	c-1.1-0.8-2.8-2-3.5-2.8c-0.2-0.2-0.2-0.5,0-0.8c0.2-0.3,0.4-0.8,0-1.2c0,0-1.4-2-2-0.7c-0.1,0.2-0.3,0.3-0.5,0.2
	c-0.2-0.1-0.6-0.1-0.7-0.1c0,0,1.7-4.6,6.3-4.2c0,0,0.5-0.6,0.2-0.6c0,0-5.9-1.6-9,4.8c0,0-0.4,0.1-0.3-0.1c0.1-0.2,0.8-4,1.9-5.1
	c0,0-0.1-0.7-0.7-0.1c-0.6,0.6-1.7,1.7-2.5,4.6c0,0-2.9-1.7-3.2-2.5c0,0-0.2-0.2-0.3,0c0,0,0.4,2.4,2.5,4c0,0,0.3,0.1-0.2,0.8
	c0,0-0.9,0.8-0.4,2.9c0.1,0.2,0.1,0.5,0,0.7c-0.2,0.7-0.7,2.3-1.3,3.3c-0.3,0.5-0.4,1.1-0.4,1.7c0,0.5,0.1,1,0.4,1.2
	c0,0,1.2,1.1,1.9,0.5c0.1-0.1,0.2-0.1,0.2-0.2l3-1.7c0.1-0.1,0.3,0,0.3,0.2c0.1,0.5,0.3,1.4,1.3,1.4c0,0-0.1-1.5,0.2-1.6
	c0,0,0.3,2.6,3.4,5.7c0.1,0.1,0.1,0.3,0.1,0.4c-0.3,0.5-0.8,2,1.3,3.5c1,0.7,1.7,1.9,1.8,3.2c0,0,0,0.1,0,0.1c0,0,0.6,5.5,0.6,5.9
	c0,0-0.2,1.3,0.2,2.4c0,0,0.4,5-1.9,7.7c0,0-0.8,1.3-0.3,1.2c0,0,0.9,0,1.3-0.3c0,0-0.2,0.7,0.7,0.5c0,0,1,0,1.2-1.5
	c0,0-0.1-0.4-0.1-0.6c0-0.1,0-0.2,0-0.3l0.1-0.5c0,0,0.9-0.1,0.6-1.2c-0.3-1.2-0.1-5.2-0.1-5.2s0.6-0.8,0.1-2.6
	c-0.1-0.2-0.1-0.5-0.1-0.7l0.3-4.3c0-0.2,0.1-0.3,0.3-0.4c0.5-0.2,1.7-0.6,1.7,0c0,0,0,5.2-1.1,7c0,0-0.3,1.4,0.2,2.6
	c0,0-0.1,3.3-0.3,4.2c0,0-0.5,4.6-0.3,5.1c0,0,0,0.8,1,0.3c0,0,1.1,0.7,1.5-0.4c0,0,0.2-1.2-0.2-2.7c0,0,0.5-0.3,0.2-1
	c0-0.1-0.1-0.2-0.1-0.3c-0.1-0.9-0.5-4.3,0.3-6.7c0-0.1,0.1-0.2,0.1-0.4c0-0.5,0.2-2,0.9-3.1c0.1-0.1,0.1-0.3,0.2-0.4l0.6-3.3
	c0-0.2,0.2-0.3,0.3-0.4c0.8-0.3,3-1,3.8,0.6c0,0,0.9,2.2,0.7,3.6c0,0-0.5,4.2-1.6,5.8c0,0-1.1,1.5-1.1,2c0,0-0.5,0.6,0.3,0.3
	c0,0,1,0.9,2.1-0.4c0,0,0.1-0.1,0-0.4c0,0-0.1-1.9,0.6-1.5c0,0,0.6,0.1,0.1-1.2c0,0,1.1-4.7,1.1-5.8c0-0.1,0-0.2,0.1-0.3
	c0.3-0.3,0.8-1.2-0.3-3.1c-0.1-0.1-0.1-0.3,0.1-0.4c0.7-0.5,2.6-2.1,3.2-3c0.1-0.1,0.3-0.1,0.3,0c0.6,1.3,2.7,5.7,2.9,7.7
	c0,0,0.1,0.6,0.5,1.3c0.3,0.7,0,0.2,0,0.1c0.1,0.1,1.3,2.5,1.2,5.1c0,0,0.2,3.7,0.6,4c0,0,0.1,0.4,0.6,0c0,0,0.5-0.3,0.4,0.2
	C42.2,43.4,43.3,43.8,43,42.2z M11.5,10.1C11.5,10.1,11.5,10.1,11.5,10.1l-0.6,0c-0.1,0-0.1,0-0.1-0.1l0,0c0-0.1,0-0.1,0-0.2
	C11,9.5,11.6,9,12.1,9.4C12.1,9.4,12.1,10,11.5,10.1z"/>
</svg>
