<?xml version="1.0" encoding="utf-8"?>
<!-- Generator: Adobe Illustrator 19.1.0, SVG Export Plug-In . SVG Version: 6.00 Build 0)  -->
<svg version="1.1" id="Layer_1" xmlns="http://www.w3.org/2000/svg" xmlns:xlink="http://www.w3.org/1999/xlink" x="0px" y="0px"
	 viewBox="0 0 48 48" style="enable-background:new 0 0 48 48;" xml:space="preserve">
<style type="text/css">
	.st0{fill:#808080;}
</style>
<path class="st0" d="M45.5,44.8c0,0-3.1-1.3-3.3-1.9c0,0,2.4,1.1,3.1,0.4c0,0-3.8-1.2-3.8-1.7c0,0,2.6,1,2.5,0.2
	c0,0-4.8-1.6-6.4-3.9c-0.3-0.4-0.6-0.8-1-1.1c-2-2-7.7-7.8-8.8-9.2c0,0,2.1-2.8,2.8-1.7c0,0,0.4-0.2,0-0.9c0,0-1.8-1.5-3.5-1
	c0,0-2.1-0.7-2.9-0.4h-0.1c0,0-4.8-4.4-6.6-8.7c-0.4-0.9-0.8-1.7-1.3-2.4c-0.7-0.9-1.5-2.1-1.9-2.5c-0.1-0.2-0.3-0.3-0.4-0.5
	c-0.8-1.1-3.1-4.6-3-7.7c0,0-0.5,1.2-0.4,2.2c0,0-1.1-2.1-1.1-3.6c0,0-0.9,1.1,0.2,4C9.7,4.2,7.5,0.7,7.5,0c0,0-0.5,1.7,0.8,4.1
	c0,0-2.6-2.7-2.7-3.6c0,0.1,0,2.5,1.7,4.6c0,0-3.2-1.9-4.1-3c0,0-0.2,1.8,3.1,4.3c-0.1,0-3.4-1-3.8-1.5c0,0,0.6,1.8,3.1,3.2
	c0,0-2.3,0.4-2.8-0.2c0,0-0.1,0.9,1.8,1.7c0,0-0.7,0.5-1.2,0.5c0,0-0.2,0.6,1.2,1.2c0,0-0.1,0.5-0.3,0.7c0,0,0,0.7,0.7,0.9
	c0.2,0.1,0.3,0.2,0.3,0.4c0,0.4,0.2,1.1,0.7,1.6c0.1,0.1,0.2,0.3,0.2,0.5c0,0.3,0,0.7,0.4,1.3c0.1,0.1,0.1,0.2,0.1,0.4
	c0,0.3,0,1.1,0.5,1.4c0.1,0.1,0.2,0.2,0.2,0.4c0,0.4,0,1.3,0.7,1.4l0.1,0.9c0,0.2,0.1,0.3,0.3,0.3c0.1,0,0.2,0.1,0.3,0.2l0.1,0.8
	c0,0.2,0.1,0.3,0.3,0.4c0.2,0.1,0.5,0.2,0.7,0.4l0.1,0.7c0,0.1,0.1,0.2,0.2,0.3c0.1,0,0.3,0.1,0.6,0.4c0,0-0.1,1.2,0.9,1.2l0.4,0.8
	c0,0,0.8-0.1,1.2,0.5c0.1,0.1,0.2,0.2,0.3,0.2c0.4,0.1,1.2,0.2,1.4,0.4c0,0-3,1.6-9.2,2.4c0,0-0.7,0.1,0,1.3c0,0-0.3,0.9,0.5,1.6
	c0,0,0.1,0.9,0.9,1.3c0,0,0.1,0.9,0.9,1c0,0,0.3,1.2,1.4,1.2c0,0,1.4,1.8,2.4,1c0,0,4.5-5.7,6.5-5.9c0,0-0.2,1,0.3,1.2l0,1.1
	c0,0,0.4-0.3,0.6,0.1l0.2,1.4c0,0,0.5-0.4,0.8,0.3c0,0-0.2,1.4,0.9,1.5c0,0,0.1,1.6,1.4,1.3c0,0,0.3,1.6,1.7,1.3
	c0,0,0.1,1.8,1.8,1.1c0,0,0.2,1.4,1.9,1.2c0,0,2,1.9,3,1.9c0,0,0.8,1.3,1.4,0.8c0,0,0.9,1.1,1.3,0.6c0,0,0.9,1.4,1.2,0.3l1.2,1.2
	c0,0,0.7-0.4,0.4-1.4c0.1,0.1,1.1,2.3,2.1,2c0,0-0.8-1.9-0.6-2.3c0,0,1.8,2.6,2.6,2.3c0,0-1.3-2.5-1.2-2.7c0,0,1.7,2.3,2.8,2.2
	c0,0-2-2.8-1.8-3.2c0,0,1.9,2.6,3.6,2.3c0,0-2.8-2.7-2.8-3C41.2,43.5,43.9,45.5,45.5,44.8z M29.8,24.8c0,0-1.1,0.3-1.3-0.3
	C28.5,24.5,29.3,24.4,29.8,24.8z"/>
</svg>
