<?xml version="1.0" encoding="utf-8"?>
<!-- Generator: Adobe Illustrator 19.1.0, SVG Export Plug-In . SVG Version: 6.00 Build 0)  -->
<svg version="1.1" id="Layer_1" xmlns="http://www.w3.org/2000/svg" xmlns:xlink="http://www.w3.org/1999/xlink" x="0px" y="0px"
	 viewBox="0 0 48 48" style="enable-background:new 0 0 48 48;" xml:space="preserve">
<style type="text/css">
	.st0{fill:#808080;}
</style>
<path class="st0" d="M47.9,20.1c0,0-0.1,0.6-0.3,0.6l-0.2,0c0,0,0.3-0.9,0-1c0,0-0.1,0.9-0.3,0.9l-0.3,0c0,0,0.1-0.8-0.1-0.8
	c0,0-0.2,0.7-0.4,0.7l-0.3,0c0,0,0.2-0.8,0-0.8c0,0-0.1,0.7-0.3,0.7l-0.2,0c0,0,0.1-1-0.2-1l0,1l-0.1,0l0-0.7c0,0-0.1,0-0.1,0.2
	l0,0.5l-0.1,0c0,0,0.1-0.5-0.1-0.6c0,0,0,0,0,0l0,0.5l-0.1,0c0,0,0.1-0.5-0.1-0.5c0,0,0,0.5-0.1,0.5c0,0-0.1,0-0.1,0
	s0.1-0.5-0.1-0.5c0,0,0,0.4-0.1,0.4l-0.1,0c0,0,0.1-0.4-0.1-0.4c0,0,0,0.3,0,0.3l-0.2,0c0,0,0.1-0.5,0-0.5c0,0-0.1,0.2-0.1,0.4
	l-0.1,0c0,0,0-0.5-0.1-0.5l0,0.4h-0.1c0,0,0.1-0.5-0.1-0.5c0,0,0,0.4,0,0.4c0,0-0.1-0.4-0.1-0.3v0.3l-0.2,0c0,0,0.1-0.5-0.1-0.4
	l0,0.3l-0.1,0c0,0,0-0.4-0.1-0.3l0,0.4l-0.1,0c0,0,0.1-0.4-0.1-0.3l0,0.3l-0.1-0.1c0,0,0.1-0.5-0.1-0.5l0,0.4l-0.1,0
	c0,0,0.1-0.5-0.1-0.5l0,0.4l-0.2,0c0,0,0.1-0.5-0.1-0.4l0,0.3l-0.1,0c0,0,0.1-0.3-0.1-0.3l0,0.3l-0.1,0c0,0,0-0.4-0.1-0.3
	c0,0,0,0.3,0,0.3c0,0-0.1,0-0.1,0s0-0.3-0.1-0.3l0,0.2h-0.1c0,0,0-0.3-0.1-0.3v0.2c0,0-0.1,0-0.1,0c0,0-0.1-0.2-0.2-0.3l0,0.2
	l-0.1,0c0,0,0-0.3-0.1-0.2l0,0.2l-0.1,0c0,0,0-0.3-0.2-0.3l0,0.2l-0.1-0.1c0,0,0-0.2-0.1-0.2l0,0.2c0,0-0.1,0-0.1-0.1
	c0,0,0-0.2-0.1-0.2c0,0,0,0.2,0,0.2c0,0-0.1-0.3-0.2-0.3l0,0.2c0,0-0.5-0.2-0.5-0.4c0,0,0.2,0,0.2-0.2c0,0,0.1-0.1,0.1,0.1
	c0,0,0.1-0.1,0.1-0.4c0,0,0.1,0,0.1,0.3c0,0,0.1,0,0.1-0.3c0,0,0.1,0.1,0.1,0.3c0,0,0.1-0.1,0.1-0.3c0,0,0.1,0,0.1,0.3
	c0,0,0.1-0.1,0.1-0.4c0,0,0.1-0.2,0.2,0.3c0,0,0.1,0.1,0.1-0.3c0,0,0.2,0,0.1,0.2c0,0,0.1,0,0.1-0.3c0,0,0.4,0.3,0.5,1
	c0,0,0.2-0.7-0.2-1.1l0.3-0.1c0,0,0.1,0.4,0,0.5c0,0,0.1-0.1,0.1-0.5c0,0,0.3,0.2,0.4,1.2c0,0,0.3-0.7-0.1-1.3c0,0,2.2-0.6,2.3-0.9
	c0,0,0.5,0.8,0.5,1c0-0.1,0-0.8-0.2-1.1l0.4-0.1c0,0,0.4,0.7,0.4,0.8c0,0,0.1-0.4-0.2-0.9l0.1,0c0,0,0.2,0.5,0.3,0.5l0-0.4
	c0,0,0.5,0.7,0.5,0.8c0,0,0.1-0.4-0.1-0.8c0,0,0.3,0,0.1-0.4c0,0,0.2-0.2,0.3-0.1c0,0,0.4,0.4,0.5,0.5c0,0,0-0.4-0.2-0.7
	c0,0,0.7,0.7,0.8,0.7c0,0-0.2-0.6-0.3-0.8c0,0,0.5,0.5,0.6,0.4c0,0-0.4-1.1-0.6-0.8c0,0-0.7-1.3-2.6-0.6c0,0-1.1,0.4-3,0.3
	c0,0-0.9-0.3-1.6,0.1c-0.1,0-0.1,0.1-0.2,0.1c-0.4,0.1-1.8,0.5-3.3,0.6c0,0-0.5-0.6-1.2-0.1c0,0-2.2-0.9-5.1,1.9
	c-0.1,0.1-0.2,0.1-0.2,0.2c-0.4,0.3-1.5,1.3-1.9,2.1c0,0.1-0.1,0.1-0.1,0.2c-0.3,0.5-1.7,2.6-2.9,2c-0.1,0-0.2-0.1-0.3-0.2l-2-1.8
	c-0.2-0.2-0.2-0.5,0.1-0.6c0.4-0.2,0.9-0.5,1.4-0.4c0,0,2.6-0.8,2.6-1.1c0,0,0.1-0.2,0.3-0.2c0,0-0.1-0.1-0.6,0c0,0-0.6,0.1-0.1-0.2
	c0,0,0.6-0.2,0.6-0.4c0,0,0-0.1,0.2-0.1c0,0-0.1-0.2-0.4-0.1c0,0-0.3,0-0.1-0.3c0,0-0.1-0.2-0.4,0c0,0-0.5-0.1-0.1-0.3
	c0,0-0.1-0.2-0.5,0l-0.8,0c0,0,0-0.1,0.1-0.2c0,0-0.3-0.2-0.5,0.2c0,0-1.6,1.1-1.7,1.3c0,0-1.8-0.1-2.1,0.4c0,0-2.2-2-3.8-3
	c-0.5-0.3-0.6-1.1,0-1.5c0.5-0.4,1.4-0.9,2.7-1.4c0,0,4.1-1.4,4.4-1.7c0,0,0.2-0.4-0.3-0.4c0,0-7.2,1.4-8.8,2.7c0,0-1,0.2-1.1,1
	c0,0.2-0.1,0.3-0.3,0.4c-0.7,0.4-2.7,1.7-2.7,3.7c0,0-0.7,0.1-2.2,1.1c-0.2,0.1-0.5,0.2-0.8,0.1c-0.3-0.1-0.9-0.2-1.8,0.1
	c0,0-1.7-0.6-2.7-1.1c0,0-0.3-0.1-0.5,0c0,0,0.4,0.1,0.1,0.2c0,0-1.2-0.1-1.4,0.1c0,0,0.5,0,0,0.4c0,0-0.4-0.2-0.6,0.1
	c0,0,0.5-0.1,0.2,0.3c0,0-0.6,0-0.6,0.1l0.3,0c0,0-0.1,0.4,1.2,0.5c0,0-0.7,0.1-1,0.1c0,0-0.1,0.1,0.4,0.2c0,0,0,0.4,1.3,0.5
	c0,0,1.3,0.1,2.3,0.2c0.2,0,0.3,0,0.5,0.1c0.4,0.1,1.1,0.2,1.6,0.3c0.1,0,2.3,0.1,3.3,0.1c0.2,0,0.4,0.1,0.5,0.4
	c0.2,0.8,1.1,2.7,4.5,5.2c0.3,0.2,0.3,0.7,0,0.9c-1.3,0.9-3.9,2.9-3.4,4.6c0.1,0.3,0.3,0.5,0.5,0.7c0.5,0.3,1.4,1,1.3,2
	c0,0,0,2.1,0.3,2.3c0,0,0.3-0.4,0.6,0.2c0,0,0.1,0.2,0.4,0.2c0,0,0.1-0.8,0.7-0.4c0,0,0-0.8,0.7-0.4c0,0-0.5-1.9,0.5-1.2
	c0,0,0.2-0.4-0.1-0.8c0,0-1.2-1.7-1.8-2.9c-0.2-0.4,0-0.8,0.3-1c0.8-0.5,2.4-1.2,4.1-0.9c0.1,0,0.8-0.3,2.2-1.6c0,0,0.1-0.1,0.1-0.1
	c0.1-0.1,0.4-0.4,1-0.1c0,0,1.5,0.6,2.1-0.1c0.1-0.2,0.3-0.3,0.5-0.3c0.5-0.1,1.2-0.3,1.8-0.6c0.2-0.1,0.5-0.2,0.7-0.1
	c0.6,0.2,1.8,0.7,2.7,1.3c0,0,1,0.7,1.7,0.6c0,0,0.2,0.1,0.4,0.1c0,0-0.7-0.4-0.1-0.5c0,0,1.2,0.6,1.3,0.3l0.2,0.2
	c0,0-0.1-0.2-0.2-0.3c0,0,0.3-0.3,0.6-0.1c0,0-0.4-0.4,0.4-0.4c0,0-0.1-0.2-0.3-0.2c0,0-0.8-0.4-0.2-0.4c0,0,0.1-0.4-2.2-0.5
	c0,0-0.6-0.2-1.4-0.1c0,0-0.7-0.2-1.3-0.5c-0.3-0.2-0.4-0.6-0.2-0.9c0.7-0.9,2.3-2.6,3.7-2.6c0,0,0.7-0.1,1-0.4c0,0,1.5-1.1,2.4-0.5
	c0,0,0.8,0.1,2.1-0.2c0,0,2.9,0,5.2,0c0.1,0,4.1,2,4.6-0.9C47.9,20.9,48.1,20.3,47.9,20.1z M38.8,16.3c0-0.2,0.2-0.3,0.5-0.3
	c0.2,0,0.5,0.2,0.5,0.3c0,0.2-0.2,0.3-0.5,0.3C39,16.6,38.8,16.5,38.8,16.3z"/>
</svg>
