<?xml version="1.0" encoding="utf-8"?>
<!-- Generator: Adobe Illustrator 19.1.0, SVG Export Plug-In . SVG Version: 6.00 Build 0)  -->
<svg version="1.1" id="Layer_1" xmlns="http://www.w3.org/2000/svg" xmlns:xlink="http://www.w3.org/1999/xlink" x="0px" y="0px"
	 viewBox="0 0 48 48" style="enable-background:new 0 0 48 48;" xml:space="preserve">
<style type="text/css">
	.st0{fill:#808080;}
</style>
<path class="st0" d="M46.6,39l-1-0.2c0,0,1.4-0.4,1.1-3.6c0-0.1,0-0.2,0-0.3c0-0.5-0.2-2.3-1.7-4.2c-0.1-0.1-0.2-0.2-0.3-0.4
	c-0.4-0.6-2-2.5-6-4.3c0,0-1.9-4.8-3.2-4.4c0,0-0.6-0.3-1.2-0.4c-0.4-0.1-0.9,0.1-1,0.5c-0.6,1.8-2.7,7.9-2.5,8.7c0.2,1,0,0.2,0,0.2
	s-0.7-0.3-0.5-3.1c0,0,0.4-1-1.5-1.8c0,0,0.4-1-0.4-1.2c0,0-0.7-0.2-0.8,0.9c0,0-0.5,0.2-0.5-0.8c0,0-1.4-4.9-6.8-2.8
	c-0.2,0.1-0.4,0-0.4-0.2c-0.1-1.1-0.9-4.3-6.1-3.3c-0.2,0-0.4-0.1-0.3-0.3c0.1-0.3,0.2-0.7,0.4-1c0,0,1.4-1.8,1.1-2.7
	c0,0-2.1-3.8-2.3-4.7c0,0-1.5-4-2.9-3.7c0,0,0,0.2,0.7,0.9c0.1,0.1,0.1,0.2,0.2,0.3c0.4,0.6,1.7,3.1,2.2,4.3c0,0.1,0.1,0.1,0.1,0.2
	c0.3,0.4,1.7,2.5,1.5,2.8c0,0-1.6,3.5-1.4,3.9l-0.2,0.2c-0.1,0.1-0.3,0-0.3-0.1c0-0.6-0.2-1.8-1.2-2.7l-3.4-3.6L3.6,8
	c0,0-2-1.8-3.6-1.3c0,0-0.4,0.4,0.4,0.5c0,0,1.9,0.1,2.7,1l5.9,6c0,0,0.2,0.7,1,1c0,0,2.2,2.1,1.8,4c0,0-3.4,1.5-2.2,2.4
	c0,0-1.1-0.1-1.5,0.6c0,0-0.9-0.3-1.7,1.5c0,0-0.7,1.6,1,0.6C7.7,24,7.8,24,8,24c0.4,0.1,1.2,0.1,2.1-0.2c0.2-0.1,0.5,0,0.6,0.2
	c0.2,0.2,0.5,0.5,0.6,0.6c0,0,0.4,0.7,0.6,0.6c0,0-0.5-0.7-0.2-0.6c0,0,0.3,0.5,0.5,0.4l0.1-0.2c0,0,1.1,0,1.3,0.1
	c0,0,0.7,1.2,0.8,1.1c0,0-0.3-0.8-0.6-1.1c0,0,0.2-0.2,0.4,0c0,0,0.7,0.3,0.6,0.2c0,0-0.8-0.5-1.2-0.4l-0.1-0.2c0,0,3,0.3,4-0.7
	c0,0,0.4-0.3,0.7,0.3c0,0,0.1,0.5,0.8,0.6c0,0,1,0.5,1.3,1.2c0,0-1.6-0.7-2.1,0c0,0-1.4-0.9-2.1,0.6c0,0-2.8,6.3-2.4,7.3
	c0,0-1,0.5-1,2c0,0,0,1.5-0.5,2.6c0,0-1.5,2.1-2.4,1.5c0,0-1.5-0.7-1.7,0.7c0,0,0.7-1.2,1.8-0.1c0,0,1.7-0.1,2.8-2.1
	c0,0,0.1-3.2,1-4c0,0,0.8-2.1,0.9,0.1c0,0,0.4-0.7,0.1-1.6c0,0,1.7-5.5,1.6-6c0,0-0.1-0.9,1.3-0.3c0,0,0.3,0,0.1,0.4
	c0,0-1.5,6.1-1.3,6.5c0,0,0.2,0,0,0.3c0,0-0.6,0.6-0.5,1.3c0,0-0.1,3,0.1,3.2l-0.6,1.1h0c0.1,0,0.1,0.1,0,0.2
	c-0.2,0.2-0.5,0.6-0.7,0.8c-0.1,0.1-0.2,0.2-0.4,0.1c-0.4,0-1.4,0-1.4,0.9c0,0,0.4-0.4,0.6,0.3c0,0,0-0.8,0.3-0.8
	c0,0,0.7,0.5,1.4-0.5c0,0,1.4-1.1,1-2c0,0,0.2-0.1,0.4,0.1c0,0-0.2-3.3,0.2-3.9c0,0,0.3-0.6,0.2-1c0,0,0.4-0.7,0.5,0.4
	c0,0,0,0.6,0.1,0.8c0,0,0-0.8,0.1-1c0,0,0.1-0.7-0.2-0.8c0,0,0.8-3.6,0.9-5c0-0.1,0.2-0.2,0.3-0.1c0.7,0.9,2.7,3.1,4,3.1
	c0,0,0.1,0,0.1,0c0,0,0,0,0.1,0l-2,6.4c0,0,0,0.1,0,0.1c-0.1,0.3-0.8,1.2-2.1,1.7c0,0-1.6-0.7-1.6,0.6c0,0,0.6-0.3,1.1-0.1
	c0,0,3,0.2,3.3-2c0-0.1,1.5-5.3,1.9-6.6c0.5,0.1,1.1,0.2,1.1-0.8l0-0.9c0-0.2,0.2-0.2,0.3-0.1c0.3,0.5,0.7,1.2,0.5,1.4
	c0,0-0.3,0.5-0.1,1.4c0.1,0.2,0.1,0.3,0,0.5c-0.1,0.3-0.2,0.8,0,1.2L24,38.6l-0.3,0.9c0,0-1.2,1.8-1.4,1.9c0,0-0.3,0.5-0.7-0.1
	c0,0-0.4-0.4-0.9,0L20.3,42c0,0,1-0.6,1.4-0.1c0,0,0.9,0.4,1.6-0.7c0,0,0.8-2,0.9-1.3l0.1-0.6c0,0,1.3-5.2,1.6-5l0.3,0.6
	c0-0.1-0.4-1.5,0.2-1.8c0,0,1.1,0.3,1.3-0.4c0,0,0-0.6,0.1-1c0.1-0.2,0.4-0.2,0.4,0c0,0.1,0,0.2-0.1,0.3c0,0-0.3,0.6,0,1
	c0,0,1.5,1.8,3.3,0.6c0,0,0.5-0.2,0.8-0.5c0.1-0.1,0.2-0.2,0.3-0.2c0.1,0,0.2-0.1,0.3-0.1c0,0,0.2-0.2,0.3,0.2c0,0,0.8,3,2.3,3.1
	c0.2,0,0.3,0.1,0.4,0.2c0.4,0.4,1.4,1.4,2.3,1.5c0.1,0,0.2,0.1,0.3,0.2c0.4,0.3,1.3,1.1,2.1,1.1c0.1,0,0.2,0,0.3,0.1
	c0.2,0.1,0.7,0.3,0.7,0.8c0,0,0.2-0.3,0.4-0.1c0,0,1,0.9,1.2,1.4c0,0,0.3-0.5,0.9,0c0,0,0.6,0.7,1.5,0.2c0,0,0.8-0.3,1.1,0.3
	c0,0-0.2-1.1-1.5-0.4c0,0-2.4-0.6-2.9-1.6c0,0,1-0.2,1.8,0.4l1.2-1.1c0,0,0.7,0.6,1.5,0.3c0,0,0.4-0.7,1.2,0.1
	C48,39.4,47.5,38.5,46.6,39z M16.2,20.5c0,0-1-0.4,0-1.3c0,0,1.9-0.6,2.2,0.7C18.4,20,16.9,21.1,16.2,20.5z M33.6,24.1l0.7-2.2
	c0.4-0.5,0.6,0.2,0.6,0.2L33.6,24.1z M34.7,26.4c0.8-3.1,1.5-3.4,1.5-3.4l0.8,2.9C35.8,25.8,34.7,26.4,34.7,26.4z"/>
</svg>
