<?xml version="1.0" encoding="utf-8"?>
<!-- Generator: Adobe Illustrator 19.1.0, SVG Export Plug-In . SVG Version: 6.00 Build 0)  -->
<svg version="1.1" id="Layer_1" xmlns="http://www.w3.org/2000/svg" xmlns:xlink="http://www.w3.org/1999/xlink" x="0px" y="0px"
	 viewBox="0 0 48 48" style="enable-background:new 0 0 48 48;" xml:space="preserve">
<style type="text/css">
	.st0{fill:#808080;}
</style>
<path class="st0" d="M47.8,32.4c-0.3-0.1-0.9-0.2-1.4-0.1c0,0,1.3-0.6,1.4-0.6c0,0-0.5-0.1-0.9,0.1c-0.1,0.1-0.3,0.1-0.4,0.1
	c-1.1,0-6,0-13.8-3.9c-0.2-0.1-0.4-0.2-0.6-0.3l-11.3-7.3c-0.9-0.6-1.5-1.3-1.9-2.3c-0.2-0.5-0.4-1-0.5-1.7l-2.6-8
	c-0.1-0.4-0.2-0.8-0.3-1.2c-0.2-1.3-0.9-4.4-2.2-5.5c0,0-4.6-4-7.4,0.5c0,0-0.2,0.4-1,1L3.3,4C3.2,4,0.8,5.3,0.7,5.3
	c0,0-0.9,0.5-0.3,1c0,0,0.4-0.4,0.2,0c0,0-0.3,0.3-0.1,0.2c0,0,3.8,0,4.9-0.4c0,0,0.4-0.1,1,0.2C7,6.6,12,7.5,10.7,13.5
	c0,0.1-0.1,0.3-0.1,0.4c-0.1,0.7-0.4,3.1-0.5,4.6c-0.1,0.6-0.2,1.3-0.3,1.9c-0.6,2.3-1.6,8.4,2.2,12c0.1,0.1,0.3,0.2,0.4,0.4l9,7
	c0.3,0.2,0.4,0.6,0.4,1c-0.1,0.3-0.2,0.6-0.4,0.9c0,0-1.9,2.9-1.7,3.2c0,0,0.2,0.5-1.4,0.6c0,0-5.5,0.1-5.6,0.8c0,0,1.1-0.2,1.1,0.1
	c0,0-0.8,0.4-0.7,0.7c0,0.1,0,0.2,0.1,0.2c0,0,0-0.1,0-0.1s0.4-0.4,0.5-0.3c0,0,0,0,0,0c0,0,0,0.2,0.2,0.1l3.9-0.1
	c0.2,0,0.3,0,0.5,0.1c0.2,0.1,0.5,0.1,0.8,0c0,0,2.4-0.2,2.3-1.3l0.3-0.1c0,0,0.4,1.1,0.9,0.4c0,0,0.1,0,0.1,0.3
	c0,0,0.4-0.2-0.3-0.8c0,0-0.6-0.7-0.3-1.2c0,0,1.1-2.8,1.2-3.3c0,0,3.8,3.3,6.3,2.5c0,0-0.4,1.8,0.1,2.1c0,0,0,0,0,0
	c0,0.1-0.4,0.7-3.8,0.6c0,0-0.5,0-0.5,0.4c0,0,0,0,0,0c-0.1,0-2-0.1-2.2,0.2c0,0-0.9,0.1-1,0.6c0,0,0.4-0.3,0.6-0.1
	c0,0,0.2,0.2,0.9,0c0,0,1.1-0.2,0.9,0.3c0,0-0.3,0.5,1,0.3c0,0,6.1-0.1,5.8-1.6c0,0,1.1,0.2,0.4-0.7c0,0-0.7-2.4-0.5-2.3
	c0.1,0,7.4-1.6,11-6.8c0.1-0.1,0.3-0.3,0.4-0.3c0.2-0.1,0.5-0.1,0.6-0.1c0,0-0.3-0.1,0.3-0.4c0,0,1.8,0,2.3-0.6c0,0,0-0.1,0-0.1
	c-0.4-0.1-1.7-0.5-1.6-0.6c0,0,2.4-0.2,2.9-0.6c0,0,0-0.1,0-0.1c-0.4-0.1-1.9-0.4-1.7-0.6C45.6,33.2,47.2,32.5,47.8,32.4
	C47.9,32.4,47.9,32.4,47.8,32.4z M9.8,2c0,0-1.5,0.3-1.4-0.1c0,0,0.5-0.9,1-0.5C9.4,1.5,10.2,2,9.8,2z"/>
</svg>
