<?xml version="1.0" encoding="utf-8"?>
<!-- Generator: Adobe Illustrator 19.1.0, SVG Export Plug-In . SVG Version: 6.00 Build 0)  -->
<svg version="1.1" id="Layer_1" xmlns="http://www.w3.org/2000/svg" xmlns:xlink="http://www.w3.org/1999/xlink" x="0px" y="0px"
	 viewBox="0 0 48 48" style="enable-background:new 0 0 48 48;" xml:space="preserve">
<style type="text/css">
	.st0{fill:#808080;}
</style>
<path class="st0" d="M28.9,42.4c0.1-0.1,0.4,3.8,1.4,4c0,0,2.3,0.6,4,0.4c0,0,1.4-0.1,1.7,0.1c0,0-0.2-0.5,0.4-0.5
	c0,0,1.7,0,1.4-0.3c0,0,0.3,0,0.4,0c0,0-0.1-0.4-1.1-0.5c0,0-1.4,0.1-1.7,0c0,0,0.2-0.4-1-0.3c0,0-2.3,0.5-3-0.3
	c0,0-0.1-0.2-0.1-0.4c0-0.2,0.2-0.2,0.4-0.1c0.1,0.2,0.4,0.4,1.1,0.3c0,0,2.7,0.1,2.9,0.2c0,0,0.1,0,0.2,0c0.1,0,0.2-0.1,0.2-0.2
	c0,0,0,0,0,0c0,0,2.7-0.7,3.2-0.4c0,0-0.8-0.8-2.3-1c0,0-0.1,0-0.1,0c-0.5,0-4,0.4-3.9-0.2c0,0,0.2-0.4-0.2-1.2
	c-0.1-0.3-0.1-0.7,0.2-0.9c2.4-2.2,12.7-12.4,8.4-20.5c-0.1-0.2-0.2-0.4-0.3-0.6c-0.8-1.2-5.8-9.8,0.9-12.6C42.4,7,43.2,7,43.8,7.2
	C45,7.6,46.9,8.1,47.7,8c0,0,0.1,0.3,0.2,0.1c0,0,0.2-0.7-0.5-1c0,0-4.2-3-4-3.3c0,0-1-3.8-5.5-2.3c-0.3,0.1-0.5,0.2-0.8,0.2
	c-0.6,0.1-2.2,1-3.6,6c-0.1,0.4-0.5,0.7-0.9,0.7c-0.6,0-1.7-0.1-3-0.2c0,0-0.5-0.1-0.6,0.2c0,0.1-0.1,0.2-0.2,0.2
	c-0.4-0.1-1.1-0.2-1.1,0c0,0,0.1,0.6,0.4,0.8c0,0-1.4-0.1-1.3,0.3c0,0,0.4,0.8,0.2,0.8c0,0-0.8,0.1-0.8,0.2c0,0-0.1,0.6,0.5,1
	c0,0-1.1,0.2-1,0.4c0,0,0.6,0.7,0.4,0.8c0,0-0.4,0.1-0.3,0.3c0,0,0.5,0.9-0.3,1.1c0,0-1.2-0.6-1.6-1c0-0.1-0.1-0.1-0.1-0.2
	c-0.1-0.2-0.5-1-2.7-1.1c0,0-2.5-2.2-5.6-2.6c0,0,0,0.4-1.2,0C14.6,9.3,2.3,5,1,4.8c0,0,0,0,0,0C1.3,5,2.5,5.5,2.5,5.6
	c0,0-2.4-0.6-2.5-0.5c-0.1,0.1,0,0,0,0s1.3,0.6,1.3,0.6L0,5.8c0,0,0,0,0,0c0.4,0.2,1.8,0.9,2.6,1c0,0,0.2,0.2-0.7,0.1
	c0,0,0.6,0.6,1.4,0.6c0,0,1.2-0.4,0.4,0.1c0,0-0.2,0.3,0.7,0.3c0,0,6.8,0.7,7.4,1.7c0.1,0.1,0,0.3-0.2,0.3c-1.1-0.1-6.9-0.6-6.3,0
	c0,0,1.7,0.9,2.9,0.9c0,0,0.6,0.1,0.2,0.2c0,0-1.4,0-0.8,0.4c0,0,1.1,0.9,2.5,1c0,0,0.1,0-0.2,0.2c0,0-0.6,0.3-0.4,0.4
	c0,0,1.9,1,2.1,1.3c0,0,0.4,0.6,1.1,0.7c0.1,0,0.2,0.1,0.1,0.2c0,0.2,0,0.6,0.5,0.7c0.1,0,0.1,0.1,0.1,0.2c0,0.3,0,0.7,0.7,0.6
	c0.1,0,0.2,0.1,0.2,0.2c0,0.3,0.1,0.7,0.5,0.8c0.1,0,0.2,0.1,0.2,0.2c0,0.2,0,0.6,0.8,0.6c0.1,0,0.3,0.1,0.2,0.3c0,0,0,0,0,0
	c0,0-0.5,2.5,0.7,2.3c0.1,0,0.1,0,0.2-0.1l0.8-1.1c0.1-0.1,0.3-0.1,0.4,0c0.1,0.2,0.1,0.4-0.2,0.5c0,0-0.9,0.8-0.6,2.1
	c0,0.1,0.1,0.2,0.3,0.2c0.3-0.1,0.9-0.2,0.8,0.1c0,0-0.3,2,0.5,1.9c0,0,0,0.8,0.1,1.1c0,0.1,0.1,0.2,0.2,0.1c0.3-0.1,0.9-0.2,1,0
	c0,0,0.2,0.6,0.4,1c0.1,0.2,0.1,0.3,0.1,0.5c-0.1,0.4-0.2,0.9-0.1,1.1c0,0,0.4-0.2,0.6-0.3c0.1-0.1,0.3-0.1,0.4-0.1
	c0.5,0.2,1.6,0.4,2.8,0c0.1,0,0.2,0.1,0.1,0.2c-0.1,0.2-0.2,0.4-0.2,0.4c0,0,0.6-0.2,0.7-0.3c0,0,0.9-0.1,0.6,0.5
	c0,0-3.1,3.8-3.7,5.3c-0.2,0.6-0.6,1.1-1,1.6c-0.4,0.4-0.9,0.9-1.7,1.4c-0.3,0.2-0.6,0.5-0.9,0.8c-0.3,0.4-0.7,0.8-0.9,1.2
	c-0.3,0.4-0.7,0.7-1.2,0.8c-0.5,0.1-1.3,0.1-2.4-0.1c-0.1,0-0.1,0.1-0.1,0.1c0,0.1,0.2,0.3,0.8,0.7c0,0-0.1,0.2-1.4,0
	c0,0-0.1,0-0.1,0.1c0,0.1,0.2,0.2,0.5,0.3l-0.9-0.1c0,0,0,0,0,0.1c0.1,0.1,0.4,0.2,0.8,0.2c0,0,1,0,1.3,0.3c0.1,0.1,0.2,0.1,0.3,0.1
	c0.5-0.1,2.1-0.4,3.5,0.1C25.1,43.9,28.9,42.4,28.9,42.4z M41,3.1c-1,0.2-1-0.4-1-0.4c0.4-0.7,1.2,0.1,1.2,0.1
	C41.4,3.1,41,3.1,41,3.1z"/>
</svg>
