<?xml version="1.0" encoding="utf-8"?>
<!-- Generator: Adobe Illustrator 19.1.0, SVG Export Plug-In . SVG Version: 6.00 Build 0)  -->
<svg version="1.1" id="Layer_1" xmlns="http://www.w3.org/2000/svg" xmlns:xlink="http://www.w3.org/1999/xlink" x="0px" y="0px"
	 viewBox="0 0 48 48" style="enable-background:new 0 0 48 48;" xml:space="preserve">
<style type="text/css">
	.st0{fill:#808080;}
</style>
<path class="st0" d="M43,21.7c-0.3-0.2-0.3-0.6-0.1-0.9c0.8-1.2,2.5-4.2,2.5-8.3c0-0.9,0.1-1.7,0.2-2.6c0.2-1.2,0.5-3,0.3-3.7
	c0-0.1,0-0.1,0-0.2c-0.1-0.7-1.1-4.6-9.4-0.4c0,0-7.1,3.4-8.4,17.7c0,0-0.1-0.3-0.3-0.3c0,0-0.1-0.1-0.1-0.1c0-0.3,0.1-1-0.6-1.1
	c0,0,0,0,0,0c-0.1-0.1-0.3-0.4-0.3-0.4s-0.2-0.2-0.2-0.3c0,0-0.3-0.8-0.3-0.9c0-0.1-0.1-1.2-0.1-1.2l0-1.1l0.1-1.1l0.1-1l0.1-1.2
	c0,0,0-0.9,0-0.9s-0.1-0.7-0.1-0.8c0-0.1-0.2-0.6-0.3-0.7c-0.1-0.1-0.4-0.5-0.5-0.6c-0.1-0.1-0.2-0.3-0.2-0.3C25,11,25,11.4,25,11.4
	c0,0.2,0.5,0.4,0.5,0.4l0.5,0.7c0.3,0.4,0.4,1.4,0.4,1.4c0,0.2-0.2,2-0.2,2L26,17.2l0,1.7c-0.1,0.5,0.1,1.3,0.1,1.3
	c0.1,0.6,0.5,1.1,0.5,1.1l0.1,0.5c-0.1,0-0.3,0.1-0.4,0.2l-0.5-1.2c0-0.1-0.6-0.8-0.6-0.8l-1.1-1l-1.5-1.2c0,0-1.1-0.8-1.3-0.9
	c-0.2-0.1-0.9-0.8-1-1c-0.2-0.2-0.5-0.9-0.5-1c0-0.1-0.1-0.6-0.1-0.8c0-0.2,0.1-0.4,0.1-0.4c-0.1-0.2-0.3-0.1-0.3-0.1
	c-0.1,0.4,0.1,0.6,0.1,0.6c0,0.7,0.3,1.2,0.3,1.3c0,0.1,0.6,0.9,0.6,0.9l0.8,0.7l1.1,0.7c0,0,1,0.9,1.4,1.1c0.4,0.2,1.1,1.1,1.5,1.4
	c0.3,0.3,0.7,1.2,0.7,1.2c0,0.2,0.1,0.4,0.2,0.5c-0.2,0.1-0.2,0.3-0.2,0.5c0,0-0.1,0.5,0.5,0.7c0,0,0.1,0.1,0,0.1
	c0,0.1-0.1,0.3-0.1,0.4c0.1,0.2-12.2-7.5-17.1-5.7c-0.2,0.1-0.4,0.1-0.6,0.2c-1.6,0.4-7.6,2.1-7.9,6.3c0,0.4,0.2,0.8,0.5,1
	c0.7,0.5,2.2,1.5,3.5,2.3c0.5,0.3,0.9,0.6,1.3,1c1.6,1.6,6.3,5.7,9.4,4c0,0,0.1,0,0.1,0.1c0,0,0,0,0,0c0.1,0.3,0.1,0.7,0.1,1
	c-0.4,1.9-0.6,6.6,5.5,9.8c0,0,4.5,1.6,7.2-1.4c0.6-0.7,1.1-1.6,1.2-2.6c0.3-1.4,0.8-4.5,0.9-6.8c0-0.1,0.1-0.1,0.2,0
	c0.4,0.7,1.1,2,1.5,1.3c0,0,0.4-0.6-0.9-2.9c0,0-0.5-0.7-0.6-1c0-0.1,0.1-0.2,0.1-0.1c0.6,0.5,2.6,2.4,3.6,3c1,0.6,2.8,1.9,4.7,2.6
	c0.8,0.3,1.6,0.3,2.4,0.2c1.5-0.3,3.8-1.3,5-4.5c0-0.1,0.1-0.1,0.1-0.2C47,30.8,48.6,26.5,43,21.7z"/>
</svg>
