<?xml version="1.0" encoding="utf-8"?>
<!-- Generator: Adobe Illustrator 19.1.0, SVG Export Plug-In . SVG Version: 6.00 Build 0)  -->
<svg version="1.1" id="Layer_1" xmlns="http://www.w3.org/2000/svg" xmlns:xlink="http://www.w3.org/1999/xlink" x="0px" y="0px"
	 viewBox="0 0 48 48" style="enable-background:new 0 0 48 48;" xml:space="preserve">
<style type="text/css">
	.st0{fill:#808080;}
</style>
<path class="st0" d="M45.2,0.2c0,0-0.3-0.7-1.5,0.4c-0.1,0-0.1,0.1-0.1,0.2c-0.2,0.3-0.7,1-2.2,1.8c0,0-0.1,0-0.1,0.1
	c-0.5,0.3-3.2,1.9-3.7,3.1c0,0-0.4,0-0.5,0.4c0,0-0.7,0.7-1.4-0.1c0,0,0.1-0.1-0.2-0.2c-0.2-0.1-0.3-0.1-0.4-0.2
	C34.2,5,32.2,3.5,31.3,3c-0.1-0.1-0.2-0.2-0.3-0.2c-0.3-0.3-0.8-0.8-1.3-1.7c0,0-0.4-0.7-0.9,0c0,0-0.1,0.1,0.5,1
	c0.1,0.1,0.1,0.2,0.2,0.3c0.1,0.2,0.5,0.8,0.7,1.1c0,0.1,0,0.2-0.1,0.1c-0.6-0.2-2-0.7-2.2-0.9c0,0-1.1-0.7-1.4-1.4
	c0-0.1,0-0.1-0.1-0.2c-0.1-0.2-0.5-0.6-1,0c0,0-0.8,0.1-0.4,0.9c0,0,0.1,0.4,2.7,1.9c0,0,0,0,0,0L30,5c0,0-0.8-0.1-0.1,1.6
	c0,0,0,0.9,1.5,1.9c0,0,0.8,0.3,1.3,0.5c0,0,0.4,0.5,0.8,0.7c0,0,0.6,0.4,0.4,2l-0.5,2.5c0,0-0.1,1.6-2.1,2.1c0,0-3.5,0.2-7.3,1.6
	c-0.3,0.1-0.7,0.2-1.1,0.3c-0.8,0.1-2.5,0.3-4.7,0.3c-0.1,0-0.2,0-0.3,0c-0.6,0-3.8-0.1-7.2,1.5c-0.2,0.1-0.4,0.2-0.6,0.4l-3.5,2.5
	c0,0-0.1,0.1-0.1,0.1c-0.2,0.1-0.7,0.5-0.8,1.9c-0.1,0.7,0,1.4,0.2,2.1l1,3.2c0,0.1,0,0.1,0.1,0.2c0.1,0.2,0.3,0.9-0.1,1.1l-2.7,1.9
	c0,0-0.1,0.1-0.1,0.1c-0.1,0.1-0.7,0.5-0.4,1.5c0,0-0.2,3.4-0.2,4.2c-0.1,0.8-0.5,4.3-0.5,4.3s-0.3,1.3,0,1.6c0,0,0.2-0.6,0.3-0.3
	c0,0,0.3,1.6,1,2c0,0,1.3,0.3,1.4-0.2c0,0-0.2-0.7-0.6-1c0,0-0.1-0.7-0.5-1.6c0,0-0.2-0.9,0-2l0.2-2.6c0-0.1,0-0.2,0-0.3
	c0.1-0.5,0.3-1.9,0.9-2.4c0.6-0.7,0.9-1.1,1.8-1.5c0.1-0.1,0.2-0.1,0.4-0.2c0.6-0.4,2.5-1.5,2.7-1.6c0.1-0.1,1.8-1.3,1.9-1.5
	c0,0,0.4-0.3,0.3,0.2c-0.1,0.6-1.5,3.1-1.6,3.3c-0.1,0.1-0.2,0.4-0.3,0.5c0,0.1-0.1,0.1-0.1,0.2c-0.1,0.3-0.2,0.8,0.3,1.1l1.3,1.6
	c0,0,0.1,0.1,0.1,0.2l2.6,3.4c0,0,2.3,3.8,2.6,3.4l0-0.3c0,0,1.2,1.3,1.2,0.6c0,0,1.4,0.5,1.5,0c0,0-0.5-0.5-0.9-0.8
	c-0.1-0.1-0.2-0.1-0.2-0.2c-0.1-0.3-0.4-0.7-0.9-1c-0.1-0.1-0.2-0.1-0.3-0.2c-0.3-0.4-1.2-1.5-1.6-2c0,0-3.2-3.5-2.1-5.6
	c0,0,2.3-3.4,2.9-4.3c0.1-0.1,0.2-0.2,0.3-0.2c1.4,0.1,0.9-0.3,2.3-0.6c1-0.2,7.1,0,7.4,0.2c0,0,0,0,0,0c0.4,0.3,0.6,0.6,0.7,1
	c0.1,0.4,0.3,1.2,0.7,2c0,0.1,0.1,0.1,0.1,0.2c0.1,0.3,0.5,0.8,0.6,1.5c0,0.2,0,2.3,0.1,2.5c0.1,0.2,0.1,4.2-0.5,5.3
	c0,0-0.1,0.2,0,0.4c0,0.1,0.1,0.2,0,0.2c0,0.4-0.1,1.5,0.1,1.3c0,0,0.3-0.5,0.5-0.1c0,0.1,0.1,0.1,0.1,0.2c0,0.2,0.2,1.1,1,1.4
	c0,0,0.7,0.3,1.5,0c0.1,0,0.2,0,0.2,0.1c0.1,0.3,0.6,1.1,2.6,0.8c0,0,0.1,0,0-0.2c0,0-0.8-0.9-1.1-1.5c0,0-2-3.6-1.7-7
	c0-0.3,0.4-1.2,0.1-1.9l-0.6-1.9c-0.1-0.3-0.1-0.7-0.1-1.1c0.2-1,0.6-3.1,1.1-3.7c0,0,0.1,0,0.1-0.1c0.2,0,1.2-0.3,1.5-1.7
	c0-0.1,0-0.1,0.1-0.1c0.3-0.3,1.7-1.8,1.7-4.4c0-0.2,0-0.3,0.2-0.4c0.5-0.6,2-2.5,2.3-4.9c0,0-0.2-5.4,0.5-6.8
	c0.1-0.2,0.1-0.4,0.1-0.5c0-0.9,0.1-3.1,1-3.1c0,0,1.5-0.1,2.2-1.9c0,0,1-1.8,0.4-2.3c-0.1-0.1-0.2-0.1-0.3,0
	c-0.5,0.2-2.3,0.9-2.6,1.6c-0.1,0.2-0.2,0.3-0.3,0.5l-0.6,0.9c0,0-0.2-0.1,0-0.3c0,0,0.4-0.3,0.1-0.6c-0.1-0.1-0.1-0.1-0.1-0.1
	s1.1-1.5,2.5-2c0,0,1.6-1.2,1.9-1.4C43.3,2.8,45.7,1.2,45.2,0.2z M31.5,45.8c0,0-1.6-1.5-0.8-6.7C30.7,39.1,31.6,43.7,31.5,45.8z
	 M32.5,6c0,0,1.1,0.5,1.2,0.7c0,0,0.2,0.5,0.4,0.6C34.1,7.4,33.1,7.5,32.5,6z M34.6,9.5c0,0-0.2,0-0.3-0.3c0,0-0.1-0.3-0.3-0.3
	c0,0,0.8-0.6,1,0.3C35.1,9.2,34.6,9.3,34.6,9.5z M39.4,8.6c0,0,0.1,0.5-0.1,0.7c0,0-0.3,0-0.4,0.1l-0.1-0.1
	C38.8,9.2,38.9,8.1,39.4,8.6z"/>
</svg>
