<?xml version="1.0" encoding="utf-8"?>
<!-- Generator: Adobe Illustrator 19.1.0, SVG Export Plug-In . SVG Version: 6.00 Build 0)  -->
<svg version="1.1" id="Layer_1" xmlns="http://www.w3.org/2000/svg" xmlns:xlink="http://www.w3.org/1999/xlink" x="0px" y="0px"
	 viewBox="0 0 48 48" style="enable-background:new 0 0 48 48;" xml:space="preserve">
<style type="text/css">
	.st0{fill:#808080;}
</style>
<path class="st0" d="M47.9,23.7c0.1-0.1,0.1-0.4,0-0.6c0,0-0.1-0.1,0-0.2c0-0.2,0.1-0.5-0.1-0.6c0,0-0.1-0.1,0-0.2
	c0.1-0.2,0.1-0.5-0.2-0.7c-0.1,0-0.1-0.1-0.1-0.2c0-0.2,0-0.5-0.3-0.6c-0.1,0-0.1-0.1-0.1-0.1c0-0.2,0-0.5-0.6-0.4l0.1,0
	c0.1-0.1,0.1-0.3,0-0.3c-0.1-0.1-0.4-0.1-0.7-0.1c-0.1,0-0.1-0.1-0.1-0.1l0.1-0.1c0.1-0.1,0-0.2-0.1-0.2c-0.2-0.1-0.4-0.1-0.7,0
	c-0.1,0-0.3-0.1-0.2-0.2c0,0,0,0,0,0c0.1-0.1,0-0.2-0.1-0.2c-0.2,0-0.5,0-1,0.2c0,0-0.3,0-0.1-0.3c0.1-0.1,0-0.2-0.1-0.2
	c-0.2,0-0.5-0.1-0.9,0.1c0,0-0.1,0-0.1,0l0-0.2c0-0.1,0-0.1-0.1-0.2c-0.1,0-0.4,0-0.8,0.1c-0.1,0-0.2,0-0.2-0.1l0-0.3
	c0-0.1-0.1-0.1-0.2-0.1c-0.2,0-0.5,0.1-0.9,0.4c0,0-0.2,0.1-0.2-0.4c0-0.1-0.1-0.1-0.1-0.1c-0.2,0-0.5,0.1-0.8,0.3c0,0-0.1,0-0.1,0
	l-0.1-0.4c0-0.1-0.1-0.1-0.2-0.1c-0.2,0.1-0.6,0.2-0.8,0.5c0,0-0.1,0.2-0.2-0.5c0,0,0,0,0,0c-0.1,0-0.5,0-0.9,0.4c0,0-0.1,0-0.1,0
	c0-0.1-0.1-0.3-0.2-0.4c0,0,0,0,0,0c-0.1,0-0.5,0-0.7,0.3c0,0.1-0.1,0-0.2,0c-0.1-0.2-0.3-0.5-0.9,0c-0.1,0-0.2,0-0.2,0
	c-0.1-0.2-0.3-0.3-0.7,0c-0.1,0.1-0.2,0-0.2,0c-0.1-0.2-0.4-0.4-0.8,0c-0.1,0.1-0.1,0.1-0.2,0c-0.1-0.1-0.4-0.3-0.9,0
	c-0.1,0-0.1,0-0.2,0c-0.1-0.1-0.3-0.3-0.7,0c-0.1,0-0.1,0-0.2,0c-0.1-0.1-0.4-0.2-0.7,0c0,0-0.1,0.1-0.2,0c-0.1-0.1-0.4-0.2-0.6,0
	c0,0-0.1,0.1-0.2,0c-0.1,0-0.3-0.1-0.6,0c-0.1,0-0.1,0-0.2,0c-0.1-0.1-0.4-0.2-0.8,0c0,0,0,0,0,0c-0.2-0.1-1.6-0.8-2.7-0.3
	c0,0-0.2,0.2-0.2,0c0,0-0.3-0.4-0.7,0c0,0,0,0,0,0c-0.1-0.1-0.5-0.3-0.9,0.1c0,0,0,0-0.1,0c-0.1-0.1-0.3-0.3-0.9,0.1c0,0,0,0,0,0
	c-0.1,0-0.4-0.2-0.6,0.1c0,0,0,0,0,0c-0.1,0-0.5-0.2-0.8,0.1c0,0,0,0,0,0c-0.1,0-0.6-0.1-0.8,0.1c0,0,0,0,0,0c-0.1,0-0.7,0-1,0.2
	c0,0,0,0,0,0c-0.1,0-0.5-0.2-1,0.2c0,0,0,0,0,0c-0.1,0-0.6-0.2-0.8,0.2c0,0,0,0,0,0c-0.1,0-0.7,0-0.9,0.3c0,0,0,0,0,0
	c-0.1,0-0.5-0.1-0.7,0.2c0,0,0,0,0,0c-0.1,0-0.6,0.1-0.9,0.4c0,0,0,0,0,0c-0.1,0-1.3,0.2-1.8,0.7c0,0,0,0,0,0
	c-0.1,0-0.9-0.2-1.1,0.2c0,0,0,0,0,0c-0.1,0-0.9,0-1.2,0.2c0,0,0,0,0,0l-0.4-0.1c0,0-0.9-0.1-1.3,0.2c0,0,0,0-0.1,0
	C8.3,20.3,8,20,6.9,20.5c0,0,0,0,0,0c-0.1-0.1-0.4-0.4-1.2,0.2c0,0,0,0,0,0c-0.1,0-1.5,0.5-3.7,0.6c0,0,0,0,0,0
	c-0.1-0.1-0.6-0.5-1.2-0.2c0,0-1,0.2-0.7,0.8c0,0,0.3,0.4,0.7,0.5c0,0,0,0,0,0c0,0.1,0.1,0.7,0.3,0.1c0,0,0,0,0,0
	c0.1,0,0.4,0,0.5-0.2c0,0,0,0,0,0c0.1,0,0.4,0.1,0.4,0.4c0,0,0,0.5,0.1,0.1c0,0,0.3-0.2,0.2,0.3c0,0,0,0.2,0.1,0
	c0,0,0.3-0.4,0.3,0.3c0,0,0.1,0.1,0.1-0.2c0,0,0.3-0.1,0.3,0.2c0,0,0,0.4,0.2,0.5c0,0,0.2-1.1,0.4-0.6c0,0,0.1,0.2,0.1-0.1
	c0,0,0.2-0.3,0.3,0c0,0,0.1,0.1,0.1-0.1c0,0,0,0,0,0c0.1,0,0.5-0.1,0.7,0.2c0,0,0,0.1,0.1,0c0,0,0.5,0.2-0.2,0.4c0,0,0,0,0,0
	l-0.4,0.2c0,0,0,0,0,0c0,0-0.3,0-0.4,0.2l-0.1,0c0,0-0.2-0.3-0.4,0.2c0,0-0.3-0.2-0.2,0.2c0,0,0,0,0,0c-0.1,0-0.3,0.1-0.3,0.2
	c0,0,0,0,0,0c-0.1,0.1-0.3,0.3-0.5,0.3c0,0,0,0,0,0c0,0-0.2-0.1-0.2,0.1c0,0-0.2,0.2-0.6,0.2c0,0,0,0,0,0l-0.4-0.4
	c0,0-0.1,0.3,0,0.5c0,0-0.1,0.1-0.1,0.2l-0.2,0c0,0,0,0.1,0,0.2c0,0,0,0,0,0c0,0-0.2,0.1-0.5,0c0,0,0,0-0.1,0c0,0.2-0.1,0.7,0.4,0.9
	c0,0,0.6,0.1,0.9,0c0,0,0,0,0,0l0.6,0c0,0,0,0,0,0c0.1,0,0.5,0.2,1,0.1c0,0,1.8-0.2,2.5-0.5c0,0,0,0,0,0c0.1,0,1.6-0.3,2.8,0
	c0,0,0,0.1,0,0.1c-0.4,0.2-1.5,0.7-1.7,1.2c0,0-0.2,0.1-0.1,0.4c0,0,0.1-0.2,0.2-0.1c0,0,0,0.1,0.3,0c0,0,0.3-0.1,0.5-0.1
	c0,0,0.1,0,0,0.1c-0.1,0.1-0.3,0.4-0.2,0.5c0,0,0.1,0,0.5-0.2c0,0,0,0,0.1,0c0,0.1,0.2,0.2,0.4,0c0,0,0.7-0.3,0.9-0.3
	c0,0,0.4-0.2,0.7,0c0,0,0,0,0,0c0.2,0,3,0.5,3.6-1.7c0.1-0.2,0.2-0.3,0.4-0.3c1.4-0.1,7.1-0.3,9.9-1.2c0.2-0.1,0.4,0.1,0.4,0.3
	c0,0.3,0.1,0.6-0.1,0.8c0,0,0,0,0,0c-0.1,0-0.7,0.1-1.1,0.5c0,0-0.1,0.1-0.2,0.1c-0.3,0.2-1,0.7-1,1.1c0,0,0,0,0.1,0
	c0.1,0,0.2-0.1,0.2,0c0,0-0.3,0.3-0.3,0.6c0,0,0,0.1,0.1,0c0.1-0.1,0.2-0.2,0.2-0.1c0,0,0.2,0,0.4-0.1c0,0,0.1,0,0.1,0.1
	c-0.1,0.2-0.2,0.4-0.1,0.7c0,0,0.1,0,0.1,0c0-0.1,0.1-0.2,0.1-0.1c0,0,0.2,0.1,0.3-0.1c0-0.1,0.1-0.1,0.2-0.1c0.2,0,0.4-0.1,0.4,0.1
	c0,0,0.1,0.6,0.2,0.3c0,0,0.5-0.6,1-0.8c0,0,0.1,0,0.1,0c0.1-0.1,0.6-0.4,0.8-0.7c0.1-0.1,0.1-0.1,0.2-0.2c0.2-0.1,0.8-0.5,0.8-0.8
	c0,0,0.3-0.3,0.1-0.6c0,0,0-0.1,0-0.1c0-0.2,0.1-0.5-0.1-0.7c0,0-0.1-0.1-0.1-0.1l-0.2-0.4c0,0,0-0.1,0-0.1c0.2-0.1,0.7-0.3,0.8-0.4
	c0,0,0,0,0.1,0l1.1,0c0,0,0.1,0,0.1,0c0.1-0.1,0.5-0.2,1.2-0.2c0.8,0.1,8.9-0.6,9.5-0.7c0,0,0.1,0,0.1,0c0.5,0,5.5,0.4,5.3,2.6
	c0,0,0,0.9-1.7,3c0,0-2.2,3-1.3,3c0.1,0,3.7-2.9,4.4-4.6c0,0,0,0,0,0l0-0.1c0-0.1,0-0.2,0.1-0.2c0.2-0.1,0.4-0.3,0.3-0.7
	c0-0.1,0-0.2,0.1-0.2c0.1-0.1,0.2-0.2,0.2-0.5c0,0,0-0.1,0.1-0.1c0.1-0.1,0.4-0.4,0.3-0.6C47.9,23.8,47.9,23.7,47.9,23.7z M6.5,21.3
	c0,0,0.6-0.3,1,0.1C7.5,21.4,7,22,6.5,21.3z"/>
</svg>
