<?xml version="1.0" encoding="utf-8"?>
<!-- Generator: Adobe Illustrator 19.1.0, SVG Export Plug-In . SVG Version: 6.00 Build 0)  -->
<svg version="1.1" id="Layer_1" xmlns="http://www.w3.org/2000/svg" xmlns:xlink="http://www.w3.org/1999/xlink" x="0px" y="0px"
	 viewBox="0 0 48 48" style="enable-background:new 0 0 48 48;" xml:space="preserve">
<style type="text/css">
	.st0{fill:#808080;}
</style>
<path class="st0" d="M44.1,35.2c0,0-2.2-1.3-1.8-3.2l1-2.9c0,0.1-0.6,3.2,2,3.5c0,0-0.6-0.5-0.7-1c0,0-0.2-2.6-0.2-3.4
	c0,0,0.2-1.9-0.8-3.1c0,0-2.6-4.3-8-3.4c-0.2,0-0.4,0-0.6,0c-0.7,0-2.1,0-3.3-0.1c0,0-4.5,0-5.5-0.4c0,0-2.7-1.2-5.6-0.1
	c0,0-1.7,0.5-4.4-0.6c0,0-3.8-2.1-4.4-2.9c-0.1-0.1-0.1-0.2,0-0.3c0.2-0.4,0.9-1.5,0.4-1.5c0,0-2.1,0.8-2.2,1.2c0,0-0.2-0.1,0-0.3
	c0,0,0.6-0.6,2.4-1.2c0.1,0,0.1,0,0.2-0.1c0.4-0.2,2.3-1,2.7-0.8c0,0,2.2,1.2,3.6,0c0,0-1.7,0-2.4-0.2c-0.1-0.1-0.2-0.2-0.3-0.3
	c0-0.1,0-0.2,0.2-0.2c0,0,2.1-0.5,2.2-1.4c0-0.1,0-0.1,0.1-0.1c0.3,0,1.1-0.1,1.1-0.6c0,0,0-2.4,1.2-3.2c0.1,0,0.1-0.1,0.1-0.2
	c0-0.2,0.1-0.5,0.1-0.8c0-0.2,0.1-0.4,0.2-0.5c0.5-0.5,1.8-1.8,2.5-2.1c0,0-0.1-0.7-1.1-0.3c0,0-1.5,0.9-1.7,1.2c0,0-0.6,0.4-0.7,0
	c0,0-0.5-2.9,1.9-3.7c0,0,0,0,0,0c0-0.1-0.4-0.9-1.6-0.2c0,0-0.5,0.3-0.5-0.6c0,0,0-1.2-0.6-0.8c0,0-0.2,0.4-0.1,2.1c0,0,0,0,0,0
	c0,0.2-0.2,1.2-0.6,1c-0.1-0.1-0.2-0.2-0.2-0.3c-0.1-0.5-0.5-2-1.2-2.1c-0.1,0-0.2,0-0.2,0.1c-0.1,0.1-0.1,0.2-0.1,0.4
	c0,0-1.5-1.5-2.3-1.2c-0.1,0-0.1,0.1,0,0.2c0.4,0.4,1.5,1.6,1.5,2c0,0,0.4,0.5-1,0.3c0,0-0.6,0.1-0.4,0.5c0,0.1,0,0.1,0,0.2
	c-0.2,0.2-0.7,0.8,0.3,1c0.1,0,0.2,0.1,0.2,0.2C16,5.4,18,10,14.2,13.1c0,0,0.1-0.6-1,0.3c0,0,0,0-0.1,0c-0.2,0-0.7-0.1,0.4-0.7
	l1.7-0.8c0,0,0.1,0,0.1-0.1c0.1-0.2,0.3-0.8-0.6-0.6c0,0-1.5,0.5-0.8-0.4c0,0,0.8-0.8,0.8-1.7c0-0.1,0-0.1,0.1-0.2
	c0.2-0.3,1-1.1,0.6-1.4c0,0-0.4-0.2-1,0.5c0,0,0,0-0.1,0c-0.1,0-0.3-0.1,0.1-0.6c0,0,0,0,0-0.1c0-0.2,0-0.8-0.6-0.1
	c0,0-0.1-0.1,0-0.7c0,0,0,0,0-0.1c0.1-0.2,0.8-1.3,0.4-1.5c0,0-0.3-0.2-0.8,0.3c0,0,0,0-0.1,0c-0.1,0-0.6,0.1-0.6-0.7l0-1.8
	c0,0-0.2-0.4-0.6-0.1c0,0-0.1,0.2-0.2-0.1c0,0-0.4-1-0.6-0.4c0,0,0.5,1.9,0.1,1.5l-0.8-2.5c0,0,0,0,0-0.1C10.3,1.1,10,0.7,9.8,1.1
	c0,0,0.3,0.9,0.1,0.8c0,0-0.7-1.5-1.2-1.2c0,0-0.3,0,0.2,0.9l0.9,1.9c0,0,0,0,0,0.1c0,0.1,0,0.4-0.2,0.2c0,0-0.2-0.4-0.4-0.2
	c0,0-0.3,0.1,0.1,1.1c0,0,4.3,8-0.7,10.7c0,0,0,0,0,0c-0.1,0-1,0.4-1.2,0.8c0,0,0,0.1-0.1,0.1c-0.4,0-2.4,0.1-2.7-2.2c0,0,0,0,0,0
	c-0.2,0.3-0.7,1.6,0.9,2.8c0,0-0.8,0.8-2.9-1.2c0,0-0.1,0-0.1,0c0,0.1-0.2,0.4,0,0.7c0,0,1.3,2.3,4.6,1.1c0,0,0,0,0,0
	c0.1,0,0.6,0,0.1,0.5c0,0-3.7,3.7-3.9,4.1c0,0-0.7,1,0.4,1.7c0,0,0.6,0.9,1.5,0c0,0,3.6-1.1,4.2-0.5c0,0,4.1,5.1,5.1,5.7
	c0,0,1.1,1.2,1.6,2.2c0,0,0.4,2,4,2.5c0,0,1.4,0.8,1.4,3.1c0.1,2.3,0.2,2.7,0.3,3.3c0,0,0.2,4.9-0.3,5.7l-1.5,1.8
	c0,0-0.2,0.4,0.1,0.5c0,0,1.8,0.3,2-0.4c0,0,0.1-1.3,0.6-0.9c0,0,0.5,0.2,0.5-0.4c0,0-0.1-4.5,0.9-6.7l0.1-6.1c0,0,7.5,0.7,10.9-1
	c0,0,1.7,1.7,2.2,2.4c0,0,1.2,1.3,3.4,2.4c0,0,1.2,1,1,2c0,0-0.6,5.4-0.9,6.1c0,0-1.6,2.2-1.6,2.3c-0.1,0.1,0,0,0,0
	c0,0-0.3,0.3,0.3,0.4c0,0,1.5,0,1.7-0.2c0,0,0.4-1.7,0.7-1.2c0,0,0.2,0.2,0.4-0.2l2.1-9.2C44.7,37.2,45.1,35.9,44.1,35.2z M7.5,19.6
	c0,0-0.1-1.1,0.7-0.8C8.2,18.8,8.4,19.5,7.5,19.6z"/>
</svg>
