<?xml version="1.0" encoding="utf-8"?>
<!-- Generator: Adobe Illustrator 19.1.0, SVG Export Plug-In . SVG Version: 6.00 Build 0)  -->
<svg version="1.1" id="Layer_1" xmlns="http://www.w3.org/2000/svg" xmlns:xlink="http://www.w3.org/1999/xlink" x="0px" y="0px"
	 viewBox="0 0 48 48" style="enable-background:new 0 0 48 48;" xml:space="preserve">
<style type="text/css">
	.st0{fill:#808080;}
</style>
<path class="st0" d="M33.8,22.9c0,0-9.3-18.2-23.9-5.1c-0.5,0.4-0.9,1-1.2,1.5c-1.1,2.1-3.1,7.2,0.6,12.4c0,0-10.4,2.4-9.2,3
	l13.2,0.1l15.4-0.3c0,0,0.9,0,1.5-0.4c0.2-0.1,0.4-0.1,0.5,0l0.6,0.4c0.1,0.1,0.3,0.1,0.5,0.1l6-0.1c0,0,1.5-0.6,2.5-0.2
	c0.2,0.1,0.3,0.1,0.5,0.1c1.1,0,4.9-0.1,5-1c0,0,0.7,0.3,0.6-0.4c0,0,0.1-2,0.7-2.3c0,0,1.3,0.3,1.1-0.5c0,0-0.4-0.3-1-0.2
	c0,0-0.7-1.8-1.2-2.7c-0.2-0.4-0.3-0.8-0.3-1.2c0-1,0-3,0.6-4.7l1.6-5.3c0,0,1-0.8-0.2-1c0,0-0.4,0.1-0.5,0.7c0,0-2.6,6.6-2.9,8.2
	c0,0.2-0.1,0.3-0.2,0.5c-0.1,0.2-0.3,0.4-0.5,0.5c0,0,0-4.1,0.5-5.2c0,0,0.8-0.9-0.3-0.9c0,0-0.5,0.1-0.4,0.7c0,0-1.5,4.8-1.3,5.8
	c0,0-1.3,0.8-2.7,0.2l-4.5-0.4c0,0,0.9-0.9,0.1-1.3L33.8,22.9z"/>
</svg>
