<?xml version="1.0" encoding="utf-8"?>
<!-- Generator: Adobe Illustrator 19.1.0, SVG Export Plug-In . SVG Version: 6.00 Build 0)  -->
<svg version="1.1" id="Layer_1" xmlns="http://www.w3.org/2000/svg" xmlns:xlink="http://www.w3.org/1999/xlink" x="0px" y="0px"
	 viewBox="0 0 48 48" style="enable-background:new 0 0 48 48;" xml:space="preserve">
<style type="text/css">
	.st0{fill:#808080;}
</style>
<path class="st0" d="M33.1,13.2c0,0-4.5-1.3-6-2.2c0,0-3.1-0.9-2.7-1.7c0,0,1.2-2.3,5.6-2.5c0,0,12,0.5,12.3,0.2
	c0,0-0.6-0.8-4.8-0.8c0,0-2.8-0.4-3.9-0.6c0,0-4.7-0.7-7.5,0.2c0,0-3.2,0.9-3.6,3.4c0,0-5.5-4.6-15.7-1.6c-0.1,0-0.3,0.1-0.4,0.1
	c-1,0.3-6.8,1.9-6.4,7.6c0,0.3,0,0.6,0,0.9c0,1.1,1,4.9,13.5,6c0.1,0,0.2,0,0.4,0c1.4,0,10.4-0.1,11.1,3.2c0,0.2,0,0.3,0,0.5
	c-0.1,0.8,0,3.9,6.7,5.8c0,0,0,0,0,0c0.3,0.1,3.6,0.9,1.9,1.2c0,0,0,0-0.1,0c-0.5,0.1-5.3,1.4-6.4,2.6c0,0-1.6,2-2.1,2.7
	c-0.1,0.1-0.2,0.2-0.3,0.3c-0.5,0.3-1.8,1.1-1.6,2.5c0,0-0.2,2.3,2.4,1.7c0,0,2.4-0.6,2.9-2.1c0,0,0-0.1,0-0.1
	c0.2-0.4,1.3-2.5,3.4-3.1c0,0,0.1,0,0.1,0c0.6-0.1,5-1.1,5.7-2.5c0,0,2.8-3.6-0.2-5.7c0,0-1.6-1.1-5.4-2.1c0,0-0.1,0-0.1,0
	c-0.3-0.2-1.8-0.9-2-2.3c0-0.3,0.2-0.5,0.5-0.4c1.4,0.7,5.3,2.4,9.1,1.9c0,0,7.2-0.5,8.1-3.5c0-0.1,0.1-0.3,0.1-0.4
	c0.3-1,1.4-5.5-5.1-7.5L33.1,13.2z M18.9,17.5c0,0-7.7-0.1-10.1-0.9c0,0-5.9-1-3.5-3c0,0,3.7-2.5,11.5-1.4c0,0,6.2,2.4,7.8,6.1
	C24.5,18.2,21.2,17.6,18.9,17.5z M42.6,20.7c0,0-5.4,1.1-8.7-0.4c0,0-3.9-1.7-4.5-4.3c0,0,5.6,1.7,7,1.9
	C36.5,17.9,44.7,20.1,42.6,20.7z"/>
</svg>
