<?xml version="1.0" encoding="utf-8"?>
<!-- Generator: Adobe Illustrator 19.1.0, SVG Export Plug-In . SVG Version: 6.00 Build 0)  -->
<svg version="1.1" id="Layer_1" xmlns="http://www.w3.org/2000/svg" xmlns:xlink="http://www.w3.org/1999/xlink" x="0px" y="0px"
	 viewBox="0 0 48 48" style="enable-background:new 0 0 48 48;" xml:space="preserve">
<style type="text/css">
	.st0{fill:#808080;}
</style>
<path class="st0" d="M46.9,22.4c0,0,2-2.9,0.7-3.8c0,0-3.5,0.5-5.1,2.2c0,0,0,0-0.1,0.1c-0.2,0.2-1.7,1.8-5.8,1c0,0-0.6-0.5,0.3-0.4
	c0,0,2,0.1,2-0.6c0,0,1.2-3.1-3.1-3.7c-0.5-0.1-1.1,0-1.5,0.3c0,0-0.1,0.1-0.1,0.1c0,0-2.1,1.7-3.1,2.4c-0.3,0.2-0.6,0.3-1,0.3
	c-2.9,0-19.8-0.2-22.5,1.4c-0.1,0-0.1,0.1-0.2,0.1c-0.5,0.1-2.2,0.3-3,1c0,0-4.6,1.1-3.9,1.4c0,0,2.6,0.4,2.3,0.5
	c0,0-1.8,0.1-2.3-0.3c0,0-0.6,0-0.2,0.3c0,0,0.5,0.6,2.8,0.9c0.2,0,0.3,0.1,0.5,0.1c0.7,0.3,2.6,0.9,4.8,1c0,0,1.2,0.2,1.2,0.6
	c0,0,1.5,3.3,2.4,3.6c0,0,0.6,0.2,0.8-0.6c0,0,0.2-2.1-0.4-2.4l-1-0.8c0,0,8.2,0.2,10,0.4c0.2,0,0.3,0.1,0.5,0.3
	c0.6,0.9,3,4,3.4,2.7c0,0,1.1-2.3-1.3-3.1c0,0,8-0.4,8.5-0.2c0,0,4.4,3.1,6.3,2.2c0.1,0,0.2-0.1,0.3-0.1c0.3-0.1,0.9-0.4,0.8-1.6
	c0-0.1,0-0.3,0-0.4c0-0.5-0.2-1.8-1.8-1.8c0,0,2.7-0.4,3.9,0.4c0,0,5.5,2.7,5.9,1.5c0,0,0.7-0.9-1.1-3.8
	C46.6,23.5,46.3,23,46.9,22.4z M5.8,23c-0.3,0-0.5-0.2-0.5-0.4s0.2-0.4,0.5-0.4c0.3,0,0.5,0.2,0.5,0.4S6.1,23,5.8,23z"/>
</svg>
