<?xml version="1.0" encoding="utf-8"?>
<!-- Generator: Adobe Illustrator 19.1.0, SVG Export Plug-In . SVG Version: 6.00 Build 0)  -->
<svg version="1.1" id="Layer_1" xmlns="http://www.w3.org/2000/svg" xmlns:xlink="http://www.w3.org/1999/xlink" x="0px" y="0px"
	 viewBox="0 0 48 48" style="enable-background:new 0 0 48 48;" xml:space="preserve">
<style type="text/css">
	.st0{fill:#808080;}
</style>
<path class="st0" d="M39.8,32.6c0.4,0.1,2.3,0.8,2.2,0.5c0,0-0.2-0.8-1.7-1.6c0,0-0.2-0.2-0.3-0.4c-0.1-0.2-0.2-0.3-0.3-0.5
	c-0.3-0.8-1.5-3-5.5-4.3c0,0-8.2-6.3-12.5-5.5c0,0-3-0.5-4.7,0.2c0,0-2.2,0.2-2.3-2.2c0,0,0-3-0.4-4c0,0,0.3-4.6,0.3-6
	c0,0,0.4-6.5-0.3-7.5c0,0-0.1-0.1-0.1-0.1c-0.2-0.3-1.4-1.8-4.2-0.8C9.5,0.5,9.1,0.7,8.8,1.1C8.7,1.3,8.5,1.5,8.3,1.7
	C8.2,1.8,8.1,1.8,8,1.9C7.5,2.1,6,2.9,5.3,3.1c0,0-0.7,0.3-0.3,0.9c0,0,0-0.2,0.2-0.1c0,0,3.5-0.2,4.1,0.3c0,0,2.2,0.6,2.2,1.2
	c0,0-0.2,5.7-1,7.7c0,0-2.6,7.8-2,9.9c0,0.1,0,0.1,0,0.2c0.3,1.2,2.8,12.3,11,13.6c0,0,0.5,1.4,0.9,1.7c0,0,0.4,0.5,0,1.1
	c0,0-0.2,0.1,0.3,1.4c0,0,0.5,3.8,0.2,4.6c0,0,0,0.5-1,0.5c0,0-3.7,0.5-4.4,0.4c0,0-0.5,0-0.5,0.2c0,0,0.1-0.1,0.3,0.1
	c0,0,0.1,0.2,0.4,0.2c0,0-0.1,0.1-0.1,0.2c0,0,0.2-0.1,0.2,0c0,0-0.1,0.2,0.4,0.2c0,0,3.8,0.1,4.2,0.2c0,0,0,0.1,0,0.1
	c0,0,0.2-0.1,0.2-0.1c0,0,2.1,0.1,2-0.6c0,0-0.2-1.2,0-1.3c0,0,0.4,0.7,0.8,0.4c0,0,0.1,0,0.1,0.3c0,0,0.5-0.5-0.6-1
	c0,0-0.6-0.3-0.8-1.8c0,0-0.3-4.5-0.1-6c0-0.2,0.2-0.4,0.5-0.4c1-0.1,3.8-0.2,5-0.6c0.1,0,0.3,0,0.4,0.1c0.3,0.2,0.8,0.7,1.4,0.8
	c0.2,0,0.3,0.2,0.3,0.3c0,0.2,0,0.4-0.2,0.6c0,0-0.1,0.5,0.4,1.4c0,0,0.5,3.5,0,4.6c0,0.1,0,0.1,0,0.2c0,0.2-0.1,0.6,0,0.8
	c0,0.3,0,0.1,0,0.1s-0.6,1.5-3.5,1.9c0,0-0.1,0-0.1,0.2c0,0,0.2-0.1,0.2,0.1c0,0-0.8,0.2-0.7,0.6c0,0,0.1,0,0.3-0.1
	c0,0-0.1,0.1-0.1,0.1c0,0,1.3-0.6,2.1-0.1c0,0,1.1,0.7,2,0.1c0,0,0.8,0,1.3-1.2c0,0,0.2-1.3,0.1-2c-0.1-0.6-0.6-4.7-0.2-6.3
	c0,0,0.1-0.9-0.5-1.6l-0.1-1c0-0.2,0.1-0.3,0.2-0.4c0.9-0.3,3.9-1.3,6.7-0.8c0.1,0,0.2,0,0.2,0.1c0.6,0.3,3.7,1.8,3,0.4
	c0,0,0-0.1,0.1-0.1l0.8,0.6c0,0,1.3,0.2,1.4-0.2C43.1,35.3,41.9,33.5,39.8,32.6z M10.6,1.6c0,0,0.4-0.7,0.9-0.3
	C11.5,1.4,11.5,2.3,10.6,1.6z"/>
</svg>
