<?xml version="1.0" encoding="utf-8"?>
<!-- Generator: Adobe Illustrator 19.1.0, SVG Export Plug-In . SVG Version: 6.00 Build 0)  -->
<svg version="1.1" id="Layer_1" xmlns="http://www.w3.org/2000/svg" xmlns:xlink="http://www.w3.org/1999/xlink" x="0px" y="0px"
	 viewBox="0 0 48 48" style="enable-background:new 0 0 48 48;" xml:space="preserve">
<style type="text/css">
	.st0{fill:#808080;}
</style>
<path class="st0" d="M42.9,43.2c0,0-0.1,0-0.1,0c-0.6,0-4.6-0.2-5.4-0.2c0,0-1.5,0.2-1.9-1.2c0,0-1.2-4.2-0.8-5.9c0,0,0.1-0.1,0-0.4
	c0-0.1-0.1-0.2,0-0.3c0.1-0.2,0.1-0.6-0.3-1.1c0,0,0-0.1-0.1-0.1l0-0.5c0-0.1,0.1-0.3,0.2-0.3c1.8-0.6,13.3-5.1,5.4-15.9
	c-0.2-0.3-0.3-0.6-0.3-0.9c0-2.3,0-11.4-0.8-13.9c0,0-0.8-3.6-4.1-2.2c0,0-1.7,0.2-1.9,3c0,0,0,0.6-0.3,1.3c0,0-0.7,1.5-1.4,2.3
	c0,0-1,0.9-0.3,1c0,0,1.1,0.2,1.8-0.4c0,0,1.5-1.2,2.5-0.8c0,0,0.4,5.5-0.4,7.8c0,0-3.4-1.4-9.2,0.8c-0.1,0-0.2,0-0.2,0.1
	c-0.8,0.1-5.4,0.7-7.7,2.6c-0.2,0.2-0.4,0.3-0.7,0.4c-1.3,0.3-5.1,1.5-6.8,3.1c0.1,0,1.5-0.8,1.8-0.9c0,0,0,0.2-0.4,0.5
	c0,0,0.3,0.1,0.6-0.1c-0.1,0-1.2,0.6-1.6,1.3c-0.1,0.1-0.2,0.2-0.3,0.3c-0.7,0.3-2.9,1.2-2.8,2.2c0,0,0.5-0.1,1-0.3
	c0.1,0,0.2,0,0.3,0c0.5,0.1,2,0.6,1.7,0.9l-0.1,0.1c-0.1,0.2-0.2,0.3-0.4,0.3l-5.7,1.8c0,0,2.4,0.7,3.1,0.2c0,0,0.5,0.1,0.9-0.3
	c0.1-0.1,0.3-0.2,0.5-0.3c0.6-0.1,1.9,0.1,4.4,1.6l4.6,2.7c0.3,0.2,0.6,0.5,0.9,0.8c0.3,0.4,1,1.1,2.3,1.5c0.3,0.1,0.5,0.4,0.6,0.7
	c0.1,1.9,0.4,7.5-0.1,8.3c0,0-0.1,0.3-0.1,0.6c0,0.1,0,0.2-0.1,0.3c-0.3,0.4-1.1,1.3,0.1,0.9c0,0-0.5,1.9,2.4,2.8
	c0,0,2.3,1.3,3.8,0.1c0,0,1.2-0.9,3.2-0.5c0,0,0.6-0.6-0.7-0.8c0,0-1-0.3-1.1-0.7c0,0,0-0.8-1-0.4c0,0-4.1,0.3-4.3-0.4
	c0,0-1.1-1.7-0.1-5.6c0.1-0.4,0.3-0.9,0.5-1.3c0.2-0.3,0.4-0.8-0.3-1.4c-0.1-0.1-0.2-0.3-0.2-0.5c0.2-0.8,0.6-2.2,1.6-2.3
	c0.1,0,2.9,1.9,7.2,0.1c0.1,0,0.3,0,0.3,0.1c0.3,1.2,1.9,6.8,1,7.9c0,0,0,0.5-1.2,1.2c0,0-0.3,0.3,0,0.5c0,0,0.1-0.5,0.3-0.4l0,0.2
	c0,0,0.7,0,1.1-0.7c0,0,0.1,0,0.1,0c0.1,0.3,0.1,0.9-0.3,1.6c-0.1,0.2,0,0.5,0.2,0.6c0,0,0,0,0,0c0,0,0.9,1,2.6,0.6
	c0,0,5.1-1,5.5-0.5c0,0,0.3-0.3-0.2-0.5c0,0,1.9-0.4,1.8-1.1c0,0,0.3,0.1,0.3-0.2C43.7,43.2,43.1,43.1,42.9,43.2z M36.8,2.2
	c0,0,0.1,0.9-0.4,0.9c-0.1,0-0.6-0.1-0.6-0.1S36,1.8,36.8,2.2z"/>
</svg>
