<?xml version="1.0" encoding="utf-8"?>
<!-- Generator: Adobe Illustrator 19.1.0, SVG Export Plug-In . SVG Version: 6.00 Build 0)  -->
<svg version="1.1" id="Layer_1" xmlns="http://www.w3.org/2000/svg" xmlns:xlink="http://www.w3.org/1999/xlink" x="0px" y="0px"
	 viewBox="0 0 48 48" style="enable-background:new 0 0 48 48;" xml:space="preserve">
<style type="text/css">
	.st0{fill:#808080;}
</style>
<path class="st0" d="M48,10.4c0,0-0.7-0.3-0.9-0.4c0,0,1-1.1,0.8-1.3c0,0-3.4-0.2-4.9,0.4c-0.2,0.1-0.5,0.2-0.8,0.2
	c-2.3,0.3-11.7,1.5-13.5,3.1c-0.1,0-0.1,0.1-0.1,0.2c-0.5,0.7-4.4,5.8-9.1,6.6c-0.6,0.1-1.2-0.1-1.6-0.4c-1.2-1.1-4-3.2-4.4-1.3
	c0,0-2.4-0.2,0,1.2c0,0,2.6,3.1,2.2,3.5c0,0,0,1.4-6.6,2.6c0,0-1.7,0-4.1,3.4c0,0-4.8,7.4-4.7,8.9c0,0-1.1,3.4,1,1.1
	c0,0,0.2,2.5,1.4-0.3c0,0-0.2,2.9,1.8-0.3c0,0-0.2,2.6,1.9-0.5c0,0,0.7,0.7,1.5-1c0-0.1,0.1-0.2,0.3-0.1c0.3,0,0.9,0,1.2-1.1
	c0-0.1,0.1-0.1,0.2-0.1c0.2,0,0.6-0.1,1.1-0.8c0.1-0.1,0.1-0.1,0.2-0.1c0.2,0,0.6-0.2,0.9-0.7C11.9,33,12,33,12.1,33
	c0.2,0,0.6,0,0.8-0.4c0.1-0.1,0.1-0.1,0.2-0.1c0.2,0,0.6,0,0.9-0.4c0.1-0.1,0.1-0.1,0.2-0.1c1,0,7.6-0.3,10-1.4
	c0.2-0.1,0.5-0.1,0.7,0.1c0.2,0.1,0.3,0.4,0.2,0.7c0,0-1.9,4.2-0.3,4c0,0,0.3,0.9,1.2,0.6c0,0,0.5,0.9,1.6,0.5
	c0.2-0.1,0.4,1,1.5,0.3c0,0,1.3,0.3,1.6-0.4c0,0,1.4,0.3,1.2-0.4c0,0,1,0.4,1.1-0.7c0,0,1.4,0.3,1.2-0.7c0,0,1,0.3,1.2-0.6
	c0,0,1-0.3,0.7-1c0,0,1.4-0.3,1-1.3c0,0,0.8-0.7,0.4-1.5c0,0,0.9-0.5,0.1-1.2c0,0,0.7-0.9-0.1-1.1c0,0,1-1.1-2-0.3c0,0-4.8,1.2-5,0
	c0,0,4.3-2.5,5.3-6.8c0-0.1,0.1-0.2,0.2-0.2c0.3,0,0.9,0,1-0.5c0,0,0.9,0.3,1.3-0.7c0,0,1.3,0.1,1.5-0.7c0,0,1.2,0.1,1.6-0.8
	c0,0,1.4,0.3,1.4-0.9c0,0,2.5,0,1.7-1.6c0,0,3.3-1.2,1.4-1.9c0,0,2-0.7,2-1.6c0,0-0.8,0.2-0.8-0.5C46.8,11.3,47.8,10.9,48,10.4z
	 M14.8,18.5c-0.2,0-0.4-0.2-0.4-0.4c0-0.2,0.2-0.4,0.4-0.4c0.2,0,0.4,0.2,0.4,0.4C15.2,18.3,15,18.5,14.8,18.5z"/>
</svg>
