<?xml version="1.0" encoding="utf-8"?>
<!-- Generator: Adobe Illustrator 19.1.0, SVG Export Plug-In . SVG Version: 6.00 Build 0)  -->
<svg version="1.1" id="Layer_1" xmlns="http://www.w3.org/2000/svg" xmlns:xlink="http://www.w3.org/1999/xlink" x="0px" y="0px"
	 viewBox="0 0 48 48" style="enable-background:new 0 0 48 48;" xml:space="preserve">
<style type="text/css">
	.st0{fill:#808080;}
</style>
<path class="st0" d="M7.9,19.3c0,0-7.2-0.2-7.9,7.9c0,0-0.1,0.4,0.5,0.6c0,0-0.3,1.3,2.5,0.9c0,0,4.6-1.4,7.1,0c0,0,4.1,2,6.4,2.1
	c0,0,0.4,0.4-1.2,0.4c0,0-1.5,1.3-0.8,1.3c0,0,4,0.4,4.3-0.1c0,0,1.5,0.2,1.3-0.8c0,0,1.8-1.4,6.4,0.5c0,0-1,0.9,0.1,1
	c0,0,4.6,0.3,5.5-0.1c0,0,7.5-3.8,6.8-0.4c0,0-0.7,0.3-0.4,0.6c0,0,3.4,0.1,3.5-0.1c0,0,0.5-1.2-0.1-2.3c0-0.1-0.1-0.1-0.1-0.2
	c0-0.3,0-0.9,0.9-0.2c0.1,0,0.1,0.1,0.1,0.1l1,1.2c0,0-0.5,0.5,0,1c0,0,0.1,0.1-0.4,0.3c0,0,0,0,0,0l4.1,0.1c0,0,0.7-0.8,0.4-1.3
	c0,0-2.5-3.8-5.4-5.7c0,0,0,0,0,0c-0.2-0.1-0.3-0.2-0.5-0.4l-3.2-2.9c-0.2-0.2-0.4-0.4-0.6-0.6c-0.9-1-4.7-4.5-15.1-2.8
	c-0.1,0-0.2,0-0.3,0c-0.3-0.1-1.4-0.3-2.3,0.3c-0.2,0.1-0.4,0.1-0.5,0.1c-1.1-0.4-4.9-1.5-7.1,1.9c0,0,0.2-0.6-0.2-0.8
	c0,0-0.6,0.8-1.6,0.5c0,0,1.9-0.7,3.4-2.6c0,0,2.6-2.7,1.7-3.5c-0.8-0.7-0.3-0.3-0.1,0c-0.3-0.2-1.3-0.8-3.7,0.5
	c-0.1,0.1-0.3,0.2-0.4,0.3L7.9,19.3z M4.1,23.9c-0.5,0-0.9-0.4-0.9-0.9c0-0.5,0.4-0.9,0.9-0.9C4.6,22.1,5,22.5,5,23
	C5,23.5,4.6,23.9,4.1,23.9z"/>
</svg>
