<?xml version="1.0" encoding="utf-8"?>
<!-- Generator: Adobe Illustrator 19.1.0, SVG Export Plug-In . SVG Version: 6.00 Build 0)  -->
<svg version="1.1" id="Layer_1" xmlns="http://www.w3.org/2000/svg" xmlns:xlink="http://www.w3.org/1999/xlink" x="0px" y="0px"
	 viewBox="0 0 48 48" style="enable-background:new 0 0 48 48;" xml:space="preserve">
<style type="text/css">
	.st0{fill:#808080;}
</style>
<path class="st0" d="M47.3,25.3v-0.1c0,0-5.6-4.7-10.7-5.2c0,0-4.9-1.1-8.5-2c-0.2,0-0.3-0.1-0.5-0.2c-1.2-0.5-7-2.6-15.4,0.4
	c0,0-0.6,0.3-3.3-0.1c-0.2,0-0.4-0.1-0.7-0.1c-0.9-0.2-4.2-0.6-7.2,2.9c0,0-2.4,1.5,0.1,1.7c0,0,1,0.7,3.1-0.1c0,0,3.3-0.7,4.4,0.9
	c0,0,1.8,1.2-0.5,2.4c0,0-3.3,2.1-1.4,4.3c0,0,0-0.2,0.1-0.3c0,0,0.6-0.2,0.3-0.8c0,0-0.1-0.3,0.3-0.3c0,0,0.4-0.2,0-0.4
	c0,0,0.7-0.2,0.6-0.6c0,0,0.2-0.4,1.3-0.6c0,0,2.3-0.7,2.8-1.1c0,0,2.8-0.4,3.9,1.9c0,0,0.9,1.8,2.1,2.2c0,0,1.2,0.5,1.4,1.2
	c0,0,1,0,0.8-0.4c0,0-0.2-0.7-0.3-0.8c0,0,0.4-0.4,0.5-0.2c0,0,0.2,0.2,0.6-0.1c0,0,0.6,0.1,0.9-0.2c0,0,3-0.3,3.5-1.2
	c0,0,0.2-0.1,0.1-0.6c0,0-0.8-3.5,1-2.8c0,0,3.5,1.9,6.6,1.5c0.1,0,0.2,0,0.3,0c0.2,0,0.7,0.2,1.4,0.9l2.6,2.8c0,0,0.9-0.3,0.1-1.6
	c0,0-2.5-3.4-3.7-3.9c-0.1,0-0.2-0.1-0.3-0.2c-0.4-0.4-1.7-1.6-1.5-2.2c0,0,4.5,1.9,6.4,1.4c0,0,6.1,2,7.6,2.9
	C46.1,26.7,49.4,28,47.3,25.3z M3,21c-0.2,0-0.5-0.1-0.5-0.3c0-0.2,0.2-0.3,0.5-0.3c0.2,0,0.5,0.1,0.5,0.3C3.4,20.9,3.2,21,3,21z
	 M20.5,28.7c-0.7,0.2-1.2,0.7-1.2,0.7c-0.2,0.3-0.4,0-0.4,0c0-0.6-0.6-0.5-0.6-0.5c-0.2-0.3-1-2.8-1-2.8c-0.4-1,2.8-1.2,2.8-1.2
	c1.5-0.3,2.8,2.6,3,2.7C24.1,28,20.5,28.7,20.5,28.7z"/>
</svg>
