<?xml version="1.0" encoding="utf-8"?>
<!-- Generator: Adobe Illustrator 19.1.0, SVG Export Plug-In . SVG Version: 6.00 Build 0)  -->
<svg version="1.1" id="Layer_1" xmlns="http://www.w3.org/2000/svg" xmlns:xlink="http://www.w3.org/1999/xlink" x="0px" y="0px"
	 viewBox="0 0 48 48" style="enable-background:new 0 0 48 48;" xml:space="preserve">
<style type="text/css">
	.st0{fill:#808080;}
</style>
<path class="st0" d="M22.6,19.9l-0.8-0.4c0,0-0.9-2-4.5-1.9c-0.3,0-0.6,0-0.9-0.1l-5.7-1.9c0,0-1.1-0.6-1.8-0.5c0,0-4.5-1.6-5.2-1.4
	c0,0-3.6-1.5-3.7-1c0,0,1.4,1,3.5,1.5c0,0,4.5,1.3,5.1,1.7c0,0,1,0.5,2.2,0.7c1.3,0.2,0,0.1,0,0.1s4,1.6,5.3,1.8
	c0.2,0,0.3,0.1,0.5,0.2c0.2,0.1,0.6,0.3,1.4,0.2c0,0,1.6,0.2,2.4,1.4c0,0-6.5-1.2-8.4,2.3c-0.2,0.4-0.6,0.7-1,0.9c0,0,0,0,0,0
	c0,0-0.1,0.8,0.1,1.1c0,0,0.6-0.1,0.9,0.2c0,0,2,2.6,6.4,1.3l3.1-1.4c0,0-0.4,1.6-4.5,2.4c0,0-1.7,1-4,2.8c0,0-3.1,2.2-3.4,2.6
	c0,0-2.5,2.7-5.3,4.1c0,0-3.6,1.2-3.6,1.5c0,0,0.1,0.2,0.9,0c0,0,2.7-0.9,3-1.1c0,0,4.5-2.3,5.4-3.8c0,0,0.5,0,0.9-0.4
	c0,0,3.9-3.2,5.4-4.1c0.2-0.1,0.5-0.2,0.7-0.2c0.9,0,3.6-0.3,5.1-2.1l1-1.3c0,0,0.6-0.6,0.5,0.5c-0.1,1.1,0,0.1,0,0.1l0.4,0.3
	c0,0,0,2.7,0.2,4c0,0,1,4.6,1.7,5.7c0.1,0.1,0.2,0.3,0.2,0.4c0.3,0.8,1.1,3.1,1.4,3.7c0,0,0.9,2.8,1.1,2.6c0,0-0.2-2.1-0.5-2.6
	c0,0-1.2-4.1-1.4-4.4c0,0-0.9-3.5-1.3-4.8c-0.1-0.3-0.1-0.6,0-0.8c0.2-0.7,0.3-2.1-0.3-4.5l0.4-0.1c0,0,1.1,1.3,1.4,1.5
	c0,0,2.2,2.2,4.4,2.6c0,0,4.5,2.7,5.4,3.7c0,0,0.2,0.2,0.5,0.1l2.9,2.4c0,0,3,2.6,2.5,1.5c0,0-1.7-1.6-2.3-1.8c0,0-1.9-2.1-2.5-2.4
	c0,0-1.5-2.1-5.8-4.3c0,0-4.6-2.8-4.6-3.5c0,0,1.2,0.6,1.5,0.6c0,0,0.9,1.2,3.5,0c0,0,9.2,1.4,10,1.2c0,0,3.4,0.2,2.6-0.3
	c-0.8-0.5-0.1-0.1-0.1-0.1l-12.4-1.9c0,0,0-0.4-0.6-0.3c0,0-0.1-1.3-1.5-1c0,0-0.8,0.6-1.2,0.1c0,0,2.5-0.5,1.2-1.9
	c0,0,0.8-1.1-0.5-1.6c0,0-1-0.3-1.1-0.2c0,0,0.2-0.3,0.9,0c0,0,1.8,0,1.8-0.8c0,0-0.1-0.8-0.9-0.5c0,0-0.4,0.2-0.1,0.5l-1,0.1
	c0,0-0.8,0.2-1,0.4c0,0,0.3-0.5,1.9-0.9c0,0,0.5-0.1,1.4-0.1c0,0,1.2,0,1.8-0.6c0,0,7.1-1.6,7.3-1.9c0,0,3.9-1.1,4.1-1.4
	c0,0,3.8-1.1,2.7-1.5c0,0-9.1,2.5-11.9,3.2l-2.7,0.6c0,0-4.3-0.4-5.4,1.6c0,0-0.3-0.4-1.1,0.5l1.7-2.6c0.2,0,5.1-3.4,5.6-3.9
	c0,0,4.3-2.5,4.1-3.7l-4.5,3.1c0,0-5.1,3.1-5.9,3.8c0,0-1.7,0.3-1.9,2.4l-0.4,0.1l-0.5,1l-0.3,0c0,0-0.9-2.7-2.2-2.9
	c0,0-1.5-3.5-1.9-5.5c0,0-1-5.5-1.9-5.4c0,0-0.7-0.6,0.8,4.9c0.1,0.3,0.1,0.5,0.2,0.8c0.2,1.1,0.7,4.2,1.8,5.9c1.4,2.1,0,0.1,0,0.1
	S23.7,19.4,22.6,19.9z"/>
</svg>
