<?xml version="1.0" encoding="utf-8"?>
<!-- Generator: Adobe Illustrator 19.1.0, SVG Export Plug-In . SVG Version: 6.00 Build 0)  -->
<svg version="1.1" id="Layer_1" xmlns="http://www.w3.org/2000/svg" xmlns:xlink="http://www.w3.org/1999/xlink" x="0px" y="0px"
	 viewBox="0 0 48 48" style="enable-background:new 0 0 48 48;" xml:space="preserve">
<style type="text/css">
	.st0{fill:#808080;}
</style>
<path class="st0" d="M43.3,37.6c0,0-0.7-0.3-0.1-0.9l0-0.1c0,0,3.4-2.1-0.2-9.3c-1.4-2.7-3.6-4.9-6.3-6.3c-2.8-1.4-7-2.8-13.1-3.2
	c-0.5,0-1.1-0.1-1.6-0.3c-1.2-0.4-4-0.9-6.6,1c-0.1,0.1-0.2,0-0.3-0.1c0-0.1-0.1-0.2-0.1-0.5c0-0.2-0.1-0.3-0.3-0.3
	c-0.5,0-1.3-0.2-0.9-1.1c0,0,0.5-0.7,0.7-1.4c0.1-0.3,0.3-0.6,0.7-0.7c0.8-0.4,2.2-1.2,3.4-2.8c0.1-0.1,0.2-0.3,0.3-0.4
	c0.6-0.7,2.6-3,1.1-4.1c0,0-1.6-1.2-3.8,0.7c0,0-0.9-2.6-3.4-0.7c0,0-0.8,1.2-1.7,4.4c0,0.1,0,0.2-0.1,0.2c-0.1,0.4-0.3,1.7-1.1,1.6
	c0,0-4.1-1-6.1,1.3c-0.1,0.1-0.2,0.2-0.3,0.3c-0.3,0.3-1,0.8-2.1,1.4c-0.4,0.2-0.7,0.5-1,0.9C0.2,17.6,0,17.9,0,18.3
	c0,0-0.1,0.3,0.5,0.7c0,0-0.3,2.2,2.9,2.9c0.4,0.1,0.8,0.2,1.1,0.3l3.3,1.3c0.9,0.3,1.7,0.8,2.5,1.3l2,1.4c0.3,0.2,0.6,0.5,0.7,0.9
	c0.3,0.8,1.2,2.4,4.3,4.5c0.5,0.3,1,0.8,1.3,1.3c0.8,1.4,2,4.1-0.2,5.3c0,0-2,0.2-1.8,1.6c0,0,4,0.4,4.7-0.1c0,0,0,0,0,0
	c0.5-0.6,1.5-2.7,1.7-4.2c0,0,1.8,3.4,0.6,4.3c0,0-2.1,1.1-1.2,1.6c0,0,4.9,0.5,4.8-0.7c0,0-0.7-5.6-0.6-6.4c0,0,4.7,1.8,4.5,2.1
	c0,0-1.7-0.1-2.2,2.4c0,0,1.1,0.5,2.6,0.3c0,0-1.1,1.4-0.7,1.5c0,0,11.4,0.8,12.3-1.2c0,0,2.9-0.9,4.9-0.4
	C47.9,39,46.2,37.9,43.3,37.6z M6.3,17.1c0,0-1.2,0.2-1.3-0.5c0,0,0-1.6,1.5-0.6C6.4,16,7,16.5,6.3,17.1z"/>
</svg>
