<?xml version="1.0" encoding="utf-8"?>
<!-- Generator: Adobe Illustrator 19.1.0, SVG Export Plug-In . SVG Version: 6.00 Build 0)  -->
<svg version="1.1" id="Layer_1" xmlns="http://www.w3.org/2000/svg" xmlns:xlink="http://www.w3.org/1999/xlink" x="0px" y="0px"
	 viewBox="0 0 48 48" style="enable-background:new 0 0 48 48;" xml:space="preserve">
<style type="text/css">
	.st0{fill:#808080;}
</style>
<path class="st0" d="M43.6,10.5c0,0,3.9-2.6,4.4-4.3c0,0-2.7,1.5-3.2,1.8c-0.1,0-0.1,0.1-0.2,0.1c-0.5,0.2-3.3,1.3-3.8,2.6
	c0,0.1-0.1,0.2-0.2,0.2L40.3,11c-0.2,0.1-0.4,0-0.5-0.1l-1-0.8c-0.1-0.1-0.1-0.2,0-0.2c0.3-0.5,1.2-2.2,0.6-2.3c0,0-0.6,0.7-1.4,1.2
	c-0.1,0.1-0.2,0.2-0.3,0.2c-0.5,0.5-1.6,1.9,0.3,3.4c0,0,0,0.1,0,0.1c-0.6,0.1-2.8,0.4-4.6-1.4c0,0-0.1-0.1-0.1-0.1
	c-0.2-0.3-1.6-2.1-4.4-0.3c0,0-4.1,2.5-12,0.8c-0.1,0-0.2,0-0.3-0.1c-0.9-0.1-5.4-0.8-5.8-1c0,0-2.3-0.6-4.2,0.4c0,0-0.1,0-0.2,0
	c-0.5,0-3.3-0.1-5,2.6c-0.7,1.1-1,2.4-0.9,3.7l0.3,6.6l-0.1,7.8c0,0.1,0,0.2,0,0.3c0,0-0.1,0.5-0.1,1.2c0,0.2,0,0.5,0,0.8
	c0,0.2,0,0.3-0.1,0.5L0,35.3c0,0.1,0,0.2,0.1,0.2c0.2,0.1,0.4,0.3,0.4,1c0,0-0.5,4.8,1.1,4.7c0.1,0,0.1,0,0.2,0c0.5,0,2.7,0,2.1-0.5
	c0,0-0.2-0.6-0.6-0.9c0,0-0.2-0.8-0.5-1.3c-0.1-0.1-0.1-0.3-0.1-0.4c0.1-0.8,0.5-3.4,1.2-4.5c0.1-0.1,0.2-0.1,0.2,0l0.2,5.6
	c0,0,0.1,2.1,0.6,1.2c0,0,0.6-0.2,0.5,0.8c0,0-0.2,0.6,0.8,0.5c0,0,2.1,0.2,1.7-0.6c0,0-0.7-1-1.3-1.6c-0.3-0.4-0.5-0.8-0.6-1.3
	c-0.2-1-0.3-2.7,0.1-4.2l1.7-4.9l0.7-2.1c0-0.1,0.1-0.2,0.1-0.3c0.1-0.2,0.3-0.5,0.6-0.8c0.2-0.2,0.6-0.3,0.9-0.2l2.1,1
	c0,0,1.2,0.5,2,1.2c0.3,0.3,0.6,0.8,0.6,1.2c0.1,0.9,0.3,3,0,3.7c0,0,2.9-1.1,1.8-3.5c0,0,0-2.3,3.2-2.1c0,0,2.7,0.3,4.5,0.7
	c0.4,0.1,0.8,0.3,1.2,0.5l0.5,0.3c0.6,0.4,0.9,1,1,1.7c0.1,1.2,0.3,3.1,0.7,3.8c0.1,0.1,0.1,0.2,0.1,0.3l0.3,4c0,0-0.1,0.4,0.1,0.5
	c0,0,0.4,0.7,0.5,1c0,0,0.2-0.4,0.3-0.2c0,0,0.2,1.3,1.5,1.5c0,0,1.5,0.3,1.2-0.4c0,0,0,0,0,0c0-0.1-0.2-0.7-0.4-1c0,0,0-0.1,0-0.1
	c0-0.2-0.1-0.6-0.8-1.2c0,0-0.1-0.1-0.1-0.1c-0.1-0.3-0.3-1.4-0.5-1.7c0,0,0-0.1,0-0.1l-0.1-1.8c0,0,0-0.1,0-0.1
	c0.1-0.2,0.4-1.2,0.4-1.7l0.1-2.2c0-0.1,0.1-0.2,0.2-0.1c0.2,0,0.7,0,1-0.3c0,0,2.4-2.5,2.8-2.4c0.1,0,2.2,0,1.4-1.9
	c0,0,0-0.1,0-0.1c0-0.5,0.4-3.9,4.4-3.2c0.1,0,0.3,0,0.4,0c0.2-0.1,0.4-0.2,0.6-0.4c0,0,1.2-1,2.3-0.1c0,0,0.3,0.3,1.3-0.2
	c0,0,0.1,0,0.1,0c0.3,0,1.7-0.3,0.8-1.9l-1.7-3.2c-0.1-0.1-0.1-0.3-0.1-0.4c0-0.6,0-2.2-0.9-3.2c-0.1-0.1-0.1-0.1-0.1-0.2
	c0-0.2,0-0.7-0.2-1.2c0-0.1,0-0.2,0-0.3C42.6,11.6,42.8,11,43.6,10.5z M2.5,29.7C2.3,32.8,2,32.2,2,32.2c0.1-2-0.5-4.7-0.5-4.7
	L1.3,17.2c0-0.7,0.4-1.6,0.3-1.3c-0.3,0.9,2.1,8,2.1,8C4.5,26.5,2.5,29.7,2.5,29.7z M42,17.1l-0.4-0.7c0,0-0.9,0.1-1-0.4
	c0-0.1,0-0.2,0.1-0.2c0.2-0.1,0.8-0.3,1,0.4l0.5,0.8C42.1,17,42.2,17.2,42,17.1z"/>
</svg>
