<?xml version="1.0" encoding="utf-8"?>
<!-- Generator: Adobe Illustrator 19.1.0, SVG Export Plug-In . SVG Version: 6.00 Build 0)  -->
<svg version="1.1" id="Layer_1" xmlns="http://www.w3.org/2000/svg" xmlns:xlink="http://www.w3.org/1999/xlink" x="0px" y="0px"
	 viewBox="0 0 48 48" style="enable-background:new 0 0 48 48;" xml:space="preserve">
<style type="text/css">
	.st0{fill:#808080;}
</style>
<path class="st0" d="M47.2,4.4c0,0,0.4-0.4-0.1-0.5c0,0,0.6-1.4-0.3-1.3c0,0-0.3-2.1-1.7-1.9c-0.1,0-0.2,0.1-0.3,0.1
	c-0.2,0.3-0.7,0.9-0.2,1.8c0,0-2.1-1.1-3.9,2.4c0,0-1.7,0.7-3.2,4.8c-0.7,2-1.9,3.7-3.6,5c-2.3,1.8-5.9,4.3-10.5,6.3
	c-0.4,0.2-0.9,0-1.1-0.4c-0.2-0.5-0.8-1.1-1.9-1.1c-0.2,0-0.5-0.1-0.7-0.2C17.8,18,6.9,11,0,20.6c0,0,0.3,0.4,0.7-0.2l-0.2,1.1
	c0,0.1,0.1,0.2,0.2,0.2c0.3-0.1,0.8-0.4,1.1-0.9l-0.2,0.6L2.5,21c0.1,0,0.2,0.1,0.1,0.1c-0.5,0.9-1.8,3.8-0.9,8.5
	c0,0,0.6-6.2,2.5-7.6c0.2-0.1,0.4,0,0.4,0.2l0,0.2c0,0-1.8,4.1-0.9,6.4c0,0,1.1-2.7,1.8-3.7c0.1-0.1,0.3-0.1,0.3,0.1l0,0.9
	c0,0,0.5-1,0.7-1.5c0.1-0.1,0.2-0.1,0.3,0c0.1,0.2,0.2,0.5,0.2,0.8c0,0.2,0,0.4,0,0.5c-0.2,0.9-0.9,3.8,0.3,5.3c0,0,0.5-4.2,1.7-4.7
	c0.1-0.1,0.3,0.1,0.2,0.2c-0.3,0.8-1,3,0.4,3.7l1.4-2.1c0.1-0.1,0.2,0,0.2,0.1l-0.2,2c0,0,1-0.2,3-2.8c0.1-0.1,0.2,0,0.2,0.1
	c-0.1,0.7-0.1,1.9,0.7,2.5l1.5-1.9c0.1-0.2,0.4-0.2,0.6-0.1l0.1,0.1c0.2,0.1,0.2,0.2,0.2,0.4c-0.1,0.9-0.3,3.7,0.6,4.8
	c0,0,0.5-2.2,0.8-3.1c0-0.1,0.2-0.1,0.2,0c0.2,0.8,0.6,2.8,1.2,3.3c0,0,0.7-3.4,3-2.4c0.3,0.1,0.5,0.3,0.8,0.5
	c0.5,0.5,1.9,1.6,4,1.5c0,0-1.3,1.2-1.1,2.4c0,0.2,0.1,0.4,0,0.6c-0.1,1.1-0.5,4.4-1,4.7c0,0,0,0,0,0c-0.6,0.1-1.4-0.6-1.5-0.6
	c0,0,0.4,0.9,1.2,1.3c0.1,0,0.1,0.1,0.1,0.2c0.1,0.3,0.1,0.9-0.3,1.2c0,0-0.9,0.6-1.3,0.8c0,0-0.3,0.1-0.3,0.5c0,0,0.3-0.3,0.5-0.2
	c0,0,0.5,0.5,1-0.2c0,0,0.5-0.1,0.3,0.7c0,0-0.1,0.2,0.1,0.3c0,0,2.6,2.5,2.9,2c0,0,0.1,0,0.1,0.2c0,0,0.4-0.5-0.1-0.7l-0.2-0.2
	l2.9-0.1c0,0,0.2-0.2,0-0.3c0,0,0,0,0,0c-0.2,0,0.4-0.2,0.7,0c0,0-0.1-0.2-0.3-0.3c-0.1,0-0.1-0.1-0.1-0.2c0-0.3,0.1-0.9,0.3-0.7
	c0,0,0,0.6,0.8,0.5c0.1,0,0.1,0,0.2,0.1c0.1,0.1,0.4,0.4,1,0.4c0,0,1,0.6,1.1,0.1c0,0,0.1-0.1,0.3,0.2c0,0,0-0.6-0.8-0.7
	c0,0,0,0,0,0c-0.8-0.2,0.9-0.2,1.3-0.1c0,0,0.5,0.1,0.8,0c0,0,1.3,0.2,1.5-0.1c0,0,0.3,0.1,0.4,0.3c0,0-0.1-0.6-0.9-0.8
	c0,0-0.1-0.2-3.6-0.3c0,0-0.8,0-0.9-0.8c0,0-2.1-6.5-1-6.1c0.1,0.1,3.5-6.6,5.3-8.1c0,0,12.3-9.8,8.1-21.2c0,0,1.6-1,1-2.9
	c0,0,0.6-0.3,1.4,0.3C48,5.6,48.1,4.8,47.2,4.4z M30.5,45.6c-3.1,0.4-3.4-1.2-3.4-1.2c-0.4-1.2,1-5.9,1.2-6.5c0,0,0-0.1,0.1-0.1
	c0.4-0.3,1.2-0.9,1.6-1.2c0.1,0,0.2,0,0.2,0.1c0,0.9,0.8,4.2,1,5c0,0.1,0,0.2-0.1,0.2c-1.1,0.3-0.1,0.6,0.2,0.7
	c0.1,0,0.1,0.1,0.2,0.2C31.6,44.4,30.5,45.6,30.5,45.6z M44.6,4.3c0,0.2-0.3,0.3-0.6,0.2c-0.3-0.1-0.5-0.3-0.4-0.4
	c0-0.2,0.3-0.3,0.6-0.2C44.4,3.9,44.6,4.1,44.6,4.3z"/>
</svg>
