<?xml version="1.0" encoding="utf-8"?>
<!-- Generator: Adobe Illustrator 19.1.0, SVG Export Plug-In . SVG Version: 6.00 Build 0)  -->
<svg version="1.1" id="Layer_1" xmlns="http://www.w3.org/2000/svg" xmlns:xlink="http://www.w3.org/1999/xlink" x="0px" y="0px"
	 viewBox="0 0 48 48" style="enable-background:new 0 0 48 48;" xml:space="preserve">
<style type="text/css">
	.st0{fill:#808080;}
</style>
<path class="st0" d="M1.2,20.8C1.1,21,1,21.2,1,21.5c-0.1,1-0.5,4.4-1,5c0,0,2.3,0,0,2.7c0,0,1.5-0.7,1.9-2.4c0,0,0.5-1,0.6-2.1
	c0-0.2,0.3-0.3,0.4-0.1c0.2,0.5,0.5,1.1,0.6,1.7c0.1,0.4,0,0.8-0.1,1.1c-0.3,0.8-0.8,2.9,1.7,5.5c0.1,0.1,0.2,0.2,0.3,0.3
	c0.1,0.1,0.4,0.5-0.5,2.1c-0.3,0.6-0.4,1.2-0.3,1.9c0.5,2,1.5,6.1,2,6.9c0,0-0.5,2.2,0.9,1.2c0,0,0.4,0.3,0.3,1c0,0-0.3,1.2,1,1.3
	c0,0,2.9,0.5,2.4-0.4c0,0-1.5-1.1-1.4-1.7c0,0,0.7-0.1,0.8-0.3c0,0-1-1-2.2-2.3c-1.1-1.3-1.9-6.9,1-8.8c0.1,0,0.1-0.1,0.2-0.1
	c0.4-0.3,2.5-1.6,5.3-0.7c0.3,0.1,0.7,0.2,1,0.2c1.5,0.1,5.8,0.1,8.1-0.7c0.3-0.1,0.5,0.1,0.5,0.4c0,1.3-0.1,4.1-0.2,4.6
	c0,0-0.2,1-0.1,1.6l0,0c0,0.4,0,0.8-0.1,1.1l-0.8,2.9c0,0-0.5,1.3,0.3,1.1c0,0,0.5,0.9-0.1,1.3c-0.1,0.1-0.1,0.2,0,0.3
	c0.1,0.1,0.2,0.2,0.2,0.4c0,0,0,1,1.4,1c0,0,2.2,0.4,1.9-0.6c0,0-0.5-0.2-0.6-0.8c0-0.1,0.1-0.2,0.2-0.2l2.1,0.1
	c0,0,0.4-0.3,0.2-0.7c0,0-1.6-1.1-1.5-3.7v-1.8c0-0.2,0.1-0.3,0.2-0.5c0.2-0.2,0.6-1,0.6-3.3c0,0-0.5-3.6,3-4c0.3,0,0.5-0.1,0.7-0.3
	c0.9-0.8,3.3-3,3.4-5.6l0.9-2.3c0,0,0.1,1.1,0.6,0.9c0,0,1.7-0.7,2-1.2c0,0,2.1-0.6,1.7-1.4c0,0-0.4,0.2-0.5,0.1c0,0-1.5-1.3-1.9-2
	c-0.1-0.1-0.1-0.3,0-0.5l0.3-0.8c0.1-0.2,0.3-0.2,0.4-0.1c0.4,0.4,1.3,1.2,1.8,1.2c0,0,1.3,0,1.4-1.4c0,0,0.3-0.3-0.1-1.5
	c-0.1-0.5-0.1-0.9,0-1.4c0.1-0.5,0.4-1.1,0.8-1.8c0,0,0.5-0.4-0.1-1.8c-0.1-0.1,0-0.3,0.1-0.4c0.4-0.5,1.6-1.7,1.7-2.4
	c0-0.2-0.1-0.3-0.2-0.3c-0.3,0-0.7,0-1.2,0.7c0,0-0.7,0.8-1,0.6c-0.2-0.2,0.5-3.7,3.7-5.8C45.9,4.1,46,4,46.1,3.9
	c0.5-0.3,2.1-1.1,1.8-2c0,0-0.7,1.5-5,2.9c0,0-0.1,0-0.1,0C42.6,4.9,41.1,5.3,41,7c0,0,0.1,4.2-0.8,2.9c0,0,0.1-3.2-2.8-4.9
	l-4.5-2.5c-0.2-0.1-0.5-0.3-0.6-0.5c-0.3-0.3-0.8-0.9-1.1-1.7c0,0-0.9,1.4,1.7,2.7c0,0,2.6,1.7,4.1,4.4c0,0,0.6,1.2,0.8,2
	c0.1,0.3-0.1,0.6-0.4,0.7c-0.1,0-0.2,0.1-0.3,0.1c-0.1,0.1-0.2,0.1-0.3,0.1c-0.8-0.2-3.4-1.1-4.4-1.8c0,0,0.5,1.9,2.9,3.1
	c0.1,0,0.1,0.2,0,0.2c-0.6,0.4-2.1,1.7-1.6,3.3c0,0.1,0,0.3-0.1,0.4l-0.8,0.7c-0.1,0.1-0.3,0-0.4-0.1c-0.1-0.5-0.5-1.1-1.2-0.7
	l0.4,0.6c0,0-4.9-0.1-7.6,1.2c-0.6,0.3-1.2,0.4-1.8,0.5c-1,0.2-2.3,0.2-3.6-0.2c-0.2-0.1-0.4-0.1-0.6-0.2C18,17.3,6.4,11.3,1.2,20.8
	z M37.3,12.9c0,0,1.1-0.3,1.2,0.7C38.6,13.5,37.4,14,37.3,12.9z"/>
</svg>
