<?xml version="1.0" encoding="utf-8"?>
<!-- Generator: Adobe Illustrator 19.1.0, SVG Export Plug-In . SVG Version: 6.00 Build 0)  -->
<svg version="1.1" id="Layer_1" xmlns="http://www.w3.org/2000/svg" xmlns:xlink="http://www.w3.org/1999/xlink" x="0px" y="0px"
	 viewBox="0 0 48 48" style="enable-background:new 0 0 48 48;" xml:space="preserve">
<style type="text/css">
	.st0{fill:#808080;}
</style>
<path class="st0" d="M43.8,36c-0.2-0.1-0.3-0.1-0.4-0.2c-0.9-0.7-4.4-3.6-6.1-4.6c0,0-2.5-1.7-3.2-2.9c-0.1-0.1-0.1-0.3,0.1-0.4
	c0.3-0.2,0.9-0.5,1.7,0.3c0,0,0.5-0.8-2.4-3.5c-0.3-0.3-0.5-0.5-0.8-0.8c-1.3-1.7-5.9-7.5-7.8-9.3c0,0-2.7-2.6-3.8-5.5
	c0,0-4-10.2-12.3-8.8c-0.1,0-0.2,0-0.3,0C7.7,0.2,4.1,0.6,2.6,1.7c0,0,0.9,1.4,1.8,2.5c0.5,0.6,0.8,1.3,0.9,2.1
	c0,0.2,0.1,0.4,0.2,0.8C5.8,8,6,9,6,10.1v0.1c0,1.7-0.2,3.5-0.8,5.1c-1.2,3.4-2.2,9.9,4,15.9c0,0,5.6,4.8,5.3,5.5c0,0,0.4,0.2-3,1.1
	c0,0-1.5,0.4-2.1,1.3c-0.2,0.3-0.5,0.6-0.8,0.8c-0.4,0.2-0.9,0.5-1.8,1c-0.1,0-0.2,0.1-0.2,0.2c-0.3,0.3-1,1.2-0.3,1.9
	c0,0-0.2-0.7,0.2-0.8c0,0,0.4,0,0.4-0.5c0-0.1,0.1-0.1,0.1-0.1c0.1,0,0.3,0,0.5-0.2c0,0,0.1-0.1,0.1,0c0.1,0,0.4,0.1,0.5-0.1
	c-0.1,0.2-0.6,1-0.6,1.9c0,0.2,0,0.4,0,0.6c-0.1,0.6-0.3,1.8-0.1,2.6c0,0.1,0,0.1,0,0.2c0,0.3,0.1,1.3,0.6,1.5c0,0-0.3-1.3,0-1.6
	c0,0,0.3-0.1,0.1-1.5c0,0-0.3-1.9,1.2-3.9c0-0.1,0.1-0.1,0.2,0c0.3,0.4,1,1.6,1.7,1.8c-0.1-0.1-1.9-2.4,0.4-2.3c0,0,0.1,0,0.1-0.1
	c-0.1-0.3-0.5-1.3,0.3-1.3c0,0,1.9-1.1,3.1-1c0,0,0.7,0,1.3-0.5c0.1-0.1,0.3-0.2,0.4-0.2c0.4,0,1.2,0.1,2.3,0.6c0,0,2.2,1.2,8.6,0.5
	c0.1,0,0.2,0.1,0.2,0.2c-0.1,0.2-0.2,0.4-0.3,0.5c0,0.1-0.1,0.1-0.2,0.1c-0.3,0-0.9,0-0.9,0.4c0,0.1,0,0.1-0.1,0.1
	c-0.2,0-0.5-0.1-0.6-0.1c-0.1,0-0.2,0-0.2,0c-0.2-0.1-0.4-0.2-0.6-0.3c0,0-0.7-0.4-1,0.4c0,0-1.1,1.2-0.4,2.1c0,0,0.2-0.7,0.3-1
	c0-0.1,0.1-0.1,0.2-0.1c0.1,0,0.4,0,0.6-0.3c0,0,0.1-0.1,0.1-0.1l0.3,0c0,0,0.1,0.3,0.4,0.3c0.1,0,0.1,0,0.1,0.1
	c0,0.2,0.1,0.3,0.1,0.8c0,0.6,0,0,0,0s-0.2,1.8,0.2,3c0,0-0.1,1.5,0.9,2c0-0.1-0.5-1.4-0.4-1.8c0,0,0.5-0.1,0.1-1.2
	c0-0.2-0.1-0.3-0.1-0.5c0-0.8,0.1-2.9,1.1-2.2c0,0,0.2,0.9,0.7,1c0,0-0.9-1.3,0.3-1.2l0.2,0c0,0,0.3-0.5-0.1-1.1
	c0,0,0.4-0.6,0.4-0.9c0-0.1,0.1-0.1,0.1-0.1c0.6,0,3.4,0.1,4.4-1.8c0-0.1,0.1-0.1,0.2-0.1c0.4,0,1.5,0.1,2.5-0.6c0.1,0,0.1,0,0.2,0
	c0.7,0.4,4.2,2.4,5.3,1c0.1-0.1,0.1-0.1,0.2,0c0.3,0.1,0.9,0.4,1.7,0.1c0.1,0,0.2,0,0.3,0c0.1,0.1,0.5,0.3,1.2,0.1
	C45.4,37.1,44.9,36.5,43.8,36z M10.1,4.6C9.5,4.6,9,4.2,9,3.8c0-0.5,0.5-0.8,1.1-0.8s1.1,0.4,1.1,0.8C11.3,4.2,10.7,4.6,10.1,4.6z"
	/>
</svg>
