<?xml version="1.0" encoding="utf-8"?>
<!-- Generator: Adobe Illustrator 19.1.0, SVG Export Plug-In . SVG Version: 6.00 Build 0)  -->
<svg version="1.1" id="Layer_1" xmlns="http://www.w3.org/2000/svg" xmlns:xlink="http://www.w3.org/1999/xlink" x="0px" y="0px"
	 viewBox="0 0 48 48" style="enable-background:new 0 0 48 48;" xml:space="preserve">
<style type="text/css">
	.st0{fill:#808080;}
</style>
<path class="st0" d="M45.5,26.2c0,0-1.4-1.6-1.5-2.8c0-0.2,0-0.5,0.2-0.6c0.5-0.7,2-3,2.3-3.8c0,0,0-0.1,0-0.1
	c0.2-0.4,1.4-2.7,1.5-2.9c0,0-1.8-0.7-5.7,3.3c0,0-4,4-7.6,1.5l1.4-0.1c0,0-0.5-0.2-0.8-0.3c-0.1-0.5-0.6-0.6-1.1-0.8
	c-0.3-0.1-1.7-0.7-1.7-0.8c-0.1-0.1-0.2-0.2-0.6-0.3c-0.4-0.1-0.8-0.2-0.8-0.3c0-0.1,0-0.1-0.3-0.2c-0.3,0-2.1-0.9-2.7-1.3
	c-0.1,0-0.1-0.1-0.2-0.2c0,0-0.1-0.1-0.2-0.1c-0.2,0-0.4-0.1-0.4-0.2c0,0,0-0.1-0.1-0.1c0,0-0.9,0.2-1.5,1c0,0-0.3-0.4-0.8-0.2
	c-0.1,0-0.2,0-0.3,0c-0.2-0.1-0.6-0.3-0.9-0.3c-0.1,0-0.3-0.1-0.3-0.2c-0.4-0.6-0.7-0.3-1.2-0.8c-0.2-0.2-0.5-0.5-0.5-0.6
	c0,0-0.7-0.1-0.7-0.6c0-0.1-0.1-0.2-0.2-0.2c-0.4,0-1.1,0.1-1.3-0.2C19.1,14,19,14,19,14.1c-0.7,0.8-3.1,3.8-3,4
	c0,0-5.1,0.6-7.8,1.8C8,19.9,7.9,20,7.9,20c-0.9,0.3-6.5,2.5-7.1,3.1c0,0-0.1,0.1-0.1,0.1c-0.3,0.2-1,0.7-0.2,1.1
	c0,0-0.8,0.3,0.5,1.7c0,0,1.9,1.5,4.5,2.5c0.5,0.2,1,0.3,1.5,0.4c0.4,0,0.9,0.1,1.3,0.3c0,0,3.2,0.8,4.4,0.9c0,0,0.3,0.1,0.5,0.4
	c0,0,2.8,4.8,2.7,3.1c0,0,0-0.2,0.2-0.2c0,0,0.2-0.2,0.1-0.5c0,0-0.1-0.3,0.1-0.3c0,0,0.3-0.1,0.3-0.6c0,0,0-0.5,0.3-0.5
	c0,0,0.1-0.3-0.1-0.5c0,0-0.6-0.6-0.2-0.6c0.4,0,11.6-0.9,14.4-2.1c0.2-0.1,0.4,0,0.6,0.1c0.5,0.4,1.4,1.1,2.1,1
	c0.1,0,0.1,0,0.2-0.1c0.2-0.1,0.5-0.4,0.7-0.3c0.1,0,0.1-0.5,0.6-0.7c0.1,0,0.2-0.7,0.8-1.3c0,0,1.2-1.4,0.8-1.4l-0.2,0
	c0,0-0.1-0.1,0-0.1c0.6-0.2,2.2-0.7,3.2,0c1.2,1,6.9,5.1,8.4,4.6C48,30.2,46.9,27.5,45.5,26.2z M5.1,25.1c-0.5,0-0.9-0.4-0.9-0.8
	c0-0.5,0.4-0.8,0.9-0.8S6,23.8,6,24.2C6,24.7,5.6,25.1,5.1,25.1z"/>
</svg>
