<?xml version="1.0" encoding="utf-8"?>
<!-- Generator: Adobe Illustrator 19.1.0, SVG Export Plug-In . SVG Version: 6.00 Build 0)  -->
<svg version="1.1" id="Layer_1" xmlns="http://www.w3.org/2000/svg" xmlns:xlink="http://www.w3.org/1999/xlink" x="0px" y="0px"
	 viewBox="0 0 48 48" style="enable-background:new 0 0 48 48;" xml:space="preserve">
<style type="text/css">
	.st0{fill:#808080;}
</style>
<path class="st0" d="M45.7,7.7c0-0.5-0.3-2.1-4.6-1.2c0,0-5.4,1.7-7.1,7.7c-0.4,1.5-1.1,2.8-2.1,3.9c-0.6,0.7-1.4,1.3-2.3,1.7
	c-0.2,0.1-0.4,0.2-0.5,0.2c-0.7,0.4-2.7,1.5-3.6,2.3c-0.1,0.1-0.2,0.1-0.3,0.1c-0.4,0-1.3,0.2-2.1,1.3c-0.1,0.1-0.2,0.2-0.3,0.3
	c-0.5,0.3-2,1.2-3.8,1.6c-0.2,0.1-0.4,0.1-0.6,0.3c-0.5,0.3-1.4,1-0.9,1.1c0,0,2.8,0.7,1.6,1c0,0-3.5,0.2-5.5,1.7
	c-0.1,0.1-0.3,0.2-0.4,0.2c-1.5,0.2-9.5,1-13.2,0.3c0.1,0,1.8,0.6,3.1,0.8c0.1,0,0.1,0,0.2,0c0.3,0.1,1.5,0.5,2.3,1
	c0,0,1.1,0.6,3.1,0.5c1.9-0.1,7.4-0.2,10.9-1c0.2,0,0.4,0,0.6,0.1c0.7,0.3,2.5,1.1,4.9,1.4c0.2,0,0.4,0.1,0.6,0.2
	c0.6,0.5,1.8,1.7,2,3.4c0,0-0.1,0.4,0.8,1.1c0,0,0,0.1,0,0.1c-0.2,0.1-0.6,0.5-0.2,0.9c0,0,0,0.1,0,0.1c-0.4,0-1.3-0.1-2.6-0.6
	c0,0-1.4-0.6-1.2,0.7c0,0,0.2-0.8,0.9-0.3c0,0,0.1,0.1,0,0.1c0,0.1-0.1,0.5,1,0.7c0.1,0,0.2,0,0.3,0.1c0.4,0.1,1.7,0.5,2.5,0.2
	c0,0,0.3-0.2,0.7,0.2c0,0,3.6,2.5,3.9,1.3c0,0,0-0.1,0.1-0.1c0.2,0,0.6,0.2,1,0.7c0,0,0-0.7-0.9-1c0,0-0.1,0-0.1-0.1
	c-0.1-0.2-0.4-0.6-1.7-1c0,0-1.6-0.3-1.9-1.5c0,0,0-0.1,0-0.1c0-0.1,0-0.4-0.4-0.8c0,0-0.1-0.1-0.1-0.1l-0.1-1.7
	c0-0.1,0-0.1,0.1-0.1c0.3-0.1,1.5-0.7,1.5-1.9c0,0,0-0.1,0.1-0.1c0.3-0.2,1.5-1,1.5-0.6c0,0-0.1,1.6,0.9,2.7c0,0,1,1,0.3,1.1
	c-0.1,0-0.2,0-0.3-0.1c-0.1-0.1-0.4-0.3-0.6-0.3c0,0-0.5-0.6-0.8-0.2c0,0-0.3,0.3-0.2,0.5c0,0,0.5-0.6,0.7-0.1c0,0-0.5,0.6,0.2,0.8
	c0,0,0.8,0.2,1.5,0.2c0.1,0,0.2,0,0.3,0.1c0.3,0.3,1.1,1.2,2,1.1c0,0,0.1,0.2-0.1,0.5c0,0,0.3-0.1,0.4-0.5c0,0,0,0,0.1,0
	c0.3,0.2,1.7,0.9,1.7,0.2c0,0,0,0,0.1,0c0.1,0.1,0.2,0.2,0.3,0.9c0,0,0.7-1.4-1-1.8c0,0-1.1-0.3-2-1.3c0,0-1.6-1.4-1.4-1.7
	c0,0,1.3-3.2,1.3-4c0-0.8,4.9-0.7,6.5-12.8c0,0,0.4-2.5,1.3-3.4c0.1-0.1,0.2-0.2,0.3-0.3c0.2-0.2,0.4-0.6,0.5-1.1
	c0-0.1,0-0.1,0.1-0.2c0.3-0.2,1.5-0.8,1.8-1.4c0,0,0.6-0.7,0.6-0.4c0,0,0.4,1,0.3,1.4c0,0.4,2.3-3.2-1.5-4.9
	C45.8,7.9,45.7,7.8,45.7,7.7z M41.5,9.7c-0.5,0-1-0.4-1-0.9c0-0.5,0.4-0.9,1-0.9c0.5,0,1,0.4,1,0.9C42.5,9.4,42,9.7,41.5,9.7z"/>
</svg>
