<?xml version="1.0" encoding="utf-8"?>
<!-- Generator: Adobe Illustrator 19.1.0, SVG Export Plug-In . SVG Version: 6.00 Build 0)  -->
<svg version="1.1" id="Layer_1" xmlns="http://www.w3.org/2000/svg" xmlns:xlink="http://www.w3.org/1999/xlink" x="0px" y="0px"
	 viewBox="0 0 48 48" style="enable-background:new 0 0 48 48;" xml:space="preserve">
<style type="text/css">
	.st0{fill:#808080;}
</style>
<path class="st0" d="M44.1,41.5c0,0-3.1-3.3-6.8-5.5c-0.1-0.1-0.2-0.1-0.3-0.2c-1-0.7-7.5-5.2-8.7-7c-0.1-0.1,0-0.2,0.1-0.1
	c1.2,0.7,5.2,3.1,5.6,1.7c0,0,1-0.7-1.1-2.5c-0.1-0.1,0-0.2,0.1-0.2c1.1,0.2,4.3,0.6,4.2-1.8c0,0-0.1-0.6-1.5-0.4c0,0,1-0.9,1-2.3
	c0-0.1,0-0.2,0.1-0.2c0.2-0.4,0.8-1.7,0.4-2.8c-0.1-0.2,0-0.3,0.1-0.5c0.5-0.6,1.9-2.4,1.9-4.3c0-0.1,0-0.3,0.1-0.4
	c0.5-0.7,2.7-3.9,2.4-6.1c0,0-0.7-0.2-1.9,0.6c0.2-0.2,2.6-1.8,1.5-3.8c0,0-1.2,0.2-1.4,0.9v0c-0.2-0.2-0.2-0.5-0.1-0.8
	c0.4-0.9,1.2-2.8-0.2-3.1c0,0-0.4-0.5-0.6-0.4l-0.4,0.4c0,0-0.1,0-0.1,0c-0.1-0.3-0.4-1.2-0.7-0.9C37.6,2.3,36.8,4,34.5,5
	c-0.1,0-0.1,0-0.1-0.1c0-0.2,0-0.6,0.7-1.1c0,0,2.5-2.2,0.9-3.8c0,0-0.1,0-0.1,0c-0.1,0.4-0.8,1.9-2.1,2.7c0,0-0.3,0.2-0.5,0.5
	c0,0-0.1,0.1-0.1,0c-0.2-0.1-0.6-0.3-0.6-1.1c0,0,0,0-0.1,0C32,2.6,29.2,6,27,7.9c0,0-7,5.6-7.6,7.6c-0.1,0.2-0.1,0.4-0.2,0.7
	c-0.2,0.5-0.7,1.5-1,2.1c-0.1,0.2-0.4,0.2-0.5,0.1c-1.4-1.3-7.9-6.4-12.3,0.2c0,0-1.8,2.7-1.7,3.5l0.8-0.6l-0.7,0.7
	c0,0,1.7,0,2.3-0.1c0.2,0,0.3,0,0.5,0c0.6,0.2,2,0.6,3.2,2.2l5.8,7.8c0,0,0,0.1,0,0.1c-0.7-0.4-3.3-2-3.5-2.1c0,0-0.8-0.5-1.5,0.4
	c0,0,1.1-0.6,1.6,0c0,0-0.4,0.5,0.4,0.5c0,0,0.1,0,0.1,0c0.3,0.3,2.1,1.6,3.3,1.9c0,0,0.2,0.4-0.8,0c0,0-1.5-1-2-0.2
	c0.1,0,1.2-0.4,0.8,0.2c0,0,0.5-0.1,1,0.2c0,0,0.7,0.8,1.5,0.4c0.1,0,0.1,0,0.2,0l0.3,0.3c0.2,0.2,0.3,0.4,0.5,0.7
	c0.4,0.8,1.4,2.6,1.6,1.9c0,0,0.5-0.5,0.8,1.1c0,0,0.5-0.8-0.4-1.6l-1.2-1.2c0,0,0.2-0.4,0.6-0.1c0,0,2.4,1.7,2.8,2.4
	c0,0,0.5,0.5,1.9,0c0,0,3.6,1,3.3,1.3c0,0-3.6,1.8-4.3,2.6c-0.1,0.1-0.1,0.2-0.1,0.3c0,0.1-0.1,0.4-0.5,0.9
	c-0.1,0.1-0.1,0.2-0.1,0.3c-0.1,0.4-0.2,1.4-0.5,2.4l-0.4,1.8c0,0-0.4,1.1,0.4,1.3c0,0-0.6-1.4,0.1-1.1c0,0,0.4-0.1,0.3-0.8
	c0,0-0.1-1.1,0.2-0.8c0,0,0.1,0.5,0.6,0.4c0,0-0.9-0.7-0.2-0.8c0,0,0.2-0.1,0.1-0.4c0-0.1,0-0.1,0-0.2c0.1-0.2,0.6-0.9,0.6-2.3
	c0-0.1,0-0.1,0.1-0.1c0.2-0.1,0.7-0.1,1.7,0.1c0,0,0.2,0.1,0.4-0.1c0,0,0.1,0,0.1-0.1c0.1,0,0.5,0,0.7,0.2c0,0,0.8,0.1,0.3-0.5
	c0,0,0.5-0.4,1.4,0.2c0,0-0.1-0.9-1.8-0.6c-0.1,0-0.1,0-0.2,0l-1.7,0c0,0-0.1,0,0-0.1c0.5-0.3,2.3-1.6,5.1-2.5
	c0.2-0.1,7.3-1.5,13.7,3.1c0,0,0.3-0.2-0.8-1C42.7,41.4,44.8,42.8,44.1,41.5z M8.1,19.3c-0.4,0-0.7-0.3-0.7-0.6
	c0-0.3,0.3-0.6,0.7-0.6c0.4,0,0.7,0.3,0.7,0.6C8.8,19,8.5,19.3,8.1,19.3z"/>
</svg>
