<?xml version="1.0" encoding="utf-8"?>
<!-- Generator: Adobe Illustrator 19.1.0, SVG Export Plug-In . SVG Version: 6.00 Build 0)  -->
<svg version="1.1" id="Layer_1" xmlns="http://www.w3.org/2000/svg" xmlns:xlink="http://www.w3.org/1999/xlink" x="0px" y="0px"
	 viewBox="0 0 48 48" style="enable-background:new 0 0 48 48;" xml:space="preserve">
<style type="text/css">
	.st0{fill:#808080;}
</style>
<path class="st0" d="M42.3,32.5c0,0,5.3,0.3,5.7-0.3c0,0-0.3-0.1-3.6-0.5l-8.2-1.3l-5-1.2c0,0,0.2-0.1,0.1-0.3c0,0,0.6,0.1,0.8,0.2
	c0,0-0.4-0.7-1.5-1.2c-1.1-0.5-5.3-2.3-5.3-2.3s-0.9-0.5-1.4-1c-0.5-0.5-4.2-3-4.2-3l-2.6-1.6c-0.1-0.1-0.3-0.2-0.4-0.3
	c-0.4-0.3-1.4-1.1-2.1-1.5c-0.5-0.3-0.9-0.7-1.2-1.2c-0.8-1.2-2.6-3.5-4.3-4.6c0,0-2.3-2.1-6.2-0.8c0,0-3.9,1.2-2.5,3.3
	c0,0.1,0,0.1,0,0.2c-0.3,0.5-1.3,3,1.5,4c0,0-0.3-0.7-0.3-1.1c0-0.1,0.1-0.2,0.2-0.1C2,18.1,2.8,18.3,3.5,18c0.1,0,0.2,0,0.2,0
	c0.2,0.1,0.8,0.3,1,1.4c0,0,0.5,4.2,1.1,4.7c0,0,2.5,3.2,4.1,4c0.1,0,0.1,0.1,0.1,0.2c0,0.2,0.1,0.7,0.4,1.3c0,0,0,0,0,0
	c0,0,0,0,0,0.1c0,0.1,0.1,0.1,0.1,0.2l-0.1-0.2l0-0.1c0,0.1,0.3,0.8,0,1.1c0,0-1.2,1.1-2.2,1.4c0,0-0.1,0-0.1,0
	c-0.3,0-1.6,0.3-1.8,0.3l-1.4,0c0,0-1.4-0.1-1.3,0.9c0,0,0.4-0.7,1-0.5c0.1,0,0.1,0.1,0.1,0.1c0,0.2,0,0.6,0.7,0.3
	c0,0,0.1,0,0.1,0.1c0,0.1,0,0.3,0.1,0.3c0,0,0,0,0,0c0-0.1,0.2-0.8,0.7-0.5c0,0-0.1,0.6,0.7,0.3c0,0,0.2,0.1,0.5-0.1
	c0,0,0.9,0.1,1.6-0.5c0,0,0.1-0.1,0.2,0c0,0,0,0.2,0.4,0.2c0,0,0.1,0,0.1,0c0.1,0.1,0.2,0.3,0.5,0.3c0,0,0.1,0,0.1,0
	c0.1,0.1,0.4,0.3,0.7-0.2c0-0.1,0.1-0.1,0.2-0.1c0.2,0,0.5,0.1,0.5,0.6c0,0,0.4-1.1-1-0.9c0,0-1.1-0.1-0.6-0.4c0,0,2.3,0.1,2-0.6
	c0,0,0.4-0.6,1,0c0,0,1,1.8,0.5,2c0,0-0.5,1.4-2.3,1.5c0,0-2.7-0.2-2.7,0.5c0,0-1.7-0.1-1.4,0.9c0,0,0.3-0.6,1.2-0.5
	c0.1,0,0.1,0.1,0.1,0.1c0,0.2,0.1,0.4,0.7,0.2c0,0,2.4-0.1,3.2-0.2c0,0,0.1,0,0.1,0c0.2,0,0.8,0,1.5,0.1c0,0,1.1,0,1.6-0.1
	c0,0,0.1,0,0.1,0c0.3,0,1.6,0.1,1.2-0.4c0,0,0.3-0.6,1.1,0.2c0,0,0.2-1.1-1.5-0.6c0,0-0.1,0-0.1,0l-2.7,0.1c0,0,0-0.2,0.4-0.7
	c0.1-0.1,0.1-0.1,0.2-0.1c0.3-0.1,0.9-0.3,1-0.5c0,0,0.4-0.5,0.6-2.1c0,0,0.1-1.1,0.6-1.1c0.1,0,0.2,0,0.3,0c0.2,0,0.7-0.1,1-0.3
	c0,0,0.1,0,0.1,0c0.3,0.1,1.5,0.3,2.1,0c0,0,0.1,0,0.1,0c0.2,0.1,1.1,0.4,1.6,0.1c0,0,0.1,0,0.1,0c0.3,0,1.1,0.1,1.7,0
	c0.1,0,0.2,0,0.3,0c1,0.3,5.9,1.7,7.8,1.6c0,0,2.5,0.4,3.7,0.3c0.1,0,0.1,0,0.2,0c0.5,0.1,3.1,0.5,5,0.5c0,0,3.2,0.3,4.1,0.1
	c0,0,0,0,0,0C44.4,33.1,42.6,32.6,42.3,32.5C41.8,32.5,42.3,32.5,42.3,32.5z M4.6,14.6c-0.3,0.3-0.6,0.4-0.8,0.3
	c-0.2-0.2-0.1-0.6,0.1-0.9c0.3-0.3,0.6-0.4,0.8-0.3C4.9,13.9,4.8,14.3,4.6,14.6z"/>
</svg>
