<?xml version="1.0" encoding="utf-8"?>
<!-- Generator: Adobe Illustrator 19.1.0, SVG Export Plug-In . SVG Version: 6.00 Build 0)  -->
<svg version="1.1" id="Layer_1" xmlns="http://www.w3.org/2000/svg" xmlns:xlink="http://www.w3.org/1999/xlink" x="0px" y="0px"
	 viewBox="0 0 48 48" style="enable-background:new 0 0 48 48;" xml:space="preserve">
<style type="text/css">
	.st0{fill:#808080;}
</style>
<path class="st0" d="M45.8,37l-4.2-1.4c-0.2-0.1-0.3-0.1-0.4-0.2c-0.6-0.5-2.4-1.8-4.5-1.9c-0.1,0-0.1,0-0.2,0
	c-0.3-0.1-1.3-0.6-2.3-0.6l-0.7-0.2c-0.1,0-0.1-0.1-0.1-0.1c0-0.3,0-1.2-0.9-1.5c0,0,0,0,0,0c0.7,0.1,3.9,0.5,5.3,1.2
	c0,0,4.3,1.7,2.3,0l0.5,0c0,0-0.3-0.9-2.4-1.8c0,0-4-1.4-5.6-1.7c0,0-0.2-0.7-0.7-1.2c0,0,0-0.1,0-0.1l0.1,0c0,0-0.8-1.1-3-2
	l0.7,0.1c0,0-0.8-0.6-2-1.1c-0.5-0.2-0.9-0.5-1.2-0.9c-0.9-1.2-3.3-3.7-7.3-5.3c-0.3-0.1-0.5-0.2-0.8-0.4c-0.4-0.2-1.3-0.6-2.5-0.7
	c-0.1,0-0.2,0-0.3,0c-0.3,0-1.2-0.1-2.2-1c-0.2-0.1-0.3-0.3-0.5-0.4c-0.5-0.4-1.7-1.2-2-1.9c0,0-2-5.4-4.3-6.1c-0.1,0-0.1,0-0.2-0.1
	c-0.8-0.3-6.6-2.6-6.2,2.5c0,0-0.8,5.4,1.9,7.1c0,0-0.2-1.2-0.1-1.8c0,0,1.1,0.1,1.5,2c0,0.1,0,0.2,0.1,0.3c0.1,0.4,0.4,1.5,0.4,2.7
	c0,0.4-0.2,0.8-0.5,1c-0.9,0.8-2.5,2.9,1.2,6.9c0.1,0.1,0.2,0.2,0.3,0.4c0.3,0.6,1.1,2.1,1.5,1.3c0,0,0.3,0.7,0.9,0.9l-0.1-0.4
	c0,0,0.6,0.8,0.8,0.1c0,0,0.5,0.5,0.9,0.5l0-0.2c0,0,0.4,0.3,0.6,0.2V31c0,0,0.3,0.3,0.6,0.2l0.9,5.7c0,0,0,0.1,0,0.1
	c0.1,0.3,0.4,1.8-0.9,1.5c0,0-0.2-0.4-0.3,0c0,0-0.5,0.2-0.6,0.5c0,0.1-0.1,0.1-0.1,0.1c-0.1,0-0.3,0.1-0.4,0.1c0,0,0,0-0.1,0
	C8.5,39.1,8.3,39,8,39c0,0,0,0-0.1,0c-0.1-0.1-0.5-0.5-0.8,0.1c-0.1,0.1-0.1,0.3-0.1,0.4c0,0.3,0.1,1,0.4,1.1c0,0,0-0.7,0.1-1
	c0,0-0.1,0.8,0.9,0.8c0,0,1.9-0.3,2.1,0.1c0,0-0.1-0.2,0.1-0.2c0,0,0.6,0.1,1-0.1c0,0,0.1,0,0.1,0c0.3,0,2.2,0.2,1.4-1
	c0,0,0.4-0.2,0.5,1.1c0,0-0.4,0.5-0.3,0.9c0,0,0.7-1.1,1.1-1.2c0,0-0.5,0.5-0.3,1.1c0,0,0.4-1,0.7-0.8c0,0,0.2,0.4,1.1,0.4
	c0.1,0,0.2,0,0.3,0.1c0.1,0.1,0.3,0.3,0.7,0.2c0.5,0,3.5-0.2,5.6-0.2c0,0,0.7-0.3,1.1-0.2c0,0,0.8,0,0.5-0.9c0,0,0.7-0.4,0.9,0.9
	c0,0,0.5-1.8-1.3-1.5c-0.1,0-0.1,0-0.2,0.1c-0.2,0.2-0.8,0.6-2,0.5c0,0,0.2-0.5,0-1.1l0.5-4.3c0,0,1.3,1.2,1.8,0.5
	c0,0,0.2-0.2,0.6,0.1c0,0,0,0,0.1,0c0.2,0.1,1.1,0.5,1.3-0.6c0,0,0.1-0.1,0.6,0.2c0.1,0.1,0.3,0.2,0.4,0.2l2.2,0.8
	c0.1,0,0.2,0,0.3-0.2c0-0.1,0.1-0.3,0.4-0.2c0.5,0.1,2.9,0.8,3.6,1.2c0.1,0,0.1,0.1,0.2,0.1c0.3,0.1,1.3,0.4,2.1,0.2
	c0,0-0.5-0.7-1.3-0.9c0,0,0.4-0.1,2.9,0.6l5,1.6l3.4,0.7c0,0,0,0,0,0l2.4,0.3c0.1,0,0.3-0.1,0.2-0.3C47.8,38.3,47.2,37.3,45.8,37z
	 M6.4,9.8c-0.2,0-0.3-0.2-0.3-0.4C6.1,9.1,6.3,9,6.4,9c0.2,0,0.3,0.2,0.3,0.4C6.7,9.6,6.6,9.8,6.4,9.8z M16.7,39.6
	c-0.3-0.1-0.8-0.2-1.4-0.5c0,0-1-0.3-1.7,0.9c0,0,0.3-1.7-0.7-1.5c0,0,0.1-0.5-0.1-1c-0.1-0.2-0.1-0.4,0-0.7l0.3-1.6
	c0-0.1,0.1-0.1,0.1-0.1c0.3,0.2,0.9,0.5,0.6-0.6c0-0.1,0-0.2,0.1-0.2c0.1-0.1,0.2-0.1,0.5,0.1c0.4,0.3,0,0.1,0,0.1
	c0.1,0.1,1.7,1.6,2.3,1c0,0,0.7-0.8-0.9-2.1c0,0,2.3-0.1,3,1.1c0,0,0,1.7,0.6,2.9c0,0.1,0.1,0.1,0.1,0.2c0,0.4,0,1.8-2.4,2.1
	C17.1,39.6,16.9,39.6,16.7,39.6z"/>
</svg>
