<?xml version="1.0" encoding="utf-8"?>
<!-- Generator: Adobe Illustrator 19.1.0, SVG Export Plug-In . SVG Version: 6.00 Build 0)  -->
<svg version="1.1" id="Layer_1" xmlns="http://www.w3.org/2000/svg" xmlns:xlink="http://www.w3.org/1999/xlink" x="0px" y="0px"
	 viewBox="0 0 48 48" style="enable-background:new 0 0 48 48;" xml:space="preserve">
<style type="text/css">
	.st0{fill:#808080;}
</style>
<path class="st0" d="M40.4,41.2l2.4,1.7c0,0,0.4,0,0.4-0.3c0,0,1.1,0.1,1.4,0.4c0,0-0.1-1-1.1-2.1c0,0-3-3.8-4.7-5.4
	c-0.6-0.6-1.1-1.3-1.4-2.1c-1.2-3.2-4.2-10.9-6.5-13c-0.5-0.4-0.9-0.9-1.3-1.4c-1.3-1.7-3.9-4.9-4.1-5.8c0,0-3.3-11.1-11.5-13
	c0,0-7.8-1.6-8.7,2.6c0,0.1-0.1,0.2-0.2,0.3C5,3.4,4.7,3.7,4.6,3.9c0,0,0,0.1,0,0.1c-0.4,0.5-3,4.3,1.1,6.6c0,0-0.3-0.8-0.4-1.4
	c0-0.1,0.2-0.2,0.3-0.1c0.3,0.3,1,0.9,2.2,1.2c0.6,0.2,1.2,0.4,1.7,0.8c0.6,0.5,1.5,1.3,2.2,2c0.5,0.5,0.8,1.2,0.9,1.9l1.1,5.1
	c0,0.2,0,0.4,0,0.6c-0.3,1.7-1.8,10.6,3.4,14.3c0.1,0.1,0.3,0,0.3-0.1c0.1-0.2,0.1-0.5,0.1-0.8c0-0.1,0.1-0.2,0.2-0.1
	c0.3,0.5,0.9,1.2,0.9,1.5c0,0-0.2,1,1.3,4c0.1,0.2,0.2,0.4,0.2,0.5c0.2,0.6,0.7,1.9,0.9,2.8c0.1,0.4,0,0.9-0.3,1.2
	c-0.7,0.7-2.1,2.1-3.6,2c0,0-0.1,0-0.1,0c-0.1,0-0.3-0.1-0.8,0.1c-0.1,0-0.2,0-0.2,0c-0.5-0.2-2.4-0.9-2.6,0.3c0,0-0.2,1.1,0.2,1.1
	c0,0,0-1,0.3-0.9c0,0-0.1,0.8,0.8,0.7c0,0,0.2,0.1,0.5,0.1c0.1,0,0.2,0,0.2,0.1c0.1,0.1,0.5,0.2,1.8,0.1c0,0,0,0.3,0.1,0.4l0.1-0.4
	c0,0,1.2,0,1.3,0.1l0,0.2c0,0,0.2-0.1,0.2-0.2c0,0,0.4,0.1,0.6-0.1c0.1-0.1,0.4,0,0.6,0.1c0.2,0.1,0.5,0.2,0.7,0.2c0,0,0.1,0,0.1,0
	l8.6,0c0,0,0.1,0,0.1,0c0.1-0.1,0.4-0.2,0.5,0c0,0,0.1,0.1,0.3,0c0,0,0.4-0.4,0.7,0c0,0,0.8,0.2,0.7-0.7c0,0,0.8,0,1,0.8
	c0,0,0.4-1.5-1.3-1.6c0,0-0.1,0-0.1,0c-0.2,0-0.7-0.1-1.2,0.2c-0.1,0-0.2,0.1-0.3,0.1c-0.6,0.1-2.5,0.2-2.4-0.1c0,0,1.5,0,1.5-1
	c0,0,0.6-2.3,0.6-3c0-0.2,0-0.3,0.1-0.4c0.1-0.2,0.3-0.3,0.7-0.3c0.1,0,0.3,0,0.4,0c0.2,0,0.5,0,0.6,0.3c0,0.2,0.1,0.4,0.2,0.6
	c0.8,1.3,3.9,5.7,7.1,3.7c0.2-0.2,0.5-0.2,0.8-0.1c0.6,0.1,1.4,0.5,1.4,1.2c0,0,0.3,0,0.5-0.2c0.2-0.2,0.5-0.4,0.8-0.3
	c0.6,0,1.4,0.1,1.7,0.4c0,0-0.1-1.8-2.1-3.5c0,0,0,0,0,0c-0.2-0.2-2-1.5-2.1-2.6C39.4,40.9,39.7,40.6,40.4,41.2z M10.7,4.7
	c-0.6,0-1-0.4-1-1c0-0.5,0.5-1,1-1s1,0.4,1,1C11.7,4.2,11.2,4.7,10.7,4.7z M26.7,43.4c-0.3,1.5-1.9,2.2-1.9,2.2
	c-1.2,1-2.2,0.4-2.2,0.4c2.1-1.4,1-2.8,1-2.8c0-1.5-0.3-3-0.3-3c0.3,0.4,0.5-0.1,0.5-0.1c0,0.3,2.5,0.9,2.5,0.9
	C27.4,41.5,26.7,43.4,26.7,43.4z"/>
</svg>
