<?xml version="1.0" encoding="utf-8"?>
<!-- Generator: Adobe Illustrator 19.1.0, SVG Export Plug-In . SVG Version: 6.00 Build 0)  -->
<svg version="1.1" id="Layer_1" xmlns="http://www.w3.org/2000/svg" xmlns:xlink="http://www.w3.org/1999/xlink" x="0px" y="0px"
	 viewBox="0 0 48 48" style="enable-background:new 0 0 48 48;" xml:space="preserve">
<style type="text/css">
	.st0{fill:#808080;}
</style>
<path class="st0" d="M47.9,25.3c0,0,0-0.1,0-0.1c-0.1-0.5-0.8-3.2-0.4-4c0,0,0.3-0.4,0.1-0.4c0,0-1.9,0-3.2,0.9
	c-1.3,0.9-0.1,0-0.1,0c-0.1,0.1-5.4,3.3-7.5,2.6c-0.1,0-0.1-0.2,0-0.2c0.7,0,2-0.2,1.1-1.4c0,0-9.7-8.8-14.4-6.7c0,0-2,1.8-2.3,2.1
	c0,0-0.1,0.1-0.2-0.2c0-0.1-0.1-0.1-0.2-0.1c-0.1,0-0.3,0-0.4-0.4c0-0.1-0.1-0.1-0.1-0.1c-0.2,0-0.5-0.2-0.4-0.7
	c0-0.1,0-0.1-0.1-0.2c-0.2-0.1-0.7-0.5-0.5-1c0-0.1,0-0.1-0.1-0.1c-0.3,0-0.8,0-0.5-1c0,0,0-0.1,0-0.1c-0.2,0-0.8,0-0.6-1.1
	c0,0,0,0,0,0c-0.2,0-0.8,0.1-0.5-1c0,0,0,0,0,0c-0.1,0-0.8,0.2-0.8-0.6c0,0,0,0,0,0c-0.1,0.1-0.3,0.3-1,1.5c0,0,0,0,0,0
	c-0.1,0.1-0.3,0.2-0.6,0c0,0-0.1,0-0.1,0c-0.2,0.3-1.4,2.2-1.8,4.2c0,0,0,0,0,0c0,0-0.1-0.1-0.2-0.3c0,0,0,0,0,0
	c0,0.1-0.2,0.5-0.2,0.8c0,0.1,0,0.1-0.1,0.1c-0.5,0.1-3,0.6-6.1,2.7c0,0-2.1,1.4-2.9,2.2C3.5,22.7,3.3,23,3,23.3l-1.4,1.3
	c0,0-2.2,2-1.3,2.8c0,0-0.1,0.3,1.4,0.7c0,0-1.4,0.1-0.3,0.6c0,0,0,0.2,0.1,0.3l0-0.2c0,0,0.1,0,0.2,0.3c0,0,0.1-0.1,0-0.2
	c0,0,0.2,0,0.3,0.3c0,0,0-0.3,0.2-0.1c0,0,2.7,0.6,4.9,0.6c0.5,0,1,0.1,1.5,0.2c0.8,0.2,2.1,0.5,3.5,0.5c0.4,0,0.7,0.2,0.9,0.6
	c0.6,1.4,2.4,5,4.2,5.9c0,0,0.1-0.3,0-0.5c0,0-0.1-0.5,0-1.1c0-0.1,0-0.2,0.1-0.2c0.1-0.3,0.4-1.2,0.4-1.8c0-0.2,0-0.3,0-0.5
	c0-0.4-0.1-1.1-1.1-1.4L15.8,31c0,0-0.1-0.2,0.3-0.3c0.4,0,5.7,0.5,10.8-0.7c0.2,0,0.3,0,0.5,0.1c0.2,0.1,0.4,0.3,0.5,0.4
	c0,0,1.6,1.6,2,1.8c0,0,2.9,1.8,3.3,0.4c0-0.1,1.3-3.6,0.3-3.9l-1.2-0.3c0,0,4.7-1.6,7.7-0.1l6.1,2.4c0,0,0.5-0.1,0.7-0.5
	C46.9,30,48.4,26.7,47.9,25.3z M4,25.1c-0.5,0-1-0.3-1-0.7s0.4-0.7,1-0.7c0.5,0,1,0.3,1,0.7S4.5,25.1,4,25.1z"/>
</svg>
