<?xml version="1.0" encoding="utf-8"?>
<!-- Generator: Adobe Illustrator 19.1.0, SVG Export Plug-In . SVG Version: 6.00 Build 0)  -->
<svg version="1.1" id="Layer_1" xmlns="http://www.w3.org/2000/svg" xmlns:xlink="http://www.w3.org/1999/xlink" x="0px" y="0px"
	 viewBox="0 0 48 48" style="enable-background:new 0 0 48 48;" xml:space="preserve">
<style type="text/css">
	.st0{fill:#808080;}
</style>
<path class="st0" d="M48,38.8c0-0.1,0-0.2,0-0.3c0-0.6-0.2-2.7-0.1-3c0,0,0.1-0.6-0.3-0.8c-0.4-0.2-1.9-2.1-2.6-4.2
	c-0.2-0.6-0.2-1.3,0-1.9c0.6-2.1,1.6-8-3-10.6c-0.4-0.2-3.9-2.9-11.4-3.6c-0.6-0.1-1.2-0.2-1.7-0.3c-2.4-0.7-8.9-2.7-11-3.7
	c-0.4-0.2-0.6-0.5-0.7-0.9c-0.1-0.5-0.4-0.9-0.8,0.3c0,0-0.2,0.6-0.6,0c0,0-0.6-2.1-0.7-1.6c0,0-0.2,0.4-0.3,0.6c0,0-1-1.2-1.1-0.8
	c0,0.1-0.1,0.1-0.1,0.1c-0.2,0-0.7,0-0.7-0.6c0,0,0.2-1.3-0.4-2.3c0,0-1.1-2.5-1.9-1.5c0,0-0.1,0.1-0.2,0.1C10,3.9,9.1,4.3,8.7,5.1
	c0,0-0.2,0.3-0.4,0c0,0-1.1-2-2.6-0.3c0,0-0.1,0.1-0.1,0.1c-0.2,0.2-1,0.8-1.4,0c0,0-1.7-3.6-2.9-1.8c0,0-1.5,2-1.2,3.7
	c0,0,0.3,1.2,1.4,1.8c0.1,0,0.1,0.1,0.1,0.2c0,0.4-0.1,1.6,0.8,3.2c0,0,0,0.1,0,0.1c0,0.3,0.3,1.7,2.2,2.4c0.1,0,0.2,0.1,0.2,0.1
	c0.8,0.8,6.2,6.4,6.9,7c0,0,0.7,0.5,0.4,1.7c0,0-0.3,0.5,0.5,1.9c0.1,0.1,0.2,0.3,0.3,0.4c0.4,0.6,1.8,2.4,1.6,4
	c-0.2,1.8-0.1,0.3-0.1,0.1c0,0.3-0.7,5.6-0.6,6.6c0,0,0.8,2.4-0.6,4.6c0,0-0.1,0.1-0.1,0.1c-0.4,0-1.7,0-2,0.9c0,0-0.1,1.3,0.7,1.3
	c0,0,2,0,2.6,0c0.1,0,0.2,0.1,0.1,0.2c-0.1,0.2-0.2,0.6-0.5,0.9c0,0-0.5,1.3,1,0.8c0,0,0.6,0.3,1.6,0c0.1,0,0.1,0,0.2,0
	c0.1,0.1,0.4,0.1,0.9-0.1c0.1,0,0.1,0,0.2,0c0.2,0.1,0.6,0.2,0.6-0.4c0,0,0-0.1,0-0.1c0-0.1,0.1-0.2,0.1-0.4c0-0.3,0.2-3.5,0.2-3.8
	c0,0,0.5-0.7,0.6-1.8c0,0,0.9-9.9,1.7-10c0.8-0.1,7.1,1.7,12.4,0.2c0.2-0.1,0.4,0,0.5,0.2c0.5,0.9,2.3,3.6,5,4.9
	c0,0,3.7,1.4,1.9,5.4c0,0,0,0.3-0.5,0.4c-0.1,0-0.3,0.1-0.4,0.1c-0.5,0.2-1.4,0.7-1,1.6c0,0,0.1,0.5,1.7,0.3c0.1,0,0.1,0,0.2-0.1
	c0.1,0,0.4-0.1,0.8-0.1c0,0,0,0,0.1,0c0.2,0,0.9,0.2,0.8-1c0,0-0.2-1.3,0.7-2.5c0,0,0.5-2.1,0.5-2.3c0,0,0.2-1.1,0.8-0.3
	c0,0,1.9,1.8,1.3,4.6c-0.1,0.4-0.3,0.7-0.5,1c-0.6,0.6-1.5,1.7-0.3,2c0,0,0.1,0,0.1,0c0.2,0,0.9,0,1.1-0.1c0,0,1,0.1,1-0.1
	c0,0,0.2-0.1,0.3,0.1c0,0,0.3,0.1,0.4-0.2C48,42.8,48,39.7,48,38.8z M2.9,9.4C2.7,9.4,2.5,9.2,2.5,9s0.2-0.5,0.4-0.5S3.4,8.7,3.4,9
	S3.2,9.4,2.9,9.4z M7.4,10C7.2,10,7,9.8,7,9.6c0-0.2,0.2-0.5,0.4-0.5c0.2,0,0.4,0.2,0.4,0.5C7.8,9.8,7.6,10,7.4,10z"/>
</svg>
