<?xml version="1.0" encoding="utf-8"?>
<!-- Generator: Adobe Illustrator 19.1.0, SVG Export Plug-In . SVG Version: 6.00 Build 0)  -->
<svg version="1.1" id="Layer_1" xmlns="http://www.w3.org/2000/svg" xmlns:xlink="http://www.w3.org/1999/xlink" x="0px" y="0px"
	 viewBox="0 0 48 48" style="enable-background:new 0 0 48 48;" xml:space="preserve">
<style type="text/css">
	.st0{fill:#808080;}
</style>
<path class="st0" d="M47.9,38.2c-0.1-0.1-0.3-0.1-0.7-0.2c-1.2-0.1-13.7-2-15.2-3.1c0,0,0,0-0.1-0.1c-0.1-0.1-0.6-0.7-1.1-1
	c-0.1,0-0.1-0.1-0.1-0.1c-0.1-0.2-0.3-0.6-0.8-0.8c-0.1,0-0.1-0.1-0.2-0.2c0-0.1-0.2-0.3-0.5-0.3c-0.1,0-0.1,0-0.2-0.1
	c-0.1-0.1-0.2-0.3-0.5-0.3c-0.1,0-0.1,0-0.2-0.1c-0.1-0.1-0.2-0.2-0.4-0.2c0,0-0.1,0-0.1-0.1c-0.1-0.1-0.2-0.3-0.5-0.3
	c0,0-0.1,0-0.1-0.1c-0.1-0.1-0.3-0.4-0.6-0.3c0,0-0.1,0-0.1,0c-0.1-0.1-0.4-0.6-0.6-0.3c0,0-7.8-8.5-10.7-10.5
	c-0.7-0.5-1.3-1.1-1.8-1.9c-1.2-1.8-3.1-4.7-3.6-5.4c0,0-4.4-6.4-9.2-1.2c0,0,0.1,0.2-0.1,0.4c-0.1,0.2-1.9,2.9,0.4,4.6
	c0,0-0.1-0.6-0.1-1c0-0.1,0.1-0.2,0.2-0.1c0.5,0.3,1.8,1.2,1.9,1.7c0,0,0.5,4.9,2.1,8.4c0.1,0.2,0.2,0.4,0.2,0.6
	C5.8,27,6.5,29.5,8.7,31c0.2,0.2,0.4,0.4,0.6,0.6c0.4,0.6,1.3,1.8,1.6,2.7c0.1,0.2,0.2,0.4,0.4,0.6c0.4,0.3,0.9,1,0.9,1.4
	c0,0.1-0.1,0.2-0.3,0.2c-0.4-0.2-1.7-0.5-2.3,0.3c0,0.1-0.1,0.1-0.2,0.1c-0.2-0.1-0.6-0.1-1.1,0c-0.1,0-0.1,0-0.2,0
	c-0.2-0.1-0.8-0.4-1.2-0.2c0,0-1.1,0.2-0.6,1.1c0,0,0.2-0.9,0.5-0.5c0,0,0,0,0,0.1c0,0.1,0.1,0.4,0.8,0.3c0,0,0.4,0,0.5,0.2
	c0,0,0.1,0.1,0.1,0.1c0.5,0,3,0,3.7,0.1c0.1,0,0.2,0,0.3,0c0.4-0.1,1.4-0.4,1.5,0.1c0,0,0.2-0.1,0-0.4c0,0,0-0.1,0-0.1
	c0.1,0,0.5,0,0.8,0.3c0,0,0-0.3,0-0.3c-0.1,0,1.3,0.3,1.8-0.1c0,0,0.1,0,0.1,0c0.1,0.1,0.4,0.2,0.6,0c0,0,0,0,0.1,0
	c0.1,0,0.4,0,0.5-0.1c0,0,0.1-0.1,0.1,0c0.2,0,0.8,0.1,0.8-0.3c0-0.1,0-0.1,0.1-0.1c0.2,0,0.5,0.1,0.6,0.5c0,0,0.3-0.9-0.9-0.9
	c0,0-1.3,0.2-1.7,0.3c0.1,0,0.5-0.2,0.6-0.5c0-0.1,0.1-0.1,0.1-0.1c0.4,0,1.9,0.1,2-0.4c0-0.1,0.1-0.1,0.1-0.1
	c0.7,0,3.9-0.1,5.3,0.4c0.1,0.1,0.3,0.1,0.4,0.1c1.4,0.4,7.8,2,11.7,2.2c0,0,1.4,0.1,1.7,0c0.1,0,0.1,0,0.2,0c1.1,0,8,0.3,9.2,0.4
	C48,38.5,48.1,38.2,47.9,38.2z M4.3,12.1c-0.2,0-0.4-0.2-0.4-0.4c0-0.2,0.2-0.4,0.4-0.4c0.2,0,0.4,0.2,0.4,0.4
	C4.8,11.9,4.6,12.1,4.3,12.1z M14.7,36c0,0-0.3,0.2-0.7,0.2c0,0-0.2-1.1,0.1-1.1C14.1,35.1,15.5,35.3,14.7,36z"/>
</svg>
