<?xml version="1.0" encoding="utf-8"?>
<!-- Generator: Adobe Illustrator 19.1.0, SVG Export Plug-In . SVG Version: 6.00 Build 0)  -->
<svg version="1.1" id="Layer_1" xmlns="http://www.w3.org/2000/svg" xmlns:xlink="http://www.w3.org/1999/xlink" x="0px" y="0px"
	 viewBox="0 0 48 48" style="enable-background:new 0 0 48 48;" xml:space="preserve">
<style type="text/css">
	.st0{fill:#808080;}
</style>
<path class="st0" d="M46,8.6c-0.2-0.2-0.5-0.4-0.6-0.6c-0.6-0.9-2.4-3-6.7-2.4c0,0-2.9,0.4-4.6,3.7c-0.2,0.4-0.5,0.8-0.8,1.1
	c-0.4,0.3-1,0.8-1.6,1c0,0-2.8,0.2-7.2,3.8c0,0-8.5,5.9-10.1,7c0,0-5.5,2-1.7,1.2c0,0-5,2.7-9.8,3.7c0,0-0.6,0.7,0.4,0.4
	c0,0,0.8-0.3,0.7,0c0,0-0.1,0.2,0.3,0.1c0,0,3.7-1,2.4,0c0,0-2.5,1.1-2.8,1.3L0,30.1c0,0-0.2,0.5,0.4,0.3c2.5-1.1,10.4-3.1,10.4-3.1
	s3-0.8,4.6-0.1c0,0,6,1.9,7.5,3.2c0,0,0.9,1.4,2.3,1.3c0.2,0,0.5,0.1,0.5,0.4c0,0.7,0.3,2.1,1.4,3.2c0,0,3.3,3.3,3.2,4.1
	c0,0-2.2-1.2-2.8-1.3c0,0-0.6-0.3-1.2,0.6c0,0,0.6-0.4,1-0.3c0,0,0.8,0,0.6,0.7c0,0-0.2,0.8,0.8,0.6c0,0,0.1,0,0.1,0
	c0.1,0.1,0.3,0.2,0.6,0.2c0,0,0,0.4,0.6,0.3c0,0,0.2,0.3,0.8,0.3c0,0,0.5,0,0.8,0.3c0,0,0.6,0.9,2.9,1.3c0,0,0.2,0.2,0.5,0
	c0,0,0.4,0.3,0.6,0c0,0,0.1-0.1,0.1,0c0.2,0.1,0.5,0.3,0.6,0.6c0,0,0.2-0.2-0.1-0.7c0,0,0-0.1,0-0.1c0.2,0,0.7,0.1,1.4,0.4
	c0,0,0.6,0.2,0.6-0.3c0-0.1,0-0.1,0.1-0.1c0.3,0,1.3-0.1,1.6,0.6c0,0,0.2-1.2-2.3-1.1c-0.1,0-0.2,0-0.2-0.1
	c-0.1-0.2-0.5-0.6-1.3-0.6c0,0-2.8,0.2-3.9-0.8l-3.8-4.8c-0.1-0.2-0.2-0.4-0.2-0.6c0-0.5,0.1-1.2,0.5-0.7c0,0,0,0.2,0.3,0.2
	c0.1,0,0.1,0,0.2,0.1c0.1,0.1,0.2,0.3,0.5,0.3c0,0,0.6,0,0.8,0.4c0,0,0,0,0,0.1c0.1,0.4,2.1,1.7,3.2,1.7c0,0,0.4,0,0.5,0.7
	c0,0,0.1-0.4,0-0.7c0-0.1,0-0.1,0.1-0.1c0.4,0.2,1.6,1,1.5,0.1c0,0,0.7,0,1,0.5c0,0,0.4-0.8-1.2-0.9c0,0-1.1-0.2-1.1-0.4
	c0,0,0.1-0.6,0.8,0c0,0,0.2-0.4-1-0.7c0,0,0,0-0.1,0c-1.2-0.3-2.2-0.4-2.8-1.2c0,0-1.8-2.7-1.5-3.1c0,0,18.5-3.5,14.5-15.1l0-0.4
	c0-0.2,0.2-0.3,0.4-0.3c0.7,0.3,2.2,0.9,2.3,0.6c0,0-0.8-1.9-1.8-2.7c-0.5-0.4-0.7-1-0.6-1.6c0.1-0.3,0.2-0.5,0.5-0.7
	c0,0,1.3-0.7,2.7,0C47.8,10.4,48.9,10.6,46,8.6z M36.3,40.7c0,0,0.7,0,0.9,0.4l-0.9,0C36.3,41.1,35.9,40.8,36.3,40.7z M29.5,32.9
	l-0.7-0.6l0.4-0.7c0-0.1,0.5,1.1,0.5,1.1C29.6,32.9,29.5,32.9,29.5,32.9z M40,9.8c-0.4,0-0.7-0.3-0.7-0.7c0-0.4,0.3-0.7,0.7-0.7
	c0.4,0,0.7,0.3,0.7,0.7C40.8,9.5,40.4,9.8,40,9.8z"/>
</svg>
