<?xml version="1.0" encoding="utf-8"?>
<!-- Generator: Adobe Illustrator 19.1.0, SVG Export Plug-In . SVG Version: 6.00 Build 0)  -->
<svg version="1.1" id="Layer_1" xmlns="http://www.w3.org/2000/svg" xmlns:xlink="http://www.w3.org/1999/xlink" x="0px" y="0px"
	 viewBox="0 0 48 48" style="enable-background:new 0 0 48 48;" xml:space="preserve">
<style type="text/css">
	.st0{fill:#808080;}
</style>
<path class="st0" d="M43.9,24.4c0,0,3.8-4.1,4.1-5.7c0-0.2-0.1-0.4-0.2-0.5c-0.6-0.3-2.5-0.2-8.4,3c0,0-3.1,2.6-5.2,1
	c0,0,3.4-0.7,1.1-2.8c0,0-3.7-3.7-7.9-3c0,0,0.1-0.6-1,0c-0.1,0.1-0.3,0-0.4-0.1c-0.1-0.1-0.2-0.4,0-0.8c0-0.1,0-0.1-0.1-0.1
	c-0.2,0.1-0.7,0.2-1.1,0.5c-0.1,0-0.1,0-0.2,0c-0.2-0.2-0.5-0.7,0-1.3c0,0-0.3-0.2-1.1,0.5c-0.1,0.1-0.2,0.1-0.2,0
	c-0.2-0.1-0.7-0.4-0.3-1.3c0,0-0.2-0.5-1.1,0.6c0,0-0.1,0.1-0.2,0c-0.2-0.2-0.6-0.6-0.4-1.3c0,0,0-0.1,0-0.1c-0.1,0-0.4,0-0.9,0.6
	c0,0-0.1,0.1-0.1,0c-0.2-0.1-0.7-0.3-0.5-1.4c0-0.1,0-0.1-0.1-0.1c-0.1,0-0.4,0.1-1,0.9c0,0-0.1,0.1-0.1,0c-0.2-0.1-0.8-0.5-0.5-1.7
	c0,0,0-0.1-0.1-0.1c-0.1,0-0.5,0.2-1.1,1c0,0.1-0.1,0.1-0.2,0.1c-0.3-0.1-1-0.4-0.9-1.7c0-0.1-0.1-0.1-0.1-0.1
	c-0.2,0-0.7,0.3-1.3,1.9c0,0-0.1,0.1-0.1,0.1c-0.3,0.1-1.3,0.4-1.4-1.5c0,0-0.6-0.7-0.9,2.2c0,0,0,0.1-0.1,0.1c-0.2,0-0.7,0-1-0.6
	c0,0-0.1,0-0.1,0c-0.1,0.2-0.4,1-0.1,2.6c0,0-1.1-1.3-0.1,0.6c0.1,0.2,0,0.4-0.2,0.5c-1.6,0.5-7.7,2.8-9.5,8.2
	c-0.1,0.4-0.3,0.8-0.5,1.1C0,26.4-0.3,27,0.5,27c0,0-0.4,1,0.7,1.6c0,0,0.6,2.2,11.6,3.1c0.2,0,0.4,0.1,0.5,0.3
	c0.4,1,1.9,3.9,6.1,5.4c0,0,0.6-4.8-0.6-4.9l-3.1-0.8l9.6-0.3c0.3,0,0.5,0.1,0.6,0.4c0.2,0.6,0.7,1.7,0.7,1.7c0.1,0,1.7,0.4,2.6,0.9
	c0.1,0,0.2,0,0.1-0.1c-0.4-0.7-1.1-2,1-1c0.1,0,0.2,0,0.2-0.1c0.1-0.1,0.2-0.3,0.7-0.3c0.3,0,0.5-0.1,0.7-0.2c0.9-0.3,3-1.3,3.4-3.1
	c0,0,1.2-2.5-1.6-2c0,0,0.5-1.1,3.2,0.1c0,0,6.4,2.8,10.6,3.1c0.2,0,0.3-0.1,0.3-0.3c0-0.3-0.3-1-1.1-1.9
	C46.8,28.4,43,25.2,43.9,24.4z M4.7,23.3c-0.6,0-1.1-0.4-1.1-0.8c0-0.5,0.5-0.8,1.1-0.8c0.6,0,1.1,0.4,1.1,0.8
	C5.8,22.9,5.3,23.3,4.7,23.3z"/>
</svg>
