<?xml version="1.0" encoding="utf-8"?>
<!-- Generator: Adobe Illustrator 19.1.0, SVG Export Plug-In . SVG Version: 6.00 Build 0)  -->
<svg version="1.1" id="Layer_1" xmlns="http://www.w3.org/2000/svg" xmlns:xlink="http://www.w3.org/1999/xlink" x="0px" y="0px"
	 viewBox="0 0 48 48" style="enable-background:new 0 0 48 48;" xml:space="preserve">
<style type="text/css">
	.st0{fill:#808080;}
</style>
<path class="st0" d="M45.9,36.9c0,0,0.5-1.5-1.5-2.5c-0.1,0-0.1-0.1-0.2-0.1c-0.8-0.3-5.9-2.4-8.5-2.9c-0.4-0.1-0.7-0.4-0.6-0.8
	c0-1.2,0.2-3.8,1.7-6.3c0,0,4.5-7.8,3.1-12.2L39.8,1.7l0,0c0,0-0.7-0.4-0.9,0.7c0,0-0.8,3-0.7,3.4c0,0-1.6-5.3-1.9-5.6
	c0,0-0.6-0.7-0.6,0.6l0.4,3.7l-2-3.8c0,0-0.6-0.6-0.5,0.6l1.2,4.6l-2.6-3.2c0,0-0.5,0.2-0.3,0.9l0.5,1.5c-0.1,0-1-0.9-1.1-0.6
	c0,0-0.6,0.8-0.4,1l0.2,0.7c0,0-1.1-0.1-0.4,1.8c0,0-1.2,0.1-0.5,1.7c0,0-1.7,0.2-0.1,2c0,0-0.9-0.1-1.1,0.3c0,0-0.6,1.1,0.3,1.6
	c0,0-1.4,0.3-1.2,2.1c0,0-0.7,1.2-0.1,1.8c0,0-1.1,1.5-0.5,2.2L27.4,20c0,0-1-4.6-1.9-11.5c0,0-0.4-0.3-0.5,0.5
	c-0.1,0.8-0.4,4.2,0.1,6.8C25,15.6,21.5,7.2,21.2,7c0,0-0.6-0.2-0.4,0.5c0.1,0.7,1.7,6,1.7,6.2c-0.1-0.2-3.3-5.4-3.9-6
	c0,0-0.5,0.3-0.1,1.1l2.9,6.2c-0.1-0.1-4.3-5.1-4.7-4.4c0,0-0.4,1.2,1.3,3.1c-0.1-0.1-1.5-1.4-1.8-0.9c0,0-0.4,0.7-0.1,1.2l0.5,0.8
	c0,0-0.9-0.4-0.8,0.6c0,0-0.3,0.7,0.8,1.5c-0.1,0-0.8-0.4-0.9,0.3c0,0-0.4,1.1,0.9,1.7c-0.1,0-1.2-0.3-1.3,0.1c0,0-0.4,1.4,1.8,2.2
	c-0.1,0-1.8-0.4-1.8,0.2c0,0-0.4,1.3,1,1.7c0,0-1.9,0-0.6,2.1c0,0-0.4,1.3,0.9,1.6c0,0-0.4,1.2,0.8,1.6c0,0-2.5-0.1-0.2,0.5l0.9,1
	c0.3,0.3,0.1,0.7-0.3,0.8L2.7,31.9l0.2,0.2l9.4-0.6c-0.6,0.1-9.9,1-10.4,1c0,0-0.8,0.3,0,0.5l5.2-0.1c0,0-0.4,0.6,1.8,0.3
	c0,0-0.6,0.6,2.6,0.2c0,0,0.1,0.3,0.9,0.2c0,0-0.2,0.3,0.8,0.1c0,0-0.2,0.2,1,0.1c0,0-0.1,0.3,0.5,0.3c0.4,0,3.7-0.2,5.5-0.2
	c0.7,0,1.4,0.1,2,0.5l4.7,2.7c0.6,0.3,0.9,1,0.9,1.6c0,1,0,2.4,0,2.8c0,0,0,0.4,0.3,0.7l0.9,1.9c0,0-1.7-0.5-2.1,0.7
	c0,0-0.6,0.3-0.2,0.9c0,0,0.1-0.8,0.6-0.5c0,0,0.2,0.1,0.5-0.2c0,0,0.7-0.4,1.3,0.3c0,0,0.9,0.3,0.4,1.5c0,0-0.4,0.3-0.1,0.6
	c0,0-0.1,0.5-0.7,0.6c0,0,0.6,0.3,1-0.5c0,0,0.4,0,0.5-0.7l0-1c0,0,0.3,0.6,0.4,0.7c0.1,0.1-0.2,0.4,0.2,0.6c0,0,0.1,0.5-0.4,0.8
	c0,0,0.9-0.1,0.8-0.9c0,0,0.4-0.5-0.3-1.2c0,0-0.8-1-0.9-1c0,0-0.4-1.5-0.6-1.8L29,41.6c0,0,1.4-1.3,1.7-1.2c0,0-0.1,0.8,0.2,1.1
	c0,0-0.2-1,0.1-0.7c0,0,0,0.7,0.4,0.9c0,0,0.1,0.5,1,0.4c0,0-0.7-0.2-0.7-0.4c0,0,0.3-0.4,0-0.6c0,0-0.2-0.6,0.1-0.6
	c0,0,1.2-0.2,1.4,0.9c0,0-0.2,0.3,0.2,0.5c0,0,0.2,0.4-0.3,0.6c0,0,0.6,0.1,0.6-0.7c0.3-0.5-0.1-0.9-0.4-1.5c0,0,0.2-0.2,0.6,0.3
	c0,0-0.2,0.4,0.4,0.5c0,0,0.3,0.4-0.2,0.8c0.8,0,0.8-2.1-0.5-2.2c0,0-1.5-0.5-1.6-0.6c0,0,0-0.5,2.1-0.3c0,0,5.7-1.4,7.9,0.7
	c0,0,0.1,0,0.2-0.1c0,0,0.6,1.4,2.8,1.2c0,0-0.3-0.6-0.5-0.7l0.1-0.3c0,0,0.6,0.3,0.5,0.6c0,0,0,0.5-0.1,0.6
	C45.1,40.7,47.4,39.9,45.9,36.9z M42.3,37.3c-0.2,0-0.3-0.1-0.3-0.3c0-0.2,0.2-0.3,0.3-0.3c0.2,0,0.3,0.1,0.3,0.3
	C42.6,37.2,42.5,37.3,42.3,37.3z"/>
</svg>
