<?xml version="1.0" encoding="utf-8"?>
<!-- Generator: Adobe Illustrator 19.1.0, SVG Export Plug-In . SVG Version: 6.00 Build 0)  -->
<svg version="1.1" id="Layer_1" xmlns="http://www.w3.org/2000/svg" xmlns:xlink="http://www.w3.org/1999/xlink" x="0px" y="0px"
	 viewBox="0 0 48 48" style="enable-background:new 0 0 48 48;" xml:space="preserve">
<style type="text/css">
	.st0{fill:#808080;}
</style>
<path class="st0" d="M46.1,13.3c0,0-1.3-2.6-5.6-1.4c0,0-3.8,0.6-5.3,3.7c0,0-0.9,2.7-5.1,2.8c0,0-4.2,0.1-9.4,2
	c-0.3,0.1-0.6,0.2-0.9,0.3c-1,0.2-3.6,0.9-5.6,1.9c-0.2,0.1-0.4,0.2-0.6,0.3c-1.4,0.6-7.1,2.8-9.1,3.8c-0.1,0,0,0.2,0.1,0.2
	c1.3-0.4,3.8-1,4.9-0.4c0,0-1,0-1.1,0.2c0,0-0.6-0.1-0.7,0.2c0,0-2,0.3-3.2,1.2c-0.1,0.1,0,0.2,0.1,0.2c1.1-0.1,4.4-0.3,4.1,0.1
	c0,0-6,2.7-6.6,3.2c0,0-3.8,2.1-1.3,1.9c0,0-0.3,0.5,0.7,0.2c0,0-0.5,0.9,1.4-0.2c-0.1,0-0.6,0.5-0.4,0.4l2.6-1.4c0,0-0.6,0.5-1,0.8
	c-0.1,0.1,0,0.2,0.1,0.2c0.3,0,0.7-0.2,1.5-0.7c0,0,0.5-0.4,0.6-0.3c0.1,0,0.2,0,0.3,0C7.3,31.9,9.3,31,10,31c0,0,3.2-0.1,4.5-0.3
	c0.4-0.1,0.7,0,1.1,0.1c0.9,0.3,2.8,0.7,4.6,0.4c0,0,0.2,0.4,1.4,0.4c0,0-1.4,0.5-0.4,0.8c0,0,1.8,1.2,4,0.6c0.2,0,0.3,0.1,0.3,0.3
	c-0.1,0.4-0.1,1,0.2,1.4c0.1,0.2,0.1,0.4-0.1,0.5c-0.4,0.2-0.9,0.7-0.5,1c0,0,0.5-0.7,0.8-0.4c0,0,0.1,0.4,0.8,0.1
	c0,0,1.4,0.6,2.6,0.2c0,0,0.9,0.1,1.5-0.1c0.2-0.1,0.3-0.1,0.5,0c0.6,0.2,2.1,0.6,2.8,0.4c0,0,0.6,0,0.7-0.2c0,0,1.2,0.4,1-0.3
	c0,0,0.6,0,0.8,0.2c0,0-0.1-0.7-0.8-0.7c0,0-1.1-0.4-1.7,0c0,0-1.2-0.3-1.4,0.1c0,0-1.2-0.4-1.6-0.7c0,0-0.3-0.2-1,0
	c0,0-1.3,0.1-1.2-0.4c0,0,0.5,0.4,1.1,0.2c0,0,0.5-0.1,0.9-0.1c0,0,0.6,0.1,0.8-0.1c0,0,0.5,0.2,0.9-0.1c0,0,1.9,0.7,2.7,0.4
	c0,0,0.4,0.1,0.6-0.2c0,0,0.9,0.4,0.9-0.2c0,0,0.5-0.2,0.8,0.2c0,0,0.1-0.6-0.7-0.7c0,0-1.1-0.3-1.5,0c0,0-0.7-0.4-1.3,0
	c0,0-0.9-0.1-1.4-0.6c0,0-0.3-0.3-1-0.1c0,0-1.4,0.1-1-0.2c0,0,0.1-0.2,0.9-0.3c0.2,0,0.4-0.1,0.6-0.2c1-0.4,4-1.7,4.4-2.2
	c0,0,0.3-0.2,0.2,0.1c0,0,0,0.1,0.3-0.1c0.2-0.3,0,0,0,0l2.1-2c0,0,0.4-0.7,0.4-0.3c0,0,1.5-2.3,1.4-1.5c0,0,1-0.8,1-1.6
	c0,0,0.3-0.2,0.2,0.4l0,0.3c0,0,0.5-1.2,0.5-1.6c0,0,0.1,0.2,0.1,0.5c0,0,0.6-1.4,0.7-2.8c0,0,0.4-1.3,1-2.2
	c0.3-0.4,0.7-0.7,1.2-0.8c0.3-0.1,0.7-0.2,0.8-0.4c0,0,0.4,0.3-0.3,1.3C46.3,19.7,50.2,15.5,46.1,13.3z M44,15.1
	c-0.3,0-0.6-0.2-0.6-0.5c0-0.3,0.2-0.5,0.6-0.5s0.6,0.2,0.6,0.5C44.5,14.9,44.3,15.1,44,15.1z"/>
</svg>
