<?xml version="1.0" encoding="utf-8"?>
<!-- Generator: Adobe Illustrator 19.1.0, SVG Export Plug-In . SVG Version: 6.00 Build 0)  -->
<svg version="1.1" id="Layer_1" xmlns="http://www.w3.org/2000/svg" xmlns:xlink="http://www.w3.org/1999/xlink" x="0px" y="0px"
	 viewBox="0 0 48 48" style="enable-background:new 0 0 48 48;" xml:space="preserve">
<style type="text/css">
	.st0{fill:#808080;}
</style>
<path class="st0" d="M47.7,13.3c0,0-0.2-0.5-2.6-0.3c-0.4,0-0.7,0.1-1,0.2c-1.9,0.5-8.7,2.4-10.8,3.1c-0.5,0.2-1,0.3-1.5,0.4
	c-1.6,0.4-5,1.1-7,1.3c-0.9,0.1-1.7-0.3-2.2-1c-1.4-1.7-4.4-5.2-4.5-3.7c0,0,1.5,5.1-1.4,7c-0.1,0,0,0.1,0,0.2c0.2,0,0.6,0,0.9-0.1
	c0,0,0.2,0.2-1.3,0.7c0,0-4.4,2-7.2,2.5c-0.1,0-0.2,0-0.2,0c-0.3,0-1.3,0-2-0.3c0,0-1.1-0.3-0.5,0.6c0,0,0.4,0.6-0.9,0.3
	c0,0-0.6,0-1.4-2.7c0,0-1.6-5.7-2.6-5.7c-0.1,0-0.2,0.1-0.2,0.3c0.1,0.3,0.3,0.9,0.2,1.2c0,0,0,0.7,0.4,1.1c0.2,0.3,0.5,2.3,0.5,4
	c0,1.2-0.3,2.4-0.8,3.5c-0.4,0.8-0.9,1.7-1.2,2c0,0-0.9,1.2,0.9,0.4c0,0,1.5-0.5,2.9-2.4c0,0,0.3-0.4,0.9,0l0.6,0.5
	c0,0,0.2,0.3-0.1,0.5c0,0-0.2,0.2,0.2,0.3c0,0,0.6,0.3,1.2,0c0.1,0,0.3,0,0.4,0c0.5,0.2,1.4,0.7,0.9,0.9c0,0-2.9,1.7-2.2,1.8
	c0,0,2.4-0.4,3.9-1.2c0.1,0,0.1-0.1,0.2,0l0.2,0c0.1,0,0.3,0.1,0.3,0.2c0.1,0.2,0.5,0.6,1.2,0.4c0.1,0,0.3,0,0.4,0
	c1.2,0.3,6.7,1.8,10.5,1.4c0.2,0,0.3,0.2,0.2,0.3c-0.4,0.7-1.4,2.1-3.3,3.3c0,0-1.2,1,0.4,0.6c0,0,4.3-1.2,8.1-4.4
	c0.2-0.1,0.4-0.1,0.5,0.1c0.1,0.4,0.2,1,0.1,1.5c0,0-0.2,0.6,0.6,0.4c0,0,3.5-0.5,4-3.6c0-0.1,0.1-0.2,0.2-0.3
	c3.8-1.4,4.7-2.4,7.2-2.5c0,0,4.9-0.8,4.8-2.5c0,0,0.1-0.6-0.2-0.1c0,0-0.1,0.1-0.1-0.1c0,0,0-0.7-0.2,0c0,0-0.2,0.1-0.1-0.2
	c0,0-0.1,0.1-0.1,0.2c0,0-0.1-0.2,0-0.2c0,0-0.1,0-0.1,0.2c0,0-0.2-0.2-0.1-0.3c0,0,0,0.1,0,0.2l-0.2-0.3c0,0-0.1,0.2-0.1,0.3
	c0,0-0.2-0.1-0.2-0.3c0,0-0.1,0-0.1,0.2c0,0-0.2-0.3-0.3-0.3c0,0,0.1,0.2,0,0.2c0,0-0.2-0.1-0.3-0.3c0,0,0,0.2-0.2,0.2l0-0.3
	c0,0,0,0.2-0.2,0.2l0-0.2c0,0-0.2,0.2-0.3,0.2l0-0.3c0,0-0.1,0.2-0.3,0.2c0,0-1.1-0.3-1-0.8c0-0.1,0-0.1,0-0.2
	c0-0.2,0.1-0.6,0.6-1.1c0,0,0.8-0.8,1.7-1.1c0.1,0,0.2-0.1,0.3-0.2l0.1-0.2l0.2,0.3l0-0.2l0.2,0.2l0-0.5l0.2,0.5l0-0.4l0.2,0.3v-0.2
	l0.2,0.2l0-0.6l0.3,0.5l0-0.5l0.3,0.4c0,0,0-0.4-0.2-0.6c0-0.1,0-0.2,0.1-0.2c0.2-0.1,0.6-0.3,0.8-0.6c0.2-0.4,0.3-0.8,1-1.8
	C47.1,16.2,48.7,14.2,47.7,13.3z M39.9,15.9c-0.3,0-0.6-0.2-0.6-0.5c0-0.3,0.3-0.5,0.6-0.5c0.3,0,0.6,0.2,0.6,0.5
	C40.5,15.7,40.3,15.9,39.9,15.9z"/>
</svg>
