<?xml version="1.0" encoding="utf-8"?>
<!-- Generator: Adobe Illustrator 19.1.0, SVG Export Plug-In . SVG Version: 6.00 Build 0)  -->
<svg version="1.1" id="Layer_1" xmlns="http://www.w3.org/2000/svg" xmlns:xlink="http://www.w3.org/1999/xlink" x="0px" y="0px"
	 viewBox="0 0 48 48" style="enable-background:new 0 0 48 48;" xml:space="preserve">
<style type="text/css">
	.st0{fill:#808080;}
</style>
<path class="st0" d="M47.4,18.4c0,0-6.2-1.9-17.6-0.7c-0.1,0-0.2,0-0.3,0c-0.3,0.1-1.3,0.1-2.5-2.2c0,0-1.7-4.7-3.1-3.8
	c0,0,0.4,6.1-0.3,6.9c0,0-4.9,4.6-7.3,4.9c-0.3,0-0.5,0-0.7-0.2c-0.2-0.1-0.5-0.3-0.5-0.2c0,0,0,0.9-0.8,1.2c0,0-5,1.9-6.3,0.9
	c0,0-0.5-0.4-1.2-1.8c0,0-2.9-5.5-6.8-5.7c0,0-0.1,0.1,0.2,0.2c0,0,0.6,0.3,0.5,0.9c0,0.1,0,0.2,0.1,0.2c0,0,0.1,0,0.1,0
	c0.1,0,0.2,0.1,0.3,0.2c0.8,1.1,5.4,7.9,0.3,13c-0.1,0.1-0.1,0.3,0,0.3c0.2,0.1,0.6,0.1,1.4-0.3c0,0,2.6-1.1,4.7-4.1
	c0,0,0.8-0.9,2.4-0.7c0,0,2.6,0,2.8,1.4c0,0,0.1,0.3,0.4,0c0,0,0.3-0.6,0.8-0.4l3.6,0.9c0.1,0,0.1,0.1,0,0.2
	c-0.3,0.1-0.6,0.3-0.2,0.3c0,0,1.5,0,1.8-0.1c0,0,1.7,0.3,2.3,0.2c0.1,0,0.1,0.1,0,0.1c-0.7,0.8-4.9,5.8-4.4,5.8
	c0.2,0,0.6,0.1,2.9-2.1l4.4-3.7c0.1-0.1,0.3-0.2,0.5-0.2c1-0.1,4.8-0.3,6.2-0.4c0.3,0,0.6,0,0.8,0.2c1.1,0.7,4.2,2.9,5.5,5.3
	c0,0,0.5,0,0.5,0.7c0,0,0.5,1.5,1,0.8c0,0,1.8-2.7-2.7-7.9c-0.1-0.1,0-0.2,0.1-0.3c1.4-0.5,9-3.5,8-4.9c0,0,0.5-0.9-0.3-0.1l0.1-0.5
	c0,0,0.7-0.1,1.4-0.7c0,0,1.5-1.6,1.8-1.9C47.3,20.1,48.8,18.7,47.4,18.4z M41.5,19.9c-0.3,0-0.5-0.2-0.5-0.5c0-0.3,0.2-0.5,0.5-0.5
	c0.3,0,0.5,0.2,0.5,0.5C42,19.7,41.8,19.9,41.5,19.9z M43.3,23C43.3,23,43.4,22.9,43.3,23C43.4,23,43.3,23.1,43.3,23z M43.6,23
	c0-0.4,0.3-0.3,0.3-0.3L43.6,23z"/>
</svg>
