<?xml version="1.0" encoding="utf-8"?>
<!-- Generator: Adobe Illustrator 19.1.0, SVG Export Plug-In . SVG Version: 6.00 Build 0)  -->
<svg version="1.1" id="Layer_1" xmlns="http://www.w3.org/2000/svg" xmlns:xlink="http://www.w3.org/1999/xlink" x="0px" y="0px"
	 viewBox="0 0 48 48" style="enable-background:new 0 0 48 48;" xml:space="preserve">
<style type="text/css">
	.st0{fill:#808080;}
</style>
<path class="st0" d="M47.4,23.6c0,0-0.5-1.7-1.3-2.2c0,0,0.6-0.5-0.8-1.1l0-0.5l-0.9-0.4c0,0,0-0.2,0.1-0.3c0,0,0.2-0.3-1-0.6
	c0,0,0-0.2,0.1-0.3c0,0,0-0.2-1-0.6l0.1-0.2c0,0-0.2-0.4-1.4-0.7c0,0,0.2-0.4-0.1-0.5c0,0-0.9-0.3-1.4-0.4l-0.1-0.4l-0.6-0.1
	c-0.1,0-0.1-0.1-0.2-0.1c-0.4-0.6-2.4-3.6-3.8-1.7l-0.5,0c-0.1,0-0.2-0.1-0.2-0.2l0-0.1c0,0-0.9-0.2-1.2-0.3c0,0-0.1,0-0.1-0.1
	c0-0.1,0-0.3-0.2-0.3l-0.9,0c0,0-0.1,0-0.1-0.1c0-0.1-0.1-0.4-0.1-0.4h-0.9c-0.1,0-0.1,0-0.1-0.1c-0.1-0.1-0.2-0.4-0.3-0.4
	c0,0-0.8,0.1-1.1,0.1c0,0-0.1,0-0.1-0.1l0-0.3c0,0-1.1,0-1.3,0c0,0-0.1-0.4-0.2-0.4l-1.4,0.2c0,0,0.1-0.5-0.2-0.4
	c0,0-1.2,0.3-1.2,0.3v-0.3c0,0,0-0.1-0.1-0.1L23.8,11v-0.3c0,0,0-0.1-0.1-0.1l-1.5,0.2c0,0,0,0-0.1,0c-0.1-0.1-0.5-0.3-1.1-0.1
	c0,0-0.1,0-0.1,0c-0.1-0.1-0.4-0.3-1.5,0.1c0,0-0.1,0-0.1,0c-0.1-0.1-0.4-0.3-0.8,0c0,0-0.1,0-0.1,0c-0.1,0-0.3-0.1-0.5-0.1
	c0,0-0.1,0-0.1,0c-0.2-0.1-0.8-0.7-1.1-0.3c0,0-0.1,0-0.1,0c-0.1,0-0.4-0.1-0.5-0.2c0,0-0.2-0.2-0.5,0c0,0-0.1,0-0.1,0
	c-0.5-0.2-4-1.5-4.1-1.6c0,0-0.7-1.6-2-0.6c0,0-0.1,0-0.1,0C9.3,8,8.9,8,8.6,8.4c0,0-0.1,0.1-0.1,0.1c-0.5,0-3.9,0.3-4.8-0.9
	c0,0,0,0,0,0c0-0.1-0.3-0.4-1,0c0,0-1.5-0.1-1.9,0.3C0.6,7.9,0.6,8,0.5,8c0,0,0,0,0,0C0.2,8.2-0.4,8.9,0.3,9.6c0,0,0.2,0.7,1.1,1.1
	c0,0,3.4,2,3.8,2.6c0,0,2.5,1.4,4.2,2.1c0,0,1.7,1,2.4,1.8c0,0,1.6,2.4,6.6,4c0,0-0.7,1.5-0.8,1.5c0,0-2.5-1-3.4,0.1
	c0,0,1.8-0.4,1.8,0.3c0,0-1.6,0.1-1.7,1.4c0,0,1.5-1,1.9-0.5c0,0-1.4,0.5-1.5,1.5c0,0,2.3-1.2,1.9-0.8c0,0-0.9,1-0.8,1.4
	c0,0,0.7-0.9,2.2-1.1c0,0,2.2-0.9,3.5-3.1c0,0,3.6,1.3,8.2,1c0,0-1.5,3.3-1.5,4.5c0,0-0.2,0.1-0.5,0c0,0-2.8-0.8-3.7,0.8
	c0,0,1.7-0.7,2.4,0.1c0,0-2.4,0.4-2.6,2.1c0,0,1.8-1.3,2.5-0.9c0,0-1.7,1.6-1.3,2.4c0,0,2-2,2.4-1.8c0,0-0.9,1.7-0.6,2
	c0.3-0.2,2.4-1.9,2.5-2.3c0,0,0.4-0.5,0.5-1.1c0,0,2.2-1.9,2.6-3.7c0.1-0.3,0.2-0.5,0.5-0.7c0.6-0.4,1.8-1.1,3.1-0.9
	c0.1,0,0.1,0,0.2,0c0.8,0.1,8.7,1.5,6.6,10l-0.1,0.9l-0.7,0.1l0.1,0.6l-0.9-0.1l0,0.9c0,0-1.2-0.2-1.3,0c0,0,0.2,0.5,0.2,0.7
	c0,0-0.9,0-1.1-0.2c0,0,0.2,0.6,0,0.7L38,36.4c0,0,0,0.5-0.1,0.6c0,0-1-0.3-1.1-0.2c0,0,0.1,0.4,0,0.5c0,0-0.8-0.5-1-0.4
	c0,0,0,0.6-0.1,0.6c0,0-1-0.6-1.1-0.5c0,0,0.1,0.5,0,0.5c0,0-0.8-0.4-0.9-0.3l0,0.6c0,0-0.9-0.5-0.9-0.4l0,0.5c0,0-0.6-0.4-0.6-0.3
	l0,0.6c0,0-0.8-0.5-0.9-0.3l0,0.4c0,0-0.1,0.1-0.2,0.1c0,0-0.4-0.2-0.5-0.1c0,0,0.2,0.3,0,0.4c0,0-0.6-0.2-0.7-0.1
	c0,0,0.3,0.4,0,0.4c0,0-0.5-0.2-0.4,0.1c0,0,0.1,0.4-0.1,0.4c0,0-0.7-0.1-0.6,0.1c0,0,0.5,0.5-0.3,0.4c0,0,0,0.5-0.4,0.7
	c0,0-0.2,0.2,0.2,0.2c0.3,0,3.5-0.8,6.1-0.8c0,0,5.4,0,8-2c0,0,4.2-2.4,5-6.2C47.1,31.8,48.9,27.6,47.4,23.6z M10.1,9.6
	C9.7,9.4,9,9.4,9,9.4V9c0.1-0.5,0.7-0.3,0.7-0.3C10.2,8.7,10.1,9.6,10.1,9.6z"/>
</svg>
