<?xml version="1.0" encoding="utf-8"?>
<!-- Generator: Adobe Illustrator 19.1.0, SVG Export Plug-In . SVG Version: 6.00 Build 0)  -->
<svg version="1.1" id="Layer_1" xmlns="http://www.w3.org/2000/svg" xmlns:xlink="http://www.w3.org/1999/xlink" x="0px" y="0px"
	 viewBox="0 0 48 48" style="enable-background:new 0 0 48 48;" xml:space="preserve">
<style type="text/css">
	.st0{fill:#808080;}
</style>
<path class="st0" d="M47.7,10.2c-0.5,0.1-5,2.6-5,2.6l-3,1.8l-1.4,0.7c0,0-0.2-0.1-0.9,0.4c0,0-2.7,1.6-3,2.1l-1.6,2.2
	c0,0-2.3-3.5-6-1.2c0,0-2.7-3.5-3.5-2.7l-1.5,2c0,0-1.5,0.1-1.9,0.3c0,0,0.6-3.7,0.7-4c0-0.1,0.1-0.1,0.1-0.1c0,0,0,0,0,0
	c0.1-0.1,0.7-0.8,1.5-0.8c0.1,0,2.3-0.5,2.2-2.2c0,0-0.2-0.3-0.3,0.1c0,0-0.4,1.4-1,1.5c0,0-3.3,0.4-3.4,1.7L19,18.5
	c0,0-3,1-2.8,2.6c0,0-0.5,0-0.4,0.4c0,0-0.3-1.2-0.6-1.4c0,0-1.7-6.6-2.4-7.5c0,0-0.7-0.5-1.8,0.1c0,0-4.9,2.4-4.8,2.5
	c0,0-1.6,0.8-2.9,2.1c0,0-2,0.2-2.4-0.9c0,0-0.1-0.4-0.2-0.3c0,0-0.4,0.3,0,0.4c0,0,0.7,1.2,2.6,0.9c0,0,0.4,0,0.8-0.5l2.6-1.5
	c0,0,0.1,0.3,0.5,0c0,0,4.6-2.6,4.7-2.8c0,0,0.3-0.1,0.3,0.2l1.4,5l0.4,2.3c0,0,0.7,1.7,0.1,1.5L13.6,20c0,0-0.3-1.7-2.5-2
	c0,0-3.7,0.2-5.3,2c0,0-3.2,2.1-1.3,4.9c0,0,1.1,0.3,2.3,0.1l-0.9,1.5c0,0-0.4,0.4-0.4,0.8l-2.1,5.8c0,0-0.6,1.1-1.8,1.8
	c0,0-0.1,0.2-0.5,0c0,0-0.8-0.3-1.1,0.2c0,0,0.7-0.2,1.2,0.1c0,0,0.4,0.1,0.8-0.3l1.5-1.5c0,0,0.2,0.1,0.1-0.2l2.1-5.8
	c0,0,0.2-0.2,0.3-0.2L7.7,25c0,0,4.6-0.1,5.1-1.4c0,0,0.2,1.6,1.4,1.5l-1.4,4.6c0,0-0.1,0.2-0.1,0.5l-0.6,4.5c0,0-0.2,0.3,0.1,0.1
	c0,0.1-0.6,1.5-0.1,2.4c0,0-0.2,0.4-0.1,0.6c0,0,0.1-0.6,0.4-0.4c0,0,0.1,0,0.1-0.1c0,0,0.3-0.1,0.4,0.2c0,0,0.1-0.3-0.3-0.4
	c0,0-0.4-1.3-0.1-2.2l0.2,0.1l0-0.8l0.6-4c0,0,0.3-0.3,0.5-0.9l1.2-4.1c0,0,0.6-0.1,0.8-0.2c0,0,1,1.2,1.7,0.2c0,0,1.3-0.2,1.5-2
	c0,0,1.5-1,2-1.6c0,0.1-0.4,1.7-0.3,2c0,0-0.9,2,0.4,2c0,0,1,0.2,2.2-1.3c0,0,0.6-0.3,0.8,0l2.9,5.6c0,0,1.4,3.1,1.5,3.7l0,0.4
	c0,0,0.1-0.3,0.2-0.2c0,0,0.4,1.2,1.4,1.3c0,0,0.4-0.6,0.6-0.2l0.2,0.4c0,0-0.1-0.4,0-0.4c0,0,0.1-0.2,0.3,0.1c0,0-0.3-0.5-0.7-0.5
	c0,0-0.5,0.6-1,0c0,0-1.1-1.6-1.2-2.2c0,0-0.9-2.6-1.1-2.9c0,0,0-0.3-0.1-0.6c-0.1-0.2-2.9-5.1-2.9-5.1s0-0.6-0.7-0.6
	c0,0,0.2-0.7,0.2-0.8c0,0,2-1.6,2.2-1.3c0,0-0.7,1.4,1.3,2.4c0,0,2.7,1.5,3.9,1.8c0,0,1.5-0.1,2.8,1.1c0,0,0.6,0.4,0.9-0.8
	c0,0,0.6-1.8-0.6-3c0,0,0-0.7-0.9-2.1c0,0,0.7,0.2,1,0.5c0,0,1,0.6,1.2,0.4c0,0,4.8-1.4,5.9,0.3c0,0,0.4-0.2-0.1-0.6
	c0,0-1-1.3-5.7-0.1c0,0-1.3-0.4-1.7-0.7c0,0-0.6-0.2-0.8-0.1c0,0-0.1-0.2-0.1-0.2c0,0,1.5-1.9,1.5-1.9s3.1-2.4,3.6-2.3
	c0,0,0.4-0.2,0.3-0.4l6.5-3.5l3.1-1.5C47.9,10.4,48.2,10,47.7,10.2z M14.8,23.8l-0.3,0.4c0,0-0.1-1.2-0.2-1.3c0,0,0.6-0.5,0.8,0
	C15.1,22.9,14.8,23.3,14.8,23.8z M23.2,18c0,0,0.7-1.7,1-1.5l1.3,1.9C25.4,18.4,24,17.6,23.2,18z M30.4,21.7c0,0-0.8,0.5-1.6-0.4
	c0,0-0.3-1.1,0.6-0.9C29.4,20.3,30.8,20.6,30.4,21.7z"/>
</svg>
