<?xml version="1.0" encoding="UTF-8"?>
<svg id="Layer_2" data-name="Layer 2" xmlns="http://www.w3.org/2000/svg" viewBox="0 0 100.07 54.58">
  <defs>
    <style>
      .cls-1 {
        fill: #808080;
        fill-rule: evenodd;
      }
    </style>
  </defs>
  <g id="Layer_1-2" data-name="Layer 1">
    <path class="cls-1" d="M100.04,37.17c.17,1.42-.61,2.03-1.79,2.24-.71,.13-1.4,.37-2.12,.37-1.89,0-3.69-.5-5.26-1.02-.79-.26-1.56-.57-2.24-.9-.72-.34-1.32-.84-2-1.14-.36-.16-.87-.34-1.18-.37-.62-.06-1.36,.13-2,.16-4.93,.22-8.91,1.92-12.31,3.71,.82,.39,1.99,.43,2.61,1.02,.07,.47,.06,1.09-.08,1.47-.04,.13-.04,.13,.12,.12-.02,.19-.22,.19-.29,.33-.04,.18,.07,.2,.08,.33-.29,.12-.26,.46-.33,.69-.21,.72-.44,1.45-.81,2.12-.46,.81-1.03,1.56-1.59,2.32-.78,1.07-1.73,2.13-2.77,3.1-.34,.31-.67,.8-.98,.98-.11,.06-.35,.08-.53,.16-.18,.08-.29,.23-.41,.24-.26,.04-.54-.17-.73-.2-.24-.04-.49,.02-.73,0-.93-.07-1.95-.49-2.81-.82-2.58-.98-4.56-2.79-6.52-4.32-2.87,1.05-5.9,1.92-9.33,2.41,.33,.55,1.35,1.46,1.43,2.32,.05,.56-.32,.48-.37,.94-.18-.19-.38,.06-.53,.12-1.44,.64-3.87,.14-5.1-.37-1.63-.68-3.01-1.76-4.32-2.61-.62,0-1.21-.04-1.71-.16,.13,.52,.39,1.13,.57,1.83,.13,.51,.5,1.59,0,1.92-.15,.1-.36,0-.49,.04-.39,.1-.81,.34-1.3,.37-1.08-.25-2.03-.38-2.85-.86-.67-.39-1.2-1.11-1.87-1.63-.36-.28-.87-.53-1.3-.94-.16-.15-.39-.37-.57-.57-.15-.16-.39-.56-.49-.61-.09-.04-.42-.02-.53-.04-.59-.13-1.2-.42-1.79-.61-.62-.2-1.25-.33-1.83-.53-1.17-.4-2.26-.95-3.34-1.43-2.23-.99-4.37-1.93-6.15-3.38-.23,0-.38-.18-.57-.28-2.36-1.23-5.41-1.94-8.11-2.89-.46-.16-.89-.33-1.35-.49-.47-.17-.98-.24-1.43-.41-.75-.28-1.43-.86-2-1.39,.03-.25-.05-.37,0-.65,1.41-.58,3.1-.87,4.97-.98,.07-.28-.13-.65,.04-.78-.51-.47-1.08-1.19-1.79-1.63-.33-.2-.64-.3-.9-.49-.44-.32-1.99-1.41-1.79-2.24,.07-.29,.9-.93,1.3-1.06,.11-.03,.3-.05,.45-.04,.8-.98,1.71-1.75,2.53-2.65,.35-.38,.59-.73,.94-1.02,.63-.53,1.39-1.01,2.22-1.43,.21-.13,.42-.23,.63-.3,1.18-.54,2.48-.98,3.8-1.28,.94-.22,1.99-.45,2.93-.9,1.52-.72,3.03-1.77,4.44-2.69,.36-.23,.74-.44,1.1-.69,.35-.24,.7-.53,1.06-.73,.77-.45,1.6-.76,2.32-1.22,.84-.54,1.69-1.06,2.65-1.39,.13-.39,.41-.74,.45-1.14,.02-.24-.08-.49-.08-.73-.01-2.73-.13-5.65,.16-8.31,.26-2.34,.75-4.46,1.71-6.03,.02-.06,.06-.1,.12-.12,.04,0,.04,.02,.04,.04,.31,.28-.03,.65-.08,1.02-.13,.99,.09,2.37,.73,2.61,.35,.13,.86,.13,1.18,.08,.32-.05,.66-.3,.98-.49,.27-.16,.84-.4,.98-.61,.43-.64,.7-1.55,1.22-1.92,.59,.72-.86,1.75-.2,2.65,1.15,1.59,3.78,.08,4.69-.57,.51-.37,.75-1.05,1.3-1.14,.07,.4-.31,.61-.37,.94-.2,1.31,.82,1.9,1.92,2.08,.95,.16,2.19,.28,2.98-.04,.77-.31,1.31-1.27,2.16-1.47,.06,.11-.06,.27,.16,.29-.14,.44-.7,.6-.94,1.02-.12,.21-.35,.74-.29,1.02,.13,.62,2.24,.55,3.02,.49,1.4-.11,2.84-.78,3.75-.98,.1,.13-.12,.24,0,.41-.4,.22-.82,.43-1.3,.57-.39,.34-.68,1.23-.45,1.83,.28,.71,2.77,1.03,3.79,1.1,.67,.05,1.24-.38,1.75-.16,.13,.24-.28,.25-.29,.49-1.21,.05-1.37,1.88-.37,2.45,.3,.17,.85,.25,1.39,.37,.51,.11,1.07,.29,1.43,.32,.2,.02,.47-.14,.57,.08-.37,.5-1.14,.56-1.39,1.18-.28,.71-.02,1.49,.41,1.88,.17,.15,.47,.41,.69,.45,.52,.09,.91-.35,1.43-.08-.26,.24-.29,.55-.73,.65-.4,1.1,.32,1.86,1.26,2.16,.52,.17,1.18-.01,1.55,.37,.05,.24-.27,.21,0,.45-.14,.02-.26,.06-.45,.04-.69,.36-1.78,.42-1.92,1.43-.12,.18,.31,.11,.24,.37-.07,.13-.37,.04-.41,.2,1.02,.6,2.14,1.09,3.18,1.67,.87-1.04,1.7-2.28,3.06-3.38,.8-.65,1.92-1.34,3.06-1.79,.78-.31,1.65-.55,1.92,.29,.12,.75,.39,1.55,.77,2.04,.53,.66,1.3,.93,2,1.43,.3,.22,.53,.53,.77,.77,.25,.25,.56,.44,.77,.73,.22,.08,.35,.27,.57,.37,.6,.27,1.39,.22,2.08,.41,1.36,.37-.37,2.13-.82,2.57-.6,.59-1.15,1.04-1.74,1.52,.99,.06,1.97,.1,2.96,.17,.75-.05,1.45-.15,2.08-.34,.34-.1,1.02-.32,1.26-.53,.38-.32,.69-1.31,.82-2,.14-.83,.28-1.67,.45-2.36,.38-1.56,.98-2.86,1.39-4.12,1-2.14,2.79-4.36,4.61-5.99,.61-.55,1.33-1.14,2.08-1.43,.61-.23,1.23-.17,1.75,.04,.04,.08-.23,.02-.08,.08,1.13,.59,1.97,1.66,2,3.18,.01,.62-.16,1.31-.24,2-.08,.65-.18,1.26-.33,1.88-.29,1.24-.84,2.36-.86,3.55,0,.44,.07,1.14,.16,1.55,.11,.46,.31,.84,.37,1.34,.06,.5,.07,1.02,.08,1.59,.02,.89,.23,1.51,.54,2.02,.25,.31,.5,.62,.77,.92,.24,.23,.5,.45,.77,.69,.83,.74,1.54,1.59,2.08,2.57,.27,.49,.65,.92,.9,1.43,.26,.53,.41,1.1,.65,1.67,.15,.34,.44,.69,.49,1.1Z"/>
  </g>
</svg>