<?xml version="1.0" encoding="UTF-8"?>
<svg id="Layer_2" data-name="Layer 2" xmlns="http://www.w3.org/2000/svg" viewBox="0 0 51.99 41.03">
  <defs>
    <style>
      .cls-1 {
        fill: #808080;
        fill-rule: evenodd;
      }
    </style>
  </defs>
  <g id="Layer_1-2" data-name="Layer 1">
    <path class="cls-1" d="M15.33,17.25l1.23-1.83s1.19,.42,1.33-.06c.14-.49-.1-1.19-.1-1.19,0,0,.64-.07,1.41-.07s2.34-.67,2.85-1.05,1.34-1.01,1.34-1.01l.45-.18s.11,.86,.43,.91c.32,.04,1.15-.74,1.17-1.04s.93,.02,.96,.09c.03,.07,1.06,.4,1.06,.4,0,0,2.42-6.88,3.38-7.97,0,0-9.12,0-11.18-.44s-5.25,.04-6.04-.56c0,0-.11-.32,.16-.32s1.35,.15,1.55,.05c.2-.1,.04-.41,.12-.45,.08-.03,.75,.44,1.13,.3,.37-.14,.37-.69,.52-.68,.15,.02,.56,.6,1.07,.52,.51-.08,.46-.51,.75-.58,.29-.07,.62,.31,.96,.32,.34,.02,1.09-.02,1.32-.08s.45,0,.68-.02c.23-.03,.09-.71-.47-.57-.57,.14-1.09,.29-1.51,.2s-.97-.31-1.2-.24c-.23,.06-.61,.39-1.1,.13-.49-.26-1.02-.2-1.21-.14-.18,.06-.6,.52-.95,.4-.35-.11-.6-.49-1.55,.27,0,0-.45,.14-.15-.32,.31-.46,4.33-1.96,7.67-1.76,0,0,.43,.05,.8,.48,0,0-.07-.29-.09-.41s.19-.28,.33-.25c.14,.04,2.77,.78,4.24,.71,1.47-.07,2.86,.6,2.86,.6,0,0,.22-.49,.33-.71,.12-.22,.83,.7,1.39,.66,.56-.04,2.4,.06,2.52,1.28,.12,1.23-1.1,5.94-1.93,7.42-.83,1.49-1.34,2.57-1.34,2.57,0,0,1.78,1.35,2.25,1.03,.47-.32,2.23-3.37,2.47-3.47s.86-.24,.98-.8c.12-.56,0-1.36-.19-1.6s.98-3.89,1.66-4.4c0,0,.14-.33-.46-.96-.59-.63-2.31-2.41-2.68-2.45,0,0,1.89,.44,2.79,1.16,.9,.72,1.98,1.92,2.05,2.48,.07,.56-1.02,3.53-1.54,4.11,0,0,.06,.39-.2,1-.26,.62-.87,1.12-.96,1.4s-1.6,3.08-2.65,4.1c0,0,.95,.28,1.9-.19,0,0,.2-.14,.3,.1,0,0,.81-.94,1.28-1.29,.46-.35,1.46-.41,1.86-1.02,.4-.61,.27-1.56,.58-1.9,.31-.33,1.51-2.39,1.9-2.62,.38-.24,.77-.25,.65-.59-.12-.33-1.36-2.98-1.96-3.47,0,0,0-.25,.36-.1,.37,.15,2.64,1.98,2.96,3.34,0,0,.22,.9-.33,1.66-.55,.77-1.94,2.64-2.23,2.79s-1.54,1.92-1.97,2.1-.5,.41-.66,.57c-.16,.16-3.21,2.6-4.16,3.44-.95,.83-2.5,1.69-2.4,1.92,.09,.23,.01,1.08,.8,.87,.79-.21,.9-.77,2.63-1.17,1.73-.4,6.27-1.75,6.65-1.68,.38,.07,.43,.19,.71,.13,.28-.07,3.3-1.05,3.85-.81s.58,.42,.77,.4c.19-.01,3.15,1.63,4.4,3.27,0,0,.17,.46-.55,.14-.72-.31-3.88-1.73-4.17-2.2,0,0-2.97,1.28-5.41,.7,0,0-5.84,2.05-6.52,1.99,0,0,2.12,.15,2.28,.39,.16,.24,1.2-.17,1.7,.45,.5,.63,.59,1.32,.45,1.6,0,0,2.94,1.49,3.11,2.11,.17,.62,.06,.82,.37,1.06,.31,.24,2.28,3.4,.26,5.09-2.02,1.69-2.79-1.6-2.89-2.11-.09-.5,0-1.04,0-1.04,0,0-3.52-3.04-3.65-3.58-.12-.54-.39-1.15-.39-1.15,0,0-2.86,1.41-4.37,.05l-1.78,.73s-6.17,3.57-8.72,3.5c0,0-1.01,.8-1.81,.8,0,0,.28,.91-.74,1.48-1.01,.57-2.47,1.14-2.95,.98,0,0,.86,1.79,.41,3.02-.45,1.24-.26,2.5-.18,2.69,.08,.19,1.98,1.81,1.89,3.22-.09,1.41-3.72,2.06-5.27-1.9l-.39-1.02,.43-.27s-.4,.15-.57-.23c-.17-.38,.63-2.24,1.04-2.61,0,0-.23-.51-.14-.73,.09-.21,.85-.65,.85-.65,0,0-1.01-.48-1.16-1-.15-.51,.38-1.56,.59-1.69s.81-.28,.81-.28l-.05-.82s-4.29,1.79-5.07,1.59c0,0-2.2,2.11-4.25,2.56,0,0-1.86,3.63-1.75,4.7,0,0-.39-.14-.33-.73,.06-.58,.31-4.21,.71-4.82,0,0,.11-.2,.34-.19,0,0-.15-.59,.48-1.04,.63-.45,2.76-1.4,3.09-1.52,.33-.12,.28-.51,.68-.68,.4-.16,1.74-.77,1.85-.74,.11,.03,.53-.26,1.46-.42,.93-.15,3.44-1.07,3.85-1.12,.41-.06,2.23-.05,2.62,.14,0,0,.04-1.2-.93-1.15-.97,.05-4.65-.22-5.48-.07-.83,.15-5.87-.7-6.06-1-.19-.31-.75,0-1.19-.14-.44-.14-3.14-1.09-3.23-1.3-.08-.21-.06-.47-.06-.47,0,0-1.84-3.48-1.01-4.74,0,0,1.77,3.27,1.87,3.64s.39,.24,.71,.25c.32,.01,3.46,.95,3.97,1.39,.5,.45,.57,.88,1.4,.97,.83,.09,2.86,.48,3.6,.25,.74-.22,1.11-1.06,1.11-1.06,0,0-4.09-.87-5.23-1.32-1.14-.46-1.88-1.24-2.09-1.38-.21-.14-3.41-1.7-3.59-2.14-.18-.44-.08-4.45,2.38-6.17,0,0-1.24,3.71-.97,4.7,0,0,3.44,2.1,3.88,2.9,.44,.79,.77,1.22,1.14,1.19,.37-.02,1.38-.1,2.4,.18,1.03,.28,2.1,.56,2.1,.56l.21,.15s.48-1.98,.98-2.4c0,0-6.71-2.25-7.34-3.33,0,0-.37-.39,0-.76,0,0-.75,.12-.8-.52-.05-.63,1.16-1.85,1.46-2.53,.3-.68,.32-1.09,.54-1.1,.22,0,.9,.41,1.28,.12,.37-.3,3.28-2.74,3.57-3.63,0,0,.04-.18,.23-.22,.19-.05,.18,.36,.55,.21,.37-.15,2.81-1.74,6.37-2.49,0,0,1.41-.42,2.02,.07,0,0-.09,.28-.34,.25-.25-.03-.9-.05-1.37,.19-.48,.24-.48,.53-.67,.59-.18,.06-.62-.18-.92,.02-.3,.2-.35,.51-.58,.64s-.57-.06-.74-.02c-.18,.04-.41,.25-.59,.43-.18,.18-1.07,.73-1.32,.83-.25,.1-.93,.49-.93,.49,0,0,.47-.1,1.26-.42s1.11-.26,1.24-.51c.14-.25,.07-.38,.29-.42,.22-.04,.81,.13,1.15-.1,.35-.24,.28-.59,.42-.6,.14,0,.67,.2,.96,0,.29-.2,.33-.37,.63-.45,.3-.08,1.22-.1,1.51-.44,.29-.34,.33-.29,.33-.29,0,0,.38,.19-.49,.98-.87,.79-4.66,2.83-5.66,3.21-1,.37-1.75,.94-2.3,1.32s-4.38,2.67-4.74,3.39c-.36,.72,1.09,.13,1.28,.2s.19,.61,.82,.96c.64,.35,1.07-.02,1.3,.01,.22,.04,.29,.78,.84,.92,.55,.14,.88-.14,1.07-.07,.19,.07,.28,.92,.94,.97h0Zm9.29-6.19c.29,.02,.51,.32,.48,.67-.02,.35-.27,.63-.56,.61s-.51-.32-.48-.67,.27-.63,.56-.61h0Zm-7.87,3.16c.24-.17,.59-.06,.8,.23,.2,.29,.18,.66-.06,.83-.24,.17-.59,.06-.8-.23-.2-.29-.18-.66,.06-.83h0Z"/>
  </g>
</svg>