<?xml version="1.0" encoding="UTF-8"?>
<svg id="Layer_2" data-name="Layer 2" xmlns="http://www.w3.org/2000/svg" viewBox="0 0 82.06 63.92">
  <defs>
    <style>
      .cls-1 {
        fill: #808080;
      }
    </style>
  </defs>
  <g id="Layer_1-2" data-name="Layer 1">
    <path class="cls-1" d="M.36,33.23c.55-.9,1.7-1.23,2.75-1.32,2.72-.24,5.52,.64,7.62,2.39,.68-3.49,2.4-6.82,4.82-9.5,2.82-6.01,8.22-10.26,13.74-13.78,1.23-1.36,1.93-3.05,1.95-4.76,.02-1.71-.64-3.42-1.8-4.67-.3-.33-.67-.76-.46-1.16,.14-.28,.51-.37,.82-.4,2.02-.21,4.32,.56,5.16,2.41,.25,.54,.35,1.14,.58,1.69,.55,1.31,1.76,2.22,2.95,3,1.98,1.31,4.07,2.47,5.95,3.92,1.88,1.45,3.59,3.22,4.52,5.41,.56,1.31,.72,3.06-.38,3.96,2.13,1.05,4.39,2.27,6.98,2.31,2.08,.09,3.98-1.07,5.97-1.66,1.98-.58,4.09-.59,6.12-.97,4.61-.87,8.71-3.62,13.37-4.25,.56-.05,1.02,.53,1.05,1.09,.03,.56-.25,1.09-.52,1.59-1.09,1.95-2.32,3.82-3.54,5.69-.81,1.24-1.61,2.48-2.41,3.72-1.42,2.2-2.85,4.44-3.65,6.94-.59,1.87-.81,3.86-.64,5.82,.22,2.56,1.1,5.01,1.65,7.52,.55,2.51,.75,5.23-.32,7.57-.33,.72-.84,1.43-1.56,1.63-2.07-.83-3.43-2.79-4.67-4.64-2.71-4.03-5.48-8.07-8.92-11.5-1.64-1.63-3.45-3.14-5.54-4.12-2.09-.98-4.51-1.42-6.73-.8,.8,.36,1.29,1.22,1.43,2.08,.14,.86-.01,1.75-.2,2.6-.33,1.53-.74,3.06-1.47,4.44-.25,.48-.56,.96-1.01,1.25-1.03,.66-2.39,.18-3.44-.45-2.02-1.21-3.75-2.91-5.15-4.84-.67,2.84-1.96,5.54-3.82,8,2.66-.42,5.35-.72,8.04-.9,.51-.03,1.05-.06,1.53,.13,.66,.26,1.09,.88,1.35,1.55,.64,.26,1.38,.67,1.4,1.36,0,.32-.15,.61-.32,.88-1.21,1.97-3.14,3.5-5.35,4.22-2.2,.73-4.66,.65-6.65-.13,.42,.77,1.09,1.4,1.88,1.78,.58,.28,1.25,.44,1.65,.94,.25,.31,.36,.71,.38,1.11,.12,1.66-1.23,3.3-2.88,3.5-1.58,.19-3.1-.81-4.04-2.1-.93-1.29-1.41-2.84-1.96-4.33-.55-1.49-1.24-3-2.64-3.81-.87,.74-2.08,.93-3.23,1.04-.66,.07-1.33,.12-1.98-.02-.52-.12-1-.36-1.47-.59l-1.47-.74c-.44-.22-.91-.47-1.16-.72-.82,.58-1.51,1.34-2,2.21-.28-.16-.27-.57-.2-.88,.2-.93,.52-1.83,.95-2.68-1.85-1.47-3.07-3.71-3.41-5.78-1.44-2.06-3.76-3.26-5.82-4.7C2.07,39.36,.09,37.35,0,34.84c-.02-.56,.07-1.13,.36-1.61Z"/>
  </g>
</svg>