<?xml version="1.0" encoding="UTF-8"?>
<svg id="Layer_2" data-name="Layer 2" xmlns="http://www.w3.org/2000/svg" viewBox="0 0 81.73 50.55">
  <defs>
    <style>
      .cls-1 {
        fill: #808080;
      }
    </style>
  </defs>
  <g id="Layer_1-2" data-name="Layer 1">
    <path class="cls-1" d="M79.85,31.25c.98,3.26,2.09,6.96,1.35,8.68-.17,.4-.49,.64-.93,.7-.07,0-.14,.01-.21,.01-2.83,0-9.82-6.67-10.38-7.37-.18-.23-.55-.37-1.03-.39-.85-.03-2.18,.34-3.58,1.39,1.82,.64,3.32,1.88,3.99,3.32,.44,.95,.47,1.89,.09,2.72-.41,.9-1.16,1.44-2.12,1.52-.08,0-.16,0-.24,0-1.04,0-2.15-.53-2.66-1.29-.64-.96-2.77-2.1-3.36-2.4-.53,.43-1.1,.87-1.72,1.33,1.51,.49,4.66,2.01,5.55,3.97,.64,1.41,.67,3.4,.08,4.96-.36,.96-.92,1.62-1.6,1.93-.33,.15-.71,.21-1.12,.21-1.17,0-2.62-.51-4.03-1.01-.93-.33-1.8-.64-2.52-.76-2.04-.37-4.92-3.14-5.51-3.72-2.64,1.29-5.48,2.4-8.4,3.13-.01,0-2.4,.7-3.76,.99-2.35,.51-8.31,1.15-8.57,1.18-.89,.1-1.8,.14-2.72,.14-6.48,0-13.27-2.09-13.35-2.11-.4-.14-9.6-3.42-11.01-5.65-.45-.71-.55-1.29-.29-1.72,.12-.2,.29-.33,.49-.43-.86-.3-1.86-.9-2.21-2.06-.45-1.52,.92-3.06,2.51-4.86,.7-.78,1.42-1.6,2.08-2.49,1.6-2.18,6.49-7.84,10.78-11.79,.03-.05,.07-.08,.11-.11,1.21-1.11,2.37-2.08,3.39-2.79,2.45-1.7,5.68-3.48,9.64-4.65,.32-.19,19.24-11.83,31.81-11.83h.01c1,0,1.91,.58,2.33,1.47,.28,.59,.51,1.31,.68,2.14,.21,.96,1.05,1.82,2.04,2.8,1.61,1.62,3.62,3.64,3.1,6.98-.65,4.2-4.34,5.25-5.87,5.5,.99,.78,1.92,1.56,2.82,2.35,.02,.02,.16,.12,.39,.25,.02,0,.05,.02,.07,.02,.04,.01,.07,.04,.1,.06,.87,.42,2.61,.87,4.18-1.09,2.21-2.76,8.8-7.07,10.68-7,.36,.01,.54,.17,.62,.3,.49,.74-.22,3.1-1.46,6.91-.68,2.09-1.38,4.26-1.46,5.31-.08,1,.54,3.06,1.2,5.23Z"/>
  </g>
</svg>