<?xml version="1.0" encoding="UTF-8"?>
<svg id="Layer_2" data-name="Layer 2" xmlns="http://www.w3.org/2000/svg" viewBox="0 0 108.14 54.64">
  <defs>
    <style>
      .cls-1 {
        fill: #808080;
      }
    </style>
  </defs>
  <g id="Layer_1-2" data-name="Layer 1">
    <path class="cls-1" d="M1.83,24.69s6.88-6.88,11.31-10.09c4.44-3.21,8.55-8.23,17.93-6.94,0,0,6.68-10.16,8.81-7.07,2.12,3.09,6.36,7.58,8.23,7.91,0,0-.13,1.16,2.44-.26,2.57-1.41,13.31-8.87,18.9-7.46,0,0-9.77,4.69-8.68,7.52,1.09,2.83,5.85,1.35,5.85,1.35,0,0-.43,2.23,1.71,3.09,2.14,.86-.51,1.67,3.17,2.49,3.69,.81-.94,1.2,3.26,2.14,4.2,.94-1.71,.6,3.34,1.54,5.06,.94-3.64,.26,2.91,2.1,6.56,1.84-2.53,2.19,4.41,2.91,6.94,.73-1.41,2.36,1.2,3.09,2.61,.73,4.8-.21,4.8-.21,0,0,8.87-14.51,16.71-14.7,0,0-6.56,14.66-12.08,17.93,0,0,3.86,2.89,5.72,8.42,1.86,5.53,8.16,8.1,5.08,8.36-3.09,.26-9.06-4.11-11.63-8.16-2.57-4.05-7.07-5.53-7.07-5.53,0,0-12.21,11.51-19.86,14.21-7.65,2.7-1.22,7.33-1.22,7.33,0,0-14.66-3.41-19.22-8.68,0,0-12.34-.19-15.17-1.41,0,0,.13,1.22,2.76,2.31,0,0-1.86,1.35-1.74,1.99,0,0-1.22,2.25-.58,3.99,0,0-7.78-4.18-11.06-9.32,0,0-18.96-2.12-22.05-12.6,0,0-.71-3.54,4.76-1.22,0,0-4.32-3.68-2.96-5.01Z"/>
  </g>
</svg>