<?xml version="1.0" encoding="UTF-8"?>
<svg id="Layer_2" data-name="Layer 2" xmlns="http://www.w3.org/2000/svg" viewBox="0 0 149.33 52.04">
  <defs>
    <style>
      .cls-1 {
        fill: #808080;
        fill-rule: evenodd;
      }
    </style>
  </defs>
  <g id="Layer_1-2" data-name="Layer 1">
    <path class="cls-1" d="M0,19.73c-.07-.5,.5-1.1,.85-1.35,.4-.28,.95-.48,1.44-.72,.47-.23,.93-.47,1.39-.72,.97-.51,2.1-.78,3.19-1.08,2.13-.59,4.32-1.41,6.38-2.16,2.23-.81,4.47-1.22,6.7-1.84,1.13-.31,2.31-.55,3.46-.81,1.2-.26,2.42-.36,3.6-.67,.27-.07,.46-.14,.54-.36,.07,.29,.15,.2,.27,.22,.33,.06,1.68-.28,2.11-.36,2.02-.37,4.06-.99,6.11-1.12,.77-.05,1.56,.01,2.34-.04,2.17-.16,4.55-.34,6.83-.45,3.2-.15,6.38,.03,9.57-.05,2.27-.05,4.82-.11,7.15,0,.78,.04,1.69,.2,2.34,.09,.47-.08,1.07-.8,1.48-1.12,3.01-2.33,5.95-4.18,9.57-5.89,.94-.44,1.74-.91,2.79-1.21,1.32-.38,2.3,.59,3.15,.9,.02,.26,.17,.5,.32,.75,.31,.45,.54,.95,.72,1.48,.67,1.45,1.33,2.94,2.29,4.24,.47,.64,1.2,1.23,1.26,2.07,.04,.58-.21,1.12-.27,1.62,5.89,1.56,12.06,2.83,17.75,4.58,1.53-.76,3.06-2.88,5.71-2.52,1,.14,2.51,.87,2.38,2.25-.07,.76-.82,1.3-.85,2.16,3.67,.75,7.48,1.7,11.51,2.16,.7,.08,1.39,.04,2.11-.09,.64-.12,1.32-.17,1.93-.31,.57-.13,1.17-.55,1.71-.81,.59-.28,1.23-.46,1.8-.72,.71-.33,1.52-.9,2.2-1.44,2.03-1.59,4.18-3.13,6.29-4.63,1.42-1.01,2.79-2.08,4.4-2.88,1.62-.8,3.4-1.62,5.53-1.66,.33,.73,.16,1.64,.09,2.47-.2,2.58-.41,5.16-.63,7.73-.22,2.51-.36,5.22-.36,8,0,.45,.02,.9,.05,1.35,.02,.37-.03,.85,.27,1.12-.24,.51-.08,1.13,0,1.66,.23,1.57,.52,3.25,.76,4.9,.16,1.1,.35,2.15,.59,3.19,.12,.52,.12,1.1,.27,1.62,.14,.48,.43,.99,.09,1.44-.94,.24-1.91-.25-2.6-.45-.56-.16-1.14-.19-1.66-.31-3.59-.89-6.75-2.25-9.84-3.87-1.67-.87-3.24-2.02-4.77-3.06-.74-.5-1.54-1.03-2.29-1.62-.77-.6-1.52-1.22-2.38-1.53-1.88-.68-4.65-.85-6.97-.76-1.14,.04-2,.63-2.88,.9,.81,.19,1.52,.49,1.89,1.12,.09,1.12-.17,1.78-.67,2.43-.48,.63-1.25,.91-1.89,1.48-.59,.53-1.24,1.09-1.57,1.75-.81,1.65-.28,4.78-1.66,5.75-.88,.62-2.48,.63-3.91,.54-4.15-.25-7.95-1.68-11.1-2.79-4.43,1.99-8.8,4.04-14.88,4.38,.68,.33,1.3,.8,1.88,1.4,.16,.16,.32,.33,.48,.51,.33,.28,.64,.57,.92,.85,.52,.52,.98,.9,1.26,1.53,.12,.27,.14,.69,.27,1.08,.09,.26,.33,.58,.27,1.03-.06,.48-.44,.57-.67,.94-4.67-.2-8.3-2.37-11.46-4.63-.78-.56-1.54-1.05-2.25-1.8-.26-.27-.43-.66-.63-.72-.38-.12-1.21-.04-1.84-.04-1.79-.01-3.65-.09-5.35-.22-2.43-.19-4.88-.02-7.19-.13-4.7-.24-9.28-.73-13.57-1.3-4.62-.62-8.63-1.18-12.72-2.16-2.98-.71-5.82-1.62-8.54-2.65-.88-.34-1.8-.77-2.7-.99-.37-.09-.85-.09-1.17-.18-.45-.13-.94-.44-1.44-.67-2.32-1.08-4.57-2.47-6.88-3.55-2.87-1.34-4.87-3.23-6.92-5.57-.66-.76-1.23-1.42-1.98-2.2-.49-.51-1.71-1.58-1.71-2.43,0-.44,.37-1.12,.99-1.03,.25,.03,.29,.21,.36,.42,.57,.25,1.01,.7,1.47,1.12,.48,.19,.99,.37,1.36,.62-.71-1.17-1.91-2.18-3.1-3.19-.34-.29-1.06-.58-1.12-.99Z"/>
  </g>
</svg>