<?xml version="1.0" encoding="UTF-8"?>
<svg id="Layer_2" data-name="Layer 2" xmlns="http://www.w3.org/2000/svg" viewBox="0 0 88.4 42.91">
  <defs>
    <style>
      .cls-1 {
        fill: #808080;
      }
    </style>
  </defs>
  <g id="Layer_1-2" data-name="Layer 1">
    <path class="cls-1" d="M.42,24.67C6.37,16.21,25.28,6.12,42.57,7.92,51.21,1.62,55.71,0,55.71,0c0,0,7.38,7.2,6.12,13.69-3.24,1.62-8.82-.54-8.82-.54,0,0,7.74,4.5,12.97,3.96,5.22-.54,17.29-15.67,19.45-10.27,.18,5.94-2.34,12.43-1.08,13.87s7.38,8.28,1.62,9.73c-5.76,1.44-15.85-5.58-19.99-3.78-4.14,1.8-5.58,3.06-5.58,3.06,0,0,5.4-1.08,7.38-1.26,1.98-.18-1.8,20.71-20.71,6.12-1.98,.18-4.5,.36-4.5,.36,0,0,6.66,3.6,4.86,5.76-1.8,2.16-5.76,5.22-12.43-4.68C20.59,36.74-3.48,30.24,.42,24.67Z"/>
  </g>
</svg>