<?xml version="1.0" encoding="UTF-8"?>
<svg id="Layer_2" data-name="Layer 2" xmlns="http://www.w3.org/2000/svg" viewBox="0 0 120.94 46.35">
  <defs>
    <style>
      .cls-1 {
        fill: #808080;
      }
    </style>
  </defs>
  <g id="Layer_1-2" data-name="Layer 1">
    <path class="cls-1" d="M2.17,24.2c10.19-5.14,19.78-11.82,31.63-12.91,1.61-.15,3.26-.61,4.82-.39,5.57,.75,9.12-2.24,12.34-6.13,1.2-1.45,2.5-2.85,3.96-4.02,1.34-1.07,2.66-1.21,3.29,1.01,.62,2.19,1.34,4.18,.74,6.65-.95,3.93-.13,4.98,3.74,6.08,6.75,1.92,13.51,3.79,20.3,5.57,1.81,.47,3.73,.51,5.6,.75,5.89-.05,11.2-1.75,16.01-5.07,3.33-2.3,6.62-4.66,9.97-6.94,1.22-.83,2.5-1.63,3.86-2.21,2.09-.89,2.71-.39,2.42,1.82-.5,3.85-2.26,7.11-4.74,10.06-2.06,2.45-1.84,3.01,.56,5.11,1.39,1.21,2.57,2.74,3.53,4.32,.56,.91,.52,2.2,.75,3.32-1.02,.11-2.06,.39-3.05,.29-5.22-.55-10.43-1.21-15.64-1.82-.4-.05-.81,0-1.21,0-4.2,.09-4.41,.31-4.18,4.37,.41,7.25,.2,7.4-6.53,4.53-.74-.32-1.53-.59-2.2-1.03-5.67-3.68-11.59-2.41-17.51-.89-.72,.19-1.8,.7-1.91,1.23-.86,4.18-5.09,4.88-7.51,7.41-1.61,1.68-3.55,1.23-4.89-.55-1.21-1.61-2.35-3.34-3.12-5.18-.82-1.96-2.06-2.54-4.06-2.51-4.46,.07-8.94,.24-13.36-.16-3.68-.33-5.78,1.11-7.4,4.2-1.51,2.88-2.11,2.84-4.22,.33-.09-.1-.2-.2-.25-.32-1.77-4.86-5.93-5.81-10.38-6.8-3.76-.84-7.41-2.37-10.96-3.94-3.22-1.42-3.46-4.62-.39-6.17Z"/>
  </g>
</svg>