<?xml version="1.0" encoding="UTF-8"?>
<svg id="Layer_2" data-name="Layer 2" xmlns="http://www.w3.org/2000/svg" viewBox="0 0 95.61 36.61">
  <defs>
    <style>
      .cls-1 {
        fill: #808080;
      }
    </style>
  </defs>
  <g id="Layer_1-2" data-name="Layer 1">
    <path class="cls-1" d="M77.84,22.49c-.92,2.51-2.74,4.07-4.86,5.44-2.88,1.86-5.76,3.64-9.01,4.91-2.99,1.17-5.79,2.86-9.05,3.21-2.5,.26-5.02,.38-7.53,.5-7.12,.31-14.22-.57-21.35-.5-7.27,.08-14.34-1.78-21.11-4.55-.57-.23-1.12-.52-1.65-.83-4.66-2.67-3.84-5.89-.65-9.81,.43-.53,1.09-.93,1.38-1.52,3.01-6.2,8.35-9.09,14.8-10.17,3.63-.61,7.34-.77,10.28-1.06,2.46,.15,4.15,.27,5.84,.35,.53,.03,1.14,.11,1.59-.11,3.12-1.53,6.21-.36,9.26,.11,2.35,.36,4.63,1.68,6.93,1.66,2.57-.03,4.69,1.27,6.97,1.48,2.27,.21,4.22,1.46,6.49,1.38,1.27-.04,2.55,.09,3.82,.24,2.2,.26,4.39,.64,6.6,.9,.83,.1,1.69,.03,2.53-.05,1.36-.13,2.2-.76,2.98-2.07,2.01-3.36,4.32-6.55,6.63-9.71,.66-.9,1.7-1.57,2.68-2.15,.41-.24,1.3-.16,1.64,.14,.29,.25,.22,1.08,.08,1.59-.37,1.39-.63,2.88-1.34,4.09-1.6,2.72-2.26,5.74-2.87,8.72-.27,1.31,.3,3,.97,4.26,.91,1.7,1.38,3.77,3.23,4.86-.05,2.21,1.94,3.54,2.39,5.52,.12,.54,.17,1.51-.08,1.65-.51,.27-1.41,.35-1.87,.06-1.42-.88-2.85-1.84-4-3.03-1.16-1.2-1.94-2.77-3-4.09-.86-1.07-1.8-2.11-2.84-3-2.44-2.09-4.74-1.52-5.87,1.57Z"/>
  </g>
</svg>