<?xml version="1.0" encoding="UTF-8"?>
<svg id="Layer_2" data-name="Layer 2" xmlns="http://www.w3.org/2000/svg" viewBox="0 0 72.49 50.99">
  <defs>
    <style>
      .cls-1 {
        fill: #808080;
      }
    </style>
  </defs>
  <g id="Layer_1-2" data-name="Layer 1">
    <path class="cls-1" d="M70.82,19.97c2.75-.22,1.27,1.84,1.27,1.84-.34,.34-2.36,2.36-2.36,2.36-1.92,3.12-2.56,2.84-2.56,2.84-.36-.36,.34-1.07,.34-1.07,0-.58-1.07-.45-1.07-.45-.51-.26-.15-1.15-.15-1.15-.81,.53-.15,1.42-.15,1.42,.7,0,.9,.38,.9,.38-.23,1.15-1.78,1.96-1.78,1.96-1.36,1.36-6.76,2.31-6.76,2.31-4.52,.29-8.01,3.46-8.01,3.46,3.55-2.34,7.75-2.91,7.75-2.91v1.25c.38,9.35-1.63,12.33-1.63,12.33-.83,2.18-2.53,.32-2.53,.32-2.8-2.8-7.62-5.03-7.62-5.03-4.29-2.11-10.95-.74-10.95-.74,.51-.96,2.05-1.63,2.05-1.63-1.92,.38-3.7,2.58-5.44,4.32-1.75,1.75-4.45-.86-4.45-.86-2.05-1.38-.38-2.24-.38-2.24,1.22-.19,3.04-1.28,3.04-1.28-1.28,.8-3.91,.86-3.91,.86l-4.42,2.1C19.64,41.25,.23,50.99,.23,50.99c-.41,0-.15-.34-.15-.34,1.92-.77,24.76-12.81,24.76-12.81,0-.99,.99-1.51,.99-1.51,4.45-1.09,8.29-3.97,8.29-3.97-.58,.58-4.8,2.47-4.8,2.47,0-1.63,1.31-1.35,1.31-1.35-1.31-2.47,.45-6.34,.45-6.34,0-1.47,12.68-26.39,12.68-26.39,2.05-4.68,12.34,13.98,12.34,13.98,3.75,5.29,6.41,3.5,6.41,3.5,3.93-.94,4.4,1.75,4.4,1.75,.66-.39,3.92-.02,3.92-.02Z"/>
  </g>
</svg>