<?xml version="1.0" encoding="UTF-8"?>
<svg id="Layer_2" data-name="Layer 2" xmlns="http://www.w3.org/2000/svg" viewBox="0 0 47.68 64.04">
  <defs>
    <style>
      .cls-1 {
        fill: #808080;
      }
    </style>
  </defs>
  <g id="Layer_1-2" data-name="Layer 1">
    <path class="cls-1" d="M47.64,64.04c-.03-.3-.05-.61-.08-.91-.05-.56-.1-1.13-.17-1.69-.06-.51-.13-1.02-.22-1.52-.16-.89-.31-1.78-.51-2.66-.26-1.09-.56-2.18-.88-3.25-.39-1.31-.88-2.59-1.43-3.85-.57-1.32-1.2-2.61-1.92-3.85-.43-.74-.87-1.49-1.34-2.21-.75-1.14-1.54-2.26-2.43-3.3-.6-.7-1.22-1.39-1.84-2.08-.29-.32-.6-.64-.92-.94-.41-.39-.83-.76-1.25-1.15-.34,.42-.79,.53-1.29,.49-.05,0-.12,.01-.16,.05-.59,.44-1.25,.74-1.93,.99-.9,.32-1.8,.65-2.72,.91-1.34,.39-2.7,.74-4.06,1.1-1.32,.34-2.65,.64-3.96,1.02-1.86,.53-3.69,1.17-5.46,1.95-1.2,.52-2.36,1.12-3.46,1.82-.74,.47-1.44,1.01-2.12,1.57-1.02,.85-2.07,1.68-3.2,2.39-.73,.46-1.46,.91-2.22,1.31-.5,.26-1.05,.43-1.58,.61-.22,.07-.47,.05-.71,.05-.06,0-.13-.1-.19-.15,.05-.05,.1-.14,.16-.16,1.01-.26,1.62-.95,2.02-1.87,.26-.61,.35-1.26,.48-1.9,.16-.84,.3-1.67,.44-2.51,.16-.96,.31-1.93,.45-2.89,.15-.99,.3-1.97,.45-2.96,.1-.68,.2-1.36,.31-2.04,.13-.83,.26-1.66,.38-2.49,.15-1.08,.16-2.17,.09-3.25-.06-.99-.22-1.98-.64-2.9-.23-.51-.54-.96-.97-1.31-.29-.23-.55-.49-.83-.73-.05-.04-.11-.07-.17-.08-.36-.06-.63-.38-.67-.74-.02-.22-.1-.43-.17-.65-.08-.27,.02-.48,.24-.69-.27-.16-.54-.31-.81-.47-.49-.29-.99-.56-1.45-.89-.52-.38-.82-.92-.89-1.57-.03-.24-.03-.5,0-.74,.03-.23,.19-.32,.43-.33,.45-.02,.85,.17,1.21,.39,.86,.51,1.71,1.04,2.56,1.58,.56,.36,1.12,.33,1.69,.03,.58-.31,1.06-.75,1.45-1.26,.18-.23,.26-.54,.39-.81,.42-.85,.92-1.66,1.54-2.38,.26-.3,.57-.56,.84-.85,.14-.16,.27-.33,.37-.52,.26-.53,.5-1.07,.57-1.66,.05-.38,0-.74-.37-.96-.4-.24-.8-.47-1.2-.7-.67-.37-1.29-.81-1.73-1.45-.34-.49-.58-1.02-.61-1.63-.01-.35,.19-.54,.54-.55,.41,0,.79,.13,1.16,.29,1.07,.46,2.05,1.07,2.95,1.8,.02,.02,.05,.03,.08,.05,.21-.31,.53-.34,.86-.31,.09,0,.19-.01,.28-.04,.46-.16,.94-.04,1.2,.42,.02,.04,.06,.07,.09,.09,.44,.22,.88,.45,1.33,.65,.35,.16,.73,.23,1.12,.25,1.34,.06,2.59-.3,3.8-.81,.63-.27,1.23-.6,1.84-.93,.96-.52,1.92-1.05,2.87-1.6,1.35-.78,2.71-1.58,4.04-2.39,1.4-.86,2.78-1.75,4.09-2.75,.66-.51,1.31-1.04,1.95-1.58,.49-.41,.93-.87,1.31-1.38,.13-.17,.24-.34,.37-.54,.28,.09,.51,.26,.71,.48,.46,.5,.68,1.1,.76,1.78,.09,.76-.03,1.5-.19,2.23-.21,.96-.44,1.92-.65,2.89-.25,1.12-.49,2.25-.71,3.38-.16,.84-.3,1.69-.43,2.54-.12,.8-.23,1.61-.34,2.41-.05,.4-.08,.81-.11,1.22-.04,.48-.08,.97-.12,1.45-.01,.14-.02,.28-.02,.43-.02,1.08-.05,2.15-.05,3.23,0,.59,.04,1.19,.09,1.78,.05,.65,.13,1.29,.19,1.94,.04,.45,.07,.89,.09,1.34,.03,1.15,.08,2.31,.07,3.46,0,1.02-.1,2.04-.42,3.01-.06,.17-.13,.34-.22,.49-.09,.16-.12,.31-.08,.49,.13,.55,.06,1.06-.29,1.51,0,0,0,.02,0-.01,.74,.71,1.49,1.38,2.19,2.1,.89,.91,1.71,1.89,2.49,2.9,1.11,1.46,2.11,3,2.99,4.62,.79,1.44,1.49,2.92,2.06,4.46,.39,1.07,.73,2.15,1.07,3.24,.38,1.22,.65,2.47,.87,3.72,.14,.77,.25,1.55,.34,2.32,.09,.78,.15,1.57,.21,2.35,.04,.51,.05,1.02,.07,1.53,.01,.25,.03,.5,.04,.74-.02,0-.03,0-.05,0Z"/>
  </g>
</svg>