<?xml version="1.0" encoding="UTF-8"?>
<svg id="Layer_2" data-name="Layer 2" xmlns="http://www.w3.org/2000/svg" viewBox="0 0 128.87 56.12">
  <defs>
    <style>
      .cls-1 {
        fill: #808080;
      }
    </style>
  </defs>
  <g id="Layer_1-2" data-name="Layer 1">
    <path class="cls-1" d="M58.14,.01c.2,.05,.34,.19,.31,.33-.03,.13-.22,.2-.42,.16-.2-.05-.34-.19-.31-.33,.03-.13,.22-.2,.42-.16Zm1.6,.47c-.06,.16,.06,.35,.28,.43,.22,.08,.44,.03,.5-.13,.06-.16-.06-.35-.28-.43-.22-.08-.44-.03-.5,.13Zm2.14,.61c0,.12,.08,.2,.24,.24,.16,.05,.28,.05,.37,.01,.05-.02,.09-.06,.12-.11,.07-.12,.02-.27-.1-.34-.14-.08-.27-.11-.4-.09-.16,.03-.24,.12-.23,.28Zm2.04,.53c0,.14,.11,.25,.25,.25s.25-.11,.25-.25-.11-.25-.25-.25-.25,.11-.25,.25Zm2.3,.97s.04-.03,.05-.04c.06-.08,.05-.19-.02-.25-.25-.21-.43-.27-.55-.2-.02,.01-.04,.03-.05,.05-.09,.1-.08,.25,.02,.34,.19,.17,.38,.2,.55,.11Zm-19.34,9.19h.26c.38-.03,.67-.19,.88-.51,1.99-2.95,4.1-5.83,6.33-8.63,.25-.31,.17-.47-.23-.46h-.23c-.34,0-.62,.15-.83,.42-2.15,2.68-4.29,5.61-6.41,8.79-.19,.28-.11,.42,.23,.4Zm1.63-.17c.02,.13,.13,.22,.26,.2l1.19-.15c.06,0,.12-.04,.16-.09l6.7-8.96s.05-.11,.04-.17c-.02-.13-.14-.21-.26-.19l-1.31,.2c-.06,0-.12,.04-.16,.09l-6.57,8.92s-.05,.11-.04,.16Zm3.24-9.18c-.21,.04-.47,.25-.8,.63-2.17,2.53-4.25,5.29-6.23,8.26-.17,.26-.1,.4,.21,.4h.42c.25,0,.45-.1,.6-.3,1.96-2.81,3.91-5.76,6.12-8.45,.41-.49,.3-.67-.33-.55Zm7.03,1.04c.07-.09,.11-.19,.11-.31,0-.37-.1-.57-.31-.62-.45-.09-.79,0-1.02,.29-2.22,2.79-4.39,5.6-6.51,8.43-.28,.37-.19,.57,.28,.58h.23c.43,.03,.77-.13,1.03-.47l6.19-7.91Zm1.21-.54l-6.81,8.69s-.05,.09-.04,.14c0,.11,.1,.19,.21,.18l1.15-.07c.06,0,.11-.03,.14-.08l6.54-8.39s.03-.05,.04-.07c.03-.11-.04-.21-.14-.24l-.88-.24c-.08-.02-.16,0-.21,.07Zm-13.26,2.63c-1.36,2.1-2.73,4.11-4.11,6.05-.2,.27-.13,.38,.21,.33l.5-.08c.33-.05,.62-.24,.81-.52,1.81-2.8,3.72-5.48,5.73-8.03,.23-.3,.17-.38-.18-.25-1.36,.51-2.11,1.2-2.95,2.5Zm21.05-1.93c.13,.12,.23,.1,.31-.05,.09-.15,.07-.3-.06-.45-.02-.03-.05-.05-.08-.06-.1-.03-.2,.02-.23,.12-.06,.2-.04,.34,.06,.44Zm-11.68,8.64c.45,.11,.82-.02,1.1-.38l5.81-7.46c.19-.24,.16-.59-.06-.81-.13-.13-.31-.19-.54-.21-.18,0-.35,.07-.47,.21l-6.31,7.92c-.27,.34-.19,.56,.22,.66,.08,.02,.17,.04,.25,.06Zm13.55-8.19c-.12,.08-.14,.27-.04,.42,.1,.15,.28,.21,.4,.13,.12-.08,.14-.27,.04-.42-.1-.15-.28-.21-.4-.13Zm-7.59,2.53c-1.49,2.07-2.91,3.92-4.26,5.55-.29,.35-.21,.53,.25,.53h.44c.4,0,.77-.17,1.02-.49l5.58-7.16s.04-.05,.05-.08c.13-.25,.03-.56-.22-.69-.4-.21-.75-.15-1.06,.17-.65,.68-1.25,1.4-1.8,2.17Zm-15.9-1.06c.62-1.01,.49-1.13-.42-.36-2.23,1.89-3.91,4.33-5.69,6.68-.02,.03-.04,.07-.03,.11,0,.09,.08,.15,.17,.15,.65-.06,1.14-.24,1.46-.54,1.31-1.21,2.3-3.09,3.58-4.75,.42-.54,.72-.97,.92-1.28Zm14.13,7.5l.25,.04c.42,.06,.76-.07,1.02-.39l5.41-6.71c.27-.34,.2-.58-.21-.72-.09-.03-.17-.06-.26-.09-.45-.15-.82-.04-1.1,.35-1.61,2.21-3.39,4.52-5.33,6.93-.27,.33-.19,.53,.23,.6Zm11.18-7.53c-.04,.09,.12,.27,.38,.39,.25,.12,.49,.15,.54,.06,.04-.09-.12-.27-.38-.39s-.49-.15-.54-.06Zm43.85,38.72s.01-.01,.02-.01c2.56,.25,5.07,.07,7.53-.52,.14-.03,.22-.17,.19-.31l-.03-.13c-.05-.24-.2-.35-.44-.32-2.99,.35-5.97,.28-8.93-.21-.05,0-.07-.04-.07-.08h0c0-.05,.03-.07,.08-.07,1.98,.1,3.96,.06,5.93-.13,.34-.03,.53-.05,.55-.06,.71-.3,.7-.57-.03-.83-.37-.13-.72-.2-1.04-.22-2.41-.16-4.83-.36-7.26-.6-.04,0-.07-.03-.06-.08h0c0-.07,.04-.1,.1-.1,2.23,.08,4.45,.08,6.67,0,.41-.02,.5-.19,.26-.53-.22-.3-.68-.48-1.39-.55-2.34-.21-4.66-.44-6.99-.7-.06,0-.08-.04-.08-.09h0c0-.06,.03-.08,.09-.08,1.9,.05,3.81,.11,5.72,.16,.34,0,.63-.02,.89-.1,.05-.02,.1-.05,.14-.1,.09-.12,.07-.29-.05-.38-.44-.33-.92-.65-1.5-.7-2.22-.2-4.43-.36-6.65-.48-.02,0-.03,0-.03-.03v-.1s.03-.07,.08-.07h6.64c.35,.02,.44-.14,.29-.45-.12-.24-.36-.44-.72-.6-.12-.05-.24-.08-.37-.09-2.44-.18-4.83-.42-7.15-.7-.02,0-.03,0-.03-.03v-.02s0-.03,.03-.03c2.21,.05,4.56,.07,7.05,.06,.03,0,.06,0,.09-.01,.15-.05,.22-.21,.17-.35l-.04-.13c-.12-.34-.36-.53-.73-.55-2.63-.18-5.15-.37-7.54-.57-.04,0-.06-.02-.05-.06h0s.02-.06,.06-.07c2.4-.04,4.77-.06,7.1-.05,.28,0,.42-.14,.42-.42v-.31c0-.27-.14-.41-.41-.43-2.44-.18-4.92-.33-7.45-.44-.05,0-.08-.03-.08-.08h0c0-.05,.02-.08,.07-.08,2.18-.04,4.41-.11,6.69-.21,.34-.02,.56-.19,.65-.52,.03-.1,.03-.2,0-.31-.04-.13-.16-.23-.3-.23-2.38-.12-4.74-.22-7.06-.31-.03,0-.05-.02-.05-.05h0s.02-.06,.06-.07c2.2-.16,4.43-.34,6.69-.54,.19-.02,.33-.17,.34-.35v-.18s.01,0,.01,0c.01-.2-.14-.37-.34-.38l-7.9-.49s-.02-.01-.02-.02c0-.01,.01-.03,.02-.03l7.57-.39c.24-.01,.43-.21,.43-.45,0-.05,0-.1,0-.15,0-.37-.18-.56-.55-.56-2.29-.02-4.58-.13-6.86-.33-.03,0-.05-.02-.05-.05h0s0-.03,.03-.03c2.32-.11,4.64-.25,6.95-.42,.29-.02,.52-.27,.52-.56,0-.04,0-.07,0-.1,0-.24-.12-.37-.36-.39-2.43-.17-4.87-.23-7.35-.18-.01,0-.02,.01-.02,.03,0,.03,0,0,0-.08,0-.02,.02-.03,.03-.03,2.62-.26,5.16-.49,7.62-.69,.22-.02,.38-.21,.36-.42,0-.04,0-.08-.01-.11-.05-.32-.24-.49-.56-.5-2.06-.1-4.12-.12-6.18-.05-.03,0-.04-.01-.04-.03v-.11s0-.03,.01-.03c2.2-.36,4.36-.52,6.49-.49,.36,0,.61-.16,.76-.48l.1-.22c.17-.37,.05-.57-.36-.59-2.07-.12-4.16-.11-6.27,.03-.04,0-.06-.02-.07-.05h0s0-.04,.03-.04c1.93-.34,4.05-.57,6.37-.71,.38-.02,.73-.17,.98-.42,.06-.06,.1-.12,.14-.19,.15-.28,.06-.44-.26-.46-1.95-.15-3.98-.16-6.09-.02-.05,0-.08-.02-.08-.08h0c0-.05,.02-.08,.07-.09,1.92-.22,3.85-.41,5.78-.56,.36-.03,.82-.17,1.37-.44,.08-.04,.14-.09,.18-.16,.1-.18,.07-.33-.1-.46-.04-.03-.09-.05-.15-.05-2.01-.13-4.03-.14-6.06-.03-.06,0-.1-.03-.1-.09h0c0-.07,.03-.1,.09-.1,2.37-.19,4.74-.43,7.1-.74,.25-.03,.42-.16,.52-.39l.12-.25c.1-.21,.03-.32-.2-.32-1.87-.02-3.73-.03-5.59-.05-.05,0-.08-.03-.08-.08h0s.01-.05,.04-.05c1.85-.23,3.82-.42,5.88-.58,.74-.06,1.3-.36,1.71-.92,.03-.04,.04-.08,.04-.12,0-.1-.1-.18-.2-.17-1.92,.12-3.83,.19-5.72,.19-.04,0-.07-.02-.07-.06h0s.02-.07,.06-.08c2.13-.37,4.26-.68,6.41-.94,.69-.08,1.02-.46,1.45-.94,.02-.02,.02-.04,.02-.06,0-.05-.05-.09-.09-.08l-6.81,.29c-.17,0-.17,0,0-.05,.88-.21,1.78-.37,2.71-.5,1.43-.19,3.88-.16,5.77-.71,.74-.21,.73-.38-.03-.51-1.78-.31-3.97,.08-5.89,.3,0,0-.01,0-.02-.01l-.02-.1s.01-.07,.05-.08c2.45-.55,4.89-.84,7.32-.89,.65,0,1.38-.22,1.92-.54,.19-.11,.18-.19-.04-.22-1.84-.29-3.55-.33-5.14-.11-1.15,.16-2.3,.4-3.46,.73-.06,.02-.11,0-.13-.07h0s0-.06,.04-.07c1.9-.65,3.85-1.08,5.84-1.29,1.54-.16,3.34,.02,4.9,0,1.14,0,1.17-.2,.1-.59-4.77-1.69-9.82-.27-14.15,2.37-5.9,3.6-10.75,8.29-15.38,13.91-2.82,3.44-5.68,3.46-9.58,1.99-7.73-2.9-15.42-6.42-23.23-8.67-8.72-2.52-17.57-3.21-26.55-2.08-8.41,1.06-16.68,3.57-24.81,7.53C9.23,23.88,4.45,27.12,.07,31.09c0,0-.02,.02-.03,.03-.08,.1-.06,.24,.04,.31,5.26,4.06,10.97,7.35,17.15,9.86,.25,.1,.53,.08,.76-.06,1.3-.77,2.47-1.72,3.51-2.86,3.94-4.32,4.51-10.97,1.38-15.9-.56-.88-.43-1.01,.4-.37,7.23,5.56,5.99,15.61-1.38,20.23-.12,.08-.19,.15-.21,.21-.03,.11,0,.19,.12,.22,10.58,2.8,22.77,3.65,33.31,1.38,2.18-.47,4.91-1.19,8.18-2.15,7.77-2.28,15.55-4.83,23.47-6.52,3.55-.76,7.34-.97,10.37,1.03,1.12,.74,2.21,1.61,3.26,2.61,4.55,4.32,12.06,8.39,18.56,8.58,3.17,.1,6.04-.77,8.61-2.59,.35-.25,.32-.44-.08-.59-.06-.02-.14-.02-.2,0-3.15,1.19-6.04,2.13-9.46,1.49-.03,0-.05-.03-.05-.06h0s.03-.05,.06-.05c2.44,.14,4.8-.24,7.07-1.15,.17-.07,.25-.18,.23-.34-.02-.15-.11-.23-.26-.22-.6,.03-.98,.31-1.61,.37-2.88,.27-4.74,.33-5.57,.17-.86-.16-1.66-.32-2.38-.47,0,0-.01,0-.01-.01ZM17.27,27.16c0,1.69-1.37,3.05-3.05,3.05h0c-1.69,0-3.05-1.37-3.05-3.05s1.37-3.05,3.05-3.05,3.05,1.37,3.05,3.05h0ZM69.25,6.66c.04-.23-.1-.44-.33-.49l-.84-.16c-.15-.03-.3,.03-.4,.15l-5.48,6.74c-.06,.08-.1,.18-.09,.28,0,.23,.2,.41,.43,.4l.72-.02c.12,0,.23-.06,.31-.15l5.59-6.56c.05-.05,.08-.12,.09-.19Zm-5.07,6.95c-.03,.18,.09,.34,.26,.37l.81,.15c.11,.02,.23-.02,.31-.11l5.35-6.26s.03-.04,.04-.06c.09-.16,.03-.35-.13-.44l-.62-.34c-.13-.08-.3-.05-.4,.07l-5.55,6.45s-.06,.1-.07,.15Zm1.98,.55c-.1,.11-.08,.19,.07,.23l1.01,.3c.19,.06,.39-.01,.51-.17,1.47-1.97,3.05-3.82,4.74-5.54,.27-.28,.27-.56,0-.84-.08-.08-.17-.13-.28-.15-.34-.06-.62,.04-.85,.3l-5.19,5.86Zm2.16,.73c-.02,.18,.11,.34,.3,.36l.79,.08c.11,.01,.22-.03,.29-.12l4.45-5.49c.1-.13,.09-.32-.03-.44l-.34-.34s0,0-.02-.01c-.14-.12-.35-.1-.47,.03l-4.91,5.74c-.04,.05-.07,.11-.08,.18Zm5.42-2.32c.33-.56,.73-1.06,1.2-1.49,.29-.26,.39-.54,.3-.85-.13-.46-.34-.5-.63-.13l-4.28,5.34c-.11,.13-.08,.23,.08,.29l.73,.29c.17,.06,.31,.03,.43-.1,1.28-1.38,2.72-2.77,4.32-4.15,.17-.15,.3-.32,.39-.52,.15-.33,.08-.54-.2-.63-.1-.03-.21,0-.29,.06-.56,.47-1.05,1.04-1.46,1.71-.11,.17-.26,.28-.45,.34-.19,.06-.23,0-.13-.17Zm3.55-1.05c-.11-.11-.29-.11-.41,0l-3.88,3.78s0,0,0,0c-.48,.47-.69,1.03-.47,1.25l.14,.14s0,0,0,0c.22,.22,.78,.02,1.26-.45l3.88-3.78c.11-.11,.12-.29,0-.41l-.52-.54Zm.81,1.36c-.67,.73-1.4,1.46-2.2,2.19-.6,.55-1.12,1.08-1.57,1.6-.03,.04-.06,.09-.07,.14-.05,.19,.06,.38,.24,.43l.49,.13c.17,.05,.35,0,.47-.12,.61-.58,1.22-1.22,1.84-1.91,.65-.72,1.41-1.19,2.13-1.81,.07-.06,.13-.15,.15-.24,.06-.25-.1-.49-.34-.55l-.86-.21s-.08,0-.1,.03c-.03,.04-.05,.08-.07,.13-.02,.07-.06,.14-.11,.19Zm-.59,4.96c.54-.58,1.19-1.03,1.72-1.66,.47-.55,1-1.04,1.6-1.47,.04-.03,.07-.06,.1-.09,.18-.22,.15-.55-.07-.73-.08-.06-.16-.11-.26-.14-.36-.12-.68-.04-.95,.23l-3.47,3.45c-.19,.19-.16,.33,.1,.42l.51,.18c.26,.09,.54,.02,.73-.18Zm6.57-3.94c.1,.28,.28,.42,.55,.43,.17,0,.2-.06,.09-.18-.14-.16-.28-.29-.44-.4-.22-.15-.29-.1-.21,.15Zm-6.26,4.38s-.05,.13,0,.18l.04,.04s0,0,0,0c.38,.39,1.02,.39,1.43,0l2.64-2.55c.41-.4,.43-1.04,.05-1.43l-.04-.04s0,0,0,0c-.05-.05-.13-.05-.18,0l-3.95,3.81Zm7.98-3.08c-.05,.06,.05,.22,.22,.37,.17,.15,.35,.22,.4,.16s-.05-.22-.22-.37c-.17-.15-.35-.22-.4-.16Zm-4.78,4.25c-.06-.06-.06-.15,0-.21,.72-.68,1.59-1.41,2.62-2.19,.48-.36,.54-.73,.18-1.11-.02-.02-.07-.08-.17-.18-.27-.28-.55-.28-.83-.01l-3.17,3.09s-.07,.09-.08,.15c-.02,.15,.08,.29,.23,.32l.99,.16c.13,.02,.25,.08,.34,.18,.32,.36,.72,.55,1.2,.57,.15,0,.26-.05,.35-.17,.75-1,1.66-1.81,2.74-2.43,0,0,.02-.01,.03-.02,.12-.09,.14-.26,.05-.38l-.18-.23c-.1-.13-.27-.16-.4-.08-1.07,.67-2.03,1.43-2.87,2.29-.15,.15-.33,.23-.54,.25l-.37,.03s-.09-.01-.12-.04Zm7-2.12s0,0,0,0c.06,.06,.16,.05,.21-.01l.08-.09c.06-.07,.05-.12-.04-.16-.29-.13-.49-.32-.6-.59-.03-.06-.06-.07-.12-.04h0s-.05,.05-.03,.09c.11,.33,.27,.6,.5,.81Zm.05,3.76c-.02,.18-.07,.34-.16,.49-.13,.2-.08,.26,.14,.17l.73-.3c.14-.06,.17-.15,.07-.27l-1.43-1.85c-.11-.14-.22-.14-.33,0-.47,.52-1,1.02-1.6,1.51-.09,.08-.21,.12-.33,.13-.31,.01-.58-.23-.6-.54,0-.08,.04-.16,.12-.23,.09-.08,.22-.1,.33-.06,.29,.09,.57-.02,.75-.24,.35-.44,.73-.78,1.14-1.02,.02-.01,.04-.03,.06-.05,.06-.08,.05-.2-.04-.26l-.73-.57c-.16-.12-.31-.12-.46,.01l-2.68,2.32c-.14,.12-.12,.22,.05,.29l2.26,.9c.12,.05,.26,.02,.36-.06l1.53-1.33s0,0,.01-.01c.14-.1,.33-.08,.44,.06l.1,.13s.02,.03,.03,.05c.04,.1,0,.22-.11,.27-.49,.2-.93,.56-1.33,1.06-.08,.11-.07,.2,.04,.28,.56,.4,2.26,1.44,2.69,.43,.17-.4,.08-.48-.28-.23-.41,.29-.91,.2-1.5-.25-.13-.1-.14-.21-.03-.33l.51-.57c.19-.22,.27-.18,.24,.11Zm1.6-2.06c-.09,.12-.03,.33,.15,.47,.18,.14,.4,.16,.49,.04,.09-.12,.03-.33-.15-.47-.18-.14-.4-.16-.49-.04Zm.98,4.69c-.06,.11-.03,.2,.08,.27,.04,.02,.08,.03,.12,.03,.1,0,.17-.05,.21-.15,.12-.27,.13-.52,.05-.75-.03-.09-.07-.09-.11-.01-.17,.28-.29,.49-.35,.62Zm-1.44,13.25c.17,.08,.34,.06,.5-.08,.02-.02,.03-.04,.04-.06,.02-.07-.01-.15-.09-.18-.19-.07-.35-.05-.48,.06-.13,.1-.12,.19,.03,.26Zm-2.52,1.51l.45-.03s.01,0,.02,0c.17-.02,.29-.17,.27-.33-.03-.23,0-.44,.05-.65,.05-.18-.01-.3-.2-.34-.27-.06-.5-.07-.69-.02-.36,.09-.39,.24-.07,.44,.32,.2,.34,.42,.06,.65-.24,.2-.21,.29,.11,.28Zm-.91-.48c.16-.03,.21-.11,.16-.26-.03-.07-.07-.14-.13-.19-.12-.1-.24-.11-.37-.03-.13,.08-.23,.19-.31,.34,.17,.13,.38,.18,.65,.14Zm-3.03,.27c-.18,.03-.2,.11-.07,.23,.83,.76,1.48,1.64,1.95,2.64,0,.01,.01,.02,.02,.03,.06,.08,.17,.1,.25,.04l.1-.07c.14-.1,.2-.27,.16-.43-.18-.67-.57-1.3-1.17-1.88-.27-.27-.26-.5,.03-.7,.11-.08,.21-.06,.28,.06,.15,.25,.37,.4,.64,.45,.14,.03,.25,.09,.33,.2l.54,.72c.12,.17,.35,.23,.54,.16l.16-.06s.03-.01,.05-.03c.09-.07,.11-.19,.04-.29-.31-.41-.69-.81-1.15-1.19-.22,.02-.32-.08-.31-.3l-2.38,.41Zm6.44,.43c.14-.18,.1-.29-.12-.35-.11-.03-.2,0-.26,.08-.14,.18-.2,.4-.19,.65,0,.03,.02,.07,.04,.09,.05,.04,.13,.03,.17-.02l.35-.45Zm-7.06-.13c-.03-.07-.08-.09-.15-.08l-.94,.23s-.02,0-.02,.01c-.03,.02-.03,.06,0,.09l1.4,1.61c.1,.11,.16,.23,.18,.37,.09,.46,.3,.86,.62,1.2,.1,.11,.22,.15,.37,.13,.28-.04,.49-.17,.64-.39,.08-.12,.09-.25,.03-.38-.15-.32-.4-.63-.75-.92-.57-.48-1.02-1.11-1.35-1.88Zm-1.43,.48c-.03-.11-.09-.15-.2-.12l-1.34,.38c-.15,.04-.17,.11-.05,.22,.6,.53,1.17,1.08,1.69,1.63,.46,.49,.6,1.14,1.04,1.7,.1,.13,.23,.18,.38,.15,.4-.07,.55-.29,.46-.67-.1-.42-.4-1.03-.73-1.3-.65-.54-1.06-1.21-1.24-2Zm-2.37,.52l-.89,.13s-.07,.02-.1,.05c-.07,.07-.06,.17,0,.24,1.11,1.12,2.09,2.36,2.96,3.73,.08,.13,.21,.2,.37,.19,.23-.01,.42-.11,.56-.29,.09-.11,.11-.24,.08-.38-.13-.49-.37-.89-.72-1.2-.86-.76-1.21-1.44-1.76-2.26-.12-.18-.29-.25-.5-.22Zm-.74,3.35c.53,.5,.81,.98,1.2,1.56,.08,.12,.19,.19,.33,.21,.19,.02,.33-.03,.44-.16,.12-.14,.16-.31,.11-.51-.19-.83-.63-1.4-1.3-1.71-.15-.07-.28-.18-.37-.33l-1.12-1.89c-.04-.06-.11-.09-.18-.08l-1.51,.34s-.05,.03-.02,.07c.79,.9,1.6,1.73,2.43,2.5Zm-.76,2.3c.05-.01,.12,0,.19,.03,.35,.17,.66,.16,.93-.04,.03-.03,.07-.06,.09-.09,.21-.25,.19-.62-.06-.83-1.39-1.2-2.42-2.38-3.09-3.54-.15-.26-.35-.3-.59-.12-.1,.07-.21,.11-.33,.12-.45,.03-.52,.21-.22,.55l2.11,2.35c.13,.15,.22,.33,.24,.52,.06,.39,.18,.74,.36,1.04,.12-.03,.18,.02,.18,.13,.05-.06,.11-.09,.18-.11Zm10.32-3.91c-.03,.15,.02,.19,.16,.11,.16-.1,.3-.22,.41-.38,.09-.12,.09-.24,0-.36-.03-.05-.08-.08-.13-.1-.11-.04-.18,0-.23,.1-.06,.13-.08,.3-.14,.45-.03,.06-.04,.12-.06,.18Zm-11,4.27c-.14,.05-.22,0-.24-.15-.05-.46-.2-.82-.44-1.07-.8-.85-1.51-1.8-2.14-2.84-.16-.26-.45-.41-.76-.39l-.2,.02c-.32,.03-.39,.18-.23,.46,.75,1.28,1.69,2.52,2.82,3.7,.17,.18,.22,.37,.16,.58-.04,.13-.11,.15-.21,.05-.07-.06-.11-.15-.13-.25-.01-.09-.07-.14-.16-.16-.06-.01-.11,0-.16,.03-.08,.05-.1,.12-.08,.21,.04,.14,.04,.27-.02,.4-.08,.18-.12,.18-.13-.02-.03-.39-.2-.7-.52-.94-.11-.08-.19-.18-.26-.29l-1.74-3.07c-.14-.25-.36-.36-.65-.32l-.29,.04c-.26,.04-.34,.18-.23,.42,.39,.92,.93,1.81,1.59,2.69,.52,.68,.75,1.33,1.07,2.09,.15,.36,.4,.45,.74,.26,.77-.41,1.63-.83,2.58-1.27,.18-.08,.22-.22,.14-.44,0-.11-.06-.16-.18-.13-.08,.2-.18,.33-.32,.38Zm-6.53-3.51l-.78,.05c-.06,0-.11,.02-.16,.05-.15,.1-.2,.31-.1,.46l3.37,5.12c.08,.12,.22,.17,.35,.14l.31-.08s.06-.02,.09-.03c.16-.09,.21-.29,.12-.45l-2.91-5.09c-.06-.11-.18-.17-.31-.17Zm15.91,.81c-.05,.03-.09,.06-.1,.1-.04,.1,0,.21,.1,.26,.15,.07,.29,.05,.39-.05,.11-.11,.16-.23,.15-.36-.01-.16-.1-.21-.25-.16-.08,.03-.14,.07-.19,.14-.03,.03-.06,.06-.1,.08Zm-17.84-.2l-1.37,.31s-.03,0-.04,.02c-.04,.03-.05,.1-.02,.14,1.04,1.3,2.08,2.62,3.1,3.97,.28,.36,.49,.75,.63,1.16,.09,.25,.26,.35,.52,.29l.59-.13c.29-.06,.35-.22,.19-.46l-3.39-5.21c-.05-.08-.12-.11-.22-.09Zm1.78,5.69c-1.23-1.63-2.42-3.22-3.55-4.75-.23-.3-.53-.42-.9-.34l-.17,.03s-.07,.02-.1,.04c-.15,.09-.2,.3-.11,.45,.7,1.13,1.48,2.12,2.36,2.98,.66,.65,.85,1.55,1.51,2.23,.28,.29,.59,.36,.94,.21,.1-.04,.17-.14,.18-.25,.03-.23-.03-.43-.16-.61Zm-6.61-3.82l4.05,5.3c.19,.25,.54,.29,.79,.11l.09-.07c.25-.19,.29-.54,.11-.79l-4.05-5.3c-.19-.25-.54-.29-.79-.11l-.09,.07c-.25,.19-.29,.54-.11,.79Zm21.2-.36c.13,.09,.21,.06,.24-.09l.04-.15c.02-.08,0-.14-.07-.18-.17-.13-.34-.16-.49-.09-.03,.01-.06,.04-.08,.06-.06,.08-.03,.19,.05,.25l.3,.2Zm-18.69,6.61l.82-.1s.08-.02,.11-.04c.1-.08,.13-.22,.05-.32l-4.37-6.01c-.06-.08-.15-.11-.25-.09l-.88,.24s-.06,.02-.08,.04c-.1,.08-.12,.22-.05,.32l4.44,5.87c.05,.06,.13,.1,.21,.09Zm17.51-5.83s.05,.03,.07,.04c.11,.04,.23-.02,.27-.13,.05-.15,.03-.28-.07-.42-.01-.02-.03-.04-.05-.05-.1-.07-.24-.04-.31,.06-.12,.18-.09,.35,.08,.5Zm-23.18-.21l-.83,.2c-.05,.01-.1,.04-.14,.07-.15,.12-.17,.34-.05,.48l4.85,5.85c.07,.08,.17,.12,.27,.12h.48c.07,0,.14-.03,.2-.07,.15-.11,.18-.33,.07-.48l-4.5-6.05c-.08-.11-.22-.16-.36-.13Zm21.85,1.03c.28-.13,.26-.31-.05-.55-.15-.11-.24-.08-.29,.1-.03,.1,0,.23,.08,.37,.05,.09,.16,.12,.26,.08Zm-22.76,1.64c.96,1.35,1.9,2.7,2.82,4.05,.18,.25,.42,.38,.73,.37h.29c.37-.02,.44-.17,.2-.46l-4.76-5.64c-.25-.29-.55-.39-.92-.29l-.27,.08c-.35,.1-.43,.3-.22,.6,1.37,2.03,2.48,4.33,4.23,6.08,.05,.06,.14,.06,.2,0l.1-.1c.08-.07,.09-.18,.04-.27l-2.62-4.19c-.05-.07-.03-.13,.04-.18l.1-.07s.03,0,.04,0Zm-20.19,7.04c-.45-.12-.85-.33-1.2-.65-2.54-2.26-4.62-4.69-6.23-7.29-.16-.25-.4-.46-.73-.63-.06-.03-.12-.05-.18-.05-.04,0-.09,0-.13,.02-.14,.06-.2,.22-.13,.36,2.13,4.57,5.42,7.7,9.86,9.39,.62,.23,1.3,.4,2.03,.51,.05,0,.09,0,.13-.03,.07-.06,.08-.16,.02-.23l-.56-.67c-.1-.11-.16-.24-.21-.38-.27-.93-.86-1.49-1.42-2.24-1.22-1.62-2.51-3.49-3.88-5.6-.11-.17-.26-.26-.46-.27l-.75-.05c-.19-.01-.24,.06-.15,.23,.53,.97,1.31,2.13,2.34,3.47,1.41,1.85,2.64,3.26,3.69,4.23,.16,.15,.28,.32,.36,.53,.1,.24,.04,.28-.16,.13-.97-.74-1.78-1.46-2.43-2.17-1.43-1.56-2.95-3.54-4.57-5.94-.16-.24-.36-.44-.59-.6-.37-.26-.66-.27-.86-.02-.09,.11-.1,.25-.03,.37,1.71,2.89,3.8,5.38,6.29,7.48,.11,.1,.1,.13-.05,.09Zm17.97-5.1l-.11,.07s-.03,0-.04,0c-.76-1.03-1.57-1.99-2.42-2.86-.29-.3-.64-.4-1.05-.3-.08,.02-.17,.04-.25,.06-.42,.1-.47,.3-.17,.6,1.8,1.8,3.82,3.26,6.05,4.39,.97,.49,1.11,.31,.43-.53-.98-1.21-1.9-2.59-2.76-4.14-.39-.69-.94-.87-1.67-.55-.02,.01-.04,.03-.06,.04-.07,.08-.07,.2,.01,.27,.84,.78,1.54,1.72,2.08,2.82,.03,.06,.02,.11-.05,.15Zm23.69-3.08c.16-.13,.14-.2-.06-.22-.26-.03-.48,.08-.66,.33-.13,.18-.09,.24,.13,.19,.22-.05,.42-.15,.6-.3Zm-42.09,1.43c.06-.03,.12-.04,.19-.04,.13,0,.21-.06,.23-.19,.02-.11-.02-.22-.1-.31-.09-.11-.2-.14-.34-.09-.41,.16-.71,.11-.89-.16-.16-.23-.27-.21-.33,.07-.06,.32,.09,.66,.45,1.03,.23,.24,.4,.44,.5,.62,.51,.86,1.01,1.72,1.51,2.59,.31,.52,.73,.95,1.08,1.33,.54,.6,.69,.52,.44-.25-.31-.98-.63-1.91-1.31-2.74-.44-.55-.93-1.11-1.47-1.68-.06-.07-.06-.12,.03-.17Zm4.44,1.81c-.2-.57-.56-1.12-1.05-1.67-.48-.52-1.06-.75-1.77-.7l-.42,.03c-.56,.04-.65,.27-.27,.69,.77,.84,1.44,1.83,2.02,3,.06,.11,.12,.11,.2,.02,.31-.4,.69-.72,1.14-.97,.14-.08,.21-.25,.16-.4Zm-3.14-1.88s-.02-.08,0-.11l.04-.03s0,0,0,0c.24-.2,.89,.2,1.45,.88l.1,.12c.57,.68,.83,1.4,.6,1.59l-.04,.03s0,0,0,0c-.03,.03-.08,.02-.11-.01l-2.05-2.48s0,0,0,0Zm37.38-.15l-.12,.13c-.11,.13-.09,.19,.08,.21,.28,.02,.46-.14,.55-.46,.01-.05,0-.1-.01-.14-.05-.1-.17-.14-.27-.09-.07,.03-.12,.1-.15,.21-.01,.05-.04,.1-.07,.13Zm-12.26,5.53c.14-.1,.13-.14-.05-.12-.4,.04-.76,.07-1.08,.11-.48,.06-.49,.16-.03,.3,.23,.08,.55,.02,.95-.17,.07-.04,.14-.08,.21-.12Z"/>
  </g>
</svg>