<?xml version="1.0" encoding="UTF-8"?>
<svg id="Layer_2" data-name="Layer 2" xmlns="http://www.w3.org/2000/svg" viewBox="0 0 110.1 67.92">
  <defs>
    <style>
      .cls-1 {
        fill: #808080;
      }
    </style>
  </defs>
  <g id="Layer_1-2" data-name="Layer 1">
    <path class="cls-1" d="M38.5,49.71c-2.53,.72-4.12,3.13-5.55,5.33-1.43,2.2-3.22,4.54-5.81,4.96-.16,.03-.32,.04-.47,0-.21-.07-.35-.27-.45-.47-.83-1.65,.4-3.73-.24-5.46-.12-.33-.31-.65-.31-1.01,0-.46,.34-.85,.46-1.3,.19-.67-.17-1.44-.79-1.74,.06-.44,.59-.64,.82-1.02,.61-.99-1.11-2.18-.68-3.26,1.64-.83,3.45-1.33,5.29-1.45-2.52-1.31-4.85-1.99-7.24-2.03-3.7-.06-7.25,1.41-10.55,3.1s-6.5,3.63-10.07,4.64c-1.04,.3-2.44,.36-2.91-.61,1.36-.12,2.26-1.9,1.55-3.07,.26-.58,.82-.96,1.34-1.31s1.08-.76,1.29-1.36-.13-1.42-.77-1.45c.51-.68,1.39-.95,2.04-1.49s.97-1.72,.24-2.15c1.21-.85,2.42-1.7,3.63-2.55-1.37-1.13-2.44-1.77-3.5-2.42,.51-.64,.26-1.72-.47-2.08-.21-.1-.47-.16-.61-.35-.2-.26-.1-.63-.08-.96,.09-1.1-.88-2.18-1.99-2.2,.73-1.41-.21-3.39-1.77-3.72,.62-1.17,.23-2.77-.85-3.52,3.72-.54,7.39,1.11,10.71,2.88s6.7,3.78,10.45,4.01c4.31-.33,8.67-.88,12.98-1.73-1.94-1.63-3.73-2.53-5.51-3.44,.75,.09,1.52,.17,2.24-.04s1.38-.81,1.43-1.56c1.11,.5,2.5-.87,2.02-1.99,.93-.04,1.89-.09,2.7-.53s1.42-1.42,1.13-2.3c.85,.05,1.73,.1,2.53-.2s1.5-1.05,1.45-1.9c1.39,.06,3.13-.35,3.44-1.71,.1-.44,.02-.91,.11-1.36,.2-1,1.17-1.62,1.89-2.34,.72-.72,1.2-2.02,.43-2.69,1.84-.01,3.59-1.4,4.02-3.19,1.56,.56,3.43-1.04,3.12-2.66,3.56,.05,6.51,2.83,8.34,5.89,1.83,3.05,2.92,6.52,4.96,9.43,9.62,.73,18.83,4.66,26.4,10.78,5.08,2.79,9.58,6.61,13.43,11.46,.65,.4,1.35,.85,1.65,1.55s0,1.72-.77,2.05c0,.99-1,1.63-1.87,2.1-2,1.09-3.93,2.31-5.89,3.89-1.53,1.15-3.68,.58-5.57,.88-.98,.16-1.9,.56-2.81,.94-7.43,3.08-15.37,4.94-23.39,5.49-1.09,.07-2.27,.1-3.13-.32-2.53,5.9-7.17,10.87-12.89,13.79,.57-1.17,.82-2.48,.74-3.78-.43,0-.87-.01-1.3-.02,.29-1.06,.58-2.13,.87-3.19-.35,0-.71,.02-1.06,.02-.1-.69,.07-1.41,.46-1.98,.49-.71,1.27-1.16,2.02-1.58,1.98-1.11,3.96-2.21,5.95-3.32-7.82,.48-15.75-1.09-22.84-4.37Z"/>
  </g>
</svg>