<?xml version="1.0" encoding="UTF-8"?>
<svg id="Layer_2" data-name="Layer 2" xmlns="http://www.w3.org/2000/svg" viewBox="0 0 76.22 48.89">
  <defs>
    <style>
      .cls-1 {
        fill: #808080;
      }
    </style>
  </defs>
  <g id="Layer_1-2" data-name="Layer 1">
    <path class="cls-1" d="M70.38,25.95c-1.4-1.09-3.02-1.89-4.72-2.44,3.17-1.78,5.81-4.34,7.81-7.38,2.05-3.12,3.51-7.12,2.34-10.84-.85-2.73-3.16-4.5-5.91-5.08-3.01-.63-6.07,.17-8.69,1.69-3.08,1.78-5.54,4.49-7.37,7.51-.91,1.51-1.66,3.12-2.25,4.78-.31,.89-.6,1.79-.84,2.7-.12,.44-.21,.89-.28,1.35-.02,.12-.03,.24-.04,.35-.19-.43-.38-.85-.59-1.26-1.47-2.94-3.6-5.54-6.19-7.56-2.56-2-5.61-3.38-8.8-3.98-1.21-.23-2.43-.33-3.65-.32,.9-1.26,.63-3.11-.54-4.14-1.2-1.05-3.07-.88-4.45-.35-1.59,.61-2.94,1.77-3.8,3.23-.38,.63-.62,1.32-.79,2.04-.08,.37-.26,1.1,.07,1.41-.57,.13-1.11,.39-1.54,.83-.02,.02-.04,.04-.05,.06-.88-.52-1.9-.81-3-.81-2.28,0-4.26,1.32-5.23,3.23-.89-1.2-2.34-1.99-3.97-1.99-2.71,0-4.9,2.16-4.9,4.82,0,2.12,1.39,3.92,3.33,4.56,0,0-.01,.01-.02,.02-.74,.78-1.42,1.6-2,2.5-.34,.53-.64,1.09-.9,1.66-.12,.27-.22,.55-.32,.83-.08,.24-.1,.56-.19,.81,0,0-.02,0-.03,0-.68-.48-1.71-1.02-2.4-.34-.65,.64-.61,1.78-.14,2.52,.28,.44,.94,.72,1.4,.92,.55,.23,1.12,.44,1.65,.71,.21,.11,.41,.24,.58,.38-.75,.06-1.28,.77-1.54,1.49-.38,1.01-.31,2.07,.21,3.01,.58,1.06,1.71,1.65,2.84,1.94,.21,.05,.42,.09,.63,.13,1.21,2.38,3.79,3.32,6.34,3.62,0,0,.01,.02,.02,.02,.29,.19,.71,.29,1.05,.41,.22,.08,.47,.1,.7,.17,.31,.09,.63,.16,.95,.23,1.12,.24,2.26,.39,3.41,.48,2.14,.18,4.29,.22,6.44,.1,1.06-.06,2.11-.16,3.15-.31,.12,.67,.28,1.32,.48,1.97,1,3.2,3.25,5.95,6.55,6.88,2.99,.85,6.41,.16,8.74-1.92,1.26-1.13,2.15-2.62,2.49-4.28,.36-1.71,.04-3.51-.6-5.11-.44-1.09-1.01-2.1-1.69-3.01,.45-.26,.9-.52,1.35-.8,1.96-1.2,4.26-2.45,5.57-4.42,.04,.05,.15,.03,.24-.02,1.07,3.09,2.48,6.12,4.5,8.71,2.03,2.6,4.85,4.65,8.03,5.59,2.79,.83,6.04,.82,8.59-.74,1.29-.79,2.27-2.02,2.88-3.4,.69-1.57,.75-3.35,.41-5.01-.66-3.24-2.77-6.17-5.35-8.17ZM3.39,23.47s0-.01,0-.02c-.07,.24-.12,.49-.16,.74-.03-.22,.1-.53,.16-.72Zm-.41,1.22c-.06,.08-.06,.08-.06,.08,0,0-.01-.01-.04-.03,.03-.01,.07-.03,.1-.05Z"/>
  </g>
</svg>