<?xml version="1.0" encoding="UTF-8"?>
<svg id="Layer_2" data-name="Layer 2" xmlns="http://www.w3.org/2000/svg" viewBox="0 0 49.12 36.24">
  <defs>
    <style>
      .cls-1 {
        fill: #808080;
      }
    </style>
  </defs>
  <g id="Layer_1-2" data-name="Layer 1">
    <path class="cls-1" d="M0,22.08c0-.48,.42-.85,.9-.79,1.15,.14,3.09,.22,3.98-.72,1.3-1.38,2.35-3.73,4.06-3.98,0,0,3.33-13.07,12.91-14.04,9.58-.97,7.31-4.22,17.21-1.46,0,0,1.46,3.98,.49,14.29,0,0,.89,1.95,2.6-.73,1.7-2.68,6.58-2.84,6.58-2.84,0,0,1.3,3.98-.73,8.28s-1.46,7.23-3.9,5.36-3.98-4.79-3.98-4.79c0,0,1.62,13.23-3.08,12.91-4.71-.32-10.15-4.3-13.4-3.82,0,0,.89,3.08,2.07,4.1,0,0-2.15,.49-2.44-.49l.81,2.88s-5.8-.73-8.69-7.51c0,0-2.27,.45-4.26-1.75-1.99-2.19-3.21-.89-5.44-3.17,0,0-1.99-.73-2.96-.73-.57,0-1.4-.06-1.99-.12-.41-.04-.73-.38-.73-.8v-.09Z"/>
  </g>
</svg>