<?xml version="1.0" encoding="UTF-8"?>
<svg id="Layer_2" data-name="Layer 2" xmlns="http://www.w3.org/2000/svg" viewBox="0 0 54.91 56.96">
  <defs>
    <style>
      .cls-1 {
        fill: #808080;
      }
    </style>
  </defs>
  <g id="Layer_1-2" data-name="Layer 1">
    <path class="cls-1" d="M41.39,31.97s1.08,.24,1.04,.85c-.03,.61,.19,1.14,.63,1.4s.29,.31,.22,.59c-.07,.28,.3,.09,.64,.65,.34,.57-.07,.81,.65,1.34,.72,.54,.92,.6,1.31,2.02,.39,1.42,1.29,1.6,1.72,2.85,.43,1.25,.97,.84,.76,1.79-.21,.95,.9,.93,1.06,2.92,.16,1.99-.05,3.08-.27,3.93-.22,.85-.12,1.89-.75,2.09-.64,.2-.23,.26-.92,.88-.69,.62-1.5,.57-2.6-.62-1.1-1.19-2.04-.82-2.41-1.95-.37-1.12-.76-.65-1.16-.95-.4-.3-.7-.64-.68-1.25,.02-.61-.6-.23-1.01-.34s.41-.92-.36-1.34c-.77-.42-.97-.23-1.24-.89-.27-.66-.61,.09-.85-.71-.24-.8-.82-.87-1.44-1.52-.61-.65-1.36-.49-1.77-.99-.41-.5-.81-.52-1.34-.36s-.69-.16-.89-.54c-.2-.38-.43-.78-.5-.19-.07,.59-.36,.98-.69,.85-.33-.13-.57-.34-.54,.11,.03,.44-.24,.6-.72,.69s-.93,.15-.89,.68c.04,.53-.25,.67-.6,.67s.09,.44-.6,.92c-.68,.47-.79,.21-.71,.77,.09,.56-.47-.05-.55,.67-.07,.72,0,.78-.42,1.01-.42,.23-.66,0-.78,.7-.12,.7-.65,.04-.65,.75,0,.71-.55,.63-.68,.69-.13,.06,.2,.02-.15,.61-.35,.59-.75,.5-1.39,1.75-.64,1.25-.72,1.6-1.7,2.22-.99,.62-1.3,1.47-2.21,1.95-.91,.48-1.17,.26-1.96,0-.78-.26-1.6-.82-1.59-1.81,0-.99-.65-.86-.33-2,.32-1.14,.14-1.19,.2-2.05,.05-.87-.35-.96,.03-1.59,.38-.63,.65-.64,.53-1.55-.12-.91,.14-1.69,.45-2.4,.31-.71-.12-.84,.37-1.59s.67-.59,.7-1.44c.03-.85,.46-2.32,.95-3.15s0-.99,.55-1.36-.04-.48,.32-1.42c.36-.94,.19-.84,.62-1.13s.83-.5,.12-.66c-.71-.16-1.17-.18-1.11-.66,.06-.49,.01-.28-.65-.32-.66-.05-.47-.77-1.04-.66-.57,.11-1-.25-1.19-.48-.19-.24-1,.07-1.22-.44-.22-.51-.15-.04-.78-.2-.63-.16-.48-.67-1.18-.51-.7,.16-.53-.64-1.16-.57-.63,.07-.85-.02-1.2-.29s-.57-.42-1.46-.41c-.89,.01-1.29,.05-1.41-.35-.12-.4-.28-.32-.57-.31-.29,.01-.63-.32-1.32-.1-.69,.23-.62-.62-1.28-.28-.66,.34-.25-.39-.79-.35-.54,.04-1.75-.85-2.31-1.65-.55-.8-.11-1.98,.33-2.3,.44-.31,.74-1.25,1.44-1.12,.69,.13,.94-.62,1.76-.72,.82-.1,1.39-1.13,2.35-1.06,.96,.07,.77-.76,1.96-.65,1.19,.11,1.47-.8,2.62-.61,1.15,.18,1.8-.07,2.43,.22,.63,.29,1.27-.14,2.23,.15,.96,.29,1.46-.25,2.3,.06s1.68-.03,2.39,.35c.71,.37,.62-.25,1.42,.05s.92,.29,.58-.2-.61-.7,.21-.65c.82,.05-.17-.48,.1-1.08,.27-.6,.4-.66,.36-1.48-.03-.82,.08-.95,.16-1.22,.07-.27-.39-2.89-.21-4.44s.14-2.45,.03-3.89c-.11-1.44-.44-2.25,.09-3.16,.53-.91,0-.88,.29-1.79,.3-.91,.14-2.07,1.11-2.54,.97-.47,1.36-1.61,2.91-.2,1.54,1.41,.87,1.62,1.69,2.48,.82,.86,1.36,.71,1.3,2.41-.06,1.7,.97,1.9,.94,2.67-.04,.77,.93,1.53,.74,2.37-.18,.84,.82,.65,.84,1.85,.03,1.2,.87,.79,1.1,1.66,.23,.87-.25,1.75,.45,1.95,.69,.2,.68,.5,.65,1.29-.03,.79-.08,.67,.38,.86,.46,.19,.15,1.19,.52,1.07,.37-.12,.22-.55,.77-.32,.55,.23,.33-.39,1.1-.34,.77,.05,1.22,.17,1.81-.42s.59-.46,1.64-.44c1.05,.01,1.42-.91,2.17-.84,.75,.07,1.86-.53,2.4-.83,.54-.3,.33,.37,1.51-.08,1.19-.45,1.1-.84,2.33-.64,1.23,.2,1.61-.48,2.81,.05,1.21,.53,2.3,.71,2.35,1.89s.93,1.77-.48,2.72c-1.4,.95-1.27,1.68-2.31,2.23-1.04,.55-1.16,1.15-1.9,1.42-.74,.27-.63,1.06-1.36,1.48-.72,.42-.87,.3-.93,1-.06,.7-.45,.75-.94,.84-.49,.1-.63-.15-.99,.43-.35,.58-.68-.12-.8,.66-.12,.78-1.36,.2-1.09,.97,.27,.77-1.25,.42-1.05,1,.2,.59-.35,.96-.53,1.07-.18,.11-.17,.63-.52,.67-.35,.04-.61,.02-.32,.14Z"/>
  </g>
</svg>