<?xml version="1.0" encoding="UTF-8"?>
<svg id="Layer_2" data-name="Layer 2" xmlns="http://www.w3.org/2000/svg" viewBox="0 0 149.5 57.3">
  <defs>
    <style>
      .cls-1 {
        fill: #808080;
      }
    </style>
  </defs>
  <g id="Layer_1-2" data-name="Layer 1">
    <path class="cls-1" d="M.9,33.64c-1.16-1.23-1.24-2.2,.02-3.32,1.21-1.07,2.56-2.05,3.99-2.8,2.29-1.19,4.69-2.16,7.05-3.2,3.42-1.5,6.87-2.96,10.28-4.48,3.66-1.64,7.26-3.42,11.1-4.63,3.97-1.25,8.04-1.96,12.18-2.38,4.1-.42,8.21-.44,12.33-.37,1.06,.02,1.82-.33,2.52-1.04,1-1.02,2.02-2.02,3.04-3.02,2.21-2.16,4.43-4.32,6.65-6.47,.89-.86,1.85-1.59,3.11-1.84,1.74-.35,3.1,.24,3.96,1.78,.15,.27,.28,.54,.42,.82,.6,1.22,1.42,2.21,2.64,2.88,1.44,.79,2.64,1.88,3.68,3.17,.51,.63,1.31,1.06,2.02,1.51,1.2,.76,1.21,1.79-.02,2.49-.41,.23-.87,.38-1.3,.6-.73,.37-1.45,.75-2.16,1.14-.1,.06-.17,.18-.26,.28,.11,.05,.22,.13,.34,.16,1.43,.31,2.87,.56,4.29,.92,3.95,1,7.93,1.92,11.83,3.11,2.31,.71,4.46,.63,6.68-.08,.77-.25,1.58-.41,2.38-.54,1.89-.29,3.71,.5,4.01,2.62,.07,.49,.28,.72,.78,.74,.37,.01,.74,.13,1.11,.14,2.38,.08,4.76,.06,7.13,.22,1.95,.13,3.71-.39,5.38-1.27,2.94-1.56,5.85-3.18,8.75-4.82,2.85-1.61,5.74-3.14,8.98-3.78,1.32-.26,2.7-.29,4.05-.27,1.28,.02,1.63,.55,1.35,1.79-.13,.59-.35,1.17-.61,1.72-.79,1.7-1.65,3.36-2.41,5.06-1.29,2.88-1.61,5.86-.83,8.96,.33,1.31,.49,2.67,.69,4.01,.26,1.81,1,3.45,1.75,5.09,1.02,2.21,1.65,4.52,1.7,6.98,.04,1.69-.76,2.14-2.15,1.8-1.74-.43-3.46-.99-5.14-1.64-3.74-1.44-7.44-2.99-11.17-4.46-2.31-.91-4.62-1.81-6.97-2.62-.82-.28-1.73-.36-2.6-.37-3-.05-5.97,.23-8.88,.99-.56,.15-1.11,.32-1.66,.49-.12,.04-.22,.13-.33,.2,.11,.04,.22,.1,.34,.12,.77,.14,1.56,.2,2.3,.42,1.54,.45,1.89,1.09,1.6,2.65-.04,.23-.05,.49-.14,.7-.95,2.14-1.19,4.45-1.72,6.7-.33,1.4-.58,2.79-.28,4.24,.08,.36,.03,.75,.07,1.12,.07,.52-.12,.64-.63,.59-2.53-.25-4.8-1.18-6.92-2.55-2.43-1.57-4.36-3.67-6.17-5.88-.43-.53-.75-1.34-1.29-1.52-.51-.18-1.25,.28-1.88,.49-3.34,1.09-6.75,1.82-10.24,2.26-.1,.01-.2,.02-.3,.05-.66,.15-.71,.27-.26,.74,1.16,1.19,2.22,2.51,3.83,3.14,.09,.04,.17,.11,.26,.16,1.4,.92,1.37,1.35-.12,2.12-.39,.2-.8,.38-1.17,.63-1.83,1.24-3.8,1.49-5.94,1.04-2.87-.6-5.49-1.76-7.99-3.24-1.31-.78-2.6-1.6-3.9-2.4h0s-.03,.03-.03,.03l.02-.03c-.46-.06-.91-.2-1.36-.17-1.79,.1-3.58,.31-5.38,.37-3.36,.11-6.73,.27-10.09,.17-3.25-.09-6.51-.35-9.73-.77-5.52-.73-11.01-1.63-16.51-2.49-2.72-.42-5.43-.89-8.13-1.38-2.61-.46-5.22-.91-7.8-1.47-2.73-.6-5.22-1.73-7.3-3.66-1.64-1.52-2.76-3.35-3.23-5.55-.16-.74-.25-1.51,.55-2.01,.31-.19,.33-.4,.06-.65-.08-.07-.15-.14-.22-.21Z"/>
  </g>
</svg>