<?xml version="1.0" encoding="UTF-8"?>
<svg id="Layer_2" data-name="Layer 2" xmlns="http://www.w3.org/2000/svg" viewBox="0 0 83.26 49.26">
  <defs>
    <style>
      .cls-1 {
        fill: #808080;
      }
    </style>
  </defs>
  <g id="Layer_1-2" data-name="Layer 1">
    <path class="cls-1" d="M69.89,42.84c-3.22-1.47-7.84-3.5-8.4-4.83,0-.14,.14-7.07-5.39-12.1-2.38-2.17-8.87-7.81-9.52-8.89-.21-.35-2.62-17.02-4.81-17.02-1.52,0,3.39,9.83-4.26,18.24-.98,1.09-24.47,7.97-27.53,6.44C6.93,23.16,1.6,13.66,.88,7.65c-.61-1.86-2.03,5.57,.92,13,.87,3.71,1.97,5.57,1.97,5.57l1.97,.76s-1.42,.44-1.86,1.53c-.44,1.09-.87,6.99-1.31,8.19-.44,1.2,6.66-6.12,8.52-7.1,1.86-.98,3.7,.05,3.7,.05,0,0,.45,2.46-.67,3.53s3.04,.22,5.13-2.63c.13-.04,2.81,.45,2.46,1.96-.36,1.52-2.23,2.77-1.92,3.17,.31,.4,3.48-.36,3.48-.36,0,0,.13-3.57,2.63-6.79,1.25-1.61,3.62-3.88,4.15-3.53,.22,.22-2.17,1.49-4.24,4.64-2.07,3.15-1.83,6.12-2.1,8.93-.22,.71-18.44,8.17-19.69,9.06-1.25,.89-1.83,1.38-1.34,1.56,.49,.18,12.59-4.51,18.04-4.73,5.45-.22,7.95,.13,7.95,.13,0,0,4.38,3.67,13.8,3.93,3.84,.11,11.18-1.71,14.96-4.37,0,0,3.57-.7,10.36,1.05,6.79,1.75,15.11,4.42,15.46,4,.35-.43-10.15-4.91-13.36-6.38Zm-33.5-5.15c.4-.3,.68,.85,.68,.85,0,0-1.08-.55-.68-.85Zm6.92,.85s.28-1.15,.68-.85c.4,.3-.68,.85-.68,.85Zm-16.3-4.01c.32,.05,.2,.77,.25,1.39s.45,1.59,0,1.77c-.97-.32-1.01-3.28-.25-3.16Zm26.92,6.72c-.19,.42-1.69,.19-1.69,.19,0,0-1.03-.73-1.34-.65-.31,.08-.27,1.03-.27,1.03,0,0-.5-.42-.88-.38-.38,.04-.54,.92-.54,.92,0,0-.42-.5-.73-.46-.31,.04-.42,.73-.42,.73l-2.03,.57s-.42-.46-.73-.5c-.31-.04-.5,.69-.5,.69l-3.49,.38s-.38-.42-.77-.46c-.38-.04-.92,.46-.92,.46,0,0-.27-.54-.54-.57-.27-.04-.88,.57-.88,.57l-1.95-.23s-.08-.61-.23-.84-.8,.46-.8,.46l-2.07-.73s-.11-.34-.34-.65c-.23-.31-.84,.34-.84,.34,0,0-.08-.65-.27-.8-.19-.15-.8,.42-.8,.42,0,0-.27-.96-.46-1.07-.19-.11-.31,.23-.54,.25-1,.1-1.53,.4-2.18,.44-.65,.04-.99-.57-.46-.88,.46-.27,3.6-.34,3.6-.34,0,0,.23,.69,.42,.88,.19,.19,.65-.5,.92-.34,.61,.38,2.8,1.28,2.8,1.28,0,0-.04,.56,.31,.75,.34,.19,.92-.75,.92-.75,0,0,.27,.71,.61,.86,.34,.15,.46-.69,.77-.54,2.03,.57,5.86,0,5.86,0,0,0,.57,.69,.96,.65,.38-.04,.5-.98,.5-.98,0,0,.73,.48,1,.48s.34-.84,.34-.84l2.68-.8s.46,.38,1,.31,.04-.8,.46-.92c1.72-.23,3.72,.65,3.52,1.07Zm.96-3.56c-.45-.17-.05-1.15,0-1.77,.05-.62-.07-1.34,.25-1.39,.76-.12,.72,2.84-.25,3.16Z"/>
  </g>
</svg>