<?xml version="1.0" encoding="UTF-8"?>
<svg id="Layer_2" data-name="Layer 2" xmlns="http://www.w3.org/2000/svg" viewBox="0 0 58.88 30.82">
  <defs>
    <style>
      .cls-1 {
        fill: #808080;
        fill-rule: evenodd;
      }
    </style>
  </defs>
  <g id="Layer_1-2" data-name="Layer 1">
    <path class="cls-1" d="M8.49,.44s.2-.67,.64-.35c.44,.32,2.27,3.67,1.31,6.1,0,0-.74,1.28-.06,1.89,.68,.61,2.23,2.22,2.95,3.41,.72,1.19,3.87,5.81,5.49,6.01,1.62,.19,1.88-.01,1.66-.63-.22-.62,.29-.52,.53-.22s1.5,1.99,4.57,2.07c3.07,.08,6.07,.21,9-.37,2.93-.58,9.11-.36,9.99-.46,.88-.09,1.69-.89,2.46-.63,.77,.25,3.81,1.09,5.79,.83s4.62-.53,4.84-.2c.22,.33,.26,.71,.04,.91-.22,.19-.47,.11-.51,.34-.04,.24-.04,.63,.12,.63,.16,0,.7-.73,.91-.81s.97-.13,.52,.98c-.45,1.11-5.92,7.4-6.76,8.19s-3.9,3.09-8.29,2.62c-4.39-.46-7.83-.22-9.04-.26s-9.1-.09-11.78-1.06c-2.67-.97-5.94-1.89-9.39-6.82-3.45-4.93-6.25-13.46-6.25-13.46,0,0-5.24-.67-7.11-7.23C.11,1.91-.18,.79,.18,.71c.37-.08,.66,.79,1.13,1.2,.47,.41,1.14,1.27,1.92,1.68,.78,.41,2.25,.54,2.75,1.12,.51,.58,1.22,1.16,1.22,1.16,0,0-.12-.66,.31-1.25,.43-.59,1.09-1.48,1.1-2.3,.01-.82-.36-1.4-.12-1.88h0Z"/>
  </g>
</svg>