<?xml version="1.0" encoding="UTF-8"?>
<svg id="Layer_2" data-name="Layer 2" xmlns="http://www.w3.org/2000/svg" viewBox="0 0 85.04 50.13">
  <defs>
    <style>
      .cls-1 {
        fill: #808080;
      }
    </style>
  </defs>
  <g id="Layer_1-2" data-name="Layer 1">
    <path class="cls-1" d="M84.18,27.85c.31-.55,1.12-.98,.78-1.89-.34-.91-.69-.92-1-.97-.31-.05-1.07-.04-.63-.62,.44-.58,.17-1.38-.45-1.85-.62-.48-.79-.59-.94-1.02-.14-.43-.28-.73-.56-1.24-.28-.51-.41-1.15-.16-2.4,.24-1.25,.84-3.31,.29-5.85-.56-2.54-2.34-3.87-3.73-4.97-1.39-1.09-2.49-1.61-3.48-2.07-.99-.46-1.1-.33-2.06-.91-.97-.59-1.53-.93-2.39-1.16-.86-.23-1.33-.16-1.91-.63-.58-.47-1.08-.96-2.02-1.15-.94-.19-.96,0-1.25-.08-.29-.09-1.13-.38-1.66-.4-.53-.03-.65,.11-.85-.02-.2-.12-1.55-.41-2.14-.34-.58,.07-.76,.21-1.19,.06-.43-.15-1.66-.4-2.37-.34-.71,.06-1.2,.02-1.52,.1-.32,.08-.22,.15-.58,.12-.36-.03-1.75-.23-2.16,0-.41,.22-.9,.32-1.18,.26-.28-.06-1.56-.12-1.97,.09-.41,.21-.52,.09-.83,.09-.31,0-1.18-.11-1.37,.08-.19,.19-.27,.19-.56,.2-.28,0-.84-.09-1.39,.1-.56,.19-.79,.33-1.05,.29-.26-.04-1.49-.14-1.77,.05-.28,.18-.14,.48-.55,.38-.41-.1-1.48-.18-1.54,.06-.06,.24,.31,.43-.09,.35-.4-.08-.76-.17-1.22-.05-.46,.12-.68,.13-.74,.34-.06,.21-.03,.25-.32,.2-.29-.05-1-.16-1.06,.16-.06,.32,.04,.47-.25,.38-.29-.09-.91-.36-1.43-.12-.52,.24-.61,.6-.9,.5-.29-.1-.9-.12-1.49,.12-.59,.24-1.33,.4-1.77,.44-.44,.04-1.27-.09-1.71,.02-.44,.11-.92,.25-1.64,.12-.72-.14-1.83-.47-1.77-.34,.06,.12,.16,.36-.19,.3-.35-.06-2.58-.66-6.09-.52-3.5,.14-5.16,.57-7.34,.69-2.18,.12-6.52,1.5-7.91,1.94-1.39,.43-3.23,.94-4.06,1.07,0,0,2.16-.09,4.35-.58,2.19-.49,6.27-1.61,9.45-1.67,3.18-.06,7.07,.14,7.79,.68,.72,.54,1.52,1.37,.98,1.41-.54,.03,.86,1.23,1.37,1.55,.51,.32,1.03,1.02,.61,.83-.42-.19,.24,.47,.64,.73,.41,.26,.97,.8,.67,.8-.3,0-.4,.11,.28,.75,.67,.64,1.12,.84,1.06,.93-.06,.1-.3,.16,.12,.5,.43,.34,1.28,.73,1.34,.99,.06,.26-.1,.59,.64,.71,.74,.12,1.16,.26,2.55,.35,1.39,.08,2.11,.04,1.86,.54-.25,.5-2.26,2.22-4.12,2.74-1.86,.52-2.41,.02-6.47,.5-4.06,.48-9.47,1.53-10.21,2.13-.74,.6-2.27,2.15-2.69,2.25-.41,.09,.32,.6-.28,1.09-.61,.49-.17,.85-1.02,1.31-.85,.47-.77,.79-1.2,1.14-.43,.35-.91,1.16-.58,2.07,.33,.91,.94,1.03,1.48,1.23,.54,.2,.97,.86,1.92,.53,.95-.34,1.85-1.21,2.02-.95,.17,.26,.28,1.08,1.1,1.23,.82,.15,1.6,.37,2.12,.65,.53,.27,.59,.86,1.76,.99,1.17,.13,2.74,.44,3.69,.31s3.06-.99,4.2-1.77c1.14-.78,4.14-3.02,5.72-3.68,1.58-.67,2.74-.91,4.55-.46,1.82,.44,2.76,.65,2.13,1.12-.63,.47-2.33,1.57-3.57,2.15-1.24,.58-.83,.82-1.46,1.12-.63,.3-.35,.67-.7,1.14-.35,.46,.03,.68-.43,1.27-.46,.59-.26,.85-.42,1.39-.15,.54,.1,.48-.41,1.2-.51,.72-.16,.51-.68,1.37-.52,.86-.16,1.17-.68,1.82-.52,.65-.15,1.29-.83,1.93-.69,.64-.68,1.32-1.18,1.78-.49,.45-4.88,3.83-6.65,4.7-1.77,.87-4.89,3.07-.83,1.08,4.06-1.99,6.14-3.32,7.9-4.93,1.76-1.6,2.89-3.05,4.5-4.02,1.62-.98,2.26-1.14,3.31-1.96,1.04-.82,1.62-1.42,2.69-1.96,1.07-.54,2.41-.68,3.19-1.26,.79-.58,1.37-.48,2.24-1.11,.88-.64,1.37-1.35,3.37-1.82,2-.47,2.81-.63,3.51-.52,.7,.11,1.06-.23,2.04,.07,.98,.3,1.74,.14,.94,.39-.8,.25-1.13,.5-1.72,.49-.59,0-.47,.22-1.1,.31-.63,.09-.92,.45-1.95,.33-1.03-.13-.88-.02-1.7,0-.82,.02-.99,.03-1.5,.11-.51,.08-1.29,.28-.53,.6,.77,.32,1.66,.25,2.59,.64,.94,.4,1.27,.6,2.83,.64,1.56,.05,1.8,.52,2.85,.64,1.05,.12,2.68,.37,4.74-.03,2.06-.41,3.14-.9,3.66-.86,.52,.04,2.76,1.29,7.86,.84,5.1-.45,8-.86,10.21-1.85,2.21-.99,2.13-1.08,2.74-1.44,0,0,.78-.34,1.3-.99,.52-.65,.62-1.54,.87-2.22,.26-.68,.06-.95-.12-1.14-.19-.19-.88,.15-.57-.4Zm-11.92-6.33c-.99,.11-1.89-.66-2-1.72-.11-1.06,.6-2,1.59-2.11,.99-.11,1.89,.66,2,1.72,.11,1.06-.6,2-1.59,2.11Zm.68-2.01c.06,.52-.3,.99-.79,1.04-.49,.05-.93-.33-.99-.85-.06-.52,.3-.99,.79-1.04,.49-.05,.93,.33,.99,.85Z"/>
  </g>
</svg>