<?xml version="1.0" encoding="UTF-8"?>
<svg id="Layer_2" data-name="Layer 2" xmlns="http://www.w3.org/2000/svg" viewBox="0 0 86.91 57.68">
  <defs>
    <style>
      .cls-1 {
        fill: #808080;
      }
    </style>
  </defs>
  <g id="Layer_1-2" data-name="Layer 1">
    <path class="cls-1" d="M85.5,37.6c-1.55,.2-3.05,.56-4.67,.46-1.13-.07-2.34,.56-3.46,1.01-1.09,.44-2.11,1.05-3.16,1.59-.12,.06-.24,.13-.36,.14-1.37,.2-2.75,.38-4.12,.58-1.32,.2-2.67,.25-3.89,.87-.09,.06-.2,.12-.31,.17-.06,.04-.13,.08-.19,.12-.48,.33-1.03,.46-1.56,.45-1.49,.35-3.5,.61-5.65,.81-.12,.06-.24,.12-.37,.18v0c-.44,.85-1.02,1.66-1.25,2.57-.32,1.29-.59,2.65-.51,3.96,.12,1.97-.52,3.51-1.93,4.8l.05,.05-.06-.05h0c-.86,.85-1.79,1.6-2.9,2.11,0,0-.01,0-.02,0-2.27,.75-4.66-.29-5.44-2.48-.49-1.37-1.11-2.72-1-4.26,.03-.38-.43-.77-.62-1.18-.1-.22-.24-.56-.15-.72,.86-1.5,1.8-2.94,3.46-3.72,.22-.1,.44-.32,.55-.54,.03-.06,.07-.11,.1-.16-.65,.02-1.19,.03-1.59,.04-.25,.04-.52,.05-.8,.01,0,0,0,0,0,0h0c-.19-.03-.39-.07-.6-.13-.78-.23-1.64-.19-2.46-.27-.84-.08-1.73,.13-2.3-.87-.15-.27-.97-.19-1.49-.2-.83-.02-1.59,0-2.28-.71-.65-.68-1.64-.27-1.9,.68-.19,.67-.29,1.38-.52,2.03-.15,.43-.11,1.14-.96,.97-.11-.02-.34,.34-.46,.55-.39,.73-.7,1.52-1.15,2.21-.38,.58-.77,1.38-1.75,.68-.15-.11-.61,.13-.89,.28-1.22,.67-2.48,1.2-3.88,.77-1.6-.49-2.83-1.38-3.34-3.11-.52-1.77-.24-3.46,.25-5.16h-.01s-.03-.03-.03-.03l.04,.03,.27-.52c1.2-.92,2.39-1.85,3.6-2.76,.4-.3,.19-.34-.11-.47-1.39-.56-2.79-.95-4.31-.8-.29,.03-.66,.05-.89-.09-.79-.48-1.59-.28-2.41-.18-1.72,.21-3.24,.74-4.53,1.98-.93,.91-2.03,1.64-3.01,2.5-.18,.15-.13,.56-.19,.85h0s0,0,0,.01h-.01c-.78,.24-1.58,.47-2.34,.76-.93,.35-1.75,.2-2.65-.21-2.13-.97-2.82-2.96-3.67-4.85-.41-.91-.77-1.86-1.14-2.79-.13-.32-.27-.65-.31-.98-.4-3.48-.44-6.91,1.56-10.02,.95-1.47,2.38-1.8,3.92-1,.72,.37,1.5,.62,2.25,.92h.01s0,0,0,.01c.06,.05,.12,.11,.19,.16-.06,.03-.12,.05-.19,.08h0c1.88,1.05,3.76,2.1,5.66,3.12,.57,.31,1.17,.56,1.78,.78,.16,.06,.4-.12,.6-.19-.07-.18-.1-.42-.23-.52-1.37-1.04-1.74-2.48-1.87-4.12-.07-.89,.08-1.5,.73-2.07,.38-.34,.66-.8,.98-1.21,.68-.6,1.32-1.25,2.04-1.8,1.95-1.48,4.16-1.32,6.37-.87,.55,.11,1.06,.38,1.59,.58,0,0,0,0,0,0h0s.03-.01,.04-.02c0,0-.01,.01-.02,.02,.79,.43,1.57,.87,2.36,1.3,.17-1.61,.17-1.6,1.58-.89,.25,.12,.55,.13,.83,.19,.05-.33,.21-.7,.12-.98-.2-.63-.56-1.21-.79-1.83-.08-.21-.04-.65,.09-.72,.3-.16,.71-.26,1.03-.19,.26,.05,.44,.41,.69,.58,.23,.16,.51,.27,.77,.4,.07-.36,.3-.77,.2-1.08-.29-.88-.71-1.71-1.08-2.57h0c-.09,.17-.17,.34-.26,.51-.07-.26-.6-.51,0-.77,0,0,0,0-.01-.01h.01c.04-.15,.12-.46,.13-.46,.8,.16,1.84,.11,2.31,.6,.46,.49,1.31,.06,1.46,.84,.17-.18,.51-.38,.5-.55-.1-1.2-.25-2.39-.43-3.59-.05-.34-.28-.64-.35-.98-.14-.68,.29-.43,.6-.33h-.01s.01-.01,.02-.01c.08-.17,.17-.33,.25-.5,0,.17,0,.33,0,.5h0c.09,.01,.18,.01,.27,.01h-.01s.05-.05,.05-.05l-.04,.05c.7,.53,1.36,1.12,2.11,1.57,.32,.19,.86,.22,1.23,.1,.45-.15,.7-.54,.09-.89,1.43-1.78,.51-3.66,.24-5.52l-.04-.07,.07,.04c1.59,.88,2.92,2.01,3.95,3.56,.89,1.33,1.14,1.3,1.95-.09,.97-1.66,1.45-3.45,.99-5.41-.1-.4-.03-.84-.04-1.26,.28,.24,.52,.58,.85,.69,.92,.32,.85,1.25,1.27,1.86,1.01,1.47,2.09,2.89,3.15,4.33,.09-.26,.18-.52,.27-.77,.7,0,1.14-.38,1.36-1.01,.17-.49,.3-.99,.42-1.5,.13-.55,.24-1.1,.36-1.65,.42,.53,.91,1.02,1.24,1.61,.36,.63,.56,1.34,.83,2.01,0,0,.02,0,.02-.01,0,0-.01,.02-.02,.03h-.01c.06,.37,.06,.77,.19,1.13,.17,.48,.43,.92,.65,1.37,.48-.26,1.05-.44,1.4-.81,.36-.38,.54-.96,.75-1.46,.16-.39,.2-.84,.42-1.19,.13-.22,.49-.34,.76-.4,.09-.02,.25,.33,.38,.51,.07,.1,.13,.2,.2,.31,.02-.06,.04-.12,.06-.19-.02,.07-.03,.14-.05,.2h-.01c-.63,1.27,.32,2.42,.3,3.64,.1-.03,.21-.03,.29-.09,.17-.12,.32-.26,.47-.4,.12,.25-.6,.79,.27,.79h-.01s.02-.01,.02-.01c.26-.34,.52-.69,.77-1.03v-.03h.01c.45-.41,.9-.83,1.35-1.26,.16,.61,.49,1.23,.46,1.84-.07,1.38-.29,2.76-.49,4.14-.21,1.5-.23,1.51,1.21,1.9,1.39,.38,2.8,.66,4.16,1.12,.8,.27,1.51,.81,2.26,1.23,0,.09,0,.17,0,.26h.01s0,.01,0,.03c.02,.05,.04,.1,.05,.16,0,.02-.03,.06-.05,.09,1.49,1.05,2.98,2.11,4.47,3.16h-.01c.18-.01,.37-.01,.55-.01v.03c.06,.05,.12,.11,.18,.16-.06,.02-.12,.05-.18,.07h0c.44,.28,.88,.54,1.31,.81h-.01c.62,.51,1.23,1.04,1.85,1.57,0,0,0,0,0,0h0s0,.01,0,.01c.26,.35,.52,.69,.78,1.04l.04-.03-.03,.04c.35,.17,.69,.35,1.04,.52h0s.01,0,.01,0h0c.44,.52,.87,1.05,1.31,1.57,.16,.11,.36,.18,.46,.33,.15,.21,.22,.48,.33,.72l.05-.04-.04,.05c.44,.35,.87,.7,1.31,1.05,.03,.03,.05,.06,.08,.1,1.05,1.25,.92,1.92-.5,2.81-1.19,.74-2.38,1.47-3.53,2.27-.28,.19-.41,.6-.61,.91,.39,.13,.77,.37,1.17,.38,1.26,.03,2.53-.07,3.79-.04,.69,.02,1.27,.47,1.03,1.19-.2,.63-.48,1.4-1.35,1.51Z"/>
  </g>
</svg>