<?xml version="1.0" encoding="UTF-8"?>
<svg id="Layer_2" data-name="Layer 2" xmlns="http://www.w3.org/2000/svg" viewBox="0 0 98.95 65.79">
  <defs>
    <style>
      .cls-1 {
        fill: #808080;
      }
    </style>
  </defs>
  <g id="Layer_1-2" data-name="Layer 1">
    <path class="cls-1" d="M87.09,26.65c.43-.1,.87,.21,.98,.7,.11,.48-.16,.95-.59,1.05-.43,.1-.87-.21-.98-.7-.11-.48,.16-.95,.59-1.05ZM1.8,45.82c-.88-.69-1.49-1.18-1.74-2.45-.25-1.27,.45-1.09,.18-2.55-.26-1.46,.99-1.91,.73-2.48-.26-.57,1.44-.23,1.06-.74-.38-.51,1.93-.7,.94-1.27-.99-.57-2-1.1-1.51-1.25,.5-.14,1.38-.94,1.26-1.31-.12-.37,.92-1.04,.78-1.53-.14-.5-.94-1.24,.19-1.2,1.13,.04,2.83,1.25,3.59,.54,.77-.7,2.44-1.51,3.58-1.3,1.14,.21,2.06,.46,2.48-.43,.43-.89,.96-1.44,1.95-1.6,.99-.16,1.51-.77,3.13-.94,1.62-.17,2.86-1.11,4.11-.7,1.25,.41,2.42,.45,2.04-.06-.38-.51-.88-1.26-.47-1.51,.41-.26,.93-.71,.75-.93-.18-.22-.63-.29-.33-.75,.29-.46,.82-.78,.43-1.02-.39-.24-2.27-1.27-1.92-1.78,.35-.51-.82-1.44-.62-1.74,.2-.31,.13-.59-1.69-.31-1.82,.28-3.8,.59-4.58-.82-.78-1.41-.18-1.55-1.04-1.82-.85-.27-1.23-.75-2.64-1.02-1.42-.28-4.02-.68-3.91-1.37,.11-.69,.49-1.93-.93-2.67-1.42-.74-2.3-1.83-1.67-2.14,.63-.31-.73-1.32-.09-1.86,.64-.54-.31-1.81,.96-1.44,1.27,.37,2.37,1.25,4.3,1.05,1.94-.21,3.83-.63,8.11,.48,4.29,1.12,6.16,1.82,8.36,3.34,2.2,1.52,5.81,4.51,7.88,6.36,2.07,1.85,3.24,3.24,4.95,3.78,1.71,.54,1.02-.46,.53-.71-.49-.25-.63-.72-.15-.96,.48-.24-.52-.41,.36-.91,.88-.5,.2-.87,.86-1.32,.66-.45-.09-1.14,.68-1.54,.77-.41,.55-1.38,1.58-1.78,1.03-.4,.82-1.05,1.74-1.22,.92-.17,.22-.51,1.38-.91,1.17-.39,.78-.77,1.97-1.1,1.18-.33,2.08-1.03,3.2-1.22,1.12-.19,.66-.58,1.66-.84,1-.26-.06-.58,1.38-1.07,1.44-.49,.62-.47,1.31-.96,.68-.49,.03-.77,.45-1.09,.42-.33-.18-.82,.39-1.21,.57-.39-.44-.93,.09-1.37C58.34,1.71,56.44,0,58.16,0c1.72,0,5.41,.37,8.73,4.25,3.32,3.88,3.55,5.02,4.14,6.18,.59,1.16,.14,2.38,3.06,2.58,0,0,3.65,.33,5.48,1.14,1.84,.81,5.56,3.41,7.37,4.39,1.81,.98,4.45,2.14,6.69,3.55,2.24,1.41,4.15,3.16,4.87,4.46,.72,1.29,.43,1.62,.1,2.06-.33,.44-.29,.33-.06,.61,.23,.28,.16,1.29-1.01,3.01-1.17,1.72-4.28,4.47-5.86,5.82-1.58,1.35-8.05,4.79-10.04,5.77-1.99,.98-4.11,.83-5.54,1.25-1.43,.42-1.83,.68-1.77,1.09,.06,.42,.97,6.66-1.64,9.43-2.61,2.77-5.32,7.48-8.69,9.27-3.37,1.79-3.39,.67-3.48-.47-.09-1.14-.64-.65-.72-2.02-.08-1.37-.65-1.11-.42-2.32,.22-1.21-1.22-1.44-.54-2.26,0,0-4.36,2.64-7.36,2.72-2.99,.08-3.12-.78-2.81-1.18,.31-.4-.92-.98-.76-1.91,.15-.93-.84-1.69-.46-2.61,.39-.91,.18-1.56,1.34-2.29,1.16-.72,.83-1.18,2.12-2.03,1.29-.85,.65-.78,1.84-1.8,1.19-1.03,.79-1.34,1.53-2.03,.74-.7-.25-.84,.84-1.55,1.1-.71,.28-.79,.91-1.23,.63-.44-.13-.73,.53-1.01,.66-.28,.45-.63,.86-.59,.41,.04,2.08,.59,2.78,.43,0,0-.94-.51-2.61-1.16-1.67-.65-3.37-1.75-3.88-2.23-.51-.48-1.14-1.23-1.64-.69-.51,.54-1.53,2.16-6.47,3.87-4.94,1.71-7.15,2.31-7.97,2.33-.82,.02-1.25-.11-.96-.44,.29-.33-.02-.69,.66-1.01,.69-.32,.81-.68,1.6-1.12,.79-.44-.5,.41,.44-.96,.95-1.37,.57-1.58,1.26-2.17,.69-.59-.13-.86,.66-1.9,.79-1.04,.02-1.06,.42-1.65,.4-.59-.3-.73,1.27-1.11,1.57-.39,5.39-.75,2.96-1.1-2.43-.34-5.52-1.43-8.46-.14-2.95,1.29-7.38,4.51-9.66,6.44-2.28,1.94-5.54,5.91-12.88,8-7.33,2.08-11.28,.3-12.71-.77-1.43-1.07,.45-.37-.44-1.06ZM87.78,29.72c1.09-.25,1.76-1.43,1.49-2.65-.27-1.22-1.38-2-2.48-1.75-1.09,.25-1.76,1.43-1.49,2.65,.27,1.22,1.38,2,2.48,1.76Z"/>
  </g>
</svg>