<?xml version="1.0" encoding="UTF-8"?>
<svg id="Layer_2" data-name="Layer 2" xmlns="http://www.w3.org/2000/svg" viewBox="0 0 76.91 57.63">
  <defs>
    <style>
      .cls-1 {
        fill: #808080;
      }
    </style>
  </defs>
  <g id="Layer_1-2" data-name="Layer 1">
    <path class="cls-1" d="M58.52,41.55s0,0,0,0c0,0,0,0,0,0,0,0,0,0,0,0Zm-.28-2.07s0-.02,.01-.04c0,0,0-.01,0-.02,0,.02,0,.04-.01,.05ZM.11,21.24s0,0,0,0c.19,.53,.45,1.05,.66,1.57,.23,.58,.45,1.17,.66,1.77,.41,1.18,.79,2.37,1.18,3.55,.71,2.15,1.44,4.14,2.75,6.33,.62,1.03,1.33,1.96,2.31,2.66,2.15,3.32-.67,10.66-.54,11.06,.05,.16,.3,.14,.31-.04,.51-.28,.96-.72,1.37-1.11,.47-.45,.91-.93,1.33-1.42,.84-.99,1.58-2.06,2.22-3.19,.35-.62,.66-1.26,.94-1.91,0,0,0,0,0,0,.15,.08,.31,.17,.46,.25,.3,.16,.61,.3,.91,.45,.61,.28,1.24,.55,1.87,.8,.28,.11,.56,.22,.84,.32-.06,.05-.12,.1-.18,.14-.23,.18-.53,.27-.74,.47,.86,.42,1.79,.31,2.66-.02,.43,.13,.87,.26,1.31,.37,.36,.09,.73,.17,1.09,.24,.1,.02,.21,.04,.31,.06,1.08-.84,2.24-1.58,3.44-2.23,2.31-1.24,4.76-2.18,7.18-3.17,.02,0,.03,.02,.01,.03-1.34,.58-2.66,1.18-3.98,1.82-2.22,1.07-4.41,2.33-6.35,3.86-.63,.5-1.24,1.04-1.81,1.61-1.38,1.54-2.59,3.22-3.43,5.12-.46,1.02-.81,2.09-1.02,3.19-.11,.54-.18,1.1-.21,1.65-.02,.29-.02,.58-.02,.87,0,.13,0,.27,.01,.4,0,.07,.02,.14,.04,.21,0,.02,0,.03,0,.05,.01,.39,.36,.65,.74,.64,.43-.01,.72-.37,.95-.69,.55-.76,.96-1.6,1.44-2.4,.89-1.47,2.17-2.61,3.62-3.52,3.18-1.98,6.93-2.75,10.13-4.7,.08-.05,.17-.11,.25-.16,.32-.16,.66-.31,1-.43,.76-.63,1.45-1.34,2-2.16,.02-.02,.06,0,.04,.02-.27,.43-.57,.85-.89,1.26,.34-.42,.67-.86,.96-1.32,.02-.03,.06,0,.05,.02-.2,.66-.47,1.29-.89,1.84,0,0-.01,.01-.02,.02,.83-.15,1.67-.2,2.51-.17,.2,0,.39,.02,.59,.04-.37,.29-.76,.56-1.12,.85,.43,.04,.86,.17,1.3,.22,.66,.08,1.38,.12,2.04,.06,.71-.06,1.43-.27,2.13-.56,.5,.07,1,.12,1.5,.15,1.98,.12,3.98-.14,5.88-.74,.94-.3,1.86-.69,2.73-1.16,.87-.47,1.68-1.04,2.53-1.55,.46-.27,.93-.53,1.43-.73,0,0,.02-.01,.02-.02,.15-.13,.29-.28,.42-.43,.27-.33,.5-.7,.66-1.1,.19-.46,.3-.96,.36-1.46,.05-.45,.09-.91,.14-1.36,.04-1.13,.27-2.26,.69-3.32,.01-.03,.06-.02,.05,.01-.24,.7-.37,1.44-.43,2.18-.1,1.28,.12,2.61,.53,3.82,.19,.58,.44,1.14,.73,1.68,1.46,.93,3.06,1.61,4.67,2.25,3.24,1.29,6.89,2.57,8.97,5.56,.6,.86,1.04,1.82,1.61,2.69,.25,.38,.55,.86,1.03,.95,.41,.08,.83-.19,.85-.62,0-.02,0-.03,0-.05,.02-.05,.03-.1,.04-.15,.01-.11,.01-.23,.01-.34,0-.27,0-.54,0-.8-.02-.49-.07-.97-.15-1.45-.16-1-.44-1.97-.81-2.91-.74-1.88-1.84-3.58-3.14-5.13-2.69-3.21-6.11-5.64-9.35-8.25-.93-.75-1.85-1.51-2.74-2.31-.57-.52-1.1-1.08-1.44-1.76,.06-2.01-.21-4.02-.72-5.97-.6-2.33-1.58-4.57-2.84-6.62-.84-1.36-1.8-2.64-2.87-3.82v.03s-.04-.05-.07-.08c-2.8-3.08-8.1-7.47-13.94-10.36C31.59-.91,26.07-.44,25.64,1.43c-.2,.85,.45,3.13,2.28,4.96,.1,0,.2,0,.29,0,.66,0,1.33-.03,1.99,.05,.58,.07,1.13,.23,1.66,.46,1.02,.45,2.04,1.22,2.63,2.19,.01,.02-.02,.05-.04,.03-.44-.5-.91-.96-1.47-1.33-.98-.65-2.15-.98-3.32-1.02-.66-.02-1.31,.02-1.97,0-.1,0-.2-.01-.31-.02-.85,.67-.73,3.24-.43,4.54,.38,1.61,1.18,4.98,1.57,5.98,.05,.14,.11,.27,.17,.4,.55,1.94,1.09,3.88,1.68,5.81,.43,1.4,.85,2.81,1.28,4.21,.29,.96,.82,2.58,1.12,3.49,.61,2.92-.66,5.11-2.33,5.6-.02,0-.03,.01-.05,.02-.29,.1-.57,.2-.86,.31-.58,.22-1.17,.43-1.77,.61-1.19,.38-2.41,.66-3.66,.81-2.35,.29-4.75,.14-7.01-.6-.93-.31-1.8-.72-2.63-1.2-.33-.31-.65-.62-.94-.96-.46-.52-.87-1.09-1.24-1.68-.77-1.21-1.39-2.5-2.1-3.74-1.51-2.65-3.29-5.23-5.72-7.13-1.28-1-2.72-1.8-4.29-2.25-.19-.05-.26,.23-.08,.29Z"/>
  </g>
</svg>