<?xml version="1.0" encoding="UTF-8"?>
<svg id="Layer_2" data-name="Layer 2" xmlns="http://www.w3.org/2000/svg" viewBox="0 0 101.1 42.88">
  <defs>
    <style>
      .cls-1 {
        fill: #808080;
      }
    </style>
  </defs>
  <g id="Layer_1-2" data-name="Layer 1">
    <path class="cls-1" d="M95.68,12.27c.08,.31-.1,.63-.41,.72-.31,.08-.63-.1-.72-.41-.08-.31,.1-.63,.41-.72,.31-.08,.63,.1,.72,.41Zm5.07,3.66c-.29,.39-.26,.6-.2,.74,.06,.14,.34,.38-.34,1.28-.68,.89-2.43,2-6.28,3.25-3.85,1.25-4.14,.93-6.64,1.45-2.49,.51-4.03,.59-4.32,.67-.29,.08-.32,.17-.8,1.43-.48,1.26-.65,2.47-.77,3.47-.12,1.01-.32,1.45-.43,1.62-.11,.16-.56,.55-.56,.55-.24-.11-.36,.43-.59,.93-.23,.5-.4,.48-1.33,1.13-.93,.65-.78,1.47-1,2.99-.22,1.52-.59,.21-.46-.21,.13-.42-.21-.08-.61,.2-.4,.28-.24-.32,.02-1.3,.26-.98,.08-1.25,.17-2.03,.09-.78,.11-1.35,.94-2.9,.83-1.56,.92-2.63,.92-2.63,0,0-.23,.12-.98,.46-.75,.34-1.13,.44-2.36,.69-1.23,.24-1.26,.22-2.43,.62-1.17,.4-2.09,.53-4.01,.68-1.42,.11-1.6-.03-1.59-.12-.05,.1-.2,.38-.63,1.21-.66,1.26-1.8,2.59-2.58,3.43-.77,.84-1.28,1.9-2.01,3.07-.74,1.17-1.96,2.61-4.25,4.33-2.3,1.72-2.73,1.47-3.94,1.88-1.21,.4-.55-.77-1.16-.69-.61,.09,.21-.48,.49-.82,.28-.34,.58-.76-.02-.68-.61,.09,.08-.6-.02-.94-.09-.34-.13-1.26,.32-2.22,.45-.96,.64-2.2,.89-3.43,.25-1.23-.57,.02-1.45,.97-.88,.95-.7,1.11-2.04,3.08-1.34,1.97-.26-.46,.21-1.56,.47-1.1,.95-1.57,1.7-2.67,.76-1.1,1.62-2.01,.96-1.6-.65,.41-.1-.55,.9-1.56,.99-1-.67-.06-2.87,1.46-2.2,1.51-2.27,1.26-3.55,1.56-1.29,.29-.93-.57,.37-.98,1.3-.4,.65-.58,1.49-.91,.84-.33-.95,0-1.77-.17-.82-.17-.12-.46,1.03-.49,1.15-.03,2.09-.19,3.08-.37,.99-.18,2.2-1.87,3.95-2.99,1.75-1.12,2.67-2.12,5.57-4.52,2.9-2.4,6.01-1.97,6.98-2.04,.97-.07,.29-.15-1-.47-1.3-.32-3.63-.78-6.56-1.21-2.93-.44-3.43-.93-5.38-1.29-1.95-.35-4.87,1.33-6.08,2.43-1.21,1.1-3.61,3.52-4.99,4.52-1.38,1-2.56,2.46-4.63,3.2-2.07,.73-3.26-.03-3.86-.24-.6-.21,.49-.26,.13-.42-.36-.17,.03-.59,1.2-1.16,1.16-.58,2.17-3.48,2.51-4.03,.34-.55,.33-1.3,.62-2.12,.29-.81,1.1-1.4,2.37-2.39,1.28-.99-.83,0-1.86,.27-1.03,.28-1.15-.09-.65-.33,.5-.24-.96-.18-1.47-.45-.51-.27,1.22-.61,3.46-.91,2.23-.3,3.71-1.21,5.16-1.37,1.45-.16,1.15-.43,1.88-.63,.74-.2,.1-.22-1.31-.68-1.41-.46-2.53-.65-5.14-.46-2.61,.2-6.04,2.58-8.02,4.22-1.98,1.64-3.04,2.28-4.56,2.99-1.53,.71-2.15,1.46-2.66,2.19-.5,.73-.59,1.58-1.71,2.51-1.12,.93-1.84,2.6-3.11,4.68-1.26,2.08-3.51,4.47-4.94,5.38-1.42,.91-3.92,1.53-6.79,2.16-2.87,.63-2.82-.75-3.44-1.32-.63-.57-.64-.48-1.98-.85-1.35-.37-1.35-1.37-.59-1.49,.76-.12,.48-.23,.17-.59-.31-.36,.44-.44,.66-.55,.22-.11-.32-.47-.73-.82-.41-.35-.11-.74,.27-.9,.38-.15-.13-.3-.41-.63-.28-.33,.15-.57,.92-.9,.77-.33-2.48-.42-3.3-.51-.81-.1-.96-.16-.63-.53,.32-.37,.02-.27-.04-.62-.06-.35,.76-.77,1.3-.89,.54-.13,.73-.3,.77-.59,.04-.29,1.03-.42,2.03-.72,1.01-.31,.98-.79,1.4-1.31,.42-.52,.1-.34-.49-.2-.59,.14-1.16,.17-1.95,0-.78-.17-.08-.42,.65-1.02,.73-.6,.4-.46,1.32-.69,.92-.23,1.69-.62,.66-.55-1.03,.07-.1-.32,1.03-.79,1.14-.47,4.32-1.22,4.94-1.35,.61-.13,1.02-.64,1.6-1.08s.59-1.46,.74-2.02c.15-.57,.64-.54,1.43-.95,.79-.41,.76-1.14,1.08-1.64,.32-.51,3-.97,4.39-1.34,1.39-.37,1.92-1.1,3.9-1.88,1.98-.78,5.25-1.29,6.38-1.67,1.13-.37,.13-.3-1.43-.17-1.56,.12-1.74,.3-3.77,.98-2.03,.69-2.96,.85-3.76,1.01-.8,.16-1.42,.38-3.99,1.15-2.57,.76-4.95,.65-6.26,.72-1.31,.07-1.82,.03-2.84,.33-1.03,.29-1.64,.74-3.03,1.08-1.38,.34-1.56,.65-2.59,1.35s-2.22,.86-3.23,1.03c-1.01,.17-1.02-.29-.66-.68,.37-.4-.51-.06-1.26,.09-.75,.15-.65-.58-.45-.69,.2-.11,.32-.05,.36-.36,.04-.31,1.59-.55,2.46-.84,.87-.29,1.13-.62,2.06-.89,.93-.27,.58-.51,.82-.87,.24-.36,.58-.63,1.76-1.3,1.17-.67,1.68-1.17,2.62-1.93,.93-.76,1.25-1.28,2.35-1.63,1.1-.35,1.05-1,1.6-1.66,.56-.66,1.29-1.45,2.44-1.68,1.15-.22,2.17-.74,3.2-1.28,1.03-.54,1.68-1.17,3.53-.95,1.85,.22,3.27-.51,6.21-1.11,2.94-.6,3.81-.47,5.63-.1,1.82,.37,3.19,.65,5.59,.88,2.4,.23,2.65,.64,3.21,.89,.56,.25,.43,.04,.68-.09,.24-.14,.14-.27,.18-.43,.04-.17,.76-.31,.93-.36,.17-.05,0-.17-.08-.3-.07-.12,.09-.04,.32-.07,.22-.02,.28-.13,.24-.35-.04-.22,.62-.24,1.14-.13,.52,.11,.22-.08-.12-.33-.35-.26,.4,0,.98,.19,.58,.19,.42-.08,.22-.23s-.06-.49,.7-.19c.77,.3,2,.65,3.45,1.03,1.45,.38,1.74,.02,4.23-.25,2.49-.27,4.52-.22,6.11-.38,1.59-.17,4.3-.25,5-.28,.69-.03,.22-.09-.03-.24-.25-.14,.6,.01,1.19,.13,.59,.12,.62,.03,.14-.21-.49-.24,.59,.05,1.06,.17,.47,.12,1.07,.13,.7-.01-.37-.14-1.26-.33,.42-.11,1.69,.21,3.28,.97,4.46,1.74,1.18,.76,2.87,1.07,5.78,1.73,2.91,.66,4.61,1.47,5.9,2.15,1.29,.68,1.87,.5,3.65,.94,1.78,.44,4.57,2.22,6.26,3.6,1.69,1.39,2.85,2.47,3.34,3.52,.49,1.05,.2,1.73-.08,2.13Zm-25.99,6.99s-.74-.06-1.29-.04c-.56,.03-.76-.15-1.18,.32-.42,.46-.86,.83-1.73,1.51-.87,.68-1.82,1.51-1.85,1.73,0,.05,.25-.19,1.25-.64,1-.45,1.31-.69,1.1-.67-.21,.02-.36-.22,.22-.41,.58-.19,.7-.19,1.19-.52,.49-.33,.29-.43,1.17-.79,.89-.36,1.11-.51,1.11-.51Zm21.57-10.98c-.19-.69-.9-1.1-1.59-.91-.69,.19-1.1,.9-.91,1.59,.19,.69,.9,1.1,1.59,.91,.69-.19,1.1-.9,.91-1.59Z"/>
  </g>
</svg>