<?xml version="1.0" encoding="UTF-8"?>
<svg id="Layer_2" data-name="Layer 2" xmlns="http://www.w3.org/2000/svg" viewBox="0 0 83.2 46.55">
  <defs>
    <style>
      .cls-1 {
        fill: #808080;
      }
    </style>
  </defs>
  <g id="Layer_1-2" data-name="Layer 1">
    <path class="cls-1" d="M82.12,22.09s0,.01,.01,.01c1.42,1.3,1.03,1.46,.94,1.82-.09,.36-.41,.26-1.28,.45-.86,.19-1.76,1.09-2.19,1.37-.09,.06-.16,.11-.21,.16-.12,.11-.04,.3,.12,.3,.2,0,.47,0,.74,.06,.55,.13,1.1,0,2.07-.35,.97-.36,.02,.48-.66,1.53-.68,1.05-3.21,1.94-3.68,2.32-.47,.38-2.37,1.83-3.45,2.04s-2.28,1.13-4.03,2.06c-1.26,.67-2.99,1.1-3.86,1.29-.32,.07-.64,.16-.94,.28-2.5,.96-4.28,.25-4.33,1.07-.05,.86-.31,1.52-1.83,4.81s-2.19,4.31-2.36,4.28c-.17-.02-.31-2.24-.38-2.09-.06,.12-2.53,2.4-3.18,3-.08,.08-.21,.05-.26-.05-.09-.19-.25-.56-.51-1.26-.48-1.31-.31-4.57-.5-6.07-.19-1.5,1.38-2.19,1.5-2.88,.12-.69-1.39,1.29-7.51,.34-6.12-.95-5.28-.82-5.96,.18s-.52,1.7-.95,1.99c-.43,.29,.29-1.77-.15-.96s-3.54,3.44-3.2,2.38c.33-1.06,.14-2.22-.44-1.89-.59,.33-1.55,.54-1.68,.33s1.51-1.87-.38-1.05c-1.89,.82-2,.9-2.06,0-.06-.9-2.24-.18-3.14-1.18-.9-1-2.69-2.51-3.51-3.25-.82-.74-.6-1.46-.84-2.2-.25-.74-.46-.92-.83-1.54-.37-.62,.35-.54,.51-.61,.16-.07,1.43-.39,2.09-.66,.67-.27,.11-.33-.05-.6-.16-.27-4.11-1.17-5.52-1.21-1.41-.03-1.89,1-2.97,1.3-1.08,.3-2.79,1.9-4.87,2.82-2.08,.92-2.54,1.4-4.79,2.11-2.25,.71-4.74,1.21-5.95,1.35-1.21,.13-1.28,.09-1.56-.2s.21-.94,1.33-1.32c1.12-.38,1.49-.63,2-.93,.51-.3,.44-.25,.83-.44,.39-.19,1.12-1.06,1.48-1.53,.36-.48,.48-.31,.98-.59,.5-.29,.12-.74,1.31-1.74,1.19-1,1.33-2.39,1.59-4.1,.25-1.71-.76-4.19-.76-4.97s-.92-.92-1.08-2.09c-.16-1.17-2.32-2.86-3.41-3.49s-1.07-1.56-1.13-1.78c-.06-.23-1.4-.63-.86-.96,.52-.32,2.8,.62,3,.7,0,0,.02,0,.03,0,3.01,.63,7.48,3.98,8.31,4.2,.82,.22,1.84,1.36,5.16,3.41,3.32,2.05,5.82,.9,6.95,.84,1.13-.06,2.48-1.12,2.51-1.42,.04-.3-.95-.05-2.72-.05s-1.27-.07-1.88-.56c-.61-.49,.35-1.92,.35-2.63s.19-.57,1.17-1.74c.98-1.17,4.19-2.84,5.71-2.88,1.52-.04,1.45-1,1.86-1.05,.41-.05,.86,.43,.95-.09s.07-.56,.68-.33,.89,.33,1.15,.26,.36-.01-.03-.83c-.39-.82-.71-.86,.43-.24,1.14,.61,1.32,.14,1.32-.07s-1.07-1.92-.33-1.09c.75,.83,2.19,.77,2.04,.35-.15-.42-.68-1.15-.48-1s.43,.27,.75,.45c.32,.18,2.03,.93,1.75,.02-.29-.9-.37-1.11-.14-.93,.23,.18,1.74,.65,2.05,.28,.31-.37-.54-1.82-.02-1.21s1.98,.6,1.71,.15-1-1.53-.49-1.02c.51,.51,2.23,.7,2.41,.36,.18-.34-1.49-1.77-.73-1.4,.76,.37,2.9,.62,3.22,.13,.32-.49-1.18-1.7-.8-1.56s4.12,2.42,4.78,1.32-2.09-2.59-.63-2c1.3,.52,5.77,4.21,6.73,5,.09,.08,.23,.03,.27-.08,.51-1.65-1.54-2.28-.41-2.14,1.09,.13,2.78,2.9,3.05,3.36,.02,.04,.07,.07,.12,.08,1.12,.19,2.22,.45,3.3,.79,1.35,.42,2.68,.95,3.93,1.6,1.01,.52,1.97,1.12,2.88,1.8,.66,.5,1.29,1.04,1.86,1.64,.44,.46,.81,.9,1.04,1.51,.21,.55,.54,1.06,.87,1.55,.34,.5,.72,.97,1.15,1.38,.31,.29,.64,.56,.95,.85,.65,.63,1.27,1.29,1.86,1.98,.52,.61,1.03,1.23,1.49,1.89,0,0,0,0,0,.01l.63,.74Z"/>
  </g>
</svg>