<?xml version="1.0" encoding="UTF-8"?>
<svg id="Layer_2" data-name="Layer 2" xmlns="http://www.w3.org/2000/svg" viewBox="0 0 75.72 49.78">
  <defs>
    <style>
      .cls-1 {
        fill: #808080;
      }
    </style>
  </defs>
  <g id="Layer_1-2" data-name="Layer 1">
    <path class="cls-1" d="M33.62,11.46c-.5-.91-1.27-1.67-1.6-2.68,1.13,.13,2.03,1,3.17,1.07,.41,.02,.81-.38,.7-.79-.23-.93-.97-1.63-1.2-2.56,1.26-.02,2.25,1.15,3.53,.92-.07-1.03-.98-1.72-1.15-2.73,1.35-.07,2.4,1.16,3.76,.99,.32-1.31-1.09-2.2-1.16-3.47,1.35,.27,2.17,1.55,3.38,2.11,.2,.05,.41,.08,.62,.09,0-.26,.05-.54-.07-.78-.56-1.37-1.74-2.36-2.45-3.64,1.63,.13,2.73,1.52,3.76,2.64,1.61,1.87,3.61,3.45,4.74,5.69-1,.14-1.95,.51-2.9,.84-.61-.38-1.11-.9-1.71-1.28,.35,.57,.91,.96,1.32,1.49-.26,.09-.5,.24-.77,.26-.73-.25-1.25-.83-1.88-1.24,.39,.62,.95,1.11,1.47,1.62-.3,.09-.59,.23-.9,.25-.73-.28-1.2-.95-1.9-1.29,.44,.66,1.12,1.1,1.59,1.73-.23,.09-.45,.19-.68,.24-.79-.19-1.37-.78-2.05-1.2,.4,.65,1.04,1.1,1.58,1.62-.28,.13-.53,.39-.85,.37-.76-.23-1.33-.81-2.04-1.14,.47,.63,1.15,1.06,1.67,1.64-.28,.17-.56,.59-.92,.4-.69-.24-1.27-.69-1.91-1,.48,.61,1.12,1.05,1.67,1.58-.21,.15-.4,.36-.66,.42-.81-.12-1.46-.66-2.21-.95,.5,.58,1.18,.97,1.76,1.48-.23,.19-.46,.5-.8,.42-.74-.14-1.36-.6-2.08-.81,.56,.54,1.25,.91,1.81,1.45-.21,.15-.4,.31-.63,.42-.78-.07-1.44-.54-2.18-.73,.55,.49,1.2,.86,1.77,1.33-.23,.14-.43,.38-.71,.42-.76-.08-1.44-.47-2.17-.66,.59,.48,1.29,.81,1.89,1.29-.2,.15-.38,.33-.61,.42-.79,0-1.49-.44-2.25-.6,.54,.46,1.2,.74,1.76,1.17,0,.23-.1,.37-.32,.42-.8,.14-1.52-.35-2.3-.42,.58,.4,1.24,.66,1.82,1.05-.7,.81-1.74,0-2.6,.04,.53,.37,1.15,.57,1.73,.88-.67,.88-1.74,0-2.61,.06,.51,.34,1.12,.49,1.63,.83,.19,.24-.09,.33-.27,.42-.75,0-1.46-.29-2.2-.31,.56,.33,1.2,.48,1.79,.74-.18,.17-.3,.43-.55,.5-.65-.05-1.27-.27-1.93-.26,.44,.37,1.03,.37,1.54,.57,.18,.29-.21,.48-.44,.51-.53,0-1.07-.1-1.6-.05,.48,.24,1.01,.31,1.52,.46-.44,.55-1.15,.55-1.8,.56,.24,.08,.49,.16,.73,.24-.23,.42-.66,.71-1.07,.94-.29,.15-.49-.21-.63-.41,.22-.3,.54-.52,.73-.84,.06-.36,.14-.72,.17-1.08-.29-.9-.95-1.63-1.24-2.54,.31-.21,.64-.41,.96-.6-.3-.39-.76-.72-.77-1.25,.48-.14,.98-.21,1.46-.36-.2-.53-.58-1-.61-1.58,.51-.12,1.04-.15,1.55-.27,.25-.07,.62-.21,.54-.54-.09-.61-.39-1.18-.43-1.8,.69-.08,1.38,.26,2.07,.08,.13-.21,.13-.47-.02-.67-.39-.58-.98-1.01-1.23-1.68,.99-.06,1.95,.55,2.92,.23-.01-.23,.06-.48-.06-.69Zm22.15,36.65c.19-.66,.17-1.39,.65-1.95-.15-.14-.29-.29-.43-.43,.19-.36,.39-.71,.56-1.08-.24-.07-.49-.13-.73-.19,.25-.4,.52-.79,.73-1.22-.33,0-.66,.02-.99,.03,.2-.46,.44-.91,.64-1.38-.37,.03-.75,.06-1.12,.08,.18-.42,.42-.81,.63-1.22-.36-.02-.72-.03-1.07-.07,.24-.44,.52-.85,.78-1.27-.34,.01-.68,.03-1.02,.05,.22-.65,.78-1.06,1.25-1.53-.94,.08-1.85,.35-2.77,.5-3.35,.66-6.85,.71-10.18-.12-3.49-.81-6.77-2.34-10.3-3-1.58-.27-3.2-.36-4.8-.16-1.99,.14-3.97,.76-5.56,1.97-.91,.68-1.62,1.57-2.39,2.4-1.8,2.05-3.78,3.98-6.06,5.49-2.2,1.47-4.64,2.62-7.2,3.31-.75,.2-1.54,.34-2.32,.23-.74-.11-1.42-.54-2.18-.53-.65-.02-1.26,.22-1.87,.39,.62-.35,1.31-.61,2.04-.58,.85,.02,1.61,.52,2.47,.51,.82,0,1.61-.29,2.3-.7,.51-.3,.83-.87,1.39-1.1,1.88-.87,3.8-1.67,5.59-2.7-.92,.26-1.78,.68-2.67,1.02-1,.42-2.04,.76-3,1.28,.21-.47,.18-1.16,.74-1.38,1.25-.64,2.57-1.13,3.76-1.87-1.37,.48-2.76,.94-4.05,1.6,.01-.42,.03-.84,.05-1.27,1.49-.65,3.05-1.17,4.47-1.98-1.52,.36-2.95,1.02-4.45,1.47,.03-.41,.08-.82,.12-1.22,1.54-.59,3.09-1.19,4.57-1.94-1.52,.33-2.96,.9-4.44,1.39,.05-.38,.11-.76,.17-1.13,1.65-.58,3.31-1.15,4.88-1.91-1.65,.29-3.23,.9-4.85,1.34-.03-.4-.07-.8-.11-1.2,1.85-.6,3.73-1.16,5.5-1.98-.96,.1-1.87,.4-2.79,.64-.96,.29-1.94,.47-2.89,.77-.18-.52-.38-1.02-.59-1.53,2.01-.43,4-.99,5.93-1.68-.93,0-1.82,.3-2.73,.47-1.14,.22-2.29,.45-3.44,.65-.19-.48-.37-.97-.54-1.46,1.87-.28,3.76-.54,5.58-1.07-1.92,0-3.83,.23-5.72,.5-.13-.5-.25-1-.36-1.5,1.65-.07,3.3-.05,4.94-.28-1.64-.38-3.35-.12-5.01-.33-.06-.4-.12-.79-.17-1.19,1.43,.11,2.85,.14,4.28,.15,.14-.04,.46,.12,.43-.14-1.59-.14-3.17-.37-4.76-.52-.08-.47-.17-.93-.28-1.39,1.35,.23,2.72,.35,4.09,.42-1.36-.41-2.78-.59-4.16-.93-.42-.33-.51-.95-.78-1.4,1.59,.34,3.2,.67,4.82,.84-1.62-.57-3.32-.91-4.99-1.3-.59-.24-.97-.82-1.57-1.05-.98-.53-2.13-.39-3.17-.12,1.66-1.08,3.72-.68,5.55-.42,2.27,.4,4.54,.94,6.64,1.92,2.27,1,4.24,2.68,6.7,3.2,2.08,.54,4.33,.13,6.16-.95,2.58-1.36,4.72-3.39,6.68-5.52,1.95-2.17,3.85-4.39,5.91-6.46,2.5-2.47,5.26-4.76,8.49-6.19,1.85-.78,3.92-1.44,5.93-.9,1,.22,1.86,.86,2.86,1.11,1.13,.29,2.3,.33,3.45,.48,4.95,.46,9.83,1.49,14.65,2.71-.92,1.18-1.26,2.68-1.52,4.12-.05,.49-.23,1.16,.25,1.51,.34,.11,.56-.24,.73-.47,.63-1.01,.95-2.18,1.65-3.15,.2-.33,.7-.32,.93-.03,.09,.28,0,.58-.14,.83-1.09,1.93-2.61,3.56-3.85,5.38-.37,.51-.64,1.1-1.09,1.56-.7,.5-1.58,.67-2.43,.59-1.86-.17-3.58-.96-5.28-1.68-1.19-.53-2.53-1.05-3.23-2.22-.78-1.28-.72-2.83-.85-4.27-.23,1.53-.26,3.21,.54,4.59,.67,1.18,1.95,1.77,3.14,2.3,2.1,.91,4.29,1.91,6.64,1.76-1.29,.66-2.76,1.03-4.21,.87-1.26-.16-2.28-.98-3.41-1.47-1.27-.61-2.71-1.02-3.7-2.09-.91-1.05-1.49-2.38-1.66-3.76-.15-.94,0-1.89,.06-2.83-.53,1.43-.72,3.02-.24,4.49,.45,1.36,1.23,2.69,2.5,3.42,1.39,.8,2.94,1.28,4.32,2.11,1.29,.79,2.91,.89,4.35,.52,1.26-.3,2.44-.88,3.45-1.68-.44,.84-1.07,1.57-1.8,2.17-.46,.39-1.05,.58-1.49,.98-.49,.63-.82,1.37-1.28,2.02-1.57,2.31-3.49,4.42-5.82,5.98,1.81,4.93-.32,10.84-4.6,13.78-.76,.55-1.69,.72-2.59,.84,1.04-.28,2.21-.66,2.75-1.67Zm11.67-33.54c.4-.04,.8-.02,1.2,.02-.17-.14-.32-.3-.51-.4-.31-.12-.49,.22-.7,.38Zm-5.28-1.62c-.6,.14-.92,.79-.85,1.37,.03,.68,.59,1.29,1.28,1.33,.84,.08,1.56-.81,1.34-1.63-.08-.83-1.03-1.26-1.78-1.07Zm-1.31,3.11c.52,.39,1.21,.25,1.79,.07-.6,.03-1.32,.09-1.74-.45-.81-.82-.58-2.23,.25-2.94,.44-.45,1.09-.53,1.65-.74-.8-.32-1.65,.11-2.2,.68-.92,.91-.83,2.63,.25,3.37ZM17.91,34.59c-.18,.13-.36,.28-.54,.42,.01-.48,.09-.96,.13-1.44-.77,.81-.46,2.12,.38,2.76-.07-.3-.18-.6-.25-.89,.03-.3,.2-.56,.28-.84Zm.7-3c-.14,.2-.28,.4-.41,.6-.07-.23-.16-.46-.18-.69,.13-.38,.33-.74,.43-1.13-.59,.24-.93,.95-.72,1.56,.16,.49,.42,.94,.71,1.37,.03-.58,.08-1.15,.17-1.72Zm2.5,1.42c-.23,.2-.42,.45-.6,.69-.1-.64,.07-1.27,.16-1.9-.81,.91-.5,2.37,.37,3.13-.05-.29-.13-.56-.17-.85,.06-.36,.21-.71,.25-1.08Zm6.76-.72c.13,.38,.26,.76,.43,1.13,.08-.2,.15-.41,.19-.62-.05-.3-.4-.36-.62-.51Zm.37-1.31c.02-.54-.06-1.08-.01-1.62-.16,.2-.33,.4-.51,.58,.08-.57,.34-1.1,.44-1.67-.25,.1-.54,.21-.59,.51-.31,.8,.16,1.61,.68,2.19Zm-3.3,3.96c-.28-.77,.33-1.69-.36-2.31-.11,.42,.01,.85,.04,1.28-.23-.34-.42-.72-.53-1.12,0-.49,.25-.93,.36-1.4-.57,.4-.88,1.2-.61,1.86,.24,.63,.6,1.22,1.09,1.69Zm1.03-4.42c-.16,.31-.26,.65-.34,.99-.34-.72-.03-1.47,.25-2.15-.43,.24-.83,.63-.83,1.16,.02,.66,.51,1.16,.87,1.68,.01-.56,.1-1.11,.05-1.67Zm2.68,3.61c-.25-.78-1.12-1.1-1.42-1.84-.16-.48-.05-1-.05-1.49-.25,.47-.46,1.02-.27,1.55,.29,.8,.91,1.51,1.74,1.78Zm15.66-14.74c.45,1.28,1.98,1.85,3.23,1.7-.47-.23-.98-.36-1.46-.57-.09-.74,.39-1.35,.61-2.03-.63,.47-.83,1.26-1.04,1.97-.79-.76,.02-1.78,.21-2.63-.6,.55-.8,1.37-.88,2.15-.2-.43-.54-.87-.45-1.37,.1-.61,.43-1.15,.59-1.74-.58,.66-1.2,1.61-.8,2.51Zm-5.88,2.1c.46,.52,1.01,1.03,1.72,1.12-.55-.47-.56-1.17-.73-1.82-.01,.36-.03,.72-.03,1.08-.42-.39-.4-.98-.58-1.49-.08,.31-.14,.63-.2,.95-.43-.54-.42-1.24-.55-1.89-.35,.68-.11,1.5,.37,2.05Zm-5.79,5.77c0,.48,.19,.92,.54,1.24-.12-.44-.22-.9-.54-1.24Zm-1.93,3.84c.11-.18-.05-.59-.29-.55-.11,.18,.05,.58,.29,.55Zm1.29,1.67c-.22-.3-.49-.55-.7-.87-.13-.36,.19-.84-.22-1.08-.11,.24-.21,.48-.32,.72-.57-.63-.86-1.46-.83-2.31-.5,.58-.24,1.38,.12,1.96,.46,.71,1.06,1.45,1.95,1.58Zm2.12-3.18c-.11-.63-.2-1.33-.7-1.79,.04,.46,.18,.9,.26,1.35-.48-.26-.97-.56-1.21-1.07-.4-.58-.28-1.3-.32-1.96-.17,.33-.4,.68-.32,1.07,.16,1.16,1.1,2.24,2.29,2.4Zm1.14,4.92c-.15-.33-.35-.62-.53-.94,0-.26,.01-.53,.03-.79-.2,.17-.4,.36-.6,.54-.02-.33-.02-.66-.02-.98-.07,.13-.21,.38-.28,.5-.28-.51-.19-1.15-.55-1.63-.12,.66,.01,1.36,.36,1.94,.35,.61,.84,1.24,1.59,1.35Zm.3-8.83c.22,.45,.57,.82,.86,1.22-.02-.67,.22-1.31,.22-1.98-.3,.32-.44,.73-.59,1.13-.52-.72-.19-1.55,.03-2.3-.63,.4-.84,1.27-.52,1.94Zm2.15,6.41c-.16-.33-.37-.64-.52-.97-.1-.42-.02-.87-.07-1.29-.16,.39-.25,.81-.41,1.2-.32-.61-.03-1.33-.41-1.93-.06,.4-.06,.81-.1,1.22-.61-.73-.28-1.72-.41-2.57-.36,.77-.42,1.72,0,2.49,.4,.81,1.01,1.64,1.94,1.87Zm.04-6.06c-.07-.65,.1-1.3,.04-1.95-.6,.93-.53,2.21,.16,3.07,.04,0,.13,0,.17,0,.04-.41-.33-.73-.37-1.13Zm.49,1.47c.64,.54,1.45,.96,2.31,.77,0-.21,0-.42,0-.63-.25,.11-.5,.23-.76,.34-.16-.19-.5-.33-.43-.64,.06-.44,.22-.86,.27-1.3-.42,.47-.55,1.1-.81,1.65-.17-.75-.05-1.52-.13-2.28-.22,.3-.35,.66-.32,1.04-.01,.35,.18,.76-.12,1.05Zm2.94,7.13c-.13-.75-.44-1.48-.23-2.25-.26,0-.52-.02-.78-.03,.12-.35,.23-.72,.29-1.09-.21,.23-.38,.5-.55,.76-.17-.72-.03-1.45,.12-2.15-.65,.77-.64,1.87-.26,2.76,.32,.75,.69,1.56,1.41,2Zm2.96-3.26c-.16-.3-.36-.59-.55-.87,.13-.48,.28-.95,.33-1.44-.3,.43-.46,.94-.65,1.42-.13-.3-.38-.61-.26-.95,.12-.44,.29-.86,.35-1.31-.38,.32-.54,.8-.73,1.24-.49-.93,0-1.92,.11-2.87-.62,.79-.88,1.93-.43,2.87,.3,.85,.83,1.81,1.84,1.9Zm.88-7.15c-.48,.01-.95,.11-1.42,.2,.03-.24,.08-.49,.11-.73-.08,.26-.16,.52-.24,.78-.62-.57-.61-1.45-.95-2.16-.12,.66,.09,1.3,.25,1.93-.35-.34-.67-.72-.87-1.16-.27-.56-.22-1.19-.35-1.78-.31,.75-.17,1.61,.2,2.31,.54,1.17,2.35,1.58,3.27,.62Zm3.17,9.22c-.33-.64-.61-1.3-.53-2.04-.16,.27-.3,.56-.45,.83-.24-.42-.07-.88-.02-1.33-.21,.16-.41,.33-.62,.49,.01-.5,.15-1.01,0-1.5-.13,.29-.24,.58-.35,.87-.19-.77-.1-1.57-.07-2.35-.57,1.07-.41,2.37,.23,3.37,.46,.67,.99,1.39,1.79,1.65Zm.46-5.99c-.5-.13-1.21-.04-1.44-.63-.13-.75,.42-1.36,.62-2.04-.73,.37-.71,1.29-1.21,1.85-.37-.9,.09-1.8,.32-2.66-.52,.46-.63,1.17-.81,1.81-.12-.4-.32-.8-.26-1.23,.09-.63,.31-1.24,.36-1.87-.45,.77-.84,1.7-.52,2.59,.29,.78,.61,1.64,1.36,2.1,.47,.27,1.12,.43,1.6,.09Zm2.99-3.56c-.42-.34-.91-.58-1.38-.86,.14-.61,.35-1.2,.52-1.81-.5,.42-.59,1.09-.9,1.64-.52-.74,.12-1.54,.13-2.33-.43,.48-.55,1.12-.77,1.71-.55-.87-.11-1.83-.06-2.75-.23,.33-.43,.71-.45,1.12-.3,1.67,1.25,3.28,2.9,3.28Zm-.61,.71c-.65,.38-1.24,1.09-1.12,1.89,.22,.62,.62,1.15,1,1.68,.3-.65,.55-1.33,.72-2.04-.3,.47-.51,.99-.81,1.46-.33-.67,.29-1.26,.35-1.92-.33,.36-.55,.8-.84,1.19-.31-.85,.36-1.56,.71-2.26Zm5.54,9.51c.32-1.56,.05-3.31,1-4.69-.28,.22-.56,.46-.7,.79-.62,1.4-.14,3.01-.72,4.42-.15,.43-.59,.58-.99,.66,.72-1.37,.88-2.92,1.09-4.43-.74,1.27-.46,2.88-1.16,4.17-.22,.27-.61,.32-.91,.47,.05-.27,.07-.55,.23-.78,.68-1.16,.96-2.5,1.34-3.77-.81,1.24-.81,2.85-1.69,4.06-.27,.39-.77,.44-1.21,.48,.04-.22,.11-.43,.2-.63,.84-1.32,1.65-2.67,2.28-4.1-1.35,1.18-1.74,3.02-2.67,4.49-.16,.31-.58,.13-.85,.18,.18-.68,.68-1.2,1.03-1.79,.6-1.01,1.29-1.97,1.81-3.03-.51,.46-.84,1.07-1.21,1.64-.59,1.04-1.32,2.01-1.77,3.13-.54,.01-1.07-.04-1.48-.42,.36-.66,.68-1.35,1.14-1.96,.04,0,.11,0,.15-.01-.01,.17-.03,.34-.06,.5,.13-.2,.27-.39,.4-.59-.09-.04-.28-.13-.37-.17,.63-.63,1.31-1.23,1.8-1.98,.49-.74,1.16-1.32,1.77-1.96-1.44,.67-2.31,2.06-3.27,3.25-.51,.59-.88,1.28-1.29,1.93-.19-.34-.63-.68-.37-1.1,.59-1.17,1.66-2,2.27-3.16,.63-1.23,1.39-2.44,2.51-3.29,1.36-.96,3.05-1.52,4.72-1.42,.98,.33,.51,1.9,1.49,2.26,.92,.16,1.78-.45,2.38-1.09-.75,.32-1.49,.95-2.35,.72-.54-.53-.51-1.41-1.08-1.93-.38-.36-.95-.32-1.44-.3-1.44,.13-2.82,.62-4.04,1.38-.04-.72,.24-1.38,.47-2.04-.5,.42-.58,1.1-.89,1.64-.29-.65,.15-1.33,.05-2-.32,.41-.43,.92-.61,1.4-.16-.36-.41-.71-.37-1.13,.04-.47,.2-.93,.27-1.4-.46,.47-.74,1.15-.57,1.81,.27,.79,.87,1.4,1.52,1.9-.94,.84-1.67,1.87-2.21,3-.63,1.33-1.8,2.33-2.43,3.66-.22,.48,.23,.88,.51,1.21-.14,.34-.47,.84-.06,1.13,.81,.62,1.88,.18,2.8,.4,.35,.11,.65-.17,.96-.3,.08,.15,.16,.29,.24,.44,.28-.16,.53-.46,.89-.38,.77,.14,1.31-.6,1.45-1.27Zm-4.51-.94c-.45,.69-1.08,1.26-1.42,2.02,1.47-1.45,2.58-3.23,3.56-5.04-.96,.81-1.43,2.02-2.14,3.02Zm10.25-19.76c.52-.18,1.19,.17,1.22,.75,0,.5-.38,1.11-.95,.98-.81-.11-1.04-1.42-.26-1.73Zm.04,.28c-.04,.18-.09,.37-.12,.55,.2,.01,.4,.03,.61,.04,.04-.09,.14-.26,.18-.35-.22-.09-.44-.18-.66-.25Zm9.96,5.25c.08,.01,.23,.04,.3,.05,.85-1.08,1.16-2.46,1.92-3.6,.23-.39,.66-.85,.32-1.3-.21-.23-.51-.67-.85-.41-.34,.24-.54,.62-.71,.98-.41,.92-.68,1.9-.9,2.89-.09,.46-.21,.94-.08,1.4Zm-31.97,13.5c-.22,.15,0,.63,.25,.42,.21-.16,0-.62-.25-.42Zm5.08,14.11c.55-.21,.88-.71,1.18-1.19,1.09-1.76,1.98-3.64,2.92-5.48-2.43,.11-4.89-.12-7.25-.7-3.36-.78-6.52-2.25-9.91-2.91-2.31-.49-4.8-.43-6.96,.59,1.4-.1,2.81-.42,4.21-.15,.2,.06,.46,.13,.54,.36-.12,.48-.46,.87-.57,1.36,1.01,.17,1.96-.25,2.95-.33-.03,.8-.64,1.44-.61,2.25,.88-.07,1.36-.9,2.11-1.26,.06,.04,.18,.14,.24,.18,.14,.97-.86,1.61-.91,2.55,.97-.12,1.63-.92,2.51-1.26,.67,1.01-.65,1.9-.42,2.94,.93-.07,1.4-1.02,2.2-1.39,.73,1.05-.7,2-.49,3.11,1.03-.12,1.54-1.21,2.48-1.54,.36-.11,.71,.26,.59,.62-.29,1.18-1.48,1.99-1.52,3.24,1.25-.14,1.9-1.47,3.05-1.86,.26-.07,.44,.24,.41,.47-.04,.83-.61,1.58-.47,2.43,.27-.03,.56-.04,.75-.27,.91-.89,1.49-2.04,2.23-3.07,.15-.22,.37-.36,.58-.51,.06,.6-.08,1.23,.16,1.81Z"/>
  </g>
</svg>