<?xml version="1.0" encoding="UTF-8"?>
<svg id="Layer_2" data-name="Layer 2" xmlns="http://www.w3.org/2000/svg" viewBox="0 0 115.17 67.62">
  <defs>
    <style>
      .cls-1 {
        fill: #808080;
        fill-rule: evenodd;
      }
    </style>
  </defs>
  <g id="Layer_1-2" data-name="Layer 1">
    <path class="cls-1" d="M110.69,23.01c.4,.23,.83,.48,1.24,.72,.69,.4,1.21,.73,1.73,1.32,.77-.69,1.81,.87,1.02,1.37,.14,.23,.34,.34,.48,.56,.16,2.32-1.35,3.97-2.9,5.27-.32,.27-.72,.49-1.01,.8-.61,.66-.97,1.53-1.49,2.23-.25,.34-.58,.7-.87,1.04-.96,1.09-2.06,2.17-3.13,3.24-.77,.78-1.59,1.41-2.35,2.14-.37,.35-.71,.79-1.1,1.14-.4,.36-.78,.71-1.06,1.13-.17,.26-.31,.6-.74,.73-.22,.91-.39,1.85-.68,2.75-.28,.84-.57,1.78-1.05,2.49-.39,.57-1.08,1.15-1.75,1.71-.76,.64-1.68,1.34-2.75,1.43-.34-.27-.73-.49-.68-1.18,0-.14,.17-.5,.26-.79,.17-.56,.33-.97,.57-1.55,.1-.24,.34-.65,.31-.76-.08-.35-1.01-.35-1.25-.27-.4,.13-.98,.89-1.42,1.18-.61,.41-1.2,.64-1.55,1.03-1.26,.22-1.8,1.45-2.56,2.33-.6,.69-1.26,1.35-1.81,1.96-.64,.7-1.19,1.34-1.91,1.89-.71,.54-1.53,1.01-2.42,1.57-.81,.52-1.64,1.06-2.52,1.5-2.68,1.35-5.24,2.94-8.41,3.96-.64,.21-1.33,.34-2.08,.58-.76,.24-1.58,.63-2.42,.89-1.14,.35-2.4,.47-3.46,.93-1.37,.6-3,1.51-4.62,1.18-.52-.39-1.28-.36-1.91-.55-.15-.27,.19-.23,.14-.44-.05-.3-.16-.49-.29-.65-.14-.1-.43,.08-.56-.04-.13-.2,.03-.27-.04-.49-.17-.48-.82-.61-1.35-.51-.17-.14-.02-.3-.03-.45-.45-.19-.88,0-1.29-.12-.21-.06-.33-.27-.52-.37-.64-.32-1.25-.24-2.14-.13-.16-.18,.01-.34-.01-.54-.77-.36-1.53-.72-2.67-.4-.08-.05-.09-.21-.13-.33-.7-.44-1.29-1.09-1.87-1.74-.29-.02-.48-.23-.87-.09-.4-.23-.58-.78-1-.97-.3-.13-.6,.01-.93-.17-.13-.66-.6-1-1.13-1.11-.28-.59-.64-1.03-1.32-.88-.25-.49-.5-1-.96-1.11-.03-.7-.59-.9-1.11-.89-.13-.58-.47-1.13-1.15-.88-.22-.55-.55-.9-1.1-.85-.23-.95-1.03-1.18-1.86-1.2-.03-.98-1.01-.83-1.35-1.15-.12-.12-.15-.33-.24-.44-.29-.35-.71-.21-1.02-.55-.1-.77-.79-1.21-1.44-1.35-.21-.94-1.42-1.73-2.11-1.68-.71,.05-1.27,.67-2.01,.88-.08,.09-.03,.26-.12,.35-1.4,.88-3.07,1.52-3.97,2.74-.16,.21-.23,.46-.37,.68-.33,.52-.78,.99-1.18,1.48-1.16,1.41-2.17,3.14-3.3,4.55-1.21,1.51-2.62,2.75-4.29,3.95-.79,.56-1.58,.99-2.22,1.7-.12,.13-.37,.54-.57,.55-.4,.03-.46-.55-.65-1.06-.48-1.31-.99-2.37-1.67-3.24-.47-.6-.86-1-1.28-1.89-.51-1.07-1.04-2.2-1.68-3.28-.81-1.36-1.96-2.15-2.45-3.99-.49-1.83-.22-3.59-.6-5.46-.31-1.54-1.16-2.84-1.49-4.33-.11-.49-.24-1.12-.21-1.62,.04-.5,.38-.83,.56-1.27,.08-.2,.04-.49,.27-.61,.14-1.21,.18-2.49,1.02-3.25,.21-.51,.36-1.1,.53-1.72,.19-.72,.29-1.88,.95-2.19,.4-.19,1.23-.21,1.64-.15,.2,.03,.4,.18,.56,.22,.58,.13,1.1,.15,1.64,.31,.52,.15,1.05,.25,1.55,.46,.95,.4,1.73,.99,2.74,1.52,1.89,.98,3.52,2.42,5.27,3.49,.11,.13,0,.11,.03,.26,.49,.15,1.06,.6,1.58,.59,.15,0,.33-.1,.47-.12,.67-.11,1.38,.03,2.11,0,1.38-.04,2.79-.08,4.4-.4,.14-.05-.02-.3,.07-.38,.41-.27,.89-.49,1.32-.75,.17-.35,.49-.61,.73-.91,.04-.15-.23-.17-.24-.44,.15-.19,.38-.32,.55-.5,0-.42,.31-.63,.58-.87-.08-.19-.38,.03-.43-.21,0-.56,.42-.84,.7-1.22-.02-.54,.26-.9,.62-1.2-.21-.54,.2-.98,.51-1.31-.29-.3,0-.84,.41-1.01,.08-.12-.27-.2-.18-.36,.33-.61,.71-1.18,1.11-1.73-.03-.16-.19-.07-.19-.27,.11-.32,.26-.61,.5-.85-.01-.52,.34-.8,.59-1.15-.14-.72,.43-.98,.68-1.44-.11-.03-.19-.12-.2-.31,.27-.56,.73-1,1.24-1.4-.15,.02-.26,0-.38-.17,.03-.39,.37-.59,.63-.84-.49-.61,.26-1.18,.65-1.57-.57-.51,.14-1.23,.52-1.58-.04-.12-.31-.13-.23-.26-.01-.54,.34-.85,.62-1.2-.18-.61,.22-1.13,.53-1.54-.06-.14-.25-.05-.33-.14,.09-.57,.38-1.01,.78-1.38,0-.17-.2,0-.21-.17,.22-.79,.78-1.37,1.81-1.64-.06-.23-.61-.09-.82-.24-.16-.13,.03-.27-.08-.48,.34-.34,.78-.61,1.3-.83-.25-.14-.48,0-.75,.01,.05-.76,.81-1.07,1.44-1.45-.26-.1-.58-.1-.9-.09,.03-.58,.81-1.19,1.44-1.45,.25-.11,.53-.13,.79-.2-.25-.14-.59-.12-.92-.13-.46-.82,.9-1.26,1.44-1.59-.18-.12-.48-.03-.58-.3,.52-.36,.89-.8,1.64-1.01-.06-.17-.33,.06-.34-.18,.65-.62,1.55-1.09,2.37-1.6,.37,.05,.66-.16,1.08-.23,.78-.14,1.7,.05,2.6,.15,.85,.09,1.74,.17,2.54,.21,1.78,.08,3.56,.26,5.17,.31,1.66,.04,3.35,.43,4.94,.73,3.31,.61,6.37,1.14,9.41,2.25,4.42,1.61,9.42,2.25,13.12,5.24,1.12,.44,2.33,.77,3.39,1.4,.53,.32,1.01,.67,1.55,.96,.52,.28,1.09,.47,1.63,.76,.53,.29,1.02,.69,1.56,1,.53,.3,1.09,.56,1.65,.85,1.1,.57,2.11,1.28,3.15,1.95,1.02,.66,2.18,1.15,3.18,1.9,.55,.41,1.03,.71,1.56,1,.59,.32,1.09,.47,1.73,.69,.43,.15,.86,.41,1.32,.57,.91,.3,1.87,.51,2.79,.87,.63,.25,1.15,.52,1.69,.84,.76,.45,1.71,.81,2.56,1.29Z"/>
  </g>
</svg>