<?xml version="1.0" encoding="UTF-8"?>
<svg id="Layer_2" data-name="Layer 2" xmlns="http://www.w3.org/2000/svg" viewBox="0 0 84.59 65.16">
  <defs>
    <style>
      .cls-1 {
        fill: #808080;
      }
    </style>
  </defs>
  <g id="Layer_1-2" data-name="Layer 1">
    <path class="cls-1" d="M46.85,49.83s-.18,1-1.43,1.01c-1.24,.02-1.87-.28-2.38-1.13s-.41-.78-.43,.35c-.02,1.13,.41,6.52-5.4,11.69-5.81,5.17-10.44,3.5-13.54,1.17-3.1-2.33-3.99-4.89-4.36-7.3-.36-2.41,.43,1.41,2.37,4.46,1.94,3.05,7.62,5.47,12.11,2.78,4.48-2.69,6.53-7.54,7.02-10.65,.49-3.12,.29-3.57-.23-2.38-.53,1.19-1.15,1.57-1.85,.36-.7-1.21-.61,.41-1.34,.91-.73,.51-2.28-1.84-3.16-3.01-.88-1.17-2.19-4.4-8.13-8.99-5.94-4.59-10.95-6.66-15.69-7.34-4.74-.68-7.02,.28-8.72,1.44-1.69,1.17-2.88,.44,.24-3.59,3.12-4.03,13.27-7.51,17.79-8.18,4.53-.67,8.95-1.85,10.28-3,1.32-1.15,1.11-1.35,2.04-1.96,.93-.61-.26-1.15,.1-2.24,.35-1.09-.12-.68-.53-1.72s-.23-2.17,.44-2.25c.67-.09,.97-.88,1.63-1.79,.66-.92,.86-1.74,.65-2.6-.21-.86-1.47-2.99-1.02-4.48,.45-1.49,1.51-1.81,2.87-.59,1.37,1.23,1.17,2.69,.54,4.61-.63,1.92-.2,2.76,1.21,3.92,1.41,1.15,4.07,1.71,6.62,1.14,2.55-.57,4.02-1.18,4.41-2.66,.38-1.47-.68-2.75-.43-4.33,.26-1.58,1.15-3.12,2.81-3.44,1.65-.31,2.48,1.21,1.81,2.53-.66,1.31-2.08,3.02-1.87,4.4,.21,1.38,.74,1.83,1.28,2.68,.54,.85,2.36,.72,1.42,2.68-.94,1.96-1.32,2.78-.29,4.29,1.04,1.52,.86,2.12,3.12,2.7,2.25,.58,7.94,2.15,9.6,2.42,1.65,.28,11.6,2.4,15,4.47,3.39,2.07,3.2,4.85,3.17,6.66-.03,1.81-1-.58-2.57-1.62-1.57-1.05-4.13-.92-6.55-.21s-3.68,.42-5.72,1.69c-2.04,1.27-6.99,2.64-9.31,3.92-2.32,1.28-4.93,4.47-6.02,6.76-1.09,2.28-2.65,4.23-3.43,5.29-.78,1.07-1.9,2.09-2.76,1.73-.86-.36-.95-1.4-1.37-.59Z"/>
  </g>
</svg>