<?xml version="1.0" encoding="UTF-8"?>
<svg id="Layer_2" data-name="Layer 2" xmlns="http://www.w3.org/2000/svg" viewBox="0 0 106.57 43.03">
  <defs>
    <style>
      .cls-1 {
        fill: #808080;
      }
    </style>
  </defs>
  <g id="Layer_1-2" data-name="Layer 1">
    <path class="cls-1" d="M102.87,29.53c-5.18,3.36-19.96,7.12-29.38,7.14-6.07,4.69-18.18,7.52-20.24,5.91-1.05-.82,1.55-4.39,4.38-6.7-17.6-1.88-24.97-6.48-28.9-6.48-5.19,0-12.21,4.67-28.31,4.67-1.3,0,.6-4.39,3.64-7.53,2.41-2.49,4.29-3.77,4.29-3.77,0,0-1.4-1.69-4.03-4.29C1.68,15.9-.49,12.28,.42,12.28c18.96,0,22.59,6.21,28.57,6.21,2.15,0,6.03-1.93,11.37-4.02-3.97-2.9-1.75-9.34,6.98-7.5,0,0-2.63-2.97-1.1-5.15,2.17-3.09,10.42-3.26,22.51,7.66,1.85,.13,3.75,.36,5.69,.71,12.99,2.31,21.92,9.98,29.74,13.11,3.45,1.39,3.32,3.23-1.3,6.23Z"/>
  </g>
</svg>