<?xml version="1.0" encoding="UTF-8"?>
<svg id="Layer_2" data-name="Layer 2" xmlns="http://www.w3.org/2000/svg" viewBox="0 0 148.29 50.76">
  <defs>
    <style>
      .cls-1 {
        fill: #808080;
      }
    </style>
  </defs>
  <g id="Layer_1-2" data-name="Layer 1">
    <path class="cls-1" d="M.09,34.14C8.77,16.78,16.74-.79,47.31,.03c30.57,.82,39.3,10.64,44.35,11.6-6.96,.27-13.51,.96-13.51,.96,0,0,15.32,6.91,23.06,3.41,8.46-3.82,19.11-12.55,33.3,.96-7.23-3-20.33-3-18.83,7.1s18.83,6.14,32.62,4.09c-9.83,3-23.63,9.76-34.8,6.41-9.55-2.87-14.33-8.05-17.88-3.82-3.55,4.23-29.61,25.79-50.9,18.56C23.83,51.07,.44,38.12,1.45,37.01c1.5-1.64-2.05-1.5-1.36-2.87Z"/>
  </g>
</svg>