<?xml version="1.0" encoding="UTF-8"?>
<svg id="Layer_2" data-name="Layer 2" xmlns="http://www.w3.org/2000/svg" viewBox="0 0 75.28 46.42">
  <defs>
    <style>
      .cls-1 {
        fill: #808080;
        fill-rule: evenodd;
      }
    </style>
  </defs>
  <g id="Layer_1-2" data-name="Layer 1">
    <path class="cls-1" d="M12.14,29.6s3.74-4.24,4.18-4.6c.44-.36-1.05-1.45-1.49-1.41,0,0-.44-.6,.47-.73,.91-.13,1.86,.14,2.47,.05,.62-.09,7.18-7.56,14.07-9.57,0,0,3.37-3.82,2.39-7.06-.98-3.24-1.27-5.92-.47-6.22,.8-.3,3.48,.18,9.02,8.63,0,0,26.6,.04,31.81,4.42,0,0,1.63,1.19-.1,3.04-1.73,1.85-5.58,3.37-5.58,3.37,0,0-1.27,2.06-4.14,3.24-2.87,1.18-7.16,2.55-7.5,2.87-.34,.32,1.98,6.2-.6,8.95,0,0-1.01,1.6-2,.37,0,0-2.98-8.37-6.24-6.43-3.26,1.95-17.23,1.99-18.11,1.77,0,0-.21,1.93-1.2,2.5-.99,.56-7.78-2.84-8.62-2.09-.85,.75-1.22,3.97-2.1,4.64-.88,.67-1.39,.72-1.51,.47-.12-.24,1.35-2.05,.4-2.84-.95-.8-2.13-.42-2.39-.09-.26,.34-1.18,1.26-1.17,3.4,.01,2.14-.26,9.33-1.49,10.03-1.23,.7-1.44-2.29-1.24-4.44,.2-2.14,.64-3.8-.33-4.83-.96-1.03-6.43-5.08-9.08-5.72,0,0-2.87-1.18-.89-2.04,1.98-.87,11.54,.83,11.44,.31h0Z"/>
  </g>
</svg>