<?xml version="1.0" encoding="UTF-8"?>
<svg id="Layer_2" data-name="Layer 2" xmlns="http://www.w3.org/2000/svg" viewBox="0 0 111.75 59.3">
  <defs>
    <style>
      .cls-1 {
        fill: #808080;
      }
    </style>
  </defs>
  <g id="Layer_1-2" data-name="Layer 1">
    <path class="cls-1" d="M54.77,7.55c-.69,.2-1.04,.49-1.05,.85,0,.25,.08,.29,.27,.13,.3-.25,.56-.58,.78-.99l.2-.02c.14-.02,.27-.09,.37-.2l3.16-3.76c.3-.35,.59-.34,.87,.02l.2,.26c.23,.31,.25,.63,.04,.95l-2.81,4.31,1.61,1.19c.15,.11,.33,.17,.52,.17,.47,0,.94,.11,1.4,.35,.18,.09,.26,.24,.24,.43-.03,.27,.09,.4,.34,.42,1.39,.08,2.52,.29,3.41,.63,1.23-1.09,2.43-2.11,3.6-3.06,.23-.19,.46-.28,.68-.28,.4-.02,.68,.12,.84,.4,.11,.2,.08,.44-.07,.61l-2.68,2.94c-.15,.17-.12,.29,.09,.36l.17,.06c.05,.02,.09,0,.13-.04,.95-1.1,1.99-2.03,3.11-2.78,.31-.21,.59-.18,.84,.1l.36,.38c.21,.23,.2,.45-.03,.66-.85,.79-1.61,1.69-2.26,2.71-.06,.08-.04,.15,.04,.21l.18,.13s.04,.01,.06,0c.53-.5,1.01-1.05,1.43-1.63,.45-.64,1.41-1.04,2.17-.93,.34,.05,.58,.38,.52,.72-.02,.14-.09,.26-.19,.36-.85,.82-1.54,1.63-2.07,2.42-.22,.33-.16,.4,.19,.2,.72-.41,1.39-1.01,2.01-1.81,.37-.48,.82-.59,1.37-.33,.05,.02,.12,.05,.21,.09,.57,.27,.63,.64,.2,1.09l-1.76,1.85c-.09,.09-.09,.18,0,.27l.14,.14s.03,.01,.05,0c.66-.73,1.39-1.35,2.19-1.86,.24-.15,.52-.19,.86-.09,.21,.06,.37,.15,.5,.28,.15,.15,.16,.31,.05,.49-.61,.95-1.32,1.75-2.12,2.4-.07,.06-.08,.12-.02,.2h0c.05,.07,.11,.08,.19,.03,.3-.21,.97-.77,2.02-1.69,.36-.32,.76-.38,1.2-.17,.08,.04,.16,.09,.24,.15,.17,.14,.19,.39,.05,.55-.01,.01-.02,.02-.03,.04l-1.82,1.67c-.09,.08-.1,.21-.02,.3,.08,.09,.21,.1,.3,.02l1.73-1.35c.21-.16,.43-.17,.65-.04l1.07,.66c.27,.17,.29,.36,.04,.56-.59,.5-1.11,1.1-1.55,1.79-.17,.27-.11,.32,.17,.17,.51-.28,.99-.67,1.44-1.16,.27-.29,.72-.31,1.02-.04,.1,.09,.17,.2,.21,.33,.06,.22,.17,.41,.33,.58,1.28,1.34,2.62,2.9,4.35,3.57,1.46,.57,2.96,.72,4.51,.46,.31-.05,.57-.27,.66-.56,1.66-4.96,4.59-9.15,8.79-12.56,3.06-2.49,6.56-4.01,10.48-4.56,.25-.04,.48,.14,.51,.39,0,.03,0,.06,0,.09-.02,.27-.18,.41-.5,.42-.27,0-.39,.15-.36,.42l.02,.18c.02,.19-.03,.35-.17,.48-.8,.81-1.78,1.21-2.96,1.21-.02,0-.03,.01-.03,.03l.02,.18c0,.09,.06,.13,.15,.12l1.67-.15c.13,0,.25,.09,.26,.22,0,.05,0,.1-.04,.15l-.11,.17c-.15,.24-.36,.39-.64,.43-.84,.15-1.69,.27-2.54,.36-.04,0-.06,.03-.05,.07v.03s0,.03,.03,.03c.83,.04,1.62,.08,2.37,.12,.19,0,.35,.17,.34,.37,0,.06-.02,.11-.04,.17-.06,.15-.17,.24-.33,.27-.84,.13-1.58,.27-2.24,.42-.69,.15-.68,.25,.02,.28,.42,.02,.98,.04,1.69,.04,.21,0,.33,.1,.38,.3,.06,.25-.05,.45-.31,.59-1.05,.55-2.18,.88-3.37,.97-.06,0-.09,.04-.08,.09h0c0,.07,.04,.09,.1,.09,1.01-.09,1.95-.19,2.81-.27,.3-.03,.41,.1,.34,.39l-.11,.48c-.06,.25-.22,.41-.47,.46-.82,.19-1.71,.33-2.65,.4-.05,0-.07,.03-.08,.08h0c0,.08,.04,.12,.12,.12,.78,0,1.55,.04,2.31,.11,.28,.02,.48,.27,.46,.55,0,.03,0,.05-.01,.08l-.05,.2c-.06,.22-.25,.39-.48,.4-1.03,.08-1.93,.16-2.71,.23-.95,.09-.95,.16,0,.2l2.7,.11c.23,.01,.37,.13,.42,.35,.07,.27,.02,.5-.15,.68-.12,.13-.32,.21-.6,.25-1.35,.19-2.73,.34-4.11,.45-.04,0-.06,.03-.06,.07,0,.04,.03,.06,.07,.06h0l4.44,.12c.16,0,.29,.14,.29,.3h0v.22c0,.37-.2,.58-.56,.64-1.38,.19-2.81,.28-4.3,.27-.04,0-.06,.02-.07,.06h0c0,.1,.04,.15,.14,.16,1.48,.11,2.96,.19,4.45,.24,.21,0,.3,.12,.27,.33l-.09,.61c-.03,.21-.15,.32-.37,.34-.9,.06-1.88,.14-2.93,.24-.07,0-.1,.04-.1,.11v.05s.02,.05,.05,.05c1.02,.06,2.03,.15,3.05,.27,.21,.02,.32,.14,.32,.35,0,.26-.14,.42-.46,.48-.74,.15-1.49,.2-2.25,.15-.05,0-.08,.02-.08,.07h0c0,.05,.01,.08,.07,.09,.81,.14,1.54,.24,2.18,.3,.39,.04,.55,.25,.5,.64l-.03,.18c-.04,.29-.29,.51-.58,.51l-3.66,.04s-.08,.03-.09,.08c0,.05,.03,.08,.08,.09h0l3.98,.37c.2,.02,.35,.19,.34,.39v.21c-.02,.35-.2,.55-.55,.59-1.44,.17-2.7,.24-3.78,.22-.06,0-.1,.03-.1,.09h0c0,.07,.03,.1,.09,.11,1.35,.1,2.65,.18,3.89,.23,.34,.02,.49,.19,.44,.52-.01,.08-.02,.15-.04,.23-.05,.33-.24,.51-.58,.52-1.42,.06-2.78,.09-4.08,.09-.06,0-.1,.03-.1,.09h0c0,.07,.03,.1,.09,.11,1.5,.12,2.95,.21,4.35,.25,.26,0,.38,.14,.36,.4v.27c-.03,.27-.17,.42-.45,.43l-3.89,.2s-.06,.02-.06,.05,.03,.06,.06,.06l4.33,.37c.07,0,.12,.06,.12,.12l.02,.85c0,.09-.04,.13-.13,.14-1.19,.11-2.41,.13-3.67,.05-.09,0-.14,.04-.15,.13h0c0,.1,.03,.15,.12,.17,1.21,.2,2.41,.31,3.61,.33,.15,0,.23,.08,.26,.22l.13,.68c.02,.09-.02,.14-.11,.15l-3.49,.14s-.09,.04-.09,.09c0,.05,.04,.08,.08,.08l3.4,.28c.31,.02,.47,.19,.47,.51v.18c0,.35-.17,.53-.52,.55-1.01,.04-2.06,.08-3.17,.09-.04,0-.04,0,0,.01,1.19,.23,2.33,.37,3.44,.41,.27,0,.4,.14,.42,.41l.02,.43c.01,.3-.13,.42-.42,.36-.34-.07-.66-.06-.98,.03-.09,.02-.13,.09-.12,.18l.02,.15s.02,.03,.04,.02c.95-.33,1.52-.12,1.71,.64,.05,.18-.06,.36-.24,.41-.03,0-.06,.01-.09,.01l-2.06-.06c-.51-.01-.52,.05-.03,.19,.74,.21,1.53,.36,2.35,.45,.21,.02,.37,.21,.36,.42v.23c-.01,.31-.17,.43-.47,.36-.39-.09-.78-.1-1.18-.03-.06,.01-.09,.05-.08,.11h0c.01,.07,.05,.1,.11,.09,2.2-.15,1.93,1.32,2.64,2.57,.6,1.05,1.28,2,2.05,2.86,.1,.1,.09,.27-.02,.36-.05,.04-.11,.07-.18,.07-7.69-.3-14.59-5.91-18.03-12.43-.63-1.2-1.24-2.47-1.83-3.82-1.17-2.69-8.1-.73-10.1,.23-3.02,1.45-6.12,2.69-9.04,4.3-6.89,3.82-12.82,6.77-20.53,7.5-9.77,.93-19.26-.38-28.48-3.91-.08-.03-.12-.11-.09-.19,.01-.03,.03-.06,.06-.08,2.83-1.64,5.17-3.83,7.01-6.58,.1-.15,.2-.15,.3,0l.1,.15s.04,.04,.06,.05c1.8,.62,3.63,.79,5.51,.53,.2-.03,.35-.13,.43-.32,.06-.11,.07-.24,.04-.36-.04-.21-.16-.33-.36-.37-1.33-.28-2.89-.38-4.67-.28-.25,.02-.45-.07-.59-.25-.17-.22-.12-.31,.15-.28l.61,.07c.21,.02,.41,.02,.62,0,1.44-.17,2.81-.09,4.08,.25,.27,.07,.36-.03,.3-.29l-.06-.26c-.07-.28-.3-.48-.58-.53l-4.51-.71c-.17-.03-.23-.12-.17-.28,1.09-3.34,.91-6-.54-7.97-1.23-1.68-1.57-1.51-1,.49,1.98,6.95-3.28,13.42-9.36,16.03-.23,.1-.5,.11-.74,.03-5.78-1.98-11.19-4.7-16.24-8.17-1.4-.96-2.65-2.16-3.78-3.37-.1-.11-.1-.29,.02-.39,.01-.01,.02-.02,.04-.03,4.33-2.83,8.92-6.24,13.07-8.45,5.21-2.78,10.7-4.92,16.46-6.4,.51-.13,.95-.45,1.32-.95,2.09-2.87,4.41-5.61,6.96-8.22,1.2-1.22,2.57-2.18,4.12-2.88,.37-.17,.43-.1,.17,.21-1.43,1.73-2.63,3.6-3.6,5.62-.02,.02,0,.04,.02,.06h0s.09,.02,.12-.02c1.47-2.15,3-4.17,4.6-6.06,.61-.72,1.49-1.05,2.64-.98,.21,.01,.28,.11,.18,.31-1.01,2.21-2.23,4.29-3.66,6.24-.06,.08-.05,.15,.03,.2h0c.06,.06,.12,.05,.17-.02,1.7-2.1,3.31-4.27,4.83-6.5,.11-.16,.26-.28,.45-.34,.33-.11,.62-.1,.86,.02,.2,.1,.28,.34,.2,.54-.97,2.31-2.46,4.27-3.59,6.41-.11,.21-.07,.24,.12,.09,.37-.3,.49-.81,.74-1.12,1.37-1.71,2.71-3.49,4.01-5.33,.14-.21,.34-.32,.59-.34,.3-.02,.47,.07,.53,.27,.14,.55,.11,.98-.11,1.31-1.2,1.82-2.35,3.59-3.46,5.31-.05,.07-.04,.13,.03,.18h0c.07,.05,.13,.05,.18-.02,1.61-1.98,3.16-3.99,4.65-6.03,.34-.46,.73-.52,1.18-.16l.23,.18c.23,.18,.29,.51,.14,.77-1.14,1.92-2.31,3.81-3.5,5.66-.04,.05-.03,.1,.02,.13h0c.05,.04,.1,.04,.14-.01,1.17-1.5,2.66-3.33,4.48-5.52,.23-.27,.5-.33,.82-.2l.19,.08c.14,.06,.21,.22,.16,.36-.01,.03-.03,.07-.06,.09-.72,.71-1.27,1.54-1.67,2.5-.11,.27-.08,.29,.1,.06,.53-.68,1.06-1.42,1.58-2.23,.09-.14,.28-.19,.43-.09,.02,.02,.05,.04,.07,.06l.11,.14c.22,.25,.24,.52,.05,.79l-2.43,3.57Zm-10.95-4.81l.73-1.37c.1-.19,.07-.22-.1-.08-.52,.42-.81,.88-.85,1.39-.03,.38,.04,.4,.22,.07ZM19.9,26.71c0-1.55-1.25-2.8-2.8-2.8h0c-1.55,0-2.8,1.25-2.8,2.8h0c0,1.55,1.25,2.8,2.8,2.8s2.8-1.25,2.8-2.8h0Zm10.86,9.36c1.62,.68,3.35,.85,5.2,.52,.16-.03,.28-.16,.28-.32v-.2c.02-.09-.05-.16-.14-.17,0,0-.02,0-.02,0-1.76,.2-3.45,0-5.06-.63-.24-.09-.39,0-.43,.24l-.04,.17c-.03,.17,.06,.33,.21,.39Zm77.31,9.16l.17,.12c.17,.11,.27,.07,.31-.12,.02-.07,0-.15-.04-.23-.04-.08-.1-.13-.19-.16-.38-.11-.81-.17-1.29-.16-.31,0-.32,.05-.02,.15l.86,.3c.07,.02,.13,.06,.19,.09ZM66.74,8.92s.04-.05,.05-.08c.21-.55,.19-.96-.06-1.23,0,0,0,0,0,0-.23-.24-.62-.25-.85-.01l-3.81,3.7c-.06,.06-.13,.06-.19,0l-.12-.13s-.05-.09,0-.14l3-3.68c.08-.1,.13-.21,.14-.34,.05-.37-.21-.72-.58-.77-.52-.07-1.08,.11-1.46,.5-1.07,1.1-2.18,2.29-3.32,3.56-.02,.02-.03,.02-.05,0l-.14-.11c-.09-.07-.11-.15-.04-.24l2.81-3.66c.39-.51,.32-.94-.21-1.29l-.27-.18c-.39-.26-.74-.21-1.05,.13l-3.78,4.19,1.61,1.19c.15,.11,.33,.17,.52,.17,.47,0,.94,.11,1.4,.35,.18,.09,.26,.24,.24,.43-.03,.27,.09,.4,.34,.42,1.39,.08,2.52,.29,3.41,.63l2.43-3.39ZM15.62,26.61c0,.77,.62,1.39,1.39,1.39s1.39-.62,1.39-1.39-.62-1.39-1.39-1.39-1.39,.62-1.39,1.39Zm63.34,11.77c.07,.19,.14,.37,.23,.55,.14,.29,.25,.28,.32-.04,.22-1.05-.13-1.72-1.06-2.02-.52-.17-.63-.03-.31,.42,.11,.15,.28,.35,.51,.59,.13,.14,.24,.3,.3,.49Zm-.48,1.72s.1,.04,.14,0h.02s0-.01,0-.01c.29-.26,.12-.93-.38-1.51l-.58-.66c-.5-.58-1.15-.84-1.44-.58h-.02s0,.01,0,.01c-.04,.04-.05,.1-.01,.14l2.27,2.61Zm-2.44,2.81c.1,.02,.2-.05,.22-.15,.06-.41,.24-.73,.55-.97,.19-.15,.19-.29-.01-.42-.36-.24-.52-.66-.5-1.25,.01-.26,.11-.29,.29-.11,.25,.25,.45,.52,.6,.81,.11,.23,.28,.28,.49,.15l.14-.08s.04-.02,.05-.04c.13-.12,.14-.32,.02-.45-.67-.72-1.4-1.39-2.2-2.02-.62-.49-.88-.35-.8,.43,.01,.1,.15,.27,.41,.51,.07,.07,.13,.15,.15,.24l.67,2.21s0,.09-.04,.13l-.11,.11c-.08,.08-.15,.07-.2-.04-.41-.96-.88-1.87-1.41-2.73-.06-.11-.13-.18-.21-.22-.1-.05-.21-.07-.31-.06-.26,.03-.35,.17-.27,.42,.36,1.12,1.15,2.27,2.36,3.47,.03,.03,.06,.05,.1,.05Zm-3.32-3.16l-.19,.07c-.29,.1-.36,.28-.21,.55,.57,1.03,1.27,1.95,2.11,2.74,.14,.13,.24,.28,.29,.46,.06,.19,.17,.33,.33,.42,.2,.11,.31,.06,.33-.17,.05-.52-.09-.93-.41-1.23-.72-.67-1.34-1.56-1.85-2.67-.07-.15-.24-.23-.4-.17Zm-1.14,2.44c.31,.48,.73,.93,1.26,1.34,.52,.41,.72,.83,1.06,1.36,.17,.26,.31,.25,.43-.04,.19-.47,.09-.92-.32-1.34-.93-.94-1.68-1.85-2.26-2.73-.1-.16-.23-.19-.39-.09-.2,.13-.43,.19-.67,.2-.27,0-.35,.14-.27,.39,.18,.53,.49,.79,.91,.78,.1,0,.18,.04,.23,.12Zm.11,2.74c.45,.41,.64,.84,.57,1.28-.04,.21,.05,.3,.26,.28l.23-.02c.26-.02,.38-.16,.36-.42-.06-1.16-.57-2.11-1.52-2.85-.11-.09-.2-.2-.24-.33-.12-.32-.34-.48-.65-.47-.27,0-.46-.11-.58-.35-.09-.21-.24-.36-.45-.47-.19-.11-.32-.06-.39,.15-.11,.4,.03,.75,.43,1.06,.79,.63,1.36,1.34,1.69,2.14,.04,.1,.03,.23-.04,.32l-.18,.27c-.1,.15-.19,.14-.28-.01-.63-1.13-1.36-2.2-2.2-3.22-.19-.23-.38-.31-.58-.23-.2,.07-.26,.21-.18,.41,.21,.57,.38,.95,.5,1.12,1.03,1.44,1.65,2.37,1.86,2.77,.25,.51,.5,.9,.73,1.19,.58,.7,.86,.6,.85-.31,0-.03-.06-.15-.18-.36-.1-.17-.11-.34-.05-.52,.17-.45,.11-.88-.19-1.3-.03-.04-.02-.08,.02-.11,.05-.04,.1-.06,.14-.06,.02,0,.04,0,.05,.01Zm-1.73,1.7c.05-.1,.04-.2-.04-.28l-2.59-3.05c-.12-.15-.28-.23-.47-.24-.3-.03-.59,.06-.86,.27-.16,.13-.2,.29-.12,.48,.15,.35,.36,.66,.64,.93,.14,.14,.31,.2,.51,.18,.61-.07,1.09,.2,1.44,.81,.11,.19,.11,.37,0,.55-.15,.25-.12,.52,.09,.81,.55,.73,1.01,1.35,1.38,1.87,.55,.77,.82,.68,.8-.27,0-.13-.35-.7-1.05-1.71-.14-.21-.09-.28,.15-.21,.04,.01,.08-.03,.12-.13Zm-.74,4.04s.09,.05,.12,.02h0c.52-.42-.18-2.19-1.58-3.95l-.09-.12s0,0,0,0c-1.4-1.76-2.96-2.85-3.48-2.43h0s-.04,.09-.01,.12l5.05,6.36Zm-5.33-6.25c-.14-.02-.27-.02-.4,0-.1,.02-.19,.06-.27,.12-.29,.22-.35,.64-.13,.93l4.6,6.19c.08,.11,.23,.13,.34,.05l.15-.11c.25-.18,.3-.41,.14-.68-.87-1.48-1.86-2.79-2.94-3.94-.65-.68-1.07-1.47-1.26-2.35-.03-.11-.12-.2-.23-.21Zm-2.86,1.49l5.25,7.12c.13,.18,.39,.22,.57,.09l.25-.18c.18-.13,.22-.39,.09-.57l-5.25-7.12c-.13-.18-.39-.22-.57-.09l-.25,.18c-.18,.13-.22,.39-.09,.57Zm-29.48-.03c3.17,6.86,9.21,12.94,17.07,13.43,.04,0,.09,0,.12-.03,.1-.06,.14-.19,.08-.29-1.8-3.1-3.92-6.52-6.36-10.27-.44-.67-1-1.04-1.69-1.12-2.93-.34-5.96-.96-9.1-1.87-.15-.05-.2,0-.13,.15Zm27.49,.64l5.87,7.46c.14,.18,.41,.21,.59,.07l.17-.13c.18-.14,.21-.41,.07-.59l-5.87-7.46c-.14-.18-.41-.21-.59-.07l-.17,.13c-.18,.14-.21,.41-.07,.59Zm-1.96-.49c-.24,.19,1.16,2.3,3.12,4.72,1.96,2.41,3.74,4.21,3.98,4.02,.24-.19-1.16-2.3-3.12-4.72-1.96-2.41-3.74-4.21-3.98-4.02Z"/>
  </g>
</svg>