<?xml version="1.0" encoding="UTF-8"?>
<svg id="Layer_2" data-name="Layer 2" xmlns="http://www.w3.org/2000/svg" viewBox="0 0 119.47 48.45">
  <defs>
    <style>
      .cls-1 {
        fill: #808080;
      }
    </style>
  </defs>
  <g id="Layer_1-2" data-name="Layer 1">
    <path class="cls-1" d="M.61,23.67c3.1-2.98,17.91-15.73,44.25-14.94,0,0,11.53-10.58,12.73-8.44,1.2,2.14-1.11,7.34,10.63,11.86,11.74,4.51,29.82-.63,20.31,5.37,0,0,7.03,2.14,12.17,.77,0,0,7.97-10.97,18.77-10.2,0,0,.26,6.17-3.77,12.86-4.03,6.68,3.43,9.77,2.14,19.11,0,0-8.4,1.2-16.54-9.26l-11.23,.43s-7.28,9.94-6.08,14.66c0,0-10.11-2.91-13.11-7.88,0,0-3.69,1.89-7.97,1.97,0,0-1.2,6,.86,8.48,0,0-10.03-.94-15.26-8.91,0,0-20.05,2.91-30.6-3.34C7.37,29.94,.51,31.57,.43,28.48c0,0,1.76-.73,5.81,1.39,4.05,2.12,7.84,1.16,7.84,1.16,0,0-5.72-3.63-12.18-3.93-1.06-.05-1.89-.93-1.89-1.99H0c0-.54,.22-1.06,.61-1.44Z"/>
  </g>
</svg>