<?xml version="1.0" encoding="UTF-8"?>
<svg id="Layer_2" data-name="Layer 2" xmlns="http://www.w3.org/2000/svg" viewBox="0 0 101.3 46.57">
  <defs>
    <style>
      .cls-1 {
        fill: #808080;
        fill-rule: evenodd;
      }
    </style>
  </defs>
  <g id="Layer_1-2" data-name="Layer 1">
    <path class="cls-1" d="M48.29,0c-.11,.15,.23,.14,.38,.25,.02,.19,.17,.25,.25,.38-.02,.19,.04,.46-.04,.59,.88,.16,.41,1.53,.55,2.36,.34,.23,.74,.35,.68,1.05,.26,.79,1.24,.84,1.89,1.3,.59,.42,.95,1.2,1.73,1.47,1.09,.05,1.74,.7,2.86,1.01,.31,.09,.61,.25,.84,.29,.59,.12,1.14,.02,1.56,.25,.24,.14,.37,.49,.59,.67,1.37-.18,2.14,.75,2.9,1.26,.61,.41,1.39,.75,2.1,1.22,.72,.47,1.47,.84,2.1,1.22,.3,.18,.5,.5,.76,.63,.9,.47,2.17,.39,2.14,1.77,1.35,.11,2.29,.03,3.11,.59,.24,.17,.4,.51,.67,.63,.46,.22,1.19-.06,1.47,.46-.05,.96-1.06,1.41-1.73,1.81-.73,.44-1.54,.84-2.27,1.22,2.32,.65,4.6,1.58,7.61,1.3,1.93-.18,3.56-1.72,4.92-2.78,1.5-1.17,2.75-2.49,4.08-3.62,1.95-1.66,4.31-3.45,6.73-4.8,1.36-.75,2.7-1.23,4.37-1.6,.14,.13,.4,.13,.46,.34-.08,.53-.47,.73-.8,1.01,1.08,.53,.35,2.24,0,3.03-.22,.49-.36,.95-.55,1.3,.07,.14,.27,.25,.29,.46,.02,.2-.21,.42-.21,.67,0,.24,.18,.44,.17,.59-.02,.31-.3,.51-.42,.72,.2,.52,.07,1.29-.3,1.52,1.02,.05,.61,1.42-.12,1.47,.28,.21,.48,.51,.42,.92-.12,.85-1.72,1.19-2.48,1.56-1.01,.49-1.91,.96-2.94,1.05,.99,.18,2.53-.2,3.16,.34-.13,.53-.41,.91-.84,1.14,.22,.58-.24,.83-.38,1.22-.11,.3,0,.59-.21,.88,.11,.23,.47,.19,.55,.5,.06,.25-.05,.43-.17,.67,.63,.82,1.62,1.26,1.89,2.44,.51,.25,.62,.88,.84,1.47,.29,.78,.91,1.45,1.09,2.23,.79,.9,1.47,2,1.89,3.41,.09,.31,.36,1.17,.21,1.35-.19,.23-.81-.03-1.09-.13-1.15-.38-2.19-.73-3.11-1.26,.19,.33,.42,.47,.63,.72,.19,.22,.3,.56,.59,.84,.18,.17,.55,.36,.84,.55,.62,.41,1.01,.68,1.73,1.05,.3,.16,.77,.27,.88,.46,.13,.22,.03,.55,.08,.76,.09,.35,.49,.5,.59,.88,.12,.48-.04,1.18-.17,1.6-.15,.5-.38,.83-.55,1.22-.52,.58-2.73,.69-2.73-.29-3.16-.9-5.69-2.47-8.12-4.08-1.83-1.21-3.44-2.63-5.3-3.87-.3-.2-.62-.38-.93-.59-.79-.56-1.67-1.19-2.69-1.6-1.22-.11-2.64-.59-4.21-.68-2.4-.14-4.8,.06-6.56,.8,1.06,.94,2.87,1.14,3.95,2.06,.09,.33,.57,.5,.38,.97,.15,.23,.45,.27,.46,.59,.02,.29-.36,.58-.42,.88-.08,.37,.03,.86,.08,1.31,.04,.42,.25,.93,.17,1.3-.07,.3-.39,.36-.55,.63-.16,.27-.28,.75-.25,1.14,.01,.2,.15,.33,.17,.51,.05,.51-.24,.94-.17,1.56-1.4-.17-2.6-.86-3.79-1.35-1.17-.48-2.27-1.08-3.36-1.77-1.01-.63-1.94-1.4-3.07-2.06-1.02-.6-2.32-1.43-3.54-1.56-.52-.06-1.08,.26-1.64,.42-2.96,.85-6.9,.7-10.56,.97,1.27,.6,2.95,.78,4.12,1.47,.01,.34,.06,.52,0,.8-.73,.34-2.11,.2-3.07,.17-.1,.38,.54,.71,.55,1.14,0,1.09-2.29,.21-3.07,.08-2.45-.4-4.16-1.25-6.18-2.1-.41-.17-.82-.46-1.14-.51-.39-.05-.94,.07-1.43,.09-1.73,.06-3.49,.06-5.26-.04-.91-.05-1.81-.17-2.73-.17s-1.9,.01-2.82-.04c-.62-.04-1.15-.26-1.73-.38-.52-.11-1.09-.05-1.68-.09-2.25-.15-4.42-1.33-6.31-1.47-2.25-.17-4.26,.14-6.35-.04-.31-.03-.5-.15-.8-.21-.88-.17-1.57-.08-2.31-.42-.44-.21-.8-.52-1.22-.76-.22-.12-.46-.2-.67-.34-.49-.32-1.01-.57-1.64-.88-.33-.17-.64-.4-.97-.55-.77-.35-1.65-.45-2.27-1.05v-.84c.15-.23,.39-.37,.68-.46-.59-.48-1.12-1.01-1.56-1.64,0-2.48,1.89-3.36,3.32-4.54,.57-.47,1.19-.96,1.68-1.47,.5-.51,.83-1.04,1.3-1.47,.49-.45,1.03-.73,1.6-1.14,.51-.36,1.05-.78,1.64-1.13,.6-.36,1.25-.66,1.64-1.09,.33-.36,.62-.88,.93-1.31,.32-.44,.78-.78,1.05-1.18,.29-.41,.42-.76,.76-1.14,1.39-1.53,3.45-2.89,5.39-3.96,.8-.44,1.72-.7,2.61-1.13,1.71-.84,3.55-1.47,5.51-1.98,1.49-.39,2.87-.81,4.71-.93,.56-.04,1.2,.06,1.76-.08,.55-.13,1.24-.78,1.77-1.26,.55-.5,1.03-1.07,1.48-1.51,2.54-2.55,4.94-4.92,8.37-6.65,.67-.33,1.42-.75,2.1-.88,.21-.04,.52,.05,.63-.13h.04Z"/>
  </g>
</svg>