<?xml version="1.0" encoding="UTF-8"?>
<svg id="Layer_2" data-name="Layer 2" xmlns="http://www.w3.org/2000/svg" viewBox="0 0 163.39 51.89">
  <defs>
    <style>
      .cls-1 {
        fill: #808080;
      }
    </style>
  </defs>
  <g id="Layer_1-2" data-name="Layer 1">
    <path class="cls-1" d="M162.68,32.62c-2.03,1.15-4.21,1.81-6.56,1.8h0c-1.85,.45-3.68,.98-5.55,1.37-4.85,1-9.72,1.94-14.58,2.9-.36,.07-.73,.13-1.1,.16-5.62,.37-11.24,.84-16.87,1.08-5.88,.25-11.77,.29-17.65,.41-.62,.01-1.24,.04-1.86,0-.97-.06-1.33,.39-1.67,1.31-1.39,3.82-3.65,6.99-7.32,9-2.73,1.49-5.57,1.53-8.48,.71-.35-.1-.71-.3-.95-.55-.1-.11,.07-.7,.16-.71,.67-.08,1.35-.1,2.03-.08,2.34,.07,4.28-1.13,5.28-3.29-.88,.42-1.75,.86-2.64,1.25-.17,.07-.42-.06-.64-.1,.07-.16,.11-.35,.22-.49,.51-.6,1.03-1.19,1.55-1.78-.56,.22-1.11,.45-1.68,.63-.38,.12-.8,.14-1.2,.21,.18-.31,.38-.6,.51-.92,.05-.12-.13-.47-.14-.46-1.35,.29-2.28-1.69-3.79-.71-.12,.08-.56-.33-.86-.51,.18-.3,.29-.73,.56-.86,1.37-.71,2.78-1.33,4.17-2,.6-.29,1.18-.61,1.76-.91-.69-.14-1.36-.34-2.06-.41-6.01-.63-12.03-1.27-18.05-1.82-1.06-.1-2.17,.13-3.23,.34-1.97,.39-3.92,.88-5.89,1.31-.16,.04-.35-.04-.52-.07,.07-.15,.12-.32,.21-.46,.12-.2,.27-.38,.41-.56-.28,.01-.59-.04-.84,.06-.87,.31-1.73,.68-2.6,1-.15,.05-.34-.04-.52-.06,.07-.15,.12-.33,.23-.45,.36-.39,.74-.76,1.12-1.14-1.49,.51-2.98,1.02-4.47,1.51-.18,.06-.41-.03-.62-.04,.11-.13,.22-.28,.35-.4,.44-.42,.88-.82,1.33-1.23-.61,.18-1.22,.35-1.83,.53-.23,.07-.45,.21-.68,.28-.5,.17-1.01,.32-1.51,.47,.25-.51,.51-1.01,.76-1.52-.24,.03-.54,0-.69,.13-1.56,1.39-3.22,.83-4.88,.28-1.59-.52-3.2-.99-4.75-1.61-2.1-.84-2.55-1.63-2.22-3.75,.11-.67-.12-.88-.71-1-4.45-.91-8.59-.34-12.28,2.5-1.17,.9-2.34,1.8-3.51,2.69,.25,.12,.49,.25,.74,.37,.01,.01,.03,.03,.04,.04-.02,0-.03-.02-.05-.02-.25-.12-.5-.25-.75-.37l.02-.02c-3.43,1.72-6.85,3.47-10.3,5.15-1.17,.57-2.39,1.04-3.64,1.4-1.74,.51-2.46-.05-2.05-1.83,.36-1.52,1.03-3.06,1.93-4.33,1.76-2.47,3.75-4.77,5.7-7.1,.76-.91,.7-1.59-.16-2.37-2.06-1.87-4.18-3.7-6.09-5.73-1.17-1.24-2.13-2.74-2.94-4.25-.93-1.76-.09-2.9,1.87-2.44,2.7,.63,5.37,1.48,7.98,2.43,3.49,1.27,6.96,2.63,10.35,4.14,3.13,1.4,6.24,1.39,9.44,.49,.72-.2,1.41-.49,2.14-.64,.97-.21,1.72-.58,2.02-1.64,.11-.37,.48-.76,.84-.95,2.22-1.23,4.42-2.49,6.71-3.59,1.76-.84,3.43-.25,4.86,.91,.97,.79,1.9,.85,3.09,.56,3.19-.79,6.41-1.43,9.62-2.13,.65-.14,1.55-.01,.4-1.03-1.74-1.55-1.59-4.29,.21-6.13,.78-.79,1.69-1.46,2.58-2.13,1.83-1.38,3.7-2.72,5.55-4.07,2.25-1.65,4.7-1.78,6.97-.31,4.73,3.06,9.46,6.16,13.16,10.54,.34,.4,1.03,.66,1.59,.7,1.48,.1,2.98,.05,4.46,.07,3.28,.04,6.57-.06,9.84,.16,4.76,.33,9.51,.79,14.24,1.39,5.41,.68,10.82,1.4,16.18,2.4,4.56,.85,9.06,2.03,13.54,3.24,4.1,1.11,7.83,3.13,11.37,5.44,1.01,.66,1.86,1.66,2.59,2.64,.4,.54,.51,1.37,.52,2.07,0,.6-.32,1.09,.46,1.55,.83,.49,.35,1.04-.27,1.39Z"/>
  </g>
</svg>