<?xml version="1.0" encoding="UTF-8"?>
<svg id="Layer_2" data-name="Layer 2" xmlns="http://www.w3.org/2000/svg" viewBox="0 0 68.35 33.84">
  <defs>
    <style>
      .cls-1 {
        fill: #808080;
      }
    </style>
  </defs>
  <g id="Layer_1-2" data-name="Layer 1">
    <path class="cls-1" d="M67.96,23.73c-3.15-.7-6.29-1.77-8.84-3.82-1.23-.98-2.28-2.21-3.03-3.6-.03,.3-.05,.61-.05,.93,0,.26-.4,.34-.53,.13-.2-.35-.39-.7-.59-1.05-.04,.21-.09,.43-.15,.64-.13,.47-.27,1.01-.54,1.42-.41,.65-1.09-.03-1.55-.64-.17,.71-.43,1.39-.76,2.04-.08,.16-.38,.19-.5,.06-.35-.38-.7-.76-1.05-1.13-.08,.92-.25,1.82-.51,2.7-.06,.19-.31,.27-.47,.17-.61-.35-1.16-.78-1.65-1.29-.27,.82-.63,1.6-1.06,2.35-.13,.21-.42,.16-.56,0-.28-.34-.57-.68-.85-1.03-3.11,1.89-6.24,3.76-9.51,5.34-3.6,1.74-7.49,3.01-11.53,2.96-.1,0-.19,0-.29,0-.22,.63-.52,1.22-.88,1.79-.27,.42-.58,.82-.92,1.19-.34,.38-.71,.77-1.21,.92-1.05,.31-1.31-1.04-1.42-1.75-.13-.93-.2-1.86-.21-2.8-2.3-.58-4.52-1.5-6.6-2.62-1.16-.63-2.28-1.33-3.37-2.09-.05,0-.11-.01-.16-.02-.16-.02-.21-.13-.2-.23-.96-.67-1.89-1.37-2.81-2.09-2.11-1.64-4.11-3.42-6.09-5.21-.19-.17,.03-.46,.25-.38,1.75,.6,3.56,.91,5.41,.96-1.34-1.58-3.5-3.55-5.46-4.18,0,0,0,0,.03-.01-.18-.08-.25-.31-.03-.45,3.42-2.13,7.13-3.74,11.01-4.78,2.73-.73,5.52-1.13,8.33-1.27C21.92,3.95,24.88,1.6,28.25,.03c.19-.09,.46,0,.46,.24,.02,2.51,2.83,3.53,4.7,4.42,1.01,.48,1.94,1.09,2.74,1.89,.53,.53,1.03,1.16,1.38,1.84,.74-.98,1.47-1.96,2.2-2.94,.4-.54,.8-1.08,1.2-1.61,.36-.48,.73-.92,1.23-1.25,.2-.13,.51,.03,.51,.26,0,1.53,.17,3.06,.49,4.56,.15,.7,.33,1.41,.56,2.09,.04,.12,.11,.23,.19,.31,.07,.07,.3-.33,.32-.37l.67-.99c.1-.15,.37-.2,.5-.06,.56,.59,1.19,1.1,1.89,1.52,.08-.31,.21-.59,.44-.84,.3-.31,.8-.4,1.19-.22,.49,.22,.88,.65,1.29,.99,.3,.26,.61,.52,.91,.78,0-.31,0-.62-.01-.93,0-.25,.31-.29,.47-.17,1.02,.78,2.04,1.56,3.06,2.34,.2,.02,.4,.05,.61,.07,.71-4.66,3.66-8.85,7.76-11.19,.23-.13,.64,.13,.44,.39-1.23,1.57-1.99,3.4-2.65,5.27-.72,2.05-1.42,4.12-2.07,6.19-.17,.54-.02,.93,.4,1.29,.38,.32,.86,.52,1.31,.73,.83,.4,1.63,.81,2.24,1.52,.59,.68,.99,1.48,1.39,2.28,.42,.82,.88,1.61,1.45,2.34,.75,.95,1.67,1.78,2.68,2.44,.3,.2,.09,.59-.24,.52Z"/>
  </g>
</svg>