<?xml version="1.0" encoding="UTF-8"?>
<svg id="Layer_2" data-name="Layer 2" xmlns="http://www.w3.org/2000/svg" viewBox="0 0 81.86 37.99">
  <defs>
    <style>
      .cls-1 {
        fill: #808080;
      }
    </style>
  </defs>
  <g id="Layer_1-2" data-name="Layer 1">
    <path class="cls-1" d="M42.18,37.99c-.13-.02-.21-.09-.28-.17-.18-.24-.37-.47-.56-.7-.06-.07-.12-.14-.18-.21-.34-.37-.68-.73-1.02-1.1-.15-.17-.3-.35-.44-.53-.11-.14-.23-.29-.33-.44-.37-.54-.65-1.13-.92-1.73-.31-.69-.63-1.36-.92-2.06-.14-.32-.23-.67-.35-1-.06-.16-.13-.31-.18-.47-.03-.09-.06-.17-.07-.26-.05-.28-.17-.4-.46-.42-1.21-.1-2.42-.19-3.64-.29-.18-.01-.35-.04-.53-.06-.28-.03-.57-.05-.85-.1-.34-.05-.68-.12-1.02-.19-.26-.05-.52-.13-.79-.17-.6-.09-1.15-.31-1.71-.53-.27-.11-.54-.22-.83-.27-.27-.04-.53-.15-.8-.23-.41-.12-.82-.23-1.22-.36-.31-.1-.6-.24-.9-.36-.09-.04-.19-.07-.27-.12-.12-.06-.24-.13-.36-.21-.37-.27-.75-.51-1.19-.64-.16-.05-.31-.13-.48-.18-.2-.06-.4-.1-.61-.13-.17-.02-.3,.07-.34,.24-.04,.15-.05,.32-.05,.48,0,.27,.02,.54,.03,.8,0,.16,0,.32,0,.49,.01,.3-.02,.59-.11,.88-.13,.43-.11,.85,.21,1.22,.35,.41,.68,.84,1.04,1.24,.49,.55,1,1.09,1.51,1.62,.49,.5,.98,1,1.48,1.49,.29,.28,.6,.55,.9,.83,.39,.37,.77,.75,1.15,1.13,.03,.03,.06,.06,.07,.09,.01,.05,.03,.13,.01,.15-.04,.03-.11,.04-.16,.03-.21-.04-.34-.2-.48-.35-.14-.14-.28-.26-.46-.34-.42-.18-.71-.54-1.04-.83-.42-.37-.8-.79-1.28-1.08-.12-.08-.22-.19-.35-.26-.11-.06-.25-.08-.36-.13-.15-.06-.3-.13-.43-.22-.19-.13-.37-.18-.59-.1-.16,.06-.29,0-.42-.11-.16-.15-.34-.29-.52-.42-.13-.1-.25-.2-.33-.35-.04-.07-.1-.14-.16-.19-.13-.1-.27-.07-.35,.08-.06,.11-.12,.23-.17,.35-.06,.12-.02,.24,.05,.32,.23,.26,.46,.51,.7,.76,.04,.04,.09,.06,.12,.1,.39,.45,.88,.77,1.33,1.14,.44,.36,.94,.64,1.42,.94,.45,.29,.91,.56,1.37,.84,.21,.12,.43,.23,.64,.36,.11,.07,.23,.14,.32,.23,.3,.31,.67,.51,1.04,.71,.11,.06,.21,.12,.32,.18,.07,.04,.1,.1,.04,.2-.1-.04-.21-.07-.31-.12-.27-.15-.53-.31-.8-.45-.49-.27-1-.52-1.49-.79-.32-.18-.63-.38-.94-.58-.29-.19-.58-.38-.87-.57-.48-.31-.96-.61-1.43-.92-.06-.04-.12-.07-.17-.12-.29-.31-.66-.5-.99-.75-.16-.12-.31-.27-.46-.42-.28-.29-.55-.61-.85-.88-.45-.41-.85-.87-1.24-1.33-.28-.33-.56-.65-.82-1-.22-.3-.41-.63-.6-.95-.2-.35-.4-.71-.57-1.08-.18-.37-.33-.76-.5-1.14-.16-.35-.31-.7-.48-1.05-.16-.35-.34-.68-.51-1.03-.26-.56-.52-1.13-.77-1.7-.07-.15-.11-.3-.17-.45-.16-.48-.32-.96-.48-1.44-.06-.17-.11-.35-.16-.53-.09-.32-.34-.46-.61-.58-.08-.03-.16-.07-.24-.09-.48-.15-.83-.52-1.24-.79-.38-.25-.7-.58-1.01-.91-.33-.36-.7-.7-1.02-1.06-.48-.54-.89-1.14-1.27-1.76-.23-.37-.51-.71-.81-1.03-.33-.34-.61-.73-.91-1.1-.09-.11-.17-.24-.27-.34-.5-.51-.81-1.14-1.08-1.79-.2-.49-.39-.99-.56-1.49-.19-.58-.35-1.16-.52-1.75-.07-.24-.11-.48-.15-.72-.14-.9-.33-1.79-.38-2.7-.02-.47-.07-.94-.05-1.41,.01-.35-.17-.54-.41-.72-.18-.13-.36-.26-.52-.41-.37-.34-.74-.69-1.09-1.06-.14-.15-.3-.26-.46-.38C.17,.15,.11,.09,0,0,.08,0,.1,0,.13,0c.11,.03,.22,.08,.33,.09,.22,.01,.4,.11,.56,.24,.17,.14,.32,.29,.48,.43,.1,.09,.21,.18,.32,.27,.31,.27,.64,.32,1.01,.1,.21-.13,.46-.16,.71-.18,.11,0,.24-.02,.33-.07,.45-.25,.92-.23,1.39-.15,.45,.07,.89,.16,1.34,.24,.14,.03,.28,.07,.43,.1,.49,.1,.98,.21,1.47,.31,.5,.1,1.02,.16,1.52,.29,.66,.16,1.34,.2,2,.34,.61,.13,1.23,.2,1.85,.24,.56,.04,1.12,.12,1.67,.19,.48,.06,.96,.12,1.44,.19,.42,.06,.84,.13,1.25,.19,.03,0,.06,.02,.09,.02,.59,.08,1.17,.16,1.76,.23,.41,.05,.83,.09,1.24,.12,.64,.05,1.29,.08,1.93,.13,.47,.04,.93,.09,1.4,.15,.73,.09,1.45,.18,2.18,.28,.47,.06,.94,.15,1.41,.22,.05,0,.09,.02,.14,.02,.5,.05,1,.1,1.49,.17,.52,.07,1.03,.15,1.55,.23,.06,0,.12,.02,.18,.03,.76,.1,1.51,.2,2.27,.29,.82,.1,1.63,.2,2.45,.31,.91,.12,1.81,.24,2.72,.35,.49,.06,.98,.08,1.47,.13,.84,.09,1.68,.18,2.52,.27,.18,.02,.37,.03,.55,.05,.94,.1,1.88,.19,2.82,.29,.22,.02,.44,.07,.66,.1,.23,.03,.46,.03,.69,.05,.92,.09,1.84,.18,2.76,.27,.03,0,.06,0,.09,.01,.52,.04,1.04,.08,1.56,.12,.34,.03,.67,.08,1.01,.1,.84,.07,1.69,.13,2.53,.2,.82,.07,1.64,.15,2.46,.21,.51,.04,1.02,.04,1.52,.05,.86,.02,1.72,.02,2.59,.05,.37,.01,.73,.08,1.1,.1,.16,0,.34-.03,.49-.09,.16-.06,.31-.05,.47,0,.15,.04,.3,.06,.45,.05,.37,0,.71-.13,1.03-.29,.34-.17,.71-.25,1.09-.29,.06,0,.12,0,.18,0,.33,.08,.66,.06,.99,0,.17-.02,.33-.02,.5,.05,.08,.03,.18,.04,.27,.04,.22,0,.43-.02,.65-.03,.16,0,.31,.04,.39,.19,.08,.14,.21,.2,.37,.19,.32-.02,.59,.09,.83,.28,.19,.15,.4,.22,.63,.28,.38,.1,.74,.24,1.06,.49,.12,.09,.27,.15,.42,.19,.33,.09,.58,.3,.85,.5,.12,.09,.24,.19,.37,.27,.34,.21,.68,.42,.98,.68,.1,.09,.22,.17,.35,.23,.26,.12,.44,0,.5-.27,.09-.4,.2-.8,.49-1.12,.2-.24,.37-.51,.55-.77,.13-.18,.24-.38,.37-.56,.11-.16,.25-.28,.44-.35,.17-.06,.32-.19,.47-.28,.31-.19,.62-.36,.99-.41,.06,0,.12-.04,.17-.07,.39-.27,.82-.28,1.27-.21,.08,.01,.15,.02,.23,.04,.15,.03,.22,.09,.22,.25,0,.12-.03,.24-.07,.36-.06,.16-.13,.31-.2,.47-.04,.08-.08,.15-.13,.21-.33,.48-.67,.96-1,1.44-.25,.35-.47,.72-.74,1.06-.39,.5-.74,1.02-1.04,1.57-.19,.35-.17,.59,.09,.89,.11,.13,.21,.27,.31,.4,.2,.25,.31,.55,.43,.84,.08,.19,.19,.37,.27,.56,.13,.3,.22,.61,.36,.9,.11,.22,.19,.45,.25,.69,.01,.04,.02,.09,.03,.13,.04,.19,.01,.34-.17,.45-.15,.1-.29,.2-.47,.23-.05,0-.1,.04-.15,.06-.17,.06-.33,.13-.5,.17-.23,.06-.3,.15-.24,.38,.09,.34,.27,.63,.51,.89,.23,.25,.44,.52,.58,.83,.14,.31,.37,.5,.64,.68,.19,.12,.34,.26,.44,.46,.07,.16,.18,.28,.33,.38,.4,.27,.63,.67,.84,1.08,.14,.28,.03,.51-.29,.57-.18,.03-.38,0-.57-.02-.22-.02-.44-.05-.66-.08-.16-.02-.32-.04-.48-.07-.08-.01-.15-.05-.22-.05-.25-.02-.47-.11-.69-.23-.14-.08-.32-.1-.47-.19-.27-.16-.53-.35-.79-.51-.15-.09-.31-.16-.47-.24-.02-.01-.05-.01-.06-.03-.18-.2-.46-.24-.66-.4-.07-.05-.17-.08-.25-.08-.1,0-.15,.09-.1,.18,.04,.07,.1,.13,.17,.19,.24,.21,.49,.42,.73,.63,.1,.09,.18,.21,.28,.31,.19,.19,.38,.39,.59,.54,.22,.17,.43,.33,.56,.59,.11,.22,.3,.41,.45,.61,.16,.21,.31,.42,.37,.69,.03,.12,.11,.22,.17,.33,.26,.49,.32,.98,.02,1.47-.18,.3-.37,.59-.54,.89-.08,.14-.14,.29-.22,.43-.08,.14-.18,.28-.27,.42-.19,.28-.38,.56-.58,.83-.07,.09-.14,.18-.21,.27-.06,.07-.12,.14-.17,.22-.15,.23-.26,.5-.45,.7-.21,.23-.37,.48-.56,.72-.2,.25-.45,.47-.67,.7-.04,.04-.09,.09-.12,.14-.19,.35-.46,.63-.79,.86-.05,.03-.07,.1-.11,.14-.07,.08-.12,.18-.21,.24-.2,.15-.42,.29-.63,.43-.08,.05-.16,.1-.21,.17-.09,.13-.2,.21-.33,.28-.23,.13-.47,.27-.7,.41-.1,.06-.17,.15-.27,.21-.17,.09-.34,.18-.52,.26-.42,.18-.84,.38-1.28,.53-.35,.12-.72,.17-1.08,.25-.32,.07-.63,.12-.95,.18-.23,.04-.46,.07-.68,.1-.91,.11-1.83,.07-2.74,.03-.32-.01-.64-.05-.97-.03-.26,.02-.53-.06-.8-.1-.19-.03-.38-.07-.57-.07-.37,0-.72-.03-1.07-.16-.12-.04-.25-.06-.38-.06-.39,0-.77-.01-1.13-.18-.08-.04-.16-.05-.25-.06-.39-.06-.77-.16-1.14-.29-.16-.06-.35-.05-.52-.08-.1-.02-.2-.06-.29-.11-.3-.18-.6-.37-.89-.57-.38-.25-.72-.55-1.03-.88-.2-.21-.42-.41-.61-.63-.27-.29-.53-.6-.79-.9-.21-.25-.4-.5-.6-.76-.06-.08-.12-.16-.16-.25-.15-.32-.42-.5-.75-.61-.08-.03-.16-.05-.24-.07-.44-.1-.84-.29-1.27-.42-.48-.14-.96-.13-1.42,.06-.16,.06-.3,.16-.45,.23-.1,.04-.2,.09-.3,.11-.4,.04-.79,.12-1.2,.09-.24-.02-.48,.03-.71,.03-.24,0-.48,0-.72,0-.11,0-.22,0-.32,.03-.35,.07-.7,.05-1.06,.03-.38-.02-.75,.02-1.13,.03-.02,0-.03,0-.05,0-.07,.02-.17,.03-.17,.12,0,.06,.06,.13,.11,.16,.13,.07,.27,.14,.4,.16,.26,.03,.43,.19,.61,.35,.05,.05,.08,.15,.09,.23,.04,.34,.22,.57,.56,.68,.15,.04,.3,.08,.44,.14,.11,.05,.23,.12,.29,.21,.11,.16,.19,.33,.25,.51,.07,.23,.21,.39,.42,.49,.26,.12,.53,.2,.77,.37,.07,.05,.18,.05,.27,.06,.14,.01,.25,.07,.33,.18,.03,.04,.04,.12,.03,.17,0,.03-.09,.05-.14,.05-.18-.03-.36-.07-.54-.12-.55-.16-1.1-.33-1.66-.49-.26-.07-.53-.11-.79-.19-.55-.17-1.1-.35-1.65-.53-.13-.04-.26-.09-.4-.12-.08-.02-.17-.02-.25,0-.18,.03-.25,.12-.26,.3,0,.12,.04,.25,0,.37-.12,.44-.14,.92-.51,1.26-.1,.09-.13,.21-.11,.36,.04,.22-.02,.44-.04,.66-.02,.24-.1,.45-.21,.65-.08,.15-.18,.29-.28,.42-.09,.12-.14,.23-.14,.38,0,.09-.02,.19-.05,.27-.06,.15-.03,.28,.05,.42,.14,.23,.27,.46,.4,.7,.06,.11,.1,.23,.01,.36Z"/>
  </g>
</svg>