<?xml version="1.0" encoding="UTF-8"?>
<svg id="Layer_2" data-name="Layer 2" xmlns="http://www.w3.org/2000/svg" viewBox="0 0 99.22 37.03">
  <defs>
    <style>
      .cls-1 {
        fill: #808080;
        fill-rule: evenodd;
      }
    </style>
  </defs>
  <g id="Layer_1-2" data-name="Layer 1">
    <path class="cls-1" d="M1.36,13.13s-2.55-2.55-.66-2.84c1.88-.29,6.62,2.02,8.99,4.22,2.37,2.2,8.5,6.24,12.33,4.32,0,0,.05-1.51,1.42-1.62,1.38-.11,1.94-.15,2.13-.92,.19-.77,.05-1.39,.67-1.41s3.93,1.89,6.93,1.38c3-.51,12.2-3.66,12.47-4.01,.27-.35,1.73-3.58,2.82-4.36,0,0-1.8-5.46-1.82-6.17-.01-.71-.04-2.03,1.74-1.65,1.78,.37,8.96,6.2,11.93,6.59,2.97,.38,7.71-.11,10.02-.47,2.3-.36,18.14-2.07,25.93,.24,0,0,2.96,.69,2.97,2.05s-3.62,3.52-7.34,4.79c0,0,.01,1.15-2.22,2.21-2.23,1.05-7.26,2.93-7.26,2.93,0,0-1.23,2.42-2.67,3.26-1.44,.85-2.88,1.02-3.3,.97-.42-.04,.61-2.8-.86-2.83,0,0-2.87,7.3-6.04,9.59-3.17,2.29-9.51,6.37-12.84,5.69,0,0-.72-.41,.04-1.2,.76-.79,9.46-6.2,10.33-10.34,0,0,1.06-2.97-.93-2.81-1.99,.17-15.17,1.61-17.38,.95,0,0-.74-.04-1.19,.48-.45,.53-3.05,3.8-3.65,4-.6,.2-1.45,.65-2.92-1.22-1.47-1.86-2.19-1.44-3.16-1.43-.97,0-2.4,.1-3.29,.07-.89-.03-1.4,.1-1.69,.26-.29,.16-2.5,3.48-4.75,4.03-2.24,.55-.28-1.48-.11-1.94,.17-.46-.22-1.82-1.56-1.49-1.34,.33-1.33,.61-1.97,.57-.64-.04-1.8-.78-2.7-.62-.9,.16-1.74,.16-2.52,.94-.78,.78-3.2,6.28-5.46,8.77-2.26,2.49-2.52,2.89-3.39,2.92-.87,.03-.81-1.16-.61-1.6,.21-.44,3.06-7.75,1.71-10.83-1.35-3.09-4.6-7.5-8.04-9.2,0,0-.85,.45-1.26,.27-.41-.18-.82-2.53-.82-2.53h0Z"/>
  </g>
</svg>