<?xml version="1.0" encoding="UTF-8"?>
<svg id="Layer_2" data-name="Layer 2" xmlns="http://www.w3.org/2000/svg" viewBox="0 0 108.41 61.7">
  <defs>
    <style>
      .cls-1 {
        fill: #808080;
      }
    </style>
  </defs>
  <g id="Layer_1-2" data-name="Layer 1">
    <path class="cls-1" d="M62.59,13.38c.02-.16-.33-.32-.43-.39-.33-.24-.67-.47-1.01-.69-1.03-.69-2.03-1.4-3.01-2.14-.91-.68-1.66-1.56-2.48-2.34-.45-.42-.92-.82-1.41-1.18-.46-.34-.98-.59-1.46-.91-1.63-1.09-3.09-2.39-4.48-3.77-.35-.35-.73-.76-.71-1.26,1.05-.56,2.26-.76,3.45-.68,1.18,.08,2.39,.06,3.35,.76,1.57,1.15,3.2,2.28,5.05,2.9,.5,.17,1,.3,1.49,.49,.56,.23,1.09,.54,1.61,.84,1.6,.9,3.27,1.66,5,2.28,1.05,.37,2.12,.69,3.14,1.16,.79,.36,1.54,.81,2.36,1.07,1.33,.42,2.84,.32,4.03,1.05,.95,.57,1.58,1.52,2.77,1.58,1.28,.06,2.55-.22,3.82-.34,1.56-.15,3.29,0,4.41,1.1,.21,.21,.4,.45,.66,.61,.23,.14,.49,.2,.76,.25,2.1,.41,4.26,.32,6.38,.5,3.8,.32,7.55,1.27,10.67,3.47,.67,.47,1.58,.77,1.82,1.55,.09,.31,.06,.64,.01,.95-.07,.46-.16,.91-.28,1.35-.08,.31-.18,.61-.35,.88-.2,.3-.49,.52-.78,.72-.46,.31-.94,.59-1.45,.83-.37,.17-.76,.33-1.11,.54-.61,.36-1.12,.89-1.74,1.23-.45,.24-.95,.38-1.44,.54-2.47,.8-4.7,2.05-7.27,2.45-1.05,.16-2.11,.33-3.06,.81-.43,.22-.82,.49-1.26,.69-.53,.25-1.11,.38-1.67,.55-1.04,.31-2.04,.73-3.04,1.14-.6,.25-1.2,.5-1.76,.83-.59,.35-1.13,.78-1.72,1.13-.58,.34-1.21,.58-1.85,.76-.2,.05-.76,.07-.89,.2-.13,.13-.13,.55-.24,.74-.12,.2-.27,.37-.42,.55-.92,1.03-1.78,2.11-2.73,3.09-.93,.96-1.83,1.96-2.49,3.13-.31,.55-.56,1.13-.92,1.65-.82,1.2-2.14,1.97-3.05,3.11-.42,.52-.75,1.11-1.07,1.69-.58,1.04-1.15,2.08-1.73,3.11-.35,.64-.71,1.28-1.01,1.94-1.02,2.22-1.48,4.65-1.7,7.08-.03,.32-.17,.75-.49,.72-.26-.02-.39-.35-.41-.61-.07-1.11-.15-2.23-.22-3.34-.05-.71-.09-1.43-.07-2.14,.03-.86,.17-1.72,.31-2.57,.22-1.36,.44-2.72,.7-4.07,.38-2.01,.84-4.01,1.47-5.96,.31-.97,.67-1.92,1.09-2.86,.18-.42,.35-.84,.64-1.19,.34-.41,.69-.8,1.05-1.19,.81-.88,1.7-1.8,2.87-2.07-1.08,.02-2.16,.09-3.23,.21-1.03,.12-2.04,.37-3.07,.5-2.13,.26-4.35,.21-6.5,.17-1.95-.04-3.9-.13-5.84-.35-1.89-.21-3.8-.33-5.7-.52-1.68-.17-3.38-.34-5.07-.35-4.06-.02-8.09-.3-12.11-.94-.83-.13-1.66-.31-2.5-.43-1.09-.16-2.19-.22-3.29-.19-.33,.01-.67,.03-.99,.11-.17,.04-.33,.1-.48,.17-1.66,.76-3,2.5-4.11,3.91-1.2,1.52-2.27,3.14-3.44,4.68-2.06,2.73-4.61,5.34-7.92,6.2-1.06,.28-2.16,.36-3.25,.4-.27,0-.54,.01-.8,.02-.1,0-.36,.07-.45,0-.34-.22,.15-.56,.32-.69,.31-.25,.61-.5,.89-.78,.55-.52,1.05-1.11,1.39-1.8,.57-1.14,.67-2.45,.9-3.71,.26-1.45,.7-2.86,1.13-4.27,.35-1.13,.7-2.26,1.05-3.4,.34-1.09,.81-2.24,1.66-3.01-.48-.1-.79-.54-1.06-.95-.62-.94-1.24-1.89-1.61-2.95-.22-.63-.34-1.29-.6-1.91-.13-.29-.28-.57-.42-.86-.56-1.15-.8-2.43-1.32-3.6-.12-.27-.26-.55-.27-.85,0-.19,.05-.39,.07-.58,.06-.67-.41-1.26-.45-1.93-.1-1.64-1.07-3.19-2.5-3.99-.29-.16-.62-.33-.7-.65-.08-.31,.16-.63,.45-.77s.63-.12,.95-.09c3.95,.37,7.41,2.79,10.23,5.57,.37,.36,.73,.73,1.08,1.1,1.9,1.98,3.72,4.05,5.44,6.19,1.25,1.55,2.36,3.58,4.33,3.78,2.47,.25,5.17-.9,7.44-1.76,6.18-2.34,11.77-6.03,17.76-8.79,4.18-1.92,8.5-3.56,12.98-4.64,.43-.1,.9-.19,1.33-.34,.1-.04,.45-.13,.55-.24,.02-.02,.03-.04,.03-.06Z"/>
  </g>
</svg>