<?xml version="1.0" encoding="UTF-8"?>
<svg id="Layer_2" data-name="Layer 2" xmlns="http://www.w3.org/2000/svg" viewBox="0 0 153.04 39.98">
  <defs>
    <style>
      .cls-1 {
        fill: #808080;
      }
    </style>
  </defs>
  <g id="Layer_1-2" data-name="Layer 1">
    <path class="cls-1" d="M152.65,9.39c.58,.63,.54,.88-.25,1.07-1.35,.32-2.53,1.01-3.77,1.57-1.72,.78-3.49,1.47-5.26,2.14-1.98,.75-3.67,1.91-5.24,3.31-1.18,1.05-2.42,2.04-3.65,3.03-.58,.47-.63,.5-.22,1.11,.62,.93,1.33,1.82,1.44,2.99,.09,1.02,.17,2.04,.2,3.06,.03,1.02,.02,2.05,0,3.08-.01,.43-.07,.87-.16,1.29-.18,.76-.28,.79-1.09,.85-1.83,.15-3.41-.63-4.96-1.4-1.55-.77-3.04-1.68-4.51-2.6-1.89-1.18-3.52-2.66-4.63-4.63-.37-.65-.72-.97-1.53-.77-.78,.19-1.6,.16-2.4,.24-.61,.06-.64,.09-.41,.69,.42,1.07,.88,2.12,1.3,3.2,.62,1.61,.23,2.26-1.5,2.23-1.01-.02-2.04-.25-3.01-.54-3.03-.91-6.05-1.86-9.05-2.86-.93-.31-1.79-.85-2.7-1.22-.47-.19-1.01-.35-1.5-.33-2.33,.08-4.65,.22-6.97,.35-.31,.02-.63,.01-.92,.11-.21,.07-.47,.26-.52,.44-.18,.68-.64,1.13-1.14,1.55-.63,.53-.95,1.15-.93,2.02,.03,1.18-.58,1.6-1.58,1.02-1.06-.62-2.02-1.43-3-2.18-.83-.64-1.6-1.38-2.46-1.98-.38-.26-.91-.42-1.37-.42-2.92,.02-5.84,.14-8.76,.13-3.32,0-6.65-.04-9.97-.19-3.16-.14-6.31-.46-9.47-.67-1.61-.11-3.22-.16-4.83-.23,.04,.11,.06,.25,.14,.34,1.75,1.85,2.52,4.18,3.22,6.54,.7,2.34,1.62,4.57,3.11,6.53,.07,.1,.19,.19,.21,.31,.07,.35,.26,.79,.12,1.03-.13,.24-.62,.39-.94,.38-1.73-.03-3.37-.5-4.96-1.15-3.86-1.56-6.82-4.24-9.37-7.45-1.55-1.95-2.94-4.01-3.94-6.29-.37-.85-.91-1.22-1.87-1.16-3.41,.21-6.82,.41-10.23,.52-4.07,.12-8.14,.25-12.21,.17-2.51-.05-5-.55-7.39-1.4-.87-.31-1.72-.73-2.53-1.18-.95-.52-1.34-1.4-1.1-2.24,.25-.89,1.07-1.4,2.2-1.31,1.17,.1,2.34,.31,3.52,.35,3.12,.09,5.93-.91,8.51-2.59,3.26-2.12,6.51-4.24,9.76-6.37,2.9-1.9,5.94-3.49,9.23-4.63,.42-.15,.79-.46,1.19-.69,1.09-.64,2.14-1.39,3.29-1.9,1.55-.69,3.18-1.22,4.78-1.8,.21-.08,.45-.06,.67-.09-.05,.2-.11,.39-.15,.59-.03,.14-.05,.28-.08,.42,.15,0,.3,0,.43-.03,1.09-.35,2.17-.75,3.27-1.07C48.03,.3,49.39,0,50.8,0c.13,0,.27,.08,.4,.12-.05,.11-.09,.22-.15,.32-.25,.35-.53,.69-.76,1.06-.07,.11-.05,.28-.07,.43,.14-.01,.3,.01,.43-.04,.75-.3,1.49-.6,2.23-.93,1.67-.75,3.44-.77,5.21-.73,.11,0,.22,.07,.33,.11-.07,.12-.12,.27-.22,.37-.31,.3-.65,.58-.96,.89-.17,.17-.32,.38-.44,.59-.05,.08,0,.23,0,.34,.09-.02,.18-.03,.26-.06,.63-.26,1.25-.55,1.89-.79,1.59-.59,3.22-.95,4.92-.89,.17,0,.35,.08,.52,.12-.09,.15-.15,.32-.26,.45-.28,.33-.61,.63-.87,.97-.1,.13-.1,.35-.15,.52,.17-.02,.35,0,.5-.06,1.42-.56,2.87-1.01,4.39-1.17,.15-.02,.31-.08,.46-.07,.29,.03,.58,.11,.87,.16-.1,.25-.21,.49-.3,.74-.07,.19-.12,.39-.18,.58,.23,.02,.47,.08,.69,.04,1.43-.25,2.86-.55,4.3-.78,.34-.05,.71,.08,1.07,.13-.17,.31-.33,.63-.51,.94-.06,.11-.17,.18-.23,.29-.09,.16-.15,.33-.22,.49,.2,0,.4,.06,.58,.02,1.94-.46,3.88-.89,5.89-.77,.22,.01,.44,0,.65,.03,.38,.05,.46,.27,.31,.6-.04,.08-.1,.16-.13,.25-.12,.3-.23,.59-.35,.89,.29-.06,.59-.11,.88-.17,1.52-.31,3.05-.59,4.62-.47,.16,.01,.32,.14,.47,.21-.07,.13-.12,.28-.21,.4-.2,.29-.42,.58-.63,.87,.36,0,.72,0,1.08,0,.68,0,1.37-.02,2.05,.02,.69,.05,.75,.17,.5,.84-.14,.38,.03,.33,.3,.32,.78-.03,1.55-.05,2.33-.04,.31,0,.68,.06,.55,.53-.12,.45,.2,.37,.42,.38,.56,.02,1.12,0,1.68,.02,.48,.02,.68,.26,.47,.73,.57,.11,1.25-.28,1.7,.41,.02,.03,.52-.22,.76-.4,.72-.54,1.43-1.09,2.13-1.66,1.43-1.17,3.09-1.94,4.79-2.62,.83-.33,1.69-.56,2.56-.77,.59-.14,.96,.18,1.27,.7,.59,.98,1.27,1.9,1.89,2.87,.43,.67,.89,1.35,1.23,2.07,.74,1.58,1.86,2.85,3.11,4.02,.29,.28,.57,.57,.84,.87,.64,.68,1.37,1.15,2.37,1.02,.95-.12,1.92-.16,2.86-.33,.35-.06,.66-.38,.99-.59h0c.24-.13,.5-.24,.71-.41,3.06-2.44,6.47-4.27,10.16-5.57,1.52-.53,3.11-.86,4.65-1.33,2.04-.63,4.16-.74,6.25-.85,1.76-.09,3.51,.13,5.23,.66,1.52,.47,2.69,1.35,3.74,2.49Z"/>
  </g>
</svg>