<?xml version="1.0" encoding="UTF-8"?>
<svg id="Layer_2" data-name="Layer 2" xmlns="http://www.w3.org/2000/svg" viewBox="0 0 80.28 53.38">
  <defs>
    <style>
      .cls-1 {
        fill: #808080;
      }
    </style>
  </defs>
  <g id="Layer_1-2" data-name="Layer 1">
    <path class="cls-1" d="M15.19,.43c.64-.04,1.27-.07,1.91-.11,.93-.05,1.86-.11,2.78,0,1.45,.18,2.82,.77,4.13,1.44,.47,.24,.94,.49,1.38,.77,2.04,1.27,4.03,3.11,4.31,5.5,.14,1.2,.18,2.42,.09,3.62-.08,1.21-.27,2.43-.04,3.62,.1,.5,.27,.97,.44,1.45,.18,.5,.35,1,.53,1.49,.17,.48,.34,.97,.55,1.44,.17,.39,.36,.77,.56,1.14,.6,1.13,1.21,2.13,2,3.13,1.43,1.83,3.79,2.63,6.06,3.14,4.02,.91,8.14,1.2,12.23,1.73,.83,.11,1.67,.23,2.5,.36,1.88,.31,3.76,.71,5.58,1.28,.91,.28,1.8,.61,2.68,.99,.83,.36,1.67,.63,2.5,.97,.77,.32,1.5,.71,2.23,1.1,.45,.24,.9,.48,1.35,.72,.59,.32,1.18,.63,1.75,.96,1.06,.61,2.08,1.29,3.1,1.96,.48,.32,.96,.63,1.4,1,.39,.32,.77,.7,1.21,.96,.47,.36,.94,.72,1.34,1.15,.71,.76,1.23,1.73,1.74,2.62,.55,.95,.75,2.32,.79,3.41,0,.13,0,.27-.08,.36-.11,.12-.29,.11-.45,.1-.68-.04-1.36,.05-2.01,.26-.28,.09-.56,.27-.86,.3-.3,.03-.6-.04-.9,.01-.34,.05-.65,.2-.97,.32-.6,.23-1.24,.36-1.88,.39-.46,.02-.92,0-1.36-.15-.34-.11-.68-.31-.82-.64-.08-.19-.08-.41-.06-.61,.03-.34,.11-.67,.24-.98,.1-.24,.5-.96,.04-.97-1.84-.04-3.68-.35-5.51-.1-.32,.04-.64,.11-.93,.23-.27,.12-.51,.29-.76,.44-1.37,.82-2.94,.78-4.51,1.05-2.23,.38-4.48,.66-6.74,.84-1.92,.15-3.82,.47-5.75,.62-1.99,.15-3.98,.21-5.97,.31-1.96,.09-3.9,.23-5.86,.2-2.02-.04-4.04-.13-6.06-.29-.45-.04-.83-.07-1.25-.22-.31,.34-.15,.88-.15,1.34,0,.83-.45,1.6,.44,2.1,.27,.15,.56,.25,.81,.42,.15,.1,.29,.24,.31,.41,.02,.16-.07,.31-.2,.41s-.27,.15-.42,.21c-.95,.33-2.05,.64-3.06,.7-3.12,.18-6.29-1.04-8.48-3.26-.58-.59-1.13-1.26-1.2-2.11-.05-.54,.02-1.09,0-1.63-.01-.31-.77-.08-.98-.06-.4,.04-.8,.06-1.19,.08-.8,.03-1.6,0-2.39-.06-.82-.07-1.59-.3-2.41-.38-.84-.08-1.69-.11-2.53-.21-1.4-.17-2.79-.38-4.17-.64-.73-.14-1.79-.33-2.13-1.1-.12-.26-.03-.64,.24-.73,.09-.03,.19-.03,.29-.02,2.08,.09,4.15,.18,6.23,.27,.85,.04,1.72,.07,2.51-.25,.73-.29,1.32-.86,1.86-1.43,.26-.28,.51-.57,.73-.88,.26-.38,.46-.81,.63-1.23,.47-1.16,1.35-2.44,.96-3.63-.9-2.8-1.58-5.66-2.04-8.56-.37-2.34-.59-4.74-.29-7.09,.21-1.61,.72-3.16,1.37-4.64,.33-.73,.69-1.45,1.06-2.16,.29-.55,.91-1.31,.84-1.97-.01-.13-.08-.25-.13-.37-.2-.47-.11-.9-.12-1.4,0-.77,.05-1.37-.48-1.94-.79-.86-1.57-1.75-2.13-2.77-.46-.84-1.06-1.95-1.19-2.9-.08-.58,.04-1.2,.43-1.64C11.43-.04,12.45-.08,13.33,.08c.88,.16,1.76,.47,2.64,.32"/>
  </g>
</svg>