<?xml version="1.0" encoding="UTF-8"?>
<svg id="Layer_2" data-name="Layer 2" xmlns="http://www.w3.org/2000/svg" viewBox="0 0 73.99 24.33">
  <defs>
    <style>
      .cls-1 {
        fill: #808080;
      }
    </style>
  </defs>
  <g id="Layer_1-2" data-name="Layer 1">
    <path class="cls-1" d="M73.97,5.45c-1.07,2.28-1.41,4.93-.95,7.4,.12,.64,.34,1.29,.34,1.95,0,.59-.16,1.14-.48,1.65-.54,.86-1.74,2-1.21,3.11,.12,.25-.1,.53-.38,.44-1.96-.62-3.88-1.34-5.76-2.18-1.63-.73-3.25-1.52-4.8-2.43-1.21,.41-2.47,.7-3.74,.9-.27,.24-.54,.48-.81,.72-.57,.5-1.27,1.37-1.99,1.44-.8,.08-1.42-.73-2.12-1.12-.23-.13-.46-.24-.7-.33-.41,.05-.82,.11-1.22,.18-.58,.09-1.16,.21-1.73,.33-.57,.54-1.15,1.68-1.45,2.25-.38,.71-.93,1.24-1.75,1.37-1.03,.17-2.11,.13-3.15,.03-.99-.09-1.99-.23-2.94-.52-2.46,.96-4.94,1.88-7.52,2.43-3.9,.84-8.18,.94-11.82-.92-.07-.04-.14-.08-.21-.11,.03,.25,.05,.51,.08,.75,.05,.38,.24,.98-.09,1.29-.65,.64-1.62-.17-2.08-.65-1.31-1.37-2.38-3.06-2.88-4.9-.66-.49-1.32-.97-2.03-1.38-.91-.53-1.87-.92-2.87-1.24-1.02-.32-2.05-.6-3.04-1.02-.91-.39-1.76-.89-2.54-1.5C2.59,12.18,1.33,10.66,.06,9.17c-.19-.23,.1-.47,.31-.48,1.19-.1,2.37-.16,3.56-.22-1.19-1.16-2.38-2.32-3.58-3.48-.22-.22-.08-.5,.17-.59C4.71,2.87,9.1,1.93,13.53,1.54c4.12-.36,8.29-.23,12.38,.41,1.17-.51,2.41-.91,3.63-1.21C31.36,.28,33.24,.02,35.12,0c.36,0,.73-.02,1.02,.23,.19,.17,.21,.48,.11,.7-.09,.2-.39,.51-.38,.74,.02,.26,.49,.06,.62,.04,.17-.02,.32-.03,.49,0,.29,.06,.52,.34,.5,.64-.03,.34-.45,.53-.66,.75-.33,.35-.55,.78-.67,1.23,.39,.11,.78,.22,1.17,.32,2.67-.51,5.4-.72,8.11-.65,.96,.02,1.92,.08,2.88,.17,.34,.03,.65,.07,.92,.28,.23,.18,.27,.53,.27,.79,0,.41,.05,.76,.28,1.1,.23,.33,.51,.61,.78,.9,.12,.13,.23,.26,.34,.41,.06,0,.12,.01,.17,.02,1.8-.98,3.9-1.52,5.91-1.7,.35-.03,1.13-.17,1.27,.31,.04,.14,.03,.25,.03,.4,.01,.25,.29,.23,.47,.22,.26-.03,.53-.06,.79,.01,1.09,.29,1.58,1.28,1.97,2.24,.1,.03,.2,.06,.29,.08,.62-.1,1.24-.2,1.85-.33,1.13-.25,2.25-.54,3.34-.9,2.25-.73,4.44-1.69,6.49-2.85,.18-.1,.55,.05,.44,.3Z"/>
  </g>
</svg>