<?xml version="1.0" encoding="UTF-8"?>
<svg id="Layer_2" data-name="Layer 2" xmlns="http://www.w3.org/2000/svg" viewBox="0 0 83.22 58.05">
  <defs>
    <style>
      .cls-1 {
        fill: #808080;
      }
    </style>
  </defs>
  <g id="Layer_1-2" data-name="Layer 1">
    <path class="cls-1" d="M16.84,47.6c-.04,2.65,.39,5.07,1.17,7.43,.03,.09,.07,.17,.09,.26,.02,.08,0,.17,.01,.25-.09,0-.19,.02-.26-.02-.59-.3-1.21-.56-1.75-.93-1.8-1.22-2.91-3-3.75-4.95-.75-1.73-1.16-3.57-1.67-5.37-.23-.82-.48-1.63-.74-2.43-.06-.19-.21-.42-.38-.5-2.38-1.14-4.27-2.87-6.03-4.78-.41-.44-.41-.44-.93-.17-.44,.23-.91,.31-1.39,.15-.75-.25-.98-.93-.45-1.51,.34-.37,.79-.65,1.2-.96,.3-.22,.31-.22-.02-.42-.47-.28-.95-.56-1.41-.87-.17-.12-.33-.3-.43-.49-.25-.51,0-1.04,.56-1.14,.28-.05,.59-.04,.88,0,.57,.09,.54,.1,.71-.41,.34-1.05,.64-2.12,1.07-3.13,1.53-3.59,3.85-6.6,6.83-9.12q.47-.4,.23-.93c-.85-1.86-.75-3.78-.2-5.68,.79-2.73,2.38-4.97,4.52-6.81,3.02-2.59,6.53-3.95,10.53-4,.11,0,.22,0,.33,0,.47,.02,.47,.02,.4,.47-.14,.93-.07,1.83,.27,2.72,.79,2.04,2.78,3.36,4.97,3.28,.34-.01,.48,.02,.49,.42,.07,2.26,1.58,3.84,3.84,4,.38,.03,.56,.1,.64,.53,.26,1.43,1.46,2.48,2.92,2.59,.38,.03,.48,.12,.47,.51-.1,2.3,.65,4.31,2.22,6,.34,.37,.77,.69,1.21,.94,1.34,.77,2.71,1.5,4.05,2.26,.28,.16,.5,.16,.77,.03,.93-.46,1.6-1.21,2.02-2.12,.57-1.23,1.09-2.5,1.49-3.8,.52-1.65,.91-3.34,1.36-5.01,.56-2.05,1.16-4.08,2.17-5.96C57.07,3.8,60.5,1.21,65.03,.06c.09-.02,.19-.07,.27-.05,.06,.01,.15,.15,.14,.18-.56,1.01-.21,2,.02,3.01,1.01,4.45-.14,8.3-3.26,11.59-.31,.33-.68,.63-1.08,.86-.33,.19-.28,.32-.13,.59,.99,1.76,1.08,3.59,.24,5.41-.3,.65-.82,1.21-1.24,1.81-.05,.07-.08,.15-.12,.23,.09,0,.2,.05,.26,.02,.56-.28,1.14-.52,1.65-.87,1.12-.77,2.3-1.39,3.64-1.68,2.86-.63,5.44,0,7.78,1.73,.07,.05,.15,.11,.21,.18,.04,.05,.06,.12,.09,.18-.06,.02-.13,.06-.19,.07-.59,.12-1.21,.18-1.78,.38-1.64,.57-2.79,1.71-3.46,3.29-.43,1.01-.73,2.08-1.12,3.12-.27,.72-.56,1.44-.9,2.13-.14,.3-.07,.41,.18,.56,2.08,1.2,4.27,1.77,6.68,1.3,1.52-.29,3.04-.59,4.58-.77,1.51-.17,2.98,.06,4.25,1.01,.7,.52,1.21,1.19,1.44,2.04,.06,.21,.08,.43-.25,.4-1.7-.14-3.07,.62-4.37,1.57-.89,.65-1.74,1.36-2.63,2.03-1.2,.9-2.56,1.45-4.05,1.65-2.46,.34-4.82-.05-7.07-1.06-1.09-.49-2.11-1.12-3.17-1.69-.07-.04-.16-.05-.24-.07,.03,.06,.05,.13,.09,.19,.84,1.03,1.64,2.09,2.53,3.07,1.38,1.52,3.17,2.3,5.17,2.64,1.45,.25,2.91,.47,4.34,.81,1.33,.31,2.52,.94,3.39,2.05,.63,.81,.97,1.73,.89,2.77-.02,.24-.07,.39-.37,.26-1.63-.71-3.25-.44-4.86,.06-1.11,.34-2.2,.75-3.32,1.03-2.3,.57-4.5,.18-6.61-.82-2.02-.96-3.67-2.37-5.11-4.06-1.67-1.96-2.99-4.15-4.3-6.35-1.22-2.06-2.44-4.13-3.95-5.99-1.11-1.36-2.33-2.61-3.82-3.57-.48-.31-.97-.42-1.52-.33-.89,.15-1.7,.49-2.41,1.05-.3,.24-.46,.53-.49,.94-.07,1.06-.04,2.14-.46,3.15-.11,.27,.1,.32,.27,.37,.93,.31,1.86,.61,2.79,.9,1.34,.42,2.69,.81,3.87,1.59,2.44,1.61,3.73,3.91,3.95,6.81,.04,.56,.02,.59-.53,.54-1.93-.18-3.86-.29-5.77-.59-2.77-.43-4.79-1.99-6.11-4.44-.26-.49-.5-.99-.75-1.48-.26-.5-.26-.5-.7-.19-.3,.21-.6,.42-.92,.61-.23,.13-.27,.27-.11,.48,.23,.31,.46,.62,.68,.94,.49,.71,1.03,1.4,1.46,2.15,1.16,2.04,1.01,4.09-.13,6.09-.28,.48-.31,.48-.72,.11-1.01-.92-2.07-1.79-3-2.77-1.25-1.32-1.69-2.94-1.44-4.75,0-.04,.01-.07,.01-.11,.05-.47,.02-.5-.42-.35-1.5,.53-3.05,.87-4.63,1.04-.37,.04-.74,.06-1.1,.07-.25,0-.33,.1-.27,.34,.42,1.7,.36,3.43,.24,5.16-.21,3.11,.16,6.14,1.3,9.06,.05,.12,.06,.24,.08,.37-.14-.01-.28,0-.41-.04-1.77-.63-3.22-1.7-4.37-3.17-1.34-1.71-2.14-3.68-2.79-5.73-.45-1.44-.86-2.9-1.36-4.32-.28-.79-.71-1.53-1.06-2.3-.18-.38-.45-.46-.85-.38-.81,.16-.8,.14-.82,.96-.04,1.56-.09,3.13-.13,4.54Zm-5.04-20.41c.1-1.07-.91-2.24-2.25-2.2-1.22,.03-2.16,1.04-2.14,2.27,.02,1.27,1,2.19,2.29,2.16,1.21-.03,2.13-1,2.11-2.22Zm-2.82,1.55c-.76,0-1.4-.62-1.42-1.39-.02-.78,.62-1.45,1.41-1.48,.8-.02,1.49,.66,1.49,1.46,0,.77-.65,1.4-1.47,1.4Zm-.54-.79c.32,0,.54-.2,.54-.49,0-.29-.24-.52-.54-.51-.31,.01-.47,.19-.51,.48-.03,.29,.21,.52,.51,.52Z"/>
  </g>
</svg>