<?xml version="1.0" encoding="UTF-8"?>
<svg id="Layer_2" data-name="Layer 2" xmlns="http://www.w3.org/2000/svg" viewBox="0 0 100.23 38.1">
  <defs>
    <style>
      .cls-1 {
        fill: #808080;
      }
    </style>
  </defs>
  <g id="Layer_1-2" data-name="Layer 1">
    <path class="cls-1" d="M15.81,29.38c-.47,1.55-1.65,2.86-3.14,3.49-.4,.17-.85,.31-1.14,.63-.16,.18-.27,.4-.43,.58-.47,.53-1.28,.55-1.99,.52-2.96-.12-6.18-.52-8.26-2.63-1.17-1.18-.87-3.07-.55-4.7,.1-.5,.2-1.02,.44-1.48,.28-.55,.73-1,1.15-1.46,1.89-2.13,3.02-4.85,4.99-6.9,1.12-1.17,2.46-2.09,3.8-3,1.34-.91,2.68-1.82,4.02-2.73,.84-.57,1.68-1.14,2.61-1.56,.9-.4,1.86-.65,2.82-.89,4.18-1.03,8.41-1.9,12.66-2.6,6.94-1.14,13.93-1.31,20.94-.66,4.17,.39,8.27,1.24,12.37,2.07,4.07,.82,7.87,1.14,12.01,.54,.3-.28,.19-.77,.08-1.16-.19-.69-.59-1.31-.78-2-.29-1.05-.08-2.16,.18-3.22,.12-.52,.26-1.05,.57-1.49,.3-.44,.81-.78,1.34-.74,.94,.06,1.35,1.12,2,1.8,1.84,1.95,4.09,3.62,6.7,4.25,.85,.2,1.71,.29,2.58,.4,2.54,.34,5.05,.91,7.55,1.48,.54,.12,1.08,.25,1.59,.48,.12,.06,.25,.12,.31,.24,.14,.26-.11,.56-.34,.76-.62,.54-1.25,1.08-1.99,1.45-.73,.37-1.54,.56-2.34,.75-3.61,.85-7.32,1.71-10.99,1.22-.75-.1-1.5-.25-2.26-.21-1.7,.1-2.9,2.01-4.04,3.13-1.26,1.23-2.52,2.49-3.84,3.65-1.08,.95-2.3,2.06-3.59,2.73-1.55,.81-3.15,1.58-4.77,2.25-3.18,1.33-6.52,2.23-9.84,3.13-3.21,.87-6.32,1.8-9.64,2.12-3.26,.31-6.55,.34-9.81,.07-.81-.07-1.67-.14-2.41,.2-.1,.23,0,.4,.24,.49,1.31,.49,2.9,.44,3.88,1.43,.6,.61,.84,1.51,.79,2.36-.05,.85-.34,1.68-.68,2.46-.11,.26-.24,.53-.43,.74-.24,.26-.57,.41-.9,.52-1.11,.34-2.31,.16-3.46-.02-1.15-.18-2.33-.37-3.35-.94-1.12-.62-1.95-1.64-2.66-2.71-.43-.64-.84-1.33-1.49-1.75-.79-.51-1.8-.55-2.64-.99-.26-.14-.5-.31-.75-.45-1.41-.79-3.21-.63-4.64-1.39-.39-.21-.75-.48-1.17-.61s-.94-.1-1.22,.23c.16,.1-.2,0-.04,.09Z"/>
  </g>
</svg>