<?xml version="1.0" encoding="UTF-8"?>
<svg id="Layer_2" data-name="Layer 2" xmlns="http://www.w3.org/2000/svg" viewBox="0 0 65.59 49.04">
  <defs>
    <style>
      .cls-1 {
        fill: #808080;
      }
    </style>
  </defs>
  <g id="Layer_1-2" data-name="Layer 1">
    <path class="cls-1" d="M1.67,18.09s.05-.01,.02-.05c-.8-.95-1.76-1.93-.6-3.09,.32-.32,.74-.37,1.07-.74,2.76-3.06,6.02-5.39,9.82-7.01,2.54-1.08,5.43-1.6,8.25-1.61,.93,0,1.85,.04,2.75,.14,.02,0,.03-.02,.04-.03,1.67-1.98,3.81-3.41,6.07-4.64,.96-.51,1.97-.77,3.05-.77,.08,0,.16,0,.24,0,.25,.01,.53,.09,.81,.11,.03,0,.06,0,.1,0,.35-.02,.69-.17,1.04-.27,.29-.08,.57-.13,.84-.12,.57-.01,1.1,.17,1.59,.56,.03,.02,.06,.03,.1,.03,.49,.01,1.01,.03,1.44,.24,1.26,.58,1.69,1.6,1.28,3.06-.02,.1-.12,.21-.13,.34,0,.03,.01,.06,.04,.07,.86,.34,1.28,.99,1.26,1.95,0,.44-.09,1.08,.14,1.48,.43,.77,.78,1.29,.79,2.3,.01,.45-.05,.94,.11,1.37,.76,2.06,.79,3.94,.45,6.23,0,.03,0,.07,.03,.1,1.14,1.25,2.3,2.49,3.45,3.73,.98,1.04,2.03,2.17,3.42,2.25,.26,0,.53-.02,.81-.09,.32-.09,.82-.34,1.5-.76,1.25-.79,2.14-1.33,2.64-1.63,2.14-1.25,4.43-2.06,6.89-2.43,.75-.11,1.38-.17,1.89-.16,.19,0,.36,0,.52,.02,1.26,.12,2.32,.93,2.17,2.31-.05,.47-.22,.89-.51,1.23-.4,.46-.7,.91-.9,1.35-.5,1.08-.45,2.36-1.12,3.39-.46,.68-1.37,1.29-1.49,2.2-.15,1.11-.19,1.86-.9,2.81-.88,1.18-.83,3.14-.52,4.51,.29,1.26,0,2.13-.37,3.27-.16,.49,.21,1.1,.4,1.53,.32,.77,.27,1.3,.11,2.1-.21,1.05,.6,1.61,.82,2.53,.35,1.39-.43,2.73-1.86,3.04-.31,.07-.62,.1-.93,.1-2.9,.03-5.73-2.81-7.08-5.06-1.34-2.19-2.32-4.68-2.94-6.95-.52-1.88-.88-3.08-1.07-3.6-.63-1.71-3.35-2.13-5.06-2.14-.09,0-.19,0-.27,0-.06,0-.09,.03-.05,.09,.18,.41,.27,.82,.28,1.25l-.18,1.13s0,.06,.03,.09c.65,.71,.65,1.37,.55,2.29,0,.03,0,.06,.02,.1,.24,.4,.48,.78,.74,1.16,.48,.72,.58,1.22,.57,2.1,0,.03,.01,.07,.03,.1,.7,1.05,1.91,2.61,.88,3.98-.36,.48-.86,.63-1.4,.62-.33,0-.68-.06-1.02-.16-.24-.05-.47-.09-.73-.1-1.17-.03-1.84-.3-2.76-1.06-.7-.58-1.38-1.25-2.21-1.65-.91-.43-1.91-.86-2.68-1.39-1.95-1.35-3.18-3.33-4.3-5.36-.02-.03-.05-.04-.07-.04-.47,.01-.93,.02-1.4,.02-1.41,0-2.82-.06-4.23-.18-.03,0-.04,.03,0,.06,.62,.92,1.19,1.88,1.69,2.9,.48,.96,.62,2.12,.03,3.07-.02,.03-.02,.06,0,.09,.2,.39,.37,.64,.51,.79,.44,.48,1.32,.93,1.63,1.71,.34,.84,.05,1.68-.67,2.22-.53,.39-1.19,.52-1.89,.49-1.14-.04-2.36-.54-3.21-1.09-4.35-2.87-6.95-7.2-7.07-12.48,0-.03-.02-.06-.05-.07-5.23-2.43-10.04-5.44-13.49-10.18-.29-.42-.71-.75-.98-1.08-.96-1.13-.13-2.59,1.25-2.6Z"/>
  </g>
</svg>