<?xml version="1.0" encoding="UTF-8"?>
<svg id="Layer_2" data-name="Layer 2" xmlns="http://www.w3.org/2000/svg" viewBox="0 0 95.93 62.85">
  <defs>
    <style>
      .cls-1 {
        fill: #808080;
      }
    </style>
  </defs>
  <g id="Layer_1-2" data-name="Layer 1">
    <path class="cls-1" d="M94.78,24.82c-1.82,1.14-2.31,3.51-1.76,3.44,.63-.08,3.04-3.98,2.92-1.85-.13,2.14-1.85,4.3-5.41,8.39-3.57,4.09-9.84,5.87-11.22,6.27-1.38,.4-1.55,1.15-2.33,4.95-.62,3.04-4.56,6.95-6.11,8.39-.23,.22-.6,.11-.69-.2-.72-2.5-6.39-3.17-8.66-3.34-.36-.03-.52-.46-.27-.71,1.61-1.65,4.69-5.15,5.87-6.48,.21-.24,.09-.62-.23-.69-5.2-1.12-6-.27-6.27,1.5-.27,1.85-.57,7.51-4.43,14.7-3.86,7.19-4.17,1.53-4.17,1.53-.48-11.84-7.22-20.84-8.88-22.87-.18-.22-.09-.56,.18-.66,.73-.27,1.83-.58,2.82-.84,.47-.12,.39-.81-.09-.83-8.83-.42-13.82,4.54-14.15,4.88-.01,.01-.03,.03-.04,.04-13.07,10.3-18.01,9.55-18.85,8.46-.84-1.09,8.01-8.56,10.32-11.79,2.31-3.23,4.57-4.36-9.23-8.1C.29,25.28-3.9,23.35,3.87,23.3c7.77-.06,21.31,3.13,29.47,3.75,8.17,.62,12.5-2.12,11.93-2.77-.57-.65-2.16-4.24-1.2-7.3,.96-3.06-.29-3.1-3.36-9.73C37.67,.62,21.41,2.63,24.62,.95c3.22-1.68,11.97-1.37,20.3,2.77,.94,.47,1.87,.96,2.78,1.47,1.34,.75,2.65,1.54,3.95,2.35,1.19,.75,2.36,1.53,3.51,2.33,.97,.67,1.93,1.35,2.87,2.05,.68,.5,1.36,1.01,2.03,1.53,.21,.16,.42,.33,.63,.49,.07,.06,.14,.11,.21,.17,.2,.17,.44,.21,.7,.21,.56,0,1.12,0,1.68-.01,.95,0,1.9-.04,2.84-.18,.28-.04,.44-.35,.31-.6-1.13-2.33-6.62-6.73-7.94-7.77-.18-.14-.41-.22-.65-.21-.54,.02-1-.4-1.02-.94h0c0-.2-.06-.38-.17-.53-.61-.85-2.07-1.96-3.14-2.7-.36-.25-.15-.81,.29-.76,8.88,.98,18.54,11.09,20.27,12.99,.18,.2,.43,.33,.69,.37,14.13,2.15,18.89,7.18,20.33,9.39,.32,.49,.19,1.16-.31,1.47Z"/>
  </g>
</svg>