<?xml version="1.0" encoding="UTF-8"?>
<svg id="Layer_2" data-name="Layer 2" xmlns="http://www.w3.org/2000/svg" viewBox="0 0 114.88 46.65">
  <defs>
    <style>
      .cls-1 {
        fill: #808080;
      }
    </style>
  </defs>
  <g id="Layer_1-2" data-name="Layer 1">
    <path class="cls-1" d="M53.09,1.87s2.74,5.74-1.26,10.65c0,0,3.49,1.14,4.98,.95,1.49-.19,5.04-5.54,11.72-8.47,3.06-1.34,10.66,11.73,7.03,12.05,0,0,5.12,2.41,12.82,2.17,2.54-.08,10.28-9.01,26.49-9.22,.08,2.63-6.92,12.59-17.73,16.22,1.52,3.53,8.68,2.23,11.45,9.07-1.79,1.63-13.52,3.42-20.85-4.4-10.06-.93-45.75,6.19-47.56,6.35-1.81,.16,8.83,2.28,10.59,2.77,1.75,.49,4.14,5.3-2.45,6.54-8.96,.63-8.67-2.23-12.7-8.17-12.31,.5-28.97-2.02-31.44-3.26-6.84-3.42-4.81-10.94,2.47-17.14,7.28-6.2,13.65-7.78,19.73-7.76,.81,0,15.26-15.5,26.7-8.37Z"/>
  </g>
</svg>