<?xml version="1.0" encoding="UTF-8"?>
<svg id="Layer_2" data-name="Layer 2" xmlns="http://www.w3.org/2000/svg" viewBox="0 0 41.11 47">
  <defs>
    <style>
      .cls-1 {
        fill: #808080;
        fill-rule: evenodd;
      }
    </style>
  </defs>
  <g id="Layer_1-2" data-name="Layer 1">
    <path class="cls-1" d="M23.07,.21c.05,.13,.18,.71,.3,1.31,.12,.59,.35,1.61,.5,2.24,.53,2.12,1.18,5.24,1.38,6.54,.34,2.31,.22,3.52-.53,5.53-.25,.66-.5,1.39-.56,1.63-.22,.8-.49,2.6-.56,3.64l-.06,1.04,.24-.18c.77-.54,2.9-1.82,3.49-2.09,.88-.4,2.37-.89,3.25-1.07,.94-.2,3.01-.42,4.44-.5,1.79-.09,2.16-.19,3.75-1,1.51-.77,2.02-.93,2.27-.73,.25,.21,.18,.81-.13,1.24-.4,.55-1.5,1.54-2.51,2.26-.48,.35-1.55,1.28-2.37,2.09-.83,.81-1.74,1.64-2.04,1.83-1.05,.71-2.89,1.24-5.54,1.6-1.33,.18-2.87,.62-3.4,.99-.21,.14-.32,.25-.26,.25,.2,0,1.8,1.6,2.22,2.2,.67,.99,.93,1.73,1.41,4,.32,1.5,.48,1.91,1.33,3.41,1.51,2.67,2,3.81,3.15,7.22,.84,2.48,1,3.29,.67,3.36-.12,.02-.35-.26-.82-.97-.93-1.43-1.64-2.27-2.33-2.77-1.38-.99-2.07-1.6-3.15-2.81-1.26-1.41-3.68-4.41-4.26-5.29-.71-1.06-1.4-2.8-1.89-4.7-.09-.35-.2-.68-.24-.72s-.13,.1-.19,.32c-.22,.7-1,2.41-1.47,3.19-.96,1.6-2.12,2.59-4.91,4.21-.95,.55-1.24,.8-2.32,1.9-3.45,3.57-4.85,4.84-5.25,4.78-.21-.03-.22-.08-.2-.72,.04-1.16,.96-4.16,1.78-5.82,.51-1.04,1.45-2.36,2.34-3.3,1.53-1.62,1.82-1.99,2.63-3.28,.94-1.5,1.63-2.24,2.87-3.08l.88-.59-.34-.07c-.18-.04-.86-.18-1.51-.32s-1.8-.33-2.56-.4c-1.81-.2-2.43-.35-3.84-1.01-.65-.31-1.57-.69-2.03-.87-1.93-.75-5.5-2.52-6.37-3.17-.34-.25-.42-.58-.21-.8,.08-.08,.57-.12,1.56-.12,1.19,0,1.58-.04,2.35-.25,1.8-.47,2.34-.44,4.79,.29,2.11,.63,2.85,.74,5.28,.79,2.28,.05,3,.17,4.17,.68,.31,.14,.56,.24,.56,.22s-.16-.42-.35-.9c-.62-1.55-.68-2.78-.2-4.54,.31-1.13,.51-1.56,1.56-3.11,.89-1.32,1.24-2.15,1.69-3.9,.5-1.95,.66-3.34,.85-7.43,.05-1.17,.13-2.21,.16-2.29,.09-.24,.42-.19,.53,.06Z"/>
  </g>
</svg>