<?xml version="1.0" encoding="UTF-8"?>
<svg id="Layer_2" data-name="Layer 2" xmlns="http://www.w3.org/2000/svg" viewBox="0 0 76.84 43.17">
  <defs>
    <style>
      .cls-1 {
        fill: #808080;
      }
    </style>
  </defs>
  <g id="Layer_1-2" data-name="Layer 1">
    <path class="cls-1" d="M76.36,13.59c-.17,.65-.6,1.23-.79,1.89,1.66,.2,.07,1.35-.13,1.96-.19,.57,.23,.84,.05,1.26-.18,.43-1.01,.54-1.07,1.12-.1,1.12,2.03,1.63,1.54,2.85-.27,.67-1.2,.49-1.81,.8,.37-.08-.1,1.37-.04,1.18-.14,.52-.68,.25-.6,1.02,.07,.7,1.86,1.59,.4,2.08,.09,.18,.06,.48,.14,.65-.23,0-.51,.11-.76,.07,.3,.96,1.86,1.08,1.9,2.32-.16,.03-.33,.13-.5,.16,.27,.57,.35,1.19,.4,1.85-1.97-.33-1.39,3.42-2.54,4.11-.45,.27-.61,.56-1.27,.04-.02,.02-.03,.03-.05,.05,.4,1.09-1.11,.97-.59,2.1-1.47,.49-2.22-.39-3.36-.71,.03,.16-.03,.47,0,.65-.24,0-.58,.19-.81,.18,.65,.8,.07,1.32-.84,1.38-.6,.04-1.93-.84-1.3,.56,.01,.03-.55,1.09-.73,1.12-.49,.09-.9-.75-1.27-.96-1.17-.68-.45-.24-1.25,.3-.22,.15-.84,.27-.99,.42-.2,.2-.22,.82-.44,.94-1.53,.82-1.89-1.34-3.15-1.41-1.13-.07-1.63,1.62-2.9,1.3-.93-.24-1.5-1.3-2.3-1.76-.8-.46-1.54-.34-2.39-.59-1.76-.5-2.22-2.31-2.9-3.77-1.6-3.44-1.41-6.18-1.11-9.82,.13-1.54-.33-3.21,.09-4.72-1.25-.34-2.51-.7-3.78-1.12-2.24-.73-4.4-1.5-6.64-1.86,.44,.29,.71,.64,.72,1.05-.62-.21-1.24-.57-1.91-.31,.78,1.19,2.84,.67,4.03,.98,.72,.16,3.98,1.34,2.17,2.02-.91,.34-10.49-1.24-11.63-.87,.52,.62,.99,1.41,.89,1.87,.27,.21,.57,.4,.86,.6,1.14,.78,2.02,1.81,0,1.24,.57,.72,2.02,.88,2.12,1.86-.98-.1-2.02-.52-2.9-.98-1.34-.67-3.15-1.34-4.45-2.12-1.29-.83-2-2.63-2.91-3.97-.53,0-1.06-.02-1.6-.09-2.2-.28-4.38-1.1-6.3-2.19-1.04-.59-2.11-1.53-3.26-1.89-1.12-.35-2.06-.54-3.96-1.43-1.9-.89-2.95-2.25-3.76-2.91-.81-.66-1.09-1.28-1.63-1.78-.54-.5-1.51-1.24-.81-2.06,0,0,.62-.27,.78-.23-.06-.01-.16-.04-.16-.04,0,0,.39-.7,1.98-.97,1.59-.27,2.95-.66,4.03-.62,1.09,.04,2.48-.66,4.27-.35,.11,.02,2.52-.62,3.53-.47,1.01,.16,5.97-.47,7.52-.43,1.55,.04,8.22-.2,8.76,0,.54,.2,6.59-6.44,9.31-4.38,0,0,5.86-2.71,6.83,2.02,0,0,4.23,1.2,1.98,3.99-.67,.83,1.74,2.94-.92,3.61,.24,.1,.48,.19,.71,.28,.64-.66,1.41-1.22,1.96-1.99,.74-1.03,1.33-2.16,2.13-3.15,.88-1.09,1.6-1.09,2.79-1.55,.98-.36,1.29-1.03,2.07-1.76,1.76-1.65,3.26-1.24,5.38-1.34,1.76-.05,3.36-.88,5.17-.83,.72,0,2.74,0,2.95,.88,.1,.62-.88,1.29-1.24,1.71,1.29-.52,1.29-.36,2.17,.36,.52,.41,1.6,.78,1.6,1.6,0-.13,1.83,.94,1.93,1.26,.27,.82-.54,1.66-.58,2.45,.48,.12,1.15,.22,1.43,.64-.13-.2,.21,1.6,.21,1.31,0,.61-.31,.87-.49,1.67-.11,.5,.17,1.01,0,1.64Z"/>
  </g>
</svg>