<?xml version="1.0" encoding="UTF-8"?>
<svg id="Layer_2" data-name="Layer 2" xmlns="http://www.w3.org/2000/svg" viewBox="0 0 80.27 80.6">
  <defs>
    <style>
      .cls-1 {
        fill: #808080;
      }
    </style>
  </defs>
  <g id="Layer_1-2" data-name="Layer 1">
    <path class="cls-1" d="M80.13,28.37c-.7-5.72-3.75-11.78-9.15-16.19,.13-.49,.34-.97,.69-1.5,.86-1.3,2.24-2.19,3.24-3.38,1.03-1.22-.23-2.76-1.65-2.14-2.53,1.11-4.58,2.8-7,3.94-5.09-2.62-11.56-3.96-19.43-3.13-.03-.1-.05-.2-.08-.3-.4-1.57-.69-3.15-.97-4.74-.27-1.54-2.36-.96-2.51,.34-.21,1.79-.47,3.6-.76,5.39-8.64,1.88-16.16,6.72-21.33,13.57-.35-.7-.68-1.42-.94-2.17-1.13-3.32-1.36-6.93-1.53-10.41-.04-.86-1.12-.93-1.43-.19-1.88,4.58-1.49,11.7,1.39,16.55-2.89,5.05-4.62,10.92-4.83,17.32-.51,.07-1.03,.13-1.58,.15-2.45,.07-6.21,.26-8.1-1.57-.96-.93-2.42,.24-1.82,1.4,1.51,2.94,4.62,3.54,7.66,3.81,1.28,.39,2.6,.65,3.95,.78,.26,3.25,.89,6.6,1.97,10.04,.11,.36,2.3,1.26,5.9,1.96l-.54,.91s-9.31,9.04-21.29,10.91c0,0,7.72,3.19,23.42-7.45,0,0,5.85,.27,9.58-.27,0,0-.8,11.98,12.24,18.63,0,0-10.38-9.31-7.98-19.96l12.4-4.77c1.39-.47,2.8-.99,4.21-1.6,1.39-.51,2.72-1.03,3.96-1.54h.01s0,0,0,0c8.54-3.51,13.53-6.84,13.53-6.84,0,0,10.21-5.65,8.76-17.51Zm-5.29,3.87c-.91,7.43-7.84,2.14-6.2-1.5,0,0,1.09,2.64,3.28,1.5,2.19-1.14-1.09-9.16-5.47-8.25-4.38,.91-5.47,12.4-2.74,21.89,0,0-6.75-13.68-1.64-20.98,5.11-7.3,13.68-.09,12.77,7.34Z"/>
  </g>
</svg>