<?xml version="1.0" encoding="UTF-8"?>
<svg id="Layer_2" data-name="Layer 2" xmlns="http://www.w3.org/2000/svg" viewBox="0 0 102.77 71.39">
  <defs>
    <style>
      .cls-1 {
        fill: #808080;
      }
    </style>
  </defs>
  <g id="Layer_1-2" data-name="Layer 1">
    <path class="cls-1" d="M98.54,52.43c-4.32,1.96-12.73-8.24-17.79-8.44-.78-.03-1.96,.51-3.49,1.44-.09,11.46-.9,25.07-7.84,24.6-6.21-.43-11.64-2.02-16.19-4.02-1.92,.3-3.98,.38-5.99,.33,2.1,1.1,4.06,2.62,5.69,4.88-8.17,1.35-21.12-5.29-21.12-5.29,0,0-1.43-1.17-2.8-2.68-1.18-.11-2.37-.26-3.58-.47-11.87-2.1-19.89-16.21-23.01-23.13-.86-1.9-1.86-1.87-2.09-3.14-.1-.52,1.38-.72,1.38-1.29,0-.5-2.89-.94-1.14-1.86,1.8-.95,2.59-2.3,4.23-5.66,3.11-6.36,5.51-16.49,17.32-18.23,5.38-.79,8.87-.86,10.55-.61C37.89,2.62,49.71-1.4,58.28,.45c11.2,2.42,16.08,16.24,17.96,28.31,2.53,1.78,4.38,2.96,5.43,3,5.07,.2,11.26-9.08,16.11-8.63,6.97,.65,6.06,26.89,.76,29.29Z"/>
  </g>
</svg>