<?xml version="1.0" encoding="UTF-8"?>
<svg id="Layer_2" data-name="Layer 2" xmlns="http://www.w3.org/2000/svg" viewBox="0 0 126.29 56.86">
  <defs>
    <style>
      .cls-1 {
        fill: #808080;
      }
    </style>
  </defs>
  <g id="Layer_1-2" data-name="Layer 1">
    <path class="cls-1" d="M.32,10.66c-.21-.46-.22-1-.32-1.51,.55,.11,1.2,.07,1.63,.36,1.82,1.2,3.61,2.47,5.35,3.79,1.51,1.15,2.95,2.4,4.42,3.61,.54,.74,1.06,1.5,1.63,2.22,1.42,1.8,2.86,3.57,4.3,5.36,.11-.11,.22-.22,.33-.33l.32-.66h.01c-.11,.23-.22,.45-.33,.67-.11,.11-.22,.22-.33,.34h-.01c.89,1.3,1.78,2.62,2.67,3.93,.33,.49,.72,.66,1.2,.17,.42-.44,.76-.41,1.24,.03,1.21,1.1,1.47,1.07,2.34-.25,.39-.6,.75-.65,1.36-.37,1.8,.82,2.17,.72,2.86-.94,.38-.92,.83-.97,1.64-.6,.57,.25,1.24,.46,1.84,.42,1.65-.12,1.86-1.43,2.01-2.72,.8-.46,1.45-.03,2.13,.34,1.81,.97,4.01,.02,4.37-1.96,.16-.87,.57-.96,1.25-.72,.31,.11,.64,.21,.91,.39,1.56,1.03,2.96,.16,4.37-.38,.33-.13,.55-.65,.73-1.03,.73-1.61,.73-1.64,2.45-1.08,1.24,.41,2.43,.63,3.67-.03,.5-.26,.77-.48,.64-1.12-.36-1.81-.86-3.51-2.33-4.79-.83-.72-1.62-1.49-2.34-2.32-.4-.46-.94-1.16-.84-1.62,.2-.89,1.17-.61,1.84-.58,3.08,.15,5.74,1.49,8.16,3.23,1.46,1.05,2.71,2.39,4,3.66,1.28,1.25,3.65,.78,4.19-.93,.21-.68,.58-.95,1.2-1.17,.82-.28,1.58-.72,2.37-1.09,.25-.11,.5-.34,.74-.32,1.33,.09,2.5-.19,3.49-1.14,.15-.14,.53-.12,.78-.07,.96,.21,1.71-.08,2.35-.82,.2-.23,.56-.48,.82-.46,1.02,.1,1.45-.55,1.95-1.25,.27-.37,.67-.82,1.08-.89,1.4-.26,1.61-1.27,1.81-2.4,.12-.66,.36-1.35,.74-1.88,.7-.99,.55-1.95,.23-2.98-.07-.23,0-.51,.02-.77,.23,.11,.52,.16,.69,.33,2.06,2.07,3.76,4.41,5.24,6.93,1.42,2.43,2.71,4.9,3.39,7.65,.23,.94,.71,1.47,1.76,1.65,6.83,1.16,13.18,3.79,19.47,6.59,2.6,1.16,5.15,2.43,7.72,3.65,0,.33,0,.66,0,.98,0,0,.01-.01,.01-.01,0,.12,0,.23,0,.35,0,0,0,0-.01,0,0,.1,0,.2,0,.3-.1-.1-.21-.2-.31-.3,0,0-.02,0-.03,0h.01c-1.41,1.01-2.87,1.98-4.21,3.09-.79,.65-.62,1.19,.44,1.44,1.76,.42,3.55,.71,5.32,1.05,.27,.05,.55,.05,.81,.14,.8,.29,.93,.83,.21,1.29-1.47,.95-2.92,2.01-4.54,2.63-4.71,1.79-9.46,3.47-14.25,5.04-3.73,1.22-7.52,2.3-11.33,3.28-1.49,.39-2.32,1.44-3.18,2.45-1.63,1.92-3.08,3.99-4.72,5.9-.73,.85-1.69,1.57-2.66,2.16-1.07,.65-2.06,.04-1.97-1.2,.07-1.02,.49-2.02,.64-3.04,.15-1,.13-2.03,.22-3.04,.06-.69,.18-1.37,.27-2.06-5.8,.25-11.53-.51-17.25-1.25-.97-.12-1.96-.34-2.92-.28-.55,.04-1.06,.55-1.59,.85,0,0,0,.01,0,.02,.08,.07,.15,.13,.23,.2-.08,.03-.15,.06-.23,.09,0,0,0,.02,0,.02,0,0-.02,0-.02,0-.1,.2-.2,.41-.31,.61,0-.21,0-.41,0-.62,0,0,0,0-.01,0-2.11,2.06-4.54,3.62-7.38,4.46-.61,.18-1.68,.28-1.93-.05-.56-.74,.23-1.4,.74-1.93,1.11-1.14,2.3-2.19,2.65-3.87,.34-1.65,.32-1.62-1.21-2.27-1.42-.61-2.56-.49-3.76,.51-1.2,.99-1.39,.89-1.97-.53-.49-1.19-.91-2.33-2.43-2.6-.65-.11-1.13-.13-1.67,.28-.43,.32-.94,.58-1.46,.73-.7,.2-1.31,0-1.58-.78-.09-.26-.18-.52-.27-.78-.61-1.79-2.44-2.63-4.24-1.96-.21,.08-.4,.18-.61,.26-1.4,.52-1.66,.43-2.36-.85-.18-.34-.33-.7-.55-1.01-.75-1.09-2.1-1.48-3.33-.98-.36,.14-.7,.33-1.06,.45-.77,.27-1.43,.2-1.68-.73-.37-1.35-1.39-1.92-2.66-2.09-.42-.06-1.02,0-1.3,.27-.78,.74-1.24,.59-1.82-.24-1.02-1.45-1.38-1.42-2.38-.04-.77,1.07-1.54,2.13-2.31,3.2h.01c-.69,.76-1.43,1.49-2.06,2.3-3.19,4.06-6.85,7.65-10.72,11.05-.16,.14-.28,.32-.42,.48-.46,.29-.92,.58-1.37,.89-.74,.51-1.47,.71-2.25,.11,1.09-2.15,2.19-4.29,3.26-6.44,1.63-3.29,3.23-6.58,4.84-9.88,1.21-2.48,1.39-5.02,.48-7.65-.99-2.85-2.02-5.66-3.97-8.03h.01c-1.33-2.18-2.67-4.36-3.99-6.56-.4-.65-.83-1.29-1.14-1.98Z"/>
  </g>
</svg>