<?xml version="1.0" encoding="UTF-8"?>
<svg id="Layer_2" data-name="Layer 2" xmlns="http://www.w3.org/2000/svg" viewBox="0 0 80.55 39.23">
  <defs>
    <style>
      .cls-1 {
        fill: #808080;
      }
    </style>
  </defs>
  <g id="Layer_1-2" data-name="Layer 1">
    <path class="cls-1" d="M0,37.13c.02-.06,.04-.13,.07-.19,.18-.28,.32-.58,.56-.82,.05-.05,.08-.12,.12-.18,.08-.13,.07-.24-.03-.36-.04-.04-.07-.09-.11-.14-.21-.26-.33-.56-.33-.9,0-.19-.01-.38-.01-.56,0-.18,.04-.36,.13-.52,.05-.08,.06-.18,.1-.26,.15-.34,.3-.67,.46-1,.1-.21,.2-.41,.3-.62,.19-.39,.37-.78,.56-1.17,.02-.04,.04-.08,.06-.11,.36-.53,.71-1.07,1.08-1.59,.36-.52,.81-.96,1.26-1.4,.41-.41,.82-.81,1.25-1.2,.46-.42,.94-.83,1.41-1.24,.08-.07,.15-.13,.22-.2,.14-.15,.23-.33,.22-.55-.03-.77,.03-1.53,.08-2.29,.02-.37,.1-.74,.14-1.12,.04-.35,.06-.71,.12-1.05,.07-.48,.17-.95,.26-1.43,.01-.07,.04-.14,.04-.21,.01-.34,.13-.66,.22-.99,.11-.37,.21-.75,.32-1.12,.03-.12,.08-.23,.12-.35,.05-.14,.09-.29,.14-.43,.01-.04,.01-.09,.04-.12,.03-.04,.08-.08,.11-.08,.03,0,.09,.07,.09,.1,0,.24,.02,.48-.03,.71-.16,.63-.22,1.28-.26,1.93-.02,.33,.06,.64,.28,.91,.16,.2,.29,.43,.42,.65,.4,.64,.95,1.1,1.68,1.32,.4,.12,.78,.01,1.07-.3,.12-.13,.21-.29,.32-.44,.19-.26,.34-.55,.57-.76,.24-.23,.54-.41,.83-.58,.44-.26,.87-.53,1.24-.89,.2-.2,.42-.37,.63-.56,.03-.02,.05-.05,.09-.07,.37-.22,.73-.47,1.12-.65,.53-.26,.95-.65,1.4-1.01,.2-.17,.41-.32,.62-.47,.52-.36,1.04-.73,1.57-1.08,.37-.24,.74-.47,1.12-.71,.65-.41,1.3-.83,1.97-1.23,.44-.26,.9-.48,1.35-.73,.35-.2,.7-.41,1.05-.61,.31-.17,.62-.33,.93-.51,.51-.29,1.01-.6,1.52-.87,.74-.39,1.49-.76,2.24-1.14,.38-.19,.75-.4,1.14-.58,.51-.25,1.03-.48,1.55-.72,.54-.25,1.09-.49,1.64-.73,.62-.27,1.25-.53,1.88-.78,.55-.22,1.11-.42,1.66-.62,.24-.09,.49-.13,.73-.21,.73-.24,1.46-.47,2.2-.64,0,0,.01,0,.02,0,.84-.3,1.74-.35,2.61-.52,.46-.09,.92-.18,1.39-.25,.67-.1,1.34-.18,2.02-.27,.63-.09,1.26-.18,1.87-.34,.31-.08,.64-.11,.95-.18,.46-.11,.92-.22,1.35-.44,.26-.13,.53-.24,.8-.33,.57-.18,1.1-.47,1.66-.68,.28-.1,.56-.19,.85-.26,.13-.03,.28-.02,.4,.01,.22,.05,.44,.05,.66,0,.38-.08,.76-.16,1.15-.23,.17-.03,.35-.05,.52-.02,.37,.07,.72,.03,1.07-.04,.52-.11,1.05-.15,1.57-.07,.33,.05,.65,.05,.97,.01,.45-.05,.88,.03,1.31,.11,.03,0,.06,0,.08,.02,.27,.16,.58,.18,.87,.26,.23,.06,.45,.15,.67,.25,.15,.07,.31,.12,.47,.15,.38,.07,.77,.12,1.15,.19,.09,.02,.18,.08,.27,.12,.21,.1,.41,.21,.61,.31,.27,.14,.54,.28,.8,.43,.16,.09,.31,.19,.45,.3,.22,.16,.5,.18,.75,.28,.44,.17,.88,.33,1.32,.5,.11,.04,.21,.13,.31,.19,.24,.13,.48,.26,.73,.38,.43,.22,.8,.53,1.12,.87,.28,.3,.45,.68,.57,1.08,.24,.75,.21,1.51,.1,2.27-.02,.14-.05,.29-.07,.43-.03,.2-.12,.37-.25,.52-.12,.15-.23,.31-.34,.47-.11,.17-.29,.29-.45,.43-.09,.08-.21,.13-.3,.21-.12,.1-.11,.2,.03,.28,.06,.04,.13,.06,.2,.07,.29,.07,.58,.14,.87,.19,.62,.12,1.22,.29,1.82,.49,.12,.04,.24,.03,.36-.03,.8-.41,1.63-.78,2.38-1.28,.09-.06,.18-.12,.28-.16,.46-.2,.8-.55,1.13-.89,.16-.17,.27-.39,.4-.59,.39-.57,.61-1.21,.75-1.88,.03-.14,.09-.27,.14-.41,.03-.09,.09-.1,.17-.07,.09,.04,.17,.07,.26,.11,.12,.05,.19,.15,.2,.28,.01,.18,0,.36-.1,.52-.21,.39-.43,.79-.63,1.18-.2,.38-.27,.79-.33,1.2-.02,.12-.04,.25-.08,.36-.21,.57-.3,1.16-.4,1.75-.05,.3-.14,.59-.22,.88-.03,.12-.05,.24-.08,.36-.03,.15-.05,.3-.11,.44-.08,.22-.12,.45-.14,.68-.06,.7-.22,1.38-.39,2.06-.04,.16-.11,.31-.17,.47-.08,.19-.18,.38-.26,.57-.16,.38-.42,.69-.72,.96-.36,.32-.63,.69-.9,1.07-.13,.18-.26,.37-.37,.56-.07,.11-.12,.23-.17,.35-.14,.32-.29,.63-.51,.9-.04,.06-.09,.12-.12,.18-.29,.59-.74,1.06-1.12,1.59-.24,.33-.56,.44-.97,.39-.56-.06-1.05-.29-1.55-.52-.16-.07-.32-.14-.47-.22-.22-.12-.42-.25-.64-.36-.38-.21-.68-.5-.96-.83-.35-.41-.67-.83-.93-1.3-.06-.11-.15-.19-.28-.23-.09-.03-.19-.08-.27-.13-.33-.21-.67-.43-1-.65-.18-.12-.35-.25-.53-.38-.45-.32-.85-.72-1.37-.95-.18-.08-.32-.21-.49-.32-.16-.1-.33-.15-.52-.09-.08,.03-.16,.07-.18,.17-.01,.11,.04,.18,.13,.23,.04,.03,.1,.03,.14,.06,.08,.06,.16,.12,.23,.18,.06,.06,.11,.13,.18,.19,.24,.2,.4,.45,.55,.72,.21,.38,.36,.78,.5,1.2,.11,.31,.25,.61,.37,.92,.1,.24,.19,.48,.28,.73,.17,.46,.37,.91,.5,1.39,.14,.51,.22,1.03,.19,1.56-.03,.49-.22,.92-.52,1.31-.06,.07-.14,.13-.21,.18-.33,.24-.65,.48-.98,.71-.47,.32-.98,.57-1.53,.74-.21,.06-.41,.18-.62,.26-.72,.29-1.43,.58-2.15,.86-.13,.05-.28,.08-.41,.14-.27,.1-.54,.21-.8,.32-.55,.22-1.12,.32-1.7,.41-.36,.05-.72,.1-1.07,.14-.4,.04-.79,.16-1.18,.27-.51,.14-1.04,.23-1.58,.26-1.28,.09-2.57,.1-3.85,.03-.6-.03-1.21-.11-1.8-.23-.64-.13-1.26-.38-1.84-.69-.32-.17-.65-.35-.98-.51-.22-.11-.38-.05-.52,.14-.11,.15-.23,.29-.36,.43-.08,.1-.18,.19-.26,.29-.35,.48-.77,.9-1.19,1.31-.22,.22-.43,.45-.66,.66-.5,.44-1.01,.89-1.53,1.3-.34,.27-.72,.47-1.08,.71-.18,.12-.36,.24-.52,.39-.21,.19-.2,.41,0,.6,.04,.03,.08,.06,.11,.1,.03,.04,.04,.08,.07,.14-.13,.08-.23,.04-.33-.01-.37-.17-.76-.24-1.16-.14-.26,.07-.51,.16-.76,.25-.59,.2-1.17,.41-1.76,.6-.83,.26-1.66,.5-2.49,.74-.27,.08-.55,.11-.83,.17-.71,.14-1.43,.29-2.14,.43-.35,.07-.69,.15-1.04,.2-.28,.05-.57,.06-.86,.1-.44,.06-.87,.12-1.31,.18-.93,.12-1.86,.26-2.79,.36-.84,.1-1.68,.16-2.52,.24-.24,.02-.47,.06-.69,.17-.39,.18-.81,.24-1.24,.27-.3,.02-.61,.03-.9,.11-.6,.16-1.19,.36-1.78,.54-.73,.22-1.46,.46-2.2,.63-.93,.21-1.88,.31-2.84,.32-.29,0-.58,0-.87-.02-.53-.03-1.04-.12-1.56-.23-.48-.11-.96-.22-1.41-.4-.29-.12-.58-.26-.87-.39-.24-.11-.48-.2-.71-.31-.35-.17-.7-.35-1.05-.51-.42-.2-.85-.4-1.28-.59-.36-.16-.73-.31-1.1-.45-.21-.08-.43-.13-.65-.18-.17-.04-.33-.02-.39,.2-.03,.11-.11,.12-.22,.11-.45-.06-.88-.01-1.23,.31-.11,.1-.22,.21-.33,.31-.04,.04-.09,.06-.13,.09-.01,0-.03-.02-.04-.03Zm38.04-5.99c.25-.04,.55-.09,.85-.14,.08-.01,.15-.05,.23-.07,.15-.05,.3-.1,.45-.14,.09-.03,.19-.04,.27-.07,.32-.12,.63-.25,.95-.37,.2-.08,.4-.16,.56-.31,.08-.07,.18-.12,.28-.16,.26-.11,.52-.22,.71-.45,.02-.03,.06-.04,.09-.06,.32-.11,.53-.37,.8-.54,.24-.15,.45-.36,.66-.56,.17-.16,.34-.34,.47-.53,.15-.21,.07-.37-.17-.47-.1-.04-.2-.08-.29-.14-.25-.17-.5-.34-.75-.52-.21-.16-.41-.32-.59-.51-.26-.27-.52-.51-.86-.68-.16-.08-.33-.2-.44-.34-.25-.31-.47-.65-.71-.98-.16-.22-.32-.45-.51-.65-.21-.23-.35-.25-.61-.09-.53,.31-1.05,.63-1.56,.97-.4,.26-.78,.55-1.17,.82-.31,.22-.63,.43-.94,.66-.33,.25-.39,.65-.16,1,.15,.23,.31,.46,.46,.68,.29,.44,.45,.94,.63,1.42,.05,.13,.11,.26,.17,.4,.05,.12,.12,.24,.16,.37,.1,.31,.18,.62,.28,.93,.1,.33,.36,.51,.75,.51Zm-5.4,.15c.22,0,.37,0,.52,0,.25-.01,.34-.18,.2-.4-.06-.09-.14-.17-.22-.23-.3-.23-.54-.52-.75-.83-.11-.16-.24-.31-.37-.45-.2-.2-.4-.22-.65-.09-.08,.04-.15,.09-.22,.14-.51,.32-1.02,.64-1.53,.97-.09,.06-.18,.12-.24,.21-.08,.09-.05,.2,.06,.25,.07,.03,.15,.04,.23,.05,.47,.04,.93,.08,1.39,.17,.54,.11,1.1,.15,1.59,.22Z"/>
  </g>
</svg>