<?xml version="1.0" encoding="UTF-8"?>
<svg id="Layer_2" data-name="Layer 2" xmlns="http://www.w3.org/2000/svg" viewBox="0 0 47.53 33.79">
  <defs>
    <style>
      .cls-1 {
        fill: #808080;
        fill-rule: evenodd;
      }
    </style>
  </defs>
  <g id="Layer_1-2" data-name="Layer 1">
    <path class="cls-1" d="M46.95,12.14s.67,1.12,.24,1.39c-.43,.27-1.76,1.21-1.76,1.21-.36,2.95-7.47,8.54-7.47,8.54,.37,3.83-2.96,6.97-4.35,6.4-1.4-.56-.77-4.25-1.31-4.04-.54,.21-1.19,1.62-3.95,4.17-2.76,2.55-8.4,3.08-11.28,2.01-2.89-1.07-6.46-6.67-6.46-6.67-1.5,.34-2.03,6.52-2.43,7.75-.4,1.23-.99,.83-.99,.83,.57-7.08-7.18-15.54-7.18-15.54,1.58-1,6.7,1.89,8.22,2.81,1.52,.92,2.5-1.58,1.72-5.79-.78-4.21,.85-7.59,4.36-11.08C17.81,.65,28.29-.83,29.91,.46c1.62,1.29,5.61,1.66,7.96,2.19,2.35,.53,4.15,2.69,5.37,5,1.23,2.32,2.99,2.08,3.91,2.8,.93,.72-.22,1.68-.22,1.68h0Z"/>
  </g>
</svg>