<?xml version="1.0" encoding="UTF-8"?>
<svg id="Layer_2" data-name="Layer 2" xmlns="http://www.w3.org/2000/svg" viewBox="0 0 100.55 53.55">
  <defs>
    <style>
      .cls-1 {
        fill: #808080;
      }
    </style>
  </defs>
  <g id="Layer_1-2" data-name="Layer 1">
    <path class="cls-1" d="M38.68,10.4c-.31,.63-.66,1.25-1.05,1.85-.08,.12-.18,.19-.33,.2-.15,.01-.27,0-.36-.06-.21-.13-.25-.3-.12-.51,.72-1.14,1.34-2.28,1.85-3.42,.92-2.04,2.19-3.83,3.04-5.91,.34-.83,.84-1.62,1.49-2.35,.1-.12,.25-.18,.41-.19h.19c.18-.01,.21,.05,.11,.2-1.29,1.78-2.21,4.28-2.96,5.71-.77,1.49-1.53,2.98-2.27,4.48ZM45.43,.59c.06-.12,.02-.27-.08-.37-.08-.07-.17-.11-.29-.13-.25-.03-.44,.07-.58,.28-.98,1.59-2.02,3.61-3.11,6.05-.76,1.7-1.71,3.56-2.83,5.6-.16,.29-.07,.44,.26,.44h.12c.32,0,.57-.13,.73-.41,1.16-1.97,2.15-3.9,2.97-5.8,.48-1.1,1.13-2.26,1.62-3.43,.34-.83,.83-1.46,1.18-2.24Zm-.92,3.74c-.29,.22-.51,.5-.66,.83-1.07,2.33-2.23,4.66-3.47,7,0,.01-.01,.03-.02,.05-.05,.15,.03,.31,.18,.36,.81,.26,1.42-1.17,1.68-1.77,.74-1.7,1.51-3.39,2.31-5.07,.1-.21,.21-.29,.3-.5,.5-1.28,1.2-2.57,2.09-3.87,.06-.09,.11-.19,.13-.29,.1-.39,.04-.61-.17-.65-.34-.07-.58-.01-.73,.18-.61,.82-1.02,1.63-1.25,2.44-.11,.41-.38,.63-.6,.96-.04,.07-.03,.13,.02,.18,.04,.03,.08,.05,.13,.04,.15-.02,.16,.02,.05,.1Zm-6.27,2.58c-.99,1.6-1.9,3.3-2.73,5.11-.08,.17-.04,.3,.13,.39l.1,.05s0,0,0,0c.08,.04,.18,0,.22-.07,1.67-3.2,3.27-6.3,4.8-9.29,.46-.89,.73-1.75,1.51-2.46,.01-.01,.02-.02,.02-.04,0-.04-.03-.08-.06-.1-.06-.05-.13-.05-.2,0-1.16,.74-1.89,1.31-2.19,1.7-2.22,2.86-4.08,6.24-5.58,10.13-.03,.08,.01,.18,.09,.21,.08,.04,.17,.04,.26,0,.06-.02,.12-.08,.18-.16,.39-.58,.74-1.18,1.03-1.81,.32-.69,.64-1.3,.97-1.85,1.31-2.14,2.55-4.32,3.73-6.53,.03-.05,.07-.07,.12-.04h0c.06,.03,.08,.08,.05,.14-.81,1.55-1.49,3.05-2.45,4.59Zm8.82-2.29c.29-.45,.5-.93,.65-1.43,.05-.18,.14-.34,.26-.48,.3-.35,.52-.71,.64-1.08,.03-.09,.01-.19-.04-.28-.1-.14-.21-.2-.34-.18-.3,.03-.52,.19-.66,.46-.89,1.76-1.95,3.46-2.71,5.12-.83,1.83-1.71,3.68-2.63,5.53-.11,.23-.04,.34,.21,.33l.53-.02c.17,0,.29-.08,.36-.23,1.04-2.06,2.01-4.1,2.91-6.11,.2-.44,.62-.77,.67-1.23,.02-.14,.07-.28,.14-.4Zm3.29-2.24c.02-.17-.1-.33-.28-.36l-.7-.1c-.14-.02-.27,.05-.33,.18l-4.96,10.28s-.02,.06-.03,.09c-.03,.17,.09,.34,.26,.37l.37,.06c.14,.02,.27-.05,.34-.17l5.3-10.24s.03-.07,.03-.11Zm-.19,2.17c-.34,.45-.66,.86-.9,1.38-.92,1.99-2,4.09-3.24,6.31-.2,.36-.12,.64,.22,.86,.06,.04,.18,.02,.35-.06,.15-.06,.26-.17,.34-.31l4.91-9.37c.06-.11,.06-.23,0-.34-.08-.14-.2-.23-.37-.27-.16-.04-.29,0-.4,.13l-.94,1.08s-.01,.02-.01,.03c0,.08,0,.14,.03,.17,.11,.12,.12,.25,.02,.39Zm-2.62,8.36c-.12,.23-.05,.36,.21,.38l.26,.03c.2,.02,.35-.06,.46-.23,.76-1.23,1.43-2.45,2.03-3.66,.92-1.84,1.93-3.54,3.04-5.08,.2-.28,.15-.5-.14-.68l-.3-.18c-.29-.17-.52-.11-.68,.19l-4.88,9.22Zm7.66-7.88c.14-.24,.09-.43-.16-.56l-.21-.11c-.27-.14-.47-.08-.62,.18l-5.01,8.69s-.02,.05-.03,.08c-.01,.11,.07,.21,.18,.22,.75,.06,1.47,.26,2.16,.58,0,0,0,0,.01,0,.14,.06,.3-.01,.36-.15,.03-.06,.03-.13,.02-.2-.02-.13,0-.24,.07-.35l4.89-7.55c.17-.27,.11-.47-.18-.6l-.19-.09c-.27-.12-.6-.02-.75,.24-1.4,2.46-2.74,4.69-4.01,6.69-.27,.43-.56,.86-.85,1.29-.07,.1-.16,.14-.28,.12l-.2-.04c-.11-.02-.14-.08-.08-.18l4.87-8.27Zm2.38,1.08l-4.99,7.72c-.12,.18-.07,.43,.12,.55l.23,.15c.18,.12,.43,.07,.55-.12l4.99-7.72c.12-.18,.07-.43-.12-.55l-.23-.15c-.18-.12-.43-.07-.55,.12Zm-2.31,8.85l4.98-7.49c.07-.11,.05-.25-.05-.32l-.51-.39s0,0,0,0c-.11-.07-.26-.05-.33,.06l-5.15,7.8s-.03,.07-.04,.1c-.02,.13,.08,.25,.21,.27l.68,.08c.09,.01,.18-.03,.23-.1Zm.87,.27c-.04,.16,.03,.25,.19,.29l.67,.13c.15,.03,.25-.02,.31-.16,.8-1.62,1.9-3.17,2.87-4.81,.5-.84,1.03-1.62,1.59-2.35,.1-.13,.08-.24-.05-.33l-.46-.32s0,0,0,0c-.08-.05-.2-.03-.25,.06-1.36,2.17-2.7,4.2-4.34,6.26-.24,.3-.41,.71-.52,1.24Zm2.4,1.11s0,0,0,0c.11,.07,.25,.04,.31-.07l.03-.05c2.56-3.94,4.49-7.24,4.32-7.39l-.35-.23c-.2-.1-2.43,3.01-4.99,6.95l-.03,.05s0,0,0,0c-.07,.11-.04,.25,.07,.31l.64,.42Zm3.96-3.8c-.48,.27-.85,.61-1.12,.99-.59,.86-1.21,1.79-1.88,2.78-.02,.03-.03,.06-.04,.09-.03,.14,.06,.28,.2,.31l.35,.08c.24,.05,.43-.02,.57-.22,1.42-1.95,2.77-4.05,4.03-6.28,.18-.33,.11-.58-.21-.77l-.1-.06s-.02,0-.02-.01c-.2-.1-.44-.01-.53,.19-.51,1.07-1.06,1.99-1.63,2.78-.08,.11-.06,.2,.07,.25,.14,.06,.26,.04,.37-.04,.33-.27,.31-.3-.06-.09Zm1.1,2.3c.39-.76,1.1-1.09,1.46-1.93,.31-.73,.68-1.39,1.09-1.98,0-.01,.01-.02,.02-.03,.08-.15,.02-.33-.13-.4l-.17-.09c-.3-.16-.53-.09-.69,.21-1.12,2.12-2.46,4.16-4.03,6.12-.1,.12-.09,.3,.03,.41,.18,.18,.39,.26,.65,.24,.18-.01,.29-.11,.34-.29,.03-.15,.1-.28,.2-.4,.51-.62,.92-1.24,1.24-1.87Zm1.85,.02l.5-1.19s0,0,0,0c.02-.04,.06-.05,.1-.03l.15,.08c.06,.03,.08,.08,.05,.15l-.26,.48c-.1,.2-.05,.27,.17,.23,.07-.01,.13-.04,.18-.09,.07-.06,.12-.16,.15-.31,.15-.79,.53-1.5,1.15-2.13,.2-.21,.2-.42-.02-.62l-.31-.29c-.2-.19-.37-.16-.51,.08-.75,1.37-1.64,2.7-2.67,4.01-.48,.61-.84,1.27-1.25,1.88-.18,.27-.15,.52,.11,.73,.03,.03,.07,.05,.1,.08,.02,.01,.03,.03,.05,.04,.18,.1,.41,.04,.51-.14,.58-1.04,1.2-2.06,2.21-2.71,.25-.16,.24-.19-.04-.08-.08,.03-.16,.05-.25,.05-.15,0-.2-.06-.14-.2Zm2.2-.1c.04-.13,.12-.24,.21-.34,.3-.29,.65-.72,1.03-1.28,.13-.19,.17-.46,.11-.81-.03-.15-.15-.23-.37-.24-.13-.01-.25,.05-.32,.16-.97,1.58-2,3.06-3.11,4.44-.31,.39-.59,.82-.83,1.3-.02,.03-.03,.07-.03,.11-.02,.18,.11,.33,.28,.35l.28,.03c.21,.02,.36-.06,.45-.25,.3-.63,.77-1.24,1.42-1.85,.21-.19,.19-.53,.41-.78,.21-.25,.37-.53,.47-.84Zm-.05,2.44c.1-.32,.27-.52,.53-.62,.14-.05,.23-.15,.28-.29l.4-1.08s.05-.07,.1-.07c.06,0,.12,.04,.13,.11,.01,.17-.03,.33-.13,.49-.11,.18-.07,.24,.13,.18,.1-.03,.16-.1,.19-.22,.03-.13,.09-.25,.19-.34,.54-.5,.91-1.11,1.12-1.83,.03-.09,.02-.19-.03-.28-.1-.18-.33-.25-.52-.16-.25,.13-.46,.34-.62,.62-.06,.1-.15,.17-.26,.22-.54,.23-.89,.63-1.04,1.2-.26,.96-1.07,1.59-1.53,2.48-.19,.37-.39,.71-.59,1.04-.09,.14-.05,.23,.11,.27l.62,.15c.1,.03,.16,0,.19-.1,.14-.46,.44-.92,.89-1.39,.03-.04,.04-.08,.02-.12-.01-.04-.04-.06-.08-.07-.1-.02-.13-.08-.1-.18Zm1.26-2.2s0,0,0,0c-.05,.05-.13,.05-.18,0l-.1-.1s-.04-.08-.02-.13c.17-.26,.37-.45,.59-.57,0,0,.02,0,.03,0,.02,0,.03,.02,.02,.04-.05,.3-.17,.55-.34,.75Zm.68,2c-.26-.25-.52-.32-.79-.2-.1,.04-.15,0-.15-.1,0-.05-.02-.09-.07-.12-.02-.01-.04-.02-.07-.03-.09-.01-.17,.05-.18,.14-.13,1.1-.45,1.9-.97,2.42-.02,.02-.04,.05-.04,.08-.01,.08,.04,.15,.12,.17l.28,.03c.17,.02,.34-.06,.44-.19l.86-1.17c.08-.1,.08-.21,.03-.33-.04-.08-.07-.17-.07-.26-.01-.16,.06-.24,.22-.25,.12,0,.22,.03,.29,.11,.09,.09,.11,.2,.06,.31-.05,.1-.05,.19,0,.28,.08,.15,.16,.15,.24,0,.49-.9,1.07-1.74,1.75-2.5,.09-.1,.16-.22,.2-.35,.04-.11,.08-.21,.14-.32,.11-.2,.07-.36-.11-.5l-.26-.18s-.01,0-.02-.01c-.09-.05-.21-.02-.26,.07-.34,.57-.71,1.12-1.09,1.65-.23,.32-.36,.71-.37,1.17,0,.17-.07,.19-.19,.08Zm23.14-.11h0s0-.06,.03-.08c1.72-.77,3.31-1.31,4.76-1.61,.72-.15,1.71-.19,2.99-.12,.04,0,.07-.02,.08-.06l.02-.13c.03-.17-.04-.28-.21-.32-.98-.25-2.01-.3-3.09-.13-6.18,.96-10.49,6.94-14.29,11.48-.26,.32-.57,.57-.93,.76-.32,.17-.69,.21-1.12,.1-1.63-.38-3.24-.92-4.84-1.62-4.49-1.97-9.15-3.87-13.98-5.71-6.29-2.39-12-4.18-18.16-4.95-5.28-.66-10.54-.32-15.78,1.01-8.08,2.05-15.9,5.3-23.47,9.74-1.54,.9-2.96,1.83-4.26,2.77-.59,.42-.52,.58,.19,.47,1.09-.17,1.86-.03,2.84,.52,1.59,.91,3.47,1.84,5.66,2.79,4.4,1.92,11.48,2.05,11.87-4.49,.1-1.8-.2-3.44-.91-4.93-.31-.64-.16-.77,.44-.39,2.89,1.84,4.41,4.6,4.58,8.28,0,.13,.07,.17,.19,.12,.43-.17,.92-.26,1.47-.27,3.45-.11,5.9-.4,8.41,.77,.17,.08,.16,.12-.03,.13-.7,.04-1.43,.02-2.18-.08-.01,0-.02,0-.02,.02v.02s0,.05,.04,.06c.99,.26,2.04,.43,3.16,.52,.06,0,.09,.04,.1,.09l.03,.2c.01,.09-.02,.13-.11,.13-1.72-.03-3.35,.32-4.98,.17-.91-.09-1.87-.13-2.87-.13-.07,0-.07,.02-.01,.05,.04,.02,.09,.03,.14,.03,.88,.04,1.76,.06,2.64,.08,.42,0,.78,.25,1.19,.26,.14,0,.19,.07,.15,.21l-.05,.15c-.03,.12-.15,.21-.27,.21-2.39,.04-4.75-.21-7.07-.76-.03,0-.06,0-.08,0-.04,.02-.07,.05-.07,.09,0,.08,.03,.13,.1,.15,1.92,.65,4.21,.67,6.06,1.05,.39,.08,.42,.22,.07,.43-.81,.49-1.77,.69-2.87,.6-1.46-.12-2.82-.31-4.07-.58-.07-.01-.13,0-.17,.06-.74,1.01-1.48,2.01-2.22,3.02,0,0,0,.02-.01,.02,0,.03,.02,.06,.05,.07,4.08,.53,7.41,.85,9.99,.96,9.97,.41,19.85-.08,29.74-1.36,6.42-.83,12.87-1.65,19.34-2.45,.23-.03,.46,.05,.62,.22,2.14,2.18,4.31,4.37,6.52,6.57,3.25,3.24,7.48,6.51,12.42,5.36,.05-.01,.09-.03,.11-.06,.03-.04,.05-.09,.04-.14-.02-.1-.1-.17-.2-.17-2.49,0-4.84-.6-7.04-1.83-.8-.44-1.6-.9-2.38-1.37-.04-.02-.04-.05-.03-.08h0s.04-.04,.07-.03c2.28,1.19,4.7,1.93,7.28,2.21,.03,0,.05,0,.08,0,.09-.03,.14-.13,.11-.23l-.03-.1c-.07-.21-.26-.37-.48-.4l-2.29-.37c-.37-.06-.37-.12,0-.17,.35-.05,.8-.09,1.36-.11,.03,0,.05-.02,.05-.05l.02-.13c.01-.1-.03-.15-.13-.15-2.37-.13-4.53-.68-6.47-1.67-.51-.26-.49-.33,.07-.21,1.71,.38,3.52,.66,5.43,.84,.27,.03,.36-.09,.26-.34l-.07-.17c-.13-.32-.37-.5-.71-.55-2.23-.32-4.41-.87-6.53-1.64-.04-.02-.06-.05-.05-.1l.02-.11s.01-.02,.03-.02c2.01,.38,4.03,.65,6.08,.81,.29,.02,.4-.11,.34-.39-.04-.19-.14-.35-.31-.46-.07-.04-.14-.07-.22-.08-1.98-.32-3.92-.71-5.82-1.16-.49-.11-.99-.3-1.49-.54-.1-.05-.1-.07,.02-.05l6.86,.72c.33,.04,.41-.09,.24-.38l-.1-.17c-.14-.24-.35-.38-.63-.42-2.29-.38-4.57-.75-6.86-1.11-.07-.01-.1-.05-.09-.12h0c0-.07,.05-.1,.11-.1,2.26,.13,4.53,.23,6.8,.31,.17,0,.23-.07,.19-.23l-.08-.3c-.04-.16-.17-.28-.34-.3-2.5-.36-5.01-.64-7.54-.84-.03,0-.05-.02-.05-.05h0s.03-.07,.07-.07c2.42,.03,4.82,.02,7.21-.04,0,0,.02,0,.02,0,.12-.01,.2-.12,.18-.23l-.02-.15c-.03-.25-.18-.39-.43-.41-2.48-.23-4.98-.49-7.49-.76-.04,0-.06-.03-.06-.07h0s.02-.06,.06-.06c1.97-.01,4.36-.06,7.17-.15,.3,0,.47-.16,.5-.46,0-.04,0-.09,0-.13-.02-.16-.15-.29-.31-.3-2.76-.23-5.37-.4-7.82-.51-.05,0-.08-.03-.08-.08h0s.02-.07,.07-.08c2.54-.12,5.06-.22,7.58-.31,0,0,0,0,.01,0,.24-.02,.42-.22,.41-.47v-.18c-.02-.12-.11-.21-.23-.22-2.59-.18-5.21-.25-7.85-.23-.06,0-.09-.03-.09-.09h0c0-.06,.02-.09,.08-.09,2.58-.16,5.15-.38,7.72-.68,.27-.03,.42-.19,.45-.46,0-.03,0-.07,0-.1,.02-.21-.08-.31-.29-.31l-7.14,.11c-.07,0-.11-.03-.11-.1v-.14s0,0,0,0c2.42-.19,4.83-.49,7.23-.9,.28-.05,.5-.19,.65-.42l.1-.16c.15-.21,.09-.31-.17-.31-2.11,.07-4.28,.16-6.49,.28-.3,.02-.6-.02-.89-.1-.03,0-.03-.02,0-.02,2.48-.29,4.93-.73,7.36-1.3,.2-.05,.39-.16,.52-.33l.14-.18c.16-.21,.11-.3-.15-.26-1.73,.19-3.46,.33-5.21,.43-2.46,.13-2.48-.02-.05-.45,1.86-.34,3.75-.72,5.67-1.14,.19-.04,.33-.19,.37-.37l.03-.16c.04-.2-.03-.29-.23-.28-1.43,.09-2.87,.24-4.32,.47-.62,.1-1.15,.11-1.58,.04-.43-.07-.43-.15,0-.26,2.21-.54,4.47-1.11,6.79-1.71,.1-.03,.18-.07,.22-.13,.05-.08,.07-.16,.05-.23-.04-.14-.13-.21-.28-.21-2.18,.08-3.99,.65-5.95,.76-.4,.02-.41-.04-.04-.2,2.13-.9,4.41-1.52,6.82-1.87,.23-.03,.36-.17,.38-.4l.02-.12s0-.03,0-.04c-.01-.12-.12-.21-.24-.19-2.18,.23-3.99,.54-5.45,.94-.88,.24-.91,.15-.1-.26,1.97-1,4.22-1.61,6.75-1.83,.18-.02,.32-.11,.41-.27l.05-.11c.12-.22,.05-.32-.2-.31-1.7,.1-3.44,.38-5.21,.85-.03,0-.06,0-.07-.04ZM15.27,25.47c.29,1.58-.79,3.1-2.42,3.4h0c-1.63,.3-3.18-.74-3.47-2.32-.29-1.58,.79-3.1,2.42-3.4h0c1.63-.3,3.18,.74,3.47,2.32h0Zm56.75-10.23l-2.92,4.4c-.11,.16-.06,.39,.1,.49h.02c.16,.12,.39,.08,.49-.09l2.92-4.4c.11-.16,.06-.39-.1-.49h-.02c-.16-.12-.39-.08-.49,.09Zm-1.29,5.64s0,0,0,0c.08,.05,.19,.03,.24-.05l2.04-3.2s0,0,0,0c.52-.82,.82-1.56,.67-1.66l-.2-.13c-.15-.09-.7,.49-1.22,1.31l-2.04,3.2s0,0,0,0c-.05,.08-.03,.19,.05,.24l.46,.29Zm3.3-3.59l-2.24,3.17c-.16,.23-.16,.53,0,.76l.08,.1c.04,.05,.09,.09,.14,.12,.19,.09,.42,.01,.51-.18,.52-1.11,1.23-2.11,2.13-2.99,.19-.19,.21-.4,.06-.63-.08-.11-.15-.23-.23-.34-.15-.22-.3-.23-.46,0Zm1.46,1.68s-.04-.09-.08-.12c-.11-.09-.28-.07-.37,.04l-2.02,2.51c-.17,.21-.12,.34,.14,.41l.45,.11c.29,.07,.5-.03,.63-.3,.32-.69,.74-1.31,1.24-1.88,.12-.13,.17-.33,.11-.5l-.09-.27Zm-6.64,.61c.04-.1,.07-.19,.09-.3,.03-.15-.03-.22-.18-.22-.16,0-.29,.06-.4,.17-.11,.11-.15,.23-.1,.38,.04,.13,.14,.25,.28,.35,.04,.03,.09,.04,.13,.03,.11-.01,.19-.11,.18-.22,0-.01,0-.05-.01-.12,0-.03,0-.05,.01-.08Zm5.72,2.53s.01,.08,.03,.12c.08,.12,.17,.14,.28,.05,.63-.53,1.01-1.21,1.12-2.04,.02-.12-.03-.2-.16-.23-.1-.03-.17,.01-.21,.11-.29,.68-.61,1.23-1.02,1.85-.03,.05-.05,.09-.05,.13Zm1.24,.99s.07,.03,.1,0c.29-.26,.4-.62,.33-1.09-.02-.12-.07-.14-.16-.06-.44,.38-.53,.76-.28,1.14,0,0,0,0,0,0Zm-63.49,1.65c-.69,0-1.24,.59-1.23,1.32,0,.72,.57,1.31,1.25,1.3s1.24-.59,1.23-1.32c0-.72-.57-1.31-1.25-1.3Zm62.64,13.11c.02,.06,.05,.11,.1,.15,.15,.13,.28,.1,.37-.06,.11-.2,.14-.39,.07-.57-.06-.15-.17-.25-.35-.3-.29-.08-.55-.03-.77,.13-.11,.08-.11,.17,0,.26,.05,.04,.1,.06,.17,.07,.21,0,.35,.12,.42,.33Zm-1.91,0c-.03-.15-.12-.24-.26-.27-.19-.05-.36,0-.52,.13,0,0,0,0-.01,.01-.12,.11-.13,.3-.02,.42l1.35,1.49c.08,.09,.13,.19,.16,.3,.01,.05,.03,.1,.06,.13,.1,.11,.19,.1,.28-.01l.41-.55c.09-.12,.13-.26,.11-.41-.07-.63-.34-1.08-.81-1.36-.44-.25-.53-.16-.27,.27,.22,.38,.39,.7,.51,.96,.36,.75,.24,.83-.35,.25-.27-.27-.48-.72-.62-1.35Zm-2.43,.31l.22-.07c.05-.02,.11,0,.14,.04,.48,.6,.92,1.2,1.32,1.79,.26,.39,.22,.65,.31,1.08,.03,.15,.11,.19,.24,.1,.29-.19,.39-.49,.32-.91-.03-.21-.18-.46-.44-.74-.39-.42-.71-.89-.96-1.4-.06-.13-.17-.2-.3-.23-.32-.06-.63-.03-.93,.1-.13,.06-.25,.05-.37-.02-.09-.05-.18-.08-.28-.08-.1,0-.2,.04-.27,.12-.13,.15-.11,.37,.03,.5,1.17,1.03,1.93,2.08,2.28,3.16,0,0,0,.01,0,.02,.03,.05,.09,.07,.14,.05l.1-.05c.12-.06,.17-.16,.14-.29-.22-1.22-1.16-2.01-1.77-3.02-.05-.08-.03-.13,.06-.16Zm-.83,1.3c-.32-.42-.61-.82-.89-1.2-.17-.23-.38-.28-.64-.16l-.15,.07c-.18,.08-.2,.2-.07,.34,1.23,1.32,2.33,1.94,2.86,3.88,.02,.08,.09,.14,.17,.15,.1,.01,.17,0,.22-.05,.09-.08,.13-.18,.13-.31,0-.7-.23-1.28-.69-1.75-.62-.63-.93-.95-.94-.97Zm-1.26,1.33c.34,1.02,.82,1.8,1.44,2.32,.4,.34,.55,.25,.45-.26-.22-1.09-1.05-1.54-1.56-2.4-.42-.7-.84-1.4-1.26-2.09-.04-.07-.1-.11-.16-.14-.09-.04-.19-.07-.29-.08-.02,0-.04,0-.05,0-.07,.02-.11,.09-.09,.16,.21,.81,.62,1.53,1.29,2.12,.11,.1,.2,.23,.24,.37Zm-.54,2.33c-.41-.28-.73-.65-.96-1.11,0,0,0-.01-.02,0l-.13,.07c-.06,.04-.07,.08-.03,.14l1.28,1.69c.19,.26,.42,.3,.69,.11,.04-.03,.09-.06,.13-.09,.23-.16,.27-.36,.12-.6-1.04-1.59-1.9-3.17-2.57-4.72-.03-.06-.07-.08-.13-.08l-1.89,.23s-.02,0-.03,.01c-.03,.02-.04,.07-.01,.1,.96,1.41,1.93,2.48,2.89,3.21,.34,.26,.6,.57,.79,.95,.1,.19,.05,.23-.12,.11Zm-2.45-3.9c-.04-.06-.02-.14,.04-.18l.17-.11s.06-.01,.08,.02c.44,.68,.91,1.29,1.4,1.83,.1,.11,.13,.24,.09,.38-.04,.11-.09,.13-.17,.03l-1.61-1.96s0,0-.01-.01Zm-2.49-.03s-.04,.07-.02,.1l.07,.1s.05,.07,.08,.11c2.26,3.16,4.14,5.61,4.19,5.48l.34-.24s0,0,0,0c.09-.07-1.66-2.68-3.92-5.84l-.07-.1s0,0,0,0c-.03-.03-.07-.04-.11-.01l-.56,.4Zm.54,3.5c.69,.79,1.27,1.63,1.74,2.51,.16,.3,.4,.46,.71,.49,.15,.02,.23-.05,.24-.2,.04-.53-.15-1-.57-1.4-1.12-1.1-1.97-2.35-2.58-3.77-.18-.44-.8-1.06-1.18-1.17-.27-.08-.45-.03-.56,.17-.07,.13-.06,.25,.03,.37,.11,.14,.24,.26,.39,.37,.11,.08,.2,.18,.26,.31,.3,.62,.68,1.19,1.13,1.7,.18,.21,.2,.42,.39,.63Zm.77,4.07s.07,.04,.11,.02l.11-.08s0,0,0,0c.34-.24,.39-.77,.09-1.19l-4.01-5.75c-.29-.41-.8-.55-1.15-.31l-.11,.08s0,0,0,0c-.03,.03-.04,.08-.01,.11l4.97,7.12Zm-5.85-6.91c-.32-.26-.61-.25-.87,.02-.1,.1-.12,.22-.04,.34,.3,.51,.65,.98,1.04,1.42,.39,.44,.76,.9,1.09,1.35,.95,1.31,1.9,2.74,2.83,4.29,.14,.23,.32,.26,.53,.09l.13-.1c.17-.14,.2-.31,.07-.49-1.28-1.87-2.43-3.66-3.46-5.4-.34-.58-.78-1.09-1.32-1.52Zm.68,4.94s-.01,.07-.03,.11c0,.02,0,.03,.01,.05l1.96,2.94c.12,.18,.27,.22,.46,.13l.18-.08c.22-.11,.27-.26,.13-.47-.58-.88-1.21-1.77-1.89-2.64-.11-.14-.27-.42-.49-.86-.15-.3-.37-.57-.64-.79-.09-.07-.14-.16-.16-.27-.03-.19-.05-.31-.18-.47-.52-.65-1.08-1.34-1.68-2.04-.17-.21-.44-.33-.81-.37-.12-.01-.23,.03-.33,.14-.09,.1-.1,.25-.02,.36,1.14,1.54,2.3,2.94,3.47,4.22,.01,.01,.02,.03,.01,.04Zm-2.18-1.47c-.6-.86-1.18-1.66-1.75-2.41-.38-.5-.81-.72-1.28-.66-.14,.02-.26,.09-.35,.19-.19,.23-.15,.57,.08,.76,.77,.63,1.39,1.14,1.99,2.02,.69,1.01,1.51,2.07,2.45,3.19,.57,.69,.97,1.42,1.2,2.2,.06,.22,.2,.28,.41,.2l.45-.19c.24-.1,.3-.26,.16-.49-.5-.81-1.05-1.63-1.65-2.43-.58-.78-1.14-1.57-1.7-2.37Zm-4.67-1.83c.88,.73,1.62,1.57,2.22,2.52,.33,.52,.71,1.06,1.14,1.62,.4,.52,.74,1.08,1.02,1.68,.06,.12,.14,.22,.25,.29,.07,.04,.13,.1,.18,.16,.06,.07,.11,.19,.14,.37,.1,.59,.43,1.05,1.02,1.38,.02,0,.03,.02,.05,.02,.15,.05,.31-.03,.36-.18,.08-.23,.06-.46-.07-.68-.71-1.27-1.56-2.51-2.56-3.73-.71-.87-1.17-1.9-2.1-2.64-.54-.43-1.05-.91-1.52-1.45-.09-.1-.23-.16-.37-.16h-.63s-.09,0-.13,.04c-.1,.07-.12,.21-.05,.3l4.33,6.27c.07,.1,.2,.14,.31,.08l.12-.05c.14-.07,.17-.17,.08-.3l-2.17-2.95c-.08-.11-.13-.24-.15-.38-.04-.32-.12-.54-.24-.66-.46-.46-.89-.95-1.28-1.47-.12-.16-.1-.18,.05-.05Zm-13.42,10.58l-.09,.09s-.03,.02-.04,0c-3.37-2.74-6.24-5.88-8.59-9.41-.36-.55-.75-1.07-1.17-1.56-.18-.22-.4-.35-.65-.39-.04,0-.08,0-.11,.02-.09,.05-.13,.16-.08,.25,2.3,4.64,6.15,9.81,11.16,11.74,.69,.27,1.35,.49,1.98,.68,.37,.11,.43,.01,.19-.29-1-1.24-1.78-2.65-2.33-4.23-.04-.13-.05-.26-.01-.39,.1-.33,.06-.6-.11-.81-1.54-1.87-2.94-3.97-4.22-6.29-.2-.36-.57-.55-1.13-.55-.19,0-.23,.08-.14,.24,.6,1.08,1.49,1.8,2.04,2.85,.77,1.44,1.74,2.84,2.91,4.21,.07,.08,.11,.18,.12,.29l.1,.78c.02,.16-.03,.18-.14,.07-.07-.07-.13-.16-.18-.26-.1-.22-.18-.37-.23-.44-.84-1.07-1.7-2.13-2.56-3.19-.36-.44-.97-.68-1.25-1.12-.55-.88-1.15-1.71-1.78-2.52-.03-.04-.03-.08,0-.11h0s.08-.03,.11,0c.63,.63,1.31,1.23,1.75,1.99,.21,.36,.46,.7,.74,1.03,.04,.05,.11,.05,.16,.01l.11-.1s.03-.05,.01-.08c-.79-1.1-1.62-2.15-2.48-3.13-.16-.18-.51-.34-.68-.39-.62-.2-.77,0-.47,.57,.69,1.29,1.56,2.53,2.6,3.71,1.33,1.5,2.1,2.38,2.31,2.65,.71,.87,1.48,1.75,2.29,2.66,.32,.36,.59,.81,.78,1.35,.05,.13,.12,.24,.23,.33,.09,.07,.17,.15,.24,.24,.12,.15,.1,.19-.07,.12-.06-.03-.11-.07-.16-.12-1.04-1.36-2.31-2.44-3.44-3.83-.65-.8-1.31-1.61-1.96-2.41-.61-.75-1.84-1.8-2.45-3.04-.38-.78-.91-1.28-1.31-2.01-.12-.21-.36-.33-.6-.29l-.13,.02c-.24,.04-.29,.17-.17,.37,2.5,4.07,5.45,7.28,8.87,10.56,.04,.04,.04,.08,0,.12Zm11.17-11.06c-.16-.17-.34-.23-.53-.21-.06,0-.12,.03-.17,.08-.13,.11-.14,.31-.02,.44,.37,.42,.59,.91,.97,1.3,.66,.67,1.27,1.39,1.81,2.15,.68,.96,1.25,1.69,1.71,2.21,.67,.74,1.31,1.51,1.94,2.29,.4,.49,.89,.74,1.49,.74,.04,0,.07-.01,.1-.03,.07-.06,.09-.16,.03-.24l-1.24-1.64c-.09-.12-.2-.21-.33-.28-.43-.22-.8-.52-1.1-.89-.98-1.23-1.92-2.47-2.79-3.7-.54-.77-1.17-1.5-1.87-2.21Zm-11.87,3.49c-.6-.95-1.18-1.9-1.73-2.88-.15-.27-.4-.45-.73-.55-.16-.05-.23,.01-.21,.18,.06,.38,.16,.69,.32,.91,1.08,1.56,2.1,3.15,3.05,4.78,.24,.41,.33,.38,.26-.09,0-.04-.04-.15-.12-.32-.29-.7-.44-1.39-.85-2.03Zm10.19-3.48l-.83,.02s-.06,.01-.08,.03c-.05,.04-.06,.12-.01,.17l7.76,9.25s0,0,0,0c.04,.05,.12,.06,.17,.02l.25-.21s.06-.12,.02-.17l-7.17-9.06s-.06-.05-.1-.05Zm-11.24,.24c-.2-.08-.25-.03-.15,.16,.71,1.36,1.44,2.57,2.21,3.63,.12,.18,.32,.29,.54,.31l.36,.03s.09-.01,.12-.04c.07-.06,.08-.17,.02-.24-.68-.83-1.41-1.68-1.86-2.68-.25-.55-.66-.94-1.24-1.18Z"/>
  </g>
</svg>