<?xml version="1.0" encoding="UTF-8"?>
<svg id="Layer_2" data-name="Layer 2" xmlns="http://www.w3.org/2000/svg" viewBox="0 0 57.98 42.21">
  <defs>
    <style>
      .cls-1 {
        fill: #808080;
      }
    </style>
  </defs>
  <g id="Layer_1-2" data-name="Layer 1">
    <path class="cls-1" d="M43.39,31.74c.36,.26,.83,.27,1.25,.38,.95,.25,1.68,.99,2.36,1.7,.34,.36,.7,.74,.86,1.21s.07,1.07-.35,1.34c.84,.71,1.76,1.68,1.47,2.74-.19,.71-.89,1.17-1.57,1.45s-1.43,.47-2,.94c-.18,.15-.35,.33-.56,.42-.64,.28-1.38-.3-2.07-.15-.32,.07-.58,.29-.89,.38-.51,.15-1.04-.07-1.54-.25-.92-.33-1.88-.54-2.85-.64-.35-.79-1.23-1.08-2.04-1.08s-1.59,.22-2.4,.25c-1.83,.08-3.74-.8-5.42-.09-.57,.24-1.06,.64-1.62,.9-1.91,.87-4.13-.1-6.22,.02-1.64-.22-3.19-.06-4.69-.36-2.55-.51-4.62-2.32-6.56-4.05-.92-.71-1.9-1.41-2.88-2.11-.72-.51-1.43-1.02-2.05-1.65-.45-.45-.84-.96-1.27-1.43-.6-.65-1.3-1.23-1.77-1.99s-.68-1.76-.22-2.53c-.37-.53-.42-1.01-.29-1.39s.43-.68,.72-.96c.15-.14,.3-.28,.39-.46,.23-.42,.09-.95,.17-1.42-.59-.51-.91-1.13-.97-1.75-.06-.62,.11-1.24,.36-1.82,.15-.36,.35-.72,.66-.95,.37-.26,.84-.31,1.27-.42s.91-.31,1.08-.72c1.74-5.48,6.42-9.79,11.88-10.92,3.03-2.09,5.93-3.66,8.92-5.02,.4-.18,.82-.37,1.26-.38s.92,.17,1.13,.56C29.22,.58,31.68,.05,34.15,0c.35,0,.71,0,1.02,.16s.53,.53,.42,.86c1.6-.18,3.23-.17,4.83,.03,.36,.04,.73,.1,1.02,.31s.48,.61,.32,.94c2.59,.25,5.53,.62,7.68,2.39,.54,.45,1.05,1.08,.95,1.77-.03,.22-.13,.42-.22,.62-.58,1.28-1.19,2.59-2.15,3.62-.39,.41-.82,.77-1.26,1.13-.59,.48-1.17,.96-1.8,1.39-.87,.6-1.82,1.08-2.82,1.44,.75,1.59,3.15,2.28,4.58,1.19,1-.76,1.56-2.19,2.79-2.44,.16-.03,.33-.05,.46-.14,.15-.1,.21-.28,.3-.44,.32-.59,1.03-.89,1.7-.88,.67,.01,1.31,.29,1.88,.63,1.51,.9,2.77,2.36,3.01,4.1,.18,1.35-.25,2.76,.14,4.06,.15,.49,.4,.95,.52,1.45,.14,.6,.08,1.23,.07,1.86-.02,1.37,.23,2.73,.34,4.1s.08,2.79-.48,4.05c-.56,1.25-1.74,2.3-3.11,2.37-1.13,.05-2.2-.56-3.07-1.29s-1.63-1.6-2.58-2.22c-1.5-1-3.37-1.32-5.18-1.25-.66,.46-.72,1.51-.13,1.93Z"/>
  </g>
</svg>