<?xml version="1.0" encoding="UTF-8"?>
<svg id="Layer_2" data-name="Layer 2" xmlns="http://www.w3.org/2000/svg" viewBox="0 0 29.41 58.97">
  <defs>
    <style>
      .cls-1 {
        fill: #808080;
      }
    </style>
  </defs>
  <g id="Layer_1-2" data-name="Layer 1">
    <path class="cls-1" d="M17.16,13.32c-.6,2.04,0,5.52,0,5.52l3.84,4.68s1.2-1.92,2.28-3.48c1.08-1.56,6.12-7.2,6.12-7.2,0,0-2.64,4.44-3.84,7.08-1.2,2.64-1.32,12.36-1.2,19.08,.12,6.72,3.84,14.04,3.84,14.04,0,0-3.36-4.68-4.56-7.92-1.2-3.24-3.24-10.2-3.6-10.2s-3.36,6.12-3.36,6.12c0,0-1.32,3.72-1.44,7.8-.12,4.08,2.16,10.12,2.16,10.12,0,0-5.52-6.27-7.02-9.28-1.5-3-4.98-8.76-6.9-11.52-1.92-2.76-3.48-7.32-3.48-7.32l.96-.84-.96-1.24s1.44-4.55,5.88-11.48C9.66,11.39,19.68,.6,20.76,0c0,0-3,11.28-3.6,13.32ZM3.6,32.41c-.09,1.05-1.35,12.21,2.43,23.46,0,0-3.42-11.43-1.35-23.86l-1.08,.39Zm1.04,.49c.13,1.04,1.26,12.22,7.33,22.42,0,0-5.76-10.45-6.36-23.03l-.97,.61Z"/>
  </g>
</svg>