<?xml version="1.0" encoding="UTF-8"?>
<svg id="Layer_2" data-name="Layer 2" xmlns="http://www.w3.org/2000/svg" viewBox="0 0 169.48 59.1">
  <defs>
    <style>
      .cls-1 {
        fill: #808080;
      }
    </style>
  </defs>
  <g id="Layer_1-2" data-name="Layer 1">
    <path class="cls-1" d="M2.11,49.27c-.64,.36-1.41,.49-2.11,.73,.19-.73,.33-1.47,.59-2.17,.46-1.22,1-2.41,1.49-3.62,.89-2.22,2.28-4.07,3.95-5.75,1-1.01,1.86-2.16,2.72-3.3,1.07-1.42,.83-2.86-.24-4.13-2.97-3.54-4.03-8.01-6.03-12.02-.1-.2-.05-.48-.08-.72,.24,.02,.5-.03,.71,.07,4.17,1.88,8.29,3.77,11.28,7.51,1.1,1.37,2.77,2.34,4.33,3.26,1.32,.78,2.84,.86,4.32,.16,.32-.15,.79-.27,1.08-.15,2.06,.84,3.9,.53,5.64-.84,.3-.24,.87-.17,1.31-.19,2.03-.12,4.01-.35,5.53-1.97,.22-.24,.71-.37,1.05-.34,2.43,.23,4.45-.49,6.04-2.36,2.25,.52,4.24,.14,5.95-1.52,.32-.31,.93-.36,1.43-.43,1.4-.22,2.81-.37,4.2-.6,.74-.12,1.26-.42,.57-1.28-.44-.56-.1-.93,.46-1.2,3.77-1.8,7.54-3.59,11.29-5.44,.7-.34,1.1-.33,1.67,.28,3.49,3.77,3.48,3.58,8.56,2.86,5.42-.77,10.89-1.25,16.34-1.73,3.25-.28,6.52-.37,9.78-.44,1.27-.02,1.53-.5,1.43-1.66-.07-.81,.11-1.68,.36-2.46,.26-.8,.85-.9,1.52-.31,.64,.56,1.29,1.09,1.96,1.61,.19,.15,.45,.19,.68,.28-.05-.23-.03-.49-.15-.68-.4-.67-.86-1.31-1.25-1.98-.1-.18-.04-.45-.06-.68,.18,.03,.37,.05,.55,.09,.06,.01,.11,.07,.17,.09,.64,.26,1.28,.53,1.92,.79-.52-.62-1.03-1.24-1.56-1.84-.12-.14-.36-.17-.5-.3-.28-.27-.8-.68-.74-.84,.32-.8,.9-.46,1.45-.18,.72,.37,1.46,.71,2.19,1.06-.19-.26-.34-.62-.58-.7-2.79-.91-2.28-3.17-2.23-5.26,.03-.98,.53-1.16,1.27-.77,.92,.48,1.78,1.09,2.68,1.63,4.8,2.86,8.38,6.83,10.64,11.93,.61,1.38,1.69,1.47,2.81,1.72,3.38,.76,6.8,1.34,10.13,2.26,6.42,1.76,12.8,3.69,19.19,5.55,3.89,1.13,7.78,2.28,11.35,4.27,.29,.16,.59,.28,.86,.47,1.97,1.37,1.89,2.89-.19,4.02-.8,.43-1.6,.87-2.4,1.3,1.05-.03,1.56,.88,2.35,1.32,1.61,.91,1.87,1.67,.59,2.91-.85,.83-2,1.6-3.13,1.84-3.97,.85-7.75,2.19-11.43,3.88-.94,.43-1.94,.74-2.93,1.08-1.71,.59-3.42,1.21-5.16,1.73-1.06,.32-2.16,.47-3.25,.68-4.41,.85-8.81,1.73-13.23,2.51-1.18,.21-2.04,.64-2.69,1.68-1.83,2.94-4.5,5.05-7.22,7.1-.51,.39-1.12,.69-1.74,.89-1.34,.42-1.9-.02-2.07-1.48-.1-.81-.27-1.26-1.41-1.31-1.96-.09-2.26-1.03-.99-2.52,.58-.68,1.4-1.15,2.1-1.73,.24-.2,.44-.46,.65-.69-.3-.07-.59-.2-.89-.2-3.78,.07-7.57,.2-11.35,.22-8.04,.05-16.04-.59-23.98-1.86-1.73-.28-3.48-.58-5.16-1.05-1.48-.41-2.54,0-3.46,1.12-.41,.51-.86,.98-1.27,1.49-1.25,1.58-1.32,1.55-3.01,.66-3.12-1.63-6.27-3.18-9.42-4.77-.17-.09-.38-.15-.51-.28-.39-.39-1.6-.3-.97-1.27,.39-.6,.6-1.59,1.57-1.54l-8.69-2.53c-.41,.1-.83,.2-1.24,.3-2.31,.59-2.72,.36-3.43-2.02-.01,0-.02,0-.03,0-.03,0-.05-.02-.08-.02-1.96-.06-3.92-.62-5.87,.3-.32,.15-1.16-.4-1.52-.82-1.25-1.5-2-1.85-3.86-1.29-.92,.28-1.55,.19-2.25-.55-1.01-1.08-2.37-1.37-3.75-.82-.91,.36-1.61,.42-2.24-.42-.11-.15-.34-.35-.47-.32-1.81,.4-3.99,0-5.36,1.32-5.01,4.84-10.55,8.95-16.58,12.4Z"/>
  </g>
</svg>