<?xml version="1.0" encoding="UTF-8"?>
<svg id="Layer_2" data-name="Layer 2" xmlns="http://www.w3.org/2000/svg" viewBox="0 0 56.71 52.41">
  <defs>
    <style>
      .cls-1 {
        fill: #808080;
        fill-rule: evenodd;
      }
    </style>
  </defs>
  <g id="Layer_1-2" data-name="Layer 1">
    <path class="cls-1" d="M8.58,17.79s.64,.74,.94,1.13c.3,.4,.08,1.69,1.01,2.21,.93,.52,2.12-.58,2.86-.23,.74,.36,1.32,2.34,5.7,4.51,4.38,2.18,7.73,3.5,8.41,3.62,.68,.11,.7,.42,1.22,.66,.52,.24,.87,.1,1.1,.38,.23,.28,1.77,2.92,2.38,3.27,.61,.35,2.17,2.83,3.12,3.42,.95,.59,3.41,1.4,5.54,1.04,0,0,4.05,4.79,4.01,6.93-.04,2.14,.04,5.36-3.32,6.32,0,0-2.46,1.1-6.22-1.18-3.76-2.28-12.74-4.04-15.21-3.7-2.47,.34-7.31,1.22-8.62,.8-1.31-.41-5.91-1.52-11.34,.21,0,0-.45,.41,.15,.75s8.57,1.23,11.51,.11c0,0,6.86-.7,8.12-.98,1.26-.28,6.97,.74,7.79,1.03,.82,.29,6.01,1.88,7.16,2.63,1.15,.75,5.34,2.38,7.21,1.32,1.88-1.06,3.15-2.25,3.52-3.88s.8-4.94-1.15-7.51l-1.87-2.79s1.54,.19,1.85,.5c.31,.3,1,1.92,3.69,2.19,0,0,3.04,3.08,3.25,4.39,0,0,.19,.23,.26-.34,.07-.57-1.54-3.72-1.85-4.02,0,0,5.1-.41,6.03-1.27,0,0,.16-.39-1.23-.16-1.39,.24-5.03,.26-5.55,.23,0,0-.6-1.58-1.82-2.13-1.21-.55-2.15-.65-2.15-.65,0,0-.49-1.44-1.72-1.48-1.23-.04-2.04-1.27-2.04-1.27,0,0,2.36,.59,2.74,.55,.37-.04,2.5,2.53,4.19,2.69l.99,.17s.93,1.57,1.73,1.65c0,0-1.29-1.23-.85-1.56,0,0,1.36,.31,2.2,.09,.84-.23,1.94-.02,2.58,.34,0,0-.61-.81-1.59-1.1,0,0,.34-.5,.47-.77,0,0-1.2,.27-1.93-.01-.73-.29-2.26-2.22-2.26-2.22,0,0,2.93,.24,3.3,.49,.38,.24,2.23,2.63,2.39,3.18,0,0-.53-2.2-1.28-2.86,0,0,.5-.18,1.09,.04,0,0-.91-.84-1.59-1.03,0,0-1.07-1.35-1.81-1.5s-3.83-.7-4.54-1.17c-.71-.47-3.55-4.04-3.55-4.04,0,0,11.47-1.25,12.84-4.56,1.37-3.3-3.25-6.27-5.74-7.08-2.49-.81-12.25-3.98-13.01-4.47-.75-.49-1.69-1.69-1.67-2.13,0,0-3.22-5.13-7.87-7.43,0,0-2.83-1.41-2.98-1.08-.15,.33,4.51,5.11,5.55,5.95,1.04,.84,3.95,2.51,4.54,3.01,.59,.5,1.14,2.02,1.82,2.23,.68,.22,5.86,2.52,7.21,2.81s6.09,1.91,7.17,2.33c1.08,.42,3.81,2.12,4.24,3.85,.43,1.72-1.74,3.14-3.35,3.56-1.61,.42-8.38,2.33-9.09,2.19,0,0-1.55-2.47-2.48-2.64-.93-.17-5.91,.76-6.99,.75-1.09,0-1.66-.53-2.45-.73-.78-.2-.97-.25-1.34-.77-.37-.52-9.11-3.44-12.29-3.39,0,0,.21-1.76,.54-2.18,.33-.42-1.19-.95-2.74-.84-1.55,.11-4.14,.7-4.74,1.17-.61,.47-.97,.42-1.25,.38-.28-.04-1.03-.27-.94,.06h0Zm38.28,16.96s2.04,.79,2.72,.83c.68,.04,1.98,.7,2.36,.98,0,0-.71-.26-1.38-.11-.67,.14-2-.41-2.53-.86-.53-.45-1.16-.82-1.16-.82h0Zm-5.86-6.59s3.81,2.03,5.49,3.66l1.07,1.19s-1.37-.98-1.91-1.11c-.55-.13-1.69-1.09-2.03-1.54-.34-.45-2.13-1.94-2.61-2.2h0Zm-2.54-3.39s1.14,.05,1.48,.12c.34,.07,1.22,1.07,1.47,1.33,.25,.26,1.07,.87,1.07,.87,0,0-1.93-.66-2.39-1.04-.46-.38-1.63-1.28-1.63-1.28h0Z"/>
  </g>
</svg>