<?xml version="1.0" encoding="UTF-8"?>
<svg id="Layer_2" data-name="Layer 2" xmlns="http://www.w3.org/2000/svg" viewBox="0 0 87.56 40.71">
  <defs>
    <style>
      .cls-1 {
        fill: #808080;
      }
    </style>
  </defs>
  <g id="Layer_1-2" data-name="Layer 1">
    <path class="cls-1" d="M87.52,24.12c-.1,2.64-1.94,3.7-4.53,2.94-1.33-.39-2.57-1.07-3.83-1.66-3.68-1.73-7.48-2.95-11.63-2.66-1.88,.13-3.41,.57-4.47,2.45-.74,1.31-2.13,2.24-3.18,3.39-2.24,2.45-4.08,5.05-4.42,8.56-.29,3-2.73,4.27-5.57,3.18-2.38-.91-3.86-2.76-4.83-5-.57-1.31-1.22-1.73-2.62-1.12-1.97,.85-4.36,.84-5.48,3.27-.48,1.04-1.71,1.23-2.83,.94-.71-.18-1.47-.39-2.06-.79-2.66-1.82-5.77-2.22-8.8-2.87-7.72-1.64-14.66-5.21-21.55-8.89-1.91-1.02-2.09-1.85-1.35-4.05,.05-.15,.24-.32,.21-.44-.67-2.77,1.4-3.5,3.26-4.34,4.18-1.9,8.32-3.91,12.59-5.6,1.65-.66,2.27-1.61,2.47-3.19,.38-2.92,1.65-5.48,3.46-7.77,.17-.22,.51-.31,.76-.47-.02,.3,.02,.63-.08,.9-.39,1.07-.91,2.11-1.22,3.2-.43,1.53,.89,3.45,2.45,3.65,.19,.02,.45-.51,.68-.81,2.03,1.27,4.19,1.59,6.53,1.01,.62-.15,1.32-.14,1.96-.05,2.37,.34,4.09-.5,5.87-2.17,1.81-1.69,4.17-2.84,6.39-4.04,1.61-.87,2.87-.61,3.81,1,1.78,3.06,4.05,5.67,6.52,8.15,1.05,.43,2.1,.86,3.16,1.28,1.43,.57,2.06,1.68,1.74,3.13-.32,1.47,.32,1.77,1.61,2.02,4.83,.94,9.08,.03,12.81-3.32,1.89-1.71,3.96-3.21,6.73-3.21,2.48,0,4.53,1.21,4.87,3.61,.46,3.22,.66,6.52,.54,9.78Z"/>
  </g>
</svg>