<?xml version="1.0" encoding="UTF-8"?>
<svg id="Layer_2" data-name="Layer 2" xmlns="http://www.w3.org/2000/svg" viewBox="0 0 65.74 25.33">
  <defs>
    <style>
      .cls-1 {
        fill: #808080;
        fill-rule: evenodd;
      }
    </style>
  </defs>
  <g id="Layer_1-2" data-name="Layer 1">
    <path class="cls-1" d="M6.52,.62l.53,.36,.55-.26c.49-.24,.64-.26,1.36-.26,.92,0,1.4,.14,2.01,.61l.38,.29,.37-.18c.21-.09,.64-.23,.97-.3,1.22-.25,1.99-.12,2.84,.52,.27,.2,.53,.37,.56,.37s.28-.06,.55-.13c.61-.16,2.04-.16,2.62,0,.53,.14,1.39,.59,1.64,.86l.18,.19,.81-.33c.94-.39,1.65-.48,2.54-.33,.66,.12,1.1,.31,1.62,.74l.36,.3,.49-.15c1.38-.42,2.91-.03,4.27,1.08l.22,.19,.63-.2c.54-.17,.8-.19,1.86-.19,1.42,0,1.82,.11,2.71,.72l.53,.36,.77-.18c1.5-.34,2.4-.32,3.98,.08,1.01,.25,1.59,.58,2.98,1.72l.2,.16,.75-.43c1.12-.64,1.61-.78,2.76-.78,1.5,0,2.33,.29,3.92,1.34,1.08,.71,1.63,.94,2.29,.95,.7,0,1-.09,2.42-.76,1.5-.71,1.98-.85,3.09-.85,.95,0,1.6,.14,2.37,.5,1.27,.59,2.47,2.24,2.92,4.03,.39,1.55,.08,4.17-.64,5.31-.3,.47-1.05,1.11-1.97,1.68-1.12,.7-1.81,1.43-2.68,2.91-1.08,1.81-1.47,2.36-2.25,3.14-.58,.58-.87,.8-1.45,1.08-1.12,.55-1.59,.64-3.14,.59-1.25-.03-1.36-.06-2.24-.35-1.99-.68-3.34-1.56-5.04-3.28l-.96-.97h-1.75c-1.54,0-1.82-.03-2.42-.19-1.51-.42-3.22-1.42-4.31-2.53l-.65-.66h-1.04c-.83,0-1.15-.05-1.63-.2-1.21-.39-2.46-1.25-3.3-2.27l-.43-.53-.4,.05c-.47,.06-1.35-.08-1.96-.31-.44-.17-1-.56-2.02-1.42l-.53-.46-.52,.05c-.58,.06-1.78-.11-2.29-.32-.47-.19-1.1-.7-1.4-1.12l-.26-.36-1.04,.04c-.92,.04-1.13,.03-1.65-.14-.77-.23-1.36-.64-2.06-1.39l-.57-.61-1.01-.04c-.97-.05-1.04-.07-1.75-.41-.76-.36-1.64-1.09-1.88-1.57-.11-.21-.16-.23-.61-.23-1.25,0-2.83-.78-3.65-1.8l-.41-.51-.8-.02c-.97-.03-1.53-.25-2.18-.85-.38-.36-.45-.39-.86-.39-.6,0-1.04-.14-1.42-.47C.15,1.84,.1,1.74,.04,1.27-.03,.77-.02,.72,.15,.52,.43,.22,.82,.08,1.36,.08c.38,0,.53,.05,.88,.28l.42,.29,.36-.21c.19-.12,.5-.26,.67-.32,.76-.27,2.03-.04,2.84,.51Z"/>
  </g>
</svg>