<?xml version="1.0" encoding="UTF-8"?>
<svg id="Layer_2" data-name="Layer 2" xmlns="http://www.w3.org/2000/svg" viewBox="0 0 69.78 53.67">
  <defs>
    <style>
      .cls-1 {
        fill: #808080;
        fill-rule: evenodd;
      }
    </style>
  </defs>
  <g id="Layer_1-2" data-name="Layer 1">
    <path class="cls-1" d="M68.97,32.14c-.02-.1,.03-.34,0-.5-.1-.59-.66-1.22-1.09-1.65-.26-.26-.45-.44-.73-.63-.3-.2-.59-.29-.93-.46-.54-.28-1.11-.67-1.75-.99-.62-.31-1.28-.58-1.88-.89-1.38-.71-2.47-1.56-4.03-1.82-.44-.07-.65-.25-.96,.03-.34-.23-.62-.61-1.06-.66-.88-.11-1.5,.56-2.05,.93-.46,.31-.91,.58-1.22,.76v-.63c.79-.1,1.2-.47,1.75-.93,.4-.32,.71-.64,1.02-.99,.76-.83,1.69-1.71,1.56-3.24,.16-.52,.62-.67,.99-.99,.35-.3,.56-.65,.83-1.03,.41-.58,.91-1.06,1.22-1.68,.34-.67,.51-1.42,.69-2.25,.34-1.54,.56-3.4,.16-5.26-.18-.15-.38-.28-.56-.43-.24-1.15-.56-2.18-1.26-3.01-.33-.39-.58-.82-.89-1.22-.91-1.19-2.2-2.15-3.44-2.97-.45-.3-.86-.57-1.32-.79-.53-.26-.98-.36-1.62-.53-.38-.1-.92-.44-1.42-.26-.21,.07-.49,.41-.46,.66,.02,.15,.14,.17,.3,.33,.69,.69,.93,1.19,1.22,2.21,.28,.96,.47,2.03,.47,3.27,0,.73-.15,1.56-.07,2.18,.03,.22,.23,.47,.26,.69,.05,.32-.05,.71-.1,1.09-.21,1.92-.06,3.92,.26,5.49,.18,.87,.43,1.69,.79,2.31-.64,.58-1.48,1.09-1.85,1.98-.32,.77-.34,1.71-.43,2.81-.97,1.01-3.01,.96-4.13,1.82-.82,.25-1.49,.64-2.11,1.09-.26-.25-.31-.71-.43-1.09-.24-.11-.51,.07-.83,0-.19-.04-.56-.32-.89-.46-.77-.33-1.68-.41-1.68-1.36-.35-.29-.64-.64-1.03-.89-.1-.5-.7-1.15-1.42-1.06-.44,.06-.83,.38-.76,.93-.1,.01-.26-.04-.26,.06-.25-.19-.48-.4-.79-.53-.23-.48-.2-1.33-.73-1.42-.85-.15-.72,1.24-1.59,1.26-.5-.33-.55-1.3-1.26-1.26-.5,.03-.58,.92-.76,1.46-.5,.05-.53,.61-1.09,.43,.13-.62-.37-.89-.76-.93-.73-.08-1.31,.59-1.39,1.09-.42,.2-.67,.59-1.02,.86,0,.17-.06,.27-.04,.46-.59,1.11-2.34,1.08-3.4,1.72-.06,.35-.15,.67-.3,.93-.39-.11-.73-.19-1.03-.4-.27-.19-.58-.37-.79-.63-.79-.18-1.56-.78-2.38-1.06-.13-.04-.27-.04-.4-.07-.48-.43-1.52-.34-1.75-.99-.09-.27-.01-.59-.03-.86-.04-.61-.17-1.38-.39-1.92-.19-.44-.57-.85-.86-1.16-.32-.33-.7-.64-1.16-.89,.49-.86,.77-1.95,.99-3.07,.28-1.46,.49-3.21,.33-4.79-.04-.35-.16-.73-.13-1.06,.02-.24,.17-.42,.2-.66,.05-.49-.08-.98-.1-1.49-.05-1.15,0-2.37,.23-3.47,.19-.95,.58-2.05,1.19-2.55,.16-.13,.41-.16,.53-.36-.27-.23,.04-.11,.06-.43-.19-.15-.35-.29-.59-.33-.5-.08-.92,.2-1.29,.3-.32,.09-.59,.1-.86,.2-.79,.29-1.41,.67-2.08,1.13-1.24,.83-2.55,1.79-3.44,2.94-.31,.4-.55,.86-.89,1.26-.71,.83-1.04,1.91-1.26,3.04-.76,.21-.68,.94-.72,1.85-.02,.45-.02,.87,0,1.29,0,.15,.02,.3,.04,.46,.07,.99,.23,1.9,.43,2.75,.21,.88,.66,1.58,.99,2.35,.44,1.02,1.02,1.85,1.88,2.28,.18,.09,.38,.1,.46,.17,.32,.26,.19,.71,.26,1.25,.12,.96,.96,1.8,1.55,2.45,.72,.79,1.63,1.68,2.78,1.95v.63c-.5-.25-.95-.72-1.45-1.09-.66-.48-1.33-.86-2.38-.59-.28,.07-.47,.29-.7,.36-.15,.04-.34,.03-.49,.06-1.49,.33-2.77,1.12-4.07,1.85-.63,.36-1.33,.63-1.98,.96-.67,.34-1.3,.75-1.92,1.06-.55,.28-1.05,.49-1.49,.92-.6,.59-1.22,1.23-1.22,2.35-.94,1.11-1.03,4.56-.36,5.85-.08,.21-.06,.62-.17,.7,.16,1.21,.52,2.26,.66,3.44,.08,.67,.06,1.21,.27,1.75,.36,.97,.9,1.75,1.39,2.54,.72,1.19,1.74,2.19,3.08,2.68,.11-.12,.38,.04,.49-.13,.02-.34-.25-.46-.36-.7-.05-.1-.05-.25-.1-.36-.16-.34-.38-.62-.53-.93-.17-.34-.3-.68-.43-1.06-.49-1.49-.49-3.41-.56-5.35-.04-1.02-.12-1.97-.33-2.98-.2-.2-.3-.75-.59-.96,.35-.28,.23-1.03,.1-1.45,.74-.1,.94-.73,1.09-1.42,.89-.5,1.61-1.3,2.51-1.85,1.46-.89,3.13-1.6,3.87-3.24,.21-.14,.39-.29,.59-.43,.16,.35,.67,.34,1.02,.5,.22,.27,.48,.67,.63,.89-1.07,.1-1.15,1.19-2.18,1.32-.65-.55-.97,.28-1.32,.82-.52,.82-.88,1.46-1.19,2.41-.16,.48-.33,.94-.46,1.36-.61,1.92-1.53,3.54-1.62,5.58-.04,.88-.1,1.64,.27,2.08,.18,.03,.38,0,.56,.1-.07,.62,.2,1.02,.46,1.49,.39,.67,.83,1.12,1.49,1.42,.4,1.34,1.62,1.75,2.71,2.41,.74,.45,1.49,.88,2.35,1.02,.15,.64,.73,1.6,1.19,1.78,.37,.15,.95,.02,1.06-.3,.47,.68,1.16,1.04,1.98,1.32,.32,.11,.58,.1,.96,.17,.32,.06,.67,.22,.99,.33,1.75,.61,3.62,.86,5.72,.53,.78-.12,1.57-.18,2.28-.4,.52-.16,1.05-.39,1.52-.59,.5-.21,1.01-.41,1.39-.76-.12-.06-.06-.13-.1-.23-.54-.34-1.21-.01-1.82,.06-1.93,.25-3.54-.14-4.79-.89-.83-.5-1.53-1.04-2.64-1.12-.52-.04-.99,.07-1.39,.1-.45-.58-1.06-1.01-1.98-1.12,.37-.37,0-1.17-.2-1.59-.68-1.45-1.95-3-2.22-4.66,.81-.02,1.32-.2,1.95-.46,1.45-.61,2.8-1.13,4.2-1.72,.36,.45,.84-.11,1.26-.2-.83,.77-2.37,1.47-3.37,2.18-.39,.28-.85,.44-1.15,.7-.21,.17-.55,.49-.6,.72-.14,.7,.36,.86,.73,1.09,.1,.17,.19,.38,.26,.59,.07,.2,.18,.42,.23,.63,.09,.33,.07,.62,.26,.86,.21,.26,.5,.23,.73,.49,.73,.17,1.39,.51,2.05,.89,.44,.25,.87,.58,1.36,.86,.68,.38,1.48,.66,2.48,.83,.62,.1,1.03,.28,1.32-.17,1.34-.16,2.42-.58,2.81-1.68,.57-.36,.98-.86,1.35-1.59,.52-1,.69-2.18,.89-3.47,.1-.63,.25-1.3,.23-1.95,0-.25-.21-.65-.36-.66-.3-.02-.44,.72-.59,.99-.19,.34-.51,.66-.76,.93-.28,.3-.63,.51-.89,.82-.48,.58-.84,1.43-1.02,2.15-.07,.25-.05,.56-.17,.82-.16,.37-.59,.58-.92,.79-.71-.61-1.94-.9-3.17-1.02-1.05-.1-2.18-.11-2.94-.59-.11,0-.18,.13-.26,0,1.38-1.04,3.28-1.56,4.16-3.11,.15,.15,.37,.26,.59,.23,.46-.07,.51-.62,.69-1.06,.33-.78,1.06-1.75,1.26-2.48,1.73,.63,3.71,1.36,5.95,1.49,1.3,.07,2.41-.08,3.41-.3,1.09-.24,2.18-.78,3.2-1.09,.3,1.24,1.25,1.83,1.52,3.11,.25,.36,.58,.39,.89,.06,.89,1.57,2.92,2.17,4.26,3.17-1.99,.73-5.13,.31-6.51,1.65-.83-.51-.76-1.71-1.12-2.58-.32-.78-.85-1.45-1.46-1.98-.3-.26-.68-.47-.96-.79-.3-.36-.32-1.03-.79-1.22-.1,.09-.15,.23-.26,.3-.07,2.1,.41,4.15,1.12,5.65,.24,.52,.51,1.15,.86,1.46,.17,.15,.42,.18,.59,.33,.19,.15,.29,.41,.46,.59,.53,.58,1.26,.89,2.22,1.03,.27,.48,.75,.26,1.29,.17,.32-.06,.65-.13,.93-.2,1.77-.47,2.93-1.7,4.39-2.25,.46-.17,1.03-.31,1.29-.63,.24-.3,.28-.86,.4-1.19,.12-.34,.27-.71,.36-.96,.27-.16,.6-.29,.63-.63,.03-.35-.33-.66-.53-.89-1.12-1.32-3.35-2.01-4.49-3.11,.04,0,.04,.03,.07,.04,.29,.01,.59,.38,.86,.36,.19-.01,.16-.14,.36-.2,.78,.38,1.71,.66,2.61,1.09,.97,.47,2.46,1.1,3.63,.83-.3,1.25-.87,2.23-1.39,3.24-.32,.62-.71,1.18-.96,1.75-.19,.44-.56,1.21-.23,1.52-.41,.11-.71,.12-1.09,.33-.36,.19-.64,.71-.93,.79-.19,.05-.55-.02-.76,0-1.28,.1-2.36,.71-3.5,1.19-1.19,.5-2.42,.88-3.9,.79-.89-.05-1.64-.45-2.41-.17-.04,.12,.03,.2-.1,.26,.37,.33,.86,.55,1.35,.76,.48,.2,1.04,.44,1.55,.59,.7,.21,1.5,.23,2.28,.33,1.7,.23,3.31,.2,4.76-.17,.7-.17,1.35-.52,2.02-.62,.37-.06,.64-.07,.93-.17,.82-.28,1.49-.68,1.95-1.32,.11,.32,.69,.45,1.06,.3,.5-.2,1.05-1.22,1.22-1.82,.88-.22,1.77-.56,2.54-.99,1.17-.65,2.3-1.28,2.68-2.68,.23-.04,.39-.16,.63-.2,.47-.57,.83-1.26,1.16-1.98,.02-.18-.02-.31-.03-.46,.26-.02,.35-.1,.56-.1,.3-.34,.34-1.09,.33-1.62-.01-1.04-.29-2.17-.63-3.11-.49-1.38-1.01-2.74-1.49-4.1-.16-.47-.25-.94-.5-1.39-.19-.36-.43-.77-.69-1.19-.24-.38-.52-.96-.86-1.02-.26-.05-.36,.18-.59,.2-.28,.02-.58-.28-.83-.46-.51-.35-.85-.63-1.56-.7,.39-.32,.68-.73,.99-1.12,.17-.08,.45-.07,.69-.2,.09-.05,.24-.26,.3-.26,.07,0,.48,.37,.56,.46,.24,.31,.36,.69,.63,.99,.64,.72,1.63,1.28,2.54,1.82,.46,.27,.99,.48,1.39,.79,.62,.48,1.11,1.02,1.72,1.42,.17,.7,.47,1.27,1.19,1.42-.18,.3-.19,1.05-.03,1.39-.28,.4-.65,.72-.69,1.29-.02,.21,.06,.42,.06,.63,.01,.42-.14,.87-.16,1.29-.13,1.88,.04,3.64-.3,5.19-.21,.95-.57,1.81-.96,2.55-.15,.27-.22,.58-.37,.83-.13,.22-.4,.34-.36,.66,.13,.16,.39,.02,.53,.13,1.34-.54,2.39-1.55,3.11-2.74,.56-.93,1.2-1.83,1.45-2.94,.1-.41,.07-.83,.13-1.35,.13-1.15,.52-2.17,.66-3.37-.12-.08-.06-.55-.2-.73,.26-.38,.39-.81,.43-1.25,.14-1.45-.03-3.02-.4-3.94-.09-.23-.31-.43-.36-.66Zm-49.47,.46c.17-.05,.39-.05,.53-.13,.24,.35,.54,.65,.83,.96-.44-.16-.87-.61-1.36-.83Zm27.89-2.84c-.02-.12-.07-.32,0-.43,.41,.01,.69-.11,.96-.23-.18,.23-.62,.48-.96,.66Zm2.34,2.71c.16,.05,.29,.13,.53,.1-.44,.3-.89,.58-1.32,.89,.15-.32,.58-.63,.79-.99Zm8.86,9.02c-.04,.62-.2,1.32,.46,1.45-.34,.54-.81,.95-.96,1.68-.43,.48-.91,.92-1.45,1.29,.32-.79,.47-2.41,.79-3.4,.07-.23,.24-.57,.2-.96-.04-.34-.2-.6-.33-.89,.06-.28,.24-.52,.2-.79-.1-.6-1.24-.66-1.45-1.19,.01-1.22-1.17-1.34-2.68-1.42-.76-.04-1.43,.09-2.11,.03-.58-.05-1.13-.23-1.65-.3-.58-.08-1.1-.22-1.55-.36,1-.35,2.27,.06,3.27-.07,.11-.24-.1-.37-.13-.56,.4,.11,.84,.17,1.39,.13,2.4-.15,3.49-1.69,5.35-2.45-.12,2.68,.85,5.15,.66,7.8Zm-46.76-7.8c1.99,.75,3.15,2.65,6.05,2.45,.23-.02,.41-.08,.69-.13-.03,.18-.25,.32-.13,.53,.61,.21,1.38-.07,2.11-.06,.41,0,.78,.13,1.16,.13-.46,.2-1.09,.35-1.75,.43-.61,.08-1.26,.25-1.92,.27-1.75,.04-4.37-.32-4.33,1.35-.36,.68-2.05,.78-1.26,1.98-.17,.47-.47,.85-.3,1.55,.03,.12,.13,.2,.17,.33,.33,1.04,.43,2.45,.79,3.37-.59-.32-1.01-.79-1.45-1.26-.17-.73-.6-1.18-.99-1.68,.12-.13,.35-.13,.43-.3-.15-3.25,.76-5.72,.73-8.96Z"/>
  </g>
</svg>