<?xml version="1.0" encoding="UTF-8"?>
<svg id="Layer_2" data-name="Layer 2" xmlns="http://www.w3.org/2000/svg" viewBox="0 0 117.12 46.75">
  <defs>
    <style>
      .cls-1 {
        fill: #808080;
      }
    </style>
  </defs>
  <g id="Layer_1-2" data-name="Layer 1">
    <path class="cls-1" d="M105.79,21.79c2.97,.66,5.35,1.38,7.15,2.17,1.63,.71,1.55,1.04-.23,.99-2.2-.07-4.01-.86-6.06-1.56-.37-.22-.77-.27-1.2-.13-.19,.06-.29-.01-.3-.21-.05-.81,.16-1.23,.63-1.26Zm-13.55,1.36c0,.08,.02,.15,.07,.22,.11,.16,.33,.19,.48,.08,.5-.38,.54-.78,.14-1.2-.44,.15-.67,.45-.69,.91ZM47.17,2.46l.12-2.19c0-.06-.01-.11-.04-.16-.08-.11-.23-.14-.34-.06-4.5,2.92-8.48,6.7-12.34,10.3-.16,.15-.13,.22,.09,.21,9.83-.48,19.6,.24,29.3,2.14,3.45,.68,6.89,1.38,10.33,2.1,.47,.1,1.11,.09,1.91-.02,.21-.03,.32-.15,.32-.36,0-.37-.21-.62-.64-.77-1.3-.45-2.62-.88-3.96-1.29-.19-.06-.29-.18-.3-.37-.02-.34-.11-.65-.27-.93-.09-.16-.22-.27-.41-.31l-3.77-.86c-.21-.04-.3-.17-.28-.38l.08-.92c.03-.29-.1-.43-.4-.41l-2.18,.14c-.34,.02-.66-.18-.78-.5-.28-.69-.78-1.04-1.51-1.07-.93-.04-1.86-.15-2.79-.32-.32-.06-.4-.23-.25-.51,.24-.45,.15-.77-.28-.96-.24-.11-.54-.16-.89-.14-1.28,.04-2.55-.08-3.82-.34-.19-.04-.32-.15-.38-.34l-.27-.84c-.07-.23-.22-.32-.45-.27-1.87,.36-3.71,.3-5.52-.17-.2-.06-.3-.19-.29-.4ZM112.32,25.33c.67,.18,1.35,.23,2.03,.14,.4-.05,.61-.19,.63-.42,.02-.27-.16-.5-.43-.54-1.9-.3-3.56-.5-4.96-.62-.08,0-.11-.05-.1-.13h0c0-.09,.05-.12,.13-.11,2.74,.41,5.02-.01,7.25-1.41,.38-.24,.35-.36-.1-.37-3.31-.08-6.96,.02-10.95,.28h0s-.06-.02-.06-.04c0-.03,.02-.06,.04-.06,3.05-.68,6.3-1.13,9.74-1.36,.18,0,.33-.16,.32-.35,0-.34-.16-.59-.46-.75-.51-.29-.96-.43-1.35-.44-2.69,0-5.33-.02-7.94-.04-.04,0-.05,.02-.03,.05,.03,.04,.03,0,0-.11,0,0,0,0,0,0,0-.02,.01-.04,.03-.04,2.17-.29,4.59-.51,7.26-.68,.4-.02,.83-.27,1.28-.74,.08-.08,.12-.18,.14-.3,.06-.45-.15-.67-.6-.65-2.5,.11-4.63,.37-6.37,.77-.06,.01-.1-.01-.12-.08h0c-.02-.08,0-.13,.08-.16,2.3-.71,5.42-1.42,6.99-3.37,.29-.36,.21-.5-.25-.42-3.34,.55-6.61,1.63-9.8,3.23-.03,.02-.05,0-.07-.02l-.06-.14s0-.06,.03-.08c3-1.48,5.97-2.75,8.92-3.81,.41-.15,.83-.41,1.27-.77,.23-.2,.31-.39,.23-.58-.08-.2-.22-.28-.43-.23-2.83,.59-5.53,1.55-8.09,2.89-.05,.02-.08,.01-.11-.03h0c-.03-.06-.02-.1,.04-.13,2.19-1.26,4.57-2.56,7.14-3.9,1.09-.57,2-1.23,2.71-1.96,.37-.38,.29-.58-.24-.59-3.16-.06-6.08,.85-8.76,2.71-3.42,2.38-6.86,4.73-10.31,7.05-2.93,1.97-6.17,2.77-9.73,2.39-2.69-.28-6.24-1.57-9.23-2.42-2.46-.7-4.78-1.23-6.98-1.59-3.66-.6-7.29-1.15-10.91-1.65-8.63-1.19-17.12-1.54-25.48-1.07-2.77,.16-5.42,.44-7.94,.85-.55,.09-.59,.29-.13,.59,2.38,1.56,3.69,3.68,5.48,5.92,.53,.67,.86,1.37,.98,2.09,.53,3.34-.06,6.39-1.78,9.16-1.02,1.65-2.8,3.18-4.27,4.62-.05,.05-.08,.11-.08,.18,0,.14,.11,.26,.25,.26,2.79,.06,5.48,.12,8.06,.16,2.89,.04,5.56-.07,8.03-.33,4.23-.45,8.43-.98,12.61-1.57,5.32-.75,9.88-1.67,13.69-2.74,4.94-1.38,9.64-2.52,14.1-3.41,3.35-.66,7.91-.97,11.12-.19,1.88,.45,3.76,1.34,5.63,2.67,2.85,2.02,5.64,3.95,8.36,5.77,2.1,1.41,4.53,2.04,7.28,1.89,.09,0,.18-.04,.26-.1,.44-.38,.4-.63-.14-.78-.51-.14-.91-.41-1.21-.82-.12-.16-.26-.29-.43-.4-.95-.58-1.71-1.36-2.66-1.85-1.33-.68-2.63-1.41-3.9-2.2-.07-.04-.09-.1-.04-.17h0c.04-.08,.1-.09,.17-.04,1.97,1.31,4.13,1.89,6.49,1.73,.21-.02,.33-.13,.34-.34,0-.12-.01-.23-.05-.34-.07-.18-.22-.31-.45-.4-.81-.29-1.71-.27-2.43-.48-1.43-.42-2.82-.95-4.16-1.59-.06-.03-.08-.08-.05-.14h0c.03-.07,.07-.09,.14-.06,1.24,.49,2.51,.88,3.82,1.18,.88,.2,1.38,.29,1.5,.25,1.64-.57,1.6-.98-.12-1.22-1.78-.25-3.58-.81-5.4-1.66-.61-.29-.59-.35,.06-.17,1.86,.5,4.14,1.36,6.14,1.13,.1-.01,.2-.06,.28-.13,.19-.18,.19-.48,0-.67-.27-.26-.56-.44-.87-.53-1.98-.56-3.88-1.3-5.72-2.23-.16-.08-.34-.14-.52-.18-1.01-.2-1.15-.33-.44-.38-.37-.22-.77-.27-1.2-.13-.19,.06-.29-.01-.3-.21-.05-.81,.16-1.23,.63-1.26,2.27,.1,4.44,.42,6.53,.96Zm.18-16.59c.32-.09,.63-.14,.95-.16,.31,0,.32,.04,.02,.13-.57,.19-1.09,.24-1.56,.16-.41-.07-.41-.12,0-.15,.08,0,.15,0,.23,.02,.12,.03,.25,.03,.37,0ZM44.24,15.66c-.43-.27-.72-.65-.86-1.13-.06-.2,0-.35,.2-.43,.8-.37,1.58-.34,2.33,.1,.18,.1,.28,.25,.32,.45,.14,.68-.01,1.16-.44,1.42-.32,.19-.29,.34,.07,.43l.29,.07c.16,.04,.26,.14,.29,.31l.16,1.02c.03,.18-.03,.34-.16,.46l-.66,.58c-.17,.15-.31,.12-.41-.08-.18-.38-.1-.73,.25-1.04,.15-.13,.16-.28,.03-.43-.14-.17-.32-.25-.53-.24-.25,0-.38,.13-.38,.38v1.95c0,.21-.07,.23-.2,.07-.22-.28-.43-.55-.64-.83-.11-.15-.28-.22-.5-.21-.26,.01-.3-.08-.13-.27l.48-.53c.1-.11,.13-.24,.1-.38-.02-.09-.06-.17-.12-.23-.02-.02-.03-.04-.04-.07-.06-.13,0-.28,.13-.34,.28-.12,.46-.29,.57-.53,.09-.21,.04-.37-.15-.49Zm-5.82,1.04c.18,.08,.29,.21,.35,.39,.33,.97,.84,1.82,1.54,2.57,.09,.1,.14,.19,.14,.27,0,.11-.03,.22-.09,.32-.02,.03-.05,.05-.09,.07-.09,.04-.2-.01-.23-.1-.27-.73-.71-1.44-1.32-2.12-.16-.18-.26-.15-.29,.09-.05,.4-.19,.75-.43,1.05-.15,.19-.25,.16-.3-.07-.15-.7-.07-1.33,.23-1.89,.07-.13,.02-.29-.1-.37l-1.55-.97c-.15-.1-.23-.28-.18-.45,.08-.31,.27-.53,.56-.66,0,0,0,0,0,0,.15-.07,.22-.25,.15-.4-.08-.17-.04-.32,.1-.46,.1-.1,.25-.13,.38-.08l1.26,.49c.17,.07,.24,.19,.22,.37-.06,.41-.31,.73-.74,.96-.13,.48,0,.81,.38,.98Zm15.01-.24c.84,.17,1.07,.64,.68,1.39-.17,.34-.32,.68-.44,1.04-.1,.29-.21,.29-.31,0-.02-.08-.05-.16-.07-.25-.03-.14-.12-.21-.26-.21-.42,0-.75,.2-.99,.59-.03,.04-.06,.07-.11,.08-.11,.03-.22-.02-.26-.13-.21-.63-.53-1.22-.95-1.75-.15-.19-.11-.32,.12-.39l.55-.18c.25-.08,.33-.25,.26-.5l-.19-.6c-.06-.19-.01-.34,.15-.46,.38-.27,.65-.56,.84-.86,.08-.13,.2-.24,.34-.31,.41-.2,.9-.02,1.09,.39,.3,.62,.11,1.12-.56,1.5-.57,.31-.54,.53,.1,.66Zm5.7-.04c.32,.47,.77,.74,1.33,.8,.2,.02,.34,.13,.41,.32,.08,.24,.06,.48-.06,.72-.09,.18-.23,.23-.42,.16l-1.46-.58c-.18-.08-.33-.19-.45-.35-.2-.26-.46-.42-.81-.48-.05-.01-.1-.04-.14-.08-.08-.11-.1-.22-.04-.34,.08-.16,.17-.16,.26-.02l.15,.22c.13,.2,.29,.22,.48,.07,.44-.35,.68-.83,.72-1.42,0-.11,.04-.22,.1-.31,.2-.34,.65-.46,.99-.26l1,.6c.32,.19,.43,.46,.36,.82l-.11,.52c-.01,.05-.03,.1-.07,.14-.11,.12-.3,.13-.42,.02-.44-.42-.99-.69-1.63-.81-.29-.06-.35,.04-.19,.28Zm-22.36,2.41c-.2,.09-.38,.04-.54-.16-.12-.17-.19-.35-.2-.54-.03-.48-.2-.93-.5-1.35-.02-.02-.03-.05-.03-.08,0-.09,.06-.16,.14-.17,.41-.04,.83,.07,1.27,.33,.2,.12,.31,.29,.34,.51,.04,.26-.04,.65-.23,1.19-.04,.12-.13,.22-.25,.28Zm30.07-1.38c-.19,.06-.38,.09-.56,.1-.29,.02-.4-.11-.34-.4,.1-.42,.36-.61,.8-.59,.54,.04,1.1,.17,1.68,.39,.11,.04,.19,.11,.24,.22,.08,.15,.03,.24-.13,.26-.34,.06-.55,.27-.63,.63-.06,.28-.23,.38-.5,.29-.37-.12-.49-.34-.35-.67,.1-.23,.02-.31-.22-.24Zm-4.29,.89c.28,.04,.52,.13,.73,.28,.24,.17,.22,.22-.07,.14l-1.3-.36s-.09-.05-.11-.1c-.02-.04-.03-.09-.04-.14,0-.14,.05-.18,.17-.1,.06,.04,.11,.08,.17,.11,.13,.09,.28,.14,.44,.17Zm-4.18,.95c-.1-.03-.15-.14-.11-.23,.08-.24,.26-.41,.53-.51,.32-.12,.44-.02,.35,.31-.08,.34-.33,.49-.74,.44-.01,0-.02,0-.04,0Zm11.89,1.67c-.08-.09-.11-.2-.11-.32,0-.07,.03-.13,.08-.19l.5-.45c.14-.13,.22-.29,.25-.47,.06-.4,.27-.68,.63-.84,.42-.18,.73-.09,.95,.28,.1,.18,.12,.36,.07,.55-.14,.53-.05,1.01,.28,1.44,.12,.16,.14,.33,.07,.51-.32,.83-.91,1.5-1.77,1.99-.16,.1-.25,.05-.26-.14l-.03-.38c-.02-.26-.15-.44-.38-.55-.56-.26-.65-.59-.26-1.02,.11-.12,.12-.31,0-.43Zm-20.56-2.17c.32-.07,.61-.05,.86,.06,.14,.06,.13,.1-.02,.12-.25,.02-.53,.01-.83-.04-.24-.04-.25-.09,0-.14Zm-9.03,2.9c.59-.98,.68-1.8,.28-2.45-.1-.16-.05-.26,.13-.29,.06,0,.12,0,.17,.04,.04,.02,.07,.07,.09,.13,.2,.55,.56,.95,1.07,1.2,.18,.08,.27,.22,.29,.41,.06,.51,.21,.99,.45,1.44,.11,.2,.09,.39-.05,.56l-1.22,1.54c-.19,.23-.52,.28-.77,.11-.53-.37-.92-.9-1.17-1.59-.07-.19-.21-.3-.41-.32-.19-.02-.36,.04-.5,.2-.11,.11-.16,.09-.17-.07v-.16c0-.06,.03-.09,.08-.09,.51-.07,1.01-.21,1.47-.44,.1-.05,.18-.12,.23-.22Zm2.06-2.24c-.06-.1-.05-.2,.02-.29,.04-.05,.08-.08,.14-.11,.08-.04,.13-.02,.17,.05,.16,.29,.19,.56,.08,.81,0,.02-.02,.03-.03,.04-.03,.02-.07,0-.09-.02l-.3-.48Zm21.76,.33l.22-.36c.12-.21,.23-.2,.32,.03,.28,.71,.78,1.3,.68,2.04-.08,.52-.26,.99-.55,1.42-.11,.16-.26,.23-.45,.2-.43-.07-.67,.13-.74,.6-.01,.08-.06,.13-.14,.13-.06,0-.12-.02-.17-.07-.03-.03-.05-.07-.07-.12-.15-.62-.49-1.04-1.03-1.26-.23-.1-.24-.22-.04-.36l.57-.4c.27-.19,.27-.38,0-.57-.31-.22-.49-.44-.54-.64-.05-.2,.02-.34,.21-.42,.34-.16,.6-.38,.78-.67,.1-.17,.21-.17,.32-.01,.08,.12,.17,.28,.27,.47,.11,.22,.23,.22,.36,.01Zm-29.85,1.13l.84,2.03c.18,.43,.03,.63-.43,.6-.16,0-.27-.01-.34-.02-.49-.03-.92-.35-1.1-.81-.29-.74-.35-1.53-.19-2.37,.03-.14,.15-.24,.29-.23,.33,.01,.55-.14,.65-.45,.03-.09,.1-.13,.2-.12l.37,.06s0,0,0,0c.09,.02,.15,.11,.13,.21-.05,.26-.16,.47-.34,.63-.14,.13-.18,.29-.1,.47Zm43.37,1.84c-.26-.22-.47-.47-.63-.74-.1-.19-.1-.43,.02-.62,.28-.45,.44-.94,.48-1.45,.04-.45,.28-.6,.71-.43l.72,.28c.4,.16,.58,.45,.54,.87-.09,1.11-.61,2.01-1.55,2.69-.32,.23-.41,.16-.25-.2,.03-.06,.04-.13,.05-.2,0-.07-.03-.15-.09-.2Zm-29.74-1.27c.14-.14,.19-.3,.16-.49-.16-.85,.29-1.19,1.32-.99,.62,.12,1.04,.69,.96,1.32-.06,.48-.01,.94,.14,1.38,.08,.22,0,.33-.24,.33h-.29c-.15,0-.26,.07-.31,.21l-.1,.25c-.04,.1-.11,.19-.21,.25-.57,.36-1,.26-1.27-.31-.59,.13-1.02,.41-1.26,.86-.1,.17-.24,.25-.43,.25-.18,0-.35,.02-.53,.06-.16,.04-.16,.07,0,.11l.67,.17,.47,1.38c.03,.08,.03,.17,0,.25-.07,.18-.28,.27-.46,.19-.43-.17-.82-.22-1.19-.16-.03,0-.06,0-.09,0-.33,.01-.61-.25-.62-.58l-.09-2.17c-.17-.28-.19-.52-.07-.73-.13-.11-.26-.13-.4-.07-.03,.02-.12,.11-.25,.27-.12,.15-.29,.19-.5,.12-.27-.09-.27-.19-.01-.3l1.68-.72c.08-.04,.13-.01,.14,.08,0,.07,.03,.13,.07,.17,.3,.14,.56,.18,.77,.13,.1-.42,.34-.6,.7-.56,.09,.02,.15,.07,.17,.16,.01,.05,.01,.1,0,.17,.04,.02,.08-.02,.12-.14,.03-.08,.07-.13,.11-.14,.1-.04,.22,.02,.38,.17,.02-.35,.17-.67,.45-.95Zm9.62,1.59l-1.33,.92c-.08,.05-.16,.08-.26,.09-.28,.02-.52-.2-.54-.48-.03-.42-.19-.76-.5-1.01-.25-.21-.26-.42-.01-.63l.62-.56c.18-.16,.24-.43,.14-.65-.11-.25-.11-.48,0-.71,.12-.26,.28-.29,.48-.1,.38,.35,.7,.36,.96,.05,.16-.18,.25-.16,.29,.08l.38,2.44c.04,.22-.06,.44-.24,.56Zm26.94-.67c.08,.34,.09,.7,.05,1.07-.03,.28-.13,.31-.3,.08-.41-.56-.6-1.08-.57-1.54,.04-.66,.4-.91,1.07-.73,.25,.07,.33,.22,.23,.46-.04,.12-.13,.2-.25,.24-.17,.06-.27,.25-.23,.42Zm-32.81-.15l-.18,.07c-.19,.07-.23,.02-.11-.14,.27-.38,.66-.51,1.19-.38,.48,.12,.87,.16,1.15,.13,0,0,.01,0,.02,0,.08,0,.14,.07,.14,.15v.2c-.02,.08-.06,.11-.13,.1l-1.65-.17c-.14-.02-.28,0-.42,.05Zm7.99,.12c-.09-.06-.11-.17-.05-.26,.24-.37,.59-.48,1.04-.34,.02,0,.05,.02,.07,.03,.15,.09,.2,.29,.11,.44-.24,.4-.62,.45-1.16,.14,0,0,0,0-.01,0Zm32.54,.81c.15-.26,.35-.39,.62-.41,.26-.02,.38,.11,.34,.37-.05,.38-.28,.57-.67,.55-.37-.02-.46-.19-.28-.51Zm-41.55,1.21c.14,.16,.18,.36,.1,.58-.12,.35-.2,.34-.23-.03-.05-.58,0-1.13,.14-1.65,0-.02,0-.02,.01,0,.04,.18,.01,.35-.08,.53-.11,.2-.09,.39,.06,.57Zm16.65-.36l-.17-.02c-.14-.02-.21-.1-.19-.24,.04-.23,.15-.38,.33-.44,.21-.08,.36-.02,.47,.18,.17,.31,.19,.62,.05,.95-.11,.27-.03,.43,.26,.49l.45,.1c.2,.05,.34,.17,.42,.37,.39,1.03,.08,1.86-.95,2.47-.56,.33-1.28,.19-1.66-.34-.4-.55-.3-.98,.32-1.3,.18-.09,.24-.24,.2-.43-.1-.42-.23-.67-.63-.92-.47-.29-.65-.74-.55-1.35,.01-.1,.07-.14,.16-.12h.01c.15,.03,.2,.13,.16,.3-.1,.38,0,.71,.28,.98,.53,.51,.96,.42,1.27-.28,.1-.23,.03-.36-.22-.38Zm19.2-.41l.12-.22s0,0,0,0c.14-.25,.45-.35,.7-.21,.8,.43,1.17,.94,1.11,1.52-.02,.19,0,.38,.06,.56l.26,.82c.06,.21,0,.37-.18,.48-.65,.4-1.36,.59-2.14,.57-.3,0-.31-.08-.05-.22,.91-.48,1.06-1.13,.45-1.96-.16-.22-.11-.33,.16-.34l.57-.02c.16,0,.29-.11,.34-.26l.05-.16c.04-.13-.03-.27-.16-.31-.47-.16-.87-.06-1.2,.31-.11,.12-.24,.19-.4,.22-.09,.02-.18,.01-.28-.02-.22-.06-.25-.17-.08-.33,.14-.13,.31-.23,.5-.29,.08-.02,.13-.07,.17-.14Zm-28.17,.38c-.1,0-.17-.08-.18-.17v-.3c0-.07,.04-.11,.11-.11,.08,0,.15,0,.22,.05,.14,.08,.16,.19,.07,.33l-.08,.13s-.09,.08-.14,.08Zm16.31,2.99c.22-.12,.39-.28,.53-.49,.13-.2,.3-.24,.51-.14l.14,.07c.12,.06,.17,.2,.13,.32-.28,.71-.78,1.12-1.52,1.23-.21,.03-.4-.03-.55-.17l-.75-.74c-.05-.05-.08-.12-.07-.19,.02-.12,.13-.21,.25-.19,.5,.05,.75-.15,.75-.6,0-.21-.08-.38-.24-.51-.37-.31-.74-.6-1.11-.88-.07-.06-.08-.12-.01-.18h0s0,0,0,0c.16-.14,.27-.09,.32,.14,.02,.08,.06,.16,.11,.23,.19,.23,.52,.26,.75,.07,.29-.25,.58-.41,.87-.48,.16-.04,.25-.15,.26-.32,0-.06,0-.12-.02-.17-.06-.23-.2-.31-.43-.23-.11,.03-.2,.09-.29,.16-.11,.1-.2,.08-.26-.05-.03-.06-.03-.13-.01-.2,.05-.17,.16-.26,.33-.26,.87-.06,1.34,.48,1.41,1.6,.02,.36-.24,.68-.6,.71-.55,.05-.81,.42-.8,1.11,0,.22,.1,.28,.3,.17Zm8.31-.63c.18,.08,.34,.18,.48,.31,.18,.16,.16,.28-.06,.38-1.13,.5-2.2,.43-3.22-.2-.19-.12-.17-.21,.05-.26,.07-.02,.14-.05,.19-.1,.08-.07,.12-.16,.13-.28,.06-.93,.27-1.69,.63-2.29,.51-.84,.81-.77,.9,.21,.04,.49,.22,1.11,.52,1.84,.07,.18,.2,.31,.38,.39Zm-29.97-2.17c-.14,.07-.22,.03-.22-.13v-.25c0-.15,.08-.23,.23-.23h.41c.15,0,.18,.06,.09,.18-.15,.19-.32,.34-.51,.43Zm1.53,.1c-.11-.24-.27-.44-.48-.62-.02-.03-.03-.06-.01-.1,.02-.04,.07-.06,.1-.03,.3,.2,.5,.48,.59,.85,.01,.04,0,.09-.02,.13-.13,.18-.18,.18-.15,0,.02-.08,0-.16-.03-.23Zm5.97,.37l.12-.11c.07-.07,.15-.08,.24-.04,.43,.2,.73,.52,.88,.97,.06,.2,.02,.37-.12,.52-.24,.25-.53,.35-.87,.29-.19-.03-.31-.14-.37-.31l-.06-.18c-.06-.15-.15-.18-.27-.07-.32,.27-.45,.59-.4,.96,.03,.2,.13,.25,.31,.16,.34-.17,.66-.21,.97-.1,.23,.08,.27,.22,.13,.41l-.84,1.08c-.07,.09-.16,.14-.27,.17-.24,.05-.48-.11-.52-.36-.24-1.21-.94-1.64-2.11-1.3-.03,0-.06,0-.09,0-.12-.02-.2-.13-.18-.24,.02-.16,.08-.3,.17-.4,.15-.19,.24-.17,.25,.08,0,.07,.03,.14,.07,.19,.06,.09,.14,.13,.25,.13,.61,.01,.94-.25,.99-.78,.02-.2,.09-.37,.21-.53,.35-.44,.59-.9,.72-1.38,.06-.2,.13-.2,.21,0l.31,.78c.06,.16,.16,.18,.28,.06Zm-23.24,1.98c.18-.09,.25-.31,.16-.49-.29-.59-.41-1.1-.36-1.53,.05-.44,.14-.45,.27-.02,.24,.78,.71,1.36,1.42,1.73,.17,.09,.27,.23,.29,.42,.05,.38,.13,.61,.26,.71,.13,.09,.14,.2,.04,.32l-1.69,2.08s0,.01-.01,.02c-.1,.1-.26,.11-.36,.01-.61-.57-1.03-1.23-1.27-1.99-.05-.16-.03-.31,.05-.46,.26-.44,.62-.7,1.1-.77,.04,0,.07-.02,.11-.03Zm2.09-1.78c.04,.2,.02,.39-.04,.56-.08,.23-.19,.25-.34,.06-.16-.2-.24-.46-.26-.79,0,0,0-.01,0-.02,0-.2,.16-.37,.37-.37,.31,0,.42,.09,.32,.26-.05,.09-.07,.19-.05,.3Zm54.74,.25c.11,.16,.09,.3-.05,.43-.08,.07-.15,.15-.2,.25-.11,.21-.06,.35,.17,.43l.23,.08c.12,.04,.22,.03,.32-.04l2.24-1.59c.26-.18,.51-.18,.76,.01,.8,.61,.87,1.37,.2,2.28-.42,.57-.9,.69-1.45,.37-.09-.06-.17-.14-.21-.24-.11-.26,0-.56,.27-.68,.15-.06,.34-.08,.57-.05,.2,.02,.34-.06,.42-.24,.08-.18,.08-.38,0-.59,0-.02-.01-.03-.02-.05-.1-.2-.35-.27-.54-.17l-2.94,1.53c-.18,.1-.38,.13-.58,.11-.42-.05-.8-.19-1.14-.42-.14-.1-.26-.08-.37,.04-.08,.08-.17,.11-.28,.08-.19-.04-.24-.15-.15-.32,.27-.52,.52-1.04,.75-1.56,.08-.17,.22-.27,.44-.31,.14-.03,.25,.02,.32,.16,.05,.1,.13,.17,.24,.2,.4-.18,.73-.07,.99,.31Zm-48.99,2.44c.26-.31,.56-.44,.92-.4,.28,.03,.37,.18,.26,.44-.23,.59-.6,1.07-1.11,1.42-.17,.12-.35,.13-.54,.04-.41-.19-.69-.49-.84-.92-.06-.18-.04-.36,.07-.51l.19-.28c.12-.18,.1-.33-.08-.45-.66-.47-1.11-1.11-1.36-1.92,0,0-.05-.07-.14-.19-.02-.02-.03-.05-.02-.08,.01-.07,.04-.07,.07,0,.41,.73,1.01,1.28,1.77,1.63,.18,.08,.25,.21,.23,.4-.03,.26,0,.51,.08,.74,.12,.31,.29,.34,.5,.08Zm7.11-.07c.4-.2,.89-.26,1.46-.16,.05,0,.09,.03,.13,.06,.12,.1,.14,.28,.04,.4-.38,.47-.8,.85-1.28,1.11-.74,.42-1.21,.21-1.41-.62-.21-.89-.66-1.26-1.36-1.11-.26,.06-.3,0-.11-.2l.23-.23c.13-.13,.28-.15,.43-.04,.1,.07,.22,.11,.34,.12,.2,.02,.35-.06,.46-.23l1.02-1.63c.13-.2,.29-.23,.48-.1,.43,.3,.85,.62,1.27,.97,.32,.26,.38,.54,.18,.86-.1,.17-.25,.22-.43,.15-.4-.15-.79-.24-1.19-.27-.28-.02-.48,.05-.6,.2-.1,.12-.14,.28-.13,.45,.02,.33,.18,.42,.47,.27Zm26.8-2.43c.22,.29,.34,.61,.37,.95,.02,.2-.03,.22-.14,.05-.27-.39-.35-.81-.25-1.26,0-.01,0-.02-.01-.01h0v.17s.01,.07,.04,.1Zm-7.93,1.69c-.06-.04-.11-.1-.14-.16-.1-.19-.06-.34,.13-.44l.2-.11c.17-.1,.25-.05,.25,.15,0,.18-.07,.35-.19,.52-.06,.09-.14,.1-.24,.04Zm-7.84-.2c.13,.08,.21,.18,.24,.32,.03,.16-.02,.2-.16,.1-.22-.16-.43-.31-.64-.47-.48-.37-.42-.49,.17-.36,.03,0,.07,.06,.12,.14,.06,.12,.16,.21,.28,.27Zm-14.78,.92s.04,.01,.06,.01c.05,0,.08,.03,.08,.07,0,.06,0,.11-.01,.17-.02,.08-.07,.12-.15,.14l-1.29,.32c-.2,.05-.26-.02-.19-.22,.18-.45,.5-.75,.98-.91,.13-.04,.24,0,.33,.1,.03,.04,.05,.08,.07,.13,.04,.1,.08,.15,.13,.17Zm7.24,.66c-.36-.18-.61-.46-.76-.83-.12-.29-.06-.34,.19-.14,.31,.24,.55,.51,.72,.82,.12,.22,.07,.27-.15,.16Zm21.01-.62c-.03-.15,0-.28,.07-.4,.02-.04,.05-.06,.09-.08,.1-.04,.21,0,.25,.11,.05,.14,.07,.28,.06,.44-.01,.14-.1,.27-.23,.32-.13,.06-.24,.04-.32-.05-.04-.04-.04-.08,0-.12,.03-.04,.06-.08,.08-.13,0-.02,0-.05,0-.09Zm-6.79,.45c.05,.09,.08,.19,.08,.28,0,.08-.04,.14-.11,.18-.16,.08-.32,.12-.5,.12-.22,.01-.32-.09-.29-.31,.05-.38,.23-.72,.54-1.02,.13-.13,.2-.1,.2,.08v.37c0,.11,.03,.21,.08,.29Zm-29.12-.08c.08-.08,.17-.14,.28-.19,.13-.06,.19-.02,.2,.12,0,.27-.12,.53-.36,.77-.11,.11-.28,.12-.4,.03-.32-.24-.3-.43,.06-.58,.09-.04,.16-.09,.23-.15Zm21.02,.81c-.31-.26-.39-.53-.25-.82,.14-.27,.27-.27,.4,0,.09,.2,.15,.4,.19,.61,.07,.38-.05,.45-.34,.2Zm-6.93,.2c.21,.21,.29,.42,.23,.63-.06,.24-.18,.27-.36,.1-.36-.36-.46-.78-.29-1.26,.14-.38,.23-.39,.28-.03,0,.06,0,.13,0,.22-.01,.14,.03,.26,.14,.35Zm3.18-.6c.12-.06,.25-.09,.39-.08,.2,.02,.23,.09,.09,.23l-.43,.42c-.18,.18-.35,.18-.53,0l-.14-.14c-.18-.18-.14-.3,.11-.36,.07-.01,.14-.02,.22-.01,.11,0,.21-.01,.3-.07Zm6.12,1.16c.04-.08,.08-.17,.13-.26,.08-.16,.21-.22,.39-.16,.5,.16,.76,.52,.76,1.08,.01,1.34-.7,2.16-2.15,2.48-.27,.06-.38-.04-.33-.32,.13-.66-.07-1.22-.59-1.68-.02-.02-.04-.04-.06-.07-.07-.13-.03-.29,.1-.37,.67-.39,.88-.98,.63-1.77-.04-.13,0-.2,.14-.2,.08,0,.14,.01,.2,.04,.05,.02,.08,.07,.08,.13,0,.44,.13,.82,.37,1.13,.13,.17,.24,.16,.33-.04Zm9.01,.57s.05,.03,.01,.05c-.96,.61-2.07,.95-3.32,1.02-.26,.02-.32-.08-.18-.3,.51-.81,1.07-1.44,1.68-1.87,0,0,0,0,0,0,.2-.15,.49-.1,.63,.11,.25,.36,.59,.67,1.02,.94,.04,.03,.09,.05,.14,.06Zm-32.41-.11c.02,.12-.02,.16-.13,.14-.11-.02-.19-.12-.19-.24,.02-.35,.13-.57,.33-.65,.31-.13,.39-.04,.24,.26-.05,.1-.11,.19-.19,.27-.06,.06-.08,.14-.06,.22Zm9.37,2.27c-.03,.65-.3,1.2-.8,1.63-.15,.13-.32,.17-.51,.11-.86-.27-1.2-.75-1.04-1.43,.03-.13-.04-.27-.16-.32-.15-.06-.21-.18-.19-.34,.02-.12,.07-.22,.14-.3,.49-.57,.81-1.2,.96-1.87,.06-.24,.18-.28,.38-.13,.22,.18,.38,.38,.49,.6,.1,.22,.24,.23,.4,.05l.31-.36c.18-.21,.25-.18,.2,.1-.09,.49,.06,.93,.44,1.34,.14,.14,.13,.28-.02,.41-.09,.08-.2,.13-.32,.16-.18,.04-.27,.16-.28,.34Zm5.8,.78l-.66-.6c-.18-.16-.25-.36-.22-.6,.05-.33,.22-.59,.53-.77,.16-.1,.25-.24,.27-.43,.02-.3,.09-.57,.22-.82,.1-.18,.25-.25,.45-.21,.91,.2,1.5,.72,1.75,1.56,.07,.23,.02,.44-.14,.61l-1.75,1.92s-.08,.06-.13,.07c-.12,.02-.23-.06-.25-.18,0-.06,0-.13,.02-.2,.04-.12,0-.26-.1-.35Zm-20.36-2.26c-.2-.11-.35-.33-.45-.64-.06-.17,0-.23,.17-.19,.21,.06,.37,.28,.48,.66,.07,.22,0,.28-.21,.17Zm-.02,2.57l-1.14,1.6s-.05,.06-.08,.09c-.18,.14-.43,.11-.57-.06-.47-.57-1.02-.87-1.63-.9-.3-.01-.36-.14-.17-.38,.64-.81,1.1-1.89,1.39-3.23,.11-.5,.33-.56,.67-.17,.51,.6,1.02,1.25,1.53,1.95,.27,.37,.27,.73,0,1.1Zm6.81-1.9c.09,.03,.19,.03,.28,0,.12-.04,.23-.03,.34,.03,.23,.12,.38,.3,.47,.53,.03,.08,.03,.17,0,.25-.06,.23-.3,.37-.54,.31l-.91-.25c-.18-.05-.28-.16-.32-.34-.04-.2-.17-.31-.37-.32-.24-.01-.34-.14-.31-.38,.06-.43,.23-.79,.48-1.07,.14-.16,.31-.19,.5-.09,.3,.15,.56,.35,.76,.6,.12,.14,.11,.28-.04,.4-.06,.05-.13,.08-.22,.1-.36,.06-.41,.14-.14,.22Zm-1.84,2.2c-.5-.45-.61-1.02-.32-1.7,.08-.2,.23-.29,.44-.27,.21,.01,.36,.13,.45,.34,.07,.18,.19,.32,.36,.41,.42,.25,.87,.39,1.35,.42,.22,.02,.29,.12,.19,.32-.31,.64-.74,1.17-1.27,1.58-.17,.12-.34,.12-.5,0-.21-.16-.35-.37-.41-.63-.04-.19-.14-.35-.28-.48Zm6.29-1.46c.06,.09,.1,.17,.1,.24,0,.04,0,.07-.03,.11-.06,.1-.18,.13-.28,.07-.18-.1-.32-.23-.41-.39-.09-.16-.04-.27,.14-.32,.2-.05,.33,0,.4,.13,.04,.07,.06,.12,.08,.16Zm-3.06,1.51c.16-.06,.31-.06,.47-.02,.2,.05,.3,.18,.29,.39,0,.06,0,.11,0,.17,0,.13-.06,.19-.19,.19h-.56c-.2,0-.3-.1-.31-.29,0-.08,.02-.17,.07-.26,.05-.09,.13-.15,.23-.19Zm-23.39-3.35c-2.45,2.6-7.38,1.48-10.17,.16-2.65-1.25-5.32-2.56-8.03-3.93-.71-.36-1.44-.45-2.18-.28-.11,.03-.21,.09-.28,.19-.14,.21-.09,.49,.12,.63,3.69,2.47,7.58,4.48,11.68,6.03,3.34,1.27,6.1,1.82,8.28,1.64,3.21-.27,5.84-1.7,7.9-4.3,4.38-5.53,1.47-11.89-3.26-15.81-.74-.61-1.07-.37-1.93-.26-8.29,1.03-15.57,4.31-21.82,9.84-.01,.01-.02,.03-.03,.05-.02,.05,.01,.11,.07,.13,2.42,.74,4.36,2.19,6.52,3.5,4.24,2.57,8.14,1.3,12.68,.46,0,0,0,0,.01,0,.48-.08,.93,.23,1.01,.71,.06,.37-.12,.79-.56,1.26Zm-4.4-8.5c0,1.82-1.47,3.29-3.29,3.29h0c-1.82,0-3.29-1.47-3.29-3.29s1.47-3.29,3.29-3.29,3.29,1.47,3.29,3.29h0Zm20.87-6.94c-.22-.02-.29,.07-.22,.28,.22,.61,.57,.82,1.05,.62-.09-.57-.37-.87-.83-.9Zm-23.03,5.3c-.84-.56-2.01-.29-2.61,.61-.6,.9-.42,2.09,.42,2.65s2.01,.29,2.61-.61c.6-.9,.42-2.09-.42-2.65Zm57.65,.45v-.18c0-.24-.08-.27-.25-.1-.35,.36-.48,.78-.38,1.27,0,.02,.01,.04,.02,.06,.06,.09,.18,.13,.27,.07,.42-.25,.56-.53,.4-.85-.04-.09-.07-.18-.07-.28Zm6.5,.6c-.06,.09-.08,.18-.06,.28,.12,.67,.34,.7,.66,.1,.2-.37,.17-.72-.11-1.04-.13-.16-.25-.16-.37,.02-.08,.12-.1,.25-.07,.39,.02,.09,0,.18-.05,.25Zm-28.19,.26c-.24-.24-.53-.3-.9-.19-.37,.11-.52,.39-.44,.83,.01,.08,.05,.16,.11,.22,.16,.17,.43,.19,.6,.03l.63-.56c.12-.1,.12-.21,0-.32Zm6.58,.75c.39-.04,.6-.24,.63-.62,0-.07,0-.13-.03-.19-.09-.21-.33-.31-.55-.23-.45,.18-.61,.44-.47,.79,.08,.18,.21,.27,.41,.25Zm-9.29,.06s-.08,.06-.11,.14c-.04,.12-.08,.16-.12,.14-.2,.33-.49,.41-.87,.23-.21,.05-.47,0-.77-.13l-.73,.44c-.13,.21-.11,.45,.07,.73,.48,1.28,1.14,1.64,1.99,1.07l-.67-.17c-.16-.04-.16-.08,0-.11,.18-.04,.35-.06,.53-.06,.19,0,.34-.08,.43-.25,.25-.44,.67-.73,1.26-.86-.09-.45-.3-.78-.62-1-.16-.15-.29-.2-.38-.17Zm40.43,3.09c0,.18,.15,.33,.33,.33s.33-.15,.33-.33-.15-.33-.33-.33-.33,.15-.33,.33Zm-49.75,3c.21-.32,.33-.74,.36-1.26,0-.2-.08-.32-.28-.37-.06-.02-.12-.02-.17,0-.13,.03-.2,.11-.2,.24v1.32c0,.33,.1,.36,.29,.08Zm11.77,3.36l.2-.14c.05-.04,.07-.11,.03-.17l-.13-.19c-.1-.16-.21-.17-.34-.03-.18,.2-.42,.28-.69,.23-.17-.03-.28,.04-.32,.2-.02,.07-.01,.15,.02,.23,.02,.05,.04,.1,.07,.14,.2,.31,.61,.4,.92,.2,.04-.02,.06-.07,.06-.15,0-.14,.06-.26,.18-.34Zm-15.84-.16c-.13,.18-.08,.42,.09,.55,.12,.09,.27,.1,.46,.04,.2-.06,.26-.19,.17-.38-.15-.34-.34-.45-.57-.35-.06,.03-.12,.07-.16,.13Zm14.48,14.06c-1.65-.71-3.33-1.52-5.05-2.44-1.94-1.03-4.09-1.9-5.96-3.17-.84-.57-1.65-.69-2.57-1.04-.1-.04-.18-.02-.25,.07-.12,.14-.11,.28,.03,.4,.89,.82,1.64,1.37,2.24,1.66,2.63,1.28,5.12,2.56,7.48,3.85,.4,.22,.38,.28-.07,.19-2.78-.59-5.78-1.32-8.29-2.68-2.11-1.15-3.15-2.75-5.03-3.51-.18-.07-.34-.07-.47,0,0,0-.02,0-.03,.01-.1,.07-.12,.2-.05,.3,2.6,3.77,5.79,5.37,10.48,6.33,3.22,.66,6.45,1.05,9.7,1.19,.31,.02,.36-.09,.16-.33-3.19-3.6-6.18-6.08-11.13-7.09-.16-.04-.31,.06-.37,.21-.04,.12,.04,.22,.25,.3,1.22,.5,2.35,.95,3.41,1.33,1.33,.49,3.22,1.89,5.68,4.22,.33,.32,.29,.38-.14,.2Z"/>
  </g>
</svg>