<?xml version="1.0" encoding="UTF-8"?>
<svg id="Layer_2" data-name="Layer 2" xmlns="http://www.w3.org/2000/svg" viewBox="0 0 110.85 48.35">
  <defs>
    <style>
      .cls-1 {
        fill: #808080;
      }
    </style>
  </defs>
  <g id="Layer_1-2" data-name="Layer 1">
    <path class="cls-1" d="M109.84,33.51c.48,5.68,2.55,9.15-3.05,9.7-8.26-3.89-16.27-8.17-16.27-8.17-.94,0-2.78,.35-5.24,.9,.46,.81,.76,1.94,0,3.13-1.44,2.28-15.3,8.26-17.19,8.41-4,.42-8.77-2.99-11.48-5.24-5.95,1.04-11.8,1.77-16.76,1.79-.75,1.48-1.97,2.97-3.94,4.26-.85,.55-4.25-2.6-7.28-5.7C11.3,38.2,.3,25.48,0,23.43c-.34-2.32,20.09-15,34.68-15.68,2.62-.12,6.09,.2,10.02,.79C46.91,5.57,50.83,.95,54.45,.12c5.41-1.25,19.91,7.76,26.21,11.78,4.96,3.16,7.99,5.71,7.57,7.41,1.34,.41,2.11,.65,2.11,.65,0,0,9.32-5.62,18.47-10.17,0,0,3.11,1.01,1.63,7.52-1.48,6.51-1.1,10.53-.62,16.21Z"/>
  </g>
</svg>