<?xml version="1.0" encoding="UTF-8"?>
<svg id="Layer_2" data-name="Layer 2" xmlns="http://www.w3.org/2000/svg" viewBox="0 0 56.33 37.5">
  <defs>
    <style>
      .cls-1 {
        fill: #808080;
      }
    </style>
  </defs>
  <g id="Layer_1-2" data-name="Layer 1">
    <path class="cls-1" d="M51.25,32.53c-.49-.08-.98-.16-1.47-.22-.69-.08-1.41-.21-2.07,.07-.3,.13-.58,.32-.88,.46-.42,.2-.84,.35-1.24,.58-.39,.23-.77,.5-1.17,.72-.57,.31-1.2,.49-1.84,.62-1.13,.24-2.28,.32-3.42,.5-1.18,.19-2.35,.5-3.38,1.12-3.23,1.94-7.48,.79-8.3,.51-.55-.19,.04-.64,.48-.91,.08-.05,.04-.18-.06-.17-.63,.07-1.91,.19-3.83,.32-2.83,.19-4.11-.13-7.45-.45-3.33-.33-5.19-5.75-5.77-6.96-.21-.43-.29-.93-.37-1.4-.21-1.31-.27-2.66-.24-3.98,.01-.6-.06-1.4,.45-1.83,.37-.32,.91-.36,1.37-.38,.02,0,.1-.01,.17-.02,.06,0,.08-.08,.03-.12-.15-.11-.34-.2-.51-.23-.15-.03-.3,0-.45,.02-.6,.12-1.1,.43-1.55,.83-1.27,1.15-2.62,2.33-4.11,3.18-.54,.31-1.22,.66-1.87,.58-.64-.08-.94-.66-1.05-1.25-.77-4.11-1.26-2.31-2.39-6.69-1.14-4.39,.87-7.34,1.92-7.53,1.05-.19,7.52,4.68,7.94,5.23,.55,.71,1.67,1.61,2.65,1.47,.21-.03,.2-.34-.01-.35-.25-.02-.5-.04-.73-.14-.35-.15-.61-.43-.77-.78C10.72,13.94,18.58-1.37,27.95,.1c1.94,.3,3.86,.79,5.71,1.48,3.35,1.25,6.31,3.2,9.05,5.47,1.5,1.25,3.02,2.36,4.12,4,1.09,1.62,1.9,3.4,2.75,5.15,.46,.95,1.22,1.67,1.64,2.65,.4,.95,.6,2,.51,3.04-.07,.79-.16,1.55-.04,2.34,.22,1.48,.95,2.83,2.05,3.84,2.48,2.3,2.72,3,2.55,3.57-.17,.57-1.05,.15-1.65,.2-.59,.06,.33,.72,.43,1.13s-.76,.5-1.51,.14c-.75-.36-2.25-.57-2.25-.57-.01,0-.03,0-.04,0Z"/>
  </g>
</svg>