<?xml version="1.0" encoding="UTF-8"?>
<svg id="Layer_2" data-name="Layer 2" xmlns="http://www.w3.org/2000/svg" viewBox="0 0 101.18 20.68">
  <defs>
    <style>
      .cls-1 {
        fill: #808080;
        fill-rule: evenodd;
      }
    </style>
  </defs>
  <g id="Layer_1-2" data-name="Layer 1">
    <path class="cls-1" d="M1.37,6.48s-4.03-2.22,1.75-3.49c0,0,32.51-1.28,36.34-1.55,3.83-.27,13.64,.27,17.2,1.01,3.56,.74,10.45,2.38,11.66,2.05,1.21-.34,3.06-.71,3.96-.47,.91,.24-.42,1.51-.17,1.71,.25,.2,5.53,1.71,6.94,2.02,1.41,.3,2.75,.24,2.75,.24,0,0-.34-4.64,4.33-7.79,0,0,.76-.5,1.01,.08,.25,.59-.03,4.3,1.07,6.21,1.11,1.91,6.85,8.8,12.43,10.75,0,0,1.13,.45,.13,.89-.99,.44-7.17-.91-10.93-2.92-3.76-2.02-5.21-2.89-5.98-2.67-.77,.22-2.18,1.01-3.41,1.13s-9.2-.22-12.36-.52c-3.16-.3-8.2-.24-10.04,.4-1.85,.64-8.43,1.68-10.51,2.25-2.08,.57-7.22,.91-7.59,.94-.37,.03-.03,2.38,4.5,2.15,0,0,.42,.03,.35,.38-.07,.34-1.83,1.39-2.79,1.4-.96,.02-6.65,0-8.03-.67-1.38-.67-2.02-1.68-3.22-2.32-1.21-.64-7.12,.54-11.02-.81C15.85,15.53,7.62,12.81,1.37,6.48h0Z"/>
  </g>
</svg>