<?xml version="1.0" encoding="UTF-8"?>
<svg id="Layer_2" data-name="Layer 2" xmlns="http://www.w3.org/2000/svg" viewBox="0 0 99.19 52.14">
  <defs>
    <style>
      .cls-1 {
        fill: #808080;
      }
    </style>
  </defs>
  <g id="Layer_1-2" data-name="Layer 1">
    <path class="cls-1" d="M89.5,26.33c-.16-.63-2.53-1.34-2.06-1.74,2.69-.4,4.35-3.48,5.06-5.3,.71-1.82,7.67-11.62,6.56-11.62-8.54,1.98-16.05,11.7-17,12.26-.95,.55-11.39-1.9-11.39-1.9,0,0,1.5-4.82,.87-5.38-.63-.55-5.06,3.08-7.2,3.32-2.13,.24-13.52-2.45-18.19-2.61-4.66-.16-9.8,.24-9.88-.08-.08-.32,8.94-.66,8.94-.66,0,0-.09-3.13,.38-4.4S47.05,.16,46.26,0c-3.24-.32-13.28,12.65-14.86,13.2-1.58,.55-15.1,1.98-18.42,2.85S.29,17.95,0,20.8c-.07,.65,1.7,3.9,3.12,5.21,1.42,1.31,3.02,.84,3.02,.84,0,0,1.02,.55,1.35,.44s.07-1.09,.07-1.09l.91-.29s.62,.76,1.02,.65,.29-1.27,.29-1.27l1.13-.18s.8,.8,1.05,.76c.25-.04,.51-1.13,.51-1.13l1.16-.15s.58,.76,.8,.76,.44-.87,.44-.87c0,0,2.8,.47,2.76,.76-.04,.29-1.53,.15-1.67,.22-.15,.07-.25-.51-.47-.55s-.58,.73-.58,.73l-1.24,.44s-.29-.73-.51-.69-.58,1.05-.58,1.05l-1.16,.44s-.65-.58-.95-.58-.18,1.02-.18,1.02l-.82,.34c-.2-.24-.49-.53-.71-.49-.36,.07-.29,1.38-.29,1.38,0,0-.48-.32-.4,.24,.08,.55,3.8,3.4,4.82,4.59,.96,1.11,6.21,5.95,13.48,7.87,.87,3.18,2.77,8.4,6.27,10.83,1.06,.68-.53-3.86,0-6.13,.26-1.1,.67-2.5,1.01-3.68,5.04,.2,8.35-.71,8.05-.89-3.08-1.11-8.25-5.95-6.82-5.48,12.49,11.23,25.06,8.86,25.06,8.14s-9.49-4.19-10.53-5.38c-1.04-2.29-5.36-4.11-4.81-4.43,1.98-.16,5.51,4.05,5.51,4.05l16.23-6.65s2.45,.95,4.03,1.58c1.58,.63,1.9,.71,3,.24,1.11-.47-2.29-3.87-2.29-3.87,0,0,9.88-4.43,10.75-4.35,1.27,6.09,9.88,9.96,10.52,9.57,.63-.4-.55-.71-1.58-2.69-1.03-1.98-1.11-5.14-1.27-5.77ZM10.44,21.13c-.49,0-.88-.39-.88-.88s.39-.88,.88-.88,.88,.39,.88,.88-.39,.88-.88,.88Zm21.27,.11c.48,2.64-1.9,7.29-2.09,7.13-.18-.16,1.77-5.5,1.45-6.98-.32-1.48-2.8-3.01-2.91-3.7,0,0,3.12,2.33,3.54,3.54Zm-2.91,.26c.48,2.64-1.9,7.29-2.09,7.13-.18-.16,1.77-5.5,1.45-6.98-.32-1.48-2.8-3.01-2.91-3.7,0,0,3.12,2.33,3.54,3.54Zm3.73,6.61c-.18-.16,1.77-5.5,1.45-6.98-.32-1.48-2.8-3.01-2.91-3.7,0,0,3.12,2.33,3.54,3.54,.48,2.64-1.9,7.29-2.09,7.13Z"/>
  </g>
</svg>