<?xml version="1.0" encoding="UTF-8"?>
<svg id="Layer_2" data-name="Layer 2" xmlns="http://www.w3.org/2000/svg" viewBox="0 0 111.75 56.89">
  <defs>
    <style>
      .cls-1 {
        fill: #808080;
      }
    </style>
  </defs>
  <g id="Layer_1-2" data-name="Layer 1">
    <path class="cls-1" d="M111.42,50.94c-.58-.87-1.58-1.56-1.64-1.73-.06-.17-.04-.56-.3-.35-.26,.21-.38,0-.29-.27s.19-.56-.11-.27-.54,.17-.47-.09c.06-.26,.3-.7,0-.43s-.59,.37-.42,.01c.17-.36,.25-.6-.12-.25-.37,.35-.57,.4-.44,.05,.14-.34,.29-.51,0-.26-.29,.25-.6,.48-.46,.05s.31-.6-.13-.25c-.43,.35-.55,.34-.47,.04,.08-.3,.22-.57,0-.34-.22,.23-.38,.42-.33,.1,.05-.32,.12-.43-.09-.14s-.3,.25-.13-.26c.18-.51,.2-.42-.13-.01s-.37,.22-.23-.15c.14-.37,.22-.54-.03-.29-.25,.25-.62,.54-.4-.01,.22-.56,.37-.74-.12-.24-.49,.5-.47,.61-.33,.12s.1-.48-.23,.05c-.34,.53-.67,.24-.56-.24s0-.32-.27,.06-.52,.3-.47-.03c.05-.33,.04-.38-.13-.1-.17,.28-.36,.44-.28,.11,.08-.33,.05-.36-.1-.11s-.48,.27-.37,0c.1-.27,.21-.42,0-.23-.21,.19-.49,.42-.38,.13,.1-.29,.18-.44-.08-.22-.26,.22-.45,.33-.31,.03,.14-.3,.19-.44-.06-.22-.25,.21-.44,.37-.35,.06,.09-.31,.07-.43-.14-.13-.21,.3-.41,.26-.28-.06,.13-.32,.13-.53-.17-.2-.3,.33-.34,.25-.24-.1,.1-.35,.15-.41-.07-.18s-.6,.67-.48,.03c.12-.64-.04-.36-.25-.09-.21,.27-.3,.24-.16-.21,.14-.45,.07-.54-.26,.06s-.46,.45-.46,.11,.12-.57-.15-.24c-.27,.33-.53,.56-.53,.23s.15-.65-.2-.22c-.35,.43-.59,.67-.53,.35,.05-.32,.24-.7,.04-.43-.2,.27-.73,.68-.66,.29,.06-.4,.05-.31-.18-.05-.23,.25-.47,.46-.42,.13,.05-.33,.08-.48-.22-.22s-.54,.54-.44,.15c.09-.39,.12-.58-.21-.1-.33,.48-.39,.42-.37,.03,.02-.4,.02-.55-.17-.16-.19,.38-.44,.54-.37-.03,.07-.57,.08-.46-.11-.09-.19,.37-.39,.68-.32,.23,.07-.45,.16-.56-.12-.11-.28,.45-.46,.49-.41,.12,.05-.37,.27-.73-.03-.24-.3,.49-.29,.45-.28,.11s.12-.55-.17-.11c-.3,.44-.33,.52-.33,.09,0-.43,.1-.58-.21-.14-.31,.44-.28,.54-.21,.1s.02-.54-.3-.05-.39,.33-.36-.02c.03-.34,.12-.55-.07-.17-.19,.38-.27,.57-.23,.19,.03-.38,.06-.62-.17-.18-.23,.44-.38,.59-.33,.16,.05-.42,0-.49-.21-.25-.21,.24-.49,.55-.38,.16,.11-.39,.21-.71-.2-.25-.41,.46-.47,.52-.38,.06,.09-.46,.16-.63-.16-.25-.32,.38-.63,.6-.38-.04,.25-.63,.12-.51-.16-.09-.28,.42-.53,.61-.39,.12,.14-.49,.46-.83,0-.31-.46,.52-.81,.6-.55,.11s.43-.74,.11-.4-.8,.77-.61,.33c.2-.44,.56-1,.07-.42-.49,.58-.87,.6-.57,.05,.3-.55,.38-.59-.11-.18-.49,.41-.88,.33-.42-.32,.46-.65,.52-.79-.1-.14-.62,.65-.75,.66-.52,.14,.23-.52,.25-.61-.12-.2-.38,.41-.67,.42-.54,0s.14-.62-.17-.19-.41,.37-.28-.1c.14-.47,.22-.6-.03-.28-.25,.31-.69,.43-.53,.05s.39-.72,.15-.49c-.24,.22-.68,.73-.42,.09,.25-.63,.06-.49-.38-.11-.45,.38-.42,.31-.21-.31,.22-.62,0-.49-.52-.04-.52,.46-.25,.05-.06-.4,.19-.45,.34-.55-.2-.19-.53,.36-.46,.19-.16-.29,.3-.48,.05-.31-.43,.03-.48,.34-.27-.1-.05-.43,.21-.34,.25-.49-.1-.25s-.77,.34-.47-.1c.3-.44,.4-.46,0-.21-.4,.25-.6,.41-.47,.14,.14-.27,.3-.49-.1-.25-.4,.24-.36,.04-.17-.24,.18-.28,.15-.34-.27-.07-.42,.27-.39,.06-.16-.32,.23-.38,.24-.43-.17-.24-.42,.2-.52,.27-.24-.16,.27-.43,.35-.55-.1-.32-.44,.23-.66,.37-.38-.08,.27-.45,.46-.73,0-.48-.46,.25-.85,.42-.55-.09,.3-.51,.35-.83-.12-.44-.47,.4-1,.55-.65-.04,.35-.6,.44-.71-.04-.4-.48,.31-.97,.59-.63,.04s.49-.88,0-.43c-.49,.45-.95,.35-.64-.22,.31-.57,.33-.67-.16-.31-.49,.36-.99,.49-.72,0,.28-.49,.52-.75-.15-.3-.67,.45-.64,.36-.27-.2s.4-.63-.12-.31c-.52,.31-.72,.28-.55-.11,.17-.38,.5-.84,.05-.46-.45,.38-.65,.67-.5,.21,.14-.46,.41-1.08-.1-.46-.51,.62-.52,.61-.28,.06,.24-.55,.19-.69-.17-.27-.36,.43-.5,.29-.3-.16,.2-.44,.17-.54-.2-.17-.37,.37-.86,.47-.69,.04,.17-.43,.37-.88,.08-.54-.29,.34-.88,.81-.7,.26,.18-.55,.22-.51-.17-.16s-.39,.5-.21-.11c.18-.61,.08-.44-.22-.25-.29,.18-1.13,.56-.86,.07,.27-.49,.33-.7-.14-.34-.46,.36-.87,.5-.61,.08s.36-.63-.14-.3c-.49,.33-.68,.29-.43-.14,.25-.43,.33-.55,.03-.27s-.58,.49-.29-.15c.29-.63,.28-.49-.27-.09-.54,.4-.52,.2-.22-.41,.29-.6,.23-.52-.28-.17-.52,.35-.78,.52-.52-.06,.25-.58,.26-.63-.26-.14-.52,.49-.57,.23-.22-.4,.35-.62,.28-.5-.27-.11-.55,.39-.95,.4-.6-.24,.35-.64,.43-.74-.2-.19s-.62,.25-.47-.29c.15-.53,.26-.59-.38-.07-.64,.52-.61,.53-.43-.15,.17-.68,.2-.8-.3-.27-.51,.53-.6,.5-.35-.24,.25-.74,.2-.6-.27-.17-.46,.43-.49,.59-.4,.06,.09-.53,.24-.64-.17-.23-.4,.41-.63,.52-.52,0,.11-.52,.2-.74-.36-.25-.56,.48-.7,.38-.46-.18,.24-.56,.2-.74-.12-.35-.33,.38-.69,.9-.55,.34,.14-.56,.22-.85-.19-.27-.4,.58-.53,.56-.39,.14,.14-.42,.28-1-.08-.54-.36,.46-.72,.98-.57,.35,.14-.63,.13-.76-.37-.24s-.5,.5-.43-.11c.06-.61,.02-.61-.23-.23-.25,.38-.53,.68-.48,.14,.06-.54,.16-.72,0-.43-.16,.29-.44,.74-.45,.36,0-.38,.07-.92-.19-.46-.26,.46-.56,.68-.53,.1,.03-.58-.02-.6-.2-.3-.17,.3-.53,1.06-.53,.38s.13-.9-.14-.42c-.27,.48-.8,.55-.73,.04,.07-.51,.05-.56-.21-.11s-.41,.61-.34,.07c.06-.54,.05-.71-.27-.2-.32,.51-.49,.51-.4,.04,.09-.47,.05-.69-.28-.16-.33,.53-.38,.65-.33,.06,.06-.59,.03-.72-.16-.33-.2,.4-.47,.86-.41,.44,.06-.41,.09-.98-.16-.31-.24,.67-.6,1.07-.41,.43,.19-.64,.14-.75-.14-.21-.28,.54-.38,.77-.28,.15,.11-.62,.08-.76-.09-.31-.16,.44-.41,.67-.29,.15,.12-.52,.17-.69-.15-.17-.32,.52-.66,.88-.43,.13,.22-.75-.11-.44-.37,0-.26,.43-.58,.79-.58,.28s-.09-.47-.23,.02c-.15,.49-.42,.28-.49-.05-.07-.33-.12-.46-.17,.02-.05,.48-.24,.5-.37,.04-.13-.46-.19-.48-.22,.02-.03,.5-.2,.47-.3,.13-.1-.34-.18-.55-.18-.1s-.25,.63-.36,.24c-.1-.4-.18-.49-.18-.06s-.38,.55-.44,.18c-.06-.37-.15-.57-.2-.22s-.36,.75-.47,.22c-.1-.53-.11-.5-.14-.09-.03,.41-.04,.6-.22,.15-.17-.44-.17-.43-.18-.09-.01,.35-.23,.68-.35,.25s-.26-.53-.26-.02-.12,.49-.32,.08c-.2-.41-.23-.44-.18,0,.04,.44-.17,.53-.34,.15-.17-.37-.14-.49-.17-.18-.03,.3-.08,.74-.25,.32-.18-.42-.28-.56-.27-.11,.01,.45-.17,.53-.27,.11-.09-.42-.1-.3-.1,.08s-.1,.55-.27,.12c-.16-.43-.34-.43-.33-.02,.02,.41-.26,.56-.42,.18s-.12-.24-.18,.13c-.06,.37-.15,.72-.35,.21-.21-.51-.27-.39-.23,.09,.03,.48-.3,.43-.42,.06-.12-.37-.15-.35-.16,.12-.01,.47-.16,.55-.32,.04-.16-.51-.24-.31-.29,.25-.05,.56-.11,.37-.34-.06-.23-.43-.3-.48-.25,.03s-.13,.66-.24,.2c-.11-.46-.15-.42-.12,.03s-.37,.52-.41,.17c-.04-.35-.02-.57-.11-.1-.09,.48-.17,.62-.21,.31-.03-.31-.09-.79-.15-.31-.06,.48-.19,1.34-.4,.6-.21-.75-.34-.68-.42-.09s-.75,1.15-.86,.55c-.11-.6-.14-.93-.26-.25-.12,.68-.71,1.31-.79,.38-.09-.93-.02-.69-.21,.04-.18,.74-.44,.88-.62,.09-.17-.79-.22-.75-.28-.23-.06,.52-.48,1.14-.62,.55-.14-.59-.23-1.14-.47-.27s-.34,.83-.46,.34c-.12-.5-.3-1.06-.47-.17-.16,.89-.95,1.01-.98,.37-.02-.64-.08-.92-.38-.36-.3,.56-.86,1.32-.88,.54-.02-.78,.34-1.29-.05-.69-.39,.6-1.05,1.51-1.01,.72,.04-.79,.29-1.17-.01-.67-.3,.5-.86,1.24-.79,.47,.07-.77,.14-.65-.3-.24-.45,.41-.93,.85-.75,.22,.18-.63,.18-.87,.04-.71s-1.22,1.19-.95,.69,.5-1.13,.17-.82c-.33,.31-1.39,1-.98,.38,.4-.63,.59-1.03,.19-.6-.4,.43-1.33,.71-.91,.17,.42-.54,.46-.7,0-.33-.46,.37-.66,.46-.32-.14,.34-.6,.09-.35-.33,.05-.43,.4-.72,.06-.41-.38,.31-.43,.34-.5-.16-.16-.5,.34-.73,.44-.56,.11,.17-.33,.69-.79,.14-.48-.56,.31-.76,.46-.46,.03,.3-.43,.36-.44-.1-.16-.46,.29-.85,.37-.51-.08,.34-.45,.43-.66-.02-.43-.46,.22-1.01,.65-.62,.02,.4-.63,.81-.82-.08-.44-.89,.38-.83,.32-.41-.16,.42-.48,.44-.5-.24-.1-.69,.4-1.05,.17-.56-.2,.49-.36,1.31-.86,.32-.44-.99,.42-1.56,.24-.62-.35,.94-.59,.8-.68-.31-.34-1.11,.34-3.27,.04-1.84-.46,1.43-.49,2.2-1.07,2.28-2.33,.09-1.26,.97-1.13,2.79-2.23,1.82-1.11,2.36-1.4,3.35-1.86,1-.46,2.28-.43,1.91-.91-.38-.48-.56-.55-2.43,.49-1.86,1.04-3.41,2.49-5.03,3.15-1.62,.67-1.32-.14-.46-.72,.85-.58,1.88-1.33,2.82-2,.94-.67,2.31-1.52,3.61-1.91s2.7-.35,2.26-.95-.81-.3-2.49,.36c-1.68,.67-3.37,2.4-5,3.22s-4.35,2.88-4.22,1.74c.13-1.14,.65-.98,2.82-2.44,2.17-1.45,4.79-2.78,7.33-3.99,2.54-1.21,4.71-.59,4.21-1.71-.5-1.13-.87-.54-2.88,.35-2.02,.89-3.25,1.63-6.29,3.43-3.04,1.8-6.74,2.73-5.55,2.06,1.19-.67,3.21-2.52,5.99-3.73,2.78-1.21,4.36-2.39,8.24-4.77,3.88-2.39,4.1-.93,4.34-2.02,.25-1.08-.03-.95-2.85,.39-2.82,1.34-5.55,3.95-7.89,4.86-2.34,.91-7.66,4.12-9.15,5.07-1.5,.95-2.69,1.34-2.3-.02,.39-1.37-1.14-.83,.74-1.76s6.36-1.39,4.94-1.62c-1.42-.23-3.8,.43-5.31,1.21-1.52,.78-1.56-.02,.72-1.86,2.28-1.84,9.5-7.85,7.66-6.72-1.84,1.13-3.32,2.62-7.14,5.47-3.82,2.84-3.75,1.95-.28-1.65,3.47-3.6,9.52-7.92,7.4-6.72-2.13,1.19-4.75,3.43-6.61,4.97-1.86,1.54-6.86,6.56-6.22,5s.75-1.76,5.03-5.81c4.28-4.05,17.7-13.22,8.26-6.98C13.3,8.36,8.7,13.78,7.84,14.73c-.85,.95-1.59,1.93-2.12,2.52-.53,.59-1.1,1.18-.65,.01,.45-1.17,2.11-2.73,.65-1.26-1.46,1.47-2.92,5.12-3.22,5.86-.3,.74-.16,.79-1,1.58-.18,.17-.35,.37-.49,.58-.13,.18-.24,.38-.34,.57-.05,.09-.09,.17-.13,.26-.02,.04-.05,.09-.07,.13-.01,.03-.03,.05-.04,.08-.01,.03,0,.06,.01,.09,0,.03,.02,.07,.03,.1,.02,.08,.05,.16,.08,.24,.08,.2,.16,.39,.27,.57,.13,.23,.28,.44,.45,.64,.03,.04,.06,.07,.09,.11,.84,.91,1.63,1.08,.72,.74s-1.13-.54-1.6-1.25c-.14-.21-.25-.44-.31-.68-.02-.06-.03-.13-.04-.2,0-.02,0-.07-.01-.08-.01-.01-.04,.01-.05,.02-.08,.07-.05,.22-.05,.31,.02,.16,.05,.32,.07,.48,.11,.65,.22,1,.87,1.81s2.62,1.08,4.23,1.48c1.6,.4,2.18,.44,2.6,1.17,.42,.73,1.66,2.11,2.14,3.8,.48,1.68,.54,4.94-.12,6.54s-.87,2.71-1.08,4.59c-.22,1.88,.42,3.3,.77,4.51,.35,1.21,1.07,2.62,2.39,3.71,1.31,1.08,2.17,1.31,3.82,2.18,1.65,.87,2.9,1.51,2.75,.26-.14-1.25-2.95-.71-3.98-1.43-1.03-.73-1.75-.81-2.85-2.05-1.11-1.24-1.8-3.46-2.08-4.49-.28-1.03-.31-1.55-.12-2.19,.19-.64,.7-.67,.5-1.47-.2-.81-.55-.61,.69-3.84,1.24-3.23-.11-8.18,.51-6.69,.62,1.49,.97,2.63,1.26,4.38,.29,1.75,.43,3.53,.84,5.62,.4,2.1,1.45,3.89,2.21,4.83,.77,.94,2.08,1.98,4.25,2.92,2.17,.94,4.21,1.11,3.67,.09-.53-1.03-2.94-.38-3.79-.84-.85-.46-2.6-.75-4.08-3.16-1.47-2.41-2.26-5.52-1.78-6.42,.48-.9,.88-.98,.3-1.46-.57-.49-.39-.74-.77-2.91-.38-2.17-1.96-4.83-2.07-5.09-.29-.68,2.62,1.56,4.96,3.35,2.34,1.79,6.16,3.87,12.55,4.31,6.39,.43,10.32-2.23,18.85-4.16,8.53-1.94,14.34-.03,18.07,2.14,3.73,2.17,14.92,9.09,17.61,10.38,2.69,1.29,6.69,2.13,9.02,1.65,2.33-.48,5.31-.67,7.92-.67s5.55,.35,8.78,1.45c3.24,1.09,3.07,1.37,2.49,.49ZM3.92,24.89c0-.26,.08-.53,.25-.73,.03-.03,.06-.06,.09-.08,.21-.18,.5-.24,.77-.28,.33-.05,.66,0,.94,.19,.76,.51,.46,1.59-.21,1.93-.66,.34-1.18,.22-1.58-.2-.2-.21-.27-.53-.26-.82Zm-.05,3.86c-.86,0,1.08-.05,1.83-.43,.75-.38,1.68-1.03,2.05-1.69,.37-.66,.45-1.32,.46-.62,0,0,.06,1.17-1.13,1.92-1.19,.75-2.34,.82-3.2,.82Zm5.74-1.47c-.43,1.45-1.67,1.97-2.56,1.98-.89,.01-1.72-.05-.52-.22,1.2-.17,1.93-.37,2.5-1.45,.57-1.08,.22-2.27-.07-2.84-.3-.58-.64-1.29-.16-.64,0,0,1.24,1.73,.81,3.18Zm-3.6-2.67c0,.36-.36,.65-.81,.65s-1-.16-1-.52,.56-.77,1-.77c.45,0,.81,.29,.81,.64Z"/>
  </g>
</svg>