<?xml version="1.0" encoding="UTF-8"?>
<svg id="Layer_2" data-name="Layer 2" xmlns="http://www.w3.org/2000/svg" viewBox="0 0 94.66 48.69">
  <defs>
    <style>
      .cls-1 {
        fill: #808080;
      }
    </style>
  </defs>
  <g id="Layer_1-2" data-name="Layer 1">
    <path class="cls-1" d="M48.88,1.91c8.21,3.19,21.42,6.64,26.3,5.98,2.21,8.42-6.77,9.49-6.77,9.49,0,0,2.51,1.68,5.38,2.1,2.87,.42,6.74-3.73,12.79-5.62,6.05-1.89,10.96-4.29,6.13,2.67-4.83,6.96-2.68,13.91-.65,18.06-4.75,3.59-13.31-5.18-16.04-7.5-2.73-2.32-4.87-.28-10.63,.76,9.44-.6,12.92,9.26,12.92,9.26,0,0-.11-.79-14.43,1.41-14.33,2.2-14.78-5.12-14.78-5.12,0,0-2.11,.28-7.57,1.56,6.05,1.06,6.25,8.55,3.56,8.51-2.69-.04,.86,5.38-.91,5.22s-8.9-4.3-16.52-13.07c-7.49-1.81-21.74-7-26.72-9.15-4.99-2.15,10.89-14.74,21.99-17.99,.15-9.81,17.73-9.77,25.94-6.58Z"/>
  </g>
</svg>