<?xml version="1.0" encoding="UTF-8"?>
<svg id="Layer_2" data-name="Layer 2" xmlns="http://www.w3.org/2000/svg" viewBox="0 0 90.23 48.7">
  <defs>
    <style>
      .cls-1 {
        fill: #808080;
      }
    </style>
  </defs>
  <g id="Layer_1-2" data-name="Layer 1">
    <path class="cls-1" d="M35.88,40.58c.23,.6,.43,1.2,.67,1.79,.46,1.13,.99,2.22,1.7,3.21,.27,.37,.59,.7,.88,1.05,.35,.42,.73,.81,1.02,1.27,.29,.45,.05,.8-.49,.8-.8,0-1.56-.22-2.31-.44-1.44-.42-2.8-1.01-4.05-1.85-.61-.41-1.19-.86-1.75-1.33-1.12-.94-2.04-2.06-2.84-3.28-.27-.4-.49-.82-.76-1.23-.05-.07-.16-.14-.25-.15-1.54-.2-3.09-.34-4.62-.59-1.46-.24-2.91-.56-4.35-.91-1.15-.28-2.28-.65-3.4-1.03-1.43-.48-2.81-1.07-4.16-1.74-1.31-.64-2.58-1.35-3.8-2.16-1.08-.72-2.12-1.48-3.07-2.36-.8-.73-1.61-1.45-2.37-2.22-.71-.72-1.35-1.51-1.7-2.48-.33-.91-.3-1.82,.1-2.7,.5-1.1,1.31-1.96,2.19-2.76,1.2-1.1,2.53-2.04,3.93-2.86,1.48-.86,3.02-1.57,4.61-2.19,1.87-.73,3.78-1.32,5.74-1.77,1.32-.31,2.65-.57,3.98-.82,.85-.16,1.71-.26,2.57-.35,.99-.11,1.98-.2,2.97-.3,.27-.03,.55-.04,.82-.08,.07-.01,.15-.08,.2-.14,.53-.67,1.05-1.36,1.59-2.02,.41-.5,.85-.98,1.3-1.45,.51-.53,1.02-1.06,1.56-1.56,1.32-1.24,2.71-2.38,4.19-3.42,1.28-.89,2.6-1.7,4-2.38,1.66-.81,3.38-1.46,5.2-1.84,.81-.17,1.62-.33,2.45-.29,.12,0,.24,0,.35,.03,.69,.19,.86,.75,.39,1.37-.28,.37-.62,.7-.93,1.04-.81,.87-1.5,1.82-2.16,2.81-1.09,1.63-2.05,3.33-2.9,5.09-.41,.86-.78,1.74-1.18,2.63,.3,.02,.56,.06,.82,.07,.56,.02,1.12,.03,1.68,.06,.92,.05,1.84,.12,2.76,.17,.35,.02,.71,.03,1.06,.06,.86,.06,1.71,.12,2.57,.19,.85,.06,1.69,.12,2.54,.2,.85,.08,1.7,.18,2.55,.27,.55,.06,1.1,.09,1.64,.15,.97,.11,1.95,.25,2.92,.37,.64,.08,1.28,.15,1.91,.24,1.16,.16,2.33,.33,3.49,.51,1.36,.22,2.72,.45,4.08,.7,1.23,.23,2.46,.49,3.68,.75,.63,.13,1.24,.3,1.87,.45,.3-.64,.58-1.28,.89-1.9,.98-1.98,2.17-3.82,3.52-5.57,1.04-1.34,2.18-2.59,3.41-3.75,1.3-1.23,2.7-2.34,4.27-3.2,.65-.36,1.34-.65,2.04-.93,.46-.18,.9-.12,1.14,.21,.23,.31,.21,.67,.12,1.02-.12,.48-.43,.85-.71,1.24-1.15,1.57-2.17,3.21-3.07,4.93-.92,1.76-1.68,3.58-2.28,5.46-.46,1.43-.8,2.89-1.01,4.38-.08,.59-.16,1.18-.19,1.78-.04,1.06-.1,2.12-.04,3.18,.12,2.01,.57,3.96,1.37,5.82,.52,1.21,1.22,2.31,1.99,3.38,.27,.38,.5,.81,.67,1.24,.24,.63-.18,1.09-.84,.91-.81-.22-1.61-.48-2.38-.8-1.35-.56-2.57-1.34-3.69-2.28-1.41-1.18-2.57-2.56-3.52-4.13-.49-.81-.92-1.65-1.38-2.48-7.07,6.39-15.5,10.22-24.69,12.7,.51,.29,.98,.58,1.46,.84,.98,.54,1.99,.99,3.06,1.32,.54,.17,1.09,.32,1.62,.51,.21,.07,.41,.21,.59,.34,.49,.35,.47,.97-.06,1.26-.31,.18-.65,.34-.99,.41-.63,.13-1.27,.2-1.91,.25-.5,.04-1.01,.05-1.52,.04-1.39-.03-2.76-.17-4.12-.43-1.78-.33-3.52-.8-5.2-1.48-.84-.34-1.66-.71-2.48-1.11-.26-.13-.5-.15-.77-.12-.7,.06-1.39,.13-2.09,.19-.69,.06-1.38,.1-2.1,.16Z"/>
  </g>
</svg>