<?xml version="1.0" encoding="UTF-8"?>
<svg id="Layer_2" data-name="Layer 2" xmlns="http://www.w3.org/2000/svg" viewBox="0 0 137.03 53.04">
  <defs>
    <style>
      .cls-1 {
        fill: #808080;
      }
    </style>
  </defs>
  <g id="Layer_1-2" data-name="Layer 1">
    <path class="cls-1" d="M133.95,18.01c.71,0,1.45,0,2.09,.3,1.51,.69,1.07,2.1,.13,3.06-1.55,1.59-3.11,3.18-4.66,4.77-.84,.86-1.03,1.55-1.14,2.71-.15-.05-.33-.14-.44-.25-.1,.19-.21,.37-.31,.56-.07,.12-.17,.25-.3,.24-.13-.02-.19-.17-.23-.29-.05-.17-.05-.34-.11-.52-.1,.32-.32,.61-.61,.78-.03,.02-.06,.04-.09,.03-.03,0-.05-.03-.06-.05-.32-.35-.52-.74-.67-1.19-.19,.48-.48,.93-.89,1.24-.36-.41-.42-1.03-.89-1.3-.12,.52-.36,.88-.77,1.21-.29-.3-.62-.58-.86-.92-.11,.43-.32,.77-.69,1.01-.12-.23-.29-.35-.55-.37-1.43,.72-2.66,1.86-3.49,3.23,.38,.54,.9,1.04,1.46,1.4,.1-.06,.26-.16,.38-.17,.01,.15,0,.3-.04,.45,.26-.05,.5-.18,.7-.35,.02,.28,.05,.56,.08,.85,.23-.14,.6-.25,.83-.39,.03-.02,.06-.03,.09-.03,.05,0,.07,.06,.08,.11,.09,.34,.06,.71-.09,1.03,.12-.28,.66-.45,.9-.55,0,0-.02,.66-.01,.74,.14-.21,.44-.36,.69-.41,.56-.11,.37,.43,.36,.86,0-.12,.62-.58,.74-.59,.39-.03,.26,.63,.26,.96,.23-.15,.48-.31,.72-.46,.03-.1,.14-.07,.2,.01s.06,.19,.05,.29c-.03,.24-.08,.47-.15,.7,0-.01,0-.02,0-.03,.24,.24,.21,.73-.01,1-.22,.26-.56,.4-.88,.51-1.66,.59-3.4,.95-5.13,1.31-1.78,.37-3.57,.74-5.35,1.12-1.06,.22-2.13,.44-3.2,.62-2.5,.42-5.03,.59-7.56,.76-3.51,.24-7.02,.48-10.53,.72-.34,.02-.48,.29-.64,.6-.95,1.87-2.53,3.32-4.15,4.65-1.16,.95-2.42,1.88-3.88,2.22-.47,.11-1.08,.1-1.33-.31-.14-.24-.12-.53-.08-.8,.05-.35,.13-.7,.34-.98,.04-.06,.09-.12,.1-.19,.02-.11-.06-.22-.12-.31-.49-.66-.79-1.46-.86-2.27-4.41,2.57-8.89,5.04-13.43,7.37-.39,.2-.81,.41-1.25,.36-.26-.02-.52-.16-.61-.4-.03-.1-.04-.2-.02-.31,.06-.5,.42-.91,.81-1.23,.39-.32,.83-.59,1.15-.98,.35-.43,.52-.98,.75-1.48,.9-2,2.69-3.45,4.06-5.17,.34-.42,.66-.88,.75-1.42-.27-.42-.96-.36-1.46-.35-5.7,.19-11.34-.27-16.99-1-.94-.12-1.88-.25-2.83-.37-2.7-.36-5.41-.72-8.07-1.33-3.52-.82-7.02-1.78-10.52-2.71-.69-.18-1.35-.44-2.06-.35-.68,.08-1.33,.37-1.82,.85-.07,.06-.13,.13-.21,.18-.26,.15-.6,.01-.8-.21-.2-.23-.29-.52-.41-.8-.61-1.39-2.62-2.03-3.99-2.31-1.48-.31-3.08-.39-4.58-.25-.64,.06-1.29,.14-1.88,.41-1.25,.57-1.97,1.87-2.73,3.02-2.83,4.27-7.38,7.36-12.39,8.43-.19,.04-.36-.12-.55-.18-.06-.02-.12-.05-.15-.09-.07-.09-.04-.21,0-.31,.17-.38,.52-.62,.84-.89,.38-.31,.71-.68,1-1.08,.34-.47,.72-.91,1-1.43,.38-.72,.81-1.54,1.09-2.3,.52-1.41,.95-2.77,1.18-4.27,.12-.82,.23-1.64,.27-2.47,.02-.42,.02-.85,0-1.27-.08-2.37-.54-4.72-1.37-6.94-1.31-3.5-3.05-6.75-4.96-9.95-.18-.3-.36-.6-.63-.82-.31-.26-.72-.41-.94-.75-.14-.21-.18-.47-.26-.71-.24-.7-.78-1.25-1.31-1.78-.12,0-.05-.11,.02-.2,.07-.09,.2-.11,.32-.12,.63-.04,1.25,.14,1.84,.34,3.35,1.15,6.33,3.26,8.76,5.84,2.43,2.58,4.33,5.62,5.85,8.82,.46,.96,.89,1.94,1.58,2.75,1.73,2.03,4.69,1.37,7.05,1.16,2.72-.24,5.44-.7,8.03-1.57,.08-.03,.16-.05,.23-.08,.95-.33,1.97-.79,2.37-1.72,.11-.26,.17-.54,.29-.8,.12-.26,.34-.49,.62-.53,.28-.04,.54,.13,.77,.29,.96,.65,1.92,.69,3.04,.43,2.72-.65,5.44-1.31,8.14-2.05,1.35-.37,2.69-.76,4.02-1.18,1.31-.41,2.71-.79,3.96-1.36,1.2-.55,2.48-.93,3.74-1.35,.94-.31,1.89-.64,2.71-1.2,.34-.23,.64-.5,.95-.77,.71-.62,1.25-1.17,1.24-2.14,0-1.12,.05-2.26,.28-3.35,.25-1.21,.73-2.38,.83-3.61,.19-2.4-1.1-4.78-.67-7.14,.03-.16,.08-.33,.21-.41,.15-.09,.35-.02,.52,.05,2.17,.93,4.16,2.3,5.81,3.99,2.17,2.22,3.72,4.95,5.45,7.53,.56,.82,1.14,1.64,1.93,2.25,.67,.52,1.52,.98,2.28,1.37,.82,.43,1.71,.73,2.63,.89,.55,.1,1.11,.14,1.67,.19,5.68,.47,11.38,.31,17.08,.52,5.78,.22,11.55,.57,17.33,.83,4.33,.2,8.67,.34,13.01,.35Z"/>
  </g>
</svg>