<?xml version="1.0" encoding="UTF-8"?>
<svg id="Layer_2" data-name="Layer 2" xmlns="http://www.w3.org/2000/svg" viewBox="0 0 54.25 40.74">
  <defs>
    <style>
      .cls-1 {
        fill: #808080;
      }
    </style>
  </defs>
  <g id="Layer_1-2" data-name="Layer 1">
    <path class="cls-1" d="M52.43,26.04c-.61,3.29-.53,7.68-1.91,8.35-1.39,.67-2.32-.81-3.48-1.82-1.16-1.01-2.03-3.57-2.85-3.98-.34-.17-.65-.26-.96-.28-.36-.02-.72,.04-1.09,.2-.1,.04-.19,.09-.29,.14-.81,.43-1.65,1.44-1.99,2.72-.48,1.81,1.98,8.54-.28,8.82-3.77,.47-5.15-2.4-8.66-3.2-.19-.04-.38-.08-.59-.12-1.13-.2-2.44-.28-3.8-.33-.92-.04-1.87-.06-2.8-.09-.2,0-.39-.02-.59-.02,1.27,.81,2.53,2.03,2.53,2.03,0,0-2.77,.3-4.56-.05,.7,1.14,1.23,2.34,1.23,2.34,0,0-3.7-1.13-4.86-2.42-.85-.94-1.67-2.62-1.78-3.55-1.51-.69-2.86-1.51-3.96-2.33-.48-.36-.9-.71-1.28-1.06-.06-.06-.12-.11-.18-.17-1.68-1.61-1.76-4.21-3.24-5.06-1.47-.85-4.66,1.03-5.05-.67-.38-1.7,6.56-1.43,6.17-2.51,0,0-5.53,.44-6.44,.01-.91-.43-1.98-1.03-1.67-2.02,.31-.99,5.77-1.07,8.53-3.17,1.49-1.14,2.21-3.41,3.26-5.81,2.32-5.29,4.84-7.99,16.3-9.8,5.32-.84,17.84-3.13,19.43-1.79,1.19,1.01,.73,2.47,.5,4.05-.23,1.58-4.93,9.85-5.36,12.26-.43,2.41-.58,5.38,.37,6.26,.06,.06,.13,.11,.2,.16,.55,.39,1.16,.37,1.8,.19,.41-.12,.83-.3,1.27-.47,1.19-.48,3.93-7.75,7.47-6.56,1.34,.45-.77,6.45-1.38,9.74Z"/>
  </g>
</svg>