<?xml version="1.0" encoding="UTF-8"?>
<svg id="Layer_2" data-name="Layer 2" xmlns="http://www.w3.org/2000/svg" viewBox="0 0 75.63 43.35">
  <defs>
    <style>
      .cls-1 {
        fill: #808080;
      }
    </style>
  </defs>
  <g id="Layer_1-2" data-name="Layer 1">
    <path class="cls-1" d="M26.66,26.56c-.38,.28-.53,.76-.7,1.2-.74,1.96-2.21,3.54-3.7,5-4.22,4.11-9,7.64-14.17,10.48-.17,.09-.41,.17-.53,.02-.15-.18,.08-.43,.27-.55,4.18-2.64,7.83-6.03,11.46-9.39,.4-.37,.81-.75,1.11-1.21,.64-.98,.73-2.22,.81-3.39-.24-.27-.26-.56-.31-.85-.1-.58-.3-1.13-.5-1.69-.52-1.42-1.03-2.84-1.55-4.25-1.02-1.8-1.65-3.85-3.35-4.74-1.52-.8-3.38-.37-5,.18-3.21,1.09-6.33,2.6-8.82,4.91-.53,.49-1.03,1.02-1.66,1.36-.09-.36,.13-.71,.36-1,2.37-3.08,5.95-4.97,9.56-6.41,1.94-.78,3.94-1.45,6.02-1.61,.72-.05,1.46-.04,2.16,.14,.76,.2,1.46,.58,2.15,.97,1.34,.75,2.69,1.5,4.03,2.25,.87,.43,1.8,.87,2.75,1.25,.18,.07,.36,.14,.55,.13,.44-.02,.77-.46,1.21-.52-.81-.33-1.15-1.09-1.04-1.73s.56-1.17,1.04-1.6,1.02-.83,1.4-1.35c-.18,0-.35,0-.53,0,1.38-1.75,3.11-3.23,5.04-4.33-.24,.07-.49,.14-.73,.21,1.74-1.98,3.75-3.72,5.95-5.16-.28,.06-.56,.11-.84,.17,1.97-1.37,4.12-2.49,6.38-3.32-.26-.02-.52-.05-.79-.07,2.3-.55,4.62-1,6.96-1.37-.1-.1-.2-.21-.3-.31,4.23,.15,8.4,1.71,11.7,4.36,.86-.33,1.69-.26,2.41,.03s1.35,.81,2,1.52c1.26,1.35,2.76,2.43,4.25,3.51,.85,.61,1.72,1.23,2.7,1.6,.38,.14,.81,.27,1.04,.61s0,.95-.37,1.09c.14,.27,.41,.45,.52,.74,.14,.4-.12,.85-.48,1.08s-.78,.32-1.19,.45c-.65,.22-1.26,.58-1.86,1.15-.66,2.47-2.27,4.63-4.32,6.16-2.05,1.53-4.5,2.45-6.9,2.99-1.38,1.23-3.07,2.11-4.87,2.52,.09-.09,.18-.18,.27-.27-2.04,.62-4.15,1.03-6.28,1.21,.16-.08,.32-.16,.47-.25-2.01,.26-4.06,.2-6.04-.19,.17-.05,.34-.09,.54-.13-2.06-.03-4.11-.41-6.05-1.12l.51-.07c-1.98-.4-3.91-1.01-5.76-1.82l.56-.04c-1.51-.45-2.84-1.34-4.15-2.22-.2-.13-.41-.28-.47-.51s.13-.53,.36-.47c-.39-.04-.78,0-1.25,.27-.9,1.42-1.64,2.94-2.03,4.35Z"/>
  </g>
</svg>