<?xml version="1.0" encoding="UTF-8"?>
<svg id="Layer_2" data-name="Layer 2" xmlns="http://www.w3.org/2000/svg" viewBox="0 0 62.52 49.04">
  <defs>
    <style>
      .cls-1 {
        fill: #808080;
      }
    </style>
  </defs>
  <g id="Layer_1-2" data-name="Layer 1">
    <path class="cls-1" d="M62.23,22.96c.7,.86-.03,1.66-.73,2.32-.03,.02-.05,.05-.06,.08-.8,2.48-3.29,2.29-5.09,3.7-.61,.48-1.02,.81-1.23,1.01-1.23,1.15-2.68,1.92-4.33,2.27-.15,.03-.35,.15-.48,.27-1.1,1.05-2.39,1.82-3.86,2.3-.04,0-.06,.03-.06,.07-.19,1.88-.55,3.73-1.08,5.55-.52,1.76-1.58,4.19-3.18,5.17-.84,.53-1.82,.64-2.8,.71-.22,.02-.42,.04-.58,.08-.46,.1-.96,.32-1.29-.15-.03-.04-.07-.09-.1-.14-.08-.15,0-.51,.08-.7,.66-1.74,.96-2.89,1.43-4.35,.05-.16,.07-.33,.07-.52-.03-.98,.28-1.72,.8-2.61,.45-.76,.9-1.52,1.37-2.28-.55,.63-1.16,1.16-1.86,1.62-.43,.28-.76,.51-.98,.68-2.59,2-5.79,4.02-9.11,4.46-.52,.07-.99-.04-1.21-.37-.16-.2-.23-.48-.13-.88,.17-.72,.51-1.38,.99-1.95,0,0,0-.01,0-.02-.99,.15-1.97,.13-2.96-.05-.51-.1-1.22,.13-1.74,.21-.34,.05-.74-.03-.91-.27-.13-.14-.18-.35-.04-.62,.07-.16,.15-.31,.22-.47,.57-1.25-.19-2.34-.9-3.31-1.35-1.86,3.38-2.93,4.37-3.13,.02,0,.03-.02,.03-.04-2.22-.67-5.14-1.13-7.36-.27-1.48,.57-2.15,2.25-2.21,3.72-.06,1.52-.14,2.76-.24,3.72-.39,3.94-2.14,7.98-5.9,9.8-.54,.27-2.11,.79-2.55,.13-.08-.09-.13-.2-.15-.34-.02-.13,.02-.29,.1-.48,.64-1.42,.95-2.91,.95-4.47,0-.41-.08-1.02-.05-1.49,.04-.67,.13-1.52,.26-2.55,.04-.32,.09-.79,0-1.1-.26-.85-.57-1.63-.58-2.54,0-.83-.24-1.66-.73-2.29-.3-.37-.68-.67-1.16-.86-.5-.2-.92-.47-1.2-.85-.24-.3-.39-.67-.43-1.13-.02-.23-.12-.46-.27-.67-.28-.37-.7-.67-1.05-.83-.58-.26-1.53-.77-1.95-1.43-.21-.3-.32-.63-.23-.99,.11-.45,.05-.75-.11-.99-.25-.33-.7-.53-1.14-.82-.25-.16-.49-.35-.65-.57-.25-.32-.34-.69-.07-1.12,.12-.2,.22-.41,.28-.63,0-.03,.03-.06,.06-.07,1.13-.33,2.27-.53,3.43-.59,1.53-.09,3.24,.22,4.7,.61,2.13,.57,4.25,1.21,6.34,1.93,2.42,.83,3.95-.59,5.38-2.27,.92-1.09,1.78-2.22,2.56-3.41-.61,.04-1.2,.21-1.76,.49-.23,.13-.82,.63-1.06,.25-.02-.02-.04-.05-.06-.08-.73-1.41,.33-1.67,1.01-2.59,.04-.06,.05-.14,0-.2-.37-.64,.43-1.34,.76-1.85,.02-.03,.03-.07,0-.11-.02-.05-.05-.1-.08-.14-.13-.15-.3-.23-.4-.37-.11-.12-.17-.28-.09-.59,.11-.42,.98-1.07,1.32-1.34,.07-.06,.08-.16,.03-.23-.38-.49-1.48-1.68-.06-1.94,.47-.09,1.03-.12,1.43-.38,.03-.02,.05-.05,.05-.08,.03-.4-.84-1.43-.31-1.68,.19-.09,.54-.03,.75-.07,.6-.11,1.54-.23,2.19-.52,.02,0,.04-.04,.02-.07h0c-.3-.42-.55-1.26-.05-1.6,.1-.07,.3-.12,.6-.15,1.06-.12,2.06-.36,3-.73,.12-.05,.15-.12,.09-.22-.39-.42-.82-.8-1.25-1.16-.04-.03-.07-.07-.09-.1-.32-.33-.1-.94,.46-.88,1.09,.11,2.17,.32,3.22,.64,.04,0,.08,0,.09-.05v-.02c.04-.71-.35-1.56-.69-2.4-.1-.25-.07-.43,.11-.55,.45-.3,1.95,.45,2.4,.7,.88,.52,1.68,1.06,2.36,1.62,.03,.02,.06,.03,.09,.04,.41,.07,.64,.38,.88,.55,.33,.24,.62,.51,.88,.82,.14,.17,.27,.34,.38,.53,.02,.01,.04,0,.06,0,.54-.4,.11-1.24,.13-1.76,0-.09,.04-.24,.1-.44,.08-.25,.09-.53,.04-.83-.03-.16,.05-.29,.22-.39,.28-.18,.54-.03,.77,.27,.48,.57,.85,1.8,1.09,2.15,.02,.01,.04,.02,.06,.02,.2,.01,.38,.15,.55,.35,.32,.35,.59,.94,.79,1.3,.01,0,.03,.01,.05,.01,.63,.1,.99,.4,1.26,.8,.28,.41,.44,.92,.66,1.42,0,0,.02,.01,.03,.02,1.81,.73,3.19,1.3,4.12,1.7,2.93,1.25,5.4,3.09,7.41,5.51,.62,.73,1.23,1.35,1.84,2.04,.41,.48,.9,.61,1.33,1.01,.08,.08,.15,.16,.22,.24,.46,.53,.64,1.17,.56,1.93,0,0,0,0,0,0,0,0,0,0,0,0,.31,.06,.51,.11,.59,.14,.28,.11,.49,.27,.64,.45,.51,.58,.33,1.46-.19,2.14,0,.01,0,.02-.01,.03,.21,.09,.42,.16,.57,.3,.07,.07,.12,.13,.17,.2Z"/>
  </g>
</svg>