<?xml version="1.0" encoding="UTF-8"?>
<svg id="Layer_2" data-name="Layer 2" xmlns="http://www.w3.org/2000/svg" viewBox="0 0 102.6 42.14">
  <defs>
    <style>
      .cls-1 {
        fill: #808080;
      }
    </style>
  </defs>
  <g id="Layer_1-2" data-name="Layer 1">
    <path class="cls-1" d="M98.37,29.03c-3.88,2.3-8.35,3.58-12.85,3.71-1.09,.4-1.97,1.04-2.97,1.4-.75,.27-1.55,.38-2.34,.48l-5.33,.7c-.4-.28-.73,.06-.87,.35-.6,1.19-1.2,2.38-1.93,3.49-.86,1.32-2.03,2.6-3.58,2.9-1.53,.3-3.08-.42-4.64-.5,.01-.55-.17-1.11-.5-1.56-1.23-.05-2.39-.07-3.54-.21-.5-.06-1.07-.2-1.26-.67-.1-.24-.07-.51-.02-.77,.17-.92,.56-1.8,1.12-2.55-2.38,.1-4.68-.01-6.9-.5-3.51,2.44-7.87,3.48-11.88,2.66-1.87-.39-3.64-1.15-5.4-1.91-1.44-.62-2.87-1.24-4.31-1.87-.67-.29-1.42-.69-1.53-1.41-1.27-.37-2.45-1.01-3.61-1.64-.51-.28-1.01-.55-1.52-.83-.87-.47-1.86-1.12-1.87-2.11,.82-.3,1.85-.71,2.92-.9,1.62-.28,3.29-.05,4.92,.18-2.49-.83-5-1.16-7.51-1.16-1.17,0-2.35,.07-3.47,.4-.99,.29-1.91,.78-2.86,1.19-2.6,1.13-5.45,1.7-8.28,1.68-1.93-.07-3.44-.09-4.9-.37-.74-.14-1.49-.37-2.04-.88-.55-.51-.85-1.36-.53-2.04C.32,24.93,.02,23.55,0,22.16c-.02-1.4,.25-2.83,1.02-4-.58-1.79-.67-3.3-.43-4.78,.23-1.47,.8-2.91,1.75-4.07-.07-.84,.05-1.66,.4-2.4s.94-1.41,1.72-1.64c3.14-.27,6.25,1.21,9.06,2.89s5.54,3.61,8.69,4.76c.32-.7,.23-1.57-.22-2.19,1.14-.96,2.57-1.57,4.05-1.75,.5-.06,1.01-.07,1.49-.22,.55-.17,1.03-.51,1.5-.83,3.32-2.3,7.01-4.39,11.63-4.44,2.63-.98,5.3-1.9,8.06-2.42,2.47-.46,5-.6,7.51-.73,1.3-.07,2.6-.14,3.9-.21,1.34-.07,2.69-.14,4.03-.11,5.03,.11,10.02,1.69,14.42,4.61,5.01,1.6,9.79,3.9,14.06,6.87,2.01,.58,3.74,1.87,5.33,3.23,2.18,1.88,4.29,4.19,4.63,7.21-.11,.35-.52,.5-.88,.49s-.71-.14-1.07-.16c-.5-.03-1.01,.18-1.4,.71,.45,.63,1.05,1.15,1.73,1.52,.25,.14,.54,.27,.65,.54,.14,.33-.06,.71-.32,.95s-.59,.4-.83,.66c-.45,.47-.58,1.23-1.15,1.54-.23,.39-.61,.63-.97,.84Z"/>
  </g>
</svg>