<?xml version="1.0" encoding="UTF-8"?>
<svg id="Layer_2" data-name="Layer 2" xmlns="http://www.w3.org/2000/svg" viewBox="0 0 52.46 57.06">
  <defs>
    <style>
      .cls-1 {
        fill: #808080;
      }
    </style>
  </defs>
  <g id="Layer_1-2" data-name="Layer 1">
    <path class="cls-1" d="M37.77,.66c.79,.22,1.58,.42,2.34,.73-2.52-.72-5.15-1.26-7.78-.97-2.26,.18-4.44,.94-6.43,2-1.8,.97-3.46,2.22-4.8,3.78-1.86,2.13-3.16,4.72-3.96,7.42-.82,2.83-1.26,5.84-.72,8.77-.7,.11-1.39,.24-2.06,.45-.26-5.56,1.18-11.2,4.23-15.86,1.27-1.94,3.03-3.54,5.07-4.66C27.92,0,33.08-.63,37.77,.66Zm6.72,5.61c-1.74-1.48-3.93-2.46-6.22-2.62-2.54-.17-5.09,.32-7.46,1.2-2.86,1.05-5.63,2.55-7.77,4.76-3.26,3.4-5.11,7.98-5.64,12.62,3.9-.38,7.83,.68,11.28,2.48,.45,.21,.82,.63,1.36,.59-.24-.32-.59-.54-.74-.91-.15-.48-.75-.48-1.13-.68-.1-.22-.14-.47-.3-.66-.29-.16-.6-.27-.9-.4-.03-.19-.07-.39-.11-.58-.33-.23-.72-.37-1.07-.56-.04-.26-.07-.51-.1-.77-.44-.18-1-.17-1.33-.52-.08-.54-.01-1.09,.05-1.63-.9,.58-1.85,1.09-2.73,1.7,.73-1.15,1.38-2.36,1.95-3.59-1.48,1.21-2.9,2.5-4.33,3.77,.6-3.62,2.04-7.16,4.53-9.89,1.99-2.17,4.46-3.86,7.13-5.08,2.19-.97,4.57-1.65,6.99-1.57,2.18,.02,4.32,.83,6.06,2.14,1.19,.85,2.2,1.93,3.49,2.63-1.07-.73-2.03-1.59-3.01-2.43Zm-3.95,17.05c.74-.55,1.55-.98,2.34-1.46,1.37-.83,2.74-1.67,4.14-2.45-2.01,.98-3.97,2.08-5.95,3.11-1.49,.87-3.19,1.25-4.82,1.76-1.88,.54-3.75,1.1-5.63,1.67,.67,.46,1.35,.91,2,1.42,.95,.72,1.73,1.63,2.69,2.33,.02-.28,.05-.57,.07-.85,.21-.13,.41-.26,.62-.39-.08-.26-.17-.51-.24-.77,.3-.23,.7-.4,.75-.82,.06-.35,.44-.45,.68-.64-.07-.18-.13-.36-.2-.55,.99-1.06,2.41-1.49,3.53-2.37Zm8.67,10.17c-.26,1.72,.15,3.42,.34,5.12,.25,1.85,.32,3.71,.51,5.56-2.86-1.18-5.21-3.26-7.39-5.4-.93-.87-1.93-1.84-3.26-1.98-.7-.09-1.32,.28-1.96,.46-4.34,.05-8.69,.19-13.02-.18-2.14-.14-4.31-.46-6.45-.14-.68,.1-1.37,.12-2.04,.24,1.51,.02,3-.34,4.51-.22,2.21,.17,4.4,.5,6.61,.62,3.38,.15,6.76,.13,10.14,.03-.86,.74-1.63,1.61-2.59,2.23-5.43-.03-10.73-1.49-16.14-1.86-.74-.03-1.46-.2-2.17-.38,.74,.32,1.53,.53,2.33,.59,4.49,.46,8.89,1.5,13.38,1.91,.73,.05,1.46,.16,2.19,.21-.96,.81-2,1.52-3.02,2.26-3.38-1.51-7.17-1.58-10.65-2.77-.97-.27-1.93-.58-2.92-.75,2.29,.66,4.5,1.62,6.84,2.1,2.15,.45,4.3,.94,6.36,1.7-1.42,.85-2.9,1.62-4.44,2.23-1.15-.51-2.31-1.01-3.4-1.64-2.09-1.15-3.91-2.77-6.18-3.57,.74,.42,1.52,.77,2.23,1.25,1.6,1.1,3.11,2.35,4.85,3.24,.64,.34,1.3,.61,1.96,.91-1.62,.57-3.3,.99-5.01,1.21,1.42,.65,2.99,.85,4.53,.93,.61,.05,1.34,.14,1.73,.68,.24,.4-.11,.81-.24,1.18,.41,.22,1,.42,1.01,.98-.07,.31-.27,.56-.41,.83,.44,.18,.91,.3,1.38,.39,.06,.19,.12,.39,.19,.59,.27,.06,.54,.12,.81,.18,.16,.23,.19,.61,.52,.65,2.08,.62,4.19,1.15,6.26,1.8,.29-.59,.54-1.2,.84-1.79-.21,.63-.49,1.24-.75,1.85,1.98,.63,3.93,1.35,5.88,2.09-2.01-.61-4.02-1.26-6.03-1.85-.4,.88-1.22,1.5-2.15,1.76-1.92,.56-3.96,.28-5.9-.03-2.21-.4-4.38-1.1-6.33-2.23-2.78-1.56-4.61-4.49-5.29-7.54,.48,.45,.76,1.07,1.24,1.52,.45,.49,1.13,.78,1.39,1.43,.6,1.33,1.6,2.46,2.82,3.26,2.6,1.77,5.61,2.95,8.72,3.42,1.4,.16,2.91,.26,4.19-.43,.5-.26,.86-.71,1.19-1.16-3.26-1.04-6.76-.92-10.02-1.94-1.91-.63-3.71-1.57-5.32-2.76-1.4-1.06-2.8-2.24-3.6-3.84-2.09-.16-4.11-.86-5.99-1.74-1.23-.62-2.56-1.31-3.21-2.59,1.67,.27,3.19-.61,4.57-1.43,1.34-.84,1.94-2.47,1.99-4-.25,.96-.46,1.97-1.09,2.77-.68,.93-1.78,1.37-2.79,1.83-.82,.38-1.75,.56-2.65,.37,.42-.53,.97-.97,1.59-1.26,.77-.36,1.63-.61,2.22-1.26,1.01-1.07,1.27-2.62,1.29-4.04-.02-1.07-.16-2.14-.48-3.16,.15,1.65,.4,3.34-.06,4.97-.23,.86-.67,1.71-1.42,2.23-.69,.46-1.51,.66-2.23,1.07-.72,.38-1.28,.99-1.96,1.44-.81-.33-1.47-.93-2.19-1.41-1.22-.88-2.49-1.71-3.76-2.51-.53-.34-1.09-.7-1.33-1.31,.23-.16,.47-.48,.79-.32,.45,.32,.5,.94,.82,1.38-.09-.77-.53-1.42-.96-2.03-.49-.64-.19-1.78,.68-1.89,.47,.9,.66,1.91,1,2.86,.19,.59,.64,1.02,.93,1.56-.38,.01-.75,.03-1.13,.04,.37,.17,.9,.49,1.28,.16,.24-.33-.03-.7-.21-.98-.75-1.04-.94-2.33-1.4-3.5,1.84-1.88,3.63-3.8,5.5-5.65,1.26-1.29,2.63-2.51,4.26-3.33,2.44-1.22,5.16-1.99,7.91-1.86,1.43,.07,2.85,.3,4.23,.65-1.91,1.04-3.48,2.55-5.2,3.87-.7,.5-1.4,1-2.04,1.57,1.58-.98,3.12-2.02,4.59-3.16,1.04-.77,2.1-1.52,3.23-2.14,1.63,.46,3.18,1.2,4.68,1.99-2,.75-4.01,1.48-6.07,2.02-2.01,.5-3.92,1.35-5.73,2.34,1.04-.38,2.03-.88,3.08-1.23,2-.74,4.14-1,6.15-1.73,1.01-.33,1.97-.78,2.99-1.1,1.75,1,3.32,2.29,4.87,3.56-1.67,.28-3.37,.33-5.05,.48-2.97,.24-5.95,.37-8.91,.72-1.49,.21-3.03,.44-4.34,1.21,2.54-.97,5.29-1.01,7.96-1.24,3.58-.28,7.19-.31,10.75-.82,.82,.62,1.64,1.25,2.32,2.02-4.52-.06-9.05-.18-13.57,0-2.27,.15-4.53,.42-6.79,.6,1.95,.14,3.89-.18,5.84-.24,4.77-.28,9.55-.04,14.33-.02,.94-.05,1.7,.7,2.64,.63,1.38-.07,2.35-1.17,3.24-2.1,2.1-2.29,4.37-4.58,7.28-5.81-.14,2.86-.36,5.72-.74,8.57Zm-41.05-2.96c-.69,.13-1.01,1.03-.57,1.58,.43,.63,1.51,.5,1.73-.25,.36-.73-.4-1.56-1.16-1.33Zm1.45-.6c-.73-.69-2.07-.62-2.64,.24-.44,.51-.47,1.21-.32,1.84,.02-.81,.17-1.8,1.01-2.15,1.1-.52,2.37,.46,2.45,1.59-.02,.36-.12,.72-.14,1.09,.54-.82,.38-1.96-.35-2.6Zm7.04,3.76c7.61-.22,15.22-.05,22.83,0-2.26-.22-4.54-.25-6.81-.31-5.34-.1-10.7-.32-16.02,.31Zm.17,.98c7.48,.12,14.97,.24,22.46,.05-3.14-.11-6.27-.15-9.41-.2-4.35,0-8.7-.17-13.05,.15Zm22.95,1.21c-2.86-.18-5.72-.04-8.58-.07-4.69,.07-9.38-.36-14.06-.06,.83,.11,1.67,.09,2.51,.11,2.86,.06,5.72,.2,8.58,.24,3.85,.01,7.7-.11,11.55-.23Zm1.22,9.35c-.86-.34-1.61-.9-2.17-1.62-.02-.24,0-.48,0-.71-.32-.19-.64-.38-.95-.58,0-.23,.02-.46,.04-.69-.35-.18-.7-.36-1.02-.58,.05-.25,.11-.5,.18-.75-.44-.26-.87-.54-1.27-.85-1.19,1.2-2.33,2.49-3.8,3.38,6.82,2.48,13.7,4.83,20.48,7.43-3.84-1.65-7.69-3.25-11.48-5.02Z"/>
  </g>
</svg>