<?xml version="1.0" encoding="UTF-8"?>
<svg id="Layer_2" data-name="Layer 2" xmlns="http://www.w3.org/2000/svg" viewBox="0 0 105.38 43.91">
  <defs>
    <style>
      .cls-1 {
        fill: #808080;
      }
    </style>
  </defs>
  <g id="Layer_1-2" data-name="Layer 1">
    <path class="cls-1" d="M92.96,20.76c3.2-.16,6.27-.23,9.23-.23,.2,0,.3,.1,.29,.31v.18c-.01,.25-.2,.46-.44,.51-1.66,.31-3.33,.53-5,.66-1.41,.11-2.82,.41-4.25,.55,0,0-.01,0-.01,.01,0,.03,0,.03,0,.01,0,0,0,0,0,0,2.73-.2,5.82-.24,9.28-.1,.25,0,.38,.14,.38,.39,0,.04,0,.08,0,.11,0,.31-.14,.49-.45,.52-2.98,.37-5.96,.6-8.94,.71-.02,0-.03,.02-.03,.04,0,.32-.03,.35-.08,.09,0-.03,0-.05,.04-.05,2.96,.17,5.99,.25,9.08,.22,.36,0,.52,.17,.51,.53v.23c-.03,.36-.22,.55-.57,.59-2.69,.25-5.39,.37-8.09,.36-.04,0-.06,.02-.06,.06h0s.02,.07,.06,.07c2.85,.25,5.71,.39,8.57,.4,.27,0,.38,.13,.34,.39,0,.04-.01,.08-.02,.12-.05,.33-.24,.5-.57,.53-2.75,.22-5.6,.28-8.55,.19,0,0-.01,0-.01,.01,0,0,0,.01,.01,.01,2.52,.34,5.47,.56,8.87,.65,.11,0,.21,.04,.29,.1,.25,.18,.34,.37,.28,.58-.09,.32-.31,.49-.64,.49-2.44,.03-4.75,.05-6.95,.08-.04,0-.07,.02-.07,.07h0s.02,.07,.07,.08c2.44,.27,4.86,.5,7.27,.71,.32,.03,.6,.21,.76,.48,.03,.06,.06,.11,.09,.18,.06,.14-.01,.31-.16,.37-.03,.01-.06,.02-.09,.02-2.44,.15-4.89,.08-7.33-.21-.04,0-.06,.01-.07,.05h0c-.01,.07,.02,.11,.08,.12,1.46,.29,2.79,.6,4.34,.75,1.1,.11,2.19,.27,3.28,.49,.26,.05,.4,.21,.43,.47,0,.04,0,.07,.01,.11,.04,.32-.1,.48-.43,.47-1.81-.04-3.63-.18-5.44-.42-.04,0-.07,.01-.08,.06l-.02,.11s0,.03,.03,.03c2.07,.49,4.12,.85,6.16,1.07,.27,.03,.42,.18,.45,.45l.02,.15c.01,.13-.08,.25-.22,.27,0,0,0,0-.01,0-1.84,.09-3.69-.03-5.53-.38-.06-.01-.1,.01-.11,.08h0c-.01,.07,.02,.11,.09,.13,2.01,.27,4.03,.63,6.05,1.08,.09,.02,.17,.08,.21,.16,.07,.13,.08,.25,.03,.36-.05,.14-.15,.21-.3,.21-6.33,.08-11.63-3.82-17.1-7.44-.8-.53-1.6-.88-2.46-1.25-.13-.06-.19-.15-.17-.29,.16-1.71,.11-3.4-.16-5.07-.02-.14,0-.28,.04-.41,.47-1.28,.5-2.55,.08-3.81-.24-.72-.25-1.3-.39-2-.03-.14,.01-.25,.13-.33,1.14-.83,2.36-1.57,3.47-2.43,1.81-1.41,3.72-2.85,5.74-4.3,2.96-2.14,6.33-3.46,10.13-3.96,.16-.02,.31,.06,.38,.2l.07,.13c.12,.23,.06,.38-.2,.44-2.06,.48-3.87,.98-5.43,1.5-.04,.02-.06,.05-.05,.1h0c.01,.05,.04,.07,.09,.06,1.61-.31,3.17-.74,4.83-.76,.63,0,.68,.16,.16,.51-.47,.31-.97,.52-1.51,.64-2.37,.52-4.64,1.26-6.83,2.23-.04,.02-.06,.06-.04,.1h0s.04,.04,.07,.03c2.51-.97,5.1-1.53,7.78-1.68,.35-.02,.43,.12,.26,.42l-.09,.16c-.16,.28-.42,.47-.73,.54-2.99,.64-5.91,1.59-8.77,2.86-.03,.01-.04,.03-.04,.06,0,0,0,.02,0,.03,0,.01,.01,.02,.03,.01,2.86-.89,5.58-1.8,8.62-1.88,.15,0,.25,.06,.32,.18,.06,.11,.06,.22,0,.35-.04,.1-.13,.19-.27,.25-.54,.27-1.08,.46-1.61,.57-2.33,.5-4.66,1.12-6.98,1.84-.03,0-.05,.03-.04,.07h0s.02,.02,.03,.02c2.62-.6,5.26-1.03,7.92-1.29,.31-.03,.48,.11,.5,.42v.21c.02,.13-.07,.25-.2,.29-3.16,.76-6.31,1.54-9.45,2.35-.05,.01-.07,.04-.06,.1h0s.02,.02,.03,.02c2.34-.42,4.68-.8,7-1.13,.75-.11,1.52-.13,2.31-.07,.14,.01,.22,.09,.24,.23,.05,.36-.11,.6-.47,.7-1.76,.53-3.57,.92-5.43,1.17-1.24,.17-2.5,.5-3.78,.69-.05,0-.07,.03-.06,.08,0,.01,0,.02,.02,.02l9.27-.89c.22-.02,.33,.08,.31,.3l-.03,.4c-.01,.25-.14,.4-.39,.44-3.05,.57-6.12,.99-9.21,1.27-.04,0-.07,.03-.06,.07h0s.03,.07,.07,.07Zm-83.16-1.56c0,.89,.72,1.61,1.61,1.61s1.61-.72,1.61-1.61-.72-1.61-1.61-1.61-1.61,.72-1.61,1.61ZM.5,23.51c-.29-.06-.45,.05-.5,.34-.02,.12,.03,.25,.13,.32l6.97,5.73c.61,.5,1.24,.54,1.91,.13,.11-.07,.22-.14,.34-.21,.68-.42,.69-.86,.03-1.31-1.88-1.29-4.02-2.63-6.42-4.04-.77-.45-1.59-.77-2.47-.96Zm72.81-3.73c1.4-.06,2.08-.62,2.02-1.67,0-.15-.08-.25-.23-.29-2.02-.55-3.91-.77-5.28-2.54-.09-.11-.2-.18-.34-.21-.09-.01-.17-.02-.26,0-.21,.02-.34,.02-.4,0-.1-.04-.16-.11-.19-.2-.05-.16,0-.25,.17-.28l.2-.04s.09-.03,.12-.06c.1-.09,.11-.25,.02-.35-.6-.65-1.21-1.23-1.85-1.76-.05-.04-.11-.07-.17-.08-.2-.03-.38,.1-.41,.3,0,.04-.05,.08-.12,.12-.11,.05-.16,.02-.16-.1,0-.18,.06-.35,.16-.51,.07-.12,.07-.24-.02-.35-.09-.12-.22-.18-.38-.18-.1,0-.17,.03-.21,.09-.05,.07-.07,.17-.06,.3,0,.06-.02,.1-.09,.1h-.17c-.06,0-.08-.02-.08-.08,0-.42,.06-.69,.2-.8,.21-.17,.19-.31-.05-.44-.22-.11-.4-.29-.53-.53-.12-.23-.23-.22-.33,.02-.12,.29-.35,.53-.7,.73-.17,.1-.24,.05-.21-.15,.05-.3,.16-.57,.33-.8,.1-.13,.07-.22-.08-.28-.75-.27-1.26,.44-1.84,.83-.04,.03-.08,.04-.1,.03-.03,0-.06-.03-.08-.07-.02-.03-.02-.05,0-.08,.27-.35,.54-.71,.79-1.07,.18-.25,.24-.48,.18-.69-.01-.04-.03-.08-.06-.11-.1-.12-.28-.13-.4-.03-.63,.52-1.19,1.02-1.68,1.51-.01,.01-.03,.01-.04,0l-.08-.08c-.05-.05-.05-.1,0-.15,.47-.49,.87-.96,1.22-1.42,.36-.48,.24-.68-.35-.6-.77,.11-1.59,.64-2.47,1.58-.02,.03-.06,.03-.09,0l-.09-.09s0,0,0,0c-.05-.05-.06-.14,0-.19,.7-.7,1.19-1.48,1.46-2.36,.05-.18-.01-.3-.2-.35-.48-.14-.93,.04-1.34,.53-.41,.48-.82,.93-1.24,1.36-.03,.03-.05,.03-.08,0,0,0-.02-.02-.03-.03-.02-.04-.02-.09,.01-.13,.43-.63,.84-1.29,1.24-1.96,.07-.12,.09-.26,.05-.39-.08-.25-.35-.39-.6-.31-.79,.24-1.59,.87-2.4,1.9-.03,.04-.06,.04-.1,0l-.14-.11s-.04-.05-.01-.09c.65-.86,1.08-1.7,1.3-2.5,.04-.16-.01-.27-.17-.32-.29-.1-.6-.15-.91-.13-.16,0-.29,.08-.39,.21l-1.64,2.11c-.05,.06-.13,.07-.19,.03l-.09-.06s0,0,0,0c-.03-.02-.03-.07,0-.1,.64-.81,1.02-1.47,1.15-1.98,.31-1.28-.02-1.48-.99-.59-.45,.41-.96,1.06-1.51,1.93,0,0-.01,.01-.02,0l-.1-.06c-.06-.04-.08-.11-.05-.18l1.31-2.3s.02-.03,.02-.05c.09-.22-.01-.47-.23-.56-.59-.25-1.12-.1-1.6,.46-.65,.74-1.22,1.46-1.71,2.15-.04,.06-.1,.07-.16,.03l-.09-.05s-.02-.02,0-.04c.53-.9,1.02-1.81,1.46-2.71,0,0,0,0,0,0,.11-.23,0-.5-.23-.61-.04-.02-.08-.03-.12-.05-.32-.12-.69,0-.88,.29-.57,.88-1.16,1.69-1.76,2.43-.05,.06-.1,.06-.16,.02h0s-.04-.06-.01-.1c.6-.88,1-1.81,1.22-2.79,.03-.12-.04-.24-.15-.29-.55-.21-.94,.01-1.24,.52-.5,.83-.95,1.68-1.37,2.54-.03,.06-.07,.08-.13,.05h0c-.06-.03-.08-.07-.06-.14,.32-.85,.62-1.77,.89-2.76,.02-.08,.03-.17,.01-.25-.05-.34-.37-.58-.71-.53-.36,.05-.65,.25-.87,.61-.53,.85-1.08,1.71-1.64,2.58-.03,.05-.07,.06-.12,.03l-.11-.07s-.02-.02,0-.03c.53-.96,.91-1.95,1.15-2.97,.03-.15-.02-.26-.15-.33-.42-.25-.81-.16-1.15,.21-.84,.96-1.15,2.01-1.64,3.11-.03,.06-.07,.07-.13,.05h0c-.06-.02-.08-.06-.06-.12,.26-.9,.57-1.82,.91-2.77,.21-.56,.01-.81-.58-.76-.34,.03-.64,.25-.89,.68-.48,.81-.93,1.62-1.33,2.42-.03,.06-.07,.07-.13,.05h0s-.04-.03-.03-.06c.3-1.01,.57-2,.79-2.97,.04-.17-.02-.28-.2-.32-.38-.08-.69,.08-.93,.49-.71,1.19-1.22,2.2-1.54,3.05,0,.01-.02,.02-.03,.01l-.12-.04c-.1-.04-.13-.1-.09-.2l1.19-2.93c.02-.06,.03-.13,.01-.2-.04-.17-.22-.27-.38-.22-1.49,.41-2.38,2.21-3,3.5-.02,.05-.06,.06-.11,.04h0c-.05-.02-.06-.06-.04-.1,.44-1.06,.89-2.13,1.36-3.22,.01-.02,.02-.05,.02-.08,0-.12-.09-.21-.2-.21-.72-.01-1.32,.28-1.82,.88-.45,.55-1.11,1.58-1.98,3.08-.04,.06-.08,.07-.14,.04l-.09-.05s-.02-.02-.01-.03c.63-1.1,1.22-2.24,1.75-3.39,.11-.23,.04-.32-.21-.26-.35,.09-.66,.24-.94,.45-1.24,.95-2.12,2.24-2.63,3.86,0,.02-.03,.03-.05,.03l-.11-.03c-.06-.01-.08-.04-.07-.1,.13-.58,.2-.88,.22-.91,.51-1.01,.36-1.12-.44-.32-1.98,1.97-3.55,4.43-4.71,7.37-.56,1.42-.42,2.76,.43,4.01,.52,.78,1.22,.83,1.94,.32,.11-.08,.19-.19,.23-.32,.41-1.3,.63-2.64,.66-4.01,0-.39,.17-.68,.47-.85,.14-.08,.2-.04,.19,.12l-.13,2.38c0,.16,.07,.26,.23,.3l1.25,.3c.07,.02,.1,.06,.1,.14l-.02,.11s-.01,.02-.03,.02c-.39-.04-.79-.02-1.19,.05-.15,.03-.26,.11-.32,.24-.27,.53-.43,1.11-.48,1.73-.01,.15,.04,.28,.16,.37,1.31,1.03,1.41,2.26,.28,3.7-.15,.19-.17,.45-.05,.65l1.1,1.85c.06,.11,.15,.15,.27,.13l.7-.13c.57-.11,.61,0,.13,.32-1.61,1.07-2.17,2.6-1.71,4.61,.42,1.81,.6,2.24,2.63,2.06,.55-.05,.57,.02,.05,.21-.7,.25-1.56,.37-2.02,1.01-1.19,1.63-.81,3.99,.2,5.57,.08,.12,.18,.2,.31,.26,.36,.15,.73,.23,1.12,.24,.05,0,.08,.03,.08,.08h0s-.01,.04-.04,.05c-.43,.06-.85,.09-1.25,.09-.13,0-.23,.1-.23,.23v.41c0,.22,.11,.33,.34,.32l3.06-.11c.14,0,.23-.07,.29-.19,.15-.3,.21-.62,.19-.97,0-.15-.08-.21-.23-.18-.23,.04-.5,.14-.81,.29-.1,.05-.21,.07-.31,.06-.19-.01-.2-.06-.03-.15,1.56-.77,2.27-2.04,2.13-3.8-.1-1.26-.63-2.46-1.58-3.61-.08-.1-.08-.2,0-.3,1.89-2.35,1.73-4.6-.5-6.76-.09-.09-.09-.17,0-.26,.22-.19,.41-.43,.57-.72,.83-1.59,1.17-2.8,.78-4.65-.22-1.07-.48-2-.77-2.8-.06-.17-.19-.27-.39-.3-.19-.03-.19-.08-.01-.14,.23-.08,.39-.24,.49-.47,.32-.81,.65-1.66,.97-2.55,.02-.06,.07-.12,.13-.15,.14-.08,.32-.04,.4,.1,.03,.06,.08,.11,.13,.14,.27,.15,.31,.35,.15,.61-1.32,2-1.21,4.06,.34,6.19,.08,.11,.19,.17,.33,.15,.76-.08,1.5-.27,2.21-.58,.13-.05,.26-.07,.39-.05,.69,.11,1.17-.19,1.42-.91,.56-1.61,.47-3.26-.25-4.96,0,0,0,0,0-.01-.07-.18,.02-.39,.2-.46l.12-.05c.1-.04,.22,0,.26,.11,.52,1.09,.92,2.21,1.21,3.34,.04,.15,.14,.22,.29,.19,.96-.17,1.87-.48,2.74-.93,.04-.02,.06,0,.08,.03h0s0,.06-.03,.08c-.69,.37-1.42,.69-2.17,.94-1.65,.55-2,2.84-1.49,4.22,.26,.7,.61,1.35,1.04,1.97,.08,.11,.19,.16,.32,.12,1.57-.37,2.78-.86,3.6-1.48,1.8-1.35,.49-4.6,.3-6.41-.1-.88,.3-1.46,1.18-1.74,.22-.07,.26-.01,.13,.18-.45,.65-.57,1.4-.35,2.25,.23,.92,.5,1.86,.9,2.69,.1,.2,.32,.3,.53,.23,1.08-.34,2.16-.68,3.23-1.02,.53-.17,1.14-1.17,1.83-2.99,0,0,0-.02,.01-.03,.06-.1,.19-.14,.29-.09,.17,.09,.27,.24,.29,.46,.02,.28,0,.5-.05,.67-.25,.76-.49,1.47-.74,2.14-.05,.15-.05,.29,.02,.42l1.25,2.68c.14,.3,.36,.39,.67,.27,1.07-.41,2.15-.7,3.24-.87,.15-.03,.28-.12,.34-.26,.4-.86,.65-1.85,.76-2.98,.08-.81,.35-.89,.83-.23,.72,.99-.19,2.71-.48,3.81-.04,.15-.03,.3,.04,.44l1.3,2.69c.07,.13,.22,.2,.36,.17,1.52-.39,2.52-.84,3-1.37,.62-.67,1.14-2.57,1.16-3.5,.01-.65,.17-.69,.48-.12l.37,.69c.08,.15,.21,.24,.38,.26l.85,.12c.15,.02,.16,.07,.03,.14-.43,.25-.76,.26-1.09,.69-.67,.86-.95,1.72-.82,2.59,.15,1.04,.57,2.15,1.27,3.31,.07,.12,.19,.19,.33,.2,1.23,.08,2.12-.44,2.66-1.57,.78-1.63,.82-3.3,.12-5.01,0-.02-.01-.03-.02-.05-.16-.31-.54-.43-.85-.27-.13,.07-.26,.08-.38,.05-.18-.06-.17-.11,0-.16,.13-.03,.24-.09,.34-.17,.58-.43,1.06-.34,1.44,.28,.58,.94,1.02,2,1.31,3.2,.03,.13,.02,.27-.03,.39-.46,1.09-1.31,2.58-1.02,3.76,.29,1.13,1.2,2.48,.57,4.14-.05,.12,0,.17,.13,.16l3.63-.57s.07-.02,.1-.03c.17-.09,.24-.3,.16-.47l-.2-.41c-.12-.25-.31-.33-.58-.25l-.68,.21c-.2,.06-.23,.02-.09-.13,1.27-1.39,1.79-3.03,1.56-4.93-.07-.59-.3-1.18-.69-1.77-.08-.12-.19-.17-.33-.17-.55,.03-1.05,.03-1.51,0-.86-.03-.86-.07,0-.11ZM34.01,3.11c.37-.85,.88-1.7,1.54-2.57,.04-.05,.08-.05,.13-.02l.08,.06s0,.01-.02,.04l-1.67,2.53c-.17,.26-.19,.25-.07-.04Zm-6.23,7.79s0,0,0,0c-.2,.1-.41,.1-.46,0s.07-.27,.28-.37h0c.2-.1,.41-.1,.46,0,.05,.1-.07,.27-.28,.37Zm40.04,3.04s-.04-.07-.04-.13c0-.04,.02-.08,.05-.12,.09-.09,.2-.13,.34-.12,.02,0,.05,0,.07,.02,.09,.05,.13,.16,.08,.25-.04,.08-.14,.13-.29,.16-.07,.01-.14,0-.2-.06Zm-48.4-.8c1.1,1.44,2.11,3,3.03,4.67,.78,1.42,1.2,2.69,1.26,3.83,.12,2.38-.65,4.54-2.32,6.47-2.16,2.5-4.64,4.29-7.46,5.39-.9,.35-.87,.56,.09,.63,1.41,.11,2.9-.59,4.17-1.2,3.13-1.51,6-3.83,7.23-7.08,.82-2.17,.86-4.32,.1-6.45-.54-1.5-1.53-3.07-2.03-4.4-.91-2.41-.32-4.37,.86-6.52,.02-.03,.02-.07,.01-.1-.02-.08-.1-.13-.18-.11-4.87,1.28-9.37,3.12-13.51,5.53-2.9,1.69-6.2,4.11-9.91,7.26-.12,.1-.12,.2,0,.3,.4,.33,.87,.63,1.4,.89,3.14,1.6,6.47,3.22,9.99,4.86,.02,.01,.05,.02,.07,.04,.42,.24,.56,.78,.32,1.2-.97,1.66-2.35,2.78-4.13,3.36-.48,.16-.5,.36-.05,.6l.55,.31c.45,.25,.91,.26,1.37,.02,1.26-.65,2.35-1.32,3.28-2.02,1.48-1.12,3.32-1.76,4.64-2.96,4.63-4.21,2.84-10.23-.3-14.8-.04-.06-.05-.12-.04-.19,.03-.13,.16-.21,.29-.18l.42,.1c.34,.08,.62,.26,.83,.54Zm-4.97,5.16c.35,1.65-.73,3.27-2.41,3.63h0c-1.68,.36-3.32-.69-3.67-2.33h0c-.35-1.65,.73-3.27,2.41-3.63h0c1.68-.36,3.32,.69,3.67,2.33h0Zm35.19-2.98c-3.13,1.04-2.7,4.35-1.27,6.53,.1,.16,.29,.23,.47,.19,1.39-.34,3.27-.83,4.02-2.05,.95-1.57,.19-3.57-.55-5.13-.15-.32-.4-.42-.73-.27-.63,.27-1.28,.51-1.94,.73Zm-21.62,4.34s-.02,.07-.04,.1c-.03,.04-.03,.09-.02,.14,.26,1.32,.33,2.67,.22,4.04,0,.02,0,.03,.02,.03l.13,.02c.06,0,.09-.02,.1-.08,.25-1.62,.28-2.66,.08-3.13-.24-.59-.42-1.21-.53-1.85-.02-.14,0-.27,.08-.39l.44-.69c.09-.14,.12-.29,.09-.46-.15-.79-.56-1.41-1.23-1.85-.12-.08-.25-.11-.39-.1-.26,.02-.45,.03-.56,.03-.44-.01-.58,.18-.4,.59,.31,.72,.69,1.39,1.15,2.01,.36,.47,.56,.99,.84,1.5,.01,.03,.02,.05,.02,.08Zm10.17,4.41c-.77,.48-1.7,.65-2.26,1.36-.43,.55-.76,1.15-.97,1.8-.47,1.46,.24,2.81,.87,4.17,.27,.57,.44,.93,1.16,.91,2.29-.07,2.92-1.75,3.61-3.51,.65-1.65-.71-3.55-1.62-4.82-.08-.11-.08-.22,0-.34,1.13-1.44,2.07-2.94,1.48-4.85-.16-.5-.61-1.38-1.35-2.62-.07-.12-.17-.16-.31-.1-.22,.09-.43,.22-.62,.37-.14,.11-.3,.18-.47,.21-.95,.15-1.61,.47-1.98,.97-1.68,2.27-1.63,4.51,.13,6.73,.12,.15,.32,.22,.51,.16l1.77-.54c.21-.06,.22-.04,.04,.08Zm40.91-2.19c.15,.03,.29,.03,.42-.01,.14-.04,.23-.13,.29-.26l1.01-2.45c.09-.22,.25-.34,.48-.37l.36-.05c.25-.04,.3,.05,.16,.25-1.2,1.64-1.8,4.11-.19,5.69,.11,.11,.13,.23,.05,.37l-1.29,2.45c-.07,.13-.03,.21,.11,.24l3.78,.84s.05,0,.08,0c.18,0,.33-.15,.32-.33-.01-1.33-.13-2.7-.36-4.11-.02-.15-.1-.19-.24-.13-.24,.12-.47,.24-.69,.37-.04,.03-.08,.02-.1-.03h0s-.01-.08,.03-.1c.53-.31,.89-.64,1.1-1.26,.43-1.33,.46-2.69,.08-4.07-.18-.64-.11-1.15,.18-1.54,.18-.23,.12-.31-.16-.24-.83,.21-1.69,.42-2.57,.63-1.86,.45-3.7,.33-5.6,.37-.14,0-.23,.07-.28,.21-.34,1.08,.18,2.15,.7,3.28,.06,.13,.15,.17,.29,.13,.38-.11,.77-.11,1.19,0,.2,.05,.2,.11,0,.16-1.5,.39-1.85,2.31-1.98,3.73-.06,.69,.25,1.15,.55,1.72,.07,.13,.17,.21,.31,.24,.92,.21,1.88,.15,2.5-.66,1.03-1.37,.68-3.17-.03-4.6-.06-.12-.16-.2-.29-.24-.09-.03-.17-.07-.26-.12-.19-.12-.17-.16,.05-.11Zm-24.1,3.64c.07,.15,.25,.23,.41,.16,.88-.35,1.78-.71,2.7-1.08,.82-.33,1.27-.94,1.56-1.75,.76-2.06,.26-3.25-.75-5-.21-.37-.55-.5-1.02-.41-1.68,.36-3.09,.78-3.8,2.48-.78,1.86,.12,3.95,.89,5.59Zm-8.59-.51c1.73-2.52,.16-3.86-.37-6.19-.01-.06-.05-.08-.1-.05-1.38,.54-2.58,.91-3.6,1.1-.18,.03-.34,.15-.42,.32-.6,1.28-1.47,3.02-1.18,4.34,.2,.9,.61,1.7,1.23,2.39,.17,.19,.43,.27,.68,.22,1.11-.26,1.92-.81,2.91-1.32,.3-.16,.58-.43,.84-.8Zm18.37-4.68c-.06-.13-.16-.18-.31-.17-.62,.06-1.27,.22-1.96,.46-.61,.22-1.03,.59-1.28,1.12-.47,1.02-.74,1.94-.82,2.78-.11,1.21,.52,2.52,.9,3.7,.01,.04,.03,.09,.05,.13,.22,.46,.78,.65,1.23,.43,1.3-.63,2.31-1.79,3.05-3.49,.73-1.65-.13-3.41-.87-4.96Zm-12.61,8.97c2.64-2.27,.96-5.09,.14-7.72,0,0,0,0,0,0-.04-.1-.15-.16-.25-.12l-3.15,1.02c-.12,.04-.21,.11-.27,.22-.53,.86-.96,1.78-1.28,2.75-.5,1.52,.76,4.04,1.38,5.28,.07,.13,.17,.18,.31,.16,.1-.01,.19-.04,.28-.09,1.04-.53,2-.78,2.84-1.5Zm15.5-5.13c-.13,.05-.24,.13-.31,.25-1,1.5-2.39,3.65-.91,5.36,.13,.15,.33,.2,.52,.13l3.23-1.19c.11-.04,.21-.12,.28-.22,.83-1.25,.27-3.2-.38-4.33-.13-.22-.32-.33-.57-.32-.71,.03-1.33,.14-1.84,.33Zm-8.43,7.71c.2-.35,.38-.67,.53-.98,.77-1.54-.09-4.23-.83-5.76-.09-.19-.23-.25-.44-.19-.9,.27-1.77,.57-2.59,.89-1.15,.45-1.58,1.76-1.85,2.85-.35,1.43,.1,3.05,.6,4.42,.1,.26,.39,.4,.65,.31,1.02-.37,1.98-.78,2.89-1.23,.22-.11,.44-.15,.67-.12,.16,.02,.28-.04,.37-.18Zm-31.51,.95c.87-1.46,1.51-3.34,.99-5.1-.23-.81-.39-1.63-.45-2.45-.01-.15-.05-.16-.11-.02-.37,.8-.56,1.57-1.06,2.27-.83,1.15-1.68,2.3-2.56,3.44-.08,.11-.09,.23-.02,.35,.51,.87,.94,1.61,.82,2.7-.1,.94-.27,1.74-.51,2.41-.15,.41,0,.62,.44,.62l2.96,.02c.43,0,.7-.2,.82-.61,.29-.94-.5-2.74-1.27-3.36-.09-.08-.1-.16-.05-.26Zm14.51-5.06c-.94,1.59-1.85,3.21-1.24,4.85,.41,1.11,.78,2.17,1.1,3.17,.07,.23,.23,.33,.46,.3,1.08-.12,2.04-.23,2.8-1.05,.84-.9,1.44-1.79,1.81-2.7,.69-1.68-.54-3.78-1.24-5.17-.06-.13-.09-.26-.08-.4,.01-.18-.01-.37-.07-.55-.04-.14-.13-.17-.26-.1-.94,.54-1.53,.87-2.82,1.29-.19,.06-.35,.18-.45,.35Zm17.32,4.28h-.04s0,0,0,0c.35,0,.68-.05,1.01-.15,1.49-.43,2.98-.81,4.47-1.16,.31-.07,.4-.26,.28-.55-.37-.9-.57-1.37-.59-1.42-.11-.26-.37-.4-.62-.34-1.28,.29-2.9,.96-3.35,2.33-.18,.53-.56,.95-1.14,1.28,0,0-.02,0-.03,0Zm-10.82-.69l-1.71,3.76s-.03,.1-.02,.16c.03,.14,.17,.24,.31,.21l6.15-1.25s.01,0,.02,0c.14-.04,.22-.19,.18-.33l-1.08-3.84s0-.02,0-.03c-.05-.14-.21-.2-.34-.15l-3.36,1.33c-.06,.02-.12,.07-.15,.13Zm14.23,2.19l.06-.09s0,0,0,0c.02-.02,.04-.02,.06,0,.71,.6,1.41,1.19,2.1,1.78,.11,.09,.25,.14,.39,.13,.28-.01,.5-.14,.66-.37,.08-.12,.1-.25,.06-.39-.1-.36-.29-.68-.56-.98-.05-.05-.05-.1,0-.15l.12-.11s.05-.02,.07,0c.29,.27,.55,.53,.78,.78,.11,.12,.24,.14,.39,.07,.29-.14,.51-.32,.68-.53,.2-.25,.14-.36-.18-.31-.04,0-.1,.04-.18,.12-.08,.08-.17,.09-.27,.04-.08-.05-.14-.12-.17-.23-.05-.18,0-.22,.16-.14,.18,.09,.32,.04,.43-.16,.07-.12,.17-.17,.31-.15l.7,.12c.17,.03,.25-.04,.24-.22l-.06-1.39s0-.05-.01-.07c-.04-.14-.19-.22-.33-.18-5.79,1.76-11.31,4.07-17.42,5.31-3.87,.79-7.78,1.32-11.73,1.57-.02,0-.05,.01-.07,.03-.05,.04-.06,.12-.01,.17,1.1,1.33,4.07,4.81,5.81,4.9,.14,0,.26,.06,.37,.15,.27,.25,.56,.4,.86,.46,.06,.01,.11,0,.16-.02,.12-.06,.16-.21,.1-.32-.6-1.14-1.36-2.09-2.29-2.86-.04-.03-.04-.07,0-.11h0s.07-.04,.11,0c.91,.8,1.8,1.62,2.66,2.48,.31,.31,.77,.51,1.17,.45,.04,0,.07-.02,.11-.04,.15-.09,.2-.27,.11-.42-.69-1.21-1.44-2.21-2.25-3.02-.03-.03-.03-.05,0-.08h0s.05-.03,.08,0c1.16,.97,1.93,2.28,3.25,3.04,.35,.2,.61,.19,.79-.05,.14-.19,.13-.45-.02-.63-.78-.93-1.45-1.76-2-2.46-.03-.04-.02-.07,.01-.1h0s.07-.03,.1,0c.84,.84,1.72,1.65,2.62,2.43,.32,.27,.64,.31,.94,.11,0,0,0,0,.01,0,.13-.09,.15-.27,.06-.39-.71-.98-1.38-1.87-2-2.66-.03-.04-.03-.09,.01-.12h0s.07-.03,.1,0c.81,.9,1.65,1.76,2.52,2.58,.1,.1,.24,.15,.39,.14,.34-.02,.65-.14,.93-.36,.13-.1,.14-.21,.05-.34-.58-.83-1.23-1.59-1.96-2.3-.04-.04-.04-.08,0-.13h0s.08-.05,.13,0c.8,.76,1.53,1.38,2.19,1.88,.48,.37,1.03,.37,1.66,0,.16-.09,.19-.22,.1-.37-.47-.77-1.07-1.48-1.8-2.11-.01-.01-.01-.02,0-.03l.08-.08c.08-.08,.15-.07,.22,0,.62,.7,1.39,1.41,2.32,2.12,.03,.02,.06,.04,.09,.05,.2,.08,.42,0,.51-.21,.32-.78-.65-1.67-1.17-2.18-.03-.03-.03-.06,0-.1h0s.06-.04,.1-.01c.8,.6,1.61,1.12,2.42,1.55,.13,.07,.28,.08,.42,.04,.29-.09,.45-.4,.36-.68-.2-.63-.63-1.18-1.28-1.64-.04-.03-.05-.07,0-.11l.1-.11s0,0,0,0c.02-.02,.06-.02,.09,0,.66,.68,1.24,1.12,1.75,1.33,1.07,.44,1.34,.14,.81-.89-.18-.34-.41-.66-.69-.97-.04-.04-.04-.11,0-.15l.08-.08s.04,0,.08,.02l1.36,1.28c.11,.1,.24,.15,.39,.15,.26-.01,.52-.08,.77-.21,.14-.07,.18-.18,.11-.33-.25-.52-.64-.99-1.16-1.42,0,0,0,0,0,0-.04-.04-.04-.09,0-.13l.08-.08s.04-.03,.07-.01c.81,.43,1.71,1.77,2.63,.73,.1-.11,.1-.22,0-.34-.57-.74-1.17-1.32-1.8-1.75-.06-.04-.07-.09-.03-.15Zm4.54-1.19s-.01,.04-.02,.05c0,.04-.03,.06-.05,.07-.05,0-.09,0-.11-.01-.04-.03-.05-.06-.03-.1,.18-.26,.41-.45,.68-.56,.02,0,.04-.01,.07-.01,.1,0,.17,.08,.17,.18v.13c0,.11-.06,.15-.17,.14-.17-.01-.32,0-.46,.05-.04,.01-.07,.03-.08,.06Zm-1.9,2.4l-.69-1.04c-.06-.08-.14-.14-.24-.17l-.56-.14c-.27-.07-.28-.17-.03-.29,.21-.1,.38-.05,.52,.14,.37,.54,1.05,.85,1.16,1.44,.05,.28,0,.3-.16,.07Zm-7.09,3.37c-.12-.09-.21-.2-.28-.34-.08-.17-.06-.19,.08-.06,.24,.21,.44,.44,.62,.7,.06,.09,.04,.12-.06,.08-.1-.04-.18-.12-.23-.22-.03-.06-.07-.12-.13-.16Zm-3.4,2.27s-.07,.02-.1,0c-.48-.48-.86-.9-1.15-1.27-.37-.47-.35-.5,.09-.08l1.25,1.21s0,0,0,0c.01,.02,.01,.04,0,.05l-.09,.09Zm-12.28-1.06c.3,.22,.53,.45,.68,.69,.11,.17,.08,.19-.08,.07-.25-.18-.48-.41-.68-.68-.17-.22-.14-.25,.08-.08Zm10.43,1.85s-.07,.03-.1,0c-.48-.55-.87-.99-1.17-1.32-.61-.67-.57-.7,.1-.1,.3,.27,.69,.71,1.18,1.32,.03,.04,.03,.08,0,.11h0Zm-17.35-7.69c-.6,.97-.84,2.01-.71,3.11,.02,.14,.1,.2,.23,.2,1.79-.09,3.54-.28,5.26-.57,0,0,0,0,0,0,.15-.03,.24-.17,.21-.32-.24-1.22-.63-2.45-1.15-3.69-.09-.2-.31-.31-.52-.24-.68,.2-1.34,.43-2.06,.64-.6,.17-1.02,.46-1.28,.88Zm-17.2,1.56c-1.33,.34-1.31,.58,.06,.7,1.33,.12,2.69,.35,4.05,.67,.19,.04,.38-.06,.45-.24,.28-.74,.42-1.6,.42-2.57,0-.03,0-.07,0-.1-.05-.31-.34-.51-.65-.46-.23,.04-.49,.15-.77,.33-1.29,.83-2.47,1.38-3.56,1.67Zm3.76,6.86s.07,.01,.1,0c.09-.02,.15-.12,.13-.21-.32-1.21-.88-2.35-1.66-3.41-.43-.57-1.03-.91-1.82-1.02-.37-.05-.47,.09-.29,.42,.8,1.52,2.04,3.68,3.55,4.21Zm1.03-3.07c-.17-.46-.5-.74-.97-.84-.17-.04-.33-.07-.46-.1-.47-.1-.6,.06-.38,.49,.8,1.55,1.22,2.7,1.25,3.46,0,.18,.09,.33,.23,.43,.53,.38,1.1,.63,1.7,.74,.16,.03,.21-.03,.15-.18l-1.52-4Zm.84-.34c-.3,.01-.42,.17-.35,.46,.25,1.16,.67,2.22,1.25,3.2,.13,.22,.17,.44,.12,.67-.03,.13,.02,.24,.13,.32,.46,.33,.98,.49,1.56,.47,.16,0,.2-.08,.13-.22-.67-1.43-1.35-2.91-2.06-4.44-.15-.32-.41-.48-.79-.47Zm3.51,5.35l.27,.05s.04,0,.06,0c.08-.02,.13-.1,.11-.18-.23-1.11-1.09-4.11-2.31-4.72-.41-.21-.5-.11-.27,.29,.78,1.35,1.41,2.8,1.88,4.33,.04,.12,.12,.2,.25,.23Z"/>
  </g>
</svg>