<?xml version="1.0" encoding="UTF-8"?>
<svg id="Layer_2" data-name="Layer 2" xmlns="http://www.w3.org/2000/svg" viewBox="0 0 69.78 34.09">
  <defs>
    <style>
      .cls-1 {
        fill: #808080;
      }
    </style>
  </defs>
  <g id="Layer_1-2" data-name="Layer 1">
    <path class="cls-1" d="M69.78,10.56c.01,.46-.05,.92-.09,1.38-.11,1.31-.27,2.61-.34,3.92-.09,1.77-.14,3.55-.15,5.32,0,1.09,.1,2.19,.14,3.29,0,.27-.03,.55-.08,.82-.17,.87-.95,1.27-1.74,.86-.5-.26-.97-.57-1.42-.9-.61-.46-1.22-.93-1.78-1.45-.56-.52-1.05-1.11-1.57-1.67-.76-.82-1.52-1.62-2.45-2.25-.46-.31-.91-.39-1.43-.22-.14,.05-.27,.09-.42,.12-.43,.1-.79,.22-.78,.78,0,.23-.14,.47-.24,.69-.48,1.02-.96,2.04-1.44,3.06-.1,.21-.2,.42-.32,.61-.32,.52-.65,.65-1.24,.51-1.77-.43-3.42-1.14-4.95-2.13-.5-.32-.99-.66-1.46-1.01-.28-.2-.55-.27-.89-.21-.69,.12-1.4,.2-2.1,.3-.25,.04-.29,.13-.11,.29,.24,.22,.52,.41,.81,.57,.31,.18,.66,.3,.97,.47,.46,.25,.74,.64,.82,1.16,.05,.34-.04,.62-.33,.83-1.13,.8-2.24,1.63-3.4,2.4-1.13,.75-2.31,1.42-3.47,2.13-.16,.1-.33,.19-.5,.26-.76,.33-1.29,.21-1.79-.45-.5-.65-.97-1.33-1.44-2-.88-1.24-1.75-2.48-2.62-3.72-.33-.47-.35-.49-.89-.33-1.02,.31-2.03,.66-3.06,.93-1.1,.29-2.21,.55-3.32,.77-.7,.14-1.43,.26-2.14,.23-1.08-.05-2.16,.02-3.24-.18-1.13-.22-2.28-.37-3.42-.55-.09-.01-.18,.03-.27,.04,.05,.07,.1,.14,.16,.2,.54,.46,1.12,.88,1.82,1.06,.26,.07,.34,.21,.34,.47,.04,1.48,.33,2.9,.99,4.22,.31,.62,.72,1.18,1.1,1.76,.09,.15,.21,.28,.31,.42,.12,.17,.13,.36,.02,.53-.13,.19-.33,.23-.54,.19-.43-.1-.83-.3-1.11-.64-.49-.59-.99-1.17-1.39-1.82-1.25-2.04-2.27-4.19-3.09-6.43-.07-.18-.14-.32-.37-.36-.84-.13-1.68-.28-2.52-.43-1.42-.25-2.84-.51-4.26-.76-.74-.13-1.48-.23-2.22-.37-1.29-.24-2.58-.47-3.78-1.04-1.01-.48-1.87-1.14-2.5-2.08-.22-.32-.37-.69-.54-1.04-.03-.07-.01-.16-.02-.25,.09,.01,.19,0,.27,.04,.38,.16,.77,.24,1.18,.2,.04,0,.08-.03,.11-.04-.03-.03-.05-.07-.08-.09-.16-.07-.32-.13-.48-.2-.71-.35-1.07-1.1-.93-1.87,.14-.77,.56-1.38,1.05-1.96,.17-.2,.32-.4,.48-.61,.23-.23,.46-.46,.69-.69h-.01s.01,0,.01,0h0c.28-.22,.55-.45,.85-.66,1.22-.85,2.42-1.73,3.67-2.54,1.12-.74,2.27-1.43,3.44-2.1,1.9-1.09,3.91-1.84,6.1-2.1,1.57-.19,3.14-.19,4.71,0,.31,.04,.5-.04,.69-.31,1.08-1.54,2.27-2.99,3.67-4.26,.59-.53,1.24-1,1.89-1.45,.56-.39,.97-.3,1.3,.29,.64,1.16,1.28,2.33,1.83,3.53,.46,1.02,.8,2.1,1.19,3.16,.17,.46,.1,.49-.22,.65-.18,.09-.32,.27-.48,.41,.2,.08,.4,.15,.59,.23,.66,.28,1.18,.18,1.71-.39,.78-.83,1.67-1.55,2.53-2.31,.66-.58,1.35-1.14,2.17-1.49,1.06-.46,2.07-.31,2.9,.47,.92,.85,1.77,1.78,2.64,2.69,.44,.46,.87,.93,1.29,1.4,.35,.4,.57,.86,.68,1.38,.09,.45,.02,.86-.17,1.26-.16,.33-.16,.33,.21,.43,.73,.18,1.46,.35,2.19,.53,.25,.06,.47,.03,.68-.15,.72-.58,1.45-1.14,2.19-1.69,.72-.53,1.47-1.02,2.34-1.3,1.73-.56,3.06-.04,4.13,1.34,.61,.79,.9,1.7,.94,2.7,.01,.37-.06,.45-.42,.57-.26,.09-.51,.2-.74,.35-.2,.13-.17,.24,.07,.3,.77,.18,1.56,.3,2.32,.54,.61,.19,1.06,0,1.52-.34,1.75-1.27,3.5-2.55,5.28-3.78,.65-.45,1.37-.8,2.07-1.18,.16-.09,.35-.14,.53-.18,.7-.14,1.17,.21,1.19,.92Z"/>
  </g>
</svg>