<?xml version="1.0" encoding="UTF-8"?>
<svg id="Layer_2" data-name="Layer 2" xmlns="http://www.w3.org/2000/svg" viewBox="0 0 68.17 18.14">
  <defs>
    <style>
      .cls-1 {
        fill: #808080;
      }
    </style>
  </defs>
  <g id="Layer_1-2" data-name="Layer 1">
    <path class="cls-1" d="M67.87,16.86s-.05,0-.08-.01h0s0,0,0,0c-1.22-.16-2.39-.53-3.54-.96-1.23-.47-2.46-.95-3.69-1.43l-3.78-1.46c-.63-.24-1.26-.48-1.9-.73-.18,.12-.36,.24-.55,.35-1.47,.83-3.09,1.43-4.7,1.94-3.41,1.08-6.93,1.85-10.45,2.43-3.55,.58-7.13,.95-10.73,1.09-3.58,.13-7.19,.08-10.75-.3-1.29-.14-2.6-.33-3.89-.6-.12,.05-.26,0-.35-.07-4.91-1.06-9.63-3.16-12.86-7.15-.15-.19,.12-.42,.31-.36,1.31,.43,2.62,.87,3.93,1.32,.02-.02-3.11-1.87-4.7-2.79-.21-.12-.16-.41,.07-.47,5.1-1.39,10.3-2.38,15.55-2.98,4.33-.5,8.7-.73,13.06-.69,.7-.88,1.44-1.73,2.18-2.57,.66-.75,1.71-1.73,2.81-1.31,.46,.18,.8,.64,.71,1.14-.02,.12-.09,.29-.04,.42,0-.01,.19-.15,.23-.18,.21-.16,.45-.28,.7-.36,.47-.14,1.08-.18,1.34,.32,.11,.22,.09,.48,.06,.72-.02,.15-.06,.38,.03,.51,.52-.2,1.09-.39,1.64-.44,.45-.03,1.02,.17,1.01,.71-.01,.57-.44,1.08-.81,1.47-.04,.04-.08,.08-.12,.12,2.95,.3,5.89,.73,8.81,1.28,1.72,.33,3.44,.69,5.14,1.11,.51,.13,1.05,.29,1.56,.51,1.73-.46,3.41-1.04,5.01-1.86,2.18-1.12,4.26-2.57,5.96-4.34,.17-.18,.57,.05,.4,.27-.74,.99-1.01,2.21-1.41,3.36-.36,1.03-.87,1.98-1.64,2.77-1.07,1.09-2.48,1.84-3.98,2.08,1.53,.59,2.87,1.66,4.08,2.76,1.65,1.49,3.3,3.17,5.49,3.83,.32,.09,.27,.6-.08,.55Z"/>
  </g>
</svg>