<?xml version="1.0" encoding="UTF-8"?>
<svg id="Layer_2" data-name="Layer 2" xmlns="http://www.w3.org/2000/svg" viewBox="0 0 52.22 34.82">
  <defs>
    <style>
      .cls-1 {
        fill: #808080;
        fill-rule: evenodd;
      }
    </style>
  </defs>
  <g id="Layer_1-2" data-name="Layer 1">
    <path class="cls-1" d="M.77,13.03s9.02,2.59,13.1-1.54C17.95,7.35,23.33,1.82,25.08,1.39c0,0-1.84,2.14-1.94,4.21,0,0,2.74-4.41,6.58-5.6,0,0-3.39,1.82-4.28,4.96,0,0,4.01-3.94,8.34-4.58,0,0-2.74,.65-4.23,3.19,0,0,4.13-2.59,6.63-2.59,0,0-2.69,.85-5.43,3.44,0,0,4.16-2.52,6.65-1.87,0,0-1.3,.6-2.14,1.89,0,0,2.04-1.17,2.72-1.05,0,0,1.77,4.08,4.26,5.31,2.49,1.22,2.54,2.67,2.17,3.44-.37,.77-3.69,5.48-1.64,9.56,0,0,3.49,.87,5.75-1.2,2.27-2.07,2.74-1.89,3.19-1.54,.45,.35,.77,3.76,.32,4.76-.45,1-1.87,2.47-1.62,4.16,.25,1.69,.57,1.79,.2,2.07-.37,.27-3.71,.07-5.13-2.22-1.42-2.29-2.89-3.04-3.19-2.29-.3,.75,.6,3.89,.77,4.86,.17,.97,.03,3.46-.5,4.06-.52,.6-6.58,.92-8.87-.92-2.29-1.84-5.98-5.88-9.96-6.63,0,0,3.49,2.39,4.33,6.08,0,0-1.4-2.94-4.98-4.63,0,0-2.27-2.57-5.26-3.41-2.99-.85-7-4.28-8.49-5.98-1.49-1.69-7.07-4.43-8.64-4.61,0,0-1.57-.95,.1-1.22H.77Z"/>
  </g>
</svg>