<?xml version="1.0" encoding="UTF-8"?>
<svg id="Layer_2" data-name="Layer 2" xmlns="http://www.w3.org/2000/svg" viewBox="0 0 121.21 42.24">
  <defs>
    <style>
      .cls-1 {
        fill: #808080;
        fill-rule: evenodd;
      }
    </style>
  </defs>
  <g id="Layer_1-2" data-name="Layer 1">
    <path class="cls-1" d="M96.31,23.64c-.93,.03-1.62,.51-2.33,.73,.66,.15,1.23,.4,1.53,.91,.07,.91-.14,1.44-.55,1.97-.39,.51-1.02,.74-1.53,1.2-.48,.43-1.01,.88-1.28,1.42-.66,1.34-.23,3.88-1.35,4.67-.71,.5-2.01,.51-3.17,.44-3.37-.21-6.46-1.36-9.01-2.26-3.6,1.62-7.16,3.28-12.1,3.55,.56,.27,1.07,.65,1.54,1.14,.13,.13,.26,.28,.4,.42,.26,.22,.51,.45,.74,.68,.42,.42,.8,.73,1.02,1.24,.1,.22,.11,.56,.22,.88,.07,.21,.27,.47,.22,.84-.05,.39-.36,.46-.55,.77-3.79-.16-6.74-1.92-9.3-3.76-.63-.45-1.25-.85-1.82-1.46-.21-.22-.35-.53-.51-.58-.31-.1-.98-.03-1.49-.04-1.46,0-2.97-.07-4.34-.18-1.97-.16-3.96-.01-5.84-.11-3.82-.19-7.54-.59-11.02-1.06-3.75-.51-7-.96-10.32-1.75-2.42-.58-4.73-1.32-6.93-2.15-.72-.27-1.47-.62-2.19-.8-.3-.07-.69-.07-.95-.15-.36-.11-.76-.36-1.17-.55-1.88-.88-3.71-2.01-5.58-2.88-2.33-1.09-3.95-2.62-5.62-4.52-.54-.62-1-1.15-1.61-1.79-.4-.42-1.39-1.28-1.39-1.97,0-.36,.3-.91,.8-.84,.2,.03,.24,.18,.3,.34,.47,.2,.82,.57,1.2,.91,.39,.15,.79,.3,1.1,.5-.58-.95-1.55-1.77-2.52-2.59-.28-.23-.86-.47-.91-.8-.06-.41,.4-.9,.69-1.1,.33-.22,.77-.39,1.17-.58,.38-.19,.75-.38,1.13-.58,.79-.41,1.7-.63,2.59-.87,1.73-.48,3.5-1.14,5.18-1.75,1.81-.66,3.62-.99,5.44-1.49,.92-.26,1.88-.45,2.81-.66,.97-.21,1.97-.29,2.92-.55,.22-.06,.37-.11,.44-.29,.06,.24,.12,.17,.22,.18,.27,.05,1.36-.23,1.71-.29,1.64-.3,3.3-.81,4.96-.91,.62-.04,1.27,0,1.9-.04,1.76-.13,3.69-.28,5.54-.36,2.6-.12,5.18,.02,7.77-.04,1.84-.04,3.91-.09,5.8,0,.64,.03,1.37,.16,1.9,.07,.38-.06,.87-.65,1.21-.91,2.44-1.89,4.82-3.4,7.77-4.78,.76-.36,1.41-.74,2.26-.99,1.07-.31,1.87,.48,2.55,.73,.02,.22,.14,.41,.26,.62,.25,.36,.43,.77,.58,1.2,.54,1.18,1.08,2.38,1.85,3.43,.39,.53,.98,1,1.02,1.68,.03,.47-.17,.91-.22,1.31,4.78,1.26,9.79,2.3,14.41,3.72,1.24-.62,2.49-2.34,4.63-2.04,.81,.11,2.04,.71,1.93,1.82-.06,.61-.66,1.05-.69,1.75,2.97,.61,6.07,1.38,9.34,1.75,.57,.07,1.13,.03,1.72-.07,.52-.09,1.07-.13,1.57-.25,.46-.11,.95-.45,1.39-.66,.48-.23,1-.37,1.46-.58,.58-.27,1.23-.73,1.78-1.17,1.65-1.29,3.39-2.54,5.11-3.76,1.15-.82,2.26-1.69,3.57-2.33,1.31-.65,2.77-1.32,4.49-1.35,.27,.59,.13,1.33,.07,2.01-.16,2.1-.33,4.19-.51,6.28-.17,2.03-.29,4.24-.29,6.49,0,.36,.01,.73,.04,1.1,.02,.3-.02,.69,.22,.91-.19,.41-.06,.91,0,1.35,.19,1.28,.42,2.64,.62,3.98,.13,.89,.28,1.74,.47,2.59,.1,.42,.1,.9,.22,1.31,.11,.39,.35,.8,.07,1.17-.76,.2-1.55-.21-2.12-.37-.45-.13-.93-.15-1.35-.26-2.91-.72-5.48-1.82-7.99-3.14-1.35-.71-2.64-1.64-3.87-2.48-.6-.41-1.25-.84-1.86-1.32-.63-.49-1.24-.99-1.94-1.24-1.53-.55-3.77-.69-5.65-.62Z"/>
  </g>
</svg>