<?xml version="1.0" encoding="UTF-8"?>
<svg id="Layer_2" data-name="Layer 2" xmlns="http://www.w3.org/2000/svg" viewBox="0 0 74.62 48.43">
  <defs>
    <style>
      .cls-1 {
        fill: #808080;
      }
    </style>
  </defs>
  <g id="Layer_1-2" data-name="Layer 1">
    <path class="cls-1" d="M27.82,6.23c.63-1.53,1.43-2.99,1.86-4.59-1.14,1.47-2.06,3.08-3.08,4.62-1.15,.13-2.31,.22-3.43,.49,.57-1.47,1.31-2.86,1.95-4.3,.32-.69,.72-1.34,1.2-1.93,.23-.27,.56-.59,.95-.41,.92,.33,1.7,.93,2.47,1.51,.36-.62,.59-1.69,1.49-1.63,1.17,.12,2.09,.95,3.06,1.53-1.01,1.52-1.97,3.07-2.95,4.61-1.18-.04-2.36-.03-3.53,.09Zm23.37,8.33c.95,.71,1.85,1.66,3.07,1.84,.61-.17,1.06-.66,1.47-1.12,1.36-1.68,2.3-3.77,2.3-5.95,.01-1.19-.42-2.41-1.31-3.22-1.11-1.04-2.48-1.73-3.82-2.42-2.26-1.12-4.66-2.15-7.22-2.25-1.11-.06-2.31,.55-3.33-.11-.82-.4-1.65-1.22-2.63-.89-.55,.38-.69,1.07-.88,1.67-.77-.61-1.5-1.29-2.38-1.73-.39-.19-.93-.33-1.29,0-.54,.52-.86,1.21-1.09,1.91-.44,1.34-1.01,2.63-1.56,3.93,1.14,.04,2.28,.16,3.39,.46,.98-1.38,1.78-2.86,2.76-4.24-.37,1.57-1.1,3.01-1.75,4.47,1.03,.23,2.06,.48,3.07,.82,.45-.55,.88-1.12,1.39-1.61-.18,.64-.46,1.25-.76,1.85,1.41,.54,2.78,1.19,4.11,1.91,.79-.55,1.51-1.22,2.41-1.59-.63,.66-1.37,1.21-2.09,1.76,2.21,1.27,4.25,2.82,6.14,4.53ZM23.55,.61c-.5-.17-.85,.36-1.12,.7-1.32,1.9-2.29,4.06-2.75,6.33,.72-.27,1.46-.45,2.21-.62,.92-1.76,2.02-3.42,3.28-4.96-.49-.53-.95-1.15-1.63-1.45ZM1.46,31.26c-.53-.29-1.2-.57-1.37-1.21,.04-.45,.63-.59,.95-.34,.72,.42,1.3,1.23,2.21,1.2,.5-.02,.75-.62,.61-1.05-.22-1-1.47-1.19-1.85-2.09-.23-.51-.33-1.12-.09-1.64,.43-.94,1.07-1.77,1.77-2.53,3.11-3.42,6.08-6.95,9.01-10.53,.9-1.14,2.05-2.07,3.36-2.7,3.22-1.66,6.8-2.5,10.38-2.86,5.43-.53,11.05,.14,16.02,2.49,2.68,1.3,5.2,2.92,7.42,4.9,1.32,1.14,2.72,2.32,4.45,2.75,1.9,.44,4.04,.28,5.68-.85,1.11-.73,1.81-1.9,2.45-3.03,.72-1.26,1.48-2.52,2.48-3.58,.82-.92,2.17-1.08,3.33-.99,.62,.42,1.21,.89,1.84,1.3,.59,.4,1.17,.97,1.18,1.73-.07,1.02-.88,1.78-1.09,2.76-.08,.57,.43,.95,.89,1.16,.33,.19,.89,.41,.68,.89-.37,.93-1.06,1.77-1.05,2.82-.22,1.93,1.84,3.17,1.75,5.08-.21,1.6-1.57,2.66-2.18,4.08-.3,.66,.05,1.36,.21,2.01,.31,.84-.29,1.76-1,2.16-1.29,.09-2.65-.07-3.81-.69-1.64-.84-2.48-2.55-3.39-4.05-.74-1.24-2.05-2.18-3.53-2.24-2.36-.17-4.54,1.13-6.09,2.81-1.99,2.14-4.18,4.12-6.72,5.6-3.72,2.23-7.93,3.56-12.21,4.16-3.35,.5-6.75,.66-10.14,.49-4.47-.35-8.95-1.22-13.06-3.05-1.93-.83-3.47-2.32-5.35-3.24-1.23-.63-2.5-1.17-3.76-1.74Zm65.81-12.3c-1.41,.04-2.78,.46-4.14,.81-.06,.49-.11,.98-.15,1.47,1.05,.38,1.36,1.76,.68,2.6,.48,.33,.89,.85,.82,1.47-.21,.44-.67,.66-1.06,.92,.98,.4,2,.7,3.06,.77-.05-.33-.04-.67-.2-.97-.47-.25-.98-.4-1.44-.67,.87,.07,1.75,.21,2.63,.02-.03-.32-.03-.64-.12-.94-.95-.39-2.01-.45-2.97-.84,1.2-.19,2.41-.25,3.62-.38-.1-.59-.27-1.17-.51-1.72-1.15-.23-2.32-.19-3.47-.24,1.09-.39,2.3-.6,3.26-1.29,.07-.34,.01-.68-.02-1.01Zm-1.18-2.15c-.95,.25-1.89,.54-2.79,.93-.51,.21-.64,.83-.68,1.32,.18,.21,.4,.38,.61,.56,.98-.64,2.03-1.14,3.06-1.67-.06-.38-.12-.77-.2-1.15Zm-3.68-.02c.12,.33,.25,.66,.4,.98,.77-.49,1.56-.95,2.27-1.52,.27-.19,.32-.53,.43-.81-1.12,.21-2.16,.73-3.1,1.35Zm-7.43,3.89c.1-.33,0-.44-.32-.33-.1,.32,.01,.43,.32,.33ZM3.34,25.33c-.09,.32,.02,.43,.33,.34,.09-.32-.02-.43-.33-.34Zm19.54-.39c-.15,.6-.48,1.12-.86,1.6,.25,.03,.5,.05,.76,.06-.11-.22-.22-.44-.33-.65,.8-.4,1.49-1.03,1.85-1.86-.17-.03-.52-.1-.7-.13-.51-.33,.42-.66,.03-1.01-.32-.1-.63,.08-.93,.15,.16,.24,.73,.57,.3,.85-.39-.04-.78-.05-1.15,.07,.05,.24,.01,.57,.33,.62,.32-.31,.69-.66,1.13-.34,.58,.32,0,.79-.43,.65Zm-1.68-7.58c.08,.24,.12,.5,.3,.69,.34,0,.55-.27,.66-.56-.16-.44-.64-.16-.96-.14Zm.21-1.34c-.19-.12-.4-.21-.61-.29-.04,.17-.13,.51-.18,.68,.38,.21,.73,.05,.79-.39Zm1.07-.21c.08-.24,.15-.49,.21-.74-.26,.47-.42,.98-.63,1.48,.33-.03,.65-.08,.97-.17-.18-.2-.36-.39-.55-.57Zm5.85,1.41c-.37,.15-.73,.3-1.08,.48,.24,.21,.52,.36,.84,.4,.09-.34,.18-.68,.29-1.01-.23-.12-.45-.24-.68-.35,.21,.16,.42,.32,.63,.48Zm-1.36,1.71c-.35-.08-.65,.58-.22,.61,.52,.23,.88-.17,1.17-.54,.16,.19,.3,.4,.49,.56,.45,.04,.85-.25,1.3-.23,.41,.09,.81,.25,1.22,.34,.01-.15,.04-.46,.05-.61-.53-.15-1.03,.04-1.52,.22-.02-.48,.3-.76,.69-.95-.26,.04-.52,.07-.77,.09,.02,.24,.03,.49,.05,.74-.79-.32-1.64-.11-2.47-.23Zm2.21-.75c.02-.17,.05-.51,.07-.68-.27,.04-.55,.09-.82,.15,.19,.25,.44,.45,.75,.53Zm.51-.68c.08,.18,.17,.36,.25,.54,.1,0,.3,.02,.4,.02,.03-.14,.08-.42,.1-.55-.25,0-.5,0-.75,0Zm1.03-.21c.08-.26-.03-.36-.31-.28-.07,.26,.03,.35,.31,.28Zm4.95,.72c.23,.03,.47,.05,.71,.08,.02-.17,.06-.5,.08-.67-.36,.05-.62,.28-.79,.59Zm.71-2.62c.01-.14,.03-.43,.04-.57-.16,0-.49,.03-.65,.04,.11,.29,.3,.47,.61,.53Zm2.21,4.55c0-.28-.02-.55-.04-.83-.28,.12-.56,.24-.84,.38,.29,.16,.58,.31,.88,.46Zm-.87,.06c-.19,.16-.37,.32-.54,.49,0,.44,.43,.24,.71,.26-.05-.25-.11-.5-.17-.75Zm.16-2.04c-.21-.04-.41-.1-.62-.09-.06,.17-.12,.33-.18,.5,.14,.04,.43,.14,.57,.18,.06-.15,.17-.44,.23-.59Zm-.44-2.03c-.36,.16-.63,.46-.89,.75,.26-.01,.54,.03,.79-.05,.05-.23,.08-.47,.1-.7Zm-1.11,3.35c.15,.25,.38,.43,.61,.62,.07-.31,.27-.75-.14-.91-.19-.24-.33,.19-.47,.29Zm.16,1.19c-.14,.01-.42,.04-.55,.05,0,.12,.01,.35,.02,.47,.23,0,.46,.01,.69,.02-.05-.18-.1-.36-.15-.54Zm-1.51-1.38c.03,.15,.07,.44,.1,.59,.37,0,.7-.11,.8-.51-.3-.03-.6-.06-.9-.08Zm-1.07,.58c.41-.06,.67-.35,.83-.72-.31,.04-.62,.1-.92,.16,.02,.14,.07,.42,.1,.56Zm.03,1.73c.25-.33,.7-.26,1.08-.31-.09-.21-.13-.45-.29-.61-.5-.01-.57,.56-.78,.93Zm1.18-3.33c0-.15,0-.44,0-.59-.12,0-.37,0-.49,0,0,.14-.02,.42-.03,.56,.13,0,.39,.02,.52,.03Zm-.85,.28c-.08,.26,.03,.36,.3,.28,.08-.26-.03-.36-.3-.28Zm-.69-2.06c.15,.15,.3,.31,.45,.47,.07-.2,.38-.43,.13-.61-.15-.36-.38,.06-.58,.14Zm.49-2.33c.13-.02,.38-.07,.51-.1-.19-.28-.4-.55-.64-.79,.04,.3,.09,.59,.13,.89Zm-.53,4.18c.18-.04,.55-.12,.73-.16-.18-.18-.38-.34-.57-.51-.04,.17-.13,.51-.17,.67Zm-.34,.2c-.26,.21,.08,.67,.36,.49,.26-.21-.08-.68-.36-.49Zm-.68,.86c.2,.17,.41,.33,.63,.47,.05-.15,.16-.45,.21-.6-.28,.04-.56,.08-.84,.13Zm.57-1.29c-.25-.19-.52-.35-.82-.46,0,.18,0,.53,0,.71,.28-.07,.55-.15,.83-.24Zm-1.56,2.59c-.3-.03-.6-.04-.89-.05,.04,.16,.12,.49,.16,.66,.27-.16,.52-.37,.73-.6Zm-1.22,1.48c.35,0,.73,.03,.99-.26-.36-.04-.82-.16-.99,.26Zm1.02-.56c.4-.18,1-.13,1.13-.65-.15-.1-.31-.19-.46-.29-.09,.4-.28,.76-.67,.93Zm.09-1.88c.3-.01,.59-.03,.89-.04-.01-.18-.03-.37-.04-.55-.48-.14-.76,.13-.85,.59Zm.22-2.65c-.18,.17,.01,.6,.27,.47,.15-.16-.04-.6-.27-.47Zm-.73,.65c0,.13,.03,.39,.04,.52h.61c0-.13,.02-.38,.02-.51-.23,0-.45,0-.68,0Zm-4.22,4.23c.26,.29,.55,.69,1,.6,.15-.24,.13-.46-.05-.67-.32-.08-.64,.01-.95,.07Zm.13-.82c.1-.01,.3-.04,.41-.05,.09-.18,.18-.37,.28-.55-.24,.01-.48,.03-.72,.05,.01,.18,.02,.37,.03,.55Zm1.29,.25c.31-.15,.52-.43,.71-.71-.38-.01-.76,0-1.15,.03,.1,.25,.17,.55,.44,.68Zm.44,.81c.3,.3,.67,.11,1.01,0-.21-.14-.4-.3-.63-.4-.1,.1-.29,.3-.38,.39Zm1.56-.55c-.28-.28-.04-.67-.03-1-.3,.02-.59,.04-.88,.08,.18,.42,.61,.62,.92,.92Zm-3.63-3.03c-.1,.13-.2,.27-.29,.42-.39,.04-.78,.05-1.17,.09,0,.14,.02,.44,.03,.58,.32,0,.74,.15,.91-.23,.37-.55,.95-.84,1.6-.86-.36,0-.72,0-1.08,0Zm-4.32,2.03c.05,.12,.17,.37,.22,.49,.56,.28,1.04-.12,1.21-.64-.48,.03-.96,.07-1.43,.14Zm.11-.89c.42-.05,.45-.54,.64-.83-.44,.09-.96,.09-1.25,.49,.2,.12,.4,.24,.61,.34Zm.14,2.58c.27,.02,.53-.02,.78-.1-.08-.14-.23-.42-.31-.55-.18,.2-.32,.43-.47,.66Zm1.25,.05c.42,.05,.48-.38,.55-.68-.34-.02-.68-.01-1.02,.03,.15,.22,.29,.45,.47,.65Zm1.59-1.27c.07-.2,.14-.39,.21-.58-.59,0-1.2-.11-1.7,.29,.37,.52,.96,.29,1.49,.29Zm-1.04,1.86c.01,.14,.04,.43,.05,.58,.19-.04,.38-.09,.57-.13,.03-.1,.07-.3,.1-.4-.24-.02-.48-.03-.73-.04Zm1.1,1.09c.28-.3-.27-.57-.44-.26-.27,.3,.27,.57,.44,.26Zm.28-1.62c-.03-.14-.08-.42-.1-.56-.22-.03-.45-.05-.67-.07,.01,.15,.04,.46,.05,.61,.24,0,.49,.02,.73,.03Zm0,.5c.2,.18,.39,.37,.58,.56,.09-.04,.28-.12,.38-.15,0-.11,0-.34,.01-.45-.32,.03-.64,.05-.96,.05Zm.24-1.75c.23,0,.46-.02,.69-.03,0-.22-.01-.44-.02-.65-.23,.04-.46,.08-.69,.12,0,.14,.01,.42,.02,.55Zm.02-2.63c-.63-.08-1.2,.18-1.71,.52-.02-.19-.07-.58-.1-.77-.07,.06-.14,.12-.22,.18,.06,.11,.19,.33,.25,.44-.39,.14-.76,.33-1.11,.56,.34,.1,.71,.34,1.07,.2,.3-.3,.56-.64,.85-.95,.32-.03,.65-.06,.96-.18Zm-1.47-1.87c0-.14,.01-.41,.02-.55-.25,.01-.49,.03-.74,.04,0,.12,0,.37,0,.49,.09,.04,.28,.13,.37,.17,.09-.04,.26-.12,.35-.16Zm-1.6,1.03c.02,.14,.06,.43,.09,.57,.21-.04,.41-.08,.61-.14,.07-.22,.14-.45,.2-.68-.3,.08-.67,0-.9,.25Zm-1.47,7.56c.01,.15,.04,.46,.05,.61,.19-.02,.38-.05,.57-.07,.02-.13,.06-.38,.08-.51-.23-.02-.46-.03-.7-.04Zm18.79,4.9c-.3,.09-.18,.62,.14,.48,.29-.09,.17-.63-.14-.48Zm1.14-1.3c-.24,.2,.1,.6,.35,.42,.24-.2-.1-.6-.35-.42Zm1.59-.52c-.31,.26,.19,.65,.44,.39,.31-.27-.19-.66-.44-.39Zm.64-2.07c-.04-.13-.13-.39-.18-.53-.08,.02-.24,.07-.32,.1-.03,.1-.09,.29-.13,.38,.16,.01,.47,.04,.63,.05Zm1.06,1.05c-.15,.03-.47,.08-.62,.11,.17,.17,.34,.33,.52,.5,.03-.15,.07-.45,.1-.6Zm.04-2.61c-.18,.03-.54,.08-.71,.11,.16,.18,.34,.35,.51,.53,.05-.16,.15-.47,.2-.64Zm.47-.54c.11,.02,.33,.04,.44,.06,.06-.16,.13-.31,.19-.47-.24-.15-.48-.3-.72-.43,.02,.28,.05,.56,.09,.84Zm.56,1.88c-.28,.07-.21,.55,.1,.39,.29-.06,.2-.57-.1-.39Zm8.68-3.19c.11-.32,0-.42-.31-.32-.11,.31,0,.42,.31,.32Zm-1.12-2.06c.38-.07,.15-.62-.17-.52-.36,.08-.15,.62,.17,.52Zm-.11,2.12c.1-.32,0-.43-.31-.32-.1,.32,0,.43,.31,.32Zm-1.44-1.58c.1-.31-.01-.42-.33-.32-.1,.31,0,.42,.33,.32Zm-.82,2.65c-.26,.13-.27,.27-.03,.41,.25-.13,.26-.27,.03-.41Zm.08-1c.1-.32,0-.43-.32-.32-.1,.31,0,.42,.32,.32Zm-.78-3.98c.11-.33,0-.44-.3-.34-.11,.32,0,.44,.3,.34Zm-1.24,1.06c0,.13,.02,.39,.03,.52,.11-.04,.32-.11,.43-.15-.01-.21-.03-.41-.04-.61-.1,.06-.31,.18-.41,.24Zm.09,2.98c.25-.25-.15-.74-.41-.45-.27,.25,.15,.72,.41,.45Zm-1.44,.77c-.32,.25,.12,.71,.38,.4,.29-.25-.13-.73-.38-.4Zm-.05-5.65c.33,.17,.69-.54,.26-.59-.23,.05-.45,.39-.26,.59Zm-.04,3.67c.34-.08,.29-.72-.1-.59-.34,.08-.29,.73,.1,.59Zm-.4-1.59c.26-.18,.03-.74-.28-.49-.27,.18-.03,.74,.28,.49Zm-.21,5.12c.31-.09,.24-.67-.11-.56-.3,.09-.25,.69,.11,.56Zm-.4-2.2c0-.28,0-.55-.01-.83-.15,.1-.29,.21-.43,.32-.07,.29,.28,.35,.45,.5Zm-.91-6.41c-.27,.17,0,.64,.27,.42,.26-.17,0-.65-.27-.42Zm.12-2.26c.1-.32,0-.43-.32-.33-.1,.32,0,.43,.32,.33Zm-.43,4.92h.4c0-.13,.01-.4,.02-.54-.1,0-.29,.02-.38,.03,0,.13-.02,.38-.03,.51Zm-.55,2.47c.44-.25,.75-.67,.9-1.15-.44,.25-.85,.62-.9,1.15Zm.1-3.99c-.17-.07-.34-.13-.51-.2-.03,.14-.08,.42-.11,.55,.11,.06,.33,.17,.44,.23,.06-.19,.12-.39,.18-.58Zm-.26-1.55c.29-.08,.19-.55-.12-.39-.29,.06-.18,.56,.12,.39Zm-.44-3.01c.24-.19-.07-.62-.32-.43-.25,.19,.06,.61,.32,.43Zm-.43,5.54c0,.13,.02,.38,.02,.5,.09-.02,.27-.07,.36-.09,.02-.09,.04-.27,.06-.36-.11-.01-.33-.04-.45-.05Zm-.43,1.21c-.37,.1-.17,.69,.19,.6,.37-.09,.15-.69-.19-.6Zm.23-2.76c-.16-.16-.32-.31-.48-.47-.06,.26-.11,.52-.15,.79,.21-.11,.42-.21,.64-.32Zm.04-2.78c.23-.19-.04-.64-.3-.45-.23,.18,.04,.65,.3,.45Zm-.96,1.17c.38,.65,.91-.65,.14-.3-.04,.08-.1,.23-.14,.3Zm-1.62,5.5c-1.35,.26-2.68,.6-4.04,.85-2.97,.72-6,1.17-8.92,2.09-1.21,.42-2.46,.92-3.34,1.89-.42,.5-.83,1.03-1.07,1.65,.65-.51,1.08-1.26,1.8-1.7,1.89-1.21,4.13-1.67,6.29-2.15,3.21-.73,6.43-1.38,9.63-2.13,.52-.21,1.27,.19,1.11,.81-.37,1.05-1.45,1.62-1.88,2.63-.03,.71,.79,1.06,1.17,1.57-1.01,.55-2.11,1.09-2.73,2.12-.52,.87-1.46,1.3-2.26,1.86-.77,.53-1.17,1.43-1.94,1.97-.64,.46-1.42,.76-1.9,1.42-.31,.34-.5,.82-.93,1.03-.66,.19-1.4-.02-2.03,.3-.46,.2-.96,.5-1.47,.27-1.61-.55-2.99-1.56-4.47-2.37-.12,.1-.36,.3-.48,.4,1.6,.72,3.02,1.79,4.67,2.4,.5,.2,1.06,.12,1.53-.12,.76-.4,1.66-.16,2.44-.49,.49-.21,.74-.69,1.07-1.08,.46-.62,1.23-.86,1.83-1.3,.58-.39,.97-.98,1.41-1.52,.51-.64,1.31-.9,1.94-1.39,.88-.62,1.23-1.76,2.2-2.29,.53-.38,1.33-.53,1.56-1.21-.33-.53-.8-.95-1.21-1.41,.55-.79,1.3-1.44,1.77-2.29,.15-.29,.34-.64,.17-.97-.33-.71-1.19-.99-1.92-.81Zm-11.45,6.1c2.7,.22,5.39-.22,8.07-.4,.89-.1,1.82-.09,2.66-.45-.36-.09-.73-.12-1.1-.11-2.86,.04-5.72,.03-8.58,.11-.53-.02-.78,.49-1.05,.85Zm6.67-2.04c.89-.23,1.8-.43,2.63-.82-2.38,.17-4.72,.69-7.09,.98-.53,.12-1.3,.02-1.5,.66,2.01,.04,4-.38,5.96-.82Zm-7.05,2.6c-.04,.13-.12,.39-.16,.53,1.24,.22,2.5,.41,3.76,.48,1.59,.09,3.2,.35,4.78,.02-1.11-.32-2.27-.36-3.41-.56-1.65-.22-3.31-.59-4.98-.46Zm-.27,.99c-.4-.08-.39,.36-.49,.62,1.28,.39,2.62,.52,3.93,.76,.78,.12,1.58,.34,2.37,.15-.6-.33-1.26-.49-1.91-.68-1.28-.36-2.56-.79-3.89-.85Zm-.7,.98c-.33-.08-.68,.16-.7,.5,.61,.39,1.37,.44,2.05,.66,1.55,.31,3.11,.77,4.7,.67-.81-.41-1.73-.51-2.58-.82-1.16-.32-2.27-.85-3.48-1.01Zm-1.32,.98c-.04,.13-.1,.4-.14,.53,1.81,.48,3.49,1.52,5.4,1.56-.82-.6-1.78-.95-2.69-1.38-.81-.37-1.65-.82-2.57-.71Zm-.79,.77c-.04,.13-.11,.38-.15,.51,.61,.32,1.23,.62,1.87,.87,1.24,.51,2.51,1.1,3.88,1.12-1.07-.51-2.16-.98-3.17-1.62-.76-.41-1.53-1.01-2.44-.88Zm-1.33,1.12c.72,.51,1.54,.83,2.34,1.18,.85,.34,1.73,.69,2.66,.75-.92-.57-1.95-.92-2.87-1.5-.67-.3-1.42-1.11-2.13-.43Zm14.25-12.49c.25,.04,.51,.09,.76,.13-.03-.15-.08-.45-.1-.6-.23,.14-.44,.31-.66,.47Zm.94-2.39c.01-.14,.04-.42,.05-.57-.12,.02-.37,.06-.49,.08,0,.12-.03,.36-.04,.48,.12,0,.36,0,.47,0Zm1.3,.35c0-.12-.01-.36-.02-.47-.1-.01-.3-.04-.4-.05,0,.15,0,.44-.01,.59,.11-.02,.32-.04,.43-.06Zm1.02-1.34c-.03-.13-.08-.39-.11-.52-.28,.15-.57,.3-.83,.48,.31,.02,.63,.03,.95,.04Zm-.67,2.85c-.17,.19-.18,.63,.12,.69,.39-.04,.28-.91-.12-.69Zm.94-1.06c-.06-.11-.17-.33-.23-.44-.12,.15-.24,.31-.36,.46,.13,.12,.25,.24,.38,.36,.05-.1,.16-.29,.22-.39Zm-.11-5.86c.11-.33,0-.44-.3-.33-.1,.33,0,.44,.3,.33Zm-.45,2.08c.24-.2-.07-.61-.33-.44-.23,.19,.07,.63,.33,.44Zm-.67-2.77c.1-.31-.02-.41-.34-.3-.1,.3,.02,.4,.34,.3Zm-.42,1.84c.23-.29-.27-.6-.46-.31-.23,.28,.27,.61,.46,.31Zm-.63,4.92c.04,.54,0,1.1,.17,1.63,.09-.46,.1-.94,.22-1.39-.13-.08-.26-.16-.39-.23Zm-.57-3.15c-.33,.07-.35,.74,.07,.57,.35-.06,.35-.74-.07-.57Zm.31-1.29c-.17,0-.51,0-.68,0,.05,.33,.23,.59,.5,.78,.07-.26,.13-.52,.19-.78Zm-.33-1.58c-.32,0-.32,.53,0,.53,.31,0,.31-.53,0-.53Zm.04-1.34c.26-.25-.14-.75-.4-.43-.28,.26,.12,.72,.4,.43Zm-.71,7.43c.33-.08,.22-.72-.14-.61-.37,.1-.24,.7,.14,.61Zm-.37-3.75c-.28-.13-.55-.25-.83-.38,.21,.36,.39,.74,.71,1.02,.03-.16,.09-.48,.12-.64Zm-.63-1.8c.1,.07,.29,.2,.38,.26,0-.33,0-.65-.04-.98-.19,.2-.57,.4-.35,.72Zm-.3-2.47c.26-.13,.26-.27,.01-.4-.26,.13-.26,.26-.01,.4Zm-1.02,3.21c.16,.21,.33,.41,.5,.62,.11-.21,.34-.42,.13-.64-.08-.28-.44,.03-.63,.03Zm-.06-.89c.17-.16,.35-.32,.52-.47-.17-.12-.34-.23-.51-.34-.08,.27-.06,.54,0,.81Zm-1.06,.67c.12,.01,.35,.04,.47,.05,.07-.11,.21-.34,.28-.45-.24-.05-.48-.1-.72-.14,0,.14-.02,.41-.03,.55Zm-.3,2.44c-.02,.14-.03,.28-.04,.41,.19,.03,.37,.05,.56,.08,.3-.44,.24-.93-.02-1.37,.04,.39-.12,.73-.5,.87Zm.05-2.26c-.2,.29-.41,.57-.63,.84,.23,.08,.46,.17,.7,.25-.04-.36-.13-.73-.07-1.09Zm-.21-1.19c.28-.21-.05-.68-.34-.46-.3,.19,.07,.67,.34,.46Zm-.83-.96c.1-.33,0-.44-.31-.34-.11,.32,0,.44,.31,.34Zm-.87,2.66c0,.11,.01,.34,.01,.45,.13,.01,.38,.04,.51,.05,0-.13-.01-.4-.02-.54-.13,0-.38,.03-.51,.04Zm.29,2.92c.21-.25-.23-.46-.38-.24-.21,.24,.24,.45,.38,.24Zm-.51-1.18c-.8,.03-1.57,.27-2.37,.3,.13,.08,.25,.17,.38,.25,.58-.56,1.38-.23,2.06-.08-.02-.12-.05-.35-.07-.47Zm-1.23-1.12c.17,.03,.34,.05,.52,.08,.03-.14,.08-.42,.11-.56-.24,.02-.48,.05-.72,.08,.03,.1,.08,.3,.1,.4Zm.34-2.43c.29,.34,.52,.71,.81,1.05,0-.3-.02-.6-.05-.89-.25-.05-.51-.1-.76-.15Zm-.2-.59c.22-.18-.04-.65-.3-.46-.22,.18,.03,.65,.3,.46Zm-.36,1.55c.23-.29-.28-.58-.48-.32-.22,.29,.28,.59,.48,.32Zm-1.12,1.6c.17-.04,.51-.12,.68-.16-.17-.17-.35-.34-.53-.5-.04,.16-.11,.5-.15,.66Zm-.9,1.15c.1,.56,.6,.16,.9,.02-.25-.38-.6-.28-.9-.02Zm.41-3.24c-.39,.07-.22,.67,.15,.55,.4-.07,.23-.68-.15-.55Zm-.19-1.51c.11-.32,0-.43-.31-.32-.11,.32,0,.43,.31,.32Zm-.82,3.07c-.04,.27,.23,.39,.38,.56,.09-.13,.27-.4,.35-.53-.24-.05-.55-.32-.73-.03Zm0-1.11c.28-.26-.14-.71-.4-.41-.29,.25,.15,.73,.4,.41Zm-.6,2.59c0,.13,0,.39,.01,.52,.2,0,.4-.02,.6-.02,.04-.13,.1-.4,.14-.54-.25,0-.5,.02-.75,.04Zm-.07-1.55c-.24,.02-.49,.04-.73,.07,.05,.16,.11,.33,.17,.49,.13-.01,.38-.04,.51-.05,.01-.13,.04-.39,.05-.52Zm-.56-.98c.23-.29-.27-.6-.47-.32-.23,.28,.27,.59,.47,.32Zm-.96,2.99c.33,.05,.65,.02,.95-.15-.14-.38-.48-.48-.86-.47-.02,.15-.07,.46-.09,.62Zm-1.06,.85c.13,.21,.26,.42,.39,.64,.34-.13,.67-.29,1.03-.36-.42-.33-.91-.48-1.42-.27Zm-.35-4.01c.18,.12,.36,.26,.56,.35,.11-.17,.21-.35,.31-.52-.29,.04-.58,.1-.87,.17Zm-.12,2.58c.06,.44,.1,.89,.08,1.34,.17-.49,.56-.85,.75-1.33-.28-.01-.55-.02-.83-.01Zm-1.12,1.56c.12,.17,.24,.33,.38,.48,.31,.05,.54-.21,.79-.35-.32-.44-.74-.42-1.17-.14Zm-.08-4.27c0,.12,.03,.37,.04,.49,.18-.05,.36-.1,.54-.14,.03-.08,.1-.25,.13-.34-.24,0-.47,0-.71,0Zm-.25,1.32c-.34,0-.68,.02-1.02,.06,.17,.28,.43,.47,.76,.53,.09-.2,.17-.39,.26-.59Zm-1.37-1.24c.16,.17,.33,.33,.5,.49,.04-.16,.11-.5,.14-.66-.16,.04-.49,.13-.65,.17Zm.01,.9c.31-.07,.09-.51-.17-.41-.31,.08-.09,.51,.17,.41Zm-1.1,.51c.1,.3,.4,.35,.67,.42,.06-.22,.13-.44,.19-.66-.31,0-.63,0-.86,.24Zm-.21-1.22h.53c0-.12-.02-.36-.03-.48-.11,.02-.32,.05-.43,.07-.02,.1-.06,.31-.08,.41Zm-.76-.28c.14,.68,.9-.46,.2-.28-.05,.07-.15,.21-.2,.28Zm-.12,1.19c.15,.19,.3,.37,.45,.55,.08-.26,.15-.51,.22-.77-.23,.07-.45,.14-.68,.22Zm-1.78,3.24c.35,.59,.49,1.27,.71,1.92,.18,.51-.08,1.01-.2,1.5,.11,.02,.32,.06,.42,.08-.03-.51,.04-1.02,0-1.53-.19-.79-.59-1.54-.56-2.37-.12,.13-.25,.27-.37,.4Zm-.74,2.24c-.21,.14-.43,.28-.65,.42-.01,.1-.04,.29-.05,.39,.12,.02,.35,.05,.47,.06,.07-.3,.13-.59,.24-.87Zm-.26,1.39c-.14,.11-.28,.22-.42,.34-.09,.32,.3,.33,.48,.46-.02-.2-.05-.6-.06-.8Zm-.49-2.1c.15,.15,.3,.3,.45,.45,.05-.29,.06-.57,.07-.86-.18,.13-.36,.26-.52,.4Zm.77-.55c.11-.13,.23-.26,.34-.39-.05-.09-.16-.27-.21-.36-.2,.06-.4,.12-.6,.19,.15,.19,.3,.38,.47,.56Zm-.85,4c-.02,.11-.07,.33-.09,.44,.14,0,.42,.02,.56,.03-.02-.13-.06-.38-.08-.51-.1,.01-.29,.04-.39,.05Zm-.03,2.29c0,.12,.02,.37,.02,.49,.09-.01,.28-.04,.37-.05,.02-.12,.06-.35,.09-.47-.12,0-.36,.02-.48,.02Zm.11,2.77c.12,.03,.37,.09,.49,.12-.02-.17-.05-.52-.06-.69-.15,.19-.29,.38-.42,.58Zm.78-1.45c.04-.35,.08-.7,.13-1.05-.2,.3-.39,.61-.58,.91,.12,.04,.34,.1,.46,.14Zm.22-1.82c-.04-.25-.09-.5-.14-.75-.12,.21-.22,.44-.32,.66,.12,.02,.35,.07,.46,.09Zm.36-1.24c-.1-.22-.19-.44-.29-.65-.11,.21-.21,.43-.3,.65,.15,0,.44,0,.59,0Zm.13-2.24c.02-.14,.05-.43,.07-.58-.13,.03-.39,.09-.52,.12-.01,.11-.04,.34-.04,.45,.12,0,.37,0,.49,0Zm.33,1.32c.03-.21,.06-.43,.09-.65-.22,0-.43,0-.65,0,0,.19-.01,.37-.02,.56,.14,.02,.43,.07,.58,.1Zm-.43-3.22c-.33,.13-.37,.46-.43,.77,.16,0,.48,.02,.64,.02-.04-.27-.12-.54-.21-.79Zm-.1-2.66c-.31,.29-.58,.62-.87,.93,.28-.01,.56-.02,.84-.03,.02-.3,.03-.6,.03-.9Zm-.57-.38c.31-.2-.07-.66-.34-.45-.3,.2,.06,.66,.34,.45Zm-.77,.99c.31-.2-.04-.66-.32-.44-.31,.19,.04,.66,.32,.44Zm-.51,1.21c.1-.03,.29-.09,.38-.12,.03-.09,.09-.28,.12-.37-.11,.01-.34,.04-.45,.05-.01,.11-.03,.33-.04,.44Zm.31,7.85c-.17,.08-.34,.16-.51,.24,.15,.2,.3,.39,.47,.59,.02-.28,.04-.55,.04-.83Zm-.32,2.2c-.32,.1-.16,.65,.16,.61,.3-.11,.16-.67-.16-.61Zm-.28,1.51c.2-.27-.24-.67-.44-.34-.22,.27,.23,.64,.44,.34Zm-.33-2.62c.11-.32,0-.43-.31-.32-.11,.32,0,.43,.31,.32Zm.55-2.86c.25-.28-.22-.65-.42-.32-.26,.27,.23,.63,.42,.32Zm.26-5.08c.1-.31-.01-.43-.33-.34-.1,.31,.02,.42,.33,.34Zm-.62,1c.15,.05,.45,.16,.59,.21-.02-.18-.07-.53-.09-.71-.17,.16-.34,.33-.5,.5Zm.36,1.56c.27-.19,0-.72-.3-.48-.27,.18,0,.73,.3,.48Zm-.24,1.3c.1-.33,0-.43-.32-.33-.11,.32,0,.42,.32,.33Zm-.5,2.61c.26-.02,.43-.55,.08-.56-.27,0-.41,.54-.08,.56Zm-.79,2.9c-.09,.26,0,.35,.29,.27,.09-.27,0-.36-.29-.27Zm.19-8.66c.1-.32,0-.42-.32-.32-.1,.31,0,.42,.32,.32Zm-6.01,14.61c1,.81,2.2,1.37,3.44,1.72,2.09,.55,4.25-.38,5.9-1.63,1.76-1.25,2.96-3.08,4-4.92-1.12-1.41-2.42-2.85-2.77-4.66-.26-1.09,.75-1.76,1.32-2.52,.4-.66,.68-1.52,.37-2.27-.14,.49-.17,1.01-.34,1.5-.45,1.03-1.8,1.49-1.89,2.72-.13,1.96,1.29,3.51,2.2,5.11-1.01,2.26-2.89,4.1-5.09,5.21-1.42,.7-3.29,1.04-4.65,.04,.97-.42,2.09-.2,3.05-.67,2.29-.98,3.53-3.38,4.19-5.65-.66,.78-.99,1.77-1.57,2.6-.82,1.31-2.05,2.53-3.62,2.82-1.52,.17-3.07,.14-4.54,.61Zm-1.26-13c.66-.08,1.33-.33,1.99-.15,1.56,.31,2.91,2.03,2.34,3.63-.27,.86-1.26,.95-1.97,1.24,.92,0,1.94-.32,2.32-1.24,.84-2.04-1.25-4.51-3.4-4.15-.49,.07-.89,.38-1.28,.66Zm.31,3.49c.48,.64,1.43,.78,2.13,.45,.84-.5,1.05-1.72,.5-2.51-.4-.67-1.33-.86-2.02-.55-1.01,.39-1.33,1.8-.61,2.6Zm-2.34-2.45c.26-.15,.26-.29,.02-.41-.25,.15-.26,.28-.02,.41Zm-.45,.66c.11-.33,0-.44-.3-.32-.11,.33,0,.43,.3,.32Zm-.56,1.8c-.09,.28,0,.38,.26,.29,.09-.28,0-.38-.26-.29Zm-.1-.58c.25-.3-.27-.59-.45-.27-.26,.3,.28,.58,.45,.27Zm65.79,8.74c.75-.21,1.46-.7,1.78-1.44,.3-.87-.02-1.85,.44-2.68,.66-1.28,1.84-2.33,2.01-3.82,.18-1.72-.8-3.25-1.14-4.88-.23-.99,.29-1.95,.25-2.93-.05-1.17-.88-2.14-.85-3.32-.05-.91,.46-1.87,0-2.74-.66-1.34-2.13-2.21-3.61-2.28,.92,.76,2.23,1.27,2.54,2.55,.32,1.2-.62,2.18-.95,3.24-.04,.53,.64,.59,.96,.87,.68,.32,.77,1.22,.41,1.81-.54,1-1.15,2.18-.69,3.33,.56,1.3,1.68,2.45,1.6,3.96-.17,1.62-1.42,2.78-2.19,4.13-.5,.87,.35,1.78,.16,2.68-.11,.56-.48,1.02-.73,1.52ZM8.37,24.75c-.48-.53-.19-1.45,.48-1.65,.85-.3,1.78,.69,1.33,1.5-.32,.73-1.38,.82-1.81,.14Zm.9-.6c.18-.02,.54-.06,.72-.08-.12-.36-.34-.65-.69-.8-.01,.29-.02,.59-.03,.88ZM1.55,29.61c.59,.45,1.2,1.05,2.01,.89-.04-.31,.08-.7-.15-.95-.49-.56-1.24-.86-1.64-1.51-.29-.41-.34-.91-.42-1.39-.7,.51-1.69,1.28-1.21,2.27,.44,.31,1.01,.35,1.42,.7Zm57.57,8.02c0-1.25,.53-2.44,.43-3.7,0-1.8-.92-3.59-2.49-4.52-.66-.37-1.36-.99-2.16-.82-.89,.55-1.55,1.38-2.29,2.11-2.08,2.2-4.47,4.13-7.15,5.56-3.88,2.15-8.24,3.32-12.62,3.92,.63,.3,1.29,.53,1.95,.75,3.69,1.18,7.48,2.16,11.35,2.49,0-.18-.02-.53-.02-.71,1.16-.1,2.34,.04,3.49-.21,3.56-.68,6.77-2.56,9.51-4.87Zm-30.96,3.32c-1.07-.29-2.2-.17-3.29-.32-.59-.08-1.16-.52-1.77-.35-.51,.48-.3,1.26-.24,1.88,.3,2.37,2.01,4.42,4.17,5.37,2.36,1.07,5.03,.98,7.56,.81-2.1-.34-4.05-1.19-6.04-1.91-.26-.12-.5-.25-.73-.41,1-.29,1.96,.4,2.98,.3-1.05-1.11-2.39-1.87-3.56-2.83,1.25,.33,2.44,.94,3.76,.98-.97-.92-2.08-1.68-3.1-2.54,.46-.01,.92,0,1.39-.06-.31-.37-.64-.76-1.12-.9Z"/>
  </g>
</svg>