<?xml version="1.0" encoding="UTF-8"?>
<svg id="Layer_2" data-name="Layer 2" xmlns="http://www.w3.org/2000/svg" viewBox="0 0 82.17 38.2">
  <defs>
    <style>
      .cls-1 {
        fill: #808080;
      }
    </style>
  </defs>
  <g id="Layer_1-2" data-name="Layer 1">
    <path class="cls-1" d="M82.14,22.64c-.09,2.48-1.83,3.47-4.25,2.76-1.24-.36-2.41-1-3.59-1.56-3.46-1.62-7.02-2.77-10.91-2.5-1.76,.12-3.2,.54-4.19,2.29-.69,1.23-1.99,2.11-2.98,3.18-2.11,2.3-3.83,4.74-4.15,8.03-.27,2.82-2.56,4.01-5.22,2.99-2.23-.86-3.62-2.59-4.53-4.69-.53-1.23-1.14-1.62-2.46-1.05-1.85,.8-4.09,.79-5.14,3.07-.45,.97-1.6,1.16-2.66,.88-.67-.17-1.38-.36-1.93-.74-2.5-1.71-5.41-2.09-8.26-2.69-7.25-1.54-13.76-4.89-20.22-8.34-1.79-.96-1.96-1.74-1.26-3.8,.05-.14,.22-.3,.19-.41-.63-2.6,1.31-3.28,3.06-4.08,3.93-1.78,7.81-3.67,11.82-5.26,1.55-.62,2.13-1.52,2.32-2.99,.36-2.74,1.55-5.14,3.24-7.29,.16-.21,.47-.3,.72-.44-.02,.28,.02,.59-.08,.85-.36,1.01-.86,1.98-1.14,3-.4,1.43,.83,3.24,2.3,3.43,.18,.02,.42-.48,.64-.76,1.91,1.19,3.94,1.49,6.13,.94,.58-.14,1.24-.13,1.84-.04,2.22,.32,3.84-.47,5.51-2.03,1.7-1.59,3.91-2.67,5.99-3.79,1.51-.81,2.7-.57,3.57,.93,1.67,2.87,3.8,5.32,6.12,7.65,.99,.4,1.97,.81,2.96,1.2,1.34,.54,1.93,1.57,1.64,2.94-.3,1.38,.3,1.66,1.51,1.9,4.53,.88,8.53,.03,12.02-3.12,1.78-1.6,3.72-3.01,6.32-3.01,2.33,0,4.25,1.14,4.57,3.39,.43,3.02,.62,6.12,.51,9.17Z"/>
  </g>
</svg>