<?xml version="1.0" encoding="UTF-8"?>
<svg id="Layer_2" data-name="Layer 2" xmlns="http://www.w3.org/2000/svg" viewBox="0 0 72.97 59.8">
  <defs>
    <style>
      .cls-1 {
        fill: #808080;
      }
    </style>
  </defs>
  <g id="Layer_1-2" data-name="Layer 1">
    <path class="cls-1" d="M72.76,35.14c-.46,.82-1.3,1.36-2.13,1.76-.06,.03-.13,.01-.18-.04-.39-.43-.24-.91,0-1.38,.11-.2,.34-.54,.22-.78-.19-.35-.76-.55-1.13-.59-1.04-.13-1.67,.89-2.34,1.51-.62,.58-1.33,1.03-2.15,1.26-.89,.25-1.87,.33-2.75,0-.44-.17-.74-.4-1.05-.75-.16-.17-.3-.31-.54-.18-.3,.16-.45,.36-.56,.68-.26,.76-.46,1.5-1.17,1.98-.56,.38-1.1,.35-1.51-.06-.36,.82-.72,1.69-.62,2.53,.13,1.08,.93,1.71,1.87,2.12,1.67,.73,3.75,1.15,4.95,2.64,1.44,1.8,.48,4.1-1.01,5.52-.65,.62-1.4,1.15-2.21,1.54-.77,.37-1.66,.72-2.53,.6-.42-.06-1.57-.67-.97-1.19,.31-.27,.81-.46,1.22-.5,.54-.05,1.25,.11,1.73-.21,.96-.64,.97-2.09,.76-3.12-.2-1.01-.57-2.02-1.22-2.84-.61-.78-1.43-1.4-2.38-1.7-1.01-.32-2.06-.41-3.05-.84-1.65-.72-3.22-2.12-2.99-4.06,.11-.89,.38-1.75,.55-2.63,.13-.67,.33-1.65-.32-2.12-1.18-.87-2.98,.4-4.14-.38,.21,1.1-.14,2.29-.54,3.34-.2,.52-.44,1.03-.66,1.55-.23,.52-.5,1.19-.22,1.74,.49,.95,1.72,1.28,2.68,1.5,1.52,.35,3.02,.62,4.49,1.19,1.22,.48,2.76,1.12,3.4,2.35,.59,1.14-.22,2.33-1.19,2.94-.61,.38-1.24,.74-1.91,1.01-.33,.14-1.05,.5-1.4,.23-.49-.37,.18-1.08,.45-1.35,.4-.38,.86-.72,1.02-1.28,.18-.67,0-1.3-.43-1.83-1-1.22-2.61-1.02-4.01-.77-1.24,.22-2.74,.65-3.94,.06-1.29-.63-1.65-2.2-1.65-3.52,0-1.51,.34-3.02,.19-4.53-.07-.67-.23-1.37-.68-1.89-.45-.51-1.05-.79-1.69-.94-.03,.41-.12,.82-.24,1.2-.35,1.09-1.25,2.21-1.19,3.4,.06,1.19,1.15,1.83,2.03,2.44,.79,.56,1.6,1.39,1.89,2.34,.31,1.02,0,1.93-.63,2.75-.55,.7-1.46,1.48-1.53,2.42-.1,1.29,2.32,1.09,3.09,1.09,.87,0,2.91-.12,2.95,1.18,.02,.62-.38,1.2-.72,1.69-.37,.53-.98,1.18-1,1.86-.03,1.07,2.32,1.76,1.51,2.91-1.01,1.44-3.81,.73-4.62-.59-.58-.95-.31-1.9-.4-2.93-.07-.75-.42-1.24-1.14-1.48-1.11-.37-2.78-.81-2.79-2.29,0-.74,.24-1.44,.38-2.16,.12-.64,.19-1.34-.48-1.55-.16,.09-.32,.17-.48,.26-.71,.39-1.05,.89-.81,1.72,.23,.82,.57,1.6,.73,2.43,.14,.7,.15,1.54-.33,2.13-.5,.61-1.27,.92-2.05,.94-.76,.02-1.79-.23-2.47,.2-.77,.5-.68,1.7-.58,2.49,.09,.7,.22,1.44-.11,2.1-.36,.72-1.21,1.15-1.95,1.33-1.32,.32-3.06,.27-4.19-.57-1.11-.82-1.23-2.37-.24-3.35,.36-.35,.92-.76,1.46-.66,.62,.12,.62,.86,.55,1.36-.02,.13-.15,.22-.27,.16-.05-.02-.41-.24-.33-.03,.03,.08,.07,.16,.13,.22,.14,.16,.33,.33,.55,.37,.52,.11,1.07,.07,1.54-.21,.81-.49,1.38-1.43,1.46-2.37,.07-.78,0-1.65,.36-2.37,.36-.73,1.05-1.21,1.75-1.59,.73-.39,1.8-.78,1.93-1.72,.14-1.04-.59-1.83-1.17-2.59-.47-.62-1.03-1.4-.85-2.23,.18-.85,.78-1.45,1.26-2.13,.31-.44,.61-.94,.59-1.5-.02-.55-.11-1.09-.28-1.62-.33-1.1-.86-2.18-1.62-3.05-.61-.7-1.38-.97-2.23-1.29-.68-.25-1.54-.52-2.02-1.1-.46-.56-.46-1.35-.23-2.01,.13-.38,.34-.77,.37-1.18,.05-.57-.22-1.01-.57-1.44-.55-.67-1.4-1.22-1.77-2.02-.33-.72-.05-1.39,.38-1.98-.45,.14-.89,.33-1.32,.52,0,0-.02,.02-.03,.02-.19,.1-.48,.24-.61,.42-.12,.18,.17,.48,.29,.58,.3,.25,.65,.42,.98,.63,.6,.38,1.14,1.08,1.06,1.83-.1,1-.76,1.71-1.07,2.63-.41,1.19,.58,1.87,1.59,2.19,.81,.26,1.76,.35,2.37,1,.58,.62,.85,1.45,1.03,2.26,.2,.92,.29,1.89,.63,2.78,.39,1.01,.99,2.07,.59,3.18-.38,1.08-1.25,1.87-2.04,2.65-.43,.42-.9,.85-1.21,1.38-.28,.47-.68,1.1-.55,1.68,.31,1.35,1.9,.93,2.83,1.46,.35,.19,.82,.56,.49,.98-.3,.4-.97,.5-1.43,.57-.64,.09-1.4,.14-2.01-.08-.68-.25-1.44-.71-1.76-1.39-.28-.58-.25-1.23-.05-1.83,.51-1.56,1.68-2.79,2.56-4.15,.41-.63,.77-1.3,.77-2.07,0-.7-.28-1.34-.74-1.87-.98-1.12-2.37-1.8-3.56-2.66-1.09-.79-2.41-1.94-2.04-3.45,.15-.6,.44-1.13,.63-1.71,.2-.61,.2-1.27-.08-1.86-.43-.92-1.2-1.63-1.97-2.27-.58-.49-1.35-1.05-1.61-1.8-.17-.5,0-.89,.33-1.2-1.04,.32-.29,2.58-.35,3.38-.05,.62-.51,1.18-.82,1.69-.18,.3-.42,.65-.43,1.01-.02,.39,.15,.74,.38,1.05,.37,.5,.85,.94,1.17,1.48,.42,.71,.71,1.44,1.05,2.19,.5,1.11,1.27,1.86,2.18,2.63,1.08,.91,2.33,1.99,1.93,3.57-.26,1.03-1.01,1.88-1.14,2.96-.07,.61,0,1.21,.08,1.81,.05,.35,.12,.74,.02,1.1-.24,.9-1.21,1.2-1.98,1.52-.59,.24-.86,.65-1.17,1.18-.18,.32-.36,.65-.61,.92-1.19,1.32-3.56,.24-4.7-.63-1.4-1.06-2.48-2.92-1.07-4.45,.56-.61,1.4-1.13,2.26-1.01,.25,.04,.75,.09,.81,.41,.04,.22-.27,.4-.41,.49-.33,.22-1.19,.89-.54,1.27,.41,.24,.91,.28,1.37,.31,.78,.05,1.67,.03,2.34-.42,1.13-.76,1.12-2.26,.89-3.46-.27-1.4-.83-2.77-1.55-3.99-1.07-1.82-2.55-3.38-3.68-5.17-1.12-1.8-1.93-3.84-1.66-5.99,.02-.17,.05-.35,.08-.52-.78,.66-1.89,.84-2.92,.44-.85-.33-1.55-.92-2.18-1.57-.51-.52-1.4-1.96-2.19-1.2-1.22,1.17-2.6,2.62-4.46,2.47-.91-.07-1.8-.81-1.93-1.74-.16-1.08,.44-2.06,.45-3.13,.02-1.65-1.23-3.06-1.72-4.57-.21-.63-.32-1.34-.07-1.98,.3-.75,1.03-1.37,1.77-1.66,.8-.3,1.96-.17,2.61-.79,.73-.69,.28-1.75,.73-2.56,.41-.74,1.34-.76,2.06-.57,.3,.08,2.56,.91,2.38,.08-.17-.77-.84-1.32-1.18-2.02-.22-.45-.45-1.08-.14-1.55,.6-.88,2.18-.4,2.95-.08,.55,.23,1.13,.52,1.55,.96,.59,.63,.87,1.54,.89,2.39,.02,.95-.18,2.08-.89,2.78-.66,.65-1.5,.77-2.38,.83-1.06,.07-2.17,0-3.14,.53-1.14,.63-1.79,1.89-1.89,3.17-.1,1.19,.22,2.44,1.11,3.29,.69,.67,1.59,1.05,2.55,1.15,1.92,.21,3.94-.45,5.46-1.62-.12-.48-.15-1.01,.17-1.36,.04-.06,.1-.11,.18-.11,1.88,0,3.41-1.49,3.68-3.32,.18-1.2,.1-2.39,.12-3.6,.02-1.06,.12-2.12,.39-3.14,.6-2.3,1.88-4.32,3.73-5.82,1.81-1.48,4-2.52,6.21-3.24,2.4-.78,4.86-1.06,7.37-.72,2.55,.34,5.26,.85,7.52,2.15,.01,0,.02,.02,.03,.03,1.38,.69,2.46,1.97,3.25,3.29,1.15,1.91,1.94,4.09,2.48,6.25,.61,2.42,.83,4.94,.42,7.42-.1,.61-.25,1.21-.38,1.82-.1,.5-.22,1.09-.02,1.57,.45,1.06,1.98,1.37,2.73,.46,.07-.08,.16-.06,.2,0,.08,.02,.14,.09,.1,.21-.06,.21-.13,.41-.2,.61,.47,.25,1.02,.39,1.53,.44,2.03,.19,4.14-.64,5.87-1.62,1.81-1.02,3.46-2.38,4.3-4.34,.9-2.09,.78-4.78-.61-6.64-.59-.78-1.68-1.53-2.72-1.15-.83,.31-1.46,.99-2.24,1.38-.54,.27-1.39,.45-1.7-.26-.29-.67-.03-1.46,.25-2.1,.34-.8,.81-1.62,1.55-2.11,.73-.49,1.58-.64,2.45-.59,1.02,.06,2.01,.3,3.03,.39,.94,.08,1.92,.04,2.82,.35,2.35,.81,2.15,3.59,2.64,5.59,.16,.66,.48,1.2,.79,1.8,.22,.44,.46,.92,.48,1.42,.05,1.05-.68,1.73-1.28,2.49-.35,.44-.66,.98-.63,1.57,.03,.53,.2,1.06,.38,1.55,.23,.66,.52,1.48,.08,2.12-.82,1.2-2.88,.42-4,.22-.78-.14-1.71-.35-2.13,.52-.41,.86-.43,1.87-.74,2.76-.27,.79-.7,1.58-1.44,2.02-.77,.45-1.74,.48-2.5-.03-.79-.53-1.26-1.34-1.67-2.18-.15-.31-.32-.76-.74-.56-.35,.17-.66,.42-.98,.63-1.13,.75-2.45,1.68-3.84,1.81-.15,.01-.29,.01-.44,0,.84,.51,1.82,.57,2.86,.5,1.08-.07,2.24-.26,3.28,.12,.85,.32,1.28,1.03,1.59,1.85,.22,.57,.46,1.16,1.02,1.48,.5,.29,1.07,.39,1.64,.38,2.02-.04,3.78-.91,5.69-1.45,1.63-.46,3.72-.84,5.05,.51,.63,.64,1.03,1.49,.55,2.35Z"/>
  </g>
</svg>