<?xml version="1.0" encoding="UTF-8"?>
<svg id="Layer_2" data-name="Layer 2" xmlns="http://www.w3.org/2000/svg" viewBox="0 0 77.89 77.44">
  <defs>
    <style>
      .cls-1 {
        fill: #808080;
      }
    </style>
  </defs>
  <g id="Layer_1-2" data-name="Layer 1">
    <path class="cls-1" d="M76.63,33.38c-.34-.47-1.13-.19-2.03-.87-.9-.68-2.93-1.07-4.91-2.82-1.99-1.75-3.97-2.17-7.55-4.39-3.58-2.22-6.85-1.59-7.74-1.49-.89,.1-1.29,.49-1.09-.4,.21-.89,1.26-2.47,.32-1.33-.94,1.14-.81,.91-.47-.03,.34-.94,.41-1.77,.5-3.97s-.17-4.81-.86-8.22c-.69-3.41-3.19-5.99-4.47-6.84-1.27-.85-4.07-2.3-2.41-1.19s2.71,1.78,4.28,3.7c1.57,1.92,1.76,5.24,1.92,6.74,.16,1.5-.27,.53-.73-1.15-.45-1.68-1.4-4.38-3.47-4.74s-3.57,1.05-2.08,.53c1.49-.52,3,.6,3.86,2.2,.86,1.61,1.47,3.33-.31,2.84-1.78-.49-2.2-1.02-3.59-3.08-1.39-2.06-4.29-3.51-7.48-3.55-3.19-.04-6.44,.76-4.57,.55,1.87-.21,3.78,.01,6.38,.46,2.6,.44,5.21,2.47,5.42,3.38,.21,.91-.3,1.54-1.63,.07-1.33-1.48-4.98-2.82-8-2.95-3.02-.13-4.44,.38-1.48,.38,.33,0,.66,.01,.99,.04,2.64,.2,5.23,1.15,6.38,2.01,1.29,.97,1.78,1.55,1.76,2.73-.01,1.18-.18,.8-1.49-.13-1.31-.93-3.01-2.43-5-2.53s-3.15,.52-.68,.38c2.47-.14,3.52,1.68,4.27,3.01,.74,1.33,1.25,3.59-.35,2.61-.32-.19-.61-.43-.9-.66-.2-.16-.65-.39-.79-.6,.09,.13,.14,.27,.2,.41,.42,1.19,.87,2.42,.98,3.69,.08,.95,.1,1.88,.09,2.83-.01,.93-.1,1.88,.03,2.8,.12,.88,.52,1.79,1.3,2.23-.59-.32-1.04-.8-1.32-1.41-.07-.15-.11-.32-.17-.48-.04-.16-.08-.32-.11-.49l-.04-.25-.03-.25c-.02-.16-.04-.33-.06-.49-.07-.65-.12-1.31-.17-1.96-.11-1.55-.45-3.09-1.04-4.54-.29-.72-.64-1.41-1.05-2.08-.37-.6-.81-1.43-1.43-1.81-.33-.2-.74-.29-1.1-.46-.75-.36-1.44-.82-2.09-1.35-1.11-.92-2.03-2.02-2.9-3.16-.16-.2-.31-.41-.47-.61-1.18-1.51-4.54-4.71-5.68-6.01-1.15-1.29-.62-.61-.12,.24,.5,.85,1.27,1.71-.41,.73-1.69-.99-2.08-1.71,1.52,1.82,3.61,3.53,1.67,2.72-2.22,.86-3.89-1.86-2.51-1.2,.6,1.05,3.11,2.25,2.85,2.7,.95,1.95s-2.85-1.76-6.82-4.22c-3.97-2.46-.61,.35,1.55,1.92,2.17,1.57,1.72,1.69-1.46,.73-3.19-.95-6.89-1.57-2.59,.12,4.3,1.69,3.67,1.71,5.44,2.72,1.76,1.01,2.47,2.89,1.52,4.11-.95,1.22-3.03,.69-4.6-.12-1.57-.81-5.57-2.28-9.13-3.42-3.56-1.14-1.25-.49,2.33,1.15,3.59,1.64,1.55,1.44-.53,.81-2.08-.63-2.94-.61-.91,.05,2.03,.66,3.45,1.6,6.66,2.82,3.21,1.22,3.61,2.7,1.12,2-2.49-.71-5.13-1.5-10.48-3.97-5.34-2.47-.5,1.17,1.74,2.15s6.02,2.31,8.17,3.39c2.16,1.08,2.04,2.01,.24,1.71-1.79-.3-3.07-1.41-5.43-2.53-2.36-1.12-3.37-1.57-5.53-2.74-2.16-1.18-2.42-1.13-.37,.23,2.05,1.35,.59,.82-1.64,.16-2.22-.67-2.59-.7,.43,.46s2.67,1.41,7.19,3.23c4.53,1.82,5.04,2.7,.74,2.12-4.29-.59-13.37-1.23-9.49-.65,3.88,.59,5.59,1.31,10.8,2.14,5.21,.82,7.39,2.96,4.86,3.14-2.53,.18-4.88-.08-10.11-.49-5.23-.41-10.05-.53-6.25,.47,3.8,1,5,1.23,9.45,1.76,4.45,.53,7.8,.59,2.67,1.37-5.13,.78-16.05,2.69-12.15,2.7,3.9,.02,6.68-.65,12.41-.94,5.72-.29,2.7,2.51-1.33,3.31-4.04,.8-15.91,1.2-9.55,1.38,6.36,.18,5.92,.13,9.5,.17,3.58,.04,4.85,1.05,3.29,3.04-1.55,2-3.58,2.17-8.14,3.2-4.56,1.03-4.26,1.37-1.87,1.03,2.39-.34,5.06-.67,8.11-1.55,3.06-.89,3.16-.21,.52,1.52-2.64,1.72-2.69,1.75-8.55,4.21-5.85,2.46-4.57,2.22-1.36,1.2,3.21-1.02,5.25-2.06,1.67,.05-3.58,2.12-6.74,3.48-.78,.73,5.96-2.74,6.92-3.58,11.26-5.59,4.34-2.01,3.14,.5,.82,2.36-2.31,1.86-5.04,3.63-9.41,5.66-4.36,2.03-.97,1.31,2.08,.1,3.04-1.2,1.95-.82-.39,.89-2.34,1.71-4.04,3.72-1.45,2.13,2.59-1.59,3.4-2.35,6.34-4.1,2.94-1.75,1.59-.21,.39,1.14-1.2,1.35-3.89,4.31-5.53,5.5-1.63,1.19-4.72,3.15-2.34,1.82,2.38-1.33,3.21-1.84,5.1-3.14,1.88-1.29,3.74-3.16,5.24-4.21,1.5-1.05,2.06-1.46,2.08-.3,.01,1.16-.47,1.52-3.24,4.02-2.77,2.51-5.1,6.65-3.19,4.31,1.91-2.34,1.88-2.42,3.84-3.72,1.96-1.31,3.31-2.55,5.02-4.4,1.71-1.86,1.45-.41,.41,1.42-1.05,1.83-.99,1.89-2.64,4.61-1.65,2.72-2.76,6.4-1.71,4.09,1.05-2.31,.99-2.47,2.63-4.31,1.63-1.84,2.44-3.07,3.88-5.21,1.44-2.14,1.78-1.37,.8,1.03-.98,2.4-2.56,3.8-4.18,6.3-1.62,2.5-2.67,2.89-1.23,2.06,1.44-.82,3.62-3.98,4.56-5.24,.94-1.25,1.99-3.15,2.76-4.27,.77-1.13,1.58-2.29,1.41-1.59-.17,.71-.09,.73-2.83,5.46-2.74,4.72-1.16,7.25-1.16,7.25-.74-4.1,.92-4.53,1.86-6.31,.94-1.78,1.65-3.88,3.16-5.17,1.51-1.29,2.2-2.29,2.18-1.14s-1.18,1.96-2.9,4.82c-1.72,2.86-4.29,5.27-4.29,5.27,0,0,1.12-.24,3.76-2.92,2.65-2.69,2.86-3.31,3.86-4.71,1-1.4,1.36-1.18,2.08-.3,.72,.87,.21,.84-.27,2.44-.48,1.6,.57,3.81,.57,3.81,0,0-.26-1.17-.27-2.39,0-1.22,.72-2.13,.75-1.18s.34,1.08,.55,2.61c.21,1.53,.15,1.54-.87,3.35-1.02,1.81-2.77,4.55-4.36,6.66-1.59,2.12-5.32,4.09-1.37,1.77,3.95-2.31,4.34-4.22,5.52-5.59,1.18-1.36,1.9-3.19,2.85-4.1,.95-.9,2.01-.78,1.28,.73-.73,1.52-1.92,2.94-3.74,5.02-1.82,2.08-6.66,4.74-4.37,3.82,2.29-.92,4.36-2.63,5.3-3.53,.94-.9,1.8-2.29,2.89-3.84,1.09-1.55,1.54-1.5,2.09-3.2,.55-1.71,.94-1.64,1.65-3.34,.71-1.7,.71-1.42,.98-.14,.27,1.28,.05,1.87-.54,3.41-.59,1.54-1.08,3.45-1.74,5.28-.65,1.83-2.94,3.83-3.84,4.86-.9,1.03-3.1,2.06-5.11,2.9-2.01,.84-6.1,1.69-4.97,1.46,1.14-.22,1.78-.08,3.21-.41,1.44-.33,3.78-.93,4.59-1.07,.81-.14,3.36-.59,5.7-1.41,2.34-.82,3.7-2.12,5.49-4.53,1.79-2.42,1.08-1.25,.35,.57-.73,1.83-2.29,3.67-4.26,5.19-1.97,1.52-7.2,3.59-7.2,3.59,0,0,.85-.25,3.58-1.07,2.73-.82,4.68-2.68,5.8-3.61,1.12-.93,1.88-2.3,1.28-.82-.6,1.48-1.2,1.53-2.89,2.86-1.69,1.33-4.39,2.42-4.39,2.42,0,0,.84-.12,2.52-.93,1.69-.81,2.98-1.49,2.71-1.26-.26,.23-.85,1.28-2.72,2.87-1.87,1.59-3.5,3.12-2.25,2.37,1.24-.74,1.9-1.31,3.4-2.95,1.5-1.63,2.78-3.11,4.83-4.98,2.05-1.87,3.04-4.17,3.59-6.48,.55-2.31,1.16-2.47,1.87-4.93,.71-2.46,1.16-2.74,1.16-1.15s-.54,3.18-.34,4.49c.2,1.3-.12,2.73-.23,4.12-.11,1.38,.02,1.06-1.6,2.66-1.62,1.6-3.53,3.85-2.54,3.03,.99-.82,1.43-.87,2.6-1.93,1.17-1.06,1.28-1.76,1.32-.24,.04,1.53-.21,3.57-.94,5.03-.73,1.46-1.71,2.04-1.71,2.04,0,0,.85-.19,1.91-1.8,1.06-1.62,1.72-4.19,2.03-5.75,.3-1.56-.08-2.04,.97-3.17,1.05-1.13,1.44-2.32,2.31-3.94,.87-1.62,1.04-1.22,1.15-.68,.11,.55-.03,.79-.66,2.89-.63,2.1-5.02,5.7-2.59,4.06,2.43-1.65,3.24-4.43,3.78-6.04,.54-1.61,.61-3.13,.53-4.52-.08-1.39,.57-.64,1.03,.83,.46,1.46-.55,2.77-.55,2.77,0,0,.17-.08,1.01-1.46,.84-1.38-.27-3.44-.98-4.97-.71-1.53-2.06-2.63-2.23-4.48-.17-1.86-1.22-3.5-1.49-4.78-.27-1.28-.56-1.8,.48-2.1,1.05-.3,1.58-.37,1.02,1.4-.56,1.76,.67,2.38,.67,2.38,0,0-.69-1.1,.28-1.73,.97-.63,2.02-1.34,1.52-.19s-1.41,.99-1.41,.99c0,0,.7,.34,1.8-.04,1.11-.39,.93-.63,1.38-1.5,.45-.87,.88-.58,.59,.03-.29,.61-.66,.93-.05,.49,.6-.45,1.13-.92,.99-2-.14-1.08,.02-.83,.65-.77,.63,.06,.64,.68,1.39,.78,.75,.11,1.37,.19,.81,.85-.56,.66-.13,.73,1.21,.56,1.34-.17,1.17-.26,1.86,.73,.69,.99,.93,1.6,.83,.5-.1-1.1,.08-.72,.5,.48,.41,1.2,.26,1.01,.37-.16,.1-1.17,.46-.72,1.56-.14,1.1,.58,1.82,1.8,1.39,.61-.43-1.2-1.83-2.69-2.36-3.36-.53-.68-.82-1.66-.82-1.66-.18-.51,2.32-1.03,3.57-2.19,1.25-1.16,2.83-3.04,3.19-4.45,.36-1.41-.85-.57-1.2-1.04Zm-40.42,36.8c-.73,.27-1.3,.21,.28-.51,1.59-.72,1.7-1.54,3.44-3.01,1.74-1.47,1.73-2.62,2.95-4.31,1.22-1.7,1.16-2.2,1.02-.36-.14,1.83-1.07,2.66-2.01,4.07-.94,1.41-2.47,2.54-3.22,3.16-.75,.62-2.41,.95-2.46,.97Zm8.59-4.5c-2.33,1.88-1.79,2.32-3.44,3.06-1.65,.74-2.03,.73-1.55,.45,0,0,3.23-1.69,4.37-4.25,1.14-2.57,1.69-1.78,2.43-4.57,.74-2.78,1.41-4.35,1.63-1.98,.22,2.37-1.11,5.41-3.44,7.29Zm11.91-4.6c-.18,1.34-2.37,3.55-2.37,3.55-.33,.3,.04-.71,.29-1.38s.31-1.17,.93-2.81c.62-1.65,1.32-.7,1.15,.65Z"/>
  </g>
</svg>