<?xml version="1.0" encoding="UTF-8"?>
<svg id="Layer_2" data-name="Layer 2" xmlns="http://www.w3.org/2000/svg" viewBox="0 0 158.24 41.34">
  <defs>
    <style>
      .cls-1 {
        fill: #808080;
      }
    </style>
  </defs>
  <g id="Layer_1-2" data-name="Layer 1">
    <path class="cls-1" d="M157.83,9.71c.6,.65,.56,.91-.26,1.11-1.39,.33-2.61,1.04-3.9,1.62-1.78,.81-3.61,1.52-5.43,2.22-2.04,.78-3.8,1.97-5.42,3.42-1.22,1.09-2.5,2.11-3.77,3.13-.6,.49-.65,.51-.23,1.15,.64,.96,1.38,1.88,1.48,3.09,.09,1.05,.18,2.11,.21,3.17,.03,1.06,.02,2.12,0,3.18-.01,.45-.07,.9-.17,1.33-.18,.79-.29,.81-1.13,.88-1.89,.16-3.52-.65-5.12-1.44-1.6-.79-3.14-1.73-4.66-2.69-1.95-1.22-3.64-2.75-4.78-4.78-.38-.68-.74-1-1.58-.8-.8,.19-1.66,.17-2.49,.25-.63,.06-.66,.1-.42,.71,.44,1.11,.91,2.2,1.34,3.3,.65,1.66,.24,2.34-1.55,2.3-1.04-.02-2.11-.26-3.11-.56-3.13-.94-6.25-1.93-9.36-2.96-.97-.32-1.85-.88-2.8-1.27-.49-.2-1.04-.36-1.56-.34-2.4,.08-4.81,.23-7.21,.36-.32,.02-.65,.01-.95,.11-.21,.07-.49,.27-.54,.46-.18,.71-.66,1.17-1.18,1.61-.66,.55-.99,1.19-.96,2.09,.03,1.22-.6,1.66-1.64,1.05-1.1-.64-2.09-1.47-3.1-2.25-.86-.67-1.66-1.42-2.55-2.05-.39-.27-.94-.44-1.42-.43-3.02,.02-6.04,.14-9.06,.14-3.44,0-6.88-.04-10.31-.2-3.27-.15-6.52-.47-9.79-.69-1.66-.11-3.33-.16-4.99-.24,.04,.12,.06,.26,.14,.35,1.81,1.91,2.6,4.33,3.33,6.76,.73,2.42,1.68,4.72,3.21,6.76,.08,.1,.19,.2,.22,.32,.07,.36,.26,.81,.12,1.07-.14,.24-.64,.4-.97,.39-1.79-.03-3.48-.52-5.13-1.19-3.99-1.61-7.05-4.39-9.68-7.7-1.6-2.02-3.04-4.14-4.08-6.51-.39-.88-.94-1.26-1.93-1.2-3.52,.22-7.05,.43-10.58,.53-4.21,.13-8.42,.26-12.62,.18-2.59-.05-5.17-.57-7.64-1.44-.9-.32-1.77-.76-2.62-1.22-.98-.54-1.39-1.45-1.14-2.32,.26-.92,1.11-1.45,2.28-1.35,1.21,.1,2.42,.32,3.64,.36,3.22,.09,6.13-.94,8.8-2.68,3.37-2.19,6.73-4.39,10.09-6.59,3-1.96,6.15-3.61,9.54-4.79,.44-.15,.82-.48,1.23-.72,1.13-.67,2.21-1.44,3.4-1.97,1.6-.72,3.29-1.26,4.94-1.86,.22-.08,.46-.06,.7-.09-.05,.2-.11,.41-.16,.61-.03,.14-.06,.29-.08,.44,.15,0,.31,.01,.45-.03,1.13-.36,2.25-.77,3.39-1.1C49.67,.31,51.07,0,52.52,0c.14,0,.28,.08,.41,.12-.05,.11-.09,.23-.16,.33-.26,.37-.54,.72-.79,1.09-.07,.11-.05,.29-.08,.44,.15-.01,.31,.01,.44-.04,.77-.31,1.55-.62,2.31-.96,1.73-.77,3.55-.8,5.39-.75,.12,0,.23,.08,.34,.12-.07,.13-.12,.28-.23,.38-.32,.31-.67,.6-.99,.92-.18,.18-.33,.39-.46,.61-.05,.09,0,.23,.01,.35,.09-.02,.18-.03,.27-.07,.65-.27,1.29-.57,1.95-.81,1.64-.61,3.33-.98,5.09-.92,.18,0,.36,.08,.54,.13-.09,.16-.15,.33-.27,.47-.29,.34-.63,.65-.9,1-.11,.14-.11,.36-.15,.54,.17-.02,.36,0,.52-.06,1.47-.58,2.96-1.04,4.54-1.21,.16-.02,.32-.08,.47-.07,.3,.03,.6,.11,.9,.17-.11,.25-.22,.51-.31,.77-.07,.2-.12,.4-.18,.6,.24,.02,.49,.08,.72,.04,1.48-.26,2.96-.57,4.45-.81,.35-.06,.74,.09,1.11,.14-.18,.32-.34,.65-.53,.97-.06,.11-.18,.19-.24,.3-.09,.16-.15,.34-.23,.51,.2,0,.42,.07,.6,.02,2-.48,4.01-.92,6.09-.79,.22,.01,.45,0,.67,.03,.39,.05,.48,.28,.32,.62-.04,.09-.1,.17-.13,.26-.12,.31-.24,.61-.36,.92,.3-.06,.61-.11,.91-.17,1.58-.32,3.16-.61,4.78-.48,.17,.01,.33,.14,.49,.21-.07,.14-.13,.28-.21,.41-.21,.3-.43,.6-.65,.9,.37,0,.74,0,1.12,0,.71,0,1.42-.02,2.12,.03,.71,.05,.78,.18,.52,.86-.15,.39,.03,.34,.31,.33,.8-.03,1.61-.05,2.41-.04,.32,0,.7,.07,.57,.55-.13,.47,.2,.38,.43,.39,.58,.02,1.16,0,1.74,.02,.5,.02,.7,.27,.49,.76,.59,.11,1.3-.29,1.76,.42,.02,.03,.54-.23,.79-.41,.74-.56,1.48-1.13,2.2-1.72,1.48-1.21,3.19-2.01,4.95-2.71,.85-.34,1.75-.58,2.64-.8,.6-.15,.99,.19,1.31,.72,.61,1.01,1.32,1.97,1.96,2.96,.45,.7,.92,1.39,1.27,2.14,.77,1.63,1.92,2.94,3.21,4.16,.3,.28,.59,.59,.87,.9,.67,.71,1.42,1.19,2.45,1.06,.98-.12,1.98-.16,2.96-.34,.37-.06,.68-.4,1.02-.61h0c.25-.14,.52-.25,.74-.42,3.17-2.53,6.69-4.42,10.5-5.76,1.57-.55,3.21-.89,4.8-1.38,2.11-.65,4.3-.76,6.47-.87,1.82-.09,3.63,.14,5.41,.68,1.58,.49,2.79,1.4,3.86,2.57Z"/>
  </g>
</svg>