<?xml version="1.0" encoding="UTF-8"?>
<svg id="Layer_2" data-name="Layer 2" xmlns="http://www.w3.org/2000/svg" viewBox="0 0 149.9 30.62">
  <defs>
    <style>
      .cls-1 {
        fill: #808080;
      }
    </style>
  </defs>
  <g id="Layer_1-2" data-name="Layer 1">
    <path class="cls-1" d="M2.57,18s-1.67-2.44,5.4-3.34c7.07-.9,12.47-6.68,27.64-6.94,15.17-.26,56.95-.64,56.95-.64L104.9,0s-2.06,7.07,.9,9c2.96,1.93,20.31,2.31,20.31,2.31,0,0,13.5-9.51,21.73-8.23,0,0-7.84,5.14-6.56,8.87s-2.44,2.96-.39,6.04c2.06,3.09-1.67,3.47,1.29,5.4,2.96,1.93,1.54,2.31,7.71,4.11,0,0-11.96,2.44-17.74-3.34-5.78-5.78-21.6-1.41-21.6-1.41,0,0-.9,4.63,1.03,7.07,0,0-10.28-.26-14.01-3.21-3.73-2.96-17.23,5.66-40.49,3.73-23.27-1.93-29.44-5.4-39.59-5.91C7.33,23.91-.13,21.08,0,18.25l2.57-.26Z"/>
  </g>
</svg>