<?xml version="1.0" encoding="UTF-8"?>
<svg id="Layer_2" data-name="Layer 2" xmlns="http://www.w3.org/2000/svg" viewBox="0 0 125 47.05">
  <defs>
    <style>
      .cls-1 {
        fill: #808080;
      }
    </style>
  </defs>
  <g id="Layer_1-2" data-name="Layer 1">
    <path class="cls-1" d="M42.64,33.57c-1.22,2.79-1.78,5.72-1.76,8.79,.14,1.3,.3,2.59,.42,3.89,.02,.26-.11,.54-.18,.81-.25-.15-.58-.23-.73-.45-2.16-3.01-3.04-6.37-2.57-10.05,.15-1.22,.36-2.44,.65-3.64,.27-1.13-.09-1.7-1.21-2.04-2.14-.64-4.3-1.26-6.35-2.13-3.3-1.4-6.51-3.03-9.8-4.48-.73-.32-1.63-.4-2.44-.38-5.39,.11-10.79,.28-16.18,.42-.31,0-.63,.06-.92-.01-.53-.13-1.04-.35-1.57-.53,.46-.18,.9-.45,1.37-.53,8.35-1.38,16.75-2.53,25.05-4.19,4.27-.85,8.38-2.55,12.51-4.01,.63-.22,1.19-1.14,1.44-1.86,1.38-4.05,3.28-7.8,5.92-11.17,.43-.54,.85-1.12,1.37-1.56,.76-.63,1.64-.69,2.12,.31,.47,.98,1.1,1.4,2.17,1.27,.28-.03,.7,.03,.87,.22,1.88,1.98,4.48,1.96,6.86,2.61,.46,.13,.85,.6,1.23,.97,.49,.48,.87,1.34,1.42,1.46,2.22,.47,3.83,2,5.7,3.05,.45,.25,1,.54,1.23,.97,1.01,1.84,2.69,2.43,4.59,2.66,1.46,.18,2.27,.95,3.23,2.15,1.49,1.86,3.65,3.2,5.59,4.67,.83,.63,1.82,1.08,2.78,1.49,.68,.29,1.43,.46,2.17,.53,4.52,.43,9.04,.76,13.55,1.27,1.23,.14,1.64-.49,2.15-1.28,3.24-5,7.37-9.13,12.54-12.07,2.45-1.4,5.19-2.3,7.82-3.37,.38-.16,.88-.03,1.32-.03-.25,.44-.41,.97-.76,1.29-.86,.77-1.95,1.31-2.7,2.16-3.89,4.47-7.71,9.01-11.54,13.53-1.36,1.6-1.13,3.41-.63,5.26,1.51,5.55,4.18,10.4,8.39,14.37,.43,.41,.66,1.04,.98,1.56-.55-.2-1.15-.31-1.64-.6-4.97-2.96-8.43-7.37-11.52-12.12-.8-1.22-1.53-2.5-2.2-3.79-.4-.78-.81-.92-1.65-.6-3.6,1.36-7.21,2.69-10.85,3.91-1.31,.44-1.25,1.35-1.3,2.35-.02,.35-.21,.7-.33,1.05-.39-.16-.93-.21-1.15-.5-1.2-1.63-2.73-1.84-4.66-1.65-5.44,.54-10.9,1.13-16.36,1.16-5.3,.04-10.59-.59-15.89-.91-.52-.03-1.04,.02-1.56,.03,.12,.5,.17,1.04,.39,1.5,1.08,2.27,2.67,4.13,4.77,5.53,.38,.26,.79,.49,1.12,.81,.19,.18,.25,.5,.37,.76-.28,.05-.6,.23-.82,.14-4.05-1.48-7.88-3.23-9.56-7.66-.19-.5-.29-1.11-.63-1.47-.44-.46-1.06-.85-1.67-.97-.25-.05-.77,.65-.96,1.09Z"/>
  </g>
</svg>