<?xml version="1.0" encoding="UTF-8"?>
<svg id="Layer_2" data-name="Layer 2" xmlns="http://www.w3.org/2000/svg" viewBox="0 0 46.92 35.82">
  <defs>
    <style>
      .cls-1 {
        fill: #808080;
        fill-rule: evenodd;
      }
    </style>
  </defs>
  <g id="Layer_1-2" data-name="Layer 1">
    <path class="cls-1" d="M23.9,0c1.26,.02,1.37,.04,2.48,.32,1.14,.29,1.2,.3,2.15,.26,.59-.02,1.14,0,1.38,.05,1.15,.25,2.96,1.46,4.06,2.72,.73,.83,1.11,1.18,1.7,1.52,1.08,.62,1.84,1.25,3.35,2.72,1.81,1.76,3.04,2.69,3.93,2.99,.14,.05,.94,.11,1.79,.14,1.62,.05,1.93,.12,2.11,.44,.34,.64-.41,1.97-1.52,2.73-.5,.34-.9,.52-1.92,.89-.38,.14-.7,.27-.7,.3,0,.07,.41,.14,.8,.14,.17,0,.78-.07,1.34-.15,.77-.11,1.06-.13,1.24-.07,.47,.17,.37,.73-.22,1.16-.38,.28-1.41,1.33-2.32,2.35-.53,.61-1.11,1.37-2.11,2.79-.53,.75-.98,1.24-1.79,1.97l-.55,.48,.11,.6c.28,1.52,.23,2.41-.2,3.27-.22,.42-.32,.53-.75,.82-.47,.3-.53,.36-.68,.78-.21,.59-.57,.95-1.16,1.17-.59,.22-.62,.25-1.01,.94-.52,.91-1.15,1.4-1.8,1.4-.97,0-1.17-.6-.8-2.38,.23-1.09,.3-1.37,.54-1.93,.1-.25,.17-.48,.15-.53-.05-.16-.53,.65-1.01,1.71-.67,1.49-1.06,2.04-1.93,2.73-1.43,1.14-4.27,2.47-6.13,2.88-.83,.18-2.59,.41-4.04,.53-1.17,.09-3.01,.05-3.68-.08-1.73-.35-2.95-1.15-3.55-2.32-.2-.4-.21-.47-.2-1.4,0-.95,.02-1.01,.36-2.07,.53-1.64,.56-1.73,.64-2.26,.19-1.21,.17-2.54-.04-2.61-.11-.04-.84,1.14-1.23,1.97-1.09,2.35-1.63,3.17-2.98,4.49-.77,.76-1.24,1.1-2.08,1.52-1.6,.8-3.11,.85-3.9,.14-.63-.57-.71-1.17-.39-2.73,.11-.51,.21-1.26,.23-1.66,.06-1.04-.09-1.48-.95-2.74-1.31-1.89-1.53-2.24-1.86-2.96-1-2.16-1.02-4.19-.05-5.05,1.02-.89,2.71-.86,5.41,.08,.97,.34,1.61,.62,3.2,1.42,1.15,.58,2.65,1.14,2.76,1.04,.08-.08-.11-.69-.42-1.37-.26-.54-.37-.68-1.17-1.43-2.9-2.7-3.43-3.35-3.9-4.79-.33-1.02-.39-1.64-.23-2.55,.25-1.5,.55-2.19,1.43-3.31,1.33-1.68,2.94-2.86,5.76-4.23,1.78-.86,3.14-1.44,4.17-1.74,.38-.11,.92-.28,1.2-.38,.69-.23,2.16-.56,3.01-.68,.42-.07,1.17-.1,1.99-.08Z"/>
  </g>
</svg>