<?xml version="1.0" encoding="UTF-8"?>
<svg id="Layer_2" data-name="Layer 2" xmlns="http://www.w3.org/2000/svg" viewBox="0 0 99.47 48.25">
  <defs>
    <style>
      .cls-1 {
        fill: #808080;
      }
    </style>
  </defs>
  <g id="Layer_1-2" data-name="Layer 1">
    <path class="cls-1" d="M53.5,0s.07,0,.1,0c.11,.03,.22,.09,.33,.08,2.73-.09,5.46,.06,8.16,.45,5.26,.76,10.26,2.34,14.94,4.88,2.91,1.58,5.58,3.47,7.95,5.79,2.02,1.97,3.73,4.21,5.28,6.57,.13,.2,.27,.41,.45,.55,2.2,1.73,4.31,3.57,6.29,5.55,.11,.11,.21,.13,.37,.11,.24-.03,.49-.04,.72,0,.64,.11,1.08,.5,1.38,1.06v.73c-.12,.12-.22,.27-.35,.37-.12,.09-.15,.18-.15,.32,.01,.32,.02,.64,0,.96-.03,.34-.2,.59-.54,.72-.37,.14-.74,.16-1.11,.09-.16-.03-.28-.02-.42,.1-1.1,1-2.18,2.01-3.32,2.96-2.94,2.45-6.1,4.58-9.43,6.46-1.22,.69-2.49,1.28-3.69,2-4.23,2.58-8.66,4.71-13.31,6.42-2.98,1.1-6.05,1.73-9.2,1.99-.31,.02-.61,.07-.92,.1h-4.92c-.06-.02-.11-.04-.17-.05-1.18-.16-2.37-.27-3.55-.48-2.08-.37-4.11-.94-6.06-1.75-3.35-1.4-6.32-3.38-9-5.8-2.23-2.02-4.16-4.3-5.77-6.84-.05-.08-.16-.17-.25-.19-.97-.23-1.94-.45-2.9-.68-1.98-.48-3.97-.93-5.94-1.46-1.23-.33-2.4-.85-3.39-1.69-.06-.05-.2-.04-.27,0-.51,.22-1.02,.46-1.53,.69-1.83,.85-3.66,1.7-5.5,2.53-.83,.37-1.72,.56-2.64,.37-1.06-.22-1.82-.88-2.42-1.73-1.2-1.7-2.03-3.57-2.43-5.61-.38-1.93-.32-3.88-.07-5.83,.12-.92,.34-1.82,.81-2.63,.57-1,1.44-1.38,2.55-1.13,.82,.18,1.57,.52,2.3,.92,1.03,.57,2.02,1.23,3.08,1.74,1.94,.94,3.91,1.79,5.87,2.69,.25,.11,.41,.08,.63-.06,1.09-.7,2.33-.98,3.58-1.18,1.55-.26,3.12-.46,4.67-.69,.08-.01,.19-.12,.2-.2,.1-.55,.17-1.11,.27-1.65,.37-1.92,1.11-3.68,2.2-5.3,1.48-2.17,3.39-3.91,5.55-5.36,4.85-3.25,10.22-5.2,15.96-6.17,1.79-.3,3.59-.48,5.41-.57,.07,0,.14-.07,.21-.1Z"/>
  </g>
</svg>