<?xml version="1.0" encoding="UTF-8"?>
<svg id="Layer_2" data-name="Layer 2" xmlns="http://www.w3.org/2000/svg" viewBox="0 0 56.32 52.81">
  <defs>
    <style>
      .cls-1 {
        fill: #808080;
      }
    </style>
  </defs>
  <g id="Layer_1-2" data-name="Layer 1">
    <path class="cls-1" d="M53.58,43.75c.34-1.02,1.84-5.11,1.98-6.13s1.16-1.84,.61-2.11c-.54-.27-5.65,5.31-7.9,7.77-.61,.41-9.04-.56-10.62-10.71-.33-2.09,0-5.5,.65-5.74,.23,0-.31,2.94,.38,5.42,1.07-.03,2.64,.5,4.89,.89,3.13,.54,7.7,2.66,8.11,1.98,.41-.68-2.59-6.88-11.31-11.04-.19-.06-.39-.13-.58-.21,2.18-1.9,6.26-5.68,8.34-9.12,2.93-4.84,4.32-9.59,1.96-12.39-3.22-3.81-18.37-3.78-29.14,6.26-.52-.05-1.23-.32-2.11-1.18-1.8-1.75-3.87-3.82-4.62-3.45-.74,.37,1.11,4.93,1.01,7.27-.11,2.33-1.32,6.99-1.37,7.17,0,0,0,0,0,0-.75,2.38-.36,4.78-1.05,5.08-.88,.38-9.46,5.88-11,9.07-1.54,3.19-2.42,4.62-1.32,4.73,1.1,.11,7.81-4.07,9.79-4.07s5.28,1.21,5.28,1.21c0,0,2.01,7.56,12.48,11.82-.02,1.02,0,2.05,.18,3.05,.08,.46,.2,.93,.51,1.28,.19,.21,.47,.37,.76,.34,.34-.04,.58-.33,.76-.62,.36-.58,.61-1.22,.93-1.82,.18-.34,.4-.67,.66-.96,1.53,.42,2.96,.69,4.29,.87-.32-.86-.72-2.02-.62-2.06,.14-.06,.34,.95,1.09,2.12,.28,.35,.57,.69,.88,1.01,.33,.33,.69,.65,1.14,.76,.28,.07,.6,.04,.82-.15,.25-.22,.29-.6,.28-.94,0-.18-.02-.35-.04-.52,0,0-.23-1.86-.14-1.97,.08-.11,.45,1.9,.46,1.96,3.04-.07,5.39-.73,7.05-1.49,.77,.54,1.52,1.09,1.93,1.51,1.1,1.09,3.63,4.5,4.95,4.17,.99-.33-1.51-4.81-1.51-5.69s.2-1.56-.67-1.7c.14-.03,1.51-.69,1.83-1.64ZM18.29,23.6c-.11,.17-2.43-1.81-2.66-2.54-.23-.73,.11-4.41,.31-4.46,0,0,.08,2.99,.4,4.24,.31,1.24,2.06,2.6,1.95,2.77Zm1.96-3.05c-.11,.17-2.43-1.81-2.66-2.54-.23-.73,.11-4.41,.31-4.46,0,0,.08,2.99,.4,4.24s2.06,2.6,1.95,2.77Zm2.13-1.53c-.11,.17-2.43-1.81-2.66-2.54-.23-.73,.11-4.41,.31-4.46,0,0,.08,2.99,.4,4.24,.31,1.24,2.06,2.6,1.95,2.77Zm5.78-12.74c-.49-.54,.89-2.82,1.59-1.84,.71,.99-1.01,2.47-1.59,1.84Zm7.84,5.34l-1.06,.19s.16-1.15-.31-1.06c-.47,.09-1.25,1.19-1.25,1.19l-1.09,.28s.37-1-.12-.94c-.5,.06-1.4,1.28-1.4,1.28,0,0-1.25,.25-1.5-.03-.38-.43,2.96-2.65,3.12-2.4,.16,.25,.19,.75,.41,.72,.22-.03,1.09-1.15,1.34-1.28,.25-.12,1.22-.41,1.22-.41,0,0-.16,1,.25,.87,.41-.12,1.19-1.25,1.47-1.34s1.31-.28,1.31-.28c0,0-.34,.87,.16,.9,.5,.03,1.12-.84,1.43-.9,.31-.06,1.15-.06,1.56,.12,.03,.03-.44,1.19,0,1.31,.44,.12,1.25-.81,1.43-.72s.97,1.32,.97,1.32c0,0-.84,1.24-.62,1.42,.22,.19,1,.06,1,.06v1.5s-.72,.87-.69,1.31c.03,.44,.5,.28,.47,.37-.03,.09-.56,1.72-1,2.56-.44,.84-.75,1.87-1.09,1.96-.34,.09-.44-.09-.53-.25-.09-.16,.25-.5,.5-1,.25-.5,1.22-2.25,1.06-2.34-.16-.09-.53-.19-.53-.19,0,0,1.15-1.5,.81-1.68-.34-.19-1.5,.19-1.5,.19l-.28-.35s.97-1.68,.69-1.9c-.28-.22-1.62,.62-1.62,.62l-.56-.53s.69-1.22,.34-1.37c-.34-.16-1.81,.84-1.81,.84h-.9s.22-1.15-.31-1.19c-.53-.03-1.34,1.12-1.34,1.12Z"/>
  </g>
</svg>