<?xml version="1.0" encoding="UTF-8"?>
<svg id="Layer_2" data-name="Layer 2" xmlns="http://www.w3.org/2000/svg" viewBox="0 0 73.08 41.49">
  <defs>
    <style>
      .cls-1 {
        fill: #808080;
      }
    </style>
  </defs>
  <g id="Layer_1-2" data-name="Layer 1">
    <path class="cls-1" d="M72,19.86c-.24,1.86,.05,3.01-.31,4.79-.36,1.79-.78,3.87-1.53,4.41-1.94,1.39-4.56-1.76-6.8-3.43-1.35-1-2.65-2.34-3.5-2.5-.85-.16-1.78-.23-2.14,.55-.36,.78,1.37,1.98,1.68,3.45,.75,3.6-.3,5.47-3.15,7.45-2.14,1.49-6.28,2.33-10.17,2.79,1.94,.46,3.67,1.04,3.58,1.31-.14,.41-2.41,.19-3.86,.69-1.45,.5-2.18,1.82-3.88,2.09-1.7,.27-9.78-1.78-10.04-1.87-.19-.07-3.19-1.24-4.69-2.09-.86-.09-1.67-.19-2.41-.3-1.15-.18-2.16-.35-3.12-.54,1.28,2.1,2.29,4.11,2.29,4.11,0,0-2.75-.34-4.24-1.19-.71-.4-1.78-1.26-2.88-2.28,.11,1.93,.1,3.48,.1,3.48,0,0-2.29-1.55-3.24-2.99-.61-.93-1.45-2.94-2.08-4.94-1.06-.64-2.02-1.3-2.9-1.83-.64-.39-1.24-.72-1.8-.94-.03-.01-.06-.02-.09-.03-2.07-.82-4.14-1.42-5.51-1.39-.59-1.3,1.67-3.25,1.67-3.25,0,0-3.21-1.57-2.98-3.29,1.67-.19,2.76-1.15,3.99-2.46,.1-.11,.21-.22,.32-.34,.24-.26,.48-.63,.72-1.07,.89-1.61,1.83-4.22,3.06-6.32,.32-.56,.67-1.08,1.04-1.53,.14-.17,.27-.34,.41-.5,1.95-2.32,3.5-3.54,6.26-5.15,2.95-1.72,5.46-2.64,9.23-3.42C28.79,.53,41.87-.31,46.58,.11c4.71,.42,10.18,1.33,11.78,2.81,3.24,2.99-.31,8.98-.6,9.92-.43,1.39-1.57,3.64-.87,4.62,.84,1.19,3.01-2.02,5.08-3.06,2.07-1.04,7.03-4.09,8.69-3.55,1.66,.54,2.05,2.08,2.36,3.8,.31,1.72-.78,3.34-1.02,5.2Z"/>
  </g>
</svg>