<?xml version="1.0" encoding="UTF-8"?>
<svg id="Layer_2" data-name="Layer 2" xmlns="http://www.w3.org/2000/svg" viewBox="0 0 144.26 38.73">
  <defs>
    <style>
      .cls-1 {
        fill: #808080;
      }
    </style>
  </defs>
  <g id="Layer_1-2" data-name="Layer 1">
    <path class="cls-1" d="M144.21,26.39c-.43,1.19-6.22,1.26-10.8,.4-.01,0-.02,0-.04,0-.26-.05-.51-.1-.76-.15-.32-.07-.64-.14-.95-.21-.08-.02-.16-.04-.24-.06-.24-.06-.47-.11-.7-.17-.07-.02-.14-.03-.21-.05-.24-.06-.48-.12-.71-.18-.05-.01-.11-.03-.16-.04-.25-.06-.49-.13-.73-.19-.03,0-.05-.01-.08-.02h0c-2.83-.75-5-1.49-6.1-2.03,0,0,0,0,0,0-.06,0-.13-.01-.19-.02-.03,0-.06,0-.09-.01-.22-.03-.45-.07-.69-.12-4.67-.95-11.54-1.83-14.6,.8,.03,.05,.08,.1,.13,.15,0,0,.02,.01,.03,.02,.05,.04,.09,.07,.15,.1,0,0,.02,0,.03,.01,.06,.03,.13,.06,.2,.08,0,0,0,0,.01,0,.08,.03,.17,.05,.26,.07h0c1.01,.2,2.66,0,3.93-.1,.05,0,.1,0,.16,0,.02,0,.04,0,.05,0,.04,0,.07,0,.11,.02,.02,0,.05,0,.07,.01,.04,0,.07,.02,.11,.03,.03,0,.05,.01,.08,.02,.04,.01,.07,.03,.11,.04,.03,0,.05,.02,.08,.03,.04,.02,.08,.03,.12,.05,.05,.03,.11,.05,.17,.08,.03,.02,.06,.03,.09,.05,.04,.02,.08,.05,.12,.07,.02,.01,.05,.03,.07,.05,.04,.03,.09,.06,.13,.09,.02,.01,.04,.03,.06,.04,.05,.03,.1,.07,.14,.11,.01,0,.02,.02,.04,.03,1.76,1.35,3.62,4.33,2.49,6.69-.13,.28-.3,.53-.5,.76h0c-.17,.2-.37,.38-.59,.54-.01,0-.02,.02-.03,.02-.1,.07-.2,.14-.3,.2-.01,0-.03,.02-.04,.03-.23,.13-.48,.25-.75,.35-.02,0-.03,.01-.05,.02-.11,.04-.23,.08-.35,.11-.03,0-.06,.02-.1,.03-.11,.03-.23,.06-.34,.08-.03,0-.06,.01-.08,.02-2.19,.46-5.06,.06-7.68-.66h0s0,0,0,0c-.29-.08-.58-.17-.87-.25-.19-.06-.37-.12-.56-.18-.05-.02-.09-.03-.14-.05-.18-.06-.36-.13-.53-.2,0,0-.02,0-.03-.01-.17-.07-.33-.13-.5-.2-.04-.02-.09-.04-.13-.06-.17-.07-.33-.15-.49-.22,0,0,0,0,0,0h0c-3.16-1.48-5.19-3.46-5.19-3.46h0c-2.86,.34-6.16,.3-7.44,.73-.68,.23-4.23,.34-8.96,.4,.19,.34,.46,.7,.97,1.17,.09,.08,.19,.17,.29,.26,.03,.02,.06,.05,.09,.08,0,0,.01,.01,.02,.02,.03,.03,.06,.06,.1,.09,0,0,.01,.01,.02,.02,.87,.84,2.95,3.19,2.62,3.76,0,0,0,0,0,0-.02,.02-.04,.05-.06,.06,0,0-.01,0-.02,.01-.03,.02-.06,.03-.11,.04-.2,.02-.4,.03-.59,.04-.06,0-.12,0-.18,0-.13,0-.27,.01-.4,.01-.07,0-.14,0-.21,0-.12,0-.24,0-.36,0-.07,0-.15,0-.22,0-.12,0-.23-.01-.34-.02-.07,0-.14-.01-.21-.02-.12,0-.23-.02-.34-.03-.07,0-.13-.01-.2-.02-.12-.01-.24-.03-.36-.05-.06,0-.12-.02-.17-.03-.14-.02-.28-.05-.42-.08-.03,0-.07-.01-.1-.02-.18-.04-.35-.07-.53-.12-.01,0-.02,0-.03,0-.16-.04-.32-.08-.48-.12-.05-.01-.09-.03-.14-.04-.12-.04-.24-.07-.37-.11-.05-.02-.11-.03-.16-.05-.11-.04-.23-.07-.34-.11-.06-.02-.11-.04-.17-.06-.11-.04-.22-.08-.33-.12-.05-.02-.11-.04-.16-.06-.11-.04-.23-.09-.34-.14-.05-.02-.1-.04-.14-.06-.12-.05-.25-.11-.37-.16-.03-.02-.07-.03-.1-.05-.32-.15-.64-.3-.95-.47h0s0,0,0,0c-1.18-.61-2.33-1.32-3.48-2.05h0s0,0,0,0c-.38-.25-.77-.5-1.16-.75-.41-.26-.81-.52-1.22-.79-4.98,0-10-.04-13.82-.07-.31,0-.63,0-.95,0-.09,0-.18,0-.27,0-.24,0-.48,0-.72,0-.09,0-.19,0-.28,0-.27,0-.53,0-.8-.01-.06,0-.12,0-.18,0-.34,0-.68-.01-1.03-.02,0,0,0,0,0,0-.33,0-.66-.01-1-.02-.08,0-.15,0-.23,0-.27,0-.54-.01-.81-.02-.08,0-.16,0-.24,0-.33,0-.66-.02-.99-.03,0,0-.01,0-.02,0-.36,0-.73-.02-1.09-.03-.02,0-.04,0-.06,0-.32,0-.65-.02-.97-.03-.07,0-.14,0-.21,0-.28,0-.57-.02-.85-.03-.07,0-.15,0-.22,0-.69-.02-1.38-.05-2.07-.07-.06,0-.12,0-.19,0-.28-.01-.55-.02-.83-.03-.09,0-.18,0-.27-.01-.26,0-.51-.02-.77-.03-.08,0-.17,0-.25-.01-.33-.01-.65-.03-.98-.04-.04,0-.08,0-.13,0-.29-.01-.57-.02-.85-.04-.1,0-.21,0-.31-.01,0,0-.02,0-.03,0-.05,.25-.04,.43,.01,.57h0c.09,.24,.31,.37,.6,.52,.51,.28,1.24,.64,1.83,1.85,.51,1.04,.68,2.32,.62,3.45,0,0,0,0,0,0,0,.05,0,.11-.01,.16,0,.08-.01,.15-.02,.23,0,.07-.02,.14-.03,.2,0,.07-.02,.15-.03,.22-.01,.08-.03,.15-.04,.23-.02,.1-.04,.2-.06,.3-.02,.08-.04,.15-.06,.22-.01,.05-.03,.1-.05,.15-.02,.06-.04,.13-.06,.19-.02,.05-.04,.09-.06,.13-.02,.05-.05,.11-.07,.16-.02,.04-.04,.08-.06,.11-.03,.05-.05,.09-.08,.13-.02,.03-.05,.06-.07,.09-.02,.02-.03,.04-.04,.06,0,0,0,0,0,0-.08,.09-.16,.17-.25,.22-3.8-2.05-6.33-4.74-7.44-6.95,0-.02-.02-.04-.03-.06-.05-.11-.1-.22-.15-.32,0-.02-.02-.05-.03-.07-.05-.12-.1-.25-.15-.37,0,0,0,0,0,0-.04-.11-.08-.22-.11-.33,0-.03-.02-.06-.02-.08-.03-.09-.05-.19-.07-.28,0-.02,0-.04-.01-.06-.02-.11-.04-.21-.05-.31,0-.02,0-.05,0-.07,0-.08-.01-.15-.01-.23,0-.03,0-.05,0-.08,0-.09,0-.18,.01-.27-.2-.01-.39-.02-.58-.03-.11,0-.22-.01-.33-.02-.16,0-.32-.02-.48-.03-.11,0-.23-.01-.34-.02-.16,0-.31-.02-.46-.03-.1,0-.2-.01-.3-.02-.03,0-.07,0-.1,0h0c-1.86-.11-3.47-.22-4.71-.31-5.84-.44-10.3-.8-14.75-1.39-4.45-.58-8.36-1.97-10.11-3.65-.47-.36-.07-.95,.18-1.02,.02-.03,.06-.05,.1-.08,0,0,.02-.01,.03-.02,.04-.03,.08-.06,.14-.08,0,0,0,0,0,0,.06-.03,.13-.07,.21-.11,0,0,0,0,0,0,.65-.31,1.8-.67,2.98-.94,1.61-.37,4.09-.8,6.13-1.75,2.04-.95,4.05-2.59,4.86-3.1,.8-.51,1.86-1.13,4.67-1.02,4.53-1.93,6.13-3.18,20.81-5.8,13.87-2.48,41.36-1.9,49.97-1.63h0c.13-.03,.26-.07,.39-.12,.04-.01,.07-.03,.11-.04,.11-.04,.21-.09,.32-.14,.03-.01,.06-.03,.09-.04,.13-.07,.27-.14,.41-.22,.03-.02,.06-.04,.1-.06,.11-.07,.23-.14,.34-.21,.04-.03,.08-.05,.13-.08,.14-.09,.27-.19,.41-.29,0,0,.02-.01,.03-.02,.15-.11,.3-.22,.45-.34,.05-.04,.1-.08,.15-.11,.12-.09,.23-.18,.35-.27,.02-.02,.04-.04,.07-.05,.39-.31,.79-.63,1.2-.97,.07-.06,.15-.12,.22-.18,.09-.07,.18-.15,.27-.22,.17-.14,.34-.27,.51-.41,.05-.04,.1-.08,.15-.12,.14-.11,.27-.22,.41-.33,.06-.05,.11-.09,.17-.13,.19-.14,.38-.29,.57-.43,.01-.01,.03-.02,.04-.03,.18-.13,.36-.26,.54-.39,.06-.04,.12-.08,.18-.12,.16-.11,.32-.22,.48-.32,.05-.03,.1-.07,.15-.1,.2-.13,.41-.26,.61-.39,.05-.03,.1-.06,.15-.09,.17-.1,.33-.2,.5-.29,.06-.04,.13-.07,.19-.1,.22-.12,.44-.23,.66-.34,0,0,.02,0,.02-.01,.22-.1,.44-.2,.66-.3,.07-.03,.13-.05,.2-.08,.18-.08,.37-.15,.56-.21,.05-.02,.11-.04,.16-.06,.24-.08,.47-.15,.72-.22,.05-.02,.11-.03,.17-.04,.2-.05,.39-.1,.59-.14,.07-.01,.14-.03,.21-.04,.25-.05,.51-.09,.77-.12,.19,0,.37,0,.56,0,.03,0,.07,0,.1,0,2.78,.04,5.75,.87,7.79,2.06,0,0,0,0,0,0,.16,.1,.32,.19,.47,.29,0,0,.01,0,.02,.01,.3,.2,.57,.41,.82,.62,0,0,.01,.01,.02,.02,.24,.21,.45,.43,.62,.66,0,0,0,0,.01,.01,.19,.25,.34,.5,.43,.75,0,.14,0,.29,0,.43,0,.03,0,.06,0,.09-.01,.14-.03,.28-.05,.43,0,.03,0,.05-.01,.08-.03,.14-.06,.29-.1,.43,0,0,0,.01,0,.02-.04,.15-.09,.3-.14,.45,0,.02-.02,.05-.03,.07-.06,.15-.12,.3-.19,.44,0,.01-.01,.02-.02,.03-.14,.31-.32,.61-.51,.9,0,.01-.02,.02-.02,.04-.74,1.09-1.82,2.06-3.13,2.69-.03,.02-.07,.03-.1,.05-.94,.44-1.99,.71-3.12,.73-.6,.69,0,1.03,.15,1.1,2.61,.92,6.88,1.41,12.17,.79,.84-.1,1.6-.16,2.29-.2h0c.41-.14,.81-.29,1.21-.44,.23-.09,.47-.17,.7-.26,0,0,0,0,0,0,2.75-1.01,5.29-2.02,7.62-2.87,.03,0,.06-.02,.08-.03,.2-.07,.4-.15,.6-.22,.06-.02,.11-.04,.16-.06,.17-.06,.34-.12,.51-.18,.07-.02,.14-.05,.21-.07,.15-.05,.31-.1,.46-.15,.08-.03,.16-.05,.24-.08,.14-.05,.28-.09,.42-.14,.09-.03,.17-.05,.25-.08,.13-.04,.26-.08,.39-.12,.09-.03,.18-.05,.27-.08,.12-.04,.24-.07,.37-.11,.09-.03,.18-.05,.27-.08,.12-.03,.23-.07,.35-.1,.09-.02,.18-.05,.27-.07,.11-.03,.22-.06,.33-.09,.09-.02,.18-.04,.27-.07,.11-.03,.22-.05,.32-.07,.09-.02,.18-.04,.27-.06,.1-.02,.21-.04,.31-.06,.09-.02,.18-.04,.27-.05,.1-.02,.2-.04,.3-.05,.09-.01,.18-.03,.26-.04,.1-.01,.19-.03,.29-.04,.09-.01,.17-.02,.26-.03,.09-.01,.19-.02,.28-.03,.08,0,.17-.02,.25-.02,.09,0,.18-.01,.28-.02,.08,0,.16-.01,.25-.01,.09,0,.18,0,.27,0,.07,0,.14,0,.21,0h0s0,0,0,0c0,0,.02,0,.02,0,.09,0,.18,0,.27,0,.08,0,.15,0,.23,0,.03,0,.06,0,.08,0,.03,0,.06,0,.09,0,.03,0,.06,0,.1,0,.07,0,.14,.01,.21,.02,.05,0,.1,.01,.15,.02,.05,0,.1,.01,.16,.02,.05,0,.11,.01,.16,.02,.08,.01,.16,.03,.23,.05,.05,0,.1,.02,.15,.03,.02,0,.05,0,.07,.02,.15,.04,.3,.08,.44,.12,.05,.06,.09,.13,.13,.19,.01,.02,.02,.05,.03,.07,.02,.05,.04,.09,.06,.14,0,.03,.02,.06,.02,.08,.01,.05,.02,.09,.03,.14,0,.03,0,.06,.01,.09,0,.05,0,.09,.01,.14,0,.03,0,.06,0,.1,0,.05,0,.1,0,.15,0,.03,0,.06,0,.09,0,.06-.02,.12-.03,.18,0,.03,0,.05-.02,.08-.02,.09-.04,.17-.07,.26,0,.02-.01,.04-.02,.06-.02,.07-.05,.14-.08,.22-.01,.04-.03,.07-.05,.11-.02,.06-.05,.11-.07,.17-.02,.04-.04,.08-.06,.12-.03,.05-.05,.11-.08,.16-.02,.04-.05,.09-.07,.13-.03,.05-.06,.11-.09,.16-.03,.05-.05,.09-.08,.14-.03,.05-.07,.11-.1,.16-.03,.05-.06,.09-.09,.14-.04,.05-.07,.11-.11,.16-.03,.05-.06,.09-.1,.14-.06,.08-.12,.16-.18,.24-1.43,1.93-3.67,3.89-4.69,4.7-.42,.33-.8,.63-1.11,.93h0c-.13,.12-.24,.24-.33,.36,0,0,0,0,0,0-.09,.12-.16,.24-.22,.36,0,0,0,.01,0,.02-.05,.12-.08,.23-.09,.36,0,0,0,.01,0,.02,0,.06,0,.12,0,.18,0,0,0,0,0,.01,0,.06,.02,.11,.04,.17,0,0,0,.02,0,.03,.02,.06,.05,.12,.09,.19,0,0,.01,.02,.02,.03,.03,.06,.07,.12,.12,.17,0,0,.01,.02,.02,.03,.05,.06,.11,.13,.17,.19,.01,.01,.02,.02,.04,.04,.06,.06,.13,.12,.2,.18,.01,0,.02,.02,.03,.02,.08,.07,.17,.14,.27,.21,.02,.02,.04,.03,.06,.05,.09,.07,.19,.13,.3,.2,0,0,.02,.01,.03,.02,.12,.07,.24,.15,.37,.23,.03,.02,.06,.04,.09,.05,.14,.08,.28,.16,.43,.24,.26,.13,.5,.28,.75,.42,.02,.01,.04,.02,.06,.04,.23,.14,.45,.28,.67,.42,0,0,0,0,0,0h0c2.73,1.82,4.37,4.07,3.99,5.16Z"/>
  </g>
</svg>