<?xml version="1.0" encoding="UTF-8"?>
<svg id="Layer_2" data-name="Layer 2" xmlns="http://www.w3.org/2000/svg" viewBox="0 0 65.43 34.58">
  <defs>
    <style>
      .cls-1 {
        fill: #808080;
        fill-rule: evenodd;
      }
    </style>
  </defs>
  <g id="Layer_1-2" data-name="Layer 1">
    <path class="cls-1" d="M61.24,4.31s.43-1.02,.28-2.23c-.16-1.21,.2-2.24-.44-2.06-.65,.18-4.6,3.4-5.73,6.5-1.13,3.1-2.34,8.19-4.73,9.1-2.4,.91-5.74,1.55-6.3,.53-.56-1.02,.07-1.69-.23-2.04-.3-.35-2.73,.87-3.38,1.14-.65,.27-7.51,.26-10.76-.61-3.25-.86-4.91-2.04-5.09-3.13-.18-1.09-1.07-5.21,.74-7.7,0,0,.5-.79-.95-.42-1.44,.36-5.52,1.54-6.98,6.39-1.46,4.86-2.14,6.33-3.34,6.68-1.2,.35-5.94,2.8-10.05,6.35C.17,26.38-.11,27.78,.02,28.56c.13,.78,.27,2.75,1.65,3.61,0,0,2.58,.76,3.82,.74,0,0,.16,1.17,.76,1.49,.6,.31,2.77,.38,4.87-1.14,2.1-1.52,3.24-.96,3.69-1.3,.45-.34,5.82-3.77,6.28-3.95,0,0,5.47,1.34,8.95,.12,3.49-1.22,2.98-1.24,3.94-1.4,.96-.16,3.74-.42,3.7-.74-.04-.32-2.7-1.38-2.7-1.38,0,0,4.78-.96,6.19-2.22,0,0,2.1,.52,2.88,.95,.78,.43,.94-2.05,1.68-2.42,.74-.37,6.23-1.78,6.95-2.14,0,0,.85-.41,2.18,.41,1.33,.82,5.35,2.21,6.66,1.65,1.31-.56,3.31-1.53,3.88-3.49,0,0,.13-.51-.3-.42-.43,.08-1.01,1.08-1.25,1.13-.25,.05-5.08-1.6-4.51-6.04,.56-4.44,1.9-7.7,1.9-7.7h0Zm-28.44,22.01s-2.08-.72-2.41-.97c-.33-.25-.69-.48-1.36-.37-.67,.11-2.16-.87-2.16-.87,0,0,1.72,1.87,2.74,2.16,1.02,.29,3.19,.05,3.19,.05h0Z"/>
  </g>
</svg>