<?xml version="1.0" encoding="UTF-8"?>
<svg id="Layer_2" data-name="Layer 2" xmlns="http://www.w3.org/2000/svg" viewBox="0 0 116.62 54.08">
  <defs>
    <style>
      .cls-1 {
        fill: #808080;
        fill-rule: evenodd;
      }
    </style>
  </defs>
  <g id="Layer_1-2" data-name="Layer 1">
    <path class="cls-1" d="M29.02,15.89c2.54-2.39,5.61-4.23,8.68-6.05,.86-.51,1.85-1.03,2.99-1.38,.64-.2,1.34-.55,2.31-.34,.8,.17,1.82,1.22,2.37,1.72,2.21,2.05,4.24,3.67,6.43,5.8,.37-.28,.9-.54,.98-1.09,.08-.55-.38-.88-.43-1.31,.62,.08,1.36,.05,1.49-.49,.11-.45-.27-.57-.33-.89,.36-.17,.58,0,.89-.15,.66-.34,.39-1.26,.23-1.76,.57,.28,1.23,.08,1.31-.43,.07-.49-.3-.52-.44-.96,.69,.07,1.42,.22,1.54-.31,.13-.54-.6-.62-.5-1.14,.63,.18,2.03,.72,2.13-.29,.07-.62-.72-.74-.61-1.32,.41-.28,.52,.33,.99,.44,.72,.18,1.76-.36,1.8-.89,.04-.65-.77-.69-.73-1.26,.52,.02,1.18,.6,1.87,.53,.52-.05,.68-.42,1.03-.73-.08-.41-.37-.6-.38-1.07,.77-.07,1.46,.8,2.32,.8,.23-.14,.47-.26,.71-.36,.25-.47,.06-1.28-.21-1.71,.57,.03,1.58,1.31,2.56,1.14,.79-.14,.41-.97,.34-1.52,.71,.05,1.13,1.1,2.46,.72,.14-.63-.3-.71-.38-1.13,.59-.17,.73,.41,1.22,.74,.59,.4,1.87,.62,2.01,0,.14-.61-.53-.56-.62-1.08,1.13,.14,1.66,1.54,3.09,1.39,.2-.6-.56-1.07-.54-1.49,.45-.09,.71,.42,.98,.68,.29,.27,.64,.5,.92,.79,.88,.91,1.53,1.96,2.87,2.44,.76-.35,.08-.81,.11-1.53,.55,.2,.75,.84,1.02,1.27,.87,1.37,1.55,2.94,2.52,4.32,1.26,1.79,2.52,3.69,3.06,6.05,5.07,1.7,9.53,3.97,13.18,7,2.29,.77,4.82,1.83,7.22,3.11,.14,.08,.28,.15,.43,.22,1.3,.47,2.52,1.06,3.55,1.9,.9,.52,1.75,1.06,2.46,1.67,.36,.31,.75,.82,1.14,1.21,.37,.37,.95,.79,1.15,1.16,.47,.9,.81,2.36-.49,2.52,.42,1.33-.66,1.97-1.43,2.61-.53,.44-1.05,.89-1.57,1.25-2.29,1.6-4.98,2.5-8.23,2.93-1.59,.21-3.29,.27-4.8,.68-5.97,1.65-11.24,4.12-17.43,4.78-.86,.62-1.29,1.71-2.08,2.41-.33,.29-.79,.41-1.14,.68-1.14,.83-1.98,2.2-2.93,3.27-.72,.82-1.53,1.58-2.48,2.17-.28,.17-.61,.41-.96,.44,0-.53,.47-.93,.75-1.34,.83-1.22,1.65-2.63,2.42-4-1.5,1.19-3.02,2.35-5.11,3.15-.68,.26-1.63,.59-2.26,.46-.87-.18-1.75-1.75-1.27-2.87,.14-.31,.48-.56,.68-.92,.69-1.24,.91-3.1,1.65-4.02-6.64-.45-13.34-.84-18.26-2.91-2.63,3.04-5.32,6.37-8.59,8.88-.42,.33-1.03,.89-1.67,.54-.08-.72,.57-1.22,.94-1.74,.39-.55,.9-1.06,1.23-1.62,.01-.05,.06-.06,.06-.12-.74,.59-1.72,1.12-2.77,1.69-1.27,.69-2.57,1.69-4.34,1.28-.21-.07-.16-.38-.46-.37-.85-1.3-1.61-2.89-2.22-4.73-.59-1.8-.89-3.71-1.25-5.58-.09-.49-.49-2.32,.09-2.89,.44-.44,1.42-.48,2.09-.76,.65-.28,1.02-.66,1.5-1.08-1.85-.61-3.83-1.53-6.2-1.72-1.07-.09-2.26-.07-3.42-.1-1.1-.03-2.34-.25-3.36-.1-.69,.1-1.6,.83-2.34,1.23-2.33,1.28-4.86,2.21-7.18,3.44-1.44,.76-3.16,1.48-4.96,2.09-2.29,.78-4.25,1.69-7.12,1.38-.55-.51-.97-1.34-.63-2.44,.44-1.43,1.34-2.97,1.97-4.66,.71-1.92,1.61-4.09,1.44-6.68-.04-.6-.3-1.39-.47-1.96-.43-1.47-1.21-2.48-1.83-3.89-.54-1.22-1.1-2.2-1.42-3.7-.09-.39-.29-.82-.32-1.13-.46-4.29,4.53-3.29,7.27-2.32,3.24,1.16,6.63,2.58,9.13,4.52,.49,.38,.86,.87,1.38,1.28,.91,.72,2.09,1.31,3.01,1.86,.44,.27,1.86,.42,2.41,.43,1.52,.01,2.9-.26,4.14-.46,.07-.01,.14-.03,.21-.04,.57-.13,1.15-.26,1.73-.37,.58-.14,1.19-.28,1.86-.42-.89-.58-1.88-1.29-2.59-2.2-.38-.49-.99-.83-.89-1.62,.05-.48,.84-1.19,1.35-1.67Z"/>
  </g>
</svg>