<?xml version="1.0" encoding="UTF-8"?>
<svg id="Layer_2" data-name="Layer 2" xmlns="http://www.w3.org/2000/svg" viewBox="0 0 82.04 31.56">
  <defs>
    <style>
      .cls-1 {
        fill: #808080;
      }
    </style>
  </defs>
  <g id="Layer_1-2" data-name="Layer 1">
    <path class="cls-1" d="M82,25.86c-.2-.91-.59-1.73-1.14-2.48-.38-.52-.73-1.24-1.33-1.55,.14-.23,.45-.34,.52-.62,.09-.41-.28-.74-.57-.96-.18-.14-.37-.26-.55-.4-.21-.16-.38-.37-.55-.57-.36-.42-.66-.89-.98-1.35,.15-.09,.31-.21,.36-.38,.05-.18-.05-.33-.16-.46-.4-.47-.91-.87-1.42-1.23,.08-.07,.17-.14,.27-.19,.05-.02,.08-.1,.06-.15-.16-.54-.18-1.14-.42-1.66-.2-.43-.55-.62-.97-.64,.24-.24,.56-.4,.82-.62,.39-.33,.48-.76,.49-1.25,0-.3-.01-.6,.04-.89,.06-.31,.16-.62,.28-.92,.12-.31,.27-.6,.41-.9,.07-.17,.14-.35,.11-.53-.04-.33-.4-.53-.68-.71,.49-.24,1.1-.28,1.42-.76,.21-.31,.27-.72,.37-1.07,.12-.41,.29-.79,.55-1.13,.04-.06,.07-.15,0-.2-.16-.12-.31-.25-.47-.38,.46-.2,1.18-.24,.93-.91-.09-.25-.37-.53-.22-.8,.11-.2,.34-.34,.52-.48,.19-.15,.35-.34,.4-.58,.06-.27-.03-.57-.19-.79-.3-.41-.81-.35-1.23-.18-.53,.22-1,.58-1.44,.95-.44,.37-.85,.77-1.23,1.2-.64,.74-1.19,1.55-1.75,2.35-.57,.83-1.19,1.62-1.77,2.44-.6,.86-1.16,1.76-1.67,2.68-.04,.06-.07,.13-.11,.19-.28,.51-.54,1.06-.7,1.62-.03,.1-.05,.2-.07,.3-.73,.17-1.47,.31-2.21,.42-.47,.07-.95,.14-1.42,.19-.21-.06-.43-.11-.64-.17-.54-.14-1.09-.25-1.65-.29-.25-.02-.5,0-.76,.02-.26,.01-.46-.06-.67-.21-.15-.1-.29-.23-.46-.3-.21-.09-.44-.09-.65-.07-.48,.06-1.09,.44-1.56,.14-.19-.12-.33-.26-.55-.33-.26-.08-.53-.08-.79-.04-.54,.09-1.05,.35-1.6,.4,0-.41-.47-.55-.85-.59-.65-.07-1.31,.01-1.96,.03-.21,0-.48,.03-.69-.04,.1-.33,.12-.74-.27-.88-.39-.14-.88-.01-1.27,.07-.41,.09-.88,.25-1.3,.2-.06,0-.13-.02-.18-.07-.1-.11,0-.27,0-.41-.05-.35-.43-.4-.71-.39-.32,0-.64,.04-.96,.06-.1,0-.29,.03-.38-.04-.12-.09,0-.3,.05-.4,.03-.05,.02-.13-.04-.16-.39-.19-.84-.19-1.27-.16-.45,.04-.89,.12-1.34,.19-.27,.04-1.03,.35-1.16-.05-.04-.12,.06-.22,.07-.34,0-.16-.12-.24-.25-.3-.86-.39-1.8,.49-2.64,.06-.1-.05-.22-.13-.25-.25-.02-.07,0-.15-.02-.23-.03-.17-.14-.33-.3-.41-.31-.15-.75-.03-1.07,.01-.31,.04-.62,.13-.94,.14-.08,0-.29,.03-.35-.05-.08-.09,.07-.29,.11-.36,.05-.08,0-.17-.08-.2-.47-.15-.99,.02-1.45,.14-.16,.04-.47,.19-.63,.08-.05-.03-.08-.12-.14-.18-.08-.07-.14-.16-.23-.21-.2-.1-.45-.09-.67-.05-.49,.1-1.01,.32-1.52,.34,.06-.11,.12-.22,.17-.34,.04-.09,.01-.18-.08-.21-.69-.23-1.52,.05-2.15,.35-.3,.14-.6,.3-.89,.5-1.82-.14-3.65-.18-5.47-.17-4.91,0-10.1,.27-14.7,2.18-1.94,.8-3.65,2-5.06,3.56-.78,.86-1.57,1.77-2.08,2.82-.08,.16-.16,.32-.24,.48-.18,.36-.36,.72-.5,1.09-.9,.41-1.7,1.11-2.14,1.99-.2,.39-.32,.82-.41,1.26-.09,.45-.14,.9-.11,1.35-.31,.03-.6,.16-.65,.51-.07,.54,.33,1.14,.62,1.55,1.48,2.1,4.18,3.04,6.5,3.85,3.02,1.06,6.14,1.63,9.29,2.21,1.59,.29,3.19,.57,4.81,.71,1.67,.14,3.34,.04,5.01,.02,1.69-.03,3.39-.04,5.08-.1,.86-.03,1.71-.1,2.56-.16,.57,.29,1.21,.47,1.82,.59,.88,.17,1.77,.25,2.66,.31,.39,.03,.88,.07,1.23-.14,.15-.09,.18-.24,.16-.4,0-.01,0-.02,0-.02,.03,0,.06,0,.07,0,.09,0,.18,.03,.27,.04,.47,.09,.93,.23,1.4,.31,.32,.05,1.09,.18,1.2-.24,.57-.03,1.13,.14,1.7,.12,.1,0,.17-.08,.17-.17,0-.08,.03-.15,.05-.22,.37,.06,.74,.12,1.11,.15,.41,.03,.86,.03,1.26-.13,.08-.03,.15-.12,.12-.22-.01-.03-.02-.07-.03-.1,.91,.2,2.69,.04,2.77-.59,.41-.02,.81-.09,1.21-.17,.31-.06,.62-.11,.92-.21,.19-.06,.45-.15,.54-.35,.05-.11,.03-.21-.02-.29,.28-.04,.56-.11,.82-.2,.38-.13,.77-.29,1.07-.56,.07-.06,.07-.18,0-.24,0,0-.02-.02-.03-.03,.47-.03,.95-.07,1.4-.18,.23-.05,.52-.12,.68-.3,.09-.09,.11-.2,.09-.3,.84-.04,1.66-.37,2.41-.71,.12-.05,.11-.24,0-.29-.06-.03-.11-.08-.16-.12,.15-.07,.31-.11,.45-.16,.31-.11,.62-.21,.92-.35,.41-.19,.84-.54,.7-.97,.76-.12,1.52-.47,2.11-.92,.08-.06,.12-.18,.03-.26-.05-.04-.1-.08-.15-.12,.34-.08,.67-.18,1-.31,.4-.16,.87-.38,1.09-.78,.04-.07,.02-.18-.06-.22-.11-.05-.21-.12-.3-.19,.29-.13,.59-.24,.87-.39,.26-.14,.58-.34,.73-.61,.12-.21,.09-.46-.13-.59-.06-.04-.25-.07-.28-.13-.03-.06,.05-.13,.09-.16,.34-.27,.87-.32,.95-.83,.05-.33-.08-.59-.32-.77,.09-.06,.18-.12,.26-.18,.64-.42,1.27-.77,1.99-1.04,.5-.19,1-.37,1.48-.59,1.08,.92,2.28,1.71,3.24,2.77,.53,.58,.95,1.24,1.38,1.9,.42,.63,.82,1.26,1.26,1.88,.87,1.21,1.87,2.35,3.18,3.09,.56,.32,1.21,.65,1.84,.75,.26,.04,.57,.02,.77-.18,.19-.2,.16-.49,.11-.74ZM7.85,15.75c.52,0,.95,.43,.95,.95s-.43,.95-.95,.95h-.01c.23-.09,.4-.32,.4-.58,0-.34-.28-.62-.62-.62s-.62,.28-.62,.62c0,.02,0,.03,0,.05-.06-.13-.1-.27-.1-.42,0-.52,.43-.95,.95-.95Z"/>
  </g>
</svg>