<?xml version="1.0" encoding="UTF-8"?>
<svg id="Layer_2" data-name="Layer 2" xmlns="http://www.w3.org/2000/svg" viewBox="0 0 116.17 26.69">
  <defs>
    <style>
      .cls-1 {
        fill: #808080;
      }
    </style>
  </defs>
  <g id="Layer_1-2" data-name="Layer 1">
    <path class="cls-1" d="M4.34,15.42s-1.48,.03-2.61,.42c-1.13,.39-1.42,.36-1.62,.14-.21-.22-.13-1.03,.43-1.67,.56-.64,.99-1.06,1.92-1.5,.93-.44,1.22-1.82,2.41-2.56,1.2-.74,2.69-1.85,3.62-2.16,.93-.31,1.06-.6,1.53-1.09,.47-.48,1.1-.5,1.63-.42,.53,.08,1.17-.53,1.56-.81s.72-.06,1.94-.86c1.22-.8,1.14-1.28,3.23-1.17,2.09,.11,1.37,.24,2.94-.13,1.57-.37,3.11-1.02,7.07-1.21,3.96-.19,6.85,.01,10.44,1.97,3.59,1.96,6.96,4.79,9.09,6.07,2.12,1.28,2.47,2.02,3.15,2.33,.68,.3,1.13,.04,1.79,.4,.67,.35,.96-.4,2.01-.54,1.05-.14,1.39-.03,1.74-.44,.35-.4,.6-.5,1.09-.52,.49-.02-.11-.47,.57-1.26s1.46-1,1.9-.99,.41-.9,1.33-1.19c.91-.29,.53-.54,1.21-.89,.67-.35,.99-.64,1.42-1.23,.43-.59,.97-1.18,1.92-1.56,.95-.38,.71-1.11,2.89-2.26,2.18-1.15,4.72-2.08,6.75-2.21,2.03-.12,6.65-.53,11.23,2.17,4.59,2.7,7.09,6.61,8.74,7.97s1.38,1.68,2.26,2.1c.88,.42,1.64,.89,2.03,1.48,.4,.59,1.16,.57,1.79,1.11,.63,.54,1.16,.4,2.05,.99s1.64,0,2.36,.38c.72,.38,.58,.18,1.99-.15s2.48-1.22,3.58-2.11,2.91-3.73,4-2.92c1.09,.81,.33,3.44-2.68,6.32-3.01,2.88-7.21,6.42-11.71,5.79-4.49-.63-8.92-3.42-10.63-5.65-1.71-2.22-4.49-5.43-6.93-6.8-2.44-1.37-4.61-2.21-8.18-.53-3.57,1.68-6.31,6.75-8.48,9.04-2.17,2.29-5.3,5.15-9.42,6.47-4.12,1.32-8.89,1.19-11.84-.08-2.95-1.27-7-4.91-8.58-6.52-1.58-1.61-2.69-1.45-3.24-2.38-.54-.93-.98-.83-1.78-.66s-1.75-.39-2.61-.43c-.86-.04-3.95-.42-5.16-.21-1.21,.21-3.05,1.51-4.66,1.93-1.61,.42-5.5,.54-7.99,.54s-4.09-.32-5.61-.15c-1.52,.17-1.67-.05-2.28,.11-.61,.16-1.05-.23-1.79-.07-.73,.16-1.3-.06-1.58-.46-.27-.4-.03-.97,1.48-1.04,1.51-.07,1.92-.37,2.46-.59,.54-.22,.89-.44-.17-.31Z"/>
  </g>
</svg>