<?xml version="1.0" encoding="UTF-8"?>
<svg id="Layer_2" data-name="Layer 2" xmlns="http://www.w3.org/2000/svg" viewBox="0 0 98.36 55.35">
  <defs>
    <style>
      .cls-1 {
        fill: #808080;
      }
    </style>
  </defs>
  <g id="Layer_1-2" data-name="Layer 1">
    <path class="cls-1" d="M75.64,27.16S44.33,7.82,32.08,5.17C19.84,2.53,.22,8.23,0,10.17c-.21,1.94,8.01,17.83,25.29,24.23,13.41,4.97,42.92,3.8,47.3,4.91,0,0,9.06,15.01,13.93,16.04,4.41,0,4.7-9.51,.24-17.21,0,0,15.43-12.43,10.71-18.71-4.55-2.69-21.82,7.72-21.82,7.72Zm-40.85,8.02c.27,.29,5.9,9.84,12.32,10.61,2.06,.29,18.69-2.52,20.95-4.52,2.25-2,.32-4.7,.32-4.7l-20.38-7.46-13.21,6.07Zm21.91-16.82s4.94-.34,5.89-1.88C63.55,14.94,64.48,.17,59.44,0c-5.04-.17-18.36,9.26-18.81,9.47l16.08,8.88Zm-40.12,7.91s6.36,12.22,7.92,11.73c6.46-2.03,6.34-7.8,6.53-8.3l-14.44-3.43Z"/>
  </g>
</svg>