<?xml version="1.0" encoding="UTF-8"?>
<svg id="Layer_2" data-name="Layer 2" xmlns="http://www.w3.org/2000/svg" viewBox="0 0 96.96 45.61">
  <defs>
    <style>
      .cls-1 {
        fill: #808080;
      }
    </style>
  </defs>
  <g id="Layer_1-2" data-name="Layer 1">
    <path class="cls-1" d="M17.38,26.57c-5.98,3.96-14.16,6.84-14.16,6.84C-2.69,23.54,1.34,15.58,1.34,15.58c7.51,1.88,12.25,4.94,15.83,7.61,3.2-2.34,13.43-10.22,29.52-12.8,1.79-4.21,.67-10.39,.67-10.39,0,0,5.6,1.57,13.94,9.8,15.1,1.18,27.69,7.8,35.65,15.86,0,0-8.77,8.77-33.17,11.58-2.36,4.69-9.05,8.37-9.05,8.37,0,0,.52-3.97,.3-7.88-18.38,.02-32.22-7.21-37.66-11.16Z"/>
  </g>
</svg>