<?xml version="1.0" encoding="UTF-8"?>
<svg id="Layer_2" data-name="Layer 2" xmlns="http://www.w3.org/2000/svg" viewBox="0 0 60.61 37.21">
  <defs>
    <style>
      .cls-1 {
        fill: #808080;
        fill-rule: evenodd;
      }
    </style>
  </defs>
  <g id="Layer_1-2" data-name="Layer 1">
    <path class="cls-1" d="M4.3,31.01s-2.66-3.14-3.71-3.75c-1.04-.6-.8-1.89,1.48-2.02,2.28-.13,7.88,.38,9.55,.32,1.66-.06,6-1.62,7.15-4.38,0,0-.38-.29-1.33,.38-.95,.67-1.92,.9-2.48,.58-.56-.32-3.79-2.58-2.11-5.3,1.68-2.72,2.45-3.52,3.42-3.73,.97-.21,5.5,0,5.5,0,0,0,.1-.61-.24-.89,0,0,.76-.21,.66-.43-.09-.21-.78-.95-.72-1.04,.06-.09,.95-.17,.97-.31,.02-.14-.69-1.09-.75-1.27-.07-.18,1.17-.02,1.23-.23,.06-.21-.74-1.44-.62-1.6,.13-.16,1.22,.24,1.47-.15,.26-.39-.11-1.72,.05-1.83,.16-.11,1.34,.51,1.81,.23,.47-.28,.5-1.72,.73-1.81s1.54,1.31,1.97,1.17c.43-.14,.22-.74,.39-.86s1.54,1.5,1.91,1.34c.37-.16,.35-.45,.55-.47,.2-.01,1.02,2.12,2.62,1.42,1.59-.71,5.4-3.26,10.88-4.75,0,0,1.63-.56,2.48-1.35,.85-.79,2.24,.27,2.24,.27,0,0,2.05-.64,2.85-.28,.62,.27,5.56,5.61,4.68,6.9h0s-3.2-4.86-4.09-5.37c-.89-.51-2.13-.92-2.57-.28-.09,.13-.21,.38-.33,.7,3.47,.42,5.76,5.89,5.76,5.89l-.29,.09c-.2-1.26-3.44-5.15-5.83-4.91-.36,1.22-.65,2.74-.45,3.64,.34,1.52,1.84,4.17,2.48,4.7,.64,.53,2.31,.72,3.96,.5,1.66-.22,3.48-1.09,4-1.88,.53-.79,.33-1.85-.33-2.08-.65-.24-2.31-.82-2.31-.82,.41-.39,2.66,.29,3.03,.69,.59,.64,.98,1.71,.26,2.5-.73,.79-3.32,3.99-5.9,5.2,0,0-1.15,2.01-2.24,2.84-1.09,.83-3.85,.87-4.44,1.49-.6,.62-1.88,2.36-1.88,2.36,0,0,1.57,3.33-1.01,6.12l-1.79,1.36s-2.24-1.41-2.21-2.71c.03-1.3,.95-2.18,.95-2.18,0,0-6.24,4.44-7.5,4.96-1.25,.52-4.26,.89-4.26,.89,0,0,1.97,2.04,1.37,3.64,0,0-2.23,2.66-6.51,1.25,0,0-3.27-.78-3.47-1.69-.2-.92,1.45-2.08,1.45-2.08,0,0-7.11,1.7-8.58,1.48,0,0-3.51,3.37-7.07,3.71,0,0-2.28,.39-2.84-1.01-.56-1.41-.34-4.31,0-5.14h0Z"/>
  </g>
</svg>