<?xml version="1.0" encoding="UTF-8"?>
<svg id="Layer_2" data-name="Layer 2" xmlns="http://www.w3.org/2000/svg" viewBox="0 0 58.41 59.58">
  <defs>
    <style>
      .cls-1 {
        fill: #808080;
      }
    </style>
  </defs>
  <g id="Layer_1-2" data-name="Layer 1">
    <path class="cls-1" d="M49.25,28.84c-.44,.3-.84,.57-1.23,.84-.82,.55-1.66,1.09-2.6,1.43-.59,.21-1.19,.31-1.82,.24-.17,.46-.33,.92-.51,1.37-.92,2.29-2.13,4.41-3.56,6.42-1.39,1.96-2.95,3.77-4.67,5.44-1.98,1.92-4.14,3.63-6.48,5.11-.3,.19-.62,.34-.89,.56-.71,.57-1.57,.86-2.36,1.28-.79,.42-1.62,.78-2.43,1.16-.06,.03-.12,.06-.19,.08-1.19,.43-2.39,.86-3.58,1.28-.28,.1-.56,.17-.86,.22,.14-.16,.27-.32,.41-.47,1.78-2.02,3.34-4.2,4.51-6.64,.76-1.58,1.31-3.24,1.62-4.97,.29-1.62,.36-3.25,.27-4.88-.05-.78-.1-1.57-.18-2.35-.07-.79-.18-1.57-.26-2.36-.11-1.19-.2-2.38-.12-3.58,.06-.86,.2-1.7,.47-2.52,0-.02,0-.04,.02-.08-.31-.06-.6-.04-.89,.07-.56,.2-.94,.63-1.26,1.1-.5,.73-.86,1.53-1.24,2.33-.58,1.25-1.16,2.5-1.94,3.65-.81,1.21-1.8,2.24-3.11,2.91-.36,.18-.77,.26-1.16,.36-1.71,.45-3.42,.88-5.13,1.32-2.04,.53-4.09,1.06-6.13,1.59-.02,0-.03,0-.06-.02,3.56-1.35,7.12-2.69,10.7-4.04-.1-.24-.19-.47-.28-.71-.27-.73-.57-1.46-.8-2.2-.12-.39-.16-.81-.2-1.22-.06-.68-.27-1.31-.53-1.94-.27-.63-.49-1.28-.74-1.92-.26-.64-.26-1.31-.23-1.98,.02-.4,.02-.81,.02-1.21,0-.07-.04-.16-.1-.22-.64-.63-.98-1.39-1.06-2.28-.05-.55,.04-1.08,.22-1.62-3.64,.52-7.26,1.03-10.88,1.54,0,0,0-.02,0-.02,1.31-.38,2.62-.76,3.93-1.14,2.67-.77,5.35-1.54,8.02-2.31,.83-.24,1.64-.14,2.44,.14,1,.34,1.89,.9,2.79,1.43,.85,.5,1.7,1,2.62,1.37,.88,.35,1.8,.57,2.75,.55,.35,0,.7-.06,1.05-.11,.05,0,.13-.08,.14-.13,.43-1.38,.83-2.78,1.08-4.21,.14-.77,.2-1.55,.29-2.33,.04-.36,.08-.72,.11-1.09,0-.07,0-.15-.03-.21-.26-.59-.75-.94-1.35-1.12-.66-.2-1.33-.36-2-.52-1.19-.27-2.33-.65-3.35-1.35-.22-.15-.33-.3-.34-.59,0-.89-.21-1.76-.4-2.62-.29-1.27-.65-2.51-1.16-3.7-.26-.61-.56-1.2-1-1.71-.35-.4-.75-.64-1.32-.6-.44,.03-.89-.03-1.33-.07-.49-.04-.98-.08-1.46-.15-.56-.08-1.11-.16-1.66-.28-.26-.06-.49-.24-.75-.29-.68-.15-1.37-.27-2.05-.38-.5-.08-1.01-.12-1.51-.18,.68,0,1.38,.01,2.08,0,1.16-.02,2.33-.05,3.49-.1,1.25-.05,2.49-.13,3.74-.16C16.36,0,17.91,0,19.45,0c.77,0,1.55,.03,2.32,.07,.67,.04,1.34,.1,2.01,.16,.58,.05,1.15,.11,1.73,.18,.6,.08,1.2,.17,1.8,.27,.83,.14,1.66,.27,2.47,.45,1.27,.27,2.53,.55,3.79,.88,3.58,.92,7.08,2.11,10.53,3.44,1.99,.77,3.83,1.8,5.46,3.18,.86,.73,1.66,1.52,2.41,2.35,.69,.76,1.37,1.53,2.05,2.29,.03,.03,.06,.06,.09,.07,.81,.25,1.47,.76,2.11,1.28,.64,.52,1.24,1.09,1.71,1.78,.14,.2,.25,.43,.34,.66,.12,.33-.04,.56-.39,.6-.28,.03-.56,.07-.83,.11,.26,.02,.53,.04,.8,.06,.08,0,.15,.04,.23,.07,.25,.1,.36,.29,.25,.53-.14,.3-.31,.58-.51,.84-.16,.21-.37,.39-.55,.58-.06,.07-.11,.14-.15,.22-.73,1.42-1.51,2.81-2.44,4.11-.44,.61-.91,1.19-1.45,1.72-.06,.06-.11,.14-.15,.23-1.59,3.44-3.18,6.88-4.77,10.32-.76,1.66-1.52,3.32-2.3,4.97-.14,.29-.39,.53-.6,.78-.75,.9-1.5,1.79-2.25,2.68-.69,.82-1.38,1.64-2.07,2.46-.74,.88-1.48,1.77-2.22,2.65-.81,.96-1.61,1.92-2.42,2.88-.74,.88-1.48,1.77-2.22,2.65-.72,.86-1.45,1.73-2.17,2.59-.02,.03-.04,.06-.06,.1-.02-.01-.03-.03-.05-.04,.2-.25,.4-.5,.6-.75,.86-1.08,1.71-2.16,2.57-3.23,.95-1.19,1.9-2.39,2.84-3.58,.95-1.19,1.9-2.39,2.84-3.58,.9-1.14,1.81-2.27,2.71-3.41,.63-.79,1.26-1.57,1.87-2.37,.13-.17,.2-.39,.29-.59,1.24-2.84,2.49-5.69,3.73-8.54,.44-1.01,.88-2.02,1.33-3.04,0-.01,0-.03,0-.06-.02,.03-.04,.06-.06,.09-1.89,3.61-3.78,7.22-5.67,10.83-.04,.07-.08,.15-.14,.21-2.89,2.95-5.78,5.9-8.67,8.85-3.22,3.28-6.43,6.56-9.65,9.83-.25,.26-.53,.49-.77,.76,.04-.04,.07-.09,.11-.13,1.23-1.31,2.47-2.63,3.7-3.94,1.22-1.31,2.44-2.62,3.67-3.93,1.22-1.31,2.45-2.61,3.67-3.92,1.05-1.12,2.09-2.24,3.14-3.37,1.06-1.13,2.12-2.27,3.18-3.4,.35-.37,.69-.74,1.04-1.11,.04-.04,.08-.1,.1-.15,1.59-3.55,3.19-7.1,4.78-10.65,.01-.02,.02-.05,.05-.13Z"/>
  </g>
</svg>