<?xml version="1.0" encoding="UTF-8"?>
<svg id="Layer_2" data-name="Layer 2" xmlns="http://www.w3.org/2000/svg" viewBox="0 0 200.03 65.08">
  <defs>
    <style>
      .cls-1 {
        fill: #808080;
      }
    </style>
  </defs>
  <g id="Layer_1-2" data-name="Layer 1">
    <path class="cls-1" d="M198.68,64.74c.17,.12,.33,.23,.49,.33-.13,.01-.26,.02-.4,.02-.04,0-.08,0-.12,0-.1,0-.2,0-.3-.01-.04,0-.08,0-.11,0-.13-.01-.26-.03-.4-.05-.02,0-.04,0-.06-.01-.12-.02-.23-.04-.35-.07-.04,0-.08-.02-.13-.03-.1-.03-.2-.05-.31-.09-.04-.01-.07-.02-.11-.03-.13-.04-.27-.09-.4-.14-.03-.01-.06-.03-.09-.04-.11-.04-.21-.09-.32-.14-.04-.02-.09-.04-.13-.06-.11-.05-.22-.1-.32-.16-.03-.02-.06-.03-.09-.05-.14-.07-.27-.15-.41-.23-.04-.02-.07-.04-.11-.06-.1-.06-.21-.13-.31-.19-.04-.03-.09-.05-.13-.08-.12-.08-.23-.16-.35-.24-.02-.01-.04-.03-.06-.04-.14-.1-.27-.2-.41-.3-.04-.03-.08-.06-.11-.09-.1-.08-.21-.16-.31-.25-.04-.03-.08-.06-.12-.09-.28-.23-.55-.46-.82-.71-.04-.03-.07-.06-.11-.1-.11-.1-.22-.2-.33-.31-.03-.03-.06-.06-.09-.09-.14-.13-.28-.27-.41-.41,0,0,0,0,0,0-.13-.14-.27-.27-.4-.41-.03-.03-.06-.06-.09-.09-.12-.12-.23-.25-.35-.38-.02-.02-.04-.04-.06-.06-.14-.15-.28-.31-.42-.47,0,0,0,0-.01-.01-.13-.15-.26-.3-.39-.45-.02-.03-.04-.05-.06-.08-.28-.32-.55-.66-.82-.99t0,0c-.13-.17-.27-.34-.4-.51,0-.01-.02-.02-.03-.04-3.18-4.11-5.75-8.81-6.77-11.1-.12-.27-.23-.53-.34-.79-1.8-4.19-2.4-6.75-4.92-7.41h0c-2.15,.02-4.78,.08-7.94,.42-1.65,.17-3.03,.39-4.23,.63-.69,.59-1.21,1.7-1.21,1.7,0,0-2.12-.04-3.76,.95-1.64,.99-1.34,2.89,.6,3.41-4.06,.73-6.99-1.08-8.71-1.21h0c-1.32,.45-2.86,.91-4.69,1.37-1.28,.32-2.52,.63-3.71,.92h0c-.16,.09-.31,.18-.46,.28-.05,.03-.09,.06-.14,.09-.1,.06-.2,.13-.3,.19-.05,.03-.1,.07-.14,.1-.09,.06-.18,.13-.27,.19-.04,.03-.08,.06-.13,.09-.09,.07-.18,.14-.27,.2-.03,.03-.06,.05-.1,.08-.1,.08-.2,.16-.29,.24-.01,.01-.03,.02-.04,.04-.34,.3-.64,.6-.89,.9h0c-.64,.74-1.05,1.48-1.3,2.19-.05,.14-.09,.29-.13,.43,0,0,0,0,0,.01-.04,.14-.07,.28-.1,.42,0,0,0,0,0,0-.08,.42-.11,.82-.11,1.2,0,0,0,.01,0,.02,0,.12,0,.24,0,.35,0,.01,0,.02,0,.04,0,.11,.01,.22,.02,.33,0,.01,0,.02,0,.03,0,.11,.02,.22,.03,.32,.01,.11,.03,.23,.05,.35,.02,.12,.05,.24,.07,.37h0c.47,2.13,1.86,5.52,1.92,6.88-3.24-1.05-5.78-3-7.74-4.9,0,0,0,0,0,0-.16-.16-.32-.32-.48-.47-.07-.07-.14-.15-.22-.22-.12-.12-.23-.24-.35-.36-.05-.05-.1-.11-.15-.16-.16-.17-.31-.33-.46-.5-.04-.05-.09-.09-.13-.14-.34-.38-.66-.74-.96-1.07-.29-.32-.55-.63-.8-.89-.62-.67-1.07-1.17-1.49-1.56h0c-.12-.11-.24-.21-.36-.31,0,0,0,0-.01,0-.06-.04-.11-.09-.17-.13,0,0,0,0,0,0-.06-.04-.12-.08-.18-.12,0,0,0,0-.01,0-.06-.03-.11-.07-.17-.1-.01,0-.02-.01-.04-.02-.12-.07-.25-.13-.39-.18-.02,0-.04-.02-.06-.02-.05-.02-.11-.04-.16-.06-.02,0-.04-.01-.06-.02-.07-.02-.14-.05-.22-.07-.02,0-.05-.01-.08-.02-.05-.02-.11-.03-.17-.05-.03,0-.06-.02-.1-.03-.06-.02-.12-.03-.19-.05-.05-.01-.1-.02-.15-.03-.06-.01-.12-.03-.19-.04-.05,0-.09-.02-.14-.03-.05-.01-.11-.02-.16-.03-.05,0-.1-.02-.15-.03-.09-.02-.19-.03-.29-.05-.06,0-.11-.02-.17-.03-.07-.01-.13-.02-.2-.03-.05,0-.11-.02-.16-.02-.12-.02-.25-.04-.38-.06,0,0,0,0,0,0-.78,.06-1.53,.09-2.26,.12-6.16,.17-27.46,.72-37.76,.49-6.99-.16-15.81-1.11-21.79-1.91,5.56,1.85,15.95,9.16,23.46,8.77-2.56,.85-7.38-.77-10.8-2.34-3.42-1.57-10.07-5.01-11.5-5.57-.23-.09-.46-.18-.69-.27,5.78,2.72,15.57,10.57,23.33,10.96-2.82,.58-7.74-1.55-11.2-3.48-3.45-1.93-10.12-6.06-11.57-6.76-1.46-.72-2.81-1.34-4.42-1.79-1.19-.18-2.13-.34-2.72-.46-4.98-.81-8.89-2.76-12.64-3.97-3.74-1.21-6.85-2.04-8.79-2.09-1.94-.04-4.17,.15-4.45,.17-.28,.02-.63-.33-.63-.33,5.26-1.56,11.09-2.42,16.4-2.23-2.4-1.21-5.36-2.4-7.79-2.58-2.58-.19-10.96-.46-18.1-.63,0,0,0,0,0,0-.66-.02-1.3-.03-1.93-.04-.03,0-.07,0-.1,0-.16,0-.32,0-.47,0-.05,0-.11,0-.16,0-.16,0-.32,0-.49,0-.11,0-.22,0-.33,0-.07,0-.13,0-.2,0-.12,0-.24,0-.36,0-.03,0-.05,0-.08,0-.27,0-.53,0-.79-.01-.01,0-.03,0-.04,0-.12,0-.23,0-.35,0-.04,0-.09,0-.13,0-.1,0-.21,0-.31,0-.06,0-.12,0-.18,0-.16,0-.33,0-.49,0-.07,0-.14,0-.21,0-.06,0-.13,0-.19,0-.1,0-.2,0-.3,0-.05,0-.1,0-.14,0-.13,0-.26,0-.39,0-.01,0-.03,0-.04,0-.14,0-.28,0-.41,0-.03,0-.07,0-.1,0-.1,0-.21,0-.31,0-.03,0-.06,0-.1,0-.13,0-.25,0-.37,0-6.19-.03-10.92-.22-10.06-.56,.86-.35,23.47-.76,31.79-1.17,8.32-.4,10.33-2.04,13.87-3.65,3.54-1.61,8.75-6.76,11.34-8.84,.7-.56,1.33-.98,1.98-1.29,1.82-3.37,3.71-8.37,6.81-12.38,3.11-4.01,6.86-7.99,8.03-7.99,0,.07,0,.14,0,.21,0,.03,0,.05,0,.08,0,.05,0,.1,0,.15,0,.03,0,.07,0,.1,0,.05,0,.1-.01,.15,0,.04,0,.08-.01,.12,0,.05-.01,.1-.02,.16,0,.04-.01,.09-.02,.13,0,.05-.01,.11-.02,.17,0,.05-.01,.1-.02,.15,0,.06-.02,.11-.03,.17,0,.05-.02,.1-.03,.16,0,.06-.02,.12-.03,.18,0,.06-.02,.11-.03,.17,0,.06-.02,.11-.03,.17-.01,.06-.02,.12-.03,.19,0,.02,0,.04-.01,.07-.09,.48-.19,1-.29,1.54,0,0,0,.02,0,.03-.02,.13-.05,.25-.07,.38,0,.03-.01,.06-.02,.09-.02,.11-.04,.23-.06,.34,0,.04-.01,.07-.02,.11-.02,.11-.04,.23-.06,.35,0,.03-.01,.07-.02,.1-.02,.12-.04,.25-.06,.37-.34,2.01-.58,4.17-.33,5.95,.23,1.59,.88,3.1,2.33,4.41h0c.47,.42,1.01,.82,1.66,1.19h0c1.93,1.12,4.7,2.01,8.65,2.56h0c.36,.05,.73,.1,1.11,.14,.08,0,.17,.02,.25,.03,.14,.02,.28,.03,.43,.05,.28,.03,.56,.06,.86,.08,1.02,.09,1.98,.18,2.89,.26h0c3.17,.29,5.66,.51,7.74,.7h0s.02,0,.02,0c.23,.02,.46,.04,.69,.06,.07,0,.13,.01,.2,.02,.15,.01,.29,.03,.44,.04,.1,0,.19,.02,.28,.03,.12,.01,.23,.02,.34,.03,.09,0,.19,.02,.28,.03,.1,0,.2,.02,.3,.03,.1,.01,.2,.02,.3,.03,.09,0,.19,.02,.28,.03,.09,0,.19,.02,.28,.03,.11,.01,.22,.02,.33,.03,.15,.01,.29,.03,.43,.04,.1,.01,.2,.02,.29,.03,.09,0,.17,.02,.26,.03,.09,0,.18,.02,.27,.03,.09,0,.17,.02,.26,.03,.09,0,.17,.02,.26,.03,.08,0,.17,.02,.25,.03,.09,0,.18,.02,.27,.03,.08,0,.16,.02,.24,.03,.12,.01,.24,.03,.37,.04,.08,0,.16,.02,.25,.03,.12,.01,.24,.03,.35,.04,.07,0,.14,.02,.21,.03,.1,.01,.19,.02,.29,.03,.07,0,.15,.02,.22,.03,.09,.01,.19,.02,.28,.04,.07,0,.15,.02,.22,.03,.1,.01,.21,.03,.31,.04,.06,0,.13,.02,.19,.02,.17,.02,.34,.04,.51,.06,.16,.02,.31,.04,.45,.06,.02,0,.04,0,.06,0,.12,.02,.25,.03,.37,.05,.03,0,.07,0,.1,.01,.1,.01,.21,.03,.31,.04,.02,0,.05,0,.07,0,.11,.02,.22,.03,.33,.05,0,0,0,0,.01,0,1.28,.18,2.23,.34,3.25,.47,0,0,0,0,0,0,.09,.01,.18,.02,.27,.03,1.7,.21,3.68,.36,7.74,.47,7.73,.22,12.26,1.86,17.4,2.42,5.14,.56,9.76,2.04,9.76,2.04h0c.5,.07,1.01,.14,1.51,.21h0s0,0,0,0c.95,.13,1.9,.27,2.85,.4,2.07-.09,4.54-2.82,6.93-3-.95,1.21,.93,2.81,5.23,3.81-.48,.39-.8,.46-1.08,.77,.1,.01,.2,.03,.3,.04h0c1.35,.19,2.65,.36,3.88,.52,.31,.04,.61,.08,.9,.12,.08,0,.16,.02,.23,.03,.32,.04,.63,.08,.94,.12,1.23,.15,2.37,.27,3.39,.37,.2,.02,.39,.04,.58,.05,.11,0,.22,.02,.33,.03,.09,0,.18,.01,.27,.02,.9,.07,1.68,.11,2.32,.11,.29-.12,.67-.54,1.14-1.2h0c.42-.59,.92-1.36,1.48-2.28h0c1.75-2.86,4.11-7.07,6.86-11.06h0c.04-.05,.08-.11,.11-.16,.09-.13,.18-.26,.27-.38,0,0,.01-.01,.02-.02,.23-.32,.45-.64,.68-.96,.03-.04,.05-.07,.08-.11,.08-.11,.17-.23,.25-.34,.05-.07,.1-.14,.16-.21,.08-.1,.16-.21,.23-.31,.06-.08,.12-.16,.18-.23,.08-.1,.15-.2,.23-.29,.06-.08,.13-.16,.19-.24,.07-.09,.15-.19,.22-.28,.07-.08,.13-.17,.2-.25,.07-.09,.15-.18,.22-.27,.07-.08,.13-.16,.2-.24,.07-.09,.15-.18,.22-.27,.07-.08,.14-.16,.21-.24,.07-.09,.15-.17,.22-.25,.07-.08,.14-.16,.22-.24,.07-.08,.14-.16,.22-.24,.07-.08,.15-.16,.22-.24,.07-.08,.14-.16,.22-.23,.07-.08,.15-.16,.23-.24,.07-.07,.14-.15,.22-.22,.08-.08,.16-.16,.23-.24,.07-.07,.14-.14,.21-.21,.08-.08,.16-.16,.25-.24,.07-.06,.13-.13,.2-.19,.09-.09,.18-.17,.27-.25,.06-.05,.12-.11,.18-.16,.13-.12,.27-.24,.4-.35,.03-.03,.07-.06,.1-.09,.13-.11,.27-.22,.4-.33,.05-.04,.11-.08,.16-.13,.1-.08,.2-.15,.3-.23,.06-.05,.12-.09,.19-.14,.09-.07,.18-.13,.27-.2,.07-.05,.13-.09,.2-.13,.09-.06,.18-.12,.27-.18,.07-.04,.14-.09,.21-.13,.09-.05,.17-.11,.26-.16,.07-.04,.14-.08,.21-.12,.09-.05,.17-.1,.26-.14,.07-.04,.14-.07,.21-.11,.09-.04,.17-.09,.26-.13,.07-.03,.14-.07,.21-.1,.09-.04,.17-.08,.26-.11,.07-.03,.14-.06,.21-.09,.09-.03,.18-.07,.26-.1,.07-.03,.14-.05,.21-.07,.09-.03,.18-.06,.27-.08,.07-.02,.14-.04,.21-.06,.09-.02,.18-.05,.27-.07,.07-.02,.13-.03,.2-.05,.1-.02,.19-.03,.29-.05,.06-.01,.13-.02,.19-.03,.11-.01,.21-.02,.32-.03,.05,0,.11-.01,.16-.02,.16-.01,.32-.02,.48-.02-.09,.07-.19,.14-.29,.22-.03,.02-.06,.04-.09,.07-.08,.06-.15,.12-.23,.19-.03,.02-.05,.04-.08,.06-.1,.09-.2,.18-.31,.27-.02,.02-.04,.04-.07,.06-.09,.08-.17,.16-.26,.24-.03,.03-.06,.06-.09,.09-.1,.1-.2,.2-.31,.3-.01,.01-.02,.02-.03,.03-.12,.12-.23,.24-.35,.36-.02,.02-.05,.05-.07,.07-.1,.11-.21,.22-.32,.34-.02,.02-.03,.04-.05,.06-.13,.14-.25,.28-.38,.43t0,0c-1.84,2.08-3.88,4.92-5.65,8.03h0c-.5,.88-.98,1.78-1.42,2.7,0,0,0,.02-.01,.02-.08,.17-.16,.34-.25,.51-.01,.02-.02,.05-.03,.07-.07,.16-.15,.31-.22,.47-.01,.03-.03,.07-.04,.1-.07,.15-.13,.29-.2,.44-.02,.04-.03,.08-.05,.12-.06,.14-.12,.28-.18,.42-.02,.04-.04,.09-.05,.13-.06,.14-.11,.27-.17,.41-.02,.05-.04,.1-.06,.14-.05,.13-.1,.27-.15,.4-.02,.05-.04,.1-.06,.15-.05,.13-.1,.26-.15,.4-.02,.05-.04,.1-.05,.15-.05,.13-.09,.26-.14,.4-.02,.05-.03,.1-.05,.15-.05,.13-.09,.27-.13,.4-.01,.04-.03,.09-.04,.13-.04,.14-.09,.29-.13,.43-.01,.04-.02,.07-.03,.11-.05,.16-.09,.32-.14,.48,0,.02,0,.03-.01,.05-.1,.36-.18,.71-.26,1.07,0,.03-.01,.06-.02,.09-.03,.14-.06,.28-.09,.42-.01,.06-.02,.11-.03,.17-.02,.12-.04,.23-.06,.34-.01,.06-.02,.13-.03,.19-.02,.1-.03,.21-.05,.31,0,.07-.02,.14-.03,.21-.01,.1-.02,.2-.03,.29,0,.07-.01,.14-.02,.22,0,.09-.02,.19-.02,.28,0,.07,0,.15-.01,.22,0,.09-.01,.18-.01,.27,0,.07,0,.15,0,.22,0,.09,0,.18,0,.26,0,.07,0,.15,0,.22,0,.09,0,.17,0,.26,0,.07,0,.14,0,.21,0,.08,.01,.17,.02,.25,0,.07,.01,.14,.02,.21,0,.08,.02,.17,.03,.25,0,.07,.02,.14,.02,.2,.01,.08,.03,.17,.04,.25,.01,.06,.02,.13,.03,.19,.02,.09,.03,.17,.05,.26,.01,.06,.02,.12,.04,.18,.02,.09,.05,.18,.07,.28,.01,.05,.02,.1,.04,.15,.04,.14,.08,.28,.13,.41-.78,1.9-.26,3.63,.17,4.23-.07,.28-.12,.57-.17,.86-.02,.09-.03,.19-.04,.28-.03,.2-.06,.4-.08,.61-.01,.11-.02,.22-.03,.33-.02,.2-.03,.4-.04,.6,0,.11-.01,.21-.02,.32,0,.24-.01,.49-.01,.74,0,.06,0,.12,0,.18,0,.3,.01,.6,.03,.9,0,.12,.02,.25,.03,.37,.01,.19,.03,.37,.05,.56,.01,.14,.03,.28,.05,.42,.02,.17,.04,.35,.07,.52,.02,.15,.04,.29,.06,.44,.03,.18,.06,.36,.09,.54,.04,.22,.08,.43,.12,.65,.04,.21,.08,.42,.13,.63,.04,.17,.08,.33,.12,.5,.04,.15,.07,.29,.11,.44,.05,.17,.09,.35,.14,.52,.04,.14,.08,.28,.12,.41,.05,.18,.1,.35,.16,.53,.04,.13,.08,.26,.12,.39,.12,.38,.25,.77,.39,1.15,1.26,3.5,3.06,6.83,4.98,9.5h0c.07,.1,.14,.2,.22,.3,.09,.12,.18,.25,.27,.37,.1,.13,.19,.25,.29,.38,.1,.13,.2,.26,.3,.38,.07,.08,.13,.16,.2,.24,.14,.17,.27,.33,.41,.49,.06,.07,.12,.14,.18,.2,.14,.16,.29,.32,.43,.48,.05,.05,.09,.1,.14,.14,.15,.15,.29,.3,.44,.44,.03,.03,.05,.05,.08,.08,.16,.15,.31,.3,.47,.44,.03,.03,.06,.06,.09,.08,.16,.14,.32,.28,.48,.41,.03,.02,.06,.05,.09,.07,.16,.13,.32,.25,.48,.36,.02,.02,.04,.03,.07,.05Z"/>
  </g>
</svg>