<?xml version="1.0" encoding="UTF-8"?>
<svg id="Layer_2" data-name="Layer 2" xmlns="http://www.w3.org/2000/svg" viewBox="0 0 84.92 63.35">
  <defs>
    <style>
      .cls-1 {
        fill: #808080;
      }
    </style>
  </defs>
  <g id="Layer_1-2" data-name="Layer 1">
    <path class="cls-1" d="M29.41,2.35s0,0,0,0c0,0,0,0,0,.01-.06,.08-.11,.17-.16,.25-.56-.38-.74-.02-.97,1.87-.23,1.89-.92,1.89-.97,3.5,0,.08,0,.15-.01,.22t0,0c-.09,1.41-.59,1.69-.88,2.23-.01,.03-.02,.06-.04,.09,0,0,0,0,0,0,0,.02-.02,.05-.03,.07-.02,.04-.03,.09-.05,.13-.01,.04-.02,.09-.03,.13-.01,.05-.02,.11-.03,.17,0,.05-.02,.1-.02,.16,0,.06-.02,.13-.02,.19,0,.06,0,.12-.01,.18,0,.07-.01,.15-.01,.22,0,.06,0,.13,0,.2,0,.08,0,.16,0,.25,0,.07,0,.15,0,.23,0,.09,0,.17,0,.27,0,.09,0,.19,0,.29,0,.08,0,.16,0,.25,0,.19,0,.38,.01,.58,0,.09,0,.19,0,.29h0c0,.15,0,.29,0,.43,0,.04,0,.08,0,.11,0,.02,0,.04,0,.06,0,.09,0,.17,0,.26,0,0,0,.01,0,.02,0,.18,0,.36,.02,.52-.12,.03-.25,.06-.37,.09-.11,.03-.23,.05-.34,.08h0s-.1,.02-.15,.03c-.05,.01-.09,.02-.14,.04,.04-.2,.02-.35-.27-.74-.57-.77-.69-2.6-.69-4.91s.1-3.15,.27-3.55c.08-.19,0-.22-.18-.25,.07-.05,.13-.1,.2-.15,0,0,0,0,0,0h0c.25-.2,.42-.4,.58-.63-.35-.01-.66-.19-.58-1.23,.08-1.03,.21-1.89,1.29-3.27-1.23,.32-3.13,2.13-3.4,4.38,0,0,0,0,0,0,0,0,0,.02,0,.02,0,.05,0,.1-.01,.15-.13-.02-.24,.02-.34,.12-.28,.31,.24,2.22,.24,4.23s.1,3.19-.11,3.63c-.22,.43,.28,1.65,.34,2.64,0,.06,0,.13,.01,.2,0,.03,0,.07,0,.1-.46,.15-.91,.3-1.37,.47-.15,.06-.29,.11-.43,.17-.19-.31-.39-.66-.58-1.07-.87-1.92-1.3-2.53-1.25-3.38-.36-.54-.5-.46-.45-.79,0-.06-.05-.09-.14-.12,.01-.03,.02-.06,.03-.09,.02-.05,.04-.1,.05-.16,0,0,0,0,0,0,.06-.22,.11-.49,.13-.8-.41,.09-1.47-.63-1.09-3.37-1.14,.76-1.33,2.93-1.12,4.18h0s0,.05,.01,.07c.01,.07,.03,.14,.04,.2,0,.03,.01,.05,.02,.08,.02,.06,.03,.11,.05,.16,0,0,0,.02,.01,.03-.13,.07-.23,.14-.28,.22-.04,.07-.05,.14-.04,.21h0s0,0,0,0c.03,.24,.32,.46,.65,.75,.03,.03,.06,.05,.08,.08,.02,.02,.04,.04,.06,.06,.05,.05,.1,.1,.15,.15,.01,.01,.02,.03,.03,.04,.05,.06,.11,.12,.16,.19,.52,.7,1.44,2.8,1.79,4.12-.22,.11-.43,.23-.65,.35,0,0,0,0,0,0h0c-.33,.19-.66,.4-.99,.63-.02-.04-.04-.09-.05-.14-.02-.16,.05-.35-.07-.46-.53,.67-1,1.38-1.43,2.12-.13-.16-.26-.32-.39-.48-.39,.57-.57,1.27-.5,1.96-.15-.03-.3-.11-.39-.24-.38,.85-.25,1.9,.33,2.63-.16,.03-.33,.04-.5,.02,.38,1.1,.85,2.3,1.88,2.84,.25,.13,.54,.23,.68,.46,.06,.09,.09,.2,.14,.29,.18,.37,.58,.57,.98,.68,.39,.11,.81,.16,1.18,.33,.19,.09,.37,.21,.55,.33-.21,.25-.53,.38-1.32,.5,0,0-.01,0-.02,0-.24-.09-.64-.15-1.27-.25-1.33-.22-1.97-.85-2.25-.74,0,0-.01,0-.02,.01,0,0-.01-.02-.02-.02-.3-.31-1.56-.57-2.51-1.52-.02-.02-.05-.03-.08-.02-.67-.68-1.28-1.41-1.84-2.19l-.45-.66c-.15-.22-.28-.45-.42-.68-.13-.23-.29-.45-.41-.69l-.38-.71c-.98-1.91-1.68-3.96-2.15-6.06-.46-2.1-.73-4.26-.75-6.42-.06-1.08,.03-2.16,.06-3.24l.02-.41c.01-.13,.29-2.83,.29-2.83l-.31,2.42c-.02,.13-.04,.27-.05,.4l-.03,.41c-.06,1.08-.17,2.16-.14,3.25-.04,2.17,.19,4.34,.6,6.48,.42,2.13,1.08,4.23,2.03,6.2l.37,.73c.12,.25,.27,.48,.4,.72,.14,.24,.27,.48,.42,.71l.17,.26c-.69-.74-1.36-1.5-2.01-2.29-1.44-1.76-2.76-3.62-3.91-5.59-1.15-1.96-2.13-4.03-2.83-6.2C.34,8.66-.06,6.38,.03,4.09c-.15,2.28,.21,4.58,.86,6.78,.65,2.2,1.59,4.31,2.71,6.31,1.12,2,2.41,3.91,3.82,5.72,1.4,1.79,2.93,3.49,4.58,5.06,.01,.03,.02,.05,.04,.08,.28,.39,1.52,.9,1.88,1.15,.23,.16,.44,.28,.63,.29,0,.03,.01,.06,.02,.08,.09,.17,2.26,1.11,3.2,1.43,0,.01,0,.02,0,.03,0,0,0,0,0,.01,0,.01,0,.03,.02,.04,0,0,0,.01,0,.01,.01,.01,.02,.03,.04,.04,.08,.08,.22,.16,.3,.29,0,0,0,0,0,0,.04,.07,.08,.15,.08,.25s-.03,.18-.08,.25h0c-.09,.13-.22,.22-.3,.29-.01,.01-.03,.03-.04,.04,0,0,0,.01,0,.02,0,.01-.01,.03-.02,.04,0,0,0,0,0,.01,0,.01,0,.02,0,.03-.94,.32-3.11,1.26-3.2,1.43-.01,.02-.02,.05-.02,.08-.19,.01-.4,.13-.63,.29-.36,.25-1.6,.76-1.88,1.15-.02,.02-.02,.05-.04,.08-1.65,1.57-3.18,3.27-4.58,5.06-1.41,1.81-2.7,3.72-3.82,5.72-1.11,2-2.05,4.11-2.71,6.31C.24,54.67-.11,56.97,.03,59.26c-.1-2.29,.31-4.57,1-6.73,.7-2.17,1.68-4.24,2.83-6.2,1.15-1.96,2.47-3.83,3.91-5.59,.64-.78,1.3-1.53,1.98-2.26l-.15,.24c-.15,.23-.28,.47-.42,.71-.13,.24-.28,.47-.4,.72l-.37,.73c-.95,1.97-1.62,4.07-2.04,6.2-.41,2.14-.64,4.31-.6,6.48-.03,1.09,.08,2.17,.14,3.25l.03,.41c.01,.13,.36,2.82,.36,2.82l-.25-2.42c-.01-.13-.03-.27-.04-.4l-.02-.41c-.03-1.08-.12-2.16-.06-3.24,.02-2.16,.29-4.32,.75-6.42,.46-2.1,1.17-4.15,2.15-6.06l.38-.71c.12-.24,.27-.46,.41-.69,.14-.23,.27-.46,.42-.68l.45-.66c.56-.77,1.17-1.51,1.83-2.19,.03,0,.07,0,.09-.02,.95-.95,2.22-1.21,2.51-1.52,0,0,.01-.02,.02-.02,0,0,.01,0,.02,.01,.28,.11,.92-.52,2.25-.74,.63-.1,1.02-.17,1.27-.25,0,0,.01,0,.02,0,.79,.13,1.11,.25,1.32,.5-.18,.12-.36,.24-.55,.33-.37,.17-.79,.22-1.18,.33-.39,.11-.8,.31-.98,.68-.05,.1-.08,.2-.14,.29-.15,.24-.44,.33-.68,.46-1.03,.54-1.5,1.74-1.88,2.84,.17-.02,.33,0,.5,.02-.58,.73-.71,1.78-.33,2.63,.1-.13,.24-.21,.39-.24-.07,.68,.11,1.39,.5,1.96,.13-.16,.26-.32,.39-.48,.42,.74,.9,1.45,1.43,2.12,.11-.11,.04-.3,.07-.46,0-.05,.03-.1,.05-.14,.54,.38,1.09,.71,1.64,.99-.36,1.33-1.27,3.43-1.79,4.12-.05,.07-.1,.13-.16,.19-.01,.01-.02,.03-.03,.04-.05,.05-.1,.11-.15,.15-.02,.02-.04,.04-.06,.06-.03,.03-.06,.06-.09,.08-.33,.29-.62,.51-.65,.75h0c0,.07,0,.13,.04,.21,.04,.08,.15,.15,.28,.22,0,0,0,.02-.01,.02-.02,.05-.03,.11-.05,.16,0,.03-.02,.05-.02,.08-.02,.06-.03,.13-.04,.2,0,.03-.01,.05-.01,.07,0,0,0,0,0,0-.21,1.24-.02,3.41,1.12,4.18-.37-2.74,.69-3.45,1.09-3.37-.02-.32-.07-.58-.13-.8,0,0,0,0,0,0-.02-.06-.04-.11-.06-.17,0-.03-.02-.06-.03-.08,.09-.02,.15-.06,.14-.12-.05-.33,.09-.26,.45-.79-.05-.84,.38-1.46,1.25-3.38,.19-.42,.39-.77,.58-1.07,.15,.06,.29,.12,.43,.17,.31,.11,.62,.22,.92,.33h0s0,0,0,0c.14,.05,.29,.09,.44,.14,0,.03,0,.07,0,.1,0,.07,0,.13-.01,.2-.06,1-.55,2.21-.34,2.64,.22,.43,.11,1.62,.11,3.63s-.52,3.92-.24,4.22c.1,.11,.21,.14,.34,.12,0,.05,0,.1,.01,.16,0,0,0,.02,0,.02,0,0,0,0,0,0,.27,2.25,2.17,4.06,3.4,4.38-1.08-1.38-1.21-2.23-1.29-3.27-.08-1.03,.23-1.21,.58-1.23-.2-.29-.42-.53-.78-.77,.18-.03,.26-.06,.18-.25-.17-.4-.27-1.24-.27-3.55s.11-4.15,.69-4.91c.29-.39,.31-.54,.27-.74,.05,.01,.09,.02,.14,.04,.18,.04,.36,.08,.54,.13h0s.1,.02,.15,.04h0c.06,.01,.12,.03,.18,.04-.02,.16-.02,.34-.02,.52,0,0,0,.01,0,.02,0,.09,0,.17,0,.26,0,.02,0,.04,0,.06,0,.04,0,.08,0,.12,0,.14,0,.27,0,.41h0c0,.11,0,.2,0,.29,0,.2,0,.4-.01,.58,0,.09,0,.17,0,.25,0,.1,0,.2,0,.29,0,.09,0,.18,0,.27,0,.08,0,.16,0,.23,0,.09,0,.17,0,.25,0,.07,0,.14,0,.2,0,.08,0,.15,.01,.22,0,.06,0,.12,.01,.18,0,.07,.02,.13,.02,.2,0,.05,.01,.11,.02,.16,.01,.06,.02,.11,.04,.17,.01,.04,.02,.09,.03,.13,.01,.05,.03,.09,.05,.14,0,.02,.02,.05,.02,.07,0,0,0,0,0,0,.01,.03,.02,.06,.04,.09,.29,.53,.79,.82,.88,2.23t0,0c0,.07,0,.15,.01,.22,.05,1.61,.74,1.61,.97,3.5,.23,1.89,.41,2.24,.97,1.87,.05,.09,.1,.17,.16,.25,0,0,0,0,0,.01,0,0,0,0,0,0,1.29,1.8,4.13,2.64,5.13,2.26-1.38-.32-1.67-1.21-1.5-1.28-.66-.13-1.17-.58-1.63-1.22h0c-.05-.07-.1-.15-.15-.22,.18-.02,.27-.08,.18-.2-1-1.02-1.7-4.6-2.39-6.91-.69-2.31-.11-2.12-.03-2.68,.08-.56-.3-.56,.02-1.58,.09-.29,.13-.54,.13-.77,.12,.02,.24,.04,.36,.06,.1,.02,.2,.03,.3,.05,0,0,0,0,0,0,.11,.02,.22,.04,.34,.05,0,0,0,0,0,0,.21,.03,.42,.07,.63,.1-.03,.07-.04,.14-.05,.22,0,0,0,0,0,0,0,.02,0,.04,0,.06,0,.04,0,.07,0,.11,0,.03,0,.06,0,.09,0,.04,0,.08,.02,.12,0,.03,.01,.06,.02,.1,0,.05,.02,.09,.03,.14,0,.03,.02,.06,.03,.1,.01,.05,.03,.1,.04,.15,.01,.03,.02,.07,.03,.1,.02,.05,.03,.1,.05,.15,.01,.03,.03,.07,.04,.1,.02,.05,.04,.1,.06,.15,.02,.04,.03,.08,.05,.13,.02,.04,.04,.09,.05,.13,.03,.08,.07,.17,.11,.25,.59,1.38,.87,2.45,2.25,4.59,1.38,2.14,1.48,4.03,2.04,4.47,.03,.02,.07,.04,.11,.06,.01,0,.03,0,.04,.01,.03,0,.06,.02,.1,.02,.02,0,.03,0,.05,0,.04,0,.08,0,.12,0,.01,0,.03,0,.04,0,.06,0,.11-.02,.17-.03,0,0,.01,0,.02,0h0s.07,.1,.11,.14h0c.72,.92,2.85,2.35,4.74,1.67-1.58-.08-2.42-1.58-2.42-1.58,0,0,.02-.19,.39-.37-.31-.11-.89-.18-1.32-.68-.05-.06-.1-.12-.14-.19,.01-.02,.02-.05,.03-.08,0-.02,.02-.04,.03-.06,0,0,0,0,0,0,.08-.22,.08-.45-.03-.69-1.17-1.24-1.86-2.31-2.27-3.22-.35-.77-.49-1.42-.53-1.94h0c0-.1-.01-.2-.02-.3h0c0-.1,0-.19,0-.27,0,0,0,0,0,0,0-.08,0-.16,.01-.23h0c.01-.18,.03-.34,.04-.46-.67-.43-.88-1.39-1.19-2.17,0,0,.02,0,.02,0,.04,0,.07-.02,.1-.03,.03-.01,.07-.02,.09-.03,.03-.02,.06-.04,.09-.05,.02-.01,.04-.02,.06-.04,.03-.03,.06-.07,.08-.1,2.46,.38,4.91,.81,7.34,1.33,.28,.74,.57,1.69,.83,3.02,.58,3-.07,2.93,.67,3.02,.07,.11,.2,.24,.42,.38,0,0,0,0,0,0h0s.05,.03,.08,.05c1.01,.59,3.29,.71,4.11,.23,.82-.47,.26-1.19,.26-.87,0,.75-1.35,.41-2.08-.13-.39-.3-.57-.46-.73-.55h0s-.01,0-.02-.01c-.02-.01-.05-.03-.07-.04-.01,0-.03-.01-.04-.02-.02,0-.04-.02-.07-.02-.02,0-.04,0-.06-.01,.09-.22,.09-.45-.06-.66-.33-.46-1.07-2.26-1.55-4.01,.23,.05,.45,.1,.68,.16h0c.18,.04,.37,.09,.55,.13,.6,.15,1.2,.29,1.79,.45,.68,.17,1.36,.36,2.04,.54,.01,0,.04,.01,.06,.02h0s.03,0,.04,.01c1.05,.31,7.41,2.32,10.04,3.1,.28,.08,.56,.17,.84,.25,0,0,0,0,0,0,0,0,0,0,0,0,.81,.24,1.62,.47,2.43,.69,0,0,0,0,0,0,.05,.01,.11,.03,.16,.04,0,0,0,0,0,0,.32,.09,.63,.17,.95,.26,0,0,0,0,0,0,.06,.02,.12,.03,.18,.05,0,0,0,0,0,0,.38,.1,.76,.2,1.14,.29,0,0,0,0,0,0,.06,.01,.11,.03,.17,.04,0,0,0,0,0,0,.39,.1,.78,.19,1.17,.28,0,0,0,0,0,0,.03,0,.05,.01,.08,.02,0,0,0,0,0,0,.32,.07,.64,.15,.95,.22,0,0,0,0,0,0,0,0,.02,0,.04,0,.03,0,.06,.01,.09,.02,.19,.04,.39,.08,.58,.12,.03,0,.05,.01,.07,.02h0c1.17,.24,2.35,.46,3.54,.64,1.41,.21,2.82,.36,4.24,.41,1.42,.05,2.85,.01,4.25-.19,1.4-.2,2.79-.57,4.06-1.22-1.28,.6-2.68,.93-4.08,1.09-1.4,.16-2.82,.15-4.22,.06-1.41-.09-2.81-.29-4.19-.53-1.11-.2-2.21-.43-3.31-.69h0c-.2-.05-.75-.18-1.11-.28-1.2-.31-2.39-.64-3.57-.99-.12-.04-.25-.07-.37-.11-.21-.06-.41-.13-.62-.19-.63-.19-1.26-.39-1.88-.59-.35-.11-.71-.23-1.06-.35-.55-.18-1.4-.47-1.73-.58h0c-.06-.02-.13-.04-.19-.06-.39-.13-.77-.26-1.15-.4h0c-.07-.02-.14-.05-.21-.07h0c-.15-.05-.3-.1-.45-.16-.18-.06-.36-.13-.54-.19h0c-.23-.08-.47-.16-.7-.24-.25-.09-.5-.18-.76-.27h0c-.13-.04-.25-.09-.38-.13-.12-.04-.24-.09-.37-.13-.05-.02-.1-.04-.15-.05h0c-.11-.04-.22-.08-.33-.11h0c-.37-.13-.74-.26-1.1-.38h0s-.1-.03-.15-.05h0s-.09-.03-.13-.05c-.34-.11-.67-.23-1.01-.34,0,0,0,0,0,0-.13-.04-.26-.09-.39-.13,0,0,0,0,0,0-.07-.02-.22-.07-.38-.12-.08-.03-.17-.06-.25-.08-.61-.18-1.21-.37-1.82-.54-.06-.02-.12-.04-.19-.05h0s-.03,0-.04-.01c-.08-.02-.16-.05-.25-.07h0c-.39-.11-.78-.22-1.18-.33h0c-.52-.14-1.04-.28-1.56-.42-.16-.04-.35-.09-.53-.14-.05-.01-.09-.02-.14-.04-.11-.59-.17-1.12-.14-1.54,.03-.47,0-.86-.07-1.18,.05-.02,.09-.04,.11-.08,.02-.03,.05-.06,.08-.1,0,0,.01-.01,.02-.02,.01-.01,.02-.03,.04-.04,0,0,0,0,0,0,.57-.7,2.14-2.88,3.42-3.95,1.21-1.01,1.74-1.15,1.42-1.74,0,0,0,0,0,0,0-.01-.01-.02-.02-.04,.32-.06,.54-.18,.54-.36,0-.61-.25-1.16-.61-1.75,.12-.07,.2-.14,.25-.22,.48-.79,1.05-.22,1.05-.9,.03,.02,.07,.03,.11,.05,0,0,0,0,0,0,.06,.03,.13,.05,.19,.07h0c.08,.02,.16,.04,.24,.06,.03,0,.06,0,.09,0,.06,0,.11,.01,.17,.01,.04,0,.07,0,.11,0,.05,0,.1,0,.15-.01,.03,0,.07-.01,.1-.02,.05,0,.1-.02,.14-.03,.03,0,.06-.02,.1-.03,.05-.02,.09-.04,.14-.06,.03-.01,.06-.03,.08-.04,.05-.03,.09-.06,.14-.09,.02-.01,.04-.03,.06-.04,.06-.05,.12-.1,.18-.16h0s0,0,0,0c.42,.57,.9,.61,1.55-.13,.03,.05,.05,.09,.08,.12,0,.01,.02,.03,.03,.04,0,.01,.02,.03,.03,.04,0,0,0,0,0,0,.14,.17,.28,.21,.61,.26h0s.04,0,.05,0c.09,.01,.19,.03,.31,.05,.06,0,.11,.02,.16,.04,.01,0,.03,.01,.04,.02,.04,.02,.08,.04,.11,.06,0,0,.02,.01,.03,.02,.09,.06,.17,.13,.25,.21,.32,.32,.64,.72,1.56,.6,.27-.22-.65-.58-.15-.92,.37-.25,.94-.14,1.37-.47t0,0c.1,.13,.2,.24,.3,.35,0,0,0,0,0,0,0,0,.01,.01,.02,.02,.03,.03,.06,.06,.09,.09,.07,.08,.15,.15,.22,.22,.03,.03,.06,.05,.09,.08,.09,.08,.18,.15,.28,.21,.04,.02,.07,.05,.11,.07,.02,.01,.04,.03,.07,.04,0,0,0,0,0,0,.55,.33,1.13,.46,1.82,.46,.26,0-.59-.34-.33-.59,.24-.23,.91-.39,1.15-1.04,0,0,0,0,0,0,.14,.09,.26,.17,.38,.26h0c.15,.11,.3,.21,.43,.31,.82,.61,1.35,1.03,2.56,.75,.44-.11-.82-.25-.75-.62,.06-.31,.68-.45,1.38-1.08,.15,.32,.38,.57,.65,.77,0,0,0,0,0,0,.12,.09,.24,.16,.37,.23,0,0,0,0,0,0h0c.71,.36,1.55,.42,2.05,.32,.79-.17-.66-.22-.66-.82,0-.45,.58-.65,1.3-1.34h0c.08,.65,.16,1.02,.29,1.25h0s0,0,0,0c.09,.16,.21,.26,.37,.32,0,0,0,0,.01,0,.05,.02,.1,.04,.16,.05,0,0,0,0,0,0h0c.06,.02,.13,.03,.2,.05,.69,.15,1.17,.67,1.7,.41,.52-.27-.23,.01-.4-.67-.08-.34,.25-.63,.69-.97h0c0,.07,0,.14,0,.2,0,.04,0,.08,0,.12,0,.02,0,.04,0,.06,0,.05,.01,.1,.02,.14,0,0,0,0,0,.01,0,.05,.02,.09,.03,.13,0,0,0,0,0,0h0c.03,.11,.07,.21,.12,.29,0,0,.01,.02,.02,.03,.02,.03,.04,.07,.07,.1,0,0,0,.01,.01,.02,.03,.04,.06,.07,.09,.1,0,0,0,0,0,0,.03,.03,.06,.06,.1,.08,0,0,.01,.01,.02,.02,.08,.07,.17,.13,.27,.2,.03,.02,.05,.04,.08,.06,.02,.01,.03,.02,.05,.04,.04,.04,.09,.07,.13,.11,.58,.52,4.49,6.99,7.66,6.99,.09,0,.19-.01,.29-.03,.03,0,.06-.01,.09-.02,.07-.01,.14-.03,.21-.05,.04-.01,.07-.02,.11-.04,.07-.02,.14-.05,.21-.08,.04-.02,.07-.03,.11-.05,.1-.04,.19-.1,.29-.15,.02-.01,.04-.02,.06-.03,.1-.06,.2-.13,.3-.2,.04-.03,.08-.06,.12-.09,.07-.05,.13-.1,.2-.16,.05-.04,.09-.08,.14-.12,.06-.05,.12-.11,.18-.17,.04-.04,.09-.09,.13-.13,.07-.07,.13-.14,.19-.22,.06-.07,.11-.14,.17-.21,.06-.08,.12-.16,.18-.25,.04-.06,.08-.12,.12-.18,.04-.07,.09-.14,.13-.21,.04-.07,.07-.14,.11-.2,.04-.07,.07-.15,.11-.22,.03-.07,.07-.14,.09-.22,.04-.09,.07-.18,.1-.26,.04-.1,.07-.21,.1-.32,.03-.1,.05-.19,.08-.29,0,0,0,0,0,0,.12-.58,.16-1.2,.06-1.85,0,0,0,0,0,0,.41-.54,.62-1.31,.62-2.25,0-.18,0-.34,0-.51,0-.03,0-.06,0-.09-.02-.98-.08-1.69-.26-2.22,.02-.01,.03-.02,.04-.04,.02-.01,.03-.03,.05-.04,.04-.04,.08-.09,.1-.14,.36-.74,.38-2.42,.38-2.42,0,0-.02-1.02-.19-1.83,0-.01,0-.03,0-.04-.02-.1-.05-.19-.07-.27,0-.01,0-.03-.01-.04-.03-.09-.06-.17-.09-.24-.04-.08-.11-.15-.19-.21,.17-.54,.24-1.25,.26-2.22,0-.01,0-.03,0-.04,0-.02,0-.05,0-.07,0-.15,0-.31,0-.48,0-.94-.21-1.71-.62-2.25,0,0,0,0,0,0,.1-.65,.07-1.27-.06-1.85,0,0,0,0,0,0-.02-.1-.05-.19-.07-.29-.03-.11-.06-.22-.1-.33-.03-.09-.06-.17-.09-.26-.03-.07-.06-.15-.1-.22-.03-.07-.07-.15-.1-.22-.04-.07-.07-.14-.11-.21-.04-.07-.08-.14-.12-.2-.04-.06-.08-.13-.12-.19-.06-.08-.11-.16-.17-.24-.06-.08-.12-.15-.18-.23-.06-.07-.12-.14-.18-.21-.05-.05-.09-.09-.14-.14-.06-.06-.11-.11-.17-.17-.05-.04-.09-.08-.14-.12-.06-.05-.13-.1-.19-.15-.04-.03-.08-.07-.13-.1-.1-.07-.19-.13-.29-.19-.02-.01-.05-.03-.07-.04-.09-.06-.19-.1-.28-.15-.04-.02-.07-.03-.11-.05-.07-.03-.14-.06-.21-.08-.04-.01-.07-.03-.11-.04-.07-.02-.14-.04-.21-.05-.03,0-.06-.01-.09-.02-.1-.02-.19-.03-.29-.03-3.17,0-7.08,6.47-7.66,6.99-.05,.04-.09,.08-.13,.11-.01,.01-.02,.02-.04,.03-.03,.03-.07,.05-.1,.08,0,0-.02,.01-.03,.02-.02,.02-.05,.04-.07,.05-.01,0-.02,.02-.04,.03,0,0,0,0-.01,.01-.03,.03-.07,.05-.1,.07,0,0-.02,.02-.03,.02-.03,.02-.06,.05-.09,.08,0,0-.01,0-.02,.01-.03,.03-.06,.06-.09,.1,0,0-.01,.01-.02,.02-.02,.03-.04,.06-.06,.09,0,0-.01,.02-.02,.03-.02,.04-.04,.08-.06,.13,0,0,0,0,0,0h0s-.04,.1-.05,.16h0s0,0,0,0c-.01,.04-.02,.08-.03,.13,0,0,0,.01,0,.02,0,.04-.01,.09-.02,.13,0,.02,0,.04,0,.06,0,.04,0,.07,0,.11,0,.06,0,.13,0,.2-.45-.34-.78-.63-.69-.97,.17-.69,.92-.41,.4-.67-.52-.27-1.01,.25-1.7,.41-.15,.03-.27,.07-.38,.11,0,0,0,0,0,0-.16,.07-.28,.16-.37,.32,0,0,0,0,0,0h0c-.12,.22-.2,.58-.28,1.17h0s0,.06-.01,.09h0c-.71-.69-1.3-.89-1.3-1.34,0-.59,1.45-.65,.66-.82-.79-.17-2.47,.09-3.07,1.32h0c-.7-.62-1.32-.77-1.38-1.08-.07-.37,1.19-.51,.75-.62-1.21-.27-1.74,.14-2.55,.75-.14,.1-.28,.21-.44,.32h0c-.12,.08-.25,.17-.38,.26,0,0,0,0,0,0-.24-.65-.91-.81-1.15-1.04-.25-.25,.59-.59,.33-.59-.69,0-1.27,.13-1.82,.46,0,0,0,0,0,0-.02,.01-.05,.03-.07,.05-.03,.02-.07,.04-.1,.07-.09,.06-.19,.13-.28,.21-.03,.03-.06,.05-.09,.08-.07,.07-.15,.14-.22,.21-.03,.03-.06,.06-.09,.09,0,0-.01,.01-.02,.02,0,0,0,0,0,0-.1,.11-.2,.22-.3,.35-.43-.33-1-.22-1.37-.47-.49-.34,.43-.69,.15-.92-.92-.12-1.23,.27-1.56,.59h0c-.08,.08-.16,.15-.25,.21,0,0-.02,.01-.03,.02-.03,.02-.07,.04-.11,.06-.01,0-.03,.01-.04,.02-.05,.02-.1,.03-.16,.04-.12,.02-.22,.03-.31,.05-.02,0-.04,0-.05,0h0c-.42,.06-.54,.11-.74,.45h0s0,0,0,0c0,0,0,0,0,0-.65-.75-1.13-.71-1.55-.13,0,0,0,0,0,0h0c-.05-.06-.11-.11-.18-.16-.02-.02-.04-.03-.07-.05-.04-.03-.09-.06-.13-.09-.03-.02-.06-.03-.09-.04-.04-.02-.09-.04-.13-.06-.03-.01-.07-.02-.1-.03-.05-.01-.09-.02-.14-.03-.04,0-.07-.01-.11-.02-.05,0-.1,0-.14-.01-.04,0-.07,0-.11,0-.05,0-.11,0-.16,.01-.03,0-.06,0-.09,0-.08,.01-.16,.03-.24,.05,0,0,0,0,0,0-.07,.02-.13,.05-.19,.07,0,0,0,0,0,0-.04,.01-.07,.03-.11,.05,0-.67-.58-.11-1.05-.9-.05-.07-.13-.15-.25-.22,.19-.31,.34-.6,.45-.9,0,0,0,0,0,0h0c.1-.28,.16-.56,.16-.85,0-.19-.22-.3-.54-.36,0-.01,.01-.02,.02-.04,0,0,0,0,0,0,.32-.59-.22-.73-1.42-1.74-1.28-1.07-2.85-3.25-3.42-3.95h0c-.06-.07-.1-.12-.14-.16-.03-.03-.07-.06-.11-.08,.08-.32,.1-.71,.07-1.18-.03-.42,.03-.95,.14-1.54,1.22-.31,2.44-.64,3.65-1,.05-.01,.1-.03,.15-.04h0c.16-.05,.32-.09,.47-.14h0c.47-.14,.95-.28,1.42-.43,.07-.02,.2-.07,.39-.13,0,0,0,0,0,0,.07-.02,.13-.04,.2-.06,0,0,0,0,0,0,.27-.09,.61-.21,1.01-.34,0,0,.02,0,.03,.01,.14-.05,.27-.09,.41-.14,.15-.05,.29-.1,.44-.15,0,0,0-.02,0-.02,.48-.16,1-.34,1.54-.53,0,0,.01,.01,.02,.02,.14-.05,.27-.1,.41-.14,0,0,0-.01,0-.02,.78-.27,1.59-.55,2.37-.82,0,0,0,0,0,0,.18-.06,.36-.13,.54-.19,0,0,0,0,0,0,1.05-.36,2.01-.69,2.7-.92,2.68-.9,5.38-1.72,8.12-2.41,1.37-.34,2.75-.64,4.14-.89,1.39-.25,2.79-.44,4.19-.53,1.41-.09,2.82-.1,4.22,.06,1.4,.16,2.79,.49,4.08,1.09-1.26-.64-2.65-1.01-4.06-1.22-1.41-.2-2.83-.24-4.25-.19-1.42,.05-2.84,.2-4.24,.41-1.41,.21-2.8,.47-4.19,.77-2.77,.61-5.52,1.36-8.23,2.18-.9,.27-1.79,.55-2.68,.83h0c-.14,.04-.28,.09-.42,.13-.36,.11-.72,.23-1.07,.34h0c-.3,.09-.6,.19-.9,.28-.17,.05-.34,.11-.52,.16h0c-.32,.1-.64,.2-.95,.3-.18,.06-.36,.11-.54,.17,0,0,0,0,0,0-.34,.11-.69,.22-1.03,.32-.67,.21-1.35,.41-2.02,.6-.41,.11-.83,.22-1.24,.33h0s-.07,.02-.12,.03c0,0-.01,0-.02,0-.37,.1-1.12,.29-1.31,.34-.45,.12-.91,.23-1.36,.34h0c-.3,.07-.59,.14-.89,.21h0s-.09,.02-.13,.03c.49-1.76,1.22-3.56,1.55-4.01,.15-.21,.15-.44,.06-.66,0,0,0,0,0,0,.02,0,.04,0,.05-.01,.02,0,.04-.01,.07-.02,.01,0,.03,0,.04-.02,.02,0,.04-.02,.06-.03,0,0,.02,0,.03-.01h0c.16-.09,.34-.25,.73-.55,.73-.55,2.08-.88,2.08-.13,0,.31,.56-.4-.26-.87-.82-.47-3.09-.35-4.11,.23-.03,.02-.05,.03-.08,.05h0s0,0,0,0c-.22,.14-.35,.26-.42,.38-.74,.08-.09,.02-.67,3.02-.26,1.33-.55,2.28-.83,3.02-1.81,.39-3.62,.73-5.45,1.03-.09,.01-.18,.03-.27,.04-.54,.09-1.08,.17-1.62,.26-.02-.04-.04-.07-.08-.1-.02-.01-.04-.02-.06-.04-.03-.02-.05-.04-.09-.06-.03-.01-.06-.02-.09-.03-.03-.01-.07-.03-.1-.03,0,0-.02,0-.02,0,.32-.78,.52-1.73,1.19-2.17-.01-.12-.03-.28-.04-.46h0c0-.07,0-.15-.01-.23,0,0,0,0,0,0,0-.08,0-.17,0-.26h0c0-.1,0-.2,.02-.3h0c.05-.52,.18-1.17,.53-1.94,.41-.91,1.1-1.98,2.27-3.22,.11-.23,.11-.47,.03-.69,0,0,0,0,0,0,0-.02-.02-.04-.03-.06-.01-.03-.02-.05-.03-.07,.04-.07,.09-.14,.14-.19,.42-.5,1.01-.58,1.32-.68-.37-.19-.39-.37-.39-.37,0,0,.83-1.5,2.42-1.58-1.89-.68-4.02,.75-4.74,1.67h0s-.07,.1-.11,.14c0,0,0,0,0,0,0,0-.02,0-.02,0-.06-.01-.11-.02-.17-.03-.02,0-.03,0-.05,0-.04,0-.08,0-.11,0-.02,0-.03,0-.05,0-.03,0-.07,.01-.1,.02-.01,0-.03,0-.04,.01-.04,.01-.08,.03-.11,.06-.56,.43-.66,2.32-2.04,4.47-1.38,2.14-1.66,3.22-2.25,4.6-.04,.08-.07,.17-.11,.25-.02,.04-.03,.08-.05,.12-.02,.04-.04,.09-.05,.13-.02,.05-.04,.1-.05,.14-.01,.04-.03,.07-.04,.11-.02,.05-.03,.1-.05,.15-.01,.03-.02,.07-.03,.1-.02,.05-.03,.1-.04,.14,0,.03-.02,.07-.03,.1-.01,.05-.02,.09-.03,.13,0,.03-.01,.07-.02,.1,0,.04-.01,.08-.01,.12,0,.03,0,.06,0,.09,0,.04,0,.08,0,.11,0,.02,0,.04,0,.06,0,0,0,0,0,0,0,.08,.02,.15,.05,.22-.19,.03-.37,.06-.56,.09,0,0,0,0,0,0-.24,.04-.47,.07-.71,.11-.12,.02-.24,.04-.36,.06,0-.23-.04-.48-.13-.77-.32-1.02,.06-1.02-.02-1.58-.08-.56-.66-.37,.03-2.68,.69-2.31,1.39-5.88,2.39-6.91,.09-.12,0-.17-.18-.2,.05-.07,.1-.15,.15-.22h0c.46-.63,.97-1.09,1.63-1.22-.17-.07,.12-.95,1.5-1.28-1-.38-3.84,.46-5.13,2.26Zm7,12.92h0c.37-.07,.73-.15,1.1-.23,0,0,0,0,0,0,.09-.02,.19-.04,.28-.06h0c.39-.08,.78-.17,1.18-.26,0,0,0,0,0,0,.22-.05,.44-.1,.65-.15,0,0,0,0,0,0,.4-.09,.8-.18,1.2-.28-.12,.28-.22,.55-.3,.82-.03,.09-.06,.19-.09,.3,0,.03-.02,.05-.03,.08-.03,.1-.07,.2-.1,.3-.03,.1-.07,.19-.1,.29,0,0,0,.02,0,.03-.03,.1-.06,.2-.09,.3,0,.03-.01,.05-.02,.08-.02,.08-.04,.16-.06,.23,0,.03-.01,.05-.02,.08-.04,.2-.06,.38-.05,.54,0,.02,0,.04,0,.05,0,.06,.02,.12,.04,.17,0,.01,0,.02,0,.03,0,0,0,0,0,0,.03,.08,.07,.15,.13,.2,0,.04-.02,.07-.03,.11,0,.04,0,.07,0,.11,0,0,0,0,0,0,0,.16,.05,.32,.14,.46h0c.03,.06,.07,.11,.12,.16,.01,.02,.03,.04,.05,.05,.03,.04,.07,.07,.1,.11,.02,.02,.04,.04,.06,.06,.04,.04,.08,.07,.12,.11,.02,.02,.04,.04,.06,.05,.05,.04,.11,.08,.16,.12,.01,0,.03,.02,.04,.03,.07,.05,.15,.1,.22,.15,.02,.01,.04,.03,.07,.04,.06,.04,.12,.07,.18,.11,.03,.02,.06,.04,.09,.06,.06,.03,.11,.07,.17,.1,.03,.02,.07,.04,.1,.06,.06,.04,.12,.07,.18,.11,.2,.12,.41,.24,.62,.36,.02,.01,.05,.03,.07,.04,.07,.04,.14,.08,.2,.12,.03,.02,.06,.04,.09,.06,.07,.04,.13,.08,.2,.12,.03,.02,.05,.03,.08,.05,.09,.06,.18,.12,.27,.18,.09,.07,.18,.13,.27,.19,0,0,.01,0,.02,.01,.08,.06,.15,.11,.21,.17,.02,.02,.04,.03,.06,.05,.05,.04,.1,.08,.15,.13,.03,.02,.05,.05,.08,.07,.03,.03,.07,.06,.1,.09,.03,.03,.06,.06,.09,.09,.02,.02,.04,.05,.06,.07,.03,.03,.06,.07,.09,.1,.01,.02,.03,.03,.04,.05,.03,.04,.05,.07,.08,.11,0,.01,.02,.03,.03,.04,.03,.04,.05,.07,.07,.11,.09,.16,.16,.3,.2,.45h0c.03,.08,.05,.17,.07,.25-.08,.04-.16,.07-.21,.11-.27,.22-.23,.54-.18,1.03-.19-.03-.39-.05-.59-.07,0-.02,0-.04,.01-.06,0,0,0-.01,0-.02,.02-.1,.04-.19,.05-.27h0c.04-.31,.03-.53-.06-.62-.1-.1-.28-.25-.55-.37,.05-.21-.19-.44-.71-.82-.01,0-.02-.02-.04-.03h0c-.87-.63-3.11-2.39-5.34-3.85-1.22-.8-2.01-1.58-2.54-2.23,.15-.03,.29-.05,.44-.08h0c.31-.06,.62-.12,.94-.18h0s.05,0,.07-.01Zm8.42,26.04s-.04,.06-.06,.1c-.01,.02-.03,.04-.04,.05-.02,.03-.04,.06-.07,.09-.02,.02-.04,.05-.06,.07-.02,.03-.04,.06-.07,.08-.03,.03-.06,.06-.09,.1-.02,.02-.04,.04-.06,.06-.04,.04-.09,.08-.13,.13-.01,.01-.03,.03-.04,.04-.06,.05-.12,.1-.18,.16,0,0-.01,.01-.02,.02-.14,.12-.31,.24-.5,.37-.09,.06-.18,.12-.27,.18-.03,.02-.05,.03-.08,.05-.06,.04-.13,.08-.2,.12-.03,.02-.06,.04-.09,.06-.07,.04-.14,.08-.2,.12-.03,.01-.05,.03-.08,.04-.21,.12-.42,.24-.62,.36-.06,.04-.12,.07-.18,.11-.03,.02-.07,.04-.1,.06-.06,.03-.11,.07-.17,.1-.03,.02-.06,.04-.09,.06-.06,.04-.12,.07-.18,.11-.02,.01-.05,.03-.07,.04-.08,.05-.15,.1-.22,.15-.01,.01-.03,.02-.04,.03-.06,.04-.11,.08-.16,.12-.02,.02-.04,.03-.06,.05-.04,.03-.08,.07-.12,.11-.02,.02-.04,.04-.06,.06-.04,.04-.07,.07-.1,.11-.02,.02-.03,.03-.05,.05-.04,.05-.08,.11-.12,.16h0c-.09,.15-.14,.3-.14,.46,0,0,0,0,0,0,0,.03,0,.07,0,.11,0,.04,.02,.08,.03,.11-.06,.06-.1,.13-.13,.21,0,0,0,0,0,0,0,0,0,.02,0,.03-.02,.05-.03,.11-.04,.17,0,.02,0,.04,0,.05,0,.16,.01,.35,.05,.54,0,.03,.01,.05,.02,.08,.02,.08,.04,.15,.06,.23,0,.03,.01,.05,.02,.08,.03,.1,.06,.2,.09,.3,0,.01,0,.02,.01,.03,.03,.1,.06,.19,.1,.29,.03,.1,.07,.2,.1,.3,0,.03,.02,.06,.03,.08,.03,.1,.07,.2,.09,.3,.08,.27,.19,.54,.3,.82-.17-.04-.33-.08-.5-.12h0s-.02,0-.03,0c-.06-.01-.11-.03-.17-.04-.35-.08-.7-.16-1.06-.24h0c-.31-.06-.62-.14-.93-.2h0c-.53-.11-1.06-.22-1.59-.32,0,0,0,0,0,0-.2-.04-.39-.08-.59-.12,0,0,0,0,0,0-.33-.06-.67-.13-1-.19,.52-.66,1.31-1.43,2.54-2.23,2.23-1.46,4.47-3.22,5.34-3.85h0s.02-.02,.04-.03c.52-.38,.76-.61,.71-.82,.27-.12,.45-.26,.55-.37,.09-.09,.1-.31,.06-.62h0s0,0,0,0c-.01-.08-.03-.17-.05-.27,0,0,0-.02,0-.03,0-.02,0-.03-.01-.05,.2-.02,.4-.05,.59-.07-.05,.49-.08,.81,.18,1.03,.05,.04,.12,.08,.21,.11-.02,.08-.04,.16-.07,.25h0c-.05,.15-.12,.3-.21,.46Zm-25.8-.22c-.13-.28-.13-.62,0-.9,.13-.29,.41-.53,.72-.53,.16,0,.32,.08,.43,.2h0c.05,.06,.09,.12,.11,.19,0,0,0,.01,0,.02,0,.03,.01,.06,.02,.08,0,.04,0,.07,0,.11,.33-.26,.65-.52,.98-.78,.12-.1,.25-.2,.41-.22,.13-.02,.26,.01,.39,0,.13,0,.27-.07,.3-.2,.33-.06,.68,.07,.9,.32,.03,.03,.06,.04,.09,.04,.24-.02,.65-.77,.76-.94,.04-.06,.08-.11,.12-.17,.32,.13,.58,.22,.73,.3,.49,.46,.94,.29,2.46,.14h0c.07,0,.15-.01,.23-.02,0,0,0,0,0,0,0,0,0,0,0,.01,0,.09,.37,.26,1.14,.45,0,.04-.01,.07-.01,.11,0,0,0,0,0,0h0s.02,.09,.04,.13c-.02,.01-.04,.02-.07,.03,0,0,0,0,0,0-.05,.02-.11,.05-.16,.07-.12,.05-.24,.1-.38,.14-1.31,.43-5.21,1.29-5.63,1.4-.05,.01-.08,.02-.11,.04,0,0,0,0,0,0-.28,.13-.17,.41-.51,.52,0,0-.02,0-.03,0,0,0,0,0,0,0,0,0-.02,0-.03,0-.02,0-.05,.01-.08,.02-.02,0-.03,.01-.05,.02-.03,.01-.07,.03-.11,.04-.02,0-.04,.02-.06,.03-.04,.02-.09,.04-.14,.07-.02,.01-.04,.02-.06,.03-.06,.03-.12,.06-.18,.09-.02,0-.03,.02-.04,.02-.16,.09-.32,.19-.49,.29-.01,0-.02,.02-.04,.03-.07,.05-.14,.09-.2,.14-.02,.02-.05,.03-.07,.05-.05,.04-.11,.08-.16,.12,0,0-.02,.02-.03,.02,0,0,0,0,0,0-.3,.24-.56,.5-.69,.75-.28-.17-.55-.35-.8-.53,.01-.03,.03-.05,.04-.08,.03-.08,.06-.17,.13-.21,.08-.05,.18-.03,.28,0,.19,.04,.38,.09,.58,.13-.12-.55-.46-1.05-.93-1.38,.08-.08,.16-.16,.25-.24Zm0-18.84c-.08-.08-.16-.16-.25-.24,.47-.32,.81-.82,.93-1.38-.19,.04-.38,.09-.58,.13-.09,.02-.2,.04-.28,0-.07-.04-.1-.13-.13-.21-.01-.03-.02-.05-.04-.08,.25-.19,.52-.37,.8-.53,.13,.25,.39,.51,.69,.75,0,0,0,0,0,0,.01,0,.02,.02,.03,.03,.05,.04,.1,.07,.15,.11,.03,.02,.06,.04,.08,.06,.06,.04,.12,.08,.18,.12,.02,.01,.04,.03,.06,.04,.08,.05,.16,.1,.24,.15,0,0,0,0,0,0,.08,.05,.16,.09,.23,.13,.02,.01,.05,.02,.07,.04,.05,.03,.1,.06,.15,.08,.03,.01,.05,.02,.07,.04,.04,.02,.09,.04,.13,.06,.02,.01,.05,.02,.07,.03,.04,.02,.07,.03,.1,.04,.02,0,.04,.01,.06,.02,.03,.01,.05,.02,.08,.02,0,0,.02,0,.03,0,0,0,0,0,0,0,.01,0,.02,0,.03,0,.34,.11,.23,.39,.51,.52,0,0,0,0,0,0,.03,.02,.07,.03,.11,.04,.43,.1,4.32,.97,5.63,1.4,.14,.04,.26,.09,.37,.14,.09,.04,.17,.07,.25,.11-.02,.04-.04,.09-.04,.13h0s0,0,0,0c0,.03,0,.07,.01,.11-.77,.19-1.14,.36-1.14,.45,0,0,0,0,0,.01,0,0,0,0,0,0-1.71-.16-2.18-.36-2.69,.12-.11,.06-.29,.13-.51,.22h0s-.02,0-.02,0c-.06,.02-.12,.05-.19,.08-.04-.06-.08-.11-.12-.17-.12-.16-.52-.92-.76-.94-.03,0-.07,0-.09,.04-.22,.25-.57,.38-.9,.32-.02-.13-.17-.19-.3-.2-.13,0-.26,.03-.39,0-.15-.03-.28-.13-.41-.22-.33-.26-.65-.52-.98-.78,0,.04,0,.07,0,.11,0,.03,0,.06-.02,.08,0,0,0,.02,0,.02-.02,.07-.06,.13-.11,.19h0c-.11,.12-.27,.2-.43,.2-.32,0-.6-.24-.72-.53-.12-.28-.12-.62,0-.9Zm11.37,.81c-1.51-.37-4.59-1.73-5.46-2.27-.87-.54-.65-.35-1.67-.59-.86-.2-1.3-.91-1.44-1.41,0,0,.01,0,.02,0,.22-.09,.45-.18,.68-.26,0,.01,0,.02,.01,.03,0,0,0,0,0,0,.01,.03,.03,.06,.05,.09,0,0,0,0,0,0h0c.16,.24,.52,.51,1.01,.78,0,0,0,0,0,0,.64,.36,1.5,.74,2.37,1.1,0,0,0,0,.01,0,.21,.09,.42,.17,.63,.26,.02,0,.05,.02,.07,.03,.07,.03,.14,.06,.21,.09,.23,.09,.45,.18,.67,.27,.01,0,.03,.01,.04,.02,.1,.04,.2,.08,.29,.12,.16,.06,.31,.13,.47,.19,.07,.03,.15,.06,.22,.09,.08,.04,.17,.07,.25,.1,.08,.03,.16,.07,.24,.1,.07,.03,.15,.06,.22,.09,.08,.03,.17,.07,.25,.1,.08,.03,.15,.06,.22,.1,.12,.05,.25,.11,.37,.16,.08,.03,.16,.07,.24,.1,.07,.03,.14,.06,.2,.09,.07,.03,.13,.06,.2,.09,.07,.03,.13,.06,.2,.09,.06,.03,.13,.06,.19,.09,.06,.03,.12,.06,.18,.08,.07,.03,.14,.07,.2,.1,.24,.12,.46,.23,.64,.33h0c.06,.03,.11,.06,.16,.09-.02,.08-.02,.18,.02,.28-.17,.01-.34,.03-.5,.05-.02-.03-.04-.06-.07-.08h0c-.17-.18-.37-.27-.64-.27-.01,0-.02,0-.03,0-.18-.08-.41-.16-.73-.24Zm-8.54,21.5h0s-.01,0-.02-.01c.14-.5,.59-1.21,1.44-1.41,1.02-.24,.8-.05,1.67-.59,.87-.54,3.95-1.89,5.46-2.27,.32-.08,.55-.16,.73-.24,.01,0,.02,0,.03,0,.28,0,.47-.08,.64-.27,0,0,0,0,0,0,.02-.02,.04-.05,.07-.08,.16,.02,.33,.03,.5,.05,0,0,0,.01,0,.02,0,0,0,0,0,0h0c-.03,.09-.03,.18-.01,.26-.05,.03-.09,.05-.15,.08-.2,.11-.45,.23-.72,.37-.04,.02-.08,.04-.12,.06-.07,.03-.14,.06-.21,.1-.05,.02-.1,.05-.16,.07-.07,.03-.14,.06-.21,.1-.06,.03-.12,.06-.19,.08-.07,.03-.14,.06-.21,.09-.09,.04-.18,.08-.27,.12-.07,.03-.15,.06-.22,.1-.12,.05-.23,.1-.35,.15-.05,.02-.11,.05-.16,.07-.11,.05-.22,.09-.33,.14-.05,.02-.1,.04-.15,.06-.12,.05-.24,.1-.37,.15-.04,.02-.08,.03-.12,.05-.16,.07-.33,.14-.5,.2-.1,.04-.2,.08-.3,.12,0,0-.02,0-.02,0-.33,.14-.68,.28-1.03,.42-.03,.01-.06,.02-.08,.03-.08,.03-.15,.06-.23,.09-.07,.03-.14,.06-.22,.09-.04,.01-.07,.03-.1,.04-.07,.03-.14,.06-.21,.09-.03,.01-.06,.02-.08,.04-.1,.04-.19,.08-.29,.12-.01,0-.03,.01-.04,.02-.09,.04-.17,.08-.26,.11-.02,0-.04,.02-.06,.03-.2,.09-.39,.17-.57,.26,0,0-.02,0-.03,.01-.09,.04-.17,.08-.25,.12,0,0-.02,0-.03,.01-.18,.09-.35,.18-.5,.27,0,0-.01,0-.02,.01-.16,.09-.3,.18-.43,.26,0,0,0,0,0,0h0c-.27,.18-.47,.35-.57,.52h0s0,0,0,0c-.02,.03-.03,.06-.05,.08,0,0,0,0,0,0,0,0,0,.02-.01,.03-.13-.05-.26-.09-.39-.14-.09-.04-.19-.07-.28-.11h0Zm3.91,1.32c-.11-.03-.21-.06-.32-.09,.41-.7,1.35-1.44,3.27-2.22,2.02-.82,5.09-2.29,6.06-2.94,.07-.05,.13-.1,.19-.14,.39-.03,.58-.13,.76-.57,.21,0,.42,0,.63,0,0,0,0,0,0,0-.01,.04-.03,.08-.04,.12,0,0,0,.02,0,.02,0,.03-.02,.06-.02,.09,0,0,0,.01,0,.02,0,.03-.01,.06-.01,.1,0,0,0,0,0,.01,0,.03,0,.07,0,.1h0s.02,.09,.03,.13c0,0,0,.01-.01,.02-.02,.05-.05,.09-.08,.14,0,0,0,0,0,0-.03,.04-.06,.09-.09,.13-.04,.06-.09,.12-.15,.17h0c-.05,.06-.11,.11-.17,.17,0,0-.02,.01-.02,.02-.13,.11-.28,.23-.46,.35-.02,.01-.03,.02-.05,.03-.18,.12-.38,.24-.61,.37-.02,.01-.05,.03-.07,.04-.23,.13-.5,.27-.79,.42-.03,.02-.07,.03-.1,.05-.15,.07-.3,.15-.47,.23-.08,.04-.17,.08-.26,.13-.04,.02-.09,.04-.13,.06,0,0,0,0-.01,0-2.08,1-5.88,2.79-6.31,3.23-.2-.05-.4-.1-.6-.16h0s-.1-.03-.15-.04Zm7.45-1.04c1.29-.97,3.41-2.59,4.63-3.27,.41-.23,.72-.41,.92-.57,0,0,0,0,0,0,.52-.03,.9-.18,1.08-.7,.01-.04,.02-.08,.04-.12,0-.02,.01-.05,.02-.07,0-.04,.02-.09,.02-.13,0-.02,0-.05,.01-.07,0-.02,0-.04,0-.06,.31-.01,.61-.03,.91-.04-.03,.12-.07,.23-.1,.33h0c-.03,.07-.05,.14-.08,.19-.14,.29,.1,.48,.5,.61-.03,.05-.07,.1-.11,.15,0,0-.02,.02-.02,.03-.05,.06-.11,.12-.18,.18,0,0,0,0,0,0-.07,.06-.14,.13-.23,.2-.12,.1-.24,.19-.38,.3h0c-.08,.06-.16,.12-.25,.18-.02,.01-.04,.03-.07,.04-.08,.05-.15,.1-.23,.16-.01,0-.02,.02-.04,.02-.09,.06-.19,.12-.29,.18-.02,.01-.04,.03-.06,.04-.09,.05-.17,.11-.26,.16-.02,0-.03,.02-.05,.03-.11,.06-.21,.13-.32,.19-.01,0-.02,.01-.03,.02-.1,.06-.2,.12-.31,.18-.02,0-.03,.02-.05,.03-.23,.13-.46,.27-.7,.4,0,0-.01,0-.01,0-.77,.43-1.52,.84-2.13,1.18-.04,.02-.08,.04-.12,.06-.04,.02-.07,.04-.1,.06-.08,.04-.15,.09-.23,.13-.14,.08-.28,.16-.42,.24-.04,.02-.07,.04-.11,.07-.11,.06-.22,.13-.33,.2-.04,.02-.08,.05-.12,.07-.15,.09-.29,.18-.44,.27,0,0,0,0,0,0-.15,.09-.29,.18-.43,.27-.04,.02-.07,.05-.11,.07-.11,.07-.21,.14-.32,.21-.04,.03-.08,.05-.12,.08-.12,.08-.24,.17-.35,.25-.01,.01-.03,.02-.04,.03-.12,.09-.24,.19-.35,.28-.03,.02-.06,.05-.09,.07-.08,.07-.16,.14-.24,.21,0,0-.01,0-.01,.01-.31-.06-.62-.12-.93-.17,.87-.68,1.83-1.56,2.6-2.15Zm-1.68-28.67s.01,.01,.02,.02c.07,.07,.15,.13,.23,.2,.03,.03,.06,.05,.09,.08,.11,.09,.22,.18,.35,.27,.02,.02,.05,.03,.07,.05,.1,.08,.21,.15,.31,.22,.05,.03,.09,.06,.14,.1,.09,.06,.18,.12,.28,.19,.05,.03,.09,.06,.14,.09,.13,.09,.27,.17,.4,.26,.03,.02,.06,.04,.09,.06,.11,.07,.23,.14,.34,.21,.05,.03,.11,.06,.16,.1,.1,.06,.19,.11,.29,.17,.05,.03,.1,.06,.15,.08,.14,.08,.28,.16,.41,.23,.07,.04,.15,.08,.23,.13,.03,.02,.06,.03,.09,.05,.05,.03,.11,.06,.16,.09,.07,.04,.14,.08,.21,.11,.04,.02,.08,.04,.12,.07,.12,.07,.24,.13,.37,.2,0,0,0,0,0,0,.1,.06,.21,.11,.31,.17,.03,.02,.06,.03,.09,.05,.06,.03,.12,.07,.19,.1,.05,.03,.11,.06,.16,.09,.06,.03,.12,.07,.18,.1,.08,.04,.16,.09,.24,.13,.05,.03,.1,.05,.14,.08,.06,.04,.12,.07,.19,.11,.04,.02,.07,.04,.11,.06,.12,.07,.24,.14,.35,.2,.03,.02,.06,.03,.09,.05,.06,.04,.13,.08,.19,.11,.03,.02,.07,.04,.1,.06,.21,.12,.41,.25,.61,.37,.04,.02,.07,.04,.11,.07,.06,.04,.11,.07,.17,.11,.04,.02,.07,.05,.11,.07,.09,.06,.17,.11,.25,.17,.04,.03,.08,.05,.12,.08,.05,.03,.09,.06,.13,.09,.05,.03,.09,.06,.14,.1,.17,.12,.33,.24,.46,.35,.08,.07,.16,.13,.23,.2,0,0,0,0,0,0,.07,.06,.12,.12,.17,.18,0,0,.02,.02,.02,.03,.04,.05,.08,.1,.11,.15-.39,.12-.63,.31-.5,.61,.02,.05,.05,.12,.08,.19h0c.03,.09,.07,.2,.1,.33-.3-.02-.6-.03-.91-.04,0-.02,0-.04,0-.06,0-.02,0-.04,0-.07,0-.05-.01-.09-.02-.14,0-.02-.01-.05-.02-.07-.01-.04-.02-.09-.04-.13,0-.01,0-.03-.01-.04h0c-.18-.48-.56-.62-1.06-.65,0,0-.01,0-.02-.01-.05-.04-.11-.08-.17-.12,0,0,0,0,0,0h0c-.19-.13-.44-.27-.74-.44-1.23-.68-3.35-2.3-4.63-3.27-.78-.58-1.73-1.47-2.6-2.15,.31-.06,.62-.12,.93-.17Zm-5.03,1.09c.16,.16,.79,.52,1.63,.95h0c.12,.06,.24,.12,.37,.19,0,0,0,0,0,0,.12,.06,.24,.12,.36,.18,.03,.01,.05,.03,.08,.04,.11,.06,.23,.11,.34,.17,.03,.01,.05,.03,.08,.04,.09,.04,.18,.09,.27,.13,.06,.03,.11,.05,.17,.08,.06,.03,.12,.06,.18,.09,.12,.06,.23,.11,.35,.17,.02,0,.04,.02,.06,.03,1.06,.51,2.11,1.01,2.83,1.36,.16,.08,.31,.15,.46,.22,.04,.02,.08,.04,.12,.06,.14,.07,.27,.14,.39,.2,.02,0,.03,.02,.05,.03,.12,.06,.22,.12,.33,.18,.03,.02,.06,.04,.1,.05,.11,.06,.22,.12,.31,.18,0,0,.01,0,.02,.01,.09,.06,.18,.11,.26,.17,.02,.01,.04,.03,.06,.04,.09,.06,.17,.12,.24,.17,0,0,0,0,0,0,.07,.06,.14,.11,.2,.16,.01,0,.02,.02,.03,.03,.06,.06,.12,.11,.17,.16h0c.06,.06,.1,.12,.15,.17,.03,.04,.06,.09,.09,.13,0,0,0,0,0,0,.03,.05,.05,.09,.08,.14,0,0,0,.01,.01,.02-.02,.04-.03,.08-.03,.13h0s0,.07,0,.1c0,0,0,0,0,.01,0,.03,0,.06,.01,.1,0,0,0,.01,0,.02,0,.03,.01,.06,.02,.1,0,0,0,.02,0,.02,.01,.04,.02,.08,.04,.12,0,0,0,0,0,0-.22,0-.43,0-.63,0-.05-.12-.09-.21-.15-.28h0c-.15-.21-.33-.27-.61-.29-.05-.05-.11-.09-.19-.14-.01,0-.02-.01-.03-.02,0,0,0,0,0,0-1-.66-4.03-2.11-6.03-2.92-1.92-.78-2.86-1.52-3.27-2.22,.11-.03,.21-.06,.32-.09,.19-.05,.39-.11,.58-.16h0c.05-.01,.11-.03,.16-.04Z"/>
  </g>
</svg>