<?xml version="1.0" encoding="UTF-8"?>
<svg id="Layer_2" data-name="Layer 2" xmlns="http://www.w3.org/2000/svg" viewBox="0 0 82.71 61.46">
  <defs>
    <style>
      .cls-1 {
        fill: #808080;
      }
    </style>
  </defs>
  <g id="Layer_1-2" data-name="Layer 1">
    <path class="cls-1" d="M80.15,36.61c-1.68,1.31-4.94,.36-7.54-.17-2.59-.54-4.27-.89-4.15-1.2,.12-.31,.33-.65,.39-1.37s.7-1.04,.94-1.88c.25-.84,.33-1.88-.18-2.48-.51-.6-.81-.75-.86-1.35-.05-.59-.08-.51-.16-1.43-.08-.92-.48-1.15-1.25-1.75-.77-.6-.99-1.22-2.28-3.11-1.29-1.89-2.58-2.93-3.85-3.8-1.27-.88-1.81-.81-2.33-1.95-.52-1.14-1.68-2.21-2.7-3.74-1.01-1.53-2.93-3.98-4.41-5.1-1.49-1.13-1.72-1.26-3.6-2.7-1.88-1.44-3.27-3.56-4.12-4.29-.85-.73-.36,.16-.16,.87s-.06,.31-.06,1.42,.76,2.47,.31,3.75c-.45,1.28-.02,1.47-.57,2.39-.55,.92,.17,1.57,.29,2.61,.12,1.04,.29,1.56-.47,1.59s-1.02,.69-2.44,1.54c-1.42,.85-.29,1.07-1.35,1.3-1.05,.22-.18,.97-1.12,1.18-.94,.21,.02,1.68-.92,1.52-.94-.16-.94,.32-.38,1.56,.56,1.23-.71,1.06-2.26-.48s-5.63-3.49-8.5-5.43c-2.87-1.94-7.95-5.67-14.07-7.95C6.26,3.84,2.24,4.81,.99,5.49c-1.24,.68-1.27,.85-.36,1.45,.91,.6-.09,.93,.9,1.83,.99,.9-.05,.75,.6,1.81,.65,1.06,2.73,1.18,2.83,2.99,.1,1.81,1.71,2.21,3.85,2.58,2.14,.36,1.92,1.23,2.16,2.07,.24,.85,.99,1.99,2.77,2.52,1.78,.54,4.13,.62,5.66,.73,1.53,.1,2.28,.28,2.15,1.07-.13,.8,.76,.84,.3,1.47-.46,.63-.16,.55-.28,1.44-.12,.89-1.36,1.06-1.77,1.28-.41,.22-1.34,.64-2.44,.93-1.09,.29,.28,.44,1.01,.79,.73,.35,.83,1.19,1.63,1.7s1.95,1.19,1.36,1.68c-.59,.5-.78,1.18-1,2.04-.22,.86,.32,.65,.25,1.73-.07,1.08,.3,1.38,1.29,3.12,.99,1.74,.75,1.65-.4,3.32-1.15,1.67-1.5,3.47-1.5,6.63s2.49,6.38,3.55,8.08c1.06,1.69,2.57,1.8,2.57,2.67s.01,1.45,.46,.51c.45-.94,.12-.27,.5,1.05s.48,.02,.71-5.05c.23-5.07-2.78-11.17-3.47-13.31-.69-2.14-.21-3.96,.67-4.58,.88-.62,1.88-1.87,3.89-2.66,2-.8,3.98-2.97,5.38-3.73,1.4-.76,3.16-1.05,4.42-.76,1.26,.29,1.62,.29,.93,.52-.69,.22-1.3,.38-3.27,.36-1.97-.02-1,1.14-2.19,1.35-1.19,.21-1.45,.39-.3,.47,1.15,.08,.7,.36-.81,.69-1.51,.33-3.19,.99-2.29,.86,.9-.13,.8,.74-1,1.43-1.8,.69-1.59,1.94-3.34,2.47-1.75,.54-.33,.41,2.73,.28s5.55-.71,8.85-2.39c3.3-1.68,4.96-1.92,6.33-2.52,1.37-.6,1.31-.19,3.13,1.4,1.82,1.59,4.03,2.22,5.4,2.35,1.37,.13,1.59,.07,1.06,.46-.53,.39-1.15,1.01-2.21,1.82s-1.8,2.45-2.58,4.14c-.78,1.68-.29,2.92,0,3.41,.29,.5,.9,1.15,.7,.43s-.06-.86,.23-.31c.29,.55,.35,.47,.4-.29,.05-.76,0-1.02,.47-1.42s1.04-.65,1.76-.61c.73,.04,.96-.7,1.36-1.2,.4-.5,.32-.86,1.03-.66,.71,.21,.83-.07,1.04-.59,.21-.51,.65-.03,1.03-.44,.38-.41,.2-.74,.46-.61,.26,.13,.39,.13,.66-.1,.28-.23,.28-.48,.55-.33s.55-.23,.52-.69c-.02-.46,.29,.3,.71,.03,.42-.27,.05-1.19,.05-1.19-.15-.32,.43-.16,1.87-.24,1.44-.07,3.12-.9,3.79-1.33,.67-.43,.71-.64,.76,.32,.05,.96,.5,.95,.79,1.48,.29,.53,2.03,.88,3.05,1.09,1.03,.22,1.21,.44,.51-.24s.77-.16,1.38,.08c.61,.24,1.68,.28,.7-.07-.98-.35-1.09-1.01-.09-.7,1,.31,1.59-.45,2.5-.29,.91,.16,1.35,1.3,1.26,.52-.09-.78-.41-.97,.69-.6s.82-.36,.67-.89c-.15-.53,1.3-.15,.85-.69-.45-.54-.6-.27,.88-1.01,1.49-.73,2.57-2.32,2.9-3.23,.33-.92-.83,1.07-2.51,2.39ZM3.91,7.44c1.32,.11,2.63,.33,3.92,.61,1.29,.28,2.57,.62,3.83,1.03,1.26,.41,2.5,.89,3.7,1.47,.3,.14,.59,.3,.89,.46,.29,.17,.58,.33,.86,.5,.56,.36,1.11,.74,1.6,1.19-.58-.32-1.17-.61-1.77-.88-.59-.27-1.2-.52-1.81-.75-1.22-.47-2.45-.9-3.69-1.3-1.24-.41-2.49-.79-3.75-1.17-1.26-.38-2.52-.75-3.78-1.15Zm5.91,4.76c-1.39-.51-2.79-1.02-4.18-1.58,1.47,.27,2.92,.63,4.36,1.04,1.43,.41,2.86,.87,4.25,1.42,.7,.27,1.39,.58,2.07,.92,.65,.34,1.32,.63,2,.91,.68,.27,1.38,.52,2.08,.78,.35,.14,.7,.29,1.03,.49,.08,.05,.16,.1,.24,.16,.07,.06,.15,.11,.22,.18,.07,.07,.14,.13,.2,.2,.06,.07,.12,.15,.17,.22-.27-.26-.59-.45-.93-.59-.34-.14-.69-.24-1.05-.33l-1.08-.27c-.36-.09-.73-.2-1.08-.31-.72-.23-1.43-.51-2.11-.83-.34-.15-.66-.31-1.01-.44-.17-.07-.34-.15-.51-.21l-.51-.2c-1.37-.54-2.77-1.04-4.16-1.56Zm9.92,7.62l-.92-.1c-.31-.04-.62-.07-.94-.12-.31-.05-.62-.09-.93-.16-.15-.03-.31-.06-.46-.09l-.46-.11c-.61-.15-1.22-.33-1.81-.55-.15-.06-.29-.12-.44-.18-.14-.06-.29-.13-.43-.2-.28-.14-.56-.29-.81-.49,.58,.24,1.18,.39,1.78,.53,.6,.14,1.21,.24,1.81,.34,.61,.09,1.22,.16,1.83,.23l.92,.09,.93,.09c1.24,.14,2.49,.35,3.7,.69,.61,.17,1.2,.38,1.78,.63,.58,.25,1.13,.54,1.67,.86-.6-.17-1.19-.37-1.79-.53-.59-.16-1.2-.29-1.8-.41-1.21-.23-2.43-.39-3.65-.53Zm2.14,8.97c-.2,.05-.4,.09-.61,.12-.2,.03-.41,.06-.62,.07,.75-.34,1.49-.68,2.17-1.07,.34-.2,.67-.4,.97-.64,.07-.05,.17-.14,.27-.2,.1-.07,.2-.12,.3-.17,.2-.1,.41-.18,.61-.25,.21-.06,.41-.12,.62-.16,.21-.04,.41-.08,.62-.11,.41-.06,.82-.1,1.22-.14,.4-.04,.81-.07,1.21-.11,.4-.04,.8-.1,1.2-.2-.17,.13-.35,.23-.54,.32-.19,.09-.38,.16-.58,.23-.39,.13-.8,.23-1.19,.32-.8,.18-1.6,.31-2.33,.54-.18,.06-.36,.12-.52,.2-.08,.04-.16,.08-.24,.12-.04,.02-.07,.05-.11,.07l-.12,.08c-.36,.25-.74,.44-1.13,.6-.39,.16-.79,.28-1.19,.37Zm2.2,25.07c.31,.63,.69,1.21,1.05,1.85-.58-.44-1.1-.95-1.53-1.55l-.16-.22c-.05-.07-.1-.15-.15-.23-.1-.15-.19-.31-.29-.47-.17-.32-.35-.64-.48-.98-.29-.67-.51-1.37-.64-2.08-.13-.71-.2-1.45-.11-2.17,.21,.69,.43,1.36,.66,2.02,.23,.66,.48,1.31,.76,1.95,.07,.16,.13,.32,.21,.48l.22,.47c.16,.31,.3,.63,.47,.93Zm6.82-26.42c-.35,.2-.69,.4-1.04,.59-.7,.38-1.4,.76-2.11,1.12-.71,.35-1.44,.68-2.18,.99-.74,.3-1.49,.59-2.27,.81,.65-.49,1.33-.91,2.02-1.32,.69-.4,1.4-.78,2.11-1.13,.72-.35,1.44-.69,2.19-.98,.37-.15,.75-.28,1.14-.4l.57-.18c.19-.06,.38-.13,.57-.2-.29,.28-.65,.5-.99,.71Zm12.52-9.75c-.12,0-.24-.03-.36-.06-.06-.01-.12-.03-.18-.05l-.18-.06c-.23-.09-.46-.21-.65-.4-.05-.05-.09-.1-.13-.15-.04-.06-.08-.11-.11-.18-.03-.06-.05-.13-.06-.2,0-.07,0-.14,.03-.2,.06,.12,.15,.18,.24,.24,.02,.01,.04,.03,.07,.04,.02,.01,.05,.03,.07,.04,.05,.02,.09,.05,.14,.07,.19,.09,.4,.16,.6,.24,.1,.04,.21,.08,.31,.12,.11,.04,.21,.09,.32,.14,.21,.1,.43,.2,.64,.36-.25,.06-.5,.08-.74,.05Zm1.46-1.14c-.27-.07-.53-.18-.77-.32-.24-.14-.46-.32-.65-.52-.19-.2-.36-.44-.45-.71,.26,.13,.49,.25,.71,.38,.22,.13,.44,.26,.66,.39,.22,.13,.43,.26,.66,.4,.22,.14,.44,.28,.67,.46-.29,.03-.57,0-.84-.07Zm5.36-.36c-.11-.06-.22-.12-.34-.16-.23-.08-.48-.13-.73-.19-.25-.05-.5-.11-.76-.17l-.38-.1c-.12-.03-.26-.08-.38-.11-.51-.17-1-.41-1.44-.72-.22-.16-.43-.33-.62-.52-.19-.19-.36-.4-.5-.63,.22,.15,.44,.29,.66,.42,.22,.13,.45,.25,.67,.36,.45,.22,.92,.41,1.39,.57l.74,.23c.25,.08,.5,.16,.74,.26,.25,.1,.5,.2,.73,.36,.12,.08,.22,.18,.31,.28,.09,.1,.16,.21,.24,.32-.11-.07-.22-.14-.33-.21Zm1.01-2.12c-.26-.18-.54-.33-.83-.48-.57-.29-1.16-.57-1.75-.86-.29-.15-.59-.3-.88-.46-.29-.16-.57-.33-.85-.52-.28-.18-.55-.38-.8-.59-.13-.11-.25-.22-.37-.34-.12-.12-.23-.24-.32-.39,.07,.05,.13,.1,.2,.14,.07,.04,.14,.09,.21,.13,.14,.08,.28,.16,.43,.24,.29,.15,.58,.3,.87,.45,.29,.15,.58,.29,.87,.43,.29,.14,.59,.28,.88,.43,.59,.29,1.17,.6,1.73,.98,.28,.19,.55,.4,.78,.65,.23,.25,.43,.53,.58,.82-.25-.22-.49-.44-.75-.62Zm.81-1.11c-.24-.24-.5-.45-.78-.63-.28-.18-.58-.34-.88-.51-.3-.17-.61-.34-.91-.52-.61-.37-1.17-.8-1.69-1.27-.52-.47-1.01-.98-1.44-1.54,.58,.4,1.14,.81,1.7,1.21,.56,.4,1.13,.79,1.71,1.14l.89,.54c.3,.18,.6,.37,.88,.61,.28,.23,.53,.51,.73,.81,.2,.3,.37,.61,.5,.93-.24-.26-.46-.53-.71-.76Z"/>
  </g>
</svg>