<?xml version="1.0" encoding="UTF-8"?>
<svg id="Layer_2" data-name="Layer 2" xmlns="http://www.w3.org/2000/svg" viewBox="0 0 66.57 44.37">
  <defs>
    <style>
      .cls-1 {
        fill: #808080;
      }
    </style>
  </defs>
  <g id="Layer_1-2" data-name="Layer 1">
    <path class="cls-1" d="M66.56,.19s-.01,.03-.02,.04c-.41,.9-.88,1.77-1.31,2.66-.78,1.61-1.54,3.22-2.28,4.85-.63,1.38-1.27,2.78-1.74,4.23-.29,.88-.29,1.8-.27,2.72,.05,2.21,.49,4.47,1.65,6.38,.05,.09,0,.2-.1,.21-.15,.02-.3,0-.45-.01-.82-.1-1.58-.51-2.2-1.03-1.24-1.04-2.03-2.54-2.59-4.04-.06,.07-.13,.14-.18,.2-.22,.27-.44,.54-.67,.81-.36,.42-3.09,2.81-5.96,5.21,.35,.09,.73,.03,1.06-.14-.2,.51-.68,.95-1.15,1.22-.57,.33-1.14,.44-1.7,.4-2.04,1.67-3.89,3.12-4.72,3.63-1.18,.24-2.33,.63-3.41,1.15-.8,.39-1.56,.82-2.3,1.31-.02,.01,0,.04,.02,.03,1.34-.8,2.8-1.35,4.31-1.73,.48-.12,.97-.22,1.45-.31,.09,.07,.18,.15,.26,.22,.26,.24,.52,.5,.76,.76,.49,.54,.92,1.12,1.31,1.73,1.43,2.21,2.34,4.69,3.49,7.04,.58,1.18,1.23,2.33,2.03,3.36,.4,.52,.85,.99,1.32,1.45,.44,.43,.92,.88,1.12,1.48,.02,.06,.01,.11-.01,.15,0,.01,0,.02,0,.04-.03,.13-.17,.19-.29,.19-.09,0-.18-.02-.26-.04-.06,0-.12,0-.18,0-.01,0-.02,0-.03,0-.28-.01-.55-.03-.82-.07-.43-.07-.86-.17-1.28-.29-.82-.22-1.62-.51-2.39-.86-1.38-.63-2.68-1.47-3.82-2.48-1.16-1.03-2.13-2.25-3.06-3.49-.95-1.26-1.86-2.55-2.96-3.69-.54-.56-1.12-1.08-1.74-1.55-.08-.06-.16-.12-.24-.18-.67-.33-1.44-.47-2.16-.51-1.13-.06-2.26,.1-3.39,.18-1.12,.08-2.25,.1-3.38,.06-.74-.03-1.47-.08-2.21-.15-.55-.06-1.1-.14-1.64-.23-1.26-.21-2.51-.49-3.74-.83-1.22-.34-2.43-.71-3.68-.88-.44-.06-.89-.1-1.34-.1-2.92-.55-8.19-2.05-9.5-3.74-.2-.26-.39-.53-.54-.82-.08-.14-.15-.28-.21-.43-.02-.05-.04-.1-.06-.15,.05-.03,.11-.06,.16-.08,.41-.19,.85-.32,1.3-.39,.93-.14,1.87,0,2.74,.36,.04,.02,.06-.04,.03-.06-.83-.51-1.84-.7-2.8-.61-.48,.04-.96,.15-1.41,.33-.13,.05-.25,.11-.38,.17-1.65-.51-3.14-1.53-4.2-2.9-.31-.4-.64-.85-.74-1.36-.09-.44,.05-.88,.35-1.21,.28-.31,.75-.59,1.13-.77,5.67-2.65,18.46-1.23,22.04-1.15h0c1.42,0,2.62-.13,3.72-.48,.45-.35,.87-.76,1.14-1.01,.85-.79,1.38-1.78,1.93-2.79,1.51-2.79,3.34-6,6.47-7.21,.76-.29,1.58-.53,2.4-.65,.42-.06,1.1-.15,1.48,.04-.54,.88-1.61,1.47-2.17,2.42-.67,1.16-.88,2.79-.97,4.11-.08,1.1-.14,2.36,.41,3.36,.22,.39,.5,.71,.81,.99,2.25-.09,4.49-.33,6.72-.68,.52-.08,1.04-.17,1.56-.27,.3-.21,.56-.49,.77-.76,.36-.47,.62-1,.93-1.51,.49-.78,1.25-1.7,2.28-1.63,.09,0,.12,.12,.07,.18-.32,.39-.47,.96-.44,1.46,.01,.24,.05,.49,.12,.72,.06,.23,.19,.44,.25,.66,1.8-.46,3.58-1.01,5.33-1.65,.18-.4,.38-.8,.58-1.2,1.01-2,2.19-3.94,3.56-5.71,1.55-1.99,3.48-3.99,5.92-4.83,.11-.04,.22,.07,.17,.18ZM16.67,29.57c-.12-.01-.25-.02-.37-.03-.04,.03-.08,.07-.12,.1-.2,.17-.41,.35-.61,.52-.4,.34-.8,.68-1.19,1.04-.76,.71-1.46,1.5-1.91,2.44-.19,.41-.38,.88-.45,1.34-.03,.07-.04,.15-.02,.23,0,.02,0,.04,0,.06,0,.05,.03,.08,.06,.09,.03,.05,.07,.1,.12,.13,.33,.23,.72,0,.97-.23,.66-.58,1.38-1.08,2.19-1.44,1.59-.7,3.33-.94,4.92-1.64,.41-.18,.8-.38,1.17-.64,.27-.19,.55-.4,.77-.65-.61-.16-1.23-.33-1.84-.5-1.22-.34-2.45-.67-3.71-.81Z"/>
  </g>
</svg>