<?xml version="1.0" encoding="UTF-8"?>
<svg id="Layer_2" data-name="Layer 2" xmlns="http://www.w3.org/2000/svg" viewBox="0 0 83.56 40.62">
  <defs>
    <style>
      .cls-1 {
        fill: #808080;
      }
    </style>
  </defs>
  <g id="Layer_1-2" data-name="Layer 1">
    <path class="cls-1" d="M10.27,26.45c.02,.14-.07,.27-.2,.29-3.75,.68-7.31,3.1-9.42,6.17,.53,1.44,1.48,3.18,3.21,4.89,1.49-3.7,3.87-7.16,7.27-8.91,.13-.06,.28-.01,.34,.11,.06,.12,.01,.28-.11,.34-3.34,1.71-5.66,5.16-7.11,8.83,.51,.47,1.08,.93,1.72,1.39,0,0,.08,.05,.22,.13,1.03-3.1,2.98-6.14,5.36-8.02,.11-.09,.27-.07,.36,.04,.09,.11,.07,.27-.04,.36-2.33,1.85-4.24,4.83-5.22,7.86,.59,.27,1.51,.61,2.59,.68,.61-2.46,1.61-4.76,3.76-6.52,.11-.09,.27-.07,.36,.04,.09,.11,.07,.27-.04,.36-2,1.63-2.97,3.8-3.56,6.13,1.28-.03,2.72-.47,4.06-1.81l5.43-5.11s.26-1.46-1.44-3.13c-1.7-1.67-1.78-5.13-1.78-5.13,0,0,.56,4.3,2.7,5.81,0,0,.99,.88,.87,2.38,0,0,4.36-.38,7.3-1.6-.42,.18-2.08,.98-2.08,2.1,0,0-.51,6.23,5.64,5.57,0,0,7.66-.97,13.13-6.84l8.86-2.07s1.23-.65,1.08-1.53c0,0,.37,1.09-.95,1.83,0,0-1.08,1.71,.92,3.12,0,0,2.37,2.2,5.18,2.04,0,0-2.67,.58-5.2-1.62,0,0,1.1,5.67,6.16,3.26,0,0,4.04-2.93,5.08-7.62,0,0,8.81-3.8,9.9-5.34,0,0,4.55-2.24,6.1-5.5,1.54-3.27,3.33-2.33,2.71-5.95,0,0-.22-2.56-.55-2.09-.32,.45-1.2,1.05-1.27,1.09,.06-.07,.9-1.38,1.14-1.72,0,0-.96-2.84-4.11-3.71-3.13-.87-3.59-1.48-5.29-1.78-.85,.81-3.96,4.13-2.15,7.95,0,0,1.57,3.89,3.32,6.12,1.75,2.23,1.18,3.87-.87,3.45,0,0,1.94-.06,1.56-1.39-.01-.04-.02-.08-.04-.12-.54-1.45-3.2-4.72-4.1-7.48,0,0-1.55-3.51-.36-5.78,.74-1.42,1.53-2.38,2.01-2.9-2.76-.77-11.6-4.02-14.06-3.19,0,0-7.37-2.99-9.23-1.51,0,0,3.11,.11,5.85,1.89-.15-.08-4.73-2.52-7.75-1.44,0,0-.81,.4-1.07,1,0,0,2.12-.58,5.3,.97-.32-.11-4.32-1.46-6.15-.57,0,0-.69,.61-.9,1.25,0,0,2.57-.5,3.5,.15,0,0-2.84-.29-4,.3,0,0-1.29,.88-1.59,1.77,0,0-1.4,4.12,6.12,7.08,0,0,6.55,2,4.51,4.89,.02-.05,.54-1.62-.93-2.65-1.49-1.05-5.15-2.25-5.15-2.25,0,0-5.04-1.63-5.25-5.84l.06-1.13s-2.44,2.05-5.61,2.33-7.37-.64-8.17,.5c0,0-1.08-.19-1.76,.78,0,0-1.18-.15-1.45,.73,0,0-1.23-.02-1.32,.74,0,0-1.09,.03-1.13,.71,0,0-1.38,.2-1.26,.92,0,0-1.16,.54-.96,1.71,0,0-.77,3.22,1.26,6.03,0,0,2.67-1.1,3.28-2.43-.02,.08-.6,2.08-6.01,3.79,0,0,2.28,3.19,2.2,6.21,0,0-.62-3.65-2.53-6.11,0,0-.56-.14-1.82,.38-1.26,.52-2.97,.44-2.97,.44,0,0-11.59-2.56-13.48,4.89,1.17-.76,2.33-1.33,3.56-1.78,2-.74,4.15-1.15,6.73-1.6,.14-.02,.27,.07,.29,.21,.02,.14-.07,.27-.21,.29-4.28,.73-7.31,1.35-10.52,3.59-.07,.42-.11,.87-.11,1.34,0,0-.07,1.14,.44,2.81,2.22-3.03,5.78-5.4,9.53-6.08,.14-.03,.27,.07,.29,.2ZM73.44,9.35c-.17-.52,.29-1.06,.63-1.41,.28-.29,.43-.63,.79-.84,.46-.27,1.01-.21,1.51-.08,.69,.17,1.08,1.06,1.1,1.62,.02,.95-.61,1.67-1.6,1.84-.88,.15-2.12-.18-2.43-1.13Zm-8.69-1.22c-1.42,5.59,2.6,10.09,2.97,10.49-6.12-5.06-2.97-10.49-2.97-10.49Zm10.08,.05c.14-.17,.33-.36,.57-.37,.15,0,.44,0,.57,.03,.32,.08,.55,.55,.56,.85,.02,1.09-1.46,1.29-2.09,.57-.32-.36,.17-.79,.4-1.08Z"/>
  </g>
</svg>