<?xml version="1.0" encoding="UTF-8"?>
<svg id="Layer_2" data-name="Layer 2" xmlns="http://www.w3.org/2000/svg" viewBox="0 0 101.87 49.75">
  <defs>
    <style>
      .cls-1 {
        fill: #808080;
      }
    </style>
  </defs>
  <g id="Layer_1-2" data-name="Layer 1">
    <path class="cls-1" d="M15.81,11.51c0,.73-.63,1.32-1.42,1.32s-1.42-.59-1.42-1.32,.63-1.32,1.42-1.32,1.42,.59,1.42,1.32Zm81.11,23.36c-.23,.69-1.05,1.25-.72,2.13,.27,.73,1.35,.63,1.67,1.32,.33,.7-.03,1.66,.16,2.41,.21,.83,1.19,1.11,1.11,2.04-.04,.5-.42,.74-.57,1.2-.12,.36-.2,.97-.11,1.36,.1,.42,.51,.68,.44,1.16-.07,.43-.44,.59-.76,.83-.24,.18-.45,.31-.61,.57-.17,.29-.13,.6-.48,.76-.96,.44-2.25-.56-3.07-.99-.99-.52-2.03-1.06-2.99-1.59-2.85-1.58-5.58-3.37-8.35-5.07-3.16-1.94-6.59-3.54-10.35-3.1-2.05,.24-3.91,1.19-5.83,1.88-5.76,2.07-11.51,2.02-17.51,1.88-.64-.01-4.19-.72-4.41-.5-.68,.66,.2,1.53,.42,2.22,.14,.46,.16,.77,.48,1.12,.34,.37,.79,.58,1.05,1.02,.29,.49,.61,.58,.98,.96,.33,.33,.55,.76,.92,1.08,.35,.31,1.41,1.2,1.08,1.66-.31,.43-1.29,.36-1.76,.44-.99,.16-2.07,.09-3.07-.02-.91-.1-1.84-.3-2.76-.57-1.69-.51-3.6-.99-5.13-1.9-1.04-.62-1.97-1.41-2.9-2.19-1.66-.79-3.19-2.97-4.5-3.48-1.32-1.13-2.42-2.17-3.22-2.96-.15-.12-.22-.18-.22-.18C2.8,33.3,.82,20.31,.82,20.31c2.86,.58,4.71-.36,4.71-.36C2.03,19.24,0,17.83,0,17.83-.17,12.17,13.41,4.02,13.41,4.02,29.07-4,43.8,1.31,54.62,8.3c.43,.28,4-1.65,4.64-1.85,1.23-.38,4.39-1.3,5.27,.16,.29,.48,.27,.94,.87,1.18,.55,.21,1.28-.02,1.8,.36,.51,.37,.35,.92,.67,1.37,.71,1.01,1.88,.24,2.33,1.67,.16,.5,.19,.83,.72,1.15,.46,.27,.98,.23,1.33,.72,.42,.59,.23,1.04,.99,1.33,.65,.25,1.11,.14,1.47,.87,.39,.78,.29,.86,1.07,1.36,1.94,1.25-.77,2.21-1.7,2.7-1.28,.67-2.72,1.04-4.03,1.69,.48,.45,.88,.84,1.22,1.13,5.32,4.73,7.67,6.2,13.34,2.73,2.8-1.71,6.27-2.31,9.48-2.68,1.24-.15,2.49-.22,3.74-.29,1.15-.07,4.15-.24,4.02,1.56-.05,.73-.86,.65-1.22,1.14-.53,.71,.21,1.56-.12,2.29-.37,.8-1.19,1.26-1.71,1.93-.59,.77-.19,1.48-.4,2.33-.21,.86-1.38,.76-1.77,1.55-.36,.73,.25,1.12,.33,1.73,.02,.14,0,.28-.05,.45ZM17.1,11.51c0-1.45-1.21-2.63-2.7-2.63s-2.7,1.18-2.7,2.63,1.21,2.63,2.7,2.63,2.7-1.18,2.7-2.63Z"/>
  </g>
</svg>