<?xml version="1.0" encoding="UTF-8"?>
<svg id="Layer_2" data-name="Layer 2" xmlns="http://www.w3.org/2000/svg" viewBox="0 0 54.73 26.07">
  <defs>
    <style>
      .cls-1 {
        fill: #808080;
        fill-rule: evenodd;
      }
    </style>
  </defs>
  <g id="Layer_1-2" data-name="Layer 1">
    <path class="cls-1" d="M0,0S5.77,1.06,7.8,1.65c2.03,.59,7.98,2.99,10.01,3.41,2.03,.41,3.23,.3,3.59,.57s.71,.93,.75,.28c.04-.65-.51-1.02-.45-1.3,.06-.28,2.46,.43,2.82-.16,.35-.59,.62-.72,.78-.61,.16,.11,.67,.43,.98,.33,.32-.11,1.77-.99,3.17-.81,1.4,.18,5.75,.33,6.01-.32,.26-.65-.83-1.16-.83-1.16,0,0,1.38-.22,2.13-.28s1.26-.89,1.62-.91c.35-.02,1.3,.65,1.3,.65,0,0,.2-.85,.49-.85s.71,1.36,1.69,1.73,1.77,1.08,2.21,.87c.43-.22,.59-.85,1-.75,.41,.1,.85,1.65,1.36,2.13s4.88,3.07,5.71,4.33c.83,1.26,3.62,4.53,2.21,8.55-1.42,4.02-7.92,8.71-14.3,8.71s-12.25-.51-17.37-5.04c0,0-2.97-1.6-3.29-4.2,0,0-.06-.35,.22-.39,.29-.04,2.45-.03,3.11-.33,0,0,.17-.18,.13-.49,0,0-.76,.42-1.35,.45,0,0,.77-.35,.77-.68,0,0-1,.67-1.53,.52,0,0,.98-.5,.91-.92,0,0-1.09,.61-1.75,.34,0,0,1.1-.29,1.09-.83,0,0-1.07,.4-1.67,.03,0,0,.89,.03,1.06-.37,0,0-1.38,.27-1.99-.17,0,0,.98,.05,1.47-.4,0,0-1.19-.07-1.59-.36,0,0,.81,.07,1.17-.11,0,0-1.15-.08-1.7-.73,0,0,.85,.14,1.24,0,0,0-.86-.62-1.13-.91,0,0,.53,.23,.98,.14,0,0-1.56-.73-1.74-1.14,0,0,.86,.5,1.5,.51,0,0-1.13-1.37-1.4-1.79,0,0,.75,.74,1.49,.98,0,0-.97-1.01-.98-1.4,0,0,1.14,.22,1.63,.07,0,0-.56-.53-1.73-1.08-1.17-.55-7.29-3.52-8.07-3.7-.78-.19-4.77-2.31-6.42-2.67C1.42,1.03,0,0,0,0H0Z"/>
  </g>
</svg>