<?xml version="1.0" encoding="UTF-8"?>
<svg id="Layer_2" data-name="Layer 2" xmlns="http://www.w3.org/2000/svg" viewBox="0 0 85.91 53.09">
  <defs>
    <style>
      .cls-1 {
        fill: #808080;
      }
    </style>
  </defs>
  <g id="Layer_1-2" data-name="Layer 1">
    <path class="cls-1" d="M84.19,18.05c-.35-1.23-.74-3.62-1.65-4.58-.45-.47-.92-.6-1.38-.52-1.36-3.1-3.72-7.7-5.48-7.25-2.55-2.09-7.66-5.94-9.43-4.83-1.54-.49-3.67-.46-6.78-.81-1.39-.16-2.29-.04-2.82,.26-3.21-.54-6.71,.78-8.66,1.1-.93,.15-1.76,.37-2.35,.62-3.06-1.66-8.7,0-23.68,2.36-3.1,.49-5.69,1.07-7.85,1.7-.29-.38-.74-.63-1.26-.63-.87,0-1.57,.7-1.57,1.56-7.14,2.69-7.53,5.75-5.9,5.88,1.34,.11,5.35,1.13,9.52,1.77-3.07,2.37-9.5,7.82-12.83,14.11-4.47,8.46-.64,13.48,1.56,14.91,.04,.03,.08,.05,.12,.08,0,0,0-.01,0-.02-2.22-1.76-5.34-6.67-1.14-14.61,3.45-6.52,10.22-12.12,13.14-14.35,.99,.14,1.97,.25,2.93,.32-2.18,3.42-7.75,12.88-8.9,21.93-1.45,11.31,4.93,15.31,8,15.99,.05,.01,.11,.02,.17,.03,0,0,0-.01,0-.02-3.22-1.03-8.76-5.21-7.4-15.83,1.17-9.16,6.86-18.75,8.98-22.06,.56,.02,1.11,.03,1.63,.01-1.03,.45-1.78,.85-1.96,1.12-.72,1.08,.77,6.15,2.38,7.68,.7,.66,2.04,1.35,3.33,1.91-.29,.87-.5,1.51-.5,1.51,.21-.48,.42-.97,.63-1.45,1.27,.55,2.46,.97,2.9,1.12,.44,.19,.87,.36,1.26,.52-.29,2.11-.33,3.68-.33,3.68,0,0,.28-1.6,.78-3.51,.84,.32,1.42,.51,1.38,.49-.04-.01-.58-.3-1.32-.71,.25-.93,.54-1.92,.88-2.83,.68,2.25,1.51,4.32,1.86,4.69,.81,.85,3.83,2.25,3.83,2.25,0,0-2.81-1.96-3.57-3.36-.39-.71-1.01-3.04-1.43-5.17,.45-.86,.94-1.49,1.47-1.64,.04-.01,.08-.02,.12-.04-.57,.5-.95,.93-1.02,1.23-.34,1.58,.89,1.96,2.38,3.27,1.49,1.32,6.82,6.09,8.72,6.76,1.75,.63,3.66,.86,3.24,.7-1.01-.37-2.98-1.17-4.61-2.32-2.3-1.62-8.34-7.02-8.55-7.91-.06-.27,1.38-1.06,3.43-2.03-.1,1.79,1.19,5.66,2.56,6.96,1.62,1.53,6.68,3.19,6.55,3.15-.13-.04-4.89-2.64-5.74-3.32-.85-.68-1.83-3.66-2.17-4.72-.34-1.06-.77-1.7,.26-1.88,.82-.15,7.45-2.43,10.17-3.26-.05,.34-.02,.64,.13,.87,.28,.46,.71,.86,1.19,1.17-.36,1.74-.29,4.52,2.46,7.27,0,0-1.55-4-.6-6.73,.16-.02,.3-.07,.43-.14,0,.62,.11,1.27,.38,1.93,1.06,2.64,4.72,4.94,4.72,4.94,0,0-3.15-3.06-3.62-5.23-.26-1.19,.14-2.55,.55-3.55,.12,0,.24,0,.34-.03,.03,.41,.13,.78,.33,1.07-.71,1.18-1.01,2.44,.06,3.27,2.47,1.91,6.64,1.02,6.64,1.02,0,0-2.98-1.08-4-2.39-.75-.97,1.07-2.38,1.93-3.59,.23-.09,.46-.19,.69-.31,0,0,.01,.01,.02,.02-.21,.43-.36,1.03-.3,1.89,.17,2.43,1.15,4.45,3.87,4.74,0,0-3.46-3.18-2.25-5.63,.38,.15,.81,.23,1.27,.18,1.15-.13,1.72-.25,2.64-1.06,.24-.21,.52-.51,.75-.84,.06,0,.12,.02,.17,.03,.19,.38,.46,.74,.8,1.06-.87,.14-1.61,.37-1.85,.73-.11,.16-.17,.3-.21,.43-.52,.39-1.08,1.21-.98,2.97,.17,2.98,.94,6.98,2.21,7.95,0,0-1.34-6.55,.22-9.39,.78,.45,.7,.91,2.07,.37,.46-.18,.98-.37,1.49-.56,.26,.43,.64,.84,1.17,1.22-.98,.3-1.59,.82-1.36,.96-.98,.34-2.44,.97-2.66,1.86-.34,1.36-.17,1.53,.3,2.64,.47,1.11,1.96,2.18,2.72,2.28,.77,.1-2.21-1.79-1.91-3.53,.21-1.21,.82-1.51,1.69-1.75,.04,.05,.32-.01,.95,.06,.66,.07,1.74-.29,2.54-.61,.03,.02,.05,.05,.07,.07,.26,.26,.54,1.32,.88,2.6,.42,1.6,.9,3.55,1.48,4.69,.21,2.33-.13,3.54,.28,4.25-.25,.15-.52,.33-.82,.57-2.02,1.53-6.17,4.59-7.67,6.38-1.49,1.79-6.74,6.12-3.94,6.38,2.79,.26,3.99-.77,5.09,.77,1.1,1.53,4.18-.08,5.41-2.3l1.23-2.21-1.23,3.15s2.07-2.13,3.78-4.42c1.7-2.3,3.83-3.83,4.51-5.53,.29-.72,.74-1.27,1.09-1.67,.5-.25,.85-.63,1.29-1.72,.62-1.53,2.41-10.38,.47-12.41-.06-1.44-.45-2.9-.84-4.24Zm-58.94,6.85c-.84-.76-1.78-3.63-2.12-4.67-.34-1.06-.77-1.7,.26-1.88,.72-.13,5.89-1.9,8.99-2.89,.84,.17,1.76,.37,2.81,.59-2.32,.61-6.82,1.81-7.22,2.09-.34,.23-.57,.59-.75,.95-.37,.74-.52,1.56-.79,2.34-.27,.77-.75,2.2-1.17,3.48Zm11.89-8.45c.97,.19,1.79,.32,2.52,.42-.09,.05-.18,.11-.27,.16-3.13,.43-7.6,1.04-9.08,1.26,1.75-.48,4.67-1.27,6.84-1.85Zm-16.91,2.66c-.34-1.06-.77-1.7,.26-1.88,.57-.1,3.99-1.25,6.93-2.22-2.48,.91-4.96,1.92-5.3,2.44-.72,1.08,.77,6.15,2.38,7.68,.01,.01,.03,.03,.04,.04-.96-.55-1.82-1.07-2.14-1.33-.85-.68-1.83-3.66-2.17-4.72Zm9.55,5.41c-.22,.96-.39,1.91-.52,2.78-1.38-.76-3.15-1.77-3.81-2.25,.05-.12,.1-.24,.15-.36,.31-.71,.63-1.42,.96-2.13,.37-.79,.72-1.59,1.11-2.36,.34-.67,.42-1.26,1.22-1.51,.16-.05,.5-.15,.97-.28-.58,.44-.27,2.53,.31,4.77-.14,.38-.27,.82-.39,1.33Zm2.13-3.82s-.41,.12-.91,.81c-.2-1.31-.24-2.29,.02-2.31,.3-.02,3.09-.41,6.26-.86-.28,.18-.56,.36-.84,.54l-4.52,1.81Zm22.78-2.45c.26,.07,.5,.1,.72,.1-.23,.28-.46,.57-.67,.88-.14-.32-.2-.66-.04-.98Z"/>
  </g>
</svg>