<?xml version="1.0" encoding="UTF-8"?>
<svg id="Layer_2" data-name="Layer 2" xmlns="http://www.w3.org/2000/svg" viewBox="0 0 102.81 47.84">
  <defs>
    <style>
      .cls-1 {
        fill: #808080;
      }
    </style>
  </defs>
  <g id="Layer_1-2" data-name="Layer 1">
    <path class="cls-1" d="M100.01,25.89c.36-.1,.71-.16,1.03-.17,.26-.01,.49,.15,.57,.4,.08,.25,0,.51-.23,.66-2.02,1.34-12.13,7.88-21.1,10.51-.22,.52-1.21,2.63-3.54,4.96-2.16,2.16-6.81,5.6-8.59,5.6-.15,0-.28-.03-.39-.08-.93-.46-.41-1.68,.04-2.75,.27-.63,.54-1.28,.54-1.72,0-1,.81-2.76,1.28-3.69-6.23,1-13.29,1.48-20.54,.38-.28,.5-1.16,1.84-3.29,3.34-2.06,1.44-8.29,4.27-10.3,4.27-.22,0-.39-.03-.5-.11-.61-.41-.36-1.13-.15-1.71,.2-.57,.32-.97,.1-1.19-.54-.54-.83-1.69-1.1-2.8-.17-.68-.33-1.33-.52-1.71-.19-.37-.75-.71-1.24-1.01-.58-.35-1.09-.66-1.19-1.11-.03-.14-.04-.35,.12-.58,.44-.66,2.82-1.22,4.38-1.52-11.36-4.87-11.62-4.67-14.74-2.29-.46,.35-.99,.75-1.61,1.19-.67,.47-1.37,.97-2.08,1.48-4.32,3.1-9.16,6.57-12.68,6.57-.49,0-.96-.07-1.4-.21-.49-.16-.84-.49-1.03-.96-.82-2.05,1.59-6.61,3.71-10.64,1.15-2.18,2.34-4.44,2.27-5.06-.12-.96-1.07-3-2.07-5.16-1.08-2.33-2.31-4.98-2.85-7-.59-2.22-1.34-3.38-1.94-4.31-.45-.69-.8-1.23-.92-1.95-.08-.48,.1-.9,.52-1.2,1.23-.88,4.26-.51,6.75,.83,1.37,.74,3.8,2.76,6.61,5.11,3.89,3.25,8.74,7.29,10.68,7.58,.8,.12,2.92-.55,5.77-1.57-.65-.48-1.68-1.3-2.22-2.02-.22-.3-.28-.65-.17-1.02,.36-1.15,2.45-2.31,4.24-2.91,.9-.3,1.99-1.11,3.15-1.97,1.74-1.29,3.54-2.63,5.05-2.46,2.15,.24,6.68-2.2,8.28-3.79,1.73-1.73,7.87-2.7,10.16-2.44,1,.11,1.4-.08,2.05-.4,.78-.37,1.83-.88,4.36-1.16,4.82-.53,9.87,2.4,10.97,3.77,.57,.71,1.56,.79,2.6,.87,.64,.05,1.3,.11,1.91,.31,1.62,.54,2.14,5.66,2.25,7.09,1.87,.54,3.75,1.2,5.57,2.01,10.51,4.64,14.24,7.7,14.24,8.9,0,.55-1.29,1.72-2.81,2.87Z"/>
  </g>
</svg>