<?xml version="1.0" encoding="UTF-8"?>
<svg id="Layer_2" data-name="Layer 2" xmlns="http://www.w3.org/2000/svg" viewBox="0 0 85.93 58.21">
  <defs>
    <style>
      .cls-1 {
        fill: #808080;
      }
    </style>
  </defs>
  <g id="Layer_1-2" data-name="Layer 1">
    <path class="cls-1" d="M85,42.57c-2.66,.83-5.42,1.3-8.15,1.83-3.56,.69-6.69,.02-10.01-1.02,1.66-.97,3.14-2.16,3.83-3.65,1.42-3.06-.09-7.55-1.17-10.68,.4-.12,.81-.26,1.22-.42,1.27-.5,3.12-1.28,2.77-2.96-.36-1.74-2.56-1.97-3.93-1.58-.59,.17-1.16,.41-1.73,.66-1.94-4.31-4.6-8.05-8.19-11v-.02s-.04-.01-.04-.01c-1.39-1.14-2.92-2.16-4.6-3.05-.55-.29-1.1-.55-1.66-.8,1.04-1.14,2.19-2.19,3.33-3.25,1.5-1.4,3.62-3.61,1.94-5.75-1.54-1.95-3.78-.23-5.01,1.11-1.83,1.99-3.24,4.29-4.99,6.2-4.7-1.27-9.66-1.47-14.47-.5-3.01,.61-6.1,1.72-9.08,3.25-3.18-.35-2.88-5.08-4.28-7.24-.69-1.06-1.92-1.86-3.16-1.14-3.88,2.26,2.63,9.36,.41,12.68-.08,.11-.11,.23-.12,.33-3.12,2.5-5.9,5.45-8.05,8.72-1.46,.08-2.89-.24-4.13-1.08-.89-.61-1.49-1.67-2.52-2.07-.97-.38-2.06-.06-2.68,.78-2.85,3.85,7.11,6.73,5.44,10.74-.05,.11-.05,.21-.03,.3-.61,2.41-.86,4.9-.65,7.44,.09,1.12,.28,2.25,.54,3.38-.39,.88-1.09,1.58-1.79,2.26-.55,.54-1.34,1.15-1.02,2.03,.28,.79,1.44,1.18,2.18,1.33,.87,.18,1.81,.2,2.57-.26,2.01,3.97,5.2,7.25,9.56,8.46,6.31,1.76,14.52-.28,18.18-5.93,.09,.02,.18,.03,.29,.02,9.14-1.04,18.4,1.79,27.4,2.95,6.52,.84,13.82,1.71,20.22-.16,.93-.27,.68-1.58-.28-1.48-5.37,.58-12.78-.34-17.3-3.9,1.93-.76,3.79-1.38,5.96-1.44,2.43-.07,4.54-.18,6.92-.77,2.33-.59,5.24-1.09,7.01-2.89,.51-.52,.15-1.69-.7-1.42ZM10.3,49.46c-.26-.42-.49-.86-.71-1.31l.71,1.31Zm14.77,1.43c-3.91-1.26-7.14-4.32-8.32-8.27-2.17-7.28,2.31-15.41,8.32-19.43,6.6-4.41,15.32-3.07,20.75,2.56,4.84,5.01,7.71,14.46,5.41,21.19-.02,.07-.04,.14-.05,.2-.57,.14-1.14,.27-1.71,.38,.24-1.58,.57-5.9-.09-10.3-.83-5.49-6.16-13.68-11.4-14.5-5.24-.82-12.68-.82-17.89,7.66-5.57,9.08-.57,15.85,2.68,17.86,3.25,2.01,11.49-.52,11.7-5.18,.21-4.66-4.5-7.48-7.02-5.73-1.67,1.17-1.46,2.37-1.13,3.05-.02,0-.03,.01-.05,.02-2.54,1.63-.61-2.72-.58-2.77,.71-.95,1.68-1.52,2.8-1.84,1.88-.54,3.59-.08,5.06,1.18,2.77,2.38,2.99,6.24,2.12,9.57-1.53,3.48-7.31,5.4-10.61,4.33Z"/>
  </g>
</svg>