<?xml version="1.0" encoding="UTF-8"?>
<svg id="Layer_2" data-name="Layer 2" xmlns="http://www.w3.org/2000/svg" viewBox="0 0 138.8 38.58">
  <defs>
    <style>
      .cls-1 {
        fill: #808080;
      }
    </style>
  </defs>
  <g id="Layer_1-2" data-name="Layer 1">
    <path class="cls-1" d="M.23,16.55c2.47-1.84,16.06-11.12,35.36-8.79,.18,.02,.36-.04,.48-.17C37.15,6.43,42.55,.81,46.35,.01c.23-.05,.47,.06,.59,.26,.71,1.19,3.52,5.26,9.23,6.31,.04,0,.07,.01,.11,0,1.1,0,18.58-.12,27.17,2.14,.17,.05,.35,0,.49-.1l3.51-2.79c.13-.1,.29-.14,.45-.11,1.64,.28,10.99,2.05,14.89,6.13,.05,.05,.1,.09,.17,.12,1.04,.47,10.37,4.66,15.19,4.88,.14,0,.28-.04,.39-.13,1.32-1.13,10.43-8.61,19.76-7.8,.52,.04,.7,.71,.28,1.02-1.98,1.43-6.04,4.36-8.12,5.92-1.59,1.2-3.13,1.62-4.15,1.76-.47,.06-.65,.65-.3,.97,1.36,1.26,3.91,3.58,6.27,5.53,2.07,1.71,2.63,3.23,3.31,4.17,.28,.39-.04,.94-.52,.88-3.26-.36-9.27-1.84-14.78-7.65-.18-.19-.45-.23-.68-.11-2.31,1.25-14.63,7.76-22.41,9.32-.51,.1-.62,.79-.17,1.04,.01,0,.02,.01,.04,.02,.47,.26,.34,.96-.19,1.05-.92,.15-2.08,.24-3.07,.04-2.01-.4-5.54,4.23-7.35,2.01-1.81-2.22-3.22-2.01-3.22-2.01,0,0-25.75,4.37-36.88,1.28-.33-.09-.66,.13-.71,.47-.1,.76-.11,2.06,.64,3.05,.29,.38,0,.92-.48,.9-2-.1-5.69-.92-8.85-5.19-.1-.13-.25-.22-.41-.23-2.81-.21-28.08-2.46-36.45-15.87-.15-.25-.09-.57,.14-.74Z"/>
  </g>
</svg>