<?xml version="1.0" encoding="UTF-8"?>
<svg id="Layer_2" data-name="Layer 2" xmlns="http://www.w3.org/2000/svg" viewBox="0 0 66.95 26.01">
  <defs>
    <style>
      .cls-1 {
        fill: #808080;
      }
    </style>
  </defs>
  <g id="Layer_1-2" data-name="Layer 1">
    <path class="cls-1" d="M66.77,8.61c-.02,.2-.05,.41-.08,.61,.03,.07,.02,.16-.03,.22-.28,2.09-.67,4.17-.69,6.28,0,.22-.26,.35-.45,.29-1.52-.49-3.08-.9-4.65-1.23-.79-.16-1.59-.31-2.4-.43-.64-.09-1.29-.16-1.93-.26-.78,.24-1.56,.49-2.33,.76-.2,.76,.09,1.57-.09,2.36-.19,.84-.8,1.3-1.66,1.3-1.05,0-2.11-.08-3.16-.21-.53-.07-1.06-.14-1.59-.24-.35-.06-.72-.11-1.06-.21-.38,.16-.76,.31-1.14,.47-3.39,1.37-6.84,2.55-10.4,3.39,1.28,.77,2.68,1.27,4.2,1.37,.17,.01,.32,.18,.21,.34-.57,.8-1.22,1.7-2.02,2.28-.7,.5-1.77,.29-2.51,0-1.48-.59-2.77-1.78-3.34-3.28-3.31,.59-6.67,.92-10.04,.97-4.08,.06-8.27-.27-12.12-1.71-3.29-1.24-6.31-3.24-8.41-6.1-.18-.24,.16-.45,.37-.4,1.06,.27,2.11,.55,3.16,.83C2.83,14.75,1.29,13.19,.04,11.4c-.1-.14-.01-.36,.14-.42,2.98-1.25,6.04-2.32,9.16-3.18,5.43-1.5,11.04-2.39,16.67-2.67C27.93,2.86,30.4,1.17,33.15,.03c.2-.08,.45,.02,.45,.25,.02,.58,.18,1.13,.5,1.62,.27,.41,.61,.77,.89,1.18,.46,.66,.79,1.41,.95,2.2,2.61,.21,5.2,.54,7.78,1.01,.38,.07,.75,.14,1.13,.22,.89-.49,1.91-.93,2.94-.65,.77,.21,1.54,.87,1.57,1.71,0,0,0,0,0,0,1.67,.45,3.37,.9,4.98,1.54,0,0,.01,0,.02-.01,1.44-.81,3.01-1.42,4.63-1.77,.13-.08,.27-.16,.41-.24,1.62-.9,5.51-4.78,6.92-5.98,.19-.16,.51-.04,.52,.22,.1,2.44,.21,4.86-.07,7.29Z"/>
  </g>
</svg>