<?xml version="1.0" encoding="UTF-8"?>
<svg id="Layer_2" data-name="Layer 2" xmlns="http://www.w3.org/2000/svg" viewBox="0 0 91.2 41.81">
  <defs>
    <style>
      .cls-1 {
        fill: #808080;
      }
    </style>
  </defs>
  <g id="Layer_1-2" data-name="Layer 1">
    <path class="cls-1" d="M45.72,41.81h-1.43c-.62-.1-1.17-.38-1.65-.78-.56-.46-1.08-.95-1.63-1.42-.08-.07-.2-.13-.3-.12-.59,.02-1.17,.06-1.76,.08-1.61,.04-3.22,.06-4.83,.11-1.88,.06-3.75,.16-5.63,.21-2.32,.06-4.64,.02-6.96-.22-1.26-.13-2.51-.28-3.75-.49-2.05-.35-4.06-.89-5.97-1.71-1.76-.76-3.49-1.57-5.22-2.39-1.31-.62-2.57-1.33-3.67-2.28-.95-.81-1.81-1.7-2.33-2.87-.02-.05-.09-.09-.15-.11-.41-.13-.53-.34-.38-.76,.08-.22,.22-.43,.33-.64-.46-.48-.36-.91,.29-1.13,.05-.02,.1-.07,.13-.12,.41-.75,.82-1.51,1.23-2.26,1.42-2.57,3.06-4.98,4.98-7.2,1.68-1.94,3.53-3.7,5.6-5.23,2.71-2,5.64-3.54,8.92-4.39,1.35-.35,2.71-.58,4.11-.64,.47-.02,.94-.04,1.44-.07-.09-.05-.16-.08-.23-.12,1.75-2.54,3.89-4.75,5.69-7.26,.03,.14,.04,.24,.06,.33,.15,.52,.53,.85,.97,1.12,1.14,.7,2.43,1.01,3.71,1.33,1.01,.26,2.04,.44,3.02,.77,2.14,.72,4.12,1.78,6.04,2.95,1.47,.9,2.9,1.86,4.19,3.01,1.42,1.26,2.71,2.64,3.87,4.15,1.53,1.99,2.83,4.1,3.67,6.48,.03,.09,.11,.2,.2,.24,.93,.49,1.85,1.01,2.81,1.45,1.57,.71,3.19,1.23,4.95,1.14,.48-.02,.96,.07,1.44,.14,.3,.05,.6,.17,.92,.26-.07-.09-.12-.15-.18-.22,.79-.05,1.5-.25,2.19-.56,1.31-.59,2.4-1.49,3.42-2.47,1.51-1.46,2.8-3.1,4.11-4.74,1.01-1.27,2.08-2.48,3.36-3.48,1.5-1.18,3.14-2.11,4.93-2.78,1.2-.45,2.44-.74,3.72-.86,.41-.04,.83,0,1.25,0-.16,.19-.32,.39-.48,.59-.72,.94-1.01,2.05-1.27,3.18-.23,1.03-.43,2.08-1,2.99-.4,.65-.86,1.27-1.31,1.89-.61,.85-1.24,1.7-1.39,2.76-.14,.93-.15,1.87-.26,2.81-.07,.62-.14,1.26-.33,1.86-.39,1.28-1.29,2.19-2.35,2.96-.43,.31-.88,.6-1.34,.91,.71,.35,1.18,.91,1.53,1.58,.4,.77,.65,1.59,.82,2.43,.39,1.95,1.26,3.65,2.51,5.18,.78,.96,1.63,1.86,2.57,2.68-.07,.04-.12,.07-.17,.09-.72,.31-1.48,.44-2.26,.48-.87,.04-1.74-.04-2.6-.18-1.66-.27-3.25-.78-4.8-1.45-1.75-.75-3.15-1.97-4.55-3.21-.89-.8-1.81-1.57-2.74-2.3-.53-.42-1.09-.83-1.77-.96-.81-.16-1.63-.3-2.46-.35-1.47-.09-2.94,.06-4.38,.4-1.36,.32-2.67,.79-3.96,1.32-.28,.12-.56,.25-.9,.4h.84s-.05,.1-.09,.15c-.67,.87-1.33,1.75-2.01,2.61-.75,.94-1.57,1.81-2.55,2.51-1.18,.85-2.5,1.35-3.95,1.5-.51,.05-1.02,.09-1.53,.17-.7,.1-1.4,.24-2.1,.35-.4,.07-.81,.13-1.21,.19Z"/>
  </g>
</svg>