<?xml version="1.0" encoding="UTF-8"?>
<svg id="Layer_2" data-name="Layer 2" xmlns="http://www.w3.org/2000/svg" viewBox="0 0 82.99 62.97">
  <defs>
    <style>
      .cls-1 {
        fill: #808080;
      }
    </style>
  </defs>
  <g id="Layer_1-2" data-name="Layer 1">
    <path class="cls-1" d="M80.83,40c-.73-.12-1.44-.29-2.12-.49-2.93-.86-5.45-2.45-7.79-4.54-2.55-2.29-5.12-4.58-7.68-6.88,0,0-.02-.01-.03-.02-.02,0-.03,0-.05,0-2.98,.61-5.76,2.49-7.7,4.82-.03,.03-.03,.08,0,.09,0,0,.01,0,.01,0,.82-.04,1.98-.04,2.92,.28,.58,.19,1.07,.51,1.35,1.01,.31,.55,.24,1.36,.23,2.01-.01,.65,.29,1.88,.94,2.29,1.01,.64,2.43,1.49,2.55,2.81,.11,1.13-.78,1.7-1.81,1.77-2.74,.21-5.52,.09-8.15-.6-1.57-.41-3.09-1.03-4.52-1.91-.01,0-.03,0-.03,0-1.45,1.26-2.87,2.17-4.7,3.26-2.5,1.5-5.03,2.83-7.81,3.73-.11,.03-.17,.07-.2,.08-.08,.07-.09,.12-.03,.15,0,0,0,0,.01,0,0,0,.02,0,.03,.01,0,0,0,0,0,0,2.1,.69,5.22,2.47,5.07,5.11-.04,.64-.16,1.14,0,1.85,.01,.05,.09,.32,.24,.8,.27,.86,.25,1.73-.03,2.59-.01,.04-.01,.08,.01,.12,.48,.73,.8,1.52,.96,2.37,.21,1.12-.07,2.43-1.15,2.22,0,0,0,0,0,0-.03,0-.06-.01-.09-.02-.22-.05-.48-.16-.77-.36-.94-.61-1.6-1.46-2.29-2.38-1-1.33-2.33-2.05-3.45-3.18-1.54-1.57-2.62-3.55-3.51-5.55,0-.01,0-.02-.01-.03,0,0-.02,0-.03,.01-3.07,1.66-7.1,1.81-10.63,1.42-3.41-.37-6.81-.77-10.2-1.2-1.64-.2-3.25-.55-4.82-1.02-.03,0-.06-.02-.09-.03-1.5-.47-2.56-1.29-3.53-2.49-.31-.37-.57-.67-.8-.88-.39-.35-.88-.67-1.06-1.14-.21-.59-.09-1.12,.37-1.6,.04-.03,.04-.07,.01-.11-.49-.72-.69-1.28-.19-2.01,.27-.37,.59-.67,.97-.84,.04-.01,.07-.04,.07-.08,.21-1.64,.69-3.19,1.45-4.66,.03-.04,.03-.09,.03-.13-.28-2.49,.72-4.16,3.01-5.02,.05-.01,.09-.04,.12-.08,.71-.89,1.65-1.84,2.14-2.86,2.78-5.84,8.26-10.3,14.24-12.59,1.12-.43,2.41-.82,3.88-1.22,.04-.01,.07-.05,.07-.09,.07-4.31,.89-8.18,3.53-11.67,.19-.23,.37-.4,.59-.53,.04-.03,.09-.04,.13-.03,.04,0,.09,.02,.13,.04,.62,.21,.89,1.13,.89,1.69,0,.03,.01,.05,.03,.07,0,0,0,0,0,0,.01,0,.04-.01,.05-.03,1.01-.89,1.69-1.97,2.71-2.9,.81-.73,1.82-1.17,3.07-1.33,1.03-.13,2.22-.04,3.19,.39,.96,.42,1.72,1.17,1.88,2.38,0,.03,.02,.06,.05,.07,.21,.05,.4,.09,.59,.14,.37,.09,.72,.19,1.03,.3,1.76,.6,2.3,1.69,2.67,3.41,.13,.63,.21,1.37,.57,1.92,.03,.04,.05,.07,.11,.08,1.48,.47,2.29,1.3,3.11,2.51,.45,.65,1.18,.76,1.88,1.04,.53,.23,.78,.56,.47,1.12-.29,.51-.6,.98-.9,1.46-.04,.05-.03,.13,.04,.17,.01,0,.01,.01,.03,.01,.57,.2,1.13,.43,1.69,.68,.56,.25,.69,.6,.35,1.12-.33,.49-.64,.96-.93,1.44-.04,.07-.01,.16,.05,.21,0,0,0,0,0,0,1.78,.53,3.58,.66,5.37,.4,.2-.03,.35-.09,.44-.28,3.84-7.62,8.67-14.71,16.98-17.83,.77-.29,1.85-.59,3.23-.86,.22-.05,.4-.05,.5,.03,.15,.07,.2,.23,.12,.52-.64,2.41-1.44,4.95-2.82,7.1-1,1.56-1.42,3.34-1.45,5.18-.01,.76-.64,1.21-.36,2.01,.21,.61,1.08,1.02,1.45,1.6,.89,1.38,.35,2.41-.68,3.46-.03,.03-.03,.05,.01,.07,.37,.12,.82,.31,1.36,.56,1.21,.56,.37,1.72,.37,2.62,0,.81,.17,1.56-.4,2.28-.03,.04-.03,.08,0,.12,.09,.12,.21,.29,.36,.36,1.29,.56,1.65,1.92,2.13,3.23,.19,.51,.67,.89,.96,1.36,.16,.25,.29,.56,.41,.94,.64,2.12,1.2,4.27,1.65,6.47,.31,1.48-.71,2.3-2.1,2.08Z"/>
  </g>
</svg>