<?xml version="1.0" encoding="UTF-8"?>
<svg id="Layer_2" data-name="Layer 2" xmlns="http://www.w3.org/2000/svg" viewBox="0 0 79.57 45.46">
  <defs>
    <style>
      .cls-1 {
        fill: #808080;
      }
    </style>
  </defs>
  <g id="Layer_1-2" data-name="Layer 1">
    <path class="cls-1" d="M30.1,29.32c-1.77-.41-3.34-1.24-5.01-1.84-.39-.14-.81-.22-1.22-.29-.44-.07-.71,.02-.99,.51-.35,.62-.9,1.21-1.51,1.57-.9,.54-1.88,.31-2.72-.25-.37-.24-.64-.63-.94-.96-.46-.49-.87-1.05-1.39-1.47-.48-.38-.88-.79-1.12-1.35-.9-2.15-1.82-4.29-2.71-6.43-.12-.28-.14-.6-.21-.91-.04-.16-.02-.39-.12-.48-.45-.41-.91-.78-.45-1.48,.05-.07-.16-.34-.28-.49-1.57-1.94-3.14-3.89-4.74-5.8-.2-.24-.63-.42-.93-.4-1.52,.13-2.69-.48-3.72-1.53C.8,6.45-.12,5.03,.01,3.19,.15,1.14,.93,.47,2.45,.22,3.96-.02,5.42,.03,6.86,.68c.68,.31,1.48,.35,2.23,.49,1.67,.3,3.35,.58,5.02,.89,.71,.13,1.41,.47,2.08-.12,1.84-.14,3.5-1.14,5.39-1.12,.87,0,1.75-.14,2.59-.64,.53-.32,1.38-.12,2.09-.13,1.45-.02,2.4,.73,3.13,1.91,.23,.38,.45,.65,.33,1.14-.17,.66,0,1.26,.49,1.81,.62,.7,.7,1.58,.6,2.48-.14,1.29,.31,2.16,1.45,2.79,.92,.51,1.85,.99,2.72,1.57,.61,.4,1.12,.93,1.68,1.41,.43,.37,.91,.53,1.49,.49,.65-.04,1.31-.01,1.96-.01,1.79,.04,3.58-.03,5.29,.68,.17,.07,.39,.07,.58,.05,1.15-.16,2.19,.22,3.22,.65,.42,.18,.62,.44,.5,.93-.14,.55-.21,1.11-.31,1.67-.09,.51-.36,.83-.92,.82-.08,0-.19-.01-.25,.03-.21,.15-.4,.33-.59,.5,.21,.15,.41,.32,.64,.44,.09,.05,.22,0,.34,.02,.19,.02,.39,.05,.58,.07-.12,.1-.29,.17-.35,.3-.03,.07,.09,.31,.17,.33,.55,.13,1.11,.31,1.67,.32,2.19,.04,4.12,1,6.14,1.64,.33,.1,.68,.14,1.03,.15,.44,0,.64,.17,.78,.65,.03,.11,.22,.2,.35,.25,1.55,.69,3.1,1.36,4.65,2.05,.15,.07,.33,.15,.42,.28,.21,.28,.31,.69,.57,.87,.29,.2,.75,.14,1.07,.31,.31,.17,.58,.46,.81,.75,.09,.11,.02,.35,.04,.53,.01,.11,.03,.28,.1,.31,2.28,1.1,3.93,3.07,6.05,4.4,1.62,1.01,2.9,2.35,4.1,3.8,.1,.12,.23,.28,.23,.43,0,1.17,.58,1.97,1.54,2.55,.17,.1,.37,.18,.5,.32,.17,.2,.42,.48,.38,.66-.06,.25-.35,.6-.57,.62-.72,.06-1.46,.02-2.18-.03-.28-.02-.54-.17-.82-.24-.09-.02-.2,.03-.3,.05,.04,.1,.05,.23,.12,.29,1.12,1.04,2.24,2.08,3.36,3.12,.12,.12,.27,.21,.38,.34,.23,.28,.22,.49-.18,.62-1.51,.48-2.98,.39-4.37-.34-1.18-.62-2.35-1.26-3.45-2-1.18-.81-1.55-2.21-2.17-3.41-.32-.62-.49-1.33-.74-1.99-.09-.23-.24-.44-.36-.66-.32-.59-.64-1.19-.97-1.77-.49-.86-.98-1.72-1.5-2.56-.27-.43-.6-.82-.9-1.24-.36-.49-.47-1.3-1.39-1.06-.09,.02-.25-.13-.35-.22-1.2-1.01-2.57-1.63-4.09-2-.85-.21-1.68-.52-2.52-.79-.51-.17-.96-.23-1.41,.23-.14,.15-.58,.12-.83,.03-1.63-.55-3.29-.52-4.97-.28-.15,.02-.3,.09-.45,.14,.12,.1,.23,.24,.37,.28,.9,.28,1.59,.85,2.21,1.52,.13,.14,.29,.29,.34,.47,.29,.97,.55,1.96,.83,2.94,.09,.29,.2,.58,.35,.85,.25,.45,.1,.86-.39,.75-1.28-.29-2.71-.29-3.73-1.27-1.38-1.32-2.84-2.53-4.52-3.45-.29-.16-.53-.43-.79-.64-.69-.55-1.36-.58-2.17-.17-.32,.16-.7,.25-1.06,.28-1.58,.14-3.17,.24-4.75,.36-.23,.02-.46,.02-.67,.09-1.55,.57-3.07,.44-4.66,.07Z"/>
  </g>
</svg>