<?xml version="1.0" encoding="UTF-8"?>
<svg id="Layer_2" data-name="Layer 2" xmlns="http://www.w3.org/2000/svg" viewBox="0 0 85.77 58.85">
  <defs>
    <style>
      .cls-1 {
        fill: #808080;
      }
    </style>
  </defs>
  <g id="Layer_1-2" data-name="Layer 1">
    <path class="cls-1" d="M40.15,5.29l.93-1.23-.92,1.23s0,0,0,0c0,0,0,.01-.01,.02Zm5.22,31.11s-.01,0-.02-.01c.04,.03,.08,.06,.12,.1-.03-.03-.07-.05-.1-.08Zm4.89-22.12s-.08-.04-.12-.06c.03,.01,.07,.03,.12,.06ZM6.46,31.69l-2.06-1.52c-1.19-.62-3.06-.74-3.06-.74-1.48-.46,.87,1.94,.87,1.94,1.64,1.64,5.08,3.71,5.08,3.71,4.23,3.39,7.31,2.25,7.31,2.25,4.1-.7,4.98-3.13,4.98-3.13,1.83-.64,2.29-3.48,2.29-3.48,0,2.55-2.11,3.92-2.11,3.92-1.76,3.44-6.61,3.57-6.61,3.57,.92,.31,3.57,.62,3.57,.62,1.15,.35,3.04,.35,3.04,.35l3.3,5.86,1.76,2.11c2.36,5.55,6.97,11.21,7.04,11.3,.02,.02,.04,.04,.07,.07,.77,.77,.47,0,.47,0-2.6-2.2-4.49-8.3-4.49-8.3l-2.47-4.32,1.85,2.7c-.22-2.55-2.55-8.54-2.55-8.54,.22-1.15-.53-1.79-.53-1.79l-2.78,.6s-.15-.08,.1-.13c.3-.06,3.37-1.04,3.37-1.04l-2.71-2.71s2.41,1.78,3.79,2.66c1.38,.88,4.21,.65,5.02,1.2,.81,.55,2.38,0,3.6,.23,1.22,.23,.5-.5,1.53-.23,1.04,.26,1.37-.4,1.37-.4,0,0,.88,.11,.88-.11s-.64-.84,.92-1.23c1.56-.4,1.28-1.72,1.28-1.72,.24,.42-.04,.84-.04,.97s-.53,.77-1.23,1.01c-.7,.24-.86,.13-.4,.92,.46,.79,2.28,1.26,2.28,1.26,0,0,1.35,.56,2.41,.24,1.06-.32,2.26,.68,2.64,.68s1.7,.29,2.53,0c.71-.25,2.71,.15,3.24,.26-1.39-.37-4.95-3.05-6.22-4.02,1.54,1.14,4.12,2.7,4.12,2.7v-1.41l-3.55-2.41c1.87,1.01,2.2,.56,2.2,.56,.44-.44-.38-1.41-.38-1.41,.41-.82-.41-1.35-.41-1.35l-2.61-1.41,2.08,.91c2,.91,2.32-.26,2.32-.26,.73-2.47-2.44-2.14-2.44-2.14,0,0,.97-.5,1.85,.03s1.32,0,1.32,0c1.44-.91,.21-2.03,.21-2.03-.82-.26-4.61,1.26-4.61,1.26,4.35-2.76,9.81-2,9.81-2,1.53,0,8.69,9.51,8.69,9.51,2.47,3.7,6.61,6.67,6.61,6.67,1.15,.22,4.45,2.6,4.45,2.6,.97,.44,.7,0,.7,0,0,0-3.57-3.08-4.8-4.32-1.21-1.21-7.08-9.85-7.26-10.12l8.36,10.12c.9-.9,0-4.54,0-4.54,1.04-1.04-.26-3.48-.26-3.48l-4.67-3.7,4.8,3.13c-.48-1.41-1.01-3.48-1.01-3.48l-4.1-2.69,3.74,1.85c0-.53-.35-1.89-1.06-3.5-.7-1.61-5.07-2.14-5.07-2.14-.68-.29,0-.4,0-.4l5.33,1.01c1.63,0,1.41-2.16,1.41-2.16l-4.32-.66,4.58,.26c1.19-.26-.26-1.41,1.89-2.6,2.16-1.19,2.03-1.94,2.03-1.94-.31-.88,1.56-2.27,1.06-2.77-.03-.03-.07-.05-.13-.07-.9-.27-5.03,1.04-5.03,1.04,1.28-1.28,5.51-1.54,5.51-1.54,2.42-1.59,1.81-2.86,1.81-2.86,2.6-.97,3.61-2.16,3.61-2.16-4.22,.26-11.04,5.47-11.35,5.72,6.29-5.54,10.69-6.29,12.37-6.29s2.2-.75,2.2-.75c-8.54-2.2-13.18,1.22-13.18,1.22-5.81,4.17-14.21,7.12-14.21,7.12-3.62,.49-7.25-1.13-8.1-1.55,1.32,.61,4.4,.99,4.4,.99,.92,.42,.97-.11,.97-.11,.75,.2,.88-.7,.88-.7,1.11-1.11-.37-1.5-.37-1.5,.64-.2,.42-.42,.42-.42,.7,0,1.24-.61,1.24-.61,.78-.19,.87-.87,.87-.87,.68-.2,.88-.84,.88-.84-.85-.85-5.12,.18-5.22,.2,.86-.55,4.44-.8,4.44-.8,.87-.14,.78-.78,.78-.78h-1.06l1.39-.2c.62-.24,.29-.66,.29-.66l-5.46,1.06c2.03-.95,4.75-1.2,5.48-1.45,.74-.25,.59-1.08,.59-1.08l-4.36,1.32,4.67-1.7,.84-.62-.62-.62-3.72,1.01,4.76-1.7-.75-.2-4.43,1.19c-.79,0,0-.51,0-.51,2.51-.84,2.27-1.59,2.27-1.59l-3.72,.95,4.38-1.5c-1.21-.88-2.42-.62-2.42-.62-.64-.97-5.55,2.07-5.55,2.07-.53,0-.11-.33-.11-.33,2.22-1.34,4.87-3.7,4.87-3.7h-2.88c-.81,1.27-3.48,2.73-4.85,3.42,1.43-.86,3.22-2.56,3.22-2.56,0,0,.19-1.04-.7-.15-.88,.88-5.49,3.41-5.63,3.49l4.03-2.63-.31-.31-4.76,2.73,3.2-1.97-.15-.5c-1.1,.14-4.79,3.28-4.9,3.37,1.35-1.64,3.79-2.88,3.79-2.88l-.59-.26c-1.13,.14-3.93,3.08-4.02,3.17,.85-1.32,3.05-2.91,3.05-2.91l-.26-.26c-1.45,.43-4.06,3.54-4.14,3.64,1.03-2,2.7-2.96,2.7-2.96l-.23-.24c-.88,.26-1.75,1.1-2.38,1.84l-.92,1.23s0,0,0,0c0,0,.01-.02,.02-.03,0-.01,.02-.02,.02-.04,0,0,0,0,0,0,0-.01,.02-.03,.03-.04,0,0,0,0,0,0,.02-.02,.04-.05,.06-.08,0-.01,.02-.02,.02-.03,0-.01,.02-.02,.03-.04,.01-.02,.02-.04,.04-.05,0-.01,.02-.03,.03-.04,.03-.04,.06-.09,.1-.14,.03-.05,.07-.1,.11-.15,.13-.17,.28-.36,.45-.56l.94-1.25-.31-.31-2.92,2.92,1.89-2.33-.3-.3-2.78,2.55,2.08-2.08-.15-.62-3.32,2.66,1.62-1.44-.09-.54-.91,.51-2.08,1.35,1.06-.88-.18-.47-1.15,.85-.24-.62-1.74,.96-.29-.29-2.77,1.1v-.44l-1.83,.99-.29-.29-4.21,2.03s-5.97,3.54-8.73,5.3c-2.76,1.76-8.67,7.58-8.67,7.58-1.37-1.57-2.02-1.34-2.02-1.34-.59-.35-1.1-1.34-1.1-1.34,0-.59-.34-.23-.34-.23-.32,.1-.16,.66,.57,1.57,.73,.91,.79,1.34,.79,1.34l-.48-.72c-.26,.44,1,2.08,1,2.08l1.14-.77c-.95,.69-3.57,3.83-3.57,3.83-.27,.55-1.42,1.15-1.42,1.15-.98,.73,.78,1.62,.78,1.62,.75,.57,1.85,.28,1.85,.28,1.12-.1,3.54,3.23,3.54,3.23ZM48.34,3.82s.35-.16,.82-.4c-.3,.18-.58,.32-.82,.4Zm-2.98,32.58s.01,.01,.02,.02c0,0,0,0,.01,.01,0,0,0,0,.01,.01,.05,.04,.11,.09,.18,.14-.05-.03-.09-.07-.13-.1-.02-.02-.04-.03-.06-.05-.01-.01-.03-.02-.04-.03Zm-2.48-3.15l3.45,2.34c-.82-.45-1.94-1.17-3.45-2.34ZM9.37,26.84s1.12-4.2,3.7-2.47c0,0,2.3,2.25,.12,4.43,0,0-1.17,1.59-3.14,.38,0,0-.91-.53-.67-2.35Zm42.72,13.91s.02,0,.02,0c0,0-.02,0-.02,0Zm-.08-.02s.06,.01,.08,.02c-.03,0-.05-.01-.08-.02Zm-1.88-26.52s.07,.03,.12,.06c-.04-.02-.08-.04-.12-.06Zm-4.77,22.18s.01,.01,.02,.02c0,0,.02,.01,.03,.02,.05,.04,.11,.09,.18,.14-.05-.03-.09-.07-.13-.1-.04-.03-.08-.06-.12-.1,0,0,.01,0,.02,.01Zm.97-.81c-.82-.45-1.94-1.17-3.45-2.34l3.45,2.34ZM11,26.57c.59-.94,1.28-.69,1.28-.69,1.04,.4,.34,1.76,.34,1.76-.76,.76-1.47,.43-1.47,.43-1.03-.15-.15-1.5-.15-1.5Z"/>
  </g>
</svg>