<?xml version="1.0" encoding="UTF-8"?>
<svg id="Layer_2" data-name="Layer 2" xmlns="http://www.w3.org/2000/svg" viewBox="0 0 73.88 46.75">
  <defs>
    <style>
      .cls-1 {
        fill: #808080;
      }
    </style>
  </defs>
  <g id="Layer_1-2" data-name="Layer 1">
    <path class="cls-1" d="M41.77,36.44c.08-.03,.16-.07,.24-.11,.06,0,.12,.01,.18,.02-.17,.04-.34,.08-.51,.13,.03-.01,.06-.03,.09-.04Zm17.34-3.58c4.79-.89,8.53-1.07,9.18-1.11,.79-.04,1.58,.07,2.36-.08,.45-.09,1.66-.36,1.41-1.02-2.09-.27-4.19-.57-6.28-.89-2.16-.32-4.34-.57-6.5-.91-.04,0-.03-.07,0-.06,1.24,.13,2.47,.29,3.7,.44,2.14,.26,4.29,.5,6.43,.75,.64,.07,1.27,.14,1.91,.22-.09-.02-.18-.04-.27-.06,.51-.01,1.03-.03,1.54-.06,.39-.02,1.36-.05,1.27-.62-.07-.48-1.35-.78-1.71-.89-1.84-.57-3.7-1.08-5.54-1.66-2.7-.84-5.93-2.61-8.78-5.14-.5-.59-.97-1.19-1.43-1.81-.88-1.2-1.7-2.46-2.49-3.72-.39-.41-.76-.84-1.13-1.27-1.06-1.21-2.15-2.39-3.53-3.25-3.18-2-7.01-2.4-10.68-2.52-1.78-.05-3.58-.13-5.37,0-1.65,.11-3.34,.42-4.8,1.24-2.59,1.46-3.84,4.3-5.13,6.83-.65,1.27-1.32,2.54-2.22,3.65-.45,.55-1,1.2-1.75,1.28-.18,.02-.38,0-.59-.03-.02,.01-.05,.03-.07,.04-.54-.02-1.06-.17-1.65-.66-1.48-1.23-2.44-2.9-3.62-4.39-2.38-2.99-5.11-5.42-8.88-6.41-1.22-.32-3.35-.85-4.52-.26,.35,.57,1.08,.85,1.29,1.58,.18,.62-.12,1.33,.14,1.92,.35,.82,1.39,1.15,1.89,1.86,.54,.76,.07,1.16,.13,1.95,.06,.9,1.19,1.18,1.76,1.74,.6,.59,.35,1.41,.85,2.07,.68,.89,1.8,.93,2.44,1.87,.61,.88,1.31,1.51,2.2,2.12,.26,.18,.53,.32,.8,.45,.06,.04,.12,.07,.18,.11-.07,.04-.14,.09-.21,.14-.89,.61-1.59,1.24-2.2,2.12-.65,.93-1.76,.98-2.44,1.87-.51,.66-.26,1.48-.85,2.07-.57,.56-1.7,.84-1.76,1.74-.06,.78,.42,1.18-.13,1.95-.5,.7-1.53,1.04-1.89,1.86-.26,.59,.04,1.31-.14,1.92-.21,.73-.93,1-1.29,1.58,1.18,.59,3.31,.06,4.52-.26,3.77-.99,6.49-3.42,8.88-6.41,1.16-1.46,2.62-4.27,4-4.3,1.38-.04,1.97,.32,4.15,1.78,3.81,2.55,7.29,4.02,12.9,3.91,.05-.01,.13-.01,.2,0,.39-.1,.79-.17,1.2-.21,.64-.05,1.29-.04,1.93,.04,.31,.04,.65,.1,.97,.18,.61,.04,1.22,.09,1.82,.14,.1-.03,.21-.06,.31-.1,.59-.21,1.17-.47,1.71-.8,.54-.33,1.05-.71,1.53-1.12,.47-.42,.89-.88,1.32-1.34,.02-.02,.05,0,.04,.03-.67,1.06-1.71,1.92-2.76,2.58-.48,.3-.97,.57-1.49,.81,.06,0,.12,.01,.18,.02-.17,.04-.34,.08-.51,.13-.36,.15-.75,.29-1.14,.37-.44,.17-.86,.36-1.27,.59-2.1,1.15-3.73,3.03-4.65,5.23-.52,1.24-.8,2.57-.79,3.92,0,.17,.21,.2,.3,.08,.31-.42,.68-.86,1.13-1.14,.51-.31,1.09-.32,1.67-.31,.55,0,1.1,0,1.6-.25,.44-.22,.78-.59,1.04-1,.3-.45,.52-.94,.74-1.43,.24-.54,.48-1.09,.72-1.63,.47-1.03,1.02-2.05,1.81-2.87,.54-.55,1.17-1.02,1.88-1.32,.61-.68,1.35-1.22,2.19-1.59,.03-.01,.05,.02,.02,.04-.61,.36-1.16,.82-1.63,1.34,.27,0,.54,.01,.81,0,1.5-.03,2.99-.23,4.45-.59,2.95-.74,5.72-2.02,8.56-3.07,0,0,.01,0,.02,0ZM20.7,20.86c.48-.53,.89-1.11,1.28-1.7,.79-1.22,1.4-2.53,2.08-3.8,.65-1.22,1.34-2.44,2.27-3.48,1.01-1.12,2.28-1.93,3.72-2.4,1.57-.51,3.25-.61,4.89-.63,1.86-.02,3.72,.02,5.58,.14,3.5,.23,7.14,.97,9.96,3.19,.89,.7,1.66,1.53,2.41,2.38-1.88-3.04-3.78-6.12-6.27-8.71-.78-.81-1.62-1.63-2.58-2.22-.97-.6-2.2-.95-3.3-.54-.39-.69-.93-1.28-1.57-1.75-.93-.67-2.24-1.18-3.38-.89-.3,.08-.59,.21-.83,.41-.15,.12-.32,.27-.4,.46-.19-.21-.41-.4-.61-.56-.47-.37-1.03-.63-1.62-.72-1.19-.18-2.46,.29-3.03,1.4-.24,.47-.35,1.04-.2,1.55-.61-.44-1.43-.61-2.15-.37-.56,.19-1.04,.59-1.33,1.1-.15,.26-.25,.56-.29,.86-.02,.15-.02,.29,.05,.43,0,0,0,0,0,.01-.28-.05-.57-.04-.84,.04-.64,.2-1.16,.66-1.58,1.17-.85,1.02-1.47,2.2-1.92,3.45-.96,2.66-1.1,5.51-1.31,8.31-.06,.85-.13,1.7-.22,2.55-.04,.34-.08,.67-.14,1-.02,.05-.05,.09-.07,.13-.04,.06-.08,.11-.12,.17,.64-.04,1.12-.49,1.56-.98Zm15.84,15.46c-.48,.05-.96,.14-1.43,.24-1.14,.67-2.03,1.72-2.54,2.95-.3,.72-.45,1.49-.44,2.26,0,.17,.21,.2,.3,.08,.18-.25,.4-.51,.67-.66,.31-.17,.67-.14,1.01-.14,.3,0,.59-.03,.85-.17,.24-.13,.43-.34,.59-.57,.35-.51,.57-1.12,.83-1.68,.27-.58,.57-1.17,1.02-1.64,.26-.27,.55-.51,.88-.7-.58-.04-1.16-.04-1.73,.02Z"/>
  </g>
</svg>