<?xml version="1.0" encoding="UTF-8"?>
<svg id="Layer_2" data-name="Layer 2" xmlns="http://www.w3.org/2000/svg" viewBox="0 0 117.76 74.51">
  <defs>
    <style>
      .cls-1 {
        fill: #808080;
      }
    </style>
  </defs>
  <g id="Layer_1-2" data-name="Layer 1">
    <path class="cls-1" d="M55.6,53.46s-12.64,1.3-21.02-4.53c-8.38-5.83-14.75-8.45-15.77-9.88-1.03-1.43,2.34-.69,2.34-.69,0,0-4.36-1.45-4.12-2.49,.24-1.04,4.57-.45,4.57-.45l1.87-.72,.6-1.12,2.53,.76,.93-.85,2.77,.79s2.91,.57,4.63,.05c1.72-.52,14.51-3.11,20.68,.21,0,0,11.99-2.92,17.44-4.8,5.45-1.88,13-3.4,16.69-3.46,3.69-.06,7.85,.06,7.85,.06,0,0,7.2-4.77,10.64-5.69,3.44-.92,6.03-.74,5.95-.04-.08,.7-5.98,4.44-5.98,4.44,0,0,8.9,1.25,9.51,2.15,.61,.9-4.21,4.64-6.34,4.52-2.13-.12-10.68-1.33-10.68-1.33,0,0-4.63,1.97-5.8,2.91-1.18,.94-3.51,4.72-4.53,5.32-1.02,.6-3.49,1.39-3.49,1.39,0,0-.76,2.53-2.22,3.79-1.45,1.26-5.06,3.69-5.06,3.69l-1.64-.19s-2.4,2.24-3.66,2.93c-1.27,.69-4.44,.33-4.44,.33,0,0-2.67,1.48-3.54,1.86-.88,.38-4.38,.81-4.38,.81l-2.95-.22s-2.82,.4-3.38,.45Zm-29.53-15.31c-3.28-2.82-6.69-6.27-7.16-10.8-.21-2.07,.2-4.3,1.46-5.99,1.45-1.95,3.81-2.78,6.15-2.96,2.62-.2,5.22,.37,7.81,.62,2.33,.22,4.67,.25,7.01,.17,4.93-.16,10.03-.47,14.82-1.73,4.2-1.1,8.54-3.18,11.15-6.77,.15-.21-.15-.42-.31-.23-3.33,3.76-7.69,5.87-12.56,6.88-5.23,1.09-10.81,1.43-16.14,1.34-2.78-.04-5.49-.46-8.24-.74-2.13-.22-4.32-.25-6.37,.45-3.76,1.27-5.62,4.88-5.34,8.72,.35,4.81,3.95,8.49,7.55,11.3,.16,.13,.34-.12,.19-.26h0Zm-4.33-1.8c-4.03-.62-6.98-4.33-9.52-7.21-2.74-3.1-4.8-6.67-5.54-10.78-.41-2.25-.34-4.61,1-6.56,1.13-1.64,2.86-2.76,4.68-3.51,3.75-1.54,7.95-2.02,11.85-3.09,4.01-1.11,7.9-2.59,11.35-4.95,.15-.1-.02-.31-.17-.22-3.86,2.41-8.2,3.86-12.58,4.99-4.08,1.05-8.7,1.47-12.39,3.63-3.42,2-4.93,5.29-4.38,9.19,.58,4.12,2.52,7.88,5.2,11.02,2.7,3.17,6.04,7.33,10.46,7.85,.22,.03,.26-.31,.04-.35h0Zm2.7,3.88c-4-1.49-8.62-.18-10.85,3.57-2.44,4.09-.59,8.46,1.79,12.09,.11,.16,.38,0,.29-.18-1.93-3.59-4.03-7.33-1.87-11.36,2.03-3.78,6.57-5.21,10.54-3.87,.16,.05,.26-.19,.1-.25h0Zm-2.15-2.43c-7.5-1.94-15.93-.37-22.23,4.16-.17,.12,.03,.36,.2,.25,6.58-4.2,14.3-5.66,21.97-4.16,.14,.03,.2-.21,.06-.24h0Zm12.23,29.69c.66-.96,1.18-1.79,2.05-2.61-.29-.16-.58-.32-.87-.48-.02,1.2,.04,2.38,.11,3.57,.03,.52,.91,.51,.92-.02,.05-1.64,.17-3.27,.45-4.9,.29-1.67,.48-3.96,1.36-5.42,1.17-1.94,3.71-2.28,5.69-2.98,1.67-.59,3.37-1.17,4.98-1.89,.28-.13,.16-.6-.16-.53-2.06,.46-4.07,1.14-6.08,1.79-1.54,.5-3.89,.78-4.96,2.1-.98,1.21-1.23,3.3-1.52,4.8-.44,2.28-.65,4.61-.7,6.93,.31,0,.62-.01,.92-.02-.08-1.13-.04-2.19,.04-3.31,.03-.44-.51-.81-.87-.48-1.02,.89-1.76,1.86-2.05,3.19-.08,.37,.47,.56,.67,.27h0Zm5.35-11.64c2.58-.19,5.07-.99,7.62-1.41,1.71-.28,3.83-.18,5.06-1.55,.15-.16,.01-.47-.21-.48-1.86-.07-3.87,.88-5.71,1.26-2.32,.47-4.46,1.54-6.8,1.9-.18,.03-.14,.29,.04,.28h0Zm3.73-4.16c-3.61-.99-7.35,.48-10.32,2.56-3.23,2.26-4.6,6.64-5.89,10.18,.35,.14,.7,.28,1.06,.42,.4-1.42,1.05-2.67,1.8-3.94-.28-.07-.55-.14-.83-.2,.34,1.28,.56,2.58,.8,3.88,.08,.43,.77,.45,.79-.02,.09-1.72-.46-3.4,.08-5.1,.58-1.83,1.95-3.28,3.36-4.5,.4-.35-.11-1-.52-.65-1.35,1.17-2.62,2.51-3.34,4.17-.89,2.05-.27,3.84-.37,5.98,.26,0,.53-.01,.79-.02-.25-1.3-.53-2.58-.68-3.9-.05-.39-.6-.53-.83-.2-.88,1.29-1.5,2.64-2.12,4.07-.29,.67,.8,1.11,1.06,.42,1.09-2.97,2.24-6.84,4.65-9.01,2.71-2.45,6.71-3.72,10.3-3.38,.43,.04,.65-.65,.19-.77h0Zm10.76,.98c-3.18,4-7.22,6.87-9.68,11.46-.54,1.01-.93,2.02-1.39,3.06-.76,1.72-2.07,3.16-3.24,4.61,.37,.21,.73,.41,1.1,.62,1.25-2.28,2.78-4.42,4.15-6.62,1.18-1.89,2.2-3.88,3.92-5.32,2.61-2.18,6.44-4.04,7.94-7.23,.27-.58-.62-1.09-.99-.55-2.3,3.37-5.91,5.13-8.61,8.09-2.96,3.25-4.86,7.52-7.52,11.02-.51,.67,.48,1.35,1.02,.76,2.03-2.22,3.04-4.31,4.28-6.94,1.12-2.37,2.41-4.51,4.21-6.41,1.9-2.02,3.86-3.77,5.28-6.18,.19-.32-.23-.67-.48-.36h0Zm-3.3,5.31c1.15-.55,2.08-1.3,2.99-2.18,.96-.92,1.94-1.75,2.95-2.61-.37-.15-.75-.29-1.12-.44,0,.05,0,.1,0,.15,0,.14,.14,.31,.28,.35,.05,.01,.1,.03,.15,.04,1.38,.39,1.05-1.82-.02-1.29-2.32,1.15-3.5,3.84-5.67,5.24-.41,.27,0,.93,.44,.73h0Zm-9.61,5.21c1.19-2.22,2.12-5.3,4.25-6.73,1.97-1.32,4.11-2.56,5.82-4.22,.16-.15,.02-.44-.21-.35-2.41,1.02-5.14,2.68-7.12,4.4-1.8,1.56-2.47,4.54-3.3,6.67-.14,.37,.38,.55,.55,.22h0Zm.35-.18c.57-1.11,1.14-2.23,1.71-3.34,.89-1.74,1.7-2.5,3.37-3.43,2.09-1.17,4.52-2.13,6.37-3.65,.33-.27,0-.76-.38-.62-1.6,.55-3.02,1.59-4.49,2.43-1.16,.66-2.43,1.22-3.52,1.99-1.95,1.37-2.73,4.31-3.71,6.37-.19,.41,.44,.65,.64,.26h0Zm15.16-10.35c.22,1.58,.92,2.91,2,4.1,1.49,1.63,3.44,2.29,4.59,4.26,.93,1.61,1.9,3.18,3.01,4.68,.69,.94,1.41,1.86,2.22,2.7,.77,.8,1.98,1.35,2.43,2.39,.29,.66,1.18-.23,.5-.52-.72-.3-1.85-2.08-2.41-2.79-.65-.81-1.31-1.6-1.93-2.44-1.19-1.6-2.16-3.32-3.2-5.01-.75-1.23-1.44-1.79-2.57-2.63-1.82-1.37-2.92-2.95-4-4.94-.17-.32-.69-.2-.63,.19h0Zm-.7,.84c.83,1.08,1.46,2.29,2.35,3.33,.71,.84,1.62,1.85,2.78,1.96,.4,.04,.72-.46,.43-.78-.76-.86-1.79-1.44-2.56-2.32-.79-.91-1.57-1.8-2.39-2.68-.34-.36-.91,.08-.61,.48h0Zm.32,.04c-.98,1.6-1.88,3.25-2.94,4.79-.88,1.28-1.99,2.43-2.56,3.9-1.45,3.75-2.15,7.96-3.28,11.82-.1,.32,.36,.66,.56,.32,.56-.92,.41-.59,.74-1.61,.05-.17-.14-.27-.26-.15-.44,.38-.78,.83-1,1.37,.17,.13,.35,.26,.52,.39,2.04-3.31,2.15-7.46,3.42-11.07,.62-1.75,1.94-3.12,2.94-4.66,1-1.53,1.81-3.08,2.37-4.81,.1-.3-.33-.6-.52-.29h0Zm-7.32,18.5c.73-1.44,1.14-3.15,1.39-4.75,.02-.14-.18-.18-.23-.06-.73,1.48-.51,3.27-1.27,4.77-.04,.07,.08,.12,.11,.05h0Zm7.86-19.01c3.9,1.66,8.49,1.52,11.56,4.69,2.08,2.14,4.48,4.23,7.47,4.91,.25,.06,.47-.32,.28-.5-1.3-1.29-3.02-1.87-4.52-2.89-1.5-1.01-2.51-2.53-3.93-3.63-1.44-1.11-3.15-1.43-4.88-1.86-1.94-.49-3.86-1.02-5.86-1.22-.29-.03-.39,.38-.13,.5h0Z"/>
  </g>
</svg>