<?xml version="1.0" encoding="UTF-8"?>
<svg id="Layer_2" data-name="Layer 2" xmlns="http://www.w3.org/2000/svg" viewBox="0 0 98.46 35.93">
  <defs>
    <style>
      .cls-1 {
        fill: #808080;
      }
    </style>
  </defs>
  <g id="Layer_1-2" data-name="Layer 1">
    <path class="cls-1" d="M86.13,17.65c-.02,.61-.55,1.08-1.19,1.07-.64-.02-1.16-.52-1.14-1.12,.02-.6,.55-1.08,1.2-1.07,.64,.02,1.15,.52,1.14,1.12Zm10.7,2.1c-1.48,.93-6.45,3.39-8.72,4.45-2.27,1.06-6.14,2.35-7.11,2.64-.97,.29-4.55,1.37-5.18,1.64-.63,.27-.3,.44-.57,1-.28,.57-.44,1.03-.64,1.68-.2,.65-.19,.31-.48,.48-.29,.18-.53-.59-.8-.31-.27,.28,.12-.7,.34-1.14,.22-.44,.27-1.22,.27-1.22,0,0-.68,.22-.97,.32-.29,.1-.53,.48-1.15,1.09-.62,.61-.69,.3-1.36,1.04-.67,.74-1.92,1.86-2.8,2.56-.88,.71-.66,.45-1.74,.77-1.08,.31-.33-.22-.91-.23-.57-.01-.45-.74,.06-1.33,.51-.59,1.14-.73,2.52-1.5,1.38-.77,1.71-1.6,1.71-1.6,0,0-.45,.17-5.45,.72-5,.55-11.14-.15-11.37-.13-.24,.02-.8,.5-1.19,.8-.4,.3-1.33,1.09-2.71,2.12-1.37,1.04-5.25,1.96-6.53,2.22-1.29,.27-1.3-.12-1.96-.06-.65,.06-.49-.22-.88-.23-.39,0-.47-.19-.14-.66,.33-.46,.34-1.09,.72-1.78,.38-.7,.36-.8,.45-1.45,.09-.65,.59-.82,.86-1.18,.27-.36,.46-.64,.99-1.18,.48-.48,.59-.51,.61-.51-.06,0-1.41-.12-4.22-.26-2.87-.15-5.75-.59-6.54-.42-.79,.16-1.69,.79-4.12,1.96-2.43,1.17-3.66,1.47-4.99,1.49-1.33,.02-2.03-.26-2.6-.54-.57-.28,.57-.87,.79-1.15,.22-.28,.14-.28,.14-.47,0-.18,.26-1.14,.32-1.37,.06-.23-.28-1.18-.51-1.6-.22-.42-.04-.57-.03-.84,0-.26-.22-.58-.19-.84,.03-.26,.38-.54,.38-.54,0,0-.99-.1-2.76,.63-1.77,.74-3.19,2.16-5.06,3.92-1.87,1.75-4.05,3.32-5.66,4.06-1.61,.74-2.65,.72-3.12,.47-.46-.25-1.2,.13-1.56-.2-.36-.32,.26-.85,.34-1.14,.09-.29-.04-.47-.06-.91-.01-.44,.09-.65,.26-1.06,.17-.41,.07-.65,.1-1.07,.04-.42,1.8-3.22,2.32-3.91,.51-.69,1.42-1.5,1.79-1.83,.37-.33,.82-1.55,1.12-2.01,.3-.46,.02-.63-.26-1.05-.28-.42-.24-.68-.78-1.01-.54-.33-.02-1.33-.59-1.53-.57-.2-.2-.27-.64-.54-.44-.27-.11-.84-.46-1.26-.35-.42-.3-.46-.94-1.18-.63-.72-.58-.88-1.22-1.33-.64-.46-.5-.67-.76-.91-.25-.24-.01-.5-.69-1.22-.67-.72-.85-.78-1.42-1.29-.56-.51-.3-.53-.21-.81,.09-.28-.35-.45-.69-.7-.33-.24-.32-.63,.29-1.06,.61-.43,1.33,.03,3.25,.61,1.92,.58,3.86,2.25,7.46,4.35,3.6,2.1,4.72,3.09,5.99,3.62,1.27,.53,4.12-.03,4.85-.03,.73,0,.35-.23,.01-.44-.33-.22-.55-.07-.25-.31,.29-.24,.2-.56,1.02-1.27,.83-.71,1.93-.08,2.76,.3,.83,.39,1.8,.1,5.23-.63,3.44-.72,6.11-1.1,8.3-1.3,2.2-.21,5-.87,5.66-1.01,.66-.14,.27-.33-.16-.76-.43-.43-.66-.64-1.69-1.24-1.03-.6-.72-.57-1.25-1.23-.53-.67-.27-.84-.75-1.35-.48-.51-.19-.58-.71-1.01-.51-.43-.14-.76-.57-1.29-.43-.53-.42-.77-.7-1.27-.28-.5-.59-.35-.9-.67-.31-.32,.41-.56,.98-.65,.58-.09,.56-.38,.75-.63,.19-.26,.43-.3,.63-.3,.21,0,.47-.09,.76-.27,.29-.18,.58-.14,1.02-.05,.44,.09,.14-.2,.61-.38,.47-.17,1.15-.15,5.78,1.58,4.63,1.73,4.98,3.28,6.17,4.75,1.19,1.46,1.48,1.19,2.79,1.17,1.31-.02,3.06-.47,9.79-.2,6.72,.27,10.67,1.14,15.33,2.36,4.67,1.21,8.74,2.51,9.82,2.91,1.07,.39,2.27,.66,3.11,.86,.84,.2,1.44,.23,2.13,.81,.69,.58,.57,1.2,.18,1.78-.39,.58-.75,.89-.75,.89-.14,.45,.45-.11,.63-.13,.18-.02,.65-.11,.67,.49,.01,.6-.14,1.48-1.63,2.41Zm-9.76-2.07c.03-1.09-.9-2-2.06-2.03-1.17-.03-2.13,.83-2.16,1.93-.03,1.09,.9,2.01,2.06,2.04,1.17,.03,2.13-.83,2.16-1.93Z"/>
  </g>
</svg>