<?xml version="1.0" encoding="UTF-8"?>
<svg id="Layer_2" data-name="Layer 2" xmlns="http://www.w3.org/2000/svg" viewBox="0 0 111.36 92.26">
  <defs>
    <style>
      .cls-1 {
        fill: #808080;
      }
    </style>
  </defs>
  <g id="Layer_1-2" data-name="Layer 1">
    <path class="cls-1" d="M.01,29.78c.34-2.83,5.79-3.67,7.92-4.09,6.55-1.27,13.42-1.48,20.14-.88-1.13-3.09,4.12-9.46,5.49-11.22,2.19-2.82,4.36-5.52,6.93-8C42.97,3.22,46.42-.08,50.1,0c3.71,.09,7.08,3.29,9.41,5.89,2.85,3.19,4.91,7.08,5.97,11.22,.94,3.7,1.54,8.89-.52,12.34-.69,1.15-1.67,1.97-3.02,2.21-2.25,.4-4.55,.15-6.85,.33,2.42,1.16,4.76,2.47,6.99,3.93,4.76,1.36,9.35-2.9,13.33-5.15,4.55-2.58,9.33-4.75,14.27-6.48,4.42-1.55,9.16-3.12,13.88-3.21,2.23-.04,6.81,.11,7.61,2.89,.52,1.81-.17,4.37-.3,6.23-.18,2.55-.39,5.1-.58,7.66-.16,2.22-.21,4.47-.75,6.64-.23,.91-.57,1.78-.81,2.68-.54,1.98-.17,3.52-.16,5.48,0,1.71-.59,2.97-1.31,4.48-1.02,2.13-.42,4.17-1.11,6.29-.55,1.69-2.15,2.68-2.99,4.19-1.18,2.09-.76,4.5-1.39,6.74-.63,2.24-2.28,3.78-2.65,6.18-.3,1.99-.84,3.79-1.82,5.57-.88,1.61-4.07,7.69-6.56,5.81-.04,0-.09,0-.14,0-3.77-1.46-6.45-3.96-9.25-6.76-3.33-3.34-5.06-7.49-7.69-11.39-5.19-7.67-10.58-16.89-11.79-26.26-2.79-.43-5.59-.54-8.4-.57-1.38,1.54-2.63,3.88-4.94,3.33-2.66-.64-4.65-2.22-6.88-3.58-3.42-.19-6.82-.5-10.2-1.02-1.68-.26-3.36-.57-5.04-.94-.56,1.1-1.56,.86-1.83,2.16-.21,1.05,.02,1.59-.35,2.6-.11,.28-.91,.49-1.14,.34-3.42-2.2-4.71-4.39-6.32-7.97-3.53-1.37-6.91-3.08-10.04-5.23-1.76-1.21-3.45-2.55-5.01-4.02-.81-.77-1.85-1.56-1.71-2.8Z"/>
  </g>
</svg>