<?xml version="1.0" encoding="UTF-8"?>
<svg id="Layer_2" data-name="Layer 2" xmlns="http://www.w3.org/2000/svg" viewBox="0 0 81.54 56.36">
  <defs>
    <style>
      .cls-1 {
        fill: #808080;
      }
    </style>
  </defs>
  <g id="Layer_1-2" data-name="Layer 1">
    <path class="cls-1" d="M69.82,26.26c4.45,4.3,7.95,10.62,11.65,14.32-7.29,0-20.67-11.54-21.51-9.97-1.12,2.1-2.75,6.41-14.09,16.36-1.39,1.22-.9,5.7,3.56,9.39-10.4-2.13-13.37-10.33-13.37-10.33,0,0-5.29-.68-8.44-1.25l3.33,5.51s-4.54,3.92-10.76-5.79c-7.13-1.78-16.83-7.55-18.29-9.01-1.46-1.46-.7-2.34-.7-2.34,0,0-1.34,.07-1.19-1.41C.05,19.55,21.53,10.38,29.39,9.71,31.98,4.05,40.74,.66,47.17,0c-9.62,5.41-3.07,8.93,2.48,12.9,13.38,9.58,7.57,11.31,10.89,11.31s12.59-14.65,21.01-14.65c-5.32,6.69-9.12,14.09-11.72,16.69Z"/>
  </g>
</svg>