<?xml version="1.0" encoding="UTF-8"?>
<svg id="Layer_2" data-name="Layer 2" xmlns="http://www.w3.org/2000/svg" viewBox="0 0 81.22 78.29">
  <defs>
    <style>
      .cls-1 {
        fill: #808080;
      }
    </style>
  </defs>
  <g id="Layer_1-2" data-name="Layer 1">
    <path class="cls-1" d="M5.01,64.71c-2.4-.59-4.21-2.78-4.76-4.98-.56-2.2-.08-4.4,.6-6.43,.24-.71,.5-1.41,.85-2.08,1.03-1.97,2.75-3.52,4.45-5.02,.98-.87,1.99-1.75,3.25-2.29,.78-.33,1.63-.52,2.48-.71,1.4-.31,2.8-.62,4.27-.66,.78-.02,1.57,.03,2.37,.08,1.04,.07,2.17,.05,3.21,.12,.21-.38,.42-.76,.63-1.14,.25-.45,.51-.92,.94-1.23,.29-.21,.64-.35,.98-.48,.53-.2,1.36-.06,1.67-.49,1.51-2.06,3.02-4.11,4.53-6.17,.95-1.3,1.91-2.6,3.04-3.76,.75-.77,1.58-1.48,2.37-2.22,1.65-1.57,3.1-3.3,4.53-5.06,2.64-3.25,5.19-6.57,7.65-9.96,.61-.84,1.4-1.68,1.86-2.61,.4-.81,.69-1.73,1.03-2.58,.77-1.89,1.5-3.8,2.17-5.73,.12-.34,.24-.7,.49-.97,.25-.27,.49-.43,.9-.33,.93,.88,1.01,2.17,1.3,3.32,.26,1.02,.73,2,1.2,2.97,3.59,7.41,7.5,14.71,11.72,21.89,1.33,2.26,2.58,5.24,5.23,5.87,1.33,.32,2.75,.03,4.01,.6,1.25,.57,1.97,1.81,2.59,2.96,.17,.32,.35,.65,.4,.99,.1,.73-.37,1.36-.36,2.08,.03,1.37,.89,3.14,.53,4.43-.14,.51-.55,.9-.97,1.24-.4,.31-.82,.6-1.26,.86-.55,.32-.98,.33-1.65,.43-1.4,.19-2.1,.43-3.08,1.32-1.05,.95-1.97,2.02-2.72,3.19-.42,.65-.78,1.32-1.15,2-3.55,6.61-6.77,13.39-9.64,20.32-.41,.98-.82,1.99-1.56,2.77-.44,.46-.63,.95-1.32,1.02-.76,.08-1.51-.52-1.91-1.17-.39-.65-.55-1.38-.9-2.05-1.77-3.46-4.21-6.19-7.17-8.98-2.09-1.97-4.18-3.93-6.41-5.76-4.09-3.36-8.63-6.25-13.45-8.56-.64-.31-1.33-.63-1.73-1.19-.69,.07-1.31-.48-1.83-.97-.72-.66-1.46-1.36-1.81-2.21-.12-.29-.19-.59-.27-.88-.11-.46-.23-.92-.34-1.38-.04-.17-.08-.37,.04-.49-.14,.15-2.55-.36-2.92-.36-1-.02-1.97,.07-2.97,.03-2.2-.09-3.85-.04-5.79,.73-1.92,.76-3.21,2.14-4.7,3.38-.67,.64-1.35,1.28-1.88,2.02-1.49,2.05-2.63,4.95-2.68,7.54-.03,1.72,.55,3.59,1.94,4.92,.78,.75,1.2,1.1,2,1.82Z"/>
  </g>
</svg>