<?xml version="1.0" encoding="UTF-8"?>
<svg id="Layer_2" data-name="Layer 2" xmlns="http://www.w3.org/2000/svg" viewBox="0 0 92.75 35.74">
  <defs>
    <style>
      .cls-1 {
        fill: #808080;
      }
    </style>
  </defs>
  <g id="Layer_1-2" data-name="Layer 1">
    <path class="cls-1" d="M91.09,25.27c-1.2,1.79-2.65,3.52-4.7,2.87-.02,0-.03-.01-.05-.02-2.61-.85-4.87-3.91-12.23-4.69-1.12-.12-2.17-.12-3.2-.04,.73,1.05,1.88,2.78,2.07,3.44,.28,.98,.58,1.77,0,2.61s-3.74,2.06-6.38,2.46c-2.64,.4-8.2,.08-11.31-.8-2.19-.62-4.94-2.25-6.38-3.16-2.31,.48-4.5,.91-6.4,1.16-2.95,.39-5.11,.64-7.47,.77,.23,1.15-.02,2.49-.02,2.49,0,0-2.2,.27-4.14-.1,.23,1.58-.04,3.5-.04,3.5,0,0-3.78-.45-5.63-1.83-1.13-.84-2.64-2.5-3.5-3.87-1.49-.13-2.9-.42-4.19-1.03-.26-.12-.51-.25-.76-.38-1.78,1.56-8.45,2.06-10.25,2.12-1.8,.06-3.73,.35-4.58-.62-.85-.97-1.13-1.82,0-3.3-.66-.17-1.21-.17-1.57-.74-.36-.57-.57-1.49,0-2.05,.04-1.09,1.71-3.58,3.53-5.7-.4-.27-.66-.7-.66-1.19,0-.83,.75-1.49,1.67-1.49,.34,0,.66,.09,.93,.25,.23-1.6,1.52-2.83,3.07-2.83,.24,0,.48,.03,.7,.09,.68-.43,1.34-.76,1.94-.92,.27-.07,.58,.01,.92,.22,1.54-2.17,3.49-3.37,6.26-4.62,.99-.45,2.35-.89,3.94-1.28,.88-.95,2.2-2.3,3.38-3.08,1.96-1.31,6.13-2.95,6.88-3.01-.29,.05-2.2,2.26,0,2.32,2.2,.06,3.02-1.74,3.02-1.74,0,0,.8,1.42,1.68,1.51,.88,.09,3.54-2.09,3.54-2.09,0,0,.55,1.26,1.28,1.39,.73,.13,2.79-1.39,2.79-1.39,0,0,.43,.6,.98,.98,.38-.15,.76-.29,1.12-.4,.65-.2,1.42-.36,2.27-.5,.4-.25,.68-.43,.68-.43,0,0,.06,.13,.16,.31,4.42-.58,10.41-.48,13.37-.31,3.75,.21,8.15,.27,9.5,1.45,1.35,1.18,1.55,2.63,1.3,4.41-.25,1.78-2.27,3.58-2.9,4.53-.64,.94-1.54,1.85-1.68,2.38-.05,.19-.05,.43-.03,.65,1.25,.35,2.54,.5,3.95,.3,5.49-.77,9.42-4.76,10.45-5.75,.55-.53,1.21-1.47,1.86-2.37,.82-1.14,1.64-2.2,2.24-2.24,1.06-.07,1.74,.52,2.35,1.39,.61,.87,1.85,6.03,1.92,10.01,.06,3.98-.46,8.57-1.65,10.36Z"/>
  </g>
</svg>