<?xml version="1.0" encoding="UTF-8"?>
<svg id="Layer_2" data-name="Layer 2" xmlns="http://www.w3.org/2000/svg" viewBox="0 0 76.65 44.32">
  <defs>
    <style>
      .cls-1 {
        fill: #808080;
      }
    </style>
  </defs>
  <g id="Layer_1-2" data-name="Layer 1">
    <path class="cls-1" d="M76.49,30.84c-.67,.41-3.5-1.63-5.77-2.6-3.35-1.42-5.26-2.46-9.7-3.57,.03,.39,.02,.8-.02,1.24-.12,1.28-2.54,7.02-5.09,9.48-2.55,2.46-4.74,3.42-8.17,4.28-6.01,1.51-14.4,.58-20.44-.66,.5,.55,1.01,1.16,.94,1.63-.08,.49-.96,.84-.96,.84,0,0,1.98,1.57,1.38,2.35-.59,.78-2.43-.63-2.43-.63,0,0,.13,.94-.29,1.1-.38,.15-1.98-1.12-3.26-2.12-.12,.36-.34,.65-.74,.78-.67,.22-1.23-.29-1.8-.81-.57-.52-1.03-1.75-1.03-1.75,0,0-1.6-.54-2.29-1.3-1.07-1.17-1.75-3.69-1.66-5.12-6.13-1.02-11.19-4.18-12.11-5.05-1.06-1-2.33-2.21-1.34-3.91-.59-.2-1.12-.43-1.43-.93-.5-.83-.26-1.55,.12-2.43-.01,0-.02-.02-.04-.03,.57-.94,3.49-3.31,3.49-3.31,0,0,.86-3.73,2.18-5.24,.94-1.08,1.78-2.19,2.9-2.58,.67-2.19,2.53-5.47,4.9-7,1.89-1.22,5.21-1.87,8.68-2.53C25.99,.32,28.86-.03,32.95,0c4.09,.04,7.99,.03,11.63,1.31,3.65,1.28,5.45,2.82,8.37,5.29,2.92,2.47,5.58,5.5,6.53,7.29,.78,1.47,1.25,3.35,1.27,4.44,4.2,0,6.26-1.76,9.56-4,1.93-1.32,3.74-4.04,4.61-3.81,.87,.23,.03,7.35,.33,11.01,.3,3.66,1.93,8.9,1.25,9.32Z"/>
  </g>
</svg>