<?xml version="1.0" encoding="UTF-8"?>
<svg id="Layer_2" data-name="Layer 2" xmlns="http://www.w3.org/2000/svg" viewBox="0 0 54.53 36.49">
  <defs>
    <style>
      .cls-1 {
        fill: #808080;
        fill-rule: evenodd;
      }
    </style>
  </defs>
  <g id="Layer_1-2" data-name="Layer 1">
    <path class="cls-1" d="M49.49,7.12c.14,.74,3.21-1.34,3.6-1.46,.39-.12,.79,.8,1.33,2.21,.54,1.41-1.05,2.21-1.99,3.06s-2.31,1.84-3.26,4.76c-.96,2.92-4.58,4.95-4.58,4.95-.45,2.76-1.66,3.33-2.56,4-.9,.67-1.64,.61-3.13,.77-1.48,.17-3.5,.99-3.5,.99-.58,2.04-2.06,4.23-2.75,4.79-.69,.56-1.08-.1-1.14-.48s.59-2.43,.31-2.51c-.28-.08-1.78,.42-1.78,.42,.36,1.37-.35,2.98-.77,3.52s-.45,1.64-.79,1.85-1.49-.47-2.67-1.18c-1.18-.71-4.74-.93-5.38-1.33-.63-.4-1.88-.99-2.87-1.16-.99-.17-1.91-.76-1.96-1.24-.06-.48,.61-.67,.39-1.3-.22-.63-.76-.05-1.47,.54-.71,.59-.7,7.24-1.04,7.78-.34,.54-.99,.55-1.55-.2-.56-.74-1.35-2.39-2.54-3.5-1.19-1.11-1.88-2.09-1.98-2.56-.1-.47-1.33-1.46-2.61-2.08-1.28-.62-5.94-3.38-4.54-4.65,1.39-1.27,6.18-.46,8.53,.36,2.36,.82,3.69,.2,3.8-.26,.11-.46-2.14-1.2-2.32-1.6s.12-1.72,1.07-2.38c.95-.66,2.87-2.03,2.87-2.03,0,0-.88,.58-2.12-.13-1.24-.71-2.17-3.1-2.8-4.96-.63-1.86,.32-6.56,4.38-5.75,4.07,.81,5.73-.3,5.73-.3C25.49,1.53,32.62-.22,34.57,.02s7.73,.79,9.56,1.03c1.82,.24,4.9,1.65,5.37,2.17,.47,.52,0,3.9,0,3.9h0Z"/>
  </g>
</svg>