<?xml version="1.0" encoding="UTF-8"?>
<svg id="Layer_2" data-name="Layer 2" xmlns="http://www.w3.org/2000/svg" viewBox="0 0 65.72 37.28">
  <defs>
    <style>
      .cls-1 {
        fill: #808080;
      }
    </style>
  </defs>
  <g id="Layer_1-2" data-name="Layer 1">
    <path class="cls-1" d="M65.63,17.22c-.46-1.09-6.31,1.16-9.81-1.26-.32-1.09-1.13-1.95-2.16-2.29-1.33-1.99-1.93-3.71-5.23-6.84-2.23-2.12-4.71-3.45-8.2-3.91-1.36-.83-3.2-1.82-4.75-2.2C32.59,.02,22.73-.47,19.26,.73c-2.79,.97-7.51,.93-7.51,.93,0,0,.72,1.04,.9,1.8,.18,.77-.35,3.36,0,5.47,.25,1.49,1.04,3.5,1.49,4.56-.34,.49-.63,.99-.86,1.52-.54,0-1.44-.06-2.04-.3-.91-.36-4.66-3.97-6.23-4.65-1.59-.69-3.11-1.94-4.42-.73-1.23,1.14-.18,3.8,.06,5.61,.24,1.84,.95,2.76,1.2,4.6,.25,1.84-.24,5.04,.07,6.21,.29,1.14,.3,2.51,1.49,2.72,.74,.13,1.95-1.18,3.27-2.48,1.72-1.7,2.52-2.42,6.68-3.76,.07,.16,.14,.31,.22,.46-.21,1.19-.61,3.18-.98,3.87-.54,1.01-1.52,1.28-2,2.14-.48,.85-.67,2.42-.67,2.42,0,0,2.48-.37,3.8,.32,1.93,1,12.13,2.66,15.88,2.14,2.5-.35,5.63-1.83,7.45-2.78,.8-.08,1.15-.13,1.51-.17-.73,.54-1.49,1.21-2.02,1.88-1.05,1.32-3.44,4.8-3.44,4.8,0,0,5.14-2.2,6.64-3.52,.81-.72,1.73-1.66,2.33-2.5-.23,.57-.42,1.2-.52,1.79-.24,1.44,.22,3.88,.22,3.88,0,0,1.95-2.21,2.5-3.8,.42-1.21,.81-2.84,.72-3.8,4.2-1.33,7.65-3.97,10.09-5.04,2.59-1.14,6.8-1.04,7.17-2.16,.19-.58-3.23-2.17-3.23-2.17,0,0,3.93-.08,4.87-.6,.94-.52,2.14-1.14,1.74-2.13Zm-22.9,12.7s0,0,0-.01c0,0,0,0,0,0,0,0,0,0,0,.01Z"/>
  </g>
</svg>