<?xml version="1.0" encoding="UTF-8"?>
<svg id="Layer_2" data-name="Layer 2" xmlns="http://www.w3.org/2000/svg" viewBox="0 0 91.19 52.79">
  <defs>
    <style>
      .cls-1 {
        fill: #808080;
      }
    </style>
  </defs>
  <g id="Layer_1-2" data-name="Layer 1">
    <path class="cls-1" d="M91.11,22.74c-.43-1.04-1.19-1.36-2.21-.97,.14-.42,1.45-2.86,.18-2.76-.27,.02-.53-.04-.75-.2-1.32-.98-5.72-4.38-7.67-7.78-2.29-3.97-4.18-6.69-12.48-6.63-.23,0-.46-.07-.65-.2-1.08-.74-4.86-3.29-6.43-3.96,.03,.05,1.1,1.73,1.58,2.16-.4-.32-2.79-2.25-3.51-2.39,0,0,2.02,2.33,2.07,2.92,.05,.59-2.84-2.49-4.53-2.69,0,0,2.37,2.29,2.07,2.75,0,0-2.27-2.32-3.59-2.51,0,0,1.79,1.76,2.15,2.73,0,0-1.79-1.69-3.86-2.24,0,0,2,1.47,1.79,2.43,0,0-2.61-1.91-3.86-2.05,0,0,1.84,1.71,2.03,2.41,.19,.7-2.46-1.67-3.91-1.83,0,0,2.01,2.17,1.95,2.58-.07,.41-3.69-2.17-3.69-2.17,0,0-6.51,1.33-9.43,1.33s-10.5,.26-12.81,.31c-2.3,.05-12.4-.31-16.34-.41-3.94-.1-6.1,.05-6.92,.26s-2.3,.87-2.3,.87c0,0,7.89-.72,11.68,.26,3.79,.97,10.79-.92,14.55,3.69,1.27,1.56,2.48,3.17,3.71,4.76,.95,1.23,1.9,2.48,3,3.57,.28,.28,.57,.54,.89,.77,.14,.1,.29,.21,.45,.28,.25,.1,.66,.16,.69,.51,.02,.15-.08,.29-.19,.39-.3,.25-.77,.3-1.15,.32-2.05,.14-4.54,1.26-7.41-1.33-2.87-2.59-12.98-4.8-18.53,.68l.82,.2s-1.01,.94-.68,.89c.33-.05,.75,0,.75,0l-1.61,1.26s.73,1.47-.49,3.55c-1.23,2.08-2.22,4.75-3.31,5.77-1.09,1.02-1.61,2.25-1.61,2.25,0,0,6.32,6.76,15.54,5.84,3.7-.37,7.19-1.77,10.05-4.15,.9-.75,1.71-1.58,2.52-2.42,.26-.27,.51-.55,.79-.8,.46-.4,1.05-.51,1.63-.68,1.13-.33,2.35-.82,3.55-.67,.13,.02,.25,.04,.36,.1,.11,.06,.2,.17,.21,.3,.02,.16-.09,.3-.19,.42-.87,1-2.09,1.69-3,2.66-1.12,1.2-1.97,2.63-2.4,4.22-1.33,4.92-4.25,10.55-7.84,12.4-3.59,1.84-4.51,3.02-3.28,3.07,.5,.02,1.12-.48,1.52-.73,.94-.58,1.85-1.2,2.78-1.81,2.43-1.59,4.92-3.14,7.6-4.27,1.01-.42,2.04-.79,3.11-1.02,.66-.14,1.33-.18,1.99-.32,1.02-.23,2.14-.55,2.88-1.33,.25-.26,.46-.55,.74-.77,.68-.51,1.69-.52,2.5-.64,1.06-.16,2.12-.29,3.18-.51,.64-.13,1.28-.29,1.9-.49,.51-.16,1.07-.29,1.37-.78,.06-.1,.11-.21,.18-.31,.11-.14,.23-.28,.35-.41,.3-.33,.63-.65,.96-.96,.61-.58,1.25-1.17,1.97-1.61,0,0,0,0,.01,0,1.02-.61,6.25,.14,7.27,.14s-4.4,2.84-8.03,3.31c.38-.05,.89,.12,1.27,.15,1.07,.11,2.14,.18,3.21,.21,2.44,.06,5.1-.06,7.24-1.37,1.65-1.01,3.26-2.26,5.14-2.8,.39-.11,.8-.19,1.2-.25,2.56-.38,7.41-1.5,9.15-3.11,1.07-.99,1.49-1.63,2.91-2.12,1.91-.67,3.91-1.38,5.54-2.65,.84-.65,1.43-1.41,2.02-2.28,.57-.83,1.64-1.79,1.7-2.86,0-.16,0-.33-.07-.48Zm-8.85-4.74c-.89,0-1.61-.72-1.61-1.61s.72-1.61,1.61-1.61c.16,0,.32,.02,.47,.07-.04,0-.08,0-.12,0-.64,0-1.16,.54-1.16,1.2s.52,1.2,1.16,1.2,1.16-.54,1.16-1.2c0-.11-.02-.21-.04-.31,.09,.2,.14,.42,.14,.66,0,.89-.72,1.61-1.61,1.61Z"/>
  </g>
</svg>