<?xml version="1.0" encoding="UTF-8"?>
<svg id="Layer_2" data-name="Layer 2" xmlns="http://www.w3.org/2000/svg" viewBox="0 0 49.68 81.68">
  <defs>
    <style>
      .cls-1 {
        fill: #808080;
      }
    </style>
  </defs>
  <g id="Layer_1-2" data-name="Layer 1">
    <path class="cls-1" d="M47.05,11.46C43.17,4.79,36.61,1.55,28.75,.28,20.89-.98,12.33,2.2,7.74,5.52,3.15,8.84,1.07,16.25,.17,20.61c-.9,4.36,2.06,6.93,2.42,13.12,.37,6.19,3.46,11.6,2.93,8.95-.54-2.65-.54-4.48-.54-7.91,0-.6,0-1.19,0-1.79,0-.56,.1-1.18,.02-1.73-.05-.37-.25-.67-.46-.98-.22-.34-.48-.66-.76-.96-.16-.17-.31-.36-.46-.54-.15-.18-.3-.37-.43-.56-.28-.38-.54-.77-.78-1.17-.24-.4-.46-.82-.64-1.25-.04-.11-.1-.21-.13-.32l-.12-.33c-.07-.22-.14-.44-.2-.67-.11-.45-.17-.92-.17-1.38,.04,.46,.15,.91,.29,1.34,.07,.22,.16,.43,.25,.64l.15,.31c.05,.1,.11,.2,.16,.3,.22,.4,.46,.78,.74,1.15,.27,.37,.55,.72,.86,1.06,.15,.17,.31,.33,.47,.5,.16,.16,.32,.32,.49,.47,.85,.76,1.56,1.66,1.88,2.77,.28,.97,.31,2.04,.35,3.04,.03,1,.02,1.99,.01,2.99,0,.79-.02,1.58-.02,2.37,0,4.03-.87,8.36-.11,12s3.83,6.93,2.56,3.97c-1.27-2.96-1.8-6.9-.99-10.84,.82-3.94,.37-8.64,.54-13.18,.17-4.53,1.18-3.46,2.25-.46,1.07,3,2.51,5.78,1.91,9.61-.59,3.83-.03,6.36,.79,10.22,.82,3.86-2.06,8.11-.39,5.88,1.66-2.22,2.51-3.35,1.69-8.11-.82-4.76-.87-4.93-.17-8.36,.7-3.44,1.58-5.43,1.63-1.94,.06,3.49,.11,3.6,1.41,4.67,1.3,1.07,.99,1.27,1.89,4.84,.9,3.58,.37,6.08-2.68,11.8-3.04,5.72,.03,6.25,.56,9.1,.54,2.84-4.31,4.11-5.86,7.66-1.55,3.55-10.45,4.59-3.89,3.63,6.56-.96,4.36-2.28,8.17-4.98,3.8-2.7,2.79-4.76,3.35-3.35,.56,1.41,.56,2.34,4.59,4.87,4.03,2.53,4.45,6.65,4.73,3.44,.28-3.21-.82-4.03-3.15-5.89-2.34-1.86-4.17-4.62-3.72-5.6,.45-.99,2.06-3.07,4.56-5.74,2.51-2.68,2.48-5.18,3.44-3.49,.96,1.69,3.04,3.52,6.67,8.56,3.63,5.04,2.31,17.57,3.24,7.69,.93-9.88-9.66-18.16-9.45-19.57,.21-1.41,1.48-3.6,.8-7.83-.68-4.22,.73-6.48-.17-8.97s-.99-3.06,.72-1.39c1.72,1.67,.8,4.75,1.51,3.15,.71-1.6,.68-2.2-.77-4.86s-.62-2.67,1.07-1.26c1.69,1.41,2.5,3.96,2.72,7.34,.23,3.38-.94,10.23,.99,5.39,1.93-4.84,.64-6.81,.56-11.62-.08-4.81,.98-4.88,.98-4.88,.68-.13,.73-.21,.68,2.63-.06,2.83,.74,4.05,.21,8.11-.54,4.05,.62,13.57,.54,17.6-.08,4.03-.31,11.15,1.01,5.41,1.32-5.74,.03-9.35,.03-14.3s-.56-7.83,.56-13.15c1.13-5.32-1.01-8.9,1.77-10.08,.46-.19,.91-.28,1.41-.38,.11-.02,.23-.05,.32-.12,.2-.17,.16-.48,.19-.73,.04-.39,.27-.73,.53-1.02,.26-.29,.57-.53,.82-.83,.7-.81,.99-2,1.2-3.02,.23-1.12,.32-2.27,.41-3.41,.04,1.42-.07,2.81-.28,4.21-.16,.89-.39,1.79-.92,2.52-.35,.48-.78,.83-.99,1.41-.35,.95,.09,1.85-.09,2.81-.16,.88-.49,1.74-.83,2.56-1.66,4.05,.9,9.46,.9,12.98s-2.53,10.56,.14,6.05c2.68-4.51,1.66-6.05,.87-10.78-.79-4.73,.25-6.03,1.49-10.39,1.24-4.36,2.48-11.46-1.41-18.13ZM24.2,58.98c-1.46,1.76-1.9,2.87-2.78,5.33-.88,2.46-1.45,2.29-1.45,2.29-.19,.06-.64,.39-.69-1.52-.06-1.91,.79-2.42,.98-5.52,.19-3.1,.68-2.4,1.91-5.31,.26-.61,.63-1.26,.77-1.9,.15-.72,.04-1.47-.04-2.2-.29-2.56-.23-5.18,.45-7.66,.49-1.77,.3-3.65,.11-5.48,.31,1.81,.61,3.66,.24,5.46-.38,1.83-.41,3.7-.25,5.56,.15,1.71,.54,3.36,.51,5.08-.01,.6,.04,1.25,.4,1.73,.25,.33,.61,.56,.85,.89,.81,1.14-.32,2.4-1.02,3.25Z"/>
  </g>
</svg>