<?xml version="1.0" encoding="UTF-8"?>
<svg id="Layer_2" data-name="Layer 2" xmlns="http://www.w3.org/2000/svg" viewBox="0 0 75.23 44.26">
  <defs>
    <style>
      .cls-1 {
        fill: #808080;
      }
    </style>
  </defs>
  <g id="Layer_1-2" data-name="Layer 1">
    <path class="cls-1" d="M75.05,22.63c-.51,1.58-2.36,2.03-3.48,3.08-1.58,1.5-3.43,2.61-5.27,3.75-1.6,1.07-3.24,2.11-5.01,2.86-1.33,.74-2.77,1.41-4.29,1.57,.04,.15,.07,.29,.09,.45,.26,1.62,.06,3.32-.6,4.82-.88,2.29-3.58,2.37-5.55,3.13-1.75,.55-3.25,1.96-5.13,1.98-1.57-.11-2.17-1.89-2.23-3.23-.06-3.02,1.29-5.99,3.22-8.35-.06,.02-.11,.03-.17,.04-.79,.17-1.61,.14-2.41,.13-2.39-.07-4.79-.16-7.18-.23-1.89-.35-3.71-.99-5.56-1.51,.78,.52,1.59,.99,2.48,1.27,.14,.05,.34,.09,.31,.28,0,.02,0,.04-.02,.06,0,.02,0,.04-.01,.06-2.38,3.96-3.69,5.16-8.47,5.23-1.59,0-3.47-.47-3.95-2.2-.48-.92-.53-1.95-.6-2.96-.04-.49-.2-1.02-.04-1.5,.92-.76,2-1.3,3.07-1.85-1.21,.24-2.39,.64-3.5,1.19-4.39,2.06-8.54,5.45-13.61,5.39-1.13-.04-2.38-.13-3.25-.93-1.76-1.66-2.77-3.97-3.31-6.3-1.11-3.66-.75-8.21,2.24-10.88,3.12-2.71,7.4-1.18,11.01-.61,2.76,.31,5.69,.06,8.23-1.08,.98-.49,2.04-.9,2.8-1.71,.07-.07,.15-.14,.21-.22-1.54,1.03-3.28,1.83-5.12,1.95-1.34-.06-.93-2.15-1.42-3.04-.7-1.21-.39-2.41,.2-3.52,.68-1.75,2.29-3.26,3.85-4.13,.55-.33,1.14-.52,1.74-.63,.04,0,.09-.02,.13-.03,.02,0,.04,0,.07,0,1.11-.16,2.28-.03,3.4,.12,1.28,.19,2.68,.12,3.99,.31,.27,.01,.55,.04,.82,.1,.15,.06,.3,.13,.45,.2,.61,.22,1.18,.54,1.68,1.05,.33,.36,.62,.79,.96,1.15,.13,.12,.26,.24,.41,.34,1.01,.44,2.04-.33,2.4-1.27,0-.04,0-.08,.01-.11,.12-.49,.11-1,.19-1.49,.19-2.16,1.48-4.07,3.65-4.61,2.83-.87,6.09-1.11,8.82,.22,1.65,.85,3.72,2.78,2.55,4.76-.06,.12-.11,.24-.17,.36-.02,.03-.03,.07-.05,.1-.01,.03-.03,.06-.04,.08,0,0,0,0,0,.01,0,0,0,0,0-.01-.03,.06-.06,.12-.1,.18h0s-.09,0-.13,0c-.11,0-.22,.01-.33,.03h0s-.1,0-.15,.02c0,0-.01,0-.02,0h-.05s-.02,0-.03,0c-.02,0-.03,0-.04,0-.02,0-.04,.01-.06,.02-.76,.04-1.53,.15-2.16,.5,.65-.1,1.52-.12,1.67-.12,.17,0,.35,.01,.52,.02,.03,0,.07,.01,.11,.01h.01c.1,0,.2,0,.29,.01,0,0,0,0,0,0h0s0,0,0,0h0s0,0,0,0h0s0,0,0,0h0s0,0,0,0c0,0,0,0,0,0h.08c.06,.01,.11,.02,.17,.02,1.03,.09,2.06,.26,3.06,.56,2.99,.77,5.78,2.14,8.35,3.84,2.53,1.61,5.02,3.33,7.21,5.38,.56,.55,1.09,1.15,1.76,1.58,.58,.37,1.33,.76,1.41,1.52,.05,.66-.29,1.13-.78,1.46,.48,.2,.77,.83,.61,1.34Zm-15.07,11.24s-.06,.03-.09,.04c-.13,.05-.27,.1-.4,.14-.16,.05-.33,.09-.49,.14-.16,.05-.31,.08-.47,.12,0,0,.02,0,.03,0-.15,.03-.3,.08-.45,.11-.08,.01-.16,.03-.24,.04-.04,0-.08,.02-.12,.02,0,.1,0,.2,0,.3,.33,2.35-.14,5.11-2.3,6.46-.04,.04-.09,.08-.14,.12,.1-.04,.21-.08,.32-.12,.32-.11,.65-.19,.97-.29,.09-.03,.19-.06,.28-.09,.11-.04,.23-.07,.34-.11t0,0h0s0,0,.01,0c0,0,0,0-.01,0,.22-.08,.43-.18,.65-.27h0c.14-.07,.28-.14,.42-.21t0,0s0,0,0,0c0,0,.01,0,.02,0,0,0,0,0,0,0,.03-.02,.07-.04,.1-.06,1.83-1.28,2.29-2.78,1.62-6.22,0-.04-.02-.07-.05-.09Z"/>
  </g>
</svg>