<?xml version="1.0" encoding="UTF-8"?>
<svg id="Layer_2" data-name="Layer 2" xmlns="http://www.w3.org/2000/svg" viewBox="0 0 80.69 60.51">
  <defs>
    <style>
      .cls-1 {
        fill: #808080;
      }
    </style>
  </defs>
  <g id="Layer_1-2" data-name="Layer 1">
    <path class="cls-1" d="M66.14,42.06s-.57,1.94-.74,4.87c-.16,2.92-2.43,6.99-5.97,9.63-3.54,2.64-5.44,3.05-7.77,3.05s-2.32-2.64-1.5-4.63c.82-1.99,1.49-2.58,2.89-4.44,1.4-1.87,1.94-2.63,2.36-4.21,.42-1.58-.23-2.19,1.54-3.01,1.77-.82,3.96-.6,3.99-1.13,.03-.53-.88-.46-3.09-.31-2.21,.15-2.63,.32-4.29,.49s-1.93-.08-1.99,1.76,.03,4.28-2.46,8.39c-2.49,4.11-4.25,6.32-8.22,7.52-3.97,1.21-1.9,.12-.47-3.33,1.43-3.46,2.78-5.58,1.74-9.63-1.04-4.05-2.65-7.74-2.16-9.95,.49-2.21,6.11-1.89,.03-2.56-6.07-.67-8.08,.31-10.37,2-2.29,1.68-10.73,6.55-15.68,7.41-4.95,.86-7.52-.18-8.35-1.18s2.13,.17,5.48-.8c3.35-.97,2.85-1.22,.15-.8s.4-.27,2.54-.73c2.14-.46,2.65-1.1,.29-.73-2.36,.38-2.31,.18,.57-.35,2.88-.53,5.89-1.67,3.03-1.2-2.86,.47,.55-.37,2.64-1.3,2.09-.93,3.39-1.51,.3-1.09-3.1,.42-3.32,.36-.97-.27,2.35-.62,3.63-1.77,5.16-2.26,1.53-.49-.84-.21-2,0-1.17,.21,.53-.62,2.81-1.21,2.28-.58,.63-1-1.39-1.05-2.02-.05-2.99-.5-3.85-1.03-.87-.53,.85,.26,2.95,.09,2.11-.16-1.09-1.12-3.52-1.55-2.42-.43,.14-.21,2.34-.08,2.2,.13,1.56-.27-1.36-.91-2.92-.64-4.12-1.16-4.83-1.51-.71-.35-.93-.18,2.06,.08,2.99,.26,1.92-.19-1.36-.97-3.29-.78-5.44-1.01-3.01-.86s4.44,.46-.08-.65c-4.53-1.12-5.81-1.68-10.14-2.15-4.33-.48-4.92-1.68,.4-1.72,5.32-.04,10.45,.14,13.45,1.29,3.01,1.15,9.2,3.5,14.84,5.05s7.4,.76,11.35-.14c3.95-.9,5.67-.73,2.71-1.04-2.96-.32-3.21-.43-3.08-1.18,.13-.75-.12-2.24,1.37-4.77,1.49-2.54,.16-3.74-1.04-6.5-1.21-2.76-1.17-4.52-3.91-5.68-2.74-1.17-2.88-2.58-7.28-3.48-4.4-.9-5.01-1.78-7.07-2.64-2.07-.86,.92-.9,5.54,0s11.1,3.37,16.23,6.62c5.13,3.25,5.5,6.11,7.24,9,1.74,2.88,2.9,3.05,4.52,3.57,1.62,.52,1.77-.27,1.87-1.95,.1-1.68,.4-4.83,.03-6.31s.41-1.35-.34-2.01,.4-1.13-.72-1.73c-1.11-.59-1.46-.48-1.3-.96s-1.15-.72,.42-1.02c1.56-.31,3.2-.28,4.36,2.48,1.16,2.76,1.95,5.62,2.45,8.45,.5,2.83-.59,4.03,.98,4.39,1.57,.36,4.08,1.97,5.87,3.11,1.79,1.13,4.62,2.46,5.96,3.46,1.34,.99,1.72,1.25,1.13,2.22-.58,.97-.24,.45,.36-.02,.59-.47,1.21,.34,.78,1.63-.43,1.29-1.56,3.09-2.47,4.5-.91,1.41-2.21,3.34-4.33,4.4-2.13,1.05-3.06,1.2-4.36,1.15s-1.44,.32-2.09,.37c-.65,.05-1.01-.26-1.15,.07Z"/>
  </g>
</svg>