<?xml version="1.0" encoding="UTF-8"?>
<svg id="Layer_2" data-name="Layer 2" xmlns="http://www.w3.org/2000/svg" viewBox="0 0 108.47 53.17">
  <defs>
    <style>
      .cls-1 {
        fill: #808080;
      }
    </style>
  </defs>
  <g id="Layer_1-2" data-name="Layer 1">
    <path class="cls-1" d="M107.86,30.22c.66,2.04,.67,4.13,.55,6.23-.09,1.62-.84,3.01-1.8,4.29-.2,.27-.42,.51-.63,.77-.65,.44-1.28,.9-1.95,1.31-1.03,.63-2.15,1-3.34,1.17-1.58,.23-3.15,.51-4.72,.77-.12,.02-.24,.03-.36,.04-3,.24-6,.38-9.01,.33-.17,0-.34,.02-.5,0-.8-.1-1.33,.26-1.65,.98h0s.02,.02,.02,.02l-.03-.02c-.96,1.13-1.83,2.34-2.89,3.36-1.26,1.22-2.64,2.34-4.22,3.17-1.07,.56-2.2,.61-3.35,.48-.32-.04-.67-.18-.9-.4-.39-.37-.81-.46-1.31-.42-1.18,.09-2.2-.32-3.12-1.02-.93-.7-1.5-2.44-1.22-3.56,.24-.94,.57-1.82,1.31-2.49,.08-.07,.11-.19,.17-.29-.11-.03-.21-.09-.32-.1-2.05-.1-4.1-.2-6.15-.3-1.88-.1-3.77-.19-5.65-.31-.74-.05-1.47-.15-2.2-.25-1.24-.18-2.35,.23-3.45,.72-1.53,.68-3.03,1.42-4.59,2.01-1.8,.69-3.63,1.29-5.47,1.86-1.02,.32-2.07,.58-3.13,.72-1.08,.15-2.19,.14-3.29,.16-.95,.02-1.91,.04-2.83-.31-.4-.16-.81-.29-1.18-.5-.59-.33-.76-.99-.45-1.61,.49-.97,1.32-1.63,2.18-2.23,.96-.67,1.97-1.26,2.95-1.89,.11-.07,.19-.19,.29-.29-.12-.07-.23-.17-.35-.2-.25-.07-.51-.11-.78-.13-1-.1-1.99-.2-2.99-.28-1.52-.12-3.04-.21-4.56-.34-1.37-.12-2.75-.28-4.12-.46-.29-.04-.42,.04-.56,.29-1.1,1.96-2.73,3.42-4.54,4.69-1.43,1.01-2.96,1.86-4.59,2.48-1.62,.61-3.28,1.14-4.95,1.63-1.16,.34-2.35,.62-3.55,.79-1.1,.16-2.22,.34-3.35,.1-1.06-.22-1.59-.9-1.19-1.91,.34-.87,.83-1.73,1.42-2.46,1.07-1.31,2.29-2.5,3.39-3.79,.83-.98,1.59-2.01,1.94-3.3,.35-1.27,.14-2.46-.22-3.66-.67-2.26-1.85-4.29-2.96-6.34-.93-1.71-1.7-3.48-2-5.4-.15-.93-.19-1.89,.17-2.83,.42-1.13,1.54-1.78,2.73-1.56,1.81,.34,3.44,1.1,4.99,2.07,2.45,1.52,4.62,3.38,6.84,5.2h0s.03-.03,.03-.03l-.02,.03c.72,.66,1.44,1.32,2.15,1.99,1,.93,2.03,1.82,2.97,2.8,.54,.56,1.12,.58,1.76,.46,.89-.16,1.78-.32,2.65-.56,1.12-.31,2.23-.67,3.32-1.07,1.73-.63,3.31-1.56,4.81-2.65,.86-.63,1.47-1.41,1.95-2.33,.41-.78,.82-1.56,1.21-2.36,.19-.4,.47-.63,.91-.72,2.26-.48,4.02-2.83,3.63-5.32-.07-.46-.31-.9-.48-1.34-.25-.67-.16-.85,.54-.98,.26-.05,.52-.12,.78-.11,1.83,.05,3.63-1.65,4.09-3.44,.17-.68,.35-1.33,.12-2.04-.11-.34,.12-.41,.41-.36,.81,.14,1.6,.03,2.4-.16,1.71-.4,2.99-2.18,3.08-3.64,.01-.21,0-.44,.08-.63,.04-.1,.23-.14,.36-.21,.5,.66,1.22,.98,1.96,1.26,1.77,.66,3.38,.22,4.84-.88,.89-.67,1.34-1.65,1.65-2.7,.04-.14,.05-.28,.08-.42,.05-.25,.17-.27,.34-.1,.23,.24,.44,.51,.68,.74,.75,.72,1.64,1.1,2.7,1.11,1.1,.01,2.14-.05,3.06-.74,.83-.63,1.4-1.42,1.72-2.41,.04-.12,.14-.23,.21-.34,.1,.09,.22,.17,.3,.28,.35,.45,.64,.95,1.03,1.36,.82,.88,1.95,1.19,3.06,1.17,1.16-.02,2.29-.41,3.19-1.26,.46-.43,.57-.43,.82,.12,.79,1.74,2.23,2.58,4.02,2.85,.61,.09,1.28-.09,1.9-.24,.51-.12,.86,0,1.23,.34,2.3,2,4.39,4.19,5.89,6.87,.42,.75,.96,1.25,1.68,1.67,3.35,1.96,6.22,4.48,8.73,7.44,1.27,1.5,2.47,3.04,3.47,4.73,.91,1.54,1.6,3.19,2.16,4.89Z"/>
  </g>
</svg>