<?xml version="1.0" encoding="UTF-8"?>
<svg id="Layer_2" data-name="Layer 2" xmlns="http://www.w3.org/2000/svg" viewBox="0 0 131.65 80.42">
  <defs>
    <style>
      .cls-1 {
        fill: #808080;
      }
    </style>
  </defs>
  <g id="Layer_1-2" data-name="Layer 1">
    <path class="cls-1" d="M131.55,26.88c-.42-2.25-1.93-2.63-3.11-4.35-2.87-4.17-5.71-6.16-10.9-6.09-3.83,.06-7.59,.79-11.14,2.21-.76,.3-1.51,.65-2.28,.94-4.45-1.11-18.26-.68-18.26-.68-7.63,0-7.81-6.11-7.81-6.11-1.57-11.8-7.19-12.5-7.19-12.5,0,0-3.67-1.09-1.77,.81,1.9,1.9,2.18,5.77,2.18,5.77,.46,9.67-5.77,11.7-5.77,11.7h6.08c-33.41,2.58-45.12,30.03-45.12,30.03-13.23,2.7-24.3,12.82-24.3,12.82-4.18,2.57-1.01,2.57-1.01,2.57,3.61-3.61,10.26-2.63,10.26-2.63,12.42,1.48,13.16-2.63,13.16-2.63,.34,4.32,12.69-1.42,15.05-.34,2.36,1.08,2.3,.88,2.3,.88,0-5.47-10.29-9.11-10.29-9.11,12.55-10.43,27.44-6.78,27.44-6.78,6.58,3.85,21.16,8,21.16,8,0,0-12.35,20.86-14.38,25.72-2.02,4.86,0,2.94,0,2.94,6.58-4.86,19.49-28.2,19.49-28.2,5.32,1.32,14.36,.48,14.36,.48l-2.7,2.7c-3.68,3.68,1.96,11.61,1.96,11.61,2.9,4.45,4.79,4.79,9.45,6.68,4.66,1.89,3.78,0,6.21-6.48,2.43-6.48-3-15.76-3-15.76-1.21,.56-6.92,.57-6.92,.57,11.2-.95,17.08-6.68,17.08-6.68,4.42-4.42,6.07-9.99,6.07-9.99-9.58-3.78-28.72-.37-28.72-.37-3.07,1.05-1.92-1.92-1.92-1.92-3.52,0-8.15,4.58-8.3,4.72,1.77-2.43,4.3-4.25,7.03-5.47,.8-.36,1.78-.83,2.68-.79,.27,.01-.78,1.96-.42,2.27,.22,.19,.6,.04,.83-.06,20.05-4.79,29.72,.06,29.72,.06,1.84-1.77,3.28-3.97,2.8-6.55Zm-79,7.4c-3.44-3.44-9.18,3.08-9.18,3.08-.92,2.41,3.54,2.27,3.54,2.27-4.08,.82-4.47-.93-4.47-.93,.45-6.98,9.02-7.36,10.64-5.03,1.61,2.31,6.75,8.51,6.83,8.61-.75-.75-5.58-6.2-7.37-8Zm46.68-8.81c-.51,1.27-2.4,1.82-2.4,1.82-2.08,3.7-3.54,3.54-3.54,3.54-1.65,.47-3.71-1.08-3.71-1.08-4.18-1.86,6.68-5.94,6.68-5.94,1.96-1.01,2.98-.47,2.98-.47,1.63,1.63,0,2.13,0,2.13Z"/>
  </g>
</svg>