<?xml version="1.0" encoding="UTF-8"?>
<svg id="Layer_2" data-name="Layer 2" xmlns="http://www.w3.org/2000/svg" viewBox="0 0 77.95 34.5">
  <defs>
    <style>
      .cls-1 {
        fill: #808080;
        fill-rule: evenodd;
      }
    </style>
  </defs>
  <g id="Layer_1-2" data-name="Layer 1">
    <path class="cls-1" d="M.21,27.96s-.66-.9,.36-1.75c1.01-.85,3.96-1.88,4.23-2.43,.27-.55,1.28-4.48,4.75-5.98,3.47-1.5,7.73-2.81,9.53-3.9,1.8-1.09,11.03-2.02,12.34-3.33,1.31-1.31,2.95-7.97,6.72-10.05,0,0,2.13-.9,2.46-.22,.33,.68-.82,4.2-.36,5.51,.46,1.31,2.79,3.71,4.42,3.71s9.88-.11,12.67-3.41c0,0-2.32-2.29-1.42-5.43,0,0,.24-1.1,1.14-.51,.9,.59,2.02,2.42,4.45,2.63,2.43,.22,12.67,1.37,15.53-.25,0,0,1.26-.33,.85,.68-.41,1.01-4.64,3.33-6.25,3.77-1.61,.44-5.35,.25-6.5,1.42-1.15,1.17-3.99,6.82-8.35,9.39s-6.88,3.77-8.24,4.59c-1.36,.82-13.43,4.86-15.94,4.8,0,0,2.61,4.41,5.39,5.23,0,0,2.48,1.15-1.83,1.97-4.31,.82-11.3-3.99-12.56-6.12,0,0-8.05,.76-9.72-.03-1.66-.79-6.88,.14-8.08,.27-1.2,.14-4.8,.93-5.58-.58H.21Z"/>
  </g>
</svg>