<?xml version="1.0" encoding="UTF-8"?>
<svg id="Layer_2" data-name="Layer 2" xmlns="http://www.w3.org/2000/svg" viewBox="0 0 53.07 29.9">
  <defs>
    <style>
      .cls-1 {
        fill: #808080;
        fill-rule: evenodd;
      }
    </style>
  </defs>
  <g id="Layer_1-2" data-name="Layer 1">
    <path class="cls-1" d="M7.62,26.04s-3.35-.09-3.16-4.07c.19-3.98,1.59-8.02-.51-11.04C1.85,7.9,.65,8.74,.02,1.62,.02,1.62-.27-.74,1.18,.24c1.44,.98,4.24,3.48,9.8,3.52,5.55,.04,8.6,2.23,12.57,.91,3.97-1.32,4.25-1.71,5.06-1.82,.8-.11,1.38,.73,1.82,.54,.44-.19,3.63-2.53,7.41-.78,3.78,1.75,4.81,2.7,6.7,5.33,1.89,2.63,5.23,3.77,6.23,4.23,1,.46,5.52,3.49-1.67,8.68,0,0,4.53-3.25,2.83-6.36-1.14-2.09-4.19-2.27-6.18-3.96-1.45-1.22-3.59-4.47-5.76-5.51-2.17-1.04-4.38-2.41-6.59-1.58,0,0-1.13,.45-1.51,1.41,0,0,.97-.14,1.34,.33,.37,.47,.81,1.19,1.23,1.54,.41,.35,1.13,.93-.33,2.9,0,0,1.03,6.63,4.18,10.84,3.15,4.21,7.49,8.1,7.89,9.28,0,0,0,.29-.59,.04-.58-.26-5.09-3.39-9.63-3.56-4.54-.17-8.14-.96-10.53-.02-2.4,.94-4.46,.12-6.01,.28s-4.51,.78-5.74,1.01c-1.23,.24-2.52,.76-4.13,.14-1.61-.62-1.55-1.73-1.55-1.73l-.36,.12h0Z"/>
  </g>
</svg>