<?xml version="1.0" encoding="UTF-8"?>
<svg id="Layer_2" data-name="Layer 2" xmlns="http://www.w3.org/2000/svg" viewBox="0 0 205.72 52.03">
  <defs>
    <style>
      .cls-1 {
        fill: #808080;
      }
    </style>
  </defs>
  <g id="Layer_1-2" data-name="Layer 1">
    <path class="cls-1" d="M116.77,0c.49,.03,.99,.07,1.48,.09,4.95,.18,9.9,.33,14.84,.54,3.23,.14,6.46,.34,9.69,.56,3.9,.27,7.8,.59,11.7,.92,3.42,.28,6.83,.58,10.25,.9,2.9,.27,5.8,.56,8.69,.84,.07,0,.13,.02,.28,.05-1.2,1.09-2.36,2.13-3.59,3.23,1.4,.13,2.69,.25,3.98,.36,2.26,.19,4.52,.44,6.78,.54,.89,.04,1.8-.19,2.68-.36,4.76-.88,9.54-1.67,14.41-1.44,1.42,.07,2.84,.29,4.25,.46,.19,.02,.42,.15,.53,.3,1.31,1.85,2.31,3.85,2.75,6.09,.55,2.82,0,5.45-1.48,7.86-.81,1.33-1.85,2.53-2.81,3.77-.11,.14-.39,.22-.57,.2-5.5-.77-10.76-2.4-15.93-4.39-.54-.21-1.14-.26-1.72-.34-1.96-.26-3.92-.5-5.88-.75,1.23,1.2,2.51,2.44,3.87,3.76-1.45,.5-2.83,1.02-4.24,1.46-4.26,1.35-8.61,2.3-13.03,2.91-3.5,.48-7.01,.92-10.53,1.25-3.4,.32-6.81,.49-10.21,.68-3.41,.19-6.82,.34-10.23,.5-3.46,.16-6.93,.28-10.39,.49-3.23,.19-6.45,.46-9.67,.71-.78,.06-1.56,.18-2.35,.22-.31,.02-.64-.02-.93-.13-2.17-.82-4.32-1.67-6.48-2.5-.27-.1-.59-.16-.88-.14-3.59,.3-7.19,.63-10.78,.94-.19,.02-.39,.03-.6,.1,3.56,.59,7.04,1.47,10.32,3.22-1.77,1.01-3.45,2.15-5.53,2.15-1.17,0-2.33-.25-3.5-.37-.55-.06-1.13,0-1.64-.15-1.02-.3-2.03-.67-3.02-1.07-1.66-.68-3.31-1.4-5.03-2.14,.23-.16,.39-.27,.55-.38l-.05-.15c-2.37,.62-4.77,1.17-7.11,1.88-5.17,1.56-10.37,3.02-15.7,3.95-3.46,.61-6.95,1.04-10.44,1.45-3.75,.44-7.53,.46-11.3,.32-3.72-.14-7.4-.58-11.07-1.21-.83-.14-1.71,0-2.56,.06-4.59,.29-9.09-.32-13.52-1.46-1.77-.45-3.51-1.05-5.27-1.58-.12-.03-.23-.07-.46-.13,.83,1.15,1.85,1.91,2.94,2.58,2.34,1.44,4.93,2.3,7.53,3.14,3.22,1.03,6.46,2.02,9.64,3.15,1.43,.51,2.75,1.33,4.19,2.05-.17,.12-.2,.16-.21,.15-2.28-1.3-4.79-1.98-7.31-2.67-3.11-.85-6.23-1.65-9.31-2.59-2.21-.67-4.28-1.68-6.08-3.17-.96-.79-1.76-1.72-2.38-2.81-.07-.12-.15-.23-.22-.34-.05,.02-.09,.04-.14,.06,.2,.51,.37,1.02,.6,1.52,1.23,2.7,3.3,4.63,5.78,6.16,2.67,1.65,5.59,2.75,8.51,3.84,2.8,1.05,5.64,2.01,8.28,3.44,1.42,.77,2.75,1.67,3.86,2.85,.16,.17,.3,.34,.39,.59-.3-.28-.59-.56-.89-.83-2.03-1.76-4.43-2.85-6.91-3.77-3.04-1.13-6.11-2.17-9.14-3.32-2.46-.93-4.79-2.13-6.85-3.8-2.19-1.78-3.76-3.99-4.58-6.71-.1-.34-.27-.53-.6-.67C1.06,32.37-.11,30.43,0,28.96c.02-.23,0-.46,0-.74,.38-.17,.8-.33,1.18-.54,.13-.07,.29-.28,.28-.4-.36-3.12,.79-5.7,3.01-7.78,1.3-1.23,2.78-2.27,4.18-3.39l.14,.17c-.64,.53-1.3,1.03-1.93,1.58-1.8,1.59-3.4,3.32-4.19,5.66-.39,1.17-.54,2.36-.27,3.6,.64-.12,1.04-.45,1.26-1.1,1.26-3.68,3.69-6.43,6.92-8.52,.07-.04,.14-.08,.24-.08-2.86,2.59-5.52,5.32-6.99,9.11,1.27-.57,2.44-1.09,3.61-1.62,6.51-2.94,13.06-5.78,19.87-7.98,5.91-1.91,11.92-3.39,18.05-4.37,1.55-.25,3.12-.39,4.65-.71,1.97-.41,3.9-.99,5.87-1.42,3.13-.69,6.28-1.3,9.41-1.98,.52-.11,1.03-.39,1.5-.67,3.3-1.91,6.6-3.83,9.89-5.78,.79-.47,1.66-.39,2.49-.48,2.81-.27,5.62-.52,8.44-.72,2.8-.2,5.6-.35,8.4-.47,2.89-.12,5.79-.18,8.68-.26,.12,0,.24-.04,.36-.07,3.9,0,7.8,0,11.7,0Z"/>
  </g>
</svg>