<?xml version="1.0" encoding="UTF-8"?>
<svg id="Layer_2" data-name="Layer 2" xmlns="http://www.w3.org/2000/svg" viewBox="0 0 73.19 61.97">
  <defs>
    <style>
      .cls-1 {
        fill: #808080;
      }
    </style>
  </defs>
  <g id="Layer_1-2" data-name="Layer 1">
    <path class="cls-1" d="M16.24,18.02c.38-.57,.64-1.2,.96-1.8,.35-.64,.76-1.25,1.18-1.84,.69-.98,1.43-1.92,2.16-2.87,.58-.76,1.09-1.6,1.84-2.22,.74-.62,1.61-1.09,2.43-1.61,1.54-.98,3.12-1.89,4.74-2.72,.56-.28,1.16-.68,1.81-.7,.59-.02,.38,.54,.32,.91-.11,.74-.12,1.51-.14,2.26-.04,1.53,.01,3.06,.14,4.59,.15,1.84,.65,3.67,1.32,5.38,.8,2.05,1.57,4.11,2.41,6.14,.43,1.04,.87,2.09,1.33,3.12,.21,.48,.36,.98,.54,1.46,.09,.24,.44,1.29,.74,1.33,.29,.03,.75-.66,.93-.85,.36-.38,.76-.73,1.15-1.08,.77-.68,1.56-1.34,2.22-2.14,1.07-1.31,1.99-2.74,2.8-4.22,2.09-3.85,3.88-8.51,.69-12.35-.59-.71-1.3-1.33-1.69-2.16-.54-1.16-.34-2.5-.14-3.76,.14-.83,.28-1.67,.68-2.41,.1-.19,.23-.37,.43-.45,.43-.18,.86,.22,1.13,.6,1.52,2.1,2.3,4.65,2.72,7.21,.42,2.56,.5,5.16,.74,7.73,.22,2.34,.57,4.68,.32,7.01-.17,1.51-.59,2.99-.84,4.49-.2,1.16-.62,3.62,.22,4.62,.57,.68,2.15,.7,2.93,.78,4.43,.47,1.13,2.66,.73,4.16-.14,.51-.21,.59,.15,.85,.44,.31,1.46,.32,2,.57,1.72,.81,3.1,2.34,3.75,4.12,.11,.31,.22,.65,.49,.83,.23,.15,.51,.16,.79,.18,.98,.06,3.63,.33,3.25,1.91-.07,.28-.24,.55-.22,.84,.04,.54,.68,.77,1.21,.88,1.39,.29,2.88,.61,3.88,1.62,.41,.41,.71,.91,1.17,1.26,.36,.28,.8,.45,1.21,.65,2.14,1.04,3.29,3.89,1.81,5.96-1.18,1.65-3.59,2.05-5.47,2.04-2.7-.01-5.38-.61-7.98-1.31-5.97-1.61-12.85-4.17-17.29-8.67-2.9-2.94-6.6-6.14-10.94-6.31-.1,0-.15,.11-.08,.18,.38,.37,.83,.67,1.17,1.08,1.02,1.19,.9,3.06,1.31,4.5,.23,.8,.61,1.55,.91,2.33,.25,.66,.36,1.4,.76,1.99,.61,.92,1.82,1.41,2.14,2.48,.02,.06,.02,.12,0,.18-.05,.19-.26,.2-.43,.18-.74-.09-2.23-1.06-2.88-.36-.08,.09-.12,.2-.13,.32-.05,.91-.06,1.82-.07,2.73,0,.75,.09,1.53,.04,2.27-.01,.16-.04,.33-.14,.46-.14,.18-.37,.21-.54,.34-.15,.12-.22,.26-.34,.41-.31,.39-.85,.39-1.08-.06-1.15-2.25-3.24-3.9-4.14-6.31-.21-.56-.36-1.13-.45-1.72-.06-.4,.05-1.15-.37-1.38-1.3-.73-2.53-1.52-3.63-2.55-.56-.52-1.05-1.06-1.5-1.68-.44-.61-.84-1.25-1.34-1.82-.22-.26-.56-.52-.87-.32-.1,.06-.17,.16-.21,.27-.16,.42-.13,.73-.51,.99-.25,.18-.55,.26-.82,.41-.68,.38-1.14,1.05-1.65,1.64-.9,1.05-1.99,1.85-3.04,2.74-.99,.83-1.75,1.98-2.45,3.05-.79,1.2-1.61,2.41-2.21,3.72-.87,1.9-3.8,4.2-4.06,3.76-.27-.43,.54-2.35,1.21-4.42,.54-1.67,2.81-3.05,3.66-3.52,.2-.11,.35-.3,.4-.53l.22-.97s.01-.05,.01-.08c.18-1.66,.76-3.26,1.43-4.78,.68-1.54,1.67-2.96,2.01-4.64,.08-.43,.03-.65-.27-.97-.47-.5-.98-1.01-1.56-1.39-.28-.18-.59-.33-.98-.09-.07,.04-.13,.1-.18,.17-.23,.3-.18,.7-.11,1.06,.14,.73,0,1.31-.34,1.97-.34,.66-.64,1.35-1.24,1.83-.05,.04-.11,.08-.17,.06-.04-.01-.07-.05-.1-.09-.46-.62-1.23-.67-1.94-.69-.81-.02-1.62,.06-2.42,.06-.52,.02-1.14,.15-1.65,0-.17-.05-.33-.15-.48-.24-.28-.16-.55-.33-.83-.49-.4-.24-.78-.58-.63-1.09,.8-2.75,3.07-6.17,4.07-7.6,.26-.37,.16-.89-.22-1.14-.08-.05-.15-.11-.2-.18-.38-.53-.75-1.08-1.1-1.64-.75-1.21-1.41-2.48-1.91-3.82-.35-.94-.63-1.92-.78-2.92-.07-.47-.12-.94-.15-1.42-.03-.44,0-.9,.18-1.31,.13-.3,.34-.56,.52-.83,.26-.38,.54-.74,.85-1.08,.96-1.09,2.13-1.98,3.47-2.55,3.06-1.29,6.66-.85,9.66,.38,.64,.26,1.24-.46,1.55-.92Z"/>
  </g>
</svg>