<?xml version="1.0" encoding="UTF-8"?>
<svg id="Layer_2" data-name="Layer 2" xmlns="http://www.w3.org/2000/svg" viewBox="0 0 51.4 34.51">
  <defs>
    <style>
      .cls-1 {
        fill: #808080;
        fill-rule: evenodd;
      }
    </style>
  </defs>
  <g id="Layer_1-2" data-name="Layer 1">
    <path class="cls-1" d="M.86,11.05S4.84,3.96,14.28,2.61c0,0,1.88-2.46,4.1-2.58,2.23-.12,6.1,.06,7.15,.94s2.96,5.13,8.85,4.16c5.89-.97,7.85,2.99,7.85,5.98s-2.93,6.15-2.81,7.03c.12,.88,1,.7,4.1,.7s5.8,.47,6.45,1.64c.64,1.17,4.63,8.67-4.4,11.43,0,0-5.27,1.88-7.79-2.99,0,0,.23,3.75-1.35,4.63-1.58,.88-8.03,1.93-11.37-.82-3.34-2.75-4.22-7.03-5.1-7.03s-.41,1.47-.18,2.7c.23,1.23,.29,3.28-.76,3.75-1.06,.47-2.4-2.11-4.16-2.29-1.76-.18-4.72-2.43-4.31-6.24,0,0-3.72-1.55-6.95-5.95,0,0-1.49-2.55-2.67-3.02-1.17-.47-1.32-2.96-.09-3.6H.86Z"/>
  </g>
</svg>