<?xml version="1.0" encoding="UTF-8"?>
<svg id="Layer_2" data-name="Layer 2" xmlns="http://www.w3.org/2000/svg" viewBox="0 0 162.25 46.07">
  <defs>
    <style>
      .cls-1 {
        fill: #808080;
      }
    </style>
  </defs>
  <g id="Layer_1-2" data-name="Layer 1">
    <path class="cls-1" d="M162.22,12.62c-.57,1.06-10.19,5.89-23.99,6.67-13.8,.78-18.56,1.18-26.56,5.97-8.01,4.79-10.69,8.11-9.09,11.47,1.61,3.36,5.95,7.95,4.67,9.08-1.28,1.13-3.17-1.7-10.79-4.42-7.62-2.72-12.4-7.77-17.27-9.7-3.2-1.27-11.09,1.05-20.89,2.55,1.5,2.35,4.23,6.82,3.99,7.69-.33,1.18-5.56,.5-9.81-1.17-.35-.14-.71-.31-1.06-.49-.75,.94-1.71,1.73-2.62,1.25-1.53-.82-5.14-4.4-6.53-6.2-.14,0-.27,0-.41,0-3.44-.17-7.2-.75-11.01-1.64-1.24,2.56-4.02,5.2-5.92,4.3-1.81-.87-3.92-4.99-5.18-7.68C9.15,26.28,.34,20.53,0,15.63c-.04-.63,11.12-7.21,31.82-5.2,.41,.04,.82,.1,1.22,.14,1.5-1.51,3.81-3.94,5.41-6.04C41,1.2,44.68,.24,50.41,0c5.72-.24,17.2,5.45,28.19,4.68,11-.77,15.66-1,17.79-.46s-1.58,.97-10.39,4.73-15.86,1.94-20.22,2.18-13.2,.65-13.2,.65l-2.54,1.83c13.61,3.24,24.85,7.53,27.48,7.67,3.75,.19,12.37-4.04,23.38-7.22,11.01-3.18,23.15-2.13,39.23-1.24,16.08,.89,22.67-1.25,22.11-.19Z"/>
  </g>
</svg>