<?xml version="1.0" encoding="UTF-8"?>
<svg id="Layer_2" data-name="Layer 2" xmlns="http://www.w3.org/2000/svg" viewBox="0 0 107.44 46.74">
  <defs>
    <style>
      .cls-1 {
        fill: #808080;
      }
    </style>
  </defs>
  <g id="Layer_1-2" data-name="Layer 1">
    <path class="cls-1" d="M53.36,5.34C56.14,1.95,60.68,.55,65.04,.04c.87-.1,1.99-.04,2.32,.77,.2,.49,0,1.05-.32,1.46s-.75,.73-1.11,1.11c-1,1.06-1.38,2.66-.96,4.06,.08,.27,.19,.55,.19,.83-.01,.63-.58,1.11-1.16,1.35s-1.23,.31-1.79,.59-1.04,.9-.88,1.5c.09,.16,.42,.32,.76,.47,7.5,3.56,15.76,6.27,23.99,5.21,5.13-3.43,10.51-6.67,15.89-9.92,.83-.5,1.68-1.01,2.61-1.3s1.97-.34,2.86,.06c.11,2.28-.43,4.78-1.77,6.75-.85,1.26-1.99,2.29-2.95,3.46-1.17,1.42-2.07,3.03-2.96,4.63-.53,.95-1.08,2.04-.72,3.07,.25,1.28,1.23,2.18,2.1,3.09,2.72,2.85,4.63,6.46,5.49,10.3,.12,.52,.21,1.06,.12,1.59s-.42,1.04-.93,1.22c-.51,.08-1.08-.07-1.64-.23-7.65-2.35-13.05-9.4-20.54-12.24-.12-.29-.28-.39-.38-.38-2.41,.2-4.81,.4-7.22,.6,.78,.6,.84,2.16,.36,3.4-.48,1.23-1.38,2.24-2.13,3.33-.07,.4-.12,.83-.18,1.22-.18,1.17-.47,2.32-.85,3.44-.11,.33-.23,.66-.26,1.01-.02,.3,.04,.6,.07,.9,.14,1.4-.32,2.85-1.26,3.91,.34,.72-.51,1.47-1.3,1.43s-1.45-.6-2-1.17c-1.42-1.46-2.57-3.16-3.71-4.85-1.08-1.6-2.16-3.2-3.24-4.8-1.42,.74-3.11,1.16-4.78,1.55-4.1,.96-8.21,1.84-12.35,2.63-2.27,.43-4.55,.84-6.86,.83-2.12,0-4.23-.37-6.3-.82-5.92-1.28-11.68-3.27-17.13-5.92-2.94-1.45-5.77-2.66-8.27-4.4-2.5-1.74-4.68-4.08-5.73-6.94-.16-.74-.19-1.27-.04-1.76s.53-.96,1.04-1.06c.48-.72,1.25-1.25,2.09-1.45,3.14-2.97,7.99-3.1,11.98-4.98,9.52-5.54,21.18-7.78,32.37-6.25,1.31,.18,2.66,.4,3.93,.04,.77-.22,1.23-1.26,1.85-2.02Z"/>
  </g>
</svg>