<?xml version="1.0" encoding="UTF-8"?>
<svg id="Layer_2" data-name="Layer 2" xmlns="http://www.w3.org/2000/svg" viewBox="0 0 92.74 47.88">
  <defs>
    <style>
      .cls-1 {
        fill: #808080;
      }
    </style>
  </defs>
  <g id="Layer_1-2" data-name="Layer 1">
    <path class="cls-1" d="M24.44,8.9c.54-2.22,1.36-4.4,2.71-6.26,.74-1.08,1.7-2,2.83-2.64h2.98c.07,.87,.36,1.71,1.02,2.31-2.57,1.37-3.98,4.09-5.07,6.67-1.49,.04-2.99-.12-4.48-.08Zm.99-4.62c-.52-.14-1.11-.32-1.38-.83-.43-.63-.35-1.43-.22-2.14-1.76,2.62-3.57,5.29-4.38,8.39,1.3-.38,2.65-.59,4-.74,.51-1.62,1.14-3.2,1.98-4.67Zm4.52,4.85c1.48,.17,2.97,.33,4.45,.53,.39-.73,.8-1.45,1.3-2.1,1.93-2.63,4.98-4.26,8.11-4.96-.32-.35-.49-.79-.52-1.26-1.2,.11-2.39-.09-3.59-.08-2.54-.03-5.07,.98-6.9,2.75-1.41,1.41-2.24,3.27-2.85,5.14Zm5.47,.65c1.35,.18,2.7,.4,4.05,.6,1.14-1.29,2.36-2.51,3.64-3.66,1.84-1.62,4.14-2.61,6.5-3.17-.26-.62-.07-1.28,.25-1.84-1.85,.33-3.72,.59-5.54,1.11-2.38,.72-4.7,1.81-6.54,3.51-1.03,.96-1.8,2.16-2.36,3.45Zm5.22,.82c1.12,.23,2.24,.41,3.34,.72,3.12-3.15,7.45-5.16,11.91-5.18-.62-.81-.41-2.19,.65-2.5-2.89-.05-5.87,0-8.61,1.01-3.04,1.07-5.47,3.37-7.3,5.95Zm4.45,.98c1.26,.35,2.51,.74,3.73,1.22,2.24-1.7,4.86-2.93,7.63-3.48,1.69-.35,3.42-.42,5.14-.38,.08-.6,.33-1.16,.87-1.46-2.42-.67-4.95-1.35-7.48-.91-3.75,.45-7.33,2.22-9.89,5.02Zm16.37-2.44c-2.24,.13-4.49,.44-6.62,1.2-1.79,.66-3.48,1.62-4.97,2.82,1.12,.56,2.26,1.09,3.37,1.68,.31-.08,.56-.31,.84-.45,3.72-2.2,8.18-2.95,12.44-2.39-.03-.45-.16-.92-.03-1.37,.18-.32,.53-.49,.83-.69-1.91-.49-3.88-.85-5.85-.8ZM0,23.59c-.1-.7,.59-1.23,1.24-1.23,2.32-.04,4.58,1.2,5.89,3.1,.5,.74,.75,1.62,1.28,2.35,.65,.87,1.97,1.12,2.91,.59,.8-.5,.98-1.6,.75-2.46-.28-.93-1.08-1.54-1.74-2.2-1.19-1.08-2.38-2.18-3.65-3.15,1.31,1.66,2.91,3.07,4.32,4.64,.61,.61,.81,1.7,.23,2.39-.63,.69-1.84,.46-2.32-.29-.58-.92-.91-1.99-1.65-2.8-1.31-1.49-3.1-2.44-4.74-3.52-.42-.3-.89-.67-.97-1.22-.08-.53,.25-1.07,.75-1.26,.74-.28,1.53-.43,2.26-.74,3.13-1.29,6.14-2.85,9.19-4.32,1.55-.73,2.98-1.7,4.6-2.3,3.16-1.24,6.63-1.36,9.97-1.11,3.8,.27,7.59,.81,11.35,1.42,3.52,.59,7.03,1.42,10.31,2.85,2.51,1.14,4.86,2.58,7.23,3.97,3.17,1.87,6.46,3.67,10.11,4.37,3.21,.57,6.55,.74,9.76,0,1.13-.24,2.1-.92,3.04-1.56,1.67-1.13,3.35-2.26,5.01-3.4,1.38-.9,2.73-1.9,4.3-2.44,1.05-.38,2.16-.5,3.26-.67-.97,.35-1.96,.68-2.84,1.24-.97,.59-1.81,1.37-2.61,2.18-.7,.74-1.69,1.1-2.42,1.81,.88-.28,1.77-.6,2.71-.64,1.33-.08,2.73-.07,3.94-.74-.44,1.14-1.12,2.33-2.29,2.83-1.46,.64-3.18,.49-4.5,1.48,.68-.18,1.35-.44,2.07-.47,1.23-.09,2.38,.5,3.6,.43,.82,.02,1.61-.24,2.4-.47-1.36,1.11-2.88,2.28-4.7,2.36-1.99,.03-3.99,0-5.98,.21,1.39,.02,2.77,.2,4.16,.27,.9,.08,1.85,.03,2.69,.44,.91,.44,1.87,.73,2.85,.98-.69,.46-1.46,.78-2.27,.94-.96,.2-1.94-.04-2.89-.17-1.35-.2-2.69-.45-4.05-.51,1.77,.48,3.57,.86,5.36,1.28,1.59,.38,2.83,1.57,3.78,2.84-1.2-.54-2.51-.77-3.81-.78-.99,.02-1.9-.42-2.83-.69-.98-.3-1.96-.61-2.96-.87,1.85,.8,3.72,1.54,5.55,2.39,1.9,.89,3.44,2.42,4.55,4.19-.71-.46-1.41-.96-2.22-1.25-1.27-.49-2.69-.42-3.92-1.01-.57-.25-1.05-.66-1.54-1.02,.68,1.02,1.82,1.56,2.83,2.19,1.44,.88,2.58,2.33,2.82,4.03-2.1-1.13-4.33-2.1-6.12-3.72,.88,1.21,2.03,2.18,2.9,3.4,1.33,1.78,3.15,3.17,5.23,3.97-1.79-.42-3.6-1-5.08-2.13-2.12-1.61-3.76-3.74-5.43-5.79-1.1-1.32-2.06-2.77-3.2-4.06-1.06-1.2-2.7-1.64-4.25-1.67-3.34-.12-6.71,.75-9.58,2.46-1.62,.98-3.05,2.23-4.58,3.35-2.09,1.61-4.5,2.82-7.04,3.53-5.38,1.55-11.03,1.54-16.58,1.66-3.57,.06-7.16,.13-10.72-.25-3.99-.38-7.91-1.41-11.6-2.99,.82,.02,1.65,.15,2.46-.03,1.61-.33,3.07-1.16,4.45-2.02,2.62-1.66,4.67-4.3,5.3-7.37,.23-1.27,.25-2.6-.1-3.84-.27-.91-.75-1.83-1.59-2.34-.42-.24-.81-.54-1.19-.85,.33,.82,1.28,1.05,1.73,1.78,.9,1.35,.93,3.08,.69,4.63-.54,3.1-2.64,5.75-5.28,7.38-1.42,.86-2.93,1.75-4.62,1.9-.85,.08-1.69-.1-2.49-.35,.95-.46,1.91-.95,2.6-1.77,1.63-1.83,3.22-3.78,4.19-6.06,.49-1.09,.78-2.25,1.05-3.41,.2-.89,.53-1.75,.74-2.64-.84,1.48-1.16,3.18-1.76,4.77-1.07,2.63-2.82,4.92-4.75,6.97-.97,1.03-2.35,1.54-3.72,1.77-.41,.09-.76-.2-1.09-.4-3.3-2.24-6.28-4.93-8.99-7.84-.62-.79-1.55-1.45-1.7-2.51Zm53.49,4.57c.53-.39,1.18-.51,1.76-.78-1.19-.18-2.55,.04-3.42,.93-.85,.85-.98,2.27-.36,3.29,.45,.79,1.28,1.29,2.15,1.48-.45-.42-.99-.81-1.22-1.41-.55-1.23,0-2.78,1.09-3.51Zm3.6,1.11c.19-.57,.6-1.02,.98-1.48-.77,.31-1.51,.85-1.8,1.66-.46,1.14,.16,2.42,1.04,3.16-.41-1.06-.58-2.25-.22-3.34Zm2.91-.25c.39,.67,.81,1.39,1.53,1.75-.45-.7-.93-1.42-1.07-2.26-.26-1.45,.04-3.08,1.1-4.16,.4-.44,.93-.73,1.41-1.09-1.05,.3-2.09,.82-2.73,1.74-.89,1.13-.93,2.78-.23,4.02Zm-2.03-7.79c-.8,.96-1.13,2.4-.49,3.53,.4,.65,.85,1.31,1.53,1.68-.36-.67-.79-1.32-1-2.06-.34-1.02-.27-2.11-.05-3.15Zm-.82,6.01c-.45-.31-.97-.55-1.29-1.02-.7-1.02-.8-2.48-.11-3.54,.41-.65,1.08-1.05,1.66-1.55-1.37,.29-2.87,1.09-3.28,2.52-.49,1.82,1.25,3.56,3.02,3.58Zm-6.7-5.13c-.01,1.21,.98,2.37,2.19,2.53-.32-.33-.71-.62-.92-1.05-.48-.89-.34-1.96-.06-2.9,.23-.8,.81-1.41,1.3-2.05-1.34,.62-2.5,1.93-2.5,3.47Zm-19.86,12.87c-.97-.52-1.85-1.19-2.75-1.82-.17,.1-.35,.2-.52,.3,.96,.72,2.01,1.52,3.28,1.53Zm2.19-.17c-1.36-.47-2.59-1.23-3.78-2.02-.34-.28-.7,.06-.97,.26,.86,.74,1.92,1.18,2.99,1.55,.57,.17,1.17,.27,1.77,.21Zm.88-.82c-1.3-.55-2.55-1.22-3.79-1.9-.33-.22-.65,.14-.94,.27,.51,.48,1.17,.78,1.82,1.03,.93,.33,1.9,.65,2.91,.6Zm15.43-.79c-1-.74-1.68-1.91-1.69-3.17,0-.53,.22-1.02,.37-1.52-.6,.62-1.15,1.42-1,2.33,.12,1.21,1.19,2.1,2.32,2.35Zm.22-4.34c-1.49-.83-2.85-2.03-3.47-3.65-.39-.83-.35-1.76-.31-2.65-.52,1.15-.67,2.53-.05,3.67,.73,1.47,2.3,2.26,3.83,2.63Zm-.48-11.39c-1.23,.15-2.53,.87-2.9,2.11-.36,1.27,.37,2.51,1.23,3.39-.46-1.24-.75-2.67-.11-3.9,.34-.77,1.12-1.17,1.78-1.61Zm-6.42,.97c.19,.96,.91,1.74,1.73,2.23-.36-.57-.81-1.14-.85-1.84-.08-1.22,.6-2.38,1.54-3.12,.67-.56,1.53-.79,2.32-1.12-1.17-.02-2.4,.2-3.37,.89-.93,.65-1.56,1.81-1.37,2.96Zm-3.66-.89c-.66,.96-.69,2.21-.42,3.31,.12-.53,.16-1.08,.33-1.6,.36-1.14,1.17-2.1,2.14-2.79,.54-.39,1.18-.58,1.77-.89-1.49,0-3,.69-3.82,1.97Zm-4.46-.71c-.15,1.24,.64,2.35,1.55,3.1-.19-.54-.46-1.06-.57-1.63-.25-1.17,.23-2.5,1.25-3.16,.61-.43,1.37-.51,2.07-.7-.75-.16-1.54-.25-2.29-.03-1.09,.28-1.98,1.27-2.02,2.41Zm-1.37,.09c-.49-1.09-.63-2.39-.08-3.49,.29-.6,.92-.89,1.44-1.25-.99,.15-2,.7-2.37,1.68-.48,1.1,.09,2.38,1,3.06Zm-5.99,10.84c.74,.08,1.4-.35,1.79-.95,.46-.72,1.19-1.2,1.97-1.51,1.15-.46,2.33-.86,3.5-1.27,1.92-.71,3.8-1.62,5.85-1.84,.74-.06,1.67-.1,2.21,.51,.41,.53-.07,1.15-.35,1.62-.32,.4-.06,.93-.21,1.38-.34,.6-.98,1.01-1.16,1.7-.14,.54,.27,1.04,.23,1.57-.3,.98-1.55,1.08-2.02,1.92-.2,.42-.08,.93-.29,1.34-.31,.43-.89,.52-1.39,.51-1.46-.04-2.86-.47-4.28-.77-.7-.15-1.39-.35-2.07-.57-.23-.1-.46,.03-.68,.09,.4,.5,1.06,.58,1.64,.73,1.78,.37,3.54,.94,5.38,1.01,.67,.03,1.41-.16,1.82-.74,.35-.43,.13-1.02,.33-1.49,.41-.4,.94-.64,1.42-.93,.47,1.1,1,2.22,1.84,3.09,.65,.73,1.48,1.28,2.37,1.68-.46-.39-.95-.75-1.35-1.2-1.07-1.13-1.68-2.58-2.4-3.93,.1-.28,.23-.55,.26-.85-.02-.45-.28-.85-.32-1.3,.21-.7,.88-1.13,1.15-1.79,.17-.49,0-1.08,.35-1.51,.36-.47,.57-1.11,.29-1.67-.37-.8-1.33-1.02-2.13-1.03-2.16,.03-4.18,.89-6.17,1.63-1.54,.6-3.16,1.02-4.61,1.81-.74,.39-1.34,1-1.74,1.74-.24,.51-.79,.72-1.24,1Zm4.86,.84c1.81-.28,3.53-.96,5.25-1.55,.81-.3,1.65-.56,2.41-.98-.55,.02-1.09,.11-1.61,.24-1.63,.38-3.29,.67-4.92,1.07-.59,.12-.81,.77-1.13,1.21Zm.6-1.56c2.01-.58,3.88-1.52,5.79-2.33,.76-.34,1.54-.65,2.24-1.11-1.08,.16-2.1,.57-3.13,.89-1.78,.61-3.57,1.19-5.32,1.88,.14,.22,.28,.44,.42,.67Zm3.19,1.35c-1.15,.1-2.31,.22-3.44,.46,0,.23,0,.46,0,.69,1.23-.04,2.41-.42,3.61-.63,.97-.2,1.97-.28,2.89-.67-1.02-.08-2.04,.06-3.06,.15Zm-3.93,1.91c1.24,.26,2.5,.14,3.75,.06,.66-.05,1.33-.07,1.98-.23-.2-.11-.41-.22-.65-.22-1.42-.07-2.84-.24-4.27-.15-.37-.01-.62,.25-.81,.53Zm-.06,.11c-.17,.16-.55,.23-.44,.54,.9,.25,1.82,.4,2.73,.63,1.08,.26,2.18,.48,3.3,.42-1.81-.68-3.72-1.09-5.59-1.58ZM11.22,18.15c-.44,.28-.91,.51-1.42,.6,.38,.12,.75,.27,1.1,.48-.15-.41,.09-.76,.32-1.08Zm3.49-3.22c.52-.02,1.05-.16,1.55,.05,1.29,.48,2.06,1.84,2.15,3.17,.03,.65-.18,1.45-.85,1.69-.54,.23-1.04-.13-1.54-.29,.34,.48,.91,.83,1.51,.69,.74-.07,1.25-.78,1.3-1.48,.14-1.5-.62-3.11-1.96-3.84-.67-.36-1.47-.26-2.15,0Zm-.89,3.03c.55,.87,1.68,1.54,2.7,1.13,.48-.21,.54-.82,.48-1.27-.12-.72-.68-1.25-1.28-1.61-.36-.23-.82-.3-1.22-.16-.75,.25-1.13,1.24-.69,1.91Zm51.93-5.86c-2.17,0-4.35,.17-6.44,.76-1.84,.52-3.54,1.44-5.12,2.49,.76,.48,1.53,.94,2.29,1.41,1.07-.53,2.16-1.05,3.29-1.43,2.98-1.07,6.25-1.18,9.34-.56,.05-.36,.07-.74,.25-1.06,.19-.28,.52-.4,.8-.58-1.4-.57-2.87-1.16-4.41-1.04Zm-3.44,3.1c-1.74,.41-3.37,1.2-4.92,2.08,.63,.39,1.28,.74,1.91,1.11,2.24-1.12,4.76-1.76,7.27-1.63,1.85,.12,3.67,.52,5.47,.94,.06-.31,.07-.65,.24-.93,.21-.23,.5-.36,.76-.54-1.14-.63-2.4-1.01-3.67-1.28-2.35-.23-4.75-.3-7.06,.25Zm-48.16,2.38c-.25-.38,.01-.87,.35-1.09,.53-.28,1.07,.13,1.45,.48,.38,.37,.81,.89,.64,1.46-.2,.39-.73,.26-1.05,.12-.5-.26-1.05-.5-1.39-.97Zm.31-.78c.51,.63,1.23,1.07,1.92,1.48-.33-.76-1.1-1.36-1.92-1.48Zm57.04,1.25c-2.26-.42-4.57-1.07-6.89-.66-1.57,.2-3.04,.82-4.47,1.46,.89,.54,1.84,.97,2.79,1.41,1.59-.8,3.38-1.06,5.14-1.14,2-.21,4.06-.32,5.95-1.11-.84,.06-1.68,.21-2.52,.05Zm-7.54,2.58c1.37,.63,2.86,.98,4.36,1.14,.54-.77,1.46-1.25,2.41-1.13-.93-.49-1.94-.84-2.99-.95-1.32-.04-2.58,.45-3.78,.93Zm9.73,10.78c-.68-.36-1.39-.73-1.87-1.36-.27-.28-.5-.76-.95-.71-1.08,.07-2.13,.36-3.14,.72,.93,.66,1.96,1.31,3.13,1.39,.95,.06,1.89-.06,2.84-.04Zm-8.71,0c1.16,.97,2.51,1.73,3.96,2.18,2.21,.67,4.64,.18,6.76,1.2-2.53-2.2-6.04-2.57-8.78-4.4-.66,.32-1.31,.65-1.93,1.02Zm-2.3,1.6c3.07,3.01,7.57,4.56,11.84,3.91-.48-.63-.81-1.44-.5-2.22-1.65-.06-3.3-.13-4.92-.49-1.77-.4-3.4-1.28-4.88-2.31-.5,.39-1.02,.75-1.54,1.11Zm-2.52,1.96c.65,.82,1.48,1.48,2.28,2.15,1.68,1.37,3.72,2.26,5.83,2.69,1.21,.19,2.44,.16,3.65,.07-.32-.49-.72-1-.69-1.62-.01-.36,.24-.64,.42-.93-3.56,.01-7-1.52-9.72-3.75-.56,.5-1.15,.96-1.77,1.38Zm-3.35,1.99c1.13,1.71,2.75,3.07,4.55,4.03,2.2,1,4.66,1.16,7.05,1.2-.24-.31-.59-.59-.61-1.01-.04-.38,.11-.75,.23-1.1-3.33-.37-6.26-2.31-8.65-4.56-.8,.57-1.68,1.02-2.58,1.44Zm3.78,6.35c-.23-.78,0-1.58,.6-2.12-2.09-.68-3.79-2.18-5.2-3.83-1.14,.49-2.33,.87-3.52,1.22,.44,.82,1.05,1.53,1.69,2.19,1.76,1.61,4.17,2.09,6.43,2.53Zm-9.3-.61c.02-.61,.34-1.22,.88-1.52,.42-.22,.91-.18,1.37-.2-.77-.61-1.38-1.39-1.9-2.21-1.75,.43-3.53,.65-5.31,.9,.26,.25,.55,.48,.87,.65,1.37,.78,2.74,1.57,4.09,2.39Zm-29.84-3.45c.93,2.05,1.75,4.21,3.24,5.92,1.04,.92,2.2,1.69,3.16,2.7-.35-1-.63-2.03-.58-3.1-.42-.24-.85-.47-1.2-.81-1.33-1.26-2.34-2.84-3.14-4.48-.49-.09-.99-.15-1.49-.23Zm4.26,.62c-.6-.12-1.21-.14-1.81-.23,.56,1.08,1.11,2.18,1.87,3.14,1.14,1.47,2.76,2.48,4.45,3.22-.06-.83,.09-1.68,.5-2.41-1.94-.81-3.59-2.19-5.01-3.72Zm20.59,.44c-.32-.21-.59-.59-1-.58-1.39,.09-2.78,.16-4.16,.26,1.45,.75,3.04,1.18,4.58,1.73-.22-.58,.14-1.08,.59-1.42Zm-13.89-.14c-1.86-.07-3.72-.11-5.57-.24,.68,.74,1.36,1.48,2.19,2.06,.86,.61,1.76,1.28,2.84,1.39,2.78,.31,5.61,.25,8.36,.82-2.17-.99-4.5-1.61-6.67-2.61,.2-.16,.4-.32,.6-.49-.52-.41-1.04-.93-1.75-.93Z"/>
  </g>
</svg>