<?xml version="1.0" encoding="UTF-8"?>
<svg id="Layer_2" data-name="Layer 2" xmlns="http://www.w3.org/2000/svg" viewBox="0 0 95.39 53.82">
  <defs>
    <style>
      .cls-1 {
        fill: #808080;
      }
    </style>
  </defs>
  <g id="Layer_1-2" data-name="Layer 1">
    <path class="cls-1" d="M3,31.37s-4.2-2.4-1.8-4.37c2.4-1.97,3.94-1.03,6.34-6.43,2.4-5.4,9.51-5.31,17.57-11.57,0,0,1.54-6.26,4.11-6.86,0,0-.86,1.8,0,4.03,0,0,2.49-5.23,5.4-6.17,0,0-1.39,2.83-.94,5.4,0,0,4.24-4.89,7.91-5.08,0,0-1.74,2.25-1.86,4.24,0,0,3.79-4.24,7.58-4.56,0,0-2.31,2.51-2.44,5.01,0,0,3.54-3.34,7.01-3.34,0,0-1.99,2.83-2.12,4.05,0,0,2.06-1.99,4.89-1.93,0,0-1.93,1.74-2.06,2.89,0,0,3.02-1.09,4.31-1.09,0,0-1.8,1.29-1.93,2.31,0,0,2.25-.84,4.69,.77,0,0-.71,.9,0,2.57,0,0,2.31,0,3.99,.45,0,0,2.25,5.85,8.87,8.93,6.62,3.09,7.2-3.99,22.88-4.63,0,0-3.6,5.21-6.94,9.9-3.34,4.69,1.86,5.34,1.99,10.93,.13,5.59,3.6,6.75,3.6,6.75,0,0-8.81,.77-12.73-4.95-3.92-5.72-10.22-3.21-10.22-3.21,0,0-.13,3.28-2.7,5.34-2.57,2.06-3.09,5.98-3.09,5.98,0,0-8.61,1.29-13.05-3.92,0,0-14.59,3.99-18.77,2.83,0,0,3.19,4.33,1.74,8.18,0,0-10.46-3.6-10.88-10.37,0,0-12-2.14-16.63-6.34-3.3-3-5.82-3.38-6.99-3.35-.4,0-.72-.31-.72-.71H0c0-.43,.35-.75,.77-.72,.79,.06,1.96-.03,2.23-.97Z"/>
  </g>
</svg>