<?xml version="1.0" encoding="UTF-8"?>
<svg id="Layer_2" data-name="Layer 2" xmlns="http://www.w3.org/2000/svg" viewBox="0 0 53.8 45.28">
  <defs>
    <style>
      .cls-1 {
        fill: #808080;
      }
    </style>
  </defs>
  <g id="Layer_1-2" data-name="Layer 1">
    <path class="cls-1" d="M.08,14.71c.12-.3,.41-.48,.99-.43,.48,.05,.99,.16,1.52,.34,1.23,.4,2.4,.8,3.68,1.18,1.24,.37,2.15,.71,3.25,1.28,.35,.19,.72,.35,1.11,.5,.97,.39,1.91,.84,2.82,1.34,.03,0,.04,.02,.07,.02,2.12,.11,4.16-1.89,5.43-3.42,0-.01,0-.02-.02-.04-.3-.26-.88-.72-.74-1.2,.17-.61,.27-.96,.05-1.57-.04-.11-.03-.23,.01-.35,.08-.27,.28-.58,.36-.81,.1-.34-.02-.74-.02-1.06,0-.14,.01-.27,.03-.4,.06-.38,.21-.72,.46-1.02,.06-.07,.1-.13,.13-.2,.18-.41-.02-.79,.16-1.21,.02-.05,.05-.11,.08-.16,.25-.4,.78-.3,.93-.73,0-.03,.02-.06,.02-.09,.01-.08,.03-.17,.04-.25,.06-.36,.17-.74,.61-.77,.42-.03,.64-.35,.76-.7,.02-.05,.03-.09,.04-.14,0-.03,.02-.06,.03-.09,.13-.4,.46-.5,.79-.72,.24-.16,.34-.42,.52-.64,.34-.42,1.01-.43,1.26-.96,.32-.68,.85-.89,1.43-1.31,.02-.01,.03-.02,.03-.04,0,0,0,0,0,0,.03-.16,.06-.32,.11-.45,.09-.3,.26-.53,.67-.58,.88-.12,1.18,.8,1.83,1.26,.54,.39,1.01,.75,1.39,1.3,.22,.32,.31,.92,.61,1.3,.41,.51,.72,1.09,.91,1.72,.07,.23,.16,.46,.27,.69,0,.03,.04,.04,.06,.04,.42-.05,.82-.11,1.23-.17,1.88-.25,3.66-.17,5.33,.24,1.49,.37,2.68,.65,3.55,.84,1.6,.35,2.75,.73,4,1.64,.64,.47,1.47,.79,2.09,1.12,1.99,1.1,3.54,3,4.46,5.06,0,.03,.04,.04,.06,.04,.94-.03,1.57,.53,1.21,1.52,0,0,0,0,0,0,0,0,0,.02,0,.03-.05,.15-.24,.41-.55,.78,0,0,0,0-.01,.01,0,.01,0,.03,0,.04,.08,.41,.3,.71,.46,1.06,.19,.42,.21,.84,.1,1.2-.16,.52-.6,.93-1.25,1.05-.27,.05-.35,.19-.44,.42-.18,.47-.3,.98-.57,1.38-.76,1.14-1.8,1.74-2.93,2.46-.82,.52-1.53,1.15-2.26,1.77-.16,.14-.5,.31-1.02,.5-2.88,1.09-5.78,2.16-8.69,3.2-.03,0-.04,.03-.06,.05-.2,.37-.34,.76-.46,1.16-.23,.8-.37,1.63-.63,2.43-.03,.08-.05,.16-.08,.25-1.04,2.91-2.6,5.07-5.28,6.64-.78,.46-1.64,1.02-2.51,1.18-.57,.1-.77-.28-.8-.79-.08-1.11,.06-2.2,.44-3.2,.33-.88,.84-1.7,1.55-2.38,.12-.12,.19-.24,.22-.38,.01-.08,.01-.17,0-.26-.04-.21-.05-.39-.02-.56,.06-.38,.3-.67,.69-.91,1.1-.7,2.13-1.5,3.07-2.42,0,0,0,0,0,0,0,0-.01,0-.03,0-1.86,0-3.26-.19-4.91-.44-.14-.02-.28-.03-.42,0-.04,0-.05,.02-.07,.04-.64,1.22-1.27,2.43-1.88,3.66-.47,.95-1.05,1.81-1.76,2.61-1.46,1.65-2.95,3.15-4.48,4.49-1.09,.95-1.9,2.06-2.67,3.27-.06,.1-.17,.18-.34,.26-.66,.3-1.03-.28-.86-.87,.02-.08,.05-.17,.08-.25,.37-1.15,1.01-2.2,1.37-3.34,0,0,0,0,0,0,.01-.05,.03-.09,.04-.14,.25-.85,.39-1.73,.49-2.61,.04-.36,.07-.72,.1-1.08,.11-1.28,.28-2.56,.52-3.83,.1-.54,.21-1.06,.38-1.54,.22-.63,.53-1.19,1.06-1.65,.02-.02,.03-.04,.04-.06,.11-.41,.11-.7,.21-.92,.1-.23,.29-.39,.8-.53,.16-.04,.36-.19,.63-.45,0,0,0,0,0,0,0-.01,0-.02-.01-.03-1.13-1.15-2.78-1.77-4.3-1.91-.64-.06-1.27,.08-1.89,.41-.02,.01-.03,.03-.04,.05-.06,.25-.13,.5-.21,.74-.25,.74-.61,1.42-1.09,2.05-.39,.5-.85,1.03-1.18,1.5-.63,.92-1.16,1.9-1.59,2.93-.54,1.3-1.17,2.06-2.21,3.34-1.37,1.67-2.25,2.76-2.63,3.26-.28,.36-.67,.72-1.16,.54-.39-.15-.47-.52-.4-.92,.11-.64,.27-1.31,.36-2.02,.05-.39,.11-.74,.19-1.06,.15-.58,.33-1.08,.25-1.73-.16-1.36,.09-2.64,.4-3.98,.09-.37,.02-.73-.19-1.03-.3-.43-.48-.88-.54-1.33-.04-.35,.08-.76,.15-1.13,0-.03,0-.05-.02-.08-.15-.26-.25-.53-.28-.83-.02-.14-.06-.27-.11-.37-.31-.59-.54-1.22-.69-1.87-.03-.12-.08-.25-.16-.37-.24-.39-.35-.81-.34-1.27,0-.03,0-.05-.02-.08-.19-.31-.38-.57-.49-.93-.51-1.66-1.38-3.2-2.17-4.75-.25-.49-.81-1.71-.53-2.35Z"/>
  </g>
</svg>