<?xml version="1.0" encoding="UTF-8"?>
<svg id="Layer_2" data-name="Layer 2" xmlns="http://www.w3.org/2000/svg" viewBox="0 0 106.1 63.19">
  <defs>
    <style>
      .cls-1 {
        fill: #808080;
        fill-rule: evenodd;
      }
    </style>
  </defs>
  <g id="Layer_1-2" data-name="Layer 1">
    <path class="cls-1" d="M6.78,23.94c1.32-.64,2.85-.84,4.39-1.21,1.43-.34,2.6-1.1,3.81-1.73,4.9-2.54,10.25-4.44,15.97-6.24,1.44-.45,2.89-.82,4.39-1.16,1.6-.36,3.16-.49,4.92-.54,.68-.02,1.36-.2,2.04-.24,.72-.03,1.42,0,2.15,.02,1.37,.05,2.78,0,4.1,.26,.59,.12,1.07,.48,1.84,.45,1.33-.07,1.78-.97,2.49-1.92,1.25-1.65,2.62-3.53,3.76-5.13,.86-1.21,1.82-2.12,2.9-3.08,1.42-1.26,2.51-2.29,4.42-2.89,.38-.12,1.01-.21,1.09-.54,.03,0,.07,0,.11,0,.46,.5,.17,1.21,.13,1.78-.15,2.06-.16,4,.39,5.82,.34,1.11,.81,2.17,1.09,3.29,.64,2.57,1.56,5.29,1.37,8.48-1.37,.02-3.16,.04-4.24,.74,1.73,1.29,3.6,2.48,5.5,3.65,1.84,1.14,3.56,2.49,5.45,3.71,1.8,1.15,3.67,2.26,5.71,3.44,.88,.51,1.9,1.11,3.01,1.59,1.01,.44,2.4,1.04,3.42,1.11,.75,.05,1.96,0,2.67-.24,.65-.22,1.35-.74,2.03-1.13,1.31-.75,2.58-1.6,3.9-2.36,.66-.38,1.44-.6,1.93-1.18,2.57-.77,4.74-2.39,8.11-2.05,.09,.23,.24,.39,.43,.52,.22,2.02-.73,3.62-1.45,5.11-1.55,3.19-3.31,5.98-4.38,9.76-.38,1.32-.73,2.68-.79,3.95-.07,1.44,.32,2.74,.58,4.19,.36,2.02,.59,4.16,.87,6.28,.09,.66,.33,1.33,.39,1.99,.13,1.36,.22,3.08-.32,3.83-.25,.35-1.07,.88-1.3,.91-.97,.11-1.6-1.12-2.12-1.86-.59-.84-1.07-1.62-1.5-2.45-.46-.89-.9-1.78-1.45-2.5-1.71-2.24-3.18-4.55-4.81-7.07-.48-.74-1-1.61-1.55-2.39-.55-.79-1.11-1.72-1.71-2.23-.97-.83-2.6-.97-4.01-1.36,.11,.55,.95,.78,.97,1.51,.02,.83-1.46,1.67-2.12,2.07-.93,.56-1.95,.84-2.87,1.3-.82,.41-1.69,1.07-2.55,1.61-1.81,1.13-2.95,2.35-4.09,4.2-.7,1.12-1.39,2-1.8,3.17-.24,.68-.37,1.4-.65,2.32-.17,.58-.24,1.2-.77,1.37-.62,.2-1.93-.64-2.42-.86-.89-.39-1.65-.63-2.32-1.02-.41-.24-.75-.6-1.16-.88-2-1.37-3.62-2.84-5.57-4.39-.65-.52-1.75-1.5-2.38-1.59-.43-.07-1.35,.09-1.89,.18-.19,.03-.38,.15-.52,.16-.2,.01-.6-.07-.94-.04-2.39,.22-4.8-.14-7.29-.12,1.26,1.88,2.67,4.07,2.41,7.68-.24,.37-.34,.87-.72,1.11-1.69,.48-2.93-.24-4.05-1-1.82-1.22-3.24-2.96-4.36-4.93-.24-.41-.36-.88-.7-1.2-.05-.21,.13-.34,0-.47-.67-1.15-1.03-3.01-2.2-3.75-.62-.39-1.49-.55-2.27-.81-2.24-.76-4.6-1.59-6.64-2.54-4.03-1.87-8.21-4.11-11.78-6.56-.63-.43-1.18-.92-1.8-1.29-.64-.38-1.38-.58-2.11-.92-1.45-.68-2.56-1.58-3.71-2.42-.61-.45-1.18-.88-1.7-1.39-.49-.48-.82-1.17-1.38-1.66-.73-.63-3.73-1.14-2.6-2.64-.83-.42-.47-1.55-.13-2.04,.62-.08,1.11-.42,1.62-.65,.54-.25,1.13-.43,1.67-.7,1.13-.58,1.97-1.64,3.12-2.19Z"/>
  </g>
</svg>