<?xml version="1.0" encoding="UTF-8"?>
<svg id="Layer_2" data-name="Layer 2" xmlns="http://www.w3.org/2000/svg" viewBox="0 0 90.02 41.84">
  <defs>
    <style>
      .cls-1 {
        fill: #808080;
      }
    </style>
  </defs>
  <g id="Layer_1-2" data-name="Layer 1">
    <path class="cls-1" d="M89.42,11.54c-.87,.35-1,1.68-.32,1.21,.69-.47,.96-.07,.91,.62-.05,.69-3.84,6.44-14.61,11.46-10.78,5.02-20.71,2.82-23.76,4.46-3.05,1.64-21.2,5.79-22.37,2.71-1.16-3.08,5.27-4.52,3.63-5.45-1.64-.92-4.95,2.55-7.12,4.81-2.17,2.26-7.38,7.7-11.42,9.52-4.04,1.83-12.56,.5-6.99,.3,5.57-.21,5.91-5.62,5.91-5.62,2.19-8.31-1.6-12.83-3.56-19.5C7.77,9.4-.27,7.25,0,6.93c.27-.32,12.63,2.47,16.98,6.17,4.35,3.7,21.13,3.36,13.22,2.16-7.91-1.2-5.58-2.61-5.58-2.61C31.2,7.43,56.5-2.06,70.38,.4c13.88,2.47,19.27,10.23,19.27,10.23,0,0,.64,.56-.23,.91Z"/>
  </g>
</svg>