<?xml version="1.0" encoding="UTF-8"?>
<svg id="Layer_2" data-name="Layer 2" xmlns="http://www.w3.org/2000/svg" viewBox="0 0 51.68 37.99">
  <defs>
    <style>
      .cls-1 {
        fill: #808080;
      }
    </style>
  </defs>
  <g id="Layer_1-2" data-name="Layer 1">
    <path class="cls-1" d="M48.63,21.06c-.03,1,2.3,.39,1.96,1.04-.4,.76-2.65,.77-4.17,1.7-1.52,.93-5.02,5.77-7.25,7.38-.56,.41-1.07,.76-1.57,1.08-.45,1.16-.92,2.17-1.31,2.75-.95,1.44-3.24,2.99-3.24,2.99,0,0,0-1.55,.1-3.48-1.1,1.02-2.17,1.88-2.88,2.28-1.5,.85-4.24,1.19-4.24,1.19,0,0,.77-1.53,1.82-3.31-4.2,.11-9.53,.03-11.23,.22-2.59,.3-5.33,1.65-6.55,1.26-.23-.07-.45-.17-.65-.27-.85-.42-1.41-1.09-1.62-2.1-.79-3.89,4.2-10.8,2.84-12-.99-.88-4.7,2.95-6.97,4.55-.84,.59-1.49,.88-1.72,.51-.88-1.38-1.3-4.88-1.51-7.74-.21-2.86-1.03-6.44,.34-7.32,.29-.19,.85-.02,1.57,.34,2.74,1.37,7.8,5.67,8.87,5.32,1.35-.44-1.31-11.2-1.61-12.82-.3-1.65-.17-3.09,1.17-4.06,1.34-.97,15.76-.68,20.43,.75,4.17,1.27,7.01,3.14,10.02,6.02,4,3.81,5.23,8.43,6.56,9.87,1.1,1.18,3.97,1.27,3.89,2.37-.08,1.1-3.02,.49-3.05,1.49Z"/>
  </g>
</svg>