<?xml version="1.0" encoding="UTF-8"?>
<svg id="Layer_2" data-name="Layer 2" xmlns="http://www.w3.org/2000/svg" viewBox="0 0 58.25 38.84">
  <defs>
    <style>
      .cls-1 {
        fill: #808080;
        fill-rule: evenodd;
      }
    </style>
  </defs>
  <g id="Layer_1-2" data-name="Layer 1">
    <path class="cls-1" d="M57.39,14.53c1.86,.31,.11,1.36,.11,1.36-1.75,.19-7.97,3.25-9.64,5.14-1.67,1.89-6.14,5.72-9.47,6.67-3.33,.94-5.86,3.81-5.86,3.81-4,1.89-5.56,5.17-5.56,5.17,.95-4.11,4.83-6.78,4.83-6.78-4.45,.83-8.56,5.33-11.11,7.39-2.56,2.06-9.31,1.69-9.89,1.03-.58-.67-.75-3.45-.56-4.53,.19-1.08,1.19-4.58,.86-5.42-.33-.83-1.97,0-3.56,2.56-1.58,2.56-5.31,2.78-5.72,2.47-.42-.31-.06-.42,.22-2.31,.28-1.89-1.31-3.53-1.81-4.64-.5-1.11-.14-4.92,.36-5.31,.5-.39,1.03-.58,3.56,1.72,2.53,2.31,6.42,1.33,6.42,1.33,2.28-4.56-1.42-9.81-1.83-10.67-.42-.86-.36-2.47,2.42-3.83,2.78-1.36,4.75-5.92,4.75-5.92,.75-.14,3.03,1.17,3.03,1.17-.95-1.44-2.39-2.11-2.39-2.11,2.78-.72,7.42,2.08,7.42,2.08-3.06-2.89-6.06-3.83-6.06-3.83,2.78,0,7.39,2.89,7.39,2.89-1.67-2.83-4.72-3.56-4.72-3.56,4.83,.72,9.31,5.11,9.31,5.11-1-3.5-4.78-5.53-4.78-5.53,4.28,1.33,7.33,6.25,7.33,6.25-.11-2.31-2.17-4.7-2.17-4.7,1.95,.47,7.95,6.64,12.5,11.25,4.56,4.61,14.61,1.72,14.61,1.72h0Z"/>
  </g>
</svg>