<?xml version="1.0" encoding="UTF-8"?>
<svg id="Layer_2" data-name="Layer 2" xmlns="http://www.w3.org/2000/svg" viewBox="0 0 99.51 56.59">
  <defs>
    <style>
      .cls-1 {
        fill: #808080;
      }
    </style>
  </defs>
  <g id="Layer_1-2" data-name="Layer 1">
    <path class="cls-1" d="M33.89,0c.05,0,.1,0,.16,0,.15,.09,.23,.21,.2,.4-.08,.54-.14,1.07-.22,1.61-.11,.77,0,1.5,.33,2.21,.14,.31,.34,.42,.68,.35,.53-.1,.96-.41,1.3-.8,.48-.54,.9-1.13,1.33-1.7,.1-.13,.2-.21,.37-.16,.17,.06,.2,.19,.18,.35-.03,.19-.04,.38-.05,.57-.03,.68,.02,1.35,.34,1.96,.27,.51,.69,.7,1.24,.6,.63-.11,1.13-.48,1.61-.87,.85-.69,1.53-1.54,2.18-2.42,.11-.15,.23-.28,.43-.18,.2,.1,.16,.27,.11,.45-.09,.26-.17,.52-.25,.78-.26,.87-.48,1.74-.45,2.66,.02,.61,.41,.89,.98,.68,.2-.07,.41-.16,.56-.3,.43-.41,.85-.83,1.25-1.27,.27-.31,.49-.67,.73-1,.1-.14,.23-.19,.38-.11,.15,.08,.18,.22,.11,.38-.03,.08-.06,.16-.09,.24-.2,.54-.32,1.08-.3,1.66,.03,.76,.66,1.23,1.4,1.02,.59-.16,1.09-.5,1.56-.87,.12-.1,.25-.17,.39-.06,.14,.1,.13,.23,.09,.39-.08,.32-.15,.64-.18,.96-.09,.8,.24,1.05,1.01,.79,.09-.03,.18-.06,.26-.11,.34-.19,.69-.39,1.03-.59,.14-.08,.29-.15,.39-.02,.07,.08,.1,.25,.07,.37-.13,.59-.28,1.17-.43,1.75-.13,.54-.05,.65,.58,.5,.51-.12,1.01-.33,1.51-.5,.34-.12,.47-.03,.51,.32,.05,.48,.09,.96,.34,1.39,.13,.22,.33,.33,.56,.23,.3-.13,.62-.25,.85-.46,.82-.71,1.59-1.46,2.4-2.17,.53-.46,1.11-.87,1.67-1.29,.13-.1,.26-.08,.4,.02,.32,.23,.66,.44,.99,.65,.08,.05,.19,.09,.28,.09,.55,.03,1.05,.16,1.42,.62,.16,.2,.36,.38,.53,.57,.35,.39,.75,.69,1.29,.75,.26,.03,.46,.13,.61,.36,.12,.18,.32,.26,.55,.15,.19-.09,.39-.18,.57-.29,.44-.26,.87-.25,1.29,.02,.23,.15,.44,.33,.68,.47,.2,.12,.42,.28,.64,.3,.31,.02,.44,.15,.52,.42,.18,.65,.61,1.09,1.25,1.3,.31,.1,.62,.19,.94,.25,.25,.04,.38,.16,.45,.39,.2,.65,.41,1.29,.62,1.93,.12,.37,.23,.77,.57,.98,.76,.46,1.25,1.15,1.67,1.9,.46,.81,.75,1.68,.75,2.62,0,.64-.23,1.14-.84,1.41-.17,.08-.23,.38-.5,.26-.01,0-.05,.02-.06,.04-.1,.16-.2,.31-.3,.47-.09,.15-.15,.34-.28,.44-.29,.23-.61,.41-.92,.61-.1,.06-.2,.12-.32,.18,.86,.26,1.69,.32,2.54,.07,.7-.21,1.41-.37,2.11-.55,.53-.13,1.09-.2,1.59-.41,1.22-.52,2.42-1.11,3.63-1.66,1.73-.78,3.37-1.75,5.15-2.46,2.67-1.07,5.35-2.07,8.17-2.64,.38-.08,.42-.05,.53,.33,.05,.17,.13,.34,.22,.49,.17,.27,.37,.52,.53,.8,.17,.29,.32,.58,.45,.89,.11,.25,0,.46-.23,.59-.19,.1-.39,.18-.59,.26-.27,.11-.55,.21-.83,.32,.36,.05,.71,.06,1.06,.04,.67-.04,.68-.05,.86,.6,.26,.94,.48,1.89,.42,2.87-.04,.64,.02,.8-.78,1.05-.14,.04-.28,.07-.42,.12-.07,.03-.13,.09-.2,.13,.31,.12,.59,.2,.84,.33,.12,.06,.24,.21,.28,.34,.09,.29,.14,.6,.18,.91,.06,.48,.11,.96,.16,1.43v1.45c-.07,.85-.14,1.7-.2,2.55-.03,.45-.14,.59-.59,.67-.27,.05-.54,.11-.81,.17-.01,.03-.03,.06-.04,.09,.34,.33,.66,.66,1.01,.98,.14,.13,.19,.25,.17,.43-.1,.75-.2,1.5-.31,2.25-.11,.71-.27,1.41-.62,2.06-.14,.26-.31,.31-.57,.25-1.4-.35-2.82-.66-4.21-1.07-2.48-.73-4.93-1.52-7.41-2.27-1.08-.33-2.18-.61-3.27-.87-.4-.1-.82-.08-1.23-.12-.55-.07-1.1-.19-1.66-.21-1.13-.05-2.25,.09-3.37,.24-1.98,.28-3.92,.75-5.83,1.38-.22,.07-.44,.16-.6,.22,1.19,.5,2.42,.98,3.62,1.52,1.1,.5,2.12,1.13,2.93,2.06,.2,.23,.18,.38-.09,.53-.35,.2-.71,.36-1.1,.27,.25,.4,.51,.79,.73,1.21,.12,.24,.19,.52,.23,.78,.05,.38-.18,.52-.52,.37-.31-.14-.63-.28-.96-.37-.45-.12-.92-.19-1.38-.29,.04,.19,.1,.3,.16,.41,.32,.56,.65,1.11,.96,1.68,.25,.45,.12,.67-.4,.65-.42-.01-.84-.05-1.25-.13-1.2-.23-2.34-.67-3.44-1.19-.27-.12-.53-.26-.8-.38,.13,.18,.28,.34,.45,.47,.66,.5,1.33,.98,1.98,1.49,.24,.19,.47,.41,.67,.64,.07,.09,.11,.29,.06,.37-.06,.1-.24,.15-.37,.16-.17,0-.34-.04-.5-.1-1.42-.56-2.83-1.13-4.25-1.7-.44-.18-.87-.37-1.37-.58,.12,.3,.22,.54,.31,.78,.36,.88,.71,1.76,1.07,2.64,.06,.15,.07,.31-.09,.38-.1,.04-.27,.03-.37-.03-.74-.44-1.38-1-1.99-1.6-1.45-1.44-2.91-2.88-4.37-4.31-.05-.05-.19-.07-.25-.04-.94,.41-1.87,.87-2.82,1.25-2.82,1.14-5.7,2.07-8.73,2.59-.14,.8-.01,1.54,.46,2.21,.15,.21,.15,.37,0,.55-.26,.34-.35,.72-.29,1.14,.03,.2,.03,.41,.04,.62,0,.22-.1,.33-.32,.34-.44,.01-.88,.02-1.32,.05-.34,.02-.67,.08-1.04,.13,.1,.18,.17,.31,.24,.44,.28,.53,.57,1.06,.83,1.6,.15,.32,0,.49-.35,.48-.17,0-.35-.02-.52-.02-.79,.04-1.58,.08-2.37,.12-.21,.01-.41,.04-.66,.06,.28,.32,.53,.59,.77,.87,.33,.38,.68,.76,.99,1.16,.23,.29,.22,.43,.01,.65h-.62c-.12-.03-.23-.05-.35-.08-1.03-.24-1.94-.74-2.81-1.3-1.56-1-2.85-2.31-4.18-3.57-.5-.47-.93-1-1.4-1.51-.02,.07-.04,.14-.06,.2-.06,.24-.23,.31-.44,.19-.07-.04-.13-.09-.19-.14-.49-.36-.98-.73-1.58-.91-.47-.15-.78-.04-1.04,.37-.08,.13-.15,.27-.23,.4-.15,.24-.38,.24-.52,0-.07-.13-.13-.28-.21-.41-.37-.68-.76-1.35-1.38-1.85-.45-.36-1-.47-1.41,.03-.14,.17-.36,.13-.46-.07-.07-.13-.13-.27-.15-.41-.08-.54-.15-1.09-.23-1.67,.03,.01,.01,0,0,0-.81-.18-1.63-.34-2.44-.54-2.09-.51-4.14-1.16-6.15-1.92-.79-.3-1.65-.45-2.45-.73-1.24-.43-2.46-.89-3.67-1.38-1.91-.77-3.83-1.55-5.72-2.39-1.79-.8-3.5-1.76-5.08-2.92-.13-.09-.28-.16-.43-.21-.61-.2-1.12-.51-1.35-1.16v-.36c.4-1.02,1.22-1.39,2.3-1.42-.57-.39-1.09-.74-1.61-1.1-.14-.1-.29-.2-.39-.33-.5-.64-.3-1.54,.46-1.99,.41-.24,.85-.41,1.37-.18,0-.01,.02-.05,.04-.07,.76-.86,1.51-1.72,2.27-2.58,.32-.37,.61-.78,.98-1.09,.78-.65,1.6-1.24,2.4-1.87,.08-.06,.17-.16,.19-.26,.47-2.36,2.67-4.29,5.33-4.07,.55,.05,.99-.06,1.45-.36,2.19-1.42,4.54-2.55,6.9-3.65,.17-.08,.24-.16,.19-.36-.11-.54-.25-1.09-.27-1.65-.04-1-.04-2,0-3,.03-1.03,.28-2.02,.67-2.97,.07-.16,.15-.31,.35-.28,.19,.03,.22,.2,.27,.37,.19,.7,.35,1.42,.62,2.09,.25,.63,.59,.65,.97,.08,.32-.46,.63-.95,.83-1.47,.56-1.45,1.07-2.93,1.59-4.4,.06-.16,.13-.32,.33-.31,.2,.02,.23,.18,.28,.35,.16,.54,.28,1.1,.52,1.6,.32,.67,.83,.78,1.48,.41,.07-.04,.16-.08,.22-.14,.48-.48,1.01-.92,1.44-1.44,.97-1.18,1.73-2.5,2.47-3.84,.06-.11,.16-.21,.25-.31Zm3.9,4.63c.06,.3,.12,.62,.45,.85-.17-.32-.31-.59-.45-.85Zm26.65,5.77s.04-.04,.07-.05c-.19-.2-.38-.41-.58-.61-.02,.02-.03,.03-.05,.05l.56,.62Z"/>
  </g>
</svg>