<?xml version="1.0" encoding="UTF-8"?>
<svg id="Layer_2" data-name="Layer 2" xmlns="http://www.w3.org/2000/svg" viewBox="0 0 79.57 33.77">
  <defs>
    <style>
      .cls-1 {
        fill: #808080;
      }
    </style>
  </defs>
  <g id="Layer_1-2" data-name="Layer 1">
    <path class="cls-1" d="M78.84,6.32c.23-.07,.49-.07,.73-.1-.16,.16-.32,.32-.48,.48-1.76,1.69-3.07,3.71-4.08,5.92-.52,1.13-.93,2.3-1.17,3.53-.3,1.53-.19,3.04,.16,4.55,.57,2.42,1.54,4.66,2.99,6.68,.25,.35,.56,.66,.84,.98h0c.25,.29,.5,.59,.75,.88,.07,.08,.15,.14,.21,.21,.04,.04,.05,.1,.08,.15-.06,0-.14,.03-.19,0-1.14-.44-2.2-1.03-3.16-1.77-1.26-.98-2.36-2.12-3.38-3.34-.65-.77-1.33-1.52-1.99-2.28-.46-.52-.91-1.05-1.38-1.56-.59-.64-1.29-1.16-2.02-1.63-.33-.22-.68-.21-1.04-.17-.08,.01-.23,.14-.22,.16,.22,.43-.17,.24-.28,.25-.49,.04-.98,.02-1.47,.08-.47,.06-.51,.11-.53,.6,0,.17-.1,.14-.2,.14-.53-.01-1.07-.03-1.6-.02-.35,0-.69,.05-1.03,.09-.3,.04-.35,.12-.2,.39,.13,.24-.03,.2-.16,.2-.7,0-1.41,0-2.11,.02-.2,0-.4,.05-.59,.11-.42,.15-.46,.43-.12,.73,.03,.03,.06,.06,.09,.09-.74,0-1.47,0-2.21,.02-.2,0-.41,.04-.59,.12-.17,.07-.34,.22-.22,.44,.11,.2,.01,.23-.14,.22-.55-.03-1.11,0-1.64-.11-.76-.17-1.38,.15-2.02,.44-.14,.07-.27,.18-.41,.24-1.07,.46-1.23,1.46-.83,2.44,.33,.81,.9,1.44,1.56,1.99,.3,.25,.62,.48,.92,.72,.05,.04,.07,.11,.1,.17-.06,.03-.13,.08-.19,.08-.42-.03-.84-.04-1.25-.12-1.89-.34-3.5-1.24-4.9-2.53-.25-.23-.5-.48-.74-.73-.14-.15-.27-.2-.49-.13-1.94,.66-3.92,1.21-5.92,1.66-1.56,.35-3.14,.62-4.74,.73-1.02,.07-2.04,.13-3.07,.17-.92,.04-1.85,.06-2.77,.08-.36,.01-.37,.01-.2,.36,.23,.47,.22,.95,.12,1.44-.08,.38-.18,.76-.28,1.14-.19,.75-.07,1.5,.03,2.24,.04,.3,.25,.57,.38,.85,.03,.06,.05,.12,.07,.18-.07,0-.14,0-.2-.02-.56-.18-1.04-.49-1.47-.89-.81-.73-1.38-1.63-1.89-2.57-.42-.76-.86-1.51-1.26-2.27-.22-.42-.54-.53-.98-.55-1.28-.07-2.57-.13-3.84-.28-1.43-.17-2.84-.51-4.23-.92-2.94-.87-5.81-1.91-8.68-2.99-1.63-.61-3.18-1.37-4.72-2.18-.04-.02-.08-.04-.11-.07-.13-.11-.25-.22-.37-.33,.16-.03,.32-.06,.49-.08,1-.11,2-.21,3.01-.33,.09-.01,.17-.07,.26-.11-.07-.07-.13-.15-.22-.2-.58-.3-1.16-.59-1.74-.87-.58-.29-1.17-.56-1.75-.84-.19-.09-.23-.21-.05-.36,.42-.36,.83-.71,1.26-1.06,1.43-1.17,2.93-2.26,4.52-3.2,1.33-.79,2.69-1.53,4.06-2.23,2.24-1.15,4.59-2.05,7.01-2.74,1.5-.42,3.03-.74,4.55-1.09,.34-.08,.55-.19,.68-.54,.67-1.8,1.7-3.41,2.78-4.98,.49-.72,1.06-1.37,1.71-1.95,.06-.05,.14-.08,.21-.12-.01,.08-.02,.16-.04,.23-.11,.32-.27,.64-.33,.97-.09,.5,.14,.87,.6,1.08,.14,.06,.19,.11,.15,.28-.1,.47,.17,.82,.64,.87,.09,0,.17,0,.26,0,.15-.01,.23,0,.21,.21-.06,.52,.26,.88,.79,.92,.11,0,.23,0,.35,0,.14,0,.3-.07,.42-.02,.07,.03,.05,.23,.09,.35,.11,.37,.56,.63,1.01,.59,.19-.02,.37-.05,.55-.09,.15-.03,.27-.02,.29,.16,.03,.42,.34,.52,.66,.55,.24,.03,.49,0,.73-.03,.19-.01,.36-.03,.51,.15,.07,.09,.25,.12,.38,.13,.16,0,.32-.02,.47-.06,.33-.09,.59-.11,.78,.29,.13,.26,.45,.28,.74,.19,.23-.07,.43-.11,.56,.2,.04,.1,.23,.19,.36,.2,.4,.05,.8,.07,1.21,.08,.16,0,.25,0,.29,.21,.02,.12,.22,.27,.37,.3,.91,.24,1.82,.46,2.73,.69,.25,.06,.41-.07,.59-.2,1.3-.97,2.64-1.87,4.05-2.67,.49-.28,.99-.54,1.5-.78,.15-.07,.35-.04,.53-.06-.13,.12-.27,.24-.41,.34-.43,.33-.9,.63-1.3,1-.57,.53-.86,1.22-.9,2-.02,.36-.03,.72,.02,1.07,.06,.42,.3,.71,.72,.89,1.14,.48,2.27,1,3.41,1.51,.77,.34,1.53,.68,2.3,1.02,.24,.11,.48,.13,.76,.1,.95-.1,1.9-.05,2.84,.19,.06,.02,.11,.07,.16,.11-.05,.03-.09,.07-.14,.1-.16,.09-.33,.17-.49,.26-.04,.02-.06,.08-.1,.13,.05,.01,.1,.04,.16,.04,.65,0,1.3-.04,1.95,.02,.61,.06,1.22,.22,1.82,.34,.04,0,.08,.07,.12,.1-.04,.03-.08,.07-.13,.09-.3,.1-.6,.2-.89,.31-.04,.02-.07,.09-.1,.13,.05,0,.11,.01,.16,0,.92-.18,1.84-.1,2.75,.08,.25,.05,.5,.13,.75,.2,.05,.01,.09,.06,.14,.1-.05,.04-.09,.1-.15,.13-.2,.09-.41,.18-.62,.27,.76-.02,1.52-.07,2.27,.15,.1,.03,.2,.05,.29,.09,.05,.02,.09,.06,.13,.09-.05,.04-.09,.09-.15,.12-.14,.07-.29,.12-.43,.18,.16,0,.32-.02,.48-.02,.5,.03,1,.06,1.5,.1,.07,0,.14,.08,.2,.12-.06,.04-.12,.07-.17,.11-.04,.03-.08,.06-.13,.1,.05,.02,.09,.05,.14,.06,.23,.03,.46,.04,.69,.08,.72,.14,1.24-.26,1.77-.65,.98-.73,1.74-1.68,2.53-2.6,1.15-1.34,2.3-2.67,3.6-3.87,1.46-1.34,3.08-2.44,5.01-3.01Z"/>
  </g>
</svg>