<?xml version="1.0" encoding="UTF-8"?>
<svg id="Layer_2" data-name="Layer 2" xmlns="http://www.w3.org/2000/svg" viewBox="0 0 62.08 55.2">
  <defs>
    <style>
      .cls-1 {
        fill: #808080;
      }
    </style>
  </defs>
  <g id="Layer_1-2" data-name="Layer 1">
    <path class="cls-1" d="M33.97,35.98c-.54,1.26-1.21,2.46-1.92,3.63-4.13,6.78-10,12.81-17.45,15.54-1.62,.12-3.45,.15-4.97-.69-.42-.23-.86-.68-.68-1.13,.07-.17,.22-.3,.37-.41,.95-.71,2.08-1.12,3.12-1.69s2.04-1.36,2.42-2.48c.39-1.17,.08-2.6,.87-3.54,.25-.3,.6-.54,.69-.92,.06-.24,0-.49-.05-.73-.14-.82-.04-1.69,.29-2.46,.4-.93,1.13-1.7,1.53-2.63,.54-1.25,.45-2.67,.5-4.03s.32-2.84,1.35-3.74c-6.3,3.47-10.23,10.23-10.44,17.21-.02,.66-.01,1.33-.19,1.96-.09,.32-.3,.67-.62,.68-.17,0-.33-.09-.48-.19-.63-.45-1.11-1.08-1.51-1.74-1.47-2.41-1.91-5.41-1.21-8.14-1.54,2.57-4.73,3.66-5.55,6.24-.09-.88,.17-1.76,.42-2.61,1.11-3.75,2.27-7.58,4.64-10.69-.76,.25-1.44,.61-2.17,.82,1.31-1.2,2.03-2.96,3.13-4.41,1.78-2.33,4.47-3.75,7.14-4.95,1.59-.72,3.22-1.38,4.92-1.75,1.5-.33,3.04-.42,4.55-.74,2.5-.53,4.82-1.65,7.12-2.76,.97-1.07,2.2-2.08,3.48-3.01-.96,.15-1.98,.47-3,.78-.62,.19-1.25,.38-1.89,.34-.26-1.05,.33-1.89,.78-2.73s.74-1.94,.15-2.69c.5-.37,1-.75,1.35-1.26s.54-1.17,.33-1.76c1.33-.49,2.19-1.99,1.95-3.39,.98-.4,1.71-1.37,1.82-2.42,.02-.24,.02-.48,.12-.7,.09-.19,.25-.33,.38-.48,.52-.62,.64-1.55,.29-2.28,2.01,.4,3.81,1.72,5.15,3.37,1.34,1.65,2.25,3.61,2.89,5.64,.33,1.04,.65,2.18,1.71,2.92,2.07-.32,4.27,.3,6,1.7,1.33-.21,2.69-.27,4.03-.17,.64,.05,1.27,.13,1.9,.21,.43,.06,.86,.11,1.29,.17,.52,.07,1.04,.14,1.54,.29,.6,.18,1.19,.5,1.57,1s.54,1.21,.3,2.03c.32,1.3,.05,2.7-.49,3.92s-1.36,2.31-2.16,3.39c-1.13,1.52-2.26,3.04-3.39,4.7-.06,2.33-1.28,4.6-3.18,5.93,.07-.62,.05-1.25-.04-1.86,.02,.35-.16,.69-.34,.99-.72,1.23-1.45,2.46-2.17,3.69-.16-.78-.31-1.55-.47-2.33-.13-.63-.22-1.38,.24-1.84-.57,.17-1.16,.26-1.75,.26,1.74,4.17,1.37,9.16-.97,13.02-.17,.29-.41,.6-.75,.6-.28,0-.51-.22-.69-.43-.97-1.08-1.8-2.28-2.44-3.44-.81,2.19-2.04,4.23-3.61,5.96-.27,.3-.69,.62-1.04,.42-.13-.07-.22-.21-.3-.34-2.18-3.52-3.3-7.69-3.17-11.83,.02-.55,.07-1.13,.38-1.58,.37-.52,1.02-.76,1.63-.94,1.7-.52,3.44-.92,5.17-1.27-2.18-.22-4.08-1.57-5.75-3-.43-.37-.89-.8-.97-1.37-.33,2.01-.85,4.14-1.7,6.13Z"/>
  </g>
</svg>