<?xml version="1.0" encoding="UTF-8"?>
<svg id="Layer_2" data-name="Layer 2" xmlns="http://www.w3.org/2000/svg" viewBox="0 0 130.97 73.01">
  <defs>
    <style>
      .cls-1 {
        fill: #808080;
        fill-rule: evenodd;
      }
    </style>
  </defs>
  <g id="Layer_1-2" data-name="Layer 1">
    <path class="cls-1" d="M96.39,27.3c-.72,.15-1.01,.64-1.7,.92,1.38,1.07,2.67,2.18,3.85,3.44,1.19,1.26,2.02,2.8,3.21,4.08,.86,.45,1.51,1.21,2.38,1.74,.48,.3,1.1,.48,1.7,.78,.53,.27,1.12,.72,1.65,.78,.31,.04,.75-.08,1.14-.09,.42-.01,.84,.03,1.24,0,.7-.06,1.45-.39,2.25-.64,2.18-.69,4.15-1.5,6.42-2.11,1.52-.4,3.26-.53,4.9-.78,1.61-.24,3.82-.41,5.41,.09,.58,.18,1,.54,1.74,.78,.88,1.08,.06,2.26-.5,3.39-.37,.73-.7,1.47-1.05,2.02-1.29,1.97-2.79,3.32-4.31,5-.5,.55-.89,1.17-1.42,1.65-.33,.3-.69,.61-1.01,.96-.39,.42-.95,.82-1.42,1.24-.6,.53-1.21,.89-1.65,1.7-1.78,3.21-1.47,8.26-2.66,12.14,.05,.17,.12-.26,.18-.09-.16,1.14-.54,2.25-.91,3.34-.38,1.08-.87,2.07-1.24,3.03-.22,.57-.2,1.16-.51,1.65-.24,.39-.71,.78-1.51,.69-.26-.03-.52-.19-.83-.32-1.72-.74-2.73-2-3.62-3.76-.7-1.38-1.35-2.83-1.88-4.4-.56-1.65-.8-3.39-1.1-5.18-.33-1.92-.17-3.89-.32-5.91-.04-.48-.27-1.04-.46-1.6-.14-.42-.3-1.04-.55-1.28-.34-.33-1.19-.64-1.79-.82-1.9-.6-4.01-1.27-6.37-1.33,.93,.82,2.76,2.05,3.12,3.62,.44,1.89-1.87,2.45-2.61,3.58-.86,1.3-.88,3.31-1.97,4.17-.66,.52-1.29,.56-2.34,.41-2.57-.36-4.59-1.83-6.14-3.16-1.55-1.33-2.45-2.71-3.62-4.35-.47-.66-1.01-1.32-1.61-1.83-1.39-.52-4.04-.32-6.05-.32-.85,0-1.68,0-2.52-.04-1.55-.07-3.02-.17-4.54,0,.86,.99,2.23,2.39,3.07,3.85,.3,.52,.7,1,.82,1.51,.09,.34,.1,.69,.19,1.05,.21,.83,.68,2.36,.27,3.3-.56,1.29-4.01,2.21-5.73,1.7-.59-.43-1.3-.6-1.92-.92-1.75-.91-3.54-2.19-4.86-3.62-1.79-1.94-3.74-3.82-4.9-6.37-2.11,.05-3.22,1.09-5.18,1.28,.63,1.07-.43,1.53-1.24,2.06-.54,.36-1.05,.7-1.51,1.05-.83,.64-1.04,1.15-1.74,1.51-.33,.17-1.08,.17-.96,.55-1.87-.12-3.63,.06-4.95-.69-.39-.22-.87-.62-1.28-1.01-.43-.4-.95-.71-1.24-1.01-.59-.59-.96-1.38-1.56-1.92-.61,.14-1.65,.08-2.25,.09,.07,.73,.91,1.25,1.28,1.93,.2,.36,.62,1.36,.28,1.83-.42,.58-2.61,.16-3.16,0-.96-.28-1.79-.85-2.48-1.24-1.71-.98-2.83-2.27-3.94-3.44-2.62-.61-4.92-2.07-8.11-2.29-1.03-.07-2.14-.26-3.21-.23-.75,.02-1.4,.14-2.06,.09-1.77-.14-3.65-.67-5.23-1.19-2.14-.71-3.68-2.08-5.13-3.39,.23-.37-.28-1.15-.05-1.79-.52-.25-.63-.49-.6-.96,.03-.42,.4-.78,.64-1.19,1.37-2.26,2.88-4.18,5.13-5.68,.36-.24,.8-.41,1.1-.69,.29-.26,.49-.67,.73-.96,1.75-2.13,3.93-3.96,6.69-5.13,.8-.33,1.58-.71,2.39-1.01,1.25-.46,2.42-.94,3.53-1.56,.18-.1,.33-.27,.5-.37,.18-.1,.41-.13,.6-.23,2.18-1.13,3.74-3.01,5.77-4.36,1.36-.9,2.67-1.84,4.17-2.57,.77-.37,1.58-.67,2.38-1.01,1.97-.82,3.94-1.68,6.37-2.06,.51-.08,.99-.04,1.56-.09,.74-.07,1.56-.29,2.43-.41,1.67-.22,3.39-.28,5.36-.28,.96,0,2.01,.23,2.7,.09,.52-.1,1.31-1.01,1.74-1.56,.57-.72,.92-1.29,1.28-1.97,.77-1.45,1.72-2.79,2.47-4.03,.76-1.25,1.58-2.65,2.52-3.99,.88-1.25,2.15-2.58,3.39-3.12,.44-.19,1.23,.55,1.69,.92,1.38,1.09,2.59,2.48,3.85,3.58,3.56,3.08,7.86,5.39,12.6,7.15,1.87,.69,3.57,1.28,5.27,2.15,.5,.26,.99,.7,1.6,.73,.2,.34,.63,.5,.96,.69,1.02,.56,2.12,1.14,3.12,1.83,1.24,.86,2.4,1.97,3.57,2.98,1.11,.95,2.17,2.17,3.07,3.53,.41,.62,1,1.18,1.46,1.83,.35,.49,1.26,1.48,1.15,2.11-.09,.53-.98,.67-1.65,.59-1.15-.13-2.09-1.17-3.8-.82Z"/>
  </g>
</svg>