<?xml version="1.0" encoding="UTF-8"?>
<svg id="Layer_2" data-name="Layer 2" xmlns="http://www.w3.org/2000/svg" viewBox="0 0 156 60.41">
  <defs>
    <style>
      .cls-1 {
        fill: #808080;
      }
    </style>
  </defs>
  <g id="Layer_1-2" data-name="Layer 1">
    <path class="cls-1" d="M155.91,35.6c-.15,.68-.45,1.33-.68,2,.18,.13,.48,.33,.47,.35-.19,.33-.57,.92-.62,.89-1.27-.67-1.37,.47-1.79,1.11-.19,.29-.38,.57-.58,.85-.71,.59-1.42,1.19-2.13,1.78,0,0,0,0,.01,0h-.02c.1,.18,.21,.35,.31,.52-.34-.05-.68-.11-1.01-.16,0,0-.02,0-.03,.01h.01c-2.18,1.08-4.36,2.17-6.54,3.29-.57,.29-1.11,.65-1.66,.98h.02s-.02,.01-.03,.01c-.35,.57-.7,.54-1.05,0h-.03l.02-.02c-2.75,1.11-5.49,2.26-8.26,3.3-1.2,.45-1.73,1.31-2.08,2.4,0,0,0,.01,0,.02h-.74s0,0,0-.01c-2.21,1.65-4.4,3.32-6.63,4.95-.46,.33-1.03,.51-1.56,.75v.02c.08,.03,.16,.07,.25,.1-.08,.07-.16,.15-.25,.22v.03s-.02,0-.03-.01c-.24,.18-.48,.35-.71,.53-.23,.18-.46,.36-.69,.54,.01,0,.02,.01,.04,.02-.02,0-.04,0-.05,0v-.02c-1.15-.36-2.3-.46-3.45,.1-.36,.17-.81,.27-1.21,.25-.86-.06-1.72-.21-2.58-.33,.39-.68,.74-1.38,1.18-2.02,.62-.89,.7-2.19,1.93-2.65,0,0-.08-.45-.18-.49-.83-.25-1.66-.57-2.51-.63-1.89-.13-3.79-.12-5.68-.17-.24,0-.52-.12-.7-.03-2.32,1.12-4.6-.15-6.91-.15-2.3,0-4.62-.3-6.89-.71-4.07-.75-8.1-1.69-12.16-2.54-.52-.11-1.05-.15-1.57-.27-.91-.2-1.83-.38-2.71-.68-1.21-.41-2.37-.95-3.58-1.37-.3-.1-.78-.09-1.02,.08-3.23,2.32-6.91,3.68-10.7,4.61-2.88,.71-5.52,.58-7.72-2.41-.3-.4-.52-.94-.58-1.43-.19-1.73-.41-3.41-1.99-4.53-.15-.1-.13-.44-.19-.67,0,0-.01,.01-.01,.01v-.06c-.02-.07-.05-.14-.06-.21,0-.03,.03-.06,.06-.09v-.03s.01,.02,.02,.02c-.24-.36-.49-.72-.73-1.07h0c-.23-.36-.47-.71-.7-1.06l-.02,.02v-.03c-.11-.11-.22-.22-.33-.33h-.03s0-.02,.01-.02c-.11-.26-.23-.51-.33-.77-.13-.33-.25-.66-.38-.98l-.06,.05,.04-.06c-.8-.12-2.18-.49-2.25-.32-.46,1.12-1.44,.47-2.08,.8-.84,.44-1.68,.86-2.53,1.27-.9,.44-1.83,.84-2.72,1.29-1.21,.61-2.42,1.23-3.6,1.89-1.47,.83-3.12,.47-4.22-.85-.78-.94-1.69-1.77-2.55-2.65l-.06,.04,.05-.06,.02,.02c-.68-1.01-1.32-2.04-2.05-3-.13-.17-.67-.19-.91-.06-.41,.22-.72,.61-1.07,.93-2.22,2.06-4.35,4.24-6.71,6.13-1.7,1.36-3.64,2.48-5.61,3.4-1.06,.49-2.42,.31-3.65,.43l.02,.02-.07,.05,.03-.04c-.31,.04-.62,.11-.93,.09-.46-.03-1.07,.06-.55-.81,.09-.15-.88-.94-1.35-1.44h.01c-1.49-2.78-3.62-5.27-4.19-8.51-.25-1.39-.39-2.8-.51-4.2-.04-.51-.93-.5-.58-1.27,.26-.56,.17-1.27,.26-1.92,.09-.69,.23-1.38,.3-2.08,.32-2.94,.58-5.89,.97-8.82,.16-1.18,.59-2.33,.9-3.49,.47,.35,.94,.7,1.41,1.05,0,0,0,0,0,0,0,0,.01,0,.02,0,0-.23,0-.45,0-.68l.68,.68s.02,0,.03,0c0,.01,0,.02-.01,.03,.55,2.56,1.93,4.49,4.29,5.69l-.02-.02s.02,0,.03,0c.22-.68,.45-.35,.69,0,0,0,.02,0,.03,0v.03c.11,.11,.22,.22,.33,.33,.01,0,.02,0,.03,0,0,0,0,.02,0,.02,.08,.04,.17,.07,.25,.11l-.25,.22s0,.02,0,.02c2.66,1.32,5.2,2.94,8.25,3.28,.53,.06,1.06,.14,1.59,.15,2.6,.01,2.76-.28,3.32-2.78,.51-2.29,1.37-4.5,2.09-6.73,.05-.16,.2-.39,.31-.4,2.03-.05,3.26-2.05,5.28-2.13,1.89-.08,3.77-.33,5.66-.35,2.28-.02,4.62-.21,6.69,1.13l-.02-.02,.07-.05-.05,.06c1.42,.97,2.87,1.22,4.47,.33,.77-.43,1.66-.65,2.49-.95,1.21-.44,2.57-.7,2.91-2.27,0-.02,.31,.02,.47,.03h-.01c3.27-2.76,6.36-5.77,9.87-8.16,2.43-1.65,5.34-3,8.21-3.49,6.24-1.06,12.13,.67,17.63,3.69,1.77,.97,3.46,2.08,5.21,3.09,1.49,.86,3.06,1.13,4.73,.59-.08-.03-.16-.05-.24-.08,.09,.02,.18,.04,.27,.07,.04-.28,.15-.57,.09-.83-.43-1.87,.12-3.48,1.16-5.02,1.77-2.6,4.19-3.45,7.17-2.46,1,.33,2.08,.49,3.03,.92,.94,.42,1.79,1.07,2.65,1.65,1.2,.81,2.35,1.7,3.58,2.46,.51,.31,.98,.47,.52,1.13,0,0,0,0,0,0,.11,.24,.23,.47,.34,.71,.13,0,.25,0,.38,0l-.02,.02c.59,.94,1.18,1.89,1.77,2.83,.02,0,.04,0,.06,0-.02,0-.03,.02-.05,.03l-.02-.02c.24,.36,.48,.71,.72,1.07,0,0,.01,0,.02,0,.03-.08,.07-.16,.1-.25,.07,.08,.14,.16,.22,.25h.04v.03c.06,.32,.18,.64,.18,.97,.02,1.72,.41,2.31,2,2.86,1.17,.4,2.34,.77,3.52,1.15h-.01c.25-.01,.49-.01,.74-.02v.02c.17,.04,.33,.07,.5,.11-.17,.08-.33,.15-.5,.23v.02c.59,.24,1.18,.48,1.78,.72l-.02-.02s.05,0,.07-.01c-.01,0-.03,.01-.04,.02,.35,.12,.71,.24,1.06,.37h-.02s.06-.06,.06-.06l-.04,.05c2.5,1.18,4.99,2.37,7.49,3.55h0c.16-.06,.38-.2,.45-.14,1.14,.8,2.22,1.7,3.4,2.42,2.73,1.66,5.51,3.24,8.27,4.85,.12-.23,.24-.46,.36-.69,.71,1.65,2.16,2.58,3.49,3.67,1.33,1.09,2.65,2.29,2.19,4.3Z"/>
  </g>
</svg>