<?xml version="1.0" encoding="UTF-8"?>
<svg id="Layer_2" data-name="Layer 2" xmlns="http://www.w3.org/2000/svg" viewBox="0 0 60.99 51.71">
  <defs>
    <style>
      .cls-1 {
        fill: #808080;
      }
    </style>
  </defs>
  <g id="Layer_1-2" data-name="Layer 1">
    <path class="cls-1" d="M58.48,34.23c-2.32,1.05-6.61-3.78-9.63-4.81,2.2,2.48,3.7,5.44,4.2,8.16-7.39,1.08-7.7,7.62-18.03,9.19-5.26,.8-8.34-1.15-12.12-3.22,1.41,1.03,2.64,2.35,3.42,4.26-.95-.07-1.96-.33-2.98-.72,1.08,1.26,1.97,2.75,2.51,4.61-6.27-1.13-13.95-9.29-13.95-9.29,0,0-1.38-2.3-1.93-4.34-4.25-3.1-7.19-8.42-8.55-11.45-.51-1.13-1.11-1.11-1.24-1.86-.06-.31,.82-.43,.82-.76,0-.3-1.71-.56-.68-1.1,1.07-.56,1.54-1.37,2.51-3.36,1.84-3.78,3.27-9.79,10.28-10.82,.22-.03,.44-.05,.66-.08C17.58,4.73,23.09-1.56,31.15,.35c12.17,2.88,20.55,14.51,25.42,10.73-.24,3.03-1.71,6.29-4.08,8.92,1.93-1.51,3.87-3.31,5.54-3.15,4.14,.39,3.6,15.96,.45,17.38Z"/>
  </g>
</svg>