<?xml version="1.0" encoding="UTF-8"?>
<svg id="Layer_2" data-name="Layer 2" xmlns="http://www.w3.org/2000/svg" viewBox="0 0 79.31 48.8">
  <defs>
    <style>
      .cls-1 {
        fill: #808080;
      }
    </style>
  </defs>
  <g id="Layer_1-2" data-name="Layer 1">
    <path class="cls-1" d="M15.4,45.98c-.46,0-10.24,1.48-13.2,0-2.96-1.48-1.37-4.66,.91-6.94s5.35-3.98,10.01-5.46c4.66-1.48,12.74-1.37,20.93-11.26,8.19-9.9,12.17-12.74,18.66-12.86s11.72-.46,14.11-2.16C69.22,5.59,76.16,.36,77.86,.01c1.71-.34,1.82,5.35,.8,7.96-1.02,2.62-2.96,3.53-9.56,3.75,0,0-2.73,2.28-11.04,3.53-8.31,1.25-9.78,3.19-15.47,10.58-5.69,7.4-6.94,12.4-20.82,16.95,0,0,5.01-.68,5.8,.34,.8,1.02-1.59,5.46-5.69,5.46s-6.49-2.62-6.49-2.62ZM41.91,15.94s5.69-3.07,6.71-4.44c1.02-1.37,1.08-7.68-.74-8.14-1.82-.46-6.54,5.18-7.93,8.25-1.39,3.07,1.28,4.32,1.28,4.32m-23.89,18.43c.57-1.48-2.28-4.1-4.78-3.07-2.5,1.02-3.64,6.26-3.64,6.26,0,0,7.85-1.71,8.42-3.19ZM1.29,46.79c.12-.45,.34-.84,.66-1.17,.3-.31,.71-.43,1.01-.71,.14-.13,.03-.36-.15-.37-.47-.01-.96,.42-1.26,.76-.34,.39-.56,.87-.64,1.38-.04,.24,.31,.35,.38,.1h0Zm3.72,1.32c.27-.57,.4-1.16,.25-1.78-.14-.6-.58-1.35-1.05-1.75-.11-.09-.26-.03-.27,.11-.05,.51,.32,.86,.55,1.28,.34,.63,.41,1.31,.15,1.99-.08,.21,.26,.35,.36,.15h0Zm1.65,.52c-.13-1.49-.7-3.38-2.26-3.92-.15-.05-.27,.16-.16,.27,.49,.47,.99,.95,1.32,1.55,.37,.67,.57,1.41,.74,2.15,.05,.19,.37,.16,.35-.05h0ZM.28,46.3c.27-.31,.56-.62,.91-.85,.32-.2,.68-.26,1.04-.32,.14-.02,.16-.24,.04-.31-.96-.5-1.78,.59-2.25,1.28-.1,.15,.13,.33,.25,.2H.28Zm6.16-.17c.59,.38,.84,.94,1.16,1.54,.07,.13,.26,.06,.26-.07,0-.77-.6-1.43-1.22-1.8-.21-.13-.4,.2-.19,.33h0Z"/>
  </g>
</svg>