<?xml version="1.0" encoding="UTF-8"?>
<svg id="Layer_2" data-name="Layer 2" xmlns="http://www.w3.org/2000/svg" viewBox="0 0 69.65 62.86">
  <defs>
    <style>
      .cls-1 {
        fill: #808080;
      }
    </style>
  </defs>
  <g id="Layer_1-2" data-name="Layer 1">
    <path class="cls-1" d="M0,41.36S2.37,22.51,15.36,14.69C28.34,6.87,38.82-4.3,45.1,1.71c0,0,23.46,15.22,11.45,29.88,0,0,8.94-5.03,11.59-8.52,0,0-1.12,5.38,1.05,8.87,2.16,3.49-4.12,14.52-2.51,20.25,0,0-6.98-7.82-10.05-10.19,0,0,7.82,18.57-6.77,20.53-14.59,1.95-12.36-4.89-23.95-8.17,0,0-.28,3.35,3.63,6.98,0,0-6.91-.84-13.2-7.47C10.05,47.23,0,46.67,0,41.36Z"/>
  </g>
</svg>