<?xml version="1.0" encoding="UTF-8"?>
<svg id="Layer_2" data-name="Layer 2" xmlns="http://www.w3.org/2000/svg" viewBox="0 0 86.55 54.01">
  <defs>
    <style>
      .cls-1 {
        fill: #808080;
      }
    </style>
  </defs>
  <g id="Layer_1-2" data-name="Layer 1">
    <path class="cls-1" d="M86.26,13.71c1.73,3.34-4.85,12.18-7.66,15.2,2.7,4.1,6.47,12.29,5.28,15.85-3.88,1.29-20.05-11.75-23.18-12.18,2.05,1.29-2.16,9.49-6.36,12.18-4.21,2.7-7.12-3.67-7.76-6.79-.11,.11-2.16,.86-2.16,.86,0,0,.97,2.73-.43,4.21-.54,.86,.22,8.41-1.83,10.57s-5.93-4.74-9.27-12.05C13.16,39.87-.32,23.42,0,21.58c.32-1.83,6.04-4.42,11.32-6.58,5.18-4.31,15.2-7.55,24.26-8.19C41.3,3.36,48.2-.3,52.3,.02c4.1,.32,1.4,4.74,2.16,7.55s5.93,5.71,3.67,9.92c1.29,1.08,1.08,3.78,7.44,3.99,3.23,.11,15.85-6.15,20.7-7.76Z"/>
  </g>
</svg>