<?xml version="1.0" encoding="UTF-8"?>
<svg id="Layer_2" data-name="Layer 2" xmlns="http://www.w3.org/2000/svg" viewBox="0 0 69.74 30.53">
  <defs>
    <style>
      .cls-1 {
        fill: #808080;
      }
    </style>
  </defs>
  <g id="Layer_1-2" data-name="Layer 1">
    <path class="cls-1" d="M1.65,10.77c1.98-1.71,3.8-3.6,5.8-5.28,1.22-1.03,2.54-2.05,3.99-2.67C15.87,.91,20.51-.12,25.78,.04c3.79-.26,7.67,.73,11.38,2.69,.77,.41,1.91,.42,2.81,.24,1.34-.27,2.61-.91,3.92-1.33,1.32-.42,2.64-.89,3.99-1.11,2.43-.39,4.15,.56,4.67,2.36,.64,2.23-.61,4.92-2.7,5.77-.28,.12-.58,.2-.88,.29-.46,.14-.92,.27-1.37,.41,.45,.28,.88,.6,1.35,.84,3,1.52,6.22,1.71,9.47,1.35,.73-.08,1.42-.79,2.07-1.28,2.02-1.52,3.92-3.21,6.04-4.56,1.53-.97,1.96-.69,2.19,1.18,.42,3.35,.71,6.72,.99,10.08,.11,1.24-.38,1.93-1.79,1.5-2.12-.65-4.27-1.22-6.38-1.91-1.12-.37-4.91,.23-5.64,1.08-.2,.23-.18,.68-.19,1.03-.02,1.15,.09,2.31-.04,3.45-.32,2.9-2.35,4.72-5.22,4.28-2.55-.39-4.59,.07-6.66,1.63-1.16,.87-2.8,1.24-4.29,1.54-9.46,1.91-18.7,.95-27.67-2.51-4.02-1.55-7.28-3.98-8.58-8.41-.24-.81-.97-1.56-1.65-2.14-2.17-1.86-2.15-3.83,.04-5.72Z"/>
  </g>
</svg>