<?xml version="1.0" encoding="UTF-8"?>
<svg id="Layer_2" data-name="Layer 2" xmlns="http://www.w3.org/2000/svg" viewBox="0 0 64.83 41.73">
  <defs>
    <style>
      .cls-1 {
        fill: #808080;
      }
    </style>
  </defs>
  <g id="Layer_1-2" data-name="Layer 1">
    <path class="cls-1" d="M64.72,10.83c-.4,1.39-.96,2.81-1.77,3.99-1.96,2.85-2.57,5.58-.32,8.6,.6,.81,.83,2.01,.9,3.06,.16,2.6-1.85,3.85-4.08,2.5-1.43-.87-2.63-2.12-3.98-3.13-1.41-1.05-2.8-2.18-4.36-2.98-1.5-.77-1.86-.35-2.03,1.3-.18,1.75-.64,3.48-.82,5.23-.21,2.07-.29,4.15-.37,6.22-.13,3.27-1.55,4.2-4.47,2.62-2.36-1.28-4.54-2.88-6.83-4.29-.52-.32-1.22-.67-1.77-.59-1.97,.31-3.91,.84-5.88,1.2-1.02,.19-1.43,.47-1.2,1.65,.21,1.1,.17,2.33-.11,3.42-.55,2.1-2.25,2.77-3.83,1.33-1.73-1.58-3.21-3.49-4.53-5.44-.64-.95-1.19-1.61-2.29-2-1.43-.51-2.82-1.21-4.1-2.04-2.45-1.6-4.76-3.41-7.22-5-1.21-.78-2.61-1.27-3.95-1.83-2.09-.87-2.26-1.67-.53-3.11,.67-.56,.6-.85,.04-1.44C-.07,18.72,0,18.27,1.51,17.31c.65-.41,1.34-.78,2.04-1.08,3.08-1.35,5.67-3.36,8.09-5.67,1.43-1.37,3.09-2.57,4.83-3.51,1.12-.61,1.35-1.58,1.92-2.45,.34-.52,.41-1.72,1.53-.87,0,0,0,0,0,0l.03,.02s0,0,0,0c.68,.59,1.27,.61,1.86-.21,.44-.61,.98-1.16,1.53-1.68,.05-.05,.47,.3,.74,.48h0c1.35,.21,1.94-.87,2.76-1.57,.24-.21,.61-.26,.93-.39,.02,.35,.04,.71,.05,1.06,.89,.91,1.57,.38,2.28-.32,.37-.36,.68-.6,.79,.32,.08,.64,.7,1.22,1.09,1.82,.76-.44,1.52-.88,2.28-1.32-.26,1.1-.1,1.79,1.32,1.34,1.33-.42,.71,.41,.56,.91,.21,.08,.43,.22,.64,.21,.8-.01,2.81-1.52,1.35,1.14,.18,.09,.44,.29,.51,.24,.43-.32,.82-.7,1.23-1.05,2.63-2.22,5.61-3.8,8.97-4.6,2.35-.56,3.48,.6,2.76,2.86-.44,1.39-1.01,2.75-1.6,4.08-1.33,2.99-.87,6.02-.3,9.07,.17,.9,.66,.72,1.14,.35,1.04-.8,2-1.69,3.06-2.46,2.23-1.63,4.48-3.23,6.76-4.8,.49-.34,1.11-.55,1.7-.7,1.69-.41,2.84,.62,2.36,2.27Z"/>
  </g>
</svg>