<?xml version="1.0" encoding="UTF-8"?>
<svg id="Layer_2" data-name="Layer 2" xmlns="http://www.w3.org/2000/svg" viewBox="0 0 83.89 32.33">
  <defs>
    <style>
      .cls-1 {
        fill: #808080;
      }
    </style>
  </defs>
  <g id="Layer_1-2" data-name="Layer 1">
    <path class="cls-1" d="M78.35,17.2s2.14,.37,3.64,.73c1.5,.36,2.03,.89,1.49,1.79-.54,.9-1.78,1.12-3.25,1.12s-1.5-.03-3.13,.41c-1.63,.44-3.6,.88-6.15,1.08-2.55,.21-2.96,.85-6.19,1.28-3.23,.43-3.86,.46-6.43,.65-2.57,.18-2.48,.65-4.37,.62-1.89-.02-1.59,.08-1.98,1.42-.39,1.34-1.14,3.42-2.06,4.1-.92,.68-.21,0,.14-.81,.35-.82,.08-.41-.49,.54-.57,.95-1.47,1.44-2.33,1.94-.86,.5,.28-.39,.8-1.15,.52-.76-.27,.3-1.53,.99-1.26,.69-.92,.45-.86-.43,.05-.88-.93-.55-.44-1.55s-.55-.75,.06-1.9c.61-1.15,.03-.65,.43-1.64,.4-.99,1.23-1.44,.26-1.08s-2.11,.19-2.77,.04c-.65-.15-1.31-.09-1.98-.3s-2.02-.3-.46-.41c1.56-.12,.36-.19-.37-.22s-.69,0,.42-.3c1.11-.31,.71-.44-.46-.44s-2.73-.05-3.94-.06c-1.21-.01-2.47,1.16-3.62,2.37-1.15,1.21-2.05,1.56-3.2,1.83-1.15,.28,1.62-.66,1.95-1.33,.33-.67-.55-.05-1.67,.5-1.12,.55-.55-.36-1.88,.41-1.33,.78-2.49,.83-4.83,.66-2.34-.17-2.34-1.19-3.72-.62-1.38,.58-.77,.02,.32-1.37,1.09-1.39,.49-1.73,1.2-2.81,.71-1.08,.36-1.06-1.06-1.12-1.43-.06-3.12,.49-4.21,1.08-1.09,.59-1.67,1.23-2.55,2.45-.88,1.22-1.22,.69-1.71,1.49-.49,.8-1.05,.69-1.67,1.65-.61,.96-1.06,1.34-1.99,1.71-.92,.37,.35-.17,.7-.98,.35-.8,.12-.17-1.23,.59-1.35,.76-1.24,.69-2.83,1.09-1.58,.4-.38-.43,.91-1.4,1.29-.97,.63-.86-.86-.39s-2.44,.83-.71-.22-.83-.73-1.11-2.03c-.29-1.3-1.56-.09-1.49-2.23,.08-2.14-1.15-2.21,.06-2.97,1.21-.76-1.07-.06-.74-1.37,.33-1.31,1.08-.14,.44-1.23-.65-1.09-1.61-1.05-.1-1.66,1.51-.61,.39-.6-.36-.82-.75-.22-.39-.67,.97-.8,1.36-.13,.32-.7-.45-1-.77-.3-.06-.07,.99-.05s-.2,0-.56-.48-.09-.74,.35-1.19c.44-.45,1.32,.38,.58-.36s-.76-.8,.73-.61c1.49,.18,4.41,1.56,7.61,2.01,3.2,.45,4.3,.38,5.38-.22,1.07-.6,.46-.7,1.27-1.09,.81-.39,.35-.47,.98-.97,.63-.5,.48-.99,1.5-1.52,1.01-.53,1.73-1.38,2.44-1.79s.19-.51,1.33-.65c1.14-.14,.85-.23,.28-.38-.56-.15-.66-.26,.28-.5,.94-.24,.6-.54,1.41-.48,.81,.06,.78-.2,.26-.49s-.09-.31,1-.47,1.04-.03,2.3-.12c1.26-.08,2.06-.32,.32-.75-1.75-.43-2.02-.47-.08-.69,1.94-.21,1.88-1.18,3.69-1.07,1.81,.12,1.74-.36,.44-.53-1.3-.17-.24-.27,1.76-.17,2,.09,2.67-.36,3.54,.24,.86,.6,.52-.67-1.06-1.16-1.58-.5,.44-.47,1.8-.08,1.36,.39,3.6,1.94,2.74,.59-.85-1.35-.31-1.45-1.65-1.45s1.63-.78,2.68,.66c1.05,1.43,1.76,.52,1.22-.32-.54-.84-.2-.82,.6-.19,.8,.63,3.54,1.48,2.76,.16-.78-1.31-.54-1.21,.92-.48,1.46,.73,1.52,.93,2.48,1.71,.96,.77,.65-.62,.15-1.04-.5-.41-.29-.68,1.2,.4,1.49,1.08,2.37,1.95,3.25,2.62,.88,.67,2.09,.96,4.15,1.46s9.08,3.35,11.9,4.49,5.22,2.05,7.06,2.96c1.84,.91,3,1.19,4.08,1.58s1.14,.69,.28,1.33-1.95,.54-2.94,.66c-.99,.12-2.7,.28-2.02,.5Z"/>
  </g>
</svg>