<?xml version="1.0" encoding="UTF-8"?>
<svg id="Layer_2" data-name="Layer 2" xmlns="http://www.w3.org/2000/svg" viewBox="0 0 100.51 24.44">
  <defs>
    <style>
      .cls-1 {
        fill: #808080;
      }
    </style>
  </defs>
  <g id="Layer_1-2" data-name="Layer 1">
    <path class="cls-1" d="M100.01,24.36c-3.36,.26-6.89-.08-9.91-1.68-2.25-1.19-5.04-3.39-5.36-6.12-1.69,.43-3.39,.84-5.09,1.25-3.96,.97-7.93,1.91-11.92,2.76-7.92,1.68-15.93,3.01-24.02,3.43-8,.42-16.18-.06-24.02-1.85-.22,.1-.48,.02-.62-.14-6.05-1.44-11.9-3.67-17.3-6.87-.39-.23-.27-.69,.12-.83,1.22-.44,2.51-.64,3.79-.61-.66-.33-1.33-.66-1.99-1-.71-.36-1.45-.7-2.15-1.09-.46-.26-.99-.57-1.28-1.03-.79-1.28,.26-2.35,1.5-2.67,1.81-.46,3.77-.57,5.62-.8,3.92-.49,7.86-.87,11.8-1.13,3.47-.23,6.95-.37,10.43-.43,1.59-1.14,3.23-2.22,4.94-3.18,.95-.54,1.92-1.06,2.9-1.52,.72-.34,1.68-1,2.52-.81,.76,.17,.59,.96,.23,1.41-.28,.34-.58,.66-.9,.95,.2-.05,.4-.1,.6-.14,.47-.08,1.13-.07,1.35,.44,.17,.39,.07,.74-.14,1.05,.57-.1,1.13-.14,1.66-.08,.49,.06,.85,.42,.84,.92,0,.23-.23,.46-.36,.62-.15,.18-.3,.36-.44,.55,.1,0,.19,0,.29,.01,7.4,.37,14.78,1.11,22.1,2.26,.32-.07,.64-.17,.93-.34,.44-.25,.72-.6,1.1-.92,.75-.64,1.53-.43,2.4-.19,.94,.25,2.04,.4,2.92,.82,.62,.3,.37,1.33,.24,1.98,.48,.09,.97,.19,1.45,.29,.48-.36,1-.62,1.6-.74,.15-.03,.35,.03,.39,.2,.09,.31,.19,.66,.21,1,.21,.04,.42,.09,.62,.13,.4-.26,.82-.48,1.22-.72,.16-.1,.37,0,.44,.15,.15,.33,.28,.68,.39,1.03,.6,.14,1.19,.27,1.79,.42,.42-.26,.84-.49,1.27-.71,.22-.11,.56,0,.56,.28,0,.2,.02,.39,.08,.57,.05,.12,.12,.24,.16,.36,.45,.11,.9,.23,1.35,.34,.17,.04,.36,.09,.55,.13,1.27-2.08,2.95-3.93,4.76-5.56,1.87-1.69,3.94-3.18,6.18-4.36,.33-.17,.7,.08,.64,.44-.33,1.95-.18,4.04-.46,6.02,.16,.16,.19,.41-.09,.54-.18,.96-.48,1.88-1.02,2.75-.56,.91-1.31,1.7-2.24,2.19,1.64,.8,2.24,3.02,3.17,4.48,1.22,1.92,2.73,3.59,4.51,5,.37,.29,0,.74-.35,.77Z"/>
  </g>
</svg>