<?xml version="1.0" encoding="UTF-8"?>
<svg id="Layer_2" data-name="Layer 2" xmlns="http://www.w3.org/2000/svg" viewBox="0 0 93.52 42.26">
  <defs>
    <style>
      .cls-1 {
        fill: #808080;
      }
    </style>
  </defs>
  <g id="Layer_1-2" data-name="Layer 1">
    <path class="cls-1" d="M55.98,3.44c-.51-.59-1-1.2-1.6-1.69-.52-.43-1.13-.73-1.68-1.12,.1-.35,.38-.69,.79-.61,.81,.12,1.49,.66,2.12,1.16,.87,.79,1.75,1.59,2.42,2.56-.52-.01-1.04,.01-1.55,.02-.24,.05-.37-.16-.5-.31Zm-2.76,.5c.59-.09,1.18-.15,1.78-.14-.83-1.2-1.91-2.22-3.14-2.99-.54-.31-1.14-.67-1.79-.53-.14,.19-.25,.39-.37,.6,.54,.38,1.15,.66,1.66,1.1,.68,.59,1.31,1.25,1.86,1.97Zm7.9-.12c-.8-1.53-2.1-2.82-3.68-3.53-.5-.25-.99,.07-1.03,.6,1.16,.68,2.06,1.7,2.76,2.83,.65,.02,1.29,.06,1.94,.09Zm2.71,.24c-.6-1.52-1.66-2.96-3.18-3.64-.37-.21-.91-.09-.99,.38,.25,.34,.58,.59,.88,.89,.65,.63,1.1,1.44,1.58,2.2,.57,.05,1.14,.1,1.71,.16Zm-12.04,.02c-.57-.86-1.25-1.67-2.13-2.24-.78-.51-1.63-1.01-2.58-1.09-.34-.03-.47,.36-.66,.57,.56,.49,1.25,.8,1.79,1.3,.61,.55,1.16,1.16,1.7,1.78,.62-.12,1.25-.24,1.87-.33Zm-2.73,.46c-1.01-1.52-2.56-2.75-4.35-3.17-.42-.19-1.07,.2-.89,.67,.42,.31,.9,.54,1.33,.85,.82,.58,1.48,1.34,2.22,2.01,.57-.12,1.13-.24,1.7-.36Zm-4.43,1.11c.47-.14,.93-.29,1.4-.42-.95-1.54-2.43-2.76-4.15-3.35-.45-.2-1.07,.03-1.11,.56,.25,.28,.62,.4,.93,.6,1.17,.63,2.01,1.68,2.94,2.61Zm-1.45,.27c-.76-1.65-2.35-3.02-4.2-3.18-.44-.09-.92,.31-.71,.76,.52,.32,1.13,.49,1.64,.84,.86,.52,1.42,1.46,2.37,1.82,.32,.01,.6-.15,.9-.24ZM13.97,27.47c-1.26,.35-2.44,.91-3.71,1.24,.96-.99,2.11-1.79,2.98-2.86-.16,0-.49,.02-.66,.03-2.16,.37-4.31,.85-6.45,1.3,2-.95,4.18-1.55,6.04-2.77-1.31-.48-2.73-.32-4.06-.66,.84-.89,2.02-1.32,3.07-1.89-.76-.34-1.57-.55-2.35-.81-.58-.2-1.22-.33-1.67-.78,1.24-.82,2.82-.84,4.2-1.34-1.17-.78-2.7-.99-3.67-2.06,1.55-.31,3.15-.26,4.71-.52-1.34-1.09-2.9-1.94-4.1-3.19,1.82,.51,3.51,1.45,5.37,1.8-.68-1.53-1.79-2.82-2.58-4.29,1.73,.72,3.13,2.07,4.86,2.8,.44,.24,.91-.02,1.33-.16-.95-1.27-2.24-2.2-3.44-3.2-2.6-2.12-5.12-4.33-7.65-6.54-.44-.34-.9-.83-1.5-.71-.55,.1-.79,.72-.73,1.23,.08,1.2,.45,2.42,1.19,3.38-.47,.06-.98,.27-1.07,.79-.3,1.39,.08,2.95,.98,4.05-.6,.02-1.22,.37-1.27,1.02-.04,1.09,.65,2.05,1.42,2.76-.72,.11-1.49,.46-1.7,1.22-.25,.71,.17,1.4,.7,1.85-.77,.32-1.47,1.03-1.51,1.9,.01,.61,.63,.86,1.08,1.1-.85,.43-1.44,1.38-1.36,2.34,.13,.45,.63,.62,1,.83-.59,.41-1.06,1.1-.95,1.85,.03,.48,.38,.83,.73,1.11-.67,.48-1.29,1.16-1.33,2.02-.1,.45,.28,.77,.58,1.04-1.35,.85-2.13,2.39-2.38,3.93-.08,.47-.07,1.15,.47,1.34,.67,.22,1.27-.27,1.83-.56,4.23-2.42,8.44-4.88,12.68-7.28,.45-.27,.76-.72,1.06-1.14-.66-.27-1.41-.41-2.11-.2ZM41.15,6.7c-1-1.89-2.99-3.26-5.14-3.35-.41-.02-.62,.35-.72,.69,.69,.33,1.45,.54,2.07,1.01,.78,.6,1.47,1.31,2.13,2.04,.55-.13,1.1-.27,1.65-.4Zm-2.38,.9c-1.02-1.63-2.65-2.98-4.59-3.28-.57-.1-1.22,.01-1.46,.61,.71,.34,1.48,.55,2.14,1,.91,.56,1.63,1.36,2.46,2.03,.48-.13,.96-.24,1.45-.35Zm54.53,16.6c.37,.43,.24,1.19-.22,1.51-.93,.7-1.96,1.25-2.95,1.84-1.71,.86-3.35,1.84-5.08,2.65-1.2,.56-2.3,1.35-3.59,1.67,.49-.52,1.18-.77,1.77-1.18,.87-.59,1.74-1.2,2.54-1.89-1.54,.57-2.97,1.38-4.39,2.19-2.42,1.47-5.62,1.67-8.18,.43-1.61-.79-2.78-2.26-3.57-3.84-.88-1.58-1.18-3.47-.81-5.24,.33,1.05,.32,2.18,.69,3.23,.41,1.36,1.09,2.64,2.07,3.68,2.01,2.19,5.54,2.83,8.16,1.41,1.67-.9,3.12-2.22,4.94-2.82,.45-.18,.98-.26,1.33-.63,.35-.38,.07-1.01-.38-1.14-.52-.17-1.06,.07-1.54,.26,.51,.04,1.02,.02,1.53,.14-.02,.26,0,.6-.32,.68-1.04,.39-2.12,.67-3.1,1.21-1.59,.73-2.97,2.02-4.78,2.2-1.34,.06-2.43-.87-3.36-1.72,.17,.49,.43,.93,.66,1.4-1.36-.36-2.53-1.32-3.26-2.51-1.04-1.58-1.37-3.5-1.54-5.35-.13-1.19-.19-2.46-.84-3.51-.35-.62-.91-1.06-1.4-1.56-.24-.2-.13-.52-.09-.78,.15-.83,.62-1.54,1.03-2.26-1.03,.84-1.98,1.8-2.76,2.88,1.05,.5,2.16,1.16,2.66,2.27,.25,.45-.08,.9-.26,1.3-.43,.86-.54,1.84-.61,2.79-2.8,.07-5.48,1.08-7.95,2.32-3.21,1.64-6.26,3.57-9.21,5.63-2,1.42-3.95,2.91-5.77,4.56-6.5-1.95-12.51-5.17-18.55-8.2-1.55-.68-3.09-1.68-4.85-1.55-1.46-.01-2.85,.5-4.13,1.16-.65-.45-1.41-.64-2.16-.8,.16-.22,.31-.44,.47-.66-.72-.21-1.5-.2-2.18-.55,.16-.39,.45-.7,.71-1.02-.71-.33-1.72-.38-2.1-1.17-.21-.78,.59-1.24,1.12-1.62-.38-.33-.84-.59-1.1-1.03-.14-.6,.57-.81,.97-1.06-.28-.4-.82-.78-.69-1.32,.45-.43,1.09-.52,1.65-.74-.16-.34-.72-.77-.34-1.13,.63-.4,1.41-.47,2.09-.79-.21-.28-.67-.87-.1-1.02,.87-.18,1.76-.29,2.6-.57,.75,.37,1.47,.83,2.32,.93,2.04,.43,4.03-.4,5.92-1.05,3.72-1.43,7.36-3.02,11.09-4.42,4.05-1.51,8.15-2.98,12.41-3.77,7.41-1.44,15.1-.76,22.34,1.21,4.02,1.09,7.73,3.24,10.79,6.05,2.3,2.33,4.62,4.64,6.86,7.03-.78,1.71-.79,3.68-1.72,5.33-.26,.49-.69,.88-.9,1.4-.18,.51,.11,1.29,.74,1.23,.96-.09,1.97-.42,2.69-1.1,.54-.49,.32-1.29,.57-1.91,.39-.69,1.35-.93,2.06-.65Zm-60.87-6.5c-.4-.01-.65,.23-.65,.64,.19,.04,.39,.07,.58,.09,.21-.2,.08-.49,.07-.73Zm1.57-.81c-.06,.23-.22,.46-.16,.71,.19,.22,.48,.16,.73,.17,.08-.44-.14-.77-.57-.88Zm2.73-.8c-.35-.27-.84,.33-.52,.65,.15,.27,.46,.13,.69,.13,0-.26,.11-.61-.17-.78Zm1.81-.88c-.5,.37,.33,1.23,.66,.68,.39-.44-.21-1.16-.66-.68Zm3.26-1.36c-.21,.15-.55,.2-.62,.49-.02,.4,.45,.82,.81,.53,.34-.33,.08-.76-.19-1.02Zm2.75-.17c0-.49-.78-.6-.91-.13-.15,.36,.23,.57,.45,.77,.18-.18,.55-.32,.46-.64Zm2.52-.95c-.21-.48-.98-.2-.92,.28-.02,.34,.36,.46,.59,.62,.22-.24,.58-.55,.33-.9Zm3.02-1.2c-.34,.22-.45,.76-.14,1.06,.27,.31,.86,.25,1-.16,.27-.5-.33-1.26-.86-.9Zm3.47-.3c-.75,.3-.2,1.55,.52,1.22,.78-.29,.23-1.7-.52-1.22Zm3.28-.03c-.62,.31,.02,1.33,.55,.97,.68-.29,.04-1.41-.55-.97Zm2.95,.14c-.53,.28-.14,1.19,.41,.96,.68-.18,.19-1.35-.41-.96Zm4.15,.9c-.57,.14-.32,1.09,.24,.91,.57-.1,.3-1.16-.24-.91Zm16.67,5.72c-.38-.16-.79-.22-1.16-.39-.65-.34-.96-1.15-.78-1.85,.25-.97,1.04-1.8,2.02-2.07,.62-.17,1.26-.05,1.89-.13-.51-.31-1.12-.39-1.71-.36-.97,.04-1.8,.71-2.29,1.51-.48,.76-.59,1.86,.05,2.56,.46,.61,1.26,.72,1.97,.73Zm.16-3.59c-1.04,.39-1.32,1.97-.48,2.7,.91,.86,2.72,.21,2.74-1.09,.11-1.17-1.22-2.02-2.27-1.6Zm-45.22-5.55c-.22-1.53-1.21-3.04-2.75-3.48-1.02-.27-2.26-.44-3.16,.24-.06,.45,.48,.52,.8,.63,.95,.21,1.89,.52,2.69,1.09,.82,.5,1.33,1.56,2.42,1.51Zm-2.6,1.05c-.11-.74-.2-1.56-.74-2.13-.47-.49-1.05-.86-1.66-1.15-1.21-.56-2.69-.4-3.79,.32,.86,.65,1.98,.74,2.93,1.2,1.15,.47,2.09,1.33,3.26,1.77Zm-3.63-.9c-1.13-1.12-2.78-1.75-4.37-1.63-.56,.03-1.04,.37-1.32,.84,.75,.4,1.57,.62,2.33,1,1.2,.6,2.38,1.23,3.64,1.69-.02-.64,.25-1.42-.29-1.91Zm-5.95,.69c1.16,.32,2.26,.97,2.97,1.96,.3,.45,.92,.26,1.38,.37-.15-.63-.34-1.29-.87-1.71-1.32-1.11-3.06-1.94-4.83-1.69-.38,.04-.99,.41-.61,.83,.62,.24,1.32,.03,1.96,.22Zm59.09,6.56c-.23,.77-1.34,.92-1.8,.28-.43-.53-.11-1.35,.47-1.62,.76-.3,1.71,.54,1.33,1.33Zm-.93-1.11c-.43-.03-.67,.35-.71,.72,.14,.03,.42,.08,.56,.1,.14-.25,.49-.58,.15-.83Zm9.13,4.78c-.69,.62-.74,1.62-.94,2.47-.32,1.39-.52,2.95-1.61,3.99-.35,.26-.4,.82,.05,1.01,.69,.13,1.42-.1,2.02-.42,.61-.34,.52-1.12,.64-1.71,.03-.46,.31-.84,.56-1.22,.39-.59,.71-1.24,.9-1.93,.21-.8-.21-1.7-.92-2.1-.2-.1-.51-.29-.7-.07Zm-30.36,14.5c1.12-.02,2.17-.52,3.09-1.11,2.1-1.43,3.39-3.72,5.25-5.41-.45-1.08-.84-2.2-.97-3.38-3.44-.06-6.61,1.54-9.52,3.22-3.2,1.91-6.33,3.95-9.32,6.19-2.05,1.58-4.09,3.25-5.61,5.38,5.79-3.61,11.54-7.4,17.89-9.97-2.12,1.58-4.23,3.18-6.4,4.7-.55,.44-1.25,.78-1.53,1.46,.93-.16,1.79-.59,2.63-1,2.48-1.27,4.9-2.68,7.43-3.86-1.14,.91-2.32,1.78-3.39,2.77-.47,.34-.09,1.03,.44,1Zm-35.28-5.35c-.65,.17-1.35,.32-1.88,.77-.88,.73-2.01,1.07-3.12,1.2-.8,.08-1.58-.17-2.37-.26-.02,.24-.24,.56,.06,.72,.47,.34,1.07,.45,1.63,.51,1.62,.16,3.24-.35,4.63-1.16,.64-.37,.83-1.13,1.05-1.78Zm48.1,3.27c-1.5-.74-2.71-1.92-3.73-3.22-1.15,1.41-2.31,2.83-3.72,4-2.23,1.89-5.2,2.67-8.06,2.75-.48,.06-.87-.2-1.2-.52-1.22,.65-2.45,1.35-3.81,1.64-.61,.08-1.29,.2-1.86-.09-.16-.29-.21-.63-.3-.94-.74,.38-1.45,.82-2.16,1.26,6.73,1.18,13.63,.5,20.28-.85,3.71-.75,7.36-1.81,10.85-3.29-2.11,.24-4.35,.25-6.29-.74Zm-46.19-1.95c-.6,.21-1.24,.23-1.83,.45-.6,.38-1.16,.83-1.8,1.13-.99,.53-2.12,.7-3.23,.81,0,.17-.01,.34-.02,.51,1.82,.82,4.01,.34,5.6-.77,.74-.47,1.01-1.35,1.28-2.13Zm1.8,1.35c-.74,.17-1.51,.29-2.14,.73-1.05,.7-2.29,.99-3.5,1.28-.31,.08-.67,.17-.86,.47-.15,.37,.27,.65,.58,.73,1.84,.41,3.85-.07,5.32-1.26,.57-.48,.53-1.28,.6-1.95Zm1.98,2.08c.14-.56,.22-1.13,.32-1.7-.35,.26-.7,.52-1.06,.78-.57,.41-.88,1.11-1.5,1.47-.65,.39-1.38,.62-2.11,.82-.69,.19-1.59-.03-2.01,.69,.52,.31,1.12,.57,1.75,.49,1.31-.14,2.59-.61,3.65-1.39,.4-.31,.83-.65,.96-1.16Zm2.6-.91c-.65,.39-1.36,.7-1.85,1.31-.53,.65-1.18,1.21-1.96,1.53-.88,.41-1.93,.46-2.7,1.08-.08,.38,.42,.42,.67,.53,1.47,.34,3.07-.13,4.21-1.09,.97-.84,1.42-2.12,1.62-3.35Zm1.34,3.68c.62-.64,.68-1.57,.79-2.4-.65,.27-1.4,.42-1.88,.98-.7,.8-1.51,1.54-2.51,1.95-.75,.36-1.63,.35-2.32,.83,.46,.38,1.05,.58,1.65,.57,1.61,0,3.19-.76,4.27-1.94Zm3.26-1.45c-.36,.23-.72,.45-1.08,.68-.5,.32-.73,.91-1.2,1.27-.51,.4-1.1,.69-1.69,.96-.8,.36-1.68,.43-2.5,.7,.01,.49,.5,.68,.93,.65,1.79-.05,3.56-.8,4.81-2.09,.57-.57,.6-1.42,.73-2.17Zm2.68,.61c-.66,0-1.55-.12-1.92,.57-.51,.84-1.15,1.62-1.99,2.14-.59,.37-1.29,.49-1.9,.81,.15,.24,.22,.62,.56,.63,.9,.08,1.79-.27,2.57-.69,1.32-.73,2.24-2.04,2.67-3.47Zm.23,1.25c-.62,1.03-1.29,2.16-2.45,2.65-.31,.15-.93,.32-.56,.76,.55,.32,1.21,0,1.72-.25,1.4-.82,2.65-2.12,2.92-3.78-.55,.15-1.31,.05-1.63,.62Zm23.79-2.22c-1.12,.65-2.28,1.4-3.01,2.51-.43,.64-.3,1.45,.02,2.1-1.48,.69-3.02,1.5-3.95,2.89h1.85c1.98-.34,3.99-.69,5.79-1.62,1.9-.99,3.64-2.26,5.32-3.58,.87-.68,1.68-1.43,2.45-2.22-2.82,.15-5.65,.19-8.46-.08Z"/>
  </g>
</svg>