<?xml version="1.0" encoding="UTF-8"?>
<svg id="Layer_2" data-name="Layer 2" xmlns="http://www.w3.org/2000/svg" viewBox="0 0 95.98 33.11">
  <defs>
    <style>
      .cls-1 {
        fill: #808080;
      }
    </style>
  </defs>
  <g id="Layer_1-2" data-name="Layer 1">
    <path class="cls-1" d="M90.24,24.79c-8.06,1.14-7.33,1.46-10.96,2.25-2.38,.52-7.66,.69-13.8,.44-3.45,1-6.4,3.16-9.78,4.44-1.08,.45-3.26,1.56-4.43,1.06-.95-.41-.67-1.38-1.38-1.96-1.55-1.28-5.13,.65-6.14-.96-1.18-1.86,1.5-3.78,3.72-4.98-1.18-.32-2.36-.68-3.53-1.05-.66,.29-1.29,.52-1.91,.64-2.85,.79-4.25-1.55-6.99-1.73-2.1-.21-5.19,2.03-7.22,.05-2.07-2.05,.34-3.12,3.17-3.75-1.41-.57-2.55-1.05-3.33-1.36-2.44-.96-4.41-1.53-6.83-2.11-2.29-.56-4.85-1.7-7.2-1.55-2.82,.18-5.36,1.39-8.25,.96-1.75-.26-2.79-1.11-3.86-2.42-.48-.59-1.84-1.21-1.47-2.1,.25-.59,2.27-1.07,2.86-1.26,1.96-.65,3.79-.75,5.82-.89,.02,0,.02,0-.02,0-1.79,.2-3.38-1.67-4.28-2.98-.92-1.35-2.62-4.02-.33-4.15,1.2-.07,2.59,.47,3.85,.44,.81-.01,1.71-.22,2.51,0,2.09,.57,2.78,2.04,4.25,3.44,.92,.88,1.63,1.13,2.86,1.29,3.71,.46,9.69,.75,12.55,.62,.31-.77,.69-1.46,1.27-1.79,2.1-1.2,4.36,1.43,6.49,.24,1.22-.68,.6-1.43,2.22-1.24,.95,.11,2.11,.96,3.05,1.82,.72-.04,1.45-.09,2.17-.12,.92-1.46,1.72-2.96,3.51-3.76,2.65-1.18,4.98-.24,7.67,.07,1.8,.21,3.63-1.52,5.22-2.06,1.95-.67,3.65-.3,5.41,.72,2.92,1.68,5.06,4.65,6.76,7.6,3.22,.81,6.56,1.92,9.9,3.47,2.74,1.28,4.16,2.49,5.58,3.2,1.42,.71,3.89,1.97,5.02,2.81,1.13,.84,2.29,2.47,1,3.08,0,0,2.89,2.44-5.17,3.57Z"/>
  </g>
</svg>