<?xml version="1.0" encoding="UTF-8"?>
<svg id="Layer_2" data-name="Layer 2" xmlns="http://www.w3.org/2000/svg" viewBox="0 0 68.73 46.19">
  <defs>
    <style>
      .cls-1 {
        fill: #808080;
        fill-rule: evenodd;
      }
    </style>
  </defs>
  <g id="Layer_1-2" data-name="Layer 1">
    <path class="cls-1" d="M.2,31.36s2.26-4.07,2.97-5.95,5.24-7.7,9.44-9.05c4.2-1.36,12.55-3.95,19.53-4.01,0,0,14.94-7.83,17.79-9.25,2.85-1.42,10.64-5.3,18.79-1.42-10.27-4.55-20.28,3.81-20.46,6.22-.13,1.75-1.27,8.98-3.02,10.14-1.75,1.16-2.04,1.62-3.1,1.62,0,0,.06,1.75,2.65,1.65s2.94,.74,4.3-.19c1.36-.94,10.31-10.99,11.51-10.96,0,0-4.75,18.17,.74,26.78,0,0,.74,.97-.45,.91-1.2-.06-11.32-6.56-12.77-8.63,0,0-3.49-.49-4.07,.49-.58,.97-.55,1.29-.06,2.07,.49,.78,.91,4.56,1,6.18,.1,1.62-.31,8.55,11.58,8.02,0,0-6.27,1.23-10.61-1.88-4.33-3.1-4.14-4.27-7.18-4.92-3.04-.65-5.3-.65-6.53-2.39,0,0-7.34,.65-9.31-.45,0,0,4.82,4.66,5.46,7.37,0,0-7.18,.65-10.9-5.56,0,0-8.21,.61-10.83-1.78-2.62-2.39-5.47-2.72-6.08-2.88-.61-.16-.42-1.16-.03-1.26,0,0-.97-.26-.36-.84H.2Z"/>
  </g>
</svg>