<?xml version="1.0" encoding="UTF-8"?>
<svg id="Layer_2" data-name="Layer 2" xmlns="http://www.w3.org/2000/svg" viewBox="0 0 140.14 57.45">
  <defs>
    <style>
      .cls-1 {
        fill: #808080;
      }
    </style>
  </defs>
  <g id="Layer_1-2" data-name="Layer 1">
    <path class="cls-1" d="M132.49,23.05c-.24,.64-1.05,.93-1.8,.64-.75-.29-1.17-1.04-.92-1.68,.24-.64,1.05-.92,1.8-.64,.75,.29,1.17,1.04,.92,1.68Zm7.2,2.82c-.43,1.16-1.31,2.09-2,2.42-.69,.33-1.13,1.2-2.56,2.24-1.44,1.04-1.83,1.47-3.15,1.73-1.32,.26-2.32,.66-3.69,1.07-1.37,.41-3.36,.98-4.8,1.3-1.44,.32-4.87,1.41-4.87,1.41,0,0-1.06,.32-6.88,1.52-5.82,1.2-10.82,.85-11.79,.91-.97,.06-1.54,1.31-3.1,1.84-1.56,.53-2.23-.05-2.84-.03-.62,.02-.92,.15-1.94,.67-1.02,.53-3.84,1.95-7.54,3.26-3.71,1.31-7.16,1.89-8.73,2.03-1.58,.13-2.6,.13-4.29-.31-1.69-.44-.06-.95,.7-1.36,.77-.41,2.03-1.62,2.63-2.07,.6-.44-.68-.17-2.34-.38-1.66-.21-1.59-.14-.72-.42,.87-.28,1.55-.8,2.68-1.39,1.14-.59,1.43-.74,.96-.89-.46-.15,1.37-.56,1.87-.75,.5-.18,.05-.4-.24-.56-.29-.16,.85-.39,1.6-.59,.75-.2,1.57-.11,2.51-.3,.94-.19-2.68,0-4.3-.2-1.62-.2-2.81-.36-3.95-.23-1.14,.13-1.31,.29-2.51,1.15-1.2,.86-1.62,.95-3.67,2.03-2.05,1.08-4.51,3.69-5.23,4.33-.72,.65-2.65,1.28-5.04,2.13-2.39,.85-2.67,.81-3.38,.75-.71-.06-1.47-.05-2.38-.02-.91,.03,.47-1.39,.85-1.83,.38-.44,.31-.68,.6-1.2,.29-.52,.34-1.06,.71-1.46,.37-.39,.05-.69,.27-1.01,.22-.32,.27-.84,.47-1.34,.21-.5,.2-1.1,.51-1.45,.3-.34-.05-.38-.24-.93-.19-.55,.23-.88,.48-1.19,.25-.31-.12-.7-.44-.75-.32-.05,.39-1.07,.72-1.5,.33-.43-.29-.61-.85-.69-.56-.08,.11-.33,1.36-.91,1.26-.58,4.6-.83,6.53-1.07,1.93-.24,1.05-.32,.44-.4-.61-.07-3.24,0-5.17,.38-1.93,.39-5.5,2.37-8.38,3.46-2.88,1.08-4.29,2.17-9.88,4.52-5.59,2.35-9.05,5.18-11.24,7.35-2.18,2.17-3.14,2.61-5.49,3.78-2.35,1.17-5.24,3.14-7.86,4.47-2.62,1.34-5.6,2.14-7.38,1.99-1.78-.15-1.14-.78-.23-1.49,.91-.71,3.19-1.99,2.62-1.9-.56,.09,1.11-1.11,1.71-1.55,.6-.44,1.2-1.01,.7-.9-.5,.11,2.04-1.81,2.54-2.48,.5-.67,.37-1.32-.04-1.09-.42,.23,.76-1.24,1.51-1.93,.75-.69,3.33-5.5,4.22-7,.89-1.5,3.4-4.89,6.17-7.45,2.76-2.56,5.56-4.08,6.21-4.36,.65-.28-1.03-.96-1.99-1.26-.95-.3-1.63-.62-1.02-.47,.61,.15-1.42-.67-4.19-2.06-2.77-1.39-2.17-1.3-4.09-2.86-1.92-1.56-4.84-3.8-6.81-4.96-1.97-1.16-4.51-1.77-7.08-2.71-2.58-.94-5.67-2.09-6.51-2.36-.84-.27-.31-.39,.22-.69,.53-.29,1.24-.77,4.33-1.67,3.09-.9,7.33-.77,10.77-.53,3.43,.24,7.52,1.56,10.61,2.66,3.09,1.1,6.67,1.8,10.16,2.3,3.5,.5,7.15,1.66,10.13,2.24,2.98,.58,5.82,1.41,8.27,2.21,2.45,.8,3.89,.48,6.47,.18,2.58-.3,3.29-.91,3.7-.99,.42-.09-1.44,0-1.86,.09-.42,.09-1.16,.21-.85,.07,.31-.14-1.14,.05-2.6,.37-1.46,.31-2.53,.07-3.19,.13-.65,.06-1.14-.34-1.79-.57-.66-.23,.22-.22,.6-.44,.39-.22,.68-.69,.68-.69,0,0,.65-.45,1.35-1.03,.7-.58,.33-.36,0-.44-.34-.08,.93-.46,1.61-.8,.69-.34,.39-.36,.16-.41-.23-.05,1.11-.5,1.88-.86,.77-.36,1.13-.81,.81-.79-.32,.02,3-1.56,3.65-1.82,.64-.26,1.35-.86,1.25-.8-.09,.07-.73-.09,.17-.53,.9-.45,1.76-1.02,2.5-1.57,.73-.55,1.1-.77,1.46-1,.36-.23,.06-.18-.44-.38-.5-.21,0-.32,.2-.47,.2-.16-.28-.26-.53-.56-.25-.3,.22-.17,.46-.22,.23-.05-.26-.4-.26-.4,0,0-.74-.28-.13-.53,.61-.24,.84-1.05,1.96-1.79,1.11-.74,1.62-.95,2.68-.85,1.07,.09,2.43-.13,4.67,.12,2.24,.25,4.3,.44,6.27,1.04,1.98,.6,3.16,.95,5.32,1.37,2.16,.42,3.2,1.21,4.35,1.77,1.15,.56,2.61,.99,4.32,1.14,1.71,.15,8.28,.62,12.14,1.35,3.86,.74,10.06,3.2,13.24,4.56,3.17,1.37,8.45,4.8,9.76,6.22,1.3,1.42,3.23,2.62,4.19,3.9,.96,1.28,1.27,2.13,.74,2.77-.53,.64,.25,.44-.18,1.6Zm-7.61-5.85c-1.64-.62-3.4,0-3.93,1.39-.53,1.39,.37,3.02,2.01,3.65,1.64,.62,3.4,0,3.93-1.39,.53-1.39-.37-3.02-2.01-3.65Z"/>
  </g>
</svg>