<?xml version="1.0" encoding="UTF-8"?>
<svg id="Layer_2" data-name="Layer 2" xmlns="http://www.w3.org/2000/svg" viewBox="0 0 50.01 50.22">
  <defs>
    <style>
      .cls-1 {
        fill: #808080;
      }
    </style>
  </defs>
  <g id="Layer_1-2" data-name="Layer 1">
    <path class="cls-1" d="M49.77,24.77c.52-1.49,.08-2.64-.04-2.95-7.2-.99-15.15,2.01-15.33,1.75-.19-.28,6.86-3.25,15.23-2.82-.26-1.31-1.1-2.33-1.1-2.28-.07-.25-.16-.47-.25-.66-7.17,.35-14.32,4.55-14.54,4.33-.23-.23,5.83-4.13,13.78-5.28-.38-.3-.71-.37-.74-.37-.47-1.28-1.81-1.34-1.75-1.34-.11-.18-.27-.32-.46-.43-6.01,1.91-11.04,5.93-11.26,5.76-.22-.17,3.71-3.66,9.67-6.11-.21,0-.35,.01-.35,.01,0,0-.47-.58-1.63-.29-6.89,1.93-8.23,5.19-9.92,5.6-1.69,.41-2.86-.99-1.69-.58,1.17,.41,2.68-.7,4.96-2.51,2.28-1.81,4.49-2.33,4.49-2.33,0,0,.64-.88,.7-1.05,.53-1.52-.41-2.33-.53-2.33,.18-2.1-1.05-3.09-1.23-3.09-.12-1.46-2.39-3.44-2.51-3.46-.93-1.47-3.73-1.56-3.73-1.56,2.86,1.4,4.55,5.78,4.2,5.89-.35,.12-1.98-3.33-4.38-5.13C28.98,1.72,21.63-.26,17.49,.03c-4.14,.29-6.07,2.98-5.89,2.98-.71,.37-1.24,1.16-1.59,1.81,5.34-1.68,6.57,2.82,6.21,2.58-1.88-2.91-5.29-1.85-6.67-1.53-1.69,1.17-.53,5.08,.18,7.94,.26,1.07,.51,1.97,.71,2.69-.03,1.44,.18,3.47,1.33,4.99,1.98,2.6,5.89,10.24,5.89,10.24l-.23-.06-.41,2.16s-3.62-.18-5.78-1.17c-2.01-.92-3.16-.58-3.12-.53-1.11-.3-1.82-.02-2.15,.22,4.86,2.22,9.67,2.98,9.69,3.22,.03,.28-5.18-.22-11.01-2.91-.92,.16-.78,.57-.6,.52-.8,.13-1.34,.42-1.7,.74,6.28,2.57,13.68,2.3,13.77,2.59,.09,.31-6.91,.87-14.36-1.78-.08,.19-.1,.32-.1,.32-.64,.53-.58,1.32-.45,1.81,6.59,1.98,14.1,.89,14.22,1.17,.13,.3-7.01,1.65-14.86-.32-.22,.16-.44,.38-.54,.66-.21,.54,.47,1.93,.88,2.69,6.95,.56,14.22-2.26,14.39-2.02,.19,.27-6.39,3.14-14.41,3.02-.23,.41-.51,1.02-.51,1.56,0,.48,.32,1.18,.64,1.74,7.21-.46,14.36-4.88,14.59-4.66,.24,.23-5.91,4.38-14.01,5.64-.02,.16-.06,.91,.76,1.89,.05,.06,.1,.11,.15,.16,7.03-1.65,13.34-7.18,13.6-7,.25,.17-4.34,4.57-11.2,7.27-.03,.18,0,.69,.83,1.15,.42,.24,2.06-.15,3.9-.73,3.97-3.06,6.68-6.52,6.89-6.43,.2,.09-1.58,2.75-4.85,5.72,2.07-.77,3.92-1.6,4.16-1.95,.58-1.05,1.17-2.33,1.4-2.68,.23-.35,.29,.06,.58,.18,.29,.12-1.17,1.46-1.11,2.1,.06,.64,.99,2.45,.99,2.45,0,0,.23,.35,1.23,1.05,.99,.7,2.63,.23,2.63,.23,0,0,.23,.35,1.46,.47,1.23,.12,2.22-1.87,2.22-1.87,0,0,.41-.06,1.34-.29,.93-.23,2.22-4.2,2.22-4.2,3.97-2.68,6.94-9.28,6.83-9.45-1.94,.56-2.98-.64-3.09-.93-1.81-.53-2.33-1.58-2.76-2.04-3.4-2.57-2.26-4.84-2.14-4.2,.53,2.51,2.98,4.08,2.86,3.91,.88,1.58,2.33,1.63,2.39,1.69,1.34,1.34,3.21,.82,3.21,.76,.1,.08,.2,.13,.3,.18-2.77-2.6-5.24-4.24-5.18-4.42,.07-.21,3,1.38,6.34,4.5,.23-.08,.38-.18,.4-.2,1.46,.7,1.75-.29,1.69-.41,.25,.06,.47,.1,.68,.12-3.99-2.88-7.96-4.48-7.94-4.7,.03-.26,4.4,1.17,9.14,4.58,.6-.22,.76-.64,.69-.64,1.87-.18,2.16-.82,2.16-.82,0,0,0,0,.01,0-5.16-2.98-10.88-4.11-10.9-4.38-.02-.3,5.8,.54,11.9,3.94,1.2-.58,1.31-.86,1.26-.96,.72-.4,1.21-.91,1.51-1.34-6.32-2.71-13.9-2.47-13.98-2.76-.09-.31,6.96-.83,14.41,1.87,0-.03,0-.05-.02-.05,.74-.77,1.02-1.63,1.11-2.26-6.86-2.31-15.18-.91-15.31-1.2-.14-.31,7.29-1.86,15.38,.12ZM22.95,6.57c-.54,0-.98-.69-.98-1.53s.44-1.53,.98-1.53,.98,.69,.98,1.53-.44,1.53-.98,1.53Z"/>
  </g>
</svg>