<?xml version="1.0" encoding="UTF-8"?>
<svg id="Layer_2" data-name="Layer 2" xmlns="http://www.w3.org/2000/svg" viewBox="0 0 97.01 32.52">
  <defs>
    <style>
      .cls-1 {
        fill: #808080;
      }
    </style>
  </defs>
  <g id="Layer_1-2" data-name="Layer 1">
    <path class="cls-1" d="M.56,19.9C6.75,13.36,10.93-4.31,50.92,.97c9.36-1.76,21.22,.8,30.4,4.74,3.16,1.35-3.09,10.67-6.45,11.44,4.74-.46,7.8-2.6,11.77-3.82,3.98-1.22,9.35-4.52,10.24-.76,.9,3.75-3.21,18.65-6.88,17.89-3.67-.76-11.47-5.2-16.36-5.66-4.89-.46-6.27-.61-6.27-.61,0,0,7.11,1.36,8.33,4.77-8.7,2.64-14.39,.89-15.31,.77-14.32,2.84-30.71,3.22-36.02,2.42C16.27,30.93-3.59,24.29,.56,19.9Z"/>
  </g>
</svg>