<?xml version="1.0" encoding="UTF-8"?>
<svg id="Layer_2" data-name="Layer 2" xmlns="http://www.w3.org/2000/svg" viewBox="0 0 53.92 76.63">
  <defs>
    <style>
      .cls-1 {
        fill: #808080;
      }
    </style>
  </defs>
  <g id="Layer_1-2" data-name="Layer 1">
    <path class="cls-1" d="M1.77,32.13c1.02-2.54,2.39-4.97,4.23-7,1.84-2.03,4.17-3.66,6.78-4.47,.48-.15,.98-.28,1.41-.54,.1-3.5,1.46-6.94,3.77-9.57-.31-.33-.89-.19-1.2,.13s-.46,.77-.66,1.17c-.21,.4-.54,.8-.99,.84-.21,.02-.42-.04-.62,0-.48,.11-.78,.79-1.27,.7-.43-.08-.52-.65-.49-1.08,.13-2.11,.57-4.22,1.52-6.11,.96-1.89,2.46-3.53,4.37-4.44,.8-.38,1.7-.63,2.58-.54,1.46,.16,2.67,1.21,4.09,1.58C28.7,.02,33.27-.73,37.08,.73c1.2,.46,2.37,1.13,3.66,1.14,1.12-.2,1.92,.71,2.85,1.11,.5,.22,1.06,.28,1.57,.48,.6,.24,1.11,.67,1.57,1.13,.43,.43,.82,.92,.99,1.51,.16,.58,.04,1.28-.44,1.66,.67,.99,.55,2.46-.19,3.53-.27,.39-.61,.72-.88,1.1-1.1,1.57-.88,3.85-2.15,5.28,.25-1.3,.49-2.6,.43-3.76-.18,.72-.65,1.32-1.12,1.89-1.05,1.28-2.19,2.52-3.6,3.38-.67,.41-1.4,.73-2.07,1.43,2.98,2.31,4.56,5.93,6.87,8.91,1.69,2.18,3.8,4.04,6.18,5.45,1.25,.74,2.69,1.47,3.17,2.85-.61,.19-1.24-.16-1.78-.48-2.55-1.5-5.3-2.64-8.16-3.38-1.28-.33-2.59-.58-3.8-1.11-1.79-.78-3.3-2.17-4.23-3.89-.48-.89-.81-1.86-1.14-2.82-.38-1.12-.76-2.25-1.13-3.26-.68,0-1.35,.19-1.95,.51-.5,.27-.99,.82-.77,1.34,.68,.52,1.31,1.11,1.87,1.75,.2,.23,.4,.55,.24,.81-.16,.25-.52,.22-.81,.16-1.24-.29-2.45-.78-3.72-.85-1.27-.07-2.69,.42-3.35,1.84,.29,.69,.51,1.4,.69,2.46,3.67,2,7.98,2.38,12.04,3.4,5.07,1.29,9.86,3.65,13.96,6.9,.29,.23,.62,.59,.46,.93-.09,.2-.31,.3-.52,.37-2.14,.74-4.49,.47-6.72,.08-2.1-.36-4.19-.81-6.26-1.36,1.15,1.16,2.11,2.52,2.83,3.99-2.01,.18-4.09-.21-5.81-1.24-.98-.59-1.84-1.37-2.73-2.09-2.11-1.69-4.48-3.01-7-4.29,1.95,3.75,5.46,6.56,7.21,10.41,.54,1.18,.9,2.43,1.22,3.69,.56,2.18,1.01,4.41,.89,6.66-.12,2.25-.84,4.52-2.38,6.16,.06-.7,.12-1.4,.18-2.09-.27-.09-.47,.25-.56,.52-1.36,4.06-3.15,7.98-5.31,11.68-.45,.76-.94,1.54-1.71,1.98,.96-1.61,1.71-3.35,2.24-5.15,.37-1.26,.63-2.55,.87-3.84,.83-4.37,1.51-8.83,1.07-13.26-.44-4.43-2.11-8.88-5.46-11.62-1.84,4.39-2.15,9.41-.87,14-1.78-1.15-2.96-3.01-3.92-4.9-1.28-2.51-2.29-5.16-2.99-7.88-.85-3.31-1.22-6.91,0-9.92-2.55,2.94-4.21,6.63-4.74,10.48-.57-.58-.56-1.51-.45-2.32,.47-3.68,2.02-7.21,4.24-10.14-.76-.67-1.09-1.69-1.34-2.68-.36-1.45-.58-2.94-.81-4.36C7.6,30.36,3.89,37.74,1.82,45.39c-.04,.15-.09,.31-.21,.41-.36,.29-.81-.25-.95-.69-1.31-4.23-.55-8.87,1.1-12.98Z"/>
  </g>
</svg>