<?xml version="1.0" encoding="UTF-8"?>
<svg id="Layer_2" data-name="Layer 2" xmlns="http://www.w3.org/2000/svg" viewBox="0 0 111.36 27.38">
  <defs>
    <style>
      .cls-1 {
        fill: #808080;
      }
    </style>
  </defs>
  <g id="Layer_1-2" data-name="Layer 1">
    <path class="cls-1" d="M35.39,4.16c2.46-1.22,5.02-2.24,7.57-3.27,1.39-.55,2.88-1.12,4.33-.8-1.37,.39-2.68,1.01-3.85,1.83,1.94-.14,3.88-.17,5.82-.08-.71,.4-1.42,.8-2.13,1.19,1.8,.1,3.6,.2,5.4,.31l-2.5,.86c2.64,.03,5.27,.25,7.87,.65,1.3-.61,2.57-1.32,3.96-1.63,.92-.2,1.87-.22,2.8-.38,3.28-.57,6.3-2.88,9.59-2.42-.26,.35-.28,.87-.04,1.23,.23,.35,.65,.54,.89,.88s.1,.99-.32,.94c.51,.29,1.04,.6,1.4,1.06s.55,1.12,.28,1.65c.85,.32,1.61,.9,2.14,1.64-1.04,.16-2.05,.49-2.98,.97,4.33,1.6,9.3,2.23,14.15,1.72,1.22-.13,2.44-.33,3.67-.39,4.97-2.07,10.31-3.01,15.6-2.76-.04,.67-.51,1.29-1.15,1.51,.16,.15,.31,.3,.47,.45-.12,.59-.68,.97-.98,1.5s0,1.45,.57,1.29c-.77,.47-1.58,.97-2.05,1.74s-.48,1.9,.22,2.48c.36,.3,.95,.67,.68,1.06,1.15,1.23,2.37,2.4,3.65,3.49l-.61,.52c.76,.2,1.37,.89,1.48,1.67-4.65,.17-9.28-.32-13.68-1.6-3.04-.88-6.06-2.14-9.22-2.12-2.95,.02-5.79,1.17-8.74,1.31,.7,.27,1.71,.5,2.72,.73,.14,.03,.3,.07,.39,.19,.18,.24-.06,.56-.2,.83-.32,.6-.07,1.45,.54,1.77-.3,.17-.61,.33-.91,.5,.41,.57,.79,1.16,1.12,1.78-5.48-.24-10.94-.86-16.34-1.85-2.47,.18-4.69,.51-6.91,.85-2.28,.34-4.55,.68-6.84,.96-11.86,1.46-23.92,1.29-35.73-.51-4.34-.26-8.4-1.69-12.39-3.11-1.68-.59-3.4-1.21-4.73-2.4-.3-.27-.59-.72-.34-1.03,.17-.21,.49-.21,.76-.19l2.18,.16c-.92-.88-1.61-1.56-2.28-2.26-.13-.13-.26-.29-.26-.47,0-.16,.1-.29,.2-.41,.72-.82,1.81-1.2,2.85-1.55,4.95-1.7,9.8-3.67,14.54-5.9,5.43-2.55,11.37-3.87,17.31-4.57Z"/>
  </g>
</svg>