<?xml version="1.0" encoding="UTF-8"?>
<svg id="Layer_2" data-name="Layer 2" xmlns="http://www.w3.org/2000/svg" viewBox="0 0 81.48 15.75">
  <defs>
    <style>
      .cls-1 {
        fill: #808080;
        fill-rule: evenodd;
      }
    </style>
  </defs>
  <g id="Layer_1-2" data-name="Layer 1">
    <path class="cls-1" d="M0,4.75S-.32,.97,5.34,1.67c0,0,10.52,0,13.97-.65,0,0,4.31,.07,9.45,.1,.84,0,1.66,.25,3.58,.01,3.85-.47,6.58-.11,9.41,.38,.19,.1,.95,.1,1.05,.12,.1,.02,3.06,.32,3.42,.33,.36,.02,1.74,.3,1.97,.35,.24,.05,3.86,.33,3.94,.36,.09,.03,2.73,.3,3.05,.42,.31,.12,2.08,.18,2.23,.18s3.71,.37,3.89,.43c.18,.06,2.23,.58,2.48,.61,.25,.03,2.45,.15,2.45,.15,0,0-2.06-.23-2.44-.25-.38-.02-1.79-.42-2.46-.59-.67-.17-3.53-.42-3.91-.42s-1.59-.01-2.24-.17c-.66-.16-2.44-.29-3.03-.42-.59-.13-3.52-.23-4.59-.49-1.07-.26-3.76-.46-4.46-.51-.36-.02-.73-.12-1.01-.2,.83-.21,2.92-.78,4.01-1.27,1.38-.63,2.57,.86,2.87,1.06,.3,.19,.82,.47,1.55,.43,.73-.04,1.42,.93,2.18,.76,.75-.17,1.19-.5,1.94-.02,.76,.47,1.15-.24,1.8-.06,.65,.17,.82,.67,2.07,.41,1.25-.26,.76,.67,2.22,.37,1.47-.3,.6,.78,2.87,.39,2.27-.39,2.11,.09,3.19,1.01,0,0,1.8,.32,3.57,.54,0,0,4.73-.28,5.52-.13,.8,.15,1.96,1.68,2.59,1.88,.45,.14-.8,.17-2.02-.03,.5,.36,1.05,.82,1.65,1.41,2.07,2.03,3.15,2.37,3.32,2.52,.17,.15-.61,.38-1.33,.26s-2.04-.5-3.09-.97c-1.05-.47-4.91-1.53-6.31-2.57,0,0-1.31-.83-1.46-.84-.16-.01-4.58,1.74-5.38,2.09s-3.43,1.91-4.38,2.38c-.95,.47-2.72,.84-4.19,.41-.45-.13-1.05-.22-1.7-.26,.48-.1,.97-.2,1.23-.24,.57-.1,2.31-.45,3.15-.64,.84-.18,3.68-.86,3.68-.86-.45,.13-5.31,1.1-6.02,1.21-.71,.11-2.84,.51-2.84,.51h0c-1.25,0-2.56,.21-3.37,.65-1.42,.78-4.64,1.19-6.54,1.19-1.65,0-5.48,.25-6.44,.31,0,0-1.45-1.97-5.8-3.13,0,0,3.79,1.02,5.57,3.14,0,0,1.1,1.49,.5,2.16-.6,.67-2.8,.02-4.32-1.1,0,0-1.06-.82-1.49-1.42,0,0-2.42-.02-3.52-.17-1.1-.15-2.42,.6-3.6,.45-1.19-.15-3.75-.78-4.49-.8-.73-.02-3.93-.35-7.79,.65-3.86,.99-5.74,1.55-5.98,1.25-.24-.3,1.05-1.2,2.84-1.68,1.79-.47,6.08-1.55,7.64-1.58,0,0-2.44-.39-4.38-.28s-4.01-.02-4.66,.24c-.65,.26-2.11,.71-3.45-.11C2.23,10.11,0,8.47,0,4.75H0Z"/>
  </g>
</svg>