<?xml version="1.0" encoding="UTF-8"?>
<svg id="Layer_2" data-name="Layer 2" xmlns="http://www.w3.org/2000/svg" viewBox="0 0 79.04 34.67">
  <defs>
    <style>
      .cls-1 {
        fill: #808080;
      }
    </style>
  </defs>
  <g id="Layer_1-2" data-name="Layer 1">
    <path class="cls-1" d="M78.99,1.59c-.24,.91-.8,1.63-1.55,2.14-1,.69-2.02,1.38-3.12,1.88-.82,.37-1.78,.6-2.68,.62-4.19,.09-8.38,.16-12.55,.7-.13,.02-.27,0-.37,.06-2.09,1.14-4.31,2.08-6.16,3.61-.3,.24-.48,.62-.72,.93-.19,.25-.39,.49-.57,.74-.69,.91-1.39,1.83-2.07,2.75-.06,.09-.06,.22-.08,.34,.12-.03,.26-.03,.34-.09,1.47-1.12,3.23-.94,4.9-1.05,.81-.05,1.65,.13,2.44,.34,.31,.08,.62,.47,.74,.79,.07,.2-.14,.65-.35,.78-.59,.37-1.22,.78-1.88,.9-2.53,.47-4.95,1.3-7.38,2.13-.57,.2-1.05,.45-.9,1.23,.04,.23-.18,.53-.3,.78-.64,1.32-1.29,2.63-1.94,3.94-.76,1.53-1.99,2.56-3.49,3.3-1.03,.51-2.07,1.01-3.11,1.53-.63,.32-.58,.51-.14,1.02,.45,.51,.81,1.13,1.05,1.76,.08,.21-.26,.69-.53,.91-.79,.67-1.81,.53-2.75,.67-.38,.06-.78,0-1.15,.1-1.56,.45-3.11,.22-4.67-.02-1.74-.27-3.49-.5-5.23-.77-.47-.07-.93-.24-1.4-.33-.37-.07-.74-.09-1.12-.13-.19-.02-.44,.05-.55-.05-1.02-.88-2.21-.37-3.32-.4-1.18-.03-2.37,.07-3.55,.08-.89,0-1.79-.09-2.68-.06-.3,.01-.67,.21-.89,.44-.75,.8-1.67,1.1-2.73,1.24-2.03,.27-3.97-.11-5.85-.8-.8-.3-1.51-.82-2.24-1.28-.52-.33-.54-.83-.31-1.36,.36-.83,.95-1.5,1.76-1.83,1.76-.72,3.13-1.98,4.68-3.01,.19-.12,.37-.29,.58-.34,1.23-.34,1.75-1.33,1.99-2.41,.24-1.07,.81-1.93,1.32-2.85,.18-.32,.23-.7,.36-1.05,.07-.2,.17-.4,.29-.57,1.1-1.67,3.83-2.01,5.46-1.33,.49,.21,1.04,.3,1.57,.41,.96,.21,1.95,.31,2.88,.61,1.42,.46,2.76,.58,4.21,.08,1.54-.53,3.15-.82,4.72-1.27,.4-.11,.78-.4,1.08-.7,.69-.71,1.26-1.56,2-2.2,1.34-1.16,2.78-2.22,4.18-3.31,.53-.41,1.06-.35,1.61-.01,.38,.24,.78,.45,1.18,.65,.35,.17,.6,.35,.39,.81-.07,.16,.02,.39,.04,.59,.23-.04,.5-.01,.69-.12,.32-.19,.49-.84,1.01-.25,.03,.03,.25-.05,.34-.12,.64-.53,1.24-1.1,1.9-1.6,.94-.71,1.88-1.46,2.9-2.04,1.66-.94,3.39-1.77,5.1-2.62,.27-.13,.6-.15,.91-.21-.16,.21-.32,.41-.48,.62,.26-.1,.54-.17,.78-.31,1.32-.75,2.73-1.19,4.17-1.65,3.35-1.08,6.65-2.33,9.94-3.58,1.12-.43,2.25-.56,3.4-.44,1.02,.11,1.9-.15,2.73-.67,.3-.19,.58-.42,.91-.01,.3,.37,.24,.72-.03,1.04-.31,.36-.67,.68-1.01,1.03-.08,.09-.13,.2-.2,.3,.14,.03,.3,.12,.41,.08,1.09-.37,2.18-.74,3.26-1.14,.42-.15,.81-.39,1.24-.52,.56-.17,.73,0,.58,.57Z"/>
  </g>
</svg>