<?xml version="1.0" encoding="UTF-8"?>
<svg id="Layer_2" data-name="Layer 2" xmlns="http://www.w3.org/2000/svg" viewBox="0 0 92.3 52.66">
  <defs>
    <style>
      .cls-1 {
        fill: #808080;
        fill-rule: evenodd;
      }
    </style>
  </defs>
  <g id="Layer_1-2" data-name="Layer 1">
    <path class="cls-1" d="M92.09,13.16c-2.95,1.26-5.68,2.71-8.99,3.65-2.83,.81-5.54,2.41-8.9,2.58,.02,.16,.67,.3,.55,.6,.03,.21-.14,.23-.34,.21-1.58,1.82-5.03,1.76-7.31,2.88,1.38,.21,3.22,.27,4.64,.04,.32-.05,.63-.26,.9-.04,.24,.64-1.09,1.24-1.59,1.46-1.51,.68-3.02,.83-4.9,1.12-.88,.13-1.85,.12-2.67,.34-1.36,.38-2.35,1.38-3.7,1.94-1.36,.55-2.87,.97-4.56,1.07-.89,.05-1.62-.08-2.36-.3-1.14,.51-2.05,1.25-2.97,1.98,.98,.01,1.79,.22,2.66,.43,.27,.06,.57,.19,.82,.22,1.4,.12,2.78-.94,4.43-.52,.92-.45,1.62,.2,2.32,.65,2.24,1.43,4.21,3.19,6.45,4.69,.43,.29,.82,.51,1.24,.72,.01,0,.02,0,.03,.01,0,0,0,.01,.02,.01,.13,.07,.24,.13,.39,.2-.09,.47,.27,.41,.47,.82,.2,.41,.43,1.72-.13,1.72-.3,0-.65-1.07-.82-1.29-.54-.71-1.45-1.09-2.36-1.63-1.49-.88-3.38-2.17-4.77-3.18-.75-.55-1.6-1.29-2.36-1.59-.77-.3-1.48,.03-2.2,.22,.73,.28,1.54,.47,2.24,.77,.12,.06,.06,.29,.13,.39,.86,.79,1.24,2.05,1.94,3.01,.83,.3,1.54,.71,2.1,1.29,.23,.63,.73,1.64,.22,2.36-.36-.13-.29-.58-.38-.86-.26-.7-.71-1.2-1.42-1.46,.29,.69,.6,1.46,.9,2.19,.39,.95,1.07,2.22,.39,3.18-.13,.19-1.52,1.03-1.5,.22,0-.35,.38-.31,.6-.52,.23-.23,.21-.44,.38-.69-.51-1.77-1.53-3.03-2.1-4.73-2.38-.72-4.91-1.28-6.49-2.8-.88,.09-1.96,.05-2.75-.08,2.35,1.73,5.91,3.14,7.87,5.37,.19,.21,.37,.36,.43,.56,.22,.74-.12,1.77-.77,1.98-.26-.19-.05-.54-.04-.82,.02-.49-.08-1.2-.34-1.5-.22-.25-.86-.45-1.29-.64-1.35-.6-2.59-1.27-3.83-1.94-1.4-.75-2.61-1.14-3.65-2.11-.26-.24-.46-.89-1.03-.52,.59,.39,1.23,.71,1.55,1.38,.1,.14,.24-.01,.35,.13,.31,.74,.47,1.23,.56,2.11,.02,.24-.03,.57,.04,.82,.09,.28,.98,1.05,1.25,1.29,1.03,.94,1.54,1.54,2.49,2.54,.45,.47,1.26,1.24,1.16,1.98,0,.06-.13,.12-.13,.22,0,.27,.12,.49,.09,.64-.09,.53-.86,1.41-1.5,1.08-.09-.79,.88-1.31,.56-2.11-.11-.27-.71-.6-.99-.86-.93-.87-2.01-1.94-2.84-2.71-.07,.78-.12,1.49-.26,2.28-.08,.49-.31,.98-.34,1.42-.05,.55-.12,1.58-.39,2.11-.1,.2-.4,.42-.68,.65-.36,.29-.72,.79-1.38,.47-.12-.56,.42-.68,.64-.94,.22-.26,.29-.54,.51-.82,.05-.74,.24-1.59,.3-2.49,.06-.76-.09-1.78-.12-2.53-.03-.56,.1-1.32-.05-1.72-.1-.25-.48-.51-.78-.78-.82-.75-1.71-1.29-2.37-2.15-.29,.17-.55-.08-.86-.13-1.24-.19-2.8,.26-3.91-.17,.58,.76,1.18,1.54,1.68,2.45,.48,.89,1.01,1.87,1.25,2.92,.25,1.15-.32,2.13-.73,2.97-.67,1.35-1.26,2.34-2.06,3.53-.41,.6-.7,1.27-1.07,1.72-.17,.2-.7,.7-1.03,.77-.7,.16-1.82-.17-1.85-.64-.03-.49,.43-.39,.73-.43,.64-.09,1.41-.34,1.76-.56,.59-2.37,1.74-4.08,2.71-6.15,.23-.49,.42-.83,.43-1.5-.72-1.36-1.72-2.48-2.71-3.61-.55-.62-.98-1.31-1.68-1.8-.3,0-.58,0-.82-.04-.19,2.15-.14,5.11-.86,6.92-.22,.55-.44,1.18-.9,1.46-.17,.1-1.32,.54-1.46,.13-.11-.33,.49-.57,.65-.73,.37-.37,.66-.87,.9-1.3,.01-.06,0-.12,.03-.18,0-.03,0-.06,.01-.09-.08-2.12,.24-4.15,.26-6.29-1.64,.08-3.63-.3-5.03,.13-.43,.13-.67,.51-1.12,.34-.12-.22-.21-.46-.18-.82-.47,.03-.87-.02-1.07-.26-.18-.96,.51-1.41,.86-1.98-.42-.48-1.41-.33-2.11-.17,.56,1.84,1.41,5.62-.9,6.15,.15-.44,.33-.85,.51-1.26,.02-.15,.1-.31,.18-.46,.05-.14,.12-.28,.17-.43-.26-.52-.6-.95-1.11-1.21,.21,1.51,.07,3.17-1.29,3.18,.06-.48,.68-1.18,.65-1.77-.02-.26-.31-.65-.39-.99-.09-.41-.06-.88-.17-1.2-.2-.61-.94-.99-1.16-1.33,.08,.49,.67,1.29,.73,2.06,.05,.73-.19,1.62-.78,1.59-.28-.34-.03-1.23-.17-1.72-.21-.2-.44-.39-.6-.64,.23,.47,.31,1.45,.13,2.06-.36-.44-.38-1.21-.73-1.64-.99-.52-1.88-1.32-2.71-2.11-.17-.16-.37-.64-.68-.34,.76,.97,2.89,1.75,2.75,3.65-.02,.31-.14,.86-.38,.9-.22-.84-.15-1.98-1.12-2.06,.09,.41,.12,.9-.04,1.25-.32-.15-.36-.48-.56-.73-.43-.55-1.14-.9-1.76-1.29-.64-.4-1.22-.85-1.89-1.12,.15,.29,.53,.73,.94,1.16,.33,.35,.92,.8,1.03,1.12,.23,.63,.11,2.2-.64,1.93-.29-.61-.06-1.4-.35-1.89-.34-.57-1.41-.7-1.93-1.12-.69-.55-.89-1.13-1.33-1.85-.58-.17-.89-.6-1.29-.95-.38,1.42-2.89,2.73-4.43,1.85-.5,.98-1.27,1.84-2.24,2.45-.46,.29-.91,.55-1.46,.22-.03,2.23-.1,4.12,.26,6.06,.12,.66,.54,1.47,.77,2.1,.52,1.43,.91,2.72,1.37,4.3,.2,.69,.91,2.6-.17,2.67-.09,.43-.37,.79-.82,.77-.53-.02-1.15-1.25-1.42-1.89-.32-.79-.59-1.75-.81-2.49-.39-1.27-.76-2.54-1.03-3.96-.09-.46-.1-1-.26-1.37-.19-.43-.54-.69-.73-1.08-.42-.87-.55-1.86-.77-2.84-.44-1.89-.61-4.06-.48-6.49,.02-.39,.08-.79,.17-1.16,.09-.32,.33-.66,.35-.95,.03-.36-.19-1-.13-1.59,.2-1.93,1.68-3.95,3.01-5.07,.55-.46,1.67-1.27,2.49-.73,.92-1.32,2.88-2.25,4.82-2.75,.42-.11,1.33-.07,1.72,.09,1.11-.79,2.48-1.6,4.42-1.68,1.6-.06,3.1,.23,4.09,.99,2.03-.62,4.5-.06,5.89,.69,.85-.21,2.25-.31,3.14-.09,1.08-.94,3.07-1.19,4.94-1.59,.8-.17,1.65-.19,2.49-.26,.84-.06,1.65-.26,2.45-.3,1.14-.06,2.33-.07,3.53-.17,2.59-.22,5.17-.1,7.74-.04,.18,.05,.16,.29,.17,.51,.8,.1,1.41-.19,1.98-.17,.17,.33-.25,.35-.22,.69,.64,0,1.02-.27,1.55-.39,.22,.19-.08,.34-.13,.52,.52-.19,1.1-.49,1.77-.35,.48,.1,.73,.67,1.07,.86,.62-.15,1.08-.47,1.63-.69,.13,.09,.15,.28,.13,.52,.55-.2,.97-.52,1.55-.69,.16,.18-.01,.46,.04,.77,.76,.1,1.77-1.51,1.98-.26,.46-.07,.62-.53,1.03-.52,.24,0,.32,.29,.56,.35,.52,.12,1.03-.19,1.68-.09,.19-.37,.28-.84,.39-1.29-.65-.52-1.47-.8-2.23-1.16-3.74-1.76-7.87-3.38-12.04-4.81-5.04-1.74-10.98-2.33-16.73-3.48-3.3-.66-6.74-.96-10.36-1.42-.43-.05-.96-.05-1.33-.34,4.58-.49,8.67,.53,12.81,1.16,1.51,.23,3.01,.34,4.47,.56,3.46,.51,6.87,1.14,10.01,2.15,5.35,1.72,10.74,3.6,15.47,5.97,.51-5.97-1.01-11.36-2.06-16.34,.97,1.61,1.3,3.63,1.81,5.63,.84,3.37,1.52,7.05,1.29,11.13,.85,.38,1.78,.75,2.75,1.12,.31,.12,.67,.33,.9,.34,.34,.03,.93-.16,1.42-.26,3.17-.6,6.65-1.39,9.63-2.11,3.75-.9,6.9-2.2,10.15-3.22-.16,.17-.2,.24-.21,.52Z"/>
  </g>
</svg>