<?xml version="1.0" encoding="UTF-8"?>
<svg id="Layer_2" data-name="Layer 2" xmlns="http://www.w3.org/2000/svg" viewBox="0 0 59.33 40.64">
  <defs>
    <style>
      .cls-1 {
        fill: #808080;
      }
    </style>
  </defs>
  <g id="Layer_1-2" data-name="Layer 1">
    <path class="cls-1" d="M36.17,34.94h0s.02-.04,.02-.06c.08-.03,.16-.07,.24-.1-.08,.05-.17,.09-.25,.14,0,0,0,0,0,.01ZM.28,33.35c.24,.33,.76,.31,.96-.05,2.03-3.56,4.94-6.28,7.4-6.57,.15-.02,.3-.02,.43,0,.7-.09,1.41,.06,2.07,.33,.88,.36,1.67,.86,2.43,1.42,1.4,1.03,2.68,2.21,4.12,3.17,1.38,.91,2.85,1.67,4.39,2.27,1.53,.59,3.12,1.01,4.75,1.21,.8,.1,1.61,.15,2.42,.14,.83,0,1.66-.11,2.49-.18,.03,0,.06,0,.09,.02,1.86-2.41,3.13-5.18,4.55-7.86,.04-.07,.18-.06,.19,.02,.16,1.06,.24,2.13,.22,3.21-.03,1.49-.23,3-.62,4.47,0-.02,.02-.04,.02-.05,.08-.03,.16-.07,.24-.1,.55-.31,1.09-.61,1.66-.88,1.15-.55,2.32-1.01,3.59-1.18,.64-.09,1.28-.13,1.93-.16,6.74-1.4,12.43-6.49,12.43-6.49,1.1-.84,1.92-1.52,1.94-1.82,.02-.31-.51-.75-.51-.75l.69,.42c.28,.08,.51-.22,.71-.43,.3-.31,.42-.66,.45-.99,.06-.66-.25-1.31-.75-1.75-.84-.73-1.88-.96-1.88-.96,0,0-3.11-3.53-4.36-5.62-1.13-1.88-2.41-4.64-5.49-6.35-.81-.26-1.64-.47-2.47-.61-2.56-.44-5.2-.36-7.78-.14-2.35,.2-4.69,.46-7.01,.85-2.24,.38-4.47,.89-6.62,1.63-1.44,.49-2.87,1.08-4.23,1.79-.81,.46-1.59,1.02-2.18,1.75-.41,.51-.73,1.08-1.07,1.64-.33,.55-.7,1.07-1.1,1.58-.78,1-1.7,1.96-2.89,2.47-.67,.29-1.37,.41-2.05,.35-.23,.07-.49,.1-.8,.07-2.45-.29-5.35-3-7.38-6.55-.2-.35-.7-.43-.95-.11-.33,.43-.53,1.31,.14,3.13,1.24,3.37,2.13,3.65,2.32,7.3-.19,3.65-1.08,3.93-2.32,7.3-.65,1.77-.48,2.65-.17,3.09Zm38.38,.57c-3.21,2.86-3.64,5.31-2.83,5.86,1.25,.85,3.22-.4,4.43-2.23,1.17-1.77,1.95-4.01,2.16-4.62-.58,.07-1.16,.16-1.73,.31-.69,.17-1.36,.41-2.02,.68ZM14.75,15.15c.71-1.03,1.23-2.18,2.19-3.02,.85-.75,1.86-1.32,2.89-1.77,.68-.3,1.39-.58,2.12-.78,.58-.22,1.16-.43,1.74-.62,4.51-1.47,9.32-1.98,14.03-2.29,2.61-.17,5.36-.14,7.93,.47-.57-.76-3.17-4.19-5.23-6.02-.32-.28-.58-.45-.81-.55-.56-.39-1.35-.58-2.44-.58-.85,0-1.65,.22-2.35,.6-.58-.24-1.22-.38-1.88-.38-1.08,0-2.08,.36-2.89,.95-.76-.48-1.65-.77-2.62-.77-1.4,0-2.66,.6-3.55,1.55-.79-.55-1.74-.87-2.78-.87-.8,0-1.54,.19-2.21,.53-.95,0-9.15,.23-10.73,6.81,0,0-1.08,4.39,1.81,7.85,.42,.5,.6,1.19,.44,1.82-.07,.28-.23,.54-.47,.74,.8-.12,1.59-.47,2.21-.9,1.05-.72,1.89-1.76,2.6-2.8Zm14.28,20.48c-.9-.01-1.8-.1-2.69-.24-3.22-.51-6.26-1.85-8.93-3.72-.7-.49-1.36-1.01-2.02-1.54-.69-.56-1.38-1.13-2.15-1.58-.73-.42-1.5-.84-2.28-1.15-.33-.13-.67-.24-1.01-.33,.23,.2,.39,.46,.45,.73,.16,.64-.02,1.32-.44,1.82-.81,.97-1.3,2.01-1.59,3h0s-1.17,3.05,.69,3.71c1.36,.48,10.75,2.71,21.56,.23,.31-.36,.62-.72,.92-1.09-.82,.13-1.67,.15-2.5,.14Zm7.39-8c-.37,.74-.73,1.48-1.1,2.21-.71,1.4-1.46,2.79-2.31,4.1-.57,.87-1.2,1.76-1.95,2.53,.01,0,.02,0,.03,0-1.5,1.97-1.6,3.49-.98,3.91,1.25,.85,3.22-.4,4.43-2.23,.21-.32,.41-.65,.59-.99,1.26-2.99,1.77-6.31,1.29-9.52Z"/>
  </g>
</svg>