<?xml version="1.0" encoding="UTF-8"?>
<svg id="Layer_2" data-name="Layer 2" xmlns="http://www.w3.org/2000/svg" viewBox="0 0 144.28 54.7">
  <defs>
    <style>
      .cls-1 {
        fill: #808080;
        fill-rule: evenodd;
      }
    </style>
  </defs>
  <g id="Layer_1-2" data-name="Layer 1">
    <path class="cls-1" d="M144.08,9.21c-.27-.87-1.5-1.99-2.46-1.88-.15,.02-.3,.16-.49,.21-.31,.08-.65,.04-.87,.15-.46,.22-.93,1.05-1.3,1.66-.5,.82-.9,1.56-.9,2.56-.58,1.02-1.31,2.06-2.17,2.99-.8,.87-1.73,1.91-2.76,2.49-.95,.53-1.78,.46-2.97,.27-.93-.15-2.85-.46-3.57,.23-.17,.17-.11,.47-.37,.62-.01,.71-.17,1.28-.01,2.02,.09,.42,.36,.77,.47,1.19,.21,.81,.29,1.75-.08,2.2-3.69,.58-7.28,1.16-10.75,1.17-.6,0-1.23,.08-1.81,.05-.91-.04-1.95-.29-2.94-.45-2.06-.31-3.97-.57-5.97-.89-1.01-.16-2.04-.29-2.91-.53-.65-.19-1.29-.51-1.95-.73-.67-.22-1.35-.42-2.03-.64-3.34-1.1-6.55-2.42-9.81-3.63-.68-.25-1.37-.58-1.99-.69-.96-.17-1.77,.1-2.72,.3-1.29,.27-2.38,.43-3.7,.67-.62,.11-1.31,.38-1.83,.35-.33-.02-.8-.27-1.25-.41-1.29-.4-2.62-.83-3.81-1.22-.81-.27-1.6-.64-2.43-.91-.87-.28-1.73-.54-2.59-.77-1.72-.46-3.43-1.01-5.17-1.41-1.79-.41-3.6-.81-5.41-1.27,.93-.95,2.47-1.65,3.7-2.35,.22-.12,.45-.19,.56-.34,.26-.34,.11-1.03,.17-1.62,.07-.66,.48-1.49,.76-2.17,.17-.4,1.05-1.57,.89-2.09-.11-.38-.87-.54-1.39-.53-1.31,.05-2.37,.65-3.37,1.19-1.07,.57-1.88,1.15-2.64,1.85-1.64,1.51-2.7,3.23-3.79,4.93-2.16-.5-4.34-.97-6.57-1.52-1.66-.4-3.51-.49-5.36-.6-.64-.04-1.32,.04-1.79-.24-.26,.21-1.07,.21-1.31-.02-.37,.22-.89,.11-1.34,.1-.51,0-1.02-.07-1.44-.1-3.49-.2-6.91,.63-10.27,1.38-2.51,.56-5.08,.94-7.57,1.39-1.21,.22-2.3,.68-3.53,.74,.2-2.53,.76-4.77,2.67-5.77,.6-.32,1.43-.69,2.25-.85,.66-.13,1.44-.1,2.18-.13,2.15-.06,4.17,.04,6.12,.12,5.27,.2,11.69,.31,15.75-1.85,1.71-.91,3.15-2.25,4.14-3.74,.12-.18,.41-.39,.29-.65-.63-.23-.85,.44-1.13,.72-.96,.99-2.19,2.02-3.51,2.63-4.86,2.24-12.32,1.59-17.82,1.3-1.21-.07-2.47-.27-3.6-.19-.27,.02-.51,.09-.75,.1-.84,.04-1.66-.13-2.41-.02-1.15,.16-2.44,.64-3.23,1.26-.47,.37-.93,1-1.32,1.53-1.23,1.7-1.87,3.84-1.81,6.55-.36,.38-1.04,.35-1.42,.7-.46,.42-.46,1.21-.23,1.92-.57,1.09-1.14,2.56-.82,4.15-.67-.19-1.37-.45-2.23-.46-1.45-.01-2.99,.61-4.47,.6-.7,0-1.47-.33-1.92-.23,.01,0,.03,0,.04,0,.07,1.52,1.95,1.77,3.33,1.68,1.06-.07,2.18-.44,3.29-.51,.92-.05,1.72,.25,2.42,.24,.24,.35,.43,.74,.64,1.13-.42,.95-.63,2.52-.21,3.81-.82,1.27-1.53,2.77-1.75,4.6-.07,.57-.28,1.27,.1,1.81,.2-.16,.28-.28,.38-.49,.66-1.4,.96-3.11,1.86-4.28,.48,.82,1.04,1.55,2.04,1.78,.58,2.16,2.21,3.65,3.95,4.71,1.77,1.08,3.64,2.04,5.54,2.86,1.9,.82,3.88,1.74,5.96,2.36,2.09,.62,4.12,1.5,6.23,2.05,1.14,.3,2.28,.49,3.38,.71,4.59,.92,7.99,3.09,11.34,5.41,2.3,1.59,4.66,3.19,6.21,5.59,.13,.21,.23,.5,.47,.64,.27-.54-.16-1.05-.41-1.44-.28-.43-.55-.9-.82-1.29-1.15-1.64-2.5-3.04-3.96-4.25-.74-.62-1.63-1.06-2.44-1.62-3.22-2.22-7.05-3.6-11.28-4.61-1.1-.26-2.18-.43-3.21-.68-1.01-.25-2-.64-2.94-1-1.87-.7-3.69-1.56-5.62-2.35-1.83-.75-3.85-1.41-5.58-2.39-1.18-.67-2.5-1.64-3.45-2.64-.37-.39-.8-.7-1.01-1.06-.53-.89-.71-2.43-.23-3.48,1.77,1.28,3.52,2.62,5.4,3.84,.91,.6,1.8,1.29,2.8,1.81,.49,.26,1.02,.51,1.54,.77,.5,.25,1.05,.55,1.57,.72,1.67,.56,3.48,.97,5.22,1.54,1.73,.56,3.53,1.1,5.04,1.89,.59,.31,1.16,.69,1.77,1,.62,.31,1.18,.69,1.81,1,.62,.31,1.26,.57,1.88,.91,3.11,1.67,7.22,1.71,11.51,2.1,.63,1.42,1.3,3.02,2.27,4.34,.43,.57,.95,1.26,1.57,1.69,.63,.44,1.31,.99,1.99,1.2,.48,.15,1.31,.29,1.83,.2,.25-.04,.54-.25,.77-.4,.78-.5,.72-1.33,.74-2.46,0-.7-.1-1.42-.35-1.87-.62-1.12-2.25-1.56-2.77-2.57,1.25-.07,2.36-.13,3.41-.01,1.05,.12,2.13,.15,3.07,.44,1.02,.31,1.99,1.18,2.92,1.76,1.01,.63,2.05,1.19,3,1.71,1.06,.57,2.01,1.16,3.15,1.53,1.17,.38,2.41,.33,3.85,.71,.84-.13,1.72-.05,2.61-.12,2.81-.22,5.65-.49,8.41-.82,1.87-.22,3.72-.37,5.43-.71,1.25-.25,2.42-.65,3.59-.95,.37-.1,.79-.34,1.17-.13-.04-.29,.32-.21,.44-.25,.2-.05,.42-.09,.58-.13,2.77-.62,5.42-1.37,7.98-2.05,1.51-.4,2.91-.84,4.23-1.43,1.29-.57,2.48-1.31,3.73-1.89,2.61-1.2,4.94-2.44,7.02-4.13,2.05-1.66,4.1-3.28,6.39-4.67,.06-.19,.14-.23,.23-.31,.33-.29,.8-.47,1.17-.68,1.3-.75,1.94-1.58,2.91-2.67,.89-.99,1.4-2.22,2.01-3.4,.2-.4,.37-.9,.63-1.19,.2-.22,.51-.39,.75-.61,.23-.2,.46-.44,.66-.68,.82-1,1.18-2.35,1.75-3.51,.27-.54,.72-1.03,1.15-1.56,.4-.49,.74-1.02,1.1-1.56,.37-.55,.77-.97,1.01-1.64,.22-.61,.39-1.28,.65-1.95,.4-1,.61-2.25,.24-3.48ZM11.98,28.32c-.23-.29-.88-.92-.91-1.4-.03-.5,.55-.89,.52-1.43,.32,.29,.6,.64,.92,.94-.18,.63-.37,1.25-.53,1.9Z"/>
  </g>
</svg>