<?xml version="1.0" encoding="UTF-8"?>
<svg id="Layer_2" data-name="Layer 2" xmlns="http://www.w3.org/2000/svg" viewBox="0 0 54.19 35.82">
  <defs>
    <style>
      .cls-1 {
        fill: #808080;
        fill-rule: evenodd;
      }
    </style>
  </defs>
  <g id="Layer_1-2" data-name="Layer 1">
    <path class="cls-1" d="M3.98,27.43s-2.75-2.27-2.75-3.01,1.38-3.99,2.62-5.46c1.24-1.47,5.32-5.97,6.65-7.53,1.33-1.56,8.08-5.23,15.97-6.01,0,0,2.06-.32,4.63-3.81,2.57-3.49,6.61-.53,7.43,1.35,.83,1.88,1.79,4.38,1.33,5.8-.46,1.42-1.55,1.59-1.55,1.59,0,0,2.45-.3,3.65-.46,1.19-.16,2.36,.64,2.5,1.08,.14,.44-1.08,2.59-.67,2.87,.41,.28,1.88-.18,3.12-2.48,1.24-2.29,4.36-6.29,6.33-6.29s.32,5.41-.23,6.79c-.55,1.38-.8,3.01-.55,3.44,.25,.44,.41,1.67,.28,3.37-.14,1.7,.41,3.53,.5,4.5,.09,.96-.41,1.42-1.06,1.24-.64-.18-5.32-5.32-6.29-5.28-.96,.05-1.79-.02-1.51,.62,.28,.64,.92,.32,1.22,.73,.3,.41,0,1.51-.64,2.34s-1.19,2.16-1.4,2.91-2.8,3.44-3.21,4.82c-.41,1.38-.81,2.71-1.23,2.79-.41,.08-1.22-.76-1.92-.87-.7-.11-2.39-.86-3.07-2.17,0,0-1.51,.67-1.67,.93s1.78,1.39,2.01,1.72c.23,.33,.39,1.11-.54,1.17-.93,.06-3.61-.58-5.49-1.76,0,0-2.13,.78-3.4,1.7s-1.79,1.49-2.96,1.61c-1.17,.11-2.5,.53-4.8-1.28,0,0-4.22,.99-7.02-.6-2.8-1.58-4.54-1.38-5.87-1.38s-3.12,.5-3.69-.96c-.57-1.47-.92-2.45-.53-2.64,.39-.18,4.22-.73,3.81-1.41h0Z"/>
  </g>
</svg>