<?xml version="1.0" encoding="UTF-8"?>
<svg id="Layer_2" data-name="Layer 2" xmlns="http://www.w3.org/2000/svg" viewBox="0 0 93.98 53.58">
  <defs>
    <style>
      .cls-1 {
        fill: #808080;
      }
    </style>
  </defs>
  <g id="Layer_1-2" data-name="Layer 1">
    <path class="cls-1" d="M93.78,35.45c-1.16,1.29-4.13,2.58-9.29,1.68-5.16-.9-10.32-2.97-12.51-2.45-1.44,.34-4,1.29-6.65,2.42,.86,1.87,1.49,4.46-1.57,4.71-2.63,.21-6.35-.62-8.4-1.12-6.43,1.52-15.25,3.02-15.25,3.02,0,0,5.93,.81,7.45,4.13,1,2.19-4.1,4.9-10.93,3.48-6.84-1.42-10.71-3.48-10.71-3.48,0,0-7.65,1.31-14.46,1.26,.62,.93,1.05,1.91,1.31,3.05,.09,.37-.44,.62-.63,.27-.64-1.15-1.38-2.35-2.25-3.35-.17,0-.33-.02-.5-.03,.03,.06,.06,.13,.09,.19,.61,1.32,.81,2.68,.27,4.05-.21,.54-.98,.34-.87-.24,.33-1.71-.48-2.93-1.32-4.15-1.27-.14-2.44-.37-3.42-.7-.74,.84-1.3,1.85-1.71,2.88-.23,.58-.99,.35-.91-.25,.16-1.2,.62-2.25,1.31-3.2-.2-.11-.38-.23-.55-.35-.7,.33-1.35,.74-1.86,1.37-.17,.21-.51-.06-.37-.29,.41-.65,.92-1.32,1.52-1.85-2.4-3.92,5.9-13.38,11.71-17.62,3.33-2.43,7.42-4.48,11.76-6,2.05-5.15,8.02-18.74,15.49-22.86,1.94,.29,14.16,10.2,13.35,17.6-.16,1.49-.92,2.62-1.83,3.59,7.6,1.02,14.64,2.39,14.64,2.39,0,0,9.29-10.58,14.19-13.8,4.9-3.23,10.19-5.16,9.68-4.26-.52,.9,.26,8.9-6.97,16.39-2.06,3.87,1.94,7.66,4.64,9.18,2.71,1.53,6.71,3.07,5.55,4.36Z"/>
  </g>
</svg>