<?xml version="1.0" encoding="UTF-8"?>
<svg id="Layer_2" data-name="Layer 2" xmlns="http://www.w3.org/2000/svg" viewBox="0 0 107.75 49.51">
  <defs>
    <style>
      .cls-1 {
        fill: #808080;
      }
    </style>
  </defs>
  <g id="Layer_1-2" data-name="Layer 1">
    <path class="cls-1" d="M94.45,24.07c4.82,.04,9.78,2.24,13.19,5.55,.28-2.18-.05-3.59-.05-3.59-.11-.59-.26-1.14-.43-1.65-4.49-2.1-8.39-2.23-13.89-2.23-.18,0-.32-.14-.32-.32s.14-.32,.32-.32c3.32,0,6.09,.06,8.74,.56,1.62,.3,3.19,.76,4.82,1.46-3.96-8.89-17.87-3.22-17.87-3.22,0,0-2.12,.46-3.8,.08-1.69-.37-2.35-.08-2.35-.08-1.85,3.48-1.85,8.16-1.85,8.16-.75-3.75,1.42-8.22,1.42-8.22-7.12-.98-8.26-3.35-8.31-3.45,1.05,1.52,4.62,2.33,4.62,2.33,1.93-3.93,.28-7.79,.28-7.79,0-1.49-1.57-1.92-1.57-1.92,0-.92-1.77-.88-1.77-.88-.2-.84-1.57-.64-1.57-.64-.28-.92-1.81-.64-1.81-.64-.52-1.04-1.97-.6-1.97-.6-1.06-1.06-2.37-.6-2.37-.6-1.24-1.24-6.29,.8-10.31,1.12-4.01,.32-7.49-1.71-7.49-1.71l.32,1.39c.64,5.3-5.3,8.4-5.3,8.4,0,0-4.31,2.28-5.94,3.91-1.6,1.6-.62,3.44-.59,3.5-3.17-3.17,4.58-7.06,4.58-7.06,8.75-5.3,6.13-10.14,6.13-10.14-.56-1.04-2.36-1.87-2.36-1.87-1.58-.48-5.06,.48-5.06,.48,1.02-1.02,4.34-.94,4.34-.94-.4-.75-1.39-1.37-1.39-1.37-2.47-.72-7.17,1.81-7.55,2.02,3.63-2.61,6.4-2.34,6.4-2.34-.46-.7-1.55-1.02-1.55-1.02-4-.71-9.19,3.31-9.36,3.45,3.05-2.81,6.9-3.61,6.9-3.61-2.62-1.45-11.19,3.85-11.19,3.85-3.25-.52-13.58,5.43-16.86,6.98,.71,.54,1.9,1.57,3.13,3.18,1.97,2.58,.79,7.29,.79,7.29-.53,3.64-3.15,8.28-3.52,10.21-.01,.06-.02,.11-.02,.16-.19,1.74,2.25,1.4,2.25,1.4-2.46,.96-3.53-.96-1.82-4.12,1.71-3.16,2.84-8.35,2.84-8.35,1.44-5.16-3.14-8.63-4.38-9.46-2.05,.75-2.5,1.6-6.21,3.35C.93,16.52,.34,20.27,.34,20.27c.38,.38,1.7,1.83,1.79,1.9-.09-.04-1.32-.6-1.81-1.09-.51-.51-.24,2.73-.24,2.73,0,4.66,2.03,3.1,4.66,6.85,2.62,3.75,8.78,5.57,8.78,5.57,1.69,1.69,13.49,4.55,13.49,4.55,2.3,5.62,7.96,8.42,7.96,8.42,6.83,1.93,6.99-5.38,6.99-5.38-2.69,3.29-6.14,3.13-6.14,3.13,3.53-.4,6.02-3.65,6.02-3.65,2.19-2.19,.48-4.1,.48-4.1-1.81-.64-1.57-2.08-1.57-2.08,0,1.13,1.68,1.68,1.68,1.68l11.5,.7c8.07,6.16,17.84,5.73,17.84,5.73,7.82-.48,5.85-8.15,5.85-8.15-.25-1.41-2.49-2.04-3.05-2.18,3.93,.88,9.45,.43,9.45,.43-.46-1.85,.58-3.15,.58-3.15,2.35-2.35,2.13-7.83,2.13-7.83,0,0,.64,4.34-1.12,6.79-1.77,2.45-1.12,4.22-1.12,4.22l7.87,5.22c1.96,1.39,3.85,1.63,5.45,1.39-1.23-2.78-2.9-5.28-5.74-6.89-.15-.09-.21-.28-.12-.44,.09-.15,.28-.21,.44-.12,3.05,1.73,4.8,4.39,6.08,7.33,1.33-.32,2.41-.93,3.09-1.4-1.87-3.57-4.89-6.88-8.2-8.69-.16-.09-.21-.28-.13-.44,.09-.16,.28-.21,.44-.13,3.37,1.85,6.46,5.22,8.4,8.87,.16-.13,.25-.21,.25-.21,.7-.7,1.32-1.41,1.85-2.1-2.59-4.27-6.22-8.08-10.76-9.5-.17-.05-.26-.23-.21-.4,.05-.17,.23-.26,.4-.21,4.62,1.45,8.32,5.26,10.97,9.56,1.8-2.5,2.61-4.87,2.96-6.78-3.3-3.38-8.25-5.64-13.07-5.68-.18,0-.32-.15-.32-.32,0-.18,.15-.32,.32-.32ZM8.86,18.44c-1.28,0-2.22-.77-2.39-1.96-.1-.69,.2-1.89,1.02-2.25,.6-.26,1.27-.46,1.9-.22,.49,.19,.75,.58,1.17,.88,.5,.36,1.19,.93,1.09,1.62-.18,1.25-1.66,1.92-2.79,1.92Zm11.9,8.42c.38-.58,4.43-7.05,1.47-13.73,0,0,5.09,6.12-1.47,13.73Zm-10.26-10.21c-.69,1.12-2.75,1.19-2.97-.29-.06-.41,.14-1.09,.56-1.28,.18-.08,.57-.15,.77-.17,.32-.04,.62,.17,.85,.37,.37,.33,1.14,.8,.79,1.37Z"/>
  </g>
</svg>