<?xml version="1.0" encoding="UTF-8"?>
<svg id="Layer_2" data-name="Layer 2" xmlns="http://www.w3.org/2000/svg" viewBox="0 0 73.04 59.62">
  <defs>
    <style>
      .cls-1 {
        fill: #808080;
        fill-rule: evenodd;
      }
    </style>
  </defs>
  <g id="Layer_1-2" data-name="Layer 1">
    <path class="cls-1" d="M72.92,6.09s-4.27,.8-7.29,1.16c-3.02,.35-9.95,.3-12.16,1.21-2.21,.9-6.71,3.52-7.24,4.42-.53,.9-1.06-.1-.68-1.08,.38-.98,.75-4.32-.03-5.43,0,0,3.12-.3,4.45-.03,0,0-1.41-1.73-2.26-1.96-.85-.23-3.19,.55-3.19,.55,0,0-2.61-2.96-4.62-3.01-2.01-.05-4.75,1.26-4.75,1.26,0,0-2.31-1.88-2.89-2.46-.58-.58-1.66-.98-2.66-.5-1,.48-1.53,1.51-1.53,1.51,0,0,1.31-.43,2.11-.15,.8,.28,3.37,2.44,3.37,2.44l-3.72,3.04s-4.17-1.11-5.18-.8c-1,.3-1.93,.83-2.21,1.36,0,0,.48,.25,.88,.16s2.21-.05,3,.11c.79,.16,2.02,.49,2.02,.49l-3.09,2.66s-4.17-.88-5.53-.2c-1.36,.68-2.41,1.66-2.46,2.26-.05,.6,.89-.21,.92-.25,.04-.04,.93-.75,1.81-.74s3.54,.52,3.54,.52l-3.58,3.04s-4.55-.45-5.68,.93c0,0-.3,.54-.24,.79,.06,.25,.62,0,1.26-.2,.64-.2,2.25-.39,2.61-.1,0,0-3.68,3.63-8.15,5.79C5.29,25.02,.62,27.51,.17,28.29c0,0-.47,.63,.94,.18,1.41-.45,2.9-1.42,3.88-1.8,.98-.38,5.8-2.51,7.81-3.92,2.01-1.41,7.36-4.66,8.04-5.54,0,0,4.15,1.07,5.43,.59,0,0,.45,5.5,.78,6.21,0,0-3.29,2.24-4.4,3.79-1.11,1.56-2.36,2.91-3.29,3.39-.93,.48-1.05,.78-1.56,1.51-.5,.73-1.51,2.16-2.84,2.09-1.33-.08-5.85-2.66-7.91-1-2.06,1.66-1.95,3.35-1.65,3.82,.3,.46,1.49,.83,1.61,1.13,.11,.3-1.14,1.13-.84,2.16,.3,1.03,.65,2.04,2.94,1.66,0,0-.48,1.53,.3,2.06,.78,.53,2.09,.5,2.71,.38,0,0-.88,1.91-.3,2.84,.58,.93,2.14,2.14,4.05-.28,0,0-.43,2.49,.6,3.02,1.03,.53,4.25,1.56,5.48-.78,1.23-2.34-.33-7.19-.68-8.04-.35-.85-.38-1.58-.38-1.58,0,0,.35,1.51,1.28,2.11,.93,.6,2.11,.9,2.56,.23,.45-.68,.45-2.74,.1-3.44,0,0,.65,1.85,1.06,1.91,.4,.06,2.06,.03,2.14-1.22,.08-1.24-.68-1.92-.28-2.73,.4-.8,.48-1.71,.48-1.71,0,0,.2,.19,.2,.47s-.21,1.45-.15,1.89c.06,.44,.72,.93,1.27,1.02s1.7-.3,1.8-1.03c.1-.73,.14-1.66-.2-1.95,0,0,.57,.68,.95,.68s1.83-.39,1.76-1.43c-.08-1.04-.53-1.93-1.41-2.2,0,0,.63-1.33,1.28-1.36,.65-.03,.64,.77,1,1.01,.36,.24,2.8,.87,2.8,.87,0,0-5.02,5.26-6.26,6.92-1.23,1.66-4.75,6.53-6.76,9.45-2.01,2.91-3.67,6.73-10.3,8.24-6.63,1.51-14-1.68-14-1.68,0,0-.26-.15-.23,.39,.04,.54,3.99,1.73,4.57,1.95,.58,.21,6.12,1.44,8.43,.97,2.31-.48,6.63-1.98,8.07-3.62,1.43-1.63,4.95-5.53,6.51-7.99,1.56-2.46,7.59-10.45,9.82-12.24,2.24-1.78,4.02-3.77,4.52-3.89,.5-.13,.53-.08,.53-.08,0,0,2.94,5.55,2.99,8.52,.05,2.96,.8,5.53-.25,7.39,0,0-.15,.28,.02,.44,.18,.16,1.11-.06,1.63-1.65,.53-1.58,.1-6.86-.25-7.91-.35-1.06-1.48-6.48-2.21-7.49,0,0,1.31-.45,2.16-.88,0,0,1.28,1.93,2.01,2.54s1.63,2.86,2.31,4.07c.68,1.21,2.14,4.65,2.31,5.5,.18,.85,.43,2.31,.28,3.44,0,0-.15,.41,.18,.53,.33,.11,1.29-1.38,1.24-2.88-.05-1.49-.9-3.14-1.58-4.82-.68-1.68-2.49-5.43-2.79-6-.3-.58-1.78-3.64-2.36-4.15-.58-.5-2.91,.5-2.91,.5,0,0,4.45-2.16,4.98-2.51,.53-.35,1.11-.45,1.51,.18,.4,.63,4.42,4.75,5.28,5.7,.85,.95,2.41,3.17,3.27,4.77,.85,1.61,2.76,4.32,2.76,5.28s.03,.93,.5,.78c.48-.15,1.16-1.96,.98-2.66s-6.36-9.17-6.98-10.07c-.63-.9-2.34-3.17-3.12-3.84-.78-.68-2.06-2.21-2.56-2.26,0,0,1.39-1.02,2.26-1.43,.87-.41,1.6-.88,1.95-.73,.35,.15,1.81,2.89,2.36,3.08,.55,.19,9.16,6.31,10.31,7.06,1.16,.75,3.52,3.94,4.05,4.15,.53,.2-.3-2.59-1.06-3.32-.75-.73-2.44-2.06-3.42-2.69-.98-.63-5.93-4.42-6.88-5.2-.96-.78-1.46-2.09-2.44-2.89-.98-.8-1.98-1.91-2.64-1.81,0,0,1.31-.53,1.53-1.46,0,0,7.26,.4,8.09,.05,0,0,.15-1.03-1.41-1.36-1.56-.33-3.69-.08-4.32,.18-.63,.25-2.04-.05-2.04-.05,0,0-.13-2.46-1.21-3.19-1.08-.73-1.81-.03-2.31-.55-.5-.53-.4-.95-1.13-.98-.73-.03-1.96-.08-2.54,.3,0,0,2.84-1.53,3.24-1.86s1.68-.4,2.26-.73c.58-.33,1.31-.38,2.11-.38s4.52,.28,5.98,.6c1.46,.33,4.57,.63,5.08,.8,.5,.18,3.27,1.73,3.27,1.73,0,0-1.51-1.78-2.61-1.98,0,0,2.19,.03,2.66-.03,0,0-2.29-.38-3.72-.65-1.43-.28-3.29-.48-5.25-.88-1.96-.4-3.02-.63-4.57-.63s-2.39-.43-3.32,0c-.93,.43-2.06,1.16-2.59,1.26-.53,.1-.83,.15-1.43,.63-.6,.48-1.78,1.21-2.21,1.43-.43,.23-1.98,1.11-2.39,1.13,0,0,2.74-2.64,3.57-3.19,.83-.55,2.69-1.51,3.59-1.51s2.69-.3,4.02-.3,5.93,.03,6.66-.1c.73-.13,4.27-1.26,5.68-1.28,1.41-.03,1.93-.05,2.01-.35,.08-.3-3.59,.15-4.32,.25-.73,.1,.19-.02,.19-.02l4.02-1.21h0Zm-22.64,11.41s-1.61,.65-2.75,.25c0,0,.09,1.76-.68,2.75,0,0,2.22-1.46,3.43-3h0Zm4.55-1.07s-1.47-.31-2.59,.65c0,0,.82,.36,1.32,.38,.5,.01,1.27-1.03,1.27-1.03h0Zm-12.54-3.94s-1.93,.55-2.24,.75c-.3,.2-.48,.75-.48,.75,0,0,.04-4.42,.19-4.9,.15-.48,.16-.54,.55-.48,.39,.06,.7,.19,.95-.03,.25-.21,.78-.99,1.13-.93s.44,.67,.44,.67c0,0-.47,2.11-.79,2.51-.33,.4,.24,1.65,.24,1.65h0Zm-14.09,1.94s-1.29-.54-2.26-1.29l-3.33,2.69s3.83-.23,4.42-.04c.59,.19,1.12,.4,1.22,2.19,.1,1.78,.63,4.97,.63,4.97l.18-.23s-.06-5.85-.36-6.43c-.3-.58-.68-1.47-.49-1.86h0Zm3.16,5.89s.18-4.12,.35-5.3c.18-1.18,.08-4.02-.25-4.67-.33-.65-1.28-1.04-1.28-1.04l-2.91,2.46s.47-.06,.71,.08c.24,.14,2.2,1.6,2.3,1.7,.09,.11,.32,2.24,.26,3.08-.06,.84,.26,4.48,.26,4.48l.57-.79h0Zm3.95-14.77s-3.01,1.96-3.22,2.34c0,0,1.42,1.24,1.58,1.71,.16,.46,.1,2.39,0,3.07-.1,.68-.15,5.25-.15,5.25l.77-.61s1.02-4.96,1.04-7.47c.03-2.51,.24-3.77-.03-4.28h0Zm5.9,.84s.36-.78-.2-.94-2.16-.39-2.56-.68c-.4-.29-1.56-.6-1.56-.6,0,0,.13,.97,.5,1.32,.38,.35,.67,1.02,.62,1.16-.05,.14-.93,1.07-.96,1.23-.03,.16-.34,2.84-.34,3.52s-.08,4.2-.08,4.2l-.03,.65,.99-.82s-.11-6.53-.01-6.96,.72-.91,1.06-1.09c.33-.18,1.83-.92,2.56-.99h0Zm13.01,12.89s-2.56-.33-3.24,.03c-.68,.35-3.84,4.57-5.68,5.58,0,0,1.71-.03,3.39-1.23,1.68-1.21,4.92-3.04,5.53-4.37h0Z"/>
  </g>
</svg>