<?xml version="1.0" encoding="UTF-8"?>
<svg id="Layer_2" data-name="Layer 2" xmlns="http://www.w3.org/2000/svg" viewBox="0 0 86.13 49.3">
  <defs>
    <style>
      .cls-1 {
        fill: #808080;
      }
    </style>
  </defs>
  <g id="Layer_1-2" data-name="Layer 1">
    <path class="cls-1" d="M36.81,48.4c.07,.03,.13,.05,.2,.08-.01,0-.02,0-.03,0-.1,.02-.21,.04-.31,.07-.12,.03-.23,.06-.35,.09-.08,.02-.16,.04-.24,.06-.08,.01-.16,.03-.25,.04-.18,.03-.36,.04-.55,.05h.02s-.01,0-.02,0h-.03s-.03,0-.04,0c-.17,0-.34,.02-.51,.03-.11,.01-.22,.02-.34,.03-.12,0-.24,0-.36,0-2.63-.29-4.69-2.16-6.1-4.3-.68-.87-1.3-1.9-2.27-2.47,0,0-.01,0-.02,0-.05-.03-.1-.05-.15-.08-.06-.03-.12-.07-.18-.1-.15-.08-.32-.14-.48-.2-.15-.05-.3-.1-.45-.15-.03,0-.06-.02-.09-.03,.83,.12,1.68,.12,2.52,.12,.56,0,1.12,0,1.68,.04,.3,.06,1.47,.08,1.97,.31,0,0,0,0,0,0,.72,.26,1.19,1,1.61,1.61,0,.01,.01,.02,.02,.03,0,0,0,0,0,0,.48,.65,.9,1.36,1.37,1.96,.57,.9,1.37,1.75,2.32,2.25,.07,.04,.13,.08,.2,.12,.08,.05,.17,.09,.25,.13,.02,0,.04,.02,.06,.03,.19,.09,.37,.19,.56,.27Zm45.15-6.02s0,0,0,0c0,0,0,0,0,0,0,0,0,0,0,0Zm.27-.41s0,0,0,0c0,0,0,.01-.01,.02,0,0,0-.02,.01-.02Zm-2.99,2.97h0s0,0,0,0c0,0,0,0,0,0Zm-3.85,.62s0,0-.01,0c0,0,0,0,0,0,0,0,.01,0,.02,0Zm.9,.13s0,0,0,0c0,0-.01,0-.02,0h.03Zm9.84-21.58c0-.2,0-.41-.02-.61,0,0,0,0,0,0-.04-.74-.06-1.48-.12-2.22,0,0,0,.02,0,.03-.02-.28-.04-.56-.07-.83-.03-.27-.07-.54-.1-.81-.03-.28-.06-.56-.09-.84-.01-.14-.03-.29-.05-.43-.02-.15-.04-.3-.07-.44,0,0,0,.02,0,.03-.14-.81-.36-1.6-.55-2.4-.04-.19-.09-.37-.15-.55-.06-.19-.13-.39-.19-.58-.13-.39-.25-.78-.41-1.16,0,0,0,.02,.01,.03-.02-.04-.04-.09-.06-.13,0,0,0,0,0,0-.09-.19-.18-.37-.27-.56-1.6-2.71-4.7-4.12-8.14-2.41-2.4,1.05-3.65,3.48-5.24,5.41-1.74,2.35-4.45,3.62-7.36,2.83-1.69-.4-3.21-1.34-4.89-1.8-1.86-.57-3.75-1.1-5.71-1.08-.07,0-.21,0-.38,0,1.63-.37,3.37-.3,5.01,.06,.93,.15,1.79,.55,2.67,.86,.09-.02,.18-.03,.28-.05,0,0,0,0,0,0h0c.14-.03,.28-.07,.41-.1,.03,0,.06-.01,.09-.02t0,0c2.55-.54,5.39-2.12,6.26-4.6,1.02-4.03-1.58-8.19-5.16-9.95-4.32-2.34-9.49-2.19-14.07-.74-1.45,.41-2.86,1.06-4.04,2-2.78,1.49-5.09,3.69-7.76,5.37-2.13,1.07-4.53,1.5-6.84,1.98-1.96,.5-3.96,.85-5.93,1.32-3.4,.98-6.58,2.65-9.36,4.84-2.33,1.86-4.57,3.86-6.85,5.8-1.69,1.43-3.35,3.03-5.53,3.72-1.58,.45-2.08,2.27-.48,2.89-.36,.51-.25,1.31,.27,1.83,.38,.43,.94,.62,1.47,.77,.84,.22,1.63,.6,2.43,.94,2.69,1.36,5.28,2.92,7.95,4.33,1.63,.93,3.33,1.79,5.05,2.55,1.29,.58,2.73,.62,4.06,1.06,2.04,.56,4.19,.39,6.26,.7,.03,0,.06,0,.08,0,.09,0,.17,0,.26,.02,.11,0,.23,.02,.34,.03,.05,0,.1,0,.15,.01,.07,0,.13,.01,.2,.02,.03,0,.06,0,.1,0h0s.07,0,.1,0c-.02-.03-.05-.06-.07-.08,0,0,0,0,0-.01-.07-.08-.14-.17-.21-.25-.02-.02-.04-.05-.06-.07-.59-.53-1.2-1.04-1.86-1.48-.81-.52-1.66-.99-2.55-1.37,3.75,.85,6.21,3.4,8.53,6.53,1.08,1.26,2.14,2.72,3.79,3.25,2.56,1,3.61-1.26,2.8-3.43-.31-1.02-1.11-1.8-1.84-2.52-1.56-1.47-3.38-2.65-5.3-3.59-.25-.12-.51-.24-.76-.35,1.7,.51,3.31,1.31,4.82,2.26,0,0,.01,0,.02,.01,.03,.02,.06,.03,.1,.05,.06,.03,.12,.07,.19,.1,.07,.04,.15,.08,.22,.12,0,0,0,0,0,0,0,0,.02,0,.03,0,.11-.03,.22-.06,.32-.08,.04,0,.07-.02,.11-.03,0,0,0,0,0,0,.4-.1,.79-.19,1.19-.28,1.13-.2,2.41,.05,3.12,1.03,1.21,1.19,1.96,2.75,3.09,4.01,2.34,2.11,5.26,3.85,8.44,4.16,.31,.04,.64,.06,.97,.06,3.7,0,8.61-2.24,10.15-5.45,.97-2.55,.06-5.05-2.36-6.32-.94-.5-1.98-.79-3.05-.93,2.23-.39,4.17,.58,5.81,2.02,.01,0,.03,.01,.04,.02,.12,.09,.23,.21,.34,.32,0,0,.02,.02,.03,.03,0,0,0,0,.01,.02,.02,.02,.04,.04,.06,.07,0,0,.02,.02,.03,.03,0,0,0,0,0,0,0,0,0,0,0,0,0,0,0-.01,0-.02,.06-.1,.13-.2,.2-.29,0,0,0,0,0,0h0c.04-.06,.08-.11,.13-.16,.02-.02,.04-.05,.06-.07,.04-.05,.08-.08,.13-.11,.07-.04,.14-.08,.21-.12,.12-.06,.24-.1,.37-.13,.17-.05,.34-.09,.52-.09,.2,0,.39,.03,.58,.1,.2,.07,.38,.17,.55,.29,.34,.22,.63,.51,.9,.81,.2,.23,.39,.47,.56,.72,.18,.26,.37,.52,.55,.79,.18,.27,.36,.54,.54,.81,.17,.26,.33,.52,.5,.78,.08,.13,.17,.25,.25,.38,0,0,0,0-.01-.01,.01,.02,.02,.04,.04,.05,0,0,0,0,0,0,0,0,0,.01,.01,.02h0s.07,.1,.1,.15c0,0,0-.01-.01-.02,.04,.05,.07,.11,.11,.16,0,0,0-.01-.01-.02,.19,.27,.38,.54,.61,.78,0,0,.01,.01,.02,.02,.29,.29,.59,.56,.91,.81,.16,.12,.33,.22,.5,.32,.18,.1,.36,.19,.55,.28,.11,.05,.22,.1,.33,.14,.11,.05,.23,.08,.34,.12,0,0,0,0,.01,0,.1,.03,.19,.05,.29,.07,.21,.03,.41,.05,.62,.07,.2,0,.4,0,.61-.01,.15-.02,.31-.03,.46-.06,.16-.03,.32-.06,.48-.1,0,0-.02,0-.03,0,.15-.03,.29-.07,.44-.13,0,0-.02,0-.03,.01,.18-.07,.36-.15,.54-.23,.16-.07,.31-.14,.47-.22,0,0,0,0,0,0,0,0,0,0,0,0,0,0,0,0,0,0,0,0,0,0,0,0,0,0,0,0,0,0,.19-.1,.37-.22,.54-.34,.19-.14,.37-.3,.55-.45,.19-.17,.38-.35,.57-.52,0,0-.01,.01-.02,.02,.18-.17,.35-.34,.52-.52,.04-.04,.08-.08,.11-.12,.05-.07,.11-.15,.16-.23,0,0,0,0,0,0,0,0,0,0,0,0,0,0,0,0,0,0,0,0,0,0,0,0,.09-.13,.18-.26,.27-.39,0,0,0,0,0,0,0,0,0,0,0,0,0,0,0,0,0,0,0,0,0,0,0,0,0,0,0,0,0,0h0s.02-.02,.03-.03t0,0s0,0,0-.01c0,0,0,0,0,0,0,0,0,0,0,0,.02-.03,.04-.07,.07-.1,0,0,0,.02-.01,.02,.06-.09,.11-.17,.17-.26,.11-.17,.21-.34,.31-.52,.1-.18,.18-.36,.27-.54,.17-.35,.36-.69,.52-1.04,.18-.38,.33-.76,.49-1.14,.17-.4,.31-.81,.44-1.22,.16-.48,.31-.96,.46-1.45,.08-.26,.15-.52,.22-.78,.07-.25,.15-.5,.21-.75h0c.04-.17,.09-.35,.13-.53,.05-.19,.08-.38,.12-.57,.08-.4,.15-.79,.22-1.19,0,0,0,.02,0,.03,.04-.2,.08-.4,.11-.6,.04-.24,.06-.48,.08-.71,.02-.27,.05-.54,.08-.81,.03-.27,.06-.54,.09-.82,.02-.28,.04-.55,.07-.83,0,0,0,.02,0,.03,0-.03,0-.05,0-.07,0,0,0,.02,0,.03,.02-.24,.04-.48,.06-.72,.01-.25,0-.51,.01-.77,0-.27,0-.53,0-.8,0-.26,0-.52,0-.79,0-.38,0-.75,0-1.13,0-.04,0-.07,0-.11v-.03Zm-10.76,21.44h0s0,0,0,0Z"/>
  </g>
</svg>