<?xml version="1.0" encoding="UTF-8"?>
<svg id="Layer_2" data-name="Layer 2" xmlns="http://www.w3.org/2000/svg" viewBox="0 0 89.29 62.97">
  <defs>
    <style>
      .cls-1 {
        fill: #808080;
      }
    </style>
  </defs>
  <g id="Layer_1-2" data-name="Layer 1">
    <path class="cls-1" d="M2.54,43.49c-.17-.61,.11-.88,.36-1.34,.03-.04,.03-.08,.01-.12-.15-.65-.03-1.32-.19-1.82-.01-.04-.04-.08-.08-.11-.05-.03-.1-.06-.16-.09-.04-.02-.08-.04-.12-.06-.01,0-.02-.01-.03-.02,0,0-.02-.01-.03-.02-.28-.16-.52-.36-.32-.74,.17-.3,.34-.58,.54-.84,.06-.08,.06-.18-.01-.25-.74-.88-2.08-.9-2.44-2.11-.32-1.12,.63-2.19,1.58-2.67,.83-.41,1.64-.7,2.44-.88,5.88-1.27,11.6,.3,17.2,1.97,.28,.08,.72,.03,1.02-.08,2.71-1.02,4.89-2.58,6.75-4.7,.02-.02,.03-.04,.02-.05,0,0-.01,0-.02,0-.55,0-1.25,0-1.85-.2-.68-.21-1.23-.64-1.23-1.54,0-.14,.07-.41,.21-.83,.43-1.27-.01-2.15-.41-3.32-.07-.21-.04-.41-.06-.62,0-.04,.01-.1,.03-.14,.41-.81,.17-1.21,.14-2.02-.04-1.02,.77-1.67,1.13-2.36,.47-.87-.4-1.97,.28-2.89,.34-.47,.65-.96,.91-1.49,.25-.5,.63-.94,.7-1.61,.12-1.29,.94-1.71,1.8-2.47,.28-.25,.56-.63,.85-1.14,.26-.47,.87-.77,1.31-1.02,.04-.03,.07-.06,.1-.1,.76-1.72,1.1-1.96,2.75-2.62,.04-.01,.08-.06,.1-.1,.28-.51,.54-1.13,.9-1.53,1.1-1.2,2.59-.81,3.98-.74,.04,0,.07-.03,.07-.07h0c-.03-.33-.11-.69-.06-.98,.36-1.96,3.69-1.02,4.92-.58,.04,.01,.07,0,.08-.04,.31-.99,.95-1.26,1.67-1.17,.81,.09,1.72,.65,2.36,1.14,3.81,2.88,6.34,7.02,8.26,11.27,0,.01,.02,.03,.04,.04,0,0,.02,0,.03,0,4.61,0,9.17,.5,13.63,1.68,1.99,.53,3.81,1.26,5.58,2.17,.81,.42,1.62,.88,2.42,1.37,.39,.24,.78,.48,1.17,.73,.54,.33,1.08,.67,1.62,1,.38,.23,.76,.47,1.14,.7,1.09,.66,1.78,1.58,2.6,2.49,.1,.11,.21,.2,.35,.28,.05,.03,.1,.05,.15,.08,.02,.01,.05,.02,.07,.04,1.6,.76,2.87,2.59,.71,3.83-.01,.01-.03,.04-.01,.07,0,0,0,.01,0,.02,.08,.03,.17,.05,.25,.08,.04,.01,.08,.02,.13,.04,0,0,.02,0,.03,0,.02,0,.03,.01,.05,.02,.02,0,.04,.01,.06,.02,.01,0,.02,0,.04,.01,.02,0,.04,.01,.06,.02,.07,.03,.13,.06,.2,.1,2.12,1.38,.33,3.8-1.01,4.78-.43,.3-1.06,.37-1.4,.8-1.02,1.25-2.05,2.93-3.51,3.72-1.25,.67-2.48,1.39-3.73,2.07-4.09,2.23-8.26,3.94-12.84,4.79-.06,0-.08,.03-.11,.07-1.58,2.84-3.54,5.45-5.72,7.85-2.24,2.47-5.18,4.35-8.28,5.56-.78,.31-2.1,.69-2.99,.39-.21-.07-.39-.17-.55-.32-1.38-1.35,.3-2.49,1.18-3.39,.39-.4,.61-.87,.67-1.39,0-.04,0-.1-.03-.14-.76-1.45,.45-2.31,1.32-3.21,.39-.4,.7-.92,.92-1.56,0-.02,0-.03,0-.04,0,0,0,0,0,0-3.17,.28-6.64,.32-9.28,.37-.06,.01-.08,.03-.11,.07-1.07,1.76-2.2,3.26-3.42,4.49-.3,.3-.73,.56-1.29,.77-.81,.3-1.54,.74-2.2,1.31-1.02,.9-2.12,1.67-3.31,2.31-.22,.12-.47,.4-.76,.52-.14,.06-.27,.06-.39,0-.28-.09-.47-.41-.46-.7,.03-.7,.73-1.82,1.05-2.45,.07-.14,.08-.29,.04-.44-.18-.67-.37-1.38-.61-2.11-.03-.09-.11-.15-.23-.19-.5-.14-1.53,0-2.12-.29-.32-.15-.52-.4-.48-.88,.01-.15,.1-.34,.23-.54,.91-1.32,1.87-2.6,2.91-3.84,.54-.65,2.48-1.02,3.31-1.25,.03,0,.04-.03,.03-.06,0,0,0-.01,0-.02-1.88-.33-3.4-.17-5.35,.38-1.53,.44-3.03,.94-4.52,1.51-.51,.19-1.17,1.2-1.58,1.63-1.68,1.79-3,4.08-4.41,6.2-2.69,4.02-6.54,7.75-11.38,8.83-.72,.16-1.65,.23-2.43,0-.69-.2-1.25-.63-1.44-1.44-.17-.69,.28-1.4,.7-1.91,.03-.03,.04-.07,.04-.11,.06-.85,.12-1.32,.48-2.11,.01-.04,.01-.1,0-.12-.4-.72-.54-1.09-.56-1.93,0-.04-.01-.1-.06-.12-.72-.87-1.25-1.38-.69-2.48,.47-.9,.98-1.91,.88-2.96-.06-.61,.12-1.09,.01-1.71-.17-.87-.17-1.31,.03-2.09,.19-.73-2.11-1.47-2.36-2.34Z"/>
  </g>
</svg>