<?xml version="1.0" encoding="UTF-8"?>
<svg id="Layer_2" data-name="Layer 2" xmlns="http://www.w3.org/2000/svg" viewBox="0 0 77.32 49.09">
  <defs>
    <style>
      .cls-1 {
        fill: #808080;
      }
    </style>
  </defs>
  <g id="Layer_1-2" data-name="Layer 1">
    <path class="cls-1" d="M73.88,38.09c-.57,.7-1.23,.64-1.98,.36-2.01-.73-3.35-2.28-4.81-3.74-2.2-2.21-4.48-4.36-7.23-5.9-.18-.1-.43-.1-.64-.15,.05,.18,.11,.36,.15,.54,.22,1.24,.42,2.49,.66,3.73,.39,2.01-.64,3.72-1.2,5.5-.59,1.91-1.43,3.74-2.23,5.57-.94,2.16-2.66,3.45-4.9,4.07-1.45,.4-2.91,.74-3.99,1.02-4.24-.55-7.96-1.34-11.44-2.97-1.86-.87-3.6-2.01-5.5-2.75-1.33-.52-2.85-.8-4.28-.82-4.43-.04-8.33-1.48-11.84-4.08-1.61-1.19-3.16-2.45-4.76-3.66-1.54-1.17-3.38-1.45-5.22-1.69-.58-.08-1.17-.04-1.76-.03-1.03,.01-1.86-.22-1.97-1.46-.01-.14-.06-.33-.16-.4-1.44-.9-.52-1.78,.12-2.49,.88-.97,1.9-1.82,2.88-2.7,1.76-1.57,2.52-3.56,2.5-5.88,0-.98-.02-1.96-.07-2.93-.12-2.36,1.18-4.21,3.52-4.66,.79-.15,.28-.61,.45-.87,.61-.94,1.25-1.86,1.9-2.76,.54-.75,1.2-1.42,1.67-2.21,1.17-1.94,3.01-3.06,4.93-4.02,2.3-1.14,4.78-1.68,7.34-1.93C28.73,.52,31.44,.05,34.16,0c2.22-.04,4.46,.34,6.68,.66,2.52,.37,4.83,1.46,7.19,2.34,2.51,.93,4.26,2.53,5.34,5.06,1.19,2.8,2.56,5.52,4.2,8.12,.68,1.07,.92,2.55,.94,3.86,.02,1.28-.91,1.78-2.16,1.38-.87-.28-1.68-.77-2.52-1.15-.15-.07-.35-.04-.53-.06,.06,.16,.09,.34,.18,.48,1.24,1.9,3.25,1.94,5.17,2.01,.57,.02,1.16-.55,1.75-.85,.95-.47,1.86-1.04,2.86-1.38,2.72-.94,5.48-1.74,8.2-2.68,2.52-.87,3.7-.34,4.7,2.14,.78,1.93,1.26,3.87,.97,5.96-.04,.28,.08,.58,.11,.87,.44,4.23-.65,8.02-3.35,11.33Z"/>
  </g>
</svg>