<?xml version="1.0" encoding="UTF-8"?>
<svg id="Layer_2" data-name="Layer 2" xmlns="http://www.w3.org/2000/svg" viewBox="0 0 52.03 47.23">
  <defs>
    <style>
      .cls-1 {
        fill: #808080;
      }
    </style>
  </defs>
  <g id="Layer_1-2" data-name="Layer 1">
    <path class="cls-1" d="M51.53,21.11c-.82,1.59-1.98,3.05-3.26,4.29-1.7,1.65-3.74,2.93-5.99,3.68-1.78,.59-3.92,1.01-5.74,.34,.67,1.59,1.3,3.19,1.56,4.91,.21,1.43,.38,2.95,1.04,4.26,.34,.68,.81,1.33,1.47,1.72,.48,.29,1,.39,1.52,.6,.28,.12,.8,.32,.81,.7,0,.46-.43,.76-.8,.96-.09,.05-.18,.02-.22-.04-.62,.48-1.38,.84-2.09,1.11-.91,.35-1.86,.6-2.83,.71-2.01,.23-4.03,.07-5.88-.8-1.96-.92-3.72-2.36-5.2-3.92-.68-.72-1.32-1.54-1.7-2.46-.04-.1-.09-.22-.15-.35-.02-.04-.05-.07-.07-.11-.02-.03-.02-.06,0-.08-.02-.06-.04-.12-.07-.18-.34,.9-.64,1.8-1.26,2.56-.39,.48-.88,.89-1.4,1.21-1.15,.72-2.45,1.15-3.73,1.58-1.26,.42-2.6,.84-3.68,1.64-1.18,.88-1.74,2.16-1.76,3.61,0,.14-.2,.23-.28,.1-2.16-3.12-2.98-7.25-2.7-10.99,.24-3.24,1.3-6.69,3.86-8.85-.04-.01-.08-.03-.13-.04-.92-.3-1.82-.69-2.68-1.13-1.49-.77-2.72-1.93-3.87-3.14-1.06-1.12-2.06-2.34-3.27-3.3-.43-.34-.89-.67-1.36-.95-.38-.23-.95-.62-1.42-.58-.03,0-.05,0-.07-.01,0,0,0,0,0,0,0,.01-.02,.03-.06,.04-.05,.04-.11-.03-.07-.07,0-.01,.02-.02,.03-.03-.03-.07,0-.19,.09-.24,2.71-1.52,5.83-1.94,8.9-1.97,1.54-.01,3.08,.04,4.62,.07,.77,.01,1.54,.02,2.31,0,.38,0,.78-.05,1.17-.08,0,0,0,0,0,0,.54-3.67,2.01-7.33,4.22-10.32C23.45,2.68,26.46,.36,30.11,.09c0,0,.01-.02,.02-.03,.07-.09,.21-.07,.21,.02,.13,.03,.08,.24-.05,.25-.03,0-.06,0-.09,0-.79,1.27-1.22,2.71-1.12,4.22,.1,1.53,.6,3.01,1.19,4.41,.6,1.42,1.3,2.8,1.89,4.22,.36,.85,.76,1.81,.98,2.77,.38-.33,1.14-.63,1.4-.73,.68-.26,1.38-.41,2.1-.42,1.63-.03,3.23,.45,4.72,1.07,1.56,.65,3.06,1.45,4.61,2.12,.63,.27,1.32,.56,2.03,.79,.08-.03,.17-.02,.23,.07,.9,.27,1.83,.43,2.7,.31,.02-.05,.05-.09,.09-.11,.43-.19,.96-.13,.99,.44,.03,.55-.26,1.12-.5,1.6Z"/>
  </g>
</svg>