<?xml version="1.0" encoding="UTF-8"?>
<svg id="Layer_2" data-name="Layer 2" xmlns="http://www.w3.org/2000/svg" viewBox="0 0 105.77 43.73">
  <defs>
    <style>
      .cls-1 {
        fill: #808080;
      }
    </style>
  </defs>
  <g id="Layer_1-2" data-name="Layer 1">
    <path class="cls-1" d="M.2,20.13c-.78-2.34,.73-4.11,3.18-3.62,1.48,.29,2.92,.81,4.37,1.24,.44,.13,.88,.28,1.31,.43h-.01s0-.01,0-.01h0c.06-.04,.11-.08,.17-.11-.05,.04-.1,.08-.15,.12,.25,.09,.5,.17,.75,.26,0,0-.01-.01-.01-.01h0s0,0,0,0c.02,0,.03,0,.05,0-.01,0-.02,.01-.03,.02,1.66,.85,3.32,1.71,4.98,2.56,.15,.08,.3,.16,.44,.24,.48,.26,.93,.6,1.43,.76,.38,.12,.82,0,1.24-.01l-.02-.03,.04,.03h-.01c.83-.05,1.66-.09,2.28-.75,0-.17,0-.34,.01-.5,.08,0,.16,0,.24,0,0,0,0,0,0,0,.09,0,.18,0,.28,0,2.19-2.28,4.39-4.56,6.58-6.83,.92-.54,1.89-.62,2.9-.29,1.4,.45,2.82,.84,4.22,1.3,.94,.31,1.85,.68,2.78,1.02,0,0,0,0,0,0h0c.09,0,.18,0,.27,0h0s0,0,0,.01c.06,.03,.12,.05,.18,.08-.06,.05-.12,.1-.18,.15,0,0,0,.01,0,.02,.33,.17,.67,.33,1,.5,0,0,0,0,0,0,2.42-.57,4.84-1.11,7.24-1.73,.39-.1,.76-.5,1.04-.84,2.04-2.52,4.38-4.75,6.71-7,1.03-1,2.09-1.32,3.43-.94,.36,.1,.75,.09,1.13,.12h-.01s.02-.01,.03-.01c0,0,0,0-.01,0,1.21,.46,2.44,.88,3.63,1.39,1.35,.59,2.65,1.27,3.98,1.9,.37,.18,.76,.41,1.15,.46,1.45,.19,1.58,.02,1.39-1.42-.18-1.44-.07-2.87,.44-4.23,.45-1.18,.96-2.34,1.53-3.46,.48-.95,.87-1.08,1.85-.67,.86,.35,1.67,.81,2.5,1.22l.05-.04-.04,.05c.17,.09,.34,.17,.51,.26,0,0,0,0,0,0,0,0,0,0,0,0,0,0,0,0,0,0,0,0,0,0,0,0,.09-.09,.17-.17,.26-.26,.17,0,.35,0,.52,0v.02c.16,.08,.32,.16,.48,.24,0,0,.01,0,.02,0,0,.01,0,.02,0,.04,.01,.05,.03,.09,.04,.14,0,.02-.02,.04-.04,.07,0,0,0,.01,0,.02h0s-.01,0-.02,0c-.16,.08-.32,.16-.48,.24,0,0,0,.01,0,.02,.67,.58,1.33,1.16,2,1.75,.15,0,.3,.01,.45,.02,.03,0,.06,0,.09,0h0c.72,1.44,1.86,2.52,3.04,3.55,0,0,0,0,0,0h0s0,0,0,0h0c.09,0,.18,0,.27,0,0,.18,0,.35,0,.53h0c.34,.49,.68,1,1.01,1.5l.04-.03-.03,.04s0,0,0,0h0c.35,.71,.76,1.4,1.03,2.14,.41,1.1,1.16,1.7,2.28,1.91h.01c.25,.01,.49,.01,.74,.01,.11,.56,.52,.7,1.01,.75,0-.08,0-.16,.01-.24,.17,0,.33,0,.5,0,.26,.35,.44,.84,.79,1.03,1.66,.89,3.36,1.69,5.05,2.53h-.01c.17,.08,.35,.17,.52,.25h0c.08-.09,.17-.18,.25-.26h.01c-.08,.09-.17,.18-.25,.26,.17,.08,.33,.17,.5,.25h-.01c.18-.01,.35-.01,.53-.01,0,0,0,.01,0,.02,.06,.02,.12,.05,.17,.07-.06,.05-.12,.1-.17,.15,0,0,0,.01,0,.02,2.05,1.23,4.09,2.45,6.14,3.68,.4,.24,.8,.47,1.2,.71,1.54,.93,1.56,1.05,.53,2.45-.48,.19-.96,.38-1.45,.57-.36,.14-.72,.29-1.07,.44,.89,.14,1.77,.28,2.66,.4,.24,.03,.54-.11,.73-.02,.51,.23,1.16,.45,1.4,.87,.16,.3-.27,.93-.46,1.4-.06,.15-.18,.27-.28,.4-2.04,.88-4.17,1.62-6.08,2.72-.77,.44-1.55,.49-2.29,.83,0,0,0,0,0,0,.13,.04,.27,.08,.4,.12-.13,.04-.27,.08-.4,.12,0,0,0,.01,0,.02-.26,0-.52,0-.78,0h.01c-2.84,.85-5.68,1.69-8.51,2.57-.31,.09-.58,.31-.87,.47,0,.17,0,.33-.01,.5-.73-.28-.94,.36-1.26,.75-1.55,1.9-3.43,3.41-5.47,4.73-.3,.19-.71,.75-1.14,.1h0c-.25-.25-.5-.5-.75-.75l-.05,.04,.04-.05h.01c.16-1.25,1.05-2.06,1.8-2.96,.17-.21,.28-.46,.42-.7-.24,.03-.49,.02-.71,.09-3.08,.99-6.24,1.55-9.48,1.31-3.32-.25-6.37,.31-9.32,1.98-2.38,1.35-5.09,2.02-7.82,2.46-1.06,.17-1.93-.03-2.67-.76-2.47-2.41-4.92-4.85-7.41-7.25-.4-.39-.92-.74-1.45-.89-1.54-.45-3.1-.84-4.67-1.16-.49-.1-1.07,.03-1.55,.2-2.42,.86-4.8,1.83-7.25,2.61-.49,.16-1.32-.23-1.79-.62-1.49-1.24-2.88-2.59-4.29-3.93-.34-.33-.62-.7-1.16-.52,.07-.76-.44-1.61-1.14-1.91-.87-.38-1.55-.25-2.17,.39,.17,.08,.34,.17,.51,.25h-.01c-.17-.07-.34-.16-.51-.24h0s0-.01,0-.01c-.55,.38-1.08,.81-1.66,1.13-2.14,1.17-4.3,2.3-6.45,3.44,0,0,.02,.02,.02,.03-.01,0-.03-.01-.04-.02h.01c-.95,.24-1.89,.55-2.85,.75-1.44,.31-2.88,.56-4.33,.81-.28,.05-.6,.03-.88-.03-.61-.12-.97-.34-.73-1.13,.37-1.2,.56-2.46,.91-3.67,1.03-3.49,.99-6.88-.67-10.19-.13-.26-.23-.54-.32-.82Z"/>
  </g>
</svg>