<?xml version="1.0" encoding="UTF-8"?>
<svg id="Layer_2" data-name="Layer 2" xmlns="http://www.w3.org/2000/svg" viewBox="0 0 106.59 79.21">
  <defs>
    <style>
      .cls-1 {
        fill: #808080;
      }
    </style>
  </defs>
  <g id="Layer_1-2" data-name="Layer 1">
    <path class="cls-1" d="M77.52,51.58s.48,1.19-.07,1.53c-.54,.34-.95-.63-.92-.04,.03,.59-.33,1.08-.68,.88s-.35,.13-.71,.43-.52,.3-.85,.13c-.33-.16-.1,.26-.59,.79s-1.05-.09-1.33,.57c-.27,.66-.42,1.02-1.34,.76-.92-.27-.81,.2-1.33,.85-.52,.65-.82,1.6-1.75,1.54-.94-.05-1.67,.27-2.27,.79s-.54,.85-.61,1.83c-.07,.98-.14,1.09-.52,.38-.38-.71-.55-.52-.3,.4,.25,.92-.53,.08-.91-.56-.37-.64-1.01-2.23,0-4.4,1.01-2.17,1.96-4.29,3.33-5.33s2.17-1.84,2.85-2.35c.68-.5,.4-.43-1.37-.59-1.77-.16-4.62-.98-6.96-3.03-2.35-2.05-2.28-2.58-4.04-1.8-1.76,.78-3.9,1.09-8.15,3.25-4.25,2.16-7.46,2.9-11.4,3.07-3.94,.18-5.77,.33-3.52-.36,2.25-.69,1.98-2.29,4.3-3.19,2.32-.89,2.44-2,1.28-1.84-1.16,.16,1.01-.68,2.96-1.11,1.95-.43,2.52-.79,1.04-.89-1.49-.1-1.14-.34,.39-.61s.28-1.76,2.82-1.74c2.54,.02,3.32-.18,4.21-.47,.89-.29,.42-.29-1.2-.67-1.63-.38-3.9,0-5.7,.98-1.8,.98-4.34,3.79-6.93,4.81-2.58,1.02-3.88,2.63-5.01,3.43-1.14,.8-1.76,3.14-.87,5.9,.89,2.76,4.77,10.62,4.47,17.15s-.43,8.2-.92,6.5c-.49-1.69-.06-2.57-.64-1.35-.58,1.22-.59,.48-.59-.65s-1.95-1.26-3.31-3.45c-1.37-2.18-4.57-6.34-4.57-10.41s.45-6.39,1.93-8.54c1.49-2.15,1.8-2.03,.52-4.28-1.28-2.24-1.75-2.63-1.66-4.02,.09-1.4-.61-1.11-.33-2.23,.28-1.11,.53-1.99,1.29-2.63,.76-.64-.73-1.51-1.75-2.17-1.02-.65-1.16-1.73-2.1-2.19-.94-.46-2.71-.65-1.3-1.02,1.41-.37,2.61-.91,3.14-1.2,.53-.28,2.13-.51,2.28-1.66s-.24-1.04,.36-1.86c.59-.82-.55-.88-.39-1.9,.16-1.02-.8-1.25-2.78-1.38-1.98-.13-5-.25-7.3-.94-2.29-.69-3.25-2.16-3.56-3.25-.31-1.09-.02-2.21-2.78-2.67-2.76-.47-4.83-.98-4.97-3.32-.13-2.34-2.81-2.49-3.65-3.85-.83-1.37,.5-1.17-.77-2.33-1.28-1.16,.01-1.59-1.16-2.36s-1.14-.99,.46-1.87c1.6-.88,6.79-2.12,14.67,.82,7.89,2.94,14.43,7.75,18.13,10.25,3.7,2.49,8.97,5,10.96,6.99s3.64,2.21,2.91,.62c-.73-1.59-.73-2.21,.49-2,1.22,.21-.03-1.69,1.19-1.96,1.22-.27,.09-1.23,1.45-1.51,1.36-.29-.09-.58,1.74-1.67,1.83-1.09,2.16-1.94,3.14-1.98,.98-.04,.76-.71,.6-2.05-.16-1.34-1.09-2.18-.38-3.36,.71-1.18,.16-1.43,.74-3.07,.58-1.65-.4-3.41-.4-4.83s.33-.91,.07-1.83-.88-2.06,.21-1.12c1.09,.94,2.89,3.68,5.31,5.53,2.42,1.86,2.72,2.02,4.63,3.47,1.92,1.46,4.38,4.6,5.69,6.58,1.31,1.98,2.81,3.36,3.47,4.83s1.37,1.38,3,2.51c1.63,1.13,3.3,2.47,4.96,4.9,1.66,2.44,1.95,3.24,2.94,4.01,.99,.77,1.51,1.08,1.61,2.26,.1,1.18,.15,1.08,.21,1.84,.06,.76,.45,.96,1.11,1.74,.65,.78,.55,2.12,.23,3.2-.32,1.08-1.14,1.51-1.22,2.43s-.35,1.36-.5,1.76c-.16,.4,2,.86,5.35,1.55,3.34,.69,7.55,1.92,9.71,.22,2.16-1.69,3.65-4.25,3.23-3.07-.42,1.18-1.82,3.22-3.73,4.17s-1.72,.6-1.14,1.3-1.29,.21-1.1,.89c.19,.68,.56,1.62-.86,1.14-1.43-.48-1.01-.24-.89,.77,.12,1.01-.45-.46-1.62-.67-1.17-.21-1.93,.77-3.22,.37-1.29-.4-1.14,.46,.12,.91,1.26,.45-.12,.4-.91,.09-.79-.31-2.69-.98-1.78-.1,.91,.88,.67,.59-.65,.31-1.32-.28-3.56-.73-3.94-1.41-.37-.68-.95-.67-1.02-1.91-.07-1.24-.12-.97-.98-.41-.86,.56-3.02,1.62-4.88,1.72-1.86,.1-2.6-.11-2.41,.3Z"/>
  </g>
</svg>