<?xml version="1.0" encoding="UTF-8"?>
<svg id="Layer_2" data-name="Layer 2" xmlns="http://www.w3.org/2000/svg" viewBox="0 0 115.08 40.26">
  <defs>
    <style>
      .cls-1 {
        fill: #808080;
        fill-rule: evenodd;
      }
    </style>
  </defs>
  <g id="Layer_1-2" data-name="Layer 1">
    <path class="cls-1" d="M0,15.83c2.53-.1,3.3,1.58,5.41,1.95-1.43-1.37-3.31-2.37-4.97-3.55-.04-.44-.07-1.18,.12-1.59,.21-.44,1.28-.7,1.97-.93,2.09-.71,4.24-1.58,6.31-2.16,.77-.21,1.53-.33,2.26-.58,.71-.25,1.41-.49,2.13-.69,1.48-.41,3.02-.6,4.67-.87,1.58-.26,3.21-.52,4.91-.62,3.49-.19,6.5-.7,10.3-.59,.83,.03,1.88,.09,2.82,.16,.97,.07,2.12,.38,2.86,.21,.31-.07,.79-.64,1.15-.93,1.12-.9,2.38-1.86,3.44-2.65,.77-.57,1.62-.92,2.57-1.42C47.15,.97,47.97-.01,49.42,0c1.53,.01,1.74,1.1,2.3,2.03,.64,1.06,1.06,2.16,1.47,3.36,.21,.61,.32,1.25,.63,1.76,.08,.98,.4,2.13,.52,3.21,.61,.06,1.13,.55,1.68,.54,.26,0,.75-.38,1.11-.57,1.9-.99,3.45-1.93,5.42-2.85,.69-.32,1.71-.81,2.46-.79,.46,.02,1.49,.25,2.06,.36,.95,.18,2.21,1.13,2.78,1.81,.31,.37,.49,.83,.79,1.18,1.47,1.74,3.55,3.17,4.84,5.14,.53,.8,.9,1.66,1.33,2.52-.14,.36-.5,.43-.71,.7,1.45,.48,2.86,1,4.22,1.55,1.27-.56,2.83-1.04,4.35-1.77,1.42-.69,2.93-1.49,4.47-1.62,1.37-.12,1.91,.39,2.62,1.15,1.41,1.49,2.34,3.28,3.26,5.38,.33,.74,.91,1.89-.06,2.28,.4,.12,.83,.27,1.28,.41,.4,.13,.91,.4,1.29,.37,.29-.02,.58-.36,.83-.46,.55-.21,1.19-.3,1.79-.49,2.81-.92,5.53-1.97,8.65-2.64,1.25-.27,2.65-.53,3.89-.5,.97,.03,2.2,.18,2.34,.75,.12,.46-.13,1.63-.29,2.26-.18,.74-.46,1.31-.66,1.85-.85,2.33-1.51,5.68-1.31,8.41,.1,1.33,.15,2.61,.5,3.89-.25,.05,.1,.51-.12,.67-.57,.6-1.56,.34-2.31,.25-2.71-.29-4.92-1.04-6.58-2.21-1.14-.81-2.26-1.53-3.26-2.41-.5-.44-1.04-.84-1.55-1.26-.51-.42-.92-.95-1.41-1.34-.33-.26-.82-.55-1.28-.82-.43-.26-.98-.63-1.34-.74-.62-.19-1.34-.08-1.95-.12-.66-.04-1.28-.15-1.91-.11,.1,.27,.53,.43,.55,.84,.02,.54-.41,1.35-.69,1.8-.35,.56-.7,.9-1.1,1.3-.83,.84-1.73,1.64-2.6,2.1-1.54,.8-3.19,.04-4.72-.73-.92-.46-1.84-.91-2.55-1.37-1.7-1.11-2.88-2.51-4.35-3.39-1.16,.19-2.51,.13-3.73,.24,.31,1.1,2.03,1.42,1.92,2.99-.81,.44-1.69,.68-2.57,.96-1.06,.34-2.12,.9-3.16,1.31-.54,.21-1.21,.44-1.82,.72-1.71,.8-4.04,2-6.77,1.38-1.42-.32-2.36-1.49-3.22-2.4-1.66-1.77-2.73-4.18-4.39-5.96-3.75,.18-7.72,.44-11.86,.19-4.18-.25-7.91-1.71-11.51-2.65,.19,.41,.65,.62,1.05,.89,1.17,.78,2.78,1.38,4.13,2.04,.34,1.17-.21,2.56-.15,3.92,1.57,1.03,3.78,1.65,5.38,2.68,.47,.3,1.1,.65,1.35,1.1-2.07-.66-4.49-1.39-6.48-2.25-1.88,.19-3.64-1.41-4.77-2.39-1.24-1.08-2.25-2.23-2.97-3.43-.28,1.33-1.02,2.02-1.89,2.72-.02,.02-.14,.05-.25,.16-.77,.76-.34,3.1-.13,4.24,.08,.45,.25,.89-.06,.95-.15,.03-.21-.12-.33-.35-.21-.41-.38-1.12-.47-1.6-.17-.88-.12-1.68-.34-2.37-.09-.27-.33-.46-.38-.68-.25-.99,.02-2.31,.14-3.46,.13-1.25,.33-2.41,.59-3.37-1.29-.39-2.82-.59-3.85-1.19-.56,.03-1.11,.31-1.76,.22-.4-.05-.83-.35-1.18-.54-1.38-.75-2.72-1.72-4.32-2.38-.8-.33-1.63-.61-2.46-.95-.79-.32-1.56-.71-2.36-.98-1.61-.55-3.24-1.23-4.47-2.22-.59-.47-1.13-1.07-1.71-1.55C.75,17.19-.03,16.63,0,15.83Z"/>
  </g>
</svg>