<?xml version="1.0" encoding="UTF-8"?>
<svg id="Layer_2" data-name="Layer 2" xmlns="http://www.w3.org/2000/svg" viewBox="0 0 89.75 68.58">
  <defs>
    <style>
      .cls-1 {
        fill: #808080;
      }
    </style>
  </defs>
  <g id="Layer_1-2" data-name="Layer 1">
    <path class="cls-1" d="M87.44,29.18c-2.72,2.84-5.91,.73-9.07-2.08,.66,3.4,.91,7.06,.64,10.69,1.39,.79,2.76,1.59,3.63,2.1,.38,.22,.32,.79-.09,.93-.89,.31-2.31,.78-4.12,1.34-.3,1.49-.69,2.96-1.19,4.38,1.11,1.41,2.19,2.82,2.88,3.72,.3,.39,0,.95-.49,.92-.97-.05-2.47-.15-4.35-.31-.74,1.31-1.59,2.55-2.58,3.7,.7,2,1.41,4.15,1.84,5.44,.15,.47-.31,.9-.77,.71-1.11-.46-2.96-1.24-5.28-2.3-1.1,.77-2.3,1.47-3.6,2.08-.41,2.27-.94,4.88-1.25,6.36-.1,.48-.72,.62-1.02,.23-.74-.96-1.98-2.58-3.47-4.68-1.37,.3-2.83,.52-4.37,.65-.82,1.92-1.73,3.96-2.27,5.17-.2,.44-.83,.45-1.03,0-.5-1.05-1.3-2.8-2.26-5.05-1.35-.05-2.65-.16-3.88-.32-1.36,1.77-2.91,3.71-3.82,4.84-.31,.38-.91,.23-1-.25-.23-1.2-.59-3.23-.96-5.83-1.05-.32-2.04-.68-2.99-1.09-.04,.05-.09,.1-.15,.13-1.98,1.2-4.31,2.54-5.63,3.29-.42,.24-.93-.12-.84-.6,.23-1.21,.65-3.27,1.25-5.86-1-.73-1.93-1.51-2.77-2.33-.01,0-.02,.01-.04,.01-2.25,.53-4.88,1.08-6.37,1.39-.48,.1-.85-.41-.61-.83,.6-1.1,1.66-2.97,3.07-5.3,.02-.03,.03-.05,.05-.07-.74-1.16-1.37-2.35-1.89-3.54-2.04-.27-4.19-.6-5.49-.8-.48-.07-.65-.68-.28-.99,.85-.73,2.26-1.92,4.08-3.38-.44-2.05-.59-3.98-.5-5.63-7.19,.37-15.39,6.46-18.6,2.97-4.21-4.57,5.3-9.19,5.3-9.19,0,0-9.86-3.87-6.37-8.79,3.84-5.42,12.97,4.35,17.66,3.24,3.4-.8,5.69-4.16,8.9-7.88-.84-2.27-1.69-4.67-2.2-6.13-.19-.54,.34-1.05,.87-.84,1.24,.48,3.29,1.3,5.84,2.4,1.45-1.23,3.09-2.4,5.01-3.42-.07-2-.12-3.95-.15-5.21-.01-.57,.65-.89,1.09-.53,.94,.77,2.42,2,4.26,3.6,1.99-.61,4.22-1.08,6.71-1.35,.29-.03,.57-.06,.85-.08,.66-1.71,1.34-3.4,1.77-4.48,.18-.45,.81-.48,1.03-.05,.5,.95,1.28,2.5,2.22,4.48,2.05,.14,3.92,.49,5.63,.97,1.18-1.19,2.37-2.35,3.13-3.09,.33-.32,.89-.11,.92,.35,.06,.95,.14,2.44,.2,4.33,8.04,3.8,11.77,10.25,14.31,9.14,2.42-1.06,5.88-5.16,9.78-2.05,3.9,3.11-3.37,7.5-3.37,7.5,0,0,5.47,3.84,2.22,7.24Z"/>
  </g>
</svg>