<?xml version="1.0" encoding="UTF-8"?>
<svg id="Layer_2" data-name="Layer 2" xmlns="http://www.w3.org/2000/svg" viewBox="0 0 67.05 40.17">
  <defs>
    <style>
      .cls-1 {
        fill: #808080;
      }
    </style>
  </defs>
  <g id="Layer_1-2" data-name="Layer 1">
    <path class="cls-1" d="M54.04,31.02c-.85,1.47-2.07,2.7-3.32,3.85-.72,.66-1.46,1.3-2.31,1.77-1.2,.65-2.56,.93-3.89,1.19-1.35,.26-2.7,.51-4.07,.52-2.49,.02-5.1-.74-7.39,.23,1.08,.08,2.32,.62,3.27,1.48-.34-.05-.68-.11-1.03-.16-.54-.09-1.09-.17-1.64-.18-.82-.02-1.62,.13-2.43,.24-3.65,.48-7.4,.14-10.9-.99-2.84-.84-5.44-2.32-7.72-4.14-2.28-1.81-4.26-3.96-6.23-6.1-.54-.59-1.09-1.18-1.63-1.77-.26-.29-.53-.57-.77-.88-.77-.95-1.34-2.05-2.04-3.06-.78-.69-1.42-1.47-1.73-2.38s-.26-1.95,.21-2.78c.05-.09,.11-.18,.21-.21,.09-.03,.18,0,.27,.03,.35,.12,.71,.24,1.06,.36,.09,.03,.19,.06,.28,.02,.14-.06,.16-.24,.16-.4,0-.48-.06-.97-.1-1.4,.18-.6,.75-1,1.34-1.18s1.23-.18,2.01-.19c1.48-.44,2.66-1.54,3.73-2.65s2.13-2.29,3.46-2.98c.67-.33,1.1-.98,1.55-1.58,.7-.94,1.52-1.78,2.43-2.52,3.42-2.79,7.89-3.85,12.23-4.79,4.84-.65,9.74-.34,14.61-.01,4.72,.31,9.68,.72,13.59,3.37,.99,.67,1.9,1.49,2.53,2.51,.63,1.02,.95,2.26,.73,3.43-.27,1.45-1.31,2.62-2.13,3.85-.74,1.11-1.33,2.32-1.71,3.73,1.91-.77,3.81-1.57,5.68-2.42,.98-.44,2.18-.88,3.06-.27,.42,.29,.66,.76,.86,1.22,.89,2.05,1.18,4.54,.01,6.45-.28,.45-.63,.86-.98,1.26-.85,.96-1.73,1.9-2.78,2.63-1.05,.73-2.29,1.24-3.56,1.24-.24,0-.48-.02-.69-.13-.26-.14-.42-.41-.59-.65-.65-.96-1.5-1.79-2.48-2.4,.44,2.33,.02,4.79-1.16,6.83Z"/>
  </g>
</svg>