<?xml version="1.0" encoding="UTF-8"?>
<svg id="Layer_2" data-name="Layer 2" xmlns="http://www.w3.org/2000/svg" viewBox="0 0 106.27 53.4">
  <defs>
    <style>
      .cls-1 {
        fill: #808080;
      }
    </style>
  </defs>
  <g id="Layer_1-2" data-name="Layer 1">
    <path class="cls-1" d="M90.09,38.73c-4.67,3.75-10.99,4.52-16.6,6.64-3.15,1.19-6.12,2.84-9.26,4.06-5.89,2.29-12.37,3.04-18.63,2.16-1.5,.55-2.77,1.18-4.13,1.54-1.36,.35-2.84,.41-4.15-.1-.27-.11-.58-.35-.47-.61,.06-.16,.25-.23,.42-.28l5.07-1.55c-2.89-.77-5.77-1.62-8.46-2.9-2.7-1.28-5.22-3.02-7.09-5.35-.95-.5-1.68-.63-2.37-.84-1.85-.56-3.49-1.79-4.55-3.41-.15-.24-.3-.55-.14-.78,.08-.11,.21-.18,.3-.28,.28-.3,.12-.78-.06-1.15s-.38-.81-.15-1.16c.97,.36,1.92,.79,2.84,1.27-2.85-2.87-5.14-5.87-6.89-9.15-.65-1.21-1.23-2.46-2.09-3.52-1.19-1.46-2.88-2.49-3.85-4.1C6.23,16.33,2.71,13.58,.36,9.9c-.26-.4-.5-.91-.27-1.32,.21-.38,.72-.47,1.15-.44s.88,.14,1.29,0,.71-.69,.43-1.02c1.12-.08,2.25,.1,3.29,.52l-.09-1.34c1.08,.34,2.15,.69,3.22,1.06,.13-.24,.27-.4,.31-.56s-.02-.32-.03-.49c-.04-.42,.12-.85,.43-1.14,.03,.17,.26,.23,.41,.15s.23-.24,.31-.39c.17-.34,.33-.69,.5-1.03,.14-.28,.29-.58,.54-.76s.66-.21,.86,.03c.21-.38,.41-.77,.62-1.15,.1-.19,.22-.4,.42-.5s.49-.03,.54,.18c.39-.49,.78-.97,1.17-1.46,.07-.08,.14-.17,.24-.21,.4-.17,.66,.47,1.07,.59,1.42,1.39,1.53,4,1.7,6.4,.11,1.46,.26,2.91,.47,4.35,.25,1.7,.57,3.41,1.25,4.99s1.73,3.04,3.19,3.94c1.75-.17,3.18,1.36,4.56,2.51,1.7,1.41,3.75,2.4,5.92,2.84,1.82,.37,3.71,.37,5.52,.77,2.2,.49,4.41,1.57,6.59,1.04-1.03-1.1-1.93-1.86-2.91-2.5,2.05-1.07,4.4-1.43,6.71-1.51,1.09-.04,2.2-.02,3.26,.24,1.27,.32,2.44,.98,3.73,1.24,1.73,.34,3.5-.08,5.22-.47,6.31-1.43,12.72-2.44,19.17-3.02,1.49-.13,3-.24,4.45,.09,4.5-.39,9.13,.08,13.6,1.18,1.63,.4,3.28,.91,4.96,2.11-.68,.99-1.46,1.91-2.32,2.74,1.05-.05,2.1-.1,3.15-.16,.55-.03,1.31,.13,1.29,.68,0,.16-.09,.32-.17,.46-1.38,2.26-3.92,3.46-6.1,4.96-1.57,1.08-2.99,2.37-4.59,3.4s-3.44,1.83-5.32,1.81Z"/>
  </g>
</svg>