<?xml version="1.0" encoding="UTF-8"?>
<svg id="Layer_2" data-name="Layer 2" xmlns="http://www.w3.org/2000/svg" viewBox="0 0 93.35 26.24">
  <defs>
    <style>
      .cls-1 {
        fill: #808080;
        fill-rule: evenodd;
      }
    </style>
  </defs>
  <g id="Layer_1-2" data-name="Layer 1">
    <path class="cls-1" d="M0,3.33S-.12-.11,3.01,0c3.13,.12,9.73,1.37,13.95,3.65,4.22,2.28,23.82,11.71,43.34,8.23,0,0,25.27-3.24,33.04,6.53,0,0-.11,.51-2.18-.08-2.07-.59-6.74-1.63-10.88-1.01-4.14,.62-8.84,3.64-10.26,3.38-1.42-.26-1.41-.84-2.13-.4-.72,.45,.03,1.42-1.69,1.86-1.71,.44-3.12-.82-4.32-.02-1.2,.8-3.34,3.73-4.82,3.41-1.48-.32-4.9-2.23-5.69-2.1s-.48,2.56-1.96,2.77c-1.48,.22-4.24-2.08-6.06-1.96-1.82,.11-2.15,1.34-3.52,1.59-1.37,.25-4.44-1.97-5.86-2.48-1.42-.51-2.79-.26-3.82,.38-1.03,.65-5.66-3.42-8.02-4.43C19.79,18.32,3.33,12.25,0,3.33H0Z"/>
  </g>
</svg>