<?xml version="1.0" encoding="UTF-8"?>
<svg id="Layer_2" data-name="Layer 2" xmlns="http://www.w3.org/2000/svg" viewBox="0 0 121.88 47.12">
  <defs>
    <style>
      .cls-1 {
        fill: #808080;
      }
    </style>
  </defs>
  <g id="Layer_1-2" data-name="Layer 1">
    <path class="cls-1" d="M38.28,.62c7.25-.75,14.67-1.13,21.72,.73,3.44-.36,6.81-.28,10.08,.41,3.27,.69,6.45,2.03,8.97,4.23-.5,.59-1.17,1.02-1.91,1.25,.2,.44,.35,.91,.43,1.38,5.27,1.55,10.16,4.46,15.37,6.55,1.54,.62,3.13,1.17,4.79,1.36,3.94,.44,7.78-1.23,11.41-2.81,3.64-1.58,7.54-3.16,11.45-2.52,.56,.09,1.23,.34,1.3,.91-.28,2.34-.8,4.91-2.32,6.88-1.23,1.58-2.99,2.64-4.59,3.84-1.6,1.21-3.14,2.72-3.55,4.68-.62,2.9,1.38,5.64,2.28,8.47,1.19,3.72,.41,7.95-1.84,11.15-2.08-1.13-3.52-2.89-4.86-4.64-3.25-4.25-6.2-8.73-9.14-13.21-1.15-.94-2.24-1.79-3.51-2.26-1.42-.53-2.97-.55-4.48-.57-1.81-.02-3.69-.03-5.36,.68,1.23,.97,2.39,2.29,3.25,3.78,.13,.23,.26,.47,.26,.74,0,.52-.47,.9-.84,1.27-1.3,1.32-1.59,3.3-1.84,5.13-.26,1.83-.63,3.82-2.03,5.03-4.08-2.42-7.75-5.17-11.11-8.27-5.26,1.72-10.79,2.3-16.24,2.87,1.35,.79,3.16,1.48,4.05,2.99,.34,.57,.53,1.24,1.03,1.67,.28,.24,.67,.61,.42,.89-.12,.13-.32,.13-.5,.11-5.26-.46-10.44-1.93-15.17-4.29-8.32-.28-16.6-2.09-24.21-5.44-2.42-.68-4.54-2.18-6.47-3.77-1.92-1.58-3.78-3.32-6.03-4.39-2.86-1.7-5.32-3.82-7.24-6.34-.7-.91-1.33-1.89-1.65-2.99-.32-1.1-.29-2.34,.29-3.33-.46-.7-.32-1.36,.03-1.77s.87-.65,1.38-.87c4.8-1.99,10.03-2.81,14.84-4.78C23.56,2.6,30.94,1.37,38.28,.62Z"/>
  </g>
</svg>