<?xml version="1.0" encoding="UTF-8"?>
<svg id="Layer_2" data-name="Layer 2" xmlns="http://www.w3.org/2000/svg" viewBox="0 0 100.5 40.24">
  <defs>
    <style>
      .cls-1 {
        fill: #808080;
      }
    </style>
  </defs>
  <g id="Layer_1-2" data-name="Layer 1">
    <path class="cls-1" d="M88.24,11.79c-.07-.57-.34-1.08-.78-1.44-.44-.36-.98-.52-1.53-.46-.55,.06-1.04,.35-1.38,.79-.34,.45-.49,1.01-.43,1.58,.13,1.09,1.03,1.91,2.07,1.91,.08,0,.16,0,.23-.01,.55-.06,1.04-.35,1.38-.79,.34-.45,.49-1.01,.43-1.58Zm-.51,1.51c-.32,.42-.79,.69-1.31,.75-.64,.07-1.24-.18-1.66-.63-.1-.11-.17-.25-.18-.4h0c-.13-1.15,.66-2.18,1.76-2.31,.54-.06,1.05,.1,1.45,.41,.16,.13,.27,.31,.31,.51,.01,.06,.02,.11,.03,.17,.06,.54-.08,1.07-.41,1.5Zm11.97,1.45s.91-.67,.8-1.66c-.02-.22-.07-.44-.15-.65-.09-.22-.22-.37-.4-.52,0,0,0,0-.01,0-.2-.17-.41-.33-.62-.5-.05-.04-.1-.08-.15-.12-.05-.04-.11-.09-.16-.13-1.01-.79-2.07-1.53-3.14-2.23-.12-.08-.24-.15-.36-.23-.12-.08-.25-.16-.37-.24-.13-.08-.26-.16-.39-.24-.13-.08-.27-.16-.4-.24-.14-.08-.28-.17-.41-.25-.14-.08-.28-.17-.43-.25-.15-.08-.29-.17-.44-.25-.15-.09-.3-.17-.45-.25-.16-.09-.31-.17-.47-.26-.16-.09-.32-.17-.48-.26-.16-.09-.33-.17-.49-.26-.17-.09-.34-.17-.51-.26-.17-.09-.35-.17-.52-.26-.18-.09-.36-.17-.53-.26-.18-.09-.36-.17-.55-.26-.19-.09-.37-.17-.56-.26-.19-.09-.38-.17-.57-.26-.19-.09-.39-.17-.58-.25-.2-.08-.4-.17-.6-.25-.2-.08-.41-.17-.61-.25-.21-.08-.41-.16-.62-.25-.21-.08-.42-.16-.63-.24-.21-.08-.43-.16-.65-.24-.22-.08-.44-.16-.66-.23-.22-.08-.45-.15-.67-.23-.23-.08-.45-.15-.68-.22-.23-.07-.46-.15-.69-.22-.23-.07-.47-.14-.7-.21-.24-.07-.48-.14-.72-.2-.24-.07-.48-.13-.73-.2-.25-.06-.49-.13-.74-.19-.25-.06-.5-.12-.75-.18-.25-.06-.51-.12-.76-.17-.18-.04-.36-.07-.53-.11-14.51-3.02-27.39,1.51-30.41,2.77-3.02,1.26-2.92,1.59-4.04,1.62-1.12,.03-5.59-.17-8.5,1.26-2.91,1.43-7.38,5.15-9,11.91,0,0-2.91,1.87-6.24,.67-3.33-1.2-12.92-3.89-18.4-2.49,0,0,4.73,7.8,9.26,11.47,0,0,1.4,11.1,1.71,11.97,.31,.87,8.89-11.24,11.19-12.36,2.29-1.12,9.09-1.59,10.46-1.59s-2.85,.62-2.4,2.07c.44,1.46,.9,4.46,1.05,4.77,.15,.31,1.59,.27,2.54-.25,.94-.52,3.57,.63,6.77-1.95,3.21-2.58,8.31-2.12,9.56-2.06,1.26,.06,8.79-.01,10.5-.49,1.71-.48-2.77,2.18-3.16,5.84,0,0,7.52,.14,13.87-6.85,0,0,9.54-2.49,15.32-4.7,5.59-2.13,9.83-3.62,11.75-5.66,.14-.15,.29-.28,.45-.4,.67-.51,2.33-1.86,.84-1.83Zm-11.79-1.32c-.36,.47-.88,.77-1.46,.84-.08,0-.16,.01-.25,.01-1.11,0-2.05-.86-2.18-2-.07-.6,.09-1.19,.45-1.66,.36-.47,.88-.77,1.46-.84,.08,0,.17-.01,.25-.01,.5,0,.97,.17,1.36,.49,.46,.38,.75,.91,.82,1.51,.07,.6-.09,1.19-.45,1.66Zm-.46-1.82c.21,.52-.14,1.16-.8,1.43-.65,.27-1.36,.06-1.57-.46s.14-1.16,.8-1.43c.65-.27,1.36-.06,1.57,.46Z"/>
  </g>
</svg>