<?xml version="1.0" encoding="UTF-8"?>
<svg id="Layer_2" data-name="Layer 2" xmlns="http://www.w3.org/2000/svg" viewBox="0 0 113.17 47.99">
  <defs>
    <style>
      .cls-1 {
        fill: #808080;
        fill-rule: evenodd;
      }
    </style>
  </defs>
  <g id="Layer_1-2" data-name="Layer 1">
    <path class="cls-1" d="M95.19,38.08c-1.2,.52-2.33,1.21-3.97,1.48-.75,.12-1.56,.19-2.33,.39-.32,.08-.68,.23-1.05,.31-.57,.13-1.11,.36-1.52,.08-1.46,.69-3.18,1.13-5.14,1.32-.3,.9-.78,1.67-1.36,2.53-.62,.92-1.04,1.92-2.26,2.14-.21-.81,.82-1.96,.12-2.84-1.03,.79-2.05,1.93-3.23,2.84-.83,.64-1.85,1.21-3.11,1.52-.35,.08-.85,.31-1.13-.08,.21-.23,.4-.52,.62-.82,.19-.26,.44-.6,.51-.94,.24-1.14-.04-2.38,.55-3.23-.14-.33-.45-.48-.35-1.05-.35-.14-.63-.36-.86-.62-5.95-.44-11.68-.81-16.69-2.14-.83-.22-1.63-.47-2.41-.74-.77-.27-1.53-.64-2.3-.82-.71-.16-1.65,.17-2.33,.19-1.61,1.32-2.62,2.89-4.36,4.08-.89,.61-1.85,.95-3.03,1.17-1.12,.2-2.38,.26-3.42,.78-.17,.08-.32,.3-.58,.27-.31-.47,.17-.99,.43-1.28,.45-.51,1.44-.82,1.83-1.36,.53-.76,.59-1.56,1.01-2.45-.51-.7,.01-1.61-.16-2.37-.06-.26-.46-.4-.51-.62-.05-.21,.09-.43,.08-.62-.03-.39-.46-.71-.2-1.09-.74,.14-1.57,.08-2.26,.23-.15,.03-.22,.12-.35,.16-.56-.07-.59-.66-.62-1.24-.61-.45-1.52,.26-1.98,.19-.55-.08-.57-1-.93-1.36-.71-.44-1.67-.15-2.33,.08-.27-.51-.35-1.14-.89-1.36-.3-.12-.77-.13-1.09-.08-.22,.04-.42,.29-.66,.27-.38-.02-.85-.88-1.21-1.05-.45-.21-1.02-.21-1.36-.04-.24,.12-.46,.46-.66,.47-.53,.02-.73-1.06-1.17-1.13-.74,.02-1.32-.06-1.83,.15-.25,.11-.38,.38-.62,.39-.35,.01-.89-.61-1.17-.89-.34-.34-.75-.86-1.05-.97-.14-.05-.44-.06-.55-.04-.28,.05-.28,.37-.58,.39-.22,.02-.36-.27-.55-.31-.84-.2-1.81,.72-2.22,1.21-1.01,1.22-1.71,2.84-2.49,4.4-.77,1.53-1.55,3.04-2.45,4.39-.93,1.39-2.04,2.61-3.19,3.66-1.18,1.08-2.66,2.1-4.55,2.29-.14-.18-.02-.37-.12-.58,.69-.76,1.43-1.48,2.02-2.33,.51-.97,.9-1.99,1.28-3.02,.08-.29,.18-.58,.32-.87,.32-.87,.65-1.73,1.05-2.57,.32-.66,.81-1.26,1.09-1.95,.33-.82,.28-1.68,.39-2.61,.11-.9,.67-1.54,1.01-2.3-.56-.44-.66-1.69-.19-2.33-.53-1.04,.41-1.92,.23-2.96-.05-.27-.38-.57-.54-.86-.37-.62-.52-1.33-.66-2.14-.07-.4-.06-.84-.16-1.25-.21-.86-1.11-1.59-1.56-2.41-.23-.42-.43-.89-.66-1.32-.12-.22-.26-.41-.35-.62-.11-.24-.09-.54-.2-.78-.1-.25-.39-.34-.54-.54-.25-.33-.26-.82-.43-1.21-.45-.99-1.64-1.87-2.18-2.88-.21-.4-.32-.8-.54-1.13-.2-.31-.64-.57-.54-1.01,.25-.18,.49,.1,.66,.19,1.46,.86,3.09,1.56,4.47,2.57,1.5,1.09,2.81,2.38,4.12,3.93,1.16,1.36,2.2,3.17,3.15,4.9,.67,1.22,1.45,2.58,2.49,3.58,.34,.32,.8,.74,1.13,.85,.32,.11,.86,.13,1.36,.23,.4,.08,1.08,.27,1.4,.2,.36-.08,.48-.55,.7-.86,.23,0,.31,.22,.54,.31,.49,.2,1.26,.12,1.79,.04,.18-.22,.13-.55,.39-.62,.35-.11,.69,.22,1.13,.35,.48,.14,.94,.06,1.4,.12,.14-.07,.1-.13,.31-.08,.26-.2,.36-.54,.55-.82,.75,.09,1.47,.49,2.22,.16,.49-.22,.56-.94,.93-1.28,.72,.14,1.17,.54,2.02,.54,.21-.4,.05-1,.43-1.17,.36-.16,1.56,.22,2.06,.23,.29,0,.51-.06,.78-.04,.21-.35,.09-1.09,.12-1.4,1.24-.17,2.23,.23,3.39,.27,.16-.45-.13-.94,0-1.36,1.01-.33,2.06,.22,2.84,.51,.22-.45,.12-1.23,.23-1.79,1.29-.09,2.63,.46,3.89,.27-.46-.35-1.12-.49-1.48-.93,.72-.28,1.69-.3,1.67-1.32,.59-.27,.66-.73,.78-1.52,.05-.33,.15-.68,.16-.89,.01-.54-.31-1.24-.54-1.79-.48-1.13-1.03-2.04-1.75-2.92-.38-.46-.83-.79-1.05-1.21,.21,.05,.29,.02,.47-.04,1.13,.55,2.34,.63,3.42,1.01,1.05,.37,2.03,.9,2.96,1.44,2.09,1.23,4.03,2.53,5.6,4.28,.28-.07,.52-.18,.81-.23,.03-.41,.26-.63,.31-1.01,1.22-.79,2.73-1.2,4.43-1.52,.72-.14,1.43-.29,2.18-.54,.18-.06,.36-.23,.54-.27,.76-.16,1.5,.04,2.06-.2,.18-.08,.4-.21,.59-.35,.13-.11,.27-.36,.46-.43,.27-.09,.66-.05,.94-.08,.29-.03,.61-.03,.85-.12,.22-.08,.41-.37,.62-.43,.16-.04,.35,.03,.51,0,.25-.05,.44-.29,.66-.35,.3-.08,.54,.07,.74-.16,.15-.08,.02-.44,.19-.5,.66,.29,1.18-.07,1.28-.66,.38,.14,.73,.21,.93-.16,.07-.31-.23-.44-.08-.7,.31-.15,.44,.2,.62,.31,.19-.14,.3-.27,.31-.47,.01-.34-.39-.44-.39-.78,.43-.05,1.03,.07,1.05-.47,.01-.37-.33-.33-.35-.62,.22-.06,.37,.02,.58-.08,.17-.08,.26-.22,.32-.39,0-.03,.01-.06,.02-.08-.02-.02-.03-.05-.05-.07-.13-.19-.09-.4,.01-.56-.04-.14-.11-.28-.19-.37,.13-.12,.43-.06,.55-.2-.05-.28-.14-.47-.08-.74h.12c.15,.28,.42,.44,.5,.78,1.96,1.98,3.08,4.57,4.28,7.35,.39,.91,.75,1.93,.78,3.07,5.71,1.31,11.04,2.92,15.91,5.1,.8,.36,1.42,.84,2.33,1.05,1.26,.68,2.67,1.29,4.05,1.9,.56,.25,1.12,.57,1.71,.66,.98,.62,2.28,.77,3.27,1.36,.34,.2,.56,.54,.97,.58-.09,.13-.4-.17-.62-.16,.68,.43,1.9,.8,2.84,1.13,.36,.13,.77,.18,1.01,.31,.23,.12,.76,.58,.82,.86,.04,.21-.06,.41-.08,.62-.31,.37-.8,.27-1.24,.47-.4,.17-.78,.59-1.17,.86-1.19,.8-2.73,1.18-3.89,2.06,1.33-.03,2.49,.1,3.77,.12,.6-.15,1.57-.48,2.41-.39,.14,.66,.13,1.33-.2,1.71-.18,.21-.63,.38-.93,.58-.89,.6-1.79,1.21-2.68,1.83-.66,.46-1.37,.71-2.1,.93-.8,.24-1.63,.27-2.49,.5-1.49,.4-2.89,1.13-4.04,1.94-.53,.38-.97,.84-1.55,1.17-1.19,.66-2.44,1.1-3.77,1.67Z"/>
  </g>
</svg>