<?xml version="1.0" encoding="UTF-8"?>
<svg id="Layer_2" data-name="Layer 2" xmlns="http://www.w3.org/2000/svg" viewBox="0 0 40.93 40.31">
  <defs>
    <style>
      .cls-1 {
        fill: #808080;
        fill-rule: evenodd;
      }
    </style>
  </defs>
  <g id="Layer_1-2" data-name="Layer 1">
    <path class="cls-1" d="M28.68,0c1.62,.03,2.01,.07,2.88,.3,2.7,.71,4.11,2.01,4.52,4.18,.18,.94,.38,1.25,1.32,2.06,1.97,1.68,2.29,2.47,1.91,4.71-.22,1.27-.21,1.29,.62,2.67,.62,1.02,1,2.06,1,2.7s-.27,1.41-.77,2.16l-.49,.73,.13,1.51c.22,2.75,.07,3.26-1.36,4.72-.51,.52-1,1.11-1.09,1.29-.1,.19-.24,.87-.32,1.51-.08,.65-.19,1.31-.24,1.48-.32,1.08-1.08,1.87-2.55,2.61-1.15,.58-1.52,.92-2.09,1.88-.5,.85-1.43,1.87-1.96,2.14-.21,.11-.9,.27-1.54,.35-.65,.09-1.31,.24-1.49,.33s-.77,.56-1.32,1.05c-1.15,1.01-1.56,1.25-2.4,1.4-.5,.09-.75,.07-1.51-.1-1.31-.31-1.82-.28-2.88,.16-1.58,.67-2.96,.6-4.19-.19-1.55-1-1.54-1-3.33-1.11-1.8-.11-2.11-.2-3.2-.94-.76-.52-2.05-1.81-2.79-2.78-1.71-2.27-2.53-5.68-2.41-10.01,.03-1.09,.14-2.42,.23-2.96,.08-.54,.15-.99,.14-1-.02-.01-.29-.1-.6-.21-1.29-.42-2.16-1.06-2.55-1.9C0,18.08-.09,17,.1,16.06c.29-1.46,1.73-3.92,3.6-6.16,.53-.64,.64-.82,.64-1.16,0-.69,.27-1.4,.7-1.81,.45-.44,1.19-.8,1.62-.81,.25,0,.44-.21,1.36-1.44C10.78,.93,13.21-.55,15.13,.33c.23,.1,.82,.6,1.31,1.11l.9,.92,1-.42c1.72-.71,4.86-1.48,7.39-1.81,.68-.09,1.76-.14,2.95-.11Z"/>
  </g>
</svg>