<?xml version="1.0" encoding="UTF-8"?>
<svg id="Layer_2" data-name="Layer 2" xmlns="http://www.w3.org/2000/svg" viewBox="0 0 43.91 35.69">
  <defs>
    <style>
      .cls-1 {
        fill: #808080;
        fill-rule: evenodd;
      }
    </style>
  </defs>
  <g id="Layer_1-2" data-name="Layer 1">
    <path class="cls-1" d="M2.08,22.27s-3.19-2.48-1.68-7.78C1.91,9.18,4.94,4.88,10.43,3.62c0,0,3.62-.86,5.88-.56,0,0,2.58-2.47,3.96-2.82,1.38-.36,3.45-.36,3.69,.31,.24,.66-.6,.74-.78,1.17-.18,.43-.87,3.05,1.48,4.68,2.36,1.62,5.71,5.05,7.74,8.15,2.03,3.1,3.67,7.33,4.12,8.43,.45,1.1,.12,4.14,.47,4.62,.35,.48,2.54,1.39,3.46,2.19,.92,.81,2.65,2.27,3.02,3.81,.38,1.54,.5,1.67,.36,1.92-.13,.26-.48,.27-.85-.23-.37-.49-2.92-2.01-4.18-1.78-1.26,.23-1.44-.12-1.81-.02s-1.92,.17-2.56,.12c0,0-1.02,.33-1.56,.64-.55,.31-.61,.19-.74,.51-.14,.33-.21,.76-.47,.9-.25,.14-.63-.71-.43-1.54,.2-.83,.15-1.84,1.45-3.36,1.31-1.53,1.87-2.07,2.29-2.3,.41-.23,.15-1.04,.14-1.15s-.85-4.72-3.2-6.39c0,0-3.67-4.41-7.43-4.73-3.75-.32-6.98-.71-9.2-.3,0,0,.99,.91,2.19,.95s1.94,.17,2.1,.36c.16,.19,.48,.71-.7,1.45-1.18,.73-1.84,1.15-2.75,.98s-3.8,.07-5.87-2.17c0,0-.8,.26-1.06,.6-.26,.34-.3,1.37-.87,1.78-.57,.4-1.07,.97-1.39,1.61-.32,.64-1.38,1.54-1.53,2.02-.15,.48-.37,1.61-.93,2.05,0,0-.75,1.13-1.54,.72,0,0-.35-.21-.34-.72,0,0-.57-.2-.58-.49,0-.29,.5-2.46,.06-2.78h0Z"/>
  </g>
</svg>