<?xml version="1.0" encoding="UTF-8"?>
<svg id="Layer_2" data-name="Layer 2" xmlns="http://www.w3.org/2000/svg" viewBox="0 0 46.38 42.93">
  <defs>
    <style>
      .cls-1 {
        fill: #808080;
        fill-rule: evenodd;
      }
    </style>
  </defs>
  <g id="Layer_1-2" data-name="Layer 1">
    <path class="cls-1" d="M45.58,.19c.57,.26,.72,.47,.77,1.17,.05,.51,0,.75-.2,1.42-.33,1.04-.49,1.35-1.09,2.09-.27,.33-.49,.63-.49,.65,0,.03,.12,.19,.28,.37,.16,.17,.33,.48,.38,.68,.32,1.11-.08,1.91-1.49,3.13-.94,.8-1.1,1.05-.98,1.53,.24,1.02,.03,2.39-.54,3.51-.28,.54-1.15,1.49-2.05,2.23-.43,.35-.67,.62-.67,.75,0,.11,.13,.4,.29,.66,.46,.74,.61,1.48,.54,2.66-.07,1.27-.27,2.24-.75,3.68-1.23,3.64-3.13,5.83-6.56,7.54-1.73,.86-3.04,1.07-6.27,.98-2.05-.06-2.07-.05-2.22,.15-1.1,1.56-1.81,2.42-2.81,3.42-2.49,2.48-5,4.21-7.58,5.24-2.56,1.01-5.72,1.17-7.7,.36-1.29-.53-2.96-1.92-4.22-3.52-.36-.46-.86-.99-1.1-1.2-.31-.25-.55-.58-.79-1.07-.32-.65-.35-.79-.35-1.48,0-.95,.13-1.39,1.01-3.21,.39-.82,.72-1.66,.8-2.05,.33-1.62,.28-3.34-.21-5.63-.35-1.7-.41-3.66-.13-5.12,.3-1.55,.55-2.49,.98-3.52,.78-1.88,1.79-3.37,3.12-4.63,2.4-2.26,4.5-2.97,8.63-2.93,1.72,0,1.81,0,2.29-.22,.29-.13,.88-.54,1.32-.89,1.31-1.03,2.67-1.62,4.4-1.91,.98-.17,1.25-.16,3.7,0,1.07,.08,1.36-.03,2.52-.97,1.51-1.21,2.47-1.69,3.97-2.01,1.02-.22,2.92-.22,3.82,0,.37,.09,.91,.18,1.19,.21,.52,.05,.54,.04,1.24-.5,.96-.73,2.05-1.26,3.1-1.54,1.16-.3,3.24-.32,3.83-.05Z"/>
  </g>
</svg>