<?xml version="1.0" encoding="UTF-8"?>
<svg id="Layer_2" data-name="Layer 2" xmlns="http://www.w3.org/2000/svg" viewBox="0 0 116.47 64.93">
  <defs>
    <style>
      .cls-1 {
        fill: #808080;
        fill-rule: evenodd;
      }
    </style>
  </defs>
  <g id="Layer_1-2" data-name="Layer 1">
    <path class="cls-1" d="M100.11,64.92c-.23-.03-.46-.17-.73-.29-1.53-.66-2.43-1.77-3.22-3.34-.62-1.23-1.2-2.52-1.67-3.91-.49-1.46-.71-3.01-.98-4.6-.29-1.71-.15-3.46-.29-5.26-.03-.42-.24-.92-.41-1.43-.12-.37-.27-.93-.49-1.14-.3-.29-1.06-.57-1.59-.73-1.69-.53-3.57-1.13-5.67-1.18,.82,.73,2.45,1.82,2.77,3.22,.39,1.68-1.66,2.18-2.32,3.18-.76,1.15-.79,2.95-1.75,3.71-.58,.46-1.15,.49-2.08,.37-2.28-.32-4.08-1.63-5.46-2.81-1.38-1.18-2.18-2.41-3.22-3.87-.42-.59-.9-1.17-1.43-1.63-1.23-.46-3.6-.29-5.38-.29-.76,0-1.5,0-2.24-.04-1.38-.06-2.68-.15-4.04,0,.76,.88,1.99,2.13,2.73,3.42,.27,.46,.62,.89,.73,1.35,.08,.3,.08,.61,.16,.94,.18,.74,.61,2.1,.25,2.93-.5,1.14-3.57,1.96-5.1,1.51-.53-.38-1.16-.53-1.71-.82-1.56-.81-3.15-1.95-4.32-3.22-1.59-1.72-3.33-3.39-4.36-5.67-1.87,.04-2.86,.97-4.61,1.14,.56,.95-.38,1.36-1.1,1.83-.48,.32-.93,.62-1.35,.94-.74,.57-.93,1.02-1.55,1.35-.3,.16-.96,.15-.86,.49-1.66-.1-3.23,.05-4.4-.61-.35-.2-.77-.55-1.14-.9-.38-.36-.84-.64-1.1-.9-.52-.52-.85-1.22-1.39-1.71-.54,.13-1.47,.08-2,.08,.06,.65,.81,1.12,1.14,1.71,.18,.32,.55,1.21,.24,1.63-.37,.52-2.32,.15-2.81,0-.85-.25-1.59-.75-2.2-1.1-1.52-.87-2.52-2.02-3.51-3.06-2.34-.54-4.37-1.84-7.22-2.04-.92-.06-1.9-.23-2.85-.2-.67,.02-1.24,.13-1.83,.08-1.58-.12-3.25-.59-4.65-1.06-1.91-.63-3.27-1.85-4.56-3.02,.2-.33-.24-1.02-.04-1.59-.46-.22-.56-.44-.53-.86,.02-.37,.35-.7,.57-1.06,1.22-2.01,2.56-3.72,4.56-5.05,.32-.21,.71-.37,.98-.61,.26-.23,.44-.59,.65-.86,1.56-1.9,3.49-3.52,5.95-4.56,.71-.3,1.41-.63,2.12-.9,1.12-.41,2.15-.84,3.14-1.39,.16-.09,.29-.24,.45-.33,.17-.09,.36-.12,.53-.2,1.94-1.01,3.33-2.67,5.14-3.87,1.21-.8,2.38-1.64,3.71-2.28,.68-.33,1.41-.6,2.12-.9,1.75-.73,3.5-1.49,5.67-1.83,.45-.07,.88-.03,1.39-.08,.65-.06,1.38-.26,2.16-.37,1.48-.2,3.02-.25,4.77-.25,.85,0,1.78,.2,2.4,.08,.46-.09,1.16-.9,1.55-1.39,.5-.64,.82-1.15,1.14-1.75,.69-1.29,1.53-2.49,2.2-3.59,.68-1.11,1.41-2.36,2.24-3.55,.79-1.11,1.91-2.3,3.02-2.77,.4-.17,1.09,.49,1.51,.81,1.22,.97,2.3,2.21,3.42,3.18,3.17,2.74,6.99,4.8,11.21,6.36,1.66,.61,3.18,1.14,4.69,1.92,.45,.23,.88,.62,1.43,.65,.18,.31,.56,.45,.86,.61,.91,.5,1.89,1.02,2.77,1.63,1.1,.77,2.13,1.75,3.18,2.65,.98,.84,1.93,1.92,2.73,3.14,.36,.55,.89,1.05,1.3,1.63,.31,.44,1.12,1.32,1.02,1.87-.08,.47-.87,.6-1.47,.53-1.02-.11-1.87-1.04-3.38-.73-.64,.13-.89,.57-1.51,.82,1.22,.95,2.37,1.94,3.42,3.06,1.05,1.12,1.8,2.49,2.85,3.63,.77,.4,1.34,1.07,2.12,1.55,.43,.26,.98,.43,1.51,.69,.47,.24,1,.64,1.47,.69,.28,.03,.67-.07,1.02-.08,.37,0,.75,.03,1.1,0,.62-.05,1.29-.35,2-.57,1.94-.62,3.69-1.34,5.71-1.87,1.35-.36,2.9-.48,4.36-.69,1.43-.21,3.39-.36,4.81,.08,.52,.16,.89,.48,1.55,.69,.78,.96,.06,2.01-.45,3.02-.33,.65-.62,1.31-.94,1.79-1.15,1.75-2.48,2.96-3.83,4.44-.45,.49-.79,1.04-1.26,1.47-.3,.27-.61,.55-.9,.86-.34,.37-.85,.73-1.26,1.1-.54,.47-1.07,.8-1.47,1.51-1.58,2.86-1.31,7.34-2.36,10.8,.05,.15,.11-.23,.16-.08-.15,1.02-.48,2-.81,2.98-.33,.96-.78,1.84-1.1,2.69-.2,.51-.18,1.03-.45,1.47-.21,.35-.63,.7-1.34,.61Z"/>
  </g>
</svg>