<?xml version="1.0" encoding="UTF-8"?>
<svg id="Layer_2" data-name="Layer 2" xmlns="http://www.w3.org/2000/svg" viewBox="0 0 157.06 49.75">
  <defs>
    <style>
      .cls-1 {
        fill: #808080;
      }
    </style>
  </defs>
  <g id="Layer_1-2" data-name="Layer 1">
    <path class="cls-1" d="M153.15,22.26c-2.97-1.36-3.48-2.52-6.02-3.46-2.54-.94-7.26-1.52-10.56-3.01-3.29-1.49-7.25-2.22-9.79-2.77-2.54-.55-5.74-1.3-9.17-2.03-3.43-.73-4.63-.68-6.49-1.66-1.86-.98-3.41-.32-5.82-.79-2.41-.47-3.11-.34-6.7-1.75-3.6-1.41-5.06-1.98-4.65-4.8,.41-2.82-.45-2.16-2.58-.94s-3.82,2.82-8.56,3.73c-4.74,.9-8.62,.11-14.83,.11s-8.17-.11-10.57,0c-2.4,.11-4.1-.18-5.32-.66-1.22-.49-2.85-.54-5.23,.04-2.38,.58-2.17-.31-4.17-.2-1.99,.11-2.63,.97-4.14,.61-1.51-.35-4.27-.01-5.97-.77-1.71-.75-2.85,.5-4.17,.35-1.32-.15-2.99-.03-4.87,.85-1.88,.88-3.58,1.66-5.43,1.88-1.86,.23-2.47,.73-4.58,.68-2.11-.05-7.18,1.46-8.65,1.86-1.47,.41-2.38,1.49-3.46,1.85-.3,.1-.62,.25-.82,.5-.12,.16-.3,.55-.12,.72,.17,.16,.67,.27,.9,.38,.46,.21,.93,.4,1.4,.58,2.2,.85,3.95,.98,7.3,.77,3.35-.21,7.53-.11,10.47,.62,2.94,.73,8.09,3.61,9.69,4.97,1.6,1.36,5.51,5.62,6.47,6.39s1.93,1.28,3.72,1.36c1.79,.08,2.84,.09,1.96,.21-.88,.11-1.69,.02-3.56-.16-1.86-.18-1.9-.45-3.18-1.54-1.28-1.09-4.07-4.24-6.25-6.19-2.18-1.96-6.49-3.76-9.52-4.39-3.03-.62-7.23-.25-10.63-.25s-4.08-.21-6.53-.72c-.53-.11-1.06-.23-1.58-.38-.27-.07-1.05-.49-1.14-.13-.07,.29,.3,.69,.46,.89,.33,.4,.71,.76,1.09,1.11,1.11,1,4.89,3.16,7.9,4.59,3.01,1.43,9.32,3.61,14.81,4.93,5.5,1.32,6.89,2.13,10.31,3.18,3.43,1.05,9.62,1.43,12.87,1.71,1.13,.1,1.91,.17,2.49,.3-.07-.13-.14-.26-.22-.39-.1-.17-.24-.36-.36-.54-.12-.18-.25-.35-.38-.51-.26-.32-.56-.6-.9-.85-.34-.25-.72-.49-1.09-.71-.37-.22-.77-.41-1.18-.6-.2-.1-.41-.2-.6-.32-.1-.06-.19-.13-.29-.19-.09-.08-.18-.15-.26-.24-.04-.04-.08-.08-.11-.14-.03-.05-.07-.09-.1-.14l-.08-.15s-.04-.11-.06-.16c-.04-.11-.06-.22-.09-.33-.02-.11-.03-.22-.04-.33,.03,.11,.05,.22,.08,.32,.04,.1,.07,.21,.12,.3,.03,.05,.04,.1,.08,.14l.09,.13s.07,.08,.11,.12c.03,.04,.08,.07,.12,.11,.08,.07,.17,.13,.26,.19,.1,.05,.19,.1,.29,.14,.19,.09,.4,.16,.61,.23,.42,.14,.85,.28,1.27,.46,.42,.18,.83,.36,1.24,.59,.41,.22,.81,.51,1.15,.84,.17,.16,.33,.34,.49,.51,.15,.17,.3,.33,.46,.52,.3,.37,.57,.76,.81,1.17,.52,.88,.95,1.72,1.66,2.47,.66,.7,1.42,1.29,2.07,1.99,1.18,1.25,2.33,1.79,3.12,3.05,.79,1.25,2.69,2.05,4.42,3.45,1.74,1.41,5.49,4.94,10.16,6.93,4.67,1.98,5.35,.63,.91-5.24-2.17-2.87-4.68-5.48-7.29-7.95-.55-.52-1.08-1.04-1.66-1.52-.59-.49-1.26-.88-1.87-1.33-.13-.1-.26-.21-.38-.31l-.36-.3c-.12-.1-.24-.2-.36-.29-.48-.39-.99-.76-1.5-1.16-.25-.2-.5-.42-.74-.65-.24-.23-.45-.48-.65-.74-.1-.13-.19-.26-.28-.4l-.13-.2-.12-.21c-.17-.28-.32-.57-.45-.86-.13-.3-.24-.6-.32-.92-.08-.31-.15-.62-.21-.93-.07-.3-.15-.6-.31-.87-.15-.27-.37-.5-.61-.7,.26,.18,.5,.39,.69,.66,.19,.26,.3,.57,.4,.87,.1,.3,.18,.61,.29,.9,.1,.29,.24,.57,.38,.84,.15,.27,.31,.53,.5,.78l.14,.19,.14,.18c.09,.12,.2,.23,.3,.35,.21,.22,.42,.44,.66,.63,.64,.52,1.32,.99,2.01,1.43,.35,.22,.7,.44,1.05,.66,.26,.16,.61,.46,.92,.49,.93,.1,1.93-.17,2.85-.28,.86-.1,1.72-.22,2.58-.34,1.51-.21,3.02-.43,4.53-.63,.27-.03,.53-.07,.8-.1,2.4-.26,3.6-1,6.41-.92,2.81,.09,4.93-.09,7.55-.78,2.62-.69,1.94-.35,4.42,.28,2.47,.63,5.31,.15,6.76-.72,1.46-.87,1.68-1.73,3.17-1.67,1.49,.06,1.86,.23,2.69-.9s.85-.13,1.96-.72c1.1-.59,1.58-.14,3.6-.63s1.37-1.41,1.89-1.24c.53,.17,3.84,.53,5.01-1.07s2.65,.34,5.23-.39c2.58-.73,2.73-.92,4.78-.64,2.05,.28,3.76,.36,5.35-.17,1.58-.53,2.5-1.07,4.61-.98,2.11,.09,5.68,1.49,8.71,2.82,3.03,1.34,9.22,3.46,10.01,2.48,.79-.98-.73-2.07-3.71-3.42Zm-117.27-.47c-.79-.33-1.39-1.42-.17-1.7,.05-.01,1.86-.42,2.22,.81,.36,1.23-1.26,1.22-2.05,.89Z"/>
  </g>
</svg>