<?xml version="1.0" encoding="UTF-8"?>
<svg id="Layer_2" data-name="Layer 2" xmlns="http://www.w3.org/2000/svg" viewBox="0 0 76.43 37.3">
  <defs>
    <style>
      .cls-1 {
        fill: #808080;
        fill-rule: evenodd;
      }
    </style>
  </defs>
  <g id="Layer_1-2" data-name="Layer 1">
    <path class="cls-1" d="M.69,27.68s-2.09-5.21,1.03-7.13c3.12-1.92,13.81-2.95,15.93-3.06,2.12-.11,6.22-1.03,7.45-1,1.23,.03,19.33,1.49,22.14-.4,0,0,1.17-.86,1.78,.32,.6,1.17,1.06,1.2,1.58,1.06,.52-.14,1.86-.86,2.69-.69,.83,.17,.89,.34,1.49,.09,.6-.26,1.49-1.29,2.01-1.37,.52-.09,1.43,0,1.86-.46,.43-.46,.92-1.6,1.35-1.92,.43-.32,2.35-.82,2.68-1.36s1.65-2.11,2.08-2.52c.43-.42-2.28-6.16,.33-9.11,0,0,.49-.47,.89,.52,.4,.99,1.75,3.05,2.39,3.31,.64,.26,1.03,1.06,.93,1.62,0,0,.72-.34,1.72-.2s4.3-.66,4.81-1.06c.52-.4,.68,.32,.62,.57-.06,.25-1,3.22-2.56,4.05-1.56,.83-4.41,1.75-4.68,2.19-.27,.44-1.42,4.11-1.99,5.34-.57,1.23-3.87,5.79-5.93,8.05-2.06,2.26-5.01,5.3-9.74,7.07-4.73,1.78-8.16,3.01-15.38,2.84,0,0-4.73-.89-4.84-.34-.11,.54,.11,1.92,.43,2.49,.31,.57-.92,.95-1.92,.63-1-.32-3.47-2.72-4.27-3.58,0,0-3.84-.29-5.07,.17-1.23,.46-9.22,3.29-11.31,2.58,0,0-.83-.39-.36-.63,.47-.24,8.48-2.91,9.42-3.68,0,0-9.25,.57-10.57,1.09-1.32,.52-3.24-.72-4.21-1.37s-2.58-2.69-2.75-4.07H.69Z"/>
  </g>
</svg>