<?xml version="1.0" encoding="UTF-8"?>
<svg id="Layer_2" data-name="Layer 2" xmlns="http://www.w3.org/2000/svg" viewBox="0 0 66.09 32.95">
  <defs>
    <style>
      .cls-1 {
        fill: #808080;
        fill-rule: evenodd;
      }
    </style>
  </defs>
  <g id="Layer_1-2" data-name="Layer 1">
    <path class="cls-1" d="M.37,11.34s12.26,4.66,16.56-1.63C21.23,3.41,25.02-.37,32.61,.03c7.6,.4,17.61,3.99,20.04,3.85,2.43-.14,3.73,3.21,3.95,5.6,.22,2.39,.87,5.33-1.03,9.58,0,0,7.38-.86,10.51-4.52,0,0-2.24,6.66-2.09,9.28,.16,2.63,.83,4.22-.2,5.56-1.03,1.35-3.61-.31-4.18-1.68-.57-1.37-2.48-3.68-3.15-3.91-.67-.23-.83,.93-.28,2.23,.55,1.31,1.29,3.41,1.42,4.27s-.29,2.54-1.54,2.61-11.1,.49-16.79-3.47c0,0-10.84-2.29-13.75-3.78-2.91-1.49-11.38-6.9-13.95-8.24-2.56-1.34-9.33-3.55-10.9-3.82,0,0-.44-.52,.36-.41,.79,.11,2.75,.22,2.75,.22,0,0-2.94-.87-3.4-1.17-.46-.3-.58-1.06-.03-.89H.37Z"/>
  </g>
</svg>