<?xml version="1.0" encoding="UTF-8"?>
<svg id="Layer_2" data-name="Layer 2" xmlns="http://www.w3.org/2000/svg" viewBox="0 0 57.67 70.12">
  <defs>
    <style>
      .cls-1 {
        fill: #808080;
      }
    </style>
  </defs>
  <g id="Layer_1-2" data-name="Layer 1">
    <path class="cls-1" d="M57.52,25.34c-.59,1.18-.89,1.4-1.29,2.4-.41,1-.81,1.15-1,2.11-.18,.96-.92,1.51-1.48,2.44-.55,.92-1.48,1.51-2.14,2.96-.66,1.44-3.62,6.69-4.84,8.31,0,0,.92,6.72,.11,7.87-.81,1.15-1.4,1.63-1.59,2.22-.19,.59-3.92,8.9-6.32,10.05,0,0,3.99-8.46,4.18-11.34,.18-2.88-2.14-6.54-2.14-6.54l-5.25,2.96s-.07,2.48-.66,1.48c0,0-.55,2.44-.81,1.44,0,0-.17,2.49-1.05,1.5,0,0,.11,3.01-1.09,2.07,0,0,.07,2.72-.65,3.01-.72,.3-.74-.46-.74-.46,0,.09-.72,4.79-2.33,3.99,0,0-2.09,5.69-3.6,3.94,0,0-1.88,2.03-2.33,.76,0,0-3.51,3.29-5.45,3.64,0,0,1.33-1.76,1.55-2.25,.22-.5-.19-.35,.74-1.33,.92-.98,.24-1.11,.91-2.33,.66-1.22,.3-1.72,.7-2.79,.41-1.07,0-2.09,.09-3.05,.09-.96-.68-1.33-.42-2.09,.26-.76-.52-1.4-.42-1.79,.09-.39-.37-.81-.3-1.39s-.61-.74-.46-1.27c.15-.54-.59-.79-.48-1.37s-.48-1.22-.33-2.01c.15-.79-.5-.78-.28-1.66,.22-.89-.5-1.55-.22-2.11,.28-.55-.28-1.87,.28-2.84,.55-.98-.37-1.05,.68-1.63,1.05-.57,1.48-.76,1.48-.76,0,0-2.14-.68-3.09,.39-.94,1.07-1.96,2.73-3.09,4.27-1.13,1.53-3.25,6-9.18,6.08,0,0-.79-.31-.48-.74,.31-.42-.24-1,.11-1.85,.35-.85-.28-1.77-.07-2.57,.2-.79-.79-2.14-.54-2.9,.26-.76-.63-1.96-.43-2.66,.2-.7-.81-1.64-.5-2.66,.31-1.02-.92-1.68-.59-2.68,.33-1-.09-.68-.41-1.87-.31-1.18-1.55-2.36-1.46-3.1,.09-.74-.24-1.64,1.79-1.61,2.03,.04,4.97-.07,8.41,2,3.44,2.07,5.04,2.72,6.37,2.31,1.33-.41,2.97-1.81,2.99-3.2,.02-1.22-3.62-3.85-5.59-5.04-.87-.35-1.71-.75-2.39-1.4-.59-.56-.77-1.39-.38-2.09,.08-.15,.19-.25,.31-.32-.24-.49-.51-1.07-.54-1.62-.05-1.16-1.21-1.43-1.48-2.64-.27-1.21-2.17-2.04-2.49-3.23-.32-1.18-3.72-3.42-5.17-5.39C1.22,4.97,.48,4.7,.23,3.88-.01,3.07-.14,2.78,.23,2.41c.37-.37,.07-1.85,1.01-1.8,.94,.05,.96-1.03,2.66-.42,1.7,.62,2.41,.02,4.11,.64,1.7,.62,.59-1.65,3.65,.49,3.05,2.14,5.99,2.98,7.71,4.98,1.72,1.99,2.04,2.41,2.71,2.56,.66,.15,.96,.57,1.6,1.4,.64,.84,.2-.59,1.03-.2,.84,.39,1.43,1.85,1.53,2.07,.1,.22,.2-1.67,1.92,.96,0,0,.44-1.13,1.77,.94,0,0,.12-1.16,1.45,.49,0,0,.12-1.21,1.16,.07,0,0,.59-.81,1.5,.54,0,0,.39-.86,1.01,.39,0,0,.62-.94,1.18,.57,0,0,.44-.76,.89,.34,0,0,.47-.42,.79,.54,0,0,.47-.1,.53,.85,0,0,5.25,1.55,6.87,2.14,1.63,.59,5.47,2.03,6.39,2.25,.92,.22,2.03,.44,3.1,.81s1.22,.48,1.33,.52c.11,.04,.89-.07,.7,.59,0,0,1.26,0,.66,1.18Z"/>
  </g>
</svg>