<?xml version="1.0" encoding="UTF-8"?>
<svg id="Layer_2" data-name="Layer 2" xmlns="http://www.w3.org/2000/svg" viewBox="0 0 70.06 30.51">
  <defs>
    <style>
      .cls-1 {
        fill: #808080;
      }
    </style>
  </defs>
  <g id="Layer_1-2" data-name="Layer 1">
    <path class="cls-1" d="M70.04,18.9c-.18,.12-1.69,2.07-3.6,2.81-1.91,.73-4.35,1.91-5.77,2.32-2.99,.86-6.02,1.58-9.1,2,.05,0,.1,.02,.16,.03l-.19-.03c-.39,.05-.79,.1-1.19,.14-.61,.27-1.13,.78-1.72,1.27-1.95,1.63-3.42,2.76-6.02,3.01-1.3,.08-2.6,.16-3.74-.41-.73-.33-1.3-1.14-2.11-1.3-1.22-.24-4.39,1.22-3.42-1.71,.23-.59,.73-.98,1.33-1.31-2.15-.33-4.35-.86-6.25-1.69-3.42-1.49-6.23-4.11-9.71-5.5-.81-.33-1.22-.45-2.2-.24-.98,.2-8.09,4.27-14.76,3.86,0,0,2.15-4.76,3.94-5.57,0,0-5.37-2.2-5.69-4.59,0,0,8.05-2.24,14.8,.41,0,0,1.51,.49,3.86-.16,0,0,3.64-1.81,7.85-3.71,.1-.56,.29-1.11,.73-1.66,2.76-3.09,8.78-4.72,12.52-6.1,4.31-1.54,8.48-.82,11.39,2.65,4.45,.57,9.02,2.22,12.68,5.89,.1,.1,4.27,4.43,5.16,6.22,.9,1.79,1.26,2.48,.9,2.6-.37,.12-.69,.28-.69,.28,0,0,1.01,.37,.83,.49Z"/>
  </g>
</svg>