<?xml version="1.0" encoding="UTF-8"?>
<svg id="Layer_2" data-name="Layer 2" xmlns="http://www.w3.org/2000/svg" viewBox="0 0 121.67 61.29">
  <defs>
    <style>
      .cls-1 {
        fill: #808080;
      }
    </style>
  </defs>
  <g id="Layer_1-2" data-name="Layer 1">
    <path class="cls-1" d="M117.96,10.95c-.69-.61-1.44-1.15-2.21-1.66-.78-.49-1.59-.93-2.43-1.32-.85-.37-1.71-.69-2.6-.94-.89-.24-1.8-.43-2.71-.56-1.83-.25-3.69-.26-5.53-.09-1.71,.16-3.4,.47-5.06,.89-.75-.54-1.7-.95-2.75-1.38-.31-.13-.63-.24-.94-.34,0,0-.02,0-.02,0-.32-.1-.63-.19-.95-.26,0,0,0,0-.01,0h0c-1.21-.28-2.36-.37-3.24-.21-.38-.6-1.02-1.13-2.06-1.53-.27-.1-.54-.2-.82-.29h0s0,0-.01,0c-.57-.19-1.14-.35-1.7-.48-.01,0-.02,0-.03,0-.26-.06-.52-.11-.78-.16-.02,0-.04,0-.06-.01-.27-.05-.52-.08-.78-.11,0,0,0,0,0,0h0c-1.08-.12-2.04-.09-2.74,.14,0,0,0,0,0,0-.04,.01-.07,.03-.11,.04-.36-.54-.95-.87-1.68-1.11,0,0,0,0,0,0-.09-.03-.19-.06-.28-.08-.08-.02-.15-.05-.23-.07-.19-.05-.38-.1-.59-.15-.73-.18-1.39-.21-1.92-.09-.18-.27-.64-.42-1.22-.49h0c-.17-.02-.36-.03-.55-.03-.02,0-.05,0-.07,0-.38,0-.78,.02-1.16,.07-.02,0-.04,0-.06,0-.18,.03-.36,.06-.53,.1,0,0-.02,0-.03,0h0c-.43,.1-.8,.23-1.04,.4-.1,.07-.18,.16-.25,.26,0,0,0,0-.01-.01-.01-.01-.03-.03-.05-.04-.1-.08-.2-.16-.31-.23,0,0,0,0-.01,0h0c-1.06-.7-2.61-.9-3.89-.22h0s0,0,0,0c-.12,.07-.24,.14-.35,.22-.41-.39-.84-.65-1.3-.82h0s0,0,0,0c-.58-.22-1.21-.31-1.92-.34,0,0,0,0-.01,0-.69-.03-1.45-.01-2.31-.01-1.26,0-2.64,.03-4.1,.08h0s0,0-.01,0c-.45,.02-.91,.04-1.38,.06-.02,0-.03,0-.05,0h0c-1.09,.05-2.22,.12-3.37,.2h0s-.01,0-.02,0c-.56,.04-1.12,.08-1.69,.12,0,0-.01,0-.02,0h0c-.89,.07-1.79,.14-2.7,.23h0s-.01,0-.02,0c-1.32,.12-2.65,.25-3.97,.4-.02,0-.03,0-.05,0h0c-1.48,.16-2.94,.34-4.35,.54h0s-.03,0-.04,0c-.56,.08-1.11,.16-1.65,.24-.02,0-.03,0-.05,0h0c-2.58,.38-4.96,.81-6.93,1.27-7.78,1.81-9.1,1.04-13.83-.21,.14,.19,.3,.36,.47,.52,.05,.05,.11,.09,.16,.14,.14,.12,.29,.23,.44,.34,.06,.04,.12,.08,.18,.12,.22,.14,.46,.27,.72,.39,0,0,0,0,0,0,.26,.12,.54,.23,.84,.34,.09,.03,.18,.06,.27,.09,.23,.08,.47,.16,.73,.24,.09,.03,.19,.06,.28,.08,.34,.1,.7,.2,1.08,.29,0,0,0,0,0,0,.39,.1,.81,.2,1.24,.3,.12,.03,.26,.06,.38,.09,.37,.08,.75,.17,1.15,.26,.02,0,.03,0,.05,.01h0c.64,.14,1.32,.3,2.04,.46-.62,.4-1.02,1.09-1.02,1.88,0,.13,.02,.26,.04,.39-5.73,.31-10.87-.36-13.45-3.2,1.62,2.83,5.9,4.41,10.73,5.29-3.99,.16-7.86,.02-11.2-.47,1.87,1.02,4.4,1.57,7.22,1.88-2.2,.38-4.38,.93-6.48,1.72-1.69,.65-3.33,1.45-4.85,2.46-1.52,1.01-2.9,2.22-4.05,3.64-1.15,1.42-2.06,3.05-2.62,4.79C.18,26.76-.05,28.6,.01,30.42c.07,1.82,.4,3.63,1.03,5.34,.63,1.71,1.58,3.31,2.78,4.68,1.2,1.37,2.65,2.52,4.21,3.44,1.56,.92,3.24,1.63,4.96,2.17,3.45,1.07,7.07,1.48,10.66,1.53,3.6,.04,7.19-.31,10.72-.92,3.54-.6,7.03-1.48,10.45-2.53,3.42-1.02,6.9-1.85,10.41-2.54,7.01-1.37,14.14-2.21,21.29-2.42,3.57-.1,7.15-.02,10.72,.28,3.56,.31,7.11,.85,10.56,1.79,.8,.22,1.59,.46,2.37,.72-.07,.42-.06,.85,0,1.2,.1,.57-.29,1.08-.26,1.59-.87,.62-2.1,2.06-4.43,4.68-.39,.44-.81,.88-1.24,1.33-3.01,3.12-6.73,6.28-7.31,7.64-.04,.09-.05,.17-.05,.25,0,.02,0,.04,0,.06,0,.08,.02,.16,.05,.24,0,.01,.01,.03,.02,.04,.03,.07,.07,.13,.12,.2,.01,.02,.02,.03,.04,.05,.06,.07,.13,.14,.21,.2,.02,.02,.05,.04,.07,.06,.07,.06,.15,.11,.24,.16,.02,.01,.04,.03,.06,.04,0,0,0,0,0,0,0,0,0,0,0,0,1.13,.64,3.17,1.02,4.59,.88,0,0,0,0,0,0,.05,0,.09-.01,.13-.02,.03,0,.05,0,.08-.01-.05,.19-.05,.32,.04,.38,.16,.1,.62,.22,1.2,.29h0s.03,0,.04,0c.12,.01,.25,.03,.38,.03,.03,0,.06,0,.09,0,.15,0,.3,.01,.45,.01,0,0,.01,0,.02,0,.16,0,.32,0,.48-.02,.03,0,.07,0,.1,0,.13-.01,.25-.03,.37-.04,.04,0,.09-.01,.13-.02,.14-.03,.28-.06,.42-.09,.01,0,.02,0,.03,0,.15-.04,.28-.09,.42-.15,.04-.02,.07-.04,.11-.05,0,0,.02,0,.02-.01,.53,.59,2.57,.37,3.64-.16,.04-.02,.08-.05,.13-.07,0,0,0,0,0,0,.01,0,.02-.02,.04-.03,.03-.02,.07-.05,.1-.07,.03-.02,.06-.05,.08-.07,.03-.03,.06-.06,.09-.08,.03-.03,.05-.05,.07-.08,.03-.03,.05-.07,.08-.1,.02-.03,.04-.06,.06-.1,.02-.04,.05-.08,.07-.12,.02-.04,.04-.07,.06-.11,.02-.05,.04-.1,.07-.15,.02-.04,.03-.09,.05-.13,.02-.06,.04-.12,.06-.18,.02-.05,.03-.1,.05-.15,.02-.07,.04-.14,.06-.22,.01-.05,.03-.1,.04-.15,.02-.09,.05-.18,.07-.27,.01-.05,.02-.1,.03-.15,.03-.11,.05-.23,.08-.35,0-.03,.01-.06,.02-.09,.14-.63,.3-1.4,.51-2.36,0-.03,.01-.06,.02-.09,.05-.21,.1-.44,.15-.67,.02-.07,.03-.14,.05-.21,.05-.23,.11-.47,.16-.71,.02-.09,.04-.16,.06-.25,.08-.33,.16-.68,.25-1.05,.1-.38,.19-.75,.28-1.1,0-.03,.02-.06,.03-.1,.09-.31,.17-.61,.25-.89,.01-.04,.02-.07,.03-.11,.08-.27,.16-.53,.24-.78,.02-.05,.03-.09,.05-.14,.07-.22,.14-.44,.21-.65,.02-.06,.04-.11,.06-.17,.06-.18,.12-.36,.18-.53,.03-.07,.05-.14,.07-.21,.05-.14,.1-.27,.14-.4,.14-.39,.26-.72,.36-1,0,0,0-.01,0-.02h0c.13-.37,.22-.65,.25-.87,.15-.13,.3-.28,.45-.48,.14-.19,.29-.43,.43-.68,.52,.31,1.04,.63,1.55,.98,1.46,1.02,2.8,2.23,3.91,3.64,1.11,1.4,1.98,2.99,2.55,4.69-.56-1.7-1.42-3.3-2.53-4.71-1.11-1.41-2.44-2.63-3.91-3.66-.5-.35-1.02-.68-1.55-.99,.45-.84,.77-1.87,.4-2.34,.93-.93,1.81-2.61,2.49-5.08,0,0,0,0,0,0,0-.02,.01-.05,.02-.07,.06-.23,.12-.46,.18-.7,.03-.11,.06-.23,.08-.34,.05-.23,.1-.46,.15-.7,.02-.11,.05-.21,.07-.33,0,0,0,0,0,0,.1-.5,.19-1.01,.28-1.56,.06-.39,.11-.76,.15-1.13,0,0,0,0,0,0,0-.01,0-.02,0-.03,.02-.15,.03-.29,.04-.44,.02-.21,.04-.42,.05-.63,0-.15,.01-.29,.02-.44,0-.19,.01-.37,.02-.54,0-.13,0-.26,0-.39,0-.17,0-.34-.02-.5,0-.12-.01-.23-.02-.34,0-.07,0-.15-.02-.22,0,0,0,0,0,0-.04-.38-.09-.74-.17-1.06,0,0,0,0,0,0,0,0,0-.02,0-.03-.01-.05-.02-.09-.04-.14-.02-.08-.04-.16-.06-.24,.3-.41,.43-1.12,.54-2.55,.06-.77,.06-1.57,0-2.36,0,0,0,0,0,0,0-.05,0-.09-.01-.14-.01-.17-.03-.35-.05-.52,0-.08-.02-.15-.03-.23-.02-.17-.05-.33-.07-.5-.01-.08-.03-.16-.04-.23-.03-.16-.06-.32-.1-.48-.02-.08-.04-.15-.06-.23-.04-.16-.08-.31-.12-.46-.02-.07-.04-.15-.07-.22-.05-.15-.1-.3-.15-.44-.03-.07-.05-.14-.08-.21-.06-.14-.12-.28-.18-.42-.03-.06-.06-.13-.09-.19-.07-.14-.14-.27-.22-.4-.03-.06-.07-.11-.1-.17-.08-.13-.16-.25-.25-.36-.02-.03-.05-.07-.07-.11,0,0,0,0,0,0-.48-.62-1.08-1.1-1.8-1.36,0,0,0,0,0,0-.07-.03-.15-.06-.23-.08-.02,0-.04,0-.06-.01,.03-.12,.05-.24,.05-.35,.02-.54-.4-1.84-1.52-3.19,0,0,0,0,0,0-.02-.03-.05-.05-.07-.08-.11-.13-.24-.27-.37-.4-.06-.06-.11-.12-.17-.18-.16-.16-.33-.32-.51-.47-.04-.03-.07-.07-.11-.1-.46-.39-.99-.76-1.59-1.1-.01,0-.02-.02-.04-.02,0,0,0,0,0,0-.93-.52-2.04-.96-3.35-1.28,0,0,0,0,0-.01-.09-.02-.18-.04-.28-.06-.24-.38-.55-.69-.91-.98,1.62-.41,3.27-.72,4.95-.89,1.83-.18,3.68-.17,5.51,.07,.91,.12,1.82,.31,2.7,.55,.89,.25,1.75,.56,2.6,.93,.84,.38,1.65,.81,2.43,1.3,.77,.5,1.52,1.04,2.22,1.64,1.4,1.19,2.63,2.58,3.73,4.07-1.08-1.49-2.31-2.89-3.71-4.09ZM16.99,14.18l1.29-.44c.11-.04,.21-.08,.32-.11l1.65-.44,1.34-.27c.44-.1,.9-.16,1.35-.21h.01c4.33,.18,8.93,.11,12.74,.44-.17,.08-.35,.17-.53,.25-.05,.02-.1,.05-.15,.07-.25,.12-.5,.24-.75,.37-.06,.03-.12,.06-.18,.09-.25,.12-.5,.25-.75,.38-.08,.04-.15,.08-.23,.12-.24,.12-.48,.24-.72,.37-.1,.05-.2,.1-.29,.15-.2,.1-.4,.2-.6,.31-.15,.08-.3,.16-.45,.23-.11,.06-.22,.12-.33,.17-2,1.04-3.84,2.03-4.91,2.57,0,0-.01,0-.02,0-.16,.08-.3,.15-.42,.21-.12,.06-.22,.11-.3,.14-.59,.26-.47,.49-.11,.66-.01,.01-.03,.03-.05,.04-.05,.04-.11,.08-.17,.13-.06,.05-.11,.09-.18,.14,0,0-.01,0-.02,.01h0c-.07,.06-.15,.13-.24,.2,0,0,0,0,0,0-.01,.01-.03,.03-.04,.04-.07,.06-.14,.13-.21,.19-.07,.06-.14,.13-.21,.2-.08,.07-.15,.15-.23,.22-.08,.08-.16,.16-.25,.25-.11,.11-.23,.23-.35,.35-.11,.11-.22,.23-.33,.35-.08,.08-.16,.17-.24,.26-.1,.1-.19,.21-.29,.32-.08,.09-.16,.18-.24,.27-.11,.13-.22,.26-.33,.4-.07,.08-.13,.15-.19,.23-.17,.21-.34,.42-.51,.63-.06,.08-.12,.15-.18,.23-.12,.16-.24,.31-.35,.47-.06,.09-.13,.18-.19,.26-.12,.16-.23,.33-.35,.5-.05,.08-.11,.15-.16,.23-.16,.24-.31,.48-.46,.73-.03,.05-.06,.1-.09,.15-.12,.2-.23,.4-.34,.6-.04,.08-.09,.16-.13,.25-.09,.18-.18,.36-.27,.53-.04,.08-.08,.15-.11,.23-.11,.25-.22,.5-.31,.75,.08-.1,.15-.2,.23-.3,0,0,0,0,0,0,1.27-1.69,2.56-3.92,4.68-4.47,.17-.67,1.48-2.45,2.37-3.49h0c.23-.27,.44-.5,.58-.64,0,0,0,0,0,0,.02-.02,.03-.02,.04-.04,.34,.03,.65,.01,.72-.08,.24-.31-.49-.73,4.59-2.95,2.05-.9,3.88-1.6,5.43-2.13,.09-.03,.18-.06,.27-.09-.04,.02-.08,.05-.12,.07-.2,.12-.4,.24-.6,.37-.13,.08-.26,.16-.38,.23-.12,.08-.25,.15-.37,.23-.22,.13-.43,.27-.65,.4-.05,.03-.1,.06-.15,.09-2.26,1.39-4.32,2.71-5.23,3.23h0c-.11,.06-.21,.12-.28,.16-.65,.34-.38,.59,.11,.72-.02,.04-.05,.08-.07,.12-.04,.07-.08,.14-.13,.22-.03,.05-.06,.1-.09,.16,0,.01-.01,.02-.02,.03h0c-.05,.09-.09,.18-.14,.28,0,0,0,0,0,0-.01,.02-.02,.05-.03,.07-.03,.07-.07,.14-.1,.21-.05,.11-.1,.22-.16,.34-.03,.07-.06,.14-.1,.22-.07,.16-.14,.33-.21,.5-.02,.04-.03,.08-.05,.12-.09,.21-.18,.44-.26,.67-.03,.07-.05,.14-.08,.22-.06,.17-.13,.35-.19,.54-.03,.08-.06,.16-.09,.25-.07,.21-.14,.42-.21,.63-.02,.06-.04,.11-.05,.17-.08,.27-.17,.54-.24,.82-.02,.06-.03,.13-.05,.19-.06,.22-.12,.44-.17,.66-.02,.09-.04,.18-.07,.27-.05,.21-.1,.43-.14,.64-.02,.08-.03,.15-.05,.23-.06,.29-.11,.57-.16,.86,0,.05-.01,.1-.02,.15-.04,.24-.07,.47-.09,.71,0,.09-.02,.18-.03,.27-.02,.2-.03,.4-.05,.6,0,.09-.01,.17-.01,.25-.01,.27-.01,.54,0,.81,.03-.12,.07-.24,.1-.36h0c.54-2.05,.89-4.6,2.65-5.91-.09-.68,.45-2.83,.88-4.13h0c.07-.22,.14-.42,.21-.59,0,0,0,0,0-.01,.02-.04,.03-.07,.04-.1,.32,0,.59-.04,.65-.13,.22-.33-.54-.69,4.36-3.28,1.77-.93,3.37-1.7,4.77-2.31-.06,.31-.15,.62-.25,.94,1.77-.27,3.33-.23,4.77,0-.11,.1-.21,.2-.32,.31-.08,.08-.16,.16-.24,.25-.15,.15-.29,.29-.44,.45-.08,.08-.17,.17-.25,.26-.16,.16-.31,.32-.47,.49-.08,.08-.16,.17-.24,.25-.17,.17-.33,.35-.5,.53-.08,.08-.15,.16-.23,.24-.18,.19-.36,.38-.54,.57-.06,.07-.13,.14-.19,.2-.2,.21-.39,.42-.58,.63-.04,.04-.08,.09-.12,.13-.22,.24-.44,.48-.66,.72,0,0,0,0,0,0-.79,.86-1.52,1.67-2.13,2.33-.01,.01-.02,.03-.04,.04-.15,.17-.29,.32-.43,.47-.05,.05-.09,.1-.14,.15-.1,.11-.2,.22-.29,.31-.05,.05-.09,.09-.13,.14-.07,.08-.15,.16-.21,.22-.09,.1-.18,.18-.24,.24-.57,.55-.14,.7,.43,.67,0,.08,0,.16,.01,.26,0,0,0,.02,0,.02,0,.11,.02,.22,.03,.34,0,.01,0,.02,0,.04,0,0,0,0,0,0,.07,.64,.22,1.5,.45,2.47,0,.01,0,.02,0,.04,.05,.2,.1,.41,.15,.62,0,0,0,0,0,.01,.05,.19,.1,.39,.16,.59,0,.04,.02,.07,.03,.11,.06,.2,.11,.4,.17,.6,.01,.04,.02,.07,.03,.11,.05,.17,.11,.34,.16,.52,.02,.05,.03,.1,.05,.15,.06,.2,.13,.39,.2,.59,.02,.05,.04,.11,.06,.16,.06,.16,.12,.32,.18,.48,.02,.05,.04,.1,.06,.16,.07,.19,.15,.38,.23,.57,.02,.06,.05,.12,.07,.17,.07,.16,.14,.32,.21,.48,.02,.04,.04,.09,.06,.13,.08,.19,.17,.37,.26,.55,.03,.05,.05,.1,.08,.16,.08,.16,.17,.33,.25,.49,.01,.02,.03,.05,.04,.07,.1,.18,.2,.35,.3,.52,.03,.04,.05,.09,.08,.13,.11,.17,.21,.34,.32,.49-.04-.12-.08-.24-.12-.36,0,0,0,0,0,0-.68-1.98-1.78-4.29-1.12-6.36-.44-.51-1.17-2.58-1.54-3.89h0c-.05-.2-.1-.37-.13-.52,.24-.07,.41-.16,.45-.26,.13-.37-.65-.54,3.25-4.24,1.58-1.5,3.02-2.74,4.26-3.73,.21-.17,.42-.34,.62-.49,0,0,.02-.01,.03-.02,.16-.12,.31-.24,.46-.35,1.07,.28,2.11,.64,3.14,1.03-.07,.12-.14,.24-.21,.36-.06,.09-.11,.19-.17,.29-.13,.21-.25,.42-.38,.64-.03,.05-.06,.09-.08,.14-.16,.27-.31,.54-.47,.8,0,0,0,0,0,0-1.25,2.15-2.38,4.17-2.89,4.99h0c-.06,.1-.12,.18-.16,.25-.41,.61-.02,.7,.45,.6,0,0,0,0,0,0,.01,.03,.03,.06,.05,.09,.03,.05,.06,.1,.1,.16,.03,.05,.06,.09,.09,.14,.03,.05,.07,.11,.11,.16,.05,.06,.09,.13,.14,.2,0,0,0,0,0,.01h0c.06,.08,.12,.16,.19,.25h0s.04,.05,.06,.07c.04,.05,.08,.1,.12,.15,.08,.1,.17,.21,.26,.32,.04,.05,.09,.11,.14,.17,.12,.14,.25,.29,.38,.45,.02,.02,.04,.04,.06,.07,.15,.18,.32,.36,.48,.54,.05,.05,.1,.11,.15,.16,.13,.14,.26,.28,.39,.42,.06,.06,.11,.12,.17,.18,.15,.16,.31,.31,.46,.47,.04,.04,.08,.08,.12,.12,.2,.2,.4,.39,.61,.59,.04,.04,.09,.08,.14,.13,.16,.15,.33,.31,.5,.46,.07,.06,.13,.12,.2,.17,.17,.15,.33,.29,.5,.43,.06,.05,.11,.09,.17,.14,.22,.18,.45,.36,.67,.54,.03,.03,.07,.05,.1,.08,.19,.14,.38,.28,.57,.42,.07,.05,.14,.1,.21,.14,.16,.11,.33,.22,.49,.32,.07,.04,.13,.09,.2,.13,.22,.14,.45,.27,.67,.38-.09-.08-.18-.17-.27-.25,0,0,0,0,0,0-1.53-1.4-3.53-2.9-4.08-4.98-.6-.24-2.22-1.71-3.16-2.68-.07-.07-.14-.14-.2-.21,0,0-.01-.01-.02-.02-.05-.05-.09-.1-.13-.15,.21-.11,.37-.23,.38-.33,.05-.39-.65-.44,2.17-4.64,.58-.86,1.14-1.65,1.67-2.37,.39,.33,.76,.67,1.11,1.03,1.65,1.71,3.39,2.62,4.52,2.73,0,0,0,0,0,0,.1,0,.2,.01,.29,0h.03c.08,0,.16-.02,.23-.03,.01,0,.03,0,.04,0,.06-.02,.12-.04,.18-.06,.02,0,.03-.01,.05-.02,.05-.03,.09-.06,.14-.1,.01-.01,.03-.02,.05-.03,.02-.02,.04-.05,.06-.07,.15,.09,.3,.18,.45,.25,.01,0,.02,.01,.03,.02,.19,.1,.37,.17,.55,.24,.03,0,.05,.02,.07,.02,.17,.06,.34,.1,.49,.12,0,0,0,0,.01,0,.14,.02,.28,.02,.4,.01,.02,0,.04,0,.06,0,.12-.02,.22-.05,.32-.09,.02,0,.03-.02,.05-.03,.09-.05,.17-.12,.23-.21,.07-.1,.12-.19,.16-.28,.01-.03,.02-.05,.03-.08,.03-.06,.05-.13,.06-.18,0-.02,.01-.05,.02-.07,.01-.08,.02-.15,.01-.22,0,0,0,0,0-.01,0,0,0-.01,0-.02,.48,.33,.94,.59,1.36,.76,.44,.23,1.22,.42,1.71,.16,.03-.02,.07-.04,.1-.06,.03-.02,.06-.04,.09-.07,.06-.06,.11-.12,.15-.19,.05-.11,.09-.21,.13-.3,.01-.03,.02-.06,.02-.09,.02-.06,.03-.13,.04-.19,0-.03,0-.05,0-.08,0-.03,0-.06,0-.09,.13,.1,.26,.2,.39,.28,.35,.28,1.01,.56,1.48,.37,.03-.01,.06-.03,.09-.04,.03-.02,.06-.03,.09-.06,.06-.05,.11-.1,.16-.17,.06-.1,.11-.19,.15-.28,.01-.03,.02-.05,.03-.08,.03-.06,.05-.12,.06-.18,0-.03,.01-.05,.02-.08,.01-.06,.02-.13,.02-.19,0-.01,0-.03,0-.04,0-.07-.01-.14-.03-.2,0-.02-.01-.04-.02-.06-.02-.05-.04-.1-.06-.14-.01-.02-.02-.04-.04-.06-.03-.05-.07-.1-.11-.14-.01-.01-.02-.03-.03-.04-.05-.06-.12-.12-.18-.18-.01-.01-.02-.02-.04-.03-.01,0-.02-.02-.03-.03,2.55-1.04,3.47-2.85,4.41-3.88,.03-.04,.07-.08,.1-.13,0,.03,0,.05,0,.08,0,.08,0,.16,0,.23,0,.05,0,.11,0,.16,0,.07,.02,.14,.03,.2,0,.04,.01,.09,.02,.13,.01,.06,.03,.11,.05,.17,.01,.03,.02,.07,.03,.1,.02,.05,.05,.09,.07,.13,.01,.02,.03,.05,.04,.07,.03,.04,.07,.07,.11,.09,.01,0,.02,.02,.03,.03,0,0,0,0,0,0s0,0,0,0c.06,.02,.12,.03,.19,.02,1.16-.14,2.27,.28,4.01,.28,.16,0,.32-.06,.48-.16,.05,.03,.11,.05,.16,.08,.03,.02,.06,.03,.1,.05,.14,.06,.28,.12,.43,.17,.03,0,.06,.02,.09,.03,.13,.04,.26,.08,.4,.12,.02,0,.04,.01,.06,.02-.08,.12-.16,.25-.23,.39-.02,.03-.04,.07-.06,.1-.24,.43-.46,.9-.65,1.39-3.91,2.71-7.67,5.65-11.32,8.72-1.41,1.19-6.24,5.46-6.24,5.46-.34,.31-.71,.58-1.06,.88-.36,.29-.71,.58-1.08,.85-2.92,2.23-6.08,4.14-9.39,5.73-3.31,1.59-6.77,2.87-10.33,3.77-1.78,.46-3.58,.8-5.4,1.04-1.82,.24-3.65,.38-5.48,.36-3.65-.03-7.33-.59-10.68-2.03-1.67-.72-3.24-1.67-4.62-2.84-1.38-1.18-2.57-2.57-3.44-4.15-.87-1.57-1.43-3.32-1.59-5.12-.15-1.79,.07-3.61,.62-5.33,.55-1.72,1.41-3.33,2.51-4.77,1.09-1.44,2.41-2.7,3.87-3.78,.37-.26,.73-.53,1.12-.77l1.17-.7c.4-.21,1.52-.77,1.52-.77l.94-.4c.21-.09,.42-.18,.63-.26Zm12.61-6.78c.67,.17,1.35,.35,2.07,.55,.23,.07,.46,.13,.68,.2-.81,.13-1.63,.24-2.44,.34,0-.4-.12-.77-.3-1.09ZM97.83,41.14c-3.45-.95-7.01-1.51-10.57-1.84-3.57-.33-7.15-.41-10.74-.34-7.16,.17-14.3,.98-21.34,2.32-3.52,.68-7.01,1.49-10.45,2.5-3.42,1.04-6.89,1.89-10.41,2.47-3.52,.58-7.09,.91-10.65,.86-3.55-.06-7.13-.48-10.51-1.56-1.69-.54-3.33-1.23-4.84-2.14-1.51-.9-2.9-2.02-4.05-3.35-1.15-1.33-2.05-2.86-2.65-4.51-.6-1.65-.91-3.4-.97-5.16-.06-1.75,.18-3.52,.74-5.18,.55-1.66,1.42-3.21,2.53-4.56,1.11-1.35,2.45-2.52,3.92-3.49,1.47-.97,3.07-1.74,4.72-2.37,1.18-.44,2.38-.8,3.6-1.09-.47,.2-1.03,.44-1.03,.44l-.31,.16c-.42,.21-.84,.42-1.25,.64l-1.2,.73c-.39,.25-.77,.54-1.15,.8-1.5,1.12-2.86,2.44-3.99,3.94-1.13,1.5-2.03,3.19-2.59,4.99-.57,1.8-.8,3.71-.62,5.59,.17,1.88,.77,3.72,1.69,5.36,.92,1.65,2.17,3.09,3.6,4.3,1.44,1.21,3.06,2.18,4.78,2.91,3.45,1.46,7.21,2.01,10.91,2.03,1.86,.01,3.71-.14,5.55-.39,1.84-.25,3.66-.61,5.45-1.08,3.59-.92,7.07-2.23,10.4-3.85,3.32-1.62,6.5-3.56,9.43-5.82,.37-.27,.73-.57,1.09-.86,.36-.3,.72-.58,1.07-.89l2.07-1.84c1.37-1.24,2.75-2.45,4.15-3.65,3.53-3,7.17-5.89,10.96-8.56-.36,1.02-.58,2.06-.53,2.79,.07,.24,.21,.29,.4,.26-.04,.11-.09,.22-.13,.33-.03,.08-.06,.17-.09,.25-.03,.1-.07,.19-.1,.29,0,0,0,0,0,0-1.28,4.21,.2,9.07,1.31,9.7-1.25-2.85-.71-7.45-.52-6.54,.19,.92,.6,4.11,1.51,4.71-.98-3.59-.36-6.69-.08-8.41,0,0,0-.01,0-.02,.03-.16,.05-.31,.07-.44,0-.04,0-.08,.01-.12,0-.04,.01-.08,.02-.12,.51,.02,.75-.28,1.2-1.98,.34-1.25,.8-2.11,1.01-2.75,.41-.05,.77-.15,1.04-.3,.03-.02,.08-.05,.11-.07,.04,.04,.08,.07,.12,.11,.03,.03,.07,.05,.1,.08,.05,.04,.11,.08,.17,.12,.04,.03,.08,.05,.12,.08,.06,.04,.12,.07,.19,.11,.05,.02,.09,.05,.14,.07,.07,.03,.13,.07,.21,.1,.05,.02,.1,.05,.16,.07,.07,.03,.14,.06,.22,.09,.06,.02,.12,.05,.18,.07,.07,.03,.14,.05,.21,.07-.07,.11-.13,.23-.2,.35,0,.01-.02,.03-.02,.04-.12,.22-.24,.46-.36,.71,0,0,0,0,0,.01-1.28,2.69-2.39,6.62-1.51,6.17,0,0,0,0,0,0-.02,.05-.04,.1-.07,.15-.12,.25-.23,.51-.32,.78,0,.02-.02,.04-.03,.06,0,0,0,0,0,0-1.02,2.99-.38,6.69,.9,8.29-.79-2.61-.39-7.57-.05-5.18,.33,2.39,1.68,6.92,3.43,7.95-2.18-5.26-2.22-8.57-1.9-10.57,.1-.67,.25-1.2,.36-1.59,.07,0,.14,0,.22-.01,.76-.11,1.21-1.4,1.94-4.42,.21-.86,.39-1.55,.51-2.11,0-.02,0-.04,.01-.05,.07,0,.14,0,.21,.01,.04,0,.07,0,.11,0,.21,0,.41,0,.59,0h0c.12,0,.23-.02,.33-.03,.14-.02,.28-.05,.42-.1,0,0,0,.02,.01,.03,.02,.04,.04,.07,.06,.11,.03,.05,.05,.1,.08,.15,.02,.03,.04,.06,.06,.1,.03,.04,.05,.08,.08,.11,.02,.03,.05,.06,.07,.08,.03,.03,.06,.06,.08,.09,.03,.02,.05,.05,.08,.07,.03,.02,.06,.04,.09,.06,.03,.02,.06,.04,.08,.05,.03,.02,.06,.03,.09,.05,.03,.01,.06,.03,.09,.04,0,0,.01,0,.02,.01h0c.15,.06,.31,.1,.49,.13-.54,.76-1.02,1.81-1.45,3.04-.09,.25-.16,.5-.24,.74,0,.03-.02,.06-.03,.09,0,0,0,0,0,0-.72,2.46-.71,4.38-.13,3.81-.53,4.3,.65,8.47,3.24,11.97-2.26-4.96-1.51-9.84-1.09-12.34,.04-.23,.07-.44,.1-.62,0,0,0-.01,0-.02,0-.05,.01-.09,.02-.13,.23-.1,.48-.23,.76-.4,1.34-.87,.88-1.31,1.37-3.05h0c.03-.12,.07-.24,.11-.37,.18-.56,.33-1.07,.43-1.53,.53,.57,.7,1.09,1.97,.74,0,.12,.02,.23,.03,.33,0,.01,0,.03,0,.04,.02,.11,.04,.22,.07,.3,0,0,0,0,0,.01,.07,.18,.16,.32,.29,.42,0,0,.01,0,.02,.01,0,0,0,0,0,0-.04,.04-.09,.09-.13,.13-.1,.11-.2,.22-.29,.34-.05,.05-.1,.11-.14,.16-.1,.12-.19,.24-.27,.36-.03,.04-.06,.08-.09,.12,0,0,0,0,0,0-1.19,1.69-1.53,3.4-1.23,3.98-.03,.07-.07,.15-.1,.24,0,.02-.01,.04-.02,.06-.24,.69-.37,1.7-.43,3.07-.15,3.43,1.06,6.04,1.06,6.04,0,0-.34-2.49,0-2.62,.13,1.07,.71,3.94,2.43,5.29-1.29-2.59-1.63-4.85-1.29-8.22,.16-1.56,.41-2.6,.54-3.3,0,0,0-.02,0-.03,.02-.09,.03-.18,.04-.26,0,0,0,0,0-.01,.44-.07,.84-.31,1.17-1.03,.3-.65,.78-1.27,1.2-1.89,.02-.03,.03-.05,.05-.08,.07-.11,.14-.21,.2-.32,.02-.03,.03-.05,.05-.08,.03-.05,.06-.1,.09-.16,.02,.08,.03,.17,.05,.25,0,.01,0,.03,0,.04,.02,.1,.05,.2,.07,.3,0,0,0,0,0,0h0c.08,.27,.21,.5,.45,.63,.21,.12,.52,.11,.88,.03,0,.32,.03,.6,.14,.81,.05,.1,.09,.19,.13,.28,0,.03,.02,.05,.03,.08,.02,.06,.04,.13,.05,.19,0,.02,.01,.05,.02,.07,.01,.06,.02,.13,.03,.19,0,.01,0,.03,0,.04,0,.06,0,.11,0,.17-.06,.04-.12,.09-.18,.15,0,0,0,0,0,0-.06,.05-.12,.11-.18,.17-.01,.01-.02,.02-.04,.03-.05,.05-.11,.11-.16,.17-.03,.03-.05,.05-.08,.08-.04,.05-.09,.1-.14,.15-.04,.05-.08,.09-.13,.14-.03,.03-.06,.06-.08,.09-.07,.07-.13,.15-.2,.23h0s0,0-.01,.02c-.8,.9-1.53,2.28-.8,2.59-.07,.12-.14,.26-.2,.4,0,0,0,0,0,0h0c-.72,1.57-.9,3.97-.41,4.67-.06-.6,.19-1,.59-1.92-.12,1.62,.14,4.26,.83,4.52-.49-1.39-.28-2.15,.12-4.19,.17-.91,.44-1.6,.63-2.17,0,0,0,0,0,0,.01-.04,.03-.08,.04-.13,.01-.04,.03-.08,.04-.11,.02-.07,.04-.14,.06-.21,.22,.12,.39,.14,.48-.08,.06-.11,.14-.21,.23-.31,.05-.06,.11-.13,.17-.19,.05-.05,.1-.1,.15-.15,.07-.07,.14-.13,.22-.2,.03-.03,.07-.06,.1-.09,.06,.26,.17,.51,.45,.76,.05,.05,.1,.08,.16,.12h0c.15,.1,.33,.15,.52,.17-.03,.09-.06,.18-.08,.26,0,0,0,0,.01,0-.08,.32-.14,.65-.17,.99,0,0,0,0,0,0,0,.02,0,.03,0,.05,0,.11,0,.21-.01,.32,0,.15,0,.29,0,.44,0,.1,.01,.2,.02,.31,.01,.17,.04,.34,.07,.51,.01,.09,.03,.17,.04,.26,.05,.26,.12,.52,.21,.79,.07,.22,.13,.43,.18,.64,.03,.13,.06,.26,.08,.39,.01,.07,.03,.14,.04,.21,.02,.14,.04,.27,.05,.4,0,.05,.02,.11,.02,.16,.01,.13,.02,.26,.02,.38,.07,1.4-.24,2.39-.11,2.95,0,0,0,0,0,0-.07,.08-.14,.16-.19,.24-.25,.35-.41,.75-.48,1.16-.78-.27-1.57-.51-2.36-.73Z"/>
  </g>
</svg>