<?xml version="1.0" encoding="UTF-8"?>
<svg id="Layer_2" data-name="Layer 2" xmlns="http://www.w3.org/2000/svg" viewBox="0 0 83.72 41.35">
  <defs>
    <style>
      .cls-1 {
        fill: #808080;
      }
    </style>
  </defs>
  <g id="Layer_1-2" data-name="Layer 1">
    <path class="cls-1" d="M83.46,12.92c-3.76-.04-7.54,.34-11.2,1.22-3.47,.83-6.67,2.34-9.71,4.17-.4,.24-.8,.49-1.2,.74-.53,0-1.05-.02-1.58-.04-.71-.97-1.54-1.86-2.48-2.61-1-.8-2.15-1.45-3.43-1.64-.66-.1-1.35-.08-2,.1-.65,.18-1.21,.54-1.75,.93-.72,.54-1.39,1.12-1.99,1.78-.58-.12-1.17-.25-1.75-.39-.24-.43-.51-.85-.79-1.24-.71-1.02-1.54-1.95-2.47-2.76-.45-.39-.92-.75-1.42-1.09-.54-.37-1.11-.72-1.73-.95-1.24-.44-2.57,.05-3.66,.68-.65,.38-1.25,.85-1.76,1.4-.34-.14-.69-.29-1.03-.44-.86-.37-1.72-.72-2.6-1.02,.23-1.56,.54-3.11,1.05-4.59,.64-1.84,1.63-3.58,3.01-4.96,.75-.75,1.6-1.37,2.56-1.82,.2-.09,.1-.42-.11-.41-3.62,.19-7.23,1.09-10.53,2.58-1.53,.69-2.97,1.52-4.21,2.66-1.11,1.02-2.06,2.23-2.75,3.58-.44,.84-.83,1.77-1.08,2.72-.28,.07-.55,.15-.82,.23-2.82,.85-5.45,2.18-7.89,3.8-.15,.1-.31,.21-.46,.31-1.74,1.19-3.39,2.52-4.96,3.93-.98,.88-1.94,1.8-2.87,2.73-.45,.45-.92,.89-1.33,1.37-.35,.41-.58,.88-.51,1.44,.2,1.54,1.74,2.25,3.16,2.13,.16,.33,.36,.65,.58,.94,.58,.77,1.33,1.43,2.1,2.01,1.8,1.36,3.87,2.42,5.9,3.38,2.26,1.08,4.62,1.92,7.12,2.26,.12,.02,.24,.03,.36,.05,.04,.06,.08,.13,.12,.19,.79,1.26,1.74,2.4,2.82,3.41,.62,.58,1.28,1.12,1.98,1.6,.16,.11,.35-.04,.36-.2,.08-1.68-.33-3.28-1.02-4.77,1.07,0,2.14-.03,3.21-.08,1.92-.08,3.83-.24,5.73-.55,.88,.28,1.77,.55,2.66,.81,.7,.2,1.41,.41,2.11,.61,.34,.1,.67,.2,1.01,.29,.35,.1,.7,.22,1.06,.26,.66,.06,1.21-.33,1.72-.7,.5-.37,.98-.77,1.42-1.21,.93-.9,1.73-1.9,2.51-2.93,.41-.55,.82-1.1,1.23-1.66,.82-.36,1.64-.73,2.45-1.1,.74,.45,1.52,.84,2.31,1.22,.5,.24,1.01,.5,1.53,.68,.53,.19,1.04,.16,1.5-.18,.75-.54,1.34-1.32,1.82-2.1,.5-.81,.88-1.68,1.24-2.55,.12-.27,.23-.55,.34-.83,.66-.25,1.33-.48,2-.71,.14,0,.28,0,.42,0,1.11,0,2.21,.08,3.31,.21,3.42,.4,6.76,1.33,10.04,2.34,1.87,.58,3.73,1.19,5.6,1.77,.23,.07,.4-.23,.23-.39-1.91-1.85-4.1-4.07-3.95-6.94,.07-1.4,.87-2.55,1.78-3.56,.92-1.03,1.92-1.99,2.97-2.88,1.21-1.02,2.51-1.95,3.87-2.77,.22-.13,.13-.49-.13-.49ZM7.17,21.77c-.41,0-.74,.33-.74,.74,0,.02,0,.03,0,.05-.07-.15-.11-.31-.11-.49,0-.62,.5-1.12,1.12-1.12s1.12,.5,1.12,1.12-.5,1.12-1.12,1.12h-.01c.28-.11,.47-.37,.47-.69,0-.41-.33-.74-.74-.74Z"/>
  </g>
</svg>