<?xml version="1.0" encoding="UTF-8"?>
<svg id="Layer_2" data-name="Layer 2" xmlns="http://www.w3.org/2000/svg" viewBox="0 0 78.06 66.16">
  <defs>
    <style>
      .cls-1 {
        fill: #808080;
      }
    </style>
  </defs>
  <g id="Layer_1-2" data-name="Layer 1">
    <path class="cls-1" d="M78.06,40.9c-.07,.3-1.73,7.37-3.67,10.76-1.51,2.64-4.38,5.63-6.34,7.26-.03,.05-.08,.1-.14,.12h0c-.58,.48-1.07,.83-1.41,.99-.45,.22-1.14,1.28-1.81,2.3-1.11,1.69-2.36,3.6-3.65,3.81-.08,.01-.16,.02-.24,.02-.32,0-.63-.11-.91-.33-2.21-1.71-1.45-11.43-1.32-12.81-.64-1.84-2.42-2.36-2.67-2.43-.37,0-.75,.01-1.13,.01-.82,0-1.65-.02-2.48-.06,1.47,1.34,3.97,4.55,4.1,4.7,0,0,0,0,0,.01,0,.01,.02,.02,.02,.04,0,0,0,.01,0,.02,0,.01,0,.03,.01,.04,0,0,0,.01,0,.02,0,.02,0,.03,0,.05h0s0,.05,0,.07c0,0,0,0,0,0h0s-.02,.05-.03,.07c0,0,0,.01-.01,.02-.01,.02-.03,.03-.04,.04,0,0-.01,.01-.02,.01-.02,.01-.04,.03-.07,.04h0s-.13,.03-.36,.03c-.6,0-2.12-.15-5.86-1-5.02-1.14-8.55-4.88-9.11-5.51-3.64-.65-6.14-1.28-6.2-1.3-2.16-.64-4.17-1.38-6.02-2.21,.11,.43,.19,.99,.02,1.33-.04,.08-.09,.16-.14,.26-.28,.49-.69,1.23-.35,1.92,.54,1.08-.21,2.61-.24,2.67-.05,.1-.14,.15-.24,.15-.04,0-.07,0-.11-.02-8.94-4-12.96-15.77-13.25-16.63-2.9-3.23-4.79-6.4-5.97-8.79l-.1-.2c-.95-1.9-5.83-9.21-7.25-10.87C.13,14.42-.22,13.4,.14,12.8c.21-.37,.65-.51,1.2-.4,.14,.03,.29,.1,.44,.19-.4-.86-.85-1.91-1-2.53-.25-1,.19-1.97,.26-2.11,.05-.15,.23-.31,.79-.57,2-.93,7.86-2.6,15.06-3.15,1.51-.11,3.19-.18,4.99-.17,.05-.01,.1-.02,.16,0,0,0,0,0,0,0,1.65,.02,3.4,.11,5.2,.31,.47-.25,2.84-1.49,5.28-2.58,5.03-2.24,6.07-1.93,6.41-1.42,.52,.79,.26,1.52,.05,2.1-.24,.67-.37,1.04,.34,1.45,.62,.36,1.4,.58,2.16,.8,1.31,.38,2.55,.74,3.05,1.75,.3,.6,1.17,.89,2,1.17,.98,.33,2,.67,2.15,1.58,.12,.7,1.33,1.27,2.3,1.73,.89,.42,1.54,.73,1.58,1.19,0,0,0,0,0,.01,0,.01,0,.02,0,.03,0,.58,1.37,2.7,2.28,3.16,1.07,.54,3.07,1.53,3.07,2.92,0,.12,.01,.22,.03,.33,0,.01,0,.03,0,.04,.11,.54,.43,.99,.77,1.47,.22,.3,.44,.61,.62,.96,.55,1.11,1.78,3.77,1.2,4.65-.19,.29-.52,.39-.89,.39-.41,0-.88-.13-1.26-.27,.25,.49,.49,.98,.71,1.45,1.28-.18,9.01-1.15,11.56,.47,1.7,1.09,1.45,1.68,.76,2.81-.34,.56-.78,1.29-1.1,2.39,0,.01,0,.03,0,.05,0,.02-.01,.03-.02,.05-.09,.32-.17,.67-.24,1.06-.33,1.95-1.18,3.31-2.47,3.92-.54,.26-1.14,.39-1.81,.39-1.11,0-2.37-.36-3.74-1.07,.01,.23,.01,.44,0,.62-.12,1.99,.29,3.49,1.17,4.33,.52,.49,1.2,.75,1.98,.75,.02,0,.05,0,.07,0,.12,0,.24,0,.37-.02,2.15-.24,12.02-2.4,12.12-2.43,.09-.02,.19,0,.25,.07s.09,.16,.07,.26Z"/>
  </g>
</svg>