<?xml version="1.0" encoding="UTF-8"?>
<svg id="Layer_2" data-name="Layer 2" xmlns="http://www.w3.org/2000/svg" viewBox="0 0 84.55 71.81">
  <defs>
    <style>
      .cls-1 {
        fill: #808080;
      }
    </style>
  </defs>
  <g id="Layer_1-2" data-name="Layer 1">
    <path class="cls-1" d="M83.31,34.64c.76,3.01-.85,4.83-3.01,6.58-3.11,2.53-6.51,4.58-10.21,6.15-1.66,.7-3.31,1.45-4.95,2.21-1.11,.52-1.83,1.36-2.16,2.54-1.69,6.14-5.88,12-12.18,13.83-1.08,.32-2.1,.54-2.83-.21-.11-.11-.22-.23-.32-.39-.31-.49-.39-1.29-.3-1.92,.49-3.16,2.11-5.43,4.19-7.77,.88-.98,1.76-2.31,2.62-3.98l-3.18,.16c-.06,0-.1,.01-.15,.04-.94,.67-1.9,1.18-2.9,1.54-.19,.06-.31,.18-.36,.34-1.63,5.72-4.62,11.4-9.47,14.95-1.98,1.45-4.32,2.39-6.7,2.93-.64,.15-1.12,.16-1.44,.06-.25-.08-.44-.2-.59-.35-.03-.02-.05-.05-.07-.08,0,0-.01-.01-.02-.02-.51-.59-.35-1.55,.2-2.26,.76-.97,1.89-2.04,2.05-3.37,.24-1.96,.53-3.63,1.35-5.42-.17,.04-.35,.09-.52,.13-1.8,.46-3.63,.84-5.47,1.13-.03,0-.06,0-.08,0-.13,0-.25-.05-.33-.16-.03-.01-.06-.03-.07-.06-.03-.02-.05-.04-.06-.07-.07-.3-.06-.6,.01-.9,.48-1.74,.79-3.86,1.11-5.24,.76-3.26,2.62-5.97,5.22-8.05,.02-.02,.03-.04,.02-.06-3.22-2.2-6.46-5.18-10.36-6.31-1.77-.51-3.89-.06-4.95,1.68-1.65,2.69-3.11,5.24-5.24,7.59-1.38,1.53-2.18,3.44-3.05,5.31-1.15,2.51-3.65,4.53-6.15,6-.66,.39-1.38,.61-2.02,.12-.09-.07-.17-.14-.23-.22-.48-.53-.41-1.3-.37-2.13,.09-1.9,.13-3.74-.04-5.69C.19,52,0,50.55,0,49.37c-.01-2.44,.48-4.74,1.48-6.94,.47-.89,.74-1.51,.83-1.78,0-.03,.02-.05,.02-.07,0,0,0,0,0,0,.47-1.63,.17-2.96-.21-4.87,0-.03-.01-.07-.02-.1-.26-1.27-.33-2.46-.25-3.61,0-.02,0-.04,0-.06,0-.08,.01-.17,.02-.25,0-.02,0-.04,0-.07,0-.08,.02-.16,.03-.25,0,0,0,0,0,0,.24-1.95,.94-3.8,1.99-5.75,.28-.52,.19-.85,.03-1.38-.04-.11-.07-.23-.11-.34-.07-.21-.14-.42-.21-.63-.55-1.6-1.1-3.16-1.29-4.97-.06-.55-.04-1.63,.06-3.23,.15-2.32-.4-3.98-1.06-6.02-.75-2.27,1.23-2.47,2.65-1.48,1.3,.91,2.11,2.02,2.68,3.27,.58,1.27,.91,2.68,1.24,4.15,.02,.07,.04,.14,.06,.21,.38,1.14,1.52,2.17,2.47,2.79,1.36,.9,2.89,1.84,4.01,2.81,2.72,2.36,4.12,5.07,5.27,8.46,.01,.06,.04,.09,.09,.12,.58,.42,2.04-.33,2.56-.7,1.23-.87,2.33-1.89,3.29-3.05,.9-1.08,1.78-2.3,2.65-3.25,.82-.9,1.69-1.74,2.59-2.51,.07-.06,.12-.16,.12-.25,.07-1.77,.1-3.77-.44-5.42-.78-2.31-2.72-3.97-3.87-6.1-.4-.74-.73-1.51-.98-2.29-.57-1.72-.79-3.53-.66-5.45,0-.07,.04-.12,.12-.13,.93-.15,1.63-.04,2.63,.22,1,.27,2.81,.79,3.8,.52,1.12-.3,2.26-.31,3.4-.04,.04,0,.09,0,.13-.03,2.14-1.56,5.45-.84,7.38,.55,.97,.7,1.8,1.27,2.5,1.71,.91,.57,1.51,.97,1.8,1.21,2.24,1.89,3.17,4.21,4.65,6.79,.01,.04,.06,.06,.1,.06,2.83-.21,5.61-.13,8.34,.21,8.47,1.08,15.98,6.06,20.82,13,.21,.3,.45,.58,.75,.85,1.08,1.01,2.53,2.71,2.95,4.22,.03,.12,.06,.23,.08,.34,.27,1.45-.46,3.04-1.2,4.3-.03,.04-.04,.13-.04,.25,0,.03,0,.07,0,.1,.01,.04,.03,.09,.05,.15Z"/>
  </g>
</svg>