<?xml version="1.0" encoding="UTF-8"?>
<svg id="Layer_2" data-name="Layer 2" xmlns="http://www.w3.org/2000/svg" viewBox="0 0 60.18 42.52">
  <defs>
    <style>
      .cls-1 {
        fill: #808080;
      }
    </style>
  </defs>
  <g id="Layer_1-2" data-name="Layer 1">
    <path class="cls-1" d="M59.56,37.11c.91,.91,.84,1.02-.36,1.54-3.08,1.36-6.31,1.98-9.65,1.83-4.42-.2-8.75-.92-12.86-2.65-.77-.32-1.07-.11-1.31,.61-.37,1.13-.78,2.26-1.23,3.36-.12,.29-.49,.49-.74,.73-.21-.28-.51-.54-.6-.86-.38-1.39-.74-2.79,.5-3.99,.52-.51,.47-.9-.25-1.24-1.29-.6-2.56-1.24-3.81-1.92-1.53-.83-3.07-1.66-4.54-2.58-.68-.43-1.3-.53-2.07-.34-1.96,.5-3.93,.93-5.9,1.36-.18,.04-.39-.07-.59-.12,.16-.13,.31-.31,.49-.37,1.74-.57,3.5-1.1,5.23-1.7,.85-.29,.78-.31,.19-.94-.84-.89-1.63-1.01-2.76-.42-1.55,.81-3.25,.94-4.95,.38-.25-.08-.45-.36-.67-.55,.22-.13,.43-.31,.67-.39,1.12-.38,2.3-.64,3.37-1.13,1.11-.51,1.08-.79,.33-1.74-1.16-1.48-2.28-2.99-3.44-4.47-.25-.31-.59-.55-.87-.84-.21-.22-.51-.43-.57-.69-.13-.52-.28-.86-.91-.71-.14,.03-.45-.07-.47-.17-.2-.81-.61-1.27-1.46-1.57-.31-.11-.36-.99-1.07-.41,0,0-.42-.32-.45-.52-.06-.46-.13-.71-.65-.41-.08,.05-.38-.1-.42-.22-.41-1.25-.74-.27-.95,.07-.35,.58-.59,1.24-.88,1.86-.68,1.45-1.36,2.91-2.05,4.36-.12,.24-.28,.49-.48,.67-.14,.13-.38,.15-.58,.22-.04-.17-.14-.35-.12-.51,.06-.36,.18-.71,.27-1.07,.54-2.09,1.05-4.18,1.62-6.25,.47-1.71,.36-3.38-.32-4.99C3.06,7.51,1.81,4.7,.58,1.89,.39,1.46,.17,1.06,.02,.63c-.06-.18,.03-.42,.05-.63,.18,.11,.44,.18,.54,.34C1.62,1.98,2.65,3.61,3.59,5.29c.98,1.76,1.86,3.59,2.81,5.36,.63,1.16,1.01,1.29,2.49,1.22,.27-.01,.76,.39,.8,.34,.5-.67,1.17-.22,1.75-.32,.27-.05,.56,0,.83-.05,.2-.04,.39-.16,.59-.24,.21-.09,.48-.31,.6-.25,.41,.21,.74,.45,.89-.24,.02-.08,.13-.2,.17-.19,.45,.08,1.07,.41,1.31,.22,.34-.25,.43-.77,1.05-.54,.15,.05,.43-.17,.61-.32,.13-.11,.18-.31,.26-.47,1.18,.75,1.28-.61,1.9-.96,.11-.06,.27-.03,.4-.04-.84-1.01-1.61-2.1-2.54-3.01-1.08-1.06-2.31-1.96-3.46-2.93-.32-.27-.63-.54-.9-.85-.1-.11-.08-.32-.12-.49,.17-.03,.37-.13,.51-.08,.56,.19,1.13,.39,1.65,.67,2.11,1.14,4.05,2.51,5.81,4.14,.81,.75,1.64,1.47,2.49,2.17,.75,.62,.86,.62,1.35-.18,.52-.85,1.26-1.21,2.2-1.09,1.54,.18,3.07,.49,4.61,.66,1.13,.12,2.28,.16,3.42,.1,1.27-.06,2.15-.65,2.36-2.04,.07-.45,.36-.86,.55-1.29,.17,.45,.39,.88,.49,1.34,.47,2.24,.93,4.49,1.36,6.74,.16,.84,.58,1.38,1.32,1.81,3.35,1.93,6.6,3.99,9.22,6.89,.47,.52,.96,.59,1.6,.39,1.4-.44,2.81-.84,4.22-1.26,.31-.09,.61-.22,.92-.28,.15-.03,.32,.08,.48,.13-.09,.14-.16,.35-.29,.4-1.24,.48-2.49,.94-3.74,1.39-1.75,.62-1.79,.67-.48,1.95,2.41,2.34,4.68,4.8,6.39,7.72,.14,.24,.29,.47,.44,.7,.34,.52,.23,.87-.4,.97-.5,.08-1,.08-1.5,.16-.47,.07-.93,.19-1.39,.29,.29,.4,.53,.83,.87,1.18,.67,.69,1.41,1.32,2.09,2Z"/>
  </g>
</svg>