<?xml version="1.0" encoding="UTF-8"?>
<svg id="Layer_2" data-name="Layer 2" xmlns="http://www.w3.org/2000/svg" viewBox="0 0 86.9 64.78">
  <defs>
    <style>
      .cls-1 {
        fill: #808080;
      }
    </style>
  </defs>
  <g id="Layer_1-2" data-name="Layer 1">
    <path class="cls-1" d="M75.07,13.5c1.1,.94,2.31,1.75,3.29,2.81,1.06,1.14,1.96,2.43,2.85,3.7,.42,.6,.85,1.2,1.24,1.82,.87,1.38,1.59,2.85,2.15,4.39,.16,.44,.3,.89,.28,1.35-.02,.44,.05,.82,.07,1.23,.02,.43-.28,.81-.13,1.26,.08,.24,.32,.51,.46,.73,.38,.61,.76,1.22,1.07,1.87,.47,.98,1.12,2.73-.39,3.13-.73,.19-1.47-.23-2.08-.66-.84-.59-1.25-1.47-2.15-1.95-1.76-.94-3.77-1.3-5.59-2.13-1.28-.58-2.45-1.39-3.69-2.05-1.24-.67-2.58-1.32-3.99-1.3-1,1.69-2.8,2.75-4.61,3.53-.56,.24-1.13,.47-1.72,.61-1.05,.25-2.15,.22-3.23,.13-2.35-.2-4.76-.76-6.65-2.17-.21-.16-.44-.41-.34-.66,.08-.18,.31-.25,.5-.28,1.03-.2,2.07-.39,3.05-.77,.98-.37,1.91-.94,2.55-1.77-2.93-.12-5.87-.07-8.79,.14-2.8,.2-5.69,.43-8.41,1.11-2.36,.59-4.73,1.19-7.09,1.78-1.39,.35-2.8,.71-4.02,1.44-1,.6-1.84,1.42-2.68,2.23-3.24,3.17-6.52,6.39-8.78,10.32-1.31,2.28-2.26,4.76-3.11,7.25,.31,.91,.94,1.46,1.45,2.28,1.11,1.76,1.95,3.71,2.3,5.76,.35,2.05,.19,4.21-.63,6.12-.21,.13-.43-.14-.51-.38-.23-.68-.31-1.42-.59-2.08-.4-.96-1.2-1.72-2.13-2.2-.92-.48-1.96-.7-3-.79-.43-.04-.93-.08-1.19-.44-.19-.27-.19-.63-.15-.95-.23,.52-.76,.92-1.32,.98-.64,.06-1.23-.33-1.82-.57-1.4-.57-3.14-.35-4.55,.05-1.2,.34-1.97,1.59-2.63,2.58-.06,.09-.23,0-.3-.08-.07-.08-.07-.21-.06-.32,.03-.53,.19-1.05,.45-1.51,.94-1.66,1.63-3.41,2.9-4.84,2.03-2.28,4.87-3.65,7.63-4.96,.14-.07-.15-3.22-.15-3.57,0-1.17,.13-2.34,.09-3.5-.03-1.04,.31-2.11,.55-3.12,1.45-6.08,4.89-11.21,8.53-16.15,.8-1.08,1.55-2.23,2.49-3.18,1.08-1.1,2.2-2.16,3.33-3.2,2.27-2.09,4.61-4.1,6.94-6.11,.64-.55,1.28-1.11,1.8-1.79,.51-.67,.89-1.48,.91-2.32,.02-.67-.09-1.05-.43-1.62-.53-.89-1.19-1.78-2.16-2.14-.26-.1-.54-.15-.8-.27-.25-.12-.48-.34-.53-.62-.07-.48,.41-.84,.85-1.04,1.62-.71,3.47-.73,5.2-.37,1.73,.36,3.36,1.09,4.97,1.82,1.96,.9,3.71,2.78,5.87,3.01,1.77,.19,3.55,.27,5.33,.39,1.7,.11,3.36,.31,5.04,.56,2.08,.31,4.13,1.08,6.07,1.9,1.85,.78,3.68,1.63,5.46,2.56,1.58,.82,3.11,1.67,4.47,2.81,.09,.07,.17,.14,.26,.22Z"/>
  </g>
</svg>