<?xml version="1.0" encoding="UTF-8"?>
<svg id="Layer_2" data-name="Layer 2" xmlns="http://www.w3.org/2000/svg" viewBox="0 0 116.98 30.65">
  <defs>
    <style>
      .cls-1 {
        fill: #808080;
      }
    </style>
  </defs>
  <g id="Layer_1-2" data-name="Layer 1">
    <path class="cls-1" d="M53.23,30.48c.22-.09,.45-.18,.67-.27,.22-.09,.45-.17,.68-.26,.24-.09,.48-.18,.7-.3,.2-.11,.47-.1,.64-.35-.39-.07-.77,.03-1.15-.1,.06-.07,.11-.13,.16-.19-.03-.02-.05-.05-.08-.05-.55-.09-1.11-.18-1.66-.27-.1-.02-.22,0-.28-.15,.07-.12,.2-.11,.32-.13,.54-.09,1.09-.16,1.63-.26,.74-.14,1.47-.3,2.2-.45,.38-.08,.69-.27,1.02-.5-.29-.26-.55-.46-.98-.43-1.55,.11-3.1,.21-4.65,.05-.69-.07-1.37-.22-2.05-.36-.27-.05-.52-.06-.78,.03-.45,.15-.88,.32-1.27,.62-.29,.23-.63,.41-.96,.58-.13,.07-.3,.09-.45,.08-.48,0-.93,.13-1.37,.3-1.19,.46-2.4,.87-3.64,1.18-.7,.18-1.38,.46-2.07,.7-.78,.27-1.58,.49-2.41,.55-.05,0-.11,.01-.16,0-.89-.03-1.78-.05-2.67-.1-.23-.01-.45-.13-.67-.14-.53-.04-1.06-.04-1.58-.06-.33-.02-.66-.07-.98-.09-.25-.02-.5,0-.76-.01-.17,0-.36,.01-.52-.04-.45-.14-.91-.13-1.37-.11-.34,.01-.68,.06-1.02,.1-.16,.02-.31,0-.44-.1-.26-.22-.56-.23-.88-.21-.3,.02-.59,.05-.89,.08-.12,0-.24,0-.36,0-.15,0-.28-.06-.34-.22-.07-.18-.21-.23-.39-.25-.18-.01-.35-.02-.53-.06-.17-.03-.33-.11-.5-.15-.15-.03-.31-.08-.44-.05-.41,.1-.81,.06-1.22,.04-.03,0-.07,0-.1-.01-.38-.24-.85-.22-1.25-.4-.27-.12-.52-.28-.78-.43-.05-.03-.1-.06-.15-.06-.21-.03-.35-.11-.31-.37,0-.07-.06-.17-.13-.21-.13-.07-.28-.15-.43-.15-.5-.02-.8-.31-1.03-.72-.06-.11-.13-.24-.23-.31-.38-.29-.38-.28-.22-.7,0-.02,0-.05-.02-.06-.26-.28-.26-.32-.04-.64,.17-.24,.18-.25,0-.48-.14-.18-.14-.36-.08-.56,.05-.17,.08-.34,.12-.51,.09-.38,.28-.72,.52-1.02,.18-.23,.35-.48,.51-.73,.05-.07,.05-.19,.05-.28,0-.28,.04-.54,.22-.77,.07-.09,.12-.21,.14-.33,.12-.56,.22-1.12,.35-1.68,.04-.16,.13-.3,.2-.45,.08-.19,0-.34-.2-.28-.67,.21-1.34,.43-2,.66-.11,.04-.19,.15-.29,.21-.2,.13-.41,.25-.62,.36-.12,.07-.26,.12-.38,.21-.69,.54-1.47,.93-2.25,1.31-1.44,.7-2.94,1.26-4.47,1.72-.75,.22-1.52,.39-2.31,.4-.54,0-1.08,0-1.62-.06-.46-.05-.9-.19-1.27-.5-.12-.1-.3-.14-.45-.19-.32-.12-.43-.18-.4-.51,.02-.17-.07-.29-.21-.38-.24-.16-.29-.38-.21-.64,.09-.27,.04-.46-.21-.62-.22-.14-.32-.35-.29-.62,.01-.1,0-.24-.05-.32-.15-.21-.24-.44-.27-.7-.02-.15-.12-.26-.25-.33-.2-.09-.24-.25-.27-.46-.04-.32-.09-.63-.16-.94-.03-.14-.11-.29-.2-.41-.09-.12-.12-.24-.13-.39,0-.32-.04-.64-.06-.95-.01-.17-.12-.27-.27-.35-.14-.08-.21-.21-.12-.36,.27-.46,.11-.91-.03-1.34-.09-.27-.14-.47,.12-.67,.16-.13,.16-.32,.06-.51-.15-.3-.12-.36,.16-.53,.04-.02,.08-.04,.12-.06,.59-.24,.98-.73,1.4-1.18,.11-.13,.26-.23,.42-.3,.35-.15,.67-.32,.97-.56,.15-.12,.34-.21,.53-.26,.88-.24,1.77-.35,2.68-.38,.39-.01,.79,.02,1.19,.08,1.47,.21,2.94,.45,4.41,.66,.56,.08,1.11,.14,1.67,.22,.27,.04,.54,.09,.81,.17,.41,.13,.81,.26,1.26,.17,.22-.05,.46,0,.69-.01,.86-.01,1.72-.02,2.58-.04,.04,0,.08-.03,.13-.05-.05-.4-.19-.72-.53-.95-.33-.22-.64-.45-.78-.84-.03-.09-.15-.15-.24-.24,0-.08,0-.18,.01-.27-.04-.03-.07-.06-.09-.06-.25-.01-.43-.14-.6-.31-.16-.18-.33-.36-.51-.51-.18-.16-.38-.3-.58-.42-.21-.13-.42-.25-.4-.55,0-.03,0-.07-.01-.1-.11-.26-.22-.52-.35-.77-.15-.28-.16-.53-.01-.82,.19-.36,.33-.75,.55-1.09,.25-.41,.61-.71,1.12-.8,.2-.04,.4-.11,.61-.16,.19-.05,.38-.12,.57-.16,.41-.09,.81-.19,1.22-.25,.63-.09,1.27-.12,1.9-.25,.87-.17,1.75-.15,2.63-.23,.41-.04,.81-.06,1.22-.1,.14-.01,.28-.05,.41-.11,.27-.13,.54-.18,.83-.18,.61,.01,1.21,.03,1.82,.04,.1,0,.2,0,.32,0,.04-.22,.18-.28,.39-.26,.33,.03,.66,.03,.99,.03,.09,0,.23-.02,.26-.08,.1-.17,.23-.13,.38-.11,.61,.09,1.22,.18,1.83,.25,.2,.03,.42,.1,.55-.16,.03-.05,.18-.05,.27-.04,.25,.04,.5,.09,.74,.16,.81,.21,1.64,.31,2.48,.38,.46,.04,.92,.11,1.37,.22,.45,.1,.9,.11,1.35,.06,.8-.09,1.59-.22,2.39-.32,.19-.02,.37-.04,.56-.06,.66-.06,1.32-.12,1.98-.16,.43-.03,.86-.03,1.29-.03,.36,0,.73,.01,1.09,.01,2.23,0,4.45,0,6.68-.01,.89,0,1.79-.01,2.68-.01,1.05,0,2.09,.02,3.14,.02,.26,0,.53,0,.79,0,1.22,.01,2.45,.03,3.67,.04,1.25,.01,2.49,.02,3.74,.02,1.17,0,2.33-.02,3.5,.09,.81,.08,1.63,.08,2.44,.12,.83,.04,1.65,.04,2.47,.12,1,.1,2,.02,3,.11,.8,.07,1.6,.15,2.4,.24,.68,.07,1.35,.16,2.03,.24,1.2,.14,2.4,.34,3.59,.58,1.36,.28,2.72,.55,4.07,.84,1.24,.26,2.48,.53,3.71,.82,1.83,.43,3.64,.94,5.45,1.46,.93,.27,1.88,.45,2.83,.66,.55,.13,1.1,.24,1.64,.37,1.19,.28,2.38,.56,3.57,.84,.91,.22,1.82,.42,2.73,.66,.54,.14,1.07,.34,1.6,.51,.19,.06,.36,.17,.46,.35,.14,.24,.36,.38,.62,.45,.12,.03,.24,.07,.34,.13,.09,.05,.2,.14,.21,.23,.06,.34,.39,.39,.6,.58,.05,.04,.21-.02,.3-.06,.27-.13,.53-.28,.79-.41,.1-.05,.22-.07,.33-.1l.03,.07c-.05,.05-.1,.1-.15,.14-.22,.16-.45,.32-.66,.49-.08,.06-.12,.16-.22,.3,.41,.08,.75,.16,1.09,.22,.29,.06,.59,.09,.88,.15,.14,.03,.31,.06,.35,.3-.11,.01-.22,.04-.31,.03-.92-.07-1.84-.14-2.77-.22-.28-.02-.46,.06-.62,.31-.7,1.04-1.41,2.08-2.15,3.09-.51,.7-1.04,1.4-1.61,2.06-.58,.67-1.19,1.34-1.85,1.93-.84,.74-1.68,1.49-2.7,2.01-.41,.21-.82,.43-1.24,.62-.71,.31-1.35,.75-2.01,1.14-.59,.35-1.15,.73-1.75,1.07-.86,.49-1.78,.81-2.74,1.03-.85,.2-1.71,.32-2.58,.4-1.13,.11-2.26,.2-3.39,.32-.5,.05-1.01,.13-1.5,.25-1.36,.32-2.72,.67-4.1,.89-.58,.09-1.16,.16-1.73,.24-.73,.11-1.46,.24-2.19,.34-1.02,.13-2.04,.23-3.05,.35-.37,.04-.75,.07-1.12,.11-.1,0-.2,.03-.3,.03-.68-.05-1.36,.03-2.04,.07-.65,.04-1.3,0-1.95,0-.96-.02-1.92-.03-2.88-.06-1.17-.04-2.33-.1-3.49-.26-.65-.09-1.26,.05-1.8,.4-.99,.64-2.08,1.05-3.16,1.5-.16,.07-.32,.14-.48,.21-1.17,.56-2.4,.92-3.67,1.21-.69,.16-1.37,.32-2.07,.45-.34,.07-.7,.09-1.05,.13-.25,.03-.5,.06-.75,.08-.16,.01-.33,.02-.49,.02-.08,0-.15-.06-.22-.09,0-.03,0-.05,0-.08Z"/>
  </g>
</svg>