<?xml version="1.0" encoding="UTF-8"?>
<svg id="Layer_2" data-name="Layer 2" xmlns="http://www.w3.org/2000/svg" viewBox="0 0 110.17 38.35">
  <defs>
    <style>
      .cls-1 {
        fill: #808080;
        fill-rule: evenodd;
      }
    </style>
  </defs>
  <g id="Layer_1-2" data-name="Layer 1">
    <path class="cls-1" d="M103.89,31.53c-1.51-.35-2.93-.8-4.38-1.28-1.41-.47-2.81-.91-4.17-1.5-.97-.42-1.93-.84-3.03-1.21-.34-.11-.66-.29-1-.39-.47-.14-1.08-.15-1.64-.22-1.59-.19-3.45-.41-5.06-.5-3.26-.17-6.17,.43-8.87,.89,.26,.51,1.15,.39,1.71,.61,.26,.31,.15,.72,.21,1.14,.06,.4,.34,.67,.29,1.07-.03,.23-.31,.35-.36,.61-.07,.34,.16,.55,.07,.93-.33,.37-.82,.63-1.03,1.17-.04,.1-.02,.22-.07,.32-.14,.29-.5,.67-.78,.89-.24,.19-.58,.24-.85,.43-.35,.24-.62,.76-1.1,.93-.49,.17-1.14,.05-1.64-.39-2.05-.52-3.74-1.4-5.35-2.37,.05,.05,.1,.1,.14,.15,0,0,0,.02,.01,.02-.11-.07-.23-.15-.34-.23,.36,.43,.97,.65,1.58,.97,.22,.12,.92,.41,.93,.61,0,.27-.54,.33-1,.29-.55-.06-1.16-.38-1.67-.64-.51-.26-1-.48-1.46-.86-.44-.35-.81-.76-1.21-1.1-.49-.43-1.11-1.07-1.85-1.1-.35-.02-.84,.16-1.29,.25-2.99,.62-5.85,1.19-9.3,1.32-4.55,.16-8.75-.07-13.07-.29,.55,.62,2.16,.47,3.07,.86,.07,.13,.09,.29,0,.43,.2,.1,.39,.21,.57,.32-.07,.22,.19,.4,.21,.64,.02,.16-.08,.3-.07,.46,.04,.44,.59,.95,.68,1.5,.06,.36,.19,1.45-.18,1.53-.24,.06-.27-.12-.46-.14-.95,.1-1.74-.22-2.5-.43,0,.6-.66,.55-.93,.89h-.39c-.26,.56-.97,.11-1.53-.14-.08-.04-.14-.08-.22-.12-.25-.09-.5-.23-.77-.41-1.75-.98-3.17-2.27-4.42-3.74-.24-.29-.45-.62-.71-.89-.24-.25-.78-.69-1.07-.78-.51-.16-1.2,0-1.74,0-.59,0-1.17-.1-1.75-.14-1.96-.15-4.18,.28-6.23,0-1.37-.19-2.72-.35-4.06-.57-1.28-.21-2.58-.53-3.78-.85-1.24-.33-2.48-.7-3.46-1.18-1.04-.51-1.89-1.34-2.85-1.85-2.07-.08-3.61-.85-4.78-1.92-.2-.19-.55-.55-.54-.82,.07-.43,.35-.62,.61-.85-.32-.27-.92-.52-1-.93-.09-.44,.19-.96,.43-1.24,.64-.77,2.04-1.4,3.13-1.85,2.35-.97,4.9-1.64,7.45-2.46,.63-.2,1.27-.43,1.92-.57,.68-.15,1.38-.2,2.07-.39,2.26-.63,4.07-2.01,5.88-3.03,1.95-1.1,4.01-2.02,6.31-2.56-.05-1.74,.13-3.39,.57-4.78,.07-.22,.16-.45,.21-.68,.05-.22,0-.53,.21-.68,.43,.15,.05,.85,.61,.82,.23-.01,.55-.52,.64-.78,.28-.79,.23-2.1,.61-2.56,.38,.13,.03,.77,.36,.93,.33-.06,.84-.58,1.14-1.07,.17-.29,.3-.99,.61-.93,.22,.05,.13,.26,.18,.43,.49,.17,1.06,.04,1.42-.25,.25-.2,.23-.59,.53-.68,.25,.08,.3,.37,.5,.5,1.09,.05,1.61-.35,2-1.03,.15,.07,.23,.01,.39,.07,.14,.08,.12,.33,.07,.5,.5,.2,1.13,.22,1.5-.03,.15-.11,.26-.47,.43-.5,.67-.1,.48,1.39,1.5,1.14,.21-.16,.24-.52,.46-.68,.12,.02,.23,.05,.39,.04,.11,.26,.07,.55,.21,.75,.29,.41,1.38,.61,1.78,.29,.39-.31,.32-.93,.86-1,.46,.28-.19,1.32,.32,1.68,.33,.05,.72,.04,.96,.18,.29-.17,.51-.61,.82-.64,.27,.22,.12,.66,.18,1,.06,.36,.27,.59,.39,.82,.38,.03,.54,.22,.85,.14,.2-.05,.3-.48,.54-.43,.34,.07,.09,.74,.14,1.07,.11,.64,1.26,1.24,1.96,.71,.15,.12,.29,.04,.46,.14,.02,.63,.07,1.24,.43,1.53,.56,.07,.81-.31,1.25-.25,.3,.48-.27,1.33,.29,1.67,.36,.22,1,.31,1.35,.14,.25,.43-.06,.83-.04,1.25,.05,.87,.88,1.76,1.89,1.82,.07,.09,.18,.13,.14,.32,.39,.03,.74,.09,1.11,.14,.74-.54,1.25-1.31,1.96-1.96,.66-.6,1.53-1.01,2.31-1.6,.72-.54,1.66-.93,2.64-1.28,.45-.17,.88-.47,1.39-.57,.69-.13,1.93-.28,2.35,.14,.57-.18,1.01,.39,1.42,.46,.39,.07,.81-.11,1.14-.07,.5,.06,.77,.44,1.17,.53,.35,.08,.72,0,1.07,.14,.71,.28,1.4,.98,2.1,1.28,.31,.13,.65,.01,1.07,.07,.14,.02,.22,.12,.39,.18,.26,.08,.6,.07,.85,.18,.18,.07,.34,.31,.57,.43,.13,.07,.28,.04,.39,.11,.15,.09,.2,.3,.32,.39,.14,.11,.58,.36,.75,.43,.29,.12,.62,.11,.85,.25,.28,.16,.4,.46,.85,.54,.24,.04,.48-.02,.71,.04,.24,.06,.39,.22,.61,.32,.41,.2,.93,.3,1.35,.57,.41,.26,.82,.65,1.14,.75,.18,.06,.37,0,.54,.04,.33,.08,.56,.32,.89,.39-.03,.23-.16,.36-.22,.57-1.43,.9-3.37,1.28-4.67,2.32,1.47,.22,3,.55,4.63,.6,1.68,.05,3.34-.14,4.95-.21,.25-.01,.49,.04,.71,0,.29-.05,.69-.26,1.03-.39,.97-.37,2.07-.85,2.88-1.32,3.28-1.91,6.98-3.38,11.54-3.95,.4-.05,.88-.02,1.24-.14,.18-.06,.36-.3,.64-.25,.19,.26-.05,.53-.07,.71-.02,.14,.04,.26,.04,.39-.02,.32-.18,.58-.32,.82-.14,.23-.41,.45-.46,.68-.05,.19,.04,.39,0,.57-.12,.45-.74,.76-1.03,1-.46,.52-.36,1.28-.75,1.89-.18,.27-.5,.48-.68,.78-.33,.54-.54,1.37-.68,2.1-.2,1.08-.33,2.25-.11,3.24,.13,.58,.22,.84,.57,1.25,.11,.12,.24,.28,.37,.39,.01,0,.02,.02,.03,.03,.04,.03,.07,.06,.1,.08,.27,.16,.68,.11,.71,.57,.28,.19,.7,.35,.96,.64,.16,.17,.2,.45,.32,.68,.22,.43,.64,.71,.75,1.14,.03,.14,0,.34,.04,.5,.04,.21,.25,.4,.32,.61,.05,.13,.02,.31,.07,.5,.09,.32,.33,.77,.5,1.1,.2,.41,.79,.93,.25,1.28-.21,.14-.53,.07-.78,.07-1.96,.04-3.71,.04-5.27-.32Z"/>
  </g>
</svg>