<?xml version="1.0" encoding="UTF-8"?>
<svg id="Layer_2" data-name="Layer 2" xmlns="http://www.w3.org/2000/svg" viewBox="0 0 71.29 41.15">
  <defs>
    <style>
      .cls-1 {
        fill: #808080;
        fill-rule: evenodd;
      }
    </style>
  </defs>
  <g id="Layer_1-2" data-name="Layer 1">
    <path class="cls-1" d="M31.5,7.14S55.58-1.55,70.94,3.95c0,0,.72,.29,.09,1.5-.63,1.21-3.79,5.15-6.88,6.56,0,0-.03,.52,.04,.97,.07,.45-7.64,7.07-15.01,9.15,0,0,2.38,4.82,1.31,7.95-1.07,3.13-2.9,3.28-2.9,3.28,0,0-3.1-7.28-4.44-7.65,0,0-.39-.4-.25-.89,0,0,3.28-2.13,4.6-2.49,0,0-.73,.05-2.43,1-1.7,.95-2.35,1.42-2.67,1.68-1.92,.74-9.04,3.36-13.24,3.54,.62-.85,2.62-3.6,3.52-4.93,1.07-1.58,2.11-4.06,2.11-4.06-.53,1.7-5.98,9-5.98,9,0,0-10.05,11.67-13.69,12.59,0,0-.55-.16,.31-1.17,.86-1,6.07-7.41,6.67-9.65,0,0,3.04-6.13,3.44-6.54,.4-.41,2.52-2.99,3.69-3.99,0,0-1.55,1.23-3.82,3.85l-3.41,6.52h0c-.2-.27-.66-.78-1.05-.7-.53,.11-.9,.43-.9,.43,0,0-2.49,3.84-4.96,4.55,0,0-.42,.12,.28-.94,.7-1.06,1.53-4.25,1.53-4.25,0,0-2.12,.05-2.54-.06,0,0-.46,.66-.8,.81,0,0-.17-1.18-.64-1.08s-1.93-.33-3.23,1.91c-1.3,2.24-2.47,5.91-4.23,6.66,0,0-.5,.3-.6-.25-.11-.55,1.38-3.95,1.19-4.86-.19-.91,.22-1.51,.22-2.38,0-.88-3.04-8.52-5.91-10.18,0,0-.95-.62,.28-.88,0,0,2.06-.25,4.77,2.03,2.7,2.28,4.66,4.43,7.19,2.49,0,0,.48-.16,.57-1,.09-.84,.13-1.51,.25-1.6,.11-.08,1.03,.93,1.52,.32,.49-.61,6.18-5.15,7.18-7,0,0,3.39-5.45,7.44-6.43,0,0-2.36,.29-5.38,3.34,0,0-1.14,1.12-1.69,2.17,.21-2.13,.95-10.62-.48-12.56,0,0-.52-.48,.15-.66s2.62-.18,3.71,.92c1.1,1.1,3.84,4.49,4.41,5.28,.57,.79,.68,1.2,1.23,.85h0Zm32.47,4.84s.46-.68,.49-.79c.28-1.31-16.59,4.05-7.66,1.73,.84-.22,3.1-.76,3.73-.8,.63-.04,3.47,.83,3.47,.83,0,0-.16-.9-.03-.96h0Z"/>
  </g>
</svg>