<?xml version="1.0" encoding="UTF-8"?>
<svg id="Layer_2" data-name="Layer 2" xmlns="http://www.w3.org/2000/svg" viewBox="0 0 90.7 31.93">
  <defs>
    <style>
      .cls-1 {
        fill: #808080;
      }
    </style>
  </defs>
  <g id="Layer_1-2" data-name="Layer 1">
    <path class="cls-1" d="M90.48,29.12c-.26-.77-.61-1.52-.98-2.24-1.54-2.98-3.86-5.54-6.65-7.39-.59-.39-1.21-.75-1.84-1.07,2.76-2.02,4.7-5.08,5.39-8.43,.18-.87,.27-1.75,.28-2.64,0-.75,0-1.64-.48-2.27-.46-.62-1.24-.69-1.88-.31-.76,.45-1.26,1.29-1.78,1.97-2.28,2.99-4.72,6.24-8.36,7.62-1.2,.46-2.45,.69-3.7,.76-.14,0-.28,.01-.41,.02-1.25,.04-2.5-.08-3.75-.29-.3-.18-.6-.37-.9-.55-1.04-.64-2.08-1.3-3.11-1.97-.09-.06-.18-.12-.27-.17-.29-.19-.59-.38-.88-.58-.05-.04-.11-.07-.16-.11-.04-.02-.07-.05-.11-.07-.27-.18-.54-.36-.8-.54-.09-.06-.18-.12-.27-.18-.34-.23-.69-.47-1.03-.7-.11-.08-.22-.15-.33-.23-.35-.25-.71-.49-1.06-.74-.14-.1-.28-.2-.42-.3-.09-.06-.17-.12-.26-.18-.32-.23-.64-.46-.95-.69-.11-.08-.22-.16-.33-.24-.24-.17-.48-.35-.71-.52-.04-.03-.07-.05-.11-.08-.07-.05-.14-.1-.21-.16-.23-.18-.48-.35-.78-.34-.37,.01-.72,.29-1.02,.46-1.35,.76-2.7,1.53-4.02,2.33h0c-2.99-.96-6.01-1.85-9.07-2.54h0c-.52-.68-1.1-1.33-1.71-1.93-.14-.15-.29-.29-.44-.43-.22-.21-.45-.41-.68-.61-.14-.13-.29-.25-.44-.37-.15-.12-.3-.24-.45-.36-.14-.11-.28-.22-.42-.32-.17-.13-.35-.26-.53-.39-.43-.31-.87-.6-1.32-.89-.06-.04-.12-.08-.19-.12-.11-.07-.22-.13-.33-.2-.44-.26-.9-.51-1.38-.7-.23-.09-.47-.18-.71-.24h0c-.23-.07-.47-.12-.71-.15-2.26-.32-4.28,1.18-5.97,2.48-1.3,1-2.56,2.11-3.67,3.34-2.98,.52-5.88,1.42-8.61,2.8-.08,.04-.16,.08-.25,.13-.08,.04-.16,.09-.25,.13-3.11,1.65-5.94,3.89-8.1,6.69-1.07,1.38-1.98,2.89-2.66,4.5-.3,.71-.7,1.51-.39,2.29,.1,.25,.26,.47,.46,.65-.62,.52-.89,1.44-.78,2.26,.2,1.55,1.66,2.41,3.02,2.86,1.85,.61,3.84,.94,5.75,1.3,.51,.1,1.02,.19,1.53,.28,.34,.06,.68,.12,1.02,.17,1.16,.19,2.33,.36,3.5,.51,8.3,1.06,16.73,1.09,25.05,.14,1.26-.14,2.53-.31,3.79-.5t0,0c.3,.14,.6,.27,.91,.4,.66,.28,1.33,.51,2.02,.71,1.33,.38,2.71,.63,4.1,.73,.7,.05,1.42,.03,2.1-.19,.31-.1,.62-.23,.91-.38,.1-.05,.21-.11,.31-.17,.17-.1,.33-.21,.49-.32,.22-.16,.43-.33,.63-.5,.15-.13,.29-.26,.43-.4,.18-.18,.35-.36,.52-.54,.12-.13,.23-.26,.34-.39,.32-.36,.62-.74,.92-1.11,.29-.36,.58-.72,.88-1.09,2-.58,3.99-1.16,6.01-1.64,1.7-.4,3.4-.68,5.11-.78,.27-.02,.55-.03,.82-.03,2.07-.04,4.13,.19,6.18,.82,1.87,.57,3.63,1.43,5.25,2.53,1.56,1.06,3,2.3,4.66,3.22,1.08,.6,3.27,1.75,4.2,.31,.4-.63,.26-1.46,.03-2.12ZM7.16,17.44c-.41,0-.75,.34-.75,.75,0,.02,0,.04,0,.06-.07-.15-.12-.32-.12-.5,0-.63,.51-1.14,1.14-1.14s1.14,.51,1.14,1.14-.51,1.14-1.14,1.14h-.01c.28-.11,.48-.38,.48-.7,0-.41-.34-.75-.75-.75Z"/>
  </g>
</svg>