<?xml version="1.0" encoding="UTF-8"?>
<svg id="Layer_2" data-name="Layer 2" xmlns="http://www.w3.org/2000/svg" viewBox="0 0 121.16 47.44">
  <defs>
    <style>
      .cls-1 {
        fill: #808080;
      }
    </style>
  </defs>
  <g id="Layer_1-2" data-name="Layer 1">
    <path class="cls-1" d="M121.06,26.03c-.22,.38-.35,.88-.67,1.12-4.6,3.5-9.65,6.14-15.34,7.23-3.64,.7-7.37,.93-11.06,1.39-.63,.08-1.24,.24-1.86,.38-1.1,.25-1.58,.95-1.49,2.08,.06,.79,.16,1.6,.04,2.37-.1,.64-.41,1.68-.78,1.76-.84,.16-1.96,.11-2.61-.35-.93-.66-1.61-1.7-1.49-3.06,.15-1.74,.1-1.71-1.47-1.62-2.85,.15-5.71,.48-8.54,.33-3.54-.19-7.12-.52-10.58-1.27-3.36-.73-6.08-.36-8.87,1.82-4.51,3.53-9.51,6.32-15.13,7.8-.77,.2-1.53,.5-2.31,.56-.7,.06-1.42-.13-2.14-.21,.52-.41,.99-.95,1.58-1.22,4.12-1.89,8.25-3.74,11.66-6.82,1.11-1,2.11-2.14,3.07-3.29,.21-.26,.02-.85,.02-1.29-.42,.1-.89,.11-1.25,.32-.4,.24-.65,.69-1.02,.98-1.22,.96-1.6,.93-2.13-.52-.38-1.03-.83-.72-1.4-.36-1.1,.7-2.08,1.35-2.65-.6-.26-.88-1.02-.45-1.58-.15-1.11,.61-2.16,1.28-2.64-.72-.23-.95-.92-.54-1.51-.22-.54,.3-1.18,.78-1.68,.69-.4-.08-.61-.95-1-1.38-.19-.21-.64-.37-.9-.3-.36,.09-.64,.45-.98,.65-.92,.53-1.68,.56-1.94-.71-.15-.71-.36-1.29-1.24-.76-1,.59-2.13,2.06-2.65-.43-.02-.07-.6-.15-.81-.03-.48,.27-.86,.71-1.34,.97-.31,.17-1.03,.24-1.06,.18-.8-2.24-1.8-.55-2.76-.2-.26,.09-.89-.09-.93-.26-.5-1.87-1.32-.86-1.9-.16-2.37,2.86-4.64,5.81-7.02,8.67-1.83,2.19-3.77,4.29-5.67,6.42-.26,.3-.53,.63-.86,.81-.59,.32-1.23,.54-1.85,.81,.14-.64,.12-1.36,.43-1.9,1.88-3.31,3.85-6.57,5.74-9.88,.75-1.31,1.33-2.7,2.04-4.03,1.5-2.8,1.17-5.3-1.07-7.59-2.66-2.73-5.26-5.51-7.9-8.25-.88-.91-1.86-1.74-2.69-2.7-.41-.47-.57-1.15-.85-1.74,.66,.12,1.41,.08,1.96,.39,1.85,1.07,3.73,2.14,5.42,3.44,3.27,2.51,6.42,5.17,9.62,7.76,.68,.55,1.37,1.08,2.08,1.58,.32,.23,.79,.62,1.03,.52,1.57-.61,3.28-.34,4.84-.89,.5-.18,1.03-.7,1.44-.6,1.22,.28,2.13,.18,2.77-1.05,.11-.2,.73-.26,1.08-.19,.99,.18,1.85,.23,2.57-.69,.23-.3,.88-.5,1.26-.41,1.12,.27,2.03,.34,2.54-.96,.08-.21,.55-.41,.8-.37,1.39,.23,2.69,.36,3.48-1.19,.07-.14,.45-.25,.64-.2,1.55,.4,2.77,.08,3.51-1.47,.05-.11,.29-.21,.42-.19,1.57,.36,2.75,0,3.29-1.67,2.16,.56,3.18-1.24,4.6-2.21,.17-.12,.53,.01,.68-.11,.12-.1,.15-.56,.06-.61-.47-.29-.97-.56-1.49-.72-4.1-1.22-8.21-2.42-12.31-3.62-.53-.16-1.11-.2-1.61-.42-.37-.16-.65-.53-.97-.8,.41-.16,.81-.39,1.24-.45,.54-.08,1.11-.02,2.04-.02,5.27,.3,10.8,1.3,16.18,3.05,.98,.32,1.96,.66,2.94,.97,1.82,.58,3.33,.7,4.86-1.08,1.8-2.09,4.69-2.09,7.26-2.5,3.2-.51,6.43-.79,9.61-1.37,2.78-.51,5.43-1.38,6.16-4.69,.05-.23,.41-.38,.62-.57,.2,.23,.49,.42,.58,.69,.64,1.88,1.23,3.77,1.84,5.66,.17,.53,.35,1.06,.48,1.59,.51,2.13,1.87,3.12,4.03,3.35,5.32,.58,10.39,2.18,15.37,4.05,2.82,1.06,5.54,2.37,8.3,3.57,.29,.13,.62,.24,.83,.46,.41,.42,.76,.91,1.13,1.37-.49,.22-.98,.45-1.47,.66-1.44,.64-2.97,1.13-4.29,1.96-.68,.43-.97,1.47-1.44,2.23,.81,.19,1.62,.54,2.43,.55,1.18,.01,2.36-.24,3.54-.32,.37-.03,.75,.13,1.12,.21Z"/>
  </g>
</svg>