<?xml version="1.0" encoding="UTF-8"?>
<svg id="Layer_2" data-name="Layer 2" xmlns="http://www.w3.org/2000/svg" viewBox="0 0 60.97 56.66">
  <defs>
    <style>
      .cls-1 {
        fill: #808080;
      }
    </style>
  </defs>
  <g id="Layer_1-2" data-name="Layer 1">
    <path class="cls-1" d="M60.6,36.85c.3,2.27-.2,5.85-.2,5.85,0,0-.42,.23-1.54,.11-3.28-.33-6.7-2.54-10.85-4.52-1.47-.7-2.72-1.23-3.28-1.24-1-.03-1.79,.17-2.43,.54,1.1,3.4,.98,3.75-2.39,10.8-1.69,3.54,1.51,6.17-.26,7.95-.07,.07-.14,.13-.22,.2-.98,.78-5.74-2.59-8.29-3.31-4.44-1.24-5.04-2.29-5.04-2.29-.74-.07-1.5-.2-2.31-.36-.3-.06-.59-.14-.89-.23-.65,1.65-1.05,3.35-1.18,5.1,0,0-2.71-.97-3.7-4.9-.87,.98-1.92,2.25-3.23,3.93,0,0-.23-6.78,.46-9.01-.6-.57-1.06-1.06-1.34-1.4-1.18-1.41-.38-3.25-1.88-4.32-1.15-.83-5.41-.26-7.65-.4-.67-.04-1.16-.14-1.33-.37-.74-.97,.56-3.08,.56-3.08C3.09,34.8,.03,35.57,0,33.97c-.03-1.61,6.26-2.3,8.02-4.66,1.75-2.36,.22-5.37,1.74-7.32,1.4-1.8,3.34-1.55,5.19-2.66,2.01-1.2,2.72-3.58,4.7-5.22,.03-.04,.06-.07,.12-.1,.08-.06,.2-.17,.52-.37,3.55-4.75,7.16-9.02,12.71-11.35C36.24,.94,43.29-.39,44.2,.11c.3,.16,.51,.38,.66,.63,.3,.5,.36,1.13,.32,1.82-.03,.52-1.31,1.87-2.57,3.62-1.24,1.72-2.46,3.83-2.46,5.91,.02,4.21,5.5,8.14,5.7,10.59,.13,1.59-.76,3.61-1.41,4.84,1.13,.55,2.38,.64,3.55,.06-.1,.3-.07,.23,0,0,1.06-.52,1.94-1.46,3.22-2.15,4.3-2.34,3.89-3.47,8.45-3.85,.74-.06,1.3-.08,1.3-.08,0,0-.9,4.28-1.68,7.71-.6,2.62,1.01,5.37,1.31,7.64Z"/>
  </g>
</svg>