<?xml version="1.0" encoding="UTF-8"?>
<svg id="Layer_2" data-name="Layer 2" xmlns="http://www.w3.org/2000/svg" viewBox="0 0 116.79 48.71">
  <defs>
    <style>
      .cls-1 {
        fill: #808080;
        fill-rule: evenodd;
      }
    </style>
  </defs>
  <g id="Layer_1-2" data-name="Layer 1">
    <path class="cls-1" d="M2.88,31.67c-.49-.2-1-.34-1.55-.64-.41-.23-1.17-.6-1.28-.94-.04-.13-.07-.66-.02-.83,.17-.63,1.42-1.01,2.18-1.28,.52-.18,1.1-.34,1.64-.43,1.15-.19,2.33-.15,3.52-.2,1.2-.05,2.42-.19,3.62-.25,1.23-.06,2.49-.02,3.62-.25,.41-.08,.9-.28,1.38-.39,.51-.13,1.06-.16,1.43-.29,.45-.15,.92-.6,1.4-.89,.53-.31,1.01-.6,1.44-.85,1.02-.6,1.83-1.25,2.64-1.86,1.8-1.37,3.53-2.45,5.56-3.5-.45-.36-1.79-.12-2.05-.77-.09-.23-.02-.62,.09-.86,.04-.13,.12-.25,.23-.33,.92-1.04,3.29-1.56,5-1.22,.18,.04,.35,.09,.51,.15,.08,0,.16,.01,.24,.03,.16,.02,.31,.12,.43,.25,.35,.14,.69,.24,1.08,.2,.49-.05,1.12-.42,1.66-.62,.56-.21,1.13-.39,1.66-.58,1.14-.41,2.3-.89,3.28-1.23,2.28-.78,4.24-1.95,6.27-2.65-.27-.24-.95-.34-1.05-.85-.12-.65,.69-1.78,.93-2.26,.39-.77,.61-1.56,.93-2.26,.32-.71,.74-1.33,1.04-1.97,.32-.7,.72-1.32,.96-2-.1,.06-.15-.13-.08-.03,.62-.65,.43-1.78,1.52-2.03,.22-.05,.41,.03,.68,.03,.22,0,.42-.08,.63-.08,.32,0,.7,.11,1.07,.13,.43,.03,.83,.03,1.1,.09,.85,.19,1.87,.63,2.65,1.03,.43,.22,.83,.51,1.26,.75,.82,.47,1.71,.99,2.45,1.59,.39,.31,.67,.73,1.06,1,.13,.09,.36,.1,.48,.21,.1,.09,.05,.21,.16,.36,.08,.12,.59,.6,.75,.62,.28,.03,1.03-.29,1.46-.4,.53-.14,1.12-.26,1.54-.34,1.15-.2,2.39-.28,3.33-.48,.2-.04,.32-.07,.5-.21,2.23-.2,4.77-.6,7.03-.7,3.45-.15,6.56,.15,9.04,1.27,.8,.36,1.55,.83,2.37,1.22,2.95,1.38,5.62,2.66,9.01,3.46,.46,.11,.91,.3,1.36,.36,1.97,.26,4.15,.37,6.21,.6,1.93,.22,4.06,.61,5.89,1.02,.89,.2,1.83,.4,2.7,.8,.4,.18,.77,.41,1.2,.61,.39,.17,.9,.51,1.07,.74,.38,.5,.71,1.52-.05,1.78-.54,.18-1.24-.15-1.74-.05-.83,.17-1.76,1.17-2.25,1.67-.69,.7-1.34,1.26-1.75,2.02,1.19-.25,2.14-.14,3.14-.5,.26-.09,.64-.19,.83-.33,.49-.34,.72-1.62,1.62-1.55,.33,.41,.71,.92,.83,1.52,.07,.35-.26,.8-.43,1.14-.17,.34-.26,.74-.44,1-.24,.33-.73,.67-1.16,1.01-1.16,.93-2.54,1.87-3.78,2.72-.29,.2-.5,.45-.75,.62-.65,.43-1.5,.7-2.14,.98-.48,.98-1.41,1.42-2.42,2.07-.6,.38-1.2,.66-1.97,.8-.23,.04-.53,.01-.78,.09-.5,.16-.87,.72-1.38,1.03-.74,.46-2.04,.97-3.06,1.2-.21,.05-.42,.02-.63,.08-.44,.12-.86,.39-1.33,.54-.96,.31-1.99,.43-3.12,.68-.53,.12-1.16,.15-1.58,.31-.3,.11-.59,.58-.91,.9-.28,.29-.69,.72-1.06,.88-.83,.36-2.21,.53-3.42,.42-1.34-.13-2.63-.13-3.42-.6-.16-.09-.29-.21-.39-.41-1.87,.5-3.78,.74-5.78,1.08-.65,.11-1.31,.05-1.98,.13-1.23,.14-2.62,.42-4.06,.65-.98,.15-2.04,.32-3.03,.52-.33,.07-.75,.09-.96,.19-.17,.08-.36,.51-.54,.78-.92,1.39-1.67,2.56-2.69,3.94-.31,.43-.97,1.29-1.42,1.3-.59,.02-1.18-1.44-.94-2.18-1.4,1.01-3.14,2.23-4.79,3.33-.58,.38-1.15,.82-1.72,1.04-1.32,.5-1.85-.67-1.6-2.03,.11-.63,.24-1.1,.37-1.59,.32-1.2,.44-2.3,1.17-3.08,.94-1.02,2.27-1.68,3.63-2.36-2.37,.22-4.68,.57-6.93,.62-1.08,.02-2.17,.33-3.33,.52-.56,.09-1.19,.15-1.82,.22-.58,.07-1.26,.03-1.75,.17-.31,.1-.75,.53-1.1,.85-.99,.9-1.93,2-2.9,2.8-1.14,.95-2.57,1.98-4.2,2.62-.24,.09-.46,.26-.68,.31-1.21,.26-1.99-.36-2.78-.87-1.34-.86-2.6-1.96-3.72-3.01-.81-.76-1.65-1.4-2.44-2.08-.77-.67-1.93-1.03-2.37-2.12,.17-.18,.36-.33,.57-.48,.14-.27,.41-.46,.77-.48,.4-.22,.82-.41,1.25-.6-1.1-.21-2-.22-3.22-.14-.36,.02-.78-.02-1.12,.06-.26,.06-.49,.28-.74,.39-.23,.1-.49,.14-.69,.23-.33,.16-.75,.53-1.07,.84-1.23,1.22-2.01,2.69-2.79,4.33-.56,1.16-1.01,2.42-1.59,3.62-.98,2.01-2.35,3.83-4.52,4.99-.65,.35-1.41,.65-2.08,.25-.85-.5-1.24-2.15-1.05-3.41,.23-1.51,.68-2.89,.56-4.66-.03-.44-.13-.89-.16-1.34-.03-.42,.01-.86-.04-1.24-.11-.84-.43-1.68-.77-2.32-.71-1.33-1.67-2.17-2.91-2.89-.6-.35-1.22-.76-1.78-.99Z"/>
  </g>
</svg>