<?xml version="1.0" encoding="UTF-8"?>
<svg id="Layer_2" data-name="Layer 2" xmlns="http://www.w3.org/2000/svg" viewBox="0 0 108.29 62.56">
  <defs>
    <style>
      .cls-1 {
        fill: #808080;
      }
    </style>
  </defs>
  <g id="Layer_1-2" data-name="Layer 1">
    <path class="cls-1" d="M107.28,49.24c-.02-.07-.04-.15-.07-.23,0-.03-.02-.06-.03-.09-.04-.11-.08-.23-.13-.35,0-.03-.02-.06-.03-.08-.05-.13-.11-.26-.17-.4-.01-.02-.02-.05-.03-.07-.07-.15-.15-.31-.23-.48-.02-.03-.03-.06-.05-.1-.09-.17-.18-.35-.28-.54-.02-.04-.04-.08-.06-.12-.1-.19-.22-.39-.34-.61-.02-.04-.05-.09-.07-.13-.12-.22-.26-.44-.4-.68-.03-.04-.05-.08-.08-.13-.15-.25-.31-.5-.47-.77-.02-.03-.04-.06-.06-.09-.18-.29-.37-.58-.57-.9-1.83-2.82-2.82-5.33-2.83-7.65,0-.25,0-.5,.03-.75,0-.01,0-.02,0-.04,.02-.24,.06-.48,.1-.71,0-.02,0-.04,.01-.06,.04-.23,.1-.46,.17-.68,0-.02,.01-.05,.02-.07,.07-.22,.15-.44,.23-.66,.01-.03,.02-.05,.03-.08,.09-.22,.19-.43,.3-.65,.01-.03,.03-.05,.04-.08,.11-.21,.24-.43,.37-.64,.01-.02,.03-.05,.05-.07,.14-.22,.29-.43,.46-.65,.01-.02,.03-.03,.04-.05,.17-.22,.35-.44,.55-.67,.12-.14,.25-.28,.37-.41,0,0,0,0,0,0,3.28-3.76,5.19-7.24,3.52-7.24-.27,0-.55,0-.83,.03-.09,0-.19,.02-.29,.02-.19,.02-.39,.03-.59,.05-.12,.01-.24,.03-.36,.05-.18,.02-.37,.05-.56,.08-.13,.02-.27,.05-.4,.07-.18,.03-.37,.07-.56,.1-.14,.03-.28,.06-.43,.09-.19,.04-.37,.08-.56,.13-.15,.04-.3,.08-.45,.12-.19,.05-.38,.1-.57,.16-.15,.04-.3,.09-.46,.14-.16,.05-.33,.1-.49,.15-.04,.01-.09,.03-.13,.04-.14,.05-.28,.09-.42,.14-.18,.06-.37,.13-.56,.2-.05,.02-.1,.04-.16,.06-.11,.04-.22,.09-.34,.13-.2,.08-.39,.15-.59,.23-.07,.03-.13,.05-.2,.08,0,0,0,0-.01,0-.09,.04-.17,.07-.25,.11-.2,.08-.39,.17-.59,.26-.15,.07-.31,.14-.46,.21-.2,.09-.39,.19-.59,.29-.14,.07-.27,.13-.41,.2-.02,.01-.04,.02-.06,.03-.19,.1-.38,.2-.57,.31-.14,.08-.29,.16-.43,.24-.2,.12-.41,.24-.61,.36-.13,.08-.26,.16-.4,.24-.06,.04-.11,.07-.17,.11-.07,.04-.13,.09-.2,.13-.1,.06-.19,.12-.28,.19-.11,.07-.22,.14-.32,.21-.07,.05-.14,.1-.21,.15-.03,.02-.07,.05-.1,.07,0,0,0,0,0,0-.21,.15-.42,.3-.63,.45,0,0,0,0,0,0,0,0,0,0,0,0,0,0,0,0,0,0-.32,.24-.63,.49-.93,.74,0,0,0,0,0,0-.1,.02-.19,.05-.29,.08-4.08,1.36-7.26,1.02-10.73-1.64-.04-.03-.08-.07-.12-.1,.6-.73,2.85-.8,5.59-.56-.51-2.2-1.21-4.09-1.99-5.69,0-.02-.02-.03-.02-.05-.27-.55-.56-1.07-.85-1.56-.01-.02-.02-.04-.04-.07h0c-3.07-5.1-7.03-6.74-8.16-6.74-.24,0-.58,.06-1,.18h0s0,0,0,0c-.1,.03-.21,.06-.32,.1-.02,0-.05,.02-.07,.03-.09,.03-.18,.06-.27,.1-.03,.01-.07,.03-.1,.04-.09,.04-.18,.07-.28,.11-.03,.01-.05,.02-.08,.03-.25,.11-.51,.23-.78,.36-.02,.01-.05,.02-.07,.04-.12,.06-.23,.12-.35,.19-.02,.01-.04,.02-.06,.03-.28,.16-.56,.33-.84,.51,0,0,0,0,0,0h0c-1.89,1.25-3.68,3.14-3.86,5.6h0c-.23-.04-.47-.09-.71-.13-.11-.02-.24-.04-.35-.06h0c.04-.44,.06-.88,.04-1.31-1.03-1.28-.42-2.51-.41-2.53-2.15-1.61-1.55-3.28-1.54-3.31-.02-.01-2.24-1.23-2.45-3-.05-.02-.1-.03-.15-.05h0c-2.05-.68-2.21-2-2.22-2.02-.04,0-2.8-.27-2.83-1.94-1.78,0-3.04-.27-3.51-1.88-2.22,.38-3.4-.26-3.79-1.55-1.67,.54-3.1,.49-3.83-1.13-1.39,.59-3.45,1.62-5.06-.77-.11,.09-.21,.17-.32,.25-.03,.02-.06,.04-.09,.06-.08,.06-.16,.11-.23,.16-.03,.02-.06,.04-.09,.06-.09,.05-.18,.11-.26,.15-.01,0-.03,.01-.04,.02-.11,.05-.21,.1-.31,.15,0,0-.01,0-.02,0-.09,.04-.19,.07-.28,.11-.02,0-.03,.01-.05,.02-.09,.03-.18,.05-.26,.08,0,0-.02,0-.02,0-.2,.05-.39,.07-.57,.09-1.58,.1-2.64-.94-2.68-.97h0c-3.48,4.23-6,1.43-6.01,1.42,0,.02-2.16,5.28-4.31,3.09-.16,.51-.26,3.4,.49,7.05,0,0,0,0,0,.01h0c.26,1.29,.63,2.68,1.14,4.09,0,.02,.01,.04,.02,.06,.1,.28,.21,.55,.32,.83,.02,.05,.04,.1,.06,.16,.11,.28,.23,.55,.35,.83,0,0,0,0,0,0-.17,.06-.33,.13-.49,.19-.04,.02-.08,.03-.12,.05-.3,.12-.59,.25-.88,.39-.09,.04-.17,.08-.26,.12-.22,.1-.43,.21-.64,.32-.08,.04-.16,.08-.24,.13-.27,.15-.54,.3-.8,.45-.06,.03-.11,.07-.17,.1-.21,.13-.42,.26-.63,.39-.08,.05-.16,.11-.24,.16-.21,.14-.41,.27-.61,.41-.05,.03-.1,.07-.15,.1-.24,.17-.48,.34-.71,.52-.07,.05-.13,.1-.2,.15-.18,.14-.36,.27-.53,.41-.06,.05-.13,.1-.19,.15-.22,.18-.44,.36-.66,.53-.02,.01-.03,.03-.05,.04-.21,.17-.41,.34-.61,.51-.05,.04-.1,.08-.14,.12-.2,.17-.39,.34-.58,.51,0,0-.01,.01-.02,.02-1.77,1.56-3.22,2.96-4.43,3.64-3.47,1.95-6.62,3.39-8.35,4.4-1.73,1.02-5.11,3.47-5.11,4.78,0,.09,0,.18,.02,.26,0,.02,.01,.05,.02,.07,.01,.06,.03,.12,.05,.18,0,.02,.02,.05,.03,.07,.03,.06,.06,.13,.1,.19,0,.01,.01,.02,.02,.04,.05,.08,.1,.15,.17,.22,0,0,.01,.01,.02,.02,.06,.06,.12,.13,.19,.19,.02,.01,.03,.03,.05,.04,.07,.06,.14,.11,.21,.17,.01,0,.03,.02,.04,.03,.18,.13,.39,.25,.62,.37,0,0,0,0,.01,0,0,0,0,0,0,0,.53,.27,1.17,.52,1.89,.77-.04,0-.09,0-.13,0-.05,0-.1,0-.15,0-.11,0-.21,0-.3,0-.06,0-.11,0-.17,0-.09,0-.18,.01-.26,.02-.04,0-.09,0-.13,.01-.09,.01-.18,.03-.26,.04,0,0,0,0-.01,0-1.2,.26-1.3,1.09-.49,2.18,1.28,1.71,5.49,3.09,8.9,4.37,1.68,.7,6.59,2.69,9.81,3.64,2.74,.8,6.16,1.6,11.73,1.11,.05,0,.1,0,.15-.01,.23-.02,.47-.04,.7-.07,.06,0,.12-.01,.18-.02,.08,0,.16-.02,.24-.03,.11,.34,.23,.68,.36,1.01,0,.02,.01,.04,.02,.06,0,0,0,0,0,0,1.09,2.86,2.53,5.16,3.66,6.54,0,0,0,0,0,0,.03,.04,.06,.07,.09,.11,.06,.07,.11,.13,.16,.19,.04,.05,.08,.09,.12,.13,.06,.06,.11,.12,.16,.18,.04,.04,.08,.08,.12,.12,.05,.05,.1,.1,.14,.14,.08,.08,.16,.15,.24,.22,.32-.9,.88-.87,1.33-.32,.03,.03,.06,.08,.11,.13,.01,.01,.03,.03,.04,.05,.04,.04,.08,.08,.12,.13,.02,.02,.04,.04,.06,.06,.05,.05,.11,.11,.17,.17,.02,.02,.04,.04,.06,.06,.08,.08,.17,.17,.26,.26,.03,.03,.06,.06,.09,.08,.06,.06,.13,.13,.2,.19,.05,.04,.09,.09,.14,.14,.05,.05,.11,.1,.17,.16,.06,.06,.12,.11,.18,.17,0,0,.02,.02,.03,.02h0c1.25,1.14,2.89,2.43,3.76,2.35,.77-.07,1.53-2.78,.65-8.26,.45-1.43,3.89-.58,3.89-.58,0,0,0,0,0-.02,0,0,0-.01,0-.02,0-.01,0-.03-.02-.04,0-.01-.01-.03-.02-.05,0-.02-.02-.04-.02-.06,0-.02-.02-.04-.03-.07-.01-.02-.02-.05-.03-.07-.02-.05-.05-.1-.08-.15-.02-.03-.03-.06-.05-.09-.02-.03-.04-.07-.06-.11-.02-.03-.04-.06-.06-.09-.02-.04-.05-.08-.08-.12-.02-.03-.04-.06-.07-.1-.03-.04-.06-.09-.09-.13-.02-.03-.05-.06-.08-.1-.06-.08-.13-.16-.21-.24-.03-.04-.06-.07-.1-.11-.04-.04-.09-.08-.13-.13-.04-.04-.08-.07-.12-.11-.05-.04-.1-.08-.15-.12-.05-.04-.09-.07-.14-.11-.05-.04-.1-.08-.16-.12-.06-.04-.12-.08-.18-.12-.08-.05-.15-.09-.24-.14-.08-.04-.16-.09-.24-.13,0,0,0,0,0,0-.46-.22-.99-.4-1.63-.49-2-.28-4.56-.29-6.4-.57h0s0,0,0,0c-.16-.02-.32-.05-.47-.08-.04,0-.09-.02-.13-.03-.11-.02-.22-.05-.33-.07-.02,0-.05-.01-.07-.02-.02,0-.04-.01-.07-.02-.11-.03-.22-.07-.32-.1-.02,0-.03-.01-.05-.02-.11-.04-.21-.09-.3-.13,0,0-.01,0-.02,0-.02-.01-.05-.03-.07-.04-.02-.01-.04-.02-.05-.04,1.09-.21,2.24-.46,3.46-.75,6.9-1.67,10.41-1.99,13.84-1.94h0c1.3,.02,2.6,.1,4.05,.17,.16,0,.32,.02,.49,.03,.04,0,.07,0,.11,0,.23,.01,.47,.02,.71,.03,.05,0,.09,0,.14,0,.5,.02,1.03,.04,1.59,.06,.66,.02,1.29,.02,1.87,0,0,.01,0,.03,.01,.05,.01,.05,.02,.09,.04,.14,.02,.07,.04,.15,.06,.22,0,0,0,0,0,0h0s0,.03,.01,.04c0,.02,.02,.05,.03,.07,.05,.15,.1,.29,.16,.44,0,.01,.01,.03,.02,.04,.06,.16,.13,.31,.2,.47,0,0,0,0,0,0h0c.88,1.87,2.47,3.75,3.85,4.87,.12-.96,1.88-1.73,4.33-.72,.43,.18,.92,.35,1.45,.53h0s.01,0,.02,0c2.19,.71,4.94,1.34,5.6,1.49,0,0,0,0,0,0,.05,.01,.08,.02,.1,.02t0,0s.03,0,.03,0c0,0-.02-.15-.05-.45h0c-.06-.86-.1-2.94,.57-6.11,.44-2.1,.61-3.61,.62-4.61h0c0-.13,0-.24,0-.34,0,0,0-.02,0-.03,0-.11-.01-.2-.02-.3,0,0,0-.01,0-.02,0-.09-.02-.17-.03-.24,0,0,0-.01,0-.02-.01-.07-.03-.13-.05-.19,0,0,0-.02,0-.03-.02-.05-.03-.1-.05-.14,0,0,0-.02-.01-.03-.02-.04-.04-.06-.06-.09,0,0-.01-.02-.02-.03-.02-.02-.04-.04-.06-.05,0,0-.01-.01-.02-.02-.03-.02-.06-.03-.09-.03-.02,0-.04,0-.07,0-.02,0-.04,0-.07,0,0,0,0,0-.01,0-.09,0-.2-.02-.33-.03-.02,0-.03,0-.04,0-.04,0-.07,0-.11,0-.03,0-.07,0-.1,0-.03,0-.06,0-.09,0-.15-.01-.31-.03-.48-.05-.03,0-.06,0-.09,0-.06,0-.12-.01-.17-.02-1.32-.15-3.17-.4-4.43-.77-.08-.02-.15-.05-.22-.07,0,0,0,0,0,0,0,0-.01,0-.02,0,1.12-1.1,2.78-1.99,5.08-2.14,1.71-.11,3.64,.03,5.54,.4h0c.28,.05,.55,.11,.82,.18,.02,0,.04,0,.05,.01,.25,.06,.5,.12,.75,.19,.04,0,.07,.02,.11,.03,.23,.06,.46,.13,.68,.2,.05,.02,.1,.03,.15,.05,.21,.07,.42,.14,.62,.21,.06,.02,.12,.04,.19,.07,.19,.07,.38,.15,.57,.22,.07,.03,.14,.06,.21,.09,.18,.08,.35,.16,.53,.24,.07,.03,.14,.07,.22,.1,.17,.09,.34,.18,.51,.27,.06,.03,.13,.07,.19,.1,.23,.13,.45,.26,.66,.39,.24,.15,.46,.26,.67,.33,0,0,0,0,0,0,1.24,1.64,3.19,3.11,5.29,4.34h0s0,0,0,0c.59,.35,1.2,.67,1.8,.98,0,0,.01,0,.02,0,.6,.31,1.2,.59,1.78,.85,0,0,.01,0,.02,0h0c3.08,1.39,5.8,2.18,6.34,2.18,.51,0,.74-.35,.52-1.24,0,0,0,0,0,.01Zm-13.95-21.95s-.08,.06-.12,.09c0,0,0,0-.01,0,.05-.03,.09-.07,.14-.1Zm-.26,.19h0c-.21,.15-.42,.29-.62,.44,.2-.15,.41-.3,.62-.44Z"/>
  </g>
</svg>