<?xml version="1.0" encoding="UTF-8"?>
<svg id="Layer_2" data-name="Layer 2" xmlns="http://www.w3.org/2000/svg" viewBox="0 0 54.22 51.52">
  <defs>
    <style>
      .cls-1 {
        fill: #808080;
      }
    </style>
  </defs>
  <g id="Layer_1-2" data-name="Layer 1">
    <path class="cls-1" d="M53.57,34.01c-.23,3.14-1.26,6.29-3.31,8.71-.59,.7-1.27,1.33-2.01,1.87,0,.01,0,.02,0,.03-.04,.66-.28,1.36-.96,1.61-.38,.14-1.13,.04-1.41-.34-1.28,.5-2.66,.74-4.07,.64-1.6-.12-3.11-.65-4.42-1.58-.36-.26-.71-.54-1.04-.84-.02,0-.04,.01-.07,.01-.58,.06-1.26-.16-1.54-.71-.18-.36-.2-.76-.03-1.09-.2-.26-.4-.52-.58-.79-1.01-1.46-1.83-3.06-2.71-4.62-.49,.02-1.01-.25-1.21-.72-.16-.37-.12-.8,.09-1.13-.41-.64-.86-1.25-1.35-1.83-.34,1.32-.5,2.69-.44,4.06,.13,3.31,1.4,6.55,3.69,8.95,2.15,2.26,4.98,3.81,8.07,4.28,.29,.05,.28,.47,0,.52-2.16,.42-4.37,.35-6.55,.02h0c-.77,.79-2.34,.59-2.63-.53-.31-.08-.62-.16-.92-.24-1.55-.43-3.11-.99-4.42-1.96-1.29-.96-2.23-2.28-2.76-3.79-.37-1.05-.55-2.12-.6-3.2-.41-.3-.68-.74-.62-1.28,.05-.42,.32-.78,.69-.97,.12-1.15,.34-2.3,.61-3.43-.09,.14-.18,.27-.27,.4-.96,1.36-2.13,2.57-3.46,3.57,.09,.57-.2,1.19-.76,1.43-.38,.16-1.05,.21-1.47-.02-.54,.28-1.1,.53-1.67,.75-.65,.24-1.25,.45-1.84,.61-.3,.5-.82,.86-1.42,.89-.48,.02-1.09-.13-1.37-.54-1.03,0-2.21-.15-3.69-.46-.76-.16-1.48-.43-2.14-.79-.55,.28-1.39,.25-1.71-.37-.14-.28-.16-.67-.01-.95-1.05-1.09-1.76-2.5-1.95-4.08,0-.07-.02-.15-.02-.22-.03-.33,.46-.38,.61-.15,.7,1.05,1.66,1.94,2.78,2.55,1.37,.75,2.93,1.13,4.5,1.01,1.62-.13,3.22-.72,4.54-1.68,2.49-1.83,3.87-4.77,3.96-7.82-.88,1.22-2.09,2.17-3.46,2.82-.2,.32-.48,.6-.85,.73-.32,.11-.7,.11-1-.04-.9,.26-1.82,.42-2.76,.48-1.37,.09-2.81,.01-4.12-.46-.14,.24-.43,.32-.71,.3-.37-.04-.83-.16-1.14-.37-.48-.31-.84-.9-.49-1.4-.76-.75-1.32-1.67-1.74-2.66-.74-.03-1.25-.67-1.37-1.37-.1-.56-.1-1.37,.49-1.62-.13-.64-.23-1.28-.32-1.91-.04-.3,.39-.35,.56-.21,.71,.6,1.25,1.37,1.7,2.18,.65,1.17,1.13,2.45,1.91,3.55,.38,.54,.84,1.06,1.41,1.41,.71,.43,1.52,.65,2.35,.65,3.11,.01,5.76-2.03,7.81-4.22-.27,.05-.54,.09-.81,.13-.13,.02-.26,.03-.4,.05-.18,.42-.47,.9-.99,.9-.53,0-.9-.33-1.17-.75-1.04,.02-2.09-.02-3.13-.15-.61-.08-1.24-.18-1.83-.37-.5,.27-1.15,.26-1.63-.06-.48-.32-.75-.85-.62-1.36-.06-.08-.13-.16-.18-.24-.45-.65-.75-1.39-.98-2.14-.17-.54-.33-1.09-.46-1.64-.48-.05-.88-.51-.87-1,0-.4,.22-.72,.56-.86-.13-1.41,.02-2.88,.79-4.1,.83-1.32,2.22-2.07,3.71-2.42,.75-.18,1.52-.28,2.29-.34,.69-.05,1.67,.01,1.94,.8,.24,.68-.33,1.3-.97,1.44-.86,.19-1.71-.2-2.57,.1-1.68,.6-2.46,2.5-2.64,4.15-.18,1.67,.31,3.27,1.59,4.39,1.19,1.04,2.74,1.5,4.31,1.36,3.46-.31,8.23-6.47,8.48-6.78-1.91-1.71-2.9-4.35-2.86-6.9,.04-3.2,1.66-6.27,4.06-8.36,1.37-1.2,2.96-2.1,4.57-2.94,.62-.32,1.52-.86,2.15-.25,.5,.49,.56,1.24,1.14,1.68,.61,.46,1.34,.72,1.92,1.23,.57,.5,1.04,1.09,1.42,1.75,.79,1.39,1.27,2.96,1.58,4.52,.66,3.28,.53,6.8-1.11,9.78,0,0,0,.01-.01,.02,.1,.46,1.54,4.73,1.92,5.66,.35,.86,.69,1.73,1.16,2.54,.79,1.35,2.11,2.71,3.81,2.59,1.6-.12,2.91-1.43,2.93-3.06,0-.42-.05-.83-.2-1.22-.14-.35-.39-.65-.52-1.01-.11-.31-.11-.69,.14-.94,.24-.24,.62-.27,.92-.11,.57,.32,.99,.84,1.25,1.43,.37,.09,.69,.41,.78,.82,.09,.46-.12,.86-.45,1.12,0,.11-.02,.23-.04,.34-.2,1.23-.91,2.34-1.79,3.23,.09,.37-.21,.89-.46,1.08-.25,.19-.71,.26-1.05,.14-.45,.28-.94,.5-1.47,.59-.91,.15-1.8,0-2.66-.31-.4-.15-.79-.32-1.17-.52-.36,.14-.78,.12-1.08-.14-.22-.18-.38-.5-.38-.8-.32-.25-.63-.51-.93-.78,.14,2.04,.71,4.06,1.7,5.85,1.49,2.73,4.24,5.79,7.69,5.22,1.65-.27,3.03-1.26,4.23-2.4,1.5-1.43,4.62-7.94,5.23-9.8,.08-.23,.53-.28,.57,0,.18,1.14,.29,2.29,.31,3.44,.1,.04,.19,.09,.27,.16,0,0,.01,.01,.02,.02,.15,.14,.26,.33,.3,.54,.09,.5-.26,.85-.64,1.1Z"/>
  </g>
</svg>