<?xml version="1.0" encoding="UTF-8"?>
<svg id="Layer_2" data-name="Layer 2" xmlns="http://www.w3.org/2000/svg" viewBox="0 0 75.99 36.83">
  <defs>
    <style>
      .cls-1 {
        fill: #808080;
      }
    </style>
  </defs>
  <g id="Layer_1-2" data-name="Layer 1">
    <path class="cls-1" d="M75.99,11.05c-.25,1.23-1.48,1.87-2.41,2.55-1.2,.89-2.32,1.89-3.35,2.97-.97,1.02-2.31,2.32-2.16,3.85,.13,1.35,1.15,2.6,2.04,3.55,.88,.95,1.87,1.79,2.79,2.7,.82,.82,1.78,1.81,2.18,2.93,.16,.44,.07,.88-.4,1.07-.53,.21-1.15-.25-1.6-.49-1.22-.67-2.4-1.43-3.52-2.26-1.51-1.12-2.91-2.4-4.16-3.81-.89-1-1.74-2.14-1.98-3.43-.14,.11-.29,.21-.45,.3-.43,.65-.97,1.24-1.67,1.58-.54,.27-1.17,.34-1.74,.18-.02,.41-.25,.82-.62,1.03-.59,.32-1.17,.27-1.75,.11,.04,.14,.05,.3,.01,.47-.17,.75-.88,.76-1.46,.53-.4,.59-1.06,.89-1.79,.98-.62,.08-1.22-.11-1.79-.38,.17,.31,.22,.63-.07,1.04-.49,.67-1.29,.52-1.95,.2-.19,.31-.61,.51-1.02,.43-.46-.09-.91-.28-1.33-.52,0,.15-.02,.31-.09,.47-.13,.32-.41,.54-.71,.62,.04,.49-.14,.98-.48,1.35-.53,.58-1.33,.79-2.1,.69-1.78-.24-2.9-1.86-4.62-2.21-.01,0-.02,0-.03-.01-2.53,.55-5.07,1.03-7.63,1.42-2.39,.36-4.79,.63-7.19,.8,.38,1.97,2.58,2.79,4.25,3.65,.84,.43,1.6,.97,2.19,1.71,.23,.29,.55,.74,.47,1.13-.07,.35-.43,.43-.74,.45-1.26,.09-2.53,.09-3.8,.14-.45,.02-.86-.01-1.27-.21-.48-.24-.88-.75-1.25-1.12-1.2-1.2-2.32-2.47-3.37-3.81,.1,.23,.21,.47,.31,.71,.36,.81,.66,1.65,1.1,2.42,.25,.44,1.07,1.02,.67,1.61-.39,.56-1.2,0-1.6-.23-2.36-1.33-4.08-3.73-4.62-6.38-1.18-.09-2.35-.23-3.51-.44-.74-.14-1.48-.31-2.21-.52-.05,0-.09-.02-.12-.04-4.26-1.25-8.21-3.75-10.46-7.65-.1-.18-.2-.36-.29-.54-.16-.32,.21-.59,.48-.51,.85-.15,1.75-.11,2.61-.08,.6,.02,1.28,.02,1.93,.11-1.38-1.19-3.39-1.69-5.11-1.01-.18,.07-.48,.05-.52-.19-.4-2.43,.87-4.69,2.58-6.32,2.03-1.93,4.77-3.01,7.46-3.59,.5-.11,1.01-.2,1.51-.27,2-2.21,4.48-4.07,6.97-5.63,1.5-.94,3.07-1.76,4.69-2.46,.62-.27,1.47-.78,2.18-.64,.29,.05,.56,.22,.73,.45,.54-.34,1.2-.45,1.84-.25,.72,.23,1.22,.89,1.35,1.62,1.64-.48,3.52,.35,4.21,1.93,.96-.27,1.99-.09,2.81,.43,.05,.01,.09,.04,.11,.07,.47,.32,.86,.76,1.11,1.3,.93-.18,1.93,.29,2.31,1.17,1.11-.4,2.45,0,3.11,1,1.09-.26,2.3,.27,2.78,1.28,1.76-1.12,4.2-.39,4.93,1.58,1-.73,2.42-.79,3.44-.05,.54-.23,1.18-.1,1.6,.34,.31,.33,.38,.78,.27,1.19,.8,.06,1.55,.53,1.92,1.26,1.02-.28,2.13,.2,2.6,1.17,1.48,.77,2.62,2.07,3.26,3.6,3.12-3.45,7.24-6.19,11.71-7.43,.25-.07,.45,.14,.4,.38Z"/>
  </g>
</svg>