<?xml version="1.0" encoding="UTF-8"?>
<svg id="Layer_2" data-name="Layer 2" xmlns="http://www.w3.org/2000/svg" viewBox="0 0 74.79 44.89">
  <defs>
    <style>
      .cls-1 {
        fill: #808080;
      }
    </style>
  </defs>
  <g id="Layer_1-2" data-name="Layer 1">
    <path class="cls-1" d="M73.89,26.56s.03,.05,.04,.07c.26,.28,.55,.56,.71,.92,.15,.32,.11,.67-.2,.87-.15,.1-.33,.15-.5,.21-.2,.08-.39,.2-.58,.28-.55,.25-1.15,.29-1.74,.39-.71,.12-1.5,.3-2.22,.27-1.04-.05-1.84,.25-2.73,.78-2.71,1.62-5.28,3.47-8.27,4.56-2.79,1.02-7.25,3.58-7.48,3.84-.23,.26-5.51,2.76-7.84,3.41-1.64,.46-3.31,.81-4.98,1.15,.54-.68,1.35-1.1,2.16-1.41s1.66-.54,2.43-.95c-.16-.1-.37-.06-.55-.01-.53,.14-1.18,.45-1.72,.46,.19,0,.78-.7,.95-.84,.3-.26,.61-.51,.91-.77,.67-.57,1.29-1.19,1.82-1.89,.12-.15,.23-.37,.11-.52-.08-.1-.23-.11-.36-.1-.99,.06-1.91,.66-2.56,1.38-1.38,1.54-10.37,4.46-12.37,5.38-2,.92-4.26,2-3.77-2.72,.49-4.72-1.15-5.74-2.26-8.82-1.12-3.08-5.94-1.18-7.71,3.87-1.77,5.05-5.74,9.91-4.56,8.17,1.18-1.74,3.41-8.09,2.85-10.75-.57-2.66-14.54-4.26-13.38-6,1.16-1.75,7.63-2.61,7.63-2.61,11.15-.44,11.24-1.55,12.18-1.94,.83-.35,1.33-2.12,1.62-2.86,.41-1.02,.93-2.05,1.06-3.15,.12-1.07-.07-2.14-.17-3.2-.12-1.24-.34-2.64-.14-3.88,.4-2.53,2.65-4.81,4.83-5.96,2.71-1.43,5.79-2.29,8.77-2.95C39.04,.5,42.27-.02,45.56,0c2.86,.02,5.7,.53,8.41,1.43,1.88,.62,3.99,1.39,5.57,2.62,2.33,1.81,4.84,3.4,6.68,5.75,2.66,3.4,3.4,6.74,3.57,7.28,.28,.87,.66,1.72,1.02,2.55,.23,.53,.47,1.07,.74,1.58,.37,.71,.9,1.39,1.58,1.81,.73,.46,1.88,1.4,1.62,2.39-.07,.26-.22,.49-.41,.68-.11,.11-.23,.22-.36,.31-.05,.04-.12,.09-.1,.15Z"/>
  </g>
</svg>