<?xml version="1.0" encoding="UTF-8"?>
<svg id="Layer_2" data-name="Layer 2" xmlns="http://www.w3.org/2000/svg" viewBox="0 0 81.28 30.65">
  <defs>
    <style>
      .cls-1 {
        fill: #808080;
      }
    </style>
  </defs>
  <g id="Layer_1-2" data-name="Layer 1">
    <path class="cls-1" d="M59.37,28.02s.01-.07,.03-.08c.13-.13,.16-.29,.16-.47,0-.06,.03-.12,.05-.18,.06-.19,0-.3-.18-.39-.17-.08-.32-.2-.42-.37-.03-.05-.1-.12-.16-.12-.18-.02-.37-.02-.55-.02-.24,0-.49,0-.73,0-.18,0-.36-.02-.53-.04-.27-.03-.53-.09-.8-.12-.19-.02-.38-.04-.58-.04-.19,0-.38-.05-.57-.08-.31-.04-.63-.04-.94-.07-.1,0-.2-.05-.31-.06-.11-.02-.23-.02-.34-.05-.43-.1-.88-.09-1.32-.16-.33-.06-.65-.07-.98-.09-.33-.02-.67-.08-1-.12-.34-.04-.68-.09-1.02-.13-.11-.01-.24-.02-.34,.03-.1,.05-.18,.16-.24,.26-.17,.3-.34,.6-.55,.88-.17,.24-.36,.48-.52,.73-.15,.24-.35,.42-.57,.59-.06,.04-.09,.1-.14,.16-.05,.06-.1,.13-.15,.2-.02,.03-.06,.05-.07,.08-.12,.25-.36,.36-.55,.52-.03,.02-.06,.04-.08,.07-.17,.21-.41,.35-.63,.5-.15,.1-.29,.2-.44,.3-.18,.11-.37,.22-.56,.31-.11,.06-.24,.08-.36,.13-.06,.02-.11,.06-.17,.09-.05,.03-.1,.07-.15,.07-.26,0-.46,.14-.67,.26-.11,.06-.22,.06-.32,.08-.07,.01-.11-.07-.07-.13,.01-.02,.03-.03,.05-.04,.28-.15,.41-.43,.57-.68,.08-.12,.07-.31,.08-.48,0-.11,0-.21,.06-.31,.09-.16,.19-.32,.28-.48,.12-.2,.25-.4,.12-.65-.01-.03-.01-.07,0-.1,.1-.32,.2-.65,.31-.97,.04-.13,.11-.25,.19-.36,.12-.16,.18-.34,.18-.54,0-.09,0-.17,0-.26,.03-.21,.05-.42,.1-.63,.02-.07,.11-.13,.17-.18,.11-.09,.22-.17,.33-.26-.03-.12-.1-.16-.19-.18-.4-.09-.78-.21-1.16-.35-.33-.13-.68-.23-1.02-.34-.34-.12-.69-.22-1.03-.35-.33-.12-.64-.27-.97-.39-.4-.15-.8-.29-1.21-.44-.07-.03-.15-.04-.23-.06-.11-.02-.19,.04-.25,.12-.07,.09-.15,.19-.24,.27-.43,.39-.85,.78-1.28,1.17-.18,.16-.37,.31-.52,.51-.07,.1-.25,.13-.38,.16-.1,.02-.19,.04-.27,.1-.12,.09-.24,.14-.4,.14-.11,0-.22,.04-.33,.06-.09,.01-.18,.02-.27,.02-.08,0-.14-.04-.13-.13,0-.1-.03-.18-.13-.22-.14,.02-.23,.1-.3,.22-.06,.12-.16,.19-.3,.21-.12,.01-.24,.06-.35,.07-.16,0-.2-.06-.13-.2,.04-.09,.05-.17-.03-.22-.08-.05-.16-.04-.24,.02-.05,.04-.13,.09-.15,.15-.05,.16-.17,.16-.29,.15-.17,0-.31,.03-.42,.16-.12,.13-.29,.13-.45,.19-.08,.03-.18,.03-.24,.07-.16,.1-.32,.1-.49,.1-.13,0-.25,.02-.4,.03,0-.07-.02-.16-.04-.27-.1,0-.19,0-.27,.02-.15,.04-.29,.13-.44,.16-.2,.04-.42,.12-.61-.06-.04-.04-.12-.03-.18-.04-.13-.02-.26-.02-.38-.05-.09-.02-.17-.07-.24-.12-.1-.07-.19-.08-.29-.02-.2,.12-.49,.03-.59-.18-.09-.19-.2-.22-.37-.1-.26,.18-.51,.2-.86,0-.05-.03-.11-.06-.16-.1-.16-.1-.23-.09-.38,.02-.02,.01-.04,.02-.05,.04-.14-.04-.31-.04-.39-.22-.01-.03-.15-.05-.21-.02-.26,.1-.5,.04-.75-.04-.03,0-.06-.03-.07-.05-.05-.16-.18-.19-.32-.18-.14,0-.18-.12-.24-.22-.02-.04-.02-.08-.03-.13-.13-.03-.26-.08-.33,.09,0,0,0,.01-.01,.02-.09,.05-.53,0-.61-.08-.04-.03-.07-.07-.1-.11-.1-.11-.2-.15-.34-.07-.07,.04-.18,.05-.25,.03-.16-.07-.32-.05-.48-.07-.04,0-.08-.02-.11-.03-.02-.08-.02-.16-.05-.23-.05-.13-.15-.16-.25-.08-.18,.16-.35,.12-.53,.04-.19-.08-.39-.17-.61-.19-.11,0-.22-.1-.31-.18-.11-.09-.22-.12-.36-.11-.08,0-.16,0-.24,0-.04,0-.09,0-.13-.01-.19-.1-.37-.2-.56-.31-.03-.02-.04-.07-.06-.11-.06-.16-.14-.21-.29-.16-.09,.03-.16,.03-.24-.01-.12-.06-.26-.11-.37-.19-.07-.05-.1-.15-.17-.26-.03,0-.11-.03-.18-.02-.22,.02-.39-.06-.54-.2-.12-.11-.24-.2-.38-.26-.04-.02-.09-.04-.1-.08-.04-.13-.16-.17-.27-.22-.16-.08-.3-.18-.37-.34-.07-.13-.14-.23-.32-.21-.01-.15-.02-.28-.04-.42-.18-.09-.31,0-.43,.1-.13-.03-.19-.11-.18-.23,.01-.12-.03-.22-.12-.3-.09-.08-.16-.09-.27-.05-.22,.09-.28,.07-.4-.15-.07-.14-.14-.27-.34-.28-.11,0-.17-.09-.17-.21,0-.14-.08-.2-.21-.26-.2-.09-.38-.21-.56-.34-.06-.04-.08-.15-.09-.23-.03-.22-.1-.32-.32-.35-.14-.02-.22-.09-.28-.21-.08-.16-.16-.32-.32-.42-.03-.02-.05-.06-.08-.06-.15-.04-.15-.12-.11-.24,.03-.09,0-.2,0-.33,.7-.62,1.43-1.26,2.16-1.91-.08-.09-.14-.07-.21-.03-.12,.07-.23,.14-.35,.2-.23,.11-.47,.2-.7,.31-.2,.09-.39,.18-.61,.25-.34,.11-.65,.28-.97,.44-.19,.09-.37,.16-.59,.16-.31,0-.61,.09-.91,.19-.48,.16-.93,.4-1.4,.6-.19,.09-.4,.14-.6,.21-.16,.06-.32,.12-.47,.18-.33,.13-.66,.26-1.03,.21-.05,0-.11-.01-.15,0-.13,.08-.25,.01-.36-.03-.08-.03-.13-.08-.15-.17-.02-.07-.06-.14-.11-.2-.09-.11-.2-.21-.3-.3-.1-.09-.22-.16-.36-.17-.2-.02-.23-.08-.24-.28,0-.07,0-.14-.01-.21-.08-.04-.15-.07-.22-.11-.06-.03-.15-.06-.18-.11-.06-.14-.12-.3-.13-.45-.01-.13,.02-.14-.04-.27-.03,0-.06-.02-.1-.02-.25,.02-.38-.13-.49-.32-.08-.14-.12-.31-.31-.36-.05-.01-.11-.03-.16-.04-.05-.01-.11,0-.14-.04-.12-.09-.24-.14-.39-.07-.08,.03-.21-.08-.23-.19-.02-.14-.09-.22-.2-.29-.25,.07-.38,0-.43-.25-.02-.1-.06-.2-.02-.31,.03-.07,0-.13-.09-.17-.09-.04-.17-.1-.24-.14,.04-.11,.09-.19,.11-.29,.03-.17-.04-.32-.13-.46-.03-.05-.06-.11-.08-.17-.03-.1-.06-.2-.07-.31-.01-.1-.02-.2,0-.3,.02-.13-.01-.22-.12-.28-.17-.09-.24-.24-.28-.41-.04-.15-.13-.24-.26-.28-.17-.05-.26-.2-.15-.38,.01-.02,.02-.05,.03-.08,.1-.24,.09-.3-.11-.45-.15-.11-.16-.2-.05-.35,.02-.03,.05-.06,.07-.08,.13-.12,.22-.24,.1-.43-.03-.04-.01-.13,0-.19,.01-.08,.03-.16,.07-.22,.12-.18,.14-.37,.07-.58-.02-.05,0-.11,.03-.16,.06-.11,.05-.22-.02-.32-.02-.02-.03-.05-.04-.07-.11-.24-.06-.4,.17-.54,.02-.01,.05-.03,.04-.02,.06-.17,.11-.3,.16-.44,.02-.07,.04-.15,.05-.23,.01-.13-.01-.25,.06-.37,.04-.08,0-.16-.06-.24-.11-.13-.11-.16,0-.3,.08-.1,.07-.18,0-.26-.07-.08-.08-.18-.03-.29,.05,0,.1-.01,.15-.02,.11-.01,.18-.08,.19-.17,.02-.11,.08-.18,.15-.25,.08-.08,.16-.16,.24-.25,.18-.19,.41-.3,.67-.38,0-.15,.11-.25,.22-.35,.02-.02,.04-.05,.07-.05,.18,0,.23-.16,.31-.28,.12-.17,.24-.34,.45-.41,.11-.03,.22-.04,.34-.06,.04-.24,.25-.3,.45-.36,.16-.05,.34-.03,.5-.09,.21-.08,.42-.08,.63-.06,.22,.01,.45,.07,.67,.1,.1,.02,.21,.04,.31,.05,.2,.01,.4,0,.59,.03,.12,.02,.24,.09,.34,.16,.32,.21,.63,.43,.95,.65,.43,.29,.86,.59,1.29,.88,.51,.34,1.03,.67,1.54,1.01,.43,.29,.84,.58,1.27,.87,.22,.15,.45,.28,.67,.42,.27,.17,.54,.35,.81,.52,.24,.15,.48,.3,.72,.45,.06-.22,.02-.31-.15-.36-.09-.03-.18-.08-.26-.13-.06-.03-.12-.07-.18-.11-.05-.05-.1-.1-.12-.16-.05-.17-.13-.26-.31-.31-.13-.03-.24-.13-.36-.21-.08-.05-.15-.11-.22-.16-.02-.01-.04-.03-.04-.05,0-.35-.34-.44-.5-.67-.04-.06-.08-.11-.13-.16-.07-.07-.13-.16-.22-.2-.29-.15-.51-.38-.73-.62-.11-.12-.08-.29,.07-.35,.1-.04,.13-.1,.16-.18,.03-.11,.08-.19,.2-.23,.09-.03,.13-.11,.14-.22,.01-.27,.08-.36,.34-.43,.08-.15,.14-.3,.23-.43,.04-.06,.13-.1,.21-.13,.16-.06,.26-.16,.33-.31,.07-.18,.21-.3,.41-.33,.04,0,.09-.05,.11-.08,.07-.13,.16-.19,.31-.16,.05,0,.11-.01,.16-.04,.13-.07,.23-.08,.34,.05,.08,.1,.19,.11,.26,.03,.14-.15,.35-.18,.52-.3,.12,.07,.2,.25,.4,.15,.05-.2,.21-.24,.41-.28,.22-.04,.45-.06,.67-.07,.09,0,.17-.09,.27-.14,.02,0,.04,.02,.07,.03,.15,.11,.14,.09,.3,.02,.19-.07,.39-.11,.49-.32,.22-.05,.42-.23,.66-.04,.05,.04,.18,.06,.24,.02,.18-.11,.35-.05,.51,0,.15,.04,.28,.04,.41-.01,.08-.04,.16-.04,.25-.01,.11,.03,.23,.04,.33-.04,.07-.05,.13-.05,.2,0,.21,.15,.47,.13,.71,.18,.05,.01,.13-.02,.17-.05,.12-.1,.23-.07,.33,.01,.09,.08,.17,.13,.31,.07,.06-.03,.15,.03,.22,.04,.11,.01,.23,.01,.34,.02,0,.05,.01,.08,.02,.12,.03,.15,.1,.21,.24,.16,.17-.06,.28,.01,.38,.11,.37,.34,.79,.61,1.22,.86,.04,.02,.09,.05,.13,.06,.16,.03,.28,.11,.35,.25,.11,.21,.29,.35,.47,.49,.1,.08,.17,.15,.12,.28,0,.02,.01,.05,.03,.09,.14-.04,.27-.08,.41-.11,.05-.01,.11-.02,.17-.02,.19,0,.39,0,.58,0,.02,0,.05,0,.06,0,.26,.12,.54,.06,.8,.07,1.41,.04,2.83,.02,4.24,0,.16,0,.31,0,.47,0,.04,0,.08,0,.11,0,.2,.1,.42,.06,.63,.07,.39,.01,.79,.02,1.18,.03,.16,0,.33,0,.49,0,.16,0,.33-.03,.49,.04,.06,.03,.14,.01,.21,.02,.44,.02,.89,.04,1.33,.05,.36,0,.73,0,1.09,0,.08,0,.17,.01,.25,.02,.05,0,.1,.01,.15,.02,.8,.01,1.6,0,2.4,.04,.21,0,.43,.07,.65,.07,.17,0,.34,.03,.51,.05,.3,.03,.61,.07,.91,.1,.36,.03,.73,.04,1.09,.08,.27,.02,.53,.07,.8,.11,.07,0,.14,.02,.21,.03,.2,.01,.39,.02,.59,.07,.22,.05,.45,.02,.68,.03,.06,0,.12-.01,.17,.01,.15,.07,.31,.06,.46,.06,.2,0,.39,.02,.59,.06,.4,.07,.81,.07,1.21,.1,.07,0,.14,.02,.21,.03,.04,0,.08,.03,.12,.03,.41,.03,.82,.06,1.24,.09,.04,0,.09,0,.13,0,.15,.07,.31,.07,.46,.06,.37-.03,.7,.12,1.04,.19,.04,0,.08,.03,.12,.04,.35,.03,.68,.15,1.01,.24,.25,.06,.5,.1,.75,.16,.22,.05,.44,.1,.66,.15,.35,.08,.69,.16,1.04,.24,.08,.02,.16,.04,.25,.06,.35,.08,.71,.16,1.06,.24,.32,.08,.65,.16,.97,.24,.21,.05,.42,.09,.63,.13,.33,.07,.65,.17,.97,.22,.41,.07,.76,.28,1.14,.42,.3,.11,.59,.25,.89,.37,.2,.08,.39,.18,.58,.26,.2,.08,.4,.15,.6,.22,.09,.03,.17,.07,.26,.1,.42,.18,.84,.39,1.27,.55,.49,.19,.96,.42,1.45,.62,.23,.1,.47,.17,.69,.28,.63,.31,1.31,.53,1.89,.94,.36,.25,.76,.45,1.13,.69,.38,.25,.75,.52,1.13,.77,.3,.2,.61,.38,.9,.57,.29,.19,.57,.39,.85,.58,.44,.3,.9,.56,1.38,.78,.22,.11,.43,.25,.65,.36,.16,.09,.33,.16,.5,.25,.11,.06,.21,.13,.31,.19,.12,.07,.24,.15,.37,.21,.31,.14,.63,.27,.94,.4,.1,.04,.21,.04,.3,.08,.26,.1,.51,.2,.77,.3,.05,.02,.11,.04,.16,.05,.27,.04,.53,.11,.79,.22,.38,.15,.78,.27,1.17,.4,.09,.03,.19,.03,.29,.04,.17,.03,.31,.14,.44,.25,.21,.16,.46,.25,.64,.45,.12,.13,.21,.27,.22,.46,.19,.09,.27,.25,.34,.46,.08,.25,.08,.5,.07,.76,0,.05-.01,.1-.03,.15-.06,.19-.01,.31,.18,.38,.1,.04,.2,.07,.3,.11,0,.11-.08,.1-.15,.08-.07-.02-.12-.07-.18-.11-.07-.04-.13-.07-.22-.12-.07,.13-.15,.24-.19,.36-.09,.27-.25,.49-.43,.71-.12,.16-.24,.32-.36,.48-.28,.4-.57,.78-.92,1.13-.33,.33-.64,.67-.97,.99-.26,.26-.53,.52-.82,.75-.19,.15-.43,.23-.63,.36-.48,.29-.98,.52-1.49,.74-.46,.2-.92,.39-1.38,.57-.58,.22-1.16,.43-1.75,.63-.35,.12-.7,.23-1.07,.27-.45,.05-.88,.16-1.33,.24-.27,.05-.55,.09-.82,.14-.11,.02-.21,.05-.31,.07-.58,.1-1.15,.19-1.73,.3-.19,.03-.37,.09-.57,.1-.14,0-.26,.07-.34,.2-.09,.13-.21,.17-.36,.19-.17,.01-.33,.05-.49,.1-.44,.13-.86,.32-1.27,.53-.11,.06-.24,.08-.36,.12-.17,.05-.34,.14-.52,.15-.26,.01-.45,.21-.72,.18-.08,0-.16,.05-.24,.07-.32,.08-.64,.14-.96,.24-.19,.06-.36,.17-.54,.25-.06,.03-.12,.07-.19,.1-.11,.04-.21,.04-.3-.05-.1-.1-.2-.19-.3-.29Zm-27.98-2.68s.04-.04,.04-.05c0-.01-.03-.04-.04-.04-.01,0-.04,.02-.04,.04,0,.01,.02,.03,.04,.05Zm.04-.05s-.03-.04-.04-.04c-.01,0-.04,.02-.04,.04,0,.01,.02,.03,.04,.05,.02-.02,.04-.04,.04-.05Z"/>
  </g>
</svg>