<?xml version="1.0" encoding="UTF-8"?>
<svg id="Layer_2" data-name="Layer 2" xmlns="http://www.w3.org/2000/svg" viewBox="0 0 110.54 65.34">
  <defs>
    <style>
      .cls-1 {
        fill: #808080;
      }
    </style>
  </defs>
  <g id="Layer_1-2" data-name="Layer 1">
    <path class="cls-1" d="M92.85,47.07c-.19,.47-.67,.72-1.08,.56-.41-.16-.58-.68-.39-1.15,.19-.47,.67-.72,1.08-.56,.41,.16,.58,.68,.39,1.15Zm17.7,14.38c-.12-.11-.68-.11-.89-.25-.26-.18-.36-.34-.48-.64-.27-.63-.33-1.51-.85-2.01-.02-.02-.04-.03-.06-.05-.45,1.75-2.14,3.55-5.33,3.34-1.08-.07-2.16-.09-3.25-.07-.45,0-.62-.09-.71,.36-.07,.36,.11,.99,.36,1.26,.24,.25,.56,.4,.82,.63,.22,.2,.45,.44,.54,.73,.06,.19,.06,.44-.1,.59-.16-.47-.61-.76-1.05-.93-.48-.18-.86-.44-1.14-.89-.5-.79-.54-1.72-.25-2.58-.08-1.1-1.12-2.02-2.71-2.39-1.65-.39-14.65-3.1-19.99-6.11,0,0-5.14,5.24-9.99,6.6-1.15,.32-2.32,.61-3.51,.77-.89,.12-1.8,.16-2.69,.02-.43-.07-1.48-.3-1.54-.89-.04-.48,.39-.24,.68-.35,.32-.12,.48-.33,.57-.67,.11-.42-.01-.66,.47-.8,.31-.09,.57,.16,.72-.28,.05-.14-.08-.35,0-.53,.1-.23,.33-.27,.47-.45,.29-.36,.08-.71,.21-1.1,.15-.43,.55-.42,.87-.62,.77-.48,.01-1.59,.91-2,.36-.17,.69-.02,.88-.48,.07-.16-.05-.49,.05-.62,.33-.44,1.98-.04,2.42,0,.9,.1,1.79,.18,2.69,.13,1.65-.1,4.66-.49,3.01-.87-1.65-.39-9.78-4.85-12.21-6.11-.84-.24-1.74-.33-2.61-.36-1.14-.04-2.26,.2-3.39,.31-1.64,.16-3.26,.14-4.91-.02-.89-.08-1.7-.27-2.55-.54-.76-.24-1.79-.49-2.43-1-.27-.21-1.1-1.5-.36-1.57,.38-.04,.42,.17,.72,.26,.35,.1,.6-.19,.93-.18,.41,.01,.56,.48,.96,.41,.31-.06,.44-.35,.77-.39,.42-.04,.48,.28,.82,.4,.63,.22,1.03-.52,1.73-.34,.29,.07,.52,.22,.83,.28,.48,.09,1.77,.32,2.12-.19,.26-.4-.41-.58-.71-.65-1.65-.39-7.76-3.1-10.96-5.24-3.2-2.13-4.27-6.69-9.8-5.72-5.53,.97-10.48,.8-14.16,1.47-3.09,.56-6.48,.31-9.58-.05-2.31-.26-4.7-1.09-6.15-2.96-.36-.46-.86-1.05-.74-1.67,.79-.02,1.5,.39,2.29,.29,.72-.09,1.38-.44,2.11-.51,.76-.07,1.45,.39,2.22,.15,.79-.25,1.29-.7,2.13-.79,.44-.05,.82,0,1.08-.44,.2-.33,.23-.71,.43-1.05,.19-.32,.4-.61,.72-.82,.3-.2,.83-.3,.97-.69,.27-.73-.43-1.56-.44-2.23-.01-.8,.69-1.32,.49-2.22-.18-.82-.9-1.3-1.02-2.14-.11-.79,.16-1.62,.05-2.37-.06-.41-.38-.55-.62-.87-.23-.3-.36-.65-.45-1.02-.19-.78-.19-1.64-.15-2.46,.03-.53,.06-.75-.18-1.22-.17-.35-.35-.7-.26-1.12,.08-.39,.41-.68,.6-1.01,.22-.4,.26-.76,.28-1.21,.02-.38-.11-.9,0-1.26,.1-.33,.48-.63,.77-.82,.73-.49,1.02-1.1,1.49-1.85,.89-1.44,2.04-.57,3.1,.23,.91,.68,1.87,1.38,2.68,2.18,.63,.63,1.34,1.18,1.97,1.81,1.28,1.28,2.48,2.67,3.48,4.18,1.51,2.26,3.4,4.96,6.2,5.67,1.18,.3,2.41,.19,3.58-.11,1.36-.34,3.41-.91,4.54-1.72,.47-.34,.7-.95,.89-1.48,.17-.47,.13-1.18,.5-1.55,.18-.18,.45-.17,.65-.29,.87-.5,.92-1.63,1.69-2.2,1.1-.82,2.46-.27,3.4-1.48,.5-.65,.82-1.15,1.69-1.21,.84-.06,1.68,.26,2.36-.45,.69-.71,.92-1.4,2.06-1.39,.91,0,1.87,.34,2.75,.19,.77-.12,1.4-.97,2.12-1.29,.83-.37,1.61-.23,2.43,.08,.97,.37,1.32,.21,2.13-.39,.66-.49,1.55-.78,2.37-.77,.85,.01,1.7,.4,2.57,.24,.84-.15,1.47-.92,2.38-.59,.35,.13,.85,.37,1.15,.59,.4,.29,.5,.79,.93,1.07,.82,.52,1.87-.04,2.7,.48,.86,.54,.6,1.59,1.55,2.02,1.05,.48,2.31,.72,2.37,2.09,.05,1.05,.08,1.76,1.15,2.14,.71,.26,.95,.55,1.12,1.3,.35,1.53,1.6,2.35,2.35,3.66,.86,1.48,1.31,3.16,2.35,4.56,1.22,1.65,3.27,2.83,4.79,4.21,3.15,2.85,6.03,5.99,8.66,9.32,9.41,11.93,8.05,12.71,8.44,14.16,.39,1.46,.29,2.33,.87,3.3,.58,.97,.58,2.33,.78,3.3,.19,.97,.39,2.13,.97,4.07,.06,.2,.09,.41,.11,.63,.45,.18,.79,.66,1,1.06,.1,.18,.15,.37,.19,.56,.1,.49-.04,1.1,.09,1.55,.13,.42,.58,.67,.88,.94Zm-17.75-16.37c-1.09-.44-2.28-.04-2.66,.9-.38,.94,.2,2.05,1.29,2.49,1.09,.44,2.28,.04,2.66-.9,.38-.94-.2-2.05-1.29-2.49Z"/>
  </g>
</svg>