<?xml version="1.0" encoding="UTF-8"?>
<svg id="Layer_2" data-name="Layer 2" xmlns="http://www.w3.org/2000/svg" viewBox="0 0 71.34 37.32">
  <defs>
    <style>
      .cls-1 {
        fill: #808080;
      }
    </style>
  </defs>
  <g id="Layer_1-2" data-name="Layer 1">
    <path class="cls-1" d="M51.67,30.37s.03-.01,.04-.02c.01,0,.02,0,.03,0-.03,0-.05,0-.08,.01Zm-16.07-4.25c-1.08-.54-2.12-1.16-3.14-1.82-2.23-1.43-4.45-3.02-7-3.84-2-.64-4.46-.9-6.44,0,.33,0,.66,.06,1.01,.21,.31,.13,.62,.3,.91,.49,.28,.32,.49,.69,.59,1.1,.27,1.17-.02,2.39,.28,3.56,.55,2.14,2.2,3.72,4.1,4.73,2.06,1.1,4.4,1.65,6.73,1.63,2.49-.01,4.85-.78,7.2-1.49,1.36-.41,2.72-.78,4.12-.98,.4-.06,.79-.09,1.19-.1-2.19-.55-4.34-1.28-6.43-2.12-1.06-.42-2.1-.88-3.12-1.39Zm-3.66-16.92c3.72-1.72,7.6-3.14,11.59-4.11,3.72-.9,7.67-1.49,11.49-.92,1.3,.19,2.55,.55,3.75,1.04-1.42-.82-2.88-1.58-4.38-2.25C50.02,.99,45.23-.28,40.4,.05c-4.19,.29-8.38,1.72-11.65,4.42-1.65,1.37-2.92,3.03-4.02,4.87-.93,1.56-1.8,3.2-2.98,4.59-.1,.09-.21,.19-.32,.28,1.78-.57,3.47-1.39,5.12-2.26,1.79-.94,3.56-1.9,5.4-2.75Zm11.52,21.22c-1.63,.73-2.98,2.02-3.67,3.68-.06,.15,.16,.25,.26,.15,.71-.67,1.82-.47,2.7-.38,.93,.1,1.81,.06,2.59-.49,.71-.5,1.17-1.23,1.73-1.88,.41-.49,.93-.9,1.51-1.17-.93-.12-1.86-.3-2.78-.51-.81,.09-1.6,.28-2.35,.62Zm27.12-10.51c-.4-.5-.88-.93-1.25-1.45-.34-.48-.59-1.03-.78-1.58-.39-1.1-.6-2.26-1.03-3.35-.18-.46-.4-.9-.64-1.32-1.13-1.56-2.42-3-3.92-4.22-2.73-2.22-6.04-3.52-9.56-3.73-3.94-.24-7.92,.53-11.69,1.59-3.85,1.09-7.6,2.55-11.18,4.32-1.89,.94-3.72,2-5.62,2.92-1.3,.63-2.65,1.19-4.05,1.54-.79,.51-1.73,.86-2.55,.5-.71-.31-1.25-.89-1.76-1.46-.53-.59-1.07-1.16-1.68-1.67-2.52-2.12-5.67-3.36-8.97-3.5-.96-.04-1.92,.02-2.86,.18-1.03,.18-1.98,.51-2.94,.89-.02,0-.04,0-.05-.01-.03,0-.05,.04-.03,.06,.14,.21,.38,.35,.58,.51,.22,.2,.43,.41,.62,.64,.39,.46,.7,.97,1.04,1.46,.68,1,1.46,1.93,2.35,2.76,.89,.83,1.91,1.6,3,2.15,.54,.27,1.11,.49,1.7,.65,.07,.02,.14,.04,.21,.06-.07,.02-.14,.04-.21,.06-.59,.16-1.15,.38-1.7,.65-1.09,.55-2.11,1.31-3,2.15-.88,.83-1.67,1.76-2.35,2.76-.34,.49-.65,1-1.04,1.46-.18,.21-.37,.42-.58,.6-.2,.18-.47,.32-.62,.55-.02,.02,0,.06,.03,.06,.02,0,.04,0,.06-.01,1.68,.66,3.36,1.08,5.17,1.08,1.69,0,3.39-.29,4.99-.85,1.5-.52,2.91-1.32,4.17-2.3,.63-.49,1.22-1.03,1.76-1.62,.51-.56,1-1.19,1.65-1.6,.16-.1,.32-.18,.49-.25,.07-.05,.14-.11,.22-.16,2.18-1.48,5.14-1.03,7.44-.1,2.47,1,4.66,2.54,6.92,3.93,2.03,1.25,4.16,2.28,6.39,3.14,2.23,.86,4.53,1.56,6.86,2.08,1.01,.22,2.02,.41,3.05,.51,.42,.04,.84,.07,1.26,.07,.34,0,.73,.06,1.06,0,0,0,.01,0,.02,0,.35-.12,.67-.29,.96-.51,.62-.46,1.07-1.1,1.67-1.59,.02-.02,.05,0,.03,.03-.51,.62-.98,1.32-1.6,1.83-.27,.22-.57,.38-.89,.51,.01,0,.02,0,.03,0-.03,0-.05,0-.08,.01-.04,.02-.09,.03-.13,.05-.23,.08-.47,.13-.72,.17-.14,.02-.32,.05-.48,.06-.94,.26-1.82,.67-2.61,1.26-1.69,1.27-2.87,3.15-3.28,5.22-.03,.17,.19,.27,.29,.12,.66-.99,2-.9,3.04-.93,1.08-.04,2-.3,2.72-1.14,.69-.8,1.04-1.8,1.54-2.72,.48-.89,1.18-1.68,2.12-2.05,.4-.27,.83-.5,1.22-.79,.02-.02,.05,.02,.03,.04-.27,.22-.52,.47-.77,.71,1.29-.08,2.58-.27,3.82-.64,1.92-.57,3.66-1.53,5.12-2.91,1.57-1.48,3.02-3.23,5.3-3.5,.76-.09,1.72-.12,2.2-.81,.35-.49,.3-1.04,.09-1.55-.13-.38-.34-.74-.59-1.05Z"/>
  </g>
</svg>