<?xml version="1.0" encoding="UTF-8"?>
<svg id="Layer_2" data-name="Layer 2" xmlns="http://www.w3.org/2000/svg" viewBox="0 0 114.79 49.92">
  <defs>
    <style>
      .cls-1 {
        fill: #808080;
      }
    </style>
  </defs>
  <g id="Layer_1-2" data-name="Layer 1">
    <path class="cls-1" d="M91.7,27.16c-.18,.11-.8,1.47-.78,1.47-.43,.02-.86-.05-1.28-.12,0,.28,0,.55,.09,.81-.78,.05-2.95-.38-2.37,1.19-.98,.02-3.29-.41-2.78,1.47-1.12,.02-3.22-1.26-3.05,.75-.48-.06-1.96-.59-2.34-.41-.48,.23-.37,1.22-.09,1.63-.71,.3-1.39-.03-2.06-.27-.24-.09-1.23-.63-1.46-.53-.1,.04-3.25,1.37-3.25,1.37l9.08,13.18s-12.33-6.34-16.61-9.93c-3.77,2.05-15.41,3.94-15.41,3.94l6.68,.17s2.23,5.31,2.4,8.05c-3.42-1.03-8.22-2.91-11.47-8.05C9.31,40.99,0,22.47,0,22.47c0,0,5.89,3.61,9.88,3.71-6.62-3.63-7.7-5.81-7.7-5.81-.64-.35,2.23-1.01,4.18-2.45,10.55-7.79,27.05-10.31,30.14-9.48,1.88-2.54,4.62-7.57,4.62-7.57,0,0,1.34,2.95,5.49,3.88,4.15,.94,8.97,6.7,8.97,6.7l3.88,.54S73.54-.89,78.76,.05c-2.95,2.54-8.97,10.98-6.96,12.99,.59,.59,2.89,1.33,3.76,1.31,.57-.01,1.07-.42,1.68-.39-.14,.3-.23,.68-.19,1.04,.85-.06,1.61-.59,2.51-.51-.19,.41-.37,.84-.25,1.3,1.07,.06,2.15-.27,3.2-.13-.28,.36-.48,.79-.48,1.27,.01,.01,.02,.02,.03,.03,1.07-.04,2.12-.28,3.23-.25,0,0,.05,.06,.04,.06-.31,.4-.44,.87-.49,1.35,.92,.27,2.15-.23,3.04,.16-.17,.33-.34,.71-.28,1.11,.87,.03,1.5-.65,2.61-.51-.26,.45,.61,1.39,.8,1.48,.73,.34,1.56,.32,2.35,.32,5.49,0,8.7-9.64,21.42-15.4q-10.03,19.13-.54,41.78c-11.25-2.95-11.65-20.62-20.36-20.62-.82,0-1.69,.43-2.2,.73Z"/>
  </g>
</svg>