<?xml version="1.0" encoding="UTF-8"?>
<svg id="Layer_2" data-name="Layer 2" xmlns="http://www.w3.org/2000/svg" viewBox="0 0 107.79 62.97">
  <defs>
    <style>
      .cls-1 {
        fill: #808080;
      }
    </style>
  </defs>
  <g id="Layer_1-2" data-name="Layer 1">
    <path class="cls-1" d="M94.04,25.65s.01,.03,.02,.04c.03,.02,.05,.02,.07,0,1.95-1.52,3.62-3.61,5.4-5.3,.34-.33,.46-.42,.37-.27,.03,0-.07,.15-.31,.44-.76,.96-1.42,2.06-1.99,3.29-.05,.12-.11,.24-.16,.37-.16,.37-.31,.73-.46,1.07-.34,.77-.68,1.47-1.24,2.1-1.55,1.78-4.35,3.11-6.47,3.73-.18,.05-.31,.09-.39,.13,.07,0,.22,0,.46-.04,3.35-.45,5.9-1.66,9.04-3.23,.09-.05,.12-.03,.07,.07,0,0,0,.02-.01,.02,0,.01-.01,.03-.02,.04-.83,1.66-3.12,3-4.71,4.11-.55,.38-.99,.87-1.27,1.42-.4,.85-.4,1.82,.25,2.7,1.28,1.69,3.09,3.42,3.88,5.69,.01,.04,0,.07-.03,.09,0,.03-.03,.07-.05,.08-.03,.02-.05,0-.07-.02-2.95-2.33-6.01-4.55-9.66-5.29,1.69,.85,3.31,1.81,4.79,2.95,1.52,1.17,2.88,2.5,3.99,4.05,1.52,2.14,2.23,4.61,3.95,6.66,.07,.09,.05,.1-.03,.07,.07,.09,.07,.1-.03,.07-.02-.02-.05-.03-.07-.07-2.38-2.42-4.61-4.93-6.97-7.35,0,0-.01-.01-.02-.02,0,0,0,0,0,0,2.12,2.92,4.33,6.02,6.88,8.4,2.19,2.05,4.78,4.16,6.44,6.56,.28,.41,.47,.91,.59,1.54,.01,.05,0,.07-.03,.08,0,.04-.02,.07-.07,.07-7.95-.55-14.46-5.07-19.72-10.75-.9-.97-2.62-2.92-5.19-5.85-2.23-2.53-5.08-4.66-8.21-5.96-3.38,.4-6.77,.8-10.15,1.2-.04,.03-.09,.07-.13,.1,.06,0,.12,0,.17,.01,.17,.02,.21,.09,.09,.22-.6,.71-1.59,1.81-.93,2.78,.45,.67,.98,1.31,.45,1.98-.22,.28-.53,.59-.67,.88-.57,1.24,.86,1.88,1.16,2.67,.31,.83-.38,1.09-.9,1.48-.05,.03-.05,.09,0,.12,2.71,1.83,5.64,3.36,8.51,4.9,.07,.03,.07,.07-.02,.09-6.46,1.23-14.4-1.35-19.24-5.74l-.85-.19c-.09-.02-.1,.02-.07,.09,.72,1.24,1.73,2.19,2.98,2.85,.35,.19,.33,.22-.05,.12-3.26-.89-7.24-2.99-9.6-5.85-.9,0-1.79-.03-2.68-.08-2.99,.11-5.97,.18-8.96,.22-.28,0-.56,0-.84,0,1.27,.6,2.41,1.44,3.41,2.55,1.93,2.12,3.9,4.24,5.88,6.33,.05,.05,.03,.07-.03,.07-2.19,.07-4.64-.55-6.85-1.26-5-1.65-9.35-4.23-13.06-7.76-.18,0-.37,0-.55-.01,3.67,5.51,10.34,9.03,16.66,10.43,4.76,1.05,9.18,3.5,12.78,6.76,.19,.17,.45,.36,.64,.6,0,.02,0,.03-.02,.03h-.02c-3.95-2.95-8.75-2.98-13.29-3.83-8.93-1.68-15.41-6.86-20.04-14.44-4.77-1.1-9.44-3.71-13.16-6.6-.68-.52-1.26-1.13-1.76-1.81-.89-.71-1.61-1.58-1.83-2.76-.1-.54-.1-1.1,.08-1.62,.18-.54,.51-1,.89-1.41,.52-.55,1.12-1.05,1.74-1.51C7.58,19.53,17.2,12.42,27.55,10.51c.05-.02,.1-.03,.14-.09C32.02,4.88,39.7,1.38,46.43,.26c.81-.12,1.73-.17,2.59-.26,.03,0,.07,.03,.07,.07s-.02,.05-.03,.07c0,0,0,0,0,0,0,.02-.02,.05-.03,.07-1.41,.74-2.66,1.69-3.76,2.83-.05,.06-.09,.1-.11,.14-.01,.07,.09,.07,.29,0,3.74-1.28,7.59-2.05,11.53-2.35,.1,0,.1,.02,.03,.07,0,0,0,0,0,0,.03,0,.02,.03-.02,.06-.83,.62-1.68,1.04-2.16,1.99-.03,.06-.06,.12-.08,.19-.02,.02,0,.05,.03,.07h.03c6.37-1.09,13.01-1.28,19.44-.47,.09,.02,.1,.05,.04,.09,.03,.02,.02,.05-.05,.08-1.83,1.14-3.74,2.23-5.49,3.5-.38,.28-.66,.58-.84,.91-.02,.04-.04,.07-.06,.11-.02,.07-.02,.12,.02,.17,.25,.36,.83,.8,.59,1.26-.03,.08-.07,.15-.15,.23-.34,.36-.68,.7-.89,1.1-.15,.31-.22,.66-.17,1.07,.09,.57,.59,1.12,.93,1.62,.03,.05,.05,.1,.05,.17-.03,.43-.16,.83-.36,1.21,0,0,0,.01-.01,.02,0,0,0,.02-.01,.02-.01,.03-.01,.06-.01,.1,.07,1.07,.55,1.43,1.43,2.31,.79,.78,1.66,1.4,1.36,2.47,0,.04-.03,.09-.05,.12-.01,.03-.03,.06-.05,.09-.28,.3-.5,.59-.65,.9-.4,.85-.29,1.72,.33,2.62,0,0,.01,0,.02,0,.23-.02,.43,.21,.43,.43,0,.25-.2,.41-.43,.43-.91,.07-1.81,.17-2.71,.3-.97,.14-1.94,.32-2.9,.53,.38,.43,.77,.82,1.17,1.16,5.5,4.62,13.29,1.28,18.05-2.62,1.54-1.24,3.07-2.5,4.61-3.74,5.57-4.52,12.09-7.59,19.2-8.9,.09-.01,.14,0,.16,.06,0,0,0,0,0,0,0,0,0,.02,0,.03,0,.02,0,.05,0,.09-.66,3.24-4.66,5.73-7.11,7.75-2.57,2.09-4.77,4.51-6.63,7.24Z"/>
  </g>
</svg>