<?xml version="1.0" encoding="UTF-8"?>
<svg id="Layer_2" data-name="Layer 2" xmlns="http://www.w3.org/2000/svg" viewBox="0 0 94 24.52">
  <defs>
    <style>
      .cls-1 {
        fill: #808080;
      }
    </style>
  </defs>
  <g id="Layer_1-2" data-name="Layer 1">
    <path class="cls-1" d="M91.94,15.9c-.8,.19-1.6,.32-2.41,.38,.49,.38,1.01,.71,1.56,.99,.3,.15,.26,.64-.1,.69-.51,.07-1.01,.11-1.52,.12,.2,.13,.39,.27,.58,.4,.28,.19,.28,.63-.1,.71-.48,.1-.96,.17-1.44,.21,.6,.42,1.21,.8,1.85,1.16,.39,.21,.19,.72-.22,.73-.15,0-.31,0-.46,.01,.87,.75,1.67,1.57,2.39,2.46,.29,.36-.28,.69-.59,.53-3.98-1.99-7.83-4.25-11.48-6.81-.06,.02-.12,.04-.18,.06-3.53,1.06-7.15,1.91-10.75,2.71-7.25,1.61-14.59,2.86-21.98,3.65-8.76,.94-18.02,1.03-26.51-1.41-.19,0-.38,0-.57-.01-.23,0-.35-.13-.39-.27-3.91-1.22-7.65-3-11.08-5.51-2.35-1.72-4.49-3.73-6.26-6.03-.47-.6-.91-1.22-1.32-1.87-.38-.59-.85-1.21-.96-1.91-.23-1.39,1.39-1.89,2.44-2.06,4.89-.81,9.82-1.38,14.77-1.71,.08-.05,.2-.06,.3-.02,2.19-.14,4.38-.23,6.58-.27,5.01-.1,10.03,.05,15.03,.45C43.25,1.57,47.68,.16,52.16,0c.26,0,.49,.33,.24,.51-.81,.62-1.69,1.04-2.62,1.37,.94-.03,1.88,.04,2.81,.14,.32,.04,.44,.44,.08,.53-.63,.17-1.26,.34-1.89,.52,1.27-.04,2.52,.05,3.79,.23,.21,.03,.31,.32,.14,.45-.62,.48-1.33,.92-2.07,1.24,.32,.06,.64,.11,.96,.17,.1-.1,17.23,3.1,25,7.3,.99,.54,2.44,1.09,2.98,2.18,3.97-.51,8.03-.55,12.02-.34,.16,0,.33,.09,.38,.26,.27,.96-1.4,1.19-2.03,1.34Z"/>
  </g>
</svg>