<?xml version="1.0" encoding="UTF-8"?>
<svg id="Layer_2" data-name="Layer 2" xmlns="http://www.w3.org/2000/svg" viewBox="0 0 95.42 47.56">
  <defs>
    <style>
      .cls-1 {
        fill: #808080;
      }
    </style>
  </defs>
  <g id="Layer_1-2" data-name="Layer 1">
    <path class="cls-1" d="M49.54,12.85c.78,.15,1.54,.34,2.31,.44,1.05,.13,2.1,.2,3.15,.28,.51,.04,1.02,.07,1.52,.04,1.27-.06,2.54-.13,3.8-.25,1.32-.12,2.64-.29,3.95-.48,1.13-.17,2.26-.38,3.38-.6,1.23-.24,2.47-.47,3.69-.76,1.67-.39,3.33-.79,4.98-1.25,1.55-.43,3.1-.9,4.62-1.42,1.95-.66,3.89-1.36,5.81-2.1,2.44-.94,4.86-1.94,7.28-2.91,.4-.16,.79-.33,1.19-.5,.05-.02,.11-.03,.18-.01-.75,.44-1.48,.91-2.25,1.32-2.68,1.43-5.47,2.61-8.29,3.73-1.94,.77-3.9,1.51-5.87,2.23-1.89,.69-3.8,1.36-5.71,1.99-1.79,.59-3.59,1.15-5.41,1.67-2.17,.62-4.34,1.21-6.53,1.74-1.47,.36-2.96,.59-4.45,.88-.24,.05-.49,.08-.71,.11,.23,.32,.5,.63,.7,.98,.49,.87,.89,1.76,.86,2.79-.02,.54-.23,1.01-.59,1.4-.52,.56-1.06,1.1-1.64,1.6-.54,.47-1,.97-1.36,1.59-.75,1.26-1.81,2.22-2.99,3.06-1.28,.91-2.65,1.67-4.02,2.41-1.81,.97-3.63,1.91-5.33,3.09-1.91,1.32-3.38,3.03-4.51,5.05-.83,1.5-1.65,3.01-2.55,4.48-.89,1.46-2,2.73-3.56,3.53-.45,.23-.88,.48-1.4,.55-.71,.09-1.41,.04-2.1-.09-1.77-.33-3.37-1.09-4.84-2.09-1.57-1.08-3.08-2.25-4.62-3.38-1.07-.78-2.13-1.58-3.22-2.32-1.65-1.13-3.34-2.22-4.99-3.35-1.82-1.24-3.63-2.48-5.43-3.74-.91-.64-1.81-1.29-2.67-1.98-.77-.62-1.42-1.34-1.82-2.27-.18-.43-.18-.84-.07-1.29,.51-1.98,.98-3.97,1.47-5.96,.48-1.94,1.2-3.79,2.04-5.6,.72-1.55,1.48-3.07,2.44-4.48,.64-.95,1.31-1.87,2.04-2.75,.67-.81,1.42-1.55,2.15-2.3,.42-.43,.93-.79,1.3-1.25,.52-.65,.96-1.36,1.42-2.05,.46-.69,.89-1.41,1.56-1.94,.51-.4,1.06-.74,1.74-.64,.32,.04,.65,.18,.92,.36,.69,.44,1.45,.64,2.25,.75,.68,.1,1.37,.17,2.06,.25,.89,.1,1.64,.53,2.31,1.08,1.59,1.28,3.15,2.6,4.73,3.9,.89,.73,1.81,1.41,2.88,1.88,1.39,.6,2.78,.57,4.15,0,1.05-.44,2.07-.97,3.1-1.46,.89-.42,1.81-.74,2.82-.71,.94,.02,1.79,.33,2.62,.75,1.32,.67,2.65,1.32,3.86,2.18,.54,.39,1.08,.79,1.58,1.23,.78,.67,.84,1.86,.08,2.55-.01,.01-.01,.03-.04,.09Z"/>
  </g>
</svg>