<?xml version="1.0" encoding="UTF-8"?>
<svg id="Layer_2" data-name="Layer 2" xmlns="http://www.w3.org/2000/svg" viewBox="0 0 65.73 47.79">
  <defs>
    <style>
      .cls-1 {
        fill: #808080;
      }
    </style>
  </defs>
  <g id="Layer_1-2" data-name="Layer 1">
    <path class="cls-1" d="M65.38,17.86c-3.31,.27-6.25,2.82-5.99,6.32,.18,2.37,1.49,4.99,3.63,6.14,0,0,0,0,.01,0,.13,.02,.43,.36,.54,.44-.27-.06-.58-.08-.88-.08-.31,0-.61,.02-.89,.04-.63,.06-1.25,.28-1.84,.51-.94,.36-1.82,.87-2.61,1.49-2.09,1.64-3.09,4.42-2.79,7.04,.03,.23-.46,.5-.49,.25-.01-.1-.02-.2-.03-.3-.22-2.33,0-4.79-.86-7.01-.43-1.1-1.11-2.22-2.01-3.01-.43-.38-.9-.63-1.39-.89-.35-.19-.85-.47-1.27-.41-.27,1.91-.7,3.8-1.38,5.6,0,.02-.01,.03-.02,.05,.02,0,.03,0,.03,.04-.12,1.06,1.21,1.48,2.01,1.7,.19,.05,0,.28-.11,.3-.83,.17-1.43,.54-2.03,1.13,0,0-.01,.01-.02,.02-1.53,1.45-3.19,2.69-5.01,3.68,0,.07-.05,.15-.14,.2-.62,.3-.58,1.23-.59,1.81,0,.58,.06,1.2-.11,1.77-.03,.11-.26,.27-.35,.14-.84-1.2-2-1.89-3.39-2.09-.04,.01-.09,.02-.13,.04-1.85,.48-3.75,.8-5.65,.99-1.74,.41-2.11,2.75-3.13,3.98-.08,.09-.3,.13-.26-.05,.3-1.16,.55-2.83-.43-3.74-2.32,0-4.63-.17-6.91-.51-4.78-.72-9.91-1.91-13.87-4.82-2.74-2.01-4.81-4.87-5.97-8.05-.47-.68-.68-1.59-.71-2.38,0-.03,0-.05,0-.08C-.44,24.28,.01,20.16,2.53,17.07c-.02-.28-.01-.58,0-.88,.18-2.25,1.26-4.4,2.83-6.01,.08-.08,.16-.16,.25-.25-.55,.45-1.13,.76-1.89,.7-.34-.02-1.11-.21-.68-.68,.03-.03,.15-.07,.13,0-.09,.49,.51,.51,.88,.5,.7-.01,1.22-.4,1.75-.82,.05-.04,.08-.02,.08,.02,1.37-1.27,3.18-2.42,5.08-2.08,.35,.06,.74,.15,1.13,.29,.11-.1,.22-.2,.33-.31-.01,0-.02,0-.04,0-.02,0,0-.02,.01-.02,.01,0,.03,0,.04,0,.36-.4,.63-.87,.79-1.39,.21-.67,.17-1.26,.06-1.95-.04-.16,.25-.34,.33-.17,.05,.1,.09,.21,.12,.32,.29,.56,.94,.92,1.5,1.14,.27-.54,2.26-1.48,2.48-1.57,1.8-.79,3.66-1.35,5.61-1.66,.03,0,.05,0,.06,0,.03-.08,.06-.16,.08-.24,.2-.6,.37-1.22,.5-1.83,.02-.11,.26-.31,.32-.13,.25,.72,.58,1.43,1.09,2.02,0,0,.01,.01,.02,.02,1.88-.02,3.77,.16,5.59,.61,.99,.24,1.97,.53,2.96,.78,.5,.13,1.35,.21,1.78,.59,.48-.41,.9-.88,1.11-1.48,.03-.1,.35-.3,.37-.11,.05,.62-.12,1.26,0,1.87,.02,.12,.05,.25,.07,.37,0,0,.02,0,.03,0,.44,.01,.93,.35,1.3,.56,.84,.5,1.69,.99,2.48,1.56,1.53,1.1,3.2,2.36,4.2,4,.02,0,.04,.01,.06,.03,.05,.06,.09,.13,.11,.21l.03,.04s0,.01,0,.02c.41-.14,.81-.32,1.18-.54,.25-.14,.27,.17,.07,.29-.36,.21-.62,.55-.82,.94,0,0,.02,.01,.02,.02,.03,.05,.07,.11,.1,.16,.01,0,.02,.01,.03,.03,.02,.03,.04,.07,.06,.1,.04,.06,.08,.11,.12,.17,.15,.21,.32,.43,.36,.67,0,0,0,0,0,0,.01,.02,.02,.05,.03,.07,.24,.53,.5,1.05,.75,1.58,.56,1.22,1.07,2.51,1.31,3.83,.12,.66,.18,1.32,.21,1.98,.31-1.51,1.02-2.9,1.61-4.33,.62-1.51,1.39-2.96,2.33-4.3,1.67-2.38,3.76-4.34,6.16-5.96,.61-.41,1.22-.85,1.88-1.16,.17-.08,1.12-.48,1.04,.07-.09,.58-.81,1.04-1.23,1.4-.8,.7-1.6,1.57-2.15,2.48-.63,1.04-.96,2.24-.66,3.44,.27,1.07,.91,2.05,1.7,2.81,1.58,1.53,3.76,2.41,5.95,2.48,.38,.01,.07,.46-.17,.48Z"/>
  </g>
</svg>