<?xml version="1.0" encoding="UTF-8"?>
<svg id="Layer_2" data-name="Layer 2" xmlns="http://www.w3.org/2000/svg" viewBox="0 0 193.21 64.91">
  <defs>
    <style>
      .cls-1 {
        fill: #808080;
      }
    </style>
  </defs>
  <g id="Layer_1-2" data-name="Layer 1">
    <path class="cls-1" d="M191.6,34.35c1.84,2.11,2.12,4.65,.73,6.73-.73,1.1-.82,1.12-2.05,.65-2.72-1.05-5.48-1.93-8.45-1.79-1.14,.06-2.27,.23-3.24,.9-.81,.56-.81,.94,.13,1.24,1.84,.59,3.71,1.07,5.58,1.56,1.06,.27,2.14,.45,3.2,.69,.2,.04,.38,.14,.58,.21-.16,.18-.29,.42-.49,.52-1.51,.73-3.01,1.52-4.57,2.13-5.29,2.1-10.81,3.45-16.37,4.57-3.58,.72-7.18,1.37-10.79,1.93-2.98,.46-5.99,.75-8.99,1.1-2.96,.34-5.91,.68-8.88,.96-2.5,.23-5.02,.38-7.53,.56-3.68,.25-7.36,.57-11.05,.7-3.36,.12-6.73,.03-10.09,.03v.03c-2.52,0-5.05,.09-7.57-.02-4.02-.17-8.04-.47-12.05-.71-1.55-.09-3.1-.16-4.65-.28-2.55-.21-5.1-.43-7.64-.69-1.03-.11-1.97-.01-2.92,.48-7.24,3.71-14.79,6.65-22.67,8.7-1.83,.48-1.83,.88-2.38-1.44-.83-3.52-1.71-7.02-2.49-10.55-.2-.92-.63-1.28-1.53-1.47-3.62-.75-7.22-1.57-10.83-2.38-.9-.2-1.78-.48-2.67-.74-.51-.14-.85,.04-1.19,.45-3.79,4.49-8.4,7.95-13.53,10.76-2.75,1.5-5.61,2.67-8.68,3.31-1.87,.39-3.77,.53-5.6-.12-.89-.31-1.71-.86-2.51-1.38-.54-.34-.54-.82-.23-1.42,1.13-2.2,2.29-4.4,3.26-6.68,1.65-3.88,2.71-7.94,3.25-12.14,.36-2.8,.51-5.6,.47-8.42-.09-6.21-1.35-12.17-3.63-17.94-.72-1.81-.72-1.78,1.26-1.82,4.97-.1,9.41,1.51,13.52,4.19,5.67,3.69,10.24,8.42,13.42,14.42,.37,.7,.73,.85,1.49,.61,5.13-1.61,10.27-3.18,15.42-4.73,2.13-.64,4.29-1.19,6.43-1.79,1.08-.3,1.15-.43,.76-1.51-.71-1.99-1.86-3.66-3.64-4.85-1.02-.68-1-.81,.02-1.43,2.14-1.31,4.43-2.28,6.93-2.55,4.34-.47,7.75,1.28,10.14,4.82,.86,1.28,1.58,1.63,3.12,1.27,5.64-1.33,11.32-2.49,16.99-3.68,1.72-.36,3.46-.65,5.21-.91,.86-.13,1.43-.48,1.83-1.3,2.36-4.78,2.49-9.51-.17-14.23-.13-.23-.15-.53-.23-.79,.32-.04,.66-.15,.97-.11,4.62,.64,9.03,1.95,13.08,4.32,3.4,1.98,6.25,4.53,8.26,7.95,.39,.66,.89,.92,1.65,.88,3.18-.16,6.37-.35,9.56-.4,2.39-.04,4.78,.06,7.17,.21,2.13,.14,4.26,.37,6.37,.69,3.11,.47,6.24,.91,9.29,1.65,3.79,.92,7.54,2.03,11.27,3.21,7.25,2.3,14.05,5.58,20.44,9.71,2.72,1.76,5.34,3.66,7.49,6.13Z"/>
  </g>
</svg>