<?xml version="1.0" encoding="UTF-8"?>
<svg id="Layer_2" data-name="Layer 2" xmlns="http://www.w3.org/2000/svg" viewBox="0 0 78.18 39.2">
  <defs>
    <style>
      .cls-1 {
        fill: #808080;
        fill-rule: evenodd;
      }
    </style>
  </defs>
  <g id="Layer_1-2" data-name="Layer 1">
    <path class="cls-1" d="M.45,16.6s-.84-.52-.23-1.29c.61-.77,2.49-2.14,2.9-2.53,.41-.39,3.25-2.29,4.62-2.17,1.37,.12,4.09-.14,6.3-.65,2.21-.51,9.41-1.17,12.33-1.07,2.92,.1,4.6,.88,5.96-.92,1.36-1.8,3.7-5.78,6.11-6.69,2.42-.91,4.31-1.5,4.87-1.22,.57,.28,.03,.64-.59,1.05-.62,.41-3.03,2.37-3.34,5.38-.31,3.02-.32,3.65,1.03,4.27,1.34,.62,12.91,6.79,17.29,9.93,4.39,3.14,10.87,7.34,14.1,11.28,0,0,3.1,.19,3.45,.53,.35,.34-.05,1.31,.69,1.54s2.22,.52,2.23,2.6c0,2.09-.54,2.57-.78,2.53s-.6-1.15-2.02-1.36c-1.42-.21-1.92-1.47-2.3-2.08-.38-.61-1.27-1.39-1.27-1.39,0,0-3.8,.54-6.31,.13-2.51-.42-5.85-1.96-7-2.26-1.16-.3-6.17-1.95-7.78-1.81-1.62,.13-6.69,.22-9.67,.21-2.89,0-12.54-.86-15.89-2.33,0-.01,1.31-1.95,.75-3.35s-2.85-3.16-5.19-4.17c0,0-1.04-.44-1.23-.81,0,0-.19,.33,1.18,.99,1.37,.66,4.79,3.2,4.89,4.3,.11,1.11,.05,1.65-.68,2.9,0,0-.85,1.36-1.38,1.57-.53,.21-4.65-.82-6.91-4.3,0,0-3.83-1.44-5.58-2.68-1.75-1.24-4.59-1.7-5.68-1.96s-3.88-1.23-4.46-2.23c0,0-.33-.6,.2-.92,.53-.32,2.49-.6,2.92-.59,0,0-1.44-.36-2.18-.29-.74,.06-1.35-.19-1.35-.19H.45Z"/>
  </g>
</svg>