<?xml version="1.0" encoding="UTF-8"?>
<svg id="Layer_2" data-name="Layer 2" xmlns="http://www.w3.org/2000/svg" viewBox="0 0 71.49 34.92">
  <defs>
    <style>
      .cls-1 {
        fill: #808080;
      }
    </style>
  </defs>
  <g id="Layer_1-2" data-name="Layer 1">
    <path class="cls-1" d="M57.08,34.31c-1.4-.9-2.4-2.61-3.37-4.29-6.64-.35-13.52-2.95-19.5,1.58-.35,.26-.65-.48-.35-.75-.14-.73-.28-1.46-.43-2.19-.58,.07-1.16,.11-1.74,.11-2.12,0-6.25-.66-6.23-.59-1.16-.26-2.28-.71-3.29-1.4-.83-.57-1.85-1.8-2.87-.96-.65,.53-1.21,1.17-1.91,1.64-2.01,1.33-4.31,1.94-6.56,2.62-1.29,.39-2.64,.97-3.97,1.16-.93,.13-1.79-.02-2.4-.85-1.27-1.74,1.22-3.18,2.44-3.49,2.49-.64,7.61-.24,8.9-1.11,1.43-.76-.02-1.34-3.21-1.28-1.34,.03-2.68,.17-4.02,.22-1.45,.06-2.89,.05-4.34-.12-.71-.08-1.68-.19-2.14-.89-.34-.53-.54-1.51,.1-1.92,.84-.55,1.92-.21,2.84-.11,2.82,.3,5.64,.46,8.47,.45,.76,0,1.84,.14,2.49-.36,.99-.76,.57-1.98-.58-2.21-1.29-.25-2.68-.11-3.96,.09-2.61,.4-5.18,1.23-7.83,1.33-.89,.04-1.75,.01-2.27-.88-.34-.58-.02-1.33,.49-1.64,2.02-1.24,4.41-1.56,6.7-1.61,1.42-.03,2.85,.02,4.27-.04,.68-.03,3.56,.1,3.66-1.07,.18-2.25-6.46-.32-7.34-.1-1.99,.5-4.61,1.27-6.61,.39-1.68-.74-1.28-2.78,.33-3.32,2.38-.8,4.91-.47,7.37-.44,1.4,.02,2.87,0,4.22-.46,.48-.16,1.06-.38,1.37-.84,.53-.8-.02-1.57-.7-1.98-2.23-1.32-5.05-1.26-7.51-1.2-1.3,.03-2.61,.1-3.92,.05-.85-.03-2.06,.06-2.82-.45-.52-.35-1.04-1.05-.79-1.76,.29-.82,1.06-.97,1.79-1.05,2.59-.28,5.17,.17,7.69,.8,4.27,1.07,8.9,2.63,13.23,1.44,.96-.65,2.32-.8,3.39-.87,1.41-.09,2.82,.04,4.23,.18,.56,.06,1.13,.12,1.69,.23,.53-.88,1.2-1.7,.84-2.99-.05-.16,.05-.34,.16-.34,.05-.03,.11-.04,.17,.01,5.16,3.73,10.89,1.5,16.36,2.02,1.02,.1,2.03,.28,3.03,.54,.91-1.85,1.81-3.81,3.23-4.87,1.61-1.21,3.34-.92,4.81,.68,2.37,2.57,3.74,6.4,4.7,10.31,1.36,.84,2.7,1.8,3.83,3.16,.98,1.17,2.8,3.68,2.12,5.69-.4,1.18-1.28,1.71-2.06,2.34-1,.81-2,1.63-2.99,2.44-.43,.35-.87,.71-1.3,1.05-.69,2.6-1.67,5.01-3.15,6.87-1.36,1.7-3.06,2.11-4.75,1.02Z"/>
  </g>
</svg>