<?xml version="1.0" encoding="UTF-8"?>
<svg id="Layer_2" data-name="Layer 2" xmlns="http://www.w3.org/2000/svg" viewBox="0 0 107.18 35.85">
  <defs>
    <style>
      .cls-1 {
        fill: #808080;
      }
    </style>
  </defs>
  <g id="Layer_1-2" data-name="Layer 1">
    <path class="cls-1" d="M103.96,34.21c-5.15,1.21-10.96-5.03-17.65-6.54-2.13-.48-4.97,.05-8.79,.93-.73,1.53,.93,6.3-3.34,7.17-3.04,.62-8.43-2.39-11.48-4.12-4.81,.73-10.42,1.26-16.96,1.3-1.48,.99-3.41,2-5.38,2.2-2.06,.21-5.52-1.33-8.56-2.98C2.98,28.63,0,19.5,0,19.5c-.07-1.83,6.91-10.68,27.56-12.99,4.19-.47,8.06-.44,11.71-.09C43.2,4.35,51.22,.47,56.95,.02c6.45-.51,10.62,10.29,11.77,14.52,2.67,.84,5.35,1.59,8.12,2.13,15.56,3.05,30.42-10.04,30.34-7.3-.32,10.22-9.26,13.76-9.26,13.76,4.77,4.13,8.06,10.42,6.04,11.08Z"/>
  </g>
</svg>