<?xml version="1.0" encoding="UTF-8"?>
<svg id="Layer_2" data-name="Layer 2" xmlns="http://www.w3.org/2000/svg" viewBox="0 0 82.53 49.42">
  <defs>
    <style>
      .cls-1 {
        fill: #808080;
        fill-rule: evenodd;
      }
    </style>
  </defs>
  <g id="Layer_1-2" data-name="Layer 1">
    <path class="cls-1" d="M0,27.39c0-1.35,.5-2.52,.58-3.89,.07-1.13-.29-2.18-.24-3.26,.01-.36,.04-.82,.15-1.16,.12-.34,.41-.5,.62-.78,.09-.12,.12-.33,.3-.37,.32-.81,.58-1.69,1.3-2.06,.24-.31,.45-.69,.68-1.09,.26-.46,.55-1.25,1.06-1.34,.31-.05,.89,.08,1.16,.2,.14,.06,.24,.2,.35,.25,.38,.2,.73,.31,1.08,.51,.33,.2,.68,.37,.99,.6,.59,.45,1.02,1,1.62,1.55,1.13,1.02,1.99,2.32,3.01,3.38,.05,.11-.02,.08-.03,.19,.31,.2,.63,.61,.99,.7,.1,.03,.24,0,.35,0,.48,.04,.95,.27,1.46,.39,.96,.22,1.95,.46,3.12,.52,.11,0,.04-.21,.12-.25,.33-.11,.71-.18,1.05-.27,.18-.21,.45-.33,.67-.5,.06-.1-.13-.16-.08-.35,.14-.1,.32-.15,.47-.25,.07-.29,.33-.37,.56-.5-.02-.15-.27-.05-.26-.22,.1-.39,.44-.51,.71-.72,.09-.38,.35-.57,.65-.72-.04-.34,.2-.55,.44-.71,.03-.07,.07-.13,.12-.18-.05-.24,.22-.5,.5-.54,.08-.07-.15-.19-.06-.28,.34-.36,.71-.68,1.09-1,.01-.12-.12-.08-.08-.22,.13-.2,.29-.37,.5-.5,.09-.36,.38-.49,.62-.69,.03-.52,.47-.6,.74-.87-.07-.04-.11-.11-.08-.25,.29-.34,.69-.56,1.11-.74-.11-.01-.18-.05-.23-.19,.09-.27,.36-.34,.59-.47-.19-.44,.23-.69,.58-.88,.01-.08,.04-.17,.1-.23-.11-.39,.42-.7,.71-.86,0-.09-.19-.15-.12-.22,.09-.37,.39-.53,.65-.72-.01-.45,.36-.74,.65-.97-.02-.11-.16-.08-.2-.16,.17-.38,.45-.63,.79-.81,.03-.12-.14-.04-.11-.16,.3-.51,.79-.8,1.55-.8,0-.17-.4-.17-.52-.32-.08-.12,.07-.18,.03-.34,.3-.17,.65-.28,1.05-.34-.14-.14-.33-.08-.52-.13,.17-.52,.75-.59,1.26-.74-.16-.12-.39-.17-.61-.22,.07-.23,.33-.42,.63-.56,.01,0,.02-.01,.04-.02,.2-.08,.41-.14,.59-.17,.19-.03,.39,0,.58,0-.15-.15-.39-.19-.61-.26-.17-.65,.85-.71,1.29-.84-.1-.12-.33-.11-.35-.32,.42-.15,.76-.39,1.32-.4,0-.13-.24-.02-.2-.19,.56-.31,1.27-.47,1.93-.68,.25,.1,.48,.01,.79,.04,.57,.05,1.17,.35,1.78,.58,.57,.22,1.17,.44,1.72,.61,1.21,.38,2.41,.83,3.52,1.16,1.14,.33,2.24,.91,3.28,1.4,2.18,1.02,4.2,1.95,6.1,3.28,2.76,1.92,6.11,3.28,8.12,6.02,.7,.51,1.48,.96,2.09,1.58,.31,.32,.58,.65,.9,.95,.31,.29,.67,.52,.99,.82,.31,.3,.58,.67,.9,.98,.31,.31,.65,.59,.98,.89,.66,.6,1.22,1.27,1.82,1.93,.58,.64,1.3,1.19,1.85,1.9,.3,.39,.58,.68,.9,.98,.35,.33,.67,.52,1.07,.79,.27,.18,.52,.44,.81,.63,.57,.38,1.2,.7,1.77,1.11,.39,.29,.7,.57,1.01,.89,.44,.45,1.04,.87,1.54,1.36,.24,.23,.48,.48,.72,.73,.4,.4,.7,.72,.95,1.23,.66-.34,1.09,.93,.46,1.13,.05,.18,.17,.3,.23,.47-.31,1.64-1.66,2.5-2.97,3.11-.27,.13-.58,.21-.85,.37-.54,.34-.95,.88-1.44,1.28-.24,.19-.53,.38-.79,.56-.86,.58-1.82,1.13-2.75,1.67-.67,.4-1.36,.69-2.02,1.05-.32,.18-.64,.42-.97,.59-.34,.18-.67,.35-.94,.59-.17,.15-.33,.36-.64,.37-.32,.59-.61,1.21-.97,1.78-.34,.53-.71,1.12-1.18,1.53-.37,.32-.96,.6-1.52,.87-.64,.3-1.41,.62-2.16,.49-.19-.25-.42-.48-.25-.94,.03-.1,.21-.32,.32-.5,.22-.35,.41-.61,.68-.97,.11-.15,.35-.39,.35-.47,0-.26-.63-.43-.81-.41-.3,.02-.84,.43-1.2,.56-.5,.17-.94,.23-1.26,.43-.91-.08-1.51,.67-2.19,1.14-.54,.37-1.12,.71-1.61,1.02-.57,.37-1.07,.71-1.67,.96-.59,.24-1.24,.42-1.96,.64-.66,.21-1.33,.43-2.02,.58-2.1,.45-4.16,1.08-6.54,1.21-.48,.03-.99,0-1.55,.02-.57,.03-1.21,.15-1.84,.17-.85,.04-1.75-.12-2.57,.01-1.06,.17-2.35,.5-3.41-.02-.29-.37-.82-.48-1.22-.73-.06-.22,.17-.13,.18-.28,.02-.22-.02-.37-.08-.5-.08-.09-.31-.02-.38-.13-.05-.16,.07-.18,.06-.34-.03-.36-.46-.58-.84-.6-.09-.13,.04-.21,.06-.31-.27-.21-.61-.16-.87-.32-.13-.08-.18-.25-.29-.35-.38-.34-.82-.39-1.46-.48-.08-.15,.07-.23,.09-.37-.47-.39-.93-.78-1.77-.77-.05-.05-.03-.16-.03-.25-.4-.44-.69-.99-.98-1.55-.2-.07-.29-.25-.58-.22-.24-.23-.26-.64-.52-.85-.18-.14-.42-.1-.61-.29,.03-.48-.23-.8-.57-.98-.09-.46-.26-.83-.75-.85-.08-.39-.16-.78-.46-.95,.11-.49-.25-.73-.61-.82,.02-.43-.12-.87-.64-.82-.06-.42-.22-.72-.61-.79,.01-.7-.5-1-1.07-1.17,.16-.68-.55-.76-.72-1.04-.06-.1-.04-.25-.08-.34-.14-.29-.45-.27-.61-.57,.07-.55-.32-.98-.75-1.2,.02-.69-.66-1.45-1.15-1.55-.5-.09-1,.23-1.55,.24-.07,.05-.07,.18-.15,.22-1.13,.35-2.4,.49-3.24,1.17-.15,.12-.24,.28-.38,.41-.32,.3-.72,.55-1.08,.81-1.06,.77-2.07,1.78-3.11,2.55-1.11,.82-2.31,1.42-3.69,1.95-.65,.25-1.27,.4-1.84,.77-.11,.07-.36,.3-.5,.28-.28-.05-.22-.46-.26-.85-.09-.99-.25-1.82-.56-2.54-.22-.5-.41-.85-.54-1.54-.16-.84-.31-1.71-.56-2.58C.65,29.51,0,28.76,0,27.39Z"/>
  </g>
</svg>