<?xml version="1.0" encoding="UTF-8"?>
<svg id="Layer_2" data-name="Layer 2" xmlns="http://www.w3.org/2000/svg" viewBox="0 0 88.6 44.5">
  <defs>
    <style>
      .cls-1 {
        fill: #808080;
      }
    </style>
  </defs>
  <g id="Layer_1-2" data-name="Layer 1">
    <path class="cls-1" d="M8.18,23.86c.14-.05,.28-.12,.42-.18-.14-.1-.27-.22-.42-.29-.84-.41-1.62-.91-2.16-1.69-.42-.61-.83-1.25-1.08-1.94-.44-1.25-.79-2.55-1.12-3.84-.26-.98-.67-1.88-1.16-2.75-.66-1.18-1.38-2.33-2.06-3.49-.07-.13-.08-.29-.12-.43,.15-.01,.3-.07,.44-.04,1.17,.32,2.35,.61,3.5,.99,1.45,.49,2.86,1.07,4.2,1.81,2.78,1.55,5.12,3.55,6.59,6.44,.24,.47,.43,.97,.57,1.48,.1,.34,.27,.52,.59,.56,1.26,.17,2.52,.44,3.79,.47,1.23,.03,2.46-.2,3.69-.33,.13-.01,.24-.1,.37-.16-.09-.11-.15-.28-.27-.34-.68-.34-1.38-.65-2.07-.98-.76-.37-1.54-.7-2.12-1.35-.08-.09-.19-.16-.23-.26-.06-.13-.07-.29-.09-.43,.14-.01,.29-.05,.43-.03,.4,.05,.81,.2,1.21,.19,1.21-.03,2.36-1.04,2.51-2.46,.04-.35,.11-.44,.49-.44,1.39-.01,2.46-.9,2.61-2.28,.06-.53,.07-.56,.57-.35,1.04,.44,1.96,.2,2.81-.43,.25-.19,.4-.52,.57-.8,.14-.23,.26-.3,.56-.2,1.26,.4,2.38,.11,3.21-1.03,.53-.72,.52-.67,1.37-.41,1.59,.49,3.21-.17,3.65-1.97,.11-.44,.12-.46,.59-.34,1.51,.41,2.91-.57,3.2-1.84,.11-.48,.16-.5,.69-.46,.71,.05,1.42,.07,2.03-.39,.23-.18,.47-.36,.65-.58,.2-.24,.39-.3,.71-.25,.44,.07,.91,.09,1.35,.03,.56-.07,1.02-.36,1.4-.81,.35-.42,.41-.42,.81-.1,1.61,1.32,3.19,.54,4.01-.75,.28-.45,.28-.45,.69-.12,1.14,.94,2.71,.85,3.69-.27,.19-.22,.3-.5,.45-.75,.19-.31,.42-.36,.66-.1,.69,.73,1.53,1,2.5,.79,.33-.07,.66-.23,.94-.42,.47-.31,.49-.36,.83,.03,.62,.72,1.38,1.07,2.32,1.08,.13,0,.31,.15,.39,.27,.36,.58,.79,1.08,1.46,1.31,.33,.11,.37,.36,.36,.66-.05,1.25,.57,2.08,1.69,2.57,.21,.09,.45,.15,.68,.16,.36,.01,.48,.19,.47,.52-.01,.33,0,.67,0,1,0,0-.02,0-.03,0,.03,.43-.09,.96,.12,1.26,.21,.3,.74,.37,1.14,.53,2.37,.95,4.54,2.24,6.58,3.75,1.58,1.17,3.12,2.4,4.48,3.81,1.59,1.64,3.04,3.4,3.84,5.59,1.01,2.78,.49,5.24-1.5,7.42-2.23,2.44-5.03,3.98-8.07,5.14-2.77,1.06-5.64,1.69-8.55,2.14-.68,.1-1.36,.16-2.04,.24-.5,.06-.91,.24-1.27,.65-1.4,1.56-3.08,2.78-4.94,3.76-1.79,.94-3.68,1.58-5.66,1.88-2.3,.35-4.58,.24-6.79-.6-.73-.28-.81-.52-.23-1.06,.7-.66,1.42-1.3,2.18-1.88,1.13-.85,2.3-1.64,3.45-2.45,.07-.05,.12-.13,.19-.2-.08-.04-.16-.1-.25-.11-1.88-.32-3.76-.61-5.63-.96-1.08-.2-2.15-.47-3.21-.75-2.31-.61-4.62-1.24-6.93-1.89-.34-.09-.59-.06-.87,.14-.79,.58-1.6,1.14-2.38,1.72-.78,.57-1.7,.73-2.61,.78-1.16,.07-2.32,.08-3.48-.01-.87-.07-1.74-.3-2.59-.51-1.68-.41-3.3-1.01-4.82-1.85-1.4-.77-2.73-1.64-3.78-2.86-.58-.69-1.17-1.4-1.08-2.4,.02-.27,.1-.54,.19-.79,.16-.44,.16-.47-.32-.59-.32-.08-.66-.13-.98-.22-.33-.1-.53,0-.74,.28-.62,.9-1.22,1.83-1.94,2.65-.87,.98-1.81,1.91-2.8,2.77-1.87,1.65-4.01,2.89-6.3,3.86-1.1,.47-2.21,.9-3.39,1.11-.19,.03-.37,.13-.56,.17-.13,.02-.26-.01-.39-.02,.02-.13,.01-.27,.07-.37,.26-.46,.57-.89,.82-1.36,.7-1.29,1.42-2.58,2.04-3.91,.32-.68,.42-1.46,.62-2.2,.4-1.47,.69-2.98,1.47-4.32,.73-1.26,1.8-2.11,3.15-2.62Z"/>
  </g>
</svg>