<?xml version="1.0" encoding="UTF-8"?>
<svg id="Layer_2" data-name="Layer 2" xmlns="http://www.w3.org/2000/svg" viewBox="0 0 91.93 53.39">
  <defs>
    <style>
      .cls-1 {
        fill: #808080;
      }
    </style>
  </defs>
  <g id="Layer_1-2" data-name="Layer 1">
    <path class="cls-1" d="M5.6,0h1.42c1.78,1.61,4.26,1.98,6.56,2.24,.84,.19,1.67-.21,2.52-.1,1.44,.16,2.9,.51,4.12,1.31,.54,.4,1.24,.29,1.86,.42,2.48,.43,5.09,1.35,6.63,3.46,.36,.61,1.07,.81,1.62,1.19,1.24,.82,2.3,1.87,3.26,3,.92,1.05,1.76,2.2,2.36,3.46-2.43,1.12-4.74,2.5-6.84,4.15-.81,.61-1.47,1.46-2.44,1.83-1.06,.42-2.22,.53-3.34,.49-1.04-.1-2.17-.27-2.97-.99-.49-.4-.55-1.11-.3-1.66,.4-.96,1.3-1.58,1.82-2.47,1.31-2.14,2.05-4.82,1.3-7.29-.43-1.45-1.68-2.41-2.89-3.2-.67-.48-1.51-.62-2.28-.85-1.24-.3-2.39-.87-3.63-1.17-1.81-.16-3.71,.4-5.46-.3-1.53-.65-2.69-2.03-3.33-3.54ZM60.17,10.12c-.53-2.48-.94-5.27-2.96-7.03-.32-.25-.87-.79-1.23-.34-.34,.9-.2,1.92-.6,2.82-.84-.06-1.33-.86-1.89-1.4-1.11-1.21-2.34-2.39-3.88-3.03-.37-.17-.95-.21-1.12,.26-.31,.99,.03,2.06-.24,3.06-.07,.22-.24,.44-.5,.39-.86-.09-1.41-.84-2.16-1.18-.77,.84-.57,2.18-1.4,2.99-.38,.37-.98,.21-1.42,.44-.5,.9-.38,2-.81,2.93-.24,.42-.8,.54-.98,.99-.27,.65-.34,1.35-.49,2.03,3.03-1.06,6.13-1.93,9.3-2.45,3.42-.56,6.91-.84,10.37-.48ZM.09,16.99c-.21-.73-.09-1.83,.83-1.96,1.76-.2,3.65-.29,5.3,.47,3.36,1.46,6.2,3.84,9.39,5.59,2.2,1.25,4.69,2.16,7.26,1.98,2.12-.18,4.28-.88,5.86-2.35,2.31-2.04,5-3.6,7.77-4.93,3.66-1.72,7.53-2.97,11.48-3.83,3.4-.69,6.87-1.11,10.34-.97,2.9,.15,5.8,.78,8.41,2.06,1.79,.84,3.4,2.02,5.17,2.9,2.27,1.13,4.65,2.04,6.95,3.11,3.93,1.82,7.82,3.74,11.57,5.91,.37,.22,.78,.42,1.07,.75,.4,.44,.27,1.3-.33,1.49-.7,.27-1.46,.32-2.19,.49-1.62,.34-3.25,.94-4.47,2.1-.39,.3-.7,.78-1.21,.84-.4-.28-.36-.83-.17-1.22,.19-.54,.66-.88,1.03-1.29-.78,.28-1.53,.89-1.68,1.75-.11,.52,.09,1.17,.62,1.37,.82,.14,1.43-.55,1.98-1.06,1.03-1.04,2.44-1.59,3.86-1.87,.87-.16,1.86-.19,2.62,.34,.5,.36,.5,1.12,.18,1.6-.49,.8-1.13,1.5-1.79,2.17-2.4,2.37-5.33,4.11-8.23,5.79-.79,.44-1.52,1.05-2.43,1.23-.81,.12-1.52-.38-2.05-.93-1.49-1.48-3.08-2.85-4.58-4.33-.93-.95-1.87-1.93-2.5-3.11-.61-1.13-.73-2.42-.92-3.67-.15-1.12-.35-2.22-.53-3.33,.08,1.83,.04,3.66,.28,5.48,.25,1.92,1.54,3.46,2.82,4.82,1.54,1.59,3.22,3.05,4.8,4.6-1.25-.04-2.54-.09-3.7-.58-2.02-.84-3.75-2.28-5.1-3.99-1.53-2-2.44-4.63-1.94-7.15,.19-1.11,.85-2.09,.91-3.23-.59,1.42-1.47,2.77-1.57,4.35-.16,2.35,.71,4.67,2.11,6.53,1.45,1.9,3.41,3.42,5.63,4.3,1.28,.53,2.69,.47,4.03,.72-2.03,1.04-4.29,1.54-6.55,1.77-2.84,.34-5.7,.22-8.55,.07-1.27,1.79-2.63,3.53-4.1,5.17-1.76,1.96-4.12,3.26-6.56,4.18-2.12,.8-4.45,1.18-6.69,.75-1.45,.45-3.04,.74-4.51,.22-2.27,.75-4.72,1.02-7.07,.48-1.04,.22-2.06,.62-3.14,.62-1.71,.11-3.38-.82-5.08-.32-1.19,.32-2.42,.68-3.67,.48-1.53-.25-2.81-1.21-3.92-2.23-.71-.61-1.29-1.38-2.12-1.84-.31-.18-.82-.47-.57-.9,.21-.43,.77-.32,1.13-.17,1.94,.81,3.43,2.47,5.46,3.12,1.26,.38,2.61,.37,3.89,.11,1.82-.36,3.55,.67,5.37,.42,1.08-.11,1.99-.78,3.04-1,1.65-.39,3.35-.48,5.03-.63,.75-.07,1.56-.08,2.22-.51,1.52-.89,3.11-1.97,3.76-3.69,.56-1.35,.03-2.86,.5-4.23,.22-.48,.8-.63,1.29-.61,2.15,.07,4.27,.74,6.43,.46,.92-.14,1.85-.3,2.74-.6-2.73-.42-5.47-.85-8.18-1.41-3.62-.72-7.3-1.2-10.81-2.4-2.02-.77-4.09-1.57-5.75-3-.89-.76-1.51-1.85-2.62-2.31-3.07-1.41-6.67-1.54-9.89-.59-2.9,.8-5.37,2.58-7.92,4.09-2.14,1.29-4.53,2.25-7.04,2.46-.41,.02-.98,.07-1.17-.39-.22-.55-.08-1.17,.12-1.71,.46-1.26,1.61-2.08,2.2-3.26,.36-.71,.49-1.52,.54-2.31,.05-1.36-.04-2.73-.16-4.09-.09-.89-.42-1.74-.92-2.48-1.35-2.11-2.99-4.15-3.59-6.64Zm83.22,7.77c.4-.16,.81-.27,1.24-.33-.35-.09-.7-.19-1.03-.32-.05,.22-.13,.44-.21,.65Zm-6.44-3.56c-.46,.15-.85,.52-1.01,.97-.36,.84,.19,1.97,1.13,2.09,.88,.19,1.89-.42,1.97-1.35,.21-1.11-1.06-2.06-2.09-1.71Zm-2.18,2.85c.39,.53,1.08,.56,1.68,.52-.36-.1-.75-.12-1.09-.27-.43-.3-.66-.84-.65-1.35,.12-1.07,.92-2.03,1.94-2.37,.64-.22,1.32-.14,1.98-.16-1.12-.71-2.68-.41-3.53,.58-.77,.77-1.17,2.18-.34,3.05Zm-36.71,10.74c-.28-.09-.88-.17-.74,.31,.3,.27,.62,0,.74-.31Zm2.03-6.56c.02-.59-.56-.71-1.03-.63,.02,.56,.54,.74,1.03,.63Zm.13,5.89c0-.13,0-.38-.01-.51-.29,.04-.57,.12-.61,.45,.2,.02,.41,.04,.62,.06Zm2.4,.59c-.09-.11-.28-.32-.37-.42-.14,.16-.28,.32-.41,.49,.26,0,.52-.03,.78-.07Zm21.08-6.67c-.2,.01-.39,.02-.59,.04,0,.11,.01,.34,.02,.45,.22,0,.44,0,.66,0-.03-.16-.06-.32-.09-.48Zm-.07-1.82c0-.13,.03-.39,.04-.52-.22-.04-.43-.08-.65-.1-.01,.12-.03,.35-.05,.47,.22,.05,.44,.11,.66,.16Zm-.7-3.82c.01,.21,.03,.43,.05,.64,.23,.02,.47,.03,.7,.04-.01-.45-.31-.71-.76-.68Zm-2.05-1.34c.58-.13,.55-.69,.42-1.15-.11-.01-.32-.04-.43-.05-.16,.39-.16,.8,0,1.2Zm-.19,6.25c-.02,.16-.04,.32-.05,.49,.25,0,.52,.06,.74-.1,.1-.39-.4-.55-.68-.39Zm-.68-2.93c.06,.19,.13,.38,.22,.56,.16,.26,.5,.16,.76,.19-.05-.21-.02-.46-.19-.62-.21-.22-.53-.13-.79-.13Zm-1.25-3.83c.37-.3,.22-.76,0-1.09-.43,.22-.55,.96,0,1.09Zm-.39,5.16c.01,.11,.04,.34,.05,.45,.18,.01,.36,.02,.54,.03,0-.12,0-.36,0-.48-.2,0-.4-.01-.6-.01Zm.17-2.12c0-.22,0-.43,0-.65-.15,.06-.29,.13-.42,.21-.08,.28,.26,.32,.43,.44Zm-2.25,2.37c-.09,.04-.27,.11-.35,.15,.01,.1,.04,.3,.05,.4,.18,0,.37,0,.55,0,0-.11,.03-.32,.03-.43-.07-.03-.21-.09-.28-.12Zm.21-1.85c-.26-.01-.52-.02-.78-.02,.03,.12,.09,.35,.12,.47,.22,0,.44,0,.66,.01,0-.11,0-.34,0-.46Zm-.63-5.05c.18,.01,.36,.03,.55,.05,.05-.36,.13-.81-.19-1.08-.55-.12-.41,.69-.36,1.03Zm-.65,2.76c.22,.04,.44,.09,.67,.1,.09-.17,.12-.36,.16-.55-.26-.03-.52-.06-.78-.06-.01,.13-.04,.39-.05,.52Zm-2.14-2.85c-.1,.39,.23,.64,.57,.72,.14-.4,.16-.82-.03-1.21-.25,.1-.61,.14-.54,.49Zm-.1,3.73c.25,.11,.52,.17,.8,.2-.09-.23-.13-.61-.46-.58-.21-.05-.23,.27-.34,.38Zm-.22,2.6c.04,.48,.45,.58,.87,.55,.01-.5-.47-.59-.87-.55Zm-1.48-5.13c-.2-.08-.41-.12-.63-.11,.03,.21,.07,.42,.11,.64,.21,.02,.42,.03,.63,.05-.03-.19-.07-.38-.12-.57Zm-.05,5.64c-.25,.01-.59-.09-.67,.24,.15,.31,.5,.3,.8,.34-.04-.19-.08-.38-.12-.58Zm-.81-7.6c.19,0,.38,0,.58,0-.01-.26-.04-.52-.07-.78-.17,0-.34,0-.51,.01,0,.25,0,.51,0,.76Zm-.05,5.45c.19-.03,.38-.06,.58-.11,.12-.35-.32-.4-.54-.51,0,.16-.03,.47-.04,.62Zm-2.19-4.03c.19,.05,.39,.05,.58,.07,0-.32,.08-.7-.15-.97-.17-.03-.34-.06-.51-.07-.04,.32-.16,.7,.07,.97Zm-.3,2.52c.24,.01,.49,.02,.73,.02,.05-.44-.28-.61-.67-.61-.02,.15-.05,.44-.06,.59Zm-.17,1.88c.04,.23-.05,.57,.2,.71,.2,.01,.41,0,.62-.02,.02-.49-.35-.77-.82-.68Zm-2.21-5.33c.17,0,.35,.02,.52,.02,0-.38,.13-1.01-.45-.91-.15,.27-.09,.59-.07,.88Zm-.57,3.25c.36,.2,.54-.34,.39-.61-.03-.17-.42-.46-.51-.21-.23,.23-.25,.73,.12,.83Zm-.59,2.84c.19,.04,.38,.07,.57,.09,.03-.34-.21-.9-.63-.64-.03,.19,0,.37,.06,.55Zm-1.37,4.12c-.54,.1-1.08,.5-1.09,1.1,.01,.99,.61,1.88,1.36,2.49,.98,.85,2.29,1.11,3.5,1.47,1.34,.38,2.52,1.12,3.82,1.6,2.02,.75,4.13,1.3,6.26,1.59,1.37,.13,2.8,.23,4.13-.18,.67-.21,1.36-.68,1.52-1.41,.21-.94-.45-1.81-.31-2.75,.09-.7,1.04-.72,1.24-1.35,.03-.48-.26-.92-.65-1.17-.81-.57-1.73-.96-2.64-1.34-1.78-.74-3.74-.83-5.65-.91-1.41-.1-2.83-.06-4.24,.01-2.44,.08-4.89,.31-7.27,.85Zm-.99-6.48c0,.18,.02,.36,.05,.55,.2,.04,.41,.08,.62,.1-.04-.2-.08-.4-.13-.59-.18-.03-.36-.05-.54-.05Zm-.18,4.31c.2,.04,.4,.1,.61,.12,.09-.17,.11-.36,.15-.54-.24-.05-.48-.09-.72-.13,0,.14-.03,.41-.03,.54Zm-.26-6.69c.32-.31-.09-1.29-.53-.86-.4,.32,.11,1.38,.53,.86Zm-1.57,12c-.45,.15,.57,.67,.53,.25,.13-.29-.34-.51-.53-.25Zm-.17-7.18c.02,.19,.05,.38,.08,.57,.16,0,.32,0,.48,.01,.01-.17,.03-.34,.04-.51-.2-.02-.41-.05-.61-.08Zm-.51-2.55c.53-.25,.06-1.42-.49-1.05-.17,.37-.06,1.22,.49,1.05Zm-1.32,10.34c-.3-.07-.35,.26-.47,.45,.26,.02,.53,.02,.8,.01-.09-.15-.07-.52-.33-.47Zm-.27-1.81c-.09,.27,0,.35,.28,.26,.09-.27,0-.36-.28-.26Zm-.58-6.57c.19,.18,.49,.14,.73,.19-.02-.22-.07-.43-.13-.64-.17-.19-.44-.15-.66-.17,.01,.21-.06,.44,.06,.62Zm-.43,2.43c.23-.02,.46-.04,.7-.06-.16-.26-.38-.46-.68-.51,0,.14-.01,.43-.01,.57Zm-.02,2.82c.01,.12,.04,.34,.05,.46,.17,0,.35,0,.52,0,0-.11,.02-.33,.03-.44-.2,0-.4-.01-.6-.02Zm-.27,2.23c.23-.23-.17-.57-.38-.36-.24,.22,.17,.57,.38,.36Zm-.68,2.09c0,.1,0,.31,0,.41,.19,0,.38,0,.57,.01,0-.11,.02-.33,.02-.45-.2,0-.4,0-.6,.02Zm-.62-10.71c.12,.02,.36,.05,.48,.07,.12-.41,.13-1.01-.39-1.13-.27,.31-.16,.7-.09,1.05Zm-.51,5.02c.18,0,.37,.02,.56,.02,0-.1-.02-.31-.03-.42-.18,0-.35,0-.52,0,0,.1,0,.29,0,.39Zm-.3,2.38c.33,.04,.8,.18,.92-.26-.36-.15-.82-.23-.92,.26Zm-.39,1.86c.07,.27,.25,.41,.53,.41,.03-.12,.11-.35,.14-.47-.17,.01-.5,.04-.67,.05Zm-.57,1.76c.26,.35,.85,.4,.9-.13-.31,0-.61,.01-.9,.13Zm-.49-7.6c.05-.18,.08-.36,.12-.55-.2-.03-.4-.05-.6-.06-.19,.34,.15,.62,.48,.61Zm-.69,2.26c.22,.02,.45,.03,.67,.03-.08-.16-.16-.32-.23-.48-.15,.14-.3,.29-.44,.45Zm-.56,3.92c.2-.06,.41-.13,.61-.21-.03-.32-.36-.27-.59-.33,0,.14-.01,.41-.02,.55Zm-.75-5.86c.04-.31-.26-.57-.54-.39-.57,.27,.33,.87,.54,.39Zm-1.61,3.5c-.22-.29-.54-.35-.88-.27-.02,.12-.07,.36-.09,.48,.34,.03,.67-.03,.97-.22Zm-.9-2.18c0,.48,.68,.72,.82,.2-.15-.34-.53-.21-.82-.2Zm-.55-2.46c.18,0,.37,0,.56,0-.01-.1-.04-.3-.06-.39-.17-.02-.33-.04-.49-.07,0,.12,0,.35-.01,.46Zm-1.21,3.07c-.24,.13-.4,.33-.49,.59,.21,0,.42,0,.63,0-.04-.2-.09-.39-.14-.59Zm-.81-1.97c.16,.33,.47,.36,.8,.3-.03-.13-.08-.38-.11-.51-.23,.06-.47,.13-.69,.21Zm-1.73,.98c.14,.14,.28,.28,.43,.42,.03-.13,.1-.38,.14-.51-.14,.02-.43,.06-.57,.09Zm-1.32-1.73c.29,.11,.61,.14,.92,.07-.04-.13-.13-.38-.17-.51-.33,0-.64,.09-.75,.44Zm-1.35,.76c.02,.11,.05,.32,.07,.43,.16,.02,.32,.04,.48,.06,.03-.12,.08-.37,.1-.49-.22,0-.44,0-.65,0Zm-.2,2.2c0,.12,.02,.35,.03,.47,.09-.02,.26-.08,.34-.1,.01-.07,.03-.22,.05-.29-.11-.02-.31-.06-.42-.08Zm-3.47-.16c.02,.13,.05,.38,.07,.51,.37-.07,.73-.2,.93-.55-.33-.18-.67-.14-1,.04Zm-.4-2.13c.35-.03,.72-.09,.71-.52-.24,.01-.47,.03-.71,.05,0,.12,0,.35,0,.47Zm-1.68,1.29c-.27-.05-.53-.1-.8-.13,0,.12-.02,.37-.03,.5,.35,.04,.66-.04,.83-.37Zm-.95-3.19c.41-.05,.12-.69-.21-.5-.41,.08-.12,.64,.21,.5Zm-1.87,4.8c-.28,.01-.56,.05-.83,.09,0,.12,.01,.37,.02,.5,.37-.05,.74-.16,.81-.59Zm-.26-3.45c-.27,.04-.54,.09-.8,.16,.15,.26,.4,.35,.69,.29,.03-.11,.08-.33,.11-.45Zm-1.27-3c.31,.2,.66,.23,1.01,.13-.04-.12-.13-.37-.17-.5-.36-.06-.73-.04-.85,.37Zm67.24-.16c-.23,.77-1.38,.93-1.81,.26-.39-.5-.04-1.19,.44-1.47,.71-.39,1.8,.41,1.36,1.21Zm-.85-1c-.5-.18-.77,.37-.83,.77,.13-.02,.38-.06,.51-.08,.18-.19,.72-.44,.32-.69Zm-30.95,11.13c1.7,.39,3.15,1.44,4.82,1.92,2.55,.8,5.21,1.49,7.9,1.39,.85-.09,2.08-.18,2.34-1.18,.01-.83-.47-1.61-.36-2.45,.06-.75,.71-1.21,1.23-1.65-1.69-1.22-3.7-2.01-5.78-2.19-4.04-.38-8.12-.18-12.13,.36-.69,.12-1.42,.13-2.05,.44-.2,.58,.16,1.17,.49,1.63,.84,1.11,2.28,1.38,3.54,1.73Zm-29.52,8.47c-.84,.06-1.6,.47-2.4,.7-1.1,.34-2.3,.25-3.4-.07-1.07-.31-2.14-.79-3.29-.66-1.43,.06-2.52,1.2-3.94,1.3-.65,.11-1.4-.08-1.97,.34-.36,.24-.13,.93,.3,.89,.67-.05,1.33-.05,2-.09,1.41-.09,2.51-1.28,3.95-1.22,1.41,.06,2.71,.69,4.11,.84,1.17,.16,2.36-.03,3.5-.32,.48-.14,.97,.06,1.46,.06,.84,.08,1.68-.25,2.51-.03,.93,.2,1.85-.11,2.77-.15,2.29,.42,4.58-.34,6.64-1.27,2.29-1.03,4.32-2.51,6.3-4.03-2.04-.81-4.16-1.63-5.79-3.16-.69-.62-1.21-1.45-2.05-1.9-1.55-.85-3.51-1.16-5.15-.39-.66,.3-1.36,.77-1.49,1.53-.04,.68,.47,1.22,.74,1.8,.68,1.3,.42,3.01-.6,4.06-1.09,1.13-2.67,1.69-4.22,1.78Z"/>
  </g>
</svg>