<?xml version="1.0" encoding="UTF-8"?>
<svg id="Layer_2" data-name="Layer 2" xmlns="http://www.w3.org/2000/svg" viewBox="0 0 64.33 49.57">
  <defs>
    <style>
      .cls-1 {
        fill: #808080;
      }
    </style>
  </defs>
  <g id="Layer_1-2" data-name="Layer 1">
    <path class="cls-1" d="M63.53,32.49s.03,.11,0,.17c-.13,.33-.46,.49-.77,.61-3.51,.68-7.31,.33-10.61,1.88-1.87,1.05-3.37,2.63-5.37,3.47-1.74,.72-3.59,1.14-5.44,1.49-1.56,.21-2.7,.44-3.65,1.21-.71,1.27-1.45,2.52-2.34,3.67-.94,1.42-2.36,2.34-3.84,3.14-1.08,.58-2.18,1.34-3.43,1.43-2.05-.23,.28-2.53,.56-3.48,.63-1.33,1.07-2.72,1.22-4.18,.01-.04,.02-.09,.02-.14-2.6,1.04-5.22,2.06-7.91,2.85-2.12,.61-4.28,1.18-6.5,1.18-.76-.03-1.52,0-2.27-.1-2.13-.52-4.39-2.13-4.48-4.5-.19-1.81,1.12-3.24,1.83-4.77,.35-.88,.58-1.78,.54-2.72-.1-.76-.14-1.57,.4-2.19,.46-.57,1.1-.92,1.78-1.13-4.08-.15-6.3,4.62-10.25,4.9-.84,.03-1.5-.54-1.84-1.27-1.1-2.02-.16-4.41-.2-6.58,.08-1.67-.13-3.34-.42-4.98-.32-1.56-1.1-3.52,.1-4.89,2.02-2.01,4.96,.95,6.65,2.17,1.03,.82,1.98,2,3.27,2.34,.32,.02,.66-.03,.84-.31,.75-1.7-1.07-4.13-1.52-5.85-.52-1.21-.93-2.48-1.22-3.76-.35-1.14-.76-2.26-.95-3.43-.71-3.08-1.28-6.65,2.31-8.11C12.84-.42,15.93,.12,18.86,.28c2.75,.21,5.51,.48,8.18,1.21,3.64,1.13,7.24,2.54,10.48,4.56,2.1,1.44,4.1,3.06,5.73,5.03,.21,.31,.42,.62,.63,.93,.66,.8,1.23,1.66,1.72,2.56,.48,.73,.87,1.51,1.24,2.31,.4,.65,.78,1.33,.99,2.08,1.03,2.84,2.15,5.77,4.01,8.18,2.03,2.08,4.73,3.45,7.65,3.58,.94,.07,1.92,.14,2.86,.17,.61,.03,1.34-.07,1.81,.4,.47,.5-.06,1.09-.62,1.2Zm-20.67,7.97c-.17,.02-.33,.05-.5,.08,0,0,.02,0,.03,0-.19,.03-.38,.05-.57,.08-.08,0-.17,.02-.25,.03-.07,0-.13,.03-.2,.04-.19,.03-.39,.05-.58,.08,0,0-.01,0-.02,0h0s0,0-.01,0c-.08,.02-.17,.04-.25,.05,0,0,0,0,0,0,0,0,0,0-.01,0h0s0,0,0,0h0c-.1,.02-.2,.04-.3,.06-.09,.02-.18,.03-.27,.04-.09,.03-.19,.06-.28,.08h0c-.1,.03-.21,.07-.31,.1,0,0,0,0,0,0,0,0,0,0,0,0-.09,.03-.18,.06-.28,.09-.12,.04-.24,.08-.35,.12,0,0,0,0,0,0-.05,.02-.11,.04-.16,.06-.11,.05-.22,.1-.32,.16,0,0-.02,0-.03,.01-.04,.04-.08,.09-.11,.14-.92,1.4-1.64,2.94-2.79,4.18-.46,.49-.93,.98-1.42,1.46,.06-.03,.11-.06,.17-.08,.13-.06,.26-.1,.39-.16,.09-.04,.18-.09,.27-.14,.09-.05,.18-.09,.27-.13,.1-.05,.21-.1,.31-.16,.09-.05,.18-.09,.27-.14,0,0,0,0-.01,0,.09-.05,.17-.1,.26-.15,.09-.05,.18-.1,.27-.15,0,0,0,0,0,0,0,0,0,0,0,0,.2-.11,.41-.23,.61-.34,.1-.06,.2-.12,.3-.19,.14-.09,.28-.17,.42-.26,0,0-.02,0-.02,.01,.14-.09,.28-.19,.41-.28,.14-.1,.29-.19,.43-.29,.22-.16,.43-.33,.64-.5,0,0-.01,.01-.02,.02,.14-.12,.29-.24,.43-.36,.14-.12,.28-.24,.41-.37,0,0,0,0,0,0,0,0,0,0,0,0,0,0,0,0,0,0,.12-.11,.24-.21,.36-.32,0,0,0,0,0,0,.1-.09,.21-.19,.31-.28,.1-.1,.21-.19,.31-.29,0,0-.01,.01-.02,.02,.09-.09,.17-.18,.26-.27,.09-.09,.18-.18,.26-.27,0,0,.01-.01,.02-.02,0,0,0,0-.01,.01,.02-.02,.03-.04,.05-.06,.11-.12,.23-.22,.34-.33,0,0-.01,.01-.02,.02,.13-.13,.26-.26,.39-.39,.12-.12,.25-.24,.37-.36,0,0,0,0,0,0,.07-.08,.14-.15,.21-.23,.08-.09,.17-.18,.25-.27,0,0-.01,.01-.02,.02,.05-.06,.11-.12,.16-.18-.01,0-.03,0-.04,0Z"/>
  </g>
</svg>