<?xml version="1.0" encoding="UTF-8"?>
<svg id="Layer_2" data-name="Layer 2" xmlns="http://www.w3.org/2000/svg" viewBox="0 0 59.61 58.64">
  <defs>
    <style>
      .cls-1 {
        fill: #808080;
      }
    </style>
  </defs>
  <g id="Layer_1-2" data-name="Layer 1">
    <path class="cls-1" d="M54.06,8.94c.11,.06,.23,.07,.35,.08,1.42,.17,2.84,.82,4.08,1.52,.47,.26,1,.65,1.1,1.22,.1,.56-.1,1.33-.51,1.73-.23,.23-.52,.36-.8,.52-.54,.32-.92,.77-1.39,1.17-.83,.69-1.74,1.3-2.49,2.09-.56,.58-.98,1.22-1.63,1.71-.62,.47-1.28,.86-1.94,1.26-1.29,.78-2.59,1.56-3.88,2.34-1.18,.71-2.53,1.06-3.76,1.69-.95,.48-1.83,1.08-2.71,1.67-.8,.53-1.58,1.17-2.42,1.63-.65,.36,.34,1.63,.58,1.93,.76,.93,1.85,1.5,2.21,2.72,.17,.58,.2,1.18,.19,1.78-.01,.49,.08,1.18-.29,1.56-.56,.55-1.48,.39-2.18,.31-.51-.05-1.02-.11-1.5-.29-.68-.25-1.26-.71-1.83-1.14-.53-.39-.51,1.4-.85,2.95-.34,1.55-.89,2.32-1.1,2.57-.19,.23-.37-.7-.38-.76-.11-.68-.04-1.37-.16-2.06-.19-1.04-1.05-1.63-1.4-2.59-.34-.94-.18-1.54-.32-1.54-.13,0-.3,.16-.4,.23-.29,.21-.56,.45-.82,.7-.86,.8-1.66,1.62-2.63,2.29-.94,.66-1.95,1.22-2.97,1.74-1.23,.64-2.51,1.27-3.85,1.64-2.32,.64-1.72,1.28-2.05,2.13-.33,.85-.71,2.7-1.18,4.29-.06,.21-.25,.81,.16,.64,.77-.33,1.02-1.32,1.35-2,.24-.51,.58-1.01,1.1-1.23,.47-.19,1.02-.11,1.49,.08,1.54,.62,2.8,1.84,3.58,3.28,.65,1.21,1.07,2.6,1.19,3.97,.04,.48,.68,.85,1.03,1.09,1.46,.98,2.68,2.19,3.43,3.8,.31,.68,.91,2.07,.19,2.7-.16,.14-.38,.21-.59,.24-1.9,.29-4.15-.99-5.75-1.87-1.27-.69-2.59-1.45-3.69-2.39-1.04-.89-3.27-2.74-3.38-2.45-.08,.21,.29,1.89,.49,2.76,.03,.12-.14,.18-.2,.08-.55-.99-1.12-3-1.22-3.13-.29-.39-.87-.69-1.25-.98-2.17-1.63-4.01-3.29-5.31-5.72-1.05-1.97-1.57-4.09-2.22-6.21-.81-2.64-.32-5.68-.22-8.4,0-.09,0-.2-.07-.25-.32,.33-.39,.96-.49,1.39-.36,1.7-1.75,1.56-1.75,1.56-3.84,.48-4.95-3.78-4.95-7.53s3.39-6.08,4.26-6.71c.76-.55,1.46-1.22,2.32-1.61,.89-.41,1.87-.31,2.8-.68,.47-.19,.94-.38,1.42-.52,.48-.14,.97-.24,1.41-.47,.36-.19,.75-.55,.83-.97,.01-.06-.11-.76-.12-.75,.22-.08,.47-.21,.49-.44,.03-.28-.31-.53-.22-.79,.09-.27,.49-.24,.71-.42,.05-.04,.09-.1,.08-.16,0-.04-.02-.07-.04-.1-.17-.29-.35-.58-.52-.87,.49,.01,.88,.16,1-.39,.04-.22-.01-1.43-.32-1.48,.29,.05,.59,.1,.88,.04,.29-.07,.56-.28,.6-.57,.03-.21-.07-.42-.11-.63-.04-.21,0-.48,.21-.56,.15-.06,.31,.01,.46,.08,.46,.21,1.06,.34,1.43,0,.37-.34,.29-.94,.18-1.44,.43,.2,.76,.57,1.17,.81,.41,.24,1,.31,1.3-.05-.05-.12-.1-.23-.15-.35,.81,.09,1.56,.92,2.11,1.45,.09,.09,.24,.1,.35,.03,1.47-.93,6.6-2.93,6.6-2.93,1.87-.65,3.79-1.14,5.75-1.42,1.05-.15,2.11-.24,3.17-.29,1.27-.06,2.56-.04,3.8-.38,.58-.16,1.13-.43,1.71-.59,.58-.16,1.17-.27,1.75-.39,.48-.1,.98-.21,1.42-.46,.42-.24,.73-.62,1.15-.87,.65-.38,1.49-.75,2.24-.4,1.39,.64,.16,2.07,.87,3.01,.17,.23,.43,.38,.61,.6,.14,.17,.24,.37,.35,.56,.58,1.16,1.13,2.34,1.59,3.55,.12,.31,.17,.83,.46,1.05,.02,.01,.04,.03,.06,.04Z"/>
  </g>
</svg>