<?xml version="1.0" encoding="UTF-8"?>
<svg id="Layer_2" data-name="Layer 2" xmlns="http://www.w3.org/2000/svg" viewBox="0 0 50.31 63.62">
  <defs>
    <style>
      .cls-1 {
        fill: #808080;
      }
    </style>
  </defs>
  <g id="Layer_1-2" data-name="Layer 1">
    <path class="cls-1" d="M35.86,0c.35,.91,.7,1.82,1.06,2.73,.11,.29,.22,.81,.36,.83,1.64,.15,1.44,1.59,1.87,2.58,.05,.13,.11,.25,.16,.37q1.84,0,2.14,1.89c.92-.25,1.21,.29,1.35,1.09,.17,.94,.48,1.85,.61,2.79,.1,.75,.45,.9,1.12,.9,1.69,0,1.75,.03,1.86,1.69,.15,2.21,.13,4.44,.34,6.65,.12,1.25,.68,2.46,.82,3.71,.24,2.17,.23,4.36,.46,6.53,.13,1.24,.45,2.49,.85,3.68,.35,1.03,.1,1.51-.92,1.74-.4,.09-.78,.3-1.18,.45,0,.14-.02,.24,0,.34q.6,2.38-1.66,3.1c-.03,.06-.1,.14-.08,.18,.46,1.29-.16,1.82-1.34,2.12-.31,.08-.5,.61-.73,.95-.03,.05,0,.15-.02,.21-.51,1.25-1.87,2.07-1.82,3.63,0,.08-.76,.21-1.18,.28-1.18,.18-1.6,.93-.98,1.95,.42,.68,.94,1.33,1.52,1.89,2.86,2.75,5.76,5.45,8.62,8.19,.42,.41,.8,.91,1.06,1.43,.33,.65,.21,1.13-.69,1.22-3.51,.38-6.54-.75-9.27-2.85-.73-.56-1.38-1.2-2.11-1.84-3.43,2.29-7.37,3.43-11.23,4.76-.66,.23-1.37,.37-2.06,.44-.3,.03-.72-.14-.9-.36-.13-.16-.03-.65,.13-.86,.8-.99,1.58-2,2.5-2.88,2.62-2.53,5.29-5.01,7.97-7.48,.51-.47,.77-.87,.59-1.62-.43-1.85-.74-3.72-1.1-5.59-1.29,.42-2.4,.82-3.54,1.15-.3,.09-.66-.01-1-.03,.02-.33-.02-.68,.08-.99,.49-1.58,.97-3.17,1.54-4.73,.24-.65,.08-1.05-.35-1.5-2.21-2.29-4.82-4.03-7.55-5.62-.28-.16-.67-.18-1.01-.19-1.31-.02-2.62-.05-3.93,0-1.25,.05-2.28-.37-3.17-1.21-.95-.9-2.03-1.71-2.8-2.74-1.52-2.04-3.64-2.92-5.96-3.51-2.44-.62-4.36-1.97-5.7-4.11-1.06-1.68-.68-2.66,1.2-3.2-1.15-1.64-1.15-2.26,.34-3.62,2.37-2.17,4.67-4.46,7.26-6.33,3.65-2.64,7.88-3.75,12.4-3.58,1.07,.04,1.96-.16,2.96-.65,2.04-1.01,4.25-1.69,6.41-2.48C32.57,.96,34.01,.49,35.44,0c.14,0,.28,0,.42,0Z"/>
  </g>
</svg>