<?xml version="1.0" encoding="UTF-8"?>
<svg id="Layer_2" data-name="Layer 2" xmlns="http://www.w3.org/2000/svg" viewBox="0 0 100.59 42.45">
  <defs>
    <style>
      .cls-1 {
        fill: #808080;
      }
    </style>
  </defs>
  <g id="Layer_1-2" data-name="Layer 1">
    <path class="cls-1" d="M20.6,39.4c-.93,.42-1.87,.79-2.83,1.12-.92,.31-1.93,.38-2.89,.51-3.9,.54-7.85,.95-11.76,.47-.3-.04-.61-.08-.86-.24-.16-.1-.21-.36-.38-.42-.22-.07-.62,.08-.87,.04-.31-.05-.62-.21-.78-.49-.06-.11-.1-.23-.13-.35-.23-.92-.05-1.75,.29-2.61,.72-1.84,1.58-3.64,2.73-5.24,.57-.79,1.21-1.53,1.94-2.18,1.07-.97,2.07-2.05,3.26-2.9,2.15-1.53,4.19-3.19,6.34-4.72,2.09-1.5,4.3-2.85,6.59-4.03,3.98-2.06,8.06-3.38,12.33-4.75,1.62-.52,3.37-1.79,3.82-3.52,.57-2.2,1.38-4.29,2.35-6.35,.17-.36,.35-.73,.55-1.07,.51-.85,1.22-1.59,2.05-2.14,.36-.23,1.23-.87,1.56-.28,.2,.37,.07,1.14,.06,1.56-.02,.62-.05,1.24-.04,1.86,.05,2.28,.78,4.54,2.08,6.42,.66,.95,1.34,1.38,2.48,1.54,2.4,.35,4.83,.43,7.24,.62,2.32,.18,4.62,.61,6.9,1,1.71,.3,3.36,.81,5.03,1.27,1.5,.41,2.99,.81,4.49,1.23,1.47,.41,2.9,.94,4.36,1.42,1.99,.65,3.92,1.51,5.86,2.29,.96,.38,1.84,.89,2.78,1.32,1.34,.62,2.52,1.54,3.66,2.46,.59,.48,1.11,1.06,1.77,1.41,.79,.42,1.7,.52,2.59,.46,.93-.06,1.72-.57,2.49-1.06,.33-.21,.66-.45,1.05-.53,.38-.09,.84,0,1.06,.34,.17,.27,.15,.62,.17,.94,.03,.32,.16,.69,.47,.77,.64,.68,.93,1.5,1.02,2.43,.03,.3,.03,.6,.08,.9,.08,.49,.31,.95,.65,1.31,.22,.24,.52,.53,.4,.83-.1,.25-.42,.31-.69,.32-1.64,.05-3.23-.52-4.77-1.09-.85-.32-1.7-.64-2.55-.96-.86-.33-1.54-.24-2.41,.01-.9,.26-1.82,.45-2.75,.44-.68,0-1.36-.11-2.04-.2-.6-.08-1.19-.05-1.78-.1-1.36-.11-2.71-.3-4.08-.36-2.73-.13-5.47-.02-8.18,.31-1.93,.23-3.84,.58-5.72,1.04-2.5,.61-4.95,1.42-7.43,2.14-4.04,1.18-8.13,2.13-12.23,3.09-1.63,.38-3.26,.76-4.9,1.14-1.53,.36-3.09,.84-4.65,.99-.25,.02-.49,.05-.74,.07-.42,.04-.84,.08-1.27,.06-.03,0-.06,0-.06,.03,0,.03,.05,0,.02,0,.57,.56,.82,1.38,.61,2.15-.3,1.14-1.31,1.97-2.44,2.15-.66,.11-1.34,.18-2.01,.2-1.1,.04-2.13-.27-3.19-.55-1.16-.31-2.31-.64-3.44-1.05-.57-.21-1.14-.44-1.69-.69-.34-.16-.72-.3-1.04-.5-.04-.03-.08-.06-.12-.09-.13-.11-.26-.24-.43-.16Z"/>
  </g>
</svg>