<?xml version="1.0" encoding="UTF-8"?>
<svg id="Layer_2" data-name="Layer 2" xmlns="http://www.w3.org/2000/svg" viewBox="0 0 37.9 57.95">
  <defs>
    <style>
      .cls-1 {
        fill: #808080;
        fill-rule: evenodd;
      }
    </style>
  </defs>
  <g id="Layer_1-2" data-name="Layer 1">
    <path class="cls-1" d="M37.82,20.58c-.94,1.53-3.13,1.07-3.54,.73-.41-.34-.31-.99-.78-1.82-.48-.84-3.41-4.13-4.11-5.17-.7-1.05-1.78-1.22-2.61-2.71-.82-1.49-2.53-.25-2.9-.32-.37-.07-.77-.46-1.07-.8-.3-.34,.21-1.05-.08-1.79-.28-.74-1.28-1-1.73-.25-.45,.75,2.5,4.02,3.31,5.09,.8,1.07,2.67,6.62,2.76,7.46,.08,.84-.83,2.7-.83,2.7,1.11,5.39-3.15,10.34-8.59,12.3-5.44,1.96-8.78,6.85-12.26,10.25-3.48,3.4-1.76,8.86,1.13,8.75,2.88-.12,1.81-2.21,1.65-2.69-.16-.47-1.01-.37-1.34,.15-.33,.52,.58,1.17-.06,1.5s-1.02-1.17-1.02-1.17c-.5-4.07,3.15-2.64,3.15-2.64,5.18,3.2,.09,7.16,.09,7.16C2.59,59.67,.75,55.08,.07,51.19c-.68-3.89,3.56-11.06,5.64-12.42,2.08-1.36,8.53-8.14,9.51-9.17,.98-1.02,.98-2.71,.2-2.93-.79-.23-2.1,2.7-2.57,2.51-.47-.19-.56-.19-1.83-4.62-1.27-4.44,1.98-6.62,2.58-5.95,.6,.68,1.91,.8,2.22-.07,.31-.87-3.2-7.83-2.91-8.62,.29-.79,.83-6.14,1.52-6.2,.69-.06,2.72-1.31,3.88-2.63C19.47-.23,19.78,.02,19.78,.02c1.26,.89,2.43-.04,3.03,.22,.6,.26,.44-.43,1.44-.06,1.01,.37,1.5,.04,1.93,.15,.43,.11,.23,.38,.91,.56,.69,.18,2.08-1.17,2.39,.38,.31,1.55,1.75,1.66,2.35,2.27,.6,.61-.14,1.11-.72,1.69-.58,.58,.59,2.31,.96,2.56,.37,.25,.86-.38,.99,0,.14,.38-.33,2.21-.43,2.98-.09,.78,.85,1.13,.82,1.49s-.18,.62-.97,1.09c-.79,.47,.53,1.87,1.7,3.68,1.17,1.82,1.28,1.58,2.7,2.17,1.43,.59,.92,1.36,.92,1.36h0Z"/>
  </g>
</svg>