<?xml version="1.0" encoding="UTF-8"?>
<svg id="Layer_2" data-name="Layer 2" xmlns="http://www.w3.org/2000/svg" viewBox="0 0 71.89 82.91">
  <defs>
    <style>
      .cls-1 {
        fill: #808080;
      }
    </style>
  </defs>
  <g id="Layer_1-2" data-name="Layer 1">
    <path class="cls-1" d="M65.79,72.63c-.31-.08-.61-.16-.92-.25-.71-.22-1.45-.44-2.13-.75-.77-.36-1.53-.74-2.24-1.23-.03-.02-.06,.03-.03,.05,1.23,.91,2.54,1.74,3.97,2.28,.02,0,.04,.02,.07,.02-.74,2.53-4.89,2.71-4.91,2.71-3.89,.5-11.46-.38-14.21-.8,0,.02,0,.04,0,.06-1.82-.32-3.64-.64-5.46-.94-.05,0-.11-.02-.16-.03-.1-.08-.2-.16-.3-.23-3.28-.93-6.2-2.73-6.57-2.96-.02,0-.04,0-.06,0-3.58,0-8.34,3.48-14.84,9.09-2.92,2.52-5.65,3.26-7.8,3.26-2.15,0-3.71-.74-4.32-1.18-1.04-.43-2.17-1.1-1.78-1.91,1.58-.07,2.86-.04,4.18-.64,1.83-1.47,4.26-4.59,6.34-7.25,.67-.86,1.3-1.67,1.88-2.39,2.9-3.59,5.6-4.73,6.97-5.09,.47-.03,.93-.02,1.4,.02,1.9,.16,3.74,.81,5.46,1.61,1,.47,1.99,.97,2.95,1.51,.02,0,.03-.02,.02-.03-1.75-1.04-3.46-2.15-5.37-2.88-1.38-.53-2.86-.82-4.34-.78-3.86-3.86-6.1-11.99-7.87-19.56-.07-.53-.15-1.06-.24-1.58-.24-1.37-.52-2.72-.76-4.09,0-.03-.05-.02-.05,0,.14,1.37,.24,2.74,.39,4.11-.58-.8-1.05-1.65-1.51-2.53-.92-1.76-1.79-3.41-3.4-4.5,1.27-.41,2.67,.23,3.84,1.05-1.48-6.15-2.89-10.3-5.19-8.46-.24,.19-.48,.36-.74,.52-.67,.42-1.32,.78-2.44,1.04-.76,.1-1.39,.16-2.15-.03-.62-.15-1.2-.42-1.73-.76-.54-.34-1.05-.74-1.47-1.23,0,0-.02,0-.02,0-.02-.03-.04-.06-.06-.09,0,0,0-.02,0-.02-.03-.05-.06-.1-.09-.15,0,0-.02-.02-.02-.02,0-.01-.01-.02-.02-.03,.01-.01,.03-.02,.05-.01,0,0,.01-.01,.02-.02,.32,.13,.7,.22,.82,.24,1.07,.15,1.92-.28,2.01-.32,.7-.33,1.28-.93,1.76-1.52,.28-.34,.53-.7,.78-1.06,.31-.44,.6-.9,.85-1.36,.27-.47,.53-.96,.79-1.44,1.1-2.09,.72-4.55,.68-6.81-.02-.84,.07-1.66,.17-2.49,.64-2.64,1.22-5.31,1.18-8.03-.02-1.63-.17-3.24-.8-4.73,0,0,0-.01,.01-.02,0,0,0,.02,.02,.03,.04-.05,.13-.08,.2-.02,1.24,.99,2.27,2.25,3.08,3.61,1.52,2.57,2.3,5.49,2.81,8.41,.3,1.71,.53,3.43,.76,5.15,.11,.8,.25,1.6,.36,2.4,.05,.39,.15,1.02,.22,1.4,.02,.12,.04,.25,.06,.37,3.2,9.66,14.3,15.84,15.38,16.43,4.76-3.1,4.88-13.79,4.89-13.9v-.51s.3,.42,.3,.42c3.98,5.55,3.68,9.8,3.39,13.92-.14,1.98-.28,4.02,.05,6.18,.88,5.64,20.58,17.17,26.78,21.76,2.24,1.67,5.53,4.23,5.25,4.85-.65,1.45-4.13,1.98-6.09,2.12Zm-25.51,1.67s.06,.07,.08,.11c.41,.68,.36,1.72,.04,2.41-.5,1.08-1.85,1.56-2.27,2.63,1.34-.5,2.76,.16,4.11-.47,1.18-.56,2.13-1.66,2.75-2.82,.17-.32,.28-.66,.35-.99-1.01-.17-2.02-.35-3.03-.52-.67-.12-1.34-.23-2.02-.35Z"/>
  </g>
</svg>