<?xml version="1.0" encoding="UTF-8"?>
<svg id="Layer_2" data-name="Layer 2" xmlns="http://www.w3.org/2000/svg" viewBox="0 0 90.04 65.87">
  <defs>
    <style>
      .cls-1 {
        fill: #808080;
      }
    </style>
  </defs>
  <g id="Layer_1-2" data-name="Layer 1">
    <path class="cls-1" d="M1.03,36.68c.57,.59,1.24,1.14,1.55,1.91,.14,.36,.2,.74,.31,1.11,.19,.65,.57,1.26,1.14,1.62,.77,.48,1.74,.41,2.63,.54,1.64,.24,3.14,1.16,4.8,1.3,2.42,.21,4.71-1.35,6.08-3.35,.81,.32,1.68,.66,2.55,1,1.17,.46,2.4,.92,3.64,.79-.78,3.48-.55,7.19,.75,10.49,.73,1.87,1.79,3.59,2.89,5.28,1.11,1.7,2.42,3.5,4.38,4.02-.1-3.6,.98-7.21,3.03-10.17,2.28,1.01,4.78,1.85,7.35,2.25,1.37,.21,2.88,.25,3.99-.58-1.69-2.65-3.41-5.36-4.11-8.42-.29-1.28-.4-2.6-.79-3.85-.39-1.25-1.12-2.48-2.29-3.07,.65-.64,1.01-.89,1.36-1.15,3.45,.76,6.56,2.64,9.8,4.18,3.23,1.54,6.82,2.75,10.35,2.16,0-.71,.08-1.45,.19-2.2,.15,.12,.31,.24,.46,.36,1.18,1.21,1.45,3.33,1.06,5.16-.38,1.84-1.3,3.51-1.99,5.25-1.43,3.6-1.88,7.5-2.32,11.35-.12,1.07-.24,2.16,0,3.21,1.88-3.2,4.84-5.14,6.6-7.94,2.66-4.23,2.13-9.88-.2-14.3,1.03-1.58,2.02-3.04,2.25-4.72,.21-1.53-.24-3.06-.38-4.59,.36-.74,1.08-1.16,1.78-1.47,.7-.31,1.45-.57,1.98-1.12,.15-.16,.29-.36,.28-.57-.02-.48-.64-.64-1.1-.77-.52-.15-1-.43-1.45-.74-.42-.28-.84-.59-1.17-.98-.88-1.05-1-2.67-.28-3.83,1.02-.95,2.57-1.5,4.16-1.69,2.16-.26,4.61,.05,6.29-1.34,.97-.81,1.49-2.06,2.48-2.85,1.5-1.21,3.77-1.1,5.27-2.33,.96-.79,1.45-2.01,2.3-2.91,.88-.94,2.24-1.74,2.18-3.03,0-.19-.05-.39,.01-.57,.13-.38,.61-.48,.9-.75,.46-.43,.34-1.24-.1-1.7s-1.08-.64-1.7-.77c-3.51-.76-7.2-.52-10.68,.36-1.7,.43-3.37,1-4.97,1.72-3.43,1.54-6.54,3.7-9.86,5.48-4.39,2.36-9.29,4.15-12.61,7.88-.12-1.67-.67-3.19-1.57-4.4-.89-1.21-2.1-2.14-3.35-2.97-.5-.33-1.03-.69-1.26-1.24-.29-.68-.08-1.56-.57-2.11-.12-.14-.28-.24-.35-.41-.12-.27,.03-.58,.15-.85,.76-1.67,.54-3.75-.55-5.23,0-.29,.1-.48,.18-.66,.32-.71,.64-1.43,.77-2.2s.03-1.6-.42-2.24c-2.36,2.35-4.76,4.8-7.62,6.61-.9,.57-1.84,1.08-2.71,1.71-2.76,2.01-4.49,5.11-6.03,8.39-2.24,.13-4.36,1.2-6.02,2.71s-2.23,3.89-3.79,5.43c-.37,.36-1.03,.41-1.26,.87-.2,.4,.04,.91-.09,1.34-.06,.19-.18,.35-.28,.52-.3,.54-.34,1.22-.1,1.8-1.06,.29-1.64,1.14-1.69,2.03-.05,.9,.42,1.81,1.18,2.28-.46,.86-.44,1.93-.07,2.87-3.67,.58-7.47,1.18-10.92-.04-1.27-.45-2.45-1.14-3.47-2.02-.08,.82,.45,1.58,1.02,2.17Zm44.62-3.74c1.41,.07,2.82,.14,4.24,.22,.42,.02,.86,.05,1.25,.21,.31,.13,.57,.33,.84,.53,.05,.04,.11,.08,.16,.12-2.19-.13-4.37-.49-6.49-1.08Z"/>
  </g>
</svg>