<?xml version="1.0" encoding="UTF-8"?>
<svg id="Layer_2" data-name="Layer 2" xmlns="http://www.w3.org/2000/svg" viewBox="0 0 72.78 55.68">
  <defs>
    <style>
      .cls-1 {
        fill: #808080;
      }
    </style>
  </defs>
  <g id="Layer_1-2" data-name="Layer 1">
    <path class="cls-1" d="M70.22,52.78c-.14,.12-.28,.24-.43,.36-2.21,.68-4.83,1.25-7.03,.37-1.89-.76-3.17-2.37-3.99-4.18-.85-1.89-1.32-3.91-2.07-5.84-.4-1.02-.89-2.03-1.69-2.79-.72-.68-1.57-1.04-2.46-1.4-.29,.11-.57,.23-.84,.36-1.99,.94-3.75,2.26-5.52,3.57,.03,0,.06,.02,.07,.06,.31,1.11,.97,2.02,1.65,2.93,.54,.73,1.33,1.64,1.46,2.57,.15,1.05-.65,1.89-1.44,2.47-1.09,.8-2.32,1.53-3.53,2.12-3.2,1.56-6.76,2.28-10.31,2.3-3.36,.02-6.72-.54-9.47-2.6-.74-.55-1.46-1.16-2.13-1.8-.22-.21-1.34-1.09-1.09-1.51-.12-.03-.24-.07-.36-.1-3-.9-5.93-2.67-7.71-5.31-3.02-.67-5.64-2.68-7.21-5.42,0,0,0-.02,0-.03-.22-.04-.45-.1-.68-.18-1.14-.39-2.22-1.29-2.75-2.38-.65-1.34-.65-2.89-.61-4.35,0,0,0,0,0,0-.12,.01-.25,0-.37-.01C.74,31.83,.01,30.81,0,29.85c-.01-.86,.45-1.62,1.33-1.81,.69-.15,1.25,.08,1.7,.48,.38-1.1,.64-2.22,1.06-3.31,.39-1.01,.84-2,1.39-2.93,1.07-1.81,2.44-3.41,4.22-4.55,0,0,.02,0,.02-.01-1.1-1.04-1.16-3.11-.84-4.46,.45-1.93,1.82-4.32,3.86-4.94,2.02-.62,2.64,1.38,2.39,3.02,.34-.53,.75-1.01,1.22-1.39,.86-.69,2.17-1.24,3.21-.58,.2,.13,.37,.27,.53,.42,.06-.13,.13-.26,.2-.38,1.44-2.67,3.57-4.95,6.09-6.61C28.96,1.1,31.89,.26,34.95,.05c1.55-.11,3.2-.09,4.64,.56,1.43,.65,2.57,1.83,3.37,3.17,.8,1.33,1.36,2.82,1.63,4.35,.32,1.82,.03,3.48-.41,5.23,1.21,.93,2.34,1.98,3.3,3.17,1.1,1.36,1.93,2.89,2.87,4.36,.8,1.25,1.67,2.49,2.82,3.43,3.14,1.1,6.25-1,8.48-3.07,1.94-1.8,3.45-4.04,4.32-6.55,.3-.87,.54-1.75,.7-2.66,.06-.36,.08-.94,.38-1.21,.81-.72,2.03,.78,2.47,1.35,1.91,2.5,3.27,5.61,3.26,8.79-.01,3.3-1.38,6.33-3.68,8.67-1.64,1.67-3.74,3.15-6.06,3.5,3.1,1.31,5.64,3.77,6.3,7.18,.47,2.42,.12,4.88-.36,7.27-.21,1.04-.67,2.33-.45,3.39,.2,.95,.88,1.43,1.69,1.77Z"/>
  </g>
</svg>