<?xml version="1.0" encoding="UTF-8"?>
<svg id="Layer_2" data-name="Layer 2" xmlns="http://www.w3.org/2000/svg" viewBox="0 0 105.29 61.25">
  <defs>
    <style>
      .cls-1 {
        fill: #808080;
      }
    </style>
  </defs>
  <g id="Layer_1-2" data-name="Layer 1">
    <path class="cls-1" d="M49.02,.13c.03-.07,.09-.11,.17-.11L49.54,0c.14,0,.19,.06,.14,.2-1.31,3.28-2.29,6.64-2.95,10.07-.04,.22-.15,.27-.34,.14l-.14-.09s-.06-.07-.05-.13c.47-3.28,1.41-6.64,2.83-10.06Zm-3.06,.11s-.08,0-.1,.05l-2.78,9.23c-.03,.09,.1,.2,.28,.25h0c.18,.05,.34,.03,.37-.06L46.51,.49s0-.08-.05-.1l-.5-.15Zm9.98,44.21c4.52-2.15,9.43-4.79,14.74-7.93,4.81-2.85,9.25-2.08,12.22,2.74,4.72,7.64,10.96,13.98,18.6,18.12,.58,.32,.69,.2,.33-.36-1.33-2-2.62-4.11-3.77-6.43-2.43-4.9-5.01-9.9-7.76-14.99-1.35-2.51-2.11-4.5-2.28-5.96-.37-3.2,.6-6.13,2.92-8.79,5.46-6.27,10.24-13.06,14.34-20.38,.02-.03,.02-.06,.02-.1,0-.11-.09-.2-.2-.2-.16,0-.36,.05-.59,.14-8.79,3.61-15.87,9.25-21.25,16.94-1.12,1.6-1.89,2.58-2.31,2.96-2.92,2.6-7.9,1.71-11.21,.49-13.14-4.83-27.22-10.67-41.51-9.52C16.44,12.15,7.06,17.79,.09,28.13c-.12,.18-.12,.36,0,.53,3.46,4.82,7.8,8.91,13.03,12.27,10.26,6.6,21.38,8.64,33.35,6.13,.25-.05,.5,.06,.63,.28,.95,1.57,2.12,3,3.52,4.28,3.31,3.03,6.59,6.18,9.82,9.43,.11,.11,.25,.18,.4,.2,.37,.04,.71-.22,.76-.6,.68-5.61-2.33-11.37-5.78-15.75-.15-.2-.12-.35,.1-.45ZM19.14,26.16c0,2.51-2.03,4.54-4.54,4.54s-4.54-2.03-4.54-4.54,2.03-4.54,4.54-4.54h0c2.51,0,4.54,2.03,4.54,4.54h0Zm12.59,1.52l-.03,.31s0,.01,0,.02c0,.1,.08,.18,.18,.18,.86,.02,1.78,.23,2.77,.65,.16,.07,.23,.2,.21,.37,0,.08-.04,.15-.1,.19-.28,.22-.24,.37,.11,.44,.27,.06,.48,.16,.63,.32,.21,.22,.16,.31-.14,.27l-1.38-.2c-.41-.06-.45,.04-.12,.29,.46,.35,1.01,.54,1.64,.59,.11,0,.19,.08,.22,.19,.04,.17-.01,.27-.15,.31-1.04,.26-2.17,.22-3.38-.1-.08-.02-.17,.03-.19,.11l-.05,.14s0,.08,.05,.1c1,.39,1.87,.52,2.59,.41,.73-.12,.77,.02,.14,.4-.64,.39-1.41,.71-2.3,.95-.18,.05-.38,.04-.56-.04-.32-.13-.6-.06-.84,.22-.62,.69-1.27,1.39-1.95,2.12-1.08,1.16-1.3,1.01-.67-.44,1.46-3.34,1.74-6.94,.85-10.79-.36-1.55-.11-1.66,.76-.32,.6,.93,1.04,1.72,2.12,2.21,1.03,.46,2.01,.95,2.96,1.47,.3,.16,.28,.21-.05,.14l-3.12-.63c-.12-.02-.18,.02-.19,.14ZM52.23,.42l-3.21,10.5c-.03,.08,.02,.17,.1,.19l.31,.09c.08,.03,.17-.02,.19-.1L52.84,.6c.03-.08-.02-.17-.1-.19l-.31-.09c-.08-.03-.17,.02-.19,.1Zm-9.09,.62c-.2,.08-.35,.22-.44,.42-.95,2.13-1.7,4.68-2.27,7.66-.03,.12,.05,.24,.18,.27l.16,.03c.09,.02,.15-.02,.17-.11,.6-2.77,1.28-5.56,2.43-8.04,.12-.26,.05-.34-.22-.23Zm12.02,.68l-3.4,10c-.03,.08,.02,.17,.1,.2l.31,.1c.08,.03,.17-.02,.2-.1l3.4-10c.03-.08-.02-.17-.1-.2l-.31-.1c-.08-.03-.17,.02-.2,.1Zm-15.14,.57c-.54,.35-.92,.84-1.14,1.47-.55,1.61-1.06,3.28-1.53,5.02-.05,.19,.02,.3,.22,.34l.2,.03s0,0,0,0c.1,.01,.19-.05,.2-.15,.42-2.2,1.16-4.37,2.22-6.52,.14-.29,.08-.35-.19-.17Zm18.05,.5l-3.31,9.85c-.03,.08,.02,.17,.1,.2l.36,.12c.08,.03,.17-.02,.2-.1l3.31-9.85c.03-.08-.02-.17-.1-.2l-.36-.12c-.08-.03-.17,.02-.2,.1Zm-23.06,5.25c-.15,.25-.17,.47-.05,.66,.13,.2,.25,.19,.34-.03l1.92-4.42s0-.03-.01-.01c-.88,.86-1.52,1.93-1.93,3.21-.07,.21-.16,.41-.26,.59Zm26.08-3.03l-3.37,8.48c-.05,.13,.01,.28,.14,.33l.08,.03c.13,.05,.28-.01,.33-.14l3.37-8.48c.05-.13-.01-.28-.14-.33l-.08-.03c-.13-.05-.28,.01-.33,.14Zm2.49,2.9l-2.71,6.91c-.03,.08,0,.17,.09,.2l.3,.12c.08,.03,.17,0,.2-.09l2.71-6.91c.03-.08,0-.17-.09-.2l-.3-.12c-.08-.03-.17,0-.2,.09Zm3.31,3.33c.05-.1,.02-.18-.08-.23l-.16-.07c-.11-.05-.2-.03-.26,.07-1.01,1.56-1.87,3.2-2.57,4.91-.03,.07,0,.15,.06,.19l.34,.2c.12,.07,.2,.04,.24-.09,.44-1.46,1.1-2.85,1.97-4.17,.17-.25,.32-.52,.47-.81Zm-.68,5.9c.05,.03,.12,0,.15-.04l.05-.08s.02-.03,.02-.04c.93-1.7,1.58-3.11,1.44-3.16l-.14-.08c-.15-.02-1,1.29-1.92,2.95l-.05,.08s0,0,0,0c-.03,.06,0,.12,.05,.15l.39,.21Zm2.76-.06c.23-.29,.33-.61,.32-.95-.01-.25-.09-.27-.23-.07-.36,.53-.71,1.08-1.03,1.65-.04,.07-.06,.14-.05,.2,0,.06,.02,.11,.04,.15,.1,.16,.21,.18,.34,.04,.17-.18,.3-.38,.39-.62,.05-.15,.13-.28,.23-.41Zm.87,2.23c.12,.12,.39,.05,.62-.16s.31-.49,.2-.61c-.12-.12-.39-.05-.62,.16s-.31,.49-.2,.61ZM12.15,26.16c0,1.38,1.12,2.5,2.5,2.5s2.5-1.12,2.5-2.5-1.12-2.5-2.5-2.5-2.5,1.12-2.5,2.5Zm12.24,23.44c-.17-.01-.39,.93-.48,2.11-.09,1.18-.03,2.14,.14,2.16,.17,.01,.39-.93,.48-2.11,.09-1.18,.03-2.14-.14-2.16Zm3.01,7.46h.22s.03-.02,.02-.04c-.41-1.97-.53-3.94-.37-5.93,0-.1-.04-.16-.14-.17l-.15-.02s-.04,0-.05,.03c-.4,2.02-.28,4.04,.37,6.05,.02,.05,.05,.08,.1,.08Z"/>
  </g>
</svg>