<?xml version="1.0" encoding="UTF-8"?>
<svg id="Layer_2" data-name="Layer 2" xmlns="http://www.w3.org/2000/svg" viewBox="0 0 81.46 42.8">
  <defs>
    <style>
      .cls-1 {
        fill: #808080;
      }
    </style>
  </defs>
  <g id="Layer_1-2" data-name="Layer 1">
    <path class="cls-1" d="M45.13,14.67s.04,.06,.05,.09c.56-.06,1.21,.2,1.97-.08,1.18-.44,2.72-2.42,4.87-3.15,2.15-.72,5.07-.77,5.85-.44,.77,.33,1.31,.82,1.38,1.66,.07,.84-1.27,2.15-1.27,2.15,0,0,1.73,.98,1.82,1.82,.09,.84-1.16,1.82-1.16,1.82,0,0,1.54,1.46,1.6,2.26,.06,.8-.94,1.82-.94,1.82,0,0,.49,.48,.33,1.05-.2,.73-1.77,1.16-3.15,1.16-1.11,0-6.73-2.27-7.89-2.37-.64-.06-1.26,.12-1.81,.16,.21,.36,.43,.72,.65,1,.71,.93,5.44,5.89,7.12,7.12,1.68,1.22,2.8,1.69,4.75,2.43,.82,.31,2.51,.86,4.34,1.4,2.52,.73,5.29,1.43,6.42,1.42,1.95-.02,2.99-.65,4.8-1.38,1.81-.73,4.14-3.7,4.91-2.59,.62,.89-2.12,3.34-4.14,4.75-2.02,1.4-4.16,2.14-7.06,2.65-2.9,.5-12.49-.14-19.04-.28-6.55-.13-12.73,.17-16.77-.44-1.04-.16-2.27-.32-3.5-.51,.98,1.08,1.79,2.12,1.79,2.12,0,0-3.72-.35-5.97-1.35,1.09,1.6,2.19,3.86,2.19,3.86,0,0-3.76-1.18-5.71-2.69-1.23-.95-4.26-3.41-4.68-4.89-5.42-2.59-5.98-4.59-7.62-6.09-1.3-1.18-2.63-.87-3.92-1.6-1.12-.63-2.45-1.35-2.54-2.1-.11-.88,2.21-2.32,2.21-2.32,0,0-4.41,.32-4.97-1.21-.55-1.53,4.08-3.2,4.08-3.2,0,0,.51-3.96,1.66-6.18,1.16-2.26,3.25-7.25,7.32-8.19,1.04-.63,2.89-.73,4.33-1.19,2.14-.68,11.87-2.51,19.59-2.98,7.72-.47,18.74,.18,24.22,.72,5.48,.54,11.43,2.2,13.91,2.32,3.48,.17,6.07-1.71,6.29-.77,.28,1.19-2.23,2.33-4.08,3.03-1.86,.7-3.93,.56-6.46,.55-1.76,0-4.7-.78-7.71-1.06-4.61-.43-10.29,.86-13.86,3.71-1.83,1.46-3.4,4.36-4.19,6.01Z"/>
  </g>
</svg>