<?xml version="1.0" encoding="UTF-8"?>
<svg id="Layer_2" data-name="Layer 2" xmlns="http://www.w3.org/2000/svg" viewBox="0 0 146.38 48.49">
  <defs>
    <style>
      .cls-1 {
        fill: #808080;
      }
    </style>
  </defs>
  <g id="Layer_1-2" data-name="Layer 1">
    <path class="cls-1" d="M146.38,21.7c-.05-1.79-1.22-3.26-2.41-4.49-2.11-2.18-4.6-4.05-7.14-5.71-9.4-6.12-20.59-9.12-31.74-9.42-4.59-.13-9.11,.17-13.56,.79-.02,0-.04-.02-.07-.02-2.91-.35-5.51-1.67-8.34-2.33-2.33-.55-4.75-.62-7.13-.37-5.12,.55-9.89,2.64-14.34,5.12-5.12,2.85-10.04,6.11-14.78,9.55-4.22,3.07-8.67,6.27-12.42,9.96-2.71,.93-5.1,1.53-7.88-.27-2.29-1.48-4.46-2.91-7.03-3.9-4.84-1.87-10.11-2.38-15.23-1.56-1.38,.22-3.85,.41-4.26,2.13-.45,1.92,2.15,3.37,3.34,4.34,4.83,3.92,10,7.33,15.41,10.38-2.24,1.63-4.49,3.25-6.73,4.88-1.27,.92-2.55,1.83-3.84,2.73-.89,.62-2.38,1.3-2.66,2.51-.84,3.66,7.11,2.25,8.67,2.04,5.1-.69,10.04-2.35,14.58-4.76,4.75-2.53,9.28-6.21,14.64-7.36,1.84-.4,8.84-.59,6.77,2.83-.56,.92-1.51,1.88-1.27,3.07,.64,3.27,8.41-.13,10.14-.97,2.35-1.14,4.23-3.1,6.58-4.19,2.85-1.33,6.55-1.3,9.62-1.73,4.86-.67,16.86-4.06,16.55,4.43-.05,1.46-.49,3.05,1.08,3.89,1.64,.88,4.1-.23,5.68-.81,4.58-1.68,8.81-4.3,12.37-7.63,1.73-1.62,3.06-4.05,4.94-5.45,2.16-1.61,5.25-2.09,7.86-2.24,4.87-.29,9.74,.54,14.61,.39,3.38-.11,8.13-1.62,8.01-5.82Z"/>
  </g>
</svg>