<?xml version="1.0" encoding="UTF-8"?>
<svg id="Layer_2" data-name="Layer 2" xmlns="http://www.w3.org/2000/svg" viewBox="0 0 59.05 49.14">
  <defs>
    <style>
      .cls-1 {
        fill: #808080;
      }
    </style>
  </defs>
  <g id="Layer_1-2" data-name="Layer 1">
    <path class="cls-1" d="M58.83,34.2c-.68-.1-.22-.12-.27-.83-.05-.71-.32-.6-.58-1.01-.26-.41-1-.44-.77-.55s.25-.15-.04-.14c-.28,.01-.39,.12-.31-.15,.08-.27-.02,.07-.99,.1-.97,.02-1.54,.3-2.09,.92-.55,.62-1.24,.51-1.4,.19-.16-.32-.67-.11-.63-.6,.04-.49-.21-.31-.33-.77-.12-.46,.13-.75-.65-1.13-.79-.38-.38,.15-.9-1.06-.52-1.21-1.33-.93-1.43-1.69-.1-.76-.4-.47-1.16-1.55-.77-1.07-1.29-1.34-1.84-1.99-.55-.65-2.06-1.61-2.47-2.01-.41-.4-.57-.33-.42-.89,.15-.56,.25-.8,.26-1.81,.02-1.01,.27-1.83,.23-2.23-.04-.4-.15-.37,.13-.53,.28-.16,.36-.33,.39-.75,.03-.42,.72-.42,1.67-.67s.78-.17,1.35-.39,.82,.11,1.31,.09c.49-.02,.4-.46,.7-.74,.3-.28,.28-.3-.09-.3-.36,0-.53-.09-.77-.23-.24-.14,.21-.22,.02-.28-.19-.06-.14,.14-.49,.26-.35,.12-.86,.28-1.63,.55-.77,.27-1.34,.38-1.69,.51s-.48,.33-.86,.17-.51-.04-.87,.29-.46,1.05-.54,1.26c-.08,.21-.22-.42-.2-.06,.03,.36,.4,.53,.17,.55-.23,.02-.16,.45-.18,1.2-.01,.75-.05,1.39-.07,2.19-.02,.8-.05,.55-.42,.27-.37-.28-.5-.29-.49-.83,.01-.53-.16-1.03-.16-1.92s-.11-1.87-.13-2.73c-.02-.86-.22-1.03,.47-1.46,.69-.43,1.24-.94,1.94-1.49,.69-.56,1.23-.59,1.87-.9,.64-.3,.69-.42,1.7,.2,1.01,.62,1.04,.52,.28-.31-.76-.83-1.38-.87-2-.86-.62,0-.67,.06-.52-.25s-.75,.06-1.14,.38c-.39,.32-.42,.52-.85,.32-.43-.2-1.06-.2-1.54-.07-.48,.14-.41,.04-.34-.22,.07-.26-.04-.05-.45,.18-.41,.23-.23,.25-.66,.31-.44,.06-.98,.48-1.55,.91-.58,.43-.7,.31-.66-.12,.04-.43,.14-.81-.13-.7s-.11,0,.1-.48c.21-.48,.26-.33,.54-.15,.28,.18,.35,.56,.45,.08s-.05-.83-.34-1.19c-.28-.36,.24-.42,.12-.77-.13-.35,.34-.26,1.51-.43s3.13-.26,5.41-.26,3.04,.02,4.64,1.11c1.6,1.09,2.15,2.97,2.57,6.11,.42,3.15-.25,5.33-.48,6.04-.23,.71-.36,.68-.83,.77-.47,.09-.46,.13-.13,.17,.33,.04,.75-.07,1.17-.84,.42-.77,.88-3.2,.61-5.87-.27-2.67-.69-4.46-2.01-6.21-1.32-1.75-4.71-1.96-7.13-1.91-2.43,.05-5.99,.58-6.66,.64-.68,.07-.69,.08-.43-.28,.26-.36,.54-.84,.11-.76s-.44,.22-.64-.26c-.2-.48-.14-.64-.33-1.02-.19-.38,.1-.72-.25-.82s-.47,.16-.55-.24c-.07-.39-.17-.43-.2-.79-.04-.36-.25-.63-.39-.46-.14,.18-.4,.08-.98-.39-.58-.47-1.55-.75-3.75-1.16-2.21-.41-2.84-.7-4.7-1.05C22.18,.1,18.55-.08,16.2,.03c-2.35,.11-5.62,1.52-6.21,2.01-.58,.48-.12,.55,.29,.76,.41,.21,.57,.22-.21,.26-.78,.04-.33,.45,0,.68,.32,.23,.91,.38,2.12,.56,1.21,.18,2.54,.42,3.88,.72,1.34,.3,2.13,.47,3.61,.65,1.48,.18,1.54,.22,1.77,.55,.23,.33,.98,.66,1.72,.35,.74-.31,1.57,.29,2.97,.23,1.4-.06,3.01,.13,3.78-.11,.77-.23,.64-.22,.44,.28-.2,.5-.27,.83-.36,1.26-.09,.43-.44,.47-1.04,.5-.61,.04-2.26,.3-3.17,.47-.91,.17-2.47,.46-3.85,.78-1.38,.32-1.85,.57-2.16,.49-.31-.08-.34-.03-.47,.34-.13,.37-.16,.14-.25,.37s-.1,.4-.47,.04c-.37-.36-.47-.23-.39,.13s-.24,.12-.41-.08c-.17-.2-.33-.46-.78-1.12-.45-.66-1.71-2.17-2.16-3.15-.46-.98-.53-1.01-.19,0s1.28,2.11,1.58,2.57c.29,.46,.71,1,1.05,1.46,.35,.46,.22,.48-.04,.2-.26-.28-.76-.95-1.16-1.42-.41-.48-1.19-1.45-1.4-1.75-.21-.3-.14-.98-.23-.51-.08,.47,.35,.81,1.03,1.74,.67,.93,1.02,1.27,1.35,1.64,.33,.37,.06,.21-.47,.03-.53-.18-.24,0,.36,.61,.6,.62,.69,.53,1.07,.78,.37,.25,.19,.31,.29,.4,.1,.09,.35,.16,.02,.16-.32,0-.05,.3-.62,.21-.57-.09-.43-.04-1.26-.39-.83-.35-2.37-1.03-3.55-1.68-1.18-.64-.76-.32,.02,.17,.78,.49,.97,.64,2.24,1.12,1.27,.48,.35,.29-.57,0-.92-.29-.88-.25-.32,0,.56,.25,.64,.26,1.19,.44s.63,.08,.96,.26c.33,.18,.94,.29,1.3,.52,.36,.23,.62,.51,.22,.39-.41-.12-.38,.26-.67,.06-.29-.2-.9,.34-1.33,.59-.42,.25,.06,.32-.08,.49-.14,.17-.06,.23-.05,1.41,0,1.19,.33,1.98,.4,2.98,.07,1.01,.45,2.68,.48,3.26,.03,.58,.05,.58-.2,.7-.25,.12-.5,.11-1.58,.41-1.08,.3-2.28,.16-2.67,.16-.4,0-.1-.19,.19-.74,.29-.55,.18-.72,.62-1.08,.44-.35,.64-.51,.29-.49-.35,.01-.56,.06-.67-.16-.12-.23-.13-.44,.23-.83,.36-.39,.18-.36-.25-.35-.43,0-.24-.19-.28-.87-.03-.68-.16-.88-.3-.63-.13,.25-.19,.14-.19-.22,0-.36-.11-.42-.32-1-.22-.57-.4-.36-.58-.62-.17-.26-.22-.41-.59-.33-.37,.08-.25-.05-.37-.41-.12-.36-.1-.47-1.17-1.97-1.07-1.51-1.51-2.3-2.23-2.77-.72-.47-1.19-.24-1.56,.17-.37,.41-.33,.52-.25-.25,.09-.77-.13-.61-.57-.29-.44,.32-1.08,.48-2.05,1.53C.96,13.73,.05,14.86,0,17.57c-.05,2.71,1.2,4.23,3.15,6.84,1.95,2.62,3.81,3.59,4.63,4,.81,.41,2.15,.18,2.84,.31,.69,.12,1.1-.01,1.39,.47,.29,.48,.72,.36,1.08,.66,.36,.3,.75,.49,1.14,.94,.39,.45,.52,.32,.86,.72,.34,.4,.54,.07,.39,.87-.15,.8-.34,1.46-.74,2.7-.39,1.24-.37,2.17-.64,3.32-.28,1.15-.25,2.13,0,2.95s.46,.81,.6,.77,.17-.17-.11-.6c-.28-.43-.35-1.4-.18-2.1,.17-.7,.13-.97,.29-1.85,.17-.88,.24-1.65,.51-2.32,.27-.67,.24-.95,.51-1.59,.27-.65,.18-.79,.32-1.21,.14-.42,.02-.49,.45-.43,.42,.06,.84,.06,1.34-.17,.5-.24,.58,.12,.67-.09s.28-.05,.55,.14c.27,.19,.16,.23-.37,.67-.52,.44-.37,.51-.81,.97-.44,.46-.37,.63-.82,.99-.45,.36-.35,.56-.58,.73-.23,.17-.33,.47-.08,.29,.25-.19,.08,.24-.16,.58-.24,.34,.03,.37-.03,.6-.06,.23,0,.4,.05,.26,.05-.14,.14-.18,.11,.09-.03,.27,.05,.72,.62,1.05,.57,.33,.3-.01,.16-.75-.14-.74,.12-.12,.23,.52,.12,.64,.19,.45,.48,.09,.3-.36,.45-.8,.42-1-.03-.2,0-.29,.11-.21,.1,.08,.09,.24,.09,.24,0,0,.07-.11,0-.37-.07-.26,.05-.54,.13-.49,.08,.05,.08,.21,.08,.21,0,0,.08-.13-.04-.39s.35-.85,.7-1.37c.34-.52,.68-1.02,1.09-1.61,.41-.58,.85-.55,1.28-1.22,.42-.66,.52-.77,.86-.68,.34,.09,.78,.2,1.33-.02,.55-.22,1.82-.02,2.88,.06s2.05,.23,2.93,.14c.88-.09,1.89-.65,2.15-.9,.26-.26,.43-.25,.76-.11,.33,.14,.49,.29,.02,.59-.47,.3-.79,.37-1.87,.67-1.08,.3-1.6,.43-2.86,.79-1.25,.36-2.73,.13-4.16,.2s-.44,.75-.98,.77c-.54,.02-.66,.56-1.38,1.39-.73,.83-.79,.77-.77,1.43,.03,.66,.11,.28-.42,1.11-.53,.83-.65,1.18-1.19,2.24-.54,1.06-.74,1.24-.87,1.63-.13,.39,.24,.33,.24,.73s.02,.42,0,.66c-.02,.24,.07,.5,.2,.19,.13-.31,.17,.08,.14,.41-.03,.33,.06,.41,.11,.16,.05-.26,.22,.12,.72,.69,.49,.57,.74,.79,.78,.43,.04-.36,.02-.63-.34-1.31-.36-.68-.36-.82-.13-1.28,.23-.46,.12-.44,.45-1.46,.32-1.02,.48-1.04,1-2.11,.52-1.07,.32-1.27,.85-1.57,.54-.3,.52-.77,.75-1.6,.22-.83,.7-.34,1.24-.53,.53-.2,.62-.41,1.16-.29,.54,.12,1.19-.17,1.76-.33,.57-.16,.55-.16,.43,.25-.12,.41-.37,.8-.4,1.31-.03,.51-.06,.76,.13,1.16,.19,.39,.18,.32,.27,.83,.1,.51,.16,.6,.17,1.06,0,.45,.16,.46,.19,1.1,.03,.64,.26,.73,.24,1.38-.02,.65,.15,.49,.16,.94s.1,.75,.16,.4c.06-.35,.11-.03,.14,.35,.03,.38,.1,.36,.16,.12,.06-.24,.32,.02,.51,.19,.2,.17,.29,.12,.21-.15-.08-.27-.05-.39,.11-.11,.16,.27,.2,.38,.17-.19-.03-.57-.21-.59-.55-1.58-.34-.99-.59-2.77-.68-3.71-.1-.94,.03-.59,.33-1.13,.3-.54-.02-1.19,.07-1.53s.4-.38,.9-.38c.49,0,.42-.3,1.1-.33,.68-.03,1.43-.2,1.99-.37s.66-.36,1.09-.27c.43,.08,.63-.1,1.15-.47,.52-.37,.48-.2,1.07-.48,.58-.28,.81-.62,.81-.62,.14-.11,.16-.18,.38,.24,.21,.42,.42,.16,.82,.76,.4,.6,.49,.76,.78,.33,.3-.43,.25-.36,.47,.5,.22,.86,.51,1.04,.68,1.35,.17,.32,.35,.51,.4,.25,.06-.26,.21-.2,.6-.35s.22,.08,.26,.58c.04,.5,.2,.45,.49,1.1,.29,.66,.55,.49,.42,.3-.14-.19-.03-.09,.5-.11,.53-.02,.53,.02,.38,.3s.12,.39,.18,1.08c.06,.69,.33,.41,.94,.48,.61,.07,.77-.02,.49,.31-.28,.33,.23,.71,.67,1.01,.45,.3,.69,.13,.29,.4-.4,.27-.12,.26,0,1.09,.11,.83-.32,.25-.9,1.74-.58,1.49-.22,2.96-.23,3.54s-.02,.67,.26,.5c.28-.17,.14,.45,.42,.96,.28,.51,.71,.39,1.07,.78,.36,.4,.54,.3,.41,.16-.12-.14,.07-.15,.41,.05,.34,.2,.49,.21,.32,.07-.17-.14-.09-.25,.27,0,.37,.26,.45-.12,1-.02,.55,.11,.35-.04,.05-.19-.3-.16,.24-.09,.8-.21,.56-.12,.32-.13,0-.26-.32-.13,.23-.04,.54-.2,.3-.16-.1-.41,.24-.42,.34-.01,.26-.07-.02-.19-.28-.13-.04-.1,.35-.1s.37-.06,.09-.19c-.28-.13-.19-.12,.16-.31,.35-.19,.16-.16,.09-.91-.07-.76,.22-.17,.47-.25,.25-.08,.5-.24,.32-.72-.19-.48-.06-.56,.23-.2,.29,.36,.24-.35-.17-1-.4-.65,.49-.29,.98-.28,.5,0,.51-.04,.15-.47-.36-.43-.1-.19,.45-.06,.55,.13,.41,.08,.47-.34,.06-.42,.29,.03,.39-.27,.1-.3-.4-.56-.05-.5,.36,.06,.37-.11,.17-.36-.2-.26-.33-.44,.15-.13,.48,.31,.13-.1-.09-.38-.23-.28-.1-.51,.08-.3,.19,.22,.17,.14,.03-.11-.14-.26-.09-.25,.3-.13,.39,.12,.28-.17,.8-.37,.53-.19,.44-.2,.14-.24-.3-.04,.1-.22,.46-.45,.37-.23,.64-.3,.64-.58,0-.28,.25,.17,.32-.37,.07-.55,.32-.02,.31-.62-.01-.6,.53-.07,.84-.85,.31-.78,.44-1.54,.19-2.22-.25-.68,.85-.55,.17-.65ZM5.77,16.72c-.48-.36-.53-.16-.53-.79,0-.64,.23-.64-.19-.94s0-.54-.43-.93c-.43-.38-.25-.45-.1-.77,.14-.33,.22-.4,.03-.68-.19-.28-.13-.43,0-.43,0,0,.41,.04,.5,.61,.09,.58,.1,.23,.32,.98,.23,.74-.22,.66,.22,1.09,.43,.43,.36,.74,.29,1.24-.07,.5,.36,.99-.11,.62Zm10.47,12.59c-.04,.39-.11,.91-.14,.87,0,0-.49,.11-.53-.35-.04-.45-.14-.49-.21-.26-.06,.23-.24-.06-.25-.19,0-.13,.38-.16,.56-.37,.18-.2,.07-.05,.34,.05,.27,.1,.28-.14,.23,.25Zm4.91-18.56c.64-.18,1.32-.24,2.82-.57,1.5-.32,4.68-.82,4.68-.82,.14-.02,.05-.04,.05,.26,0,.3,.06,1.05,.23,1.64,.17,.59,.25,.97,.07,.8-.19-.17-.24-.09-.17,.26,.07,.35,.17,.63-.08,.44-.24-.2-.36-.35-.21,.03,.15,.38,.36,.57,.05,.37s-.34-.11-.08,.23c.27,.34-.09,.26-.71-.08-.62-.34-1.87-.73-2.39-.82-.52-.09-.88-.29-1.16-.41s-.33-.3-.44-.13c-.11,.17-.3,.12-.58,0-.28-.13-.43-.4-.56-.21-.13,.19-.12,.17-.33,.13-.21-.05-.41-.25-.7-.57-.29-.32-.2-.25-.21,.09,0,.34-.36,.23-.69-.03-.33-.26-.22-.42,.42-.59Zm-4.82,4.94c.02-.28,.47-.15,.6-.38,.13-.23,.03,.08,.38,.19,.35,.11,.37,.22,.02,.19-.35-.03-.24,.1,.25,.32,.49,.22,.91,.41,1.25,1.03,.34,.61,.56,.97,.8,1.53,.25,.56,.71,1.34,.83,1.59,.12,.25-.44,.13-.31,.82,.14,.69,.49,.89,.78,1.26,.28,.36-.02-.24-.17-.78-.15-.54-.27-1.03,.2-.26,.48,.77,.58,1.04,.88,1.31,.3,.27,.33,.31,.25,.42,0,0-.31,.34-1.1,.25-.79-.09-.95-.22-1.27,.02s-.58,.29-1.12,.03c-.54-.26-.28-.51-.78-.57-.5-.05-.88,.07-.87-.46,.02-.53-.18-1.41-.22-2.29-.04-.88-.14-1.58-.25-2.55s-.18-1.39-.16-1.67Zm10.01,12.53c-.39-.05-.3,.04-.79,.33-.49,.3-1.3,.7-1.88,.61-.57-.1-.83-.24-1.32,.08s-.71,.03-1.36,.24c-.65,.22-1.29,.26-1.85,.14-.56-.12-.55,.42-.91,.4-.36-.01-.57-.16-.9,.13-.34,.29-.72,.2-.65-.13,.07-.33,.2-1.11,.2-1.11,.09-.24,.23-.24,.88-.43,.64-.19,.75-.16,1.49-.74,.74-.58,.41-.21,1.56-.38,1.14-.17,1.22-.32,2.1-.76,.88-.44,.82-.29,1.4-.4,.59-.12,.78-.41,1.2,0,.42,.41,.96,.73,1.26,.98,.3,.25,.98,.43,.56,.62-.42,.19-.58,.48-.96,.42Zm4,1.59c-.97,.28-.85,.33-1.45,.14-.6-.18-.98-.11-1.44-.22-.46-.11-1.14-.03-.68-.17,0,0,.88-.22,1.28-.54,.4-.32,.53-.64,1.06-.42,.53,.22,.63,.28,1.06,.48,.43,.2,1.14,.46,.16,.73Zm4.88-13.54c-.65-.4-1.16-.56-1.46-.83-.3-.27-.35,.04-.13-.56,.22-.6,.06-.55,.4-1.34,.34-.79,.41-.92,.52-1.18,.11-.27,.2-.47,.2-.28,0,0,0,.65,.22,1.42,.21,.77,.25,1.07,.41,1.77,.16,.7,.5,1.4-.15,1Zm.66-7.59c-.18,.37-.29,.45-.25,.06,.04-.39-.29-.23-.29-.23-.19,.08,0-.16,.38-.21,.37-.05,.34,.01,.16,.38Zm3.22,10.16s-.18-.21-.55-.4c-.38-.19-.29-.27-.37-.64-.07-.36-.38-1.1-.66-1.8-.28-.71-.17-.87-.41-1.32-.23-.45-.11-.68-.21-.95-.1-.27,.18,.12,.59-.24,.41-.37,.56-.41,.91-.61,.35-.19,.44-.04,.12,.23-.32,.27-.08,.45-.25,.64-.17,.19,.02,.36,.12,.72,.11,.37,.27,1.29,.47,2.22,.19,.93,.26,1.01,.27,1.46,0,.45,.13,.83-.02,.68Z"/>
  </g>
</svg>