<?xml version="1.0" encoding="UTF-8"?>
<svg id="Layer_2" data-name="Layer 2" xmlns="http://www.w3.org/2000/svg" viewBox="0 0 65.73 58.4">
  <defs>
    <style>
      .cls-1 {
        fill: #808080;
      }
    </style>
  </defs>
  <g id="Layer_1-2" data-name="Layer 1">
    <path class="cls-1" d="M65.66,58.4c-.15-.1-.3-.2-.45-.29-.72-.45-1.43-.9-2.15-1.33-1.19-.72-2.5-1.1-3.87-1.29-1.22-.17-2.45-.25-3.68-.16-.8,.05-1.6,.14-2.4,.22-1.11,.11-2.23,.16-3.35,.03-.76-.09-1.52-.15-2.28-.22-.93-.08-1.79,.17-2.6,.58-.67,.34-1.31,.73-1.97,1.1-.09,.05-.18,.1-.27,.16-.12-.4-.1-.78-.03-1.17,.21-1.28,.75-2.42,1.44-3.49,1.42-2.2,3.27-3.92,5.64-5.06,.67-.32,1.38-.54,2.12-.64,.04,0,.09-.02,.16-.03-.05-.16-.1-.32-.15-.47-.65-1.86-1.51-3.63-2.43-5.38-1-1.89-2.11-3.71-3.34-5.46-.43-.61-.8-1.27-1.23-1.89-.77-1.13-1.66-2.14-2.85-2.84-.53-.31-1.11-.53-1.66-.81-1.17-.59-2.34-1.18-3.49-1.79-1.9-1.01-3.78-2.07-5.68-3.07-.84-.45-1.73-.81-2.59-1.22-3.28-1.56-6.54-3.16-9.67-5.01-.5-.29-.98-.61-1.46-.92-.02-.01-.05-.03-.1-.06,.21,.72,.62,1.31,.98,1.89-.29,.33-.59,.63-.85,.97-.7,.92-1.08,1.99-1.3,3.12-.22,1.13-.22,2.27-.21,3.41,0,.18-.02,.36-.03,.59-.43-.24-.82-.45-1.2-.68-1.37-.85-2.5-1.93-3.28-3.34-.54-.98-.86-2.03-.96-3.14-.18-1.9,.21-3.69,1.01-5.41,0-.02,.02-.04,.04-.1-.35-.2-.69-.42-1.05-.6-.92-.46-1.91-.73-2.92-.89-.87-.14-1.75-.25-2.62-.34-.74-.08-1.49-.11-2.23-.19-.47-.05-.93-.14-1.39-.24-.32-.07-.59-.25-.83-.46-.24-.22-.35-.5-.41-.81,0-.03-.02-.06-.03-.09v-.48c.09-.22,.23-.38,.48-.38-.17-.44-.16-.46,.17-.78,.02-.02,.05-.05,.08-.07,.5-.37,.99-.75,1.49-1.11,.12-.08,.14-.15,.11-.29-.07-.37-.15-.75-.18-1.13-.1-1.42,.37-2.65,1.31-3.71,.82-.93,1.85-1.56,2.98-2.04,1.68-.72,3.45-1.1,5.25-1.3,1.21-.13,2.42-.18,3.63-.26,.04,0,.08-.02,.11-.02,.51,0,1.03,0,1.54,0,.06,0,.12,.03,.18,.03,1.51,.03,3,.16,4.5,.37,2.16,.3,4.29,.79,6.37,1.44,2.45,.77,4.8,1.77,7.05,3.02,.07,.04,.17,.07,.26,.06,.7-.1,1.41-.22,2.11-.31,1.17-.15,2.33-.29,3.51-.19,.57,.05,1.11,.2,1.56,.57,.66,.53,1.12,1.21,1.48,1.96,.02,.03,.02,.07,.02,.11-.06,.02-.1,.04-.15,.06-.76,.31-1.26,.83-1.35,1.68-.06,.52,.08,1.02,.28,1.49,.41,.97,1.04,1.79,1.73,2.57,1.05,1.19,2.03,2.45,2.92,3.77,1.51,2.26,2.76,4.65,3.81,7.15,.92,2.2,1.68,4.46,2.31,6.76,.85,3.12,1.48,6.3,1.85,9.51,.19,1.62,.32,3.26,.43,4.89,.06,.85,.4,1.52,1.11,1.97,.48,.31,.98,.59,1.49,.84,1.81,.89,3.4,2.07,4.74,3.59,.68,.77,1.32,1.56,1.74,2.5,.45,1,.6,2.07,.72,3.15,.03,.28,.05,.55,.07,.83,0,.17,0,.34,0,.51,0,.02-.04,.05-.07,.07Z"/>
  </g>
</svg>