<?xml version="1.0" encoding="UTF-8"?>
<svg id="Layer_2" data-name="Layer 2" xmlns="http://www.w3.org/2000/svg" viewBox="0 0 106.51 58.17">
  <defs>
    <style>
      .cls-1 {
        fill: #808080;
      }
    </style>
  </defs>
  <g id="Layer_1-2" data-name="Layer 1">
    <path class="cls-1" d="M.11,32.51c-.31-.72,.03-1.33,.78-1.63,1.12-.45,2.27-.29,3.41-.17,.96,.1,1.91,.28,2.85,.46,1.29,.25,2.57,.51,3.85,.8,1.23,.28,2.46,.58,3.69,.89,1.2,.31,2.39,.66,3.6,.96,.77,.19,1.56,.36,2.34,.43,3.81,.38,7.52,0,11.04-1.63,.06-.03,.14-.03,.2-.07,.09-.06,.16-.15,.24-.22-.08-.08-.15-.2-.24-.23-.4-.12-.81-.24-1.22-.33-1.3-.28-2.61-.57-3.91-.82-.71-.14-1.44-.2-2.16-.32-.51-.08-.58-.18-.38-.64,.73-1.71,1.62-3.33,2.65-4.87,.74-1.11,1.63-2.07,2.66-2.91,.93-.76,1.99-1.31,3.23-1.19,.64,.06,1.28,.27,1.88,.53,1.51,.64,2.83,1.58,4.02,2.7,.61,.64,1.23,1.28,1.83,1.93,.42,.46,.42,.47,.89,.09,2.5-2.03,5.01-4.06,7.5-6.11,.33-.27,.97-.41,.88-.9-.11-.6-.45-1.16-.73-1.72-.09-.18-.29-.31-.44-.45-.49-.45-.46-.5,.03-.88,.32-.26,.65-.56,.85-.91,.56-1.03,.55-2.11,.06-3.18-.27-.6-.23-.71,.41-.71,1.96-.02,2.78-1.63,2.95-2.94,.05-.35-.15-.73-.21-1.09-.09-.53-.04-.55,.5-.53,.53,.03,1.07,.06,1.6,.02,1.35-.09,2.4-1.71,2.42-2.67,.02-1.08,.06-1.12,1.01-.68,1.5,.7,3.69-.36,4.08-2.24,.04-.21,.19-.39,.29-.59,.19,.12,.41,.2,.56,.37,1.31,1.49,4.1,1.47,5.31-.62,.34-.58,.41-.59,.74,.02,.56,1,1.5,1.46,2.55,1.53,.84,.06,1.66-.29,2.28-.94,.1-.1,.18-.22,.28-.32,.1-.09,.21-.17,.32-.25,.05,.12,.12,.23,.16,.35,.18,.48,.29,1,.53,1.44,.93,1.71,3.33,1.96,4.66,.9,.09-.07,.18-.16,.27-.23,.51-.39,.56-.39,.8,.24,.62,1.66,2.59,2.45,4.2,1.68,.25-.12,.45-.34,.67-.5,.47-.34,.59-.27,.73,.29,.47,1.79,.25,3.61,.27,5.41,.02,1.35-.23,2.66-.51,3.97-.23,1.06-.42,2.12-.63,3.18-.02,.12-.04,.23-.07,.35-.29,.99-.27,.95,.6,1.56,2.3,1.6,4.58,3.22,6.86,4.86,2.68,1.92,5.33,3.87,8.01,5.79,1.2,.86,2.46,1.65,3.63,2.56,.76,.59,1.38,1.35,1.63,2.34,.4,1.58-.09,2.93-1.06,4.15-1.27,1.59-2.78,2.93-4.36,4.21-2.03,1.64-4.31,2.89-6.68,3.92-2.26,.99-4.65,1.69-7.09,2.1-1.88,.31-3.76,.63-5.65,.79-1.97,.16-3.95,.15-5.93,.17-1.03,.01-2.07-.06-3.1-.12-.4-.02-.66,.15-.91,.43-1.17,1.32-2.31,2.67-3.54,3.92-1.54,1.56-3.19,3.06-5.36,3.67-1.7,.47-3.46,.43-4.93-.68-1.28-.97-1.6-2.36-.7-3.96,.72-1.27,1.83-2.13,3.01-2.93,.52-.36,1.09-.65,1.63-.98,.15-.09,.26-.24,.38-.36-.17-.06-.34-.16-.51-.18-.84-.12-1.68-.21-2.52-.32-2.03-.26-4.06-.51-6.09-.79-2.33-.32-4.66-.68-6.98-1.03-.35-.05-.56,.09-.81,.31-1.4,1.24-2.91,2.32-4.65,3.03-.82,.33-1.71,.48-2.55,.76-.73,.24-1.48,.3-2.23,.24-.31-.02-.67-.1-.92-.27-1.42-.98-2.59-2.19-3.28-3.8-.21-.49-.32-1.03-.43-1.56-.15-.73-.29-.9-1.03-.84-1.72,.13-3.4,.47-5.07,.91-2.42,.63-4.77,1.47-7.04,2.5-.87,.4-1.69,.93-2.52,1.42-2.47,1.43-5.1,2.5-7.82,3.35-.96,.3-1.93,.64-2.93,.76-1.09,.14-2.21,.11-3.31,.04-.69-.04-.88-.44-.88-1.13,0-.78,.36-1.42,.79-2,.75-1,1.57-1.94,2.32-2.93,.91-1.19,1.83-2.37,2.47-3.76,.72-1.58,.56-3.03-.43-4.39-.65-.89-1.4-1.71-2.13-2.53-.83-.93-1.73-1.79-2.53-2.74-.37-.44-.66-.97-.89-1.51Z"/>
  </g>
</svg>