<?xml version="1.0" encoding="UTF-8"?>
<svg id="Layer_2" data-name="Layer 2" xmlns="http://www.w3.org/2000/svg" viewBox="0 0 106.83 43.41">
  <defs>
    <style>
      .cls-1 {
        fill: #808080;
      }
    </style>
  </defs>
  <g id="Layer_1-2" data-name="Layer 1">
    <path class="cls-1" d="M.75,31.86c-.45,.08-.19,.1,.73,1.35,.91,1.25,2.57,2.05,4.17,2.9,1.6,.86,2.52,.97,3.36,1.03,.84,.06,.71,.37,1.31,.75,.6,.37,.97,.3,2.24,.25,1.26-.04,3.8-.84,5.02-1.38,1.22-.54,3.7-2.03,5.61-2.86,1.9-.83,4.41-.73,8.1-.62,3.69,.11,1.02,.51,.05,.87-.98,.36-1.37,.02-2.03-.04-.66-.06-1.19,.28-1.95,.62-.77,.34-.66,.18-1.24,.23-.58,.05-1.01,.6-1.35,.7s-1.45,.23-1.14,.47c.31,.24-.56,.42-.87,.42-.32,0-.74,.28-.56,.55,.18,.26-.61,.26-1.21,.25-.61,0-1.42,.17-1.06,.49,.37,.32-1.9,.51-2.82,.14-.92-.38-.29,.45-.29,.45,0,0,1.02,1.48,2.91,2.34,1.89,.86,4.73,1.46,6.66,1.34,1.92-.12,.2,.92,2.05,1.22,1.84,.29,3.19-.13,4.14-.49,.95-.36,1.27-.44,1.03-.05-.24,.39,1.02,.82,2.03,.41,1-.41,2.43-.93,1.85-.57-.58,.36-.61,.55-.16,.58,.45,.03,.87,.48,2.82-.4,1.96-.88,3.73-1.45,5.71-2.36,1.98-.91,2.95-.24,5.43-.46,2.48-.22,5.45,.33,9.3,.25,3.85-.08,10.42-.82,13.71-1.5,3.3-.69,6.91-1.27,8.89-1.49,1.98-.22,6.07-1.27,7.74-2.05,1.67-.78,5.21-2.07,7.93-3,2.72-.93,4.02-2.05,5.08-3.1,1.06-1.05,1.78-2.17,2.26-2.59,.48-.42,.8-.81,.59-1.29-.21-.48-.78-.93-2.26-.62-1.48,.31-.31-.4,.35-.55,.66-.15,.79-.26,1.35-.78,.56-.52,.03-1.16-.25-1.32-.29-.16-.13-.21-.67-1.3-.55-1.08-1.38-2.12-3.42-4.22-2.04-2.1-3.84-4.35-6.81-5.87-2.97-1.52-7-4.77-10.63-6.14-3.63-1.37-8.76-1.46-9.92-1.5-1.16-.04-1.92-.59-1.92-.59-.84-.4-1.89-.78-1.66-.41,.23,.37-2.39-.73-3.26-1-.87-.27-1.71-.04-1.45,.25,.26,.29-2.34-.7-3.16-1.03-.81-.32-1.21,.31-.93,.55,.29,.24-1.34-.35-2.42-.62-1.08-.27-1.98,.27-1.8,.54,.18,.26-.92,.05-1.63,0-.71-.06-1.08,.44-.93,.8,.16,.37-.5,.03-1.11,0-.61-.03-1.29,.04-1.16,.2,.13,.16-.63,.05-1.74-.01-1.11-.06-.74,.71-.4,.97,.34,.27-.74,.02-1.84-.04-1.11-.06-.8,.71-.22,.97,.58,.27-1.61,.07-2.9-.1-1.29-.17-.9,.78,.36,1.06,1.26,.27-1.74,.25-2.72,.19-.97-.06-.66,.55,.18,1.06,.84,.51-1.26-.14-2.5-.31-1.24-.17-.37,.68,.18,.98,.55,.29-1.4-.01-2.29-.36-.89-.35-1.06,.33-.24,.95,.81,.61-1.21-.17-1.95-.46-.74-.3-1.11,.07-.5,.58,.6,.51-.08,.61-.48,.52-.39-.08-1.34-.51-2.18-.97-.84-.45-.95-.09-.76,.1,.18,.19-.26,.08-1.45-.43-1.18-.51-1.97-.54-1.74-.41,.24,.13,.08,.26-.19,.26-.26,0-1.24-.04-2.37-.1-1.13-.06-1.56,.01-1.4,.04,.16,.03,.1,.16-.4,.16-.5,0-1.32,.23-.95,.36,.37,.13-.19,.34-1.06,.31-.87-.03-1.37,.52-2.56,.88-1.19,.36-1.33,1.07-1.09,1.05,.24-.02-.93,.31-2.06,.56-1.14,.25-.74,.63-1.3,.78-.55,.15-.74,.68-1.43,1.52-.69,.84-.16,.76,.52,.43,.69-.34,1.16-.31,.61,.06-.56,.36,1.13,.17,1.98,.17s1.11-.1,.87,.06c-.24,.16,1.05,.06,2.39,.41,1.34,.35,1.65,1.25,2.44,2.1,.78,.85,2.28,1.44,3.15,1.84,.87,.4,1.42,.91,.29,.61-1.13-.3-.27,.39,.99,1.01,1.26,.62,3.92,1.14,5.23,1.44,1.32,.3,.6,.27-.08,.26-.69,0-3.11,.08-6.43-.1-3.32-.18-5.02-1.28-8.22-3.46-3.2-2.19-5.86-2.28-7.28-2.27-1.42,.02-1.16,.57-2.73,1.38-1.56,.81-3.53,3.14-4.48,3.71-.95,.57-1.88,1.01-2.38,1.51-.5,.5-.58,.73-.82,1.07-.24,.34-.16,.66,.13,.9,.29,.24-.08,.45-.32,.42s-.03,.53-.06,.63c-.03,.11,.1,.26,.18,.61,.08,.34-.14,.53-.35,.87-.21,.34,.1,.74-.09,.95-.19,.21,.1,.19,.07,1.16-.03,.97,0,0-.29,.37-.29,.37,0,.55,.15,.69,.16,.13-.03,.21-.29,.18-.26-.03,.05,.4-.16,.47-.21,.08,0,.76,.26,.92,.26,.16,.23,.37-.06,.5-.29,.13,.31,.79,.57,.9,.26,.11,.34,.29-.11,.37Zm83.67-15.15c.02-2.61,2.15-4.71,4.76-4.69,2.61,.02,4.71,2.15,4.69,4.76-.02,2.61-2.15,4.71-4.76,4.69-2.61-.02-4.71-2.15-4.69-4.76Zm4.49-2.21c1.34,0,2.42,1.08,2.41,2.38,0,1.31-1.1,2.36-2.44,2.35-1.34,0-2.42-1.08-2.41-2.38,0-1.31,1.1-2.36,2.44-2.35Z"/>
  </g>
</svg>