<?xml version="1.0" encoding="UTF-8"?>
<svg id="Layer_2" data-name="Layer 2" xmlns="http://www.w3.org/2000/svg" viewBox="0 0 138.66 50.9">
  <defs>
    <style>
      .cls-1 {
        fill: #808080;
        fill-rule: evenodd;
      }
    </style>
  </defs>
  <g id="Layer_1-2" data-name="Layer 1">
    <path class="cls-1" d="M0,24.12c.2-.12,0-.34,.08-.46,1.41-.21,2.89-.08,4.33-.08,2.93,0,5.85-.23,8.74,0,4.42,.35,8.75-.31,13.03-.31,1.43,0,2.84-.07,4.14-.35,.59-.13,1.17-.35,1.74-.5,.63-.17,1.28-.25,1.86-.42,1.28-.39,2.2-1.25,3.21-1.93,.67-.45,1.28-.97,1.97-1.39,.7-.43,1.41-.82,2.13-1.2,.75-.4,1.54-.64,2.36-1.01,.28-.13,.54-.34,.85-.46,1.3-.52,2.11-1.53,2.94-2.47,1.06-4.79,3.22-8.48,6.14-11.4,.08-.12-.11-.22,.04-.35,.23-.14,.49-.18,.7-.31,.67-.43,1.02-1.26,1.89-1.47,.61,.39-.04,1.03,0,1.59,.02,.28,.25,.61,.31,.93,.1,.56-.04,1.19,.04,1.74,.04,.29,.17,.71,.27,1.04,.11,.35,.19,.75,.31,1,.08,.17,.26,.3,.35,.47,.12,.22,.14,.47,.23,.62,.12,.18,.41,.5,.7,.31-.25,.43,.52,.53,.85,.73,.65,.41,1.32,1.12,1.93,1.47,.8,.46,1.89,.77,2.9,1.16,.99,.38,1.96,.73,3.02,1.04,.53,.16,1.12,.19,1.7,.31,.54,.11,1.1,.26,1.62,.42,1.06,.32,1.99,.92,3.02,1.08,.4,.07,.79,.02,1.16,.12,.22,.06,.41,.18,.62,.23,.56,.14,1.16,.16,1.74,.27,1.69,.33,3.33,.63,4.99,1.04,2.22,.55,4.51,.79,6.61,1.43,1.71,.52,3.35,1.04,5.03,1.35,.11,.08,.22,.17,.35,.23,.82,.38,1.75,.58,2.47,1.08,.08,.11,.06,.24,.16,.35,.27,.31,.8,.56,1.16,.81,.14,.03,0,.34,.15,.35,.78,.17,1.63,.28,2.44,.43,.24-.1,.35-.6,.62-.85,.14-.13,.38-.18,.58-.31,.55-.36,.99-.92,1.47-1.01,.93-.17,1.11,.38,1.35,.93,1.55,.95,4.36,1.05,6.65,1,.06,.21,.5,.05,.5,.31-.01,.14-.29,.02-.35,.12-.13,.37-.58,.63-.77,.81,1.25,.11,2.66,.17,3.96,.06,.49-.09,.98-.16,1.48-.23,.66-.15,1.25-.36,1.71-.68,.66-.45,1.23-1.27,1.78-1.89,1.2-1.35,2.18-2.72,3.36-4.02,.61-.67,1.3-1.21,1.89-1.82,.43-.43,.83-.94,1.24-1.39,1.72-1.88,3.17-3.85,5.61-4.99,1.28-.6,2.32-1.12,3.83-1.51,.71-.18,1.56-.46,2.24-.42,.56,.03,1.23,.22,1.28,.54,.04,.24-.31,.72-.5,.93-.35,.37-.9,.54-1.31,.81-1.39,.93-2.99,2.1-4.29,3.4-1.21,1.21-2.68,2.67-3.52,4.21-1.08,1.99-2.08,4.13-3.17,6.15-.16,.31-.45,.62-.5,.85-.12,.57,.12,.91-.27,1.35,.03,.42,.21,.74,.19,1.16-.02,.58-.4,1.01-.46,1.47-.13,.95,.33,1.71,.54,2.44,.17,.58,.3,1.18,.46,1.74,.94,3.14,2.36,5.67,3.9,8.08,.16,.25,.24,.5,.39,.73,.44,.7,1.14,1.33,1.74,1.97,.3,.32,.6,.65,.89,.97,.31,.33,.57,.71,.85,1.01,.49,.51,1.24,1.08,1.85,1.58,.88,.72,2.32,1.04,2.05,2.4-.18,.12-.37,.09-.54,.04-.21-.07-.25-.26-.39-.23-1.28,.13-2.22-.53-3.13-1.08-.8-.48-1.56-.88-2.24-1.31-1.54-.96-2.82-1.98-4.06-3.05-2.58-2.25-4.99-4.63-6.67-7.47,.03,.07,.03,.17,.1,.2-.11,.08-.13-.12-.16-.15-.76-1.14-1.31-2.11-1.89-3.44-.15-.36-.42-1.15-.66-1.28-.25-.13-.84-.06-1.33-.04-.06,.02-.13,.04-.19,.04h-.33c-.08,0-.14-.01-.2-.03-1.49,0-2.93,0-4.33,.08-.79,.59-1.68,1.2-2.7,1.62-1.04,.43-2.27,.54-3.13,1.24-.14,.11,0,.15,0,.31-.43,.12-.72,.56-1.08,.69-.71,.28-1.95,.12-2.98,.12-2,0-4.01-.13-5.68-.35-.32-.04-.71,0-1.04-.04-.18-.02-.37-.12-.5-.12-.45,0-1.01,.24-1.51,.35-.54,.12-1.06,.22-1.55,.31,.44,.84-.15,1.36-.54,1.89-.25,.34-.62,.66-.81,1-.69,1.21-.93,3.54-.77,5.3,.07,.76,.46,1.36,.66,2.01,.18,.59,.54,1.09,.54,1.74-.66,.29-1.36-.17-1.89-.43-.59-.28-1.21-.58-1.7-.93-.51-.36-.96-.82-1.47-1.16-.55-.37-1.1-.67-1.63-1.04-1.81-1.3-3.14-3.08-4.37-4.87-.18-.26-.3-.59-.5-.85-.44-.57-1.21-.57-2.09-.73-.54-.1-1.12-.24-1.62-.27-1.17-.07-2.44,.14-3.67,.15-2.56,.03-5.13,.1-7.54-.04,1.12,1.88,1.8,4.01,2.67,6.03,.28,.66,.7,1.23,1.08,1.85,.74,1.22,1.49,2.37,2.28,3.52,.6,.86,1.3,1.65,1.89,2.47,.21,.29,.5,.63,.43,1.04-.3,.54-.78,.24-1.16-.04-.92-.66-1.67-1.19-2.51-1.93-2.97-2.63-5.44-5.88-7.61-9.2-.67-1.02-1.39-1.97-1.97-3.05-.18-.32-.37-.92-.93-.77,.72,1.7,1.62,3.24,2.55,4.75,.71,1.15,1.34,2.35,2.01,3.48,.22,.37,.65,.71,.58,1.2-.38,.13-.54-.33-.73-.54-1.42-1.58-2.8-3.3-3.94-5.1-.08-.13-.2-.41-.19-.27,.47,.91,1.01,1.79,1.55,2.67,.72,1.17,1.56,2.18,2.05,3.52-.25,.1-.29-.26-.54-.27-1.11-1.57-2.48-2.93-3.56-4.56-1.09-1.65-1.85-3.51-2.94-5.22-.48-.02-1.08-.14-1.43-.15-.03,1.92-.08,3.69-.08,5.72,0,.33,.12,1.62-.19,1.74-.35,.13-.48-.34-.58-.62-.77-2.08-1.12-4.76-1.24-7.23-2.2-.46-4.78-.45-7.03-.85-1.09-.19-2.19-.53-3.33-.62-1.21-.1-2.44-.13-3.63-.35-1.12-.21-2.18-.5-3.21-.73-1.07-.24-2.09-.58-3.02-.97-1.87-.77-3.43-1.93-5.33-2.59-1.61-.56-3.21-.75-4.87-1.31-.35-.12-1.39-.37-1.35-.73,.03-.28,.71-.38,1.04-.46,1.25-.31,2.81-.37,3.98-.54-4.67-.13-9.86-.58-14.69-.58-1.66,0-3.25-.19-4.83-.27-1.9-.09-3.98,.2-5.1-.58Z"/>
  </g>
</svg>