<?xml version="1.0" encoding="UTF-8"?>
<svg id="Layer_2" data-name="Layer 2" xmlns="http://www.w3.org/2000/svg" viewBox="0 0 61.97 49.51">
  <defs>
    <style>
      .cls-1 {
        fill: #808080;
      }
    </style>
  </defs>
  <g id="Layer_1-2" data-name="Layer 1">
    <path class="cls-1" d="M52.03,42.94c.2,.36,.44,.69,.65,1.04-.53,.52-1.74-.11-2.26-.4-.27-.15-.52-.32-.77-.5-.03-.02-.06-.03-.09-.05-.38-.25-.7-.58-.99-.94-.29-.33-.55-.7-.77-1.1-.74-1.17-1.31-2.44-2-3.65-.42-.74-.91-1.42-1.49-2.04-.56-.59-1.17-1.13-1.79-1.64-1.24-1.01-2.53-1.96-3.62-3.13-.89-.94-1.68-2.06-2.05-3.32,.11-.09,.22-.19,.34-.27,.75-.57,1.58-1.08,2.48-1.37,.03,0,.02-.06-.01-.05-.95,.24-1.86,.56-2.68,1.1-.13,.08-.25,.17-.37,.26-.07,.04-.15,.08-.23,.12-.4,.19-.79,.4-1.19,.6-1.43,.76-2.8,1.63-4.12,2.56-.08,.06-.17,.12-.25,.18,0,0,0,0,0,.01-.34,.22-.63,.45-.85,.79-.21,.3-.35,.64-.44,.99-.21,.81-.11,1.66,.06,2.47,.16,.76,.37,1.51,.63,2.23,.27,.73,.6,1.44,.97,2.13,.18,.33,.38,.66,.59,.98,.13,.19,.26,.38,.39,.57-.06-.28-.09-.57-.11-.84-.04-.49-.03-.97,.03-1.45,.22-1.7,.99-3.33,2.19-4.55,.56-.57,1.23-1.05,1.94-1.43,.36-.19,.73-.36,1.11-.5,.4-.14,.79-.22,1.21-.29,.07-.01,.1,.06,.07,.11-.05,.19-.18,.34-.28,.5-.11,.17-.22,.35-.33,.53-.21,.37-.4,.74-.55,1.13-.28,.72-.34,1.47-.39,2.23-.05,.73-.12,1.45-.28,2.16-.16,.69-.38,1.37-.66,2.02-.14,.33-.3,.66-.47,.97-.08,.15-.17,.3-.26,.45-.05,.13-.09,.25-.13,.38-.09,.32-.12,.65-.13,.99-.03,.74,.15,1.46,.28,2.18,.14,.72,.22,1.44,.2,2.18-.02,.73-.13,1.45-.3,2.16-.02,.09-.14,.09-.18,.02-.33-.5-.74-.92-1.15-1.35-.35-.36-.7-.71-.99-1.12-.29-.4-.53-.85-.7-1.31-.27-.72-.43-1.58-.3-2.37-.12-.12-.23-.24-.38-.33-.22-.15-.47-.26-.72-.34-.61-.19-1.25-.21-1.88-.22-.97-.02-1.93-.1-2.88-.32-.92-.21-1.82-.53-2.67-.94-.83-.41-1.61-.92-2.33-1.51-.19-.16-.37-.32-.54-.5,.06,.41,0,.85-.11,1.24-.14,.54-.39,1.03-.75,1.46-.07,.09-.21,.01-.22-.09-.04-1.09-.35-2.14-.77-3.14-.77-1.82-1.9-3.46-2.73-5.26-.42-.9-.76-1.83-.96-2.8-.1-.48-.16-.96-.17-1.45,0-.42,0-.87,.11-1.29,0,0,0,0,0,0,.51-.26,1.01-.54,1.49-.85,1.14-.75,2.19-1.66,3.07-2.69,.91-1.07,1.68-2.27,2.38-3.49,.42-.72,.79-1.47,1.16-2.21,.37-.74,.73-1.49,.99-2.27,.05-.16-.21-.28-.28-.12-.29,.69-.54,1.39-.82,2.08-.28,.69-.61,1.36-.96,2.02-.7,1.28-1.54,2.46-2.53,3.54-.92,1.01-1.93,1.95-3.07,2.71-.57,.38-1.16,.72-1.79,.99-.55,.24-1.11,.46-1.66,.7-.72,.17-1.43,.37-2.12,.66-.8,.33-1.54,.79-2.25,1.28-1.23,.84-2.44,1.72-3.81,2.33-.4,.18-1.01,.45-1.54,.57-.09,.04-.18,.07-.27,.08-1.02,.21-1.96-.11-2.97-.28,.28-.26,.69-.34,1.03-.54,.33-.2,.63-.43,.98-.62,1.91-1.39,3.89-2.78,5.62-4.39,1.38-1.28,2.65-2.65,3.84-4.12,.94-1.16,1.86-2.32,2.79-3.49,1.05-1.32,2.1-2.64,3.17-3.94,.25-.3,.49-.6,.74-.91,.33-.75,.5-1.53,.72-2.32,.41-1.48,.32-3.42,.17-4.94-.2-2.05-.88-5.25-3.02-6.17-.84-.36-2.08-.52-2.66,.33C13.85,.47,16.49,0,17.62,0c2.99-.02,5.49,1.61,7.47,3.74,.88,.95,1.61,1.98,2.19,3.11,2.51-1.53,5.27-2.68,8.08-3.51,3.39-1,6.92-1.52,10.45-1.65,3.75-.13,7.5,.19,11.18,.84,.81,.14,1.63,.27,2.43,.5,.63,.18,1.26,.43,1.76,.85,.54,.45,.84,1.11,.79,1.82-.06,.82-.48,1.58-.89,2.28-1.43,2.43-3.64,4.38-6.23,5.51-.12-.13-.24-.25-.37-.36-.39-.31-.84-.53-1.33-.61-.56-.09-1.11,.01-1.65,.19-.64,.21-1.2,.57-1.78,.91-.03,.02,0,.07,.03,.05,.98-.47,2.01-.9,3.12-.81,.7,.06,1.27,.43,1.72,.92-.02,.12-.05,.24-.08,.35-.07,.24-.16,.48-.25,.72-.19,.48-.42,.95-.69,1.4-2.06,3.5-5.71,5.42-9.21,7.2,1.2,.72,2.21,1.77,3.04,2.88,.79,1.06,1.42,2.25,1.85,3.5,.47,1.34,.67,2.74,.75,4.15,.1,1.7,.05,3.45,.25,5.15,.08,.38,.18,.76,.33,1.14,.37,.93,.95,1.8,1.43,2.66Z"/>
  </g>
</svg>