<?xml version="1.0" encoding="UTF-8"?>
<svg id="Layer_2" data-name="Layer 2" xmlns="http://www.w3.org/2000/svg" viewBox="0 0 62.86 45.47">
  <defs>
    <style>
      .cls-1 {
        fill: #808080;
      }
    </style>
  </defs>
  <g id="Layer_1-2" data-name="Layer 1">
    <path class="cls-1" d="M39.13,34.93c.1-.03,.19-.05,.29-.08,.48-.04,.96-.06,1.44-.08,1.68-.05,3.36,0,5.04,0-.45,.24-.93,.46-1.3,.78-.03,.03,0,.07,.04,.06,.57-.12,1.11-.48,1.61-.76,.05-.03,.09-.06,.14-.08,.07,0,.14,0,.21,0-1.06,.42-1.84,1.59-2.65,2.32-1.19,1.07-2.77,1.72-4.36,1.81-1.63,.09-3.25-.41-4.87-.26,.64-.85,1.26-1.75,2.06-2.44,.4-.35,.85-.65,1.31-.88,.11-.01,.21-.02,.32-.03,1.19-.12,2.36-.24,3.53,.05,.17,.04,.23-.2,.07-.25-.9-.34-1.91-.27-2.87-.17ZM18.68,13.78c.78,0,1.56-.12,2.31-.32,1.54-.41,2.99-1.16,4.18-2.21,1.26-1.1,2.26-2.46,3.58-3.5,1.22-.95,2.61-1.65,4.06-2.18,3.06-1.12,6.43-1.67,9.69-1.47,3.2,.2,6.27,1.18,8.98,2.9,1.34,.86,2.59,1.86,3.75,2.96-.8-1.33-1.75-2.57-2.87-3.64-1.61-1.54-3.53-2.74-5.57-3.64C42.3,.71,37.31,.1,32.46,0c-5.59-.1-11.17,.58-16.65,1.61-2.45,.46-4.89,.98-7.37,1.26-2.27,.25-4.65,.4-6.89-.18-.53-.14-1.03-.31-1.52-.55-.03-.01-.05,.03-.02,.04,.02,0,.03,.02,.05,.02,1.52,.89,3.25,1.29,5,1.33,2,.05,3.96-.28,5.95-.44,1.02-.08,2.03-.13,3.05-.1,.8,.03,1.65,.14,2.35,.56,1.63,.98,1.38,3.39,1.35,5.03-.04,1.71-.22,3.39-.69,5.02,.52,.17,1.08,.19,1.62,.18Zm44.04,10.2s-.05-.07-.09-.09c-1.99-.92-2.96-2.94-3.67-4.9-.82-2.25-1.49-4.54-2.51-6.72-.21-.46-.45-.91-.69-1.36-.56-.58-1.14-1.14-1.75-1.68-1.17-1.01-2.43-1.92-3.79-2.67-2.9-1.6-6.17-2.29-9.47-2.23-1.69,.03-3.38,.25-5.03,.63-1.58,.36-3.14,.86-4.59,1.58-.71,.35-1.39,.76-2.02,1.23-.68,.5-1.27,1.09-1.85,1.7-.58,.61-1.14,1.24-1.76,1.8-.57,.52-1.2,.97-1.87,1.36-1.33,.77-2.82,1.25-4.34,1.42-.71,.08-1.59,.11-2.3-.18,0,.01,0,.03-.01,.04-.53-.23-1.05-.43-1.54-.74-.55-.35-1.05-.77-1.51-1.22-.94-.92-1.72-1.97-2.62-2.91-1.59-1.66-4.04-3.12-6.34-1.99-.09,.04-.09,.19,0,.23,.99,.5,1.79,1.34,2.27,2.34,.57,1.18,.52,2.4,.32,3.66-.17,1.07-.33,2.18,.05,3.23,.25,.69,.7,1.34,1.38,1.62-.68,.28-1.13,.93-1.38,1.62-.38,1.05-.22,2.16-.05,3.23,.2,1.26,.25,2.48-.32,3.66-.48,1-1.27,1.84-2.27,2.34-.09,.04-.09,.19,0,.23,2.3,1.14,4.75-.33,6.34-1.99,.9-.94,1.69-2,2.62-2.91,.46-.45,.95-.87,1.5-1.21-.1,.13-.18,.27-.25,.41,.39-.43,.85-.79,1.4-1.07,1.02-.53,2.25-.73,3.39-.65,5.08,.35,8.15,5,10.98,8.65,.39,.5,.78,1,1.2,1.48,.36,.42,.74,.82,1.07,1.25,.32,.42,.65,.85,1.05,1.2,.4,.34,.87,.49,1.38,.6,1.07,.23,2.14,.08,3.21-.04,.1-.01,.21-.02,.31-.03,.1-.03,.19-.05,.29-.08,.48-.04,.96-.06,1.44-.08,1.68-.05,3.36,0,5.04,0,.07-.04,.15-.08,.22-.12,.53-.31,1.07-.61,1.59-.94,.52-.32,1.02-.68,1.52-1.04,.26-.19,.52-.39,.78-.59,.22-.18,.44-.38,.68-.52,.04-.02,.07,0,.09,.03,0,0,.01,0,.02,0,.47-.05,.37,.6,.34,.87-.06,.46-.15,.92-.31,1.35-.1,.28-.22,.56-.37,.83,.04,0,.07-.02,.11-.03,2.44-.24,4.85-.78,7.01-1.97,3.03-1.67,5.43-4.86,5.28-8.43,0-.11-.06-.18-.14-.22Zm-11.89,8.9c.05-.2,.09-.41,.11-.61,.01-.1,.03-.2,.02-.3-.01-.15-.1-.14-.22-.19-.02,0-.03-.02-.04-.04-.2,.2-.43,.37-.65,.54-.23,.18-.46,.35-.69,.53-.49,.37-1,.71-1.51,1.06-.48,.32-.96,.63-1.46,.91,.07,0,.14,0,.21,0-1.06,.42-1.84,1.59-2.65,2.32-1.19,1.07-2.77,1.72-4.36,1.81-1.63,.09-3.25-.41-4.87-.26,.64-.85,1.26-1.75,2.06-2.44,.4-.35,.85-.65,1.31-.88-1.04,.11-2.15,.23-3.14-.13-.97-.35-1.5-1.22-2.11-1.99-.34-.44-.73-.83-1.09-1.26-.4-.47-.78-.96-1.16-1.45-1.48-1.93-2.85-4.01-4.66-5.66-1.74-1.58-3.97-2.83-6.37-2.83-1.05,0-2.04,.27-2.97,.76-.59,.31-1.18,.73-1.65,1.23-.32,.9-.36,1.9-.34,2.84,.03,1.23,.19,2.45,.09,3.68-.08,1.04-.38,2.07-.86,2.99-.54,1.03-1.3,1.94-2.24,2.64-.13,.1-.1,.28,0,.36,.02,.06,.09,.1,.17,.07,3.72-1.58,7.67-.33,11.47,.14,3.96,.49,7.76-.5,11.62-1.27,.16-.03,.32-.06,.48-.09-.44,.38-.81,.9-1.17,1.26-.83,.83-1.98,1.36-3.15,1.41-1.23,.05-2.44-.37-3.66-.15-1,.18-1.89,.79-2.51,1.58-.74,.95-1.21,2.23-1.06,3.44,0,.07,.1,.11,.15,.06,.02,0,.04,0,.06-.02,.5-.42,.98-.8,1.6-1.02,.62-.23,1.28-.31,1.94-.34,.88-.04,1.78,0,2.67-.07-.72,1.14-1.12,2.51-1.02,3.85,0,.08,.12,.11,.15,.05,.02,0,.05,0,.07-.03,.64-.57,1.31-1.04,2.11-1.34,.81-.3,1.67-.44,2.53-.5,1.78-.12,3.59,.07,5.35-.26,1.59-.3,2.92-1.09,4.05-2.24,1.18-1.2,2.09-2.62,3.23-3.84,.65-.69,1.39-1.31,2.17-1.85,.38-.26,.76-.46,1.16-.6,.15-.25,.3-.5,.43-.76,.17-.36,.3-.74,.4-1.13Z"/>
  </g>
</svg>