<?xml version="1.0" encoding="UTF-8"?>
<svg id="Layer_2" data-name="Layer 2" xmlns="http://www.w3.org/2000/svg" viewBox="0 0 109.25 37.49">
  <defs>
    <style>
      .cls-1 {
        fill: #808080;
      }
    </style>
  </defs>
  <g id="Layer_1-2" data-name="Layer 1">
    <path class="cls-1" d="M7.02,32.47s3.99-.3,4.66-4.62c.67-4.32,.9-10.31,.4-12.87-.48-2.47-1.7-8.46-1.79-10.62,0-.08,0-.16,0-.23,0,0,1.23-1.96-1.83-2.5-3.06-.53-8.45-.07-8.45-.07C0,1.56,4.13-.44,7.25,.23c3.13,.67,7.05,1.33,9.45,2.93,2.4,1.6,5.92,4.86,8.25,6.85,2.33,2,5.66,4.39,6.12,4.39,0,0,2.06-.67,2.46-.6,0,0,4.99-4.59,11.31-6.85C51.17,4.69,63.08,.63,69.46,.23c6.39-.4,16.23-.67,22.89,2.66,6.65,3.33,9.98,6.25,11.24,7.65,1.26,1.4,4.19,4.46,4.39,6.65,.2,2.2-.07,2.66-.07,2.66,0,0,1.2,.86,1.33,1.86,0,0-2.93,.07-.4,1.33,0,0-.2,.67-2.93,3.53-2.73,2.86-5.59,7.39-11.24,8.65,0,0-3.19,1.4-7.05,1.86,0,0-16.83,.8-19.49,.13,0,0-7.19-1.66-11.18-3.26-3.99-1.6-12.11-5.06-15.24-6.45-3.13-1.4-14.44-6.99-10.31-8.25,0,0,.67-1.13-.67-.53,0,0-2.46,1.73-4.59,3.59-2.13,1.86-4.39,4.52-6.99,6.05-2.59,1.53-4.52,2.13-6.39,2.73-1.86,.6-4.39,1.53-5.76,1.36Z"/>
  </g>
</svg>