<?xml version="1.0" encoding="UTF-8"?>
<svg id="Layer_2" data-name="Layer 2" xmlns="http://www.w3.org/2000/svg" viewBox="0 0 59.41 40.03">
  <defs>
    <style>
      .cls-1 {
        fill: #808080;
      }
    </style>
  </defs>
  <g id="Layer_1-2" data-name="Layer 1">
    <path class="cls-1" d="M58.05,24.49c.1,.32,.35,.75,.22,1.09-.25,.69-1.07,.67-1.68,.61-1.45-.14-2.78-.71-3.87-1.65-.09,.06-.21,.07-.33,0-1.44-.8-2.94-1.64-4.59-1.92-.57-.1-1.15-.12-1.7-.06-.04,.18-.2,.47-.42,1.16-.07,.21-.24,.31-.44,.22-.35-.16-.71-.32-1.06-.48,.24,.57,.56,1.11,.95,1.6,.13,.16-.07,.35-.23,.35-.7,0-1.38-.13-2.02-.38,.28,.57,.49,1.17,.58,1.82,.02,.14-.15,.25-.27,.24-.57-.04-1.46-.3-1.97-.47-.1,.15-.2,.3-.3,.45-.09,.13-.18,.26-.27,.39,1.06,1.85,.33,4.23-1.6,5.12,.38,1.6-.75,3.15-2.36,3.36,.02,.19,.02,.38-.01,.57-.25,1.85-2.33,2.9-3.92,3.38-.89,.27-1.63,.1-2.31-.52-.29-.27-.58-.6-.95-.75-.38-.16-.78-.1-1.16,0-.74,.2-1.54,.53-2.3,.22-.36-.15-.65-.4-.96-.63-.27-.2-.61-.44-.94-.23-.32,.2-.53,.54-.86,.74-.3,.19-.7,.27-1.04,.15-.7-.24-1.04-.8-1.26-1.44-.48,.35-1.16,.35-1.69,0-.67-.44-.91-1.22-.97-1.99-.06-.02-.11-.04-.17-.07-1.83-.78-3.42-1.97-4.96-3.2-1.62-1.3-3.27-2.6-4.73-4.1-.7-.72-1.33-1.51-2.03-2.23-.66-.68-1.37-1.26-2.2-1.73-.93-.53-1.91-1-2.79-1.6-.24-.09-.48-.22-.69-.33C.46,22.05,0,21.88,0,21.51c0-.36,.29-.57,.64-.54,.27,.02,.56,.05,.8-.03,.15-.13,.27-.29,.29-.45,.12-.74-.73-1.24-1.36-1.25-.31,0-.46-.39-.17-.55,3.28-1.76,6.28-3.97,9.39-6,.19-1.03,.56-2.02,1.07-2.93,.06-.11,.25-.15,.36-.08,.51,.31,1.02,.62,1.53,.93,.25-.91,.62-1.94,1.51-2.36,.62-.29,1.42-.31,1.96,.1,.32-.79,.77-1.63,1.57-1.95,.63-.25,1.38-.26,1.9,.15,.95-1.32,2.28-2.76,4.03-2.36,.37-.54,.75-1.08,1.12-1.62,.29-.42,.65-1.15,1.26-1.15,.62,0,1.09,.55,1.73,.22,.6-.31,.92-.91,1.23-1.48,.09-.16,.37-.19,.5-.06,.32,.34,.64,.67,.96,1.01,.2-.3,.41-.61,.61-.91,.13-.2,.43-.19,.56,0,.43,.6,.86,1.2,1.29,1.8,.13-.17,.26-.33,.39-.5,.16-.21,.44-.2,.6,0,.82,1.01,1.63,2.02,2.45,3.03,.19-.25,.37-.51,.56-.76,.14-.18,.5-.24,.62,0,.52,1.05,1.04,2.09,1.56,3.14,.23-.25,.46-.49,.69-.73,.17-.18,.55-.1,.61,.15,.26,1.06,.51,2.12,.77,3.18,.13-.18,.27-.36,.4-.54,.19-.25,.68-.2,.68,.17,0,1.11,0,2.23,0,3.34,.04-.05,.08-.09,.12-.14,.19-.22,.52-.06,.61,.15,.71,1.55,1.42,3.09,2.14,4.64,.77,.16,1.57,.23,2.38,.18,2.08-.11,4.09-.7,6.07-1.29,.04-.01,.09-.01,.12,0,1.37-.8,2.78-1.53,4.08-2.45,.18-.13,.47-.07,.49,.18,.09,.94,.27,1.87,.55,2.77,.26,.82,.73,1.65,.73,2.53,0,1.52-1.18,2.64-1.43,4.09-.08,.46-.07,.95,.07,1.4Z"/>
  </g>
</svg>