<?xml version="1.0" encoding="UTF-8"?>
<svg id="Layer_2" data-name="Layer 2" xmlns="http://www.w3.org/2000/svg" viewBox="0 0 105.78 53.8">
  <defs>
    <style>
      .cls-1 {
        fill: #808080;
      }
    </style>
  </defs>
  <g id="Layer_1-2" data-name="Layer 1">
    <path class="cls-1" d="M43.51,12.21c-.06-.28-.15-.51-.3-.69-.08-.1-.17-.12-.28-.07-.05,.02-.09,.06-.12,.1-.03,.05-.06,.05-.09,0-.53-.85-1.14-1.66-1.82-2.4-.36-.4-.48-.79-.35-1.16,.14-.41,.32-.43,.53-.05l1.03,1.76c.08,.14,.18,.16,.3,.04l.14-.13s.04-.09,0-.13c-.6-.54-.99-1.18-1.18-1.92-.06-.26,.04-.42,.3-.49l.19-.05c.12-.03,.24,.04,.28,.16,0,.01,0,.03,0,.04,.03,.59,.24,1.07,.65,1.43,.16,.14,.23,.32,.22,.53-.03,.75,.3,1.39,1.01,1.92,.19,.14,.26,.33,.23,.56-.02,.15,.02,.3,.12,.42,.91,1.07,1.59,2.29,2.04,3.65,.06,.17,.17,.23,.34,.16l.21-.08c.15-.06,.2-.17,.12-.33-1.26-2.75-2.77-5.54-4.51-8.38-.15-.25-.11-.47,.12-.64l.17-.12c.13-.09,.31-.07,.4,.06,.01,.02,.02,.03,.03,.05,.9,2.06,2.03,3.88,3.4,5.46,.13,.15,.2,.32,.21,.52,.02,.22,0,.44-.07,.66-.06,.24,.01,.29,.21,.15,.08-.06,.16-.11,.24-.17,.11-.08,.22-.09,.35-.04,.74,.36,1.13,.91,1.17,1.66,.01,.27,.11,.31,.3,.11,.13-.14,.21-.3,.22-.48,0-.12-.05-.26-.16-.42-.26-.34-.45-.73-.57-1.15-.06-.21-.18-.26-.36-.13-.09,.06-.18,.09-.28,.11-.18,.02-.29-.05-.33-.23-.08-.33-.27-.73-.56-1.2-.89-1.42-1.77-2.78-2.61-4.07-.17-.25-.29-.5-.37-.75-.34-1.08-.15-1.19,.59-.34,.85,.99,1.52,2.1,2,3.32,.07,.19,.18,.34,.34,.47,.47,.39,.81,.87,1.02,1.44,.08,.2,.2,.24,.39,.13,.1-.06,.17-.14,.21-.26,.07-.18,.04-.34-.09-.48l-1.76-1.86c-.13-.14-.17-.3-.09-.49,.17-.42,.07-.78-.28-1.07-.7-.57-1.15-1.21-1.35-1.94-.04-.14,0-.23,.15-.27l.19-.06c.12-.03,.26,.02,.31,.14l1.03,1.97c.04,.08,.15,.12,.23,.07,.02-.01,.04-.03,.05-.04l.11-.15c.04-.06,.05-.11,.02-.17l-1.07-1.91c-.17-.31-.09-.49,.27-.53,.26-.04,.46,.06,.58,.3,.81,1.57,1.65,3.12,2.52,4.66,.06,.11,.15,.2,.26,.27,.26,.16,.38,.39,.36,.68-.02,.21,.04,.4,.17,.56,.65,.81,1.09,1.68,1.32,2.61,.02,.11,.09,.14,.2,.11l.59-.17c.16-.04,.2-.14,.12-.28l-5.2-9.01c-.07-.12-.03-.27,.09-.34,.02-.01,.05-.02,.07-.03l.17-.04c.22-.05,.39,.02,.5,.21l5.5,9.13c.06,.11,.15,.13,.26,.07l.24-.14c.11-.07,.14-.16,.07-.28l-5.51-9.14c-.1-.17-.07-.32,.09-.43l.17-.11c.1-.06,.24-.03,.3,.07,1.92,2.83,3.65,5.46,5.17,7.91,.28,.46,.51,.96,.68,1.51,.03,.09,.12,.14,.21,.12,0,0,0,0,.01,0l.19-.07c.11-.04,.15-.12,.11-.23-.89-2.4-2.23-4.05-3.4-6.16-.67-1.19-1.67-2.13-2.4-3.34-.09-.14-.05-.22,.11-.23l.34-.04c.12-.01,.24,.05,.3,.15,.41,.67,.87,1.24,1.39,1.7,.49,.44,.92,.95,1.27,1.53,1.26,2.04,2.47,4.1,3.62,6.19,.05,.1,.17,.13,.27,.08l.2-.1c.1-.05,.13-.12,.07-.23l-5.25-9.71c-.14-.27-.1-.5,.12-.7l.15-.14c.08-.08,.22-.07,.29,.01,.02,.02,.03,.04,.04,.06,.56,1.31,1.23,2.5,2.01,3.59,1.56,2.18,2.69,4.59,3.82,7.02,.05,.11,.12,.13,.23,.07l.2-.13c.1-.07,.14-.19,.09-.3-1.22-2.81-2.19-4.75-2.93-5.81-.98-1.41-1.9-2.92-2.76-4.51-.14-.25-.06-.38,.23-.39h.17c.29,0,.49,.12,.61,.38,.3,.67,.69,1.31,1.16,1.94,.44,.58,.83,1.21,1.19,1.89,.25,.47,.54,.93,.86,1.36,1.02,1.36,1.63,3.04,2.26,4.6,.08,.2,.22,.33,.42,.41l.45,.17c.17,.06,.26,0,.27-.17l.02-.33c0-.11-.04-.17-.15-.18-.17-.02-.31-.07-.42-.14-.09-.06-.17-.16-.23-.31-.25-.61-.48-1.22-.71-1.84-.25-.69-.89-1.32-.86-2.22,0-.23-.1-.35-.34-.34-.25,0-.42-.1-.5-.33-.67-1.86-1.63-3.38-2.89-4.57-.25-.24-.23-.44,.08-.61,.29-.15,.64-.2,1.06-.15,.22,.03,.34,.15,.36,.37,.04,.44,.21,.87,.52,1.29,1.08,1.46,2.02,3.01,2.81,4.67,.73,1.53,2.32,2.59,2.14,4.42-.01,.13,.08,.25,.21,.26,.02,0,.04,0,.06,0l.17-.02s.05-.02,.05-.05c.03-1.23-.3-2.31-.97-3.24-.5-.68-.95-1.43-1.34-2.23-.95-1.93-2.07-3.74-3.36-5.44-.17-.22-.11-.33,.16-.32l.85,.02c.19,0,.31,.1,.37,.28,.33,1.17,.93,2.15,1.82,2.96,.18,.17,.3,.38,.35,.63,.03,.19,.12,.37,.26,.51,.89,.98,1.8,1.97,2.73,2.95,.55,.59,1,1.67,1.34,3.27,.02,.09,.11,.15,.2,.13,0,0,.01,0,.02,0l.16-.05c.11-.03,.14-.1,.11-.21-.72-2.36-1.41-4.3-3.38-5.77-.13-.1-.21-.23-.24-.39-.02-.12,0-.18,.09-.19,.24-.03,.27-.13,.09-.3-.45-.42-.82-.9-1.11-1.42-.08-.13-.19-.2-.34-.2-.05,0-.1,0-.16-.01-.02,0-.04-.02-.06-.04l-1.26-1.69c-.12-.16-.1-.39,.05-.53l.13-.12c.16-.15,.42-.15,.57,.01,.02,.02,.03,.04,.04,.06,.83,1.29,1.8,2.39,2.9,3.3,.98,.8,1.53,1.96,2.16,3.07,.71,1.26,.97,2.9,1.85,4.27,.05,.08,.13,.13,.23,.13,.08,0,.13-.02,.18-.07,.03-.03,.04-.07,.03-.11-.51-1.73-1.07-3.32-1.66-4.75-.39-.93-.78-1.71-1.57-2.42-1.13-1-2.18-2.04-3.17-3.13-.09-.1-.08-.25,.02-.34,.03-.03,.08-.05,.12-.06,.83-.11,1.33,.18,1.49,.87,.03,.14,.11,.26,.21,.36,1.59,1.34,2.87,2.18,3.81,4.24,.74,1.65,1.45,3.32,2.11,5.02,.05,.12,.13,.16,.26,.12l.14-.05c.12-.04,.16-.13,.12-.25-.36-1.23-.79-2.38-1.31-3.46-.52-1.09-.58-2.28-1.5-3.2-1.07-1.08-2.22-2.11-3.44-3.09-.05-.04-.06-.09-.02-.15l.08-.13s.05-.04,.08-.02c1.22,.47,2.4,.94,3.54,1.4,3.35,1.34,5.91,5.86,7.59,9.61,.09,.2,.02,.28-.19,.26-3.79-.41-7.34-.32-10.65,.25-.89,.16-1.58,.24-2.06,.24-.2,0-.39,.04-.58,.11-.44,.18-.87,.22-1.31,.11-.13-.03-.24,0-.31,.11-.26,.34-.63,.46-1.11,.38-.19-.04-.38-.03-.57,.03l-6.19,1.8c-.1,.03-.2-.03-.23-.13-.01-.04,0-.09,.01-.13,.05-.1,.09-.22,.11-.37,.01-.11,0-.23-.05-.36-.3-.76-.61-1.5-.91-2.2-.09-.21-.24-.27-.45-.17l-.18,.08c-.16,.08-.2,.19-.11,.34l1.4,2.71c.09,.18,.08,.36-.05,.52-.2,.27-.51,.36-.93,.29-.19-.04-.37,0-.53,.11-1.11,.71-2.3,1.25-3.57,1.61-.13,.03-.23,.12-.3,.23l-.11,.18c-.04,.07-.12,.12-.2,.12-.9,.02-1.41,.58-2.19,.91-.63,.27-1.25,.55-1.85,.86-.31,.16-.8,.66-1.31,.77-.19,.04-.36,.12-.52,.24-1.66,1.25-3.68,2.01-5.24,2.89-.8,.46-1.57,.89-2.29,1.31-.31,.18-.52,.09-.63-.25-.35-1.13-.98-1.86-1.88-2.18-.19-.07-.34-.18-.47-.33l-1.5-1.73c-.12-.14-.2-.3-.24-.47l-.36-1.47c-.02-.1,0-.19,.08-.26,.05-.05,.11-.08,.18-.08,.1-.02,.18,.02,.23,.12,.63,1.32,1.47,2.58,2.52,3.76,.06,.06,.12,.07,.19,.03l.23-.14c.1-.06,.11-.14,.05-.23l-2.75-3.89c-.04-.07-.03-.13,.03-.18l.68-.52c.06-.05,.11-.04,.15,.03,.59,1.06,1.2,2.14,1.82,3.22,.28,.48,.56,1.14,.83,1.97,.23,.68,.52,1.35,.88,2.01,.04,.08,.13,.1,.21,.06,0,0,.01,0,.02-.01l.33-.24c.08-.05,.09-.12,.06-.2-.4-1.02-1.14-1.89-1.34-2.93-.17-.89-.63-1.69-1.38-2.39-.13-.12-.23-.26-.29-.43l-.55-1.43c-.07-.17-.02-.3,.13-.39,.04-.03,.09-.04,.15-.05,.15-.02,.28,.04,.36,.17,1.4,2.12,2.55,4.38,3.44,6.79,.06,.16,.17,.24,.34,.23,.09,0,.18-.04,.26-.11,.14-.14,.16-.29,.04-.46-.53-.75-.43-1.56-.85-2.27-.88-1.52-1.79-3.01-2.73-4.47-.05-.09-.05-.2,.01-.28l.41-.55c.08-.11,.16-.11,.23,0,.72,1.04,1.33,2.03,1.85,2.96,.4,.72,.82,1.42,1.28,2.09,.48,.7,.99,1.4,1.53,2.1,.11,.15,.23,.15,.36,.01l.12-.14c.07-.08,.08-.2,.02-.29l-4.58-7.08c-.08-.13-.06-.23,.07-.3l.17-.1c.18-.1,.41-.04,.52,.14l.71,1.21c.11,.19,.28,.33,.49,.4,.35,.11,.55,.38,.59,.8,.02,.2,.09,.38,.22,.54,.97,1.21,1.75,2.53,2.34,3.96,.06,.13,.21,.19,.34,.14,.02,0,.04-.02,.06-.04l.15-.12c.1-.08,.12-.22,.05-.33-.8-1.21-1.52-2.54-2.16-4-.23-.52-.57-.9-1.04-1.15-.18-.09-.32-.23-.42-.42l-.78-1.41c-.13-.23-.08-.42,.15-.56,.16-.09,.31-.14,.44-.14,.21,0,.32,.11,.34,.32,.05,.6,.22,.98,.75,1.34,1.01,.67,.87,1.6,1.44,2.41,.7,.99,1.34,2.09,1.92,3.32,.08,.15,.19,.19,.33,.1l.15-.08c.11-.07,.15-.22,.08-.33-.47-.78-.88-1.6-1.23-2.47-.18-.44-.42-.86-.71-1.28-.32-.45-.6-.96-.85-1.55-.11-.27-.37-.46-.76-.58-.18-.06-.3-.17-.34-.36l-.34-1.24c-.06-.19,0-.33,.2-.4,.5-.21,.9-.55,1.2-1.03,.25-.41,.56-.52,.93-.33,.17,.09,.29,.23,.36,.42l.61,1.71c.06,.18,.18,.3,.36,.37l.23,.09c.19,.08,.23,.2,.12,.36l-.09,.14c-.09,.14-.08,.27,.01,.4,.9,1.22,1.71,2.57,2.43,4.05,.05,.11,.04,.23-.02,.33-.04,.06-.08,.12-.12,.18-.04,.07-.03,.08,.04,.05l1.14-.58c.22-.11,.22-.22,0-.32-.91-.4-1.12-1.6-1.63-2.32-.36-.52-.67-1.08-.91-1.67-.07-.18-.18-.33-.34-.45-.25-.19-.35-.45-.31-.78,.03-.19-.02-.35-.15-.49-.59-.63-.87-1.38-.83-2.24,0-.21,.12-.34,.33-.39,.08-.02,.16-.01,.25,.01,.19,.06,.31,.18,.36,.36,.66,2.23,1.68,4.18,3.05,5.85,.47,.58,.84,1.27,1.09,2.07,0,.04,.03,.05,.07,.05h.26c.15,0,.27-.13,.27-.29,0-.03,0-.06-.02-.09-.38-1.01-.84-1.89-1.4-2.66-1.14-1.59-2.15-3.48-3.03-5.68-.08-.2,0-.3,.21-.31h.26c.15,0,.26,.07,.32,.2,.74,1.54,1.7,3.17,2.86,4.89,.51,.76,1.08,1.36,1.71,1.81,.08,.06,.11,.18,.05,.27-.14,.23-.21,.47-.2,.73,0,.32,.14,.4,.42,.24l.77-.45c.21-.12,.21-.24-.01-.34-.07-.04-.15-.06-.23-.07-.15-.02-.25-.09-.3-.23-.4-1.04-1.04-1.91-1.89-2.61-.15-.12-.27-.28-.34-.46-.65-1.5-1.5-2.86-2.55-4.07-.04-.04-.04-.09-.01-.14,.17-.27,.4-.52,.7-.75,.05-.03,.11-.02,.15,.02,0,0,0,0,0,.01,.64,1.27,1.4,2.46,2.29,3.57,.13,.16,.16,.34,.08,.53-.04,.09-.06,.19-.05,.28,.01,.21,.12,.29,.32,.24,.27-.06,.42-.22,.44-.49,.02-.25,.14-.31,.36-.17l.2,.13c.15,.1,.21,.06,.17-.12ZM65.78,2.7c.71,.39,1.3,1.01,1.76,1.88,.08,.16,.22,.24,.4,.23,.28,0,.5,.1,.66,.32,1.26,1.69,2.36,3.56,3.29,5.61,.03,.07,.08,.09,.15,.06l.18-.07c.09-.04,.11-.1,.08-.18-1.02-2.39-2.05-4.17-3.08-5.34-.75-.84-1.55-1.63-2.39-2.35-.44-.38-.95-.7-1.54-.96-.29-.13-.35-.06-.18,.21,.15,.24,.37,.44,.68,.6Zm2.27,2.52c-.06-.12-.21-.18-.33-.12h-.02c-.12,.07-.18,.22-.12,.34h0l2.47,5.11c.06,.12,.21,.18,.33,.12h.02c.12-.07,.18-.22,.12-.34h0s-2.47-5.11-2.47-5.11Zm-4.99,3.96c.05,.08,.11,.15,.18,.21,.06,.05,.11,.07,.17,.07,.13,0,.16-.07,.11-.18-.27-.59-.62-1.11-1.05-1.58-.21-.23-.27-.2-.19,.1,.09,.34,.25,.65,.5,.93,.05,.06,.15,.2,.28,.44Zm-15.68-1.28c-.12,.04-.22,.11-.3,.21-.11,.14-.09,.34,.03,.46l1.9,1.93s.08,.05,.12,.02l.13-.07c.09-.05,.11-.12,.06-.21-.32-.55-.7-1.02-1.15-1.41-.38-.34-.4-.56-.53-1.02-.03-.12-.1-.14-.2-.08-.06,.04-.08,.09-.07,.17Zm-12.17,5.03c-.04,.17,.04,.3,.26,.4,.1,.04,.17,.11,.2,.21,.04,.09,.04,.19,0,.3-.04,.13-.12,.17-.26,.14-.06-.02-.13,0-.21,.02-.09,.05-.14,.16-.09,.25,0,0,0,0,0,0,.4,.78,.9,1.39,1.51,1.82,.2,.14,.24,.32,.11,.53l-.15,.25c-.04,.07-.02,.1,.06,.09,.06,0,.12-.02,.17-.06,.19-.13,.3-.09,.36,.14l.14,.65c.04,.2,.13,.37,.27,.52,.4,.42,.68,.91,.85,1.47,.06,.17,.17,.23,.34,.18l.16-.05c.06-.02,.08-.07,.06-.13-.7-1.87-1.66-3.63-2.86-5.28-.05-.07-.07-.15-.07-.24,0-.06,.02-.1,.05-.14,.13-.17,.11-.31-.05-.44-.45-.34-.77-.81-.98-1.41-.06-.19-.19-.25-.38-.17-.24,.1-.42,.3-.54,.59-.11,.27-.03,.34,.22,.19,.2-.11,.41-.15,.62-.11,.17,.03,.23,.13,.18,.29Zm8.17-.09c-.28,.02-.47,.14-.57,.34-.09,.17-.05,.32,.11,.43,.86,.61,1.58,1.5,2.14,2.68,.05,.11,.17,.17,.29,.13l.2-.05c.18-.05,.23-.16,.13-.32l-1.75-2.93c-.13-.21-.31-.3-.55-.28Zm4,.74c-.3-.23-.37-.17-.2,.17l.64,1.28s.01,.02,.02,.02c.05,.02,.11,.03,.17,.03,.14,0,.2-.08,.16-.21-.16-.59-.42-1.02-.78-1.29Zm-13.97,8.38c.01,.1,.02,.2,.02,.29,0,.18,.09,.25,.26,.2,.09-.02,.17-.08,.23-.17,.11-.16,.09-.3-.05-.43l-.5-.44c-.09-.08-.13-.06-.12,.06,0,.06,.02,.11,.05,.16,.08,.17,.11,.28,.12,.33ZM52.09,3.26c-.13-.44-.34-.81-.62-1.12-.14-.15-.38-.16-.53-.02l-.14,.12c-.09,.08-.1,.17-.02,.27l1.51,1.83c.04,.06,.11,.09,.19,.08,.12,0,.21-.11,.21-.23,0-.17-.08-.3-.23-.41-.18-.13-.3-.31-.37-.53Zm3.76,20.26c-.56,.34-.95,1.07-1.16,2.18-.29,1.52-.52,3.09-.69,4.69-.08,.75-.69,1.32-1.44,1.36-.8,.04-1.25-.36-1.35-1.19-.02-.19-.1-.35-.23-.48l-.12-.12c-.13-.13-.22-.3-.25-.49l-.54-3.4c-.03-.21-.12-.4-.26-.56l-.73-.85c-.42-.49-1.16-.55-1.66-.13-.19,.17-.33,.39-.39,.64-.39,1.77-1.07,3.46-2.05,5.09-.1,.16-.15,.34-.15,.52v.5c0,.29-.14,.47-.43,.52-.14,.02-.24,.1-.3,.24-.13,.33-.33,.38-.61,.16-.78-.62-1.28-1.39-1.49-2.32-.17-.75-.38-1.37-.62-1.86-.28-.56-.76-1.03-1.46-1.42-.46-.26-1.05-.09-1.31,.37-.05,.08-.08,.17-.1,.26l-.69,3.14c-.04,.18-.21,.29-.39,.25-.03,0-.05-.02-.08-.03-.89-.47-1.49-1.21-1.78-2.2-.06-.19-.16-.36-.31-.49-.55-.46-1.12-.78-1.71-.97-.32-.1-.67-.09-1.04,.04-.17,.06-.26,.24-.2,.4,0,0,0,0,0,0,.08,.23,.1,.46,.04,.69-.3,1.26-.52,2.48-.66,3.65,0,.09-.08,.15-.17,.15h-.16s-.04-.03-.04-.04c0,0,0,0,0,0,.03-.65-.05-1.31-.23-1.97-.06-.2-.19-.3-.39-.3-.16,0-.31,.04-.46,.1l-.46,.08c-.24,.05-.44,.18-.58,.37-.93,1.37-2.09,2.23-3.48,2.56-2.73,.66-5.33,1.91-7.78,3.75-5.05,3.77-9.98,7.9-15.34,11.06-.84,.5-1.03,.32-.55-.53,1.67-3,2.97-6.27,4.12-9.56,1.4-4.02,1.01-8.24-1.18-12.68C3.55,21.69,1.92,18.69,.15,15.68c-.28-.48-.17-.62,.34-.4,1.06,.45,1.99,.89,2.81,1.32,6.13,3.23,12.03,6.73,17.72,10.49,1.04,.69,2.28,.87,3.7,.53,3.8-.91,7.45-2.27,10.96-4.06-.06,.12-.07,.21,0,.26,.16,.14,.39,.17,.59,.08,3.21-1.42,6.4-2.95,9.57-4.6,1.29-.68,2.77-1.18,4.14-1.84,.44-.21,.83-.12,1.23-.32,.3-.15,.6-.28,.88-.36,4.27-1.29,7.39-2.08,9.34-2.36,1.96-.27,3.92-.5,5.9-.68,.98-.09,1.2-.31,.65-.65,14.19-.91,26.29,3.59,36.31,13.51,.14,.14,.13,.26-.04,.37-.43,.29-.95,.5-1.32,.84-4.9,4.57-10.38,9.08-17.4,5.33-2.39-1.27-3.92-3.27-4.61-6-1.03-4.12-.44-7.93,1.77-11.44,.46-.74,.32-.89-.44-.45-4.7,2.71-6.95,7.55-6.71,12.94,.21,4.7,2.39,8.59,6.54,11.67,.48,.36,.43,.47-.15,.33-5.28-1.25-9.04-7.21-9.97-12.27-.31-1.68-.55-3.42-.72-5.21-.01-.13-.12-.22-.25-.21-.06,0-.12,.03-.16,.08-2.67,3.02-2.99,5.96-3.3,9.78-.02,.31-.29,.54-.6,.51-.08,0-.16-.03-.23-.07-1.66-.91-2.87-2.17-3.63-3.75-.56-1.18-.77-2.84-1.12-4.25-.03-.11-.14-.18-.26-.16-.02,0-.03,.01-.05,.02-.17,.09-.29,.27-.36,.52-.3,1.07-.79,2.04-1.45,2.9-.12,.16-.28,.22-.47,.16-1.56-.43-2.03-2.2-2.68-3.82-.08-.2-.2-.36-.34-.5-.13-.11-.29-.25-.47-.4Zm39.88,.84c0-1.61-1.31-2.92-2.92-2.92s-2.92,1.31-2.92,2.92,1.31,2.92,2.92,2.92h0c1.61,0,2.92-1.31,2.92-2.92h0Zm-48.41-6.41c-3.88,1.88-7.75,3.75-11.63,5.6-.06,.12-.07,.21,0,.26,.16,.14,.39,.17,.59,.08,3.21-1.42,6.4-2.95,9.57-4.6,1.29-.68,2.77-1.18,4.14-1.84,.44-.21,.83-.12,1.23-.32,.3-.15,.6-.28,.88-.36,4.27-1.29,7.39-2.08,9.34-2.36,1.96-.27,3.92-.5,5.9-.68,.98-.09,1.2-.31,.65-.65-7.98,.44-14.87,2.06-20.67,4.87Zm-22.86,1.2c-.11-.15-.3-.22-.48-.2-.32,.04-.55,.21-.69,.52,0,0,0,.02,0,.02-.07,.19,.03,.4,.22,.48,2.27,.83,4.38,3.13,6.17,4.86,.09,.09,.22,.12,.34,.09l.33-.07c.23-.05,.26-.16,.09-.32l-3.82-3.69c-.14-.14-.22-.32-.23-.52-.02-.63-.23-1.18-.61-1.66-.73-.91-.97-.8-.74,.34,.09,.47,.35,.81,.78,1.02,.05,.02,.05,.06,.02,.09l-.11,.13c-.08,.09-.16,.09-.24,.02-.36-.34-.7-.71-1.02-1.13Zm67.11,5.8c.22,.62,1,.9,1.73,.63,.73-.27,1.14-.98,.92-1.6s-1-.9-1.73-.63c-.73,.27-1.14,.98-.92,1.6Zm-36.87,.75c-.29,1.52-.52,3.09-.69,4.69-.08,.75-.69,1.32-1.44,1.36-.8,.04-1.25-.36-1.35-1.19-.02-.19-.1-.35-.23-.48l-.12-.12c-.13-.13-.22-.3-.25-.49l-.54-3.4c-.03-.21-.12-.4-.26-.56l-.73-.85c-.17-.19-.39-.33-.64-.39-.63-.14-1.26,.26-1.4,.89-.39,1.77-1.07,3.46-2.05,5.09-.1,.16-.15,.34-.15,.52v.5c0,.29-.14,.47-.43,.52-.14,.02-.24,.1-.3,.24-.13,.33-.33,.38-.61,.16-.78-.62-1.28-1.39-1.49-2.32-.17-.75-.38-1.37-.62-1.86-.28-.56-.76-1.03-1.46-1.42-.08-.05-.17-.08-.26-.1-.52-.12-1.03,.21-1.15,.73l-.69,3.14s-.02,.05-.03,.08c-.08,.16-.28,.22-.44,.14-.89-.47-1.49-1.21-1.78-2.2-.06-.19-.16-.36-.31-.49-.55-.46-1.12-.78-1.71-.97-.32-.1-.67-.09-1.04,.04,0,0,0,0,0,0-.17,.06-.25,.24-.19,.41,.08,.23,.1,.46,.04,.69-.3,1.26-.52,2.48-.66,3.65,0,.09-.08,.15-.17,.15h-.16s0-.01,0-.01c-.02,0-.03-.02-.03-.04,.03-.65-.05-1.31-.23-1.97-.06-.2-.19-.3-.39-.3-.16,0-.31,.04-.46,.1l.12,2.75s0,.07,.01,.11c.08,.34,.41,.55,.75,.48,1.67-.36,1.66-2.78,1.75-4.12,.03-.44,.11-.76,.26-.94,.25-.32,.6-.41,1.05-.28,.19,.05,.34,.17,.44,.34,.52,.93,1.6,3.15,2.49,3.65,.03,.02,.06,.03,.1,.04,.3,.1,.63-.06,.73-.36l1.07-3.19c.51-1.54,1.02-1.54,1.51,.01,.57,1.79,1.45,3.34,2.65,4.67,.05,.05,.1,.1,.17,.14,.35,.21,.81,.1,1.03-.26,1.31-2.21,2.34-4.37,3.09-6.48,.57-1.61,1.15-1.61,1.75-.02,.8,2.12,.87,6.39,3.82,6.47,.24,0,.43-.08,.58-.27,.56-.7,.9-1.46,1.03-2.29,.33-2.04,.72-4.23,1.18-6.57-.56,.34-.95,1.07-1.16,2.18Zm44.17,8.78h0c.1,.16,.3,.2,.45,.1l6.31-4.16c.15-.1,.19-.3,.09-.45h0c-.1-.16-.3-.2-.45-.1l-6.31,4.16c-.15,.1-.19,.3-.09,.45Zm-66.17,8.99c1.33-.53,2.6-1.23,3.81-2.09,.27-.2,.58-.27,.91-.21l.24,.04c.15,.03,.26,.18,.23,.33-.01,.06-.04,.12-.09,.16l-3.38,2.97c-.15,.13-.12,.18,.07,.16,.39-.05,.78-.24,1.16-.58,1.03-.91,2.16-1.69,3.37-2.33,.09-.05,.17-.03,.25,.04,.04,.04,.07,.09,.08,.15,0,.02,0,.04-.02,.05-1.14,1.1-2.27,2.21-3.41,3.32-.04,.04-.04,.07,.02,.09,.02,0,.04,.02,.05,.02,.06,.03,.11,.03,.15,0,1.3-.94,2.65-1.99,4.04-3.13,.08-.07,.2-.07,.29,0l.19,.14c.09,.07,.1,.2,.03,.28-.02,.02-.03,.03-.05,.05-1.44,.82-2.22,2.23-3.58,2.99-.02,.01-.02,.02-.01,.04l.07,.14c.05,.09,.12,.11,.22,.07,.47-.23,.89-.52,1.26-.88,.47-.45,.89-.78,1.28-.99,.58-.32,1.18-.67,1.8-1.04,.25-.15,.35-.08,.31,.2-.03,.2-.15,.39-.37,.56-.36,.28-.49,.69-.39,1.23,.05,.28,.15,.3,.3,.05,.23-.4,.54-.73,.92-1.02,.13-.09,.23-.2,.31-.34,.17-.28,.4-.39,.68-.33,.22,.05,.28,.17,.18,.37-.38,.77-.97,1.34-1.78,1.73,0,0,0,0,0,.02l.09,.15c.04,.08,.1,.1,.18,.05,1.09-.67,2.08-1.39,2.98-2.15,.18-.15,.39-.23,.63-.25,.38-.02,.43,.09,.15,.35-3.33,3.07-7.2,4.84-11.6,5.3-.32,.03-.6-.19-.64-.49-.2-1.35-.38-2.37-1.03-3.57-1.6-2.94-3.71-5.39-6.31-7.33-.24-.18-.25-.37-.05-.58,.93-.96,1.8-1.45,2.61-1.48,.8-.04,.9,.21,.3,.74l-1.28,1.12c-.42,.36-.35,.48,.18,.35,.63-.15,1.2-.49,1.73-1.02,.14-.14,.31-.22,.52-.22,.48-.01,.8,.23,.94,.73,.1,.34,0,.41-.28,.21l-.24-.17c-.15-.1-.28-.08-.39,.07l-.55,.77c-.13,.19-.09,.27,.14,.26l1.23-.07c.17,0,.32-.08,.43-.23,.21-.27,.47-.39,.81-.37,.24,.02,.42,.22,.4,.46,0,.12-.07,.24-.17,.32l-2.02,1.55c-.06,.04-.08,.07-.07,.08l.08,.14c.04,.07,.1,.08,.17,.04l2.51-1.31c.2-.11,.4-.12,.61-.04,.33,.13,.51,.4,.54,.82,0,.05-.01,.09-.05,.12-.04,.04-.09,.08-.15,.11-.09,.05-.16,.03-.21-.05-.07-.11-.15-.14-.26-.11-.94,.3-1.79,.82-2.55,1.56-.05,.05-.05,.1,0,.15h0s.09,.04,.14,0c.33-.34,.59-.58,.78-.69,.7-.42,.87-.27,.5,.47-.13,.26-.42,.61-.85,1.05-.06,.06-.06,.12,0,.18h0c.07,.07,.13,.06,.19-.01,.92-1.18,2.1-1.99,3.54-2.43,.21-.06,.33,.02,.35,.24,.01,.1,0,.2-.03,.3-.02,.09-.09,.17-.18,.24-1.01,.73-2.02,1.48-3.05,2.26-.31,.24-.28,.28,.08,.14Zm6.8,2.29c.51-.26,.87-.59,1.09-.99,.14-.26,.08-.32-.18-.19-.42,.2-.78,.52-1.09,.97-.21,.3-.15,.37,.18,.2Zm.38,.9c-.39,.09-.5,.14-.32,.14,.67-.01,1.15-.29,1.44-.84,.13-.26,.09-.29-.12-.09l-.65,.6c-.1,.09-.22,.16-.34,.19Zm13.72,3.19c.69-1.1,1.5-2.09,2.43-2.98,.08-.08,.08-.21,0-.29l-.14-.14c-.08-.08-.15-.07-.21,.01-.47,.61-1.04,1.1-1.72,1.47-.17,.09-.3,.23-.4,.39-.26,.45-.58,.82-.97,1.13-.27,.21-.34,.15-.24-.17,.36-1.07,1.12-2.01,2.28-2.82,.04-.03,.07-.07,.08-.12,.02-.11-.04-.21-.15-.23-.56-.12-1.35,.1-1.8,.52-1.98,1.82-3.12,4.15-3.42,6.99,0,.02,0,.05,0,.07,.03,.08,.12,.13,.21,.1,1.46-.43,2.92-.9,4.38-1.42,3.61-1.26,6.45-3.12,9.05-5.76,.05-.06,.07-.14,.03-.21-.08-.15-.2-.18-.34-.08-1.47,.98-2.83,1.93-4.08,2.85-.93,.68-1.05,.55-.37-.38,.15-.21,.49-.62,1.03-1.23,.06-.06,.11-.07,.17,0l.12,.12c.11,.11,.22,.1,.31-.02,.44-.6,.22-.87-.68-.8-.13,.01-.26,.07-.35,.17-.8,.84-1.47,1.5-2,1.98-1.14,1.03-1.31,.89-.49-.42,.16-.26,.61-.8,1.34-1.64,.06-.08,.06-.14-.02-.21l-.22-.18c-.08-.07-.16-.06-.22,.03-1.02,1.35-2.17,2.49-3.44,3.41-.31,.23-.37,.18-.16-.15Z"/>
  </g>
</svg>