<?xml version="1.0" encoding="UTF-8"?>
<svg id="Layer_2" data-name="Layer 2" xmlns="http://www.w3.org/2000/svg" viewBox="0 0 79.87 50.68">
  <defs>
    <style>
      .cls-1 {
        fill: #808080;
      }
    </style>
  </defs>
  <g id="Layer_1-2" data-name="Layer 1">
    <path class="cls-1" d="M15.99,.01c-.16,0-.32,0-.48,0-.05,0-.1,0-.15,0-.17,0-.34,0-.51,.01-.05,0-.09,0-.14,0-.17,0-.33,.02-.5,.03-.05,0-.1,0-.15,0-.15,.01-.3,.03-.45,.05-.07,0-.13,.01-.2,.02-.13,.02-.26,.04-.39,.06-.09,.01-.17,.02-.26,.04h0c-.65,.11-1.31,.26-1.96,.47-1.72,.55-3.37,1.34-4.83,2.41-.6,.44-1.17,.93-1.7,1.46h0s0,0,0,0c-.14,.14-.29,.29-.42,.44,0,0,0,0,0,0-.13,.15-.26,.29-.39,.45,0,0-.02,.02-.02,.03-.12,.14-.23,.28-.35,.43-.02,.02-.03,.04-.05,.06-.13,.16-.25,.33-.37,.5-.85,1.21-1.51,2.54-1.98,3.94-.17,.49-.31,.99-.43,1.5-.06,.25-.11,.49-.16,.74-.05,.28-.14,.64-.1,.92,.03,.18,.12,.35,.26,.46,.03,.02,.07,.04,.1,.06,.13,.06,.28,.08,.42,.02,.04-.02,.09-.04,.13-.06,.11-.05,.24-.03,.36-.06,0-.1,0-.19,.06-.28,0-.01,.01-.02,.03-.03,.02,0,.04,0,.06,0,.13,.06,.24,.13,.35,.22,.02,.02,.05,.03,.07,.02,0,0,.02-.01,.02-.02,.06-.1,.09-.22,.07-.33,.09,.03,.18,.05,.27,.1,.06,.03,.12,.13,.2,.1,.02,0,.04-.03,.05-.05,.07-.12,.13-.25,.17-.38,0-.03,.03-.07,.06-.08,.02,0,.03,0,.05,.02,.05,.03,.11,.07,.16,.1,.05-.16,.18-.29,.34-.36,.08,0,.12,.13,.2,.11,.02,0,.04-.02,.05-.03,.06-.07,.1-.15,.15-.23,.05-.07,.14-.14,.23-.12,.09,.02,.15,.13,.24,.13,.13-.16,.25-.33,.34-.51,.02,.06,.03,.12,.04,.18,.1-.16,.22-.34,.36-.47,.11-.11,.27-.13,.37-.25,.08-.09,.15-.21,.27-.26,.09-.04,.19-.04,.28-.07,.11-.04,.19-.12,.26-.21,.1-.11,.18-.24,.31-.31,.04-.02,.09-.04,.13-.03,.03,0,.06,.03,.08,.06,.09,.08,.18,.17,.27,.25,.07-.16,.14-.32,.28-.41,.07-.04,.15-.06,.23-.06,.01,0,.02,0,.03,0,.03,0,.05,.01,.07,.03,0,0,.02,0,.03,.02,.03,.02,.06,.05,.07,.08,.13-.12,.26-.24,.39-.37,.06-.06,.12-.12,.2-.14,.08-.02,.18,0,.21,.08,.13-.19,.31-.39,.53-.37,.1,0,.19,.06,.29,.06,.12,0,.22-.08,.3-.17,.08-.08,.16-.18,.27-.22,.11-.04,.26,0,.3,.11,.08-.13,.16-.26,.29-.34,.13-.08,.31-.08,.41,.03,.08-.18,.3-.28,.49-.22,.07,.02,.15,.06,.22,.05,.1-.01,.16-.1,.24-.16,.08-.05,.23-.05,.24,.05,.02-.03,.05-.06,.08-.08,.02-.02,.05-.03,.08-.04,0,0,.01,0,.02,0,.07-.02,.15-.02,.22,0h0s.01,0,.02,0c.16-.21,.33-.33,.58-.42,.16-.03,.31,0,.45,.08-.09,.14-.12,.3-.06,.46,.03,.08,.07,.18,0,.23-.06,0-.13-.01-.19-.02-.14,.09-.24,.25-.25,.42-.06,0-.12,.02-.18,.04h0s-.03,0-.04,.01h0s0,0,0,0c-.07,.02-.13,.05-.2,.08-.02,0-.04,.02-.06,.03-.07,.04-.14,.08-.22,.11-.01,0-.02,.01-.03,.02h0c-.23,.13-.49,.24-.7,.39-.17,.12-.32,.26-.52,.36-.14,.07-.29,.12-.44,.13-.15,.02-.3,0-.45-.02-.23-.03-.46-.05-.7-.08-.02,.05-.03,.09-.05,.14,0,0,0,.01,0,.02-.06,.15-.13,.29-.23,.41h0c-.06,.07-.13,.13-.22,.17-.18,.09-.41,.09-.56,.22-.06,.05-.11,.13-.17,.17-.08,.05-.18,.05-.28,.06-.25,0-.5,0-.74,.01,.11,.06,.17,.19,.16,.32-.01,.12-.09,.24-.18,.32-.19,.17-.48,.23-.72,.15-.03,.11-.05,.23-.04,.34-.42,.06-.86,0-1.28-.06,.09,.06,.18,.12,.23,.21,.03,.05,.04,.1,.04,.15,0,.05-.02,.1-.06,.14-.1,.1-.27,.04-.4,.06-.23,.03-.53,.18-.75,.27-.14,.06-.28,.13-.41,.21-.06,.04-.28,.24-.35,.23-.22-.02-.43-.04-.65-.06-.03,.11-.06,.23-.09,.34-.1,.01-.2,0-.3,0-.02,0-.04,0-.06,0-.09,0-.18-.02-.27-.04-.03,0-.06-.01-.09-.02-.21-.05-.4-.14-.58-.25-.03,.05-.04,.11-.04,.17,.01,.17,.17,.35,.33,.46,.11,.08,.22,.15,.34,.22,.02,.01,.04,.02,.06,.03,.11,.06,.23,.12,.35,.18h0c.39,.18,.8,.32,1.22,.41h0c.12,.03,.25,.05,.37,.07,.61,.1,1.23,.13,1.85,.11,.86-.03,1.73-.16,2.57-.08,.09,0,.19,.02,.28,.04,.11,.02,.21,.04,.32,.06,.25,.06,.56,.13,.71-.08-.06-.06-.12-.12-.17-.17,.12,0,.25-.01,.37-.02h0c1.16-.07,2.33-.19,3.33-.76,.12-.07,.24-.14,.35-.22,.06-.04,.12-.09,.18-.14,.05-.04,.09-.07,.14-.11,.08-.07,.16-.14,.24-.21,.02-.02,.04-.04,.06-.05,.09-.08,.17-.17,.25-.25,0-.01,.02-.02,.03-.03h0c.16-.16,.31-.33,.46-.5h0s.05-.05,.07-.08c.1-.11,.2-.23,.3-.34,.04-.05,.09-.09,.13-.14,.17,.12,.37,.22,.58,.29,.17,.05,.37,.09,.46,.25,.1,.16,.03,.37,.04,.55,0,.19,.17,.41,.34,.33,.11-.2,.23-.41,.42-.54,.19-.13,.47-.17,.64-.01,.17,.15,.12,.5-.11,.54,.87,.16,1.56-1.2,2.39-.9,.04,.15,.09,.3,.13,.45,.49-.52,1.11-.92,1.8-1.15-.03,.31,.06,.63,.25,.88,.43-.54,.86-1.08,1.29-1.62,.1-.12,.19-.24,.3-.36,.07,0,.14,0,.2-.01,.67-.07,1.4-.18,1.98,.17,.06,.03,.11,.07,.16,.11,.02,.02,.04,.04,.07,.06,.03,.02,.06,.05,.08,.07,.03,.03,.06,.06,.08,.08,.02,.02,.03,.03,.05,.05,.04,.04,.07,.08,.11,.12h0s.04,.04,.06,.06c.5,.56,1.01,1.12,1.48,1.71,.15,.19,.3,.39,.45,.59,.02,.02,.03,.05,.05,.07,.14,.2,.28,.4,.41,.61,.18,.29,.35,.58,.55,.85,0,0,.02,.02,.02,.02-.33-.02-.67-.03-.94,.15,.7,.45,1.49,.77,2.3,.94-.05,.19-.1,.38-.16,.57,.02,0,.04,.01,.05,.02h0s.02,0,.02,0c.12,.04,.24,.08,.36,.11,.13,.03,.26,.06,.4,.09-.06,.13,.04,.28,.15,.37,.11,.09,.25,.16,.31,.29,.01,.03,.02,.06,.02,.08-.02,.01-.04,.02-.06,.03-.94,.5-1.85,1.04-2.73,1.64-.35,.24-.69,.49-1.02,.75-.11,.09-.24,.16-.32,.27-.03,.04-.06,.08-.08,.12-.07,.16-.08,.35-.02,.52,.02,.04,.04,.09,.07,.12,.01,.01,.03,.02,.04,.02,0,.02,0,.03,0,.05,0,.01,0,.02,0,.03,0,.02,.01,.04,.02,.06,0,0,0,.02,.01,.03,.01,.03,.03,.06,.04,.08,.19,.27,1.22,.87,2.51,1.14,.04,.04,.09,.07,.15,.1-.43,.12-1.04,.19-1.89,.19-.05,0-.1,0-.15,0-.01,0-.03,0-.04,0-.04,0-.08,.01-.12,.02-.02,0-.03,0-.05,.01-.04,.01-.08,.02-.12,.04-.01,0-.03,.01-.04,.02-.03,.01-.05,.03-.08,.04-.22-.03-.44-.08-.65-.15-.44-.14-.87-.34-1.21-.66,.32,.35,.74,.58,1.17,.77,.17,.07,.35,.13,.53,.17-.04,.06-.07,.13-.08,.21-.4-.02-.8-.08-1.19-.16-.27-.05-.54-.12-.8-.19-.26-.08-.53-.16-.77-.29,.24,.15,.5,.25,.76,.35,.26,.1,.53,.18,.79,.25,.4,.11,.8,.2,1.21,.25-.2,.01-.41,.03-.61,.05-.21,.03-.42,.06-.63,.1-.2,.05-.41,.1-.59,.22,.19-.1,.4-.13,.6-.16,.21-.03,.42-.04,.62-.05,.23,0,.47,0,.7,0,.04,.04,.08,.08,.13,.11-.16,.05-.32,.11-.47,.19-.14,.07-.27,.16-.37,.28-.1,.12-.13,.29-.09,.43-.02-.15,.03-.3,.13-.4,.1-.1,.23-.17,.37-.22,.24-.09,.49-.13,.75-.16,.1,.02,.21,.03,.3,.03,.85,0,1.46,.07,1.89,.19-.05,.03-.1,.06-.15,.1-.18,.04-.36,.08-.53,.13h0c-1.02,.3-1.78,.76-1.96,.99-.07,.02-.14,.05-.19,.11-.14,.13-.17,.35-.12,.53,.04,.16,.14,.36,.26,.48,.11,.12,.28,.22,.41,.32,.29,.22,.58,.43,.88,.64,.87,.6,1.79,1.14,2.73,1.64,.24,.13,.48,.25,.72,.37-.05,.02-.09,.05-.12,.08,0,0-.01,.02-.02,.02-.03,.03-.05,.06-.08,.09,0,0,0,0,0,0-.16,.24-.24,.57-.47,.74h0s-.03,.03-.04,.03c-.08,.05-.17,.07-.24,.13-.09,.07-.14,.19-.23,.28-.16,.16-.41,.18-.63,.16-.22-.02-.45-.08-.67-.03-.22,.05-.43,.25-.39,.47,.07-.05,.15-.07,.23-.07,.04,0,.08,0,.12,.01,0,0,0,0,0,0-.05,.06-.1,.12-.14,.18-.11,.18-.2,.37-.26,.57-.02,.06-.03,.11-.05,.17h0c-.05,.21-.11,.42-.25,.58-.21,.24-.58,.32-.77,.58-.11,.16-.14,.36-.2,.54-.15,.46-.51,.81-.85,1.15-.13,.13-.27,.26-.44,.32,0,0-.01,0-.02,0h0c-.08,.02-.16,.03-.25,.04h0c-.07,0-.15,0-.22,0-.06,0-.12,0-.18,.02-.29,.05-.54,.23-.72,.47-.11-.03-.22-.05-.33-.08,.09-.37,.01-.77-.19-1.09-.03-.05-.06-.09-.09-.13-.07,.14-.15,.29-.22,.43-.57-.48-1.04-1.1-1.35-1.78-.1,.19-.19,.38-.29,.57-.08-.02-.15-.05-.22-.09-.42-.2-.77-.53-1.1-.88-.06-.06-.11-.12-.17-.18,.02,.03,.03,.07,.04,.1,0,0,0,0,0,.01,0,.03,0,.07,0,.1-.02,.15-.14,.3-.29,.36-.16,.06-.33,.03-.48-.04-.07-.03-.13-.06-.19-.1-.19-.14-.35-.33-.52-.49-.28-.26-.63-.44-1-.54,.07,.27,.07,.56,0,.84-.37-.21-.74-.42-1.11-.63-.11,.17-.21,.34-.32,.51-.29,.06-.57-.14-.83-.29-.26-.14-.65-.2-.81,.05-.02,.03-.03,.05-.04,.08-.01,.04-.02,.07-.02,.11-.12,.16-.32,.25-.52,.28-.21,.03-.42,0-.63-.04-.11-.02-.24-.05-.29-.14-.04-.06-.03-.15-.07-.21-.05-.08-.14-.11-.23-.16-.13-.07-.22-.18-.28-.32-.01-.03-.02-.05-.03-.08-.01-.04-.02-.08-.02-.12-.26,.08-.54,.05-.81-.02h0c-.1-.03-.2-.06-.3-.1-.35-.14-.69-.32-1.06-.4-.37-.08-.76-.05-1.14-.12-.22-.04-.43-.12-.64-.19-.27-.09-.55-.18-.83-.25h0c-.13-.04-.26-.07-.38-.11-.14-.04-.28-.07-.42-.05-.14,.01-.26,.08-.4,.11-.27,.07-.56,.02-.84-.01-.42-.05-.84-.04-1.26-.01-.13,0-.27-.01-.4,0-.19,.02-.37,.12-.57,.12-.07,0-.15,0-.22,0-.13,0-.26,.04-.38,.09-.19,.06-.38,.14-.57,.21,0,0,0,0,0,0h0c-.11,.04-.22,.09-.33,.13-.54,.22-.98,.62-1.36,1.08h0s0,0,0,0c-.06,.08-.13,.16-.19,.24-.04,.05-.07,.1-.11,.16,0,0,0,.01-.01,.02-.03,.05-.06,.11-.09,.16,0,0,0,0,0,0,0,0,0,0,0,0-.08,.17-.13,.35-.12,.52,0,.1,.03,.19,.08,.28,.07,0,.14,.01,.21,.02,.01-.18,.17-.32,.34-.39,.04-.01,.07-.03,.11-.04,.07-.02,.15-.04,.23-.06,.06-.02,.13-.03,.19-.06,.08-.03,.16-.07,.25-.07,.08,0,.15,.03,.23,.07,.25,.12,.49,.23,.74,.35h0c.23,.11,.45,.22,.68,.32,.48,.23,.96,.46,1.36,.81,.27,.24,.5,.52,.66,.84-.03-.15,.14-.27,.29-.26,.15,.02,.27,.12,.38,.22-.05-.07,0-.18,.07-.23,.08-.04,.18-.03,.26-.01,.19,.04,.37,.11,.54,.21,.23,.14,.43,.34,.62,.54,.05,.06,.1,.11,.15,.17,.39,.44,.76,.91,1.12,1.39,.2-.29,.64-.29,.95-.12,.18,.1,.34,.23,.5,.37-.02,0-.04,.02-.06,.02-.29,.1-.58,.2-.87,.3-.2,.07-.47,.12-.59-.06-.03-.04-.04-.08-.07-.12-.08-.08-.21-.06-.32-.05-.39,.04-.79-.15-1.02-.47-.16-.22-.23-.5-.37-.73-.14-.23-.4-.44-.67-.39-.29,.06-.45,.39-.71,.53-.35,.18-.84-.11-.85-.51,0-.03,0-.05-.02-.07-.07-.17-.36-.27-.54-.28-.21,0-.41,.06-.6,.13-.01-.33-.17-.65-.43-.86-.04-.03-.08-.06-.13-.05-.07,.02-.08,.12-.14,.17-.14,.13-.35-.16-.53-.11-.07,.02-.12,.09-.17,.15-.26,.3-.82,.25-1.01-.11-.08-.16-.1-.35-.24-.47-.07-.07-.17-.1-.26-.15-.09-.06-.15-.16-.21-.25-.18-.3-.38-.62-.35-.97,.01-.15,.07-.3,.05-.46-.01-.15-.14-.31-.29-.29-.67,.75-1.27,1.64-1.42,2.64,0,.06-.02,.13-.02,.2,0,.01,0,.03,0,.04,0,.02,0,.04,0,.06,0,.04,0,.08,0,.12,0,.03,0,.06,0,.1,0,.02,0,.03,0,.05,0,.03,0,.06,0,.09,0,.04,0,.09,0,.13,0,.02,0,.04,0,.06,0,.02,0,.05,0,.07,0,.05,0,.1,0,.15,0,.02,0,.03,0,.05,0,.02,0,.04,0,.06,0,.03,0,.05,0,.08,0,.11,.02,.23,.03,.35,0,0,0,.02,0,.02,.01,.09,.02,.19,.04,.28,0,.01,0,.02,0,.03,.01,.1,.03,.19,.05,.29,0,0,0,.02,0,.03,.47,2.78,2.09,6.94,5.72,9.41,.01,0,.03,.02,.04,.03,.2,.13,.4,.26,.61,.39,.05,.03,.1,.06,.16,.09,.23,.13,.47,.26,.71,.37,.22,.1,.44,.2,.67,.29,.07,.03,.14,.05,.21,.08,.16,.06,.33,.12,.5,.17,.08,.02,.16,.05,.24,.07,.17,.05,.35,.1,.53,.14,.07,.02,.14,.03,.21,.05,.24,.05,.47,.1,.72,.14,0,0,.02,0,.03,0,.27,.05,.54,.09,.82,.12,.02,0,.04,0,.06,0,.25,.03,.5,.05,.75,.07,.05,0,.09,0,.14,0,.23,.02,.47,.03,.71,.03,.04,0,.08,0,.12,0,2.26,.05,4.6-.26,6.69-.74,0,0,0,0,0,0,2.98-.69,5.47-1.72,6.51-2.52,1.09-.84,2-1.84,2.62-2.79,0,0,0,0,0,0,.06-.09,.12-.19,.17-.28,.02-.03,.04-.07,.06-.1,.06-.1,.11-.2,.16-.3,.02-.03,.03-.06,.05-.09,.05-.1,.09-.2,.14-.3,0-.02,.02-.05,.03-.07,.04-.09,.07-.19,.1-.28,0-.02,.01-.03,.02-.05,.03-.1,.05-.19,.07-.28,0-.02,0-.04,.01-.06,.02-.09,.03-.18,.03-.27,0-.02,0-.04,0-.05,0-.09,0-.17,0-.25,0-.01,0-.03,0-.04,0-.02,0-.04,0-.06,.05-.05,.11-.11,.15-.18,.11,.14,.32,.16,.49,.1,.17-.06,.3-.19,.42-.32,.02,.1,.03,.2,.03,.29,0,.1-.03,.2-.06,.29,.06,.02,.12,.05,.17,.07,.18-.41,.37-.81,.56-1.21,.22-.46,.46-.92,.74-1.36,.07-.11,.17-.19,.26-.26,0,0,0,0,0,0,.02-.02,.04-.03,.06-.05,.02-.02,.04-.03,.06-.05,.04-.04,.08-.08,.12-.13,.05-.08,.1-.17,.15-.26,.03,.18,.14,.36,.3,.32,.13-.03,.19-.17,.23-.29,.6-1.69,1.58-3.25,2.84-4.53,.36-.36,.74-.7,1.07-1.09,.17-.2,.33-.42,.49-.64,.82,.27,1.65,.51,2.49,.72-.08,.21-.16,.43-.24,.65-.02,.05-.04,.1-.06,.16-.02,.06-.05,.13-.07,.19-.04,.12-.08,.24-.12,.36-.01,.04-.02,.07-.03,.11-.03,.1-.06,.2-.08,.3-.01,.04-.02,.08-.03,.12-.03,.14-.06,.27-.09,.42-.32,1.8-.83,1.45-.81,2.22,0,.16,.04,.31,.1,.45-.12,.07-.21,.2-.21,.34,0,.06,.02,.13,0,.19-.03,.07-.11,.1-.17,.15-.14,.13-.08,.36-.17,.53-.02,.04-.05,.07-.08,.09,0,0-.01,0-.01,.01-.03,.02-.06,.04-.09,.06-.06,.03-.12,.06-.18,.09-.11,.05-.21,.1-.31,.16,0,0,0,0,0,0-.02,0-.03,.02-.05,.03-.08,.05-.16,.1-.24,.15-.05,.03-.11,.07-.16,.1-.08,.06-.16,.12-.24,.18-.05,.04-.09,.07-.14,.11-.08,.07-.17,.13-.25,.2-.04,.03-.07,.06-.11,.09-.27,.24-.54,.48-.81,.72-.04,.03-.07,.06-.11,.1-.09,.08-.18,.15-.27,.22-.04,.03-.08,.07-.12,.1-.13,.1-.26,.2-.4,.29-.1,.06-.19,.12-.3,.15-.16,.05-.33,.03-.5,.01-.63-.06-1.27-.11-1.9-.13-.03,0-.05,0-.08,0-.01,0-.02,.01-.04,.02,0,0-.02,0-.03,.01,0,0,0,0,0,0,0,0-.01,0-.02,0-.03,.04-.02,.08-.01,.13,.08,.45,.43,.79,.77,1.11-.06-.02-.13-.03-.2-.04,0,0,0,0-.01,0-.06-.01-.12-.02-.18-.03-.06-.01-.12-.03-.18-.04-.16-.02-.31-.04-.47-.05,0,.03,.02,.07,.03,.1h0c.07,.22,.22,.4,.38,.57,.3,.32,.64,.64,1.07,.77,.59,.17,1.23-.07,1.73-.44,.5-.36,.9-.84,1.38-1.23,.4-.33,.85-.59,1.28-.88,.69-.47,1.33-1.01,1.89-1.63,.19-.21,.38-.48,.33-.74,0-.03-.01-.06-.02-.09,.08,.03,.18-.02,.21-.1,.03-.08,0-.17-.07-.21,.08-.04,.13-.15,.16-.28,.05,0,.09,.01,.13,.01,.02,0,.04,0,.06,0,0,0,0,0,0,0,.49-.14,.79-2.26,1.36-4.07,.17-.53,.31-.98,.43-1.39,.21,.05,.43,.09,.64,.13,.26,.05,.52,.1,.78,.15-.04,.12-.08,.23-.12,.33,0,.02-.01,.04-.02,.05-.02,.05-.04,.09-.05,.13-.01,.03-.03,.07-.04,.1-.02,.05-.04,.09-.06,.14-.02,.04-.04,.08-.06,.12-.01,.02-.02,.04-.03,.07-.02,.05-.05,.09-.07,.13,0,0,0,.02-.01,.03-.03,.04-.05,.08-.07,.12,0,0-.01,.02-.02,.03-.02,.03-.05,.07-.07,.09-.41,.43-.55,1.35-.99,2.37-.44,1.02-1.01,1.39-.86,2.04,.01,.05,.03,.1,.06,.15,0,.01,.01,.03,.02,.04,.03,.05,.06,.09,.09,.13,0,0,0,0,.01,.01,.02,.03,.05,.05,.07,.07,0,0,0,0,0,0,.01,.07,.03,.16,.04,.24,0,.04,.01,.08,.02,.12,.01,.07,.02,.14,.03,.22,.04,.28,.06,.61,.04,1,0,.05,0,.1,0,.14-.01,.14-.03,.29-.05,.45-.22,1.39-.83,2.31-.95,2.55-.02,.03-.03,.06-.03,.09,0,0,0,.02,0,.02,0,.02,0,.03,0,.04,0,0,0,.02,.01,.02,0,.01,.01,.02,.02,.03,.02,.02,.04,.04,.06,.06t0,0s.07,.09,.04,.17c-.02,.05-.06,.09-.11,.11h0c-.07,.03-.16,.04-.23,.06-.02,0-.04,.01-.06,.02,0,0-.02,0-.03,.01-.03,.01-.05,.03-.07,.05,0,.03,0,.06,0,.1,0,0,0,0,0,0,.02,.31,.24,.83,.68,.83,.74,0,1.66-3.3,1.72-4,.01-.17,.03-.38,.05-.61h0s0-.03,0-.04c0-.06,0-.12,.01-.18,0-.03,0-.06,0-.09,0-.06,0-.12,0-.18,0-.02,0-.04,0-.06,0-.07,0-.15,0-.22,0-.03,0-.05,0-.08,0-.06,0-.13,0-.19,0-.01,0-.03,0-.04,0-.07,0-.14,0-.2h0c.16-.04,.29-.13,.36-.29,.28-.68,1.05-2.52,1.45-3.2,.37-.63,.25-1.64,.53-2.94,.62,.09,1.24,.17,1.86,.23-.02,.11-.04,.21-.06,.3,0,0,0,0,0,.01,0,.04-.02,.08-.03,.12,0,.03-.01,.05-.02,.08,0,.03-.02,.07-.03,.1,0,.03-.02,.06-.02,.09,0,.03-.02,.07-.03,.1-.01,.04-.02,.07-.03,.11,0,.02-.01,.03-.02,.05,0,.03-.02,.05-.03,.08,0,.01,0,.03-.01,.04-.01,.03-.02,.06-.04,.09-.2,.45-.07,.82-.01,1.8,.06,.98-.2,2.04,.01,2.71,.01,.04,.03,.07,.04,.1,.05,.09,.13,.17,.23,.22,0,.01,0,.03,0,.05,0,.02,0,.05,0,.07,0,.03,0,.06,.01,.09,0,.03,0,.06,.01,.09,0,.03,.01,.06,.02,.09,0,.03,.01,.06,.02,.1,0,.02,.01,.05,.02,.07,.02,.08,.04,.16,.06,.24,0,.03,.01,.05,.02,.08,0,0,0,0,0,0,.03,.1,.05,.21,.08,.31h0s.02,.08,.03,.12c.01,.04,.02,.08,.04,.12,.02,.05,.03,.11,.05,.16,0,.03,.02,.06,.03,.09,.02,.07,.04,.13,.07,.2,0,.02,.01,.03,.02,.05,.03,.08,.05,.15,.08,.23,0,0,0,.01,0,.02,.03,.08,.06,.15,.08,.23,0,0,0,0,0,.01,.03,.08,.06,.16,.09,.23h0c.03,.07,.06,.14,.08,.2,0,0,0,0,0,.01,.03,.07,.06,.14,.09,.2,.47,1.02,.84,2.75,1.03,3.26,.02,.06,.05,.11,.08,.15,.01,.02,.03,.04,.05,.06,.02,.02,.03,.04,.05,.05,.02,.02,.05,.04,.08,.06,.01,0,.02,.01,.03,.02,.26,.16,.64,.12,1.14-.09,.74-.31,.61-1.29,.61-1.29,0,0-.26,.14-.48,.17-.23,.03,.03-.47-.2-.38-.38-.33-1.25-3.4-1.47-4.37-.09-.4-.21-.67-.35-.86,.02-.02,.04-.04,.05-.06,.28-.38,.14-1.46,.18-2.89,.04-1.43,.01-1.12-.17-2.29-.02-.15-.04-.31-.05-.48,.79,.05,1.58,.09,2.36,.1,.01,.03,.02,.07,.03,.1,0,0,0,0,0,0,.05,.14,.09,.28,.14,.43,.02,.04,.03,.09,.05,.13,.04,.11,.08,.21,.12,.32,.02,.04,.03,.09,.05,.13,.06,.15,.12,.29,.18,.44,.83,1.93,2.17,3.61,2.55,3.84,.02,.01,.05,.03,.07,.04,0,0,.02,0,.02,0,.02,0,.03,0,.05,.01,0,0,.02,0,.02,0,.01,0,.03,0,.04,0,0,0,.02,0,.02,0,.01,0,.03,0,.04,0,0,0,.02,0,.02,0,.01,0,.02-.01,.04-.02,0,0,.02,0,.02-.01,.01,0,.02-.02,.04-.02,0,0,0,0,0,0,.02,.02,.03,.03,.05,.05,0,0,.01,.01,.02,.02,1.12,1.16,3.25,2.31,4.44,2.31,.57,0,1.72-1.12,1.87-1.34,.09-.13,.19-.52,.22-.84h0s0-.06,0-.1c0,0,0,0,0-.01,0-.03,0-.05,0-.08,0,0,0-.01,0-.02,0-.02,0-.04,0-.06,0,0,0-.02,0-.02,0-.02,0-.03,0-.05,0,0,0-.01,0-.02,0-.01,0-.03-.01-.04,0,0,0-.01,0-.02,0-.02-.01-.03-.02-.04-.13-.15-1.16,1.27-1.86,1.38-.04,0-.07,.01-.1,.02-.01,0-.03,0-.04,0-.02,0-.03,0-.04,0-.01,0-.03,0-.04,0,0,0-.02,0-.03,0-.01,0-.02,0-.03,0,0,0,0,0,0,0-.02,0-.04,0-.05,0,0,0,0,0,0,0,0,0,0,0-.01,0,0,0,0,0,0,0,0,0,0,0,0-.01-.02-.07,.15-.25,.07-.51-.04-.14-.08-.17-.15-.15h0s0,0,0,0c-.02,0-.04,.01-.06,.02,0,0-.01,0-.02,0-.02,.01-.04,.02-.07,.04-.02,.01-.05,.03-.08,.04,0,0-.02,0-.02,.01-.02,.01-.05,.02-.07,.03-.01,0-.02,0-.03,.01-.03,.01-.06,.02-.09,.03,0,0-.01,0-.02,0-.04,.01-.08,.02-.13,.03-.01,0-.02,0-.04,0-.04,0-.07,0-.11,0-.01,0-.03,0-.05,0-.05,0-.11,0-.17-.02-.06-.01-.13-.03-.21-.05-.02,0-.04-.01-.06-.02-.07-.02-.14-.05-.22-.07,0,0-.01,0-.02,0-.08-.03-.17-.07-.26-.11-.02,0-.03-.02-.05-.02-.08-.04-.17-.08-.26-.12,0,0,0,0-.01,0-.1-.05-.19-.1-.29-.15,0,0-.02,0-.02-.01-.1-.05-.19-.11-.28-.16,0,0,0,0,0,0-.1-.06-.2-.12-.29-.18,0,0,0,0,0,0-.09-.06-.18-.12-.27-.18-.1-.07-.2-.14-.29-.21-.05-.04-.1-.08-.15-.12,.22-.33-.19-.53-.78-1.26-.64-.79,.01-.75-.58-1.29-.42-.38-.96-1.37-1.36-2.1,2.23-.06,4.44-.29,6.63-.65-2.23,.31-4.47,.49-6.71,.5-.13-.24-.24-.44-.33-.58-.32-.5-.3-1.7-.58-2.49,0-.02-.01-.03-.02-.05-.01-.03-.02-.06-.04-.09,.08,0,.13-.02,.16-.08,.07-.19-.35-.52-.69-.85-.09-.08-.18-.18-.27-.28-.04-.04-.07-.08-.11-.11-.01-.01-.02-.02-.03-.03-.04-.04-.08-.08-.12-.11,0,0-.01-.01-.02-.02-.03-.03-.06-.05-.08-.07,1.16-.43,1.77-.35,1.95-.53,.03,0,.06,0,.09,0,0,0,.01,0,.02,0h0c.75,.04,1.45-.07,1.91-.26,.59,.64,1.37,.74,2.23,.74,.66,0,1.14-.24,1.49-.62,.73,.99,1.66,.97,2.07,.97,.86,0,1.38-.4,1.7-1.01,.29,.55,.72,.92,1.35,.92,.41,0,.84-.11,1.21-.56,.36,.28,1.06,.31,1.54,.29,.48-.02,1.17-.23,1.56-.65,0,0,0,.01,.01,.02,.41,.41,1.03,.13,1.63,.17,.37,.02,.72,.03,1.12-.08,0,.03,0,.06,.02,.09,.12,.41,.46,.87,.72,1.06,0,.02-.01,.04-.01,.06-.03,.11-.04,.23-.02,.34,.11,.78,1.89,3.21,2.16,3.88,.15,.37,.4,.45,.75,.26,.34,.76,2.16,1.55,3.92,.27,1.76-1.29,2.22-3.61,.84-3.91-.02,0-.05,0-.07,0,1.27-1.07,2.63-3.27,.91-5,.16-.1,.3-.2,.43-.3,.02-.02,.04-.03,.06-.05,.04-.04,.08-.07,.12-.11,.02-.02,.05-.05,.07-.07,.03-.03,.06-.07,.09-.1,.02-.03,.05-.06,.07-.09,.03-.03,.05-.07,.07-.1,.02-.03,.04-.07,.06-.1,.02-.03,.04-.06,.05-.1,.02-.03,.03-.07,.05-.1,0-.02,.02-.04,.03-.06,0-.01,0-.03,.01-.04,0-.02,.01-.05,.02-.07,0-.03,.02-.07,.02-.1,0-.02,0-.03,.01-.05,0-.01,0-.02,0-.04,0-.06,.01-.13,.01-.2,0-.08,0-.15-.02-.23,0,0,0,0,0-.01,0-.02-.01-.05-.02-.07,0-.04-.02-.09-.03-.13,0,0,0-.01,0-.02,0-.03-.02-.05-.03-.08-.01-.04-.03-.07-.04-.1,0-.01-.01-.02-.02-.03-.01-.03-.03-.05-.05-.08-.02-.03-.03-.06-.05-.09,0-.01-.02-.02-.03-.04-.02-.03-.04-.05-.06-.08-.02-.02-.03-.05-.05-.07-.01-.02-.03-.03-.04-.05-.02-.02-.04-.05-.07-.07-.02-.02-.04-.04-.06-.06-.02-.02-.04-.03-.06-.05-.02-.02-.05-.04-.08-.07-.02-.02-.04-.03-.06-.05-.02-.02-.05-.04-.08-.06-.03-.02-.05-.04-.08-.06-.02-.01-.04-.03-.05-.04-.03-.02-.07-.04-.1-.07-.03-.02-.05-.04-.08-.05-.01,0-.02-.01-.03-.02,.09-.09,.16-.17,.23-.26h0s0,0,0,0c.02-.02,.03-.04,.05-.06,0,0,0,0,0,0,0,0,0,0,0,0,.04-.05,.07-.1,.11-.15,0,0,0,0,0,0,.01-.02,.02-.03,.03-.05,0,0,0-.01,.01-.02,.04-.07,.08-.14,.11-.2,0,0,0-.01,.01-.02,.03-.07,.06-.14,.09-.21,0,0,0-.01,0-.02,.03-.07,.05-.14,.07-.21,0,0,0-.01,0-.02,.02-.07,.03-.14,.05-.21,0,0,0,0,0-.01,.01-.07,.02-.15,.03-.22,0,0,0,0,0,0,.06-.91-.37-1.81-.94-2.52,0,0,0,0,0,0,0,0,0-.01-.01-.02,0,0,0,0,0,0-.04-.05-.08-.1-.12-.14,0,0,0,0-.01-.01,0,0-.01-.02-.02-.02-.04-.04-.08-.09-.12-.13,0,0-.01-.01-.02-.02,0,0-.02-.02-.03-.03-.04-.04-.07-.08-.11-.11,0,0-.01-.01-.02-.02,0,0-.02-.02-.03-.03-.03-.03-.07-.07-.1-.1,0,0-.01-.01-.02-.02-.01-.01-.02-.02-.04-.03-.03-.03-.06-.06-.1-.08,0,0-.02-.01-.02-.02h0s.05,0,.07,0c.15-.03,.27-.09,.38-.17h0c.05-.04,.1-.08,.14-.13,0,0,0,0,0,0,.04-.05,.08-.1,.11-.15,0,0,0,0,0-.01,.03-.05,.06-.11,.08-.17,0,0,0,0,0-.01,.02-.06,.04-.13,.05-.2,0,0,0,0,0,0,.05-.28,.02-.61-.08-.95,0-.01,0-.03-.01-.04-.02-.06-.04-.12-.06-.18-.01-.04-.03-.08-.04-.11-.02-.05-.05-.1-.07-.15-.02-.05-.04-.09-.07-.14-.02-.05-.05-.09-.08-.14-.03-.05-.06-.1-.09-.15-.03-.04-.06-.09-.09-.13-.04-.05-.08-.11-.12-.16-.03-.04-.06-.08-.1-.12-.05-.05-.09-.11-.14-.16-.03-.04-.07-.07-.1-.11-.06-.06-.12-.11-.18-.17-.03-.03-.06-.06-.09-.09-.1-.08-.19-.16-.3-.24-.11-.08-.21-.15-.32-.21-.03-.02-.07-.04-.1-.05-.07-.04-.15-.08-.22-.11-.04-.02-.08-.03-.12-.05-.07-.03-.13-.05-.2-.08-.04-.01-.08-.03-.13-.04-.06-.02-.12-.04-.19-.05-.04,0-.09-.02-.13-.03-.06-.01-.12-.02-.18-.03-.04,0-.09-.01-.13-.01-.06,0-.11,0-.17-.01-.04,0-.08,0-.13,0-.05,0-.1,0-.16,0-.04,0-.08,0-.13,.01-.05,0-.1,.01-.14,.02-.04,0-.08,.01-.13,.02-.04,0-.08,.02-.13,.03-.04,.01-.08,.02-.13,.03-.04,.01-.07,.02-.1,.03-.04,.02-.09,.03-.13,.05-.02,.01-.05,.02-.07,.03-.05,.02-.1,.04-.14,.07,0,0,0,0-.01,0-.33,.18-.57,.41-.68,.64-.35-.19-.6-.11-.75,.26-.26,.66-2.04,3.1-2.16,3.88-.02,.12,0,.23,.02,.34,0,.02,0,.04,.01,.06-.26,.2-.6,.66-.72,1.06-.01,.04-.01,.06-.02,.09-.4-.11-.75-.1-1.12-.08-.57,.03-1.16-.21-1.57,.12h0s0,0,0,0c-.03,.02-.05,.04-.07,.07-.38-.43-1.08-.63-1.56-.65-.49-.02-1.19,0-1.54,.29-.36-.45-.79-.56-1.21-.56-.63,0-1.06,.37-1.35,.92-.32-.61-.84-1.01-1.7-1.01-.41,0-1.34-.02-2.07,.97-.35-.38-.83-.62-1.49-.62-.86,0-1.65,.1-2.23,.74-.42-.17-1.03-.27-1.7-.26-.02,0-.04,0-.06,0-.09,0-.17,0-.26,.01-.18-.18-.79-.1-1.95-.53,.03-.02,.06-.05,.08-.08,0,0,0,0,0,0,.04-.04,.09-.08,.13-.12,0,0,.01-.01,.02-.02,.05-.06,.11-.11,.16-.17h0c.08-.08,.16-.16,.23-.23,.34-.33,.76-.66,.69-.85-.02-.06-.08-.08-.16-.08,.01-.03,.03-.06,.04-.09,0-.02,.01-.03,.02-.05,.29-.79,.27-2,.58-2.49,.09-.13,.2-.34,.33-.58,2.24,.01,4.49,.19,6.71,.5-2.19-.36-4.41-.58-6.63-.65,.4-.74,.94-1.72,1.36-2.1,.6-.54-.06-.5,.58-1.29,.58-.73,1-.93,.78-1.26,.05-.04,.1-.08,.16-.12h0c.08-.06,.17-.13,.27-.19h0c.26-.18,.56-.37,.86-.54,0,0,0,0,.01,0,.1-.05,.2-.11,.3-.16,0,0,0,0,0,0,.09-.05,.18-.09,.26-.13,.02,0,.03-.01,.05-.02,.09-.04,.18-.08,.26-.11,0,0,.01,0,.02,0,.08-.03,.15-.05,.22-.07,.02,0,.04-.01,.06-.02,.07-.02,.14-.04,.21-.05,.06,0,.12-.01,.17-.02,.01,0,.03,0,.04,0,.04,0,.08,0,.12,0,.01,0,.02,0,.03,0,.05,0,.09,.02,.13,.03,0,0,.01,0,.02,0,.03,.01,.07,.02,.1,.03,0,0,.02,0,.03,.01,.03,.01,.05,.02,.08,.04,0,0,.01,0,.01,0,.03,.02,.06,.03,.09,.05,.02,.01,.04,.02,.06,.03,0,0,.01,0,.02,.01,.02,0,.04,.02,.05,.02,0,0,0,0,0,0h0c.07,.02,.12,0,.15-.15,.07-.26-.09-.44-.07-.51,0,0,0,0,0-.01,0,0,0,0,0,0,0,0,0,0,.01,0,0,0,0,0,0,0,.01,0,.03,0,.04,0,0,0,0,0,.02,0,0,0,.02,0,.03,0,.01,0,.02,0,.03,0,.01,0,.02,0,.03,0,.02,0,.04,0,.05,0,0,0,.02,0,.03,0,.03,0,.07,0,.11,.02,.7,.11,1.74,1.53,1.86,1.38,0,0,.02-.02,.02-.04,0,0,0-.01,0-.02,0-.01,0-.02,.01-.04,0,0,0-.01,0-.02,0-.02,0-.03,0-.05,0,0,0-.02,0-.02,0-.02,0-.04,0-.06,0,0,0-.01,0-.02,0-.02,0-.05,0-.08,0,0,0,0,0-.01,0-.03,0-.06,0-.09,0,0,0,0,0,0-.04-.32-.13-.71-.22-.84-.15-.22-1.3-1.34-1.87-1.34-1.19,0-3.32,1.15-4.44,2.31,0,0-.01,.01-.02,.02-.02,.02-.03,.03-.05,.05,0,0,0,0,0,0-.01,0-.02-.02-.04-.02,0,0-.02,0-.02-.01-.01,0-.02-.01-.04-.02,0,0-.02,0-.02,0-.01,0-.02,0-.04,0,0,0-.02,0-.02,0-.01,0-.03,0-.04,0,0,0-.02,0-.02,0-.02,0-.03,0-.05,.01,0,0-.02,0-.02,0-.02,0-.05,.02-.07,.04-.38,.23-1.72,1.91-2.55,3.84-.06,.14-.12,.29-.18,.44-.02,.04-.03,.09-.05,.13-.04,.11-.08,.21-.12,.32-.02,.04-.03,.09-.05,.13-.05,.14-.1,.29-.15,.43,0,0,0,0,0,0-.01,.03-.02,.07-.03,.1-.79,.01-1.58,.05-2.36,.1,.01-.17,.03-.33,.05-.48,.18-1.17,.21-.86,.17-2.29-.04-1.43,.1-2.51-.18-2.89-.01-.02-.03-.04-.05-.06,.14-.19,.26-.47,.35-.86,.23-.96,1.09-4.04,1.47-4.37,.23,.09-.03-.41,.2-.38,.23,.03,.48,.17,.48,.17,0,0,.13-.98-.61-1.29-.5-.21-.88-.25-1.14-.09-.01,0-.02,.01-.03,.02-.03,.02-.05,.04-.07,.06-.02,.02-.03,.04-.05,.05-.02,.02-.03,.04-.05,.06-.03,.05-.06,.1-.08,.15-.2,.51-.57,2.24-1.03,3.26-.03,.06-.06,.13-.09,.2,0,0,0,0,0,.01-.06,.14-.12,.28-.17,.44,0,0,0,0,0,.01-.03,.08-.06,.15-.08,.23,0,0,0,.01,0,.02-.03,.08-.05,.15-.08,.23,0,.02-.01,.03-.02,.05-.02,.07-.04,.13-.07,.2,0,.03-.02,.06-.03,.09-.02,.05-.03,.11-.05,.16-.01,.04-.02,.08-.04,.12-.01,.04-.02,.08-.03,.12h0c-.03,.11-.06,.21-.08,.31,0,0,0,0,0,0,0,.03-.01,.05-.02,.07-.02,.08-.04,.16-.06,.24,0,.02-.01,.05-.02,.07,0,.03-.01,.07-.02,.1,0,.03-.01,.06-.02,.09,0,.03,0,.06-.01,.09,0,.03,0,.06-.01,.09,0,.02,0,.05,0,.07,0,.01,0,.03,0,.05-.07,.04-.12,.09-.17,.14h0s0,0,0,0c-.02,.02-.04,.05-.05,.08-.02,.03-.03,.06-.04,.1-.21,.67,.04,1.73-.01,2.71-.06,.98-.18,1.35,.01,1.8,.01,.02,.02,.06,.04,.09,0,.01,0,.02,.01,.04,0,.02,.02,.05,.03,.08,0,.02,.01,.03,.02,.05,.01,.03,.02,.07,.03,.11,0,.03,.02,.06,.03,.1,0,.03,.02,.06,.02,.09,0,.03,.02,.07,.03,.1,0,.02,.01,.05,.02,.08,0,.04,.02,.08,.03,.12,0,0,0,.01,0,.02,.02,.09,.04,.19,.06,.3-.62,.06-1.24,.14-1.86,.23-.28-1.3-.16-2.31-.53-2.94-.4-.68-1.17-2.52-1.45-3.2-.07-.16-.2-.25-.36-.28h0c0-.07,0-.14,0-.21,0-.01,0-.03,0-.04,0-.06,0-.12,0-.19,0-.03,0-.05,0-.08,0-.07,0-.15,0-.22,0-.02,0-.04,0-.06,0-.06,0-.12,0-.18,0-.03,0-.06,0-.09,0-.06,0-.12-.01-.18,0-.01,0-.03,0-.04h0c-.02-.23-.03-.44-.05-.61-.06-.69-.98-4-1.72-4-.44,0-.66,.52-.68,.83,0,0,0,0,0,0,0,.04,0,.07,0,.1,.02,.02,.04,.04,.07,.05,0,0,.02,0,.03,.01,.02,0,.04,.01,.06,.02,.08,.02,.16,.03,.23,.06h0s.09,.05,.11,.11c.03,.08,0,.12-.04,.17h0s-.04,.04-.06,.06c0,.01-.02,.02-.02,.03,0,0,0,.02-.01,.02,0,.01,0,.03,0,.04,0,0,0,.02,0,.02,0,.03,.01,.05,.03,.09,.13,.24,.73,1.16,.95,2.55,.03,.16,.04,.31,.05,.45,0,.05,0,.1,0,.14,.02,.39,0,.72-.04,1,0,.08-.02,.15-.03,.22,0,.04-.01,.08-.02,.12-.02,.09-.03,.17-.04,.24,0,0,0,0,0,0-.02,.02-.05,.05-.07,.08,0,0,0,0,0,.01-.04,.04-.07,.09-.1,.14,0,.01-.01,.03-.02,.04-.03,.05-.05,.1-.06,.16-.14,.65,.43,1.02,.86,2.04,.44,1.02,.58,1.94,.99,2.37,.02,.02,.05,.05,.07,.09,0,0,.01,.02,.02,.03,.02,.03,.05,.07,.07,.12,0,0,0,.02,.01,.03,.02,.04,.05,.09,.07,.13,.01,.02,.02,.04,.03,.07,.02,.04,.04,.08,.06,.12,.02,.04,.04,.09,.06,.14,.01,.03,.03,.06,.04,.1,.02,.04,.04,.09,.05,.13,0,.02,.01,.04,.02,.05,.04,.11,.08,.22,.12,.33-.26,.05-.52,.09-.78,.15-.21,.04-.43,.09-.64,.13-.12-.41-.27-.86-.43-1.39-.57-1.81-.87-3.93-1.36-4.07,0,0,0,0,0,0-.02,0-.04,0-.06,0-.04,0-.09,0-.13,.01-.03-.13-.08-.24-.16-.28,.06-.05,.11-.13,.07-.21-.03-.08-.13-.12-.21-.1,.01-.03,.02-.06,.02-.09,.05-.26-.14-.53-.33-.74-.57-.61-1.2-1.16-1.89-1.63-.43-.29-.88-.55-1.28-.88-.48-.39-.88-.87-1.38-1.23-.5-.36-1.14-.61-1.73-.44-.43,.12-.76,.44-1.07,.77-.16,.17-.31,.35-.38,.57h0s-.02,.06-.03,.1c.16-.01,.31-.03,.47-.05,.06,0,.12-.02,.18-.04,.06-.01,.12-.02,.18-.03,0,0,0,0,.01,0,.06-.02,.13-.03,.2-.04-.33,.31-.69,.66-.77,1.11,0,.04-.01,.09,.01,.13,0,0,.01,0,.02,0,0,0,0,0,0,0,0,0,.02,0,.03,.01,.01,0,.02,.01,.04,.02,.02,0,.05,0,.08,0,.64-.02,1.27-.06,1.9-.13,.17-.02,.34-.04,.5,.01,.11,.03,.21,.09,.3,.15,.14,.09,.27,.19,.4,.29,.04,.03,.08,.07,.12,.1,.09,.07,.18,.14,.27,.22,.04,.03,.07,.06,.11,.1,.27,.24,.54,.49,.81,.72,.04,.03,.07,.06,.11,.09,.08,.07,.16,.14,.25,.2,.05,.04,.09,.07,.14,.11,.08,.06,.16,.12,.24,.18,.05,.04,.1,.07,.16,.1,.08,.05,.16,.1,.24,.15,.02,0,.03,.02,.05,.03,0,0,0,0,0,0,.1,.06,.2,.11,.31,.16,.06,.03,.13,.05,.18,.09,.03,.02,.06,.04,.09,.06,0,0,.01,0,.02,.01,.03,.03,.06,.06,.08,.09,.09,.16,.03,.4,.17,.53,.05,.05,.14,.08,.17,.15,.03,.06,0,.12,0,.19,0,.14,.09,.26,.21,.34-.06,.14-.1,.29-.1,.45-.02,.78,.49,.42,.81,2.22,.03,.14,.06,.28,.09,.42,.01,.04,.02,.08,.03,.12,.03,.1,.05,.2,.08,.3,.01,.04,.02,.07,.03,.11,.04,.12,.08,.24,.12,.36,.02,.06,.04,.13,.07,.19,.02,.05,.04,.1,.06,.16,.08,.22,.16,.43,.24,.65-1.05,.27-2.1,.58-3.12,.94-.09-.15-.18-.3-.27-.46-.57-1-1.76-1.54-2.3-2.55-.14-.27-.24-.56-.4-.81-.18-.28-.43-.5-.68-.73-.12-.11-.23-.21-.35-.33,0,0,0,0,0,0-.55-.53-1.04-1.11-1.3-1.82-.19,0-.34,.17-.36,.35h0c-.4-.44-.74-.92-1.12-1.38-.18-.21-.37-.42-.56-.62,0,0,0,0,0,0h0s-.09-.09-.14-.14h0s0,0,0,0c-.19-.2-.39-.39-.6-.58,0-.01,.02-.02,.03-.04,.03-.06,.04-.12,.04-.18,0-.06,0-.13-.02-.19-.07-.44-.22-.86-.36-1.28-.16-.45-.62-.88-1.4-1.65h0c-.26-.26-.56-.55-.89-.9-.04-.04-.08-.08-.13-.12-.04-.03-.08-.07-.13-.11,0,0-.01-.01-.02-.02,0,0,0,0,0,0-1.19-.97-4.47-2.6-8.37-3.13h0c-.41-.05-.82-.1-1.23-.13-.13,0-.25-.01-.38-.02-.08,0-.16-.01-.25-.01Zm13.01,21.77c.22-.17,.44-.34,.67-.5,.45-.33,.92-.63,1.39-.93,.2-.12,.39-.26,.6-.37,.23-.13,.46-.26,.68-.39,.26,.24,.51,.49,.74,.76,0,.1,0,.2,0,.31,.29,.07,.6,.04,.86,.15-.68,.25-1.17,.44-1.57,.57-.17,.05-.32,.09-.46,.12,0,0,0,0,0,0-.07,.01-.14,.02-.2,.03,0,0-.01,0-.02,0-.07,0-.13,.01-.2,.01h0c-.07,0-.13,0-.2,0,0,0,0,0,0,0-.06,0-.13-.01-.19-.03,0,0-.02,0-.02,0-.06-.01-.13-.03-.19-.04,0,0-.02,0-.03,0-.07-.02-.14-.04-.21-.07-.08,.15,.06,.29,.25,.46-.02,0-.04,0-.06,0-.03,0-.06,0-.09,0-.02,0-.03,0-.05,0h0c-.71,.08-1.51,.2-1.91,.08,.06-.06,.14-.12,.21-.17Zm2.65,7.75c-.11-.07-.22-.13-.33-.2-.47-.29-.94-.59-1.4-.91-.23-.16-.45-.32-.67-.49-.11-.08-.22-.17-.33-.25-.05-.04-.1-.07-.15-.11,.44-.14,1.36,.02,2.12,.1-.19,.17-.33,.31-.25,.46,.05-.02,.11-.04,.16-.05,.02,0,.03,0,.04-.01,.04-.01,.07-.02,.11-.03,.02,0,.03,0,.05-.01,.04,0,.07-.02,.11-.02,.01,0,.02,0,.03,0,.05,0,.09-.01,.14-.02,0,0,.01,0,.02,0,.04,0,.08,0,.12,0h.04s.07,0,.1,0c.01,0,.03,0,.04,0,.04,0,.08,0,.12,.01,0,0,.01,0,.02,0,.05,0,.1,.01,.15,.02,.01,0,.02,0,.04,0,.04,0,.08,.02,.12,.03,.02,0,.03,0,.05,.01,.04,0,.08,.02,.11,.03,.02,0,.03,0,.05,.01,.05,.01,.1,.03,.15,.05,0,0,.02,0,.03,0,.05,.02,.11,.04,.17,.06,.02,0,.05,.02,.08,.03,.04,.01,.08,.03,.12,.04,.03,.01,.06,.02,.09,.03,.04,.01,.08,.03,.12,.04,.03,.01,.07,.02,.1,.04,.07,.03,.14,.05,.21,.08,.08,.03,.15,.06,.24,.09,.02,0,.04,.01,.05,.02h0c.26,.1,.55,.2,.88,.32-.09,.28-.14,.58-.33,.81-.17,.21-.44,.33-.6,.55-.05,.08-.1,.16-.15,.24l-.06-.03c-.59-.28-1.16-.63-1.73-.95Zm6.43,2.94c.11-.17,.22-.34,.32-.51h0s0,0,0-.01c.16-.26,.31-.52,.46-.78,.15-.26,.29-.52,.44-.77,.02-.04,.04-.08,.06-.12,.18,.03,.36,.07,.53,.1,.03,0,.06,.01,.08,.01,.18,.03,.36,.06,.54,.08,0,0,0,0,0,0,0,.02,0,.04,0,.07,0,.05,0,.09-.01,.14,0,.01,0,.02,0,.03-.01,.12-.02,.25-.03,.36,0,0,0,0,0,0h0c0,.05,0,.11-.01,.16-.02,.25,.15,.29,.42,.28-.02,.12-.03,.24-.05,.36h0c-.03,.18-.08,.36-.12,.53-.07,.27-.16,.53-.25,.78-.8-.22-1.58-.47-2.36-.74Zm4.59,1.3c-.2-.05-.41-.09-.61-.14,.12-.41,.21-.78,.27-1.15h0s0,0,0,0c.04-.2,.06-.41,.08-.62,0-.02,0-.03,0-.05,0-.02,0-.04,0-.06,.22,.07,.38,.09,.45-.08,.05-.12,.02-.29-.05-.49,0,0,0,0,0,0,0,0,0,0,0-.01-.03-.09-.07-.18-.11-.27,0,0,0,0,0,0-.03-.06-.06-.13-.09-.19,.33,.02,.66,.03,.98,.04,0,.09,0,.18,0,.27,0,.02,0,.04,0,.05,0,.04,0,.09,0,.13h0c0,.07-.01,.13-.03,.2-.06,.32,.13,.42,.39,.44-.01,.1-.02,.21-.04,.32h0c-.04,.27-.09,.55-.16,.83h0c-.08,.34-.17,.66-.26,.97-.27-.05-.54-.11-.82-.17Zm2.1,.4c.2-.79,.35-1.33,.43-1.82h0c.02-.1,.03-.2,.04-.3,0,0,0-.01,0-.02,0-.06,0-.12,.01-.18,.13,0,.23,0,.31-.06,.1-.07,.07-.28-.02-.59h0s0,0,0,0c-.04-.14-.1-.31-.18-.49,.33-.02,.64-.04,.94-.07,0,.02,0,.04,0,.06h0c-.02,.16-.02,.36-.01,.55,0,0,0,0,0,0h0c.02,.27,.08,.53,.22,.67,.09,.08,.14,.1,.22,.08,0,.11,.01,.22,.02,.33h0c0,.21,0,.42,0,.62h0c0,.17-.01,.33-.02,.49,0,.02,0,.04,0,.07,0,.07-.01,.14-.02,.21,0,.02,0,.04,0,.06-.02,.22-.05,.42-.08,.61,0,.02,0,.03,0,.05-.62-.08-1.23-.17-1.84-.27,0,0,0,0,0,0Zm3.23,.42c-.04-.89,.04-1.96,.02-2.87,.17,.02,.26,.04,.3-.11,.06-.21-.14-.73-.39-1.1-.01-.02-.03-.04-.05-.06,0,0-.01-.01-.02-.02,.19-.03,.37-.07,.54-.1,.05,.08,.1,.16,.15,.23,.03,.05,.07,.1,.1,.15h0c.04,.06,.08,.12,.12,.18h0c.15,.23,.28,.46,.43,.78,.19,.41,.32,.34,.5,.2,0,.02,0,.04,0,.06,0,.05,0,.1,.02,.15,0,.01,0,.02,0,.03,.02,.2,.06,.44,.11,.7h0s0,0,0,0c.02,.12,.05,.25,.08,.38,0,0,0,0,0,0,.06,.26,.12,.54,.2,.84,0,.03,.01,.05,.02,.08,.03,.12,.07,.24,.1,.36,0,.03,.02,.06,.03,.09,.02,.06,.03,.11,.05,.17-.78-.03-1.55-.08-2.32-.15Zm2.32-19.83c-.02,.06-.03,.11-.05,.17,0,.03-.02,.06-.03,.09-.04,.12-.07,.24-.1,.36,0,.02-.01,.05-.02,.07-.08,.29-.14,.58-.2,.84,0,0,0,0,0,0-.03,.13-.05,.26-.08,.39,0,0,0,0,0,0h0c-.05,.26-.08,.5-.11,.7,0,0,0,.02,0,.03,0,.05-.01,.1-.02,.15,0,.02,0,.04,0,.06-.17-.15-.31-.21-.5,.2-.15,.32-.28,.55-.43,.78h0c-.04,.06-.07,.11-.11,.17,0,0-.01,.02-.02,.02-.01,.02-.02,.03-.03,.05-.07,.1-.14,.21-.21,.33-.07-.01-.13-.03-.2-.04-.01,0-.02,0-.03,0-.1-.02-.2-.04-.3-.06,0,0,.01-.01,.02-.02,.02-.02,.03-.04,.05-.06,.25-.37,.45-.89,.39-1.1-.05-.15-.13-.13-.3-.11,.02-.91-.06-1.98-.02-2.87,.77-.07,1.55-.12,2.32-.15Zm-3.72,.3s0,.04,0,.05c.03,.19,.06,.39,.08,.61,0,.02,0,.04,0,.06,0,.07,.01,.14,.02,.21,0,.02,0,.04,0,.07,.01,.16,.02,.32,.02,.49h0c0,.2,0,.41,0,.62h0c0,.11-.01,.22-.02,.33-.07-.02-.13,0-.22,.08-.14,.14-.2,.4-.22,.67h0s0,0,0,0c-.01,.19,0,.38,.01,.55h0s0,.04,0,.06c-.3-.03-.61-.05-.94-.07,.07-.18,.13-.34,.18-.49,0,0,0,0,0,0h0c.09-.3,.12-.52,.02-.59-.08-.06-.18-.07-.31-.06,0-.06,0-.12-.01-.18,0,0,0-.01,0-.02,0-.1-.02-.2-.04-.3h0c-.08-.5-.23-1.04-.43-1.83,0,0,0,0,0,0,.61-.1,1.22-.19,1.84-.27Zm-3.94,.67c.27-.06,.54-.11,.82-.17,.1,.31,.19,.64,.26,.97h0c.06,.28,.12,.55,.16,.83h0c.02,.11,.02,.21,.04,.32-.26,.02-.44,.11-.39,.44,.01,.07,.02,.13,.03,.2h0s0,.09,0,.13c0,.02,0,.04,0,.05,0,.1,0,.19,0,.27-.24,0-.48,.01-.72,.02h0s-.02,0-.04,0c-.07,0-.15,0-.23,.01,.03-.07,.06-.13,.09-.19,0,0,0,0,0,0,.04-.1,.08-.19,.11-.27,0,0,0,0,0-.01,0,0,0,0,0,0,.07-.2,.1-.37,.05-.49-.07-.17-.23-.15-.45-.08,0-.02,0-.04,0-.06,0-.02,0-.03,0-.05-.02-.21-.05-.42-.08-.62h0c-.06-.37-.16-.74-.27-1.15,.2-.05,.41-.1,.61-.14Zm-1.97,1.34c.05,.17,.09,.35,.12,.53h0c.02,.12,.04,.24,.05,.36-.26,0-.44,.04-.42,.28,0,.05,0,.1,.01,.16h0s0,0,0,0c.01,.12,.02,.24,.03,.36,0,0,0,.02,0,.03,0,.05,0,.09,.01,.14,0,.02,0,.04,0,.07,0,0,0,0,0,0-.03,0-.06,0-.09,.01-.06,0-.12,.02-.18,.03-.16,.02-.32,.05-.48,.08-.04,0-.08,.01-.12,.02-.19,.04-.39,.07-.58,.11-.05,.01-.11,.02-.16,.04-.04,0-.07,.01-.11,.02-.12-.21-.26-.42-.42-.64-.22-.29-.41-.58-.6-.86h0c-.12-.19-.24-.37-.35-.56,.99-.37,2-.69,3.02-.98,.09,.26,.18,.52,.25,.78Z"/>
  </g>
</svg>