<?xml version="1.0" encoding="UTF-8"?>
<svg id="Layer_2" data-name="Layer 2" xmlns="http://www.w3.org/2000/svg" viewBox="0 0 164.56 59.26">
  <defs>
    <style>
      .cls-1 {
        fill: #808080;
      }
    </style>
  </defs>
  <g id="Layer_1-2" data-name="Layer 1">
    <path class="cls-1" d="M.46,14.42c-.91-1.31-.45-2.13,1.14-2.2,1.16-.05,2.35,.14,3.5,.36,1.09,.2,2.15,.58,3.22,.88v-.02s.03,0,.06-.01c-.02,0-.03,.02-.05,.03,3.33,1.59,6.61,3.29,9.99,4.75,3.8,1.64,7.87,1.09,11.83,.87,7.12-.39,14.24-.98,21.35-1.52,3.14-.24,6.27-.53,9.41-.82,.24-.02,.47-.19,.71-.29-.13-.23-.2-.52-.39-.69-1.39-1.28-2.84-2.49-4.19-3.81-1.21-1.18-1.21-1.54-.02-2.77,1.21-1.25,2.62-2.32,3.77-3.62,.61-.68,1.23-1.68,1.22-2.53-.02-1.52,.7-2.32,1.83-3.01l-.02-.02c.46,.42,.86,.94,1.39,1.23,5.86,3.23,10.46,7.92,14.85,12.84,.87,.98,1.69,1.48,3.02,1.45,7.56-.21,15.13-.22,22.69-.55,9.11-.4,18.22-.17,27.28,.63,7.75,.69,15.36,2.36,22.64,5.27,1.82,.73,3.65,1.43,5.41,2.29,.92,.45,1.82,1.1,2.5,1.86,.52,.58,1.09,1.59,.92,2.22-.67,2.42-.9,5.13-3.33,6.68-1.06,.67-2.12,1.39-3.26,1.91-5.22,2.39-10.46,4.73-15.71,7.04-.95,.42-1.99,.63-2.98,.97-2.04,.69-4.06,1.42-6.11,2.07-.52,.17-1.13,.27-1.65,.15-1.87-.42-3.57-.39-5.11,1.02-.51,.47-1.63,.99-1.1-.71,.03-.1-.7-.65-1.07-.64-3.42,.1-6.84,.29-10.25,.44-.77,.03-1.57,.12-2.3-.03-1.55-.33-3.03-.51-4.49,.33-.31,.18-.79,.25-1.14,.15-2.11,1.9-4.28,4.52-4.28,4.52h0c-1.19,1.71-2.43,3.38-3.73,5-.98,1.22-2.35,1.93-3.89,2.29,0,0,.01-.01,.02-.02-.38,.16-.75,.35-1.14,.46-3.04,.85-4.96,.29-5.76-1.76-1.27-3.23-.85-5.59,2.01-7.51,.37-.25,.79-.45,1.23-.62l1.51-1.43c-1.64-.02-3.27-.08-4.88-.3-4.13-.57-8.25-1.4-12.3-2.4-4.03-.99-4.43-.85-5.75,3.04-.58,1.71-1.38,3.37-2.28,4.94-1.27,2.22-2.88,2.39-4.78,.73-1.05-.92-2.18-1.77-3.18-2.74-2.08-2.01-4.68-2.92-7.38-3.73-1.53-.46-3.06-1.02-4.46-1.77-1.94-1.04-1.89-1.61-.24-3,.96-.81,1.84-1.72,2.64-2.68,.73-.87,.63-1.63-.6-2.07-1.45-.51-2.88-1.1-4.32-1.66-4.05-1.57-8.08-3.17-12.15-4.68-2.91-1.08-5.95-1.64-9.06-1.3-1.07,.11-2.2,.55-3.11,1.13-2.18,1.39-4.25,2.97-6.37,4.44-2.3,1.6-4.53,3.32-6.96,4.68-1.21,.68-2.78,.84-4.2,.95-1.26,.09-1.41-.43-.79-1.57,1.76-3.24,3.5-6.48,5.25-9.73,.98-.52,1.99-1,2.92-1.59,1.57-1,1.62-2.39-.01-3.23C5.44,22.69,3.2,18.34,.46,14.42Z"/>
  </g>
</svg>