<?xml version="1.0" encoding="UTF-8"?>
<svg id="Layer_2" data-name="Layer 2" xmlns="http://www.w3.org/2000/svg" viewBox="0 0 66.69 54.53">
  <defs>
    <style>
      .cls-1 {
        fill: #808080;
      }
    </style>
  </defs>
  <g id="Layer_1-2" data-name="Layer 1">
    <path class="cls-1" d="M66.63,35.79c-.18-.55-.63-.95-.94-1.43-.17-.25-.3-.52-.43-.79-.13-.27-.25-.54-.39-.81,0,0,0,0,.01,0,.34-.26,.27-.85,.19-1.2-.09-.36-.29-.7-.47-1.02-.05-.08-.1-.17-.15-.25,.02-.01,.04-.02,.06-.04,.34-.26,.22-.88,.08-1.22-.17-.38-.46-.68-.73-.99-.03-.03-.05-.06-.08-.09,.21,0,.4-.09,.45-.33,.06-.27-.07-.58-.19-.81-.17-.32-.39-.6-.64-.86-.3-.33-.63-.63-.96-.93-.07-.06-.14-.13-.21-.19,.38-.08,.77-.24,.99-.58,.35-.52,.25-1.13-.17-1.58-.07-.08-.15-.15-.23-.22,.39-.44,.58-.99,.2-1.56-.09-.14-.23-.31-.39-.44,.08-.11,.16-.22,.22-.34,.24-.42,.43-.91,.3-1.4-.01-.04-.03-.09-.04-.13,.07-.09,.14-.18,.2-.28,.28-.44,.47-.96,.33-1.49-.04-.13-.1-.27-.19-.37,.19-.3,.38-.6,.55-.91,.29-.53,.8-1.5,.29-2.05-.16-.18-.36-.24-.56-.22,.12-.35,.22-.71,.29-1.06,.09-.42,.07-.89-.02-1.32,0-.03-.01-.06-.02-.09,.18-.42,.33-.86,.4-1.31,.07-.47,.14-1.19-.18-1.58-.31-.38-.76-.05-1.02,.21-.54,.56-.97,1.26-1.35,1.93-.82,1.44-1.34,3.05-2.28,4.42-.9,1.3-2.01,2.43-2.91,3.74-.45,.66-.89,1.36-1.41,1.98-.05,.06-.1,.11-.15,.17-.35,.39-.73,.74-1.18,1.02-.86,.54-1.83,.8-2.8,.74,.02-.05,.03-.1,.05-.15,.09-.29,.14-.58,.16-.88,0-.08,0-.16,0-.24,0-.33-.05-.66-.15-.98-.02-.07-.04-.14-.07-.21-.07-.2-.16-.4-.27-.58-.09-.16-.19-.3-.3-.44-.05-.06-.1-.12-.16-.19-.28-.31-.61-.58-.95-.83,0,0,0,0,0,0-.1-.07-.19-.14-.29-.2-.24-.16-.48-.31-.71-.45-.15-.09-.3-.19-.45-.28-.09-.06-.18-.12-.27-.17h0c-.46-.29-.91-.59-1.37-.9-.09-.06-.18-.12-.27-.18-.35-.23-.7-.46-1.05-.69-.03-.02-.06-.04-.09-.06-.07-.05-.14-.09-.21-.14-.35-.22-.7-.44-1.05-.66-.1-.06-.2-.12-.31-.18h0c-.06-.04-.12-.07-.19-.11-.28-.16-.56-.32-.84-.47-.09-.05-.17-.09-.26-.14-.24-.13-.47-.27-.7-.41-.15-.1-.3-.2-.44-.31-.07-.06-.14-.11-.21-.17-.25-.21-.49-.42-.74-.63h0c-.07-.06-.14-.11-.21-.17-.02-.01-.03-.03-.05-.04-.25-.2-.51-.38-.77-.56-.08-.06-.16-.11-.25-.16-.2-.13-.41-.26-.61-.39-.16-.1-.32-.19-.48-.28-.1-.06-.2-.12-.3-.17-.35-.2-.7-.38-1.05-.58-.08-.05-.17-.09-.25-.14-.31-.18-.62-.36-.92-.56-.06-.04-.13-.08-.19-.13-.09-.06-.18-.13-.27-.19-.27-.2-.52-.41-.77-.64-.01-.01-.03-.02-.04-.03-.07-.06-.14-.13-.22-.19-.14-.12-.27-.24-.39-.37-.21-.23-.37-.51-.39-.83,0,0,0,0,0,0,0-.08,0-.16,0-.24,.02-.26,.11-.51,.2-.74,.04-.09,.08-.18,.12-.27,.03-.06,.06-.12,.09-.17,.03-.06,.07-.11,.1-.17h0c.5-.75,1.27-1.31,2.03-1.77,.06-.04,.13-.08,.19-.11,.05-.03,.11-.06,.16-.09,.11-.06,.21-.12,.32-.19,.05-.03,.11-.06,.16-.09h0c.31-.18,.63-.35,.95-.51,.23-.11,.46-.21,.7-.31h0c.18-.07,.37-.14,.55-.21,.16-.06,.33-.13,.49-.19,.26-.11,.51-.23,.74-.39,.11-.08,.08-.23-.03-.29C39.15,0,38.54,0,38.02,0c-.72,.02-1.43,.08-2.13,.22-1.45,.27-2.79,.86-4.1,1.52-1.31,.66-2.62,1.35-3.84,2.18-1.15,.79-2.18,1.76-3.17,2.73-.51,.5-1,1.03-1.42,1.62-.2,.28-.38,.56-.54,.86-1.41,.29-2.81,.68-4.2,1.07-.89,.25-1.79,.5-2.69,.71-.93,.22-1.87,.34-2.8,.52-1.65,.31-3.27,.85-4.67,1.81-.69,.47-1.33,1.01-1.98,1.55-.68,.56-1.38,1.09-2.09,1.6-1.21,.87-2.55,1.71-3.54,2.84-.39,.45-.75,.99-.83,1.6-.07,.55,.11,1.07,.37,1.55,.29,.53,.68,1.05,1.18,1.4,.13,.09,.26,.16,.39,.21,.16,.48,.43,.93,.73,1.35,.69,.97,1.59,1.77,2.47,2.57,0,0,.01,.01,.02,.02,.02,.02,.04,.04,.07,.06,.01,.01,.03,.03,.04,.04,0,0,.01,.01,.02,.02,.28,.25,.55,.51,.82,.78,.06,.06,.11,.11,.17,.17,1.79,1.8,3.36,3.82,4.81,5.91,.46,.66,.9,1.33,1.45,1.92,.55,.6,1.15,1.14,1.77,1.66,1.12,.96,2.51,1.29,3.92,1.62,.27,.06,.54,.12,.81,.17,.04,.33,.09,.65,.15,.97,.12,.68,.24,1.36,.38,2.04,.27,1.25,.73,2.45,1.31,3.58,.56,1.09,1.23,2.12,2.01,3.08,.79,.97,1.68,1.9,2.66,2.69,.57,.45,1.19,.81,1.81,1.18,.49,.29,1.07,.8,1.68,.73,.08,0,.12-.07,.13-.15,0-.16-.05-.3-.14-.43,.08-.02,.15-.06,.21-.13,.17-.2,.08-.46-.08-.69,.23-.03,.39-.16,.38-.48,0-.16-.05-.31-.13-.46-.07-.15-.17-.29-.27-.41,.54,.18,1.09,.35,1.65,.47,.31,.07,.91,.25,1.17-.03,.07-.07,.09-.16,.08-.24,.18-.04,.35-.13,.45-.3,.18-.31-.02-.66-.23-.9-.05-.06-.11-.12-.17-.18,0-.02,.02-.04,.03-.06,.13-.38,.03-.79-.2-1.11-.04-.05-.08-.1-.12-.15,.07-.21,.05-.43-.02-.64-.18-.5-.64-.91-1.06-1.22-.05-.04-.1-.07-.16-.11-.05-.09-.11-.19-.17-.28-.22-.33-.51-.6-.83-.84-.65-.48-1.34-.88-2.04-1.27-.7-.4-1.4-.79-2.05-1.27-.69-.52-1.26-1.14-1.77-1.84-.27-.37-.53-.74-.78-1.12,.1,0,.21,.02,.32,.03,.8,.07,1.59,.14,2.38,.25,.81,.11,1.63,.23,2.45,.28,1.67,.09,3.32-.22,4.96-.53,.33-.06,.66-.11,1-.17,.03,.02,.06,.04,.09,.05,.38,.21,.86,.34,1.29,.4,.96,.13,1.84-.21,2.7-.58,.79-.34,1.57-.71,2.3-1.17,.37-.23,.73-.49,1.07-.77,.36-.3,.69-.62,1.05-.92,.37-.3,.74-.59,1.11-.89,.37-.31,.71-.64,1.06-.95,.7-.63,1.42-1.23,2.07-1.91,1.32-1.38,2.58-2.84,3.68-4.39,.57-.81,1.16-1.67,1.33-2.66,.08-.45,.06-.92-.08-1.36-.03-.1-.07-.2-.12-.29,.46-.26,.97-.45,1.49-.52,.65-.08,1.26,.09,1.84,.38,.2,.1,.41,.21,.6,.33,.08,.05,.16,.09,.24,.14,.35,.21,.69,.43,1.02,.65,.62,.41,1.21,.86,1.76,1.35,1.09,.96,2.03,2.07,2.86,3.26,.94,1.34,1.69,2.79,2.58,4.16,.35,.53,.73,1.06,1.15,1.54,.25,.28,.62,.65,1.04,.52,.48-.15,.59-.74,.46-1.16ZM6.54,20.2h-.01c.3-.12,.52-.41,.52-.75,0-.44-.36-.81-.81-.81s-.8,.36-.8,.81c0,.02,0,.04,0,.06-.08-.16-.12-.34-.12-.54,0-.68,.55-1.23,1.23-1.23s1.23,.55,1.23,1.23-.55,1.23-1.23,1.23Z"/>
  </g>
</svg>