<?xml version="1.0" encoding="UTF-8"?>
<svg id="Layer_2" data-name="Layer 2" xmlns="http://www.w3.org/2000/svg" viewBox="0 0 90.84 36.98">
  <defs>
    <style>
      .cls-1 {
        fill: #808080;
      }
    </style>
  </defs>
  <g id="Layer_1-2" data-name="Layer 1">
    <path class="cls-1" d="M90.84,20.73c-.11,.06-.22,.18-.33,.18-1.04,.08-2.09,.16-3.14,.2-.97,.03-1.94,.02-2.9,.02-3.93-.01-7.84,.22-11.7,1-.05,.01-.11,0-.16,.03-.21,.09-.41,.19-.61,.28,.2,.04,.39,.1,.6,.13,1.48,.24,2.97,.48,4.46,.71,.56,.09,1.12,.15,1.68,.24,.27,.04,.69-.08,.68,.34,0,.14-.43,.35-.68,.39-.66,.13-1.34,.13-1.99,.28-1.47,.32-2.94,.64-4.37,1.07-.96,.29-1.87,.78-2.8,1.18l.02,.02-.03-.02h0c-.79,.27-1.58,.52-2.36,.82-.89,.35-1.77,.74-2.66,1.12h0c-.95,.16-1.91,.31-2.86,.48-.42,.08-.82,.24-1.24,.29-.64,.07-1.28,.1-1.93,.11-1.9,.04-3.8,.06-5.7,.17-1.71,.11-3.44,.04-5.16,.05-1.12,0-2.25,0-3.37,0-.24,0-.48,0-.73,0,.08-.24-.06-.25-.25-.28-3.33-.4-6.66-.78-9.99-1.23-.63-.08-.97,.18-1.29,.59-.91,1.14-1.94,2.16-3.17,2.96-.58,.38-1.22,.68-1.85,.98-.16,.08-.4,0-.6-.02,.03-.22,0-.49,.11-.65,.36-.5,.78-.96,1.16-1.45,1.18-1.53,.55-3.34-1.35-3.79-.8-.19-1.63-.26-2.45-.39-.15-.03-.3-.11-.45-.15-.48-.15-.97-.3-1.45-.45-.37-.11-.75-.22-1.11-.35-.67-.24-1.34-.36-2.04-.09-.55,.21-1.14,.33-1.69,.54-.47,.17-.84,.07-1.16-.28-.47-.52-.95-1.03-1.42-1.55-.45-.51-.89-.9-1.68-.94-.66-.03-1.29-.46-1.94-.71-.08-.03-.15-.07-.22-.1q-1.11-.47-1.56,.64c-.64,1.57-1.2,3.17-1.94,4.69-1.36,2.8-2.84,5.56-4.83,7.98-.37,.44-.85,.81-1.34,1.12-.19,.12-.65,.07-.79-.09-.14-.15-.15-.59-.03-.81,1.32-2.55,1.89-5.37,2.86-8.04,.43-1.18,.72-2.42,1.07-3.63h0s0-.01,0-.02c0,0,0,.01,.01,.02,.41-1.24,.84-2.47,1.23-3.72,.07-.21,.01-.48-.06-.7C3.8,15.2,2.28,10.48,.74,5.76c-.17-.53-.5-1.01-.68-1.54-.09-.27-.1-.67,.05-.87,.25-.34,.66-.19,.94,.04,.51,.43,1.04,.86,1.44,1.38,.66,.84,1.22,1.76,1.83,2.64,.15,.22,.32,.43,.47,.64h0c.12,.26,.2,.55,.36,.8,1.7,2.76,2.86,5.76,4.02,8.76,.36,.92,.36,.92,1.4,.77,1.46-.21,2.92-.42,4.38-.62,1.18-.16,2.22-.64,3.08-1.45,.45-.42,.87-.46,1.39-.22,.12,.06,.26,.09,.36,.17,.97,.73,2.06,.67,3.15,.43,.29-.06,.65-.22,.81-.45,.53-.75,1.4-.82,2.11-1.21,.37-.2,.81-.25,1.22-.38h0s.02-.01,.03-.01c0,0,0,0-.01,0,.51-.03,1.05,.04,1.53-.1,1.59-.48,3.22-.65,4.87-.79,.67-.06,1.33-.24,2-.38,.46-.1,.91-.25,1.38-.32,.66-.09,1.32-.11,1.98-.2,.6-.08,1.28-.08,1.78-.37,.73-.42,1.55-.21,2.29-.54,.47-.21,1.03-.29,1.55-.32,1.27-.08,2.28-.85,3.45-1.19,.63-.18,1.19-.63,1.78-.95,0,0,0,0,0,0,.21-.03,.41-.06,.62-.1,.25-.05,.51-.1,.75-.17,.22-.07,.44-.23,.66-.23,.42-.02,.69-.22,.96-.51,.14-.16,.37-.29,.58-.32,.38-.06,.64-.19,.78-.58,.08-.21,.27-.38,.42-.56,.13-.16,.37-.31,.39-.49,.05-.47,.33-.73,.6-1.07,.18-.22,.16-.72,.05-1.03-.11-.32-.08-.44,.19-.63,.64-.46,.72-.91,.54-1.68-.15-.63-.23-1.29-.26-1.93-.01-.34,.28-.16,.39-.05,.56,.57,1.19,1.11,1.64,1.76,1.35,1.97,2.02,4.2,2.19,6.58,.09,1.18,.13,2.36,.15,3.54,0,.52,.16,.77,.72,.85,.74,.11,1.46,.33,2.19,.51h0c1.81,1.27,3.63,2.53,5.43,3.82,.48,.34,.88,.78,1.35,1.14,.29,.22,.65,.36,.98,.53h0c.99,.89,2.25,1.02,3.47,1.07,4.08,.17,8.17,.25,12.25,.39,1.26,.04,2.52,.16,3.78,.26,.12,0,.23,.1,.34,.15Z"/>
  </g>
</svg>