<?xml version="1.0" encoding="UTF-8"?>
<svg id="Layer_2" data-name="Layer 2" xmlns="http://www.w3.org/2000/svg" viewBox="0 0 171.22 47.09">
  <defs>
    <style>
      .cls-1 {
        fill: #808080;
      }
    </style>
  </defs>
  <g id="Layer_1-2" data-name="Layer 1">
    <path class="cls-1" d="M0,17.12c-.14-1.5,1.99-3.78,3.5-3.71,1.3,.06,2.6,.14,3.89,.31,2.33,.31,4.63,.11,6.94-.14,4.41-.48,8.57-1.95,12.77-3.23,3.68-1.12,7.43-1.9,11.27-2.21,4.2-.35,8.4-.75,12.61-1.04,2.98-.21,5.97-.26,8.96-.44,10.2-.6,20.41-.42,30.62-.34,3.76,.03,7.52,.32,11.27,.56,2.35,.15,4.69,.43,7.03,.63,.45,.04,.92,.03,1.36-.06,3.21-.67,6.15-1.96,8.91-3.73,1.3-.84,2.65-1.61,4-2.36,2.06-1.15,4.24-1.64,6.61-1.19,2.53,.49,4.89,1.33,6.78,3.18,.27,.27,.53,.56,.75,.88,1.98,2.86,3.42,5.91,3.27,9.5-.02,.52-.11,1.05-.21,1.56-.1,.48-.04,.77,.53,.71,2.48-.25,4.94-.4,7.01-2.15,2.22-1.88,4.59-3.6,6.96-5.31,4.08-2.95,8.64-4.53,13.72-4.4,1.07,.03,1.09,.02,.95,1.06-.6,4.32-1.84,8.45-3.84,12.34-.66,1.28-1.38,2.53-2.11,3.77-.29,.49-.27,.77,.25,1.09,.47,.29,.89,.71,1.22,1.16,1.33,1.86,2.73,3.68,3.9,5.64,1.41,2.38,2.42,4.93,2.28,7.79-.05,1.08-.11,1.13-1.23,1.25-4.64,.52-8.92-.79-13.08-2.63-2.64-1.17-5.18-2.56-7.46-4.36-.82-.65-1.57-1.41-2.29-2.18-.49-.51-.98-.85-1.73-.84-1.22,.02-2.45-.11-3.67-.03-.78,.05-.8,.2-.24,.76,1.7,1.68,1.7,3.69,1.38,5.88-.59,3.99-4.36,7.03-7.04,7.48-1.84,.31-3.56-.21-5.25-.83-2.73-1.01-5.11-2.67-7.63-4.07-.58-.32-1.16-.67-1.74-.99-.9-.49-1.78-.63-2.83-.32-1.2,.35-2.48,.43-3.73,.6-1.84,.25-3.67,.48-5.51,.7-1.18,.14-2.37,.29-3.56,.34-2.81,.11-5.62,.16-8.44,.25-.25,0-.5,.12-.75,.18,.19,.14,.37,.31,.57,.43,.97,.58,1.93,1.16,2.92,1.7,.75,.41,1.16,.94,1.16,1.84,0,1.1-.06,2.17-.49,3.21-.6,1.46-1.33,1.88-2.87,1.68-2.28-.3-4.21-1.33-5.95-2.77-2.03-1.68-4.06-3.36-6.08-5.06-1.41-1.18-2.98-1.65-4.85-1.7-2.77-.07-5.52-.45-8.28-.74-1.99-.2-3.98-.42-5.96-.7-3.13-.44-6.25-.95-9.37-1.42-1.66-.25-3.33-.46-5-.68,.89,.84,1.87,1.6,2.63,2.54,1.21,1.52,1.68,3.39,2,5.27,.1,.59-.18,.82-.75,.86-3.26,.2-6.34-.37-9.06-2.23-1.66-1.13-2.76-2.79-3.72-4.53-.66-1.2-1.12-2.53-2.24-3.42-.4-.32-.87-.65-1.35-.75-2.4-.5-4.83-.9-7.24-1.39-1.27-.26-2.53-.61-3.79-.92-2.21-.55-4.44-1.05-6.63-1.67-2.43-.69-4.82-1.5-7.23-2.25-2.79-.87-5.49-1.93-8.1-3.25-1.41-.71-2.88-1.3-4.28-2.02-1.08-.56-2-1.32-2.3-2.6-.04-.17-.11-.34-.13-.51Z"/>
  </g>
</svg>