<?xml version="1.0" encoding="UTF-8"?>
<svg id="Layer_2" data-name="Layer 2" xmlns="http://www.w3.org/2000/svg" viewBox="0 0 102.64 32.45">
  <defs>
    <style>
      .cls-1 {
        fill: #808080;
        fill-rule: evenodd;
      }
    </style>
  </defs>
  <g id="Layer_1-2" data-name="Layer 1">
    <path class="cls-1" d="M.01,11.48s15.63,2.67,18.28,4.92c2.65,2.24,6.75-.42,7.58-.82,.84-.4,3.68-1.33,3.7-1.65,.02-.31-.27-2.24,.41-2.56,.68-.32,.94-.12,2.23,.13,1.29,.25,2.24,.17,3.18-.17,.94-.34,7.03-2.55,7.44-2.68s-.07-.34,.22-.62c.29-.28,1.06-3.23,.75-4.62-.3-1.39,1.09-3.1,1.89-3.28,.8-.17,2.62-.53,5.75,1.7,3.13,2.23,6.3,2.81,9.05,2.26,2.75-.56,13.5-1.41,18.12-.65,4.62,.76,11.45,2.13,13.93,2.38,2.48,.25,9.33,1.71,9.92,2.82,.59,1.11-.65,1.69-.55,2.11,.09,.42-.15,1.31-.67,2-.51,.69-1.38,1.54-4.12,2.53-2.74,1-5.16,2.01-6.16,2.27-1,.26-6.84,1.41-9.53,1.2-2.69-.21-6.19-.46-6.64-.31-.45,.14-6.21,3.47-7.73,3.81-1.52,.33-2.42,.04-2.8-.31-.39-.36,.21-2.07,3.12-3.28,0,0-6.34-.16-12.11,.88-5.77,1.04-5.94,.9-7.26,1.5-1.32,.6-2.19,1.49-3.42,.48-1.24-1.01-2.48-1.84-3.71-1.84-1.23,0-6.85,.13-7.56,.33-.71,.2-2.25,1.6-3.12,2.09-.86,.5-1.09,.68-1.79,.08-.7-.6-.44-1.4-1.59-1.64,0,0,0-.22,.26-.41,0,0-3.95,.29-5.03,1.01-1.08,.72-1.38,1.95-1.63,2.8-.25,.86-1.52,5.46-2.49,6.27-.97,.81-1.69,2.14-2.61,2.25-.92,.11-1.36-4-1.23-4.88,.13-.88,.72-4.59-2.14-6.54-2.86-1.95-9.79-7.6-10.75-8.17C.26,12.29-.07,12.04,.01,11.48H.01Z"/>
  </g>
</svg>