<?xml version="1.0" encoding="UTF-8"?>
<svg id="Layer_2" data-name="Layer 2" xmlns="http://www.w3.org/2000/svg" viewBox="0 0 223.6 43.75">
  <defs>
    <style>
      .cls-1 {
        fill: #808080;
      }
    </style>
  </defs>
  <g id="Layer_1-2" data-name="Layer 1">
    <path class="cls-1" d="M222.02,31.9c-2.58,.82-9.8,.47-15.12-2.05-5.32-2.51-12.41-6.56-14.95-8.6-2.54-2.04-4.05-2.85-7.63-4.45-3.58-1.6-4.34-1.55-7.05-3.36-2.71-1.81-5.36-3.69-7.19-4.24-1.82-.55-2.28-.34-1.83,.28,.44,.63,.83,1.75-.41,.97-1.23-.78-3.32-2.61-5.13-3.1-1.81-.49-2.39-.61-2.31,.36,.08,.96-.91-.07-2.11-.65-1.2-.58-2.53-1.07-3.44-.65-.91,.42-1.85,.15-2.55-.3-.69-.45-2.84-1.72-3.17-.76-.34,.96-1.6,.47-2.48,.11-.89-.36-2.93-1.43-2.86-.54,.07,.89-.32,1.09-1.36,.42-1.04-.67-2.53-1.28-2.96-.52-.44,.76-.89,.52-2.62,.15-1.73-.38-3.94-1.22-4.18-.49-.23,.73-.1,1.61-1.93,.99-1.83-.62-4.14-1.17-4.62-.68-.48,.49-.78,.81-1.63,.67-.86-.15-2.01-.39-2.39-.15-.38,.23-1.07,.69-2.14,.57-1.06-.11-3.53-.78-4.19-.6-.67,.17-.73,.66-2.11,.32-1.37-.34-3.88-1.27-4.34-.23-.46,1.04-1.26,1.31-2.22,.9-.97-.41-2.3-.97-2.72-.48-.41,.48-1.44,1.47-2.03,1.29-.59-.19-2.81-.68-2.95,.25-.14,.92-1.24,1.86-3.15,1.67-1.91-.19-3.51-.71-3.26,.02,.25,.73,1.06,3.24-2.85,2.25-3.91-1-5.33-1.19-8.58-5.14-3.25-3.95-5.12-5.74-6.98-5.59-1.85,.15-2.2,1.52-2.72,3.96-.53,2.44-1.02,5.09-5.51,7.1-4.49,2.01-4.94,3.54-5.94,4.32-.99,.78-1.76,1.66-5.15,1.28-3.39-.38-10.67-.23-21.19-5.38C23.54,6.64,17.32,5.93,10.47,2.95,3.61-.02-.17-1.1,0,1.37c.17,2.47,.95,4.79,3.67,7.15,2.73,2.36,4.62,4.29,5.76,5.37,1.14,1.08,.63,2.27,2.65,3.2,2.02,.94,1.7,1.13,3.44,2.46,1.73,1.33,1.22,1.13,3.01,1.97,1.8,.83,1.78,.7,2.85,1.78,1.07,1.09,.85,.98,2.28,1.73,1.44,.75,4.11,2.29,3.44,3.36-.67,1.08-2.3,4.04-2,5.52,.3,1.48,2.65,2.3,6.78,1.59,4.13-.71,7.56-2.35,11.14-4.36,3.58-2.01,4.81-3.94,7.19-4.72,2.38-.78,5.96-1.89,8.4-1.43,2.43,.46,2.12,.66,1.35,1.12-.76,.46-1.69,1.23-1.48,1.68,.21,.45,.57,.54,.26,1.21-.31,.67-.83,.89-.74,1.5,.09,.61,.7,.93,.38,2.03-.32,1.09-2.57,4.08-.16,2.6,2.41-1.48,5.15-4.48,10.61-6.92,5.46-2.44,10.13-4.13,12.97-4.22,2.84-.09,3.93-.67,5.53,.26,1.6,.93,.98,1.38,2.56,3.08,1.58,1.7,2.49,3.51,4.33,3.29,1.84-.21,2.64-.89,2.71-.42,.07,.47-.29,.81,1.5-.16,1.8-.97,1.78-1.52,3.64-2.09,1.86-.56,2.15-.47,2.81-2.03,.66-1.56-.88-2.99,3.07-2.63,3.95,.36,4.48,2.02,6.85,1.58,2.37-.43,2.57-.47,4.26,.11,1.69,.57,1.42,.61,3.06,.5,1.65-.12,.8-.68,2.56-.05,1.77,.63,.72,.58,2.54,.72,1.83,.13,2.43-.03,3.27,.47,.84,.5,.08,.54,2.31,.55,2.22,0,2.38-.37,3.43,.13,1.05,.5,.95,1.21-.52,2.06-1.47,.85-4.42,1.1-3.46,1.44,.96,.34,2.35,.82,7.47,.65,5.12-.16,8.4,.86,11.32,.41,0,0,3.46-.53,6.85,1.17,3.39,1.7,6.16,3.43,8.4,3.08,2.24-.35,3.06-.4,3.7,.12,.64,.53,.81,1.2,1.84,1.11,1.03-.09,1.64-.18,2.56,.37,.92,.55,1.3,.77,2.44,.53,1.14-.25,1.22-.65,2.38-.36,1.16,.3,1.18,.43,2.73,.12s2.58-.4,3.54-.06c.96,.34,3.02,.65,4.6,.54,1.58-.1,2.9-.1,4.67,.11,.87,.1,2.53,.4,4.61,.53,0,0,0,0,0,0,.87,.06,.16,1.76-1.33,3.89-1.5,2.13,2.06-1.18,2.73-2.04,.68-.86-.67,.86-1.52,2.32-.85,1.46,2.43-1.68,2.84-2.21,.41-.53,.08,.51-.7,2.24-.77,1.73,2.68-2.58,3.05-3.18,.38-.6,1.45-1.26,2.18-1.56,0,0,0,0,0,0,.07-.02,.13-.03,.19-.04,5.22-1.29,10.89-2.37,13.96-4.1,3.07-1.72,3.79-3.36,1.21-2.55Zm-22.28,.09c-.62,1.2-2.42,1.5-4.02,.67-1.6-.83-2.4-2.47-1.78-3.66,.62-1.2,2.42-1.5,4.02-.67,1.6,.83,2.4,2.47,1.78,3.66Zm-1.45-.7c-.2,.6-.77,.95-1.27,.79-.5-.17-.75-.79-.56-1.39,.2-.6,.77-.95,1.27-.79,.5,.17,.75,.79,.56,1.39Z"/>
  </g>
</svg>