<?xml version="1.0" encoding="UTF-8"?>
<svg id="Layer_2" data-name="Layer 2" xmlns="http://www.w3.org/2000/svg" viewBox="0 0 61.94 58.71">
  <defs>
    <style>
      .cls-1 {
        fill: #808080;
      }
    </style>
  </defs>
  <g id="Layer_1-2" data-name="Layer 1">
    <path class="cls-1" d="M60.64,14.94c-2.98,7.84-9.4,16.54-15.98,21.65-1.38,1.07-2.95,2.03-4.57,2.87,.42,8.68-4.96,18.16-5.01,18.26-.04,.07-.12,.12-.21,.12h-.02c-.08,0-.16-.04-.2-.1-.03-.04-.64-.84-1.05-2-.04-.05-.06-.11-.06-.17-.04-.11-.07-.22-.1-.34-.2-.73-.93-1.83-1.72-2.81-.04-.03-.07-.07-.09-.11-.65-.79-1.32-1.49-1.78-1.82-.33-.24-.56-.53-.76-.85-.02-.02-.04-.05-.05-.08-.16-.27-.29-.56-.43-.87-.27-.61-.59-1.29-1.17-2.09-.52-.71-.73-1.37-.62-1.97,.03-.17,.09-.31,.15-.44-1.64,.36-7.48,2.16-7.75,5.15-.3,3.31-2.92,8.99-3.03,9.23-.04,.09-.13,.14-.23,.14-.03,0-.06,0-.08-.01-.37-.12-.77-.39-1.16-.75,0,0,0,0,0,0-.58-.53-1.17-1.26-1.71-2.05-.02-.02-.04-.05-.06-.08-1.26-1.85-2.29-3.97-2.47-4.43-.16-.39-.54-.9-1.06-1.42-.02-.01-.04-.02-.05-.04-.01-.01-.02-.03-.03-.04-.99-.98-2.44-1.96-3.7-2.22-.38-.07-.8-.25-1.24-.48-.07,0-.14-.04-.18-.1,0,0,0,0,0,0-1.89-1.06-4.01-3.12-4.12-3.23-.06-.06-.08-.13-.07-.21,.02-.08,.07-.14,.14-.18,.22-.1,5.43-2.53,9.17-2.75,3.58-.21,4.18-1.2,5-4.99,.06-.27,.12-.58,.19-.94,.15-.76,.35-1.71,.61-2.81-.87-1.54-4.4-4.12-7.24-3.79-1.44,.17-2.92-.52-4.13-1.34-.05-.01-.1-.05-.13-.09-1.39-.96-2.38-2.07-2.45-2.15-.08-.09-.08-.22,0-.31,1.51-1.73,3.14-3.22,4.81-4.51,.03-.05,.08-.09,.15-.11,3.92-2.99,8-4.83,11.15-5.93,4.48-1.57,8-1.98,8.6-2.05,1.33-1.38,2.82-2.72,4.49-4.01C35.55,3.69,41.13,1.23,46.95,.35c4.65-.7,8.18-.17,9.51,.03,.22,.03,.39,.06,.49,.07,.58,.06,1.3-.09,2-.22,1.04-.21,1.94-.39,2.42,.08,.8,.78,.14,3.48-.66,4.99-.53,.99-.46,2.41-.34,3.09,.36-.38,.92-.81,1.14-.96,.07-.05,.17-.06,.26-.03,.08,.03,.14,.11,.15,.2,.25,2.32-1.21,7.14-1.27,7.35Z"/>
  </g>
</svg>