<?xml version="1.0" encoding="UTF-8"?>
<svg id="Layer_2" data-name="Layer 2" xmlns="http://www.w3.org/2000/svg" viewBox="0 0 113.34 61.69">
  <defs>
    <style>
      .cls-1 {
        fill: #808080;
      }
    </style>
  </defs>
  <g id="Layer_1-2" data-name="Layer 1">
    <path class="cls-1" d="M39.27,50.13c-4.36,4.13-10.09,6.46-15.8,8.28-6.54,2.08-13.37,3.61-20.23,3.23-.68-.04-1.59-.38-1.44-1.05,.05-.24,.25-.42,.45-.58,2.03-1.57,4.93-1.68,6.86-3.36,.85-.74,1.45-1.73,2.3-2.48,1.97-1.75,4.82-1.9,7.38-2.54,2.14-.54,4.18-1.49,5.98-2.77,1.09-.78,2.11-1.71,2.74-2.9,.63-1.18,.82-2.66,.25-3.87-.44-.94-1.28-1.63-2.17-2.16-2.83-1.69-6.25-2.05-9.3-3.3-1.78-.73-3.42-1.76-5-2.86-1.21-.84-2.52-2.31-1.76-3.57-2.91-1.18-5.71-2.64-8.34-4.35-.42-.27-.86-.58-1.08-1.03s-.12-1.1,.33-1.32c.26-.13,.58-.09,.86-.03,.99,.2,1.96,.55,2.85,1.04,4.09,1.52,8.82,3.34,13.71,3.12,1.91-.09,3.81-.49,5.72-.51,5.82-.06,11.22,3.32,17.03,3.49,3.55,.1,7.01-1,10.38-2.09-1.51-2.3-2.12-5.29-1.35-7.92,.26-.87,.77-1.8,1.65-2.01,.18-.04,.37-.05,.53-.15,.24-.15,.33-.46,.39-.74,.34-1.51,.66-3.06,1.54-4.34,.87-1.27,2.47-2.19,3.96-1.77,.23-3.09,2.5-5.92,5.47-6.82-.2-1.86,.74-3.8,2.33-4.79,2.94,.89,5.22,2.92,6.96,5.25,1.74,2.34,2.99,5,4.2,7.65,.71,1.57,1.51,3.24,3.29,4.48,2.22,.87,4.63,1.1,6.97,1.56,2.34,.46,4.74,1.23,6.37,2.78,3.51,1.46,6.91,3.2,10.14,5.2,3.54,2.18,6.99,4.76,9.07,8.36,.76,1.32,1.28,3.13,.14,4.71-.09,1.07-1.08,1.81-1.98,2.4-.77,.5-1.53,1.01-2.12,1.41-3.18,2.66-7.18,4.08-11.09,5.46-5.38,1.89-10.81,3.79-16.46,4.54-.69,.09-1.4,.17-2.04,.44-.61,.26-1.13,.68-1.65,1.09-1.1,.88-2.2,1.76-3.3,2.64-1.98,1.59-4.32,3.27-6.81,2.78-1.55-.3-2.98-1.86-2.49-3.35,.67-2.06,3.8-1.86,5.22-3.45-2.13-.18-4.28-.42-6.29-1.14-2.01-.72-3.9-1.97-5.03-3.79-1.21-1.95-1.43-4.33-2.14-6.51-.71-2.18-2.25-4.42-4.53-4.65-5.3,2.17-8.32,8.12-12.7,12.27Z"/>
  </g>
</svg>