<?xml version="1.0" encoding="UTF-8"?>
<svg id="Layer_2" data-name="Layer 2" xmlns="http://www.w3.org/2000/svg" viewBox="0 0 65.93 39.6">
  <defs>
    <style>
      .cls-1 {
        fill: #808080;
      }
    </style>
  </defs>
  <g id="Layer_1-2" data-name="Layer 1">
    <path class="cls-1" d="M24.74,31.66c-8.23-8.82-6.41-18.72-12.85-19.93C5.45,10.52,.97,14.94,.97,14.94-1.92,4.21,2.56,.66,2.56,.66c0,0,3.69,5.13,10.55,6.12,9.18,1.32,9.75-3.65,18.34-5.06,8.99-1.47,11.29,.15,16.29-.6,4.99-.75,6.11-2.38,8.84,.58,2.73,2.96,7.5,2.34,7.6,4.35,.08,1.54-1.89,.71-2.02,1.97-.11,1.06,1.58,.71,1.51,2.19-.09,1.77-3.75,1.03-2.4,2.75,1.35,1.73,9.71,11.99,.09,20.63-9.61,8.63-27.43,7.9-36.62-1.95Z"/>
  </g>
</svg>