<?xml version="1.0" encoding="UTF-8"?>
<svg id="Layer_2" data-name="Layer 2" xmlns="http://www.w3.org/2000/svg" viewBox="0 0 110.65 51.62">
  <defs>
    <style>
      .cls-1 {
        fill: #808080;
      }
    </style>
  </defs>
  <g id="Layer_1-2" data-name="Layer 1">
    <path class="cls-1" d="M110.52,32.57c.46,2.44-.3,3.42-2.75,3.27-1.92-.12-3.82-.63-5.72-1.03-1.47-.31-3.23-1.2-4.28,.17-1.08,1.41-.06,3.07,.73,4.5,.25,.44,.56,.85,.79,1.31,1.27,2.47,.9,4.13-1.46,5.62-4.54,2.87-9.65,4.42-14.9,4.64-11.25,.48-22.53,.63-33.79,.56-3.66-.02-7.41-.82-10.96-1.81-5.45-1.52-10.77-3.52-16.14-5.31h.01s-.08,.08-.08,.08l.06-.08c-2.85-2.2-6.12-3.23-9.66-3.56h.02c-.18,.01-.36,.01-.54,.01h.02c-2.68-.32-5.35-.64-8.03-.93-.84-.09-1.8,.16-2.5-.18-.6-.3-1.13-1.15-1.29-1.86-.25-1.1,.72-1.11,1.49-1.18,3.87-.31,7.8-.29,11.6-.98,7.86-1.42,13.78-6.2,18.88-12.04,1.49-1.7,2.52-3.81,3.75-5.73l-.07-.1,.1,.07c1.17-2.61,2.39-5.2,3.5-7.83,1.29-3.09,3.08-5.83,5.56-8.08,.43-.39,1.09-.54,1.65-.8,0,.56,.12,1.15-.02,1.68-.5,1.88-1.13,3.72-1.63,5.6-.11,.4,.09,.88,.15,1.32,.28-.28,.6-.53,.84-.85,1.88-2.48,3.73-4.97,5.63-7.44,.41-.53,.92-1,1.47-1.39,.29-.21,.75-.17,1.14-.24-.01,.38,.1,.83-.07,1.13-.64,1.19-1.37,2.33-2.04,3.51-.25,.44-.5,.9-.63,1.38-.1,.37,0,.79,0,1.19,.35-.16,.76-.25,1.03-.5,2.2-1.97,4.36-3.99,6.58-5.94,.36-.32,.98-.35,1.48-.51-.04,.55,.07,1.18-.16,1.63-.97,1.84-2.04,3.61-3.08,5.41,1.81-1.72,3.61-3.45,5.45-5.13,.33-.3,.86-.37,1.3-.54,.03,.54,.26,1.19,.05,1.61-.64,1.24-1.46,2.38-2.21,3.56,1-.66,2-1.33,3.01-1.99,0-.02,0-.04,0-.06-.03-.1-.07-.2-.08-.3,0-.04,.04-.09,.08-.14,0-.01,0-.02,0-.03,.18,0,.36,0,.53,0,0,0,0,0-.01,.01,.3-.15,.58-.35,.9-.43,.43-.11,.89-.13,1.33-.19-.03,.47-.03,.95-.11,1.42-.04,.23-.25,.43-.36,.66-.14,.29-.26,.59-.38,.89,.37-.09,.75-.14,1.1-.28,.47-.19,.89-.47,1.36-.67,.74-.31,1.4-.26,1.41,.73,.01,1.5,.79,1.25,1.61,.73,.87-.56,1.57-.7,2.51-.02,.51,.38,1.37,.32,2.08,.37,.91,.07,1.87-.14,2.71,.11,.98,.29,1.69,.38,2.47-.46,1.06-1.13,1.75-.44,2.2,.68,.49,.08,1.37,.08,1.4,.25,.38,1.88,2.26,2.35,3.28,3.61,2.06,2.54,3.97,5.07,3.67,8.63-.07,.78,.37,1.64,.69,2.42,1.35,3.23,2.23,3.36,4.84,1.01,2.01-1.81,4.12-3.51,6.24-5.2,1.74-1.38,3.26-.86,3.73,1.32,.9,4.21,1.74,8.43,2.54,12.67Z"/>
  </g>
</svg>