<?xml version="1.0" encoding="UTF-8"?>
<svg id="Layer_2" data-name="Layer 2" xmlns="http://www.w3.org/2000/svg" viewBox="0 0 89.45 35.87">
  <defs>
    <style>
      .cls-1 {
        fill: #808080;
        fill-rule: evenodd;
      }
    </style>
  </defs>
  <g id="Layer_1-2" data-name="Layer 1">
    <path class="cls-1" d="M3.22,27.16s-.43-6.48,4.94-9.36c0,0,2.84-2.54,9.8-3.92,0,0,14.34-3.83,15.12-4.42,.77-.59,4.04-7.69,8.6-9.34,0,0,1.1-.56,1.04,.76,0,0-2.71,4.86-.5,6.04,2.21,1.18,5.49,.1,6.22,.1,.73,0,8.65,.01,14.53,4.21,0,0,10.16,5.51,13.3,9.09,0,0,1.49,1.55,4.54-.09,0,0,5.07-.98,8.33,3.56,0,0,.41,1.13,.3,1.35s-.94-.34-1.37-.44c-.43-.1-2.03-.07-2.83,.53-.8,.6-2.58,2.38-2.92,2.89-.34,.51-1.21,.45-1.76,.28,0,0,.22,1.09-.62,1.56-.85,.47-1.89,.47-2.46,1.24-.57,.77-2.22,3.63-2.24,4.43,0,0-.38,1.08-.73-1.29-.35-2.37-1.77-7.93,.31-10.36,0,0-6.61,.22-10.15-2.14-3.54-2.36-14.32-1.44-20.57,1.43-6.25,2.87-12.15,4.87-12.15,4.87,0,0,1.49,.65,3.98-.39,0,0,.69-.02,.3,.68-.39,.7-5.92,2.38-7.61,2.06s-8.29-.26-9.31,.25c0,0,0,.65,.71,.9,0,0,.17,.07-.1,.21-.27,.14-3.31,1.37-4.95,.32,0,0-1.03-.64-.71-1.72,0,0-2.62-.24-4.85,.79-2.23,1.03-4.08,1.14-4.65,1.4-.57,.26-2.95,2.67-4.09,1.74,0,0-.62-.37-.35-1.58,0,0-.79-.86,.2-2.23s2.72-3.41,2.72-3.41h0Z"/>
  </g>
</svg>