<?xml version="1.0" encoding="UTF-8"?>
<svg id="Layer_2" data-name="Layer 2" xmlns="http://www.w3.org/2000/svg" viewBox="0 0 122.44 63.21">
  <defs>
    <style>
      .cls-1 {
        fill: #808080;
      }
    </style>
  </defs>
  <g id="Layer_1-2" data-name="Layer 1">
    <path class="cls-1" d="M118.13,41.43c-2.19-2.19-5.81-5.93-6.84-6.7-1.03-.77,.65-2.97,3.23-6.46,2.58-3.48,2.58-7.61,3.1-10.45,.52-2.84,4.64-5.93,2.19-6.45-10.06,.13-12.9,7.1-25.03,14.3-8.14,4.83-16.28-.29-29.71-2.91,1.52-1.08,3-2.11,4.05-3.89,1.57-2.67,1.63-5.38,2.18-8.41,.52-2.81-1.43-5.93-2.65-8.59-1.19-2.6-3.37-2-5.74-1.08-6.35,2.47-9.71,6.17-15.06,10.35-1.9,1.48-9.89,7.79-8,11.22C10.96,26.92,1.25,46.91,1.37,52.26c.02,.65,.25,1.24,.64,1.77-.05,.05-.1,.1-.14,.15-1.09,1.17-1.59,2.39-1.87,3.94-.05,.28,.36,.51,.5,.21,.55-1.15,1.42-2.31,2.3-3.23,.05-.05,.1-.09,.15-.14,.15,.12,.31,.23,.48,.34-.71,.86-1.04,2.17-1.23,3.16-.06,.3,.38,.54,.53,.22,.28-.62,.65-1.2,1.01-1.78,.21-.34,.46-.68,.67-1.04,.96,.48,2.07,.87,3.24,1.19,0,1.09-.03,2.18-.27,3.24-.08,.38,.48,.67,.66,.28,.5-1.06,.76-2.14,.81-3.23,.12,.03,.24,.05,.36,.08,.32,1.74,.26,3.36-.05,5.21-.1,.58,.7,.82,.89,.24,.56-1.69,.97-3.34,.69-5.12,0-.02,0-.04-.01-.06,3.34,.52,6.44,.48,7.05,.08,1.42-.94,3.23-.48,9.03-.48,7.87,1.42,12.64-.77,12.64-.77,0,0,6.84,8,11.74,5.81,8.52-4.26,7.87-10.84,7.87-10.84,1.03-.39,11.1-2.45,11.1-2.45,0,0,9.16,1.68,12.64,1.68s6.32-1.81,5.03-3.1c-1.29-1.29-2.06-5.03,.13-5.55,2.19-.52,10.58,1.42,16.39,3.1,5.81,1.68,15.61,.39,17.55-.39,1.94-.77-1.55-1.16-3.74-3.35Z"/>
  </g>
</svg>