<?xml version="1.0" encoding="UTF-8"?>
<svg id="Layer_2" data-name="Layer 2" xmlns="http://www.w3.org/2000/svg" viewBox="0 0 48.4 49.03">
  <defs>
    <style>
      .cls-1 {
        fill: #808080;
      }
    </style>
  </defs>
  <g id="Layer_1-2" data-name="Layer 1">
    <path class="cls-1" d="M48.39,33.62c-.03,.33-.11,.59-.42,.74-.04,.02-.08,.09-.09,.14-.06,.33-.25,.61-.41,.89-.02,.04-.04,.09-.08,.11-.32,.14-.64,.39-.95,.37-.37-.02-.68,.15-1.02,.18-.28,.03-.55,.08-.83,.02-.13-.03-.27-.04-.41-.04-.05,0-.11,.06-.16,.09-.07,.04-.2,.1-.2,.1-.12-.19-.27-.07-.38-.03-.16,.06-.29,.14-.45,0-.02-.02-.1,0-.13,.02-.17,.18-.36,.09-.55,.06-.29-.04-.58-.06-.87-.05-.22,0-.42-.02-.63-.11-.1-.04-.22-.04-.33-.05-.05,0-.12,0-.16-.03-.48-.31-1.07-.23-1.56-.5-.09-.05-.21-.03-.32-.05-.05,0-.11,.01-.13-.01-.33-.3-.78-.18-1.15-.36-.34-.16-.71-.24-1.07-.36-.05-.02-.1-.04-.14-.08-.13-.13-.28-.18-.47-.13-.07,.02-.19-.03-.23-.08-.09-.12-.17-.14-.3-.09-.17,.06-.31,.01-.4-.14-.12-.21-.3-.25-.51-.17-.15,.05-.25,.03-.34-.12-.04-.06-.14-.11-.21-.11-.17,0-.29-.06-.37-.22-.09-.17-.21-.24-.43-.19-.21,.05-.46,.11-.56-.21-.01-.04-.14-.07-.22-.07-.16,.02-.26-.05-.34-.18-.06-.1-.13-.12-.25-.14-.2-.03-.37-.16-.56-.25-.16-.07-.32-.15-.48-.18-.17-.03-.25-.1-.29-.27-.09-.35-.24-.4-.54-.22-.16,.1-.26,.05-.32-.14-.03-.11-.08-.23-.16-.31-.04-.04-.16-.05-.23-.02-.21,.06-.36,0-.36-.21,0-.31-.21-.46-.43-.58-.09-.05-.24-.04-.36-.01-.17,.04-.38,.04-.43,.28,0,.02-.12,.05-.17,.03-.22-.08-.29,.06-.32,.22-.03,.12,0,.25,0,.37,0,.09-.03,.25-.07,.26-.19,.05-.23,.21-.3,.34-.11,.18-.25,.36-.34,.55-.12,.25-.21,.52-.49,.65-.02,.01-.06,.04-.06,.05,.09,.26-.17,.37-.24,.56,0,.03-.02,.06-.03,.07-.32,.27-.4,.69-.63,1.01-.14,.19-.31,.34-.46,.52-.08,.09-.15,.2-.18,.32-.03,.14-.09,.22-.23,.26-.08,.02-.19,.14-.18,.19,.07,.36-.23,.52-.37,.77-.08,.14-.14,.29-.21,.43-.01,.03,0,.1-.02,.1-.25,.12-.29,.4-.48,.56-.03,.03-.1,.06-.1,.08,.04,.35-.27,.5-.41,.74-.14,.24-.24,.5-.36,.75-.09,.2-.18,.4-.28,.59-.16,.31-.33,.62-.49,.93-.03,.05-.06,.12-.1,.12-.3,0-.17,.38-.39,.43,.03,.31-.27,.5-.31,.78,0,.06-.05,.13-.09,.16-.17,.11-.31,.22-.25,.46,0,.04-.06,.12-.11,.14-.22,.07-.2,.25-.21,.42,0,.06,0,.16-.03,.18-.37,.19-.29,.7-.65,.9-.04,.02-.05,.11-.05,.17,0,.15-.07,.24-.21,.28-.12,.03-.17,.11-.17,.24,0,.17-.05,.3-.28,.26-.04,0-.15,.12-.16,.2-.02,.16-.08,.26-.19,.38-.22,.25-.48,.5-.58,.84-.02,.08-.1,.18-.17,.2-.32,.09-.43,.34-.54,.6-.02,.05-.1,.08-.15,.12-.08,.05-.21,.07-.23,.13-.09,.25-.3,.33-.5,.41-.33,.12-.65,.24-.99,.33-.2,.06-.29-.09-.35-.26-.11-.33-.42-.55-.77-.55-.58,0-.64-.04-.68-.62-.02-.32,0-.62,.23-.92,.2-.27,.36-.6,.29-.99-.02-.13,.09-.28,.14-.42,.04-.12,.06-.25,.1-.38,.11-.31,.11-.66,.32-.94,.06-.09,.06-.25,.03-.37-.03-.15,0-.24,.12-.32,.11-.06,.16-.15,.09-.27-.02-.04-.04-.11-.02-.13,.29-.25,0-.71,.33-.95,.02-.01,.03-.06,.02-.07-.17-.25,.02-.4,.14-.57,.07-.09,.12-.17,.01-.28-.1-.11-.04-.21,.07-.26,.14-.06,.16-.14,.08-.28-.03-.05-.04-.15-.01-.18,.18-.2,.08-.43,.11-.65,0-.06,.05-.18,.07-.18,.3,.02,.21-.22,.18-.32-.12-.35,.04-.63,.19-.92,.08-.15,.1-.34,.15-.51,.04-.14,.08-.27,.13-.41,.08-.2,.18-.4,.27-.59,0-.02,.03-.04,.03-.04-.24-.33,.3-.55,.13-.88-.02-.04,.04-.14,.09-.18,.16-.13,.18-.29,.19-.48,0-.14,.08-.28,.11-.42,.02-.12,.03-.24,.04-.37,.01-.2,.1-.35,.31-.4,.19-.05,.22-.16,.15-.33-.03-.06-.07-.15-.05-.2,.12-.27,.25-.53,.21-.83,.29-.14,.35-.39,.31-.68,0-.04,.07-.08,.09-.13,.08-.16,.25-.29,.19-.51-.01-.06,.05-.13,.08-.19,.06-.17,.12-.35,.18-.52,.03-.08,.04-.2,.1-.23,.19-.1,.2-.27,.2-.44,0-.17,.03-.31,.19-.43,.06-.04,.09-.17,.09-.26,.01-.21,.04-.39,.25-.51,.15-.08,.16-.2,.02-.33-.18-.17-.17-.29,.06-.42,.16-.08,.17-.19,.15-.34-.03-.22-.14-.27-.32-.14-.26,.18-.4,.16-.54-.11-.09-.17-.18-.11-.28-.04-.3,.18-.29,.17-.55-.05-.06-.05-.2-.07-.28-.04-.19,.07-.36,.1-.53-.06-.03-.03-.14-.03-.18,0-.15,.11-.29,.08-.43,0-.04-.02-.09-.06-.12-.05-.17,.07-.28-.04-.42-.1-.19-.08-.41-.1-.62-.13-.04,0-.1,.02-.13,0-.11-.08-.19-.21-.3-.24-.11-.03-.22,0-.36-.05-.25-.11-.51-.28-.84-.23-.19,.03-.45,.02-.63-.17-.03-.03-.08-.07-.11-.06-.2,.09-.3-.03-.42-.16-.09-.09-.18-.15-.33-.12-.11,.02-.25-.04-.36-.1-.21-.1-.41-.23-.62-.32-.11-.05-.25-.04-.37-.08-.19-.07-.37-.15-.55-.23-.06-.03-.15-.06-.17-.11-.05-.12-.1-.11-.21-.08-.06,.02-.18-.03-.23-.09-.14-.19-.3-.3-.55-.29-.09,0-.22-.09-.25-.17-.08-.21-.23-.26-.42-.24-.17,.02-.29-.04-.34-.2-.07-.2-.21-.24-.4-.24-.32,0-.41-.09-.39-.33-.19-.08-.37-.15-.56-.23-.04-.02-.07-.1-.09-.16-.06-.18-.16-.28-.36-.29-.08,0-.17-.1-.24-.17-.13-.12-.16-.37-.43-.31-.03,0-.08-.11-.13-.17-.07-.09-.13-.19-.22-.25-.19-.12-.39-.22-.59-.33-.06-.03-.12-.06-.17-.1-.06-.05-.16-.11-.17-.18-.03-.19-.07-.33-.29-.35-.04,0-.07-.13-.09-.2-.04-.14-.07-.26-.26-.27-.07,0-.15-.08-.21-.13-.12-.1-.24-.2-.36-.31-.05-.05-.1-.1-.14-.15-.09-.1-.18-.19-.26-.29-.22-.28-.58-.44-.63-.87-.02-.18-.27-.32-.38-.5-.16-.25-.27-.52-.42-.77-.06-.11-.17-.18-.24-.28-.05-.07-.1-.19-.07-.24,.09-.16,0-.23-.12-.31v-1.31c.04-.08,.11-.16,.1-.23-.02-.15,.04-.14,.16-.17,.29-.08,.57,0,.85-.02,.57-.03,1.01,.22,1.47,.48,.22,.13,.44,.24,.66,.36,.17,.09,.37,.15,.52,.28,.29,.25,.64,.33,.97,.47,.27,.11,.55,.23,.79,.4,.09,.06,.14,.16,.28,.14,.05,0,.12,.03,.17,.06,.18,.12,.27,.37,.54,.34,.02,0,.04,.06,.07,.08,.1,.07,.19,.16,.3,.21,.17,.08,.35,.14,.53,.21,0,0,0,0,0,0h0s0,0,0,0c.07,.16,.17,.26,.37,.2,.05-.01,.12,.04,.18,.07,0,0,0,0,0,0,.12,.02,.25,.04,.36,.07,.12,.04,.23,.1,.35,.15h0c.06,.04,.12,.08,.18,.13,.02,.02,.05,.08,.05,.07,.26-.09,.45,.13,.69,.15,.21,.02,.42,.1,.63,.16,.31,.08,.62,.18,.93,.25,.28,.07,.56,.13,.85,.18,.27,.05,.53,.1,.8,.13,.23,.02,.45,.02,.68,.02,.66,0,1.32,0,1.98,0,.09,0,.18-.07,.28-.1,.07-.02,.17-.03,.22,0,.11,.08,.2,.05,.33,.04,.27-.03,.56-.03,.83-.02,.33,.01,.67,.09,1,.06,.3-.03,.58-.18,.9-.13,.15,.03,.22-.06,.26-.25,.07-.34-.15-.52-.3-.74-.19-.28-.38-.54-.23-.92,.07-.16,.06-.38,.02-.55-.06-.28-.2-.54-.26-.82-.05-.23-.1-.5-.03-.71,.06-.2,.01-.3-.08-.46-.09-.16-.13-.37-.16-.56-.02-.13,.05-.28,.03-.41-.04-.25-.08-.49-.22-.73-.15-.27-.12-.64-.18-.96-.03-.16-.06-.32-.09-.47-.02-.1-.06-.19-.11-.28-.12-.27-.26-.53-.06-.82,0,0-.06-.09-.09-.09-.2,.03-.28-.05-.23-.24,.02-.1,.12-.22,.09-.27-.17-.27-.11-.53-.03-.8,.01-.05-.01-.11-.01-.16,0-.42-.18-.84-.02-1.26,.02-.04-.02-.1-.03-.15-.09-.4-.3-.8-.06-1.22,.03-.05,.01-.13-.01-.18-.08-.16-.12-.32,0-.49,.02-.03-.02-.11-.06-.16-.1-.13-.12-.62-.06-.77,.06-.14,.09-.31,.1-.46,.02-.33,.02-.67,.04-1.01,0-.02,.03-.04,.04-.07,.11-.35,.22-.7,.32-1.06,.04-.14,0-.31,.19-.38,.03-.01,.04-.09,.07-.14,.19-.33,.31-.73,.58-.97,.24-.22,.46-.47,.74-.66h.27c.4,.24,.61,.65,.85,1.02,.17,.25,.19,.6,.28,.9,.05,.16,.11,.32,.16,.49,.02,.06,.06,.13,.04,.18-.08,.3,.08,.56,.21,.79,.1,.17,.17,.34,.25,.52,.05,.13,.16,.24,.24,.35,.03,.05,.08,.11,.09,.16,0,.16,.03,.29,.22,.33,.03,0,.07,.06,.06,.08,0,.02,0,.04-.01,.07,0,0,0,0,.01,0,0,0,0,0-.01,.01-.03,.28,.29,.42,.33,.68,.02,.11,.15,.2,.22,.31,.03,.04,0,.11,.01,.16,0,0,0,0,0,0,.06,.15,.18,.29,.17,.44,0,.16,.04,.23,.17,.29,.11,.05,.22,.12,.07,.26-.07,.06-.03,.1,0,.18,.06,.12,.19,.09,.2,.12,.03,.09-.07,.21,.09,.27,.01,0,0,.08,0,.13,0,.04,0,.09,.03,.1,.22,.14,.29,.31,.23,.55-.01,.04-.03,.1,0,.13,.15,.22,.36,.42,.44,.67,.08,.27,.32,.46,.34,.76,0,.13,.11,.32,.2,.44,.18,.24,.2,.54,.34,.79,.07,.13,.08,.3,.12,.46,.02,.06,.03,.12,.06,.18,.02,.04,.08,.08,.07,.11-.07,.33,.23,.55,.25,.82,.02,.37,.24,.63,.34,.95,.02,.06,.05,.14,.09,.16,.25,.12,.38,.33,.51,.55,.04,.07,.07,.14,.1,.21,0,.02,0,.06,0,.08,.17,.34,.35,.67,.53,1,.01,.02,.06,.03,.06,.05,.05,.26,.13,.49,.42,.58,.02,0,.03,.06,.03,.1,0,.32,.05,.46,.34,.5,.29,.05,.6,.08,.85-.18,.06-.06,.18-.07,.28-.09,.08-.01,.19,.04,.24,0,.34-.26,.84-.26,1.07-.68,0,0,0,0,0,0,.1-.2,.29-.14,.43-.12,.18,.02,.29-.03,.4-.15,.04-.05,.12-.06,.18-.09,.03-.01,.08,0,.09-.03,.08-.14,.08-.15,.19-.08,.09,.05,.15,.06,.18-.05,.07-.23,.24-.24,.41-.16,.14,.06,.22,.01,.3-.08,.07-.24,.27-.24,.46-.22,.14,.02,.24,0,.33-.13,.04-.06,.15-.09,.23-.12,.07-.03,.14-.06,.22-.08,.09-.03,.18-.06,.27-.08,.09-.02,.17-.04,.26-.07,.26-.08,.52-.17,.78-.26,.09-.03,.19-.08,.28-.12,.03-.01,.07-.05,.09-.05,.37,.05,.69-.13,1.02-.22,.17-.05,.37,.03,.56,.05,.08,0,.15,0,.23-.01-.04-.05-.07-.1-.11-.15-.01-.02-.03-.04-.05-.05,.03,0,.06-.02,.08-.01,.19,.06,.32-.06,.48-.11,.19-.06,.41-.02,.62-.02,.07,0,.15,.02,.22,.02-.04-.06-.07-.13-.11-.19-.01-.02-.04-.04-.06-.06,.02,0,.05-.02,.07-.03,.14-.05,.3-.08,.42-.16,.25-.16,.53-.05,.78-.12,.04-.01,.1,.01,.12-.01,.27-.29,.39-.35,.8-.37,.03,0,.08,0,.1-.03,.3-.27,.68-.26,1.05-.3,.08,0,.18,0,.24-.05,.28-.23,.58-.13,.88-.07,.09,.02,.2,0,.29-.03,.34-.16,.67-.35,1.02-.49,.17-.07,.37-.04,.56-.06,.05,0,.14,.03,.16,0,.14-.17,.31-.11,.49-.13,.32-.04,.63-.17,.95-.24,.09-.02,.19,0,.28,.02,.28,.08,.56,.15,.82,.26,.18,.08,.34,.22,.5,.35,.02,.02,.03,.09,.02,.13-.1,.34-.21,.68-.31,1.02-.09,.33-.35,.54-.58,.76-.37,.34-.78,.64-1.17,.96-.37,.31-.74,.61-1.09,.95-.36,.35-.76,.64-1.16,.94-.34,.25-.71,.45-.99,.75-.39,.42-.93,.62-1.34,.99-.35,.3-.77,.5-1.1,.8-.16,.14-.33,.2-.49,.29-.14,.08-.27,.18-.4,.27-.49,.33-.98,.65-1.47,.98-.17,.11-.33,.24-.51,.35-.07,.05-.16,.07-.23,.12-.07,.06-.13,.13-.19,.2-.08,.09-.16,.17-.24,.26-.04,.04-.09,.08-.14,.11-.06,.04-.14,.12-.19,.11-.25-.04-.35,.12-.4,.31-.04,.17-.13,.2-.3,.24-.19,.04-.35,.19-.52,.31-.23,.16-.37,.47-.71,.48-.04,0-.1,.05-.13,.09-.09,.13-.21,.14-.36,.13-.09,0-.21,.06-.28,.14-.08,.08-.13,.19-.17,.3-.02,.05,0,.15,.03,.19,.1,.11,.22,.22,.34,.31,.34,.24,.69,.48,1.03,.72,.07,.05,.13,.13,.2,.18,.15,.11,.31,.21,.45,.33,.19,.16,.36,.35,.55,.51,.36,.32,.74,.62,1.09,.93,.22,.2,.41,.42,.63,.62,.11,.1,.24,.19,.38,.24,.17,.06,.21,.18,.28,.32,.05,.09,.34,.04,.39,.13,.24,.41,.68,.54,1.01,.81,.26,.21,.54,.38,.82,.57,0,0,0,.02,.02,.02,.29,.15,.59,.29,.88,.44,.24,.12,.57,.2,.67,.4,.17,.32,.45,.34,.7,.44,.16,.06,.37,.01,.53,.07,.29,.1,.52,.33,.8,.47,.14,.07,.27,.17,.42,.18,.17,0,.29,.05,.38,.21,.04,.07,.12,.15,.18,.15,.41-.04,.74,.36,1.18,.22,.09-.03,.22,.09,.34,.14,.07,.03,.16,.12,.21,.1,.23-.09,.44,.02,.65,.08,.31,.08,.62,.19,.91,.33,.26,.12,.3,.37,.28,.66Z"/>
  </g>
</svg>