<?xml version="1.0" encoding="utf-8"?>
<!-- Generator: Adobe Illustrator 19.1.0, SVG Export Plug-In . SVG Version: 6.00 Build 0)  -->
<svg version="1.1" id="Layer_1" xmlns="http://www.w3.org/2000/svg" xmlns:xlink="http://www.w3.org/1999/xlink" x="0px" y="0px"
	 viewBox="0 0 48 48" style="enable-background:new 0 0 48 48;" xml:space="preserve">
<style type="text/css">
	.st0{fill:#808080;}
</style>
<path class="st0" d="M43,28.3c0,0-4.5-11.6-15.7-15.6c0,0-10.4-3.5-12.3-5.7c-0.1-0.1-0.1-0.2-0.2-0.3c-0.3-1-2.3-6.4-7.9-6.2
	c0,0-2.9,0-4.5,2c0,0-2.7,0.6-2.5,2.1c0,0,2.7-0.1,4,1.1c0,0,0.8,1.4,2,2.4c0.8,0.6,1.4,1.6,1.4,2.6c0,0.2,0,0.4,0,0.5
	c0,0-1.4,4.4,1.1,9c0.3,0.5,0.5,1,0.7,1.5c0.8,1.9,3,6.4,5.7,8.4c0,0,3.6,2.9,6.6,3.5c0.5,0.1,0.9,0.5,0.9,1c0,0.5-0.1,1.3-0.5,2
	c0,0-1.4,3-2.6,3.1c0,0-1.8,0.3-3.1-0.3c0,0-0.4-0.4-1,0c0,0-1,0.2-0.8,0.7c0,0,0.5-0.5,0.8-0.2c0,0,0.2,0.5,1.5,0.5l1.3,0.1
	c0,0-0.2,0.4-1.4,0.5c0,0-2.9,0-3.4,0.6c0,0-1.1,0.7-1,1.2c0,0,0.8-0.8,1.2-0.5c0,0,0.6,0.4,1.1,0c0,0,3-0.1,3.7-0.4l2.1-0.6
	c0,0-2.3,2.2-2.6,2.9c0,0-1.6,0.6-1.7,1.1c0,0,1.2-0.6,1.5-0.4c0,0,0.2,0.8,1.7,0c0,0,4.8-0.9,5.2-1.5c0,0-0.1,1.5-0.7,2.6
	c0,0-0.5,1-0.3,1.3c0,0,0.2-0.7,0.9-0.8c0,0,0.6-0.2,0.5-0.7c0,0,1.6-2.7,1.4-3.8c0,0,0.1-0.6,0.4-0.1c0,0,0,0.7,0.8,0.6
	c0,0,0.3,0,0.4,0.3c0,0-0.1-1.1-0.9-1.7c0,0-0.3-0.3-0.1-1c0,0,0.2-1.5,0.8-1l0.4,0.3c0,0,0.2-0.6-0.4-0.9c0,0-0.2-1.8,1.2-2.5
	c0.2-0.1,0.3-0.2,0.4-0.4c0.1-0.3,0.2-0.7,0-1.2c-0.1-0.1,0-0.3,0.2-0.3c0.9,0,3.4,0,5.5-1c0.1-0.1,0.3-0.1,0.4-0.1
	c0.9,0.1,4.5,0.3,6.6,0c0.5-0.1,1.1,0,1.5,0.3c0.7,0.5,2.1,1.1,4.4,1.3c0.2,0,0.3-0.2,0.2-0.4C46.9,33.3,43.6,29.2,43,28.3z
	 M6.4,3.9c-0.5,0-0.9-0.3-0.9-0.8s0.4-0.8,0.9-0.8c0.5,0,0.9,0.3,0.9,0.8S6.9,3.9,6.4,3.9z M18.2,44.4c0,0,0.2-0.9,0.8-0.4
	C19,44,18.5,44.5,18.2,44.4z M19.6,43.8c0.1-0.6,0.6-0.6,0.6-0.6c-0.2,0.6,1.3-0.1,1.3-0.1c0.8-0.4,1.6-0.1,1.6-0.1
	C21.5,43.6,19.6,43.8,19.6,43.8z M25,41.2c-0.4,1.2-4.2,1.3-4.2,1.3c1.2-2.2,1.7-1.7,1.7-1.7l0.9,0.5c0.3-0.2,0.8,0,0.8,0
	c0.1-0.4-2-1.1-2-1.1c-0.7-0.4,1.7-3.8,1.7-3.8c0.2-0.3,0.6,0.3,0.6,0.3c0.1-0.3-0.4-1.2-0.4-1.2c2.2-2.7,2.4,0.9,2.4,0.9
	C27,37.3,25,41.2,25,41.2z"/>
</svg>
