<?xml version="1.0" encoding="utf-8"?>
<!-- Generator: Adobe Illustrator 19.1.0, SVG Export Plug-In . SVG Version: 6.00 Build 0)  -->
<svg version="1.1" id="Layer_1" xmlns="http://www.w3.org/2000/svg" xmlns:xlink="http://www.w3.org/1999/xlink" x="0px" y="0px"
	 viewBox="0 0 48 48" style="enable-background:new 0 0 48 48;" xml:space="preserve">
<style type="text/css">
	.st0{fill:#808080;}
</style>
<path class="st0" d="M48,21.9c0-0.1-0.1-0.3-0.2-0.4c-0.4-0.6-1.6-2.4-2-3.3c-0.1-0.1-0.1-0.3-0.1-0.5c0-0.2-0.2-0.7-1.6-1.9
	c0,0,1.5-1.1,0.3-2c0,0,0.3,0.8-0.3,1.1c0,0,0.2-0.9-0.2-1.1c0,0,0.1,1.2-0.6,1.1l-0.7,0.9c0,0-0.7,0-1.1,0.1
	c-0.4,0.1-0.8,0.2-1.2,0.2c-1.2,0-3.1,0-3.7-0.3c0,0-2.9-1.4-3.4-1.5c-0.1,0-0.2,0-0.3,0c-1.1-0.3-5.9-1.3-7.7-1.1
	c-0.3,0-0.5,0-0.8,0c-1.1-0.1-3.7-0.4-4.8-0.1c-0.2,0-0.4,0.1-0.5,0.1c-0.8,0.1-2.8,0.2-4.1-0.2c-0.4-0.1-0.8-0.2-1.2-0.2
	c-1.4,0-4.4,0-5.1,1.1c0,0.1-0.1,0.1-0.1,0.2c-0.3,0.4-1.2,2-0.6,3.8C8,18.3,8.1,18.8,8,19.3c-0.1,0.8-0.6,1.9-2.1,1.7
	c0,0-0.1,0-0.1,0c-0.1,0-0.2,0-0.4,0c-0.4,0-0.8-0.1-1.2-0.2c-0.2-0.1-0.5-0.2-0.7-0.2c0,0-2.8-0.5-2.2,0c0,0-1.1-0.2-1.2,0.6
	c0,0.1,0.1,0.2,0.2,0.2c0.2,0,0.4,0.1-0.2,0.5c0,0,0.4,0.2,1,0.1c0.1,0,0.2,0,0.3,0.1c0.3,0.2,0.9,0.5,2,0.1c0.1,0,0.2-0.1,0.3,0
	c0.7,0,3.3,0.2,4.1-0.7c0,0,0,0,0-0.1C7.9,21.1,9,19.7,8.6,18c0,0,0-0.1,0-0.1c-0.1-0.3-0.7-2,0.5-2.7c0,0,0.1,0.9,0.2,1.5
	c0.1,0.4,0.1,0.8,0.1,1.3c-0.1,1.5-0.2,4.4-0.5,5.1c0,0-1,1.9-2.6,2.3c0,0-0.3,0.1-0.4,0.7c0,0.1,0,0.2,0,0.4c-0.2,1-1.1,5-2,6
	C3.9,32.4,4,32.5,4,32.7c0,0.1-0.1,0.3-0.2,0.4c-0.1,0.1-0.2,0.1-0.3,0.2c-0.1,0-0.1,0.1-0.1,0.2c0,0.4,0.1,1.4,0.8,1.8
	c0,0,0.2,0.1,0.4-0.5c0,0,0.3-1.3,0.7-1.9c0,0,0.1,0.1,0.6-1.1c0,0-0.1-3.8,5.6-6.9c0,0-0.4,1.7-1.1,2.6c0,0-0.3,0.3,0.1,0.8
	c0.3,0.5,2.6,5.2,2.6,5.9c0,0,0.1,0.8,0.5,0.4c0,0,0.3,0,0.3,0.2c0,0.1,0,0.1,0.1,0.2c0.2,0.2,0.7,0.5,1.9,0.2
	c0.1,0,0.1-0.1,0.1-0.2c-0.1-0.2-0.3-0.4-0.8-0.9c-0.2-0.1-0.3-0.3-0.4-0.4c-0.6-0.9-2.4-4-1.2-5.8c0-0.1,0.1-0.1,0.1-0.1
	c0.1,0,0.4-0.2,0.4-1c0,0,0.6-0.3,0.6,0.1c0,0-0.1,0.5,0.2,0.4c0,0,0,0.9,0.5,0.1c0,0,0.1-2.5,2.3-2c0,0,0.1,0,0.1,0
	c0.5,0.2,3.6,1.7,9.1,0.3c0.2,0,0.3,0.1,0.3,0.3c-0.1,0.7-0.5,2.4-0.7,2.9c0,0.1,0,0.2,0,0.3c0.1,0.4,0.4,1.6-0.5,3.4
	c0,0.1,0,0.1,0,0.2c0,0.2-0.1,0.5-0.3,0.8c0,0-0.1,0.3,0.3,0.3c0,0,0.6,0.2,0,0.8c0,0,0.8,0.7,2.1,0.4c0.1,0,0.2-0.1,0.1-0.2
	c-0.1-0.1-0.2-0.4-0.6-0.7c-0.1-0.1-0.2-0.3-0.2-0.4c-0.1-0.7-0.2-2.4,0.4-3.1c0,0,0.5-0.6,0.8-1.6l0.9-2.3C29.8,26,30,26,30.1,26
	c0.4,0.1,1.2,0.4,1.8,1.1c0.1,0.1,0.1,0.2,0.2,0.2c0.3,0.2,1.2,0.7,1.8,0c0.1-0.1,0.2-0.1,0.3,0c0.3,0.4,0.9,1.2,1.2,1.7
	c0,0.1,0.1,0.1,0.2,0.2c0.2,0.2,0.7,0.7,1.1,2.2c0,0,0,0.1,0,0.1c0,0.2,0.1,0.9,0.2,1.2c0,0.1,0,0.1,0.1,0.2
	c0.1,0.1,0.3,0.3,0.3,0.5c0,0,0,1.3,1.3,1.1c0,0,0.1,0,0.1,0c0.3,0,1,0,0.8-0.4c0,0-0.8-1.2-1.1-1.5c0,0-0.1-0.1-0.1-0.2
	c0-0.2-0.1-0.8-0.3-0.8c0,0-0.3-1-0.5-1.3c-0.1-0.1-0.1-0.2-0.1-0.4c0-0.6-0.2-2.3-1.2-3.6c-0.1-0.1-0.1-0.2,0-0.3
	c0.3-0.3,1-1,2-2.4c0.1-0.1,0.1-0.1,0.2-0.2c0.5-0.3,2.7-1.3,5.4-0.5c0.1,0,0.3,0.1,0.4,0.1c0.3,0,0.7,0,1-0.1c0.1,0,0.2,0,0.3,0.1
	c0.1,0.2,0.4,0.4,0.8,0.4c0.1,0,0.1,0,0.2,0c0.1,0,0.3-0.1,0.5-0.1c0.1,0,0.3,0,0.4-0.1C47.7,23.1,48.1,22.7,48,21.9z M44.9,18.3
	c0,0-0.1-0.1-0.2-0.2c0,0,0.3-0.1,0.4,0C45.1,18.1,45.2,18.4,44.9,18.3z"/>
</svg>
