<?xml version="1.0" encoding="utf-8"?>
<!-- Generator: Adobe Illustrator 19.1.0, SVG Export Plug-In . SVG Version: 6.00 Build 0)  -->
<svg version="1.1" id="Layer_1" xmlns="http://www.w3.org/2000/svg" xmlns:xlink="http://www.w3.org/1999/xlink" x="0px" y="0px"
	 viewBox="0 0 48 48" style="enable-background:new 0 0 48 48;" xml:space="preserve">
<style type="text/css">
	.st0{fill:#808080;}
</style>
<g>
	<path class="st0" d="M48,9.1c0-0.4-0.1-0.8-0.3-1.2c-0.5-0.7-1.6-1.6-4-0.7c0,0-7.9,3.1-11.6,7.1c0,0-5.7,5.4-7.5,8.8
		c0,0,0-0.2-0.2-0.3c-0.1,0-0.1-0.1-0.1-0.1c0-0.2-0.2-0.6-0.4-0.6c-0.1,0-0.1-0.1-0.1-0.1c0-0.1,0-0.2-0.1-0.3c0,0,0,0,0,0l0.8-1.2
		l0.8-1.1l0.7-1.3l0.7-1.2l0.6-1.5c0,0,0.2-1,0.8-1.5c0,0,0.2-0.6-0.3-0.2c0,0-0.6,0.9-0.6,1.3l-0.7,1.7l-0.9,1.6c0,0-1,1.9-1.3,2
		l-0.8,1.2c0,0,0,0,0,0c0-0.1-0.1-0.1-0.2,0c0,0.1-0.1,0.2-0.1,0.3c0,0-0.4-0.1-0.6-0.3c0,0-0.1,0.1-0.1,0.2c0,0,0,0,0,0
		c0,0,0,0.1-0.1,0.2l0.1-0.1c0,0-0.5-1.3-0.7-1.4c0,0-1-1.4-1-1.4c0,0,0,0.1,0,0.1l-1.1-2.2c0,0-0.6-1.3-0.5-1.7
		c0,0-0.1-0.9-0.7-1.5c0,0-0.4-0.1-0.1,0.4c0,0,0.5,0.4,0.5,0.9c0,0,0.4,1.4,0.6,1.8c0,0,0.9,1.8,1.1,2.1c0,0,1.2,1.8,1.3,1.9
		c0.1,0.1,0.1,0.1,0.1,0.1l0.4,1.1c-0.1,0.1-0.2,0.2-0.3,0.2c0,0-0.7,0.3-0.5,1c0,0-6.4-9.7-9.9-11.9c0,0-7-6-10.6-4.9
		C0.8,6.2,0.6,6.4,0.4,6.7c-0.4,0.8-1,2.6,1,5.8c0.1,0.1,0.2,0.3,0.2,0.4c0.4,0.8,1.6,3.8,1.9,7.7c0,0,0.6,4.7,4,4.3l3,0.3
		c0,0-6.8,2-6.8,6.2c0,0-0.4,4.4,5.1,7.8c0,0,3.4,2.2,6.2,2c1.1-0.1,2-0.7,2.5-1.6l4.5-8.3c0,0-0.5,6.3,0.2,8c0,0,1,0.8,1.4-0.4
		c0,0-0.2-6.9,0.2-7.4c0,0,3.4,11.6,7.4,10.4c0.1,0,0.3-0.1,0.4-0.1c1.6-0.2,10.6-1.6,10.5-10.1c0,0-0.1-3.3-5.5-5.5
		c0,0,5.5,0.6,6.2-2.2c0,0,1.9-6.8,2.7-8.5C45.4,15.4,47.8,11.3,48,9.1z"/>
	<path class="st0" d="M20.8,18.8L20.8,18.8C20.8,18.8,20.8,18.8,20.8,18.8C20.8,18.8,20.8,18.8,20.8,18.8z"/>
</g>
</svg>
