<?xml version="1.0" encoding="utf-8"?>
<!-- Generator: Adobe Illustrator 19.1.0, SVG Export Plug-In . SVG Version: 6.00 Build 0)  -->
<svg version="1.1" id="Layer_1" xmlns="http://www.w3.org/2000/svg" xmlns:xlink="http://www.w3.org/1999/xlink" x="0px" y="0px"
	 viewBox="0 0 48 48" style="enable-background:new 0 0 48 48;" xml:space="preserve">
<style type="text/css">
	.st0{fill:#808080;}
</style>
<path class="st0" d="M47.8,22l-1.9-2.8c-0.2-0.2-0.3-0.5-0.3-0.8c0-0.6-0.2-2-1.6-3.2c-0.1-0.1-0.2-0.3-0.1-0.4
	c0.3-0.8,1.2-3.2,0.9-3.8c0,0-1.3,1.6-2.2,2.1c-0.2,0.1-0.4,0-0.5-0.2l-1.2-2.7c0,0-1,0.2-0.9,2.6c0,0.3-0.2,0.6-0.5,0.6
	c-2,0.2-8.8,1-13.2,0.7c-0.3,0-0.6-0.1-0.9-0.1c-2.1-0.4-13.7-2.1-19.5,3.7c0,0-8.5,9.9-5.2,10.4c0,0,5-2.8,7.5-8.2
	c0,0-0.9,6.5-3,7.3c0,0-1.8,0.1-2.5,2.3c0,0-0.8,2.6-1.1,3.5c-0.1,0.2-0.1,0.3-0.2,0.5c-0.1,0.2-0.3,0.6-0.1,1.1
	c0.1,0.1,0.1,0.2,0.1,0.3c0.1,0.6,0.4,2.5,1.5,1.9c0,0,0.1-0.1,0.2,0.1c0,0,0.5,0,0.6-0.1c0,0,0.8,0.1,0.4-0.2c0,0,0.2-0.1,0.3,0.1
	c0,0-0.2-0.9-0.9-1.2c-0.3-0.1-0.5-0.4-0.5-0.7c0-0.2,0-0.5,0.1-0.9c0.4-1,0.9-3.8,4-5.1c0,0,3.7-1.7,5.4-3.3c0.3-0.3,0.9-0.2,1,0.2
	c0.2,0.6,0.2,1.6-0.7,2.9c-0.2,0.3-0.3,0.6-0.2,0.9c0.1,0.3,0.3,0.8,0.9,1.2l2.2,2.5c0.2,0.2,0.3,0.3,0.6,0.4
	c0.3,0.2,0.9,0.5,1.2,1.2c0.1,0.2,0.2,0.4,0.4,0.6c0.3,0.3,0.7,0.6,1.2,0.7c0.1,0,0.1,0,0.2,0c0.1,0,0.2,0,0.3,0.1
	c0,0,0.2-0.7,0-1.1c0,0-0.8-1.7-4.2-5c0,0-0.9-1.3,0.6-3.1c0.3-0.4,0.6-0.8,0.8-1.2l0.5-1c0.1-0.2,0.3-0.3,0.5-0.3
	c1.2,0.2,5.2,0.8,7.3,0.6c0.3,0,0.5,0.2,0.4,0.4c-0.1,0.4-0.5,1.2-1.4,2.7c0,0-2.7,4.9-2.4,6.6c0,0,0,2.8,2.4,2.4c0,0,0.8,0,0.9-0.4
	c0,0,0.1-0.1,0.3,0c0,0-0.1-0.4-0.5-0.4c0,0-0.4-0.8-1.2-0.7c0,0-1-1.6,0.5-3.5c0,0,3.8-6.8,6-7.8c0,0,2-0.3,1.9,2
	c0,0,0,0.7,1.1,1.8c0.2,0.2,0.5,0.5,0.7,0.7c1.1,1.4,4.2,5.5,4.8,7.5c0,0,0.5,0.9,1.1,0.9c0,0,0.5,0.8,0.3,0c0,0,0.5,0,0.7,0.2
	c0,0,0.2-0.3,0-0.5c0,0,0.1-0.1,0.3,0c0,0,0.1-0.3-0.2-0.6c0,0-0.3-0.5-0.8-1.1c-0.4-0.5-0.8-1.1-1-1.7c-0.5-1.2-1.4-3.1-2.2-4
	c0,0-3.3-4.3-1.5-6.3c0.2-0.2,0.3-0.4,0.5-0.6c0.5-0.6,2-1.8,6-1.2c0.8,0.1,1.6,0.4,2.2,0.9c0.5,0.3,1.2,0.7,2,0.8
	C46.2,23.3,48.7,23.3,47.8,22z M44.9,19.4c0,0-0.6-0.3-0.5-0.6l0,0c0,0,0.6,0.1,0.8,0C45.2,18.7,45.3,19.5,44.9,19.4z"/>
</svg>
