<?xml version="1.0" encoding="UTF-8"?>
<svg id="Layer_2" data-name="Layer 2" xmlns="http://www.w3.org/2000/svg" viewBox="0 0 51.18 25.74">
  <defs>
    <style>
      .cls-1 {
        fill: #808080;
        fill-rule: evenodd;
      }
    </style>
  </defs>
  <g id="Layer_1-2" data-name="Layer 1">
    <path class="cls-1" d="M.06,11.46s-.24-1.06,.23-1.31c.47-.26,.44-.18,.5-.39,.06-.22,.26-.4,.45-.46s.21-.71,.86-.93,.35-.34,.78-.43c.43-.09,1.41-.32,1.88-.31,.47,0,.59-.37,.85-.42,.26-.05,1.23-.16,1.6-.02,.37,.15,1.43,0,1.8,.16,.37,.16,.62,.34,.62,.34,0,0,.16-.12,.43-.31-.74-.28-2.12-.81-2.35-.85-.32-.06-.93-.27-1.14-.5-.21-.23-.36-.67-.59-.93-.23-.25-.08-.48-.17-.93-.08-.44-.46-.36-.51-.9-.04-.55,.93-1.3,1.89-1.3s1.35,1.05,2.19,1.64,2.73,2.37,2.73,2.37c1.2-.79,2.62-1.67,3.73-2.18,2.4-1.11,6.65-3.22,10.77-3.15,4.12,.06,7,.23,8.31,.9,1.3,.67,2.83,1.99,3.01,2.31,.18,.33,.22,.62,.42,.58,.2-.04,1.34-1.17,1.6-1.34,.27-.17,1.31-.86,1.8-1.08,.48-.22,2.58-1.5,3.43-1.76,.85-.25,2.09-.46,3.38,.18,1.28,.64,1.83,.7,1.89,.86,.06,.16,.94,1.59,.66,2.72,0,0-.06,.48-.76,.61,0,0,.08-.09,.1-.16,0,0-.17,.07-.28,.25-.1,.18-.31,.4-.4,.54-.09,.15-2.1,2.09-3.23,2.87-1.14,.78-2.61,1-3.19,1.02,0,0,1.01-.03,1.44,.74s1.01,2.67,.88,3.37c-.13,.69-.55,2.9-.4,3.51,0,0,0,.58-.13,.63-.12,.06-.16-.44-.3-.41s-.54,.59-.79,.89c-.25,.3-1.15,.37-1.77,.11-.62-.27-1.32-.96-1.4-1.82-.07-.86-.08-1.05-.43-1.33s-.37-.74-.37-.91,.06-.86-.35-1.37c-.41-.51-.78-.74-.73-.98,0,0-.11,.02-.27,.13-.16,.11-1.16,.27-1.63,.58-.47,.32-.68,.32-1.03,.72-.35,.4-.91,.44-1.27,.53-.36,.08-.78,.47-1.17,.55-.39,.07-2.68,.57-3.47,.38,0,0-4.27,4.89-5.17,5.39,0,0,0,1.03-.38,1.23-.38,.2-.59-.43-.62-.57-.03-.14-1.23,.76-2.41,1.31-1.18,.56-6.42,4.2-11.7,3.88,0,0-3.39,.31-3.43-.64-.04-.95,.43-1.36,.71-1.54,.28-.18,.24-.5,.38-.74,.14-.23,.48-.47,.61-.59,.13-.12,.18-.37,.48-.5,.3-.14,.86-.19,1.23-.27,.37-.08,4.05-.98,6.78-3.55,2.73-2.57,3.76-3.53,4.1-3.74,0,0-1.87-.44-3.15-.76-1.28-.32-2.63-.9-3.43-1.09-.8-.19-3.7-1.2-4.04-1.18-.34,.02-1.03,.15-1.78,.21-.75,.06-1.16-.01-1.58,.08-.42,.09-.86,.22-1.16,.23-.29,.01-.49,.14-.81,.21-.32,.07-.47,.23-.65,.3s-.32,.19-.37,.14c-.05-.05,.16-.21,0-.25-.16-.03-1.48,.03-1.88-.03s-1.35,.06-1.88-.54H.06Z"/>
  </g>
</svg>