<?xml version="1.0" encoding="utf-8"?>
<!-- Generator: Adobe Illustrator 19.1.0, SVG Export Plug-In . SVG Version: 6.00 Build 0)  -->
<svg version="1.1" id="Layer_1" xmlns="http://www.w3.org/2000/svg" xmlns:xlink="http://www.w3.org/1999/xlink" x="0px" y="0px"
	 viewBox="0 0 48 48" style="enable-background:new 0 0 48 48;" xml:space="preserve">
<style type="text/css">
	.st0{fill:#808080;}
</style>
<path class="st0" d="M47.6,24.1c0,0,0.6-0.3,0.3-0.5c0,0-0.3-0.2-0.7,0l0.4-0.8c0,0-0.6-0.3-1,0c0,0,0.3-0.8-0.8-0.7l0.3-0.6
	c0,0-0.7-0.2-1.1,0l0,0c0-0.1-0.1-0.4,0.2-0.5c0,0-0.5-0.2-1.1,0c0,0,0.2-0.7-0.7-0.4c0,0-0.4,0-0.4-0.1c0,0,0.5-0.6-0.9-0.3
	c0,0-0.1-0.8-1.1-0.4l-0.4,0c0,0,0.1-0.6-0.6-0.3l-0.1,0c-0.1,0-0.3-0.1-0.3-0.2c-0.1-0.1-0.2-0.2-0.4-0.1c0,0-0.1,0-0.2,0
	c-0.1,0-0.1,0-0.2,0c-0.1,0-0.2-0.1-0.2-0.2c0-0.2-0.2-0.3-1,0c0,0,0.1-0.6-0.9-0.3c0,0,0.2-0.4-0.9-0.1c0,0,0,0-0.1,0
	c-0.1-0.1-0.3-0.5-1-0.2c0,0-0.1-0.5-0.8-0.3c0,0-0.1,0-0.1,0c-0.1-0.1-0.3-0.4-0.8-0.3c0,0-0.1,0-0.1,0c-0.1-0.1-0.3-0.5-1.1-0.3
	c0,0-0.1,0-0.1,0c-0.1-0.1-0.3-0.5-0.8-0.2c-0.1,0-0.2,0-0.2-0.1c-0.1-0.1-0.3-0.3-0.8,0c-0.1,0-0.1,0-0.2,0
	c-0.1-0.1-0.4-0.3-0.6-0.1c-0.1,0.1-0.2,0.1-0.3,0.1l-1.1,0c0,0-0.4-0.4-0.6,0c0,0-0.9-0.6-1.2-0.1c0,0-0.2-0.3-1-0.2
	c-0.3,0-0.4,0-0.4,0c0,0,0.4,0,0.4,0s-6.1-0.2-8,0.2c0,0-0.4,0.3-0.8,0c-0.1-0.1-0.2-0.1-0.3-0.1c-0.5-0.1-1.8-0.2-2.7-0.1
	c-0.1,0-0.1,0-0.2,0c-0.3-0.1-1.2-0.4-2-0.3c-0.1,0-0.2,0-0.2-0.1c-0.1-0.3-0.4-1-2-0.8c-0.1,0-0.2,0-0.2-0.1
	c-0.1-0.1-0.3-0.2-1-0.1c0,0-3.8-0.4-5.4-1.2c0,0-1.3-0.6-1.7,0c0,0-0.8,1,0.3,1.5c0,0-0.2,0.7,0.3,0.1c0,0,0.2-0.1,0.3,0.1
	c0,0,0.3-0.6,0.4-0.3c0,0,0.2,0.1,0.2,0.6c0,0,0,0,0.1,0C2,15.8,2.1,15.7,2,16.2c0,0,0,0.2,0.2-0.1c0,0,0.1,0,0.1,0.6
	c0,0,0.1,0,0.2-0.1c0.1-0.1,0.1,0,0.2,0c0,0.1,0.1,0.2,0.1,0.5c0,0,0.1,0.1,0.2-0.2c0,0,0,0,0.1-0.1c0.1-0.1,0.2-0.2,0.3,0
	c0,0,0.1,0,0.1,0c0.1-0.1,0.3-0.2,0.4-0.1c0,0,0.1,0,0.1,0c0.1-0.1,0.3-0.2,0.4,0.1c0,0,0.1,0.1,0.1,0.1c0.1,0,0.3,0,0.3,0.3
	c0,0,0,0,0.1,0c0.1-0.1,0.2-0.1,0.3,0.2c0,0,0.1,0.1,0.1,0c0.1-0.1,0.2-0.1,0.4,0.1c0,0,0.3-0.1,0.4,0.1c0,0,0.1,0.1,0.1,0.1
	c0.2,0,0.9,0,1.1,0.4c0,0,0.5,0.8-1.9,1.2c0,0,0,0-0.1,0c-0.1,0-0.5,0-1.1,0.5c-0.6,0.5-1.4,0.6-2.1,0.5c0,0,0,0-0.1,0
	c0,0-0.2-0.4-0.2-0.4c0,0-0.1,0.3-0.1,0.5c0,0-0.1,0.4-0.7,0.5c-0.1,0-0.3,0-0.4-0.1c-0.1,0-0.1-0.1-0.1-0.1c0,0,0.1,0.2,0,0.4
	c0,0-0.1,0.4,0.2,0.7c0,0,0.1,0.3,1.8,0.3c0.2,0,0.3,0,0.5,0.1c0.6,0.4,2.4,1.4,4.8,0.3c0.2-0.1,0.3-0.1,0.5-0.1l0.1,0
	c0.1,0,0.1,0,0.2-0.1c0.1-0.1,0.2-0.3,0.5-0.2c0,0,2.5,0.3,3,0.6c0,0-0.5,0.1-0.9,0.4c-0.1,0-0.1,0.1-0.2,0.1c-0.3,0-1,0-1.5,0.4
	c-0.1,0-0.1,0.1-0.2,0.1c-0.4,0.1-1.9,0.3-2.8,0.9c0,0-0.1,0-0.1,0.1c-0.2,0.1-0.7,0.3-0.8,0.7c0,0-0.3,0.3-0.2,0.5
	c0,0,0.6-0.5,1.5-0.3c0,0,0,0,0,0.1c-0.1,0.1-0.3,0.3-0.2,0.5c0,0,0.8-0.5,1.1-0.5c0,0,0.1,0,0.1,0.1c0,0.1-0.1,0.4-0.2,0.5
	c0,0,0.5,0,0.8-0.4c0-0.1,0.1-0.1,0.2-0.1c0.7,0,4.3,0.2,6-1.9c0.2-0.2,0.5-0.3,0.7-0.3l9.4,1.6c0.1,0,0.1,0.2,0,0.2
	c-0.8,0.3-2.6,0.9-2.8,1.4c0,0,0,0.1-0.1,0.1c-0.1,0.1-0.4,0.2-0.4,0.4c0,0,0.3-0.3,0.5-0.1c0,0,0,0.1,0,0.1
	c-0.2,0.1-0.7,0.5-0.7,0.6c0,0,0.3-0.2,0.4-0.2c0,0,0,0,0.1,0c0.2,0,1-0.2,1,0.1c0,0,0,0,0,0.1c0,0.1-0.1,0.3,0,0.4
	c0,0,0.7-0.7,2.3-0.7c0,0,0.8,0,1-0.2c0,0,0,0,0.1,0c0.4,0.1,2.8,0.3,3.6-1.9c0-0.1,0.1-0.1,0.2-0.1c1.2-0.1,9.5-0.3,13.5,2.5
	c0,0-1.3-0.3-1.4,0.3c0,0,0.1,0.3,0.5,0.5c0,0,0,0.1,0,0.1c-0.3,0-1,0.1-1.2,0.4c-0.1,0.1-0.2,0.2-0.3,0.2c-0.4,0-1.1,0.1-1,0.6
	c0,0-1.9-0.1-1.4,0.6c0,0-1.8-0.2-1.4,0.5c0,0-1.8,0-1.5,0.4c0,0-3.3-0.5-11.3,2.9c0,0-0.6,0.4,0.3,0.3c0,0,3.8-2,11.2-1.6
	c0,0,3.5-0.2,4.1-0.4c0,0,0.3,0.2,1.5-0.2c0,0,7.8-0.7,6.1-7.8L47.6,24.1z M8.2,16.2c0,0.1-0.2,0.2-0.4,0.2c-0.2,0-0.3-0.2-0.3-0.3
	c0-0.1,0.2-0.2,0.4-0.2C8.1,16,8.2,16.1,8.2,16.2z"/>
</svg>
