<?xml version="1.0" encoding="UTF-8"?>
<svg id="Layer_2" data-name="Layer 2" xmlns="http://www.w3.org/2000/svg" viewBox="0 0 125.74 31.88">
  <defs>
    <style>
      .cls-1 {
        fill: #808080;
      }
    </style>
  </defs>
  <g id="Layer_1-2" data-name="Layer 1">
    <path class="cls-1" d="M125.54,25.56c-.16,1.27-15.77-.8-29.17-5.76,0,0-1.58,.6-4.34,1.49,.65,.89,1.06,1.87,.64,2.68-1.06,2.04-8.81,7.16-13.91,7.86-3.19,.44-10.64-2.15-15.77-4.15-5.37,.65-11.06,1.02-16.84,.92-1.25,1.57-2.6,2.78-3.76,2.64-1.37-.16-4.4-1.74-7.36-3.46C9.93,24.7-.88,15.72,.06,11.41c.14-.62,19.44-7.79,39.49-8.04,5.27-.07,11.71,.48,18.33,1.3C64.24,2.56,75.86-.77,80.03,.16c3.91,.87,3.75,5.79,3.3,8.68,7.74,1.51,13.1,2.74,13.1,2.74,0,0,25.02-9.19,27.77-8.9,2.75,.29,.98,7.58-4.14,11.91,0,0,6.95,6.61,5.47,10.97Z"/>
  </g>
</svg>