<?xml version="1.0" encoding="UTF-8"?>
<svg id="Layer_2" data-name="Layer 2" xmlns="http://www.w3.org/2000/svg" viewBox="0 0 553.18 654.5">
  <defs>
    <style>
      .cls-1 {
        fill:#808080
      }
    </style>
  </defs>
  <g id="Layer_1-2" data-name="Layer 1">
    <path class="cls-1" d="m241.92,205.57c3.18,20.89,11.68,24.31,30.08,12.93-9.45-4.07-19.14-8.24-30.08-12.93h0Zm311.27,433.77c-6.41-1.91-9.12,2.99-12.47,6.97-13.53-26.5-31.77-49.53-51.72-75.89,1.76,24.45-9.78,41.15-19.79,58.67-5.62,9.87-13.23,11.54-22.27,7.34-6.64-3.08-13.11-7.35-18.38-12.43-24.1-23.33-48.44-46.47-68.98-73.17-2.53-3.3-5.72-6.08-8.72-9-4.28-4.19-9.34-9.54-15.3-6.91-6.32,2.81-12.12,8.07-10.3,16.91-2.04-4.47-4.09-8.95-6.91-15.1-3.7,5.26-5.77,11.22-9.61,12.76-3.18,1.28-9.12-1.82-12.53-4.6-1.99-1.61-1.84-4.46-5.73-2.53-10.39,5.11-13.85,13.48-10.93,27.67-5.69-11.22-.16-19.14-.28-31.1-20.11,33.38-43.38,59.26-67.48,84.35-26.22,27.29-33.42,26.17-53.09-5.2-7.66-12.22-10.33-25.75-10.99-39.82-.3-6.33-.04-12.68-.04-21.72-14.46,11.99-27.64,21.33-38.88,32.58-20.3,20.34-41.78,39.67-59.26,62.64-3.68,4.82-6.54,2.26-8.92-.03-3.72-3.55-.91-5.68,2.27-8.49,31.23-27.67,58.01-60.06,90.51-86.29,12.6-10.19,13.57-25.21,19.43-37.96,25.77-56.14,35-117.82,57.02-175.29,4.11-10.74.93-13.97-9.3-15.2-13.49-1.59-26.72-2.85-38.95,5.27-3.5-3.54,3.93-5.14,1.3-7.57-17.07-15.68-20.72-38.29-26.84-58.36-10.66-34.95-30.38-59.72-62.03-77.23-23.46-12.97-45.03-29.35-68.16-43-8.7-5.15-6.18-9.34-2.14-15.65,9.1,16.07,26.08,22.98,40.22,31.38,23.73,14.14,46.37,29.75,69.4,44.82,1.5.99,3.2,4,3.74,3.74,15.49-7.12,12.39,7.16,14.66,13.43,8.56,23.58,16.49,47.37,24.11,71.28,3.37,10.56,8.43,17.03,20.73,15.23,5.95-.86,12.11-.11,18.16-.3,25.14-.73,33.36-3.61,37.56-26.61,3.04-16.69,14.31-35.1-1.47-53.6-8.7-10.2-9.01-26.26-9.24-39.95-.45-26.38-1.43-52.76-.35-79.25.69-17.07-11.41-31.92-18.53-47.45-8.97-19.57-18.43-38.82-33.63-54.6-1.91-2-6.47-4.65-.73-8.51,4.57-3.08,4.89-1.3,7.72,2.49,22.92,30.79,37.65,65.58,53.24,100.32,7.24,16.16-.59,29.49,1.24,44.05,1.09,8.64-.76,17.68-1.66,26.49-.7,6.95.73,12.74,8.7,18.14-4.27-11.89-1.49-21.49,5.49-29.4,7.58-8.58,18.8-9.18,29.17-11.41,4.35-.93,11.12,2.72,12.73-2.3,2.82-8.77-6.35-1.16-7.19-3.99-.88-2.92-.11-6.61.82-9.7.46-1.51,38.09-1.04,38.1.15.11,20.57,17.85,12.24,27.52,16.56,12.16,5.42,20.26,16.03,19.62,29.22-.66,13.45-10.49,27.95-20.98,30.13-3.87.8-8.41-.54-10.5,4.12-.3.65,1.08,2.92,1.97,3.12,4.78,1.07,9.16,4.99,14.57,1.97,8.92-4.95,22.42-33.68,20.35-43.71-2.8-13.62-3.43-27.67-8.2-40.94-1.91-5.32-.35-9.61,3.22-15.02,19.8-30.02,38.88-60.55,57.25-91.47,4.97-8.38,8.24-10.35,14.52-2.96-21.87,28.14-38.5,59.75-58.98,88.78-4.96,7.04-4.76,14.87-3.38,23.72,3.46,22.3,8.58,44.75,3.23,67.54-2.77,11.85-11.22,20.79-16.43,31.41-.89,1.8-4.1,3.8-2.74,5.51,8.16,10.42,6.85,21.37,6.6,33.95-.22,10.87,10.85,21.58,18.6,31.31,6.42,8.08,39.05,15.61,47.65,10.43,4.11-2.45,5.16-7.31,5.14-12.16-.12-27.5-.14-55.02-.43-82.55-.01-2.15-2.11-5.19.55-6.07,16.62-5.45,21.12-22.18,30.98-33.68,16.57-19.33,33.36-38.3,51.92-55.68,2.04-1.92,4.91-3.47,5.91-5.84,5.65-13.16,9.51-6.47,13.52.19-33.46,25.5-59.33,57.59-83.96,90.39-6.99,9.31-6.62,23.68-7.45,36.25-1.42,21.69-1.19,43.51-5.08,65.05-3.37,18.52-10.51,23.88-28.49,19.99-4.51-.97-10.15-4.16-13.12-.36-3.23,4.08,1.99,8.55,4.09,12.45,14.83,27.45,29.35,55.16,38.78,84.93,13.53,42.69,37.15,81.54,46.52,125.99,2.19,10.37,14.75,18.33,21.89,27.9,10.88,14.5,21.23,29.41,31.75,44.19,2.51,3.54,4.95,6.92,10.08,5.46v2.81h0Z"/>
  </g>
</svg>