<?xml version="1.0" encoding="UTF-8"?>
<svg id="Layer_2" data-name="Layer 2" xmlns="http://www.w3.org/2000/svg" viewBox="0 0 654.5 496.56">
  <defs>
    <style>
      .cls-1 {
        fill:#808080
      }
    </style>
  </defs>
  <g id="Layer_1-2" data-name="Layer 1">
    <path class="cls-1" d="m446.83,496.56h-24.82c-4.52-1.68-9.24-2.41-13.98-3.14-9.69-1.49-17.75-5.67-22.79-14.52-5.61-9.85-7.3-20.92-9.14-31.77-5.72-33.87-11.57-67.74-15.22-101.92-2.2-20.7-5.33-41.26-9.94-61.57-1.19-5.22-3.79-9.69-7.36-13.61-.86-.95-1.89-2.25-3.24-1.71-2.07.83-.82,2.61-.6,3.98.53,3.21,1.23,6.4,1.77,9.62,2.82,17.03-.36,33.86-1.99,50.7-.94,9.68-1.79,19.55-6.03,28.6-1.34,2.88-3.29,5.15-6.88,5.15-3.59,0-5.45-2.29-6.88-5.15-1.88-3.73-3.07-7.74-3.57-11.83-3.21-25.83-8.88-51.59-2.48-77.74.29-1.19.98-2.81-.77-3.29-.76-.21-2.04.56-2.76,1.24-3.57,3.35-7.01,7.59-7.19,12.14-.44,11.25-5.4,21.3-6.77,32.39-6.35,51.56-11.99,103.25-23.78,153.99-3.3,14.2-13.24,23.45-27.82,25.45-4.5.62-8.89,1.98-13.34,3h-24.82c-5.01-2.98-10.59-3.44-16.24-4.19-9.96-1.34-18.76-4.23-25.23-13.65-4.87-7.09-7.15-15.21-11.9-22.18-11.09-16.29-20.94-33.14-21.88-53.62-.1-2.13-1.21-4.08-2.18-6.06-8.15-16.75-13.34-34.76-17.82-52.54-3.74-14.83-7.75-29.37-15.23-42.35-5.47-9.49-5.34-17.31-.36-26.11,3.8-6.71,8.52-12.5,14.86-17.08,5.48-3.97,11.54-6.84,18.02-10.22-10.02-5.56-20.65-7.92-30.63-11.74-13.84-5.3-24.53-13.89-30.54-26.78-9.2-19.73-16.49-40.27-15.25-62.72.22-3.89.13-7.9-.61-11.7-2.33-11.97-.75-22.88,7.31-32.49,1.97-2.35,3.98-5.35,2.81-8.33-3.8-9.65-7.03-19.88-19.06-22.92-17.87-4.51-31.5-15.25-42.48-29.69v-22.2C16.96,6.66,37.27,1.63,57.8.32c45.37-2.9,84.32,13.83,116.16,45.42,35.52,35.24,63.85,76.38,91.95,117.57,12.98,19.03,24.46,39.14,40.06,56.32,1.52,1.68,2.65,4.07,5.92,4.26-.21-4.14-.21-8.19-.68-12.18-.34-2.84,0-5.37,2.29-7.04,3.28-2.4,2.67-4.92,1.08-7.93-3.27-6.19-7.04-12.05-11.98-17.02-9.65-9.69-19.03-19.75-31.37-26.26-1.71-.91-3.78-2.18-2.34-4.5,1.18-1.89,3.15-.81,4.71-.09.97.45,1.83,1.16,2.65,1.86,6.29,5.36,12.56,10.76,18.84,16.13,10.03,8.58,18.49,18.4,24.15,30.45,1.48,3.13,2.55,6.34,7.16,6.42,4.88.09,6.19-3.18,7.73-6.59,9.55-21.18,28.61-33.45,45.19-48.03,1.35-1.19,3.89-2.24,5.18,0,1.29,2.24-.87,3.5-2.6,4.44-13,7.11-23.07,17.67-33.09,28.25-4.36,4.61-7.66,10.02-10.46,15.71-.97,1.97-2.13,4.19.17,5.89,3.73,2.77,3.93,6.25,3.24,10.44-.53,3.25-.1,6.67-.1,10.3,2.73-.71,3.87-2.66,5.31-4.19,11.71-12.43,20.87-26.75,30.07-41,25.05-38.8,52.53-75.79,81.84-111.47,23.03-28.05,50.28-49.52,85.28-60.98,33.22-10.88,65.12-7.34,96.87,5.29,16.15,6.42,15.72,23.25,9.37,33.02-7.71,11.86-18.88,20.3-32.77,24.65-4.55,1.42-9.06,3.21-13.25,5.48-10.68,5.81-14.92,21.32-8.01,30.79,5.98,8.2,7.11,16.99,5.95,26.59-.55,4.52-1.38,9.14-1.03,13.63,1.63,20.44-5.19,39.13-12.18,57.61-6.2,16.39-17.9,27.41-34.89,33.68-9.6,3.54-19.92,5.64-29.23,11.39,3.19,1.63,6.09,3.05,8.93,4.58,9.98,5.35,18.28,12.41,23.76,22.59,4.78,8.88,5.44,16.76-.38,26.12-6.41,10.35-11,21.93-13.55,34.12-1.03,4.89.03,10.17-2.38,14.72-6.51,12.25-9.98,25.5-12.91,38.88-1.15,5.26-6.34,8.17-6.62,13.9-.87,17.5-8.01,32.68-17.79,46.94-3.02,4.41-6.56,8.67-8.11,14.04-4.81,16.55-17.84,27.05-34.79,28.04-5.09.29-9.88,1.45-14.3,4.01h0Z"/>
  </g>
</svg>