<?xml version="1.0" encoding="UTF-8"?>
<svg id="Layer_2" data-name="Layer 2" xmlns="http://www.w3.org/2000/svg" viewBox="0 0 540.99 654.5">
  <defs>
    <style>
      .cls-1 {
        fill:#808080
      }
    </style>
  </defs>
  <g id="Layer_1-2" data-name="Layer 1">
    <path class="cls-1" d="m538.41,535.68c-2.12-2.81-5.54-8.77-8.3-10.92-6.72-5.08-16.43-1.62-23.73-5.84-5.22-3.12-10.17-8.04-14.74-11.85-3.2-24.18-7.4-46.93-15.91-69.87-8.5-22.25-19.3-43.68-28.34-65.65-9.05-21.18-17.93-42.5-27.23-63.58-5.1-11.47-9.81-23.22-15.69-34.39-4.7-9.51-12.84-18.57-13.58-29.69-.68-8.8,5.66-23.44,16.16-14.21,6.72,6.01,10.93,14.14,17.05,20.77,11.86,13.11,34.28,27.88,52.57,24.13,13.26-2.76,22.06-14.97,35.51-17.79,4.1-.93,13.94-3,17.19.21-.14-8.44-3.06-16.57-12.47-18.1-9.31-1.53-15.85,5.44-22.61,10.56-7.98,5.99-18.15,10.76-28.47,10.3-13.07-.53-18.38-11.92-26.33-20.41-7.08-7.89-18.86-14.45-28.36-19.77-12.11-6.68-19.43-8.01-32.97-5.82-1.06-2.57-11.34-26.18-9.98-27.8,5.67-5.82,11.92-11.57,15.48-19.01,1.25-2.98,1.44-4.77,1.97-8.16,1.36-9.39,13.28-9.82,18.97-16,4.67-4.91,5.74-15.47-1.04-19.34-8.43-4.67-15.84,7.32-21.4,11.54-4.41,3.53-6.45,8.94-10.36,12.81-3.25,3.22-7.82,5.27-11.48,7.63,1.53-.88-11.02-52.6-11.8-54.97-.91-2.51-12.44-22.51-15.07-20.49,3.29-2.74,7.08-4.36,9.9-7.89,9.35-12.23,17.17-20.91,31.21-28.52,12.44-6.82,25.8-11.97,38.7-18.05,20.2-9.66,35.65-16,58.58-14.57,6.34.31,12.39.64,18.48,1.95,5.69,1.14,25.97,1.1,13.88-8.58C498.46-.36,490.47.24,483.68.03c-7.36-.24-14.19,1.27-21.38,1.62-21.53,1.03-38.81,3.74-58.22,13.52-25.89,12.9-47.65,32.29-72.29,47.02-6.18,3.6-12.47,10.59-19.9,11.28-3.8.41-11.35-3.07-14.95-4.29-18.67-6.18-34.26-6.18-52.89,0-3.66,1.22-11.12,4.7-14.84,4.29-7.51-.69-13.85-7.68-20.03-11.28-24.68-14.74-46.38-34.12-72.22-47.02C117.47,5.39,100.22,2.67,78.84,1.65c-7.3-.36-14.13-1.86-21.51-1.62-7,.21-14.76-.38-20.56,4.32-12.02,9.68,8.26,9.73,13.86,8.58,6.07-1.31,12.33-1.64,18.53-1.95,22.85-1.43,38.43,4.91,58.58,14.57,12.82,6.08,26.29,11.23,38.78,18.05,13.77,7.61,21.7,16.29,31.26,28.52,2.68,3.53,6.45,5.15,9.76,7.89-2.49-2.03-14.02,17.98-14.99,20.49-.87,2.36-13.66,54.08-11.67,54.97-4.15-2.36-8.38-4.41-11.66-7.63-4.02-3.86-5.99-9.27-10.59-12.81-5.41-4.22-12.78-16.21-21.21-11.54-6.77,3.86-5.79,14.43-1.12,19.34,5.91,6.18,17.42,6.61,19.09,16,.49,3.39.62,5.18,2.07,8.16,3.58,7.44,9.75,13.19,15.25,19.01,1.48,1.62-8.88,25.23-9.9,27.8-13.53-2.19-20.91-.86-33.16,5.82-9.31,5.32-21.24,11.88-28.32,19.77-7.87,8.49-13.2,19.88-26.18,20.41-10.3.45-20.39-4.31-28.51-10.3-6.81-5.12-13.31-12.09-22.65-10.56-9.3,1.53-12.08,9.66-12.35,18.1,3.3-3.22,12.92-1.14,17.16-.21,13.4,2.82,22.16,15.02,35.38,17.79,18.42,3.75,40.94-11.02,52.77-24.13,5.99-6.63,10.19-14.76,17.09-20.77,10.44-9.23,16.79,5.41,16.13,14.21-.74,11.11-9.03,20.18-13.87,29.69-5.65,11.16-10.51,22.92-15.55,34.39-9.24,21.08-18.1,42.4-27.17,63.58-9.29,21.96-19.9,43.4-28.34,65.65-8.59,22.94-12.76,45.69-15.82,69.87-4.62,3.81-9.57,8.73-14.76,11.85-7.35,4.22-17.22.76-23.79,5.84-2.73,2.15-5.98,8.11-8.3,10.92-2.11,2.65-2.85,2.74-2.52,6.61.93,10.2,10.55,1.62,14.4-1.67,7.15-6.13,11.25-8.92,20.56-11.09,5.48-1.38,9.43-6.65,14.13-9.52-3.04,1.77.38,21.66,1.23,24.87,2.77,9.13,9.7,16.45,15.39,23.94,7.05,9.11,22.02,25.66,35.11,18.05,12.66-7.44,12.85-29.52,15.58-42.37,2.62-12.3,4.63-24.78,7.82-36.89,10.58-41.4,20.75-82.77,31.11-124.17-1.46,8.32,1.12,17.84,1.66,26.25.42,11.25.91,22.46,1.59,33.72,2.09,32.19,7.88,64.72,21.54,94.53,9.59,20.79,16.45,42.61,24.73,63.98,16.49,42.83,71.48,73.45,108.87,35.08,9.18-9.47,17.49-22.75,22.28-35.08,8.17-21.36,15.17-43.18,24.68-63.98,13.69-29.81,19.54-62.33,21.66-94.53.69-11.25,1.1-22.46,1.62-33.72.38-8.42,2.95-17.93,1.59-26.25,10.32,41.4,20.56,82.77,31.11,124.17,3.05,12.11,5.27,24.59,7.79,36.89,2.73,12.85,3.09,34.93,15.61,42.37,13.09,7.61,27.98-8.94,35.04-18.05,5.73-7.49,12.63-14.81,15.3-23.94,1.01-3.22,4.46-23.11,1.29-24.87,4.84,2.86,8.73,8.13,14.32,9.52,9.3,2.17,13.37,4.96,20.36,11.09,3.93,3.29,13.51,11.87,14.49,1.67.27-3.87-.32-3.96-2.52-6.61h0Z"/>
  </g>
</svg>