<?xml version="1.0" encoding="UTF-8"?>
<svg id="Layer_2" data-name="Layer 2" xmlns="http://www.w3.org/2000/svg" viewBox="0 0 654.5 613.37">
  <defs>
    <style>
      .cls-1 {
        fill:#808080
      }
    </style>
  </defs>
  <g id="Layer_1-2" data-name="Layer 1">
    <path class="cls-1" d="m311.5,0c-22.35,65.78-43.02,132.09-75.02,194.1-12.28,23.82-7.97,32.73,19.72,28.12,20.04-3.36,36.93,9.13,54.98,14.58,100.15,29.57,196.98,69.4,288.95,118.87,28.12,15.53,62.95,33.99,52.46,71.24-11.12,38.92-51.52,30.01-83.93,29.48-39.66-.73-75.75-17.31-115.41-34.2,2.94,37.35,16.05,70.51,9.13,104.92-6.92,34.41-10.49,73.44-54.24,84.56-32.52,8.08-67.78-13.22-92.96-54.03-32.31-52.46-50.15-111.32-77.85-165.77-8.39-16.37-17.63-32.31-28.54-52.46-25.18,40.29-2.94,95.06-60.33,120.97,20.98-30.32,38.82-55.19,29.27-87.4-13.64,5.35-9.86,26.65-30.64,27.7,29.8-31.48,12.8-77.43,41.23-110.58,18.47-20.98-3.67-69.88-35.99-80.58-35.46-11.23-72.08-18.15-108.28-27.59-15.32-4.09-31.48-6.61-44.07-22.03,11.82-7.35,26.66-7.83,38.92-1.26,49.73,20.46,106.18,21.93,151.4,54.35,14.27,10.49,20.98,2.73,26.75-10.49,12.28-31.48,28.01-60.96,35.15-94.43,6.84-38.89,22.17-75.79,44.91-108.07h14.37Z"/>
  </g>
</svg>