<?xml version="1.0" encoding="UTF-8"?>
<svg id="Layer_2" data-name="Layer 2" xmlns="http://www.w3.org/2000/svg" viewBox="0 0 654.5 488.11">
  <defs>
    <style>
      .cls-1 {
        fill:#808080
      }
    </style>
  </defs>
  <g id="Layer_1-2" data-name="Layer 1">
    <path class="cls-1" d="m14.58,38.02c6.68-2.14,13.87-2.03,20.77-2.18,12.39-.31,24.61,1.54,36.73,3.76,37.91,7,75.17,19.41,113.68,22.31,27.05,1.94,54.12,3.46,80.84,8.02-.51-.07-1.15-3.25-1.49-3.72-1.31-1.86-3.92-2.93-5.85-4.21-5.91-4.01-12.01-8.13-17.01-13.36.15-.3.25-.62.32-.93.66-1.85,6.87,4.08,7.68,4.77,3.3,2.57,6.68,5.09,10.47,7.09,2.14,1.19,4.92,1.19,6.87,2.65,3.55,2.72,2.09,8.17,6.94,10.06,2.95,1.21,6.08,1.54,8.98,2.61,4.07,1.46,8.2,3.04,12.16,4.67-2.44-2.53,5.68-10.45,7.15-12.43,1.54-1.89,2.96-3.84,4.65-5.57,2.01-2.18,7.39-4.9,7.04-8.59-.05-.25-.43-3.33-.28-3.4-9.12,3.59-16.84,13.63-27.74,8.96-4.99-2.11-4.16-8.22-4.69-12.71-.43-4.11-.77-8.35-.25-12.48.42-3.1,3.25-7.21,2.95-10.14-.22-1.82-2.25-3.84-2.85-5.63-.77-2.18-.79-4.56-1.74-6.7-.96-2.18-3-4.64-2.93-7.17,0-.98,2.68-4.62,2.85-3.47,1.35,5.78,3.43,11.28,5.35,16.95.36.91,2.5,2.73,3.08,3.69.66.92.3,2.46.3,2.46-1.45,3.71-3.61,6.55-4.15,10.65-.61,4.41.08,8.86.53,13.22.6,6.79,2.7,6.75,8.64,5.06,3.49-.99,6.7-1.42,10.47-1.42,1.5,0,4.29-1.84,4.29-1.84-.63-5.82-3.54-2.7-7.5-4.24-9.5-3.76-6.16-15.88-2.2-22.64,1.24-2.17,2.91-4.03,5.14-5.35.34-.2,6.08-2.15,6.08-1.42,0-4.42-1.24-5.37-2.88-9.08-.35-.83-.94-1.49-.78-2.42.07-.32,1.44-1.86,1.44-1.86.41.55,5.28,6.21,5.67,5.56,4.3-6.77,14.54-8.18,21.71-5.56,2.83,1.03,4.82,3.02,6.29,5.56.38.64,5.27-5.01,5.73-5.56,0,0,1.35,1.54,1.44,1.86.1.92-.53,1.59-.86,2.42-1.64,3.71-2.95,4.65-2.95,9.08,0-.73,5.76,1.22,6.21,1.42,2.19,1.33,3.83,3.19,5.09,5.35,3.87,6.76,7.32,18.88-2.19,22.64-3.91,1.54-6.91-1.58-7.51,4.24,0,0,2.74,1.84,4.34,1.84,3.68,0,6.92.43,10.38,1.42,5.98,1.69,8.05,1.73,8.71-5.06.45-4.36,1.09-8.82.51-13.22-.51-4.09-2.74-6.94-4.22-10.65,0,0-.25-1.54.33-2.46.64-.96,2.85-2.78,3.1-3.69,1.89-5.67,4.05-11.16,5.35-16.95.2-1.16,2.83,2.48,2.83,3.47.07,2.53-1.97,4.99-2.91,7.17-.9,2.14-.98,4.52-1.71,6.7-.58,1.79-2.68,3.81-2.83,5.63-.36,2.93,2.48,7.04,2.87,10.14.66,4.14.21,8.37-.22,12.48-.55,4.49.33,10.6-4.72,12.71-10.77,4.67-18.48-5.37-27.72-8.96.17.07-.3,3.15-.3,3.4-.34,3.69,5.05,6.41,7.12,8.59,1.61,1.73,3.11,3.68,4.52,5.57,1.63,1.99,9.59,9.91,7.19,12.43,4.05-1.63,8.07-3.21,12.18-4.67,2.93-1.07,6.1-1.41,9.09-2.61,4.75-1.88,3.25-7.34,6.85-10.06,1.99-1.46,4.79-1.46,6.93-2.65,3.66-2,7.09-4.52,10.4-7.09.86-.69,6.99-6.62,7.67-4.77.13.32.21.64.36.93-5.07,5.23-11.08,9.36-17.06,13.36-1.92,1.28-4.54,2.35-5.86,4.21-.28.48-.94,3.66-1.52,3.72,26.78-4.56,53.84-6.08,80.91-8.02,38.5-2.9,75.79-15.3,113.68-22.31,12.09-2.22,24.42-4.07,36.7-3.76,6.89.15,14.09.04,20.78,2.18,7.09,2.23,15.02,8.67,14.47,16.82-.35,6.51-5.61,10.96-10.4,14.64-25.09,19.09-53.21,35.06-82.92,45.89-12.9,4.73-26.25,8.22-39.78,10.85-31.67,6.23-62.95,7.14-94.83,1.79-24.58-4.13-49.3-7.34-74.13-9.9,7.49.79,15.43,3.79,22.74,5.7,7.85,2,15.62,4.11,23.37,6.29,12.33,3.45,24.59,6.9,36.65,10.97,9.8,3.29,18.96,8.35,29.02,10.72,14.21,3.44,28.96,3.14,43.28,5.77,18.28,3.38,36.58,6.87,54.73,10.77,11.47,2.5,23.07,4.02,34.16,7.83,8,2.69,15.9,7.39,22.79,12.19,6.21,4.4,17.75,12.42,18.71,20.71.58,4.39-3.6,9.24-7.17,11.28-18.07,10.36-39.13,13.15-59.57,14.31-22.24,1.29-44.2,2.26-66.33,4.46-25.49,2.56-50.76,2.91-75.7-3.29-9.95-2.46-19.8-5.64-29.37-9.62-9.09-3.94-17.06-9.78-25.51-14.98-7.22-4.41-15.96-6.95-21.79-13.43-5.35-5.84-6.66-13.11-6.4-20.8.45-11.95,2.82-20.65-6.87-29.49.98.92.4,8.27.47,9.75.19,7.58-1.71,14.12-2.65,21.44-.6,4.65.13,9.08.73,13.63,1.26,8.66,2.12,17.5.89,26.22-.73,4.74-2.16,9.34-2.52,14.06-.48,6.01,1.11,11.84,1.97,17.74,1.08,7.28-.94,14.32-.54,21.6.33,7.23.77,14.36,0,21.63-.58,5.56-1.56,11.05-1.73,16.66-.09,11.39,3.5,22.78,1.54,34.17-1.03,5.99-1.54,12.03-.99,18.11.35,4.91,1.89,9.75,2.12,14.68.3,4.84-1.95,8.83-2.57,13.56-.93,6.55,2.72,12.58,3.02,18.99.26,5-2.57,9.69-2.61,14.7-.07,4.97,1.13,9.93.3,14.86-.69,4.54-2.83,8.68-2.53,13.32.71,8.81,6.66,16.52,6.19,25.49-.2,1.74-.99,10.72-4.47,9.79-2.85-.86-2.19-11.05-2.32-13.05-.38-5.92-1.22-11.62-2.74-17.27-2.25,1.78,1.18,14.19-4.65,11.35-1.09-.56-.88-.86-1.29-2-.78-1.94.24-4.76.24-6.85,0-1.12-.33-2.05-1.22-2.65-3.36,8.38-2.8,18.49-2.8,27.04,0,4.37-4.95,4.95-6.11.94-.76-2.75-.45-5.94-.27-8.74.38-8.33,5.27-15.69,5.82-24.03.37-4.63-1.77-8.78-2.46-13.32-.77-4.93.34-9.9.34-14.86s-2.8-9.69-2.59-14.7c.34-6.41,3.91-12.44,2.93-18.99-.63-4.72-2.78-8.72-2.5-13.56.21-4.93,1.76-9.77,2.12-14.68.42-6.09.04-12.12-.99-18.11-2.1-11.39,1.65-22.78,1.41-34.17-.06-5.6-1.06-11.09-1.66-16.66-.77-7.27-.28-14.4.1-21.63.3-7.28-1.63-14.32-.56-21.6.86-5.9,2.4-11.73,1.93-17.74-.38-4.72-1.76-9.32-2.45-14.06-1.28-8.72-.38-17.55.79-26.22.64-4.56,1.39-8.98.77-13.63-1.05-7.32-2.85-13.85-2.59-21.44,0-1.47-.6-8.83.39-9.75-9.67,8.83-7.28,17.53-6.89,29.49.33,7.69-1.08,14.96-6.43,20.8-5.78,6.48-14.56,9.02-21.79,13.43-8.43,5.19-16.38,11.03-25.54,14.98-9.5,3.98-19.31,7.15-29.32,9.62-24.98,6.2-50.28,5.84-75.71,3.29-22.02-2.21-44.14-3.17-66.31-4.46-20.42-1.16-41.52-3.94-59.59-14.31-3.61-2.04-7.67-6.89-7.19-11.28,1.03-8.29,12.54-16.3,18.75-20.71,6.82-4.8,14.83-9.51,22.77-12.19,11.09-3.81,22.77-5.32,34.14-7.83,18.22-3.9,36.47-7.39,54.82-10.77,14.25-2.63,28.98-2.33,43.21-5.77,10.1-2.37,19.24-7.43,29-10.72,12.07-4.07,24.41-7.53,36.69-10.97,7.72-2.19,15.47-4.29,23.35-6.29,7.36-1.9,15.24-4.91,22.71-5.7-24.71,2.56-49.45,5.77-74.11,9.9-31.85,5.35-63.12,4.43-94.83-1.79-13.55-2.63-26.8-6.12-39.79-10.85-29.66-10.83-57.81-26.8-82.87-45.89C5.65,65.81.48,61.35.02,54.85c-.49-8.15,7.45-14.59,14.56-16.82h0Z"/>
  </g>
</svg>