<?xml version="1.0" encoding="UTF-8"?>
<svg id="Layer_2" data-name="Layer 2" xmlns="http://www.w3.org/2000/svg" viewBox="0 0 654.5 518.37">
  <defs>
    <style>
      .cls-1 {
        fill:#808080
      }
    </style>
  </defs>
  <g id="Layer_1-2" data-name="Layer 1">
    <path class="cls-1" d="m652.57,16.33c-3.36-7.58-11.36-12.83-20.23-14.81-14.8-3.33-32.48-.59-47.23,2.5-6.63,1.4-13.27,3.47-19.65,5.8-6.07,2.23-12.04,4.94-17.68,8-5.88,3.02-11.41,6.33-17,9.53-7.6,4.28-15.17,8.55-22.55,13.16-12.57,7.6-24.68,15.76-36.41,24.6-7.94,6.01-14.77,13.39-21.44,20.82-13.84,15.61-29.2,29.82-43.41,45.05-4.13,4.4-8.17,8.91-12.06,13.59-5,5.99-9.86,12.11-14.4,18.42-6.73,9.35-12.23,19.39-18.42,28.98-1.1,1.61-15.06,15.23-15.13,15.09-2.68-3.95-7.29-7.56-5.72-13.01.71-2.27,3.25-3.45,3.76-5.73,1.07-4.82-5.08-9.75-8.38-12.28-.41-.22-.8-.73-1.42-1.3l7.68-11.24,5.99-8.13,9.98-11.43,7.39-7.96c7.69-6.87,14.07-14.4,19.52-23.25.23-.2,4.98-7.95,4.98-7.95l3.78-6.69,4.46-7.2c.94-1.51,3.9-2.85,3.39-4.98-.31-1.77-2.8-2.23-4.2-1.59-2.07.9-3.08,3.31-3.99,5.19-4.07,8.12-5.99,16.6-11.8,23.94-5.82,7.4-11.69,14.64-18.53,21.3-2.43,2.5-5.75,4.98-7.74,7.94-3.5,5.19-8.46,9.41-12.09,14.42-2.36,3.17-4.24,7.11-7,9.9-.39.4-2.12,3.39-3.67,6.12-1.68-1.44-4.19-2.36-6.47-2.36-.52,0-6.19,1.28-5.63,2.36-1.52-2.74-3.24-5.73-3.72-6.12-2.66-2.8-4.58-6.74-6.9-9.9-3.72-5-8.7-9.23-12.14-14.42-2.03-2.96-5.37-5.44-7.91-7.94-6.69-6.67-12.48-13.9-18.36-21.3-5.79-7.34-7.71-15.82-11.78-23.94-.98-1.87-1.98-4.29-4.1-5.19-1.38-.64-3.78-.18-4.18,1.59-.51,2.13,2.51,3.46,3.45,4.98l4.44,7.2,3.76,6.69s4.83,7.75,4.97,7.95c5.51,8.84,11.89,16.37,19.6,23.25l7.45,7.96,9.83,11.43,5.99,8.13,7.76,11.24c-.62.58-1.23,1.09-1.4,1.3-3.23,2.53-9.53,7.46-8.42,12.28.51,2.28,3.08,3.46,3.72,5.73,1.64,5.45-2.99,9.06-5.75,13.01-.06.14-13.93-13.48-14.97-15.09-6.31-9.59-11.78-19.63-18.45-28.98-4.58-6.31-9.44-12.43-14.38-18.42-3.93-4.68-8.02-9.19-12.17-13.59-14.18-15.23-29.61-29.44-43.45-45.05-6.67-7.43-13.4-14.81-21.35-20.82-11.72-8.85-23.95-17.01-36.39-24.6-7.43-4.61-15-8.89-22.56-13.16-5.63-3.19-11.27-6.5-17.13-9.53-5.64-3.06-11.52-5.77-17.59-8-6.43-2.33-13.02-4.4-19.74-5.8C54.77.93,37.05-1.81,22.16,1.52,13.38,3.5,5.33,8.75,1.91,16.33c-4.48,10.09,0,21.6,2.66,31.54,1.83,6.75,3.98,13.5,7.69,19.5,1.69,2.72,3.72,5.12,5.99,7.32,1.97,1.87,3.72,3.4,4.31,6.09.74,3.05.09,6.36.98,9.4,1.13,4.19,3.28,8.3,6.11,11.61,2.45,2.88,6.38,4.48,8.42,7.75,1.33,2.17-.31,4.67-.59,7.15-1.07,8.74,5.03,15.93,10.98,21.51,4.89,4.59,3.93,11.5,4.63,17.63.35,3.33,1.61,6.8,3.36,9.63.68.9,5.99,6.48,7.1,5.11-5.88,7.11-6.2,21.64-.32,28.86,1.9,2.32,4.06,4.47,5.22,7.23,1.28,2.97.91,6.22,1.79,9.32,5.22,19.27,24.29,31.59,42.84,35.48,5.35,1.1,10.74,1.66,16.05,2.26,2.65.26,5.19.53,7.82.79,1.23.06,6.34,1.22,7.37.52-6.13,4.61-12.12,9.18-18.16,13.75-11.04,8.31-19.97,17.48-26.1,30.13-2.95,5.97-7.04,12.75-3.65,19.45,2.62,4.97,7.6,6.47,7.45,12.72-.09,5.71-5.14,10.83-4.61,16.49.48,6.1,7.43,7.06,11.67,9.8,4.89,3.23,7.1,8.72,6.53,14.61-.74,6.6-5.29,12.2-5,19.15.14,6.7,7.01,7.96,12.26,9.69,6.47,2.17,12.85,6.64,12.96,14.06.06,7.08-4.24,12.52-7.63,18.35-1.75,3.15-5.05,5.95-7.48,8.55-4.15,4.5-8.3,8.85-12.54,13.2-12.32,12.75-32.15,26.2-34.88,45.07-.68,4.91-1.33,9.52,2.4,13.38,2.87,3,7,4.71,11.15,4.93,11.1.57,14.66-11.16,17.99-19.49,4.72-11.58,8.98-23.61,15.4-34.41,6.66-10.94,28.21-27.01,38.64-10.92,3.96,6.12.51,18.04,9.32,20.72,10.01,3.12,11.58-12.15,20.32-11.72,4.85.28,9.26,6.84,12.79,9.61,4.37,3.53,9.52,4.83,14.51,1.78,3.34-2.1,5.51-5.09,7.04-8.56,2.68-6.35,2.94-13.46,4.78-20.09,1.97-7.65,6.95-12.81,14.3-15.72,4.2-1.68,8.33-4.22,10.78-7.91,5.57-7.98,6.78-19.72,8.7-28.93,1.39-6.62,2.6-13.22,3.85-19.76,4.35-21.68,11.13-41.61,21.46-61.16,9.26-17.3,17.57-35.17,23.65-53.76-1.05,2.98-.22,7.73-.33,10.86-.54,21.89-5.91,46.41,3.55,67.11,1.9,3.99,3.99,7.44,8.71,8.33,3.02.54,6.41.77,9.23-.57,3.39-1.53,4.35-4.74,5.66-7.76,9.55-20.7,4.22-45.22,3.63-67.11-.07-3.13.68-7.87-.33-10.86,6.01,18.59,14.34,36.46,23.65,53.76,10.28,19.55,17.03,39.49,21.4,61.16,1.27,6.54,2.6,13.15,3.84,19.76,1.9,9.22,3.17,20.95,8.76,28.93,2.54,3.7,6.67,6.23,10.82,7.91,7.31,2.91,12.26,8.07,14.34,15.72,1.75,6.63,2.03,13.74,4.72,20.09,1.42,3.47,3.62,6.47,6.95,8.56,5.14,3.05,10.16,1.75,14.66-1.78,3.44-2.77,7.91-9.33,12.7-9.61,8.79-.43,10.38,14.84,20.34,11.72,8.72-2.68,5.33-14.6,9.31-20.72,10.46-16.09,31.9-.02,38.57,10.92,6.52,10.8,10.82,22.83,15.45,34.41,3.3,8.33,6.89,20.06,18.01,19.49,4.13-.22,8.33-1.92,11.1-4.93,3.76-3.86,3.06-8.47,2.4-13.38-2.74-18.88-22.54-32.32-34.94-45.07-4.12-4.35-8.3-8.7-12.42-13.2-2.38-2.6-5.79-5.4-7.51-8.55-3.39-5.83-7.69-11.26-7.58-18.35.09-7.42,6.44-11.89,12.94-14.06,5.22-1.73,12.01-2.98,12.37-9.69.26-6.95-4.46-12.54-5.08-19.15-.65-5.89,1.53-11.39,6.5-14.61,4.21-2.74,11.13-3.7,11.6-9.8.54-5.66-4.46-10.78-4.57-16.49-.15-6.25,4.88-7.75,7.43-12.72,3.41-6.7-.74-13.48-3.73-19.45-5.99-12.64-14.86-21.82-25.99-30.13-5.99-4.57-12.15-9.14-18.05-13.75.83.7,5.9-.45,7.21-.52,2.6-.26,5.2-.53,7.8-.79,5.47-.59,10.78-1.16,16.04-2.26,18.61-3.89,37.62-16.22,42.95-35.48.83-3.09.48-6.35,1.76-9.32,1.18-2.76,3.35-4.92,5.25-7.23,5.79-7.22,5.53-21.75-.28-28.86,1.07,1.37,6.36-4.21,6.97-5.11,1.9-2.83,3.08-6.31,3.45-9.63.65-6.14-.37-13.05,4.61-17.63,5.95-5.58,12.02-12.78,10.95-21.51-.33-2.48-1.86-4.98-.59-7.15,1.97-3.27,5.93-4.87,8.44-7.75,2.83-3.3,4.98-7.42,6.07-11.61.94-3.04.23-6.36,1.02-9.4.59-2.68,2.34-4.21,4.26-6.09,2.34-2.19,4.26-4.6,6.04-7.32,3.68-6,5.85-12.75,7.66-19.5,2.74-9.95,7.09-21.45,2.6-31.54h0Z"/>
  </g>
</svg>