<?xml version="1.0" encoding="UTF-8"?>
<svg id="Layer_2" data-name="Layer 2" xmlns="http://www.w3.org/2000/svg" viewBox="0 0 588.65 654.5">
  <defs>
    <style>
      .cls-1 {
        fill:#808080
      }
    </style>
  </defs>
  <g id="Layer_1-2" data-name="Layer 1">
    <path class="cls-1" d="m6.52,426.22c4.84-1.91,9.85-3.2,14.84-4.39,8.01-1.99,16.92-2.59,24.58-5.47,7.46-2.71,14.1-7.08,21.65-9.84,6.16-2.18,11.75-4.16,17.14-8.06,10.43-7.91,18.05-18.83,28.27-26.99,7.91-6.25,16.22-11.85,24.57-17.41,5.74-3.94,11.41-8.54,18.01-11,6.46-2.27,13.43-2.37,20.2-2.74,9.85-.61,19.59-.3,29.41-.61,8.36-.23,18.38.08,25.95-3.8,3.06-1.66,5.71-4.05,8.96-5.22,2.55-.91,5.99-.47,8.24-2.25,3.34-2.69,4.34-7.63,7.42-10.58,3.43-3.14,9.28-7.44,6.86-12.72-2.41-5.53-10.87-5.6-14.08-10.54-8.64-13.27-18.16-22.79-19.35-39.54-.85-11.21,2.99-21.99-1.37-32.9-3.58-8.76-10.43-15.75-18.59-20.5-7.38-4.28-12.87-9.42-17.2-16.64-1.41-2.42-6.4-8.37-6.6-11.57-4.3.36-7.66,9.01-11.38,11.11-3.54,1.95-7.4,1.32-11.18,2.33-3.88,1.04-14.58,14.84-18.23,11.22-2.64-2.82.6-5.75,2.56-7.61,4.97-4.65,11.02-9.05,17.39-11.45,3.1-1.23,7.25-1.42,9.16-4.47,1.78-2.63.54-6.15,2.21-8.84,2.19-3.6,7.24-4.09,10.93-3.6,9.45.87,12.25,7.59,17.39,14.44,6.81,9.08,17.23,14.8,23.76,24,4.23,5.98,6.61,11.35,11.87,16.6,2.99,2.93,2.99,4.96,3.34,7.91.47,2.86.47,12.83.47,14.95,0,9.62-.52,53.56,19.11,47.51-6.64-12.04-10.44-25.1-8.46-38.95,1.85-12.25,3.25-26.5,11.8-36-6.36.26-15.86-6.15-20.29-10.11-5.51-4.94-9.59-11.49-12.71-18.13-6.38-13.63-8.07-29.11-7.25-44.14.13-2.02,1.17-19.21,4.01-19.64-6.11.93-11.82,3.18-17.68,5.34-10.17,3.88-37.35,31.49-46.86,15.58-5.16-8.4-2.49-19.4-2.21-28.5,1.06-35.01-23.28-65.48-21.72-100.25.2-5.96,3.58-19.02,10.34-9.22,6.86,10.09,4.13,24.51,5.73,35.9,2.4,16.81,6.85,33.25,9.17,50.14,2.41,16.69,4.04,31.64,10.24,47.66,12.54-6.08,25.12-12.53,36.86-19.89,7.66-4.77,13.28-8.65,21.97-11.32.5-.19,1.09-15.03,1.39-16.86.87-6.28,2.58-12.51,5.02-18.51,4.55-11.62,12.17-22.98,23.73-28.58,15.23-7.51,41.48-7.55,56.79,0,11.56,5.6,19.07,16.96,23.75,28.58,2.26,6,3.97,12.23,4.97,18.51.22,1.84.79,16.67,1.32,16.86,8.79,2.67,14.45,6.55,22.07,11.32,11.77,7.36,24.29,13.82,36.75,19.89,6.26-16.01,7.92-30.96,10.32-47.66,2.26-16.88,6.68-33.33,9.16-50.14,1.56-11.39-1.17-25.82,5.73-35.9,6.7-9.8,10.09,3.26,10.34,9.22,1.49,34.77-22.76,65.24-21.71,100.25.19,9.1,2.92,20.1-2.18,28.5-9.63,15.92-36.71-11.7-46.85-15.58-5.91-2.16-11.59-4.41-17.75-5.34,2.91.43,3.91,17.62,3.99,19.64.85,15.03-.8,30.51-7.24,44.14-3.04,6.64-7.12,13.19-12.72,18.13-4.42,3.96-13.86,10.37-20.15,10.11,8.52,9.5,9.74,23.75,11.6,36,2.15,13.86-1.71,26.91-8.26,38.95,19.44,6.06,19.07-37.89,19.07-47.51,0-2.12,0-12.09.37-14.95.41-2.95.41-4.98,3.27-7.91,5.29-5.24,7.67-10.62,11.99-16.6,6.58-9.2,16.97-14.91,23.63-24,5.17-6.85,8.16-13.57,17.46-14.44,3.84-.49,8.81,0,10.98,3.6,1.67,2.69.52,6.21,2.15,8.84,2.06,3.05,6.09,3.24,9.18,4.47,6.4,2.4,12.56,6.79,17.42,11.45,1.93,1.85,5.37,4.79,2.55,7.61-3.64,3.61-14.36-10.18-18.22-11.22-3.76-1-7.66-.38-11.13-2.33-3.76-2.1-7.08-10.75-11.31-11.11-.3,3.2-5.27,9.14-6.75,11.57-4.33,7.21-9.76,12.36-17.14,16.64-8.24,4.75-15.01,11.73-18.58,20.5-4.41,10.9-.55,21.69-1.31,32.9-1.33,16.75-10.85,26.27-19.39,39.54-3.28,4.94-11.7,5.02-14.17,10.54-2.33,5.28,3.53,9.58,6.94,12.72,3.02,2.95,4.04,7.89,7.34,10.58,2.35,1.78,5.69,1.34,8.36,2.25,3.23,1.17,5.81,3.56,8.85,5.22,7.66,3.88,17.7,3.58,25.95,3.8,9.85.31,19.66,0,29.48.61,6.71.38,13.67.47,20.16,2.74,6.57,2.46,12.27,7.06,18.01,11,8.33,5.56,16.7,11.17,24.62,17.41,10.21,8.16,17.71,19.08,28.27,26.99,5.33,3.9,11.03,5.88,17.16,8.06,7.46,2.76,14.17,7.14,21.54,9.84,7.77,2.88,16.62,3.48,24.67,5.47,5.01,1.19,10.02,2.48,14.81,4.39,3.54,1.51,11.23,7.02,2.57,8.1-5.39.7-10.69-1.42-15.75-2.59-10.85-2.52-21.26-6.25-31.3-10.47-6.14-2.52-12.43-4.56-18.38-7.19-6.85-2.91-12.99-6.81-19.96-9.6-10.29-4.16-19.46-8.67-27.81-16.05-5.93-5.3-11.2-11.15-17.03-16.58-6.99-6.51-13.04-13.4-23.33-13.4-21.25.04-40.2,2.25-59.92-8.02-5.9-3.12-12.32-5.19-18.26-8.25-5.05-2.73-10.28-6.47-16.31-3.77-10.43,4.66-5.55,19.21-3.56,27.33,1.17,5.09,2.6,10.07,2.87,15.24.78,12.06,10.3,14.57,20.13,17.98,12.3,4.24,25.04,7.7,36.34,14.25,5.71,3.26,10.94,7.12,15.14,12.32,4.56,5.64,5.64,11.75,8.22,18.25,2.35,5.62,5.69,10.92,9.07,16.01,6.73,10.05,14.45,19.63,19.68,30.59,4.81,9.77,11.04,21.77,10.56,32.89-.24,7-2.65,13.1-2.08,20.23,1.28,14.46,2.45,28.84,3.63,43.34.61,6.57,1.08,13.19,1.71,19.74.37,3.92,0,9.03,1.52,12.74,3.37,8.4,8.88,14.91,13.26,22.67,2,3.43,8.21,14.4-.78,12.25-13.75-3.25-18.57-25.28-20.21-36.62-2.56-17.58-3.02-35.54-4.25-53.28-.67-8.56-1.54-17.05-3.89-25.34-2.49-8.56-7.42-15.29-11.08-23.26-6.34-13.48-12.91-27.03-15.27-41.79-1.53-9.61-3.28-20.59-9.27-28.63-4.84-6.49-12.76-9.35-19.89-12.49-8.63-3.73-17.25-7.65-24.52-13.55-9.28-7.49-21.34-10.75-29.78-19.48-1.86-1.91-5.62-6.11-8.57-5.92-4.64.34-3.14,6.11-2.72,9.06.79,6.7.49,12.61-3.28,18.34-6.79,10.32,1,11.98,9.26,15.41,11.41,4.81,15.47,17.35,16.95,28.69,4.2,32.7.64,67.11-15.78,96.26-6.57,11.68-15.53,22.99-28.99,26.8-18.92,5.34-34.33-12.42-42.3-26.8-16.5-29.15-19.96-63.56-15.92-96.26,1.5-11.34,5.59-23.88,17.02-28.69,8.29-3.43,16.05-5.09,9.25-15.41-3.78-5.73-4.15-11.64-3.34-18.34.52-2.95,1.97-8.72-2.56-9.06-3.04-.19-6.79,4.01-8.72,5.92-8.42,8.73-20.44,11.98-29.74,19.48-7.35,5.91-15.92,9.83-24.43,13.55-7.27,3.14-15.07,6-19.99,12.49-5.99,8.04-7.72,19.02-9.31,28.63-2.37,14.76-8.94,28.31-15.12,41.79-3.77,7.97-8.68,14.7-11.21,23.26-2.37,8.29-3.23,16.79-3.86,25.34-1.28,17.73-1.65,35.7-4.21,53.28-1.8,11.34-6.46,33.37-20.21,36.62-9,2.16-2.77-8.82-.84-12.25,4.48-7.76,9.93-14.27,13.31-22.67,1.46-3.71,1.17-8.82,1.46-12.74.61-6.55,1.19-13.17,1.78-19.74,1.15-14.5,2.23-28.88,3.56-43.34.64-7.14-1.69-13.23-2.08-20.23-.55-11.13,5.81-23.13,10.56-32.89,5.34-10.96,12.95-20.54,19.69-30.59,3.28-5.09,6.69-10.39,9.05-16.01,2.73-6.49,3.78-12.6,8.29-18.25,4.21-5.2,9.42-9.07,15.12-12.32,11.3-6.55,23.95-10.01,36.22-14.25,9.87-3.41,19.37-5.92,20.18-17.98.3-5.17,1.74-10.14,2.95-15.24,2.04-8.12,6.77-22.67-3.62-27.33-5.98-2.71-11.23,1.04-16.27,3.77-5.94,3.07-12.41,5.13-18.35,8.25-19.62,10.28-38.52,8.06-59.85,8.02-10.31,0-16.4,6.89-23.37,13.4-5.72,5.43-11.11,11.28-17.1,16.58-8.24,7.38-17.39,11.89-27.72,16.05-6.9,2.78-13.13,6.68-19.92,9.6-6.03,2.63-12.26,4.68-18.33,7.19-10.16,4.22-20.56,7.95-31.31,10.47-5.03,1.17-10.46,3.29-15.73,2.59-8.74-1.08-1.15-6.59,2.47-8.1h0Z"/>
  </g>
</svg>