<?xml version="1.0" encoding="UTF-8"?>
<svg id="Layer_2" data-name="Layer 2" xmlns="http://www.w3.org/2000/svg" viewBox="0 0 541.87 654.5">
  <defs>
    <style>
      .cls-1 {
        fill:#808080
      }
    </style>
  </defs>
  <g id="Layer_1-2" data-name="Layer 1">
    <path class="cls-1" d="m539.35,347.95c-2.41,4.51-6.78,7.89-10.83,10.88-6.41,4.74-14.09,7.38-21.83,9.26-7.22,1.81-14.36,4.06-21.83,4.54-7.76.5-15.63-.16-23.34-1.37-19.12-2.87-38.03-6.22-57.02-9.63-25.61-4.59-51.68-6.49-77.49-7.7-5.2-.27-10.36-.5-15.49-.69-.78-.06-7.49-.93-7.88-.41-3,4.95-6.19,9.38-6.8,15.32-.58,6.72,1.42,13.45.7,20.2-.2,1.44,3.88,5.98,4.66,7.11,6.36,9.72,12.85,19.39,19.12,29.1,2.27,3.35,4.46,6.64,6.58,10.09,3.25,5.19,4.75,11.21,6.86,17,6.68,18.47,12.44,37.31,14.51,56.97,1.54,15.19.88,30.7,4.97,45.52,10.37,37.4,43.22,66.14,69.27,93,.46.42,7.1,6.75,6.61,7.32-.58.6-7.41-5.38-7.83-5.81-14.88-12.47-28.97-26.26-41.51-41.1-13.29-15.78-24.9-33.26-30.93-53.15-5.29-17.3-5.91-35.42-7.78-53.32-1.98-18.76-5.97-37.07-13.81-54.36-4.8-10.45-10.86-20.28-17.36-29.76-3.22-4.75-6.64-9.44-9.9-14.1-1.56-2.06-8.44-9.37-7.61-12.13-.39,1.19-.53,2.68-1.12,3.81-.17.31-2.65,3.15-2.68,2.88.75,2.83,3.1,8.35,1.34,11.07-2.05,3.25-7.54,3.26-10.75,3.92,0,6.08,2.22,2.49,6.2,5.14,2.92,1.92,5.44,7.85,4.36,11.14-1.41,4.16-6.8,7.86-9.98,10.69-.71.7,3.76,12.52,4.15,13.75,1.83,6.07,3.65,12.2,4.39,18.54.42,4.01.85,7.97,1.24,11.97,1.13,11.74,1.34,22.65-.05,34.39-2.93-.39-1.31-13.52-1.19-15.86.36-15.26-1.27-32.44-6.22-46.93,0-.15-3.24-9.36-3.24-9.36l-1.15-4.12-1.75.27c.39,2.18,2.02,5.05,1.66,7.26-.19,1.87-3.92,3.65-4.05,1.52,0-.97-.81-9.94-.81-9.94-.24,0-1.61.11-1.61.11.15,2.49.32,4.94.41,7.42.54,11.5,1.07,22.96,1.75,34.5.7,12.55,2.49,25.92,1.51,38.51-.29,3.85-.29,7.15-4.13,7.81v.16c-.29,0-.43-.08-.7-.08,0,0-.51.08-.78.08v-.16c-3.76-.65-3.81-3.96-4.07-7.81-.98-12.59.78-25.96,1.54-38.51.54-11.54,1.1-23,1.69-34.5.12-2.49.26-4.93.39-7.42,0,0-1.37-.11-1.54-.11,0,0-.81,8.97-.86,9.94-.22,2.13-3.83.36-4.1-1.52-.22-2.21,1.37-5.09,1.66-7.26l-1.71-.27-1.21,4.12s-3.13,9.21-3.22,9.36c-4.95,14.49-6.53,31.67-6.12,46.93.05,2.34,1.69,15.47-1.22,15.86-1.47-11.74-1.2-22.65-.08-34.39.39-4,.81-7.96,1.31-11.97.68-6.33,2.51-12.47,4.34-18.54.41-1.24,4.92-13.05,4.13-13.75-3.17-2.83-8.56-6.53-9.97-10.69-1.08-3.3,1.49-9.22,4.39-11.14,4-2.65,6.17.95,6.17-5.14-3.19-.66-8.71-.68-10.74-3.92-1.75-2.72.63-8.24,1.39-11.07-.12.27-2.61-2.57-2.68-2.88-.63-1.13-.75-2.62-1.17-3.81.9,2.76-6.07,10.07-7.56,12.13-3.41,4.66-6.68,9.36-9.93,14.1-6.49,9.48-12.61,19.31-17.29,29.76-7.95,17.29-11.95,35.59-13.92,54.36-1.81,17.89-2.52,36.02-7.75,53.32-6.07,19.89-17.59,37.37-30.97,53.15-12.51,14.84-26.61,28.64-41.46,41.1-.48.43-7.29,6.42-7.83,5.81-.53-.57,6.13-6.9,6.49-7.32,26.15-26.86,59.02-55.6,69.33-93,4.12-14.82,3.39-30.33,5-45.52,2.07-19.66,7.85-38.49,14.58-56.97,2.12-5.79,3.58-11.81,6.78-17,2.07-3.44,4.37-6.74,6.61-10.09,6.27-9.71,12.76-19.38,19.12-29.1.76-1.13,4.87-5.67,4.71-7.11-.81-6.75,1.25-13.48.59-20.2-.49-5.94-3.8-10.37-6.76-15.32-.36-.52-7.12.35-7.9.41-5.1.19-10.31.42-15.41.69-25.93,1.2-51.9,3.11-77.51,7.7-18.98,3.41-37.97,6.76-57.04,9.63-7.69,1.21-15.58,1.87-23.42,1.37-7.44-.48-14.63-2.72-21.85-4.54-7.71-1.88-15.32-4.52-21.81-9.26-4.05-2.99-8.44-6.37-10.76-10.88-3.51-6.82-3.15-15.62-.32-22.53,4.1-10.18,15.1-13.83,24.37-17.64,26.15-10.64,53.46-16.55,81.21-21.53,6.21-1.08,12.44-2.17,18.66-3.19,18.65-3.07,36.71,1.4,54.24,7.31-1.66-.54-3.76-17.91-4.29-20.2-1.43-6.99-2.98-13.98-4.42-20.98-2.9-13.2-7.41-26.14-11.04-39.13-2.15-7.69-4.27-15.38-6.17-23.12-1.78-7.11-7.17-12.78-12.07-17.98-5.24-5.64-10.17-11.47-15.09-17.41-20.37-24.17-40.97-48.61-62.65-71.65-5.93-6.41-12.14-12.31-18.86-17.95-5.83-4.82-12.66-10.22-15.1-17.64-.56-1.86,5.27-1.04,5.8-.81,3.58,1.59,6.17,6.14,8.88,8.82,18.71,18.96,36.09,39.09,53.49,59.26,4.51,5.28,9.03,10.57,13.58,15.81,8.61,9.83,16.92,19.97,24.92,30.26,4.08,5.2,8.15,10.43,12.13,15.7,1.73,2.26,3.15,4.59,5.56,6.08,2.88,1.77,3,2.93,3.63,6.2.93,4.89,2.71,9.55,3.83,14.37,1.34,5.58,2.65,11.23,4.09,16.75,6,22.61,12.07,45.21,18.05,67.84.12.3,1.39,6.06,1.59,6.06,9.39,2.88,18.9,5.17,27.88,8.98,6.96,2.91,13.44,6.95,20.02,10.7-1-.58-1.98-3.79-2.48-4.72-1.95-3.77-3.97-7.5-5.91-11.31-4.66-8.87-9.36-17.71-13.92-26.71-6.52-13.07-5.37-27.78-3.52-41.85,2.54-19.68,3.66-39.49,5.53-59.27,1.31-13.44,4.76-26.65,5.44-40.18.76-16.04-5.15-30.14-12.1-44.26-6.8-13.75-12.68-27.86-19.12-41.85-5.98-13.13-15.22-26.11-18.71-40.17.41,1.13,5.78,2.83,7,3.81,5.92,4.74,8.36,12.31,11.15,19.08,10.29,25.37,20.97,50.94,32.9,75.58,4.27,8.66,6.22,18.07,5.34,27.66-.81,9.02-4.29,17.72-6.07,26.58-2.34,11.86-1.76,24.05-2.64,36.02-.95,11.97-1.78,23.94-2.98,35.83-.95,8.39-4.09,18.1-2.81,26.49.61,3.97,3.69,7.5,5.46,11,1.92,3.73,3.76,7.54,5.63,11.31,2.36,4.7,4.83,9.33,7.03,14.09,5.19,10.51,10.17,21.12,15.51,31.53,1.58,2.99,3.59,6.02,6.51,7.89,2.9,1.78,5.61,1.24,8.81,1.63-1.21-.15-4.37-5.09-5.42-6.06-3.78-3.65-6.95-8.08-9.3-12.8-.87-2.04-2.46-5.34-1.22-7.59,1.2-2.1,4.41-2.18,6.12-.39,2.32,2.48,1.35,6.64,1.97,9.64.56,3.03,3.19,4.36,5.56,6.06-1.66-14.18-4.68-29.06-4.68-43.42,0-9.7-.73-19.41-1.02-29.09-.54-12.74-1.36-25.45-1.59-38.2-.18-11.33.78-22.65,1.78-33.92.66-8.66-.56-19.74,4.71-27.18,3.66-5.15,8.07-5.11,13.56-5.11s9.85-.03,13.48,5.11c5.32,7.44,4.05,18.52,4.87,27.18.93,11.27,1.9,22.59,1.66,33.92-.22,12.75-1.15,25.45-1.53,38.2-.34,9.68-1.05,19.39-1.05,29.09,0,14.36-3.03,29.24-4.74,43.42,2.37-1.7,5.02-3.03,5.66-6.06.51-2.99-.43-7.15,1.9-9.64,1.66-1.79,5-1.71,6.14.39,1.29,2.25-.34,5.55-1.29,7.59-2.22,4.72-5.46,9.15-9.24,12.8-1.08.97-4.17,5.91-5.46,6.06,3.22-.39,6,.15,8.86-1.63,2.85-1.87,4.95-4.9,6.46-7.89,5.42-10.42,10.39-21.03,15.49-31.53,2.31-4.76,4.73-9.38,7.03-14.09,1.92-3.77,3.78-7.58,5.73-11.31,1.75-3.5,4.74-7.03,5.36-11,1.29-8.39-1.83-18.1-2.71-26.49-1.27-11.89-2.07-23.86-3.03-35.83-.93-11.97-.32-24.16-2.64-36.02-1.73-8.86-5.24-17.56-6.08-26.58-.85-9.59,1.12-19,5.36-27.66,11.97-24.64,22.59-50.2,32.9-75.58,2.78-6.76,5.24-14.34,11.17-19.08,1.14-.98,6.59-2.68,7.02-3.81-3.49,14.06-12.81,27.04-18.81,40.17-6.41,13.99-12.22,28.09-19.07,41.85-6.93,14.11-12.81,28.21-12.05,44.26.66,13.53,4.17,26.74,5.39,40.18,1.86,19.78,2.98,39.59,5.49,59.27,1.86,14.07,3.07,28.78-3.54,41.85-4.49,9-9.22,17.84-13.85,26.71-1.97,3.81-3.92,7.54-5.87,11.31-.59.93-1.58,4.14-2.51,4.72,6.61-3.75,13.02-7.8,20-10.7,9-3.81,18.53-6.1,27.82-8.98.25,0,1.59-5.76,1.69-6.06,5.98-22.63,11.98-45.23,17.98-67.84,1.46-5.52,2.78-11.17,4.1-16.75,1.12-4.82,2.9-9.48,3.83-14.37.63-3.27.78-4.43,3.61-6.2,2.46-1.49,3.88-3.82,5.58-6.08,3.95-5.27,8.05-10.51,12.1-15.7,8.07-10.3,16.35-20.43,24.91-30.26,4.64-5.24,9.05-10.53,13.63-15.81,17.36-20.17,34.76-40.3,53.51-59.26,2.69-2.68,5.3-7.23,8.81-8.82.56-.23,6.46-1.05,5.81.81-2.46,7.42-9.22,12.82-15.02,17.64-6.8,5.63-12.98,11.54-18.92,17.95-21.68,23.04-42.27,47.48-62.61,71.65-4.97,5.94-9.86,11.77-15.13,17.41-4.87,5.2-10.31,10.87-12.03,17.98-1.9,7.74-3.98,15.43-6.14,23.12-3.68,12.98-8.25,25.92-11.05,39.13-1.47,7-3,13.99-4.44,20.98-.49,2.3-2.66,19.66-4.39,20.2,17.61-5.91,35.68-10.37,54.31-7.31,6.22,1.02,12.46,2.1,18.68,3.19,27.73,4.97,55.09,10.88,81.24,21.53,9.25,3.81,20.24,7.47,24.36,17.64,2.8,6.92,3.19,15.71-.32,22.53h0Z"/>
  </g>
</svg>