<?xml version="1.0" encoding="UTF-8"?>
<svg id="Layer_2" data-name="Layer 2" xmlns="http://www.w3.org/2000/svg" viewBox="0 0 433.63 654.5">
  <defs>
    <style>
      .cls-1 {
        fill:#808080
      }
    </style>
  </defs>
  <g id="Layer_1-2" data-name="Layer 1">
    <path class="cls-1" d="m430.6.22c-5.43,1.08-10.34,5.14-15.18,7.85-5.34,2.97-10.73,5.95-15.58,9.67-10.23,7.81-20.02,16.48-30.74,23.61-6.63,4.4-12.3,9.98-18.9,14.45-5.81,3.99-12.36,7.95-15.63,14.45-3.6,7.1-5.25,15.05-8.41,22.37-3.35,7.73-7.89,14.92-10.58,22.95-2.57,7.78-6.12,15.15-9.4,22.7-1.56,3.76-2.98,7.54-4.43,11.33-1.89,5-4.04,8.73-3.87,14.31.16,4.91,1.61,9.67,1.79,14.51.52,11.63,1.45,23.27,1.95,34.87.35,7.92,1.52,15.83,1.4,23.75,0,4.12-.24,8.22-.74,12.31-.25,2.68,0,5.45-.41,8.08-.5,3.16-2.69,4.57-5,6.62-18.52,16.35-38.26,31.27-57.49,46.66l-4.07,3.05c.97-.75.21-9.07.25-10.52.03-3.45.03-6.88,0-10.31-.13-6.95-.46-13.82-.96-20.74-.6-8.09-.56-16.47-3.48-24.15-1.45-3.69-3.48-7.62-6.83-9.89-3.04-2.08-9.19-3.03-12.54-1.25-12.25,6.48-11.74,23.49-12.69,35.29-.47,6.92-.85,13.79-.99,20.74-.05,3.43-.05,6.86,0,10.31.04,1.45-.71,9.77.28,10.52l-4.07-3.05c-19.27-15.39-39-30.31-57.43-46.66-2.36-2.05-4.55-3.45-5.05-6.62-.46-2.63-.18-5.41-.5-8.08-.41-4.09-.71-8.18-.74-12.31,0-7.92,1.06-15.83,1.45-23.75.5-11.6,1.45-23.24,1.95-34.87.18-4.84,1.62-9.61,1.76-14.51.16-5.58-1.9-9.3-3.82-14.31-1.45-3.79-2.85-7.58-4.43-11.33-3.29-7.55-6.82-14.92-9.44-22.7-2.66-8.04-7.2-15.22-10.56-22.95-3.13-7.32-4.78-15.27-8.4-22.37-3.26-6.5-9.75-10.45-15.6-14.45-6.58-4.46-12.34-10.05-18.92-14.45-10.74-7.13-20.48-15.79-30.71-23.61-4.87-3.72-10.3-6.7-15.66-9.67C13.46,5.36,8.49,1.3,3.04.22-.1-.42-.41.42.34,1.64c.68,1.12,2.12,2.47,3.13,3.39,5.02,4.47,11.36,7.11,17.38,9.94,6.14,2.91,11.54,6.36,17.03,10.35,13.58,9.84,26.25,20.83,39.78,30.65,4.9,3.59,10.48,6.19,14.46,10.82,4.53,5.17,6.43,12.14,9.21,18.28,1.62,3.64,3.01,8.36,5.37,11.55,1.83,2.44,2.54,6.53,3.54,9.3,4.01,10.95,6.89,23.2,12.1,33.62,1.21,2.47,2.27,5.04,3.36,7.58,1.89,4.23,4.26,8.4,4.81,13.06.69,5.27-.9,10.55-1.24,15.78-1.42,22.44-2.63,44.85-2.63,67.36,0,5.72-.44,11.84,1.68,17.27,2.39,6.02,7.78,9.02,12.54,12.97,8.68,7.29,17.78,14.11,26.74,21.14,8.73,6.86,17.96,13.36,25.91,21.17,6.14,6.02,5.84,14.85,6.58,22.83.12,1.15-7.85-1.32-8.68-1.67-5.96-2.69-10-8.2-14.75-12.57-4.99-4.68-10.12-9.29-15.52-13.49-6.02-4.67-12.3-9.2-19.52-11.84-9.72-3.48-20.08-4.7-30.31-5.34-4.94-.32-9.84-.47-14.86-.75-6.3-.34-12.75-.6-19.06-1.01-.71-.04-3.48-6.77-3.96-7.78-3.21-6.4-5.12-13.19-7.91-19.76-3.22-9.08-3.84-18.77-6.52-28.01-3.33-11.19-5.64-22.35-7.64-33.79-1.03-6.77-2.63-11.81-7.52-16.67-7.1-7.07-12.22-16.9-18.21-25.03-2.8-3.81-5.11-7.95-7.39-12.11-1.28-2.37-3.29-8.65-6.54-8.82-4.78-.21,2.98,10.11,3.87,11.45,1.89,2.66,3.69,5.33,5.53,7.98,3.2,4.37,6.42,8.79,9.66,13.18,2.42,3.38,4.84,6.79,7.33,10.14,3.02,4.06,5.93,7.85,7.48,12.72,3.73,12.42,4.96,25.52,8.23,38.02,2.55,9.68,5.16,19.26,7.29,28.99,2.46,11.26,6.71,20.43,12.01,30.51-.44-.94-7.08,6.09-7.47,6.99-1.49,3.2-1.33,6.95.18,10.13,2.89,6.32,10.83,9.91,16.84,12.72,3.7,1.66,8.41,3.05,10.86,6.53,4.44,6.15,7.85,12.92,11.29,19.68,2.98,5.78,4.58,12.99,9.03,17.9,4.6,5.07,12.3,3.42,18.18,1.65,9.77-2.87,18.98-7.24,28.35-11.26,8.59-3.76,17.48-6.79,26.71-3.39,3.14,1.15,7.89,4.12,11.29,4.16.4.04-2.27,7.21-2.58,7.69-1.49,2.64-3.32,5.02-5.39,7.22-4.04,4.5-8.77,8.32-13.01,12.62-7.38,7.54-15.04,15.22-22.84,22.32-2.94,2.71-6.61,4.41-8.2,8.29-1.62,4.2-.52,9,.38,13.19,3.36,16.39,6.37,32.41,8.11,49.07.57,5.29,1.53,10.26-.09,15.47-1.39,4.5-4.13,8.43-6.42,12.5-3.47,6.29-6.51,12.81-10.11,19.01-4.01,6.86-7.7,13.89-11.51,20.89-9.22,17.05-23.95,30.38-35.32,45.78-6.21,8.37-11.73,17.23-16.76,26.3-5.11,9.2-8.09,19.41-13.6,28.37-.93,1.53-3.78,4.2-3.23,6.21.55,2.01,2.42,1.64,3.7.29,1.68-1.9,2.48-4.97,3.63-7.24,6.49-12.45,12.25-25.34,19.89-37.15,3.39-5.19,6.98-10.27,10.73-15.17,12.5-16.37,26.34-32,36.11-50.03,7.36-13.5,15.02-26.8,22.96-39.95,3.93-6.43,6.34-12.94,5.84-20.6-.44-7.38-2.7-14.38-4.04-21.58-1.68-9.3-2.07-18.78-5.14-27.7-1.92-5.52-4.43-12.22.22-17.15,5.53-5.89,11.94-11.09,17.54-17.01,6.06-6.38,11.83-12.99,17.96-19.28,2.12-2.2,4.35-4.37,6.54-6.6.71-.75,3.36-2.57,3.6-3.62-.07.13-.5,2.3-.24,3.52,1.5,7.34.71,15.09,3.33,22.15.46,1.42,6.26,9.23,5.72,9.91-4.03,5.02-7.27,10.56-10.77,15.9-3.76,5.75-8.68,10.59-12.19,16.44-.72,1.25-6.29,8.32-7.05,9.32-.77,1-2.77,2.8-3.57,3.57-1.5,1.56-3.87,4.4-1.33,6.49,2.2,1.79,4.01-1.14,5.37-2.74,5.86-6.68,11.24-13.87,16.63-20.89,1.87-2.42,14.71-25.35,17.9-20.36.62.96-.83,3.57-1.36,4.48-1.3,2.08-3.1,3.22-3.84,5.76-1.76,6.44-1.68,13.22-2.91,19.72-1.39,7.2-2.54,14.34-3.38,21.61-.18,1.36-1.15,14.45-.3,14.38,4.72-.34,3.45-12.04,3.72-15.19.81-10.51,2.51-21.2,4.46-31.59.41-2.72,1.83-13.49,5.93-13.49h1.86v72.71c0,.59.38,1,.86,1.23v5.44c0,.34.31.65.68.65.31,0,.59-.31.59-.65v-5.44c.5-.24.89-.64.89-1.23v-72.71h1.86c4.13,0,5.49,10.77,6.02,13.49,1.89,10.39,3.54,21.08,4.4,31.59.22,3.15-1,14.85,3.66,15.19.93.07-.06-13.02-.22-14.38-.83-7.27-2.05-14.41-3.38-21.61-1.31-6.5-1.21-13.28-2.97-19.72-.72-2.54-2.48-3.67-3.79-5.76-.58-.91-2.02-3.52-1.42-4.48,3.19-4.99,16.04,17.94,17.93,20.36,5.45,7.02,10.77,14.21,16.61,20.89,1.39,1.59,3.23,4.53,5.37,2.74,2.57-2.1.24-4.94-1.36-6.49-.77-.78-2.72-2.57-3.54-3.57-.69-1-6.32-8.06-7.01-9.32-3.54-5.85-8.47-10.69-12.2-16.44-3.53-5.34-6.67-10.88-10.77-15.9-.54-.68,5.18-8.49,5.73-9.91,2.66-7.07,1.86-14.81,3.35-22.15.24-1.22-.19-3.39-.31-3.52.3,1.05,2.92,2.88,3.63,3.62,2.23,2.23,4.41,4.4,6.54,6.6,6.14,6.28,11.97,12.9,18,19.28,5.61,5.92,11.97,11.12,17.56,17.01,4.66,4.94,2.13,11.64.18,17.15-3.07,8.93-3.41,18.4-5.09,27.7-1.33,7.2-3.6,14.2-4.1,21.58-.5,7.66,1.98,14.17,5.86,20.6,7.97,13.15,15.57,26.45,22.96,39.95,9.81,18.02,23.61,33.66,36.09,50.03,3.73,4.9,7.39,9.97,10.78,15.17,7.6,11.82,13.37,24.71,19.86,37.15,1.15,2.27,1.93,5.35,3.67,7.24,1.23,1.35,3.08,1.73,3.64-.29.55-2.01-2.32-4.68-3.26-6.21-5.46-8.96-8.5-19.18-13.6-28.37-5.02-9.07-10.52-17.93-16.73-26.3-11.39-15.4-26.09-28.74-35.32-45.78-3.75-7-7.51-14.03-11.49-20.89-3.62-6.2-6.67-12.72-10.18-19.01-2.23-4.07-4.94-8-6.32-12.5-1.67-5.21-.69-10.18-.1-15.47,1.77-16.66,4.66-32.68,8.15-49.07.83-4.19,1.92-8.99.34-13.19-1.52-3.87-5.31-5.58-8.22-8.29-7.72-7.1-15.46-14.78-22.84-22.32-4.24-4.29-8.96-8.12-12.98-12.62-1.99-2.2-3.91-4.58-5.4-7.22-.28-.49-3.01-7.66-2.58-7.69,3.39-.04,8.12-3.01,11.26-4.16,9.27-3.4,18.12-.37,26.77,3.39,9.33,4.02,18.58,8.39,28.29,11.26,5.87,1.76,13.63,3.41,18.24-1.65,4.4-4.91,6.06-12.11,9.02-17.9,3.42-6.76,6.88-13.53,11.26-19.68,2.5-3.48,7.14-4.87,10.86-6.53,5.99-2.81,13.91-6.4,16.87-12.72,1.45-3.18,1.67-6.93.15-10.13-.4-.9-6.98-7.93-7.45-6.99,5.33-10.08,9.49-19.25,12.04-30.51,2.08-9.73,4.74-19.31,7.22-28.99,3.3-12.5,4.51-25.6,8.29-38.02,1.51-4.87,4.43-8.66,7.47-12.72,2.51-3.35,4.9-6.77,7.32-10.14,3.2-4.38,6.48-8.8,9.65-13.18,1.84-2.66,3.66-5.33,5.56-7.98.87-1.34,8.56-11.66,3.84-11.45-3.26.17-5.25,6.45-6.52,8.82-2.21,4.16-4.62,8.31-7.41,12.11-5.93,8.13-11.11,17.96-18.22,25.03-4.87,4.87-6.48,9.91-7.49,16.67-2.02,11.43-4.31,22.6-7.62,33.79-2.71,9.24-3.35,18.92-6.57,28.01-2.8,6.57-4.71,13.36-7.91,19.76-.46,1.02-3.23,7.75-3.91,7.78-6.36.41-12.73.67-19.11,1.01-4.96.27-9.87.42-14.84.75-10.28.64-20.58,1.86-30.29,5.34-7.25,2.64-13.56,7.17-19.55,11.84-5.38,4.2-10.53,8.81-15.51,13.49-4.77,4.37-8.78,9.88-14.82,12.57-.8.35-8.72,2.83-8.66,1.67.75-7.98.53-16.81,6.65-22.83,7.98-7.81,17.17-14.31,25.91-21.17,8.94-7.04,18.06-13.86,26.77-21.14,4.72-3.95,10.05-6.95,12.48-12.97,2.12-5.43,1.7-11.55,1.7-17.27,0-22.51-1.22-44.91-2.63-67.36-.33-5.23-1.9-10.51-1.25-15.78.58-4.66,2.97-8.83,4.85-13.06,1.09-2.54,2.08-5.11,3.31-7.58,5.21-10.42,8.13-22.66,12.11-33.62,1.06-2.77,1.81-6.87,3.56-9.3,2.44-3.19,3.7-7.92,5.36-11.55,2.8-6.14,4.66-13.11,9.19-18.28,4-4.63,9.61-7.24,14.46-10.82,13.55-9.81,26.25-20.8,39.77-30.65,5.53-3.99,10.96-7.44,17.12-10.35,6.05-2.84,12.31-5.48,17.37-9.94,1-.91,2.39-2.26,3.08-3.39.69-1.22.43-2.06-2.71-1.42h0Zm-161.92,348.87c.8.46,5.09-1.22,6.01-1.45,3.39-.81,6.79-1.66,10.12-2.4,15.02-3.49,29.97-7.05,44.19-12.69,1.53-.64,4.85-1.22,6.05-2.38l-3.76,3.77c-1.67,1.66-2.58,7.04-3.51,9.24-1.76,4.23-3.75,8.32-6.1,12.25-3.72,6.11-8.62,10.35-16.11,9.74-6.67-.51-12.95-3.35-18.93-6.19-6.21-2.94-12.08-6.43-17.96-9.88h0Zm-103.67,0c-5.9,3.45-11.79,6.93-17.97,9.88-5.96,2.84-12.25,5.68-19,6.19-7.41.61-12.3-3.62-16.05-9.74-2.36-3.93-4.31-8.02-6.06-12.25-.97-2.2-1.87-7.58-3.5-9.24l-3.82-3.77c1.2,1.16,4.54,1.74,6.06,2.38,14.22,5.64,29.15,9.2,44.18,12.69,3.39.74,6.76,1.59,10.14,2.4.9.24,5.24,1.91,6.03,1.45h0Z"/>
  </g>
</svg>