<?xml version="1.0" encoding="UTF-8"?>
<svg id="Layer_2" data-name="Layer 2" xmlns="http://www.w3.org/2000/svg" viewBox="0 0 654.5 474.15">
  <defs>
    <style>
      .cls-1 {
        fill:#808080
      }
    </style>
  </defs>
  <g id="Layer_1-2" data-name="Layer 1">
    <path class="cls-1" d="m653.24,14.43c-1.03-3.47-3.69-5.99-7.48-7.85-3.75-1.91-8.53-3.26-14.04-4.3-5.52-1.07-14.58-2.28-21.32-2.28s-16.28,1.06-24.31,1.97c-9.05,1.04-13.04,2.29-20,4.1-8,2.01-21.21,6.71-27.95,9.58-6.72,2.85-16.92,7.79-23.42,11.2-2.8,1.45-8.18,4.24-13.19,7.04-6.71,3.78-13.34,7.82-18.1,10.73-8.29,5.04-18.72,12.02-25.12,16.32-6.45,4.3-15.66,11.2-21.01,15.27-5.36,4.1-12.46,9.85-17.46,13.84-4.97,3.99-11.47,10.21-17.12,15.49-5.67,5.29-10.28,10.42-13.8,14.52-3.58,4.09-7.59,8.17-9.72,10.15-2.12,1.93-2.84,3.16-3.31,3.93-.44.76-1.7,2.81-2.33,3.16-.63.36-2.87,3.47-4.46,7.1-1.58,3.63-3.18,5.69-5.44,8.47-2.26,2.79-2.59,4.84-3.31,6.65-.75,1.82-2.44,5.13-3.4,6.28-1.01,1.13-2.38,3.25-3.78,7.79-1.48,4.53-2.87,10.56-3.19,12.71-.31,2.11-1.43,4.2-3.03,9.52-1.56,5.31-2.4,10.48-2.64,11.58-.22,1.02-.71,1.81-1.03,1.81s-.15-.63,0-1.37c.11-.76-1.61-.54-1.61-.54,0,0,.75-3.55,1.21-4.62.47-1.05-.9-2.71-.9-2.71,0,0,.99-1.12,1.82-3.11.82-1.95.9-7.1-1.97-10.55-2.87-3.52-6.43-2.67-7.02-2.67s-2.2-.07-2.51-.44c-.28-.42-1.58-.42-1.86-.93-.31-.51-1.5-.29-1.5-.29,0,0,.26-2.95,1.05-4.45.73-1.53,4.28-6.74,6.12-8.71,1.81-1.97,3.83-5.22,6.4-9.3,2.57-4.07,9.22-13.83,11.94-17.82,2.71-4.04,9.27-13.58,12.26-18.23,2.95-4.68,8.82-15.36,10.64-18.84,1.78-3.47,6.69-13,9.03-18.05,2.39-5.07,2.96-8.62,3.86-12.1.9-3.47.79-5.75.18-7.16-.63-1.45-1.39.2-1.39.75s-.05,2.18-.76,6.5c-.67,4.3-2.93,11.86-4.74,16.24-1.84,4.38-7.17,14.06-9.59,18.88-2.4,4.86-7.43,13.1-9.29,15.9-1.89,2.8-12.34,18.37-12.77,18.65-.44.31-.6.85-.78,1.25-.16.36-.96,1.66-1.19,1.95-.23.31-1.11,1.13-1.3,1.48-.15.42-.74,1.6-1.13,1.83-.36.23-.92,1.01-1.08,1.45-.12.45-1.18,2.36-1.63,2.57-.47.23-.75.7-.75,1.15s-.99,1.88-1.53,2.28c-.52.36-.72,1.13-2.72,4.34-1.94,3.28-6.11,7.88-8.55,11.12-2.37,3.26-2.77,6.22-3.03,7.48-.2,1.29-2.53,1.14-3.2.94-.67-.24-.78-1.98-1.89-4.53-1.12-2.6-5-7.21-6.96-10-1.95-2.8-3.95-7.07-6.1-11.04-2.19-3.91-4.98-10.57-6.8-14.89-1.81-4.3-4.9-10.64-8.83-17.77-3.92-7.09-5.82-9.81-9.61-15.79-3.75-5.96-8.45-13.2-12-18.59-3.54-5.33-7.17-9.9-9.81-12.3-2.67-2.44-6.45-4.25-8.24-4.53-1.81-.34-3-.16-.67,1.3,2.33,1.4,4.82,2.26,8.98,6.27,4.15,3.99,7.15,8.07,11.86,14.96,4.42,6.48,8.38,12.39,11.72,17.61,3.29,5.17,4.9,7.54,7.38,12.62,2.52,5.04,5.6,10.43,7.47,14.88,1.88,4.48,5.37,12.24,8.77,18.46,3.4,6.16,5.2,9.58,7.8,12.6,2.53,3.03,3.78,5.52,4.9,7.8,1.14,2.25,1.06,3.94.21,3.78-.81-.16-.73.47-.81.75-.11.3-.68.3-1.06.17-.36-.14-.78.44-.78.96s-.49.26-1.12-.05c-.59-.31-2.28.13-4.32,1.05-2.04.9-3.47,2.58-4.07,4.23-.61,1.66-.83,1.97-1.27,1.3-.47-.67-.99-4.04-1.53-5.52-.51-1.52-1.28-4.79-2.02-5.67-.75-.9-1.6-2.95-2.67-6.11-1.06-3.18-2.71-5.91-3.76-7.21-1.05-1.29-1.68-3.16-2.97-5.95-1.25-2.8-3.14-5.47-5.42-8.49-2.27-3-5.8-8.92-8-11.84-2.2-2.96-9.61-13.03-13.68-17.7-4.07-4.71-5.88-6.89-9-10.05-3.09-3.18-7.31-7.79-10.47-11.06-3.16-3.25-10.95-9.53-17.42-14.89-6.54-5.39-9.23-7.26-11.61-8.83-2.3-1.59-4.94-3.34-9.56-6.74-4.6-3.4-8.15-6.11-10.95-7.64-2.83-1.5-9.98-5.88-17.85-10.68-7.84-4.74-14.25-8.51-20.47-11.91-6.18-3.42-19.75-9.84-29.36-13.99-9.59-4.14-21.71-8.87-28.41-10.91-6.72-2.01-17.24-4.74-24.53-5.96-7.31-1.21-11.67-1.58-18.75-2.04-7.1-.46-11.71-.19-19.06-.6-7.41-.38-14.15.9-20.05,2.26-5.9,1.37-12.9,3.94-17.22,7.56C.67,20.92-.22,27.35.04,34.99c.34,7.64,2.28,9.76,4.23,14.74,1.99,5.02,2.98,6.52,5.4,10.44,2.4,3.94,4.81,6.73,6.28,9.22,1.43,2.48,2.26,3.91,3.99,5.51,1.75,1.61,4.45,4.35,7.57,7.25,3.11,2.91,5.33,6.23,6.24,7.21.9.99,2.2,2.13,2.54,3.83.39,1.77,3.2,4.41,6.86,7.83,3.63,3.36,7.3,6.63,8.65,7.76,1.35,1.12,2.95,2.33,3.4,2.53.46.27.46.32.69,1.4.21,1.04,1.66,1.56,2.11,1.56s.69,1.29,1.29,3.31c.59,2.06,3.76,6.6,6.14,10.46,2.31,3.83,2.97,4.37,4.81,8.78,1.79,4.37,2.93,6.71,5.81,10.12,2.86,3.36,3.41,4.66,5.88,8.31,2.51,3.61,3.97,6.19,8.4,14,4.45,7.77,5.9,9.66,8.59,13.43,2.75,3.79,2.44,3.71,4.69,8.25,2.28,4.54,4.79,9.69,7.79,14.5,3,4.87,4.62,6.11,6.63,9.38,2.05,3.27,2.52,3.55,2.52,3.55,0,0,.06,1.37,2.86,4.84s6.72,7.05,13.8,10.31c7.1,3.22,15.21,4.43,19.35,5.01,4.15.63,8.53,1.06,8.53,1.06,0,0-1.05,1.16-1.35,1.53-.31.36-3.33.45-3.57,1.73-.23,1.3-.99,1.05-1.64,1.35-.67.33-3.42,2.04-3.65,2.35-.22.31-.88.82-1.19,1.06-.3.22-1.61,1.21-1.68,1.73-.04.52-1.53,1.27-2,1.37,1.54-.24-2.09.2-9.38,8.66-3.49,3.99-7.17,9.03-9.22,13.17-2.04,4.17-1.89,7.05-.98,7.8.9.75,1.19,2.09.38,5.59-.85,3.48-3.02,8.16-5.82,11.55-2.77,3.41-5.22,5.44-7.56,9.15-2.31,3.69-4.46,8.7-4.08,12.79.36,4.07,2.34,5.33,4.02,6.19,1.65.8,3.16,2.95,3.44,6.88.34,3.93-1.7,6.72-3,8-1.29,1.29-4.4,6.19-4.61,11.94-.23,5.76,1.58,7.96,2.41,8.84.85.93,3.11,1.96,4.56,3.11,1.43,1.14,1.59,2.32,2.11,4.45.52,2.13,1.43,2.33,2.48,6.81,1.06,4.46-.52,9.9-2.04,14.06-1.51,4.15-2.49,11.27-2.49,13.37s1.15,5.23,1.53,5.67c.36.46,1.5,2.13,1.81,2.87.29.76.96,1.58,1.5,1.98.52.36.84.2,1.22.97.38.79,1.58,1.82,2.1,1.82s3.33,2.33,6.11,4.77c2.8,2.44,5.44,5.24,6.81,9.53,1.37,4.3.23,12.03-.54,14.67-.72,2.64-1.81,8.7.78,11.39,2.55,2.72,8.44-.44,9.87-1.43,1.43-1,4.1-1.94,6.38-1.27,2.28.68,5.26,4.53,6.81,5.76,1.48,1.19,3.52,3.36,7.39,6.94,3.85,3.55,9.34,3.19,13.34,2.87,4.01-.29,6.45-.5,8.93.07,2.49.52,6.87,2.18,7.95,2.18s3.53.82,4.15,1.61c.6.72,2.77.72,4.5.45,1.77-.32,2.04.89,10.68-2.26,7.35-2.75,11.39-7.89,15.85-15.08,4.46-7.17,5.2-13.41,5.89-16.78.69-3.31,1.74-4.82,3.49-6.78,1.74-1.98,3.71-1.46,5.57-1.2,1.89.21,3.34-.1,6.3-2.51,2.93-2.39,4.89-6.11,7.92-13.14,3.01-7.02,5.52-14.44,7.23-20.39,1.73-6.01,3.5-12.87,4.01-14.08.55-1.2,1.08-1.67,1.14-2.14.09-.44.65-3.98,1.89-5.33,1.2-1.37,1.04-3.78,1.3-4.63.23-.83.76-.61,1.34-2.1.61-1.53.55-5,1.35-6.14.82-1.12.54-2.41.38-3.09-.15-.67.21-.83,1.37-2.59,1.13-1.73.6-5.81,1.13-6.47.54-.68.54-2.29.46-3.79-.07-1.52.31-2.29,1.55-4.09,1.32-1.81.11-3.84,1.1-6.19.96-2.35.51-4.56.51-5.46s.45-3.32,1.01-4.2c.49-.94.96-2.51,1.34-4.95.36-2.41,1.06-3.91,1.35-4.9.32-.98.54-2.35,1.03-3.11.55-.75.65-3.33.65-4.77s.67-.75.87-1.76c.24-.99.09-.8.47-1.55.39-.78,1.15-4.01,1.15-4.45,0-.47-.83-.78.05-1.17.9-.36,2.59-3.4,2.72-5.41.14-2.05.97-6.65,1.91-9.38.88-2.75,1.45-3.27,1.95-4.57.44-1.29,1.96-3.67,3.31-5.49,1.37-1.82.7-3.34,1.97-4.04,1.3-.66,1.58-.44,1.58-.44,0,0,1.3-2.87,1.93-2.04.6.83,1.79,4.26,2.25,5,.47.75.47,1.05.63,1.58.15.52.49,2.28.72,3.11.23.83.07,1.62.31,2.96.23,1.35.47,2.2.47,3.47s-.39.88-1.01,2.01c-.56,1.18-1.42,3.63-1.5,5.03-.07,1.34,1.16,2.33,1.16,2.33,0,0-.56,3.11-.69,4.41-.16,1.29-.16.93-.38,1.39-.24.47-.16,1.39,1.23,2.8,1.32,1.45.96,3.42.42,4.01-.49.6-.96,2.09-.23,3.11.78,1.01.62,4.09-.13,5.47-.78,1.34-.7,3-.18,3.82.54.83.62,3.63.78,6.9.15,3.2-.78,5.44-.96,8.29-.23,2.89.6,6.65,1.27,8.86.67,2.22,2.65,5.52,4.08,5.59,1.42.09,2.27,1.73,3.47,4.78,1.18,3,2.81,3.31,4.01,2.57,1.18-.76,2.64-5.07,3.62-5.99.96-.88,3.48-1.14,4.69-4.71,1.18-3.68,1.58-6.84,1.86-9.16.29-2.36-.99-6.68-1.5-8.02-.52-1.35-.61-5.14-.23-5.29.38-.16.62-.6.07-2.44-.51-1.79-1.86-10.02-1.86-12.22s.07-3.11-.63-6.58c-.66-3.48-2.48-8.63-2.77-9.62-.31-.96-.31-1.88.52-3.85.82-1.95,1.5-8.09,1.97-10.68.42-2.53,1.05-3.44,1.94-4.45.9-.94,1.5-1.71,2.05-3.83.51-2.11,1.88-2.2,1.88-2.2,0,0,1.71,3.11,2.18,3.62.46.52,1.58,3.95,1.68,5.52.05,1.6,1.27,2.8,2.2,3.42.87.57,1.94,3.93,2.4,4.23.45.28,1.89,2.43,1.95,3.18.11.72.19.98.55,1.42.38.45.96,1.06.9,1.95-.09.94.59,1.14.98,1.56.36.36.54,1.18.54,1.85,0,.71,1.43,1.82,1.7,1.98.33.16.84,3.67,1.08,5.15.22,1.43,1.63,1.94,1.63,3.46s1.37,4.24,1.83,4.65c.47.35,3.94,11.13,4.7,13.09.75,1.98,2.76,6.77,3.25,7.6.45.81,1.13,5.51,1.44,6.27.31.75,2.33,6.96,2.33,8s1.05,4.4,1.43,4.84c.38.44,1.16,1.53,1.21,2.41.09.94-.13,2.89.15,2.89.3,0,.54.21.63,1.96.07,1.72,1.27,2.71,1.04,3.41-.24.66.59,2.51.59,2.51,0,0,.7.27.6,1.26-.02.97,1.53,3.47,1.53,4.09s.39,2.49.9,2.49c.54,0,.2.3.31,1.05.05.76.6,2.2.99,2.42.22.15.9,2.55,1.42,2.89.37.21.63.6.63,1.14s.75,2.02,1.11,2.49c.37.44.45.6.37,1.27-.03.7.69,2.75.94,3.03.22.31.59.83.66,1.35.09.53.76,2.74,1.17,3.11.34.36.56.51.72,1.05.15.54.23,2.2.6,2.36.39.15.32,1.29,4.45,10.77,4.18,9.56,5.16,12.64,7.57,16.42,2.42,3.78,5.13,7.41,6.59,8.24,1.44.82,1.65,2.17,2.01,4.17.42,1.99,2.72,3.17,4.48,4.84,1.71,1.65,2.46,3.91,3.31,6.94.82,3.02,2.14,6.19,2.72,7.56.6,1.35,2.91,5.45,5.58,9.66,3.11,4.84,4.63,7.28,8.07,9.74,4.33,3,9.62,3.85,13.8,4.2,4.26.28,6.02-.99,10.15-2.29,4.15-1.27,8.11-3.02,12.4-3.38,4.32-.4,4.22.28,9.52.83,5.29.51,7.93-.9,9.51-1.93,1.61-.98,2.71-1.92,2.87-2.53.16-.63.54-1.22,1.34-1.92.83-.67,1.84-1.35,3.19-2.34,1.34-.98,3.75-3.93,4.97-5.28,1.21-1.35,2.95-1.96,5.62-1.14,2.64.83,5.06,2.6,6.99,2.8,1.97.23,6.4-1.5,7.05-5.91.56-4.37-1.52-11.11-2.2-15.12-.67-3.99-.05-6.27,2.77-9.95,2.18-2.79,6.63-6.36,7.95-7.81,1.69-1.82,2.54-1.35,5.61-3.99,2.68-2.34,5.12-5.36,5.43-9.9.3-4.56-2.66-12.85-4.45-18-1.82-5.13-1.17-8.83-.52-13.14.6-4.32,3.29-8.48,5.49-10.14,2.22-1.66,3.27-3.52,4.01-8.51.76-5-1.06-8.11-2.5-11.11-1.44-3.04-3.25-6.15-3.84-7.21-.62-1.04-.75-5.06-.07-7.41.69-2.33,2.64-4.14,3.47-4.45.83-.32,1.21.06,2.87-3.43,1.65-3.47.83-7.15-.52-11.56-1.37-4.37-5.46-9.96-7.51-12.17-2.04-2.17-4.96-6.19-5.8-8.39-.83-2.18-1.19-6.79-1.11-9.01.05-2.18-1.3-7.46-3.74-11.56-2.41-4.1-9.65-12.07-17.58-19.04-7.93-6.96-14.79-10.64-17.27-11.71-2.51-1.05-5.99-2.2-2-2.2s11.19-.9,18.84-2.12c7.61-1.19,13.21-3.91,15.87-5.29,2.62-1.36,5.8-4.24,9.05-8.61,3.22-4.38,4.97-8.22,8.39-13.25,3.39-4.96,3.16-4.76,5.45-8.15,2.25-3.4,3.15-6.29,4.29-9.5,1.14-3.26,3.47-6.58,6.63-10.88,3.19-4.31,6.27-10,6.89-10.75.6-.75,1.35-2.88,1.51-3.85.15-.99,1.21-3.27,2.35-5.16,1.11-1.86,4.52-7.79,5.96-9.2,1.43-1.45,4.69-5.53,5.88-7.32,1.21-1.84,3.27-6.22,4.02-7.95.75-1.75,2.5-5.76,4.14-8.63,1.66-2.88,4.07-6.43,4.93-7.12.82-.66,2.25-2.85,2.86-4.27.61-1.43.96-2.67,1.66-2.96.68-.32,1.15-1.01,1.27-1.88.16-.94.47-.94,1.37-2.34.9-1.45,6.95-7.28,10.64-10.88,3.7-3.65,5.58-6.14,8.68-11.51,3.11-5.39,5.44-7.51,9.25-11.34,3.75-3.86,4.63-4.93,7.45-8.66,2.78-3.66,4.51-6.67,7.18-11.08,2.64-4.41,4.29-6.89,5.12-8.08.83-1.22,1.3-3.63,1.69-4.69.36-1.05,1.5-4.68,2.01-9.29.52-4.61,0-11.87-1.06-15.36m-338.62,192.37c-.42.77-.83.33-.83.33l-1.01-5.46,1.68,1.33s.96.22.88.75c-.1.51-.42,2.43-.72,3.05"/>
  </g>
</svg>