<?xml version="1.0" encoding="UTF-8"?>
<svg id="Layer_2" data-name="Layer 2" xmlns="http://www.w3.org/2000/svg" viewBox="0 0 654.5 601.74">
  <defs>
    <style>
      .cls-1 {
        fill:#808080
      }
    </style>
  </defs>
  <g id="Layer_1-2" data-name="Layer 1">
    <path class="cls-1" d="m613.46,529.38c0,14.93-28.38,10.51-21.02,29.43,10.51,26.49,34.58,29.01,58.97,32.59-19.87,10.51-37,18.61-57.18-4.84-38.16-43.94-77.68-87.35-119.73-128.87-21.02-21.02-36.58-40.36-7.15-70.11-56.97-9.67-102.38-34.69-145.17-64.33-19.24-13.24-30.27-7.78-43.1,8.62-38.05,48.56-30.69,118.68,21.02,165.45-14.82,2.31-36.69-7.25-31.96,24.28-29.12-71.16-46.88-136.65-8.51-204.66,5.15-9.04,9.04-19.76-3.26-25.54-19.34-9.04-39-36.9-58.23-22.71-31.53,23.44-69.06,33.95-102.17,53.29-20.97,13.6-39.25,30.96-53.92,51.19-12.61,15.45-24.6,19.24-42.05,4.52,12.61-9.04,30.38-7.88,40.15-22.92,24.81-37.84,25.65-37.32,82.2-67.7,17.34-9.25,36.05-16.61,51.82-36.27-38.89-2.31-69.27-13.24-80.52-52.56-4.63-16.5-21.02-8.2-32.59-9.46C15.98,183.97,1.16,165.89,6.83,114.27c18.29,33.85,54.77,1.47,75.47,27.54,4.52,5.68,9.67-3.68,11.46-9.67,8.55-29.21,26.79-54.64,51.72-72.11-8.51-13.03-19.45-9.67-30.17-8.62-14.3,1.47-33.43,16.71-33.01-17.34.21-14.93-23.55-6.52-36.05-11.77,28.07-27.75,80.73-30.69,108.16-2.63,9.71,10.85,24.35,15.9,38.68,13.35,12.09-1.05,28.07-1.79,36.16,4.84,34.58,28.38,78.84,23.65,115.63,37.42,63.07,23.65,127.51,31.53,191.73,45.31,83.36,17.55,119.41,62.23,117.84,146.43-1.26,70.95-40.05,113.74-110.69,122.46-8.68,1.03-17.44,1.39-26.17,1.05-18.29-.84-26.07,13.14-34.37,25.02-10.51,15.24,5.57,21.86,12.61,30.48,15.87,19.13,32.69,37.53,49.3,56.13q28.59,32.06,68.33,27.23Z"/>
  </g>
</svg>