<?xml version="1.0" encoding="UTF-8"?>
<svg id="Layer_2" data-name="Layer 2" xmlns="http://www.w3.org/2000/svg" viewBox="0 0 654.5 205.48">
  <defs>
    <style>
      .cls-1 {
        fill:#808080
      }
    </style>
  </defs>
  <g id="Layer_1-2" data-name="Layer 1">
    <path class="cls-1" d="m.26,23.36c.55,2.94,5.49,6.77,6.24,7.44.78.69,1.08,2.99.71,4.18-.39,1.15,0,2.61.18,4.44.18,1.83-.97,2.12-1.66,3.97-.67,1.84-.88,4.36,1.54,7.05,2.42,2.71,5.33,1.15,7.47.97,2.11-.21,7.22.5,10.24,1.15,3,.68,10.43,2.32,12.08,7.54,1.63,5.23-1.83,12.58-3.08,14.29-1.27,1.76-1.36,4.09.09,6.02,1.43,1.94,3.98,2.62,7.41,1.94,3.52-.69,5.9-3.3,9.01-4.25,3.07-.96,11.48,1.34,13.54,1.92.94.28,4.57,1.48,7.3,3.54,3.06,2.29,5.28,5.56,5.91,7.4,1.26,3.46-.65,10.16.5,14.79,1.16,4.63,5.89,5.13,7.33,5.02,1.45-.09,5.03-1.74,6.88-2.52,1.84-.76,5.7-1.32,9.08-.29,3.37,1.07,9.75,4.85,12.37,6.48,1,.63,5.13,3.91,8.22,6.67,5.16,4.54,9.97,9.29,11.29,10.45.74.66,4.38,3.87,8.5,6.1,7.65,4.19,17.94,8.33,20.79,9.67,4.32,2.02,13.4,7.14,14.93,8.1.69.4,8.82,6.76,17.94,10.43,11.92,4.78,25.48,7.17,26.13,7.27,1.15.18,1.95.6,3,.6s1.84.28,3.38.88c1.55.55,2.82.37,4.24.37s1.69-.3,3.2.78c1.55,1.06,4.46.27,5.12,1.06.66.77,1.15.77,2.13.77s2.13.37,3.08.87c.98.5,1.75.29,3.18.96,1.45.68,13.72,7.54,15.67,8.71,1.92,1.17,2.51,3.38,2.89,7.04.38,3.68,1.55,5.99,5.04,6.96,3.46.98,5.77.57,7.71-1.16,1.93-1.73,3.39-4.91,4.17-5.8.76-.85,8.78-4.9,11.19-5.88,1.43-.56,6.16-2.89,11.07-3.44,3.56-.41,7.65.74,8.46,1.01,1.93.68,9.06,2.63,11.87,3.58,2.8.96,7.92,2.62,9.28,3.18,1.35.6,3.27,1.95,4.07,3.5.77,1.55,1.04,4.35,3.26,6.78,2.25,2.4,6.3,1.5,9.4.85,3.06-.67,3.56-5.52,3.75-6.58.18-1.06,1.63-1.92,2.39-2.29.79-.41,6.39-4.66,7.17-5.53.5-.56,4.31-2.5,8.64-3.57,2.46-.63,5.04-.63,6.04-.5,2.78.4,7.07,1.26,8.21,1.73,1.18.49,3.79,1.05,5.13,1.75,1.35.67,3.47.95,4.53,1.63,1.06.68,2.32,1.36,3.69,1.66,1.33.28,3.08,1.35,4.04,2.41.97,1.06,1.28,3.08,3.86,5.41,2.61,2.33,7.25,1.73,9.85-.11,2.63-1.81,3.01-6.07,4.17-7.63,1.16-1.56,11.88-6.95,14.39-7.73,2.51-.78,7.92-.6,10.83.18.96.26,2.98.48,5.43,1.48,2.87,1.11,5.64,2.62,8.14,3.85,1.92.96,3.92,1.81,4.21,2.03.94.65,1.61,1.73,2.3,3.08.66,1.34,1.66,3.86,3.2,5.8,1.54,1.92,5.3,2.32,7.83,1.26,2.48-1.05,3.65-4.45,3.85-6.19.19-1.75,1.56-3.45,2.21-3.67.69-.19,2.63-.67,4.74-1.55,2.12-.85,6.3-3.2,10.06-4.56,3.75-1.33,8.58-.58,10.49-.19,1.95.4,14.83,1.66,17.04,1.55,1.25-.06,8.16.23,14.02-.64,4.7-.66,8.53-2.45,9.74-2.83,2.69-.88,9.2-1.74,10.71-1.84,1.55-.09,14.5.39,16.52.39,1.04,0,9.33.78,16.64.43,6.9-.3,12.79-1.75,13.53-1.99.82-.27,6.24-2.12,12.15-2.36,4.14-.14,9.44,1.17,9.88,1.41,1.03.57,3.07,1.73,4.05,1.73s1.62,1.06,2,1.56c.41.47.6,1.73,4.74,2.89,4.18,1.17,5.24-1.54,5.53-2.02.28-.5,1.05-1.26,1.73-1.26s1.26-.87,1.36-1.73c.09-.88,1.45-2.82,2.11-3.5.67-.68.29-1.93.56-2.79.31-.89.31-2.22-.27-3.2-.56-.97.11-1.63.48-2.21.39-.61.22-1.18-.37-1.97-.6-.75-.6-2.09-.6-3.16s-.39-2.52-.88-4.76c-.48-2.22-1.92-8.98-4.34-10.34-.95-.52-1.56-1.43-1.44-2.4.1-.95-.12-1.35-.89-2.52-.76-1.17-2.09-2.9-2.89-3.96-.78-1.06-2.32-1.84-3.67-2.23-1.36-.37-2.23-1.24-2.51-2.33-.29-1.06-.39-2.12-1.44-3.67-1.73-2.48-4.54-2.99-6.19-3.12-1.65-.08-1.93-1.9-3.69-4.22-1.73-2.33-5.09-3.19-7.13-2.69-2.01.47-2.81-.5-3.7-1.75-.85-1.28-2.01-1.45-3.36-1.45s-2.33,0-3.86-1.27c-1.53-1.24-4.53-1.24-5.39-.66-.89.57-2.92,0-3.4-.68-.49-.7-2.43-1.46-3.66-.7-1.27.8-2.32.3-3.5-.76-1.17-1.06-3.77-.69-4.63-.19-.88.49-2.22.68-3.57-.17-1.36-.89-4.56-1.09-6.09.48-1.55,1.54-3.5-1.17-4.85-1.66-1.35-.5-4.24-.28-5.19.98-.96,1.23-3.87.77-4.92-.58-.37-.48-.75-.91-1.99-1-1.68-.12-3.61-.18-3.99.5-.62,1.08-2.65.68-3.29-.1-.67-.76-1.17-.58-2.42-.58-.55,0-1.37.02-2,.21-.8.26-1.37.66-1.86.29-.87-.67-1.84-.94-3.11-.96-3.96-.1-3.56,0-5.12,1.54-1.53,1.55-2.79-.67-3.86-1.24-1.06-.6-4.14-.49-5.3.57-1.18,1.06-2.14.28-3.19-.19-1.07-.49-4.56-1.84-9.38-.3-1.16.37-3.28-.37-4.34-1.06-1.07-.66-5.12-.39-6.59.6-1.42.96-2.21.39-4.9-.98-2.69-1.34-7.07-.27-7.85.21-.77.47-1.93.88-2.8.18-.86-.66-2.39-.96-4.53-1.15-2.13-.22-3.74-.22-4.75.37-.95.6-2.67.97-4.05.12-1.33-.88-3.94-.58-4.82.08-.86.67-1.96.19-3.37-.47-1.47-.68-5.03.09-5.93.87-.87.78-2.11.47-4.04-.48-1.93-.98-6.19.08-7.08.37-.86.29-2.68-.1-3.44-.49-.79-.37-6.49-.18-8.23-.18s-3.08.67-3.75,1.24c-.67.6-2.13.98-2.9,0-.79-.94-1.84-1.15-4.85-1.24-2.98-.09-4.71.96-5.2,1.66-.48.67-1.95.67-2.9.18-.96-.49-2.22-.28-3.08-.28s-1.36-.1-2.41-.67c-1.08-.58-4.75-.22-5.5.57-.79.77-1.66.49-2.63-.11-.98-.57-3.77-.97-4.52-.11-.78.88-3.22.88-4.75-.09-1.56-.97-4.63-.38-5.91.79-1.24,1.15-2.69.95-4.52-.19-1.83-1.18-5.8-.51-7.34,1.15-1.55,1.66-3.67.49-5.52-.5-1.84-.94-4.52-.08-5.89.69-1.36.79-2.71-.11-4.53-1.07-1.85-.97-5.32-.67-6.68.21-1.36.87-2.78.57-5.04-.67-2.22-1.26-6.28,0-7.79.47-1.56.5-2.42.1-3.7-.47-1.24-.6-4.14-.6-5.2.47-1.05,1.07-2.99-.08-3.97-.67-.95-.57-2.51-.11-3.77.6-1.27.67-1.82.08-3.29-.9-1.43-.95-4.53-.56-6.29-.87-1.72-.27-2.29.12-3.57,1.06-1.24.98-2.32,1.28-3.18.78-.38-.21-1.29-.89-2.19-1.48-.87-.57-1.66-1.13-4.18-1.22-2.71-.09-3.19.28-4.09,1.06-.87.78-2.5.29-2.99-.08-.44-.39-1.08-.88-2.79-1.27-1.72-.39-4.25-.3-5.41.19-1.15.49-1.92,1.08-3.08.49-2.21-1.17-3.86-.98-4.92,0-1.07.95-2.62.58-3.18,0-.61-.58-1.09-1.27-3.11-1.94-2.05-.66-4.82.1-6.56,1.15-1.74,1.07-3.18-.38-4.54-1.23-1.33-.9-2.52-1.08-4.23-.12-1.79.97-3.7-.18-4.97-.96-1.24-.77-4.32-1.07-7.14.29-2.79,1.35-3.17.39-4.61-.87-1.48-1.26-4.27-1.26-4.96-.79-.69.5-1.62.89-3.18-.56-1.54-1.45-3.38-.39-3.95-.28-.6.08-2.13.28-3.3-1.35-.74-1.07-2.21-1.84-3.55-2.05-1.36-.21-2.72-.39-3.6-1.16-.88-.78-2.42-1.93-4.64-1.63-2.21.28-2.33-1.17-3.17-2.22-.87-1.09-1.83-.78-3.77-.5-1.96.28-2.21-.87-3.97-3-1.75-2.13-3.58-2.13-5.49-1.75-1.94.4-2.54-1.06-3.33-2.12-.73-1.07-2.87-2.51-3.36-3.07-.47-.6-.66-.6-1.84-1.37-1.17-.77-2.02-.58-4.22-.19-2.25.39-2.52-.85-2.81-2.02-.3-1.16-1.65-1.93-3.96-2.03-2.33-.09-2.33-.78-2.62-2.23-.27-1.43-2.5-2.13-3.46-2.39-.96-.31-1.75-.69-2.54-1.94-.76-1.28-1.72-2.03-3.75-2.52-2.02-.49-2.61-1.76-3.47-2.81-.87-1.06-5.32-4.15-6.97-5.42-1.62-1.26-3.25-1.93-5.22-2.03-1.93-.1-1.93-.57-2.49-2.41-.61-1.83-1.73-2.22-3.87-4.54-2.12-2.33-4.73-2.33-6.85-2.62-2.12-.27-1.15-1.62-1.75-2.99-.56-1.35-3.01-4.34-5.97-4.46-3.02-.1-2.24-.83-2.91-2.39-.66-1.56-2.62-2.34-4.64-2.42-2.01-.09-2.1-1.73-2.39-2.8-.32-1.08-1.96-1.67-3.78-1.67s-2.24-1.72-3.02-3.37c-.77-1.64-3.74-2.99-4.92-2.99s-2.39-.49-3.19-1.95c-.76-1.44-1.52-2.42-3.65-2.5-2.14-.11-2.42-1.17-3.09-2.53-.68-1.33-3.12-2.01-4.13-2.01-1.08,0-2.04-.98-3.12-2.92-1.07-1.93-4.72-2.62-6.44-2.62s-1.8-1.23-2.26-2.1c-.5-.88-2.44-2.42-3.96-2.24-1.54.19-2.6-.18-3.39-.96-.77-.78-1.56-2.22-2.61-2.69-1.05-.5-2.13-.79-3.76-1.45-1.66-.7-3.59-.39-4.63-.39s-1.94-1.36-3.59-2.42c-1.64-1.07-4.73-.66-6.65.39-1.94,1.07-3.38-.57-5.03-2.03-1.65-1.44-4.91-1.06-6.68,0-1.73,1.06-3.57.41-5.22-.38-1.63-.78-3.18,0-4.62,1.36-1.44,1.35-2.14.08-4.07-.49-1.94-.6-3.85,1.62-4.35,2.78-.49,1.18-2.07-.45-5.01-.67-2.73-.19-6.47.78-10.94,3.2-2.4,1.3-5.79,3-7.59,6.77C.02,16.72-.3,20.6.26,23.36"/>
  </g>
</svg>