<?xml version="1.0" encoding="UTF-8"?>
<svg id="Layer_2" data-name="Layer 2" xmlns="http://www.w3.org/2000/svg" viewBox="0 0 654.5 513.26">
  <defs>
    <style>
      .cls-1 {
        fill:#808080
      }
    </style>
  </defs>
  <g id="Layer_1-2" data-name="Layer 1">
    <path class="cls-1" d="m319.71,318.53c-4.46,1.98-6.08,5.19-6.41,8.58-1.3,13.73-9.11,24.34-17.14,34.43-12.13,15.22-22.08,32.01-34.94,46.73-4.33,4.95-5.26,12.74-8.15,19.05-11.71,25.53-17.94,53.08-29.09,78.81-1.58,3.65-2.83,7.81-8.06,7.04-3.6-.53-7.31-7.64-6.05-11.97,1.3-4.44,2.96-8.83,4.99-13,6.53-13.35,5.14-28.1,7.34-42.18,1.33-8.57,4.72-16.32,7.17-24.38,3.19-10.56,8.57-20.48,11.52-31.1,2.47-8.85,10.39-13.68,13.65-21.42,7.16-16.97,23-28.57,28.19-46.57.72-2.49,3.36-5.74.93-7.6-2.18-1.69-5.61.5-7.54,2.25-13.65,12.38-30.56,17.47-47.89,21.06-25.64,5.32-50.76,12.9-76.69,17.04-9.8,1.56-19.29,5.1-28.95,7.64-26.69,7.03-53.82,11.95-80.86,17.36-9.08,1.82-17.9,4.94-26.88,7.33-3.37.89-6.93,1.6-9.99-.94-7.22-6-6.33-11.12,2.47-14.45,8.49-3.2,18.31-3.58,25.87-7.64,9.87-5.32,20.31-7.8,30.62-10.92,22.94-6.94,45.27-15.76,68.99-20.58,14.11-2.87,27.98-7.78,42.02-11.57,9.08-2.47,18.17-6.17,27.52-8.58,4.67-1.2,9.81.82,14.23-2.42-2.4-4.74-5.16-9.28-7.07-14.19-2.63-6.8-.59-9.87,6.58-11.36,7.39-1.54,14.78.77,22.17-.02,1.76-.19,4.1.49,4.92-1.68.66-1.75-1.33-2.74-2.13-4.11-5.55-9.47-8.01-19.61-7.96-30.7.05-11.26,5.44-20.22,9.97-29.81-6.1-1.32-13.14-1.39-19.64-4.03-2.68-1.09-4.83-2.43-6.16-5.22-4.6-9.63-4.57-10.04,5.1-15.24,2.36-1.27,4.88-2.23,7.91-3.58-11.15-4.55-23.56-4.72-33.27-10.95-15.62-10.03-34.25-12.59-50.08-21.99-10.61-6.29-23.69-7.18-34.43-13.14-17.47-9.7-36.83-15.18-54.14-25.17-4.78-2.75-10.29-4.24-15.47-6.29-6.98-2.76-12.42-7.04-14.89-14.49-.43-1.36-1.22-2.56-.27-3.88,1.02-1.39,2.52-.99,3.85-.67,1.8.44,3.62.92,5.31,1.64,16.04,6.77,32.84,11.8,49.42,16.42,15.64,4.37,31.22,8.55,46,15.14,13.43,6,27.94,8.6,41.41,14,24.54,9.83,49.58,18.18,74.28,27.47,10.02,3.78,18.32,10.88,26.71,17.52,1.43,1.12,2.41,2.88,4.47,3.07,1.54-.73,1.08-1.97.54-2.9-6.4-10.77-12.6-21.69-22.68-29.69-5.29-4.22-10.13-8.86-13.03-15.19-1.48-3.25-3.8-6.06-6.91-7.66-16.06-8.29-25.07-23.85-37.51-35.86-14.23-13.74-25.43-30.09-38.17-45.11-10.15-11.97-18.83-25.21-29.52-36.82-2.75-2.98-3.12-7.19-4.49-10.86-.62-1.65-.48-3.26.95-4.45,1.84-1.53,3.39-.33,5.06.55,10.55,5.53,15.31,16.55,23.37,24.43,11.37,11.12,21.15,23.67,34.02,33.47,9.12,6.92,16.58,16.15,24.27,24.8,5.74,6.45,11.53,12.67,18.62,17.68,25.05,17.71,45.28,40.41,65.22,63.37,6.46,7.44,9.91,16.72,13.35,25.88,2.01,5.32,4.81,11.69,10.32,12.15,5.6.46,8.77-5.67,11.27-10.74,8.89-18.05,16.53-37.22,30.31-51.99,10.31-11.06,16.21-25.04,27.25-35.56,5.71-5.43,9.53-13.46,14.23-20.3,4.61-6.73,9.93-12.46,16.59-17.39,6.03-4.48,11.13-10.3,16.06-16.19,8.33-9.93,17.41-19.2,26-28.92,3.51-3.98,6.37-8.55,9.82-12.59,1.97-2.3,4.51-6.47,7.77-3.26,2.9,2.84,7.88,6.1,4.66,11.72-1.72,3.01-3.9,5.75-5.79,8.66-9.48,14.6-18.78,29.28-32.2,40.84-3.06,2.65-5.21,6.52-7.29,10.12-14.02,24.31-33.76,44.86-46.74,69.75-6.76,12.99-16.47,24.22-21.68,38.02-.87,2.3-3.18,4.86-1.36,7.14,2.11,2.64,4.68-.12,6.94-.81,3.4-1.01,6.77-1.98,10.23-.83,10.02,3.32,19.21.48,28.12-3.82,3.41-1.65,6.83-2.83,10.61-2.94,6.79-.19,13.05-2.92,19.53-4.24,16.12-3.3,31.12-11.48,47.51-12.34,8.84-.46,18.57-3.57,27.36,2.38,2.77,1.88,6.91,2.15,8.58-2.55.72-2.04,2.19-2.94,4.18-3.09,17.76-1.36,35.49-2.66,52.92-6.66,3.47-.8,10.84,4.6,10.85,7.93,0,5.54-4.29,7.18-8.64,6.78-14.84-1.39-28.33,4.14-42.28,7.42-6.12,1.44-12.65,3.19-15.85-5.08-.44-1.14-1.62-1.69-2.92-1.23-1.32.46-1.52,1.62-1.43,2.83.35,4.29-2.62,6.24-5.77,7.85-13.25,6.76-26.54,13.16-41.95,13.64-7.78.25-15.05,3.38-22.36,6.54,19.23,4.02,35.64,12.57,47.93,27.64,9.21,11.27,14.27,24.34,13.26,39.29-2.64,38.47-26.17,56.1-63.98,62.03,14.67,6.58,24.21,17.15,37.46,23.18,16.81,7.65,35.07,12.35,49.54,25.65,10.01,9.22,23.62,14.44,35.12,22.18,12.52,8.4,26.62,14,38.82,22.95,9.05,6.63,20.14,9.46,29.98,14.7,2.9,1.54,5.86,2.89,7.82,5.65,2.83,4.02,1.39,7.28-3.44,7.81-2.86.31-5.48-.61-8.09-1.73-10.88-4.64-21.6-9.73-33.13-12.77-3.07-.82-6.15-2.36-8.71-4.27-12.14-9.06-25.5-16.15-38.42-23.91-11.12-6.68-22.82-12.07-35.64-15.32-11.24-2.85-21.32-9.26-31.18-15.19-15.76-9.51-32.99-15.83-49.62-23.08-16.67-7.24-34.82-11.47-50.58-20.9-12.49-7.48-24.06-16.48-36.13-24.65-2.13-1.43-4.38-4.65-7.26-2.41-2.41,1.89-1.18,5.18-.9,7.92,2.08,20.03,4.12,39.94,1.34,60.19-1.51,10.93-.47,22.26.03,33.39.19,4.49.39,8.93-1.15,13.05-6.95,18.66-6.63,38.23-7.62,57.66-.15,3-.03,6.04-.45,9.02-.42,2.85-1.64,5.54-5.09,5.73-3.02.15-4.45-2-5.5-4.5-1.54-3.72-2.19-7.56-1.94-11.57,1.02-15.96-.1-32.01-.57-47.87-.69-23.27,0-46.57-1.28-69.81-.21-3.67-.99-7.2-2.4-10.73-4.37-11-6.73-22.47-5.64-34.93h0Z"/>
  </g>
</svg>