<?xml version="1.0" encoding="UTF-8"?>
<svg id="Layer_2" data-name="Layer 2" xmlns="http://www.w3.org/2000/svg" viewBox="0 0 654.5 586.78">
  <defs>
    <style>
      .cls-1 {
        fill:#808080
      }
    </style>
  </defs>
  <g id="Layer_1-2" data-name="Layer 1">
    <path class="cls-1" d="m3.57,125.76c-.84-14.49-6.88-28.75-.96-42.99,6.53-16.06,11.77-32.07,14.77-49.18,2.04-11.95,4.68-25.95,17.02-31.44,12.23-5.42,29.68.32,40.25,7.24,12.57,8.15,26.35,14.36,38.48,23.18,20.19,14.69,39.41,29.75,60.44,43.47,21.1,13.66,38.14,31.87,57.73,47.32,17.66,13.85,38.48,25.03,49.33,45.6,6.26,12.23,7.09,26.58,14,38.52,2.98,4.92,8.8,11.05,15.21,10,6.64-1.18,6.51-6.72,8.74-11.45-1.89-7.35-6.57-12.84-11.77-19.34l-7.19-9.23c-4.58-5.83-8.87-11.89-12.73-18.34-6.47-11.1-12.49-22.81-16.06-35.21-3.74-13.02-5.35-26.45-7.24-39.8-.56-4.38-3.35-8.07-3.69-12.39-.41-4.34,2.97-6.49,5.76-2.33,2.67,4.07,1.58,9.26,1.58,13.84,0,5.39.43,10.78,1.18,16.18,2.92,22.77,11.16,44.82,24.35,63.57,5.61,7.92,10.85,15.58,17.73,22.36,4.58,4.51,9.63,9.41,12.08,15.43.46-.26,1.11-.39,1.76-.61,1.15,0,2.01-.03,2.95-.03.87,0,1.8.03,2.95.12.58.12,1.2.26,1.7.52,2.42-6.03,7.6-10.92,12.08-15.43,6.88-6.77,12.08-14.44,17.79-22.36,13.16-18.76,21.46-40.8,24.36-63.57.67-5.39,1.11-10.79,1.11-16.18,0-4.58-1.11-9.77,1.68-13.84,2.76-4.16,6.07-2.01,5.73,2.33-.34,4.32-3.22,8.01-3.75,12.39-1.89,13.35-3.45,26.79-7.19,39.8-3.6,12.39-9.57,24.11-16.14,35.21-3.76,6.45-8.1,12.51-12.77,18.34l-7.16,9.23c-5.2,6.5-9.81,11.99-11.68,19.34,2.13,4.73,2.13,10.27,8.68,11.45,6.42,1.05,12.27-5.08,15.27-10,6.95-11.94,7.66-26.29,14-38.52,10.76-20.57,31.64-31.75,49.21-45.6,19.58-15.45,36.8-33.65,57.75-47.32,21.07-13.72,40.28-28.77,60.48-43.47,11.96-8.82,25.96-15.03,38.57-23.18,10.44-6.92,27.98-12.66,40.16-7.24,12.37,5.49,14.96,19.49,17.04,31.44,2.9,17.11,8.27,33.13,14.8,49.18,5.87,14.24-.12,28.5-1.01,42.99-.81,14.39,3.19,28.44,3.55,42.76.35,13.27-3.55,26.1-6.35,38.86-2.5,10.88-4.7,21.53-14.53,28.07-15.27,10.18-37.36,14.33-55.43,15.38l-34.26,2s36.25,23.68,36.92,25.61c1.43,4.13,9.64,8.6,12.92,11.57,35.88,33.03,33.34,77.12,12.49,117.37-3.81,7.41-7.34,15.06-11.92,22.02-4.43,6.58-10.54,12.42-12.96,20.21-3.46,11.43,9.02,24.02,2.14,35.25-5.04,8.15-17.53,5.87-23.21,12.65-7.84,9.24,5.22,15.63,11.07,20.61,8.61,7.44,13.11,18.1,18.15,28,3.91,7.72,20.92,28.8,12.27,36.97-5.42,5.15-20.07,4.65-25.63.21-16.42-12.95-17.93-38.72-36.27-49.48-8.46-4.88-17.76-3.41-26.96-2.56-10.34,1.01-24.07,2.89-32.49-4.64-10.91-9.59-6.54-28.23-12.65-40.29-4.08-8.1-10.26-15.4-16.52-21.86-8.85-9.3-19.54-16.64-28.84-25.41-9.88-9.18-15.51-20.64-23.95-30.87-8.15-9.74-16.85-18.99-23.57-29.8-10.51-16.95-19.7-34.58-30.83-51.28,1.75,2.68-1.22,15.41-1.53,18.87-1.46,18.84-1.11,37.75-1.08,56.52,0,9.23.99,40.06-13.66,41.61-7.1.72-12.98-12.24-14.31-17.85-1.77-7.68-.46-15.95-.46-23.76,0-18.77.37-37.68-1.19-56.52-.24-3.46-3.12-16.19-1.39-18.87-11.06,16.7-20.35,34.33-30.88,51.28-6.64,10.81-15.43,20.06-23.56,29.8-8.35,10.23-14.06,21.69-23.88,30.87-9.39,8.77-19.99,16.11-28.94,25.41-6.16,6.46-12.49,13.76-16.42,21.86-6.16,12.05-1.83,30.69-12.68,40.29-8.39,7.53-22.25,5.65-32.53,4.64-9.23-.85-18.65-2.33-27.07,2.56-18.16,10.76-19.8,36.53-36.1,49.48-5.64,4.43-20.26,4.93-25.68-.21-8.68-8.16,8.42-29.25,12.26-36.97,5.12-9.91,9.61-20.57,18.22-28,5.82-4.99,18.81-11.37,11.03-20.61-5.73-6.78-18.13-4.5-23.23-12.65-6.91-11.23,5.64-23.82,2.11-35.25-2.42-7.78-8.46-13.62-12.85-20.21-4.69-6.96-8.22-14.61-12.03-22.02-20.76-40.25-23.36-84.33,12.58-117.37,3.19-2.97,11.43-7.44,12.83-11.57.71-1.93,36.87-25.61,36.87-25.61l-34.21-2c-18.1-1.06-40.15-5.2-55.33-15.38-9.89-6.54-12.05-17.19-14.53-28.07C3.57,194.62-.37,181.79.03,168.52c.4-14.32,4.38-28.37,3.54-42.76h0Z"/>
  </g>
</svg>