<?xml version="1.0" encoding="UTF-8"?>
<svg id="Layer_2" data-name="Layer 2" xmlns="http://www.w3.org/2000/svg" viewBox="0 0 229.34 654.5">
  <defs>
    <style>
      .cls-1 {
        fill:#808080
      }
    </style>
  </defs>
  <g id="Layer_1-2" data-name="Layer 1">
    <path class="cls-1" d="m135.81,145.75c-1.6.34-3.33.15-5.31-.71-9.12-3.93-17.63-9.14-26.87-12.81-8.67-3.47-17.78-4.16-26.84-5.64-5.38-.87-10.71-2.05-15.63-4.3-12.75-5.91-24.09-11.71-38.41-13.01-7.87-.71-15.22.68-22.75,2.79,3.08,1.57,7.09.57,10.3.56,3.9-.01,7.85.44,11.78.92,7.09.91,14.26,2.02,20.9,4.7,6.77,2.66,12.53,7.03,19.06,9.92,6.94,3.01,13.95,2.75,21.31,3.5,5.86.57,11.36,2.89,16.75,5.18,5.28,2.26,11.51,3.85,15.75,7.88.59.53,5.68,6.21,6.1,5.71-7.37,8-6.03,19.74-4.53,29.6-.16-.87-3.83-3.16-4.36-4.85-.82-2.3-.47-4.96-.07-7.29.55-3.58,2.25-6.85,2.73-10.49.41-3.13-.83-4.27-3.3-2.18-2.9,2.53-3.68,7.32-4.22,10.91-.8,5.68.22,11.73,3.42,16.57,1.14,1.81,3.22,3.3,3.75,5.44.36,1.46-.04,3.73-.04,5.3-4.31-3.02-8.43-6.39-11.57-10.61-3.1-4.25-4.1-9.37-6.61-13.85-.59-.97-1.72,2.04-1.74,2.22-.37,1.23.1,2.87.43,4.08,1.3,4.63,3.63,9.09,6.52,12.88,6.66,8.68,16.04,12.26,16.96,24.49.29,3.98-7.09.06-8.43-.61-5.34-2.56-9.7-6.53-14.56-9.8-5.56-3.74-11.4-7.69-17.65-10.25-1.17-.51-4.06-2.11-5.41-1.58-4.17,1.55,8.16,7.35,9.49,8.25,5.44,3.36,10.66,6.95,16.02,10.35,4.51,2.61,9.15,6.13,14.01,7.99,2.17.83,4.05,1.07,5.18,3.3,1.25,2.68.47,6.18.43,9.06,0,1.05-.5,4.61-.21,5.15-.83-1.7-7.18-2.94-9.07-3.48-5.65-1.67-11.3-1.6-17.1-2.29-5.38-.63-10.63-1.93-15.71-3.74-3.46-1.24-6.64-3.66-10.46-3.16-2.58.33-3.11,1.14-1.05,2.59,3.13,2.32,9.15,3.15,13.01,4.25,4.81,1.35,9.86,2.05,14.76,3.07,4.92,1.06,9.49,2.81,14.33,4.27,2.55.75,8.06.78,9.96,2.7.97.91.97,4.74.97,4.74l1.11,6.47,1.39,2.49c-8.73-2.83-17.8-4.4-26.81-5.88-3.93-.64-7.9-1.79-11.61-3.23-2.56-.99-4.82-2.49-7.11-3.96-1.34-.8-7.35-5.2-7.98-1.76-.87,4.7,15.1,9.43,18.51,10.67,10.8,3.95,21.86,6.9,32.5,11.4,0,0-1.17,8.33-1.17,9.28s-.14,7.4-.14,7.4c-.08.06-30.15-12.95-31.9-13.79-4.46-2.22-8.95-4.75-12.59-8.27-.78-.77-11.66-10.11-11.13-5.86.14,1.61,3.55,4.38,4.65,5.5,10.3,9.86,24.34,15.79,36.67,22.84,1.29.76,10.57,2.64,11.83,5.7,1.46,3.93,3.21,8.12,2.47,12.43-.72,4.02-3.64,7.28-3.64,11.46,0-.99-7.15-3.01-8.08-3.26-2.79-.89-5.63-1.34-8.53-1.52-5.67-.33-11.41.24-17.08-.58-4.92-.67-9.61-2.59-14.26-4.48-3.33-1.3-8.45-4.04-11.97-3.56.1,3.04,6.31,6.11,8.9,6.82,6.94,1.87,13.93,4.27,21.1,5.84,3.42.75,6.98,1.26,10.53,1.42,2.8.14,5.89-.16,8.53,1.14,3.98,1.88,7.82,2.66,8.39,2.83.57.17,3.39,2.3,3.42,2.3.81.63-.56,5.95-.7,6.98-.24,1.58-2.25,10.4-1.2,10.9-10.07-4.61-23.41,1.21-33.87.51-5.76-.38-11.75-1.92-16.93-4.26-3.52-1.61-8.68-5.61-12.84-4.07,3.49,11.65,22.57,12.3,32.14,13.05,4.92.39,9.9.42,14.81.67,3.38.17,9.91-.37,12.7,1.92,2.25,1.84,5.38,2.87,7.36,4.92-1.1-1.17-7.36,9.28-7.68,10.58-1.08,3.98-.21,8.16.67,12.08-5.13-.45-10.31-1.58-15.46-1.13-4.57.37-8.91,1.97-13.31,3.23-5.1,1.38-10.21,2.75-15.33,4.42-6.36,2.1-13.79,1.39-19.33,5.77.84-.64,3.81,1.63,4.65,1.84,1.88.38,3.4-.46,5.31-.79,4.52-.89,9.11-1.59,13.64-2.71,5.77-1.48,11.53-5.14,17.59-5.11,8.93.08,30.55,1.62,25.71,16.05-1.51,4.64-4.69,7.28-2.3,12.46-3.8,1.56-7.79,2.9-11.69,4.32-4.5,1.6-9.25,2.31-13.39,4.52-4.15,2.13-7.28,5.73-11.2,8.15-4.72,2.9-9.9,4.23-15.01,6.03-1.85.68-10.63,3.68-10.15,6.76.26,2.38,4.43.45,5.8-.05,5.19-2.02,10.28-4.38,15.48-6.54,4.39-1.83,9.57-2.77,13.46-5.64,3.72-2.67,7.71-5.47,12.13-7.03,4.8-1.75,10.04-1.81,15.03-3.16.26,3.8.87,7.58.98,11.38,0,.84-5.51,3.14-6.26,3.59-3.23,1.79-5.3,4.21-8.08,6.64-3.31,2.94-7.34,4.92-11.21,6.98-6.69,3.64-13.72,5.18-20.91,7.53-1.76.54-5.67,1.49-4.44,4.07.31.83,16.61-4.72,18.23-5.34,6.01-2.25,11.28-5.48,16.93-8.42,3.25-1.74,7.12-2.59,10.37-4.5,2.55-1.47,5.23-5.55,6.94-1.08.3.58,2.83,9,2.12,9.67-6.23,5.85-12.04,12.18-18.66,17.61-3.6,3.02-6.44,7.26-10.29,9.92-3.37,2.25-7.2,3.59-11.13,4.22-1.59.29-4.02,1.71-5.39,1.71l.38.97s.22.2,3.23.2c8.2,0,14.6-5.81,21.64-9.23,5.6-2.71,9.5-7.8,15-10.78,2.27-1.2,4.19-3.39,6.37-4.4,1.14-.57,1.14,8.95.91,9.74-.91,3.8-4.05,6.61-5.34,10.16-.89,2.38-1.84,4.97-2.47,7.35-1.92,7.81-5.63,17.24-12.04,22.49-4.15,3.47-9.19,3.55-14.42,3.85-1.33.08-8.32.03-7.39,2.38.96,2.26,9.55,2.5,11.39,2.43,3.34-.13,6.35-1.26,9.16-2.92,6.2-3.63,11.87-7.47,14.79-14.31,1.89-4.47,1.99-10.13,5.98-13.41,4.81-3.86,3.64,4.6,2.34,6.78-2.34,3.69-5.87,6.56-7.86,10.54-2.09,4.55-2.71,9.83-4.19,14.62-1.53,4.98-4.78,8.65-7.97,12.66-2.63,3.31-4.5,6.77-8.86,7.86-4.27,1.09-8.79.46-13.16,1.46-.93.24-4.69,3.01-1.98,3.22,10.12.93,20.21-1.39,26.37-9.77,1.98-2.67,3.94-5.39,6.31-7.71,2.09-2.05,4.69-3.67,6.38-6.11,1.76-2.38,3.19-5.67,5.33-7.69.93,2.75.74,6.6.17,9.4-1.68,7.4-.46,15.01-1.77,22.45-1.42,7.56-6.68,12.09-9.79,18.78-2.16,4.64-3.29,9.87-7.81,12.74-5.53,3.52-13.43,3.29-19.7,3.73,7.49,3.07,16.25,3.11,23.06-1.59,3.59-2.49,4.88-5.81,6.94-9.4,2.01-3.41,5.49-5.57,7.61-8.81,1.02-1.59,1.71-3.36,2.65-4.94.15-.26,1.55-3.01,1.64-1.75.2,2.65-1.92,10.09-1.92,12.37,0,10.04-4.02,19.43-8.33,28.31-4.69,9.7-9.38,19.44-14.97,28.66-5.23,8.48-11.02,17.24-11.45,27.48-.12,2.59.16,5.36,2.39,2.45,2.05-2.84,2.59-7.48,3.33-10.82,1.72-7.18,5.73-13.87,9.29-20.25,5.52-10.19,11.82-19.83,17.75-29.77,5.18-8.68,8.56-18.49,10.13-28.44,1-5.78-.92-11.59-.03-17.47.18-1.63,1.02-4.89,3.53-4.22,3.3.93.17,11.42,2.56,14.13,9.35,10.63,11.74-16.55,17.18-15.94-.66,11.09-5.73,21.33-6.26,32.44-.28,5.59-.87,11.2.17,16.77,1.17,6.18,3.75,11.87,5.91,17.69,4.6,12.59,4.01,23.76,2.04,36.75-1.12,7.08-.96,14.25-1.41,21.43,2.47-1.96,2.42-4.36,2.63-7.29.39-4.01,1.38-7.89,2.19-11.84,1.5-7.68,3.93-15.36,3.83-23.25-.14-7.6-3.77-14.06-6.18-21.04-2.58-7.53-3.21-15.06-2.18-22.95.5-4.38,1.51-8.69,2.13-13.03.67-4.73.68-9.52,1.66-14.18,1.08-5.11,2.9-10.19,2.26-15.5-.33-3.1-1.62-6.08-1.53-9.21.07-1.78.39-4.61,2.38-3.01,2.26,1.89,1.68,9.85,1.99,12.42,1.04,10.02,5.09,19.45,8.87,28.72,2.63,6.52,5.71,13.07,10.25,18.49,1.56,1.92,21.62,17.56,21.14,18.28,1.19-1.6-2.42-6.27-3.52-7.7-3.63-4.89-9.7-7.24-13.46-12.22-2.26-3.14-3.26-6.74-4.85-10.21-4.15-8.86-7.77-18.02-10.32-27.41-2.23-7.98-3.36-16.25-4.63-24.43-.42-2.42-1.08-5.02-1.08-7.48,0-1.33-2.13-14.08-2.13-14.08,0,0,4.18,8.56,4.18,9.35,0,.75,4.19,15.55,4.19,16.14.16,5.52,5.63,9.55,9.73,12.3,5.1,3.41,11.05,4.6,17.11,5.09,4.44.37,12.99-.42,6.77-5.88-1.01-.91-6.98,2.66-8.67,2.59-5-.25-9.37-4.27-13.01-7.37-4.01-3.38-5.39-7.72-7.23-12.5-1.49-3.81-3.38-7.37-4.69-11.26-1.34-3.98-2.18-8.06-4.35-11.69-1.1-1.89-8.18-13.77-3.27-15.43.56-.17,2.13,0,2.85,1.34,1.21,2.12,1.64,4.39,3.43,6.19,2.26,2.21,5.36,3.23,7.79,5.09,2.45,1.91,4.76,3.93,7.03,6.02,4.73,4.22,9.56,7.25,16.04,7.89,1.89.18,14.51.67,15.04-2.38.26-1.84-11.86-2.51-13.28-2.76-15.33-2.72-23.46-17.04-33.27-27.62-2.95-3.26-6.91-7.02-5.35-11.84,1.2-3.96,4.85-3.55,7.95-2.01,4.28,2.13,7.95,5.13,12.33,7.11,5.59,2.66,11,5.13,16.01,8.9,2.34,1.74,5.06,4.64,8.04,5.32,1.34.31,4.1-.54,3.78-2.29-.29-1.79-4.94-2.59-6.23-3.38-4.4-2.67-8.17-6.11-12.45-8.9-7.41-4.72-14.55-10.28-22.44-14.25-3.48-1.72-4.02-2.1-4.6-2.29-2.94-1-5.09-.81-5.98-4.34-.63-2.35-.33-5.55,1.1-7.51,3.81,3.08,8.33,5.15,12.24,8.06,6.59,4.92,12.29,10.88,18.98,15.71,5.44,3.96,12.89,8.9,20.06,7.12,1.51-.38,4.17-1.22,3.21-3.17-.97-2.08-5.4-1.13-7.09-1.39-5.27-.92-12.66-4.61-16.47-8.41-7.27-7.22-13.18-16.86-22.46-21.77-2.27-1.18-4.97-2.26-6.69-4.28-1.99-2.43-2.12-4.76-2.71-7.79-.53-2.39-2.76-6.43-1.79-8.89,1.09-2.85,5.31-1.97,7.7-1.85,6.62.18,12.91.8,19.26,2.56,2.13.57,12.41,2.26,17.55,2.62,5.13.41,11.99.97,13.32,1.18,3.27.49,7.31,1.35,10.42-.51-.66.41-4.04-1.63-4.72-1.8-11.07-2.6-22.5-1.58-33.18-6.56-6.86-3.21-12.28-3.79-19.81-4.02-4.96-.16-12.04-.75-13.88-6.41-.28-1-1.79-8.74-.92-9.06,2.96-.98,9.62,2.16,12.76,2.58,6.1.87,12.51.81,18.45,2.79,6.99,2.31,13.39,6.11,20.41,8.33,1.42.37,16.13,4.34,16.19,1.78.05-2.39-15.81-6.76-17.72-7.41-7.18-2.76-14.33-5.88-21.55-8.46-6.64-2.43-13.41-4.23-19.81-7.19-1.58-.72-7.36-2.75-7.36-4.93,0-4.23,1.97-8.19.82-12.38-1.28-4.61,1.79-4.21,5.81-3.25,5.67,1.37,10.99,4.18,16.65,5.6,6.76,1.68,13.72,2.92,20.66,3.52,6.16.58,12.38.47,18.61.6,2.51.03,10.95,1.62,12.3-.96,1.87-3.55-14.16-2.02-15.48-1.93-6.86.39-13.81.5-20.25-2.2-5.94-2.42-11.28-5.97-17.1-8.81-5.01-2.52-10.81-4.26-14.49-8.81-4.21-5.11-4.12-12.83-2.33-18.95,1.81-6.18,7.51-8.06,13.09-9.58,7.19-1.96,13.29-5.47,19.99-8.71,2.62-1.34,5.43-2.67,8.32-3.46,3.86-1.09,8.16-1.89,11.34-4.6,1.42-1.29,4.76-5.8.29-4.27-4.86,1.72-8.95,4.47-14.01,5.87-6.87,1.85-13.64,3.78-20.57,5.33-5.15,1.18-10.47,3.48-15.73,3.68-3.57.07-3.5-1.34-3.69-4.61-.15-2.88-1.53-11.64,1.24-13.62,3.42-2.48,11.55-.78,15.42-.54,2.23.11,4.32.36,6.56.51,4.25.33,8.35,1.6,12.7,1.6,7.78,0,6.07-.57,12.55-1.5,3.63-.55,9.34-.81,10.67-5.05-4.65-.95-10.2.85-15.05.85-7.89,0-15.63-.98-23.42-1.03-4.77-.02-11.86,2.67-16.11-.51-.8-.54-2.69-1.51-2.69-1.51-2.96-1.47-1.8-6.96-1.38-9.4,1.08-7,6.35-8.75,12.37-10.57,0,0,10.7-3.26,12.6-3.44,1.87-.2,6.43-1.72,10.25-1.72,4.36,0,8.7-.87,12.97-1.56.63-.07,9.96-1.85,8.35-2.64-1.17-.57-1.17-1.52-5.68-1.52-5.53,0-11.04.36-16.54.74-4.53.33-9.46.21-13.85,1.56-5.59,1.72-11.42,4.55-17.56,4.55-1.17,0-2.3,1.13-3.19,0-1.01-1.14-1.97-1.75-1.55-3.63,1.04-5.42,6.01-9.18,11.3-10.31,4.6-1.04,9.31-1.83,13.95-2.56,9.44-1.43,18.9-2.55,28.26-4.57,2.33-.48,7.44-1.42,3.08-3.1-5.72-2.2-14.18-1.03-20.11-.61-11.63.78-22.88,3.88-34.48,5.36-.71-2.98-.96-7.11-.38-10.15.66-3.8,4.29-5.3,7.29-6.87,3.89-1.93,6.91-4.77,10.48-7.14,9.48-6.19,21.83-5.65,32.57-7.43,3.12-.51,6.59-5.64,1.49-5.34-3.44.18-8.94,1.12-12.03,1.93-6.27,1.56-13.04,2.08-19.23,4.25-6.45,2.2-11.23,7.25-17.53,9.63-5.47,2.12-4.64-3.92-3.62-7.61,1.05-3.58.85-7.59,3.02-10.78,2.96-4.29,7.18-6.33,9.23-11.42,2.02-5.09,2.27-10.78,2.27-16.25,0-2.11,1.17-9.49-.41-10.76-3.21-2.62-2.68,7.98-2.68,9.43.09,7.73-.8,22.4-11.07,23.52,1.41-.15,3.84-14.45,3.99-16.05.88-5.57,1.09-11.63-1.06-16.96-.99-2.49-2.93-5.83-5.64-6.87-2.39-.97-4.09.69-3,3.41,2.16,5.18,4.21,12.12,3.68,17.84-.2,1.95-.99,3.93-.36,5.92-1.46-4.36-3.76-7.37-3.47-12.28.24-3.68,2.38-8.16.03-11.54-1.89-2.85-6.78-.84-6.51-5.09.25-3.68,3.13-6.06,5.06-8.95,2.52-3.8,5.17-7.58,8.03-11.27,5.52-7.27,11.42-14.34,16.35-22.06,6.14-9.7,9.48-20.73,14.51-30.95,4.8-9.73,10.94-17.99,10.79-29.38-.09-8.56-2.22-16.94-3.15-25.43-.42-3.95-.89-7.87-1.6-11.76-.3-1.62-.71-6.05-2.26-7.14-3.25-2.38-2.6,6.62-2.54,8.35.51,7.77,2.79,15.27,4.21,22.9,1.41,7.32,2.01,14.98.22,22.31-2.29,9.39-8.04,17.38-12.08,26.02-4.17,9.01-8.58,17.99-14.26,26.16-5.41,7.87-12.66,14.22-18.77,21.54-3.02,3.65-5.55,7.5-7.83,11.67-1.8,3.25-4.18,5.78-7.16,6.41h0Z"/>
  </g>
</svg>