<?xml version="1.0" encoding="UTF-8"?>
<svg id="Layer_2" data-name="Layer 2" xmlns="http://www.w3.org/2000/svg" viewBox="0 0 571.51 654.5">
  <defs>
    <style>
      .cls-1 {
        fill:#808080
      }
    </style>
  </defs>
  <g id="Layer_1-2" data-name="Layer 1">
    <path class="cls-1" d="m3.4,493.04c9.53-11.95,17.89-24.9,27.05-37.15,8.82-11.82,17.27-23.86,25.29-36.32,2.08-3.34,4.4-6.72,6.29-10.26,1.77-3.45,2.57-7.29,4.35-10.76,5.29-10.48,12.22-17.62,21.02-25.13,15.42-13.01,25.83-32.12,44.3-41.41,4.42-2.19,9.43-3.12,14.08-4.77,5.37-1.85,10.63-3.85,15.97-5.74,11.67-3.87,23.47-7.49,34.96-11.53,9.62-3.27,19.06-7.38,28.69-10.61,4.71-1.56,6.43-5.25,7.96-9.64,1.68-5.18,3.68-10.06,6.89-14.61,2.21-3.23,5.77-6.65,5.77-10.79,0-1.98-11.85-6.7-13.66-7.71-4.86-2.79-9.49-5.91-13.64-9.77-2.96-2.7-5.53-5.85-8.14-8.88-8.73-10.06-15.53-20.37-22.19-31.86,0,0-12.29-20.7-12.5-21.55-5.96-17.69-20.47-25.94-35.7-34.95-7.18-4.18-14.77-8.17-21.29-13.38-10.77-8.48-20.62-17.01-33.85-21.46-10.66-3.47-21.62-9.01-30.29-16.39-5.47-4.51-10.37-9.74-16.81-12.85-3.39-1.65-7.05-3.03-10.81-3.84-1.66-.38-7-.38-7.7-2.44-.5-1.6,2.72-4.33,4-4.72,2.95-.9,6.92.39,9.59,1.49,6.77,2.68,12.39,4.99,17.92,10,4.5,4.15,8.54,9.01,13.8,12.44,5.37,3.51,11.28,6.13,17.38,8.24,8.03,2.72,15.4,4.99,22.55,9.6,6.67,4.28,12.89,9.45,19.81,13.47,3.95,2.37,7.83,4.81,11.62,7.3,7.85,5.14,15.45,10.54,22.97,16.19,6.54,4.79,13.7,9.43,19.61,14.92,4.75,4.46,6.51,10.15,9.25,15.87,3.54,7.1,8.3,13.89,13.89,19.57,4.79,4.83,7.93,11.14,12.03,16.61,4.48,6.02,9.49,11.56,14.01,17.55,3.38,4.46,8.96,14.22,15.88,10.94,4.88-2.18.91-8.63-.36-11.95-1.6-4.29-2.35-8.59-2.67-13.25-1.14-14.77-1.87-31.05,3.18-45.19,2.73-7.71,7.75-14.32,14.1-19.31,10.92-8.61-11.67-11.8-16.13-14.72-11.77-8.13-7.31-27.18-5.18-38.86.34-1.96,3.89-23.9,4.82-23.77l-2.8-.33c-13.61,4.04-25.14,12.99-38.77,17.14-7.93,2.35-15.82,8.09-24.4,6.59-6.41-1.21-12.14-7.16-16.88-11.23-5.53-4.64-10.87-9.6-16.7-13.78-5.3-3.76-10.73-7.27-15.99-10.83-17.29-11.8-33.03-25.64-47.09-41.13-5.34-5.91-11.9-12.15-13.65-20.26-.57-2.24-3.01-7.78.61-7.87,2.13-.13,5.29,3.39,6.46,4.88,3.05,3.52,5.03,7.8,7.72,11.58,6,8.15,12.33,16.06,19.23,23.31,11.27,11.56,25.35,18.67,37.7,28.6,8.87,7.08,17.01,14.88,25.05,22.78,3.26,3.23,6.71,6.94,11.61,7.19,3.85.18,7.53-2.02,10.94-3.64,13.41-6.94,26.87-11.76,41.65-15.6,5.06-1.27,16.32-1.72,19.38-6.65,2.44-3.61,3.37-7.74,6.06-11.19,2.82-3.87,6.18-7.4,9.44-10.81,13.41-13.82,36.06-13.69,49.24,0,3.34,3.41,6.66,6.94,9.64,10.81,2.58,3.45,3.51,7.58,5.82,11.19,3.19,4.92,14.45,5.38,19.59,6.65,14.62,3.84,28.08,8.66,41.51,15.6,3.39,1.62,7.09,3.82,11.02,3.64,4.85-.26,8.33-3.97,11.57-7.19,8.07-7.89,16.2-15.69,25.02-22.78,12.42-9.93,26.59-17.03,37.7-28.6,7-7.25,13.33-15.16,19.31-23.31,2.72-3.78,4.61-8.06,7.65-11.58,1.25-1.49,4.41-5.01,6.57-4.88,3.55.09,1.13,5.63.61,7.87-1.87,8.11-8.27,14.35-13.76,20.26-14.03,15.49-29.83,29.33-47.09,41.13-5.28,3.56-10.7,7.07-15.9,10.83-5.86,4.18-11.17,9.14-16.79,13.78-4.69,4.07-10.48,10.02-17.04,11.23-8.45,1.51-16.34-4.24-24.24-6.59-13.59-4.15-25.07-13.11-38.79-17.14l-2.8.33c.97-.13,4.53,21.81,4.82,23.77,2.15,11.67,6.65,30.72-5.19,38.86-4.29,2.92-27.05,6.11-16.01,14.72,6.42,4.99,11.28,11.6,14.01,19.31,5.07,14.13,4.31,30.41,3.2,45.19-.45,4.66-1.06,8.96-2.65,13.25-1.22,3.32-5.24,9.76-.42,11.95,6.9,3.29,12.55-6.48,15.94-10.94,4.55-5.98,9.45-11.53,13.93-17.55,4.08-5.47,7.28-11.78,12.14-16.61,5.63-5.67,10.29-12.46,13.87-19.57,2.77-5.73,4.5-11.41,9.21-15.87,5.91-5.49,13.09-10.13,19.65-14.92,7.51-5.65,15.04-11.05,22.84-16.19,3.98-2.49,7.83-4.94,11.78-7.3,6.84-4.02,13.09-9.2,19.78-13.47,7.19-4.61,14.55-6.88,22.51-9.6,6.07-2.11,12.03-4.74,17.46-8.24,5.23-3.43,9.25-8.3,13.77-12.44,5.37-5.01,11.17-7.32,17.86-10,2.72-1.1,6.63-2.39,9.53-1.49,1.3.39,4.67,3.12,4.1,4.72-.67,2.06-5.96,2.06-7.78,2.44-3.77.81-7.37,2.19-10.77,3.84-6.44,3.1-11.32,8.33-16.72,12.85-8.8,7.38-19.63,12.92-30.4,16.39-13.19,4.44-23.06,12.98-33.83,21.46-6.5,5.21-14.01,9.2-21.21,13.38-15.33,9.01-29.83,17.25-35.73,34.95-.25.84-12.58,21.55-12.58,21.55-6.64,11.49-13.35,21.8-22.09,31.86-2.62,3.03-5.21,6.18-8.16,8.88-4.12,3.85-8.77,6.97-13.64,9.77-1.85,1.01-13.67,5.73-13.67,7.71,0,4.15,3.51,7.56,5.79,10.79,3.18,4.55,5.15,9.43,6.79,14.61,1.58,4.39,3.33,8.08,8.1,9.64,9.57,3.23,19,7.34,28.57,10.61,11.64,4.04,23.36,7.65,35.01,11.53,5.34,1.89,10.66,3.89,16.01,5.74,4.57,1.65,9.51,2.59,13.99,4.77,18.43,9.29,28.93,28.39,44.3,41.41,8.88,7.51,15.79,14.65,21.11,25.13,1.79,3.47,2.56,7.3,4.35,10.76,1.86,3.54,4.19,6.92,6.23,10.26,8.01,12.46,16.51,24.5,25.41,36.32,9.03,12.24,17.44,25.2,27.02,37.15,1.45,2.02,6.2,10.11.86,10.52-3.79.26-5.83-8.33-7.4-10.83-5.03-8.86-12.12-16.19-18.54-24.04-12.77-15.51-20.89-33.53-32.21-49.87-5.42-7.69-12.39-14.26-18.87-20.98-6.69-6.75-12.18-14.48-18.8-21.38-6.65-6.88-13.02-14.04-19.21-21.38-4.88-5.8-9.93-11.38-17.36-13.77-8.12-2.62-16.79-2.81-24.8-5.67-14.58-5.32-29.33-10.74-43.74-16.43-9.66-3.82-17.84-9.78-27.08-14.11-5.21-2.44-10.89-6.48-16.57-7.45-1.07-.13,3.66,10.17,4.08,10.75,4.2,5.73,10.96,9.38,14.28,16.01,2.78,5.89,2.8,13.07,8.22,17.42,5.03,3.98,11.75,4.46,17.17,7.75,5.62,3.43,9.34,9.49,12.5,15.01,1.43,2.44,2.65,4.9,3.99,7.29,3.3,5.8,7.16,11.43,9.89,17.55,3.4,7.08,6.52,14.46,9.67,21.62,3.03,6.95,3.66,14.72,6.27,21.88,2.78,7.52,6.64,14.72,9.7,22.13,4.86,11.4,8.86,23.05,12.69,34.93,1.81,5.63,3.53,11.47,5.34,17.29,2.25,7.1,2.86,14.54,4.75,21.79,1.92,7.4,5.72,13.53,8.94,20.35,6.87,14.44,12.35,29.29,18.1,44.16,4.02,10.42,7.72,21.09,13.14,30.96,5.6,10.19,11.03,17.18,22.51,20.52,2.49.88,5.24,2.4,6.74,4.68,3.68,5.43-3.09,5.52-6.5,3.74-4.95-2.64-8.97-7.19-13.47-10.55-4.87-3.83-9.43-8.04-12.85-13.18-6.59-9.84-9.57-21.71-13.64-32.63-6.73-18.3-13.21-37.55-22.04-54.99-2.82-5.36-7.49-9.45-10.29-14.92-4.17-7.98-4.84-17.36-6.96-26.08-3.79-15.68-9.68-30.36-15.66-45.32-2.92-7.23-4.9-14.74-8.71-21.66-2.56-5.07-5.72-9.86-8.35-14.87-4.22-7.78-6.29-15.99-9.9-23.95-3.3-7.3-5.48-15.18-9.53-22.02-5.81-9.69-15.59-14.83-24.47-21.09-6.28-4.57-11.15-10.44-17.79-14.61-3.45-2.15-6.51-4.97-9.64-7.73-2.57-2.24-4.23-6.05-6.87-8.02-3.07-2.29-4.2,1.12-3.95,3.6.89,9.05,6.74,15.69,13.09,21.75,14.43,14.04,23.02,32.29,26.43,52.01,3.03,17.71,3.91,35.55,2.98,53.43-.88,15.78-1.51,32.76-7.96,47.37-5.47,12.26-13.65,23.66-25.56,30.39-21.46,12.08-48.7,12.08-70.06,0-11.89-6.73-20.15-18.13-25.54-30.39-6.48-14.61-7.15-31.59-7.95-47.37-1.01-17.88-.17-35.72,2.86-53.43,3.47-19.73,11.97-37.97,26.48-52.01,6.14-6.06,12.14-12.7,13.09-21.75.25-2.48-.95-5.89-4-3.6-2.65,1.97-4.27,5.78-6.82,8.02-3.15,2.75-6.22,5.58-9.64,7.73-6.69,4.17-11.46,10.04-17.86,14.61-8.87,6.26-18.59,11.4-24.38,21.09-4.12,6.84-6.29,14.72-9.64,22.02-3.53,7.97-5.55,16.17-9.74,23.95-2.84,5.01-5.87,9.8-8.5,14.87-3.68,6.92-5.73,14.43-8.67,21.66-5.95,14.96-11.9,29.64-15.61,45.32-2.08,8.72-2.85,18.1-7.07,26.08-2.69,5.47-7.34,9.56-10.24,14.92-8.75,17.44-15.32,36.69-22.05,54.99-4.02,10.92-7.09,22.8-13.72,32.63-3.41,5.14-7.9,9.34-12.75,13.18-4.43,3.36-8.5,7.91-13.42,10.55-3.37,1.78-10.35,1.69-6.57-3.74,1.48-2.28,4.23-3.8,6.82-4.68,11.38-3.34,16.94-10.34,22.47-20.52,5.34-9.87,9.12-20.54,13.08-30.96,5.79-14.87,11.32-29.71,18.08-44.16,3.26-6.83,7.08-12.96,9.04-20.35,1.92-7.25,2.51-14.68,4.74-21.79,1.73-5.82,3.5-11.65,5.41-17.29,3.71-11.88,7.73-23.53,12.48-34.93,3.24-7.41,7.05-14.61,9.85-22.13,2.56-7.16,3.24-14.92,6.33-21.88,3.07-7.16,6.24-14.54,9.49-21.62,2.98-6.11,6.71-11.75,9.98-17.55,1.33-2.39,2.59-4.84,3.96-7.29,3.2-5.52,7.01-11.58,12.55-15.01,5.39-3.29,12.09-3.76,17.06-7.75,5.55-4.35,5.55-11.53,8.37-17.42,3.27-6.63,9.99-10.28,14.26-16.01.55-.59,5.28-10.88,4.02-10.75-5.57.97-11.4,5.01-16.57,7.45-9.23,4.33-17.34,10.3-26.97,14.11-14.45,5.69-29.15,11.11-43.86,16.43-7.98,2.86-16.68,3.05-24.76,5.67-7.42,2.39-12.43,7.96-17.34,13.77-6.14,7.34-12.58,14.5-19.27,21.38-6.56,6.9-12.11,14.63-18.62,21.38-6.6,6.72-13.48,13.29-18.93,20.98-11.4,16.34-19.46,34.36-32.31,49.87-6.38,7.85-13.44,15.18-18.51,24.04-1.56,2.5-3.64,11.08-7.41,10.83-5.29-.4-.61-8.5.94-10.52h0Z"/>
  </g>
</svg>