<?xml version="1.0" encoding="UTF-8"?>
<svg id="Layer_2" data-name="Layer 2" xmlns="http://www.w3.org/2000/svg" viewBox="0 0 391.34 654.5">
  <defs>
    <style>
      .cls-1 {
        fill:#808080
      }
    </style>
  </defs>
  <g id="Layer_1-2" data-name="Layer 1">
    <path class="cls-1" d="m388.87,316.69c-3.3-3.9-10.29-1.89-14.78-2.18-15.46-.84-29.26.04-44.74,1.72-10.07,1.14-19.57,6.81-30,5.97-9.81-.8-17.91-6.76-27.25-9.28-2.11-.55-23.33-3.48-23.84-1.63.77-5.44,2.11-11.1,2.11-16.55.09-9.3-5.33-24.63-.22-33.46,2.49-4.23,12.77-4.82,17.38-6.36,9.21-3.19,17.83-8.62,22.74-17.25,5.27-9.36,7.75-19.67,14.12-28.44,4.6-6.57,7.45-11.59,15.31-14.08,4.93-1.66,12.2-1.87,15.05-6.9,5.2-8.94-12.03-12.05-17.6-9.71-10.22,4.4-13.86,18.81-20.12,27.25-7.14,9.49-16.37,18.59-15.93,31.31-3.39,1.28-38.27,14.39-38.46,13.75-1.17-6.72-3.22-11.44-9.39-14.91-5-2.8-8.07-4.6-10.16-10.27,8.35,1.48,23.62,2.43,25.27-8.81,1.78-11.34-4.16-21.96-11.32-30.09-1.63-1.87-22.1-18.77-22.43-18.06,5.24-10.51,9.78-20.46,17.03-29.61,26.66-33.53,64.15-63.84,70.71-108.69.53-3.39,2.14-37.74-8.99-29.01-7.71,6.13-4.19,25.62-6.46,34.43-6.76,26.83-18.72,53.27-36.97,74.19-12.71,14.3-26.76,27.58-36.37,44.23-2.64,4.63-4.78,10.77-9.56,13.75-4.54,2.84-11.08,3.64-16.1,1.59-6.83-2.98-6.69-9.58-10.04-15.34-9.69-16.65-23.75-29.92-36.2-44.23-18.35-20.92-30.34-47.36-37.25-74.19-2.32-8.81,1.34-28.29-6.5-34.43-11.08-8.74-9.41,25.62-8.96,29.01,6.58,44.85,44.12,75.16,70.91,108.69,7.14,9.15,11.72,19.1,16.85,29.61-.27-.71-20.69,16.19-22.25,18.06-7.31,8.13-13.19,18.75-11.46,30.09,1.63,11.24,16.95,10.29,25.27,8.81-2.05,5.68-5.16,7.47-10.18,10.27-6.12,3.46-8.2,8.18-9.48,14.91-.11.64-34.9-12.47-38.42-13.75.47-12.73-8.68-21.83-15.82-31.31-6.35-8.44-9.96-22.85-20.22-27.25-5.44-2.34-22.67.77-17.58,9.71,2.93,5.03,10.16,5.24,15.24,6.9,7.76,2.49,10.53,7.51,15.2,14.08,6.24,8.77,8.81,19.08,14.12,28.44,4.89,8.63,13.51,14.06,22.69,17.25,4.67,1.54,14.89,2.13,17.36,6.36,5.13,8.83-.44,24.15-.18,33.46,0,5.46,1.41,11.11,2.13,16.55-.53-1.85-21.74,1.08-23.88,1.63-9.27,2.53-17.42,8.48-27.29,9.28-10.33.84-19.83-4.83-30.05-5.97-15.44-1.68-29.14-2.56-44.63-1.72-4.58.29-11.46-1.72-14.78,2.18-3.3,3.73-3.77,11.61,1.56,13.5,4.01,1.43,9.36-1.94,12.8-3.61,17.25-8.22,41.31-3,59.02,1.41,6.01,1.56,11.21,5,17.3,6.36,6.83,1.52,13.77,1.48,20.53.81,1.99-.15,17.65-.95,18.07-2.25-3.42,10.79-5.31,23.61-10.4,33.62-6.06,12.18-10.4,25.16-16.81,37.12-6.28,11.76-15.8,22.23-26.9,29.7-8.85,5.86-18.72,9.72-27.58,15.51-7.55,4.94-15.57,10.18-21.45,17.18-3.2,3.79-8.48,13.39-4.94,18,9.85,13.22,21.72-15.57,27.25-18.9,11.48-6.89,21-16.28,31.17-25.05,4.4-3.96,9.1-7.6,13.92-11.12,2.25-1.56,9.72-5.13,10.79-7.73-8.85,22.14-14.32,46.42-20.88,69.37-6.37,22.73-13.02,45.76-17.69,68.98-2.69,13.7-3.95,27.63-5.82,41.44-1.91,13.77-11.72,30.66-5.88,44.37,5.48,13.15,23.2,9.87,33.02,3.77,15.53-9.73,10.66-34.76,11.04-49.99.16-10.2.64-22.58,6.5-31.35,6.89,3.02,15.53,4.69,22.08.33,7.6-5,12.2-14.98,13.96-23.53,1.57-6.87,1.56-13.9,2.33-20.75.38-4.71,1.89-9.41.97-14.06,1.89,10.44,13.86,24.43,21.28,31.86,16.5,16.48,39.56,16.45,55.93,0,7.49-7.43,19.23-21.42,21.24-31.86-.9,4.65.61,9.36,1.12,14.06.71,6.85.6,13.88,2.07,20.75,1.92,8.55,6.54,18.53,14.08,23.53,6.56,4.36,15.25,2.69,22.18-.33,5.8,8.77,6.35,21.15,6.48,31.35.37,15.23-4.51,40.27,11.02,49.99,9.8,6.1,27.52,9.37,33.09-3.77,5.79-13.72-3.99-30.6-5.89-44.37-1.94-13.81-3.22-27.74-5.9-41.44-4.6-23.22-11.28-46.26-17.74-68.98-6.32-22.94-12.03-47.23-20.79-69.37,1.04,2.6,8.53,6.17,10.66,7.73,4.85,3.52,9.6,7.16,14.14,11.12,10.03,8.77,19.52,18.17,31.02,25.05,5.49,3.33,17.34,32.12,27.34,18.9,3.44-4.61-1.83-14.21-5.06-18-5.77-7-13.84-12.23-21.48-17.18-8.86-5.79-18.71-9.65-27.61-15.51-11.01-7.47-20.47-17.95-26.86-29.7-6.39-11.96-10.64-24.94-16.78-37.12-5.07-10.02-6.92-22.84-10.36-33.62.38,1.3,16.14,2.1,18.06,2.25,6.83.68,13.77.71,20.44-.81,6.15-1.36,11.41-4.8,17.43-6.36,17.67-4.41,41.72-9.63,59.1-1.41,3.37,1.67,8.74,5.04,12.69,3.61,5.33-1.89,4.87-9.76,1.56-13.5h0Z"/>
  </g>
</svg>