<?xml version="1.0" encoding="UTF-8"?>
<svg id="Layer_2" data-name="Layer 2" xmlns="http://www.w3.org/2000/svg" viewBox="0 0 654.5 361.3">
  <defs>
    <style>
      .cls-1 {
        fill:#808080
      }
    </style>
  </defs>
  <g id="Layer_1-2" data-name="Layer 1">
    <path class="cls-1" d="m330.19,146.26s.59-.77,1.53-1.29c-.17.08,1.28-.51,2.39-.73,1.29-.25,2.25-.09,2.25-.09,0,0,.71-2.21.71-1.78,0,.47.35,1.54.35,1.54,0,0,9.07.92,11.16,1.01,2.08.12,5.83,1.13,5.83,1.13,0,0-.11-1.45.23-2.11.32-.67.44-.77.44-.77,0,0-1.56-1.76-.12-2.73,1.45-1.01,5.19-3.98,5.63-3.98s1.32-.56,1.32-.56l1.21-1.76s-.65-2.21-.21-2c.44.24,1.3,1.45,1.3,1.45,0,0,1.76-2.29,2.21-1.66.44.67,1.54,1.22,2.09.32.56-.88,1.44-1.18,1.44-1.18,0,0-1.98-1.56-.23-1.77,1.77-.21,2.42,0,2.54-1.21.11-1.22-.12-4.2-.44-5.04-.33-.89-1.65-1.34-.77-1.24.89.11.77-.35.89-.88.11-.56-.35-4.74-.12-6.29.23-1.53.32-1.62.23-2.74-.11-1.12-.33-3.96,0-6.5.32-2.53.32-3.52.43-5.95.12-2.42.44-3.54.44-3.54,0,0-.32-3.83.23-3.18.56.67,1.66.89,1.66.89l1.32-2.34s-.55-1.08-.35-3.06c.23-1.98.9-1.98.9-1.21s-.13,2.21.41,1.33c.56-.89,3.42-2.55,3.31-3.96-.11-1.46-1.32-3.96-1.21-3.78.11.25,1.1,1.34,1.21,1.02.11-.36-.44-2.86-.11-2.43.33.43,1.54,2.19,1.54,2.19,0,0,2.42.67,3.07-1.41.66-2.11.9-4.31,1.32-3.55.45.77.9,2.34,1.98,1.56,1.12-.78,3.42-2.31,5.19-4.3,1.76-1.98,2.09-2.21,2.19-2.53.11-.35-.44-2.65,0-3.41.44-.81.56-1.01.56-1.01,0,0,.21-2.43.67-1.86.44.55.65,3.19,1.53,2.33.88-.9,3.74-4.32,6.49-6.19,2.75-1.89,8.14-5.96,10.91-7.81,2.74-1.89,4.4-3.55,5.71-5.52,1.34-1.98,2.65-5.63,3.09-4.83.44.76,1.21,1.41,2.1,0,.86-1.46,3.18-4.31,3.18-3.76s-1.02,2.67-.59,3.26c.44.6,2.13.32,2.65.15.51-.15,1.68-.31,2.42.52.73.84,3.01.88,4.83-.35,1.84-1.28,5.53-3.55,6.54-4.34,1.02-.81,1.84-1.54,1.98-1.04.15.52.21.96.73.44.51-.49,1.54-.9,3.15-2,1.62-1.1,2.21-1.74,2.86-2.31.65-.61.29.05.17.72-.17.64.7.96,1.96.23,1.26-.74,2.63-2.35,2.57-1.78-.05.6-.23,1.04.29.73.52-.28,1.77-.78,1.4-.59-.36.21-2,1.78-2.05,2.13-.07.37.2,1.12,1.54.21,1.3-.86,1.25,0,1.25,0l.93.16s-1.08.65-1.16.97c-.08.28.21.73.74.73.49,0,.86.36,1.17.59.28.21.49.36,1.02,0,.52-.37,1.52-.8,1.52-.8l-.65,1.01s.23.43,0,.97c-.21.48.08.35.97,0,.86-.37,2.05-.74,2.93-2.22.88-1.46,1.62-2.49,2.26-2.71.67-.23.89-.29.89-.29,0,0,.72-.51,1.54-1.32.81-.81,1.02-1.2,1.48-1.25.44-.08.57.07,1.24-.52s1.02-1.69,1.53-1.84c.53-.13,1.12-.23,1.12-.23,0,0,.96-1.77,1.53-1.61.6.15,1.04.44,1.62,0,.59-.44,1.82-1.92,4.26-3.09,2.42-1.17,4.55-2.57,5.64-3.22,1.1-.67,2.21-.88,2.66-.15.43.72,1.02,1.69,1.53.88.51-.81,2.29-3.45,4.86-4.7,2.55-1.26,3.79-.8,2.99.2-.81,1.05-2.94,2.22-3.3,2.66-.36.44.07.59.52.73.43.16,2.42.6,2.13,2.34-.29,1.76-.52,2.5-.52,2.5,0,0,2.19,1.02,2.19,1.98s-1.76,2.08-2.05,1.46c-.31-.57.08-.48-.59-.8-.66-.29-2.19-.6-3.44-1.04-1.24-.44-2.13-.85-2.13-.85,0,0-.07,2.31-1.77,2.11-1.69-.23-4.55-1.1-6.76-.31-2.19.8-3.07,1.18-3.45,1.69-.35.52-.65,1.09-1.45,1.42-.81.27-1.02.93-2,1.6-.96.65-2.63,1.46-2.63,1.46,0,0,.59.52-.29,1.24-.89.74-1.4.96-2.51,1.41-1.09.45-1.6.67-1.38,1.16.23.53-.67,1.44-1.24,1.76-.6.37-1.18.61-1.18.61,0,0,.52.88,0,.93-.51.09-1.1-.35-1.76-.2-.66.15-2.13,1.82-3.15,2.63-1.02.81-1.18.97-1.18.97,0,0,.15,1.77.23,3.3.08,1.54.37,2.11-.36,1.54-.74-.57-.32-.89-1.84-.96-1.56-.08-2.42.28-3.23.96-.33.27-.67.43-.85,1.02-.27.82-.32,2.13-.32,2.13,0,0-.74-1.7-1.78-1.7s-2.78,1.12-3.21,2c-.45.9-.88,2.5-1.46,2.13-.59-.36-.74-.29-1.2-.21-.44.07-.57-.15-1.98.72-1.38.88-2.34,1.57-3.51,1.98-1.18.45-1.48.69-1.76,1.46-.29.82-.37,2.73-.67,2.14-.31-.6-.21-1.05-.8-1.1-.6-.04-1.92-.35-2.94-.04-1.02.27-2.94,1.22-2.79,2.11.15.85.66,2.18-.07,1.98-.74-.24-1.18-.24-1.85.13-.35.21-2.78,1.86-5.61,2.97-2.46.94-5.32,1.37-6.34,1.37-2.21,0-13.35-1.13-14.38-.09-1.02,1.04-1.46,2.51-1.61,2.95-.15.44-.74,3.22-.45,3.38.31.15,3.01-.08,3.01-.08l-1.89,1.78s.37,1.6.37,2.49-1.4,2.7-1.33,3.14c.07.45,1.6,0,1.25,1.04-.37,1.02-.89,2.74.15,2.91,1.02.23,3.8-.17,3.07.23-.72.45-3.14.97-3.8,2.45-.67,1.45-.67,2.63,1.09,3.64,1.78,1.04,2.35,1.18,2.87,1.34.51.15,1.53-.31,1.02.21-.52.52-1.6,1.48-2.81,2.14-1.17.65-1.45,1.3-.8,1.76.68.43,1.61.21.94.59-.64.37-1.68.81-2.26,1.1-.59.28-1.4,1.4-2.55,1.62-1.18.21-3.3-.01-4.11,1.16-.81,1.2-1.18,3.52-.32,3.6.9.08,2.22-.03,1.48.59-.73.6-1.9,2.08-2.65,3.23-.73,1.18.29,1.46,1.12,1.77.8.28,2.34,1.01,1.98,1.16-.37.15-1.53,1.32-2.27,2-.73.67-1.56,1.33-1.77,1.85-.23.51-.15,1.16.45,1.29.59.17,1.52.17.93.37-.57.23-1.97,1.25-2.71,2.06-.72.81-2.85,1.69-3.3,2.27-.43.59-.37,1.33.08,1.4.44.08,1.48.29.6.44-.89.16-1.85.84-2.5,1.24-.66.45-2.66,2-3.15,2.43-.51.45-1.41,1.33-1.49,1.77-.05.44,1.49,1.17.9,1.32-.6.16-2.65.45-3.62,1.49-.94.98-1.4.98-1.1,1.68.31.65.16.81-.12.81s-1.04,0-1.41.35c-.36.39-1.09,1.09-1.92,1.69-.78.59-1.76.74-1.97,1.2-.23.41-.36.72-.59,1.16-.23.44-.59.82-.74,1.41-.15.59-.05,1.22.31,1.61.37.36,1.04.21,1.1.86.07.68-.31,1.56-.31,1.56,0,0,3.07,1.76,4.76,2.5,1.7.72,2.58,1.37,3.47,1.89.86.53,3.43.32,3.8.73.37.44,1.69,1.93,2.06,1.88.36-.11,1.02-.17,1.61-.84.59-.67,1.76-1.84,1.61-1.12-.13.76-1.32,1.72-.72,2.08.59.39,3.8,1.17,4.1,1.04.31-.16.73-2.08,1.18-1.62.44.47.36,1.97.73,2.21.37.21,3.74,1.16,4.91,1.61,1.17.44,4.24,1.74,4.39.88.15-.88,2.06-5.96,2.14-5.49.07.43-.28,2.79-.28,3.82s-.68,2.06.2,2.65c.89.56,4.86.88,5.4.88s.88-1.54.88-2.3c0-.81.65-.69.88.08.21.77.56,2.22,1,2.65.44.45,8.03.23,9.91.78,1.88.55,2.63.88,2.63.88,0,0,2.1-.98,3.21-1.1,1.08-.11,1.41-.33,1.41-.33,0,0,.56-2.43,1.44-4.95.88-2.54,1.33-5.19,1.45-3.75.11,1.45-.12,4.52,0,5.93.11,1.46.31,2.45.31,2.45,0,0,.21-1.21.77-1.12.56.13,1.22.23,1.22.23,0,0,.21-1.09.55-.77.69.7,1.77,2.31,2.63,1.53.89-.76,2.33-2.85,2.33-2.85l-1.33-4.87s1.98,2.78,1.98,3.42c0,.68.65.33.65.33,0,0,2.87-.77,2.75-2.31-.09-1.54-.09-2.97-.09-2.97,0,0,.98.78,1.2,1.65.23.88.45,1.1.45,1.1l3.18-1.1-.32-4.62,2.07,4.16s1.54-.97,1.54-.41.56,1.1,1.22.64c.66-.43,1.86-1.2,1.86-1.2,0,0,0-1.21.88-1.08.88.09,1.22.19,2.1-.57.88-.77,1.2-2.21,1.2-2.21,0,0,.23-1.66.77-1.44.56.23.67,0,1.1-.45.44-.41,1.66-1.62,1.76-1.96.12-.35,0-1.88.56-1.66.55.24,1.32-.65,1.32-.65l2.98-3.42s3.39-3.31,5.28-5.29c1.86-1.97,2.87-3.31,3.21-5.61.32-2.31.97-2.53.97-2.53,0,0,.89.77,1.33-.11.44-.88.77-2.22,2.18-3.63,1.44-1.46,2.99-3.21,3.64-4.51.67-1.34,1.21-2.34,1.44-1.66.23.64.65.55.65.55,0,0,.44-.55,2-1.1,1.53-.56,3.3-1.86,3.3-1.86,0,0,0,2.33.88,1.74.88-.53,2.98-1.97,4.4-4.6,1.42-2.66,1.53-5.95,2.65-9.14,1.09-3.22,2.63-4.64,2.63-4.64,0,0,.21-1.18,1.54-2.77,1.32-1.53,1.65-1.85,2.19-3.06.56-1.22,1.1-1.78,1.1-1.22s-.23,4.97.33,4.63c.56-.35,2.65-1.64,2.74-2.42.12-.76,1-4.74,1.21-3.62.23,1.1-.33,4.16.44,2.74.77-1.44,2.33-5.49,2.53-4.4.23,1.1-.76,3.63-1.2,4.4-.44.76.44,2.1,1.88,1.76.8-.17,1.44-1.06,2.73-2.21,1.05-.94,2.89-2.21,2.89-2.21,0,0,.65-2.51,1.54-2.74.88-.21,2.74-2.19,2.63-1.54-.11.68-.32,1.88-.32,1.88,0,0,2.09-1.09,4.07-1.54,1.98-.45,4.28-1.44,6.82-1.98,2.51-.55,6.37-1.21,8.69-1.76,2.31-.57,3.52-1.1,4.74-2.21,1.22-1.1,6.05-3.98,8.79-4.84,2.77-.88,5.73-1.12,7.48-2.09,1.78-1,5.19-1.77,4.87-1.33-.33.44-1.34,1.77-.44,1.53.88-.2,2.42-1.09,3.51-1.29,1.1-.24,1.33-.12.77.2-.53.33-2.19,1.01-2.62,1.86-.45.89,0,1.98.65,2.47.65.4,2.74,2.5,4.28,1.94,1.54-.55,8.35-3.3,10.79-4.08,2.42-.76,3.41-1.3,5.04-2.51,1.66-1.22,3.66-1.98,2.99-1-.65,1-2.63,2.41-1.33,2.09,1.33-.31,7.61-2.63,6.28-1.77-1.33.89-4.18,1.77-2.3,1.89,1.86.12,2.86-.12,2.86-.12l-.44.88s1.3-.21.77.12c-.57.33-2.86,1.54-3.19,1.98-.35.44-.23.98.21,1.09.44.12,1.65-.21,1.44.21-.23.45-.56,1.78.33,1.78s3.29-1.33,4.51-1.88c1.21-.55,3.07-2.21,3.74-2.97.66-.77,2.21-4.19,3.95-4.96,1.77-.78,1.98-1.09,1.45.35-.56,1.42.98,1.17,1.53.76.56-.44,2.21-2.42,3.62-2.98,1.45-.56,2.66-1.56,3.22-2.22.53-.65.43-.85,1.18-1.41.8-.53,3.21-2.74,3.87-3.41.67-.67,3.63-4.75,4.84-5.08,1.2-.31,2.31-.12,2.31-.12,0,0-.45-1.85.55-3.51.98-1.65,2.09-1.88,2.09-.76s-1.42,4.27-.65,3.84c.76-.44,2.3-.56,3.3.55,1,1.12,1.09,2.33,1.09,2.33,0,0,2.31.21,2.77,1.32.44,1.1-.56,2.65-.77,1.97-.23-.67-.23-.98-1.32-1.1-1.1-.09-4.86-.2-4.86-.2,0,0-.32,1.3-2.09,1.44-1.77.09-4.3.73-5.17,1.52-.88.8-1.86,1.78-2.53,2.46-.65.63-.89,1.52-1.44,1.73-.53.23-.88.33-.88.33,0,0-.67.89-1.3,1.42-.68.57-1.89,1.45-1.89,1.45,0,0-.43.44-1.1,1.1-.65.67-2.09,1.66-3.07,2.09-1,.44-3.21,2.09-4.75,3.18-1.52,1.12-3.51,2.55-4.83,3.42-1.32.88-6.05,3.54-6.49,3.95-.44.45-.11,2.67-1,2.67s-1.65-.44-1.65-.44c0,0-1.44.56-3.15.92-1.96.41-4.23.61-4.23.61,0,0,.77,1.62-.44,1.09-1.2-.53-1.97-.77-4.18-.32-2.21.44-8.35.32-8.35.32,0,0-1.22.78-1.98.89-.77.12-1.56-.77-1.66.12-.11.86-.44,2.39-1.09,2.39s-1.66-.52-3.42,1.01c-1.76,1.54-3.19,1.98-3.86,2.75-.65.77-2.43.86-3.62,1.08-1.21.24-3.98.37-6.4-.21-2.42-.55-7.14-2.42-10.89-3.19-3.74-.76-8.03-2.97-10.56-1.85-2.54,1.09-3.86,1.64-4.4,2.51-.56.89-.56,1.09-.56,1.09,0,0,3.3,0,2.55.44-.78.45-3.21,1.21-3.21,1.21,0,0-1,.9-1.42,1.45-.45.55-2.87,2.99-1.89,4.4,1,1.44,2.65,1.56,3.31,1.56s1.76.23,1.76.23c0,0-3.63.86-2.85,2.06.74,1.22,1.64,2.66,2.3,2.89.65.21,1.21.65,1,.65-.23,0-2.33.45-3.63.88-1.33.45-2,.78-1.33,1.32.66.55,1.76,1.46,1.33,1.54-.45.09-2.31-.08-3.43-.08h-6.15c-2.21,0-2.21-.68-4.07,0-1.89.64-3.19,1.3-3.52,2.74-.35,1.41-.23,2.51.55,2.74.76.21,3.42,0,2.65.45-.77.44-1,1.53-.44,1.97.55.45.65,2.1-.44,2.1s-4.3-.56-3.98-.11c.33.44.68,1.32,1.32,1.65.68.32,1.33,1.1,1.33,1.1,0,0-1.33.45-1.76.56-.44.08-1.44.32-1.44.32,0,0,.23,1-.33,1.1-.53.11-1.1-.11-1.1-.11,0,0-.86.35-2.19.21-1.32-.11-2-.11-2.97-.33-1.01-.23-2.43-.36-3.3-.23-.89.12-3.1,1.86-3.31,2.65-.21.77.44,1.64.88,2,.45.31.89.67.45.76-.45.09-1.88-.89-3.3-.45-1.44.45-3.3.68-8.17,4.54-4.83,3.86-10.55,7.58-14.51,11.89-2.18,2.35-4.48,5.09-6.58,7.52-1.76,1.96-3.55,3.82-3.55,3.82,0,0-.76,1.1-1.41,1.78-.67.65-1.22,1.3-1.22,1.3,0,0,1.1.45,1.76.67.67.21,1.65.33,1.65.33,0,0,4.63-4.86,4.3-4.42-.33.47-2.51,4.08-2.42,4.86.09.77.9,2.3.9,2.3,0,0,1.73-4.19,5.59-5.39,3.86-1.22,6.82-1.3,6.82-1.3,0,0,1.21-.69,2.09-.59.89.12,1.44.24,2.21.35.76.11,3.63.11,5.07.24,1.42.08,1.86.32,1.86.32,0,0,3.07-2.98,5.63-1.97,2.53.96,3.96,3.95,3.96,3.95,0,0,2.62.74,4.18,1.97,1.54,1.22,2.18,1.98,2.18,3.1s.24,2.29.89,2.29,5.83.32,8.14-.23c2.31-.53,5.41-.64,8.26-1.52,2.86-.88,8.37-1.32,10.57-1.66,2.19-.33,6.38-1.22,9.88-1.98,3.52-.76,7.83-1.64,8.38-1.97.56-.35,2.42-.88,2.97-.88s2.22-.77,2.87-.9c.65-.11,1.32-.33,1.98-.76.66-.45,2.3-.57,2.3-.57,0,0,1.54-1.18,2.31-1.3.78-.12,1.21-.12,1.21-.12,0,0,1.88-1.21,2.62-1.42.78-.23.9,0,1.33-.23.45-.21,1.12-.76,1.54-.89.44-.08,1.89-1.08,2.63-1.29.78-.23,1.45-.45,1.45-.45,0,0,1.32-1.08,1.98-1.08s1.86-.68,1.86-.68l2.42-.77s3.3-1.65,5.28-2.54c2-.86,6.5-3.18,5.61-2.21-.88.98-7.37,4.08-9.34,4.75-2,.64-9.27,3.72-11.25,4.75-1.97.98-6.57,2.95-6.57,2.95l-2.99,1.1s-.88.32-1.86.76c-1,.45-1.98.78-1.98.78,0,0-.12.55-1.12.65-.98.12-2.41.55-2.41.55,0,0-3.54.78-3.95.9-.45.11-2,.76-2.87.86-.89.12-1.32.21-1.32.21,0,0-.88.33-1.54.47-.67.08-2.65.43-2.65.43l-2.62.23s-.8.77-1.44.77-2,.09-2,.09c0,0-.89.57-1.97.68-1.12.12-1.77.32-2.21.32s-1.86.11-2.33.21c-.43.13-2.18.68-3.83.68s-3.96.88-6.61,1.44c-2.63.55-5.4,1.08-6.26,1.21-.88.09-3.41.41-4.51.77-1.1.31-2.43.64-2.43.64-1,1.34-.77,3.98-.88,4.87-.12.88-.35,2.53-.35,2.53,0,0,.77-.11,1.01.77.21.89-.12,2.87,0,3.41.11.56.55,1.44,1.21,1.65.65.23,1.32.67,2.54.98,1.2.33,4.6,1,7.82,1.74,3.25.72,7.34,2.42,8.97,3.02,1.61.57,4.47.86,7.04,1.46,2.57.57,6.6,1.22,7.93,1.45,1.33.23,5.52.73,6.76,1.12,1.24.35,4.39,1.01,5.49,1.3,1.1.31,2.65.45,3.18.74.49.31.72.57,1.17.57.43,0,2.11.52,2.54.82.45.28,3.98,1.08,4.43,1.41.43.27.73.57,1,.72.31.13,1.93.36,2.22.65.29.29-.23.29.44.52.67.23,1.7.57,2.19.74.52.12,1.77.65,1.77.65,0,0,2.63.82,3.45.97.8.11,1.68.49,2.06.65.36.13,3.88,1.36,4.75,1.69.89.28,5.59,2.19,6.61,2.71,1.04.51,6.77,3.82,6.24,4.11-.51.28-5.05-3.03-5.93-3.23-.89-.21-5-2.13-5.36-2.27-.35-.16-3.22-1.32-3.22-1.32,0,0-.89-.15-1.54-.45-.68-.28-1.12-.44-1.12-.44,0,0-.6.29-1.46-.07-.86-.39-.74-.68-1.98-.81-1.25-.16-3.01-.89-3.01-.89,0,0-1.54-.21-2.35-.73-.8-.52-.88-.65-1.53-.86-.66-.23-1.54-.17-2.06-.45s-.59-.73-1.3-.81c-.74-.07-1.85-.36-2.22-.74-.36-.33-.81-.48-1.3-.7-.52-.24-3.3-1.34-3.3-1.34,0,0-1.33.16-2-.13-.66-.31-1.04-.61-2.21-.81-1.17-.23-2.55-.44-3.3-.52-.73-.07-1.46-.37-1.46-.37,0,0-.68.03-1.69-.08-1.02-.07-4.7-1.02-4.7-1.02,0,0-4.18-.44-5.21-.72-1.04-.31-4.99-.89-6.97-1.48-1.98-.57-4.32-1.04-6.08-1.69-1.77-.64-7.14-2.18-10.3-2.77-3.13-.6-5.87-.82-5.87-.82,0,0-2.57-.28-2.86.23-.28.53-.07,3.35-2.04,4.82-2,1.49-5,1.8-5,1.8,0,0-1.76,4.1-5.56,4.1s-5.31-2.35-5.44-2.35c-.16,0-9.46,1.77-14.23-.44-4.78-2.21-7.93-5.64-7.93-5.64,0,0,.07,1.17-.6,1.98l-.65.8-.07,3.22-1.25-2.49s-.52.67-.45,1.26c.08.6,0,1.02.45,1.38.43.37,8.81,10.77,9.9,11.81,1.09,1.01,6.11,5.73,9.63,8.37,3.51,2.65,6.6,5.67,9.1,6.19,2.49.51,3.51.31,4.11.13.59-.13,1.61-.57,1.16-.13-.44.43-1.16.8-1.4,1.38-.23.6-.15,1.4.45,1.54.59.13,3.23.53,5.27-.21,2.06-.73,3.23-.96,4.34-1.4,1.1-.44,1.98-.81,1.4-.23-.59.6-1.02,1.32-.21,1.32s1.17.03,1.69.15c.52.16,1.3.23.57.74-.73.51-1.3,1.24-2.19,1.92-.89.65-1.41,1.4-.67,1.77.74.35,2,.64,2.35.56.36-.07,3.23-.86,4.03-1.09.82-.21,1.02.53.29,1.41-.73.88-1.61,1.97-.81,1.97s2.57,0,2.13.21c-.43.24-.88.45-1.61,1.05-.73.56-1.76.74-1.38,1.97.36,1.25,1.76,2.57,3.43,2.57s5.43-1.45,7.73-1.24c2.27.21,4.32.21,4.97.51.65.31,1.48.15.96.59-.52.44-1.33,2.22-.73,2.42.59.24,1.9.31,2.79.59.88.29,2.55.67,2.55.67,0,0-1.98.88-2.34,1.86-.37.93-.24,1.24.51,1.81.73.59,2.35,1.82,2.35,1.82,0,0-1.92.09-3.45,1-1.56.85-1.92,1.16-1.92,1.66s.86,2.35,1.25,2.81c.37.43,1.97,1.46,2.29,1.89.28.45.21.51.51.8.28.29,1.53.9,2.21,1.04.67.16,1.38.6,1.38.6,0,0-1.54.16-2.19.27-.67.16-.52.39-.16.82.37.44,1.41,1.68,1.41,1.68,0,0,.65.16.94.37.28.24,1.9,1.41,3.51,1.48,1.61.08,5.13-.44,9.34-1.1,4.19-.65,7.83-2.21,13.21-1.84,5.35.39,7.04,1.02,7.99,1.4.94.36,2.42.29,2.42.59s.13,2.1.29,2.42c.15.31,1.17.6,1.61.89.44.28,1.69,1.92,3.01,1.92s2.42-.44,2.26.15c-.12.56.37,1.66,1.04,1.98.67.28,2,.44,2.43.57.44.15,2.54.51,3.74.65,1.16.15,4.84,1.2,5.71,1.05.89-.17,2.21-1.05,2.21-.39s.37,1.2,1.26,1.24c.88.08,3.43.39,4.68.82,1.25.45,2.99,1.24,3.75,1.12.72-.15,1.82-.97,1.76-.23-.07.74.21,2.17.52,2.62.29.45,2.93,2,5.28,3.54,2.33,1.53,4.92,3.31,5.21,3.31s1.24-.23,1.16.28c-.08.52.97,1.1,2,1.56,1.02.44,1.97,1.24,1.74,1.61-.2.37-.05.52-.05.52,0,0,1.66.59,2.41,1.01.74.44,2.43,1.65,2.43,2.15,0,.48.05.64.05.64,0,0,1.34.08,2.06,1.04.73.94,1.78,1.84,2.13,2.27.36.44,1.4,1.45,1.69,1.84.29.36.88,1.25,1.33,1.69.44.43,3.66,1.64,4.47,1.76.8.17,2.27.17,2.86.59l.88.65s2.14-.13,3.31.16c1.18.31,1.4.57,1.9.37.53-.23.89-.15,1.02-.96.16-.81.08-1.77.44-.94.37.78.6,1.53.21,2.39-.36.89-2.26,1.65-2.26,1.65,0,0,.64.41-.29,1.66-.96,1.25-2.49.24-2.49.24,0,0-1.54.2-1.41.78.16.6,1.93,2.3,2.05,1.64.16-.67.16-1.2.16-1.2,0,0,1.17.96.81,2.23-.36,1.22-1.4,1.16-2.66.08-1.25-1.12-2.85-3.11-2.85-3.11,0,0-1.76.96-4.19-1.46-2.42-2.43-6.88-6.84-6.88-6.84,0,0-1.2-.15-1.49-.96-.28-.81-.44-1.01-.44-1.01,0,0-.72-.44-1.01-.9-.29-.43-.98-1.17-.98-1.17,0,0-1.52-.65-2.69-1.97-1.17-1.3-2.13-2.19-2.87-1.61-.73.57.97,2.7.08,2.27-.86-.45-3.38-1.97-4.34-3.6-.96-1.61-1.17-2.78-3.66-4.4-2.49-1.62-4.4-2.81-5.36-3.38-.96-.57-1.34.47-1.18,1.1.16.65-.65.45-.65.45,0,0-1.32-.4-1.77.2-.44.6-.51.88.08,1.33.59.44,1.85,1.34,2.42,1.78.59.4,1.02,1.53,1.02,1.53,0,0,1.18.59.96.59s-1.38-.07-1.02.21c.37.28-.65,0-1.1-.13-.43-.15-2.34-.45-2.86-.45s-.29.94.15,1.12c.44.12,3.3.86,2.78.94-.49.07-1.6.16-2.34-.09-.73-.21-1.9-.8-2.27-1.1-.37-.28-.81-1.16-1.32-1.22-.52-.08-1.32.15-1.1.43.23.31.74.94-.07,1.05-.82.05-.89-.25-1.97-.74-1.12-.52-6.54-3.6-10.07-5.43-3.51-1.88-5.79-3.39-7.56-2.43-1.76.93-3.88,3.37-3.72,3.88.12.52.73,1.33,2.18,1.86,1.46.49,3.02.86,2.37,1.01-.68.15-3.75-.61-5.68-1.26-1.9-.65-5.35-1.17-5.35-1.17,0,0,1.04,1.26.08.82-.96-.45-4.34-1.49-8.14-4.07-1.9-1.25-4.07-2.89-5.59-4.32-2.46-2.29-3.75-4.19-5.87-4.82-3.46-1.05-10.06-1.85-13.37-3.39-1.41-.67-3.6-1.4-4.87-2.02-1.66-.85-2.17-1.49-2.17-1.49,0,0,.07,1.08.21,1.61.16.51,1.04,1.9.6,1.6-.44-.27-1.98-1.45-1.98-1.45,0,0-1.1.44-1.84-1.18-.73-1.61-3.45-4.34-5.05-5.35-1.61-1.02-3.75-1.69-4.48-.97-.73.76-.37,3.15-.66,4.11-.29.97-1.46-1.24-1.54-.36-.05.88-.37,2.18-.44,1.92-.07-.29-.28-2.27-.28-3.15s-.16-1.85-.82-2.51c-.65-.65-3.31-1.46-3.23.29.08,1.78.16,4.11-.08,4.11-.21,0-.85-2.69-1.37-3.22-.52-.52-1.04-.96-1.18-2.11-.15-1.2-.15-1.4-.15-1.4,0,0-1.6-.61-2.93-3.26-1.32-2.62-2.57-9.4-3.66-10.79-1.12-1.4-1.48-.88-3.17-1.9-1.69-1.04-3.02-2.63-5.59-4.1-2.57-1.49-3.98-2.97-5.37-3.49-1.4-.52-4.2-2.51-5.08-3.34-.89-.81-2.22-1.52-2.74-3.21-.55-1.7-.59-1.94-.59-1.94,0,0-.61-.11-1.24-1.52-.63-1.4-1.17-1.73-2-2.47-.81-.74-2.21-1.8-2.87-2.83-.64-1.08-3.26-4.34-3.55-4.54-.29-.16-.82-.09-1.12.44-.29.52-.57-2.05-.57-2.05,0,0-1.06-1.46-1.24-1.82-.17-.35-.47-.59-.47-.59,0,0-1.09,1.06-1.05.36.07-.7.12-1.68.12-1.68l-3.11-4.44s-1.92.51-2.1-.33c-.16-.82-.88-1.5-1.38-2.02-.55-.55-1-.6-1.06.12-.05.69-1.17.61-1.57.61s-.59.24-.65.6c-.05.35-1.04,2.99-1.04,2.99,0,0-.24-4.52-.31-4.52h-1.41s-1.04,2.65-1.1,1.88c-.05-.73.17-2.75-.28-2.91-.48-.2-1.05-.13-1.46.45-.43.59-1.25,1.05-1.25.13s.19-1.81-.63-2.35c-.82-.52-2-1.24-2-1.24,0,0-2.15,2.22-3.19,3.46-1.06,1.22-1.48,1.3-1.06.59.4-.72,1.22-2.05,1.76-3.03.52-1.01,1.05-1.9.57-2.5-.47-.61-1.26-1.26-1.26-1.26,0,0-.96-.05-1.25.48-.29.56-.93.89-1.52.43-.6-.47-2.05-1.21-2.33-1.18-.31.08-.24,1.1-.53,1.34-.29.23-.59.59-.59.59,0,0,.04,5.15-.12,5.56-.17.43-.59.43-.65-.81-.05-1.24-.45-3.05-.76-4.1-.29-1.04-.23-3.19-.88-3.45-.64-.31-.86.41-1.22.98-.35.6-.93,1.2-.81.6.11-.6.69-2.01.69-2.41s.12-.52-.16-.64c-.31-.12-1.05-.67-1.29-.6-.24.08-1.69,1.06-3.15,1.76-1.46.72-5.45,1.25-6.15,1.4-.7.19-3.22.6-3.22.6,0,0,.29,4.75,0,4.44-.29-.28-1.36-4.03-1.76-4.16-.4-.12-1.93-.17-2.93.72-.74.53-2.81,1.04-2.81,1.04l-.47,4.75-.93-4.62s-4.48,1.17-5.13,1.74c-.64.6-6.08,2.39-6.08,2.39l-.08,2.83s-.8-2.31-1.17-2.31c-.33,0-1.33.32-1.33.67s-2.49.64-2.49.64l.21,2.23-1.46-2.11s-1.3.36-2.11.51c-.82.08-1.74.49-1.93,1.01-.16.53-.52,1.77-.97,1.29-.48-.47-1.2-.68-1.94-.53-.76.17-2.41.47-3.09.82-.7.33-2.29,1.17-2.7,2.05-.43.86-.82,1.53-1.45,1.93-.65.43-1.29.52-1.48,1.05-.17.53,0,2.51-.12,2.94-.11.4.89.85.94,1.16.05.29-.48.69-.48.69,0,0,.12.48-.16.48-.31,0-.53.19-.48.64.07.47.17.7.17,1.53s-.23,1.34-.05,1.68c.17.37,3.22,2.75,3.74,3.14.53.32,2.22.73,1.98,1.1-.24.35-.53.68-.47.97.07.31,2.1,1.54,2.63,2.18.53.63,1.69,1.56,2.22,1.82.53.21,2.65.69,2,.81-.64.09-1.12-.25-1.34.33-.24.57-.81.31-.24,1.08.59.76,3.03,2.81,3.86,3.21.82.4,1.76.57,1.28.93-.45.36-1.04.35-1.04.65s.88,1.04,1.64,1.69c.76.64,3.03,3.51,3.46,3.87.39.33-.07.45-.6.57s-1,.23-1,.65c0,.39.47.86.81,1.17.35.28,1.45,1.16,1.76,1.98.31.81,1.7,1.48,1.12,1.64-.59.17-.97.23-1.86.63-.89.43-2.35.15-2.47,1.13-.11.98,4.22,4.22,3.11,4.26-1.12.07-2.74-.47-2.86.07-.13.52-.08,2.41.86,3.01.93.56,2.7,0,3.46.69.74.69,1.57,1.28,2.7,1.92,1.1.64,3.09.77,2.67,1-.41.23-1.41.23-1.76.65-.35.4-.57,1.16-.4,1.5.17.36.97.43,2.22,1.65,1.22,1.24,2.05,1.74,1.34,1.74s-1.88.07-2.82.52c-.92.51-1.62,1.12-2.04,1.76-.41.65-1.05,1.89-.52,2.49.52.59,1.57,1.38,2.43,1.68.88.31,2.42.49,1.64.63-.76.19-2.26.33-2.85.37-.59.08-1.48.07-1.34.72.12.64.76,1.78.59,2.27-.2.48-1.29.59-1.29.59,0,0-.12.65,0,1.17.11.52.23,1,.35,1.65.12.61,0,1.26-.07,1.8-.05.51-.12,1.12-.12,1.12l1.64,1.04s-.69.25-1.22.17c-.52-.05-1.56-.4-1.34.36.23.77.77,2.42,1.48,3.56.69,1.17,2.45,1.64,3.15,1.69.69.07,3.67-1.4,6.65-1.81,3.01-.4,6.61-.4,7.61-.33.98.04,4.32.29,6.08.98,1.76.7,4.91,2.51,5.49,2.46.59-.07,1.62.11,1.45.41-.16.29-.16,1.64.82,1.81,1,.17,2.23-.01,2.17.43-.05.39.17,1.37.64,1.37s2.1.36,2.75.13c.64-.24.98-1.45,1.05-.98.07.47-.47,1.12.45,1.98.94.88,2.08.98,3.13,1.29,1.04.28,2.39-.17,2.39-.17,0,0,.81-.81.81-.08s.23,1.17.35,1.46c.12.29,3.63,2.57,4.8,2.63,1.17.07,1.64-.13,1.64-.13,0,0,1.33-2.26,1.33-1.68s.07,2.94.07,2.94c0,0,1.24,1.74,2.51,1.69,1.28-.05,2.63-.48,3.27-1.4.64-.96,1.12-1.65,1.05-1.06-.05.57-.13,2.59-.17,3.22-.07.65-.4,1-.28,1.68.09.72,2.45,2.3,3.14,2.51.7.25,1.81.13,2.05.53.23.43.47.43.69.43.25,0,1.54-.13,1.36.47-.17.59.81.17.94.52.11.36.09.49.28.53.2.05,1.12.17,1.29.72.16.51-.17.93-.17.93,0,0,2.39.51,3.5,1.33,1.12.82,1.12,1.58,1.36,1.58s1.86.36,2.62,1.04c.77.7.77.57,1.12.96.36.36,1.17.52,1.76,1.01.59.45,1.74,1.26,2.43,1.54.72.31,2.35,1.58,5.04,1.4,2.7-.16,4.44-.55,4.68.08.21.64.51,1.46.51,1.46,0,0,2.06-.52,3.99-.65,1.93-.12,2.63-.04,2.05-.57-.57-.53.33-.78,1.58-.32,1.22.51.93,1.72-.19,2.3-1.1.6-2.57.7-2.33,1.17.23.48.59,2.15-.31,3.33-.88,1.18-2.1.98-2.1,1.12s.48,1.22,1.45,2.09c1.01.9,1.89,2.3.37,2.01-1.53-.29-3.46-1.41-4.39-2.98-.93-1.61-1.18-1.92-1.93-1.86-.76.05-2.1.59-2.99-.2-.88-.74-5.89-3.74-7.13-4.63-1.21-.85-3.15-2.15-3.15-2.15,0,0-.53.37-1.4-.19-.88-.52-1.34-1.78-1.45-1.78-.12,0-.84.15-1.25-.31-.4-.47-.12-.67-.57-.69-.47-.05-1.34-.93-1.34-.93,0,0-1.93-.59-2.57-1.24-.65-.64-1.4-.88-1.82-1.12-.41-.21-.76-.64-.76-.64,0,0-.88.12-1.45-.4-.6-.53-.94-.89-.94-.89,0,0-3.55-1.65-4.32-1.74-.76-.15-.76,1.34-.71,1.61.05.31.4.78.4.78l.71,1.06s-1.1-.73-1.57-.96c-.48-.23-1.25.23-1,.59.21.37,1.12,1.54.89,1.36-.24-.19-2.18-1.54-2.23-.77-.07.77.07.89.07.89,0,0-.49-.57-.92-.78-.69-.31-1.26-.31-2.01-.37-.65-.08-1.52-.32-1.46.16.19,1.33,1.05,2.34,1.41,2.97.33.65.68,1.36.93,1.54.23.17.81.47.45.47s-.86.05-.86.05l-.24.41s-.93-.72-1.69-1c-.76-.29-1.64-.64-2.39-.89-.77-.21-1.18.07-1.06.7.12.65.88,2.23.6,2.23-.31,0-.89-.53-.89-.53,0,0-.68.12-.98-.31-.29-.41-1.7-3.15-2.35-3.91-.64-.74-.88-1.16-1.74-1.16s-1.57.64-1.52,1.1c.07.48.12,2,.12,2l-3.1-3.68s-2.58-1.24-3.46-2.34c-.86-1.13-2.74-3.05-3.96-3.27-1.24-.24-2.27.15-2.1,1.28.16,1.12.57,1.88.16,1.93-.4.07-3.83-1.52-4.5-.86-.64.63-.57,1.69-.23,2.86.35,1.16.28,1.48-.05,1.04-.36-.4-1.84-2.74-2.11-3.54-.29-.82-1.34-1.58-1.86-1.65-.53-.07-.89.07-1.13.35-.23.29-.68.29-1.16-.86-.25-.64-1.44-2.46-3.06-4.15-1.41-1.45-3.41-3.06-4.07-3.45-1.41-.9-6.96-3.11-9.82-4.76-2.86-1.64-7.7-4.72-8.59-5.77-.89-1.06-2.51-2.41-2.58-2.13-.07.32-.86,1.22-.86,2.05s-.43,1.01-.59.69c-.19-.28-.82-2.08-.94-2.74-.12-.63,0-1.8.07-2.82.05-.97-.07-1.49-.07-1.49,0,0-1.36.09-2.09-.86-.77-1.02-.77-2.11-1.6-1.66-.81.45-1.41.64-1.41.11s-1.16-2.67-1.5-3.43c-.35-.76-.59-2.02-1.36-2.22-.76-.25-2.27-.59-2.74.27-.47.9-1.4,2.29-1.7,2.35-.31.05-.4-1,.05-2.04.48-1.04.78-2.93-.16-3.64-.93-.7-1.6-.28-2.27.84-.71,1.12-1.89,1.57-1.48.8.41-.73,1.54-2.63,1.77-3.66.23-1.06-.37-2.49-1.24-3.13-.89-.63-1.52-1.64-2.1-.94-.59.73-1.24,2.35-1.29,2.01-.04-.36.17-2.98.17-2.98,0,0-.76.13-.47-.76.29-.9.53-1.17.53-1.17l-.12-2.27s-.35-1.7-.98-1.6c-.65.11-1.41.76-1.41.76,0,0,.28-1.17.28-1.65,0-.45.07-2.1.27-2.81.15-.69.29-.85.33-1.14.07-.29.07-4.28.29-4.86.24-.6.47-.98.47-.98,0,0,0-6.15.41-7.86.4-1.69,1.1-3.94.76-4.5-.36-.6-1.4-.53-.82-1.36.6-.81,1.08-1.74,1.12-2.04.05-.29.24-2.59.52-3.82.29-1.21.64-3.72.08-4.15-.6-.4-2.53-.11-2.65-.86-.11-.77.4-1.12.4-1.12,0,0-.4-1.29-1.21-1.4-.84-.11-1.14-.25-1.41.28-.29.52-1.01.41-1.06-.04-.04-.49-.45-1.89-.74-1.53-.31.36-1.29,1.4-1.36.36-.04-1.06-1.33-3.95-2.38-4.38-1.05-.49-4.34-4-4.34-4,0,0-1.45-.05-1.34-.85.12-.84.41-1.05.36-1.36-.08-.29-.77-.94-.59-1.41.17-.47.17-.59.17-.59,0,0-.25-.65-1.4-.65s-2.99-.98-2.99-.98c0,0-.93-.49-2.34.07-1.41.51-3.79,1.09-4.84,1.14-1.06.07-1.29.07-1.74.37-.48.31-.77.93-1.01,1.69-.24.76-.35,1.76-.35,1.52,0-.23-.59-1.8-1.16-2.1-.6-.29-1.36-.4-2.18.31-.81.68-1.34,2.04-1.34,2.85s-.29,2.13-.29,2.13c0,0-.74-3.82-1.34-4.46-.57-.67-1.7-.88-3.56-.77-1.86.11-4.08.07-5.15,1.46-1.05,1.41-.71,3.46-.88,4.5-.17,1.08-.47,2.47-.47,1.96s-1.29-4.34-1.57-5.21c-.29-.88-1.41-1.18-1.52-.24-.12.93-.59,3.38-.59,3.38,0,0-.37-1.32-.53-2.5-.19-1.16-1.82-2.94-3.05-2.7-1.22.25-1.77,2.3-2.22,3.46-.47,1.16-1.29,2.26-1.29,2.18,0-.07,0-2.94-.4-3.64-.43-.7-.82-1.64-1.7-.98-.86.64-2.33,1.86-3.27,2.33-.92.48-1.57.64-1.64,1.65-.05.98-.09,7.02-.09,7.02,0,0-.65-.24-.84-.96-.16-.69-2.45-3.63-3.15-4.1-.71-.45-.82.9-.71,2.08.12,1.14.41,1.9.53,2.54.12.67.16,1.2.12,1.13-.07-.07-2.47-2.04-2.83-3.34-.33-1.29-.92-2.05-.92-2.05,0,0-1.21.11-2.05.48-.81.35-1.64.35-2.04.21-.43-.12-.59-.28-.77-.28-.16,0-1,.67-1.74.88-.76.23-2.29-.29-2.29-.29,0,0-.45.48-.81.89-.36.4-.64.52-.64.52,0,0-.65,5.67-.77,5.43-.12-.23-1.8-5.31-2.41-4.67-.56.64-1.97.88-2.33.51-.33-.32-1.1-.51-1.5-.32-.43.17-.84.59-1.01,1.05-.19.45-.47,1.52-1.41,1.74-.92.23-1.52-.43-2,.55-.47.92-.97,1.81-.97,1.81,0,0,.11.85-.19.93-.29.05-.74.28-.74.28,0,0-.84,1.06-.76,1.4.04.37.03,1.41-.24,1.48-.29.07-1.17.17-1.17.17,0,0-1.5,2-2.38,3.45-.9,1.46-1.72,2.63-3.47,5.97-1.38,2.66-2.98,3.56-3.45,4.5-.48.94-5.01,8.37-5.97,10.19-.92,1.82-1.5,3.45-2.21,4.56-.7,1.12-.94-.24-.94-.24,0,0-.27.77-.69,1.42-.41.63-1.88.44-1.88.44,0,0-1.58,1.41-2.51,2.06-.92.63-1.81,1.1-2.27,1.86-.19.29-1.04,1.02-1.68,1.78-1,1.21-1.89,2.55-1.89,2.26,0-.48.4-1.82.04-1.54-.35.31-5.48,6.49-7.12,8.23-1.64,1.77-5.73,7.17-6.77,8.57-1.06,1.42-1.22,1.77-1.29.78,0-.09.28-1.18-.29-1.13-.6.01-2.07,1.2-3.05,3.27-.47,1-1.58,2.17-1.82,3.8-.23,1.65-.64,1.65-.64,1.65,0,0-.41-1.94-.41-2.93s-.74-.7-.98-.29c-.23.41-.64,1.02-1,1.4-.35.36-.52.84-.52,1.04,0,.25.52,2.94-.19,5.57-.69,2.62-1.86,5.2-1.69,4.04.16-1.18-.29-2.57-.29-2.57,0,0-.98-1.96-1.22-2.82-.24-.89-.88-1.52-1.65-.96-.76.6-3.19,2.13-4.14,2.59-.94.47-2.75,1.86-3.62,2.38-.89.55-1.98,1.9-2.35,2.61-.36.68-1.69,1.21-2.38,1.74-.72.53-2.39,2.39-4.68,3.74-2.27,1.34-3.62,1.05-4.26,1.65-.65.56-1.18.81-2.01,1.14-.81.36-1.34.61-1.62.7-.29.11-2.81.74-3.39,1.34-.6.6-1.58.77-2.41.9-.81.09-.93.4-1.52.81-.59.39-1.34,1.29-1.34,1.64s-.16.65-.76.76c-.57.12-1.92.41-1.92.41,0,0,.81.81-.19.85-1.01.08-2.22.24-2.22.24,0,0,.01.78-.41,1.13-.41.35-3.68,1.29-4.1,1.69-.4.41-.74.76-.74.76,0,0,.47.36-.08.72-.51.33-1.61.76-2.27,1.05-.65.28-3.1,1-3.1,1,0,0-3.74,3.91-3.67,3.67.05-.25.11-1.36.11-1.36,0,0-.59.59-1.1,1.05-.52.48-1.69,1.26-3.15,1.82-1.46.6-3.68,1.61-3.68,1.61,0,0-1.06,2.3-2.34,2.62-1.28.27-3.03.09-3.03.09,0,0-3.75,3.51-5.55,4.56-1.82,1.06-4.63.8-4.63.8,0,0-1.98,2.14-3.03,2.85-1.05.68-1.53.98-1.53.98,0,0-1.17,1.41-1.62,1.97-.48.59-1.48,1.42-2.18,2.02-.69.57-2.57,2.14-2.57,2.08,0-.04.47-1.92-.16-1.4-.67.55-1.53,1.08-2,1.53-.48.47-1.29,1.21-1.7,1.17-.41-.04-.93-.28-.93-.28,0,0-1.94,1.45-2.46,1.86s-.98.48-.98.48c0,0-1.28,1.04-1.77,1.49-.45.51-1.41.27-1.41.27,0,0-1.85,1.76-3.48,2.43-1.64.69-7.32,3.18-9.02,3.86-1.68.7-2.93.82-3.84.35q-.93-.45-1.74-.03c-.82.39-4.58,2.49-6.8,2.61-2.22.13-2.46-1.36-1.58-2.61.89-1.3,1.82-1.96,1.72-1.53-.13.4-1,1.81-.25,1.92.76.12,5.44-2.51,5.44-2.51,0,0-1.77-.12-2.46-.04-.69.04-2.31-.48-2.51-1.6-.16-1.1-.21-1.46-.21-1.46,0,0-3.91-1.05-3.91-3.14s2.21-4.06,2.02-3.23c-.17.82-.65,3.5,1.82,3.58,2.45.05,4.8-.31,5.68-.19.86.11,1.25,1.08,1.9.77.66-.31,1.17-.52,2.54-.47,1.33.04,5.71.09,7.34-.43,1.64-.52,2.7-.94,2.7-.94,0,0,.53-.98.88-1.1.33-.09.52-.16.52-.16,0,0,.64-.82,1.45-1.13.82-.29,2-.32,2-.32,0,0,1.41-.96,2.22-1.29.82-.37,1.93-.65,1.93-.65,0,0-.98-1.52-.4-1.46.57.04,2.33-.07,2.33-.07,0,0,.84-.82,1.72-1.17.85-.36,1.44-.53,1.44-.53,0,0,.19-1.17.49-1.41.23-.17.68-.41.68-.81,0-.59-.57-1.33-.57-1.33l1.76.17s-.37-1.12.17-.94c.52.16,2.1.16,2.1.16,0,0,.35-1.5-.24-1.97-.57-.45-.45-.72,0-.52.47.19,1.76.82,2.06.88.29.05,1.16-.94,1.81-1.7.64-.76,1.1-.76,1.1-.76,0,0,1.01-2.65.53-3.22-.49-.6-1.52-1.8-1.58-2.41-.05-.59-.05-2.67.47-1.98.53.69.82,1.78,2.05,2.05,1.22.24,2.86.11,2.86-.52s-.17-1.73-.53-2.71c-.35-.98-1.04-2.74-.93-3.43.12-.7.24-1.05.36-.6.12.49.53,2.54,1.64,3.39,1.1.88,1.93,1.46,3.1.41,1.16-1.06,2.91-2.69,3.22-4.32.28-1.62.35-2.98,1.05-4.11.7-1.09,1.1-1.54,1-1.09-.13.47-.23,2.93.28,3.38.53.47,2.34-.12,3.56-.81,1.24-.69,3.03-1.93,3.79-2.91.78-1.01,1.94-3.94,2.42-4.63.45-.7,1.1-.93.92-.7-.17.24-.69,2.58-.11,2.62.57.07,5.67-1.74,5.89-3.96.24-2.25.23-4.39.53-4.68.29-.28.41,1.93.98,2.3.6.33,3.22-.37,4.68-1.52,1.45-1.2,3.87-3.34,4.16-4.07.29-.68.16-2.73.51-2.41.36.39,1.2,1.13,2.63,1.25,1.48.12,3.39-.53,4.15-.98.76-.47,2.75-2.58,2.87-3.23.12-.64-.01-2.69.41-2.69s1.28-.12,1.28-.12c0,0,1.64-1.86,4.27-2.08,2.63-.27,6.25.51,7.36.51s1.46-.64,2.29-.7c.81-.07.81-.32,1-.84.17-.52.98-1.09.98-1.09,0,0,.48-1,1.48-1.93.98-.93,1.4-1.94,1.4-2.35s.57-3.63.05-3.75c-.52-.11-.93.31-1.41.94-.47.65-1.5,0-1.92-.12-.41-.11-3.45-.4-3.45-.4l3.84-1.33s1-.89,1.88-1.22c.89-.37,3.63-2.18,3.8-2.54.17-.33.11-.98.11-.98l-1.33-1s1.86.32,2.39.2c.52-.2,2.04-1.18,2.62-2.61.6-1.38.52-2.02.07-2.02s-1.05-.19-1.05-.19c0,0,.81-1.06.4-1.14-.4-.03-3.03-.25-2.45-.39.59-.13,3.84-1.62,4.62-2.1.76-.47,6.25-3.62,8.53-4.74,2.29-1.12,4.04-1.82,5.16-2.35,1.12-.52,2.54-2.05,2.5-2.57-.04-.53-1.82-1.46-1.29-1.38.53.04,2.35-.12,3.17-.61.82-.45,1.28-1.34,2.1-2.27.82-.93,1.7-2.04,1.24-2.33-.47-.29-1.77-.63-1.65-.63.13,0,2.53-.67,3.27-1.2.77-.53,4.68-3.5,5.4-4.34.68-.8.56-1.57-.15-1.85-.69-.29-2.14-.96-2.04-1.01.12-.07,2.57.12,3.75-.36,1.17-.44,2.46-1.22,1.86-1.73-.59-.52-1.69-1.18-1.28-1.18s1.81.6,3.62-.6c1.81-1.16,3.15-3.09,2.51-3.74-.65-.63-2.22-1.5-1.81-1.5s2.97-.07,2.97-.07c0,0,2.7-2.33,3.75-3.45,1.05-1.13,2.46-2.99,1.76-3.47-.7-.45-1.64-1.2-1.64-1.2,0,0,2.05.09,3.09-.32,1.05-.39,1.01-.76,1.94-1.38.93-.64,2.57-2.46,2.57-2.46,0,0-1.4-1.7-1-1.7s2.51.17,2.51.17c0,0-.93-1.17-.28-1.17s2.55.17,2.55.17l3.06-2.19s.17-1.73.86-2.71c.71-1,1.58-1.32,1.58-1.32l-.88-1.62s-2.35-.33-5.25-.48c-2.49-.15-5.61-.08-5.61-.08,0,0-2.98,4.79-4.32,6.84-1.37,2.05-1.94,1.86-1.46,1.14.47-.67,2.39-3.47,2.79-3.95.41-.48,1.41-2.42,1.64-3.22.24-.81.17-1-.12-1s-1.81-.13-1.81-.13c0,0-.28.67-1.45,1.24-1.2.6-1.6,1-1.89,1.52-.28.53-.76,5.35-.88,4.4-.11-.94-.45-3.95-.93-3.95s-1.22.37-1.22,1.18-1.17,5.51-1.17,5.51l-.05-2.98-.29.19-1.58,3.91s.07-1.16.24-2.46c.17-1.26.64-2.93.12-3.51-.52-.59-1.81-2.02-2.81-2.54-1-.57-1.34-.73-1.34-.73,0,0-.48.2-.77.6-.28.39-2.97,3.63-3.21,3.72-.23.12-.76-.4-.41-.63.35-.24,1.81-1.7,2-2.26.19-.61-.88-.68-.48-1.14.41-.47,1.05-.89.67-1.04-.43-.19-3.76.57-4.47.85-.69.31-4.84.94-4.84.94l-2.63,2.75,4.63,7.09s-.47.11-.81-.53c-.37-.64-4.23-6.21-4.23-6.21,0,0-1.93,2.18-2.74,2.71-.82.51-1.29.39-.94.05.36-.39,3.33-2.47,3.17-3.19-.17-.67-.64-1.4-1.12-1.33-.45.05-3.43.82-4.03,1.76-.59.93-1.38,2.06-1.38,2.06,0,0-.2,2.39-.55,3.09-.33.7-.53.12-.59-.59-.05-.68-.23-1.58-.74-1.8-.55-.25-1.36-.32-1.7-.05-.35.2-1.48.67-1.76.09-.29-.57-.19-1.05-.52-.85-.35.17-.35.77,0,1.02.33.31,2.66,2.11,2.27,2.11s-3.29-1.81-3.56-2.18c-.31-.33-.65-.78-1.01-.68-.35.11-3.19,2.69-3.03,2.29.19-.43,2.47-2.39,2.63-2.81.17-.41-.16-.9-.94-1.02-.74-.08-2.04-1.22-1.62-1.96.41-.78.12-.94-.4-.94-.55,0-1.65.11-1.52.57.11.47,1.92,2.05,1.4,1.93-.55-.12-1.53-1.04-1.94-1.38-.41-.37-1.28-.32-2.1.04-.8.36-2.39-.09-3.17-.31-.76-.17-4.66-.17-5.24-.45-.6-.29-1.54-.4-2.18-.4h-4.38l.29.68s1.86,1.64,1.41,1.61c-.47-.08-1.89-1.54-2.23-1.54s-1.04,2-1.17,1.46c-.12-.53.13-1.17-.23-1.05-.36.12-1.29.93-1.93,1.16-.64.25-1.8,2.19-2.63,3.39-.81,1.26-2.74,3.27-3.1,3.35-.35.05.41-1.4.66-1.52.23-.12,1.5-2.23,1.74-2.82.23-.56.74-2.57-.41-1.76-1.17.82-2.57,2-2.29,1.58.29-.39,1.17-1.52,1-2.17-.19-.63-1.28.12-1.41.96-.12.82-1.34,5.29-1.52,5.72-.17.41-.17-1.4.11-2.82.31-1.4.94-6.08.94-6.08,0,0-1.45-1.5-1.57-2.7-.11-1.17-.11-1.38-.23-1.5-.12-.12-1.54-1.64-1.58-1.64-.07,0-2.74.17-3.29.64-.52.45-2.33,3.17-2.5,2.99-.17-.19,1.38-2.93,1.16-2.93s-1.52.64-2.46.93c-.92.28-4.2-.25-4.9.47-.69.7-5.07,5.8-6.32,7.37-1.24,1.58-2.86,3.99-3.14,5.03-.31,1.05-.59,3.5-.59,4.7s-.36,1.32-.59-1.2c-.25-2.5-.53-3.02-1.25-3.1-.71-.04-2.17-.03-2.91,1.78-.76,1.78-1.7,4.88-1.7,4.15,0-.77.25-4.62-.05-4.42-.29.27-1.22.13-2.57,1.48-1.36,1.36-1.69,1.7-1.82,2.29-.12.59-1.26.59-1.1-.05.16-.64.64-2.57-.07-2.51-.69.05-1.16.69-1.16,1.5s.59,2.58.29,2.27c-.29-.28-.71-1.26-.76-.92-.07.36-.64.64-.64.29s-.01-1.06-.43-1.57c-.41-.55-.33-.67-.63-.61-.31.07-1.6.19-2-.39-.41-.59-1.6-.77-1.64.19-.05.9.31,4.16-.05,3.95-.35-.23-.29-1.82-.59-2.21-.31-.43-1.17-1.89-1.6-2.46-.4-.6-1.92-.72-1.98.17-.05.88-.16,1.98-.4,2.34-.24.36-.59.7-.59.7,0,0,.53,1.22.16.92-.35-.28-1.4-2.74-2.02-3.56-.67-.81-2.41-1.17-2.82-.4-.41.74-1.24,3.27-1.28,3.76-.07.45-.59,1.52-.59.8s.17-1.41,0-2.1c-.17-.7-.89-2.17-1.76-2.06-.89.15-1.25,1.18-1.25,1.78,0,.56.12,2.04-.39,2.09-.52.07-.59-4.04-1.29-4.35-.71-.25-2.17-.37-2.75.31-.57.7-1.65.89-1.98.17-.35-.68-1.17-.73-1.88.07-.7.81-2.09,2.93-2.63,3.5-.52.6-.45-.07,0-.97.48-.96.88-3.82.48-5.52-.41-1.7-1.77-5.43-2.06-7.99-.28-2.59-.47-4.97-.47-4.97,0,0-2.15-1.57-1.8-3.22.36-1.65.76-1.64.4-2-.35-.35-1.29.29-1.52,1.05-.24.76-.88,3.46-1.1,2.65-.24-.82-.31-1.41-.89-1.52-.59-.13-2-.6-2.34-.13-.35.47-1.92,1.46-3.62,2.63-1.69,1.18-2.63,1.3-3.33,2.13-.71.8-2.17,2.01-1.52.92.64-1.12,2.15-2.05,1.52-2.17s-1.4.12-2.17,1.05c-.76.93-3.56,3.1-3.46,2.79.12-.28,1.36-2.04,1.53-2.57.17-.52.17-1.28-.4-.97-.59.28-1.88.27-2.7.9-.2.19-.9.37-1.25.6-1.04.69-2.07,1.53-2.42,1.58-.47.05,1.98-1.93,2.05-2.51.04-.57-1.65.33-2.93.82-1.29.47-3.99,1.41-4.56,1.69-.59.28,1.86-1.29,2.46-1.69.57-.43,2.34-1.28,2.1-1.7-.24-.4-.36-.4-1.06.05-.69.47-1.8,1.06-1.45.7.35-.35.98-1.16.98-1.41,0-.23-.82-.88-1.8-.65-1,.25-2.99,2.29-2.77,1.89.25-.43.6-.7.76-1.17.19-.47.19-1.21.6-2.22.53-1.36.98-2.59.85-3.27-.16-.6-.85-.7-1.09-.77-.64-.16-1.86-.45-2.79-.23-.63.17-3.06,1.38-3.64,1.52-.56.11-1.12-.01-.69-.28.41-.31,2.1-.89,3.46-1.77,1.33-.86,2.55-1.81,3.14-2.45.6-.65.94-2.05,1.06-2.34.12-.29.4-2.41,1.58-3.45,1.17-1.04,1.62-1.25,1.62-1.25,0,0,.76-2.9-.05-3.43-.81-.52-1.58-.21-2.7-.41-1.1-.19-1.92-.47-2.81.16-.85.64-1.14,1.82-1.14,2.47s-.07,1.61.29,1.93c.33.32-.66-.53-1.18-1.06-.53-.53-1.12-.48-1.17.29-.05.77.05,2.99-.12,2.5-.16-.45-.45-1.78-.98-1.98-.55-.16-.86.36-.81.96.04.57-.29,2.05-.47,1.69-.2-.36.04-1.18-.53-1.76-.59-.59-2.58-1.64-3.29-1.28-.71.36-2.57,1.85-3.14,2.57-.59.7-1.7,2.58-1.7,2.58,0,0,.51-2.39.17-2.94-.35-.53-.45-.29-.59.24-.11.53-1.17,1.74-1.17,1.45,0-.27.84-1.98.84-2.55s-.61-.96-1.08-.48c-.48.48-2.93,2.11-2.79,1.89.11-.27,1.98-2.06,1.98-2.53s-.47-.93-1.05-.88c-.6.05-2.01,1.4-2.42,1.89-.4.44-.8.11-.23-.6.6-.72,1.18-1.64,1.24-2.17.07-.52.17-2.34-.76-2.1-.94.24-4.15.47-5.21.47s-3.91-.29-4.14-.23c-.23.04-1.81,1.22-1.88,1.45-.05.21.07,2.23-1.05,4.31-1.12,2.13-2.93,6.03-3.22,5.81-.29-.2,1.77-4.44,2.17-5.32.41-.88.76-2.99.12-2.57-.65.4.33-1.29-.19-1.36-.52-.04-6.48-.12-8.18-.12s-5.56.28-7.24.08c-1.7-.24-3.86-.72-4.9-.19-1.08.52-1.77,1.45-1.96.77-.17-.72,2.29-1.84,2.34-2.46.07-.65-.76-2.89-1.86-3.15-1.12-.32-3.46-.98-4.44-1.06-1-.07-7.36-.52-9.3-.56-1.93-.07-3.91-.04-5.15-.04s-2.75.36-2-.8c.77-1.2,2.18-3.29,5.51-3.87,3.33-.59,10.57-1.05,12.04-1.12,1.48-.05,2.15-.47,1.52-1.05-.65-.59-2.62-2.7-3.33-3.74-.71-1.05-3.05-3.38-2.69-3.46.33-.04,1.98,1.54,2.91,2.65.93,1.08,1.58,1.61,1.58,1.61,0,0,.98.07,2.15.67,1.18.59,1.84,1.53,2.45,1.64.67.12.77-.19.77-.41,0-.24-.64-1.7-.11-2.04.52-.39.7,0,1.46-.39.76-.33,1-.43,1.05-.92.04-.47-.6-1.62-.17-1.5.4.11,1.17,1.17,1.38,1.17.24,0,9.14-.44,10.35-.44s3.64-.21,3.64-.21c0,0-.48-.4-1.89-1.05-1.4-.65-5.03-2.06-4.55-2.11.45-.08,4.38,1.17,5.21,1.46.8.29,3.88.88,4.6,1.45.7.6,1.06,1.13,1.52,1.3.48.17,5.32.29,5.32.29,0,0,.17-.69.48-.82.27-.13-.31-1.16.81-1.22,1.1-.07,2.41-.39,2.93-1.24.52-.81.21-1.12-.07-1.33-.29-.24-2.09-1.65-1.64-1.72.48-.04,1.88,1.82,2.06,1.12.16-.69.8-1.52.9-1.12.13.43.48,1.2,1.18,1.65.72.45,1.34,1.29,1.34,1.29,0,0,.77-.41.77-.07v.59s3.45-.13,4.26.07c.82.17,3.22.64,3.63.41.41-.24,2.74-1.24,3.79-1.46,1.06-.24,1.7-.37,1.7-.37,0,0,2.22-.19,3.55-.23,1.36-.05,2.01-.92,1.53-1.21-.47-.31-1.12-.43-1.98-.31-1.12.19-2.53,1.38-2.35.93.19-.47,1.96-1.73,3.29-2.38,1.34-.64,2.21-1.13,2.39-2,.16-.88-.12-1.82-.86-1.7-.78.11-1.94.64-1.77.19.17-.47,1.06-.76,2.51-1.18,1.46-.41,4.02-1.2,4.2-1.88.19-.69.04-1.68.7-1.62.65.07,1.88-.05,1.88-.05,0,0,1.52-.6,3.27-.36,1.77.24,3.99.74,3.99.74,0,0-.53-1.69-.24-1.45.29.25,1.4,1.61,1.92,2,.53.33,1.41.24,2.33.98.96.78,1.84,1.6,2.71,1.6s1.21,0,1.8.47c.6.45,1.18,1.21,1.36.51.16-.69-.47-3.21.45-4.36.96-1.18,1.13-.82,1.34-1.76.24-.94-1.49-3.26-.63-3.26s3.84,0,4.5-.15c.64-.12,1.74-.45,1.74-.45,0,0,.13-1.12.6-1.06.47.05,5.2,1.46,5.61,1.52.4.08.69.08.35-.43-.35-.47-.81-.85-.48-.85.36,0,3.01,1.61,3.75,2.1.76.45,1.76.7,2.82.81,1.05.13,1.93.07,1.74-.47-.19-.55-.76-2.82-.23-2.18.51.67,1.52,2.46,2.57,2.94,1.04.48,2.14.35,1.93-.23-.24-.57-.94-1.58-.59-1.4.35.16,1.41.76,1.76,1.53.35.74.45.98.45.98,0,0,.89.16,1.06.47.17.29.29,1.06.4,1.64.12.57.76,1.16,2.1,1.58,1.36.4,1.53.33,2.18-.2.63-.52,1.38-1.74,1.38-1s-.7,1.7-.98,2.3c-.31.57-.47,1.34-.35,2.17.11.81,0,3.72,0,3.72,0,0,1.1.6,1.58.17.45-.39,1.21-.98,1.64-1.38.41-.43.45-.24.57-.72.12-.47-.16-2.74-.16-2.74,0,0-.89-1.22-.89-2.29s.36-2.38.19-2.57c-.19-.17-.36-1.09-.29-1.74.05-.64.24-1.9.29-2.46.04-.61.4-1.64.4-1.64,0,0-.25-.88.47-.94.69-.07,1.13-.23,1.13-.23,0,0-.19-.72.57-.89.76-.17,1.64,0,1.93.47.29.45,1.22.65,1.6.31.33-.37,1.2-2.05,1.33-2.58.09-.53-.41-3.07,0-2.57.41.51,1.68,2.3,2.09,2.93.43.65.53.93,1.12.65.59-.32,1.29-1.72,1.52-2.63.24-.94.4-1.3.47-.82.08.45-.28,2.75-.28,3.27s.36.76.76.59c.41-.2,1.64-1.58,1.88-2.41.23-.82.86-3.45,1.04-2.91.17.51-.05,2.86.12,3.68.19.8.72,2.26,2.05,3.02,1.33.77,3.33,2.01,3.8,2.49.47.45.69,1.09,1.34,1.17.63.04,2.46.17,3.1.92.64.77,1.06,1.13,1.64,1.13s2.1,0,2.91.81c.82.82.88,1.73,1.82,2.33.92.6,2.51,1.77,3.33,2.33.82.6,1.29.59,1.52,1.01.24.4.36.53.59.6.23.05,1.64-.96,1.64-.96,0,0-.05-.89,1.29-1.65,1.34-.73,2.62-1.45,2.93-2.83.29-1.44-.48-4-1.29-4.71-.82-.7-2.93-3.39-2.51-3.02.41.32,2.34,2.05,3.1,2.75.77.72,1.58,2.17,2.81,2.34,1.25.16,1.34-1.06.93-2.19-.4-1.09-1.45-3.27-1-2.97.49.29,1.65,2.75,1.65,2.75,0,0,1.33,1.16,1.76,1.77.43.57.63.92.81,1.14.19.23,2.22,1.77,3.33,1.77s7.2.92,8.95,1.38c1.76.48,6.72,1.12,6.49.43-.23-.69-.23-.89.17-.89s4.03-.04,4.03-.04c0,0,.65-1.05,1.29-1.52.64-.48,1.45-1.25,1.45-1.25,0,0-4.03-2.61-3.15-2.27.88.36,3.21,1.72,3.63,1.29.39-.41,1.89-1.3,2.17-2.06.29-.76-1.12-2.63-3.11-3.33-1.97-.69-5.37-1.4-4.96-1.52.41-.12,4.07.36,5.56.65,1.46.29,4.84,1.98,4.91,1.06.07-.96-.71-2.77-1.64-3.71-.96-.93-1.81-2.5-1.81-2.5,0,0,2.75,2.22,3.51,3.11.74.85,1.92,1.62,1.92,1.62,0,0,2.67-.41,4.22.29,1.52.68,4.32,2.69,5.25,2.81.93.12,5.56.04,7.08.23,1.52.19,4.63.36,4.67-.04.07-.41-.57-1.42-1.12-1.96-.52-.51-1.28-1.38-1-1.33.29.05,3.11,2.1,3.11,2.1,0,0,.76-.59,1.7-.77.93-.16,1.17.15,1.29-.23.11-.33.04-3.55.04-3.55,0,0,.67,2.21.89,1.74.23-.47-.86-4.68-.48-4.32.41.35,1.41,2.34,2,3.34.59.98,1.1,1.9,1.52,1.57.4-.35-.07-1.41.35-1.22.43.17.53.11.53.11,0,0-.41-3.39-.11-2.86.29.51,1.16,2.57,1.74,3.29.59.69,3.1,2.47,4.62,2.55,1.53.12,7.25.12,9.28,0,2.06-.08,2.7-.03,2.58-.81-.11-.76-1.46-3.62-3.1-4.24-1.64-.67-2.21-.67-2.91-.67s-1.12.11-.81-.52c.28-.64.33-1.2-.08-1.2s-2.91-.11-2.27-.64c.64-.52.93-.39.98-.93.07-.52-.69-.92-1.12-1.34-.39-.4-3.19-4.39-4.47-4.99-1.3-.56-3.47-.33-3.01-.73.48-.43,1.82-.77,1.7-1.33-.11-.63-2.33-4.34-3.91-5.28-1.6-.94-1.7-1.46-2.74-1.53-1.06-.07-2.51,0-2.06-.31.48-.31,2-1.09,2-1.09,0,0,.32-.88-.03-1.64-.31-.68-1.24-1.16-1.56-1.4-1.2-.82-3.03-1.48-3.95-1.76-1.48-.49-3.29-.72-2.99-.78.28-.03,2.09-.27,2.26-.98.19-.7-.23-1.7-1.16-2.87-.37-.45-.77-1.32-1.49-2.05-1.1-1.14-2.65-2.17-3.49-2.38-1.38-.37-2.79-.63-2.34-.73.48-.03,1.64.11,1.54-.78-.09-.47-.51-1.78-1.57-3.01-1.01-1.16-2.66-2.3-3.06-2.45-.82-.29-2.27-.31-2-.57.12-.11.89-.51.97-1.17.12-.84-.85-1.66-1.8-2.22-.88-.57-1.72-.92-1.66-.88-1.61-.77-3.43-1.36-4.22-1.64-.98-.36-2.61-1.28-4.11-1.88-1.68-.65-3.23-1.04-4.15-1.28-1.76-.53-4.44-1.06-3.62-1.06s3.38-.23,3.5-.69c.12-.49-.47-4.76-2.04-5.65-1.58-.85-2.53-1.04-3.51-.56-1,.45-2.11.43-2.11.43l3.05-1.88s-.05-.59-.35-.96c-.29-.37-1.7-2.55-2.63-3.14-.93-.6-1.16-2.35-1.16-2.35,0,0-3.63-2.22-3.39-2.22.23,0,3.05-.59,3.72-.12.72.47,1.94.6,2.05.29.11-.29-.36-2.93-.36-2.93,0,0-1.37-1.22-2.29-2.35-1.2-1.42-2.06-2.79-2.21-2.83-.21-.15-3.79-.89-5.53-.31-1.76.6-5.15.7-6.09.6-.93-.13-3.63.39-4.91,0-1.29-.44-2.74-.36-3.62-.48-.89-.12-1.82.04-1.82.04,0,0-.93,1.42-.93.94s.41-1.78.59-2.14c.17-.37.24-1.77-.76-2.05-1.01-.31-2.53.28-3.74-.48-1.22-.76-2.65-2.06-3.17-1.09-.52.96-.72,2.01-1.04,1.64-.28-.39.09-2,.37-3.11.31-1.09-1.25-4.8-4.03-5.85-2.79-1.05-5.28-.97-5.73.35-.43,1.34-.94,3.31-1.09,2.65-.15-.64.11-3.22.07-3.88-.07-1.33-1.84-2.86-3.66-3.35-1.82-.53-5.51-1.86-5.51.11s-.15,3.09-.15,3.09c0,0-.82-1.17-1.04-2.7-.23-1.56-1.3-3.75-3.29-4.72-2-.96-3.67-1.6-4.55-.7-.88.88-1.4,1.61-1.4,1.08s.72-2.39-.59-3.58c-1.32-1.17-2.58-1.85-2.94-1.33-.36.51-.6,2.5-.6,2.5l-.59-2.21s-1.9.21-2.55,1.72c-.68,1.44-.74,3.43-1.12,3.13-.36-.28-.57-2.05.16-3.72.73-1.7,1.17-2.89.51-3.52-.66-.69-1.3-.81-1.45.21-.15,1.05-.89,3.83-.96,2.94-.09-.88,0-1.37-.39-2.34-.36-.98-2.47-2.06-2.85-1.32-.37.72-1.61,2.54-1.61,2.54,0,0,1.01-2.83.57-2.99-.43-.15-1.89.45-2.49,1.48-.6,1.01-1.33,2.1-1.33,2.1,0,0,.17-3.35,1.33-4.91,1.17-1.53,2.06-2.13,1.61-2.5-.44-.37-6.52-4.18-6.52-4.18,0,0-3.68.73-3.39.44.31-.29,1.05-.74.74-1.04-.31-.27-1.82-1.24-1.25-1.3.59-.08.65,0,.65-.23,0-.21-.2-.94-.65-.94s-1.18-.15-1.48-.33c-.27-.11-1.45-.4-1.82-.27-.37.16-.45.08-.45.08l-.13-.94s-2.13-.68-1.61-.88c.51-.23.81-.61.43-.76-.39-.13-3.29-1.34-3.8-1.61-.53-.28-1.12-.73-1.12-.73,0,0-1.68-.21-2.71-1.1-1.01-.88-2.11-2.29-4.31-2.49-2.21-.2-4.87-.24-6.84.16-1.98.33-3.02.13-3.22-.89-.23-1.04-.29-1.04-.29-1.04,0,0-3.66-.15-6.6-.44-2.94-.31-3.9-.94-2.94-1.77.93-.78,5.28-1.1,5.28-1.1,0,0-.23-1.69.29-3.31.51-1.6,2.05-1.76,2.05-1.76,0,0-1.62-4.32-1.26-5.35.39-1.02,1.85-1.17,2.82-.73.93.44,2.18,1.84,1.89,1.62-.29-.24-2.11-.68-1.89-.16.2.52,2.77,5.95,3.58,6.17.81.2,3.9,1.48,4.99,2.05,1.1.59,6.38,2.57,7.34,3.22.96.68,1.97,1.77,1.97,1.77,0,0,1.54-.44,2.06.24.52.65,1.41,1.48,1.41,1.48,0,0,.78-.23,1.17.13.36.37,1.38,1.81,2.26,2,.89.13,1.2-.6,2,.05.8.67,1.98,1.92,2.5,2.19.51.29.8.29.8.29,0,0,.15-1.33,1.68-.45,1.54.9,2.13,1.26,2.27,1.77.15.55,1.02,1.12,1.62,1.18.59.07,1.41-.37.88-.64-.23-.13-.6-.68-1.36-1.18-1.09-.73-2.54-1.46-2.17-1.46.67,0,3.8.41,3.8.41,0,0-1.01-2.27-2.41-3.58-1.4-1.34-2.13-2.65-1.02-1.92,1.1.74,3.31,2.73,2.93,1.4-.37-1.33-2.34-6.16-1.6-5.88.72.32,1.54,1.02,2.05,2,.52.96.94,2.26.94,2.26,0,0,2.71,2,3.74,3.68,1.04,1.69,2.59,4.11,4.26,5.65,1.7,1.53,6.66,6,6.74,5.57.23-1.02-1.53-3.88-.86-3.29.67.55,3.67,3.94,4.99,4.75,1.32.8,5.36,3.22,6.68,3.9,1.32.67,1.84.74,1.77.21-.08-.52-1.54-2.94-.9-2.42.67.52,1.56,1.72,2.58,1.77,1.02.05,1.18-.73.65-1.54-.52-.81-1.09-2.27-.07-1.84,1.04.45,2.14,1.26,3.46,1.61,1.3.37,2.13.31,1.69-.44-.44-.72-2.57-3.75-2.21-3.45.35.29,3.88,2.05,4.99,3.06,1.1,1.05,1.61,1.34,1.98,1.28.35-.08.08-1.04.94-.52.88.52,15.19,10.22,17.33,11.36,2.11,1.2,10.06,5.37,12.92,6.62,2.85,1.25,11.15,4.86,14.31,6.56,3.13,1.68,4.84,3.06,5.2,3.72.36.67.72.8.72.8,0,0-.07-2.13.82-3.29.88-1.17,1.09-1.93,1.17-2.75.08-.8-.23-1.96.2-1.45.47.53.81,1.76,1.12,3.03.29,1.22.73,2.1.88,3.51.15,1.4.15,1.74-.23,2.42-.36.67-.73,1.09-.49,2.05.21.96,1.09.23,1.98,1.92.86,1.72,1.3,2.19,1.9,2.93.57.74,6.96,7,9.23,9.35,2.29,2.33,6.24,6.15,7.42,7.48,1.17,1.33,5.64,5.57,6.09,6.17.44.56,3.15,3.43,3.9,4.02.73.63,2.34,1.84,2.34,1.84,0,0-.29-2.05.15-1.61.44.45,2.63,3.8,3.43,5.07.81,1.25,3.98,5.88,4.63,6.92.67,1,3.67,6.81,4.55,7.46.88.68,4.4,6.04,5.12,7.65.76,1.61,2.37,4.62,2.81,4.62s1.25-.52,1.17.23c-.08.73.65,2.65,1.25,3.39.59.72,1.84,2.5,1.84,2.5,0,0,1.85.04,2.19.7.37.68,1.56,2.74,1.56,2.74,0,0,1.24-1.05,2.05-1.32.8-.31,1.61-1.13,1.97-2.09.36-.93,1.18-3.35,1.18-2.91s.37,4.26.67,4.7c.28.43.96.8,1.45.68.52-.16,1.92-1.42,3.25-.68,1.32.72,1.25.8,2.06.86.8.09,3.45.24,3.51.09.07-.16,1.08-4.56,1.61-5.51.51-.96.81-.59.81.08s.28,3.88.28,4.63c0,.7,1.17,2.04,2,1.53.8-.48,1.61-1.54,1.98-2.35.37-.81,1.1-3.39,1.25-2.5.13.89.59,5.15.59,6.04s.29,1.3.29,1.3c0,0,2.5.8,4.18,2,1.68,1.16,1.76,1.53,1.76,1.53,0,0,1.97,0,3.01.21,1.02.21,1.62.16,1.85-.44.23-.57.59-1.01.44-1.38-.15-.37-1.26-1.25-.52-1.69.74-.44,1.69,0,1.48.65-.24.67-.24.89-.24.89,0,0,.47,1.53.52,1.9.08.37,2.51.23,4.04.28,1.53.09,1.09.24,2.05-.28.64-.33,1.17-1.02,1.4-1.6.23-.61.57-2.37.86-2.15.29.24.03,1.13.03,1.77s.05,2.5.51,2.94c.45.45,1.65-.07,1.65-.07"/>
  </g>
</svg>