<?xml version="1.0" encoding="UTF-8"?>
<svg id="Layer_2" data-name="Layer 2" xmlns="http://www.w3.org/2000/svg" viewBox="0 0 654.5 572.61">
  <defs>
    <style>
      .cls-1 {
        fill:#808080
      }
    </style>
  </defs>
  <g id="Layer_1-2" data-name="Layer 1">
    <path class="cls-1" d="m27.83,522.78c15.46-2.58,31.15.54,46.37-3.02,14.78-3.54,13.29-18.6,12.1-30.64-.62-5.29-1.45-10.74-.35-15.99,1.35-7.05,7.01-12.32,9.18-19.14,2.07-6.56.74-13.51,2.3-20.25,1.39-5.68,4.35-7.83,9.16-10.43,3.81-2.07,9-6.25,13.24-7.11,2.13-.49,4.38-.21,6.65.21-3.4-13.61-6.12-27.17-7.49-40.53-5.12-47.64,6.39-95.19,22.54-139.78,3.46-9.19,8.09-18.08,13.29-26.66-3.28.54-6.6.88-9.83,1.89-14.8,4.57-24.01,19.4-32.69,31.34-4.77,6.84-8.38,14.49-13.29,21.28-8.89,12.58-20.82,19.84-35.67,12.17-12.53-6.25-24.83-21.9-40.02-21.9-3.64,0-8.02-.36-11.51.49-1.9.52-9.8,8.6-8.8,9.25-1.74-1.16-3.23-3.9-3-6.12,2.79-24.77,50.67-11.68,60.76-1.11,7.53,7.67,12.09,15.19,23.93,9.22,11.99-6.17,11.37-26.84,16.87-37.43,5.22-10.13,13.68-17.05,24.1-21.42,9.96-4.13,15.96-12.6,24.05-19.04,8.23-6.3,16.64-5.63,26.12-4.93,6.19-5.86,12.88-11.24,20.31-15.47,8.98-5.01,13.77-11.86,14.63-21.98.05-1.55,0-3.2,0-4.83-15.37-.21-31.71-7.49-32.12-22.47-.51-12.81,12.28-23.43,8.87-37.22-1.36-5.55-6.54-6.87-10.75-10-4.86-3.56-8.76-8.06-12.46-12.63-5.21-6.51-20.64-22.19-30.11-20.18-4.15.77-5.04,5.35-8.36,6.85-8.5,3.75-2.78-8.34,1.6-11,23.69-13.95,42.82,23.48,62.59,30.72,7.17,2.68,16.56,8.47,16.82,17.1.21,7.18-5.95,13.64-8.53,19.94-1.12,2.4-3.88,19.56.74,20.25,3.98.64,7.88,1.21,11.88,1.88.44-2.89,1.01-5.71,2.6-8.26,8.77-15.09,20.08-30.64,34.65-40.64,10.06-6.79,22.5-13.51,26.9-25.62-6.95-1.68-12.9-5.35-19.63-7.98-4.52-1.76-14.48-4.16-16.98-8.65-3.74-6.46-3.35-17.13-5.66-24.36-1.28-4.37-3.23-11.21,3.88-7.44,5.45,2.89,6.72,10.33,7.35,15.76,1.72,14.29,10.8,16.84,23.33,20.92,8.5,2.89,14.48,10.72,22.48,13.31,7.31,2.43,15.9-2.22,23.24-2.22h9.13s5.02,0,9.95,0h9.05c7.46,0,15.96,4.65,23.37,2.22,8.08-2.58,13.98-10.41,22.36-13.31,12.55-4.08,21.82-6.64,23.42-20.92.57-5.42,1.93-12.86,7.44-15.76,6.92-3.77,5.02,3.07,3.72,7.44-2.22,7.23-2,17.9-5.64,24.36-2.52,4.49-12.59,6.9-16.91,8.65-6.82,2.63-12.62,6.3-19.75,7.98,4.47,12.12,16.96,18.83,26.94,25.62,14.62,10,25.94,25.55,34.64,40.64,1.47,2.56,2.25,5.37,2.66,8.26,3.91-.67,7.97-1.24,11.87-1.88,4.56-.7,1.85-17.85.86-20.25-2.75-6.3-8.91-12.76-8.62-19.94.3-8.63,9.47-14.41,16.75-17.1,19.75-7.24,38.97-44.67,62.48-30.72,4.44,2.66,10.24,14.75,1.76,11-3.29-1.5-4.24-6.07-8.27-6.85-9.6-2.01-24.9,13.67-30.24,20.18-3.64,4.57-7.66,9.07-12.46,12.63-4.17,3.13-9.41,4.44-10.8,10-3.32,13.79,9.49,24.41,8.99,37.22-.5,14.98-16.87,22.27-32.18,22.47,0,1.63-.06,3.28.05,4.83.86,10.13,5.75,16.97,14.54,21.98,7.43,4.24,14.18,9.61,20.34,15.47,9.44-.7,17.88-1.37,25.99,4.93,8.27,6.43,14.18,14.91,24.16,19.04,10.49,4.37,18.86,11.29,24.13,21.42,5.45,10.59,4.83,31.26,16.91,37.43,11.68,5.97,16.4-1.55,23.87-9.22,10.13-10.57,57.92-23.66,60.82,1.11.3,2.22-1.25,4.96-3,6.12.98-.65-7.08-8.73-8.8-9.25-3.44-.85-7.96-.49-11.57-.49-15.22,0-27.54,15.65-40.03,21.9-14.84,7.67-26.8.41-35.62-12.17-5.01-6.79-8.59-14.44-13.45-21.28-8.5-11.93-17.71-26.76-32.57-31.34-3.19-1.01-6.58-1.34-9.95-1.89,5.3,8.58,9.95,17.46,13.36,26.66,16.29,44.59,27.77,92.14,22.68,139.78-1.45,13.36-4.12,26.92-7.52,40.53,2.22-.41,4.47-.7,6.65-.21,4.23.85,9.34,5.04,13.24,7.11,4.86,2.61,7.79,4.75,9.21,10.43,1.42,6.74.12,13.69,2.25,20.25,1.99,6.82,7.76,12.09,9.25,19.14,1.06,5.24.12,10.69-.45,15.99-1.21,12.04-2.72,27.1,12.09,30.64,15.15,3.56,30.96.44,46.33,3.02,7.88,1.34,20.79,7.7,25.41,14.34,8.36,12.12-27.17,16.38-27.08,9.12,0-2.81,5.12-4.16,3.76-7.9-.89-2.25-5.75-3.28-7.61-3.87-18.12-5.79-40.54,4.7-57.59-5.4-17.15-10.07-4.92-41.77-11.11-57.32-1.03-2.69-3.91-12.81-6.46-16.09-4.11-5.32-6.42-12.94-13.15-15.53-2.92-1.19-7.13-.93-11.84-.26-9.2,27.23-21.82,53.37-38.45,74.99-7.23,9.35-15.28,18.06-24.44,25.5-11.92,9.48-26.83,19.06-41.18,24.28-14.36,5.25-34.82,9.79-50.08,7.26-13.77-2.35-25.84-7.23-39.52-8.26-13.68,1.03-25.82,5.92-39.47,8.26-15.26,2.53-35.8-2.01-50.08-7.26-14.44-5.22-29.25-14.8-41.13-24.28-9.3-7.44-17.23-16.15-24.49-25.5-16.57-21.62-29.26-47.76-38.45-74.99-4.71-.67-9-.93-11.91.26-6.64,2.58-9.09,10.2-12.99,15.53-2.63,3.28-5.52,13.41-6.52,16.09-6.3,15.55,5.95,47.25-11.19,57.32-17.18,10.1-39.5-.39-57.45,5.4-1.95.6-6.83,1.63-7.66,3.87-1.46,3.75,3.76,5.09,3.76,7.9,0,7.26-35.56,3-27.12-9.12,4.58-6.64,17.44-12.99,25.32-14.34h0Z"/>
  </g>
</svg>