<?xml version="1.0" encoding="UTF-8"?>
<svg id="Layer_2" data-name="Layer 2" xmlns="http://www.w3.org/2000/svg" viewBox="0 0 654.5 499.18">
  <defs>
    <style>
      .cls-1 {
        fill:#808080
      }
    </style>
  </defs>
  <g id="Layer_1-2" data-name="Layer 1">
    <path class="cls-1" d="m650.43,491.73c-7.86-6.84-17.89-7.7-27.57-7.99-10.11-.42-16.69-4.37-23.45-11.47-5.9-6.21-11.94-12.89-16.2-20.36-4.99-9.02-7.56-19.21-10.7-29-3.25-10.02-7.39-19.33-12.34-28.6-3.84-7.54-6.94-15.23-10.32-23.04-3.47-8.18-8.31-15.67-12.86-23.27-5.55-9.46-10.72-19.14-14.97-29.19-6.65-14.67-9.47-32.72-20.18-45.15-2.04-2.45-4.96-2.81-7.49-4.5-2.59-1.61-2.26-4.02-3.84-6.45-1.32-2.47-3.91-3.45-6.67-3.58-19.4-.88-32.76,18.14-51.49,19.59-1.73.17-15.32.21-15.87,1.49,0-2.53,2.26-4.88,3.21-7.05,1.26-2.66,2.21-5.42,2.85-8.28,1.29-5.33,1.89-10.94,2.28-16.43,1.16-15.46,2.19-30.74,4.15-46.14,19.35-1.59,38.73-2.51,58.03-4.35,18.16-1.76,38.73-3.12,53.77-15,2.63-2.13,3.67-5.27,4.55-8.5,1.73-5.61,2.84-15.07-2.44-19.4-4.56-3.68-8.1,1.36-8.91,5.23-.53,3.12-1.78,5.4-3.89,7.85-5.3,6.01-10.96,8.26-18.7,9.75-8.44,1.63-16.85,2.85-25.26,4.02-18,2.55-36.46,6.28-54.62,6.61-3.51.04-5.69-.88-8.27-3.28-.49-.42-5.89-6.17-5.65-6.34,4.48-3.6,9.36-7.11,14.38-10.02,11.04-6.46,24.28-8.33,36.93-9.5,29.97-2.74,60.48-4.81,87.51-19.62,7.16-3.81,13.06-9.79,17.75-16.45,4.1-5.96,7.09-12.74,11.72-18.54,2.13-2.83,4.65-5.5,6.3-8.7,1.56-3.16,1.97-6.67,3.08-9.94,1.19-3.56,5.86-5.1,8.45-7.66,3.38-3.45,6.15-7.64,8.07-12.16,2.11-5.21,1.49-10.02,1.8-15.46.29-3.43,4.23-5.67,6.25-8.05,2.61-3.1,4.92-6.53,6.85-10.13,2.31-4.31,5.69-9.12,5.49-14.14-.37-6.72-6.08-13.56-12.05-16.24-10.73-4.9-25.58-1.15-35.55,3.73-13.98,6.76-24.94,18.08-36.64,27.93-8.58,7.15-17.14,14.41-25.48,21.82-15.54,13.79-29.16,29.29-43.37,44.36-16.6,17.56-33.5,34.82-50.85,51.54-4.65,4.46-9.77,7.7-16.44,6.07-4.04-1.02-8.65-5.73-12.1-7.97-4.48-2.83-9.27-5.54-13.95-8.01-9.55-5.02-19.78-8.91-30.41-10.71-9.44-1.47-19.23-1.47-28.93-1.4-9.03.08-18.16,0-27.11,1.4-10.72,1.8-20.84,5.69-30.42,10.71-4.71,2.47-9.43,5.17-13.96,8.01-3.4,2.24-7.99,6.95-12.07,7.97-6.61,1.63-11.77-1.61-16.38-6.07-17.48-16.72-34.38-33.98-50.99-51.54-14.07-15.08-27.76-30.57-43.29-44.36-8.3-7.41-16.84-14.67-25.47-21.82-11.84-9.84-22.69-21.16-36.62-27.93C59.96,1.15,45.03-2.61,34.36,2.3c-5.77,2.68-11.64,9.52-11.81,16.24-.31,5.02,2.99,9.83,5.4,14.14,1.82,3.6,4.11,7.03,6.81,10.13,2.06,2.38,6.01,4.62,6.17,8.05.39,5.44-.22,10.25,1.91,15.46,1.98,4.52,4.77,8.71,8.02,12.16,2.53,2.56,7.31,4.1,8.49,7.66,1.1,3.28,1.45,6.78,3.05,9.94,1.65,3.2,4.01,5.86,6.3,8.7,4.61,5.8,7.59,12.58,11.76,18.54,4.72,6.67,10.61,12.64,17.72,16.45,27.03,14.81,57.5,16.88,87.63,19.62,12.51,1.17,25.81,3.05,36.88,9.5,5,2.91,9.72,6.42,14.38,10.02.15.17-5.2,5.92-5.66,6.34-2.57,2.39-4.81,3.31-8.37,3.28-18.18-.33-36.66-4.06-54.51-6.61-8.45-1.17-16.88-2.4-25.31-4.02-7.77-1.49-13.46-3.74-18.75-9.75-2.08-2.45-3.27-4.73-3.95-7.85-.71-3.87-4.37-8.91-8.85-5.23-5.25,4.33-4.06,13.79-2.5,19.4.96,3.24,1.95,6.38,4.67,8.5,14.93,11.88,35.52,13.24,53.75,15,19.34,1.84,38.63,2.76,58.05,4.35,1.82,15.4,2.87,30.68,4.11,46.14.41,5.5.87,11.11,2.24,16.43.8,2.85,1.62,5.61,2.87,8.28,1.05,2.16,3.14,4.52,3.14,7.05-.51-1.28-14.03-1.32-15.73-1.49-18.81-1.46-32.14-20.48-51.52-19.59-2.84.14-5.35,1.11-6.78,3.58-1.49,2.43-1.08,4.84-3.7,6.45-2.59,1.68-5.46,2.05-7.61,4.5-10.65,12.43-13.46,30.48-20.03,45.15-4.47,10.06-9.55,19.73-15.12,29.19-4.55,7.6-9.34,15.09-12.72,23.27-3.33,7.81-6.54,15.5-10.47,23.04-4.86,9.27-9.05,18.58-12.28,28.6-3.13,9.79-5.64,19.98-10.77,29-4.09,7.47-10.19,14.16-16.14,20.36-6.85,7.11-13.39,11.05-23.36,11.47-9.77.29-19.76,1.15-27.6,7.99-.94.86-5.2,4.63-3.95,6.25,1.09,1.57,4.78-1.13,5.75-1.76,1.43-.98,3.05-2.09,4.61-3.18-.93,1.9-3.04,3.93-2.2,6.15,3.01-2.97,6.83-6.99,11.36-7.3,3.49-.23,5.73,2.03,8.62,3.35,6.52,3.1,15.74-5.27,21.23-8.35,4.94-2.62,9.82-5.36,13.96-9.35,4.2-4,7.12-9,10.02-13.93,6.03-9.71,13.59-18.44,17.89-29.08,3.93-9.94,6.46-20.34,10.54-30.24,2.44-5.75,2.26-14.75,6.7-19.33,4.17-4.6,11.17.31,15.89-4.35,3.56-3.64,5.32-9.48,6.92-14.16,2.22-6.44,4.11-12.83,6.37-19.33,4.13-12.26,8.63-24.21,10.78-37.02,1.8-10.69,1.55-23.58,10.52-31.22,1.97-1.72,3.71-3.94,6.52-3.87,3.45.08,7.31,2.8,10.01,4.65,5.01,3.12,10.34,5.3,15.72,7.68,5.18,2.51,10.26,5.36,15.3,8.08-2.52-.1-5.05-.88-7.61-1.05-3.53-.31-7.25-.52-10.72-1.57-4.45-1.46-9.62-5.84-14.58-4.75-2.5.62-4.18,2.7-6,4.52-3.47,3.16-7.03,5.19-9.02,9.6-3.28,6.95-5.32,14.38-6.24,21.97-1.1,7.37-.57,14.98-2.19,22.31-1.71,7.7-4.57,15.09-5.98,22.87-.64,3.39-.88,6.88-.09,10.31.83,3.58,2.83,6.51,2.77,10.34-.27,3.81-1.27,7.89-2.16,11.67-2.48,11.44-7.51,22.55-9.41,34.04-.68,4.39.48,9.58-1.26,13.7-1.03,2.41-2.46,4.58-3.34,7.03-1.75,4.79-1.95,9.98-4.85,14.19-3.12,4.29-8.15,5.65-13.2,6.26-9.11,1.11-20.3,3.26-28.08,8.56-2.11,1.45-4.37,2.97-5.69,5.15-1.58,2.36-1.27,5.78,1.78,3.16,1.95-1.67,4.79-5.77,7.71-5.77.78,0,1.49-.12,2.19-.08-2.41-.1-2.31,7.59-1.6,8.77,2.48-1.36,1.92-5.17,3.57-6.78,1.19-1.07,3.73-.79,5.03-1.07,7.05-1.63,15.63,1.76,22.09-2.03,2.53-1.4,3.38-4.44,5.43-6.13,2.57-2.15,5.95-2.61,8.47-4.64,2.66-2.09,2.85-5.55,3.72-8.54.85-3.39,3.51-5.63,4.69-8.83.97-2.85.9-5.96,1.58-8.77,2.83-11.21,4.82-22.56,6.2-34,.51-4.02.73-8.03,1.21-12.07.49-5.13-.39-10.67,1.67-15.57,2.2-5.23,7.59-8.1,9.4-13.58,2.66-7.78,1.24-16.17,1.34-24.29.09-8.73,1.73-17.3,1.49-25.95-.17-5.86-2.57-12.16,0-17.78,2.66-6.4,10.21-4.56,15.2-2.7,1.79.71,10.14,2.51,10.6,4.12,1.73,4.84.57,10.34.61,15.34.39,6.15,1.67,12.12,2.99,18.14,2.15,9.84,5.88,18.85,7.33,28.81.62,3.57,2.17,5.71,3.65,8.77,2.28,4.96,1.71,10.71,1.71,15.99-.18,5.88-.2,11.76.29,17.7.48,4.9,2.37,9.65,2.8,14.61.42,5.44-.22,10.94.95,16.32,1.09,5.77-.07,12.18-.53,18.1-.13,3.94-.64,8.35-2.61,11.91-1.47,2.72-3.84,4.43-6.37,6.23-1.29,1.01-7.83,3.47-6.5,6.19,1.25,2.64,7.23-3.03,9.38-3.22l2.02-.25s.57-.48-.85,1.91c-.49.69-.77,1.38-.95,2.11,2.18-5.27,11.24-1.42,14.62-5.11,2.87-3.05,1.87-7.55,1.16-11.21-.61-3.51-.92-7.22.03-10.71,1.4-5.06,3.47-9.08,3.29-14.58-.44-7.2-1.98-14.31-2.42-21.47-.48-7.95-.35-15.86-1.67-23.67-.7-4.08-1.67-8.16-2.39-12.3-1.03-6.8,2.68-11.59,3.58-18.04.92-6.09-.81-12.34-2.09-18.26-2.87-12.68-11.18-23.04-15.32-35.13-.41-1.46-.41-3.39-.41-3.39,0,3.93,8.75,7.16,11.59,8.37,3.62,1.38,7.49,2.55,11.24,3.37,5.29,1.21,10.45,3.35,14.2,7.55,4.87,5.5,6.03,13.37,8.85,19.98,4.21,9.83,8.17,19.92,14.22,28.75,6.13,9.04,13.83,16.8,20.2,25.48,6.72,9.25,12.23,19.29,18.16,28.98,4.52,7.45,8.58,15.06,16.82,18.94,8.56,3.93,17.52,1.76,24.04-4.6,4.33-4.1,7.4-9.23,10.54-14.35,5.75-9.69,11.39-19.73,18.04-28.98,6.41-8.68,14.05-16.43,20.22-25.48,6.08-8.83,10.09-18.92,14.21-28.75,2.85-6.61,3.99-14.48,8.87-19.98,3.6-4.19,8.91-6.34,14.14-7.55,3.87-.82,7.62-1.99,11.21-3.37,2.9-1.21,11.7-4.44,11.7-8.37,0,0,0,1.93-.53,3.39-4.08,12.09-12.44,22.45-15.26,35.13-1.25,5.92-3.01,12.17-2.17,18.26.99,6.46,4.67,11.24,3.6,18.04-.61,4.14-1.58,8.22-2.31,12.3-1.4,7.81-1.29,15.72-1.77,23.67-.35,7.16-1.92,14.27-2.29,21.47-.24,5.5,1.78,9.52,3.23,14.58,1.1,3.49.64,7.2,0,10.71-.63,3.66-1.58,8.16,1.21,11.21,3.43,3.7,12.45-.15,14.64,5.11-.12-.73-.58-1.42-.99-2.11-1.34-2.4-.92-1.91-.92-1.91t2.22.25c1.99.19,7.94,5.86,9.24,3.22,1.45-2.72-5.06-5.17-6.48-6.19-2.57-1.8-4.93-3.51-6.43-6.23-1.95-3.56-2.39-7.97-2.61-11.91-.31-5.92-1.56-12.33-.39-18.1,1.05-5.38.39-10.88.87-16.32.57-4.96,2.31-9.71,2.9-14.61.51-5.94.31-11.82.31-17.7-.05-5.29-.68-11.03,1.7-15.99,1.4-3.06,2.96-5.21,3.49-8.77,1.6-9.96,5.3-18.96,7.42-28.81,1.26-6.02,2.57-11.99,2.83-18.14.24-5-.95-10.5.7-15.34.57-1.61,8.83-3.41,10.6-4.12,5.1-1.86,12.56-3.7,15.32,2.7,2.53,5.61.09,11.91-.09,17.78-.22,8.66,1.43,17.22,1.51,25.95,0,8.12-1.33,16.51,1.26,24.29,1.89,5.48,7.29,8.35,9.53,13.58,2.02,4.9,1.16,10.44,1.73,15.57.29,4.04.53,8.04,1.1,12.07,1.38,11.44,3.27,22.79,6.12,34,.79,2.82.64,5.92,1.65,8.77,1.1,3.2,3.76,5.44,4.66,8.83.9,2.99,1.01,6.46,3.75,8.54,2.41,2.03,5.91,2.49,8.39,4.64,2.16,1.68,2.99,4.73,5.44,6.13,6.57,3.79,15.02.4,22.18,2.03,1.43.29,3.93,0,4.94,1.07,1.73,1.61,1.18,5.42,3.64,6.78.81-1.19.81-8.87-1.58-8.77.61-.04,1.41.08,2.04.08,3.06,0,5.91,4.1,7.8,5.77,3.12,2.62,3.33-.81,1.8-3.16-1.21-2.18-3.62-3.7-5.66-5.15-7.78-5.31-19.04-7.45-28.15-8.56-5.1-.61-10.06-1.97-13.07-6.26-3.05-4.22-3.14-9.4-4.87-14.19-.79-2.45-2.46-4.62-3.38-7.03-1.67-4.12-.49-9.31-1.19-13.7-1.97-11.49-7.07-22.6-9.53-34.04-.83-3.77-1.85-7.85-2.09-11.67-.09-3.83,2.02-6.76,2.77-10.34.7-3.43.46-6.92-.17-10.31-1.41-7.78-4.31-15.17-5.98-22.87-1.49-7.34-1.12-14.94-1.99-22.31-1.15-7.59-3.19-15.02-6.42-21.97-1.89-4.41-5.59-6.44-8.92-9.6-1.79-1.82-3.42-3.91-6.05-4.52-4.88-1.09-10.17,3.3-14.54,4.75-3.51,1.05-7.15,1.27-10.82,1.57-2.53.17-4.98.96-7.51,1.05,5.08-2.72,10.16-5.57,15.3-8.08,5.34-2.38,10.74-4.56,15.54-7.68,2.89-1.86,6.61-4.58,10.23-4.65,2.68-.08,4.5,2.14,6.37,3.87,9.09,7.64,8.72,20.53,10.47,31.22,2.18,12.82,6.76,24.77,10.83,37.02,2.26,6.49,4.21,12.89,6.39,19.33,1.65,4.67,3.27,10.52,6.98,14.16,4.63,4.65,11.64-.25,15.96,4.35,4.24,4.58,4.18,13.58,6.67,19.33,3.99,9.9,6.52,20.3,10.48,30.24,4.28,10.63,11.74,19.37,17.74,29.08,3.05,4.92,6.03,9.92,10.16,13.93,4,3.98,9,6.72,13.97,9.35,5.52,3.09,14.56,11.46,21.21,8.35,2.99-1.32,5.2-3.58,8.65-3.35,4.57.31,8.34,4.33,11.44,7.3.71-2.22-1.36-4.25-2.21-6.15,1.41,1.09,3.01,2.2,4.57,3.18,1.01.63,4.69,3.33,5.64,1.76,1.36-1.61-3.05-5.38-3.82-6.25h0Z"/>
  </g>
</svg>