<?xml version="1.0" encoding="UTF-8"?>
<svg id="Layer_2" data-name="Layer 2" xmlns="http://www.w3.org/2000/svg" viewBox="0 0 654.5 455.93">
  <defs>
    <style>
      .cls-1 {
        fill:#808080
      }
    </style>
  </defs>
  <g id="Layer_1-2" data-name="Layer 1">
    <path class="cls-1" d="m12.42,115.14c2.32,3.48,21.12,26.55,33.22,34.06,2.14-1.84,4.5-3.46,7.12-4.72,1.38-.67,2.75-1.27,4.14-1.76-14.08-29.15-34.27-67.85-43.71-80.25-4.43-5.84-19.21-9.62-10.47-18.9,10.52-11.15,17.33,3.34,19.24,10.71.78,3.09,22.97,44.92,42.04,75.55.76-9.24.17-17.56-1.84-19.89-2.68-3.13-3.74-10.28,1.62-11.28,6.95-1.27,8.04,3.79,6,9.44-1.48,4.07,3.78,22.11,9.06,32.28,2.13.28,4.22.57,6.18.99,8.53,1.75,14.63,3.47,16.99-1.15,3.66-7.23,6.16-20.12,8.64-62.4,2.5-42.29,6.99-59.42,4.49-62.43-2.49-3-5.49-16.07,6.88-15.34,8.57.53,3.87,11.34,2.99,18.63-.87,7.26-.13,29.2-.17,56.48-.04,27.23-3.28,76.19,5.36,85.44,8.64,9.22,36.16,29.13,51.12,40.88,12.58,9.91,24.74,22.65,36.55,26.63,9.75-7.33,17.98-10.29,24.6-10.34,25.27-12.79,52.34-31.41,93.4-44.02,47.38-14.6,95.13-13.31,152.76,14.05,57.61,27.35,76.72,85.23,77.24,118.83.34,21.17-5.82,43.9-23.78,71.31,24.2,12.79,50.74,25.68,70.26,26.28,23.11.7,36.48-6.33,41.3-.38,4.39,5.4-8.32,21.38-36.5,38.21-44.98,26.88-95.71,6.78-132.95,5.15-5.69,1.47-12.32,1.96-19.15,1.35-3.96.91-11,1.58-10.94.2-15.79,2.82-52.51,1.92-64.55-8.49-11.06,4.76-23.2,7.38-35.8,8.54-13.64,3.41-28.71,1.32-41.63-1.27-7.79-1.11-15.52-2.6-23.14-4.45-15.6-1.36-58.33-10.15-79.88-18.3-21.57-8.17-34.62-18.82-30.85-33.56,7.35-28.82-14.62-37.44-21.01-47.1-6.38-9.7-9.16-23.29-16.43-33.18-7.28-9.83-14.53-24.37-26.96-36.22-12.45-11.86-40.62-31.97-50.12-50.32-7.54-14.55-18.65-8.8-30.57-29.22-4.3-7.37-3.3-22.09,3.27-34.31-9.55-15.43-22.95-38.82-27.07-38.5-4.09.29-10.49-3.07-8.09-8.01,3.11-6.34,7.82-4.22,11.13.78"/>
  </g>
</svg>