<?xml version="1.0" encoding="UTF-8"?>
<svg id="Layer_2" data-name="Layer 2" xmlns="http://www.w3.org/2000/svg" viewBox="0 0 654.5 575.3">
  <defs>
    <style>
      .cls-1 {
        fill:#808080
      }
    </style>
  </defs>
  <g id="Layer_1-2" data-name="Layer 1">
    <path class="cls-1" d="m3.89,370.03c-4.39-6.1-4.39-14.96-3.24-22.11,2.7-16.47,29.44-18.6,42.01-22.57,18.85-6.05,37.4-14.59,50.77-29.62,7.3-8.23,10.56-18.58,15.24-28.28,4.85-10.35,11.94-19.33,20.14-27.01,13.86-12.94,25.31-21.08,44.9-22.25.97-.1,3.23-.32,5.7-.56,5.92-6.7,12.69-12.7,19.12-18.96h0c-6.03-7.95-9.41-17.74-11.12-27.41-2.92-17.24-.41-34.74,1.45-51.95,1.4-14.69,9.58-39.8-.96-52.33-.24.26-.41.72-.6.94-4.54-6.55-8.77-13.59-13.92-19.71-4.32-4.9-8.31-10.13-13.15-14.31-5.23-4.39-10.98-7.92-15.22-13.2-2.22-2.69-3.32-7.15-6.07-9.31-2.67-2.19-7-1.2-8.75-4.95-1.87-4.01,1.37-6.34,5.11-6.43,7.24-.34,11.81,7.27,14.37,12.87,4.41,9.79,15.54,15.36,23.91,21.41,9.8,6.99,19.51,14.52,26.03,24.65,7.37,11.23,6.33,24.77,4.92,37.47-1.96,17.12-2.83,34.14-1.34,51.35,1.01,11.07.58,25.37,9.65,33.08,7.07-12.99,7.87-28.35,14.37-41.67,9.26-19.08,30.54-19.69,48.04-26.74,9.77-3.96-6.37-20.95-8.52-24.96-2.06-4.03-4.3-9.79-8.15-12.51-4.56,4.35-10.97-.94-13.73-4.73-4.34-5.95-4.86-13.42-5.99-20.4-.91-5.23-.74-10.58-2.29-15.58-.66-2.38-1.37-4.63-3.16-6.39-2.04-1.99-4.98-1.37-5.78-4.8-.69-3.03,1.57-7.15,4.3-8.4,5.86-2.76,12.73,3.12,14.41,8.4,2.12,6.55-.32,13.92-.36,20.52-.13,8.93,1.85,20.55,11.62,23.62,5.39,1.66,11.05,3.31,14.67,7.87,3.24,4.06,4.01,9.58,7.15,13.8,4.73,6.22,13.53,7.27,20.61,4.9,8.96-3.02,16.44-3.91,25.51-4.01v-.12c.62,0,1.15.07,1.75.07s1.13-.07,1.72-.07v.12c9.05.1,16.5.99,25.59,4.01,7.01,2.38,15.87,1.32,20.49-4.9,3.06-4.22,3.94-9.75,7.19-13.8,3.54-4.56,9.3-6.22,14.61-7.87,9.73-3.07,11.8-14.69,11.69-23.62-.08-6.6-2.56-13.97-.47-20.52,1.65-5.28,8.7-11.16,14.45-8.4,2.62,1.25,4.98,5.38,4.26,8.4-.77,3.43-3.63,2.81-5.64,4.8-1.84,1.75-2.62,4.01-3.28,6.39-1.45,4.99-1.43,10.35-2.2,15.58-1.13,6.99-1.7,14.45-6.02,20.4-2.75,3.79-9.3,9.08-13.82,4.73-3.82,2.71-5.97,8.47-8.14,12.51-2.21,4.01-18.24,21.01-8.4,24.96,17.37,7.06,38.72,7.66,48.07,26.74,6.49,13.4,7.13,28.69,14.28,41.67,9.09-7.66,8.58-22.01,9.58-33.08,1.54-17.21.71-34.23-1.27-51.35-1.41-12.7-2.39-26.24,4.87-37.47,6.66-10.13,16.37-17.67,26.03-24.65,8.39-6.05,19.46-11.62,23.85-21.41,2.7-5.59,7.21-13.2,14.45-12.87,3.77.09,6.94,2.42,5.09,6.43-1.73,3.74-5.94,2.76-8.64,4.95-2.75,2.16-3.9,6.62-6.09,9.31-4.31,5.28-10.2,8.81-15.16,13.2-4.92,4.18-9.05,9.41-13.23,14.31-5.17,6.12-9.52,13.16-13.96,19.71-.19-.22-.43-.67-.6-.94-10.62,12.53-2.45,37.64-.88,52.33,1.75,17.21,4.32,34.71,1.35,51.95-1.73,9.67-5.09,19.47-11.2,27.41h0c6.43,6.22,13.2,12.22,19.14,18.96,2.53.24,4.72.46,5.79.56,19.42,1.17,31,9.31,44.85,22.25,8.24,7.68,15.21,16.66,20.16,27.01,4.62,9.7,7.9,20.04,15.33,28.28,13.35,15.03,31.83,23.57,50.8,29.62,12.49,3.96,39.12,6.1,41.88,22.57,1.21,7.15,1.21,16.01-3.19,22.11-4.9,6.67-13.76,6.17-11.64-3.36,1.74-7.63,9.71-13.08,1.81-20.36-5.75-5.38-13.5-4.06-20.42-2.69-7.07,1.49-13.06,1.37-19.78-1.54-13.12-5.67-22.65-16.95-34.58-24.61-7.6-4.95-16.54-9.36-21.88-16.9-6.33-8.47-4.54-18.48-7.37-28.06-2.89-9.91-9.08-20.69-17.75-26.57-9.35-6.51-20.31-8.43-31.23-10.85,10.43,17.28,17.26,36.87,20.88,56.46,6.71,36.15,7.3,74.35-1.96,110.18,15.3,10.52,20.67,30.2,27.29,46.84,6.55,16.66,7.55,35.05,14.18,51.66,1.98,5.02,4.04,17.23,9.39,19.76,10.62,5.02,21.74,8.47,32.66,12.6,7.95,3.02,14.99,8.04,23.31,10.47,10.35,3.07,27.34,2.09,34.66,11.11,4.45,5.5,2.13,13.37-2.58,17.93-5.13,5.11-12,4.47-9.92-4.68,3.08-13.37-10.18-8.09-17.91-8.36-7.98-.12-14.92-3.53-22.23-6.5-15.94-6.55-33.82-9.5-47.11-21.41-8.56-7.54-11.83-20.74-15.84-31.09-4.98-12.99-8.09-26.62-11.01-40.16-2.06-9.24-8.59-33.35-19.73-35.89-.58-.22-1.15-.26-1.87-.38-1.79,4.63-3.64,9.24-5.81,13.76-6.24,13.16-14.08,25.98-23.02,37.59-15,19.37-32.7,39.73-54.71,51.06-19.1,9.96-45.43,16.85-64.83,3.96-6.88-4.51-15.6-12.7-24.35-13.42-8.82.72-17.61,8.91-24.34,13.42-19.48,12.89-45.7,6-64.91-3.96-22.04-11.33-39.77-31.69-54.59-51.06-9-11.62-16.9-24.44-23.12-37.59-2.17-4.51-3.45-9.24-5.23-13.88-.88.17-1.67.29-2.56.5-10.92,2.54-17.72,26.65-19.61,35.89-3,13.54-5.98,27.17-11.09,40.16-3.91,10.35-7.32,23.55-15.8,31.09-13.29,11.91-31.21,14.86-47.16,21.41-7.24,2.98-14.2,6.39-22.18,6.5-7.73.27-20.99-5.02-17.94,8.36,2.15,9.15-4.75,9.79-9.95,4.68-4.57-4.56-6.91-12.43-2.65-17.93,7.38-9.02,24.44-8.04,34.87-11.11,8.28-2.43,15.24-7.44,23.31-10.47,10.89-4.13,22.01-7.59,32.58-12.6,5.34-2.52,7.37-14.74,9.49-19.76,6.46-16.61,7.54-35,14.2-51.66,6.52-16.63,12.01-36.32,27.26-46.84-9.32-35.84-8.75-74.03-2.09-110.18,3.64-19.59,10.4-39.18,20.86-56.41-10.79,2.38-21.71,4.3-31.15,10.8-8.64,5.88-14.86,16.66-17.75,26.57-2.86,9.58-.99,19.59-7.24,28.06-5.56,7.54-14.41,11.95-22.06,16.9-11.86,7.66-21.33,18.94-34.51,24.61-6.77,2.91-12.82,3.02-19.78,1.54-6.94-1.37-14.69-2.69-20.5,2.69-7.79,7.27,0,12.72,1.85,20.36,2.2,9.53-6.81,10.03-11.6,3.36h0Z"/>
  </g>
</svg>