<?xml version="1.0" encoding="UTF-8"?>
<svg id="Layer_2" data-name="Layer 2" xmlns="http://www.w3.org/2000/svg" viewBox="0 0 654.5 408.09">
  <defs>
    <style>
      .cls-1 {
        fill:#808080
      }
    </style>
  </defs>
  <g id="Layer_1-2" data-name="Layer 1">
    <path class="cls-1" d="m636.82,96.06c-8.16-5.64-17.32-9.23-26.59-12.53-12.75-4.54-26.03-7.06-39.2-9.59-11.37-2.18-22.79-3.96-34.23-4.79-6.16-.47-12.38-.75-18.49-1.05-11.37-.67-22.58.45-33.89.62-11.85.32-23.67.65-35.44,1.67-6.68.59-13.38,1.36-19.97,2.44-7.12,1.19-14.11,2.71-20.99,4.76-14.9,4.44-29.13,11.05-43.16,17.79-1.54.71-18.07,8.12-16.86,10.24-4.34-7.53-7.12-13.99-6.06-22.94.27-2.76-.88-5.37-2.54-7.54-.52-.63-.98-1.12-1.56-1.56,1.88-4.15,3.76-8.27,5.63-12.42,4.32-9.42,8.98-18.57,13.25-27.98,2.69-5.82,4.8-12.04,7.66-17.75.67-1.3,4.9-9.74,6.14-9.37,1.06.38,1.09.49,1.86,1.54,2.63,4.24,3.99-2.53,2.25-5.46-1.09-1.85-3.01-2.82-4.72-1.62-3.05,2.1-5.47,8.14-7.03,12.03-3.07,7.35-5.74,14.95-9.1,22.08-3.17,6.63-6.43,13.11-9.48,19.81-.69,1.47-6.41,13.09-8.49,17.93.5-1.11-17.61-1-17.13,0-2.04-4.84-7.78-16.46-8.5-17.93-3.01-6.69-6.35-13.17-9.48-19.81-3.34-7.13-5.93-14.73-9.02-22.08-1.57-3.89-4.09-9.93-7.08-12.03-1.69-1.2-3.61-.23-4.72,1.62-1.75,2.93-.4,9.7,2.3,5.46.65-1.05.73-1.17,1.81-1.54,1.27-.37,5.41,8.06,6.16,9.37,2.9,5.71,4.99,11.93,7.66,17.75,4.26,9.42,8.93,18.57,13.25,27.98,1.84,4.16,3.74,8.27,5.6,12.42-.56.43-1.04.92-1.51,1.56-1.71,2.17-2.82,4.77-2.52,7.54,1.02,8.96-1.71,15.42-6.2,22.94,1.25-2.12-15.19-9.53-16.78-10.24-14.11-6.74-28.22-13.35-43.16-17.79-6.91-2.05-13.84-3.57-20.95-4.76-6.66-1.08-13.25-1.85-20.01-2.44-11.81-1.02-23.56-1.35-35.42-1.67-11.25-.17-22.58-1.3-33.89-.62-6.09.3-12.36.58-18.49,1.05-11.44.84-22.91,2.61-34.18,4.79-13.25,2.53-26.55,5.05-39.19,9.59-9.33,3.3-18.53,6.89-26.59,12.53C10.12,101.43.23,111.61,0,122.2c-.04,5.93,3.26,11.76,7.62,15.71,3.01,2.74,6.93,3.5,10.42,5.22,5.99,2.92,10.25,8.37,16.15,11.3,3.4,1.64,7.53,2.18,10.6,4.58,2.88,2.34,3.36,6.04,5.47,8.85,3.46,4.52,10,4,13.08,9.38,1.74,3.02,3.15,5.4,6.3,7.06,3.74,1.95,8.12,3.16,11.12,6.31,3.8,4.06,4.69,9.98,9.96,12.84,6.66,3.64,10.41,8.17,15.57,13.5,3.8,3.97,9.02,4.61,13.88,6.49,7.87,3.11,12.55,9.57,21.64,9.71,4.95.11,9.83-.69,14.71.21.84.17,7.05,2.16,7.51,1.59-4.95,6.72-9.83,15.97-7.79,24.56,1.79,7.37,8.7,10.7,12.96,16.38,3.82,5.03,3.13,11.95,6.61,16.91,3.28,4.68,9.1,5.33,14.07,7.06,12.86,4.47,5.74,22.8,17.11,28.78,3.61,1.9,7.62,2.85,9.85,6.58,4.74,7.79,4.53,17.44,3.86,26.22-.65,9.32.1,18.6.36,27.97.02,5.43-.17,11.49,3.17,16.2,2.32,3.32,5.14,3.51,6.68-.6,2.13-5.29,0-11.37-.13-16.8-.12-6.76,1.46-13.43,3.4-19.79,1.17-3.78,3.17-7.63,6.53-9.87,3.9-2.61,8.29-1.68,12.65-1.46,3.65.19,6.74-.47,10.12-1.67,2.86-1.07,5.64-2.18,8.74-1.76,8.14,1.01,15.57,7.03,22.94.04,5.43-5.18,5.26-12.31,5.87-19.28.4-4.54,2.34-8.67,5.15-12.28,5.24-6.88,9.79-11.57,10.5-20.69.63-9.73-1.73-19.2-3.57-28.65-.98-5.37-1.69-10.86-2.67-16.28-3.65-20.66-8.97-41.37-7.91-62.54.04-1.73,2.88-24.52,5.09-24.04,7.33,1.54,3.32,22.52,3.4,27.58.23,10.42,1.23,20.84,2.92,31.07,1.23,7.01,2.9,14.19,11.02,15.88,9.98,2.1,14.29-7.95,15.65-15.88,1.77-10.23,2.73-20.66,3-31.07.09-5.06-3.96-26.03,3.34-27.58,2.21-.48,5.05,22.31,5.12,24.04,1.08,21.17-4.36,41.88-7.91,62.54-.9,5.42-1.75,10.91-2.71,16.28-1.8,9.46-4.15,18.92-3.53,28.65.71,9.12,5.22,13.81,10.5,20.69,2.74,3.61,4.72,7.74,5.09,12.28.69,6.98.52,14.1,5.93,19.28,7.34,6.99,14.84.97,22.94-.04,3.03-.42,5.84.68,8.75,1.76,3.34,1.2,6.41,1.86,10.1,1.67,4.34-.22,8.6-1.15,12.61,1.46,3.38,2.24,5.34,6.09,6.55,9.87,1.98,6.36,3.48,13.04,3.38,19.79-.08,5.42-2.23,11.51-.15,16.8,1.61,4.11,4.4,3.92,6.78.6,3.24-4.71,3.05-10.77,3.21-16.2.17-9.37.88-18.65.17-27.97-.62-8.77-.88-18.43,3.95-26.22,2.3-3.73,6.22-4.68,9.83-6.58,11.44-5.98,4.26-24.31,17.16-28.78,4.92-1.73,10.77-2.38,14.04-7.06,3.47-4.95,2.76-11.87,6.56-16.91,4.3-5.67,11.25-9,13.02-16.38,2.11-8.58-2.88-17.84-7.83-24.56.46.57,6.66-1.43,7.53-1.59,4.9-.9,9.73-.1,14.61-.21,9.2-.14,13.86-6.6,21.79-9.71,4.82-1.88,10.08-2.52,13.82-6.49,5.11-5.33,8.89-9.86,15.59-13.5,5.26-2.86,6.12-8.77,9.93-12.84,2.99-3.15,7.39-4.36,11.1-6.31,3.15-1.66,4.57-4.04,6.37-7.06,3.13-5.38,9.56-4.86,13.08-9.38,2.13-2.81,2.52-6.51,5.41-8.85,3.03-2.4,7.18-2.94,10.56-4.58,5.99-2.93,10.19-8.38,16.16-11.3,3.5-1.72,7.51-2.48,10.5-5.22,4.28-3.95,7.68-9.77,7.57-15.71-.21-10.6-10.06-20.77-17.68-26.15h0Z"/>
  </g>
</svg>