<?xml version="1.0" encoding="UTF-8"?>
<svg id="Layer_2" data-name="Layer 2" xmlns="http://www.w3.org/2000/svg" viewBox="0 0 654.5 484.84">
  <defs>
    <style>
      .cls-1 {
        fill:#808080
      }
    </style>
  </defs>
  <g id="Layer_1-2" data-name="Layer 1">
    <path class="cls-1" d="m653.94,191.96c-1.89-6.43-6.27-13.06-9.62-17.56-8.02-10.69-18.69-19.65-29.82-26.95-16.97-11.08-35.56-18.52-54.29-26.32-7.37-3.09-14.87-6.08-22.47-8.34-11.34-3.3-22.91-5.47-34.64-6.81-6.65-.79-13.31-1.28-20.02-1.65-6.29-.35-12.65-.45-18.9-.22-7.89.26-15.87.86-23.76,1.6-20.77,1.91-43.22,2.92-62.35,11.89-4.22,2-8.27,4.52-11.59,7.84-2.91,2.81-5.55,6.21-9.51,7.79-6.44,2.63-11.26-3.55-12.55-9.24-.83-3.65-.83-7.76,1.06-11.09,1.85-3.33,5.52-6.26,5.23-10.41-.33-6.07-9.2-6.71-12.3-10.56-.06-.09-.17-.14-.18-.22.66-.67,1.29-1.26,1.95-1.9,8.91-8.7,17.95-17.37,27.48-25.51,7.23-6.31,14.71-12.37,22.18-18.35,8.43-6.69,16.85-13.38,25.32-20.02,6.73-5.25,12.77-11.5,19.65-16.64,2.66-1.98,6.02-4,5.09-7.88-1.25-4.92-8.47,4.46-9.39,5.65-4.4,5.57-8.99,9.88-14.52,14.29-4.42,3.52-8.72,7.14-13.21,10.66-14.71,11.43-30.01,22.23-43.55,35.1-7.81,7.46-15.62,15.02-23.47,22.33-2.74-1.65-6.08-1.49-9.2-1.33-.6.03-7.98,1.17-7.85,1.33-7.89-7.31-15.66-14.87-23.51-22.33-13.48-12.87-28.81-23.67-43.45-35.1-4.49-3.52-8.78-7.14-13.17-10.66-5.57-4.41-10.14-8.72-14.58-14.29-.91-1.18-8.14-10.57-9.35-5.65-.96,3.88,2.45,5.9,5.01,7.88,6.92,5.14,12.9,11.39,19.73,16.64,8.43,6.65,16.85,13.33,25.24,20.02,7.52,5.98,14.95,12.04,22.22,18.35,9.56,8.13,18.57,16.8,27.5,25.51.6.64,1.33,1.24,1.95,1.9-.11.07-.11.12-.21.22-3.07,3.85-11.88,4.5-12.27,10.56-.4,4.14,3.39,7.07,5.23,10.41,1.76,3.33,1.85,7.44,1,11.09-1.23,5.69-6.07,11.87-12.53,9.24-3.8-1.58-6.61-4.97-9.47-7.79-3.36-3.32-7.33-5.85-11.57-7.84-19.13-8.97-41.67-9.98-62.37-11.89-7.96-.74-15.81-1.34-23.85-1.6-6.23-.23-12.59-.14-18.86.22-6.73.37-13.34.86-20.02,1.65-11.69,1.34-23.3,3.51-34.56,6.81-7.71,2.26-15.18,5.25-22.56,8.34-18.82,7.8-37.28,15.23-54.29,26.32-11.13,7.3-21.81,16.26-29.78,26.95-3.34,4.5-7.77,11.13-9.55,17.56-1.04,3.36-.75,7.27.79,10.42,3.12,6.07,9.6,9.74,15.41,12.67,7.48,3.69,14.29,7.1,22.35,8.92,5.52,1.21,10.76,2.84,15.91,4.83,5.46,2.11,10.59,4.69,15.7,7.58,10.89,6.55,21.69,13.3,32.32,20.3,7.89,5.23,15.99,10.46,23.91,15.85,7.96,5.47,14.19,13,20.42,20.29,5.86,6.78,12.26,12.98,15,21.77,2.39,7.79,2.58,16.63,7.73,23.36,5.15,6.82,13.67,7.79,21.72,7.79,8.35-.04,11.03,4.9,10.43,12.72-.25,4.63-1.62,11.08,2.03,14.83,4.36,4.56,11.38,3.04,16.87,4.64,3.07.89,6.52,3.18,8.7,5.52,10.2,10.9,7.25,28.02,4.4,40.94-1.18,5.25-2.78,10.3-4.76,15.27-3.03,7.64-6.98,15.3-6.79,23.77.13,7.79,4.05,16.25,11.2,20,7.14,3.71,13.85-.21,16.3-7.51,1.73-5.04,1.79-10.4,1.12-15.62-.56-4.82-1.51-9.6-2.31-14.42-1.39-8.09-2.03-16.82.79-24.78,1.87-5.18,4.17-10.73,8.85-14.09,11.8-8.52,29.8-.44,40.17-12.55,5.96-7.15,5.4-17.25,6.81-25.97,1.2-7.73,5.77-14.07,7.68-21.56.66-2.79,1.18-5.61,1.95-8.38.62-2.38,1.52-4.78,1.99-7.22.37-2.43-1.37-7.21,1.37-8.63,1.58-.71,1.99-.04,2.62,1.16,1,2.04.4,5.54.21,7.74-.33,4.91-1.06,9.86-1.54,14.77-.33,4.17-.91,9.67,1.1,13.51,2.1,3.79,7.75,4.68,10.86,1.87,3.84-3.59,2.97-10.68,2.54-15.38-.5-4.91-1.16-9.86-1.5-14.77-.15-2.2-.81-5.7.19-7.74.62-1.2,1.08-1.87,2.53-1.16,2.8,1.42,1.08,6.2,1.47,8.63.42,2.44,1.33,4.84,2.04,7.22.62,2.77,1.25,5.59,1.95,8.38,1.87,7.49,6.46,13.83,7.71,21.56,1.35,8.72.73,18.82,6.75,25.97,10.36,12.11,28.31,4.03,40.17,12.55,4.65,3.36,6.98,8.91,8.79,14.09,2.86,7.95,2.2,16.69.83,24.78-.83,4.82-1.66,9.6-2.28,14.42-.66,5.21-.58,10.58,1.1,15.62,2.45,7.3,9.14,11.22,16.35,7.51,7.23-3.75,11.03-12.21,11.22-20,.14-8.47-3.86-16.13-6.81-23.77-2.02-4.96-3.62-10.02-4.8-15.27-2.87-12.92-5.75-30.03,4.4-40.94,2.22-2.34,5.61-4.62,8.85-5.52,5.48-1.6,12.36-.08,16.72-4.64,3.64-3.75,2.31-10.2,2.04-14.83-.56-7.82,2.06-12.76,10.45-12.72,8,0,16.53-.97,21.77-7.79,5.11-6.73,5.23-15.57,7.71-23.36,2.76-8.79,9.12-14.99,15.02-21.77,6.21-7.29,12.34-14.82,20.38-20.29,7.93-5.39,15.99-10.61,23.99-15.85,10.61-7,21.33-13.75,32.23-20.3,5.09-2.89,10.3-5.47,15.7-7.58,5.19-2,10.47-3.63,15.87-4.83,8.16-1.82,14.87-5.23,22.31-8.92,5.88-2.93,12.36-6.6,15.49-12.67,1.58-3.15,1.81-7.06.85-10.42h0Z"/>
  </g>
</svg>