<?xml version="1.0" encoding="UTF-8"?>
<svg id="Layer_2" data-name="Layer 2" xmlns="http://www.w3.org/2000/svg" viewBox="0 0 196.4 654.5">
  <defs>
    <style>
      .cls-1 {
        fill:#808080
      }
    </style>
  </defs>
  <g id="Layer_1-2" data-name="Layer 1">
    <path class="cls-1" d="m152.45,464.4c7.13-.3,14.18-1.19,21.14-2.47,4.5-.85,8.99-1.7,13.31-3.21,2.88-1,8.88-2.24,9.45-5.97.56-3.91-5.48-1.24-7.05-.67-7.88,2.98-15.86,5.77-24.3,5.74-6.49-.03-12.82-1.54-19.2-1.78-1.27-.1-14.88,1.72-15.19.64-.65-2.39.31-4.81-.21-7.23-.52-2.31-1.82-4.41-3.07-6.3-.33-.62-1.8-3.79-2.5-3.88,1.34.02,2.81.02,4.19-.1,1.5-.18,1.96-.05,4.5.18,6.98.67,13.92-.39,20.73-1.88,9.04-1.83,18-3.24,26.57-6.56,3.45-1.34,6.84-2.62,10.09-4.43,1.42-.82,6.88-3.97,2.93-5.51-3.34-1.34-7.77,1.62-10.87,2.62-3.6,1.15-7.24,2.22-10.91,3.22-7.16,2.05-14.62,3.53-22.06,3.83-4.86.2-9.84.87-14.6-.29-.8-.18-11.36-3.53-11.51-2.99,2.03-7.54,3.34-15.62,4.38-23.38.38-3.01,7.77-2.76,10.17-3.19,4.89-.92,9.86-1.68,14.95-2.22,5.07-.46,10.17-1.55,15.04-3.22,2.06-.7,5.07-1.65,8.7-3.22,3.63-1.54,5.61-2.55,8.65-3.68,2.44-.97,5.92-2.19,7.42-4.53,1.31-1.91,1.13-4.27-1.68-4.15-3.3.21-6.18,3.11-9.09,4.42-3.29,1.57-6.69,2.93-10.17,4.09-4.25,1.39-8.67,2.29-13.05,2.94-6,.85-12.12.95-18.13,1.72-4.66.64-9.09,2.01-13.75,2.93,1.86-.38-4.11-14.52-4.6-15.57-1.16-2.22-2.81-4.37-3.3-6.85-1.52-7.73,5.41-6.57,10.46-7.55,7.28-1.42,14.73-1.13,22.12-1.68,7.23-.51,14.39-2.17,21.18-4.79,1.91-.77,13.83-2.81,11.66-7.01-1.05-2.09-5.56-.9-7.24-.39-3.52,1.11-6.84,2.6-10.38,3.83-12.56,4.25-25.97,1.82-38.98,3.86-3.4.56-8.47,1.8-11.54-.73,1.21-3.86,3.3-7.34,3.91-11.41.41-2.65.77-5.2,3.66-6.15,2.55-.85,5.48-.42,8.18-.64,4.97-.34,9.97-.69,14.96-1.36,6.7-.87,13.29-1.96,20-2.93,5.41-.88,12.53-.47,15.91-5.74,1.54-2.42.59-3.64-2.29-2.8-2.35.74-4.82,1.36-7.31,2.03-12.3,3.29-24.68,3.4-37.33,3.29-3.45,0-6.85-.56-10.27-.34-2.6.15-5.3.79-7.88,1.24,1.28-.39-1.37-6.93-1.72-7.78-1.19-2.58-3.04-5.38-5.97-5.94.49-1.22,7.2-14.68,5.85-14.92,6.38,1.26,12.74,2.34,19.12,3.4,4.32.75,8.47,2.29,12.84,2.58,9.21.77,22.63,3.43,30.5-2.93,1.24-1.03,2.14-3.66.18-4.63-1.46-.73-3.81.9-5.17,1.39-2.24.8-4.71,1.19-7.05,1.51-5.25.64-10.53.39-15.78-.57-6.15-1.14-12.08-3.32-18.1-4.82-2.96-.69-6.87-2.22-9.88-2.01-1.11.1-4.27-2.54-4.94-3.47-1.91-2.85.98-8.36,1.21-11.51,0-1.06.18-5.22-1.1-5.66,4.76,1.5,10.25,1.63,15.26,2.44,12.66,2.19,26.57,4.23,38.84-.6,1.91-.7,6.64-1.84,6.97-4.29.11-1.19-.52-1.95-1.57-2.26-5.43-1.44-11.32,4.32-16.91,3.83-3.52-.29-6.85-1.37-10.32-1.73-5.46-.52-11-.86-16.4-1.8-5.18-.9-10.64-1.48-15.19-3.86-4.38-2.32-.28-4.6,1.16-7.61,1.7-3.69,2.63-5.26,6.87-5,15.49.9,31.04,3.32,46.26-.9,3.78-1.01,11.66-1.28,12.18-6.48.41-4.2-6.44-1.07-7.8-.32-2.86,1.46-5.48,3.17-8.73,3.75-4.76.9-9.83-.15-14.59-.71-8.04-.9-15.86-2.71-23.95-3.11-1.8-.07-3.93.26-5.63-.24,1.51-1.71.31-5.64-.06-7.57-.41-2.29-1.1-4.54-1.62-6.83,7.64-1.06,15.08-1.7,22.68-2.34,6.11-.55,12.15-1.19,18.21-1.41,2.49-.07,4.79.34,6.35.47,3.02.26,5.98,1.29,8.73,2.64,1.11.55,3.6,2.57,4.84,1.45.97-.9.1-2.96-.23-3.86-1.62-3.58-5.25-4.05-8.62-4.63-8.32-1.4-16.76-1.74-25.17-1.83-3.65,0-7.23.47-10.91.33-4.65-.13-9.44-.43-14.01.9-1.73.51-2.63.25-2.09-1.74.74-3.41,4.38-5.27,5.95-8.27.29-.7,1.13-4.44,1.72-4.6,11.89-1.87,24.04-2.21,35.66-5.8,3.78-1.13,7.19-2.91,10.71-4.42,4.94-2.03,10.46-4.72,12.71-9.97.64-1.46,1.54-5.79-1.34-4.99-1.57.45-2.96,1.65-4.2,2.63-2.16,1.69-4.12,3.75-6.38,5.32-3.14,2.22-6.59,4.09-10.19,5.44-7.02,2.62-14.47,3.9-22.01,3.3-1.34-.11-13.23.15-13.34-1.17-.17-3.92.72-7.91.72-11.84-.08-2.55-.8-6.75-3.04-8.31,2.05.56,4.04-1.05,6-1.09,4.82-.06,9.52-.84,14.26-1.33,3.7-.38,7.44-.34,11.19-.97,4.76-.8,9.31-2.61,13.83-4.29,3.99-1.41,7.62-3.52,8.09-8.21.46-3.97-4.5-.6-5.98.33-2.98,2.03-5.82,4.05-9.14,5.48-4.35,1.89-9.35,1.57-13.97,1.91-5.28.48-10.56,1.16-15.89,1.31-1.08.02-5.92-.26-6.59.38,0,0,.98-.87,1.31-1.68.93-1.69,1.5-2.74,1.91-4.65.29-1.91.41-3.99,1.77-5.54,1.72-2.14,5.12-1.94,7.68-2.36,2.24-.42,4.53-.75,6.9-1.06,2.27-.33,4.45-1.23,6.7-1.91,6.51-1.76,9.08-6.29,13.16-11.2,1.86-2.26,4.38-4.67,4.53-7.78.15-2.73-2.06-.73-3.19.36-1.16,1.05-2.21,2.25-3.45,3.34-3.25,3.08-7.54,6.98-11.72,8.73-3.96,1.65-8.41,1.69-12.61,2.25-1.21.16-3.99.94-5.09.34-1.7-1-1.21-7.82-1.21-9.62,0-3.5.46-7.21,2.44-10.2,2.9-4.34,7.62-7.57,8.6-12.97,1.27-6.93-1.6-14.21-5.15-20.06-.49-.83-1.16-1.65-2.03-2.1-.15-.11-3.16-.79-3.07-.15.57,2.51.26,5.36,1.13,7.76.52,1.54,1.13,8.54-1.98,8.32-1.01-.07-1.24-2.13-1.62-2.89-1.96-4.39-5.02-7.8-2.78-12.79,2.86-6.25,8.45-11.41,13.9-15.4,4.02-3,9.04-4.35,12.98-7.5,6.11-4.91,9.22-12.22,11.02-19.68,1.27-5.32,1.99-10.95,2.03-16.39,0-4.21.47-8.24,1.06-12.37.25-1.77,1.11-7.05-2.19-6.11-.96.23-1.42,1.03-1.72,1.84-2.6,6.29-1.54,14.52-1.72,21.22-.08,5.7-1.36,11.36-3.78,16.57-2.19,4.84-6.64,8.18-10.89,11.1-4.81,3.26-9.63,6.41-14.46,9.74-2.98,2.03-5.87,4.13-8.73,6.34-1.67,1.37-3.47,3.3-5.41,4.28-2.03.94-4.17.19-6.18.07-2.03-.11-4.38.52-6.23-.41-2.93-1.52-3.89-5.44-4.64-8.4-.87-3.75-1.88-7.61-2.26-11.47-.49-3.75-.15-7.61-.96-11.28-.74-3.07-2.17-5.89-3.19-8.89-2.89-9.07-1.45-16.65,1.72-25.41,2.94-8.22,8.39-13.54,14.96-19.01.82-.66,2.4-1.76,2.4-1.76,1.47-.94,3.34-1.88,3.97-3.61.8-2.35-1.24-4.08-3.5-3.89-2.47.18-4.38,2.47-6.33,3.79-3.42,2.25-6.64,4.68-9.86,7.21-5.22,4.1-6,11.26-8.18,17.14-1.8,5.08-2.96,10.17-4.12,15.49-1.39,5.96-2.14,11.1.43,16.88,2.31,4.98,5.95,9.37,7.41,14.77,1.13,4.38,1.31,9,2.17,13.48,1.21,6.66,2.52,17.53-7.05,18.58-1.19.11.64-10.69.6-11.66-.2-2.7-3.57-1.82-4.89-.32-1.29,1.41-2.39,3.28-2.99,5.08-1.6,4.26-.96,8.93-.93,13.38.08,4.43-.33,8.96.93,13.3,1.28,4.1,2.99,7.5,3.39,11.88.15,1.76.7,3.93-.75,5.32-2.03,1.95-8.03-2.35-10.16-3.26-8.7-3.79-15.31-10.1-23.17-15.16-1.27-.87-3.7-5.67-5.66-4.5-1.99,1.16-.16,6.11.52,7.5,1.45,3.23,4.01,5.98,6.67,8.25,4.5,3.88,10.01,6.28,15.34,8.98,3.03,1.59,5.46,3.97,8.14,6.06,1.52,1.22,3.17,2.34,3.96,4.24.79,2.03.46,4.29.87,6.38.38,1.77,1.46,3.64.75,5.51-.49,1.43-1.91.6-3.12.45-6.18-1.12-12.25-1.76-18.07-4.31-5.69-2.55-10.97-5.92-16.07-9.52-1.93-1.41-4.38-3.34-6.93-3.32,0,2.68,0,5.83,2.35,7.63,7.25,5.81,14.82,9.59,23.66,12.48,3.97,1.27,7.6,2.99,11.66,4.19,2.47.71,5.17.6,4.73,3.84-.26,2.77-1.85,5.89-3.04,8.36-.64,1.33-1.19,2.59-1.73,3.96-.18.47-12.13-3.28-13.39-3.96-1.41-.79-2.53-1.19-4.19-2.53-1.65-1.27-3.78-1.85-5.56-2.98-1.96-1.27-4.19-2.32-5.99-3.82-1.46-1.13-9.14-11.01-10.97-7.44-1.13,2.06,1.26,6.05,2.27,7.73,1.8,3.1,4.35,5.64,7.2,7.84,4.68,3.63,9.63,6.63,15.14,9.01.98.4,12.54,4.86,12.38,5.35-.49,2.51-.78,4.95-.29,7.46.33,2.58,1.27,5.06,1.16,7.67,0-.29-12.03-3.81-13.34-4.22-4.76-1.33-9.6-2.64-14.1-5.02-4-2.14-8.06-4.73-11.92-7.35-2.01-1.46-3.74-3.75-6.18-4.57-1.8-.69-4.72-.04-4.09,2.54.82,3.56,4.73,7.73,7.25,10.31,2.79,2.8,6.28,4.78,9.88,6.41,4.84,2.1,9.86,3.26,14.88,4.71,4.46,1.35,8.67,3.13,12.98,4.79,0,0-.2,1.95-.39,2.75-.77,2.4-.24,5.1-1.08,7.46-1.1,3.48-4.5,2.7-7.38,2.53-2.49-.09-4.95-.43-7.41-.73-3.97-.55-8.11-.81-11.99-1.8-3.53-.9-6.41-2.74-9.5-4.44-2.45-1.36-5.15-2.23-7.72-3.29-2.53-.99-9.76-8.18-11.12-2.28-.29,1.44.52,3.57,1.06,4.95,1.08,2.96,3.86,3.43,6.44,4.44,9.52,3.66,17.99,9.05,28.26,10.06,3.12.3,6.3-.3,9.4.17,1.24.16,3.34.64,4.2,1.63,1.23,1.35.7,3.45.57,5-.2,1.6,0,3.1.16,4.61.21,2.1,1.03,6.47-1.6,7.48-2.29.82-5.49.38-8.01.45-6.18.22-12.22.06-18.35-1.13-7.2-1.42-14.24-3.86-20.67-7.51-2.11-1.15-4.46-4.33-7.28-3.8-2.36.48-2.62,3.5-1.88,5.38,1.06,2.58,3.04,4.37,5.48,5.51,10.09,4.89,21.18,6.5,32.2,7.51,3.01.3,6,.69,8.99,1.03,2.37.25,5.85-.06,8.03,1.03-5.81,4.74-.98,13.11-4.66,18.34-1.46,2.01-4.19,1.42-6.44,1.69-6.1.64-12.36.93-18.51.75-7.16-.2-16.2,0-22.6-3.52-2.49-1.36-4.95-2.76-7.24-4.33-1.49-.97-4.38-3.78-5.89-1.58-2.5,3.58,2.29,6.6,4.4,8.49,6.74,5.82,13.82,8.31,22.78,9.01,6.52.51,12.98-.29,19.54-.21,2.03,0,3.89-.34,5.84-.77,1.47-.24,3.71-1.18,5.22-.59,1.32.56,1.65,2.84,2.03,4.04.67,2.81.49,5.74.88,8.63.16,2.4.42,5.07-1.62,6.67-3.99,3.08-11.04,1.54-15.54,1.16-5.97-.59-11.92-1.44-17.91-2.21-4.69-.5-9.61-1.06-13.92-3.37-1.7-.92-9.45-6.56-10.2-1.88-1.01,6.26,6.79,9.43,11.32,11.03,4.32,1.49,8.78,2.01,13.19,2.89,5.59,1.01,11.28,1.7,16.94,1.86h5.36l11.51-1.86c-1.08.15-.72,11.81-.74,12.98-.13,1.06,0,2.76-.52,3.74-.8,1.54-3.39,1.59-4.81,1.98-2.75.69-5.45,1.42-8.14,2.06-5.43,1.28-10.91,2.34-16.45,2.34-6.03,0-12.04-1.16-17.97-1.88-2.91-.34-7.26-3.65-10.04-2.81-2.52.77-1.23,4.35,0,5.72,1.85,1.95,4.4,3.34,7.01,3.84,8.55,1.54,17.45.47,26.02-.39,8.09-.78,16.27-1.88,23.87-4.78,0,0,.23,1.78,1,4.02,1.41,4.5,4.37,8.62,5.2,13.31.59,3.34-5.15,4.61-7.5,5.75-9.75,4.63-19.72,5.18-30.28,5.64-5.4.23-3.22.02-7.41-.03-2.39-.05-12.46-4.68-10.66,1.34,1.19,4.05,8.5,6.2,11.95,6.87,5.59,1.05,11.22-.08,16.65-1.28,3.08-.67,6.07-1.5,9.22-2.25,3.61-.87,7.34-1.41,9.53-2.29,2.24-.9,7.41-3.07,7.67-3.61.06,1.36.93,2.71,1.21,4.07.33,2.13-.49,4.63-.64,6.79-.11,3.4.21,6.8.15,10.19,0,1.91-.15,4.25-1.59,5.61-1.23,1.03-2.73,1.54-4.07,2.11-5.79,2.4-10.76,3.71-17.07,4.06-5.43.3-10.86.21-16.3.21-2.7-.05-8.39-1.1-7.08,3.58,1.03,3.73,4.12,2.99,7.13,3.47,3.48.51,6.74,1.09,10.25.86,8.55-.56,17.56-2.5,25.72-5.1,5.07-1.64,4.58-3.29,4.29-3.84,1.01,1.19,1.57,3.71,2.09,5.09,1.01,2.55,1.76,5.1,2.99,7.5,1.29,2.49,2.93,4.91,3.19,7.8.13,1.73.34,5.17-1.72,6.07-2.14,1.06-4.46,1.7-6.8,2.42-7.7,2.21-15.62,4.02-23.56,4.51-5.97.41-13.69.83-19.34-1.16-1.31-.47-4.48-3.68-5.13-1.15-.64,3.06,3.04,6.44,5.43,7.56,2.86,1.24,6.08,1.36,9.09,1.63,7.05.75,13.96-.24,20.98-1.11,6.88-.83,14.19-1.23,20.16-4.86,2.68-1.6.64-.25.64-.25-.64.44.9,8.11,1,9.08.08.7,1.15,6.49.36,6.85-2.18.96-4.46,1.67-6.36,3.17-1.9,1.59-3.47,3.53-5.45,4.97-2.44,1.73-5.1,3.19-7.82,4.55-7.14,3.4-14.54,6.21-22.4,7.38-2.55.38-4.91.26-7.51.28-2.12,0-4.01.88-3.52,3.4.44,2.29,2.47,2.7,4.48,2.75,3.35.13,6.62.18,9.91-.03,11.02-.64,22.8-3.48,31.64-10.29,2.73-2.11,5.02-2.17,5.02-2.17,1.63,3.83,3.65,7.54,4.87,11.46.87,2.37,1.8,6.04,4.73,6.61-3.78,5.38-9.48,9.03-14.7,12.95-3.81,3.01-7.83,5.94-12.13,8.32-5.92,3.29-12.71,5.94-19.64,4.63-1.49-.26-4.99.61-5.18,2.45-.44,4.4,10.96,4.87,13.69,4.48,12.71-1.9,24.14-8.14,33.18-17.35,1.08-1.13,1.8-2.63,3.03-3.74.31-.33,3.97-2.4,4.2-1.67,1.36,5.1,1.11,10.56.49,15.83-.6,4.92-1.36,10.02-3.97,14.39-2.55,4.17-6.56,6.84-10.14,10.01-2.72,2.37-5.32,5.13-8.29,7.18-3.5,2.45-7.44,3.55-11.33,4.97-2.03.75-6.61,2.44-3.8,5.1,3.68,3.45,10.27.16,13.95-1.54,5.09-2.26,9.89-5.18,13.82-9.11,4.69-4.69,9.68-9.57,13.36-15.13-.38.61,3.34,6.74,3.83,7.55,1.13,2.18,2.5,4.15,3.25,6.46.64,1.99-.38,3.35-1.26,5.04-.93,1.99-1.7,4.06-2.6,6.08-1.64,3.61-3.4,7.26-4.53,11.14-1.99,6.98-2.89,14.29-2.55,21.57.34,8.31-.38,16.92,1.5,25.08,1.8,7.36,4.33,14.72,6.44,22.03,1.54,5.41,2.99,12.28,7.24,16.27,2.42,2.34,7.82,3.19,7.72-1.7,0-3.48-2.26-6.79-4.06-9.73-1.73-2.88-3.94-5.54-5.1-8.73-1.34-3.69-2.5-7.65-3.63-11.33-1.05-3.5-1.98-6.92-2.63-10.42-1.28-6.87-1.46-13.98-.26-20.87,1.32-7.65,3.01-15.39,5.51-22.78.64-2.09,1.01-4.24,3.83-4.25.49,3.74,2.66,7,3.53,10.69.96,4.12,1.05,8.47,1.54,12.75.28,2.91.93,6.1,4.19,6.95,3.86.96,6.31-3.91,10.12-2.9,3.56.96,5.61,1.75,8.52-1.09,1.05-1.01,1.46-2.45,1.8-3.83.75-3.3.15-6.71.15-10.09,0-3.84-.11-7.41-.67-11.2-.57-3.24-.16-4.09-.16-5.45.08-1.29,1.91.96,4.14,3.04,5.95,5.66,10.07,13.08,13,20.64,3.71,9.45,8.57,18.44,12.33,27.88,1.65,4.02,3.34,8.01,4.2,12.35.26,1.52.08,9.29,3.22,7.51,1.42-.83,3.07-3.94,3.16-5.61.29-4.58-1.8-9.42-3.39-13.54-1.75-4.53-5.51-7.95-7.57-12.39-1.95-4.25-3.29-9.42-4.87-13.46-1.37-3.09-3.11-5.95-4.35-9.04-2.5-5.87-4.76-11.92-8.24-17.28-2.42-3.63-5.4-6.28-8.37-9.31-2.57-2.58-4.37-5.13-2.98-8.8,1.08-2.96,3.25-5.45,4.12-8.52.15-.77,1.86-7.31.78-7.6,1.6.41,3.19,1.11,4.79,1.65,3.94,1.31,7.77,2.84,11.89,3.48,4.99.8,10.04.47,15.06.54,2.63.07,5.74.07,8.53-.07,2.71-.1,3.96-.39,6.02-.6,1.75-.16,4.91.16,5.89-1.78.87-1.8-1.16-3.83-2.93-3.94-3.22-.21-6.41.54-9.66.75-4.4.34-8.9.61-13.28-.21-5.4-1.06-10.45-3.14-15.6-4.82-1.98-.56-3.91-1.16-5.84-1.57-1.54-.31-5.02-1.29-6.43-.64,1.83-.87.92-6,.77-7.64-.15-2.7-.05-5.51-1.01-8.09-1.01-2.71-2.66-5.17-3.91-7.83,0,.08,12.76-.61,13.77-.72,6.15-.61,12.22-1.75,18.22-3.5,5.43-1.55,10.38-5.1,16.04-5.69,1.62-.18,2.86-1.19,4.27-1.9,1.41-.77,3.06-1.15,4.22-2.21.88-.82,1.15-2.17.02-2.94-1.08-.82-3.14-.07-4.3.28-2.29.78-4.58,1.6-6.84,2.58-4.82,2.06-9.44,4.53-14.62,5.54-2.39.44-4.9.34-7.34.34-3.7.07-7.37-.21-11.17-.47-1.13-.13-13.06-1.41-13.11.31.05-2.16-.08-19.84,2.24-20.3,6.82-1.29,13.43-.42,20.24-.69h0Z"/>
  </g>
</svg>