<?xml version="1.0" encoding="UTF-8"?>
<svg id="Layer_2" data-name="Layer 2" xmlns="http://www.w3.org/2000/svg" viewBox="0 0 479.74 654.5">
  <defs>
    <style>
      .cls-1 {
        fill:#808080
      }
    </style>
  </defs>
  <g id="Layer_1-2" data-name="Layer 1">
    <path class="cls-1" d="m2.18,412.7c9.33-9.3,23.1-15.03,30.96-26.34,3.17-4.58,5.75-9.51,8.63-14.22,5.03-8.68,13.22-12.29,21.53-16.99,6.65-3.71,10.85-11.07,17.91-14.11,7.47-3.18,16.19-.72,23.93-.7,8.97.1,17.86-1.41,26.63-3.33,7.52-1.64,15.3-4.35,23.06-3.23,6.43.89,26.87,3.35,22.31-9.35-2.27-6.36-9.21-9.2-14.04-13.11-8.27-6.48-16.6-13.04-23.85-20.71-9.16-9.72-16.36-21.47-23.95-32.44-15.03-21.29-23.9-46.32-39.08-67.67-8.36-11.9-17.91-23.6-24.72-36.46-6.14-11.42-12.21-22.85-19.14-33.81-4.66-7.37-17.74-20.01-16.48-29.16,1.93-11.96,15.64-.42,18.27,3.78,4.06,6.57,5.85,14.5,10.34,20.82,17.52,25.17,34.85,50.55,52.74,75.47,2.27,3.49,4.44,7,6.64,10.54,7.61,11.93,15.15,23.85,22.11,36.15,7.15,12.82,14.74,25.68,26.17,35.14,3.58,3.01,7.39,5.73,11.53,8.18,1.69,1.1,6.57,3,8.53,5.24-.89-1.45-1.91-3.47-2.15-4.54-1.26-5.05-4.81-9.89-7.15-14.47-3.09-5.91-5.85-11.98-9.45-17.66-4.69-7.79-9.35-15.73-8.58-25.22.63-10.06,4.98-19.69,7.3-29.46,1.74-7.19.87-15.74,1.26-23.1.29-8.17.15-16.32-1.88-24.28-3.29-12.88-8.75-25.09-12.57-37.87-5.27-17.39-9.96-34.96-13.92-52.7-2.76-11.62-6.43-23.09-7.64-35.03-.58-5.58-.77-11.82,1.74-16.98,1.64-3.61,7.59-8.11,10.34-2.25,2.51,5.02.34,12.28.46,17.64.22,16.3,5.37,31.77,9.6,47.3,4.3,15.42,7.98,30.96,12.42,46.28,4.13,14.04,11.7,26.5,17.04,40,2.68,7.07,2.01,15.47,2.05,22.86.05,8.28-.36,16.49-2.75,24.48-3.38,11.43-9.88,27.82-.48,38.18,3.12,3.42,14.09,12.98,18.56,6.44,3.19-4.42-3.7-16.41-4.98-21.12-2.56-8.73-4.98-17.78-3.26-26.86,2.44-12.41,12.4-21.67,18.73-32.19,2.56-4.44,4.16-9.17,2.95-14.27-1.88-6.91-10.97-16.51-3.55-23.03,3.6-3.2,8.68-2.88,12.13.33,5.73,5.53,9.28,16.82,9.91,24.59.99,12.28-5.15,19.2-13.49,27.43-6.28,6.17-12.78,12.75-16.07,21.17-2.95,7.47.14,18.62,10.61,14.91,10.03-3.58,7.03-19.05,13.9-25.39,5.85-5.33,16.75-4.11,20.45,3.17,1.55,3.05,1.06,7.78,4.78,9,5.9,1.98,5.66-5.35,7.49-9,3.77-7.27,14.57-8.5,20.37-3.17,7.01,6.34,3.94,21.81,14.02,25.39,10.34,3.71,13.44-7.44,10.47-14.91-3.26-8.42-9.74-14.99-15.95-21.17-8.41-8.23-14.4-15.16-13.44-27.43.63-7.77,4.06-19.06,9.81-24.59,3.33-3.2,8.56-3.53,12.16-.33,7.42,6.53-1.79,16.12-3.53,23.03-1.35,5.1.32,9.83,2.93,14.27,6.28,10.53,16.34,19.78,18.66,32.19,1.79,9.09-.61,18.14-3.21,26.86-1.28,4.71-8.19,16.7-5.08,21.12,4.59,6.54,15.59-3.02,18.66-6.44,9.47-10.37,2.92-26.75-.41-38.18-2.42-7.99-2.85-16.21-2.85-24.48.1-7.39-.68-15.79,2.1-22.86,5.32-13.5,12.96-25.96,17.04-40,4.4-15.32,8.14-30.86,12.33-46.28,4.25-15.53,9.5-30.99,9.69-47.3,0-5.37-2.18-12.63.39-17.64,2.88-5.86,8.65-1.36,10.42,2.25,2.49,5.16,2.32,11.4,1.69,16.98-1.11,11.94-4.95,23.41-7.61,35.03-3.99,17.74-8.7,35.31-13.92,52.7-3.82,12.78-9.18,24.99-12.52,37.87-2.1,7.95-2.1,16.11-1.96,24.28.36,7.36-.41,15.92,1.3,23.1,2.3,9.78,6.57,19.41,7.32,29.46.82,9.49-3.89,17.43-8.63,25.22-3.5,5.68-6.4,11.75-9.5,17.66-2.27,4.58-5.8,9.41-7.06,14.47-.27,1.07-1.33,3.09-2.13,4.54,1.93-2.25,6.74-4.14,8.51-5.24,3.99-2.45,7.88-5.17,11.55-8.18,11.38-9.46,18.93-22.32,26.13-35.14,6.91-12.3,14.45-24.23,22.11-36.15,2.22-3.54,4.38-7.05,6.53-10.54,18.13-24.92,35.28-50.29,52.95-75.47,4.33-6.32,6.14-14.25,10.2-20.82,2.73-4.21,16.36-15.75,18.17-3.78,1.4,9.15-11.74,21.79-16.48,29.16-6.84,10.96-12.88,22.39-19.02,33.81-6.82,12.86-16.29,24.55-24.77,36.46-15.06,21.35-23.93,46.38-39.01,67.67-7.56,10.96-14.81,22.72-23.93,32.44-7.25,7.67-15.57,14.24-23.9,20.71-4.83,3.92-11.77,6.75-13.99,13.11-4.47,12.7,15.85,10.25,22.33,9.35,7.73-1.12,15.52,1.58,22.98,3.23,8.8,1.92,17.76,3.43,26.66,3.33,7.71-.01,16.43-2.48,23.88.7,7.08,3.04,11.22,10.4,17.89,14.11,8.43,4.7,16.58,8.31,21.56,16.99,2.9,4.71,5.56,9.64,8.75,14.22,7.76,11.31,21.46,17.04,30.94,26.34,0,0,2.18,2.18,2.18,5.65,0,16.17-13.34,4.24-19.02-2.31-6.11-7.13-14.09-12.14-21.56-17.69-3.53-2.65-7.88-7.43-11.7-9.2-3.97-1.73-11.41-5.68-13.99-8.29-21.2-21.09-56.36-15.54-83.65-17.81-8.8-.75-17.64-.62-26.44-2.22-3.96-.77-11.07-2.8-13.36,2.09-3.58,7.67,9.86,18.71,14.33,23.2,5.32,5.23,7.03,5.65,13.58,10.88,20.59,16.48,31.22,42.93,41.11,66.57,5.83,13.93,5.27,27.85,2.68,42.39-6.5,36.51-14.48,72.64-21.75,108.97-1.98,9.31-3.26,18.79-6.09,27.95-1.23,4.29-4.06,15.19-9.96,10.47-3.34-2.65-4.79-10.09-4.28-14.1,1.28-12.62,5.66-24.73,7.44-37.24,3.12-21.45,7.06-42.74,11.72-63.95,2.22-10.67,4.64-21.26,7.23-31.85,8.12-33.7-21.1-66.07-39.39-90.86,4.28,5.85,3.82,18.3,4.86,25.31,2.44,14.57,4.21,29.58.68,44.12-2.32,9.51-6.91,18.96-13.53,26.25-3.26,3.53-7.37,7.03-11.84,8.93-4.54,1.96-10.8,1.89-14.72,5.25-3.46,3.08,4.95,11.24,6.67,13.01,5.22,5.27,3.14,11.4-4.62,8.18-6.12-2.66-6.4-9.28-9.96-14.07-4.59-6.32-12.64-4.94-19.5-4.78-8.63.17-23.01-3.54-29.27,4.78-3.46,4.79-3.79,11.41-9.81,14.07-7.78,3.21-9.79-2.91-4.62-8.18,1.64-1.77,10.01-9.93,6.65-13.01-4.04-3.36-10.2-3.29-14.82-5.25-4.4-1.9-8.5-5.4-11.79-8.93-6.62-7.29-11.17-16.74-13.49-26.25-3.58-14.54-1.84-29.55.63-44.12,1.06-7.02.63-19.47,4.93-25.31-18.3,24.8-47.64,57.16-39.44,90.86,2.56,10.6,4.93,21.18,7.32,31.85,4.52,21.21,8.58,42.5,11.67,63.95,1.79,12.52,6.16,24.63,7.39,37.24.48,4.01-1.01,11.45-4.28,14.1-5.87,4.72-8.75-6.17-9.93-10.47-2.8-9.16-4.13-18.64-5.99-27.95-7.44-36.33-15.35-72.47-21.8-108.97-2.71-14.54-3.17-28.46,2.66-42.39,9.83-23.64,20.44-50.09,41.08-66.57,6.53-5.22,8.27-5.64,13.54-10.88,4.4-4.49,17.89-15.53,14.26-23.2-2.2-4.89-9.33-2.86-13.25-2.09-8.79,1.61-17.64,1.47-26.53,2.22-27.12,2.27-62.4-3.27-83.5,17.81-2.68,2.61-10.08,6.56-14.02,8.29-3.89,1.76-8.31,6.55-11.82,9.2-7.32,5.55-15.4,10.56-21.51,17.69-5.63,6.55-18.95,18.48-18.95,2.31,0-3.47,2.18-5.65,2.18-5.65h0Z"/>
  </g>
</svg>