<?xml version="1.0" encoding="UTF-8"?>
<svg id="Layer_2" data-name="Layer 2" xmlns="http://www.w3.org/2000/svg" viewBox="0 0 654.5 620.81">
  <defs>
    <style>
      .cls-1 {
        fill:#808080
      }
    </style>
  </defs>
  <g id="Layer_1-2" data-name="Layer 1">
    <path class="cls-1" d="m298.32,348.64c.45.15.69-.07.91-.24,3.12-2.39,6.34-4.64,9.94-6.26.2-.09.41-.19.56-.32.5-.45.55-1.04-.14-1.12-1.2-.18-2.17-.75-3.22-1.25-.7-.34-1.47-.37-2.04.19-1.45,1.44-3.11,2.62-4.65,3.95-.27.22-.54.55-.61.87-.3,1.4-.5,2.81-.75,4.19h0Zm120.31-87.61c-1.65-.31-2.9.14-4.17.29-2.55.3-4.95,1.14-7.29,2.19-1.47.66-2.7,1.69-2.61,3.44.08,1.59.32,3.19.86,4.71.41,1.12.97,1.21,1.65.24,1.8-2.61,4.11-4.71,6.44-6.81,1.55-1.4,3.24-2.64,5.12-4.05h0Zm15.87,28.76c-1.84-.66-3.6-1.26-5.35-1.94-.97-.37-1.47-.1-1.75.91-.59,2.24-2.2,3.06-4.4,3.17-2.03.09-4.06.26-6.09.54-.89.11-2.15-.12-2.54.89-.36.96.65,1.67,1.22,2.4,1.14,1.45,2.26,2.97,2.27,4.86.02,2.29,1.52,3.36,3.12,4.37.99.62,1.7.35,2.42-.63.22-.29.37-.61.57-.92,2.97-4.59,5.94-9.19,10.06-12.87.14-.12.2-.36.44-.79h0ZM0,487.37c.96-3.12,2.12-6.16,3.56-9.12,2.72-5.61,6.59-10.32,10.9-14.67,6.27-6.34,13.25-11.86,20.16-17.47,10.27-8.37,21.93-14.37,33.79-19.97,14.17-6.71,28.42-13.23,42.69-19.71,13.93-6.34,27.57-13.3,41.43-19.81,5.54-2.59,11.35-4.61,17.01-6.91,15.53-6.34,30.82-13.2,45.59-21.17,2.44-1.31,4.84-2.71,7.25-4.07.64-.35,1.22-.82,2-.8,3.55.11,6.96-.66,10.32-1.62,7.15-2.04,14.21-4.36,21.08-7.2,4.96-2.06,9.32-5.11,13.46-8.49.74-.59,1.49-1.19,2-2.01,1.21-1.96,2.95-3.4,4.82-4.69,2.77-1.9,5.7-3.52,8.69-5.06.7-.36,1.5-.59,2.21-1.34-1.22-.67-2.51-.8-3.74-1.12-1.96-.51-3.91-.97-5.65-2.19-1.56-1.09-3.5-1.41-5.36-1.8-1.25-.26-2.19-.8-3.02-1.87-1.89-2.47-4.57-3.36-7.59-2.75-4.32.87-8.66,1.07-13.03.82-1.01-.05-2.04-.07-3.06-.07-7.29-.05-14.53-.75-21.8-1.35-.95-.08-1.67-.44-2.3-1.11-.66-.74-1.49-1.18-2.5-1.14-1.77.09-3.47-.36-5.2-.62-3.6-.54-7.24-.87-10.87-1-3.94-.11-7.87.05-11.67,1.27-.86.29-1.71.25-2.55-.15-1.33-.64-2.69-.56-4.01.04-.47.21-.96.44-1.46.24-2.77-1.13-5.27.17-7.85.84-.21.05-.41.18-.61.24-1.6.51-1.74.39-1.67-1.42-1.76.2-3.39.82-5.04,1.36-3.12,1.02-6.21,2.12-9.32,3.16-1.01.34-1.44.84-1.15,1.94.49,1.87.32,3.95,1.72,5.55.19.21.26.56.1.82-.23.37-.6.26-.97.23-1.12-.11-1.87-.69-2.27-1.75-.52-1.45-.81-2.94-.87-4.49-.05-1.31-.47-1.51-1.67-.95-.46.21-.86.55-1.34.71-1.04.34-1.65-.31-2.16-1.06-.48-.69-.18-1.24.37-1.71.29-.24.55-.49.84-.72q1.44-1.24.57-3.15c-.31-.69.26-2.11,1.17-2.8.77-.59,1.67-.85,2.59-1.12,2.04-.64,4.16-.73,6.22-1.2,1.1-.27,2.32-.35,2.52-1.92.09-.68.82-.75,1.41-.77,1.54-.08,3.06,0,4.61.25.6-.54-.31-1.47.52-1.94.71-.37,1.4-.3,2.14-.17.77.14,1.59.24,2.36.37.66.12,1.32.25,1.84-.32.65-.71,1.44-.56,2.25-.44,1.72.3,3.4.8,5.05,1.39.79.29,1.55.61,1.84-.64.21-.82.89-.91,1.57-.74.64.16,1.25.4,1.86.65.46.18.97.59,1.44.37,1.58-.69,2.97-.04,4.44.35.85.22,1.74.32,2.6.35,5.19.21,10.35.39,15.52.57.95.04,1.9.05,2.61-.79.27-.32.71-.61,1.14-.5,1.76.5,3.5,0,5.21-.16,7.25-.71,14.41.18,21.58.84,7.47.68,14.88,1.84,22.28,3.06.89.15,1.74.24,2.36-.65.9-1.29,2.1-1.09,3.32-.59,3.11,1.24,6.25,2.42,9.54,3.17,1.99.47,3.97.9,6.04.82.66-.03,1.33-.03,1.92.34,1.01.62,1.49.01,1.75-.85.33-1.07.16-2.15-.06-3.24-1.3-6.45-2.07-12.95-1.97-19.53.1-6.16.77-12.21,2.56-18.12.12-.4.37-.81.04-1.44-.91.11-1.91.26-2.9.36-6.1.63-12.08.37-17.77-2.27-2.47-1.15-4.69-2.65-6.59-4.61-1.16-1.21-2.35-2.39-3.67-3.44-4.55-3.6-9.86-4.22-15.33-3.72-4.8.44-9.5.2-14.08-1.06-4.39-1.21-8.9-1.56-13.36-2.15-7.51-1-15.02-2-22.54-2.84-12.67-1.42-24.36-5.71-35.47-11.76-2.96-1.61-5.55-3.76-8.06-5.99-1.04-.92-1.61-2.25-1.97-3.6-.37-1.32.31-2.25,1.65-2.11,2.41.24,4.81.58,6.46,2.7.23.29.5.56.8.74,6.14,3.32,12.16,6.8,19,8.66,8.24,2.26,16.55,4.11,24.93,5.62,10.55,1.9,21.15,3.34,31.81,4.49,4.49.5,8.96,1.1,13.45,1.57,2.01.21,4.04.3,5.99.01.36-.76-.14-1.1-.4-1.5-2.14-3.34-3.16-7-3.47-10.92-.25-3.22-.07-6.4.42-9.57.23-1.39.1-2.74-.26-4.1-1.6-5.84-2.14-11.76-1.32-17.75.19-1.37-.01-2.59-.45-3.85-1.76-5.02-4.16-9.79-6.4-14.61-3.32-7.22-7.27-14.13-11.05-21.11-2.54-4.69-4.94-9.44-7.1-14.31-.47-1.06-.91-2.15-.91-3.35,0-.35.02-.75.46-.89.31-.1.57.04.8.23.54.47,1.05.97,1.8,1.3-.51-.84-1.04-1.66-1.51-2.5-.21-.4-.3-.86.11-1.2.33-.25.71-.11,1.02.05,1.25.63,2.34,1.47,3.42,2.32,7.21,5.6,14.2,11.45,21.6,16.78,6.57,4.72,13.42,9.02,21.01,12.03,3.4,1.35,6.89,2.22,10.61,2.29,2.69.04,5.39.32,8.09.29,2.42-.03,3.71,1.84,4.95,3.42.68.86,1.02,1.34,2.17,1.17,1.74-.25,3.29.55,4.81,1.22.8.35,1.59.7,2.49.76,3.99.31,7.66,1.7,11.18,3.5,3.31,1.7,6.4,3.76,9.34,6.06.7-.45.46-1.09.44-1.6-.22-7.15-.47-14.27-.72-21.41-.01-.37-.02-.74-.04-1.1-.19-7.14-.21-14.28-.6-21.42-.6-11.52-2.76-22.7-8.19-33.04-2.5-4.76-5.69-8.99-9.7-12.57-1.1-.97-2.29-1.81-3.54-2.57-1.22-.77-2.45-1.59-3.35-2.76-1.56-2.01-1.33-3.99.67-5.52,2.02-1.56,2.69-1.6,4.9-.24,9.24,5.65,15.46,13.82,19.61,23.68,2.81,6.7,4.52,13.66,5.19,20.92.92,10.23,1.59,20.47,1.79,30.76.09,4.51.41,9.05.15,13.55-.3,5.02.02,10.06-.59,15.07-.06.5-.14,1.06.24,1.46,1.11,1.24.87,2.56.27,3.87-.46,1-.35,1.7.48,2.49,1.62,1.56,1.75,3.64,1.51,5.71-.15,1.42-.1,2.57,1.05,3.74,1.22,1.24.92,3.04.46,4.57-.47,1.59-.56,3.04-.05,4.66.86,2.76-.03,5.32-1.41,7.74-.54.95-1.2,1.85-1.6,2.85-.55,1.34-.03,1.94,1.4,1.66,3.65-.71,7.27-1.51,11.02-1.51,2.59,0,5.12.14,7.07,2.21.26.27.63.34.99.4,5.24.89,10.01,3.11,14.81,5.2,3.49,1.51,6.89,3.19,10.34,4.76.56.26,1.1.75,1.95.51.16-1.1.32-2.24.54-3.36.33-1.76,1.22-3.11,2.97-3.75.8-.3,1.32-.8,1.69-1.59.19-.45.51-.94.9-1.21,1.65-1.14,1.5-2.59,1.04-4.26-1.51-5.61-1.74-11.34-1.44-17.12.23-4.66.49-9.31,1.01-13.95.19-1.81.36-3.62.65-5.42.45-2.85.41-5.65-.3-8.45-1.59-6.37-3.32-12.7-5.22-18.98-.29-.96-.8-1.86-1.2-2.8-.7-1.62-.69-1.89.68-3.11.6-.52.42-1,.26-1.56-.45-1.45-.92-2.91-1.37-4.37-.15-.56-.36-1.13-.37-1.69-.01-.75.42-1.04,1.18-.77.54.2.82.81,1.61.91.24-1.15.22-2.25-.27-3.34-.55-1.22-.58-2.29.32-3.46,1.21-1.6.38-3.39-.11-5-.37-1.25-1.15-2.25-.23-3.66.5-.75-.29-1.8-.49-2.71-.56-2.66-.2-3.2-3.96-2.55-1.41.24-2.69.62-3.52,1.9-.27.42-.61.82-1.21.81-.21-2.04.87-4.27,2.51-5.05,1.12-.54,2.31-.91,3.57-.9.97,0,1.57-.32,1.91-1.37.55-1.69.87-1.84,2.57-1.42,1.45.34,2.87.16,4.32,0,2.34-.25,3.56.89,2.77,3.05-1.25,3.42-.29,6.76-.2,10.12.09,2.97.2,5.96.25,8.95.01.58-.01,1.24-.29,1.71-1.36,2.42-1.06,5.11-1.12,7.69-.04,1.91.51,3.86.89,5.77.15.79.45,1.54.42,2.35-.14,4.96,1.09,9.69,2.47,14.37.89,3.01,1.92,5.97,3.09,8.87.36.89.7,1.75,1.44,2.42.87.8.94,1.94.97,3.04.16,4.31-.19,8.6-.65,12.87-.07.72-.25,1.45-.23,2.17.3,8.29-1.31,16.38-2.41,24.53-.1.73-.39,1.51.06,2.14,1.16,1.54,1.1,3.26,1.03,5.02-.01.29.04.57.06.86.8.21,1.06-.44,1.4-.82,2.91-3.3,6.05-6.31,9.76-8.7,2.5-1.6,4.29-3.92,6.04-6.27,10.61-14.31,19.77-29.57,28.89-44.83,5.94-9.91,12.57-19.28,19.71-28.36,9.31-11.87,18.46-23.88,27.61-35.87,14.88-19.47,29.32-39.27,43.74-59.06,5.81-8,11.93-15.65,19.15-22.38,11.77-11,24.53-20.67,38.77-28.26,5.05-2.69,10.35-4.7,15.96-5.9.35-.07.68-.22,1.02-.35h9.19c1.15.46,2.27,1.02,3.45,1.35,2.99.82,4.3,2.99,5.05,5.77.7,2.7.96,5.45,1.1,8.21.14,2.75.37,5.56-.31,8.27-.34,1.36-.63,2.69-.48,4.09.09.87-.11,1.57-.89,2.07-.75.47-.61,1-.09,1.62.86,1,.99,2.25.94,3.5-.04,1.09-.21,2.17-.31,3.26-.09.95-.2,1.89.76,2.56.75.51.41,1.02,0,1.65-1.26,1.95-1.09,2.61.95,3.45,1.76.74,2.6,1.99,2.66,3.87.07,1.94-.35,3.77-1.05,5.55-.57,1.46-.84,2.89-.5,4.46.35,1.51.14,3.05-.32,4.55-.5,1.6-1.41,2.85-3.11,3.39-.76.25-1.66.41-2.12,1.05-1.17,1.62-2.25,3.27-3.97,4.4-.46.29-.31.92.51.96,1.99.1,2.36.41,2.52,2.32.18,2.19.1,4.36-.61,6.49-1.39,4.15-3.01,8.21-4.9,12.16-.21.49-.64.95-.15,1.54.86-.41,1.07-1.24,1.42-1.92,1.16-2.27,2.04-4.67,2.85-7.1.4-1.2.99-2.29,2-3.06.75-.59,1.37-.34,1.6.6.14.66.11,1.32-.1,1.95-.45,1.24-.89,2.49-1.44,3.66-2.77,5.86-5.59,11.72-8.36,17.57-.39.79-.89,1.54-.89,2.45-.01,1.57-.6,2.99-1.15,4.41-1.04,2.66-2.44,5.15-3.89,7.59-3.01,5.05-5.65,10.37-10.47,14.11-1.7,1.3-2.62,3.26-3.84,5.01-2.75,3.97-6.64,6.7-10.77,9.07-3.67,2.11-7.4,4.09-11.08,6.19-4.05,2.3-8.16,4.52-11.81,7.46-.57.46-1.34.82-1.46,1.86,1.05-.09,1.75-.64,2.46-1.09,4.97-3.11,10.47-4.24,16.25-4.34,1.39-.02,2.76.25,4.05.76,3.01,1.17,4.49,3.77,3.89,6.94-.29,1.51-.18,2.92.5,4.26,1.44,2.9,1.17,5.79.1,8.7-.76,2.07-1.84,3.96-3.1,5.76-.5.69-.76,1.34-.31,2.2.73,1.36.68,2.89.3,4.29-1.21,4.5-2.56,8.96-6.07,12.39-1.62,1.57-3.17,3.21-4.86,4.71-2.9,2.55-5.84,5.06-8.87,7.45-1.39,1.09-1.79,3.24-.86,4.69.5.79.45,1.51.11,2.27-.42.94-1.06,1.74-1.75,2.5-2.55,2.92-5.54,5.37-8.59,7.75-.8.63-1.62,1.21-2.19,2.11-1.16,1.87-2.64,3.47-4.17,5.04-3.64,3.71-7.66,6.96-11.75,10.14-1.27,1-2.66,1.74-4.21,2.25-2.89.96-5.45,2.45-7.46,4.79-.31.36-.77.7-.54,1.35.2.04.41.18.6.14,4.57-1.19,9.26-1.95,13.71-3.65.56-.21,1.29-.6,1.59-.05.79,1.45,1.67.67,2.54.26,2.3-1.07,4.76-1.82,6.87-3.32,1.06-.75,1.52-.42,1.61.95.08,1.04.63,1.04,1.32.7,1.37-.67,2.72-1.41,4.1-2.07.99-.48,1.99-.91,3.02-1.24.75-.25,1.41-.14,1.61.89.32,1.51.43,1.59,1.72.9,2.08-1.14,4.27-1.39,6.56-1.19.66.06,1.37.06,1.34,1.04-.04.96.55,1.04,1.3.91,2.04-.31,4.06-.08,6.1.11,2.69.26,5.3.97,8.01,1.04,1.32.03,2.45.6,3.07,1.79.57,1.1,1.44,1.55,2.6,1.69.65.09,1.31.24,1.91.46,2.14.77,2.61,2.14,1.63,4.46q-2.99-2.75-4.92-2.64c.81,1.26.82,2.46-.23,3.56-.46.5-.19,1.09.01,1.65.52,1.45.9,2.92.92,4.47.01,1.87-1.94,4.34-3.81,4.85-.21-.47.05-.88.29-1.2,1.77-2.41.37-4.55-.65-6.64-.36-.75-1.05-1.37-1.3-2.22-.24-.77-.69-1.24-1.54-1.31-3.02-.24-5.82-1.29-8.6-2.44-.71-.3-1.45-.7-2.3-.43-2.56.79-4.91.23-7.07-1.21-.8-.52-1.55-.6-2.46-.26-1.65.63-3.36.91-5.14.89-2.11-.05-4.22-.1-6.19.92-.5.25-1.13.27-1.7.36-1.95.35-3.91.41-5.89.41-.64,0-1.44-.09-1.67.7-.44,1.5-1.6,1.52-2.8,1.47-2.71-.11-5.4.16-8.05.63-7.99,1.37-15.8,3.45-23.49,5.96-1.09.36-1.99.76-2.25,2.06-.18.8-.87,1.32-1.54,1.79-1.01.71-2.11,1.29-3.27,1.76-3.05,1.22-6.21,2.07-9.41,2.8-.99.21-2.02.31-2.85,1-2.52,2.1-5.55,3.19-8.6,4.19-7.42,2.45-15.26,3.11-22.74,5.29-1.85.52-3.77.35-5.66.45-1.62.09-1.77.2-2.19,1.85-.37,1.5-1.05,2.87-1.87,4.16-3.91,6.06-7.8,12.13-12.03,17.98-1.07,1.46-2,2.99-3.74,3.89-1.27.66-1.39,1.39-.86,2.76.32.9.54,1.8.65,2.75.45,3.55.74,7.12.68,10.69-.05,3.26.54,6.1,2.67,8.69,1.44,1.72,2.37,3.82,3.39,5.86.96,1.91.96,1.89,2.52.56.76-.66,1.57-1.29,2.41-1.85,3.51-2.4,7.27-4.32,11.17-5.97,7.12-3,14.28-5.9,21.42-8.85.94-.39,1.87-.79,2.72-1.36,2.09-1.41,4.4-1.39,6.74-.85.59.13,1.14.35,1.31,1.01.37,1.42,1.56,2.02,2.7,2.67,20.85,11.71,41.89,23.06,62.95,34.39,2.24,1.21,4.47,2.42,6.71,3.66.74.4,1.19.87.35,1.66-.69.62-.39,1.32-.01,2,.54.96,1.3,1.72,2.15,2.44,4.24,3.57,8.57,7.02,12.67,10.76,6.79,6.19,13.55,12.4,20.75,18.12,3.4,2.71,6.51,5.85,10.49,7.81.5.25.89.64.67,1.2-.4,1.06.26,1.44,1,1.84,2.99,1.55,5.97,3.06,9.25,3.92.49.14,1.26.19,1.14.76-.42,1.96,1.17,1.91,2.21,2.27,1.99.69,4.02,1.25,6.12,1.62.71.11,1.69.26,1.64,1.14-.09,1.52.92,1.77,1.96,2.14.84.28,1.68.54,2.49.89,1.67.74,3.75.85,4.72,2.81.13.26.6.39.94.52,3.66,1.49,7.07,3.46,10.36,5.64,2.2,1.46,4.5,2.31,7.09,2.49v.87c-1,.51-2.1.52-3.2.57-.54.03-1.29-.09-1.32.75-.04.7.64.65,1.11.76.43.1.86.17,1.25.35.99.45,1.07,1.05.39,1.9-.45.55-1.39.73-1.45,1.54-.08.79.65,1.26.97,1.9.07.14.14.25.18.4.09.27.2.58-.06.81-.24.22-.55.17-.79,0-.65-.48-1.29-.97-1.89-1.49-1.62-1.36-3.44-2.61-5.34-3.3-2.07-.75-3.8-1.8-5.35-3.22-1.79-1.62-3.44-3.36-5.14-5.07-.6-.6-1.13-1.12-1.53.13-.32,1-1.04.94-1.74.52-.63-.36-1.19-.85-1.71-1.34-1.14-1.04-2.09-2.25-3-3.47-.44-.59-.91-1.01-1.56-.26-.87,1-1.84.65-2.76.14-1.7-.92-3-2.31-4.24-3.75-.65-.76-1.19-1.65-2.17-2.35-.67,1.5-1.84,1.79-3.09,1.11-3.51-1.9-7.12-3.72-8.92-7.65-.19-.37-.46-.74-.76-1.06-.4-.46-.81-.86-1.39-.13-.74.92-1.5.6-2.26-.01-1.52-1.25-3.07-2.46-4.6-3.71-6.32-5.17-12.37-10.66-18.3-16.28-5.44-5.16-11.05-10.16-16.07-15.76-1-1.14-2.2-2.05-3.5-2.84.71,1.69,1.49,3.3,2.55,4.77.51.7.95,1.46,1.39,2.22.18.31.3.71-.1.95-.28.16-.59.04-.82-.15-.45-.37-.91-.72-1.3-1.15-1.76-1.85-3.55-3.69-5.22-5.6-.84-.94-1.69-1.52-3.01-1.4-1.77.19-3.45-.39-5.11-.97-.67-.25-1.36-.61-2.06-.66-1.96-.18-3.65-1-5.27-1.99-3.31-2-6.34-4.41-9.19-7.04-1.45-1.35-3.02-2.5-4.74-3.49-6.34-3.64-12.4-7.69-18.03-12.33-5.34-4.41-10.74-8.76-16.23-12.95-.81-.64-1.59-1.39-2.61-.29-.36.39-.92.4-1.44.32-.54-.1-1-.05-1.4.39-1.6,1.74-3.72,2.49-5.89,3.17-.99.31-1.89.76-2.75,1.31-10.2,6.36-20.41,12.73-30.62,19.1-4.97,3.09-10.29,5.11-16.18,5.47-1.2.08-2.5.01-3.75.76.66.5,1.24.57,1.8.71,4.64,1,9.34,1.56,14.03,2.14,6.79.82,13.02,3.11,18.61,7.06,1.14.8,2.11,1.81,3.27,2.56,3.37,2.17,6.55,4.62,9.65,7.16,1.49,1.21,3.02,2.17,4.94,2.66,2.3.59,4.14,1.97,4.57,4.49.25,1.49,1.05,2.26,2.31,2.89,6.82,3.32,13.47,6.96,20.52,9.8,5.57,2.25,10.65,5.45,14.31,10.45.26.34.57.66.94.91,3.45,2.44,6.07,5.64,8.37,9.14,3.82,5.81,6.75,12.08,9.27,18.53.45,1.15,1.16,2.19,1.71,3.26,1.1,2.17,2.31,4.27,3.61,6.35.85,1.36.86,3.07.95,4.67.06,1.21.43,2.25,1.05,3.27,3.12,5.05,5.35,10.51,7.16,16.15.52,1.6,1.09,3.15,1.79,4.69,1.66,3.67,2.45,7.51,1.36,11.49-.51,1.85-1,3.56.09,5.39.37.65.37,1.56.42,2.35.1,1.75.06,3.49-.2,5.24-.18,1.2-.39,2.41.27,3.62,1.89,3.49,2.62,7.2,1.6,11.12-.36,1.37-.39,2.7.09,4.07.49,1.47.61,3,.24,4.54-.19.8-.11,1.57.15,2.36,1.9,5.96,2.36,12.14,2.64,18.32.06,1.54.42,2.81,1.31,4.05,2.15,3.04,4.2,6.14,6.27,9.22.49.73.9,1.5,1.32,2.27.17.36.47.85-.01,1.16-.44.26-.84-.1-1.14-.41-1.02-1.05-2.05-2.07-3.01-3.17-2.07-2.32-4.11-4.69-6.1-6.94-.54.07-.67.32-.84.57-2.54,4.27-6.14,6.96-11.22,7.3-1.01.08-1.25.56-1.02,1.46.12.56.2,1.14.3,1.71.35,1.95.74,3.87,1.02,5.82.1.77.42,1.69-.41,2.42-.91-.77-1.15-1.79-1.46-2.74-.82-2.49-1.59-5-2.39-7.5-.27-.94-.66-1.7-1.74-2.05-2.44-.77-4.26-2.44-5.87-4.37-1.41-1.69-2.7-3.45-3.75-5.37-.5-.89-.97-1.5-2.2-1.31-1.24.2-2.64-.13-3.47-1-2.12-2.19-4.85-2.04-7.49-2.27-1.82-.18-3.6-.53-5.26-1.32-.8-.37-1.65-.77-2.06-1.55-.7-1.37-1.67-1.46-3.07-1.25-2.41.39-5.05.34-6.79-1.52-1.69-1.82-3.37-1.92-5.46-1.35-.49.12-.99.21-1.5.26-2.26.19-4.54.37-6.67-.64-1.9-.91-3.79-1.85-5.57-3.01-4.76-3.12-9.22-6.64-13.66-10.2-.34-.27-.7-.56-.92-.92-1.01-1.6-2.56-2.54-4.11-3.51-2.36-1.47-5.06-2.26-7.42-3.72-4.8-2.95-9.31-6.35-12.92-10.68-2.67-3.2-5.66-6.07-8.49-9.11-13.77-14.75-20.83-32.44-23.01-52.28-.15-1.3-.55-2.15-1.74-2.75-1.6-.82-2.65-2.27-2.62-4.04.04-2.65-1.16-4.74-2.41-6.87-3.51-5.94-6.29-12.17-7.95-18.88-.96-3.92-1.3-7.9-1.01-11.92.07-.95,1-2.26-.16-2.75-.85-.36-1.4,1.04-1.97,1.75-6.57,8-13.32,15.86-20.67,23.15-3.12,3.09-5.85,6.51-8.45,10.04-2.59,3.51-4.22,7.66-7.2,10.92-.1.1-.15.24-.22.37-.58.95-.61,1.86.02,2.85.79,1.23,1.44,2.54,2.11,3.84,3.41,6.6,7.19,13.02,10.31,19.77,3.24,6.94,6.32,13.93,9.49,20.91,1.11,2.45,2.09,4.99,3.4,7.34.99,1.74,1.71,3.5,2.19,5.42.76,3,.77,6.07,1.1,9.11.11.99.42,1.8,1.06,2.56,1.62,1.96,3.22,3.96,4.79,5.97.37.47,1.04.87.6,1.99-2.61-1.97-5.79-2.81-8.27-5.6.11,1.49.68,2.16,1.19,2.85,4.44,6.06,8.87,12.12,13.32,18.17,4.12,5.65,8.21,11.33,12.75,16.67,1.32,1.55,2.49,3.25,3.44,5.06.9,1.67.72,2.11-.9,3.1-1.06.65-1.1,1,.03,1.64,3.81,2.12,5.85,5.57,7.25,9.51.2.55.43,1.11.53,1.67.2,1.19.84,1.87,1.95,2.4,1.8.85,3.1,2.39,4.37,3.89.34.39.71.84.64,1.35-.17,1.27.65,1.6,1.59,1.97,1.97.77,3.76,1.92,5.51,3.11.46.31,1.04.59.96,1.24-.41.81-1.56,0-1.81,1,.3.85,1.13,1.1,1.81,1.49,2.35,1.3,4.72,2.6,7.07,3.9.64.36,1.37.64,1.64,1.39.39,1.15,1.27,1.24,2.26,1.27,1.39.06,2.76-.14,4.11.43,2.09.85,3.99.4,5.71-.99.34-.27.66-.56,1.04-.8.23-.16.56-.27.76.03.11.16.18.42.11.6-.41,1.37-1.16,2.5-2.45,3.22-1.1.6-2.27.95-3.52,1.12-.34.06-.77.03-.94.42-.19.51.25.8.56,1.08.52.46,1.14.64,1.82.41.41-.13.83-.29,1.24-.4.31-.08.63-.03.71.31.04.17-.05.45-.18.59-.79.89-1.84,1.4-2.89,1.91h-3.94c-.9-.61-1.82-1.16-2.56-2.01-.7-.84-1.77-1.69-2.84-1.17-1.4.67-2.22-.01-3.16-.68-6.25-4.39-11.71-9.62-16.78-15.28-1.07-1.19-2.21-2.36-3.05-3.71-1.45-2.31-3.25-4.31-5.26-6.11-1.32-1.17-2.35-2.5-3-4.21-.62-1.62-1.51-3.15-2.37-4.67-4.54-8.07-9.84-15.67-15.02-23.34-2.29-3.39-5.07-6.41-7.39-9.76-4.04-5.89-7.96-11.85-11.06-18.31-.59-1.22-1.1-1.26-2.14-.25-.44.44-.62,1.17-1.39,1.25-.5-.21-.54-.68-.61-1.1-.81-4.15-2.08-8.19-3.31-12.23-5.59-18.26-11.78-36.32-18.03-54.36-1.11-3.24-2.11-6.51-3.61-9.62-1.07-2.27-.74-4.57.95-6.54.66-.79,1.24-1.61,1.7-2.52,5.64-11.01,12.53-21.2,20.06-30.98,1.06-1.4,2.32-2.65,3.22-4.14,1.85-3.12,4.26-5.7,6.92-8.1,2.66-2.4,5.36-4.74,8.21-6.9.77-.59,1.44-1.2,1.44-2.3-.03-2.1-.48-4.06-1.61-5.82-.61-.95-1.42-1.61-2.54-1.96-1.16-.36-2.06-.26-2.85.85-1.39,1.96-2.91,3.82-4.36,5.75-1.09,1.45-2.11,2.96-3.25,4.4-1.25,1.55-1.96,1.43-2.69-.4-.79-1.96-1.7-3.87-2.99-5.56-2.47-3.24-5.67-4.91-9.84-4.6-1.27.1-2.21.52-2.89,1.65-1.31,2.2-3.06,4.06-4.86,5.87-5.27,5.29-11.15,9.84-17.08,14.33-1.44,1.1-2.9,2.11-3.91,3.74-.91,1.44-2.3,1.94-3.57,1.26-1.99-1.05-3.34-.25-4.64,1.1-3.6,3.71-6.2,8.1-8.44,12.7-1.21,2.49-2.36,5.01-3.75,7.41-4.22,7.25-8.8,14.27-13.36,21.3-1.24,1.9-2.51,3.76-3.76,5.65-.56.82-1.05,1.25-2.09.42-1.1-.86-1.91-.64-2.77.49-.34.46-.6.99-.87,1.5-1.34,2.59-2.56,5.24-3.67,7.94-2.14,5.2-3.66,10.61-5.47,15.91-1.02,2.94-.82,5.56.59,8.2.55,1.02,1.21,1.99,1.77,3.01.75,1.32.4,2.14-1.05,2.66-1.4.5-2.75.07-4.07-.3-2.21-.6-2.25-.69-2.19-2.95.04-1.14-.15-2.2-1.27-2.81q-1.79-.97-1.09-2.94c.26-.76.52-1.53.66-2.31.19-1,.41-2.12-.26-2.96-.89-1.07-.55-1.96.02-2.97,2.05-3.7,4.09-7.4,6.1-11.12,2.25-4.16,4.47-8.35,6.7-12.53.29-.52.92-1.26-.09-1.61-1.47-.49-1.25-1.3-.67-2.32.5-.89.95-1.8,1.45-2.7,5.1-9.02,11.04-17.5,17.3-25.76.44-.57.91-1.15,1.45-1.64,5.5-5,9.84-10.91,13.51-17.35.4-.7.82-1.42.87-2.22.1-1.87,1.1-3.29,2.24-4.64,4.82-5.79,10.32-10.9,15.81-16.03,2.44-2.3,4.96-4.5,7.44-6.76.51-.47.97-.99.1-1.56-2.51-1.67-4.07-4.14-5.52-6.67-.42-.71-.9-1.3-1.65-1.69-1.55-.79-2.61-2.09-3.51-3.51-1.66-2.61-2.86-5.41-3.66-8.39-.42-1.5-1.25-2.61-2.55-3.4-1.32-.79-1.61-.67-1.75.81-.39,4.04-2.36,7.29-5.11,10.15-1,1.02-2.12,1.52-3.52.75-.25-.14-.54-.25-1.01.12.23,4.57-.56,9.27-.45,14.01.01.44.07.87.15,1.3,1,5.15-.37,9.7-3.64,13.67-.86,1.06-1.39,2.16-1.74,3.46-1.65,6.15-3.86,12.08-7.34,17.47-1.59,2.46-3.44,4.62-5.96,6.27-3.8,2.47-5.55,6.09-4.86,10.69.18,1.14-.13,2.16-.53,3.19-.64,1.57-1.55,2.97-2.59,4.3-3.85,4.9-8.55,8.94-13.45,12.76-.27.23-.6.5-.92.56-2.56.46-3.54,2.39-4.12,4.57-.76,2.75-2.24,5.04-4.19,7.07-1.97,2.05-4.15,3.86-6.44,5.57-1.42,1.06-3.36,1.54-4.1,3.45-.05.14-.35.21-.56.26-1.96.49-3.52,1.71-5.15,2.81-.42.27-.84.57-1.26.86-.24.17-.51.32-.81.19-.41-.2-.37-.57-.31-.94.11-.72.24-1.44.4-2.15.9-4.14,2.15-8.17,3.5-12.18,2.37-7.05,5.01-14,8.05-20.8.32-.72.75-1.45.7-2.67-1.94,2.37-3.17,4.79-4.81,6.92-2.72,3.55-4.81,7.45-6.61,11.53-2.46,5.61-4.65,11.34-6.35,17.22-.95,3.3-3.05,5.4-6.17,6.59-1.16.44-2.34.79-3.57.96-.74.1-1.46.26-1.99.84-2.86,3.14-6.69,4.57-10.51,6.04-.69.26-1.37.49-1.94.96-2.27,1.92-4.92,3.11-7.66,4.16-4.22,1.62-8.61,2.72-13.02,3.71-1.42.32-2.8.74-4.15,1.34-4.72,2.1-9.66,3.09-14.88,2.65-1.81-.16-3.57-.79-5.42-.58-2.67.32-4.46-.97-5.67-3.22-1.11-2.09-1.69-4.34-1.91-6.69-.1-.94-.41-1.54-1.39-1.95-2.5-1.06-3.24-3.65-1.86-5.97.94-1.56,1.95-3.07,2.87-4.65.27-.46.72-.91.51-1.55-.55-.07-.88.27-1.16.58-4.62,4.84-9.97,8.99-14.15,14.25-1.54,1.96-3.39,3.35-5.59,4.41-1.77.86-3.7,1.37-5.36,2.46-3.29,2.16-6.95,3.31-10.79,4.04-1.17.23-2.3.2-3.32-.59-.92-.7-2.07-.71-3.16-.54-1.51.25-3.01.66-4.29,1.52-2.46,1.66-5.16,2.72-7.94,3.61-1.52.48-3.11.84-4.59,1.45-3.74,1.56-7.35,1.19-10.66-.94-2.64-1.67-4.95-1.39-7.26.34-1.2.89-2.47,1.51-3.89,1.91-1.76.5-3.5,1.04-5.25,1.55-5.66,1.66-11.46,1.91-17.3,1.84-.65,0-1.31-.14-1.94-.26-2.16-.42-4.19-1.26-6.2-2.15-.81-.37-1.6-.5-2.52-.32-6.64,1.25-13.06.11-19.36-1.96-1.41-.48-2.69-.92-4.19-.18-.84.42-1.85.21-2.76-.14-1.1-.45-2.09-1.06-2.89-1.95-.76-.84-1.64-1.32-2.79-1.5-2.21-.32-4.14-1.34-5.91-2.69-3.07-2.32-5.41-5.29-7.52-8.46-.36-.54-.65-1.3-1.16-1.54-2.14-.95-3.07-2.8-3.91-4.76v-.89h0Z"/>
  </g>
</svg>