<?xml version="1.0" encoding="UTF-8"?>
<svg id="Layer_2" data-name="Layer 2" xmlns="http://www.w3.org/2000/svg" viewBox="0 0 654.5 487.02">
  <defs>
    <style>
      .cls-1 {
        fill:#808080
      }
    </style>
  </defs>
  <g id="Layer_1-2" data-name="Layer 1">
    <path class="cls-1" d="m19.23,140.12c13.05-10.61,29.58-17.93,46.1-21.07,23.37-4.45,49.02-5.86,72.88-6.48,18.18-.49,36.63,2.7,54.73,3.95,23.45,1.67,53.51,6.03,73.34,19.73,6.24,4.31,37.88,31.11,40.61,11.44.73-5.53.73-16.64,9.67-14.17.07-3.35.47-5.99,1.24-7.98-1.8-2.59-3.89-5.13-6.12-7.89l-7.06-9.06c-4.56-5.78-8.8-11.72-12.51-18.07-6.38-10.95-12.35-22.46-15.84-34.68-3.67-12.77-5.26-26.05-7.05-39.17-.64-4.27-3.43-7.93-3.76-12.14-.35-4.3,3.03-6.43,5.7-2.29,2.63,3.96,1.58,9.13,1.58,13.62,0,5.32.44,10.65,1.13,15.92,2.82,22.39,10.99,44.07,23.96,62.58,5.54,7.8,10.66,15.27,17.47,22.02,1.51,1.47,3,3.01,4.53,4.56v-2.29c2.87,0,5.24.13,7.4.46,2.18-.33,4.62-.46,7.49-.46,0,0,0,.92,0,2.29,1.5-1.55,3.03-3.09,4.48-4.56,6.85-6.76,11.92-14.22,17.46-22.02,13-18.51,21.15-40.19,24.04-62.58.66-5.27,1.08-10.6,1.08-15.92,0-4.49-1.08-9.66,1.58-13.62,2.8-4.14,6.07-2.01,5.65,2.29-.33,4.22-3.03,7.87-3.63,12.14-1.81,13.12-3.41,26.4-7.14,39.17-3.52,12.21-9.46,23.72-15.82,34.68-3.74,6.35-7.99,12.29-12.49,18.07l-7.16,9.06c-2.11,2.76-4.18,5.3-6.03,7.89.78,1.99,1.11,4.63,1.22,7.98,8.95-2.47,8.95,8.64,9.7,14.17,2.7,19.68,34.38-7.13,40.58-11.44,19.85-13.7,49.92-18.06,73.39-19.73,18.12-1.25,36.47-4.45,54.68-3.95,23.88.63,49.5,2.03,72.93,6.48,16.47,3.14,32.98,10.46,46.05,21.07,17.2,14.01,25.41,43.93,13.82,63.22-17.98,29.87-49.29,8.01-75.71,14.45-30.61,7.4-14.84,42.45-30.02,59.69-15.31,17.29-50.07-.7-61.1,20.31-3.05,5.87-2.34,14.97-2.09,21.36.27,7.49,1.62,14.6-1.38,21.79-7.7,18.01-39.74,1.68-43.91,25.3-1.36,7.65,1.67,15.58-5.37,21.17-5.4,4.21-13.38,2.93-18.85,7.1-7.97,6.1-4.2,15.98-1.76,23.94,3.26,9.97,6.29,19.81,6.81,30.32.47,9.91,4.95,25.94-2.7,34.11-9.25,9.89-23.09.34-25.94-10.19-4.88-17.46,8.03-44.06-6.99-58.04-4.39-4.01-6.32-1.91-11.33-1.35-9.55,1.04-11.46-4.92-13.52-13.45-4.87-20.4-16.8-39.77-18.56-60.7.73,20.53,8.52,45.9-.68,65.52-2.38,5.09-3.05,12.02-11.78,9.27-8.31-2.62-7.82-14.33-9.22-21.12-3.71-17.4,2.34-35.83,2.87-53.25-1.63,16.36-8.69,31.43-14.16,46.75-3.29,9.33-4.18,28.49-17.89,26.99-5-.56-6.96-2.66-11.34,1.35-15.07,13.99-2.11,40.59-6.92,58.04-2.91,10.53-16.78,20.08-26.06,10.19-7.58-8.17-3.19-24.2-2.6-34.11.54-10.51,3.45-20.34,6.66-30.32,2.53-7.96,6.25-17.84-1.69-23.94-5.38-4.17-13.42-2.89-18.74-7.1-7.23-5.59-4.06-13.53-5.44-21.17-4.13-23.62-36.24-7.29-43.89-25.3-3.05-7.19-1.76-14.3-1.46-21.79.28-6.39.96-15.49-2.09-21.36-10.96-21.01-45.8-3.02-61.07-20.31-15.19-17.24.56-52.29-30.02-59.69-26.38-6.44-57.75,15.42-75.72-14.45-11.66-19.3-3.38-49.22,13.8-63.22h0Z"/>
  </g>
</svg>