<?xml version="1.0" encoding="UTF-8"?>
<svg id="Layer_2" data-name="Layer 2" xmlns="http://www.w3.org/2000/svg" viewBox="0 0 654.5 493.61">
  <defs>
    <style>
      .cls-1 {
        fill:#808080
      }
    </style>
  </defs>
  <g id="Layer_1-2" data-name="Layer 1">
    <path class="cls-1" d="m39.99,115.15C33.32,85.93,1.07,67.21.02,35.54-.67,16.25,17.43,4.25,34.88,1c11.35-2.15,23.12-.16,34.48-.16,19.87.02,41.31,2.9,59.11,12.28,14.72,7.78,28.1,17.96,39.63,29.88,20.78,21.36,36.85,48.11,54.3,72.26,24.08,33.38,47,68.29,75.23,98.31,3.69,3.86,7.45,11.12,12.87,7.03,5.93-4.48,2.35-19.19,0-24.54-6.27-13.38-19.41-24.55-27.93-36.57-.22-.34-9.11-12.9-9.11-12.9-7.01-13.98-9.08-28.58-13.67-43.24-.9-3.14-9.52-18.28.9-13.83,2.78,1.27,3.74,5.87,4.64,8.47,2.47,7.59,1,16.1,3.03,23.84,2.07,8.27,5.88,15.94,10.35,23.06,8.89,14.43,20.66,26.69,31.13,39.97.39.54.78.99,1,1.36,2,3.08,3.91,5.26,6.27,6.68.22-5.36,4.64-9.73,10.18-9.73s9.84,4.37,10.13,9.73c2.34-1.42,4.2-3.6,6.25-6.68.24-.36.56-.82.95-1.36,10.52-13.28,22.24-25.54,31.18-39.97,4.42-7.12,8.3-14.8,10.35-23.06,1.98-7.74.51-16.25,3.03-23.84.95-2.6,1.86-7.2,4.66-8.47,10.4-4.44,1.74,10.69.83,13.83-4.47,14.66-6.61,29.26-13.6,43.24,0,0-8.84,12.56-9.23,12.9-8.4,12.02-21.56,23.19-27.88,36.57-2.42,5.35-5.93,20.06,0,24.54,5.54,4.09,9.28-3.17,12.94-7.03,28.25-30.02,51.2-64.93,75.27-98.31,17.41-24.15,33.48-50.89,54.23-72.26,11.52-11.93,24.9-22.11,39.62-29.88,17.75-9.38,39.19-12.26,59.06-12.28,11.4,0,23.12-1.99,34.43.16,17.55,3.25,35.69,15.25,34.96,34.54-1.05,31.68-33.3,50.39-40.02,79.62-4.2,18.58,1.64,37.93,2.37,56.6.27,9.88,3.25,20.29,1.56,30.19-1.68,9.88-10.43,16.91-14.68,25.98-9.96,21.49-53.4,29.24-74.71,29.24h-31.96c3.08,0,10.18,6.67,12.65,8.33,7.77,5.17,15.68,10.26,23.39,15.48,11.43,7.68,20.7,17.81,29.61,28.08,8.16,9.25,19.14,17.67,25.18,28.43,13.11,23.68-5.25,66.36-18.58,86.22-15.94,23.6-42.02,31.63-60.45,52.15-16.99,19.11-52.44,19.5-75.76,16.16-22.81-3.33-30.62-20.79-45.42-35.97-17.46-17.93-19.19-41.41-19.75-65.18-.34-10.96-.78-23.79-3.13-35.31-2.29-11.59-7.44-22.17-10.3-33.62-1.78-7.46-.51-19.08-10.08-21.06.34.07-1.17,40.35-1.34,44.27-.44,11.89-.05,32.35-8.55,42.03v.09c0,3.94-3.25,7.18-7.23,7.18s-7.23-3.23-7.28-7.18l-.12-.09c-8.33-9.68-8.01-30.14-8.5-42.03-.12-3.92-1.56-44.19-1.34-44.27-9.52,1.98-8.23,13.6-10.09,21.06-2.81,11.45-8.01,22.04-10.35,33.62-2.25,11.51-2.81,24.34-3.08,35.31-.44,23.77-2.3,47.24-19.7,65.18-14.82,15.17-22.56,32.63-45.51,35.97-23.22,3.33-58.65,2.94-75.71-16.16-18.43-20.52-44.46-28.55-60.41-52.15-13.38-19.86-31.84-62.54-18.63-86.22,6.1-10.77,17.11-19.18,25.17-28.43,8.96-10.27,18.19-20.4,29.57-28.08,7.84-5.23,15.72-10.32,23.49-15.48,2.54-1.66,9.52-8.33,12.67-8.33h-32.03c-21.27,0-64.63-7.75-74.67-29.24-4.2-9.07-13.04-16.1-14.65-25.98-1.68-9.9,1.17-20.31,1.61-30.19.61-18.67,6.49-38.02,2.25-56.6h0Z"/>
  </g>
</svg>