<?xml version="1.0" encoding="UTF-8"?>
<svg id="Layer_2" data-name="Layer 2" xmlns="http://www.w3.org/2000/svg" viewBox="0 0 654.5 349.85">
  <defs>
    <style>
      .cls-1 {
        fill:#808080
      }
    </style>
  </defs>
  <g id="Layer_1-2" data-name="Layer 1">
    <path class="cls-1" d="m654.22,332.14c-2.39-.82-12.05,1.18-16.74-.58-3.77-1.44-16.99-8.35-32.87-16.54-15.89-8.17-59-23.38-71.2-37.33-12.22-13.97-70.3-76.96-89.99-93.52-4.27-11.79-6.87-42.08-9.65-64.83,31.65,6.19,80.75,5.61,85.1-.72,4.8-6.96-18.15-18.1-40.03-23.26,23.88-4.57,61.14,6.18,63.44-1.89,3.3-11.62-14.88-22.49-36.16-26.27,12.21-4.63,23.72,8.95,25.36,3.3,1.96-6.8-16.92-16.23-41.25-21.67-17.65-3.94-40.37-8.96-68.41-9.16-3.18-18.81-6.54-34.38-9.74-37.86-2.68-2.91-13.99-2.49-15.43,2.52,0,.02-.06.1-.07.14-.11-.14-.21-.32-.31-.43-2.68-2.91-8.3-6.58-14.94,2.15-1.79,2.37-9.58,21.39-17.75,39.04-9.27,1.59-16.67,3.16-22,4.43-.16-16.41-.04-29.98-1.32-31.84-2.56-3.75-15.3-2.25-15.3-2.25,0,0-1.59,2.35-4.05,6.08-.29-1.56-.59-2.68-.87-3.11-2.43-3.88-13.15-3.85-15.97-1.91-1.68,1.16-8.64,10.55-15.52,21.08-5.78.6-12.39,1.26-20.23,2-10.7.99-18.7,6.21-24.33,11.72-.15-.12-.29-.21-.43-.3-5.85-10.06-14.99-24.7-20.06-27.45-6.1-3.29-11.19,5.9-12.43,10.21-1.6,5.52-4.73,15.75-8.86,28.46-7.61,5.54-14.08,14.5-17.91,22.77-3.72-.67-19.5-3.86-40.04-13-23.55-10.49-40.76-21.23-48.9-27.1-8.13-5.84-20.3-12.24-21.05-10.69,0,0,12.34,5.04,20.89,13,5.66,5.27,32.63,18.89,52.33,28.47,7.92,3.85,29.03,11.27,34.44,12.97-.11.33-1.07,6.89-1.16,7.2-5.46,1.83-25.13,3.7-52.07-4.97-12.97-4.17-36.26-14.99-45.73-20.08-9.47-5.06-29.42-6.25-28.28-5.52.73.48,10.15.15,23.17,5.04,8.13,3.06,34.71,17.34,48.21,21.98,12.78,4.41,37.34,10.27,54.47,7.42.13,1.43.49,2.63,1.17,3.47.2.27.43.49.66.76-5.8,3.37-20.5,11.49-34.61,15.82-23.71,7.29-51.19,18.05-72.87,24.96-.99-.27-7.3,1.27-11.64,2.17-6.83,1.43-11.63,5.34-11.63,5.34,0,0,10.1-.4,12.72-.95,1.61-.35,14.46-4.81,17.22-6.51,22.38-5.27,44.15-14.76,71.12-22.45,14.13-4.03,26.17-9.07,33.12-12.23-6.17,17.09-12.5,34.51-19.21,49.06-6.85,14.88-11.35,19.1-11.35,19.1,0,0-21.64,31.67-58.64,58.01-24.51,17.46-22.74,20.43-40.34,28.14-14.01,6.17-26.27,8.4-45.68,8.08-7.15-.12-10.23-1.19-10.62,4.93-.08,1.17,5.51-.88,10.46-.73,9.94.31,27.05-.62,43.99-6.42,36.07-19.39,49.19-33.63,73.25-54.7,9.09-7.96,26.17-27.41,26.17-27.41,0,0,12.87-7.07,14.47-13.38,4.13-11.33,14.75-40.82,23.36-64.28,2.65,1.01,5.52,1.51,8.49,1.38-5.55,21.88-11.96,45.01-17.81,63.52-8.87,28.08-18.15,42.99-18.15,42.99,0,0-29.7,32.96-58.61,58.25-24.31,21.22-58.95,47.21-75.49,57.42-14.73,9.08-25.4,7.75-26.24,9.12-.73,1.15,2.73,5.25,4.94,4.73,4.48-1.05,12.16-4.25,20.25-8.58,33.33-17.83,104.14-82.05,123.06-99.37,10.16-9.33,17.06-18.97,17.06-18.97,0,0,8.35-7.87,11.75-20.46,2.71-10.01,16.89-61.11,24.79-89.61,5.25-1.62,10.51-5.29,15.14-11.63,1.9-.96,4.23-2.77,6.6-5.06.25,2.88.73,5.88,1.45,9.08,4.8,2.04,6.53,7.88,14.88,13.08.22.75.49,1.5.83,2.26,3.28,7.44,12.33,17.53,16.96,18.52,4.65.96,12.83-5.21,12.83-5.21,0,0,9.85,6.24,13.72,2.79,3.86-3.44,7.06-10.06,8.98-15.82,1.27-3.85,2.52-9.74,3.4-14.55,5.34-4.79,13.05-11.94,25.36-18.43,4.55,14.88,10.35,35.22,15.17,54.19,6.35,25.09,10.8,51.13,15.25,59.21,2,3.66,5.46,7.87,10.12,12.94,10.96,18.83,26.69,45.06,50.94,86.85,9.87,17.01,41.76,39.07,54.13,49.94,5.2,1.96,8.3-.84,7.93-2.11-.77-2.77-28.02-12.96-55.21-45.87-11.66-19.27-26.2-46.39-40.88-71.26,11.15,11.42,25.05,25.97,41.01,45.11,14.11,16.94,38.35,29.89,56.05,38.78,3.95,3.43,8.15,3.99,10.63.05,2.33-3.71-5.21-2.34-8.16-4.63-15.61-5.72-35.26-14.58-52.06-33.48-20.91-22.18-38.6-46.16-61.73-69.08-2.5-3.88-4.98-7.61-7.42-11.1,0,0-10.89-65.87-16.86-96.72-.51-2.66-.92-5.63-1.28-8.71,16.25,5.57,39.03,14.8,65.06,22.59,2.63,13.51,5.31,26.9,7.96,39.09,4.1,18.99,7.15,46.21,10.26,49.18,13.29,8.45,60.74,72.34,70.16,84.26,9.41,11.89,29.34,25.52,49.78,35.51,28.72,14.27,24.55,13.4,36.58,18.36,3.86,1.6,12.05-1.51,9.35-2.49-3.27-1.2-21.38-9.43-42.9-21.12-15.71-8.52-38.31-21.22-50.52-35.18-12.21-13.96-52.4-69.65-67.66-87-5.23-14.41-11.48-56.23-15.25-78.35,3.5.98,7.03,1.93,10.63,2.85.13.03.29.06.43.1,1.83,11.13,3.29,21.8,4.14,31.14,1.86,20.64,4.04,35.9,7.14,38.86,13.28,8.47,82.21,82.24,91.63,94.15,9.43,11.91,50.94,26.24,72.35,37.56,27.7,14.61,37.37,20.67,45.93,19.14,2.22-.38,7.17-6.12,5.64-6.63M389.05,14.9c-2.87,3.63-6.3,7.85-10.13,12.48,3.88-7.3,7.55-12.43,10.13-12.48m-58.02,13.63c3.42,1.63,2.35,12.74,1.44,23.48-.46.13-.75.21-.75.21-2.89-1.35-5.26-2.63-7.21-3.85-.4-3.06-.77-5.98-1.12-8.75,3.29-5.32,6.13-9.51,7.63-11.09m-18.08-1.78c1.02.55,1.78,1.8,2.37,3.49-.99,1.5-1.98,3.05-3.02,4.69-2.27.29-5.02.65-8.38,1.04,3.26-4.55,6.45-8.05,9.03-9.23m-89.21,29.77c.49-.46,2.4.29,5.01,1.68.32.65.6,1.29.88,1.93-2.03-.95-4.31-1.79-6.78-2.35.32-.58.63-1.03.89-1.26m122.7,79.82c.45,2.65.88,5.17,1.28,7.63-4.85-18.72-9.99-37.46-13.59-47.63-1.07-3.03-2.04-6.4-2.93-9.96,1.65.4,3.47.94,5.39,1.52,2.96,12.92,6.82,30.82,9.85,48.44m30.99-93.25c4.97-6.62,10.01-13.24,14.31-18.78.93,4.39,2.04,10.04,3.29,16.62-6.3.65-12.15,1.4-17.6,2.15m27.87-2.92c-1.71-10.35-3.46-19.57-5.18-26.2,1.68-1.93,2.86-3.15,3.32-3.32,1.01,2.6,4.04,13.72,7.79,29.14-1.93.08-3.96.25-5.93.38"/>
  </g>
</svg>