<?xml version="1.0" encoding="UTF-8"?>
<svg id="Layer_2" data-name="Layer 2" xmlns="http://www.w3.org/2000/svg" viewBox="0 0 465.92 654.5">
  <defs>
    <style>
      .cls-1 {
        fill:#808080
      }
    </style>
  </defs>
  <g id="Layer_1-2" data-name="Layer 1">
    <path class="cls-1" d="m4.53,3.42c5.56,1.4,12.29,5.2,16.02,7.81-1.02.32-3.73.76,14.68,7.91-3.39,1.32,2.71.57,20.37,16.82-3.01,1.13-.51.38,19.71,15.82-4.99.43,5.09,3.41,20.11,17.12-2.05.06-3.03-.6,17.95,14.86-1.97.63-2.5.74,21.27,15.48-2.34.58-7.02-.17,18.52,12.45-3.51,1.12,1.77,2.06,13.75,9.01-7.75,14.64-28,56.28-30.06,71.92-2.23,17,7,26.87,25.11,42.82l-2.31,12.32c-.26,4.36-.26,6.98,1.76,11.6-9,5.51-7.52,11.06-10.74,21.8-7,.42-45.55-16.6-50.01-10.66-4.47,5.94-13.29,14.67-12.45,22.64,2.91,27.69,2.63,59.53,1.75,67.94-14.28,7.04-36.6-6.27-46.87-3.04-5.66-4.99-6.37-6.99-14.26-6.2-4.48.44-5.95-1.58-8.61,3.01-4.01,6.89-4.82,5.45-2.15,4.37,8.4-3.53,17.29-1.48,19.62,1.7,2.35,3.17-1.87,1.47-4.52,2.85-3.4,1.82.27.95,6.9,3.21,5.42,1.85,4.21-2.29,8.16-.82,3.97,1.47,10.78,3.97,16.27,3.34-1.79,1.92-1.08,2.43,4.48,3.67,5.59,1.22,14.54,3.58,26.84-5.19.87,3.93,8.15,5.44,7.96-4.74-.5-26.71-1.7-62.81-4.22-72.66-1.02-4.1,3.15-9.8,4.71-10.11,4.27,1.92,24.55,9.88,43.94,20.51,0,0-3.62,24.63-3.62,38.98s1.32,43.49,2.17,53.94c-39.35,21.91-26.9,18.87-28.88,25.12-7.93,25.11-3.87,50.76-19.48,95.64-3.92,6.99-24.76,10.62-27.62,13.24-2.86,2.66-12.59,3.73-15.37,2.97-2.83-.74-12.17,2.65-14.34,4.29-2.17,1.66-10.41,2.08-13.11,1.05-2.69-1.02-13.96-3.01-19.16,4.81-10.93,16.29-5.21,10.08,3.53,2.49,3.54-3.05,7.5,3.56,11.63.78-7.21,5.94-6.66,3.71-1.2,4.85,5.45,1.15,12.52-.81,16.9-6.15,1.73-2.14,3.25-1.24,6.73-.55,3.44.7,9.85-.71,15.2-3.34,5.34-2.63,10.38-2.07,13.3-1.58,2.93.49,4.05,0,9.58-3.19,5.55-3.17,11.75-7,18.65-9.11,4.17-1.28,9.73-.33,11.18-13.36,2.61-23.63,9.76-72.41,14.05-85.29,7.53-4.35,9.88-7.45,18-11.81,6.97,143.51,14.54,162.58,28.65,195.48,15.41,36,37.32,56.09,57.32,36.78,19.98,19.31,41.86-.78,57.29-36.78,14.11-32.9,21.7-51.97,28.63-195.48,8.15,4.36,10.46,7.46,18.02,11.81,4.29,12.88,12.59,65.17,15.22,88.81,1.47,13.04,11,8.37,15.18,9.62,6.9,2.09,12.01,2.75,17.56,5.9,5.56,3.12,6.67,3.63,9.59,3.12,2.91-.48,7.97-1.06,13.31,1.56,5.34,2.6,11.77,3.96,15.22,3.28,3.46-.72,4.98-1.62,6.73.5,4.38,5.32,11.47,7.25,16.92,6.09,5.46-1.17,6.01,1.06-1.24-4.85,4.18,2.75,8.09-3.87,11.63-.83,8.78,7.56,14.53,13.74,3.55-2.5-5.27-7.81-16.5-5.78-19.22-4.74-2.71,1.04-10.92.68-13.09-.98-2.21-1.65-11.54-5.01-14.38-4.23-2.78.76-12.5-.29-15.35-2.91-2.9-2.61-32.03-8.98-32.65-10.92-13.57-41.85-10.93-70.47-18.53-94.46-1.96-6.25,10.48-3.21-28.87-25.12.86-10.44,2.15-39.58,2.15-53.94s-3.58-38.98-3.58-38.98c19.35-10.64,39.65-18.59,43.93-20.51,1.57.31,5.74,6.01,4.69,10.11-2.54,9.86-3.73,45.95-4.23,72.66-.21,10.18,7.11,8.68,7.98,4.74,9.39,6.21,18.55,5.58,24.18,4.55,5.62-1.03,6.32-1.53,4.61-3.52,5.48.83,12.35-1.42,16.39-2.75,4-1.33,2.65,2.76,8.12,1.11,6.68-2.01,10.35-1.03,7.01-2.94-2.59-1.49-6.87.04-4.43-3.02,2.47-3.09,11.4-4.82,19.71-1.01,2.62,1.21,1.8,2.6-1.99-4.43-2.53-4.7-4.06-2.73-8.53-3.33-7.83-1.04-8.62.92-14.44,5.68-10.17-3.58-32.42,10.6-44.78,2.76-.86-8.41-1.15-40.24,1.76-67.94.83-7.97-7.99-16.7-12.45-22.64-4.48-5.94-43.03,11.07-50.02,10.66-3.18-10.74-1.75-16.29-10.71-21.8,2-4.63,2-7.25,1.71-11.6l-2.3-12.32c18.14-15.95,27.34-25.83,25.13-42.82-2.07-15.63-22.31-57.28-30.06-71.92,11.98-6.95,17.26-7.88,13.75-9.01,25.56-12.63,20.87-11.88,18.5-12.45,23.78-14.73,23.26-14.85,21.29-15.48,20.97-15.46,20.01-14.8,17.97-14.86,15.03-13.71,25.08-16.69,20.09-17.12,20.21-15.44,22.72-14.69,19.71-15.82,17.67-16.25,23.78-15.5,20.38-16.82,18.41-7.15,15.65-7.59,14.72-7.91,3.69-2.61,10.42-6.41,15.98-7.81,5.8-1.45,5.59-3.68,1.84-3.39-3.61.27-7.19,1.54-18.34,8.03,1.79-3.89-8.93,2.77-15.69,8.81,1.84-4.02-3.12-.54-7.18,3.83-4.06,4.34-5.78,7.15-13.17,12.34.66-2.68-4.04.94-5.97,3.84-.87,1.31-4.89,6.13-14.17,11.93.92-3.12-3.01-.09-4.52,2.98-2.32,4.67-5.64,5.44-14.96,14.54,1.37-3.01-2.38-.38-3.84,2.53-1.47,2.89-7.26,6.63-15.02,12.81,1.43-4.23-3.08-1.01-5.11,2.4-2.13,3.57-5.51,5.7-15.15,12.7.82-2.39-1.7-2.39-3.45.24-1.75,2.61-9.05,8.25-15.71,12.54,1.28-4.49-3.52-.69-6.57,2.79-1.19,1.36-3.51,3.09-6.98,5.43-.04-.11-.14-.26-.19-.37.74-13.5,7.36-38.52,10.42-46.38,2.76-3.89,7.53-7.27,8.96-9.09,3.62-4.74,1.06-2.88-.32-3.22,6.26-5.95,10.1-6.4,5.37-6.93,1.19-1.56,2.83-4.3,2.55-7.4-.47-4.83-4.65-9.59-4.65-9.59,0,0,2.13,6.22-1.3,13.41-1.95-5.6-3.23-3.39-6.29,6.38-2.73-4.91-2.6-2.55-4.8,3.3-3.09,8.26-5.01,4.68-6.14,11.62-5.61,11.45-8.71,36.63-9.07,49.65l.25-.09c-.29.8-.46,1.63-.54,2.51-1.11.73-2.28,1.49-3.52,2.32,2.14-3.86-2.5-1.53-7.32,2.45-1.9,1.57-6.02,5.07-11.95,7.33,2.39-4.17-5.43,1.36-17.41,10.07,1.4-3.8-3.49.13-6.62,3.9-3.87,4.7-7.75,5.62-11.17,5.9-3.43-.28-7.29-1.21-11.18-5.9-3.14-3.78-8.04-7.7-6.66-3.9-11.93-8.71-19.77-14.24-17.41-10.07-5.9-2.26-10.02-5.77-11.9-7.33-4.84-3.98-9.48-6.31-7.34-2.45-1.26-.83-2.43-1.58-3.51-2.32-.08-1.04-.26-2.04-.7-2.96-.45-13.15-3.49-37.81-9.05-49.11-1.14-6.95-3.06-3.36-6.15-11.62-2.18-5.86-2.08-8.21-4.8-3.3-3.09-9.77-4.32-11.98-6.28-6.38-3.43-7.19-1.31-13.41-1.31-13.41,0,0-4.17,4.75-4.65,9.59-.28,3.1,1.36,5.85,2.56,7.4-4.74.53-.91.98,5.36,6.93-1.37.34-3.94-1.53-.3,3.22,1.4,1.83,6.16,5.2,8.94,9.09,3.09,7.86,9.64,32.88,10.42,46.38l.33.11c-.06.07-.12.18-.14.26-3.46-2.34-5.78-4.07-6.99-5.43-3.04-3.48-7.84-7.29-6.55-2.79-6.7-4.29-13.98-9.93-15.73-12.54-1.75-2.63-4.25-2.63-3.45-.24-9.63-7-13.02-9.13-15.15-12.7-2.03-3.41-6.51-6.63-5.11-2.4-7.74-6.18-13.56-9.92-15-12.81-1.45-2.91-5.21-5.55-3.85-2.53-9.34-9.1-12.62-9.88-14.95-14.54-1.54-3.06-5.46-6.1-4.56-2.98-9.27-5.81-13.3-10.62-14.17-11.93-1.92-2.9-6.62-6.51-5.96-3.84-7.38-5.19-9.08-8-13.17-12.34-4.06-4.37-9.01-7.85-7.18-3.83-6.77-6.04-17.5-12.71-15.69-8.81C9.85,1.56,6.29.3,2.69.03c-3.74-.29-3.98,1.94,1.84,3.39m249.46,144.47c9.32-9.36,21.32-8.93,15.01-10.45,14.78-7.83,23.05-9.68,18.84-10.62.91-.6,1.77-1.17,2.67-1.73,1.85,9.53,12.47,25.06,24.94,58.11,5.75,15.25,6.02,15.46.93,16.45-8.2,1.58-10.67,7.11-18.92,16.36-8.99-21.61-26.91-30.15-34.05-32.2,1.94-11.56.1-13.51-5.19-19.52-6.46-7.33-.85-7.27-7.82-10.03,5.35-8.46,7.07-6.83,3.59-6.38m-58.43-10.45c-6.3,1.52,5.63,1.08,15,10.45-3.49-.45-1.75-2.09,3.58,6.38-6.98,2.76-1.37,2.7-7.81,10.03-5.3,6.01-7.12,7.96-5.22,19.52-7.1,2.05-25.03,10.58-34.05,32.2-8.23-9.25-10.68-14.77-18.86-16.36-5.15-.99-4.87-1.2.89-16.45,12.46-33.05,23.11-48.58,24.98-58.11.86.56,1.76,1.13,2.64,1.73-4.19.94,4.06,2.79,18.85,10.62"/>
  </g>
</svg>