<?xml version="1.0" encoding="UTF-8"?>
<svg id="Layer_2" data-name="Layer 2" xmlns="http://www.w3.org/2000/svg" viewBox="0 0 518.98 654.5">
  <defs>
    <style>
      .cls-1 {
        fill:#808080
      }
    </style>
  </defs>
  <g id="Layer_1-2" data-name="Layer 1">
    <path class="cls-1" d="m27.95,145.74c19.1,6.55,37.96,14.26,57.93,18.05,11.27,2.13,21.99,8.84,31.85,14.62,6.21,3.67,11.96,8.12,18.31,11.58,6.65,3.64,14.22,6.06,19.16,12.05,4.73,5.75,11.98,9.34,17.9,13.71,6.72,4.93,13.25,10.34,19.27,16.22,8.03,8.18,15.85,16.59,25.25,23.35,1.51,1.06,5.72,4.23,7.63,3.76,3.23-.82-2.61-10.25-3.14-11.32-1.3-2.65-1.68-5.65-2.95-8.31-1.51-2.94-3.62-5.48-5.06-8.48-2.73-6-4.97-12.29-6.48-18.72-.96-3.97-1.64-7.98-3.29-11.71-2.89-6.74-6.18-13.24-9.01-19.97-2.83-6.38-5.7-12.69-8.48-19.09-3.65-8.61-9.69-16.55-14.51-24.6-4.77-7.88-9.69-15.66-14.61-23.29-4.65-7.04-9.62-13.95-13.03-21.64-2.28-5.18-2.6-11.06-5.18-16.08-7.72-14.37-18.12-26.91-27.86-39.82-5.55-7.36-11.51-14.47-18.5-20.48-4.33-3.7-9.48-6.38-13.74-10.13-1.85-1.53-4.62-6.08.19-5.35,2.78.47,5.46,3.32,7.7,4.83,11.27,7.74,19.99,17.51,28.73,27.97,7.25,8.63,13.91,17.74,20.63,26.78,6.18,8.4,14.83,14.52,21.37,22.54,3.97,4.74,6.44,10.19,9.16,15.65,5.92,12.17,11.53,24.55,17.78,36.57,3.77,7.08,8.2,13.67,11.85,20.74,3.24,6.32,6.48,12.67,10.38,18.62,2.34,3.59,4.82,7.17,6.48,11.12,1.63,3.97,1.85,8.33,3.64,12.19,2.59,5.53,7.94,9.17,9.94,15.11,2.34,7.34,1.95,15.22,3.41,22.74.85,3.55,2.53,10.64,7.07,11.19,6.28.74,1.04-8.47.72-10.8-.31-4.02.88-8.01,2.46-11.65,1.68-3.91,1.34-11.64,4.99-14.1,6.54.47,4.04,7.56,2.41,11.91-.92,2.6-2.75,4.87-3.32,7.63-.56,1.94.17,5.73,2.94,5.31,1.88-.32,2.12-2.85,2.92-4.16,1.07-2.04,2.95-2.32,5.14-2.4.27-.02,2.09,0,3.5,0s3.03-.02,3.44,0c2.11.08,3.87.36,5.11,2.4.77,1.32.94,3.85,2.94,4.16,2.71.42,3.41-3.37,2.9-5.31-.53-2.75-2.45-5.03-3.41-7.63-1.51-4.34-4.02-11.44,2.43-11.91,3.75,2.45,3.32,10.19,4.97,14.1,1.66,3.64,2.83,7.63,2.43,11.65-.19,2.34-5.41,11.55.83,10.8,4.43-.54,6.24-7.64,6.99-11.19,1.51-7.52,1.2-15.4,3.51-22.74,1.98-5.95,7.31-9.58,9.94-15.11,1.77-3.87,2-8.22,3.64-12.19,1.64-3.95,4.19-7.53,6.51-11.12,3.84-5.95,7.03-12.3,10.27-18.62,3.63-7.07,8.25-13.66,11.91-20.74,6.22-12.03,11.81-24.4,17.83-36.57,2.71-5.46,5.11-10.91,8.97-15.65,6.71-8.02,15.36-14.14,21.62-22.54,6.61-9.04,13.18-18.14,20.51-26.78,8.78-10.46,17.43-20.22,28.8-27.97,2.24-1.51,4.86-4.37,7.63-4.83,4.86-.72,2.09,3.82.26,5.35-4.33,3.75-9.4,6.44-13.78,10.13-6.99,6.01-12.94,13.12-18.46,20.48-9.79,12.92-20.24,25.45-27.9,39.82-2.71,5.03-2.88,10.9-5.18,16.08-3.37,7.69-8.4,14.6-12.96,21.64-5.04,7.64-9.96,15.41-14.64,23.29-4.89,8.05-10.83,15.99-14.51,24.6-2.82,6.39-5.72,12.7-8.44,19.09-2.95,6.74-6.21,13.24-9.14,19.97-1.68,3.73-2.34,7.73-3.22,11.71-1.58,6.43-3.75,12.72-6.5,18.72-1.44,3-3.53,5.53-5.11,8.48-1.2,2.66-1.66,5.65-2.9,8.31-.6,1.07-6.28,10.51-3.11,11.32,1.85.47,6.03-2.7,7.67-3.76,9.37-6.76,17.21-15.17,25.27-23.35,5.95-5.88,12.45-11.29,19.19-16.22,5.94-4.38,13.12-7.97,17.97-13.71,4.94-5.98,12.46-8.4,19.01-12.05,6.43-3.46,12.1-7.91,18.43-11.58,9.76-5.78,20.44-12.48,31.88-14.62,19.88-3.78,38.81-11.49,57.81-18.05,4.44-1.51,25.04-9.52,28.03-3.22.77,1.73-23.81,6.31-26.25,7.03-18.46,5.54-37.55,11.99-53.53,22.99-9.04,6.19-18.84,10.81-28.69,15.49-6.26,3.01-12.78,5.42-18.65,9.1-6.16,3.9-9.83,9.81-15.15,14.55-15.55,13.98-32.73,26.21-49.26,39.22-5.87,4.62-11.72,9.36-17.56,14-3.22,2.59-8.82,5.64-10.81,9.22-5.99,10.42,36.04,19.85,41.6,21.61,8.47,2.67,16.43,6.48,24.12,10.74,18.71,10.31,30.63,28.63,45.54,43.31,15,14.71,28.79,30.63,42.86,46.21,1.98,2.18,4.65,3.85,6.26,6.3,1.26,1.99,1.43,4.7-1.49,4.75-2.68,0-5.75-3.64-7.71-5.24-12.28-10.32-22.34-22.73-33.14-34.49-3.8-4.13-7.48-8.05-12.23-11.1-8.33-5.43-15.64-10.18-22.26-17.67-5.53-6.27-10.94-12.97-18.12-17.41-7.69-4.62-16.49-7.28-24.79-10.56-11.1-4.44-22.84-7.65-34.33-11.5.66.22,1.83,3.01,2.07,3.58,1.68,2.85,3.43,5.73,5.09,8.62,3.99,6.56,7.55,13.43,10.44,20.52,2.8,6.58,4.78,13.54,8.48,19.73,3.39,5.62,8.11,10.25,10.98,16.29,3.11,6.61,5.05,13.79,8.33,20.38,4.65,9.57,9.01,19.29,12.15,29.44,6.77,21.39,8.65,43.87,13.37,65.64,1.4,6.45,2.89,12.84,3.98,19.36,3.46,20.58,7.46,41.11,12.03,61.51,3.22,14.56,6.35,29.21,7.55,44.14,1.21,13.91,1.21,27.86,2.02,41.84.1,2.45-1.83,5.53-4.41,3.99-4.48-2.52-2-14.91-2.29-19.04-1.78-29.64-7.84-59.22-14.46-88.13-2.09-9.11-7.26-16.83-12.13-24.65-6.58-10.64-7.59-23.43-8.08-35.67-.56-10.34-1.56-20.7-4.39-30.74-2.19-7.66-3.75-15.6-5.94-23.29-2.24-7.71-6.48-14.57-10.03-21.69-1.69-3.63-3.39-7.3-4.48-11.22-1.07-3.27-.95-7.61-3.5-10.17,1.02,1.02-1.54,6.84-1.88,8.01-5.62,18.79-20.04,34.74-36.95,44.25-4.86,2.75-10.56,5.44-16.02,6.78-11.55,2.87-24.08,2.91-35.78,0-5.37-1.34-11.08-4.02-15.96-6.78-16.98-9.52-31.29-25.46-36.89-44.25-.42-1.17-2.98-6.99-1.98-8.01-2.54,2.56-2.54,6.91-3.48,10.17-1.12,3.92-2.7,7.59-4.52,11.22-3.49,7.12-7.78,13.98-9.96,21.69-2.28,7.69-3.77,15.64-5.94,23.29-2.88,10.04-3.84,20.41-4.33,30.74-.62,12.24-1.56,25.03-8.19,35.67-4.81,7.83-10,15.54-12.05,24.65-6.65,28.91-12.71,58.5-14.56,88.13-.24,4.13,2.24,16.53-2.24,19.04-2.66,1.53-4.54-1.54-4.39-3.99.83-13.98.83-27.94,1.92-41.84,1.3-14.92,4.41-29.57,7.65-44.14,4.63-20.41,8.57-40.93,12-61.51,1.13-6.51,2.58-12.91,3.97-19.36,4.75-21.77,6.65-44.24,13.34-65.64,3.24-10.15,7.55-19.88,12.28-29.44,3.24-6.6,5.16-13.78,8.27-20.38,2.85-6.04,7.58-10.67,11.01-16.29,3.67-6.18,5.65-13.15,8.42-19.73,2.93-7.09,6.51-13.96,10.4-20.52,1.66-2.88,3.41-5.77,5.07-8.62.34-.57,1.49-3.36,2.09-3.58-11.42,3.86-23.08,7.06-34.35,11.5-8.25,3.28-16.99,5.94-24.68,10.56-7.22,4.44-12.61,11.14-18.21,17.41-6.65,7.5-13.9,12.25-22.23,17.67-4.71,3.05-8.38,6.97-12.21,11.1-10.83,11.76-20.84,24.17-33.11,34.49-1.95,1.59-5.16,5.24-7.8,5.24-2.8-.05-2.68-2.76-1.39-4.75,1.54-2.45,4.29-4.12,6.12-6.3,14.19-15.57,27.98-31.5,42.98-46.21,14.93-14.68,26.83-33,45.51-43.31,7.75-4.26,15.79-8.07,24.13-10.74,5.53-1.75,47.65-11.19,41.62-21.61-2.09-3.58-7.63-6.63-10.81-9.22-5.84-4.64-11.68-9.38-17.56-14-16.46-13.01-33.63-25.24-49.23-39.22-5.41-4.75-9.08-10.65-15.2-14.55-5.94-3.69-12.44-6.1-18.72-9.1-9.77-4.67-19.7-9.29-28.59-15.49-16-10.99-35.07-17.44-53.55-22.99-2.51-.72-27-5.3-26.17-7.03,2.92-6.3,23.55,1.71,27.93,3.22h0Z"/>
  </g>
</svg>