<?xml version="1.0" encoding="UTF-8"?>
<svg id="Layer_2" data-name="Layer 2" xmlns="http://www.w3.org/2000/svg" viewBox="0 0 456.18 654.5">
  <defs>
    <style>
      .cls-1 {
        fill:#808080
      }
    </style>
  </defs>
  <g id="Layer_1-2" data-name="Layer 1">
    <path class="cls-1" d="m367.05,587.03c2.94-1.95,5-4.6,7.18-7.14,1.77-2.07,3.41-4.32,5.45-6.07,1.48-1.26,2.44-2.66,3.09-4.37,1.37-3.61,3.2-6.97,5.15-10.28,2.08-3.5,4.08-7.02,5.25-10.95.56-1.88,1.64-3.45,3.17-4.7,1.02-.83,1.8-1.85,2.3-3.09.7-1.69.5-2.49-.9-3.63.15-.11.29-.21.42-.32,3.14-2.44,5.82-5.26,7.8-8.74.53-.95.22-1.34-.76-1.53-1.69-.34-3.38-.25-5.04.17-2.8.71-5.55,1.72-8.39,2.24-12.75,2.29-25.15,5.84-37.34,10.15-3.5,1.24-6.92,2.64-9.79,5.1-2.91,2.5-5.04,5.66-7.38,8.65-.39.49-.78.98-1.26,1.57-.35-.8-.26-1.38-.2-1.94.52-4.6,2.74-8.36,6.32-11.1,3.71-2.84,7.62-5.46,11.68-7.8,8.96-5.14,18.49-9.03,27.94-13.17,7.48-3.26,14.97-6.48,21.93-10.83,8.96-5.6,15.34-13.2,18.52-23.42,2.15-6.91,3.25-13.99,3.57-21.18.44-10.02-.36-19.98-1.61-29.93-1.36-10.89-4.23-21.53-5.48-32.44-.26-2.38-1.8-4.47-1.63-6.97.02-.26-.24-.6-.45-.8-.78-.73-1.03-1.64-1-2.66.02-.6-.11-1.17-.4-1.68-.9-1.57-1.28-3.32-1.75-5.03-1.34-4.77-2.4-9.59-4.47-14.14-.9-1.95-2.05-3.51-4.13-4.27-1.29-.47-1.95-1.48-2.17-2.84-.22-1.46-.4-2.91-.76-4.33-.46-1.88-1.54-2.46-3.41-1.97-.6.16-1.21.4-1.83.29-2-.34-3.8.27-5.54,1.13-1.41.67-2.84,1.28-4.32,1.79-7.42,2.56-14.98,4.63-22.35,7.33-3.58,1.31-7.35,2-11.17,1.08-1.28-.31-1.72.06-2.12,1.17-1.11,3.02-1.63,6.22-2.81,9.2-5.99,15.11-13.29,29.53-23.05,42.59-5.18,6.92-11.01,13.17-18.65,17.47-1.36.77-2.59,1.75-3.68,2.87-.72.72-1.48,1.44-1.74,2.49-.72,2.84-2.2,5.35-3.27,8.04-.21.54-.39.8-1.06.52-1.05-.44-2.13-.73-2.29,1.02-.02.29-.41.56-.65.82-1.57,1.77-3.58,2.75-5.77,3.47-2.36.78-4.78,1.47-7.02,2.6-4.18,2.12-8.32,4.28-12.24,6.86-.82.55-1.66,1.18-2.65,1.23-1.98.09-3.72.88-5.41,1.75-4.24,2.2-8.37,4.59-12.67,6.68-2.7,1.32-5.14,3.02-7.38,5.04-7.25,6.58-14.06,13.61-21.4,20.1-1.71,1.51-3.3,3.15-5.39,4.16-2.22,1.06-3.72.82-5.45-.93-.68-.68-1.29-1.47-1.87-2.26-1.13-1.56-2.18-3.17-3.32-4.72-7.7-10.39-15.16-20.98-23.79-30.66-.72-.8-1.38-1.67-2.44-2.02-1.01-.34-1.85-.9-2.6-1.61-1.58-1.48-3.37-2.63-5.25-3.68-2.17-1.24-4.29-2.55-6.32-4.02-7.28-5.3-14.42-10.84-22.57-14.83-1.92-.93-3.5-2.29-4.58-4.18-.55-.95-1.33-1.72-2.38-2.09-2.51-.92-3.75-2.87-4.16-5.33-.68-4.09-2.4-7.6-5.24-10.61-1.39-1.48-1.98-3.36-2.08-5.39-.14-3-.67-5.85-2.79-8.18-.4-.42-.62-.98-.92-1.48-5.06-8.44-9.18-17.32-12.27-26.68-2.1-6.38-4.6-12.66-5.4-19.4-.35-3.04-2.03-4.83-4.97-5.49-2.07-.47-3.94-1.41-5.75-2.48-3.36-2-6.94-3.42-10.64-4.63-5.64-1.83-11.42-3.21-16.6-6.25-.35-.2-.75-.3-1.13-.42-3.52-1.08-6.76-.31-9.89,1.42-2.65,1.44-2.96,3.92-3.09,6.52-.07,1.74-1.14,2.66-2.66,3.14-1.62.51-2.76,1.54-3.71,2.91-1.7,2.46-3.15,5.08-4.46,7.76-3.41,7.09-5.74,14.6-8.41,21.96-5.56,15.29-10.14,30.82-11.52,47.15-.58,6.92-.46,13.83.5,20.72,1.49,10.65,5.1,20.61,9.91,30.23,1.8,3.63,3.88,6.89,6.79,9.71,2.18,2.1,4.26,4.34,6.72,6.12,8.1,5.86,16.5,11.31,24.91,16.71,6,3.86,12.17,7.48,17.71,12.02,4.31,3.53,8.25,7.39,11,12.33,1.18,2.12,1.93,4.41,2.19,6.82.05.45.19,1.02-.31,1.21-.47.17-.58-.45-.78-.75-1.24-1.85-2.45-3.73-3.67-5.6-2.74-4.22-6.4-7.27-10.85-9.67-7.11-3.83-14.71-6.64-21.66-10.74-.37-.21-.82-.35-1.24-.47-5.26-1.61-10.24-3.87-15.02-6.59-1.56-.9-3.22-1.29-5.01-1.01-.34.05-.86-.09-.88.56-.02.46.12.75.56.93,2.31.97,3.6,2.82,4.33,5.14.92,2.91,2.67,5.26,4.74,7.5,4.34,4.69,8.32,9.69,12.95,14.12.27.25.63.44.21.96-.95,1.17-.88,2.09.3,3.07,1.7,1.42,3.11,3.09,4.63,4.65,4.06,4.24,8.66,7.86,13.14,11.65.91.77,1.63,1.69,2.38,2.66-1.03.22-2.3-.36-2.79.72-.51,1.11.6,1.93,1.14,2.81.24.37.53.71.81,1.06,3.24,4.07,7.15,7.35,11.45,10.24,5.26,3.55,10.89,6.45,16.74,8.9.45.19,1.33.21,1.16.86-.19.78-.97.25-1.48.25-.98,0-2.1-.44-2.9.15-1.36,1.01-2.51.46-3.72-.09-1.13-.51-2.19-1.21-3.43-1.46-.76-.15-1.63-.17-2.18.35-.57.54.02,1.26.25,1.84,2.3,6.1,6.87,10.3,12.12,13.71,2.99,1.95,5.57,4.08,7.43,7.14,1.36,2.23,3.41,3.61,5.92,4.28,1.98.54,3.94,1.11,5.92,1.65.6.16.95.41.9,1.18-.2,3.26.77,4.36,4.03,4.69,2.51.25,4.99-.06,7.47-.44,3.4-.52,6.74-.52,9.98.88,1.64.71,3.37,1.16,5.15,1.39,3.51.46,6.67,1.89,9.72,3.58,1.48.83,1.47,1.47.19,2.59-.7.6-.7,1.62.14,1.94,1.97.75,3.01,2.3,3.81,4.08.91,1.99,2.45,3.09,4.5,3.67,2.55.72,5.16.95,7.79,1.18,5.7.5,11.31.09,16.81-1.62,6.28-1.97,11.87-5.26,17.33-8.85.39-.26.71-.68,1.37-.68-.56.6-1.05,1.11-1.52,1.64-1.16,1.32-2.12,2.76-2.77,4.39-.19.45-.34.97.05,1.39.41.46.97.45,1.51.32.34-.09.67-.26.96-.46,1.82-1.21,3.27-2.76,4.37-4.64.55-.93.71-2,.6-3.1-.04-.36-.05-.85-.51-.8-1.67.24-1.18-.81-1.06-1.67.1-.62.11-1.23.04-1.87-.27-2.2-.19-4.41.03-6.67.39.19.36.47.44.71.6,2.34,1.42,4.6,2.65,6.68.78,1.32,1.73,2.51,2.96,3.43.61.45,1.31,1.03,2.05.49.66-.47.37-1.28.2-1.98-.3-1.18-.87-2.24-1.36-3.35-.37-.85-.95-1.63-1.07-2.69.16.14.25.17.3.25,8.61,10.88,20,16.81,33.57,18.84,3.8.57,7.2.05,9.73-3.25.55-.68,1.22-1.37,1.98-1.79,1.04-.58,1.39-1.37,1.27-2.49-.14-1.07.4-1.56,1.42-1.87,3-.95,6.09-1.34,9.2-1.67,4.14-.44,8.26-.61,12.38.34,4.12.95,8.23,2.02,12.48,2.31,2.68.19,3.07-.04,3.12-2.73.02-1,.49-1.36,1.38-1.37.67-.01,1.34-.04,2.02,0,4.32.2,8.3-.87,11.93-3.24,4.33-2.82,8.71-5.62,13.54-7.55,4.01-1.61,7.03-4.47,10.14-7.28.47-.42.5-.95.37-1.47-.14-.61-.73-.4-1.13-.44-1.34-.12-2.66.14-3.94.54-2.89.86-5.39-.16-8.1-1.59,2.82-.81,5.24-1.95,7.6-3.16,2.24-1.14,4.6-1.9,7.07-2.38,1.31-.25,2.75-.37,3.8-1.21,2.54-2.02,5.75-2.92,8.1-5.3,1.64-1.67,3.75-2.9,5.61-4.34.6-.46,1.29-.96,1.1-1.84-.2-.91-1.02-1.01-1.8-1.09-.15-.01-.3-.11-.6-.24h0ZM190.55,16.36c-2.86-2.91-6-5.46-9.17-7.99-3.14-2.49-6.77-3.01-10.5-3.41-1.19-.12-2.02.58-2.56,1.61-.5.96-.7,2.02-1.05,3.02-.41,1.18-1.07,2.09-1.98,3.07-1.92,2.08-4.34,3.58-6.04,5.85-.76,1.02-1.23,2.18-1.56,3.38-.3,1.07-.54,2.15-1.44,2.95-.42.36-.45.97-.34,1.51.65,3.21.73,6.37-.46,9.48-.39,1-.07,1.57.88,1.97.82.34,1.58.78,2.36,1.18-.46.62-.92,1.12-1.26,1.69-.6,1.05-.17,1.74,1.03,1.7.58-.01,1.17-.11,1.72-.29,1.03-.32,1.33-.04,1.06,1.02-.52,2.02-.96,4.08-1.54,6.09-.22.81-.12,1.29.63,1.61,1.92.8,2.19,2.31,1.79,4.08-.35,1.53-.19,2.76,1.29,3.7,1.11.7.96,1.95.82,3.06-.11.93-.2,1.87-.17,2.8.01.6.11,1.22.62,1.56,1.23.85,1.17,1.95.61,3.06-.51,1-.36,1.71.52,2.29.41.29.42.57.2,1.01-.32.61-.3,1.29-.32,1.97-.05,1.72.45,2.09,2.13,1.54.58-.19,1.14-.46,1.8-.58-.75.87-1.34,1.87-2.46,2.34-.46.19-.92.39-1.32.65-.86.56-.9,1.44-.62,2.28.25.76.99.82,1.69.73,1.29-.16,2.65-.36,3.66-1.18,2.55-2.14,5.66-3.35,8.34-5.24,3.75-2.63,7.69-4.88,11.65-7.11,2.04-1.13,4.17-2.04,6.28-2.99.9-.4,1.74-.92,2.64-1.31,1.57-.67,2.16-1.89,2.13-3.51-.06-2.74.9-5.24,1.84-7.74.32-.86.78-1.61,1.52-2.17.25-.19.63-.48.61-.67-.22-1.7,1.13-2.14,2.13-2.99,2.48-2.12,4.82-4.39,6.84-6.97,1.28-1.6,2.51-3.25,3.62-4.98.34-.54.68-.82,1.37-.85,1.22-.06,2.35-.52,3.4-1.12,3.04-1.72,6.22-2.74,9.74-2.99,3.37-.24,6.55-1.69,9.93-2.1,4.54-.57,9.08-.4,13.64-.35,7.38.06,14.16,2.54,21.02,4.79,1.69.55,3.42,1.01,5.14,1.46,2.14.55,4.13,1.36,5.84,2.84.85.73,1.85,1.24,3,1.37.75.07,1.03.5,1.28,1.13,1.7,4.27,3.97,8.18,7.37,11.37,1.19,1.12,2.51,2.38,2.87,3.97.44,1.95,1.47,3.66,1.89,5.58.72,3.25,1,6.53-.47,9.71-.36.77-.51,1.62-.42,2.49.02.3.07.62.15.91.12.4.39.72.78.87,1.83.68,2.66,3.61,5.33,2.43.6-.27.91-.04,1.22.4,3.66,5.24,8.62,8.98,13.91,12.39,2.43,1.57,4.68,3.33,6.58,5.62,1.78,2.15,4.03,3.92,6.12,5.8,1.16,1.06,2.33,2.08,3.29,3.33.87,1.13,2.16,1.71,3.4,2.31,2.17,1.07,3.66,2.65,4.14,5.09.2,1.05.14,2.03-.22,3.02-.25.71-.53,1.47.21,2.09.72.6,1.36.05,1.98-.24,1.59-.75,2.95-1.85,4.16-3.11,2.45-2.55,5.21-4.75,7.98-6.94.83-.67,1.72-1.29,2.7-1.73,1.99-.88,3.72-2.1,5.1-3.81.5-.61,1.11-1.11,1.92-1.07,1,.03,1.61-.44,2.03-1.27.32-.63.76-1.03,1.52-1.13.87-.11,1.37-.82,1.87-1.43,1.12-1.34,2.45-2.31,4.11-2.9,1.68-.59,2.87-1.92,4.22-3.01,3.02-2.46,6.32-4.17,10.35-3.99.7.02,1.37-.12,1.84-.66.75-.85,1.74-1.09,2.76-1.14,1.21-.05,2.14-.57,2.92-1.41.93-1,2.03-1.74,3.38-2.05,1.06-.24,1.84-.85,2.49-1.69.97-1.28,1.97-2.54,2.97-3.8.36-.46.75-.9,1.47-.6.87.36,1.39-.12,1.85-.83,1.95-3.05,3.65-6.23,5.24-9.48.17-.4.26-.81.83-.91,4.44-.76,7.24-3.83,9.81-7.16,2.46-3.19,4.44-6.69,6.5-10.14,1.36-2.28,2.89-4.39,4.94-6.11.93-.78,1.72-1.7,2.35-2.75.63-1.05.75-2.12-.05-3.11-.75-.95-1.79-.7-2.71-.37-1.06.39-2.05.96-3.12,1.38,2.09-1.92,4.34-3.68,6.92-4.82,1.64-.71,3.66-1.09,5.09.87.42.57,1.26.37,1.89.52,1.63.35,2.36,1.28,2.17,2.95-.07.61-.21,1.24-.46,1.8-.71,1.61-1.28,3.21-.98,5.03.16.92-.29,1.79-.83,2.49-3.38,4.28-5.77,9.23-9.05,13.59-2.53,3.36-5.41,6.28-9.05,8.45-1.49.9-2.95,1.85-4.09,3.22-.47.57-1.17.8-1.82,1.08-.83.36-1.61.76-1.9,1.72-.07.24-.31.53-.51.57-1.49.25-2.08,1.46-2.76,2.54-.62,1-1.54,1.6-2.6,2.02-1.48.58-2.56,1.59-3.17,3.06-.7,1.61-1.87,2.53-3.61,2.84-1.21.24-2.18.58-2.58,2.21-.71,3.01-.91,2.96,2.29,4.9-1.72.37-3.32.59-4.84,1.12-1.21.42-2.44.85-3.52,1.57-1.48.97-1.78,1.82-1.05,3.38.36.73.16.96-.51,1.22-2.64,1-5.2,2.14-7.55,3.71-1.52,1.01-2.82,2.15-2.95,4.19-.05.93-.7,1.44-1.61,1.74-2.96.96-5.59,2.33-6.73,5.54-.41,1.13-1.42,1.82-2.34,2.53-1.22.93-2.25,2.02-3,3.38-.62,1.13-1.31,2.2-2.41,2.99-.87.62-1.07,1.72-1.46,2.66-.46,1.11-1.07,2.05-2.19,2.58-5.82,2.73-11.2,6.31-17.1,8.87-1.51.65-2.9,1.58-4.6,1.72-.58.05-.82.57-.85,1.06-.16,2.23-1.62,3.22-3.48,3.92-.5.19-1.15.26-1.18,1.07-.05.83.57,1.06,1.11,1.33,1.26.66,2.53,1.34,3.83,1.89,1.93.8,3.25,2.18,4.14,3.99,1.05,2.09,2.29,3.96,4.16,5.49,1.78,1.44,2.34,3.75,2.95,5.9,1.13,4.01,1.34,8.18,2.07,12.26.93,5.26,1.89,10.53,2.85,15.79.77,4.23.93,8.52,1.24,12.79.36,4.99.65,9.98,1.01,14.97.24,3.27.07,6.52-.29,9.77-.16,1.41-.05,2.76.25,4.11.41,1.87.47,3.72.22,5.59-.44,3.37.14,6.71.5,10.02.52,4.77.68,9.52.46,14.31-.25,5.04-.41,10.09-.49,15.14-.05,2.48-.6,4.87-.97,7.28-.5,3.19-.29,4.01,2.54,5.6,7.62,4.31,14.61,9.46,21.09,15.32,6.15,5.55,12.64,10.73,18.67,16.43,3.81,3.6,6.47,7.88,7.38,13.05,1.17,6.72,3.25,13.14,5.64,19.5,3.3,8.77,5.3,17.92,7.69,26.98,2.9,11.08,6,22.1,8.3,33.32,3,14.58,4.39,29.29,3.87,44.18-.39,10.56-2.59,20.78-5.46,30.89-1.73,6.05-2.66,12.28-4.16,18.38-.17.7-.37,1.37-.55,2.07-1.14,4.49-3.45,8.05-7.76,10.17-2.61,1.27-4.74,3.07-5.92,5.91-.61,1.47-1.88,2.6-2.99,3.77-2.3,2.44-4.06,5.19-5.14,8.38-.27.8-.67,1.56-.96,2.35-.96,2.54-2.53,4.48-5.14,5.45-2.1.78-3.45,2.28-4.16,4.42-1.56,4.74-3.12,9.47-3.31,14.55-.09,2.63-1.33,5.08-1.73,7.68-.12.82-.81.49-1.29.36-.98-.27-1.9-.77-2.97-.71-.81.05-1.46.35-1.54,1.18-.17,1.77-1.1,2.94-2.34,4.22-1.69,1.79-2.68,4.19-3.53,6.56-1.47,4.08-3.22,8.03-5.28,11.83-.82,1.52-.78,1.54-1.85.29-1.22-1.43-2.46-1.36-3.67-.07-6.07,6.38-11,13.75-17.06,20.13-.58.62-.97,1.11-1.87.24-.67-.65-1.62-.77-2.31.37-.75,1.21-1.73,2.26-2.55,3.43-2.45,3.52-5.43,6.5-8.79,9.15-3.89,3.05-7.18,6.79-11.27,9.67-7.58,5.29-15.54,9.59-24.78,11.2-5.15.91-10.34,1.32-15.54,1.75-1.38.11-2.76.19-4.14.26-2.22.12-4.34-.15-6.42-1.01-1.83-.76-3.4-.76-5.25.7-3.07,2.44-6.88,3.29-10.84,3.09-9.57-.45-18.24-3.85-26.6-8.23-1.77-.93-3.43-2.08-5.18-3.07-4.14-2.36-7.34-5.76-10.43-9.32-1.44-1.68-3.1-1.54-3.94.49-2.48,6-7.44,9.22-12.98,11.71-10.1,4.55-20.76,6.73-31.86,6.4-4.74-.14-9.4-.98-13.69-3.22-1.58-.82-2.87-1.87-3.89-3.37-1.57-2.33-2.23-2.5-4.95-1.67-1.18.35-2.35.42-3.55.06-6.76-1.97-13.63-3.51-20.13-6.3-11.73-5.05-20.92-12.99-27.71-23.78-2.13-3.4-4.17-6.87-6.68-10.03-1.16-1.44-1.73-3.21-2.35-4.93-.62-1.72-1.59-3.19-3.07-4.28-2.23-1.67-3.87-3.81-5.11-6.27-2.08-4.06-4.4-7.96-7.4-11.44-.97-1.12-1.65-2.43-2.18-3.82-.22-.62-.49-1.24-.81-1.83-1.02-1.88-2.13-1.97-3.46-.29-.97,1.21-.91,1.17-1.77-.12-2.31-3.46-4.29-7.08-6.02-10.86-1.1-2.4-2.75-4.48-4.26-6.64-.22-.31-.55-.63-.9-.78-1.12-.49-1.73-1.23-1.95-2.48-.22-1.19-1.47-1.39-2.55-.52-1.49,1.18-1.63,1.14-2.45-.6-3.41-7.24-7.14-14.3-11.91-20.76-.91-1.23-1.95-2.02-3.43-2.31-.87-.17-1.74-.42-2.55-.76-.91-.37-1.83-.85-1.7-2.1.01-.09,0-.2-.05-.26-2-2.29-2.09-5.35-3.24-7.99-2.18-5.08-5.33-9.58-8.47-14.07-.63-.9-1.56-1.47-2.48-2.03-1.27-.76-2.53-1.52-3.81-2.25-2.81-1.62-4.28-3.81-4.6-7.27-.61-6.47-1.51-12.94-2.92-19.3-.47-2.1-.63-4.24-.67-6.38-.01-.92-.19-1.77-.95-2.41-.67-.57-.59-1.41-.52-2.13.35-4.9-.9-9.67-1.34-14.51-.8-8.5-1.46-16.97.8-25.41.88-3.33.61-6.84.9-10.27.16-2,.46-3.97,1.04-5.91,2-6.61,3.32-13.4,5.39-20,1.56-4.93,2.7-10.02,4.67-14.77,4.53-10.98,7.96-22.44,14.22-32.66,2-3.27,3.51-6.82,4.75-10.47.37-1.1.88-2.15,1.46-3.15,2.13-3.77,4.36-7.48,5.87-11.55.73-2,2.24-3.32,3.86-4.67,10.22-8.47,21.73-15.02,32.71-22.35,2.84-1.9,5.97-3.38,8.96-5.06.97-.54,1.83-1.18,2.03-2.34.92-5.2,3.14-10.04,4.45-15.12.6-2.33,1.07-4.62.37-7.11-.35-1.26.34-2.77.35-4.19.06-3.88.87-7.6,2.19-11.22.81-2.19,1.26-4.47,1.54-6.77.37-3.05,1.49-5.86,2.55-8.7.64-1.69,1.03-3.42.97-5.24-.11-3.15,1.05-6.04,1.9-8.98.37-1.28.72-2.56,1.11-3.84.83-2.69.61-5.26-.14-7.99-1.37-5.14-1.46-10.42-.47-15.67.14-.65.42-1.28.92-1.75,1.11-1.07,1.41-2.44,1.07-3.82-.86-3.6.87-6.21,3.05-8.71.58-.67,1.43-.87,2.23-1.16,2.2-.78,2.59-1.29,2.55-3.61-.02-.97.14-1.87.71-2.66,1.18-1.64,1.54-3.53,1.47-5.46-.36-8.54,4.23-14.71,9.73-20.38,1.33-1.37,3.19-2.1,4.55-3.65,1.56-1.75,3.99-2.18,6.37-2.35,1.32-.1,2.69-.22,3.66-1.36.51-.6.77-1.19.44-1.95-.26-.62-.42-1.28-.77-1.84-3.83-6.15-3.97-12.71-2.36-19.5.87-3.7,2.15-7.27,2.91-10.99.31-1.51.16-3.02.16-4.53.01-1.69.49-3.01,2.07-3.88,2.33-1.28,2.5-3.76,3.02-5.99.29-1.27.37-2.58.31-3.87-.03-.77.27-1.14,1.01-1.27.52-.09,1.05-.21,1.56-.37.97-.29,1.57-.9,1.77-1.95.4-2.03.19-4.02-.25-5.97-.24-1.05.05-1.27,1.01-1.09,1.73.31,3.46.32,5.21.26.72-.02,1.06-.25.96-1.02-.06-.62-.06-1.26,0-1.88.19-1.72-.2-3.11-1.75-4.16-1.05-.68-1.31-1.89-1.11-3.11.25-1.53.06-2.73-1.49-3.61-1.49-.85-2.4-4.18-1.8-5.79.32-.88.36-1.75-.04-2.61-.65-1.41-1.27-2.85-2.02-4.21-1.87-3.43-2.25-7.02-1.19-10.75,1.14-4.02,2.25-8.06,3.52-12.05,1.07-3.32,2.82-6.15,6.18-7.7,1.51-.7,2.7-1.92,3.86-3.07,3.73-3.71,8.09-4.18,12.88-2.7,2.58.8,4.93,2.07,7.24,3.4,1.39.81,2.76,1.65,4.17,2.43.98.53,1.93.85,1.93,2.38,0,.8,1.01,1.62,1.62,2.39,1.18,1.54,2.34,3.1,2.97,4.99h0Z"/>
  </g>
</svg>