<?xml version="1.0" encoding="UTF-8"?>
<svg id="Layer_2" data-name="Layer 2" xmlns="http://www.w3.org/2000/svg" viewBox="0 0 654.5 464.24">
  <defs>
    <style>
      .cls-1 {
        fill:#808080
      }
    </style>
  </defs>
  <g id="Layer_1-2" data-name="Layer 1">
    <path class="cls-1" d="m248.46,297.16c-15.14-11.38-33.89-26.81-45.74-35.02-11.84-8.21-33.37-30.78-45.17-46.42-2.78-3.68-16.12-8.51-21.87,10.27-14.39-.37-14.94,6.72-19.19,22.65-1.65,6.17-3.41,16.13-5.01,20.69-1.6,4.55-3.22,9.23-5.04,12.71-1.83,3.46-3.72,3.98-5.05,7.12-2.04,4.84,2.47.61,1.07,3.65-1.4,3.03-7.87,19.49-9.1,22.1-3.43,7.31.38,3.76-.73,6.3-.72,1.66-2.04,4.2-.56,3.97,1.49-.23-.64,1.67-3.25,6.12-2.61,4.45.3,1.12-2.11,5.2-2.42,4.06-.41,1.06-2.64,5.32-2.24,4.25,2.12-.8-1.11,3.33-2.37,3.06,1.09.35-2.09,4.8-3.16,4.48,2.86-.42-1.33,4.45-3.08,3.57.89,1.35-.88,3.78-3.13,4.25-.41,1.28-2.5,5.35-2.58,5.02,2-.16-1.83,5.72-3.39,5.2.39,1.24-2.36,4.78-2.76,3.54,1.15,2.07-1.06,5.78-2.22,3.71.29,2.43-1.92,4.97-2.48,2.88,1.38.82-.86,3.76-2.24,2.93.36.62-1.45,2.83-2.37,2.85.67.54-1.53,3.11-2.21,2.57.69.72-1.77,4.02-1.37,1.84-1.79,2.69-1.87,3.18-3.53-.93-9.74-2.88-13.92-3.43-5.38-.72-8.82,1.43-11.53.76-3.53-.88-11.67,3.86-8.69,7.71,3,1.14,14.35-5.09,21.55-4.69,3.14,1.99-2.45,6.47.82,5.49,1.01-.31,5.51.44,9.48.65-2.78,4.97,1.81,3.32-.89,6.66-3.72,4.68-.36,3.94-1.29,5.6-.89,1.68-4.95,5.34-6.06,10.84-4.84-1.16-10.69-6.76-17.08-4.51-6.39,2.26-13.64,2.63-16.4,1.51-5.52-2.25-11.87-1.65-15.69,1.45-3.82,3.12-1.16,4.6,3.22,3.32,14.4-5.03,6.33-1.6,13.02-1.21-5.62,5.5-1.79,6.88,7.89,3.12,4.58-2.33,11.07-.35,14.57-1.56,4.26,2.73,12.75,3.22,16.66-.2,2.81-7,5.98-15.17,9.37-24.09,1.02-.14,2.35-.74,3.47-1.61,2.32-1.84,15.93.06,18.73-.89,2.77-.95,3.43-1.6,4.86-8.09,1.44-6.51,42.54-129.61,45.93-151.5,11.08,4.06,27.53,24.82,38.87,39.04,6.26,7.8,14.77,21.16,19.59,26.34-12.71,8-24.39,16.72-6.29,14.66-9.08,4.85-26.65,13.74-28.67,19.59-14.9-3.55-15.31-3.62-7.41,3.51-.98.09-1.14,4.34-1.94,4.45-15.46-.24-14.9,3.42-1.11,4.67-2.59,6.61,4.88,13.87,14.03,16.03,2.15.51,2.78,2.8,7.4,3.59,5.6,2.15,10.73.12,10.73.12,5.22,4.39,16.03,4.15,20.96,2.87,5.4,3.3,14.97,3.25,20.6,1.7,12.65,2.74,24.34,4.11,31.42-.46l5.72,3.76c9.38,1.88,24.45,1.46,24.45,1.46.3,5.97.95,2.48-1.26,9.6-2.2,7.12.24,2.92.25,6.6,0,3.67-1.39,4.05-1.75,6.99-.33,2.92-.12,4.24,1.27,2.77-.45,3.55-.03,9.2-2.21,12.25-2.34,3.3-2.29,5.78-.76,4.55-.61,1.81.73-.75-2.51,3.15-3.27,3.91-1.6,3.33.57,3.49-5.5,4.38-11.62,12.57-14.61,14.47-2.96,1.89-3.6,4.22-4.65,9.06-1.03,4.85,1.7,2.99,2.75.41,1.06-2.61,3.92-6.51,6.29-8.09.91,9.49,4.85-2.18,6.95-5.26,2.09-3.1,5.34-1.6,7.13-10.68,4.49,4.94,3.07-15.43,5.56-26.19,1.46-8.47,2.25-14.34,4.03-22.47,2.63.03,4.76,0,6.67-.07.34,2.85,1.62,5.12,2.16,10.89.58,5.99,1.02,7.27,1.6,11.62.59,4.35,1.23,4.03,1.61,1.64.38-2.38.65-.43,2.64-.77,5.38-.96,5.19.24,8.16-4.23,2.23-2.96,4.01-3.44,5.11-1.68-.22-3.91,1.06-4.46-2.85-2.9-3.91,1.55-10.2,7.79-11.54,3.37-1.35-4.43.17-2-.61-4.68-2.04-6.96.63-2.67-.58-6.49-2.55-8.03.76-5.41.81-7.3,3.93-.58,7.52-1.6,13.91-3.29,9.16-2.43,17.32-10.25,21.8-11.4,5.87.71,13.97-.71,22.44-3.24,5.94,2.71,12.77,4.94,17.28,6.08l19.18,2.95c11.43,1.15,14.67-.63,18.77,15.41.52,1.94.27,1.96,1.6,2.75,1.38.79,2.78,0,1.99,3.6-.8,3.57,1.65,4.57,3.18,3.17,1.54-1.41.98,2.83.4,5.53-.88,4.12.22,2.17,2.57,2.55,4.38.75.17,9.19,1.86,9.16,1.69-.02,2.76.96,4.16,2.88,1.4,1.93-.13,5.94,2.79,6.36,2.94.43,7.98-.46,8.26,1.55.3,2.01,4.87,1.33,7,1.57,2.14.24,0,2.09,6.43,3.16,4.13.68,3.66,1.85,4.59-2.13,4.33.09,8.99,1.82,10.36,2.83,2.71-.47,4.49-3.42,5.49-4.95-1.8-4.03-7.05-1.99-15.68-1.79.3-3.46,1.25-4.06-4.79-2.61-3.24.79-9.05-1.26-12.41-2.72-3.39-1.44-9.71-13.85-11.73-16.71,1.34,1.92-8.31-17.16-13.98-30.1-5.06-11.6-13.19-8.62-25.62-13.04-.97-1.57-2.58-4-4.24-5.22-.52-.38-.91-.71-1.34-1.06,6.25-3.34,11.4-6.76,14.25-9.67,2.04,3.52,5.58,6.61,10.17,9.85.5,1.45,1.68,4.78,2.68,7.34,0,0-.12-.7,1.45-3.86.24-.51.6-.88.99-1.22,1.83.32,4,.47,6.03.53.07.42.17.88.29,1.47.52,2.78-.47,3.5-.47,3.5,0,0,3.32.94,3.47-1.96.08-1.18.13-2.19.18-3.01.44-.02.84-.04,1.21-.06.53,1.15,1.02,2.62.96,4.06,0,0,4.45-1.22,3.08-7.15.56-2.14.52-4.65.52-4.65l1.8-2.07c.41-.45.63-1.24.76-2.18,5.03-.77,9.83-2.18,14.49-3.71,8.05-2.68,10.26-1.06,10.57,3.49.33,4.54.86,9.59,2.07,14.61.51,2.03-3.81,5.74-2.58,6.81.57.5,6.02-1.65,5.46,2.98-.32,2.77-1.34,3.07-1.34,5.55,0,1.79,2.91,1.42,2.68,2.53-1.79,8.16.32,6.57,1.79,7.74,1.48,1.18-2.13,8.94,3.76,4.89,2.3-.02,6.75-.83,15.09,1,2.34.51,2.12.74,2.16-2.53,2.73-1.26,7.62-4.03,12.81,3.22,1.46,2.05,4.63-1.41,1.29-3.93-3.36-2.53-9.04-7.05-13.54-3.12-1.49-3.82,1.51-1.61-15.21,1.97-2.79-12.86-5.16-40.16-10.06-47.99-6.77-10.76-19.35-5.7-29.68-4.48,0-.23,0-.51,0-.74-.03-.95.23-3.24.06-4.89l-1.79-6.84c-.82-6.31,2.67-10.3-2.29-19,.36-.25,3.56-2.7,2.94-4.71,99.48-106.57,182.35-234.91,216.04-295.66-35.03,62.34-113.76,182.98-217.34,294.56-.91.22-2.29,1.59-3.12,2.48-.8-1.51-1.73-3.02-2.63-4.21.54-.66,1.63-2.14,1.79-3.32,63.91-97.48,101.58-163.53,129.48-214.78C587.47,36.98,601.22,0,601.22,0c0,0-14.26,34.33-39.5,82.06-26.07,49.26-66.35,114.34-129.89,213.78-1.04.32-2.43,1.89-3.01,2.55-6.94-3.28-18.57-2.95-29.81,2.58-35.75-12.3-99.6-9.18-150.55-3.81m-101.1-70.65c17.77,8.19,38.73,34.38,60.9,60.86-23.7-17.41-67.02-51.38-60.9-60.86m-77.1,172.86c18.95-50.37,42.82-118.2,50.13-142.55,2.24-7.48,4.74-8.86,6.51-16.82,1.54,1.91,3.54,2.98,6.7,4.45-1.37,8.11-5.14,17.08-5.43,19.88-.14,1.41.07,3.12-.91,5.03-.96,1.89-2.09,6.29-2.61,8.81-.51,2.52-2.78,9.5-4.39,13.05-1.6,3.55-.5,2.65.36,2.21-1.04,4.01-3,5.84-3.84,8.48-.84,2.62-.84,3.16.8,1.94-.74,2.34-2.27,4.91-3.44,7-1.18,2.13-.08,1.48.91,1.4-.53,1.62-2.22,6.97-3.51,8.99-1.29,2-.96,2.53.37,2.34-.72,2.48-3,4.77-4.15,8.28-1.16,3.53-1.3,3.81-.2,3.43-.62,2.17-1.06,3.96-3.54,7.53-2.32,3.35-1.37,3.87.16,2.96-.74,1.69-3.43,7.15-5.02,10.17-1.63,3.03-.96,3.46.9,2.29,0,0-2.53,6.22-3.72,8.2-1.17,1.97-1.49,2.85.71,1.72-1.18,2.36-.98,1.55-2.15,4.93-1.38,4-1.8,4.15-.39,3.14-.86,1.46-1.16,5.36-1.3,6.31-.34,2.6-1.72,0-2.42,2.24-.69,2.17-1.96,8.44-3.05,12.95-1.46,6.01-14.71-.19-16.68,1.13-.22.16-.5.33-.78.5"/>
  </g>
</svg>