<?xml version="1.0" encoding="UTF-8"?>
<svg id="Layer_2" data-name="Layer 2" xmlns="http://www.w3.org/2000/svg" viewBox="0 0 654.5 618.62">
  <defs>
    <style>
      .cls-1 {
        fill:#808080
      }
    </style>
  </defs>
  <g id="Layer_1-2" data-name="Layer 1">
    <path class="cls-1" d="m73.33.98c17.86,1.79,35.95,3.48,53.14,8.96,15.22,4.84,29.12,12.79,42.63,21.24,17.18,10.78,33.89,22.08,48.16,36.66,14.19,14.5,24.36,31.48,36.28,47.75,10.83,14.79,23.58,28.44,33.66,43.73,6.46,9.86,8.04,20.87,13.34,31.29,1.42,2.78,3.59,7.4,6.87,8.66,4.25,1.69,9.35-3.23,9.25-7.88,0-3.7-2.29-11.12,2.28-11.51-1.97-7.48-6.72-13.04-11.99-19.67-.03-.04-7.44-9.49-7.44-9.49-4.76-6.08-9.13-12.33-13.01-18.97-6.84-11.38-12.99-23.48-16.58-36.24-3.82-13.36-5.56-27.24-7.53-40.99-.56-4.47-3.41-8.27-3.85-12.74-.35-4.51,3.12-6.71,5.99-2.41,2.86,4.22,1.66,9.54,1.71,14.3,0,5.54.4,11.07,1.15,16.62,2.97,23.41,11.45,46.22,25.09,65.45,5.73,8.19,11.16,16.04,18.19,23.07,5.98,5.88,12.98,12.47,13.95,21.27h5.34c.88-8.8,7.9-15.38,13.83-21.27,7.12-7.03,12.55-14.88,18.22-23.07,13.65-19.23,22.13-42.04,25.19-65.45.75-5.56,1.1-11.08,1.1-16.62,0-4.76-1.1-10.08,1.7-14.3,2.9-4.3,6.34-2.1,5.95,2.41-.34,4.47-3.24,8.28-3.81,12.74-1.95,13.75-3.63,27.62-7.51,40.99-3.62,12.76-9.86,24.86-16.58,36.24-3.83,6.64-8.32,12.9-13.05,18.97l-7.37,9.49c-5.29,6.63-10.12,12.19-12.04,19.67,4.6.39,2.27,7.81,2.17,11.51-.03,4.65,5.14,9.57,9.43,7.88,3.18-1.26,5.42-5.88,6.87-8.66,5.13-10.42,6.71-21.43,13.22-31.29,10.07-15.29,22.89-28.94,33.73-43.73,11.85-16.27,22.04-33.24,36.25-47.75,14.3-14.57,31-25.88,48.19-36.66,13.42-8.46,27.42-16.4,42.63-21.24,17.18-5.48,35.21-7.18,53.06-8.96,21.65-2.13,80.21-3.99,72.67,31.24-2.83,13.5-11.6,24.47-17.9,36.47-10.15,19.7-8.67,42.72-9.65,64.25-1.47,37.5-9.58,83.6-31.48,115.06-12.85,18.49-33.41,15.69-53.14,16.69,7.78,11.99,15.44,23.45,24.49,34.5,6.62,7.77,13.31,16.77,13.99,27.23.85,10.72-7.44,15.72-10.08,25.24-1.68,6.21-.19,12.25,2.2,18.01,3.47,8.15,9.24,19.74,5.14,28.5-4.48,10.05-18.26,5.76-23.9,14.41-2.64,4-2.64,9.69-2.64,14.31.12,14.35,1.29,26.35-11.16,35.99-11,8.35-11.29,23.03-9.71,35.43,3.65,27.04,11.53,50.88,21.8,75.9,3.73,8.99,5.49,20.06,4.63,29.71-.78,10.78-13.17,20.36-22.02,10.72-5.56-6.02-4.41-15.8-5.64-23.32-2.37-16.61-6.65-35.32-15.11-49.92-4.37-7.63-10.37-30.07-22.49-20.23-5.93,4.62-11.92,27.42-22.31,20.76-4.95-3.15-7.88-10.13-13.87-4.66-5.64,5.23-4.63,20.47-14.81,20.83-12.04.49-13.75-12.82-15.01-21.99-1.44-10.74-3.15-21.34-14.08-26.45-24.36-11.37-13.12-38.91-18.72-59.28-2.3-8.26-7.88-14.84-12.63-21.71-4.51-6.48-5.53-12.68-6.44-20.33-4.76-35.71-7.51-70.76-24.71-103.54,1.66,3.34-.1,12.63-.12,16.51-.14,5.9-.26,11.74-.53,17.61-.29,10.13-.85,20.23-2.19,30.29-1.22,10.38-.97,27.93-12.32,32.94-17.24,7.63-21.85-17.12-23.89-28.59-3.74-22.81-3.27-45.71-3.59-68.77-17.17,32.77-20.02,67.83-24.7,103.54-1.02,7.66-1.93,13.86-6.43,20.33-4.76,6.87-10.3,13.44-12.58,21.71-5.69,20.37,5.58,47.91-18.83,59.28-10.88,5.12-12.55,15.71-14,26.45-1.2,9.17-3,22.48-15,21.99-10.06-.36-9.24-15.61-14.85-20.83-5.9-5.47-8.99,1.51-13.9,4.66-10.41,6.66-16.29-16.14-22.22-20.76-12.29-9.84-18.29,12.6-22.7,20.23-8.29,14.6-12.61,33.31-15.03,49.92-1.14,7.52,0,17.3-5.56,23.32-8.88,9.64-21.29.05-22.09-10.72-.88-9.65.92-20.72,4.66-29.71,10.38-25.02,18.26-48.86,21.75-75.9,1.77-12.4,1.27-27.08-9.61-35.43-12.51-9.64-11.41-21.64-11.15-35.99,0-4.62-.1-10.31-2.72-14.31-5.64-8.65-19.37-4.36-23.95-14.41-4.03-8.76,1.8-20.35,5.14-28.5,2.46-5.76,4-11.8,2.27-18.01-2.53-9.53-10.87-14.52-10.09-25.24.82-10.46,7.48-19.47,13.97-27.23,9.07-11.04,16.73-22.51,24.61-34.5-19.76-1-40.34,1.8-53.16-16.69-21.97-31.46-30.01-77.55-31.58-115.06-.98-21.53.59-44.55-9.56-64.25C12.4,56.69,3.52,45.72.65,32.22-6.79-3.01,51.81-1.15,73.33.98h0Z"/>
  </g>
</svg>