<?xml version="1.0" encoding="UTF-8"?>
<svg id="Layer_2" data-name="Layer 2" xmlns="http://www.w3.org/2000/svg" viewBox="0 0 484.55 654.5">
  <defs>
    <style>
      .cls-1 {
        fill:#808080
      }
    </style>
  </defs>
  <g id="Layer_1-2" data-name="Layer 1">
    <path class="cls-1" d="m0,477.56c7.86-27.35,26.25-48.49,41.73-71.41,14.11-20.89,35.09-32.42,56.41-43.76,19.74-10.49,39.39-21.17,59.03-31.83,1.77-.95,4.68-1.11,4.54-3.87-.13-2.57-2.9-2.94-4.69-3.91-21.32-11.62-42.27-24.07-64.18-34.46-25.68-12.17-44.44-31.2-59.89-54.23-6.59-9.82-12.61-20.04-19.38-29.73C1.9,187.71.15,169.12,1.09,149.53c1.35-28.04,10-53.93,21.56-79.08.83-1.81.99-4.28,4.64-5.07-1.04,7.27-2.05,14.12-2.96,20.97-2.89,21.69-8.33,43.09-8.37,65.11-.03,17.98,4.48,34.88,13.84,50.37,22.52,37.29,52.7,66.05,92.95,83.62,13.63,5.95,28.13,9.29,42.24,13.84,2.09.68,3.69.69,4.94-1.45,1.34-2.32,2.08-4.2.34-7.03-7.23-11.76-16-22.4-23.89-33.67-10.49-14.97-20.98-29.94-31.68-44.78-10.71-14.84-13.31-32.43-16.89-49.64-3.45-16.62-4.63-33.6-6.44-50.46-1.39-13.05,2.52-25.17,8-36.75,14.3-30.25,36.32-54.11,62.43-74.48.6-.47,1.48-.59,2.72-1.05.25,3.32-1.87,5.12-3.21,7.08-10.49,15.24-20.82,30.62-31.72,45.55-20.72,28.37-25.83,59.47-19.06,93.62,9.2,46.39,30.2,85.66,66.53,116.34.65.55,1.27,1.15,1.9,1.74,10.01,9.34,9.9,9.1,22.26,3.89,4.72-1.98,5.34-4.4,4.03-8.93-2.73-9.49-5.11-19.1-7.31-28.73-2.08-9.18,3.44-20.87,11.81-25.73,1.74,2.73.06,5.13-1.19,7.11-4.87,7.67-4.93,15.7-3.07,24.22,1.81,8.24,4.73,16.07,7.64,23.92.63,1.66,1.32,3.42,3.61,2.72,2.32-.7.96-2.46.85-3.78-.6-6.81,2.14-10.9,7.93-11.76,6.72-.99,10.98,1.95,12.29,8.93.46,2.49,1.13,3.94,3.92,4,2.94.05,3.98-1.19,4.48-4.12,1.13-6.75,5.16-9.57,11.72-8.87,5.93.64,8.62,4.15,8.57,11.3,0,1.45-.77,3.29,1.31,3.75,1.83.42,2.6-1.16,3.15-2.6,3.98-10.22,7.75-20.51,8.69-31.58.43-5.1-.77-9.75-3.27-14.23-1.5-2.68-3.66-5.38-2.38-8.95,8.07,3.95,14.13,16.37,12.07,25.44-2.22,9.85-4.71,19.64-7.46,29.35-1.15,4.06.52,5.28,3.72,7.37,10.01,6.51,16.38,3.26,24.98-4.27,38.38-33.61,59.86-75.71,67.65-125.6,4.64-29.73-1.33-56.8-18.53-81.44-10.97-15.7-21.87-31.44-32.75-47.19-1.68-2.42-3.76-4.65-4.48-7.66,2.03-1.32,3.04.21,4.1,1.05,24.92,19.72,46.17,42.52,60.2,71.42,6.99,14.39,10.68,29.06,8.38,45.47-2.52,18.06-4.38,36.18-7.77,54.16-3.62,19.31-11.59,36.21-23.2,51.84-14.61,19.68-28.72,39.75-43.01,59.67-1.38,1.92-2.51,4-3.74,6.03-1.76,2.86.55,4.88,1.57,7.1,1.11,2.41,3.17,1.64,5.05,1.14,30.78-8.22,60.03-19.5,84.95-40.26,20.41-17.01,37.3-36.89,50.29-59.99,12.23-21.76,14.13-45.24,10.37-69.46-3.14-20.15-6.32-40.3-9.48-60.45-.17-1.05-.36-2.11.74-2.93,2.28.02,2.51,2.11,3.13,3.53,9.06,20.48,17.94,41.1,20.42,63.6,1.67,15.12,3.46,30.38.47,45.61-1.13,5.73-2.8,11.34-5.75,16.37-14.35,24.55-29.55,48.54-49.06,69.42-12.78,13.68-30.12,20.44-45.99,29.35-17.05,9.58-34.49,18.45-51.61,27.9-7.07,3.9-6.99,6.65.21,10.59,21.67,11.87,43.09,24.33,65.32,35.06,24.15,11.65,41.91,29.61,56.55,51.34,6.23,9.29,11.75,19.09,18.47,28.01,14.04,18.66,15.77,39.76,14.36,61.98-1.74,27.36-10.89,52.44-22.1,77-.55,1.22-.63,3.1-3.4,3.29.2-9.42,2.37-18.49,3.56-27.64,2.29-17.67,6.34-35.08,7.19-52.95,1.15-24.41-6.31-46.06-20.05-66-22.24-32.26-50.24-57.53-86.42-73.27-13.06-5.68-26.91-8.91-40.34-13.42-2.15-.72-4.14-.96-5.47,1.64-1.37,2.7-2.83,4.9-.71,8.23,5.96,9.49,12.98,18.22,19.45,27.32,9.24,12.96,18.28,26.09,28.02,38.67,13.47,17.37,19.8,37.41,23.6,58.58,2.99,16.72,4.65,33.6,6.44,50.47,1.53,14.39-2.63,27.6-8.9,40.38-13.33,27.19-32.71,49.33-56.18,68.14-2.17,1.74-4.13,3.74-6.19,5.63h-2.58c.74-1.54,1.29-3.2,2.26-4.59,11.97-17.34,24.15-34.55,35.96-52.01,11.39-16.84,19.33-35.11,19.45-55.82.23-36.09-9.64-69.55-27.24-100.9-13.3-23.71-33.04-41.65-52.73-59.67-1.23-1.12-2.56-2.48-4.37-.77.1.44.05.97.29,1.21.6.6,1.31,1.11,2.03,1.59,11.77,7.91,21.14,18.04,29.04,29.84,8.98,13.43,10.05,27.33,3.06,41.54-12.89,26.22-30.36,49.17-53.72,66.75-20.87,15.7-36.31,16.46-55.69,1.13-24.14-19.09-45.1-41.13-60.1-68.29-7.51-13.56-6.5-27.29.3-40.78,6.98-13.84,19.23-22.28,31.68-30.49,1.24-.81,4.08-1.22,2.83-3.32-1.39-2.32-3.79-1.5-5.5.24-11.68,11.72-24.76,21.99-35.47,34.73-24.63,29.28-38.31,63.33-44.37,100.83-4.54,28.11-.34,54.45,15.47,78.4,8.89,13.46,18.42,26.48,27.46,39.83,4.57,6.74,9.92,12.99,13.22,20.55h-2.58c-2.06-1.89-4.01-3.89-6.19-5.63-23.45-18.8-42.82-40.93-56.16-68.1-6.28-12.77-10.45-25.97-8.93-40.36,1.79-16.85,3.45-33.73,6.44-50.43,3.8-21.16,10.05-41.21,23.52-58.57,9.75-12.57,18.76-25.71,28.01-38.65,7.25-10.14,14.31-20.42,21.63-30.49,1.73-2.36,1.43-4.23.23-6.48-1.21-2.23-2.99-2.22-4.95-1.53-14.18,4.97-28.95,8.18-42.81,14.12-36.64,15.71-65.05,41.14-87.52,73.8-13.73,19.94-21.17,41.58-20.02,65.97.84,17.86,4.9,35.27,7.18,52.93,1.2,9.16,3.35,18.23,3.58,28.46-3.25-2.15-3.73-4.8-4.74-7-10.12-22.41-18.4-45.35-20.6-70.1v-34.87h0Z"/>
  </g>
</svg>