<?xml version="1.0" encoding="UTF-8"?>
<svg id="Layer_2" data-name="Layer 2" xmlns="http://www.w3.org/2000/svg" viewBox="0 0 439.69 654.5">
  <defs>
    <style>
      .cls-1 {
        fill:#808080
      }
    </style>
  </defs>
  <g id="Layer_1-2" data-name="Layer 1">
    <path class="cls-1" d="m435.46,414.57c-2.87-.62-5.81-.39-8.67-.92-6.82-1.22-13.56-2.55-20.44-3.3-4.82-.51-10.16-1.03-11.88-6.36-5.23-16.61-17.8-26.12-29.58-38.2-6.93-6.98-13.42-14.68-21.34-20.65-3.48-2.73-8.42-4.45-10.76-8.4-2.38-3.74-1.3-8.54-4.86-11.54-8.9-7.37-22.6-5.03-33.16-5.09-7.6,0-15.56,1.72-23.08.69-3.46-.35-5.99-2.76-9.09-3.9-3.54-1.33-6.67-.76-10.21-.45-2.8-5.4-3.86-9.46-3.81-15.81,11.98,4.73,19.3-3.17,29.35-8.46,3.87-1.9,8.15-2.96,12.09-4.61,8.24-3.48,17.42-6.4,24.46-12.16,6.86-5.65,5.3-11.54,8.1-19.04.8-1.86,2.99-3.37,4.11-5.11,8.07-14.22,8.26-35.41,8.21-51.28,0-3.3-1.93-12.85-.42-15.28,3.74-6.1,6.98-12.32,9.98-18.79,1.75-3.88,2.98-8.72,6.45-11.47,2.71-2.25,8.97-4.2,8.19-8.79-.69-3.26-2.96-.18-5,.65-1.79.69-5.17,3.85-6.73,1.83-6.27,8.05-9.64,17.99-14.57,26.82-5.8,10.16-14.98,17.72-16.48,30.03-1.26,10.69.64,21.38,1.29,32.01.21,4.54,1.67,12.5-2.55,15.77-4.54,3.28-10.54,4.31-15.29,7-4.27,2.34-7.69,5.83-11.4,8.91-8.86,7.83-18.13,16.09-28.29,22.39-2.87,1.75-5.97,4.89-9.11,5.87-1.45-4.02-2.2-6.1-5.25-9.11-2.37-2.48,10.67-16.01,5.16-22.05,1.05-1.08,2.75-1.6,3.88-2.78,5.97-5.88,12.07-10.6,16.29-17.95,5.41-9.45,8.46-21.38,10.49-31.98,2-10.19,1.38-22.35-4.4-31.46-2.14-3.4-5.39-6.52-6.56-10.55,8.01-10.74,17.26-20.38,23.54-32.49,12-23.64,25.67-46.22,36.58-70.56,0,0,9.41-21.36,10.1-23.86,3.76-13.19,11.93-26.07,18.54-38.02,3.05-5.46-2.75-8.31-6.88-4.22-5.04,5.02-7.23,14.53-10.03,20.84-4.02,8.76-7.74,17.62-11.45,26.45-3.74,9.06-7.38,18.28-11.95,27.05-10.94,21.61-23.77,41.78-35.68,62.75-5.28,9.22-8.99,19.6-16.98,26.85-3.85,3.42-6.13-5.73-4.73-8.12,1.59-2.64,3.12-4.75,1.4-7.78-.85-1.52-4.1-4.47-5.97-2.62-1.22,1.15-.23,4.5-.85,6.04-1.76,4.93-2.41-.39-4.89-2.93-4.81-4.75-16.5-19.69-24.5-12.83,1.95,2.38,8.12,4.84,8.58,8.08.62,7.02-12.1,3.14-15.37,3.01-3.65-.23-16.43,4.18-15.56-3.01.36-3.24,6.35-5.71,8.42-8.08-8.05-6.86-19.71,8.08-24.5,12.83-2.46,2.53-3.22,7.85-4.93,2.93-.46-1.54.46-4.89-.83-6.04-1.93-1.84-5.17,1.1-5.97,2.62-1.67,3.03-.21,5.14,1.45,7.78,1.33,2.39-.97,11.54-4.8,8.12-8.08-7.25-11.73-17.64-16.86-26.85-12-20.97-24.83-41.14-35.89-62.75-4.47-8.77-8.03-17.99-11.89-27.05-3.72-8.83-7.48-17.69-11.34-26.45-2.92-6.31-5.12-15.83-10.12-20.84-4.08-4.09-9.78-1.24-6.7,4.22,6.5,11.95,14.61,24.83,18.34,38.02.71,2.5,10.16,23.86,10.16,23.86,10.79,24.34,24.67,46.92,36.64,70.56,6.15,12.1,15.46,21.75,23.49,32.49-1.24,4.02-4.43,7.14-6.54,10.55-5.83,9.11-6.38,21.27-4.43,31.46,2.07,10.6,5,22.53,10.53,31.98,4.2,7.35,10.33,12.07,16.2,17.95,1.19,1.19,2.78,1.7,3.95,2.78-5.44,6.04,7.59,19.57,5.14,22.05-3.05,3.01-3.88,5.09-5.23,9.11-3.21-.97-6.29-4.11-9.18-5.87-10.16-6.29-19.18-14.55-28.24-22.39-3.74-3.08-7.11-6.57-11.38-8.91-4.75-2.7-10.87-3.72-15.28-7-4.31-3.28-2.78-11.24-2.54-15.77.5-10.63,2.54-21.32,1.31-32.01-1.56-12.3-10.78-19.87-16.45-30.03-4.96-8.83-8.45-18.77-14.64-26.82-1.58,2.02-4.98-1.13-6.7-1.83-2.02-.83-4.43-3.92-5.07-.65-.71,4.59,5.55,6.54,8.26,8.79,3.35,2.75,4.66,7.59,6.4,11.47,2.8,6.47,6.22,12.69,10,18.79,1.47,2.43-.48,11.98-.48,15.28-.09,15.86.18,37.06,8.4,51.28.9,1.74,3.14,3.24,3.85,5.11,2.85,7.5,1.37,13.38,8.13,19.04,7.04,5.76,16.31,8.68,24.53,12.16,3.88,1.65,8.21,2.71,12.07,4.61,10.03,5.28,17.37,13.19,29.35,8.46.16,6.34-1.03,10.4-3.81,15.81-3.65-.32-6.75-.89-10.16.45-3.15,1.13-5.65,3.54-9.13,3.9-7.53,1.03-15.46-.69-23.04-.69-10.7.05-24.41-2.29-33.3,5.09-3.44,2.99-2.3,7.8-4.66,11.54-2.48,3.95-7.35,5.67-10.97,8.4-7.87,5.97-14.34,13.67-21.25,20.65-11.7,12.07-24.34,21.59-29.62,38.2-1.72,5.34-6.97,5.85-11.79,6.36-6.95.74-13.7,2.07-20.44,3.3-2.92.53-5.92.3-8.77.92-10.37,2.25,1.29,7.46,5.48,3.28-2.89,3.15,1.4,4.59,4.38,4.34,2.5-.09,4.94-1.35,7.16-1.99,6.34-2,12.9-1.9,19.34-2.32,10.53-.67,18.47-8.08,24.92-15.72,7.75-9.36,15.6-18.57,23.68-27.67,5.9-6.63,11.34-12.96,15.15-20.95,1.77-3.6,3.33-7.74,6.1-10.71,3.99-3.99,8.08-2.89,13.08-2.73,10.97.23,20.72-5,30.93-8.24,9.78-2.93,20.75-2.64,30.15-7.29,1.4-.76,4.45-1.77,4.45-1.77-5.67,1.97-2.75,8.44-.99,12.26,1.38,3.12,2.73,4.29,1.2,7.69-1.59,3.31-5.88,9.85-8.84,12.14-6.36,4.88-14.55,8.12-21.48,12.27-12.69,7.5-36.42,13.98-40.25,30.42-1.13,4.73.07,10.39,1.24,15.05.32,1.54-3.54,6.84-4.29,8.17-2.73,5.25-5.32,10.42-8.03,15.61-5.97,11.29-11.06,22.99-15.67,34.88-3.95,10.4-10.99,23.79-9.16,35.24.6,2.91,2.55,6.42,1.7,9.43-.94,3.49-5.33,5.81-7.83,8.19-3.39,3.22-6.26,6.72-8.86,10.4-2.48,3.39-4.31,7-7.64,9.52-4.68,3.7-8.4,5.85-7.64,12.67.09,1.22,4.84-4.91,4.84-5.03l1.84-2.8s.62-2.11,1.33,0c.85,2.59,3.65,3.81,5.92,2.21,1.75-1.33,1.91-4.48,2.6-6.33,5.05-13.9,23.24-17.33,24.27-34,.6-7.62,3.95-15.69,6.42-22.85,2.92-8.05,6.19-15.92,9.38-23.84,2.09-4.96,3.65-10.97,6.7-15.44,6.91-10.62,4.13-25.37,12.76-35.13,4.02-4.57,10.25-6.22,14.39-10.67,7.39-7.76,11.98-18.15,21.34-23.77,2.87-1.77,5.51-3.14,7.99-5.41,1.1-.94,5.25-3.7,5.71-4.78-1.6,4.63-5.02,6.95-4.73,12.41.69,9.85-7.34,16.75-8.13,26.18-.37,4.77,1.19,8.21-1.31,12.69-4.61,8.12-15.3,19.82-6.47,29.12.35.3-7.48,16.84-8.05,18.54-3.01,8.93-5.35,20.53,2.11,27.95,1.74,1.79,2.02,2.02,2.15,2.07,3.1,3.21-1.47,17.14-2.15,21.29-1.54,9.84-1.7,18.73,6.98,24.9,2.52,1.67,4.27,2.39,4.27,2.39,0,.05-2.2,14.82-2.36,16.47-.51,10.46,6.65,19.66,16.68,22.39-1.26-.37-.39,14.07-.25,15.37.76,5.8,3.85,11.2,7.5,15.79,1.91,2.2,8.17,10.16,11.56,9.27-3.6.94,6.65,16.94,7.02,16.86-4.27.76-8.12,3.49-10.21,7.28-1.68,2.96-2.14,6.38,2.09,3.55,1.1-.71,3.15-2.43,4.57-3.12,3.99-1.93,6.22-2.43,10.58-3.17.3-.02,3.47,3.48,4.5,3.88,2.64,1.08,7.5.89,10.33.39,1.22-.23,5.92-4.18,5.37-4.27,4.2.74,6.56,1.24,10.56,3.17,1.24.69,3.51,2.41,4.45,3.12,4.31,2.83,3.85-.59,2.11-3.55-2.11-3.79-5.81-6.52-10.18-7.28.46.09,10.67-15.92,7.02-16.86,3.48.89,9.66-7.07,11.59-9.27,3.6-4.59,6.68-10,7.5-15.79.12-1.29,1.05-15.74-.23-15.37,10.07-2.73,17.16-11.93,16.68-22.39,0-1.65-2.36-16.41-2.36-16.47,0,0,1.81-.73,4.24-2.39,8.65-6.17,8.52-15.07,6.98-24.9-.67-4.15-5.39-18.08-2.07-21.29.09-.05.28-.28,2.07-2.07,7.43-7.43,5.12-19.02,2.07-27.95-.53-1.7-8.3-18.24-8.05-18.54,8.86-9.31-1.77-21.01-6.4-29.12-2.5-4.48-.96-7.92-1.38-12.69-.71-9.43-8.83-16.32-8.15-26.18.3-5.46-3.08-7.78-4.64-12.41.39,1.08,4.64,3.85,5.67,4.78,2.55,2.27,5.03,3.63,8,5.41,9.39,5.62,13.98,16.01,21.34,23.77,4.22,4.45,10.35,6.1,14.43,10.67,8.54,9.77,5.71,24.51,12.69,35.13,3.07,4.47,4.63,10.48,6.67,15.44,3.3,7.92,6.49,15.79,9.41,23.84,2.54,7.16,5.89,15.22,6.33,22.85,1.1,16.66,19.32,20.1,24.44,34,.58,1.84.78,5,2.59,6.33,2.27,1.6,5,.37,5.8-2.21.81-2.11,1.49,0,1.49,0l1.77,2.8c0,.12,4.75,6.26,4.91,5.03.66-6.83-2.96-8.97-7.77-12.67-3.33-2.52-5.16-6.13-7.55-9.52-2.67-3.69-5.6-7.18-8.81-10.4-2.55-2.38-7-4.7-7.85-8.19-.97-3.01,1.01-6.52,1.52-9.43,1.88-11.45-5.12-24.83-9.09-35.24-4.5-11.89-9.63-23.59-15.55-34.88-2.75-5.19-5.42-10.37-8.21-15.61-.66-1.33-4.52-6.63-4.25-8.17,1.24-4.66,2.59-10.32,1.33-15.05-3.99-16.43-27.54-22.92-40.23-30.42-6.93-4.15-15.17-7.39-21.5-12.27-3-2.29-7.3-8.83-8.84-12.14-1.51-3.4-.29-4.57,1.26-7.69,1.7-3.83,4.59-10.3-1.19-12.26,0,0,3.21,1.01,4.55,1.77,9.34,4.64,20.31,4.36,30.06,7.29,10.31,3.24,19.99,8.47,30.93,8.24,5.19-.16,9.18-1.26,13.08,2.73,2.89,2.96,4.4,7.11,6.24,10.71,3.76,7.99,9.2,14.32,15.07,20.95,8.01,9.09,15.86,18.31,23.75,27.67,6.45,7.64,14.23,15.05,24.83,15.72,6.56.43,13.08.32,19.36,2.32,2.27.64,4.7,1.9,7.18,1.99,3.03.25,7.32-1.19,4.4-4.34,4.09,4.18,15.88-1.03,5.4-3.28h0Z"/>
  </g>
</svg>