<?xml version="1.0" encoding="UTF-8"?>
<svg id="Layer_2" data-name="Layer 2" xmlns="http://www.w3.org/2000/svg" viewBox="0 0 593.31 654.5">
  <defs>
    <style>
      .cls-1 {
        fill:#808080
      }
    </style>
  </defs>
  <g id="Layer_1-2" data-name="Layer 1">
    <path class="cls-1" d="m3.8,279.65c4.56-1.73,10.02.55,14.6-.94,5.4-1.79,11.1-3.9,16.41-5.93,9.06-3.49,17.25-8.23,26.96-10.26,10.04-2.14,20.41-2.96,30.63-2.96,19,0,38.51.09,56.68,6.34,7.09,2.49,12.69,10.11,17.58,15.58,6.39,7.23,11.69,15.33,18.37,22.36,9.88,10.57,20.91,20.23,33.93,26.73,7.07,3.46,21.06,11.74,29.1,8.21,3.56-1.62,4.85-5.6,2.04-8.87-3.22-3.73-8.47-5.86-12.1-9.33-5.03-4.95-10.16-9.2-15.62-13.53-5.07-4.03-8.84-9.37-13.26-13.99-4.28-4.47-9.25-8.32-13.73-12.61-5.34-5.16-9.39-11.33-12.44-18.05-3.81-8.26-8.62-14.71-13.85-22.1-4.03-5.7-7.72-11.56-10.83-17.77-5.68-11.15-11.89-21.99-17.31-33.3-3.87-8.17-5.38-16.98-8.76-25.32-8.76-21.58-27.51-36.19-33.68-59.29-3.95-14.84-9.45-30.88-20.37-42.21-4.42-4.66-5.82-10.26-8.43-15.97-2.53-5.43-6.21-10.46-5.56-16.74.73-8.71-6.66-12.19-10.2-18.99-2.75-5.4-1.34-12.33,6.03-10.38,6.17,1.59,8.11,8.18,10.39,13.33,2.93,6.55,5.84,13.17,9.94,19.13,6.03,8.81,10.33,16.12,13.93,26.34,2.65,7.36,6.23,14.1,10.49,20.67,10.18,15.56,15.64,33.49,22.48,50.64,3.34,8.42,7.01,16.81,11.73,24.58,4.77,7.78,11.06,14.59,15.91,22.39,4.97,7.88,9.49,16.05,15.05,23.59,6.96,9.65,14.66,19.06,18.78,30.45,5.68,16.29,17.31,28.9,24.01,44.65,2.95,6.69,7.59,8.12,14.07,10.75,6.5,2.65,10.18,7.3,14.19,12.69,2.28,3.11,7.51,10.26,11.95,6.46,3.16-2.7-.75-10.38-2.1-13.27-1.85-3.94-4.58-8.09-4.95-12.56-.49-6.03-6.25-9.08-5.46-16.12,1.22-10.27,11.97-16.46,1.91-26.61-9.31-9.26,2.24-17.88,10.55-9.13,3.18,3.27,2.93,19.11,2.1,23.24-1.87,8.43-6.82,11.55-1.04,19.95,3.1,4.56.55,24.57,9.72,22.83,3.03-.55,2.81-3.27,4.01-5.47,2.63-4.6,8.78-6.58,9.82-12.03,1.26-6.44-4.28-29.47,6.74-29.47,9.45.03,7.31,9.48,6.05,15.96-1.32,6.56-.14,12.56,1.14,19h10.57c1.24-6.44,2.44-12.44,1.16-19-1.28-6.48-3.48-15.93,5.91-15.96,11.12,0,5.6,23.03,6.78,29.47,1.08,5.46,7.29,7.43,9.86,12.03,1.24,2.2.96,4.92,4.03,5.47,9.1,1.74,6.58-18.27,9.71-22.83,5.74-8.4.71-11.52-.98-19.95-.98-4.12-1.14-19.97,1.93-23.24,8.37-8.75,19.86-.12,10.73,9.13-10.22,10.15.59,16.33,1.83,26.61.83,7.04-4.99,10.09-5.5,16.12-.37,4.47-3.08,8.63-4.91,12.56-1.24,2.89-5.28,10.57-2.16,13.27,4.44,3.81,9.72-3.35,11.98-6.46,4.07-5.39,7.7-10.04,14.24-12.69,6.35-2.63,11.12-4.06,13.97-10.75,6.76-15.75,18.37-28.36,24.07-44.65,4.05-11.38,11.73-20.79,18.78-30.45,5.52-7.54,10.08-15.71,15.03-23.59,4.87-7.8,11.18-14.61,15.93-22.39,4.81-7.77,8.45-16.16,11.81-24.58,6.76-17.15,12.22-35.08,22.4-50.64,4.3-6.57,7.88-13.31,10.47-20.67,3.67-10.22,7.98-17.53,13.95-26.34,4.01-5.97,7.03-12.59,9.92-19.13,2.34-5.15,4.24-11.74,10.39-13.33,7.39-1.96,8.88,4.98,6.03,10.38-3.54,6.8-10.98,10.28-10.08,18.99.55,6.28-3.18,11.31-5.62,16.74-2.69,5.7-4.05,11.3-8.43,15.97-10.88,11.32-16.4,27.37-20.31,42.21-6.21,23.11-25.07,37.72-33.81,59.29-3.34,8.34-4.91,17.16-8.76,25.32-5.34,11.3-11.59,22.15-17.23,33.3-3.09,6.21-6.92,12.07-10.94,17.77-5.21,7.38-10,13.84-13.73,22.1-3.1,6.72-7.17,12.89-12.53,18.05-4.46,4.29-9.43,8.13-13.66,12.61-4.54,4.62-8.19,9.96-13.32,13.99-5.52,4.33-10.63,8.58-15.68,13.53-3.54,3.47-8.9,5.6-12,9.33-2.91,3.27-1.55,7.25,2.06,8.87,7.92,3.53,22.04-4.75,28.98-8.21,13.14-6.5,24.09-16.16,34.05-26.73,6.62-7.04,11.99-15.13,18.39-22.36,4.79-5.47,10.36-13.09,17.49-15.58,18.17-6.25,37.68-6.34,56.76-6.34,10.2,0,20.51.83,30.51,2.96,9.75,2.04,17.92,6.77,27.13,10.26,5.17,2.03,10.91,4.13,16.25,5.93,4.62,1.49,10.04-.79,14.6.94,4.75,1.76,5.36,6.57.43,8.87-10.94,5.17-21.89-1.31-31.85-5.79-16.43-7.4-34.42-3.45-51.56-1.77-6.54.65-13.18,1.28-19.67.1-6.94-1.25-13.75-5.71-21.04-5.17-5.6.45-7.72,4.62-11.59,7.78-4.64,3.79-11.16,3.66-15.78,7.51-4.97,4.15-5.91,11.05-8.72,16.56-2.79,5.66-7.23,10.15-12.65,13.32-17.96,10.41-31.91,29.36-54.25,30.33-4.93.23-10.2-.77-15.09.1-6.27,1.11-7.72,6.23-6.52,12.23.45,2.11,1.63,2.51,3.4,3.37,1.61.83,10.04,2.09,13.05,2.09,6.58,0,13.2-.55,19.82.44,12.02,1.82,22.91,5.42,35.31,5.24,9.29-.13,18.49,1.05,27.31,4.25,7.29,2.69,14.48,6.13,21.93,8.84,7.76,2.86,15.88,3.3,23.68,5.86,4.42,1.48,8.78,3.21,13.22,4.93,9.53,3.73,17.37,12.56,25.25,18.98,7.72,6.32,15.6,12.46,23.63,18.53,3.6,2.68,7.51,5.37,10.41,8.9,3.36,4.12,3.1,9.09-3.22,8.17-5.3-.77-12.1-5.88-16.09-9.6-6.78-6.56-14.11-12.85-22.1-18.02-4.72-3.07-10.14-4.52-15.32-6.43-4.78-1.74-9.35-4.47-14.24-5.94-4.3-1.25-7.98-1.71-11.71-4.15-10-6.54-22.75-8.25-34.36-9.86-13.34-1.92-27-1.12-40.32-2.82-8.35-1.09-15.58-5.12-22.95-8.8-8.31-4.14-18.21-4.83-27.41-5.77-6.72-.68-14.76-.48-17.27,7.15-2.71,8.06,3.97,12.64,10.55,14.99,8.35,2.92,14.89,5.16,20.59,12.43,6.25,8.14,13.4,15.7,18.57,24.63,6.05,10.22,7.58,22.12,11.77,33.07,6.8,18.29,15.74,35.69,24.46,53.13,5.74,11.43,10.79,24.37,14.3,37.12,2.3,8.48,2.73,16.84,7.55,24.44,4.67,7.21,11.04,13.43,13.44,21.86,2.53,8.64,4.79,17.38,6.74,26.16.9,4.4,3.3,12.86-1.02,16.38-3.89,3.23-8.84-.46-11.04-4-3.24-5.5-.94-11.7-1.81-17.63-1.2-7.9-7.74-15.18-10.79-22.57-3.18-7.94-6.11-16.13-12.36-22.3-7.47-7.47-12.89-15.76-13.91-26.48-1.22-11.49,2.02-23.99-4.89-34.3-3.09-4.6-8.21-7.34-11.69-11.61-5.64-6.75-4.21-18.13-7.8-26.12-3.75-8.34-9.57-15.3-14.95-22.73-4.52-6.55-6.56-14.31-10.69-21.09-3.71-5.98-13.89-12.12-14.32-.22-.9,25.41,3.26,48.45-9.9,71.74-2.87,5.21-6.66,9.97-11.69,13.4-16.84,11.9-38.55,11.84-55.39,0-5.01-3.43-8.7-8.2-11.59-13.4-13.18-23.3-9.1-46.34-9.94-71.74-.43-11.89-10.65-5.75-14.34.22-4.15,6.78-6.13,14.54-10.75,21.09-5.19,7.42-11.1,14.39-14.91,22.73-3.56,7.99-2.22,19.37-7.72,26.12-3.6,4.27-8.61,7.01-11.73,11.61-6.92,10.31-3.73,22.81-4.85,34.3-1.04,10.71-6.52,19-14.01,26.48-6.21,6.17-9.06,14.36-12.34,22.3-3.12,7.39-9.51,14.67-10.76,22.57-.92,5.93,1.43,12.13-1.95,17.63-2.08,3.54-7.01,7.23-11,4-4.21-3.52-1.91-11.98-.88-16.38,1.93-8.78,4.16-17.52,6.7-26.16,2.36-8.43,8.8-14.65,13.4-21.86,4.83-7.59,5.19-15.96,7.53-24.44,3.59-12.75,8.59-25.68,14.34-37.12,8.72-17.44,17.64-34.84,24.5-53.13,4.11-10.96,5.6-22.85,11.67-33.07,5.13-8.93,12.4-16.5,18.67-24.63,5.6-7.27,12.14-9.51,20.55-12.43,6.6-2.35,13.3-6.93,10.55-14.99-2.53-7.63-10.55-7.83-17.37-7.15-9.04.95-19,1.63-27.35,5.77-7.37,3.68-14.52,7.71-22.87,8.8-13.4,1.7-26.98.89-40.38,2.82-11.63,1.61-24.42,3.32-34.29,9.86-3.81,2.44-7.45,2.9-11.69,4.15-4.91,1.47-9.43,4.2-14.32,5.94-5.21,1.9-10.57,3.36-15.29,6.43-7.98,5.17-15.29,11.47-22.18,18.02-3.87,3.73-10.65,8.83-16.07,9.6-6.19.93-6.52-4.04-3.12-8.17,2.85-3.53,6.84-6.22,10.3-8.9,8.09-6.07,15.93-12.22,23.64-18.53,7.88-6.41,15.78-15.25,25.34-18.98,4.42-1.72,8.74-3.44,13.18-4.93,7.76-2.56,15.93-2.99,23.68-5.86,7.43-2.71,14.66-6.15,21.96-8.84,8.76-3.2,18-4.38,27.29-4.25,12.44.17,23.3-3.42,35.37-5.24,6.5-.99,13.24-.44,19.79-.44,2.99,0,11.42-1.25,13.14-2.09,1.63-.86,2.93-1.26,3.36-3.37,1.18-6-.33-11.12-6.64-12.23-4.95-.87-10.22.13-15.13-.1-22.2-.98-36.23-19.93-54.15-30.33-5.46-3.17-9.9-7.66-12.69-13.32-2.71-5.51-3.75-12.4-8.76-16.56-4.58-3.85-11-3.72-15.66-7.51-3.89-3.16-6.13-7.33-11.67-7.78-7.19-.54-14.03,3.92-21.06,5.17-6.39,1.18-13.12.55-19.65-.1-17.19-1.68-35.07-5.63-51.5,1.77-10.04,4.48-20.96,10.96-31.91,5.79-4.93-2.3-4.22-7.11.41-8.87h0Z"/>
  </g>
</svg>