<?xml version="1.0" encoding="UTF-8"?>
<svg id="Layer_2" data-name="Layer 2" xmlns="http://www.w3.org/2000/svg" viewBox="0 0 599.61 654.5">
  <defs>
    <style>
      .cls-1 {
        fill:#808080
      }
    </style>
  </defs>
  <g id="Layer_1-2" data-name="Layer 1">
    <path class="cls-1" d="m0,457.21c6.71-1.64,13.4-3.3,20.12-4.93,3.3-.8,6.32-2.26,9.35-3.72,7.53-3.66,15.03-7.34,22.52-11.07,3.51-1.76,6.64-4.15,9.96-6.22.6-.36,1.1-.96,1.56-1.52,3.64-4.42,7.28-8.86,10.89-13.32,1.18-1.46,1.15-1.47-.43-2.62-2.79-2.06-5.69-3.9-9.09-4.87-1.2-.34-2.33-.92-3.49-1.38.08-.98.82-1.29,1.31-1.74,2.26-1.99,4.44-4.08,6.85-5.87,7.27-5.43,12.36-12.79,17.86-19.8,1.41-1.79,2.88-3.51,3.85-5.63.57-1.25.53-1.9-.84-2.5-2.83-1.25-5.58-2.65-8.37-4-.39-.2-.77-.44-1.38-.77,2.07-1.12,4.15-1.43,6.13-1.72,5.03-.73,8.99-3.41,12.59-6.64,7.71-6.95,15.28-14.06,22.92-21.1,2-1.86,1.92-2.86-.22-4.6-1.13-.93-2.27-1.83-3.4-2.75-.11-.11-.18-.31-.28-.48.51-.78,1.31-.44,1.97-.45,4-.03,8.02,0,12.03-.02,1.69-.01,3-1.4,3-3.06,0-.85-.75-.92-1.24-1.27-.81-.57-2.31-.54-1.85-2.19.47-1.73,1.76-.75,2.7-.81.63-.04,1.31-.06,1.9.08,5.09,1.34,8.92-1.59,12.82-3.96,2.16-1.32,3.96-3.2,6.01-4.73.93-.7,1.23-1.46,1.11-2.56-.19-1.9-.27-3.82-.46-5.71-.11-1.18.09-1.91,1.53-1.93,4.73-.05,9.47-.19,14.2-.27.09,0,.18-.01.27,0q2.47.3,3.57-1.85c7.27-14.16,14.17-28.52,21.83-42.49,2.14-3.91,4.38-7.77,6.58-11.65.52-.93,1.25-1.76.55-2.98-.27-.5-.09-1.25-.09-1.89-.03-3.45.34-3.19-3.31-3.13-8.03.17-15.96,1.18-23.81,2.88-2.04.44-4.14.68-6.16,1.19-5.87,1.48-10.65,4.67-14.14,9.62-3.99,5.67-8.3,11.07-12.89,16.26-.64.74-1.14,1.64-2.36,2.19-1.64-5.59-3.25-11.13-4.79-16.36-.52-.49-.78-.35-1.01-.23-11.17,6.9-23.66,10.64-35.92,14.93-8.6,3.02-17.54,4.65-26.41,6.65-2.37.53-4.78.97-7.06,1.44-.47-.51-.46-.97-.44-1.42.15-4.1.29-8.19.48-12.29.11-2.39-.23-2.42,2.71-2.42,1.83.01,3.66-.05,5.48.01,5.03.19,9.96-.49,14.85-1.66,8.66-2.06,17.41-3.81,26.02-6.04,5.78-1.49,11.49-3.4,16.72-6.84-3.52-3.76-6.99-7.46-10.65-11.36,3.32-1,6.35-1.37,9.35-1.93,1.81-.34,3.49-.88,5.04-1.92,2.95-1.96,5.98-3.82,8.96-5.73.94-.6,1.88-1.05,3.03-1.1,2.82-.15,5.63-.43,8.45-.55,1.14-.04,2.09-.38,3.03-1.03,1.64-1.14,3.36-2.17,5.01-3.31.81-.54,1.62-.75,2.57-.42,5.58,1.92,11.37,2.23,17.23,2.25,3.82.01,7.64.2,11.47.27,2.26.05,4.52-.05,6.89.32.74-3.3.53-6.57.83-9.78.88-.38,1.45.22,2.06.54,4.66,2.47,9.19,5.17,13.53,8.18,1.23.85,2.35,1.13,3.8.74,6.58-1.74,13.32-1.94,20.06-1.52,1.89.11,3.16-.22,3.94-1.98.32-.74,1.1-1.24,1.12-2.25-2.09-.81-4.21-1.58-6.27-2.49-9.6-4.16-12.77-11.43-9.28-21.29,1.26-3.56,3.2-6.74,5.47-9.73,2.04-2.68,4.28-5.2,6.6-7.65.67-.71,1.3-1.46,1.95-2.47-1.72.47-2.53-.7-3.49-1.53-3.18-2.7-6.34-5.42-9.7-8.3,2.43-2.21,4.66-4.34,7-6.31,1.16-.99,1.67-2.05,1.48-3.55-.13-.9-.18-1.84-.07-2.73.37-3.4-.54-6.17-3.37-8.34-1.58-1.23-1.37-2.28.45-2.84.95-.29,1.08-.74,1.16-1.5.96-9.05.44-18.02-1.81-26.84-.68-2.68-2.22-5.18-4.61-6.91-.56-.41-1.28-.68-.83-1.71.44-1,1.04-1.13,1.94-.86.27.08.53.15.8.21,4.66,1.08,5.27.79,7.36-3.41,1.02-2.09.92-2.9-.75-4.63-2.03-2.09-4.09-4.16-6.19-6.18-.78-.75-.72-1.35-.09-2.1.32-.38.7-.55,1.19-.38.51.19,1.1.29,1.52.6,3.49,2.63,6.66.75,9.89-.67.86-.37,1.16-1.09,1.35-1.91,1.46-6.78,1.43-13.55-.15-20.31-.21-.89-.58-1.7-1.21-2.41-2.18-2.43-4.29-4.94-6.48-7.39-1.65-1.83-1.99-3.93-.79-5.69,1.15-1.7,3.42-2.39,5.57-1.7,2.02.64,3.42,2.05,4.6,3.7.84,1.18,1.58,2.44,2.45,3.62,1.57,2.06,3.54,3.58,6.27,4.39,1.2-4.44,2.47-8.7,3.45-13.03.5-2.23-.34-4.52-.55-6.78-.37-4.08-1-8.13-1.38-12.22-.16-1.71-.78-3.11-1.69-4.5-2.78-4.27-5.49-8.59-8.4-13.17,6.37-2.49,12.59-4.92,19-7.42.99,3.31,1.1,6.5,1.8,9.59,2.72,12.21,1.98,24.65,2.68,37,.04.82-.04,1.61-.32,2.41-1.34,3.86-2.25,7.84-3.94,11.6-2.61,5.76,1.68,12.04,8.02,11.98.82,0,1.63-.12,2.44-.22.8-.09,1.15.42,1.45,1.01.29.58.02,1.03-.41,1.43-1.01.93-1.92,1.98-3,2.79-5.52,4.1-8.88,9.59-11.33,15.94-3.15,8.15-7,16-9.72,24.32-.52,1.6-.83,3.13-.61,4.81.77,5.84,1.47,11.69,2.24,17.77,1.34-.63,2.09-1.56,2.93-2.35.65-.6,1.19-.63,1.9-.13,1.93,1.37,3.87,2.76,5.86,4.01.98.6.66,1.87,1.45,2.43,1.47-1.39,2.96-2.72,4.36-4.14,5.29-5.43,10.85-10.5,17.11-14.83,11.42-7.89,23.97-11.02,37.77-9.44,6.06.69,12.04,1.76,17.97,3.13.44.1.85.34,1.69-.09-.89-.8-1.73-1.47-2.48-2.19-1.45-1.39-2.83-2.84-4-4.48-1.66-2.34-2.2-4.88-1.77-7.75,1.27-8.16,5.35-14.38,12.4-18.69,2.72-1.66,5.55-3.11,8.44-4.44,5.96-2.73,11.61-6.04,17.61-9.19-.62-.81-1.11-1.52-1.65-2.18-11.09-13.51-19.4-28.59-25.39-44.97-1.41-3.87-2.49-7.76-2.06-11.98.67-6.72,5.68-11.67,13.16-12.32,7.59-.67,13.85,2.31,19.09,7.63.9.91,1.64,1.97,2.14,3.15,1.41,3.43.49,6.64-2.72,8.48-4.64,2.65-9.53,3.43-14.69,1.6-1.28-.46-2.5-1.14-3.87-1.31-2.57-.31-4.02.97-3.92,3.57.05,1.37.43,2.71,1.05,3.93,3.89,7.59,7.22,15.49,12.39,22.42,4.23,5.69,8.47,11.41,12.01,17.58.67,1.16,1.34,1.48,2.63,1,5.99-2.22,12.2-3.61,18.53-4.4.54-.05,1.08-.2,1.62-.22,1.27-.06,2.64-.38,3.79-.02,1.29.41,1.21,2.09,1.75,3.2,4.04,8.27,12.29,11.61,21.38,8.63.27-.09.5-.26.76-.32,1.25-.28,2.33-1.6,3.5-1.24,1.4.43,1.88,2.12,2.7,3.3,5.22,7.46,10.23,15.06,14.75,22.98,1.32,2.29,1.06,2.23,3.75,1.83,19.19-2.69,37.69-7.86,55.54-15.39.5-.22,1.02-.4,1.51-.64,2.51-1.24,2.73-3.36.54-5.12-.56-.46-1.21-.82-1.84-1.15-1.98-1.06-3.56-2.52-4.86-4.31-1.29-1.79-2.76-3.36-4.84-4.29-1.78-.8-2.92-2.24-2.88-4.27.03-2.19,1.19-3.81,3.11-4.79,2.49-1.31,5.13-1.05,7.71-.33,5.4,1.51,9.52,4.81,12.79,9.27,2.06,2.83,3.52,5.93,4.49,9.3.34,1.23.24,2.24-.6,3.28-1.33,1.61-2.6,3.3-3.73,5.04-.9,1.37-2.13,2.12-3.56,2.84-10.79,5.37-22.32,8.7-33.69,12.53-6.33,2.14-12.91,3.01-19.38,4.4-2.92.62-5.85,1.19-8.84,1.79,1.37,3.66,2.78,7.11,3.97,10.64,2.04,6.03,3.93,12.12,4.91,18.45.52,3.37.42,6.72-.52,10-1.89,6.68-6.91,10.47-13.85,10.51h-1.84c.78,1.13,1.62,1.5,2.34,1.99,4.5,3.11,8.71,6.56,12.5,10.55,7.6,8.07,11.87,17.77,14.2,28.47,2.29,10.44,3.12,21.06,3.33,31.72.01.74.02,1.46.05,2.18.01.16.15.31.25.51,3.52-1.54,6.84.34,10.27.69.67.05.78.64.82,1.22.06,1.14.13,2.28.19,3.37,1.01.18,1.37-.45,1.85-.81,4.23-3.32,8.44-6.66,12.7-9.94,1.11-.86,1.85-1.91,2.47-3.16,5.34-10.59,9.19-21.79,13.6-32.76.4-.97.47-1.93.43-2.94-.17-3.72-.36-7.46-.47-11.19-.02-.86-.61-1.96.87-2.5,1.44-.5,1.68.58,2.28,1.33,3.55,4.52,9.84,4.78,13.53.57.75-.83,1.32-1.78,1.65-2.82,1.52-4.93,4.42-9.15,6.92-13.58.34-.6.93-1.11,1.48-1.58,4.78-4.07,9.34-8.4,13.89-12.74,2.91-2.78,6.12-5.14,9.54-7.26,3.17-1.94,6.11-4.27,9.17-6.43.44-.31.91-.58,1.42-.9.88.8,1.1,1.89,1.53,2.85,1.87,4.15,3.7,8.32,5.53,12.48.27.58.56,1.15.78,1.75.35,1.02.21,1.64-1.08,1.91-4.71.99-9.39,2.14-14.1,3.15-1.38.29-2.55.84-3.64,1.73-4.3,3.5-8.65,6.97-13.01,10.43-1.15.91-2.1,1.97-2.82,3.26-1.63,2.96-3.35,5.85-4.99,8.8-.86,1.57-.82,1.63.94,2.23,2.58.87,5.19.7,7.81.19,2.31-.47,4.59-1.2,6.99-.35,1.24.45,2.3,1.06,3.09,2.13,1,1.35,1.15,2.89.53,4.4-.74,1.79-2.27,2.59-4.13,2.62-3.2.06-6.36.36-9.54.61-1.33.1-2.44.5-3.53,1.21-5.42,3.52-9.88,8.01-13.46,13.38-.84,1.26-1.23,2.41-.38,3.77.1.15.15.33.19.5.76,3.35,2.82,5.29,6.13,6.12.73.19,2.28.09,1.79,1.77-.51,1.79-1.67.83-2.61.6-5.02-1.26-10.19,1.05-12.12,5.46-.83,1.89-.79,2.09.79,3.47,1.1.95,2.16,1.99,3.48,2.61.76.35,1.13.77.89,1.7-.24.94-.8,1.12-1.61,1-4.01-.57-7.48.76-10.73,2.96-6.61,4.48-12.46,9.78-17.51,15.95-.63.79-1.46,1.36-.38,2.66.78.95-.13,2.17-1.48,1.94-4.02-.7-6.65,1.31-9.21,3.98-2.87,2.99-2.99,2.87-2.79,7.04.09,1.91.24,3.82.4,5.73.12,1.32-.33,1.74-1.72,1.6-3.7-.36-7.43-.61-11.16-.84-2.19-.13-2.31-.08-2.51,2.01-.89,9.08-4.23,17.48-7.13,25.99-2.47,7.33-8.75,10.28-16.4,8.36-3.12-.79-5.92-2.29-8.74-3.75-1.28,2.3-1.28,2.29.65,3.64,4.03,2.81,8.2,5.45,12.04,8.51,2.84,2.24,5.89,3.81,9.23,5.05,2.55.96,5.02,2.13,7.59,3.02,1.55.52,2.15,1.47,2.32,2.96.17,1.54.38,3.08.75,4.59.31,1.3-.01,1.87-1.38,1.91-.72.03-1.91-.33-1.87.94.04,1.23,1.2.82,1.91.86,3.1.15,6.19.27,9.29.3,1.29.01,2.25.36,3.03,1.43.89,1.25,1.94,2.39,3.17,3.85-2.35,1.06-4.51,2.04-6.63,2.99.21,1,.9,1.35,1.41,1.83,7.42,7.01,14.64,14.21,21.56,21.72.89.97,1.88,1.67,3.1,2.14.85.32,1.68.69,2.53,1.03.75.29,1.55.45,1.54,1.58-.01,1.1-.71,1.34-1.51,1.6-.44.15-.87.28-1.27.49-1.71.92-2.88,2.35-3.18,4.23-.43,2.63,1.99,4.13,2.88,6.26.45,1.1,1.72,1.23,2.83,1.29.55.03,1.09.02,1.64-.03.82-.08,1.13.33,1.2,1.1.26,3.09.5,6.17.81,9.24.1,1.04-.45,1.27-1.26,1.33-1.73.13-3.45.28-5.18.34-1.99.07-3.96.24-6.12.68,1.07,3.56,2.13,6.91,3.09,10.31,1.05,3.7,2.5,7.2,4.3,10.6,3.14,5.85,6.16,11.77,9.18,17.69.59,1.15,1.32,2.14,2.33,2.97,3.58,2.97,7,6.13,10.68,8.94,3.02,2.31,4.59,5.6,6.64,8.58.65.94.08,1.48-.57,2.05-3.31,2.85-6.63,5.7-9.9,8.6-.97.85-1.5.58-2.15-.33-2.82-3.92-5.52-7.93-8.54-11.69-5.52-6.88-9.67-14.59-13.45-22.44-2.52-5.22-4.09-10.9-6.19-16.32-1.79-4.6-2.98-9.35-4.31-14.08-.47-1.7-.52-1.72-2.19-1.06-2.8,1.09-5.57,2.22-8.36,3.33-.42.18-.81.43-1.35.21-.51-.79-.24-1.72-.23-2.58.15-6.92.28-13.84.51-20.76.05-1.61-.32-3.02-1.11-4.41-3.09-5.46-6.1-10.98-9.18-16.45-.67-1.19-1.45-2.32-2.27-3.4-2.39-3.11-4.96-6.08-7.19-9.3-1.5-2.15-3.76-2.34-5.87-3.02-.84-.27-1.02.43-1.17,1.1-.78,3.17-1.46,6.39-2.39,9.52-5.67,19.02-12.14,37.75-19.54,56.17-.2.51-.36,1.04-.63,1.51-.61,1.04-.16,1.63.72,2.23,3.03,2.05,6,4.13,8.99,6.21.81.57,1.62,1.15,2.66,1.91-1.24,1.42-2.33,2.85-3.6,4.11-1.12,1.14-1.49,2.35-1.3,3.93.38,2.98.72,5.98.81,8.97.06,2.59,1.35,4.68,2.31,6.91.47,1.11,1.52,1.15,2.49,1.38,3.34.83,3.34.85,1.81,3.9-.94,1.88-1.75,3.83-2.84,5.59-1.11,1.77-1.15,3.55-.81,5.48,1.07,6.18,2.14,12.36,3.13,18.57.18,1.16.62,2.02,1.51,2.76,1.58,1.35,3.12,2.78,4.62,4.14-.21.97-.95.85-1.52,1.03-1.74.52-3.47,1.05-5.22,1.56-2.49.73-2.39.71-2.05,3.23.31,2.37-.34,4.72-.75,7.03-1.24,7.21-1.53,14.47-1.88,21.75-.07,1.39.21,2.69.6,4.01,1.34,4.39,3.45,8.39,5.78,12.32.83,1.39,1.58,2.85,2.5,4.49-2.1.17-3.67-.86-5.4-1.12-1.31-.22-2.8-1.52-3.85-.66-1.3,1.06-1.9,2.95-1.91,4.66-.02,3.02-.5,6-.62,8.99-.14,3.62-.44,7.25-.69,11.26-5.13-2.55-9.68-5.65-14.87-8.26-.44,3.28-.85,6.3-1.25,9.33-.18,1.35-.35,2.7-.52,4.07-.2,1.73-.14,3.41.26,5.14,1.61,6.91,3.12,13.85,4.64,20.77.57,2.6,1.68,4.99,2.65,7.46,2.37,6.03,5.18,11.8,8.86,17.18,3.23,4.73,6.22,9.64,9.31,14.47,1.09,1.71,1.08,1.74-.48,3.04-2.93,2.45-5.87,4.9-8.82,7.34-1.57,1.28-1.62,1.29-2.73-.19-3.14-4.13-6.24-8.3-9.36-12.45-.55-.73-.89-1.57-1.2-2.43-2.87-7.95-5.77-15.91-8.64-23.86-1.24-3.45-1.41-7.13-2.13-10.7-.53-2.58-.76-5.23-1.33-7.8-.57-2.55-.42-5.05-.16-7.59.69-6.8,1.31-13.6,1.96-20.39.06-.72.07-1.45.12-2.53-2.77.9-5.3,1.73-7.83,2.56-3.31,1.08-3.29,1.07-4.44-2.1-.59-1.62-.84-3.68-1.99-4.69-1.27-1.1-3.47-.65-5.27-.81-1.53-.11-3.07-.02-4.51-.02-.49-1.25.36-1.59.81-2.07,3.7-3.9,7.41-7.78,11.16-11.63,1.23-1.25,2.21-2.62,3.04-4.17,5-9.61,10.02-19.2,15.1-28.77.82-1.55,1.44-3.14,1.85-4.82,1.48-5.91,2.82-11.85,4.49-17.72.96-3.35.87-6.62.51-9.97-1.08-9.77-2.1-19.56-3.15-29.32-.21-2-.23-1.99-2.31-2.04-4.79-.1-4.82-.12-7.27,3.86-10.43,16.98-23.86,31.21-39.7,43.21-10.01,7.59-20.25,14.87-31.25,21-8.87,4.96-18.21,8.65-28.27,10.39-9.13,1.58-18.3,1.71-27.5,1.14-7.44-.46-14.86-1.27-22.23-2.51-6.2-1.04-12.31-2.4-18.29-4.33-1.77-.56-1.78-.58-1.14-2.47.52-1.55,1.05-3.11,1.63-4.63.31-.83.22-1.4-.67-1.74-.43-.17-.82-.37-1.24-.57-8-3.72-16-7.46-24-11.17-2.09-.98-2.1-.97-3.17,1.15-.7,1.38-1.43,2.75-2.04,4.18-.58,1.35-1.26,1.62-2.73,1.11-7.18-2.49-14.02-5.73-20.03-10.38-23.11-17.86-38.99-40.51-45.38-69.35-2.27-10.25-3.35-20.64-3.93-31.11-.85-15.33.04-30.6.82-45.87.23-4.36.65-8.72,1.44-13.03.17-.85.68-2.03-1.16-1.82-.41.05-.93-.78-1.38-1.23-1.45-1.45-1.47-1.48-2.99-.1-5.64,5.05-11.18,10.19-16.9,15.14-4.1,3.55-7.63,7.51-10.75,11.92-4.86,6.83-9.89,13.54-14.87,20.26-.99,1.33-1.75,2.75-2.32,4.3-1.73,4.69-3.53,9.36-5.32,14.04-.56,1.45-.92,2.94-1.03,4.49-.34,4.72-.73,9.44-1.11,14.17-.18,2.17-.17,2.3-2.34,2.51-2.19.19-3.99.85-5.5,2.55-.96,1.07-1.63,2.14-1.85,3.54-.2,1.16-.5,2.31-.7,3.48-.16.85-.64,1-1.37.74-.27-.09-.54-.16-.76-.28-1.93-1.16-5.2-.08-5.77-3.5-.4-2.4-1.4-4.75-.35-7.23.2-.48.23-1.04.33-1.56-2.46-.79-2.56-.85-3.79,1.06-2.2,3.39-4.96,6.26-7.88,9.03-5.04,4.75-10.01,9.56-14.98,14.38-1.26,1.23-2.62,2.21-4.18,3-6.51,3.25-12.96,6.63-19.5,9.82-5.74,2.79-11.82,4.71-17.71,7.11-3.04,1.24-6.1,2.37-9.16,3.53-3.11,1.2-2.71,1.67-3.97-1.66-.84-2.21-1.62-4.44-2.46-6.64-.32-.84-.45-1.81-1.41-2.24v-.55h0Z"/>
  </g>
</svg>