<?xml version="1.0" encoding="UTF-8"?>
<svg id="Layer_2" data-name="Layer 2" xmlns="http://www.w3.org/2000/svg" viewBox="0 0 412.52 654.5">
  <defs>
    <style>
      .cls-1 {
        fill:#808080
      }
    </style>
  </defs>
  <g id="Layer_1-2" data-name="Layer 1">
    <path class="cls-1" d="m407.3,530.51c-3.46-6.77-8.61-12.43-12.69-18.8-6.37-9.96-12.62-20.09-19.83-29.46-7.34-9.46-14.35-19.25-21.87-28.57-5.08-6.27-11.11-11.82-15.77-18.39-3.18-4.38-4.1-9.89-5.66-14.93-1.64-5.33-3.61-10.86-5.64-15.88-4-10.47-7.54-20.61-9.58-31.73-2.18-12.21-2.2-26.02-10.62-36.04-1.76-2.07-4.05-3.52-5.15-6.1-1.77-4.09-2.39-7.15-5.76-10.43-3.04-2.98-6.63-5.18-9.91-7.94-7.01-5.87-14.28-11.52-21.53-17.06-10.96-8.33-23.27-14.87-35.15-21.85.9-2.98,1.91-6.03,5.25-6.8,8.62-1.98,9.23,8.92,14.92,12.24,3.1,1.78,6.7,2.7,10.12,3.18,6.86,1.09,13.77,1.73,20.73,2.02,22.41,1.05,45.2-.93,66.81-7.37,9.45-2.83,19.95-5.91,26.61-13.71,5.71-6.64,5.1-16.7-3.05-21.54-7.8-4.59-19.56-5.62-28.39-5.98-11.36-.42-22.85,1.23-34.08,2.93-15.28,2.33-30.24,6.94-45.46,9.62-5.57.96-11.3,1.69-16.94,2.27-2.71.27-5.39.52-8.13.71-1.34.12-7.32-.3-8.08.59,1.59-1.77,3.19-3.52,4.81-5.27,7.04-7.48,14.13-14.97,21-22.56,7.2-7.86,13.31-16.62,20.43-24.46,4.23-4.66,12.6-9.66,12.97-16.57.07-1.43-.68-2.88-.68-4.29.04-4.81,2.81-10.56,4.2-15.06,1.73-5.59,3.41-11.18,5.15-16.77,3.47-11.23,6.8-22.49,9.66-33.88,2.03-7.71,2.98-15.7,5.81-23.1,2.39-6.37,6.47-9.07,12.27-12.19,8.84-4.81,17.22-11.28,25.27-17.35,8.81-6.61,17.21-13.85,24.63-21.98,8.18-8.95,16.43-17.99,22.28-28.73.91-1.74,3.89-6.07,3.08-8.15-1.49-3.84-6.2,3.17-7.15,4.52-4.06,6.13-7.06,12.74-11.65,18.57-4.91,6.06-10.45,11.59-15.77,17.27-5.85,6.18-12.15,11.93-19.22,16.7-8.68,5.83-17.85,10.89-26.29,17.18-3.74,2.81-8.57,4.69-11.31,8.67-2.54,3.64-3.01,8.3-4.2,12.47-4.88,16.87-8.19,34.45-12.95,51.15-2.28,8.03-4.45,16.09-6.76,24.14-.88,3.07-1.51,7.57-4.52,9.27-5.4,3.07-8.62,8.7-12.25,13.62-4.3,5.91-8.38,12.27-13.12,17.81-9.37,10.91-18.66,21.82-28.1,32.76,1.63-1.83.64-6.3.64-8.41,0-2.49.13-5.03-.17-7.56-.3-2.08-.78-4.34-2.08-6.04-.59-.88-4.63-4.81-5.88-4.27,0,0,2.85-1.28,3.41-2.07.55-.77,2.1-2.08,2.32-2.84,1.54-4.57,1.6-9.94-.72-14.26-1.58-2.86-3.83-3.15-6.81-3.93,7.1-13.58,15.48-26.29,23.17-39.5,4.18-7.21,12.08-14.43,19.77-17.79,1.46-.63,5.27-.64,5.29-2.5.22-3.37-4.32-1.52-5.86-.88-8.15,3.38-16.33,12.24-21.92,18.83-6.1,7.25-10.73,16.46-15.66,24.6-2.37,3.89-4.02,8.64-6.85,12.24-.83,1.14-4.29,3.2-4.43,4.45,0-3.15.01-6.2,1.23-9.13.35-.88,5.59-8.28,2.37-8.78-1.47-.31-2.69,4.47-3.07,5.52-.29.86-.52,2.95-1.13,3.62-.1.07-.81.26-1.63.44v-94.55c0-1.02-.78-1.83-1.78-1.83-.92,0-1.77.81-1.77,1.83v94.55c-.71-.18-1.43-.37-1.6-.44-.68-.67-.81-2.76-1.1-3.62-.36-1.05-1.58-5.83-3.04-5.52-3.24.5,1.91,7.9,2.31,8.78,1.15,2.93,1.27,5.98,1.27,9.13-.22-1.26-3.58-3.32-4.51-4.45-2.78-3.61-4.37-8.35-6.75-12.24-4.95-8.14-9.59-17.35-15.72-24.6-5.56-6.59-13.72-15.45-21.85-18.83-1.63-.64-6.1-2.49-5.93.88.1,1.86,3.88,1.88,5.27,2.5,7.71,3.36,15.58,10.58,19.73,17.79,7.76,13.21,16.2,25.92,23.26,39.5-3,.78-5.27,1.07-6.78,3.93-2.32,4.32-2.3,9.69-.75,14.26.24.77,1.78,2.07,2.32,2.84.53.78,3.38,2.07,3.38,2.07-1.27-.54-5.24,3.39-5.86,4.27-1.28,1.71-1.86,3.96-2.14,6.04-.24,2.53-.1,5.07-.1,7.56,0,2.11-.98,6.58.54,8.41-9.35-10.94-18.7-21.85-28.03-32.76-4.81-5.55-8.87-11.9-13.16-17.81-3.63-4.91-6.76-10.55-12.21-13.62-3.03-1.7-3.68-6.2-4.54-9.27-2.29-8.05-4.49-16.11-6.69-24.14-4.81-16.7-8.19-34.28-12.96-51.15-1.22-4.17-1.74-8.83-4.29-12.47-2.73-3.98-7.48-5.87-11.27-8.67-8.39-6.29-17.69-11.35-26.33-17.18-7.06-4.77-13.37-10.51-19.17-16.7-5.33-5.69-10.91-11.22-15.75-17.27-4.68-5.83-7.65-12.44-11.77-18.57-.9-1.35-5.57-8.37-7.1-4.52-.79,2.08,2.19,6.41,3.13,8.15,5.83,10.74,14.05,19.78,22.24,28.73,7.44,8.13,15.89,15.38,24.66,21.98,8.03,6.07,16.34,12.54,25.24,17.35,5.81,3.12,9.87,5.82,12.29,12.19,2.84,7.4,3.76,15.4,5.7,23.1,2.91,11.39,6.27,22.65,9.72,33.88,1.77,5.59,3.46,11.18,5.15,16.77,1.39,4.5,4.19,10.25,4.22,15.06,0,1.4-.76,2.86-.63,4.29.34,6.91,8.66,11.9,12.98,16.57,7.08,7.84,13.21,16.59,20.36,24.46,6.91,7.59,13.99,15.07,20.93,22.56,1.69,1.75,3.37,3.49,4.91,5.27-.78-.89-6.71-.47-8.1-.59-2.67-.18-5.36-.44-8.1-.71-5.7-.58-11.38-1.31-16.95-2.27-15.26-2.68-30.17-7.29-45.46-9.62-11.27-1.7-22.76-3.35-34.1-2.93-8.81.35-20.56,1.39-28.37,5.98-8.14,4.85-8.78,14.9-3.08,21.54,6.67,7.8,17.16,10.88,26.66,13.71,21.55,6.44,44.43,8.41,66.84,7.37,6.89-.29,13.82-.93,20.65-2.02,3.5-.49,7.06-1.4,10.13-3.18,5.69-3.32,6.35-14.22,14.97-12.24,3.37.77,4.29,3.83,5.22,6.8-11.84,6.98-24.17,13.52-35.1,21.85-7.31,5.54-14.55,11.19-21.58,17.06-3.25,2.76-6.84,4.97-9.88,7.94-3.38,3.29-3.97,6.34-5.81,10.43-1.02,2.58-3.39,4.03-5.15,6.1-8.33,10.03-8.44,23.83-10.57,36.04-2.05,11.11-5.56,21.26-9.66,31.73-1.91,5.03-3.98,10.55-5.57,15.88-1.56,5.03-2.49,10.55-5.62,14.93-4.68,6.57-10.68,12.12-15.84,18.39-7.52,9.32-14.44,19.11-21.81,28.57-7.18,9.37-13.43,19.5-19.85,29.46-4.05,6.37-9.32,12.03-12.64,18.8-1.97,3.81-6.88,10.11-4.81,14.6,3.93,8.82,11.33-12.44,12.35-14.41,5.5-11.34,12.45-21.97,19.66-32.33,3.59-5.22,7.34-10.35,10.91-15.5,6.37-8.93,13.21-17.5,20.16-25.85,5.13-6.15,10.8-16.25,19.12-18.16,6.26-1.42,7.04-8.41,7.52-13.67,1-10.37,5.16-20.02,7.3-30.18,2.52-12.44,5.45-24.83,8.77-37.08,1.66-6.18,3.24-12.52,5.31-18.61,1.54-4.49,5.79-6.75,9.33-9.41,2.91-2.15,5.64-4.64,8.31-6.97,6.56-5.6,13.29-10.96,19.91-16.49,5.31-4.43,10.47-8.94,16.17-12.8,5.29-3.55,10.52-7.13,15.66-10.77,2.18-1.49,5.47-3.72,8.28-3.21,5.53.98,5.28,12.49,3.89,16.33-1.6,4.32-5.02,7.72-7.99,11.14-2.99,3.55-5.78,7.25-8.68,10.88-6.07,7.79-11.53,15.85-16.87,24.15-6.13,9.69-11.69,19.71-16.3,30.23-9.58,21.9-1.71,47.55,1.56,69.99,1.05,7.42,2.28,14.82,3.78,22.17,2,10.03,6.3,21.27,3.13,31.5-1.56,5.16-2.68,10.8-5.41,15.55-4.37,7.64-9.15,15.1-13.74,22.62-4.22,7.03-7.67,14.95-11.78,22.2-4.49,8.03-10.23,14.37-16.67,20.77-2,1.96-3.86,3.92-5.83,5.89-11.47,12.47-23.05,24.77-34.31,37.39-5.16,5.77-9.94,11.84-14.9,17.73-1.18,1.39-13.52,16.43-5.53,16.31,3.15-.04,5.76-5.22,7.46-7.3,2.61-3.1,5.05-6.3,7.74-9.31,14.9-16.35,30.44-32.08,44.23-49.43,6.33-7.97,11.81-19.32,20.48-25.1,1.71-1.15,3.76-1.39,5.45-2.44,2.69-1.66,4.69-5.32,5.75-8.27,2.79-7.62,6.15-15.04,9.59-22.36,2.69-5.76,4.69-13.86,10.14-17.67,8.01-5.56,7.88-16.38,6.07-24.91-4.86-22.57-9.58-45.19-13.09-68.03-.97-5.81-1.9-11.62-2.36-17.41-.38-4.34-2.15-12.44,1.42-15.72,5.29-4.91,7.03-13.97,10-20.34,4.74-10.04,10.04-19.7,15.45-29.37,3.62-6.42,6.84-13.09,10.91-19.26,1.74-2.71,3.75-5.25,5.83-7.69.71-.8,4.23-3.59,4.23-4.62-2.17,24.98-3.54,50.22-1.73,75.29.46,6.3,1.12,12.62,1.79,18.92.76,7.4,1.81,14.85,3.83,22.03.71,2.48,1.51,5.19,3.22,7.14,2.84,3.22,9.5,3.39,12.48,0,1.73-1.96,2.49-4.67,3.18-7.14,2.08-7.18,3.12-14.64,3.89-22.03.63-6.3,1.38-12.62,1.82-18.92,1.77-25.07.37-50.31-1.82-75.29,0,1.03,3.59,3.83,4.26,4.62,2.14,2.44,4.06,4.98,5.87,7.69,4.01,6.16,7.27,12.84,10.84,19.26,5.42,9.67,10.74,19.33,15.5,29.37,2.91,6.37,4.71,15.43,9.99,20.34,3.52,3.29,1.82,11.39,1.44,15.72-.46,5.79-1.44,11.6-2.34,17.41-3.58,22.84-8.25,45.46-13.16,68.03-1.78,8.53-1.91,19.36,6.11,24.91,5.45,3.81,7.4,11.91,10.11,17.67,3.42,7.31,6.84,14.73,9.61,22.36,1.03,2.95,3.03,6.61,5.75,8.27,1.69,1.05,3.75,1.29,5.51,2.44,8.56,5.78,14.06,17.13,20.46,25.1,13.72,17.35,29.29,33.08,44.14,49.43,2.73,3.01,5.2,6.21,7.76,9.31,1.77,2.08,4.36,7.25,7.57,7.3,7.91.13-4.39-14.92-5.62-16.31-4.97-5.9-9.78-11.96-14.93-17.73-11.22-12.62-22.86-24.91-34.28-37.39-1.94-1.96-3.86-3.93-5.87-5.89-6.4-6.41-12.14-12.74-16.68-20.77-4.06-7.25-7.5-15.18-11.73-22.2-4.6-7.52-9.37-14.98-13.72-22.62-2.67-4.74-3.85-10.38-5.42-15.55-3.17-10.23,1.1-21.48,3.17-31.5,1.47-7.35,2.66-14.76,3.71-22.17,3.32-22.44,11.14-48.09,1.54-69.99-4.6-10.52-10.13-20.55-16.35-30.23-5.23-8.3-10.8-16.37-16.8-24.15-2.84-3.63-5.64-7.32-8.68-10.88-2.92-3.42-6.4-6.83-7.99-11.14-1.32-3.83-1.59-15.35,3.93-16.33,2.75-.51,6.07,1.72,8.27,3.21,5.2,3.64,10.42,7.22,15.67,10.77,5.76,3.86,10.89,8.37,16.14,12.8,6.66,5.53,13.35,10.89,19.85,16.49,2.78,2.33,5.44,4.82,8.33,6.97,3.64,2.66,7.89,4.91,9.4,9.41,2.08,6.09,3.61,12.43,5.31,18.61,3.28,12.24,6.25,24.64,8.74,37.08,2.17,10.17,6.3,19.81,7.37,30.18.46,5.25,1.22,12.25,7.47,13.67,8.31,1.91,13.96,12.01,19.06,18.16,7.01,8.35,13.92,16.92,20.21,25.85,3.62,5.15,7.33,10.28,10.96,15.5,7.21,10.37,14.14,21,19.65,32.33,1,1.98,8.35,23.24,12.32,14.41,2.06-4.49-2.87-10.79-4.73-14.6h0Z"/>
  </g>
</svg>