<?xml version="1.0" encoding="UTF-8"?>
<svg id="Layer_2" data-name="Layer 2" xmlns="http://www.w3.org/2000/svg" viewBox="0 0 351.23 654.5">
  <defs>
    <style>
      .cls-1 {
        fill:#808080
      }
    </style>
  </defs>
  <g id="Layer_1-2" data-name="Layer 1">
    <path class="cls-1" d="m1.74,439.02c8.77,5.79,12.03-23.45,13.07-27.23,1.33-4.8,3.05-9.54,4.12-14.44,2.32-11.3,6.88-22,11.27-32.73,3.65-8.56,6.22-17.96,10.52-26.28,4.09-8.04,10.57-14.4,17.08-20.62,7.82-7.48,13.27-16.08,20.15-24.5,3.09-3.75,13.53-17.92,19.49-11.51,3.22,3.56,5.51,9.54,6.94,14.1,2.79,8.98,2.01,19.63,8.32,27.24,6.37,7.8,16.38,8.77,25.79,9.69l5.62.68c0,3.71.82,8.15-.94,11.6-3.22,6.52-13.46,9.05-19.38,12.37-7.65,4.14-15,9.09-21.88,14.7-4.12,3.43-8.3,6.88-12.2,10.61-7.14,6.82-14.4,14.96-15.43,25.15-.56,5.15.21,10.53.51,15.69.22,8.7-1.11,17.28-1.46,25.92-.34,7.53,1.09,14.88,1.35,22.4.3,7.25-.56,14.26.34,21.65.9,7.22,2.14,14.47,2.23,21.84.39,11.94.77,23.75,1.67,35.58.62,7.16,3.06,16.38,1.39,23.38-.99,4.59-2.89,8.83-4.22,13.36-1.11,3.99-1.59,8.47-3.52,12.18-4.29,8.64-6.62,19.2-9.67,28.42-1.11,3.51-1.2,10.82,4.39,8.85,6.41-2.27,7.14-11.86,8.47-17.17,2.19-8.64,6.22-16.72,9.05-25.17,1.76-5.57,4.14-11.06,5.04-16.93.94-5.87-.26-10.89-1.56-16.57-2.27-10.18-2.76-20.58-3.66-30.95-.54-6.19-2.6-12.31-2.66-18.5-.13-8.44,3.95-16.55,4.48-24.97.6-8.85-.36-17.81-1.42-26.6-1.5-13.18-7.48-26.47-3.92-39.94,2.72-10.61,11.36-18.97,20.28-24.87,10.03-6.75,16.08-18.05,25.87-25.12,7.35-5.21,15.86-8.3,23.3-13.23-3.62,2.42,3.06,29.48,5.19,28.75-9.71,3.21-17.73,3.86-25.4,11.21-6.69,6.26-11.47,14.4-13.65,23.23-1.99,7.72-2.49,8.36-4.52,19.15-1.82,10.46-1.59,21.09-3.02,31.55-2.87,23.41-7.26,45.53-5.19,69.28,1.76,22.83,7.44,44.69,16.59,65.62,8.29,18.78,20.71,40.26,41.5,46.65,8.34,2.63,18.78,2.63,27.09,0,20.69-6.39,33.25-27.87,41.54-46.65,9.11-20.94,14.79-42.79,16.63-65.62,1.86-23.75-2.36-45.87-5.32-69.28-1.37-10.46-1.16-21.09-2.96-31.55-1.97-10.8-2.62-11.43-4.46-19.15-2.29-8.83-7.01-16.96-13.53-23.23-7.78-7.35-15.95-8-25.49-11.21,2.23.73,8.72-26.34,5.15-28.75,7.35,4.93,15.99,8.02,23.24,13.23,9.9,7.07,15.95,18.37,25.92,25.12,8.98,5.9,17.66,14.27,20.28,24.87,3.6,13.48-2.46,26.77-3.96,39.94-1.16,8.79-1.99,17.75-1.46,26.6.56,8.42,4.59,16.53,4.52,24.97-.09,6.19-2.12,12.31-2.62,18.5-.96,10.36-1.42,20.77-3.62,30.95-1.37,5.68-2.57,10.7-1.63,16.57.95,5.87,3.26,11.36,5.12,16.93,2.83,8.45,6.88,16.53,8.98,25.17,1.42,5.31,2.1,14.9,8.34,17.17,5.75,1.97,5.66-5.34,4.46-8.85-2.96-9.22-5.36-19.77-9.58-28.42-1.89-3.71-2.49-8.19-3.56-12.18-1.26-4.54-3.19-8.77-4.18-13.36-1.63-6.99.9-16.21,1.33-23.38.92-11.83,1.33-23.64,1.76-35.58.13-7.37,1.26-14.62,2.16-21.84.94-7.39,0-14.4.34-21.65.35-7.52,1.69-14.87,1.39-22.4-.36-8.64-1.72-17.23-1.39-25.92.17-5.16.99-10.54.43-15.69-1.16-10.2-8.32-18.33-15.56-25.15-3.73-3.73-7.98-7.18-12.24-10.61-6.79-5.61-14.13-10.55-21.78-14.7-5.89-3.32-16.12-5.85-19.34-12.37-1.63-3.45-.99-7.89-.99-11.6l5.72-.68c9.41-.92,19.34-1.89,25.75-9.69,6.36-7.61,5.7-18.26,8.32-27.24,1.39-4.55,3.65-10.53,6.88-14.1,6.02-6.41,16.5,7.76,19.65,11.51,6.69,8.42,12.28,17.02,20.11,24.5,6.56,6.22,12.93,12.58,17.09,20.62,4.26,8.32,6.79,17.72,10.48,26.28,4.35,10.72,8.98,21.43,11.27,32.73,1.03,4.89,2.83,9.64,4.09,14.44.98,3.78,4.26,33.03,13.18,27.23,3.41-2.23.62-8.58-.11-11.64-1.72-8.19-5.85-15.26-8.81-22.94-7.48-19.85-11.27-40.56-20.47-59.85-4.55-9.39-8.19-20.64-14.17-29.15-4.09-5.76-9.63-9.99-15.09-14.38-8.75-7.01-16.29-15.48-23.8-23.9-4.33-4.72-8.15-9.24-15.2-8.25-15.52,2.14-15.65,23.38-23.3,33.65-4.8,6.56-11.81,10.61-17.96,15.75,3.19-5.27,4.22-11.88,5.19-17.86.65-2.74,1.03-5.6,1.13-8.42,0-2.06-2.59-9.15-1.97-10.4l.64-1.23c3.39-3.96,2.16-12.03,3.82-16.81,2.06-5.81,7.18-9.92,10.61-14.86,3.75-5.33,7.35-10.93,8.85-17.34,1.56-6.48.96-13.38,1.29-19.91.56-8.81,1.25-17.58,2.23-26.26.86-7.31,2.85-15.46-.43-22.47-1.4-3.15-2.57-4.89-2.7-8.42-.13-4.42-.81-8.72-1.07-13.1-.56-8.17-.96-13.63-6.88-19.68l1.24-.56c5.08-2.62,11.4-2.03,16.34-5.29,4.16-2.77,7.46-7.44,10.14-11.6,5.53-9.09,8.38-19.7,12.84-29.26,1.8-3.45,3.36-6.95,5.08-10.4,4.46-9.39,9.62-19.64,16.19-27.61,6.82-8.23,12.77-19.91,22.01-25.72,3.26-2.03,13.57-3.67,11.64-9.32-1.89-5.85-14.87,4.44-17.11,6.13-9.11,7.01-16.4,16.68-22.47,26.22-3.86,5.9-7.42,11.98-11.08,17.98-8.12,13.74-11.64,30.63-21.44,43.28-4.46,5.87-10.83,7.14-16.79,11.12-.66.58-9.77,8.45-9.97,7.8-.77-2.53-.47-5.49-1.12-8.12-.34-1.24-.54-3.41-.54-3.41-2.25-4.8-4.35-8.66-3.79-14.04.51-4.5-1.82-9.43-2.06-14-.17-2.96.68-5.88.77-8.88,0-2.68,0-8.08-3.19-8.96-7.59-1.97-5.06,10.46-5.42,14.25-.41,7.29-1.41,14.71-.64,21.95.43,4.12,3.65,6.75,5.85,9.88,2.87,4.29,2.32,8.68,3.3,13.53-.98.58-11.3,7.31-12.2,5.77-1.67-3.09-.04-6.88-2.23-9.93-3.43-4.76-9.41-11-14.36-14.13-1.67-.99-2.74-2.36-4.37-2.81-1.39-.51-6.11-1.01-6.92.68-2.02,4.66,5.62,7.98,8.68,9.48,1.89.96,5.29,1.63,6.19,3.95,2.19,5.89-7.78,3.69-10.5,3.1-7.52-1.56-13.74-.96-21.26.3-2.72.45-10.93,1.97-8.87-3.39.86-2.32,4.12-3,6.15-3.95,3.02-1.5,10.7-4.82,8.68-9.48-.77-1.69-5.49-1.18-6.99-.68-1.56.45-2.63,1.82-4.18,2.81-5.06,3.13-11,9.37-14.47,14.13-2.19,3.06-.53,6.84-2.19,9.93-.9,1.54-11.3-5.19-12.17-5.77.86-4.85.34-9.24,3.26-13.53,2.19-3.13,5.42-5.75,5.81-9.88.73-7.24-.22-14.66-.69-21.95-.3-3.79,2.32-16.21-5.32-14.25-3.32.88-3.22,6.28-3.09,8.96,0,3,.73,5.92.73,8.88-.26,4.57-2.62,9.5-2.12,14,.56,5.38-1.57,9.24-3.65,14.04,0,0-.34,2.17-.71,3.41-.69,2.62-.3,5.59-1.09,8.12-.3.66-9.32-7.21-10.05-7.8-5.88-3.97-12.26-5.25-16.72-11.12-9.8-12.65-13.37-29.54-21.52-43.28-3.62-6-7.18-12.07-11-17.98-6.19-9.54-13.42-19.21-22.47-26.22-2.29-1.69-15.18-11.98-17.11-6.13-1.93,5.64,8.3,7.29,11.66,9.32,9.22,5.81,15.16,17.49,21.95,25.72,6.52,7.97,11.69,18.22,16.29,27.61,1.54,3.45,3.26,6.95,4.89,10.4,4.65,9.56,7.35,20.17,13.03,29.26,2.53,4.16,5.96,8.83,9.97,11.6,5.02,3.26,11.3,2.66,16.4,5.29l1.29.56c-6.02,6.05-6.39,11.51-6.92,19.68-.34,4.39-.9,8.68-1.12,13.1-.11,3.52-1.28,5.27-2.7,8.42-3.09,7.01-1.2,15.16-.34,22.47.94,8.68,1.58,17.45,2.19,26.26.37,6.52-.26,13.42,1.24,19.91,1.56,6.41,5.25,12.01,8.85,17.34,3.62,4.95,8.64,9.05,10.83,14.86,1.63,4.78.26,12.86,3.69,16.81l.53,1.23c.64,1.26-1.82,8.34-1.82,10.4,0,2.81.53,5.68.99,8.42,1.07,5.98,2.1,12.6,5.29,17.86-6.15-5.14-13.07-9.19-17.96-15.75-7.65-10.27-7.91-31.51-23.24-33.65-7.1-.99-11.06,3.52-15.3,8.25-7.54,8.42-15.01,16.89-23.73,23.9-5.49,4.39-11.08,8.62-15.26,14.38-5.96,8.51-9.67,19.76-14.04,29.15-9.2,19.29-12.99,40-20.5,59.85-2.87,7.68-7.12,14.75-8.81,22.94-.81,3.06-3.47,9.41,0,11.64h0Zm198.82-244.37c4.72,3.04,10.5,5.68,15.39,1.63,7.31-6.02,8.34-15.07,8.9-23.82.71-8,1.2-16.92-2.46-24.39-1.86-3.9-4.42-7.29-6.15-11.3-1.37-3.3-2.79-5.62.43-7.95,2.32-1.67,5.62-2.27,8.29-3.73-.68.26,6.24,13.59,6.71,15,2.23,5.51,3.79,12.18.22,17.49-2.32,3.62-2.32,4.59-2.59,9.2,0,7.44-1.37,16.1.26,23.49.73,4.61,2.01,9.35,2.32,14.09.24,4.71-.22,9.47-.96,14.21-.99,4.74-1.29,8.81-4.63,12.48-2.25,2.53-4.74,4.8-7.05,7.14.81-.86-.39-8.96-.73-10.37-2.75-9.45-11.36-14.45-17.84-20.94-4.2-4.14-12.24-19.87-.13-12.24h0Zm-67.76,33.18c-.43,1.41-1.63,9.5-.77,10.37-2.4-2.34-4.89-4.61-7.14-7.14-3.26-3.68-3.6-7.74-4.5-12.48-.92-4.74-1.46-9.5-.96-14.21.22-4.74,1.39-9.48,2.42-14.09,1.4-7.39.07-16.05,0-23.49-.06-4.61-.06-5.59-2.42-9.2-3.65-5.3-2.14-11.98.04-17.49.52-1.4,7.4-14.73,6.84-15,2.59,1.46,6.02,2.06,8.29,3.73,3.19,2.32,1.72,4.65.35,7.95-1.72,4.01-4.29,7.41-6.24,11.3-3.56,7.46-3.09,16.38-2.4,24.39.64,8.75,1.67,17.81,8.98,23.82,4.82,4.05,10.7,1.41,15.33-1.63,12.09-7.63,4.09,8.1-.08,12.24-6.58,6.48-15.09,11.49-17.75,20.94h0Z"/>
  </g>
</svg>