<?xml version="1.0" encoding="UTF-8"?>
<svg id="Layer_2" data-name="Layer 2" xmlns="http://www.w3.org/2000/svg" viewBox="0 0 654.5 634.05">
  <defs>
    <style>
      .cls-1 {
        fill:#808080
      }
    </style>
  </defs>
  <g id="Layer_1-2" data-name="Layer 1">
    <path class="cls-1" d="m26.94,318.45c6.21-11.84,5.28-32.03,20-37.34,10.56-3.94,21.34,2.95,31.7,4.43,9.1,1.34,18.36-1.75,27.53-4.55,6.26-35.65,18.35-70.31,43.63-97.18,3.28-3.42,6.49-6.68,9.64-10.09-2.58-.88-5.22-1.61-7.4-2.95-13.48-7.7-20.36-20.59-14-35.59,1.6-3.88,4.43-11.17,3.87-15.17-.5-3.93-1.66-2.74-5.62-8.43-3.97-5.6-12.37-11.23-16.82-13.98-11.8-7.35-23.31-14.32-35.14-21.41-9.7-5.95-4.99-18.32,6.08-13.3,10.4,4.7,13.97,18.32,24.91,23.54,6.45,3.15,13.28,5.83,19.76,9.1,11.67,5.95,22.87,15.37,20.42,29.81-2.1,11.38-16.71,29.18,2.92,34.46,1.01.2,5.02.67,9.57,1.19,1.07-2.33,2.13-4.61,2.6-7.35,4.76-24.27,20.13-43.99,41.81-55.84,14.15-7.61,46.94-6.22,53.38-23.34.99-2.68-1.81-8.02-.98-9.63-4.78,9.63-40.29-1.28-46.85-4.49-16.21-7.88-16.21-26.14-23.16-40.72-2.01-4.2-6.42-7.15-8.26-11.12-3.92-8.69,2.9-11.44,9.12-4.87,5.46,5.63,9,16.19,10.87,23.6,3.88,15.58,6.02,23.8,23.68,26.75,10.97,1.95,21.27-2.66,32.05-2.19,8.75.38,15.32,6.27,23.57,7.88,9.52,1.95,17.12-3.88,26.24-4.81,5.09-.53,10.17-.26,15.18-.12,5.09-.14,10.17-.4,15.29.12,9.13.93,16.64,6.76,26.21,4.81,8.33-1.6,14.85-7.5,23.62-7.88,10.79-.47,21.09,4.14,32.09,2.19,17.49-2.95,19.76-11.18,23.62-26.75,1.9-7.41,5.49-17.97,10.93-23.6,6.36-6.56,12.98-3.82,9.13,4.87-1.84,3.97-6.26,6.91-8.33,11.12-6.81,14.59-6.89,32.85-23.13,40.72-6.45,3.21-42.04,14.12-46.75,4.49.77,1.61-2.14,6.95-1.14,9.63,6.49,17.12,39.4,15.72,53.4,23.34,21.67,11.84,37.12,31.57,41.91,55.84.42,2.74,1.46,5.02,2.54,7.35,4.55-.53,8.49-.99,9.43-1.19,19.9-5.28,5.09-23.08,3.02-34.46-2.51-14.44,8.88-23.86,20.42-29.81,6.52-3.27,13.32-5.95,19.84-9.1,10.92-5.22,14.44-18.85,24.87-23.54,11.1-5.02,15.89,7.35,6.06,13.3-11.8,7.09-23.44,14.06-35.14,21.41-4.45,2.74-12.78,8.37-16.79,13.98-3.94,5.69-5.02,4.49-5.65,8.43-.57,4,2.23,11.29,3.94,15.17,6.36,15-.6,27.89-14.01,35.59-2.35,1.34-4.89,2.07-7.4,2.95,3.11,3.41,6.26,6.68,9.53,10.09,25.35,26.87,37.43,61.52,43.74,97.18,9.09,2.8,18.42,5.89,27.53,4.55,10.43-1.49,21.06-8.37,31.76-4.43,14.59,5.31,13.84,25.5,19.87,37.34,8.96,17.77,38.83,44.52,21.67,65.93-2.27,2.8-9,3.94-9,3.94-4.42-4.46,1.01-15.26.67-21.94.44.2,1.1.35,1.53.55-2.87-1.14-5.82-9.36-7.42-11.84-5.68-10.3-11.07-20.8-15.01-31.98-1.03-17.53-9.7-24.54-26.96-22.35-5.75.76-23.44,4.14-40.76,5.11,5.49,39.97,7.76,82.85.47,123.11,3.18.41,5.95,1.29,9.09,4.03,14.92,13.51,14.02,35.71,10.4,53.68-3.34,16.45-15.94,27.63-24.51,41.22-3.81,6.01-6.08,12.84-9.06,19.31-6.39,13.71,15.34,27.01,24.68,33.37,14.41,9.77,29.92,17.8,44.1,27.89,4.29,3.06,7.89,8.23,7.66,13.71-.13,4.61-5.15,12.78-10.74,11.76-6.92-1.26-7.22-11.35-9.89-16.31-4.55-7.9-14.44-9.36-22.07-12.89-9.78-4.49-16.92-12.46-25.89-17.89-13.07-8.02-26.71-21.12-23.16-37.98,3.18-15.64,20-24.74,26.96-38.57,7.92-15.72,7.69-32.99,7.12-50.18-.28-6.68-4.11-10.24-9.23-12.49-5.88,22.2-14.75,43.32-28.39,62.11-15.55,21.41-33.58,39.73-54.77,55.46-29.39,21.65-58.35,47.93-96.48,51.02-3.57.26-34-4.43-41.4-6.5-7.22,2.07-37.59,6.76-41.22,6.5-38.06-3.09-67.16-29.38-96.45-51.02-21.3-15.72-39.28-34.04-54.88-55.46-13.67-18.79-22.47-39.91-28.25-62.11-5.25,2.25-8.99,5.8-9.37,12.49-.57,17.19-.76,34.46,7.27,50.18,6.81,13.83,23.6,22.93,26.91,38.57,3.44,16.86-10.22,29.96-23.27,37.98-9.07,5.43-16.16,13.39-25.82,17.89-7.79,3.53-17.56,4.99-22.04,12.89-2.67,4.96-3,15.05-9.93,16.31-5.59,1.02-10.56-7.15-10.8-11.76-.23-5.49,3.37-10.65,7.69-13.71,14.21-10.09,29.7-18.12,43.94-27.89,9.54-6.36,31.3-19.66,24.96-33.37-3.05-6.48-5.32-13.3-9.17-19.31-8.62-13.59-21.27-24.77-24.48-41.22-3.57-17.97-4.51-40.17,10.5-53.68,2.87-2.74,5.89-3.62,8.97-4.03-7.29-40.26-5.06-83.15.47-123.11-17.36-.96-34.98-4.35-40.8-5.11-17.28-2.19-25.88,4.81-26.82,22.35-4.07,11.17-9.37,21.68-15.32,31.98-1.4,2.48-4.38,10.7-7.22,11.84.44-.2,1.03-.35,1.47-.55-.31,6.68,5.25,17.48.8,21.94,0,0-6.83-1.14-9.13-3.94-17.18-21.42,12.68-48.17,21.7-65.93h0Z"/>
  </g>
</svg>