<?xml version="1.0" encoding="UTF-8"?>
<svg id="Layer_2" data-name="Layer 2" xmlns="http://www.w3.org/2000/svg" viewBox="0 0 654.5 144.55">
  <defs>
    <style>
      .cls-1 {
        fill:#808080
      }
    </style>
  </defs>
  <g id="Layer_1-2" data-name="Layer 1">
    <path class="cls-1" d="m652.87,121.82c-1.88-1.21-3.75-1.73-3.75-1.73,0,0-.44-1.75-1.65-2.92-1.23-1.15-4.19-2.56-6.38-3.01-2.19-.47-6.06-.13-9.22-.13s-4.49,1.03-5.22,1.26c-.71.27-.89-.56-1.4-1.01-.52-.44-.26-.18-1.66-.07-1.46.13-5.1,1.08-5.36,1.48-.26.39-.57.14-.89-.18-.34-.32.47-1.02.94-2.12.47-1.1.12-.51-.23-.58-.39-.07-2.84.65-4.24,1.3-1.43.63-3.11,1.66-3.58,2.11-.43.46-5.91,1.68-6.16,1.68-.28,0-.22-.21-.26-.59-.04-.39-.32,0-.57.2-.26.18-.77.66-1.17.89-.39.27-2.45.67-2.75.58-.32-.05-.52-.77-.32-1.35.18-.59.12-.65-.31-.72-.47-.07-.59.12-1.06.39-.42.26-2.69-1.15-2.83-1.42-.11-.25,3.02-1.78,3.02-1.78h-5.64c-2.78,0-2.27.51-2.9.32-.66-.21-2.58-1.16-2.9-1.61-.32-.47-.44-.45-.32-.97.12-.52,1.05-.32,1.51-.57.41-.27,3.8-.71,4.08-1.02.36-.32-4.18-.58-4.53-1.15,0-.27,3.4-1.88,3.4-1.88,0,0-9.15.71-9.67.58-.48-.13-2.1-1.55-2.1-2s.12-.21.63-.52c.51-.34.85-.46,1.46-.64.65-.19,4.32-1.68,4.32-1.68,0,0-4.77.13-5.06-.21-.32-.32,1.63-1.6,1.72-1.74.07-.12-8.95.72-8.95.72,0,0-2.45-1.98-2.68-2.3-.29-.32-.22-.6.1-.91.31-.32,1.4-.84,2-1.36.58-.52,3.75-1.66,4.13-2.24l-9.59,1.27-2.59-1.46c0-.29.81-.52,1.22-.8l3.69-2.05-8.68-.21c-.15-.25-.27-.7-.15-1.09.15-.39.2-.19,1.86-1.16,1.68-.96,5.08-3.32,5.08-3.32l-10.21,2.5-4.57-2.5.03-1.24c0-.32.91-.12,1.19-.18.23-.07,2.76-2,2.76-2l-6.78.71s-2.04-1.69-2.2-1.85c-.12-.22-.04-.52.41-1.11.47-.57,2.83-2,3.62-2.51.77-.52,3.02-2.57,3.02-2.57,0,0-3.93,1.28-5.27,1.69-1.36.36-3.4.76-3.4.76,0,0,4.43-3.35,6.95-5.48,2.5-2.11.81-6.36.58-7.14-.28-.77-.42-2.69-.42-2.69l-1.21-3.04c-1.23-3.01-4.88-5.78-7.86-7.71-2.93-1.93-9.76-3.43-13.69-3.47-3.93-.08-15.53,1.66-18.99,1.73-3.49.07-5.02.12-5.26-.4,0,0,.48-.82,1.15-1.73.62-.9,4.24-4.13,4.24-4.13,0,0-.35-.12-1.42.52-1.11.64-7.08,3.35-7.08,3.35,0,0-5.41-4.25-6.07-4.52-.62-.26-.32-.64-.32-.96s.29-.62.29-.62c0,0,.69-.4.57-.74-.13-.31-1.98.22-1.98.22,0,0-.21-.33-.14-.72.07-.38.23-.45.7-.88.47-.45,2.95-3.23,2.95-3.23,0,0-2.07,1.16-2.99,1.62-1.01.43-3.82,1.26-3.82,1.26l-6.35-5.21s0-.83.29-1.3c.27-.45,2.84-3.01,3.04-3.28.17-.25-5.75,2.4-5.75,2.4,0,0-1.67-.96-5.71-4.38-1.88-1.58-3.66-3.44-5.4-5.01-1.98-1.85-3.75-3.34-3.88-3.62-.2-.51-2-1.67-2.6-2.64-.57-.97-.07-.07-.71-.91-.61-.85-.87-1.09-1.6-1.92-.67-.84-2.51-2.26-3.41-2.77-.9-.52-3.18-1.7-3.73-2.2-.59-.51-.77-.72-1.4-1.41-.67-.71-2.98-3.14-6.46-4.18-3.48-1.03-6.11,2.77-6.3,3.03-.19.25-2.42.14-2.42.14,0,0-.47-.77-.61-1.1-.12-.33-.24-.58-.57-.97-.34-.39-.22-.52-.34-1.1-.12-.57-.31-.77-1.1-1.55-.74-.77-2.1-.69-2.35-.69-.29,0-.57-.2-.86-.33-.24-.14-1.79.51-2.1.72-.36.19-2.96.51-5.42,1.66-.91.45-3.32,1.66-5.36,3.25-3.38,2.6-6.94,6.2-9.89,9.25-4.76,4.87-9.83,8.16-13.26,10.36-3.41,2.18-12.95,7.91-13.38,7.85-.48-.07-.52-.12-.87.06-.3.21-4.87,3.29-5.91,3.41-.26-.12-.33.15-.64.32-.34.2-5.6,3.49-6.51,3.54-.91.07-.37-.05-.66-.33-.25-.24-.25.13-.43.41-.17.25-10.05,5.22-10.94,5.01-.32-.32-.31.12-.7.53-.39.37-6.62,3.66-7.4,3.73-.77.07-.52-.4-.86-.52-.3-.14-.3.32-.62.57-.34.25-7.39.38-8.75.26-1.38-.12-15.02-.12-17.21-.12s-26.71-.33-27.53-.33-12.8-.07-18.22-.07l-20.8.07c-4.76,0-15.13.57-20.39.91-5.29.32-19.39,1.97-20.04,1.97s-1.21.34-2.25.26c-1.04-.03-2.5-.12-2.74-.12-.27,0-.52-.14-.27-.57.27-.47.37-.07,1.16-.73.76-.64-.08-.64-.08-.64,0,0-.81,0-1.8.13-.98.12-3.24.65-3.54.65s-1.55-.27-1.81-.46c-.27-.19-6.24-.96-6.94-1.08-.7-.12-2.98-.67-6.47-.98-3.44-.31-14.22-.31-16.01-.31s-3.27,1.1-3.73,1.22c-.43.12-2.27-.6-2.75-.98-.52-.38-.59-.24-1.17-.24s-2.89.57-2.89.57c0,0-1.55,0-2.02-.06-.44-.07-1.28,0-1.79.11-.51.15-1.41.85-1.67.91-.26.06-1.02-.57-1.6-.76-.59-.2-2.07.18-2.66.37-.57.19-1.4.26-2.03.32-.65.06-2.9,1.09-2.9,1.09,0,0-.89-.52-1.37-.82-.47-.34-1.03-.33-1.55-.27-.48.06-3.14,1.01-5.32,1.56-2.21.52-11.2,1.93-12.12,2.44-.89.52-1.16,2.19-1.16,2.51s-.32.32-.76.39c-.46.06-2.75-.27-4.77-.27s-6.94,1.99-6.94,1.99l-2.79,1.05c-2.45.91-4.66,3.09-4.9,3.28-.24.2-.37.32-.75.58-.38.26-.71.2-1.1.32-.39.12-3.15,2.32-4.66,4.11-1.46,1.82-1.72,3.88-2.1,4.59-.28.32-.71,1.92-.71,1.92,0,0-.27,0-.89.07-.65.07-1.64.33-1.96.44-.31.13-2.42.32-4.36.32s-10.05-.64-16.09-.9c-6.06-.25-11.98-.06-18.68-.25-6.69-.19-13.24.25-18,.77-4.79.51-11.55,1.48-16.5,1.95-4.97.43-6.86.05-12.36,1.79-5.46,1.73-9.57,7.9-10.01,8.75-.47.84.45,1.36.96.25.5-1.09,3.49-4.37,5.85-6.05,2.38-1.67,6.8-2.76,7.91-2.82,1.11-.07,7.14-.32,9.4-.39,2.27-.06,8.41-1.1,9.27-1.22.9-.14,7.28-.77,7.58-.96.36-.21,1.41-.08,1.95-.12.52-.07,4.25-.08,4.52-.15.24-.07,1.02.07,1.27.15.27.07.72.04,1.03,0,.33-.07,4.97-.32,4.97-.32l1.06.23s.37-.07,1.33-.13c.95-.03,4.37,0,4.37,0,0,0,.44.13,1.21.13h4.4l.74.27s.12.05,1.55,0c1.44-.05,2.34-.06,3.42-.06s8.87.45,8.87.45c0,0-7.47.37-11.92.82-4.43.46-9,1.41-14.71,2.71-5.72,1.27-8.87,3.09-12.48,5.02-3.6,1.92-8.87,5.35-14.75,8.49-5.86,3.16-10.38,4.95-11.78,5.55-1.42.57-4.45,1.79-4.5,2.12-.08.32.82.32,1.47-.07.67-.38,8.24-2.96,11.25-4.32,3.04-1.34,8.12-4.37,11.2-6.04,3.08-1.69,8.45-5.09,8.68-5.15.27-.07,1.03-.58,1.51-.77l3.91-1.67c.12-.07,1.05-.07,1.4-.26.42-.2,3.75-1.36,3.75-1.36,0,0,.77,0,1.36-.2.57-.17,3.53-1.01,4.38-1.08.53-.05.56-.05.76-.07.35,0,.7-.07,1.17-.32.44-.26,1.72-.07,2.43-.12.72-.07.63-.19,1.05-.38.37-.2.87,0,1.39.06.55.06,2.39-.57,2.98-.65.58-.05,1.41-.07,1.98-.07s9.27-.57,15.33-.57,10.9-.31,10.9-.31c0,0,1.28,7.72,3.24,14.41,1.99,6.7,5.81,12.73,5.81,12.73,0,0-6.77,9.53-8.5,12.3-1.75,2.76-3.98,6.75-4.42,7.02-.48.27-1.77-.32-3.14-.77-1.44-.46-5.48.26-5.48.26,0,0-2.96-2-7.54-2.65-2.33-.32-4.93.71-6.32,1.78-1.27,1.04-1.4,2.09-1.59,2.3-.48.38-.39.19-2.58.25-2.2.07-2.6,1.15-2.64,1.8-.07.64,1.34,1.6,1.34,2-.06.25.64,1.61.64,1.61,0,0,0-1.49.12-1.8.14-.32.14.06,2.53-.43,2.38-.53,5.2-1.37,5.2-1.37l1.84,1.54s-.94-2.05-.86-2.5c.06-.45,1.4-.27,2.31-1.1.92-.85,3.04-.52,3.48-.45.47.05,1.41.7,1.83,1.4,0,.4-.35.34-.79.78-.44.44-.57.52-1.09.82-.52.34-.7.47-.7,1.23s2.3,1.11,3.79.79c.99-.22.99-.39.92-.47.12.09.61.42,1.01.67.42.25,1.02.25,1.33.12.32-.12,1.42-.39,1.8-.59.39-.18,1.16,0,1.37.33.16.32.96.32,1.44.32.54,0,1.11,0,1.81-.07.72-.07,2.08-.32,2.63-.52.6-.19.86-.25,1.23-.58.41-.31.41-1.15.77-1.61.37-.44.72-.12,1.04-.18.32-.07,1.11.07,1.11.07l.51.58.45-2.77c.07-.32.63-1.86.63-1.86l.83,1.09-.23-1.54.7-2.14.77.59-.13-1.42,3.03-5.21.91.51-.32-.9,1.72-3.61s.47-.12.72,0c.26.12,1.07,1.16,1.07,1.16l-10.72,18.56c-.79,1.33-1.71,3.54-1.87,3.85-.22.32-.99.17-1.47.06-.53-.13-3.1,0-3.63.18-.52.22-2.69.44-2.99.52-.35.07-4.08-.52-5.48-.27-1.43.27-3.8,2.2-4.45,2.79-.64.57-1.56,2.25-1.69,2.49-.11.2-1.66.87-2,1.06-.28.17-.8.37-1.21.83-.38.45-.62.57-.68.83-.08.26.52.58.81.72,0,0,.92.89,1.24.83.32-.07-.07-.59,0-.91.04-.32.69-.13,1.52-.25.86-.13,2.34-.2,3.6-.58,1.3-.4,1.05-.45,1.56-.78.5-.32,1.37-.08,1.74.07.38.13,2.06,1.34,1.94,1.09-.14-.26-1.04-.9-1.25-1.09-.27-.2-.69-.72-1.12-1.17-.46-.43-.6-.65-.6-.65,0,0,1.23-1.15,1.72-1.46.42-.32.67-.52,1.18-.78.51-.24,1.24-.31,1.55-.17.32.12.04.17-.28.71-.28.51-.57.76-.82,1.03-.26.25-.38.82-.07,1.14.33.32,1.1.27,2.15.32,1.01.08.66-.13,1.03-.32.38-.19,1.13-.13,1.61-.05.44.05.44,0,.88-.14.47-.13.59,0,.98,0s1.49-.27,1.81-.51c.32-.27,1.46,0,2.76,0s.95,0,1.36-.32c.36-.33.77-.33,1.13-.4.39-.07.85-.25,1.31-.64.42-.38.7-1.66.76-1.99.07-.32,1.56-.39,1.56-.39l.77.57s.39-1.41.25-1.8c-.12-.4.32-1.87.52-2.25.18-.38.64,1.16.64,1.16,0,0,.08-.84-.13-1.16-.19-.32.13-1.94.37-2.38.28-.47.81.9.81.9l-.22-1.61.91-2.31.7.77-.05-1.81c0-.31.9-2.36,1.01-2.62.14-.27.95.95.95.95l-.47-1.54,2.94-6.63s1.02.5,1.49.58c.45.05,1.6.44,1.6.44,0,0,1.9,3.23,3.8,5.08,1.93,1.86,4.51,3.1,4.51,3.1l.77.06s.13.78.42,1.29c.23.52,1.09.84,1.41.84.31,0,.57-.12.83-.32.25-.19.39-.07.62.07.26.12,1.17,2.3,1.49,2.69.33.4,1.3,2.07,2.06,2.52.79.45,1.31,1.3,2.14,1.16.83-.13.63-1.03.31-1.54-.31-.52-1.72-1.11-2.45-1.85-.7-.8-1.52-2.2-1.52-2.2,0,0,1.15.32,1.91.32s1.55-.07,2.12-.26c.57-.2,1.75-.32,2.2-.52.43-.19.96-.14,1.23.05.26.2.3.52.63,1.05.35.51.3.57.73.96q.37.39.88.39c.5,0,.43-.12.78-.47.31-.31.5-.96.95-2.05.45-1.09,1.09-1.74,1.28-2.38.22-.65.59-1.92.85-2.45.25-.53.92-1.11,1.16-1.67.26-.59.04-.78.04-.78l1.36.91c.73.43,3.09,3.21,3.56,4.37.43,1.16,2.38,2.76,3.09,2.84.7.05,1.1.21,1.8.32.7.11,3.03.51,3.98-.07.98-.57,4.17-3.42,5.46-4.65,1.31-1.22,2.67-5.01,2.69-5.59.07-.58.14-.89.57-1.48.37-.58,2.55-.18,2.55-.18,0,0,0,.38.07.96.04.57.27.31.52.63.25.34.07.65-.18,1.24-.29.56-.43.83-.91,1.99-.46,1.16-.2,2.76.21,3.35.37.57,2.45,2.38,2.45,2.38,0,0,.06.05.88.52l1.74.96s.37-.57.79-.37c.38.21.52.7.96,1.08.44.39.81.47,1.73.66.9.18,4.7,1.16,6.89,1.47,2.19.33,5.81.84,6.83.91,1.01.06,4.96.57,7.64,1.16,2.71.59,7.75,1.87,9.28,1.94,1.56.04,11.98.07,13.84.07s14.26.37,16.14.25l10.44-.77c1.02-.06,5.14-.2,5.85-.14.7.06,1.06.38,1.61.59.57.19,4.05.52,4.92.44.83-.06,5.98.27,7,.2,1.03-.08.37-.2.77-.39.37-.18,3.99-.32,5.71-.32s15.09-.73,15.09-.73c0,0,.31.67.38,1.05.05.39.31.84.31.84l.72-.53s.96,1.05,1.19,1.49l1.05,1.74,1.17.71c.12.26.76.9.76.9l-.23-.96,1.55-.05c1.25-.07,1.4-.19,1.96.18.09.26.27.65.27.65,0,0,.97.39,2.06.26,1.09-.12.97,0,1.27,0,.32,0,.71,0,1.28-.12.6-.14.72,0,2.21,0s1.29-.14,1.87-.33c.55-.2,1.87-.46,2.25-.46s.81.52,1.15.6c.32.05,2.42.05,3.04-.08.55-.13.74-.19,1.19-.95.47-.79.26-.27.6-.72.34-.43-.09-.44-.77-1.53-.69-1.1-.47-.46.12-.78.56-.32,2.52.12,2.84.2.32.07.71.37,1.47.82.77.45,2.82,1.22,2.82,1.22,0,0,.52.13.87.13.31,0,.18.39.05.82-.15.46-.59.78-.82,1.31-.27.52-1.36,2.05-.92,1.67.44-.38,2-1.88,2.45-2,.48-.12.96.25,1.75.45.77.19,1.16.23,2.16.23s1.04,0,1.56-.04c.53-.06.77-.13,1.3-.45.5-.31,1.66-.26,2.25-.65.58-.39.22-.88-.33-1.35-.49-.47-4.7-1.03-5.34-1.6-.64-.58-.6-.72-.97-1.23-.4-.51-4.57-1.95-7-2.2-2.45-.26-7.14.76-7.73.76s-.53,0-1.05-.3c-.51-.32-2.99.65-2.99.65,0,0-.39-.14-.95-.53-.61-.37-5.12,1.17-5.95,1.17s-.77-.4-1.09-.59c-.34-.19-.41-.58-.52-.91l-.32-.77s8.83-.77,14.56-1.16c5.71-.37,9.77-.84,10.14-1.41-.04-.33,2.2-.18,6.59-.12,4.37.07,10.81-.27,13.57-.21,2.78.07,8.18-.06,8.55-.12.42-.05.42-.44.66-.91.28-.43,5.74-.31,11.35-.64,5.59-.31,15.24-1.09,15.82-1.15.57-.08.82-.84.82-.84,0,0,1.49-.19,4.08-.45,2.56-.26,16.07-1.99,16.66-2.13.57-.12.52-.76.46-1.21-.06-.45,3.86-.91,7.47-1.48,3.58-.6,8.3-1.42,8.76-1.69.43-.25.77-.25.77-.82s.19-1.8.19-1.8c0,0,9.43-.79,15.37-1.36s7.22-1.22,8.02-1.47c.76-.26.87-.98.95-1.34.05-.41,3.21.3,6.48.17,3.3-.12,4.13-.43,4.44-.7.32-.26.42-.52.47-.85.07-.31,1.27-.06,2.25-.06s1.45,0,1.85-.12c.37-.12.46-.32.57-.82.12-.53.66-1.37,2-1.74,1.34-.38,2.63-.07,3.28.05.66.13,2,.89,2,.52s-.96-2.05-1.09-2.45c-.13-.37,1.49-.59,2.19-1.21.72-.64,1.68-1.87,1.85-2.12.22-.27-3.12.83-4.25.39-1.09-.46-3.21-2.34-3.51-2.77-.35-.46-1.81-2.79-2.1-3.49-.37-.71-2.01-2.39-2.34-2.76-.35-.38-.87-.07-1.18-.25-.31-.21-.26-.52-.06-1.62.19-1.1,1.15-.52,3.21-.57,2.05-.07,6.98-.85,15.77-1.87,8.83-1.02,18.23-2.58,18.23-2.58,0,0,1.98.66,2.94.78.97.12,1.85.12,2.7-.08.84-.18.96-.82,1.29-1.33.33-.54,1.48-.97,4.02-1.11,2.49-.13,9.95-2.12,9.95-2.12,0,0,3.23,2.12,7.82,5.47,4.57,3.36,14.28,10.48,20.29,15.31,6.05,4.83,16.82,13.32,23.51,18.36,6.7,5.01,11.09,4.5,11.35,4.3.25-.21,1.85-.27,2.61-.46.8-.18,1.24-.38,1.5-.57.27-.19.19-.44,3.34-.51,3.13-.07,2.78,0,3.3-.12.5-.14,2.25-1.42,2.5-1.69.26-.26,1.81-.05,2.33.07.47.12.56,0,1.85,0s3.62-.57,3.87-.9c.27-.32.28-.12.98-.07.63.07.57.12.99.52.35.37,2.1,1.09,2.68,1.21.59.13,2.7-.06,2.97-.32.22-.26.42-.78.23-1.56-.21-.77-.56-.17-.91-.24-.28-.06.22-.77.83-1.3.67-.51.81-1.09,1.81-1.28,1.05-.2.7.13,2.44.26,1.75.11,3.66.52,4.29.52.68,0,1.31,0,1.68.11.42.14,1.52,1.11,1.65,1.42.12.33-.09.65-.22,1.29-.12.64-2.1,2.31-2.23,2.64-.12.32,3.14-2,3.44-2,.35,0,1.38.14,1.38.14l.49.58c.47.52,3.64,2.04,3.93,2.04.32,0,.37-.25.72-.69.32-.45.96-.32,1.46-.52.5-.2.26-.4,0-.65-.27-.24-3.74-2.56-3.74-2.56,0,0-.37-.46-.3-1.05.05-.57.37-.7.64-.82.25-.13,2.3.37,2.64.32.3-.06.39-1.16.47-1.48.02-.32-1.71-2.13-1.71-2.13,0,0,1.87-.71,3.43-.96,1.53-.24,5.58-.26,7.54.12,1.92.4,3.01,1.24,3.77,1.44.44.09.52.13.64.13.07,0,.16-.02.86.49.07.46.26.47.26.96,0,.52-1.53,1.75-1.53,1.75,0,0,2.1-.83,2.35-.83.27,0,1.03.45,1.03.45,0,0,.07.38-.12.91-.2.51-1.17,1.08-1.17,1.08,0,0,.2.12.7-.05.57-.2,2.14-1.1,2.14-1.1l2.78,1.21c.32.13,2.9.06,3.4-.12.52-.2.52-.97-1.33-2.2M444.75,16.77c.26-.27,1.98-.72,1.98-.72,0,0,1.49.65,2.54.12,1.01-.52,1.29-.71,1.57-.96.26-.24.77-.32.77-.32,0,0,5.44,5.98,6.46,6.9,1.05.89,6.85,5.64,10.63,9.25l4.45,4.17s-2,1.31-3.3,1.57c-1.26.26-2.25.18-2.25.18,0,0-6.68-6.24-9.17-8.42-2.54-2.2-4.38-4-4.66-4.39-.26-.38-1.8-2.55-3.43-3.41-1.59-.84-5.05-2.64-5.34-3.15-.26-.52-.53-.57-.26-.82m8.13,34.23h-24.79c-6.88,0-25.24-.19-28-.19s-5.16-.37-5.16-.37c0,0,4.44-3.75,7.54-5.35,3.1-1.63,5.66-3.09,6.84-3.23,1.16-.12,11.69.99,16.45-1.41,4.78-2.38,6.4-5.53,7.28-6.88.91-1.35,1.63-2.64,1.63-2.64,0,0,2.45-1.16,4.41-3.03,2.03-1.88,2.65-2.64,2.65-2.64,0,0,4.34,4.43,8,7.47,3.68,3.01,13.96,11.72,17.29,14.36,3.39,2.63,5.61,4.56,5.61,4.56,0,0-18.98-.65-19.73-.65m26.83-3.91s-9.59-7.35-9.14-7.93c.44-.58.96-1.87,1.34-2.38.37-.52,1.57-1.36,1.57-1.36l11.49,9.47s-2.22,1.47-2.59,1.73c.4-.29-2.68.47-2.68.47m5.65,4.43s-2.49-1.68-2.31-2.25c.19-.57.32-1.41.58-1.8.25-.37,2.15-2.05,2.15-2.05l7.44,5.97-7.86.14Zm42.04,31.93c.08-.26,1.01-.58,1.01-.58l6.29-1.42,1.42,1.28s-6.64,1.89-6.91,1.89-1.89-.91-1.81-1.16m15.26,10.69c-.38.18-1.56.12-1.56.12,0,0-3.4-3.09-3.14-3.29.26-.19,1.36-.7,1.65-1.03.33-.32.37-.71.08-.64-.32.07-4.18.32-4.18.32l-2.59-2.45,3.11-2.64c.37-.33,1.55-1.03,1.55-1.03l11.32,8.61s-5.88,1.8-6.25,2.01m6.57,5.47c.18-.39,2.33-1.69,2.33-1.69,0,0-4.72.62-4.87.32-.1-.25-1.55-1.35-1.36-1.79.22-.47,4.66-3.48,4.66-3.48l7.73,6.16s-6.77,1.86-7.23,1.67c-.46-.18-1.46-.83-1.26-1.21m5.06,4.11c-.03-.31.13-.57.4-.9.24-.31,4.45-2.63,4.45-2.63l7.7,6.17h-8.53c-.34,0-3.96-2.33-4.03-2.65m12.08,9.08s-3.3-2.83-2.99-3.22c.33-.38,3.47-2,3.47-2l1.11-.51,7.34,6.52-1.81-.53-2.04-.32.71-.83-5.78.9Zm8.86,4.88c-1.61.4-1.92.52-2.18.27-.27-.27-1.75-1.56-1.95-2.08-.18-.51-.13-.59.2-.77.32-.18,3.16-.91,3.42-.96.22-.06,1.3,0,1.3,0l3.93,3.14s-3.09,0-4.72.38m7.99,4.13c-2.4-.26-2.64-1.03-2.77-1.48-.12-.44-1.35-1.36-1.1-1.56.25-.18,2.08-.39,2.08-.39l4.49,3.8s-.32-.12-2.7-.37"/>
  </g>
</svg>