<?xml version="1.0" encoding="UTF-8"?>
<svg id="Layer_2" data-name="Layer 2" xmlns="http://www.w3.org/2000/svg" viewBox="0 0 654.5 317.84">
  <defs>
    <style>
      .cls-1 {
        fill:#808080
      }
    </style>
  </defs>
  <g id="Layer_1-2" data-name="Layer 1">
    <path class="cls-1" d="m654.33,53.45c-.38-3.94-1.25-7.77-3.14-11.27-1.09-2-2.52-3.77-4.15-5.27-4.17-3.68-9.52-5.84-14.67-7.89-7.25-2.88-15.1-4.5-22.99-4.54-10.22-.04-20.19.93-30.34,1.98-7.03.67-13.99,1.7-20.89,3.49-8.74,2.26-17.35,5.12-26.05,7.54-4.23,1.18-8.32,2.33-12.58,3.45-5.23,1.4-10.51,2.8-15.82,4.28-4.93,1.37-9.74,2.73-14.7,4.13-6.28,1.84-12.56,3.64-18.9,5.42-3.96,1.18-7.97,2.3-12.02,3.45-4.99,1.39-10.01,2.83-14.94,4.26-4.51,1.29-8.94,2.61-13.43,3.98-5.94,1.91-12.12,3.69-18.18,5.53-4.51,1.39-9.16,2.78-13.61,4.61-5.42,2.09-10.81,4.52-15.94,7.51-3.93,2.3-7.63,4.99-11.09,7.99-3.32,2.87-6.7,6.04-10.97,7.47-2.19.72-4.99.63-7.01-.81-2.23-1.52-5.38-2.41-6.93-4.73-.82-1.27-.64-2.52-.78-3.96-.18-2.01-.99-3.67-2.03-5.34-1.79-2.74-2.56-6.41-4.61-8.78-.14-.1-.26-.21-.38-.31l15.9-8.57c10.75-6.5,22.24-12.89,29.31-23.67,0-.03,3.26-5.3,3.26-5.3,1.47-4.46,2.82-8.99,4.47-13.35,1.91-5.09,2.94-10.4,4.69-15.51.73-2.07,5.11-8.83.56-9.24-2.24-.21-2.5,2.65-2.82,4.25-1.01,4.58-2.09,9.14-3.4,13.6-.99,3.51-2.13,6.93-3.24,10.38-2.68,8.41-5.66,14.99-12.6,20.76-4.19,3.51-8.21,6.95-12.8,9.85-4.93,2.98-9.94,5.57-15.04,8.24-.12.11-6.5,3.58-11.37,6.22-5.27-3.2-10.61-3.15-15.68,0-4.89-2.64-11.31-6.11-11.45-6.22-5.01-2.66-10.12-5.26-14.94-8.24-4.67-2.89-8.62-6.34-12.84-9.85-6.9-5.76-9.98-12.35-12.66-20.76-1.05-3.46-2.23-6.88-3.24-10.38-1.27-4.46-2.29-9.02-3.38-13.6-.32-1.6-.5-4.46-2.8-4.25-4.53.41-.1,7.17.58,9.24,1.77,5.11,2.72,10.42,4.69,15.51,1.65,4.36,2.98,8.89,4.41,13.35,0,0,3.28,5.27,3.28,5.3,7.11,10.78,18.56,17.17,29.39,23.67l15.84,8.57c-.08.1-.28.21-.36.31-2.05,2.37-2.86,6.04-4.59,8.78-1.05,1.67-1.85,3.33-2.03,5.34-.2,1.44,0,2.69-.89,3.96-1.59,2.32-4.59,3.21-6.86,4.73-2.03,1.44-4.81,1.53-7.07.81-4.19-1.43-7.57-4.6-10.89-7.47-3.48-3-7.19-5.69-11.11-7.99-5.1-2.99-10.43-5.42-15.96-7.51-4.41-1.83-9.02-3.22-13.61-4.61-6.06-1.85-12.14-3.63-18.22-5.53-4.47-1.37-8.84-2.69-13.35-3.98-4.95-1.43-9.97-2.87-14.94-4.26-4.05-1.14-8.01-2.27-12.06-3.45-6.3-1.79-12.58-3.59-18.86-5.42-4.91-1.4-9.86-2.76-14.72-4.13-5.29-1.48-10.55-2.88-15.88-4.28-4.13-1.11-8.32-2.26-12.54-3.45-8.66-2.42-17.27-5.28-26.03-7.54-6.91-1.79-13.85-2.81-20.9-3.49-10.15-1.05-20.13-2.02-30.4-1.98-7.79.04-15.68,1.66-22.93,4.54-5.17,2.05-10.47,4.21-14.63,7.89-1.73,1.5-3.1,3.27-4.11,5.27-1.89,3.5-2.8,7.33-3.18,11.27-.38,4.67-.08,9.32.76,13.91,1.17,6.81,3.44,13.33,5.8,19.79,3.74,10.15,6.58,20.68,12.08,30.02,2.03,3.54,4.19,6.96,6.52,10.25,1.87,2.79,4.09,5.28,6.52,7.47,4.51,3.79,10,6.16,15.64,7.35,4.67.98,9.3,1.54,14.05,1.89,16.91,1.1,33.98.07,50.95.07-.93,0-2.11.5-3,.75-5.21,1.32-10.35,2.53-15.5,3.9-4.65,1.2-9.44,2.14-14.11,3.49-6.26,1.83-12.78,4.89-17.03,9.97-6.68,7.95-11.64,17.8-10.97,28.43.28,3.79,1.93,7.08,3.75,10.32,4.35,7.9,9.18,15.42,14.71,22.56,2.28,3.15,4.93,6.04,6.76,9.55,1.99,3.76,3.3,7.84,5.72,11.41,2.34,3.63,5.52,6.7,8.7,9.61,5.74,5.26,11.37,11.13,17.79,15.52,3.48,2.44,7.27,4.46,11.19,6.14,6.88,3,14.07,5.16,21.2,7.19,9.12,2.57,18.14,5.7,27.03,8.85,10.14,3.55,19.73,6.57,30.46,4.32,9.3-1.95,18.56-4.85,27.72-7.47,7.41-2.12,14.92-4.34,21.96-7.83,6.42-3.21,12.78-7.18,17.83-12.44,4.67-4.91,7.27-11.37,9.5-17.68,1.47-3.96,3.1-7.81,4.61-11.71,5.46-14.55,7.93-29.99,10.01-45.29,1.67-11.71,3.1-24.02,7.02-35.19.93-2.8,3.32-5.13,3.54-8.16.48,3.8.62,7.67.8,11.51.6,14.9-.56,29.83-.56,44.7,0,11.25.88,22.5-.24,33.68-.48,4.67-2.03,9.14-2.46,13.84-.56,5.53.62,11.01.83,16.56.4,6.97.52,15.86,7.75,19.43,4.41,2.13,7.91,4.83,9.34,9.73,1.07,3.35,1.27,6.9,2.19,10.24.5,1.51,1.03,3.19,1.97,4.47,3.12,4.16,9.38,4.36,12.52.24,3.1-4,2.68-10.2,4.09-14.95,1.53-4.9,5.03-7.6,9.42-9.73,7.21-3.58,7.35-12.46,7.69-19.43.34-5.55,1.39-11.03.93-16.56-.46-4.7-1.97-9.17-2.46-13.84-1.15-11.19-.34-22.44-.34-33.68,0-14.88-1.07-29.8-.5-44.7.18-3.85.34-7.71.83-11.51.14,3.03,2.56,5.36,3.5,8.16,3.92,11.18,5.36,23.48,6.99,35.19,2.11,15.3,4.55,30.74,10.06,45.29,1.45,3.9,3.1,7.74,4.53,11.71,2.25,6.31,4.83,12.77,9.56,17.68,5.07,5.25,11.43,9.23,17.85,12.44,6.98,3.49,14.49,5.71,21.94,7.83,9.08,2.62,18.36,5.52,27.68,7.47,10.79,2.24,20.37-.77,30.42-4.32,8.96-3.15,17.9-6.28,27.02-8.85,7.23-2.04,14.45-4.19,21.28-7.19,3.96-1.68,7.63-3.7,11.23-6.14,6.4-4.39,12.04-10.26,17.76-15.52,3.18-2.91,6.34-5.98,8.67-9.61,2.44-3.57,3.74-7.65,5.78-11.41,1.77-3.51,4.35-6.4,6.74-9.55,5.47-7.14,10.29-14.67,14.73-22.56,1.77-3.24,3.42-6.54,3.72-10.32.63-10.63-4.21-20.48-11.01-28.43-4.23-5.09-10.75-8.15-16.99-9.97-4.69-1.35-9.48-2.29-14.11-3.49-5.19-1.36-10.33-2.57-15.46-3.9-.91-.25-2.05-.75-3.04-.75,16.89,0,34.06,1.03,50.91-.07,4.75-.35,9.4-.9,14.09-1.89,5.56-1.18,11.21-3.56,15.54-7.35,2.5-2.19,4.73-4.68,6.6-7.47,2.34-3.29,4.47-6.72,6.58-10.25,5.47-9.34,8.33-19.87,12.06-30.02,2.32-6.47,4.59-12.98,5.82-19.79.82-4.59,1.13-9.24.74-13.91h0Z"/>
  </g>
</svg>