<?xml version="1.0" encoding="UTF-8"?>
<svg id="Layer_2" data-name="Layer 2" xmlns="http://www.w3.org/2000/svg" viewBox="0 0 654.5 236.12">
  <defs>
    <style>
      .cls-1 {
        fill:#808080
      }
    </style>
  </defs>
  <g id="Layer_1-2" data-name="Layer 1">
    <path class="cls-1" d="m653.56,200.16c-2.97-10.62-2.77-26.29-5.21-36.11-2.45-9.77-14.13-22.81-26.03-30.05-11.88-7.22-18.13-15.2-32.99-17.73-14.86-2.43-37.11-7.14-50.09-10.53-12.95-3.38-17.58-4.49-34.45-3.2-16.87,1.36-22.46,1.57-32.74.76-23.3-1.8-40.3,2.33-50.49,1.09-22.34-2.74-33.83,0-45.05-.84-31.66-2.42-50.58-2.05-58.9-4.32-7.28-2-34.96-7.1-47.06-12.83-12.11-5.72-15.43-5.47-21.59-7.65-6.15-2.15-24.76-5.59-32.35-9.32-7.6-3.72-21.29-14.33-29.13-19.51-6.3-4.12-14.61-22.09-22.13-27.74-7.52-5.63-34.24-18.06-43.9-17.31-9.67.73-31.6,5.04-38.35-1.42-9.22-8.82-24.2,1.25-34.87,8.5-.46.31-.95.81-1.45,1.23-.19-.12-.35-.29-.56-.42-8.41-4.99-25.6-2.73-37.5,12.71C1.18,35.23-1.43,47.97.73,57.26c-1.15,5.91,3.06,16,5.06,23.42,1.97,7.42,8.37,6.71,9.64,2.73,1.08-3.47,8.04-7.33,12.84-12.12,1.33-.25,2.61-.67,3.82-1.19,1.48,1.92,3.83,4.28,6.85,6.99-2.05,3.05-3.42,7.17-3.72,11.2-6.36,2.09-9.44,11.42-12.55,15.67-3.63,4.97-14.74,7.31-14.7,10.74.04,3.4,14.14,3.78,20.95-.02,6.1-3.39,13.47-6.65,18.22-13.27,5.73-.26,12.34-2.53,16.36-5.05.22.18.43.33.66.46-1.74,2.94-2.85,6.68-3.12,10.36-6.36,2.09-9.43,11.4-12.57,15.64-3.62,4.97-11.99,9.89-11.95,13.33.04,3.41,11.42,1.2,18.22-2.57,6.1-3.41,13.47-6.67,18.2-13.29,6.27-.27,13.48-2.97,17.29-5.73,3.71,2.36,6.82,4.22,9.12,5.47-3.4,3.17-4.94,9.84-4.2,15.77-5.87,3.33-7.09,12.99-9.34,17.72-2.62,5.54-9.94,11.97-9.21,15.3.71,3.33,9.44,2.21,15.43-2.79,5.38-4.52,13.71-11.78,17.42-19.78,6.68-1.63,13.96-6.29,16.78-9.88,2.4,1.98,4.41,4.01,5.83,6.04,5.51,7.78,44.38,27.04,62.5,26.24.1,0,.22.02.32,0,2.23,13.84,12.69,16.83,13.47,21.35.12.74.25,1.38.39,2.01-.49,4.55.06,8.98-2.14,12.72-4.98,8.55,12.31,15.64,18.18,7.44,3.17-4.42,3.77-9.73,4.65-14.34.87-.83,1.68-1.79,2.42-3.09,1.79-3.09,10.43-3.15,13.91-10.57,5.32,2.13,9.96,3.93,13.45,5.06,4.48,7.33,16.19,10.01,16.04,13.7-.09,2.09.19,3.64.75,4.89.22,3.52.59,6.85-.8,9.98-3.96,9.02,14.03,14.12,18.91,5.28,2.68-4.87,2.63-10.34,3-15.09.73-.86,1.39-1.82,2.01-3.01,1.47-2.87,11.03-3.72,14.92-9.51,2.82.29,5.5.57,8.05.81,5.15,6.53,16.17,8.2,16.93,11.72.22.98.55,1.71.85,2.53.51,4.31,1.73,8.31.4,12.28-3.17,9.34,15.22,12.83,19.3,3.61,2.26-5.12,1.71-10.59,1.67-15.36.62-.88,1.19-1.9,1.76-3.11,1.04-2.32,6.4-4.06,10.09-7.75.24,0,.47.02.72.02,6.45,5.08,17.52,6.17,19.2,9.03.38.6.83,1.02,1.24,1.56,1.44,4.84,4.42,9.42,3.41,13.82-2.22,9.57,14.48,10.48,17.63.91,1.52-4.66.86-9.37.33-13.66,1.28-1.42,2.22-3.38,2.84-6.06.52-2.29,3.69-3.93,6.06-6.98,1.78-.02,3.63-.02,5.52-.08,6.06,4.6,15.46,5.34,16.3,8.55.44,1.63.99,2.93,1.69,4,1.28,4.42,3.08,8.78,2.22,12.52-2.22,9.63,13.75,8.84,16.89-.73,1.62-4.87,1.19-9.77,1-14.08.83-1.18,1.52-2.56,2.04-4.16.62-1.99,3.56-3.7,6.14-6.35,1.4,0,2.77,0,4.06-.03,4.69,1.86,9.76,2.4,10.84,4.58.68,1.4,1.58,2.84,2.63,4.11.56,5.44,1.95,11.1.96,15.4-1.82,7.88,12.74,7.99,15.3.21,1.5-4.6,2.11-9.57,2.84-14.14,1.59-1.51,2.9-3.41,4.02-5.94.43-1.02,1.46-1.95,2.72-3.07,4.38,4.53,11.23,6.64,11.55,9.63.29,2.75,1.31,4.81,2.62,6.47-.07,4.77-.14,9.51-3.31,12.61-5.57,5.32,11.94,12.05,17.53,2.54,2.27-3.82,3.47-7.91,4.59-11.7,1.79-1.04,3.29-2.67,4.5-5.21,1.23-2.56,6.99-3.63,10.67-7.85.83.54,1.62,1.15,2.26,1.73,6.32,6.1,15.34,15.15,24.92,8.69,5.32-3.61,10.09,3,8.12,8.05-4.12,10.53,14.4,15.06,22.12,8.58,7.72-6.5,8.96-15.19,15.46-13.99,6.48,1.17,16.97-4.27,12.83-18.97"/>
  </g>
</svg>