<?xml version="1.0" encoding="UTF-8"?>
<svg id="Layer_2" data-name="Layer 2" xmlns="http://www.w3.org/2000/svg" viewBox="0 0 384.21 654.5">
  <defs>
    <style>
      .cls-1 {
        fill:#808080
      }
    </style>
  </defs>
  <g id="Layer_1-2" data-name="Layer 1">
    <path class="cls-1" d="m1.35,61.23c13.57,31.4,37.91,50.91,61.46,71.21,7.18,6.17,4.71,15.03,3.81,22.43-1.23,12.11-3.7,24.22-5.72,36.34-1.33,3.89-.42,8.19,2.36,11.21,20.9,20.81,38.52,44.67,52.26,70.76.67,1.57,1.35,3.7,3.81,2.58,2.47-1.12,2.02-3.59,1.46-6.06-4.15-17.61-7.29-36.67,4.82-51.14,8.71-11.71,13.64-25.79,14.13-40.37,1.57-18.69,12.86-35.17,29.72-43.4,3.48-1.68,3.59-3.81,3.03-7.07-2.78-11.98-6.53-23.72-11.21-35.1-3.37-8.28-6.14-16.78-8.3-25.46-2.56-12.24-9.91-22.94-20.41-29.72-12.54-10.52-23.83-22.45-33.64-35.55l1.91-1.91c1.57,1.91,3.25,3.7,4.71,5.61,12.82,13.94,26.33,27.23,40.48,39.81,3.05,3.14,5.25,6.99,6.39,11.21,5.94,24,18.28,46.43,23.44,71.1.79,3.81,2.24,4.04,5.61,3.14,6.7-1.97,13.82-1.97,20.52,0,5.16,1.68,6.5-1.12,7.4-4.71,6.06-25.23,19.29-47.77,27.25-72.22,1.08-4.58,3.84-8.58,7.74-11.21,19.18-10.32,38.13-21.08,56.07-33.64,0,3.59-3.36,4.93-5.61,6.73-12.92,9.76-26.79,18.21-41.38,25.23-6.16,2.45-10.92,7.5-13.01,13.79-7.29,24.45-20.3,46.65-28.04,70.99-1.68,5.38-1.12,7.18,3.93,9.98,19.04,11.35,30.29,32.25,29.27,54.39-.4,7.91,2.58,15.61,8.19,21.2,13.79,14.13,13.79,32.41,11.21,50.8-.67,4.49-6.17,11.21,0,13.23,6.17,2.02,5.94-6.28,7.85-10.09,12.63-22.26,28.21-42.7,46.32-60.78,3.93-4.12,5.41-9.99,3.93-15.48-2.13-12.11-4.37-24.22-6.17-36.34-2.31-9.11,1.09-18.72,8.64-24.34,20.36-14.54,37.66-32.94,50.91-54.17,2.13-3.81,3.93-7.63,6.39-12.45,3.14,5.5,0,8.41-1.57,11.21-12.56,24.9-33.64,42.05-54.61,59.21-3.23,1.82-4.81,5.62-3.81,9.2,2.8,18.06,4.15,36.34,6.73,54.39.47,2.82-.36,5.7-2.24,7.85-17.62,24.88-33.22,51.13-46.65,78.5-2.46,4.11-2.46,9.24,0,13.35,8.95,14.99,14.97,31.54,17.72,48.78.64,4.7,3.41,8.84,7.51,11.21,13.79,9.08,27.36,18.5,41.16,27.48,4.16,2.07,6.44,6.64,5.61,11.21-2.36,14.8-3.93,29.72-6.06,44.86-.72,4.39,1.21,8.78,4.93,11.21,10.58,8.44,20.07,18.16,28.26,28.93,3.25,3.64,3.91,8.9,1.68,13.23-13.91,31.29-23.33,64.26-35.21,96.22-1.82,3.52-1.82,7.7,0,11.21,7.63,15.92,12.45,33.64,20.86,48.78,1.12,2.02,1.35,3.7-1.23,5.16-2.58,1.46-3.7,0-4.82-2.24-6.62-10.43-9.87-22.43-16.6-32.86-11.21-16.71-7.74-31.96-1.23-48.78,9.64-24.78,17.72-50.24,26.8-75.25,2.09-4.03.6-9-3.36-11.21-7.63-6.28-14.8-13.01-23.21-20.52-2.8,14.92-5.38,28.82-8.19,42.73-.79,3.7,1.46,5.38,3.59,7.51,4.04,4.04,8.07,8.07,11.89,12.22,1.79,1.91,2.8,4.49,0,6.28-2.8,1.79-3.7,0-5.16-1.79-4.71-5.94-9.64-11.21-14.35-17.38-2.82-3-3.77-7.31-2.47-11.21,2.92-12.56,5.05-25.34,7.74-37.91,1.13-3.47-.32-7.25-3.48-9.08-4.88-3.76-10.19-6.92-15.81-9.42v25.57c2.92,52.04-19.18,91.62-60.22,121.9l-12.9,9.87c-17.49,12.9-31.96,12.56-47.55-2.36-4.71-4.49-6.84-5.05-11.21,0-11.14,13.69-31.28,15.75-44.96,4.61-.62-.5-1.22-1.03-1.8-1.58-17.18-12.14-32.88-26.25-46.76-42.05-17.12-21.2-26.61-47.55-26.91-74.8-.56-13.23,0-26.47,0-40.15-6.21,2.28-11.89,5.79-16.71,10.32-3.14,2.02-1.46,5.61-1.01,8.41,2.24,12,4.26,24.22,7.07,36.11,1.26,4.34.15,9.02-2.92,12.34-4.82,5.38-9.2,11.21-13.79,16.71-1.46,1.57-2.92,3.36-5.27,1.23-2.36-2.13-1.68-3.48,0-5.38,1.68-1.91,4.26-6.39,7.18-7.96,10.21-5.61,9.2-13.91,7.07-22.99-2.13-9.08-4.15-20.52-6.39-31.85-9.31,8.07-18.39,15.59-27.14,23.55-2.8,2.47,0,5.61.67,8.3,10.65,30.73,21.2,61.68,32.19,92.3,3.1,6.7,2.59,14.51-1.35,20.75-7.96,13.35-11.78,28.82-20.52,41.94-1.46,2.02-1.68,6.73-6.17,4.04-4.49-2.69,0-5.16,0-7.51,6.84-16.26,13.68-32.52,20.86-48.67.83-2.54.55-5.31-.79-7.63-11.78-31.74-20.97-64.37-34.88-95.32-2.94-5.38-2.08-12.03,2.13-16.49,8.53-10.03,18.04-19.2,28.37-27.36,3.7-2.43,5.49-6.91,4.49-11.21-2.24-14.58-3.93-29.16-6.5-43.62-1.18-4.91,1.07-10.01,5.5-12.45,13.57-8.86,26.8-18.28,40.37-27.03,3.96-2.18,6.6-6.16,7.07-10.65,2.87-18.36,9.18-36.02,18.62-52.04,2-3.47,2-7.74,0-11.21-12.78-26.28-27.78-51.42-44.86-75.14-4.64-6.97-5.99-15.61-3.7-23.66,2.8-14.47,2.92-29.27,6.5-43.51,1.23-4.49-2.02-5.72-4.49-7.74-21.85-15.52-40.32-35.32-54.28-58.2-2.63-3.85-2.97-8.83-.9-13.01Zm301.22,308.29c2.82,9.04,4.84,18.31,6.06,27.7.79,22.43,19.29,30.05,32.75,44.86l7.63-42.17c0-1.91.79-3.7-1.91-5.16-14.47-7.96-28.6-16.15-44.52-25.23ZM42.95,440.06c18.28-11.21,31.74-25.34,32.86-47.21,1.97-7.33,3.13-14.85,3.48-22.43l-41.61,24.22c-1.79.9-2.58,1.35-2.13,3.81,2.69,13.91,4.93,27.59,7.4,41.61Z"/>
  </g>
</svg>