<?xml version="1.0" encoding="UTF-8"?>
<svg id="Layer_2" data-name="Layer 2" xmlns="http://www.w3.org/2000/svg" viewBox="0 0 654.5 390.84">
  <defs>
    <style>
      .cls-1 {
        fill:#808080
      }
    </style>
  </defs>
  <g id="Layer_1-2" data-name="Layer 1">
    <path class="cls-1" d="m654.5,175.79v13.09c-6.3,10.88-16.38,17.31-27.15,22.88-8.02,4.14-16.26,7.87-24.12,12.28-5.63,3.17-10.93,6.99-16.14,10.83-5.22,3.85-9.98,8.33-15.25,12.11-15.9,11.42-34.31,15.32-53.33,16.6-8.3.55-16.6-.14-24.99-1.45-19.48-3.05-36.83-10.45-52.5-22.14-4.69-3.49-9.15-7.29-13.86-11.07-3.85,14.46-7.64,28.73-11.52,43.31,7.57,14.86,21.35,24.58,32.56,36.54,11.18,11.92,25.37,20.31,37.23,30.91,3.81,1.71,8.2-.79,12.81,3.15-4.58,1.82-8.11,3.23-11.34,4.52-1.57,3.12.65,7-2.85,10.06-1.92-3.13-3.51-5.72-5.03-8.18-10.63-5.41-27.7-17.21-33.93-30.3-6.83-2.84-12.09-7.67-16.36-14.18-5.77-8.77-12.45-16.93-18.89-25.55h-7.15c.78,5.28,1.48,10.03,2.17,14.68,3.51,1.27,6.51,2.35,9.51,3.44-.07.47-.14.93-.21,1.39-3.17.41-6.33.8-9.76,1.23v12.76c3.22,3.36,8.48,3.44,9.92,8.83-4.13-.63-7.6-1.16-11.21-1.71-1.14,4.42-2.04,7.95-2.84,11.03,1.65,4.19,6.8,5.98,5.94,11.7-3.43-1.88-6.27-3.44-8.99-4.93-3.49,6.11-6.71,11.75-9.64,16.88.41,2.82.72,5.03,1.13,7.82-2.44-1.33-4.03-2.2-5.77-3.15-3.71,3-7.25,5.87-10.63,8.59.51,3.3.94,6.11,1.68,10.93-3.3-3.55-5.11-5.51-6.93-7.47-6.23,2.87-12.38,5.7-18.46,8.49v6.86c-.42.1-.83.21-1.24.31-1.04-2.04-2.07-4.08-3.06-6.03-5.47.39-10.64.76-16.2,1.16-.93,3.04-1.82,5.95-2.72,8.87h-1.87c-.26-2.68-.55-5.36-.83-8.24-5.87-.99-10.97-1.85-16.6-2.8-2.26,2.19-4.73,4.59-7.2,6.99-.43-.28-.85-.55-1.27-.83.92-2.68,1.85-5.36,2.83-8.22-5.54-2.42-10.55-4.62-15.44-6.76-2.21,2.49-4.15,4.65-6.07,6.83-.44-.21-.88-.41-1.32-.62.86-3.4,1.71-6.8,2.51-9.95-3.94-2.98-7.34-5.56-10.89-8.23-2.35,1.77-4.42,3.32-6.48,4.87-.39-.3-.78-.6-1.17-.9,1.18-2.63,2.36-5.25,3.69-8.21-2.84-4.06-5.79-8.27-8.56-12.23-3.39,1.19-6.05,2.13-10.4,3.66,3.33-4.24,5.42-6.87,7.69-9.76-1.47-4.09-2.99-8.34-4.39-12.19-3.51.41-6.28.74-9.05,1.08-.11-.44-.22-.89-.33-1.32,2.81-2.29,5.61-4.58,7.92-6.47v-14.09c-3.48-.3-6.47-.55-10.81-.93,4.57-1.89,7.87-3.26,10.74-4.46.76-5.16,1.44-9.69,2.11-14.2-6.62-1.55-6.9-1.36-10.67,3.76-8.52,11.59-15.06,24.98-28.75,31.95-1.04.53-1.95,1.68-2.46,2.75-3.05,6.32-8.29,10.61-13.5,14.93-4.04,3.35-7.7,7.81-12.36,9.62-5.23,2.04-8.24,4.99-9.61,10.25-1.57-.25-2.71-.42-4.39-.68.45-3.02.83-5.59,1.11-7.42-2.27-4.89-9.79-.77-10.07-8.11,3.94-.33,7.85-.66,10.68-.9,4.41-3.92,7.9-7.33,11.73-10.32,2.91-2.27,6.77-3.47,9.27-6.07,6.37-6.61,14.57-11.31,19.74-19.2,1.5-2.29,3.65-4.39,5.98-5.85,10.59-6.62,17.01-16.77,22.97-25.51-3.55-15.06-6.75-28.88-10.11-42.66-.45-1.84-1.7-3.48-2.16-4.39-8.84,6.3-16.92,12.51-25.46,18-16.53,10.58-34.8,15.78-54.42,15.95-8.96.08-17.84,0-26.83-1.61-16.47-2.94-31.46-8.19-44.18-19.6-6.39-5.73-13.05-11.31-21.29-14.72-9.74-4.03-19.36-8.45-28.64-13.43-11.13-5.99-22.21-12.37-26.76-25.44v-3.74c3-9.94,10.03-16.91,18.31-22.1,16.04-10.07,32.82-18.75,51.97-21.56,10.96-1.6,21.88-3.41,32.84-4.97,6.02-.86,12.08-1.42,17.65-2.06.98-2.47,1.52-3.82,2.07-5.21-3-2.41-5.54-4.43-9.14-7.32,4.82-.27,8.18-.45,10.89-.59,11.63-8.67,24.5-10.95,37.14-11.2,4.29-2,7.78-4.65,11.55-5.17,9.16-1.24,18.47-1.42,27.71-2.16,4.6-.37,9.16-1.18,13.74-1.47,2.28-.14,4.61.46,6.78.72,3.11,11.7-1.82,23.34,3.86,34.48,11.64,3.73,23.67-.76,35.73,1.31.57-3.59,1.08-6.88,1.64-10.46-4.43-5.24-10.39-7.9-17.62-8.61.99-1.84,1.61-2.98,2.25-4.18-2-.47-3.76-.88-6.44-1.51,1.35-1.68,2.22-2.77,3.18-3.97-5.54-7.52-8.34-15.26-5.28-25.11,2.14-6.93,1.69-14.66,2.37-22.04.4-4.25.74-8.49,1.09-12.65-8.2-11.67-22.16-15.59-33.06-24.67-9.98-2.54-20.61-5.24-30.78-7.83-2.31,1.13-4.04,1.99-5.86,2.87-1.49-5,3.23-6.19,4.14-8.95-1.01-2.5-1.91-4.74-2.81-6.97h3.74c1.06,2.64,3.11,3.45,5.84,3.76,10.43,1.18,20.76,2.77,29.3,9.72.69.57,1.58,1.12,2.44,1.23,6.57.86,10.99,5.11,15.53,9.35,7.39,6.88,13.21,15.58,23.73,19.51-.65,15.42-7.27,29.56-6.93,46.02,2.27,1.08,5.39,2.55,8.7,4.11,3.62,3.94,7.58,8.23,11.69,12.69,10.99-8.26,10.21-23.57,21.58-30.75-17.64-11.83-20.94-20.59-13.87-35.44,9.47-5.43,17.21-14.98,29.13-12.13,4.06-3.84,7.4-7.01,10.61-10.04-2.3-5.63-4.46-10.69-10.11-13.36-1.25-.58-1.6-3.05-2.36-4.66h7.48c2.66,4.1,5.68,8.01,7.89,12.33,2.1,4.11,4.59,7.22,10.71,7.99,1.89-2.06,4.51-4.46,6.56-7.28,3.05-4.19,5.69-8.68,8.5-13.05h7.48c-.76,1.61-1.11,4.05-2.36,4.67-5.46,2.67-7.7,7.71-10.87,12.77,3.65,3.66,7.11,7.13,10.54,10.57,14.92-1.66,23.34,8.27,32.52,15.99v15.91c-1.72,2.62-3.42,5.2-5.02,7.64-3.85,2.68-7.56,5.26-11.71,8.15,5.98,5.4,9.43,11.38,11.77,18.33,1.3,3.86,4.62,7.03,7.47,11.16,4.62-4.85,8.44-8.85,12.4-13,1.14.09,2.6.22,4.06.34,1.31-1.67,2.44-3.12,3.4-4.34,0-3.19.45-6.07-.09-8.76-1.76-8.74-3.64-17.48-5.99-26.07-1.02-3.72-2.02-7.1-.28-10.06,3.43-2.13,6.65-3.47,9-5.73,10.25-9.86,20.36-19.36,33.84-25.4,8.87-3.97,17.43-7.54,27.04-8.42,2.74-.24,4.79-1.08,5.83-3.75h3.74c-.42,2.72-.84,5.43-1.31,8.38,1.38,1.73,3.01,3.6,4.37,5.65.32.48-.3,1.56-.61,2.95-2.45-1.45-4.5-2.68-5.63-3.34-25.53,2.68-45.69,14.39-64.01,29.94-.7,16.78,3.55,32.4,4.6,49.84-1.6,2.92-3.95,7.23-6.23,11.42.42,1.56.79,2.96,1.15,4.29-1.78.93-3.07,1.61-4.19,2.2.08,1.36.13,2.52.23,4.18-6.05.47-11.22,2.21-14.45,8.13.85,4.44,1.78,9.23,2.9,15.08,3.69-2.03,6.83-3.75,10.17-5.58,1.28.99,2.66,2.06,4.01,3.09,1.57-.93,2.88-1.71,4.36-2.6.71,1.34,1.39,2.6,2.28,4.29,3.19.83,6.68,1.72,10.43,2.69,6.1-12.84,1.76-25.86,3.83-38.94,1.36-1.27,3.12-2.91,4.13-3.85,16.71,1.18,32.38,2.28,48.36,3.41,2,1.64,4.15,3.38,6.39,5.21,13.99-.61,26.88,2.6,38.4,11.12,3.16.93,7.11-1.01,11.14,2.36-2.11.89-3.5,1.25-4.63,2-1.22.81-2.21,1.98-3.66,3.31,1.21,3.24,2.35,6.29,3.15,8.42,11.88,1,22.64,2.18,33.43,2.73,17.79.93,34.83,5.06,51.04,12.12,14.52,6.33,28.34,14.02,38.02,27.27m-220.68,52.35c1.57-.11,3.03.2,4-.35,10.78-6.09,21.65-12.16,29.95-21.65,2.16-2.47,4.32-5.45,2.77-9.18-6.33-3.47-13.1-6.12-18.52-10.46-5.38-4.32-9.42-10.36-14.33-15.97-.09-.02-.72-.32-1.29-.24-17.59,2.31-33.99,8.75-50.34,15.15-3.29,1.28-5.66,4.78-8.9,6.35-5.25,2.55-10.86,4.36-16.33,6.46-2.2.83-4.43,1.59-7.7,2.77,10.15,6.97,20.37,9.84,32.32,10.9,3.12,3.69,6.74,7.98,8.91,10.54,12.48,5.35,22.72,4.75,32.97.76,2.24,1.7,4.43,3.36,6.49,4.92m-141.4-27.82c.06-.64.13-1.29.19-1.93-8.38-2.33-15.89-6.5-20.39-13.69-3.67-5.88-8.86-8.47-14.66-10.58-5.49-2-11.13-3.69-16.83-4.99-8.02-1.82-16.14-3.16-24.66-4.8-5.9,14.63-16.92,22.99-30.66,27.61-.69,7.16,3.03,11.34,7.6,14.71,5.71,4.22,11.63,8.22,17.77,11.76,3.63,2.09,7.29,5.05,12.58,3.7,1.78-1.46,3.91-3.22,6.16-5.07,16.78,7.05,30.93,4.37,41.12-10.94,7.59-2.01,14.68-3.89,21.78-5.77m-80.82-35.9c-4.86-.72-8.11-1.32-11.39-1.66-6.43-.65-12.86-1.46-19.3-1.64-9.31-.24-18.66-.4-27.95.17-11.34.69-22.62,2.58-33.96,3.19-10.5.57-21.06.12-32.13.12-6.12,14.24-.97,27.33,2.08,41.28,2.52-1.18,4.4-2.17,6.37-2.94,7.49-2.87,14.94-5.83,22.53-8.43,9.94-3.41,20.3-1.91,30.47-1.82,10.6.1,20.92-1.28,31.12-3.86,13.44-3.4,24.07-10.7,32.16-24.42m231.3,3.87c6.65,10.46,13.68,18.18,23.98,21.97,11.37,4.18,23.18,6.63,35.4,5.99,4.29-.23,8.52-1.64,12.79-1.68,13.1-.14,25.76,2.38,37.97,7.17,4.5,1.77,9.03,3.47,14.63,5.61,1.24-7.88,1.76-14.96,3.57-21.68,1.85-6.9.41-12.68-2.84-18.36-1.25-.33-2.13-.74-3.03-.76-21.39-.51-42.8.83-64.18-1.71-6.59-.79-13.47,1.17-20.24,1.57-12.01.72-24.05,1.2-38.05,1.88m200.36.49c-4.04-.75-8.24-2.13-12.47-2.2-16.79-.26-33.59-.16-50.38-.09-1.99,0-3.98.63-6.58,1.08,5.23,14.64-.83,27.89-2.48,42.3,8.24,4.13,16.75,8.4,26,13.04,13.42-7.6,27.15-14.79,40.24-23,7.26-4.57,14.41-10.25,12.9-20.91-2.28-3.22-4.59-6.48-7.24-10.22m-630.38-.64c-2.66,4.4-5.85,7.78-6.86,11.73-2.03,7.85,2.04,13.65,8.38,18.12,14.27,10.05,30.54,16.18,46.2,23.79,7.67-4.42,15.4-8.86,24.01-13.81-1.39-6.86-3.31-13.64-4.02-20.55-.76-7.28-.37-14.68-.48-22.7-5.17,0-9.46-.21-13.72.05-6.44.39-12.85,1.32-19.28,1.64-5.88.29-11.8-.14-17.69.12-5.18.23-10.34.98-16.53,1.61m577.47,56.89c-18.2-10.56-36.61-20.49-57.44-24.74-6.6-1.35-13.66-2.45-20.2-1.54-9.63,1.34-18.96,2.28-28.5-.16-2.56-.66-5.43-.1-8.38-.1-.72,2.5-1.29,4.47-1.92,6.69,10.22,5.4,20.19,10.45,29.94,15.88,15.41,8.59,31.21,16.81,40,33.15,1.4,0,2.39.21,3.25-.03,11.17-3.26,21.35-8.3,29.75-16.59,4.17-4.11,8.57-7.98,13.51-12.55m-409.31-30.91c-11.27.79-21.68,1.61-32.1,2.22-4.03.24-8.1.19-12.13,0-10.11-.44-19.76,2.08-28.77,6.02-12.74,5.57-25,12.24-37.38,18.61-1.39.72-2.21,2.51-3.38,3.9,14.04,12.05,27.2,24.22,45.65,27.49,3.43-4.65,6.16-9.18,9.69-12.97,9.59-10.36,21.86-17.11,33.9-24.09,8.27-4.79,16.58-9.52,24.54-14.09v-7.08Zm450.63-31.45c-7.72-7.99-17.42-10.24-26.13-13.83-12.61-5.2-26.04-8.1-39.91-6.6-8.87.95-17.66,2.6-26.52,3.54-13.8,1.46-27.61,3.13-41.45,3.67-12.08.47-23.91,2.27-35.85,3.74-15.01,1.84-29.9,4.19-44.51,7.97-9.51,2.45-19.38,4.28-27.89,10.13-1.14,2.89-3.95,5.59-1.11,9.13,12.83-5.61,25.86-10.14,39.72-12.54,8.52-1.47,17.02-2.57,25.56-3.75,14.12-1.95,28.31-2.22,42.44-3.04,12.58-.72,25.31,1.39,37.98,1.5,29.26.26,58.52.08,87.77.07h9.89Zm-368.93-.07c-7.22-2.34-14.67-5.35-22.42-7.14-21.34-4.93-43.15-7.09-64.88-9.33-12.9-1.32-25.96-.18-38.97-1.89-12.23-1.61-24.7-1.5-37.07-2.14-.62-.03-1.27,0-1.85-.18-13.09-3.98-25.81-.59-38.3,2.61-12.95,3.32-24.79,9.49-36.89,18.13,4.3,0,7.34.07,10.37,0,22.65-.61,45.29-1.28,67.94-1.85,6.23-.16,12.46,0,18.69-.03,1.86,0,3.74-.02,5.59-.2,12.27-1.15,24.53-2.98,36.82-3.31,11.1-.3,22.24.97,33.35,1.67,8.94.58,17.98.72,26.78,2.17,13.69,2.26,27.32,5.06,40.33,10.15.67.27,1.57-.03,2.39-.07-.61-2.77-1.13-5.15-1.89-8.59m-78.01,41.91c-2.93,1.65-5.6,3.11-8.22,4.66-12.75,7.57-25.75,14.77-38.12,22.92-8.13,5.36-15.78,11.71-19.8,21.28,40.88,10.49,81.5-8.06,99.04-26.66-12.01-5.9-23.67-12.26-32.9-22.19m354.11,49.99c-7.27-9.49-15.24-17.13-24.98-22.67-9.41-5.37-19.12-10.22-28.66-15.37-4.25-2.3-8.42-4.78-11.8-6.71-11.76,8.13-22.53,15.58-33.38,23.07,23.62,23.02,79.41,35.5,98.82,21.68m-103.62-116.84c2.81.33,4.31.77,5.77.65,6.46-.51,12.89-1.38,19.35-1.74,13.92-.78,27.84-1.41,41.76-1.93,6.85-.25,13.7-.09,20.55-.23.8-.02,1.6-.72,2.84-1.32-.59-1.75-1.15-3.39-1.45-4.29-11.45-4.26-22.12-8.24-32.8-12.2-2.31-.86-4.59-1.85-6.97-2.42-6.59-1.58-13.28-2.74-19.81-4.49-7.18-1.92-14.24-4.23-22.43-2.44-4.6,9.08-2.93,19.7-6.81,30.41m-224.86-30.57c-15.97-2.53-30.27,5.15-45.22,7.74-12.83,2.23-24.81,9.38-37.17,14.35,7.27,1.69,14.3,1.68,21.33,1.69,7.47,0,14.95-.22,22.42.09,7.07.3,14.13,1.62,21.2,1.65,7.22.02,14.65,1.36,21.93-1.09-1.53-8.37-2.96-16.17-4.48-24.44m51.36,32.33c-2.79-.9-4.64-2.15-6.29-1.92-11.43,1.59-22.67.3-34.1-.65-20.03-1.63-40.21-1.66-60.33-2.11-11.8-.27-23.63-.22-35.44.03-4.58.1-9.12,1.33-13.71,1.68-4.38.33-8.8.18-13.19.23,0,.62.02,1.23.03,1.85,6.16,0,12.45-.79,18.46.16,13.76,2.17,27.65,2.04,41.45,3.31,6.79.62,13.7-.18,20.49.41,8.87.76,17.67,2.24,26.5,3.44,7,.96,14.06,1.65,20.98,3.02,11.41,2.26,22.74,4.96,34.24,7.52.31-.88.86-1.72.87-2.58.09-4.63.05-9.27.05-14.38m131.33,24.39c5.7-1.71,10.85-3.57,16.15-4.79,13.19-3.04,26.16-6.93,39.83-8.02,11.91-.93,23.67-3.85,35.58-5,12.6-1.22,25.31-1.39,37.98-2.05,1.22-.07,2.45-.3,3.68-.45,8.84-1.09,17.69-2.19,26.55-3.26,1.66-.2,3.33-.34,5-.5-1.21-1.06-2.4-1.27-3.58-1.27-33.46.03-66.89-.61-100.28,3.42-16.85,2.03-34.01,1.46-51.03,2.19-3.28.14-6.85-1.12-9.88,1.51v18.22Zm-156,61.52c4.96,15.19,9.69,29.71,15,45.98.59-14.63,2.77-27.05,6.82-39.11,1.1-3.27,1.89-6.41-.29-9.15-7.25.77-13.91,1.47-21.53,2.28m166.74,47.55c4.38-14.31,8.56-27.98,12.93-42.24-7.43-.5-14.34-.97-21.72-1.46,2.91,14.44,5.78,28.74,8.8,43.7"/>
  </g>
</svg>