<?xml version="1.0" encoding="UTF-8"?>
<svg id="Layer_2" data-name="Layer 2" xmlns="http://www.w3.org/2000/svg" viewBox="0 0 654.5 494.03">
  <defs>
    <style>
      .cls-1 {
        fill:#808080
      }
    </style>
  </defs>
  <g id="Layer_1-2" data-name="Layer 1">
    <path class="cls-1" d="m66.85,308.34c17.4-25.9,23.26-55.8,29.32-85.51,3.03-14.07,3.42-28.83,11.73-41.44,4.79-7.13,0-12.12-4.89-14.95-4.89-2.83-6.74,4.01-9.19,7.13-3.81,4.69-7.04,9.77-11.14,14.46l-.29.39c-6.47,7.1-17.47,7.62-24.58,1.15-1.77-1.61-3.18-3.56-4.16-5.74-8.89-19.55-22.18-33.42-53.65-29.91,9.77-4.79,18.47-8.6,28.83-4.01,7.43,3.23,11.24-.98,11.83-8.7.08-3.85.57-7.69,1.47-11.43,3.69-13.09,17.3-20.71,30.39-17.02,3.63,1.02,6.97,2.87,9.78,5.39,5.94,5.85,11.49,12.09,16.61,18.67,4.5-14.76,14.56-24.53,21.4-36.65,8.41-13.13,22.64-21.39,38.21-22.18,76.33-9.77,151.39-26.58,227.13-39.09,72.03-12.31,143.27-29.32,216.08-36.65,17.2-1.76,34.6-4.98,52.77,2.35-4.69,13-17.01,17.69-26.78,23.46-14.95,8.89-30.98,16.13-46.32,23.55-14.05,6.2-29.58,8.27-44.76,5.96-47.6-4.89-94.02,4.5-140.73,11.14-1.27,0-2.44,1.47-4.98,3.23,15.38,31.99,28.44,65.04,39.09,98.9,3.03,9.77,9.77,7.92,16.32,4.3,6.16-4.55,11.38-10.26,15.34-16.81,10.44-13.62,27.55-20.35,44.47-17.49,61.57,6.55,101.84,40.27,124.51,96.56,6.83,16.13,11.94,32.94,15.25,50.14,2.93,17.01.59,18.96-16.03,15.34-48.63-11.46-92.16-38.54-123.92-77.11-18.57-21.11-37.82-33.72-65.87-31.66-2.05,44.37,33.82,133.11,69.29,170.25-13.78,1.17-19.55-7.82-25.31-16.13-19.93-28.53-33.83-60.82-40.85-94.9-4.5-23.36-17.01-43.59-26.39-64.99-.88-1.86-3.52-2.64-6.65-1.37-3.32,5.86,1.76,11.04,3.71,16.13,16.69,39.89,28.57,81.62,35.38,124.31.9,6.17,2.34,12.26,4.3,18.18,11.14,31.47,20.13,63.53,34.4,94.02,7.53,16.03,20.03,28.34,28.54,43.59,1.95,3.62,3.91,6.25,0,10.85-21.13-21.81-37.74-47.58-48.87-75.84-7.62-19.55-9.77-39.68-17.88-58.05-16.4-38.94-27.98-79.73-34.5-121.48-2.96-12.62-7.05-24.95-12.22-36.84-5.47-13.78-10.85-15.44-21.4-4.5-13.16,13-30.44,20.98-48.87,22.58-26.09,3.81-40.07-5.86-46.32-31.76-1.27-5.57,1.66-13.68-5.28-16.22-8.7-2.96-17.98-3.8-27.07-2.44-7.62.98-6.55,7.62-5.86,12.61,1.37,10.61-.54,21.39-5.47,30.88-6.27,15.79-20.3,27.19-37.04,30.1-22.67,3.91-23.65,5.57-20.82,29.32,3.9,35.73-.76,71.88-13.58,105.45-11.22,30.73-27.76,59.25-48.87,84.24,10.26-31.27,26.58-54.83,37.92-80.53,12.02-27.36,8.7-54.92,13.68-83.46-14.56,5.28-8.4,22.58-21.99,28.54,1.56-14.95,9.28-26.68,12.9-39.58,7.72-27.66,16.91-54.92,12.71-84.64-3.42-23.55-2.64-23.75-28.34-30.3-5.18,4.4-1.66,9.77-2.15,14.95-1.76,18.67-6.35,36.55-21.79,48.87-6.77,5.92-10.92,14.29-11.53,23.26-6.79,38.52-21.68,75.16-43.69,107.5-1.27-3.42-2.54-5.18-2.15-5.86,19.9-29.85,32.73-63.84,37.53-99.39,1.28-20.3,10.14-39.38,24.82-53.46,4.61-2.92,7.55-7.85,7.92-13.29,0-5.67,2.54-13.39-4.5-16.13-7.04-2.74-7.82,4.98-11.24,8.7-11.7,13.89-19.17,30.85-21.5,48.87-5.19,22.13-12.7,43.65-22.38,64.21-2.15,5.38-5.67,9.09-12.22,7.62l.39.39Zm203.28-221.26c18.14,9.61,32.93,24.5,42.42,42.71,2.32,3.04,5.21,5.59,8.5,7.53,15.83,12.02,23.55,10.75,31.37-6.74,7.82-17.49,15.05-37.43,23.75-59.42-35.57,4.69-68.41,8.21-106.04,15.93Zm145.13,86.49c-9.77-31.96-13.39-61.28-32.64-86.3,0,28.05-14.46,48.87-32.74,68.41,21.16,8.06,43.06,14.05,65.38,17.88Zm-29.32,5.08l-59.62-17.1c-4.37-1.36-9.1-.98-13.19,1.08-10.46,4.89-11.63,8.5-7.43,26.19,5.18,21.7,11.04,24.82,30.88,15.25,14.86-7.13,29.81-14.95,49.35-25.41Zm-196.83,50.82c40.85-10.36,51.8-24.73,47.5-56.2-4.98-1.17-8.5,2.44-12.31,4.2-10.95,5.08-27.85,0-33.23,9.77-5.38,9.77-2.74,25.12-3.52,37.92.4,1.48.92,2.91,1.56,4.3Z"/>
  </g>
</svg>