<?xml version="1.0" encoding="UTF-8"?>
<svg id="Layer_2" data-name="Layer 2" xmlns="http://www.w3.org/2000/svg" viewBox="0 0 523.47 654.5">
  <defs>
    <style>
      .cls-1 {
        fill:#808080
      }
    </style>
  </defs>
  <g id="Layer_1-2" data-name="Layer 1">
    <path class="cls-1" d="m178.87,215.89l2.26-45.99c-2.81.26-5.59.86-8.25,1.81-8.02,4.29-11.98,18.64-23.62,12.99-8.59-4.07-5.42-15.82-8.02-23.96-9.27-29.83-19.44-59.32-29.04-89.04-1.81-5.99-8.47-13.33.56-17.97,5.99-3.05,10.51,3.5,14.92,7.23,22.6,19.21,20.79,47.35,25.99,72.88,1.81,8.93-3.39,22.6,8.59,25.54,9.49,2.26,16.84-8.7,24.29-14.8,5.15-4.53,9.48-9.92,12.77-15.93,6.89-11.3,15.14-17.85,28.59-9.49,6.92,3.7,14.96,4.75,22.6,2.94,31.87-4.52,31.98-4.75,15.48-33-13.33-22.6-27.46-45.2-28.48-73.22,0-5.99,0-13.11,6.1-15.25,9.27-3.05,12.66,5.65,13.33,11.3,6.33,37.74,19.67,73.95,39.32,106.78,9.83,18.42-9.15,14.69-18.19,14.46-20,0-23.39,5.88-11.3,21.7,9.82,13.96,14.45,30.9,13.11,47.91,23.16-11.3,36.27-26.1,31.98-48.93-9.83-51.64,31.19-76.5,55.37-110.29,3.28-4.63,10.28-8.47,15.03-2.49,4.75,5.99-2.82,9.72-6.33,13.9-11.3,12.54-21.58,25.42-32.54,37.97-6.15,5.08-9.61,12.71-9.38,20.68,6.44,52.43-14.01,92.89-55.26,124.3-1.89,2.4-3.41,5.07-4.52,7.91,3.28,1.24,6.21,3.62,8.14,2.94,66.1-24.07,111.64,28.59,166.67,45.2,7.68,2.26,19.44,7.91,11.3,18.64-6.21,7.91-13.33-1.36-20.11-4.86-29.34-15.51-59.91-28.55-91.42-38.98-17.06-5.31-41.81,5.99-63.62-1.24-5.06-1-10.02,2.12-11.3,7.12-2.15,5.99,2.71,9.15,7.12,11.3,10.11,5.94,21.09,10.25,32.54,12.77,27.35,2.94,39.32,20,50.51,42.49,38.65,76.61,85.65,146.9,151.98,203.4,6.55,5.54,11.3,12.77,2.94,19.77-8.36,7.01-11.3-1.36-16.5-6.33-24.41-25.31-46.22-55.48-72.43-76.05-45.2-36.27-54.01-87.12-78.42-131.76-8.25-14.92-16.05-26.89-37.29-22.6,5.42,12.2,11.3,23.96,16.16,35.82,15.14,35.14-3.95,64.07-21.24,90.4-10.28,15.59-29.94,1.7-40.91-7.46-29.72-25.09-54.35-53-42.94-96.73-23.28,11.3-28.25,26.67-23.96,49.95,6.1,32.77,6.1,66.56,11.3,99.44,3.95,24.29-17.29,40.11-15.93,64.41,1.36,24.29-6.78,50.06-11.3,75.14-1.36,7.46-2.37,18.08-13.11,15.48-10.73-2.6-4.86-12.43-3.28-17.97,14.69-50.74,11.3-103.06,15.48-154.81,3.79-32.31,2.95-64.99-2.49-97.07-3.62-17.4-1.58-30.51,13.56-40.79,3.11-2.46,5.72-5.49,7.68-8.93,8.7-13.56,29.27-30.85,19.1-41.58-10.17-10.73-23.39,15.37-36.84,18.53-73.45,17.4-104.75,89.16-163.96,124.3-6.1,3.73-11.3,9.6-17.97,3.16-8.25-8.25-1.13-15.03,5.31-19.1,49.61-30.96,90.4-72.21,130.85-113,9.02-7.36,19.61-12.55,30.96-15.14,18.2-4.31,34.64-14.09,47.12-28.02-21.02-12.09-44.3-16.95-63.73-32.09-23.26-16.52-39.4-41.22-45.2-69.16-5.88-33.9-25.88-50.06-53.79-62.49-5.76-2.49-19.32-2.49-12.54-14.24,4.97-8.59,13.9-2.82,21.02.68,31.64,15.37,58.19,33.9,63.84,73.45,3.5,26.44,15.59,51.19,51.3,56.05Z"/>
  </g>
</svg>