<?xml version="1.0" encoding="UTF-8"?>
<svg id="Layer_2" data-name="Layer 2" xmlns="http://www.w3.org/2000/svg" viewBox="0 0 654.5 430.43">
  <defs>
    <style>
      .cls-1 {
        fill:#808080
      }
    </style>
  </defs>
  <g id="Layer_1-2" data-name="Layer 1">
    <path class="cls-1" d="m266.01,169.9c.87-2.95,0-5.21-3.59-5.48-6.71-.52-11.59-4.28-15.95-8.88-1.62-1.72-2.41-1.78-3.68.32-1.68,2.75-3.65,5-7.43,5.42-2.6.28-3.55,2.36-1.29,4.66,3.94,4.03,8.03,7.93,11.77,12.15,1.22,1.38-.16,4.74,1.88,5.37,3.81,1.19,4.08,4.82,5.52,7.28,3.79,6.48,4.59,7.54,11.68,5.25,3.92-1.28,6.21-1.13,7.63,3.02.3.87,1.14,2.39,2.66,1.59,1.51-.79,1.38-2.16.75-3.51-2.63-5.66-3.99-11.83-7.25-17.25-1.75-2.91-2.67-6.22-2.68-9.95h0Zm283.24-26.94c3.67,2.03,2.48,4.17,1.48,6.93-3.75,10.3-10.6,16.21-21.75,16.79-2.7.15-4.42.89-4.94,4.39-.68,4.68-4.67,7.25-8.86,8.99-6.05,2.51-12.42,3.3-18.94,2.9-1.71-.12-3.59-.34-4.37,1.64-.84,2.12,1.18,3.36,1.95,4.96.92,1.9,2.5,1.27,3.96.82,4.68-1.48,9.33-3.14,14.06-4.41,2.91-.79,6.54-2.19,8.83-.07,3.37,3.12,6.27,1.96,9.66.82,13.66-4.61,27.67-7.98,41.75-11.05,6.46-1.42,12.85.29,17.67,4.42,7.75,6.65,16.06,12.7,21.97,21.46,3.9,5.77,9.76,10.08,16.03,13.49.44.23.99.64,1.36.52,6.4-1.91,13.36-.43,19.52-2.51,3.77-1.28,4.36.35,5.87,2.8-2.08.87-4.78.27-5.18,3.94-.28,2.6-3.55,3.28-6.31,2.35-5.47-1.82-10.79-2.69-16.04.87-1.98,1.35-4.03.08-5.62-1.17-7-5.51-14.12-10.87-20.76-16.77-5.48-4.86-11.61-9.11-15.81-15.33-.75-1.1-1.66-1.49-2.97-.53-10.71,7.85-23.52,9.16-36,11.32-6.37,1.12-12.73,2.09-18.72,4.56-1.66.7-3.79,1.25-4.91.45-6.46-4.68-11,.6-16.06,2.83-2.28,1.01-4.32,2.57-6.47,3.89.72,2.33,2.83,2.58,4.36,3.45,11.63,6.57,21.75,14.91,30.1,25.34,1.96,2.43,4.61,4,6.69,6.17,2.71,2.79,5.5,5.43,7.54,8.97,3.1,5.38,8.97,8.43,12.86,13.22,4.03,4.95,8.75,5.92,14.76,4.06,2.98-.9,6.43-.12,9.58-.63,2.98-.5,3.38,2.14,3.97,3.4.88,1.92-1.84.33-2.21,1.21-3.11,7.57-9.11,2.67-13.78,3.1-3.04.27-5.96-.9-9.22.72-2.3,1.14-5.21-1.07-7.07-2.99-12.29-12.65-27.61-22.19-37.95-36.85-2.18-3.08-5.67-3.9-9-3.81-7.51.18-14.28-1.8-20.7-5.5-5.43-3.12-5.5-3.03-5.4,3.23.02.79,0,1.57-.6,2.36,0-2.01-.04-4.01,0-6.02.06-2.1-.85-4.13-2.67-4.47-4.13-.79-5.91-7.93-11.24-4.44-2.63,1.71-5.45,1.47-8.14,2.25-3.26.96-6.58,1.62-10.01,1.01-1.47-.25-3.11.23-3.62,1.36-2.21,4.93-7.12,4.94-11.16,6.4-3.55,1.3-3.33,2.63-.68,4.71,10.99,8.57,17.38,20.64,23.55,32.56,4.1,7.93,6.93,16.6,10.48,24.82,3.51,8.08,8.92,15.11,19.31,15.97,5.58.46,5.83,1.78,3.28,6-1.08,1.76-2.22,2.17-4.14,1.14-4.74-2.54-9.27-5.62-15.02-5.68-1.78-.03-2.74-1.89-3.71-3.25-5.26-7.26-9.05-15.37-13.44-23.14-.57-1.02-.86-2.43-1.73-3.04-5.52-3.95-7.24-10.07-8.73-16.01-1.78-7.03-7.61-7.62-12.85-8.85-1.83-.44-2.9-.9-4.25-2.19-4.9-4.66-10.12-9-15.16-13.52-2.27-2.04-4.49-2.8-6.15.4-1.98,3.79-5.12,4.69-8.9,4.04-6.05-1.05-10.63,2.14-16.55,5.32,2.15,1.3,3.71,2.26,5.28,3.23-.27.35-.55.69-.84,1.03-1.47-.95-3.02-1.82-4.4-2.9-1.81-1.42-3.25-.31-4.6.61-1.5,1.01-.74,2.48-.09,3.63,5.85,10.36,6.95,21.99,7.55,33.35.34,6.53-.12,13.25.02,19.89.11,4.97,2.65,9.42,3.15,13.99.69,6.27,4.98,8.9,8.52,12.57,1.83,1.89,5.47,3.6.31,5.96-.76.34-1.05,1.67-1.57,2.57-2.25-.76-3.43-2.55-4.16-4.34-1.94-4.84-4.81-8.86-8.92-12.09-1.6-1.25-2.1-2.91-2.22-5.19-.64-11.92-1.7-23.81-7.06-35.16-3.52,6.82-9.35,11.9-12.59,19.07-4.68,10.37-13,18.08-21.62,25.31-2.62,2.21-5.65,3.85-9.01,4.57-6.06,1.31-9.38,4.82-11.41,10.79-8.9,26.11-23.4,48.75-43.52,67.75-4.72,4.46-9.85,8.29-15.56,11.35-1.62.86-3.31,1.99-5.25.91-1.75-.99-3.78-1.38-.71-4.02,8.11-6.99,15.36-14.84,19.66-24.92,1.1-2.56,3.17-4.43,5.16-6.21,3.89-3.5,5.34-7.87,4.83-12.79-.4-3.9.81-6.15,4.61-7.13,2.46-.64,4.8-2.2,4.68-4.74-.26-5.93,2.47-12.04-.07-17.67-1.74-3.87-3.08-8.48-8.22-10.06-2.72-.84-4.5-1.15-5.59,1.96-.87,2.55-2.79,2.57-4.95,1.72-4.81-1.89-8.41-.77-10.99,3.95-2.55,4.69-6.77,6.92-12.11,7.12-1.01.04-2.5-.1-2.94.47-4.47,5.72-12.1,5.34-17.43,9.15-4.05,2.89-9.46,1-13.16,4.48-.58.55-1.5.76-2.21,1.2-1.05.65-1.51,3.28-3.4,1.09-1.36-1.58-1.54-3.39-.28-5.14,2.12-2.94,5.07-4.97,8.02-6.96,16.92-11.39,32.95-23.84,47.32-38.36,2.43-2.45,4.26-5.2,5.67-8.35,4.38-9.76,10.13-18.83,16.85-27,5.63-6.85,12.47-12.89,20.62-17.05,2.77-1.41,5.45-2.98,7.77-5.63-6,1.1-12.08,1.89-17.97,3.38-8.52,2.14-15.17-.61-17.56-7.27-1.11-3.1.51-5.28,1.33-7.67,2.22-6.36,2.02-8.21-3.39-12.54-3.03-2.42-5.89,0-8.31,1.49-2.77,1.7-5.83,1.01-8.65,1.97-1.68.57-2.66-.81-3.36-2.37-.87-1.96-.17-3.08,1.41-4.26,1.35-1.01,2.61-2.5,1.43-4.31-.75-1.14-2.22-.61-3.33-.39-3.23.64-.87,2.67-.79,4.22-3.36-.19-4.26-2.65-5.05-5.05-1.38-4.18-2.94-7.94-6.86-10.75-2.89-2.08-5.12-5.1-6.69-8.72-1.68-3.86-6.22-5.48-9.27-8.36-5.77-5.44-12.04-10.41-17.37-16.21-3.62-3.94-7.39-7.82-10.61-12.21-3.72-5.08-9.58-6.88-15.73-6.99-3.94-.07-6.3-1.98-8.05-5.16-2.92-5.28-6.62-6.25-11.75-2.88-2.55,1.66-3.79,4.27-8.04,1.2-4.49-3.25-9.93.17-10.88,5.46-1.17,6.47-4.37,11.49-9.87,15.01-7.49,4.78-15.3,8.86-23.38,12.64-3.87,1.82-8.2,3.11-11.98,5.62-3.05,2.02-7.64,1.8-11.57,2.39-7.91,1.18-16.1.78-23.21,5.67-6.76,4.67-13.18,9.6-16.71,17.19-3.94,8.54-6.93,17.44-8.55,26.75-.6,3.49-.64,7.12-2.76,10.2-.68.98-1.49,1.99-2.84,1.8-1.48-.21-.78-1.57-1.07-2.44-3.54-10.32-2.4-20.32,1.88-30.15.27-.62.65-1.31.59-1.93-.66-6.88,2.56-12.35,7.4-16.4,4.47-3.74,1.29-8.04,2.18-11.97.31-1.43-1.61-1.33-2.77-1.01-6.29,1.77-11.52,4.95-15.25,10.51-2.5,3.71-6.44,6.01-9.18,9.73-8.1,11.03-15.26,22.24-16.1,36.39-.1,1.57-.33,3.9-2.52,3.8-2.22-.1-2.02-2.34-2.05-3.98-.14-10.06,2.59-19.37,7.06-28.31,7.88-15.77,18.47-29.56,30.64-42.2,5.54-5.76,10.02-12.34,15.04-18.46,10.09-12.33,21.82-23.06,36.67-29.71,6.48-2.91,11.71-8.15,18.8-9.9,3.74-.91,7.26-2.59,10.88.97,1.8,1.78,4.85,1.4,6.97-.51,3.94-3.52,7.97-4.29,12.34-.86,1.18.92,2.29,1.19,3.68.3,3.7-2.4,7.72-1.97,11.82-1.31,12.66,2.03,24.5,6.59,36.15,11.69,2.43,1.06,4.59,2.91,6.6,4.7,2.74,2.46,4.67,5.47,9.47,3.09,2.22-1.11,4.85,1.78,5.97,4.43,2.54,5.88,8.67,4.82,13.18,6.83,1.09.49,1.79-1.3,2.44-2.24,4.75-6.91,11.51-11.15,19.02-14.42,1.59-.69,3.02-.99,4.83-.27,10.87,4.29,19.91,10.77,26.07,20.9.81,1.32,1.54,2.62,1.45,4.25-.44,7.54,2.85,14.18,5.29,21,1.04,2.91,2.09,3.8,5.91,1.9,6.04-2.99,4.95-8.15,4.98-12.34.09-11.49.17-23.09-2.31-34.41-1.08-4.9,1.34-9.36.81-14.11-.18-1.64.31-3.4-1.21-5.09-2,2.51-4.04,4.85-4.45,8.16-.17,1.49,0,3.35-2.21,3.29-1.84-.06-3.64-1.38-3.67-2.97-.05-3.02-1.8-5.37-2.27-8.14-.18-1.06-1.14-2.34.18-3.26,1.19-.83,2.45-.89,3.76.06,3.79,2.73,4.76-.04,5.31-2.96.95-5.01,2.2-9.93,5.29-14.11,1.18-1.57,2.47-3.61,4.82-3.23,2.52.42,3.24,2.71,3.93,4.85,2.6,8.16,2.72,16.64,3.38,25.09.34,4.33-.65,8.08-2.02,12.13-4.49,13.17-2.93,26.37,1.1,39.41.6,1.97,1.73,2.78,3.82,1.63,2.56-1.42,5.48-2.14,8.3-2.12,5.98.06,7.46-3.5,7.34-8.38-.07-2.82.07-5.1,2.77-6.97,1.33-.92,2.04-3.12,2.51-4.88,3.36-12.93,8.67-25.34,10.46-38.69.54-3.99,2.42-7.44,4.72-10.52,5.03-6.78,5.7-15.35,9.74-22.54,2.17-3.83,4.38-7.56,6.88-11.2,1.54-2.24,3.44-2.03,4.98-2.09,2.21-.08.87,2.34,1.37,3.57,1.57,3.93.54,7.49-.88,11.26-3.53,9.34-6.73,18.81-10.01,28.24-.91,2.61-2.27,4.87-4.13,6.93-10.92,12.13-14.68,26.75-14.75,42.65-.01,2.84.99,4.01,3.86,3.89,1.84-.08,3.7.42,5.56.4,4.18-.03,7.45-1.02,8.52-6,1.93-8.98,8.94-14.77,14.28-21.64,11.33-14.57,22.06-29.54,31.34-45.57,2.36-4.07,6.17-7.72,10.76-9.89,1.52-.71,2.25-1.99,3.15-3.19,6.87-9.18,15.63-16.41,24.36-23.7,3.44-2.87,7.24-3.03,11.31-2.35,1.76.3,2.13,1.53,2.62,3.17,1.55,5.05,3.45,5.37,7.55,1.9,2.35-1.99,3.97-5.32,7.9-4.73.99,5.39-.04,9.49-6.43,10.18-.17.02-.4.05-.49.16-4.67,5.91-9.54,4.66-14.67.58-1.39-1.1-2.48.25-3.42,1.24-8.71,9.24-18.04,18-25.92,27.9-4.2,5.28-8.92,9.52-14.06,13.6-12.5,9.95-18.94,24.08-25.91,37.83-1.21,2.39-.67,3.88,2.34,3.85.84,0,1.85.03,2.48.48,7.96,5.67,14.8.99,22.51-1.31,7.44-2.22,13.17-6.81,19.82-10.03,5.54-2.68,10.96-5.36,17.32-5.22.98.02,2.14-.14,2.91-.66,10.91-7.33,23.48-9.06,36.05-10.73,1.6-.21,2.94-.69,4.14-1.67,4.61-3.81,10.09-4.66,15.79-4.55,7.69.17,14.99-1.85,22.32-3.81.65-.17,1.38-.6,1.94-.45,8.38,2.28,13.2-3.56,18.99-7.78,4.41-3.23,9.21-6.14,15.57-2.91,4.17,2.13,7.88-.87,10.14-4.62,3.63-6.02,9.25-9.26,15.46-11.82.67-.28,1.17-.25,1.88-.07,6.81,1.73,10.47-.3,13.09-6.98,2.89-7.36,9.94-10.91,15.07-16.22.1-.12.3-.17.47-.18,2.35-.45,5.16,1.61,6.87-2.22,1.43-3.22-.96-5.12-1.39-7.65-.92-5.51.28-10.72,1.89-15.86.55-1.75.93-2.91-1.48-3.13-8.42-.78-14.22-7.35-21.82-9.92-4.41-1.49-8.43-4.72-13.82-1.11-7.45,5.01-16.65,3.75-25.09,5.14-6.08,1.01-12.3,1.16-18.19,3.24-2.97,1.06-10.15-1.89-12.37-5.47,7.33,2,13-1.44,18.8-4.22,2.7-1.3,4.13-3.86,5.33-6.48,4.27-9.28,12.04-14.67,20.91-18.85,6.61-3.11,12.83.57,19.25,1,5.29,9.32,15.1,6.06,22.96,8.28,9.07,2.56,18.48,4.5,25.34,11.8,4.65,4.96,8.03,10.12,7.37,17.71-.77,9.15-1.06,18.51-5.12,26.7-2.89,5.83-3.08,12.63-6.9,17.79-6.71,9.06-15.27,16.51-25.04,21.88-3.86,2.12-6.34,4.87-9.34,7.59-7.72,7.01-16.44,12.43-26.86,14.57-.82.17-1.91.12-2.38.63-7.2,7.69-16.06,12.07-27.12,13.77h0Z"/>
  </g>
</svg>