<?xml version="1.0" encoding="UTF-8"?>
<svg id="Layer_2" data-name="Layer 2" xmlns="http://www.w3.org/2000/svg" viewBox="0 0 654.5 240.01">
  <defs>
    <style>
      .cls-1 {
        fill:#808080
      }
    </style>
  </defs>
  <g id="Layer_1-2" data-name="Layer 1">
    <path class="cls-1" d="m23.23,148.3c.67-3.3,3.76-4.56,5.72-6.76,6.13-6.85,14-12.13,18.01-20.9,1.05-2.31,3.61-3.94,5.47-5.87-1.67-1.61-4.11.07-5.35-1.93,1.63-1.5,3.68-.65,5.51-1,3.22-.6,6.69-.99,9.14-3.21,5.3-4.81,11.63-7.71,17.72-11.21,4.47-2.56,8.29-6.4,13.43-8.2,5.55-1.95,10.98-4.72,15.77-7.75,7.99-5.06,16.77-8.09,25.06-12.29,2.45-1.24,4.33-1.84,7.2.59,2.9,2.46,7.39,3.13,11.26,4.35,15.26,4.8,30.72,9.19,43.89,18.8,3.98,2.9,7.55,1.81,11.32.2,9.73-4.17,19.42-8.44,29.15-12.64,2.49-1.07,4.96-2.43,7.59-2.96,6.9-1.41,11.39-6.15,15.98-10.83.56-.58,1.33-1.24,1.43-1.95.85-6.51,5.91-10.34,9.42-15.18,2.39-3.31,4.44-6.86,6.74-10.23,2.69-3.95,4.64-4.19,7.24-.37,3.81,5.62,7.23,11.52,10.73,17.35,2.82,4.67,4.25,5.91,9.08,4.31,3.6-1.2,7.53-.46,11.13-2.22-20.65-21.11-43.34-39.35-65.43-58.4,3.73,1.39,6.64,3.92,9.84,5.99,5.28,3.43,9.54,8.46,17.02,8.35,3.31-.04,5.85,4.46,8.79,6.81,7.77,6.21,14.96,13.13,22.43,19.7,4.8,4.22,8.75,9.37,14.17,12.93.67.44,1.22,1.09,1.86,1.61,6.17,5.17,9.97,4.92,15.08-.93,7.5-8.59,16.94-11.28,27.88-8.79,2.26.52,4.26.73,6.36-.1,4.92-1.94,10-1.36,15.06-.89,1.07.1,2.36.24,3.12.87,9,7.5,20.55,7.53,31.07,10.35,12.56,3.36,25.41,5.54,38.42,7.02,14.12,1.61,28.23,2.56,42.42,3.23,18.86.88,37.74,2.33,56.57,1.21,13.67-.81,27.38-2.3,40.95-1.08,17.21,1.54,34.39,1.1,51.58,1.52.48.01.96.41,1.47.64-.4.27-.8.75-1.18.75-13.44.01-26.97.94-40.28-.35-10.67-1.05-21.37-1.92-31.86-.84-24.08,2.5-48.14.99-72.22,1.27-12.29.14-24.59-1.09-36.83-1.88-12.09-.79-24.19-2.91-36.19-5.29-11.19-2.21-22.2-5.06-33.35-7.35-.48-.09-1.03.22-1.96.46.9,2.17,1.67,4.36,2.7,6.42,3.37,6.67,4.83,13.66,3.66,21.08-.48,3.05.41,5.29,2.94,7.04,1.56,1.09,2.9,2.52,4.46,3.62,19.16,13.6,29.25,33.3,36.55,54.76,1.21,3.54,1.64,7.46,1.78,11.22.27,7.36.08,14.75-1.3,22.18-.06-4.01-.29-8.03-.17-12.04.6-20.74-8.24-38.02-20.51-53.71-5.7-7.29-12.49-13.81-20.21-19.17-5.46-3.77-5.42-3.83-7.67,2.06-3.1,8.11-5.54,16.55-9.45,24.25-4.48,8.8-8.04,18.43-16.25,24.89-13.92,10.95-27.87,21.85-44.96,27.73-12.9,4.44-25.06,10.67-37.7,15.73-20.01,8.02-40.06,15.97-60.95,21.6-13.4,3.62-26.68,7.68-40.06,11.41-6.01,1.67-12.07,3.2-18.19,4.43-7.99,1.6-15.81,4.24-23.78,5.53-9.36,1.5-18.35,5.38-28.12,4.61-2.97-.23-6.06-.02-8.99.56-12.39,2.45-21.46-3.45-29.61-11.56-1.26-1.25-2.16-3.09-2.22-5.15-.04-2.19-.32-4.36-.53-6.55q-1-10.86-11.66-14.05c-3.89-1.16-7.77-2.34-11.65-3.54-.23-.06-.37-.38-.6-.63.18-10.8,4.32-19.96,12.35-27.22,2.27-2.06,1.79-4.77,3.65-7.26-5.48-.47-10.09-.75-14.25,2.01-1.75,1.16-4.62,1.68-5.39.67-3.56-4.68-6.49-1.23-9.76.06-6.59,2.59-13.37,4.72-19.84,7.54-8.15,3.56-16.08,7.6-24.15,11.46-1.71-2.55-.22-4.18,1.79-5.31,9.2-5.17,17.83-11.39,28.45-13.82,4.11-.94,8.51-2.01,11.73-5.33,1.5-1.55,3.61-.9,5.47-1.2,2.16-.34,4.34-.51,3.57-3.92-.24-1.07,1.4-1.65,3.07-1.39,3.12.47,6.34.56,9.5.44,10.83-.37,21.58-1.52,32.28-3.22,1.43-.22,2.54-.81,3.4-2,1.33-1.84.65-4.08-1.56-4.21-3.82-.24-7.67-.18-11.51-.24-3.55-.06-7.11-.04-10.81-2.81,2.19-.18,3.85-.53,5.45-.39,10.43.85,20.56-2.87,30.99-1.96,2.04.18,3.66-1.03,5.31-1.96,19.94-11.11,40.01-21.94,60.59-31.84,1.45-.69,3.16-1.15,3.72-3.08-.52-1.77-2.11-2.28-3.74-2.5-4.87-.67-7.57-4.96-11.7-7.01-3.21-1.6-8.1-.74-9.66-5.36-.07-.2-.42-.42-.66-.44-8.8-.76-16.06-6.28-24.62-7.91-2.69-.51-4.47.67-5.91,1.81-7.29,5.81-16.08,8.92-23.9,13.65-5.66,3.43-12.43,4.74-17.28,9.53-2.24,2.22-5.83,1.82-8.15,4.23-2.2,2.27-4.3,4.81-7.97,5.24-1.35.17-2.47,2.02-3.77,3.03-2.19,1.71-3.65,3.74-7.39,3.87-3.11.12-6.3,3.89-9.09,6.44-6.85,6.24-13.59,12.62-20.16,19.15-1.63,1.62-3.12,1.94-5.09,1.48l.12.12h0Z"/>
  </g>
</svg>