<?xml version="1.0" encoding="UTF-8"?>
<svg id="Layer_2" data-name="Layer 2" xmlns="http://www.w3.org/2000/svg" viewBox="0 0 654.5 631.52">
  <defs>
    <style>
      .cls-1 {
        fill:#808080
      }
    </style>
  </defs>
  <g id="Layer_1-2" data-name="Layer 1">
    <path class="cls-1" d="m347.38,631.52h-41.28c-5.44-1.46-10.96-2.67-16.32-4.42-25.13-8.11-47.01-21.83-66.94-38.96-27.24-23.43-49.35-50.88-65.89-82.8-5.77-11.13-10.64-22.66-14.91-34.43-1.28-3.53-2.57-3.88-5.27-1.41-1.21,1.08-2.25,2.42-3.06,3.84-2.04,3.53-2.41,7.57-3.11,11.48-4.32,24.28-6.71,48.76-8.49,73.32-.5,6.85-1.04,13.73-3.27,20.31-1.23,3.65-3.39,6.52-7.41,6.88-3.18.25-5.76,1.6-8.41,3.07-5.16,2.88-10.31,5.82-15.55,8.55-5.95,3.11-11.76,6.62-18.95,6.15-1.51-.1-3.18.85-4.62,1.6-3.17,1.65-6.26,3.45-9.36,5.23-2.15,1.21-4.65,2.06-6.63.52-3.43-2.65-6.11-1.24-8.98.67-1.36.92-2.72,2.19-4.42.7-1.19-1.05-2.03-2.35-1.48-3.99.63-1.9,2.24-2.22,4-2.22,2.93-.03,5.69-.85,6.84-3.71,1.74-4.33,4.85-5.61,9.16-5.22,5.44.52,10.36-.51,14.37-4.63,1.56-1.6,3.75-2.27,5.87-2.91,8.57-2.55,17.12-5.13,25.72-7.57,2.75-.79,3.85-1.93,2.99-4.97-2.33-8.36-2.24-16.96-1.32-25.43,2.82-25.88,10.01-50.67,19.68-74.77,3.02-7.52,7.5-14.13,14-19.06,2.42-1.85,2.68-3.71,2.04-6.41-6.79-28.32-8.81-56.9-5.5-85.97,4.33-37.95,12.66-74.79,28.13-109.86.39-.88,1.4-1.78.4-3.12-16.33,6.97-32.28,14.67-48.01,22.86-11.1,5.76-21.72,12.49-33.68,16.48-2.13.72-4.44,1.47-6.39.2-4.27-2.83-9.15-2.67-13.87-3.35-5.99-.87-12.61-.41-17.73-3.32-7.15-4.07-14.51-5.46-22.39-5.84-2.28-.1-4.64-1.13-5.37-3.3-1.33-3.92-4.19-4.64-7.69-4.79-1.85-.08-3.64-.52-4.17-2.67-.36-1.49.32-2.71,1.51-3.6,1.69-1.23,3.09-.2,4.5.7,2.42,1.55,4.9,2.65,7.66.72,3.51-2.4,6.55-1.73,9.68.98,3.34,2.89,7.05,5.56,11.83,4.92,4.38-.57,8.48.28,12.56,1.6,5.23,1.73,10.47,3.42,15.68,5.17,1.79.61,3.32.95,4.78-.87,5.46-6.79,12.71-11.35,20.24-15.37,22.53-12.07,46.84-18.98,71.69-24.17,5.45-1.13,9.6-3.03,12.81-8.21,5.13-8.27,11.06-16.28,20.65-20.1,3.33-1.31,4.05-3.12,3.72-6.59-.89-9.17-1.44-18.44.27-27.55,2.11-11.22,6.91-21.44,13.05-30.98,1.46-2.26,1.73-3.83-.87-5.38-1.65-.96-3.39-2.31-3.9-4.15-1.24-4.43-4.74-6.47-8.17-8.78-1.81-1.23-3.51-2.68-5.06-4.22-11.87-11.77-22.19-24.79-30.7-39.21-3.72-6.31-7.16-12.97-7.79-20.26-.39-4.55-2.11-7.34-5.42-9.86-2.74-2.08-5.3-4.37-7.88-6.66-2.27-1.99-4.96-3.78-6.12-6.61-2.18-5.36-6.3-8.14-11.52-9.76-3.13-.98-4.8-3.16-4.89-6.39-.09-2.96-1.51-4.89-4.11-6.12-1.49-.72-3.17-1.47-2.97-3.5.14-1.44,1.17-2.6,2.48-3.07,2.28-.85,3.08,1.23,4.17,2.53,1.48,1.8,2.63,4.05,5.53,3.5,3.69-.69,6,1.21,7.89,4.02,3.38,5.05,6.76,10.06,12.93,12.23,1.09.39,2.09,1.37,2.86,2.31,10.49,12.88,21.97,24.97,29.48,40.11,6.79,13.69,14.94,26.62,23.47,39.31,2.36,3.5,5.15,6.95,9.68,6.87,4.73-.1,8.65,1.28,12.15,4.19,1.68,1.37,2.97,1.41,4.63-.15,10.59-9.96,23-16.91,36.68-21.63,2.81-.98,3.89-2.53,3.82-5.46-.12-4.82-.09-9.65.15-14.45.3-6.03.65-12.1,3.4-17.69,3.02-6.15,7.78-10.51,13.55-14.06,4.18-2.57,4.02-6.61-.32-8.85-5.87-3.04-11.88-5.79-17.83-8.67-6.74-3.25-12.9-7.34-18.08-12.8-3.78-4.01-7.57-8-11.35-11.98-1.69-1.77-2.78-3.78-2.52-6.3.17-1.6.94-2.94,2.32-3.7,1.51-.85,2.56.39,3.64,1.19,2.89,2.13,4.46,5.18,5.9,8.34,3.06,6.69,7.77,11.89,13.92,15.93,6.59,4.33,13.82,7.37,20.82,10.89,5.61,2.83,11.29,5.43,17.13,7.8,2.51,1,4.63,1.86,7.33,1.46,12.72-2.03,25.66-2.93,38.2-.41,7.82,1.59,13.94-1.36,20.22-3.84,8.65-3.43,16.8-8.16,25.1-12.48,9.04-4.69,16.33-11.14,20.34-20.8.72-1.77,1.75-3.53,3.09-4.82,1.62-1.57,3.22-4.82,5.95-2.89,2.51,1.78,1.62,5.04.89,7.69-.28.96-1.21,1.78-1.96,2.58-2.53,2.71-5.24,5.28-7.65,8.09-5.82,6.82-12.8,12.05-20.84,15.93-5.71,2.73-11.46,5.36-17.11,8.22-5.75,2.93-5.87,7.18-.38,10.69,9.42,6.02,14.13,14.54,14.71,25.72.33,6.46.75,12.9.62,19.38-.06,2.93,1.05,4.59,3.84,5.46,13.67,4.19,25.5,11.56,35.98,21.14,2.21,2.03,3.87,1.95,6.02.1,2.31-2.01,5.01-3.96,8.11-3.63,6.88.72,10.72-3.19,14.02-8.26,6.31-9.7,12.84-19.28,17.94-29.64,7.78-15.81,17.94-29.91,29.45-43.1,2.16-2.5,3.78-5.85,6.75-7.15,6.55-2.89,10.56-8.13,14.46-13.67,1.29-1.83,3.01-3.68,5.39-3.25,3.63.67,5.68-.96,7.51-3.7.88-1.32,1.84-3.03,3.9-2.27,1.33.47,2.35,1.57,2.45,3.06.14,2.03-1.47,2.78-2.95,3.55-2.2,1.13-4.06,2.62-3.99,5.28.1,4.37-2.34,6.43-6.12,7.65-3.88,1.26-7.35,3.2-9.16,7.16-1.53,3.35-3.98,5.89-6.74,8.22-3.78,3.19-7.51,6.44-11.29,9.65-1.43,1.21-2.49,2.52-2.36,4.55.28,4.68-1.26,8.99-3.15,13.13-9.24,20.18-22.82,37.2-39.06,52.14-3.66,3.37-8.77,5.18-10.24,10.76-.33,1.24-1.88,2.44-3.14,3.16-3.09,1.77-2.82,3.6-1.1,6.34,5.41,8.67,10.12,17.69,12.07,27.86,1.71,8.86,1.07,17.86.67,26.75-.25,5.53.89,8.67,6.39,10.97,8.57,3.63,13.45,11.53,18.62,18.82,1.78,2.53,3.74,3.65,6.84,3.53,15.84-.57,31.63.28,47.34,2.39,16.38,2.19,33.24,4.09,47.38,13.01,8.26,5.22,13.68,3.79,20.57-.98,4.45-3.09,9.08-6.61,14.68-7.21,5.99-.64,10.3-3.5,13.69-8.16,2.12-2.91,4.77-3.99,8.26-2.86,2.84.9,5.72.7,7.51-1.8,2.68-3.73,5.03-2.78,7.61-.11v2.47c-1.81,1.83-4.2,2.55-6.55,3.35-1.76.59-3.38,1.39-3.59,3.52-.42,4.1-3.21,5.69-6.75,6.8-4.46,1.36-9.82,1.67-12.97,4.95-6.72,6.95-15.59,8.93-23.98,12.21-2.82,1.08-6.27,1.46-8.34,3.35-5.01,4.53-10.29,4.45-16.16,2.76-4.62-1.32-9.35-2.31-13.98-3.61-22.23-6.31-44.41-12.74-67.23-16.66-1.14-.2-2.61-1.19-3.46,0-.8,1.13.38,2.35.88,3.42,8.93,19.29,15.77,39.31,20.88,59.91,5.42,21.8,8.56,44.02,10.7,66.3,1.2,12.54,1.27,25.29-.37,37.9-1.71,13.06-3.63,26.13-6.97,38.91-.47,1.8-.13,3.19,1.34,4.4,7.58,6.25,12.03,14.58,15.45,23.53,6.28,16.48,11.34,33.36,14.64,50.67,2.92,15.29,5.59,30.64,1.17,46.14-.71,2.48,1.13,2.68,2.71,3.16,6.6,1.9,13.24,3.7,19.81,5.71,3.93,1.23,8.38,1.68,11.48,4.41,5.05,4.46,10.67,5.85,17.13,5.27,3.21-.29,5.72,1.23,6.94,4.17,1.36,3.27,3.79,4.61,7.05,4.68,2.1.03,3.94.46,4.71,2.55.56,1.52-.73,2.57-1.68,3.52-1.76,1.78-3.2.29-4.76-.56-2.1-1.13-4.22-3.38-6.75-1.65-3.86,2.68-7.09,1.55-10.67-.59-4.1-2.44-8.1-5.72-13.05-5.77-5.35-.05-9.94-1.85-14.44-4.27-6.9-3.71-13.77-7.5-20.65-11.25-1.45-.79-2.8-1.91-4.51-1.95-6.44-.08-9.16-4.14-10.54-9.68-2.11-8.47-2.44-17.15-3.07-25.78-1.7-23.32-4.38-46.53-8.54-69.56-.64-3.56-1.76-6.95-4.15-9.76-2.47-2.88-3.73-2.67-5.02.96-12.38,34.68-31.05,65.52-55.93,92.64-19.79,21.53-41.99,40.01-68.26,53.27-12.61,6.36-25.89,10.77-39.62,13.83h0Z"/>
  </g>
</svg>