<?xml version="1.0" encoding="UTF-8"?>
<svg id="Layer_2" data-name="Layer 2" xmlns="http://www.w3.org/2000/svg" viewBox="0 0 654.5 396.2">
  <defs>
    <style>
      .cls-1 {
        fill:#808080
      }
    </style>
  </defs>
  <g id="Layer_1-2" data-name="Layer 1">
    <path class="cls-1" d="m457.91,178.74c10.06,6.66,20.13,13.32,31.26,20.7-2.45-7.3-5.48-13.18-11.64-15.21-4.32-1.43-8.6-2.69-12.63-4.84-1.89-1.01-3.68-2.65-6.99-.65h0Zm18.59-94.78c.15,3.26-2.94,7.48,1.32,8.57,3.62.92,3.74,2.93,4.25,5.39,1.02,4.94-.22,10.75,5.59,13.82.42.22.59,1.76.28,2.41-3.26,7.07-4.63,15.26-11.78,20.04-1.1.73-2.11,1.45-1.43,2.93.56,1.23,1.71,1.81,3.02,1.72,1.56-.09,3.12-.45,4.68-.64,5.44-.67,10.16,1.42,11.09,5.69,1.06,4.86,5.12,8.41,5.29,13.63.07,2.05,2.09,1.93,3.77,1.6,1.69-.33,3.03-1.09,3.38-2.86.35-1.76-.93-3.03-2.26-3-7.65.15-7-5.36-7.09-10.21-.17-9.09-.52-18.2-.14-27.27.5-12.11-.85-24.14-.62-36.22.24-12.25.06-24.5.06-36.75-.57-.06-1.12-.13-1.68-.2-6.9,14.66-16.73,27.96-20.49,44.09,1.42-.51,1.14-2.11,2.76-2.73h0Zm-155.41-9.57c11.32-2.04,24.58,3.63,32.93-9.35,2.01-3.12,5.6-2.53,8.27.12.98.98,1.73,2.22,2.43,3.43,2.46,4.22,6.63,3.52,9.84,2.37,3.48-1.26,1.66-4.78.91-7.34-1.73-5.89-3.57-11.75-5.48-17.6-3.51-10.66-6.91-21.37-11.69-31.58-1.07-2.3-2.16-3.88-4.02-.41-4.73,8.79-9.64,17.49-14.38,26.27-6.09,11.29-12.3,22.52-18.82,34.09h0Zm333.41,127.22c-8.08,2.88-16.47,4.98-24,9.31-.58.33-1.35.36-2.04.41-17.16,1.49-33.54-.54-49.67-7.51-11.88-5.14-22.77-11.33-32.78-19.34-1.94-1.55-4.23-2.51-6.71-2.92-.77-3.37-4.25-3.49-6.35-5.28-3.86-3.64-8.11-6.74-12.78-9.26-1.15-.62-3.67-1.57-3.57-.55.31,3.26-1.33,2.06-2.53,1.47-2.34-1.13-6.02-.65-6.43.38-1.83,4.59-6.68,1.45-8.93,4.99,7.48.57,14.64-4.34,23.11-1.74-4.17,1.02-7.8.23-11.02,1.62-.29.12-1.34-.25-.77.65.36.58,1.8-.22,1.89,1.12-2.41,1.08-5.31-.55-7.45,2.05,9.53-.24,19.02-2.98,28.55-.77-5.79,2.44-12.05.18-18.7,1.84,6.24,3.02,12.05.26,17.73,1.01-5.82,1.15-11.38,2.8-16.68,5.54,1.57,2.93,3.68,2.42,6.21,1.39,5.68-2.34,11.43-4.59,17.75-4.49-4.04,2.23-8.61,3.15-12.8,5.13-2.51,1.19-.43,3.76-2.65,3.99,1.53,2.15,2.68-.06,3.85-.45,2.48-.84,4.79-2.17,9.23-2.39-4.01,1.93-3.56,5.91-7.07,6.68-.7.16-.59.72-.16,1.14,1.05,1.02,2.25.9,3.42.29,4.48-2.35,9.28-3.19,14.28-3.05.85.03,1.69.17,2.59,1.13-2.5.15-5.05.02-7.48.49-4.36.84.83,1.65.04,2.62-2.27,1.18-5.18-.56-7.63,1.48,1.75,2.86,3.93,3.1,6.66,1.69,5.24-2.7,10.95-3.37,18.2-4.12-5.32,3.13-10.43,1.95-14.91,4.85,2.5.61,5.75.58,6.2,1.67,1.67,4.12,5.34.67,7.78,2.8-3.11.74-5.9,1.42-9.8,2.35,5.88,4.48,11.87-3.24,16.4,2.09-2.5.77-5.78-.04-8.5,1.83,2.53,2.52,5.1,2.52,7.97.6,1.15-.78,2.51-1.34,3.84-1.71.87-.24,2.24-1.65,2.74.45.39,1.61-.17,2.48-2.03,2.46-1.02,0-2.02.51-2.71,1.67,1.54,2.17,3.35,1.86,5.38.69,1.22-.7,2.47-1.47,3.8-1.76,1.3-.28,3.25-2.13,3.91-.05.5,1.6-.36,3.9-3.17,3.55-.45-.06-.92.14-1.54.24,1.19.68,2.21,1.24,3.31,1.87-1.45,2.76-6.72-1.37-5.75,5.34-3.17-4.44-5.14-8.25-10.29-6.02-1.55.69-1.19-2.15-2.65-2.62-1.65-.53-3.28-2.14-4.89-1.49-1.94.8.26,2.8-.57,4.5-1.87-1.17-1.96-3.18-2.46-4.87-.66-2.19-2.3-3.24-4.22-3.52-2.94-.43-1.01,2.89-2.73,3.86-2.19-2.44.33-8.12-5.83-8.22,1.98,3.24-1.2,4.52-2.46,6.83-2.36-3.64,2.91-10.19-4.75-11.68,1.38,3.38-4.02,5.71-1.27,9.47-2.47-2.22-1.94-5.12-2.08-7.84-.12-2.21.56-5.55-2.39-5.55-2.53,0-2.11,3.46-2.51,5.54-.28,1.5-.21,3.06-.29,4.55-4.8-4.34,2.34-12.14-6.13-16.47,2.59,4.1-1.18,7.04.64,10.41-4.57-3.52,1.17-11.39-6.99-14.27,3.29,4.03,1.28,7.68,1.77,12.26-2.72-4.42-4.92-8-7.62-12.4-.15,4.08,1.97,6.76,1.13,9.8-.4,1.47-.14,3.45-2.13,3.86-1.77.37-3.01-.9-3.9-2.23-2.51-3.81-5.07-7.54-9.69-9.84.58,3.16,3.05,4.46,4.68,6.37,2.44,2.87,5.97,5.29,3.37,9.98-.71,1.29.59,2.67,1.24,3.89,5.82,10.85,12.05,21.48,17.4,32.56,4.53,9.36,8.07,19.21,12,28.87.92,2.27,1.72,4.59,2.51,6.91.85,2.5,3.35,5.57-.56,7.2-3.72,1.55-6.67-1.25-7.86-4.23-5.29-13.31-9.72-26.97-15.25-40.17-7.45-17.76-18.28-32.93-35.82-42.4-5.55-3-10.79-6.58-16.15-9.94-1.52-.95-3.66-2.52-3.8.51-.74,15.03-2.84,30.29,4.87,44.4,3.8,6.95,7.7,13.83,11.59,20.72,7.41,13.14,16.39,25.6,22.62,39.14,10.3,22.38,25.9,41.14,38.27,62.04,3.03,5.12,7.01,9.67,10.44,14.56.94,1.34,2.56,3.17.47,4.55-1.76,1.15-2.81-.8-3.7-2.02-15.79-21.57-32.14-42.65-46.06-65.66-11.44-18.9-21.25-38.7-32.99-57.4-2.7-4.29-3.64-9.83-6.78-13.64-8.4-10.21-7.83-21.86-6.75-33.69,1.25-13.81,2.75-27.6,4.26-41.38.29-2.78,1.18-5.49,1.62-8.26.23-1.48.77-3.38-1.47-3.91-1.87-.44-3.96-.93-5.18,1.25-1.26,2.27-2.94,4.28-3.57,6.96-1.44,6.25-8.58,12.18-15.07,12.71-4.17.35-5.57-2.53-5.94-5.92-.44-4-1.26-4.53-4.49-1.63-6.15,5.52-10.43,4.7-14.63-2.28-.86-1.43-1.68-2.62-3.56-2.68-5.66-.16-10.74-1.44-13.92-7.17.8,4.38,1.45,8.79,2.43,13.12,3.54,15.53,7.14,31.05,10.82,46.54.67,2.82.75,5.51.05,8.3-3.46,13.98-5.46,28.2-7.55,42.43-2.3,15.61-3.35,31.39-6.13,46.87-4.47,25.02-9.08,50.08-18.57,73.88-1.68,4.23-2.84,8.67-4.28,13-.38,1.18-.89,2.74-2.22,2.62-1.89-.19-1.6-2.15-1.53-3.42.37-6.74,2.47-13.23,4.91-19.32,7.6-18.94,11.4-38.82,14.36-58.73,2.34-15.79,4.18-31.72,5.95-47.62,1.5-13.43,3.05-26.86,5.73-40.12,1.21-5.96.41-11.75-.98-17.71-2.29-9.84-3.73-19.88-5.52-29.85-1.83-10.17-3.66-20.35-5.48-30.54-.47-2.62-1.49-2.29-3.05-.71-7.7,7.77-16.42,15.03-25.23,20.75-12.48,8.09-24.64,18.23-40.95,19.68-8.26.74-16.1,4.97-24.47,6.26-3.12.48-6.27.91-9.42,1-10.02.27-17.73,6.4-26.13,10.5-13.25,6.47-26.49,12.91-39.83,19.18-2.85,1.34-5.77,2.57-8.56,4.03-15.81,8.24-32.94,12.82-49.79,18.29-9.53,3.09-19.34,5.12-28.84,8.34-7.31,2.49-15.29,1.08-22.95,1.44-11.61.55-23.19,1.4-34.68,2.9-4.71.6-9.04-.75-13.57-.59-13.16.42-26.32.7-39.48.87-2.83.04-7.32.77-7.3-3.01,0-3.26,4.51-2.46,7.05-2.4,8.94.23,17.87-.37,26.82-.35,25.14.08,50.28-1.07,75.13-5.22,13.32-2.23,26.26-6.24,39.35-9.59,17.34-4.45,33.64-11.19,49.65-18.88,13.58-6.53,27.38-12.61,40.46-20.14,3.15-1.82,6.57-3.15,10.26-4.89-2.42-1.52-4.48-2.76-6.49-4.08-2.91-1.91-4.89-4.57-5.93-7.86-1.47-4.73.99-8.79,5.78-9.6,2.41-.42,4.87-.61,7.31-1,5.15-.82,9.63-1.62,13.43-6.71,3.82-5.12,10.31-8.28,15.64-12.27.98-.73,2.44-1.14,2.98-2.1,4.63-8.14,14.17-9.99,20.33-15.91,8.99-8.65,22.55-13.55,23.95-28.74-6.36,0-13.34-.16-20.32.05-5.49.16-7.32,5.21-8.72,8.86-2.1,5.46-5.93,6.34-10.25,5.54-12.79-2.33-25.21,1.21-37.8,1.86-13.16.69-26.3,2.66-39.44,2.55-11.76-.1-23.12-4.09-34.47-7.14-10.19-2.73-20.49-5.28-30.33-8.98-8.99-3.38-17.5-8.07-26.08-12.46-6.71-3.43-13.08-7.54-19.81-10.91-11.9-5.95-21.48-14.54-29.72-24.79-1.16-1.45-3.1-3.27-.88-4.92,1.95-1.43,3.03.9,4.1,2.17,9.84,11.77,21.67,20.76,35.7,27.22,9.87,4.55,18.83,10.94,28.96,15.14,19.73,8.19,40.21,14.07,61.02,18.32,12.89,2.63,26.32.07,39.46-.81,14.01-.96,27.97-2.67,41.98-3.85,3.21-.27,5.6-1.29,7.91-4.41-7.65,0-14.59-.32-21.49.06-16.9.92-33.75,1.24-50.54-1.46-3.16-.5-6.57-1.15-7.62-4.7-1.18-3.96.63-6.95,3.76-9.62,5.08-4.33,10.87-7.1,17.14-9.04,17.42-5.4,35.35-7.72,53.46-8.93,8.41-.57,16.82-1.44,25.24-1.87,3.84-.2,6.27-2.05,7.97-5.15,7.35-13.37,14.6-26.8,21.98-40.16,5.77-10.45,11.48-20.95,18.55-30.62h5.28c2.93,2.43,4.7,5.52,5.94,9.15,6.46,18.93,13.06,37.82,19.62,56.71.74,2.13,1.07,4.65,4.08,4.82,4.63.26,9.25.43,14.93.68-3.84-2.77-2.29-3.98.14-4.2,4.19-.38,5.94-2.99,5.89-6.56-.16-12.29,1.01-24.57-.03-36.86-.48-5.58-1.05-11.18-1.05-16.77,0-3.27,2.21-5.83,5.61-5.94,3.85-.14,4.12,3.16,4.33,6.01.15,1.93.05,3.87.03,5.81-.1,16.02,2.16,31.84,4.32,47.66.8,5.85,3.26,6.44,8.89,4.39,2.39-.86,4.85-5.58,8.19-1.25,1.86-3.55,2.99,3.51,5.51.24,1.86-2.41,3.97-.78,4.93,1.94.5,1.44,1.07,3.02,3.21,3.49.77-6.74,5.72-3.28,7.5-1.99,3.17,2.3,4.34.62,5.72-1.31,2.12-3.01,4.04-6.16,5.93-9.33,5.12-8.61,10.23-17.2,15.2-25.89,2.02-3.53,5.04-4.12,8.57-3.45,3.75.7,4.32,3.58,4.37,6.8.07,4.74.79,9.52.36,14.2-1.29,13.99-1.2,28-1.12,42,.07,12.09.39,24.21,1.38,36.24.56,6.73.3,13.64,2.69,20.24,1.08,2.97,3.57,4,5.64,4.9,1.57.69,1.86-2.46,2.81-3.82,1.02-1.44,1.3-3.47,3.44-4.08-2.13,2.76.8,6.74-2.49,9.2-.71.54-.12,1.66.74,2.16,1.16.68,2.06.2,2.6-.88.78-1.54.72-3.77,3.02-3.95,1.63,1.81-.89,3.12.11,4.83,6.64-1.05,5.82-9.6,11.53-11.71.33,2.19-2.68,3.15-1.62,5.39,2.18.58,2.58-1.31,3.57-2.39,1.05-1.14,2.21-2.76,3.91-1.72,1.43.88.91,2.45.16,3.78-.5.86-1.51,1.89-.39,2.75,1.03.81,2.36.27,3.52-.16,1.8-.67,1.82-2.43,2.41-3.85,1.74-4.18,3.17-8.53,6.47-11.88-1.59,3.57-1.85,7.33-2.49,11.15,6.79-.02,5.56-7.73,10.21-10.11-4.63,3.62,1.84,6.95-.08,10.56-.22.4,1.47.5,2.24.23,1.76-.62,1.89-2.33,2.43-3.81,1.54-4.22,1.57-4.2,6.44-4.02-.81,2.44-4.18,3.34-3.98,6.75,4.23-.37,7.57-1.23,8.2-6.32.27-2.15,1.34-4.33,3.56-6.16.39,2.43-1.55,3.58-.81,5.25,1.3.69,2.14-1.88,3.52-.58-.49,1.89-2.89,2.37-2.73,5.52,5.64-3.14,7.73-9.72,13.88-11.9-1.21,3.22-4.4,4.91-4.92,8.55,2.55-.6,5.59-.44,6.01-3.44.62-4.4,3.7-5.72,7.23-7.56-.42,3.3-3.71,4.41-3.78,7.7,3.31-.91,6.64-1.08,7.11-5.62.27-2.65.82-7.11,3.59-6.47,3.11.72-.9,4.44.07,7.06,3.35-.25,4.92-2,5.32-5.25.43-3.54,2.11-5.72,6.15-4.54.31,1.74-2.46,2.49-1.62,4.44,1.83-.05,2.79-2.41,4.86-1.49-2.38,3.18-4.9,5.08-9.62,7.75-1.45.82-3.7,1.11-3.99,3.06-.3,1.99,2.75,1.32,4.3,4.59-6.24-3.29-11.15-3.87-15.57.22,1.91,2.48,4.86,1.99,7.33,3.16-5.18,2.56-9.52-4.59-13.7-1.21-3.9,3.15-8.86,1.62-12.86,4.09,1.78,2.48,5.01,1.3,6.46,4.21-2.64-3.04-4.97,3.48-7.6-.42-2.5-3.69-5.35-2.78-9.05-.69,2.05.98,3.49,1.67,4.96,2.37-4.84,3.49-9.22-4.41-14.44.07,2.09,1.05,3.75,1.89,5.63,2.84-2.54,1.04-4.62,3.55-6.94.14-2.3-3.38-5.3-3.18-8.5-1.27.94,2.56,3.76,1.19,5.42,2.71-3.32,1.12-6.25,2.09-9.84,3.29,3.28,1.39,5.96,2.52,8.64,3.66-.15.42-.28.84-.42,1.25-8.15-4.76-17.92-.64-26.07-5.46-.16-.09-.58.28-1,.5,3.39,6.11,11.02,6.46,15.4,12.08,4.73,6.06,12.53,9.81,19.17,14.3,9.3,6.28,18.75,12.04,29.73,15.52,18.11,5.74,35.78,8.66,53.71-.15,3.59-1.76,7.4-3.46,11.66-2.41v2.11h0Z"/>
  </g>
</svg>