<?xml version="1.0" encoding="UTF-8"?>
<svg id="Layer_2" data-name="Layer 2" xmlns="http://www.w3.org/2000/svg" viewBox="0 0 654.5 398.28">
  <defs>
    <style>
      .cls-1 {
        fill:#808080
      }
    </style>
  </defs>
  <g id="Layer_1-2" data-name="Layer 1">
    <path class="cls-1" d="m646.01,171.1c-12.47-12.82-30.43-17.47-46.74-23.34-16.1-5.73-32.08-11.26-48.95-14.08-17.41-2.88-35.16-3.87-52.6-6.46-39.33-5.9-80.57-13.42-119.57-1.57-7.82,2.42-14.3,10.36-22.68,10.36-3.6,0-8.83-1.18-9.88-5.17-1.08-3.78,2.09-7.33,1.67-11.02-.52-5.46-7.79-6.54-9-11.3-1.42-5.63,5.53-13.05,8.28-17.47,4.6-7.48,8.13-15.66,12.83-23.09,5.66-9.21,10.9-18.87,16.93-27.88,5.82-8.53,12.94-16.16,16.41-26.1,1.42-4.18,2.9-20.83-4.31-10.84-4,5.59-6.16,12.85-8.68,19.16-3.55,8.91-7.43,17.78-11.91,26.31-4.9,9.36-10.63,18.35-16.19,27.33-6.03,9.78-11.18,19.99-17.75,29.5l-5.63,1.55v-1.78c-.28.67-.69,1.34-1.01,2.04-.31-.7-.65-1.37-.95-2.04v1.78l-5.63-1.55c-6.57-9.51-11.73-19.72-17.85-29.5-5.56-8.98-11.2-17.97-16.11-27.33-4.5-8.53-8.31-17.4-11.91-26.31-2.54-6.31-4.67-13.57-8.72-19.16-7.17-9.99-5.68,6.66-4.22,10.84,3.45,9.94,10.5,17.57,16.28,26.1,6.13,9.01,11.33,18.67,17.08,27.88,4.63,7.43,8.1,15.61,12.73,23.09,2.8,4.43,9.77,11.85,8.3,17.47-1.22,4.76-8.44,5.84-9.04,11.3-.35,3.69,2.8,7.24,1.72,11.02-1.03,3.98-6.23,5.17-9.86,5.17-8.48,0-14.88-7.94-22.74-10.36-38.98-11.85-80.25-4.33-119.54,1.57-17.47,2.59-35.13,3.58-52.57,6.46-16.86,2.83-32.9,8.35-48.98,14.08-16.3,5.86-34.28,10.51-46.73,23.34-16.11,16.61-6.23,36.8,4.37,53.3,15.01,23.33,48.72,23.16,69.79,38.53,13.05,9.54,23.47,22.02,35.51,32.76,7.25,6.57,14.45,13.18,20.8,20.69,8.21,9.84,12.81,23.63,23.39,31.3,7.5,5.43,14.37,10.45,19.75,18.21,5.77,8.52,15.18,10.77,23.61,15.89,5.7,3.54,10.85,8.02,17.01,10.9,7.97,3.61,16.67,5.05,25.39,5.56,8.21.55,14.07-4.97,21.82-6.14,5.25-.85,10.57,1.8,15.89.58,5.86-1.43,10.04-6.46,14.95-9.72,5.65-3.75,12.86-4.93,17.95-9.56,4.89-4.4,6.95-12.71,8.51-19.81,1.55,7.1,3.64,15.42,8.49,19.81,5.21,4.63,12.34,5.82,18.03,9.56,4.89,3.25,9.08,8.29,14.94,9.72,5.33,1.21,10.58-1.43,15.86-.58,7.77,1.17,13.61,6.69,21.9,6.14,8.68-.51,17.38-1.95,25.38-5.56,6.13-2.88,11.24-7.36,17.07-10.9,8.28-5.11,17.69-7.37,23.51-15.89,5.34-7.76,12.3-12.78,19.81-18.21,10.5-7.67,15.1-21.47,23.35-31.3,6.33-7.51,13.48-14.12,20.78-20.69,11.97-10.74,22.44-23.22,35.51-32.76,21.05-15.37,54.81-15.2,69.78-38.53,10.63-16.5,20.49-36.69,4.38-53.3h0Z"/>
  </g>
</svg>