<?xml version="1.0" encoding="UTF-8"?>
<svg id="Layer_2" data-name="Layer 2" xmlns="http://www.w3.org/2000/svg" viewBox="0 0 617.99 654.5">
  <defs>
    <style>
      .cls-1 {
        fill:#808080
      }
    </style>
  </defs>
  <g id="Layer_1-2" data-name="Layer 1">
    <path class="cls-1" d="m513.14,652.74c-14.08-3.63-13.31-13.64-14.74-22-7.33-45.11-14.67-90.25-22-135.43-1.32-8.47-1.65-16.94-9.79-22.66-35.21-24.2-70.3-48.63-107.82-74.7-3.98,14.31-5.21,29.24-3.63,44.01.09,25.23-11.94,48.97-32.35,63.81-7.22,6.85-18.53,6.85-25.74,0-20.35-14.96-32.56-38.56-33.01-63.81,1.11-13.27.41-26.63-2.09-39.72-11,0-17.82,7.48-25.41,12.54-18.26,12.21-36.09,24.97-54.13,37.41-37.85,26.07-37.63,26.07-44.67,72.39-5.72,38.73-11.99,77.01-18.15,115.85-.99,6.27,0,13.97-12.76,14.08,3.08-23.32,5.94-46.32,9.35-69.2,4.73-32.13,11-63.92,14.19-96.16.94-16.37,10.43-31.04,24.97-38.62,30.37-19.69,59.96-40.6,89.78-61.17,5.79-3.32,11.08-7.43,15.73-12.21,5.24-7.14,5.84-16.68,1.54-24.42-2.97-6.27-10.23-2.53-15.51-1.76-26.4,4.18-52.59,8.91-78.99,12.76-9.49,1.79-17.43,8.24-21.12,17.16-15.7,26.18-31.43,52.22-47.2,78.11-4.29,7.26-7.59,16.61-19.8,9.79,23.91-37.7,47.75-75.4,71.51-113.1,1.43-2.42,3.19-4.73,4.95-7.37-30.34.42-60.56-3.92-89.56-12.87-14.85-5.28-36.42-7.15-36.09-26.4,0-16.94,21.34-19.14,35.1-24.64,13.75-5.5,31.69-5.39,49.95-14.52-19.69-6.05-36.31-11-52.59-16.06-20.19-5.77-38.94-15.74-55.01-29.27-12.1-11-10.45-22,4.29-29.49,19.2-8.57,39.93-13.21,60.95-13.64,69.42-5.28,137.52-1.21,199.36,35.65,11.77,7.04,17.6,3.85,20.35-8.14,6.93-29.16,8.47-57.76-11-84.93-28.56,13.33-56.17,28.62-82.62,45.77-12.76,8.25-22,8.03-31.58-4.29-13.86-18.81-30.26-34.99-33.01-61.17-3.95-21.78-10.37-43.05-19.14-63.37-4.73-13.2-12.76-14.85-30.37-7.92,7.48-11,20.46-14.96,26.4-33.01,30.15,50.61,46.65,102.32,74.92,150.84,29.71-16.28,60.27-30.97,91.54-44.01,7.77-3.94,13.46-11.04,15.62-19.47,3.41-9.35-5.72-12.54-11-17.27-5.28-4.73-9.24-15.4,1.87-15.51,17.93,0,14.96-9.46,12.32-19.91-1.1-4.51-4.29-8.58-2.42-14.08,11,4.84,6.49,18.37,15.84,26.4,8.14-6.49,6.05-18.81,14.52-26.73,2.75,7.04-.66,12.32-2.09,17.93-2.42,9.13-3.41,15.51,11,15.95,11.99,0,12.54,6.38,3.41,16.39-14.08,14.41-13.64,25.41,3.08,35.21,12.21,7.15,26.18,11,39.06,17.49,17.93,8.58,35.54,17.71,53.8,26.84,27.94-47.09,44.78-99.02,72.5-146.77l22.77,23.98c-9.02-3.62-19.27.76-22.89,9.79-.37.93-.66,1.89-.87,2.87-5.94,25.19-17.6,48.52-22,74.48-3.85,24.09-22,41.37-38.73,58.31-6.93,7.04-13.86,2.75-20.68-1.21-23.87-13.86-47.97-27.39-71.95-41.04-4.07-2.2-8.36-3.96-12.98-6.05-20.24,26.73-17.38,55.56-11.88,84.49,2.09,11,7.37,16.28,20.02,8.91,72.17-42.14,150.4-44.01,230.16-31.69,6.58,1.05,13.06,2.67,19.36,4.84,9.9,3.3,22,5.72,22,18.59s-8.91,18.48-17.93,23.54c-12.06,7.12-24.64,13.34-37.63,18.59-17.49,6.6-35.65,11.66-53.91,17.49,7.81,11,19.58,7.59,29.16,11,13.96,3.23,27.45,8.22,40.16,14.85,16.83,11,17.05,22-.88,31.58-23.14,11.37-48.23,18.24-73.93,20.24-11.99,1.43-24.09,1.87-38.4,2.86l75.8,119.26c-10.23,7.26-14.52,0-18.92-7.7-15.07-25.41-30.92-50.5-45.22-76.24-5.85-13.19-18.6-21.99-33.01-22.77-22.66-2.09-45.11-7.37-67.66-11-6.16-.99-14.85-5.72-18.15,1.76-4.88,8.73-3,19.69,4.51,26.29,5.17,4.18,11,8.03,16.17,11.77,29.82,20.57,59.41,41.37,89.78,61.17,11.67,6.45,19.43,18.21,20.79,31.47,6.93,56.44,15.95,112.66,24.42,168.99Zm-93.74-383.86c-23.22-6.23-47.14-9.45-71.18-9.57-11-.77-16.28,2.86-15.18,14.41,1.1,11.55,7.04,18.37,18.48,14.3,22.23-7.7,44.9-14.09,67.88-19.14Zm-216.74,0c23.08,4.81,45.79,11.21,67.99,19.14,11,3.85,15.4-3.41,16.61-13.09,1.21-9.68-.77-16.83-12.98-16.06-24.44-.09-48.76,3.44-72.17,10.45l.55-.44Zm-21.34,76.13c28.61,1.54,51.49-5.06,74.7-7.04,4.01.13,7.36-3.01,7.49-7.02.03-.94-.12-1.89-.45-2.77-1.43-3.96-5.83-3.74-9.68-2.75-24.72,4.65-49,11.35-72.61,20.02l.55-.44Zm257.45,0c-23.38-8.32-47.36-14.83-71.73-19.47-3.85-.88-8.25-.88-9.57,3.19-1.32,4.07,2.64,9.13,7.48,9.57,22.55,1.87,45.33,9.02,73.27,6.82l.55-.11Z"/>
  </g>
</svg>