<?xml version="1.0" encoding="UTF-8"?>
<svg id="Layer_2" data-name="Layer 2" xmlns="http://www.w3.org/2000/svg" viewBox="0 0 654.5 475.47">
  <defs>
    <style>
      .cls-1 {
        fill:#808080
      }
    </style>
  </defs>
  <g id="Layer_1-2" data-name="Layer 1">
    <path class="cls-1" d="m654.36,116.09c.8-7.06-1.94-13.75-4.46-20.23-2.48-6.81-4.82-13.73-4.49-21.02.29-6.96,3.14-13.83.9-20.71-2.2-7.1-7.06-13.1-13.15-17.23-6.04-4.11-12.96-6.61-20.11-7.93-22.78-4.31-45.6-1.97-68.1,3.03-13.55,3.01-26.7,7.15-39.23,12.99-22.05,10.3-43.46,22.21-62.41,37.48-22.47,18.22-44.38,37.28-63.02,59.49-7.7,9.28-15.89,18.39-22.82,28.26-5.38,7.65-8.9,16.03-12.89,24.42-4.93-4.86-.9-8.66.78-13.85.73-2.13.4-4.66-.31-6.75-1.51-4.27-4.84-7.77-8.03-10.93-.97-.94,1.63-6.53,2.08-7.79,1.13-4.09,1.98-8.25,3.02-12.33,2.62-9.94,5.57-19.84,9.89-29.18,6.8-14.95,14.23-29.66,23.25-43.45,3.12-4.77,6.09-9.68,8.83-14.6,5.4-9.58,10.46-19.43,17.99-27.58,6.33-7.02,14.14-12.19,22.73-16.31,4.98-2.39,14.3-4.29,18.01-8.55,3.19-3.42-1.94-3.42-4.7-3.3-7.95.33-16.03,3.4-22.73,7.43-17.58,10.51-27.38,29.07-37.03,46.43-12.11,21.89-26.11,42.83-34.44,66.55-1.37,3.83-13.76,39.28-11.47,40.1-.09-.09-.57-.19-1.25-.3v-.8c0-.38-1.89-.2-3.94.07-2.08-.27-3.97-.45-3.97-.11v.84c-.59.11-1.13.21-1.25.3,2.29-.83-10.13-36.27-11.47-40.1-8.33-23.72-22.28-44.66-34.46-66.55-9.53-17.36-19.4-35.92-36.96-46.43-6.8-4.02-14.75-7.09-22.78-7.43-2.79-.12-7.84-.12-4.79,3.3,3.85,4.26,13.17,6.16,18.2,8.55,8.45,4.12,16.31,9.29,22.68,16.31,7.48,8.16,12.51,18,17.96,27.58,2.76,4.92,5.69,9.83,8.78,14.6,9.04,13.8,16.55,28.5,23.32,43.45,4.25,9.34,7.29,19.24,9.89,29.18,1.08,4.08,1.84,8.24,3.09,12.33.33,1.26,2.9,6.85,1.96,7.79-3.05,3.16-6.52,6.66-7.93,10.93-.85,2.09-1.11,4.62-.36,6.75,1.68,5.18,5.74,8.98.87,13.85-4.06-8.39-7.65-16.77-13-24.42-6.92-9.88-15.09-18.99-22.83-28.26-18.67-22.21-40.48-41.27-63.09-59.49-18.93-15.27-40.34-27.18-62.34-37.48-12.49-5.84-25.75-9.99-39.23-12.99-22.57-5-45.27-7.34-68.17-3.03-7.1,1.32-14.05,3.82-20.04,7.93-6.16,4.13-10.91,10.13-13.2,17.23-2.26,6.88.68,13.75.97,20.71.33,7.29-1.96,14.21-4.53,21.02-2.5,6.48-5.17,13.17-4.46,20.23.66,6.7,4.72,12.12,8.14,17.69,12.02,19.7-6.02,45.01,8.43,63.64,5.88,7.59,12.39,14.93,13.27,24.93.64,7.09.64,14.55,4.01,21.06,5.92,11.42,21.19,13.13,30.92,20.19,6.89,5.08,11.28,12.51,17.49,18.24,10.67,9.68,24.31,6.56,37.37,6.95,5.29.13,10.46.84,15.67.75-1.27,0-4.11,3.06-5.05,3.77-2.22,1.57-4.41,3.08-6.54,4.7-12.93,9.44-24.41,20.94-33.42,34.11-6.16,8.97-11.19,18.7-14.78,28.9-2.55,7.34-3.49,15.85-1.04,23.32,2.38,7.16,8.29,11.6,14.28,15.73,7.32,4.95,12.23,12.06,16.24,19.78,3.85,7.46,7.37,15.36,14.35,20.48,6.37,4.71,13.83,7.55,20.72,11.28,9.77,5.29,16.92,14.62,26.3,20.39,8.38,5.15,17.68,4.17,26.18-.11,7.7-3.84,14.19-9.4,22.09-12.95,10.76-4.78,22.66-7.06,33.54-11.55,11.8-4.88,20.72-12.55,26.25-24.26,3.45-7.17,6.04-14.79,8.12-22.49,6.11-22.24,6.4-45.54,13.88-67.47,2.69-7.86,5.6-15.71,8.78-23.27.92-1.97,3.85-5.63,3.85-7.71,0,8.5,1.25,16.94,2.65,25.33,1.16,7.82,1.51,15.96,3.8,23.62,1.91,6.3,8.05,25.28,16.76,14.21,3.52-4.33,5.62-10.62,6.85-15.84,1.77-7.25,2.41-14.66,3.49-21.99,1.35-8.39,2.64-16.83,2.64-25.33,0,2.08,2.93,5.74,3.82,7.71,3.28,7.57,6.09,15.41,8.73,23.27,7.46,21.93,7.79,45.24,13.93,67.47,2.05,7.71,4.67,15.32,8.09,22.49,5.48,11.71,14.52,19.38,26.25,24.26,10.95,4.5,22.85,6.77,33.59,11.55,7.91,3.54,14.52,9.11,22.1,12.95,8.5,4.27,17.8,5.25,26.08.11,9.47-5.77,16.57-15.11,26.34-20.39,6.99-3.73,14.35-6.57,20.7-11.28,6.99-5.12,10.48-13.02,14.37-20.48,4.01-7.72,9.02-14.84,16.29-19.78,5.95-4.13,11.9-8.57,14.28-15.73,2.45-7.47,1.51-15.98-1.09-23.32-3.52-10.21-8.59-19.93-14.77-28.9-9.11-13.17-20.49-24.67-33.33-34.11-2.22-1.62-4.44-3.13-6.59-4.7-1.04-.71-3.87-3.77-5.1-3.77,5.29.09,10.46-.61,15.67-.75,13.03-.39,26.75,2.73,37.39-6.95,6.28-5.72,10.62-13.16,17.54-18.24,9.65-7.06,24.97-8.77,30.92-20.19,3.26-6.5,3.35-13.96,3.94-21.06.83-10,7.41-17.34,13.29-24.93,14.42-18.62-3.59-43.94,8.4-63.64,3.42-5.57,7.53-10.99,8.15-17.69h0Z"/>
  </g>
</svg>