<?xml version="1.0" encoding="UTF-8"?>
<svg id="Layer_2" data-name="Layer 2" xmlns="http://www.w3.org/2000/svg" viewBox="0 0 654.5 347.05">
  <defs>
    <style>
      .cls-1 {
        fill:#808080
      }
    </style>
  </defs>
  <g id="Layer_1-2" data-name="Layer 1">
    <path class="cls-1" d="m43.82,91.12c-.4-.25-.74-.53-.91-.93.3.26.6.58.91.93ZM653.55,20.58c-2.35,4.28-5.42,8.03-8.86,11.48-.56.57-1,1.04-1.02,1.95-.03,1.33-.81,2.46-1.75,3.33-4.33,4-8.32,8.4-13.34,11.6-.23.16-.55.28-.64.5-1.27,3.11-4.21,4.38-6.73,6.02-5.66,3.67-11.23,7.49-16.85,11.21-2.92,1.93-5.39,4.3-7.65,6.94-1.29,1.52-2.44,3.21-4.68,3.95,1.31.66,2.4,1.22,3.92,2-1.57.06-2.35-.7-3.24-1.07-.58-.24-1.05-.45-1.63.14-2.37,2.41-5.23,4.19-8.17,5.76-9.34,4.97-17.84,11.21-26.33,17.42-7.22,5.27-15.08,9.5-22.69,14.13-.4.25-1.28.26-.87,1.09.35.73,1,.28,1.47.15.78-.2,1.5-.66,2.62-.68-.98.88-2.05.97-2.97,1.35-.38.15-.98.06-.9.72.07.55.62.64,1.02.68.86.08,1.74.02,2.97.02-1.26.94-2.27.72-3.27.43-.68-.19-1.14-.19-1.77.34-1.31,1.11-3.04,1.3-4.65,1.71-9.07,2.28-17.89,5.37-26.85,8.08-16.68,5.04-32.79,11.72-49.38,17-3.93,1.25-7.8,2.64-11.74,3.98.41.83,1.19,1.07,1.84,1.47,6.32,3.98,12.94,7.45,19.02,11.82.9.65,1.13,1.25.97,2.35-.62,4.13-.58,4.14-4.79,4.13-1.95,0-3.89,0-5.79,0,.56,1.65,2.6,1.79,3.62,3.1-1.44-.54-2.74-1.44-4.57-1.33,1.88,1,3.49,2.08,4.87,3.46.29.29.98.52.63,1-.49.68-.8-.2-1.19-.36-.35-.15-.65-.41-1.05-.54.77,1.37,2.11,2.42,2.41,4.39-1.12-1.25-1.51-2.68-2.75-3.55-.03,1.27.3,2.22,1.2,3.05.43.4,1.64.6.65,1.81-.23.29.75,1.57.85,2.61-.64-1.07-1.29-2.13-2.02-3.33-1.07,2.31,1.29,3.2,1.52,4.98-.53-.63-1.07-1.25-1.71-2-.16,1.07.57,1.64.79,2.39.17.55.88,1.12.27,1.64-.53.45-1.44.9-2,.51-1.89-1.34-2.91.31-4.34.96,1.22.86,2.56.57,4.2.86-1.26.49-2.26.56-2.94.21-2.28-1.15-4.14.19-6.46.68,2.04,1.2,4.06.59,5.95.89-1.09.74-4.37.6-6.13-.23-.16-.06-.29-.17-.42-.28-.4-.31-.9-.4-1.17.02-.26.43.29.67.56.88,1.14.88,2.51,1.16,3.86,1.49.24.06.47.14.65.36-1.9,0-3.78-.31-5.09-1.74-1-1.1-2.01-1.09-3.47-.86,1.54,1.37,3.4,1.73,4.87,2.78-2.13-.47-4.08-1.35-6.1-2.97.51,2.66,2.82,2.88,4.06,4.18-2.06-.67-3.95-1.54-4.72-3.76-1.59.29-1.5,2.43-3.09,2.5-.02.73.88.61.78,1.55-1.26-1.59-2.68-.53-3.98-.41-.95.08-1.64-.03-2.32-.61-.16-.15-.33-.31-.54-.39-.66-.28-1.49-1.1-2.02-.38-.6.81.49,1.27.98,1.82.31.34.95.42.88,1.25-1.39-.8-2.6-1.79-3.29-3.02-.72-1.28-1.83-1.47-2.86-1.47-.65,0-1.15-.24-1.84-.53.31,1.37,1.15,2.19,1.74,3.17-.9-.36-1.54-1.04-1.81-1.89-.5-1.52-1.58-1.98-3.02-2.01-.11.73.86,1.03.54,2.19-1.45-3.44-4.57-3.71-7.09-5.03-.13.19-.28.38-.43.57.53.29,1.05.58,1.57.87-1.03.45-1.34-.22-1.79-.58-1.01-.78-1.09-.8-2.17-.09-.35.23-.51,0-.63-.22-.77-1.35-2.19-1.54-3.59-2.13.01,1.09,1.05,1.39,1.26,2.39-.95-.41-1.44-1.12-1.86-1.81-1.02-1.67-2.3-2.76-4.43-2.53-.26.04-.62-.41-.85-.7-.64-.8-1.42-1.4-2.43-1.76-.36.77.6,1.24.39,2.36-1.2-1.84-1.62-4.08-4.07-4.25-.19.85.87,1.47.85,2.65-.93-.76-1.15-1.73-1.53-2.54-.66-1.37-1.49-2.12-3.13-1.52-1.1.41-2.19.07-3.21-.48-.53-.29-1.08-.51-1.69-.78-.26.83.78,1.15.53,2.06-1.62-1.64-2.3-4.13-5-4.64.52.88.97,1.65,1.42,2.41-.09.07-.18.15-.28.22-.39-.52-.79-1.02-1.16-1.56-.41-.6-.74-1.25-1.19-1.82-.45-.58-1.17-.83-1.98-1.19.23,1.75,1.42,2.97,1.96,4.48-1.07-.87-1.86-2.03-2.17-3.3-.47-1.93-1.92-2.48-3.78-3.29.73,1.53,1.3,2.74,1.88,3.95-1.95-1.6-1.82-5.11-5.37-5.26.57.79,1.08,1.49,1.74,2.4-1.22-.27-1.44-1.34-2.52-2.12.62,1.71,1.69,2.66,2.43,3.79-.58.33-.73-.09-.86-.31-1.09-1.96-2.9-3.12-4.87-3.83-1.94-.68-3.64-1.8-5.56-2.51-1.18-.44-2.6-.05-3.59-1.42-.15,1.21.71,1.91.31,3.02-.48-3.84-3.54-4.25-6.36-5.19,0,1.02,1.03,1.35,1.16,2.08-.16.33-.35.19-.41.09-1.16-2.28-3.57-3.22-5.26-4.93-1.08-1.09-1.27-.98-2.16.29-.36.53-.7.19-.9-.31-.57-1.44-1.71-2.23-3.3-2.95.51,1.47,1.64,2.16,2.18,3.26-1.63-.87-2.45-2.5-3.43-3.91-.93.55.23.93-.19,1.4-1.12-.35-.99-2.19-2.55-2.16.21,3.61,1.07,7.1,1.64,10.64.56,3.37,2.49,5.44,5.19,7.11,1.66,1.02,3.12,2.57,4.85,3.22,2.7,1.05,5.46,2.23,8.49,2.13,2.15-.07,4.23-.27,6.37.76,1.48.7,3.42.23,5.13.06,1.82-.19,3.63-.51,5.6-.79-1.35,2.45-3.65,3.37-6.06,3.41-5.61.1-11.26.65-16.83-.49-3.51-.71-6.29-2.73-9-4.89-.42-.33-.71-.87-1.57-.91.87,3.79,1.67,7.53,2.59,11.24,2.32,9.35,5.16,18.53,8.53,27.56.92,2.49,2.38,4.01,4.64,4.94.92.38.88,1.26,1.42,1.83,12.04,12.61,25.27,23.93,37.8,36.01.48.45,1.02.85,1.54,1.27l-.05-.05s0,0,0,0c.01,0,.03.01.04.01,0,.01,0,.03.01.04,2.57,2.75,5.5,5.11,8.25,7.66,3.72,3.46,7.67,6.65,11.12,10.39,1.45,1.58,2.69,3.29,3.19,5.41.16.64.64.86,1.05,1.22,5.04,4.63,11.02,7.96,16.55,11.89,3.64,2.58,7.28,5.13,11.38,6.97,1.65.76,2.65,2.14,3.68,3.69,1.29,1.93,3.2,3.53,5.07,4.98,2.72,2.11,5.54,4.11,8.91,5.17,1.2.38,2.02,1.27,2.82,2.25,1.51,1.88,3.67,3.03,5.56,4.48,2.68,2.04,5.29,4.3,8.69,5.19.42.1.77.43.6.86-.58,1.44.53,1.6,1.42,2.03,4.28,2.04,8.1,4.69,10.85,8.66,1,1.44,1.64,3.03,1.79,4.79.04.48.23,1.14-.31,1.37-.55.24-1.02-.23-1.45-.59-.13-.11-.23-.24-.32-.39-2.65-4.28-6.55-7.04-11.12-8.94-1.24-.52-2.26-1.49-3.42-2.04-5.18-2.46-8.3-7.56-13.31-10.22-.2-.11-.36-.32-.55-.36-5.39-1.22-8.54-5.61-12.55-8.79-1.47-1.17-2.8-2.53-4.27-3.84-.43.97.79,1.54.32,2.45-.17-.21-.36-.36-.42-.55-.47-1.33-1.09-2.11-2.81-2.16-1.99-.05-3.54-1.52-4.89-2.96-2.08-2.23-4.45-4.1-6.99-5.95-.2.92.83,1.37.43,2.24-.16-.2-.38-.33-.43-.51-.76-2.67-3.01-3.94-5.01-5.49-4.3-3.36-9.04-6.11-13.11-9.87-.38.96.61,1.53.61,2.35-.16,0-.28.04-.31,0-.85-1.11-1.79-1.8-3.29-2.52-1.19-.57-2.14-1.49-2.83-2.55-4.59-7.13-10.99-12.57-17.11-18.26-5.52-5.12-11.19-10.05-16.81-15.08-.56.7.44,1.41-.36,2.31-.28-4.1-3.51-5.86-5.89-8.23-3.37-3.34-6.92-6.49-10.28-9.83-3.81-3.78-8.03-7.05-12.39-10.4,0,1.42,1.02,2.31,1.57,3.86-1.51-1.11-1.71-2.65-2.59-3.97-.3,1.59.15,2.92.17,4.28-.75-1.09-.75-2.35-.89-3.59-.09-.78.16-2.05-.85-2.05-.92,0-.65,1.29-.83,2.03-.09.36.14.76-.16,1.07-.07,0-.12-.01-.18-.02.4-2.4-.69-4.25-1.9-6.23-.97-1.62-.33-3.73-.57-5.6-1.05-8.48-3.25-16.7-5.4-24.93-.41-1.56-.8-3.12-1.32-4.7-.26.99-.33,2.03-1.1,2.86.14-.95.11-1.99.49-2.83.5-1.07.29-2.01.04-3.02-.95-3.79-1.66-7.61-2.27-11.46-.09-.61-.11-1.25-.61-1.68-5.16-4.36-8.81-10.06-13.33-14.99-3.48-3.8-6.61-7.83-8.74-12.57-.6-1.35-1.27-1.39-2.45-.38-.29.24-.63.43-.97.65.42.68.83,1.33,1.23,1.97-2.55-3.39-5.97-5.66-9.7-7.71-.23.94.51,1.64.39,2.58-.76-2.56-2.28-4.23-4.92-4.69-.36.7.19,1.48-.11,2.55-.52-1.22-.67-2.21-.63-3.14-.72-.09-.76.34-.9.6-3.64,6.64-6.99,13.43-9.97,20.39-1.05,2.45-2.03,4.97-1.24,7.75.19.65-.01,1.31-.4,1.91-2.21,3.44-7.73,3.57-9.95.19-.89-1.34-2.39-1.21-3.63-1.71-.47-.19-.48.52-.62.83-.62,1.5-1.31,2.95-2.35,4.21-3.64,4.34-9.87,3.27-11.74-2.06-.39-1.11-.97-1.91-1.83-2.67-2.31-2.04-4.31-4.36-5.98-6.95-1.04-1.6-1.86-3.29-2.04-5.34-1.08.62-2.12,1.13-3.05,1.79-1.02.72-.65,1.85-.43,2.77.31,1.29.87,2.53,1.34,3.78.43,1.1.63,2.24.55,3.43-.06.91-.42,1.87-1.28,1.94-1.45.12-1.67,1.13-2.16,2.11-.92,1.83-2.13,3.42-4.16,4.13-2.11.74-3.98-.32-4.43-2.49-.22-1.05-.21-2.09-.11-3.16.19-2.04.28-1.66-1.64-2.36-.29,2.36.22,4.69,0,6.99-.67-2.15-.56-4.35-.61-6.55-.01-.42.36-1.12-.41-1.21-.55-.07-.8.48-1.05.93-.49.9-.05,1.75.12,2.6.12.59.34,1.15.51,1.74-.69.2-.51-.7-1.09-.65.16,1.34.33,2.69.49,4.04-1.5-3.18-.67-6.56-.97-10.18-1.67,2.36-.35,4.83-1.19,7.15-.83-1.8-.16-3.76-.94-5.59-.61,1.19-1.22,2.38-1.83,3.58-.16-.05-.32-.11-.48-.16,1.84-3,3.03-6.15,2.3-9.74-1.56,2.23-1.45,4.93-2.01,7.44-.26-3.47-.3-6.91.72-10.49-1.22.28-1.74.96-1.83,1.83-.11,1.04-1.33,1.08-1.42,2.32-.81-1.35-.58-2.4-.39-3.49.34-2.11,1.43-4.12.98-6.34,0,0,0,0,0,0-1.09,2.77-2.01,5.61-2.84,8.8-.35-4.05.48-7.63,2.03-11.41-1.31,1.09-1.85,2.24-2.35,3.41-.14.31-.22.68-.67.55-.59-.15-.38-.59-.26-.94.68-1.83,1.25-3.69,2.52-5.24.87-1.06.86-1.07.32-2.51-.65.31-.49,1.13-.86,1.65-.68-.47.09-1-.26-1.44-.97.89-1.03,2.26-1.86,3.41-.25-1.15.54-1.89.66-3.24-3.26,5.27-6.6,9.91-10.05,14.49-.38.52-.31,1.05-.28,1.59.11,1.76.23,3.5.21,5.27-.92-1.65-.38-3.53-.74-5.21-.35-.21-.48.01-.61.18-4.15,5.52-8.49,10.9-12.47,16.56-1.12,1.6-2.06,3.17-1.71,5.46-.77-.56-.43-1.18-.7-1.73-1.15.85-1.88,2.03-2.56,3.18-4.37,7.35-9.85,13.92-14.6,21-.9,1.34-2.07,2.33-3.64,2.8-2.39.7-4.33,2.54-6.92,2.67,0,.92.58,1.59.89,2.7-.97-.6-1.1-1.36-1.34-2.02-.14-.39-.24-.75-.72-.78-.53-.04-.55.4-.73.75-.28.59-.18,1.34-.74,1.84-.51-.65.21-1.25.06-2.03-4.35,3.05-8.93,5.53-13.33,8.3-3.05,1.93-6.21,3.72-9.31,5.59-1.22.73-2.7,1.17-2.75,3.04-.02.62-.46,1.22-.83,2.13-.37-1.48.6-2.29.8-3.53-1.75.97-3.37,1.86-4.99,2.76-3.21,1.79-6.43,3.57-9.63,5.37-1.65.93-3.39,1.76-4.87,2.91-1.43,1.12-3.11,1.82-4.53,2.95-1.48,1.18-3.02,2.28-4.51,3.47-1.24.98-2.48,1.91-4.21,1.57-.29-.06-.56-.06-.78.16-3.05,3-7.15,4.25-10.75,6.33-2.57,1.48-5.27,2.76-7.19,5.16-.52.65-1.24,1.31-2.12,1.18-1.53-.23-2.42.68-3.49,1.47-1.39,1.03-2.88,1.91-4.36,2.8-1.35.82-2.55,1.78-3.5,3.06-.84,1.14-1.89,1.88-3.4,1.71-.32-.03-.66-.13-.95.16-2.4,2.37-5.64,3.59-8.12,5.85-1.24,1.14-2.48,2.26-3.31,3.74-.22.38-.43.94-.89.93-1.77-.01-2.03,1.46-2.62,2.56-1.28,2.38-1.81,5.01-2.43,7.6-.28,1.08-.51,2.18-.85,3.24-.19.61-.19,1.58-.8,1.69-.8.13-1.35-.71-1.79-1.33-1.81-2.51-1.38-5.29-.83-8.05.31-1.52.99-2.94,1.74-4.32,3.28-6.07,8-10.63,14.13-13.77.86-.44,1.94-.7,2-2.03.01-.26.51-.65.85-.73,1.83-.43,2.79-2.49,4.92-2.45.65,0,1.38-.71,1.96-1.22,2.24-2.01,5.08-3.27,6.9-5.86,1.06-1.51,3-2.06,4.69-2.8.9-.39,1.81-.76,2.84-1.19-.79-.36-1.59-.18-2.17-.83,1.26.38,2.51-.41,3.77.16.2.09.54-.05.79-.14,3.44-1.29,6.9-2.55,9.95-4.66,1.24-.85,2.45-1.71,3.24-3.09.56-.93,1.57-1.4,2.54-1.84,2.74-1.27,5.25-2.93,7.88-4.38.8-.43.77-.79.05-1.48,1.62.32,2.83-.13,4.07-.7,14.05-6.37,26.94-14.56,38.81-24.38,1.74-1.44,3.61-2.67,5.73-3.54-.06-.15-.12-.29-.19-.44-1.01.14-2.02.26-3.28.42.83-.99,1.83-.57,2.7-.95-1.29-.79-2.82-.37-4.43-1.12,1.64-.19,2.86.12,4.08.31.78.11,1.42.09,1.9-.8.79-1.44,2.21-2.17,3.73-2.66,3.52-1.15,6.23-3.35,8.46-6.25,5.59-7.25,10.99-14.62,16.34-22.03.1-.14.16-.28.46-.83-1.46.85-2.6,1.52-3.72,2.18.86-1.28,2.13-1.94,3.39-2.58.94-.47,1.59-1.12,2.21-1.93,4.14-5.54,8.32-11.04,12.49-16.57.28-.38.73-.68.77-1.27-.69-.16-1.13.74-1.88.41.11-.15.16-.35.27-.38,2.79-.85,4.2-3.15,5.75-5.31,1.79-2.5,3.62-4.95,5.42-7.43.56-.77,1.07-1.56,1.31-2.5.11-.44.57-1.02-.39-1.05-.55-.02-1.33-.39-1.39.62-.06.95-.01,1.89-.17,2.87-.65-.72-.62-1.66-.42-2.46.31-1.23-.09-1.76-1.35-1.88-.3,1.48-.08,2.97-.28,4.47-.82-1.24-.2-2.7-.57-4.15-1.17,1.26-.85,2.67-.59,4.26-1-1.38-.95-2.88-.03-4.54.22-.38.86-.79.15-1.24-.69-.44-.83.33-1.07.66-.95,1.27-1.02,2.85-1.43,4.32-.34-1.71.15-3.24,1.03-4.71.22-.36.87-.73.15-1.24-.56-.4-1.12-.81-1.74-.1-.6.7-1.19,1.42-2.03,2.42.27-1.59,1.25-2.28,2.26-3.5-2.47.04-4.56-.51-6.68.17-.82.26-1.38.79-1.45,1.66-.09,1.02.91.81,1.44,1.04,1.18.5,2.38.93,3.32,2.57-1.39-.93-2.33-1.77-3.53-2.08-.35-.09-.8-.42-1.04.03-.23.48.11.86.54,1.07,1.15.55,2.33,1.01,3.4,2.19-1.36-.19-2.05-1.29-3.14-1.4-.41.47-.14.91.09,1.24.74,1.05,1.06,2.18.77,3.45-.12.53.14.86.63,1.19.93.65,1.74,1.49,2.16,2.69-.87-.82-1.74-1.63-2.61-2.45-.12.09-.24.17-.37.25.87,1.35,2.6,2.3,2.27,4.46-.67-.95-.63-2.05-1.39-2.67-.31-.25-.55-.85-1.04-.53-.51.33-.12.78.09,1.16.77,1.42,1.28,2.89,1.03,4.54-.67-1.43-.49-3.19-1.9-4.4.97,2.4.2,4.67-.26,6.97-.41-1.45.28-2.87.11-4.31-.07-.58.23-1.46-.48-1.61-.66-.13-.86.69-1.09,1.27-2.92,7.57-11.55,11.06-18.95,7.68-1.92-.87-2.5-.46-2.37,1.69.13,2.23,1.29,4.09,2.3,6.1-1.47-.88-2.57-3.55-3.04-7.43-2.38,1.45-2.11,3.56-1.61,6.01-1.12-1.21-.89-2.41-1.07-3.54-.9,1.76-.73,3.69-.88,5.59-.58-2.17-.33-4.3.42-6.72-2.41,2.42-2.79,5.32-3.58,8.06-.06-2.56.76-4.87,1.79-7.15-2.54,1.83-3.29,4.77-4.58,7.38.16-2.35,1.44-4.27,2.57-6.43-1.16.21-2.19.41-2.85,1.38-.61.89-1.16,1.8-1.74,2.71-.13-.06-.24-.14-.37-.21.43-.78.86-1.57,1.38-2.51-2.88.5-3.07,3.05-4.25,4.99-.32-.86.14-1.39.36-1.95.21-.55.5-1.06.93-1.96-2.02,1.02-3.7,1.84-5.35,2.73-7.88,4.21-16.46,6.3-25.05,8.52-10.17,2.63-20.56,3.84-30.87,5.63-5.6.97-11.16,2.21-16.78,2.87-6.84.8-13.55,1.98-20.08,4.15-1.48.5-3.25.48-3.82,2.43-.11.36-.72.68-.96.51-1.24-.93-1.91.28-2.8.64-2.44.98-4.82,1.34-7.11-.44-.74-.57-1.6-.97-2.49-1.5,1.71-1.47,3.32-2.92,5.01-4.27.69-.54,1.52-.96,2.35-1.25,7.63-2.62,15.43-4.73,23.39-5.86,5.49-.78,11.07-1.09,16.58-1.93,9.8-1.51,19.56-3.3,29.39-4.49,9.05-1.1,17.17-4.95,25.69-7.64.26-.08.48-.26.87-.46-1-.41-2.04-.4-2.7-1.25-.8-1.02-.23-1.84.39-2.63-.79-.33-1.62.87-2.01.08-.43-.88.23-1.83.93-2.51,1.41-1.37,3.2-2.01,5.02-2.53,3.52-1,7-2.3,10.89-1.38-.46-1.37-1.01-2.5-.97-3.83.04-1.73.48-3.19,2.03-4.15.33-.21.73-.39.64-.87-.09-.46-.48-.58-.9-.58-1,0-.79-.54-.45-1.07.29-.46.68-.88.98-1.34.59-.91.61-1.74-.3-2.52-.83-.71-1.52-.85-2.48-.09-1.7,1.35-2.64,3.13-3.44,5.04-.27.66-.32,1.41-.97,1.89.58-2.77,1.67-5.26,3.85-7.21-4.25-1.5-6.13-.85-12.41,4.25.24-.92.61-1.39,2.41-2.8,1-.78,2.06-1.49,3.11-2.24-5.96-2.72-9.83-2.5-16.68,1,.64-1.18,1.83-1.81,6.75-3.47-3.19-.74-5.99-1.71-8.84-1.98-2.9-.27-5.71,1.18-8.65,1.37,1.96-1.04,4.23-1,6.63-1.93-3.62-.93-6.93-1.64-10.15-2.65-3.23-1.02-6.23-.38-9.25.72-.41.16-.83.33-1.25.48-.08.03-.2-.05-.55-.14,2.19-1.23,4.3-2.03,6.97-1.96-4.47-1.9-8.72-2.62-13.33-2.02-6.3.83-12.66,1.15-19,1.64-4.5.36-8.97.89-13.28,2.36-3.35,1.15-7.07.58-10.32,2.3.3-.83,1.07-.85,1.68-1.07.62-.23,1.27-.4,1.93-.6-.42-.62-1-.37-1.53-.43-4.13-.41-8.22.19-12.33.49-1.89.14-3.73-.03-5.61-.58-1.97-.59-4.1-.32-6.15-.3-6.12.07-12.25.47-18.34.13-3.12-.17-6.17.35-9.25.09-.88-.07-1.77-.04-2.65-.26-2.09-.5-3.5-2.77-2.92-4.82.04-.17.25-.36.42-.43.34-.15.45.18.62.38,2.23,2.66,6.78,3.11,9.77.99.57-.41,1.29-.42,1.94-.41,1.5,0,3.01.21,4.51.14,1.8-.06,3.66.9,5.42-.51.46-.37,1.53-.11,2.28.02,4.72.89,9.48,1.1,14.28.97,1.42-.04,2.85.44,4.28.68,1.1.19,2.21.21,3.4.08-.07-.83-1.18-.87-1.22-1.98,3.47,3.41,7.32.88,11.43,1.44-1.17-1.3-2.57-1.33-3.32-2.28.35-.41.57-.11.76.01,1.44.85,2.77,1.41,4.6.68,2.38-.96,4.97.06,7.47-.13.93-.07,1.88.12,2.92-.38-.44-.3-.76-.53-1.12-.77.13-.13.24-.28.26-.27,3.11,1.99,6.4.75,9.59.42,4.38-.48,8.76-.95,13.15-1.32.61-.05,1.2-.19,2.09-.35-5.17-2.51-10.29-3.24-15.68-2.47,2.1-1.17,4.35-.71,6.59-.76-5.75-2.01-11.21-5.16-17.71-3.92,1.82-.88,3.71-.92,5.74-.8-2.82-1.36-5.67-2.7-8.47-4.11-3.07-1.54-6.21-.44-9.35-.38,1.86-.93,3.88-.85,6.23-.95-5.02-2.92-9.7-5.72-15.63-4.19.76-.8,1.67-.74,2.56-.76.86-.01,1.74,0,2.64-.14-3.15-1.8-5.04-4.72-6.75-6.63,1.48.91,4.18,1.16,5.8,3.05-.25-1.87-.74-3.59-.46-5.52.69.61.48,1.35.51,1.98.11,2.67,1.04,4.62,3.78,5.64,2.36.87,4.57,2.15,7.14,3.39-.61-1.73-1.24-3.13-1.53-5.03.97,1.05,1.01,2.06,1.29,2.94.58,1.74,1.55,2.97,3.3,3.71,2.86,1.22,5.65,2.56,8.92,3.74-1.29-2.01-2.85-3.49-2.97-5.74.77,2.03,2.13,3.66,3.41,5.33.23.31.43.75.75.87,2.88,1.12,5.77,2.18,9.02,3.41-.85-1.73-1.98-2.78-2.18-4.36.87,1.22,1.71,2.45,2.6,3.66.33.45.7.99,1.16,1.17,3.82,1.48,7.66,2.88,11.92,4.47-1.7-2.57-3.89-4.18-4.53-6.82,1.34,2.4,3.34,4.28,5.02,6.41,1.26,1.61,5.87,2.37,7.63,1.35.54-.31.28-.6.14-.95-.26-.69-.77-1.3-.8-2.11.37,0,.47.19.58.39,1.34,2.48,1.32,2.35,4.2,2.01,4.21-.48,8.44-.75,12.65-1.16,1.91-.19,3.81-.49,5.75-.91-1.64-.81-3.76-.25-5.3-2.13,1.61.53,2.87,1.39,4.45.97-.67-.66-1.76-.55-2.29-1.33.33-.33.57-.09.79.02,1.25.59,2.33.97,3.52-.34.85-.95,2.34-.94,3.57-1.4-1.02-1.85-2.92-2.02-4.64-2.6-1.81-.61-3.69-.74-5.54-1.05,2.23-.56,4.33.15,6.51.67-2.37-2.16-4.31-4.63-6.41-6.97-.48-.54-1.22-.51-1.85-.66-2.18-.53-4.43-.85-6.47-1.97,2.33.51,4.66,1.03,7.48,1.64-.9-1.02-1.52-1.73-2.16-2.43-1.1-1.26-2.38-2.4-3.29-3.79-1.86-2.81-4.57-3.68-7.71-3.85-.5-.02-1.13.2-1.55-.55,1.95-.16,3.75.52,5.95.55-1.8-2.26-3.41-4.28-5.04-6.31-.41-.53-1-.39-1.55-.38-1.95.04-3.86-.26-5.74-.81,2.02-.2,4.03.53,6.33.06-2.01-2.05-3.37-4.37-5.17-6.29-4.37-4.68-7.87-9.99-11.25-15.35-1.83-2.9-4.18-4.68-7.49-5.29-.19-.03-.38-.13-.86-.32,2.07-.36,3.48.65,5.44,1.37-1.37-2.11-2.53-3.89-3.69-5.67-1.69-2.6-3.66-5.09-4.18-8.28-.15-.97-.67-2.49.18-2.73.96-.29,1.29,1.24,1.63,2.15.58,1.52,1.39,2.9,2.5,4.48.22-1.47.41-2.7.64-4.19.53.64.31,1.12.23,1.56-.43,2.31.1,4.37,1.47,6.28,1.38,1.94,2.61,3.98,4.02,5.93-.28-2.11-.26-4.18.04-6.33-.32,5.62,1.51,10.35,5.81,14.33-.4-1.22-.36-2.34-.41-3.44-.06-1.09,0-2.19.26-3.38-.98,6.68,2.74,11.17,7.16,15.59,0-2.47-.4-4.82.37-7.22-1.3,6.5,1.66,11.19,6.38,15.35-.62-3.59-.07-6.97.57-10.36.38,1.18.12,2.38-.09,3.51-.9,4.75.24,8.79,3.71,12.19,1.14,1.12,2.13,2.38,3.32,3.53-.62-3.27-1.08-6.5-.51-9.9-.59,7.59,2.18,13.6,8.27,18.14-.4-3.02-.68-6.05.3-9.02-.07,2.55-.41,5.08.04,7.64.28,1.59.8,2.92,1.97,4.1,1.57,1.57,2.93,3.34,4.39,5.04.23-.18.47-.36.71-.53-.61-2.28-.7-4.58-.36-6.93.12,1.34.24,2.7.36,4.03.2,2.17.83,4.15,2.58,5.6.45.38.77,1.33,1.6.78.95-.63,2.35-.82,2.45-2.43.08-1.22-.2-2.53.61-3.83.34,1.43-.38,2.67.04,4.34,8.03-9.63,18.34-16.42,26.78-25.62-1.62-.01-2.65,1.02-4.08.79,1.62-.67,3.24-1.36,4.86-2,.35-.14.73-.15,1.05-.43,3.34-2.95,6.91-5.65,9.73-9.17,1.11-1.38,2.37-2.68,3.67-3.89,6.54-6.02,12.2-12.85,18.59-19.43-1.32.28-2.38.35-3.48.21.09-.21.12-.38.15-.38,2.69.06,4.76-.98,6.78-2.82,2.63-2.38,4.84-5.29,8.12-6.93.26-1.76,1.46-.28,2.17-.6,1.07-.46,2.18.03,3.4.43-.18-1.22-.93-2.25-.45-3.56-.06,2.9,1.96,3.63,4.1,4.14q.31-3.18,1.47-4.37c-1.63,3.89-.49,7.54-.09,11.21.78,7.14,1.52,14.29,2.18,21.45.13,1.32.43,1.45,1.68,1.06,2.05-.66,3.82-1.78,5.63-2.85.65-.38,1.32-.72,2.37-1.29-.61,1.17-1.53,1.19-2.16,2.05,1.67-.46,3.09-1.01,4.56-1.19,1.71-.21,2.53-1.63,3.83-2.55.21.9-.71.93-.76,1.48,1.74.32,1.83.26,2.58-1.28.6-1.23,1.3-2.4,2.65-3.56-.28,1.2-1.01,1.69-1.41,2.38-.38.68-.84,1.3-.98,2.18,2.16-.04,4.22-.11,5.56-2.2.14-.23.58-1.39,1.04-.06.09.24.53-.21.73-.46.41-.54.81-1.09,1.54-1.37-.58.9-1.16,1.81-1.71,2.73-.43.7-.33,1.1.6,1.19.82.07,1.62.29,2.43.45.59-4.37.75-4.72,2.31-5.38-1.61,2.23-1.82,3-1.41,5.58,1.95-3.02,4.13-5.55,6.97-7.49-2.28,2.41-4.75,4.65-6.15,7.81,2.16-2.72,4.5-5.22,7.68-6.78-.74.63-1.47,1.27-2.21,1.92.04.07.09.14.13.21.45-.19.93-.37,1.38-.56-1.36,1.38-3.11,2.25-4.21,4.08,3.86-.16,5.05-4.04,8.08-5.21-2.33,2.52-5.25,4.51-6.84,7.78,3.05-2.26,5.8-4.97,9.74-6.22-.32.79-.92.83-1.33,1.03-2.49,1.2-4.68,2.82-6.63,4.75-.2.2-.65.41-.23.79.24.22.51.09.75-.1,3.39-2.6,7.19-4.43,11.16-5.98.61-.23.8-.73,1.03-1.22,3.15-6.71,6.38-13.36,9.98-19.84.81-1.46,1.39-3.02,1.76-4.67.36-1.7.73-3.41,2.64-4.15.53-.2.36-.74.44-1.16.22-1.13.24-2.33,1.3-3.57-.28,1.36-.52,2.38-.7,3.4-.1.56-.09,1.02.69,1.25.72.21.99-.04,1.29-.59.4-.69.83-1.4,2.03-1.82-.71.94-1.21,1.56-1.66,2.22-.17.25-.42.59-.04.87.28.21.52-.04.75-.16,1.09-.55,2.01-1.59,3.48-1.29-.35.57-.95.43-1.36.67-.68.39-1.51.68-1.96,1.25-.51.68.48,1.22.63,1.89.81,3.79,1.66,7.59,2.5,11.38.11.54.24,1.07.43,1.88,1.09-2,1.69-3.89,1.94-5.91.26-2.08.53-4.11,2.97-4.95.78-.27.73-1.32,1-2.02.23-.59.35-1.23.65-1.82.33,1.34-.55,2.52-.42,3.9,1.27-1.3,1.84-3.07,3.42-4.66-.4,1.74-1.67,2.58-1.9,3.95,2.03.46,3.1-1.56,4.94-1.56-.85.55-1.69,1.09-2.71,1.75,3.47,1.57,6.1,4.03,8.43,6.75,8.48,9.9,17.93,18.83,27.75,27.35,11.48,9.95,22.16,20.71,32.59,31.74,2.67,2.84,5.59,5.44,8.6,7.95,1.19.99,2.4,2.04,3.36,3.26,2.59,3.29,6.01,5.4,9.66,7.29.68.35,1.16.15,1.71-.11,1.8-.8,3.6-1.61,5.46-2.3-1.65,1.5-3.81,2.04-5.7,3.17,2.71.06,5-1.47,7.56-2.04-1.1,1.05-2.64,1.18-4.14,2.17,6.08-.66,11.88-.71,17.56-2.13,8.21-2.03,16.43-4.19,24.85-5.08,17.59-1.86,34.74-6.13,52.12-9.2,6.24-1.12,12.42-2.69,18.38-4.83,2.32-.83,5-.05,7.03-1.86,1.84-1.64,4.04-2.78,6.2-3.92,14.61-7.66,28.84-15.98,43.07-24.31,4.38-2.56,8.37-5.65,12.36-8.74,1.23-.95,2.68-1.64,4.04-2.42,8.83-5.05,17.09-10.91,25.1-17.15,1.88-1.47,3.68-3.08,5.88-4.11.24-.11.49-.31.61-.54,1.22-2.36,3.32-3.87,5.26-5.54.51-.43,1.08-.83,1.47-1.35,3-3.96,6.58-7.36,10.1-10.82,4.32-4.23,8.09-8.91,11.75-13.95.65,1.71.2,3.16-.41,4.57-1.42,3.27-3.87,5.83-5.98,8.64-.5.66-1.06,1.28-1.64,1.89-1.22,1.3-2.62,2.38-2.83,4.45-.13,1.37-1.35,2.41-2.38,3.36-3.19,2.95-6.41,5.87-9.68,8.74-1.58,1.4-3.5,2.28-4.69,4.28-1,1.68-3.03,2.58-4.73,3.64-6.28,3.94-12.37,8.17-18.53,12.3-2.96,1.99-5.28,4.62-7.54,7.32-1.09,1.29-2.22,2.5-3.99,2.97,1.5.46,3.05-.3,4.55.43-1.44.12-2.88.22-4.31.36-.48.04-.95.06-1.42.37-10.6,6.9-21.58,13.14-32.97,18.68-6.21,3.02-12.23,6.42-18.12,10.05-1.14.7-2.2,1.5-3.19,2.41-1.56,1.42-3.09,2.88-5.25,4,1.47.07,2.7-.43,4.27.04-1.59.65-3.04.1-4.42.71,1.33,1.25,2.99,1.39,4.4,2.06-1.18.28-2.26-.15-3.19-.69-1.12-.65-2.11-.77-3.39-.44-2.43.64-5,.35-7.49.58-4.68.42-9.19,1.7-13.78,2.6-11.26,2.21-22.59,3.96-33.89,5.87-10.37,1.75-20.6,4.29-30.94,6.18-8.67,1.58-17.1,4.07-25.67,5.99-4.19.94-8.45,1.43-13.08.48,1.6,2,3.75,2.25,5.58,3.09-1.96-.07-3.72-.72-5.28-1.89-.38-.28-.64-.72-1.29-.56-1.68.41-3.03-.34-4.26-1.4-1.48-1.28-2.87-2.65-4.08-4.18-4.39-5.51-9.16-10.69-14.35-15.42-6.9-6.28-12.92-13.41-20.04-19.46-5.18-4.41-10.74-8.43-15.41-13.37-7.31-7.71-15.47-14.48-23.3-21.61-2.53-2.3-5.34-4.2-8.15-6.14-.8-.55-1.12-.34-1.71.3-1.93,2.11-2.82,4.77-4.18,7.19-1.95,3.47-2.31,6.93-1.68,10.84,1.23,7.64,2.06,15.35,3,23.03.1.87.44,1.27,1.21,1.49.43.12.85.26,1.25.45,1.56.75,2.91.63,4.67.06,2.34-.74,3.44-2.12,4.46-4.11,1.44-2.8,4.35-3.6,7.22-2.33,3.42,1.52,6.34,3.73,8.98,6.33,6.97,6.84,14.81,12.72,21.73,19.63.38.38.86.72,1.36.95,9.83,4.64,19.1,10.33,28.62,15.54,8.99,4.91,18.14,9.52,27.86,12.86,8.25,2.84,15.71,7.14,22.81,12.08,2.52,1.76,4.65,1.94,7.61,1.16,19.13-5.05,37.52-12.29,56.26-18.51,10.85-3.61,21.52-7.6,31.48-13.27,1.17-.67,2.42-1.15,3.73-1.43.33-.07.68-.16.94-.33,10.23-7.16,21.03-13.43,31.09-20.83,8.13-5.98,16.33-11.86,24.33-18.01,1.12-.86,2.28-1.61,3.71-1.84.26-.04.56-.11.76-.27,6.14-4.73,13.05-8.3,19.3-12.87,3.92-2.86,7.69-5.91,11.64-8.73,5.17-3.7,9.42-8.35,13.71-12.96,1.93-2.08,4.03-3.98,5.97-6,2.52-2.63,5.24-5.15,7.46-8.1,1.91-2.53,3.98-4.94,5.93-7.74.65,2,.18,3.62-.65,5.12ZM136,115.87c1.97.18,3.66.9,5.53,1.17-.56-.72-1.26-1.27-1.9-1.87q-1.98-1.86-3.64.7Zm-18.91,4.17c-.75-1.99-2.03-1.45-3.27-.84,1.04.26,2.07.53,3.27.84Zm10.82,2.57c-.86-1.42-1.69-2.63-2-4.01-.2-.9-.54-.97-1.32-.89-1.93.23-3.86.37-5.8.57-.57.06-1.44-.24-1.61.44-.15.54.62.97,1.05,1.38.23.21.55.4.86.48,2.85.67,5.7,1.32,8.81,2.03Zm19.36,4.7c-1.19-1.29-2.16-2.34-3.36-3.64h5.02c-1.37-1.17-2.53-1.95-3.44-2.97-2.09-2.32-4.82-3.27-7.71-4-1.43-.36-2.77-.56-3.94.74-.48.52-1.2.97-1.93.88-1.32-.14-2.22.19-2.52,1.7-.41-.61-.1-.93-.02-1.29.08-.4.55-.76.11-1.22-.49-.51-.95-.16-1.34.08-.62.35-1.22.39-2.1-.18.37,1,.53,1.69.87,2.29.68,1.24,1.04,2.86,2.56,3.32,2.9.89,5.87,1.59,8.81,2.38-.87-1.36-2.09-2.31-2.63-3.93,2.58,4.43,6.99,4.95,11.6,5.83Zm6.74.3c.08-.42.02-.75-.36-1.02-2.42-1.67-4.94-2.95-8.06-2.22,1.64,3.18,4.28,4.03,7.49,3.66.35-.04.82.14.93-.43Zm10.06-13.5c.13-.42-.46-.49-.81-.6-1.19-.35-2.4-.62-3.66-.16,1.07.38,2.16.71,3.22,1.13.57.22,1.09.14,1.25-.38Zm48.49-43.98c1.72-.83,2.19-2.03,2.14-3.83-.19-7.19-1.11-14.35-.88-21.55,0-.22-.04-.44-.09-.66q-.43-2.3-2.55-1.55s-.14-.12-.23-.19c.28-.49.79-.59,1.25-.76.4-.15.75-.33.48-.84-.3-.56-.66-.21-.97-.04-1.19.66-2.13,1.61-3.05,2.59-8.17,8.7-16.76,16.99-25.21,25.42-1.02,1.04-1.8,2.1-1.86,3.59,0,.16-.09.3-.11.38-.62-.37-.19-1-.72-1.23-5.03,4.81-10.01,9.6-15.04,14.34-.82.77-1.39,1.56-1.29,2.72,0,.06-.13.15-.19.22-.55-.13-.12-.74-.64-.98-4.77,4.28-9.61,8.56-14.36,12.93-2.96,2.71-5.87,5.49-8.39,8.63-.29.36-1.02.78-.41,1.39,1.34,1.32,2.74,2.6,4.33,4.12-.36-5-.14-7.08.78-8.38-.63,9.05-.21,10.32,4.35,13.07-.29-3.27.23-6.31,1.79-9.48.22,1-.16,1.53-.35,2.08-.73,2.24-1.2,4.52-.88,6.9.1.73.23,1.48.84,1.93,2.55,1.96,5.09,3.93,8.62,3.62.7-.06,1.07-.13.7-.95-.41-.88-.44-1.84-.43-2.78.02-2.04.01-2.04-1.99-1.54-1.59.4-2.97,1.37-4.94,2.18.48-.52.6-.7.75-.8,1.77-1.07,3.59-2.06,5.73-2.1,1-.01,1.37-.75,1.37-1.37,0-.8-.85-.37-1.33-.41-.38-.03-.78.04-1.17.09-1.74.21-3.48.44-5.22.67-.01-.11-.04-.21-.06-.31,1.19-.28,2.38-.55,3.56-.83,0-.16-.01-.32-.02-.48h-6.23c.73-.8,1.25-.59,1.71-.6,2.85-.08,5.68.26,8.48.73,1.03.16,1.59-.03,1.94-.98-2.9-1.51-5.95-1.41-9.05-.93,3.34-1.42,6.71-2.33,10.29-.92.58.23,1.2.73,1.59-.3-1.58-1.36-3.65-1.98-5.29-3.31,1.9.59,3.64,1.5,5.27,2.62,1.37.93,2.57-.14,3.81-.33.4-.07.63-1.43.07-2.27,1.28.99,1.39,1,2.57,1.15.54.06,1.07-.08,1.35-.42.41-.48-.21-.87-.44-1.27-.34-.59-.77-1.12-1.16-1.68,1.12.4,1.57,1.34,2.11,2.21.78,1.24,1.64-.36,2.53.09.27.14.16-.78.07-1.25-.13-.69-.66-1.3-.42-2.11.68.42.76,1.18.83,1.76.19,1.45,1.12,1.82,2.34,2.06,1.41.28.26-1.34,1.12-1.44.31.44.14.89.11,1.32-.04.46.13.84.59.8.47-.04.26-.51.3-.8.14-.77-.46-1.49-.18-2.35,1.44,1.38-.18,3.95,2.01,4.95.9-1.16.53-2.74,1.21-3.96,1.09,1.93-1.97,4.01.56,6,.48-1.32,1.11-2.32,1.11-3.54,0-.35.1-.69.57-.58.4.11.23.39.18.67-.24,1.27-.46,2.55-.74,4.2,1.5-1.71,1.45-3.64,2.14-5.58.42,1.99-.5,3.41-.89,5.24,2.54-.9,4.98-1.31,7.25-2.39,1.07-.52,1.08-1.05.43-1.91-.48-.64-1.42-1.1-1.26-2.06.21-1.2-.52-1.5-1.37-1.91-3.29-1.54-5.35-4.1-6.09-7.67-.72-3.41.5-6.37,2.19-9.18.65-1.07,1.15-2.1,1.17-3.4.03-1.56.24-3.12,1.34-4.4-.3,1.65-.94,3.23-.83,5.35,2.97-4.06,7.49-6.28,8.94-11.19.13.1.27.21.41.31-.42.9-.83,1.81-1.25,2.72,3.49-2.57,7.95-3.79,9.81-8.2.11.11.21.21.32.31-.24.5-.48,1-.89,1.82,1.89-1.2,3.4-2.35,5.07-3.16Zm-.02,74.75c.31-.29.56-.69.24-1-.43-.44-.65.09-.86.38-.46.65-.92,1.33-1.17,2.38.73-.71,1.25-1.24,1.79-1.76Zm.93.75c-1.32,2.15-1.92,4.08-1.7,5.43-.21-1.96,2.71-2.85,1.7-5.43Zm1.12,3.66c.08-.43.42-.9.03-1.25-.53-.48-.76.46-1.26.37,1.02,1.06.47,2.26.28,3.41-.24,1.44-1.01,2.81-.78,4.5.71-.58.76-1.2.86-1.79.3-1.75.58-3.49.87-5.24Zm.63.49c-.63,1.45-.82,2.83-.82,4.37q2.13-1.34.82-4.37Zm1.39,4.37c-.41,1.35-.75,2.61-.65,3.97.35-1.26,2.41-2.25.65-3.97Zm1.53,3.54c-.45,1.11-.31,2.2-.23,3.49q1.87-1.48.23-3.49Zm40.28-98.58c-1.24.33-2.25.44-3.09,1.41,1.82,1.34,2.29-.05,3.09-1.41Zm5.57,1.79c1.12.46,5.85-1.98,7.24-3.79-2.8.97-5.07,2.18-7.24,3.79Zm.06,2.36c2.06-1.38,4.7-1.89,6.19-4.06-2.4.86-4.4,2.31-6.19,4.06Zm5.35-1.72c-1.31.6-2.33,1.05-3.32,1.53-.33.16-.87.33-.69.77.15.37.78.71,1.12.5,1.05-.67,2.55-.87,2.9-2.8Zm8.47,74.52c-.52-1.03-.92-2.12-1.5-3.48-.52.8-.92,1.39-1.27,2.01-2.4,4.21-3.47,9.02-5.93,13.21-.22.37-.14.99-.04,1.47.3,1.4.66,2.8,1.46,4.13.19-.26.38-.47.48-.7,2.18-5.22,4.3-10.47,6.8-15.56.18-.38.21-.65,0-1.07Zm-.83-3.84c.26,1.4.68,2.46,1.32,3.52q1.32-1.85-1.32-3.52Zm4.31-61.5c-1.19.07-2.42-.21-3.66.39.87,1.05,2.04,1.9,1.44,3.47-.21.54.36.59.67.75.5.25.72-.09.85-.47.41-1.15.78-2.31,1.19-3.44.19-.51.03-.73-.49-.7Zm1.61-5.04c-2.1.26-4.12.8-5.93,1.92-.87.53-.83,1.57-.89,2.4-.05.73.76.32.97.38,1.66-.1,3.09-.21,4.53-.25.54-.02.78-.26.95-.73.33-.94.71-1.86,1.08-2.79.28-.72.1-1.05-.73-.94Zm1.82-1.86c1.53-4.36,3.49-8.54,5.59-12.64.29-.55.45-1.09.34-1.75-.25-1.48-.34-2.98-.59-4.46-.37-2.21-.48-4.47-1.36-7.11-4.48,8.55-8.3,16.87-11.06,25.78,1.9.32,3.57-.58,5.3.14-1.99.94-4.82-.88-6.08,2.52,2.31-.45,4.24-.92,6.2-1.17.94-.12,1.37-.5,1.65-1.31Zm9.66,17.36c-1.39-6.55.31-13.06-1.75-19.49-2.4,5.24-4.23,10.48-5.74,15.84-.24.86.26.95.75,1.15,2.13.8,4.27,1.59,6.73,2.5Zm32.13,81.48c-.07-1.45-.48-2.8-.51-4.17-.06-2.43-1.09-4.38-2.67-6.09-.56-.61-1.23-1.12-1.87-1.65-.2-.16-.52-.34-.75-.11-.23.24-.3.57-.09.91.4.67.78,1.34,1.16,2.02-.11.16-.23.31-.35.47-.76-2.33-2.72-2.35-4.89-3.02,3.26,4.28,6.36,8.15,9.96,11.64Zm8.49-65.1c-4.41-3.8-8.79-7.58-12.44-12.12-.59-.73-1.42-1.26-2.35-1.53-.99-.29-2.04-.36-2.97-.05-.75.25-.38,1.29-.71,1.9-.11.19-.16.41-.25.62-.79,1.93-.33,3.14,1.55,3.96,1.27.55,2.56,1.08,3.84,1.61,4.44,1.87,8.89,3.74,13.33,5.61Zm118.77,89.88c-.26-.84-.41-1.7-1.05-2.35-1.62,1.58-.06,1.89,1.05,2.35Zm-6.5-15.78c.87.54.68-.53,1.2-.87.26,1.81,1.52.66,2.3.9-.74-.77-1.71-1.13-2.67-1.48-.35-.13-.95-.65-1.25.13-.2.52-.01,1.05.42,1.32ZM99.69,72.69c-1.68-2.41-6.66-3-10.25-1.46,3.51.06,6.94-1.19,10.25,1.46Zm-15.99-11.95c3.14.58,6.19,1.45,9.06,2.92-1.97-1.81-7.03-3.42-9.06-2.92Zm-8.48-15.79c1.8.57,3.6,1.14,5.4,1.71-1.57-1.26-3.44-1.61-5.4-1.71Zm277.79,175.04c-1.45-.87-2.88-1.82-4.69-2.02,1.5.8,2.99,1.6,4.5,2.4.06-.13.13-.25.19-.38Zm39.55,39.47c-.6-.27-.66,0-.49.47,1.44.23,2.56,1.44,4.13,1.3-1.18-.67-2.4-1.22-3.64-1.77Z"/>
  </g>
</svg>