<?xml version="1.0" encoding="UTF-8"?>
<svg id="Layer_2" data-name="Layer 2" xmlns="http://www.w3.org/2000/svg" viewBox="0 0 654.5 416.18">
  <defs>
    <style>
      .cls-1 {
        fill:#808080
      }
    </style>
  </defs>
  <g id="Layer_1-2" data-name="Layer 1">
    <path class="cls-1" d="m652.38,133.47c-7.66-23.88-35.29-32.5-55.98-41.12-11.78-4.87-23.68-9.41-36.19-12.24-16.17-3.72-33.05-4.69-49.64-4.03-14.69.59-29.25,1.91-43.85,4.03-17.21,2.5-33.59,6.36-49.78,12.86-15.34,6.23-30.15,13.79-45.59,19.84-2.17.86-22.85,7.64-22.03,11.06-1.41-5.56-1.93-7.43-7.03-10.31,2.37-4.15,4.31-8.99,3.25-13.83-.43-2.35-1.57-4.65-3.34-6.3-.44-.43-6.24-3.78-6.47-3.01,7.13-18.06,18.7-31.92,31.14-46.61,7.61-8.95,15.2-17.92,24.65-25.01,4.93-3.7,10.07-7.15,15.11-10.7,1.43-1.09,8.84-5.14,8.89-7.25.16-1.95-2.69-.12-4.2.51-5.26,2.4-10.36,5.79-15.06,9.04-11.14,7.68-21.07,16.61-29.55,27.13-10.62,13.18-21.19,26.16-29.62,40.96-.64,1.2-5.09,11.55-6.15,11.55h-7.34c-1.18,0-5.49-10.36-6.2-11.55-8.38-14.8-19.03-27.78-29.62-40.96-8.48-10.52-18.38-19.45-29.51-27.13-4.79-3.26-9.79-6.64-15.13-9.04-1.45-.63-4.26-2.46-4.14-.51,0,2.1,7.46,6.16,8.95,7.25,4.95,3.55,10.12,7,15.02,10.7,9.42,7.09,17.14,16.06,24.65,25.01,12.44,14.68,24.03,28.55,31.12,46.61-.25-.77-5.99,2.58-6.38,3.01-1.87,1.65-2.95,3.95-3.48,6.3-.99,4.84.87,9.68,3.32,13.83-5.03,2.88-5.67,4.75-6.95,10.31.78-3.43-19.91-10.2-22.1-11.06-15.38-6.06-30.17-13.61-45.59-19.84-16.1-6.5-32.57-10.36-49.73-12.86-14.58-2.12-29.21-3.44-43.88-4.03-16.56-.66-33.42.31-49.64,4.03-12.46,2.83-24.49,7.36-36.21,12.24-20.62,8.62-48.23,17.24-56,41.12-3.15,9.93-2.35,21.1-.25,31.19,1.41,6.55,3.25,13.4,6.7,19.26,4.1,7.01,10.96,11.59,17.41,16.34,6.17,4.47,11.38,9.94,17.53,14.37,5.21,3.65,11.14,5.41,16.74,8.33,8.07,4.17,11.15,12.75,16.11,19.82,5.99,8.82,15.73,12.78,24.39,18.45,21.7,14.03,55.75,40.6,79.2,14.15,8.7-9.78,15.54-21.14,25.06-30.23-1.98,1.94-3.37,7.38-4.61,9.95-1.75,3.44-3.57,6.83-5.21,10.28-3.15,6.64-5.53,13.47-7.79,20.44-8.61,26.27-10.54,53.76-1.31,80.13,6.31,17.95,21.69,23.03,34.99,34.47,6.45,5.56,13.22,11.62,22.39,10.57,11.85-1.45,21.89,6.46,33.45,5.03,12.53-1.53,26.31-9.17,35.52-17.76,5.69-5.32,8.66-12.06,12.37-18.74.43-.88,1.5-2.24,2.48-3.63.94,1.39,1.96,2.74,2.42,3.63,3.71,6.68,6.63,13.42,12.37,18.74,9.22,8.58,22.9,16.23,35.45,17.76,11.66,1.44,21.65-6.47,33.54-5.03,9.12,1.05,15.9-5.01,22.37-10.57,13.33-11.43,28.7-16.52,34.99-34.47,9.28-26.38,7.28-53.86-1.34-80.13-2.3-6.97-4.51-13.8-7.76-20.44-1.64-3.45-3.46-6.84-5.21-10.28-1.28-2.57-2.54-8.01-4.61-9.95,9.42,9.08,16.38,20.45,25.04,30.23,23.49,26.46,57.5-.12,79.22-14.15,8.68-5.67,18.38-9.63,24.44-18.45,4.88-7.07,8.02-15.65,16.13-19.82,5.48-2.92,11.52-4.68,16.67-8.33,6.13-4.43,11.47-9.9,17.48-14.37,6.52-4.75,13.36-9.33,17.48-16.34,3.48-5.86,5.27-12.71,6.63-19.26,2.17-10.09,2.95-21.26-.22-31.19h0Z"/>
  </g>
</svg>