<?xml version="1.0" encoding="UTF-8"?>
<svg id="Layer_2" data-name="Layer 2" xmlns="http://www.w3.org/2000/svg" viewBox="0 0 654.5 545.49">
  <defs>
    <style>
      .cls-1 {
        fill:#808080
      }
    </style>
  </defs>
  <g id="Layer_1-2" data-name="Layer 1">
    <path class="cls-1" d="m117.71,4.53c19.59-10.69,34.83,0,50.73,6.81,1.14.57,1.89,1.99,3.03,2.65,26.03,15.8,44.58,36.34,44.39,69.09.33,2.69,1.16,5.29,2.46,7.67,4.07,9.46,7.1,11.17,14.1,3.6,11.76-13.11,26.54-23.15,43.06-29.24,10.88-3.97,11.36-10.13,2.56-17.6-5.58-4.83-12.11-8.52-18.08-12.87-3.97-2.93-8.04-6.62-4.54-11.74,3.03-5.07,9.6-6.72,14.67-3.68.46.28.91.59,1.33.94,3.44,3.21,6.46,6.83,8.99,10.79,7.7,10.61,20.34,16.48,33.41,15.52,10.08-.76,20.2-.76,30.28,0,14.4,1.08,28.39-5.1,37.29-16.47,2.27-3.45,4.94-6.63,7.95-9.46,4.45-3.8,11.14-3.27,14.94,1.18.39.46.74.95,1.05,1.47,3.41,5.11-.57,8.71-4.64,11.55-6.72,4.64-13.82,8.61-20.06,13.72-6.25,5.11-6.91,12.49,1.61,15.43,18.38,6.56,34.7,17.86,47.32,32.75,5.49,6.25,10.88,3.88,14.86-2.18,6.44-9.4,11.59-19.62,15.33-30.38,3.31-11.98,11.19-22.18,21.96-28.39,6.73-4.35,13.07-9.29,18.93-14.76,6.62-5.58,11.83-13.25,22.52-10.13,6.72,1.89,7.86-6.53,12.97-8.52l13.15,11.07c.75,2.01-.27,4.24-2.28,4.99-.12.05-.25.08-.37.12-1.8.85-4.83,1.04-5.39,2.37-7.76,17.89-24.7,23.38-40.32,30.47-5.35,3.04-9.42,7.91-11.45,13.72-8.01,17.25-19,32.95-32.46,46.37-14.01,14.1-13.25,16.56,3.97,25.17,7.33,3.5,13.48,9.06,17.7,15.99,6.05,9.73,11.58,19.78,16.56,30.1,2.63,7.73,9.57,13.19,17.7,13.91,24.98,2.18,42.21,17.32,55.65,36.53,8.74,12.9,21.79,22.26,36.81,26.4,12.32,3.65,24.1,8.93,35.02,15.71,5.58,3.41,12.11,6.06,14.1,14.39-6.34,3.79-15.24,0-20.16,7.1-1.07,1.86-3.45,2.49-5.3,1.42-.59-.34-1.08-.83-1.42-1.42-4.83-11.74-14.95-9.46-24.13-9.46-4.77.35-9.51-1.02-13.34-3.88-13.53-12.11-31.33-18.93-42.21-34.45-2.86-3.81-6.42-7.02-10.5-9.46-5.68-3.41-12.4-8.61-18.93-5.02-6.53,3.6-2.37,12.21-1.42,18.93,3.69,26.05,4.35,52.44,1.99,78.65-.95,12.49,1.04,22.43,13.63,28.39,7.53,4.85,12.52,12.78,13.63,21.67,6.53,23.38,13.34,46.75,18.93,70.32,2.07,9.89,6.97,18.97,14.1,26.12,12.24,12.58,25.26,24.37,38.99,35.3,9.57,6.05,14.62,17.21,12.87,28.39-10.22-8.52-17.6-1.42-26.03,3.31-4.54-10.69-7.19-20.44-18.93-25.08-6.15-2.46-9.46-12.87-14.1-18.93-5.78-7.49-12.1-14.55-18.93-21.1-8.35-7.98-13.76-18.55-15.33-30-2.65-14.57-5.68-29.05-8.61-43.63-.69-3.2-1.58-6.37-2.65-9.46-1.7-4.54-4.26-8.9-9.46-9.46-5.21-.57-7.29,5.21-8.61,9.46-7.41,24.62-19.31,47.66-35.11,67.95-30.12,39.19-75.77,63.36-125.11,66.25-95.68,5.77-167.04-52.52-195.05-129.28-.47-1.23-.76-2.56-1.32-3.79-2.46-5.21-2.56-13.06-10.6-12.97-8.04.09-12.87,7-14.39,14.57-3.31,15.14-6.34,30.38-8.99,45.71-1.97,13.42-8.25,25.84-17.89,35.4-9.73,9.36-18.31,19.84-25.55,31.23-1.7,2.84-3.79,6.81-6.34,7.57-9.9,2.76-16.6,11.97-16.18,22.24-10.6,2.74-16.66-16.56-27.82,2.08-2.68-11.76,1.99-23.97,11.83-30.95,13.4-10.25,26.06-21.44,37.86-33.5,9.6-9.63,15.89-22.06,17.98-35.49,4.37-21.15,9.93-42.03,16.66-62.56,2.35-11.43,9.96-21.09,20.54-26.03,7.86-2.66,12.41-10.85,10.5-18.93-3.63-29.54-2.61-59.46,3.03-88.68,0-1.32.66-2.65.85-3.97,1.14-12.02-2.08-14.39-14.01-10.03-8.51,2.49-16.05,7.55-21.58,14.48-10.88,15.43-28.39,22.52-42.02,34.54-4.41,3.25-9.89,4.71-15.33,4.07-4,.33-8.02.33-12.02,0-8.8-1.89-7.95,18.17-18.17,8.52-6.72-6.44-14.86-.57-20.25-4.54-.66-5.77,3.31-7.95,6.44-10.13,6.46-4.89,13.48-8.99,20.92-12.21,28.39-10.13,53.85-22.81,71.36-49.21,9.88-13.31,25.27-21.42,41.83-22.05,11.69-.39,21.94-7.9,25.84-18.93,8.8-19.78,18.27-39.37,41.17-47.32,5.49-1.99,5.58-7.19,3.31-12.02-1.73-3.65-3.69-7.19-5.87-10.6-9.4-14.08-16.5-29.58-21.01-45.9-2.23-10.01-9.68-18.04-19.5-21.01-12.4-4.45-26.22-7.19-30.28-23.47-1.7-6.91-12.11-5.58-16.56-13.82Zm211.42,227.7c13.48.72,27-.52,40.13-3.69,23.94-6.72,28.39-20.54,11.74-39.65-2.66-3-5.65-5.69-8.9-8.04-31.8-24.13-67.1-16.28-93.03,3.88-15.52,12.11-13.53,26.97,3.69,37.38,14.05,8.05,30.24,11.59,46.37,10.13Zm68.42,117.64c16.11-.93,31.4-7.42,43.25-18.36,10.44-9.26,11.4-25.23,2.14-35.67-.17-.19-.35-.39-.53-.58-12.28-11.09-29.34-15.22-45.33-10.98-14.99,2.99-26.82,14.52-30.19,29.43-5.39,20.82,6.72,36.25,30.66,36.15Zm-146.88-66.91c-7.44-.04-14.81,1.54-21.58,4.64-14.15,4.82-21.72,20.19-16.9,34.35,1.55,4.55,4.28,8.6,7.91,11.74,9.06,9.19,21.04,14.95,33.88,16.28,12.22,2.89,24.91-2.42,31.42-13.15,7.01-11.17,7.01-25.36,0-36.53-7.51-11.72-20.85-18.37-34.73-17.32Zm157.29,189.28c5.4.29,10.75-1.1,15.33-3.97,13.85-9.85,22.67-25.28,24.13-42.21.29-10.7-7.56-19.89-18.17-21.29-21.58-4.8-42.97,8.81-47.77,30.39-.81,3.66-1.11,7.42-.88,11.16-.66,13.63,9.86,25.2,23.49,25.86,1.29.06,2.58.02,3.87-.12v.19Zm-138.36-27.26c-1.34-23.69-21.62-41.82-45.32-40.48-2.69.15-5.35.56-7.97,1.21-8.72,2.42-14.51,10.66-13.82,19.69.21,16.37,8.01,31.72,21.1,41.55,9.46,7.06,22.25,7.7,32.37,1.61,8.49-4.79,13.71-13.82,13.63-23.57Zm227.99-209.06c-2.08-20.44-7.95-39.37-25.17-52.62-5.31-5.77-14.29-6.13-20.06-.82-2.05,1.89-3.5,4.35-4.17,7.06-7.57,18.93,9.46,60.57,28.39,68.24,6.54,3.72,14.86,1.44,18.58-5.11.77-1.35,1.3-2.83,1.57-4.36.65-4.1.93-8.25.85-12.4Zm-283.92-29.91c0-14.95-3.22-23.38-9.46-25.74-10.13-3.79-17.04,2.93-22.33,9.46-12.44,14.32-19.18,32.71-18.93,51.67-.8,7.63,3.57,14.86,10.69,17.7,6.69,1.68,13.75-.69,18.08-6.06,12.97-12.36,20.81-29.15,21.96-47.04Z"/>
  </g>
</svg>