<?xml version="1.0" encoding="UTF-8"?>
<svg id="Layer_2" data-name="Layer 2" xmlns="http://www.w3.org/2000/svg" viewBox="0 0 489.19 654.5">
  <defs>
    <style>
      .cls-1 {
        fill:#808080
      }
    </style>
  </defs>
  <g id="Layer_1-2" data-name="Layer 1">
    <path class="cls-1" d="m203.72,654.5c8.87-16.73,0-31.11-4.94-46.04-1.63-9.25-1.63-18.71,0-27.96,0-10.11,9.1-15.16,17.52-20.55,14.39-8.47,26.07-20.86,33.69-35.71,1.06-2.12,1.06-4.62,0-6.74-5.27-10.9-9.77-22.16-13.48-33.69-3.26-12.02-12.58-20.44-16.28-32.01-1.01-3.14-3.59-3.82-7.08-2.36-5.22,2.38-9.92,5.78-13.81,10-9.48,12.18-20.38,23.18-32.46,32.79-1.31.93-2.41,2.12-3.26,3.48-9.77,12.33-21.73,22.76-35.26,30.77-7.77,4.89-14.15,11.7-18.53,19.77-2.02,3.71-4.27,7.3-6.4,11.23-2.13,3.93-6.18,10.11-11.23,9.43-5.05-.67-10-6.51-12.69-12.02-3.11-3.62-2.7-9.08.92-12.19,1.41-1.21,3.17-1.94,5.03-2.07,16.55-5.77,31.32-15.71,42.9-28.86,9.21-8.54,18.98-16.73,27.74-25.49,12.36-11.48,23.63-24.08,33.69-37.62,3.48-5.17,7.75-9.66,12.91-15.95-13.7.79-25.72,1.35-37.73,2.25-14.82,1.24-29.65,2.92-44.92,4.27-2.31.1-4.53.97-6.29,2.47-14.92,12.87-31.94,23.09-50.31,30.21-1.12,0-2.02,0-3.14-1.35,7.08-5.39,15.61-8.42,23.02-13.14,7.41-4.72,17.41-6.63,20.78-17.86-13.03,2.92-25.61-.79-37.73,3.26-2.36.79-4.94,1.91-6.74,0-10.44-9.32-23.25-2.7-34.7-5.5-2.81-.67-6.4,1.12-8.42-2.92,8.76-2.25,17.52,2.47,28.41-.9-15.16-6.18-24.71-21.79-44.92-12.91,12.24-9.66,17.63-10.11,28.19-3.93l18.98,11.23c3.24,2.35,7.25,3.39,11.23,2.92,3.11-.09,6.2.45,9.1,1.57,9.57,1.96,19.4,2.31,29.09,1.01,9.54-.92,18.33-5.56,24.48-12.91,12.34-14.42,23.6-29.74,33.69-45.82,11.13-16.94,29.63-27.6,49.86-28.75,19.43-2.7,38.86-4.72,58.4-6.51,10.42-.23,19.76-6.5,23.92-16.06,8.73-18.92,18.87-37.17,30.32-54.58,7.29-12.01,9.82-26.31,7.08-40.09-4.72-28.64-9.32-57.27-12.91-86.02-1.69-10.39-.6-21.04,3.14-30.88,5.45-17.79,8.62-36.21,9.43-54.8.67-16.73-.42-33.48-3.26-49.98-.11-1.31-.11-2.62,0-3.93,0,0,0-.79,1.68-3.03,3.36,12.81,5.61,25.89,6.74,39.08.04,17.79-1.05,35.57-3.26,53.23-1.03,9.69-3.07,19.25-6.06,28.53-3.31,11.41-3.31,23.52,0,34.93,4.27,23.66,7.82,47.43,10.67,71.31.03,2.65.52,5.27,1.46,7.75,12.62-14.15,22.75-30.32,29.99-47.84,6.27-15.86,11.42-32.15,15.39-48.74,5.05-17.63,11.23-35.15,14.82-53.01-.28,9.72-1.9,19.36-4.83,28.64-6.48,27.95-15.11,55.36-25.83,81.98-1.8,4.6-3.59,9.32-5.73,13.81-1.24,2.58-1.12,4.6,1.35,6.18,2.47,1.57,3.37-1.24,4.49-2.7,10.11-12.8,22.46-23.36,32.68-36.27,13.36-17.07,24.93-35.38,36.84-53.34,1.33-2.27,2.87-4.42,4.6-6.4-3.33,9.66-8.3,18.66-14.71,26.62-12.84,20.67-27.9,39.88-44.92,57.27-3.48,3.14-6.85,6.51-10.44,9.66-3.82,2.85-6.17,7.26-6.4,12.02,0,1.57,0,4.04-1.12,4.38-6.85,3.14-4.6,9.66-6.29,15.61,8.23-2.74,15.86-7.05,22.46-12.69,16.51-10.11,32.12-21.79,48.29-32.34,5.68-3.82,10.75-8.48,15.05-13.81,2.92-5.21,4.82-10.93,5.62-16.85,1.61-7.14,2.22-14.48,1.8-21.79.2-14.49,2.71-28.86,7.41-42.56,1.31-4.67,4.65-8.5,9.1-10.44,1.46-.59,2.77-1.52,3.82-2.7,7.28-8.5,15.24-16.38,23.81-23.58-2.04,8.32-7.08,15.6-14.15,20.44-13.93,8.36-21.74,24.05-19.99,40.2-.51,20.48-3.41,40.84-8.65,60.64-1.24,7.64-8.98,9.32-14.15,12.8-16.51,11.23-31.89,23.7-49.3,33.69-10.44,5.95-19.99,13.48-30.55,19.2-7.49,4.37-13.69,10.65-17.97,18.19-6.45,10.31-11.98,21.17-16.51,32.46-3.21,7.53-7.36,14.62-12.35,21.11-4.85,6.53-7.67,14.34-8.09,22.46-.67,8.42,6.18,14.26,11.23,19.99,7.85,8.41,16.46,16.08,25.72,22.91,16.36,12.42,23.48,33.56,17.97,53.34-4.6,25.83-10.22,51.55-12.69,77.6-1.82,15.41.87,31.01,7.75,44.92,2.51,4.8,4.28,9.95,5.28,15.27-6.28-6.62-10.83-14.68-13.25-23.47-3.48-9.55-2.47-20.44-10.22-29.09-3.09-5.48-2.65-12.26,1.12-17.29,6.44-14.07,10.94-28.96,13.36-44.25,4.48-13.21,5.14-27.42,1.91-40.99,0-2.02,0-3.82-2.81-5.05-10.3-6.43-18.65-15.56-24.15-26.39-6.87-9.89-13.17-20.16-18.87-30.77-3.48-7.08-7.52-8.09-13.7-3.14-10.27,9.41-19.77,19.62-28.41,30.55-8.31,9.1-15.72,19.09-24.26,28.19-11.23,11.23-11.23,16.06-3.59,30.88,9.22,18.24,17.39,36.99,24.48,56.15,2.47,6.85,7.64,13.59,4.72,21-4.11,11.33-12.05,20.87-22.46,26.95-13.13,7.22-23.96,18-31.22,31.11-4.72,10.15-4.72,21.86,0,32.01,4.4,9.58,5.84,20.25,4.16,30.66-.11,2.81-.79,5.84-5.84,6.29Zm-67.38-242.35c-1.68,2.92-2.92,4.6-3.82,6.51-.9,1.91-5.73,5.73-4.04,8.65,1.68,2.92,6.29,1.8,9.66,1.8,21.63.19,43.26-.75,64.8-2.81,4.9-.28,9.44-2.65,12.47-6.51,14.67-16.48,28.47-33.73,41.33-51.66,5.07-5.86,9.8-12.01,14.15-18.42,1.12-1.8,2.92-3.93,1.12-5.73-1.8-1.8-3.93,0-5.73.67-11.44,5.89-23.59,10.27-36.16,13.03-14.44,5-29.96,6.01-44.92,2.92-5.38-1.84-11.34-.14-14.94,4.27-14.15,14.49-22.12,33.02-33.92,47.28Z"/>
  </g>
</svg>