<?xml version="1.0" encoding="UTF-8"?>
<svg id="Layer_2" data-name="Layer 2" xmlns="http://www.w3.org/2000/svg" viewBox="0 0 654.5 563.93">
  <defs>
    <style>
      .cls-1 {
        fill:#808080
      }
    </style>
  </defs>
  <g id="Layer_1-2" data-name="Layer 1">
    <path class="cls-1" d="m213.63,0c1.21.47,2.5.57,3.52,1.66.58.64,1.87.25,2.83.11,1.38-.18,2.54,0,3.38,1.28.66,1,1.76,1.02,2.8.81,1.87-.37,3.5.04,4.78,1.47,1.43,1.6,3.06,2.23,5.25,1.61,1.33-.38,2.6.23,3.34,1.44,1.27,2.09,2.93,3.35,5.49,3.34,1.38-.01,2.16.9,2.26,2.28.06.95.32,1.71,1.31,2.07.17.06.44.26.44.38-.04,2.01,1.63,2.14,2.92,2.6,1.12.41,2.01,1.01,2.69,1.97.79,1.13,1.82,1.32,2.97.63,1.31-.8,2.62-.65,4.03-.33,4.02.9,7.29,3.1,10.23,5.85,3.63,3.41,7.82,5.77,12.53,7.44,3.97,1.4,7.76,3.31,11.67,4.93,2.44,1.01,5.01,1.59,7.61,2,1.01.16,1.59-.12,2.07-1.07,1.5-2.94,2.97-5.9,4.99-8.55.65-.86,1.38-1.66,2.3-2.27.86-.54,1.65-.59,2.59-.01,3.06,1.9,6.2,1.45,9.29.04.74-.33,1.39-.86,2.11-1.31,1.18-.73,2.34-.79,3.38.26.91.94,2.09,1.02,3.28,1.15.97.09,1.96.2,2.93.15,2.45-.1,4.53.69,6.42,2.21,1.1.86,2.36,1.12,3.79.86,1.72-.31,3.45-.21,5.22.06,1.19.18,1.49.7,1.7,1.68.52,2.46,1.42,4.72,3.6,6.28.89.65.9,1.8,1.12,2.8.25,1.06.42,2.09,2.06,1.8,9.2-1.63,18.26-3.77,26.78-7.77,1.64-.76,3.19-1.68,4.63-2.77,2.18-1.66,4.41-3.2,7.15-3.92,1.56-.41,2.64-1.87,4.41-2.11,2.7-.37,4.35.31,5.64,2.69.02.05.05.1.07.14,1.85,3.55,2.18,3.57,4.83.48.43-.52.87-1.02,1.36-1.49,1.11-1.11,2.41-1.39,3.81-.62,1.48.81,2.66.52,4.29-.02,1.82-.62,3.6-1.4,5.43-1.93,1.07-.31,2.02-.64,2.85-1.32,1.11-.92,2.24-1.13,3.57-.46,2.72,1.39,5.2.3,7.36-1.21,1.37-.97,2.49-1.26,3.95-.63.57.25,1.16.46,1.76.59.95.23,1.7.04,2.67-.47,2.38-1.23,4.82-2.98,7.79-1.27,1.26.73,2.54.48,3.47-.68,1.33-1.64,2.9-1.98,4.8-1.12,1.49.69,2.86.16,4.07-.71,1.58-1.13,3.13-1.48,4.89-.48.89.5,1.77.36,2.59-.31.68-.55,1.42-1.04,2.09-1.6.99-.81,2.01-1.2,3.25-.55.73.38,1.43.18,1.97-.39,2.39-2.51,5.57-3.22,8.75-3.31,8.25-.26,16.21,1.24,23.72,4.83.12.06.23.16.46.31-3.36,2.03-6.97,3.2-10.63,4.24-1.77.5-3.54.99-5.27,1.69-2.11.85-4.37.23-6.55-.15-1.22-.21-2.41-.55-3.67-.48-1.79.12-3.46-.05-4.93-1.32-.95-.81-2.09-.8-2.73.46-.8,1.53-2.06,1.32-3.34,1.06-.75-.15-1.47-.47-2.22-.68-1.32-.37-2.54-.41-3.41.94-.53.79-1.21.92-2.16.59-1-.36-2.11-.51-3.18-.63-1.17-.14-2.27.07-2.97,1.19-.87,1.38-2.18,1.43-3.56,1.06-.7-.18-1.36-.52-2.05-.69-.97-.25-1.98-.39-2.73.49-1.23,1.4-2.85,1.52-4.52,1.44-1.24-.05-2.48-.17-3.72-.18-1.02,0-2.21.02-2.92.78-1.63,1.72-3.56,1.72-5.58,1.29-2.11-.47-3.98-.2-5.62,1.31-1.04.94-2.3,1.06-3.63.87-2.78-.37-5.51-.62-8.17.73-.92.47-2.12.41-3.19.57-1.08.16-2.19.37-2.97,1.17-1.43,1.44-3.25,1.7-5.1,1.92-3.15.38-6.42.21-9.25,2.07-.39.26-1,.32-1.5.3-8.38-.37-16.3,2.01-24.29,3.98-3.75.92-7.38,2.19-11.05,3.35-1.79.57-3.77.52-5.64.87-3.71.7-5.22,2.99-4.64,6.67.41,2.62-.32,5-1.95,7.07-.46.58-.47,1.12-.31,1.74.36,1.34.17,2.61-.23,3.94-1.13,3.61-.99,7.34-.7,11.05.07,1.08.17,2.16.22,3.24.07,1.58.74,2.33,2.33,2.25,5.53-.27,11.89,5.46,12.38,11.53.36,4.52-2.76,9.19-7.18,10.29-.94.23-1.39.84-1.69,1.63-.42,1.08-.97,2.03-1.95,2.74-.74.53-.92,1.29-.86,2.18.23,3.57,1.01,7.03,1.96,10.47.21.74.71,1.29,1.45,1.49,1.01.27,1.56,1.01,2.29,1.68,1.47,1.36,1.21,2.81.79,4.39-.14.49-.35.97-.53,1.45-.89,2.35-.87,2.34,1.15,3.76.99.7,1.61,1.72,2.3,2.7.65.92,1.74,1.75,2.06,2.61.63,1.66,1.59,3.03,2.46,4.51.06.11.06.32.01.46-1.64,3.7,1.8,5.8,2.75,8.69.25.75.87.86,1.64.68,2.97-.7,6.13-1.12,8.66-2.71,2.04-1.29,4.07-1.66,6.27-1.98.96-.14,1.63-.85,2.27-1.53.79-.83,1.63-1.42,2.87-.9.76.32,1.4-.12,1.96-.63.74-.67,1.54-1.34,2.55-1.32,3.47.05,6.66-1.28,9.98-1.98,5.2-1.08,10.37-.6,15.55.15,2.92.43,5.82.91,8.71,1.37,2.8.44,5.57.09,8.33-.3.25-.04.58-.09.7-.25,1.31-1.58,3.04-1.48,4.82-1.29.67.07,1.2-.23,1.68-.65,3.88-3.41,8.5-3.54,13.26-2.98.52.05,1.01.25,1.52.31,2.37.27,3.89,1.32,4.58,3.82.68,2.43,2.71,2.65,4.41.68.38-.44.83-.8,1.37-.96,1.87-.53,3.09-1.9,4.48-3.15,2.49-2.24,5.3-4.12,7.85-6.28,7.21-6.07,14.73-11.64,23.19-15.91.87-.43,1.61-1.11,2.39-1.71,1.03-.78,2.06-1.55,3.42-1.69.28-.02.69-.16.81-.37.81-1.45,2.17-1.9,3.68-2.17.52-.1,1.03-.48,1.47-.84,2.16-1.8,4.53-3.22,7.16-4.23,1.56-.59,2.49-1.97,3.63-3.08.79-.78,1.49-1.63,2.86-1.55.92.06,1.48-.89,2.01-1.58.8-1.03,1.69-1.91,3.01-2.3.97-.28,1.24-1.37,1.91-1.88,1.96-1.49,1.34-3.15.74-4.94-.26-.78-.39-1.61-.3-2.44.14-1.26.75-2.12,2-2.49,1.69-.51,3.41-.74,5.19-.71,2.37.04,4.69.7,7.1.37.9-.14,1.64.53,2.37,1.03,1.27.87,2.49,1.84,3.81,2.65,2.23,1.39,3.33,1.18,4.82-.96,1.02-1.48,2.23-2.69,3.77-3.61.8-.49,1.6-.89,2.6-.71,1.1.17,1.82-.59,2.61-1.16.62-.43,1.18-.79,1.92-.2.48.37,1.11.25,1.65.16,1.24-.22,2.17-.12,2.96,1.15.37.6.57.94.31,1.54-.58,1.38-.64,2.82-.53,4.26.17,2.25,1.52,3.86,3.23,3.94,1.31.07,3.67-2.07,3.87-3.68.21-1.84.33-3.49,1.93-4.96.7-.65,1.2-1.96,2.21-2.46,1.15-.58,2.45-.85,3.7-1.24.76-.23.81.42.97.87.6,1.76,1.19,3.51,1.81,5.26.22.65.52,1.23,1.4,1.16.85-.06,1.29-.48,1.5-1.27.35-1.22.21-2.46.09-3.7-.16-1.75.23-3.29.74-5,.71-2.46,2.3-4.08,3.61-6.01.32-.47.53-.73,1.06-.34.94.69,1.61.28,2.22-.52.41-.53.83-1.06,1.27-1.56.31-.34.84-.78,1.19-.38.79.9,1.52.34,2.37.25,1.37-.15,2.92-.47,3.78,1.2.07.16.3.33.46.34,2.77.12,3.45,2.6,4.46,4.37.42.74.89,2.34.15,3.57-.16.28-.17.7-.14,1.05.42,3.61-.71,5.19-4.28,5.9-1.7.34-2.13,1.2-1.45,2.78.21.48.43.75,1.01.69.97-.1,1.96-.15,2.93-.25,1.26-.11,2.4-.04,2.83,1.47.11.36.36.75.75.65,1.48-.34,1.42.83,1.96,1.65.95,1.43,1.76,3.02,3.7,3.72,4.2,1.53,8.48,2.54,12.92,2.88,1.54.12,2.96-.42,4.41-.74,1.5-.32,2.49.34,3.18,1.59.42.78.28,1.47-.47,2.03-2.72,2.09-2.73,2.13-1.86,5.47-2.9-.11-5.74,0-7.93-2.5-1.07-1.19-2.25-2.67-4.31-2.21-.2.04-.54-.15-.68-.32-2.04-2.53-5.12-2.55-7.88-3.38-.97-.3-1.02.35-1.2.94-.43,1.48-.74,3.04-2.34,3.82-.26.12-.31.39-.28.65.11,1.01-.59,1.42-1.34,1.64-5.69,1.69-12.07,1.24-15.6-5.14-.7-1.26-1.28-2.59-1.89-3.89-.44-.97-1.11-1.69-2.23-1.56-1.07.12-1.52.99-1.77,1.93-.42,1.52-.51,3.07-.27,4.6.16,1.06-.31,1.5-1.21,1.8-1.1.36-2.13.31-3.17-.16-1.68-.79-3.3-1.69-5.1-2.21-.79-.23-1.27-.81-1.47-1.65-.57-2.3-2.44-3.06-4.45-3.52-1.37-.31-2.08.63-2.55,1.76-.83,1.98-.92,4.11-1.21,6.2-.12.92-.44,1.31-1.42,1.43-1.75.23-3.5.28-5.25.28-1.38,0-2.65-.31-3.83-1.03-.57-.33-1.17-.69-1.81-.84-2.13-.52-3.89-1.58-5.42-3.13-.71-.74-1.54-1.38-2.56-1.69-.87-.27-1.8-.36-2.44.42-1.17,1.44-2.8,1.87-4.48,2.18-1.77.33-3.29,1.06-4.66,2.25-1.57,1.37-3.5,2.17-5.37,3.03-3.76,1.74-7.42,3.63-10.4,6.6-.89.89-1.97,1.44-3.28,1.55-1.01.09-1.88.52-2.49,1.4-.44.67-1.17.99-1.85,1.36-4.78,2.55-9.7,4.82-14.41,7.49-3.14,1.77-5.72,4.23-8.53,6.42-.7.54-1.43,1.01-2.28,1.28-.91.28-1.69.78-2.19,1.63-.38.64-1.02,1.01-1.61,1.42-3.55,2.4-7.16,4.73-10.62,7.24-2.98,2.16-5.79,4.53-8.92,6.54-1.42.91-2.77,1.24-4.16,1.84-1.7.71-4.31.54-4.98,3.1-1.47,5.65-5.75,6.92-10.82,6.89-2.73-.01-5.47-.07-8.19-.3-6-.47-11.68.95-17.28,2.8-6.01,1.98-11.94,4.28-18.15,5.62-6.51,1.39-13.03,1.01-19.56.25-4.53-.53-8.85-2.03-13.31-2.81-1.63-.28-3.25-.57-4.92-.42-2.03.18-2.86.91-3.12,2.93-.11.81-.14,1.65-.07,2.48.32,4.07-.34,8.01-1.47,11.9-.09.3-.25.64-.17.9,1.12,3.49-.46,7.08.46,10.59.26,1.02-.01,2.14-.74,3.07-.53.67-.51,1.47-.27,2.23.63,2.06.28,4.08-.15,6.11-.38,1.8.21,2.23,2.05,2.07,3.44-.32,6.89-.62,10.32-.99,4.3-.47,8.61-1.01,12.95-1.07,2.14-.04,4.23.09,6.22.95,1.05.44,2.14.76,3.31.48.15-.04.38-.07.46.01,1.53,1.6,3.76,1.79,5.63,2.64,1.68.76,3.34,1.5,4.94,2.38.49.27,1.24.18,1.71.62,2.96,2.73,6.75,2.83,10.42,3.22,2.53.27,5.06.06,7.58-.21,4.12-.46,7.79.37,10.82,3.4,1.05,1.05,1.6,2.19,1.61,3.7.01,2.98.37,3.34,3.27,3.35,1.33.01,2.38.63,3.42,1.28,1.79,1.1,3.6,2.02,5.8,1.79.38-.04.89-.07,1.16.28,1.08,1.42,3.01,1.42,4.21,2.39,1.91,1.55,4.72,1.43,6.25,3.55.11.16.33.26.52.32,5.7,1.68,10.36,5.77,16.26,6.99,1.04.21,2.07.65,2.8,1.54.04.04.09.11.12.1,2.32-.14,3.65,2.16,5.83,2.38.6.06,1.33.1,1.77.44,3.52,2.69,8.08,3.29,11.65,5.9,2.06,1.49,4.53,2.18,6.92,3.03,1.29.46,2.67.83,3.46,2.14.07.12.22.27.35.28,3.44.39,5.81,3.26,9.38,3.7,3.84.47,7.22,2.67,10.55,4.66.69.42,1.17,1.12,1.56,2.11-1.38-.25-1.98.46-2.49,1.43-.42.8-1.26,1.22-1.92,1.79-1.55,1.32-1.4,2.19.48,3.03,2.28,1,4.63.8,6.98.33,3.28-.65,6.46-1.86,9.89-1.48.6.07,1.1.05,1.58.67.76.99,2.12.53,3.18.88.76.25,1.92-.35,2.22.89.36,1.44.9,2.92-.26,4.29-.23.26-.48.54-.75.78-1.04.89-1.06,1.87-.44,3.04,1.07,2.01,2.18,2.46,4.4,1.76,1.36-.43,2.45-1.29,3.6-2.09.92-.65,1.81-1.39,2.91-1.74,1.31-.43,2.66-.95,3.77.48.23.31.65.22,1.02.21,2-.09,2.85,1.22,2.01,3.07-.48,1.06-1.33,1.84-2.06,2.71-.81.96-1.29,2.01-.78,3.26.26.62.22,1.64,1.11,1.61.84-.02,1.7-.44,2.09-1.38.21-.53.44-1.05.73-1.54,2.48-4.48,6.58-5.95,12.18-4.96,4.04.71,5.84,3.73,8,6.53.28.34.15.79,0,1.18-.28.7.02,1.38.64,1.49.99.18.95.8.96,1.47.01,3.06-.15,6.1-3.04,8-1.98,1.28-4.27,1.49-6.57,1.28-.96-.09-1.65-.12-2.02,1.02-.37,1.17.47,1.32,1.11,1.66.8.42,1.47.94,1.81,1.81.11.28.26.7.48.76,2.86.87,3.26,4.29,5.89,5.51,2.56,1.19,4.93,2.82,7.37,4.24.8.47,1.6.92,2.55,1.08.63.1,1.11.46,1.42,1.08,1.08,2.28,1.23,2.33,3.44,1.27.07,1.32-.3,2.24-1.69,2.54-.39.09-.8.2-1.2.31-2,.52-2.12.73-1.77,2.77.04.25.02.5.04.78-3.36-1.26-6.18-2.9-7.53-6.57-1.06-2.86-3.51-4.79-5.83-6.71-.6-.49-1.39-.87-1.74-1.52-.86-1.59-1.93-1.24-3.07-.52-1.52,1-3.4,1.54-4.19,3.44-.15.35-.54.25-.84.21-.52-.09-.97.09-1.18.54-.54,1.23-1.59,1.28-2.72,1.29-1.87.02-3.81-.01-5.48-.73-1.5-.65-3.38-1.27-3.75-3.38-.06-.39-.22-.85-.65-1.01-.92-.35-1.21-1.01-1.16-1.93.01-.22-.14-.53-.32-.68-1.91-1.59-1.45-3.62-.92-5.56.35-1.32,1.07-2.55,1.66-3.81.42-.91.75-1.82.66-2.83-.06-.68-.17-1.36-1.1-1.39-.74-.02-1.52-.11-1.72.85-.15.65-.59.92-1.16,1.1-.47.15-.75.51-.99.92-.71,1.33-1.42,1.58-2.41.43-1.37-1.58-3.62-2.55-3.68-5.08,0-.09-.07-.22-.15-.26-1.85-.75-1.75-2.46-2.01-4.02-.09-.57-.33-1.06-1.08-1.11-.71-.04-1.36.01-1.69.75-.22.52-.38,1.07-.58,1.6-.81,2.17-2.86,2.92-4.88,1.77-1.13-.67-2.14-1.5-3.68-1.13-.8.18-1.39-.76-1.98-1.33-.96-.9-1.69-2.13-3.22-2.22-.17-.01-.39-.16-.52-.31-3.45-3.84-6.71-7.77-7.16-13.24,0-.11-.04-.2-.07-.31q-.49-1.96-2.48-1.55c-1.63.33-3.26.49-4.93.41-.92-.05-1.47-.3-1.6-1.4-.2-1.72-.46-3.47-1.1-5.12-.36-.94-.84-1.71-2.05-1.29-.8.28-.86-.35-.96-.81-.34-1.82-1.34-2.94-3.2-3.29-1.12-.21-1.87-1.07-2.69-1.77-1.17-1.02-2.29-2.13-4.07-1.84-.22.04-.57-.07-.69-.25-1.2-1.56-3.06-2.02-4.66-2.92-.74-.41-1.5-.7-2.33-.18-.57.37-.95-.01-1.38-.31-2.16-1.58-4.45-2.75-7.24-2.28-1.65-1.42-3.97-.79-5.69-1.84-1.13-.69-2.24-1.26-3.56-1.33-1.61-.09-2.99-.73-4.2-1.77-.84-.71-1.81-1.15-2.94-1.24-1.79-.16-3.36-.87-4.81-1.95-2-1.48-3.95-3.19-6.26-3.95-2.8-.92-4.72-2.98-7.12-4.31-2.48-1.37-4.84-2.91-7.27-4.34-2.38-1.4-4.94-.53-7.43-.42-.3.01-.58.53-.84.84-2.44,3.01-6,3.86-9.43,2.07-3.41-1.79-6.71-3.82-10.37-5.16-3.17-1.16-6.42-1.86-9.79-2.08-.81-.06-1.1.17-1.23.92-.27,1.43.17,2.69.9,3.82,1.04,1.6,2.22,3.1,3.28,4.71,1.61,2.45,2.93,4.99,2.14,8.09-.3,1.13-.82,2.12-1.47,3.06-1.21,1.79-2.07,3.68-2.14,5.88-.1,2.77-.95,5.37-2,7.91-2.21,5.4-2.66,11.11-3.07,16.82-.54,7.52-.89,15.06-1.38,22.57-.09,1.43.42,2.87-.75,4.25-.55.65-.01,1.91.49,2.77,1.43,2.4,1.4,4.82.44,7.4-.57,1.53-1.06,3.13-1.07,4.8-.02,1.23.71,2.12,1.69,2.28,1.45.22,2.43,1.05,3.46,1.88,1.2.96,2.45,1.7,4.07,1.65.74-.02,1.26.55,1.87.86,1.73.9,2.07,2.67,3.09,3.97,1.75,2.21,2.45,4.88,3.91,7.06,2.54,3.81,3.62,8.16,5.62,12.15,1.45,2.9,3.73,5.03,6.01,7.21.11.1.25.26.37.26,2.89.01,3.89,2.94,6.12,3.98.51.23.91.71,1.11,1.26.79,2.13,1.79,4.21,2.28,6.39.48,2.14.75,4.44-1.59,5.99-.73.48-.52,1.34,0,1.91,1.75,1.95,2.85,4.29,4.04,6.58.86,1.65,1.85,3.22,3.3,4.43.52.43,1.21.95,1.16,1.59-.21,3.07,2.34,4.76,3.43,7.16.38.84,1.08,1.53,1,2.55-.01.17.11.44.25.53,2.02,1.28,2.21,3.51,2.86,5.47.52,1.54,1.12,2.99,2.35,4.1.16.15.37.3.41.48.47,2.48,2.43,4.31,2.9,6.76.25,1.24.95,2.16,1.75,3.03,1.02,1.11,2.09,2.19,1.84,3.91-.01.1-.01.23.05.3,1.81,1.71,2.13,4.25,3.42,6.25.22.33.71.62.52,1.05-.6,1.26.18,2.08.84,2.92,1.59,2,2.75,4.23,3.6,6.62.53,1.48,1.23,2.87,2.37,3.97,1.76,1.66,2.98,3.68,3.82,5.94.63,1.69,1.58,3.1,3.08,4.15.85.59,1.53,1.36,1.77,2.44.25,1.01,1.12,1.49,1.93,1.91,2.09,1.07,3.4,2.78,4.26,4.9.21.48.43.95.68,1.39,1.44,2.61,1.45,2.61-.79,4.57-.07.07-.26.12-.26.17.25,2-1.74,2.58-2.48,3.92-.38.71-.73.8-1.43.74-1.45-.14-2.54-.79-3.24-2.07-.59-1.05-1.29-2.01-2.39-2.58-.48-.26-1-.65-1.59-.3-.59.34-.54.96-.49,1.53.26,3.19,1.65,5.7,4.51,7.28,2.33,1.28,4.88,1.97,7.44,2.55,1.36.3,2.76.48,3.63,1.79.28.41.81.47,1.24.54,2.09.33,3.89,1.18,5.57,2.51,1.36,1.08,1.45,3.04-.12,3.87-1.33.69-2.7,1.21-3.45,2.66-.18.35-.75.53-1.2.67-.95.32-1.43.97-1.5,1.93-.07,1.07.51,1.75,1.42,2.18,1.76.84,3.6.86,5.43.31,1.04-.3,2.01-.8,3.02-1.16,2.8-1.01,6.76.63,8.12,3.3.43.86.1,1.53-.47,2.09-.75.78-1.6,1.45-2.39,2.21-.94.91-1.76,1.88-1.81,3.3-.03.94.23,1.8,1.1,2.23.84.42,1.72.3,2.5-.27.46-.34.94-.68,1.27-1.12,2.16-2.76,5.11-2.81,8.17-2.45,1.28.16,2.29.89,3.41,1.56,2.22,1.34,3.15,3.55,4.72,5.3.33.36.46.81.34,1.31-.5,2.13-.06,4.23.39,6.28.62,2.77-.7,4.83-2.7,6.1-1.11.7-2.35,2.35-4.2,1.5-.12-.06-.35-.04-.46.05-1.75,1.31-2.83.02-4.03-.99-1.56-1.32-2.86-2.85-3.93-4.57-.65-1.05-1.38-.81-2.23-.49-1.13.44-.5,1.22-.27,1.79.58,1.38,1.26,2.71,1.95,4.04.75,1.48,1.42,2.96,1.48,4.67.05,1.56.7,2.87,1.98,3.86,1.23.97,2.17,2.19,3.04,3.5.81,1.24,1.77,2.4,2.67,3.6,2.34,3.1,5.64,4.36,9.35,4.84,1.85.23,3.61.69,5.24,1.7,1.22.76,2.5,1.01,3.67-.42.65-.81,2.11-.38,2.94-1.23-.89,3.14-2.61,5.85-5.66,6.97-1.8.65-3.66,1.27-5.51,1.82-1.32.41-2.58.15-3.27-1.29-.34-.7-.79-1.17-1.66-1.11-.28.02-.75-.07-.85-.26-1.29-2.34-3.98-3.24-5.41-5.63-1-1.66-2.74-2.97-3.55-4.93-.17-.46-.85-.71-1.29-1.07-.41-.32-.74-.67-.83-1.24-.37-2.49-1.77-3.66-4.23-3.57-.87.04-1.75.05-2.62.09-.31.02-.76-.02-.9.15-2,2.61-4.27-.3-6.36.33-2.81-1.66-5.38-3.56-6.01-7.03-.42-2.41.12-5-1.42-7.19-.07-.11-.1-.32-.04-.42,1.39-2.39,1.82-5.53,5.05-6.47.3-.1.58-.26.83-.43.71-.53,1.12-1.33,1.05-2.14-.06-.73-.94-.83-1.54-1.06-1-.39-2.02-.39-3.03-.01-1.11.41-2.21.85-3.3,1.28-1.88.75-3.54-.06-4.05-2.06-.89-3.39-1.28-6.71,1.27-9.67.65-.75.96-1.74.99-2.73.02-1.12-.25-2.19-1.38-2.72-1.06-.49-2.03-.16-2.83.62-1.31,1.24-2.61,2.5-3.82,3.84-.73.79-1.44.79-2.45.69-1.76-.16-2.73-1.76-4.37-2.01-.14-.01-.32-.31-.32-.47,0-1.15-.86-1.59-1.64-2.07-1.22-.75-1.92-1.65-1.43-3.2.31-.95-.21-1.7-1.02-2.22-.74-.47-1.34-.97-.94-2,.14-.31-.01-.6-.17-.87-1.76-2.96-1.52-6.23-1.4-9.47.01-.39.18-.84.42-1.15,1.8-2.25,2.35-5.01,3.09-7.69.59-2.12-1.17-4.57-3.33-4.88-.79-.11-.83.85-1.58.94-.21-1.2-.52-2.32-1.82-2.92-.47-.22,0-.96.12-1.42,1.05-3.71,1.72-7.44,1.15-11.31-.17-1.16-.73-2.27-.97-3.31-.44-1.93-1.34-3.29-2.8-4.48-.36-.31-.5-1.03-.53-1.58-.15-2.61-1.31-4.72-3.02-6.62-.87-.99-1.72-1.96-1.74-3.5,0-.97-.97-1.65-1.65-2.35-1-1.02-1.39-2.41-2.14-3.5-1.82-2.57-2.6-5.75-4.79-8.07-.76-.8-.96-1.84-1.12-2.83-.31-1.91-1.01-3.55-2.61-4.74-.54-.39-1.02-.95-.95-1.68.14-1.43-.53-2.49-1.44-3.45-.85-.89-1.29-2.01-1.6-3.14-.54-2.03-1.39-3.88-2.72-5.51-1.69-2.08-2.32-4.57-2.88-7.1-.06-.3-.12-.6-.2-.9-1.44-5.77-2.67-7.02-8.64-7.77-4.78-.59-7.81-2.91-8.9-7.65-.05-.25-.17-.49-.25-.74-.73-2.59-1.69-4.97-3.68-7-1.44-1.45-3.1-3.03-3.23-5.45-.04-.74-.96-1.18-1.6-1.59-1.08-.69-1.96-1.5-2.4-2.75-.23-.64-.68-1.17-1.23-1.55-2.21-1.56-3.66-3.77-5.13-5.95-.87-1.29-1.81-2.51-2.99-3.55-1.44-1.27-2.49-1-3.15.87-.55,1.53-.63,3.14-.8,4.72-.18,1.8-.23,3.61-.38,5.41-.1,1.18-.25,2.37-.8,3.45-1.05,2.02-1.38,4.2-1.32,6.44.04,1.53-.27,2.97-.94,4.35-.76,1.6-1.05,3.31-1.29,5.06-.59,4.08-1.33,8.12-3.45,11.78-1.02,1.76-.96,3.88-1.41,5.84-.37,1.61-1.16,3.08-1.64,4.62-.78,2.51-2.22,4.74-2.83,7.33-.99,4.02-3.41,7.53-4.52,11.43-.8,2.77-2.96,4.78-3.36,7.77-.18,1.38-.42,3.31-1.8,4.5-.15.14-.38.33-.37.48.34,2.94-2.98,4.76-2.38,7.79.05.27-.07.71-.27.86-2.03,1.52-1.64,3.87-2.06,5.93-.27,1.32-.6,2.55-1.26,3.77-1.16,2.09-1.31,4.53-1.88,6.81-1.12,4.5-2.28,8.99-4.35,13.18-.14.28-.21.62-.42.83-4.08,4.19-6.62,10.03-13.01,11.74-1.95.52-3.84,1.5-5.35,3.02-.46.47-1.08.55-1.71.6-1.28.1-2.59.15-3.63,1.08-.31.28-.74.23-1.17.19-3.93-.38-7.93.1-11.37,1.69-2.98,1.38-6.25,2.46-8.92,4.46-2.08,1.55-4.37,2.22-6.8,2.75-1.82.39-3.6.91-4.95,2.32-.15.15-.34.37-.49.36-2.34-.23-3.75,1.84-5.79,2.3-.28.06-.6.21-.81.41-2.49,2.71-5.85,4.14-8.91,6.01-1.37.85-3.02,1.47-2.62,3.63.1.49-.38.92-.73,1.32-.6-.04-.46-.59-.64-.91-.6-1-1.68-1.37-2.41-.55-.95,1.04-1.87.65-2.78.2-.96-.48-1.86-1.11-2.72-1.75-2.02-1.49-4.08-1.59-6.2-.28-1.27.78-2.34,1.42-3.76-.05-1.13-1.17-3.33-.94-4.44-1.98-1.05-1-1.02-2.94-2.02-4.23-.25-.32-.59-.85-.85-.83-1.74.14-1.96-1.12-2.29-2.3-.05-.15-.15-.37-.25-.38-2.39-.33-2.82-3.12-4.85-3.92-.87-.34-1.51-.9-1.74-1.98-.26-1.23-2.7-3.01-3.88-2.9-1,.09-1.7-.3-2.33-.95-.87-.9-1.82-1.66-3.12-1.87-.35-.06-.75-.23-.95-.49-1.64-2.3-4.23-3.43-6.34-5.13-.44-.36-.96-.65-1.32-1.07-1.76-2.09-4.02-3.1-6.65-3.87-1.91-.55-3.91-1.39-5.63-2.57-1.69-1.17-3.55-1.84-5.58-2.09-1.15-.15-2.23-.41-2.75-1.66-.15-.33-.58-.57-.91-.81-3.19-2.37-6.07-5.1-9.03-7.77-1.88-1.72-3.34-3.55-3.92-5.9-.87-3.46-1.81-6.92-2.55-10.39-.94-4.4-.79-9.03-1.08-13.56-.21-3.3-.43-6.58-1.52-9.76-.57-1.65-.69-3.44-.64-5.2.05-2.82-.33-5.56-1.4-8.18-.47-1.11-.59-2.27-.52-3.47.05-.94.38-1.98-.63-2.7-.12-.07-.16-.39-.11-.57.51-1.76-.11-3.36-.7-4.96-.6-1.6-.69-3.22-.25-4.83.23-.89.06-1.5-.7-2-.57-.36-.91-.91-.91-1.55.04-3.02-.97-5.89-1.33-8.85-.78-6.47-.92-12.99-1.23-19.48-.28-5.93-.59-11.86-.92-17.79-.05-.9,0-2.16-.87-2.45-.79-.26-1.7.51-2.4,1.17-3.15,3.02-6.17,6.17-9.15,9.4-3.33,3.59-6.33,7.26-8.48,11.68-1.15,2.38-3.29,3.6-6.02,3.72-1.9.07-3.81.26-5.69.53-2.22.31-3.07,1.36-2.99,3.56.04,1.06-.07,2.05-.7,2.93-.18.25-.37.63-.3.85.69,1.92-.71,2.93-1.74,4.11-.69.79-1.33,1.55-1.1,2.72.14.7-.38,1.18-.85,1.56-1.13.94-1.75,2.12-2.01,3.55-.18.97-.58,1.87-1.29,2.61-.17.17-.44.41-.44.6-.09,2.78-2.48,4.53-3.13,7.05-.27,1.02-.59,1.97-1.77,2.33-.81.23-.96,1-1.07,1.74-.16,1.12-.6,2.08-1.66,2.62-.05.02-.11.05-.12.1-.91,2.02-2.28,3.76-3.39,5.66-.22.39-.34.83-.75,1.08-.53.32-.79.76-.67,1.42.04.3.06.69-.1.89-2.14,2.6-.55,5.49-.65,8.25,0,.2.23.5.43.59,2.16.9,1.76,2.92,2.05,4.63.1.63-.06.95-.84.78-1.11-.23-1.97.02-1.91,1.43.01.36-.14.6-.49.69-1.49.37-1.5,1.7-1.74,2.82-.36,1.72-.37,3.49-.14,5.24.54,4.25-.11,8.22-2.59,11.81-1.18,1.71-2.64,3.18-4.21,4.48-1.63,1.34-3.41,2.49-5.2,3.63-1.48.94-2.24.55-3.15-.86-1.43-2.16-3.18-4.09-5.57-5.25-1.82-.89-2.78-.25-3.03,1.8-.23,1.98.36,3.89.69,5.8.37,2.16-.21,3.95-1.26,5.74-.96,1.59-1.92,3.19-3.41,4.36-1.28,1-2.04.81-2.87-.6-.14-.22-.22-.47-.36-.69-.74-1.18-1.75-.81-2.74-.44-1.08.42-.57,1.18-.31,1.79,1.39,3.24,2.05,6.44.41,9.84-1.17,2.4-3.33,3.93-4.8,6.04-.04.02-.07.09-.12.09-3.15-.16-6.18,2.41-9.45.26-2.96-1.96-4.55-4.62-4.56-8.13-.01-2.8,1.54-4.77,3.81-6.16.76-.47,1.03-.94.85-1.72-.22-.9-1.02-.78-1.64-.75-.94.05-1.77.49-2.56,1.01-.95.63-1.87,1.29-2.88,1.81-1.66.87-3.33,1.01-4.9-.32-.38-.32-.87-.57-1.36-.71-2.67-.87-4.66-3.63-4.53-6.42.05-.92.36-1.7,1.15-2.27,1.04-.71,1.84-1.54,1.96-2.96.09-1.16,1.07-1.84,2.02-2.4,1.32-.79,2.61-1.53,3.68-2.75,1.06-1.23,2.86-1.12,4.37-1.1,2.67.05,5.25.48,7.03,2.88.41.54,1.11.91,1.74,1.24,1.34.69,1.98.3,2.09-1.23.06-.83-.26-1.52-.75-2.13-.6-.78-1.29-1.47-1.88-2.25-.84-1.11-.57-1.8.76-2.05.69-.12,1.37-.23,1.69-.92.81-1.79,2.28-1.69,3.81-1.36,2.03.44,3.84,1.49,5.78,2.19,1.45.54,2.92,1.02,4.51.44,2.3-.86,3.36-2.91,2.69-5.35-.59-2.11-1.79-3.93-2.92-5.78-1.07-1.74-.96-2.24.62-3.47,1.31-1.03,2.71-1.56,4.42-1.44,2.32.16,2.78-.38,2.62-2.66-.02-.3-.07-.68.09-.9,1.92-2.9,2.51-6.69,5.99-8.53,2.8-1.47,4.8-3.67,6.02-6.6.44-1.06,1.19-1.93,2.12-2.64.79-.6,1.53-1.26,1.34-2.43-.02-.18.04-.47.17-.57,2.3-1.81,2.25-4.88,3.71-7.18.65-1.02,2.27-2.22,1.54-4.02-.07-.16.36-.59.62-.83.6-.49.94-1.06.81-1.87-.15-.96.58-1.49,1.17-2.06.74-.68,1.49-1.32.99-2.5-.06-.16-.05-.49.06-.58,2.19-1.74,1.47-5.37,4.37-6.68.55-.25.68-1.01.69-1.65,0-.76.15-1.42.94-1.8.55-.27.57-.84.47-1.35-.2-1.18.3-2.09,1.04-2.96.86-1.01,1.75-1.98,1.49-3.55-.14-.86.59-1.61,1.28-2.01,3.22-1.86,4.31-5.27,6.17-8.13.38-.58-.01-1-.14-1.47-.67-2.33-1.42-4.63-.96-7.12.23-1.32.73-2.5,1.59-3.46,1.19-1.29,2.48-2.49,3.75-3.71.69-.65,1.55-1.05,2.49-1.16,1.42-.16,2.67-.41,3.56-1.79.49-.76,1.59-.89,2.45-1.2,1.53-.53,2.61-1.47,2.96-3.09.25-1.17,1.05-1.85,2-2.43.94-.57,1.79-1.21,1.84-2.49.01-.36.31-.8.6-1.05,1.43-1.2,2.04-2.82,2.41-4.56.44-2.09,1.44-3.83,3.07-5.22.91-.78,1.69-1.61,1.66-2.99-.01-.91.79-1.52,1.4-2.13,1.22-1.23,2.78-2.16,3.25-4.03.2-.76,1.12-1.01,1.84-1.33,1.4-.62,2.82-1.23,4.24-1.84,1.28-.57,1.76-1.56,1.49-2.89-.82-4.07-.23-8.14-.16-12.22.04-1.53.76-2.86,1.48-4.19.63-1.17,1.31-2.32,1.08-3.78-.14-.86.57-1.53,1.08-2.16,1.12-1.37,1.63-2.83,1.06-4.58-.1-.33-.15-.78-.01-1.07,1.43-3.1.95-6.38.83-9.61-.14-3.33.05-6.6.87-9.83.74-2.9.14-5.86.52-8.78.8-6.16,1-12.36.2-18.54-.21-1.61-.81-3.09-1.39-4.57-.97-2.51-1.47-5.04-.87-7.72.11-.44.07-.92.06-1.39-.05-1.15-.36-1.69-1.8-1.82-3.09-.3-5.94.31-8.76,1.38-.63.23-1.31.52-1.95.48-1.97-.1-3.61.63-5.12,1.8-.51.39-1.11.53-1.75.44-.42-.05-.84-.06-1.19.21-2.75,2.12-5.73.92-8.59.44-1.5-.26-2.13-1.86-2.75-3.18-.36-.78-.78-1.13-1.7-1.19-1.44-.1-2.85-.48-4.26-.74-1.42-.26-2.78-.09-4.09.51-1.34.62-2.61,1.28-4.09,1.66-.92.25-2.21.48-3.03,1.36-.17.2-.57.31-.85.3-1.79-.09-3.29.79-4.87,1.4-1.74.67-3.43,1.4-5.35,1.39-.46-.01-.91.06-1.22.52-.14.18-.42.42-.62.39-1.31-.16-2.48.54-3.68.64-6.85.59-13.6,2.17-20.56,1.55-2.54-.22-5.17.06-7.42,1.66-.34.25-.76.26-1.19.23-3.76-.18-5.78,2.46-7.92,4.9-.38.43-.33,1.06-.32,1.64.06,2.06-.83,3.03-2.88,3.07-1.24.02-2.49-.02-3.72-.05-1.45-.02-2.5.63-2.99,1.98-1.44,3.91-4.55,6.38-7.79,8.56-1.31.9-3.07,1.4-4.48,2.17-1.58.85-3.13,1.11-4.78,1.33-.8.1-1.63-.02-2.45-.02s-.68-.65-.8-1.1c-.44-1.59-.85-3.19-1.31-4.77-.23-.81-.7-1.31-1.69-1.21-.94.1-1.24.73-1.36,1.44-.12.75-.15,1.55-.06,2.32.39,3.93-1.81,6.63-4.3,9.19-.64.67-1.36.09-2.03.01-.69-.09-.67-.64-.73-1.18-.26-2.46-2.77-4.14-4.88-3.3-.9.36-1.37.83-.84,1.88.63,1.23,1.17,2.53,1.69,3.81,1.63,4,.43,7.56-2.69,10.53-1.15,1.08-2.01,1.76-3.51,1.65-.09,0-.21.05-.27.12-2.16,2.34-4.71.94-7.12.75-.72-.06-1.34-.44-1.54-1.13-.36-1.29-1.22-1.4-2.28-1.15-.9.21-1.52.11-1.54-1.02,0-.47-.21-.97-.62-1.19-1.93-1.13-1.1-2.98-1.19-4.57-.02-.54.37-.94.87-1.18,2.14-1.07,3.76-2.89,5.79-4.13.73-.44.55-.95.37-1.56-.21-.72-.62-.94-1.38-.83-1.18.17-2.3.57-3.38,1.06-1.64.71-3.29,1.13-5.1.85-1.86-.28-3.57.12-5.16,1.16-1.38.9-2.89,1.55-4.48,2.06-1.6.52-3.02,1.33-3.81,2.93-.16.32-.43.64-.73.8-1.96,1.08-3.08,2.83-3.97,4.79-.36.78-1.05,1.26-1.75,1.71-2.17,1.45-2.41,2.33-1.38,4.8.14.31.26.64.51,1.24-1.32-.42-2.17-.94-2.55-2.06-.43-1.28-1.01-2.46-2.03-3.41-.81-.75-.97-1.66-.33-2.64.37-.54.48-1.18.42-1.79-.23-1.82.65-2.85,2.22-3.62,1.93-.96,3.79-2.08,5.7-3.13.76-.42,1.55-.81,2.48-.7.42.06.96.01,1.12-.38.53-1.31,1.56-1.28,2.69-1.16.74.07,1.34-.17,1.56-.95.27-.95.94-1.28,1.85-1.33.84-.06,1.32-.53,1.42-1.37.16-1.39.23-2.78-.07-4.16-.32-1.44-.23-2.73,1.13-3.65.26-.16.49-.37.54-.71.35-2.46,1.98-3.6,4.07-4.72,1.07-.59,2.28-1.01,3.3-1.76,1.21-.87,2.7-.69,4.05-.49,2.55.37,4.82,1.47,6.79,3.15.94.8,1.48,1.82,1.86,2.97.18.53.37,1.1.71,1.53.86,1.07,2.3.86,2.83-.39.57-1.37.79-2.76.11-4.19-.22-.46-.39-.95-.58-1.43-1.07-2.67-.92-3.02,1.66-4.23.38-.17.89-.44,1.18-.21,1.87,1.48,4.84.68,6.27,3.18.76,1.33,2.29,1.86,3.81,2.18,2.04.43,2.92-.09,3.6-2.07.17-.53.39-1.1.76-1.5,1.47-1.65,1.49-3.5,1-5.52-.71-2.96.78-4.41,3.78-3.91,1.79.31,3.44,1.43,5.41.84.39-.12,1.01.41,1.52.65,1.32.68,2.49.58,3.45-.64,1-1.26,2.06-2.33,3.88-1.95.39.07.76-.07.89-.46.43-1.43,1.82-1.42,2.81-2.07,4.07-2.66,8.73-1.29,13.07-2.18,8.28-1.7,16.47-3.75,24.7-5.67,4.18-.97,8.51-.94,12.67-2.02,2.82-.75,5.85-.84,8.32-2.67.2-.14.52-.22.74-.16,2.18.53,4.04-.48,5.98-1.17.48-.17,1.03-.42,1.49-.33,2.6.54,5-.35,7.43-.94,1.72-.41,3.38-.14,5.05.21,1.95.41,2.55-.16,2.51-2.16,0-.46-.04-.92-.05-1.39-.01-1.74.52-2.48,2.21-2.81.89-.17,1.66-.38,2.24-1.18.55-.76,1.48-.64,2.29-.59,1.17.09,2.35.28,3.54.38.91.07,1.86.32,2.69-.33.38-.3.64-.14.92.15.22.21.49.59.69.55,2.03-.3,3.95.1,5.81.86,1.06-1.11,2.39-.37,3.59-.53.18-.02.46-.12.52-.26.74-1.79,2.25-1.28,3.6-1.22,1.16.06,2.08-.48,3.12-.81,2.23-.71,4.35-1.81,6.62-2.27,1.47-.3,2.8-.57,4.18-1.27,2.23-1.13,5.08-.54,7.13-2.37,3.83.36,7.56-1.27,11.46-.42,7.54,1.64,15.29,2.32,22.68,4.71,1.76.57,3.62.86,5.49.8,2.41-.09,3.17-1.03,2.27-3.22-1.27-3.08-1.77-6.06-.33-9.25.51-1.1.42-2.43.32-3.67-.17-2.5-.64-5.04.92-7.37.3-.44.23-1.22.15-1.81-.34-2.49.25-4.8,1.06-7.12.73-2.09,1.47-4.19,1.42-6.46-.06-2.96-1.34-4.14-4.29-4.24-8.09-.31-16.21-.34-24.27-1.21-3.75-.41-7.16-1.9-10.62-3.2-1.54-.58-2.99-1.39-4.69-1.52-.59-.05-.97-.54-1.42-.89-1.86-1.43-3.81-2.6-6.22-2.85-.33-.04-.73-.2-.95-.43-1.69-1.71-3.89-2.24-6.09-2.83-1.33-.36-2.76-.53-3.71-1.71-.3-.37-.76-.26-1.17-.26-.58-.01-1.26-.01-1.61-.42-1.69-1.88-3.97-1.76-6.16-1.95-3.24-.3-6.5.26-9.73-.34-1.58-.3-3.14-.63-4.11-2.14-.36-.54-1.03-.64-1.61-.86-2.01-.8-2.61-1.68-2.67-3.86-.02-1.36.14-2.69.53-3.97.31-1,.06-1.64-.92-1.9-2.72-.73-4.66-2.55-6.46-4.58-.7-.81-1.45-1.63-2.56-1.95-.14-.02-.37-.17-.36-.21.48-1.86-1.93-2.59-1.71-4.39.05-.36-.33-.84-.63-1.18-.97-1.12-1.76-2.29-1.72-3.86.01-.47-.14-.92-.62-1.16-.54-.28-.73-.7-.58-1.28.04-.15.05-.42,0-.44-2.53-1.01-1.11-3.76-2.38-5.36-.69-.85-.9-2.07-2.01-2.65-.49-.26-.69-.81-.62-1.34.15-1.24-.44-1.93-1.55-2.32-.55-.2-.74-.57-.73-1.2.04-1.98-1.34-3.23-2.69-4.37-.42-.37-.79-.6-.75-1.15.07-1.38-.68-2.23-1.72-2.9-1.13-.7-1.74-1.71-1.97-3.01-.09-.49-.22-1.18-.57-1.39-2.92-1.75-3.33-5.54-6.1-7.39-.63-.42-1.17-1.02-.89-1.96.05-.2-.14-.67-.25-.68-2.28-.28-1.45-3.3-3.4-3.87-.07-.01-.14-.15-.17-.25-.25-.69-.14-1.6-1.07-1.9-1.24-.42-2.55-.58-3.78-.04-2.57,1.15-5.25,1.4-8.01,1.24-2.82-.15-3.84-.94-4.6-3.66-.52-1.92-1.33-2.39-3.3-1.81-.89.26-1.79.57-2.61.96-1.72.83-2.98-.57-4.44-.92-.42-.1-.17-1.05-.17-1.6,0-1.77-.48-2.39-2.25-2.4-1.22-.01-1.68.99-1.82,2.06-.15,1.17-.15,2.37-.3,3.55-.12,1-.36,1.97-1.7,1.96-.18,0-.44.11-.54.25-1.15,1.79-3.01,1.52-4.72,1.63-.68.05-1.36,0-2.01.09-2.93.37-4.96-.94-6.44-3.33-.28-.47-.48-.97-1.23-.99-.79-.02-.71-.76-.7-1.32,0-1.1-.22-2.06-1.34-2.54-.69-.3-.62-.81-.33-1.27,1.12-1.84.52-4.04,1.32-5.98.38-.96-.33-1.84-1.5-2.13-1.7-.42-3.26.27-4.88.53-.5.09-1,.27-1.5.01-1.68-.9-3.39-.67-5.1-.12-.99.3-1.85.31-2.77-.3-.94-.62-1.93-.2-2.71.48-.76.68-1.65,1.05-2.61,1.24-1.08.21-1.92.62-2.66,1.6-.86,1.15-2.25.68-3.44.25-1.34-.49-2.34-1.21-1.89-2.94.22-.85.14-1.75-.09-2.61-.55-2.11.14-3.07,2.34-3.28,2.19-.2,4.35.16,6.43.74,3.36.95,6.71,1.54,10.21.85,1.27-.25,2.55-.07,3.81.37.47.17,1.01.26,1.5.21,2.12-.25,4.18-.12,6.28.28,2.18.42,3.02-.75,2.16-2.83-.59-1.42-1.34-2.81-2.29-4.02-.54-.69-.43-1.01,0-1.52.99-1.19,2.12-2.32,1.7-4.1-.09-.38.17-.58.53-.6,1.12-.06,1.71-.84,2.22-1.7.53-.9,1.34-1.27,2.33-1.27,3.31-.02,6.59.33,9.86.92.25.05.64.12.7.27.78,2.21,3.71,2.85,3.88,5.52.06.95.75,1.41,1.86,1.38,1.31-.05,2.51.75,3.93.38.69-.18,1.22.65,1.54,1.34.62,1.33.8,2.76.9,4.2.11,1.75.01,3.54.6,5.21.54,1.52,1.15,1.76,2.57,1.06,1.7-.83,3.09-2.06,4.4-3.39.25-.23.42-.59.49-.94.67-3.09,3.22-4.19,6.09-2.73,2.8,1.4,4.8,3.54,6.22,6.25.49.94,1.02,1.24,2.06.96,3.57-.99,7.03-.64,10.44.79.75.32,1.71.21,2.39.48,1.58.68,3.41.92,4.64,2.3.57.63.63,1.18-.28,1.65-1.65.86-3.18,1.91-4.41,3.33-.15.16-.39.25-.47.42-.38,1.05.32,2.17-.67,3.33-.95,1.11.35,2.12,1.21,2.93.36.34.46.65.43,1.18-.06,1.93.6,3.62,2.06,4.96.47.44.87.83.79,1.69-.11.97.94,1.21,1.7,1.4.81.22,1.16.57.84,1.42-.34.9-.11,1.66.75,2.11,1.26.65,1.43,2.59,3.2,2.62.28.01.33.38.26.64-.32,1.36.57,2.08,1.43,2.86,1.06.95,2.38,1.69,2.57,3.34.04.34.42.42.68.57.26.16.75.33.74.47-.22,2.43,3.03,3.55,2.3,6.15-.04.11.02.36.14.42,2.03,1.27,1.21,3.45,1.63,5.22.22.95.35,1.92.91,2.75.95,1.38,1.2,3.03,1.8,4.47,1.01,2.38,1.69,4.95,3.02,7.17.79,1.31,2.23,1.68,3.71,1.18,1.52-.5,2.99-.92,4.61-1.16,3.98-.54,5.58-.39,9.38,1.7.39.22.86.54,1.27.5,1.16-.14,1.85.47,2.48,1.27.73.9,1.61,1.39,2.82,1.26,1.21-.14,2.01.7,2.88,1.32,1.02.73,2.02,1.45,3.4.91.33-.12.73-.12,1.04.14,2.61,2.12,5.77,1.66,8.76,1.74,3.77.09,7.54-.01,11.31-.21,1.15-.05,2.13-.2,3.22.41.73.42,1.69.53,2.55.57,2.8.11,5.35,1.02,7.8,2.29.74.38,1.49.7,2.37.59.09-.01.25-.05.3.01,1.42,1.36,3.68,1.16,4.99,2.44,1.47,1.44,3.18,2.24,4.97,3.02,1.31.57,2.73.92,3.57,2.28.21.32.79.53,1.22.57,1.06.11,1.84.55,2.38,1.49.17.28.49.65.79.69,1.84.22,2.97,1.54,4.3,2.59,1.91,1.5,3.41,1.06,4.09-1.21.32-1.1.87-1.97,1.8-2.6.9-.63,1.32-1.44,1.05-2.53-.27-1.02.12-1.7.84-2.44,1-1.03,1.61-2.38,1.97-3.79.11-.41.14-1.12.31-1.16,1.96-.39,2.4-2.54,3.91-3.34.83-.43,1.53-.81,1.82-1.7.37-1.07,1.08-1.47,2.23-1.5,2.48-.06,2.8-.68,2.28-3.08-.52-2.45.81-4.47,1.87-6.51.26-.51,1-.57,1.55-.54,1.98.1,2.99-1.11,3.71-2.7.83-1.86,1.26-3.86,2.83-5.41.84-.84.43-2.28-.14-3.38-.63-1.17-1.4-2.25-1.68-3.62-.17-.86-.99-1.28-1.69-1.72-5.7-3.67-6.6-10.95-1.93-15.88,1.93-2.03,4.24-3.4,6.99-4.07,1.39-.33,2.66,0,3.97.26,2.34.47,3.62-.3,3.98-2.62.32-2,.89-3.79,2.39-5.24,1.05-1.01,1.22-2.4,1.18-3.75-.14-6,.55-11.97.43-17.96-.11-4.89.5-3.97-4.18-5.19-2.04-.54-4.07-1.13-6.02-1.93-2.43-1.01-4.89-1.92-7.49-2.39-1.85-.32-3.52-1.17-5.16-2.03-2.66-1.4-5.41-2.5-8.44-2.91-1.66-.22-3.15-.83-4.67-1.77-1.95-1.24-4.4-1.34-6.75-1.22-2.49.12-4.62-.69-6.39-2.45-.21-.21-.52-.33-.81-.43-3.83-1.23-6.36-3.87-7.87-7.49-.76-1.81-1.98-2.97-3.81-3.54-2.12-.67-4.05-1.5-5.13-3.67-.6-1.21-1.93-1.31-3.08-1.52-1.45-.26-2.66-.74-3.29-2.19-.32-.75-1.01-1.01-1.77-1.01-.99-.01-1.97-.02-2.94.01-1.33.05-2.45-.26-3.2-1.47-.48-.76-1.21-1.02-2.11-1.03-1.47,0-2.87.22-4.27.62-1.13.32-1.56,1.08-1.2,2.11.58,1.59.05,2.8-.99,3.94-.43.5-.81,1.06-1.23,1.59-1.56,1.98-3.28,2.21-5.38.79-5.28-3.55-4.62-11.42-2.19-14.91.34-.49.91-.83,1.38-1.22h4.64Z"/>
  </g>
</svg>