<?xml version="1.0" encoding="UTF-8"?>
<svg id="Layer_2" data-name="Layer 2" xmlns="http://www.w3.org/2000/svg" viewBox="0 0 610.68 654.5">
  <defs>
    <style>
      .cls-1 {
        fill:#808080
      }
    </style>
  </defs>
  <g id="Layer_1-2" data-name="Layer 1">
    <path class="cls-1" d="m1.88,117.11c7.19-7.27,20.91,4.79,27.53,7.68,24.92,10.74,57.78,10.81,79.24,28.52,8.51,7.13,14.98,9.87,25.36,13.99,17.1,6.76,18.91,29,24.54,44.01,4.77,12.58,12.62,24.25,20.54,35.18,7.79,10.67,13.11,23.91,22.14,33.54,9.25,9.92,21.15,6.67,31.81,13.27.61-8.13,2.51-20.63-5.26-26.27-.42-.34-13.44-9.91-13.44-9.91-5.92-3.73-13.32-15.76-16.95-21.97-6.85-12.41-10.33-30.52-14.07-43.63-3.63-12.91-7.01-25.04-8.67-38.4-2.15-17.06-7.83-40-16.95-54.66-8.76-14.01-25.74-15-37.25-25.54-5.31-4.81-9.61-11.36-14.28-15.98-16.38-15.89-34.99-28.75-52.5-43.05C47.27,8.82,41.64-.12,54.33,0c14.8.01,27.81,14.11,37.21,23.92,11.84,12.29,23.53,22.94,38.07,31.98,23.92,14.72,53.04,34.4,60.93,63.2,2.6,9.55,6.16,17.72,10.71,26.43,11.48,21.39,6.8,49.49,11.91,72.59,2.6,11.32,6.92,27.67,16.64,35.16,11.5,9.09,24.38-.18,15.38-13.3-11.54-16.76-15.26-31.16-14.81-51.05.55-16.09-2.71-37.98,9.7-50.73,3.93-4.06,9.3-5.23,11.6-11.08,1.72-4.65.85-10.04-.45-14.63-2.69-8.97-9.49-18.76-18.82-21.77-4.51-1.36-12.11-1-12.18-7.26,0-5.47,6.89-9,11.66-8.76,10.69.76,18.28,11.5,26.39,17.33,10.7,7.67,13.84,19.67,11.24,32.14-2.9,13.84-12.02,22.74-17.7,34.93-8.16,17.18-8.27,41.5-4.08,59.51,1.42,5.83,1.33,14.42,6.75,18.24,4.56,3.14,10.75,2.19,15.4.34-6.56-6.61-10.52-29.81-9.82-39.02.45-6.33,1.96-12.7,2.86-18.95,17.1-8.55,17.68,8.12,17.08,20.37-.37,7.92-2.39,31.22,8.42,34.12,6.28,1.79,15.8-.01,22.29-.63,3.53-.34,7.53,1.76,11.64.63,10.66-2.9,8.58-26.2,8.3-34.12-.7-12.25-.15-28.92,16.95-20.37.94,6.24,2.45,12.62,2.9,18.95.67,9.21-3.14,32.4-9.85,39.02,4.74,1.84,10.94,2.79,15.38-.34,5.38-3.82,5.38-12.41,6.67-18.24,4.36-18.01,4.27-42.32-3.83-59.51-5.77-12.19-14.92-21.1-17.79-34.93-2.57-12.47.54-24.47,11.33-32.14,8.06-5.82,15.52-16.56,26.3-17.33,4.69-.24,11.73,3.3,11.73,8.76-.12,6.26-7.8,5.9-12.24,7.26-9.39,3-16.04,12.8-18.72,21.77-1.42,4.58-2.36,9.98-.52,14.63,2.24,5.85,7.64,7.03,11.54,11.08,12.35,12.76,9.21,34.64,9.72,50.73.52,19.88-3.32,34.29-14.89,51.05-8.88,13.11,4.05,22.39,15.59,13.3,9.51-7.48,13.95-23.84,16.55-35.16,5.05-23.1.42-51.21,11.85-72.59,4.52-8.71,8.21-16.88,10.84-26.43,7.82-28.79,36.94-48.48,60.8-63.2,14.68-9.04,26.29-19.69,38.16-31.98C528.47,14.12,541.56.01,556.33,0c12.65-.12,7.04,8.82.66,13.89-17.55,14.3-36.3,27.16-52.56,43.05-4.74,4.63-8.97,11.18-14.17,15.98-11.66,10.54-28.54,11.53-37.3,25.54-9.09,14.66-14.8,37.6-16.97,54.66-1.68,13.36-5.09,25.48-8.76,38.4-3.69,13.11-7.04,31.22-14.02,43.63-3.41,6.21-10.99,18.24-16.97,21.97,0,0-12.87,9.57-13.39,9.91-7.64,5.64-5.8,18.14-5.17,26.27,10.57-6.6,22.57-3.35,31.72-13.27,9-9.63,14.38-22.86,22.23-33.54,7.86-10.93,15.56-22.6,20.37-35.18,5.7-15.01,7.42-37.25,24.64-44.01,10.36-4.13,16.8-6.86,25.5-13.99,21.3-17.71,54.23-17.78,79.05-28.52,6.71-2.89,20.49-14.96,27.58-7.68,9.64,9.75-20.06,14.28-24.71,17.49-16.67,11.54-32.77,20.61-51.93,28.13-11.44,4.52-27.58,6.18-35.95,16.01-6.61,7.79-7.13,19.12-14.59,26.41-7.74,7.55-17.43,12.51-22.23,22.53-4.39,8.93-4.81,19.14-9,28.12-4.32,9.28-10.91,17.62-16.47,26.21-8.6,13.37-24.01,19.95-38.45,25.39-6.34,2.4-16.06,3.77-20.05,10.08-3.32,5.12-3.23,13.84-4.23,19.79,6.34.46,12.93,1.24,19.3,1.33,14.54.19,28.19-5.42,42.17-8.54,19.91-4.48,42.21-2.61,59.72,8.72,16.98,11.17,33.07,25.67,43.66,43.15,4.8,8.12,9.33,16.99,11.18,26.31,1.84,9.69,1.51,20.36,6.76,29.16,5.14,8.53,16.14,12.2,19.49,22.05,3.27,9.65-7.46,11.11-13.77,6.35-6.4-4.7-9.55-12.21-12.97-19.08-3.11-6.23-7.85-12.37-9.57-19.16-2.06-8.12-1.09-16.76-3.85-24.75-2.65-7.7-8.6-13.56-14.77-18.61-7.79-6.29-12.89-14.31-19.9-21.24-4.74-4.72-11.82-5.43-17.86-7.38-21.93-7.27-44.83-2.83-67.24-1.54-15.17.83-30.15,1.24-45.37.78,0,0-2.94,17.02-3.51,18.78-.82,2.62,18.96,13.3,21.08,14.64,12.14,7.4,21.02,19.07,32.07,27.95,13.25,10.86,26.74,17.34,33.42,34.29,6.89,17.92,18.42,33.59,28.03,50.13,7.55,13.2,15.26,27.24,17.88,42.43,2.33,14.52.58,29.44,2.9,43.91,3.03,18.51,11.64,35.53,16.75,53.44,1.81,6.06,2.6,17.34-7.14,13.22-12.68-5.27-13.82-29.73-15.34-40.7-2.18-16.46-4.53-31.12-14.7-44.64-11.73-15.61-12.24-31.63-15.38-50.02-1.7-11.06-9.34-19.1-14.93-28.32-6.46-10.9-9.6-23.53-17.27-33.65-8.64-11.39-20-20.89-29.78-31.21-6.07-6.24-15.59-11.81-22.84-17.22-7.99-5.96-21.82-19.79-31.9-20.77-8.2-.84-5.28,7.17-3.32,12.72,3.8,10.53,12.68,17.96,17.07,28.11,6.03,13.84,12.23,30.87,14.35,45.86,1.36,10.08-.91,20.16-1.36,30.22-1.18,25.44-8.85,50.93-29.19,67.53-5.65,4.57-12.53,7.84-16.67,13.98-5.51,8.13,1.62,21.35,5.38,28.84,1.87,3.76,10.24,15.98,6.97,20.45-5.61,7.97-17.97-17.53-19.21-21.87-2.53-8.24-4.53-16.49-7.79-24.5-.94.14-1.78.23-2.73.38v.83c-2.02,0-3.84-.15-5.73-.25-1.82.1-3.62.25-5.53.25v-.83c-.9-.15-1.87-.24-2.83-.38-3.27,8.01-5.17,16.26-7.67,24.5-1.33,4.35-13.67,29.84-19.37,21.87-3.2-4.47,5.17-16.69,7.04-20.45,3.75-7.5,10.94-20.71,5.41-28.84-4.23-6.14-11.12-9.41-16.73-13.98-20.36-16.6-27.95-42.09-29.12-67.53-.46-10.06-2.78-20.13-1.3-30.22,1.96-14.98,8.22-32.02,14.35-45.86,4.32-10.15,13.2-17.58,17.04-28.11,1.94-5.55,4.89-13.56-3.35-12.72-10.1.97-23.96,14.81-32,20.77-7.13,5.42-16.68,10.98-22.65,17.22-9.85,10.32-21.31,19.82-29.84,31.21-7.71,10.12-10.94,22.75-17.41,33.65-5.4,9.22-13.07,17.26-14.92,28.32-2.96,18.39-3.57,34.41-15.23,50.02-10.21,13.52-12.56,28.19-14.77,44.64-1.48,10.98-2.6,35.43-15.24,40.7-9.82,4.12-9.07-7.16-7.31-13.22,5.16-17.92,13.72-34.93,16.83-53.44,2.32-14.47.57-29.39,3.11-43.91,2.5-15.19,10-29.23,17.67-42.43,9.61-16.54,21.11-32.2,28.12-50.13,6.68-16.95,20.1-23.43,33.35-34.29,11.05-8.88,19.93-20.54,32.02-27.95,2.2-1.34,21.93-12.02,21.06-14.64-.63-1.75-3.48-18.78-3.48-18.78-15.1.46-30.27.05-45.22-.78-22.49-1.29-45.42-5.73-67.45,1.54-6.04,1.95-12.98,2.66-17.72,7.38-6.98,6.93-12.15,14.96-20.03,21.24-6.05,5.05-11.99,10.91-14.62,18.61-2.78,7.99-1.8,16.63-3.86,24.75-1.69,6.79-6.52,12.93-9.61,19.16-3.44,6.87-6.61,14.38-12.87,19.08-6.4,4.76-17.12,3.3-13.77-6.35,3.27-9.84,14.32-13.52,19.4-22.05,5.38-8.8,4.92-19.47,6.71-29.16,1.9-9.33,6.43-18.2,11.32-26.31,10.58-17.49,26.62-31.98,43.5-43.15,17.52-11.33,39.87-13.2,59.81-8.72,14.02,3.12,27.64,8.72,42.06,8.54,6.46-.09,12.98-.87,19.47-1.33-1.12-5.96-1-14.67-4.23-19.79-4.16-6.31-13.77-7.68-20.24-10.08-14.26-5.44-29.71-12.02-38.39-25.39-5.51-8.59-12.21-16.93-16.43-26.21-4.21-8.98-4.53-19.19-8.98-28.12-4.74-10.03-14.53-14.98-22.2-22.53-7.52-7.29-7.95-18.62-14.65-26.41-8.34-9.83-24.65-11.49-36.01-16.01-19.14-7.52-35.22-16.59-51.96-28.13-4.58-3.2-34.13-7.74-24.59-17.49h0Z"/>
  </g>
</svg>