<?xml version="1.0" encoding="UTF-8"?>
<svg id="Layer_2" data-name="Layer 2" xmlns="http://www.w3.org/2000/svg" viewBox="0 0 621.17 654.5">
  <defs>
    <style>
      .cls-1 {
        fill:#808080
      }
    </style>
  </defs>
  <g id="Layer_1-2" data-name="Layer 1">
    <path class="cls-1" d="m604.45,120.21c-1.42-12.79,6.25-37.26,12.67-55.9,11.94-34.49-3.19-65.8-37.21-64.25-21.54.91-38.68,7.21-60.62,18.35-21.95,11.18-123.93,70.04-131.87,77.44,0,0-8.99-47.62-14.13-51.64-16.43-12.74-49.61-1.83-90.18,33.69-39.27,34.47-70.68,103.73-88.15,201.29-5.73,32.26-8.33,81.93-9.41,97.56-7.46-3.87-7.4-11.16-19.99-12.18-2.68-5.28-20.73-39.54-35.57-52.03-23.36-19.6-82.59-50.3-88.12-56.54-6.08-1.69-10.17,2.66-5.12,10.27,2.15,3.24,23.19,11.89,30.73,14.54,7.52,2.66,40.76,18.76,61.08,37,15.3,13.63,25.19,41.92,30.51,46.41-23.84-25.51-61.48-46.48-77.32-50.05-8.25-1.88-68.64-23.18-76.8-22.34-8.24.85-4.56,7.01-.71,8.81,6.03,2.89,43.64,7.72,77.63,18.7,34.61,11.23,74.94,49.59,74.94,49.59-1.98,3.97-7.05,13.25-7.05,14.7,0,.96,1.43,5.98,2.34,9.33-7.84,5.47-17.63,11.55-20.97,11.94-11.43,1.42-46.15,3.57-55.93,19.15-5.34,8.39-5.39,17.02-.61,25,4.76,7.78,12.15,10.06,21.48,9.3,12.72-1.06,14.7-12.61,11.58-18.11-2.49-4.31-7.1-5.96-11.48-4.31-4.69,1.76-6.18,5.33-5.55,8.27,1.06,4.46,8.19,3.88,9.19,4.62,0,0-6.97-3.46-6.11-6.82.83-3.24.51-1.98,3.9-3.24,3.64-1.46,5.7,1.54,6.21,2.44,2.42,4.22,3.13,12.16-7.4,12.97-8.05.67-14.48-2.18-17.97-7.96-3.64-5.98-3.39-14.03.7-20.52,6.93-11.04,37.94-13.52,54.88-15.64,5.05-.66,15.11-7.21,21.71-11.98,1.77.97,3.51,1.52,3.51,1.52,1.37,8.64,1.12,12,10.22,18.36.45,3.06.52,2.9-10.79,7.4-22.78,9.21-23.9,3.97-25,15.71-3.22,10.64-11.63,27.34-15.56,33.1-2.94,2.6-6.76-2.19-8.58-1.89-4.88.73-2.28,1.12-1.71,2.09-7.11,0-9.66-1.93-7.11,1.1-1.64.21-4.25.91-5.79,3-.27.25-.46,1.02-.72,1.61.97.39,1.87.85,2.88,1.31,1.27-.7,2.63-1.43,3.64-1.83-2.03,4.49-.1,3.86,7.4-.24-1.18,4.54.12,3.04,4.73.76,6.56-3.19,8.1,1.9,10.32-3.42,6.76-8.18,13.23-28.64,15.97-39.09,9.72-1.02,21.43-4.27,33.1-12.26,2.58-1.82,4.73-3.51,6.61-5.24l.91,1.27c-1.99,5.07-3.17,11.37-2.39,16.18,4.03,22.72-1.94,53.54,1.54,59.59-.24,13.88-23.02-.91-29.16,2.73-4.32-2.27-5.12-3.39-9.98-1.69-2.79.98-4.08-.05-5.05,3.3-1.49,5-2.22,4.25-.7,3.12,4.78-3.57,10.81-3.7,12.84-1.99,1.94,1.61-1.03,1.21-2.39,2.56-1.97,1.64.3.55,4.84.91,3.7.35,2.37-2.12,5.07-1.87,2.71.39,7.54.91,10.99-.4-.91,1.52-.34,1.76,3.42,1.63,3.76-.11,14.21,2.85,15.45-7.84,2.55,2.2,2,1.43,1.54-7.03-1.32-22.05-.3-47.78-2.96-55.74-.86-2.49.72-3.31,2.05-3.7,2.55,9.4,13.12,28.17,19.31,38.53-17.34,29.25-10.67,22.67-8.91,27.66,5.45,15.39,22.78,31.3,38.52,67.32-1.71,3.7-4.62,2.85-6.2,4.43-1.48,1.48-6.87,2.13-8.42,1.82-1.57-.46-6.57,1.54-7.78,2.45-1.25.97-5.73,1.31-7.21.78-1.03-.39-3.98-.78-6.71.12-1.54,1.29-2.9,2.27-3.96,3.06-.19.32-.24.57-.36.91.7.06,1.48.19,2.27.24.06-.05.12-.12.19-.17,1.93-1.71,4.21,1.87,6.42.32-.35.25-.45.31-.7.57.45,0,.9.06,1.36.12,1.43.29,2.28.97,3.36,1.58,1.71-.61,3.36-1.58,4.61-3.12.91-1.29,1.77-.78,3.64-.45,1.94.32,6.37-1.88,9.28-3.4,2.94-1.48,5.73-1.27,7.27-.97,1.63.21,1.57,1.31,6.06-1.42,4.54-2.73,2.33,2.34,5.05-.06,2.68-2.39-.73-6.24-4.21-12.14-10.21-16.82-30.91-59-36.07-63.1,3.65-5.66,7.56-7.21,11.32-12.6,16.57,24.83,34.35,44.27,39.14,48.57,5.45,4.86,18.91,22.78,22.55,25.36,3.75,2.6,14.54,20.27,22.96,9.64,8.39-10.73-22.85-61.48-25.46-66.36,14.54,3.7,93.81,126.07,139.59,143.6,67.12,25.77,84.14-3.37,91.66-25.19,4.81-14.03,9.42-14.6,17.93-20.33,8.55-5.7,8.89-43.23,17.18-50.81,13.12-12.28,14.42-20.85,14.94-36.3.57-15.39,1.1-21.94-7.45-36.14-8.64-14.31-.8-23.06-9.93-37.66-17.95-28.62-63.06-38.05-66.76-40.62,0,0,40.72-6.18,70.45-23.58,15.31-8.96,17.59-19.92,21.81-26.02,4.26-6.25,28.16-14.14,23.29-35.21,0,0,17.99-9.98,15-30.86-.86-5.4,12.45-11.13,10.11-27.94-5.3-38.82,10.61-48.8,9.49-86.42-.91-31.66-13.71-34.26-15.06-47.11"/>
  </g>
</svg>