<?xml version="1.0" encoding="UTF-8"?>
<svg id="Layer_2" data-name="Layer 2" xmlns="http://www.w3.org/2000/svg" viewBox="0 0 654.5 229.18">
  <defs>
    <style>
      .cls-1 {
        fill:#808080
      }
    </style>
  </defs>
  <g id="Layer_1-2" data-name="Layer 1">
    <path class="cls-1" d="m654.08,76.78c-.25-1.54-.67-3.45-2.74-6.58-2.28-3.47-5.16-6.29-10.25-9.96-3.53-2.58-8.64-5.42-13.99-7.88-3.15-1.45-6.04-2.57-8.92-3.63-7.7-2.8-20.53-6.29-25.83-7.51-5.33-1.22-19.1-3.78-23.64-4.32-4.53-.52-16.39-1.31-22.9-1.29-6.53.03-21.01.91-24.07,1.21-3.05.3-14.15,1.76-14.15,1.76,0,0-7.87-7.04-12.78-11.17-4.9-4.08-21.12-17.13-23.66-19.03-2.56-1.91-5.32-4.79-6.14-5.37-.81-.55-1.89-1.23-2.49-1.64-.62-.4-1.05-.99-1.98-.91-.95.1-1.45.35-1.45.35,0,0-.34-.55-.89-.77-.6-.21-.74.27-2.3,1.43-1.58,1.19-10.91,7.92-16.65,12.24-5.74,4.32-23.09,17.45-29.15,22.37-6.07,4.88-14,11.58-17.25,13.77-3.23,2.18-5.54,4.12-7.91,5.85-2.33,1.72-5.49,4.74-6.19,5.38-.67.64-1.01,1.13-2.05.96-1.07-.21-2.65-.5-3.16-.72-.51-.23-2.18-.15-2.88-.74-.71-.58-1.71-.21-2.38-.52-.68-.3-1.57-.4-2.33-.69-.77-.3-2.83-.47-3.42-.79-.6-.33-1-.28-2.01-.18-1.01.1-3.93.68-6.89,1.19-2.93.47-14.73,1.06-18.18,1.14-3.44.09-18.77,1.12-22.61,1.03-3.85-.1-6.77-.45-11.2-1.03-4.48-.57-7.24-1.23-8.18-1.42-.97-.18-1.76-.57-1.81-1.06l-.66-6.56c-.3-3.05-1.85-11.2-2.35-13.32-.47-2.13-1.42-4.9-1.65-5.45-.23-.54-.39-3.89-.58-4.89-.21-1.02-.2-1.2-1.05-1.88-.81-.67-1.11-.83-1.47-1.83-.38-.98-.65-.95-1.59-1.06-.96-.09-.86.84-1.22,1.75-.42.86-.82,2.11-1.29,2.16-.47.05-.38,1.07-.32,1.73.07.64-.11.74-.38,1.63l-2.3,6.94c-1.01,3.01-2.5,5.87-2.63,6.34-.16.49-.44,1.46-1.23,1.06-.79-.39-1.01-.94-1.45-1.45-.43-.52-1.64-1.59-1.69-2.06-.05-.48-.69-.4-1.18-.73-.5-.33-.64-.69-1.08-1.21-.41-.5-.73.08-1-.55-.22-.64-.72-.76-1.37-.89-.67-.11-.84.09-1.28-.43-.41-.51-.89-.57-1.69-.11-.79.46-.66,1.74-.56,2.76.1,1,.35,1.55.5,1.07.14-.5.47-.61,1.02-.76.55-.13.42-.51.63-1.18.21-.65.56-.06,1.15.16.57.22.78.39,1.21.81.41.41.42.43,1.11.84.67.4.34.9,1.16,1.18.77.29.77.38,1.66,1.08,1.67,1.18,2.23,2.57,2.26,2.92.04.4.12,1.19.51,1.28l.85.08.4,1.28.48-1.01s.15-.18.54-.89c.4-.68.55-1.17.62-1.54.05-.38.79-3.1,1.28-4.63.51-1.54,2.96-6.92,3.05-7.97.08-1.02.66-1.1.91-.46.23.64.81,5.53.91,8.43.1,2.88,1.81,10.38,1.92,10.93.16.54.43,1.18.57,1.81.17.63.97,5.05.97,5.05,0,0-7.04.53-9.18.65-2.15.09-8.07.04-10.85-.06-2.83-.11-11.64-.52-12.99-.76-1.32-.24-7.04-.6-8.11-.96-1.07-.35-3.64-.86-5.7-.92-2.06-.08-6.6-.47-8.3-.68-1.7-.21-5.93-.53-5.93-.53,0,0-.63-2.25-1.37-3.4-.77-1.14-4.6-9.37-7.38-14.89l-4.41-8.72c-2.27-4.45-4.3-8.4-6.14-12.1-1.28-2.56-2.01-4.42-2.18-4.85-.7-1.4-1.59-2-3.59-2.07-1.96-.1-3.95.67-5.85,1.24-1.9.55-3.27,1.91-5.98,4.53-2.75,2.6-7.03,6.68-8.85,9.01-1.81,2.34-4.8,5.9-5.82,7.03-.44.49-.79.47-.98-.46-.18-.93-.89-2.32-1.03-2.78-.14-.45-1.34-2.13-1.42-2.86-.07-.74.02-.74-.39-1.18-.41-.43-.58-.21-.68-1.22-.1-1.03-.68-2.09-1.18-2.42-.49-.33-.69-.31-.97-1.23-.28-.88-.29-1.19-1.41-1.23-1.15-.08-1.57.25-2.4.24-.85,0-.84,1.01-.1,1.03.74.03,1.49.01,2.14-.06.65-.06.95.09,1.18.55.26.43.06.56-.09.94-.16.41.75.87.75.87l.42.61s.09.84.35,1.46c.23.63.18.17.52.7.35.53.18.72.22,1.09.04.38.67.3,1.25,1.47.57,1.13,2.35,5.75,2.42,6.5.07.75.11,1.09.64.77.54-.33.59.14.63.62.04.43.6.21,1.02-1.06.43-1.25,1.75-2.88,3.28-5.27,1.57-2.41,3.34-4.17,5.19-6.04,1.89-1.86,7.19-6.73,7.97-7.44.76-.74,2.43-1.67,3.36-1.83.94-.18,2.45-.52,3.02-.67.53-.15.81-.18,1.23-.69.42-.52.72-.35.86.1.13.46-.06.48-.07,1.13-.05.64.57,1.34,1.12,2.13.54.79,2.3,4.06,2.3,4.06,0,0-1.65,2.43-1.18,2.38.47-.05,1.99-1.6,1.99-1.6,0,0,4.01,7.54,6.56,12.51,1.57,3.01,4.58,9.64,7.14,14.87,1.71,3.44,3.44,6.48,3.63,6.79.44.78.52,1.47-.7,1.48-1.2.01-3.34.14-5.64-.3-2.28-.42-5.85-.91-6.92-1.26-1.07-.35-2.31-.51-4.71-.27-2.4.23-6.93.88-9.7,1.07-2.79.18-10.03.61-12.59.4-2.54-.22-6.92-1.01-9.11-1.54-2.23-.49-5.77-1.47-6.71-1.64-.94-.2-3.71-.57-8.11-1.63-4.41-1.06-9.6-2.49-10.95-2.94-1.33-.41-3.06-.81-3.82-.91-.77-.1-1.93-.47-5.12-1.54-3.17-1.1-9.18-4.05-10.36-4.6-1.18-.54-2.14-.89-2.61-.94-.47-.03-1.69-.44-4.73-2.43-3.88-2.52-6.04-4.54-6.99-5.36-.92-.85-1.69-1.16-3.13-1.47-1.45-.32-2.29-.6-2.98-.84-.69-.18-1.34-1.34-2.32-2.56-.96-1.23-2.2-1.55-3.06-1.93-.89-.38-2.46-.97-2.89-1.95-.47-.99-1.28-1.38-1.89-1.69-.58-.3-1.1.2-1.67-.79-.56-.96-1.53-2.18-2.85-3.07-1.3-.91-2.12-.91-4.47-.12-2.35.8-2.44,2.68-2.44,2.68,0,0-3.06.22-4.8.47-1.76.25-3.55,1.11-4.53,1.58-.97.46-.91,1.01-.77,2.42.14,1.39,1.26,1.47,1.93.54.63-.89,2.95-1.4,4.83-1.98,1.92-.57,4.35-.52,4.35-.52,0,0,2.61,1.99,4.97,3.14,1.37.67,2.66,1.42,3.01,2.14.37.72.54,3.59.54,3.59,0,0-.33.3-.94.93-.56.62-.79,1.22-1.42,1.38-.68.16-1.4.14-1.78,1.11-.37.97,1.28,1.62,1.69,1.97.43.33.11,1.12-.43,1.18-.57.06-.81.36-.35,1.14.44.8,1.13,1.11,2.15,1.01,1.01-.11,1.38-.14,1.95-1.23.53-1.09.39-1.27.43-2.01.02-.75.13-.57.47-.91.33-.28.13-.64.73-1.1.61-.41.65-.06,1.84-.26l5.02-.96c1.01-.21,1.91.09,2.29.31.4.26.86,1.06,2.64,1.79,1.74.79,6.02,3.72,8.04,4.92,1.99,1.2,3.45,1.89,4.18,2.57.74.69.6,1.35,1.64,1.53,1.04.18,2.03.72,3.41,1.23,1.37.52,7.9,3.54,9.87,4.37,1.95.84,3.47,1.31,4.09,1.73.6.41.55,1.07,2.4,1.45,1.79.38,4.49,1.16,7.92,1.93,3.47.78,10.43,2.31,10.98,2.37.57.02,1.32.96,2.18,1.1.87.1,2.83.28,5.87.7,3.02.46,8.44,1.42,9.7,1.75,1.25.35,1.31.91.36,1-.91.09-5.82-.45-9.03-.89-3.24-.39-15.73-1.98-18.28-2.27-2.55-.33-5.26-.43-7.36-.57-2.05-.17-6.79-.65-8.78-1.02-1.98-.33-4.53-.55-5.37-.46-.83.09-1.15.47-1.64.64-.43.11-1.38.03-2.1.1-.76.07-1.26.69-1.26.69,0,0-1.08.11-2.78,1.01-1.68.91-2.65,1.58-8.86,5.75-2.88,1.93-7.46,4.55-11.88,7.64-5.15,3.66-10.04,7.7-11.32,8.89-2.42,2.22-5.97,4.83-11.16,8.99-2.85,2.27-12.33,10.1-20.78,17.48-6.96,6.09-13.27,12.05-13.94,12.71-1.54,1.45-2.93,2.64-3.74,3.1-.79.45-7.72,2.06-10.54,2.8-2.83.76-9.52,2.08-10.98,2.23l-11.37,1.23c-.69.07-1.22.21-1.56.55-.33.3-2.54.71-3,.75-.45.05-1.86.28-2.19,1.16-.4.89,0,2.13.84,3,.81.84.73.85,1.04.17.3-.66-.41-1.09-.35-1.64.02-.55.64-.72,1.26-1.33.6-.62.68-.53,1.63-.63l1.1-.11c.84-.08,1.43-.72,1.43-.72,0,0,.29.26,1.06.18.73-.07,1.66-.16,2.35-.61.71-.44,1.1-.29,1.69.02.56.32,1.04.09,1.04.09,0,0,1.1-.29,1.53-.34.48-.05,3.56-1.02,4.44-.65.88.39,1.11-.11,1.52-.51.42-.4-.03-.28,1-.38,1.04-.1,13.63-3.05,15.51-3.6,1.92-.57,3.85-.77,4.49-.84.67-.06.83-.17,1.5-1.06.64-.91,3.73-3.75,7.47-7.58,3.73-3.83,14.72-13.43,20.09-17.73,5.39-4.27,18.27-14.42,22.86-18.17,4.6-3.73,12.71-9.28,16.68-11.65,3.97-2.37,10.31-6.18,11.49-7.14,1.24-.98,2.71-1.12,2.71-1.12,0,0,.6.3,1.12.08.55-.23,1.5-.15,1.5-.15,0,0-.49,1.8,1.74,1.57,1.57-.16,3.76.13,5.16.15,1.4.05,1.14.01,1.2.55.06.55-1.99,2.8-1.99,2.8l2.44-1.91c.96-.77,1.17-1.44,2.45-1.37,1.34.05,15.34.99,20.85,1.67,5.48.68,35.25,4.97,40.4,5.4,5.2.43,14.28,1.47,15.02,1.59.77.11,1.45.34,2.04.64.6.3,1.16.35,1.88.18.74-.18.94.01,1.26.54.35.52,1,.45,2.03-.41,1.04-.85,2.19-.68,2.74-.62.57.03.62.5,1.89.29,1.28-.25,1.83-.59,2.43-1.1.56-.51.98-.4,1.59-.74.62-.3,1.24-.75,2.9-.91,1.68-.17,8.21-.06,11.98.1,3.75.19,17.28.89,21.96,1.18,4.71.28,12.26,1.03,12.94,1.25.66.18.57.88.37,1.62-.21.79-.57,1-1.57,1.29-.99.31-3.04.49-5.18.51-2.15.04-9.2-.28-16.26.12-7.07.45-14.78,1.66-19.29,2.49-4.49.82-16.28,3.41-18.47,3.71-2.23.3-6.63,1.14-7.24,1.38-.64.26-.79.64-.79.64,0,0-.64.16-1.46.43-.82.24-1.32.59-2.66,1.28-1.36.7-2.33,1.16-4.43,3.53-2.12,2.35-6.94,7.99-10.2,11.13-3.25,3.13-8.26,7.92-12.34,11.87-4.09,3.96-26.37,29.02-27.38,30.22-1,1.23-2.28,2.21-2.31,2.85-.05.66-.55.81-1.55,1.28-1,.48-8.96,2.86-10.62,3.21-1.64.35-6.02,1.74-7.3,1.96-1.26.21-5.1.59-5.82.49-.77-.13-2.67.36-3.59.61-.89.29-2.1.41-2.87.85-.84.45-.7,1.76-.36,3.14.32,1.35.55.98.91-.09.38-1.11.06-1.31.78-1.59.72-.24.25-.4,1.15-.77.89-.38,1.14-.66,1.59-.82.44-.13,1.36.62,1.89.3.52-.35.92-.2,1.37-.13.49.05,1,.26,1.71.1.71-.17,1.18-.5,1.72-.56.57-.04.84.03,1.4-.02.55-.06,1.73-.47,2.9-.77,1.2-.31,3.29-.97,4.82-1.49,1.52-.55,4.97-1.54,6.53-1.98l5.34-1.55s.3.06.96,0c.67-.07.67-.54,1.16-1.33.48-.81,2.47-3.51,4.9-6.46,2.39-2.95,13.23-15.17,15.77-17.85,2.52-2.69,11.19-11.49,11.98-12.04.79-.56.99-.4.87.28-.12.69-2.46,3.42-2.07,3.57.38.14.72-1.01,2.08-2.43,1.34-1.45,4.31-4.56,6.9-6.78,2.59-2.23,7.17-5.95,7.83-6.77.67-.81.92-.93.45-1.16-.49-.23-1.06.57-1.39.96-.35.43-1.15-.16-.05-1.38,1.09-1.24,3.15-3.95,4.51-5.21,1.37-1.29,2.72-2.72,3.81-2.92,1.11-.21,1.54.22,2.1.35.6.12,1.86,0,1.86,0,0,0,.32,1.28,1.7,1.05.89-.15,2.28-.42,2.93-.67.61-.27,1.36-.13,1.4.23.04.38-1.11,1.69-.74,1.66.38-.04,2.71-1.85,3.05-2.17.32-.33.69-.64,2.14-.96,1.45-.33,14.18-2.27,20.73-3.1,6.51-.84,21.2-2.78,24.11-3.54,2.91-.75,8.59-2.14,9.96-2.39,1.37-.23,1.74-.07,2.32-.12.55-.05,1.2-.04,1.85-.18.64-.18.66.19,1.31.13.65-.06.46-.13,1.69-.74,1.28-.57,2.2-.6,2.65-.64.47-.05.77.3,1.89.19,1.12-.11,2.51-1.27,3.54-2.01,1.05-.77,1.92-1.51,3-1.8,1.08-.3,9.21-.55,14.03-.84,4.8-.31,16.99-.94,21.93-1.16,4.94-.21,19.18-1.63,20.28-1.74,1.12-.11,4.39-.23,5.31-.18.93.06,1.14.11,1.63.62.46.5.82.05,1.33.13.5.09.19.47.24,1.03.06.55.26,1.72.44,2.18.18.5.79,1.2,1.28,1.66.47.42.47.35.62.78.19.39.08.9.95.87.83-.01,1.18-.06,1.51-.08.38-.04.14.48.85.69.73.21,1.35.21,2.86.69,1.54.47,2.86,1.75,5.1,3.91,2.25,2.15,6.77,8.23,6.96,8.64.19.4.35,1.37.02,1.67-.31.33,0,.56.53.1.48-.45.33-.03.63.08.29.11.43.17.89.53.46.38,1.69,2.98,3.58,6.31,1.12,2.01,2.76,5.82,4.54,9.4,1.16,2.37,2.5,4.62,3.32,6.24,2.1,4.05,8.51,16.95,10.56,21.46,2.06,4.49,11.71,23.86,14.13,29.29,2.43,5.43,11.11,24.28,12.54,27.92,1.42,3.66,4.22,9.97,4.53,11.13.32,1.16.35,1.53,1.17,1.99.83.47,1.33,1.2,2.17,2.57.85,1.43,3.55,6.75,3.98,7.7.44.92.8,1.59,1.9,2.61,1.08,1.02,3.41,4.64,3.78,5.1.4.46.49.64.55,1.34q.08.72.62,1.06c.5.38.4.73-.07,1.56-.45.82-.22,1.28.72,1.62.95.31,1.41.19,2.19-.52.76-.7.08-1.4-.3-1.64-.38-.25-.42-.74-.42-1.5-.01-.79-.42-1.37-1.81-3.14-1.35-1.75-2.75-3.14-3.85-4.44-1.11-1.3-2.05-2.95-3.25-4.94-1.17-1.98-3.37-5.74-3.77-6.43-.41-.65-.56-1.36-.54-1.91,0-.55-.17-.9-.55-1.33-.4-.47-.68-1.13-2.47-5.1-1.8-3.95-9.56-20.65-11.45-24.94-1.91-4.29-8.5-18.36-11.06-23.6-2.54-5.19-8.21-17.53-10.29-21.61-2.08-4.07-8.01-16.67-9.96-20.47-1.91-3.81-5.3-10.41-6.26-12.21-.97-1.8-2.08-3.87-2.37-4.68-.28-.81.05-1.03.04-1.6.04-.56-.64-1-1.75-2.14-1.08-1.15-3.24-3.75-5.2-5.81-1.94-2.04-4.76-4.85-5.38-5.55-.65-.72-1.25-1.28-2.12-1.41-.85-.1-2.23-.12-2.67-.09-.42.04-.96.1-1.01-.46-.06-.56-.23-.89-.25-1.67,0-.76.57-.59,1.13-.64.57-.06.61-.35.76-.86.18-.52.72-.5,1.2-.49.52.03.47.48,1.18.4.68-.06,1.03-.11,1.28.2.24.34.2.57.48.58.26.05.19.06.6.45.4.38.49.5.9.73.47.25.58.79,1.47,1.4.91.64,1.28.66,1.57.99.33.31.36.67.84,1.09.44.46.89.76,1.8.83.94.04,1.59.4,2.38.38.73,0,1.49-.43,2.09-.71.6-.26.77-.55,1.18-.67.43-.12.84.06.9-.73.06-.78.38-1.15.62-1.47.25-.28.93.06,1.32-.13.42-.16.66-.55.66-.55,0,0,1.63-.37,3.27-.69,1.66-.29,19.28-2.73,23.27-3.07,1.69-.14,5.9-.62,9.99-.86,5.47-.3,11.01-.37,12.63-.43,1.47-.02,5.49-.17,9.81.02,4.2.15,8.6.59,12.5.99,8.01.83,19.9,3.61,26.51,5.77,2.64.88,5.68,1.93,8.5,3.09,4.28,1.73,8.17,3.62,10.28,4.72,3.55,1.82,5.72,3.28,9.39,5.53,3.65,2.2,10.04,5.79,14.97,8.88,4.95,3.08,11.59,8.71,17.02,13.43,2.39,2.07,5.65,4.8,9.52,8.61,5.83,5.78,10.6,11.37,13.07,14.54,2.03,2.63,5.46,7,8.77,11.93,3.71,5.48,7.29,11.55,9.13,14.47,1.76,2.83,4.73,7.3,7.84,11.25,2.83,3.57,5.13,5.92,7.41,8.35,2.38,2.5,5.29,4.8,6.19,5.12.88.34.82-.2,0-.69-.8-.48-3.48-2.66-5.08-4.12-1.64-1.44-3.59-3.56-5.57-5.88-1.99-2.34-7.26-9.61-9.5-13.01-2.23-3.43-6.94-11.73-10.01-15.98-3.08-4.24-8.2-11.17-11.95-15.71-3.75-4.54-10.62-11.56-13.83-14.41-3.23-2.81-10.37-9.12-12.96-11.32-2.61-2.18-7.9-6-11.48-8.11-3.56-2.11-7.48-4.44-10.62-6.23-3.91-2.2-8.59-5.52-14.53-8.45-6.46-3.2-13.51-5.68-16.49-6.68-5.73-1.96-16.12-4.37-24.24-5.52-8.11-1.16-17.6-1.39-23.87-1.33-6.32.06-15.02.6-19.76.91-4.73.34-15.82,1.65-18.54,2.13-2.77.5-11.74,1.8-11.74,1.8,0,0-.08-.18-.81-.33-.71-.15-1.36.49-1.42-.13l-.16-1.54c-.07-.74-.11-1.09.31-1.07.78.05,1,.06,1.58.27.57.23,1.22.3,1.77.11.52-.2.69-.28,1.14-.33.5-.05,1.57.26,2.16-.29.57-.55.82-.72,1.25-.84.4-.09,1.56-.35,3.54-.96,1.99-.61,6.52-2.33,10.63-3.73,4.14-1.39,19.86-5.97,24.22-7.24,4.37-1.29,18.46-5.43,23.78-6.6,5.36-1.16,15.36-3.47,19.29-4.37,3.89-.89,12.6-2.35,16.45-3.02,3.85-.67,12.44-2.09,12.95-2.05.59.04,1.35.9,3.47,2.91.94.88,4.77,3.98,9.28,8.28,6.14,5.82,13.41,13.31,15.04,15.12,2.81,3.17,9.8,10.43,10.26,11.13.43.71.77,1.14,1.4.99.62-.16.4-.7,1.03-.76.67-.07,13.32-3.41,14.59-3.71,1.27-.33,4.01-.79,4.7-.86.64-.06.6-.4,1.21-.86.6-.46,1.6-.61,2.61-.82.99-.18,2.31-.24,2.81-.74.53-.52.98-.57,1.83-.66.84-.08,2.74-.64,2.89-1.03.13-.42.4-.42,1.81-.56,1.37-.14,3.27-.05,3.71-.09.47-.05.54-.33.99-.28.49.03.9,1.32,1.37,1.36.47.04,1.13.06,1.58.01.48-.04.31-.67-.27-.99-.61-.32-1.21.12-1.84-.48q-.6-.6-1.94-.64c-1.31-.07-3.68.36-4.68.55-1.01.19-2.17.88-2.17.88,0,0-.5-.24-1.21.11-.72.35-2.94,1.42-2.88,1.04.08-.38-.35-.62-.78-.3-.44.3-1.05.77-2.05,1.03-1.01.3-3.25,1.17-3.25,1.17,0,0-.13-.44-.85-.1-.72.36-2.7,1.01-3.78,1.22-1.13.21-9.12,2.31-10.69,2.74-1.54.47-4.27.99-4.27.99,0,0-.69-1.23-1.9-2.05-1.2-.82-3.81-3.45-5.65-5.14-1.85-1.69-3.55-3.86-7.52-7.94-1.94-2.02-7.6-7.59-12.42-12.25-4.94-4.73-9.04-8.53-9.22-8.8-.39-.52-.76-.89-.21-1.06.55-.15,9.43-.99,11.59-1.32,2.14-.32,14.95-1.25,21.04-1.42,4.33-.11,8.63-.13,13.94.13,2.18.13,4.83.4,7.26.56,4.8.29,12.48,1.45,19.46,2.78,5.19,1,10.05,2.15,12.7,2.75,3.29.78,8.52,2.13,13.39,3.62,4.44,1.35,8.57,2.81,11.29,3.81,3.28,1.19,8.87,3.5,13.8,6.25,3.73,2.07,7.17,4.19,9.79,6.32,2.15,1.76,4.77,3.85,6.9,6.69,2.08,2.78,2.98,5.79,3.25,6.65.56,1.74.61,4.69.71,6.21.09,1.49-.2,4.68-.54,6.02-.33,1.33-2.23,6.31-3.42,8.47-1.2,2.15-3.98,6.11-6.04,9.02-2.08,2.92-5.91,8.78-6.49,9.65-.59.91-1.06,1.32-.63,1.54.18.11.68-1.01,2-3,1.31-1.97,6.78-9.65,9.21-13.19,2.45-3.56,4.7-7.9,5.68-12.14.44-1.91.72-4.76.65-7.17-.03-2.03-.29-3.69-.41-4.41m-435.52-10.19c-.58,1.2-.68,1.48-2.06,1.76-1.37.28-2.35.23-3.62-.04-1.32-.29-8.06-1.87-11.33-2.52-3.32-.64-7.86-1.69-11.96-1.75-3.93-.05-4.44-.97-3.61-1.05.81-.08,5.59,0,7.42-.02,1.83-.06,6.77.28,8.16.3,1.4-.02,2.47.86,3.18,1.07.72.21,4.08.29,6.38.48,2.24.21,4.52.4,6.24.64,1.69.27,1.8-.04,1.2,1.13m230.11-16.11c-27.24,7.71-58.07,17.47-58.07,17.47l-11.56-5.65L457.41,1.4l4.11.77s32.38,25.7,43.94,36.49c0,0-29.55,4.11-56.79,11.82"/>
  </g>
</svg>