<?xml version="1.0" encoding="UTF-8"?>
<svg id="Layer_2" data-name="Layer 2" xmlns="http://www.w3.org/2000/svg" viewBox="0 0 210.56 654.5">
  <defs>
    <style>
      .cls-1 {
        fill:#808080
      }
    </style>
  </defs>
  <g id="Layer_1-2" data-name="Layer 1">
    <path class="cls-1" d="m110.67,119.65c5.66,8.38,23.88,1.43,30.82-1.83,13.82-6.49,16.59-22.3,18.09-35.91,1.6-15.05,3.11-30.4,8.52-44.65,2.99-7.93,7.29-15.32,13.34-21.38,4.68-4.69,10.19-8.62,16.14-11.62,2.35-1.26,9.07-5.19,12.04-4.06,2.45.93-.52,2.5-2,3.56-4.72,3.32-9.9,5.99-14.78,9.18-6.26,4.13-12.27,8.99-16.28,15.44-4.75,7.62-4.78,16.88-7.8,25.16-2.7,7.3-3.99,15.22-3.6,22.97.42,8.65.16,17.57-2.06,26.02-3.57,13.31-16.71,19.72-27.48,26.46-.64.8-1.36,1.57-2.12,2.3,2.34,5.76,6.36,11.11,7.07,17.41,1.26,10-9.16,16.16-15.24,21.75-2.86,2.55-3.28,4.26-4.65,7.82.67-1.66,9.28-4.19,11-5.02,4.15-2.1,8.22-4.36,12.12-6.89,5.15-3.36,12.38-8.74,19-7.99-1.79,5.82-9.5,7.92-14.16,10.74-8.59,5.16-15.98,10.32-25.64,13.41,0,0-4.12,2.73-4.12,3.33s-.94,6.44-.94,6.44c.1-.75,7.8-3.21,8.91-3.64,2.86-1.1,5.73-1.9,8.77-2.43,6.74-1.2,13.53-1.3,20.25-2.29,5.72-.87,13.59-3.31,19.38-2.16,3.69.73,1.51,2-1.03,2.99-3.28,1.34-6.79,1.7-10.25,1.79-14.3.38-29.43,2.91-41.89,10.32l-4.3,1.87-.27,11.47c5.17-.56,10.16-1.55,15.24-2.39,12.41-2,25.07-.76,37.52-1.79,2.83-.25,7.46-1.83,10.1-.33,3.08,1.73.3,3.06-2.09,3.23-12.11.99-24.39.78-36.51,2.36-4.3.54-8.13,2.46-12.23,3.7-4.67,1.43-9.6,1.83-14.3,3.46l-.23,4.49.9,7.87c4.46-.48,9.03-1.08,13.62-1.84,7.11-1.17,14.29-.27,21.44.4,7.81.76,15.55-.51,23.36-.58,1.97,0,5.72-.19,7.33,1.1,3.96,3.16-1.48,3.46-3.62,3.43-10.57-.27-21.17-1.1-31.75.35-10.68,1.5-21.05,4.89-31.85,5.38l.03,13.95,15.52.15c7.23.05,14.49.99,21.71,1.1,3.51,0,7.16-.04,10.71-.55,3.27-.5,9.07-3.03,12.11-1.36,2.09,1.13.94,1.65-1.01,2.45-12.08,4.62-25.13.13-37.6,2.23-3.69.63-7.01,1.35-10.77,1.43-3.5.07-7.41-.08-10.54,1.76-3.17,1.97-2.98,6.42-2.67,9.65.04.41.75,6.45.93,6.49,8.16.86,16.19-1.66,24.17.15,5.44,1.28,11,2.31,16.45,3.76,3.41.83,6.91,1.95,10.47,2.53,3.19.5,6.46-.03,9.64.47,1.67.28,3.4,1.42,2.02,2.82-1.18,1.18-5.31-.04-6.69-.15-7.56-.53-15.06-2-22.64-2.56-3.82-.27-7.64-.98-11.51-.83-4.88.26-9.89.76-14.78,1.31-8.84.92-7.53,9.17-8.22,16.11,5.44-.45,10.83-1.81,16.35-1.46,5.05.3,9.31,3.08,13.79,5.15,5.27,2.47,9.74,1.7,15.23,2.67,2.51.44,5.07.46,7.68.94,3.43.61,4.53.68,3.94,4.37-3.76-.12-7.32-2.02-11.15-2.47-5.2-.65-10.47.29-15.66-.91-5.36-1.29-10.6-3.35-16.07-3.6-4.82-.25-8.67,1.38-12.88,3.34-.91.49,1.35,9.87,1.31,11.34-.06,2.14-1.5,5.23-1.55,6.64.06-1.54,9.77-.71,10.92-.48,8.46,1.47,11.9,9.31,18.8,13.18,7.04,3.89,14.49,7.22,21.4,11.43,1.29.8,3.7,3.51,2.4,4.95-1.48,1.61-5.56-1.25-6.75-1.96-4.76-2.69-9.45-5.33-14.04-8.29-10.5-6.8-18.9-14.16-32.13-10.54.83,4.2,1.26,8.73,1.53,13.02.16,2.24-.75,3.77,1.45,4.79,2.76,1.25,6.14.06,9,.74,2.57.57,5.07,2.13,7.14,3.73,7.64,5.95,13.18,15.94,23.24,18.18,1.9.38,6.97-.74,7.93,1.82,2.06,5.36-10.9,1.31-12.24.58-4.66-2.4-8.73-5.98-12.72-9.26-6.64-5.42-14.02-10.02-22.89-9.92,1.96,5.63,2.93,11.05,3.11,16.97-.06-1.09,11.86,1.18,13.17,1.58,5.42,1.7,10.56,3.96,15.19,7.21,4.57,3.19,8.71,6.97,13.66,9.55,3.63,1.86,17.13,5.15,16.68,10.42-.06.91-20.27-9.13-21.7-10.03-3.47-2.24-6.49-5.21-10.24-7.03-3.73-1.79-7.99-2.55-11.92-3.92-3.63-1.24-10.21-4.07-13.89-1.5-3.63,2.53,1.38,10.6,2.63,13.34.32.77,7.8.54,9.07.68,13.02,1.37,23.97,9.44,36.72,11.76,3.56.64,7.48-.59,10.79,1.32,2.87,1.61,3.17,3.85-.32,4.14-15.03,1.47-29.99-4.35-43.87-9.38-3.44-1.16-7.32-.33-10.83,0,0,0,.42,5.69.87,7.88.32,2.22-.06,9.45-.06,9.45,7.46.94,11.28,6.62,16.22,11.78,4.6,4.79,7.45,10.71,11.91,15.56,4.14,4.6,9.5,7.88,14.91,10.79.83.45,7.26,2.61,7.26,3.47-.09.77.15,1-.1,1.61-1.12,2.88-9.64-2.71-11.98-3.88-5.55-2.71-9.73-7.24-13.53-11.99-2.51-3.21-5.31-6.26-8.16-9.16-3.69-3.82-6.07-7.75-11.79-8.19-10.63-.67-5.41,11.76,1.35,13.76,5.2,1.6,9.38,10.1,11.57,14.52,2.74,5.26,4.82,10.82,7.14,16.32,2.19,5.44,4.22,10.12,7.69,14.87.65.83,2.25,3.35,1.8,4.37-1.28,3.46-4.01-1.9-4.83-3.09-4.19-6.13-8.94-11.79-11.82-18.71-1.9-4.62-4.04-12.99-8.67-15.85-1.92-1.25-7.26-9.35-10.28-5.27-2.42,3.12,3.75,7.38,5.18,9.6,4.41,6.8,6.58,14.65,8.96,22.33,2.31,7.68,5.47,14.81,8.56,22.17,2.79,6.68,4.31,14.21,8.39,20.31,4.37,6.45,10.21,7.51,17.33,8.23,2.28.22,7.39,1.16,7,4.59-7.08,3.19-15.55-.54-21.81-3.88-4.57-2.41-7.04-7.24-9.26-11.69-3.69-7.2-6.84-14.63-9.86-22.11l-7.41-16.54c-.89-2.15-4.21-12.7-7.99-8.94-3.32,3.25,6.93,17.62,8.54,21.05,2.18,4.8,4.5,9.57,6.42,14.52,1.5,3.83,7.74,15.67,7.74,15.67,0,0,27.42,48.19,27.44,48.26,5.65,9.83,10.24,20.27,15.48,30.26,3.32,6.27,10.09,13.58,9.06,21.2-5.84.51-11.92-12.54-13.01-16.89-1.5-5.83-5.71-11.76-8.68-16.96-3.66-6.36-7.67-12.56-11.73-18.7-7.04-10.67-13.97-21.43-20.88-32.08-4.75-7.36-9.96-14.58-13.36-22.74-1.52-3.76-2.56-7.69-3.11-11.72-.49-3.24-.52-8.04-3.18-10.45.65.57-2.31,4.56-2.76,5.02-2.66,2.83-6.79,2.93-10.12,1.32-2.73-1.22-4.8-3.63-6.26-6.16-.29-.48-2.19,3.59-2.26,4.04-.36,1.7.07,3.56.25,5.28,1.35,12.53-1.29,24.87-4.04,37.09-2.85,12.65-5.31,25.38-7.72,38.13-1.76,9.12-3.48,18.24-5.4,27.35-1.77,8.71-4.56,17.42-5.08,26.35-.09,1.71-.16,21.12-4.55,19.19-1.93-.8-1.76-7.65-1.81-9.29-.42-11.83,3.34-23.24,5.07-34.89,1.55-9.8,3.47-19.46,5.3-29.25,2.03-11.34,4.46-22.58,6.77-33.87,1.87-9.12,3.41-18.35,4.07-27.61.67-9.06-.96-17.99-.46-26.96.3-4.2,1.52-8.86.36-12.99-.86-3.35-3.21-4.41-3.99-.46-1.02,4.97.93,10.7.78,15.75-.09,3.82-.67,7.62-1.13,11.43-1.62,13.01-1.62,28.49-7.53,40.54-2.27,4.62-5.97,6.78-9.96,9.71-1.99,1.36-3.24,3.47-5.24,4.76-3.74,2.45-8.35-1.55-4.5-4.97,5.95-5.14,10.31-8.39,13.04-15.98,1.97-5.41,5.82-23.06,5.82-23.06,0,0,1.99-17.49,2.05-17.9.67-5.82.06-11.73-.32-17.52-.29-4.67-.15-9.39.3-14.02.17-1.29,1.76-9.93-1.66-8.33-3.99,1.89-3.59,13.15-3.69,16.55-.1,7.27-4.06,13.56-6.08,20.31-1.1,4.06-1.78,8.07-5.89,10.07l-3.09,1.31s-.68-.38-.77-.38c-3.9-2.26.54-3.98,2.05-5.15,1.66-1.32,2.47-3.47,3.06-5.47,2.73-8.93,2.28-18.47,3.91-27.6.74-4.41,1.93-8.67,4.02-12.63,2.21-4.2,5.01-8.1,5.88-12.85.39-2.63,2.34-6.64.32-6.64-4.98-.15-7.17.63-10.41,4.41-2.54,2.95-4.51,6.29-6.65,9.47-3.63,5.36-11.75,24.64-21.1,14.66-1.15-1.18,4.91-2.5,5.56-2.68,7.39-2.11,9.63-11.56,12.68-17.67,3.35-6.63,4.17-12.33,10.57-16.86,1.64-1.13,5.42-2.67,6.26-4.53,1.35-3.06,1.25-8.52-1.02-11.08-3.6-4.17-8.64,1.65-12.17,3.43-5.14,2.55-10.79,4.37-15.68,7.56-3.37,2.24-6.18,5.45-9.94,7.17-2.27,1.03-6.97,2.57-9.48,1.89-2.24-.59-2.24-1.79-2.38-4.06,0-1.39,12.96-5.55,14.72-6.58,9.25-5.34,15.96-13.08,25.81-17.54,6.05-2.69,9.12-9.13,7.81-15.53-3.79-.65-8.41,1.03-12.11,1.9-9.29,2.22-17.18,9.47-24.87,14.77-2.47,1.34-22.39,13.73-22.07,4.73,3.76-.61,8.14-1.77,11.31-3.88,7.84-5.24,16.15-9.77,23.97-15.11,3.63-2.45,6.48-5.78,9.63-8.72,2.5-2.38,6.21-4.17,7.94-7.3,1.89-3.35.58-7.14.65-10.71.04-.6-1.87-4.66-1.92-4.7.07.25-10.79,3.32-11.51,3.5-9.47,2.51-18.09,8.62-27.98,9.64-3.28.32-6.5,1.32-9.84,1.48-1.51.03-2.19.45-3.22-.73-.41-.44-.61-1.44-.64-2,.09.74,21.98-5.46,24.25-6.96,2.79-1.93,5.47-4.11,8.46-5.69,3.09-1.67,6.43-2.03,9.7-3.27,3.76-1.42,7.64-2.8,11.21-4.82l.67-12.14s.52-3.4-1.33-1.81c-7.97,6.72-20.28-2.44-29.27,3.51-5.92,3.96-15.59,20.38-24.65,12.94,1.06-3.05,4.59-4.86,7.32-6.11,5.98-2.71,9.36-8.55,15.09-11.2,7.64-3.47,16.51-3.64,23.82-7.85.91-.51,5.74-2.85,5.56-4.04l-1.93-14.19c-.09-.89-14.16-.04-15.91.48-5.63,1.58-10.7,5.55-16.07,7.84-6.48,2.77-11.83,9.02-18.57,10.87-.87.23-3.96.36-4.41-.86-.91-2.6,18.22-12.42,20.25-13.93,4.46-3.29,8.71-7,13.84-9.23,6.07-2.54,12.28-2.22,18.63-2.08l2.25-.33.45-17.94-13.34.7c-8.41.05-14.85,3.48-22.85,5.5-3.69.96-7.03,2.99-10.63,4.02-1.68.48-3.53.97-5.33.6-6.05-1.06,0-3.28,2.4-4.15,3.91-1.42,7.32-3.81,10.96-5.55,11.61-5.39,22.81-9.75,35.79-9.47,2.18.01,3.18-.33,3.18-.33,0,0,1.02-7.24,1.64-8.02.61-.76,1.93-6.4,1.93-6.4.19-.85-18.89-1.48-20.37-1.28-4.47.72-8.46,3.31-12.72,4.83-2.18.78-23.36,7.58-23.62,3.88-.25-3.36,6.42-3.81,8.57-4.41,5.12-1.4,9.47-4.38,14.3-6.49,4.09-1.81,8.38-2,12.88-2.57,5.05-.53,9.9-1.84,14.9-2.68,3.22-.57,5.84-.75,6.62-4.41.22-.72,1.18-9.68.83-9.63-6.97,1.51-14.05-.44-21.11-.2-9.76.35-20.21,4.14-29.31,7.66-2.66,1.01-8.23,3.7-9.83-.12-1.2-2.83,37.85-13.05,41.36-13.95,3.69-.94,7.39-1.78,11.21-2.16,1.52-.18,12.33-.3,12.37-2.42.07-2,2.09-11.42,2.09-11.42l-1.74-3.3c-.39-.7-3.21-1.46-3.91-1.76-16.39-7.42-34.03-10.82-51.66-13.71-4.01-.63-7.98-1.3-11.98-2.02-.7-.1-8.45-1.8-7.94-2.38,3.03-3.3,9.44-1.43,13.14-.94,8.8,1.13,17.67,1.95,26.32,3.51,3.08.53,39.27,10.25,39.66,9.36.22-.64.89-12.9.89-12.9.09-1.47-9.57-7.26-10.96-8.37-9.09-6.91-18.29-11.96-28.69-16.39-1.58-.7-9.79-5.6-8.75-7.27,1.41-2.23,13.37,2.87,15.53,3.81,5.18,2.21,10.64,4.36,15.23,7.79,3.12,2.23,5.75,5.09,8.83,7.36,2.99,2.16,6.5,3.4,9.35,5.89,0-3.93-.54-7.89-.75-11.79-.25-4.46-2.79-6.35-5.56-9.68-3.79-4.56-5.97-9.93-7.93-15.49-2.41-6.82-1.52-11.98.07-18.9,0,0,.06-.96.06-1,0-.33.07-.6.36-.7,3.47-1.48,2.6,9.22,2.45,10.69-.39,8.07,5.12,15.67,8.87,22.45,1.15,2.1,6.11,5.99,6.97,1.13.35-1.75-1.32-2.13-2.28-3.3-10.1-12.4-.99-34.26,14.62-36.99,4.59-.8,6.84-2.53,6.26-7.01-1.15-8.74-2.09-17.52-3.4-26.21-.84-5.65-1.64-11.71-3.82-17.04-3.21-7.75-8.06-15.81-15.01-20.6-6.42-4.43-13.85-6.93-20.56-11.02-3.88-2.4-9.12-6.45-14.01-4.73-4.66,1.7-5.79,7.66-4.57,11.88,1.36,5.16,5.59,8.09,9.03,11.82,1.9,2,3.64,5.19-.65,4.7-11.69-1.34-17.57-23.88-11.12-32.2,4.76-6.26,11.31-3.03,16.74.33,6.3,3.9,11.29,8.73,18.21,11.43,9.01,3.58,19.02,8.61,24.39,17.03,4.53,7.12,5.01,15.66,6,23.85,1.26,10.53,3.96,21.12,4.51,31.73.09,1.63.52,2.93,1.22,4.03h0Z"/>
  </g>
</svg>