<?xml version="1.0" encoding="UTF-8"?>
<svg id="Layer_2" data-name="Layer 2" xmlns="http://www.w3.org/2000/svg" viewBox="0 0 654.5 410.72">
  <defs>
    <style>
      .cls-1 {
        fill:#808080
      }
    </style>
  </defs>
  <g id="Layer_1-2" data-name="Layer 1">
    <path class="cls-1" d="m512.56,410.34c-22.93-11.23-44.73-24.63-65.11-40-7.12-4.2-9.49-13.38-5.29-20.5.62-1.04,1.36-2.01,2.2-2.87,12.66-18.74,25.6-37.19,38.64-56.03-9.66-5.7-11.88,2.42-15.17,7.44-9.66,14.39-17.97,29.85-28.98,43.47-11.01,13.62-6.09,23.86,5.6,33.33,14.3,11.59,30.53,20.77,42.22,35.55h0c-22.87-11.42-44.7-24.84-65.21-40.09-9.66-6.96-8.31-15.26-2.8-23.38,13.43-19.32,27.34-39.22,42.41-60.67-19.98-10.96-41.51-18.81-63.86-23.28-2.99,0-7.25-1.16-8.79,0-18.26,17.58-44.54,14.1-65.02,24.93-20.6,9.66-42.12,17.2-64.24,22.51-66.76,19.32-134.19,36.32-197.76,65.21-14.01,5.9-28.72,9.96-43.76,12.08-6.57,1.06-14.01,2.42-17.1-5.31-1.86-6.77,1.24-13.92,7.44-17.2,8.46-6.7,17.91-12.04,28.02-15.84,43.2-16.15,87.84-28.15,133.32-35.84,46.18-8.98,86.95-32.17,126.85-53.71,20.67-11.01,44.83-17.1,62.22-34.59,4.83-3.83,9.89-7.35,15.17-10.53-29.97-8.16-60.63-13.56-91.58-16.13-35.45-2.13-69.96-12.24-100.96-29.56-21.06-12.66-31.69-27.24-25.79-38.64,9.66-18.36,27.24-14.39,42.99-11.79,15.75,2.61,28.98,6.86,43.47,9.66-22.36-12.75-43.56-27.43-63.38-43.86-12.83-10.04-22.36-23.71-27.34-39.22-7.73-30.05,13.04-51.4,42.41-43.96,40.29,9.66,71.49,35.75,102.89,60.86,41.22,34,80.26,70.56,116.9,109.46,2.99,2.99,5.99,5.89,8.89,8.98,5.04,4.66,12.61,5.3,18.36,1.55,5.8-2.51,1.26-8.4.48-12.75-2.95-18.97-15.11-35.25-32.46-43.47-32.65-17.97-54.49-48.3-70.33-81.92-7.34-15.84-.77-26.66,16.23-30.53,51.88-11.98,94.77,13.62,108.3,64.34,8,32.66,11.99,66.17,11.88,99.8-1.43,10.56,5.96,20.29,16.52,21.74,5.2,1.48,10.19,3.59,14.88,6.28,13.82,7.34,23.77,10.53,34.1-8.02,12.37-22.03,32.07-19.32,41.54,3.57.68,1.64.87,4.54,1.84,4.83,20.67,5.51,15.07,20.77,10.24,32.85-6.67,16.52-21.83,22.99-38.64,23.96-3.57,0-7.15-1.45-10.72-1.26-8.4,0-13.43,3.96-6.67,12.08,17.58,20.87,33.04,43.47,66.08,43.38,19.32,0,41.25,4.83,49.17,28.98,1.16,3.38,3.09,7.44,0,9.66-3.09,2.22-7.44,0-9.66-3.38-9.66-15.46-23.96-17.97-39.9-18.45-29.15.21-55.55-17.19-66.85-44.05l-3.77,2.42c2.8,16.42,2.42,34.2,9.66,48.3,7.25,14.1,28.98,14.2,42.31,24.73-35.65,2.32-55.45-13.82-59.8-48.3-1.26-9.66-1.45-20.38-2.22-30.53,0-3.09-1.35-6.38-5.31-5.22-2.24.72-4.09,2.32-5.12,4.44-3.96,8.6,12.95,64.92,20.87,70.23,3.11,1.86,6.33,3.5,9.66,4.93-28.98,5.7-33.52,2.32-36.71-25.41-1.64-14.2-2.9-28.98-4.93-48.3-15.46,24.54-30.05,45.02-41.54,67.14-4.25,8.31,6.38,15.75,13.24,21.45,14.73,10.07,28.42,21.59,40.87,34.39l-1.06.1Zm-118.73-211.96c-14.41-13.17-32.21-22.07-51.4-25.7,17.2,8.5,34.33,17.07,51.4,25.7Z"/>
  </g>
</svg>