<?xml version="1.0" encoding="UTF-8"?>
<svg id="Layer_2" data-name="Layer 2" xmlns="http://www.w3.org/2000/svg" viewBox="0 0 654.5 555.41">
  <defs>
    <style>
      .cls-1 {
        fill:#808080
      }
    </style>
  </defs>
  <g id="Layer_1-2" data-name="Layer 1">
    <path class="cls-1" d="m225.6,378.7c-11.35,4.3-18.71,1.23-22.5-9.31-.61-1.74-1.33-3.68-2.86-4.3-6.03-2.35-9.31-7.57-14.22-13.81-1.17,7.65-5.61,14.4-12.17,18.51-2.66,2.05-4.4,4.6-.82,8.08,3.22,3.53,5.56,7.77,6.85,12.37,1.53,4.81,6.75,5.83,10.23,8.39,1.53.92,3.37,1.84,2.56,3.99-.82,2.15-2.56,1.12-4.09,1.33-7.2,1.3-14.5-1.69-18.71-7.67-1.84-2.24-3.94-4.27-6.24-6.03-8.39-6.75-8.39-6.65-15.44,1.74-2.56,3.17-3.58,5.32,0,7.77.7.31,1.28.85,1.64,1.53,4.35,8.59,11.15,15.71,19.53,20.45-10.23,2.35-18.92,3.78-25.57-6.24-3.68-5.42-10.23-6.85-15.95-10.23-3.37-2.15-5.11,3.27-9.72,3.27,8.9,8.18,11.66,19.74,21.89,25.06,2.86,1.53,1.33,3.99-.92,4.19-5.42.51-11.15,2.15-15.54-3.17-2.04-2.27-4.34-4.3-6.85-6.03-7.16-5.32-10.23-4.4-14.22,3.58-1.33,2.66.61,3.78,1.94,5.11,4.37,3.49,9.1,6.51,14.11,9,2.25,1.53,5.11,2.15,6.44,5.62-8.26,3.67-17.82,2.98-25.46-1.84-4.4-3.27-8.49-4.91-11.86,1.94-1.12,2.45-4.6,3.78-7.06,5.52-2.45,1.74-5.01,4.4,0,7.57,5.06,3.8,10.64,6.87,16.57,9.1,1.84.61,4.6.92,4.91,3.07.31,2.15-2.76,3.37-4.5,4.3-6.13,2.84-13.31,2.18-18.82-1.74-8.49-4.7-12.89-2.76-15.85,6.55-7.48,25.26-22.59,47.58-43.26,63.92-3.51,2.99-7.88,4.78-12.48,5.11-1.33,0-2.97,0-3.37-1.02-.14-1.22.23-2.44,1.02-3.37,1.07-1.41,2.3-2.68,3.68-3.78,20.45-15.75,30.07-37.94,38.86-61.36.72-1.84,3.68-5.01,0-6.55-2.75-1-5.83-.13-7.67,2.15-8.14,8.38-15.28,17.68-21.27,27.71-5.29,9-9.44,18.62-12.37,28.63,0,1.64-1.23,3.07-2.97,2.86C1.33,540.48,0,538.44,0,536.29c-.01-7.36.95-14.68,2.86-21.78,7.24-18.87,17.96-36.22,31.6-51.13,5.22-6.03,2.86-9.31-1.12-13.19-5.86-4.46-8.86-11.73-7.87-19.02,0-1.53,0-3.37,1.53-4.09s2.86,1.64,3.58,2.86c4.62,6.09,10.91,10.71,18.1,13.29-.93-7.85,2.33-15.62,8.59-20.45,2.35-1.74,0-2.56-.72-3.48-4.4-5.06-10.26-8.63-16.77-10.23-1.33-.51-3.27-.51-3.48-2.35-.2-1.84,1.74-2.56,2.97-3.17,5.27-3.26,12-2.98,16.98.72,7.67,5.93,10.23,5.42,15.24-2.56,2.24-6.08,1.87-12.81-1.02-18.61-3.56-4.99-8.55-8.77-14.32-10.84-3.89-1.53-3.07-3.27,0-4.91,4.3-1.76,9.18-1.42,13.19.92,4.77,2.91,9.72,5.51,14.83,7.77,1.84,0,3.99,2.25,5.22-.61,2.98-5.94,8.45-10.25,14.93-11.76-12.17-8.59-16.26-23.01-27.61-30.68-1.02-.72-2.05-2.05-.92-3.27,1.12-1.23,1.74-.61,2.66-.61,7.19-.96,14.35,1.96,18.82,7.67,3.75,4.41,7.74,8.61,11.97,12.58,1.52,2.18,4.52,2.71,6.69,1.19.16-.11.32-.24.47-.37,7.57-4.3,7.47-3.89,1.74-10.23-3.69-4.43-7.1-9.07-10.23-13.91-1.86-3-4.47-5.47-7.57-7.16-1.53-.72-3.99-1.23-3.17-3.58.82-2.35,2.76-2.05,4.5-2.15,6.7.02,13.08,2.93,17.49,7.98q10.23,9.61,22.09,2.66c1.84-1.12,3.89-1.84,3.58-4.19-.31-2.35-2.35-2.35-4.09-2.97-11.97-3.68-20.45-14.52-32.52-17.49-2.56,0-1.64-2.76,0-3.68,5.45-3.4,12.29-3.67,18-.72,7.06,4.16,14.53,7.59,22.29,10.23,3.89,1.33,6.75,1.64,8.08-3.37,1.4-4.14,4.09-7.72,7.67-10.23,4.09-3.07,5.11-5.01-.72-8.18-8.45-6.62-17.86-11.9-27.92-15.65,7.47-4.09,14.52-7.67,22.7-2.56,2.51,1.78,5.31,3.1,8.28,3.89,7.26,1.23,15.03,8.28,21.68-2.25,3.45-3.71,8.15-6,13.19-6.44-13.91-9.41-20.45-24.34-34.57-33.13,7.58-4.14,16.99-2.72,23.01,3.48,3.79,3.8,8.18,6.94,12.99,9.31,3.58,1.84,5.83,3.68,9-1.43,3.17-5.11,0-6.14-3.37-8.39-6.27-5.94-13.83-10.35-22.09-12.89-2.76-.51-3.58-2.97,0-4.6,3.61-2.49,8.15-3.24,12.37-2.05,2.86,1.01,5.65,2.17,8.39,3.48,13.81,6.75,18,5.22,23.32-8.79.86-1.84.07-4.03-1.77-4.9-.09-.04-.18-.08-.27-.12-7.9-4.34-14.85-10.22-20.45-17.28-2.35-2.56-5.83-2.86-8.69-4.91,6.92-5.76,17.07-5.36,23.52.92.82.57,1.67,1.08,2.56,1.53,12.89,7.16,17.79,5.32,22.7-8.39.77-1.64.15-3.6-1.43-4.5-6.07-5.03-10.92-11.35-14.22-18.51-1.37-2.46-3.48-4.43-6.03-5.62-1.84-.92-5.22-1.12-3.48-4.5,1.38-2.34,4.37-3.16,6.75-1.84,6.85,2.01,13.03,5.82,17.9,11.04,3.48,4.5,6.14,6.03,9,0,.28-.4.58-.78.92-1.12,5.42-7.36,5.32-7.36-2.66-11.66-1.9-.73-3.62-1.89-5.01-3.37-5.36-7.27-13.3-12.2-22.19-13.81,5.79-5.25,14.23-6.35,21.17-2.76,2.8,1.22,5.53,2.58,8.18,4.09,8.39,3.99,10.23,3.17,14.01-5.32.9-1.8,1.96-3.51,3.17-5.11,1.42-1.52,2.19-3.54,2.15-5.62-10.23,1.53-18.1-9.1-29.35-5.93-2.35.72-2.86-2.05-1.43-4.3,3.03-5.19,9.08-7.8,14.93-6.44,2.46.64,4.89,1.43,7.26,2.35,4.3,1.43,8.59,0,12.89,0,6.55.72,5.73-5.22,7.87-8.39,5.79-7.67,13.43-13.75,22.19-17.69-10.23-6.24-13.6-18.2-24.44-23.01-1.12-.61-2.35-1.53-1.43-2.97.92-1.43,2.05-2.05,2.97-1.94,7.06.61,14.22-1.12,20.45,6.34,4.71,4.09,10.16,7.25,16.06,9.31,1.12,0,1.94,0,2.66-.92,5.83-6.34,15.44-10.23,14.93-20.96.4-3.58,1.47-7.05,3.17-10.23.72-1.94,1.94-4.09,4.09-3.68,2.15.41,2.66,2.97,3.37,4.81.21,1.01.21,2.06,0,3.07,0,5.52,1.64,6.55,7.67,6.03,11.05-.27,20.97-6.88,25.46-16.98,2.2-3.77,5.94-6.38,10.23-7.16,1.78-.5,3.68.05,4.91,1.43,1.84,2.05-.72,2.97-1.53,4.3-3.54,3.32-6,7.63-7.06,12.37,4.73-1.47,9.79-1.47,14.52,0,3.27,1.02,3.78-1.64,4.91-3.48,3.82-6.64,8.93-12.45,15.03-17.08,1.39-1.5,3.37-2.32,5.42-2.25,2.56,0,5.52.51,6.55,3.07,1.02,2.56-1.94,3.37-3.37,4.5-5.18,4.57-7.88,11.33-7.26,18.2,6.04,2,12.58-1.11,14.83-7.06,4.56-8.61,12.61-14.83,22.09-17.08-1.69,4.14-3.02,8.42-3.99,12.78-.82,9.1,1.53,12.07,10.23,12.99,3.68,0,3.27-2.66,4.09-4.4,2.14-6.56,6.72-12.05,12.78-15.34,3.2-1.67,7.02-1.67,10.23,0-3.89,4.66-6.75,10.1-8.39,15.95-.72,3.89-1.02,5.93,3.89,6.55,7.33,1.45,14.08,5.01,19.43,10.23.92.82,1.74,2.15,3.07,1.94,9.02-.69,18.03,1.46,25.77,6.14,2.61.97,5.47.97,8.08,0,30.65-7.23,62.93-.24,87.85,19.02,8.05,5.4,13.92,13.48,16.57,22.81-8.53-3.78-16.7-8.3-24.44-13.5-20.19-11.76-43.68-16.61-66.88-13.81-3.17.51-5.73,1.12-3.78,5.22.13.22.13.49,0,.72-4.4,13.4,5.83,16.46,14.52,20.45,20.84,8.84,43.49,12.56,66.06,10.84,4.85-.2,9.71,0,14.52.61-8.61,7.2-19.46,11.18-30.68,11.25-18.31.35-36.5-3.13-53.38-10.23-2.15-.92-4.19-1.84-6.44-2.56-8.49-2.66-15.95-8.18-25.67.61-7.69,5.6-17.48,7.47-26.69,5.11-3.69-.83-7.55.29-10.23,2.97-5.57,4.69-13.46,5.47-19.84,1.94-4.7-2.15-6.03,0-7.57,3.68-1.42,6.2-1.14,12.66.82,18.71-11.25-4.4-14.93-11.04-14.83-24.75,0-2.15,2.56-7.06-2.66-5.52-5.22,1.53-10.23-7.26-12.68,2.86-1.1,3.64-1.35,7.49-.72,11.25,0,1.74.61,3.89-1.12,4.81-1.74.92-3.37-1.02-4.5-2.15-4.7-4.41-7.24-10.64-6.95-17.08.61-6.03-2.56-8.08-7.57-7.67-5.01.41-4.3,5.01-3.99,8.28,0,6.44,1.53,12.89,2.45,19.74-8.21-2.5-14.13-9.67-15.03-18.2-.2-2.52-.2-5.05,0-7.57.61-4.5-2.66-4.09-5.11-4.5-4.09,0-2.97,2.86-2.97,4.7v15.95c0,1.53,1.43,3.78-1.02,4.6-2.45.82-3.27-.92-4.7-2.05-4.4-3.07-4.5-8.28-6.14-12.78-.82-2.15,0-5.22-2.97-6.75-2.86,4.81.72,9.2.72,13.81,0,1.53,1.94,3.37,0,4.7-1.94,1.33-3.78,0-5.42-1.53l-13.4-11.66c3.17,10.23,12.89,11.35,16.67,19.02-8.26,2.45-17.14,1.79-24.95-1.84-5.73-3.58-4.19,2.97-5.83,4.81-1.64,1.84-2.66,4.4,1.43,5.42,7.85,2.96,15.17,7.17,21.68,12.48,1.53,1.02,4.3,1.64,3.07,4.4-.82,1.93-2.71,3.17-4.81,3.17-2.27.37-4.59,0-6.65-1.02-6.58-3.2-13.76-4.98-21.07-5.22-3.17-.72-4.3,0-5.73,2.86-3.99,7.87-4.3,8.18,4.4,10.23,6.61,1.85,12.85,4.86,18.41,8.9,1.64,1.12,3.89,2.25,3.27,4.6-.61,2.35-3.58,2.45-5.83,2.25-8.27-1.07-16.61-1.59-24.95-1.53-3-.2-5.78,1.59-6.85,4.4-3.07,5.46-6.48,10.72-10.23,15.75,8.59,0,15.75-5.01,23.01-4.19,7.49-.41,14.85-2.21,21.68-5.32-1.78,9.3-9.49,16.3-18.92,17.18-3.32-.04-6.53,1.17-9,3.37-5.05,5.29-12.73,7.13-19.64,4.7-5.01-1.33-6.14,0-6.14,4.81s-3.99,10.23-6.14,14.62c2.45,2.05,4.91,0,7.36,0s6.03-1.33,8.18,0c7.14,3.36,15.06,4.7,22.91,3.89,1.74,0,4.6,0,4.81,2.35.2,2.35-1.84,3.17-3.58,4.4-5.7,4.7-13.34,6.31-20.45,4.3-3.19-.76-6.54-.55-9.61.61-5.41,1.77-11.34.94-16.06-2.25-3.99-2.35-6.55-1.84-7.06,3.58-1.18,5.05-3.48,9.77-6.75,13.81,14.83-1.74,24.85,13.91,40.91,6.44-3.68,10.23-10.23,14.22-19.12,11.45-9.77-2.54-19.78-4.09-29.86-4.6-3.17,0-3.89.72-4.4,3.37-1.14,6.29-4.52,11.96-9.51,15.95-2.97,2.45-3.99,4.19-.72,7.77,6.34,6.75,10.23,15.44,21.48,18.71-6.11,4.94-14.85,4.94-20.96,0-6.03-4.64-12.31-8.95-18.82-12.89-3.89-1.74-5.62-1.43-7.26,2.86-1.64,4.3-6.95,8.69-6.44,12.37.51,3.68,7.06,6.03,10.23,10.23,4.86,6.99,11.75,12.31,19.74,15.24-6.93,5.65-17.09,4.74-22.91-2.05-6.21-4.8-13.1-8.62-20.45-11.35-1.43-.82-3.58-1.02-3.58,1.02,0,7.47-13.6,7.98-9.31,15.85,5.11,7.22,9.43,14.97,12.89,23.11,1.33,5.01,7.98,5.01,10.84,9.82Z"/>
  </g>
</svg>