<?xml version="1.0" encoding="UTF-8"?>
<svg id="Layer_2" data-name="Layer 2" xmlns="http://www.w3.org/2000/svg" viewBox="0 0 654.5 493.29">
  <defs>
    <style>
      .cls-1 {
        fill:#808080
      }
    </style>
  </defs>
  <g id="Layer_1-2" data-name="Layer 1">
    <path class="cls-1" d="m226.86,10.58c-.67.48-1.34-.32-1.49-.89-.15-.56-.15-.86-.15-.86l.85-1.68s-.64,1.27-1.24,1.27c-.66,0-.58-.78-.58-.78l1.57-1.85s-1.36,1.06-1.89,1.36c-.56.32-.4-1.36-.4-1.36l1.68-3.51s-.89,1.53-1.77,1.83c-.88.34-1.42-.07-1.33-.64.06-.54.06-.94.06-.94l-.88.4s-.66.4-.66-.48v-.95l-.71.71s-.69.87-.79-.16c-.06-1.52-.22-1.52-.22-1.52,0,0-.18.41-.5.79-.31.41-1.57.32-2.37-.61-.8-.96-.66-.72-1.14-.58-.48.16-.31.16-.94.23-.64.09-.48.09-1.11.72-.65.64-.71.34-1.19.8-.48.48-.71.81-.71,1.45s-.09.95-.64,1.19c-.54.23-.63.32-.89,1.09-.24.82-.07.66-.24,1.24q-.15.54-.06,1.33c.06.8,0,2.07-.25,2.47-.23.41.64,1.2.96,1.6.14.28,0,.32,0,.97,0,.93.48,2.84,1.17,3.38.73.57.73,2.71,1.52,3.51.81.82.71,2.17.71,2.17l-3.89-.9s2.8,1.23,3.44,1.48c.61.2.32,1.17.32,1.17l-1.93.72,2.05.32.16,1.04-1.92.62,3.03.09.35,1.99c.06.39-.88,1.34-.35,1.17.58-.15,2.42-1.17,2.42-1.17l.63.79s-1.61,2.06-1.28,2c.32-.08,2.39-1.11,2.39-1.11l-1.26,3.34,2.15-1.52.95.39s-2.3,3.43-1.84,3.29c.48-.18,1.84-1.93,1.84-1.93l.24,1.2s-1.82,2.47-1.44,2.22c.41-.23,2.63-2.93,3.59-3.51.94-.53,2.92-.39,2.92-.39l.36-1.37,1.02-.46.25,1.42,1.25-2.07.73.24-1.1,2.96s1.66-3.68,1.66-3.36c0,.34.48,1.68.48,1.68l.32-1.76,1.41-.06.26,2.38,2-3.27.95-.31.38,5.11.42-3.51s.68.08.86-.57c.17-.65.17-1.04.17-1.04l1.41-.34-2.05,5.2,1.83-3.42.4.78-.24,2.64.64-3.26s1.82-.16,2.13-.25l-.04,2.23.8-1.27s.67.25.93,1.12c.23.87.58,1.2,1.46,1.03.87-.16.92-.23.87.08-.07.31-2.81,3.34-2.81,3.34l3.13-2.39h2.37l-.39,2.39-1.69,1.52s1.83-1.19,2.47-1.82c.65-.65,1.13-.48,1.13-.48l.24,2.05,1.74-2.69s.87-.32,1.27-.25c.41.07-.4,1.6-.06,1.37.3-.27.81-1.19,1.04-1.53.24-.31,1.04-.48,1.52-.39.47.07.06,1.03.86,1.03s.97.8.97.8l-4.09,4.38,3.92-3.73-2.46,3.16s2.69-2.21,3.35-2.56c.62-.3,1.63.58,2.68,2.17,1.02,1.59.12,2.35.56,5.22.41,2.5.82,5.06,1.46,8.64.63,3.6,1.06,7.86,1.28,8.72.2.85.09.51.2,1.58.1,1.07-.1.75.45,1.59.51.86.61,1.39.61,2.01s.23,2.15.74,3.3c.52,1.18.51,2.23.94,2.89.42.61.34.42.42,1.14.13.76.78,1.5.78,1.5,0,0,.42,1.28.63,1.71.22.43,0,.95.54,2.33.51,1.38.74,2.46,1.04,3.51.34,1.08-.29,1.08.22,1.8.54.73.54.43.54,1.7s-.35.96.29,1.61c.65.62.44.94.44,1.78s-.32.97.21,1.72c.54.73.73,1.04.62,1.6-.07.51.25,1.04.25,1.04,0,0,.72.65.41,1.08-.3.42-.2.41.1.84.32.43.31.3-.1.95-.41.64.1.73.64.94.51.23.63,1.29.63,2.58s-.54,1.18.22,1.18.42,1.13.42,1.67-.53.53.34.87c.85.32-.12,1.68.21,2.65.32.96.56,1.27.94,1.27.42,0,.76.08.32.63-.43.57-.32.21,0,.95.34.75.32,1.28.44,2.03.09.73-.56.53.09.84.64.32.51,1.48.94,2.36.42.86.22,1.57.22,1.57l-4.26.34h4.59l.45,2.03-2.14.93s1.79-.84,2.41-.4c.66.4.96,1.68.75,2.41-.19.76-1.14.65-1.14.65l-2.36-.34s4.04.14,4.04.65c0,.54-.01.84.51,1.59.57.74.65.42.34.96-.34.52-.85.73-.21,1.06.63.34.86,0,.74.95-.12.96-.76,1.06.12,1.81.84.73,1.15-.1.84.87-.32.96,1.27-.23,1.48.39.23.66.54,1.3.12,1.72-.42.43-.74.84-.74.84,0,0,.42.44.42.86s-.31,1.48-.95,1.48-.4.44-.96-.19c-.52-.64-.19-.54-1.05-.44-.84.1-1.18-.34-1.07-.95.09-.63,0-1.07,0-1.07l-.64.44v-2.34l-.95.62-1.18-.73.34-1.38-1.8-.1v-1.29h-.96l-.64-1.14-1.38-.13s.63-1.18.12-1.49c-.52-.31-.95-.22-.95-.74s.53-.32-.43-.65c-.94-.3-1.3.12-1.3-.62v-.97l-1.05.34s-.21-.52-.21-1.17-.63-1.37-.63-1.37c0,0-1.41,0-1.41-.95v-.96l-1.05-.09s-.3-.75-.42-1.49c-.1-.75-.22-.75-.22-.75l-.82.13s.3.1.3-.78v-.84l-.86-.13s-.21-.1-.21-.84-.1-.83-.1-.83l-1.17-.86s-.94-.13-.94-.54-.34-.4.12-1.06c.42-.61,0-1.06,0-1.06l-1.49.1s0-.22-.34-1.07c-.3-.84-.53-.94-.53-.94,0,0-.45-.1-.53-.73l-.13-.67-.72-.4s-.12.09-.12-.86.12-1.28.12-1.28h-1.15s-.53-.08-.22-.73c.3-.62,0-.96,0-.96,0,0-.75,0-1.07-.73-.31-.76-.13-1.07-.13-1.07,0,0-.82-.42-1.25-.53v-1.71s-.84.23-1.28-.53c-.42-.73-.42-.84-.86-1.27-.43-.42-.21-.52-.73-.73-.54-.21-.36-.96-.73-1.69-.42-.74-.65-1.17-1.07-1.3-.44-.09-.42.23-.65-.63-.21-.85-.21-1.71-.21-1.71,0,0-.52-.09-1.28-.42-.74-.32-.32-.54-.53-1.29-.21-.72-.32-.84-.32-.84,0,0-.32.53-.74-.31-.4-.85-.42-1.49-.64-1.92-.21-.42-.44.22-.63-.3-.2-.53-.3-.65-.3-.65l-1.07.23.1-1.82-.77.32s-.61-.74-.41-1.16l-.43-.66-.21-.94h-.84s-.31.12-.31-.63-.1-.75-.1-.75h-1.06s-1.79-2.23-5.01-4.78c-3.2-2.55-2.21-2.11-3.71-2.76-1.51-.62-.87-.82-2.15-1.14-1.26-.34-1.73-.39-1.73-.39,0,0-.6-.54-1.07-.7-.28-.09-.87-1.31-2.49-2.61-1.27-1.02-3.36-2.07-4.99-2.74-3.78-1.5-4.89-1.44-6.14-2.15-1.29-.7-3.03-1.26-3.03-1.26l-.65-2.01s.17.57-.07,1.29c-.24.72.07,1.1-.72,1.02-.78-.06-2.07-.22-3.66-.22s-2.64,0-3.27.48c-.66.47-.79.57-1.27.57-.51,0-.82.53-1.45.85-.65.34-.71.95-1.06.41-.29-.57-.51-.79-.51-.79,0,0-.27.56-.51.93-.24.4-.24,1.6-.71,1.05l-.54-.65s.3.83.21,1.36c-.06.56-.71,1.04-1.16.81-.48-.25-1.05-.18-.96-.96s-.31-2.16-.31-2.16c0,0,.31,1.78-.42,1.91-.69.18-1.41-.95-1.41-.95l-1.6-.95s.07,1.12.86,1.2c.83.07,2.39,1.11,2.58,1.99.16.87.06,1.2.06,1.2,0,0-.72.39-1.59.15-.88-.23-1.28-.54-1.59-.71-.31-.18-2.94-1.19-2.94-1.19,0,0,1.19.78,1.82,1.12.64.3,1.29.3,1.59.79.34.48-.22.89-.79.89s-2-.41-2.38-.5c-.41-.06-4.97-.62-4.97-.62,0,0,4.14.96,4.38,1.28.25.3-.71.62-1.03.96-.3.3-.41.3-1.13.93-.71.65-.53.97-1.26.65-.71-.32-1.19-.41-1.19-.41l-1.67-.94s1.5.7,1.27,1.35c-.25.64,0,.87-1.12.64-1.11-.25-1.81-.64-1.81-.64,0,0,.93.32.93,1.05s-1.49.86-1.82.86c-.31,0-1.11,1.12-1.11,1.12,0,0-.16.48-1.19.48s-1.76-.24-1.76-.24c0,0,1.13.06.71.95-.39.86-.39,1.35-1.02,1.42-.66.08-.26-.22-.74.24-.48.47-1.18.71-1.11.17.09-.57-.07-1.52-.07-1.52l-.54,1.77-1.68.29s-.1-.95-.71-1.41c-.65-.48-1.19-1.12-1.19-1.12,0,0,1.74,1.36,1.11,2.06-.64.72-1.51.64-1.51.64,0,0,.22-.81-.35-1.75-.54-.95-.93-1.28-.93-1.28,0,0,.79,1.34.7,2.47-.07,1.11-1.45,1.04-1.75,1.04-.32,0,.09.14-.95,0-1.03-.17-1.28.24-1.68.32-.38.06-2.23.31-3.04.31h-.95s-1.04-1.58-1.44-1.68c-.42-.08-.65-.08-.65-.08,0,0,1.23.54,1.29,1.68.1,1.12-1.74,1.36-2.15,1.12-.38-.24-1.44-2.57-1.74-3.28-.35-.7-3.12-4.6-3.12-4.6,0,0,.87,1.8,1.91,3.57,1.03,1.74,1.68,2.95,2,3.52.3.54.3,1.03.3,1.03,0,0-1.57.07-2.62-.32-1.03-.39-1.29-.56-1.75-.7-.48-.17-4.22-2.01-4.22-2.01,0,0,3.74,2.33,4.3,2.8.57.48.3.95-.31,1.04-.64.06-.74.23-1.19-.08-.46-.32-.38-.57-1.36-.41-.93.15-.63.72-1.27.15l-1.6-1.33s1.05.56.71,1.51c-.31.94-.78.88-1.57.53-.81-.3-1.45-3.08-1.45-3.08,0,0,.34,2.16-.07,2.47-.4.3-.89.54-1.04.07-1.36-.48-1.36-.73-1.36-.73,0,0-.38-.07-.72-.71-.31-.62-.86-1.58-.86-1.58,0,0,1.32,2.7.73,3.36-.53.61-1.76.14-2.35-.34-.56-.48-.62-1.28-.47-1.75.17-.47.56-1.45.56-1.45,0,0-.64.79-1.28,2.08-.63,1.28-1.35-.34-1.35-.34l.54-3.01s.18,2.29-.86,2.63c-1.06.31-.64-.48-1.35-.59-.72-.06-.45.25-.57-.62-.06-.88-.24-1.12-.8-1.34-.54-1.13-.79-1.6-.79-1.6l-.65.88s-.54-.64-.64-1.44l-.08-.8-1.02.48s-.56.38-.48-.88l.06-1.28-1.02-.41s-.48.07-.63-.3c-.17-.41.22-.54-.48-.65-.74-.08-.96.34-1.47-.54-.46-.88-.15-1.2-.86-1.2s-2.55-.72-3.43-.72-.63.56-1.22-.31c-.53-.88-.67-.95-1.81-1.13-1.12-.14-1.35-.3-3.34-.46-2-.15-1.93-.81-3.27.08-1.37.88-1.99,2.16-1.14,1.82.89-.31,1.2.8,1.2,2.58s.09,4.37,3.27,8.35c3.21,3.99,5.2,5.9,5.84,6.55.63.63,1.27.54,1.49,1.17.28.66.18.73.8,1.04.66.31.5-.24.98.56.46.79.4.89.81,1.12.37.24.62.16.86.95.26.8-.32,1.51.54,1.28.88-.25,1.68-.48,1.61.23-.07.74-.32,1.2.29,1.28.65.07,1.38-.17,1.38.39s-.42,1.06-.73,1.53c-.29.49-.47.96-.47.96,0,0,.79-.71,1.59-1.2.81-.47,1.27-.72,1.27-.72,0,0,.25.56-.06,1.68-.31,1.11.57,1.84,1.49,1.59,1.01-.24,1.01-.07,1.01-.07,0,0-.36.89,0,.71.27-.16.91-.39,1.33-.48.38-.07,1.2-.46,1.68.24.87,1.36.54,1.59,1.45,1.05.87-.56,1.64.62,2.54.54.87-.06,1.75-.48,1.82-.14.07.31-1.51,1.89-1.51,1.89,0,0,1.58-1.57,2.29-1.68.73-.07,1.78.1,2.82-.62,1.03-.71,1.03-1.45,1.27-1.05.23.42-1.69,3.21-1.27,3.03.39-.15,1.35-1.26,1.5-1.57.17-.35.42-.58.9-.89.44-.32,1.26-.42,1.82-.48.53-.08.53.25,1.05-.23.45-.49.62-.32,1.26-1.13.63-.8.63-.71.63-.71l.74,1.68s-.48-1.42,0-2c.46-.56,1.02-.96,1.02-.63l-.09,2.23s.35-.47.65-1.13c.3-.61.23-.92.88-.92s.56,0,.72-.65c.15-.65.54-1.13.54-1.13,0,0,.97-.3.8.1-.16.38-.65,3.01-.65,3.01,0,0,1.05-2.8,1.53-2.94.39.24.24,1.93.24,1.93,0,0-.08-1.84.96-2.17,1.03-.32,1.92-.17,1.92-.17l.27,2.58.19-2.73s1.54-.07,2.07-.07h1.28s.71,2.01.71,1.68l.08-1.99s1.36-.57,1.36-.23v3.16l.41-2.39.7.72,1.98,3.26s-1.51-3.49-1.68-4.45c-.14-.96,1.06-1.42,2.33-1.35,1.27.08,2.65.89,3.52,1.05l.87.15s.4.4-.81.97c-1.2.54-2.06.71-2.06.71,0,0,2.06-.34,3.44-.82,1.33-.47.94-.61,1.81-.54.88.07.96.4.96.4,0,0-.63,1.35-1.28,2.38-.64,1.04-.72,1.13-.72,1.13,0,0,.8-1.13,1.85-2.1,1.04-.95.86-1.27.86-1.27l1.2.17s-.96,2.64-1.76,3.2c-.79.54.4-.18,1.99-1.52,1.59-1.36,2.06-1.68,2.55-1.92.48-.23.95-.64.95-.32s-.47,4.63-.47,4.63c0,0,.18-3.17,1.06-3.82.85-.65,1.5-.16,1.5-.16l-.41,2.15s.73-1.52.95-2.64c.25-1.11,1.42-1.9,2.02-2.3.53-.41.45-.31.53-.71.64-.48.64-.08.89-.72.24-.62.24-.71,1.03-.79.8-.08,1.2.3,1.51-.24.31-.56,1.84-.79,2.01-1.1.15-.34.39-.65.8-.65l-.35,3.8s1.29-1.81,1.7-2.84c.38-1.03.06-1.28.69-1.53.64-.23.35-.17.81-.47.49-.32.87-.64,1.52-.49.64.17.96.4.96.4,0,0-.25,1.6-.25,2.33s-1.1,3.82-1.1,3.82c0,0,1.5-4.13,1.75-5.08.24-.97-.25-1.15.24-1.15s1.04.42,1.35.48l1.59.48-.54,4.71,1.24-4.93s1.78.41,2.41.47c.64.07.95-.57.71,0-.23.56-.54,1.91-.54,1.91,0,0,.47-1.59,1.03-1.97.56-.41,1.29-.34,1.29-.34,0,0,.15,1.5,1.76,4.45,1.58,2.95,3.64,6.44,3.98,7.1.3.64.24.39.62,1.19.4.8.28.93.88,1.44.65.46.88.15,1.04,1.19.16,1.04.97,1.99,1.52,2.55.54.53,4.62,6.1,5.27,6.94.65.88.65,1.18,1.29,2.03.64.84,2.43,2.55,2.43,2.55,0,0,.65.96,1.49,1.69.86.76,1.5,1.41,2.36,2.78.85,1.38.54,1.37,1.27,2.11.74.76.65,1.3,1.38,1.51.75.22,1.18.96,1.49,1.6.31.65-.1.43.65.95.72.5,0,.63.63,1.81.62,1.14.42,1.05,1.16,1.37.74.32.51-.32.96.51.42.84.42.76,1.07,1.08.63.34.63-.43.96.53.29.95,0,.95.5,1.15.56.23.87-.13.76.65-.13.73-.76.31,0,.85.71.52.71.2.84.74q.12.53.73.72c.66.23,1.82,1.17,2.13,1.93.34.75.21,1.06.64,1.26.42.22-7.22.13-7.22.13,0,0,8.09.09,8.6.84.54.75.65.95,1.5,1.49.84.53,1.06.75,1.18,1.28l-5.53,1.93s5.71-1.4,6.15-.65c.42.74.76,1.07.76,1.07-.65.42-3.52,2.87-3.52,2.87,0,0,3.29-2.22,3.94-2.22.61,0,.96-.1.73.42-.21.53.73.53.73.53.13.74.13,1.16,1.06,1.27.96.09,1.07.95,1.07.95,0,0-4.78,3.61-7.03,4.14-1.2.28.62-.21,2.91-1.27,1.92-.91,4.21-2.41,4.65-2.02.95.84,1.18,1.36,1.49,1.9.31.57,1.71-.09,2.01.57.32.62.32,1.36.32,1.36,0,0-.08,1.79.85,2.23.97.44.75,1.29,1.38,1.72.62.4,1.28,1.05,1.28,1.58s.85,1.69-1.8,1.92c-2.66.19-3.96-.65-5.42-.86-1.49-.22-1.38-.34-1.19.42.22.75.22,1.6-.92,1.94-1.16.29-1.82,1.06-2.89-.13-1.04-1.18-1.91-1.79-3.07-1.27-1.17.51-.76,1.05-2.03,1.35-1.26.31-1.04.75-1.71.31-.61-.4-.71-.85-.71-1.77s-.13-2.03-.75-2.68c-.65-.64-1.49,0-1.37-.94.08-.95.72-.65,0-.95-.77-.31-.78-.12-.97-.76-.22-.62.02-.72-.73-.92-.76-.23-1.16-.42-1.16-.96s.62-.88-.22-.75c-.83.1-1.17-.21-1.17-.96s-.23-.93-.73-.83c-.54.09-.65,1.06-.97.09-.29-.95-.08-1.4-.52-.95-.42.42-.73-.22-.95-1.7-.23-1.5-1.35-1.93-1.92-1.81-.54.12-1.08-.12-1.17-1.27-.09-1.16-.3-1.8-.73-1.07-.44.76-1.72-.01-1.59-.85.09-.84-.43-1.28-.43-1.28,0,0-.85,0-1.5-.96-.65-.95-.65-1.04-1.04-.84-.44.22-.64.41-.88-.43-.2-.84.32-1.06-.4-.84-.76.19-.86-.64-1.69-1.69-.88-1.07-.46-.46-1.31-1.31-.83-.84-1.58-1.16-2.22-1.58-.63-.42-.63-.22-1.26-.64-.66-.42-1.08-.63-1.4-1.28-.3-.62.12-.73-.87-1.15-.94-.43-4.33-2.55-7.64-4.89-3.3-2.33-5.74-3.82-7.11-4.04-1.37-.21-2.66-1.16-3.81-1.58-1.17-.43-1.74-.22-2.77-.64-1.06-.42-1.48-.85-2.34-.96-.87-.1-.87.32-1.59-.1-.75-.42-1.81-.31-2.66-.53-.84-.21-1.9-.63-3.07-.96-1.18-.3-2.15-.42-3.21-.08-1.05.31-.1,1.16-2.22.74-2.16-.43-2.77-.74-3.64-.84-.84-.13-2.33.51-3.07.51s-5.09.09-6.69.21c-1.59.12-3.38,0-6.68.95-2.71.78-3.39.32-3.39.32,0,0-.32-1.12-.83-2.73-.5-1.6-1.27-1.71-1.27-1.71,0,0,1.33,2.08,1.27,3.32-.06,1.2-.06,1.91-.06,1.91l-2.1.44s-.57-.51-1.74-1.23c-1.14-.69-3.57-1.33-3.57-1.33,0,0,2.64.71,2.93,1.23.35.49,2.67,1.36,1.75,1.63-1.28.39-1.47.57-1.63.75-1.47.81-.93.78-1.5.78s-.71-.42-.71.03.39.74-.59.74-2.22-.13-2.22-.13c0,0-3.49.49-4.47.74-.95.28-1.12.41-1.12.41,0,0,4.88-1.2,4.84-.58-.08.64-.65.82-1.11,1.1-.42.25-.37.68-.81.62-.46-.06-.26-.62-.64.13-.39.76.26.69-.7.9-.65.19-.7.46-1.99,1.68-2.99,2.8-5.86,6.56-5.94,7.33-.02.4-.56,1.71-1.08,1.9-.48.18-.04.18-1.81.46-1.78.22-4.22,1-3.92,1,.35,0,3.33-.39,3.6-.43.06.48-.22,1.59-.71,2.16l-1.72,1.84c-.31.31-.97.76-1.35,1.03-.38.23-.37.3-.89.81-.5.51-.31.78-.63.96-1.17,1.03-.9,1.14-1.66,1.33-.77.21-.7.24-.9.58-.22.32-.64,1.54-1.62,1.85-.93.32-.52.32-1.14.88-.68.57-.27.25-1.14.8-.87.56-.87.42-1.28.95-.39.57-1.13,1.44-1.64,1.99-.58.57-1.12,1.37-1.85,1.61-.71.23-.49-.08-1.06.64-.54.7-.38.93-1.03,1.41-.65.5-.8.64-1.35,1.13-.56.46-1.68,1.58-2.16,2.05-.47.48-.62.34-.85.82-.24.48.16.69-1.05,1.59-1.19.88-1.91,1.02-1.98,1.64-.08.65-.25,1.05-1.37,1.78-1.12.7-1.27.7-1.45,1.1-.13.41-1.81,1.44-2.37,2.15-.57.72-.41,0-.41.96s-.65.63-1.44,1.12c-.8.48-.65.41-.65,1.03,0,.65-1.03.81-1.41,1.2-.41.39-.24.64-.81.79-.51.25-.57.34-.81.64-.37.58-.24,1.74-.89,2.4-.61.62-.61.4-.61.79s-.41,1.27-.87,1.44c-.5.17-.08-.39-.66.25-.52.63-.52.39-.93.56-.4.14-.4.4-.63.7-.25.34-.79,1.93-1.55,1.93-.71,0-.71-.07-.86.3l-2.65-1.74s2.35,1.12,2.08,1.98c-.23.88-.93,1.44-1.33,1.44-.42,0-.26-.38-1.04,0l-2.02,1.05s-1.35.08-1.35-.94.31-.89-.29-1.37c-.66-.47-1.85-.88-2.82-.71-.96.16-.08.54-2.06.16l-2.78-.57s2.16.71,3.03,1.12c.85.41.45.71,1.45.3.95-.38.7-.71,1.49-.61.8.07,1.2.96,1.44,1.57.26.65.96,1.27,1.52,1.45l.81.23s-1.05,1.35-1.77,1.44c-.7.08-.41-.69-1.19.4-.49.71-.48.82-.5.82-.6.21-.6-.19-.75.45-.16.65.07.72-.41.82-.47.06-.8-.09-.89.31-.74.66-.84.7-.89.73-.28.53-.45,1.01-1.02,1.25-.54.24-.86.32-1.68,1.12-.8.82-1.4,1.28-1.91,1.6-.48.32-7.98-1.45-7.57-1.29.39.15,7.66,1.2,7.36,1.68-.34.5-1.37.96-1.7.96s-7.18-.57-6.6-.46c.52.06,6.92.46,5.96,1.16-.94.71-1.03.71-1.12,1.13-1.42.88-1.97,1.02-2.22,1.58-.09.2-.17,1-.35,1.2-.36.47-.95.38-1.39.47-.74.17-.43,0-.88.71-.49.72-1.6,1.04-2.08,1.58-.48.57-.95.35-1.3.16-.3-.16-7.48-.78-7.48-.78,0,0,8.45.41,7.99,1.61-.69,1.62-1.45,1.89-2.49,1.8-1.03-.05-1.11,0-1.91.08-.8.06-1.28.4-.57.58.73.15,1.36-.18.89.86-.47,1.04-.47.95-1.12.57-.81.95-.94.95-2.55.3-1.58-.64-3.12,0-3.12,0,0,0,3.53.08,3.69.89.14.79-.41.06-.5.56-.06.47.35.71-.46,1.05-.81.3-1.46.72-1.46.72l-2.05.21s1.92-.31,1.57.4c-.27.72-.93.57-1.16.96-.25.41-.1.32-.95.41-.9.06-2.65.4-3.44.4s-2.05.23-2.05.23c0,0,2.36.16,3.15.16s1.05.07.74.39c-.35.35-.26.35-.89.4-.65.09-2.08,1.37-1.58,1.12.44-.25,1.91-1.12,1.91-.71s-.08.57-.4.71c-.31.16-2.01.25-2.01.25,0,0,1.7-.09,1.83.57.18.62-1.19,1.68-2.04,1.68-.89,0-.65,0-1.2.45-.58.48-1.35,1.06-1.35,1.06l-.73-1.75s.65,1.75,0,2.29c-.65.57-2.3,1.19-2.79,1.45-.48.24-1.18,0-1.68.24-.47.23-.56.53-1.19.63-.62.06-.42,0-.8.31-.42.34,0,.48-.95.57-.95.07-1.37.54-1.76.7-.4.16-1.51.46-1.51.46.07.41-.89,1.3-1.52.96-.63-.3-1.05-.3-1.18.18-.16.47-.1.89-1.18.79-1.13-.07-1.6-.07-1.6-.07l-5.43-2.94s5.16,2.7,5.08,3.34c-.06.65-.62.8-1.16.71-.58-.06-1.19,0-1.19,0l-5.35-2.39s4.3,2.01,4.22,2.54c-.08.59-.41.96-1.37.96s-.86.57-.86.57c0,0-.56.57-1.06.5l-1.03-.18s1.62,1.12,1.03,1.12c-.54,0-2.2.88-3.02.79-.8-.06-1.82-.06-1.82-.06l2.4.94s-1.44,1.1-2.16.89c-.71-.24-1.27-.48-1.27-.48,0,0,1.12.87.62,1.03l-.71.24s.41.8-.23.88l-.7.08-.19.86s-1.03.89-2.16,1.36q-1.09.47-2.05,1.04c-.94.56-1.44,1.19-1.76,1.58.32.24.57-.31.96.09.4.38.49.24.08,1.41-.42,1.23-.57,1.69-.48,2.63.06.97-.3,1.05.89.83,1.2-.24.63,1.42,3.65,2.14,3.04.72,6.46,1.92,13.08-1.03,6.59-2.96,11.8-6.86,12.67-6.69l.89.15v-.71s2.2-1.11,3.56-1.68c1.37-.57,8.38-3.25,9.16-3.9,1.2-.56.73,5.09.73,5.09l.79-5.74.71-.24v3.92l.49-4.32.71-.31,1.12,3.58-.71-3.83.62.19.71,2.7-.37-2.96.69-.06.5,1.81.37-3.09,1.76-.87.59,3.1v-3.1l.63,2.07.16-2.64s5.65-2.7,9.88-6.52c2.62-2.39,4.82-4.49,6.98-6.44,1.33-1.17,2.74-2.3,3.95-3.37,3.1-2.79,6.92-6.54,7.54-7.09.65-.54.5-.24.99-.71.48-.49,1.26-1.05,1.26-1.05l.08,2.18s.3-1.93.54-2.64c.25-.72,2.17-3.35,2.17-3.35,0,0,.09,1.56.03,2.47-.09,1.14-.13,2.08-.13,2.08,0,0,.34-3.6.49-5.12.15-1.51.8-1.33.8-1.33,0,0-.17-1.45,0-2.5.18-1.03.56.48.56-.53s1.18-2.95,2.08-3.04c.89-.07,1.34-.07,1.34-.07,0,0-.45.07.3-.72.81-.79,1.48-1.19,2.02-1.27.53-.1,2.62-.71,3.74-.96,1.1-.23,1.34-.16,1.98-.41.66-.22.49-.22,1.12-.94.65-.72.87-.64,1.37-.95.45-.31.85-.49.85-.49.6.61.17,1.46-.58,2.39l-1.06,1.28s2.23-2.73,2.69-2.99c.44-.25.5-.13.83-.31.34-.19.7-.07,1.1-.49.37-.47,1.19-.7,1.51-.6l.57,3.01s-.04-3.01.28-3.01c.29,0,.62.13.62-.38s.12-.68.21-1.02c.05-.31.74-.43.74-.43l-.21-1.33s-.02-.65.48-.47c.44-.49.06-1.08.38-1.08h1.27s-.36-.07-.64-.9c-.26-.82-.13-.95-.13-.95l.7-.12s.72-.2.96.25c.26.43.56.75.56.75,0,0-.44-1.19-.51-1.77-.04-.6.86-1.54.86-1.54l.82.13.21-.81s.13-.59.68-.65c.58-.06.5,1.46.5,1.46l.26-1.95c.06-.59.25-.9.71-.97.42-.06.78,0,.78,0l-.2-.94s-.07-.19.69-.19.59-.21.78-.72c.19-.49.64-1.27.9-1.15.25.15,1.58,1.23,1.58,1.23,0,0-.46-.85-.65-1.61-.19-.73,0-1.46.34-1.12.31.3.68.94.68.94l.08-1.66c.82,0,1.19.84,1.19.84l.08-1.93c0-.32,1.06-.88,1.57-1.01.51-.12,1.4,1.27,1.4,1.27,0,0-.89-1.34-.43-2.17.43-.84.78-1.58,1.03-1.77.25-.2.54-.35.62.06l.13.87.53-1.2,1.26,1.79s-.72-2.11-.43-2.74c.25-.63,1.83-1.29,1.83-1.29l.07,3.14s.04-3.57.13-3.81c.06-.25.94-.9,1.51-1.15.58-.26.67-.46.71-.2l.31,1.66s.06-1.59.2-2.23c.13-.63.24-.63.61-.75.41-.16,1.12-.46,1.12-.46l-.13,1.59s0-1.89.37-2.3c.4-.37.57-.42.89-.48.32-.08.44-.78.44-.78l.08,2.86s-.08-2.87.19-3.26c.25-.38.57-.75.69-.31.15.44.35.75.35.75,0,0,.61-.44.68.16.07.58.39,2.07.39,2.07,0,0,.17-1.95-.06-2.27-.25-.34-.67-.64-.46-1.08.46-.51.9-.41,1.05-.78.12-.38.43-.72.67-.78.25-.05.89.15.89.15,0,0,.79,2.48.79,2.15,0-.3-.71-2.26-.65-2.85.06-.59.78-.88.89-.66.12.26.45,3.29.52,3.01.06-.24,0-2.78,0-2.78,0,0,.38-.47.95-.93.57-.41.87-.88.94-.63.08.26-.05,1.8-.05,1.8l.78-1.68,1.02,3.2-.13-3.2,1.06,2.17-.12-2.22s.47-.19.85-.69c.37-.51,1.15-.34,1.32-.66.2-.3.79-.37.79-.37,0,0-.75,1.45-.23.87-.85,1-1.12,1.74-1.12,1.74l1.84-2.1.69-.78c1.16.32,1.68-.32,1.82-.76.09-.44.51-.83,1.06-1.08.52-.27.88-.58,1.25-1.11.42-.49.38-.63.96-.8,1.02-.28,1.32-.13,1.38-.18-.29-.66-.72-1.24.62-1.24s.84-.14.84-.14l.42-.69,1.22-.07.21-.62,1.06-.13c-.1-.51.06-1.23.47-1.23l.76,1.14-.06-1.33s.62-.48,1.03-.12c.37.38.74,1.14.74,1.14,0,0-.8-1.46-.51-1.58.34-.16,1-.78,1.39-.65.41.13,1.03.65,1.03.65,0,0-.65-.46-.25-.78.4-.32.73-.44.73-.44l.23-.96s1.6,0,1.86.26c.23.26.57.57.82.75.25.18.58.39.65.95.05.59.1.89.49.95.4.07,1.08,1.47,2.48,1.92,1.41.46,2.55.45,2.76,1.14.18.71.3,1.15.89,1.53.56.38.62,0,.84.66.19.62.54,1.01.84,1.13.24.12.67.7.67.7,0,0,.06.5.43.62.4.16-.04.66.66,1.05.71.37.39-.58.76.37.39.95.25,1.35.91,1.46.62.15.89,1.01.89,1.01,0,0-.2.29.41.66.65.4.81.78,1.17.78.73.74.96,1.03,1.2,1.15.26.12.06.43.65.81.57.4.31,0,.62.47.31.45.4.57.99.82.54.26.5-.06.74.45.27.5.06.4.7.78.65.37.95.49,1.48,1.07.49.59.42.45.81.65.7.84.6.93,1.17,1.2.57.26.54.57.73,1.09.23.51.23.82.9,1.02.71.18,1.13-.2,1.13.22,0,.44-.44.74-.44.74l1.38.16c.6.31.75.81.75.81.57.74.68.93.68.93l-2.25,1.6,2.56-1.38.96.6s-1.09,1.15-1.33,1.74c-.2.58-.2.7-.2.7,0,0,1.07-1.28,1.33-1.71.25-.43.49-.59.49-.59,0,0,.91.22,1.15.64.21.43-.15.53.24.63.45.12.4.12.97.17.57.05.69.22,1,.28.54.58.92,1.54.92,1.54l-4.78,5.11,4.4-4.28s.47-.64.74-.57c.28.05.54.31.74.53.22.2.98,1.1.98,1.1l-.83,2.07-3.51,1.13,3.09-.81-1.13,1.48s-1.19,1.12-1.84,1.44c-.65.31-2.98,2.55-2.98,2.55,0,0,2.74-1.75,3.18-2.18.44-.42,1.37-1.05,1.37-1.05v2.64l.72-1.8s.82-1.84.97-2.11c.18-.28.8-2.07.95-2.49.19-.45.4-.97.88-1.12.48-.18.09.74.09.74l-.98,1.94,1.44-1.56,1.29.35,1.39.27s-.43.91-1.12,1.12c-.69.18-1.53.53-1.53.53l-2.07,2.69s1.58-1.06,2.6-1.92c1.01-.84,1.67-1.44,1.91-1.44.27,0,.79.29.79.29l-.19.97-1.6,2.78s1.98-3.31,2.36-3.38c.36-.12.66.22.87.22l-1.47,4.47s1.54-3.79,2.17-3.96c.66-.18,1.23.04,1.23.04l-.41,1.61.96-.84-1.12,1.96s1.53-1.39,1.84-1.24l-1.28,2.99,1.6-1.72,1.95.21s.07,1.45-.27,1.82l1.17-.31-.36,1.19,1.32-.88.13,1.42.45-.84s.6.59,1.13.75l.37,1.35s.18-.57.68-.57c.54,0,.96.15.96.15l-.27,1.17s.72-.46,1.24-.52c.54-.06,1.12,0,1.12,0,0,0,.42.3.83.59.45.25,1.98,1.62,1.98,1.62l-.38-1.57c-.13-.7.58-.64,1.18-.34.59.34,1.02.53,1.2.22.22-.3.66-.36,1.07-.3.42.04.98.08,1.38-.22.38-.31,1.2-.14,1.2-.14,0,0,1.14.85.93,1.26-.23.42-1.29.56-1.29.56.06.47-.47.97-.93,1.28-.73.53-1.6.96-.18.31,1.44-.62,1.33-.46,1.92-.62.57-.16,1-.09,1-.09l.18,1.31s-.69-.16-1.17.22c-.48.38-.88.9-1.74,1.16-.82.27-.5-.08-1.3-.15-.78-.05-.72.08-1.07-.1-.3-.23-.1-.91-.42-1.17-.31-.27-1.02-1.02-1.02-1.02,0,0,.28.75.64,1.17.38.41.49,1.33.49,1.33,0,0-.71.1-1.25.04l-.53-1.44c-.56-1.36-.88-1.64-.88-1.64,0,0-.46-.19-.76-.4-.29-.5,0,.71-.45.62-.48-.1-.74.43-1.28-.1-.56-.53-.64-.47-1.17-.65-.54-.84-.49-.7-.7-.46-.21.26-.53-.09-1.22-.16-.67-.08-.9.04-1.33-.42-.42-.48-.7-.18-1.06-.48-.36-.35-.73-.46-1.17-.46s-1.58-.25-2.21-.41c-.66-.15,0-1.41,0-1.41l-.86,1c-.3.36-.6.21-1.34.21s-1.37.54-1.9-.05c-.57-.59-.76-.79-1.28-.79-.54,0-2.36.3-3.47.3s-1.31.19-1.57-.02c-.29-.23-.64-.82-.64-.82,0,0,.58.65.19.82-.35.15-.73.35-1.11.02-.36-.3-.61-.3-.66.06-.07.37-.6.62-.98.62-.37,0-.73-.02-1.16-.25-.45-.23-.87-.37-.87-.37l-.31.95s-.3.12-.63.12l-1.29.03-.08.64s-1.6.29-2.14.31c-.53.05-1.3.31-1.76.31-.42,0-1.22.24-1.89.4-.69.17-.97.24-1.72.71-.72.5-1.03.6-1.76.66-.72.08-.68.3-1.27.65-.6.31-.85-.07-1.13.31-.25.38-1.33.81-2.22.84-.88.06-1.16.22-1.58.49-.41.25-.41.15-.91.31-.46.16-.37.19-1.02.41-.62.24-.49.18-.73.56-.22.37-.32.47-.73.58-.42.09-1.17.57-1.12.93-.75.88-.67,1.28-1.08,1.4-.66.68-.66.64-.84.74-.48.69-1.66,1.23-2.22,1.6-.61.36-.27.46-.96.58-.69.08-.92.22-1.23.43-.31.19-.9.73-2.17,1.04-1.3.34-1.05.42-1.67.82-.66.41-.6.23-1.45.65-.88.39-1.58.94-1.58.94,0,0-.19,1.08-1.38,1.28-.67.13-.93.14-1.13.25-1,.92-1.31,1.42-2.26,1.86-.95.44-.93.51-1.7.96-.74.43-1.59,1.05-2.14,1.38-.49.31-2.64,2.35-3.51,2.87-.85.52-.72.3-1.49.95-.73.63-.84.63-1.46,1.15-.65.54-1.07,1.06-1.84,1.49-.73.43-.92.96-1.79,1.5-.84.53-1.04.54-1.46.96-.45.41-.44.21-1.62,1.27-.58.53-.69.58-.76.65-.08.05-.15.16-.63.72-.93,1.17-1.04,2.01-1.91,2.86-.84.87-.84,3.1-2,3.62-1.17.53-1.81.53-2.02,1.15-.21.65-1.27,1.94-1.27,1.94,0,0-2.12-.27-3.25.14-1.15.38-4.48,1.61-4.48,1.61,0,0,4.15-1.36,5.78-1.42,1.68-.06,2.15.4,1.3.69-.83.32-.83.21-1.03.58-.19.39-.51.91-.76,1.35-.25.46-.39,1.09-.89,1.2-.51.13-2.15.13-2.15.13l.61.6s-.5.5-.76.44c-.24-.07-5.72-.14-5.72-.14,0,0,6.32.09,6,.65-.35.57-.89,1.3-1.35,1.53-.43.18-.43.3-.63.61-.66.36-.83-.05-.96.36-.12.37-6.13-.28-6.13-.28l6.38.65s-.43.76-.96.96c-.49.18-7.57.18-7.57.18,0,0,6.89-.19,6.62.52-.23.69-1.26,1.27-1.51,1.66-.26.37.25.43-.78,1.14-1.02.7-1.6.76-1.86,1.22-.25.45-8.45.88-8.45.88,0,0,8.45-1.02,7.9-.13-.57.9-1.53,1.84-1.59,2.1-.06.26-.2.5-.9.78-.69.26-.69.45-.95.7-.25.24-.94.88-1.35,1.2-.39.3-1.31.49-1.58.96-.25.43-.86,1.46-1.24,1.91-.35.43-.69.96-1.06,1.02-.37.06-3.9.06-3.9.06,0,0,3,.13,3.11.5.14.4-1.85,2.33-2.42,2.76-.56.45-.84.45-.84.75,0,.34-.62,1.24-1.25,1.67-.64.43-1.48.73-1.74,1.33-.25.6-.19,1.09-1.15,1.34-.95.26-.97.15-.97.69,0,.59-.53,1.35-1.24,1.73-.71.39-1.09.9-1.91.96-.84.07-5.48,2.73-5.48,2.73,0,0,5.35-2.88,5.72-2.29.39.6-.43,1.56-1.08,1.8-.65.25-1.03.37-1.09.69-.04.34.66.79-.37,1.54-1.03.74-.89.68-1.67,1.11-.76.47-.96,1.3-1.13,1.74-.28.61-1.16.96-1.16.96l-.56-1.02s.19.9.22,1.38c.08.51-.82,1.24-1.18,1.97-.39.78-.89.47-1.23.28-.31-.18-.32-.65-.06-1.48.26-.83,0-.38,0-.38,0,0-.63,1.29-.63,1.79s.63,1.01.63,1.01c0,0-.13,1.11-.63,1.6-.52.5-.34.74-.84,1.28-.52.48-1.28,1.28-1.79,1.81-.51.6-.51.4-.82,1.42-.31,1.03-.26,1.73-.52,2.3-.25.56-.56.51-.69,1.01-.13.52-.7.56-1.6,1.46-.88.94-2.93,3.31-4.71,4.65-1.83,1.38-2.37,2.24-4.67,4.26-2.36,2.02-4.69,4.13-5.54,4.88-.84.76-1.19.76-1.38.35-.21-.44.44-1.5.96-2.03.5-.49,1.07-.95,1.07-.95l-2.24,2c-1.07.96-1.46,1.28-2.54,1.78-1.08.49-2.36,1.14-3.14,1.2-.66.05-.56.03-1.05,0,.6,0-.46.7-1.75,1.16-.69.25-.88.44-.88.44,0,0-1.02.31-1.59.37-.58.06-.84.71,1.16,0,1.94-.69,3.57-1.92,4.89-2.03,1.34-.12,1.6.13,1.4.71-.19.54-.27,1.07-.82,1.13l-1.55.14-.84,1.15s-.75-.58-.75-.32.75,1.86.75,1.86l-2.44.09-.35.72-2.73.29-1.67.27-3.65.44,3.28.6s-1.02.36-.35.49c.71.13.43.76-.06.76s-4.53-.4-4.21-.27c.34.15,3.84.19,3.64.71-.17.52-.65,1.28-1.26,1.28s-4.01-.45-4.01-.45c0,0,3.69.39,3.3.96-.37.58-.27,1.13-1.27,1.08-1.02-.06-5.03.32-5.03.32,0,0,4.14-.27,3.61.7-.48.96-1.28.87-1.89,1.03-.64.13-3.9.24-3.9.24,0,0,1.15.38,2.03.38s1.33.18.64.65c-.69.44-1.47.38-1.47.38l-.5,1.59s-1.61.7-2.12.58c-.48-.13-2.44-.13-2.44-.13,0,0,2.88.04,2.5.43-.41.4-.75.72-1.48.9-1.67.24-3.29.9-3,.96.4.06,2.9-.9,2.58-.44-.34.44-.44,1.45-1.16,1.59-.7.12-2.36.7-3.08.89-.66.19-.93.31-.93.31,0,0,2.85-.82,2.49-.06-.37.75-.66,1.26-1.2,1.91-.59.65-.72,1.27-.79,2.23-.05.96-.32,1.86-.6,2.42-.37.6-.87,1.17-1.69,1.33-.84.2-.71,0-1.48-.25-.78-.24-1.22-.44-1.22-.44,0,0,.96.39.7.89-.26.51-.52,1.28-.78,1.33-.37.79-1.13.35-1.27.84-.12.51.2.62-.78.58l-5.11-.23s3.2.38,3.4.68c.2.31-1.01,1.2-1.29,1.2-.22,0-2.12,0-2.6-.1-.5-.14-4.41-.6-3.94-.41.43.21,2.65.73,3.61.85.96.1,1.16.3,1.16.3,0,0-.56,1.02-1.16,1.07-.59.07-1.25.72-1.25.72l-.48-.96-.62,1.34-3.99-.26,1.9.52s-1.14.5-.85.63c.32.13.79.37.79.37,0,0-.46,1.36-.9,1.49-1.33.39-2.36.3-2.36.3,0,0-.19-.94-.58-.43-.38.51-.8,1.23-1.14,1.92-.38.69-1.66.62-1.66.62,0,0-.71.71-.89,1.09-.22.38-.4.71-1.02,1.14-.65.45-1.35,1.03-2.3,1.68-.96.63-1.55.93-2.15,1-.54.09-1.04.18-1.04.18l.3.72s.6.62-.12.71c-.71.05-1.27.19-1.27.19l1.38.32s-1.02,1.4-1.84,1.53c-.83.1-2.92.24-2.92.24l1.52.46c-1.1.87-.95.95-.95.95,0,0,.25,1.26.04,2.01-.19.79-.58.6-.48,1.18.05.57.48,1.34-.07,2.21-.58.89-.94,1.67-.94,1.67,0,0-1.04.57-1.1.95-.06.39-.29.95-.06,1.33.26.39.6.59.96.59l1.09,2.34s-.02-.03.75,0c.76.08,1.19.15,1.67.81.43.61.66.45,1.92.37,3.08-.25,5.25-.35,8.92-1.33,2.24-.64,5.67-2.17,8.56-3.91,3.2-1.93,5.88-4.12,8.65-6.1,5.31-3.84,10.3-7.68,12.3-9.26l2.87-2.29.21,1.52.61-1.9.6-1.92c.3-1.1-.35-1.59,1.02-2.21,1.33-.66,1.57-.6,1.57-.6l-1.89,4.08s1.58-3.65,2.22-3.83c.63-.18,3.17-.37,5.46-1.57,3.05-1.6,4.49-3,4.49-3l.12,3.06s-.18-2.73.39-3.64c.59-.9,4.26-3.53,4.26-3.53v4.93s.46-5.43.46-5.43c0,0,3.37-3.06,4.65-4.34,1.27-1.27,1.52-1.02,1.52-1.02l-.74,4.21s.87-4.09,1.32-4.99c.45-.87,7.13-6.51,7.13-6.51,0,0,.24.85.24,1.56,0,.22-.96,1.52-.45.91.08-.12-1.31,1.63-1.45,2.4l-.19,1.27s.85-1.74,1.72-3.07c.88-1.32.13-2.41.66-3.31.48-.89,1.13-.84,1.13-.84,0,0,.5,1.2-.26,3.32-.75,2.08-1.16,2.68-1.16,2.68,0,0,1.55-3.58,1.73-4.53.2-.94-.36-1.97-.36-1.97l3.76-3.38c1.97-1.79,5.59-5.04,6.43-5.9.83-.93.83-2.05,1.14-2.2.32-.14.83.08.83.08,0,0-.56-.26-.7-.96-.13-.7.06-1.08.12-2.11.08-1.02.28-1.13.59-1.23.31-.06.84-.24,1.15.06.34.34,1.04,3.82,1.04,3.82,0,0-.45-3.5-.64-4.25-.22-.78-.78-.78-.4-1.33.4-.6,2.54-3.13,3.38-3.72.83-.57,1.08-.69,1.34-1,.25-.36.2-.6.95-.52.76.07.58.07,1.1-.5.49-.6.67-.84,1.45-.84s.6.24,1.08-.06c.52-.31.79-.59.84-.19.07.39-.31,1.23-.58,1.67l-.38.69,1.27-1.86c.59-.82,1.72-1.9,2.02-2.15.34-.27.65-.46.6-.08-.05.4-.2,4.54-.66,6.02l-.62,2.07s1.46-4.84,1.73-6.8c.25-1.99.62-1.68.99-1.68.41.38-.23,2.74-.23,2.74l1.59-2.82,1.1.53-.4-1.68,1.14-.62s.47,1.33-.13,3.56c-.56,2.22-.62,2.62-.62,2.62,0,0,1.13-4.27,1.19-5.87.08-1.59,1.16-1.59,1.66-1.59.52,0,.52-.28.46-1.14-.06-.89.62-.65.62-1.27,0-.66.28-.4.76-1.15.53-.79,1.08-1.17,1.08-.72s.32,2.78.32,2.78v-4.36s1.37-.63,1.73-1.28c.39-.66.71-.68,1.1-1.09.39-.38.74-1.08.74-1.08l.2,1.73.2-2.22s.32-.59.94-1.5c.63-.87,1.03-1.19,1.03-1.19l.19,1.19.31-1.46c.6-.13.39-.82.97-1.46.56-.64.63-.43,1.19-1.14.6-.7.52-.39.52-.39v2.73s-.06-2.73.39-3.56c.44-.85.68-.94.68-.94,0,0,.58.38.7-.06.12-.46.59-1.42.59-.95,0,.43.25,4.09.25,4.09,0,0-.07-3.9.27-4.62.3-.68,1.45-2.92,2.36-3.25.9-.32.84-.3.95-.87.12-.6.42-.96.82-1.23.39-.25.51.14.69-.32.21-.45.21-.65.51-.75.34-.14.96-1.5,1.61-2.05.66-.52.54-.31,1.19-.71.61-.46.91-1.84,1.68-2.58.74-.75,3.18-3.07,3.74-3.73.52-.62,1.8-1.25,2.73-2.55.96-1.26.96-.72,1.6-1.06.65-.3,1.38-1.26,2.32-2.13,1-.84.76-.61,1.18-.94.43-.31,3.53-2.35,4.6-2.98,1.04-.65.86-.66,1.79-1.07.96-.41,1.07-.12,2.15-.53,1.04-.43,2.72-1.69,3.81-2.76,1.06-1.06,5.4-4.9,7.86-6.9,2.43-2.01,3.8-2.99,5.52-4.45,1.71-1.5,6.47-5.01,7.97-6.07,1.48-1.07,2.22-1.58,4.04-1.69,1.8-.12,1.57-.12,2.34-.43.74-.3,1.16-.52,1.69-.52s.64-.53.94.3c.35.84,0,1.92,1.51,1.8,1.48-.12,2.67.22,4.57-.21.93-.21,1.95-.71,2.8-.82.87-.13,1.52.1,1.52.1,0,0,.59-.04-1.07,1.55-1.64,1.59-3.25,3.5-3.25,3.5,0,0,4.21-4.84,5.15-4.97.97-.13,1.28,0,1.28,0,0,0-.49.82-.9,1.74-.15.38-.05.84-.31,1.18-.9,1.2-1.01,1.27-1.01,1.27,0,0,.91-2.05,1.8-3.29.37-.53,1.01-.86,1.13-.9.39-.13,1.19-.49,1.34-.13.1.36-.32,1.25-.66,1.51-.29.27-1.01,2.03-1.77,3.66-.17.23,2.15-4.76,3.06-4.99,1.01-.26.64.7.5,1.28-.1.58.32-.87.72-1.15.38-.26,1.56.19,1.56.19,0,0-.54,1.3-1.05,2.01-.43.68-1.37,1.54-1.74,2.01-.75.96-3.36,8.16-3.36,8.16,0,0,3.25-8.22,3.82-8.54l-1.35,4.84s1.83-3.45,2.19-4.39c.3-.94.66-1.54,1.12-2.5.45-.94.51-1.02.91-1.2.37-.19.48-.36.61-.13.16.25-.74,1.86-.74,1.86,0,0,.62-.09.81-.65.19-.57.28-.64.59-1.02.31-.38.82-.65,1.09-.65.24,0,.12.34.12,1.03s.06.83-.37,1.23c-.47.37-2.04,2.08-2.04,2.08,0,0,2.47-2.49,2.86-2.8.38-.34,1.15-.84,1.15-.84,0,0,.7-.43.76,0,.06.45.13.19.13.65,0,.43-.31,2.6-.31,2.93s.37-3.45.88-3.64c.51-.2.86-.07.86-.07,0,0-.47,1.64-.22,1.58.27-.05.84-1.06,1.02-1.32.22-.26.65.05.65.05l-.13,2.94.63-2.36s.76.24,1.09.19c.32-.06-1.12,2.61-.84,2.42.32-.2,1.28-1.54,1.85-1.93.58-.38.9-.38.9-.38,0,0,0,1.46-.13,2.11-.14.64-.25,1.1-.51,1.23-.26.12-4.01,4-4.01,4,0,0,3.75-3.46,4.53-3.57.75-.12,1.19.43.42,1.14-.74.71-1.31,2.17-2.54,2.76-1.2.57-4.63,2.28-4.63,2.28,0,0,3.55-1.33,4.26-1.38.69-.05-.78,1.4-1.67,2.87-.9,1.47-1.22,1.64-1.28,2.36-.05.68-1.14,2.11-1.52,2.73-.39.64-.2,1.39-.82,2.36-.66.96-1.57,1.78-1.76,2.49-.49,1.96-1.49,3.23-1.45,2.99-.13,1.27.19,4.65-.19,5.33-.39.72-.76,1.24-1.26,1.5-.52.24-.78,1.18-2,2.15-1.2.95-2.29,2.33-2.29,2.33,0,0,1.13-.59,2.38-2.12,1.19-1.52,2.16-2.18,2.16-1.52,0,.28-.18.83-.27,1.49-.09.7-.38,1.55-.63,1.74-.46.4-1.64.95-3.05,2.03-1.4,1.07-3.32,4.03-3.32,4.03,0,0,2.16-1.97,2.86-2.81.71-.84,2.37-2.05,2.92-2.12.59-.06-.14,1.53-.48,2.42-.4.9-2.18,1.4-3.52,1.98-1.32.59-3.94,2.5-5.18,3.58-1.2,1.08-1.38,1.46-1.38,1.46,0,0,2.93-1.85,3.94-2.74,1.02-.87,1.59-1.12,2.28-1.52.71-.38.71-.25.71-.25,0,0-3.17,3.31-3.62,3.8-.46.53,2.37-1.93,3.2-2.88.82-.95,2.01-1.83,2.73-2.41.44-.39.57.84-.08,1.42-.62.57-.7.24-.7.87s.39,1.11-.1,1.48c-.51.39-3.47,1.67-4.34,2.11-.88.45-4.22,2.62-3.9,2.56.31-.07,5.2-2.89,6.62-3.27,1.41-.37.78.84.26,1.16-.49.32-6.12,2.61-6.12,2.61l5.86-2.24s-.48,1.6-.75,2.04c-.26.47-1.4.59-2.35,1.66-.96,1.09-2.14,2.17-2.14,2.17l3.15-2.08c.59-.39.66.41.29,1.01-.41.67-1.31,1.14-1.45,1.29-.24.24,0,.32-.19,1.2-.18.89-.64,1.27-1.48,1.79-1.62,1.25-3.16,2.79-3.16,2.79l2.71-1.82-.89,1.57,1.6-1.52c.62-.65,1.31-1.2,1.16-.4-.2.84-.78,1.54-1.23,2.04-.46.53-.39.45-1.22,1.03-.82.58-1.72,1.77-1.72,1.77,0,0,1.74-1.02,2.28-1.27.59-.25,1.53-.44,1.33.26-.17.7-.23,1.1-.88,1.13-.63.06-.88.97-1.16,1.41-.24.46-.1.6-.49.96-.39.37-.61.64-.84.95-.16.3-.37.95-.16,1.38.16.46-3.23.84-3.23.84l1.59.46s.28,0-.18.68c-.43.71-.84,1.23-.84,1.23h2.01l-.41.84-3.76,3.05,4.3-2.92.15,1.06-3.55,4.41s1.47-1.27,2.17-1.64c.7-.37.59.24.59.24,0,0,.3,1.69-.07,2.18-.4.5.19.64-.88.96-1.08.31-1.38.49-1.3,1.26.15.75.19.9.45,1.28.25.38,0,2.1,0,2.1l1.33.13.22-1.02,1.27.08s.06.68-.34,1.52c-.37.84-.81,1.2-.81,1.58s-.72.9-.72.9l-4.97.47s5.27-.47,5.23-.09c-.06.41.34,1.49.04,1.67-.24.18-3.55,1.98-3.23,1.9.31-.06,3.12-1.9,3.06-1.28-.07.66-.3,1.73-.63,2.18-.34.44-.81.06-.57.71.23.61.4.69,0,.93l-1.67,1.11s1.47-.2,1.71-.6c.25-.37.45-1.01.71-.57.26.45.37,1.58.07,1.9-.34.34-.6.16-.83.6-.26.46.04.7-.72,1.27-.76.59-.67,1.2-.67,1.66s-.16.94-.16.94c0,0-2.1,1.16-2.49,1.86-.37.7-.63,1-.63,1,0,0,2.38-3.16,3.05-2.2.71.94.26,4.66.26,4.66,0,0-.89.43-1.08.96-.18.49-.59,1,.39,1s1.39.38.66,1.02c-.8.66-.9.84-1.17,1.54-.28.69-.12.63-.12.63,0,0,.74-1.39,1.32-1.33.57.06.7.13.64.76-.07.63-.37.79-.83,2.12-.46,1.32-.32,1.9-.57,3.3-.26,1.4-.32,1.4-.32,1.4l.82.12s0,.5.07.96l1.55.72-.13,1.08.62,3.16.76-.64.65,1.23.95.89s.3.62.96,1.38c.63.79.3.72,1.14.79.82.05,1.17.05,1.77.62.58.59,1.44.46,2.2-.57.73-1.02,1.15-1.38,1.57-1.33l.56-.96.84-.12.08-1.41s.25-1.66,1.19-.84c.96.84,1.27.6,1.27.6,0,0,.46-.25.89-1.93.47-1.64.53-2.73.38-3.57-.13-.81-.38-.49-.54-1.58-.2-1.09-.2-1.85.94-.96.49.39,1.27.06,1.27.06,0,0,.13-2.92.38-3.25.27-.3.4.26.4-1.02s.19-4.83.5-5.48c.34-.64.7-1.01.7-1.01,0,0-.57-.3-.78-1.17-.2-.89-.29-2.28-.29-2.28l-.96-.42s-.63-1.57,0-1.37c.64.19,1.92,0,1.92,0,0,0-.25-2.48-.38-3.32-.12-.81-.21-2.18-.21-2.18,0,0-1.57-1.39-1.9-2.01-.32-.64-.41-1.28-.41-1.28l.47-.89.81,1.07s.89,0,1.55.06c.63.06.9-.06,1.2.46.39.2-.25-1.02-.58-1.39-.32-.4.38-.7-.18-1.17-.58-.43-.77-.86-.77-.86,0,0-1.2-.71-1.78-1.09-.6-.4-.26,0-.6-.66-.3-.62.05-.63.65-.73.59-.14.37-.46.62.24.27.68.83,1.4.83,1.4,0,0,.21.7.6-.2.37-.9.57-.58,1.01-1.14.44-.59.39-.9.64-.65.27.26.71,1.59.84,1.92.19.38.75,0,.56-1.74-.18-1.7.16-3.72.09-4.99-.09-1.29.24-2.24.24-2.24,0,0,.51.12,1.03,1.08l.87,1.64s0-1.2-.42-1.92c-.45-.69-.97-1.1-1.35-1.71-.37-.66-.5-.35-.46-1.67.09-1.33.34-1.4.34-1.4,0,0,.78.45,1.2,1.74.47,1.27.78,1.84.78,1.84,0,0-1.11-3.2-1.26-3.96-.22-.75-.27-1.28-.27-1.28,0,0,.23-1.22.69-.58.44.62,1.27,1.04,1.27,1.04,0,0-.37-2.18-.51-2.69-.09-.5-.69.3-.93-.7-.24-1.02,0-1.69.71-1.4.32.16,1.03.68.92.27-.29-1.08.04-1.86.04-2.45,0-1.06-.35-2.34.09-2.27l1.73,2.8s-1.6-2.86-1.4-3.51c.19-.64.07-.89.25-.64l1.85,2.5s-.9-1.93-1.14-3.27c-.26-1.33.18-2.6.18-3.26,0-.62.06-1.08.13-.67.07.37,1.16,3.14,1.16,3.14,0,0-.56-1.76-.56-3.34s.29-2.76.29-2.76c0,0,1.01,2.55,1.2,3.32.2.78-1.77-3.14-1.27-4.27.51-1.14.88-.69,1.34.21.44.87,1.01,2.54,1.01,2.54,0,0-1.77-3.11-1.57-4.25.17-1.15.76-1.22,1.25-.27.53.94,1.24,2.85,1.73,4.22.49,1.33.07-.25-.89-2.68-.93-2.42-1.52-1.86-1.2-3.7.27-1.55.56-2.2.96-1.68.05,0,.42.52.3-.94-.07-.86.52-1.53.65-1.23.14.32-.72-1.08,1.28,2.29,1.3,2.24,1.85,3.32,1.85,3.32,0,0-.24-.48-.64-1.51-1.04-2.55-2.36-3.38-2.49-5.25-.13-1.84.67-2.08.67-2.08l2.53,4.06s-2.42-4.06-2.29-5.42c.14-1.35.61-1.39.75-1.08.14.31,2.93,5.35,2.93,5.35l-1.26-4.27s.5-1.46.41-2.52c-.03-1.11-.23-1.62,0-1.44.28.18,1.5.18,1.5.18v-2.21c.44.04,1.14,2.68,1.08,3.34-.06.61-.18-2.11-.34-3.67-.1-1.52.83-2.48,1.03-2.72.2-.27.36-1.17.36-1.17.42.32,1.57,1.17,3.08,3.9,1.54,2.76,1.58,2.42,1.58,2.42,0,0-1.44-3.16-2.7-4.69-1.3-1.53-1.54-1.99-1.74-2.37-.22-.4-.06-1.34.56-1.47.66-.14.72-.2.72-.86,0-.61.34-1.05.51-1.38.49-.83,1.51-2.36,1.51-2.36,0,0,1.3,1.91,1.8,2.57.51.63-1.53-1.55-1.34-2.83.17-1.27,1.14-1.38,1.14-1.38,0,0,.53,2.11.71,2.76.19.62-.13-1.92-.13-2.5s.83-1.08.83-1.08l.06,3.81s.57-2.92.71-3.44c.09-.52.81-.75.81-.75l1.04,3.43-.26-4.25,1.33,2.47-.5-4.13s.82,0,1.14.56c.32.57.82-1.46.82-1.46h1.03v1.78l.38-2.24.52,2,.18-3.76s-.06-.59,1.15-1.24c1.24-.63,1.24-.82,1.24-.57,0,.27-.85,3.56-.85,4.34s.62-3.18,1.27-4.01c.65-.83.95.24,1.29-.26.3-.5.27-.62.84-.76.56-.15,1.02-.54,1.19-.82.19-.26.62-.72,1.15-1.22.52-.51.85-.57,1.14-.71.34-.13.19-.19,1.03-.23.83-.08.63.23.3,1.06-.3.84-.57,2.3-.57,2.3,0,0,.57-.9,1.23-1.29.64-.38,1.38-.69,1.38-.69,0,0,.23,1.24.06,1.85-.2.84-.85,1.23-1.16,1.84-.48,1.08.66-.13,1-.68l-.52,2.41s1.09-1.2,1.41-2.57c.31-1.32.54-2.91.54-2.91,0,0,.79-.45.84-.22.06.27-.23,4.06-.23,4.06,0,0,.42-3.22.94-3.92.5-.69,1.33-1.59,1.86-1.78.48-.21.74-.21.74-.21l-.2,3.53s-2.95,3.06-4.62,4.27c-1.7,1.19-4.17,2.41-7.53,2.73-3.39.31-4.53.34-4.28.45.25.13,5.43.62,8.98-1.23,3.56-1.85,7.66-6.38,7.75-5.35.04,1.03-.09,6.04.23,9.1.31,3.06.76,6.63,1.03,8.61.24,1.98.58,3,.58,3l-.98,4.12,1.42-3.22.13.93-.7,3.07,1.28-1.76.26.97-1.1,3.92s1.14-3.2,1.73-3.51c.6-.3.83.15.83.53,0,.37-.58,4.45-.58,4.45l.96-3.77s.24.25.51.69l-.51,5.5,1.48-4.74.62.07-.24,2.43,1.01-1.72.32.68-.44,1.81,1.14-1.74.13,3.06,1.14-2.87.76.13.06,3.12.21-2.47.73.18-.23,9.88.69-10.25,1.02.19.31,1.77c.72,1.29,1.03,3.18,1.03,3.18l-.18-3.51.42-1.33s.53-.05.71.5c.19.59-.18.52.31.65.53.13.89.56.89.56,0,0,.73,4.4,1.29,4.99.54.6-1.74-4.58-.95-5.18.76-.56.96.72,1.04.96.03.26.37,3.32,1.51,4.53,1.15,1.22-1.1-1.72-1.27-3.51-.51-4.84,1.66.6,1.09-.49.44.83,2.14.05,2.14.05l.59,4.14.13-4.39s.4.32.95.25c.57-.05.84.96.84.96,0,0,.45-.65.45-1.08,0-.46.48-.26,1.13-.39.65-.14.73.04,1.36.04s.93-.9,1.53-.94c.54-.06,1.46-.44,1.46-.44,0,0,.46-.83.84-.38.38.44.69,1.64,1.32,1.84.64.21,1.15.45,1.15.94s.52,2.18.52,2.18c0,0,.48,2.81-.05,3.76l-.6.96s.7-.4,1.09-1.41c.23-.6.24-1.67.27-2.36.03-1.79,1.64-.59,1.64-.59v4.3l.38-4.72,2.05.31-1.55,5.42,1.97-5.42-1.27,5.5,1.92-4.26.76,2.54-1.97,4.21,2.46-4.16v-1.84l.07-.7,1.09-1.66s.4.62.4.87c0,.28.61,5.07.61,5.07l.72-2.17.94-.58-.1,4.2.74-1.91s.08-.15.39,1.78c.3,1.89.53,6.31.45,6.62-.07.32-.26,1.08-.63,1.33-.42.26-2.29,2.12-2.29,2.12,0,0,1.58-1.15,2.08-1.15.53,0,.45.79.45.79,0,0-3.9,2.04-4.8,2.78l-.93.7c-1.75,1.14-5.23,3.28-7.02,5.43-2.24,2.67-3.12,5.54-3.12,5.54,0,0,1.66-3.95,4.91-6.62,3.26-2.68,5.6-4.41,5.6-4.41,0,0-2.88,3.33-4.52,5.76-1.67,2.4-2.28,3.92-2.28,3.92,0,0,2.6-3.99,5.09-6.81,2.46-2.8,4.43-4.59,5.46-4.91,1.05-.3,1.6.2,1.6.2,0,0,0,1.45-.72,1.98-.42.36-1.07.53-1.7.69-.83.25-1.68.47-2.38.96-1.45,1.08-1.45,1.22-1.45,1.22,0,0,1.61-1.4,3.31-1.71,1.74-.36,1.92-.36,1.92-.36,0,0-.25,1.31-.62,2.41-.42,1.32-.96,2.5-.96,2.5,0,0-6.96,3.08-9.25,5.25l-3.45,3.25s4.34-3.83,8.09-5.8c3.77-1.97,4.52-2.16,4.52-2.16l-1.03,3.4s-4.23,1.62-6.86,3.66c-2.62,2.05-2.94,2.42-2.94,2.42,0,0,3.06-2.19,5.63-3.73.91-.54,2.17-1.06,2.68-1.29,1.92-.89,1.38-.65,1.38-.65l-.18,1.52-3.37,2.63c-.6.46,2.4-1.47,2.79-1.67.41-.19-.57,1.99-.57,1.99,0,0-4.05,3.05-5.11,4.19l-1.02,1.15,5.94-4.6-1.85,1.92,1.79-.69s-.46,2.16-1.6,2.71c-1.11.6-1.19.84-1.19.84l1.97-.44-.3,1.47s-1.77.41-3.17,1.27c-1.94,1.16-4.04,2.93-4.04,2.93,0,0,6.75-4.2,6.75-3.54s-1.11,3.6-1.11,3.6c0,0-3.02.84-5.11,2.17-2.12,1.34-2.29,1.79-2.29,1.79,0,0,2.73-1.72,4.77-2.46l2.56-.96s0,1.57-.7,2.98c-.51.97-2.35,1.68-4.2,3.72-1.88,2.03-1.92,2.03-1.92,2.03,0,0,6.23-5.87,6.06-4.78-.18,1.08-.51,2.4-.95,2.86-.43.42-2.68,1.71-4.53,6.18-1.41,3.39-1.55,4.99-1.55,4.99,0,0,1.5-5.08,3.32-7.73,1.54-2.21,2.62-3.17,2.58-2.29-.07.9-.19.85.18,1.09.38.24.12.65.12.65,0,0-.3,2.23-.37,2.79-.09.58-.64.7-1.35,1.92-.69,1.22-.74,1.68-.81,2.61-.1.97-.1,1.07-.59,1.35l-2.28,1.14c-.56.44.69.06,1.26-.05l.19,1.18-1.9.76s1.01-.3,1.64-.3.44.38.44.38c0,0,.41.23-.51,1.73-.9,1.46-1.97,3.57-2.82,7.4-.19.92-.38,1.42-.53,2.16-.42,2.27-.45,3.94-.61,4.53-.17.78-.13.3-.62,1.98-.52,1.66-.53,3.25-.45,3.81.05.6,0,1.15.58.83.56-.34,1.38-.51,1.02.44-.4.96-.65,1.15-1.14,1.68-.52.5-.4.75.06,1.2.43.43.98.39-.06,2.1-.45.69-.96,2.06-.28,1.97.73-.06,1.33-.38.96.51-.23.59-.14.66-.17.72-.64.49-1.09,1.14-.39,1.59.44.27-.18.82.32,2.35.51,1.54.89,2.74,1.79,3.46.89.67,1.77.37,1.77.92,0,.59.14.78.5.97.39.19-.5,1.29-.39,1.79.15.49.66.38.96.76.34.39,0,.69.75,1.08.79.39.9.51,1.34.51s.59-.01,1.2.06c.65.06,1,0,1.74-.53.76-.48.95-1.1,1.78-1.33.83-.18.34-.06,1.23-.06s2.6-.49,2.6-.49l.47,1.22.17-2,1.03-1.08c.58-.62,1.07-.95,1.77-2.42.71-1.46,1.22-2.64,1.63-3.11.48-.45.61-.45.75-1.22.13-.78-.34-.65.26-1.08.53-.44.63-.57.63-1.09s.4-1.67.68-1.97c.25-.31.31-.46.47-1.54.13-1.07.54-2.48.54-3.7s-.1-1.39.34-1.95c.44-.6,1-4.22,1-4.75,0-.49.65-2.03.65-2.03l2.24,1.34s-2.04-1.4-2.08-1.84c-.09-.46-.09-2.22-.09-2.22,0,0,1.02.69,1.53,1.66l.51.94s-1.45-2.57-1.85-2.92c-.37-.4-.31-2.5-.31-2.5,0,0,2.68,2.04,3.08,2.54.37.53-.58-1.12-1.83-2.01-1.3-.96-1.12-1.2-1.12-1.2l-.36-3.58s.84.76,1.9,2.43c1.09,1.66,1.26,1.46,1.26,1.46l-3.1-4.53c.69-.05,2.43,1.32,2.43,1.32,0,0-1.2-1.37-1.94-2.14-.69-.78-.73-.96-.73-.96,0,0-.08-.9.64-.49.66.37,1.02.49,1.26.68.24.22-1.09-1.09-1.22-1.34-.14-.24.19-.74.19-.74l2.03,1.34s-1.25-1.2-1.97-2.04c-.69-.85-1.17-2.03-1.17-2.81s.61-.59.61-.59l1.58,1.74s-1.14-1.67-1.14-2.24.46-.7.46-.7l1.77,2.04s-.49-1.46-.69-2.56c-.21-1.08-.03-1.8-.04-3.01-.08-1.2,0-1.27,0-1.27l1.88,1.85s.25-.71,0-1.72c-.24-1.03-.49-1.48-.65-2.29-.13-.82.65-1.91.65-1.91l1.34,3.64-.68-3.32s1.97,2.52,2.15,3.32c.25,1.09.4,1.2.4,1.2,0,0-1.74-3.75-1.74-4.99s0-1.4-.27-2.48c-.24-1.09-.17-1.51-.17-1.51,0,0,1.28-1.12,2.12,1.18.83,2.3,1.4,3.76,1.64,4.04.25.24-.07-.22-.77-2.49-.68-2.29-1.39-3.2-1.71-4-.32-.84-.51-2.77-.74-3.79-.29-1.02.28-2.86.66-2.27.4.54,1.94,3.67,2.12,4.93.21,1.31.27,1.94.27,1.94,0,0-.84-4.46-1.15-6.37-.31-1.92-.89-2.49-.95-3.39-.09-.9.19-1.13.19-1.13,0,0,.89-.07,1.14,1.07.26,1.16.2,2.57.95,4.53.45,1.26,1.16,3.71,1.16,3.71,0,0-1.3-6.25-1.98-8.79-.73-2.56.13-2.35,0-3.18-.14-.85-.26-1.47-.14-1.85.14-.39.77.21.88.82l.56,2.49-.48-3.62c-.18-1.28-.45-2.23.25-1.67.72.59.68,1.98,1.22,2.56.5.56-.3-1.47-.89-2.49-.58-1.03-.18-1.83-.18-1.83,0,0,1.31,1.52,2.03,2.6.71,1.08-.91-1.92-1.15-2.42-.24-.51-.12-2.03-.21-3.25-.03-1.2-.3-1.34-.03-1.93.24-.54.87-.29,1.51.23.66.49.01-.96,1.68,1.78,1.63,2.73,2.17,3.6,2.17,3.6,0,0-1.99-5.02-3-6.44-1.03-1.4-1.15-1.33-1.22-1.71-.07-.38.56-.82.96-.75.37.06.68-.58,1.51.95.85,1.51,2.11,4.08,2.11,4.08,0,0-1.99-4.72-2.93-5.87-.95-1.15-1.16-1.27-.43-1.73.71-.44,1.51,0,1.73.34.18.3,1.57,2.67,2.33,4.14.77,1.46,1.67,2.28,1.67,2.28,0,0-1.91-3.75-3.05-5.46-1.16-1.74-1.23-2.44-1.23-2.44l.35-.76s2.79,3.32,3.58,4.65c.47.72-.02-.49-1.06-2.05-.89-1.41-2.28-3.2-2.49-3.44-.38-.49-.18-1.03-.09-2.55l.06-1.52,3.29,3.24s-2.49-2.6-2.89-3.36c-.37-.78-.54-1.54.21-1.73.76-.19.27,0,1.54.45,1.26.44,1.44.44,1.44.44,0,0-1.44-.76-2.21-1.4-.76-.64,0-1.9,0-1.9l2.43,1.77s-1.08-3.81-1.36-4.53c-.24-.68-.18-2.55.15-3.05.32-.51.49.05.7-1.03.2-1.1.56-1.58,1.26-1.83.71-.27,1.55-1.52,2.04-.71.89,1.37,1.02,1.28,1.02,1.28l1.22-2.56s1.05.24.89.5c-.1.25-1.71,5.55-1.71,5.55l2.3-4.59-.19,2.56-4.02,6.77s4.07-6.77,4.02-5.94c-.06.84.05,1.26.05,1.59l-.05,4.84,1.03-7.34s1.02-1.89,1.02-1.58-.7,7.28-.7,7.28l1.14-4.92,1.01,3.61s-.3-2.01-.44-3.43l-.32-3.87,1.09-.47.14,7.71.93-4.34.29,11.6.24-12.4.75.89.32,6.95s.05-5.18.2-4.84c.13.31.63,1.33.63,1.64l.34,7.97v-9.12l.06-4.06,1.02,2.04.48,3.56.23-5.44,1.11,2.57.06-1.91-.67-3.76,1.14.58.46,3.13.3-1.56.8-.18v1.27s-.88,1.3-1.02,2.19l-.18,1.46s.66.48.14,2.29l-.82,2.91s1.39-3.38,1.78-4.7c.38-1.32.65-2.23.94-2.79l.52,8.14s.31-8.97.39-9.75c.06-.78,1.02-3.94,1.02-3.94l.29,6.18.61-3.9s.43.19.43,1.4v1.28s.24,1.22-.18,2.16c-.48.95-.57.95-.57.95l1.51-2.99s.37-1.99.37-2.89.07-2.52.07-2.52c0,0,1.35.88,1.6,2.8.24,1.92.51,4.91.56,6.2.07,1.27-.04,1.14.23,2.07.23.96.29,2.49.23,3.65-.05,1.15-.18,1.22-.18,1.22,0,0-1.91-.2-3.28,1.32-1.33,1.56-1.11,1.86-1.11,1.86,0,0,1.63-2.05,2.99-2.48,1.32-.47,1.01.19.81,1.09-.18.87-1.03,1.35-1.12,2.48-.14,1.13-1.04,1.51-1.56,1.97-.54.5.52.17,1.56-.84,1.02-1.01.38-1.2.75-1.97.37-.76.75-.76.75-.76,0,0,.16,2.37-.07,2.81-.19.45-.49,1.09-.05,1.27.46.2.65.7.46,1.53-.18.84-.41,4.17.57,2.8.58-.82,1.79-.37,1.79.9v2.83s-3.26,3.16-4.03,4.64l-.76,1.46s2.88-4.09,3.96-4.77l1.08-.7s-.7,1.08-.24,1.14c.56.24.04,1.33-.08,1.98l-.1.62s.87-1.46,1.09-1c.18.44.13.81.13.81,0,0-1.55,2.44-1.73,2.87-.2.47-.76.75-.9,1.14-.13.41-.34,1.35-.34,1.35,0,0,2.56-4.53,2.96-4.46.37.06-1.79,3.52-1.79,3.52,0,0,2.08-3.07,2.53-3.13.45.26,1.19.78-.2,2.17l-1.01,1.03c-1.2,1.3-2.48,2.8-2.87,3.47-.51.93-.88,1.04-.88,1.04,0,0,3.44-3.44,3.93-4,.52-.57-2.14,5.79-2.21,9.41-.06,3.65.06,3.65.06,3.65,0,0,.1-4.61.93-8.28.53-2.43,1.81-4.44,1.93-4.54.28-.18,0,3.2,0,5.42v3.72l.38-3.25.09,5.73.82-7.08s-.08-3.08.04-4.34l.16-1.28s1.06.78,1.06,1.02c0,.26.08,2.48-.04,2.77-.13.24-1,3.84-1,3.84,0,0,1.17-3.55,1.42-3.6.24-.06,1.14,2.86,1.14,2.86,0,0-1.41,4.91-1.53,7.41-.14,2.46-.17,2.46-.17,2.46,0,0,.54-4.22,1.18-6.95.34-1.28,1.09-2.22,1.09-2.22,0,0,.25,1.81.64,2.57.39.74.49.62.49,1.46s.02,1.03.22,1.71c.19.71,0,1.03.32,1.71.28.71.28.85.28.85,0,0-1.56,2.33-2.06,6.59-.47,4.26-.4,4.26-.4,4.26,0,0,.63-5,1.53-8.06.52-1.81,1.19-2.68,1.19-2.68l.46,2.27-1.97,4.71s1.97-4.72,2.14-4.13l.62,2.55-2.7,4.8s2.5-4.74,2.87-4.26c.37.48-.17,1.02.37,1.17.52.15.2.91.2.91l-.06,1.2-3.91,5.9s2.87-3.9,3.91-5.53c1,.66.86,2.64,1.07,3.04l-1.69,5.47s1.88-4.93,2.01-4.5c.16.41.75,2.54.75,2.54,0,0-2.51,3.39-3.52,5.7-.81,1.8-1.24,2.23-1.58,3.37-.3,1.19,2.95-5.45,4.02-6.82,1.08-1.39,1.17-1.18,1.17-1.18,0,0,.44.37.66,1.08.18.64.14,1.6.14,1.78,0,.43-3.14,5.68-3.14,5.68,0,0,3.01-5.07,3.3-4.81.32.25.19,1.06.39,1.44.22.37.22,2.23.22,2.23,0,0-.7.22-.87,2.7-.03.39-.1,1.58-.06,1.11.05-.49-.08,2.81-.08,2.81,0,0,.35-2.73.41-3.76.07-1.01.43-3.29.81-2.45.38.86.27,1.59.48,2.51.23.89.44,1.57.44,1.57l-.65,7.92.95-6.76s.23.73.53,1.61c.32.85,0,1.38.32,2.22.3.85.67,1.15.67,1.91s-.15,1,.2,1.64c.29.72.21,2.01.21,2.01l-.66,5.01s.46-3.98,1.12-4.24c.63-.29.74,1.58.96,1.7.19.08.4,1.37.82,1.71.45.3.58.14.58,1.06s-.18,5.2-.18,5.2c0,0,.1-2.67.59-3.03.48-.3.74-.37.74-.37l.46,2.29c.19.84.32,1.44.32,1.44l.88-.75,1.28.04.29,1.44.73.86v1.95l-2.59,2.2s2.6-2.06,2.71-1.18c.06.91.2,1.17.29,1.91.12.76.07,1.99.07,1.99.36.08.42,1.22.36,1.89-.04.7.17.82-.46,1.18-.64.36-.75.48-.81,1.86-.06,1.37.49,8.82,1.1,12.9.6,4.1.81,5.78.98,6.5.16.67.22.85.4.97.22.19.22-.45.42.6.22,1.08.45,2.5.6,3.47.17.96.25,1.59.43,2.35.16.73.7.89.74,2.37.07,1.48.07,2.12.38,2.49.31.39,1.22,2.62,1.52,3.48.35.83.37,1.14.59,2.11.24.95.42,2.66.13,4.09-.32,1.45-.37,1.88.24,3.46.54,1.6,2.85,6.39,3.9,7.69,1.06,1.34,1.88,1.55,2.33,1.96.51.4.95,1.25,1.61.71.62-.56,1.12-.49,1.4-.08.34.4.68.71.42,1.46-.24.71-1.58,1.74-2.48,3.01-.86,1.28-1.33,1.69-1.33,5.97s-.56,10.12.18,17.22c.71,7.07,1.15,8.98,2.76,12.39,1.6,3.45,2.81,3.77,3.45,4.01.62.23.8-.17,1.19.71.39.88.69,2.32,1.76,3.67,1.02,1.37,1.16,1.44,2.28,2.04,1.14.66,1.14,1.78,1.14,1.78,0,0-.09-.57.48-.71.56-.17,1.89-.06,2.61-.17.73-.08,1.45-.8,1.45-.8l.88,1.06s-.72-.66-.25-1.06c.48-.38,1.73-1.58,1.99-3.02.24-1.45,1.12-2.4,1.76-2.93.65-.58,3.44-4.4,4.21-9.56.59-3.69,1.11-6.16.62-11.17-.18-2.02-1.17-5.28-1.47-7.95-.95-9.25-2.22-11.02-2.76-12.52-.53-1.5-.3-2.13-1.5-2.98-1.15-.87-1.79-1.17-2.32-1.28-.54-.13-.67-2.44.84-2.55,1.48-.13,3.38-.96,3.93-4.46.54-3.51.23-5.55.19-6.34-.1-.79.04-.41-.26-.94-.35-.59-.9-1.55-1.16-2.58-.25-.98-.25-1.15-.25-1.77,0-.65.4-.3.4-.3l2.47,2.91s-2.22-2.79-2.76-3.75c-.49-.96-.29-1.73-1.08-2.93-.78-1.22-.89-.64-1.19-1.78-.34-1.16-.38-1.79-.38-1.79l2.59.31s-2.11-.31-2.48-1.08c-.37-.78-1.71-3.82-1.83-4.09-.15-.24,1.26-.45,2.46.51,1.25.97,1.25.91,1.25.91,0,0-.81-.91-1.89-1.46-.57-.29-1.45-.39-1.82-.42-1.1-.06-1.6-2.34-1.76-3.05l-.12-.7s1.04.02,3.13,1.22c2.11,1.22,2.89,1.74,2.89,1.74,0,0-1.15-1.11-2.58-1.93-1.39-.83-3.75-1.47-3.75-1.47l-.65-1.62s.84-.22,1.73.27c.91.51.95.51.95.51,0,0-1.75-1.22-2.47-1.46-.76-.25-1.08-1.34-1.3-2.12-.17-.73.22-.65-.28-1.09-.52-.43-2.08-2.74-3.31-4.26-1.22-1.51-1.67-2.72-2.56-4.34-.91-1.57-.39-1.9-.39-1.9,0,0,.81-.05,2.6,1.1,1.82,1.1,2.25,1.62,2.89,1.76l1.01.18s-1.86-.68-2.69-1.7c-.82-1.02-4.33-1.8-4.33-1.8,0,0-.53-.76-.64-1.71l-.19-1.48s1.17-.12,3.34,1.48c2.15,1.58,2.43,1.58,2.43,1.58,0,0-1.4-1.09-2.84-1.94-1.49-.89-3.01-1.56-3.01-1.56l-.68-3.44c-.13-.71-.06-.76-.06-.76,0,0,1.32.56,2.96,1.46,1.68.9,2.89.84,2.89.84,0,0-3.44-1.03-4.21-1.59-.76-.58-1.85-.74-1.95-1.49-.21-1.33-.6-4.69-.6-4.69,0,0,1.4-.83,3.87-.65,2.51.22,6.01.52,6.01.52,0,0-6.56-.73-7.57-.65-1.02.07-2.69.39-2.69.39l-.13-1.53s3.06-.84,4.67-.56l1.58.23s-1.16-.29-2.22-.36c-1.22-.12-2.39,0-3.13.13-1.41.17-1.61.44-1.61-.81s0-1.13-.39-1.71c-.36-.56-.12-2.36.59-2.36s2.43.44,2.67.07c.26-.38.72-.58.9-.26.19.31.84,1.09.84,1.09,0,0-.28-1.34-.94-1.66-.72-.32-1.09.69-1.67.19-.59-.51-.39-.84-.26-1.08.13-.25.59-.39.06-.69-.51-.34-.51-1.61-.96-2.12-.45-.52-.39-.37-.22-1.2.22-.84-.02-1.5.09-1.86.13-.37.7-.06.7-.06l1.72,1.93-2.17-2.61c-.43-.52-.63-.79-.63-2.32,0-1.05-.66-1.41-.61-1.54.02-.03.18,0,.61.01,1.32.13,2.94,1.3,4.03,2.58l1.08,1.27s-.7-1.29-1.97-2.46c-.87-.79-2.35-1.52-2.86-1.76-1.18-.57-1.18.25-1.29-1.4-.15-1.66-.27-2.08-.27-2.08,0,0,2.23.93,3.27,1.58,1,.62,1.34.5,1.63.96.49.56.22-.71-1.32-1.46-1.54-.78-3.79-1.67-3.92-1.93-.13-.27-.15-1.02.09-1.15.24-.12,1.25.31,2.15,1.27l.9.96s-.96-1.51-1.72-2.1c-.78-.6-.59-.6-1.15-.9-.58-.31-.84-.66-.89-1.22,0-.58,2.73.9,3.55,1.8.85.87.59.25.59.25,0,0-1.59-1.33-2.68-2.17-1.09-.84-1.69-1.09-1.69-1.09,0,0-.47-.44-.47-1.53v-1.41s2.03.08,2.41,1.04c.39.95-.06,1.39,1.09,2.68,1.13,1.27,1.91,1.52,3.34,1.91.62.17.96.39.96.39-.3-.26-.88-.74-1.36-.84-1.4-.26-3.25-1.2-3.45-2.57-.2-1.32-.54-2.2-1.47-2.59-.99-.39-1.4-.25-2.12-.78-.69-.51-1.09-3.82-.81-3.57.26.25.54.06,2.99,1.14,2.42,1.09,2.81,1.44,4.9,1.67,2.11.25,1.02,0,1.02,0,0,0-2.11-.7-3.54-1.13-1.5-.46-1.9-.41-2.95-.96-1.2-.64-1.6-.64-2.04-1.2-.46-.6-.5-1.28-.5-1.28,0,0,1.39.14,2.23,1.09.84.93,1.15,1.27,1.03.93-.14-.31-1.22-1.78-2.32-2.29-1.06-.5-1.15-.57-1.15-.57,0,0-.13-.72-.57-1.39-.44-.7-.44-1.09-.44-1.09,0,0,1.9-.04,3.51.71,1.58.74,2.1.88,2.45.81.41-.06.8.39,1.25.71.46.31,1.33.58,1.33.58,0,0-3.11-1.66-3.87-1.92-.79-.26-1.69-.82-3.14-1.08-1.47-.26-1.47-.32-1.47-.32,0,0-.24-.66-.58-1.85l-.39-1.39s1.01-.13,1.91.66c.89.73,1.02.8,1.48,1.14l-3.62-2.5s-.13.52-.39-.88c-.26-1.41-.32-1.61-.32-1.61,0,0,1.46.22,2.57,1.2.34.28,1.16,1.54,1.45,1.86,1.41,1.46,1.84,1.64,1.84,1.64,0,0-3.04-3.7-3.23-4.01s1.38.07,2.73,0c1.33-.05,1.67.07,2.37.96.69.88,1.08,1.08,1.08,1.08l-1.34-1.77c-.19-.27-2.35-.59-3.24-.91-.91-.31-2.17.07-2.83-.31-.63-.37-1.35-.24-1.85-.65-.5-.37-.83-.78-.5-.87.35-.14-.58-.22,2.5,0,2.04.13,2.57-.39,4,.38.83.42,1.52.84,1.98,1,1.47.15,1.7.21,1.7.21,0,0-2.98-1.39-4.27-1.67-1.26-.24-2.05-.24-3.1-.5-1.03-.25-2.36,0-2.86-.25-.5-.26-.56.06-.63-.47-.09-.48-.27-.47,0-.88.25-.38,1.03-.48.36-.61-.63-.14-.95-1.58-1.4-2.89l-.44-1.28s2.62.65,3.78,1.85c1.13,1.23,1.26,1.26,1.26,1.26,0,0-.58-.93-1.41-1.71-.86-.74-1.99-1.3-2.61-1.58-.79-.31-.91.06-1.01.06-.39-1.64-.32-1.39-.69-2.05-.4-.64-.34-.3-.4-.83-.07-.51,0-.37-.3-.94-.34-.58-.47-1.74-.39-2.87.05-1.14-.51-1.6-.84-2.1-.32-.53-.82-2.88-.95-3.76-.13-.89-.35-.89-.79-1.97-.43-1.09-.75-.78-.48-1.24.24-.43,1.14-1.52,2.16-.87,1.02.62,1.27,1.22,2.29,1.58,1.04.39.57-.31,1.77.65l2.05,1.59s-1.9-2.07-3.2-2.95c-1.27-.87-1.91-1.25-2.66-1.52-.79-.24-1.07-.84-1.54-.71-.42.17-.64.78-1.09.47-.44-.3-.75-2.03-.62-2.61.12-.6.62-.71,1.07-.66.43.06,1.66-.18,2.3.19.63.39,1.27.71,1.6.65.3-.06-.03-.24-.77-.65-.79-.37-2.91-.58-3.37-.73-.47-.22-.78-.25-.65-.72.13-.46.18-.63,1.11-.3.89.3.89.24,1.39.37.5.13,1.2,0-.39-.69-1.59-.7-1.68-.51-1.84-.86-.17-.31-.92-1.66.25-1.25.59.18.72.18.84.22.13.06.17.16.64.53l2.59,2.23c.4.35-.39-.72-1.29-1.58-.88-.91-1.7-1.66-2.41-2.19-.71-.51-1.02-.89-1.02-.89,0,0-.31-.74.4-1.15.68-.37.49-1.24.49-1.77,0-.5.13-1.8,0-3.38-.12-1.58.72-1.03.72-1.03l1.02,2.38c.3.7,1.06,0,1.4.83.29.84.34.71.42,2.67.07,1.97.02,2.17.07,2.48.06.32.26-1.47,0-3.36-.07-.54-.03-1.26-.22-1.63-.44-.93-1.31-1.17-1.51-1.82-.25-.88-1.35-2.1-1.48-2.93-.08-.83-.08-.76-.08-1.14s.21-1.72.21-1.72c0,0,1.04,1.78,1.35,3.18.34,1.4.7,2.28.83,2.74.14.44.06-.52-.26-1.98-.3-1.47.52-1.09.52-1.09,0,0,.76,1.03,1.1,2.32.31,1.27.49.3.19-.59-.35-.89.54.24.54.24,0,0,.26.2.32,1.8.08,1.59.08,2.16.08,2.42s.62-.51.62-1.96v-1.5s-1.2-2.29-1.52-3.11c-.3-.84.38-.9.82.06.45.96.65,1.02,1.11,2.55.07.3-1.08-3.51-1.8-4.79-.83-1.45-1.59-.06-1.79-3.56-.2-3.5-.24-4.39-.24-4.39,0,0,.37-1.98.44-1.68.07.34,1.96,7.09,3.39,9.26,1.38,2.16,1.9,2.28,1.9,2.28,0,0-2.86-4.45-3.7-7.65-.83-3.17-1.4-4.69-1.73-5.73-.35-1.02-.69-1.02-.3-2.41.37-1.42.75-.24,1.27.88.52,1.15,1.79,4.14,2.8,6.76,1.01,2.61,1.61,6.06,1.79,6.88.21.83,0-.2-.39-2.87-.4-2.68-2.29-7.71-3.25-9.74-.95-2.03-1.02-2.74-1.02-2.74,0,0,1.85,4.09,3.51,7.58,1.64,3.5,1.77,3.61,1.77,3.61,0,0-2.28-5.53-2.71-6.81l-.47-1.26s.31-.72,2.16,1.95c1.83,2.7,2.58,4.3,3.27,5.3l.69,1.03-1.19-3.11-6.13-9.56,4.79,6.87-4.53-7.07,2.8,3.94-2.03-4.9,1.93,2.62-1.49-3.06,1.66,2.47s2.3,3.28,3.46,6.6c1.14,3.3,1.48,4.12,1.48,4.12,0,0-2.02-5.67-3.2-8.43-1.22-2.72-1.28-1.9-2.33-3.67-1.02-1.79-.57-1.67-.57-1.67,0,0,2.05,1.02,3.4,3.2,1.32,2.17,1.88,3.13,2.27,4.21.41,1.06.42,1.06.42,1.06l-1.55-4.13s.9,1.03,2.81,2.74c1.16,1.05,1.88,1.74,1.93,1.71.01-.03-.37-.53-1.31-1.66-2.03-2.48-5.35-5.93-6.88-6.96-1.54-.98-1.54-1.07-1.54-1.07,0,0-.05-1.02.22-1.26.23-.28,1.76.62,2.52,1.18l3.38,2.63s.06-.13-1.78-1.93c-1.84-1.78-3.94-2.85-3.94-2.85,0,0,1.44-.53,3.82,1.2,2.7,1.98,2.98,2.05,4.37,3.77,1.41,1.71-.42-1.66-2.06-2.89-1.68-1.22-6.13-2.93-6.13-2.93,0,0,.54-3.5.29-4.14q-.25-.63-.48-1.66c-.27-1.03-.22-1.35-.46-2.4-.13-.48.17-1.92,0-2.9-.2-1.23-.73-2-.57-2.59.31-1.08.37-2.5.75-3.82.4-1.35,1.49-1.48,1.49-1.48,0,0,.63,0,.36.64-.25.63-1.09,5.6-1.09,5.6l1.41-4.7.82,4.13s-.48-3.77-.43-4.85c.06-1.06-.18-1.24.32-1.3.51-.05,1.33.42,1.33.42,0,0,.76,2.47-.07,4.71-.82,2.23-2.02,6.88-2.02,6.88l2.8-8.74s.5,1.14.75,5.16l.32,4.71s.07-4.52-.14-6.31c-.19-1.78-1.16-5.15-.63-6.12l.95-.13s-.32,1.24.18,2.47c.24.66.07.39.66,1.9.6,1.49.13-.5-.05-1.9-.19-1.25-.46-2.66-.46-2.66l.95-.07s2.42,6.69,2.29,6.12c-.12-.56-1.72-6.12-1.72-6.12l.82.14,1.68,5.55s-1.81-5.69-.95-5.55c.82.13,0,.9,0,.9l3,7.32-.76-2.04c-.74-2.02-1.86-6.48-1.86-6.48l1.49-.15s.4.71,1.38,3.72c-.18-.59-.18-4.03-.18-4.03h.7l.57,3.7.4-3.57.37,3.83.19-3.9.84,5.47-.05-5.41,1.01,8.3-.64-8.42c.52-.06.9,7.96.95,6.95.06-1.01-.05-6.95-.05-6.95l.68.13s0,.34.6,1.54l3.29,6.94s-.12,0-1.26-2.93c-1.15-2.93-2.03-5.79-2.03-5.79,0,0,.64-.38,1.02-.21.39.21,3.17,5.81,3.17,5.81l-2.79-5.92c.56-.12,3.47,7.09,2.92,5.36-.48-1.41-1.98-5.64-1.98-5.64l1.24-.19s.8,3.33.74,2.88c-.06-.45-.32-2.82-.25-3.25.04-.47.12.06.49,1.03.4.94,2.21,4.44,2.21,4.44,0,0-.43-.88-1.11-2.22-.7-1.33-.9-3.31-.9-3.31.82,0,1.02-.18,1.58.58.58.75.64,1.91,1.29,3,.64,1.07,1.92,4.77,1.85,4.01-.07-.76-1.02-3.13-2.16-5.43-1.15-2.28-.26-2.81-.26-2.81,0,0,1.53-.49,1.53-.05,0,.18.53,1.91,1.16,3.31.92,1.93,1.95,3.5,1.52,2.92-.76-1-2.19-6.56-2.19-6.56l.59.78c.43.54,5.19,8.85,2.87,3.82-.57-1.28-3-4.84-3-4.84,0,0,.2-.46.71-.6.5-.12.86.01.86.01l4.1,6.94-3.5-7.25,5.1,6.76-4.75-7.09,9,13.51-7.89-13.82s.06-.64.65-.44c.54.18,2.46,3.31,2.46,3.31l-1.78-3.51,5.74,6.18-4.28-5.24-.69-1.07,3.4,1.53-2.81-1.84,1.32-.7,1.96,1.34-1.47-1.6,1.27-.45,1.94,4.27-1.63-4.57,2.08-.46s.38,0,.42,1.34c.03,1.39.25,4.38.25,4.38l-.04-.86c-.03-.79.1-2.1.1-2.1l1.67,3.12s-.16-.12-.75-1.38c-.6-1.28-1.27-5.15-1.27-5.15,0,0,.84-.48,1.74-.16.91.3.36.22.91,1.71.29.81.41,2.15.77,3.12.31.84.92,1.38.92,1.38,0,0-.31-.43-.96-2.23-.62-1.8-.43-3.93-.43-3.93,0,0,1.39-.12,1.81.85.44.96.64,1.49.64,2.18s.22.59.46,1.22c.2.65,2.55,6.57,2.55,6.57l-.63-1.42c-.39-.98-.91-3.11-1.26-4.5-.15-.68-.3-1.55-.3-1.55l.63.37.34,1.08.6.79.54.6.15,1.06.66-.06v4.37l.38-3.12s.18.09.53.57c.37.48.51.64.51.64l-.51,4.42s.68-3.4.68-3.09.53.44,1.06.95c.54.53.21,1.11.21,1.11l-1.27,4.61,1.38-3.47s.52.08,1.07.14c.53.05.64.31.81.85.16.53-.27.47-.27,1.07s.19.63.58,1.23c.38.58.31.73.47,1.22.17.47.67.38.85.53.22.17.05,1.49.05,1.49l.54,4.72-.06-4.78s.28-.86.56.14c.27,1.04.64,1.62.64,1.62l.67.69c.43.43.06.16.62.25.6.12.48-.09.71.53.2.64-.72,3.02-.72,3.02l1-2.48c.59.16.79.06.95.37.16.32-.44,3.26-.44,3.26l.7-2.84.82.38c.57.28.29.08.52.42.2.32-.5,2.51-.5,2.51l.66-1.82s0-.06.58-.21c.59-.16,1.29.85,1.44,1.33.17.48-.53,4.94-.53,4.94l.65-3.98.67-.12-.02,3.82.4-3.4.74.38.06,6,.32-5.25s.68.05.83.79c.18.76-.31,4.99-.31,4.99l.74-4.66s.23.05.53.69c.35.63.41.58.69.84.26.27.43.34.81.81.38.48.65.59.73,1.12.13.51-.95,2.11-1.24,2.82-.25.68-.52,1.8-.14,2.12.39.3.68,2.91.68,2.91l-.04-.85c-.06-.75-.12-1.44-.34-2.22-.2-.81.25-.91.48-1.88l.59-2.39c.68.6.8.53,1.27.84.49.3.24.54.37.92.18.39.35.54.54.63.47.75,1.03,1.07,1.03,1.07l.07.87c.1.72.39,3.32.65,4.02l1.39,3.66s-.09-.15-1.03-3.51c-.3-1.11-.46-1.72-.56-2.37-.17-1.31-.02-2.02-.02-2.02,0,0,.21.31.63,1.1.45.8.42,1.08,1.17,1.72.76.64.32.41.52.9.21.47.44.78.86,1.48.44.7,1.54,1.94,2.3,3.04.73,1.06,1.29,2.17,1.29,2.17,0,0,.18.75.29,1.58.13.87-1.58,3.62-1.58,3.62l1.83-3.62.83.22-.08,1.34.44.62.19,4.08-.07-4.13c.95.22.72.76.72.76l.48,5.25s-.4-1.29-.48-2.52c-.09-1.13.17-2.26.17-2.26l.81.12.3,2.6,1.54.65-.04,1.15c-.05.8-.53,4.4-.53,4.4l.85-3.56.27,2.29.63-1.9s.37.68.63.96c.26.24.13.4.32.88l1.54,3.4-.59,2.64.73-2.16s.4.53.84,1.12c.5.59.14.15.67.46.51.32.06.44-.32,1.38-.37.96.1,2.82.1,2.82,0,0,.14.06.05-1.26-.06-1.34.64-1.81.64-1.81,0,0,.47,2.48.47,2.78v1.19l-.04,4.68s.31-4.37.43-5.02c.15-.84.59-.92.59-.92,0,0,.88,1.46,1.22,2.88.3,1.45.77,2.04.77,2.32,0,.24,1.14,1.62,1.14,1.62l-.05-1.14s.42-.66.9-.06c.48.59.78.67.78.67l.13-1.41.73.32.58.95c.58.95,1.03,2.22,1.03,2.22l-.23-2.47.6.25.32,3.18.32-3.07c.62.16.97.08,1.78.74.85.64,1.08,1,1.52,1.41.42.44.38.43.63.85.27.42.26.31.78.6.56.27.5.9.34,1.36-.16.5-.8,2.15-.8,2.15l1.14-1.95s.4.54.19,1.14c-.19.59-1.08,1.71-1.08,1.71l1.68-1.77s.3.81.41,1.17c.08.4-.05.82-.15,1.08-.13.23-.44.59-.71,1.02-.63,1.1-1.1,3.72-1.1,3.72,0,0,.59-1.64.76-2.3.13-.62,1.05-1,1.05-1l-.44,1.75.73-1.55-.68,3.36s.39-.83.43-1.34c.05-.53.31-.43.6-.85l.71-1.2s0,.92-.09,1.49c-.09.52-.43,1.95-.43,2.16l-.14,2.87s.05-.75.14-1.33c.14-.58.43-2.66.6-3.08.16-.41.3-1.34.3-1.34l.64.34c.66.32.36.42.36,1.38s-.24,1.91.49,2.43c.77.52,0,.23.12,1.18s.12.42.75.53c.64.09.52,0,.84.84.32.85,4.06,6.46,6.9,10.2,1.19,1.48,4.12,5.35,7.1,8.73,4.4,4.94,9.11,9.63,10.19,10.93,1.76,2.18,6.5,4.75,7.52,6.1,1.03,1.34.82,1.23.82,1.23l.14,2.24s.18-2.44.31-3.27c.13-.82.25-.37.79.07.49.45.41.7.41-.14s0-.75.84-.3c.82.44.96,1.19.65,1.76-.31.6-1.4,2.68-1.49,3.52-.04.85-.3,1.58-.3,1.58,0,0,.9-1.13,1.39-2.48.53-1.33,1.04-.81,1.04-.81,0,0,.19,1.19.19,1.47,0,.24-.06.3-.69,1.89-.65,1.61-.91,5.06-.91,5.06l.19-1.61c.19-1.64.72-2.55,1.41-4.09.69-1.53,1.27-1.19,1.27-1.19.25,1,.18,1.77.49,1.59.35-.19-.56,2.72-1.2,5.35-.64,2.62-2.39,4.64-2.39,4.64l2.1-3.3-.26,2.47s1.53-4.97,1.76-6.82c.26-1.81.4-2.54.4-2.54,0,0,.39.19.59.84.19.62.82.63,1.19,1.27.38.64.26.49.9.62.63.16.72.16.63.97-.03.46.1,1.98.35,3.06.17.83.47,1.38.37,1.08-.09-.25-.31-1.39-.37-2.1-.07-1.03.03-1.68.03-1.68.75.45,2.57,2.3,2.57,2.3l.1,3.11.78-2.28s2.49,2.16,3.38,2.99c.89.85,1.41,1.08,2.69,1.73,1.27.64,2.3,1.48,2.87,1.84.58.37.4.58.88.96.52.37.13.18.84,1.27.7,1.09,4,2.73,4.45,3.25.45.51,2.61,2.48,2.61,2.48-.68-.62-1.64-2.21-1.64-2.21,0,0,.68.24,1.58.69-.07-.03,1.68,1.62,5.35,1.97,1.99.19,6.76-.12,7.29-.05.5.04,1.14-.4,1.14-.4l.3-1.53c.24-1.18.8-.83.79-.81.5-.27.43-.38.19-1.4-.25-1.05-.07-.96,0-2.18.05-1.2-.66-1.83-.85-2.7-.14-.8.06-1.31.06-2.01s-.13-.51-.24-1.15c-.14-.61-1.02-.18-1.14-.78-.05-.29-.69-.84-1.15-1.08-.44-.25-.59-.69-.66-1.01-.08-.64-.36-.64-.83-1.46-.43-.84-.46-1.23-.74-1.8-.97-.85-1.76-1.03-2.42-1.52-.64-.53-.64-.65-1.74-.9-1.07-.24-1.52-.64-1.58-1.2-.06-.56-.12-.46-1.08-.76-.95-.31-1.14-.7-.41-1.23.75-.49-.48-.49.19-1.18.44-.43,1.84-1.77,3.21-2.48.89-.48,1.78-.62,2.37-.73,1.55-.24,1.39.26-.07.07-1.22-.14-2.18.19-2.92.83-.84.7-1.88,1.35-2.24,1.67-.38.31-.58.31-1.13.2-.59-.15-1.27-.15-1.27-.15,0,0,.13-.43-.71-.37-.85.06-1.08-.14-1.4-.65-.34-.5-.27-.19-.96-.25-.69-.06-1.57-.38-2.17-.78-.59-.38-.76-1-.76-1,0,0,.06-.16,1.27-.16s2.95-.62,4.4-.75l4.89-.38s-1.05-.38-4.96-.04c-1.1.07-2.79.38-3.51.43-1.92.23-2.06.19-2.68.06-.81-.18-2.47-1.08-2.41-1.54.06-.44.89-.82,1.54-.95.63-.14,1.52-.57,1.52-.57,0,0-.71,0-1.46.21-.4.09-1.41.27-1.8.48-.4.2-.25.4-.62.6-.86.39-.57-.78-1.02-.92-.47-.12-.72-.03-1.24-.44-.5-.4-1.58-.25-1.9-.43-.32-.23-.06-1.07-.59-.72-.64.47-.44.06-.7-.13-.25-.18-.44-.83-.14-1.08.35-.25.47-.25.9-.7.47-.43.96-.5,2.03-.95,1.11-.44,4.41-2.74,4.41-2.74,0,0-1.4.9-2.7,1.57-2.01,1.04-4.24,2.05-4.24,1.88-.12-.89,4.61-5.48,4.61-5.48-.39.29-2.34,1.74-3.68,3.02-.66.61-1.99,2.47-1.75,1.91-.38.44-.71.62-1.27.75-.6.12-1.28-.08-1.23-.58.08-1.13-.7-.58-.7-1.33s-.1-1.1.43-1.1h1.24s-.83-.25-1.34-.31c-.52-.06-.32-.24-.26-1.14.06-.91-.06-.71-.38-1.04-.32-.3-.52-.37-.9-1.63-.39-1.3-.65-1.03,1.54-.13,2.18.87,3.64,2.28,3.64,2.28,0,0-.06-.25-1.2-1.35-1.15-1.08-4.21-2.01-4.21-2.01,0,0-.03-.09-.79-.2-.72-.14-.12-.07-.29-.76-.19-.7-.9-.7-1.38-1.22-.42-.5-.23-1.22,2.23-.44,2.49.76,5.44,2.52,5.44,2.52,0,0-.44-.36-2.85-1.62-2.42-1.29-3.78-1.5-4.15-1.56-.41-.06-.95,0-1.54-.37-.56-.4-.82-.45-1.16-1.04-.29-.54-.24-.05-.66-.12-.47-.06-.37-.25-.47-1.15-.09-.53-.39-.8-1.09-.49-.29.15-.59-.46-.63-.78-.06-.29,1.32-.53,2.73-.49,2.25.06,4.91.56,4.91.56l-2.23-.24c-.83-.12-1.37-.37-2.29-.41-1.41-.09-3.12.09-3.12.09,0,0-1.15-.65-2.12-1.22-.94-.59-.78-.86-.64-1.37.14-.49.64-.23,1.6-.42l2.7-.51s-.35,0-1.49.13c-1.15.14-2.82.5-2.87.14-.07-.38-1.47.13-1.22-.35.09-.16.51-.65.9-.71.65-.09,1.42-.01,2.27.16,1.41.26,3.06.14,3.06.14,0,0-.12-.14-1.89-.2l-3.88-.12s-.92.18-1.02-.26c-.77-.14-.73-.2-.86-.46-.15-.23-.43-.69-.43-.69,0,0,1.76-.27,3.99.09,2.25.38,4.93,1.37,4.93,1.37l-1.52-.78c-.73-.35-4.71-.88-3.94-.82.76.06-3.98-.36-4.63-.37-1.17-.06-.97-.96-1.1-1.5-.1-.5-1.26-.43-1.46-.8-.19-.41-1.01-.66-.77-1.16.47-.83,4.62-.89,6.14-.32,1.53.59,1.86,1.2,3,1.02.52-.09,2.39,0,3.42.18,1.25.18,1.71.44,2.51.6,1.46.25,2.93.49,1.92.19-1.02-.3-3.07-1.02-8.75-2.12-2.15-.38-2.6-.68-3.6-.71-2.05-.08-3.3.48-4.09.48-1.22,0-1.28.3-1.44-.27-.12-.59-.29-.76-.75-1.02.97-.52,2.19-.84,4.1-1.27,1.93-.45,10.19-1.73,10.19-1.73l-2.29.14c-2.28.12-11.5,1.95-12.2,1.68-.69-.25-.93-1.11-.61-1.37.31-.21,4.78-1.64,5.79-1.83,1.02-.21,1.85-.7,1.85-.7,0,0-7.58,2.03-8.41,2.33-.84.36-1.03.08-.71-.53.34-.65,8.05-4.1,8.67-4.41.66-.34,1.1-.83,1.1-.83,0,0-8.93,4.59-9.94,4.96-1.03.4-1.27-.62-1.27-1.02,0-.37,4.42-1.84,4.12-1.9-.3-.06-3.45,1.4-4.65,1.47-1.24.06-.88-.19-.76-.64.13-.45,1.67-.7,2.11-.9.46-.2,3.61-1.38,4.83-2.03,1.23-.65,1.74-1.15,1.74-1.15l-.86.42c.56-.28-8.13,3.58-8.32,3.34l-1-1.15s.66-.19,1.77-.39c1.08-.18,2.06-1.78,2.06-1.78,0,0,0-.38-.92.59-.96.96-1.79.89-1.79.89,0,0-1.15.2-1.91-.39-.78-.57-3.52-3.76-4.02-4.64-.52-.89-1.04-1.02-.82-1.35.17-.32.49-.58,1.46-1.08.97-.52,1.12-.3,2.61-.4,1.48-.06,1.78-.3,1.78-.3,0,0-1.73-.14-3.07-.06-1.32.06-2.28,1.07-2.88,1.2-.57.12-.86-.14-1.07-.57-.19-.45-.2-.4-.43-.64-.63-.96-.57-.78-1.09-1.2-.49-.47-.64-1.27-.64-1.86,0-.57-.62-2.03-.64-2.28-.05-.23-.19.27-1.03-.25-.6-.38-.75-1.39-.23-1.39.48,0,.64-.22,2.21-.4,1.59-.2,4.65-.44,4.65-.44,0,0-.18-.06-1.74,0-1.51.07-3.67-.25-4.83-.34-1.14-.03-1.59.34-2.29-.31-.67-.62,0-1.14-.05-2.35-.07-1.19-.71-1.9-1.15-2.37-.43-.45-1.24-1.08-.64-1.45.58-.38,2.38,1.14,2.38,1.14l-1.05-.9c-.9-.78-.87-.52-1.47-.83-.57-.31-.95-1.16-1.26-1.59-.31-.44-.78-1.3-.52-1.6.25-.31,1.11.14,2.33.66,1.18.5,3.15,1.07,1.69.25-1.46-.84-3.99-1.29-4.33-1.5-.32-.16-1.16-1.32-1.53-1.58-.39-.24-.95-.88-.39-1.57.59-.71,1.54.24,2.44.69.89.44,3.31,1.9,4.09,2.16.73.27-.84-.64-2.99-1.96-2.19-1.36-1.1-.65-1.89-.89-.78-.25-.9-.26-1.78-.41-.9-.13-1.39-.73-1.52-1.27-.13-.53-.95-1.33-1.37-1.56-.43-.23-.04-.12-.04-.59-.75-.44-.94-.74-.54-1,.4-.3.82-.06.96-.43.1-.35,1.53-1.01,1.53-1.01,0,0-.18.06-.72.38-.53.31-1.08.31-1.6.45-.5.14-.82.14-1.2-.14-.42-.28-.46-1.02-.46-1.55,0-.58-.24-.82-.87-.96-.66-.15-.31-.49-.27-1.24.03-.72.18-.63-.7-.54-.85.1-.34-.84-.43-1.17-.28-.87-.52-.43-1.03-.74-.48-.34-.85-1.42-.85-1.42,0,0,.96.18,1.4.13.47-.04.4.05.6.4.96.5,1.01.59,1.28.96.25.38.09.14.7.28.68.14,1.67.87,2.17.9.5.06.73.18,1.15.53.35.3,1.33,1.23,2.16,2.1.95.74,1.74.97,1.74.97,0,0,0-.05-.68-.61-.69-.54-1.52-1.73-2.5-2.68-1.02-.97-1.68-.54-2.11-.67-.41-.15-.76-.6-1.49-.96-.76-.36-1.05-.32-1.59-.6-.54-.26-.44-.51-.61-.82-.15-.34-1.26-.23-1.6-.34-.3-.07-.67-.31-1.26-.81-.61-.52-.23-.47-.47-1.13-.13-.35-.63-.47-.9-.9-.2-.37-.2-1.05-.2-1.05.56,0,.83.3,1.76.76.9.47,1.41.95,2.21,1.31.83.37,1.7.43,1.42.19-.29-.21-.57-.41-1.73-1.24-1.19-.82-.48-.35-1.62-.7.06.01-1.32-.29-1.51-.68-.28-.5-1.01-.02-1.37-.34-.36-.3-1.02-1.82-1.02-1.82,0,0,.78-.29,1.56-.31.79-.04,1.22.08,2.5.31,1.26.24,1.88.12,1.88.12,0,0-1.38-.71-2.54-.9-1.2-.17-2.53-.09-2.92.06-.42.13-.82.26-1.06.07-.27-.18-.38-.4-.42-.63-.05-.22-.34-.41-.6-.71-.28-.35,0-1.14-.85-1.48-.89-.32-1.38-1.28-1.3-1.84.12-.6.54-.69,1.12-.69.53,0,.13.06,1.12.19,1.01.09,4.9.26,4.9.26.26-.59.13-.42-1.29-.42s-3.2-.21-4.06-.45c-.85-.23-2.04.83-2.23.7-.17-.16-.31-.42-.4-.8-.93-.26-1.24-.78-1.24-.78,0,0,.44-.42,1.01-.42.52,0,1.31.06,1.72-.26.39-.29.8-1.52,1.19-2.45.36-.95-.46.24-1.14,1.51-.7,1.27-1.42.88-1.71.67-.34-.24-.78.1-1.22.27-.42.2-.31-.67-.44-1.17-.15-.48-.31-.18-.75-.38-.04-1.05-.14-.66-.52-.95-.42-.28-1.13-1.46-1.13-1.46,0,0,1.89-.04,3.68.07,1.76.08,3.37.12,3.37.12,0,0-1.86-.49-3.99-.88-2.17-.37-3.3.15-3.3.15l-.8-1.02h1.11c.14-.45-.96-.48-1.44-.67-.44-.17-.9-.9-.97-1.37-.08-.46-.35-.22-.86-.49-.59-.25-.61-1.2-.61-1.2,0,0,.26,0,1.47-.26,1.18-.21,1.04-.39,1.04-.39,0,0-2.91.23-2.99-.04-.09-.28.03.12-.59-.21-.66-.29-.28-.35-.23-.81-.78-.29-.69-.86-.69-1.1,0-.22-.32-.48-.51-1.04-.18-.53-.69-1-.41-1.04.32-.07.92-.28.96,0,.03.27,0,1.03.22,1.18.24.15,1.2,0,1.2,0,0,0,.04.59,1.03.81,1.01.24.49.06,1.09-.14.6-.19.96-.19,1.02-.49.04-.34,1.08-.51,2-.57.91-.04,1.32-.34,1.32-.34,0,0-.37.13-1.24.06-.88-.03-1.36-.03-1.86.24-.52.27-.54.42-.77.6-.23.18-.64.37-.64.13,0-.22-.54-.81-.54-.81,0,0-.68,0-1.32-.16-.62-.13-.72-.9-.72-.9l-2.01-.15c-1.16-.06-1.16-.44-1.24-.75-.02-.34-.19-.51-.03-1.24.13-.71.3-1.07-.16-1.32-.36-.22-.18-1.01-.18-1.01,0,0,.94.16,1.37.24.41.07.95.22,1.42-.37.45-.6.92-.67,1.35-.18.47.48,1.02.97,1.02.97l-.83-1.72-.76-.04c-.59-.03-1.25,1.05-1.25,1.05l-1.55-.19s-.2-1.05-.18-1.31c.05-.27-.08-.38-.6-.42-.48-.04-.72-.27-.85-.72-.14-.44-.05-1,.94-.41,1,.6,1.6,1.37,1.6,1.37,0,0,.29-1.02-.99-1.56-.85-.36-2.03-.95-2.03-.95l-.21-1.6s.49-.24,1.53-.17c1.07.07,3.2-.2,3.2-.2,0,0-.91,0-2.48-.22-1.52-.22-2.29.15-2.29.15-.41-.75-.04-.82.19-.94.22-.15-.41-.43-.84-.62-.38-.17-.38-.9-.38-.9l-.88-.36s-.28-1.29-.18-1.78c.08-.51-.2-.28-.82-.64-.66-.36-.53-.26-.7-.79-.92-.66-1.17-1.32-.96-1.68.23-.37.21-.23.73-.37.57-.15.57-.12,1.14.19.58.28,1.37.91,1.37.91l-.68-.49c-.5-.36-.51-1.06-.85-1.15-.4-.09-.98.13-1.84.13s-.72-.24-.79-.71c-.59-.78-1.08-1.63-1.14-2.1-.05-.45-.17-.27-.8-.59-.63-.34-.69-1.02-.69-1.32s-.24-.19-.79-.41c-.53-.24-.16-.1-.28-.6-.15-.53-.39-.41-.65-.56-.27-.12-.64-.68-.75-1.31-.08-.63-.2-.42-.81-.45-.59-.03-.9-1.31-.9-1.59s-.09-.15-.96-.57c-.86-.41-1-.87-1.09-1.2-.09-.37-.13-.34-.59-.47-.44-.16-.51-.41-.51-.83s-.03-.31-.89-.37c-.87-.05-.79-.95-.35-1.34.48-.42,2.57.08,2.57.08,0,0-.04-.08-.82-.31-.78-.24-2.06,0-2.61.05-.54.05-.72-.4-.72-.4l-2.15-.7s-.56-1.42.79-1.51c1.31-.07,3.31.38,4.69.94,1.36.6,2.95,1.03,2.33.69-.65-.31-1.48-1.06-4.21-1.45-1.29-.2-2.04-.28-2.49-.32-.54,0-.68.03-.83.04-.41.05-.63.28-1.1.28-.54,0-1.06-.53-1.46-1.18-.79-.79-.71-1.79-.92-2.04-.19-.17-.67.36-.78.13-.18-.36-.28-1.08-.73-1.46-.6-.48-1.63-.61-2.35-.87-1.27-.42-.54-.21-1.6-1.06-1.08-.85-1.59-.95-2.98-1.6-1.38-.63-3.54-1.68-4.43-2.13-.91-.43-.91-.49-2.17-.37-1.28.13-.58-.65-1.35-.9-.75-.24-3.43-.71-3.81-1.02-.4-.31-.39.07-1.1.18-.66.13-.25-.1-.5-.43-.25-.31-.69.06-1.39.43-.69.4-1.18,0-2.04.34-.89.31-1.17.25-1.42-.08-.25-.31-.66-.62-.66-.62,0,0-.08.43-.66,1.09-.56.65-1.34.37-1.86.24-.48-.13-.75-.06-1.71.22-.95.24-1.59.92-2.93,1.05-1.33.13-5.91,2.76-7.99,4.36-2.06,1.59-4.32,3.16-7.19,2.55-2.85-.64-4.92-1.92-5.25-3.35s.79-2.85.79-2.85c0,0,2.42.14,2.57-.48.15-.65.64-1.27,1.42-1.61.79-.3,3.02,0,4.33,0,.64,0,1.63.48,4.44.48,2.49,0,6.94-.48,6.64-.48-.57,0,.95-.3.95-.3l.95-.28,1.59-1,.49,1.08s.06-.34.06-.88c0-.59.58-.53.95-.13.54-.72,1.62-.92,2.14-.97l.92-.13,1.42.93-.41-1.07.07-.7,1.03,1.28-.2-1.15s.6-.75,1.1-.58c.5.2.66,1.61.66,1.61,0,0-.16-1.53-.27-2.06-.14-.52.94-.49.94-.49,0,0,1.36,2.92,1.09,2.12-.26-.83-.58-2.26-.58-2.26l.97-.74s.89,1.27,1.51,1.79c.63.49.79.43,1.45,1.01l1.89,1.47s.05-.12-.4-.7c-.45-.58-2.03-1.39-2.88-2.24-.83-.83-1.45-1.45-.64-1.57.87-.13,1.09-1.03,1.55-.7.46.31.76,1.28,1.02,1.6.24.3,3.74,3.57,3.74,3.57l-.92-1.04c-.96-1.01-2.88-3.13-2.88-3.13,0,0,.45.14,1.67.6,1.19.44,1.71.43,1.71.43,0,0-.18-.06-1.79-.84-1.58-.76-1.89-1.39-1.89-1.39,0,0,1.26-.75,1.77-.59.49.2,2.88,1.98,2.88,1.98l-2.39-2.15s.22-.53,1.02-.66c.83-.09.65-.44,1.06-.44.36,0,.5.14,1.14.57.62.45,1.78,1.85,2.6,2.49.84.66,2.49.66,2.49.66,0,0-1.22-.22-3.05-1.6-.9-.67-2.32-2.38-1.73-1.73.54.65-.43-.83-.46-.96.7-.49,1.49-.8,2.3-.43.82.37.64.89,1.39,1.71.78.83,4.06,2.74,4.06,2.74l-2.71-1.92c-1.36-.96-1.41-1.79-1.61-2.11-.17-.31-.69-1.01-.69-1.01,0,0,1.33,1.09,2.17,1.53.83.43,2.69,1.09,2.69,1.09l-.76-.51c-.76-.52-2.43-.96-3.02-1.72-.56-.78-.19-.97.08-.97s.17,0,.89-.3c.72-.34.44-.25.44-.25,0,0,1.26.25,2.44.75,1.13.49,2.98,1.85,2.98,1.85l-1.34-1.23c-1.27-1.16-3.37-1.38-3.61-1.6,1.14-.57,1.64-.73,2.16-.62.12.02.74.3,1.27.62.53.38.98.84,1.72,1.15,1.23.57,2.63.66,2.63.66,0,0-.19,0-2.05-.6-.67-.18-.68-.46-1.22-.78-.95-.62-2.16-1.31-2.16-1.31.76-.26.81-.46,1.15-.7.24-.35.31-.35,2.02.24,1.72.6,2.57,2.38,2.57,2.38,0,0-.14-.51-.7-1.48-.28-.47-.71-.6-1.34-.9-.62-.3-1.41-.8-1.41-.8,0,0-.75-.27-.38-.47.38-.18.58-.37,1.27-.37s.92-.41.92-.41c0,0,1.82,1.74,3.06,3.07,1.2,1.34,2.22,2.05,2.85,2.67.32.31,1.41,1.91,2.58,2.63,1.16.7,2.52,1.01,2.52,1.01,0,0-.17,0-1.98-.94-1.8-.95-2.16-2.04-3.21-3.25-1.01-1.22-5.16-4.9-5.16-4.9.14-.78.79-1.55,1.4-1.42.65.14,7.22,3.18,7.22,3.18,0,0-.19-.13-2.04-.9-1.86-.76-2.14-1.04-2.67-1.32-.51-.25-1.79-.69-1.85-1.29-.04-.57.06-.43.65-.43s.37-.14,1.15-.31c.76-.2,1.02.44,1.84.9.82.44,5.86,1.84,5.86,1.84,0,0-.19-.06-1.2-.59-1.02-.5-2.3-.75-2.3-.75,0,0-4.79-1.67-3.89-1.74.92-.06.58-.19.71-.69.12-.51.76-.06.76-.06,0,0,3.88.89,5.36,1.09,1.47.18,2.02-.06,2.02-.06,0,0-.12-.07-3.07-.27-2.93-.19-2.72-.57-3.29-.57s-.9-.46-.58-.46-.06-.44.31-.75c.37-.31.5-.25,1.33-.37.82-.13.41-.14.44-.39.07-.27.26-.4,1.03-.64.75-.25.51-.13.73-.44.18-.34.67-.4,1.13-.22.24.12,1.46.88,2.56,1.15.81.22,1.62,0,1.62,0,0,0-.29,0-1.97-.43-1.64-.43-1.72-1.27-1.72-1.27,0,0,.75-.9,1.55-.95.75-.07,1.28,0,2.03,0s2.43-.45,2.43-.45l-2.82.14s-.32-.53-.07-.71c.27-.2,1.16-.69,1.99-.78.81-.06,1.58-.39,2.81-.64,1.2-.26,1.39-.64,1.39-.64l-1.39.31s-.5.21-1.54.53c-1.03.32-1.02,0-1.27-.15.5-.74,1.33-1.38,1.33-1.38,0,0-.43.26-1.33.44-.9.2-.24-1.22.07-1.4.31-.19.18-.13.67-.19.52-.05,1.3-.41,1.3-.83s.13-.37.76-.76c.63-.37.78-.44,2.03-.57,1.29-.16.58-.46.58-.46,0,0,.26.3.84,1.15.57.84,2.42,2.36,2.42,2.36,0,0,.13-.13-.9-1.04-1.02-.89-1.45-2.41-1.45-2.41,0,0,0-.13.81-.06.83.06,1.6-.25,2.03.13.46.37.21,2.42.26,2.17.08-.25.26-1.83.26-1.83,0,0,.69.3.75.87.08.6,0,1.6,0,1.6,0,0,0-.19.27-.83.25-.65,0-.52.43-.12.45.37.2,2.26.2,2.26l.13-2.41s.14,0,.89.63c.75.65.38.97.38.97l.18,2.18s.2-2.18.46-1.92c.25.26.47.37,1.03,1.02.57.62,1.28.58,1.28.58v-.76c0-.65.76-.65.97-.13.18.5.04,3.69.04,3.69l.2-3.06s1.14.59,1.31,1.2c.2.65.59.91.59.91,0,0,.32-.47.7-.47.4,0,.27.09.35.71.05.66-.28,1.46-.28,1.46.34-.5.92-.3.92-.3l.3.83.14-2.04s.54.2,1.02.95c.44.74.64.31,1.2.26.49-.39,1.28-.32,1.47.24.2.6-1.01,5.62-1.01,5.62l1.05-4.91c1.09.13.91-.04,1.16-.46.25-.37.9.35.9.35,0,0,.57.31,1.07.38.52.07,1.14.24,1.14.24l.65,1.84s-.18-2.46-.05-2.99c.13-.49.76-.25,1.07.13.32.41.2,5.12.2,5.12l.18-4.54s.24-.53.78-.59c.51-.06,1.16-.06,1.61,1.2.43,1.28.3,6.31.3,6.31l.13-6.86c0-.24.2-.14.75.3.76.23,1.6.06,2.04.4.46.32.28,4.39.28,4.39l.04-3.57s.57.06,1.23.06,1.07.34,1.07.34l.64,6.94-.15-6.12s.71.58,1.16.84c.46.23,1.34-.34,1.59.5.26.82.38,4.46.38,4.46l-.05-4.4s.13-.31.7.78c.56,1.09.19,3.26.19,3.26l.2-3.39s.89-.38,1.01.7c.14,1.08.9,4.33.9,4.33l-.43-4.65,1.58.63c.05,1.03-.32,3.07-.48,3.37-.22.34.73-1.51.73-1.51l1.22,3.88-.32-1.15c-.31-1.12-.69-3.69-.69-3.69,0,0,.45-.06,1.12.18.72.29.91.32,1.08,1.16.19.87.67,5.03.67,5.03l-.25-4.77.67.06c.65.03.77-.06,1.04.74.23.84.63,5.12.63,5.12l-.13-4.78h.9s.25.25.39,1c.1.78,0,1.03.26.66.25-.41.44-.19,1.32-.58.92-.39,1.14,1.09,1.48,1.58.32.52.49,3.5.49,3.5,0,0-.13-1.58-.17-2.03-.07-.43.26-.9.7-.9s.49.14.74.6c.27.45.84.57.84,1.2s.83,4.86.83,4.86l-.31-2.05c-.21-1.28.14-2.05.5-2.81.4-.73.4,0,.83.58.47.56.34.71.72,2.72.37,2.05,1.27,3.02.94,1.99-.31-1-.49-1.79-.25-3.57.13-1.03.76-.24.76-.24,0,0,.14.48.25,1.45.1.96,1.22,2.06,1.03,1.53-.19-.5-.58-2.02-.58-2.02,0,0,.94.31,1.59.87.62.59.3.26.56.46.2.18.2.28.47.87.37.91,1.01,2.12,1.01,2.12,0,0-.05,0-.46-1.28-.37-1.27-.24-1.71-.24-1.71,0,0,.51-.46.78-.39.23.08,1.02.32,1.25.71.26.37.85,1.98.85,1.98,0,0,.06,0,.18-.64.16-.64-.37-1.6-.37-1.99s.75-.39,1.64-.14c.91.25,2.37-.13,2.37-.13,0,0,.57-.7,1.51-.37.96.3,1.14.3,2.16.3s3.11,0,4.39.57c1.28.56,1.98.87,2.17,1.19.16.32.56,1.75.56,1.75l.2,1.27s.01-.62.5-.81c.52-.18.84.5.84.5,0,0-.44.37.1.65.51.43.72,2.58.72,4.14s.26,2.29.26,2.29c0,0,.13-2.58.13-3.26s-.84-2.83-.25-3.32c.54-.5.77.28.77.28,0,0,.57,1.62.92,2.15.37.53.7.7.7.7,0,0-1.38-1.61-1.07-2.57.3-.96.85-.67,1.16-.3.32.36-.09.19.52.59.65.37.67.2.86.5.16.32.75.64,1.02.23.26-.42.36,1.2.36,1.2,0,0-.15-.93.22-1.32.39-.38.81-.18,1.17.12.36.26.6.37.74.74.15.37.43.43.43.95s.43.79.69,1.45c.27.61.63,1.32.63,1.32,0,0-.05-1.3-.59-1.8-.52-.53-.64-.62-.46-1.23.17-.65.48-1.34.83-.86.38.47.61,1.27.61,1.27l.19-.58.65.28.43,1.27-.06-1.44s.71-1.26,1.07-.38c.36.9.41,1.28.84,1.45.42.16,1.08,1.01,1.23,1.28.16.25.21.68.8.84.6.15,1.89,2.83,1.89,2.83,0,0,0-.66-.27-1.08-.25-.42-.73-1.01-1.02-1.6-.26-.6.22-1.57.22-1.57,0,0,1.1.36,1.1.61.87.71.47,1.03,1.02,1.09.53.04.72.63.72.63l-.14,1.97s.23-2.23.68-2.23c.49,0,.34.1.7.26.37.15,1.11-.09,1.35.37.3.48.24,1.46.27,1.86l.34,3.29s-.42-2.81.24-3.29c.72-.48,1.35-.16,1.38.52.06.68-.38,1.07.35,1.02q.68-.05.85.27c.17.31,1.12,1.63,1.12,1.63l-1.24,4.69s.85-4.14,1.44-4.01c.95.23.23.75.77.75.54.26,1.32,3.44,2.17,4.78.86,1.33,1.23,1.5,1.23,1.5,0,0-1.45-1.86-1.77-3.43-.29-1.52-.68-2.28-.51-2.55.16-.24.21-.41.72-.09.54.34.34.3.8.44.48.08,1.36-.28,1.89.31.51.58.74.73,1.38.84.63.13,1.29.61,1.78.96.49.37,2.03,1.85,2.03,1.85l-1.48-2.18s1.73-.26,2.37.32c.63.58,4.79,5.87,4.79,5.87,0,0-1.96-2.95-2.36-3.74-.37-.8,3.79-.36,5.19-.27,1.37.13,2.74.94,3.44,1.42l3.36,2.4-1.13-2.03,1.72.23s.63,2.28,1.27,2.92c.65.62,1.02.76,1.02.76,0,0-.9-1.08-1.26-1.82-.4-.74-.13-1.64-.13-1.64,0,0,3.13.42,3.7.31.6-.1,1.17.05,1.17.05l.98,1.7-.42-2.13,4.61.27,2.04,2.98-1.48-3.12,7.04.51,4.83,2.61s-4.26-2.68-2.62-2.73c1.66-.03,6.11-.39,7.43.18,1.33.6,1.51.64,1.51.64l-.28-.85s3.25-.1,4.04-.16l1.49-.12-.36-1.16,2.92-.28.2-2.28s.06-.68.59-.68l1.02-1.38,1.14-.05.18-.8s.17-.22.71-.37c.52-.17.76-.9,1.1-.82.31.13,1.1-.15,1.1-.15,0,0-.48-.31-.53-.63-.03-.32-.21-1.22-.03-1.64.15-.44.14-.81-.28-1.12-.41-.3-.91-.68-.95-1.11l-.8-.48s-.25-.53-.82-.6c-.51-.05-1.99-.23-2.89-.23s-1.64-1.09-1.7-1.34c-.06-.28.47-1.38.47-1.38,0,0,1.1-.42,1.27-.17.17.25,1.5.53,1.75.25.28-.25.88-.98,1.18-1.04.3-.08.3-.39-.13-.74-.4-.38-1.11-.38-1.14-.81-.05-.43.08-.75-.39-.64-.68-.67-.93-1.07-1.23-.53-.25.53-.44.6-.67.86-.27.27-.77.21-.77-.12-.47.32-.69.43-1.03.6-.28.16-1.29-.44-1.52,0-.23.43-.17.69-.12.9.06.2-.16.96-.16.96l-1.64-.43s.49-.94.79-1.33c.35-.38.5-1.03.5-1.03l-1.39,1.82-1.22.09-.13-.81-.29,1.68-1.17-.22s-.64-.65-1.02-.65-.79.17-.79.17c0,0-.76-.02-.92-.26-.48-.26-2.06.2-2.56.2s-1.05-.1-1.11-.46c-.06-.38.87-1.29,1.18-1.45.34-.17,2.64-1.11,3.71-1.14,1.08-.09,2.32-.83,3.46-1,1.18-.14,2.39-.62,3.25-.72.86-.13.73-.21.73-.21l.9-.53s-2.18-.12-2.44.16c-.26.27-1.36.81-2.64,1.01-1.3.22-4.39,1.01-5.12,1.37-.72.4-3.03,1.23-3.53,2.34-.54,1.11-1.55.35-1.98.35s-.96.29-.96.29l-1.53.17s.14-.9,1.53-1.75c1.39-.86,4.58-2.29,4.58-2.29,0,0-2.65.71-3.79,1.5-1.1.8-1.71,1.5-2.49,1.88-.79.36-1.15.57-1.69.67-.53.12-.61-.06-.8.27-.22.32-.74.86-1.06.26-.32-.6-.96-.78-1.66-.73-.7.03-1.44.67-2.61.73-1.15.06-3.13.09-3.32.16-.24.05-.37.46-1.1.46s-1.05-.08-1.85-.08-2.86-.05-3.17-.32c-.31-.26-2.68-1.14-3.07-1.91-.39-.75-.39-1.27-.39-1.27,0,0-.37-.31-1.02-.14-.63.19-.86-.45-1.27-.45-.95-.84-1.14-1.03-1.68-.68-.48.3-1,.6-1.85.25-.81-.41-.81-.9-.81-.9l1.22-.67c-.47.24,1.19-.66,1.45-.73.59-.17.72-.39,1.08-.64.4-.25.85-.66,1.56-.9.7-.25,2.1-.57,1.84-.57s-3.01.81-3.01.81c0,0-2.29,1.33-3.33,1.99-1.01.63-1.44.58-2.07.58s-1.22-.37-1.22-.37c0,0,.63-1.17,1.22-1.36.57-.18,1.46-.43,2.42-.84.95-.37,2.04-.74,2.04-.74,0,0-1.55.25-2.13.44l-2.87,1.03s-.99.96-1.19,1.27c-.2.34-1.22.21-.69-.5.49-.69.38-.83.38-.83l-1.47.64c-.71.32-1.41-.25-1.47-.5l4.61-2.68-2.51.63s-2.48,1.63-3.32,1.92c-.37.13-1.26.25-1.51.3-.25.06-.52-.9.13-1.08.65-.19,2.22-1.14,2.22-1.14,0,0-.69-.12-1.78.64-1.09.78-1.83.56-2.24.56-.18,0-.23-.84-.35-.59-.14.25.04-.62.22-.81.41-.31,1.85-1.79,1.85-1.79,0,0-.7.21-1.45.85-.79.63-1.02,2.03-1.02,2.03,0,0-.52.13-.52-.7s-.13-1.33-.13-1.33l-.84,1.2s-2.62.26-1.96-.69c.61-.96,2.71-2.36,2.71-2.36,0,0-2.02,1-2.78,1.63-.8.65-1.42.25-1.23,0,.19-.24,1.59-1.06,1.59-1.06,0,0-1.68.63-2.37.63s-2.37.06-2.37.06c0,0,.53-.75-.25-.69-.76.05-.94-.25-.62-.32.31-.06,1.77-.84,2.48-1.28.69-.46,1.72-1.66,1.72-1.66,0,0-.89.65-1.72,1.19-.85.59-2.92,1.49-3.17,1.61-.27.13-1.57-.71-1.24-.83.31-.14,1.67-.89,1.67-.89,0,0-1.78.57-2.24.57-.43,0-1.02,0-1.52-.26-.52-.25-.34-.3-.89-.37-.57-.06-1.08-.34-1.08-.34,0,0,.95-1,1.32-1.26l8.74-6.45s-3.89,2.61-4.97,3.06c-1.08.45-1.27.17-1.67.64-.37.44-.74,1.02-1.02,1.28-.25.24-1.15,1.61-2.12,1.97-.95.39-1.71.89-1.71.89l-.39-1.33c-.57,0-2.16-.05-2.1-.63.05-.6.91-1.81,1.73-2.05.84-.25,5.16-1.09,5.16-1.09,0,0-1.09-.06-1.92,0-.84.07-3.03.46-3.51.78-.51.31-1.85,1.9-1.85,1.9,0,0-2.03.31-1.85-.75.18-1.08.08-1.63.08-1.63,0,0-1.74,1.32-1.48,1.27.25-.06-2.03-.48-2.12-1.02-.04-.53,3.59-1.8,3.59-1.8,0,0-2.7.3-3.84,1.08-.81.53-1.38-.54-1.38-.54,0,0-.05-.72,1.96-1.55l4.53-1.85s-4.23,1.34-5.1,1.73c-.9.41-2.04,1.92-2.04,1.92,0,0-.78-.21-1.14-.21s-1.37-.81-1.37-.81c0,0,.54-.71,2.46-1.29,1.92-.58,4.4-2.17,4.4-2.17,0,0-3.51,1.68-5.36,1.99-1.82.31-2.33.31-3.12.31-.74,0-1.1-.31-1.1-.31l-.04-1.4s1.41-1,3.11-1.86c1.69-.84,3.67-1.52,3.67-1.52,0,0-2.82.71-4.48,1.58-1.66.9-2.25,2.04-3.01,1.98-.75-.05-1.06-.82-1.14-1.41-.07-.57.47-.88,1.28-1.38.83-.52,7.14-3.12,7.14-3.12,0,0-5.03,1.74-6.53,2.48-1.42.78-1.85,1.52-2.67,1.67-.82.12-1.04.06-1.06-.46-.06-.5-1.28-1.03-2.12-1.39-.83-.38-1.08-.6-1.79-.66-.7-.05-.81-.05-.94-.43-.97-.44-1.24-.67-1.28-1.02-.07-.3-.78-.37-1.03-.37s-1.68-.72-1.63-1.34c.04-1.42,0-.96-.66-.25-.64.68-1.28-.2-1.88-.14-.53.07-.92.24-1.06-.4-.12-.64.18-1.06.18-1.06l2.25-.21s-.34-.31-1.23-.25c-.88.07-1.9.57-2.3.57-.48-.57.06-1.14,1.68-1.79,1.61-.62,2-.69,2-.69,0,0-2.25.82-3.73,1.15-1.46.31-3.31.12-3.7.06-.37-.06.21-1.54.21-1.54,0,0,.76-.43,2.28-.87,1.51-.46,1.73-.46,1.73-.46,0,0-2.81.46-3.12.46-.35,0-.71.9-1.6,1.33-.91.42-1.79-.95-1.79-.95,0,0,1.42-.57,2.23-.65.82-.06,1.16-.19,1.16-.19,0,0-2.62.27-3.62.52-1.03.24-1.15.13-1.68-.27-.52-.38-.59-.38-1.03-.38s-.64-.19-1.02-.71c-.37-.51-.76-.81-.76-.81l2.08-.24,1.19-.15s-1.2-.27-1.61-.21c-.38.08-2.42.97-2.69.97-.49-.84-.49-.81-.93-.89-.45-.08-.65-.78-.15-.9.53-.14,1.42-1.03,1.92-1.03s-.84-.09-1.83.4c-1.02.49-3.53-.13-3.53-.13,0,0-.08-.96.85-1.09l2.23-.3-2.67-.15s-.23.64-.6.83c-.37.18-.3-.96-.3-.96l-.47,1.31s-1.33-.1-1.58-.17c-.23-.05-.59-.37-.59-.64,0-.22-.28-.62.59-.56.91.05,1.72-.44,1.72-.44,0,0-2.47.06-3.24,0-.75-.06-2.69-.13-2.69-.13l-.24-.64s.23-.6,1.08-.71c.12-.02,1.18-.49.73-.37-.42.13,2.01-.4,2.01-.4,0,0-1.53-.2-2.17,0-.64.19-1.41,1.09-1.91,1.09s-1.01-.51-1.01-.51c0,0-.1-.83.42-1.59.5-.75,3.25-2.38,3.25-2.38,0,0-2.66,1.34-3.65,1.69-.94.3-2.03.37-2.47.05-.45-.3-.51-.05-.61-.59-.15-.5-.21-.62-.21-.62,0,0-.7.12-.96-.32-.24-.45-.18-.52-1.01-.64-.85-.14-1.49.12-1.55-.57-.06-.7-.37-.76-.13-.89.27-.17,6.07-.53,6.07-.53,0,0-6.07-.17-6.68-.17-.65,0-1.8-.26-1.8-.26,0,0-2.29-.44-2.83-.95-.47-.5-.37-.69-1.1-.78-.79-.06-.72-.57-.79-1.02-.05-.45,3.89-.34,3.89-.34l-3.1-.23c-.79-.07-1.55.05-1.95-.07-.38-.13.05-.69-.63-.69s-1.64.13-1.84-.45c-.19-.58-.13-1.08.76-1.51.9-.46,2.04-.53,2.93-.21l3.01,1.02s-1.6-.96-2.57-1.27c-.92-.31-2.05-.38-3.57.13-1.53.49-.95,1.27-1.92,1.27s-1.08-.3-1.96,0c-.91.31-1.71.19-1.79-.19-.08-.41-.02-.46-.7-.31-.71.14-.56.14-.88-.43-.31-.6-.05-.87-.88-.6-.85.26-2.58.39-2.95-.12-.39-.52-.51-.46-1.16-.46s-1.7-.43-2.92-.43-1.2.18-1.77-.08c-.58-.22-.34-.45-1.48-.32-1.13.14-1.79.1-1.79.1,0,0,.01-1.36,1.03-1.94,1.02-.58,2.1-1.08,3.95-1.27,1.84-.19,3.31,0,4.24.18l1.63.34s-2.12-.91-3.57-1.05c-1.49-.12-2.3-.3-3.7.16-1.41.44-2.81,1.25-3.71,2.1-.88.83-.75,1.49-.75,1.49h-2.36l1.01-1.81-1.51,1.35-2.11.76s.19-1.34,1.01-1.92c.84-.57.84-.51.84-.51,0,0-1.79.96-2.23,1.9-.44.96-.64-.06-1.59-.06s-1.03.19-1.29-.3c-.24-.5.02-.5-1.19-.5s-2.11.57-2.57.81c-.45.29-1.22.32-1.82.06-.67-.23-.61-.57-.67-.12-.05.44-2.02,1.08-2.41.57-.38-.51-.46-.64-.6-.04-.13.56-1.01.56-1.44.56-.48,0-.47-.06-.85.26-.38.31-1.03.82-1.03.44v-.64s-.12-.13-.62.4c-.52.5-1.03.81-.96.12.07-.7,0-.43,0-.43l-.87-.02s-4.7-3.57-4.06-3.12l-2.07-1.48s.88.97,1.26,1.23c.4.27,4.72,3.65,4.72,3.65l-.27.78-1.44-.09-.26.78-1.57-.25s-1.1.25-1.18.57c-.56.59-1.14.06-1.32-.38-.19-.46-6.01-2.49-6.01-2.49,0,0,1.18.7,2.19,1.16,1.02.44,3.25.81,3.5,1.58.26.76-.38.5-.68.88-.35.39-.8.52-1.15.52-.4,0-.4.14-.71.25-.31.13-.52-.39-.82,0-.32.38-.19.56-.79.76-.56.2-.83.46-.83.2s.13-1.08-.19-.64c-.3.44-.68.9-.96.94-.95.9-.8,1.09-1.38,1.34-.58.28-.31.06-.79.4-.44.29-.57.29-.75,0-.52.93-1.07.93-1.32.93s-.47.2-1.02.53c-.6.31-1.36,1.14-1.36.43,0-.67-.13-.83-.13-.83,0,0-.38.19-.31.95.06.76.39.79-.24.71-.64-.06-1.17.19-1.17.59,0,.38-.57.68-.86.3-.35-.38-.41.26-.66.58-.27.3-.46.89-.9.59-.45-.35-.82-.2-.88.19-.05.37-.46-.39-.84-.47-.4-.06-.46-.19-.65.34-.17.5-.41,1.47-.41,1.47l-1.37-.14-.14,1.15-.67.38-.64-.71-.19,2.06-.79-.96-.12-1.01.9-1.35s.95-.32,1.2-.32.76-1.84.76-1.84c0,0,.57,0,1.39-.45.83-.44,1.13-.57,1.13-.57,0,0,.16-.95.66-1.14.51-.18.24-.9.24-.9l1.02.19.32-1.14.9-.71.64-.68,1.34-.4.13-1.27,1.55-.65-.09-.74s.83-.84,1.54-.96c.72-.13.76-.2.76-.2l.32-1.91s1.34-.39,1.61-.34c.24.07,0-1.01,0-1.01h.94v-.89l1.08-.07.1-1.39.6-.83,1.52.38-.24-1.27.64-.06.68-.96.6-1.38.67.12-.05-1.22h1.33v-1.45s.76-.53,1.61-.96c.8-.46,1.6-1.33,1.6-1.33,0,0,.09-1.16.81-1.24.7-.05.89-.31.89-.31l-.37-.96.79-.62s.69-1.16,1.46-1.35c.73-.19.66-.44.66-.44,0,0-.17-.78.07-.78.26,0,1.56-.19,1.56-.19l.24-1.45s.36.13,1.08-.46c.71-.57.65-1.23.84-1.71.18-.53.45-.65.83-.65.54-.06.12-1.08.75-1.19.65-.16.56-.28.56-.28l-.1-.71,1.08-.36.21-.66.9.19v-1.83s.52-.58.9-.63c.42-.06-.29-1.03.12-1.15.36-.13.66-.37.92-.57.24-.2.46-.21.51-.9.08-.71.26-.44.76-1.08.51-.64.66-.51.73-1.08.04-.59.24-.89.62-1.15l.84-.59c1.15-.69,1.72-.75,1.89-1.44.23-.81.37-.9.96-1.31.6-.37,1.08-.74,1.08-.74-.92-.65-.61-1.29-.61-1.58,0-.32.5-1.04.73-1.42.26-.37.61-.56.66-1.33.06-.75.58-1.09.96-1.35.38-.24,1.07-.18,1.07-.18l.21,1.22h1.38l-.32,1.2.72-.84s.68.38,1.02.79c.29.37.37.52.93.59.59.03,1.03-.22,1.11.37.05.56.25,1.15.62,1.09.4-.06.46-.53.77.06.32.56.27.83.85.68.57-.13.89-.5,1.06-.13.8,0,1.42-.45,1.61.19.19.65.43,1.6.49.96.06-.64,1.03-.82,1.6-.5.56.31.9.84,1.11,1.4.18.56.36,1.42.36,1.42,0,0-.91-2.06-.46-2.61.42-.52.91-.38,1.38-.03.47.31.97-.15,1.07.31.09.47.52,1.27.52,1.27l-.17-2.07s.85-.85,1.44-.53c.6.31,1.32.74,1.44,1.39.13.61.2,1.57.2,1.57l.86,2.02s-.5-2.44-.63-3.65c-.13-1.23.52-1.18.89-1.18.39,0,.6.54.9.54.36,0,1.24-.32,1.61-.05.37.25,0,.38.92.38s2.13.2,2.36.2c.13,0,.76,1.93,1.03,3.42.31,1.73.3,3.06.3,3.06l-.26-6.16s1.8.39,2.17.59l1.34.74,1.38,5.48s-1.53-5.3-.91-5.63c.66-.32,1.92.07,2.24.58.3.46.3.43.72.52.45.1,1.12.58,1.12.58,0,0,.34,1.86,1.22,3.95.9,2.06,1.35,2.38,1.35,2.38,0,0-1.42-3.36-1.64-4.58-.21-1.2.27-1.69.57-1.52.35.17.97.73,1.5.84.53.12.31-.19.66.32.29.51.51.82.77.75.28-.08.75-.4.82-.12.03.26.03.73.03.73l.81,2.93-.42-2.99c-.12-.68.79-.65.93-.18.16.49.7.88.7.88,0,0,.73-.12,1.02.26.25.37.3.46.67.6.39.1.86.04.98.52.08.46.36,1.16.36,1.16l.72,1.32s1.03-.29,1.38-.22c.38.12.49.5,1.3.65.8.17.86.23.86.23,0,0,0,1.27.21,1.42.22.15.64.59.64.96,0,.17.04,1.63,0,.9-.04-.75,0,.73,0,.73l.89,1.22s-.46-.95-.58-1.95c-.12-1.03-.02-2.2-.05-2.68l-.1-.84s.27.23,1.12.36c.82.18.93.18.93.18l.07-.73s.9-.05,1.33.5c.39.59,1.22.93,2.28,1.61l3.67,2.34-2.25-2.01c-.94-.86-.94-.65-1.22-1.17-.27-.53.94-.76.94-.76l2.04,2s-1.12-1.46-1.27-2c-.17-.5.37-.56.37-.56l3.93.05,1.75-.25s-.21-.72.21-.82c.43-.12,1.57-.51,1.86-.6.74-.19,2.96-.27,3.24,0,.27.25.59.38,1,.48.44.12.54-.23.9.28.36.45.64.9.64.9l.32-.85s.64.45.98.9c.29.42,1.06.15,1.06.15,0,0,.29,3.87.51,3.74.22-.18.48-1.82.48-1.82l.9,2.49-.35-1.71s-.53-.98-.92-2.12c-.39-1.12.96-1.76,1.32-.95.36.79.26.64.26.17s1.16-.25,1.24.05c.04.31.92,3.2.92,3.2,0,0-.76-2.46-.5-3.17.25-.66.89-.47,1.25.17.28.65.72.92.56.19-.18-.76,1.17-1.08,1.49.13.32,1.24,1.38,1.08,1.03.43-.39-.62,1.32-.2,1.32-.2l.26,1.38.25-1.31s1.28.24,2.15.93c.85.71,2.54,2.45,2.54,2.45l1.85,1.02s-1.11-1.17-1.53-1.38c-.43-.23-1.01-.81-1.12-1.12-.1-.31,0-1.12,0-1.12l1.12.42.6,1.38.05-1.15,1.38.84,2.07,1.8s-.87-1.49-1.41-1.91c-.52-.42-1.31-1.28-1.31-1.28,0,0,.69-.41,1.19-.04.56.36.76.47,1.36.52.57.06,1.8,2.98,1.8,2.98l-1.08-3.14s.96.05,1.68.64c.67.59.71.92,1.78.86,1.08-.05,1.81-1.05,2.23,0,.42,1.06,1.08,1.54,1.08,1.54l-.18-1.81s2,.84,2.24,1.02l1.85,1.05-.08-1.7,1.1-.32,1.37,2.66-.18-2.26s.9.25,1.34.67c.48.44.82,1.56.82,1.56l.04-1.61.88.65.36,2.33.2-1.97.84.28.18,2.81.3-2.28.8.85.08,2.18.3-1.39,1.5.71s-1.26-1.45-1.77-1.97c-.53-.54-.74-1.33-.74-1.33,0,0,1.44.06,1.57.43.19.36.78.85.78.85,0,0,.79-.32,1.15.81.4,1.1,2.6,4.03,2.6,4.03l-1.26-3.06.81-.17,5.2,3.05,1.02.48.09-.95,2.39,1.64-.12-2.18,2.17,1.55.12-1.08.76-.12v-1.58s1.27-.47,2.2-.52c.98-.05,1.38-1.44,1.38-1.44l1.51-1.5.8.12.1-.85s1.97-1.1,3.48-2.05c1.52-.92,1.99-.92,2.48-1.19.47-.24.54-.39.7-.69.16-.32.72-.27,1.7-.41.93-.17.79-.25,1.27-.88.47-.63.94-.8,1.74-.9.83-.06,1.99-.76,2.88-1.1.89-.3,1.27-.62,1.82-1.03.58-.4.89-.4,1.6-.8.73-.41.37-.41.95-.65.58-.23.4.35.88-.46.48-.8,0-.7.81-.97.78-.21.38-.21.78-1.03.4-.8.88-.64,1.36-1.41.47-.81.95-1.29,1.06-3.2.03-1.91.2-3.52,1.16-3.66.96-.18,3.35-.32,4.23-.41.88-.1.88-.17.88-.17,0,0-2.95-.15-4.28-.71-1.37-.56.62-.39.22-.81-.39-.41-1.76-1.17-2.55-1.66-.8-.48-.56-.41-1.45,0-.87.4-.87.79-2.16,1.11-1.26.31-2.14.14-2.14.14l1.59-1.58s-1.42,1.03-2.06,1.37c-.62.3-1.37-.41-1.37-.41l1.19-1.36s-.79.25-1.57,1.04c-.83.81-1.11.58-1.11.58l-.25-1.05s0,.65-.24,1.13c-.25.46-1.05.46-1.05.46l.5-1.28-1.06,1.28-.48-.73-.7,1.22-.72.23.47-1.17-1.32,1.42.63-4.79s-1.12,2.94-1.29,3.51c-.17.54-.31.96-.31.96l-1.19,1.5-.47-.95-.5,1.52s-2.46,1.59-2.94,1.98c-.47.4-1.5.71-1.5.71,0,0,.3-2.77,0-2.46-.35.3-.42,2.87-.42,2.87l-1.13.54-.02-1.91-.43,1.22s-.94.31-.94.62.07.56-.5,1.12c-.54.57-1.75,1.12-2.39,1.59-.65.49-1.19.74-1.19.74l-.07-2.49-.48,2.32s0,.95-.65,1.09c-.62.19-1.49.75-1.49.75,0,0-1.29.39-1.63.3-.28-.09-1.25-.64-1.17-1.19.08-.57.08-1.03.89-1.59.81-.56,1.44-1.12,1.44-1.12,0,0-2.71,1.05-3.68,1.76-.93.7-1.35.79-2.45.89-1.12.06-.83-.19-.83-.19l.97-1.27s-.68.8-1.36,1.05c-.62.22-.95-.09-.95-.09l3.27-2.55s-3.27,1.68-3.6,2.08c-.29.4-1.9.56-1.9.56,0,0-.71-1.27.07-1.75.79-.49,3.34-2.01,3.03-1.94-.3.08-3.1,1.61-3.74,1.94-.26.1.96,1.2-.31,1.91-.85.45-1.27-.16-1.27-.16l.21-1.99-.93,2.15v-1.83l-1.76,1.37s-1.18-.1-1.8.05c-.66.16-1.55.32-1.14,0l3.75-2.87-3.21,1.75s-.3,1.22-1.19,1.28c-.86.09-1.99-.78-1.99-.78l2.96-2.4s-2.72,1.9-3.51,2.4c-.79.46-1.53,0-1.53,0l1.37-1.61-2.01,1.36-1.19-.15,2.06-2.65s-1.89,2.17-2.44,2.55c-.58.41-.34.18-.74-.22-.38-.4-1.11-.08-1.51,0-.39.07-1.03-.08-1.82-.24-.81-.16-.57-.32-1.35-.41-.8-.07,1.91-2.4,1.91-2.4l3.43-3.08s-5.48,4.52-6.04,4.92c-.59.4-1.68.31-1.68.31l-2.57-1.03s1.05-2.29,2.18-2.4c1.11-.06,1.74-.54,1.74-.54,0,0,2.39-2.24,2.06-2.16-.32.06-3.52,1.44-4.2,2.05-.73.65-1.78,2.8-2.41,2.95-.65.16-.31-.71-.31-.71l1.18-1.34-1.82,1.84-2.13-.36s.13-.79,1.01-1.09c.89-.34,1.28-.4,1.28-.4,0,0-2.24.78-3.12,1.34-.88.56-2.93-.22-4.14-.32-1.17-.06-2.95-.31-2.95-.31,0,0,2.08-1.91,2.63-1.98.58-.07,1.23-.31,1.23-.31,0,0-.6-.28-1.52.2-.78.43-1.88,1.57-2.54,1.79-1.45.38-2.03-.24-2.03-.24,0,0,.49-.65,1.19-1.06.73-.38.32-.38-.29,0-.65.41-1.13.65-1.42.82-.35.15-.66-.54-1.29-.3-.64.24-1.36.14-2.08,0-.69-.17-.63-.51-.63-.51l3.58-1.49s-2.38.23-2.89.64c-.46.4,0,.79-1.48.95-1.54.17-3.6-.17-4.24-.17s-.31-1.68-.31-1.68l-.8,1.36s-1.81.23-2.06-.24c-.27-.48-.35-.54-.81-.54-.49,0-.72-.41-1.28-.83-.53-.4-1.03-.4-.61-.53.38-.18,1.09-1.35,1.09-1.35,0,0-1.09.87-1.68,1.04-.54.14-1.33-1.11-2.14-1.29-.83-.16-1.99-.95-2.73-.95s-1.41-.09-1.41-.09c0,0,.31-.93,0-.93l-2.32.07s.48-.48-.46-.73c-.98-.22-1.22.25-1.44-.37-.24-.65-.24-.82-1.13-.72-.86.07-.64.62-1.03.31-.42-.31-.42-.72-1.07-.72s-.83-.4-.83-.4l.83-.65,3.28-.15s-1.11-.32-2.04-.42l-1.24-.05s-.79.94-1.4.94c-.65,0-.71-.23-.71-.23,0,0-.57-.3-1.13-.3s-.96-.49-.64-.66c.31-.15,1.41-1.34,1.41-1.34l1.14-.35s-1.74-.07-2.41.49c-.63.54-.08,1.19-.79,1.29-.73.07-.63-.24-1.14-.35l-1.08-.16c-.97-.06-2.33-.39-1.93-.56.4-.15,4.85-3.43,5.75-3.33l.87.07s-2.95.16-4.06.96c-1.12.79-2.95,2.46-2.95,2.46l-1.17-.07-1.39-.57-.14-.81-2.08.08-.2-.72-2.73-.06-.46-1.19-1.37-.16-2.17-1.06,4.64-1.57s-2.96.56-4.22,1.04c-1.3.47-1.54.8-2.23.34-.71-.5-.57-1.37-.57-1.37l3.51-2.24s-3.1,1.77-4.05,2.15c-.97.4-1.77.4-1.38-.23.41-.64,1.28-1.35,1.28-1.35,0,0-.87.71-1.74.87-.89.16-2.15-.63-1.27-1.26.87-.65,1.34-1.04,1.96-1.69.66-.64,1.3-1.35,1.3-1.35,0,0-1.35,1.67-3.59,2.3-2.22.65-3.02-.57-3.02-.57,0,0,2.14-1.82,3.35-1.9-1.41.26-2.98,1.06-3.75,1.64-1.36,1.07-1.03.1-.87-.45.14-.57.14-.82-.32-.16-.46.61-1.22.24-1.52.16-.31-.08-3.2.39-3.98-.41-.8-.79-1.27-1.27-3.34-1.27s-2.58.25-3.28.48c-.21.07-.8.92-.93.81-.88-.86-1.57-1.27-2.8-1.14-1.45.17-2.61,0-3.51.34-1.27.48-1.52.48-2.58.3-.63-.06-3.16.63-3.82.97-.63.3-.37,1.18-1.32,1.18s-.65-.57-1.44-.07c-.83.48.06.63-1.37,1.29-.47.2-1.03-.13-1.35,0-.69.23-.9.78-.9.78l-1.91.65s-1.03,1.19-1.99.71c-.95-.48-1.25-1.03-2.7.71-1.44,1.75-4.21,2.88-4.85,3.35-.64.47-1.27,1.11-1.91,1.59-.65.46-.94,1.11-1.92,1.58-.98.5-1.68-.47-1.61.81.05.98-1.57,1.44-1.57,1.44,0,0-.73.96-1.06.63-.54-.53-1.09-.63-.87.41.17.79,0,.39-.63,1.03-.64.64-.96-.72-.79.24.15.96-1.6,1.04-1.6,1.04,0,0,.47-2.14.73-5.33.22-3.2.37-3.67.54-4.45.15-.81-.49-.58-.49-1.27,0-.75-.15-.82,0-1.29.17-.48.31-.4.09-.88-.24-.48-.41-.96-.41-1.68s-.24-1.69-.53-3.02c-.36-1.36-1.7-3.98-1.94-4.87-.23-.88-.3-.31-.47-1.44-.05-.28.2-1.39-.13-.84-.31.56-.28-1.56-.28-1.56,0,0,.41,1.92-.3,2.1-.73.16-1.29-1.69-1.19-2.41.07-.71.23-.39-.23-.8-.48-.4-.89-2.4-1.12-3.01-.26-.66-2.65-5.82-3.18-6.62-.58-.8-1.61-2.81-1.61-2.81,0,0,1.12,2.08,1.12,2.4,0,.34.62,1.59,1.2,3.12.56,1.5,1.19,1.57.23,1.57s-1.36-.23-1.12-.86c.24-.65.3-.97.3-.97,0,0-.13.65-1.02.48-.88-.16-1.2.34-1.12-.7.08-1.05.24-1.36.24-1.36,0,0-.94.24-1.29.24-.27,0-.64-1.52-.94-2.07-.31-.56-.63-1.02-1.19-1.19-.54-.18-.24-.95-.15-1.51-.08.47-.03.62,0,.62.02-.01-.04-.56-1.22-.62-.97-.08-1.2.24-1.49.24-.36,0-1.53-1.05-1.05-1.36q-1.05.1-1.34-.31c-.32-.39,0-.39-.66-.58-.63-.15-.34-1.26,0-1.4.34-.18.79-.5.79-.5,0,0-.79.1-1.35.1s-.06-.57-.64-.57c-.54,0-1.27-.07-1.27-.07l-.48-1.22-1.67.07v-.86l-1.19-.09s-.87-.06-.87-.62-.34-.81-.34-.81h-1.2s-.62-.22-1.11-.87c-.46-.63-.95-1.05-.54-1.12.38-.08,2.16-.16,2.16-.16,0,0-.95-.25-2.22-.4-1.3-.16-3.06-.16-3.06-.16l-.2-1.59-1.71.63-.32-.63-1.57-.15s-.48.15-.72-.41c-.23-.56-1.19-1.46-1.77-2-.54-.53-.23-.89-.92-1.18-.74-.31-.57-.58-.57-.58,0,0-.18.26-.95.4-.84.18-1.03.24-1.46-.14-.41-.41-1.53-.5-1.53-.5,0-.39-.93-.57-1.71-.47-.82.08-1.44.23-1.84.16-.42-.25-.59-.87-1.46-.79-.87.06-1.34.86-1.4.53l-.18-.69s-1.85.16-2.46,0c-.66-.17-1.53-.5-2.18-.41-.63.08-.79.08-1.5-.24-.71-.31-.79-.38-1.91-.31-1.11.08-2.14-.17-2.14-.17l2.06-2.46,2.04-2.46s-3.26,3.17-3.79,3.91c-.59.71-1.13,1.27-1.13,1.27,0,0-.07-.8-1.53-.8s-4.44-.24-4.44-.24l4.78-6.62-5.19,6.55s-1.66.15-2.39.45c-.71.35-1.13.74-1.42.89-.34.15-.39-.31-1.2-.08-.35.13,2.94-3,2.24-2.37l4.08-3.68s-3.92,3.02-4.87,3.8c-.97.83-1.27,1.7-2.16,2.24-.9.57-2.88.89-4.21,1.13l-1.39.23s4.47-3.81,6.38-5.18c1.93-1.36,3.53-2.16,3.53-2.16,0,0-2.88.96-3.66,1.6-.42.32-2.22,2-3.5,3.01-1.18.92-1.93,1.89-2.16,2.1-.6.4-1.52,1.5-1.52,1.5,0,0-.81-.48-1.12-.56-.97.82-.97,1.28-1.68,1.19-.73-.06-.56-.24-.95.18-.42.41-.86.79-1.77,1.02-.88.25-2.85,1.04-3.67,1.04s-1.51,0-2.05.58c-.56.53-1.28.47-2.35.62-1.03.17-1.56.1-2.19.57-.64.48-.34.57-1.05.63-.73.08-.41.08-1.2.57-.8.48-.96.71-1.44.39-.46-.3-.85-.71-.77,0,.04.73-.42.66-.82.41-.42-.23-.48-.64-.56.17-.06.79-.15,1.67-.94,1.82-.81.15-.9.73-1.59,1.05-.75.31-1.83.54-1.83.54,0,0-.42-.79.23-1.45.64-.61,1.6-1.5,1.6-1.5,0,0-1.78,1.03-2.41,2.08-.63,1.03-2.92,3.57-4.07,4.3-1.12.71-.61.62-1.57,1.12-.95.46-.65.7-1.52,1.66-.89.95-.63.23-1.04-.14-.39-.41-.64-.24-.87.14-.26.41-.96.64-.4.83.56.13,1.17-.42.93.13-.22.54-.53,1.2-.93,1.99-.41.82-.24,1.37-.97,1.84-.73.48-.62,0-.79.79-.18.81-.47,1.76-.96,2.65-.47.86-.76.98-1.16,1.83-.42.87-.42.97-.73,1.5-.34.54-.54,1.38-.65,2.44-.1,1.05,0,1.93-.52,2.98-.53,1.06-1.71,4.04-2.66,6.48-.54,1.35-.68,1.58-.79,1.88-.05.18-.1.41-.29,1.2-.43,1.81-.84,2.15-1.04,2.85-.22.76-.22,1.73-.22,2.25s.12,1.58.42,2.85c.31,1.28.64,2.34.64,3.09s.24,2.02.51,3.31c.35,1.26.03,2.22.46,2.76.41.53.52,1.57.61,2.42.12.88-.01.32.44,1.28.42.96.73.53.42,1.1-.32.51-.74.82-.74.82,0,0,.96.12,1.06.74.13.65-.29,1.07-.22,1.8.13.74-.09,1.07-.09,1.07h-.94s-.12.84.52.95c.64.1.73.2.73.2l-.31.87s-1.57.64-.86.64,1.61.42,1.61.42c0,0,.4.86.21,1.71-.21.84-.45,1.16-.45,1.16l1.29.97-.42,1.37,1.29.52s1.48.85.63,1.5c-.86.62-1.5.3-1.5.3l1.18,1.07-.75,1.91,1.71.22v.96l.85.72-.43,1.91.85.23v2.76s-1.27.12-1.91-.21c-.63-.32-.21-.74-.86-1.28-.64-.53-2.86-2.66-3.08-3.61-.22-.93-.22-1.15-.22-1.15l-.61-.97s-2.26-2.45-2.26-3.38.23-1.49.23-1.49l-1.08.84s-.62-.09-.62-1.07v-1.04l-.65.52.43-2.14-.63.95s-.66,0-.43-.95l.22-.94-1.07.31-.22-1.59-.62-1.29-.76-.19.22-1.83-1.07.45s0-.76-.12-1.3c-.12-.52-.62-.62-.5-1.48l.08-.94-1.04.07s-.57-.61-.64-1.78c-.14-1.18.07-2.03.07-2.03l-.94.31-.4-1.8.4-.83-.85-.44-.12-1.29.86-.51-1.26-.3s-.44-1.93,0-2.24l.7-.54s-.84.78-1.57.24c-.72-.56-.22-.76-.42-1.57-.24-.89,0-1.31,0-1.31l.85-.32s-1.51.22-1.51-.3-.07-1.71-.07-1.71c0,0-.57-1.27-.46-2.13.13-.85-.3-.96-.3-.96v-2.34l-.76-1.47-.07-1.39.62-.42s-.85-.12-.96-.75c-.07-.63.12-1.28-.19-2.13-.31-.86-.53-1.39-.1-2.23l.51-1.06-1.29-.97s.23-1.57.23-3.16,0-2.78-.23-3.3c-.2-.53-.62-2.22-.19-3.07.42-.87.53-1.83.53-1.83,0,0-.64-.7-.64-1.14.02-.43-.52-.96-.09-2.24.32-1.03.51-.53.2-1.7-.31-1.14-.63-2.02-.74-3.08-.1-1.06-.52-2.88-.52-4.46s-.01-1.39-.45-2.23c-.39-.85-.96-4.37-1.46-6.68-.54-2.34-2.15-5.14-2.68-5.75-.5-.62-1.26-.12-1.57-.74-.32-.64-.95-4.66-2.24-6.59-1.29-1.91-1.71-1.68-2.77-3.38-1.06-1.68-1.8-3.28-1.8-3.28,0,0-.3-.35-1.06-.45-.76-.08-.93-.51-.85-1.05s-.75-2.99-.75-2.99c0,0,.84,1.93,0,2.23-.85.31-2.34-.43-3-.86l-.62-.41.24-1.71-.78,1.49-1.1-.31.26-2.07s-.34,1.76-.78,1.9c-.5.18-.8-.38-.8-.38l.29-1.76-1.27,1.61-.48-1.28-.38-1.23-.19,1.54s-.72.07-.72.46.09.65-.39.81c-.47.16-.88.22-.94-.08-.08-.32.85-1.11.7-2.55-.16-1.44-1.19-3.1-1.19-3.1,0,0,.17,1.04.41,1.97.23.95.48,1.31.15,2.01-.32.7-.63,1.59-.63,1.59,0,0-.17-3.28-.31-4.15-.16-.86-.65-1.91-.54-1.51.04.4.63,3.73.63,4.44s.14,1.07-.17,1.37c-.31.3-.82.3-.82.3l-1.64-4.31s1.26,3.59,1.26,4.22-.95.35-1.26.26c-.35-.08-.72-.32-.72-.79,0-.5-.18-1.93-.18-1.93l-.54,1.6-1.1-.74-.18-10.04-.31,9.97-1.68-3.66s1.51,2.86,1.13,3.34c-.4.48-1.6.56-1.78.07-.16-.48-.23-2.46-.23-2.46,0,0,.31,1.75-.31,1.98-.63.24-.88.41-1.44.16-.54-.23-.82-.45-1.76-.16-.96.31-1.28.07-1.28.07l-1.12-3.26c-.38-.39.66,2.16.71,2.95.1.81-.8.87-1.16.64-.41-.25-.41-.34-.48-.7-.1-.42-1.05-2.3-1.05-2.3l.71,2.84-1.19-.31-2.95-5.81,2.3,5.59v.93s-1.49.32-1.9.15c-.41-.15-.96-.38-1.34-.79-.41-.39-.58-.71-.58-.71v1.44l-1.52-.08-3.27-4.84s2.42,3.81,2.47,4.44c.08.65-1.18.95-1.66.65-.48-.31-3.21-4.79-3.21-4.79,0,0,3.04,4.47,2.64,4.86-.42.39-1.85.15-1.85.15l-1.81-2.29,1.19,2.54-1.04-.08-2.7-2.78s2.55,2.47,2.17,3.04c-.42.54-.35.47-.89.15-.59-.32-.88-.63-.83-.08.08.57-.61.72-1.02.32-.39-.39-.23-.6.08-.95.65-.72.39-.65-.27-.56-.62.07-1-2.07-.68-2.15.32-.1.62-1.26-.14-1.26s-.89-.25-.89.4-.14.74-.36,1.5c-.25.75.24,1.26-.9,1.38-1.13.13-1.25.14-1.51-1.38-.23-1.5.52-4.63-.22-4.15"/>
  </g>
</svg>