<?xml version="1.0" encoding="UTF-8"?>
<svg id="Layer_2" data-name="Layer 2" xmlns="http://www.w3.org/2000/svg" viewBox="0 0 417.19 654.5">
  <defs>
    <style>
      .cls-1 {
        fill:#808080
      }
    </style>
  </defs>
  <g id="Layer_1-2" data-name="Layer 1">
    <path class="cls-1" d="m24.29,595.56c4.5-1.98,7.86-5.34,11.89-7.9,11.68-7.21,23.36-14.86,32.14-24.63,8.02-8.9,13.85-19.28,18.68-29.65,3.89-8.53,7.69-17.09,10.72-25.83,1.54-4.4,2.28-8.83,4.75-13.05,5.62-9.66,15.62-17.65,26.04-23.76,1.73-1.03,23.11-10.81,23.11-10.81-1.64-8.96.34-18.16-1.64-27.14-.65-3.13-4.06-9.88-.09-12.28-7.46,4.51-19.24,3-27.86,4.47-10.05,1.7-20.64,4.9-25.64,13.25-3.57,6.22-4.72,14.21-4.13,21.11.69,6.94,2.02,13.34-3.2,19.38-6.04,6.96-15.02,11.29-22.7,16.61-6.75,4.61-10.23,10.69-13.46,17.31-2.47,4.82-5.85,8.96-9.8,13.02-1.82,1.98-6.11,3.39-8.29.8-.83-.97,4-4.36,4.56-4.86,2.63-2.67,4.97-6.8,1.91-9.84-4.54-4.52-12.19,1.54-16.49-1.94,1.34-2.58,4.61-4.08,7.24-5.55,12.23-7,21.94-16.8,34.12-23.94,3.71-2.14,8.04-3.89,10.79-7.05,3.25-3.85,1.95-8.06,2.17-12.51.39-5.74,1.52-11.63,2.56-17.3,2.15-11.62,5.51-23.48,13.62-33.21,6.77-7.99,17.81-13.64,27.95-18.07,7.77-3.43,15.71-4.03,24.21-4.81.37,0-3.52-31.66-4.24-34.26-.94-4.38-2.79-9.28-6.24-12.81-3.82-3.92-9.52-5.78-13.73-9.28-8.2-6.71-5.76-18.43-17.35-22.92-3.55-1.29-13.76-.16-14.81-3.98-.65-2.35,3.39-4.73,3.39-7.24.07-4.19-3-8.71-5.09-12.4-1.94-3.36-2.84-9.03-6.5-11.32-3.68-2.35-15.96,4.36-15.07-2.88.27-3.13,3.09-2.97,6.04-2.97,2.79,0,5.14-.63,7.63-1.85,3.27-1.54,7-6.25,10.76-3.2,4.86,3.85,5.8,13.98,6.64,19.24.53,3.16.02,7,2.23,9.81,2.14,2.86,6.27,3.64,9.72,4.96,4.86,1.96,9.84,3.69,13.53,7.14,4.52,4.14,7.46,9.19,10.73,14.05,2.15,3.13,4.05,6.34,6.2,9.52,1.22,1.82,2.95,5.88,5.16,7.05.99.53,5.49-3.32,5.49-3.32.72-.76,7.79-8.43,7.65-8.57-11.06-9.26-15.14-21.68-18.11-34.29-2.28-10.3-3.2-20.88-.79-31.18.97-3.71,2.91-7.18,5.9-9.95,3-2.76,5.76-3.98,4.95-8.23-1.06-5.19-5.67-9.15-7.99-13.82-2.86-5.42-3.61-11.38-4.17-17.16-1.17-8.8-2.3-17.58-3.2-26.38-1.57-15.11-2.93-30.2-2.19-45.41.41-7.49,2.35-14.86,2.69-22.35.48-7.46-4.51-12.44-9.65-17.86-5.83-6.36-10-13.62-14.86-20.64-12.93-18.13-27.54-35.9-34.75-56.45-1.57-4.38-5.42-10.13-4.5-14.86.81-4.45,5.97-4.56,8.83-1.25,4.26,4.98,3.57,12.07,5.64,17.77,2.14,6.17,5.74,11.91,9.31,17.46,6.36,9.93,13.04,19.61,20.09,29.07,6.63,8.97,12.72,18.85,20.62,27.08,2.07,2.23,4.49,4.49,7.17,6.08.72.35,9.79,3.55,9.79,2.56.37-9.42,4.22-18.01,7.14-27.03,2.38-7.61,3.39-15.76,4.7-23.52,2.83-17.51,8.94-43.99,34.91-45.3,8.66-.44,4.21,6.57.53,9.36-6.17,4.58-8.99,18.87-5.11,24.98,1.54,2.42,4.77,4.12,5.83,6.77,1.29,3.07-.6,6.24-2.35,8.87-1.06,1.47-2.47,2.92-3.32,4.49-3.09,5.6-2.55,15.48.14,21.11,1.84,3.96,6.41,8.59,11.45,9.31,6.7,1.01,10-4.95,12.1-9.31,2.6-5.64,3.2-15.52.12-21.11-.88-1.57-2.35-3.02-3.34-4.49-1.73-2.63-3.67-5.8-2.33-8.87,1.01-2.65,4.21-4.35,5.76-6.77,3.96-6.11,1.04-20.41-5.05-24.98-3.78-2.79-8.09-9.81.64-9.36,25.85,1.31,32,27.79,34.82,45.3,1.26,7.76,2.44,15.9,4.74,23.52,2.83,9.03,6.77,17.62,7.05,27.03.09.99,9.15-2.21,9.82-2.56,2.74-1.59,5.11-3.85,7.19-6.08,7.9-8.23,13.99-18.11,20.62-27.08,6.96-9.45,13.76-19.13,20.09-29.07,3.64-5.55,7.12-11.29,9.36-17.46,1.94-5.7,1.29-12.79,5.49-17.77,2.91-3.31,7.99-3.2,8.87,1.25,1.03,4.74-2.86,10.48-4.45,14.86-7.21,20.55-21.87,38.32-34.67,56.45-4.91,7.01-9.03,14.28-15.03,20.64-5.14,5.42-10.04,10.41-9.63,17.86.44,7.49,2.3,14.86,2.67,22.35.85,15.21-.56,30.3-2.1,45.41-.9,8.8-2.07,17.58-3.07,26.38-.78,5.78-1.54,11.73-4.29,17.16-2.32,4.66-6.98,8.62-7.99,13.82-.65,4.26,1.91,5.48,4.89,8.23,3.09,2.78,4.95,6.24,5.85,9.95,2.46,10.3,1.57,20.88-.81,31.18-2.84,12.62-6.93,25.04-17.95,34.29-.19.14,6.8,7.81,7.58,8.57,0,0,4.45,3.85,5.51,3.32,2.17-1.17,3.89-5.23,5.18-7.05,2.07-3.18,4.05-6.39,6.15-9.52,3.29-4.86,6.24-9.91,10.78-14.05,3.73-3.45,8.66-5.18,13.61-7.14,3.37-1.32,7.46-2.1,9.73-4.96,2.1-2.81,1.66-6.64,2.17-9.81.76-5.26,1.71-15.39,6.57-19.24,3.82-3.06,7.56,1.66,10.78,3.2,2.42,1.22,4.72,1.85,7.56,1.85,3.04,0,5.83-.16,6.17,2.97.69,7.24-11.55.53-14.98,2.88-3.82,2.3-4.75,7.97-6.64,11.32-2.15,3.69-5.16,8.22-5.07,12.4,0,2.51,4.03,4.89,3.36,7.24-1.02,3.82-11.34,2.69-14.82,3.98-11.57,4.49-9.15,16.2-17.33,22.92-4.26,3.5-9.93,5.35-13.69,9.28-3.39,3.53-5.33,8.43-6.27,12.81-.73,2.6-4.54,34.26-4.3,34.26,8.59.78,16.49,1.38,24.26,4.81,10.09,4.43,21.22,10.09,27.91,18.07,8.13,9.73,11.54,21.59,13.68,33.21,1.15,5.67,2.16,11.56,2.6,17.3.25,4.45-1.18,8.66,2.17,12.51,2.74,3.16,7.07,4.91,10.74,7.05,12.19,7.14,21.87,16.94,34.12,23.94,2.7,1.47,5.95,2.97,7.16,5.55-4.1,3.48-11.98-2.58-16.4,1.94-3,3.04-.78,7.17,1.86,9.84.53.5,5.39,3.89,4.63,4.86-2.19,2.6-6.49,1.18-8.3-.8-3.96-4.06-7.33-8.2-9.77-13.02-3.23-6.62-6.75-12.7-13.48-17.31-7.76-5.32-16.64-9.65-22.72-16.61-5.18-6.04-3.92-12.44-3.2-19.38.57-6.91-.53-14.89-4.14-21.11-5.04-8.36-15.53-11.56-25.67-13.25-8.55-1.47-20.37.04-27.79-4.47,3.89,2.4.49,9.15-.16,12.28-1.91,8.98,0,18.18-1.63,27.18,0,0,21.43,9.75,23.29,10.78,10.27,6.11,20.21,14.1,25.92,23.76,2.54,4.22,3.22,8.66,4.66,13.05,3.04,8.75,7.01,17.3,10.85,25.83,4.66,10.37,10.62,20.74,18.59,29.65,8.89,9.77,20.55,17.42,32.21,24.63,3.94,2.56,7.42,5.92,11.84,7.9,5.16,2.35,24.4-1.7,24.26,6.23-.1,5.48-12.32,3.57-16.04,3.45-5.95-.16-4.66,2.15-7.14,5.99-1.38,2.28-4.86,10.9-9.35,7.7-4.89-3.57,5.46-10.09,2.93-12.69-4.56-4.73-8.78-9.19-14.44-12.99-8.15-5.55-15.88-11.46-23.69-17.38-6.24-4.7-13.85-8.62-19.17-14.17-12.97-13.5-9.56-33.52-20.32-48.2-9.12-12.4-26.82-14.63-41.93-18.68,1.41.37,1.54,16.45,1.63,18.27,1.78,25.76-1.15,53.18-11.34,77.63-2.63,6.61-6.29,13.04-10.49,19.05-6.36,8.9-17.58,18.59-18.92,29.35-.32,3.21,5.95,12.81.81,15.02-6.71,2.9-5.02-12.78-12.26-11.2-3.13.69-5.96,2.47-9.24,2.44-3.07-.12-5.58-1.75-8.39-2.44-7.28-1.61-5.65,14.12-12.37,11.2-5.09-2.21,1.2-11.8.8-15.02-1.38-10.76-12.4-20.44-18.92-29.35-4.17-6.01-7.81-12.44-10.48-19.05-10.18-24.46-13.09-51.88-11.31-77.63.09-1.82.41-17.9,1.63-18.27-15.16,4.05-32.77,6.27-41.89,18.68-10.78,14.68-7.28,34.7-20.28,48.2-5.42,5.55-13,9.47-19.28,14.17-7.79,5.92-15.48,11.84-23.59,17.38-5.71,3.8-9.88,8.25-14.58,12.99-2.51,2.6,7.93,9.12,3,12.69-4.42,3.2-7.95-5.43-9.35-7.7-2.47-3.83-1.18-6.15-7.07-5.99-3.94.12-16.11,2.03-16.15-3.45-.09-7.93,19.12-3.88,24.29-6.23h0Z"/>
  </g>
</svg>