<?xml version="1.0" encoding="UTF-8"?>
<svg id="Layer_2" data-name="Layer 2" xmlns="http://www.w3.org/2000/svg" viewBox="0 0 654.5 471.56">
  <defs>
    <style>
      .cls-1 {
        fill:#808080
      }
    </style>
  </defs>
  <g id="Layer_1-2" data-name="Layer 1">
    <path class="cls-1" d="m653.42,233.34c-2.12-5.88-6.85-11.16-15.96-16.65-.17-.74-.6-1.49-1.42-2.13-4.58-3.69-57.15-29.92-71.02-38.32-13.88-8.42-42.96-24.76-50.61-29.47-7.99-4.88-12.29-8.03-14.04-9.67-.36-.32-.76-.49-1.17-.6-.46-1.77-2.43-3.13-5.79-1.83-8.17,3.17-100.13,19.35-118.89,22.43-18.05,2.94-26.28,4.28-33.91,3.85-7.66-.43-10.01-3.95-14.25-5.39,8.08-2.85,14.92-6.27,23.39-8.03,9.01-1.91,29.04-6.72,41.53-12.39,15.73-7.13,29.87-17.04,35.24-20.74,5.46-3.79,9.12-5.96,9.54-8.72.31-1.97-.67-5.61-.67-5.61,0,0,3.35-2.55,2.53-6.29-.6-2.66-8.66-2.81-8.66-2.81,0,0-.43-2.15-4.21-2.37-3.78-.21-22.23,1.04-29.58,3.56-7.33,2.52-13.22,2.52-22.86,3.58-7,.74-14.69,4.61-24.97,6.5-11.62,2.1-23.06,4.2-31.26,5.44-3.22.5-7.75,1.42-12.54,2.36,5.87-26.14,20.41-79.06,22.29-85,.9.09,2.1.03,3.71-.11,3.63-.31,22.99-1.73,41.14-2.67,18.17-.96,73.07-7.02,77.07-8.09.67-.16,1.1-.41,1.46-.68,3.24.43,6.28-1.98,8.94-5.16,3.13-3.81,5.99-8.17,4.71-8.32-.58-.07-6.05,5.78-8.12,7.07-2.78,1.76-4.86,1.8-6.57,3.28-.32-.06-.64-.06-.96.06-2.27.7-53.95,8.48-68.58,8.75-14.63.22-39.94,2.17-49.69,1.49-1.86-.1-3.26.13-4.13.7-1.15-.36-2.65.25-2.98,1.73-2.45,11.26-18.55,66.27-24.71,88.23-5.22,1-10.21,1.92-13.55,2.23-9.37.94-18.96,3.46-25.01,5.27.96-6.55-1-9.25-5.3-10.09-5.87.17-12.71.03-16.51,1.02-6.36,1.67-16.95.89-40.9,2.69-27.26,2.05-44.98,4.33-56.77,3.17-.05-.02-.09-.06-.15-.06-13.42-3.56-48.57-16.44-61.57-21.21-15.09-5.54-26.16-10.65-38.15-17.43-7.47-4.28-13.66-9.51-15.75-11.77-.65-.68-1.27-1.03-1.89-1.25-.18-1.29-1.51-3.02-3.09-5.27-1.93-2.8-8.14-9.14-9.86-13.65-1.48-3.88-2.51-2.9-1.15,1.54,1.36,4.47,5.8,7.52,7.96,14.69.69,2.29,1.7,3.88,2.84,4.54-.05.56.15,1.19.67,1.78,3.01,3.32,15.25,12.21,42.88,24.03,20.53,8.76,59.79,24.12,73.28,27.99.45,1.11,1.69,2,3.85,1.81,9.48-.77,34.46-2.85,52.34-4.42,20.86-1.84,36.9-2.95,48.47-1.69,0,0,8.58.68,7.12,4.08-.25.63-.5,1.48-.75,2.39-2.12.19-4.52.35-6.63.28-5.46-.23-9.85-1.07-15.09,3.76-5.26,4.83-18.47,13.41-27.9,19.29-7.11,4.42-17.07,5.12-26.03,10.69-5.13-1.37-8.47-1.37-11.29-.29-.8.35-1.62.95-2.39,1.69-3.27-.51-7.13-1.05-11.77-1.69-11.74-1.49-24.87-2.43-31.35-1.49-.63.1-1.18.39-1.66.71-2.26.54-3.61,2.91-3.73,4.93-.43,8.29-5.44,18.92-7.07,21.81-.15.26-.19.55-.16.85-.96.17-2.09.63-3.72,1.28-3.38,1.36-5,1.57-7.8,1.86-1.59.14-2.67-.12-3.04.12-.22.19,1.4,1.1,5.28,1.58,3.85.49,9.75-.62,11.66-2.16.23-.21.38-.47.5-.7.39-.23.79-.62,1.07-1.36,1.25-3.13,2.4-9.44,4.09-15.14,1.41-4.77,1.82-8.31,4.61-9.13.08.02.11.04.18.06,5.5,1.07,17.97,3.08,27.21,4.32,3.15.46,6.57.89,9.98,1.26-7.38,5.26-10.49,11.73-11.04,14.35-.34,1.62-.72,3.49-.96,5.37-11.91,3.64-20.53,5.66-28.01,6.37-1.09.1-1.9.74-2.29,1.48-4.87.78-15.04,1.89-22.2,1.49-4.8-.25-9.05-.21-10.14,1.62-12.31-.36-22.95-2.33-29.39-3.97-1.95-.51-4.54-1.49-5.99-.63-19.04-3.58-33.14-13.25-36.86-16.22-2.98-2.38-7.31-4.3-2.07.44,8,7.23,19.46,14.25,38.18,18.05.7,1.2,3.09,2.04,6.4,2.43,5.35.57,18.71,2.54,30.07,1.68,1.18.74,3.88.86,7,.82,3.71-.02,10.78-1.06,14.59-1.69,4.28-.71,8.81-1.36,11.28-1.73.39.17.87.28,1.5.23,4.28-.29,16.55-3.87,27.71-7.53,0,1.57.22,3.01.8,4.21-9.47,4.34-19.63,8.39-25.37,11.08-2.31,1.06-3.21,2.27-3.24,3.18-1.21.83-3.42,2.37-5.57,3.99-4.02,2.99-9.76,8.99-12.92,11.69-3.52,3.03-5.64,5.8-5.6,7.44-5.01,6.49-10.71,15.83-13.03,20.67-1.71,3.6-3.05,7.92-2.55,9.92-3.24,11.26-5.84,31.54-2.59,45.22,1.75,7.4,1.87,3.03,1.43-.29-1.16-8.65-1.94-28.33,3.76-44.32,1.53-1.27,1.87-4.83,2.8-7.64,1.93-5.8,7.19-15.97,12.1-22.14,2.73-.03,4.93-5.87,10.48-11.65,3.91-4.06,9.78-8.32,13.36-11.32.92.12,2.11-.14,3.32-1.01,6.13-4.47,14.21-8.77,24.92-12.84,1.98,2.54,4.86,4.71,7.48,4.71,5.02,0,8.6-1.69,12.58-2.72,3.99-1.06,10.18-2.04,14.94-2.89,4.09-.72,9.21-3.11,11.46-8.21.56,2.09.96,4.09.65,7.66-1.39,6.69-5.01,10.6-9.78,18.45-4.76,7.86-9.79,18.41-10.12,21.3-1.55,1.89-1.71,5.08-1.48,10.28.28,6.14-.42,17.1-.16,25.15.35,10.75-.23,17.07.79,19.4-2.03,2.09-4.42,5.87-7.5,8.72-3.87,3.58-7.5,2.49-7.29,3.58.2.9,4.94,2.05,9.61-1.68,4.08-3.28,8.73-7.05,9.48-9.68.45-.52.68-1.34.37-2.69-1.04-4.63-1.68-10.08-2.09-26.03-.2-7.19.36-16.67,1.09-21.07.23-1.36.79-2.11,1.42-2.68.67-.15,1.33-.5,1.84-1.09,5.66-6.73,11.89-14.28,16.08-22.39,4.19-8.11,6.57-11.82,7.27-15.95.65-1.96,5.74-2.25,9.26-4.81,1.37.45,2.91.7,4.71.65,6.72-.24,22.67-4.21,28.34-4.86,4.62-.5,10.99-1.43,16.42-3.82,3.87,1.56,9.93,1.47,13.16,1.09,7.13-.83,15.1-2.73,15.73-5.67,4.98.39,8.32,1.24,10.9-.39,1.71,1.62,2.67,4.88,3.31,8.86.97,6.17,1.11,18.46,1.11,32.73,0,12.59,1.26,44.48,2.52,63.48,1.11,17.07,3.48,29.95,3.9,35.53.16,1.97.9,3.51,2.01,4.21,1,5.24,5.27,10.64,8.58,18.11,4.05,9.19,11.87,25.68,20.85,47.52,6.98,16.96,22.45,59.54,23.86,61.18.36.43,1.02.68,1.71.66.96,1.65,3.22,4.15,5.02,6.04,4.47,4.77,9.52,8.39,14.43,11.37,4.08,2.46,13.7,5.2,14.1,4.4.56-1.09-2.56-1.57-6.76-4.74-3.05-2.31-6.4-2.75-12.56-6.82-3.64-2.42-7.44-6.27-11.52-12.06.27-.93.03-2.22-1.16-3.91-3.76-5.31-13.28-27.43-19.46-47.88-5.3-17.55-22.05-53.05-27.24-62.73-3.37-6.37-4.81-10.08-5.47-12.53.91-2.45.18-8.38-2.17-14.55-2.39-6.2-4-23.26-5.41-55.29-1.31-29.95-.79-57.49-.5-64.42.3-6.16,1.42-8.68,0-14.53-.84-3.57-4.54-6.07-10.08-5.21-1.03-.43-2.08-.59-3.13-.63,5.67-.43,9.74-1.71,11.53-3.67,4.97,1.09,8.44,1.45,13.5.98.53,1.23,1.65,2.06,3.75,1.49,4.73-1.29,10.45,1.29,17.94,1.78,5.32.32,20.78-2.4,38.77-5.9,25.94-5.06,114.85-19,118.88-20.28.39-.1.72-.28,1.02-.48,3.39,3.8,12.42,9.98,19.93,13.94,7.95,4.21,32.2,17.72,48.01,26.75,15.84,9.01,63.2,35.77,66.11,37.91,1.47,1.09,2.71,1.33,3.68,1.1,3.79,2.69,5.87,7.13,10.05,10.67,8.14,6.84,6.39,13.1,7.6,13.5,1.24.43,2.1-5.34.23-10.57"/>
  </g>
</svg>