<?xml version="1.0" encoding="UTF-8"?>
<svg id="Layer_2" data-name="Layer 2" xmlns="http://www.w3.org/2000/svg" viewBox="0 0 473.66 654.5">
  <defs>
    <style>
      .cls-1 {
        fill:#808080
      }
    </style>
  </defs>
  <g id="Layer_1-2" data-name="Layer 1">
    <path class="cls-1" d="m467.97,161.04c-11.84-10.94-32.88-8.28-47.67-8.51-14.82-.17-29.89,1.07-44.26,5-25.39,6.97-49.3,18.39-74.8,25.13l1.85-3.65c9.64-10.36,20.76-19.31,30.03-29.99,5.66-6.51,10.6-14.21,14.17-21.56,1.87-3.65,4.98-7.63,6.16-9.15,1.23-1.52,7.3-11.6,8.25-13.12,4.84-7.99,9.07-14.92,16.62-20.68,6.91-5.18,14.52-9.23,21.14-14.7,7.61-6.18,18.17-10.95,26.96-15.24,3.01-1.5,6.28-2.98,9.55-3.91,3.37-.88,6.91-1.04,9.97-2.81,5.75-3.29,11.73-7.34,17.01-11.23,2.09-1.57,7.39-4.22,7.95-6.99.76-4.02-4.64-2.89-7-1.97-5.02,1.93-8.47,6.46-12.75,9.48-5.98,4.22-12.89,4.26-19.85,5.44-6.34,1.19-11.71,4.4-17.44,7.13-5.9,2.79-11.37,6.91-17.02,10.24-5.34,3.13-10.68,6.18-15.7,9.87-17.46,12.75-31.67,29.91-42.35,48.58-4.96,8.59-9.41,18.06-14.93,26.23-3.04,4.55-7.19,7.31-11.41,10.58-4.91,3.85-10.19,7.28-15.38,10.8-9.35,6.3-17.84,13.84-27.18,20.31-3.97,2.77-12.22,8.55-12.22,8.55-1.22-5.32-2.63-10.48-5.03-15.45-1.77-3.82-4.46-7.59-2.61-11.93,2.83-6.66,6.4-12.97,3.57-20.41-1.17-3.03-3.34-5.96-2.41-9.38,1.16-4.66,6.18-8.43,8.06-12.92,1.51-3.54,2.71-7.31,5.73-9.84.1-.04,1.82-1.53,1.82-1.53,5.45-6.22-1.94-5.78-5.53-2.69-3.34,2.86-5.59,6.87-7.57,10.7-1.79,3.59-3.93,8.69-8.84,8.09-1.69-.24-3.06-1.16-4.78-1.57V10.8c0-1.36-.9-2.55-2.17-3V1.07c0-.59-.46-1.07-1.08-1.07-.57,0-1.01.48-1.01,1.07v6.72c-1.29.46-2.14,1.65-2.14,3v117.15c-1.67.4-3.09,1.32-4.8,1.57-4.9.6-7-4.5-8.9-8.09-2-3.84-4.19-7.85-7.52-10.7-3.66-3.09-10.98-3.53-5.62,2.69,0,0,1.76,1.49,1.85,1.53,3.06,2.52,4.27,6.3,5.74,9.84,1.91,4.49,6.94,8.26,8.11,12.92.93,3.41-1.23,6.35-2.41,9.38-2.89,7.44.74,13.75,3.57,20.41,1.91,4.33-.82,8.11-2.63,11.93-2.42,4.97-3.83,10.14-5,15.45,0,0-8.29-5.78-12.28-8.55-9.27-6.47-17.78-14.02-27.18-20.31-5.17-3.52-10.42-6.95-15.33-10.8-4.24-3.27-8.36-6.03-11.4-10.58-5.5-8.17-9.98-17.64-14.94-26.23-10.64-18.67-24.95-35.83-42.37-48.58-4.96-3.69-10.38-6.74-15.64-9.87-5.74-3.33-11.08-7.44-17.04-10.24-5.8-2.73-11.1-5.94-17.53-7.13-6.94-1.18-13.81-1.22-19.79-5.44-4.24-3.01-7.75-7.55-12.77-9.48-2.37-.92-7.75-2.05-7,1.97.46,2.77,5.92,5.42,7.99,6.99,5.26,3.89,11.22,7.94,16.93,11.23,3.09,1.77,6.66,1.93,9.97,2.81,3.32.93,6.49,2.41,9.58,3.91,8.83,4.28,19.37,9.06,26.94,15.24,6.69,5.46,14.29,9.52,21.1,14.7,7.64,5.76,11.94,12.69,16.7,20.68.95,1.52,7.02,11.6,8.27,13.12,1.21,1.52,4.24,5.5,6.04,9.15,3.72,7.34,8.63,15.05,14.21,21.56,9.3,10.68,20.42,19.63,30.05,29.99l1.87,3.65c-25.43-6.74-49.38-18.16-74.75-25.13-14.37-3.93-29.47-5.17-44.25-5-14.74.23-35.89-2.42-47.74,8.51-9.29,8.65-5.96,19.18,1.47,27.69,17.2,19.73,43.46,30.75,67.8,38.48,28.89,9.21,59.44,14.07,89.77,14.33,4.12.02,7.93-.74,11.88-1.23,0,0-13.37,9.75-14.57,10.36-7.07,3.49-12.91,8.67-18.54,14.01-5.7,5.34-12.22,9.96-17.47,15.86-4.85,5.54-4.91,13.51-6.62,20.38-2.51,10.89-6.15,21.54-9.35,32.21-4.02,13.93-5.94,28.41-6.85,42.92-.62,8.27-1.71,16.59-3.29,24.75-1.02,4.88-1.52,9.81-3.11,14.57-1.65,4.96-4.22,9.53-5.99,14.47-8.56,23.25-12.74,47.7-19.87,71.35-2.13,7.01-4.32,13.97-6.24,21.03-1.89,7.14-4.07,14.25-5.88,21.46-1.09,4.35-2.61,8.65-3.53,13.02-.36,1.81-1.93,5.39-.68,6.99,1.24,1.77,4.77,1.38,6.22.12,1.87-1.72,1.05-4.82,2.07-6.94,8.05-16.18,14.11-33.24,19.85-50.3,3.79-11.4,6.26-23.12,9.26-34.73,3.29-12.89,8.06-25.41,11.44-38.3,1.44-5.17,2.75-11,3.49-16.54,1.41-10,4.53-19.59,6.71-29.43,2.71-12.6,4.9-25.29,7.27-37.93,1.14-6.3,2.39-12.61,3.79-18.87,1.59-7.31,2.75-14.49,2.79-22.07.09-8.61.54-17.16,8.14-22.38,6.77-4.68,14.44-8.41,21.42-12.86,5.87-3.76,11.21-8.05,16.6-12.43,8.85-7.19,16.82-15.9,26.4-22.1,4.57-2.95,9.74-5.68,15.21-6.29,7.75-.88,12.59,5.67,6.19,11.37-5.39,4.94-9.78,11.24-14.61,16.86-9.05,10.67-17.81,21.56-26.22,32.79-5.59,7.47-11.34,14.82-16.74,22.53-4.6,6.7-10.72,14.65-11.93,22.92-1.88,13.22,5.08,26.17,9.32,38.33,3.65,10.4,6.96,21.12,10.95,31.43,2.09,5.34,4.38,10.64,6.99,15.7,3.56,7.15,8.82,14.37,8.93,22.64.14,8.39-4.71,17.26-7.22,25.13-7.81,24.24-11.58,49.62-19.65,73.82-5.26,15.7-11.8,31.03-17.58,46.65-1.45,3.85-2.93,7.67-4.46,11.56-2.09,5.42-4.98,10.56-6.51,16.23-1.55,5.94-1.89,12.22-4.35,17.86-1.53,3.57-7.55,9.8-5.65,14.09,2.84,6.38,8.54-5,10.02-6.59,1.81-1.93,4.33-3.33,6.24-5.18,7.22-6.91,10.48-16.5,12.61-25.98,4.1-17.38,10.16-34.08,15.5-51.02,4.49-14.49,8.57-29.18,12.56-43.84,2.85-10.8,4.56-21.96,8.39-32.48,2.37-6.38,5.38-12.44,7-19.11,1.38-5.81,2.11-11.72,2.79-17.63,1.68-15.37-6.72-29.87-11.71-43.96-3.73-10.56-7.53-21.16-12.18-31.32-2.81-6.14-5.93-12.12-8.85-18.22-4.1-8.31-6.13-15.22-.71-23.53,5.25-8.11,11.55-14.74,17.27-22.36,5.42-7.26,10.48-14.81,15.75-22.14,4.24-5.76,8.66-13.15,14.92-16.93,1.46-.86,4.35-3.17,4.55-3.33-1.54,1.2.6,13.33.68,16.02.5,12.81,1.21,26.17,2.23,39.18.64,8.19.78,16.46,2.44,24.53.9,4.22,2.09,8.76,4.24,12.45,4.24,7.08,11.2,10.16,17.6,4.05,1.41-1.33,2.51-3.09,3.38-4.68,2.08-3.84,3.2-8.18,4.05-12.41,1.54-7.91,1.74-15.92,2.38-23.95,1.01-13.01,1.69-26.37,2.25-39.18.12-2.69,2.17-14.81.67-16.02.2.16,3.09,2.47,4.6,3.33,6.18,3.78,10.64,11.17,14.83,16.93,5.36,7.33,10.38,14.88,15.75,22.14,5.76,7.63,12.08,14.26,17.39,22.36,5.42,8.31,3.33,15.22-.76,23.53-2.98,6.1-6.04,12.08-8.83,18.22-4.76,10.16-8.51,20.76-12.22,31.32-4.9,14.09-13.37,28.58-11.66,43.96.64,5.9,1.38,11.82,2.73,17.63,1.65,6.66,4.68,12.72,7,19.11,3.87,10.52,5.52,21.68,8.53,32.48,3.91,14.66,7.89,29.35,12.5,43.84,5.26,16.94,11.36,33.64,15.39,51.02,2.23,9.47,5.4,19.07,12.69,25.98,1.89,1.85,4.36,3.25,6.21,5.18,1.44,1.58,7.16,12.97,10.05,6.59,1.87-4.29-4.15-10.52-5.66-14.09-2.47-5.64-2.79-11.93-4.33-17.86-1.55-5.67-4.44-10.81-6.52-16.23-1.57-3.89-3.04-7.71-4.5-11.56-5.78-15.62-12.28-30.95-17.55-46.65-8.11-24.2-11.88-49.58-19.71-73.82-2.53-7.87-7.3-16.74-7.14-25.13.14-8.27,5.32-15.5,8.87-22.64,2.61-5.06,4.9-10.36,6.95-15.7,4.05-10.31,7.41-21.03,11.03-31.43,4.22-12.16,11.24-25.11,9.26-38.33-1.1-8.27-7.27-16.23-11.94-22.92-5.25-7.71-11.12-15.06-16.74-22.53-8.39-11.23-17.1-22.12-26.22-32.79-4.81-5.62-9.13-11.93-14.59-16.86-6.26-5.7-1.51-12.24,6.24-11.37,5.5.6,10.61,3.34,15.17,6.29,9.61,6.2,17.64,14.91,26.43,22.1,5.32,4.38,10.68,8.67,16.58,12.43,7,4.45,14.65,8.18,21.44,12.86,7.67,5.22,8.05,13.77,8.11,22.38.16,7.58,1.1,14.76,2.83,22.07,1.36,6.26,2.57,12.57,3.77,18.87,2.39,12.64,4.5,25.33,7.33,37.93,2.11,9.84,5.26,19.43,6.68,29.43.76,5.54,2.03,11.37,3.41,16.54,3.45,12.89,8.11,25.41,11.51,38.3,2.95,11.6,5.46,23.33,9.23,34.73,5.72,17.07,11.82,34.12,19.82,50.3,1.12,2.13.26,5.22,2.13,6.94,1.44,1.26,4.95,1.65,6.22-.12,1.25-1.6-.32-5.18-.7-6.99-.92-4.37-2.39-8.67-3.53-13.02-1.83-7.21-3.99-14.32-5.93-21.46-1.88-7.07-4.17-14.03-6.26-21.03-7.04-23.65-11.28-48.1-19.79-71.35-1.79-4.94-4.33-9.51-6.02-14.47-1.52-4.76-2.02-9.69-3.03-14.57-1.65-8.15-2.73-16.48-3.35-24.75-.95-14.52-2.81-28.99-6.9-42.92-3.21-10.67-6.75-21.33-9.3-32.21-1.66-6.86-1.74-14.83-6.66-20.38-5.18-5.9-11.7-10.52-17.36-15.86-5.72-5.34-11.54-10.52-18.63-14.01-1.19-.6-14.66-10.36-14.66-10.36,4.08.48,7.95,1.24,11.99,1.23,30.41-.26,60.84-5.12,89.79-14.33,24.39-7.72,50.58-18.75,67.76-38.48,7.43-8.51,10.8-19.04,1.45-27.69h0Z"/>
  </g>
</svg>