<?xml version="1.0" encoding="UTF-8"?>
<svg id="Layer_2" data-name="Layer 2" xmlns="http://www.w3.org/2000/svg" viewBox="0 0 654.5 455.68">
  <defs>
    <style>
      .cls-1 {
        fill:#808080
      }
    </style>
  </defs>
  <g id="Layer_1-2" data-name="Layer 1">
    <path class="cls-1" d="m263.87,227.93s-.24-2.44-4.5-4.23c-4.28-1.83-6.83-3.35-9.53-4-2.7-.66-3.36-1.03-4.15-2.94-.76-1.95-.85-4.54-.85-4.54,0,0,.09.26-2.09,1.3-2.17,1.01-3.86,1.67-6.17,2.57-2.31.89-4.77.77-7.61,1.54-2.84.78-4.77.78-9.26,3.09-4.54,2.31-11.35,4.9-16.11,7.83-2.31,1.46-5.58,3.33-9,5.57-3.56,2.36-8.01,5.46-10.05,6.92-5.21,3.78-11.34,6.69-15.21,9.79-3.85,3.1-5.8,4.51-9.01,6.43-3.21,1.94-5.26,2.96-7.73,4.62-2.45,1.7-6.45,4.41-9.39,5.95-2.98,1.54-5.29,2.83-5.29,2.83,0,0-1.16-.38-1.4.13-.26.54,0,.66-1.29,1.27-1.29.65-17.66,9.53-20.99,11.59-3.35,2.05-12.13,6.83-16.77,9.16-2.33,1.15-6.69,3.17-12.06,5.03-5.21,1.82-11.39,3.5-13.67,3.7-1.15.11-4.01.59-7.51.7-3.97.08-8.81-.26-13.87-.74-8.99-.82-18.11-3.12-20.73-3.83-5.43-1.4-13.54-3.82-16.63-4.99-3.1-1.16-12.99-7.36-12.99-7.36,0,0,2.91-2.25,5.32-4.17,2.61-2.09,4.83-3.91,8.2-6.25,3.58-2.49,6.83-5.18,10.15-7.15,2.59-1.56,6.98-3.89,9.83-5.6,6.44-3.87,12.52-5.34,12.52-5.34,0,0,3.99-3.09,6.84-5.65,2.83-2.58,5.2-3.8,8.03-4.95,2.86-1.16,5.8-1.42,5.8-1.42,0,0-1.82-7.58,1.42-10.31,3.23-2.68,8.1-7.58,12.11-11.06,3.97-3.47,5.65-5.65,8.22-7.34,2.6-1.67,5.93-5.16,6.57-5.26.67-.13,3.56-2.89,5.95-4.65,2.96-2.2,4.14-5.68,7.2-9,2.83-3.07,3.85-3.87,6.19-6.19,2.32-2.32,2.83-3.2,4.11-4.75,1.28-1.56,1.94-2.58,3.87-3.33,1.93-.78,4.35-.91,7.08-2.96,2.71-2.07,4.89-4.26,8.13-6.58,3.2-2.32,5.78-3.61,9-5.92,3.23-2.34,6.05-5.03,11.45-8.37,5.42-3.36,11.85-6.94,13.92-8.26,2.07-1.27,2.56-.62,4.13-3.33,1.54-2.71,5.03-5.01,11.59-11.69,6.55-6.71,12.21-12.22,13.89-13.91,1.66-1.68,1.66-2.57,4.26-4.62,2.56-2.06,6.2-3.6,6.2-3.6,0,0-.79-3.25-2.08-5.43-1.3-2.18-2.71-6.18-2.58-9.12.07-1.54.02-4.05.34-5.75.27-1.64.95-2.49.95-2.49,0,0-1.81-5.17-.52-8.49,1.28-3.35,2.56-4.64,4.76-5.43,2.2-.76,5.81,0,5.81,0,0,0-1.55.67-2.57.92-1.03.25-1.55.63-.53,1.16,1.04.51,2.31,1.16,1.42,1.16s-3.34-1.02-4.51,1.16c-1.15,2.2-1.02,3.48-.65,4.65.39,1.16,2.18,3.47,2.18,3.47,0,0,.93-2.31,1.72-2.71.72-.37.88-.37.88-.37,0,0-1.45,1.39-1.31,2.56.16,1.14.65,2.07.65,2.07,0,0,.38-1.16.38,1.41s-1.4,5.01-1.92,7.34c-.51,2.3-.91,3.33-.65,5.4.23,2.08,1.16,5.03,1.16,5.03,0,0,.79,2.46,1.51,1.42.8-1.02-.36-2.97,1.31-4.66,1.68-1.66,4.12-4.62,5.54-4.09,1.43.49,4.13.89,7.21,1.66,3.1.76,5.16,1.66,10.94,2.05,5.79.38,7.34.52,9.92.14,2.58-.4,5.93-1.69,5.93-1.69l2.84-6.68s-.53-3.59-1.03-7.59c-.52-4-.91-8.62-1.8-11.85-.9-3.21-2.46-7.08-2.71-8.62-.23-1.55-.5-2.32-.5-2.32l1.65.77s-.38-.89.66-1.02c1.03-.13,2.32-.39,2.32-.39,0,0-.77-.9-1.29-3.1-.51-2.17-2.08-7.96-2.08-7.96l1.94,1.41s.65-.12.13-1.29c-.51-1.15-.78-2.71-1.31-4.36-.51-1.68-.62-3.5-.62-4.66s.11-1.92.11-1.92c0,0,1.53,1.03,1.53,0s-.88-4.76-.37-6.31c.52-1.54.9-2.32.9-2.32,0,0,1.29,1.29,1.29-.38,0-.86-.25-4.28.65-6.63.84-2.21,2.84-3.42,2.84-3.42,0,0,1.61-6.87,4.69-11.61,2.59-3.95,6.77-5.9,6.77-5.9,0,0,1.32-4.68,3.84-7.07C279.85-.2,283.18,0,283.18,0l3.5,1.92s-2.33-.38-3.77-.23c-1.41.11-2.82,1.41-1.54,1.52,1.3.15,3.09-.5,4.4.15,1.29.64,2.7,2.3,2.7,2.3,0,0-1.55-1.15-3.86-1.02-2.31.14-3.6.79-4.65,1.67-1.02.89-3.33,3.36-2.06,3.48,1.3.13,2.2-.65,2.95-.76.79-.15-2.3.89-2.3,1.67s1.41,1.04-1.04,3.06c-2.43,2.08-6.02,5.3-6.94,5.81-.9.51-2.86,2.71-3.61,3.85-.78,1.16-1.79,4.13-1.79,4.13,0,0,3.21.63,2.05,1.92-1.15,1.3-3.74,4.4-4.39,5.54-.62,1.16-.9,2.07,0,2.33.91.24,2.34-.26,1.04,1.52-1.28,1.81-2.06,2.84-2.56,4.13-.54,1.27-1.45,2.83-.27,2.83s2.3-.89,2.3-.89c0,0-.23,2.96-1.01,4.49-.78,1.53-1.29,2.84-1.29,3.63s-.4,2.68.51,2.56c.91-.13,0-.39.91-1.54.88-1.17,1.65-1.7,1.65-1.7,0,0-.24,1.94-.24,3.88s-.53,4.5-.53,6.44.53,3.71,1.3,2.31c.76-1.42.65-2.47,1.54-2.05.92.38.39,1.53.92.89.5-.65,2.56-5.17,2.56-5.17l-.63,6.83s1.53-2.98,3.06-3.86c1.56-.9,1.82-1.31,2.33-2.32.54-1.03,1.94-1.4,1.02.25-.88,1.69-2.18,4.51-2.56,5.03-.39.52,0,.75.12,1.78.12,1.05,0,2.44,0,2.44,0,0,5.39-8.74,9.4-11.31,4-2.57,8.84-4.99,14.92-5.65,6.03-.64,8.39-.53,11.34-.14,2.98.38,5.57.76,5.57.76,0,0,.5-2.45,1.52-1.3,1.03,1.16,1.57,3.35,2.85,6.44.67,1.63,1.84,5.9,2.82,9.59.88,3.3,1.56,6.12,1.56,6.12,0,0,2.18-1.03,6.31-1.67,4.12-.64,9.29-.91,10.95-.64,1.68.24,2.84.64,2.84.64,0,0,4.25-7.98,5.65-10.55,1.43-2.58,4.38-7.07,5.39-7.07s.8,1.41,1.56,1.41c.4,0,7.33-.73,13.75.54,5.59,1.07,10.77,4.04,12.27,5.12,1.48,1.05,5.34,3.74,8.41,9.68,3.63,7.05,6.4,17.46,6.4,17.46,0,0-.38-5.66-.12-8.22.26-2.6,1.66-5.17,1.66-5.17l4.65,5.4s-.26-2.3-.91-3.09c-.64-.77-2.07-2.82-2.95-3.61-.9-.76-2.19-2.69-2.33-3.48-.12-.76-.24-1.65-.24-1.65,0,0,1.67,1.79,2.7,2.57,1.04.76,3.22,2.69,3.63,3.22.37.5,2.43,2.94,2.43,2.94l-1.41-7.46s1.15,1.16,1.65,2.2c.53,1.01,1.56,2.82,1.56,2.82,0,0,0-2.96.25-2.44.24.52,1.29,2.96,1.81,2.44.5-.5-.15-3.61-.4-5.93-.26-2.31-.12-6.05-.12-6.05,0,0,1.41,2.85,2.17,2.21.8-.66.8-.91,0-2.97-.76-2.04-2.05-5.52-2.05-6.31s-.87-2.45,0-1.79c.9.64,2.45,1.68,2.45,1.68l.11-2.71-3.19-8.24h2.44s.13-2.05-1.03-3.86c-1.17-1.81-2.07-3.99-2.07-4.88s-.25-1.15.66-1.44c.88-.24,1.8-.87,1.8-.87,0,0-1.17-4.13-2.05-5.8-.9-1.67-2.86-4.76-4.26-6.32-1.43-1.54-3.22-3.72-3.34-4.36-.13-.66-.13-1.43-.13-1.43,0,0-.15-.75-.78-1.16-.64-.37-1.8-1.4-1.8-1.4l1.55.39.12-.79s-1.42-.77-2.45-1.16c-1.03-.38-3.22-1.27-3.86-1.04-.65.27-1.81.53-1.81.53,0,0,.79-1.29,2.45-1.4,1.7-.14,4.13,0,4.13,0,0,0,.77-.54-.4-1.17-1.16-.65-2.82-1.15-3.6-1.02-.77.14-2.45.77-2.45.77,0,0,1.68-2.32,4.4-1.94,2.69.38,4.64,1.8,6.04,3.36,1.41,1.54,2.71,5.02,2.71,5.02,0,0,4.34,2.76,6.58,7.84,1.82,4.13,1.68,10.8,1.68,10.8,0,0,1.26,2.19,1.65,4.01.38,1.78-.12,6.15-.12,6.15,0,0,1.54,3.09,1.71,6.16.13,1.94-1.06,4.41-1.06,4.41,0,0-.65,1.28.11.89.79-.39,1.32.12,1.32.12,0,0,.25,2.19.13,4.62-.13,2.46-.54,3.63-.54,4.5,0,.93-.39,2.33-.39,2.33h1.82s-.28,1.81-1.16,4.63c-.93,2.84-1.05,5.03-1.05,5.03l2.07,1.16s1.55-1.3,1.16,0c-.38,1.3-1.16,2.43-2.45,7.84-1.28,5.41-2.32,11.22-2.57,14.4-.25,3.25-.51,5.93-.25,8.5.25,2.58.64,5.56.64,5.56,0,0,1.8,1.79,4.5,2.3,2.72.54,4.15.76,6.32.13,2.19-.64,5.17-.89,6.83-1.69,1.68-.74,2.96-2.81,5.03-.36,2.05,2.45,6.18,8.34,8.1,10.4,1.92,2.07,2.61,2.87,2.61,2.87l-.27-2.22.89-.27s-1.01-.75-.39-1.02l.66-.23-.12-3.1s.76-.38,1.41.11c.64.54,1.53.14,1.53.14,0,0,2.06-1.55,2.32-3.08.25-1.55,1.17-2.85,1.29-3.86.14-1.03.14-1.56.14-2.71s.12-2.18-.25-3.84c-.39-1.7-.92-3.99-.92-5.29s0-4.63.53-3.99c.51.64,1.04.52,1.04.52l-.27-3.72,1.29,2.3s1.28-1.03,1.79-2.95c.54-1.94.66-3.22-.77-4.53-1.41-1.28-3.2-1.8-4.12-1.66-.89.11-1.78-.27-1.78-.27l3.33-1.02s-.51-1.01-1.29-1.01-2.69-.27-2.69-.27c0,0,1.93-1.01,4.51-.77,2.56.27,4.63,1.55,5.92,4.26,1.29,2.7,1.41,3.88,1.17,6.06-.29,2.18-.78,4.49-.78,4.49,0,0,.49.1.78,2.23.24,1.92.34,5.78-.29,7.31-1.27,3.21-6.54,12.61-6.54,12.61,0,0,0,2.45-1.42,5.14-1.09,2.06-3.74,4.5-3.74,4.5,0,0,2.06.15,4.77,2.71,2.7,2.56,13.52,13.13,14.67,14.15,1.17,1.04,1.26,1.71,1.66,2.46.39.76.39,2.31.39,2.31,0,0,.78-.39,2.08.53,1.29.88,2.06,1.79,2.06,1.79,0,0,.11-2.32.88-1.67.76.65.91,2.19.91,2.19,0,0,2.18,1.54,3.1,1.94.89.39.89.12,1.79.39.91.25,2.71,1.79,2.71,1.79,0,0,7.07,3.64,10.81,5.92,3.74,2.32,14.17,7.07,20.86,11.21,6.68,4.1,15.97,9.25,18.27,11.18,2.34,1.93,4.27,3.86,5.43,5.81,1.16,1.94,4.37,8.24,4.37,8.24,0,0,3.11,2.32,4.76,3.75,1.7,1.41,7.75,6.8,10.05,8.99,2.32,2.18,10.68,7.86,14.43,10.93,3.74,3.09,6.05,5.39,8.61,8.51,2.6,3.07,6.97,8.23,8.39,10.41,1.39,2.22,4.26,6.95,4.89,8.75.63,1.79-1.29,3.63-1.29,3.63,0,0,2.18,2.17,4.39,3.96,2.16,1.81,4.25,2.58,5.01,3.35.78.78,4.25,3.74,4.25,3.74,0,0,1.56.9,3.22.77,1.66-.14,6.83.13,8.62,1.29,1.81,1.17,3.11,2.82,3.11,2.82,0,0,3.47,1.16,5.51.78,2.07-.39,9.84-2.76,15.86-1.16,2.62.7,6.1,2.47,8.49,6.95,1.94,3.65,2.97,7.59-1.16,10.55-2.17,1.56-8.69,6.69-16.33,11.24-6.91,4.08-14.93,7.66-17.55,8.44-2.49.77-15.15,4.66-27.18,2.96-14.69-2.08-29.19-10.04-32.2-11.44-5.4-2.58-25.47-14.17-28.58-15.6-3.08-1.4-11.32-5.39-11.32-5.39,0,0-2.27.2-3.84-.58-2-1.06-3.38-3.14-3.38-3.14,0,0-10.92-7.59-13.14-9.14-2.18-1.55-9.52-6.44-12.73-8.37-3.25-1.94-7.72-4.37-11.12-6.43-3.3-2.07-14.64-9.52-18.5-11.32-1.8-.83-6.59-3.33-12.41-5.76-6.77-2.87-14.67-5.77-16.97-6.6-4.24-1.55-9.13-3.33-11.21-3.98-2.05-.66-5.52-.77-7.09-.77s-2.4.11-5.28,1.15c-1.11.41-2.73,1.76-4.62,2.5-1.76.69-4.57,1.63-7.17,2.42-2.71.85-5.13,1.56-5.79,1.71-3.09.68-5.71.7-5.71.7,0,0,2.41,12.47,2.69,17.5.26,5.02.78,11.47.78,11.47,0,0,5.3,2.7,8.11,3.86,2.85,1.16,5.67,2.31,6.32,3.85.63,1.55.89,4.62.89,4.62v3.77s1.99.77,3.86,2.58c1.39,1.35,2.72,3.75,3.09,4.35.91,1.39,5.17,7.2,6.32,11.07,1.16,3.86,3.07,10.17,3.33,16.23.27,6.03.54,10.14.93,14.27.38,4.11.77,8.5,1.65,12.75.91,4.26,3.11,7.97,3.36,9.77.26,1.83,1.17,4.38,0,4-1.16-.39-5.29-1.8-5.29-1.8,0,0,0,1.8.4,3.87.37,2.05.5,5.39,1.52,7.7,1.05,2.35,1.45,4.37,1.45,6.44s.11,3.2-.66,3.6c-.79.4-1.67,1.02-1.67,1.02,0,0-.39,4.25-.39,6.57s1.17,4.4.24,6.71c-.9,2.31-1.29,4.76-2.08,4.88-.77.11-1.26.11-1.26.11,0,0-1.43,4.79-1.66,6.19-.29,1.42-.14,4.89-1.55,6.44-1.44,1.55-1.7,2.82-2.6,3.08-.91.26-.91,1.04-.91,1.04,0,0-1.92,5.4-2.95,7.59-1.02,2.18-2.31,6.7-3.59,7.6-1.3.88-2.19.39-2.19.39,0,0-4.04,8.94-8.85,14.74-4.23,5.07-9.31,7.13-9.31,7.13,0,0-1.56,3.6-3.83,5.83-2.07,2.03-4.76,2.71-6.61,3.31-3.85,1.3-8.11-.39-9.13-1.8-1.04-1.41-2.57-5.27-2.57-5.27l-.4-3.1s.93,2.23,3.02,3.48c1.86,1.16,4.74,1.42,7.04,1.21,1.64-.14,4.26-1.38,5.56-2.88,1.36-1.53,1.39-3.33,1.39-3.33,0,0-1.57.5-2.2.5s-.77-.23.39-.89c1.17-.62,2.32-1.03,2.32-1.03l-.12-1.54-.66-.13s.78-.89,2.47-1.79c1.66-.89,3.48-1.68,6.18-3.23,2.68-1.55,5.13-3.47,7.19-5.79,2.08-2.31,2.98-4.13,3.61-5.53.67-1.43,1.29-3.23,1.29-3.23,0,0-2.06-.89-1.02-1.93,1.02-1.01,2.44-2.19,3.73-3.72,1.31-1.54,3.48-3.74,4-5.4.52-1.67,1.44-4.88,1.44-4.88,0,0-.54-1.16-1.44-1.16s-.65-1.17.39-2.21c1.04-1.03,3.21-3.21,4.37-5.53,1.16-2.31,2.57-3.2,2.57-4.52v-2.16s-.87-.54-1.78-.54.11-.37.72-2.57c.66-2.19,3.37-6.96,3.5-8.6.11-1.68,1.04-4.51,1.04-4.51,0,0-.93-.26-2.06-.12-1.18.12-1.95.5-1.95.5,0,0,.92-1.78,1.3-5.53.39-3.74,1.03-8.36.51-11.07-.51-2.71-.77-5.26-1.41-6.18-.64-.9-2.32-2.33-4-2.56-1.66-.26-2.18-.66-3.33-.39-1.16.23-2.31,1.16-2.07.62.26-.49,1.93-2.56,1.93-2.56,0,0-1.82-4.04-2.71-7.57-.91-3.66-.9-6.87-1.17-8.75-.51-3.75-1.01-14.06-1.16-16.48-.12-2.47-.76-4.01-1.26-5.31-.53-1.29-1.84-4.36-1.55-5.78.23-1.41.63-2.32.63-2.32,0,0-1.42-5.93-2.32-7.84-.91-1.91-1.42-4.64-1.28-5.69.12-1.01,1.01-1.52,1.01-1.52,0,0,.14-1.54-.89-1.65-1.03-.15-1.92,1.03-3.48,1.03s-13.39-2.85-13.39-2.85c0,0-5.93,5.52-12.25,8.87-6.31,3.34-10.55,5.42-11.85,6.56-1.28,1.15-2.19,2.71-3.35,2.84-1.16.14-1.91.65-1.91.65,0,0,3.73,1.16,3.73,4.5s-.78,4.25-2.32,5.66c-1.55,1.42-2.45,1.66-2.45,1.66l-1.41,2.35,2.71,1.15s.5-.27,1.92-.12c1.41.12,2.32,0,2.98.76.63.77,1.26,1.68,1.26,1.68,0,0,1.43-1.56,2.22-1.3l.76.25s0-.39.92-.39,1.67-.13,1.67-.13l1.16-.27s.26-.87,1.02-.87,1.29-.54,2.57-.65c1.29-.11,2.84.11,3.23,1.93.37,1.8,1.29,5.26,1.16,7.86-.11,2.58-1.8,6.42-2.71,6.56-.9.14-2.57-3.97-2.06-6.18.51-2.18,2.06-6.18,2.06-6.18,0,0-1.41-.89-1.93-.89-.5,0-1.43.53-2.07.53s-.62.23-1.16.37c-.49.14-1.17,0-1.17,0,0,0-.77.91-1.55,1.04-.76.1-1.64-.29-1.64-.29,0,0-.39.39-1.16.39h-.92s-1.55,1.68-3.08,1.57c-1.56-.13-3.24-.89-3.24-.89,0,0,.54,1.64,1.18,2.81.64,1.17.87,3.88,0,4.13-.92.24-3.48-.65-3.48-.65l-1.41.89s1.03,2.71,1.03,3.62-.67,3.33-1.81,3.33-2.58-4.12-2.58-4.12c0,0-.77-.5-1.29.53-.51,1.03-1.65,1.3-1.16,3.21.54,1.93,1.03,4.13,1.68,5.79.37.96.89,2.31,1.97,3.86.85,1.22,2.24,2.53,3.19,3.89,2.19,3.06,3.6,5.39,5.26,7.05,1.68,1.66,4.26,4.26,4.66,6.44.39,2.19.39,3.61-2.05,5.27-2.48,1.69-4.53,2.98-5.96,1.3-1.41-1.67-2.57-4.77-4.11-6.83-1.54-2.08-2.32-3.48-3.48-4.52-1.16-1.03-1.4-2.56-3.98-4.24-2.58-1.64-2.19-2.18-4.4-2.57-2.19-.38-4.75-.24-6.43.78-1.67,1.02-5.68,4.11-9.02,8.75-3.34,4.65-6.69,9.03-9,8.5-2.34-.52-8.39-4.64-8.13-7.72.25-3.1,4.38-5.54,5.66-6.05,1.29-.51,4.12-1.02,5.68-2.45,1.54-1.41,3.72-2.42,6.81-5.93,3.1-3.46,4.5-5.38,4.5-6.54s.26-2.59.26-2.59c0,0-3.21-3.85-3.61-4.5-.39-.64-1.16-2.04-1.16-2.04,0,0-.53.11-1.42-.15-.89-.26-1.3-.76-1.3-.76,0,0-.89-.54-1.94,1.16-1.01,1.66-1.65,4.1-3.06,3.98-1.41-.14-3.11-1.66-2.6-3.62.54-1.92,1.03-4.76,1.7-6.03.64-1.31,1.14-3.22.9-5.28-.26-2.07-.53-3.86-.53-3.86,0,0-1.04-.15-1.93,0-.89.11-2.31,1.41-3.85,1.66-1.56.25-3.48.38-4.25,0-.79-.39-1.02-1.66-1.02-1.66,0,0-.91-.76-1.8-.76s-1.55-.8-1.55-.8c0,0-.27.39-1.3-.36-1.02-.8-.4-.67-1.81-1.44-1.41-.77-2.05-1.03-2.71-1.03s-.23-.52-1.29,0c-1.02.54.52,1.67.91,3.09.38,1.41.77,4.38.52,6.45-.24,2.04-.78,3.59-1.66,3.59s-3.11-4.37-3.48-6.18c-.39-1.79.25-6.8,1.16-8.87.88-2.07,3.06-2.21,3.73-1.57.64.65,2.68,1.68,2.68,1.68,0,0-.23.39.53.53.78.13,1.3.39,1.3.39,0,0,.77,1.04,1.53,1.04h.79l1.43.76s.75,1.28,1.27,1.02c.5-.26,1.16-1.16,2.45-1.02,1.3.12,1.79.53,2.97.76,1.16.26,1.93.52,2.71.39.76-.12,2.57.66,2.57.66,0,0,.53-1.16-.53-1.8-1.02-.65-3.71-1.68-4.49-2.71-.79-1.03-1.67-3.33-1.3-5.27.38-1.94,1.15-3.23,2.31-3.48,1.16-.25,1.93-.51,1.93-.51v-1.68s-2.06.38-3.6-.53c-1.56-.88-4.54-3.72-5.55-4.36-1.02-.65-5.39-3.06-8.23-4.36-2.84-1.32-8-4.63-11.08-6.83-3.1-2.2-6.31-5.53-8-7.08-1.65-1.55-2.43-2.45-2.43-2.45,0,0-3.95.56-6.62.09-2.8-.51-4.3-2.02-4.3-2.02,0,0-1.03.26-1.56,1.67-.52,1.41,1.41.38,0,3.98-1.43,3.61-3.48,5.16-3.48,6.97s-.11,3.71-.25,5.26c-.13,1.53-.53,2.96-1.41,4.38-.91,1.41-1.7,2.84-2.2,5.27-.5,2.43-.77,4.12-1.54,7.98-.8,3.86-.8,5.02-2.05,10.01-1.31,5.04-2.84,9.3-3.61,11.34-.8,2.08-.65,3.63-.65,3.63,0,0,2.3,1.78,1.15,1.78s-1.15-.63-2.56-.63-1.55-.13-3.1.63c-1.55.79-3.62,2.07-3.62,2.07,0,0-1.01,5.92-1.29,9.52-.24,3.62.14,4.63.14,4.63,0,0,.13-.1.5,3.22.4,3.33,1.69,5.03,1.18,5.03-.54,0-.27-.53-1.68-.66-1.42-.11-2.06.42-2.06.42,0,0,.24,1.52.38,2.94.13,1.43.66,2.45,1.16,3.48.53,1.01,1.02,1.43,1.29,2.44.25,1.03.39,1.67.65,2.2.27.49.52,1.67.78,2.43.23.77,2.07,2.19.91,2.19s-1.8-.12-2.45.53c-.65.62-.79,1.29-.52,2.69.26,1.41,1.55,5.28,1.55,5.28,0,0,1.16.25,1.16,1.78s.38,1.68.64,2.22c.26.51.78,1.93.78,1.93,0,0,2.19,2.17,1.29,2.17s-2.2,1.3-2.2,1.3c0,0-.77,2.32-.13,4.51.65,2.2,1.68,4.88,2.2,5.78.52.91,1.93,4,2.58,4.64.64.65.9,2.2.9,2.2,0,0,0-.77-.77-.39-.79.39-1.31,1.42-1.31,1.42,0,0,.67,4.94,2.78,9.37,1.54,3.19,4.54,6.13,5.08,6.72,1.29,1.43,6.3,5.03,6.7,6.05.38,1.02.88,2.08.26,2.08-.66,0-1.44,1.4-.77,1.92.65.53,4.12,1.93,2.93,1.93-1.13,0-2.69-.26-2.69-.26,0,0,.9,2.96,3.88,4.51,2.96,1.56,5.92,2.06,7.83,2.32,1.94.26,3.36.13,4.12-.26.78-.36.12,1.92-3.59,2.18-3.75.27-7.86-1.26-9.28-1.65-1.41-.39-2.71-1.68-2.71-.65s1.16,2.71,3.62,3.33c2.44.66,2.56,1.42,4.24,1.42s2.32.39,3.75,0c1.41-.39,2.81-.65,2.81-.65,0,0-2.1,2.33-4.45,3.02-1.82.54-3.71-.49-5.2-.69-1.66-.27-5.59-1.89-8.07-5.21-2.4-3.3-3.38-8.29-3.38-8.29,0,0-3.1-2.7-4.89-5.41-1.79-2.7-3.61-7.46-4.38-10.17-.77-2.71-2.7-9.39-2.7-9.39,0,0-3.35-4.25-3.35-5.65s-.39-6.2-.53-8.11c-.13-1.95-.39-5.05-.39-5.05,0,0-.64.42-1.66-2.82-1.02-3.2-.91-5.25-1.02-7.2-.14-1.94-.42-7.2-.42-7.2,0,0-1.27-.15-1.65-.9-.38-.76-.9-3.35-.9-6.58s.38-10.15.38-10.15c0,0-1.79-.77-2.19-2.58-.38-1.81-.52-4.22.52-6.15,1.02-1.95,1.44-5.55,1.94-7.47.53-1.94,1.55-7.35,1.55-7.35,0,0-2.31.76-3.74,1.16-1.42.38-2.81.76-2.55-1.04.23-1.78.37-2.81,1.77-4.88,1.45-2.05,3.35-6.97,4.15-10.3.73-3.36,2.55-13.26,2.81-16.22.27-2.96,2.44-16.2,5-20.97,2.62-4.78,3.77-6.18,6.98-9.67,3.23-3.47,4.9-5.93,6.19-6.8,1.29-.92,3.6-1.17,3.6-1.17,0,0,0-1.43.25-2.69.28-1.3,1.16-4.53,1.94-5.81.77-1.29,1.93-1.41,3.86-1.67,1.93-.24,6.7-1.03,6.7-1.03,0,0,.45-7.55,1.54-12.96,1.34-6.69,3.35-11.49,3.35-11.49"/>
  </g>
</svg>