<?xml version="1.0" encoding="UTF-8"?>
<svg id="Layer_2" data-name="Layer 2" xmlns="http://www.w3.org/2000/svg" viewBox="0 0 654.5 341.44">
  <defs>
    <style>
      .cls-1 {
        fill:#808080
      }
    </style>
  </defs>
  <g id="Layer_1-2" data-name="Layer 1">
    <path class="cls-1" d="m321.67,195.29l1.47-.94v-.85s-1.47.1-1.9,0c-.42-.11-.84-1.15-.84-1.15l-1.05.11.32-1.05-.63-.85-.32-.84-.41-.63c.19-.42.19-.85.31-1.36.1-.53.42-1.26.42-1.26l-.72-.42s-1.27-.64-2-.73c-.74-.11-1.05-.23-2.1-.32-1.04-.1-2.93-.1-4.72-.42-1.78-.32-6.82-1.48-8.6-1.27-1.78.23-10.58,2.32-11.95,2.53-1.36.22-5.36.83-6,.83s-1.47-.2-1.47-.2l.42-.84s-3.46.21-3.88.32c-.42.11-2.51,0-3.04,0s-.73-.62-.73-.62c0,0-1.36-.32-1.79.09-.42.42-.72.74-1.26.97-.52.18-9.13,1.55-10.07,1.67-.96.09-7.88.52-9.25.74-1.35.2-9.85,1.87-10.92,1.87s-2.41-.09-2.41-.09l-1.05-.84s-4.61-.11-5.35-.11-2.31-.1-3.67.11c-.7.11-2.34.57-3.88.49-1.45-.06-4.3-.6-5.57-.6-2.62,0-16.68.31-16.68.31l-1.79-.61s-2.52.31-3.56-.11c-1.06-.42-2.11-.72-2.11-.72,0,0-3.14-1.17-3.56-1.28-.42-.1-7.25-.73-8.92-1.05-1.68-.32-4.31-.83-5.15-1.06.18.06-9.47-1.63-11.11-1.88-.63-.12-4.32-1.67-4.32-1.67l.13-1.05s-.86-1.27-1.38-1.38c-.51-.11-4.41-2.41-4.93-2.73-.52-.32-1.89-1.99-1.89-1.99,0,0,.11-.42.42-1.06.33-.61.12-.61-.51-1.16-.63-.51-2-.94-2-.94,0,0-1.57-2.32-2.74-4.62-1.15-2.3-1.67-2.62-1.47-3.97.22-1.39.42-4.51,1.69-6.52,1.25-2,4.31-5.66,5.03-6.29.74-.63,2.32-1.9,2.64-2.32.31-.42,1.67-2.1,1.89-2.31.2-.2.62-.42.62-.42,0,0-1.46-1.05-1.36-2.63.1-1.58.52-3.96,1.78-5.76,1.26-1.8,2.09-2.62,2.52-2.73.42-.11,1.58-.11,1.58-.11l2.32,1.26,1.04-.32s3.57-3.67,4.31-3.98c.73-.33,1.88-1.06,1.88-1.06l-.83-1.26s-.42-.74.32-1.06c.73-.32,2.51-.72,3.15-.72s2.19.11,2.19.11l1.16-.53s10.91-.96,13.62-1.17c2.73-.2,2.94.22,3.89,0,.94-.2,1.47-.31,1.89-.31h3.25l.94-1.04s2.09.11,2.53.11,1.99.09,2.93.09,2.52.42,3.26.42,2.83,0,3.25.11c.42.11,10.8,1.36,10.8,1.36,0,0,7.57-.85,8.09-.85s6.72-.82,8.19-.94c1.46-.11,9.64-1.27,12.69-.93,3.05.31,10.82.51,12.27.62,1.47.11,15.85-.42,18.47-.52,2.62-.1,4.31.21,7.97.3,3.67.12,9.88,1.57,9.88,1.57,0,0-1.47-3.24-3.67-4.5-2.22-1.26-8.71-3.67-9.87-4.21-1.16-.52-6.83-2.21-8.3-2.41-1.19-.18-2.42-.21-3.1.04-.88.59-1.42.91-1.42.91l.85-1.36s-1.58-.11-2.09.11c-.53.2-1.67.72-1.67.72l1.46-1.46s-.73,0-1.26.21c-.53.22-3.57,1.57-3.57,1.57h-.95l1.16-.94,2.3-1.06-.62-.51-4.1,1.35.95-.95,2.2-.95.42-.74-1.58.21s-.84.74-1.57,1.17c-.73.41-2.2.51-2.2.51,0,0,.96-.51-.32-.51s-2.19.51-2.19.51l2.19-1.36,1.36-.63s-1.47,0-2.09-.51c-.62-.53-1.05-.75-1.57-.65l-2.64.54-2.51.31,1.26-.85s-.41-.51-.93-.62c-.53-.11-2.32-.11-3.04.11-.75.2-1.48.33-1.9.33s1.05-1.06,1.05-1.06c0,0-.52-.21-2-.42-1.47-.22-3.14,0-3.14,0,0,0-2.64,1.57-3.15,1.79-.52.21,1.88-1.57,1.46-1.9-.42-.32-.73-.41-1.15-.41s-1.9.2-2.31.41c-.42.22-2.83,1.78-2.83,1.78l1.55-1.78s-.4-.41-.82-.41-1.36-.96-1.36-.96c0,0-4.42.43-4.93.51-.54.13-2.42,1.07-2.42,1.07l1.26-1.15h-1.56s1.46-.43,2.3-.54c.84-.11,3.98-1.46,3.98-1.46l-2.42-.11s-3.78.95-4.4,1.06c-.63.1-3.58,1.26-3.58,1.26l3.68-2.21.95-.74-.74-.12s-2.2-.41-2.62-.3c-.42.11-1.7.53-2.32.53s-3.24-.12-3.24-.12l2.3-.52s1.36,0,1.9-.11c.52-.1.62-.74.62-.74,0,0-1.68-.72-3.14-.51-1.48.2-3.04.41-3.78.31-.72-.11-1.78-.52-1.78-.52l2.62-.42s-.74-.64-1.26-.64-5.47,0-6.09-.19c-.62-.22-1.15-.74-1.15-.74l1.26-.22,1.25-.41s-.32-.32-1.05-.32h-2s.11-.43-.73-.53c-.22-.02-1.77.09-2.93-.14-1.66-.33-3.04-1.01-3.04-1.01h-1.06s1.06-.42.74-.84c-.32-.43-1.36-.21-1.89,0-.52.2-2.2.42-2.2.42l.51-.85s-1.14-.09-1.78-.31c-.64-.22-3.14-1.37-3.57-1.68-.42-.32-.52-.95-.52-.95l-7.98-3.67c-1.16-.52-5.87-2.31-6.5-2.73-.63-.42-2.2-1.69-2.2-1.69l1.78-.73-.73-.73s-.63.42-2.2-.73c-1.56-1.16-2-1.68-2.73-1.68s-1.46.63-1.46.63c0,0-7.03.93-7.78,1.16-.72.21-4.4.21-5.24.21s-1.9.42-1.9.42l-.63,1.15-1.04-1.35-.94.51s0-.61-.84-.51c-.84.1-.74-.31-.95.1-.22.42-.42.74,0,.95l1.26.62-.74.33.31,2.51s-.94-1.37-1.25-2.1c-.33-.74-1.16-1.16-1.16-1.16l-.94.83.21-1.25-1.15-.42-.32.94s-.85,0-1.26.1c-.42.12-1.26,0-1.26,0l1.47-1.76-2.42,1.15c-.42.21-1.46,1.79-1.58,2.21-.09.41-.2,1.76-.32,2.31-.09.51-.09,1.77-.09,1.77l-.64-2.32s-.83-.83-1.26-1.04c-.42-.22-.83-.32-.83-.32h-1.48s-.72.63-.94,1.15c-.22.55-.32,1.07-.32,1.07l.62,1.46-1.57-1.26-.84,1.69-.1,2.29s-.21-1.05-.73-1.05-1.06-.1-1.06-.51l-.73.51-.22,1.05s-.51.21-.83-.51c-.31-.74-.64-2.43-.64-2.43l-.87.45c-.63.85-.77.93-.84,1.35-.07.42-.07,1.61-.07,1.61l-.63.41s-.89-.91-.97-1.53c-.08-.62-.22-2.29-.22-2.29l-1.61,1.81s-.55.55-.7,1.18l-.21.92-.5.06s-.2.91-.35,1.19c-.12.28-.48,1.33-.62,1.68-.14.34-.22-2.32-.22-2.32l-.61.92-.64.13.51-.98v-.78l-.51-.21s-.41.36-.41.79-.14.77-.14.77c-.56-.69-.35-2.31-.35-2.31-.42-.36-1.05.2-1.18.49-.14.27-.29,1.26-.29,1.26l-.21-1.18.5-1.06s-.08-.14-.5,0c-.42.14-.97.5-1.33,1.06l-.84,1.33-.21,1.19-.49.55-.07-1.26-.49-.06s.9-1.35.63-1.41c-.29-.05-.99,0-1.2.35-.21.37-.27.49-.55.54-.29.09-.49.09-.49.09,0,0,.21.06.57-.92.33-.97.33-1.12.33-1.12,0,0,0-.54-.42-.26-.42.26-.91.9-1.2,1.05-.26.13-1.19.27-1.19.27l-.7-.21-.06-.77s-.64-.29-.91.13c-.28.43-.63,1.07-.63,1.07,0,0,.87-2.49-.62-1.75-.28.14-.84.35-1.4.42-.56.05-.49-.57-.49-.57,0,0-3.57,1.34-4.06,1.53-.5.21-1.95.7-2.29.79-.38.08-1.35.08-1.63.13-.29.07-.42.7-.42.7,0,0,.23.23,0,.56-.21.35-1.26,1.7-1.26,1.7l-.48.2s-.29-.28-.07-.71l.9-1.74s.28-.35-.21-.83c-.49-.49-.14-.76-2.74-1.75-.82-.32-1.24-.76-1.88-.93-1.37-.33-2.59-.19-2.59-.19,0,0-.98.4-1.54-.08-.55-.48-1.19-.35-1.19-.35l-20.77-1.18s-16.72-1.53-17.84-1.53-3.91.08-5.03.08-2.19-.14-2.19-.14l.92-1.35s-.7-.2-1.13,0c-.4.22-2.73,1.69-3.15,1.9-.42.22-6.29,1.75-7.56,2.18-1.25.41-4.12,1.74-4.12,1.74,0,0-1.04.06-1.18-.29-.14-.33.41-.75.69-1.18.28-.42.23-1.4.23-1.4,0,0-.28-.41-.5-.06-.21.35-.35.83-.56,1.19-.22.35-1.74.91-2.79,1.18-1.06.27-3.23.92-4.26.83-1.06-.06-3.24-.06-3.02-.77.19-.7,1.33-1.54,1.74-1.73.42-.22,2.25-.56,2.8-.7l1.33-.34s.42-.29-.62-.51c-1.06-.2-3.5-.49-4-.27-.49.21-7.55,1.74-9.29,2.52-1.76.78-8.97,4.54-9.32,4.82-.33.29-1.46.91-1.89,1.06-.42.14.14.37.31.77.12.42,0,2.25,0,2.95s-.22.9,0,1.39c.14.43.22.48.68.85.78.62.84.97,1.47,1.25.63.3,1.12.58,1.12.58,0,0-.56.05-.98,0-.42-.08-.78-.58-1.34-.63-.56-.05-.7.41-.96-.14-.31-.55-.31-1.05-.31-1.05,0,0-.48-.08-.97-.62-.51-.56-.99-1.63-1.2-2.61-.21-.98-.21-3.06,0-3.42.21-.36.92-.63.92-.63,0,0-.14-1.14-.14-1.81,0-1.12.07-2.17,1.02-3.05.6-.57,1.22-.82,3.67-1.78,1.75-.69,7.34-1.75,10.36-2.02,3.01-.3,6.15-.63,6.15-.63,0,0-.42-1,.5-1.34.91-.35,3.92-.49,5.39-.65,1.46-.13,2.73-.26,3.29,0,.55.3.77.51,1.04.65.28.15.98,0,.98,0,0,0,.21-.42.21-.89,0-.51-.13-.93.64-1,.77-.06,5.81-.21,7.28-.21s5.17-.48,5.73-.48,2.59-.08,2.59-.08c0,0,.42.16.35-.56-.07-.7.07-.77-.28-1.12-.35-.34-.7-.62-.7-.62,0,0,1.33.21,1.61.21s3.57,0,4.47.5c.9.48,4.55.98,5.95,1.17,1.4.23,29.86,3.44,29.86,3.44l6.8.64s.42-.28.62-.64c.22-.35,1.19-1.62,1.89-2.04.7-.42,3.7-.7,4.54-.62.85.07,2.19.28,2.88.07.7-.22,3.57-.49,3.57-.49l-.49-.7s1.4.14,1.75.2c.34.08,1.18.08,1.18.08l.49-.71-.23-.83.58-.5.14-.7-.98-.21s.34-.49.62-.49,1.75-.26,1.75-.26c0,0-.02-.57-.35-.78l-1.32-.84c-.36-.23-.5-.58-1.19-.64-.7-.05-.98-.21-.98-.21l.62-.36,1.46.15.22-.77-1.47-.22-.7-.57.77-.13,1.26.21s.62.34,1.17.56c.57.21,1.27.28,1.27.28,0,0,.14-.56-.14-.7-.29-.14-.7-.34-.64-.62.07-.28.07-.77.07-.77l-1.05-.78s.84-.14,1.2,0c.34.14.83.22,1.17.36.33.13.85.12,1.13.26.27.15.96.78,1.33.7.41-.42.28-.91-.15-1.25-.41-.34-1.53-1.53-1.53-1.53l-1.47-.08.78-.57-1.05-1.18.22-.5s.69.86.98,1.05c.29.22.98.15.98.15,0,0,1.95-.14,2.3,0,.35.14.98.54.98.54l.77.15s0-.85-.42-.85h-.69l-.5-.28c.35-.33,0-.49-.35-.68-.34-.22-.42-.64.21-.79.64-.14,1.33.36,1.68.42.35.06.7.21.7.21l2.02.92.49-.66-1.68-1.04,1.41.14-.98-1.12,1.47.08-1.54-1.2.92.08,1.26.89.83.14-1.11-1.34,1.75.77s.41.36.98.65c.55.27.77.14,1.26.21.5.06,1.19.83,1.19.83l.98-.06-2.79-3.16,1.32.9,2.82,2.81.97.41s.91.57,1.47.57.62-.14.62-.14c0,0,.08-.6-.48-1.12-.56-.49-1.18-.77-1.18-.77,0,0,0,.77-.64-.83-.62-1.62-.91-1.13-.84-1.9.08-.78.08-1.33.08-1.33,0,0,0,.57.41,1.25.42.7.5.8,1.06,1.05.56.3.7.3.84.57.14.29-.21.57.21.83.42.3.98.78,1.33.98.35.22,1.26.57,1.26.57l.3-1.26c.28-1.26.83-2.04.83-2.04,0,0,.7.51,1.31,1.27.36.47.56,1.28.93,1.45.26.14,1.67,1.19,1.67,1.19v-1.05s-.14-.55-.07-.98c.07-.42.57-1.55.57-1.55l.76.3s.08.76.36.84l1.26.35s.7.27.78,1.04c.06.77,1.17,1.35,1.45,1.69.3.34.92.9.92.9l.34-1.25-.76-.77s.83-.15,1.11.06c.28.21.42.28.84.98.42.7.7.86.77,1.12.07.26.7.91.7.91,0,0,2.03.36,2.45.48.42.14,10.71.56,16.38.98,5.65.42,7.2,1.34,8.8,1.4,1.61.07,2.86,0,3.64-.21.77-.21.5-.98,2.03-1.05,1.53-.08,2.5-.51,5.38.56,2.86,1.04,9.16,2.44,11.97,2.65,2.79.19,18.54,2.1,18.54,2.1,0,0,1.05-.28,1.89.05.83.35,1.81.65,1.81.65,0,0,.83-.21,1.46,0,.63.2,1.55,1.05,1.55,1.05,0,0,1.45-.83,2.37-.77.9.06,1.46.77,2.02,1.05.56.27,1.75.21,1.75.21l1.96.22-.64-1.12,1.82,1.82,2.18.42,1.26.9-.98-1.81s1.47,1.12,2.25,1.47c.75.34,1.05.34,1.05.34l-.49-.9,2.09,1.25.77.3-.35-.92s1.05.98,2.25,1.46c1.18.5,1.74.85,1.74.85l.14-1.39.63-.36s1.67,1.18,2.3,1.61c.63.42,1.46,1.13,1.96,1.35.49.2,1.46.27,2.3,1.1.85.84,2.09,1.47,2.09,1.47l-.48-1.75s.9.84,1.18,1.19c.28.34,1.13.92,1.13.92l.7-.92-.15-.77s1.34,1.69,1.9,2.3c.56.64,1.34,1.54,1.96,1.75.63.22,1.91.57,1.91.57,0,0-1.35-1.68-1.63-1.96-.28-.27-.06-.91-.06-.91,0,0,.56-.42.77.07.21.48-.06.7.28.78.34.06.98.28,1.26.47.27.23-.06.79,2.45,1.76,2.52.98,8.47,3.43,9.32,4,.82.53,1.6,1.1,1.6,1.1,0,0,1.18.08,2.87.7,1.67.65,9.3,4.2,10.49,4.9s8.26,4.7,12.11,7.7c3.84,3.02,7.13,6.73,9.02,8.68,1.26,1.29,2.75,3.16,5.05,4.77,1.17.82,3.08,1.57,4.2,2.18,3.27,1.74,3.77,2.5,3.77,2.5,0,0,1.12,1.35,1.68,2.11.55.75.7,1.05.7,1.05h.57s.34-.98.62-1.26c.28-.29.98-.64.98-.64l.62.21.36-.57s1.45,2.2,1.73,2.25c.79.12,11.27.92,11.27.92l-.21-.91-1.12-.99,2.45.63-.21-.89s.49.06.98.21c.49.13,1.54.07,1.75-.21.21-.29.21-.56-.42-.64-.63-.06-1.12-.27-1.12-.27l-.14-1.35-2.24-2.15,2.37,1.38s1.26,1.05,1.75,1.19c.49.15,1.18,0,1.18,0,0,0-.83-1.04-1.11-1.25-.28-.22-1.75-.98-1.75-.98,0,0,1.47.21,1.75.21s1.33-.06,2.02.06c.7.14,1.9.22,2.18.22s1.96,0,2.3-.08c.36-.05.63-1.11.22-1.17l-3.01-.57s.63-.55,1.12-.77c.49-.22,1.61-.2,1.96-.34.34-.15.89-.78,1.67-.7.78.05,2.04-.3,2.04-.3l4.2.08,1.17-.08.14-.76.99.91,1.95-.15.36-.97-.36-.72-.9-.62,1.74.62s2.24.93,2.73,1c.49.06-.28-1-.28-1l1.97.79,1.4.34-.58-1.34.58-.35s.78.86,1.26.92c.48.06.97.06.97.06,0,0,.43-.33-.05-.84-.49-.48-1.96-1.61-1.96-1.61,0,0,.7-.14,1.05.09.35.21,1.05.9,1.53,1.26.5.34.98.41.98.41,0,0,.63.22.22-.41-.42-.63-.7-1.35-.7-1.35l1.47,1.69s-.14.42.2.49c.34.05,1.19.27,1.34-.06.14-.36.48-.56.06-.85-.41-.28-.27-.83-.77-1.4-.5-.57-1.6-1.67-2.1-2.1-.48-.42-3.91-2.79-3.91-2.79l-.98.77.56-1.06-.71-.43-1.59.3.54-1.05s-1.33-.91-1.96-1.26c-.62-.34-7.76-5.39-9.02-5.88-1.26-.49-9.44-6.23-11.47-7.42-2.03-1.19-3.42-2.51-3.92-2.93-.5-.43-.98-.64-.98-1.47v-1.69s-.97,0-1.26-.27c-.26-.27-.34-1.33-.34-1.33,0,0-.13-.48-.48-.54-.49-.11-1.25.21-1.4.25-.29.06-6.02-.14-9.39-.2-3.35-.08-10,.97-12.65,1.33-2.66.33-7.76,1.41-9.24,1.33-1.47-.07-2.81-.06-3.22-.21-.42-.15-1.05-.15-1.74-.07-.7.07-1.26-.14-1.26-.14l1.81-.42s.36-.49.23-.92c-.15-.41-.72-1.18-.92-1.52-.21-.36-1.18-.98-2.17-1.49-.98-.48-6.56-3.58-7.96-4.53-1.41-.98-3.16-1.2-3.16-1.2,0,0-1.54-1.76-1.4-2.17.14-.42,1.26-.98,1.26-.98,0,0-.83-.42-1.46-.27-.64.13-3.56-.08-4.05-.14-.5-.08-4.5-1.13-4.34-1.54.14-.42.2-.63.7-.98.49-.36,1.9-1.34,1.62-1.26-.28.06-3.85-.23-4.33-.35-.5-.14-1.74-.57-2.65-1.68-.91-1.1-1.41-1.34-1.2-1.69.22-.33.07-.54.85-.42.77.15,2.65.22,2.65.22,0,0,0-1.32-2.37-2.73-2.39-1.4-5.73-1.73-6.01-1.73s-.42.56-.42.56v.69s-.77-.7-.77-1.19-2.02-.56-2.38-.35c-.35.22-1.18.57-1.47,1.34-.28.79-.35,1.62-.06,2.66.27,1.05.76,2.01.76,2.01l.36.58s-.9-.56-1.26-1.27c-.35-.69-1.05-1.26-1.05-2.52s-.14-2.09.64-3.56c.76-1.47,1.59-2.46,2.16-2.8.56-.34,1.26-.77,2.17-.56.91.22,3.86,1.47,5.31,2.17,1.48.7,3.02,1.95,3.72,2.52.7.57.9,0,1.88.42.98.41,2.18.85,3.08,2.01.91,1.2,2.04,2.31,2.66,2.31s.29,0,1.4.43c1.12.42,4.25,2.37,4.83,3,.56.62.84,1.26,1.26,1.45.42.23.56.42,1.13-.19.55-.64,1.26-.64,1.26-.64l3.36,3.1c.9.83,1.74,1.97,2.16,2.51.42.57.78,1.05,1.61,1.96.84.93,1.05,1.77,1.54,1.84.49.05.63-.14,1.26-.43.61-.29,1.67-1.11,2.37-.91.7.22,2.8,1.47,3.44,1.47l20.62.08s6.58.06,9.67.69c3.08.63,6.44,2.38,6.44,2.38,0,0,.89-.49,2.23,0,1.34.49,7.84,4.61,10.85,6.02,3.01,1.38,6.34,3.62,9.64,5.81,3.92,2.6,10.84,8.75,13.08,10.64,2.24,1.89,5.32,5.31,5.53,5.61l2.09,2.93.57-.64s.69.08.77.64c.05.58.77,1.53.77,1.53l.56,1.28s1.25-.79,1.18-1.35c-.06-.55,0-1.1,0-1.1,0,0,.84,1.16.91,1.81.07.63.62.42.62.42,0,0,.29-.22.08-.92-.22-.69-.5-1.04-.5-1.04,0,0,.7.7,1.26.89.56.23,1.05.09,1.05.09,0,0,.29-1.19.42-1.55.14-.34.63.63.85,1.13.2.48.7,1.46.7,1.46l.69-.06.28-1.18.78,1.81.35,1.06s.49-.49.49-.76c0-.3-.14-.15-.14-1s.35-1.41.35-1.41c0,0,.14.51.28.78l.49.93.34-.99s.06.14.14,1.2c.06,1.06.7,1.81.7,1.81l.91-1.31-.14-1,.7.14s-.21,1.26-.21,1.75.34,1.18.34,1.18l.57-.33s.14-1.26.14-1.55c0-.28.07-1.05.07-1.05l.89,1.34.43.83s.14-.33.35-.7l.9-1.53s.14.77.14,1.05v.98l.7.21h.77l.14-.89.91-.62s.06.26.06.97-.06,1.54.14,2.03c.21.49.55.7.9.7s.5-.36.5-.36c0,0-.28-.14-.14-.9.14-.78.97-1.89.97-1.89l-.07-1.05s.64.28.7,1.05c.07.76-.06,1.04.21,1.81.29.79.7,1.13,1.05,1.42.35.26.98.97.98.97,0,0,1.26.83,1.68.98.42.15.91-.27.91-.27,0,0,.56-1.47.56-1.74,0-.29.42.77.49,1.19.08.42.08,1.25.08,1.25l1.18.7,1.6-.82s0,.53.07,1.04c.08.48.08,1.17.08,1.17l.76.7s.49.99.57,1.49l.14,1.12.49.54,1.69-.41s-.99.7-1.2.98c-.21.28,0,1.1.08,1.46.06.36,0,1.04,0,1.04l1.04-1.31.49.47.85.63s.5-.62.5-.9v-.98s.48.85.41,1.19c-.06.35-.14,1.33-.14,1.33l1.4.15,1.26.12-.14,1.07,1.19-.57.77.42-.63.98s1.34-.56,2.59-.71c1.26-.12,3.28-.33,4.12-.49.85-.13,1.75.14,2.81-.55,1.05-.69,1.26-.93,1.75-1.53.48-.63.14-1.06.98-1.54.84-.5,1.13-.86,1.46-.64.35.22,1.62.42,2.46,1.05.83.64,1.12.92,1.33,1.54.21.64.06.98.42,1.48.35.48,1.69.84,1.69.84,0,0,1.26-1.13,2.09-2.26.84-1.1,4.97-8.47,7.48-11.95,2.52-3.49,6.65-7.98,8.47-9.94,1.82-1.96,5.17-4.83,5.6-5.05.42-.21,2.17-.42,2.66-.42s1.33-1.39,2.02-1.75c.7-.34,3.65-1.47,6.37-1.74,2.74-.27,12.11-1.75,16.37-2.17,4.26-.41,7.5-1.12,9.03-1.69,1.53-.55,4.69-.98,5.17-.77.49.22,1.81.57,1.81.57,0,0,.42-1.35.98-1.76.56-.42,3.21-.91,3.21-.91l1.06-1.06s.62-.54,1.19-.54,1.11-.43,1.11-.43c0,0,.28-.98.49-1.33.21-.35.64-1.19,1.33-1.26l1.54-.14.83.84s.78-1.33,1.41-3.7c.62-2.38,1.11-4.42,1.11-4.76,0-.35.16-1.13.16-1.13,0,0-.43-.56-.93-.5-.49.09-1.38.09-2.1.64-.28.23-.42.07-.74.36-.44.44-.99,1.32-.99,1.32,0,0-.09-.62.2-1.19.29-.56,1.89-1.98,3.22-2.24,1.35-.28,2.65-.05,3.15.07.49.14.63,0,1.05.49.43.49,1.12.84,1.12.84,0,0,.34.14.28,1.54-.06,1.4-1.19,2.66-2.02,3.92-.85,1.25-3.01,3.91-3.5,4.89-.48.98-1.04,1.53-.85,1.9.22.35.78.55.78.55l2.87-.28c.84-.07,1.05.28,1.05.7s-.21,1.4-1.05,1.9c-.84.49-1.96.54-2.46.7-.49.14-.28.7-.28.7,0,0,.36-.06.28.49-.06.55-.42.91-.69.97-.29.08-3.1.22-3.37.22s-.5-.33-.63.2c-.14.58-.27,1.35-.27,1.35,0,0-.78.49-2.18.77-1.4.28-3.85-.06-4.2.21-.33.28-.84,1.05-1.46,1.63-.63.54-2.65,1.25-3.93,1.39-1.25.15-11.12.62-15.17.77-4.06.14-16.72.28-17.07.42-.36.14-.85.62-1.05,1.12-.21.49-.84,2.23-.84,2.23l.84.34s-.62,1.14-1.33,2.53c-.7,1.41-2.87,4.49-4.13,7.01-1.26,2.51-3.43,5.81-4.76,7.33-1.33,1.56-2.17,2.75-5.04,6.11-2.87,3.35-3.22,3.57-3.22,3.57l.78.35s.7.42,1.47.61c.76.21.91.08,1.05.64.14.58.35,1.19.35,1.19,0,0,.4-.42.55-.7.14-.27,0-.63.63-.27.62.36,1.05,1.19,1.05,1.66,0,.51,1.61-.42,1.61-.42l1.75-.62-2.3,1.54-.56.77.76.14,1.75-.64.29-.63.62.36.56-.51s.07-.6.34-.47c.29.14.5,1.11.5,1.11,0,0,.63.02.63-.29,0-.27.21-1.04.21-1.04l.91.22.14-1.13.7-.28-.29-1.26s.71.57.86.91c.13.34,1.1,2.11,1.6,2.37.5.3.71.42,1.39.14.71-.29,3.7-.7,5.53-.21,1.82.49,3.3,1.54,4.41,2.59,1.13,1.04,1.76,2.58,1.76,2.58,0,0,.91.08,1.19.08s.49-.29,1.47.07c.98.34,1.62.7,1.62.7,0,0,2.57-2.52,3.41-5.26.84-2.72,1.75-5.24,2.73-6,.99-.78,1.95-.98,2.51-.98s1.21.06,1.21.06c0,0,.75-.89,1.53-1.14.78-.2,1.96.07,1.96.07l1.2-1.46s.98-.84,2.02-.55l2.1.55s4.88-.48,7.62-1.96c2.73-1.47,5.17-2.73,6.65-3.58,1.46-.83,3.21-1.26,4.25-.98,1.06.29,1.81.7,1.81.7,0,0,4.21-1.47,6.45-2.3,2.24-.85,3.42-1.89,4.19-2.65.78-.77,1.96-1.19,2.79-1.13.85.06,1.69.22,1.69.22,0,0,3.36-.87,5.6-2.11,2.24-1.26,5.95-3.21,8.89-4.96,2.93-1.75,5.3-3.58,6.14-3.99.84-.42,1.4-.58,2.6-.92,1.18-.34,2.51.14,2.51.14,0,0,10.15-6.23,13.16-8.4,3-2.18,7.06-4.7,9.16-6.73,2.1-2.03,3.14-3.01,3.84-3.22.7-.21,2.38-.42,2.38-.42,0,0,10.7-8.6,13.15-10.99,2.46-2.38,8.61-7.62,9.24-8.32.63-.72,1.34-1.13,1.96-1.13s.98-.36.98-.36c0,0,8.18-8.6,8.81-11.11.63-2.53,2.51-3.72,2.51-3.72,0,0,.23-2.66.36-3.58.14-.89.7-5.53.63-6.09-.07-.56-.42-4.82-.7-5.6-.3-.75-.84-2.02-.98-2.86-.14-.84-.07-1.18.14-1.75.21-.56.62-.85.62-.85,0,0-.55-2.02-.83-2.58-.29-.56-1.69-4.83-2.93-7.13-1.26-2.31-3.64-5.33-4.2-6.23-.56-.91-.98-1.21-1.05-1.55-.07-.35-.14-1.18.14-1.4.28-.2.49-.56.49-.56-.42-.42-1.94-.56-3.28-1.4-1.34-.83-8.19-5.53-11.76-7.83-3.55-2.3-9.3-5.39-10.55-5.9l-2.74-1.04s-.48-.71-.35-1.19c.14-.49,1-1.12,2.74-1.12s5.25.77,8.33,2.03c3.06,1.26,7.11,2.86,10,5.17,2.86,2.32,5.73,4.63,7,5.89,1.26,1.26,1.75,2.32,2.17,2.87.42.55.56.83.84.69.28-.14.63-.56,1.26-.56s.49.02.83.51c.35.48.57.9,1.47,2.37.91,1.46,3.77,6.37,4.54,8.04.77,1.7,1.4,4.58,1.47,5.53.07.99,0,3.86,0,3.86,0,0,1.41.64,1.75.84.35.22.7.93.9,2.18.22,1.25.63,8.82.63,9.87s-.48,3.99-.76,5.03c-.28,1.06-1.12,2.81-1.4,3.16-.28.33-.92,1.34-.92,1.34,0,0,1.68,1.04,1.81,1.73.14.7-.06,1.96-.48,2.51-.42.58-2.45,3.02-2.8,3.74-.35.7-1.2,1.67-1.75,2.23-.57.55-.98.63-2.25,1.96-1.25,1.33-1.72,2.02-2.23,2.65-.49.62-3.21,2.87-3.21,2.87,0,0,.77,1.06.84,1.68.07.65-.42,1.26-.77,1.61-.35.35-2.37,1.61-3.36,2.25-.98.62-3.49,2.58-4.97,3.64-1.46,1.05-10.08,7.2-11.48,8.04-3.41,2.06-6.88,4.55-6.99,3.64.07.56.22.73.57,1.27.6.96.75,1.93-1.26,2.85-.91.42-4.84,2.59-6.65,3.78-1.82,1.19-10.56,5.94-13.01,7.29-2.45,1.31-7.13,3.57-7.42,3.63-.28.08-1.95.65-1.95.65,0,0,.36,1.04.05,1.59-.27.57-2.3,2.04-3.98,2.65-1.67.65-9.71,4.14-11.53,4.71-4.1,1.25-9.8,3.21-9.8,3.21,0,0-.7,1.19-1.75,1.83-1.06.62-3.5,1.46-5.81,1.87-2.3.42-8.54,1.97-8.54,1.97,0,0-1.12,1.62-1.74,1.82-.64.22-6.4,1.57-7.55,1.79-1.16.22-11.23,2.4-11.23,2.4,0,0,0,.97-.54,1.27-.52.33-1.04.52-1.87.2-.85-.31-1.59-.61-1.59-.61l-.73.94s.63.84.73,1.69c.09.67-.23,2.65-1.51,4.7-.49.79-1.89,1.37-3.08,2.19-2.06,1.41-4.16,2.94-4.53,3.18-.74.43-1.69,1.15-1.69,1.15,0,0,3.37,2.51,3.77,3.98.43,1.49.86,3.17.65,5.57-.22,2.41,0,3.05,0,3.05l1.55.09s-1.14.44-1.35.84c-.21.43-.42,3.48-.64,4.42-.22.94-.42,2.21-.42,2.21,0,0,.2,1.26.11,1.67-.11.42-.85,1.27-1.48,1.57-.61.32-1.03.42-1.15.85-.11.41-.33,1.04-.63,1.57-.32.52-2.2,2.22-2.2,2.22,0,0,3.88,3.56,6.09,5.44,2.2,1.89,3.88,4.72,4.62,5.99.74,1.27.94,2.53.74,3.36-.23.85-1.16,2.53-1.16,2.53l.72.62s1.57-.83,2-.83,1.37.42,1.37.42l.51,2.09s9.24,3.48,11.95,4.52c2.74,1.06,3.58,1.56,4.21,2.53.63.93,1.16,1.98,1.16,1.98,0,0,3.04,1.16,3.46,1.25.42.13,6.93,2.21,8.19,2.85,1.26.63,2.93,2.22,2.93,2.22l.73,1.55s1.47,0,2.32.42c.83.42,7.12,2.94,9.96,4.51,2.84,1.6,8.71,4.22,9.55,4.84.83.63,2.3,1.16,2.3,1.67,0,.54.11,1.91.11,1.91,0,0,1.01-.07,2.37.49,3.75,1.5,10.91,4.89,12.52,5.8,2.21,1.28,5.78,3.37,6.19,3.67.42.33,5.55,3.16,5.55,3.16,0,0,3.16,1.36,3.78,1.9.64.51.84,1.16.64,1.9-.22.72-1.06,1.57-1.06,1.57,0,0,2.83,1.05,4.4,2.09,1.59,1.05,5.05,4.32,6.52,5.25,1.47.94,3.25,1.69,4.09,2.52.83.84,3.67,3.25,4.6,3.98.96.73,3.58,2.84,4.21,3.17.63.32,1.78.93,2.09,1.99.32,1.06-.2,2.52-.2,2.52,0,0,1.77.96,3.46,2.31,1.68,1.37,3.89,3.03,4.82,3.89.75.66,2.46,2.78,3.5,4.49.88,1.44,1.21,2.69,1.01,1.59.22,1.16.22,2.43-.11,2.84-.32.42-.94,1.15-.94,1.15,0,0,0,1.48.21,2.31.21.86.42,5.57.42,6.83s-.42,6.4-.51,7.34c-.11.96-.43,2.96-.64,3.47-.21.53-.32,1.15-1.04,1.46-.74.33-2.41.33-2.41.33,0,0,.25.55-.15,1.51-.19.42-.76.95-1.12,1.54-1.16,1.89.64-.51.64-.51,0,0-3.26,6.09-7.56,9.13-4.31,3.04-8.41,5.98-8.41,5.98,0,0-1.16-.11-1.56-.22-.74-.21-1.47.11-1.68.74-.22.62-3.36,3.37-4.84,4.31-1.45.93-6.18,3.88-9.22,4.94-3.05,1.04-6.73,1.46-7.35,1.79-.62.31-4.4.94-5.04.94s-4.71,0-5.35-.32-1.47-.42-1.47-.95.52-.96.52-.96c0,0,2.41-1.04,4.72-1.65,2.3-.64,3.04-.97,7.86-2.75,4.83-1.77,7.15-2.62,9.03-3.67,1.89-1.06,5.67-3.05,6.52-3.35.82-.32,3.87-1.27,3.87-1.27l-.83-1.56s-1.26-.52-.84-.85c.42-.33,1.78-.84,1.78-.84,0,0,5.66-3.04,8.6-5.56,2.93-2.52,7.02-6.3,7.02-6.3l1.8-1.26s-1.26-.11-1.36-1.57c-.11-1.47.62-2.11.62-2.11,0,0,1.77-3.47,2.31-6.09.51-2.61,1.15-5.46,1.15-6.39s.33-4.43.33-4.43c0,0-1.27-.41-1.68-1.35-.42-.96-.33-1.69-2.21-4.11-1.9-2.43-4.94-5.66-5.77-6.4-.84-.72-2.2-2.09-2.2-2.09,0,0-1.16.11-1.79,0-.62-.11-2.09-1.69-3.77-3.67-2.24-2.64-18.57-17.02-18.57-17.02,0,0-1.47-.31-2.84-1.05-1.35-.72-8.81-6.29-12.27-8.38l-13.97-8.41h-1.15l-2,.31s-2.51-1.47-4.71-3.24c-2.21-1.8-8.93-6.42-11.03-7.77-2.09-1.36-5.55-2.85-5.55-2.85,0,0-3.03,0-3.67-.41-.63-.42-1.36-.42-2.73-2-1.36-1.56-4.72-3.57-6.71-4.4-1.99-.85-3.67-.53-3.67-.53,0,0-.73.53-2.2-.53-1.48-1.04-1.48-1.46-3.78-3.04-2.3-1.57-4.41-3.04-6.29-3.97-1.89-.97-2.19-.74-3.36-1.27-1.15-.52-1.68-.73-1.68-.73,0,0-.93.42-1.9.14-.77-.23-1.56-1.07-1.67-1.82-.1-.74-.83-1.26-.83-1.26,0,0-.84.61-1.79-.11-.94-.74-.54-.86-.54-.86,0,0-.2.65-1.55.24-1.37-.45-1.59-1.07-2.32-2.64-.38-.86-1.21-4.71-2.56-8.18-1.15-2.97-2.89-5.69-2.89-5.69,0,0-.84.73-2.31.53-1.46-.22-1.78.51-1.78.51,0,0-2.94,3.36-3.78,3.68-.84.32-3.99,1.88-6.19.94-2.19-.94-3.87-1.26-3.87-1.26l-.63,1.59-2.31-2.74-1.99-.63-.22,1.89-1.79-1.78.12.95-1.06-.63-.52,1.57-2.1-.11s-.72-.11-1.26.22c-.51.32,1.47,5.03,1.47,5.03l-2.32-3.87-.08,2-1.06-2.64-.86-.08.33,2.39-.63-.84-.32,1.68-.42-1.36-.53,1.36-.51-1.36-.84,1.36v-1.68l-.84.52v-1.04l-1.68,2.09.95-2.3-1.05.21-.42-.96-1.46-.3-1.47-.1-4.42,1.56-.95.94s-1.05,1.47-1.68,1.58c-.62.1-2.73.94-3.34.83-.63-.09,1.25,2.64,1.88,3.46.63.86,5.24,8.95,6.4,10.42,1.15,1.46,3.99,6.71,5.15,8.81l1.16,2.1s2.09,5.25,2.72,7.55c.62,2.31,2.31,5.89,2.84,7.55.52,1.69.21,2.11-.33,2.54-.53.43-.93.61-.53,1.05.43.42.86,1.16.86,1.67,0,.53.1,1.17.1,1.17,0,0,14.69,13.11,15.85,14.9,1.15,1.79,2.84,3.37,2.84,3.37l2.09.61c1.05.32,1.16.42,2,1.06l.84.63s.63.84.63,1.37-.43,2.09-.43,2.09l.53.42s.73-.83,1.58-.96c.83-.1,1.89-.1,3.14.23,1.26.31,2,.08,2,.94v.83l-1.37,1.36.31.85s1.9-1.15,2.74-.94c.83.2,3.04,1.15,3.04,1.15l1.16,1.06s.73.63.1,1.14c-.64.53-3.57,1.26-3.57,1.26l9.54,2.52s2.53,1.37,2.53.65v-.75s.94-.84-1.06-1.78c-2-.96-.31-.86-.31-.86,0,0,1.67.76,1.99,1.27.32.52.42.63.42.63,0,0,.32,1.16.21,1.78-.1.63-1.05,2-1.05,2l-.64.11-.31,1.56-.95,1.36s-.93.42-2.4-.3c-1.48-.75,1.35-.65,1.35-.65l-9.24-5.35-.52.42s0,1.78-.73,1.78-1.78-.31-2.73-1.35c-.94-1.06-1.05-.54-1.78-1.69-.73-1.17-.63-2.42-.63-2.42,0,0-1.05,1.79-1.58,1.9-.52.1-1.26-.51-1.26-.51,0,0-1.15-1.07-1.35-1.9-.22-.84-.85-2.95-.85-2.95,0,0-.1-.51-.74-.09-.62.41-1.77,1.04-2.19,1.15-.42.11-4.73-2.32-4.73-3.78s-.62-1.47-.62-1.47l-1.05.11s-.69-.66-1.24-1.51c-1.36-2.01-3.51-5.51-4.86-6.99-1.88-2.1-8.06-10.4-9.33-11.14-1.26-.72-.74-1.68-.74-1.68,0,0-.64.11-1.06-.62-.41-.74-.62-1.79-.62-1.79,0,0-.74.11-1.89-.61-1.16-.74-8.71-13.15-8.71-13.98s-13.12-33.18-13.22-33.92c-.1-.72-.52-1.04-1.36-1.04s-1.47,1.89-1.47,1.89l-.53-1.05-1.04,1.66-.51-1.76-2.94.51-.11,1.48-.74-1.48-1.15.64.82,2.41-1.77-1.36-1.26.93,1.99,1.49-3.04-.42,2.63,2.52-3.99-.52-.1,2.41,1.36,1.68-3.37-2.09-2.2,1.27.54,2.19,1.15,1.35-2.2-.72-.95,1.04-.94-1.04-1.37.2-1.05.42-.04.76-.07,1.35-.62.33-.51-2-1.06.64-.32,3.77-.74-2.4-.52,1.89-.42-2.41-.84.52-.33,2-.31-2.11-1.26,1.57-.31-.83-1.79,3.47.11-3.27-1.16-.3-.09,1.97-.53-1.25-1.26,4.1-.1-2.95-.64,1.07-.31-1.58s-.53.43-1.47,1.58c-.95,1.15-4.4,6.6-6.09,7.87-1.67,1.25-7.76,7.45-10.17,9.13-2.42,1.68-13.44,9.66-16.59,11.02-3.15,1.39-7.12,2.64-9.75,3.9-2.63,1.26-3.37,2.09-5.99,3.36-2.63,1.26-3.36,1.16-3.36,1.16,0,0-1.63-.5-2.09-.11-.52.42-1.47.74-3.26.85-1.78.09-25.81,2.3-26.76,2.19-.94-.11-1.26.52-2.62.95.66-.21-1.57,1.17-3.57-.42-1.04-.84-1.36-.32-1.36-.32l-11.76,5.45-.21-1.05s-.52-.73-.94-.52c-.42.21-6.72,4.1-7.35,4.1s.22-.94-.41-1.68c-.64-.73-1.27-.11-1.27-.11,0,0-.95,1.69-1.99,2.52-1.06.84-2.32,1.57-3.16,1.57s-1.46.32-2.09-.41c-.62-.73-1.15-1.47-1.15-1.47,0,0-8.6,3.14-9.76,3.14s-2.09.42-2.09.42v-.52l-2.1-.52-.12-.53,1.37-.51s-.52-.64-.84-1.9c-1.31-5.25,3.68-5.35,3.68-5.35,0,0-1.53.84-2.22,1.76-.63.87-.41,1.81-.41,1.81l.21.85s9.13-.12,10.91-.53c1.79-.42,4.1-.52,4.31-1.06.22-.51.11-.61-.63-.61s-3.98-.43-4.19-1.16c-.22-.73,1.04-1.56,2.09-1.88,1.05-.33,3.15-.33,3.67-.33s2.19.94,2.19.94l1.69.63-1.69-3.04s1.06-.21,2.94-.21,3.77,0,4.72.73c.95.73,1.06,1.16,1.67,1.05.64-.1.64-.42.75-1.05.11-.62-.95-2.19-.95-2.19l13.21-2.11,1.9-.72,1.89-1.79-.94-.85,2.19-.09s1.26-.42,3.99.2c1.44.33,6.23.98,11.76,1.17,4.86.19,10.48-.04,11.95-.43,1.93-.51,2.84-.22,2.84-.22l.95-1.15.64-.85.2-1.36s.53-.94,2-2c1.47-1.04,8.39-5.05,12.07-7.02,3.67-2,14.27-7.37,15.95-7.98.49-.2,1.47.05,1.28-.28-.47-.8-1.04-1.57-1.04-1.57l1.97.81,1.89-.43-2.48-1.72,3.21,1.3,1.16-.83-.73-1.59,1.56,1.16.73-.32-1.14-.93,2.4.41,1.57-1.14-.73-1.28-.42-.94,2,.11.31-.62h2.42l.93-.42,1.69-2,.52-2.1.42-1.27-.22-1.15s-1.46.97-1.68,1.47c-.21.53-.74,1.16-.74,1.16l-.51-1.25s-.84.94-1.15,1.36c-.33.41-.42.31-.53-.85-.1-1.16-.84-.93-.84-.93,0,0-.42.31-.73,1.25-.32.94-.53.94-.53.94,0,0-.1-1.44-.31-2.1-.2-.62-.95.75-.95.75l-1.05.62-1.22.07s.91-.08,1.18-.84c.28-.78-.21-.62-.21-.62,0,0-.91.55-1.12.82-.2.28.35-1.4.35-1.4,0,0-.62-.14-1.46.63-.84.77-1.26,1.34-1.26,1.34,0,0-.08-.54-.08-.84v-.61s-.27-.43-.69,0c-.42.42-1.05.77-1.53.98-.5.19-1.13.83-1.13.83,0,0,.07-.77.21-1.19.14-.43.92-1.74.92-1.74,0,0-1.41.55-1.82.61-.42.08.13-.83-1.48.51-1.61,1.31-1.46-.15-1.46-.15l-.7-.28-.06-.79s-1.18.7-1.81,1.13c-.63.42-.98.51-.98.51l1.4-1.83s-1.05.5-1.46.5-.49-.42-1.2-.14c-.7.27-.98.63-.98.63l-.35-1.06-1.53-.14s-.35-.05-.98.14c-.63.21-1.06.42-1.06.42,0,0,.57-.77.63-1.05.07-.28,0-.56-.42-.71-.42-.14-.56.51-.56.51l-.78.98-.55-.34s.42.28.48-.42c.07-.71-.06-1.05-.48-.64-.42.43-.7.64-.7.64,0,0-.07-.51-.29-.98-.21-.5-1.69,0-1.69,0,0,0-.49.33-1.04.05-.57-.28-1.05-.28-1.05-.28,0,0-.91-.27-1.48-.27s-.76-.28-.76-.28l.14-1.47-.99.62s.35-.89.14-1.18l-1.81.7s.2-.42-.07-.92c-.27-.49.56-.56-.77-.83-1.34-.27-1.75-.07-1.75-.07l.83-.97s-.83,0-1.11-.09c-.28-.06.35-.55.21-.83-.14-.29-.9-.91-.9-.91,0,0,.14-.42-.14-.57-.28-.12,0-.78-.84-.26-.83.5-.27-.7-.27-.7l-.64-.63-1.75.06,1.07-.77s.5-.55.14-.55-.99-.15-.99-.15c.42-.42.51-.62-.26-.62s-3.99-.14-4.7-.14-1.46.22-1.46.22c0,0-.5.62-.92.83-.42.21.28-.62.21-1.05-.06-.42.57-1.6-.34-.77-.91.84-1.75.84-1.75.84l.36-.78s-.51-.14-.92.22c-.42.36-.82.07-.82.91v.98s.05.36,0,.98c-.08.64-.16.83-.7,1.13-.58.26-.86.14-1.48.5-.63.33-.63.96-1.19,1.04-.27.03-1.1.26-1.41,0-.6-.45-.61-1.54-.61-1.54,0,0-.53.19-.91.53-.31.3-.44.72-.7,1.07-.56.77-1.54.86-2.38,1.53-.83.7-4.75,2.46-6.72,3.37-1.96.9-3.01.78-3.01.78,0,0-3.49,1.11-4.26,1.68-.78.56-4.77,3.91-7.49,5.39-2.73,1.47-9.86,4.74-12.52,5.74-2.66.98-7.29,1.81-8.04,2.17-.77.34-2.8,1.33-3.77,1.6-.98.28-3.02.7-3.02.7,0,0-1.25.98-1.96,1.13-.7.12-3.14.12-3.77.34-.63.21-2.66,1.46-2.66,1.46l.62-.77s-1.81.21-2.37.56c-.55.36-2.6,1.75-2.86,1.75-.29,0-1.75.14-1.75.14,0,0-.22.56-.51.77-.27.22-1.25.14-1.25.14l-.14,1.12-.76.61-2.52,1.35-.92.89s-.13-.7.57-1.81c.7-1.13,1.89-1.27,2.37-1.82.5-.56.42-1.26.42-1.26,0,0-.56.05-.9.41-.35.36-1.34,1.48-1.34,1.48l-1.53.49s.7-.6.35-.32c-.35.27.39-.39.7-.66.77-.7.85-.99.85-.99,0,0-.78-.26-.98.15-.22.42-1.9,2.09-1.9,2.09l-1.05.36-.13-.7s-.86.29-1.35.78c-.48.48-1.39,1.53-1.39,1.53,0,0-.62-.21-1.6.43-.99.61-1.06.83-1.06,1.13,0,.27-.36.77-.36.77,0,0-.42-.91-.27-1.33.14-.42.9-1.7.9-1.7,0,0-.08-.25-.42-.61-.34-.36-.64-.09-.77.33-.14.43-.63,1.63-.84,1.98-.22.35-.71,1.33-.71,1.33l-.47-1.74s-.29-.7-.51-.43c-.2.28-.62.7-.7,1.06-.06.35-.7,1.88-.7,1.88v-1.73s-.36.4-.7.76c-.35.34-.97.84-.97.84l-.29-.56-.78.3.56-1.13s.91-.79.98-1.13c.06-.36.06-1.04.06-1.04l-1.12.83c-.28.21-.76.62-1.11,1.25l-.7,1.26-.78-.74-.49.2s-.42-.14-.06-.5c.34-.33,1.19-.77,1.19-.77l.34-.56s-.7-.07-1.33.29c-.63.35-1.32,1.25-1.61,1.46-.28.22-1.26.28-1.26.28,0,0,.78-.42,1.05-.92l.57-.97s-.98,0-1.68.42c-.7.43-1.34.83-1.61,1.19-.28.34-1.47,3.21-1.47,3.21l.14-2.17.36-1.47-.64-.06s-1.69,1.38-2.03,1.74c-.34.36-1.61-.21-1.61-.21l.84-1.17.63-.78s-.5-.51-.92-.08c-.42.43-1.18.91-1.41,1.2-.2.27-1.17,1.11-1.53,1.46-.34.34-1.4.42-1.18.15.21-.29,1.46-1.26,1.67-1.55.21-.28-.28-.56-.28-.56,0,0-1.47.55-1.74.89-.28.36-2.17,1.13-2.17,1.13,0,0,.48-.77.56-1.16.07-.44.21-1.3-.28-1.22-.49.09-.35-.26-2.17.86-1.82,1.11-2.88,1.26-3.23,1.19-.34-.08.64-.77.79-1.07.14-.27-.15-.42-.71-.42s-1.61.51-2.31.84c-.7.35-2.57.14-2.57.14,0,0,1.88-.79,1.33-1.13-.56-.33-1.54.22-2.1.43-.55.19-1.89.4-1.89.4,0,0,1.89-1.03,1.4-1.1-.29-.05-.65-.27-1.38-.14-.54.11-1.47.56-1.77.62l-3.29.7s1.47-.63,2.03-1.19c.57-.58.42-.62.42-.62,0,0-3.3.42-3.92.56-.63.13-3.28-.09-4.97-.51-1.68-.4-7.69-.46-8.75-.46s-8.73-.15-10.12-.51c-1.42-.33-.99-.77-1.69-1.18-.7-.42-2.87-1.39-3.36-1.39s-1.82.13-2.59.83c-.77.7-3.57,1.82-4.27,2.03-.7.23-10,2.03-10.21,2.46-.21.42,0,1.19,0,1.19l.07,1.18-.62-.48s-.71,0-.71.55-.14.85-.76,1.19c-.62.33-1.26.62-1.13.92.14.27.36,1.25.36,1.25-.7.06-.78-.21-1.2-.42-.41-.22-.83-.64-1.19-.22-.35.43-.49.92-.27,1.2.2.27.42.7-.14.34-.56-.34-1.33-.54-1.33-.54-.14.76.28,1.25.28,1.25l.43.62.54.86s-.42.06-.7.06-.21.62-.21.62c-.07.42-.56-.21-.91-.56-.35-.33-.91-.41-.91-.13-.27.41-.27-.09-.55-.29-.29-.23-.63-.7-.91-.63-.28.06-.78.15-.78.5s.35.98.35.98l-.84-.15s-.77-.34-1.06-.28c-.27.09-.41.56-.7.56-.26,0-.7-.28-.7-.28l-.14-1.68s-.35.06-.77.56c-.42.51-.21.98.05,1.05.3.07.56.28.71.77.14.5-.07,1.69-.07,1.69h-.56l-.49-1.19s-.56-.34-.91-.21c-.34.13-.49.7-.49.7,0,0-.08-.77-.22-1.1-.13-.37-.42-.85-.62,0-.21.82-.21.33-.21.33l.2,2.08-.54-.88s-.29-.3-.5.06c-.22.35-.64.09-.64.09l.08-1.9s-.62-.15-.98.13l-.85.62-.14.93-.55-.78s-.63-.15-.91.07c-.28.19-1.26.62-1.74.92-.5.26-1.4,1.26-1.4,1.26l-.5-.86-.98-.49-.64.42s.42-.91.42-1.4-.48-.7-.48-.7l.76-.89s-.35-.57-.84-.14c-.5.42-.76.83-.84,1.13-.06.27-.06.76-.27,1.18-.22.41-.63.98-.63.98,0,0-.14-1.54-.42-1.68-.28-.14-.49-.21-.98.41-.5.64-1.54,1.35-1.54,1.35,0,0-.55.05-.9-.22-.36-.27-.85-.77-.85-.77l-.7-.21s1.13-.86,1.13-1.13-.36-.42-.64-.33c-.28.05-1.04.54-1.33.7-.27.14-1.46.14-1.46.14l1.81-1.39.35-.79s-.35-.41-.78-.07c-.42.34-2.17,2.04-2.17,2.04l.49-1.18-1.61.33,1.12-.9s.78-.56.43-.7c-.36-.14-.99-.21-1.33-.14-.36.08-.72,0-.72,0l.58-.77.97-1.18s-.35-.28-.76-.06c-.42.21-1.75.62-1.75.62l.34-.92s-3.01.51-4.61.58c-1.62.06-4.2-.07-5.05-.91-.83-.86-1.26-2.24-1.26-2.24,0,0-2.53.46-5.72.71-5.21.4-12.35.67-14.69.76-3.78.13-6.72.34-10.08.68-3.36.37-16.31,2.26-16.31,2.26,0,0-.07-.14-.27-.83-.22-.7-.23-1.13-.57-1.06-.36.05-1.53.56-2.45.98-.91.42-4.4.82-5.37,1.18-.98.35-5.61,1.48-6.17,1.69-.55.21-2.94.92-2.94.92,0,0-.2-.3-.14-.92.07-.63,0-.98-.27-.98-.29,0-1.13,0-1.34.35-.21.36-2.02,1.73-2.8,2.31-.78.56-2.46,1.18-3.29,1.4-.85.22-2.52.27-3.36.27s-1.41-.05-1.47-.49c-.06-.42.49-.99.63-1.33.14-.34-.21-1.04-.21-1.04l-4.41.76c-2.1.35-6.3,2.1-7.91,2.66-.88.3-2,.8-3.3,1.16-1.25.34-2.67.57-2.93.68-.34.12-.7.61-.7.61,0,0-.49.21.49.62.98.42,1.19.35,1.19.35l1.81.22s-1.26.57-1.74.57-2.53-.51-3.29-.79c-.78-.28-.91-1.12-.98-1.39-.06-.29.21-.9.21-1.62s-.21-1.82-.55-2.23c-.35-.42-.98-.98-.98-1.61s.13-1.98.84-2.74c.69-.76,1.73-1.33,2.3-1.46.57-.14,1.95,0,1.95,0,0,0-.98.2-1.67.5-.38.14-.46.41-.7.55-.7.42-1.12,1.33-1.05,1.74.06.43.49.86.83.86.36,0,1.62-.28,3.86-.42,7.97-.51,14.97-.66,15.74-1.06.55-.27.91-.62.91-.62,0,0-.71-.7-1.19-.78-.49-.06-.85-.98-.85-.98,0,0,.36-1.34,3.5-1.61,6.21-.56,5.68.32,8.11.98.78.21,1.47-.51,1.47-.51,0,0,0-1.24-.28-1.53-.27-.27-1.47-.42-1.05-.76.42-.37,2.31-.42,2.31-.42,0,0,12.17-.06,12.87.05.7.14,2.72.37,3.08.37s.7-.37.62-.64c-.06-.27-.34-1.55.07-1.68.42-.13,3.22-.14,6.93-.42,3.71-.27,16.78-.89,16.78-.89l25.74.13s2.38-1.62,3.37-2.32c.98-.7,3.21-1.04,3.63-1.04s1.2.14,1.76.33c.56.23,2.25.14,2.25.14l-1.13-.54,1.46-.43s-.56-.49-.98-.56l-2.09-.42.7-1.38,1.17.13-.9-1.34s-.2-.63.34-.77c.56-.14.56-.56.56-.56l1.97.14c.9.08,2.02.21,2.02.21,0,0-.49-.98-.98-1.32-.48-.36-1.45-.36-1.45-.36l.63-.41.05-.5,1.13.35,1.53.42s.28-.5,0-.64l-2.46-1.19,1.9.43c.63.14,1.53.27,1.53.27l.34-.56-.21-.7s.08-.54.5-.54.56.06.98.25c.42.23,1.62.44,1.62.44v-1.91l.7.98c.21.29.56.77.98.92.42.14.75.14.89-.22.14-.34.23-.14-.05-.98-.29-.85-1.06-1.34-1.06-1.34l1.06.42.62.61.77.14.55.65s.22-.77,0-1.07l-.61-.83,1.18.77c.42.27,1.17.77,1.54,1.13.35.33,1.32.7,1.32.7l.57-.27.77.61s-.28.42.34,1.04c.64.65.98.79,1.47.65.5-.15.63-.22.63-.22,0,0,.2-.9,0-1.26-.21-.33-1.54-1.61-1.54-1.61l.63-.22s.76.58,1.05.91c.28.36,1.27,1.34,1.62,1.9.35.55.06.7.35,1.04.28.35,1.18.56,1.18.56,0,0,.28-.28.08-.7-.23-.41-1.26-1.46-1.7-2.03-.41-.56-1.11-1.62-1.11-1.9s.36-.55.36-.55c0,0,.26.92.55,1.35.28.42.91,1.04,1.34,1.53.42.48,1.16.98,1.16.98,0,0,.15-.84-.13-1.13-.28-.28-.56-.77-.56-.77l.06-1.47.85-.42.7-.35.21-.62.07,2.94.84.61s.57-.33.7-.61c.14-.27.55-.49.55-.49,0,0,.34.41.42.77.06.33.14,1.19.34,1.53.22.33.56.49.56.49l.43-2.17.9.27.55-.06.14.86.7.33-.42.5s-.27.41.08.7c.34.28.75.41,1.32.41s.83-.13.83-.13v-1.41s.28.22.7.22.63-1.33.63-1.33l.49,1.11c.07.55,0,.84.7,1.06.71.2,1.62-.42,1.62-.42l.21.77.85-.15c.42-.06,1.11-.49,1.11-.49l.57.29,14.19.27s2.45-.69,3.29-2.02c.84-1.35,1.74-2.09,1.74-2.09,0,0,1.19-.63,2.04-.85.84-.2,3.01-.13,3.41-.06.43.06,9.59-1.68,11.56-2.58,1.96-.93,3.58-1.48,3.85-1.48l2.79-.14s-.7-.99-.21-1.07c.5-.05,7.98-.21,7.98-.21l-2.65-1.38s3.5-.08,4.13,0c.62.07,2.3-.14,2.3-.14l-.48-.85s.49-.42,1.25-.28c.77.14,1.76.58,2.45.07.71-.48,1.61-1.19,2.03-1.12.42.08,1.34-.07,1.82.14.48.22,1.54.3,1.54.3l-.08-1.15s.49-.05,1.34.29c.83.35,1.82.98,2.37,1.07.55.06,2.38-.14,2.38-.14,0,0-2.09-1.26-2.87-1.48-.76-.21.84-.57,1.13-.57s.91-.33.91-.33c0,0,.7-.28,1.69.06.97.36.89.55,1.53.91.63.34,2.17.06,2.17.06l-2.17-1.53s1.7.15,2.45.29c.78.13,1.89.21,1.89.21l-1.18-1.12s-.28-.64.07-.77c.34-.14.89.28,1.38.48.51.21,1.35.29,2.04.36.7.07,1.53.07,2.16.49.64.42,1.75,1.4,1.75,1.4l1.75-.3-3.3-2.3s-.21-.78.29-.63c.49.15,1.46.7,2.03.91.56.21,1.47,1.05,1.9,1.2l3.42,1.18s-1.34-1.46-1.61-1.52c-.29-.09-1.42-.99-1.42-.99,0,0,.65-.23.99-.15.35.07,1.68.71,2.03.92.34.23,1.73,1.04,2.03,1.17.28.15,1.11.15,1.11.15,0,0-1.05-1.61-1.53-1.81-.5-.21-1.26-.85-1.26-.85,0,0,3.21.21,3.58.29.35.07,1.74.26,2.51.56.36.13.66.62.94.74.33.14.6-.12.6-.12l-.7-1.18.84-.08s-.49-.49-.41-.76c.06-.3.2-.63.48-.63s.42.42.84.84c.42.42,1.06.76,1.06.76.28-.34.98.28,1.26.43.28.13,1.33.28,1.33.28l1.4.28s-.84-.71-1.26-1.2c-.42-.49-.83-1.53-.83-1.53,0,0,.62.63,1.05.78.42.14.83.49,1.4.27.57-.21,1.11-.78,1.47-.27.34.49.34.91.89,1.25.58.36,1.42.51,1.69.51s-.63-1.06-.42-1.34c.2-.28.27-.08.55.21.28.29.5.85,1.2.9.69.08,1.06,0,1.06,0l-1.19-1.89s.89.63,1.53.85c.62.21,1.75.48,2.1.76.34.28,1.96-.13,2.73.21.78.36.48.69,1.4.78.91.06.84-.35,1.82-.21.98.14,1.68.21,1.68.21,0,0,.84,0,1.11-.06.29-.05-.63-.92-.63-.92,0,0-.07.07,1.05.07s3.43-.13,3.99-.07c.56.07,4.55-.62,6.16-.91,1.6-.27,5.4-1.81,7.85-2.44,2.44-.63,2.93-.77,3.7-1.4.76-.63,2.86-3.15,5.32-4.48,2.45-1.34,4.41-1.9,6.08-2.26,1.69-.34,6.45-.54,7.13-.54s2.18-.07,2.18-.07"/>
  </g>
</svg>