<?xml version="1.0" encoding="UTF-8"?>
<svg id="Layer_2" data-name="Layer 2" xmlns="http://www.w3.org/2000/svg" viewBox="0 0 654.5 482.79">
  <defs>
    <style>
      .cls-1 {
        fill:#808080
      }
    </style>
  </defs>
  <g id="Layer_1-2" data-name="Layer 1">
    <path class="cls-1" d="m28,181.93c31.61-15.46,68.78-22.41,103.7-23.23,34.82-.8,69.32-.8,102.91-11.74,18.91-6.14,38.04-11.99,57.03-17.94-15.85,4.97-33.54,7.2-49.88,10.26-16.27,3.05-32.55,5.43-49.2,5.92-21,.47-42.6-.33-62.87-6.08-14.96-4.25-28.71-11.47-42.37-18.73-12.17-6.5-25.03-11.1-37.38-17.4-13.69-6.93-26.98-15.42-38.22-25.94-8.34-7.8-17.66-22.4-6.78-32.6,4.77-4.52,11.7-6.42,17.95-7.51,14.39-2.52,28.25-1.13,42.38,1.89,16.21,3.47,32.2,8.09,47.91,13.27,17.72,5.74,35.38,12.21,53.93,14.76,12.68,1.78,25.47,1.01,38.27,1.29,11.75.16,23.18,2.32,34.69,3.61,12.75,1.43,25.57,3.7,36.81,10.03,7.69,4.29,15.12,9.61,24,11.09-3.35-.56-4.26-15.92-4.01-18.56.49-5.32,2.98-9.43,7.59-11.39-4.41.87-8.55-.14-13.21-.14-1.62,0-4.88,0-7.81-.87-16.19-4.61-5.79-30.96-9.21-41.6-1.38-4.31-12.19-13.71-9.96-18.51t.33-1.27c.45-1.22,2.46,0,2.46,0,1.56,3.24,1.87,7.01,3.68,10.1,3.94,7.22,7.15,10.24,6.82,19.18-.26,7-1.76,14.38,1.07,21.13,2.7,6.03,10.06,6.47,15.87,6.47,3.03,0,6.94-1.62,9.56-2.88-6.16-2.34-11.76-7.73-9.96-14.91.89-3.47,3.37-6.17,6.14-8.29,3.99-3.01,5.57-2.37,6.09-7.6.68-6.71,4.36-6.02,9.65-7.55,9.1-2.79,11.58-5.72,20.58-.89,5.86,3.18,10.73-.71,11.6,8.43.54,5.22,2.18,4.59,6.21,7.6,2.72,2.13,5.16,4.83,6,8.29,1.9,7.18-3.7,12.56-9.91,14.91,2.65,1.27,6.53,2.88,9.49,2.88,5.88,0,13.26-.44,15.94-6.47,2.81-6.75,1.36-14.13,1.03-21.13-.23-8.93,2.94-11.96,6.91-19.18,1.76-3.09,1.96-6.86,3.68-10.1,0,0,1.96-1.22,2.39,0,.4,1.27.42,1.27.42,1.27,2.1,4.8-8.63,14.2-9.99,18.51-3.41,10.64,6.96,36.99-9.23,41.6-2.86.87-6.11.87-7.8.87-4.62,0-8.81,1.01-13.24.14,4.57,1.96,7.1,6.07,7.55,11.39.3,2.65-.63,18-3.9,18.56,8.83-1.48,16.29-6.8,23.95-11.09,11.25-6.33,23.99-8.6,36.65-10.03,11.75-1.29,23.08-3.44,34.81-3.61,12.86-.28,25.61.49,38.26-1.29,18.66-2.56,36.26-9.03,54-14.76,15.7-5.18,31.59-9.8,47.87-13.27,14.14-3.03,28.08-4.41,42.4-1.89,6.24,1.09,13.27,3,17.95,7.51,10.84,10.21,1.5,24.8-6.82,32.6-11.23,10.52-24.49,19.01-38.17,25.94-12.26,6.3-25.26,10.9-37.41,17.4-13.69,7.26-27.37,14.47-42.4,18.73-20.29,5.76-41.83,6.55-62.83,6.08-16.57-.49-33-2.87-49.19-5.92-16.27-3.06-34.09-5.29-49.92-10.26,19.06,5.95,38.04,11.8,57.08,17.94,33.55,10.94,68.03,10.94,102.88,11.74,34.94.82,72.11,7.77,103.73,23.23,8.5,4.19,17.57,12.16,20.78,21.2,4.29,11.86-4.1,19.05-13.38,24.25-12.04,6.64-25.26,12.78-38.5,16.09-39.91,9.98-82.38,11.25-123.25,12.82-12.19.41-24.33.31-36.47-.98-19.87-1.92-39.71-6.24-58.41-13.56-12.54-4.86-25.13-12.64-29.65-26.11-2.72-8.14.58-16.09,2.56-23.94.98-3.91,1.6-7.77,1.22-11.72-.18-3.01-2.18-7.5-.84-10.43,0,0-3.24,7.32-4.51,10.21-6.04,14-7.26,28.93-4.63,43.9,1.31,7.02,3.86,13.64,5.03,20.55,2.25,12.7,1.27,25.58.43,38.28-1.01,14.19-3.97,28.11-2.75,42.39,2.14,24.37-.93,48.62-.93,72.95,0,11.49-.43,23.78-1.6,35.25-1.45,13.13-3.05,26.17-4.13,39.26-.11,1.94-.11,11.76-3.45,10.33-1.98-.8-1.85-6.09-1.54-7.81.96-5.19,1.76-9.98,1.76-15.17-.54-1.6-.91-3.19-1.74-4.62.85,1.68-.42,5.99-1.31,7.46-5.95,8.69-9.14-2.41-9.38-7.42.11,2.39-1.57,5.44-1.54,8.14.09,3.87.93,7.79,1.59,11.61.33,1.72.51,7.01-1.59,7.81-3.28,1.43-3.28-8.38-3.38-10.33-1.1-13.08-2.7-26.13-4.08-39.26-1.32-11.47-1.6-23.76-1.6-35.25,0-24.33-3.05-48.58-.98-72.95,1.2-14.27-1.74-28.2-2.65-42.39-.92-12.7-1.95-25.58.25-38.28,1.31-6.91,3.84-13.53,5.08-20.55,2.63-14.97,1.38-29.89-4.66-43.9-1.18-2.88-4.46-10.21-4.46-10.21,1.32,2.93-.65,7.42-.89,10.43-.33,3.95.29,7.81,1.27,11.72,1.97,7.85,5.26,15.8,2.56,23.94-4.39,13.47-17.06,21.24-29.6,26.11-18.71,7.32-38.53,11.64-58.42,13.56-12.12,1.29-24.31,1.39-36.44.98-40.83-1.57-83.43-2.84-123.23-12.82-13.33-3.31-26.55-9.45-38.52-16.09-9.38-5.19-17.77-12.39-13.43-24.25,3.28-9.04,12.3-17.01,20.83-21.2h0Z"/>
  </g>
</svg>