<?xml version="1.0" encoding="UTF-8"?>
<svg id="Layer_2" data-name="Layer 2" xmlns="http://www.w3.org/2000/svg" viewBox="0 0 654.5 317.74">
  <defs>
    <style>
      .cls-1 {
        fill:#808080
      }
    </style>
  </defs>
  <g id="Layer_1-2" data-name="Layer 1">
    <path class="cls-1" d="m135.76,214.33c-10.39,17.84-15.19,19.01-32.44,9.8-10.06-3.91-18.42-11.23-23.62-20.68-1.8-5.1-7.4-7.78-12.51-5.97-.7.25-1.37.57-2,.97-7.76,3.18-16.33,3.87-24.5,1.96-7.24-3.3-15.78-.11-19.08,7.13-.86,1.88-1.3,3.93-1.3,6-.88,4.31-.88,11.76-8.23,9.11-7.35-2.65-5.88-8.04-3.92-13.82,6.07-14.84,20.94-24.15,36.95-23.13,2.86.39,5.76.39,8.62,0,5.29-.98,14.8,1.67,14.5-4.9-.29-6.57,5.29-15.97-5.39-22.05-8.23-4.41-10.19-16.17-21.17-19.99-14.8-5-16.76-4.9-24.3,9.02-1.96,3.53-3.23,7.84-7.84,9.02-4.61,1.18-5.39-1.08-7.25-3.63-2.77-3.31-3.05-8.05-.69-11.66,7.86-16.64,27.72-23.76,44.36-15.9,3.26,1.54,6.25,3.6,8.86,6.1,4.8,4.02,9.11,8.53,12.84,12.05,14.41-5,15.48-13.03,13.62-28.22-1.73-19.88,6.01-39.41,20.87-52.72,33.91-31.46,76.24-44.39,120.64-52.92C259.04,3.92,295.7.64,332.45.11c29.4-1.18,58.21,7.74,87.22,12.84,37.53,6.66,70.27,23.91,103.49,40.77,15.97,8.13,33.03,14.01,49,22.34,31.87,16.3,56.64,43.75,69.58,77.12,9.81,25.87,14.05,53.52,12.45,81.14-.69,23.72-25.77,53.8-49,59.49-17.41,5.41-35.41,8.7-53.61,9.8-5.87.2-11.18,3.53-13.92,8.72-4.31,6.17-9.8,7.25-12.45-1.47-1.18-3.92-2.65-5.78-6.57-5.49s-6.66.98-7.15,5.29c-.49,4.31-1.18,7.06-5.39,7.06-4.38.27-8.14-3.05-8.42-7.43,0-.07,0-.14-.01-.22-.78-7.55-6.47-7.74-11.56-8.82-5.1-1.08-5.78,4.41-7.55,7.74s-1.37,8.23-7.06,6.66c-3.8-.92-6.29-4.55-5.78-8.43,0-5.29,2.16-11.17-7.15-12.45-9.31-1.27-10.58,3.14-13.13,9.21-1.57,3.82-2.65,9.8-8.82,8.62s-2.55-7.45-2.55-11.37,2.94-8.43-1.76-11.37c-4.7-2.94-5.59,2.84-8.13,4.7-5.1,3.63-9.02,1.67-9.8-4.21.25-3.02-2-5.67-5.02-5.92-.42-.03-.84-.02-1.25.04-4.9,0-2.65,4.12-2.65,6.57s2.84,9.8-3.33,9.8-7.15-4.61-8.43-9.8c-3.63-12.94-3.72-12.94-18.33-16.07,1.47,4.9,2.94,9.8,4.12,14.11.69,2.84.98,6.08-2.35,7.64-2.82,1.26-6.12.04-7.45-2.74-3.33-5.1-8.33-9.11-9.31-15.78-.49-3.23-.49-9.21-5.68-7.55-5.19,1.67-1.37,6.66-.59,9.8s2.35,8.13,0,11.86c-1.35,2.06-3.35,3.61-5.68,4.41-3.14,0-3.23-3.04-4.12-5.29-2.13-8.38-5.18-16.5-9.11-24.21-8.04.98-3.53,14.11-12.25,12.74-5.98-.98-2.35-8.82-6.76-14.6l-8.72,20.38c-1.27,3.23-2.74,6.66-6.96,5.39-4.21-1.27-2.84-5.39-2.84-7.84,1.08-6.57,2.45-13.03,3.72-19.6-5.93-.68-11.46,3.13-12.94,8.92-1.24,3.4-2.78,6.68-4.61,9.8-1.18,1.96-3.43,4.8-5.1,4.8-4.21,0-2.45-4.51-3.43-6.86-.98-2.35,0-3.92-.78-4.8-.78-.88,2.84-8.72-4.31-7.84-7.15.88-3.92,5.39-3.72,9.8.2,4.41,2.45,10.98-4.12,12.74-6.57,1.76-6.66-4.8-8.62-8.62-1.18-2.25-2.35-4.8-5.29-4.41s-1.18,3.23-1.76,4.8c-4.12,11.56-8.43-2.45-12.84,0-.88,5.1,8.62,10.68,1.57,14.8-7.06,4.12-12.15-1.27-16.17-7.74-2.24-3.6-6.38-5.56-10.58-5-28.13.78-44.2-16.66-57.82-38.12-5.61-10.27-10.65-20.83-15.09-31.65Z"/>
  </g>
</svg>