<?xml version="1.0" encoding="UTF-8"?>
<svg id="Layer_2" data-name="Layer 2" xmlns="http://www.w3.org/2000/svg" viewBox="0 0 654.5 614.82">
  <defs>
    <style>
      .cls-1 {
        fill:#808080
      }
    </style>
  </defs>
  <g id="Layer_1-2" data-name="Layer 1">
    <path class="cls-1" d="m654.5,384.65v1.85c-6.53.44-12.91-.09-18.72-3.41-2.72-1.56-5.51-2.68-8.65-2.92-.61-.04-1.23-.27-1.8.1-1.17.76-2.18.24-3.1-.44-1.55-1.15-3.28-1.63-5.19-1.55-1.05.03-2.03-.25-2.97-.69-1.31-.6-2.56-1.31-4.06-.41-.53.32-1.2.1-1.78-.13-6.62-2.58-13.57-4.07-20.34-6.16-1.16-.35-2.37-.76-3.41.39-.66.73-1.53.41-2.32.24-1.32-.29-2.47-.94-3.62-1.63-.96-.59-1.93-1.23-2.98-1.57-7.69-2.44-15.42-4.82-23.2-6.96-8.16-2.25-16.34-4.52-24.31-7.24-12.34-4.2-25.01-7.07-37.51-10.64-5.12-1.46-10.16-3.17-15.2-4.88-6.05-2.04-12.17-3.57-18.64-3.45-5.68.11-11.19-1.06-16.61-2.73-10.8-3.3-21.91-5.21-32.94-7.49-1.3-.27-2.63-.49-3.88-.92-5.52-1.88-11.31-2.64-16.92-4.11-2.9-.75-5.96-.95-8.71-2.27-.27-.13-.6-.13-.9-.2-5.28-1.09-10.55-2.22-15.83-3.27-2.14-.42-2.21-.34-2.38,1.9-.42,5.35.42,10.64.8,15.96.5,7.04,2.81,13.62,5.43,20.08,5.11,12.61,10.44,25.15,15.47,37.81,3.28,8.26,6.87,16.45,8.38,25.32.16.91.42,1.82.78,2.65,4.82,11.01,6.77,22.98,11.44,34.04,1.48,3.5,2.14,7.25,1.67,11.14-.25,2.07.27,4.1,1.42,5.88,2.29,3.54,3.2,7.5,3.73,11.6.35,2.65,1.21,5.1,2.19,7.62,2.35,5.98,4.67,12.05,4.64,18.67,0,1.96.48,3.86.89,5.76.77,3.52,1.11,7.09.72,10.68-.41,3.79-.51,7.58-.4,11.37.16,5.33-.68,10.62-.42,15.97.18,3.6-1.03,7.08-2.42,10.4-1.15,2.75-3.44,4.56-5.81,6.21-.88.62-1.91.6-2.96.43-5.49-.81-10.82-2.26-16.08-4-2.44-.81-4.1-2.67-5.45-4.78-7.74-12.06-14.13-24.63-16.76-38.96-2.22-12.09-4.1-24.23-6.06-36.37-1.63-10.11-3.22-20.23-4.55-30.39-1.29-9.85-2.37-19.75-2.72-29.68-.46-12.7-.94-25.42-.68-38.13.18-8.63-.83-17.19-1.65-25.76-1.03-10.72-2.14-21.44-1.06-32.22.25-2.46.03-4.93-.52-7.34-.85-3.7-3.1-6.15-6.83-7.15-.59-.17-1.28-.43-1.78-.02-1.33,1.11-2.6,2.29-3.85,3.5-.61.59-.22,1.35-.14,2.05.78,6.73,1.15,13.47.48,20.25-.12,1.23-.32,2.43-.73,3.59-2.82,7.98-3.99,16.31-4.96,24.65-1.55,13.45-1.84,26.99-3.13,40.46-1.08,11.23-2.59,22.41-5.48,33.32-2.04,7.73-2.69,15.53-2.92,23.43-.23,7.98.09,15.98-.61,23.98-.14,1.62.08,3.27.18,4.91.1,1.54.24,3.13-.31,4.57-.76,2-.81,4.05-.56,6.07.72,5.67-.05,11.26-.93,16.83-.53,3.38-.68,6.77-.21,10.11.61,4.33.33,8.61-.35,12.86-.53,3.37-.76,6.74-.58,10.11.26,5.16-.2,10.24-1.34,15.26-.32,1.42-.55,2.85-.42,4.27.42,4.67-.34,9.2-1.45,13.69-.25,1.01-.38,2.02-.32,3.05.06,1.14-.06,2.24-.69,3.25-.38.61-.79,1.36-.1,1.95,1.36,1.13.56,2.21.02,3.28-.78,1.55-1.5,3.1-1.99,4.8-1.52,5.21-4.81,8.94-9.82,11.12-.37.17-.78.23-.98.64h-3.08c-2.89-1.59-4.77-4.08-6.28-6.94-3.97-7.5-6.03-15.63-7.87-23.85-2.23-10.04-2.02-20.11-.86-30.27,1.15-10.09,3.27-20.02,4.25-30.13,1.42-14.7,4.4-29.16,6.75-43.73,1.92-11.84,4.43-23.53,6.84-35.27.25-1.21.41-2.42.24-3.89-2.78,1.31-4.07,3.77-5.56,6.01-.78,1.16-1.46,1.27-2.4.21,2.64-3.51,5.2-7.08,7.94-10.52,2.31-2.89,3.66-6.15,4.3-9.73,2.74-15.53,6.65-30.85,9.07-46.45.58-3.75.98-7.51,1.46-11.27.07-.51.03-1.04.15-1.54,2.36-10.07,3.24-20.4,5.39-30.52.98-4.61,1.9-9.22,2.43-13.91.15-1.31.68-2.57,1-3.86.52-2.11-.85-4.64-2.88-5.06-1.3-.28-2.51.44-2.99,1.62-.66,1.61-1.86,2.36-3.34,2.93-.57.22-1.12.39-1.44,1.02-2.95,5.75-7.03,10.77-10.66,16.08-4.75,6.93-9.71,13.74-14.91,20.34-6.34,8.05-12,16.6-18.39,24.61-4.16,5.2-7.7,10.85-11.18,16.55-2.71,4.44-6.24,8.37-8.7,13.01-.18.34-.51.84-.81.88-2.25.21-3.06,2.19-4.45,3.46-2.16,1.96-4.7,3.34-7.37,4.37-9.2,3.54-17.91,8.12-26.92,12.08-1.87.82-3.61,1.92-5.4,2.92-1.26.71-2.47,1.47-3.95,1.64-.4.04-.83.13-1.16.34-8.75,5.17-18.3,8.69-27.37,13.2-12.47,6.21-24.91,12.46-37.42,18.59-5.55,2.74-9.96,6.46-13.12,11.94-4.6,7.99-9.55,15.79-14.63,23.5-5.04,7.65-9.66,15.42-11.89,24.44-.77,3.16-2.31,6.12-3.49,9.19-.3.78-.59,1.51-1.61,1.61-4.63.47-8.92,2.26-13.35,3.51-3.93,1.11-3.95,1.12-4.09-3.08-.09-2.77-.37-5.52-.91-8.24-.34-1.73-.39-3.46-.16-5.21,4.73,1.62,6.57,7.71,4.19,14.13,1.14.79,2.34.29,3.43-.02,3.05-.86,5.97-2.22,9.22-2.21.71.01,1.12-.42,1.44-.96.47-.8,1.15-1.56,1.32-2.42.72-3.63,2.81-6.73,3.78-10.28.63-2.32,1.82-4.53,2.73-6.82.45-1.12,1.11-2.07.97-3.43-.14-1.32.92-2.25,1.83-3.06,1.97-1.72,3.43-3.75,4.34-6.23.41-1.13,1.16-2.16,1.87-3.16,6.93-9.68,13.06-19.87,19-30.16,1.06-1.84,2.34-2.88,4.38-3.41,4.76-1.23,9.14-3.37,13.24-6.09.26-.17.54-.31.82-.43,5.74-2.35,11.17-5.37,16.76-8,7.12-3.35,14.43-6.31,21.38-10.05,2.65-1.43,5.38-2.83,8.14-4.11,7.42-3.48,14.99-6.7,22.15-10.67,5.94-3.3,12.28-5.64,18.3-8.69,3.18-1.61,6.4-3.14,9.56-4.76,2.57-1.32,4.79-3.26,4.53-6.68-.06-.91.34-1.56,1.11-2.04.89-.54,1.63-1.23,2.15-2.15,5.38-9.37,12.6-17.45,18.67-26.33,6.13-8.96,12.72-17.6,19-26.44,4.85-6.83,9.9-13.57,14.8-20.38,2.75-3.82,4.9-8.08,8.15-11.54,1.12-1.2.2-3.1,2.56-4.14-3.27-.42-5.07-1.7-6.14-4.01-.34-.72-.94-1.45-1.92-1.22-.89.21-1.42,1.03-1.49,1.8-.17,1.81-1.26,2.68-2.73,3.34-.76.35-1.28.96-1.75,1.66-2.08,3.08-5.49,3.26-7.88.44-.26-.31-.5-.65-.72-1-.57-.93-.83-2.07-2.24-2.28-1.5-.21-2.94-.89-4.5-.2-2.25.99-4.48,1.06-6.85.24-1.95-.68-4.07-.22-6.16-.48-.34-.89,1.06-1.08.83-1.64-1.12-2.75,1.17-2.05,2.39-2.52,2.28-.9,4.72-1.12,7.03-1.77,2.39-.68,4.75-1.95,4.93-5.09.1-1.68,1.51-2.26,2.74-3.04,1.17-.74,2.21-1.3,3.54-.3.44.32,1.18.37,1.77.34,2.41-.12,4.69.1,6.61,1.82.65.59,1.44.65,2.18-.11,1.04-1.09,2.57-1.82,2.52-3.65-.02-.69.42-1.1.84-1.56,1.5-1.63,1.58-1.8-.15-2.96-5.77-3.89-10.64-8.97-16.59-12.65-2.7-1.67-5.16-3.71-7.53-5.84-1.42-1.28-2.67-2.89-4.88-2.9-.56,0-.92-.49-1.15-.93-.96-1.97-2.75-2.94-4.52-4-1.99-1.2-3.68-2.85-5.52-4.27-1.62-1.25-3.31-2.37-4.95-3.59-3.25-2.41-6.61-4.69-9.63-7.4-.61-.54-1.3-1.01-2.01-1.41-2.86-1.61-5.45-3.56-7.99-5.65-2.22-1.83-4.55-3.71-7.31-4.83-.28-.12-.58-.27-.78-.49-3.9-4.28-9.62-6.28-13.4-10.73-.47-.55-1.1-.9-1.84-1.02-.76-.12-1.29-.53-1.53-1.32-.93-3.1-3.49-3.84-6.24-4-2.66-.17-5.33-.08-8-.04-9.45.11-18.84-.89-28.26-1.45-9.01-.54-18.02-.95-27.05-.6-6.88.27-13.72-.73-20.59-.71-11.48.04-22.96.13-34.45.24-2.06.02-4.04.64-6.04,1.06-1.78.37-3.47.43-4.54-1.51-.28-.51-.8-.95-1.31-1.25-7.55-4.4-14.03-10.31-21.32-15.08-2.83-1.85-5.54-3.89-8.22-5.95-2.29-1.75-4.68-3.29-7.36-4.4-1.28-.53-2.8-.92-2.9-2.78-.01-.23-.37-.47-.59-.68-5.95-5.64-11.8-11.37-18.27-16.43-1.19-.93-2.41-1.42-3.89-1.61-3.74-.48-7.51-.87-10.89-2.82-.66-.38-1.59-.27-2.4-.39-.47-.07-.78-.32-.7-.8.07-.4.34-.82.8-.81.6.03,1.21.16,1.79.34,3.23.96,6.45,2.02,9.69,2.95,1.66.49,3.31,1.15,5.11.92,1.08-.16,1.64.6,2.32,1.24,4.24,4.02,8.71,7.83,12.7,12.08,5.82,6.22,12.91,10.71,19.88,15.37,8.18,5.48,15.93,11.55,24.05,17.11.42.28.85.74,1.29.74,2.98.03,5.81,1.04,8.83,1,23.48-.33,46.97-.37,70.45.57,14.14.56,28.28.94,42.42,1.21,3.08.07,6.14.43,9.22.35,1.24-.03,2.49.1,3.44,1.05.85.85,1.72,1.34,3,.93.77-.26,1.32.44,1.87.86,7.09,5.42,14.11,10.92,21.24,16.27,8.23,6.19,16.07,12.94,25.1,18.01,1.35.77,2.52,1.75,3.59,2.87,1.65,1.71,3.5,3.16,5.52,4.39,3.41,2.09,6.76,4.28,9.52,7.24.62.67,1.41,1.21,2.2,1.66,7.14,4.17,13.15,9.81,19.42,15.06,2.22,1.86,4.1,3.59,7.06,3.8.69.06,1.35.54,2.05.6,1.88.14,2.68-.9,1.93-2.61-.77-1.78-1.73-3.49-2.67-5.2-1.51-2.77-2.94-5.66-4.58-8.28-3.6-5.76-5.69-12.28-9.35-17.96-5.65-8.77-9.51-18.47-14.77-27.41-2.27-3.86-4.17-7.95-6.89-11.53-.9-1.19-.74-2.73-1.58-3.96-1.67-2.45-3.11-5.06-4.77-7.53-1.66-2.47-3.27-4.97-4.27-7.79-.31-.88-.62-1.79-1.34-2.4-1.17-1.01-1.87-2.07-1.42-3.72.3-1.12-.44-1.93-1.27-2.62-2.06-1.73-4.33-3.13-6.77-4.21-2.9-1.3-5.73-2.74-8.46-4.36-8.55-5.07-17.54-9.33-26.28-14.04-9.19-4.98-18.11-10.43-27.46-15.11-1.46-.73-2.86-1.61-4.43-2.11-1.01-.31-1.85-.77-1.98-1.94,1.09-.13,1.87.61,2.73,1.06,10.42,5.5,20.78,11.1,31.24,16.52,9.54,4.93,19.34,9.39,28.81,14.49,3.6,1.95,7.23,3.86,10.81,5.85,1.77.98,3.75,1.73,4.74,3.72.24.5.73.71,1.28.71.86,0,1.18.6,1.51,1.29,11.61,24.23,25.49,47.22,38.63,70.61,2.4,4.27,5.5,8.15,7.09,12.88.27.84.97,1.56,1.57,2.25.82.94,1.56,1.87,1.69,3.19.11,1.22,1.02,1.97,1.9,2.68.36.3.8.8,1.33.39.6-.45,1.09-1.24.62-1.87-1.77-2.33-2.2-5.3-3.72-7.71-2.97-4.73-5.97-9.41-7.39-14.94-1.02-3.98-3.15-7.55-4.92-11.23-4.93-10.24-9.44-20.66-14.06-31.05-3.45-7.76-7.57-15.21-11.56-22.71-6.82-12.84-14-25.51-20.21-38.66-1.88-3.99-3.82-7.94-6.8-11.26-1.82-2.04-2.32-4.54-2.37-7.15-.05-2.29-.45-4.52-1.46-6.55-4.99-9.95-7.6-20.73-10.83-31.29-3.63-11.84-7.6-23.59-10.34-35.68-2.53-11.14-4.06-22.38-3.37-33.83.36-5.95,1.51-11.76,3.5-17.41,2.32-6.56,5.9-11.89,13.08-13.86h3.69c4.77,1.43,8.3,4.35,10.42,8.87.43.92.91,1.89,1.01,2.88.18,1.71.64,3.18,1.94,4.36.45.41.69,1.03.7,1.66.03,3.35,2.49,4.94,4.98,6.02,1.83.8,2.83,1.95,3.48,3.58,1.13,2.86,2.37,5.6,4.28,8.09,1.4,1.83,2.12,4.19,3.06,6.34,1.28,2.9,2.08,6.01,3.84,8.7.17.24.24.57.33.87,2.74,9.95,5.64,19.88,5.45,30.37-.03,1.36.3,2.67.71,3.91,1.84,5.61,2.36,11.43,2.79,17.26.29,4.01.92,7.95,2.47,11.67,2.94,7.09,3.61,14.69,4.98,22.14,1.57,8.56,3.21,17.1,6.1,25.37,1.6,4.57,2.07,9.39,2.76,14.14,1.33,9.14,3.56,18.09,5.92,27,2.88,10.9,5.18,21.92,7.42,32.98,1.59,7.84,4.31,15.37,8.51,22.28,1.29,2.14,1.94,4.51,2.56,6.9,1.21,4.65,2.15,9.39,3.7,13.95.32.95.38,2.01.56,3.02.2,1.14,4.45,4.56,5.56,4.44,1.1-.1,3.98-2.74,4.32-3.97.13-.49.06-1.1.32-1.48,2.63-3.86,1.98-8.09.4-11.82-3.42-8.06-4.77-16.49-5.93-25.02-1.58-11.59-4.26-22.96-6.94-34.33-2.5-10.57-4.12-21.32-6.28-31.96-.93-4.52-2.05-8.99-3.02-13.5-1.42-6.63-1.97-13.4-2.3-20.14-.59-11.84-2.83-23.38-5.32-34.9-1.65-7.62-3.05-15.27-4.16-22.98-.56-3.87-1.57-7.65-3.12-11.23-3.17-7.37-4.26-15.15-4.83-23.06-.11-1.53-.24-3.06-.41-4.59-.55-5.23-.72-10.43.8-15.55.29-.99.62-2.03.58-3.01-.2-4.32,2.55-6.97,5.3-9.61,1.82-1.74,3.49-1.71,5.43-.04,1.26,1.09,2.21,2.44,2.98,3.89,3.07,5.8,6.82,11.21,9.58,17.18.42.91,1.06,1.75,1.7,2.55,1.16,1.44,2.3,2.84,2.61,4.78.14.87.7,1.72,1.24,2.45,1.91,2.62,2.94,5.54,3.82,8.63,1.88,6.72,3.68,13.45,4.75,20.34.55,3.54,1.22,7.07,1.55,10.64.34,3.69,1.77,7.15,2.07,10.85.23,2.75.67,5.49,1.01,8.24.3,2.45.65,4.9,1.48,7.2,2.91,7.99,3.72,16.37,4.64,24.71,1.41,12.68,1.43,25.38.89,38.11-.32,7.58-.3,15.16.24,22.76.73,10.25.01,20.49-.7,30.73-.47,6.76-.94,13.5-.99,20.27-.03,4.35.86,8.55,1.8,12.76,1.1,4.99,2.09,10.01,3.09,15.03.53,2.65,1.31,2.9,3.6,1.25,2.37-1.71,4.84-3.29,7.27-4.92,2.38-1.59,4.65-3.34,6.95-5,2.12-1.54,4.13-3.25,6.29-4.73,3.94-2.74,8.27-4.89,11.77-8.31,1.43-1.4,3.61-1.86,5.28-3.1,8.32-6.16,16.96-11.89,24.96-18.49,3.06-2.53,6.15-5.15,10.23-6.05,1.73-2.66,4.83-2.11,7.28-3.1,4.65-1.89,9.19-4.05,13.39-6.84,2.04-1.37,4.43-2.31,6.33-3.69,4.95-3.6,10.86-5.32,15.8-8.79,1.77-1.24,3.61-2.14,5.54-2.98.92-.41,1.79-1,2.62-1.58,3.49-2.45,7.18-4.52,11.05-6.34,2.55-1.2,5.07-2.51,7.21-4.42.3-.27.68-.48,1.04-.64,7.84-3.57,14.85-8.67,22.63-12.3,3.85-1.8,6.95-4.64,10.67-6.59,2.84-1.5,5.92-2.73,8.28-5.08.72-.72,1.65-1.24,2.34-2,2.22-2.4,5.15-3.06,8.18-3.83,2.07-.53,4.28-1.26,6.06-2.67,1.62-1.29,3.46-2.15,5.34-2.98,3.07-1.34,6.12-2.74,8.61-5.07.45-.42,1.05-1.03,1.57-.8,2.11.94,2.85-.81,4.08-1.77,2.35-1.82,4.8-3.5,7.24-5.2.73-.5,3.82.04,4.3.76.71,1.03.13,2.39-.49,2.78-4.6,2.83-5.59,8.23-8.78,12.02-.73.85-1.4,1.76-2.07,2.67-.61.83-1.29.81-2.14.35-1.17-.64-.49-1.38-.13-2.05.99-1.81,2.26-3.42,3.58-5,.91-1.1,1.86-2.18,2.78-3.29.51-.62,1.19-1.23.41-2.12-.72-.82-1.31-.08-1.87.22-1.33.74-2.52,1.8-4.2,1.67-.54-.03-1.08.31-1.22.8-.53,1.77-1.97,2.21-3.5,2.57-1.02.24-1.91.73-2.75,1.33-4.39,3.07-9.18,5.39-14.13,7.39-.58.23-1.31.34-1.51.94-1.14,3.45-4.3,4.46-7.07,5.82-1.91.94-4.05,1.33-5.63,2.96-.7.71-1.88.72-2.88.96-1.66.4-3.37.64-4.53,2.26-.81,1.1-2.46.84-3.59,1.61-4.29,2.92-9.09,5.01-13.46,7.77-2.9,1.84-6.22,2.92-8.92,5.09-.86.69-1.94,1.13-2.97,1.57-1.42.61-2.8,1.19-3.95,2.31-.63.62-1.52,1.05-2.37,1.37-3.82,1.47-7.18,3.72-10.57,5.96-1.36.9-2.86,1.61-4.32,2.34-2.01,1.03-4.04,2.01-5.73,3.56-.61.55-1.28,1.01-2.14,1.11-1.06.13-1.89.76-2.74,1.33-8.83,5.8-18.12,10.82-27.37,15.88-2.07,1.12-4.15,2.24-6.19,3.41-1.16.66-2.28,1.47-2.95,2.64-.53.93-1.01,1.69-2.17,1.87-.45.08-.99.41-1.26.8-1.88,2.57-4.69,3.94-7.25,5.61-4.98,3.24-10.09,6.29-14.28,10.62-1.2,1.23-2.73,2.16-4.14,3.17-2.51,1.77-5.16,3.36-7.04,5.89-.36.49-.92.82-1.43,1.17-10.27,7.13-20.53,14.28-30.83,21.37-1.85,1.27-3.88,2.28-5.79,3.48-.65.4-1.52.79-1.13,1.88.35.99,1.16,1.04,2,1.02,4.3-.11,8.62-.01,12.72-1.6,1-.37,2.02-.34,3.03-.31,3.29.09,6.54.04,9.8-.58,2.11-.41,4.26-.57,6.43-.47,2.39.11,4.7-.33,6.94-1.12,4.84-1.72,9.76-3.09,14.79-4.13,3.13-.65,6-2.05,8.93-3.27,2.09-.88,3.84-1.34,6.17.43,2.44,1.86,5.94,1.57,8.93.71,2.8-.82,5.76-1.58,7.7-4.17.51-.68,4.78-1.9,6.24-2.04,4.8-.45,9.58-.99,13.57-4.17,1.82-1.45,4.05-1.52,6.17-.91,3.3.93,6.27.76,8.82-1.77.15-.14.33-.29.51-.33,4.17-.84,7.87-3.5,12.35-3.13,1.98.18,3.88-.24,5.69-1.05,2.68-1.19,5.24-1.33,7.94.19,2.16,1.22,4.76,1.12,7.14,1.74,2.01.52,3.98,1.05,5.28,2.84.53.73,1.37.8,2.11,1.14,1.78.85,2.47,2.49,1.96,4.42-.2.72-.25,1.36.09,2.07,1.05,2.11.83,3.39-.85,4.87-.47.4-.83.74-1.09,1.37-.83,2.14-1.43,2.44-3.65,2.19-.5-.05-1.1-.37-1.5-.2-2.85,1.2-5.65.34-8.47-.03-1.49-.2-2.85.26-4.2.73-1.96.71-3.95,1.05-6.04.87-3-.29-5.91.53-8.85.87-1.22.14-2.46.44-3.66.33-5.85-.58-11.49.55-17.14,1.79-1.01.22-2.02.02-3.05-.17-3.1-.6-6.09-.74-8.57,1.83-.82.85-2.07.83-3.2.85-2.25.07-4.51.07-6.77.11-1.12.03-2.33-.11-3.36.23-2.27.75-4.46,1.49-6.82.4-.25-.12-.63-.08-.91.02-3.72,1.19-7.51.71-11.28.5-.81-.03-1.68-.02-2.44.24-3.81,1.33-7.79,1.71-11.74,2.26-.81.11-1.62.28-2.39.55-2.42.88-4.89,1.45-7.49,1.55-1.63.07-3.28.32-4.77,1.06-2.73,1.35-5.63,1.84-8.65,1.78-2.79-.07-5.51.34-8.19,1.11-.49.14-1.01.35-1.5.32-5.06-.31-10.05,1.86-15.13.4-.62-.18-1.44-.4-1.65.21-.56,1.6-1.69,2.7-2.68,3.98-.75.97.29,1.62,1.23,1.95,3.11,1.07,6.29,1.98,9.58,2.01,2.18.01,4.18.48,6.24,1.08,4.34,1.24,8.74,2.25,13.19,2.93,6.41.95,12.64,2.56,18.79,4.55,12.1,3.91,24.43,6.97,36.83,9.71,1.81.4,3.57.88,5.27,1.63,1.12.5,2.26.81,3.54.85,2.01.06,3.83,1.14,5.63,1.87,5.74,2.29,11.77,3.51,17.65,5.26,18.31,5.48,36.6,11.02,54.92,16.47,5.29,1.57,10.5,3.41,15.99,4.31,2.58.42,4.87,2.1,7.55,2.54,2.22.37,4.41.89,6.6,1.43,3.81.94,7.6,1.94,11.39,2.94.51.14,1.01.21,1.5.02,1.13-.42,2.05.05,3.16.35,2.85.76,5.53,1.49,7.92,3.49,1.16.96,3.35.67,5.02,1.12,3.37.89,6.71,1.88,10.04,2.87,1.96.59,3.91,1.25,6.01,1.16.72-.03,1.62.02,2.02.58,1.23,1.71,2.95,1.4,4.69,1.54,3.97.33,7.94.54,11.57,2.6,2.08,1.18,4.59.93,6.92,1.23,1.83.23,3.68.19,5.19,1.55.4.35,1.15.41,1.75.44,4.92.31,9.72,1.23,14.33,3.02ZM184.52,148.3c-6.27-3.47-12.53-6.97-18.84-10.39-2.73-1.46-5.24-3.23-7.45-5.38-1.19-1.15-2.09-2.45-4.09-1.98-.97.23-1.65-.7-2.31-1.32-5.64-5.39-11.77-10.21-17.79-15.14-8.17-6.71-16.19-13.52-22.83-21.83-1.5-1.87-3.03-4.01-6.07-3.11-.43.13-.99-.21-1.49-.29-3.66-.56-7.08-2.05-10.7-2.72-1.96-.35-2.24-.19-2.25,1.79-.03,4.81.09,9.63.17,14.44.01.59-.13,1.31.63,1.55.79.25,1.41-.12,1.81-.8.41-.7.83-1.42,1.11-2.18,1.14-3.05,1.3-6.17.52-9.35-.51-2.09-.1-2.56,1.97-2.31.5.07,1,.21,1.47.41,1.85.74,3.77,1.03,5.73.68,1.71-.31,2.93.4,4.14,1.49,2.74,2.48,5.13,5.3,7.57,8.07,1.55,1.76,3.32,3.31,4.97,4.95,1.91,1.91,3.33,4.27,6.15,5.03.16.04.3.28.41.45,1.52,2.39,3.74,4.19,6.12,5.46,4.53,2.41,7.33,6.77,11.56,9.52,1.83,1.17,3.27,3.03,5.28,4.13,1.23.68,2.86,1.47,3.03,2.88.34,2.84,2.16,3.39,4.42,3.78.89.14,1.72.63,2.59.95,6.17,2.28,11.52,6.23,17.65,8.59.37.14.75.37,1.04.63,2.01,1.82,4.52,2.49,7.04,3.14-.28-.68-.97-.86-1.53-1.17Zm1.53,1.17s.07.05.08.1c.03,0,.05,0,.07,0,0-.03-.01-.04-.02-.07-.05-.01-.09-.03-.14-.04Zm104.96,300.31c.39-.57-.05-.96-.4-1.31-.48-.48-.91-.25-1.26.2-.2.24-.4.48-.56.73-4.29,6.88-9.47,13.1-14.27,19.6-8.04,10.88-16.17,21.7-24.26,32.54-.61.82-1.41,1.53-1.67,2.55-.11.47.25.72.67.81.56-.18.78-.65,1.07-1.06,1.36-1.93,2.69-3.88,4.11-5.75,11.64-15.36,23.29-30.72,34.94-46.07.56-.73,1.1-1.47,1.63-2.24Zm-44.9,57.44c-3.93,4.58-7.43,9.53-12.02,13.52-.91.8-1.4,1.67-.73,2.95.43.81.41,1.76.12,2.68-1.55,5-2.08,10.2-3.04,15.31-.81,4.29-.86,8.72-2.27,12.89.71-.1.92-.54,1.06-1.22.54-2.6,1.23-5.17,1.77-7.77,1.05-5.1,2.35-10.14,2.74-15.39.1-1.43.1-3.2,1.7-4.05,1.23-.65,1.72-1.72,2.04-2.91.53-2.02,1.59-3.75,2.7-5.48,1.78-2.75,3.75-5.35,5.74-7.96.9-1.18,1.86-2.35,2.14-3.99-1.2-.06-1.48.85-1.95,1.41Zm-17.94,47.36s0,0,0,0c0,0,0,0-.01,0h.01Zm-10.67,31.44s.04-.04.07-.06c0-.07.02-.13.02-.19-.03.04-.05.09-.08.14,0,.04-.01.07-.02.11Zm-8.66,9.68c-.79.91-.96,2.49-2.23,2.82-1.64.4-2.03-1.45-3.01-2.24-2.52-2.02-5-1.91-7.14.53,2.31,1.82,5.12,2.53,7.75,3.61,2.49,1.04,2.51,1.01,4.11-1.28,2.06-2.94,3.92-6.11,6.7-8.38,1.65-1.36,2.36-2.81,2.48-4.75-3.68,2.52-5.82,6.41-8.66,9.68Zm19.45-37.06s.05,0,.07,0c-.01-.02-.05-.06-.05-.06,0,.02-.01.04-.02.07Zm-4.51,13.46c1.16-1.64,1.84-3.56,2.93-5.28,1.09-1.73.83-4.3,1.19-6.5.09-.57.26-1.13.4-1.69-.18.03-.44.03-.48.12-2.11,4.21-3.58,8.62-4.03,13.34Zm-2.65,6c-2.24,2.06-3.44,4.61-3.54,7.66,1.57-2.38,2.63-4.98,3.54-7.66Zm0,0c.05-.05.08-.1.14-.15,0-.05,0-.09,0-.14-.02.03-.04.06-.07.08-.02.07-.05.13-.08.2Zm2.5-5.62s.06-.06.11-.09c0-.1.03-.19.04-.29-.05.07-.07.14-.12.21,0,.06-.02.11-.03.16Zm-2.36,5.34c1.44-1.49,2.12-3.32,2.36-5.34-2.11,1.19-2.3,3.23-2.36,5.34Zm7.04-19.35c.14-1.3.48-2.59-.14-3.84.16,1.28-.46,2.6.14,3.84Zm.05.17c-.03-.06-.03-.11-.05-.17,0,.03,0,.06-.01.09.01.02.05.06.07.08Zm-.19-4.05s-.02-.01-.02-.01c0,.02,0,.03.02.05,0-.01,0-.03,0-.04Z"/>
  </g>
</svg>