<?xml version="1.0" encoding="UTF-8"?>
<svg id="Layer_2" data-name="Layer 2" xmlns="http://www.w3.org/2000/svg" viewBox="0 0 654.5 575.44">
  <defs>
    <style>
      .cls-1 {
        fill:#808080
      }
    </style>
  </defs>
  <g id="Layer_1-2" data-name="Layer 1">
    <path class="cls-1" d="m316.64,170.69c-9.98-40.63-29.95-78.77-23.16-121.49,4.69,31.35,16.97,59.9,26.26,89.85,2.3,6.99.8,19.97,12.18,18.47,8.88-1.4,7.99-13.38,9.98-21.26,5.21-29.16,8.81-58.59,10.78-88.15,15.57,40.63-1.4,80.46-5.09,126.79,18.37-24.36,32.54-44.62,47.72-63.89,33.94-42.93,78.27-70.68,125.69-94.94,30.27-15.06,64.66-19.69,97.83-13.18,29.95,5.09,43.63,25.76,30.95,49.92-23.56,44.03-34.54,91.65-48.22,138.77-13.18,44.72-14.77,44.42-64.69,53.91,3.82,9.16,8.97,17.7,15.27,25.36,27.35,24.76,27.05,64.19,19.37,86.95-7.69,22.76-10.98,53.01-24.66,65.79-30.85,28.15-21.86,53.41-11.18,82.76,5.39,14.87,11.58,29.95,15.77,44.62,3.28,8.19-.69,17.49-8.88,20.77-1,.4-2.04.7-3.1.89-9.98,2.2-15.27-4.89-19.27-12.68-7.49-14.58-5.59-30.95-7.59-46.42-3.09-23.86-12.38-33.24-36.84-25.56-9.11,1.13-18.13,2.96-26.95,5.49-13.38,6.29-23.46,4.19-27.45-11.98-.8-3.49-2.1-9.98-3.79-9.98-34.64-4.89-26.75-34.34-32.35-55.61-10.78-41.23-17.17-83.66-39.93-123.29v52.01c0,9.98,2.7,24.76-9.98,25.46-14.48.8-13.48-15.17-14.58-25.66-1.9-18.17,2.3-37.14-9.98-58.8-15.29,46.56-28.02,93.91-38.14,141.86-4.19,18.27,1.4,43.63-29.95,45.52-2.2,0-4.49,7.29-5.79,11.48-4.79,15.27-14.68,18.37-28.05,11.58-9.68-3.19-19.76-5-29.95-5.39-24.06-4.79-32.25,7.69-35.14,28.05-1.8,12.88-2.8,25.86-5.29,38.63-2,10.68-7.59,20.76-19.97,17.47-12.38-3.29-15.87-15.07-11.88-26.85,7.19-21.06,15.67-41.73,23.16-62.59,8.09-22.36-3.39-36.44-14.18-56.2-13.08-24.26-29.15-50.81-32.64-81.16-4.09-36.34,9.98-64.09,33.04-89.85,7.89-8.79,3.49-13.68-6.79-13.68-35.64,0-47.42-26.16-55.31-53.31C41.01,144.83,31.62,98.01,5.57,55.58-7.21,34.82,2.87,14.75,26.93,8.16,61.17-1.83,97.84.61,130.46,15.05c68.66,29.71,127.35,78.49,169.11,140.56,3.89,5.79,5.59,14.28,17.07,15.07Z"/>
  </g>
</svg>