<?xml version="1.0" encoding="UTF-8"?>
<svg id="Layer_2" data-name="Layer 2" xmlns="http://www.w3.org/2000/svg" viewBox="0 0 541.84 654.5">
  <defs>
    <style>
      .cls-1 {
        fill:#808080
      }
    </style>
  </defs>
  <g id="Layer_1-2" data-name="Layer 1">
    <path class="cls-1" d="m539.29,306.56c-2.39-4.51-6.75-7.89-10.78-10.88-6.45-4.74-14.13-7.42-21.85-9.28-7.23-1.79-14.38-4.04-21.82-4.53-7.79-.49-15.64.17-23.33,1.34-19.15,2.89-38.08,6.21-57.02,9.67-25.61,4.55-51.68,6.45-77.53,7.69-5.19.24-10.32.47-15.47.7-.75.03-7.5.93-7.87.39-2.99-4.98-6.19-9.41-6.8-15.31-.58-6.72,1.42-13.48.68-20.2-.19-1.44,3.89-6.03,4.67-7.13,6.35-9.74,12.82-19.37,19.14-29.08,2.23-3.38,4.45-6.69,6.54-10.1,3.25-5.17,4.74-11.19,6.88-16.98,6.68-18.49,12.43-37.34,14.51-56.97,1.55-15.18.87-30.68,4.98-45.52,10.35-37.41,43.18-66.12,69.28-92.97.45-.43,7.09-6.8,6.58-7.35-.57-.62-7.42,5.41-7.83,5.79-14.9,12.52-28.95,26.27-41.5,41.11-13.31,15.78-24.92,33.26-30.92,53.18-5.29,17.29-5.91,35.41-7.79,53.29-1.97,18.76-5.98,37.1-13.84,54.35-4.75,10.49-10.86,20.28-17.32,29.8-3.23,4.7-6.63,9.45-9.92,14.11-1.55,2.06-8.43,9.37-7.61,12.12-.37-1.2-.54-2.72-1.13-3.82-.14-.33-2.64-3.13-2.66-2.9.72-2.8,3.08-8.31,1.34-11.08-2.06-3.22-7.56-3.26-10.76-3.88,0-6.1,2.21-2.48,6.24-5.17,2.89-1.91,5.44-7.8,4.33-11.13-1.4-4.15-6.8-7.83-9.97-10.71-.72-.65,3.77-12.49,4.13-13.75,1.83-6.04,3.68-12.19,4.39-18.49.43-4,.86-7.97,1.24-12.01,1.13-11.71,1.32-22.61-.07-34.38-2.93.42-1.26,13.52-1.17,15.89.37,15.27-1.28,32.44-6.21,46.93,0,.16-3.26,9.36-3.26,9.36l-1.13,4.12-1.73-.31c.38-2.18,2.02-5.05,1.67-7.23-.24-1.86-3.92-3.69-4.1-1.56,0,1.02-.8,9.99-.8,9.99-.26,0-1.59-.12-1.59-.12.14-2.48.3-4.93.41-7.46.51-11.46,1.07-22.96,1.71-34.46.7-12.55,2.48-25.92,1.52-38.51-.27-3.88-.27-7.19-4.1-7.85v-.12c-.31,0-.42.04-.72.04,0,0-.48-.04-.77-.04v.12c-3.77.66-3.81,3.97-4.04,7.85-1.01,12.59.74,25.96,1.49,38.51.57,11.5,1.13,23,1.7,34.46.11,2.53.27,4.98.39,7.46,0,0-1.35.12-1.52.12,0,0-.82-8.98-.9-9.99-.17-2.14-3.79-.31-4.06,1.56-.26,2.18,1.34,5.05,1.67,7.23l-1.73.31-1.2-4.12s-3.13-9.2-3.22-9.36c-4.96-14.49-6.51-31.66-6.1-46.93.03-2.37,1.67-15.47-1.23-15.89-1.47,11.77-1.22,22.67-.09,34.38.39,4.04.81,8.01,1.32,12.01.66,6.3,2.48,12.45,4.33,18.49.37,1.26,4.87,13.1,4.1,13.75-3.15,2.88-8.55,6.57-9.95,10.71-1.08,3.32,1.52,9.22,4.39,11.13,4,2.69,6.19-.93,6.19,5.17-3.22.62-8.75.66-10.78,3.88-1.71,2.76.62,8.28,1.4,11.08-.09-.23-2.59,2.57-2.68,2.9-.6,1.1-.76,2.62-1.17,3.82.9-2.75-6.06-10.06-7.58-12.12-3.36-4.66-6.66-9.41-9.89-14.11-6.51-9.52-12.64-19.3-17.3-29.8-7.95-17.25-11.97-35.59-13.92-54.35-1.82-17.87-2.5-36-7.77-53.29-6.06-19.91-17.59-37.4-30.97-53.18-12.51-14.84-26.59-28.59-41.46-41.11-.44-.38-7.25-6.41-7.8-5.79-.55.54,6.12,6.91,6.48,7.35,26.15,26.85,59.04,55.56,69.34,92.97,4.1,14.85,3.37,30.35,5.02,45.52,2.03,19.64,7.82,38.48,14.55,56.97,2.09,5.79,3.59,11.81,6.75,16.98,2.06,3.42,4.41,6.72,6.61,10.1,6.31,9.71,12.78,19.35,19.11,29.08.78,1.1,4.91,5.69,4.74,7.13-.84,6.72,1.25,13.48.6,20.2-.51,5.91-3.83,10.34-6.76,15.31-.35.54-7.13-.36-7.91-.39-5.13-.24-10.31-.47-15.42-.7-25.9-1.25-51.91-3.14-77.47-7.69-19.03-3.46-38-6.78-57.06-9.67-7.71-1.17-15.54-1.83-23.39-1.34-7.47.48-14.67,2.74-21.9,4.53-7.67,1.86-15.33,4.54-21.78,9.28-4.04,2.99-8.47,6.37-10.78,10.88-3.5,6.8-3.13,15.59-.29,22.53,4.06,10.19,15.05,13.84,24.36,17.6,26.15,10.69,53.45,16.59,81.18,21.57,6.18,1.05,12.44,2.18,18.67,3.14,18.65,3.11,36.7-1.4,54.23-7.26-1.68.53-3.77,17.91-4.28,20.19-1.46,6.97-2.97,14.01-4.45,21-2.89,13.17-7.38,26.11-11.01,39.13-2.18,7.69-4.28,15.35-6.16,23.12-1.81,7.07-7.21,12.78-12.08,17.99-5.23,5.59-10.16,11.46-15.09,17.36-20.34,24.21-40.96,48.64-62.62,71.68-5.97,6.42-12.14,12.32-18.9,17.92-5.81,4.81-12.61,10.22-15.06,17.68-.6,1.86,5.24,1.05,5.79.81,3.56-1.61,6.16-6.13,8.84-8.86,18.73-18.94,36.1-39.05,53.51-59.21,4.5-5.29,9.05-10.61,13.62-15.81,8.57-9.87,16.9-19.98,24.9-30.27,4.08-5.2,8.14-10.45,12.11-15.74,1.74-2.21,3.14-4.54,5.59-6.06,2.84-1.79,2.99-2.93,3.61-6.22.93-4.86,2.69-9.52,3.81-14.37,1.36-5.56,2.64-11.21,4.08-16.71,6.04-22.61,12.1-45.22,18.08-67.86.1-.3,1.38-6.04,1.59-6.04,9.39-2.87,18.86-5.17,27.84-8.97,7.02-2.92,13.45-6.99,20.05-10.73-.99.59-1.96,3.77-2.47,4.7-1.94,3.77-3.97,7.54-5.91,11.3-4.66,8.9-9.38,17.76-13.91,26.74-6.53,13.09-5.38,27.78-3.54,41.85,2.51,19.7,3.64,39.51,5.5,59.27,1.32,13.42,4.8,26.63,5.44,40.15.78,16.08-5.17,30.15-12.06,44.25-6.81,13.75-12.71,27.9-19.12,41.89-5.98,13.09-15.29,26.11-18.73,40.18.36-1.13,5.77-2.84,6.97-3.81,5.91-4.78,8.36-12.31,11.17-19.11,10.3-25.34,20.94-50.94,32.91-75.53,4.25-8.67,6.2-18.07,5.3-27.7-.81-8.98-4.27-17.68-6.04-26.54-2.33-11.85-1.75-24.05-2.64-36.06-.93-11.97-1.81-23.89-2.99-35.82-.93-8.39-4.09-18.1-2.8-26.46.63-3.98,3.68-7.54,5.46-11.03,1.92-3.69,3.74-7.54,5.62-11.27,2.35-4.74,4.8-9.36,7.02-14.1,5.22-10.53,10.18-21.13,15.52-31.51,1.59-3,3.62-6.07,6.51-7.89,2.87-1.79,5.59-1.24,8.84-1.67-1.22.15-4.39,5.09-5.46,6.1-3.77,3.64-6.96,8.06-9.26,12.78-.91,2.02-2.51,5.36-1.26,7.62,1.2,2.06,4.45,2.13,6.14.35,2.3-2.45,1.38-6.61,1.98-9.64.56-3.03,3.14-4.31,5.52-6.06-1.61,14.22-4.66,29.1-4.66,43.43,0,9.68-.72,19.43-1.02,29.1-.52,12.71-1.36,25.46-1.59,38.16-.19,11.35.78,22.65,1.79,33.91.69,8.67-.58,19.74,4.72,27.2,3.65,5.17,8.05,5.13,13.54,5.08,5.44.04,9.83.09,13.51-5.08,5.3-7.46,4.03-18.53,4.83-27.2.96-11.26,1.92-22.57,1.68-33.91-.24-12.7-1.15-25.45-1.56-38.16-.31-9.67-1.05-19.42-1.05-29.1,0-14.33-3.01-29.21-4.74-43.43,2.41,1.75,5.03,3.03,5.67,6.06.52,3.03-.42,7.19,1.92,9.64,1.62,1.79,4.96,1.71,6.12-.35,1.29-2.25-.36-5.6-1.31-7.62-2.22-4.72-5.44-9.13-9.19-12.78-1.1-1.02-4.19-5.95-5.5-6.1,3.23.42,6.04-.12,8.86,1.67,2.89,1.82,4.98,4.89,6.51,7.89,5.38,10.37,10.37,20.97,15.44,31.51,2.33,4.74,4.75,9.37,7.03,14.1,1.94,3.73,3.8,7.58,5.75,11.27,1.76,3.49,4.75,7.05,5.38,11.03,1.26,8.36-1.87,18.07-2.75,26.46-1.28,11.93-2.08,23.85-3.02,35.82-.91,12.01-.35,24.21-2.64,36.06-1.71,8.87-5.23,17.57-6.08,26.54-.88,9.64,1.12,19.03,5.36,27.7,11.93,24.59,22.56,50.19,32.91,75.53,2.74,6.8,5.2,14.33,11.14,19.11,1.11.98,6.59,2.69,7.02,3.81-3.5-14.07-12.8-27.09-18.85-40.18-6.35-13.99-12.19-28.13-19.02-41.89-6.96-14.1-12.84-28.17-12.06-44.25.65-13.52,4.15-26.73,5.36-40.15,1.86-19.76,3.02-39.58,5.54-59.27,1.86-14.07,3.07-28.75-3.6-41.85-4.47-8.97-9.2-17.84-13.8-26.74-1.98-3.76-3.91-7.53-5.89-11.3-.57-.93-1.53-4.12-2.49-4.7,6.61,3.74,13.04,7.81,19.99,10.73,9,3.8,18.52,6.1,27.82,8.97.25,0,1.58,5.74,1.69,6.04,5.98,22.64,11.97,45.24,18.01,67.86,1.42,5.5,2.74,11.15,4.06,16.71,1.14,4.85,2.92,9.52,3.87,14.37.62,3.29.75,4.43,3.61,6.22,2.43,1.52,3.87,3.85,5.56,6.06,3.94,5.29,8.03,10.53,12.13,15.74,8.02,10.3,16.33,20.4,24.9,30.27,4.61,5.2,9.06,10.52,13.64,15.81,17.31,20.16,34.71,40.27,53.48,59.21,2.69,2.72,5.3,7.25,8.82,8.86.56.24,6.45,1.05,5.82-.81-2.47-7.46-9.25-12.86-15.03-17.68-6.78-5.59-12.96-11.5-18.92-17.92-21.66-23.04-42.27-47.47-62.61-71.68-4.96-5.91-9.85-11.77-15.12-17.36-4.85-5.21-10.3-10.92-12.04-17.99-1.92-7.77-3.97-15.42-6.16-23.12-3.65-13.02-8.22-25.96-11.02-39.13-1.49-6.99-2.99-14.03-4.42-21-.53-2.27-2.7-19.66-4.4-20.19,17.58,5.87,35.67,10.37,54.26,7.26,6.24-.97,12.49-2.09,18.71-3.14,27.74-4.97,55.08-10.88,81.22-21.57,9.25-3.76,20.27-7.41,24.36-17.6,2.8-6.95,3.19-15.73-.35-22.53h0Z"/>
  </g>
</svg>