<?xml version="1.0" encoding="UTF-8"?>
<svg id="Layer_2" data-name="Layer 2" xmlns="http://www.w3.org/2000/svg" viewBox="0 0 654.5 453.71">
  <defs>
    <style>
      .cls-1 {
        fill:#808080
      }
    </style>
  </defs>
  <g id="Layer_1-2" data-name="Layer 1">
    <path class="cls-1" d="m592.42,187.45c-.68-1.66-1.44-3.04-2.52-4.23-.85-.94-1.4-2.01-1.34-3.29.07-1.53-.42-2.76-1.64-3.74-.9-.72-1.33-1.77-1.66-2.82-.39-1.2-1.14-2.06-2.02-2.93-2.63-2.58-6.17-4.34-7.51-8.12-.09-.28-.4-.53-.7-.68-2.85-1.6-5.21-4.03-8.41-5.12-1.25-.42-2.37-1.21-3.13-2.34-2.52-3.74-6.06-6.31-9.83-8.63-.75-.46-1.56-.9-1.91-1.75-.99-2.41-3.07-3.94-4.66-5.87-1.56-1.95-3.83-3.46-4.53-5.96-.55-1.95-1.45-3.68-2.45-5.36-.85-1.4-1.25-2.78-1.12-4.36.15-2.12-.44-4.14-.72-6.2-.13-1.1-.81-1.47-1.86-1.25-3.64.74-4.9,2.17-4.51,5.91.33,3.29-.35,6.28-1.38,9.35-.72,2.08-1.91,3.88-2.41,6.07-1.73,7.71-2.56,15.59-4.8,23.17-.64,2.15-.29,2.52,1.55,3.68,1.8,1.14,3.9,1.45,5.65,2.67,4.14,2.93,8.58,5.1,13.84,4.84.7-.04,1.27.26,1.88.55,3.06,1.53,6.41,2.19,9.66,2.98,1.9.48,3.79.88,5.67,1.45,1.29.39,1.95,1.09,1.97,2.26.04,2.08,1.09,2.36,2.78,1.86.65-.2,1.31-.26,1.95-.35,5.6-.7,11.17-1.51,16.18,2.17.42.31.98.53,1.49.64,2.08.52,3.52,1.69,4.44,3.63.33.72.63,1.66,2.06,1.75h0Zm-57.04,136.26c.09.42.18,1.07.33,1.71.59,2.67.72,2.74,3.26,2.17,1.6-.39,3.18-.85,4.84-.92.81-.02,1.55-.26,2.04-.92,3.57-4.66,8.43-8.41,10.36-14.23.75-2.23,2.59-3.88,3.09-6.13.79-3.52,2.41-6.59,4.29-9.55.53-.87,1.05-1.69,1.09-2.72.02-1.56.9-2.65,1.99-3.64,2.39-2.12,4.12-4.84,6.17-7.25,2.52-2.96,4.53-6.37,7.12-9.35.35-.4.83-.88.87-1.38.18-2.34,1.86-3.17,3.66-4.14,3.29-1.79,6.48-4.07,8.47-7.14,1.42-2.19,3.04-3.92,4.86-5.61.96-.88,2.01-1.8,2.65-2.91,2.54-4.49,3.44-8.34.31-13.14-.66-1.03-1.2-2.17-2.74-1.86-1.62.33-1.86,1.71-2.04,3.02-.11.87-.04,1.75-.02,2.63.02,1.01-.04,2.01-.61,2.87-.86,1.29-1.29,2.76-1.64,4.27-.37,1.55-1.21,2.8-2.36,3.9-2.39,2.34-5.12,4.12-8.37,5.02-4.51,1.27-9.06,1.51-13.69.68-3.81-.68-3.87-.61-5.5,2.74-.68,1.4-1.6,2.32-3.2,2.5-4.1.48-8.19.87-12.13,2.45-1.79.72-3.59,1.66-5.52,1.99-4.25.74-8.23,2.08-11.91,4.36-.35.2-.83.28-1.25.31-2.21.26-3.94,1.69-6.02,2.34-1.09.33-1.29,1.18-.75,2.37,1.67,3.68,3.2,7.38,4.33,11.3,1.22,4.21,1.86,8.54,3.06,12.76,1.07,3.77,1.9,7.6,3.61,11.17,1.42,2.98,2.76,6.02,1.49,9.44-.09.2-.06.44-.11.88h0Zm8.1,8.54c3.59,1.58,6.72,3.42,10.27,3.99,2.1.33,3.98,1.16,5.96,1.69,5.63,1.47,11.41,1.84,17.14,2.56,1.2.15,2.48.29,3.61-.02,2.85-.79,5.54-.55,8.38.18,1.66.42,2.48,1.8,3.92,2.23,2.74.83,4.16,2.6,4.47,5.41.09,1.01.61,1.79,1.75,2.14,4.84,1.47,7.93,5.32,11.32,8.71,1.23,1.23,2.47,2.15,4.12,2.43,1.58.26,2.83.7,3.7,2.3.92,1.71,2.54,2.6,4.66,2.5,2.06-.09,4.09.66,6.18-.22,1.31-.55,2.45.18,2.72,1.58.94,4.55,4.34,6.83,8.02,8.85.92.52,1.79,1.1,1.75,2.19-.09,1.84,1.05,2.69,2.34,3.63,1.86,1.33,3.61,2.83,5.47,4.31,1.21-.59.98-1.95,1.69-2.74.77-.9,1.44-1.23,2.52-.7.96.48,1.2,1.2.92,2.17-.28.96-.52,1.97-1.21,2.67-2.06,2.08-3.44,4.79-6.06,6.39-.72.42-1.23,1.21-1.79,1.91-1.14,1.42-2.67,1.84-4.38,1.77-.85-.04-1.51-.4-1.64-1.33-.13-.83.46-1.18,1.09-1.42.61-.22,1.33-.24,1.62-.96-.09-1.03-.92-1.47-1.55-2.06-3.39-3.24-6.81-6.44-10.2-9.7-.59-.57-1.23-.79-2.01-.98-2.45-.55-4.67-1.42-6.83-2.95-1.62-1.14-3.26-2.25-4.79-3.57-1.67-1.45-2.85-3.06-2.71-5.34.13-1.69-.92-2.28-2.21-2.15-3.72.4-6.77-.83-9.46-3.29-.39-.35-.98-.46-1.49-.64-3.53-1.36-5.45-3.85-5.76-7.68-.2-2.47-.64-2.63-2.87-1.58-.5.22-1.03.44-1.42.81-1.71,1.58-3.11,1.27-4.88-.18-1.93-1.62-4.62-1.84-6.96-2.72-3.53-1.33-7.33-2.02-11.04-2.94-5.39-1.34-10.82-2.5-16.16-4.03-2.3-.64-4.36-1.99-6.66-2.78-4.45-1.53-8.45-4.05-12.61-6.22-2.49-1.31-4.68-2.89-5.45-5.84-.29-1.14-1.12-1.99-2.32-2.1-3.92-.4-5.3-3.55-6.83-6.41-1.2-2.21-2.02-4.62-3.04-6.94-2.61-5.95-5.69-11.65-8.74-17.38-1.34-2.52-2.41-5.17-3.48-7.84-1.55-3.92-2.14-4.16-6.33-3.9-2.06.15-4.09.79-6.18-.06-1.69-.68-3.18-1.47-4.09-3.06-1.16.2-1.03,1.16-1.23,1.8-.88,2.63-2.06,4.99-4.05,7.05-2.87,3-4.23,6.63-3.26,10.84.59,2.6.55,5.23.55,7.88.02,5.49-.28,10.99.52,16.46.59,4.07-.26,8.1-.61,12.15-.13,1.29-.92,2.23-1.9,2.98-1.29.98-1.69,2.26-2.19,3.81-1.14,3.74-1.93,7.69-4.53,10.84-.2.26-.46.52-.59.79-3.72,8.25-10.31,14.49-15.41,21.74-3.4,4.84-7.45,9.24-11.47,13.6-2.17,2.36-3.96,4.97-5.76,7.58-1.99,2.91-3.98,5.8-5.98,8.69-.99,1.4-2.12,2.56-4.05,2.39-1.27-.13-2.01.68-2.63,1.64-.77,1.2-1.67,2.34-2.36,3.57-2.36,4.25-5.83,7.23-10.1,9.44-1.66.87-3.13,2.17-4.07,3.74-1.1,1.84-2.65,2.63-4.6,2.67-1.56.02-2.74.61-3.72,1.75-2.01,2.34-4.29,4.1-7.68,3.53-.64-.09-1.38,0-1.84.53-1.31,1.53-3.29,2.28-4.56,3.74-1.77,2.01-3.99,2.96-6.29,4.03-2.17.99-4.2,2.34-6.28,3.53-1.9,1.1-3.77,2.23-5.69,3.29-1.56.88-3.13,1.01-4.56-.28-.66-.63-1.45-.96-2.25-1.34-3.4-1.62-4.27-3.61-3.22-7.2.17-.52.33-1.05.53-1.55.33-.79.48-2.04,1.53-1.82,1.34.26.4,1.38.37,2.14-.11,2.06.44,2.82,2.5,3.06,3.88.44,7.68.04,11.25-1.64,2.23-1.05,2.91-2.98,1.79-5.17-.2-.39-.48-.74-.77-1.07-1.2-1.33-1.16-2.52-.2-4.14,1.51-2.63,3.99-3.99,6.33-5.5,3.04-1.97,6.42-3.22,10.09-3.46,1.44-.09,2.48-.77,3.39-1.79,1.09-1.21,2.45-1.73,4.07-1.91,1.51-.18,2.96-.7,4.45-1.03.87-.18,1.34-.75,1.55-1.55.5-1.9,1.88-2.91,3.52-3.68,2.3-1.07,4.45-2.37,6.42-3.98,1.05-.85,2.23-1.56,3.53-1.69,2.04-.22,3.06-1.49,3.94-3.09,1.23-2.23,2.36-4.47,2.91-6.98.3-1.45.77-2.72,2.6-2.93,1.12-.13,1.99-.98,2.65-1.86,3.44-4.67,7.84-8.52,11.21-13.31,4.8-6.83,10.11-13.27,15.3-19.79,3.5-4.38,6.76-8.95,9.76-13.69.99-1.58.53-4.18-1.36-5.08-2.36-1.16-2.8-2.95-3.17-5.26-1.18-7.27-3.11-14.39-4.99-21.52-.39-1.44-.98-1.9-2.26-1.01-1.36.94-2.71.85-3.99-.06-1.36-.92-2.87-.98-4.44-1.01-6.26-.13-12.41.29-18.59,1.86-6.7,1.71-13.69,1.66-20.63,1.14-6.92-.52-13.82-.68-20.73.13-3.94.44-7.9.64-11.83.74-6.28.11-12.5.64-18.74,1.25-1.86.17-3.74.24-5.6.13-4.86-.29-9.65.66-14.47.7-2.08.02-2.54,1.47-2.93,3-1.27,5.12-2.72,10.18-4.29,15.22-.75,2.41-1.27,4.88-1.91,7.33-1.18,4.49-3.59,7.95-8.17,9.48-.96.31-1.38,1.05-1.8,1.8-1.71,3-4.38,4.8-7.38,6.35-5.87,3-11.98,5.41-17.93,8.19-4.66,2.21-9.42,4.14-14.06,6.42-6.48,3.22-13.25,5.84-19.95,8.6-10.8,4.47-20.96,10.11-30.5,16.86-2.06,1.45-4.22,1.66-6.11.28-2.3-1.69-4.12-1.4-6.61-.26-2.83,1.33-5.61,3-8.85,3.41-1.1.15-1.93.99-2.71,1.8-1.71,1.8-4.05,2.48-6.3,2.3-2.96-.24-5.58.94-8.28,1.53-2.12.46-4.47,1.03-6.48,2.23-.68.4-1.51.55-2.25.26-2.12-.83-3.74.07-5.5,1.16-1.56.96-3.39,1.56-5.15,2.1-3.64,1.1-6.94,3.48-11.01,2.93-.33-.04-.75-.02-.98.15-3.68,2.83-8.61,3.09-12.28,6.15-3.99,3.33-8.37,3.02-12.22-.42-.7-.64-1.88-4.75-1.55-5.56.31-.72.96-.99,1.62-.66,3.55,1.8,6.61-.4,9.79-1.27,1.88-.52,3.64-1.53,5.45-2.34,1.68-.74,3.53-1.09,5.12-2.1-1.42-2.69-1.07-4.42,1.56-7.27.9-.98,1.75-1.82,2.12-3.22.4-1.53,1.56-1.64,2.69-.5,1.86,1.86,2.61,1.95,4.55.39.53-.42.99-.98,1.69-.75,1.23.39,2.36.24,3.46-.4.18-.09.48-.17.64-.07,2.6,1.42,4.62.66,6.59-1.4.88-.9,2.41-1.01,3.72-.24.37.22.81.33,1.2.53,3.76,1.95,7.05,2.02,9.76-1.88.92-1.33,2.67-1.33,4.25-1.31,2.72,0,5.45.07,8.19-.55,3.06-.68,5.78-1.97,8.45-3.46,2.34-1.29,4.36-3.55,7.49-2.19.15.07.48,0,.61-.13,2.02-2.17,4.91-1.47,7.38-2.25,1.47-.46,2.8-1.18,4.18-1.8,4.53-2.06,8.37-5.78,13.69-6.02,1.66-.09,2.76-1.27,4.12-1.93,6.22-3,12.41-6.07,18.68-8.91,7.58-3.42,14.8-7.69,22.68-10.42,5.5-1.91,10.6-4.79,16.11-6.68,2.78-.96,3.7-2.71,2.45-5.34-1.79-3.76-1.4-6.99.7-10.57,1.51-2.58,2.48-5.61,2.26-8.82-.06-1.2.04-2.43.18-3.63.28-2.67-.06-3.06-2.76-2.69-4.79.64-9.55,1.44-14.34,2.01-4.03.5-8.08.92-12.15,1.1-11.96.53-23.93-.06-35.89-.06-2.52,0-5.03-.5-7.53-.85-2.5-.33-4.97-.9-7.53-.46-.63.09-1.31.02-1.95-.11-8.74-1.69-17.63-2.32-26.37-3.88-7.55-1.36-15.24-1.68-22.71-3.41-2.26-.53-4.58-.42-6.88-.74-10.86-1.45-21.48-4.23-32.19-6.48-2.04-.42-4.09-.87-6.15-1.18-4.69-.68-9.24-1.84-13.68-3.53-3.07-1.16-6.28-2.01-9.46-2.82-5.67-1.42-11.03-3.63-16.44-5.74-2.54-1.01-5.06-2.15-7.66-2.91-4.14-1.21-7.79-3.63-12.04-4.42-.42-.09-.88-.26-1.21-.52-4.27-3.57-9.55-5.41-14.36-7.97-6.17-3.28-12.04-6.77-17.25-11.39-.88-.81-1.91-1.51-2.94-2.12-7.49-4.42-13.18-10.82-19.07-17.03-3.76-3.96-6.99-8.45-11.54-11.67-2.17-1.53-3.09-3.96-3.7-6.44-.42-1.73-1.01-3.28-2.12-4.75-1.55-2.06-2.14-4.56-2.32-7.12-.16-2.15.41-2.89,2.5-3.68,1.14-.42,2.34-.53,3.55-.53,1.66,0,3.29,0,4.97-.22-1.62-.24-3.22-.52-4.84-.72-1.1-.13-2.15-.44-3.15-.92-2.8-1.38-3.29-2.48-2.72-5.54.68-3.72,2.69-6.74,5.25-9.39,4.71-4.9,8.85-10.38,14.1-14.76,2.26-1.88,4.8-3.41,7.22-5.12,8.06-5.67,16.27-11.14,24.74-16.16,2.65-1.56,5.37-2.95,8.14-4.29,1.2-.59,2.48-.92,2.96-2.36.09-.28.46-.61.7-.61,4.21.17,7.11-2.78,10.56-4.4,2.71-1.25,5.21-2.95,8.47-3.17,2.06-.13,4.03-1.58,6.02-2.47.39-.18.72-.74,1.07-.74,4.01-.02,6.83-3.35,10.69-3.77,2.52-.26,4.75-1.64,7.09-2.52,4.01-1.51,8.14-2.48,12.26-3.44.55-.13,1.14-.13,1.58-.41,3.28-2.06,6.96-2.61,10.66-3.18,7.29-1.1,14.25-3.74,21.52-4.88,10.18-1.58,20.32-3.52,30.55-4.8,9.68-1.2,19.34-2.72,28.92-4.68.55-.11,1.09-.39,1.62-.35,6.31.72,12.39-1.36,18.63-1.6,8.23-.35,16.42-1.31,24.68-1.27,1.73,0,3.48-.46,5.21-.61,5.49-.48,10.93.09,16.4.5,3.48.26,6.98.7,10.49.31,1.66-.18,3.28-.06,4.86.61.59.24,1.23.44,1.88.52,3.17.39,3.63-.13,2.69-3.09-.61-1.9-1.33-3.74-2.25-5.5-1.07-2.04-1.18-4.14-.42-6.37,1.09-3.28.33-4.97-2.96-6.11-2.58-.88-5.25-1.64-7.95-2.12-7.79-1.4-15.35-3.77-23.15-5.1-2.8-.46-5.52-1.49-8.21-2.43-11.32-3.98-22.86-7.1-34.57-9.68-1.29-.28-2.56-.63-3.81-1.07-1.88-.7-3.77-1.07-5.8-.88-2.3.18-4.42-.37-5.89-2.28-2.65-3.42-6.66-4.9-10.09-7.22-4.05-2.72-8.63-3.57-13.4-3.79-2.26-.11-4.36-.75-5.28-3.22-.18-.53-.57-1.16-1.09-1.12-2.78.24-5.15-1.93-7.99-1.25-1.69.42-3.09-.22-3.96-1.64-1.53-2.5-3.85-3.55-6.61-3.66-.96-.06-1.64-.52-2.45-.77-1.88-.63-3.59-1.56-5.65-1.97-3.2-.64-5.94-2.95-6.96-6.37-.57-1.9-1.62-3.06-3.31-3.79-2.83-1.21-5.61-2.54-8.49-3.63-2.85-1.07-4.56.28-4.66,3.41,0,.63.37,1.44-.57,1.62-.72.17-1.21-.37-1.58-.94-.9-1.44-.79-4.23.7-5.5,1.97-1.71,2.76-3.59,2.21-6.11-.09-.42,0-.88.06-1.31.13-.94.61-1.66,1.51-2.01,1.03-.39,2.26-.2,2.69.68,1.44,3,4.55,3.68,7.01,5.15,2.14,1.27,4.68,1.84,6.81,3.28.94.64,2.12.48,3.2.4,3.74-.33,6.98.66,9.66,3.28.7.68,1.36,1.03,2.34.5,1.34-.72,2.25.02,3.07,1.05,1.05,1.27,2.08,2.58,3.26,3.7,1.29,1.23,2.34,3.06,4.64,2.43.26-.07.72.18.87.4,1.47,2.25,4.22,2.72,6.11,4.36,1.6,1.38,3.77,2.06,5.67,2.45,3.11.64,5.34,2.5,7.69,4.2,1.34.98,2.65,1.84,4.18,2.52,2.19.94,4.22,2.32,6.33,3.46,1.95,1.07,3.99,1.21,5.96.11.94-.52,1.77-.75,2.8-.28,9.22,4.36,19.09,7.09,28.46,11.12,2.3.99,4.77,1.68,7.34,1.71.74,0,1.55.2,2.23.52,3.24,1.47,6.7,2.1,10.14,2.82,4.51.94,8.96,2.1,13.33,3.66,2.15.79,4.38,1.34,6.7,1.62,1.73.22,3.39.75,4.99,1.58,3.15,1.62,6.79,1.66,10.05,2.91,4.25,1.64,8.84,2.76,11.49,7.03.64,1.03,1.51,1.44,2.71,1.56,2.96.29,5.06,1.77,6.31,4.56,2.5,5.63,5.26,11.14,7.71,16.79.92,2.15,2.21,3.04,4.49,3.02,4.38,0,8.72.37,13.1.99,2.74.39,5.84.61,8.76-.04.85-.18,1.79-.26,2.61-.06,5.36,1.44,10.91,1.31,16.36,1.58,6.17.31,12.18,1.49,18.31,1.95,2.65.2,5.3.4,7.88.07,4.49-.59,8.98-.72,13.47-.57,2.32.09,4.64.13,6.94.02,3.31-.13,6.57.26,9.81.85,6.18,1.12,12.44,1.44,18.7,1.33,3.42-.06,3.75-.44,3.83-3.87.04-1.75-.02-3.52-.06-5.28-.06-2.08.28-3.79,1.69-5.71,1.21-1.64,1.73-4.09,1.97-6.57.39-4.25-1.75-6.2-4.77-8.06-1.49-.92-2.85-2.06-4.49-2.76-.29-.13-.63-.28-.85-.5-4.82-5.02-11.03-8.21-16.57-12.28-4.16-3.07-8.03-6.9-13.47-7.92-.92-.17-1.79-.81-2.61-1.36-1.82-1.18-3.79-1.69-5.95-1.6-1.44.07-2.78-.07-3.9-1.27-1.07-1.1-1.93-2.1-1.12-3.74.31-.63-.31-.96-.68-1.33-1.84-1.88-3.68-3.76-5.56-5.61-.81-.79-1.86-1.12-2.98-1.2-1.9-.15-3.11-1.29-4.44-2.54-3.61-3.33-6.3-7.55-10.18-10.6-.33-.26-.85-.59-.88-.92-.44-2.82-2.91-4.53-3.74-7.09-.57-1.75-2.34-2.23-3.31-3.53-.57-.77-1.66-1.16-2.1-2.08-1.47-3.09-3.61-5.71-5.85-8.26-1.34-1.53-1.14-1.91.72-2.91,2.34-1.25,2.41-1.58.68-3.52-2.04-2.3-4.1-4.58-6.15-6.88-2.06-2.34-3.92-2.37-6.02-.15-.42.46-.5,1.27-1.31,1.27-.48-.28-.57-.7-.53-1.14.2-3.11,4.82-7.49,7.95-7.53.98-.02,1.97.04,2.96.09,1.8.09,2.98,1.01,3.92,2.58,2.65,4.42,5.41,8.78,8.21,13.11.85,1.34,1.47,2.72,1.75,4.23.37,1.91,1.21,3.17,3.24,3.63,1.64.39,3.06,1.34,4.01,2.76,4.05,5.93,9.55,10.73,13.36,16.88.35.55.77,1.16,1.31,1.45,2.15,1.16,3.31,3.15,4.49,5.15.66,1.12,1.36,2.25,2.26,3.22,1.09,1.18,2.21,2.08,3.99,1.8.97-.15,2.04-.06,2.76.75,2.54,2.95,6.31,4.34,9,7.05,4.23,4.25,10.23,5.91,14.47,10.1,4.68,1.29,7.88,5.06,12.09,7.14,1.66.83,2.76,2.47,4.34,3.52,2.63,1.75,5.3,3.57,7.55,5.8,2.56,2.5,4.69,5.47,6.96,8.26.48.61.59,1.4.64,2.19.06.75.02,1.6.52,2.21,1.79,2.25,2.21,5.17,3.92,7.44,1.16,1.53,1.42,3.35,1.82,5.21,1.21,5.58,2.15,11.21,2.32,16.93.04,1.38.63,2.28,1.84,2.85.59.28,1.16.64,1.77.88,4.66,1.86,8.15,5.08,10.92,9.22,1.51,2.26,3.7,4.05,4.6,6.76.31.98,1.12.99,1.84.39,1.14-.99,2.41-.98,3.7-.48,3.57,1.36,6.9-.37,10.34-.79,1.1-.13,1.42-1.27,1.9-2.1,2.26-3.79,3.75-7.95,5.54-11.96,2.52-5.69,5.36-11.26,7.6-17.1.87-2.26,2.74-3.7,5.15-4.22,1.14-.22,2.04-.55,2.78-1.53,2.82-3.63,6.85-5.39,11.08-6.66,6.76-2.06,5.38-1.07,6.06-7.1.42-3.94,1.67-7.91.53-11.98-.28-1.05.09-2.19.41-3.26.68-2.21,2.34-2.95,4.18-1.51,2.36,1.82,4.18,4.05,3.66,7.42-.24,1.53-.29,2.87.9,4.45,1.44,1.88.29,4.45-.42,6.64-.74,2.19-.48,2.87,1.78,2.82,6.7-.13,13.25,1.84,19.97,1.38,3.48-.24,6.92.31,10.44-.66,1.69-.48,4.03-.88,5.95.79,1.23,1.09,2.71.48,2.91-1.2.37-3.04,1.91-5.15,3.94-7.31,2.78-2.93,4.23-6.87,6.92-9.96,1.07-1.23,1.44-3.2,1.82-4.9.63-2.67,1.8-4.97,3.81-6.79,2.58-2.37,3.79-5.36,4.1-8.74.18-2.08,1.01-3.37,2.87-4.69,2.58-1.8,3.99-4.82,4.49-8.08.15-.94-.29-1.69-1.14-2.19-.63-.35-1.07-.88-.77-1.6.37-.96,1.27-.77,1.99-.66,2.32.35,4.18,1.84,6.24,2.78,1.25.57,2.67,1.05,3.74,2.04.81.77,1.6,1.55,1.42,2.8-.15.98-.77,1.56-1.69,1.82-1.21.35-.64-1.2-1.44-1.36-2.23,2.91-3.72,6.18-4.64,9.72-.52,1.97-1.34,3.68-2.93,5.02-1.27,1.07-2.21,2.47-2.96,3.94-.79,1.53-.53,1.93,1.1,2.14.22.02.44,0,.66.02.94.13,2.3-.35,2.67.75.46,1.38.2,3.06-1.09,3.88-1.86,1.2-3.02,3.11-4.99,4.23-1.88,1.05-3.61,2.61-2.98,5.3.24,1.05-.59,1.6-1.36,2.06-1.34.77-2.45,1.84-3.61,2.85-.98.85-1.75,1.56-1.44,3,.18.83-.29,1.49-.94,1.97-.99.74-1.82,1.56-2.28,2.76-.2.5-.77.96-1.31.81-1.9-.48-2.65,1.03-3.88,1.9-3.41,2.41-4.56,6.52-7.36,9.39-2.19,2.28-4.8,3.7-7.69,4.79-1.58.57-2.96.04-3.76-1.29-1.77-3-4.95-3.72-7.79-4.22-3.33-.57-6.55-1.75-9.99-1.88-1.6-.07-3.13-.87-4.84-.42-.99.26-1.91-.35-2.85-.66-2.34-.77-3.18-.24-3.53,2.25-.02.09-.07.22-.04.31,1.18,2.98,1.34,6.33,3.26,9.04.31.44.98.7,1.14,1.16,1.42,3.63,4.36,5.82,7.21,8.19,1.68,1.42,2.72,3.46,3.26,5.65.26,1.1.61,1.71,1.93,1.62,1.69-.13,2.87,1.1,3.88,2.23,3.39,3.76,6.28,7.9,8.63,12.37.72,1.36,1.27,2.5,3.11,2.32,1.66-.18,2.54.99,3.35,2.25,1.33,2.02,2.06,4.4,3.68,6.22.72.81,1.21,1.82,2.23,2.39,1.97,1.09,1.21,3.46,2.17,4.9.99,1.45,3.26,1.75,3.75,3.9.92,4.18,2.23,8.26,2.25,12.59,0,2.74.5,5.47-.22,8.21-.22.88.15,1.95.33,2.93.39,2.34.7,2.5,2.89,1.29,1.25-.68,2.1-.52,2.61.79.53,1.31,1.27,2.56,1.23,4.07-.04.75-.02,1.62.33,2.23,1.05,1.75,1.03,3.07-.98,3.99-.94.44-1.1,1.29-.99,2.25.2,2.06.2,4.16,1.21,6.09,1.31,2.54,1.05,4.75-1.1,6.85-1.86,1.79-1.88,2.15.2,3.46,3.5,2.19,4.16,6.07,5.95,9.28.75,1.34.07,2.85-1.2,3.79-1.34.99-2.04,2.25-2.12,3.9-.04.66-.15,1.34-.74,1.77-2.1,1.51-3.29,3.74-4.68,5.85-.79,1.2-1.99,2.06-3.28,2.93-1.95,1.29-4.44,2.54-5.15,5.21-.28,1.03-.94,1.71-1.58,2.47-2.37,2.72-4.64,5.52-6.79,8.47-2.61,3.63-5.93,6.72-8.96,10.05-.44.48-.99.81-1.64,1.03-5.12,1.75-6.63,5.04-7.2,9.81-.11.99.09,2.01-.79,2.69-2.67,2.01-3.41,5.03-4.07,8.03-.37,1.66-.94,2.93-2.28,4.18-1.86,1.69-2.32,4.34-3.11,6.74-.5,1.51-.44,3.66-3.17,3.22-.7-.11-1.05.99-1.4,1.66-1.18,2.26-2.61,4.31-4.33,6.17-.53.57-.9,1.14-1.9.63-1.45-.79-1.51-.7-3.46,1.09h0Z"/>
  </g>
</svg>