<?xml version="1.0" encoding="UTF-8"?>
<svg id="Layer_2" data-name="Layer 2" xmlns="http://www.w3.org/2000/svg" viewBox="0 0 534.23 654.5">
  <defs>
    <style>
      .cls-1 {
        fill:#808080
      }
    </style>
  </defs>
  <g id="Layer_1-2" data-name="Layer 1">
    <path class="cls-1" d="m528.25,581.98c-4.55-6.52-6.25-14.62-4.71-22.42v-82.06c-2.24-58.99-9.75-117.67-22.42-175.33-1.36-10.81-6.53-20.79-14.57-28.14-25.43-23.09-44.93-51.97-56.84-84.19-1.1-2.64-2.33-5.22-3.7-7.73-7.4-13.45-8.86-13.45-18.61-1.91-3.23,4.95-7.52,9.12-12.56,12.22-14.35,6.5-16.82,18.5-16.93,32.06,0,21.64-.78,43.16,0,64.79,0,18.95,0,18.83,18.72,21.64,12.87,1.55,25.58,4.17,38,7.85,14,4.01,24.72,15.3,28.03,29.48,2.69,8.2,4.27,16.72,4.71,25.33-1.01,36.88,4.6,73.31,5.49,109.97.14,25.18,2.43,50.31,6.84,75.11,6.45,24.5,17.9,47.4,33.63,67.26,3.59,5.38,7.62,10.54,11.21,16.14,2.86,3.5,2.34,8.66-1.16,11.51-.44.36-.91.67-1.41.93-25.67-35.09-51.79-69.17-60.65-113.78-11.62-52.7-17.18-106.56-16.59-160.53,0-19.28-4.37-23.2-24.33-24.89-9.3-.78-18.5-2.58-27.8-3.36-14.8-1.46-17.94,0-20.74,15.02-2.8,15.02-5.04,31.16-7.17,46.86-4.77,32.09-13.2,63.54-25.11,93.72-5.03,15.3-17,27.31-32.29,32.4-6.57,3.01-12.97,6.38-19.17,10.09-9.6,5.19-20.76,6.71-31.39,4.26-8.74-2.98-17.75-5.12-26.9-6.39-11.77-.9-18.05-11.21-23.77-20.29-17.14-29.31-28.55-61.6-33.63-95.17-3.92-22.42-5.38-45.63-8.3-68.49-2.02-16.37-4.48-18.38-20.51-16.7-9.2,1.46-18.49,2.36-27.8,2.69-16.59,0-22.42,6.39-23.32,23.77,1.11,28.01.25,56.07-2.58,83.96-7.06,43.16-11.88,86.77-30.38,127.46-11.21,23.88-30.94,41.25-42.37,66.14-5.3-3.2-7-10.09-3.8-15.39.6-1,1.35-1.89,2.23-2.66,10.08-14.06,19.4-28.65,27.91-43.72,9.31-16.2,14.87-34.28,16.25-52.91,3.7-54.59,9.19-108.96,9.64-163.78.5-7.13,1.55-14.22,3.14-21.19,2.71-22.4,20.98-39.68,43.5-41.14,9.19-1.46,18.38-3.81,27.69-4.48,9.3-.67,16.03-4.93,15.81-15.92-.6-26.63.71-53.26,3.92-79.7,1.54-5.76-.93-11.85-6.05-14.91-8.31-5.53-15.66-12.38-21.75-20.29-5.83-7.17-10.54-4.93-15.69,1.12-5.26,8.57-9.44,17.76-12.44,27.35-12.29,26.39-29.49,50.2-50.67,70.18-9,8.26-15.13,19.18-17.49,31.16-18.52,73.35-28.67,148.57-30.27,224.2.19,5.76.04,11.52-.45,17.26-1.01,7.85-2.47,15.47-4.37,26.57-3.12-5.35-4.45-11.55-3.81-17.71-2.53-74.21,5.01-148.43,22.42-220.61,1.57-6.95,5.61-14.69,2.35-20.96-5.2-9.84-3.03-21.95,5.27-29.37,5.64-7.51,9.48-16.22,11.21-25.45,17.41-65.46,45.76-127.5,83.85-183.51,15.81-24.1,15.81-25.45-2.13-48.99-.57-.65-1.06-1.36-1.46-2.13-2.58-4.48-11.21-8.63-5.16-14.01,6.05-5.38,11.21,1.23,15.36,6.39,5.72,7.17,6.28,19.95,16.37,21.41,10.09,1.46,14.46-10.31,22.42-15.25,19.02-13.3,41.82-20.1,65.02-19.39,9.26.92,18.6.39,27.69-1.57,11.09-2.78,22.73-2.43,33.63,1.01,4.66,1.91,9.65,2.86,14.69,2.8,28.53-1.96,56.62,7.8,77.8,27.02,13.12,11.21,13.34,11.21,22.42-3.81,4.26-7.51,7.51-15.81,16.37-19.28,2.62-1.39,5.84-.84,7.85,1.35,1.88,2.14,1.68,5.4-.46,7.28-.14.12-.29.24-.44.34-28.25,22.98-20.63,44.84-3.25,72.31,29.11,45.63,50.83,95.57,64.35,147.97,5.38,19.95,8.63,41.03,23.88,57.06,3.14,3.36,2.8,4.82-4.48,8.3-5.27,2.58-2.8,5.72-2.24,8.52,7.75,36.62,13.52,73.63,17.26,110.87,3.96,50.96,4.22,102.13.78,153.13-.67,1.23-1.91,2.47-3.59,5.27ZM62.02,240.4c14.91-27.02,29.59-54.03,44.84-81.05,11.88-21.52,25-24.77,45.63-11.21,3.03,2.02,5.83,4.26,8.86,6.17,6.61,4.37,11.21,1.91,13.23-4.82,4.18-13.04,9.51-25.68,15.92-37.78,3.36-6.28.67-10.43-4.04-14.91-8.01-6.1-16.66-11.32-25.78-15.58-17.49-10.43-17.49-10.31-28.7,5.83-21.45,32.33-40.2,66.37-56.05,101.79-7.97,16.11-12.7,33.63-13.9,51.57Zm422.4,10.43c2.33-4.16,2.66-9.14.9-13.56-12.78-50.56-37.78-95.73-63.45-140.57q-13.56-23.77-36.88-11.21c-4.48,2.35-9.19,4.15-13.45,6.84-7.73,3.17-11.44,12.01-8.27,19.74.25.61.54,1.21.87,1.78,4.3,9.88,7.28,20.28,8.86,30.94,2.58,13.68,5.04,14.57,16.48,7.62,25.78-15.58,36.21-11.88,50.56,14.91,14.35,26.79,30.83,52.46,44.39,83.52ZM196.65,85.26c-3.36-30.27,12.44-49.77,32.85-71.07-24.71,1.66-47.92,12.45-65.13,30.27-6.73,6.5-8.18,13.45,0,20.18,9.15,9.12,20.16,16.16,32.29,20.63ZM326.02,16.65c1.46,7.96,7.62,11.21,11.21,15.69,8.23,9.11,13.88,20.26,16.37,32.29,4.6,22.42,5.61,22.42,23.88,8.07,2.29-1.68,4.47-3.51,6.5-5.49,9.3-9.19,10.09-14.35,1.01-23.54-15.12-16.71-36.44-26.48-58.97-27.02Z"/>
  </g>
</svg>