<?xml version="1.0" encoding="UTF-8"?>
<svg id="Layer_2" data-name="Layer 2" xmlns="http://www.w3.org/2000/svg" viewBox="0 0 654.5 354.75">
  <defs>
    <style>
      .cls-1 {
        fill:#808080
      }
    </style>
  </defs>
  <g id="Layer_1-2" data-name="Layer 1">
    <path class="cls-1" d="m653.48,335.66c-2.62-3.45-4.88-3.13-10.12-1.21-5.21,1.92-9.25,2.04-14.36-1.09-5.12-3.11-7.69-4.78-16.45-3.27-.89-5-4.51-8.16-5.29-9.64-.81-1.5,2.2-1-1.09-5.09-2.57-3.17,2.53-1.37-1.31-7.17-4.12-6.25,1.05-2.21-2.97-7.64-2.18-2.9.42-1.35-1.56-3.58-1.96-2.26.77-.29-1.33-2.8-1.6-1.92,1.19-.06-.81-2.63-1.98-2.57,1.03-.79-1.18-3.29-1.95-2.23.75-1.32-1.19-4.59-1.95-3.29,1.11-2.04-1.34-5.18-2.43-3.11,1.41.21-1.58-4.4-3.37-5.2.21-.54-2.03-5.04-1.84-3.63,1.43-1.06-1.34-4.8-1.57-2.14,1.02-.04-1.27-3.53-2.29-3.41,1.51-.02-1.3-3.96-2.8-3.94.12-1.52-1.81-4.32-1.93-2.78.87.83-1.08-2.97-1.98-3.81-.04-1.19-2.17-4.8-2.12-3.63.33-.66-1.96-4.66-2.31-3.94-4.2-5.57-2.86-5.46,1.35.15.19-2.11-.45-3.61-.96-2.27,2.44.78-.55-5.77-1.07-2.34-6.67-17.15-7.88-19.88-1.21-2.72,2.79.94,1.03-3.43-1.15-2.83-2.87-3.2-4.45-6.28-1.62-3.09-3.01-7.35-4.38-11.45-1.38-4.12-1.35-7.36-3.52-12.7-2.16-5.35-4.07-14.35-4.34-18.87l-1.04-7.83c2.44-2.9.52-7.26-2.37-9.2-5.67-1.15-10.46-.38-14.43,1.91-4.87,2.83-12.35,7.05-21,12.73-1.26.81-2.64,1.64-4.1,2.48-2.79-7.77-8.77-26.75-12.41-31.09.19-11.13-9.8-8.02-21.14-1.19-9.64,5.82-67.55,38.03-86.34,43.8-.17.06-.1.03,0,0-13.47-2.33-24.78-3.09-24.78-3.09-5-6.88-47.89,3.15-47.89,3.15-3.72-3.34-5.82-3.81-12.2-2.24-6.38,1.56-48.79,2.89-58.6,12.59-11.33-1.61-21.08,3.17-26.17,8.16-.63-.61-2.24-2.14-3.17-2.25C135.7,78.21,98.18,38.43,48.1,0c51.42,39.92,82.94,75.24,168.03,181.97.29,1.68,2.37,3.48,2.57,3.65l-1.16,4.47c-1.01-.44-3.08-1.21-3.74-.65-81.98-30.22-116.63-43.66-153.87-61.92-19.04-9.31-38.19-17.22-59.94-25.58,23.87,9.43,45.32,18.87,59.39,25.97,26.68,13.5,58.28,28.11,154.12,63.4.72,1.23,3.09,1.81,3.43,1.88-1.66,7.96,1.42,10.85,2.89,15.38-7.79,9.09-34.92,36.38-34.37,43.76-22.1,2.98-18.89-1.12-19.49,3.5-9.88.74-13.66-1.12-16.74,2.63-3.05,3.77-5.12,7.59,1.06,4.27.08,4.54,3.7,6.44,3.83,3.57.15-2.89,1.59-3.43,2.06-5,5.34,3.35,6.74-2.9,10.18-2.3.97,3.59.65,3.41,3.15,2.12,8.89-4.55,15.4-5.02,18.03-5.68,1.35,1.35,3.62,1.27,4.58-1.11,2.44-6.05,10.19-15.46,11.58-16.46,1.38-1.03,1.69,1.29,3.65-3.26,1.94-4.55,2.96-5.92,4.11-6.82,1.16-.91,2.67.04,3.47-1.73.74-1.65,3.61-5.99,6.07-7.99.39,1.18.9,2.35,1.08,2.98,1.29,3.26,2.2,10.68,4.34,11.95l2.19,1.3s.54,1.77,1.45,3.38c-.81,7.3,4.66,6.61,4.66,6.61-.55-1.34-.35-3.12-.08-4.5.27-.07.55-.15.87-.23.2.89.51,2.06.96,3.21.96,2.48,3.53,2.17,3.53,2.17,0,0-.65-2.52-.97-5.09-.08-.57-.12-.98-.19-1.36,1.98-.69,4.06-1.56,5.66-2.46.33.25.59.59.67,1.11.66,4.32,2.32,2.92,2.32,2.92.19-2.5.27-5.74.29-7.12,3.07-4.12,5.3-7.81,6.1-11.44.38,5.35,1.95,7.05,9.34,9.43l11.46.48c-.89,4.26-1.12,9.47-1.12,9.47-8.33,2.34-22.45,4.84-27.92,7.58,0,0-11.86,1.91-17.58,6.24l-2.52,5.02c-14.13,15.48-15.01,20.41-19.31,30.36-3.42,7.88-8.95,13.89-10.9,16.41-1.95,2.55-4.69,10.94-8.5,12.77-3.82,1.84-3.35,2.94-5.76,5.29-2.38,2.34-7.66,7.22-10.67,7.62-5.66.71-4.5.39-2.15,5.51-7.44,2.62-15.72,7.9-12.19,17.08,1.02-1.31,1.33-2.86,2.63-3.36,1.33,2.55,2.6,3.22,5.07,2.72-.59-3.13-1.4-9.59,6.45-14.17,2.1,3.13,2.66,4.9,4.06,1.35,1.41-3.56,2.72-3.89,4.45-4.8,1.75-.89,3.07-2.41,2.67-4.22-.4-1.81.84-1.29,3.2-2.61,2.37-1.31,3.01-2.89,3.59-5,.58-2.12,2.44-2.03,3.9-2.54,1.45-.53,2.52-1.35,3.58-3.67,1.04-2.32.74-2.12,2.89-2.57,2.14-.44,3.08.29,2.42-3.5-.42-2.5,1.87-2.61,3.21-1.27,1.37,1.35,3.66.88,3.08-2.43-.59-3.3-.51-5.34.76-6.01,1.26-.67,3.07-2.44,2.99-4.26-.07-1.86,1.45-3.23,3.12-3.27,1.7-.04,2.75.31,1.96-3.15-.77-3.42.77-5.81,2.8-5.9,2.01-.1,2.56.26,2.04-2.86-.51-3.1.34-2.31,1.95-2.52,1.64-.2.57-1.71.46-2.46-.11-.74.21-3.31,1.27-2.96,1.06.37-.42-1.32.38-2.96.81-1.61,4.76-4.4,4.99-6.57,8.68-.8,10.02-4.84,16.84-5.72,6.81-.89,31.3-4.87,39.17-18.55.33-1.14.5-2.37.57-3.58,1.45.86,3.07,1.12,5.38,1.66,4.88,1.06,9.42,3.5,11.34,5.29.66.63,2.53,1.52,4.87,2.38-5.76,5.95-11.9,12.72-13.4,14.05-2.59,2.27-2.55,1.43-4.16,1.29-3.35-.25-4.7,1.98-6.09,3.63-2.31-2.46-2.6-.5-3.27.96-.97-.69-2.84-1.23-2.94,1.29-2.73-.46-3,2.8-3.03,5.38,0,0,1.9-6.16,5.82-2.07,1.67.8,3.47.15,5.9-2.85-.23,3.71,2.47,1.46,4.91-1.75-.18,6.35.97,5.61,2.18-.46,1.73-.29,2.97.12,6.15-2.98,1.96-1.92,7.65-8.93,13.2-14.88,3.08.75,6.2,1.26,8.22.92,1.24-.2,2.48-.29,3.71-.29,7.36,13.81,18.45,42.24,20.55,46.5,2.52,5.11,2.79,7.3,5.99,9.26,1.27,6.24,4.2,11.51,4.89,6.05,4.07,5.09,8.74,9.58,8.9,6.28,4.09,4.86,7.34,7.16,10.61,8.13,7.97.37,9.43,5.21,9.43,5.21.37-2.21-.03-5.59-5.21-7.89,1.01-2.96-1.42-4.09-3.34-4.46-1.02-1.89-3.4-5.12-8.12-5.32-2.31-2.73.5-2.96-10.82-8.97-3.06-1.62-.75-2.34-2.96-6.29-1.76-3.12-14.23-31.96-21.51-46.15.4.28.86.46,1.24.8,5.66,4.8,13.13,4.9,13.13,4.9,6.68,3.89,15.26,9.93,46.13,12.5,6.7.54,8.23-1.69,8.23-1.69,12.29,2.9,21.52,5.67,39.59,4.67,6.46-.35,6.41-2.9,7.41-2.9,18.8-.46,16.38-2.96,20.14-5.17,5.12-3.03,15.24-4.38,23.61-4.22-3.84-3.04-5.09-4.89-6.44-6.06-1.33-1.19,1.06-1.01,5.45-1.04,9.84-.08,13.96,1.98,1.96-4.46-5.2-2.82-4.25-2.84,1.89-3.65,6.15-.78,3.46-.75.81-2.95-2.65-2.21-4.64-1.96-8.12-2.69-3.46-.75-4.02-2.54-6.46-5.59-1.67-2.15-8.22-9.43-17.58-15.96,18.08-4.09,27.16-11.08,24.22-13.31-2.33-1.83-6.74-4.69-12.37-7.97,3.73-3.56,7.16-6.55,10.2-8.66,6.04-4.21,13.47-10.07,20.94-16.15l7.16,19.82c8.35,20.41,34.25,93.77,35.66,99.63,1.41,5.88,1.12,4.98,4.16,5.95,3.04.98,4.25,2.17,6.76,3.52,2.53,1.34,3.86,1.13,2.99-1.17,3,1.27,2.82,1.46,3.95,2.48,1.13,1.04,3.54.98,3.02-.74,4.07.94,5.14,2.08,6.83,2.65,3.03,1.04,1.9-1,.04-3.15,5.72.77,3.28-.77,5.74.83.13-4.04.44-4.98-3.81-3.5-.84.27-1.15.5-1.26.66-.16-.25-.76-.75-2.67-1.61-5.27-2.33-2.38-.89-4.2-.62-1.81.27-1.92.11-4.06-.81-2.17-.92-2.81-.86-5.23-.69-2.45.19-2.15.71-2.5-1.5-.35-2.23-4.06-4.92-1.52-4.57,1.5.23,1.91-.38.23-1.73-1.67-1.35-2.87-2.58-2.31-3.42.55-.85-3.11-4.88-4.04-6.07,1.59.56,1.08.54-.34-2.94-1.21-2.94-.27.16-1.54-1.81,2.49.54,2.15-.26.86-1.83-1.28-1.59-2.04-3.91-2.04-3.91,2.12.65,2.9.07,1.17-2.43-1.74-2.5-3.36-4.84-4.15-6.28,1.73.46,2.83-.27.29-2.9-2.73-2.8-4.21-7.41-4.85-9.33,1.25.04,1.89-.14.69-3.25-1.19-3.12-4.11-4.9-4.86-7.07,1.51-.19,1.93-.78.51-2.37-1.42-1.61-2.19-3.53-2.73-4.97,1.14-.17,2.39.15,1.11-1.57-1.27-1.71-2.11-2.65-2.86-4.69,1.83.73,1.86.23.99-2.06-.86-2.34-4.05-6.05-5.08-9.64,1,.19,2.22.78.51-2.25-1.72-2.98-2.57-5.68-3.04-7.97-.5-2.31-2.03-2.12-3.07-3.71-1.04-1.57-.74-3.28-.86-4.57-.22-2.66-4.42-4.2-4.51-8.85,3.49.84.81-5.01-2.61-8.85l-1.19-3.1c1.44,1.09,4.29,1.89,2.58-.96-.78-1.29-2.04-3.04-2.82-4.48,13.92-11.44,26.54-21.99,29.06-21.84-.37,7.05,4.65,16.62,8.66,28.58,9.09,27.22,36.08,113.54,52.42,155.94,5.66,3.61,14.49,13.67,11.21,5.22,7.28,7.82,10.87,10.49,9.18,4,7.69,5.04,11.22,5.2,9.1,1.73,6.05.84,14.65,2.07,15.29-1.95,3.58,1.89,6.31,1.06,3.71-2.38m-197.71-157.1c-2.84.78-6.03,1.69-9.45,2.71-7.15-3.25-14.42-6.2-21.2-8.42,6.07-6.2,11.43-11.38,15.36-14.02,21.55-14.45,44.55-35.08,52.35-34.94,2.51,6.87,5.54,18.23,9.9,32.51-16.07,8.28-37.94,17.01-46.95,22.16"/>
  </g>
</svg>