<?xml version="1.0" encoding="UTF-8"?>
<svg id="Layer_2" data-name="Layer 2" xmlns="http://www.w3.org/2000/svg" viewBox="0 0 654.5 478.49">
  <defs>
    <style>
      .cls-1 {
        fill:#808080
      }
    </style>
  </defs>
  <g id="Layer_1-2" data-name="Layer 1">
    <path class="cls-1" d="m653.77,44.24c-.21-.9-.35-1.75-.5-2.67-2.45-13.91-8.94-28.1-21.77-35.34-8.18-4.68-18.29-4.98-27.51-5.53-6-.39-12.06-.73-18.08-.7-9.76.12-19.8,1.48-29.14,4.59-15.87,5.3-31.17,12.67-45.94,20.44-17.26,9-34.84,17.27-50.77,28.43-7.44,5.14-13.2,12-19.82,18.07-7.66,7.1-15.34,14.25-22.72,21.63-4.28,4.15-8.42,8.41-12.47,12.76-4.41,4.63-8.51,9.45-12.57,14.41-4.12,5.36-8.33,10.8-12.55,16.14-9.24,11.76-17.43,24.69-23.69,38.31-3.81,8.61-5.94,17.48-8.52,26.57-.71,2.47-5.13,9.43-8.76,6.56-1.87-1.4,1.06-9.05,1.94-10.72,3.02-5.28-.32-9.64-4.78-11.9l15.78-43.59,10.78-29.84c2.67-7.67,5.6-15.34,8.16-23.03,1.42-3.83,16.55-40.88,7.21-41.25-2-.07-3.37,2.58-3.75,4.31-.67,3.96,1.07,7.8.86,11.77-.3,3.92-1.96,7.48-3.49,11.03-1.68,4.02-2.89,8.2-4.51,12.22-1.99,4.95-3.7,9.81-5.44,14.84-5.17,13.99-10.97,27.88-15.4,42.15,0,0-9.24,29.83-10.27,31.54-.54.88-1.85,4.27-3.26,7.45,2.49-5.96-6.84-9.3-10.02-4.56-1.03,1.4-.56,3.22-1.1,4.56-1.29-3.18-2.68-6.58-3.18-7.45-.98-1.71-10.22-31.54-10.22-31.54-4.5-14.27-10.35-28.16-15.43-42.15-1.81-5.03-3.43-9.89-5.47-14.84-1.57-4.02-2.77-8.2-4.55-12.22-1.48-3.56-3.2-7.11-3.4-11.03-.3-3.97,1.42-7.81.77-11.77-.36-1.73-1.62-4.37-3.73-4.31-9.3.36,5.83,37.42,7.21,41.25,2.67,7.7,5.41,15.36,8.13,23.03l10.79,29.84,15.87,43.59c-4.55,2.25-7.81,6.61-4.85,11.9.97,1.67,3.78,9.32,2.01,10.72-3.73,2.87-8.13-4.09-8.84-6.56-2.51-9.09-4.61-17.96-8.53-26.57-6.24-13.61-14.4-26.55-23.7-38.31-4.14-5.34-8.33-10.78-12.59-16.14-4.01-4.96-8.12-9.78-12.46-14.41-4.02-4.36-8.19-8.61-12.47-12.76-7.43-7.38-15.07-14.53-22.84-21.63-6.56-6.07-12.3-12.93-19.63-18.07-15.94-11.16-33.7-19.44-50.78-28.43-14.86-7.77-30.15-15.15-46.07-20.44C88.33,1.49,78.38.12,68.57,0c-6.06-.04-12.05.31-18.11.7-9.14.56-19.24.85-27.48,5.53C10.09,13.47,3.69,27.67,1.17,41.57c-.18.92-.32,1.77-.41,2.67-1.12,7.97-1.07,16.13.62,23.96,1.6,7.43,6.06,13.51,10.99,19.08,4.85,5.46,9.27,11.3,13.68,16.94,3.98,5.01,7.36,10.6,8.28,16.94,1.3,7.82,1.6,14.89,6.38,21.59,2.6,3.58,5.73,6.9,7.24,11.11,1.38,3.94,1.12,8.26.71,12.31-.71,7.19-1.78,15.25,2.45,21.59,4.23,6.26,9.21,11.5,9.74,19.46.3,5.19,0,10.66,2.72,15.29,2.84,4.58,8.27,7.12,9.87,12.53,2.36,8.33,3.46,16.3,13.62,17.77,7.41,1.08,15.04-.7,22.43-1.92,8.28-1.39,16.37-2.99,24.64-4.02,6.68-.88,13.44-1.69,20.17-2.47-1.63.21-4.42,3.01-5.88,3.92-2.04,1.4-4.16,2.86-6.31,4.24-3.88,2.62-7.89,5.3-11.91,7.82-8.57,5.31-18.09,9.9-23.46,18.99-4.23,7.1-5.41,15.63-9.37,22.87-3.73,6.56-8.51,12.71-10.43,20.02-1.25,4.28-.86,8.58,1.51,12.35,2.66,4.11,6.34,6.61,5.72,12.04-.35,4.54-3.07,8.64-3.25,13.2-.14,4.63,2.37,8.07,6.03,10.47,6.47,4.5,13.29,7.33,13.45,16.29.14,5.67-1.42,12.97,2.01,17.99,2.81,4.32,8.94,4.55,11.96,8.79,3.55,4.94,2.99,11.06,2.42,16.74-.62,6.32-.59,12.63.41,18.9.57,4.14,1.12,15.05,8.3,11.62,6.01-2.89,7.63-9.32,10.08-14.85,1.71-3.71,4.16-8.61,8.96-8.61,9.01.13,11.52,11.96,15.87,17.8,4.48,6.24,11.41,6.87,18.41,4.47,6.68-2.23,12.71-.27,16.31,5.82,3.49,5.7,6.33,13.37,14.28,13.24,4.37,0,7.94-2,10.98-4.82,5.09-4.59,8.13-10.79,13.03-15.52,6.47-6.21,15.02-1.52,22.67-2.85,9.4-1.59,13.62-11.64,16.37-19.59,2.65-7.81,4.96-15.78,7.53-23.7,1.98-6.42,4.35-11.79,8.75-16.78,3.84-4.24,8.01-8.25,9.54-13.95,1.83-6.63,1.33-13.65,1.28-20.48,0-6.69.8-13.38,1.26-20.05.66-8.17,1.04-16.36,1.87-24.51.14-1.48,2.15-18.06,3.68-17.35,4.06,1.79,3.4,6.91,2.93,10.56-1.01,7.19-1.42,14.47-1.53,21.72,0,5.99-.94,11.95-.74,17.86.12,5.32.35,12.08,4.87,15.66,5.74,4.55,12.62.3,14.42-5.89.91-3.1,1.12-6.61,1.21-9.85.05-5.93-.89-11.87-.92-17.79-.09-7.25-.41-14.53-1.48-21.72-.62-3.65-1.15-8.76,2.87-10.56,1.56-.71,3.57,15.87,3.78,17.35.77,8.15,1.24,16.33,1.8,24.51.53,6.68,1.35,13.37,1.3,20.05-.09,6.83-.5,13.86,1.26,20.48,1.53,5.7,5.71,9.71,9.49,13.95,4.55,4.99,6.83,10.36,8.84,16.78,2.5,7.93,4.83,15.89,7.5,23.7,2.81,7.95,6.94,18.01,16.34,19.59,7.71,1.33,16.31-3.36,22.75,2.85,4.81,4.73,7.98,10.93,12.99,15.52,3.08,2.82,6.56,4.82,10.97,4.82,7.92.13,10.79-7.54,14.25-13.24,3.72-6.08,9.72-8.04,16.31-5.82,7.06,2.4,13.89,1.77,18.44-4.47,4.28-5.84,6.86-17.67,15.92-17.8,4.7,0,7.18,4.9,8.87,8.61,2.4,5.53,4.14,11.96,10.04,14.85,7.19,3.44,7.77-7.48,8.48-11.62.89-6.26.95-12.58.34-18.9-.54-5.68-1.07-11.81,2.33-16.74,3.04-4.24,9.22-4.47,12.14-8.79,3.31-5.03,1.72-12.32,1.86-17.99.18-8.96,7.04-11.79,13.53-16.29,3.61-2.4,6.15-5.84,5.97-10.47-.21-4.56-2.89-8.66-3.27-13.2-.59-5.43,3.16-7.93,5.76-12.04,2.4-3.76,2.75-8.07,1.6-12.35-2.07-7.31-6.83-13.46-10.47-20.02-4.05-7.23-5.31-15.77-9.45-22.87-5.32-9.09-14.84-13.68-23.47-18.99-4.01-2.53-7.94-5.21-11.9-7.82-2.17-1.38-4.23-2.83-6.42-4.24-1.24-.9-4.11-3.71-5.79-3.92,6.79.78,13.49,1.6,20.21,2.47,8.28,1.03,16.37,2.63,24.64,4.02,7.36,1.23,15,3,22.48,1.92,10.08-1.47,11.2-9.45,13.63-17.77,1.53-5.41,7-7.95,9.78-12.53,2.81-4.62,2.42-10.09,2.81-15.29.46-7.96,5.52-13.2,9.75-19.46,4.2-6.34,3.13-14.4,2.42-21.59-.41-4.05-.65-8.37.71-12.31,1.48-4.22,4.67-7.53,7.18-11.11,4.82-6.7,5.14-13.77,6.35-21.59,1.03-6.34,4.41-11.92,8.3-16.94,4.46-5.63,8.93-11.47,13.69-16.94,5.02-5.57,9.42-11.65,11.02-19.08,1.74-7.84,1.74-15.99.67-23.96h0Z"/>
  </g>
</svg>