<?xml version="1.0" encoding="UTF-8"?>
<svg id="Layer_2" data-name="Layer 2" xmlns="http://www.w3.org/2000/svg" viewBox="0 0 654.5 511.53">
  <defs>
    <style>
      .cls-1 {
        fill:#808080
      }
    </style>
  </defs>
  <g id="Layer_1-2" data-name="Layer 1">
    <path class="cls-1" d="m415.62,0c-1.73,2.27-3.47,4.54-5.52,7.22.43,11.1.87,22.6,1.41,36.49,7.65,11.46,16.65,24.93,25.66,38.4.41-.2.82-.39,1.23-.59.15,2.84.3,5.68.44,8.48-3.32,5.25-6.55,10.34-9.82,15.51.56,2.33,1.07,4.43,1.61,6.67-2.2,1.15-4.35,2.25-6.95,3.6,2.12,1.27,3.58,2.13,6.15,3.66-2.32.98-3.6,1.61-4.94,2.06-5.2,1.75-8.51,5.28-10.77,10.25-2.23,4.93-4.96,9.63-7.68,14.83-.48,3.54-1.03,7.62-1.64,12.07.63.6,1.55,1.48,2.53,2.4q-.92,8.6-5.71,13.49c.69.64,1.38,1.29,2.52,2.35-5.68,7.72-12.86,13.93-20.05,20.54,5.84,2.43,11.4-.14,16.4-1.73,13.95-4.43,27.51-9.87,40.25-17.44,10.71-6.36,22.18-11.43,33.37-16.96,30.63-15.14,61.33-30.15,93.14-42.68,9.75-3.85,19.67-7.26,30.47-7.22,5.67.02,11.36-1.76,17.01-1.59,6.61.2,13.4.9,19.75,2.66,19.07,5.28,22.33,16.99,18.8,33.68-2.42,11.5-8.35,21.47-15.46,30.48-8.67,11.01-17.97,21.56-27.6,31.75-12.94,13.71-28,25-43.04,36.32-20.02,15.06-41.98,26.68-64.25,37.82-4.83,2.41-9.97,4.22-14.55,6.13-12.68,21.31-15.34,28.58-13.66,37.1q-4.44,3.89-8.45,17.93c3.05,11.65,6.24,22.91,8.9,34.29,2.08,8.88,1.78,8.96,9.46,14.34-4.23,5.6-8.87-1.84-14.29,1.52-.8,1.15-2.53,3.63-4.52,6.49-4.61-4.81.92-8.91-.58-13.81-.42-.19-1.39-.63-3.61-1.63-1.72-8.5-5.17-18.06-5.19-27.64-.02-10.58.58-21.56,5.13-31.72,4.67-10.4,8.83-21.02,13.24-31.61-5.66.9-11.3,1.32-16.69,2.73-20.84,5.46-36.78-2.54-47.77-19.37-6.75-10.34-14.48-17.23-26.47-19.46-1.55-.3-3.01-1.03-4.52-1.5-.22-.08-.55.15-.99.3,6.28,6.09,12.51,12.14,18.72,18.18,9.33,9.06,15.73,19.94,20.55,31.95,5.95,14.81,10.37,30.02,13.85,45.58,1.5,6.7,2.35,14.07,9.68,18.05-1.84,2.24-3.01,3.65-4.81,5.83.66,4.39,1.34,9.4,2.19,14.38.76,4.39.13,8.89-3.13,11.57-8.85,7.3-10.72,17.87-13.65,27.76-2.68,9.07-3.82,18.58-5.77,28.57.82.99,1.83,2.65,3.24,3.85,9.68,8.21,17.34,18.3,26.06,27.4,2.21,2.31,5.92,3.27,9.05,4.61,1.56.67,3.35.8,6.34,1.45-4.59,3.77-9.13,3.83-13.61,5.45-.42,3.14-.87,6.49-1.31,9.83-.51.14-1,.28-1.51.41-1.52-3.78-3.05-7.57-4.52-11.21-2.24-.82-4.74-.99-6.01-2.33-4.77-5.01-8.55-11.14-13.81-15.49-7.91-6.53-8.99-16.6-14.44-24.29-2.24-3.17-1.73-6.64-.36-10.05,5.08-12.72,10.08-25.47,15.28-38.14,1.69-4.14,3.92-8.05,6.17-12.59-1.13-1.88-2.38-3.96-4.12-6.86,4.77-9.83,1.43-20.68.17-31.82-1.93-.48-3.72-.92-5.6-1.39,0-.56-.23-1.29.03-1.61,3.47-4.26,3-8.93,1.27-13.57-3.45-9.22-7.1-18.37-10.76-27.78-1.31,1.11-2.22,1.88-3.66,3.09-6.89-7.03-12.28-15.93-21.84-20.72.67,12.52,1.31,24.42,1.98,36.94-1.03.17-2.71.44-4.86.79,0,2.12-.14,4.33.02,6.52.68,10.02-.65,19.68-4.2,29.13-1.42,3.78-1.78,7.95-2.68,12.23-1.27-.11-2.48-.22-3.74-.32-.26.44-.73.93-.87,1.5-1.95,8.04-3.85,15.99-8.79,23.02-1.9,2.69-1.84,6.77-2.81,10.8-1.04-.87-2.14-1.8-3.25-2.72-5.17,2.2-4.48,7.17-4.77,12.11-2.44-.45-4.67-1.63-5.82-.95-9.12,5.31-17.99,4.64-26.99-.13-.61-.32-1.75.34-3.18.67-3.03-12.72-14.86-19.12-21.75-29.63,0-3.18.33-6.4-.09-9.52-.41-3.11-1.55-6.13-2.59-10.02-5.4-3.35-7.81-10.41-13.27-14.59,5.12-8.39,1.56-17.47,2.75-26.18-2.06-1.13-3.68-2.02-5.07-2.77.77-12.76,1.54-25.32,2.33-38.26-9.4,5.45-16.94,12.78-22.35,22-2.12-1.31-3.2-1.97-4.32-2.66-.4.33-1.03.59-1.21,1.03-3.01,7.7-5.82,15.49-8.99,23.13-2.54,6.14-3.8,12.11.48,17.93-2.41,1.16-4.34,2.1-6.29,3.05-.67,6.28-1.31,12.24-2.11,19.7.63,2.46,1.64,6.45,2.84,11.2-3.84,2.73-3.9,6.37-1.75,11.1,5.68,12.47,10.78,25.2,16.09,37.83,2.11,5.02,4.23,10.05,3.21,16.07-2.12,3.85-4.77,7.87-6.67,12.23-3.9,8.95-11.83,14.1-18.88,19.79-3.82,3.08-6.23,9.11-12.99,8.31-.98-.11-2.36,3.39-3.6,5.2-1.13,1.64-2.33,3.26-3.47,4.85-4.31-3.23-.95-6.47-1.55-9.61-2.92-3.62-9.72-.48-11.99-7.09,4.19-.4,8.14-.79,11.02-1.07,12.56-10.46,24.39-20.31,36.67-30.53-5.28-19.15-4.46-40.84-20.62-57.12v-26.53c-.98-.57-2.5-1.47-4.73-2.77,10-8.9,10.71-21.22,13.3-32.44,3.17-13.78,7.8-26.92,13.73-39.58,3.21-6.85,7.52-13.4,12.4-19.18,7.39-8.74,14.87-17.63,26.38-23.71-2.22-.79-3.78-1.94-5.08-1.69-3.73.7-7.32,2.05-11.01,3-5.63,1.43-9.17,4.86-12.11,9.96-4.89,8.47-9.95,16.83-18.46,22.7-9.77,6.76-20.36,8.59-31.68,7.54-5.58-.53-11.06-2.06-17.5-3.31,3.06,8.98,6.97,17.04,8.39,25.5,1.41,8.39.3,17.19.3,25.71-2.71,7.46-5.44,14.98-8.65,23.83-.57.48-2.23,1.91-3.84,3.29-.3,3.82-.58,7.52-.87,11.22-.53.11-1.06.22-1.59.33-.75-1.47-1.4-2.99-2.29-4.38-.84-1.32-1.94-2.5-2.85-3.63-3.85.17-7.49.33-11.12.49-.18-.54-.37-1.07-.55-1.6,1.01-.76,2.08-1.45,3.02-2.3,2.05-1.85,4.99-3.41,5.88-5.73,4.8-12.43,9.09-25.06,13.86-38.48-1.23-4.67-2.71-10.19-4.23-15.91-1.6-.84-3.25-1.7-5.32-2.78.53-2.38,1.07-4.79,1.77-7.92-1.52-3.79-3.27-8.19-4.82-12.07-32.51-12.54-61.55-29.67-88.69-50.04-8.65-6.49-16.59-13.91-24.86-20.89-3.88-3.29-8.32-6.1-11.59-9.92-12.84-14.95-27.47-28.54-36.8-46.24-3.19-6.05-5.53-12.55-8.26-18.85v-15.39c3.93-9.11,11.18-14.53,20.46-16.72,6.74-1.6,13.81-2.19,20.76-2.39,5-.15,10.05,1.61,15.07,1.59,8.81-.05,16.92,2.48,25.09,5.22,24.87,8.35,48.19,20.26,71.81,31.39,25.75,12.14,51.07,25.21,76.45,38.11,9.72,4.94,19.78,8.81,30.41,11.14,3.3.72,6.76.68,10.92,1.07-7.22-7.81-13.62-14.74-20-21.65.75-1.11,1.39-2.07,2.04-3.05-1.56-1.95-3.13-3.91-4.87-6.07,5.32-16.8-3.84-29.74-11.02-42.91-3.37-1.94-6.37-3.66-9.49-5.46.9-1.94,1.61-3.46,2.3-4.94-2.28-1.31-4.15-2.39-6.02-3.47,1.14-2,2.06-3.61,2.74-4.81-4.1-7-7.95-13.54-11.44-19.49,2.79-11.09,12.92-14.11,18.79-21.05,6.17-7.29,13.38-13.7,18.22-18.58,3.09-12.95,5.56-23.31,8.37-35.08-.43-1.17-1.48-3.98-2.52-6.79.41-.34.81-.67,1.21-1.01,2.69,1.8,5.39,3.61,7.95,5.33,2.52-.97,4.79-1.84,8.37-3.21-1,2.84-1.35,4.6-2.21,6.08-.92,1.57-2.32,2.86-3.51,4.28.18,7.22-.44,14.17-2.66,20.59-2.23,6.42-6.05,12.29-10.59,21.16-2.98,2.52-8.59,6.77-13.61,11.61-4.99,4.8-12.59,6.45-16.36,13.72,6.53,14.4,16.19,27.1,23.39,40.74,2.47.18,4.13.3,5.72.42.16,3.46.3,6.32.42,8.83,6.25,7.99,12.19,15.58,19.07,24.36-.03-.18.23,1.32.5,2.75,1.68-.18,2.89-.31,4.08-.43.77,1.52,1.41,2.79,2.41,4.77,3.26-8.83,6.29-17.06,9.54-25.89-1.06-.62-2.53-1.78-4.21-2.4-5.9-2.2-8.2-6.81-8.57-12.6-.58-9.04,4.02-16.24,12.39-19.59,2.65-1.07,5.53-1.58,8.16-2.68,4.29-1.8,9.16-2.78,12.21-7.61-2.16-3.57-3.93-7.37-6.49-10.52-2.61-3.21-6-5.8-9.97-9.53,13.04-2.8,15.87,6.55,20.68,14.2,2.17-2.77,3.42-6.33,7.61-5.2,1.25,2.07,2.61,4.31,3.81,6.32,2.28-2.85,4.22-5.28,7.82-9.8,2.33,4.08,3.51,6.16,5.01,8.79,2.24-4.04,3.94-7.08,5.79-10.4,4.3-1.24,7.74-6.1,14.98-3.12-4.07,3.28-7.26,5.66-10.24,8.28-3.42,3.01-6.14,6.49-6.17,11.33,2.89,5.44,8.25,7.3,13.28,9.01,16.77,5.71,18.14,10.98,17.33,25.25-.06.94-.27,1.88-.3,2.05-2.53,5.89-8.07,6.49-12.21,8.58,3.13,8.11,6.07,15.67,8.79,22.7,3.31-.74,5.8-1.3,8.36-1.88-.11-1.94-.19-3.42-.3-5.18h3.66c5.69-7.62,11.01-14.74,16.8-22.5-.14-1.7-.34-4.17-.55-6.88,1.98-.52,4.06-1.07,6.09-1.6,7.99-13.99,17.1-27,23.92-41.03-6.24-7.22-11.91-13.69-17.44-20.26-5.12-6.09-10.81-11.95-10.01-20.92.08-.9-.29-1.89-.64-2.77-4.31-10.6-3.65-21.46-1.95-31.71-1.18-2.85-2.12-5.13-3.08-7.42h19.24Zm-12.77,209.8c.42.64.83,1.27,1.26,1.91,2.09-.61,4.15-1.4,6.29-1.82,16.78-3.34,33.78-5.8,50.3-10.12,15.35-4,30.82-8.59,45.1-15.33,27.36-12.91,55.71-21.32,85.68-24.58,1.52-.17,3.27.08,4.65.7,5.27,2.36,9.49.21,13.1-3.18,6.29-5.93,12.99-11.66,18.17-18.5,4.99-6.6,10.21-12.33,18.89-15.12-12.47-9.72-26.11-10.1-39.83-9.9-2.48.04-4.95,1.58-7.41,1.52-8.49-.21-16.43,2.16-24.1,5.24-4.63,1.86-9.14,4.45-13.05,7.54-8.75,6.9-16.87,14.59-25.64,21.45-10.29,8.04-20.65,16.23-32.98,21-19.31,7.46-38.9,14.13-58.2,21.6-14.22,5.5-28.16,11.71-42.24,17.6M56.56,160.11c8.56-5.27,16.53-1.24,24,.1,19.75,3.57,38.53,10.7,56.83,18.99,9.86,4.47,19.7,9.07,29.82,12.84,19.68,7.33,40.3,11.22,60.77,15.55,7.52,1.6,15.19,2.49,22.79,3.7-1.42-1.85-3.09-2.73-4.78-3.58-26.23-13.23-53.95-22.73-81.5-32.64-7.48-2.69-14.91-5.56-22.2-8.72-20.48-8.91-35.28-24.78-49.61-40.72-13.24-5.39-26.2-10.82-40.63-10.4-9.81-4.38-19.57-.47-29.14.84-5.03.69-10.48,3.49-14.78,8.3,9.29,1.11,15.27,6.27,21.22,11.67,8.94,8.11,18.09,16,27.21,24.04m69.97,19.38c-16.66-7.48-33.21-11.89-49.91-15.96-10.61-2.58-19.91-.34-29.05,5.06-7.15,4.22-11.92,10.36-16.56,18.11,15.88,17.99,32.79,35.07,52.49,49.29,6.58-9.14,14.19-15.05,25.74-14.96,5.58.05,11.18-1.68,17.46-2.71-4.19-12.7-5.28-25.44-.16-38.83m498.43,6.64c-6.95-10.47-13.8-19.21-26.79-20.86-7.04-.9-13.96-.27-20.58.73-16.92,2.57-33.35,7.4-49.59,14.01,5.32,12.8,3.41,25.83.17,38.83,8.02.87,15.26,1.58,22.46,2.5,1.84.24,3.86.81,5.35,1.87,5.28,3.78,10.38,7.83,15.83,12,19.71-13.12,35.2-32.01,53.15-49.08m-428.99,80.84c-5.97-5.63-12.91-10.58-17.69-17.11-4.76-6.51-7.37-14.59-10.98-22.12-3.64-.42-7.1-.82-10.56-1.24-8.8-1.07-17.59-2.81-26.42-3.03-8.54-.2-17.27.38-25.62,2.08-7.06,1.44-13.92,4.69-16.55,13.74,21.21,15.93,43.72,29.34,67.54,39.91,8.62-7.33,12.91-10.36,40.28-12.23m369.43-27.7c-1.33-6.51-5.3-10.39-10.73-11.8-7.58-1.97-15.43-3.77-23.21-3.96-10.1-.26-20.26.93-30.36,1.9-4.95.48-9.82,1.87-15.07,2.91-2.87,17.87-13.01,30.24-29.5,38.23,8.62,1.07,16.34,1.23,23.61,3.14,7.22,1.89,13.99,5.55,21.36,8.59,26.87-13,55.09-30.14,63.9-39.01m-41.94-56.82c-2.82.88-5.82,1.56-8.63,2.74-5.88,2.46-11.55,5.4-17.47,7.74-22.24,8.79-45.48,14.05-68.87,18.45-17.43,3.28-34.92,6.98-52.87,6.28-.38-.02-.79.68-1.18,1.05.37.55.62,1.4,1.07,1.52,13.16,3.68,26.58,6.41,40.21,6.65,24.85.44,49.76,1.21,74.37-3.67,4.34-.87,8.76-1.35,13.16-1.95,6.21-.84,12.44-1.63,17.93-2.33,7.4-13.48,7.99-23.27,2.28-36.48m-243.94,36.18c-52.43-5.29-102.32-14.19-148.97-37.28-4.99,13.52-4.72,25.6,2.47,37.9,8.04.87,15.97,1.3,23.75,2.64,15.02,2.57,30.03,5.07,45.34,5.13,7.69.02,15.39-.21,23.07.07,16.69.6,32.98-1.8,49.07-5.96,1.38-.35,2.64-1.23,5.28-2.5m-105.61,10.53c2.85,10.49,6.94,19.34,14.86,25.96,8.89,7.43,18.75,12.07,30.69,10.08,5.92-.99,11.72-2.76,17.65-3.44,19.12-2.21,31.85-13.13,40.9-29.25,1.28-2.28,1.72-4.82-.86-7.18-33.65,8.07-67.86,6.49-103.25,3.83m199.59-4.47c6.19,15.27,15.51,26.25,28.61,32.59,11.97,5.79,25.59,7.7,38.88,7.99,15.91.34,26.47-9.61,34.64-22.06,2.47-3.77,5.52-7.81,4.92-13.47-1.72-.25-3.23-.65-4.75-.63-1.89.02-3.79.32-5.66.63-1.87.31-3.71,1.16-5.56,1.14-26.72-.23-53.58,2-80.04-3.81-3.27-.71-6.55-1.4-11.05-2.37m-97.15-19.96c-4.11-.98-7.46-2.24-10.9-2.5-9.98-.76-19.36-3.78-28.33-7.79-10.74-4.79-21.1-10.41-31.66-15.59-27.22-13.36-54.44-26.74-81.74-39.95-5.99-2.89-12.31-5.12-18.47-7.64,6.25,8.76,13.67,15.71,22.46,21.03,7.34,4.44,14.44,9.64,22.33,12.76,22.75,8.99,46.04,16.64,68.76,25.69,13.58,5.41,26.86,11.84,39.61,19,6.73,3.78,12.89,4.34,20.36,3.04-.85-2.85-1.56-5.24-2.41-8.04m131.24,60.54c4.43,7.54,9.05,14.33,15.24,19.87,8.31,7.43,18.38,10.06,29.21,8.89,12.03-1.3,23.37-5.61,34.75-9.52,1.97-.68,3.73-2.02,5.9-3.23-3.38-5.96-9.24-6.65-14.17-7.62-10.21-2-20.64-2.96-31.01-4.15-12.84-1.47-25.71-2.74-39.93-4.24m-247.25,16.19c13.16,5.28,24.87,8.67,37,11.37,16.15,3.6,28.82-.99,39.28-12.94,4.06-4.64,7.3-10.01,11.16-15.38-8.59,1.14-16.33,2.27-24.1,3.18-11.31,1.31-22.64,2.46-33.96,3.69-9.82,1.07-19.31,3.15-29.38,10.08m214.87-68.73c7.68,1.33,14.42,1.87,20.52-3.16,1.93-1.6,4.37-2.61,6.65-3.76,23.92-12.11,49.07-21.21,74.2-30.35,16.73-6.09,33.74-11.46,47.9-22.98,6.15-5.01,12.88-9.3,19.15-14.17,2.26-1.75,3.96-4.22,5.92-6.37-9.26,2.99-17.76,6.53-26.04,10.49-22.75,10.9-45.47,21.87-68.1,33.03-8.86,4.38-17.25,9.75-26.2,13.9-12.96,6.01-26.14,11.57-40.7,12.88-3.38.3-6.65,1.86-10,2.85-1.11,2.57-2.09,4.84-3.3,7.62M49.27,160.3c-4.67-4.14-9.17-8.11-13.66-12.08-5.92-5.26-11.67-10.74-17.85-15.7-3.7-2.96-7.99-5.6-13.73-.95-.68,20.02,10.63,34.76,22.65,49.79,7.89-7.35,14.99-13.98,22.58-21.05m600.82-30.21c-4.51-1.99-7.19-.67-9.53,1.92-5.35,5.92-10.61,11.92-16.1,17.69-2.84,2.98-6.13,5.54-9.2,8.3-1.61,1.45-3.19,2.93-4.88,4.47,6.13,6.13,11.91,11.92,18.25,18.28,11.63-15.11,23.35-29.71,21.46-50.66"/>
  </g>
</svg>