<?xml version="1.0" encoding="UTF-8"?>
<svg id="Layer_2" data-name="Layer 2" xmlns="http://www.w3.org/2000/svg" viewBox="0 0 654.5 427.24">
  <defs>
    <style>
      .cls-1 {
        fill:#808080
      }
    </style>
  </defs>
  <g id="Layer_1-2" data-name="Layer 1">
    <path class="cls-1" d="m323.54,253.75c-13.22,25.69-14.9,76.62-8.32,82.23,1.62,1.37,3.46,1.87,5.07,1.39,25.75,10.32,73.99,12.6,134.37,34.45,2.55,6.41,12.2,14.79,16.27,16.22,4.12,1.39,5.89,5.09,6.63,8.25.79,3.14,4.61,5.26,7.38,6.49,2.79,1.28,3.14,3.85,3.53,7.04.45,3.22,6.06,10.62,14.89,16.29,3.12,2.02,11.02,1.14,6.37-1.17-9.59-4.78-6.3-12.86-11.19-15.47,9.66,3.95,2.39-7.94-5.16-9.4-2.99-.61-2.93-2.56-4.08-6.32-1.15-3.77-1.53-4.02-6.9-7.86-5.41-3.87-5.72-1.64-6.8-4.78-1.08-3.09-2.14-3.96-8.18-7.69-6.04-3.78-7.79-2.57-6.49-8.54,1.3-5.93.13-4.58-18-6.84-31.56-3.92-91.86-31.48-118.12-28.87.06-.87.14-1.78.11-2.83-2.48-21.08,11.74-28.39,11.03-57.29-.52-4.45,0-8.71.51-12.36,1.72-1.55,4.07-4.86,4.23-10.88,4-.2,9.04-2.46,9.65-2.64,1.59,4.13,6.09,9.96,7.81,8.75,10.11,24.22,40.76,56.58,50.77,56.68,1.58,0,2.84-.35,3.73-1,28,1.48,73.71-8.73,135.18-4.78,4.23,5.45,6.96,15.03,10.8,16.97,3.91,1.94,5.21,5.82,5.52,9.04.32,3.24,3.87,5.84,6.44,7.44,2.6,1.62,2.6,4.2,2.6,7.43s4.6,11.29,12.6,18.11c2.85,2.39,10.77,2.58,6.46-.35-8.85-5.96-4.52-13.56-9.06-16.77,9.06,5.15,3.41-7.6-3.86-10.01-2.9-.99-2.58-2.94-3.21-6.8-.67-3.89-1-4.21-5.85-8.72-4.84-4.5-2.56-4.21-3.22-7.42-.65-3.25-1.62-4.24-7.1-8.74-5.48-4.52-7.66-2.54-8.07-8.59-.39-6.04,1-3.72-17.03-.79-31.93,5.11-99.19-4.91-122.67,5.78-.66-1.05-1.5-2.17-2.57-3.36-19.53-14.71-13.08-26.18-40.1-51.53-.02-.03-.04-.03-.05-.05.05-1.33-.62-3.41-2.86-6.42,22.89-7.99,22-11.83,22-11.83,0,0,4.33,2.19,13.04,4.37,4.71,1.17,8.8.37,13.31-1.96,40.86,69.83,109.4,56.92,156.63,35.88,10.73-4.73,20.56-7.25,27.19-13.72.94-.94,2.88-2.12,4.02-2.74,2.45-1.42,5.16-1.63,12.26-6,1.43-.91,7.67-6.05,9.02-6.88,4.07-2.48,6.07-2.67,9.28-4.63,1.7-1.05,3.95-4.75,5.45-5.45,7.35-3.5,9.68-9.08,14.35-12.9,1.89-1.84,1.86-6.82-.37-8.65-4.61-3.82-6.68-5.84-13.98-11.12-1.37-1-3.76-4.43-5.45-5.48-3.21-1.98-5.22-2.16-9.28-4.62-1.34-.83-5.93-4.86-7.36-5.71-7.11-4.41-11.46-5.75-13.91-7.17-1.14-.65-3.08-1.84-4.02-2.74-6.63-6.49-19.11-10.23-29.82-14.98-46.89-20.87-122.42-34.52-154.35,33.29-4.34-2.21-8.35-2.95-12.95-1.76-8.71,2.13-13.04,4.32-13.04,4.32,0,0,.89-2.69-21.86-10.23,1.08-2.06,1.4-4.4,1.47-6.1,1.17-.53,2.42-1.31,3.78-2.57,22.91-21.55,21.49-43.84,41.02-58.6,21.8,12.01,91.69,1.29,124.37,6.57,18.05,2.89,11.37,5.15,14.34-.18,2.92-5.3,4.02-2.56,10.89-4.29,6.92-1.76,8.19-2.24,10.16-4.9,1.96-2.65-.22-3.3,6.12-5.34,6.28-2.04,6.71-2.2,8.96-5.41,2.23-3.23,2.74-5.11,5.82-4.77,7.61.91,18.15-8.22,7.76-7.41,5.48-.99,4.78-9.7,15.34-11.34,5.15-.81-2.1-4.02-5.72-3.05-10.12,2.74-17.73,8.08-19.1,11.01-1.37,2.92-2.49,5.24-5.5,5.61-3.04.38-7.37,1.18-9.02,3.98-1.68,2.8-4.47,5.73-8.82,5.84-4.34.13-12.79,5.27-17.01,10.71-60.77,3.92-106.11-6.02-134.19-4.77-.59-.82-2.25-.99-4.72-.99-13.22.11-41.36,29.31-53.84,61.33-.09.22-.16.53-.2.8-2.53.69-6.57,5.23-8.61,8.69-2.19-.61-5.76-1.84-10.5-2.82.52-6.94-3.55-9.13-4.82-9.59-1.98-3.23-5.22-7.59-6.39-13.68-9.56-34.63-17.47-24.23-19.4-48.59-.57-2.08-1.28-3.81-2.07-5.31,25.85-1.23,86.29-31.09,118.15-37.36,17.93-3.55,11.81-4.55,14.17-8.28,2.37-3.72,2.8.61,8.78-1.86,5.96-2.46,7.07-3.04,8.48-5.69,1.43-2.64-.63-2.95,4.79-5.58,5.41-2.65,5.77-2.84,7.37-6.04,1.59-3.19,1.82-4.97,4.62-5.03,6.96-.18,15.27-9.74,6.03-7.68,4.79-1.59,3.04-9.33,12.33-12.16,4.52-1.41-2.42-3.35-5.54-2-8.74,3.76-14.92,9.54-15.78,12.36-.84,2.82-1.52,5.05-4.19,5.76-2.68.73-6.47,2.01-7.61,4.72-1.14,2.73-3.29,5.75-7.17,6.42-3.88.65-12.63,11.5-18.79,14.22-44.48,15.78-108.34,26.53-131.63,42.35-1.52-.27-2.92.33-3.99,2-4.21,6.71,6.69,54.56,25.2,73.24.09.42.23.84.38,1.24-.83,1.08-1.41,2.24-1.74,3.39-8.66-.35-11.75.83-15.77,2.9,2.06-11.08-4.36-14.22-4.36-14.22-9.22-24.35-92.34-73.25-104.36-73.8-1.31-5.39-4.88-12.53-11.59-19.78-.57-.63-.82,1.32-1.44.64-2.16-2.38-7.49-10.95-9.6-13.05-.71-.7-.83,2.91-1.55,2.23-7.62-7.66-15-18.06-11.68-11.23-5.83-7.55,0,0-9.38-7.99-2.79-2.32-3.97-3.79-4.47-4.62.09.42.13.94-.06,1.66-10.13-3.04-4.96-24.74-10.65-16.17-5.11,7.75-3.66,18.67,7.38,21.92,0,0-5.57.6.46,3.46,2.29,1.1,8.13,3.6,12.09,4.04-4.01-.26,4.79,2.4,9.68,7.11.73.71-3.12,1.31-2.4,2.08,3.03,3.17,10.04,6.66,13.79,10.5.83.84-3.31-.51-2.62.35,4.08,4.99,11,11.79,13.8,16.55,5.52,12.68,12.11,13.76,49.53,34.73,44.99,25.19,54.47,38.85,52.16,45.74-2.53,7.61,4.12,10.83,6.07,13.95-17.58,4.41-33.11,21.44-39.79,29.71-1.53-18.3-8.68-25.4-20.24-35.01-18.57-15.33-58.27.93-68.74,5.52-.63.3-1.28.6-1.94.91-.9-.81-2.72-2.17-4.93-2.17-3.14,0-4.94-.02-4.94-.02-23.86-10.85-47.88-19.03-63.14-33.22-1.15-1.07-4.9-2.6-4.9-2.6,0,0-55.25-14.26-81.09-2.24-12.29,5.71-3.37,15.8,5.1,14.01,33.2-6.86,60.81-10.38,73.39-6.86,0,0,5.78,3.32,9.13,5.88,13.63,10.37,32.19,17.46,57.81,27.38,0,0-.6,4.16,1.32,6.3-4.89,2.98-9.38,6.49-12.66,10.79-1.65-.15-5.87-.53-7.97.07-2.58.73-6.94,8.08-6.94,8.08,0,0,4.71-2.57,10.36.91-.53,2.03-.81,4.14-.81,6.43s.33,4.32.93,6.34c-5.7,3.6-10.48.98-10.48.98,0,0,4.35,7.34,6.94,8.07,2.47.7,7.95.1,8.56.02,3.09,3.68,7.09,6.85,11.42,9.56-1.12,2.22-.67,5.3-.67,5.3-22.34,8.56-46.34,20.55-60,30.9-3.36,2.58-6.95,5.89-6.95,5.89-12.58,3.55-40.2,0-73.39-6.86-8.47-1.76-17.39,8.3-5.1,14.03,25.84,12.03,81.09-2.26,81.09-2.26,0,0,3.86-1.41,4.9-2.59,15.21-17.5,43.1-26.76,63.14-36.71,0,0,1.8-.03,4.94-.03,2.02,0,3.3-.63,4.02-1.08.97.47,1.91.95,2.85,1.41,15.19,7.3,52.96,21.78,66.95,10.16,12.75-10.59,21.84-15.01,22.28-37.77,6.53,8.02,20.79,23.54,37.12,28.74-1.66.84-5.66,3.57-5.55,10.8.09,7.27-10.47,19.06-58.96,36.54-40.4,14.53-47.08,14.53-54.59,26.08-3.53,4.26-11.42,9.43-16.22,13.7-.84.71,3.48.07,2.52.77-4.33,3.17-11.82,5.44-15.29,8.07-.86.67,2.8,1.88,1.98,2.46-5.6,3.84-14.7,5.03-10.71,5.43-3.99-.23-10.13,1.28-12.6,1.98-6.41,1.84-1.03,3.32-1.03,3.32-11.41,1.39-14.64,11.95-10.86,20.4,4.19,9.43-2.5-13.81,7.97-15.14.28,3.69-2.08,5.15,6.36.13,10.59-6.32,3.57.17,10.59-6.32-4.41,6.19,4.59-2.87,13.37-9.12.79-.59.33,2.99,1.13,2.43,2.44-1.74,9.12-9.3,11.63-11.3.74-.57.65,1.39,1.31.86,7.82-6.01,16.18-14.36,18.37-19.46,5.96,6.16,112.75-38.42,113.08-55.18,0,0,9.36,2.8,8.62-12.83,0,0-.02-.17-.02-.28,4.5,2.27,7.63,5.18,17.83,4.59.16,1.3.55,3.38,1.28,4.69"/>
  </g>
</svg>