<?xml version="1.0" encoding="UTF-8"?>
<svg id="Layer_2" data-name="Layer 2" xmlns="http://www.w3.org/2000/svg" viewBox="0 0 641.64 654.5">
  <defs>
    <style>
      .cls-1 {
        fill:#808080
      }
    </style>
  </defs>
  <g id="Layer_1-2" data-name="Layer 1">
    <path class="cls-1" d="m17.82,556.2c7.24-6.06,16.85-8.2,26.14-8.01,9.19.16,18.59,2.94,27.88,2.38,4.3-.24,12.9-1.79,14.55-6.3,2.22-6.3-6.92-13.17-9.35-18.24-6.46-13.83-13.67-27.8-21.93-40.78-7.58-12.26-18.29-38.03-5.93-50.45,9.88-9.91,22.91-16.11,36.06-20.46.91-.35,1.87-.67,2.86-1.04-3.07-58.65,13.25-121.09,42.33-171.68-7.82-3.6-16.13-7.34-23.39-6.17-8.41,1.23-8.28,14.64-12.58,20.09-6.92,9.06-7.34,22.33-12.63,32.26-7.61,14.45-22.97,7.11-34.53,1.65-7.64-3.63-14.58-5.87-20.67-12.07-10.98-11.14-14.8,1.23-26.63,1.71,1.36-11.62,10.09-14.37,20.06-16.26,15.97-3.2,35.73,31.33,50.66,19.57,2.75-2.08,3.9-9.85,5.24-12.98,2.4-5.58,5.13-11.08,8.22-16.48,2.19-4.09,2.49-7.88,4.17-12.23,1.23-3.07,3.15-4.41,5.39-6.97,6.3-7.19,13.01-14.72,22.76-16.8,9.77-2.01,19.6,1.41,29.27,2.22,8.47-10.89,17.73-21.18,27.05-31.17,4.97-5.26,3.45-12.85,4.11-19.34.43-5.95,1.74-11.88,3.37-17.63-7.88-2.59-15.12-7.05-22.25-10.98-16.21-9.11-33.68-19.15-30.21-40.7,1.33-8.63,8.68-19.98,5.71-28.71-1.95-5.96-10.63-7.48-15.38-10.23-6.68-3.74-15.28-3.74-22.67-3.74-2.03,0-4.01-.48-7.02-.48s-4.78-.46-6.73-1.41c-1.98-.99-5.8-.48-8.71,0-4.65.8-4.33,2.46-7.11-2.27,2.7-1.34,5.08-5.02,8.55-5.08,8.47,0,17.55,3.98,25.93,2.56,4.11-.72,7.56-4.78,11.64-4.54,6.65.51,10.63,7.53,17.14,8.38,13.81,1.79,16.85,9.75,16.85,22.35,0,3.37-3.92,17.58-6.3,21.93-2.75,4.89-3.42,15.68,1.07,19.52,5.61,4.65,17.15,4.11,23.9,5.4,8.36,1.6,16.88,3.55,24.73,6.73,4.51-8.01,9.64-15.49,15.84-22.22,11.43-12.31,20.03-22.6,35.28-30.13,2.16-1.09,29.03-14.64,28.5-15.36-3.21-4.3-7.35-6.87-10.87-10.9-5.26-6.01-7.8-12.31-14.37-17.28l-2.4-1.84c-5.48-6.17-6.09-14.45-11.08-20.62-2.16-2.64-11.35-10.28-3.18-11.4,4.33-.48,13.3,9.99,15.01,13.59,2.62,5.88,2.72,11.33,7.32,16.16,4.3,4.35,9.91,7.05,14.02,11.59,3.77,4.17,6.68,13.09,13.2,13.09,7.29,0,10.68-2.25,17.36-4.6,8.31-2.94,18.08-1.89,26.71-1.89s18.43-1.04,26.79,1.89c6.57,2.35,10.07,4.6,17.31,4.6,6.57,0,9.48-8.92,13.25-13.09,4.09-4.54,9.77-7.24,13.99-11.59,4.67-4.83,4.73-10.28,7.48-16.16,1.55-3.61,10.5-14.07,14.72-13.59,8.33,1.12-.91,8.76-2.96,11.4-5.07,6.17-5.66,14.45-11.16,20.62l-2.3,1.84c-6.62,4.97-9.21,11.27-14.5,17.28-3.5,4.03-7.64,6.6-10.87,10.9-.51.72,26.44,14.26,28.52,15.36,15.14,7.53,23.8,17.82,35.31,30.13,6.25,6.68,11.38,14.21,15.86,22.17,7.88-3.12,16.34-5.07,24.68-6.68,6.79-1.28,18.3-.75,23.8-5.4,4.57-3.84,4.01-14.63,1.2-19.52-2.3-4.35-6.3-18.56-6.3-21.93,0-12.61,3.04-20.56,16.77-22.35,6.62-.85,10.63-7.88,17.25-8.38,4.06-.24,7.59,3.82,11.62,4.54,8.33,1.41,17.47-2.56,25.96-2.56,3.44.06,5.9,3.74,8.57,5.08-2.83,4.73-2.51,3.07-7.13,2.27-2.91-.48-6.78-.99-8.68,0-1.97.96-3.95,1.41-6.78,1.41-3.05,0-5.02.48-6.81.48-7.5,0-16.13,0-22.89,3.74-4.83,2.75-13.46,4.27-15.54,10.23-2.78,8.73,4.57,20.08,5.95,28.71,3.45,21.55-14.1,31.59-30.37,40.7-6.94,3.93-14.4,8.39-22.17,10.98,1.66,5.74,2.91,11.67,3.39,17.63.59,6.49-.8,14.07,4.06,19.34,9.32,9.99,18.59,20.27,27.03,31.17,9.83-.8,19.55-4.22,29.3-2.22,9.75,2.08,16.53,9.61,22.81,16.8,2.19,2.57,4.09,3.9,5.34,6.97,1.68,4.35,1.97,8.15,4.41,12.23,2.94,5.39,5.61,10.9,8.04,16.48,1.28,3.13,2.48,10.89,5.18,12.98,15.04,11.75,34.69-22.78,50.66-19.57,9.91,1.9,18.8,4.65,20.08,16.26-11.78-.48-15.6-12.85-26.63-1.71-6.14,6.2-12.95,8.44-20.67,12.07-11.46,5.45-26.97,12.79-34.48-1.65-5.34-9.94-5.74-23.21-12.74-32.26-4.2-5.45-4.03-18.86-12.39-20.09-7.32-1.17-15.6,2.57-23.48,6.17,29.11,50.58,45.22,113.08,42.25,171.68.99.37,1.95.69,2.75,1.04,13.22,4.35,26.14,10.55,36.16,20.46,12.45,12.42,1.74,38.19-6.01,50.45-8.01,12.98-15.38,26.95-21.77,40.78-2.35,5.08-11.48,11.94-9.4,18.24,1.6,4.52,10.34,6.06,14.61,6.3,9.21.56,18.64-2.22,27.91-2.38,9.19-.19,18.78,1.95,26.07,8.01,1.58,1.42,6.6,6.12,4.59,8.2-2.06,2.14-12.87-4.35-15.49-4.78-7.93-1.33-15.38.67-23.02,2.51-14.82,3.5-26.76.19-39.79-7.34-20.46-11.89,2.56-32.32,8.84-45.62,5.69-11.7,6.62-13.7,9.16-19.33,4.11-9,9.86-17.01,12.23-26.71,1.09-4.65,1.92-9-.72-13.17-1.82-2.8-8.92-9.05-12.47-9.05-4.46,0-9.4-2.08-13.86-2.51-.8-.11-1.58-.05-2.43-.11-5.16,38.81-17.01,76.89-36.88,110.57-6.89,11.56-14.45,22.65-23.1,32.98-21.9,26.28-48.95,48.45-81.88,58.92-21.31,6.78-52.35,19.95-74.73,10.39-.43-.11-9.54-4.7-12.85-4.89v.48c0-.35-.16-.48-.64-.53h0c-.4.05-.64.19-.64.53v-.48c-3.2.19-12.26,4.78-12.74,4.89-22.33,9.56-53.47-3.61-74.81-10.39-32.9-10.47-59.96-32.64-81.83-58.92-8.52-10.34-16.16-21.42-23.02-32.98-19.98-33.68-31.73-71.76-36.99-110.57-.78.05-1.63,0-2.43.11-4.43.43-9.35,2.51-13.75,2.51-3.69,0-10.76,6.25-12.61,9.05-2.56,4.17-1.76,8.52-.67,13.17,2.3,9.69,8.09,17.71,12.18,26.71,2.62,5.63,3.58,7.64,9.24,19.33,6.38,13.3,29.3,33.73,8.79,45.62-12.95,7.53-24.94,10.84-39.77,7.34-7.67-1.84-15.12-3.85-23.07-2.51-2.64.43-13.28,6.92-15.49,4.78-1.95-2.08,3.04-6.78,4.65-8.2h0Z"/>
  </g>
</svg>