<?xml version="1.0" encoding="UTF-8"?>
<svg id="Layer_2" data-name="Layer 2" xmlns="http://www.w3.org/2000/svg" viewBox="0 0 643.3 654.5">
  <defs>
    <style>
      .cls-1 {
        fill:#808080
      }
    </style>
  </defs>
  <g id="Layer_1-2" data-name="Layer 1">
    <path class="cls-1" d="m51.47,38.42c32.71,6.22,58.74,24.45,86.8,37.69,5.66,2.72,5.89,9.39,7.7,14.6,6.34,18.67,11.32,37.69,19.13,55.91,8.37,20.14,21.96,22.63,35.88,6.22,18.56-21.16,36.22-41.76,65.41-50.59,19.58-5.89,20.03-19.35,3.62-32.82-9.62-8.15-20.6-14.6-30.67-22.63-8.42-5.38-14.55-13.68-17.2-23.31-1.92-9.62,0-19.13,10.64-22.63,10.64-3.51,15.5,4.41,17.54,13.35,2.98,10.33,7.81,20.03,14.26,28.63,11.32,18.56,22.63,36.1,49.34,21.16,8.56-3.9,18.38-3.9,26.94,0,24.33,11.32,36.67-3.85,47.53-21.28,4.5-7.91,8.29-16.2,11.32-24.78,3.4-8.6,8.15-15.05,18.11-15.17,6.72-.02,12.51,4.73,13.81,11.32,3.64,8.86.57,19.06-7.36,24.45-9.62,7.02-19.47,13.81-28.86,21.28-6.71,5.1-12.93,10.82-18.56,17.09-11.32,13.01-9.17,25.92,7.24,28.52,31.91,5.09,49.12,28.41,69.15,48.66,12.79,12.9,22.07,12.79,29.54-3.96,7.05-16.79,13.21-33.94,18.45-51.38,2.1-12.22,10.36-22.49,21.84-27.16,12.22-4.53,24.45-17.2,35.76-21.16,12.81-5.31,26.02-9.62,39.5-12.9,0,13.81-2.83,33.95-8.94,35.54-12.11,3.96-18.45,17.2-27.16,17.88-13.81,1.02-17.88,20.48-33.16,14.37,0,0-3.28,3.28-3.06,4.75,2.38,21.28-15.39,30.33-26.26,43.35-5.09,5.76-8.71,12.67-10.53,20.14-2.15,10.41,0,27.16-19.92,17.09-2.83-1.47-6.22,2.49-7.24,6.22-1.81,4.91.39,10.38,5.09,12.68,48.89,24.11,63.26,75.26,90.54,116.12,10.53,15.84,20.37,29.88,40.4,33.95,6,1.13,13.47,3.06,14.49,10.41,1.58,11.32,10.07,15.73,19.24,19.81,4.64,1.92,12.68,2.26,11.32,10.19s-7.36,5.21-12.34,4.53c-2.04,0-5.66-.68-6,0-11.32,23.99-26.26.79-39.38,2.04-5.66,0-12.68-12.34-17.09-18.22-14.26-19.35-36.55-34.97-33.95-64.62,1.24-16.41-2.38-17.09-17.88-31.24-3.25,2.11-4.18,6.45-2.08,9.7.24.37.52.73.83,1.05,22.63,32.37,19.35,70.17,19.01,106.04,0,42.44,12.34,81.94,19.69,122.57.43,3.94,2.14,7.64,4.87,10.53,22.63,15.73,26.82,47.42,55,58.17,8.83,3.28,11.32,14.49-1.58,17.77-9.39,2.49-12.45,10.64-19.13,15.28-7.81-4.3-8.6-12.79-13.13-18.79-2.04-2.83-4.07-8.94-5.09-8.71-22.07,4.75-19.24-18.56-30.1-25.69-7.98-4.5-12.11-13.67-10.19-22.63,0-4.19,2.04-12.68-5.43-10.41-20.71,6.22-11.32-8.71-11.32-15.84,0-15.39,2.6-30.67,4.07-47.76-6.68,4.07-6.56,9.62-7.7,14.37-22.85,106.78-127.94,174.81-234.72,151.95-.11-.02-.23-.05-.34-.07-18.01-3.3-34.9-11.09-49.12-22.63-48.55-39.61-86.69-86.12-98.35-150.75-11.32,7.36-5.66,17.09-5.32,25.46.57,11.32,2.26,23.77,3.28,35.65.23,3.43.23,6.87,0,10.3-21.62-4.87-15.28,10.75-18.67,22.63-3.4,11.88-20.03,17.2-20.14,32.48-.26,1.32-.76,2.59-1.47,3.73-26.6-10.3-21.5,20.26-35.2,27.05-7.13-1.36-7.81-11.32-15.62-12.68-4.98-.91-12.11-.79-12.22-8.83-.11-8.04,5.09-11.32,11.32-13.81,12-4.64,24.45-8.6,22.63-25.69.23-2.09,1.39-3.97,3.17-5.09,46.29-31.8,38.25-84.43,47.99-129.47,3.6-26.51,4.81-53.29,3.62-80.01-1.05-16.99,4.33-33.75,15.05-46.97,6-6.68,4.87-17.09,5.55-27.5-22.63,13.35-27.61,35.2-31.12,57.49-2.04,12.45.79,25.01-18.33,30.44-10.73,6.88-18.74,17.29-22.63,29.42-4.87,14.37-16.86.91-22.07,9.96-7.02,12-13.13,5.09-18.45-2.72-1.4-1.55-3.2-2.69-5.21-3.28-6-2.15-16.41,5.43-17.77-4.87-1.36-10.3,12.34-8.26,15.5-13.92,16.86-30.22,59.64-30.9,72.32-66.43,7.77-18.13,17.69-35.27,29.54-51.04,15.39-22.63,27.27-49.46,58.17-57.61,5.89-1.47,15.39-7.92,11.88-17.09-3.51-9.17-10.07-4.53-16.18-1.81-6.11,2.72-8.71-2.6-8.83-7.47,0-20.26-13.01-33.95-26.14-46.29-8.19-5.82-12.84-15.43-12.34-25.46,0-3.4,0-8.37-4.19-8.26-24.33,0-35.54-24.11-57.49-30.33-9.05-2.6-9.17-22.86-10.86-36.22Z"/>
  </g>
</svg>