<?xml version="1.0" encoding="UTF-8"?>
<svg id="Layer_2" data-name="Layer 2" xmlns="http://www.w3.org/2000/svg" viewBox="0 0 654.5 580.96">
  <defs>
    <style>
      .cls-1 {
        fill:#808080
      }
    </style>
  </defs>
  <g id="Layer_1-2" data-name="Layer 1">
    <path class="cls-1" d="m367.83,230.88c-.43.09-.63.4-.82.71-1.12,1.88-2.41,3.47-4.95,3.15-.56-.06-1.07.24-1.48.64-.74.76-.61,1.55.43,1.8,2.67.64,5.34,1.48,8.06,1.71,2.21.19,4.36.27,6.51.93,1.4.42,2.9.52,4.36.68,4.2.47,8.42.91,12.62,1.31,5.13.5,10.25.98,15.4,1.41.54.05,1.25.33,1.83-.57-2.58-.35-5.01-.69-7.44-1-5.2-.68-10.38-1.5-15.55-2.37-1.87-.32-3.51-.76-5.1-1.83-2.12-1.46-4.36-2.96-6.98-3.16-2.85-.24-4.95-1.64-6.92-3.41h0Zm-185.2-25.58c-.01.19-.04.36-.06.55,5.25,1.24,10.48,2.58,15.75,3.68,10.9,2.28,21.82,4.43,32.73,6.63,9.56,1.92,18.98,4.49,28.57,6.32,1.69.32,3.41-.41,4.9.12,2.88,1.02,5.98.99,8.8,2.18,1.23.51,2.58.83,4.03.4,2.42-.73,2.84-1.77,1.17-3.7-.79-.89-1.66-1.66-2.19-2.79-.99-2.07-1.04-2.02-3.55-1.76-.82.09-1.66.09-2.48.06-3.6-.15-7.18-.24-10.74.45-.53.1-1.18.16-1.64-.05-3.1-1.5-6.48-1.19-9.75-1.39-4.5-.26-8.96-.77-13.42-1.52-13.88-2.38-27.55-5.75-41.5-7.74-3.53-.5-7.08-.97-10.63-1.45h0Zm95.36,41.24c-.83,1.22-.87,2.31-1.56,3.01-2.21,2.19-3.37,5.02-4.74,7.74-2.28,4.5-4.29,9.19-8.33,12.54-.35.3-.62.69-.84,1.09-1.07,1.83-2.72,2.94-4.55,3.89-3.61,1.85-7.42,3.25-11.16,4.76-1.2.48-2.42.95-3.42,1.77-1.09.91-1.17,1.66-.05,2.47,3.51,2.53,6.34,5.83,9.21,8.95,4.38,4.76,8.83,9.36,13.92,13.34.99.76,1.87,1.43,3.17,1.4,1.12-.02,1.88.61,2.48,1.51.34.52.56,1.2,1.33,1.23.1-.05.22-.07.25-.15,1.61-3.99,3.52-7.81,6.51-10.99.62-.66.83-1.49.55-2.31-.53-1.48-.33-2.89,0-4.35.22-1,.2-2.02-.26-2.98-.84-1.74-.79-3.55-.38-5.38.19-.82.31-1.59-.15-2.41-1.56-2.81-2.37-5.85-2.37-9.09,0-1.85-.11-3.68-.36-5.51-.22-1.72-.31-3.46-.27-5.22.11-4.95.72-9.86,1.03-15.34h0Zm73.18,74.68c.01.06.02.12.04.17,5.44-1.29,10.9-2.52,16.32-3.88,3.27-.83,6.44-2.17,9.73-2.76,4.53-.82,9.01-1.79,13.45-2.93,1.3-.32,1.55-.92.69-1.92-1.01-1.2-2.01-2.39-2.82-3.74-1.55-2.64-3.43-4.96-5.84-6.93-1.82-1.49-2.91-3.77-5.05-5.01-.41-.25-.68-.89-.83-1.4-.5-1.62-1.49-2.95-2.42-4.32-1.14-1.69-2.23-3.37-2.99-5.28-.55-1.36-1.05-2.78-1.86-3.99-2.32-3.5-3.87-7.32-5.1-11.3-.74-2.39-1.84-4.59-3.3-6.65-1.45-2.03-2.6-4.2-1.88-6.93.31-1.19-.91-3.09-1.7-3.17-.83-.07-1.64,1.18-1.7,2.8-.06,1.46.05,2.95-.55,4.35-.73,1.75-.87,3.57-.72,5.42.12,1.77-.01,3.48-.73,5.15-.29.66-.41,1.44-.38,2.16.05,2.16-.5,4.23-1.09,6.24-.38,1.35-.55,2.64-.66,4.02-.26,3.1-.87,6.29-2.26,8.96-1.05,2.01-1.55,3.57-.76,5.62.26.66.68,1.53-.25,1.96-1.38.64-1.29,1.88-1.45,3.04-.11.82-.12,1.61-.6,2.38-1.49,2.39-2.76,4.89-3.1,7.76-.06.53-.17,1.15-.48,1.56-1.69,2.27-1.28,5.15-2.24,7.61-.4,1.05.16,1.57,1.22,1.59.56,0,1.23.14,1.64-.11,2.22-1.38,4.49-1.25,6.82-.47.25.09.56.01.83.01h0Zm-163.85-9.47c1.23-.37,1.51-1.08,1.9-1.69.79-1.23,1.57-2.48,2.39-3.71.73-1.08,1.6-2.03,2.83-2.57,1.2-.55,2.11.25,3.08.72.17.07.36.09.55.12,3.14.55,6,1.61,8.23,4.04.36.38.84.82,1.34.91,1.44.25,2.21,1.23,2.95,2.31.47.68,1.09,1.2,1.81,1.65,3.98,2.48,7.79,5.21,11.1,8.56,1.3,1.33,2.67,2.64,4.34,3.4,4.84,2.13,8.72,5.8,13.43,8.16,2.65,1.33,5.03,3.22,6.5,5.84,1.41,2.49,2.98,4.86,4.5,7.28.71,1.09,1.44,2.23,1.6,3.5.28,2.22,1.48,3.09,3.61,3.39,2.37.31,2.33.47,2.39-2.08.04-1.38-.37-2.93.53-4.04,1.13-1.41,1.93-3.03,3.03-4.43,1.25-1.59,2.5-3.19,3.76-4.77,2.18-2.75,4.4-5.43,7.4-7.46,2.48-1.69,5.13-2.67,7.99-3.24.64-.12.99-.35,1.07-1,.11-.82.27-1.64.41-2.44.21-1.15-.36-1.9-1.43-1.91-2.37-.02-4.74-.47-7.1.38-4.04,1.46-8.08,1.71-11.94-.73-.53-.35-1.13-.63-1.74-.84-1.17-.4-1.85-1.17-2.03-2.37-.34-2.24-1.84-2.99-3.88-3.17-5.68-.53-10.65-2.96-15.12-6.27-5.85-4.3-9.75-10.22-12.59-16.84-1.43-3.34-2.32-3.63-5.38-1.84-3.08,1.81-6.58,2.83-9.47,5.01-.29.21-.67.35-1.03.4-5.54.82-10.69,3.55-16.43,3.44-.76-.01-1.56.14-1.91.89-1.25,2.72-3.6,4.66-5.15,7.15-.76,1.22-1.59,2.44-1.52,4.28h0Zm467.17-83.81c-1.65,5.39-5.42,9.37-9.23,13.26-3.42,3.47-6.98,6.84-10.74,9.96-2.78,2.29-5.69,4.48-8.63,6.53-5.06,3.51-10.53,6.46-16.39,8.52-1.86.66-2.85,1.75-3.08,3.77-1,9.05-5.8,15.76-13.18,20.77-2.74,1.86-5.58,3.6-8.47,5.23-2.1,1.19-3.99,2.63-5.8,4.2-14.17,12.37-30.47,20.2-49.13,22.99-10.65,1.59-21.29,1.55-31.9-.26-.55-.09-1.09-.16-1.65-.19-2.78-.12-5.2-.96-7.18-3.04-1.35-1.45-1.61-1.31-2.18.67-.07.27-.15.53-.22.81-2.17,8.39-7.7,13.14-16.09,14.79-1.71.33-3.45.62-5.12,1.08-2.03.56-2.31,1.69-.69,3.09,1.86,1.64,3.67,3.38,5.93,4.49,1.05.53,1.9,1.1,1.97,2.41.05.68.42,1.24.91,1.67.86.74,1.55,1.56,1.71,2.74.09.58.4,1.08.96,1.28,1.05.37,1.56,1.1,1.86,2.17.2.72,1.02,1.09,1.69,1.33,1.7.6,2.81,1.85,3.45,3.36.73,1.79,2.1,2.75,3.65,3.58,1.2.64,1.92,1.41,2.58,2.83,1.05,2.26,3.26,3.93,5.48,5.29,1.13.69,2.59.98,2.26,2.89-.11.6.72,1.02,1.24,1.39,2.72,1.88,5.64,3.47,7.8,6.11.64.79,1.81,1.14,2.99,1.84-1.57.89-2.67-1.22-3.94-.24.04.92.78,1.25,1.4,1.56,2.43,1.17,4.54,2.81,6.7,4.39.74.53,1.56.99,2.41,1.35.94.41,1.71.88,2.32,1.81,1.03,1.6,2.74,2.37,4.49,3.03,3.01,1.13,5.64,2.72,6.76,6.03.12.4.48.81.84,1.03.97.61,1.46,1.34,1.15,2.53-.2.77.06,1.5.66,2.01,1.86,1.55,3.1,3.63,4.68,5.43,1.48,1.69,2.6,3.68,4.51,5.01.46.31.56.96.62,1.5.17,1.45.62,2.95.4,4.34-.35,2.08.38,3.77,1.09,5.58.89,2.32,1.71,4.67,2.47,7.04.35,1.08.82,2.11-.77,3-1.05.61-1.05,2.28-.97,3.57.06,1.09.31,2.18.53,3.27q.71,3.51,4.23,3.91c.37.05.76.02.93.43.22.52-.09.94-.47,1.17-.63.37-1.33.82-2.02.86-2.54.17-4.5,1.92-6.91,2.42-1.02.21-1.3,1.56-2.63,1.75-.22-1.75-.66-3.26.68-5.01,1.31-1.74,2.07-3.94.71-6.19-.45-.76-.38-1.6-.4-2.43-.01-2.39.05-4.79-.01-7.18-.04-1.85-.12-3.7-1.21-5.32-.5-.73-.36-1.59-.45-2.41-.17-1.65-.36-3.3-.61-4.94-.07-.53-.26-1.12-.57-1.54-1.86-2.57-3.53-5.22-4.53-8.28-.2-.63-.95-1.54-1.44-1.54-1.75.01-2.05-1.31-2.63-2.38-.58-1.08-1.15-2.02-2.49-2.39-1.19-.32-1.66-1.65-2.48-2.49-1.39-1.44-3.09-2.6-4.08-4.39-.83-1.49-2.33-2.38-3.56-3.35-2.67-2.12-4.97-4.6-7.58-6.78-1.67-1.39-3.32-2.16-5.48-1.71-1.45.3-2.53-.14-3.04-1.64-.35-.98-1.02-1.67-1.86-2.33-1.15-.88-2.24-1.92-2.41-3.55-.02-.17-.09-.41-.22-.5-2-1.43-3.02-3.79-5.06-5.18-.37-.26-1.05-.42-1.12-.72-.41-2.05-2.18-2.95-3.36-4.36-1.74-2.12-3.62-4.09-5.38-6.15-1.56-1.85-3.71-3.22-4.79-5.53-.74-1.56-2.06-2.55-3.92-2.65-1.93-.11-3.41-1.82-5.52-1.51-.68.09-1.14-.87-1.57-1.45-1.13-1.53-2.46-2.75-4.4-3.1-.68-.12-1.12-.47-1.51-1.07-1.71-2.53-3.69-4.79-6.56-6.13-1.1-.52-1.71-1.64-2.47-2.58-1.05-1.31-2.32-2.05-4.09-1.59-.62.16-1.31.24-1.92.09-3.68-.88-7.33-.47-10.94.4-2.73.63-5.31.3-7.82-.81-2.55-1.12-4.91-2.54-7.2-4.1-1.09-.74-1.96-1.69-2.5-2.88-.72-1.56-1.84-2.75-3.26-3.68-2.2-1.43-3.77-3.5-5.56-5.36-1.9-1.98-2.19-2-4.39-.43-.68.48-1.43.93-1.97,1.54-4.77,5.41-11.3,8.15-17.43,11.49-3.05,1.66-6.34,2.42-9.83,2.37-3.22-.05-6.45-.04-9.67-.02-.87,0-1.62-.24-2.28-.81-1-.88-2.22-1.3-3.45-1.7-.99-.32-2.11-.5-2.89.29-2.95,2.95-6.43,2.13-9.89,1.55-.53-.09-1.03-.38-1.56-.55-.83-.27-1.8-1.35-2.48-.57-.78.88-.15,2.23.51,3.01,1.75,2.07,3.66,3.94,4,6.87.07.69.97,1.3,1.55,1.9.86.89,1.51,1.86,1.56,3.15,0,.09,0,.19.04.26,1.19,2.41,1.8,4.97,2.44,7.56.6,2.37,3,2.81,4.34.77,1.91-2.93,4.71-4.9,7.17-7.19,3.66-3.41,8.39-4.87,13.37-5.34,1.74-.16,3.51-.07,5.15-.84.81-.37,1.59-.16,2.42,0,2.2.45,4.43.41,6.55-.31,2.63-.89,5.29-1.46,8.03-1.76.36-.04.77-.11,1.04-.32,3.34-2.51,7.5-1.62,11.16-2.78.46-.14.94,0,1.33.27.91.66,1.9.53,2.93.41.89-.11,1.85-.16,2.74-.05,1.46.16,2.44.76,2.8,2.49.67,3.2,1.7,6.31,2.59,9.47.45,1.6.91,3.19,2.08,4.45.25.26.45.61.53.95,1.59,5.93,4.85,10.89,8.8,15.45.35.41.56.94.81,1.44.24.5.31,1.12.66,1.5,3.14,3.48,4.64,8.08,8.13,11.37,1.39,1.31,2.36,3.17,3.16,5.05.87,2.03,2.24,3.86,3.93,5.27,1.05.87,1.55,1.86,2.16,2.99,1.19,2.22,2.08,4.81,4.84,5.78.22.07.48.37.52.58.5,3.78,3.46,5.6,6.05,7.71.63.51,1.2.77.38,1.64-.45.5.15,1.04.52,1.41.67.63,1.4,1.2,2.1,1.81.41.35,1.05.66,1.19,1.1,1,3.53,3.77,5.82,6.04,8.42.87.99,1.2,1.57-.05,2.33-.6.37-.47.81-.35,1.4.66,3.17,2.74,5.33,5.1,7.29.98.82,1.56,1.88,2.27,2.91,1.48,2.19,2.37,4.66,3.84,6.81,1.05,1.52,2.55,2.63,4.14,3.62.74.46,1.71.72,2,1.8-1.2.64-1.79-.81-2.77-.73-.02,1.86,1.17,4.22,3.06,5.99.47.45.99.83,1.51,1.22.71.52,1.2,1.09.95,2.08-.1.42-.15,1.09.1,1.33,2.48,2.44,2.78,6.44,5.96,8.37.53.32,1.29.67.97,1.45-.62,1.49.31,2.33,1.22,3.06,1.83,1.48,3.2,3.21,4.22,5.36.99,2.11,2.94,3.51,4.75,5.13-.82,1.09-1.96.86-3.12,1.02.32,1.22,1.14,2.12,1.93,2.91,1.88,1.87,3.1,4.29,5.08,6.06.69.63.4,1.57.93,2.26.99,1.23,2.18,2.24,3.42,3.19.81.62,1.35,1.29,1.79,2.31.67,1.51,1.7,3.17,3.04,4.02,1.64,1.04,2.44,2.53,3.05,4.04.57,1.41,1.41,2.28,2.55,3.07.61.42,1.17.93,1.64,1.46.4.46.51,1.17-.12,1.43-1.64.63-1.04,1.65-.58,2.68.67,1.53,1.44,2.98,2.65,4.17,1.19,1.14,2.44,2.23,2.7,4.04.11.74.83,1.2,1.39,1.66,1.34,1.09,2.94,1.93,3.15,3.96.05.41.73.79,1.18,1.12.92.67,1.65,1.43,1.85,2.63.2,1.2,1.17,1.82,2.01,2.54.67.57,1.67.84,1.8,1.93-.81,1-1.43-.55-2.31-.06.47,2.57,1.5,4.92,3.46,6.68,3.14,2.79,5.33,6.32,7.87,9.58.29.36.76.87.66,1.15-.71,2.12.87,2.99,2.08,4.05,1.23,1.08,1.55,2.99,3.34,3.55.25.07.4.51.19.71-1.18,1.13-.12,1.67.63,2.05,3.24,1.65,3.68,4.76,4.39,7.96-1.14-.01-1.23-.88-1.6-1.4-.43-.61-.76-1.28-1.22-1.85-.72-.89-1.51-1.66-2.83-1.12-1.24.51-1.87,1.64-1.69,3.11.06.43.42.83.11,1.41-1.26-.62-2.18-1.38-2.42-2.93-.19-1.3-.92-2.42-2.23-2.96-.88-.36-1.2-1.09-1.41-1.92-1-4.17-3.56-7.65-5.12-11.8q-.5,1.51.32,4.51c.33,1.24.83,2.5-.79,3.5-.86-.78-.88-1.91-1.13-2.93-1.25-5.29-2.42-10.61-5.16-15.41-.24-.4-.42-.82-.67-1.22-.38-.59-.68-1.46-1.64-1.09-.74.29-.59,1.07-.57,1.7.02.81.14,1.61.24,2.72-1.2-.91-1.36-1.98-1.52-3.03-.9-5.46-2.83-10.4-6.21-14.88-1.66-2.22-2.95-4.84-3.92-7.5-.69-1.92-1.7-3.66-2.93-5.31-1.39.99-.91,2.49-1.13,3.88-1.04-.73-1.15-1.67-1.43-2.53-.81-2.55-1.87-5.01-3.12-7.38-.47-.88-.86-1.84-1.86-2.31-.76-.35-.92-1.09-1.14-1.81-.58-1.82-1.29-3.46-2.85-4.89-1.56-1.41-2.32-3.68-3.69-5.38-2.22-2.75-2.7-6.45-5.1-9.08-.37-.4-.6-.94-1.18-1.13-1.71.72-.55,2.48-1.17,3.56-.97.1-1.2-.59-1.46-1.14-.96-1.98-1.84-4.02-2.79-6.01-.73-1.53-.63-3.5-2.39-4.49-.19-.11-.25-.5-.27-.76-.32-2.73-2.01-4.82-3.36-7.06-.35-.57-.51-1.17-.73-1.77-.26-.69-.37-1.54-.84-2.02-2.02-2.1-2.32-5.23-4.13-7.25-1.97-2.19-2.75-5.06-4.85-7.18-1.25-1.26-2.13-3.15-2.99-4.85-.88-1.75-1.92-3.37-3.15-4.87-1.71-2.07-3.25-4.23-4.33-6.72-.64-1.5-1.75-2.59-3.24-3.25-1.13-.51-1.71-.17-1.45.99.77,3.51.09,7.2,1.35,10.65.25.67.47,1.41.01,2.13-.78.21-.89-.43-1.1-.89-1.76-3.77-3.27-7.63-4.36-11.64-.71-2.59-1.72-4.95-3.72-6.96-1.8-1.81-3.15-4.09-4.3-6.4-.94-1.9-2.24-3.7-2.96-5.55-1.31-3.36-3.01-6.37-4.89-9.44-2.05-3.32-3.62-6.98-5.74-10.28-1.7-2.64-3.05-5.47-4.65-8.15-3.5-5.85-6.8-11.8-10.86-17.3-2.65-3.56-4.9-7.37-6.92-11.31-1.19-2.31-2.18-4.67-2.75-7.22-.2-.89-.47-1.8-.86-2.62-.69-1.45-1.2-1.66-2.52-.67-1.23.92-2.31.89-3.57.21-1.5-.81-3.09-.73-4.48.17-3.17,2.07-6.65,3.6-9.85,5.6-3.88,2.44-7.64,5.11-11.37,7.76-4.87,3.47-10.28,5.38-16.22,5.67-1.54.09-3.11-.22-4.66-.42-.74-.1-1.55-.32-2.11.24-1.44,1.4-3.4,1.83-4.98,2.9-.99.66-1.79.72-2.79.3-3.47-1.48-7.2-2.48-9.49-5.86-.46-.68-1.23-.76-1.98-.77-3.03-.05-5.59-.94-7.23-3.73-.31-.51-.97-.82-1.46-1.21-3.05-2.39-5.29-5.59-8.38-7.95-1.55-1.18-2.59-2.88-3.47-4.61-.83-1.62-2.26-2.72-3.86-2.65-1.81.07-3.53,1.05-4.35,2.98-.25.59-.6,1.17-.74,1.79-1.43,5.78-2.93,11.54-3.52,17.51-.31,3.11-.81,6.2-1.14,9.32-.29,2.64-.22,2.64,2.23,3.43,3.09,1,6.04,2.24,8.74,4.07,3.91,2.65,7.06,5.95,8.93,10.32,3.47,8.15,6.88,16.28,8.58,25.05,2.06,10.5,2.75,20.99.35,31.53-.16.72-.25,1.49-.55,2.14-2.47,5.37-2.78,11.22-3.91,16.9-.52,2.63-1.15,5.22-2.32,7.65-1.44,3-2.47,6.15-3.35,9.36-.37,1.31-.94,2.59-1.46,3.87-.73,1.81-2.07,3.15-3.88,3.71-1.72.53-2.73,1.66-3.76,3-1.95,2.52-4.2,4.54-7.69,4.86-2.21.21-3.48,2.03-4.04,4.04-.38,1.4-.93,2.31-2.37,2.68-1.24.32-2.02,1.55-3.41,1.71-.68.07-.84.87-.97,1.53-.33,1.82-.53,3.65-.53,5.51-.01.92-.07,1.85-.5,2.7-.32.64-.89.9-1.57.92-.74.01-1.2-.42-1.41-1.1-.48-1.51-.62-3.06-.42-4.65.14-1.09.22-2.19.31-3.3.09-1.07-.15-2-1.08-2.68-1.18-.86-1.64-2.17-2.18-3.45-.69-1.6-1.5-3.15-2.27-4.72-.31-.61-.86-.97-1.45-1.21-1.76-.73-3.14-1.92-4.35-3.35-1.36-1.61-3.11-2.65-5.17-2.95-5.69-.82-8.8-4.15-9.92-9.65-.21-1.07-.59-2.12-.88-3.19-.58-2.18-1.56-4.13-3.36-5.59-1.95-1.6-2.9-3.7-3.2-6.21-.6-5.03-2.37-9.85-2.86-14.92-.19-1.93-.15-3.87-.25-5.79-.05-1.02.17-2.16-.41-2.99-2.68-3.89-2.44-8.17-1.81-12.51,1.12-7.61,2.8-15.1,6.22-22,2.2-4.41,4.41-8.89,7.76-12.64,1.23-1.38,2.05-3.02,2.91-4.65,2.62-4.86,6.42-8.74,10.92-11.92,1.28-.89,2.68-1.61,4.07-2.34,1.97-1.05,4.05-1.69,6.35-1.66,2.19.02,2.49-.21,3.09-2.36.73-2.67,1.39-5.36,1.98-8.05,1.12-5.05,2.23-10.08,3.22-15.14.48-2.44.58-4.94-.06-7.4-.58-2.19-.88-2.54-3.19-2.23-1.87.26-1.65-1.33-2.28-2.32-1.31.24-1.98,1.31-2.72,2.17-2.06,2.39-4.27,4.58-7.09,6.08-.32.17-.69.37-.87.67-1.3,2.22-3.68,2.9-5.73,4.03-1.08.6-2.01,1.24-2.72,2.26-1.13,1.59-2.69,2.07-4.61,1.85-2.81-.33-2.86-.3-4.1,2.24-.64,1.31-1.8,2.19-2.86,2.93-2.03,1.38-4.13,2.81-6.65,3.21-4.62.76-8.34-.68-9.61-5.49-.38-1.5-1.25-2.19-2.6-2.46-7.23-1.4-12.68-5.64-17.57-10.86-5.37-5.72-9.76-12.25-14.95-18.12-.59-.68-1.14-1.49-1.49-2.32-1.25-3.06-3.47-5.42-5.58-7.86-1.03-1.19-2.14-2.29-3.82-2.57-.56-.09-1.07-.35-1.4-.82-.81-1.15-2-1.57-3.3-1.79-.78-.11-1.31-.53-1.86-1.08-1.18-1.17-2.13-1.09-3.11.2-.82,1.05-1.1,2.31-1.18,3.62-.02.52.12,1.22-.69,1.25-1.24.06-1.7,1.07-2.23,1.87-4.67,7.01-10.33,13.22-15.73,19.63-2.49,2.93-5.27,5.64-7.8,8.58-2.52,2.91-4.69,6.14-7.01,9.19-2.42,3.19-5.08,6.2-7.5,9.39-2.27,3-4.43,6.08-6.6,9.14-1.67,2.36-3.92,4.17-5.95,6.16-.41.4-.87.71-1.45.72-.88.02-1.14.67-1.59,1.31-2.78,3.99-5.64,7.95-8.49,11.9-.2.28-.48.57-.95.43-.56-.47-.14-.98.01-1.48.27-.87.74-1.72.82-2.62.17-1.88.53-3.63,1.81-5.12.42-.5.64-1.15.26-1.8-.41-.68-1.12-.55-1.75-.5-1.38.1-2.43.86-3.31,1.81-3.78,4.15-8.58,7.23-12.29,11.4-1.82,2.06-4.66,3.2-5.59,6.08-.17.51-.62.95-1.2,1.05-1.34.22-1.98,1.26-2.69,2.22-1.03,1.43-1.75,2.88-3.63,3.81-1.66.83-2.58,3.17-3.76,4.9-.3.43-.22,1.23-.81,1.38-2.65.69-3.43,3.16-4.82,5.05-.56.74-1.09,1.52-1.43,2.36-.86,2.05-2.29,3.48-4.2,4.53-.2-.01-.29-.14-.29-.35,0-.66.95-1.44.01-1.95-.77-.41-1.4.31-1.86.87-1.93,2.31-3.97,4.54-5.57,7.1-.69,1.1-1.53,2.06-2.57,2.85-2,1.51-3.91,3.09-4.72,5.62-.22.69-.72,1.26-1.46,1.59-.4.17-.89.46-1.05.82-1.33,2.96-4.36,4.66-5.59,7.71-.52,1.28-1.76,1.51-3,1.02-.16-.07-.4-.14-.46-.26-1.22-2.65-3.63-2.93-6.15-2.99.33-1.17,1.36-1.34,2.08-1.85,1.81-1.28,3.72-2.47,4.43-4.76.29-.91,1.09-1.19,1.83-1.54,1.35-.62,2.65-1.3,3.82-2.22.73-.57,1.65-1.23,1.72-2.08.17-1.91,1.48-2.58,2.86-3.34,1.05-.57,1.84-1.4,2.59-2.39,1.08-1.43,2.72-2.46,3.76-3.89,1.54-2.12,3.76-3.46,5.42-5.38.72-.83,1.61-1.76-.35-2.34-.79-.25-.78-.95-.1-1.49,1.44-1.14,2.75-2.45,4.46-3.24,2.06-.94,4.27-2.19,5.06-4.12.98-2.34,2.93-3,4.59-4.24,1.05-.77,1.98-1.65,2.72-2.74.61-.91,1.07-1.95,2.15-2.47.45-.21.73-.62.6-1.12-.33-1.2.62-1.39,1.31-1.74,2.01-1,3.73-2.38,5.23-4.04.5-.55,1.02-1.1.66-1.95-.53-1.31.17-1.88,1.3-2.19,1.36-.37,2.59-.99,3.6-1.98.67-.64,1.86-1.21.61-2.42-.31-.31-.06-.68.27-.91.15-.11.32-.2.5-.22,3.46-.55,5.74-3.07,8.39-4.96.76-.55,1.53-1.02,2.36-1.43,2.16-1.07,2.44-1.57,1.4-3.62-.61-1.22-.37-1.77.62-2.48,2.69-1.92,5-4.31,7.97-5.94,1.56-.86,3.36-2.01,3.56-4.24.07-.86.81-.92,1.43-1.04.83-.15,1.72-.24,2.26-.92,1.9-2.39,4.59-3.97,6.46-6.36.32-.43.79-.91.82-1.39.06-1.07.98-1.1,1.5-1.62,2.5-2.48,6.11-3.88,7.54-7.45.21-.53.58-.91,1.05-1.24,3.11-2.17,5.88-4.7,7.77-8.06.38-.66,1.05-1,1.62-1.48,1.91-1.57,3.92-3.08,5.12-5.34.21-.4.55-.77.92-1.02,3.55-2.34,5.95-5.74,8.46-9.04,1.17-1.54,2.12-3.24,3.55-4.59.76-.71,1.24-1.6.73-2.72-.84-.3-1.17.38-1.57.83-.46.5-.92.89-1.66.71-3-.76-4.8,1.28-6.66,2.98-2.08,1.88-3.45,4.49-5.84,6.11-.36.24-.6.68-.83,1.07-.19.31-.19.87-.43.99-2.44,1.18-3.11,3.93-5.05,5.58-1.51,1.26-3.09,2.59-3.78,4.59-.19.51-.35,1.17-.97,1.25-1.66.2-2.32,1.31-2.75,2.72-.17.52-.5.97-1.02,1.26-.38.22-.89.48-1.05.84-1.08,2.58-3.65,4.07-4.72,6.66-.43,1.05-.88,2.32-2.58,1.87-.63-.17-.94.47-1.15.98-.36.86-.66,1.72-1.02,2.57-.17.42-.41.89-.98.78-.41-.09-.52-.46-.57-.84-.07-.6.29-1.38-.62-1.61-.87-.24-1.77-.11-2.24.66-1.31,2.16-3.94,2.59-5.51,4.44-2.39,2.81-6.16,4.25-7.92,7.75-.27.56-.74,1.13-1.28,1.43-1.62.94-2.9,2.07-3.73,3.86-.63,1.36-1.38,1.12-2.74-.78-.22.07-.53.09-.71.25-3.37,3.19-6.83,6.27-9.96,9.72-.36.38-.55.94-.79,1.43-.56,1.1-1.33,1.84-2.64,1.3-1.19-.47-1.98.09-2.6.95-1.7,2.39-3.45,4.72-5.78,6.61-.81.64-1.18,1.85-1.76,2.78-.57.92-1.09,1.71-2.39.83-1.18-.79-2.23,0-2.83.92-1.31,2.02-3.53,3.24-4.58,5.49-.37.83-1.21,1.6-2.07,1.72-1.85.29-2.37,1.56-2.81,3-.62,2-2.42,3.14-3.36,4.95-.21-.26-.42-.41-.4-.51.51-2.31,0-3.92-2.64-4.39-1.02-.19-.95-.95-.38-1.69.05-.06.11-.15.19-.2,3.68-2.43,6.21-6.44,10.7-7.8,1.85-.56,3.15-1.87,3.89-3.68.87-2.06,2.38-3.36,4.44-4.29,2.79-1.25,5.1-3.29,7.43-5.26.63-.53,1.36-1.15,1.19-2.06-.3-1.49.77-1.88,1.69-2.49,2.59-1.7,5.06-3.57,7.43-5.58.77-.66,1.44-1.49,2.29-1.98,1.45-.82,2.41-1.97,2.91-3.52.72-2.19,2.28-3.51,4.39-4.27,1.33-.47,2.58-1.03,3.24-2.39.07-.16.22-.33.37-.4,2.8-1.15,5.03-3.24,7.63-4.66,3.16-1.74,6.16-3.68,9.06-5.79.78-.56,1.81-1.18.55-2.36-.36-.36.15-.84.41-1.2.91-1.29,1.88-2.49,3.43-3.1,1.46-.58,2.69-1.57,3.91-2.57,1.22-.98.41-1.49-.42-1.96.06-.62.58-.72.97-.88,2.85-1.13,5.49-2.41,7.03-5.42.64-1.26,2.46-1.88,2.24-3.79-.02-.21.89-.53,1.38-.77,1.62-.82,3.03-1.87,3.36-3.76.17-1.03.93-1.29,1.64-1.71,1.72-1,3.68-1.72,4.1-4.1.14-.74,1.1-.92,1.65-1.39,1.52-1.3,3.38-2.36,2.98-4.89-.12-.74.61-1.3,1.13-1.82,1.04-1.04,2.11-2.06,3.15-3.11.64-.66,1.41-1.31,1.31-2.33-.14-1.44.57-2.2,1.75-2.81.72-.37,1.35-.94,1.96-1.51,1.86-1.76,1.86-3.34-.37-4.67-3.62-2.17-7.28-3.94-11.84-3.92-9.8.06-18.24-3.84-25.6-10.22-2.7-2.33-3.89-5.27-3.7-8.83.07-1.56.02-3.14-.02-4.7-.04-.98-.6-1.43-1.45-.86-5.21,3.43-10.82,2.18-16.35,1.39-3.01-.43-5.98-1.12-9.05-.94-1.13.06-2.21-.1-3.08-.94-.14-.12-.31-.29-.46-.3-2.64-.07-4.59-1.92-6.94-2.68-1.15-.37-2.27-.74-3.3-1.39-7.5-4.74-14.63-9.91-20.88-16.28-2.58-2.64-5.01-5.39-7.55-8.06-5-5.25-8.95-11.36-14.15-16.43-.97-.95-1.75-2.16-2.43-3.35-1.19-2.08-2.5-4.08-3.92-6.01-4.23-5.86-5.21-12.5-4.36-19.48.32-2.63,1.57-4.86,3.53-6.72,3.01-2.88,6.58-4.71,10.51-5.89,1.4-.42,2.88-.58,4.38-.35,1.07.19,2.17.25,3.1-.67-.66-.76-1.51-.82-2.27-1.03-2.65-.78-5.32-1.52-7.97-2.29-3.11-.92-6.03-2.27-8.74-4.07-1.84-1.24-3.78-2.27-5.74-3.29-1.84-.95-3.27-2.65-5.06-3.71-2.24-1.34-3.67-3.55-5.72-5-1.59-1.14-3.05-2.34-4.36-3.77-.93-1-1.85-2.05-2.36-3.37-.19-.5-.52-1.02-.92-1.35-4.3-3.67-6.87-8.61-9.76-13.3-.88-1.41-1.91-2.75-2.55-4.27-1.08-2.5-2.72-4.74-3.74-7.19-1.46-3.48-2.63-7.08-4.4-10.43-.47-.88-.92-1.98-.79-2.9.43-3.11-1.75-5.53-2-8.43-.02-.33-.33-.64-.51-.96v-4.98c2.31-3.7,5.79-5.88,9.73-7.39,2.41-.93,4.86-1.72,7.3-2.55,9.26-3.11,18.72-3.6,28.38-2.52,5.78.64,11.44,1.91,17.15,2.95,8.15,1.48,16.26,3.14,24.09,5.99,3.76,1.38,7.01,3.67,10.66,5.18,11.52,4.76,22.58,10.44,33,17.28.55.36,1.12.72,1.52,1.2,1.4,1.66,3.2,2.79,5.15,3.65,2.96,1.29,5.26,3.63,8.2,5.03,1.66.79,3.09,2.27,4.81,3.17,10.64,5.57,20.25,12.8,30.58,18.87,3.07,1.8,5.95,4.07,9.16,5.64,6.45,3.16,12.37,7.25,18.79,10.49,6.75,3.4,13.27,7.25,20.05,10.59,5.12,2.51,10.19,5.07,15.16,7.85,2.49,1.4,5.01,2.76,7.59,3.99,2.02.95,2.54.55,2.28-1.64-.43-3.53.07-6.97,1.09-10.35.56-1.86,1.1-3.72,1.54-5.59.56-2.37.78-4.75-.32-7.04-.48-1-.24-1.96.02-2.95.66-2.47-1.02-4.5-3.5-4.04-4.03.73-8.02.43-12.06.04-1.56-.15-3.05-.97-4.6-.63-2.76.58-5.49.27-8.23-.11-1.19-.17-2.39-.12-3.57.15-.61.14-1.35.55-1.77-.15-.45-.71-.04-1.41.51-1.97.25-.26.61-.43.57-.96-.62-.55-1.46-.84-1.98-1.7-1.35-2.27-1.5-2.27-4.23-1.65-.73.16-1.6.58-2.07-.11-.83-1.2-2.14-1.12-3.2-1.23-2.02-.21-3.99-.52-5.96-.99-.43-.1-.93-.16-1.36-.06-2.49.56-4.82-.52-7.24-.72-1.4-.12-2.85-.55-4.32-.56-.67-.01-1.44.31-2.08-.41.95-.89,2.19-.97,3.26-1.44.58-.25,1.34-.3,1.35-1.14.01-.74-.56-1.14-1.13-1.44-1.96-1.04-3.92-2-6.19-2.24-1.43-.16-3.15-.01-4.14-1.12-.78-.86-1.43-1.55-2.59-1.81-.92-.21-1.09-.89-.48-1.69.31-.41,1.05-.46,1-1.22-.48-.38-.94-1-1.5-1.14-2.7-.64-4.36-2.55-5.95-4.59-.55-.68-1.31-.95-2.17-1.08-2.36-.33-4.64-1.05-7.01-1.43-3.69-.57-7.13-.52-10.34,1.57-.46.3-1.05.82-1.48.38-1.25-1.28-2.78-1.24-4.35-1.28-.47-.01-.94-.36-.93-.86.01-.55.56-.66,1-.74.99-.17,2.24-.01,2.67-1.13.6-1.6,1.93-1.74,3.24-2.17,1.38-.46,2.6-.93,3.68.52.17.22.72.31,1.04.22,1.91-.5,4.12.15,5.74-1.5.62-.63,1.4-.52,2.01-.01,2.08,1.74,4.93,2.05,6.97,3.87.76.67,1.66.73,2.54.14,1-.66,1.76-.21,2.38.58.41.51.81,1.02,1.12,1.57,1.36,2.41,3.26,4.23,5.67,5.54,2.5,1.35,4.75,3.12,7.09,4.71,3.96,2.65,8.16,4.09,12.82,4.6,1.79.2,3.69.37,5.29.88,3.56,1.13,7.46.89,10.8,2.8.42.25,1.08.17,1.62.15,2.89-.16,5.69.22,8.47,1.03,1.05.3,2.17.57,3.26.56,3.3-.05,6.35.98,9.4,2.01,2.8.94,5.53,2.13,8.38,2.8,2.58.61,4.95,1.4,7.02,3.06.57.45,1.2,1.04,1.96.88,2.06-.45,2.6,1.07,3.11,2.41,1.74,4.64,2.99,9.44,3.53,14.36.91,8.2,2.53,16.21,5.78,23.82.37.86.81,1.64,1.59,2.22,2.95,2.17,6.04,3.03,9.55,1.34,1.6-.76,3.1-1.62,4.58-2.57,1.1-.72,1.7-1.65,1.66-2.98-.02-.83.06-1.66-.06-2.48-.78-5.37.94-9.96,4.24-14.11.99-1.26,2.38-2.34,2.39-4.23,0-.35.48-.78.84-1.03,2.18-1.54,3.58-3.88,5.85-5.37,1.46-.98,1.55-1.87.63-3.34-1.13-1.79-1.62-3.68-1.82-5.73-.06-.64-.07-1.49-.81-1.6-1.22-.2-2.11-1.07-3.31-1.31-3.88-.82-7.38-2.31-10.55-4.87-1.61-1.31-2.64-3-4.07-4.36-1.45-1.38-2.23-3.1-3.01-4.9-1.71-3.97-1.8-8.48-4.17-12.21-.2-.28-.17-.71-.25-1.07-1.36-6.66,2.63-15.31,8.89-18.9,4.1-2.34,8.42-3.77,13.19-1.82.72.31,1.64.22,2.46.24,1.1.01,2.18.05,3.29.3,3.99.91,4.91.24,4.91-3.78s-.53-8.26-.67-12.4c-.06-2.12.4-4.22.04-6.34-1.33-7.87-4.09-15.1-9.46-21.15-1.25-1.4-2.28-2.9-2.51-4.82-.1-.87-.51-1.55-1.1-2.17-3.2-3.21-5.78-6.94-8.77-10.33-.99-1.12-1.79-2.34-2.22-3.78-.35-1.2-1.08-2.03-2.06-2.84-4.61-3.78-8.79-8.02-12.71-12.54-.5-.57-1.08-.98-1.77-1.25-4.8-1.86-9.23-4.43-13.53-7.24-.3-.19-.67-.35-1.02-.36-3.92-.19-7.54-1.71-11.32-2.52-1.41-.31-2.6-.21-3.94.51-3.06,1.66-6.42,2.69-9.51,4.41-1.39.77-2.67,1.43-3.7,2.64-1.77,2.1-3.69,4.12-5.62,6.01-2.15,2.12-3.84,4.39-5.36,6.91-.48.78-.91,1.62-1.48,2.33-1,1.24-2.32,1.05-3.09-.36-.51-.93-.32-1.75.24-2.58,2.81-4.22,5.47-8.54,8.94-12.29,2.58-2.78,5.17-5.72,8.44-7.48,3.36-1.82,6.92-3.44,10.46-4.96,1.87-.81,3.72-.91,5.64-.21,1.65.61,3.37.94,5.1,1.26,5.27.99,10.46,2.17,14.97,5.36,2.79,1.98,5.8,3.6,8.92,5.01,1.25.57,2.46,1.22,3.3,2.42,3.83,5.37,9.06,9.37,13.68,14,.72.72,1.5,1.38,1.95,2.29,1.91,3.94,4.65,7.29,7.44,10.61,1.43,1.67,2.98,3.4,3.92,5.27,2.32,4.6,5.01,9.03,7.06,13.76.84,1.96,1.7,3.92,2.1,6,.71,3.62,1.52,7.2,2.69,10.7.19.52.19,1.23.55,1.53,3.1,2.62,3.42,6.39,4.19,9.93.43,2,.02,4.03-.51,5.99-.2.76-1.08,1.5-.33,2.26.79.79,1.91.46,2.89.27.66-.14,1.09-.6,1.46-1.18.94-1.48,1.64-2.91,1.84-4.76.33-3.11,1.48-5.89,4.24-8,1.48-1.12,2.91-2.83,3.71-4.56,2.64-5.77,6.58-10.39,11.43-14.36,1.98-1.64,4.09-3.15,5.63-5.27.4-.53.94-.91,1.6-1.04,2.15-.48,3.7-2,5.51-3.07,4.45-2.62,7.08-7.53,12.05-9.44.09-.04.14-.12.21-.19,3.78-3.35,8.01-6.22,10.97-10.44.46-.64,1.24-1.09,1.92-1.56.69-.5,1.23-1.12,1.53-1.91.78-2.1,2.09-3.89,3.17-5.82.95-1.69,2.1-3.32,2.52-5.22.56-2.51,1.81-4.6,3.36-6.57,2.62-3.34,5.23-6.68,7.06-10.55.22-.5.6-.95.99-1.3,3.16-2.83,6.3-5.67,9.98-7.8.94-.55,1.61-1.44,2.69-1.88,3.74-1.54,7.56-2.83,11.51-3.74h4.98c.34.14.68.27,1.03.4,6.08,2.15,12.19,4.25,17.97,7.12,3.65,1.82,7.09,3.98,9.56,7.35.43.6.93,1.17,1,1.93.07.73-.38,1.03-1.02.93-.76-.14-1.28-.72-1.81-1.23-1.81-1.76-3.96-2.99-6.15-4.18-6.52-3.55-13.56-5.73-20.62-7.85-.73-.22-1.43-.21-2.17-.12-4.08.45-7.66,2.63-11.68,3.3-.32.06-.66.35-.92.6-3.87,3.46-8.59,5.95-11.49,10.53-2.81,4.44-6.91,8.1-8.27,13.43-.09.35-.3.68-.53.97-3.42,4.59-4.98,10.25-8.57,14.8-1.2,1.54-2.29,3.05-3.94,4.12-.93.6-2.06,1.07-2.69,1.9-2.9,3.81-7.7,5.62-10.2,9.82-.12.22-.4.4-.63.52-4.02,1.93-7.04,5.37-11.02,7.34-.83.41-1.64.94-2.12,1.75-1.3,2.17-3.42,3.3-5.54,4.41-1.46.78-2.96,1.5-4.2,2.64-4.34,3.96-8.08,8.38-10.06,14-.5,1.39-1.8,2.74-1.07,4.4.6,1.36.38,2.69.14,4.05-.2,1.09-.45,2.17-.52,3.26-.2,3.07.28,3.67,3.19,4.54,2.68.79,5.44,1.14,8.17,1.29,2.65.15,5.29.89,7.97.38,3.37-.64,6.41.2,9.16,2.11,5.12,3.57,8.15,8.54,8.97,14.66.58,4.28.16,8.51-2.86,12.01-.48.57-.81,1.22-.86,2-.36,5.2-2.65,9.42-6.17,13.22-1.18,1.25-1.93,2.53-3.84,2.26-3.08,1.97-6.88.92-10.09,2.41-.79.37-1.82.09-2.73-.2-.96-.3-1.92-.62-2.9-.87-1.51-.38-2.89.42-2.95,1.96-.15,4.41-.62,8.95,3.58,12.11.35.26.47.79.78,1.12,1.04,1.14,1.18,2.68,1.81,3.99,2.22,4.7,3.98,9.54,3.63,14.87-.12,1.84.38,3.43,1.52,4.89,1.22,1.54,2.03,3.27,2.49,5.2.21.89.47,1.85,1.23,2.43,1.13.86,1.86,1.93,2.6,3.12,1.4,2.23,3.42,2.17,4.69-.14,1.19-2.17,3.07-3.78,4.29-5.99,2.47-4.49,5.22-8.82,7.25-13.54.55-1.25.71-2.72,1.4-3.87,2.1-3.43,3.52-7.27,6.16-10.39.77-.91,1.43-1.67,2.68-1.57,1.17.11,2.19-.19,3.03-1.03,1.49-1.49,3.35-2.24,5.31-2.85,1.86-.57,3.65-1.29,5.36-2.21,6.2-3.35,12.91-5.39,19.67-7.23,2.19-.61,4.49-.79,6.52-2.08.79-.5,1.95-.66,2.93-.63,4.72.15,8.79-1.74,12.77-3.94.64-.36,1.34-.98,1.97-.93,2.46.16,4.44-1.74,6.93-1.4.63.07,1.35-.51,2.02-.81.58-.25,1.15-.71,1.75-.77,3.74-.35,6.68-2.94,10.28-3.65,1.87-2.12,4.9-2.47,6.82-4.54.55-.58,1.28-1.25,2.17-.93,1.49.55,2.5-.25,3.48-1.09,1.39-1.19,2.9-2.26,4.1-3.68.99-1.22,2.39-1.62,3.69-.89,1.33.76,2.39.48,3.62-.05,1.79-.77,3.52-1.65,5.42-2.06,1.57-.33,2.07-.05,2.1,1.59.05,1.77.91,2.68,2.43,3.25,2.67.99,5.08,2.58,8.03,2.84,1.72.15,2.11.97,1.8,2.7-.5,2.69-2.91,4.74-5.99,5.01,0-.27-.05-.56,0-.82.38-1.85.15-3.43-1.54-4.62-1.5-1.05-2.86-2.75-4.65-2.79-2.95-.07-5.84-.55-8.77-.86-2.03-.22-3.68.98-4.59,2.42-.71,1.12-1.5,1.46-2.49,1.85-1.34.51-2.93.59-3.63,2.21-.12.27-.57.5-.89.55-1.48.17-2.78.93-4.22,1.29-2.11.52-4.09,1.54-6.11,2.38-.41.17-.83.55-.82,1.03.01.71.67.82,1.19.94,1.34.32,2.7.56,4.04.89.48.12.72.56.61,1.08-.07.43-.43.61-.79.62-1.1.06-2.22,0-3.31.12-3.56.43-7.39-.51-10.54,2.03-.25.21-.72.15-1.08.16-3,.02-5.88.4-8.17,2.63-.16.17-.52.15-.79.19-1.28.16-2.57.53-3.83.46-2.37-.15-4.24.69-6.01,2.18-2.08,1.74-2.13,2.11.19,3.56.09.05.04.33.05.57-.63.43-1.39.24-2.11.32-.56.06-1.2.2-1.25.86-.11,1.36-.84,1.43-1.9,1.07-.83-.28-1.62-.01-2.44.2-1.24.32-2.5.81-3.79.62-4-.57-7.68,1.07-11.28,2.11-3.6,1.04-7.17,1.44-10.79,1.9-2.19.27-4.39.61-6.52,1.14-3.24.81-4.56,2.74-4.4,6.06.02.46.09.92.12,1.38.05.59-.14,1.12-.66,1.43-2.21,1.29-2.57,3.53-2.74,5.73-.24,3.03-.67,6.05-.6,9.1.1,3.57-.79,6.93-2.42,10.11-.79,1.56-1.61,3.12-2.29,4.74-.68,1.6-.47,1.91,1.29,2.05,3.77.29,7.55.09,11.32-.21,5.32-.42,10.63-.94,15.93-1.49,5.86-.6,11.72-1.28,17.56-1.9,5.03-.55,10.02-1.46,15.12-1.36,1.38.02,2.76-.12,4.13-.28,5.39-.64,10.78-1.34,16.17-2,5.29-.66,10.64-1.05,15.82-2.39,8.58-2.19,17.32-3.43,26.05-4.8,11.27-1.77,22.54-3.56,33.83-5.26,5.55-.84,11.12-1.48,16.71-1.98,5.23-.47,10.48-.74,15.7-1.25,7.2-.69,14.4-.27,21.5.4,8.69.82,17.28,2.69,25.73,4.98,3.73,1.02,7.51,2.1,10.68,4.43,3.4,2.52,7.48,3.97,10.58,6.94.32.31.77.53,1.19.71,4.43,1.75,7.5,5.26,10.87,8.37,1.31,1.22,2.23,2.68,2.73,4.4v4.98h0Z"/>
  </g>
</svg>