<?xml version="1.0" encoding="UTF-8"?>
<svg id="Layer_2" data-name="Layer 2" xmlns="http://www.w3.org/2000/svg" viewBox="0 0 654.5 557.37">
  <defs>
    <style>
      .cls-1 {
        fill:#808080
      }
    </style>
  </defs>
  <g id="Layer_1-2" data-name="Layer 1">
    <path class="cls-1" d="m11.37,286.99c10.15-5.59,22.79-1.62,33.08-7.92,10.2-6.32,11.87-16.4,18.59-25.26,5.39-6.86,12.87-11.69,18.04-18.75,7.19-9.87,17.76-15.42,29.73-17.11,8.68-1.15,16.87,1.42,25.37,3.22,8.75,1.89,17.52,3.15,26.33,4.62,5.53.98,11.16,2.71,16.79,3.97,8.44-18,18.26-35.26,26.1-53.46,2.23-5.39,2.46-11.92,3.76-17.86-3.56-.6-7.02-1.69-10.12-3.71-3.29-2.24-5.43-6.26-8.68-8.34-3.72-2.29-7.48-2.64-9.9-6.66-2.74-4.55-2.74-10.18-4.94-14.96-2.76-6.17-4.78-12.23-5.46-19-.47-5.84,1.6-12.87-2.48-17.8-3.25-3.86-8.8-5.39-13.23-7.21-4.68-1.95-9.9-2.31-14.39-4.64-5.43-2.8-8.96-7.17-11.27-12.72-1.91-4.28-2.82-10.12-8.42-9.48-2.6.38-10.94,4.55-8.64-2.44.91-2.64,6.16-5.04,8.78-5.44,8.17-1.31,10.75,8.1,14.06,13.58,4.86,7.99,14.52,8.03,22.49,10.63,9.21,3.06,17.83,8.66,24.68,15.47,6.15,6.06,7.17,21.48,5.87,29.36-.71,4.48-1.73,11.65.85,15.67,2.03,3.31,6.73,3.93,10.33,4.28,4.45.51,8.64-.51,12.89-1.13,2.11-.31,4.51-.51,6.84-.6.33-1.07.82-2,1.18-3.06,3.64-10.63,4.68-21.77,12.28-30.52,6.49-7.54,15.75-11.65,25.37-14.09,10.47-2.6,29.23-3.77,28.18-18.84-.76-10.56-8.6-19.42-10.23-29.69-.91-5.82.49-11.81-1.16-17.51-1.61-5.24-7.97-8.34-5.96-14.85.97-3.22,3.79-5.9,7.18-4.24,4.83,2.44,5.26,15.31,6.38,20.06,3.15,13.23,5.82,43.59,25.05,42.88,4.96-.2,9.9-4.06,14.93-5.04,5.83-1.11,12.48-1.02,18.13,1.69,2.85,1.42,4.84,3.2,8.09,3.35,19.13.71,21.86-29.65,24.99-42.88,1.14-4.75,1.62-17.62,6.46-20.06,3.25-1.66,6.26,1.02,7.17,4.24,2.07,6.5-4.37,9.61-5.9,14.85-1.65,5.7-.3,11.69-1.27,17.51-1.63,10.28-9.37,19.13-10.17,29.69-1,15.07,17.68,16.24,28.18,18.84,9.56,2.44,18.82,6.55,25.33,14.09,7.61,8.75,8.76,19.89,12.36,30.52.31,1.07.77,2,1.12,3.06,2.32.09,4.7.29,6.81.6,4.13.62,8.52,1.64,12.85,1.13,3.64-.36,8.32-.98,10.43-4.28,2.52-4.02,1.48-11.19.79-15.67-1.32-7.88-.2-23.3,5.77-29.36,6.92-6.81,15.55-12.41,24.7-15.47,8.04-2.6,17.71-2.64,22.57-10.63,3.38-5.48,5.95-14.89,14.07-13.58,2.59.4,7.8,2.8,8.72,5.44,2.31,6.99-6.02,2.82-8.62,2.44-5.65-.64-6.47,5.19-8.32,9.48-2.42,5.55-5.9,9.92-11.22,12.72-4.55,2.33-9.86,2.69-14.52,4.64-4.45,1.82-9.96,3.35-13.23,7.21-4.04,4.93-1.99,11.96-2.52,17.8-.59,6.77-2.67,12.83-5.42,19-2.11,4.77-2.11,10.41-4.84,14.96-2.52,4.02-6.26,4.37-9.92,6.66-3.33,2.09-5.52,6.1-8.78,8.34-3.07,2.02-6.54,3.11-10.12,3.71,1.34,5.95,1.63,12.47,3.9,17.86,7.73,18.2,17.58,35.51,25.96,53.46,5.63-1.26,11.3-2.99,16.85-3.97,8.85-1.46,17.58-2.73,26.38-4.62,8.4-1.8,16.67-4.37,25.33-3.22,11.96,1.69,22.49,7.24,29.64,17.11,5.2,7.06,12.77,11.9,17.91,18.75,6.89,8.85,8.5,18.93,18.74,25.26,10.35,6.3,22.9,2.33,33.1,7.92,6.2,3.42,11.55,8.39,11.39,15.78-.13,3.82-2.24,14.14-8.22,12.96-5.26-1.11-.12-9.45-1.34-12.96-2.95-8.85-18.42-9.48-25.97-10.85-10.91-1.98-22.87-3.91-31.53-11.54-11.06-9.81-14.74-24.92-24.96-35.15-7.07-7.17-14.6-4.28-23.56-3.77-9.11.58-18.13.42-27.22.42-6.23,0-12.44-1.13-18.46.87-3.62,1.11-7.12,2.8-10.61,4.42,12.03,31.8,10.65,70.06,1.85,102.35-3.35,12.16-7.58,24.48-12.54,36.53.81.67,1.63,1.17,2.4,1.89,4.14,3.93,9.25,7.43,12.56,12.01,6.36,8.77,11.57,18.82,17.1,28.14,4.4,7.37,8.13,15.36,10.02,23.81,3.41,14.85-2.87,27.72,9.79,39.79,4.82,4.57,12.06,5.75,18.01,8.28,6.64,2.8,12.73,6.41,17.91,11.34,4.53,4.28,8.8,8.77,13.58,12.78,8.02,6.86,24.7,16.42,12.87,28.74-2.64,2.91-7.96,4.84-11.95,4.53-11.81-1.02,7.2-9.65,6.81-14.76-.5-6.82-13.09-9.3-18.09-11.59-13.48-6.11-24.31-16.09-37.28-22.86-5.92-3.04-12.54-3.86-17.68-8.5-6.26-5.53-8.81-15.09-7.12-23.15,3-14.02-3.34-28.27-10.71-39.88-3.74-5.7-8.52-10.23-13.01-15.36-3.36-3.97-6.3-8.3-11.49-10.34-1.32-.44-2.93-1-4.7-1.46-4.86,9.01-10.2,17.8-16.57,25.74-10.4,13.27-23.7,26.56-37.54,36.48-10.43,7.48-21.63,14.34-33.61,19.06-8.31,3.31-19.3,5.24-28.15,3.93-5.72-.91-11.91-3.51-17.86-5.2-6,1.69-12.11,4.28-17.8,5.2-8.96,1.31-19.9-.62-28.24-3.93-11.98-4.73-23.14-11.59-33.65-19.06-13.74-9.92-26.99-23.21-37.5-36.48-6.3-7.95-11.59-16.73-16.48-25.74-1.83.51-3.39,1.02-4.76,1.46-5.12,2.04-8.09,6.37-11.55,10.34-4.29,5.13-9.13,9.65-12.82,15.36-7.48,11.61-13.74,25.85-10.79,39.88,1.67,8.06-.87,17.62-7.07,23.15-5.19,4.64-11.81,5.46-17.71,8.5-13.07,6.77-23.84,16.75-37.32,22.86-5.04,2.29-17.6,4.77-18.24,11.59-.32,5.1,18.73,13.73,6.87,14.76-3.84.31-9.2-1.62-11.87-4.53-11.85-12.32,4.83-21.88,12.92-28.74,4.76-4.02,9.01-8.5,13.51-12.78,5.26-4.93,11.36-8.54,17.96-11.34,5.9-2.53,13.15-3.71,17.93-8.28,12.65-12.07,6.47-24.94,9.84-39.79,1.89-8.46,5.63-16.44,10-23.81,5.55-9.32,10.82-19.37,17.12-28.14,3.31-4.57,8.4-8.08,12.57-12.01.81-.71,1.57-1.22,2.44-1.89-4.94-12.05-9.26-24.37-12.61-36.53-8.76-32.29-10.15-70.55,1.83-102.4-3.44-1.64-7.02-3.26-10.49-4.37-6.12-2-12.31-.87-18.6-.87-8.98,0-18.13.16-27.16-.42-8.92-.51-16.48-3.4-23.58,3.77-10.17,10.23-13.91,25.34-24.95,35.15-8.65,7.63-20.53,9.57-31.57,11.54-7.48,1.37-22.99,2-25.97,10.85-1.14,3.51,4.04,11.85-1.35,12.96C2.23,316.91.07,306.59,0,302.77c-.16-7.39,5.16-12.36,11.36-15.78h0Z"/>
  </g>
</svg>