<?xml version="1.0" encoding="UTF-8"?>
<svg id="Layer_2" data-name="Layer 2" xmlns="http://www.w3.org/2000/svg" viewBox="0 0 376.88 654.5">
  <defs>
    <style>
      .cls-1 {
        fill:#808080
      }
    </style>
  </defs>
  <g id="Layer_1-2" data-name="Layer 1">
    <path class="cls-1" d="m3.59,165.69c15.07-5.99,34.68,4.29,45.16,14.36,12.3,11.82,20.08,27.16,24.67,43.44,2.42,8.65,4.33,15.96,14.77,16.65,13.01.9,26.24,1.28,38.91,4.59l11.23,3.01s0-12.53.63-18.51c1.17-11.31,2.86-22.14,4.39-33.42,1.23-8.86-5.73-16.68-5.85-25.75-.04-10.72,4.27-21.58.29-32.06.01.1-5.11,1.1-5.47-3.52-.3-2.72,2.47-4.9,4-6.86,2.24-2.83,10.44-9.9,6.84-14.03-7.88-9.15-15.36-17.9-21.22-28.59-6.87-12.57-12.33-26.12-22.29-36.71-6.78-7.07-13.34-14.33-20.43-20.99-4.38-4.14-19.61-16.85-14.99-24.38,5.78-9.45,18.76,6.8,22.08,11.42,7.41,10.03,14.21,20.2,22.3,29.78,7.13,8.66,12.83,18.32,18.27,28.06,3.5,6.08,7.02,16.35,12.08,21.15.09.06,13.76,13.1,13.76,13.1-1.35-1.2,1.55-11.45,2.12-13.34,1.77-5.31,4.89-15.63,10.68-17.91,6.48-2.6,7.76,3.16,6.3,8.39-.68,2.35-10.74,17.58-7.78,18.72,9.24,3.46,10.86,4,17.4-3.65,8.81-10.42,9.76-3.04,16.38,3.79,5.11,5.2,9.11,2.03,14.95-.14,3.04-1.14-7.1-16.38-7.72-18.72-1.49-5.23-.22-10.99,6.24-8.39,5.82,2.29,8.98,12.6,10.63,17.91.69,1.89,3.49,12.14,2.26,13.34,0,0,13.66-13.04,13.66-13.1,5.08-4.8,8.6-15.07,12.05-21.15,5.5-9.75,11.23-19.4,18.41-28.06,7.99-9.58,14.89-19.75,22.14-29.78,3.44-4.62,16.39-20.86,22.17-11.42,4.59,7.53-10.57,20.24-15.09,24.38-7.08,6.66-13.56,13.93-20.29,20.99-10,10.59-15.51,24.14-22.35,36.71-5.79,10.69-13.34,19.44-21.24,28.59-3.52,4.14,4.66,11.2,6.92,14.03,1.59,1.96,4.18,4.14,4,6.86-.42,4.62-5.51,3.62-5.51,3.52-3.97,10.48.26,21.34.26,32.06-.04,9.07-7.02,16.89-5.85,25.75,1.58,11.28,3.28,22.11,4.38,33.42.63,5.99.63,18.51.63,18.51l11.29-3.01c12.6-3.31,25.93-3.68,38.91-4.59,10.39-.69,12.35-8,14.79-16.65,4.6-16.27,12.33-31.61,24.65-43.44,10.47-10.08,30.03-20.35,45.21-14.36,5.29,2.11,4.33,7.19-.74,9.91,5.62,7.49,3.28,22.71-7.1,12.51-1.34-1.38-.39-3.86-1.53-4.86-2.77-2.53-11.97-4.24-14.03-.56-5.93,10.62-13.76,20.35-19.94,30.89-9.66,16.57-18.48,38.55-39.32,41.83-1.41.21-51.6,4.93-51.6,6,.56,9.38,1.01,18.89,1.13,28.3.06,7.96-1.96,17.55,6.21,21.3,8.29,3.81,17.49,5.87,25.64,9.97,8.5,4.11,15.79,10,23.75,14.81,8.54,5.26,19.07,9.33,25.27,17.73,6.53,8.75,10.41,22.48,12.21,33.03,2.59,15.9-3.88,33.69,3.71,48.46,4.54,8.95,10.2,4.44,18.27,6.42,12.08,2.99,8.81,21.49-1.17,15.49-2.98-1.76-10.65-4.14-10.65-4.14-.21-.03-5.22,16.59-11.76,7.74-3.01-3.98.78-10.83.84-15.16.02-8.48-6.41-16-10.18-23.1-4.38-8.2-7.7-16.68-9.13-25.87-2.03-12.33,2.65-30.95-5.93-41.33-6.9-8.3-20.53-6.17-29.36-11.17-13.87-7.78-26.06-15.69-41.33-21.07,1.64.53,2.86,18.8,3.29,21.33,2.63,20.3,3.04,40.46,2.77,60.91,10.65,4.69,22.45,7.25,32.23,13.73,11.64,7.69,19.19,21.4,27.1,32.59,6.77,9.57,13.2,19.84,16.08,31.39,2.96,12.69.47,25.87,2.26,38.76.71,4.98,1.11,10.06,2.02,15.07,1.41,7.82,8.41,12.24,15.29,14.65,3.76,1.28,16.75,5.97,10.03,11.63-2.54,2.15-10.14,3.72-13.48,4.15-4.21.57-5.41,1.7-6.68-3.98-1.17-5.86-2.22-10.86-6.01-15.66-6.12-7.82-11.55-11.82-14.33-21.88-3.94-14.21-2.71-29.31-6.42-43.58-4.68-18.09-21.37-22.51-31.98-35.96-6.6-8.45-13.25-14.93-21.91-21.24-1.71,52.08,2.92,106.63-10.98,157.41-3.47,12.84-8.41,25.33-15.55,36.64-.81,1.31-8.03,10.02-8.03,9.9.57,4.06,7.88,27.34-1.61,25.75-4.44-.8-5.58-11-7.58-14.09-2.17-3.28.18-2.87-4.48-3.41-.72-.06-24.74,1.88-23.9.08-.15.36-5.13,16.81-8.65,17.43-9.46,1.59-2.12-21.69-1.49-25.75,0,.12-7.28-8.59-8.09-9.9-7.02-11.31-12.08-23.79-15.57-36.64-13.84-50.77-9.19-105.32-10.92-157.41-8.62,6.3-15.31,12.78-21.93,21.24-10.59,13.45-27.37,17.87-31.99,35.96-3.75,14.27-2.44,29.37-6.44,43.58-2.78,10.06-8.2,14.06-14.33,21.88-3.81,4.8-4.78,9.79-5.93,15.66-1.29,5.69-2.51,4.56-6.77,3.98-3.34-.43-10.87-2-13.46-4.15-6.77-5.65,6.3-10.35,10.05-11.63,6.87-2.41,13.84-6.83,15.29-14.65.95-5.01,1.31-10.09,2.03-15.07,1.76-12.89-.72-26.06,2.21-38.76,2.71-11.55,9.31-21.82,16.09-31.39,7.97-11.19,15.43-24.9,27.09-32.59,9.76-6.48,21.61-9.04,32.28-13.73-.3-20.45.15-40.61,2.78-60.91.33-2.53,1.59-20.8,3.22-21.33-15.13,5.38-27.4,13.3-41.3,21.07-8.89,5.01-22.47,2.87-29.37,11.17-8.48,10.38-3.91,29-5.93,41.33-1.43,9.19-4.81,17.67-9.1,25.87-3.76,7.1-10.21,14.62-10.15,23.1,0,4.33,3.85,11.18.87,15.16-6.63,8.84-11.58-7.77-11.79-7.74-.14,0-7.72,2.38-10.71,4.14-9.97,6-13.29-12.5-1.17-15.49,8.06-1.99,13.73,2.53,18.27-6.42,7.61-14.77,1.16-32.56,3.76-48.46,1.74-10.54,5.78-24.28,12.23-33.03,6.18-8.41,16.65-12.47,25.21-17.73,7.99-4.81,15.34-10.71,23.67-14.81,8.29-4.11,17.37-6.17,25.76-9.97,8.09-3.74,6.09-13.34,6.17-21.3.21-9.41.6-18.92,1.16-28.3.01-1.07-50.22-5.79-51.65-6-20.74-3.28-29.64-25.25-39.32-41.83-6.12-10.54-13.94-20.27-19.96-30.89-2.01-3.69-11.23-1.97-13.99.56-1.1.99-.2,3.47-1.56,4.86-10.35,10.2-12.75-5.02-7.04-12.51-5.07-2.72-6.06-7.81-.69-9.91h0Z"/>
  </g>
</svg>