<?xml version="1.0" encoding="UTF-8"?>
<svg id="Layer_2" data-name="Layer 2" xmlns="http://www.w3.org/2000/svg" viewBox="0 0 654.5 409.75">
  <defs>
    <style>
      .cls-1 {
        fill:#808080
      }
    </style>
  </defs>
  <g id="Layer_1-2" data-name="Layer 1">
    <path class="cls-1" d="m617.39,12.83c-25.31-2.75-47.4,7.77-71.2,18.01,5.95,2.96,11.6,6.49,16.88,10.52l-3.22,1.04c-3.86-2.68-7.95-4.99-12.23-6.92-2.81-1.87-6.38-2.2-9.48-.85-19.44,9.48-38.68,19.81-56.89,31.29-4.27,2.65-2.56,4.17,0,6.54,3.42,2.89,6.59,6.06,9.48,9.48l-2.37,1.9c-2.46-2.9-5.12-5.63-7.96-8.15-2.75-3.63-7.92-4.35-11.55-1.61-.31.23-.6.48-.87.76-18.96,14.03-36.5,29.2-53.76,44.94-4.55,4.17-3.98,6.07.66,9.48,3.4,2.67,6.57,5.62,9.48,8.82l-2.18,1.9c-3.43-4.1-7.49-7.62-12.04-10.43-2.07-1.76-5.18-1.51-6.95.56-.06.07-.11.13-.16.2-18.3,18.96-36.22,37.92-53.95,59.07,26.94,5.27,54.39,7.4,81.82,6.35,4.08,0,5.59-1.61,6.35-5.59.46-2.34.68-4.72.66-7.11h3.03v6.35c-.57,5.21.85,5.97,5.4,5.59,15.36-1.08,30.6-3.55,45.51-7.4,24.75-6.73,19.81-.76,20.86-26.64v-1.04l3.32-1.71v15.17c0,4.08,0,7.58,6.35,5.31,25.96-9.3,50.36-22.5,72.34-39.16,2.86-1.69,4.54-4.84,4.36-8.15-.2-8.36-1.02-16.7-2.47-24.93l2.75-2.56c1.81,9.59,3.01,19.28,3.6,29.01,22.37-19.81,41.34-40.29,49.58-68.26,6.75-20.82-4.66-43.17-25.48-49.92-3.14-1.02-6.4-1.64-9.69-1.85ZM55.18,102.52l2.75,2.47c-1.56,8.96-2.45,18.02-2.65,27.12.16,3.3,2.03,6.29,4.93,7.87,11.42,8.68,23.57,16.35,36.31,22.94,13.37,7.31,27.48,13.16,42.09,17.44-.47-7.49-.57-14.88-.47-22.19l3.22,1.71c0,5.97,0,11.95.66,17.92,0,3.98,2.65,4.84,5.78,5.78,19.02,5.6,38.5,9.47,58.21,11.57,6.64.76,7.77-1.52,7.21-7.58v-2.28h3.03c0,7.68,2.37,11.19,10.81,11.09,26.07.18,52.1-2.11,77.74-6.83-17.2-20.92-35.56-40.86-54.99-59.73-3.03-3.03-4.93-.66-7.02.85-3.65,2.83-7.01,6-10.05,9.48l-2.47-2.18c2.95-3.07,6.12-5.92,9.48-8.53l5.31-4.36c-18.9-18.46-39.05-35.6-60.3-51.29-2.32-2.49-6.22-2.62-8.71-.3-.28.26-.54.56-.77.87-3.19,2.92-6.14,6.09-8.82,9.48l-2.56-2.47c3.85-4.57,8.1-8.79,12.7-12.61-2.65-1.8-4.55-3.32-6.64-4.55-13.18-7.4-26.36-14.98-39.72-22-18.11-9.48-23.89-10.14-37.35.85l-2.94-.85c5.49-4.48,11.47-8.33,17.82-11.47-8.15-3.51-14.6-6.54-21.24-9.01-15.9-7.06-33.28-10.12-50.63-8.91C14.09,14.93-1.91,34.33.18,56.17c.22,2.27.63,4.52,1.24,6.72,7.68,28.44,27.12,49.49,50.06,69.87.52-10.16,1.76-20.26,3.7-30.24Zm290.78,80.78c.95-6.16-7.49-14.51-16.21-16.78-8.72-2.28-13.37,3.51-17.92,9.48-1.68,2.18-3.23,4.46-4.65,6.83-.76,1.33-1.9,2.84,0,4.36,3.41,3.22,1.71,6.54,0,9.48-2.91,6.58-6.33,12.92-10.24,18.96-6.46,9.98-9.76,21.68-9.48,33.56-.66,9.43,2.1,18.79,7.77,26.36,2.75,3.7,4.55,3.89,8.53,1.14,13.64-10.9,33.01-10.9,46.65,0,4.46,3.41,6.26,2.37,8.91-1.42,11.76-16.59,8.82-34.23,2.75-51.29-5.02-13.75-18.68-23.13-16.12-40.67Zm-18.96,88.55c-16.36-.46-30.76,10.69-34.42,26.64-4.52,22.54,1.13,45.92,15.45,63.9,11.38,16.5,27.4,16.02,39.16,0,10.67-14.9,16.41-32.77,16.4-51.1,1.57-20.15-13.49-37.76-33.64-39.33-.98-.08-1.97-.11-2.96-.11ZM119.65,12.64c45.38,13.48,88.8,32.86,129.13,57.64,23.27,13.84,43.29,32.53,58.69,54.8,3.79,5.88,6.35,11.19,1.61,17.92-2.32,4.37-3.47,9.27-3.32,14.22,0,1.8.76,4.55,1.42,7.21,1.23,5.02,2.37,8.34,8.25,3.03,8.06-7.4,15.17-7.11,24.18.76,4.17,3.7,5.21,1.99,6.54-1.8,3.11-8.12,2.41-17.2-1.9-24.75-2.91-4.38-2.64-10.13.66-14.22,11.86-18.12,27.12-33.77,44.94-46.08,39.1-27.28,82.09-48.5,127.52-62.95,7.02-2.37,14.03-4.55,21.24-6.54,4.46-1.23,6.92-3.6,5.5-8.25-1.42-4.65-5.4-3.79-8.91-3.03-.81.26-1.6.58-2.37.95-33.89,11.17-66.65,25.52-97.84,42.85-37.92,21.24-73.1,45.32-94.24,85.33-1.71,3.32-3.32,2.65-5.78,1.04-4.67-3.27-10.88-3.27-15.55,0-3.7,2.47-5.02.95-6.73-2.28-10.7-19.65-25.51-36.75-43.42-50.15C225.12,44.94,175.61,19.29,122.87,2.5c-4.55-1.61-11-5.5-13.27,1.99-2.28,7.49,5.5,6.73,10.05,8.15Zm470.34,135.86c-1.65-.19-3.3.33-4.55,1.42-11.04,7.65-22.71,14.34-34.89,20-4.36,2.09-3.13,3.89-1.04,6.73,1.62,2.43,3.07,4.97,4.36,7.58l-2.94,1.8c-1.28-2.88-2.8-5.64-4.55-8.25-1.41-2.81-4.82-3.95-7.63-2.54-.21.11-.42.23-.61.36-16.63,7.2-33.94,12.69-51.67,16.4-3.6.76-5.59,1.61-4.08,6.45,1.37,4.26,2.48,8.6,3.32,12.99l-3.22,1.14c-.76-4.08-1.71-8.06-2.75-12.14-1.04-4.08-3.79-6.35-8.72-5.5-17.85,3.28-35.99,4.77-54.14,4.46-5.4,0-6.83,1.52-6.83,6.92v9.01h-3.22v-11.57c0-3.89-1.14-4.17-3.89-4.27-18.16-.85-36.24-2.88-54.14-6.07,9.13,20.77,22.5,39.4,39.25,54.7,3.51,3.13,5.69,1.8,8.06-1.33,2.56-3.39,4.63-7.13,6.16-11.09l2.84,1.71c-1.95,4.8-4.67,9.26-8.06,13.18-3.6,3.89.57,4.55,2.47,5.78,14.03,9.17,30.7,13.44,47.4,12.14,2.56,0,6.73-.76,10.81-.76,11.75.32,21.88-8.19,23.61-19.81v-.95h3.7c-1.46,5.25-3.59,10.28-6.35,14.98,1.14,0,1.71.57,2.18.47,25.19-6.98,49.31-17.38,71.68-30.91,2.25-1.11,3.79-3.29,4.08-5.78.46-3.77.68-7.57.66-11.38l3.32-1.99v12.89c17.68-9.48,33.31-22.37,45.98-37.92,8.1-10.74,5.97-26.02-4.78-34.13-3.45-2.6-7.53-4.24-11.81-4.75Zm-338.85,50.63c-2.47,0-4.17,1.04-4.27,3.89,0,4.93,0,9.48.66,14.6l-3.51.47c0-3.98-.57-8.06-.57-12.14s-1.52-6.54-6.54-6.45c-18.05.33-36.09-1.13-53.85-4.36-5.5-1.04-7.87.85-9.48,6.07-1.61,5.21-1.9,8.25-2.56,12.42l-3.22-1.14c.85-4.48,1.93-8.91,3.22-13.27,1.42-4.74,0-6.26-4.27-7.11-17.42-3.53-34.42-8.87-50.72-15.93-2.8-1.84-6.56-1.07-8.4,1.73-.15.23-.29.48-.41.73-1.56,2.5-2.95,5.1-4.17,7.77l-2.94-1.9c2.05-4.19,4.53-8.16,7.4-11.85-11.3-4.83-22.05-10.87-32.05-18.01-5.66-5.96-15.08-6.21-21.04-.55-.4.38-.78.79-1.14,1.21-1.14,1.14-2.65,1.99-3.89,3.03-8.05,4.6-10.85,14.85-6.25,22.89.61,1.07,1.34,2.08,2.18,2.99,9.77,13.56,22.03,25.14,36.12,34.13,3.77,3.34,8.15,5.91,12.89,7.58-.73-4.67-1.05-9.4-.95-14.13l3.41,2.28c.02,4.12.27,8.23.76,12.33,0,3.6,3.41,4.84,5.97,6.26,16.12,9.51,33.11,17.47,50.72,23.8,6.94,2.72,14.11,4.82,21.43,6.26-2.67-4.58-4.8-9.44-6.35-14.51h3.03c3.7,12.99,11.95,18.01,29.2,18.96l5.97.47c16.49,1.16,32.9-3.11,46.74-12.14,2.18-1.33,5.5-2.37,2.37-6.07-2.43-2.9-4.49-6.09-6.16-9.48l3.03-1.8c1.27,2.78,2.83,5.41,4.65,7.87,1.61,2.09,3.13,4.84,6.54,1.9,17.45-15.25,31.22-34.24,40.29-55.56-17.79,3.37-35.78,5.62-53.85,6.73Zm94.14,171.41c-.39-.16-.84-.16-1.23,0-4.68,4.37-10.55,7.24-16.88,8.25-4.63-.13-9.04-1.95-12.42-5.12-2.47-3.22-5.12-3.98-7.96,0-1.9,4.48-2.62,9.38-2.09,14.22-.1,5.66,1.59,11.2,4.84,15.83.86,1.18,1.88,2.23,3.03,3.13,3.42,2.15,7.44,3.14,11.47,2.84,2.24,0,4.47-.29,6.64-.85,5.21-1.64,9.54-5.29,12.04-10.14,2.52-4.76,4.04-9.99,4.46-15.36.62-3.88.43-7.86-.57-11.66-.19-.28-.66-1.14-1.33-1.14Z"/>
  </g>
</svg>