<?xml version="1.0" encoding="UTF-8"?>
<svg id="Layer_2" data-name="Layer 2" xmlns="http://www.w3.org/2000/svg" viewBox="0 0 654.5 573.13">
  <defs>
    <style>
      .cls-1 {
        fill:#808080
      }
    </style>
  </defs>
  <g id="Layer_1-2" data-name="Layer 1">
    <path class="cls-1" d="m33.03,75.44c19.47-1.34,38.82,3.95,57.53,8.4,20.7,4.87,41.19,10.24,61.48,16.51,36.45,11.26,80.3,29.83,105.78,59.33,10.21,11.9,16.56,27.41,30.7,35.75,13.74,8.03,18.72-1.42,22.75-13.29,1.67-4.76,0-8.81,4.97-11.9-15.08-20.4-33.24-39.95-50.9-58.19-14.17-14.84-29.12-30.29-37.74-49.27-5.49-12.14-5.03-25.68-9.28-38.18-1.27-3.86-10.03-28.71,2.31-24.02,4.87,1.83,5.83,8.65,6.2,12.97.83,10.35-2.5,20.95-1.07,31.18,4.7,32.75,40.73,58.61,60.95,82.35,9.89,11.56,18.27,25.18,30.21,34.87.87.68,6.53,2.72,10.38,3.34,3.76-.62,9.52-2.66,10.32-3.34,11.97-9.69,20.3-23.3,30.14-34.87,20.22-23.73,56.35-49.59,61.03-82.35,1.35-10.24-1.94-20.83-1-31.18.29-4.33,1.24-11.14,6.13-12.97,12.36-4.69,3.6,20.16,2.31,24.02-4.27,12.5-3.81,26.05-9.3,38.18-8.52,18.97-23.58,34.43-37.75,49.27-17.6,18.23-35.78,37.79-50.91,58.19,4.91,3.1,3.38,7.14,4.91,11.9,4.14,11.87,9.14,21.32,22.82,13.29,14.17-8.35,20.49-23.85,30.81-35.75,25.41-29.5,69.26-48.07,105.77-59.33,20.24-6.28,40.73-11.65,61.41-16.51,18.76-4.45,38.04-9.73,57.5-8.4,10.48.73,31.45,5.84,32.91,18.93,1.35,11.32-14.87,17.74-22.05,23.52-16.96,13.71-21.56,35.94-30.31,54.9-4.93,10.67-12.94,19.41-19.18,29.26-9.36,14.67-14.14,32.11-26.19,45.03-11.32,12.01-26.96,19.79-43.23,22.47-5.27.85-10.97.6-16.35.67,7.1,5.71,13.87,12.13,21.3,17.3,12.69,8.73,22.72,14.57,21.59,31.82-1.08,15.35-9.15,30.87-6.67,46.41,1.83,10.81,2.12,19.23-2.69,29.26-4.87,10.43-2.83,22.04-4.28,33.06-1.34,10.88-10.38,19.16-10.83,29.91-.73,15.57,10.37,29.82,21.7,39.33,10.24,8.69,20.45,17.99,31.66,25.47,8.38,5.59,19.68,9.93,24.49,19.39,7.13,13.58-4.91,27.53-18.04,30.37-21.07,4.57-23.15-18.51-31.08-31.89-7.42-12.36-15.21-24.58-24.14-35.94-4.36-5.57-9.04-10.86-14.06-15.84-4.41-4.35-9.25-8.41-15.49-9.51-7.23-1.27-14.17,2.37-21.48,2.45-14.59.11-24.51-13.32-37.23-18.63-17.71-7.45-30.35-13.71-38.65-31.99-8.88-19.33-13.5-40.52-24.57-58.72-7.07-11.48-14.56-24.84-19.38-37.31,3.17,8.21-.56,18.46-1.21,26.91-.62,8.69-1.62,17.3-2.56,26-1.1,9.92-.37,23.45-7.34,31.45-6.1,6.97-16.08,5.95-21.91-.62-6.91-7.87-6.08-21.15-7.11-30.83-.9-8.7-1.96-17.31-2.63-26-.65-8.46-4.39-18.71-1.13-26.91-4.95,12.48-12.4,25.84-19.47,37.31-11.05,18.2-15.7,39.39-24.46,58.72-8.34,18.28-21,24.54-38.85,31.99-12.55,5.31-22.55,18.74-37.17,18.63-7.21-.08-14.23-3.72-21.46-2.45-6.18,1.1-11.09,5.16-15.48,9.51-5,4.98-9.6,10.27-13.98,15.84-9.01,11.36-16.72,23.58-24.15,35.94-8.01,13.38-10.07,36.46-31.16,31.89-13.11-2.84-25.05-16.79-18.12-30.37,4.93-9.45,16.19-13.8,24.55-19.39,11.27-7.48,21.43-16.78,31.7-25.47,11.34-9.51,22.5-23.76,21.72-39.33-.42-10.75-9.43-19.03-10.86-29.91-1.45-11.03.6-22.64-4.27-33.06-4.76-10.03-4.49-18.45-2.66-29.26,2.58-15.54-5.65-31.05-6.65-46.41-1.1-17.25,8.86-23.09,21.49-31.82,7.47-5.17,14.31-11.59,21.32-17.3-5.35-.07-11.05.19-16.33-.67-16.18-2.68-31.91-10.46-43.17-22.47-12.02-12.92-16.89-30.36-26.19-45.03-6.28-9.85-14.31-18.59-19.2-29.26-8.76-18.95-13.38-41.19-30.38-54.9C14.91,112.11-1.17,105.69.07,94.37c1.62-13.09,22.48-18.2,32.97-18.93h0Z"/>
  </g>
</svg>