<?xml version="1.0" encoding="UTF-8"?>
<svg id="Layer_2" data-name="Layer 2" xmlns="http://www.w3.org/2000/svg" viewBox="0 0 654.5 489.8">
  <defs>
    <style>
      .cls-1 {
        fill:#808080
      }
    </style>
  </defs>
  <g id="Layer_1-2" data-name="Layer 1">
    <path class="cls-1" d="m348.02,212.41c.84-.69.53-1.64.64-2.45.68-5.29,1.29-10.63,3.1-15.67,2.32-6.41,5.23-12.53,9.11-18.2,4.78-6.96,9.33-14.07,14.53-20.72,2.86-3.67,5.92-7.17,8.95-10.69,4.11-4.77,8.21-9.53,12.55-14.06,4.59-4.78,9.41-9.34,14.16-13.97,4.74-4.63,9.44-9.31,14.32-13.8,6.4-5.87,12.77-11.8,19.53-17.27,4.75-3.85,9.34-7.9,14.19-11.63,5.46-4.19,10.89-8.42,16.59-12.31,7.25-4.95,14.4-10.07,21.76-14.87,7.87-5.12,15.93-9.92,24.32-14.14,4.15-2.09,8.11-4.56,12.35-6.5,18.15-8.31,36.92-14.75,56.53-18.68,4.63-.93,9.29-1.79,13.89-2.96,2.72-.69,5.59-.86,8.42-1.09,5.13-.41,10.28-.96,15.43-.48,2.98.26,5.86.58,8.67,2.1,2.04,1.11,3.99,2.3,5.8,3.72,1.06.83,2.04,1.8,2.59,3.14.31.78.83,1.53,1.44,2.12,1.95,1.95,3.01,4.32,3.78,6.94,1.52,5.22,2.87,10.48,3.43,15.88.52,5.04.46,10.11.2,15.2-.21,3.87-.89,7.63-1.43,11.42-.79,5.52-2.18,10.96-3.9,16.27-1.69,5.28-3.59,10.53-5.67,15.68-1.12,2.78-2.72,5.34-3.65,8.24-.53,1.66-.71,3.37-1.23,5.01-.77,2.34-1.62,4.64-2.6,6.92-1.02,2.41-1.91,4.91-3.13,7.26-1.19,2.3-2.49,4.52-3.49,6.91-1.25,2.93-2.46,5.97-2.82,9.07-.37,3.18.23,6.49,1.08,9.67,1.09,4.11,1.38,8.26.36,12.43-.07.25-.32.52-.26.72.72,2.84-.64,5.14-1.8,7.53-.47.98-.49,2.17-.71,3.27-.14.67-.09,1.49-.47,1.99-1.57,2.03-1.26,4.3-1.22,6.61.1,3.96,0,7.93.01,11.89,0,.68.01,1.38.18,2.04.94,3.71-.02,7.08-1.47,10.5-2.33,5.46-5.42,10.56-7.15,16.3-.74,2.45-2.05,4.73-3.14,7.07-.44.92-1.07,1.72-1.87,2.44-1,.89-1.94,1.86-2.75,3-1.48,2.13-3.89,2.87-6.29,3.03-2.35.16-4.6.59-6.86,1.14-7.48,1.79-15.09,2.6-22.75,3.1-3.85.25-7.71.79-11.56.87-8.62.2-17.23.32-25.84-.23-3.41-.22-6.85.52-10.29.34-2.5-.12-5-.05-7.5-.07-.69,0-1.38-.02-2.08.04-.56.07-1.33.07-1.31.9.02.61.63.77,1.12.91,3.61,1.12,7.24,2.24,10.86,3.33,6.86,2.04,13.46,4.81,20.15,7.32,5.33,2,10.46,4.38,15.72,6.53,1.66.68,3.25,1.57,4.78,2.53,3.71,2.31,7.67,4.32,10.98,7.16,2.46,2.1,4.78,4.36,6.95,6.82,2.42,2.73,2.76,6.24,4.69,9.04.44.66.45,1.6.21,2.27-.78,2.23.47,4,1.12,5.91.97,2.87,2.78,5.36,3.16,8.54.2,1.6,1.29,3.33,2.06,4.95.87,1.86,1.1,3.96,2.35,5.69.37.51.32,1.33.41,2.01.04.42-.15.92.01,1.26,1.78,3.61-.32,6.8-1.17,10.08-.25.99-.65,1.94-.66,2.99,0,.43.04.93-.14,1.27-2.54,4.15-1.14,8.6-1.04,12.96.05,2.59.85,5.26-.56,7.8-.39.7.04,1.65-.07,2.53-.47,3.95-2.57,7.04-5.15,9.86-1.35,1.47-2.54,2.97-2.62,5.07-.01.41-.2,1.04-.47,1.14-1.72.66-1.83,2.06-1.89,3.58-.02.41-.23.83-.44,1.2-1.69,2.77-2.34,5.8-2.33,8.99.01.25-.07.52-.14.77-.58,1.89-.83,3.81-1.09,5.78-.3,2.32-1.38,4.53-2.15,6.79-.2.57-.64,1.09-.68,1.66-.26,2.83-2.26,4.49-4.05,6.35-1.67,1.71-3.13,3.63-5.46,4.57-.34.14-.58.6-.81.97-1.58,2.53-3.09,5.03-4.08,7.92-1.25,3.6-1.41,7.25-1.71,10.96-.32,3.7-.05,7.55-1.86,11.05-.26.52-.3,1.17-.33,1.77-.19,2.77-1.61,5.11-3.23,7.05-1.64,1.94-4.26,2.58-6.93,2.59-2.9.01-5.92-.3-8.68.38-4.71,1.19-9.39,2.78-12.03,7.51-1.25,2.24-2.83,4.29-4.58,6.19-.47.52-.91,1.08-1.02,1.76-.37,2.24-2.23,3.43-3.64,4.84-.96.97-2.62.98-3.88,1.73-2.38,1.42-5.05,1.33-7.73,1.33-2.36,0-4.78-.49-7.09.37-.61.23-1.17-.05-1.77-.09-1.35-.1-2.75-.45-3.98.51-.44.33-.97.26-1.49.12-2.11-.52-3.95.35-5.3,1.68-.89.87-1.76,1.91-2.68,2.7-2.48,2.13-4.91,4.36-7.85,5.87-.31.15-.71.4-.97.3-1.8-.64-3.34.24-4.84.91-1.2.55-2.29.33-3.48.21-2.47-.25-4.89-.71-7.18-1.61-2.48-.98-5-1.76-7.65-2.05-.09-.01-.19,0-.24-.05-1.71-1.78-4.22-1.49-6.23-2.42-1.2-.55-2.35-.27-3.48-.65-3.35-1.11-6.54-2.54-9.76-3.93-2.57-1.12-5.11-2.29-7.5-3.74-.45-.26-1-.46-1.15-.97-.34-1.24-1.54-1.8-2.14-2.71-1.71-2.65-4.4-4.39-6.13-6.97-.56-.83-1.42-1.21-2.11-1.82-1.77-1.58-2.62-3.79-4.05-5.59-.22-.26-.31-.66-.54-.88-2.5-2.21-4.48-4.84-6.53-7.45-1.64-2.08-3.41-4.02-5.12-6.05-.89-1.05-1.02-2.8-2.87-3-.23-.01-.47-.47-.6-.78-.93-2.2-2.53-3.84-4.14-5.55-1.99-2.11-4.16-3.99-6.38-5.82-1.61-1.34-3.24-2.57-3.72-4.77-.25-1.14-1.2-1.88-1.89-2.75-2.27-2.87-3.6-6.2-4.96-9.54-1.42-3.47-3.28-6.74-4.78-10.19-1.16-2.67-2.42-5.28-3.38-8.04-.38-1.1-1.28-1.94-1.83-3.02-.78-1.55-1.57-3.03-1.74-4.78-.02-.24-.09-.58-.26-.71-2.75-2.18-2.33-5.79-3.79-8.55-.55-1.02-.88-2.23-1.4-3.31-2.05-4.28-3.26-8.85-4.95-13.25-1.97-5.14-3.94-10.26-5.74-15.46-.34-.98-.82-2.59-1.97-2.4-1.4.24-.75,1.89-.75,2.88,0,3.56-.71,7.04-1.23,10.5-.49,3.28-.35,6.52-.37,9.78-.01,2.14.24,4.29-.82,6.32-.36.68-.22,1.52-.12,2.3.59,4.18.75,8.32-.04,12.54-.44,2.33-.08,4.77-1.45,6.95-.4.64-.24,1.69-.16,2.54.29,3.47-.19,6.88-.88,10.26-.67,3.28-1.39,6.54-1.7,9.88-.14,1.58-.35,1.52-1.94,1.6-3.16.18-4.74-1.61-5.68-4.25-1.15-3.24-2.5-6.39-3.12-9.82-.32-1.75-1.15-3.4-1.86-5.06-.27-.64-.56-1.25-.65-1.94-.31-2.39-.84-4.72-1.7-6.98-.49-1.32-.57-2.67-.05-4.04.48-1.26.52-2.53-.26-3.72-.49-.75-.66-1.65-.65-2.47.07-4.72-1.26-9.4-.77-14.08.37-3.49-.82-6.76-.61-10.19.08-1.36-.51-2.68-.97-4-.91-2.6-1.68-5.3-1.53-8.07.13-2.34-1.31-3.84-2.35-5.57-.44-.74-1.16-.64-1.7.05-.26.34-.58.7-.68,1.1-.77,3.15-2.95,5.8-3.18,9.17-.1,1.57-.19,3.31-2.32,3.89-.69.19-.8,1.26-1.08,1.98-1.91,4.97-4.3,9.72-6.64,14.51-1.35,2.76-2.87,5.48-4.1,8.26-2.54,5.79-5.01,11.61-7.51,17.4-1.32,3.05-2.83,6.07-4.23,9.11-1.81,3.99-3.16,8.17-5.3,12.01-1.63,2.92-2.89,6.05-4.67,8.87-1.94,3.05-3.64,6.43-7.45,7.87-1.31.51-2.39,1.69-2.87,3.18-.38,1.26-1.24,2-2.49,2.36-1.43.42-2.23,1.46-2.87,2.77-.76,1.57-1.23,3.45-3.45,3.79-.68.11-.69.91-.83,1.49-.24,1.04-.75,2.06-1.68,2.5-2.56,1.22-3.73,3.66-5.37,5.69-1.15,1.42-1.79,3.28-3.82,3.88-.6.16-.71.93-.84,1.52-.31,1.44-1.22,2.56-2.32,3.34-1.38.97-2.47,2.11-3.36,3.5-.23.35-.48.74-.8,1-3.67,2.86-6.29,6.72-9.64,9.89-.19.16-.41.53-.55.49-1.97-.44-2.55,1.36-3.72,2.22-.67.49-1.49.91-2.32,1.1-1.7.4-3.3.9-4.6,2.15-.54.51-1.24.53-1.94.51-1.68-.06-3.18.46-4.6,1.31-.36.22-.75.49-1.15.58-1.8.43-3.82.11-5.25,1.7-1.7-.87-3.05.77-4.67.66-.6-.04-1.19.12-1.69.52-1.68,1.32-3.83,1.25-5.73,1.94-1,.37-2.21.2-3.21.81-.13.09-.33.19-.48.15-2.49-.55-5.01-.14-7.51-.15-.66,0-.87-.46-.88-1.04-.05-1.49-.81-1.27-1.68-.66-.5.36-.96.8-1.58.24-2.33-2.08-5.27-3.05-7.96-4.48-.68-.36-1.33-.77-1.92-1.28-1.64-1.42-3.49-2.55-5.52-3.25-1.12-.38-2.11-.93-2.71-1.78-.93-1.34-2.27-1.71-3.58-1.59-2.58.24-5.33-.23-7.65,1.59-1.24.98-2.71.53-4.29.31-2.68-.37-5.12-1.31-7.63-2.06-.43-.12-.88-.18-1.11-.57-1.22-2.13-3.5-3.6-3.94-6.22-.09-.48-.32-.8-.76-.96-.75-.27-.98-.92-1.25-1.56-1.32-3.21-3.7-5.42-6.44-7.44-2.84-2.1-5.96-3.24-9.41-3.72-.92-.14-1.79-.57-2.7-.83-.73-.21-1.49-.61-2.24-.15-1.43.85-2.65.3-3.85-.47-.89-.57-1.82-.83-2.91-.87-1.63-.03-3.06-.55-3.47-2.44-.15-.75-.77-1.07-1.37-1.43-1.34-.81-1.88-2.06-2.16-3.61-.7-3.71-1.2-7.54-1.14-11.22.08-3.94-1.3-7.58-1.25-11.45.01-1.92-1.37-3.68-2.35-5.34-2-3.4-4.88-6.12-7.96-8.58-2.58-2.05-4.46-4.51-4.85-7.91-.03-.33-.08-.72-.29-.98-1.47-1.8-1.52-4.04-2.14-6.13-.71-2.32-1.24-4.56-1.28-6.97-.02-1.11-1.17-1.86-1.34-3.03-.29-2.08-.68-4.13-.98-6.22-.05-.35-.04-.74-.36-.89-1.46-.74-1.79-2.25-2.53-3.49-.4-.67-.89-1.21-1.53-1.71-1.27-1.01-2.41-2.22-3.03-3.77-.56-1.36-1.81-2.2-2.64-3.38-1.34-1.93-1.59-3.89-1.61-6.05-.04-3.58-.27-7.17-.16-10.75.11-3.82-.69-7.5-1.21-11.23-.32-2.27-1.2-4.33-2.02-6.35-.75-1.83-1-3.69-.95-5.48.05-2.88.54-5.74,1.86-8.46,1.66-3.47,2.94-7.09,3.92-10.86.66-2.55,1.98-4.94,3.07-7.36.79-1.75,1.21-3.37.89-5.41-.27-1.82.08-3.93,1.44-5.56,1.01-1.2,1.72-2.54,2.31-4.01.81-2.03,2.47-3.52,4.12-4.88,1.6-1.32,3.14-2.67,4.65-4.08,5.28-5,11.66-8.14,18.3-10.82,11.8-4.78,23.63-9.54,35.69-13.67,6.36-2.17,12.84-3.96,19.29-5.81.92-.25,2.54-.2,2.42-1.43-.12-1.37-1.66-.61-2.57-.8-4.69-.92-9.44-.31-14.16-.82-3.57-.4-7.23-.23-10.83-.12-4.83.14-9.62.02-14.43-.45-2.04-.21-4.12-.24-6.18-.27-4.99-.08-9.92-1.01-14.9-1.2-2.83-.12-5.65-.57-8.5-.64-5.78-.15-11.45-1.3-17.2-1.88-1.95-.21-3.93-.44-5.89-.76-2.57-.42-4.62-1.8-6.14-3.86-1.47-1.98-3.34-3.59-4.42-5.97-1.02-2.26-2.13-4.47-2.94-6.84-1.25-3.67-2.99-7.13-4.83-10.55-2.14-3.95-3.57-8.21-3.65-12.75-.03-2.31.43-4.61.66-6.92.23-2.38.51-4.78.68-7.16.14-1.95-.66-3.92.16-5.85-1.05-1.38-.83-3.11-1.29-4.63-1.02-3.37-2.26-6.68-3.42-10.01-.19-.56-.53-1.2-.43-1.71.44-2.26-.46-4.43-.31-6.64.12-1.63.28-3.21.81-4.8.8-2.48,1.39-5.05.69-7.71-.14-.53-.09-1.02.16-1.49.34-.6.19-1.15-.11-1.71-1.06-1.99-1.52-4.16-1.97-6.36-.49-2.38-1.94-4.38-2.92-6.58-.44-1-1.29-1.81-1.3-3.01,0-.37-.22-.64-.56-.81-1.55-.85-2.06-2.5-2.83-3.89-2.61-4.61-3.65-9.72-4.39-14.9-.03-.24.01-.55-.11-.75-2.57-4.21-3.76-8.95-5.31-13.56-.46-1.34-1.16-2.65-1.74-3.99-1.04-2.45-1.14-5.07-1.23-7.59-.13-3.24-1.48-5.96-2.49-8.86-1.85-5.27-3.64-10.54-3.94-16.19-.43-7.58-.1-15.1,1.15-22.58.51-2.98.97-5.95,1.97-8.81.7-2.03,1.53-4.01,3.03-5.63.41-.43.75-.94,1.04-1.46,2.28-4.07,5.74-6.74,9.98-8.55C22.96.32,28.82-.14,34.8.11c1.71.08,3.39-.27,5.15-.01,13.3,1.97,26.41,4.78,39.38,8.27,14.43,3.89,28.36,9.12,41.74,15.77,13.35,6.61,26.56,13.5,39.11,21.56,4.35,2.8,8.61,5.73,12.8,8.74,6.64,4.78,13.3,9.53,19.8,14.51,6.64,5.08,12.97,10.53,19.36,15.91,10.22,8.6,20.08,17.6,29.53,27.05,6.04,6.02,11.98,12.14,17.83,18.34,6.04,6.39,11.74,13.04,17.44,19.74,5.59,6.59,10.44,13.69,15,21.01,3.46,5.56,6.67,11.27,9.74,17.05,3.25,6.13,5.49,12.63,6.99,19.38.31,1.35.54,2.68,2.27,3.06,2.01.44,3.6-.52,3.48-2.54-.1-1.53.58-2.83.68-4.29.41-6.41-.43-12.68-2.03-18.86-1.87-7.19-4.88-13.97-7.72-20.79-3.87-9.22-7.75-18.43-11.55-27.66-3.01-7.32-6.41-14.49-9.14-21.94-1.93-5.26-3.48-10.64-5.37-15.91-2.97-8.35-5.49-16.87-9.59-24.79-1.59-3.07-2.5-6.4-2.8-9.88-.29-3.44-1.04-6.81-1.76-10.18-.16-.85-.49-1.76.46-2.31,1.12-.64,2.02,0,2.72.8,1.23,1.37,1.91,3.05,2.55,4.75,1.14,3.1,1.53,6.36,1.94,9.6.55,4.38,1.56,8.61,3.02,12.78,3.76,10.83,7.3,21.72,10.96,32.58,2.01,5.96,4.73,11.64,7.14,17.45,4.86,11.69,9.62,23.42,14.52,35.09,2.64,6.29,4.97,12.66,6.87,19.21.79,2.73,1.31,5.52,1.79,8.33.21,1.3.58,2.36,2.35,1.8.88-.29,1.68.33,2.31.91.68.64,1.34,1.3,1.9,2.1.91,1.31,1.97,1.21,2.38-.29.52-1.83,1.5-3.5,1.84-5.35,1.32-6.92,4.08-13.3,7.05-19.61,4.66-9.92,10.2-19.35,15.62-28.86,8.26-14.53,16.16-29.23,21.51-45.17,2.24-6.7,5.08-13.18,7.61-19.78.68-1.77,1.26-3.57,1.76-5.39.8-2.94,2.09-5.67,3.59-8.28,1.25-2.18,2.35-4.4,2.92-6.86.26-1.15.86-2.05,1.9-2.65.86-.49,1.68-.44,2.32.35.57.7.11,1.38-.42,1.8-2.95,2.37-3.05,5.86-3.56,9.12-.53,3.45-1.33,6.83-3.16,9.77-4.43,7.07-7.36,14.81-10.17,22.57-4.72,13-10.55,25.44-17.29,37.5-3.57,6.39-7.37,12.65-10.96,19.03-3.87,6.91-7.66,13.86-10.67,21.21-1.33,3.27-2.82,6.47-3.95,9.82-.26.82-.52,1.65-.78,2.46-.84,2.45-.74,4.57,1.38,6.51,2.95,2.68,4.29,6.4,5.64,10.04.44,1.15.94,1.95,2.15,2.26.49.13.94.47,1.44.57,2.3.42,3.91,1.68,4.95,3.74.26.54.57,1.06,1.24,1.15h0Z"/>
  </g>
</svg>