<?xml version="1.0" encoding="UTF-8"?>
<svg id="Layer_2" data-name="Layer 2" xmlns="http://www.w3.org/2000/svg" viewBox="0 0 467.43 654.5">
  <defs>
    <style>
      .cls-1 {
        fill:#808080
      }
    </style>
  </defs>
  <g id="Layer_1-2" data-name="Layer 1">
    <path class="cls-1" d="m467.41,388.89c-.38-.97-4.19.8-8.23.32-1.87-.22-8.22-5.08-13.45-6.36-5.21-1.29-13.96.78-21.8,4.14-7.86,3.36-29.91,3.19-36.09,8.62-2.12-4.06-9.87-10.68-22.19-18.9-9.57-6.39-18.79-16.17-24.55-16.07-1.21-7.64-5.26-25.15-19.47-47.02-12.92-19.86-18.86-21.32-18.86-21.32,0,0-14.1-21.73-16.03-24.05-1.9-2.32-2.97-6.03-7.29-11.83-1.4-1.87-3.24-3.21-4.89-4.16.63-1.31,1.91-2.87,1.91-2.87,0,0,2.24-1.89,2.55-6.02,1.4,2.62,6.3,5.13,8.87,6.45,1.3,3.26,18.17,23.83,24.5,32.08,6.33,8.23,11.07,7.02,11.07,7.02,0,0-.15,4.24,13.79,15.4,13.94,11.16,21.42,10.45,21.42,10.45,0,0,3.23,3.06,6.25,1.65,4.6-2.13,15.42-4.36,27.12-10.61,11.73-6.27,15.35-9.82,17.4-9.88,2.05-.06,6.76,5.58,10.51,8.67,3.75,3.08,9.01,4.21,9.01,4.21,0,0,2.85,4.35,3.61,3.98.65-.31-.67-3.84-.67-3.84,0,0,4.01.21,3.83-.37-.18-.57-2.7-.43-5.25-1.75-2.55-1.34-11.19-11.17-15.25-15.37-4.04-4.21-10.92-3.3-15.05-.49-4.16,2.8-37.43,8.47-39.27,15.55-2.01-4.95-16.78-27.21-32.25-23.51-.31-5.35-4.36-11.78-13.98-23.69-8-9.89-13.86-14.34-21.21-16.53-2.87-6.67-9.9-10.4-14.27-11.35-1.34-2.68-3.78-5.19-6.04-7.14-.88-4.32-1.22-8.87-1.22-8.87,0,0,2.63-2.59,4.48-1.96,1.86.64,9.04,5.17,16.35,14.54,7.3,9.37,15.76,7.59,15.76,7.59,0,0,1.2,3.8,14.99,2.88,17.58-1.17,26.07-3.57,30.35-11.33,3.53-3.21,7.16-12.11,15.72-21.28,5.4-5.81,9.85-10.84,11.91-12.94,4.33-4.76,9.44-4.83,9.35-5.58-.12-1.64-3.86-.05-4.82-.94-.95-.91,1.08-4.51.18-4.78-.71-.21-2.47,4.92-7.8,8.18-2.12,1.28-7.29,5.49-13.3,11.38-9.17,9-18.48,22.53-18.48,22.53,0,0-9.62.82-20.53,1.24-10.68.41-15.68,2.47-15.68,2.47,0,0-5.42-6.81-17.01-13.65-11.6-6.84-15.4-8.37-15.4-8.37,0,0-3.3-7.25-6.65-10.24-1.03-.92-2.35-1.53-3.72-1.98-.3-3.42-.51-6.15-.51-6.15,0,0,3.25-1.2,7.13-1.43,3.47-.21,6.92,0,9.78-4.27.26-.4.37-.84.56-1.26,7.8,2.23,20.84,3.64,37.69,1.93,26.52-2.68,28.68-10.83,30.18-16.52,6.7-.54,13.31-5.94,22.62-27.59,10.36-24.06,3.87-29.65,3.87-29.65,0,0,9.58-4.46,12.64-22.42,4.93-28.79-14.69-49.73-43.27-67.74-20.68-13.02-48.21-20.74-49.47-17.28-.62,1.73,8.25,3.64,18.95,12.93,9.35,8.12,15.52,14.75,19.17,22.78-.83,1.74-3.34,2.22-6.83.15-12.23-7.28-38.76-14.67-39.49-11.62-.43,1.78,10.93,4.86,22.52,13,13.86,9.74,21.68,16.54,25.29,32.19-.27,2.08-.49,4.24-.59,6.57-.93,24.81,20.66,31.84,20.66,31.84,0,0-5.15,7.41-9.26,18.24-3.95,10.35-9.95,27.29-7.66,29.48-7.66-2.12-14.95-2.38-22.52-1.65-8.79.83-25.41,4-32.8,6.91-2.14.85-4.14,1.85-5.86,3.01-4-2.95-9.86-4.35-16.15-2.48-5.44,1.59-7.74,7.74-7.74,7.74,0,0-5.71-2.45-11.41-3.06-3.48-.37-8.47.66-11.37.66s-5.8-.91-9.31-.76c-4.92.22-9.17.62-9.17.62-4.97-7.27-11.55-6.66-17.2-2.74-.89-3.41-4.21-6.58-8.08-9.21-6.55-4.48-22.05-11.28-30.43-14.05-7.22-2.4-14.4-3.75-22.34-3.4,2.72-1.63,3.45-18.32,3.57-29.4.13-11.58-1.93-20.36-1.93-20.36,0,0,20.37,9.49,34.31-11.03.69-1.03,1.28-2.02,1.87-3.03,11.26-11.42,21.47-13.13,38.36-14.18,14.14-.9,25.43,2.43,26.02.67.94-2.96-25.53-10.12-39.76-10.75-3.77-.16-4.67-1.36-4.62-2.54,6.43-3.08,15.52-3.74,28.7-.47,12.84,3.19,19.78,9.43,21.13,8.18,1.81-1.68-10.91-22.31-45.83-30.59-30.1-7.14-61.34,2.01-74.45,28.09-8.19,16.3-4.58,27.8-4.58,27.8,0,0-8.08,2.82-7.26,29,.75,23.54,5.49,33.07,11.91,35.08.17,5.89.47,14.31,25.75,22.82,18.48,6.24,32.95,7.3,40.47,6.17-1.45,5.16,1.12,10.12,3.72,11.94,5.19,3.67,12.23,3.67,12.23,3.67,0,0-.92,1.84-1.82,4.92-2.17.79-4.99,2.1-6.55,4.15-2.71,3.6-4.55,11.34-4.55,11.34,0,0-3.18,1.4-14.89,8.04-11.71,6.63-17.24,13.33-17.24,13.33,0,0-1.25-3.67-10.48-10.2-8.9-6.29-17.81-11.4-17.81-11.4,0,0-8.18-13.34-17.12-22.55-5.86-6.03-10.94-10.38-13.01-11.7-5.28-3.4-6.87-8.57-7.63-8.37-.89.25,1.07,3.91.08,4.79-.99.87-4.7-.81-4.87.82-.06.75,5.03.95,9.23,5.8,2.02,2.15,6.34,7.3,11.61,13.23,8.35,9.38,13.76,16.61,15.3,21.11.03,8.86,5.8,13.59,20.67,23.07,11.65,7.44,15.79,3.61,15.79,3.61,0,0,8.43,1.92,15.91-7.3,7.48-9.24,15.89-13.71,17.61-14.66.93-.55,2.28-.17,3.31.28-.32,1.38-.66,2.78-1,4.19-2.33,2.29-6.12,6.39-7.51,10.53-4.2,1.53-10.67,6.16-12.64,13.15-6.96,3.16-12.61,5.9-21,15.44-10.1,11.51-14.44,17.75-14.96,23.08-15.31-4.34-31.01,18.07-32.9,23.08-5.64-5.34-38.39-1.69-43.17-3.2-4.79-1.46-11.62-.34-14.28,4.84-2.66,5.19-8.08,17.11-10.14,19.12-2.05,2.02-4.52,2.61-4.52,3.21s3.78-.78,3.78-.78c0,0-.25,3.77.47,3.89.81.11,2.29-4.87,2.29-4.87,0,0,4.71-2.6,7.39-6.64,2.7-4.05,5.56-10.81,7.55-11.35,1.98-.53,6.48,1.83,19.5,4.43,13.03,2.59,22.01,3.47,27.04,3.07,4.19-.34,6.5-3.55,6.5-3.55,0,0,7.51.51,21.16-10.98,13.66-11.51,14.27-14.15,14.27-14.15,0,0,4.69,1.4,11.36-6.56,6.66-7.96,25.3-28.48,26.15-31.89,2.38-1.67,6.9-4.79,7.93-7.56-.38,3.36.93,5.68,2.01,6.98.08.53.17,1,.23,1.44-1.32.8-2.7,1.82-3.8,3.16-4.67,5.56-5.93,9.2-7.97,11.41-2.05,2.2-17.37,23.09-17.37,23.09,0,0-6.01,1.13-20.05,20.24-15.43,21.02-20.45,38.26-22.1,45.83-5.74-.43-15.48,11.26-24.54,18.39-11.64,9.16-18.85,16.34-20.64,20.56-6.58-4.91-28.05-4.57-35.99-7.76-7.95-3.16-16.72-5.02-21.91-3.61-5.19,1.41-11.42,6.41-13.28,6.67-4.01.58-7.87-1.08-8.24-.13-.37.99,4.96,2.49,4.96,2.49,0,0-2.22,4.58-1.28,5.16.95.55,5.36-2.42,6.43-3.9,2.84.26,8.74-1.65,13.28-5.43,3.34-.07,15.69,5.07,21.38,8.09,5.68,2.99,27.82,10.54,38.27,7.6,4.19.35,8.73-2.34,26.45-18.1,17.7-15.75,17.71-20.06,17.71-20.06,0,0,5.89-4.97,10.06-7.81,4.17-2.85,5.95-2.45,8.7-13.11,2.64-10.29,26.09-41.21,27.16-48.9,5.03-10.93,13.55-18.67,19.82-22.79-.29,2.98-.27,5.54.43,6.91-.89,1.46-2.18,5.21-3.22,9.33-2.93,1.59-6.5,4.31-9.35,8.96-5.96,9.66-7.14,18.37-7.14,18.37,0,0-6.81,10.15-7.74,25.7-.9,15.57-1.9,41.51-2.37,53.13-.45,11.59,1.28,37.97,1.28,37.97,0,0-12.14,4.65-25.71,15.52-13.56,10.83-20.33,18.38-20.33,18.38,0,0-28.11,4.53-42.27,6.94-14.16,2.39-28.59,3.74-30.35,5.04-1.77,1.31-5.23,7.39-8.48,10.6-3.25,3.22-6.8,5.86-8.96,5.56-2.17-.29-6.53-2.65-7.14-.92-.41,1.16,5,3.25,5,3.25,0,0-1.97,4.16-1.3,5.05.66.89,2.72-.81,3.92-2.83,7.37,1.17,16.95-10.65,19.25-15.32,5.14-2.07,10.59,2.14,22.64,2.07,7.67-.04,34.44-12.63,46.15-9.49,8.45,2.26,28.78-10.17,39.55-19.88,10.73-9.71,23.72-25.95,24.94-30.04,1.22-4.09-1.96-32.62-2.31-44.01-.45-14.5-.16-43.43,3.54-60,1.07-.06,2.15-.33,3.18-.71,0,3.09.19,5.79.7,7.48-2.86,11.41-4.47,26.9-2.03,34.62-2.44,12.23.86,28.95,6.12,35.46,2.45,12.42,5.83,28.5,9.51,34.43,5.65,9.11,11.54,18.64,18.49,24.54-10.34,6.2-12.54,21.05-13.12,36.03-.99,24.84,3.14,27.71,3.14,27.71,0,0-2.22,2.7-4.03,21.25-2.53,25.85,2.93,25.37,2.93,25.37,0,0-9.41,4.36-16.93,16.45-10.5,16.89-4.86,24.29-4.86,24.29,0,0-4.33-2.89-20.14.41-14.02,2.91-17.22,5.26-17.22,5.26,0,0-12.03-13.99-24.69-17.83-13.71-4.18-30.58-2.87-30.58-2.87,0,0,3.84-15.44-10.57-38.82-11.95-19.4-31.52-28.63-31.94-26.62-.14.73,18.06,11.5,14.83,28.26-13.58,19.27-13.86,33.06-8.46,42.49,7.46,13.05,16.16,15.65,25.94,14.13.55,5.91,6.81,16.53,17.84,23.56,10.53,6.68,23.89,9.83,32.56,8.84,5.04,7.69,27.9,8.56,41.04,5.5,22.49-5.25,33.9-21.68,33.9-21.68,0,0,11.87-6.32,21.52-19.42,8.32-11.29,8.61-35.36,8.61-35.36,0,0,9.55-6.68,11.75-26.13,2.4-21.26-.83-24.47-.83-24.47,0,0,3.65-4.72,6.27-23.85,2.11-15.57,1.71-33.79-10.11-41.63,7.14-5.6,12.78-15.01,17.23-22.92,7.39-13.12,9.87-28.17,11.36-37.75,5.66-4.47,8.25-26.89,7.44-34.63,4.07-5.27,1.22-27.28,0-34.62,1.09-1.89,1.58-4.82,1.65-8.32,1.4.7,3.01,1.35,4.62,1.5,3.04,16.7,2.24,45.63,1.21,60.11-.79,11.37-5.08,39.75-4.03,43.88,1.09,4.13,14.82,20.47,26.28,29.33,11.46,8.88,32.69,19.71,40.95,16.82,11.43-4.04,30.16,16.89,37.76,18.1,11.89,1.91,17.91-1.44,22.66,1.38,1.59,4.99,9.26,18.13,16.72,18.1.89,2.15,2.68,4.14,3.46,3.36.78-.78-.53-5.19-.53-5.19,0,0,5.67-1.24,5.43-2.44-.34-1.79-4.99-.12-7.17-.16-2.2-.05-5.28-3.19-8.02-6.86-2.74-3.68-5.23-10.19-6.79-11.76-1.55-1.57-15.6-5.07-29.24-9.59-13.63-4.53-36.57-14.72-36.57-14.72,0,0-7.34-7.03-21.69-16.79-14.35-9.77-26.58-12.84-26.58-12.84,0,0,2.75-26.28,2.75-37.89s0-37.58-.31-53.17c-.31-15.57-6.73-25.95-6.73-25.95,0,0-.86-8.75-6.41-18.64-3.17-5.62-7.41-8.57-10.46-10.1-.64-4.54-1.4-8.24-1.4-8.24.31-1.35.39-2.81.39-4.32,5.67,4.71,12.4,12.28,16.29,22.16.61,7.74,22.28,39.93,24.34,50.35,2.14,10.8,3.96,10.52,7.95,13.6,3.99,3.07,9.58,8.36,9.58,8.36,0,0,.36,4.31,19.23,18.62,18.89,14.32,23.64,16.64,27.79,15.95,10.66,2.13,32.25-5.53,37.88-8.68,5.64-3.14,17.87-8.58,21.18-8.6,4.64,3.69,10.57,5.46,13.4,5.14,1.12,1.44,5.61,4.32,6.53,3.72.92-.58-1.39-5.12-1.39-5.12,0,0,5.28-1.63,4.89-2.59"/>
  </g>
</svg>