<?xml version="1.0" encoding="UTF-8"?>
<svg id="Layer_2" data-name="Layer 2" xmlns="http://www.w3.org/2000/svg" viewBox="0 0 654.5 501.41">
  <defs>
    <style>
      .cls-1 {
        fill:#808080
      }
    </style>
  </defs>
  <g id="Layer_1-2" data-name="Layer 1">
    <path class="cls-1" d="m104.53,500.3c.24-3.07,1.72-5.92,4.09-7.89,11.38-10.58,11.88-10.88,4.39-24.16-8.89-15.97-18.17-31.75-28.35-46.92-3.3-4.3-3.3-10.28,0-14.58,11.08-22.46,29.95-38.04,46.32-56.21,4.23-4.54,10.28-6.92,16.47-6.49h29.95c-16.71-17.74-35.67-33.21-56.41-46.02-21,19.44-44.5,36-69.88,49.22-5.66,2.52-9.05,8.41-8.39,14.58-.7,15.87-2.1,31.65-2.99,47.52-.36,7.31-1.46,14.57-3.29,21.66-1.8,7.09-4.89,12.48-12.58,13.78s-13.88,10.58-23.86,6.79c0-6.89,5.6-12.47,12.49-12.47.5,0,.99.03,1.49.09,13.08,0,16.27-7.79,17.37-18.47,1.75-19.46,1.75-39.04,0-58.5-1.86-12.29,3.07-24.62,12.88-32.25,18.13-14.47,37.13-27.81,56.9-39.93,12.96-8.79,29.97-8.79,42.93,0,2.99,2,6.39,3.39,9.98,5.29,3.29-5.99,0-9.98-2.99-13.48-9.6-13.76-17.42-28.69-23.26-44.43-12.91-25.67-19.25-54.14-18.47-82.86-.8-10.93-.8-21.91,0-32.85,1.7-8.29,1.3-17.17,9.98-22.66,2.37-2.02,3.57-5.09,3.19-8.19,0-32.25,19.97-47.72,47.62-56.71,2.99-.9,5.09-1.3,6.89-4.49,9.98-18.07,28.35-22.76,46.02-25.56,8.59-1.4,17.67-2.5,26.56-3.49,17.01-1.96,34.23.62,49.92,7.49,15.34,5.88,29.31,14.85,41.03,26.36,12.7,12.23,21.51,27.92,25.36,45.12,1.8,8.98,9.18,16.37,11.38,26.06,3.15,10.15.06,21.2-7.89,28.25-8.69,7.79-18.27,4.49-27.35,0-2.83-1.18-5.46-2.8-7.79-4.79-11.08-10.58-22.66-13.18-35.74-1.6,4.79-13.78,15.47-16.77,27.05-18.47,8.58.24,16.81-3.43,22.36-9.98,3.09-4.69,4.09-8.09-1.1-12.28-7.69-7.82-16.43-14.54-25.96-19.97-9.2-4.92-17-12.1-22.66-20.87-4.89-6.39-8.98-11.18-17.97-7.59-3.51,1.1-7.27,1.1-10.78,0-16.07-4.49-30.05-7.29-41.83,6.59-3.91,3.19-9.11,4.3-13.98,2.99-8.2-2.95-17.23,1.31-20.18,9.51-.24.68-.44,1.37-.59,2.07-4.13,10.38-13.28,17.91-24.26,19.97-9.15,1.58-17.61,5.9-24.26,12.38,7.92.55,13.89,7.42,13.34,15.34-.09,1.27-.35,2.53-.76,3.73-1.7,8.39-3.79,16.57-5.89,25.36,5.19,3.19,12.98,2.99,16.87,9.08,10.68,16.47,28.85,25.76,39.93,41.93.7,1,1.2,2.6,2.1,2.9,16.77,5.39,26.86,19.97,41.43,28.75,6.22,2.64,11.75,6.67,16.17,11.78,13.78,20.67,37.64,28.15,54.81,44.03,5.69-1.5,3.19-5.99,4.29-8.98,2.3-6.29,6.29-7.29,11.08-2.99,13.18,11.68,29.95,18.87,40.53,33.74,2.48,2.67,5.42,4.87,8.69,6.49,5.51,2.54,10.73,5.65,15.57,9.28,27.15,26.86,61.4,23.36,95.24,25.46,22.56,1.4,46.82-2.4,67.29,12.18,3.31,3.01,8.37,3.01,11.68,0,6.89-5.49,13.68-2.2,20.67,0,19.47,7.09,36.94,18.67,57.1,24.36-14.18,1.7-27.95-5.19-43.73,0,11.38,14.88,27.05,7.89,41.73,10.68-9.15,10.08-23.59,13.42-36.24,8.39-14.18-4.59-29.95-4.99-42.03-16.27-2.7-2.5-8.19-1.7-12.18-2.99-11.85-2.86-23.33-7.05-34.24-12.48-17.87-11.18-36.14-5.99-55.31-6.89,7.79,15.47,42.13,32.15,68.29,33.74-1.43,4.17-5.61,6.76-9.98,6.19-16.59.39-32.89-4.31-46.72-13.48-7.53-3.96-14.8-8.4-21.76-13.28-8.79-6.59-16.27-9.98-26.56-1.5-6.39,5.49-14.88,2.4-22.66-.7-7.79-3.09-13.08-4.09-11.88,7.79.39,7.05-5.01,13.07-12.05,13.46-.11,0-.22.01-.32.01-15.97,2.7-29.95,11.68-47.52,12.78,11.28,7.69,20.28,18.28,26.06,30.65,14.07-13.12,31.25-22.43,49.92-27.05,18.07-4.79,35.94-9.98,54.71-14.28-6.99,4.49-13.78,9.38-20.96,13.58-11.4,7.11-21.53,16.09-29.95,26.56-7.09,8.39-5.49,14.38,4.99,17.27,10.02,2.88,20.53,3.62,30.85,2.2l36.54-4.99c-23.02,10.37-48.34,14.6-73.48,12.28-5.28-1.33-10.77-1.67-16.17-1-33.64,6.19-59.2-7.59-79.87-33.34-7.59-9.98-15.47-19.97-1.6-32.65-15.97.5-16.07.5-15.77,11.78-1.21,10.78-1.21,21.66,0,32.45,2.4,8.59,15.57,13.88,23.06,21.56,9.47,11.84,23.12,19.59,38.14,21.66-6.36,4.78-15.11,4.78-21.46,0-10.58-5.99-20.96-12.38-31.85-17.97-15.22-7.2-24.28-23.18-22.66-39.93-.1-8.57.3-17.14,1.2-25.66,1.2-9.38-2.99-11.08-11.38-11.28-12.75,1.04-25.39,3.04-37.84,5.99-3.68.33-6.39,3.59-6.06,7.26.02.17.04.35.07.52.34,9.2-2.88,18.17-8.98,25.06-5.89,6.39-3.19,9.98,2.1,14.88,13.27,10.74,27.83,19.79,43.33,26.95,7.68,3.87,13.99,10,18.07,17.57,2.22,3.97,1.48,8.93-1.8,12.08-5.69-21.96-25.26-23.86-41.13-30.95-9.15-3.38-17.86-7.83-25.96-13.28-15.37-11.88-18.67-21.06-12.48-39.93,2.74-10.09,8.23-19.22,15.87-26.36,3.4-3.38,6.54-7.02,9.38-10.88-24.44-9.78-50.95-13.21-77.07-9.98-2.96.78-5.96,1.38-8.98,1.8-8.19-.7-11.18,2.9-13.58,10.68-5.6,13.63-14.52,25.64-25.96,34.94-11.58,11.38-11.68,11.28-4.69,26.36,5.89,12.68,12.18,25.26,17.67,38.14,3.24,6.85,2.19,14.97-2.7,20.77-4.29,4.79-8.09,10.68-16.37,7.09Zm262.86-197.37c-8.29-8.39-14.38-19.37-27.05-24.26,1.6,15.57,2.6,16.57,27.05,24.26Z"/>
  </g>
</svg>