<?xml version="1.0" encoding="UTF-8"?>
<svg id="Layer_2" data-name="Layer 2" xmlns="http://www.w3.org/2000/svg" viewBox="0 0 592.43 654.5">
  <defs>
    <style>
      .cls-1 {
        fill:#808080
      }
    </style>
  </defs>
  <g id="Layer_1-2" data-name="Layer 1">
    <path class="cls-1" d="m217.1,422.52c-29.68,5.55-35.79,16.08-25.26,40.55,4.87,11.33,9.63,22.65,13.59,33.98,5.12,11.25,3.74,24.39-3.62,34.32-4.99,6.2-8.3,13.57-9.63,21.41-4.19,32.96-29,51.42-49.72,72.94-.99,1.03-2.09,1.94-3.28,2.72-9.4,6-20.95,7.82-26.62-1.59-5.66-9.4,6.57-13.14,13.37-16.2,33.98-16.31,50.63-44.63,57.77-80.31,3.14-12.55,2.31-25.77-2.38-37.83-3.43-8.68-6.3-17.57-8.61-26.62-10.08-37.15-7.7-42.36,24.35-61.84,26.8-14.16,48.94-35.75,63.77-62.18,11.33-21.52,8.61-25.03-13.82-30.47-32.73-7.93-32.51-7.82-50.63,20.28-49.54,76.57-99.07,153.03-148.61,229.37-4.31,6.59-9.12,12.84-14.39,18.69-6.68,7.36-14.16,17.56-24.92,13.14-10.76-4.42-8.83-17.22-7.14-26.84,4.78-24.58,10.98-48.86,18.58-72.72,18.58-66.49,66.15-113.27,108.06-163.45,27.07-32.51,53.46-65.58,80.31-98.2,5.61-6.49,9.5-14.27,11.33-22.65,3.89-19.79,11.58-38.64,22.65-55.5,4.3-5.61,4.79-13.26,1.25-19.37-13.59-30.92-9.29-39.53,25.71-50.86C217.78,57.57,170.32,29.02,115.84,7.16c11.54-9.2,27.81-9.57,39.76-.91,32.5,21.42,66.58,40.36,101.94,56.63,23.88,10.54,51.1,10.54,74.98,0,27.51-10.98,53.29-25.86,76.57-44.17,16.76-13.82,36.02-15.52,55.84-18.01-40.55,22.65-75.44,54.14-118.82,71.47-11.33,4.42-10.19,8.95-3.51,16.76,13.08,12.6,14.21,33.16,2.61,47.12-3.17,4.19-6.12,8.61-1.93,13.48,31.04,35.34,35.79,84.72,67.96,120.52,32.17,35.79,55.73,75.66,89.71,109.42,46.01,44.01,76.8,101.54,87.9,164.24,2.49,15.06,9.4,36.02-7.02,43.38-16.42,7.36-26.62-12.69-34.66-25.03-53.92-82.8-112.14-162.99-160.16-249.19-8.5-15.4-16.2-20.39-29.56-7.48-9.97,9.51-32.73,10.65-30.92,25.15,3.23,22.31,16.34,41.99,35.68,53.58,15.05,8.15,29.57,17.23,43.49,27.18,12.12,8.46,17.94,23.4,14.72,37.83-3.28,16.2-4.98,32.62-9.06,48.48-10.54,47.14,14.03,95.09,58.45,114.06,6.34,2.49,19.6,2.72,14.5,12.57-5.47,8.53-16.82,11.01-25.35,5.53-.43-.28-.86-.57-1.26-.89-23.33-19.14-46.33-39.19-58.45-67.96-4.64-11.33-7.7-22.65-13.37-33.98-6.8-13.14-1.36-26.5,4.98-38.96,7.66-12.17,12.6-25.85,14.5-40.1.91-15.97-10.19-21.86-22.65-22.65-15.86-.79-9.85,12.57-10.08,20.5-.79,24.35-1.02,48.82-.68,73.17.68,49.27-23.22,87.67-54.37,122.56-15.86,17.78-23.67,16.99-40.89,0-34.36-30.22-54.83-73.21-56.63-118.93-2.65-33.27-3.64-66.65-2.94-100.02Z"/>
  </g>
</svg>