<?xml version="1.0" encoding="UTF-8"?>
<svg id="Layer_2" data-name="Layer 2" xmlns="http://www.w3.org/2000/svg" viewBox="0 0 654.5 394.77">
  <defs>
    <style>
      .cls-1 {
        fill:#808080
      }
    </style>
  </defs>
  <g id="Layer_1-2" data-name="Layer 1">
    <path class="cls-1" d="m2.86,27.77c8.19,6.24,22.19,28.01,28.02,33.02,6.63,5.68,15.58,12.39,27.28,18.3,11.7,5.9,40.34,21.67,43.54,21.79,3.62.15,14.36-3.23,41.73-4.74,11.85-.61,25.76,2.53,32.8-.22,1.14-.44,4.27-2.23,8.76-4.94,1.56.22,2.51.35,2.51.35,0,0,5.93,1.14,10.54-.99,1.32-.64,10.16-6.17,22.4-13.72,9.34,6.41,35.18,15.06,57.7,19.23,36.34,6.78,84.46,6.96,84.46,6.96,0,0,.14.23.36.52-7.84,20.52-16.79,43.67-21.13,54.03-8.71,20.7-29.02,53.53-29.5,61.14-.31,4.72,1.68,6.59,3.16,15.02,2.22,12.61.19,64.98-2.11,81.92-.45,3.36-9.35,13.23-17.08,26.15-5.88,9.78-26.11,34.08-29.17,39.8-2.85,5.37-.48,13.9,1.45,13.35,2.38-.63-2.52-2.1,2.47-11.42,6.3-11.76,16.81-24.15,23.79-33.66,11.54-15.78,22.07-26.75,22.46-30.95,1.37-14.44,7.96-88.79,3.88-100.42,9.18-30.35,35.27-82.64,43.6-96.4,1.6-2.66,3.47-6.24,5.43-10.26,4.97,4.85,12.19,10.54,21.19,13.77,10.62,3.8,24.97,1.91,35.37-.43-1.03,22.6-8.01,58.99-5.82,66.15,1.41,4.52,8.27,6.32,15.99,10.06,11.51,5.57,34.91,21.34,48.39,31.89,10.54,8.22,10.61,12.76,25.63,11.46.8-.07,1.68-.13,2.59-.21,4.91,11.26,9.46,21.99,10.73,25.97,3.11,9.79,22.8,32.87,27.7,40.34,2.61,3.96,9.15,15.31,15.44,20.25,6.29,4.94,11.39,9.94,14.17,9.45,2.77-.52-5.32-6.26-11.41-12.93-6.55-7.17-9.11-11.21-18.64-24.35-9.79-13.49-21.74-30.21-21.74-30.21,0,0-5.45-13.32-12.1-28.82,12.45-.9,30.45-1.91,35.79-2.65,2.26-.32,4.08-.91,5.39-1.58,2.04,2.28,3.69,4.19,4.59,5.36,6.21,8.16,39.37,27.54,43.69,29.45,4.31,1.94,17.88,11.83,25.77,13.15,7.88,1.26,19.11,4.41,21.29,2.63,2.18-1.8-9.53-4.99-18.37-6.87-8.85-1.89-20.49-8.51-34.43-16.83-14.83-8.85-32.57-21.98-32.57-21.98,0,0-36.69-40.96-51.42-53.95-9.98-15.56-9.96-30.94-11.08-39.57-.24-1.8-.72-5.74-1.41-10.92.29-5.5.51-11.06.53-16.32,16.51,3.26,35.15,5.75,45.3,7.87,3.23-.17,3.38-1.61,3.38-1.61,0,0-.64-1.41-2.32-1.4-9.04.14-23.77-2.59-31.94-3.93-5.6-.91-10.34-1.88-14.41-2.86-.03-7.66-.52-14.35-1.81-18.68,1.76-.62,3.53-1.2,5.29-1.9,2.29.11,5.2.91,8.66,3.49-2.69-1.95-5.17-3.58-6.31-4.35,3.34-1.35,6.67-2.88,9.94-4.52,2.12.17,4.73.93,7.87,2.88-2.53-1.6-4.85-3.04-6.14-3.79,2.8-1.45,5.55-2.98,8.28-4.62,1.34-.08,2.97.06,4.9.68-1.56-.63-2.85-1.13-3.67-1.43,1.76-1.1,3.5-2.23,5.2-3.38,1.45-.2,3.29-.1,5.55.6-1.91-.75-3.45-1.34-4.16-1.63,1.6-1.13,3.22-2.25,4.76-3.46,2-.33,4.93-.29,9.03,1.37-3.09-1.32-5.94-2.41-7.17-2.87,1.4-1.15,2.71-2.26,3.94-3.27,2.02-.49,4.94-.6,9.02.74-3.07-1.04-5.88-1.9-7.21-2.29,1.17-1.02,2.22-1.97,3.22-2.91,2.07-.64,4.96-.91,8.95-.17-3.03-.68-5.78-1.22-7.21-1.49,1.13-1.09,2.09-2.08,2.96-3.01,2.02-.8,4.85-1.35,8.88-1-3.03-.4-5.79-.64-7.26-.8,4.5-5.21,4.64-7.33,4.64-7.33,0,0-2.23,2.53-5.56,5.81.28-1.07.42-2.42.18-3.88-.41,2.1-1.12,4-1.87,5.53-1.19,1.13-2.47,2.29-3.81,3.5.41-1.13.76-2.46.66-4.03-.66,2.25-1.65,4.16-2.62,5.66-1.2.99-2.42,1.96-3.67,2.86.49-1.19,1.14-3.23,1.09-5.38-.64,2.76-1.61,4.89-2.47,6.36-1.58,1.14-3.17,2.24-4.75,3.31.31-.97.69-2.57.52-4.93-.22,2.51-.99,4.35-1.86,5.8-1.5,1.01-3.02,1.95-4.52,2.87.3-.93.68-2.56.46-5.01-.18,2.49-.9,4.35-1.73,5.76-2.37,1.46-4.74,2.82-7.06,4.07.32-.89.75-2.57.56-5.09-.41,2.6-1.19,4.45-2.03,5.86-2.8,1.47-5.59,2.82-8.33,3.99.44-.91.91-2.13,1.19-3.87-.74,1.87-1.58,3.3-2.42,4.39-2.84,1.18-5.65,2.22-8.41,3.11-.16-.04-.31-.08-.47-.14.59-.82,1.37-2.14,1.93-4.29-.91,1.76-1.85,3.07-2.78,4.05-1.32-.37-2.4-.68-3.07-.85,2.73-2.35,5.39-4.85,8-7.45,2.06-.49,4.77-.6,8.36.25-2.9-.75-5.55-1.33-7.01-1.67,2.19-2.23,4.31-4.58,6.36-6.98,1.26-.53,2.84-.91,4.87-.94-1.66-.09-3.06-.17-3.94-.21,1.51-1.78,2.97-3.64,4.36-5.55,1.34-.73,3.27-1.32,5.88-1.37-2.34-.14-4.14-.21-4.74-.21.95-1.33,1.95-2.67,2.85-4.03.11-.17.21-.32.31-.49,1.74-1.07,4.68-2.1,9.53-1.84-3.74-.29-7.04-.41-8.07-.46,1.1-1.75,2.14-3.43,3.05-4.97,1.75-1.14,4.54-2.25,9.01-2.3-3.4,0-6.48.08-7.77.14.95-1.67,1.78-3.19,2.49-4.61,1.77-1.3,4.47-2.55,8.63-3.15-3.23.33-6.14.72-7.52.92,4.37-9.15,3.6-11.87,3.6-11.87,0,0-2.3,5.43-5.72,11.62.1-1.26.02-2.85-.66-4.5.11,2.87-.43,5.47-1,7.38-.85,1.41-1.75,2.85-2.69,4.23.07-1.3.06-3.45-.68-5.46.29,2.88,0,5.24-.33,6.92-1.13,1.54-2.24,3.04-3.35,4.54.05-.83,0-2.78-1.08-5.4.7,2.96.38,5.28-.19,7.03-1.03,1.32-2.07,2.65-3.11,3.89.06-.55.15-2.59-1.14-5.59.75,2.98.47,5.3-.07,7.04-2.03,2.4-4.05,4.7-6.08,6.85.02-.94-.11-2.65-1.08-5,.41,2.59.27,4.6-.08,6.19-2.2,2.3-4.4,4.46-6.63,6.44.14-.99.19-2.31-.09-4.02-.1,2.02-.46,3.58-.91,4.9-2.38,2.09-4.75,4-7.14,5.76-.16.12-.32.19-.47.33.33-.88.79-2.55.62-5.14-.45,2.86-1.26,4.85-2.13,6.24-.84.57-1.54,1.05-2.34,1.59-2.21-8.66-4.7-15.57-7.43-18.12-5.71-5.39-39.44,12.59-42.28,14.13-3.06-4.15-6.52-7.8-10.53-10.92,2.26-12.12,2.53-12.62,2.2-17.46-1.47-22.25-18.08-2.49-23.42,3.46-.91,1.02-1.82,2.09-2.73,3.13-.75-.17-1.45-.39-2.22-.55-3.04-.58-6.07-.93-8.96-1.06-.75-1.29-1.51-2.61-2.29-3.91-8.05-13.59-19.78-12.75-21.48,2.95,0,0-.39,1-1.05,2.75-6.17-1.99-27.07-8.73-47.01-14.64-1.09-7.34-4.43-27.29-9.12-31.17-5.78-4.76-15.48-.34-21.44,2.63-.12.06-.32.17-.5.27-3.71-.64-8.69.23-8.69.23,0,0-9.14,5.65-20.57,12.57-31.1-6.97-65.94-13.33-69.25-7.98-3.38,5.42,21.4,11.4,21.4,11.4,0,0-44.35-8.95-40.42-.64,2.92,6.16,27.41,16.64,50.63,19.55-.59.33-1.14.62-1.64.91-10.05,5.43-28.24,16.21-42.95,23.86-19.12-2.08-43.04-2.4-66.82-9.28-14.22-4.12-48.19-18.86-48.19-18.86,0,0-6.04-3.4-19.83-18.82C37.52,21.45,25.39,1.78,22.35.83c-2.13-.68-6.93-1.8-5.4.83,2.18,3.68,40.03,45.98,46.88,54.03,11.66,9.44,46.62,21.07,63.91,25.65,9.4,2.49,34.41,6.33,48.93,8.44-3.47,1.57-6.42,2.72-8.58,3.25-14.64.97-42.24-2.37-66.17,3.43-23.3-7.18-61.85-32.77-67.37-38.62-5.53-5.85-13.08-15.83-19.07-23.61-4.66-6.03-9.1-13.19-14.44-12.93-1.75.07-1.37,4.04,1.83,6.48m422.87,41.78s.05.92.14,2.47c-.43-.17-.86-.37-1.3-.56.69-1.32,1.16-1.91,1.16-1.91m57.73,39.75c.6-.32,1.21-.72,1.81-1.08,1.77-.33,3.6-.74,5.42-1.18,1.6.08,3.07.25,4.38.5.93,3.93,1.82,8.08,2.69,12.34-7.99-2.52-11.81-4.83-13.51-6.11.21-.99-.02-2.53-.79-4.47m3.89-25.25c1.62,2.83,3.23,7.17,4.78,12.36-6.78-1.1-15.51-1.48-22.69-1.57-.22-.12-.48-.2-.72-.33,5.43-4.9,13.09-10.72,18.63-10.46m21.09,11.69s.08-.12.12-.14c.11,0,.21,0,.31.02-.14.04-.29.09-.43.12m-1.77.56c-2.49.77-4.78,1.41-6.92,1.98,1.02-.81,2.07-1.58,3.09-2.42,1.27-.35,2.85-.52,4.71-.38-.3.31-.6.6-.88.83m9.73,144.66c-6.33-14.67-13.46-30.58-17.9-38.64-.25-10.88,4.6-34.87,5.24-43.55.06-.7.11-1.43.16-2.15,1.15,8.38,1.85,14.71,1.9,16.88.21,8.06,2.45,18.81,3.72,19.78,2.48,1.91,9.88,4.66,9.88,4.66,0,0,23.56,24.3,36.56,38.56-2.3.6-5.55,1.45-10.53,2.15-13.23,1.78-15.25,2.42-27.08,2.35-.69,0-1.3-.02-1.95-.03m-85.45-116.98c5.59-1.45,9.33-2.8,9.33-2.8,0,0,19.2,7.25,28.67,2.74,6.13-2.89,9.66-4.65,12.02-6.43,4.48,1.79,10.52,3.44,17.28,4.93.8,4.15,1.57,8.38,2.27,12.48.12,12.71-.87,26.13-2.33,37.07-1.5,11.28-6.31,26.84-6.13,28.4.35,3.11,6.64,10.62,6.64,10.62,0,0,6.74,14.86,13.35,29.9-12.63-.41-11.35-2.12-21.84-9.26-11.99-8.19-53.12-34.43-61.07-43.9-1.18-17.11,0-42.01,1.8-63.74m-195.67-63.62c1,.1,2.03.2,3.02.25.27,0,.56.03.83.07-3.44,1.99-6.86,3.94-10.23,5.83-2.22.3-4.05.66-5.59,1.03,3.94-2.37,7.94-4.78,11.97-7.19m48-26.31c-2.49,1.53-5.2,3.19-8.08,4.97-.5-.11-.98-.23-1.48-.34,3.44-1.74,6.64-3.33,9.56-4.63m16.14,10.82c-5.28-1.33-11.38-2.83-17.87-4.35,4.89-2.67,9.49-5.06,13.62-7.1,2.83,2.89,3.94,7.31,4.25,11.46m13.36,3.5c-.74-.21-1.56-.44-2.42-.64-1.68-6.28-4.01-13.78-6.48-18.3,3.96-1.63,7.04-2.57,8.93-2.58,3.19,4.35.86,17.26-.03,21.52m-74.37,17.26c2.41-1.46,4.84-2.93,7.32-4.4,13.22,1.33,28.41,3.96,28.41,3.96,0,0-18.5-.63-34.61.35-.4.05-.73.06-1.12.09m-36.1,14.76c4.62-2.84,9.61-5.89,14.85-9.1-.12.28-.26.54-.32.84-.05.29.06.57.16.91-5.34,2.84-10.3,5.35-14.69,7.35"/>
  </g>
</svg>