<?xml version="1.0" encoding="UTF-8"?>
<svg id="Layer_2" data-name="Layer 2" xmlns="http://www.w3.org/2000/svg" viewBox="0 0 621.45 654.5">
  <defs>
    <style>
      .cls-1 {
        fill:#808080
      }
    </style>
  </defs>
  <g id="Layer_1-2" data-name="Layer 1">
    <path class="cls-1" d="m619.6,654.3c-2.6-.8-5.72-4.48-7.7-6.38-6.47-6.37-13.1-12.92-20.98-17.64-8.09-4.84-17.21-8.02-25.72-12.26-10.75-5.26-21.31-10.92-32.16-16.14-4.51-2.24-9.27-4.23-13.71-6.78-4.88-2.8-9.68-6.28-15.47-6.83-4.98-.43-10.64.5-13.71-4.39-2.9-4.5-2.41-10.54-5.62-14.85-3.09-4.28-7.31-7.66-10.67-11.76-13.2-15.95-26.81-31.64-39.25-48.18-6.75-9.01-13.28-18.32-21.56-26.03-5.79-5.52-13.59-7.53-20.67-10.92-9.27-4.5-18.18-9.67-26.96-14.98-5.58-3.43-11.03-7.13-16.45-10.74-2.86-1.87-10.77-13.06-12.99-5.21-1.11,3.79-2.49,5.57-5.07,8.69-2.18,2.58-3.89,5.46-6.36,7.67-1.75,1.6-4.51,3.3-3.13,5.85,1.28,2.43,5.17,2.84,7.31,4.13,2.62,1.6,3.89,3.78,4.12,6.81.51,5.79-2.53,12.17-7.58,15.07-2.84,1.61-5.37,1.07-8.38.93-.12,0,1.26,3.83,1.59,4.28.9,1.54,2.08,2.86,3.42,4.05,2.43,2.32,5.25,4.38,7,7.24,9.08,14.74,22.14,27.62,37.52,35.74,1.65.83,7.31.7,7.93,2.93.41,1.87-2.72,1.95-3.95,1.83-2.82-.23-5.34-1.83-7.78-3.17-12.39-7-23.62-18.85-32.76-29.55-4.43-5.07-7.8-10.8-12.72-15.44,0,0,.45,2.16.64,3.85.18,1.25,2.1,15.47-1.84,9.41-1.95-2.99,1.44-10.83-3.68-11.05v95.91c0,1.39-.54,2.5-1.21,2.81v4.28c0,.41-.16.67-.33.67,0,0-.39-.26-.39-.67v-4.28c-.64-.31-1.2-1.42-1.2-2.81v-95.91c-5.17.22-1.73,8.07-3.66,11.05-3.93,6.06-2.06-8.16-1.87-9.41.14-1.69.64-3.85.64-3.85-4.92,4.64-8.38,10.36-12.72,15.44-9.19,10.7-20.39,22.55-32.82,29.55-2.33,1.34-5.04,2.94-7.72,3.17-1.28.12-4.39.04-3.93-1.83.56-2.22,6.28-2.1,7.91-2.93,15.3-8.13,28.38-21.01,37.56-35.74,1.69-2.87,4.63-4.92,6.96-7.24,1.26-1.19,2.55-2.52,3.5-4.05.16-.45,1.67-4.28,1.67-4.28-3.13.14-5.81.67-8.48-.93-5.17-2.9-8.19-9.27-7.62-15.07.21-3.03,1.44-5.21,4.06-6.81,2.14-1.29,6.05-1.7,7.33-4.13,1.4-2.56-1.36-4.25-3.19-5.85-2.41-2.21-4.16-5.09-6.26-7.67-2.61-3.12-3.95-4.9-5.08-8.69-2.24-7.84-10.19,3.34-12.93,5.21-5.52,3.62-10.87,7.31-16.6,10.74-8.75,5.31-17.69,10.48-26.87,14.98-7.1,3.39-14.79,5.4-20.67,10.92-8.22,7.71-14.79,17.02-21.56,26.03-12.6,16.54-26.05,32.23-39.31,48.18-3.33,4.1-7.52,7.49-10.65,11.76-3.27,4.31-2.84,10.34-5.6,14.85-3.07,4.9-8.75,3.97-13.69,4.39-5.77.55-10.65,4.03-15.55,6.83-4.45,2.55-9.14,4.53-13.75,6.78-10.73,5.22-21.29,10.88-32.04,16.14-8.56,4.24-17.56,7.42-25.82,12.26-7.87,4.72-14.37,11.28-20.88,17.64-2,1.9-5.11,5.58-7.72,6.38-4.9,1.51,1.52-5.83,2.53-7.18,11.28-13.64,25.8-24.07,42.36-30.4,17.58-6.78,33.99-16,50.84-24.56,9.74-4.95,19.17-8.12,26.44-16.81,2.43-2.9,5.4-5.35,7.89-8.16,1.71-1.95,8.88-10.59,9.16-11.29.23-.74,12.25-14.91,12.25-14.91,12.07-14.35,25-28.5,35.97-43.9,2.7-3.78,6.05-7.13,8.85-10.83,3.85-4.9,7.64-10.43,12.66-14.26,10.44-7.86,23.8-10.09,34.7-16.91,7.76-4.93,15.5-9.96,22.92-15.57,4.39-3.39,14.99-8.92,13.47-15.69-2.14-9.31-4.47-20.88.31-29.73l1.94-4.1c-.37.83-6.34,1.43-7.25,1.65-3.91.85-7.87,1.6-11.92,2.09-20.75,2.5-41.39,3.83-62.02,7.53-18.97,3.43-38.34,5.52-57.51,7.88-10.27,1.2-20.41,3.31-30.78,4.19-9.43.69-19.38,1.52-28.81-.26-10.21-1.92-29.47-9.41-27.43-22.78,1.57-10.57,10.42-17.91,18.59-23.8,19.48-14.13,44.81-20.24,67.97-25.21,21.64-4.66,44-7.29,66.14-5.28,7.8.76,15.14,2.63,22.83,4.01-1.98-.35-5.74-5.66-7.23-7.04-4.41-4.02-8.81-8.02-13.1-12.21-3.6-3.43-6.69-6.74-7.78-11.7-1.22-5.33-1.22-10.9-2.2-16.24-1.75-9.14-4.26-18.19-6.57-27.17-2.12-10.18-3.95-20.44-5.52-30.64-1.15-7.49-2.06-15.02-3.17-22.45-.51-4.06-.39-8.25-1.28-12.24-2.45-10.54-7.89-16.83-15.79-23.78-7.19-6.33-14.97-11.99-22.18-18.36-7.97-7.14-14-15.69-22.84-21.93-6.28-4.43-9.99-6.55-10.73-14.68-.97-10.41-6.94-18.79-13.26-26.63-5.48-6.84-12.35-12.64-19.73-17.38-3.66-2.36-7.78-3.74-11.72-5.53-5.13-2.3-9.62-5.47-15.24-6.37-7.15-1.14-13.96.49-20.98,1.4-2.61.34-7.56-.45-4.59-3.99,1.98-2.32,6.51-1.98,9.29-2.14,9.12-.6,18.18.98,26.83,3.79,9.16,2.94,17.23,6.5,24.6,12.7,9.88,8.38,17.32,18.05,24.4,28.74,3.64,5.53,4.55,12.39,8.32,17.79,3.83,5.4,9.64,8.83,14.35,13.37,5.25,5.17,10.07,10.67,15.61,15.6,9,7.98,18.06,15.82,27.22,23.69,5.52,4.79,11.55,9.38,13.14,16.95,1.77,8.15,1.22,16.81,2.18,25.14,1.59,12.31,3.44,24.6,6.03,36.77,1.54,7.85,3.62,15.59,5.15,23.42,1.75,8.58,3.15,17.31,5.99,25.57,2.88,8.19,8.67,14.92,14.74,20.9,3.03,3.12,6.3,5.97,9.49,8.91,4.43,4.05,9.12,7.97,14.64,10.5,3.97,1.8,8.38,2.52,12.5,4.12,4.08,1.61,7.87,3.88,11.7,5.79-4.55-8.2-8.67-16.76-13.14-25.12-2.49-4.74-5.4-9.33-8.34-13.86-2.41-3.76-5.83-7.38-7.04-11.79-1.21-4.07.23-8.15.39-12.25.08-3.12.1-6.29.29-9.41,1.19-24.24,2.92-48.23,5.52-72.38,1.21-11.54,2.14-23.13,3.38-34.72.39-4.32.78-8.87-1.52-12.74-2.2-3.57-5.78-6.15-8.63-9.1-2.7-2.76-5.44-5.08-7.68-8.23-2.95-4.26-5.56-8.76-8.59-12.95-6.92-9.49-13.57-19.11-20.51-28.7-3.91-5.53-8.54-11.9-13.18-17.48-2.43-2.9-4.96-5.63-7.66-8.26-2.14-2.12-4.61-3.74-6.05-6.53-6.61-12.74-16.58-19.97-28.03-27.94-13.77-9.59-26.4-21-42.21-27.33-4.59-1.78-9.33-2.94-13.9-4.76-9.14-3.66-19.05-3.5-28.79-3.31-5.43.14-10.99.29-16.39,1.29-5.11.98-10.05,2.67-15.18,3.35-2.3.31-12.77,1.38-13.55-2C24.3,5.58,62.7.61,66.33.32c8.71-.76,17.34-.19,25.88,2.01,8.61,2.28,16.23,7.8,24.52,11.23,6.57,2.76,13.16,5.17,19.42,8.62,6.36,3.5,11.7,8.29,17.32,12.81,9.14,7.47,17.15,16.19,26.09,23.85,3.54,3,7.76,4.82,11.49,7.51,4.96,3.54,7.53,10,10.95,14.86,6.07,8.74,12.52,17.3,19,25.71,6.84,9.14,13.42,18.41,19.87,27.73,5.83,8.34,11.28,18.63,19.07,25.27,2.82,2.34,6.75,3.74,7.84,7.62,1.48,5.43-1.09,11.09-2.39,16.31-6.65,27.59-7.83,56.16-10.69,84.32-.99,8.2-2.27,16.63-2.43,24.88,0-.18,2.72,1.56,2.95,1.83.72.89,1.19,1.9,1.6,2.99,1.07,3.5.5,7.26,1.2,10.81,1.13,6.93,5.66,12.59,9.08,18.52,4.1,7.17,8.01,14.43,12.93,21.12,2.43,3.26,5.15,6.33,8.01,9.14.95.85,5.99,4.23,5.99,5.4-2.26-24.19-1.61-48.5-1.3-72.78.14-11.63.14-23.31.95-34.95.56-7.98,1.03-16.04,2.7-23.89.82-3.59,1.73-7.18,3.28-10.52,2.06-4.44,4.3-8.12,5.04-13.07.93-6.42,2.86,1.6,3.19,3.48h5.64c.35-1.88,2.26-9.9,3.25-3.48.76,4.95,2.92,8.62,5.03,13.07,1.5,3.33,2.45,6.93,3.23,10.52,1.67,7.85,2.12,15.9,2.72,23.89.86,11.63.86,23.31.97,34.95.31,24.28.85,48.6-1.31,72.78,0-1.17,4.98-4.55,5.93-5.4,2.94-2.81,5.64-5.88,8.05-9.14,4.86-6.69,8.77-13.95,12.93-21.12,3.36-5.93,7.87-11.59,9.18-18.52.6-3.55,0-7.31,1.13-10.81.31-1.09.86-2.1,1.63-2.99.25-.27,2.84-2.01,2.84-1.83-.1-8.24-1.52-16.67-2.33-24.88-2.96-28.16-4.1-56.73-10.71-84.32-1.32-5.22-3.93-10.88-2.41-16.31,1.09-3.88,5.04-5.28,7.78-7.62,7.89-6.64,13.28-16.93,19.07-25.27,6.53-9.31,13.16-18.59,19.95-27.73,6.47-8.42,12.87-16.97,18.92-25.71,3.4-4.86,6.07-11.32,11.08-14.86,3.67-2.69,7.89-4.52,11.33-7.51,9.02-7.66,16.99-16.38,26.15-23.85,5.64-4.52,11-9.31,17.27-12.81,6.2-3.45,12.93-5.86,19.5-8.62,8.26-3.43,15.84-8.95,24.54-11.23,8.48-2.21,17.15-2.77,25.84-2.01,3.66.29,42.11,5.26,41,10.17-.78,3.38-11.3,2.31-13.55,2-5.11-.67-10.05-2.36-15.16-3.35-5.41-1-10.93-1.16-16.41-1.29-9.68-.19-19.64-.35-28.81,3.31-4.53,1.82-9.39,2.98-13.9,4.76-15.71,6.33-28.46,17.74-42.29,27.33-11.37,7.97-21.31,15.2-27.94,27.94-1.36,2.79-3.91,4.41-6.1,6.53-2.64,2.63-5.23,5.37-7.6,8.26-4.63,5.58-9.28,11.95-13.32,17.48-6.79,9.59-13.46,19.21-20.35,28.7-3.17,4.19-5.66,8.69-8.69,12.95-2.2,3.15-4.86,5.46-7.58,8.23-2.9,2.94-6.45,5.53-8.65,9.1-2.31,3.87-1.96,8.42-1.56,12.74,1.2,11.59,2.14,23.18,3.44,34.72,2.53,24.16,4.36,48.14,5.56,72.38.1,3.12.1,6.29.29,9.41.1,4.09,1.5,8.18.29,12.25-1.22,4.41-4.63,8.03-7.04,11.79-2.96,4.53-5.79,9.12-8.34,13.86-4.38,8.36-8.56,16.91-13.14,25.12,3.91-1.92,7.68-4.19,11.72-5.79,4.06-1.6,8.48-2.32,12.54-4.12,5.54-2.53,10.05-6.45,14.54-10.5,3.25-2.95,6.47-5.79,9.64-8.91,6.01-5.98,11.8-12.71,14.68-20.9,2.84-8.25,4.22-16.99,5.97-25.57,1.63-7.83,3.66-15.57,5.27-23.42,2.47-12.17,4.26-24.47,5.85-36.77.95-8.33.41-16.98,2.22-25.14,1.61-7.57,7.58-12.16,13.2-16.95,9.1-7.87,18.22-15.71,27.2-23.69,5.52-4.93,10.27-10.43,15.59-15.6,4.71-4.54,10.48-7.97,14.31-13.37,3.83-5.4,4.72-12.26,8.34-17.79,7.1-10.69,14.64-20.36,24.38-28.74,7.35-6.19,15.51-9.76,24.62-12.7,8.65-2.81,17.65-4.39,26.85-3.79,2.86.16,7.31-.18,9.24,2.14,2.97,3.54-1.92,4.33-4.49,3.99-7.08-.91-13.82-2.54-21.04-1.4-5.58.89-10.13,4.07-15.2,6.37-4.05,1.79-8.07,3.17-11.78,5.53-7.35,4.75-14.12,10.54-19.66,17.38-6.32,7.84-12.31,16.22-13.28,26.63-.82,8.13-4.55,10.25-10.75,14.68-8.85,6.24-14.79,14.79-22.9,21.93-7.08,6.38-14.87,12.03-22.11,18.36-7.89,6.95-13.43,13.24-15.77,23.78-.99,3.99-.8,8.18-1.34,12.24-1.07,7.44-1.96,14.97-3.17,22.45-1.59,10.21-3.36,20.46-5.42,30.64-2.35,8.98-4.88,18.03-6.61,27.17-.97,5.35-.97,10.92-2.27,16.24-1.09,4.97-4.14,8.27-7.72,11.7-4.3,4.19-8.77,8.19-13.1,12.21-1.5,1.38-5.29,6.69-7.29,7.04,7.68-1.38,15.05-3.25,22.92-4.01,22.09-2.01,44.41.62,66.04,5.28,23.21,4.97,48.49,11.07,68.03,25.21,8.13,5.88,16.95,13.23,18.59,23.8,2,13.37-17.17,20.86-27.43,22.78-9.45,1.78-19.39.95-28.87.26-10.31-.88-20.51-2.98-30.72-4.19-19.21-2.36-38.46-4.45-57.57-7.88-20.57-3.71-41.3-5.04-62.02-7.53-4.01-.49-7.95-1.24-11.84-2.09-.88-.22-6.9-.83-7.31-1.65l1.91,4.1c4.86,8.85,2.45,20.42.31,29.73-1.52,6.78,9.14,12.3,13.55,15.69,7.35,5.61,15.03,10.64,22.92,15.57,10.89,6.83,24.24,9.05,34.63,16.91,5.05,3.83,8.89,9.36,12.72,14.26,2.88,3.7,6.08,7.05,8.79,10.83,11,15.4,23.95,29.55,36.05,43.9,0,0,12,14.18,12.23,14.91.23.71,7.47,9.34,9.12,11.29,2.55,2.81,5.46,5.26,7.89,8.16,7.31,8.69,16.74,11.86,26.58,16.81,16.72,8.55,33.19,17.78,50.8,24.56,16.47,6.33,30.99,16.76,42.33,30.4.99,1.34,7.47,8.69,2.51,7.18h0Z"/>
  </g>
</svg>