<?xml version="1.0" encoding="UTF-8"?>
<svg id="Layer_2" data-name="Layer 2" xmlns="http://www.w3.org/2000/svg" viewBox="0 0 654.5 619.37">
  <defs>
    <style>
      .cls-1 {
        fill:#808080
      }
    </style>
  </defs>
  <g id="Layer_1-2" data-name="Layer 1">
    <path class="cls-1" d="m25.76,335.17c.21,4.63,8.6,16.73,12.97,25.25,2.95,17.86-2.18,27.67-2.18,27.67,0,0,6.41-10.53,5.43-20.92,1.44,3.09,2.83,6.54,4.16,10.12,4.67,20.07-1.12,31.09-1.12,31.09,0,0,5.42-9.12,5.33-18.74.39,1.26.8,2.54,1.15,3.86,1.27,4.41,2.26,8.35,3.19,11.99-.55,13.02-7.77,18.69-7.77,18.69,0,0,6.87-3.88,9.23-12.41,1.43,6.19,2.34,11.15,2.83,15.06-2.61,12.87-10.74,17.38-10.74,17.38,0,0,7.64-2.77,11.33-11.1.37,7.66-1.09,9.8-1.09,12.87,0,7.01,5.87,20.07,7.49,12.9,2.33-10.25-1.05-46.01-8.07-70.51-6.56-22.95-20.63-52.07-20.63-52.07,0,0,6.63-11.22,4.09-19.32-3.23-10.22-17.36-9.64-21.61-43.91,6.3-1.87,14.44-5.29,23.77-10.78,5.82,19.46,22.36,54.78,34.19,61.36,1.12,5.4,3.66,15.45,5.53,27.65-.62,20.8-9.16,30.06-9.16,30.06,0,0,9.52-9.36,10.5-20.21.4,2.97.8,6.12,1.18,9.49-.69,19.63-8.56,28.57-8.56,28.57,0,0,7.61-7.65,9.78-17.11.57,5.89,1.01,11.09,1.34,15.6-1.79,16.29-11.91,21.56-11.91,21.56,0,0,8.96-3.13,12.37-12.98.21,3.89.28,7.25.26,10.06-4.28,13.24-13.42,16.65-13.42,16.65,0,0,8.46-1.81,13.2-10.2-.47,7.66-1.63,10.12-1.75,13.86-.22,6.03-1.6,17.56,1.09,17.06,2.68-.53,10.25-17.7,9.46-31.37-.68-12.09.88-26.9-2.22-48.57-4.12-28.55-4.58-49.7-4.58-49.7,0,0,12.8-9.02,4.62-25.56-4.75-9.61-23.98-4.88-35.82-43.74,5.08-4.22,30.65-.69,56.23-32.16,10.94-4.72,22.21-24.7,29.02-42.6,3.61,1.22,7.44,2.57,11.39,3.98-2.98,19.66-4.42,53.36,14.27,78.81,18.39,25.03,57.05,38.34,57.05,38.34,0,0-7.81,33.32-24.79,58.16-5.2,7.66-8.34,13.81-10.15,18.99-1.95,1.77-3.77,3.77-5.05,6.15l-6.82,17.22c3.24-7.86,6.94-13.61,10.49-18.19-2.15,11.05,2.6,16.7,4.37,22.8,1.42,10-.59,16.15.97,24.06-2.43,10.4-6.68,15.25-6.68,15.25,0,0,4.53-4.74,7.56-11.27,1.37,5.75,3.09,11.1,5.05,16.21.08,14.63-4.8,22.13-4.8,22.13,0,0,5.63-7.7,6.91-16.64,1.22,2.95,2.43,5.85,3.67,8.68.44,10.89-4.68,16.65-4.68,16.65,0,0,5.2-4.33,6.69-12.02,1.44,3.42,2.84,6.81,4.13,10.28.05.11.07.2.12.28.74,14.33-6.91,20.87-6.91,20.87,0,0,7.74-4.91,9.02-15.02,2.9,7.95,5.6,16.28,6.6,24.85-2.48,11.7-9.71,15.99-9.71,15.99,0,0,6.49-2.74,10.09-9.95.06,2.37-.05,4.77-.37,7.2-2.32,17.94-15.08,43.89-13.65,45.91.55.78,14.44-5.23,14.44-5.23,7.8-14.44,12.58-46.06,11.13-60.97-4.22-43.54-15.78-65.22-20.25-99.81,0,0,2.77-3.06,6.65-8.77-.43,9.49,13.91,13.85,13.91,13.85,0,0-13.1-6.81-9.72-20.39,3.09-5.15,6.44-11.37,9.7-18.96.09,1.05.23,2.05.42,3.01-.12.26-.25.5-.33.75l-3.02,18.27c1.05-5.84,2.53-10.67,4.19-14.85.96,3.99,1.96,6.76,1.96,6.76,0,0-.74-3.51-.76-9.6.35-.77.69-1.53,1.02-2.26.22,11.27,6.06,15.74,9.08,21.33,3.52,9.46,10.37,18.69,16.7,23.71,4.87,9.45,4.8,15.91,4.8,15.91,0,0,.37-6.51-1.57-13.45,4.8,3.52,9.54,6.44,14.35,9.1,9.54,11.08,10.68,19.98,10.68,19.98,0,0-.7-9.54-5.5-17.2,2.81,1.44,5.63,2.87,8.42,4.25,7.4,8,7.2,15.72,7.2,15.72,0,0,1.12-6.67-2.7-13.45,3.29,1.63,6.57,3.33,9.84,5.12.08.06.14.12.25.14,9.85,10.42,8.27,20.34,8.27,20.34,0,0,2.69-8.74-2.87-17.27,7.38,4.21,14.81,8.8,21.1,14.69,5.67,10.47,2.94,18.5,2.94,18.5,0,0,3.23-6.35,1.26-14.18,1.57,1.81,3.1,3.66,4.39,5.71,9.84,15.24,16.96,43.27,19.33,43.88.92.22,7.63-13.4,7.63-13.4-3.45-16.05-20.23-43.22-30.98-53.64-31.46-30.41-63.47-28.2-75.15-61.05,0,0,2.07-3.59,4.67-9.99,1.59,9.38,16.5,10.62,16.5,10.62,0,0-14.22-3.88-13.81-17.89,1.96-5.61,3.92-12.48,5.49-20.54,2.4,7.12,6.09,12.94,6.09,12.94,0,0-3.63-8.08-4.55-22.27,0-.14.04-.26.05-.42.44-3.11.76-6.12,1.01-9.16,3.36,8.39,9.53,15.58,9.53,15.58,0,0-6.14-9.7-8.76-27.65.99-27.11-.7-46.53-.7-46.53,0,0-26.39-20.09-36.78-46.7,13.09,6.84,22.75,12.04,22.75,12.04,0,0,7.66,5.91,20.94,14.05,13.88,32.97,32.53,67.12,40.14,85.53,17.56,42.4,127.48,18.5,127.48,18.5,0,0-5.12,38.39-9.24,69.38-4.02,30.46,5.18,46.91,25.03,59.08,3.24,4.82,6.43,10.72,11.11,17.88,3.89,16.87-.26,26.56-.26,26.56,0,0,5.57-11.02,3.73-21.3.27.28.46.55.68.85,1.73,2.42,3.65,4.96,5.79,7.67,10.92,16.44,9.7,28.35,9.7,28.35,0,0,1.67-10.2-1.79-19.01,2.44,2.64,5.1,5.45,8.03,8.37,2.57,2.56,5.11,4.9,7.58,7.15-.13-.09-.19-.15-.33-.23l.36.26c.23.19.43.39.61.54,11.38,14.2,11.65,25.32,11.65,25.32,0,0,.47-10.7-4.25-19.13,2.8,2.16,5.54,4.19,8.26,6.12,6.81,8.98,5.71,16.92,5.71,16.92,0,0,1.92-6.58-1.2-13.81,2.99,2.01,5.95,3.94,8.87,5.79,9.28,11.8,6.5,21.88,6.5,21.88,0,0,4.07-9.2-1.53-18.76,5.1,3.22,10.18,6.47,15.38,10.14,1.22.85,2.33,1.71,3.47,2.54,9.61,9.8,8.47,19.43,8.47,19.43,0,0,1.93-7.22-1.95-14.71,33.24,24.56,24.23,37.63,26.95,37.78,2.29.14,11.87-13.71,6.8-21.02-11.46-16.41-33.6-35.12-54.2-48.69-24.42-16.12-51.43-41.03-63.59-76.84.47-2.26.77-4.63,1.02-7.05,3.44,7.87,10.09,13.61,10.09,13.61,0,0-6.41-6.15-9.65-20.39.26-6.77.11-14.23-.1-22.64l.2,1.18c3.29,10.95,15.8,17.98,15.8,17.98,0,0-10.16-6.6-16.13-25.61-.33-13.94-.41-30.15,1.51-49.73,1.23-12.62.71-23.31-1.65-32.29,10.64,15.29,10.08,26.62,10.08,26.62,0,0,1.61-13.73-4.83-22.82,5.43,4.65,12.05,9.73,20.83,14.25,9.33,10.01,11.02,18.19,11.02,18.19,0,0-1.18-8.56-5.87-15.71.84.36,1.61.71,2.44,1.1,3.94,1.6,8.39,3.23,13.03,4.85,13.81,11.01,16.55,21.42,16.55,21.42,0,0-2.46-12.46-10.46-19.37,6.53,2.12,13.38,4.18,20.33,6.2,10.19,7.77,10.78,16.78,10.78,16.78,0,0,.74-8.35-5.53-15.27,4,1.11,7.98,2.21,11.87,3.25,9.96,7.51,10.69,16.27,10.69,16.27,0,0,.57-8.13-5.52-14.88,2.89.76,5.71,1.52,8.43,2.22,8.42,2.21,15.41,4.58,21.27,6.92,7.13,6.14,8.18,12.71,8.18,12.71,0,0-.09-5.4-3.64-10.82,23.99,10.73,25.15,21.1,25.15,21.1,1.46-2.19,13.16-16.07-1.59-22.81-22.22-10.14-52.43-21.96-76.46-27.41-28.55-6.49-54.31-18.75-78.33-48,.18-.88.25-1.91.26-3.01,6.41,8.08,18,11.33,18,11.33,0,0-8.95-3.01-18.21-15.46-.2-2.25-.61-4.69-1.15-7.39,6.5,5.6,14.96,7.88,14.96,7.88,0,0-7.58-2.6-16.07-12.49-.34-1.29-.68-2.64-1.12-4.01,2.27-.32,4.48-.61,6.65-.99,52.42-9.46,76.58-31.79,91.8-43.7,10.2-8.02,21.12-3.64,26.22-13.12,4.62-8.6-5.1-20.42-.75-37.18,13.11-.73,19.7-17.45,17.5-19.65-3.72-3.72-16.02,9.49-31.34-28.43-8.37-20.75-17.06-48.36-36.34-73.95,8.81,2.73,16.05-1.29,16.05-1.29,0,0-8.26,3.05-19.3-2.74-14.72-18.25-35.15-35.25-65.32-47.68-3.39-1.44-6.98-2.67-10.67-3.92,8.83-2.5,12.67-9.73,12.67-9.73,0,0-5.26,7.01-17.58,8.16-6.91-2.12-14.22-3.96-21.85-5.63,5.8-3.27,8.32-8.35,8.32-8.35,0,0-3.5,5.05-11.77,7.59-18.16-3.71-37.96-6.01-58.05-7.39,7.47-3.45,12.83-9.58,12.83-9.58,0,0-5.99,5.96-19.46,9.09-20.46-1.19-41.01-1.38-60.4-.91,6.84-4.06,11.45-10.13,11.45-10.13,0,0-5.3,6.13-17.88,10.26-26.07.83-49.59,2.82-66.97,5.22-46.9,6.41-85.71,4.77-130.07,14.21-36.06,7.65-72.14,28.4-89.61,49.19-25.98,30.83-13.11,60.83,2.94,79.04.69,36.46,12.21,63.38,18.92,63.38,5.09,0-4.39-24.03,13.84-42.26.44-.41.9-.77,1.34-1.16-2.83,14.69-1.77,32.14.09,38.76-4.84,10.11-24.07,19.08-41.39,23.67-19.35,5.13-29.52,13.87-30.74,22.67-1.66,12.09,9.78,73.43,25.6,72.19m317.8-57.17c3.51,1.4,7.05,2.81,10.74,4.13,19.94,7.33,51.34,14.77,82.96,17.7,2.89,6.87,5.95,12.74,9.26,17.61-35.27-2.89-89.76-2.48-101.41,2.32,0,0-.39-17.59-1.54-41.75m-105.32,89.81c.18-2.21.37-4.53.76-7.15.05-.14.09-.28.14-.39,1.06-2.98,2.01-5.91,2.89-8.77.13.56.26,1.05.35,1.64-1.63,4.98-2.63,9.31-3.08,12.97-.37.56-.74,1.11-1.06,1.7m-18.54-109.36c18.53,14.11,39.98,21.5,39.98,21.5,0,0-3.15,37.58-14.47,65.41-.01.07-.05.11-.05.16,0-1.82.07-3.64.2-5.65,6.7-26.33,4.54-47.77,4.54-47.77,0,0-18.09-13.79-30.2-33.66"/>
  </g>
</svg>