<?xml version="1.0" encoding="UTF-8"?>
<svg id="Layer_2" data-name="Layer 2" xmlns="http://www.w3.org/2000/svg" viewBox="0 0 358.28 654.5">
  <defs>
    <style>
      .cls-1 {
        fill:#808080
      }
    </style>
  </defs>
  <g id="Layer_1-2" data-name="Layer 1">
    <path class="cls-1" d="m358.02,68.86c-.42.03-.74.1-1.14.17-7.28,1.55-13.76,10.06-18.95,15.12,6.45-6.22,8.46-18.31,4.42-26.07-3.22,4.87-3.54,11.17-4.99,16.73-2.9,11.77-7.78,22.6-13.86,33.09-7.11,12.19-16.72,23.18-23.2,35.72-12.24,23.48-6.25,51.98-21.1,75.33-8.38,13.27-28.43,20.44-42.14,26.66-.52-4.14-1.13-8.28-1.64-12.44-.35-2.06,8.38-3.18,9.6-5.46,2.49-4.96-2.94-7.83-3.01-12.57-.12-7.57,9.3-13.82,11.27-20.87,2.61-9.05-.35-13.75-5.47-20.87,2.26,3.16,18.35-21.65,18.67-22.03,10.6-19.49,15.32-41.07,19.69-62.67,4.92-24.5-11.72-75.64-33.03-88.26-7.62-4.54,5.68,29.75,6.29,32.08,0,0-.96,8.86-.96,9,.06-.81-17.4,4.69-18.98,5.79-13.05,9.85,7.24,3.84,13.7,6.35,7.27,2.84,10.28,12.75,3.99,16.33-4.54,2.48-13.93-.15-18.68-.8,18.68,6.19,17.46,37.27,12.3,51.25-7.42,20.34-26.12,27.12-46.53,28.12,4.71-.23,5.24-29.67,4.91-32.86-1.09-8.65-7.83-21.8-10.4-7.73-1.72,9.68,3.29,21.55-.06,30.95-.17.53-.37.88-.51,1.3-1.74,3.81-4.69,5.79-7.24,8.21h-23.76c-2.51-2.43-5.47-4.41-7.27-8.21-.16-.41-.35-.76-.5-1.3-3.24-9.39,1.79-21.27-.04-30.95-2.55-14.07-9.32-.91-10.29,7.73-.37,3.19.27,32.63,4.8,32.86-20.41-1-39.04-7.78-46.54-28.12-5.15-13.98-6.27-45.06,12.4-51.25-4.78.65-14.23,3.28-18.67.8-6.43-3.58-3.3-13.49,3.97-16.33,6.4-2.51,26.74,3.49,13.63-6.35-1.41-1.1-19.1-6.6-18.96-5.79,0-.13-.81-9-.81-9,.38-2.33,13.82-36.62,6.16-32.08-21.38,12.62-37.97,63.77-32.97,88.26,4.29,21.6,9.07,43.18,19.75,62.67.17.38,16.28,25.19,18.6,22.03-5.12,7.12-8.13,11.82-5.56,20.87,2.02,7.05,11.42,13.3,11.34,20.87-.09,4.74-5.51,7.61-2.99,12.57,1.16,2.28,9.91,3.39,9.64,5.46-.51,4.16-1.14,8.3-1.81,12.44-13.63-6.22-33.7-13.39-42.03-26.66-14.78-23.35-8.84-51.85-21.08-75.33-6.5-12.54-16.18-23.53-23.26-35.72-6.02-10.49-10.9-21.32-13.89-33.09-1.39-5.55-1.7-11.86-4.96-16.73-4.03,7.77-1.98,19.85,4.44,26.07-5.2-5.06-11.66-13.57-19-15.12-.44-.07-.73-.13-1.05-.17-2.6,8.68,14.44,18.36,19.28,24.69,3.08,4.01,32.82,45.11,30.27,49.49-4.41,7.73-4.73,13.34.53,20.54,8.55,11.77,11.15,26.24,14.52,39.99,4.99,19.97,15.71,45.21,34.61,54.94,6.39,3.32,15.96,5.17,17.58,12.92,1.98,9.91-9,21.92-3.87,31.35,4.14,7.42,21.03,10.11,28.43,9.71-6.73.38-12.33-.31-18.82,1.63-5.93,1.8-10.79,5.54-17.19,5.49-8.91-.05-14.81-4.46-22.89,2.08-7.27,5.92-12.05,14.68-17.3,22.22-11.21,16.05-19.25,29-21.58,48.26-1.16,10.09-5.09,19.41-5.05,29.7.12,11.36,3.27,22.55,2.09,33.95-.91,9.11-12.2,21.1-5.13,29.78,3.3-1.91,8.94-10.87,6.92-15.33,1.78,3.92,5.95,17.88,11,18.57,5.25.57,4.48-6.15,3.33-9.99-1.43-4.57-5.39-7.9-7.08-12.27-12.39-31.31-.96-66.37,11.47-95.47,5.71-13.34,20.81-51.5,42.34-37.08,7.36,4.87,1.72,24.69,1.34,32.77.84,8.51,11.4,69.19,7.95,71.3-15.48,9.48-24.89,17.53-28.86,35.82-7.98,37.43-16.79,76.71-19.16,114.85-.65,10.99.78,34.14-4.53,43.68-2.39,4.39-7.02,9.76-8.16,14.55-2.48,10.01,3.8,8.83,8.12,3.29,2.79-3.59,3.92-9.03,5.16-13.25,3.18-10.79,1.56-21.35,2.93-32.23,0-.13,3.57-29.42,3.57-29.42l1.77-11.59,7.13-9.8c12.73-9.08,7.48-32.79,8.88-47.31.55-4.77,2.11-39.76,3.6-40.08,8.61-1.71,15.32-4.96,23.15-8.93,0,0,1.74,20.49,1.74,20.52,2.52,28.22,33.33,56.77,61.2,55.89,14.81-.47,27.85-8.08,37.72-18.87,7.39-8,21.48-25.68,22.52-37.02l1.78-20.52c7.77,3.97,14.38,7.22,23.14,8.93,1.4.31,3.04,35.3,3.54,40.08,1.47,14.52-3.79,38.23,8.88,47.31l7.09,9.8,1.9,11.59s3.57,29.28,3.57,29.42c1.35,10.88-.25,21.43,2.89,32.23,1.24,4.22,2.33,9.66,5.07,13.25,4.35,5.54,10.72,6.72,8.24-3.29-1.22-4.79-5.76-10.16-8.24-14.55-5.3-9.54-3.83-32.69-4.5-43.68-2.38-38.15-11.18-77.42-19.17-114.85-3.91-18.29-13.32-26.34-28.93-35.82-3.41-2.11,7.24-62.79,8.05-71.3-.47-8.08-6.06-27.9,1.29-32.77,21.58-14.42,36.69,23.74,42.37,37.08,12.49,29.1,23.94,64.15,11.5,95.47-1.8,4.37-5.72,7.7-7.11,12.27-1.1,3.84-1.94,10.56,3.33,9.99,5-.7,9.2-14.65,11.03-18.57-2.02,4.46,3.52,13.42,6.88,15.33,7.18-8.68-4.16-20.67-5.07-29.78-1.2-11.41,2.02-22.6,2.02-33.95.12-10.29-3.81-19.61-5-29.7-2.29-19.25-10.43-32.21-21.55-48.26-5.25-7.53-10.13-16.3-17.29-22.22-8.08-6.54-13.97-2.13-22.95-2.08-6.42.05-11.27-3.69-17.19-5.49-6.48-1.94-12.03-1.25-18.87-1.63,7.48.4,24.39-2.29,28.54-9.71,5.16-9.43-5.93-21.44-3.89-31.35,1.58-7.75,11.19-9.6,17.63-12.92,18.88-9.73,29.6-34.97,34.51-54.94,3.36-13.75,5.99-28.22,14.54-39.99,5.25-7.2,4.91-12.8.56-20.54-2.58-4.38,27.14-45.48,30.25-49.49,4.82-6.34,21.92-16.01,19.32-24.69h0Z"/>
  </g>
</svg>