<?xml version="1.0" encoding="UTF-8"?>
<svg id="Layer_2" data-name="Layer 2" xmlns="http://www.w3.org/2000/svg" viewBox="0 0 446.2 654.5">
  <defs>
    <style>
      .cls-1 {
        fill:#808080
      }
    </style>
  </defs>
  <g id="Layer_1-2" data-name="Layer 1">
    <path class="cls-1" d="m70.22,460.15c-3.12-.81-4.89-.12-6.2,2.34,2.21-.28,4.19-.95,6.2-2.34h0Zm306.22-.11c2.01,1.56,3.92,2.23,6.12,2.26-1.46-2.32-2.9-2.88-6.12-2.26h0ZM149.98,152.8c-.23-.44-.67-.58-1.05-.79-3.75-2.08-7.62-3.93-11.65-5.42-3.43-1.28-6.95-2.31-10.6-2.7-3.84-.42-7.7-.42-11.55-.56-3.98-.14-7.96.03-11.93.17-.47.02-1.12-.16-1.18.61-.11,1.52-.16,3.04-.25,4.61.76-.14,1.15-.58,1.61-.89,1.62-1.06,2.28-.86,2.89,1.04,1.34,4.19,1.94,8.48,1.64,12.89-.04.61-.31,1.22.02,1.82.52.12.84-.26,1.23-.42,1.28-.52,1.87-.24,2.27,1.06.08.25.09.5.13.75.75,3.75.95,7.51.39,11.3-.21,1.45-.15,1.47,1.31,1.47,2,0,3.89.43,5.55,1.59,1.33.91,2,2.22,2.13,3.82.05.6-.05,1.06-.62,1.46-2.09,1.46-2.86,3.68-3.05,6.06-.57,7.32-1.73,14.55-2.83,21.79-2.37,15.61-5.1,31.16-6.55,46.9-.26,2.84-.39,5.68-.51,8.52-.05,1.42.27,1.66,1.66,1.56.18-.01.37-.07.55-.1,3.05-.48,6.03-.32,8.94.83,1.46.58,3.01.83,4.61.88,6.39.14,12.77-.14,19.13-.51.6-.02,1.28.13,1.79-.54-.29-.66-.58-1.36-.92-2.04-1.95-3.98-4.81-7.26-8.2-10.06-.69-.57-.93-1.02-.44-1.87,2.21-3.91,4.34-7.86,7.36-11.23,2.9-3.26,5.8-6.52,8.72-9.76,1.2-1.33,1.22-1.31,2.98-.57.08.03.21-.07.37-.13-.1-.23-.18-.45-.28-.67-1.54-2.85-3.86-4.99-6.33-6.96-1.14-.91-2.31-1.78-3.23-2.92-.76-.95-1.47-1.97-1.45-3.22.02-1-.31-1.54-1.11-2.14-1.68-1.26-1.47-3.43.27-4.62.58-.4,1.22-.75,1.92-.78,1.21-.05,1.94-.78,2.64-1.62,1.97-2.4,2.44-5.18,2.19-8.2-.26-3.19-1.19-6.35-.73-9.59.05-.35-.1-.6-.36-.82-2.46-2.24-2.71-5.12-2.34-8.19.28-2.46.9-4.84,1.49-7.23.72-2.8,1.44-5.62,1.38-8.57-.06-3.67.03-7.34-.13-11-.08-1.59.41-2.82,1.35-3.97.27-.34.64-.6.76-1.03h0Zm156.77,117.82c1.62-.01,2.99-.28,4.37-.18,6.68.48,13.37.75,20.08.62,1.8-.03,3.51-.3,5.18-.97,2.78-1.09,5.65-1.17,8.58-.77.43.05.87.1,1.31.11.69.01,1.04-.35,1.02-1.05-.02-.44-.02-.89-.04-1.32-.14-3.92-.44-7.82-.86-11.72-1.13-10.69-2.81-21.29-4.45-31.9-1.08-7.18-2.16-14.36-3.25-21.54-.62-4-.92-8.02-1.43-12.04-.25-1.92-.91-3.76-2.55-4.92-1.04-.76-1.07-1.61-.87-2.62.35-1.58,1.32-2.71,2.73-3.44,1.55-.81,3.18-1.16,4.93-1.14,1.41.02,1.43-.02,1.23-1.33-.39-2.58-.38-5.16-.16-7.75.11-1.39.34-2.76.64-4.11.39-1.73.93-1.97,2.52-1.28.33.14.62.49,1,.29,0-1.78-.02-3.54.01-5.3.05-3.18.7-6.27,1.62-9.3.61-2,1.28-2.2,3-1.08.45.3.84.78,1.66.82-.44-2.32-.19-4.62-.34-6.85-.38-.15-.6-.01-.83.09-2.79,1.3-5.74,1.77-8.84,1.6-6.51-.34-13.02-.29-19.52-.02-2.27.1-4.55.25-6.79.62-6.17,1-11.85,3.42-17.39,6.19-.42.22-.96.3-1.25,1.03,1.1.68,1.94,1.69,2.79,2.7.77.9,1.52,1.85,1.31,3.21-.43,2.7-.36,5.42-.36,8.14.01,5.45.53,10.84,2.4,16.03.34.94.55,1.96.64,2.96.26,3.06.28,6.11-2.31,8.4-.27.24-.37.52-.34.83.4,2.9-.52,5.64-.93,8.45-.44,3.04,0,5.91,1.75,8.51.86,1.28,1.68,2.57,3.5,2.5.23-.01.48.16.7.25,2.74,1.12,3.1,3.58.78,5.39-.4.3-.78.51-.86,1.13-.39,3.24-2.19,5.54-4.82,7.35-2.52,1.73-4.62,3.92-6.16,6.59-.21.35-.57.69-.26,1.2.89.14,1.65-.19,2.31-.68.73-.52,1.16-.37,1.73.26,2.78,3.02,5.66,5.96,8.42,9,3.32,3.68,5.89,7.88,8.07,12.32.44.92.47,1.59-.54,2.21-.86.51-1.61,1.2-2.37,1.88-3.14,2.86-5.48,6.24-6.79,10.64h0ZM0,515.29c.13-.13.32-.25.37-.41.82-2.38,2.06-4.47,4.06-6.04.32-.25.46-.57.45-.99-.02-1.87.89-3.4,1.83-4.89,1.64-2.58,3.61-4.88,5.74-7.06,4.56-4.66,9.46-8.93,14.75-12.76.68-.51,1.26-.92,1.25-1.93-.02-1.09.87-1.2,1.75-1.25,2.98-.14,5.65-1.22,8.18-2.74.64-.38,1.01-.77,1.03-1.61.03-1.19.44-1.58,1.64-1.59,3.58-.02,6.57-1.6,9.49-3.43.27-.16.65-.35.7-.58.32-1.52,1.49-1.49,2.64-1.57,2.92-.19,5.48-1.41,7.92-2.91.27-.16.54-.34.75-.56.09-.12.08-.37.05-.54-.04-.26-.28-.24-.43-.14-.96.61-1.35.23-1.48-.78-.13-1.01-.75-1.66-1.61-2.2-1.76-1.14-2.53-2.27-3.24-4.52,1.92.76,3.64.5,5.26-.53,1.8-1.15,3.22-2.65,4.09-4.61,1.03-2.28.67-3.56-1.33-5.07-.05-.04-.11-.08-.15-.11-.52-.51-1.63-.75-1.37-1.58.24-.71,1.3-.62,2.02-.82.29-.09.62-.07.94-.11,2.64-.34,4.49-1.53,5.47-4.22,1.38-3.79,3.09-7.46,4.62-11.2.74-1.75.72-1.76-.52-3.09.08-.37.4-.49.68-.62,1.34-.63,2.08-1.74,2.63-3.08,2.3-5.61,4.68-11.19,7.24-16.69,2.14-4.57,4.39-9.11,7.15-13.35,1.58-2.45,3.31-4.78,5.53-6.7,1.2-1.06.97-2.24-.5-2.96-1.04-.51-1.25-1.22-.63-2.34.66-1.17,1.61-2.1,2.62-2.98,3.58-3.14,7.61-5.62,11.81-7.84,5.92-3.12,12.11-5.67,18.41-7.95,2.86-1.05,5.84-1.6,8.87-1.83,2.02-.16,4.05.02,5.99.68.74.26,1.09.18,1.39-.62.67-1.91,1.43-3.78,2.21-5.64,1.29-3.1,2.73-6.12,4.36-9.04.55-.99.77-1.95.67-3.06-.23-2.79.86-4.49,3.48-5.55,1.36-.55,2.79-.76,4.26-.75,2.78,0,5.56.09,8.35-.03,7.17-.3,13.67-2.73,19.95-6.53-.76-.47-1.45-.32-2.07-.42-2.75-.43-5.51-.66-8.29-.67-8.67-.06-17.27-.93-25.77-2.64-1.06-.21-2.08-.55-3.1-.86-.69-.22-1.03-.57-.74-1.4.53-1.45.51-2.97.49-4.49-.01-1.6-.66-2.77-1.89-3.74-1.44-1.13-3.02-2.06-4.62-2.93-3.16-1.73-6.35-3.41-9.48-5.19-1.65-.93-3.27-1.93-4.45-3.66,2.5-1.49,5.07-2.82,7.32-5.13-2.18-.38-4.08-.7-5.98-1.05-8.08-1.53-16.05-3.39-23.52-6.92-1.9-.9-3.76-1.84-5.33-3.26-.41-.38-.89-.74-1.02-1.32-.19-.79.05-1.43.81-1.7.91-.32.79-.97.7-1.69-.11-1.06-.77-1.88-1.27-2.73-2.44-4.19-3.38-8.82-4.03-13.54-1.42-10.24-1.27-20.55-1.2-30.85.02-3.16.02-6.32.12-9.49.08-1.86-.28-3.51-1.56-4.91-.22-.23-.4-.49-.39-.83.15-.31.45-.42.78-.44.97-.05,1.26-.71,1.39-1.52.04-.31.04-.63.05-.94.12-5.5.18-11,.38-16.5.09-2.45-.86-4.28-2.79-5.66-.88-.63-1.8-1.19-2.66-1.82-.51-.36-1.01-.77-1.45-1.21-.51-.5-.3-.92.31-1.12.65-.22,1.34-.37,2.01-.51,3.12-.63,4.21-1.89,4.2-5.07-.01-3.14-1.08-5.93-3.08-8.36-1.23-1.48-2.82-2.31-4.79-2.2-.22-.62.25-.84.53-1.13,1.41-1.35,3.1-2.28,5-2.5,1.46-.17,2.56-.66,3.28-1.89.64-1.13,1.39-1.21,1.96.21.48,1.16.74,2.4,1.1,3.62,1.1,3.61,3.39,5.22,7.34,5.18.27-.56.01-1.09-.13-1.62-.66-2.47-1.71-4.74-3.29-6.77-1.02-1.33-1.03-1.84.1-2.93.57-.55.56-1.01.4-1.66-.95-3.92-2.38-7.6-5.3-10.51-.81-.81-1.16-1.65-.43-2.69.17-.26.26-.51.15-.87-.65-2.05-1.08-4.16-1.92-6.14-.29-.67-.71-1-1.35-1.18-1.22-.32-2.39-.8-3.51-1.39-2.73-1.44-4.74-3.4-5.62-6.54-1.39-4.98-4.3-9.11-7.81-12.83-1.86-1.98-3.82-3.85-5.76-5.76-2.79-2.77-5.38-5.71-7.47-9.04-2.66-4.22-4.13-8.79-3.83-13.83.11-1.78.33-3.53,1.13-5.15.73-1.52,1.75-2.77,3.4-3.38,2.2-.81,4.13.16,4.66,2.44.2.86.35,1.61,1.09,2.26.69.58.24,1.8-.8,2.32-.66.32-1.44.45-2.15.66-1.52.42-3.03.8-4.27,2.01.37.4.74.26,1.04.16.92-.27,1.87-.26,2.81-.34.8-.08,1.94-.43,2.3.28.45.92-.49,1.73-1.1,2.43-.9,1.01-2,1.73-3.29,2.18-.41.14-.98.23-.92.78.08.65.75.6,1.21.63.69.05,1.39-.1,2.05-.31.73-.25,1.43-.51,2.15-.69.97-.25,1.43.04,1.56,1.04.22,1.53-.22,2.88-1.3,4-.5.5-1,.99-1.46,1.48-.23.25-.3.58-.14.88.19.32.53.28.86.21.41-.1.77-.43,1.34-.21-.12.77-.31,1.56-.36,2.36-.06,1.21.23,1.48,1.39,1.44q2.38-.09,2.65,2.28c.03.31.03.64.09.94.18,1.08.4,1.25,1.31.58.91-.67,1.42-.5,1.95.4.71,1.22,2.06,2.15,1.58,3.78.41.46.79.23,1.13.15.82-.19,1.32.18,1.68.88.73,1.4,1.49,2.78,2.17,4.2.34.7.67,1.38,1.33,1.81,1.4.91,2.13,2.27,2.59,3.83.39,1.33.83,2.64,1.52,3.87.4.7.95,1.17,1.75,1.34.86.19,1.39-.26,1.18-1.12-.9-3.65-2.19-7.13-4.8-9.96-1.65-1.77-1.67-1.79-.32-3.77.35-.51.25-.95.16-1.44-1.61-8.6-2.31-17.28-2.25-26.03.02-3.85.26-7.7,1.2-11.47.44-1.79,1-3.54,2.38-4.86.52-.49.39-1.01.35-1.57-.19-2.3-.01-4.55.89-6.69,1.54-3.66,4.1-6.01,8.21-6.38,2.41-.22,4.7.61,6.2,2.36-.83,0-1.55.02-2.27,0-6.18-.24-8.09,3.8-8.71,7.79-.03.25-.04.51,0,.75.1.68.54.87,1.03.4.41-.39.76-.84,1.14-1.28,3.33-3.69,7.34-6.12,12.4-6.59,1.22-.12,2.43-.03,3.56.29,2.11.58,3.42,1.99,3.84,4.13-.36.34-.54.08-.7-.08-1.93-1.73-4.23-1.96-6.58-1.36-4.05,1.05-7.17,3.62-10.05,6.53-.42.43-.39.9-.28,1.4.4,1.9-.09,3.63-.86,5.34-1.46,3.22-2.98,6.41-4.17,9.75-.92,2.59-1.44,5.23-1.47,7.98-.04,5.37-.06,10.74.27,16.11.05.86-.09,1.71,1.28,1.74.72.02.93.94,1.14,1.6,1.17,3.7,1.75,7.5,1.63,11.39-.02.69-.01,1.39-.01,2.06.29.14.5,0,.73-.08,1.3-.44,1.73-.3,2.19.94.43,1.18.76,2.41,1.03,3.64.16.67.47.92,1.16.94,4.67.09,9.33.37,14,.73,7.82.61,15.57,1.64,23.03,4.15,4.86,1.65,9.43,3.96,13.97,6.31,1.08.56,2.05.69,3.2.35,1.53-.47,3.12-.28,4.7.07.14-.77-.35-1.25-.62-1.78-7.22-14.6-12.97-29.73-16.95-45.53-1.92-7.61-2.99-15.36-3.71-23.17-.72-7.76-.94-15.53-.63-23.3.45-11.52,1.82-22.92,5.6-33.9,1.69-4.93,3.9-9.59,7.17-13.7,2.88-3.59,6.35-6.32,10.93-7.41.49-.11,1-.19,1.49-.26.55-.06,1.2-.26,1.53.35.3.53.08,1.13-.23,1.62-.67,1.07-1.35,2.13-2.02,3.21-1.1,1.78-2.16,3.58-2.73,5.61-.45,1.61-.69,3.23.84,4.53.79.66.67,1.44.04,2.17-.32.38-.69.73-1.07,1.06-.62.54-1.27,1.05-1.86,1.6-.64.6-1.48,1.17-1.17,2.2.27.93,1.25.96,1.99,1.22.66.24,1.36.34,1.99.61,1.03.46,1.24,1.13.69,2.15-.54,1.02-1.48,1.71-2.23,2.56-.58.64-1.52,1.26-1.22,2.2.25.88,1.32.78,2.11.94.68.15,1.36.27,2.02.49,1.27.43,1.52,1.17.82,2.33-.3.49-.73.88-1.06,1.34-1.06,1.51-.79,2.25.99,2.65.93.22,1.87.33,2.83.34.83,0,1.65.18,2.39.49,1.31.52,1.54,1.65.57,2.72-.64.71-1.49,1.18-2.34,1.59-1.59.78-3.17,1.57-4.82,2.21-4.29,1.67-6.23,4.87-6.43,9.36-.14,3.64.51,7.18,1.12,10.72,1.78,10.36,4.68,20.42,8.11,30.34,1.93,5.57,4.99,10.48,8.95,14.82.56.61,1.17,1.15,1.79,1.7,2.37,2.11,5.05,2.69,8.09,1.72,2.24-.7,4.34-1.7,6.49-2.64,2.07-.93,4.15-1.83,6.4-2.31,1.05-.23,2.21-.51,3.02.41.91,1.03.28,2.15-.15,3.19-.48,1.12-1.14,2.13-1.93,3.03-.9,1.03-.97,2.14-.64,3.37.15.54.35,1.08.53,1.62.44,1.34.54,2.67.25,4.09-.5,2.39.13,3.12,2.58,3.19,1.02.03,2.04-.09,3.04-.05,2.34.05,3.49,1.76,2.73,3.98-.32.92-.91,1.66-1.57,2.35-.79.82-1.61,1.6-2.38,2.45-1.62,1.82-1.78,3.84-.69,5.97.84,1.67,2.13,2.97,3.64,4.06,1.28.93,2.51,1.91,3.65,3.01,4.27,4.15,6.51,9.24,7.04,15.13.17,1.85.16,1.81,1.94,2.07,3.32.49,6.68.46,10.04.39,1.11-.03,1.33.05,1.41-1.39.31-5.52,2.06-10.5,5.73-14.74,1.42-1.62,3.04-3.02,4.8-4.28,1.45-1.04,2.73-2.26,3.65-3.81,1.43-2.43,1.24-4.49-.62-6.59-.88-1-1.86-1.89-2.74-2.89-.88-.96-1.41-2.08-1.17-3.45.27-1.54.81-2.09,2.36-2.23.75-.07,1.52.02,2.27.01.75,0,1.52.02,2.26-.08,1.25-.17,1.86-.71,1.65-1.86-.48-2.58-.03-5.01.78-7.43.37-1.06.03-1.97-.65-2.82-.77-.92-1.44-1.92-1.96-3.01-.29-.63-.56-1.28-.56-1.99-.01-1.19.47-1.75,1.66-1.86,1.16-.12,2.25.24,3.34.56,2.56.77,4.92,1.97,7.34,3.02,1.68.74,3.38,1.4,5.18,1.8,2.28.51,4.24-.07,6.07-1.38,1.97-1.41,3.53-3.24,4.98-5.17,2.98-3.96,5.34-8.25,6.92-12.98,3.11-9.36,5.88-18.8,7.6-28.52.5-2.8.91-5.62,1.25-8.44.26-2.14.04-4.29-.54-6.38-.65-2.33-1.96-4.09-4.13-5.16-2.04-1.01-4.09-1.96-6.15-2.92-.92-.43-1.83-.9-2.56-1.61-1.27-1.23-1.02-2.44.64-3,.79-.26,1.6-.37,2.43-.42.94-.05,1.89-.15,2.82-.37,1.31-.29,1.62-1.08.93-2.23-.36-.58-.88-1.07-1.25-1.66-.81-1.25-.54-1.97.89-2.4.83-.25,1.72-.36,2.58-.55,1.78-.4,1.96-.99.77-2.41-.48-.58-1.05-1.09-1.55-1.66-.42-.48-.88-.94-1.19-1.47-.65-1.08-.44-1.78.74-2.25.87-.35,1.82-.51,2.71-.83,1.5-.55,1.75-1.36.66-2.52-.91-.95-1.99-1.74-2.96-2.65-1.47-1.4-1.51-1.71-.16-3.24.74-.83.93-1.75.75-2.8-.26-1.51-.83-2.91-1.53-4.27-.9-1.74-1.98-3.38-3.04-5.02-.36-.53-.68-1.07-.81-1.7-.14-.7.15-1.15.87-1.13.76.03,1.52.14,2.24.31,3.9.91,7.04,3.04,9.69,5.97,3.11,3.41,5.31,7.37,7.07,11.59,2.64,6.33,4.21,12.97,5.28,19.72,1.85,11.73,2.09,23.54,1.47,35.36-.87,16.45-4.27,32.4-9.91,47.87-2.97,8.13-6.17,16.16-9.97,23.95-1.17,2.39.03,4.2,2.76,4.14,1.33-.02,2.59-.31,3.83-.92,4.46-2.2,8.9-4.49,13.68-5.98,5.99-1.86,12.15-2.86,18.39-3.45,6.47-.63,12.97-1.01,19.48-1.09,1.12-.02,2.12-.24,2.98-1.01,1.05-.93,2.43-1.09,3.72-1.23,1.57-.17,2.54-.97,3.08-2.39.36-.95.68-1.91,1.04-2.85.24-.65.36-1.43.8-1.91,1.31-1.4,1.48-3.13,1.77-4.86.25-1.62.67-3.21,1.17-4.78.22-.67.44-1.48,1.25-1.49.99-.01,1.08-.47,1.11-1.26.21-4.93.33-9.86.34-14.79.01-4.24-.77-8.28-2.47-12.16-1.11-2.54-2.23-5.09-3.36-7.63-.71-1.65-1.27-3.31-.69-5.13.19-.64-.09-1.07-.52-1.51-2.26-2.23-4.7-4.22-7.62-5.53-1.1-.5-2.23-.86-3.44-.99-2.27-.25-4.22.41-5.98,2.08.24-2.54,1.8-4.2,4.15-4.66,2.76-.54,5.4-.05,7.98.95,3.19,1.26,5.77,3.36,8,5.91.38.43.66,1.34,1.41.94.62-.33.37-1.15.25-1.73-.64-3.36-2.08-6.11-5.7-7.08-1.05-.28-2.12-.24-3.21-.24-.62,0-1.22.19-2-.09.53-.91,1.36-1.31,2.21-1.66,3.78-1.57,8.18-.34,10.67,3.02,2.06,2.77,2.74,5.92,2.44,9.31-.05.56-.27,1.09.25,1.58,1.59,1.52,2.14,3.53,2.61,5.58.7,3.02.98,6.11,1.07,9.2.19,7.35-.39,14.65-1.29,21.94-.05.36-.33.82.03,1.07.6.41,1.28.77,1.96,1.02.35.13.49-.31.53-.63.12-.81.19-1.64.3-2.44.16-1.12.38-1.27,1.47-1.21,2.5.14,2.7-.09,2.26-2.53-.06-.37-.31-.69-.17-1.13.27-.28.56-.04.84.02.47.14.99.54,1.31-.1.27-.55-.22-.93-.56-1.29-.43-.45-.91-.88-1.32-1.34-.82-.96-1.15-2.12-1.06-3.36.1-1.3.6-1.61,1.86-1.26.74.21,1.43.52,2.16.7.8.19,1.61.38,2.44.14.33-.1.63-.25.61-.62-.01-.25-.23-.45-.48-.54-1.03-.34-1.99-.79-2.84-1.47-1.06-.84-1.92-1.82-2.25-3.31,1.05-.56,2.1-.3,3.13-.21,1.06.1,2.11.25,3.37.4-.8-1.16-1.89-1.49-2.92-1.86-.94-.34-1.94-.55-2.91-.79-.65-.16-1.16-.5-1.52-1.05-.39-.58-.53-1.29.08-1.7.73-.5.87-1.13,1.01-1.91.43-2.47,2.46-3.55,4.8-2.61,1.84.74,2.89,2.21,3.55,3.98,1.07,2.92,1.04,5.97.63,8.99-.51,3.76-2.1,7.12-4.2,10.25-2.27,3.38-5.02,6.33-7.94,9.14-.96.93-1.92,1.85-2.86,2.78-.58.56-1.2,1.08-1.18,2.06.02.6-.51.97-.92,1.39-2.7,2.75-4.05,6.19-5.03,9.83-.21.74-.03,1.25.53,1.83,1.11,1.15,1.11,1.8-.01,2.91-3.33,3.32-4.6,7.61-5.78,11.96-.11.43.02.73.24,1.04.6.9.37,1.68-.35,2.38-2.99,2.95-4.48,6.66-5.45,10.66-.16.64-.25,1.09.34,1.67,1.23,1.21,1.2,1.57.08,3.06-1.88,2.46-3.02,5.21-3.54,8.25,3.78.28,6.37-1.46,7.47-4.98.38-1.21.68-2.44,1.1-3.63.46-1.29,1.26-1.7,2.04-.32.67,1.17,1.71,1.67,3.1,1.85,2.35.32,4.36,1.41,6.11,3.61-2.33-.03-3.99.76-5.23,2.27-1.74,2.11-2.72,4.54-2.99,7.26-.05.5-.03,1.01-.02,1.5.11,2.76,1.14,4.01,3.85,4.58,1.04.22,2.11.28,3.02,1.02-.37.95-1.15,1.39-1.85,1.89-1.07.78-2.2,1.48-3.24,2.31-1.46,1.17-2.16,2.69-2.16,4.62-.01,5.81.3,11.63.37,17.44.01,1.49.66,2.23,2.06,2.14.28.73-.11,1.03-.38,1.33-1.15,1.32-1.52,2.86-1.46,4.57.25,6.89.24,13.77.17,20.67-.07,7.15-.38,14.27-1.45,21.35-.7,4.67-1.98,9.13-4.44,13.2-.29.49-.51.99-.63,1.56-.14.75-.18,1.22.65,1.69,1.27.7,1.3,1.54.28,2.59-1.23,1.29-2.77,2.18-4.35,2.99-5.08,2.63-10.49,4.32-16,5.71-5.45,1.36-10.97,2.36-16.68,3.17.45,1.01,1.33,1.54,2.06,2.19.94.83,1.94,1.62,2.92,2.39.54.42.52.78.06,1.23-.79.83-1.73,1.47-2.7,2.08-2.83,1.79-5.84,3.27-8.76,4.88-2.22,1.2-4.42,2.44-6.45,3.95-1.45,1.08-2.17,2.4-1.93,4.23.16,1.19.16,2.39.41,3.57.3,1.35.19,1.53-1.18,1.81-2.3.46-4.59.88-6.91,1.2-6.56.92-13.17,1.6-19.77,2.11-2.94.24-5.93.15-8.88.56-1.8.26-3.64.3-5.7.87,2.66,2.18,5.27,4.01,8.09,5.57,2.5,1.4,5.18,2.35,8.05,2.59,1.77.14,3.53.11,5.31.12,3.29.01,6.56.11,9.8.75.63.12,1.22.31,1.82.53,1.61.62,2.66,1.66,2.59,3.52-.02.65.15,1.25.52,1.8,3.01,4.52,5.05,9.46,6.67,14.6.31.99.74,1.33,1.74,1.15,4.1-.73,8.1,0,11.93,1.31,8.32,2.84,16.37,6.29,23.92,10.85,2.5,1.49,4.85,3.19,7.07,5.07,1.07.91,2.05,1.91,2.77,3.11.72,1.18.5,1.9-.74,2.38-.47.19-1.04.17-1.06.84-.02.67-.2,1.36.45,1.93,4.19,3.56,6.79,8.28,9.32,13.03,3.71,6.97,6.79,14.25,9.86,21.53.1.23.19.47.28.69.81,2.13,1.54,4.33,4.07,5.1-1.27,1.65-1.29,1.66-.53,3.49,1.64,3.91,3.31,7.8,4.88,11.73.76,1.89,2.07,2.87,4.02,3.31,1.4.3,2.91.21,4.25,1.15-.22.87-1.01,1.2-1.61,1.67-2.15,1.61-2.47,2.72-1.34,5.19.94,2.09,2.48,3.64,4.46,4.76,1.43.82,2.93,1.06,4.81.23-.37,1.98-1.34,3.26-2.65,4.18-1.14.79-2.1,1.58-2.3,3.03-.1.73-.56.76-1.1.48-.23-.11-.43-.26-.69-.05-.27.58.19.78.55,1.01,2.63,1.7,5.42,2.97,8.62,3.13,1,.05,1.91.16,2.1,1.42.06.41.51.52.82.73,2.92,1.82,5.91,3.39,9.49,3.4,1.19.01,1.66.43,1.67,1.6.01.97.52,1.32,1.19,1.73,2.47,1.47,5.11,2.49,8.01,2.6,1.04.04,1.8.38,1.79,1.48-.01.87.5,1.22,1.07,1.62,5.2,3.74,9.99,7.95,14.49,12.49,2.19,2.21,4.21,4.55,5.92,7.15,1.04,1.59,2.01,3.24,2.05,5.22.01.79.61,1.06,1.05,1.47,2.59,2.39,3.75,5.29,3.24,8.85-.42,2.91-3.12,5.44-6.05,5.59-.09,0-.18-.15-.38-.32.79-.7,1.62-1.34,2.28-2.18,2.35-3,1.26-5.98-.49-8.34-.21-.26-.47-.45-.81-.31-.39.15-.29.52-.28.81.08,1.89.1,3.79-.39,5.65-.74,2.9-2.07,5.42-4.49,7.28-1.79,1.36-3.35,1.38-5.33.03,4.02-.39,5.57-3.12,6.46-6.44.49-1.78.71-3.59.74-5.44,0-.6-.02-1.1-.62-1.46-1.33-.79-1.94-2.1-2.45-3.5-.86-2.31-1.71-4.61-2.6-6.91-1-2.57-2.49-4.81-4.37-6.81-2.83-3-5.75-5.87-8.73-8.72-.52-.5-.91-.91-1.75-.36-.61.41-1.32-.12-1.92-.45-2.56-1.44-4.86-3.19-6.84-5.35-.38-.42-.77-.83-1.18-1.25-1.08,1.6-1.21,1.65-2.83.76-2.97-1.64-5.57-3.71-7.76-6.29-.37-.43-.75-.84-1.15-1.26-.02-.04-.11-.04-.23-.08-.12.36-.24.7-.35,1.07-.45,1.71-.91,1.92-2.51,1.03-2.89-1.6-5.48-3.62-7.66-6.14-.37-.42-.74-.84-1.11-1.26-.11.08-.17.1-.21.15-1.09,2.08-1.36,2.14-3.31.69-2.21-1.61-4.17-3.49-5.82-5.67-1.2-1.6-1.22-1.6-2.95-.81-1.37.62-2.77.79-4.26.62-.97-.12-1.81-.57-2.44-1.32-.64-.75-.99-1.45-.38-2.52.93-1.65.56-3.42.01-5.14-.71-2.17-1.45-4.32-2.06-6.51-2.93-10.64-5.81-21.32-8.76-31.95-1.78-6.39-3.66-12.76-6.04-18.95-.24-.65-.54-1.28-.76-1.94-.3-.82-.67-.95-1.66-.89-3.41.22-6.83,1.36-10.29.15-1.25-.43-2.59-.69-3.68-1.46-2.37-1.69-5.1-2.43-7.91-2.99-4.33-.87-8.67-1.66-13.03-2.2-.44.39-.27.84-.19,1.26,2.84,14.32,3.82,28.8,3.84,43.37,0,4.86-.1,9.73-.15,14.6-.02,1.64-.03,1.66,1.49,1.93,3.91.7,7.2,2.7,10.18,5.18,4.62,3.87,8.54,8.42,12.41,13.03,3.63,4.31,6.96,8.84,9.54,13.88.92,1.8,1.82,3.61,2.14,5.63.29,1.86-.01,2.29-1.87,2.27-.6,0-.94.16-1.2.67-.29.55-.31.99.14,1.53,3.13,3.78,4.74,8.32,6.24,12.89,2.75,8.4,4.62,17.05,6.43,25.71.45,2.13.86,4.23,3.03,5.45-.37.75-1.34.73-1.43,1.52-.09.65.14,1.25.27,1.86.88,4.14,1.82,8.26,2.61,12.42.37,1.96,1.46,3.15,3.2,3.88.76.32,1.55.56,2.31.88.62.27,1.32.43,1.75,1.19-.48.8-1.4.97-2.13,1.35-2.07,1.07-2.56,2.06-2.13,4.28.47,2.4,1.75,4.3,3.54,5.91,1.3,1.18,2.86,1.47,4.69,1.28-.67,1.87-1.98,2.95-3.55,3.62-1.17.51-2.05,1.12-2.53,2.34-.37.91-.86.94-1.46.08-.68-.99-1.19-2.08-1.83-3.1-1.3-2.06-3.1-2.78-5.76-2.3,1.05,2.04,2.62,3.53,4.47,4.75,1.44.95,1.47.97,1.03,2.7-.14.53.08.83.33,1.19,1.73,2.54,3.76,4.79,6.58,6.13.93.44,1.67.92,1.42,2.12-.06.32.15.57.33.84,1.94,2.86,4.1,5.46,7.31,6.99,1.35.65,1.49.93,1,2.37-.23.67-.06,1.07.27,1.55,1.69,2.33,3.61,4.39,6.25,5.68,1.57.79,1.6.83,1.23,2.58-.16.76.27,1.2.58,1.72,3.77,6.44,7.02,13.15,9.43,20.23.8,2.33,1.44,4.71,1.7,7.17.12,1.07.31,2.23-.11,3.19-.54,1.21-.17,2.14.28,3.21.86,2.02,1.09,4.13.6,6.3-.9,3.9-4.61,6.39-8.39,5.61-.38-.09-.77-.13-.91-.61,1.08-.42,2.26-.69,3.29-1.33,2.5-1.54,3.67-5.23,2.49-7.84-.11-.23-.23-.47-.53-.48-.29-.02-.43.18-.53.43-.17.48-.35.95-.53,1.42-1.66,3.95-4.22,7.02-8.35,8.55-.34.13-.74.22-.94.58h-2.27c-.68-.88-2.13-1.01-2.49-2.5,3.56,1.23,5.98-.38,8.1-2.83,1.32-1.55,2.31-3.3,3.17-5.14.29-.61.4-1.14-.03-1.74-.73-1.03-.87-2.23-.8-3.45.08-1.57.16-3.15.26-4.73.17-2.85.32-5.71-.43-8.49-1.37-5.07-3.59-9.83-5.61-14.67-.1-.25-.22-.74-.56-.62-1.57.54-1.99-.77-2.64-1.6-2.02-2.62-3.39-5.59-4.4-8.75-1.66,1-1.87.96-3-.5-2.2-2.83-3.77-5.98-4.8-9.4-.1-.38,0-.92-.66-1.02-.14.18-.3.38-.45.57-.15.21-.26.43-.43.62-.67.76-1.18.79-1.92.11-.31-.3-.57-.68-.83-1.03-1.98-2.59-3.4-5.46-4.4-8.55-.15-.46-.11-1.01-.79-1.31-.13.17-.25.41-.44.56-.96.84-1.42.8-2.15-.16-.23-.3-.4-.65-.58-.96-1.49-2.46-2.51-5.1-3.22-7.87-.35-1.29-.37-1.33-1.67-.97-1.25.36-2.5.4-3.75.22-1.54-.23-2.72-1.01-3.36-2.47-.28-.65-.39-1.23.18-1.91,1.17-1.39,1.44-3.1,1.17-4.83-1.07-6.95-1.53-13.95-2.06-20.94-.8-10.46-1.5-20.92-2.76-31.35-.39-3.25-.92-6.5-1.56-9.72-.15-.84-.45-1.32-1.48-1.19-1.82.23-3.32-.57-4.59-1.83-.35-.36-.67-.71-1.22-.83-3.86-.87-6.64-3.26-8.8-6.42-1.13-1.65-2.43-3.05-3.97-4.28-3.13-2.46-6.4-4.74-9.7-6.96-.35-.23-.64-.64-1.23-.39-.18,1.46-.32,2.97-.55,4.47-1.42,9.91-3.82,19.58-7.19,29-2.78,7.81-5.86,15.48-10.47,22.44-5.74,8.67-12.05,16.85-20.01,23.66-1.92,1.64-3.92,3.04-6.35,3.63-3.18.75-5.84,2.32-8.09,4.63-.44.46-.96.83-1.44,1.25-1.3,1.15-2.79,1.92-4.47,2.37-3.86,1.04-7.76,1.73-11.73,2.06-4.79.39-9.56.74-14.18,2.1-2.51.74-4.95.68-7.45.02-2.67-.71-5.37-1.41-8.1-1.81-4.31-.63-8.66-.91-12.94-1.82-3.19-.67-6.29-1.51-8.51-4.13-2.08-2.46-4.63-3.81-7.92-3.73-1.74.04-3.12-.78-4.37-1.96-8.64-8.08-16.22-17.04-21.75-27.54-8.66-16.38-14.22-33.84-17.47-52.05-.09-.53.03-1.15-.68-1.57-2.21,1.59-4.47,3.21-6.72,4.83-2.52,1.82-4.73,3.89-6.51,6.53-1.82,2.73-4.46,4.65-7.68,5.55-.77.23-1.36.5-1.91,1.05-1.17,1.16-2.59,1.93-4.26,1.72-1.17-.14-1.61.3-1.73,1.36-.02.25-.08.5-.13.74-1.6,8.34-2.31,16.77-3,25.21-.49,5.73-.88,11.47-1.32,17.21-.5,6.36-1.04,12.72-1.87,19.05-.21,1.53,0,3.1,1.03,4.31.76.86.6,1.59.15,2.39-.68,1.26-1.81,1.95-3.18,2.14-1.26.17-2.5.13-3.75-.21-1.32-.37-1.38-.32-1.69.97-.7,2.91-1.83,5.64-3.39,8.2-1.09,1.75-1.44,1.8-2.99.4-.06-.06-.21-.06-.34-.11-.54,1.41-1.05,2.83-1.6,4.23-.88,2.19-2.17,4.15-3.58,6-1.16,1.51-1.68,1.47-2.85-.11-.2-.25-.34-.54-.66-.66-.06.09-.18.17-.23.29-.13.35-.24.71-.34,1.07-1,3.24-2.48,6.22-4.54,8.9-.41.54-.78,1.15-1.49,1.41-.7.26-1.01-.68-1.7-.53-.21.55-.39,1.08-.58,1.6-1,2.77-2.44,5.28-4.23,7.59-.42.54-.83,1.32-1.61,1.09-.93-.27-1.07.31-1.3.88-1.55,3.66-3.04,7.34-4.46,11.07-1.28,3.38-1.68,6.84-1.46,10.43.13,2.01.21,4.04.28,6.05.05,1.22-.04,2.43-.78,3.44-.38.54-.38,1-.12,1.57,1.08,2.31,2.33,4.49,4.16,6.29,1.88,1.84,4.02,2.83,6.7,2,.19-.05.37-.08.42.19-.46,1.16-1.73,1.36-2.51,2.15h-2.27c-.27-.49-.8-.56-1.26-.75-2.56-1.02-4.53-2.73-6.1-4.95-.94-1.35-1.65-2.83-2.19-4.39-.14-.38-.16-.97-.78-.89-.43.06-.51.52-.61.88-1.02,3.72.6,6.84,4.23,8.19.55.19,1.17.24,1.67.71-3.52,1.49-7.6-.38-8.94-4.08-.88-2.41-.76-4.86.22-7.22.48-1.18.87-2.22.29-3.55-.47-1.08-.22-2.37-.02-3.57.46-2.95,1.28-5.79,2.33-8.58,2.38-6.33,5.3-12.42,8.75-18.25.31-.51.78-.93.6-1.7-.41-1.76-.37-1.82,1.21-2.6,2.64-1.29,4.55-3.35,6.25-5.67.41-.56.45-1.04.2-1.73-.42-1.15-.22-1.6.91-2.11,3.24-1.49,5.41-4.07,7.36-6.92.21-.3.56-.57.47-.99-.34-1.22.43-1.68,1.36-2.12,2.88-1.38,4.93-3.68,6.7-6.26.25-.37.38-.67.19-1.19-.51-1.49-.48-1.57.86-2.43,1.56-1.01,2.91-2.22,4-3.74.27-.38.75-.71.52-1.38-2.63-.26-4.66.62-5.93,3.05-.5.95-.91,1.96-1.67,2.76-.49.52-.98.62-1.26-.19-.43-1.33-1.4-1.95-2.63-2.48-1.55-.66-2.78-1.79-3.57-3.62,1.96.26,3.44-.1,4.71-1.19,1.89-1.61,3.15-3.62,3.65-6.05.41-2.04-.18-3.17-2.08-4.15-.76-.4-1.67-.58-2.26-1.43.9-1.13,2.27-1.32,3.48-1.75,2.22-.8,3.52-2.23,3.96-4.6.76-4.04,1.65-8.05,2.52-12.05.29-1.3.5-2.49-1.48-3.13,2.37-1.35,2.83-3.4,3.28-5.57,1.82-8.58,3.66-17.16,6.38-25.51,1.48-4.57,3.1-9.11,6.14-12.94.41-.52.77-.91.37-1.66-.39-.7-.86-.73-1.55-.69-1.32.05-1.68-.38-1.65-1.7.05-1.41.57-2.71,1.14-3.97,1.51-3.37,3.36-6.52,5.49-9.51,4.18-5.89,8.96-11.28,14.01-16.44,3.44-3.51,7.24-6.49,12-8.02.73-.23,1.02-.64.92-1.39-.04-.3-.03-.63-.04-.94-.42-19.49.04-38.93,3.19-58.22.21-1.23.18-1.25-1.15-1.17-.26.02-.51.03-.76.08-4.35.75-8.71,1.46-13.06,2.26-2.91.54-5.74,1.36-8.26,3.06-1.7,1.15-3.74,1.43-5.73,1.85-2.7.58-5.22-.6-7.87-.5-1.49.05-1.52-.18-2.11,1.27-1.92,4.74-3.43,9.62-4.92,14.52-4.5,14.93-7.83,30.18-12.69,45.01-.52,1.58-.55,3.26.31,4.79.37.67.23,1.19-.14,1.74-.7,1.06-1.66,1.7-2.94,1.84-1.62.17-3.13-.14-4.58-.86-1.26-.61-1.3-.6-2.14.55-1.86,2.59-4.14,4.76-6.76,6.57-1.39.96-1.84.79-2.5-.78-.08-.16-.07-.38-.36-.4-.6.24-.88.83-1.29,1.3-2.2,2.49-4.76,4.52-7.69,6.09-1.51.79-1.99.54-2.4-1.07-.09-.35.05-.77-.37-1.02-.59.07-.76.61-1.06.96-2.25,2.61-4.83,4.82-7.85,6.48-.55.3-1.07.68-1.75.66-.77-.03-.63-1.04-1.32-1.23-.43.47-.87.92-1.3,1.38-1.95,2.1-4.23,3.77-6.74,5.18-.6.35-1.3.82-1.94.38-.76-.53-1.13-.12-1.59.33-3.1,2.98-6.18,5.97-9.1,9.13-1.69,1.84-3.03,3.89-3.93,6.22-.92,2.35-1.79,4.72-2.67,7.08-.51,1.39-1.14,2.7-2.43,3.53-.54.35-.68.83-.66,1.45.06,2.22.27,4.42,1.01,6.53,1.03,2.91,2.69,5.14,6.17,5.36-1.48,1.15-2.8,1.34-4.27.66-1.16-.55-2.09-1.4-2.88-2.4-2.4-3.02-3.23-6.51-3.14-10.29.01-.44.13-.89.08-1.32-.06-.49-.43-.61-.82-.31-.24.17-.43.44-.61.7-2.25,3.19-1.93,6.29.89,9,.39.38,1.05.6,1.17,1.43-2.86-.24-4.68-1.69-5.92-4-.29-.53-.27-1.27-.98-1.54v-3.04h0Z"/>
  </g>
</svg>