<?xml version="1.0" encoding="UTF-8"?>
<svg id="Layer_2" data-name="Layer 2" xmlns="http://www.w3.org/2000/svg" viewBox="0 0 387.65 654.5">
  <defs>
    <style>
      .cls-1 {
        fill:#808080
      }
    </style>
  </defs>
  <g id="Layer_1-2" data-name="Layer 1">
    <path class="cls-1" d="m363.14,647.26c-22.75-17.73-42.3-39.21-57.83-63.51-7.02-10.25-1.45-23.62,0-35.32,6.76-34.3,2.27-69.86-12.81-101.4-2.12-4.12-3.68-8.58-6.02-12.59-.67-1.45-2.79-2.12-6.8-5.01.41,31.07-1.08,62.15-4.46,93.04-2.35,27.27-8.97,54-19.61,79.22-4.13,9.12-9.37,17.69-15.6,25.52-18.02,24.94-52.85,30.55-77.79,12.52-2.98-2.15-5.74-4.59-8.23-7.29-23.73-22.28-32.2-51.59-39.11-81.67-4.5-18.84-6.89-38.13-7.13-57.49v-58.05c-8.66,2.44-15.27,9.47-17.16,18.27-10.17,29.12-11.56,60.58-4.01,90.48,8.25,29.3,8.02,56.49-17.27,78.89-9.94,7.85-16.58,19.14-18.61,31.64-5.53-13.48-1.7-28.98,9.47-38.33,9.1-8.72,14.18-20.82,14.04-33.43.13-22.65-1.58-45.27-5.13-67.63-4.23-41.67,0-81.45,29.64-114.21,3.83-4.67,5.52-10.73,4.68-16.71v-64.07c0-4.23,2.34-10.14-3.01-12.48-5.35-2.34-10.36,1.45-14.15,5.24-7.38,7.87-12.54,17.56-14.93,28.08-3.13,10.06-4.63,20.55-4.46,31.09,3.57,42.12-25.07,66.3-48.47,94.93-1.45-2.79-2.67-4.23-2.34-4.68,22.02-30.87,34.88-67.33,37.1-105.18,1.89-31.76,11.7-63.07,47.8-76.99,9.63-5.09,13.31-17.02,8.22-26.65-1.85-3.51-4.72-6.37-8.22-8.22-18.55-11.44-30.86-30.73-33.43-52.37-3.03-28.84-25.41-51.86-54.15-55.71-2.5-.75-4.87-1.87-7.02-3.34-1-.67-1.56-2.12-2.34-3.12,31.53-12.93,75.55,20.61,78,59.5.45,14.71.45,29.75,17.61,36.99,10.14,4.46,16.71,4.46,16.05-9.36-2.37-44.76,6.93-89.38,26.96-129.47,7.13-14.26,0-17.83-11.92-18.94-23.31-1.24-46.67.79-69.42,6.02C32.43,80.05,5.28,60.4.67,31.54.18,28.48-.04,25.38,0,22.28c2.86-1.44,6.34-.28,7.78,2.57.14.28.26.58.36.88,12.81,26.63,35.77,30.2,61.06,25.4,31.42-5.91,62.17-8.8,91.26,8.25,5.57,3.23,10.25,0,15.27-1.23,8.95-3.13,18.77-2.69,27.41,1.23,8.38,4.14,18.34,3.46,26.07-1.78,21.24-10.25,45.49-12.39,68.19-6.02,28.08,6.69,44.57,0,61.73-23.29,6.37-11.47,15.48-21.2,26.52-28.3,4.93,22.1-3.85,45.01-22.28,58.16-20.17,14.37-43.34,22.28-67.63,9.69-17.84-9.92-39.54-9.92-57.38,0-9.14,4.57-11.14,9.58-7.24,20.39,16.16,40.34,30.64,81.23,28.19,125.8-.67,12.37,6.24,10.03,12.15,5.35,12.81-10.03,16.38-25.29,20.5-40,9.84-38.06,46.47-62.84,85.46-57.83-7.5,6.75-17.11,10.69-27.19,11.14-20.2,3.5-35.95,19.43-39.22,39.67-5.68,27.41-12.37,54.82-39.11,70.75-9.69,5.91-6.46,27.3,5.46,30.86,37.22,11.14,50.59,38.78,55.71,74.43,6.57,40.55,25.66,78.03,54.6,107.19-24.18-9.36-50.36-43.12-56.83-71.76-4.46-19.5-8.25-39.22-12.03-58.83-2.01-10.14-26.3-26.52-36.21-24.51-5.91,1.34-4.46,5.68-4.35,9.36,1.93,25.95,2.3,52,1.11,78,0,7.02,5.01,10.59,8.58,15.15,22.28,28.97,37.1,59.95,31.42,97.94-.73,10.65-.73,21.33,0,31.98,0,30.86,5.13,59.61,26.63,83.68,8.11,8.68,13.99,19.19,17.16,30.64Z"/>
  </g>
</svg>