<?xml version="1.0" encoding="UTF-8"?>
<svg id="Layer_2" data-name="Layer 2" xmlns="http://www.w3.org/2000/svg" viewBox="0 0 587.75 654.5">
  <defs>
    <style>
      .cls-1 {
        fill:#808080
      }
    </style>
  </defs>
  <g id="Layer_1-2" data-name="Layer 1">
    <path class="cls-1" d="m179.64,355.17c5.49,6.9,11.69,4.44,16.95,2.45,13.73-4.22,28.65-1.89,40.44,6.31,55.87,32.14,82.98,81.81,92.33,143.88,4.36,23.94,7.09,48.15,8.18,72.46.47,10.13-1.5,20.23-5.73,29.45-9,18.35-23.38,20.22-35.88,3.97-19.62-27.3-35.35-57.2-46.75-88.83-17.92-44.74-40.9-87.29-68.49-126.81-8.18-12.39-17.53-22.67-36-19.28,8.06,11.69,15.31,23.96,23.38,35.06,33.43,45.35,44.3,98.06,50.96,151.94,3.04,16.77,3.04,33.95,0,50.72-1.88,13.86-9.68,26.23-21.39,33.89-8.77,6.7-21.31,5.03-28.02-3.74-.89-1.16-1.64-2.41-2.26-3.74-7.77-12.52-13.34-26.28-16.48-40.67-11.69-50.49-29.8-99.23-42.89-149.37-.94-3.39.7-11.69-8.42-7.36-2.1.94-2.57-2.92-1.75-3.97,11.69-14.14.94-27.82-1.29-45.58-9.35,20.57-28.63,26.65-41.73,39.97,4.68-22.56,35.65-24.19,36.47-49.44-5.03-2.81-10.52-2.81-15.9,5.26-3.51,5.38-31.44,6.43-35.06,1.17-4.78-5.35-10.86-9.38-17.65-11.69-2.81-1.17-6.66-3.39,0-5.03,1.4,0,2.92-2.1,1.64-2.57-15.43-4.56-2.34-15.66-5.26-23.38-2.92-7.71,8.65-18.12,22.21-18,4.56,0,8.88,2.22,13.44,2.57,4.56.35,10.87,2.92,11.69-3.04.44-5.75-3.38-10.96-9-12.27-7.6-1.29-15.43-1.64-23.38-2.34-13.16-1.62-25.27-8.03-34.01-18,18.19,10.54,39.32,14.89,60.19,12.39,5.11.27,9.92,2.49,13.44,6.19,3.51,3.04,8.18,6.66,11.69,3.04,3.51-3.62-1.4-8.18-2.69-11.69-1.29-3.51-7.01-7.01-10.87-10.17-11.12-6.47-18.49-17.84-19.87-30.62,5.21,12.81,16.25,22.33,29.69,25.6-7.67-28.88-13.37-58.24-17.06-87.89-3.16-48.04-25.36-89.53-39.62-133.82-1.52-4.79-3.16-9.58-4.68-14.38-6.78-22.21-3.62-26.06,19.87-23.38,12.99,3.19,24.64,10.39,33.31,20.57,40.79,36.47,56.92,84.15,63.11,136.75,3.24,24.06,3.78,48.4,1.64,72.58,5.26,1.29,5.96-2.57,6.31-5.14,5.82-29.8,6.92-60.32,3.27-90.46-6.66-38.1-2.34-77.02-8.42-115.24-1.99-12.74-4.44-25.36-5.96-38.1-1.52-12.74,3.97-17.77,16.95-14.38,13.11,4.25,24.61,12.41,32.96,23.38,27.41,32.07,42.93,72.6,43.95,114.77,1.58,42.31-4.15,84.58-16.95,124.94-3.24,14.07-12,26.24-24.31,33.78-2.06.97-3.86,2.41-5.26,4.21-3.04,4.44-7.83,9.23-4.91,14.73,2.92,5.49,8.3,2.57,12.74,2.1,42.93-4.51,85.44-12.33,127.16-23.38,71.98-20.36,145.9-33.05,220.55-37.87,13.24-1.44,26.39-3.63,39.39-6.55,9.35-1.52,6.66,9.35,11.69,12.86,2.22,1.52-4.44,4.32-7.48,5.73-68.34,29.19-139.78,50.48-212.95,63.46-40.99,8.54-82.89,11.8-124.71,9.7-21.53-1.1-43.01,3.12-62.53,12.27Zm-37.05-78.54c-14.73,6.43-15.66,18.47-16.83,30.27,0,3.74-.94,7.6,4.68,7.83,3.66.39,6.94-2.26,7.33-5.92.02-.17.03-.34.03-.51,1.52-10.17,3.04-20.45,4.79-31.67Z"/>
  </g>
</svg>