<?xml version="1.0" encoding="UTF-8"?>
<svg id="Layer_2" data-name="Layer 2" xmlns="http://www.w3.org/2000/svg" viewBox="0 0 654.5 406.99">
  <defs>
    <style>
      .cls-1 {
        fill:#808080
      }
    </style>
  </defs>
  <g id="Layer_1-2" data-name="Layer 1">
    <path class="cls-1" d="m.52,404.86s-.06-1.44.34-2.08c.42-.62,3.52-1.61,4.68-2.08,1.17-.52.81,0,1.09.66.3.7-.11.77,1.41.9,1.53.16,2.55-1.21,3.87-1.88,1.3-.67,1.38-1.03,1.97-1.28.57-.24,1.27-1,1.92-.8.61.17.65.5.69,1.07,0,.55-.14,1.29.59.85.73-.41.57-1.37,1.74-2.1,1.16-.71,1.81-1.01,2.66-1.47.81-.46,2.03-.84,2.51-1.06.47-.19.44.83.44.83,0,0,.03,1.13.78.46.76-.64,1.24-1.89,2.12-2.82.84-.93,2.27-1.87,4.08-2.75,1.77-.85,3.73-2.38,5.03-2.59,1.27-.21,1.55-.31,1.33.45-.24.79.26,1.17.68.52.41-.64.77-1.37,1.4-2.53.64-1.19,5.72-5.02,8.12-6.87,2.43-1.82,10.78-8.43,12.69-9.84,1.91-1.37,2.36-1.67,2.98-2.04.65-.4.15-.53,1.02-.56.91-.02,1.88-1.23,1.88-1.23l.52.45s.27-1.25.52-2.27c.24-1.01,9.06-22.05,11.95-28.39,1.57-3.46,8.41-19.87,14.52-33.54,5.1-11.4,9.77-20.73,9.77-20.73,0,0,.6-.48,1.06.35.47.83.47.6,1.57,1.04,1.12.44,1.87.56,2.49.98.63.42.77,1.06,1.73,1.45.97.36,1.9.68,3.09,1.06,1.19.42,2.43.69,3.53.9,1.13.21,1.9-.13,2.36.13.46.28,3.52,1.59,5.69,2.16,2.18.56,4.31.78,6.24.52,1.95-.24,2.52.29,3.2.81.68.51,1,1.85,2.21,2.25,1.19.43,1.96.07,2.97-.22,1.01-.33,2.25-.29,3.08-.5.81-.28,6.05-1.36,7.29-1.65,1.25-.3,7.33-2.31,7.33-2.31,0,0,.21.82.59,1.7.38.87.31.75,1.64.66,1.32-.09,3.63-.87,5.79-1.65,2.17-.8,6.93-2.48,8.06-2.75,1.16-.24,2.26-.6,2.26-.6,0,0,1.71.31,2.72,0,.99-.32,1.7-.28,2.3-.42.63-.16,1.74-.52,2.43-.71.75-.2.53.14,1.61,0,1.1-.1,1.02-.3,1.88-.45.85-.13,1.65.43,3.1.6,1.45.21,1.86.38,3.22.14,1.4-.26,1.33-.68,2.68-.69,1.34-.01.87.43,1.85.01.95-.39,2.68-1.47,4.76-2.69l8.9-5.26s1.94.53,3.95.71c2.02.18,3.35.4,4.62.45,1.28.01,2,.18,2.67.09.66-.04.5.14,1.3.14s1.45-.03,2.32-.18c.82-.13,3.36-.65,4.2-.52.84.08,1.95-.27,2.19.06.26.35.4.65.97.41.57-.24.5-1.01.5-1.01l4.12-1.77c1.65-.69,1.57-.89,1.55-1.44-.01-.56.68-.87,1.63-1.25.97-.41,2.68-1.26,2.98-2.64.33-1.4.51-2.26,1.12-3.53.58-1.29,4.1-8.57,4.6-9.81.49-1.24.87-1.19,1.54-.66.67.51,1.06,1.72,1.32,2.28.23.57.96,1.75,1.85,2.5.9.76,1.92.22,2.85-.84.9-1.08,1.42-1.19,2.17-1.83.75-.67,2.07-1.81,2.33-1.45.27.32,1.41,2.02,2.12,3.67.7,1.62,1.22,2.32.95,2.99-.29.71-.46,2.13-.77,3.28-.3,1.17-.21,1.7.43,2.32.59.66.57.33.97.98.38.62.14,1.64.4,2.52.27.94.33,1.59-.29,2.54-.6.95-1.04,2.6-1.07,3.87-.05,1.26-2.18,6.17-3.43,10.44-1.23,4.28-4.86,16.98-6.01,20.98-1.12,4.01-3.85,15.55-5.27,21.05-1.43,5.51-4.36,14.62-5.27,17.03-.9,2.44-1.31,3.31-1.74,4.28l-.55,1.37s-.72.67-.02.69c.7.05-.08.4-.36,1.3-.29.93-.96,2.59-1.43,4.15-.46,1.57-2.77,8.23-3.72,10.57-.93,2.32-1.79,4.87-2.7,5.71-.88.82-1.03.99-.71,1.77.34.77.62,1.43.36,1.92-.28.44-1.39,3.17-2.14,4.05-.76.92-.81,1.59-1.48,2.21-.63.64-.7.76-.34,1.55.31.75-.39,1.27-1.17,2.06-.79.81-1.18,1.76-1.89,2.3-.69.52-.19.87-.08,1.41.1.5-.6.69-.82,1.25l-.32.79s-.89.17-1.69,1.19c-.8,1.04-1.38,2.41-1.38,3.43-.02,1.03-.71,2.38-1.21,2.79-.51.44-1.14,1.4-1.28,2.36-.15.98.35,1.92,1.43,1.23,1.09-.69,1.37-.81,1.64-2.07.26-1.25.87-2.76,1.41-3.09.53-.34.73-.2,1.09.45.39.62.53.11,1.05-.23.54-.34,1.52-1.23,1.96-2.66.41-1.42.16-2.31.29-3.29.16-1,1-.89,1.46-1.09.48-.2,1.17-.46,1.41-2.87.25-2.39.07-2.55.79-2.95.74-.45,1.7-.03,1.94-2.66.27-2.61,1.45-5.73,2.2-7.19.74-1.44,1.65-2.29,1.37-3.2-.27-.9,3.68-11.69,4.94-14.39,1.24-2.69,1.77-3.03,2.37-3.52.59-.47.91-1.06,1.4-1.28.49-.19,1.05-1,.66-2.19-.42-1.19,4.41-17.49,5.92-23.36.87-3.51,3.33-12.97,5.93-21.87,1.95-6.58,4.16-13,5.17-15.99,2.37-7.03,4.66-13.93,5.1-15.59.42-1.67,1.4-3.67,1.63-4.76.2-1.13.34-1.32,1.2-2.01.83-.7,1.12-1.38,1.53-2.02.4-.63.57-1.59.07-2.75-.49-1.17-1.77-5.51-2.86-7.8-1.09-2.26-3.45-8.89-3.83-10.89-.4-2-1.53-5.7-1.53-5.7,0,0,.83-.28,1.93-1.4,1.1-1.16,1.28-1.81,1.45-3.02.17-1.21.56-1.83,1.15-2.65.55-.8,1.73-5.07,3.52-9.36,1.83-4.28,5.36-15.03,6.1-17.28.78-2.25,1.19-3.12,1.5-2.13.31,1.02,1.37,4.33,1.83,5.37.44,1.09,1.4,4.08,2.23,5.56.85,1.48.48,2.19,1.19,2.8.71.6,1.26,1.86,1.72,2.44.47.62,1.28,1.06,2.97,1.85,1.69.78,3.69.05,5.22-.84,1.52-.91,3.14-1.92,4.37-2.54,1.24-.67,3.12-1.31,3.99-1.83.9-.49,1.7-1.14,2.25-1.77.54-.64,4.17-2.72,5.27-3.34,1.12-.59,2.68-2.35,3.16-2.45.53-.07,2.7-1.4,3.47-1.18.76.22.17-1.85.17-1.85,0,0,3.98-2.76,5.89-4.42,1.91-1.61,25.34-18.65,29.82-21.91,4.45-3.26,15.6-11,15.6-11l7.42,17.45c1.76,4.15,4.76,7.39,5.58,8.94.79,1.57,2.28,2.85,2.8,4.69.49,1.81.79,3.18,1.93,3.92,1.15.77,1.55,1.4,2.36,2.01.8.6,2.6,2.6,4.42,3.31,1.8.75,2.72,1.29,4.29,2.14,1.57.82,4.38,3.75,5.56,4.72,3.95,3.22,8.61,5.91,13.03,7.58,4.38,1.68,9.66,2.56,10.77,2.92,1.1.34,1.4.36,1.86,1.14.45.73,2.06,5.79,2.68,5.67.63-.14-.77-2.41.22-2.98,1.01-.54,2.2,1.26,3.1,2.78.93,1.54,4.82,7.51,5.54,7.62.74.09-3.66-7.06-4.23-9.65-.56-2.64-.54-3.6.57-3.8,1.16-.21,2.04,1.88,2.04,1.88,0,0-1.34-2.84-.11-3.77,1.24-.95,2.7-1.02,3.18.14.51,1.17,1.35,4.47,1.83,4.27.45-.19.34-3.69.71-4.39.39-.72.87,1.41,1.44,1.16.58-.24-.7-2.3.61-2.71,1.33-.44,1.64-.02,2.2.96.56,1.01,1.49.63,1.49.63,0,0,.39.91.96.67.58-.23.67-1.66.67-1.66,0,0,1.15-.2,1.73.23.57.43,1.54-.52,1.32-1.37-.22-.84.84-1.86,1.15-1.46.33.41.03.68,1.06,1.2,1.03.51,1.73.21,2.19.01.46-.18.07,1.19,1.25,1.38,1.18.19,1.83-.23,1.44-1.44-.38-1.21-.01-3.53.92-2.96.93.55.1.23,1.23.97,1.15.75,1.44.5,2.23.16.82-.35.67.26,1.34,1.2.68.94.93.83,2.16.85,1.23.03.39,2.28.64,4.77.25,2.5,1.31,7.88,2.08,10.05.75,2.11,1.29,3.65.96,4.47-.32.83-.96,1.23-.3,2.18.67.95,1.22,1.65.93,2.18-.32.57-1.7,2.12-.4,2.92,1.28.82,1.62.94,1.37,1.98-.22,1.06-1.16,2.02-.17,3.12,1.01,1.05,1.43,2.11.94,2.86-.48.75-.77,1.4.33,2.05,1.07.61,1.49,2.22.63,3.41-.84,1.17-.61,1.75.18,2.37.81.61,1.23,1.95.96,2.88-.27.94-.27,1.61-.74,2.75-.45,1.17-.48,1.72.59,1.4,1.09-.34,1.05.23,1.03,1.48-.02,1.24-.32,2.45-.41,3.84-.09,1.43-.8,2.27-1.97,3.04-.6.38-5.02,4.4-8.79,8.99-3.67,4.52-6.79,9.51-8.2,11.72-1.31,2.06-1.12,1.82-2.08,3.06-.98,1.24-1.01,1.78-1.16,2.4-.18.6-3.3,6.05-4.08,6.79-.77.73-1.4,1.24-1.47,1.98l-.22,1.45s-1.07,2.24-2.04,3.2c-.95.95-1.74,1.68-1.87,2.68-.1,1.02-.95,2.22-1.51,3.12-.59.92-1.12,2.23-2.1,2.79-1.01.55-2.11,1.83-1.89,2.97.22,1.14-1.33,3.56-2.14,4.58-.79,1.04-1.13,2.13-.03,2.49,1.1.35.75-1.41,1.62-2.62.87-1.15,1.42-2.05,2.72-3.17,1.32-1.1,1.32-1.41,1.73-3.34.41-1.95,2.1-4.99,3.01-5.77.89-.79,1.19-2.97,1.68-3.71.51-.77,3.11-4.89,4.44-7.2,1.33-2.36,3.11-4.58,3.6-5.35.47-.76.96-.95,1.35-1.94.4-.99.43-1.53.93-2.3.48-.77,7.42-12.03,11.85-16.37,4.45-4.34,5.68-5.25,7.42-6.29,1.74-1.02,1.65-.57,1.98.52.35,1.1,1.3,3.69.89,4.97-.42,1.25-.19,2.4.44,4.17.6,1.77.23,3.84-.32,5.7-.56,1.9-1.09,2.92-.95,3.54.15.64.72.39,1.48-1.03.75-1.4,2.12-5.24,2.7-9.99.55-4.77.91-11.31.16-15.35-.77-4.04-2.08-18.08-3.53-26.32-1.47-8.25-4.28-20-5.57-25.32-1.31-5.3-1.71-6.9-2.06-8.01-.29-1.07-.17-2.36-.97-2.03-.82.36-1.37-.91-2.16-2.49-.82-1.56-1.95-2.99-3.57-3.23-1.61-.29-3.77-2.32-7.31-4.02-7.35-3.55-14.2-5.26-26.61-6.56-12.4-1.29-18.98-2.46-22.46-3.15-5.66-1.14-13.54-.79-13.54-.79,0,0-.2-2.39-1.76-5.12-1.57-2.75-4.5-6.43-5.44-8.33-.95-1.91-3.68-7.7-4.53-10.07-.89-2.38-3.04-8.39-3.04-8.39,0,0,5.95-3.63,7.47-4.25,2.2-.94,1.75-1.97,1.75-1.97,0,0,.38-.73,1.72.23,1.34.91,6.71,4.89,10.57,8.19,3.84,3.27,12.69,10.56,16.91,14.76,4.23,4.21,6.69,7.09,7.97,8.19,1.28,1.13,1.9,1.91,2.55,2.48.63.54,1.89.3,1.89.3,0,0,1.79.33,3.91.5,2.12.2,5.01.33,7.03,1.52,2.02,1.19,2.69.88,4.02,1.44,1.31.53-.11-.9.69-1.26.8-.34,1.77-.74,2.5-.51.79.21,3.89.81,5.69.88,1.79.04.55-.93,1.05-1.7.5-.75,1-.83,2.06-.6,1.06.22,2.46.33,3.97.36,1.51.04.26-.66.49-1.44.21-.77,1.42-.46,2.52-.1,1.12.34,2.94.5,4.66.33,1.69-.17.99-.56.35-1.4-.61-.8-.99-1.05.15-1.25,1.13-.24,2.3-.31,3.28.64.93.96.66.96,1.46.89.78-.06,1.57.82,1.57.82,0,0,.42-1.26-1.09-2.26-1.52-.99-3.63-1.46-5.36-1-1.69.46-4.27,1.42-5.49,1.78-1.21.36-2.72,1.3-3.14.64-.42-.64-.57-.7-1.43-.46-.84.21-4.22,1.91-4.22,1.91,0,0-.75-.76-1.66-.38-.93.39-3.15.66-4.67.87-1.52.26-5.42-.26-7.6-.56l-8.69-1.21s-1.52-1.67-3.75-3.72c-2.24-2.07-11.49-10.68-15.25-14.41-3.76-3.72-16.58-14.36-17.76-15.23-1.21-.85-1.92-.96-1.92-.96,0,0-.75-1.48-2.53-2.47-2.52-1.41-6.26-.9-6.26-.9,0,0-1.16-.45-2.32.32-1.16.74-1.16,1.43-1.74,1.67-.55.24-4.56,2.07-4.56,2.07,0,0-1.46-4.7-2.2-6.45-.73-1.72-4-10.46-5.15-14.73-1.15-4.28-3.07-11.08-4.47-14.99-1.38-3.89-2.8-8.22-3.7-10.01-.91-1.8-1.51-2.91-2.33-2.96-.84-.05-1.1-2-1.5-2.91-.41-.94-.63-2.74-1.45-2.14-.8.64-1.16,1.19-1.98.83-.81-.31-.94-1.89-.98-2.97-.05-1.06-.98-2.31.27-2.57,1.27-.23,4.16-.11,5.8.15,1.61.27,3.41,1.69,5.01,3.18,1.61,1.51,3.96,5.44,5.38,7.55,1.45,2.11,2.9,4.22,4.82,5.58.97.68,9.04,5.66,17.39,10.01,8.53,4.42,17.36,8.22,21.43,9.81,3.53,1.38,12.04,5.25,18.77,7.48,8.39,2.75,11.24,3.53,17.49,4.8,4.35.85,4.11,1.67,6.94,1.55,2.8-.1,2.01-.72,3.49-1.36,1.49-.65,2.72-.33,3.8-.36.5-.03,6.7.11,15.01-2.11,8.57-2.29,17.47-7.07,17.47-7.07,0,0,2.75.08,4.05-.09,1.29-.13,2.74-.32,2.74-.32,0,0-.23.79.48.87.75.13,1.07-.72,1.07-.72,0,0,.48-.48,1.01.13.51.59.24-.1,1.13-.19.9-.13,1.45-.77,2.52-.82,1.07-.03.93.3,1.52,1.01.56.71,1.2.29,1.47-.36.27-.66.42-.59,1.45-.76,1.03-.17,1.71-.17,1.71-.17,0,0,.24,1.53.75,1.17.53-.36-.08-1.18.77-1.41.85-.21,1.4.07,2.21.7.8.61.65-.41,1.23-.94.63-.54,1.74-.76,2.42-.08.71.68.24.6,1.03.54.79-.09-.36-1.24,1.06-1.43,1.4-.16,1.52.44,1.99,1.22.46.74.22.18,1.14-.9.9-1.05,2.55.55,3.59,1.06,1.02.53,5.54,4.08,6.49,4.08s-.16-.33-1.37-1.61c-1.22-1.26-2.28-2.46-2.41-3.77-.15-1.27,1.94-1.49,3.19-.78,1.26.69,5.12,2.03,7.56,2.65,2.42.6,4.26.79,4.26.79,0,0-5.6-2.26-7.44-3.12-1.88-.85-2.75-2.24-.81-3.2,1.9-.95,2.74.06,4.89.93,2.13.88,16.25,6.17,16.25,6.17,0,0-5.13-3.4-7.15-4.6-2-1.19-5.78-2.72-5.78-2.72,0,0-.65-1.23-1.18-.85-.54.33-.92-1.82-.92-1.82,0,0,.85-.89,1.98-1.1,1.15-.2,1.3.16,1.86.87.58.7,2.05,2.25,2.05,2.25,0,0-1.23-3.55-.55-3.58.67,0,2.1,1.45,3.27,2.29,1.19.87,2.87,1.93,2.51,1.39-.25-.34-.79-1.55-1.09-2.25l-.24-.58,1.41-.19,1.41.74s-1.45-1.81-1.66-2.28c-.2-.46.1-1.7.76-1.42.66.29,1.69.11,2.16.88.44.76,1.75.9,1.75.9l2.51-.14s-2.39-.49-3.06-1.15c-.69-.66-1.25-1.66.09-1.68,1.36-.03,5.06,1.95,5.06,1.95,0,0-2.29-3.14-1.79-3.61.47-.47,2.25-.13,3.07.2.84.33,5.11.14,5.11.14,0,0-2.85-.57-3.61-1.06-.74-.49-.68-1.32.63-1.74,1.32-.43,1.74-.07,2.27.52.52.6,2.84,1.25,2.84,1.25,0,0-2.61-3.24-1.96-3.65.66-.44,2.79.43,4.79.68,2.02.24,3.97-.32,3.41-.35-.56-.02-2.03-.21-3.06-.76-1.04-.51-1.09-1.28.13-1.67,1.19-.39,1.19-.09,2.73.33,1.53.46,3.13,1.29,2.7.9-.45-.35-1.86-1.14-2.12-2.38-.26-1.25.64-1.08,2.04-.99,1.4.08,5.16,0,5.16,0,0,0-3.03-.76-3.37-1.18-.3-.42-.4-1.33,1.23-1.61,1.66-.31,4.99,1.14,4.99,1.14,0,0-1.85-1.63-1.76-2.52.18-1.85,4.31.77,4.31.77,0,0-1.7-1.71-1.19-2.5.46-.74,2.23-1.07,3.11-.63.89.46,2.19,1.92,2.92,1.74.75-.16-1.46-2.49-1.13-3.34.32-.8,1.97-1.09,3.95-1.26,1.97-.15,4.35-.08,5.1.16.77.22.7,1.34,1.28,1.07.57-.22.8-.98.8-.98,0,0,2.47-.94,4.34-2,2.85-1.62,1.92-6.41,1.92-6.41,0,0,1.07-.71,1.19-.07.1.62.36,1.48,1.07,1.58.74.07,1.21-.69,2.23-.55,1.01.13,1.51.04,2.14.87.64.83,1.58,3.44,1.83,4,.24.56-.04,3.14-.04,3.14l.82-1.3s.34.81.47,1.44c.13.64.11,1.87.11,1.87l.96-.94.71,1.32s-.15,1.3.09,2.17c.22.83.13.9.13.9l.91-1.64,1.05,1.47.14,3.22,1.25-1.9.7,1.71s-.2.88-.1,1.65c.1.75.28,1.71.28,1.71,0,0-.13-1.09.55-1.64.7-.49.85-.13.85-.13,0,0,.73,1.19.69,1.66-.02.45-.32,2.43-.04,3.1.29.66.47-1.56.97-1.77.46-.21.91,1.06,1.07,1.47.18.38.06,3.38.06,3.38l.84-2.28,1.06,2.5-.38,3.13,1.5-2.12s.39,1.21.53,1.81c.16.62.18,4.16.18,4.16,0,0,.34-.74.81-1.04.45-.31.69.84.5,1.74-.19.87-.79,3.51-.11,3.23.7-.29,1.02-1.92,1.41-2.08.38-.16.57,1.09.63,2.01.05.88-.08,3-.34,4.02l-.44,1.65s.91-2.19,1.54-2.81c.64-.63.96-.06.82.9-.14.98-1.04,5.17-2.77,8.31-1.75,3.15-3.55,6.12-4.67,7.11-1.13.98-2.84,2.21-2.84,2.21,0,0,2.77-1.17,5.6-3.73,2.85-2.57,4.33-5.08,4.33-5.08,0,0,.26.57.14,1.48-.14.91-.43,2.24-.08,3.44.34,1.24.27,1.08.88,1.69.58.62.49,1.16.42,2.57-.08,1.39-.74,2.69-.43,3.42.29.71.77,1.02.77,1.02,0,0,.53,1.66.14,2.67-.43,1.04-.31,1.33-.06,1.92.25.59.38.85.07,2.18-.29,1.33.15,1.14.84,2.4.71,1.25.67,1.58.41,2.54-.27.98-.03,1.54-.03,1.54l1.11-1.81.38-2.72s.31-1.67.25-3.02c-.04-1.34-.56-3.35-.56-3.35,0,0,0-1.18-.19-2.47-.21-1.28-.11-2.69-.11-2.69,0,0-.4-1.72-.19-2.81.22-1.14-.65-2.3-.59-3,.06-.72-.21-3.35-.3-4.32-.07-.99-.88-4.07-.88-4.07,0,0,2.51-5,3.03-10.17.54-5.18-.6-8.28-1.79-11.88-1.18-3.59-8.06-16.56-11.29-19.78-3.26-3.22-6.3-5.55-7.29-6.66-.99-1.1-2.99-3.64-5.52-4.99-4.43-2.4-10.77-1.25-10.77-1.25,0,0-.02-1.68-2.85-1.87-2.8-.16-7.59-.18-14.55,1.07-6.98,1.25-18.39,4.53-24.45,5.94-6.07,1.38-11.09,2.82-15.48,4.52-4.41,1.67-17.85,6.18-24.61,8.37-6.75,2.19-21.39,6.69-29,9.24-7.63,2.55-19.97,7.65-24.91,10.08-4.95,2.44-6.82,3.23-7.42,5.02-.62,1.8-2.12,3.47-3.5,4.21-1.4.76-1.69.91-2.86-.66-1.18-1.56-2.9-2.01-4.75-2.78-1.86-.73-5.59-.69-8.55-.79-2.95-.11-12.49-2.92-18.78-5.7-6.32-2.79-23.25-11.32-28.62-15.18-5.4-3.86-13.52-9.29-18.59-11.58-5.06-2.29-9.44-4.19-11.95-4.84-2.51-.63-5.52-1.4-6.68-1.26-1.13.14-1.67-.31-1.98-1.03-.3-.74.53-.75-.72-.9-1.25-.16-1.42.26-1.66-.67-.22-.93-.87-1.68-.14-1.98.7-.3,1.49-.49.97-.94-.54-.44-1.38-.78-1.32-1.47.04-.71.83-2.07,1.43-2.69.61-.57,1.95-.63,1.95-.63,0,0-1.32-1.5-.83-2.39.47-.91,1.1-.98,1.56-1.52.46-.54.51-1.24,1.02-1.62.5-.4,1.03-.78,1.61-1.04l1.3-.56s1.26,1.37,3.24,3.26c2.01,1.88,2.62,2.12,3.71,2.69,1.09.55.51.81,2.16,1.8,1.62,1.03,3.1,1.56,5.4,2.69,1.27.64,10.03,1.55,10.03,1.55,0,0,1.47,2.26,1.9,3.63.38,1.37,1,1.72,2.36,2.74,2.76,2.07,5.94,1.93,5.94,1.93,0,0,.33,1.05.8.85.5-.21.44-1.12.44-1.12,0,0,2.03-.04,1.42-.7-.64-.65-1.4.24-1.74-.07-.34-.3-1.9-5-1.9-5,0,0,.48.03,1.06-.45.59-.47.72-1.77.56-2.16-.17-.41.57-.11,1.41-.72,1.13-.83,2.02-1.67,2.02-1.67l.43.73s.62-.14,1.33-1.91c.73-1.79,1.52-2.93.52-5.47-1.52-3.91-4.23-4.14-4.23-4.14,0,0,.57-1.04.13-3.12-.44-2.08-1.5-5.97-1.5-5.97,0,0-.35-1.9-.4-3.35-.06-1.47.57-4.22.08-8.13-.52-3.88-.72-5.4-2.25-7.68-1.54-2.31-3.82-4.2-3.82-4.2,0,0,3.73-6.49,10.79-13.2,4.1-3.91,9.77-7.78,15.25-10.96,7.64-4.46,14.57-8.28,21.59-10.5,7.02-2.22,14.01-2.55,17.23-2.08,6.4.9,12.28,2.17,12.28,2.17,0,0-11.35-3.89-22.15-2.33-8.29,1.21-15.7,4.25-25.08,9.58-11.77,6.68-18.75,12.39-24.63,19.15-4.98,5.79-6.16,7.73-6.16,7.73,0,0-2.78-.98-5.75-1.29-3-.34-4.95.16-5.92.57-.96.41-2.9.44-4.69.74-1.8.29-4.87.93-7.35,1.96-2.51,1.07-5.26,3.38-6.8,5.17-1.52,1.78-2.41,4.59-2.96,5.38-.73.97-1.93.24-3.7.42-1.73.18-5.37,1.25-7.57,2.53-2.18,1.27-5.84,4.73-7.83,7.54-2,2.77-6.77,9.03-8.31,11.27-1.54,2.23-2.18,2.63-3.13,3.6-.96.98-1.31,1.69-1.73,2.1-.4.41-.95.99-2.85,2.47-1.87,1.47-5.8,6.12-8.4,9.14-2.56,3.02-6.83,8.28-9.54,12.35-2.69,4.12-8.71,11.9-12.8,17.27-4.08,5.39-7.62,8.83-9.4,11.39-1.75,2.59-3.36,3.84-4.35,5.51-1,1.67-3,3.91-3,3.91,0,0-3.96,1.91-4.69,2.08-.72.19-1.12-.45-1.86.21-.75.67-.9,2.19-.9,2.19,0,0-6.18,2.88-7.95,3.51-1.77.65-7.14,3.02-13.04,5.41-5.93,2.41-19.18,7.12-23.52,8.96-4.34,1.85-20.5,8.8-25.27,10.93-4.77,2.16-9.83,3.59-11.35,4.37-3.16,1.7-19.56,9.67-28.58,13.05-9.04,3.39-17.52,7-22.76,9.43-5.21,2.45-18.72,8.4-24.98,10.83-6.26,2.43-16.62,7.18-23.63,10.51-7.04,3.29-24.35,11.23-30.46,14.05-6.09,2.82-16.48,7.23-19.91,8.55-3.43,1.34-4.95,2.56-4.43,4.86.52,2.3,3.08,3.93,6.1,5.49,3.93,2.08,9.81,3.58,14.71,3.89,4.93.31,10.24.22,12.84.25,2.64.01,3.52.54,2.86,1.39-.65.87-2.72,1.53-5.37,2.88-2.61,1.31-7.41,3.36-8.81,4.42-1.37,1.03-6.51,3.67-9.1,4.75-2.65,1.13-5.55,2.49-7.2,3.98-1.66,1.49-2.35,3.04-1.29,4.76,1.05,1.72,3.42,3.21,5.67,3.73,2.28.51,6.83.76,10.47.23,3.65-.51,8.04-1.12,10.31-1.97,2.26-.87,3.31-.75,3.12.15-.17.88-3.5,5.37-4.38,6.54-.88,1.15-.46,1.34.36.88.81-.48,3.28-3.58,4.28-4.69,1.01-1.1,1.1-1.72,2.35-2.24,1.27-.53,1.55-1.69,2.07-2.37.51-.67.64-.62,2.19-1.26,1.53-.66,1.31.14,2.06.59.77.48,1.18,1.9,2.15,1.59,1.03-.29,1.72-1.06,2.23-1.75.51-.67.26-1.22,1.58-1.33,1.32-.11,2.49.77,3.38.96.88.18,1.77-.06,1.33,1.01-.45,1.12.39.65,1.95-.01,1.52-.65,2.06-.21,1.83.58-.24.78-2.77,6.65-3.96,9.18-1.19,2.57-4.53,9.68-6.93,15.82-1.81,4.64-6.91,15.67-8.83,20.48-1.96,4.82-7.35,17-9.68,21.98-2.31,4.98-4.03,9.21-5.54,11.58-1.5,2.33-2.13,3.63-2.61,4.87-.49,1.23-1.28,2.57-1.82,2.93-.56.33-1.34,1.36-2.87,2.6-1.52,1.22-6.06,4.49-8.44,6.41-2.38,1.92-5.58,4.29-7.87,6.09-2.35,1.78-4.16,3.13-4.63,3.33-.48.19-1.32.1-1.51.75-.18.66-1.12,1.15-2.03,1.66-.91.51-5.46,2.9-6.68,3.76-1.24.88-2.17.8-2.8,1.19-.65.38-.72.76-1.1,1.14-.41.41-1.48.54-2.26.85-.78.32-3.01.73-3.85,1.41-.85.69-.5.45-1.33.91-.8.47-3.11.42-3.75.22-.66-.17-.53-.44-1.55-.11-.99.29-2.1.87-2.61,1.3-.5.47-3.71,1.25-5.06,1.47-1.4.25-1.99.18-2.13,1.48-.11,1.29.51,3.3.51,3.3M411.05,71.53s1.69.53,2.46,2.02c.77,1.52.74,3.34.43,4.25-.26.93-.92,1.54-.92,1.54,0,0-.29-1.5-.65-3.4-.35-1.87-1.32-4.42-1.32-4.42m-9.12,14.68c1.34.48,3.5,1.02,4.39,1.79.92.77,1.02,1.27,1.25,2.1.22.8-.42.63-1.72.25-1.29-.34-2.44-1.22-3.12-1.74-.69-.51-1.04-.57-1.5-1.41-.49-.82-.63-1.44.7-.99m-105.27,103.53c-.03-.88-.03-2.05.67-2.86.67-.81,2.6-3.15,2.86-4.12.28-.97,1.64-1.39,1.64-1.39l.04-.7.72-1.49s.64-.96.9-1.93c.29-.98,1.6-1.88,1.6-1.88,0,0-.16-.79.57-1.45.76-.65.49-.89-.16-1.61-.67-.77-.3-1.1.81-2.08,1.12-.98,1.41-1.1,2.57-1.59,1.14-.48,1.7-1.23,1.14-2.54-.56-1.3-.22-3.33-.22-3.33,0,0,2-1.7,3.01-2.97,1-1.27,1.16-2.88,1.63-3.79.49-.85.57-1.07,1.29-1.39.72-.29.42-1.01,1.73-2.77,1.29-1.75,2.87-4.47,4.54-7.38,1.64-2.93,1.62-4.98,2.35-6.12.7-1.16,1.88-3.2,1.86-4.04,0-.85.32-2.88,1.1-4.23.79-1.37.9-2.77,1.46-4.21.59-1.44,2.27-5.08,3.5-7.45,1.2-2.4,3.41-5.21,4.35-6.63.94-1.44,3.94-4.41,4.74-6.11.8-1.72,1.05-1.13,2.22,1.59,1.18,2.77,4.68,9.82,6.75,14.74l10.01,23.59c1.92,4.47,8.1,19.45,8.1,19.45,0,0-.72.31-4.68,3.01-3.99,2.72-15.28,10.24-19.83,13.21-4.56,2.96-20.3,13.73-22.13,15.01-1.83,1.3-4.21,4.19-5.57,4.6-1.37.42-3.49.64-3.49.64l.16,1.14s-10.53,7.37-11.84,8.28c-1.33.89-1.55,2.01-2.37,2.53-.8.49-1.04-.07-1.1-2.26-.09-2.2-.05-4.1-.05-8.53s-.87-12.1-.88-12.94m-69.32,77.52c1.22-.65,2.89-1.23,2.89-1.23,0,0,.05.89.15,1.65.07.75.13,1.43-.58,1.61-.7.19-1.56.33-2.46-.18-.91-.54-1.2-1.21.01-1.85"/>
  </g>
</svg>