<?xml version="1.0" encoding="UTF-8"?>
<svg id="Layer_2" data-name="Layer 2" xmlns="http://www.w3.org/2000/svg" viewBox="0 0 654.5 517.09">
  <defs>
    <style>
      .cls-1 {
        fill:#808080
      }
    </style>
  </defs>
  <g id="Layer_1-2" data-name="Layer 1">
    <path class="cls-1" d="m322.26,102.93c-.1.67-.01,1.41-.28,2.01-12.86,28.06-11.79,56.76-3.71,85.7,1.03,3.68,2.67,7.2,4.29,10.68,1.78,3.84,3.65,7.39,9.01,3.9,2.87-1.89,3.75.81,4.18,3.1.85,4.44,2.77,4.09,5.3,1.26,7.07-7.92,12.1-16.9,14.81-27.23,4.06-15.45,5.65-31.28,7.53-47.09,1.02-8.64,4.85-16.45,7.49-24.62.32-1.02.93-2.23,2.27-1.92,1.54.36,1.2,1.78.75,2.67-10.73,20.66-7.38,44.18-13.45,65.82-3.71,13.26-8.46,25.72-18.27,35.71-1.58,1.61-2.57,3.21-1.27,5.3,1.63,2.59-.13,5.79,1.34,8.21,1.3.28,1.58-.47,1.8-1.13,7.38-22.49,19.72-42.37,32.4-62.13,17.02-26.52,34.46-52.71,55.09-76.62,30.56-35.43,66.18-63.98,111.62-77.65,29.53-8.89,59.8-12.64,90.43-4.13,17.69,4.9,24.84,17.71,18.85,35.04-1.4,4.06-.06,8.35-1.77,12.42-2.57,6.17-5.95,11.72-10.6,16.51-2.92,2.99-4.81,6.46-4.76,10.75.07,6.28-2.72,11.25-6.96,15.59-3.06,3.15-6.29,6.17-8.32,10.14-2.06,4.05-2.62,8.2-1.78,12.76,1.59,8.64,1.46,16.86-4.4,24.52-3.68,4.81-2.44,11.14-.54,16.41,3.21,8.9,4.03,16.99-1.1,25.71-3.65,6.2-1.81,13.56-.81,20.46.27,1.79.96,3.82.4,5.38-3.02,8.53-7.12,16.64-12.27,24.01-13.02,18.69-32.61,18.49-52.37,17.44-10.89-.59-21.77-1.14-33.34-1.74,13.61,5.43,26.49,10.54,39.35,15.74,7.85,3.16,15.05,7.49,22.1,12.14,7.53,4.94,11.67,11.94,12.92,20.69.58,4.02,2.94,7.06,5.04,10.22,2.67,4.09,3.33,7.98.07,12.11-2.48,3.14-3.51,6.79-2.98,10.82.09.72.26,1.57,0,2.17-3.43,7.96-1.77,15.63.77,23.41,1.24,3.81-.44,7.27-3.32,9.89-3.96,3.62-6.58,7.77-6.57,13.35.01,1.41-.21,3.19-1.04,4.22-5.85,7.22-3.9,15.19-2.32,23.06,1.1,5.5-.5,9.26-5.76,11.49-1.3.55-3.19,1.5-3.41,2.55-2.05,9.67-10.57,17.44-7.45,28.75,2.61,9.46-.22,12.69-9.9,13.64-3.7.37-6.67,1.69-8.52,5.12-.69,1.27-1.51,2.97-2.66,3.4-6.77,2.55-7.01,8.57-8.3,14.24-1.39,6.14-5.72,8.97-11.83,7.58-5.58-1.3-9.98.12-15.01,2.82-6.71,3.59-14.48,4.94-21.15,9.17-3.24,2.06-7.67.2-11.02-1.68-6.88-3.86-14.67-6.01-21.16-10.24-9.51-6.22-21.35-8.36-29.11-17.86-2.98-3.67-8.86-4.81-13.39-7.12-7.45-3.81-12.45-9.56-16.32-16.5-12.76-22.86-25.65-45.63-41.3-66.72-5.66-7.63-9.72-16.32-12.74-25.62-3.42,2.07-6.47,5.17-9.9,5.69-4.14.61-5.36-4.73-8.97-7.5-.16,14.27-7.42,25.04-14.65,36.18-13.85,21.33-26.96,43.2-37.73,66.26-4.68,10.03-13.77,13.67-22,18.74-3.49,2.15-6.61,4.41-9.29,7.49-4.08,4.67-9.32,7.59-14.62,10.85-7.61,4.67-16.13,7.51-23.37,12.69-3.6,2.6-7.26,5-11.79,5.49-3.37.37-7.16.38-9.17-2.45-2.93-4.09-6.93-4.94-11.29-5.76-2.13-.39-4.41-.98-6.18-2.15-4.49-2.99-9.26-2.97-14.26-2.28-7.78,1.07-10.6-.87-12.99-8.31-3.65-11.29-10.98-18.85-22.78-21.51-3.59-.82-5.88-2.66-6.96-6.15-.92-3.02-1.68-6.08-1.25-9.18.88-6.58-.86-12.17-3.57-18.33-2.7-6.14-5.82-10.6-11.17-14.54-4.5-3.31-2.87-9.33-1.83-13.95,1.42-6.34-.1-11.33-2.65-17.19-3.05-7.04-4.3-14.5-11.18-19.58-2.65-1.95-1.34-6.63-.71-10.02,2.19-11.95-.18-23.25-4.65-34.24-1.31-3.2-.86-6.08.33-9.02,2.12-5.28,3.6-10.74,4.63-16.35,1.38-7.55,5.3-13.36,11.51-17.98,15.23-11.29,32.87-17.59,50.04-24.85,4.31-1.81,8.68-3.47,13.02-5.2-.07-.45-.16-.89-.25-1.34-4.28.22-8.56.33-12.82.64-16.29,1.14-32.57,1.39-48.81-.4-10.13-1.13-17.67-6.18-24.81-13.58-6.67-6.89-9.83-15.2-13.93-23.25-1.7-3.35-2.29-6.88-1.7-10.64,1.34-8.53.59-16.99-3.16-24.7-3.04-6.25-2.55-12,.04-17.91,3.7-8.46,3.1-16.72-.81-24.88-2.66-5.55-2.55-11.46-1.62-17.25,1.32-8.21-1.04-15.13-6.06-21.43-3.43-4.29-8.7-8.37-9.05-13.52-.75-11.5-8.5-18.55-14.32-26.91C2.31,54.41,1.88,44.43.19,35.09-1.43,26.21,7.5,14.46,16.21,11.01c16.34-6.46,33.31-8.08,50.71-6.89,46.8,3.21,87.7,20.86,123.03,51.23,24.49,21.05,45.54,45.46,65.64,70.73,17.27,21.74,31.38,45.47,45.54,69.19,4.95,8.32,8.51,17.41,12.09,26.43.71,1.81.89,4,3.95,5.38-4.01-6.68-2.61-11.45,3.4-15.1,2.97-1.8,1.48-4.31.37-6.74-13.57-29.57-14.92-59.97-6.04-91.01,1.24-4.34,3.2-8.41,7.37-11.3h0Z"/>
  </g>
</svg>