<?xml version="1.0" encoding="UTF-8"?>
<svg id="Layer_2" data-name="Layer 2" xmlns="http://www.w3.org/2000/svg" viewBox="0 0 630.86 654.5">
  <defs>
    <style>
      .cls-1 {
        fill:#808080
      }
    </style>
  </defs>
  <g id="Layer_1-2" data-name="Layer 1">
    <path class="cls-1" d="m3.35,488.32c4.42-4.45,10.15-7.84,15.48-11.06,34.42-21.02,78.6-24.79,105.59-57.68,9.91-12.16,18.01-24.5,25.69-38.14,7.07-12.54,11.35-31.6,27.22-35.63,30.32-7.64,60.65-14.9,89.06-28.27,4.83-2.27,12.78-4.32,16.39-8.37,9.64-11-24.53-33.63-30.87-39.27-8.22-7.58-17.8-13.82-26.06-21.5-8.1-7.56-11.5-17.76-18.85-25.45-4.68-4.94-12.63-8.31-18.11-12.43-16.12-12.25-36.49-21.97-45.84-40.79-6.06-12.51-10.38-25.72-14.12-39.03-3.99-15.07-11.07-31.18-10.75-46.93,11.71-9.14,18.43,20.65,20.23,27.06,4.11,15.18,4.92,31.84,12.59,45.83,7.75,14.17,19.63,25.16,33.19,33.82,11.37,7.18,19.47,16.24,27.82,26.71,6.93,8.68,13.73,4.21,22.39,5.67,5.86,1.03,11.59,6.35,15.41,10.58,8.91,10.16,14.52,22.34,22.62,33.09,7.86,10.4,10.45,11.96,11.46,11.96-4.79,0-.25-35.54.67-38.07.78-2.65,6.43-17.63,10.83-16.62l-2.1-.51c-5.46-1.34-11.4.13-16.87-1.34-5.57-1.54-10.85-4.34-15.49-7.8-20.12-15.56-24.55-36.65-21.14-60.77,1.6-11.64,6.62-22.39,15.13-30.7,6.91-6.52,16.96-8.97,23.19-15.93-4.26-5.16-11.31-9.34-16.58-13.6-4.81-3.72-9.26-8.18-14.16-11.39-11.32-7.18-23.34-13.14-33.87-21.46-7.18-5.57-44.33-53.7-32.82-60.05,4.26-2.18,12.99,10.55,14.65,13.77,3.84,7.85,5.88,17.04,10.44,24.48,10.37,16.77,28.48,26.31,46.05,34,11.29,4.78,18.43,9.81,26.48,19.22,1.24,1.37,9.32,13.07,10.75,12.8,10.85-1.68,21.99-2.71,32.82-2.53,4.72,2.31,14.14,1.59,19.81,2.53,1.51.27,9.58-11.43,10.83-12.8,8.06-9.41,15.2-14.45,26.55-19.22,17.55-7.69,35.66-17.23,45.98-34,4.7-7.43,6.67-16.62,10.57-24.48,1.59-3.22,10.39-15.95,14.42-13.77,11.59,6.35-25.61,54.49-32.61,60.05-10.56,8.31-22.63,14.28-33.87,21.46-5.02,3.21-9.6,7.67-14.19,11.39-5.26,4.27-12.34,8.44-16.62,13.6,6.22,6.96,16.37,9.41,23.24,15.93,8.41,8.31,13.51,19.06,15.11,30.7,3.41,24.12-1.01,45.21-21.16,60.77-4.61,3.46-9.89,6.26-15.44,7.8-5.55,1.46-11.53,0-16.92,1.34l-2.03.51c4.34-1.01,9.99,13.97,10.82,16.62.82,2.53,5.47,38.07.61,38.07,1.05,0,3.67-1.56,11.48-11.96,7.99-10.75,13.62-22.92,22.64-33.09,3.74-4.23,9.53-9.56,15.33-10.58,8.71-1.46,15.55,3,22.46-5.67,8.35-10.47,16.53-19.54,27.8-26.71,13.54-8.66,25.41-19.65,33.14-33.82,7.68-13.99,8.54-30.65,12.72-45.83,1.72-6.41,8.52-36.2,20.17-27.06.32,15.75-6.77,31.86-10.78,46.93-3.67,13.31-8.04,26.53-14.16,39.03-9.3,18.82-29.57,28.54-45.79,40.79-5.44,4.12-13.39,7.49-18.07,12.43-7.5,7.69-10.75,17.89-18.91,25.45-8.18,7.67-17.73,13.92-26.02,21.5-6.3,5.64-40.48,28.27-30.88,39.27,3.59,4.05,11.59,6.1,16.4,8.37,28.52,13.37,58.83,20.63,89.11,28.27,15.84,4.03,20.14,23.09,27.17,35.63,7.68,13.64,15.8,25.98,25.77,38.14,26.99,32.88,70.96,36.66,105.44,57.68,5.42,3.22,11.07,6.61,15.52,11.06,3.82,3.77,5.31,10.33-.53,12.08-6.77,2.14-17.15-4.17-23.02-7.01-23.79-11.24-44.82-28-69.55-37.57-11.12-4.34-21.68-6.57-29.75-16.11-9.17-10.62-14.55-24.22-22.88-35.48-7.58-10.42-14.58-21.18-22.7-31.24-6.59-8.13-11.17-10.22-21.01-12.72-15.2-3.86-28.88-11.55-43.45-17.12-14.91-5.68-30.91-8.24-45.83-13.66,2.03,1.65,2.87,14.99,4.19,18.14,3.15,6.99,7.86,13.09,13.1,18.62,8.04,8.73,17.41,15.98,25.92,24.19,9.7,9.47,25.17,22.41,29.07,35.67,4.58,15.12.78,31.42-.21,46.8-1.43,22.85-3.42,46.89-1.43,69.72,2.01,23.05,9.53,45.08,13.07,67.82,1.8,11.39,7.66,22.34,7.66,34,0,5.22-1.95,10.7-8.18,10-12.34-1.3-14.04-16.24-14.81-25.89-1.28-15.58-.74-29.53-4.64-44.99-3.61-14.08-7.55-29.57-8.48-44.09-1.62-25.3,4.87-50.61,5.14-75.96.09-9.16.34-18.51-2.55-27.32-3.13-9.58-9.74-17.3-15.68-25.16-6-7.8-11.12-16.22-16.85-24.21-10.07-14.32-19.11-27.83-31.75-40.13-4.09-3.99-6.95-9.58-12.08-12.34.67,5.12.33,10.88,1.53,15.91,1.8,6.79,3.88,13.6,4.01,20.73.25,7.98-2.69,15.84-3.93,23.67,7.16.24,13.79,5.13,19.32,9.19,30.67,22.34,27.2,72.8,20.8,105.55-2.77,13.95-7.51,27.89-13.12,40.98-4.97,11.74-10.09,24.74-18.74,34.31-9.5,10.66-26.36,12.87-39.01,7.29-16.06-7.21-22.63-26.6-29.16-41.6-5.56-13.09-10.28-27.02-13.11-40.98-6.3-32.76-9.79-83.22,20.9-105.55,5.46-4.06,12.08-8.95,19.22-9.19-1.24-7.84-4.09-15.69-3.86-23.67.17-7.12,2.22-13.94,3.94-20.73,1.32-5.03.88-10.79,1.56-15.91-5.1,2.76-7.89,8.35-12.09,12.34-12.59,12.3-21.51,25.82-31.78,40.13-5.62,7.98-10.87,16.41-16.74,24.21-5.89,7.86-12.63,15.58-15.72,25.16-2.92,8.81-2.71,18.16-2.54,27.32.25,25.36,6.76,50.66,5.07,75.96-.91,14.52-4.82,30.01-8.41,44.09-4.05,15.45-3.31,29.4-4.66,44.99-.81,9.65-2.47,24.59-14.79,25.89-6.17.7-8.1-4.78-8.14-10-.09-11.66,5.81-22.61,7.51-34,3.65-22.74,11.15-44.77,13.18-67.82,2.01-22.83,0-46.87-1.36-69.72-1.11-15.38-4.87-31.67-.36-46.8,3.96-13.25,19.45-26.2,29.15-35.67,8.48-8.2,17.78-15.45,25.96-24.19,5.12-5.53,9.9-11.63,12.97-18.62,1.43-3.15,2.18-16.5,4.32-18.14-15,5.42-30.93,7.98-45.9,13.66-14.54,5.57-28.31,13.26-43.38,17.12-9.95,2.51-14.52,4.59-21.09,12.72-8.1,10.05-15.02,20.82-22.67,31.24-8.29,11.26-13.62,24.86-22.81,35.48-8.16,9.54-18.69,11.77-29.88,16.11-24.64,9.58-45.75,26.33-69.59,37.57-5.75,2.84-16.2,9.16-22.96,7.01-5.9-1.76-4.28-8.31-.54-12.08h0Z"/>
  </g>
</svg>