<?xml version="1.0" encoding="UTF-8"?>
<svg id="Layer_2" data-name="Layer 2" xmlns="http://www.w3.org/2000/svg" viewBox="0 0 654.5 350.46">
  <defs>
    <style>
      .cls-1 {
        fill:#808080
      }
    </style>
  </defs>
  <g id="Layer_1-2" data-name="Layer 1">
    <path class="cls-1" d="m429.91,29.21c-2.91-.77-7.18,4.49-15.69,7.71-11.91-1.84-23.51-1.68-32.36-1.91.27-5.42,4.78-11.24,2.19-13.42,6.39-12.57,12.47-21.59,12.47-21.59,0,0-6.44,7.64-14.13,21.51-2.3,1.3-6.05,7.01-11.99,11.29-16.14-1.79-27.75,3.54-42.01,3.66-1.51-5.19-.26-11.1-2.67-12.58,3.38-11.18,6.62-18.99,6.62-18.99,0,0-3.72,6.78-7.88,18.73-2,.59-3.72,6.46-7.8,12.46-17.7.2-24.71,6.88-44.75,9.67-1.09.06-2.09.17-3.11.28-1.63-5.21.29-11.38-3.11-12.11-2.43-.54-4.56,7.56-10.05,14.98-13.06,4.4-20.28,12.08-30.79,16.19-19.27,4.83-34.99,20.88-54.58,35.1,2.1-5.87,6.08-12.9,6.72-16.1,1.75-8.8-.02-14.02-.02-14.02,0,0,8.46-.8,15.29-6.33,6.82-5.54,14.33-3.77,19.39-1.81,5.06,1.97,3.11-3.44-6.43-8.92-9.59-5.47,5.05-17.25,14.28-4.19,7.25,10.25-1.09-13.51-19.88-19-19.18-5.62-33.72,23.67-33.72,23.67,0,0-12.79,13.05-13.94,21.25-1.13,7.62-1.73,25.11-1.73,25.11,0,0-.8,7.45-2.62,14.13-1.97.93-3.97,1.83-6.01,2.67-1.27-.12-2.59,0-4.07.21.42-4.02,1-19.59-12.34-37.27-5.55-7.42-9.46-14.45-9.46-14.45,0,0-9.24-27.69-29.16-28.94-22.54-1.39-28.09,25.02-25.54,26.3,2.77,1.33-.21-7.15,10.43-12.07,11.24-5.25,14.76,7.5,7.74,14.12-6.22,5.86-9.45,12.04-4.38,10.08,5.05-1.93,9.23-7.71,15.42-1.44,6.22,6.17,11.64,6.32,11.64,6.32,0,0,1.93,7.79,5.35,11,4.29,4.06,6.87,24.48,9.46,29.25.07.87-.04,2.36-.21,4.12-3.44,1.39-7.19,2.88-11.12,4.33-3.37-3.5-5.69-7.36-5.69-7.36,0,0-3.83-13.42-9.25-24.3-3.72-7.45-18.19-13.01-18.19-13.01,0,0-25.03-17.7-40.83-5.53-13.46,10.36-17.18,33.5-9.01,22.6,6.54-8.75,20.67-8.64,14.7.59-5.98,9.22-5.22,14.98-1.65,10.9,3.63-4.09,9.49-9.09,18.08-7.34,8.59,1.77,16.49-1.39,16.49-1.39,0,0,.52,15.73,5.7,22.37,1.99,2.58,0,0,4.34,3.27.88,1.45,1.4,4.12,1.75,6.44-1.34.28-2.64.6-4.01.86-6.82,1.43-12.77,3.07-17.94,4.95-5.28-2.19-14.15-5.74-22.16-7.96-19.71-5.44-35.14-9.01-35.85-5.12-.64,3.42,11.27,6.34,34.12,14.8,4.36,1.6,7.87,3.13,10.8,4.49-12.99,7.95-17.86,18.31-17.86,29.81s7.63,19.61,20.39,26.58c-3.44,1.28-7.9,2.67-13.72,4.09C11.91,213.69-.23,215.23,0,218.67c.23,3.93,15.99,2.15,36.24-.96,12.61-1.97,27.7-6.81,27.7-6.81l-.14-.49c5.01,1.9,10.46,3.65,16.27,5.31.71.2,1.4.43,2.1.64-.2,1.94-.76,7.15-2.1,9.38-4.34,3.24-2.18,1.36-4.74,4.2-3.1,3.47-5.3,21.43-5.3,21.43,0,0-7.9-3.2-16.49-1.43-8.59,1.77-14.45-3.24-18.08-7.3-3.58-4.12-4.34,1.62,1.65,10.9,5.97,9.23-8.16,9.33-14.7.6-8.17-10.93-4.45,12.23,9.01,22.54,15.79,12.19,40.83-5.52,40.83-5.52,0,0,14.46-5.55,18.19-12.97,5.42-10.93,9.25-24.33,9.25-24.33,0,0,3.2-5.32,7.55-9.12,3.1,1.13,6.07,2.2,8.92,3.22.42,2.91.69,5.74.55,6.97-2.59,4.76-5.17,25.23-9.46,29.22-3.42,3.26-5.35,11.05-5.35,11.05,0,0-5.42.14-11.64,6.33-6.19,6.21-10.37.47-15.42-1.47-5.08-1.97-1.84,4.26,4.38,10.1,7.02,6.61,3.5,19.37-7.74,14.12-10.64-4.93-7.67-13.42-10.43-12.08-2.56,1.24,3,27.69,25.54,26.3,19.92-1.25,29.16-28.97,29.16-28.97,0,0,3.91-6.98,9.46-14.39,15.56-20.66,12.22-38.34,12.22-38.34,0,0,.11-.97.38-2.47,2.54.36,4.72.36,6.53-.11.43.26.87.52,1.33.77,3.18,7.13,4.58,19.84,4.58,19.84,0,0,.6,17.48,1.73,25.08,1.14,8.26,13.94,21.3,13.94,21.3,0,0,14.54,29.29,33.72,23.67,18.79-5.52,27.13-29.26,19.88-18.98-9.23,13.03-23.87,1.27-14.28-4.2,9.54-5.47,11.49-10.95,6.43-8.96-5.06,1.97-12.57,3.75-19.39-1.82-6.83-5.49-15.29-6.28-15.29-6.28,0,0,1.77-5.25.02-14.05-.81-4.06-7.04-14.39-7.89-20.56,20.27,13.97,36.95,26.99,57.13,32.03,8.96,3.53,15.53,9.61,25.38,14.11,8.44,8.82,10.07,21.65,13.1,21.22,4.57-.64.64-11.42,7.42-16.06.36.02.74.07,1.11.07,17.71,2.45,25.28,7.98,38.92,9.35,8.12,7.77,9.94,18.48,12.85,17.82.43-.09.76-.32,1.04-.59,3.47,9.17,6.27,14.33,6.27,14.33,0,0-2.58-6.23-5.53-15.47,1.31-3.56-.36-11.5,4.47-16.09,11.54.38,21.46,3.97,33.71,3.97,8.14,3.86,13.03,11.36,16.01,13.59,7.8,14.24,14.43,22.13,14.43,22.13,0,0-6.1-9.04-12.47-21.58,0-.04.02,0,.05-.04,3.63-2.35-3.54-10.19-1.7-16.36.39-.09.76-.18,1.19-.29,7.96-.26,18.32-.09,29.11-1.36,11.18,3.69,15.73,11.29,19.17,11.18,12.23,14.24,21.94,21.48,21.94,21.48,0,0-9.98-9.29-20.35-22.17,2.81-2.51-3.33-7.83-1.4-14.89,1.2-.44,2.47-.81,3.7-1.3,7.19-3.07,16.96-5.16,26.42-7.83,10.24,1.43,18.46,8.53,22.13,9.48,25.16,17.62,45.8,23.73,45.8,23.73,0,0-24.46-10.2-43.58-25.17.84-3.65-4.69-10.16-3.66-16.28,2.42-1.52,4.61-3.31,6.24-5.36,5.86-2.92,11.11-5.7,15.79-8.34,9.56,1.13,16.22,4.66,19.7,5.33,1.6.9,3.15,1.75,4.71,2.54,26.88,16.39,48.51,21.17,48.51,21.17,0,0-14.26-4.83-29.88-13,14.75,5.36,25.05,6.62,25.05,6.62,0,0-17.94-4.02-36.19-13-3.28-2.03-6.45-4.17-9.46-6.49-.54-3.1-6.75-7-7.77-12.04,6.89-4.52,12.07-8.58,16.2-12.24,7.93-2.24,15.84-.33,20.19.04,27.37,21.79,51.37,29.53,51.37,29.53,0,0-26.59-11.88-45.63-28.54,27.85,10.34,48.53,11.16,48.53,11.16,0,0-23.26-3.43-44.55-12.12,26.64,3.18,45.78-1.24,45.78-1.24,0,0-27.77,3.71-52.86-2.03-2.3-2.64-9.4-4.55-11.24-9.35,6.14-7.96,9.81-14.17,23.05-21,4.67-2.35,7.95-5.04,10.32-8.57,36.09,21.72,70.46,23.3,70.46,23.3,0,0-36.23-4.79-66.6-28.76,35.06,17.67,67.15,18.98,67.15,18.98,0,0-34.87-5.01-60.64-20.98,36.22,4.76,64.47.82,64.47.82,0,0-33.82,1.78-63.49-5.1,30.29-2.48,50.87-11.38,50.87-11.38,0,0-22.03,6.94-46.8,7.9,20.97-4.81,34.1-11.5,34.1-11.5,0,0-20.65,7.94-44.66,10.54.66-5.9.84-13.17.84-22.35,0-9.79-.36-17.41-1.29-23.5,24.73-2.2,47.65,1.92,47.65,1.92,0,0-14.27-4.12-35.85-4.92,24.46-3.69,47.54-.96,47.54-.96,0,0-21.64-4.84-51.38-1.81,27.22-10.83,59.41-11.15,59.41-11.15,0,0-23.08-2.11-52.96,5.1,24.73-12.11,53.29-15.62,53.29-15.62,0,0-32.09.72-67.54,17.73,30.85-23.37,67.2-27.52,67.2-27.52,0,0-35.3.96-72.35,22.8-2.59-3.85-6.18-6.7-11.1-9.24-13.89-7.13-17.22-13.64-24.01-22.16,3.13-3.54,9.09-5.21,10.26-7.75.21-.09.38-.18.63-.27,25.19-5.94,53.36-2.15,53.36-2.15,0,0-19.12-4.49-45.77-1.23,21.29-8.69,44.55-12.15,44.55-12.15,0,0-23.53.97-54.21,13.36-2.96-.28-9.76,1.68-17.19.92-5.26-5.04-12.54-10.77-23.46-17.48,2.4-3.9,7.64-6.56,8.65-9.16,2.67-1.4,5.42-2.64,8.26-3.83,19.65-5.68,38.15-6.45,38.15-6.45,0,0-11-.6-27.22,2.35,18.1-6.06,34.9-8.54,34.9-8.54,0,0-23.45.95-54.05,13.3-.6.16-1.13.31-1.74.49-3.49-.21-11.86,3.23-23.49,2.36-2.83-1.47-5.74-2.97-8.9-4.57-1.45-1.76-3.28-3.35-5.33-4.76,1.71-5.12,6.53-9.52,5.67-12.62,18.45-13.44,39.84-22.35,39.84-22.35,0,0-18.67,5.49-42.08,21.16-3.96.68-12.88,5.8-22.77,5.59-10.1-2.95-20.88-5.12-28.71-8.46-1.62-.66-3.31-1.22-4.93-1.79,1.09-4.66,4.58-7.94,2.86-10.11,10.19-12.56,19.87-21.54,19.87-21.54,0,0-9.33,6.96-21.2,20.62"/>
  </g>
</svg>