<?xml version="1.0" encoding="UTF-8"?>
<svg id="Layer_2" data-name="Layer 2" xmlns="http://www.w3.org/2000/svg" viewBox="0 0 481.02 654.5">
  <defs>
    <style>
      .cls-1 {
        fill:#808080
      }
    </style>
  </defs>
  <g id="Layer_1-2" data-name="Layer 1">
    <path class="cls-1" d="m201.62,1.57c-1.55,31.78.22,63.63,5.27,95.04,3.82,11.98,9.95,23.1,18.04,32.73,5.26,8.17,16.15,10.53,24.32,5.27,2.11-1.36,3.91-3.16,5.27-5.27,9.79-12.4,16.13-27.17,18.38-42.81,1.91-27.46-6.16-56.04,7.85-86.52,31.58,36.2,43.01,85.76,30.48,132.13,13.34,9.97,18.16-19.28,28.91-5.83,8.07,10.2,2.24,22.41-5.6,32.39-7.85,9.97-16.59,19.84-24.21,30.37-9.38,12.77-6.63,30.73,6.14,40.11.27.2.54.39.81.57,17.37,11.21,35.64,22.41,45.61,42.14,7.51,14.91,16.36,8.07,25.33,2.02,21.13-15.72,37.28-37.2,46.51-61.86,5.53-16.85,16.44-31.41,31.04-41.47-25.55,54.36-38.1,105.91-87.64,133.48-16.25,9.08-15.24,23.42-16.25,37.1-1.12,16.25,14.35,12.78,23.09,14.68,56.04,11.21,81.25,51.78,96.05,103.11-8.18,1.12-10.31-5.49-13.22-9.86-2.91-4.37-6.39-11.21-9.75-17.04-16.31-27.49-44.39-45.93-76.1-49.98-15.58-2.91-29.25-4.26-31.49,17.04-1.46,14.46-11.21,29.36,13.11,37.43,41.8,14.12,56.04,47.97,56.04,89.66v102.66c-15.58-22.41-12.66-44.83-14.35-66.12-2.58-33.62-8.18-65.67-34.41-89.66-17.37-15.69-33.62-20.85-41.35,10.53-6.61,26.56-22.41,48.86,9.64,74.64,24.99,20.4,10.09,56.04,8.85,94.7-7.06-31.49-4.37-56.04-17.71-76.66-13.34-20.62-21.74-27.23-37.66,0-41.8,71.39-77.55,71.28-122.16-.67-17.37-28.02-27.23-14.91-38.89,1.46-15.58,21.85-8.52,50.77-22.41,77.44.9-44.83-13.78-89.66,35.41-115.32,6.72-3.59-6.95-69.6-15.47-72.29-20.06-6.5-30.71,8.74-40.57,22.41-14.64,21.93-22.44,47.71-22.41,74.08.82,23.91-4.26,47.66-14.79,69.15,0-44.16-.67-79.46,0-114.65.67-35.19,16.7-65.11,51.22-76.43,27.46-9.08,20.51-26.67,16.92-43.37-5.6-25.78-24.66-12.33-37.88-9.64-41.24,8.29-61.53,41.02-81.59,73.74,10.2-52.79,36.09-90.55,91.56-102.88,24.43-5.38,32.73-34.97,11.21-47.29-50.99-30.04-65.23-82.71-89.66-131.35,19.5,14.35,20.06,14.12,28.02,32.73,7.77,20.96,20.18,39.89,36.31,55.36,14.79,13.22,22.41,16.59,42.36-1.91,42.7-38.55,72.62-69.49,17.04-119.58-6.61-5.94-12.66-29.36,16.47-18.38,14.46,5.49,7.28-11.21,7.28-17.93,1.46-56.37,6.95-72.74,41.02-109.38Z"/>
  </g>
</svg>