<?xml version="1.0" encoding="UTF-8"?>
<svg id="Layer_2" data-name="Layer 2" xmlns="http://www.w3.org/2000/svg" viewBox="0 0 654.5 549.24">
  <defs>
    <style>
      .cls-1 {
        fill:#808080
      }
    </style>
  </defs>
  <g id="Layer_1-2" data-name="Layer 1">
    <path class="cls-1" d="m631.95,280.16c-12.27-7.23-53.64-21-53.64-21,0,0-18.62-30.53-36.42-41.78-4.85-8.4-29.6-11.54-44.31-12.67-3.88-9.31-8.06-18.07-12.31-26.66-20.52-41.54-34.14-34.32-40.66-34.91-.46-3.34-1.66-7.62-3.49-12.36,4.2-5.32,11.44-14.08,17.27-19.41,11.79-10.73,26.67-34.29,30.15-48.85,11.09-12.82,40.58-15.02,42.26-22.18,1.38-5.89-4.15-4.85-.69-10.04,3.48-5.2,14.22-6.58,25.28-7.97-12.81-.69-19.39-3.11-19.39-3.11,0,0-.36-9.71,1.73-16.98-5.19,6.58-4.39,20.71-10.73,21.48-8.67,1.04-5.19-5.54-12.47-5.2-3.2.14-9.71,10.39-18.73,17.32-13.78,10.61-24.92,15.59-29.1,21.83-3.8,5.71-8.31,27.71-18.35,42.97-7.2,10.92-12.34,14.4-14.5,15.47-3.41-5.68-7.61-11.53-12.78-17.1-17.75-19.2-29.89-21.6-44.78-24.02-1.53-5.09-5.37-9.24-11.04-12.35,6.9-4.96,18.56-13.34,23.47-16.81,6.01-4.26,16.89-6.25,16.53-12.3-.28-4.35-13.75-7.97-16.84-4.29-1.92,2.29-1.53,6.78-6.55,11.54-8.38,7.92-16.57,14.56-28.07,17.6-7.26-1.71-16.02-2.36-26.02-1.86-10.11-.61-18.41.06-25.05,1.79-9.95-3.69-17.42-10.02-24.83-17.59-4.87-4.93-4.3-9.4-6.15-11.77-2.95-3.8-16.54-.67-16.97,3.68-.59,6.02,10.22,8.42,16.05,12.88,4.59,3.49,15.13,11.69,21.91,16.96-5.02,3.09-8.35,7.19-10,12.17-9.69.7-26.12,4.48-44.04,23.53-5.42,5.73-9.82,11.76-13.36,17.6-2.22-2.22-5.81-6.98-9.81-16.86-6.83-16.94-6.31-41.71-10.12-47.41-4.14-6.23-15.33-11.22-29.1-21.83-9-6.92-15.11-15.49-18.3-15.64-7.28-.36-4.22,4.56-12.87,3.52-6.34-.75-5.89-10.96-9.35-17.55-.69,5.9.34,13.05.34,13.05,0,0-10.04.45-22.18-.92,10.4,4.15,23.26,6.7,26.05,12.29,2.07,4.14-1.02,4.5.36,10.39,1.68,7.14,32.15,8.72,43.24,21.55,3.46,14.53,10.53,38.22,19.95,51.08,5.16,7.05,11.21,18.71,14.04,24.32-1.43,3.91-2.41,7.45-2.84,10.31-6.52.54-20.05-6.82-40.97,34.55-4.53,8.93-8.98,18.08-13.13,27.83-13.78.87-42.74,3.78-48.03,12.94-17.79,11.24-36.43,41.78-36.43,41.78,0,0-41.37,13.77-53.64,21C10.63,287.17-.43,295.32.01,297.37c.43,2.03,13.52-4.67,21.08-4.15-.5,8.65,7.63,16.31,7.63,16.31,0,0-3.69-13.37,2.44-18.14,11.06-6.25,22.65,1.98,30.04-1.04,5.55-2.23,12.52-14.34,31.58-23.01,12.23-5.57,9.41-29.89,57.92-34.97-8.28,28.8-12.56,64.79-7.75,116.39.26,2.85.6,5.68.97,8.5-14.09,5.75-26.38,12.13-27.57,17.27-9.85,31.03-23.86,73.71-24.09,94.14-5.3,7.9-41.56,44.78-52.25,50.49-14.19,7.58-15.02,23.88-13.74,26.97,1.28,3.07,3.19-10.23,7.29-10.81,11.14-1.58,12.86,16.18,17.09,13.7,3.43-1.98-1.72-10.88,5.35-22.49,4.87-8.01,10.24.59,11.85-.51,2.35-1.57-1.02-6.79,17.65-27.62,15.18-16.93,23.19-22.29,25.8-28.37,3.01-7.02,12.33-66.2,16.73-76.98,1.39-2.71,10.21-6.03,20.99-9.2,21.63,85.32,91.16,148.89,181.66,148.75,96.88-.18,157.99-62.56,178.04-147.79,9.27,2.88,16.51,5.8,17.76,8.24,4.38,10.77,13.71,69.95,16.73,76.98,2.6,6.08,10.61,11.44,25.79,28.37,18.66,20.83,15.31,26.05,17.63,27.62,1.63,1.1,7.02-7.5,11.88.51,7.05,11.61,1.92,20.51,5.35,22.49,4.23,2.48,5.94-15.28,17.09-13.7,4.08.58,6.01,13.88,7.3,10.81,1.28-3.08.44-19.39-13.75-26.97-10.7-5.71-46.94-42.59-52.26-50.49-.22-20.42-14.24-63.11-24.06-94.14-1.13-4.79-11.81-10.62-24.63-16.05.35-2.65.68-5.3.96-7.99,5.35-52.32,1.22-88.61-7.03-117.68,44.71,5.87,42.35,29.11,54.26,34.53,19.05,8.67,26.04,20.78,31.58,23.01,7.41,3.02,18.99-5.2,30.05,1.04,6.14,4.77,2.43,18.14,2.43,18.14,0,0,8.14-7.66,7.63-16.31,7.56-.52,20.64,6.18,21.08,4.15.44-2.04-10.62-10.2-22.54-17.21"/>
  </g>
</svg>