<?xml version="1.0" encoding="UTF-8"?>
<svg id="Layer_2" data-name="Layer 2" xmlns="http://www.w3.org/2000/svg" viewBox="0 0 654.5 303.88">
  <defs>
    <style>
      .cls-1 {
        fill:#808080
      }
    </style>
  </defs>
  <g id="Layer_1-2" data-name="Layer 1">
    <path class="cls-1" d="m141.81,301.22c0,1.39.51,1.91,5.69,1.91s14.92-.14,16.7-.88c1.78-.77,5.96-1.91,6.98-1.28,1,.63,2.64-.76,3.78.63,1.13,1.39,6.32,2.41,12.13,2.27,5.83-.11,12.19-2.27,14.06-3.28,1.91-1.01,1.51-.77,3.54,1.01,2.02,1.77,4.69,2.27,10.14,2.03,5.45-.27,6.84-3.04,6.84-3.04,0,0,1.62,1.89,4.55,1.78,2.92-.12,9.75-1.02,10.24-1.28.52-.25,1.67-.12,3.3-.12s10.9-1.27,13.16-1.38c2.27-.13,3.54-1.39,3.54-1.39,0,0,1.01,1.63,3.53,1.63s7.47.25,7.86-.24c.37-.51,5.67-.13,7.46-.13s11.4-2.02,11.78-3.02c.37-1.03,5.56-1.27,9.73-1.65,4.18-.39,19.49-5.57,20.63-5.7,1.14-.13,2.17-2.16,3.77-2.03,1.67.12,6.74-.76,7.74-2.02,1-1.27,2.66.12,3.9,1.02,1.31.87,3.44-.91,4.32-1.02.92-.13,3.07-.26,4.43.63,1.42.87,5.97,3.42,9.76,3.54,3.77.12,8.35,1.52,10,1.64,1.62.13,4.91.51,6.32-.37,1.39-.89,4.04-1.27,5.07-1.27s5.56,0,7.46-1.27c0,0,3.02.12,5.2-.12,2.15-.27,11.25-1.77,13.4-2.54,2.13-.76,3.54-.63,4.69-.63s5.05.87,9.21-.89c1.22-.5,2.79.27,3.67.77.91.51,9.51.51,11.04.25,1.51-.25,8.35.37,14.15.37s11.05-1.01,11.65-1.64c.63-.64,4.71.52,6.06.52s6.71-.27,6.96-.91c.27-.62,2.05-.49,3.06-1.12,1.02-.62,1.89-.76,3.17-.62,1.26.12,2.15,2.14,4.79,2.77,2.67.63,4.34.12,4.81-.63.54-.77,1.14-.64,1.9-.25.76.37,2.55,0,3.29-.26.76-.26,1.15-.13,3.44-.13s3.53-2.13,4.15-2.52c.66-.39,2.91.12,5.59-.14,1.99-.19,7.07-1.13,7.56-2.52.54-1.38,3.06-.62,3.96-.12.87.5,3.91.25,5.04-.38,1.16-.64,5.96,2.41,11.15,2.16,5.2-.26,10.88-2.16,13.54-3.28,2.63-1.16,5.18-1.54,6.57-1.39,1.39.11,5.45.75,9.88-2.8,1.6-1.28,4.94-4.17,5.81-4.31.89-.12.12-4.93-1.67-6.32-1.77-1.39-1.14-2.02-1.14-3.42s-1.5-.62-1.87-1.12c-.37-.51-.63-2.02-1.27-1.91-.63.12-.87-.89-1.77-.76-.89.13-2.27-1.01-2.27-1.01,0,0,.5-1.89-.66-3.17-1.12-1.26-5.16-.62-5.55-1.89-.39-1.27-.39-2.27-1.29-3.29-.87-1.02-.87-1.66-3.27-1.66s-6.21-.24-6.21-.24c0,0-.5-2.66-2.41-3.42l8.85-3.17c3.57-1.28,15.59-6.97,21.78-10.64,6.2-3.67,13.54-10.5,16.07-11.9,2.54-1.37,4.66-3.27,5.31-4.17.64-.87,4.43-1.4,6.58-2.15,2.16-.76,11.52-4.94,13.65-6.08,2.14-1.14,3.56-.88,4.82-.88s1.91-.65,2.41-1.27c.49-.62,2.14-.99,2.14-.99,0,0,1.9-1.41,2.81-1.66.87-.25,2.01-1.02,2.76-1.9.78-.87,2.15-1.27,2.41-2.4.26-1.15,2.4-1.27,2.77-2.15.41-.89,1.17-1.27,2.04-1.52.89-.25.89-1.4,1.41-2.27.5-.89,1.02-2.41.73-2.91-.23-.52,0-1.02.64-1.15.63-.13,5.46-1.78,9.73-6.95,1.77-2.17,3.3-3.94,5.71-5.7,2.4-1.77,7.86-7.22,7.21-18.74-.62-11.5-6.97-17.34-7.72-18.08-.76-.77-2.66-6.21-5.2-9.89-2.52-3.67-12.14-10.75-16.31-13.02-4.17-2.28-5.95-3.06-7.35-4.44-1.39-1.4-10.25-11.9-20.23-18.22-6.75-4.29-16.84-9.5-17.85-10.37-1-.9-3.92-4.7-13.04-15.7-9.1-11-24.53-22.02-31.63-26.58-7.07-4.55-25.32-15.31-32.9-18.6-7.59-3.29-18.87-7.46-22.27-8.61-3.4-1.15-5.96-1.52-7.86-2.66-1.87-1.14-3.66-1.02-7.07-1.52-3.39-.51-9.99-2.29-20.23-2.92-10.26-.63-29.87,1.15-45.2,3.67-15.29,2.54-35.53,8.23-48.96,12.65-13.42,4.43-32.38,15.32-40.73,19.48-8.35,4.19-24.72,16.61-31.52,21.28-6.84,4.68-23.17,18.6-27.99,22.91-4.78,4.3-18.08,14.94-21.74,18.09-3.68,3.17-6.34,6.33-9.39,8.47-3.02,2.17-7.07,7.61-9.36,14.19-2.25,6.57,0,12.77.64,16.19.66,3.42,2.17,6.59,2.65,7.47.51.9.51,1.35-.48,1.27-3.82-.26-5.46,1.26-5.46,1.26-4.8-.25-7.86,1.27-7.86,1.27-2.89-.74-7.21,1.38-7.21,1.38-2.91-.62-4.56.52-4.56.52-2.78,0-6.57,1.39-6.57,1.39-1.39,0-3.92.13-4.68.25-.77.13-6.96,1.4-9.59,1.66-2.68.25-9.15,2.27-10.14,2.52-1.02.26-1.28-.51-.52-1.78.37-.63,1.06-1.32,1.7-2.51.64-1.18,1.27-2.86,1.6-2.93.64-.12,4.03.26,6.32-4.41,1.85-3.82-.94-7.73-4.68-9.15-3.51-1.35-7.86-.34-9.35,2.43-1.66,3.03-1.27,4.67-1.03,5.44.25.76-.37,1.12-2.14,3.42-1.78,2.27-9.36,13.16-10.12,14.18-.77,1.02-1.13,1.65-2.42,1.65s-3.17.88-3.17.88c-2.02-.12-4.81,2.02-4.81,2.02-2.02,0-3.29,1.52-3.29,1.52-2.27,0-5.68,3.02-5.68,3.02-1.9-.26-3.92,2.17-3.92,2.17-1.27,0-3.07,2.27-3.07,2.27-2.01.12-4.41,2.9-5.55,3.55-1.15.61-5.32,3.03-6.46,4.54-1.12,1.52-2.52,1.78-3.16,2.53-.63.77-2.14,1.52-3.3,2.03-1.13.49-3.04,3.92-3.04,3.92-1.39.39-2.27,2.66-2.27,2.66-1.38-.12-1.88,2.03-1.88,2.03-1.39,0-1.91,2.42-1.91,2.42-.76,0-1.51,1.38-1.51,1.38-1.65,0-2.28,2.14-2.28,2.14-1.53-1.01-4.32-.25-4.96-.62-.22-.15-3.05-2.03-7.13-5.39-6.34-5.22-15.55-13.32-21.33-18.4-9.49-8.35-13.54-11.52-19.36-16.7-5.84-5.21-13.54-12.41-14.04-12.92-.52-.5-5.71-9.74-10.76-5.06-5.07,4.69-3.29,11.26.63,12.17,3.93.87,4.41,1,7.85,5.3,1.9,2.38,5.96,7.3,11.56,13.64,4.48,5.12,10.32,11.35,14.38,16.6,9.1,11.77,20.88,27.46,22.39,29.74,1.54,2.28,3.04,5.2,3.17,6.08.12.89.62,1.01.62,1.01.13,1.52,1.64,2.27,1.64,2.27.14,1.77,2.55,3.29,2.55,3.29.14,3.82,2.67,5.7,2.67,5.7-.14,2.16,2.4,7.22,2.52,7.86.12.63,4.06,18.22,4.68,19.5.63,1.25.87,2.4,1.27,4.28.4,1.92,3.42,9,3.82,9.75.36.77-2.04,2.92-1.52,5.06.49,2.16,2.16,4.06,4.78,4.56,2.67.51,4.7.38,4.7.38,0,0,10.53,9.86,20.63,10.87,10.13,1.02,13.04-.87,14.17-.76,1.13.12,4.94-1.12,5.7-1.02.77.15,2.54-2.4,3.42-2.14.88.26,1.37-.37,2.4-1.38,1.02-1.02,2.82-1.4,2.92-2.17.12-.75,3.04-1.27,3.04-1.27l3.03,3.17c0,.5.12.38-.65.38s-1.12,1.52-1.27,2.02q-.12.52-.84.52c-.78,0-1.54,2.01-1.54,3.41"/>
  </g>
</svg>