<?xml version="1.0" encoding="UTF-8"?>
<svg id="Layer_2" data-name="Layer 2" xmlns="http://www.w3.org/2000/svg" viewBox="0 0 654.5 634.05">
  <defs>
    <style>
      .cls-1 {
        fill:#808080
      }
    </style>
  </defs>
  <g id="Layer_1-2" data-name="Layer 1">
    <path class="cls-1" d="m27.02,318.45c6.13-11.84,5.22-32.03,19.93-37.34,10.65-3.94,21.36,2.95,31.71,4.43,9.1,1.34,18.38-1.75,27.48-4.55,6.3-35.65,18.41-70.31,43.67-97.18,3.27-3.42,6.56-6.68,9.62-10.09-2.6-.88-5.22-1.61-7.35-2.95-13.45-7.7-20.39-20.59-14.03-35.59,1.66-3.88,4.41-11.17,3.91-15.17-.59-3.93-1.72-2.74-5.6-8.43-4.09-5.6-12.43-11.23-16.89-13.98-11.79-7.35-23.28-14.32-35.07-21.41-9.68-5.95-5.07-18.32,6.01-13.3,10.38,4.7,13.98,18.32,24.89,23.54,6.51,3.15,13.3,5.83,19.87,9.1,11.58,5.95,22.82,15.37,20.37,29.81-2.07,11.38-16.69,29.18,2.98,34.46.93.2,4.96.67,9.51,1.19,1.05-2.33,2.1-4.61,2.6-7.35,4.75-24.27,20.13-43.99,41.86-55.84,14.04-7.61,46.88-6.22,53.27-23.34,1.05-2.68-1.78-8.02-.96-9.63-4.81,9.63-40.26-1.28-46.83-4.49-16.22-7.88-16.22-26.14-23.16-40.72-2.04-4.2-6.48-7.15-8.25-11.12-3.97-8.69,2.86-11.44,9.16-4.87,5.4,5.63,9.02,16.19,10.82,23.6,3.94,15.58,6.1,23.8,23.69,26.75,10.97,1.95,21.18-2.66,32.03-2.19,8.81.38,15.32,6.27,23.6,7.88,9.48,1.95,17.12-3.88,26.2-4.81,5.11-.53,10.19-.26,15.26-.12,4.96-.14,10.18-.4,15.2.12,9.16.93,16.63,6.76,26.26,4.81,8.37-1.6,14.85-7.5,23.63-7.88,10.76-.47,21.06,4.14,32.03,2.19,17.59-2.95,19.87-11.18,23.6-26.75,1.92-7.41,5.51-17.97,10.91-23.6,6.42-6.56,13.04-3.82,9.19,4.87-1.84,3.97-6.24,6.91-8.34,11.12-6.8,14.58-6.88,32.85-23.13,40.72-6.48,3.21-41.98,14.12-46.73,4.49.73,1.61-2.13,6.95-1.14,9.63,6.48,17.12,39.39,15.72,53.36,23.34,21.68,11.84,37.17,31.57,41.95,55.84.47,2.74,1.46,5.02,2.54,7.35,4.55-.53,8.49-.99,9.42-1.19,19.93-5.28,5.08-23.08,3.07-34.46-2.6-14.44,8.84-23.86,20.42-29.81,6.48-3.27,13.3-5.95,19.78-9.1,10.91-5.22,14.44-18.85,24.88-23.54,11.09-5.02,15.93,7.35,6.04,13.3-11.79,7.09-23.46,14.06-35.07,21.41-4.49,2.74-12.9,8.37-16.86,13.98-3.94,5.69-5.02,4.49-5.6,8.43-.61,4,2.19,11.29,3.88,15.17,6.39,15-.55,27.89-13.98,35.59-2.27,1.34-4.9,2.07-7.44,2.95,3.15,3.41,6.36,6.68,9.57,10.09,25.35,26.87,37.37,61.52,43.73,97.18,9.16,2.8,18.47,5.89,27.54,4.55,10.38-1.49,21.09-8.37,31.71-4.43,14.59,5.31,13.92,25.5,19.87,37.34,9.02,17.77,38.86,44.52,21.68,65.93-2.28,2.8-8.95,3.94-8.95,3.94-4.43-4.46.99-15.26.67-21.94.38.2,1.11.35,1.52.55-2.86-1.14-5.86-9.36-7.35-11.84-5.75-10.3-11.09-20.8-15.11-31.98-.99-17.53-9.63-24.53-26.96-22.35-5.75.76-23.4,4.14-40.7,5.11,5.46,39.97,7.73,82.85.44,123.11,3.15.41,6.04,1.29,9.1,4.03,14.91,13.51,13.98,35.71,10.44,53.68-3.41,16.45-15.99,27.63-24.53,41.22-3.82,6.01-6.1,12.84-9.07,19.31-6.39,13.71,15.35,27.01,24.68,33.37,14.47,9.77,29.9,17.8,44.08,27.89,4.29,3.06,7.91,8.23,7.64,13.71-.09,4.61-5.16,12.78-10.71,11.76-6.94-1.26-7.24-11.35-9.89-16.31-4.55-7.9-14.38-9.36-22.14-12.89-9.69-4.49-16.78-12.46-25.79-17.89-13.13-8.02-26.78-21.12-23.22-37.98,3.24-15.64,20.02-24.74,26.93-38.57,7.96-15.72,7.76-32.99,7.18-50.18-.26-6.68-4.14-10.24-9.31-12.49-5.8,22.2-14.7,43.32-28.36,62.11-15.52,21.41-33.58,39.73-54.76,55.46-29.38,21.65-58.32,47.93-96.45,51.02-3.62.26-34.05-4.43-41.34-6.5-7.35,2.07-37.64,6.76-41.28,6.5-38.1-3.09-67.19-29.38-96.48-51.02-21.27-15.72-39.26-34.04-54.84-55.46-13.71-18.79-22.46-39.91-28.3-62.11-5.13,2.25-9.01,5.8-9.33,12.49-.55,17.19-.76,34.46,7.27,50.18,6.83,13.83,23.6,22.93,26.9,38.57,3.47,16.86-10.24,29.96-23.22,37.98-9.02,5.43-16.19,13.39-25.82,17.89-7.76,3.53-17.65,4.99-22.06,12.89-2.68,4.96-3.01,15.05-9.98,16.31-5.6,1.02-10.5-7.15-10.68-11.76-.35-5.49,3.32-10.65,7.61-13.71,14.18-10.09,29.7-18.12,43.99-27.89,9.48-6.36,31.24-19.66,24.89-33.37-3-6.48-5.34-13.3-9.16-19.31-8.63-13.59-21.21-24.77-24.47-41.22-3.56-17.97-4.52-40.17,10.5-53.68,2.95-2.74,5.89-3.62,8.96-4.03-7.29-40.26-5.02-83.14.47-123.11-17.39-.96-34.98-4.35-40.79-5.11-17.27-2.19-25.88,4.81-26.9,22.35-3.99,11.17-9.28,21.68-15.17,31.98-1.49,2.48-4.46,10.7-7.29,11.84.46-.2.99-.35,1.55-.55-.41,6.68,5.13,17.48.73,21.94,0,0-6.88-1.14-9.16-3.94-17.18-21.42,12.69-48.17,21.79-65.93h0Z"/>
  </g>
</svg>