<?xml version="1.0" encoding="UTF-8"?>
<svg id="Layer_2" data-name="Layer 2" xmlns="http://www.w3.org/2000/svg" viewBox="0 0 654.5 486.55">
  <defs>
    <style>
      .cls-1 {
        fill:#808080
      }
    </style>
  </defs>
  <g id="Layer_1-2" data-name="Layer 1">
    <path class="cls-1" d="m636.91,168.79c-6.99-3.02-24.69-9.59-44.63-11.55-14.52-1.44-33.86-1.71-48.51-.29-16.74,1.61-65.11,10.3-89.63,14.55-36.6,6.34-53.3,10.71-65.32,10.77-8.17.03-18.22.03-21.43.02-.17-.77-.34-1.55-.53-2.28,6.35-3.51,10.12-8.37,8.13-14.05,4.61-6.42,14.88-18.23,19.16-26.51,3.53-6.82,2.99-10.2,2.99-10.2,0,0,12.58.86,19.69,1.62,5.45.59,9.99-4.79,9.99-4.79,0,0,3.77,1.37,6.35,1.2,2.11-.11,4.77-2.35,4.77-2.35,0,0,6.49,1.93,9.03-1.04,2.39.11,6.2.57,9.52,2.13,0,0-.57-3.43-6.6-4.27,0,0,4.93.08,7.72,1.65,0,0-.48-3.59-10.24-3.97-.39-.43-.87-.71-1.52-.63-1.96.19-5.97,1.23-8.74,1.61-2.75.38-5.62-1.61-10.6,1.88-4.35-.79-11.46,1.6-17.21.8-5.73-.81-14.28-.25-14.96,3.03-6.06.19-8.24,2.05-10.11,5.36-3.86,6.83-12.64,24-14.84,30.45-3.3,1.62-6.28,3.38-8.68,4.91-4.88-6.72-10.66-9.8-13.15-10.43-5.06-1.26-6.95-2.96-6.95-2.96,0,0-.64-2.11.83-1.91,3.99.57,8.16-.36,11.72-3.38,6.69-5.71,5.27-14.57,5.27-14.57,0,0,6.12-1.98,3.25-11.84-2.66-9.08-10.15-8.45-13-7.18-1.71-1.8-4.76-3.28-8.35-4.36,1.66-1.57,4.5-4.52,5.35-7.54,1.2-4.31-.81-6.09-.81-6.09,0,0,7.17-7.32,8.29-9.65.91-1.95.34-4.66.34-4.66,0,0,6.55-5.57,8.32-8.6,1.96-3.37.69-5.15.69-5.15,0,0,4.03-1.96,5.64-4.41,1.3-2.02.67-4.49.67-4.49,0,0,5.71-4.87,7.81-7.84,1.7-2.38.83-4.75.83-4.75,0,0,5.27-3.83,7.06-6.03,2.04-2.5,1.56-4.56,1.56-4.56,0,0,3.73-3.05,4.91-4.6.9-1.2.48-3.08.48-3.08,0,0,4.86-2.12,6.85-3.48,1.99-1.35,1.82-3.09,1.82-3.09,0,0,5.85-2.48,9.13-4.7,1.98-1.37,2.02-3.16,2.02-3.16,0,0,6.08-1.5,10.5-.73,4.29.75,8.08,5.26,10.17,6.78,3.22,2.33,5.62-1.73,2.8-6.12-3.39-5.31-8.01-6.4-12.89-6.29-6.02.16-11.93,3.03-11.93,3.03,0,0-3.37-1.3-5.55.12-1.44.94-7.91,6.3-7.91,6.3,0,0-1.59-.11-3.17,1.11-1.36,1.04-5.37,5.87-5.37,5.87,0,0-2.06-.18-3.46,2.31-.8,1.45-2.79,6.78-2.79,6.78,0,0-2.76.5-3.86,1.78-1.68,1.92-3.01,6.18-5.47,8.82,0,0-3.49,1.07-4.5,3.13-1.03,2.14-3.29,9.19-3.29,9.19,0,0-2.67.69-3.94,2.24-1.25,1.55-2.65,5.85-2.65,5.85,0,0,.19,1.81-1.71,5.1-1.91,3.28-8.05,10.25-8.05,10.25,0,0-2.87,1.45-3.63,2.78-2.24,3.88-4.1,12.12-4.1,12.12,0,0-2.91.82-3.61,2.98-.84,2.51-.3,5.52-2.86,8.43-.64.72-1.71,1.66-2.57,2.35-1.59-.17-3.22-.28-4.81-.28-1.45,0-2.89.09-4.34.23-.03-.39-.07-.8-.18-1.18-.53-2.21-3.38-3.25-3.38-3.25,0,0-1.2-8.36-3.16-12.4-.66-1.37-3.42-3.05-3.42-3.05,0,0-2.06-9.05-2.19-12.83-.11-3.81-3.43-5.66-3.43-5.66,0,0-.42-4.5-1.31-6.28-.85-1.8-3.3-3.08-3.3-3.08,0,0-.61-7.35-1.19-9.7-.48-2.21-3.67-4.05-3.67-4.05-1.78-3.13-2.11-7.55-3.33-9.8-.8-1.52-3.38-2.61-3.38-2.61,0,0-.74-5.66-1.2-7.24-.78-2.73-2.83-3.03-2.83-3.03,0,0-2.82-5.61-3.89-6.92-1.28-1.55-2.87-1.79-2.87-1.79,0,0-5.1-6.68-6.27-7.92-1.82-1.88-5.37-1.36-5.37-1.36,0,0-5.14-4.12-10.96-5.61-4.73-1.21-9.47-1.2-13.97,3.22-3.74,3.65-2.32,8.14,1.36,6.58,2.36-1,7.08-4.53,11.43-4.31,4.46.23,10.06,3.06,10.06,3.06,0,0-.37,1.77,1.25,3.54,2.67,2.9,7.81,6.63,7.81,6.63,0,0-.54,1.64,1.1,3.43,1.63,1.77,5.88,4.93,5.88,4.93,0,0-.84,1.72-.2,3.11.8,1.78,3.74,5.58,3.74,5.58,0,0-.97,1.91.47,4.8,1.27,2.54,5.57,7.46,5.57,7.46,0,0-1.4,2.11-.28,4.82,1.4,3.36,5.83,9.38,5.83,9.38,0,0-1.17,2.26-.32,4.54,1,2.75,4.49,5.55,4.49,5.55,0,0-1.66,1.45-.5,5.17,1.05,3.36,5.69,10.05,5.69,10.05,0,0-.46,5.04.32,7.07.94,2.41,7.54,10.24,7.54,10.24,0,0-1.56,1.37-1.36,4.65-3.71,1.1-6.81,2.6-8.53,4.4-2.84-1.27-10.38-1.91-13.01,7.18-2.86,9.86,3.25,11.84,3.25,11.84,0,0-1.42,8.87,5.27,14.57,3.54,3.03,7.97,3.95,11.95,3.38,1.49-.21.84,1.91.84,1.91,0,0-1.9,1.7-6.98,2.96-2.51.63-8.36,3.75-13.24,10.55-2.44-1.55-5.46-3.35-8.88-5.04-2.22-6.45-11-23.63-14.85-30.45-1.88-3.31-4.06-5.16-10.13-5.36-.69-3.28-9.18-3.84-14.95-3.03-5.73.8-12.85-1.6-17.19-.8-4.98-3.49-7.83-1.5-10.59-1.88-2.78-.38-6.79-1.42-8.73-1.61-1.27-.17-2.6.49-2.6.49-11.53.59-11.72,4.68-11.72,4.68,2.7-1.72,7.62-2.06,7.62-2.06-5.97,1.18-6.36,4.61-6.36,4.61,5.17-2.77,11.76-2.77,11.76-2.77,2.42,3.22,9.19,1.18,9.19,1.18,0,0,2.63,2.24,4.74,2.35,2.6.17,6.36-1.2,6.36-1.2,0,0,4.55,5.37,10.03,4.79,7.08-.76,19.68-1.62,19.68-1.62,0,0-.54,3.38,2.97,10.2,4.27,8.27,14.55,20.09,19.18,26.51-2.03,5.77,1.86,10.69,8.38,14.2-.58,2.06-.96,4.33-1.25,6.71-4.36,0-12.57,0-19.44-.03-12.03-.05-28.72-4.42-65.32-10.76-24.53-4.26-72.87-12.95-89.66-14.55-14.63-1.4-33.96-1.15-48.5.3-19.93,1.97-37.61,8.53-44.61,11.53-8.69,3.74-19.32,12.24-17.36,22.64,2.72,14.55,16.88,29.77,31.15,37.52,8.45,4.57,13.57,15.53,32.28,23.38,13.98,5.86,25.79,1.05,25.79,1.05,0,0-2.01,8.72,3.69,16.05,7.4,9.59,20.71,12.58,31.04,14.11,7.3,1.08,13.55,5.87,39.49,3.94,25.16-1.88,49.34-6.13,77.17-24.66,36.34-24.18,27.51-37.22,39.55-45.07,2.69-1.75,5.23-2.8,7.58-3.48,2.41,9.07,5.06,10.78,5.92,13.67.61,2.08.59,7.45,1,13.93-2.42.62-5.47,1.77-7.36,3.94-3.5,3.99-12.59,10.98-18.39,13.16-7.66,2.89-9.42,4.89-8.87,9.72-9.38,9.88-12.16,19.32-15.08,27.18-3.6,9.63-3.17,15.95-1.25,18.33-6.55,3.72-15.65,7.67-16.96,10.36-.96,1.99.11,4.65.11,4.65,0,0-7.13,2.81-9.9,4.45-2.77,1.64-1.65,5.71-1.65,5.71,0,0-7.23,4.75-11.61,6.69-5.22,2.29-3.16,5.52-3.16,5.52,0,0-10.49,6.27-11.98,9.27-10.43,2.67-9.94,6.54-9.94,6.54,2.33-2.18,7.1-3.43,7.1-3.43-5.67,2.25-5.43,5.71-5.43,5.71,3.96-3.19,9.32-4.52,10.71-4.82,1.74.74,3.95.71,5.55-1.08,3.14-3.48,5.51-8.8,5.51-8.8,0,0,3.38.35,7.45-2.62,5.72-4.15,7.92-9.9,7.92-9.9,0,0,3.34.42,6.49-2.5,4.03-3.73,5.59-7.37,5.59-7.37,0,0,5.1.09,9.43-4.52,3.99-4.21,9.96-12.18,9.96-12.18,0,0,5.98-.61,7.54-7.25,1.53-6.65,2.12-29.18,7.01-34.48,9.23-1.59,17.99-7.73,23.21-11.94,3.07-2.49,6.59-5.9,9.38-8.72.61,3.43,1.45,6.86,2.71,9.99,1.7,4.29,3.21,7.35,4.59,9.75-2.03,1.2-5.98,3.66-10.86,7.57-8.45,6.77-23.38,23.39-25.35,27.33-2.06,4.08-.58,9.59-.58,9.59,0,0-2.44,1.99-4.09,6.62-1.2,3.28-3.54,10.68-5.77,20.68-2.56,11.63-7.08,28.46-3.19,34.8,0,0-.05,3.29-1.73,8.87-2.56,8.57-1.94,12.89,1.3,18.09-1.29,4.23-3.29,12.3-2.72,17.35.4,3.35,1,7.25,1,7.25,0,0-4.07,6.27-5.17,9.78-.93,2.95,1.35,7.77,1.35,7.77,0,0-2.98,2.52-3.74,8.09-.51,3.79-4.67,7.45-5.34,10.37-.1.38-.1.74-.05,1.09-10.16,7.74-7.88,11.76-7.88,11.76,1.57-3.5,6.28-7.09,6.28-7.09-5.24,5.11-3.34,8.85-3.34,8.85,2.75-5.11,7.65-8.9,9.32-10.11.63.05,1.27.03,1.86-.14,3.01-.82,5.05-5.46,6.55-10,1.5-4.56.56-11.55.56-11.55,0,0,2.16-1.03,3.59-4.05,1.2-2.54-.37-6.49,1.6-13.73,2.4-2.7,1.38-7.38,1-10.76-.5-4.47.84-9.86,1.05-13.63,1.39-1.95,2.08-6.08,1.51-9.41-.59-3.33-.96-11.4-.08-17.26,2.13-1.48,3.98-3.01,3.69-8.42-.17-2.93.42-15.54,1.87-24.44,1.38-8.38,6.49-28.53,6.49-28.53,0,0,3.94.86,9.3-4.78,4-4.22,11.27-15.5,17.18-25.64,3.43-5.89,7.2-8.6,9.79-9.87,1.33.92,2.67,1.54,4.14,2.18.23,5.5-9.7,12.04-11.22,27.69-10.97,10.16-16.09,24.09-16.47,38.89-.4,15.65,4.81,24.51,4.81,24.51,0,0-.99,7.19.69,17.33,1.49,8.93,5.5,16.91,5.5,16.91,0,0,.03,9.82,2.96,21.15,5.52,21.11,18.79,34.78,27.27,34.78s19.23-14.5,25.58-32.26c6.05-17.01,4.67-23.68,4.67-23.68,0,0,3.27-7.61,5.05-16.48,2.09-10.57,1.15-17.76,1.15-17.76,0,0,5.17-8.86,4.76-24.51-.41-14.8-5.5-28.73-16.5-38.89-4.65-18.39-7.82-18.82-13.32-27.69,1.95-.5,3.76-1.34,5.47-2.44,2.57,1.17,6.64,3.88,10.29,10.13,5.92,10.14,13.18,21.42,17.21,25.64,5.32,5.64,9.28,4.78,9.28,4.78,0,0,5.11,20.15,6.49,28.53,1.46,8.91,2.06,21.51,1.87,24.44-.28,5.42,1.54,6.94,3.68,8.42.87,5.86.51,13.92-.06,17.26-.59,3.33.13,7.46,1.5,9.41.23,3.77,1.56,9.16,1.05,13.63-.37,3.38-1.41,8.06.99,10.76,1.98,7.24.4,11.19,1.63,13.73,1.43,3.03,3.58,4.05,3.58,4.05,0,0-.95,6.99.56,11.55,1.5,4.55,3.54,9.18,6.54,10,.61.18,1.25.19,1.88.14,1.67,1.21,6.55,5,9.32,10.11,0,0,1.87-3.74-3.34-8.85,0,0,4.72,3.59,6.28,7.09,0,0,2.3-4.02-7.86-11.76.03-.34.02-.71-.08-1.09-.67-2.92-4.84-6.58-5.33-10.37-.76-5.57-3.74-8.09-3.74-8.09,0,0,2.27-4.82,1.34-7.77-1.07-3.51-5.16-9.78-5.16-9.78,0,0,.61-3.9.99-7.25.59-5.05-1.42-13.12-2.68-17.35,3.21-5.2,3.85-9.53,1.27-18.09-1.68-5.58-1.74-8.87-1.74-8.87,3.92-6.33-.61-23.17-3.17-34.8-2.22-9.99-4.59-17.39-5.77-20.68-1.66-4.63-4.1-6.62-4.1-6.62,0,0,1.48-5.52-.56-9.59-1.98-3.94-16.91-20.56-25.37-27.33-4.72-3.77-8.53-6.2-10.66-7.45,1.87-2.67,3.46-5.95,4.7-9.87,1.02-3.21,1.76-6.63,2.32-10.07,2.77,2.82,6.36,6.28,9.47,8.81,5.2,4.21,13.96,10.35,23.17,11.94,4.89,5.3,5.49,27.83,7.02,34.48,1.55,6.64,7.54,7.25,7.54,7.25,0,0,5.96,7.97,9.98,12.18,4.34,4.61,9.43,4.52,9.43,4.52,0,0,1.56,3.64,5.57,7.37,3.16,2.92,6.49,2.5,6.49,2.5,0,0,2.24,5.75,7.95,9.9,4.09,2.97,7.47,2.62,7.47,2.62,0,0,2.36,5.32,5.47,8.8,1.6,1.79,3.83,1.81,5.53,1.08,1.43.3,6.77,1.63,10.74,4.82,0,0,.23-3.46-5.42-5.71,0,0,4.76,1.25,7.1,3.43,0,0,.48-3.87-9.96-6.54-1.48-3-11.94-9.27-11.94-9.27,0,0,2.05-3.23-3.16-5.52-4.4-1.95-11.63-6.69-11.63-6.69,0,0,1.12-4.07-1.65-5.71-2.76-1.64-9.88-4.45-9.88-4.45,0,0,1.06-2.67.11-4.65-1.3-2.69-10.44-6.64-16.96-10.36,1.89-2.37,2.32-8.7-1.3-18.33-2.91-7.86-5.69-17.3-15.07-27.18.58-4.83-1.21-6.83-8.88-9.72-5.78-2.18-14.88-9.17-18.39-13.16-1.92-2.18-4.98-3.33-7.38-3.94.53-6.5.74-11.84,1.34-13.93,1.01-3.32,4.35-5.12,6.98-18.29,2.4.67,4.99,1.72,7.76,3.53,12.02,7.86,3.2,20.88,39.54,45.08,27.81,18.54,52.01,22.79,77.17,24.64,25.93,1.94,32.19-2.85,39.5-3.94,10.31-1.54,23.63-4.51,31.04-14.08,5.66-7.35,3.68-16.08,3.68-16.08,0,0,11.81,4.8,25.79-1.06,18.72-7.84,23.84-18.79,32.27-23.37,14.28-7.74,28.41-22.97,31.16-37.51,1.96-10.4-8.67-18.92-17.36-22.63"/>
  </g>
</svg>