<?xml version="1.0" encoding="UTF-8"?>
<svg id="Layer_2" data-name="Layer 2" xmlns="http://www.w3.org/2000/svg" viewBox="0 0 654.5 442.09">
  <defs>
    <style>
      .cls-1 {
        fill:#808080
      }
    </style>
  </defs>
  <g id="Layer_1-2" data-name="Layer 1">
    <path class="cls-1" d="m264.19,6.05c15.74,19.2,39.54,25.72,56.44,41.75,6.62,6.24,14.59,3.26,20.25-3.65,13.15-16.12,33.59-23.52,47.99-44.15.87,9.83-3.84,19.32-12.19,24.57-6.43,5.18-13.73,9.6-20.44,14.4-9.6,7.2-17.56,15.17-5.57,27.07,1.1,1.43,1.91,3.06,2.4,4.8,7.39,19.2,9.6,19.2,26.11,5.76,5.75-5.35,10.5-11.69,14.01-18.72,2.71-5.81,6.45-11.08,11.04-15.55,5.95-4.51,14.21-16.32,18.62-11.13s-7.87,9.6-12.38,15.26c-2.17,2.02-3.98,4.39-5.37,7.01-9.12,22.08-21.6,41.08-44.82,51.25,23.71-9.6,47.32-20.16,71.22-29.75,60.71-24.85,124.63-41,189.85-47.99,11.81-1.25,26.2-5.18,32.54,10.37,3.84,9.6-10.46,25.34-25.63,30.04-3.36,1.06-6.72,1.92-10.65,2.98,17.18,12.38,15.07,15.45,4.22,32.25-21.5,33.4-54.13,54.81-82.35,80.62-30.82,30.28-70.18,50.38-112.78,57.59-12.83,2.71-26.18,1.61-38.39-3.17-11.04-4.99-13.82.48-14.88,9.6-.09,1.18-.09,2.37,0,3.55,0,52.5-5.18,105.58,3.26,157.41,1.42,8.79,4.03,17.35,7.77,25.44,1.25,2.69,3.17,5.76,0,7.68-3.17,1.92-5.85,0-7.2-3.07-7.2-16.8-19.2-30.33-17.85-51.93,1.92-35.32,4.99-71.12-4.22-106.54-3.55-13.73.77-29.47.77-44.44-1.92,19.2-10.46,36.38-14.59,54.9-1.06,4.9-2.59,9.6-8.35,10.17s-7.68-4.51-9.6-8.73c-10.68-20.68-16.68-43.45-17.56-66.71-1.07,18.98-.56,38.02,1.54,56.92,2.3,15.55-8.25,30.52-5.76,47.03,3.15,23.02,3.96,46.31,2.4,69.49-.96,18.72-12,30.43-25.05,42.33,14.3-24.76,10.08-51.64,11.23-77.75,1.06-24.67,4.61-48.95-3.65-73.71-4.51-13.44-1.06-29.47-.86-44.34,0-9.6-3.74-11.81-12.09-8.73-39.35,14.49-75.25,0-107.02-19.2-43.58-26.2-85.23-56.44-115.18-99.24-3.74-3.93-8.08-7.23-12.86-9.79-6.53-4.51-13.53-9.6-13.05-17.85s9.6-10.75,17.47-13.92c-10.17-4.9-20.16-9.12-29.47-14.4C4.17,56.53-1.87,50.1.53,40.31c2.4-9.79,13.44-10.17,22.36-10.27,61.72,0,120.17,15.55,177.66,36.09,23.96,10.01,48.59,18.32,73.71,24.86-12.96-22.27-20.06-43.77-35.42-61.43,13.29,5.39,23.98,15.71,29.85,28.79,5.85,14.21,17.47,22.08,30.71,31.19,2.29-10.89,6.28-21.35,11.81-31,4.7-7.01-1.82-10.65-6.72-13.92-9.6-6.72-20.16-12.77-29.85-19.77-6.24-4.22-13.34-8.93-10.46-18.81Z"/>
  </g>
</svg>