<?xml version="1.0" encoding="UTF-8"?>
<svg id="Layer_2" data-name="Layer 2" xmlns="http://www.w3.org/2000/svg" viewBox="0 0 654.5 583.58">
  <defs>
    <style>
      .cls-1 {
        fill:#808080
      }
    </style>
  </defs>
  <g id="Layer_1-2" data-name="Layer 1">
    <path class="cls-1" d="m293.72,323.55c2.78-6.26-1.49-9.24-3.58-12.52-23.83-37.76-40.4-79.64-48.88-123.48-1.39-7.25-4.27-14.21-6.16-21.36-2.14-7.68-1.87-15.83.79-23.35,1.29-3.58,3.08-7.15,7.75-6.66,4.67.5,5.86,4.37,6.56,7.95.79,3.62.99,7.34.6,11.03-5.56,35.37,7.75,67.06,19.87,98.75,6.61,17.47,15.17,34.13,25.53,49.67,1.35,2.75,4.32,4.32,7.35,3.87,1.69-10.93,3.48-22.25,5.27-33.58,3.37-22.66,8.15-45.09,14.31-67.16,5.84-16.32,8.8-33.53,8.74-50.86-.46-7.01,1.35-13.98,5.17-19.87,1.27-2.92,4.17-4.8,7.35-4.77,4.57,0,5.96,3.97,6.56,7.65,1.34,8.59-.05,17.38-3.97,25.13-18.08,39.24-25.13,81.36-32.09,123.48-2.33,9.02-2.33,18.49,0,27.52.82,1.59,2.26,2.77,3.97,3.28,2.09.6,3.48-1.19,3.97-3.08,1.29-4.77,2.58-9.93,3.58-14.4,7.2-32.61,16.56-64.7,28.01-96.06,16.56-44.32,42.21-84.69,75.3-118.52,25.03-29.31,54.02-54.99,86.13-76.3,29.8-18.58,55.04-10.93,70.43,21.76,7.54,16.39,10.33,34.56,8.05,52.45-1.79,7.29.14,14.99,5.17,20.56,5.66,5.91,8.64,13.88,8.25,22.05-.21,8.09,1.1,16.14,3.87,23.74,1.16,2.19,1.65,4.68,1.39,7.15-6.66,24.04-4.77,50.66-21.36,71.73-.43.47-.83.97-1.19,1.49-8,21.6-23.38,39.69-43.41,51.06-1.19.5-1.29,3.08-2.19,5.27,15.3,4.17,29.8,7.65,44.7,12.22,19.67,5.56,37.28,16.75,50.66,32.19,11.86,13.61,16.71,31.98,13.11,49.67-3.97,29.11-18.28,54.84-21.86,83.65-1.59,13.11-12.52,21.56-21.26,29.8-10.77,11.44-25.38,18.51-41.03,19.87-5.54.42-11,1.49-16.29,3.18-25.56,6.55-52.7,2.09-74.81-12.32-26.63-16.94-51.81-36.05-75.3-57.12-3.77-4.2-8.51-7.41-13.81-9.34,6.85,14.9,12.82,27.52,18.48,40.33,7.53,16.24,13,33.36,16.29,50.96.89,5.56,1.79,11.82-3.68,15.3-5.7,3.19-12.88,1.66-16.79-3.58-12.5-10.17-22.92-22.65-30.7-36.76-5.39-11-11.64-21.56-18.68-31.59-3.28,5.27-1.09,9.93-.5,14.21,1.69,14.11,3.68,28.11,5.17,42.32,1.11,17.12-6.33,33.67-19.87,44.21-13.81,12.91-31.69,9.93-47.39,4.87-15.62-4.09-29.53-13.03-39.74-25.53-4.07-5.66-12.12-8.25-18.08-12.62-16.9-13.15-32.71-27.63-47.29-43.31-11.72-12.32-9.93-28.91-9.04-44.11,1.95-24.32,12.52-47.15,29.8-64.37,3.68-3.87,9.24-6.46,9.93-12.72-2.78-4.87-7.55-3.68-11.62-3.97-17.85-1.72-35.5-5.04-52.75-9.93-27.91-6.92-52.22-24.04-68.15-47.98-1.09-1.59-2.78-2.88-3.18-4.57-3.48-18.28-15-31.49-25.13-46.1-9.26-13.66-16.42-28.63-21.26-44.41-5.36-18.58-14.38-35.91-26.52-50.96-11.08-13.59-11.08-33.1,0-46.69,11.72-14.5,26.92-15.8,43.71-10.93,17.24,5.07,33.62,12.7,48.58,22.65,69.9,43.9,130.08,101.65,176.83,169.68,4.36,7.52,9.85,14.33,16.29,20.17Z"/>
  </g>
</svg>