<?xml version="1.0" encoding="UTF-8"?>
<svg id="Layer_2" data-name="Layer 2" xmlns="http://www.w3.org/2000/svg" viewBox="0 0 522.58 654.5">
  <defs>
    <style>
      .cls-1 {
        fill:#808080
      }
    </style>
  </defs>
  <g id="Layer_1-2" data-name="Layer 1">
    <path class="cls-1" d="m519.79,599.73c-1.95-8.21-4.43-16.74-7.6-24.49-6.25-15.31-9.47-26.47-6.83-43.36,2.53-15.37-5.54-29.72-9.09-43.99-4.38-17.63-6.66-35.78-10.6-53.58-3.97-17.52-7.96-35.75-21.65-47.27-9.67-7.94-14.08-10.97-19.83-23.03-4.44-9.48-13-15.34-16.36-25.4-3.72-10.8-1.9-23.47-2.84-34.88-1.87-21.71-5.68-43.16-9.78-64.51,0,0,5.89,7.38,7.38,12.32,1.71,5.84,7.85,9.67,11.29,14.07,9.39,11.96,13.14,27.9,23.55,39.09,12.39,13.53,22.48,30.14,30.58,47.08,4.41,9.09,6.67,19.42,11.82,27.87,3.28,5.32,10.83,16.8,17.16,10.16,5.51-6.01-.72-19.61-3.06-25.45-2.07-4.91-23-52.92-24.74-51.51,12.64-9.92-6.72-26.8-12.37-34.6-9.92-13.75-17.6-29.34-26.39-44.05-11.27-18.7-24.35-36.47-43.36-45.65-6.72-3.22-15.01-5.84-20.88-10.6,4.24-4.52,10.99-8.96,16.58-11.24,25.67-10.52,50.08-31.46,51.32-64.51.11-3.8-5.34-32.81-10.94-30.58,0,0,8.1-3.25,13.91-3.25,18.04,0,56.14-28.84,30.11-48.24-10.22-7.43-39.83-8.87-43.69,8.1,9.59.28,23.97-3.5,30.85,6.45-10.44,17.99-30.77,14.93-46.36,22.78-12.09,6.03-21.32,17.19-26.11,30.88-4.08,11.57-8.59,22.81-13.36,34.02-1.54,3.58-9.12,15.45-8.21,19.2-3.75-15.09-3.11-25.84-12.29-38.43-5.23-7.02-9.04-15.29-14.57-21.93-10.44-12.62-27.41-14.02-36.25-28.87-3.22-5.45-12.37-29.47-19.53-15.07,1.35-2.59.77-27.1-1.13-28.18-20.17-12.17-50.22-12.12-70.44,0-1.93,1.07-2.37,25.59-1.16,28.18-7.22-14.4-16.25,9.62-19.53,15.07-8.92,14.85-25.9,16.25-36.31,28.87-5.48,6.64-9.34,14.9-14.46,21.93-9.15,12.59-8.65,23.33-12.42,38.43.94-3.75-6.58-15.62-8.1-19.2-4.74-11.21-9.34-22.45-13.39-34.02-4.85-13.69-13.97-24.85-26.09-30.88-15.59-7.85-35.87-4.79-46.22-22.78,6.77-9.95,20.96-6.17,30.66-6.45-3.75-16.96-33.36-15.53-43.63-8.1-25.92,19.39,11.98,48.24,30.08,48.24,5.9,0,13.91,3.25,13.91,3.25-5.57-2.23-11.05,26.77-10.85,30.58,1.18,33.06,25.54,53.99,51.12,64.51,5.73,2.29,12.32,6.72,16.53,11.24-5.78,4.76-13.97,7.38-20.8,10.6-18.92,9.17-32.04,26.94-43.28,45.65-8.76,14.71-16.45,30.3-26.39,44.05-5.67,7.8-24.98,24.68-12.37,34.6-1.82-1.4-22.67,46.6-24.77,51.51-2.37,5.84-8.51,19.45-3,25.45,6.34,6.64,13.8-4.85,17.16-10.16,5.09-8.46,7.38-18.79,11.68-27.87,8.13-16.94,18.24-33.55,30.58-47.08,10.39-11.19,14.32-27.13,23.66-39.09,3.53-4.41,9.53-8.23,11.29-14.07,1.52-4.93,7.38-12.32,7.38-12.32-4.16,21.35-7.88,42.81-9.72,64.51-1.08,11.4.8,24.08-2.84,34.88-3.47,10.05-12.04,15.92-16.47,25.4-5.62,12.06-10.16,15.09-19.75,23.03-13.66,11.51-17.82,29.75-21.6,47.27-3.94,17.79-6.31,35.95-10.74,53.58-3.47,14.27-11.43,28.62-9.12,43.99,2.7,16.89-.55,28.04-6.8,43.36-3.09,7.75-5.73,16.28-7.52,24.49-3.31,14.79-5.56,34.24,4.16,46.66,13.09,16.61,39.23,4.43,51.9-7.33,6.64-6.06,17.05-20.25,10.77-29.97-1.02-1.4-28.65,35.31-40.55,11.1-10.11-20.66,1.51-40.16,13.06-56.39,13.83-19.26,25.45-36.94,30.58-61.37,5.62-28.43,1.74-65.43,15.59-91.01,9.78-18.32,18.07,8.29,19.95,16.67,6.77,30,8.98,60.82,23.05,88.29,10.99,21.49,28.43,41.76,47.88,53.94,11.54,7.35,25.32,12.23,38.4,14.41,40.52,6.55,89.03,8.7,125.78-14.41,19.47-12.18,36.83-32.45,47.88-53.94,14.08-27.46,16.25-58.29,23.06-88.29,1.82-8.37,10.05-34.98,19.89-16.67,13.83,25.59,9.97,62.59,15.79,91.01,4.93,24.43,16.66,42.12,30.47,61.37,11.46,16.22,23.28,35.73,12.98,56.39-11.82,24.21-39.53-12.51-40.38-11.1-6.45,9.72,4.1,23.91,10.63,29.97,12.67,11.76,38.78,23.94,51.81,7.33,9.83-12.42,7.55-31.87,4.3-46.66h0Z"/>
  </g>
</svg>