<?xml version="1.0" encoding="UTF-8"?>
<svg id="Layer_2" data-name="Layer 2" xmlns="http://www.w3.org/2000/svg" viewBox="0 0 654.5 545.05">
  <defs>
    <style>
      .cls-1 {
        fill:#808080
      }
    </style>
  </defs>
  <g id="Layer_1-2" data-name="Layer 1">
    <path class="cls-1" d="m654.5,80.48v10.46c-.84,3.27-2.79,5.94-4.81,8.53-3.46,4.48-4.63,9.47-3.43,15.02.35,1.6.59,3.23.91,4.84.89,4.43-.24,8.33-3.03,11.83-1.67,2.09-3.63,3.89-5.8,5.42-3.75,2.62-5.84,6.23-6.75,10.61-.49,2.33-1,4.65-1.45,6.98-1.49,7.64-6.07,12.54-13.37,14.95-2,.67-4.05,1.17-6.06,1.8-3.19,1.01-5.06,3.15-5.54,6.49-.26,1.81-.38,3.62-.25,5.47.19,2.73.32,5.49.22,8.22-.24,5.8-2.78,8.86-8.38,10.43-.43.11-.88.24-1.31.37-3.11.9-5.23,2.92-6.49,5.87-.84,1.96-1.26,4-1.39,6.13-.26,4.48-.02,8.97.01,13.46.01,2.02-.12,4.03-.58,6-.56,2.55-2.03,4.24-4.65,4.84-2.4.58-4.8,1.19-7.19,1.83-2.21.58-4.44,1.15-6.48,2.2-2.84,1.45-3.74,3.57-2.84,6.62.37,1.25,1,2.36,1.71,3.43,1.32,2,2.75,3.91,4.39,5.64,3.47,3.7,5.67,8.05,6.97,12.91,1.13,4.27,1.86,8.59,2.64,12.92,2.1,11.69,7.48,21.53,16.54,29.28.55.48,1.08.99,1.6,1.51,5.88,6.09,6.41,11.41,1.8,18.51-1.85,2.85-4.07,5.42-6.17,8.08-1.65,2.1-3.23,4.23-4.34,6.67-2.08,4.58-1.93,9.07.88,13.33.95,1.44,2.09,2.78,3.14,4.17,3.76,4.93,4.51,10.28,2.24,16.06-1.43,3.59-3.49,6.84-5.79,9.94-2.3,3.09-4.65,6.13-6.92,9.22-1.67,2.31-3.26,4.68-4.12,7.43-1.23,3.88-.71,7.42,2.3,10.37.78.77,1.6,1.51,2.38,2.28,2.55,2.57,4.52,5.5,5.47,9.06,1.08,4.04.8,7.98-.84,11.83-1.42,3.32-3.91,5.25-7.3,6.54-4.99,1.92-9.46,10.23-6.48,15.97,1.2,2.3,1.02,4.8.35,7.24-2.09,7.7-9.58,13.76-17.61,14.45-3.22.29-6.41-.11-9.6-.16-3.81-.06-5.79,1.33-6.96,4.92-.31.96-.47,1.96-.66,2.95-.49,2.52-.49,5.1-.63,7.66-.18,3.28-.32,6.59-1.45,9.74-1.3,3.61-3.45,5.07-7.24,5.13-1.67.04-3.27-.24-4.89-.63-5.02-1.2-7.97,0-10.6,4.47-1.15,1.97-2.09,4.07-3.14,6.11-3.8,7.42-7.8,8.99-15.72,6.19-1.8-.65-3.59-1.39-5.43-1.94-4.69-1.41-10.52-.86-14.33,4.66-1.36,1.95-2.84,3.83-4.42,5.61-2.81,3.18-6.41,4.74-10.71,4.64-2.51-.05-4.92-.54-7.28-1.26-10.42-3.13-20.17-7.63-29.18-13.79-14.53-9.9-29.16-19.65-43.75-29.47-.69-.46-1.38-.9-2.07-1.36-.99-.65-1.71-.37-2.25.61-1.31,2.39-3.05,4.58-3.64,7.34-2.04,9.57-11.65,13-18.64,12.27-3.27-.34-6.51-1-9.75-1.63-6.02-1.18-10.96-4.48-15.59-8.29-6.33-5.22-11.73-11.32-16.66-17.84-17.24-22.76-30.67-47.69-41.86-73.91-.26-.6-.32-1.35-1.06-1.9-.35,3.16.34,6.06.5,8.97.32,5.48.81,10.95,1.25,16.42.66,8.03,1.38,16.06,2,24.09.23,3.11.65,6.17,1.67,9.15,2.3,6.66,4.46,13.37,6.72,20.05.59,1.76.95,3.53.81,5.38-.05.54-.02,1.13-.72,1.37-.87-.36-.96-1.25-1.26-2-3.74-9.45-7.48-18.89-11.2-28.34-.41-1.03-.71-2.08-.82-3.18-.38-4.28-.82-8.57-1.21-12.84-.67-7.12-1.32-14.22-1.98-21.33-.68-7.37-1.38-14.75-2.12-22.12-.2-2.18-.28-2.12-2.55-1.97-2.18.14-4.42.5-6.49-.5-2.12-1.06-4.33-2-6.05-3.73-.95-.95-2.15-1.31-3.49-1.43-2.84-.25-5.6-.88-8.25-1.97-6.15-2.52-8.94-6.79-8.87-13.43.02-2.52-.04-2.42-2.42-3.59-5.73-2.86-11.93-4.03-18.14-5.19-3.05-.58-6.12-1.17-9.16-1.76-1.29-.26-1.94.19-1.94,1.53.01.54-.01,1.09-.02,1.65-.24,11.81-.46,23.62-.72,35.43-.02,1.45-.17,2.92-.32,4.38-.05.43.17,1.12-.77,1.25-.87-7.87-1.21-15.72-1.8-23.57-.54-7.2-1.09-14.41-1.56-21.62-.11-1.65-.89-2.45-2.4-2.87-2.02-.56-4.01-1.25-6.02-1.89-11.47-3.58-22.26-8.41-31.27-16.63-1.26-1.15-1.71-1.07-2.44.47-1.68,3.51-2.5,7.25-2.68,11.13-.36,7.69,1.23,15.12,3,22.51,1.95,8.1,4.35,16.09,5.52,24.35.35,2.51.85,5.01-.06,7.6-2.57,7.26-4.52,14.7-5.73,22.32-1.69,10.56-3.29,21.15-4.92,31.72-.16.97-.23,1.96-.95,2.88-.44-.53-.48-.99-.46-1.42.17-2.48.34-4.94.51-7.4.44-6.2.66-12.44,1.38-18.62.88-7.54,2.12-15.05,3.33-22.54.94-5.71,1.59-11.37.68-17.18-1.98-12.74-3.83-25.5-5.62-38.29-1.03-7.34-1.54-14.75-.8-22.18.32-3.28.95-6.51,2.25-9.58.66-1.55,1.17-1.62,2.45-.61.42.34.8.75,1.21,1.12,3.97,3.68,8.2,7.03,12.75,9.96,8.28,5.35,17.24,9.28,26.48,12.62,3.41,1.23,3.4,1.26,4.38-2.1.13-.43.24-.94.73-1.08.5-.14.84.23,1.12.6.96,1.24,1.72,2.6,2.39,4.01.41.83.83,1.65,1.75,2.02,2.02.79,4.07,1.48,6.2,1.88.08-.28.16-.38.12-.42-.26-.38-.5-.77-.82-1.08-5.79-5.73-10.28-12.38-14.1-19.53-6.98-13.1-11.56-27.08-15.07-41.44-.2-.87-.32-1.74-.78-2.52-.72.28-.87.85-1.14,1.3-1.31,2.1-2.6,4.23-4.39,5.96-3.5,3.4-6.81,3.2-9.78-.63-1.31-1.67-2.32-3.53-3.08-5.5-1.92-5.05-4.41-9.86-6.85-14.66-2.08-4.12-3.22-8.57-4.46-12.96-1.25-4.43.59-7.69,4.86-9.47,2.03-.85,4.16-1.33,6.35-1.63,2.51-.37,2.68-.82,1.21-2.87-.11-.14-.22-.29-.32-.44-7.52-9.98-16.01-19.07-25.26-27.45-15.58-14.1-32.82-25.76-51.54-35.26-9.56-4.87-18.79-10.31-27.74-16.21-17.21-11.35-33.47-24.01-50.17-36.09-.74-.53-1.38-1.2-2.07-1.79v-1.65c2.1-1.67,3.95-1.09,5.93.43,7.63,5.85,15.32,11.62,22.99,17.4,13.61,10.26,27.32,20.37,41.91,29.2,6.12,3.7,12.57,6.78,18.74,10.38,23.89,13.97,45.08,31.31,64.18,51.29.66.7,1.35,1.38,2.04,2.09-1.41-3.05-3.38-5.64-5.38-8.21-10.78-13.81-22.8-26.51-35.11-38.95-16.67-16.87-33.99-33.08-51.55-49.03-1.15-1.05-2.39-2.01-3.28-3.33-1.01-1.5-1.2-2.91-.51-3.52.75-.64,1.9-.3,3.32,1.11,2.66,2.64,5.29,5.34,7.94,7.97,14.74,14.68,30.02,28.76,44.92,43.27,17.6,17.15,34.65,34.78,49.09,54.76.94,1.27,2.05,2,3.67,2.01,3.05.04,5.17,1.6,6.57,4.22.31.56.59,1.14.89,1.71.91,1.62,1,1.63,2.81.96.87-.32,1.71-.65,2.57-.95,1.92-.7,3.87-.63,5.55.5,1.56,1.07,2.82.76,4.28-.12,1.74-1.07,3.61-1.82,5.72-1,.85.34,1.35-.04,1.62-.91,1.5-4.92,4.55-8.95,7.64-12.93,7.16-9.3,15.28-17.78,23.44-26.19,21.5-22.18,45.07-42.14,67.58-63.22,4.62-4.3,9.47-8.35,14.03-12.72,8.49-8.1,17.56-15.52,26.63-22.92,18.15-14.83,37.25-28.41,56.67-41.56,2.5-1.68,5.11-3.21,7.56-4.96,16.06-11.41,32.28-22.57,48.88-33.15,20.41-12.99,41.3-25.1,63.28-35.3,19.76-9.17,40.28-14.28,62.15-13.59,6.21.2,12.43.48,18.62,1.07,8.7.82,17.18,2.63,25.31,5.88,5.83,2.33,11.24,5.43,15.46,10.2,7.28,8.25,9.48,17.58,5.37,28.02-1.18,2.98-1.26,5.83-.23,8.81.85,2.44,2.02,4.71,3.32,6.92,1.8,3.09,3.68,6.13,5.47,9.22,1.9,3.25,3.55,6.61,4.4,10.3h0Z"/>
  </g>
</svg>