<?xml version="1.0" encoding="UTF-8"?>
<svg id="Layer_2" data-name="Layer 2" xmlns="http://www.w3.org/2000/svg" viewBox="0 0 654.5 568.05">
  <defs>
    <style>
      .cls-1 {
        fill:#808080
      }
    </style>
  </defs>
  <g id="Layer_1-2" data-name="Layer 1">
    <path class="cls-1" d="m654.46,4.43c-23.42,17.55-47.03,34.83-69.01,54.22-8.58,7.57-12.88,16.79-15.05,27.7-10.47,52.76-25.31,104.47-38.11,156.68-.71,2.92-1.42,6.2-3.23,8.43-12.12,15.03-13.31,33.55-16.91,51.32-1.61,7.92.66,10.28,7.92,8.14,11.66-3.42,20.97.08,27.38,10.75,13.72,22.88,20.5,48.18,24.56,74.22,6.93,44.48,4.5,89.18,2.15,133.85-.1,1.66-.29,3.41-.91,4.93-1.07,2.63-1.46,6.66-5.59,5.74-3.37-.75-2.72-4.33-2.63-6.85.63-19.48.8-39,2.27-58.42,2.19-29.14-3.17-57.56-7.13-86.09-2.56-18.34-7.55-36.13-16.61-52.61-8.11-14.73-9.63-15.7-25.4-10.18-4.22,1.48-8.71,1.24-11.56-1.26-7.49-6.57-11-2.06-15.18,5.25,4.99.22,9.43.37,13.85.62,5.82.32,7.49,5.18,9.38,9.3,1.17,2.53-1.07,4.63-3.39,5.29-4.43,1.27-8.84,1.43-11.07-3.86-1.07-2.57-3-3.62-5.58-3.35-7.14.77-13.84-1.69-20.98-3.24-.17,4.29,6.49,5.33,3.98,9.58-2.83,4.79-6.61.26-9.94.5-4.07.29-9.11-1.21-10.08,5.2-1.05,7.08-5.56,14.5,1,20.94,3.24,3.17,6.39.23,8.68-2.13,1.8-1.88,2.75-4.58,4.27-6.76,3.03-4.31,6.97-6.91,11.9-3.32,5.13,3.72,3.5,8.08-.06,12.08-3.19,3.56-6.95,6.34-11.25,8.39-17.24,8.23-27.05,2.87-28.92-15.78-1.08-10.73,2.25-20.55,6-30.33.77-2.02,2.83-4.47.09-6.26-2-1.31-3.76.75-5.37,1.81-6.4,4.23-14.22,5.51-20.29,10.82-5.59,4.88-13.69,4.85-21.93,7.44,16.27,16.8,31.76,32.99,46,50.29,5.78,7.04,11.58,13.96,20.09,17.98,1.87.89,3.48,2.6,2.54,4.84-.86,2.04-2.75.88-4.35.66-2.85-.38-6.03-5.94-8.26-.87-1.7,3.84-3.22,9.2,1.96,12.81,1.28.9,2.21,2.31,3.41,3.62-3.41,4.12-10.16-3-11.92,4.2-1.09,4.51,1.28,8.53,1.72,12.71.65,6.49-3.72,10.23-11.24,11.41,4.48,3.24,6.34,7.27,8.3,11.8,3.98,9.16,13.65,12.26,22.51,15.66,5.2,1.99,12.09,3.29,9.66,11.31-1.84,6.05-9.73,6.91-17.27,2.49-11.42-6.71-20.82-15.94-30.41-24.84-6.63-6.17-7.37-25.83-3-33.84,3.85-7.05,6.67-14.69,9.67-22.18,2.23-5.6-.85-9.47-4.69-13.24-11.06-10.83-22.02-21.73-32.77-32.86-4.88-5.07-9.48-10.5-13.65-16.18-8.29-11.33-8.13-11.45-21.12-1.78,18.76,8.61,26.87,28.55,47.97,37.7q-14.14,1.01-7.9,15.44c-4.73,2.49-9.31-7.09-14.18-.07-3.62,5.21-1.62,10.24-.71,15.52q-11.73-1.91-10.79,17.72c-7.59-10.9-11.72-4.37-16.21,1.7-5.81,7.84-11.35,15.96-18.79,22.38-6.28,5.43-7.79,12.18-6.87,19.95,2.13,18.36,10.29,34.04,22.19,47.74,5.55,6.39,9.13,13.05,9.41,21.6.09,2.75,1.12,5.56-2.25,6.77-3.36,1.21-6.77-.2-7.47-3.28-2.37-10.62-8.42-17.92-18-22.73-.93-.47-1.64-2.26-1.71-3.47-.73-15.17-7.26-30.3-18.13-42.26-3.86-4.25-3.77-7.92-1.97-14.36,3.51-12.5,10.59-21.03,19.84-28.79,5.68-4.75,3.91-12.96,8.89-18.29,7-7.51,16.59-11.44,23.81-18.82,9.26-9.46,10.03-10.08-2.28-15.06-15.04-6.09-26.02-17.91-39.4-26.3-3.13-1.96-5.06-5.22-5.73-9.15-1.89-10.87-8.01-13.96-18.17-9.07-3.86,1.85-7.43,4.28-12.14,7.06,4.97,3.02,9.09,5.13,12.79,7.84,10.81,7.94,12.17,19.3,3.12,28.89-3.43,3.63-3.04,8.82-7.08,13.15-2.84-9.54-8.71-7.91-15.16-4.76-10.53,5.14-24.21,5.01-29.91,18.2-.6,1.39-2.08,2.89-3.74.56-5.94-8.32-8.79-3.2-11.73,2.59-1.48,2.88-1.72,6.58-5.96,8.96.35-11.95-5.85-8.66-12.09-5.76-7.76,3.59-17.13,5.18-18.38,16.25-.22,1.95-1.97,2.12-3.88,1.11-10.21-5.41-24.8-.66-30.13,9.69-.74,1.45-1.58,2.86-2.5,4.51-4.99-9.68-14.44-9.81-21.24-.97-2.17,2.82-2.66,11.08-9.57,4.18-.27-.28-3.21,1.95-4.81,3.15-21.78,16.33-37.52,38.41-55.57,58.3-3.48,3.83-1.51,6.32,1.12,9.44,3.65,4.32,9.38,7.97,7.07,15.25-3.65-.2-4.63-3.16-6.52-4.9-6.46-5.94-12.45-8.66-19.29-.01-2.95,3.74-8.49,8.61-12.8,4.2-5.07-5.19.35-10.67,4.15-14.68,15.06-15.81,32.87-28.96,46.06-46.49,4.15-5.52,15.2-8.65,8.92-19.47-.9-1.54,2.07-2.26,3.65-2.18,7.47.37,10.71-5.79,17.16-9.68-2.79-.94-3.98-1.28-5.14-1.73-3.34-1.32-9.26-1.52-8.99-5.04.4-5.06,6.32-3.34,9.97-3.57,4.76-.3,7.13-1.49,4.88-6.68-.9-2.1-2.04-4.31-.83-6.88,2.03-1.85,3.88-.29,5.22.92,7.57,6.85,14.99,4.64,21.9-.66,3.98-3.05,7.38-5.21,12.68-3.26,3.12,1.15,8.41.83,9.28-1.93,2.91-9.24,7.56-6.31,14.31-4.82,5.31,1.17,12.57-2.57,15.27-7.97,2.53-5.11,3.83-5.97,9.32-4.1,7.32,2.49,13.99-1.8,19.06-6.56,3.32-3.11,6.31-3.87,10.45-4.45,13.19-1.87,26.61-3.29,38.76-10.9-11.88-1.85-20.3-11.15-32.25-12.16-2.03-.18-4.38-7.94-4.88-12.39-.62-5.64-3.29-6.42-7.97-6.14-14.77.91-29.61.92-44.29,2.51-23.87,2.58-47.73,1.34-71.6,1.68-7.98.12-15.28.12-23.05,4.66-10.5,6.15-24.06,10.32-34.89,10.75-10.04.4-21.54-2.1-32.67-2.29-3.86-.06-8.38-6.22-11.17-10.52-2.73-4.23-1.74-9.38,4.81-8.51,5.64.76,9.06-.88,9.3-6.04.25-5.27-4.52-7.24-8.89-7.85-6.97-.98-14.12-.08-21.07-1.9-4-1.06-8.25-1.99-9.29-6.57-1.08-4.68,2.52-7.56,5.77-9.82,4.68-3.24,9.6-6.27,14.77-8.63,5.67-2.6,10.03-6.57,14.51-10.68,4.53-4.16,4.95-7.86,1.67-13.12-6.93-11.11-14.33-22.18-13.42-36.25.15-2.35.15-4.71.39-7.04.19-1.67.58-3.54,2.64-3.79,2.36-.29,2.32,1.9,2.88,3.36,5.1,12.99,13.84,23.78,21.32,35.33,2.4,3.7,4.72,5.15,8.94,2.15,41.09-29.32,88.99-42.16,136.34-56.43,3.73-1.13,11.68,1.72,10.58-7.93-.24-2.11,5.97-1.05,9.21-.94,5.28.19,10.63,2.27,10.95-6.95.23-6.75,8.1,1.44,10.88-4.29-1.44-3.72-7.9-2.59-8.98-7.26.29-.46.75-1.47.95-1.42,16.84,4.06,23.05-9.92,32.23-18.89,9.75-9.5,20.76-6.42,24.17,6.8.83,3.22,1.66,6.74,1.23,9.94-1.42,10.69,3.11,12.44,13.08,12,30.26-1.35,60.57-1.41,90.12,7.08,1.88.54,4.27.97,5.96.29,19.27-7.76,36.32.29,53.26,7.64,11.08,4.82,21.79,10.64,30.52,19.34,1.95,1.94,4.14,4.31,6.92,3.36,7.47-2.55,13.47-1.34,19.3,4.29,3.26,3.17,5.26-.97,6.84-3.31,4.6-6.8,6.68-14.68,9-22.38,14.93-49.57,28.47-99.53,40.54-149.85,3.72-15.47,10.62-27.63,24.08-36.81,20.28-13.83,39.73-28.87,59.53-43.4,2.53,1.67,8.72-3.97,8.09,4.03h0Z"/>
  </g>
</svg>