<?xml version="1.0" encoding="UTF-8"?>
<svg id="Layer_2" data-name="Layer 2" xmlns="http://www.w3.org/2000/svg" viewBox="0 0 654.5 352.73">
  <defs>
    <style>
      .cls-1 {
        fill:#808080
      }
    </style>
  </defs>
  <g id="Layer_1-2" data-name="Layer 1">
    <path class="cls-1" d="m652.07,101.66c-7.63-11.78-22.12-17.7-34.06-23.77-18.95-9.67-40.21-12.29-61.19-13.62-11.33-.75-22.76-1-34.07.21-21.35,2.19-42.68,4.55-63.94,7.76-20.01,3.07-38.95,9.51-58.33,15.44-12.57,3.81-24.22,9.84-35.93,15.73-5.64,2.85-10.58,7.33-17.28,6.95-3.7-.22-6.92-2.18-8.56-5.62-1.84-3.94,1.73-8.39.63-12.49-.41-1.43-5.64-5.95-5.64-6.16,1.71-8.78,6.49-15.48,11.42-22.75,11.1-16.27,20.7-33.85,34.72-47.76,1.58-1.6,14.32-13.5,10.86-15.42-2.14-1.08-6.96,3.59-8.18,4.74-2.85,2.58-4.39,5.66-6.71,8.65-7.61,10.05-14.36,20.83-21.37,31.34-4.28,6.53-8.93,12.89-13.02,19.53-2.55,4.15-5.11,8.31-7.16,12.74-1.04,2.21-2.47,6.53-5.67,5.36-2.01-.63-4.09.86-5.75-.77-2.08-2.12-3.03-5.44-4.41-7.99-1.71-3.15-3.5-6.26-5.41-9.34-4.13-6.64-8.74-13-13.04-19.53-6.99-10.51-13.73-21.29-21.37-31.34-2.27-2.99-3.85-6.06-6.64-8.65-1.26-1.15-6.08-5.82-8.24-4.74-3.37,1.92,9.39,13.82,10.92,15.42,13.95,13.91,23.6,31.49,34.69,47.76,4.87,7.26,9.71,13.97,11.42,22.75,0,.21-5.3,4.73-5.64,6.16-1.12,4.1,2.53,8.55.63,12.49-1.62,3.44-4.85,5.39-8.61,5.62-6.6.37-11.57-4.11-17.26-6.95-11.72-5.89-23.38-11.91-35.95-15.73-19.32-5.92-38.24-12.37-58.32-15.44-21.28-3.21-42.56-5.56-63.83-7.76-11.38-1.22-22.82-.97-34.11-.21-21.07,1.33-42.27,3.95-61.17,13.62-11.9,6.07-26.45,11.99-34.02,23.77-7.77,11.97,4.37,26.32,12.87,34.25,6.9,6.53,14.79,11.27,22.6,16.49,8.72,5.95,16.78,12.91,24.42,20.2,5.58,5.35,10.82,11.07,16.7,16.13,5.3,4.58,11.11,8.54,16.81,12.55,6.23,4.46,12.87,8.59,20.12,11.47,9.89,3.95,20.76,1.62,30.82,4.4,2.4.67,4.95.96,7.42,1.21-2.21-.21-2.17,6.65-2.21,7.95-.2,4.97.99,9.73,3.03,14.24,3.81,8.08,11.31,13.22,17.82,18.83,4.54,3.74,8.15,8.39,12.52,12.2,4.41,3.89,10.12,6.5,13.33,11.59,3.91,6.19,2.08,14.69,7.48,20.11,2.83,2.9,6.77,3.98,10.32,5.73,6.1,2.99,10.15,8.77,13.74,14.36,2.68,4.17,4.85,10.28,9.54,12.6,4.24,2.05,9.54,0,13.99,1.02,4.95,1.14,9.26,4.17,13.08,7.4,3.68,3.19,8.02,6.78,12.83,8.06,5.02,1.3,9.23-2.05,13.24-4.52,3.4-2.06,7.62-3.8,11.66-2.97,3.65.77,6.29,5.45,10.15,4.69,8.39-1.69,16.54-1.72,24.85,0,3.94.76,6.56-3.92,10.19-4.69,4.05-.84,8.28.9,11.64,2.97,4.13,2.46,8.28,5.82,13.36,4.52,4.76-1.28,9.09-4.87,12.81-8.06,3.78-3.24,8.13-6.27,13.02-7.4,4.48-1.02,9.8,1.03,13.95-1.02,4.8-2.32,6.9-8.43,9.62-12.6,3.61-5.59,7.64-11.36,13.78-14.36,3.55-1.75,7.38-2.83,10.29-5.73,5.38-5.41,3.55-13.91,7.42-20.11,3.24-5.09,8.97-7.69,13.43-11.59,4.33-3.81,7.92-8.46,12.41-12.2,6.57-5.61,14.12-10.75,17.85-18.83,2.06-4.51,3.26-9.27,2.99-14.24-.04-1.3.09-8.16-2.27-7.95,2.57-.25,5.08-.54,7.57-1.21,10.03-2.78,20.89-.45,30.82-4.4,7.16-2.87,13.78-7,20.07-11.47,5.64-4.02,11.51-7.97,16.78-12.55,5.91-5.06,11.2-10.78,16.83-16.13,7.59-7.29,15.61-14.25,24.31-20.2,7.79-5.22,15.72-9.96,22.71-16.49,8.35-7.93,20.55-22.28,12.87-34.25h0Z"/>
  </g>
</svg>