<?xml version="1.0" encoding="UTF-8"?>
<svg id="Layer_2" data-name="Layer 2" xmlns="http://www.w3.org/2000/svg" viewBox="0 0 654.5 632.3">
  <defs>
    <style>
      .cls-1 {
        fill:#808080
      }
    </style>
  </defs>
  <g id="Layer_1-2" data-name="Layer 1">
    <path class="cls-1" d="m.2,276.34c1.11-5,3.81-11.32,8.03-14.55,7.69-5.96,17.62-3.57,26.73-3.41,12.05.31,24.7,2.76,36.57-.52,9.67-2.68,17.78-9.08,24.52-16.42,16.86-18.56,33.39-42.06,60.65-24.88,1.7,1.15,4.59,2.16,7.57,3.28,1.91.73,3.83,1.69,5.52,2.63,2.36-1.95,4.54-4.17,6.44-6.84,6.41-9.74,4.4-20.48,3.89-31.29-1.62-1.17-3.11-2.37-4.63-3.46-11.98-8.41-15.28-21.89-20.16-34.9-4.01-11.04-10.08-19.26-11.26-31.31-.95-10.57-.42-22.07-7.07-30.92-7.46-10.13-21.35-23.55-33.65-27.25-6.14-1.93-24.22,2.03-24.19-8.18.21-13.14,17.51-9.97,24.31-5.85,6.21,3.82,12,8.41,17.87,12.65,11.61,8.12,24.02,14.5,32.28,26.49,7.66,11.03,8.75,24.83,11.82,37.58,1.69,7.16,3.6,14.39,4.41,21.65,1.07,8.49,3.19,16.66,10.27,22.25.62.55,1.34.83,2.08,1.2,4.2-19.99,14.11-41.33,31.18-51.48,8.5-4.94,14.67-3.69,17.83-14.21,2.51-8.04,1.65-15.33,8.35-21.7,8.42-8.07,46-8.3,39.86-24.78-1.96-5.78-28.39-46.82-10.29-51.9,8.93-2.44,10.15,15.22,11.24,20.59,2.86,12.75,11.52,18.79,24.76,18.79h44.24c13.25,0,21.98-6.04,24.75-18.79,1.2-5.36,2.28-23.03,11.25-20.59,18.01,5.08-8.24,46.12-10.38,51.9-5.91,16.48,31.59,16.71,39.95,24.78,6.59,6.37,5.9,13.66,8.34,21.7,3.29,10.52,9.41,9.27,17.72,14.21,17.19,10.15,27.03,31.49,31.32,51.48.72-.36,1.5-.65,2.1-1.2,7.09-5.6,9.19-13.77,10.25-22.25.87-7.26,2.63-14.49,4.29-21.65,3.2-12.75,4.18-26.55,11.93-37.58,8.21-12,20.74-18.37,32.17-26.49,6.05-4.24,11.84-8.82,17.96-12.65,7.04-4.11,24.17-7.28,24.22,5.85.09,10.2-17.89,6.25-24.1,8.18-12.23,3.69-26.1,17.12-33.65,27.25-6.65,8.85-6.21,20.35-7.06,30.92-1.08,12.05-7.08,20.27-11.31,31.31-4.8,13.01-8.12,26.49-20.08,34.9-1.55,1.09-3.1,2.29-4.69,3.46-.44,10.8-2.56,21.55,4.03,31.29,1.69,2.68,3.96,4.89,6.37,6.84,1.73-.94,3.55-1.9,5.49-2.63,2.89-1.12,5.75-2.14,7.64-3.28,27.26-17.18,43.74,6.32,60.59,24.88,6.65,7.34,14.8,13.74,24.54,16.42,11.97,3.28,24.35.83,36.51.52,9.14-.16,18.92-2.55,26.77,3.41,4.26,3.23,6.98,9.55,7.99,14.55.87,4.14-1.01,12.65-6.09,12.96-10.16.52-1.64-11.63-3.6-15.64-5.38-10.67-20.34-1.85-28.19,0-11.91,2.94-24.05,1.2-35.68-1.85-9.42-2.44-17.61-6.74-25.78-12.1-5.45-3.7-9.51-8.82-12.91-14.57-2.69-4.63-3.76-10.96-8-14.55-4.83-4.06-14.76-7.21-20.61-4.84-4.62,1.93-7.81,5.21-11.48,7.52,2.02,1.25,4.2,2.45,6.08,4.01,14.77,11.22,17.45,31.07,20.35,48.51,5.04,30.89,5.34,62.1,4.39,93.3.09,2.08.09,4.24.09,6.32,6.88,3.7,12.49,10.75,15.38,16.94,6.72,14.49,6,35.08,6.39,50.88.14,13.14.14,26.02,3.23,38.86,2.47,10.67,12.08,17.77,20.2,24.1,7.66,5.73,15.47,10.98,23.36,16.24,6.23,4.22,13.87,8.33,17.83,14.97,4.51,7.44-.26,18.14-9.99,17.78-1.3-.06-5.54-.89-6.08-2.45-.81-2.63,1.96-2.31,3.67-3.33,4.69-2.94,7.6-8.07,3.67-13.19-3.2-4.01-10.18-4.35-14.84-5.31-11.45-2.39-18.07-9.13-27.44-15.33-2.91-1.98-4.83-5.96-7.48-8.41-6.77-6.27-15.3-9.79-19.87-18.09-5.15-9.47-3.67-21.18-3.63-31.57.21-11.92-.16-23.92-.57-35.84-.18-4.14,2.29-8.49.8-12.54-1.08-3.15-3.37-5.18-6.14-6.92,0,9.37.21,19.05-3.16,27.75-7.46,54.36-25.84,107.51-64.32,147.07-25.99,26.73-68.46,59.91-106.52,38.36-10.53-5.91-19.18-10.26-30.07-11.64-10.92,1.38-19.57,5.73-30.1,11.64-38.09,21.55-80.58-11.64-106.61-38.36-38.4-39.56-56.71-92.7-64.32-147.07-3.28-8.77-3.01-18.48-3.01-27.75-2.72,1.75-5.13,3.77-6.23,6.92-1.47,4.06,1.11,8.41.92,12.54-.53,11.92-.78,23.92-.78,35.84.16,10.39,1.82,22.1-3.49,31.57-4.47,8.3-13.24,11.82-19.87,18.09-2.59,2.45-4.5,6.43-7.57,8.41-9.25,6.2-15.93,12.93-27.44,15.33-4.5.96-11.66,1.3-14.65,5.31-4.09,5.13-1.07,10.25,3.67,13.19,1.68,1.01,4.36.7,3.5,3.33-.43,1.56-4.69,2.39-6.04,2.45-9.77.36-14.59-10.33-9.99-17.78,4.15-6.64,11.58-10.75,17.93-14.97,7.82-5.26,15.69-10.51,23.21-16.24,8.2-6.32,17.78-13.43,20.29-24.1,3.01-12.83,3.01-25.71,3.19-38.86.33-15.8-.42-36.39,6.42-50.88,2.86-6.19,8.56-13.19,15.45-16.81-.09-2.21-.09-4.32.04-6.4-.99-31.25-.71-62.41,4.39-93.35,2.86-17.44,5.54-37.29,20.31-48.51,1.9-1.56,4.04-2.76,6.17-4.01-3.76-2.32-6.95-5.6-11.45-7.52-5.97-2.37-15.9.78-20.58,4.84-4.39,3.59-5.45,9.92-8.11,14.55-3.34,5.75-7.5,10.88-13.04,14.57-8,5.36-16.34,9.66-25.66,12.1-11.63,3.04-23.71,4.79-35.73,1.85-7.85-1.85-22.67-10.67-28.14,0-2.12,4.01,6.63,16.16-3.55,15.64-5.06-.31-7.04-8.82-6.17-12.96H.2Z"/>
  </g>
</svg>