<?xml version="1.0" encoding="UTF-8"?>
<svg id="Layer_2" data-name="Layer 2" xmlns="http://www.w3.org/2000/svg" viewBox="0 0 654.5 493.8">
  <defs>
    <style>
      .cls-1 {
        fill:#808080
      }
    </style>
  </defs>
  <g id="Layer_1-2" data-name="Layer 1">
    <path class="cls-1" d="m654.05,35.01c-14.98-20.72-38.56-11.55-42.82-10.75-1.56-.39-3.14-.76-5.14-1.31-17.36,1.52-27.08,7.79-32.36,10.34-1.14-.29-3.7-.75-6.46-.82-2.76-.05-24.07,9.08-29.64,12.53-2.01-.46-2.92.27-3.69.18-3.09,1.05-14.79,7.07-18.22,9.55-6.74,1.43-11.23,5.25-13.22,7.02-7.24.86-11.69,3.56-14.42,4.62-2.72,1.07-6.27,5.32-7.72,7.84-2.61.18-6.92,3.04-10.71,5.56-1.61.05-3.62.72-5.6,1.64-3.79,2.62-14.63,7.95-18.91,11.99-7.38,4.24-15.76,8.91-20.82,13.32-5.43,2.4-10.17,6.71-11.74,7.75-6.08,4.28-5.39,8.04-16.08,13.13l-12.66,9.83c-7.2,6.16-11.59,9.63-15.21,15.36l-12.36,11.51c-5.32,3.5-11.53,12.95-15.17,16.55l-3.4,5.35-2.53,3.3c-2.17,4.54-4.25,13.98-4.65,15.98-.16.73-.75,2.67-1.25,4.86-4.33,1.73-7.89,4.96-7.89,4.96,0,0-2.7-2.12-6.29-3.78-.87-1.7-2.02-3.55-2.88-4.82-.1-3.31-1.18-7.14-1.35-8.24-.32-2.01-1.95-11.56-3.88-16.17l-2.37-3.42-3.13-5.51c-3.44-3.76-7.46-13.99-12.36-18.03l-11.02-12.78c-3-6.11-6.93-9.77-13.78-16.28l-12.32-10.27c-10.67-5.14-8.21-8.78-13.87-13.58-1.5-1.17-5.59-6.13-10.72-9.19-4.47-4.96-12.75-9.45-20.23-13.52-4.35-3.94-14.46-11.28-18.07-14.11-1.95-1.02-3.9-1.81-5.52-1.97-3.63-2.72-7.79-5.83-10.39-6.15-1.29-2.6-5.23-5.37-7.78-6.86-2.52-1.48-6.47-4.85-13.46-6.87-1.7-2.07-7.16-5.72-13.89-7-3.5-2.4-14.55-9.47-17.56-10.73-.79.05-1.65-.74-3.69-.44-5.3-3.79-26.63-14.34-29.4-14.46-2.76-.12-5.36.19-6.5.4-5.13-2.87-15.22-8.93-32.6-10.3-1.99.56-3.56.95-5.14,1.34C38.91,1.81,15.26-7.17.43,13.66c-1.5,2.12,1.38,3.4,1.38,3.4.84-.35,2.28-.44,3.65-1.98,1.34-1.53,9.08-9.52,18.24-10.33,4.37-.4,15.73.79,17.77.98,2.05.15,16.1-.59,36.09,7.9,1.71,1.78,1.72,2.61,2.64,2.89,4.55,1.36,20.51,5.85,35.16,13.79.66.37-.36,1.56.29,1.93,11.9,6.4,15.62,7.91,22.43,10.23,4.03,1.34,9.69,3.56,11.43,5.48,3.43,3.75,18.11,11.03,22.45,13.88,4.34,2.84,9.98,8.28,13.43,9.64,2.92,1.17,18.6,13.04,18.6,13.04,1.45,1.89,1.53.97,4.92,4.01,2.43,2.18,12.68,9.77,14.6,11.04,2.76,1.78,5.27,5.15,7.18,6.9,1.91,1.76,9.47,8.09,9.47,8.09,1.56,1.13,5.34,4.97,7.68,6.8l13.65,12.46c2.95,3.43,5.8,7.31,8.03,9.45,3.17,3.01,3.69,5.12,6.82,9.14l8.47,11.13c2.22,2.51,4.46,4.98,4.99,6.43.9,2.45,2.28,5.1,4.34,7.91.41,1.8.36,4.12,1.08,5.05.71.92.98,2.72,2.63,3.98.6,2.25,4.5,16.14,4.26,17.45-.05.31-.18.71-.34,1.14,0,0,.24,2.45.7,5.59,0,0,0,0-.02,0-.57.44-.65,3.92-.83,4.21,0,0-2.45,2.41-2.6,3.76-1.37,10.85,1.68,14.88-.61,15.12-2.17.21-1.19,7.16-5.36,10.43,0,0,2.05,1.53,3.37,6.13.43,1.5.53,2.62.51,3.55-3.64-1.86-8.03-4.31-9.94-4.84-1.54-.45-5.09-1.69-8.07-2.33l-5.51-2.58c-1.68-.63-5.95-1.37-7.21-2.45-.37-2.01,1.34-11.24,2.3-14.34,3.3-10.42,6.19-17.49,6.19-17.49,2-6.07,3.3-11.94,3.15-13.82-.2-2.62-1.3-6.16-1.9-7.18.38-1.93-2.43-9.31-3.07-10.13-2.04.51-.2,2.08-.95,3.11.14-2.21-2.82-7.97-6.84-11.48-1.04,1.25,1.69,2.29.6,3.23,0-1.33-2.4-2.98-3.95-5.27-1.58-2.27-3.67-3.11-5.67-4.32-.51,1.28-.08,2.13-.11,3.98-1.93-1.03-5.03-2.77-5.47-3.83-.42-1.06-1.83-6.14.21-8-3.86.63-5.38,3.64-5.2,8.73.07,1.75,3.32,6.02,9.44,9.17-.43,1.63,0,0,7.04,5.45-.23,1.23-.89.57-.04,1.36.87.8,7.13,5.33,7.94,6.63.82,1.31.94,4.21-.27,14.18-.67,5.7-9.47,33.7-8.28,43.78.24,2.06-.63,2.85,1.22,5.81,1.16,1.84,3.36,3.83,6.41,5.5l7.79,3.08c6.84,2.13,17.49,5.08,18.18,5.56.18.12.44.24.68.36,0,1.98,0,3.72-.07,4.18-8.27,1.08-10.92,10.01-16.88,5.57,0,0-.45,4.17-.26,15.03-.5-.26-.99-.52-1.41-.76-.62-1.52-21.1-9.1-23.37-7.4-3.12,2.36-2.92,5.87-4.02,7.46-1.1,1.6-4.91,12.72-10.45,25.07-5.56,12.39-11.36,23.91-12.17,27.46.56.48,1.04.92,1.54,1.3-4.55,5.52-13.52,11.49-18.75,14.88-.87.02-1.78.08-2.74.21-4.78.56-9.33,1.83-11.33,2.43-1.98.6-4.02,1.55-5.31,1.44-1.45.96-3.41,2.96.76,8.02,1.4-.62,3.11-2.79,3.34-3.41.24-.62.53-2.01,1.07-2.8.56-.8,1.64-1.43,2.41-1.11.76.34-.69,2.86.2,3.87,0,0,9.5-3.78,14.1-2.93,2.61.48,19.5-17.96,19.5-17.96,0,0-.12,2.61,1.76-.14,1.89-2.74,11.88-25.29,15.29-37.12,3.4-11.82,5.2-15.22,6.67-17.41,1.02-.27,12.53,5.31,12.77,5.53,1.14,1.04,2.02,3.98,2.98,5.07,2.1,2.34,5.92,2.41,7.63,4.34l.03-.2.08,2.97c-.08,2.31.15,33.45.33,47.99-2.21,1.73-8.49,4.72-12.59,8.12-7.72,5.68-18.23,13.06-18.9,15.33-.66,2.26-4.85,12.23-2.67,15.75,1.49,3.03,4.84,9.42,7.07,14.33l3.66,17.73c.92,2.65,2.28,5.98,2.5,8.92.21,2.89,2.98,23.48,3.92,25.94,0,.68.97.79,1.49,1.29.55.48,1.24-1.34,2.39-1.84l-.31,1.82s-10.11,5.26-11.59,7.72c-1.49,2.46-.63,3.41-1.72,4.63-1.55,1.41-10.22,5.14-14.13,4.97-1.32-.98-5.17-2.08-6.9-1.8-1.73.25-7.41,5.28-8.43,6.37-1.9,1.96-1.9,3.7-.58,5.11,1.02,1.11,3.57,1.72,4.59,1.72-.37-1.4-.57-2.31-.82-3.83-.28-1.5,2.77-3.42,3.95-3.84.87.75,1.15,2.47,2.49,3.22,1.34.76,9.18,2.38,13.44-3.04.85,1.64.65,2.49.73,3.28,4.34-1.02,8.1-3.23,9.98-6.23.79-1.31-.78-3.47-1.08-4.07.47-.66,1.69-.53,2.63-.48.89.04,2.05,1.05,2.79,1.65.79.62,10.1-7.56,10.51-18.3,1.03-1.21,1.98-1.11,3.4-3.05-.09-.4-.94-4.62-2.58-9.3-3.09-9.03-8.44-23.4-13.51-36.09l-4.14-10.14c-.75-1.76-1.31-4.75-1.98-6.3.99-1.51,2.37-4.25,3.16-4.43.47-.09.96-.31,1.46-.56l6.83-5.55c.62-.13,1.36-.17,2.23-.3,1.46-.24,9.59-4.48,13.55-7.01.62,9.36,1.66,21.23,3.47,29.3,4.49,20.02,10.94,54.5,37.36,56.73h.76c26.46-2.23,32.89-36.7,37.37-56.73,1.82-8.07,2.88-19.88,3.47-29.22,3.79,2.62,11.33,6.97,12.77,7.24.9.16,1.63.21,2.24.34l6.68,5.73c.49.27.98.5,1.43.61.79.18,1.97,3.34,2.91,4.89-.7,1.53-1.63,3.6-2.4,5.35l-4.28,10.06c-5.27,12.65-10.81,26.94-14.05,35.91-1.68,4.67-2.6,8.88-2.71,9.26,1.37,1.97,2.36,1.87,3.38,3.11,1.05,8.4,10.29,16.01,11.04,15.36.73-.67,1.79-1.75,2.71-1.84.94-.1,2.14-.29,2.67.34-.3.59-1.72,2.86-.85,4.12,2.03,2.91,5.91,4.87,10.3,5.64.04-.81-.19-1.63.56-3.33,4.55,5.19,12.29,3.11,13.59,2.28,1.3-.83-.8-3.51.31-3.86.93.8,3.06,3.74,2.25,5.03-.83,1.28-1.34,2.08-2.22,3.23.97.4,3.56.78,4.91.14,1.77-.82,2.42-2.44,1.39-4.98-.56-1.39-4.21-8.22-5.95-8.4-1.76-.16-5.53,1.15-6.79,2.2-3.89.41-12.74-2.8-14.37-4.14-1.18-1.15-.34-2.14-1.98-4.52-1.15-1.68-6.72-4.29-9.85-5.66.75.26,1.4.39,1.66.16.56-.5-.5-1.31-.5-2,.99-2.45,4.05-23,4.29-25.89.25-2.92,1.66-6.24,2.65-8.88l4.4-15.69c2.34-4.88,6.01-10.91,7.55-13.93,1.87-3.68-1.43-13.22-2.05-15.49-.6-2.28-10.94-9.91-18.49-15.79-4.01-3.54-10.17-6.69-12.36-8.44.21-15.23.44-48.99.32-51.31v-.16c2.05-1.4,5.65-.95,8.03-2.82,1.13-.91,1.02-1.87,2.43-2.45.3-.1,13.15-1.5,13.99-.9.67,2.55,1.21,6.35.46,18.63-.72,12.29.98,36.87,1.85,40.09.85,3.22,1.63.71,1.63.71,0,0,9.7,23.05,12.31,23.46,4.63.75,12.32,7.47,12.32,7.47,1.16-.64.66-3.5,1.48-3.55.82-.06,1.63.9,1.9,1.84.25.94.05,2.33.08,3.01,0,.66.88,3.29,1.98,4.31,5.66-3.35,4.46-5.88,3.41-7.27-1.25-.34-2.88-1.92-4.52-3.17-1.66-1.21-5.53-3.95-9.85-6.08-.88-.42-1.72-.78-2.54-1.09-3.78-4.97-10.22-13.59-12.67-20.31.6-.19,1.21-.44,1.9-.71.44-3.6-1.17-16.43-2.23-29.94-1.1-13.52-.96-25.25-1.45-27.13-.5-1.89.86-5.11-1.31-8.38-1.56-2.36-23.38-2.08-24.45-.85-.9.14-2.56.44-4.18.76.22-11.6-1.73-16.53-1.73-16.53-5.95,5.01-7.11-3.92-15.38-5-.05-.4.02-1.8.11-3.49.64-.08,1.2-.21,1.57-.4.73-.37,11.71-1.73,18.78-2.84l8.18-1.88c3.24-1.21,5.72-2.87,7.11-4.52,2.29-2.66,3.01-5.3,3.03-7.33.22-10.17-11.22-37.18-12.46-42.8-2.15-9.82-2.33-12.7-1.63-14.07.69-1.38,6.46-6.5,7.27-7.37.79-.86.17-.14-.15-1.34,6.46-6.1,7.06-4.55,6.46-6.1,5.8-3.73,8.62-8.31,8.52-10.05-.28-5.1-2.12-7.93-6.01-8.18,2.23,1.64,1.31,6.83.98,7.93-.34,1.11-3.26,3.14-5.06,4.34-.23-1.84.12-2.71-.51-3.96-1.88,1.43-3.87,2.45-5.22,4.87-1.34,2.43-3.55,4.28-3.41,5.62-1.2-.85,1.4-2.12.26-3.27-3.66,3.88-6.04,9.91-5.71,12.09-.82-.95.85-2.69-1.22-2.99-.56.86-2.63,8.47-2.1,10.36-.49,1.07-1.93,3.07-1.89,5.7.05,1.89,1.9,7.59,4.48,13.44,0,0,3.56,6.76,7.81,16.81,1.28,2.98,4.34,12.12,3.71,14.06-1.4.88-5.08,3.25-6.82,3.64l-9.51,2.85c-3.05.18-6.57.26-8.17.46-2.34.3-5.32,1.73-9.66,2.64-.15-.98-.07-2.18.38-3.8,1.31-4.59,3.72-6.13,3.72-6.13-4.14-3.27-3.54-10.21-5.69-10.43-2.24-.24-.03-5.11-1.05-15.07-.11-1.21-1.97-2.45-2.18-3.8-.11-.57-.82-3.13-1.19-3.54-.31-.31-.6-.56-.9-.8.62-3.2,4.37-14.42,5.01-16.43,1.69-1.18,2.08-2.95,2.81-3.85.78-.89.83-3.22,1.33-4.98,2.21-2.71,4.43-4.69,5.76-6.93.82-1.34,3.2-3.59,5.69-5.86l9.62-10.13c3.53-3.65,5.45-5.5,8.46-8.67,2.13-2.23,5.4-5.75,8.5-9.01l14.36-12.14c2.4-1.82,7.2-5.59,8.85-6.59,0,0,8.1-5.63,10.14-7.22,2.07-1.56,4.92-4.26,7.87-5.72,2.05-.99,13.78-8.95,16.15-11.19,3.34-3.12,3.46-2.21,4.85-4.11,0,0,15.97-9.66,18.94-10.65,3.53-1.16,9.44-6.27,13.94-8.88,4.51-2.6,18.88-9.17,22.87-12.33,2.05-1.6,7.61-4.38,11.59-5.82,6.78-2.47,10.27-3.13,22.55-8.75.69-.32-.23-1.59.46-1.91,15.11-6.96,30.73-10.42,35.34-11.49.95-.21,1.01-1.05,2.82-2.72,20.49-7.21,33.99-8.01,36.03-8.19,2.04-.18,13.37-1.47,17.77-1.11,9.16.74,16.94,8.66,18.33,10.19,1.37,1.52,2.79,1.62,3.65,1.95,0,0,2.88-1.31,1.34-3.41"/>
  </g>
</svg>