<?xml version="1.0" encoding="UTF-8"?>
<svg id="Layer_2" data-name="Layer 2" xmlns="http://www.w3.org/2000/svg" viewBox="0 0 442.52 654.5">
  <defs>
    <style>
      .cls-1 {
        fill:#808080
      }
    </style>
  </defs>
  <g id="Layer_1-2" data-name="Layer 1">
    <path class="cls-1" d="m2.57,443.07c3-2.78,6.45-5.32,9.95-7.45,6.38-3.9,12.48-8,18.42-12.47,9.1-6.81,18.41-13.44,28.18-19.56,7.71-4.84,16.36-8.83,23.37-14.75,6.01-4.93,12.18-9.52,19.31-12.8,6.63-3.01,12.87-7.29,19.7-9.7,7.87-2.73,14.77-9.03,22.93-10.55,8.39-1.67,18.02,3.25,23.05,9.86,6.63,8.8,11.74,19.06,17.96,28.05.76,1.06,10.53-15.99,11.03-17.82,2.64-9.4-1.51-9.03-8.9-12.08-5.34-2.31-7.38-8.55-9.8-13.49-1.95-3.81-4.65-7.01-6.6-10.75-2.77-5.05-5.23-10.36-7.08-15.84-3.19-9.1-2.55-18.99-5.64-28.1-2.68-8.46-9.03-14.98-13.14-22.77-6.08-11.31-11.65-23.05-18.31-33.97l-11.72-19.29c-6.49-13.71-12.04-27.45-19.15-40.75-3.03-5.69-7.11-11.95-7.79-18.46-.5-6.14,2.64-7.73,7.15-3.05,12.87,13.12,15.04,36.1,21.67,52.57,4.86,12.23,12.32,22.22,20.66,32.43,5.98,7.06,13,13.26,17.25,21.58,4.89,9.77,4.73,22.39,12.82,30.32,13.17,12.93,10.82,35.21,18.71,51.01,1.05,2.09,2.38,4.04,4.26,5.66.41.32,4.56,2.89,4.36,1.65-2.02-13.28-10.04-24.95-12.41-38.28-2.36-12.77-2.18-25.96.81-38.6,2.29-9.56,12.16-15.34,13.6-24.96-.42,3-15.99,2.39-18.21,2.39-8.35.05-18.55-1.67-22.82-9.79-3.58-6.99-3.26-15.41-3.71-22.96-.55-8.48-.92-16.83-.82-25.34.27-17.71,2.48-35.6,8.05-52.59,1.06-3.02-29.51-3.3-32.02-3.21-9.63.19-20.36,3.3-29.84,1.83-1.26-.18-8.48-4.29-8.21-4.42.25-.01.32.23.59.13-3.3-9.49-1.21-16.44,2.78-25.18,4.13-8.92,7.73-18,10.9-27.24,8.17-23.08,15.51-44.91,16.54-69.63.19-2.71-1.31-15.48,3.55-14.68,6.93.99,6.21,18.71,5.94,22.73-1.52,17.04-8.71,33.46-14.84,49.22-3.3,8.71-6.6,17.36-9.52,26.1-2.89,8.62-15.55,29.44.32,31.83,7.61,1.1,15.28-.53,22.8-.32,10.12.18,19.91,2.43,29.91,2.39,6.03-.04,6.59-10.55,9.15-14.84,3.62-6.44,9.24-10.73,15.78-14.1,3-1.51,7.62-4.17,11.1-2.34,11.63,6.03-14.72,15.3-3.92,20.76,3.87,1.93,9.96-1.7,13.32-2.8,12.59-3.88,22.04-3.78,34.49,0,3.39,1.1,9.56,4.73,13.34,2.8,10.78-5.46-15.57-14.74-3.92-20.76,3.48-1.83,8.12.83,11.1,2.34,6.53,3.37,12.11,7.66,15.78,14.1,2.53,4.29,3.23,14.8,9.11,14.84,9.91.03,19.88-2.22,29.9-2.39,7.59-.21,15.18,1.42,22.87.32,15.85-2.39,3.19-23.21.34-31.83-2.96-8.74-6.22-17.39-9.54-26.1-6.17-15.76-13.28-32.18-14.75-49.22-.41-4.02-1.1-21.74,5.78-22.73,4.88-.8,3.4,11.97,3.6,14.68,1.03,24.72,8.3,46.54,16.47,69.63,3.21,9.24,6.79,18.32,10.91,27.24,4.06,8.74,6.26,15.69,2.8,25.18.25.11.44-.14.55-.13.3.13-7.06,4.24-8.12,4.42-9.45,1.47-20.16-1.63-29.81-1.83-2.59-.09-33.05.19-32.08,3.21,5.51,16.99,7.71,34.88,8.14,52.59.16,8.51-.48,16.86-.94,25.34-.34,7.55,0,15.97-3.63,22.96-4.29,8.12-14.52,9.84-22.89,9.79-2.22,0-17.68.6-18.12-2.39,1.22,9.63,11.3,15.41,13.6,24.96,2.89,12.64,3.05,25.84.83,38.6-2.48,13.33-10.41,25-12.45,38.28-.32,1.24,3.9-1.33,4.34-1.65,1.95-1.61,3.1-3.56,4.18-5.66,7.94-15.8,5.59-38.09,18.74-51.01,8.17-7.92,7.98-20.55,12.77-30.32,4.4-8.32,11.42-14.52,17.27-21.58,8.46-10.21,15.78-20.2,20.74-32.43,6.61-16.47,8.83-39.45,21.63-52.57,4.54-4.68,7.73-3.09,7.08,3.05-.5,6.51-4.77,12.77-7.7,18.46-7.11,13.3-12.77,27.04-19.15,40.75l-11.67,19.29c-6.79,10.92-12.32,22.66-18.34,33.97-4.1,7.78-10.46,14.31-13.25,22.77-2.94,9.11-2.32,19.01-5.57,28.1-1.79,5.48-4.2,10.78-6.95,15.84-2.08,3.74-4.81,6.93-6.79,10.75-2.27,4.94-4.34,11.19-9.84,13.49-7.36,3.05-11.54,2.68-8.87,12.08.53,1.83,10.41,18.88,11.12,17.82,6.33-8.99,11.24-19.26,17.89-28.05,5.04-6.61,14.74-11.53,23.12-9.86,8.25,1.53,15.09,7.82,22.89,10.55,6.85,2.41,13.1,6.69,19.7,9.7,7.09,3.28,13.33,7.87,19.22,12.8,7.16,5.92,15.78,9.91,23.49,14.75,9.81,6.12,18.99,12.75,28.12,19.56,5.99,4.47,12.13,8.56,18.44,12.47,3.56,2.13,6.98,4.66,9.84,7.45,5.34,4.96,1.95,7.5-4.72,5.16-3.35-1.14-6.22-3.88-9.03-5.96-8.85-6.15-18.33-11.52-26.95-17.93-8.48-6.19-16.01-13.67-24.45-19.79-4.35-3-8.92-6.26-13.46-8.76-3.94-2.2-8.49-2.98-12.45-5.04-15.02-8.09-27.34-19.29-44.45-23.03-14.1-3.14-13.99,7.61-16.86,17.86-4.08,14.43-21.47,17.16-34.19,14.52-4.24-.85-9.47-2.56-13.74-1.46.32,6.74,1.63,14.01,4.63,20.06,2.36,4.77,3.9,9.64,4.88,14.95-.69-3.83,6.83-11.05,9.43-13.03,4.31-3.3,9.41-5.2,14.41-7.18,5.98-2.45,13.51-5.41,19.7-1.75,8.56,5.12,11.17,18.65,14.56,27.32,7.18,18.19,12.98,36.94,18.32,55.68,2.54,8.46,5.73,17.04,7.24,25.76,1.6,9.77.16,19.89.34,29.75.28,27.54,3.1,55,4.54,82.49.3,5.94,3.9,12.04,3.05,18.01-.78,4.95-5.28,4.65-8.51,1.47-7.41-7.09-3.85-22.09-4.11-31.19-.34-17.89-1.44-35.71-2.61-53.5-.87-13.85-1.49-27.64-1.97-41.51-.23-7.69-2.71-10.28-6.61-16.77-2.24-3.9-4.03-8.6-5.62-12.93-3.62-10.5-6.37-21.22-9.2-31.92-1.13-4.22-8.39-37.52-14.2-35.9-5.16,1.47-6.53,9.73-8.17,13.9-2.23,6.37-6.26,10.96-12.87,12.94,3.65-.83,16.86,55.92,18.03,61.74,6.17,32.93-2.43,69.76-25.96,94.21-6.01,6.22-12.89,12.06-20.5,16.06-9.5,4.93-23.94,5.37-34.19,0-7.52-4.01-14.5-9.84-20.52-16.06-23.49-24.45-32-61.28-25.85-94.21,1.12-5.82,14.38-62.57,17.93-61.74-6.67-1.99-10.62-6.58-12.93-12.94-1.44-4.17-2.87-12.43-8.1-13.9-5.82-1.61-13.09,31.69-14.09,35.9-2.89,10.69-5.62,21.42-9.31,31.92-1.63,4.33-3.3,9.03-5.66,12.93-3.74,6.49-6.31,9.08-6.59,16.77-.43,13.87-1.05,27.66-1.9,41.51-1.26,17.78-2.27,35.61-2.61,53.5-.21,9.1,3.39,24.1-4.1,31.19-3.26,3.17-7.77,3.47-8.55-1.47-.89-5.97,2.73-12.07,2.98-18.01,1.56-27.48,4.47-54.95,4.66-82.49.09-9.86-1.35-19.98.37-29.75,1.49-8.72,4.63-17.3,7.09-25.76,5.43-18.74,11.23-37.49,18.35-55.68,3.33-8.67,6.05-22.2,14.56-27.32,6.08-3.65,13.81-.69,19.75,1.75,5,1.98,10,3.88,14.31,7.18,2.68,1.98,10.21,9.2,9.43,13.03.98-5.3,2.48-10.18,4.93-14.95,3.07-6.05,4.26-13.32,4.54-20.06-4.24-1.1-9.4.6-13.62,1.46-12.8,2.64-30.14-.09-34.27-14.52-2.87-10.25-2.76-21-16.86-17.86-17.06,3.74-29.38,14.95-44.43,23.03-3.9,2.06-8.49,2.84-12.5,5.04-4.52,2.5-8.99,5.76-13.26,8.76-8.62,6.12-15.98,13.6-24.56,19.79-8.69,6.4-18.1,11.77-26.9,17.93-2.92,2.07-5.73,4.82-9.11,5.96-6.67,2.34-10.04-.2-4.79-5.16h0Z"/>
  </g>
</svg>