<?xml version="1.0" encoding="UTF-8"?>
<svg id="Layer_2" data-name="Layer 2" xmlns="http://www.w3.org/2000/svg" viewBox="0 0 427.19 654.5">
  <defs>
    <style>
      .cls-1 {
        fill:#808080
      }
    </style>
  </defs>
  <g id="Layer_1-2" data-name="Layer 1">
    <path class="cls-1" d="m12.47,348.43c9.79-9.43,17.97-16.72,24.78-30.26,5.02-9.74,8.02-20.74,14.61-28.89,5.54-6.88,12.4-10.02,18.63-15.38,17.49-15.35,29.87-43.27,51.77-47.75,9.88-2.04,9-12.9,14.27-21.76,5.72-9.68,7.75-24.17,10.88-35.73-11.41-16.2-18.72-34.42-28.4-52.11-5.2-9.7-9.16-20.63-14.81-30.05-5.7-9.27-12.81-16.31-18.88-24.79-3.79-5.27-21.94-22.71-16.08-32.87,2.86-5.13,11.93,2.66,14.88,4.63,5.93,4.07,11.34,9.54,15.99,15.99,8.15,10.99,19.85,14.27,26.03,28.44,5.75,13.06,6.65,28.78,8.66,43.52.48,4.11,12.45,37.46,15.51,34.35,7.13-7.18,14.45-13.88,22.49-19.04,6.2-3.95,19.01-13.54,25.71-12.29-20.76-3.77-58.04-28.14-33.42-60.88,6.61-8.79,14.42-10.52,22.97-14.52-5.74-2.82-9.27-10.56-13.51-15.92-4.36-5.59-9.61-15.13-15.72-16.74-4.23-1.25-11.31-1.07-14.17-5.95-3.2-5.36-.57-11.2,4.36-10.36,12.24,2.09,24.26,14.61,33.1,25.42,1.32,1.68,13.08,22.08,13.33,22.08,12.24-1.96,24.12-4.52,36.28,0,.25.07,12.04-20.4,13.42-22.08,8.91-10.81,20.79-23.33,33.01-25.42,4.95-.84,7.66,5,4.32,10.36-2.84,4.89-9.79,4.7-14.11,5.95-6.07,1.61-11.36,11.15-15.68,16.74-4.27,5.36-7.9,13.11-13.49,15.92,8.45,4,16.2,5.72,22.92,14.52,24.69,32.74-12.65,57.11-33.32,60.88,6.61-1.25,19.42,8.34,25.6,12.29,8.04,5.16,15.26,11.86,22.51,19.04,3.02,3.11,15.02-30.24,15.52-34.35,2.09-14.74,2.97-30.46,8.65-43.52,6.18-14.17,17.88-17.45,26.03-28.44,4.68-6.45,10.13-11.93,15.99-15.99,2.93-1.98,12.09-9.77,15.02-4.63,5.7,10.15-12.47,27.6-16.17,32.87-6.11,8.47-13.29,15.52-18.9,24.79-5.61,9.43-9.47,20.35-14.81,30.05-9.65,17.69-16.95,35.91-28.33,52.11,3.07,11.56,4.97,26.06,10.84,35.73,5.2,8.86,4.38,19.72,14.24,21.76,21.95,4.48,34.25,32.4,51.72,47.75,6.27,5.36,13.18,8.5,18.63,15.38,6.61,8.15,9.65,19.15,14.58,28.89,6.93,13.54,15.04,20.83,24.83,30.26,2.54,2.41,20.22,14.92,8.43,18.31-10.9,3.05-23.1-7.36-31.35-15.65-10.29-10.45-16.42-26.15-23.58-40.23-6.84-13.43-20.76-17.54-29.21-29.19-5.68-7.77-9.9-17.4-15.99-24.42-6.29-7.27-14.06-11.52-20.88-17.83,10.02,41.18,20.51,82.19,30.35,123.33,4.27,17.42,8.16,35.25,10.97,53.27.43,2.5.57,4.91.68,7.56,1,13.27,13.04,19.99,17.99,30.15,5.77,11.61,10.83,21.87,18.56,31.51,6.74,8.49,11.99,19.76,14.85,31.73,2.05,8.61,4.95,31.53-3.68,35.96-5.43,2.82-6.09-24.58-6.91-26.96-2.45-6.88-3.41-15.59-6.27-21.92-2.77-6.27-8.29-8.81-12.72-11.88-5.29-3.75-10.38-8.65-15.15-13.36-.82,17.76-1.66,35.39-2.54,53.13-.82,18.24.73,36.57.73,54.95,0,15.2,1.75,41.34-8.74,51.39-9.47,9.04-17.04-11.7-20.06-20.79-15.72-46.11-20.29-97.11-24.38-147.2-1.96-23.85-2.34-48.11-6.27-71.72-2.57-15.56-5.22-31.12-7.91-46.86-.75-4.52-1.54-9.06-2.32-13.7,3.8,22.65,2.45,46.73,3.23,69.76,2.18,59.29-4.91,120.9-23.85,174.51-5.47,15.29-11.99,29.71-18.36,44.34-5.45,12.97-14.38,26.08-25.83,27.74-13.56,1.84-21.72-13.56-27.78-27.74-6.2-14.63-12.83-29.05-18.24-44.34-19.06-53.61-26.08-115.22-23.94-174.51.93-23.03-.5-47.11,3.27-69.76-.77,4.63-1.54,9.18-2.34,13.7-2.66,15.74-5.31,31.3-7.97,46.86-3.81,23.6-4.27,47.86-6.2,71.72-4.09,50.09-8.68,101.09-24.31,147.2-3.11,9.09-10.59,29.83-20.01,20.79-10.4-10.04-8.88-36.19-8.88-51.39,0-18.38,1.57-36.71.73-54.95-.77-17.74-1.73-35.37-2.45-53.13-4.72,4.71-9.83,9.61-15.13,13.36-4.5,3.07-10.02,5.61-12.83,11.88-2.75,6.33-3.7,15.04-6.25,21.92-.75,2.38-1.45,29.78-6.91,26.96-8.59-4.43-5.59-27.35-3.66-35.96,2.75-11.97,8.11-23.24,14.99-31.73,7.65-9.63,12.7-19.9,18.42-31.51,5-10.15,17.04-16.88,17.97-30.15.27-2.66.29-5.07.63-7.56,2.91-18.01,6.73-35.85,10.93-53.27,9.99-41.14,20.42-82.14,30.39-123.33-6.79,6.32-14.47,10.56-20.78,17.83-6.22,7.02-10.36,16.65-15.95,24.42-8.47,11.65-22.4,15.77-29.28,29.19-7.15,14.09-13.24,29.78-23.58,40.23-8.2,8.29-20.47,18.7-31.32,15.65-11.9-3.38,5.88-15.9,8.41-18.31h0Z"/>
  </g>
</svg>