<?xml version="1.0" encoding="UTF-8"?>
<svg id="Layer_2" data-name="Layer 2" xmlns="http://www.w3.org/2000/svg" viewBox="0 0 640.29 654.5">
  <defs>
    <style>
      .cls-1 {
        fill:#808080
      }
    </style>
  </defs>
  <g id="Layer_1-2" data-name="Layer 1">
    <path class="cls-1" d="m334.72,311.84c-3.41.83-6.19,2.17-8.51,4.48-.99.98-1.12,1.72-.04,2.73.97.91,2.04,1.75,3.07.5,1.95-2.32,4.47-4.25,5.48-7.72h0Zm10.02-40.66c-4.75-3.75-9.05-2.9-13.39-.03-2.32,1.52-5.07,2.15-7.68,3.05-2.97,1.03-5.66,2.53-7.69,5.02-.45.55-1.33,1.04-.84,1.95.47.83,1.38.57,2.11.54.65-.01,1.31-.19,1.95-.37,8.89-2.4,16.48-7.99,25.54-10.17h0Zm-47.53,5.88c1.98.04,3.2-.35,3.98-1.32,3.46-4.32,6.81-8.69,9.71-13.42.83-1.37.45-2.32-.82-2.49-2.03-.3-3.94-1.25-6.17-.67-6,1.55-12.11,8.51-12.76,14.75-.1.97.1,1.52.97,1.78,1.91.54,3.83,1.03,5.1,1.37h0Zm-4.77,88.12c1.5-.88,2.54-2.17,3.58-3.45,6.17-7.64,12.36-15.27,18.44-22.99,3.15-3.98,6.38-7.92,8.67-12.51.99-1.99-.02-3.37-1.21-4.77-.76-.88-1.61-1.16-2.63-.49-6.57,4.31-13.26,8.56-17.55,15.4-4.86,7.72-8.37,16.04-10.05,25.09-.26,1.44-.16,2.56.74,3.73h0Zm347.86-130.58c-5.4,6.51-11.44,12.44-17.61,18.18-10.46,9.73-21.25,19.11-31.86,28.69-3.95,3.57-7.69,7.36-11.59,11-9.67,9.01-18.95,18.45-28.46,27.63-9.43,9.09-18.96,18.08-28.44,27.12-4.8,4.57-9.74,6.03-16.55,3.51-21.39-7.93-42.55-16.43-63.66-25.08-22.65-9.26-45.2-18.73-67.8-28.16-1.44-.6-2.69-.63-4.14.01-4.95,2.2-9.93,4.34-14.92,6.48-3.86,1.66-6,5.21-8.59,8.17-3.79,4.32-7.02,9.1-10.56,13.66-1.12,1.45-1.27,2.57.1,4.03,2.87,3.07,5.46,6.41,8.31,9.49,11.51,12.46,23.15,24.82,34.59,37.35,8.82,9.66,17.7,19.28,26.74,28.75,8.89,9.3,17.54,18.83,26.32,28.24,4.25,4.56,10.08,6.77,15.28,9.88,12.45,7.46,25.08,14.6,37.61,21.92,15.5,9.04,30.9,18.24,46.46,27.19,21.12,12.15,42.06,24.7,64.16,35.1,9.21,4.32,18.57,8.4,27.82,12.68,1.59.73,4.44,1.26,3.7,3.39-.49,1.41-2.98-.19-4.42-.72-18.2-6.84-35.44-15.7-52.47-25.01-15.37-8.4-30.6-17.01-45.82-25.67-17.52-9.97-34.96-20.09-52.44-30.12-11.44-6.55-22.82-13.21-34.37-19.56-6.42-3.52-10.81-9.14-15.74-14.21-1.3-1.33-2.48-2.84-3.83-4.14-10.78-10.44-20.68-21.71-31.07-32.52-8.69-9.03-17.2-18.24-25.57-27.57-9.05-10.06-18.4-19.85-27.68-29.7-1.91-2.01-2.98-1.85-4.62.16-11.97,14.79-23.92,29.61-35.52,44.7-1.23,1.6-2.98,2.68-4.92,2.08-2.78-.87-3.46.57-4.18,2.71-1.4,4.26-2.73,4.52-5.95,1.39-.47-.47-.97-.92-1.41-1.42-1.17-1.32-2.17-1.74-2.51.53-.23,1.49-.97,2.52-2.43,2.82-1.86.39-2.95-.93-3.75-2.23-2.14-3.45-3.06-7.36-3.55-11.33-.23-1.86-.42-3.73-.93-5.9-1.3,2.71-.82,5.48-1.2,8.02-.86,5.68-1.17,11.44-1.49,17.18-.74,13.6-1.66,27.17-2.61,40.75-.53,7.74-1.16,15.45-1.88,23.15-.73,7.89-4.44,14.22-8.53,20.61-19.31,30.11-38.22,60.49-57.24,90.78-15.66,24.95-30.84,50.24-48.82,73.64-3.3,4.3-6.77,8.5-10.7,12.27h-2c.96-4.72,4.56-7.79,7.38-11.25,13.38-16.45,25.09-34.06,36.33-51.99,9.77-15.58,19.46-31.22,29.12-46.87,12.5-20.25,24.94-40.57,37.4-60.86,2.38-3.88,4.51-7.93,7.21-11.56,3.79-5.1,5.36-10.76,5.84-16.98,1.1-14,2.69-27.96,3.46-42.01.5-9.15,1.44-18.3,1.93-27.48.25-4.86.84-9.69,1.28-14.53.19-2.14-.55-3.17-2.93-3.42-2.17-.23-3.93-1.22-6.26.48-1.79,1.31-4.18-.18-5.9-1.86-4.63-4.54-7.99-10.03-11.63-15.33-1.95-2.83-3.99-5.59-6.06-8.32-1.41-1.86-2.61-1.8-3.55.49-1.49,3.57-2.27,7.43-4.09,10.88-2.25,4.28-5.1,7.6-10.26,8.6-3.31.65-3.24,4.07-3.49,6.55-.69,7.05-1.03,14.12-1.44,21.2-.09,1.57-.32,3.03-1.1,4.43-.83-.15-.65-.81-.68-1.27-.25-7.31-.63-14.63-.63-21.95,0-3.57-.65-7.06-.81-10.6-.1-2.45-2.18-3.76-3.68-5.36-4.78-5.12-7.93-10.93-7.6-18.18.26-5.84,2.67-10.66,6.94-14.6,2.27-2.1,5.12-2.4,7.94-2.92,8.06-1.5,8.74-2.64,4.82-9.52-7.01-12.32-14.25-24.52-21.4-36.76-.39-.64-.91-1.2-1.51-1.99-.86,3.2-.97,6.23-1.04,9.3-.33,12.54-1.03,25.05-1.44,37.58-.33,9.96-.96,19.91-1.26,29.88-.44,14.29-1.27,28.56-1.98,42.84-.15,3.03-1.69,5.09-4.44,6.5-9.4,4.8-19.4,8.14-29.17,12.05-15.95,6.34-31.95,12.55-47.95,18.76-11.04,4.29-22.12,8.5-33.18,12.71-1.21.47-2.4,1.1-3.97.89.24-1.35,1.2-1.67,2.2-2.13,11.39-5.2,23.05-9.78,34.64-14.46,20.03-8.09,40.08-16.11,60.13-24.13,4.62-1.85,9.26-3.65,13.93-5.4,1.74-.65,2.61-1.56,2.74-3.6.97-14.58,2.18-29.14,2.73-43.76.42-10.74.92-21.49,1.32-32.23.45-12.2.64-24.41,1.42-36.56.37-5.63-.15-11.33,1.15-16.89.23-1.01-.35-2.38,1.03-2.9,1.4-.53,2.58-.03,3.59,1.06,3.03,3.25,5.56,6.89,8.04,10.56,7.01,10.36,13.93,20.78,21.21,31.66,2.3-7.4,6.44-13.13,11.82-18,1.15-1.02.79-2.1.47-3.34-2.1-8.02-4.73-15.91-6.27-24.09-.34-1.84-.83-3.66-1.07-5.51-.16-1.28-.48-2.93,1.08-3.51,1.41-.53,2.27.84,2.87,1.8,2.3,3.65,4.47,7.4,6.67,11.12,2.37,4,4.75,8.02,7.05,12.06,1.06,1.86,2.48,2.35,4.46,1.61,3.21-1.22,6.36-2.71,9.67-3.5,5.73-1.41,11.63-1.77,17.5-1.41,3.32.21,4.17-1.03,4.08-4.18-.2-7.23-.06-14.46-.06-21.69-.01-13.09,1.52-26.07,3.23-39.01,1.83-13.81,3.52-27.63,5.5-41.41,1.93-13.46,4.04-26.9,6.23-40.31,2.51-15.4,5.02-30.78,7.8-46.1,2.77-15.35,5.82-30.64,8.84-45.95,1.45-7.26,2.72-14.6,6.51-21.16,1.55-2.68,3.26-5.19,6.73-5.22,3.37-.04,4.97,2.43,6.43,5,3.01,5.29,3.5,11.24,3.78,17.03.5,10.51,1.2,21.01,2.24,31.47,1.26,12.46,2.04,24.92,2.67,37.42.57,11.3,1.02,22.58,1.35,33.9.16,5.64.69,11.29.54,16.94-.68,26.46-5.22,52.11-15.24,76.75-3.68,9.03-7.29,18.06-11.23,26.98-.65,1.49-1.82,3.12.3,4.37,1.95,1.15,4.04,2.04,6.18.39,2.92-2.27,4.96-5.35,7.29-8.16,8.14-9.77,16.19-19.65,24.31-29.44,8.76-10.56,17.55-21.11,26.38-31.61,6.79-8.03,13.7-15.97,20.52-23.98,8.77-10.27,17.47-20.59,26.27-30.84,7.5-8.74,15.12-17.38,22.65-26.1,8.27-9.54,16.48-19.13,24.76-28.66,5.39-6.18,10.89-12.26,16.31-18.4,7.16-8.07,14.68-15.82,22.58-23.14,12.29-11.33,24.36-22.96,38.24-32.4,2.91-1.98,6.07-3.15,9.68-2.93,4.42.26,8.87-.39,13.29.39,7.64,1.36,8.92,4.85,7.7,12.6-1.47,9.33-6.75,16.78-12.53,23.85-10.2,12.46-19.21,25.68-26.77,39.93-5.45,10.3-12.64,19.51-19.75,28.74-8.46,10.96-17.64,21.31-26.62,31.84-3.89,4.54-7.86,9.04-11.98,13.36-11.71,12.32-22.96,25.1-35.4,36.71-9.78,9.14-20.15,17.62-30.83,25.74-17.08,13.02-33.95,26.32-50.98,39.4-5.84,4.51-11.91,8.71-18.09,13.19,2.58,1.56,4.93,2.42,7.91,1.45,5.74-1.83,10.78-5.36,16.52-6.95,13.71-3.79,27-9.37,41.62-9.28,13.38.09,25.58-4.44,37.42-10.26,5.77-2.82,11.68-5.35,17.61-7.82,2.58-1.08,3.99-2.84,4.98-5.38,3.36-8.66,6.87-17.28,10.37-25.91.38-.94.44-2.66,1.91-2.18,1.33.43.3,1.83.08,2.62-2.61,9.04-5.98,17.84-9.59,26.54-1.52,3.68-5.14,5.11-8.35,6.77-10.05,5.21-20.35,9.84-30.7,14.41-.47.2-.91.52-1.54.88,2.79,2.32,5.95,3.26,9.05,3.55,8.14.81,14.84,4.62,21.55,8.85,5.29,3.32,8.77,7.63,10.44,13.58,1.11,3.95,2.66,7.78,3.65,11.73,1.16,4.63-1.41,6.87-5.98,5.25-5.41-1.93-10.44-4.93-16.13-6.07-10.23-2.06-20.48-2.86-30.99-2.17-12.4.81-24.63,2.48-36.8,4.82-3.29.63-6.22,2.15-9.43,4.32,8.01,3.39,15.57,6.68,23.21,9.79,22.04,8.98,44.07,18,66.2,26.79,14.83,5.87,29.8,11.34,44.69,17.07,2.17.83,3.65.74,5.58-.96,10.8-9.58,21.26-19.51,31.55-29.63,9.59-9.42,19.31-18.69,29.17-27.82,11.79-10.91,23.64-21.79,35.75-32.35,8.3-7.23,16.1-14.94,23.92-22.68.97-.94,1.67-2.48,3.49-2.17v2.01h0ZM28.27,454.32c.21-1.32,1.46-1.54,2.4-1.91,6.46-2.58,12.86-5.29,19.57-7.21,1.04-.3,2.38-1.07,2.92.18.5,1.17-1.03,1.48-1.86,1.84-6.91,2.97-13.97,5.49-21.25,7.38-.6.16-1.25.62-1.79-.26h0Zm-28.27,4.33c3.22-1.95,6.9-1.91,10.37-2.58,4.1-.78,8.3-1.18,12.44-1.8.87-.13,2.06-.55,2.33.44.33,1.26-1.04,1.47-1.96,1.74-4.27,1.23-8.69,1.62-13.07,1.94-3.34.24-6.71.23-10.11.26h0Z"/>
  </g>
</svg>