<?xml version="1.0" encoding="UTF-8"?>
<svg id="Layer_2" data-name="Layer 2" xmlns="http://www.w3.org/2000/svg" viewBox="0 0 654.5 473.07">
  <defs>
    <style>
      .cls-1 {
        fill:#808080
      }
    </style>
  </defs>
  <g id="Layer_1-2" data-name="Layer 1">
    <path class="cls-1" d="m646.59,80.73c-6.44-6.65-17.27-6.62-25.91-7.77-8.94-1.18-17.29.8-25.77,3.26-23.47,6.84-46.61,15.29-69.08,24.73-37.08,15.7-73.14,33.73-109.16,51.68-3.55,1.78-41.17,17.23-41.17,20.22.07-13.26,8.72-23.93,14.76-35.13,4-7.39,8.59-14.72,12.13-22.44,9-20.51,26.61-31.15,40.51-47.95,3.05-3.71,9.47-26.3,4.69-28.42-6.98-3.04-8.67,11.63-10.39,15.25-5.17,10.98-16.3,24.27-24.9,32.81-9.02,9.05-17.45,15.12-20.88,28.08-3.85,13.95-10.27,23.97-19.71,34.96-.07-3.66-7.42-34.55-7.66-34.43,9.57-6.2,10.96-14.79,4.97-25.13-5.06-8.7-14.05-7.32-22.7-7.7l-2.52-5.02c-.31-.67,24.46-28.94,26.73-31.84,9.15-11.48,19.68-23.24,33.99-28.23.19-.07,25.27-8.85,25.27-8.85h12.6c4.16,0,15.22,2.86,9.1-5.81-1.56-2.2-3.42-2.29-5.74-2.73-4.71-1-11.12.8-15.71,1.86-8.92,2.03-19.16,4.42-27.14,9.17-20.98,12.31-35.23,31.19-52.16,48.04l-14.55,14.54h-17.84l-14.59-14.54c-16.8-16.85-31.11-35.73-52.1-48.04-7.98-4.74-18.15-7.14-27.14-9.17-4.65-1.06-10.99-2.86-15.74-1.86-2.36.43-4.08.53-5.7,2.73-6.15,8.66,4.97,5.81,9.09,5.81h12.6s25.11,8.78,25.34,8.85c14.13,4.99,24.71,16.75,33.86,28.23,2.25,2.89,27.04,31.17,26.77,31.84l-2.49,5.02c-8.72.38-17.73-1-22.73,7.7-5.99,10.35-4.67,18.93,5,25.13-.25-.12-7.68,30.77-7.71,34.43-9.36-10.99-15.84-21.01-19.58-34.96-3.59-12.96-11.95-19.03-20.97-28.08-8.58-8.55-19.73-21.84-24.86-32.81-1.75-3.63-3.41-18.3-10.45-15.25-4.82,2.13,1.64,24.71,4.65,28.42,13.88,16.8,31.5,27.44,40.65,47.95,3.39,7.72,8.03,15.05,11.99,22.44,6.04,11.2,14.68,21.87,14.81,35.13,0-2.99-37.56-18.45-41.22-20.22-36.04-17.95-72.1-35.98-109.17-51.68-22.42-9.45-45.52-17.9-68.94-24.73-8.54-2.46-16.97-4.44-25.87-3.26-8.6,1.15-19.44,1.11-25.89,7.77-17.31,17.78-2.52,40.7,7.68,57.63,5.93,10.03,14.79,19.15,25.37,24.2,11.93,5.77,25.32,3.73,37.77,7.39-1.45,4.64-4.57,9.6-5.15,14.39-1.5,13.04,8.97,17.7,19.72,20.53,14.3,3.66,28.27,8.8,43.22,9.26,10.96.3,21.98-.28,32.93-1.45,8.71-.96,18.28-4.14,26.86-4.14,13.72,0,26.86-5.51,39.74-9.25,9.21-2.69,23.39-7.3,32.91-5.92,2.86.4,6.73.22,9.31,1.35,5.45,2.4,2.48,1.93,4.27,7.4,1.87,5.46,10.24,9.68,3.42,15.29.21-.6-16.8-9.88-18.17-10.65-9.29-5.14-19.39-7.35-29.47-1.66-13.75,7.73-20.68,22.35-31.19,33.52-4.53,4.82-3.83,11.86-8.22,16.38-4.77,4.89-12.69,4.11-18.36,7.43-9.11,5.34-18.36,11.16-26.39,18.06-4.84,4.29-8.92,9.31-13.61,13.85-2.92,2.81-4.97,4.51-8.96,5.08-3.51.55-7.15-1.91-10.3.95-5.51,5.07,1.71,9.44,5.89,11.63,11.08,5.95,18.91-9.08,26.61-15.62,7.53-6.45,15.1-12.77,22.67-19.29,9.65-8.4,21.56-13.44,31.88-21.17,5.07-3.93,9.5-8.3,12.92-13.8,5.23-8.7,9.75-18.55,18.91-24.05,8.66-5.22,16.92-2.08,24.98,2.78,1.83,1.23,18.03,12.74,17.81,12.98,0,0-17.05,14.55-17.76,15.17-7.39,6.34-18.03,5.69-23.73,14.3-5.77,8.73-7.07,21.66-11.02,31.42-5.03,12.39-9.87,24.84-13.59,37.59-4.9,16.52-8.48,28.41-20.13,41.67-18.57,21.29-29.21,50.47-52.07,67.65-9.78,7.35-6.74,13.13,3.29,16.93,14.24,5.42,12.81-18.06,18.22-25.73,12.7-18.35,21.96-38.82,34.6-57.38,11.65-17.18,32.78-26.7,36.53-48.79,2.93-17-.3-35.29,9.32-50.71,5.38-8.8,15.79-12.57,25.8-13.14-3.04,12.01-1.05,25.15-1.2,37.31-.19,9.43.34,18.76.61,28.13.9,37.26,2.23,71.99,19.58,105.89,4.73,9.35,9.82,19.19,16.05,27.66,2.4,3.44,4.92,6.42,8.73,8.48,11.27,6.37,23.83,1.31,30.85-8.48,6.15-8.47,11.24-18.31,16.03-27.66,17.3-33.9,18.65-68.63,19.49-105.89.41-9.36.88-18.69.72-28.13-.22-12.16,1.78-25.3-1.27-37.31,10.05.57,20.42,4.34,25.91,13.14,9.63,15.42,6.37,33.72,9.17,50.71,3.76,22.09,24.92,31.6,36.59,48.79,12.64,18.56,21.85,39.04,34.59,57.38,5.37,7.67,4,31.15,18.19,25.73,10.08-3.81,13.09-9.58,3.33-16.93-22.86-17.18-33.6-46.35-52.14-67.65-11.59-13.26-15.14-25.15-20.02-41.67-3.83-12.76-8.67-25.2-13.65-37.59-3.93-9.76-5.25-22.69-10.93-31.42-5.78-8.61-16.37-7.97-23.87-14.3-.66-.62-17.61-15.17-17.61-15.17-.25-.23,15.8-11.75,17.81-12.98,7.79-4.86,16.17-8,24.92-2.78,9.15,5.51,13.69,15.35,18.95,24.05,3.37,5.5,7.79,9.88,12.96,13.8,10.1,7.73,22.09,12.77,31.79,21.17,7.49,6.52,15.1,12.84,22.71,19.29,7.68,6.54,15.48,21.57,26.55,15.62,4.12-2.18,11.3-6.55,5.87-11.63-3.09-2.86-6.83-.4-10.3-.95-3.97-.57-5.99-2.26-8.92-5.08-4.67-4.54-8.77-9.56-13.69-13.85-7.97-6.9-17.2-12.72-26.29-18.06-5.65-3.33-13.65-2.54-18.28-7.43-4.53-4.52-3.76-11.56-8.36-16.38-10.56-11.16-17.38-25.78-31.19-33.52-10.06-5.69-20.17-3.48-29.47,1.66-1.31.77-18.44,10.05-18.2,10.65-6.77-5.6,1.6-9.83,3.41-15.29,1.96-5.47-1.17-5.01,4.23-7.4,2.67-1.13,6.48-.95,9.32-1.35,9.63-1.38,23.81,3.23,32.91,5.92,12.94,3.74,26.1,9.25,39.83,9.25,8.56,0,18.2,3.18,26.8,4.14,10.99,1.17,22,1.75,33.06,1.45,14.9-.47,28.77-5.6,43.11-9.26,10.8-2.83,21.26-7.48,19.69-20.53-.5-4.79-3.62-9.75-5.15-14.39,12.49-3.66,25.89-1.61,37.82-7.39,10.53-5.06,19.41-14.17,25.4-24.2,10.16-16.93,24.86-39.85,7.66-57.63h0Z"/>
  </g>
</svg>