<?xml version="1.0" encoding="UTF-8"?>
<svg id="Layer_2" data-name="Layer 2" xmlns="http://www.w3.org/2000/svg" viewBox="0 0 654.5 581.79">
  <defs>
    <style>
      .cls-1 {
        fill:#808080
      }
    </style>
  </defs>
  <g id="Layer_1-2" data-name="Layer 1">
    <path class="cls-1" d="m309.31,319.48c1.28-46.7,18.87-117.82,28.76-143.29,2.49-4.65,4.44-8.69,6.67-12.99,4.58-8.81,4.77-30.18,1.77-32.08-3.54-2.2-5.9-2.78-9.99,7.19-4.13,9.99-3.81,24.39-3.81,29.96,0,3.53.85,7.43.85,7.43-8.68,24.7-27.45,98.55-28.4,145l-1.09.07c-29.93-40.06-51.57-93.55-59.08-145.65.03-8.13,1.41-11.4,2.23-18.84.82-7.57,1.13-21.39-5.61-21.81-4.24-.25-6.11,12.3-6.91,18.27-.34,2.65-1.25,14.12,6.13,22.45,7.33,51.38,29.45,106.02,58.52,146.32-.8,2.7-3.33,7.3-3.02,11.17.33,3.86,1.41,5.16,1.41,5.16,0,0,.16.63.37,1.99-36.64-54.54-81.56-127.68-205.7-208.02-39.06-22.49-67.47-29.64-83.24-10.7-21.58,25.89-.86,53.18,19.32,67.46,2.61,1.84-.03,17.13,4.61,29.88,4.64,12.74,13.51,14.9,15.46,21.46,1.92,6.57-5.53,5.43,12.02,30.91,3.71,5.41,16.41,11.78,17.18,17.18.7,4.88-1.73,13.76,2.58,19.75,3.01,4.23,11.6,13.32,15.47,17.2,3.84,3.86,2.09,8.93,19.74,19.75,37.88,23.22,90.19,27.06,101.78,27.06,4.23.76,9.47,1.28,15.21,1.51-6.99,4.14-13.99,8.89-20.79,14.37-16.45,13.26-34.78,47.66-33.51,72.16,1.3,24.47-.85,38.22,21.05,44.65,0,0,3.88,21.91,21.9,21.91,0,0,16.44,21.9,27.06,21.9,6.44,0,14.63,27.27,30.93,23.2,5.15-1.29,9.03,13.82,26.51,9.45,5.15-1.29,28.33,9.01,39.94-18.04,3.04-7.12,12.11-4.3,9.55-36.51-1.5-18.87-7-55.38-13.86-89.14,5.13,12.31,9.63,21.83,10.33,22.06,1.15,5.8,7.46,22.52,12.1,27.15,4.66,4.63,6.45,7.64,7.01,9.95.57,2.33,2.85,8.03,4.6,11.53,1.75,3.45,6.87,10.72,12.45,15.89,2.72,2.47,4.41,2.73,5.59,5.63,1.15,2.88,6.6,9.76,15.89,16.15,2.79,1.92,8.28,2,11.17,2.58,2.32-9.28,1.03-25.69-6.49-43.08-2.31-5.31-4.52-12.85-5.98-17.78-1.13-3.9-5.27-9.01-6.45-10.74-1.14-1.75-1.34-5.18-2.98-9.88-2.02-5.69-17.15-32.69-28.16-51.65,32.16,32.74,75.79,68.27,104.85,86.67,34.16,21.63,50.48,16.28,50.48,16.28,17.9,4.88,32.42-5.57,40.69-4.9,19.53,1.64,27.52-9.79,32.22-11.53,16.04-5.93,17.43-19.75,22.17-21.5,14.93-5.51,6.76-31.21,11.82-34.65,8.31-5.68,9.47-31.61,9.47-31.61,14.12-9.61,5.44-28.83,5.44-28.83,13.72-16.74,5.47-34.79-9.51-52.55-26.05-30.92-76.22-39.99-96.17-41.56-2.79-.23-5.93-.3-9.2-.34,7-4.67,11.43-9.02,12.31-12.8,6.19-4.62,36.1-13.74,34.37-34.36-.42-5.08,8.43-8.68,18.89-27.49,8.58-15.47,3.45-22.32,3.45-22.32,0,0,4.95-14.4,7.44-21.5,6.28-18.01.75-20.46-2.73-30.89-1.23-3.7,1.21-3.24-1.29-23.19-1.71-13.73-14.61-15.72-13.73-22.32C601.67,16.62,558.09,1.23,545.7.07c-27.42-2.59-110.41,71.14-159.33,144.46-28.69,43.04-57.76,139.69-63.63,192.07-.28-2.35-.62-4.87-.98-7.33-6.01-12.03-10.15-5.15-12.46-9.78m-4.58,36.06c.32-.56.58-1.14.82-1.73,2.19.25,3.01,1.19,3.01,1.19-.1,1.03-.43,2.85-.43,3.88-1.46-.6-1.89-2.79-3.41-3.34"/>
  </g>
</svg>