<?xml version="1.0" encoding="UTF-8"?>
<svg id="Layer_2" data-name="Layer 2" xmlns="http://www.w3.org/2000/svg" viewBox="0 0 381.3 654.5">
  <defs>
    <style>
      .cls-1 {
        fill:#808080
      }
    </style>
  </defs>
  <g id="Layer_1-2" data-name="Layer 1">
    <path class="cls-1" d="m245.48,0c-1.23,26.94,18.89,50.86,11.18,78.25-1.45,5.14,2.24,6.15,5.25,5.81,8.61-.67,14.31,14.53,24.7,4.36,12.97-12.74,19.9-9.61,21.02,8.5.89,15.2,15.87,7.71,23.47,13.19,7.6,5.48,4.36-6.48,7.49-9.5,8.44-8.7,18.5-15.65,29.62-20.46,0,8.72-6.26,11.96-11.18,14.53-17.77,9.05-16.99,21.02-8.05,36.11,7.36,11.27,10.56,24.75,9.05,38.12-6.04-14.08-6.48-27.16-14.76-37-29.73,27.05-24.37,61.26-21.8,94.79.67,7.49,9.5,13.97,13.75,21.46,9.22,20.05,12.77,42.24,10.28,64.16-1.23,29.3,5.9,58.34,20.57,83.73,9.65,15.15,14.91,32.68,15.2,50.64-11.18-24.82-21.35-48.18-33.54-70.2-13.08-23.92-11.18-49.07-11.18-74.67,0-18.22,5.92-38.9-15.99-55.11-1.68,30.74-3.69,58.91-4.69,86.97-1.36,80.99-26.68,159.76-72.77,226.37-3.02,4.36-5.92,8.83-9.05,13.08-14.98,19.79-22.36,20.79-43.6,5.59-6.82,25.26-4.81,51.64-15.54,75.79,1.01-22.36,1.12-45.72,3.47-68.41,1.36-10.69-2.12-21.43-9.5-29.29-9.99-10.39-17.62-22.82-22.36-36.44-4.47-11.18-11.96-12.07-22.36-7.49-12.19,6.23-25.48,10.03-39.12,11.18-18.56,1.01-28.95,16.99-39.24,30.74-7.25,12.57-17.04,23.49-28.73,32.08,7.71-23.14,26.16-37.78,36.33-58.8-8.05-4.81-20.9,0-25.82-11.18-3.87-11.38-4.52-23.6-1.9-35.32,10.51-92.33,50.86-171.03,110.56-240.9,13.64-13.97,25.93-30.74,39.24-47.51-10.08-3.89-21.51-.82-28.28,7.6-8.35,7.58-15.85,16.05-22.36,25.26-17.33,27.72-44.71,41.36-73,53.43-18.89,7.94-38.34,14.42-51.87,19.45,10.72-10.24,23.65-17.89,37.78-22.36,33.53-11.13,62.96-32.04,84.51-60.03,14.07-19.71,35.37-33.05,59.25-37.11,14.08-1.79,19.12-15.54,27.83-24.15,12.52-12.07,25.6-23.47,24.26-44.71-1.98-12.55,3.3-25.15,13.64-32.53,7.27-4.58,4.92-12.3,3.69-19.9-3.13-19.23-9.73-38.12-5.48-58.13Zm65.73,127.99c-5.83,4.47-6.93,12.82-2.46,18.65,1.52,1.99,3.58,3.51,5.93,4.38,8.5,3.91,13.86-4.92,16.21-12.97s8.72-16.88-3.24-22.36c-11.96-5.48-15.76,1.57-16.43,12.3Zm-49.19-18.78c8.61-8.5,6.93-16.1-4.58-19.9-11.51-3.8-13.19,7.71-16.66,14.42-3.47,6.71-5.37,17.33,3.91,20.01,9.28,2.68,19-.11,17.33-14.53Z"/>
  </g>
</svg>