<?xml version="1.0" encoding="UTF-8"?>
<svg id="Layer_2" data-name="Layer 2" xmlns="http://www.w3.org/2000/svg" viewBox="0 0 476.38 654.5">
  <defs>
    <style>
      .cls-1 {
        fill:#808080
      }
    </style>
  </defs>
  <g id="Layer_1-2" data-name="Layer 1">
    <path class="cls-1" d="m292.26,160.65c-.16.82.3,1.79,1.15,2.65,1.18,1.22,2.29,2.5,3.48,3.7.96.98,1.6,2.07,1.72,3.45.09,1.08.59,1.96,1.44,2.64.73.59,1.5,1.13,2.17,1.79,1.75,1.71,3.18,3.69,3.43,6.15.22,2.15,1.87,3.13,3.03,4.52.15.18.63.17.93.11,2.03-.37,4.07-.75,6.02-1.45,1.66-.6,3.14-1.47,4.42-2.7.74-.71.79-1.27-.05-1.95-.63-.52-1.43-.97-1.56-1.92-.07-.59-.45-.91-.91-1.16-.71-.37-1.09-.97-1.45-1.66-1-1.87-2.12-3.71-3.97-4.84-1.18-.71-1.91-1.57-2.16-2.93-.14-.73-.4-1.46-1.34-1.59-3-.42-5.37-1.86-7.11-4.34-.81-1.15-1.62-2.31-2.44-3.45-1.11-1.52-2.19-3.06-3.67-4.26-.61-.49-1.06-.54-1.37.31-.8,2.11-1.51,4.24-1.74,6.92h0Zm-91.37-9.74c-.68-.11-1.22.12-1.56.72-.95,1.67-2.38,2.7-4.14,3.43-1.8.75-1.87,1.09-1.31,2.98.07.22.15.48.09.68-.28,1.05.33,1.72,1.01,2.3.68.58,1.4,1.13,2.14,1.6,4.26,2.67,7.56,6.46,11.25,9.78.78.7,1.45.75,2.28.42.87-.35,1.23-1.14,1.46-1.96.46-1.54,1.41-2.64,2.86-3.31,1.62-.75,2.71-1.96,3.39-3.6.44-1.05,1.04-2.03,2.07-2.6,1.23-.67,2.16-1.62,2.93-2.78.73-1.13,1.65-2.03,2.95-2.5.8-.28,1.36-.79,1.29-1.78-.31-4.12.72-8.02,2.1-11.83.95-2.61,1.03-5.33,1.44-8.01.1-.58-.05-1.17-.62-1.45-.64-.32-1.19-.05-1.61.48-.61.79-1.4,1.38-2.16,2.01-2.71,2.24-5.62,4.26-7.95,6.94-.59.68-1.37,1.2-2.22,1.45-2.3.7-3.48,3.15-5.89,3.62-.18.03-.36.3-.48.5-.45.7-1.12,1.09-1.8,1.53-2.34,1.5-4.82,2.04-7.54,1.38h0ZM0,461.5c.24-2.38.68-4.75.71-7.13.07-8.93.99-17.84.59-26.78-.32-7.27-.61-14.56-.52-21.84.04-4.16.76-8.17,1.88-12.2,3.39-12.32,6.69-24.66,9.38-37.15,1.04-4.77,2.12-9.54,3.39-14.25.42-1.55.91-3.06,1.71-4.47.69-1.24,1.31-2.5,1.12-4-.07-.59.3-1.06.57-1.56,2.96-5.52,6.74-10.53,9.82-15.97,4.21-7.44,9.15-14.46,12.81-22.21.67-1.43,1.66-2.73,2.52-4.07,1.23-1.85,2.23-3.8,3.1-5.85,1.62-3.81,3.41-7.53,6.19-10.68.21-.24.45-.57.45-.86.01-1.74,1.17-2.63,2.38-3.6,3.23-2.6,5.97-5.71,8.77-8.76,7.31-7.96,14.69-15.87,22.11-23.73,6.5-6.87,12.37-14.29,18.63-21.36,2.21-2.49,4.69-4.72,6.36-7.65.45-.77,1.21-1.33,2.02-1.74,7.59-3.82,14.37-8.9,21.32-13.71,6.84-4.74,13.72-9.42,20.49-14.26,3.59-2.57,6.98-5.41,10.46-8.14,1.04-.82.97-1.43-.16-2.17-.32-.2-.62-.48-.98-.56-1.52-.38-2.63-1.14-3.7-2.42-.73-.86-2.16-1.41-3.26-2.13-.87-.57-1.71-1.12-2.43-1.86-.85-.87-2.15-1.35-2.87-2.09-1.51-1.59-3.69-2.2-5.01-3.91-.4-.52-.79-.95-1.47-.92-1.09.05-1.76-.58-2.3-1.38-.88-1.32-1.88-2.41-3.55-2.8-.87-.21-1.38-1.08-2.01-1.71-1.06-1.07-2.24-1.96-3.46-2.85-1.61-1.17-3.48-2.21-4.78-3.79-.68-.81-1.33-1.39-2.34-1.64-1.12-.27-1.97-.86-2.33-2.03-.07-.22-.18-.52-.36-.59-1.66-.66-2.87-1.95-4.32-2.89-.31-.2-.81-.21-1-.48-2.42-3.34-6.77-4.3-9.24-7.58-.58-.77-1.32-1.47-2.46-1.43-.23,0-.58-.22-.68-.43-.72-1.42-2.11-1.94-3.39-2.62-.88-.47-1.49-1.24-2.2-1.91-1.33-1.25-2.91-2.28-4.38-3.34-1.05-.74-2.26-1.25-3.09-2.3-.59-.75-1.19-1.48-2.27-1.48-.13,0-.33-.04-.39-.14-1.36-2.08-4.33-2.17-5.53-4.49-.37-.69-1.11-1.15-1.95-1.27-.64-.1-1.15-.46-1.54-.93-.98-1.16-2.38-1.82-3.42-2.76-1.56-1.4-3.52-2.28-4.89-3.83-1.2-1.36-2.37-2.59-4.15-3.23-1.36-.49-2.14-1.8-3.09-2.84-1.03-1.13-2.13-2.1-3.57-2.69-1.24-.51-2.18-1.46-3.16-2.34-2.3-2.05-4.8-3.76-7.64-4.97-.9-.39-1.74-.92-2.63-1.35-.85-.41-1.01-.91-.57-1.79.44-.88.67-1.86.99-2.79.22-.68.55-1.32,1.15-1.73.86-.6,1.39-1.44,1.59-2.42,1.14-6.06,5.51-9.15,10.6-11.55,3.63-1.7,7.54-2.24,11.48-2.64,4.43-.44,8.88-.75,13.3-1.27,1.29-.15,2.38.47,3.6.42,4.36-.19,8.84.07,13.03-1,4.1-1.04,8.2-.61,12.27-1.24,1.07-.16,2.09-.33,3.11-.79,1.38-.65,2.95-.46,4.43-.58,1.74-.13,3.45-.36,5.11-.88.98-.3,2.23-.17,2.96-.51,1.63-.74,3.45-.2,4.94-1.14.24-.15.49-.32.78-.23,1.05.31,1.92-.21,2.86-.48,2.34-.68,4.72-1.18,7.11-1.59,3.15-.53,6.27-1.27,9.21-2.55,1.48-.65,2.98-1.13,4.6-1.16,1.31-.02,2.45-.64,3.62-1.11,2.18-.88,4.48-1.38,6.67-2.13,2.25-.78,4.6-1.19,6.79-2.08,8.71-3.58,17.68-6.27,26.96-7.94,5.84-1.05,11.7-1.8,17.64-1.59,2.95.11,5.9.25,8.82.81,1.12.22,2.17.58,3.16,1.16.8.47,1.64.92,2.48,1.35,1.75.91,3.48.93,5.19-.14.75-.47,1.56-.88,2.36-1.26.85-.41,1.76-.71,2.72-.45,1.74.47,3.23.04,4.57-1.12,1.26-1.07,2.59-1.87,4.37-1.34.58.17,1.09-.15,1.53-.55,1.71-1.53,3.49-3.01,5.14-4.6,3.18-3.03,7.12-4.71,11.1-6.29,3.92-1.56,7.95-2.89,11.93-4.29,1.11-.39,2.27-.62,3.47-.57.99.03,1.96-.08,2.91-.41,1.29-.44,2.38-.12,3.27.96,1.51,1.85,2.35,4,3.22,6.5-1.02-.48-1.74-.88-2.5-1.17-1.57-.6-1.84-.47-2.37,1.11-.38,1.14-.69,2.31-1.07,3.59-.78-.7-.64-1.57-.84-2.29-.42-1.52-1.28-2.41-2.89-2.67-6.45-1.09-12.39.36-17.98,3.61-1.19.7-.68,1.44-.18,2.21,1.1,1.69,1.12,1.7-.68,2.65-2.45,1.29-5.03,2.33-7.23,4.09-.82.65-1.9.74-2.93.92-.86.15-1.55.48-1.17,1.6.21.62-.12.99-.7,1.15-1.22.34-2.4.72-3.73.4-1.41-.35-2.7-.29-3.62,1.29-.79,1.36-2.41,1.36-3.81,1.41-2.25.08-4.51.04-6.77.02-1.68-.01-3.12.42-4.23,1.81-1.15,1.44-2.76,1.48-4.39,1.19-1.8-.32-3.59-.72-5.37-1.16-.97-.24-1.41.12-1.66.98-.45,1.58-.96,1.88-2.28.83-2.09-1.66-4.52-2.21-7.02-2.65-2.37-.42-4.77-.56-7.16-.52-1.58.03-3.07,1.06-4.72.4-1.83,1.44-4.01,1.18-6.14,1.41-1.7.19-3.33.83-4.76,1.97-.83.66-2.05.61-3.11.77-1.38.21-2.54.72-3.24,1.97-.37.64-.76.73-1.36.36-.76-.46-1.52-.36-2.29.05-.79.43-1.63.74-2.54.77-.34,0-.68.03-.89.33-.58.81-1.45.99-2.34,1.12-1.47.21-2.58.82-2.89,2.43-.14.78-.58.7-1.11.34-1.61-1.06-3.12-1.13-4.6.29-.76.73-1.86.6-2.8.75-1.34.21-2.15.8-2.35,2.19-.13.95-.53,1.34-1.27.4-.82-1.02-1.9-.91-2.98-.69-2.08.42-4.06,1.16-5.97,2.08-1.8.87-1.97,1.19-1.73,3.18.02.16-.02.34-.04.61-.69-.27-.71-.94-1.11-1.31-1.17-1.11-2.96-1.47-4.71-.44-1.39.81-2.71.86-4.23.85-2.78-.02-5.33.71-6.69,3.52-.32.65-.78.58-1.04.03-.86-1.89-2.57-1.21-3.93-1.23-1.55-.02-2.91.73-3.71,2.17-.29.53-.53,1.09-.94,1.97-.89-2.72-2.7-2.8-4.88-2.28-2.27.55-3.03,2.26-3.45,4.3-.29-.17-.43-.21-.44-.27-.71-3.17-.71-3.16-3.95-3.14-1.98.02-3.91.41-5.87.66-1.86.23-2.96,1.26-3.42,3.03-.14.53-.37,1.04-.6,1.69-.75-.74-.65-1.59-.86-2.3-.35-1.1-1.01-1.59-2.11-1.28-.87.25-1.59.08-2.39-.37-1.51-.85-5.3.32-6.35,1.87-.59.87-1.12,1.79-1.69,2.7-.63-.4-.45-.93-.51-1.36-.2-1.54-1.08-2.36-2.6-2.4-2.33-.05-4.56.1-5.73,2.61-.14.3-.43.52-.81.41-.3-.09-.39-.36-.46-.65-.65-2.41-3.49-3.21-5.38-1.52-.21.18-.42.39-.59.6-.63.78-1.03,1.8-2,.09-.8-1.43-4.17-1.28-5.18.08-.54.72-1.01.81-1.78.52-.42-.16-.92-.18-1.38-.13-1.14.13-2,.88-2.26,1.87-.26,1,.89,1.23,1.57,1.47,2.13.78,3.92,2.13,5.84,3.27.29.17.51.55.67.88.43.86,1.12,1.32,1.89,1.89,1.04.75,2.21,1.4,3.15,2.37,1.47,1.49,3.16,2.66,5.37,3.11,1.26.25,2.64.87,3.47,1.99.65.86,1.38,1.38,2.39,1.57,1.18.22,2.09.81,2.71,1.84.49.8,1.11,1.36,2.14,1.35.8,0,1.44.41,1.83,1.13.6,1.1,1.45,1.8,2.74,1.96.67.08,1.16.49,1.51,1.14.62,1.17,1.62,1.95,2.94,2.17.77.13,1.22.65,1.72,1.14.95.97,1.64,2.35,2.95,2.78,2.37.78,3.63,2.88,5.49,4.25.49.36.89.84,1.61.69.4-.08.67.09.92.46,1.41,2.08,3.24,3.62,5.74,4.28.9.24,1.53.87,2,1.67.56.98,1.26,1.73,2.51,1.77.53.01.93.35,1.21.86.79,1.47,1.93,2.51,3.65,2.78.18.03.41.08.52.21,1.45,1.78,3.44,2.9,5.27,4.17,1.69,1.17,3.65,1.99,4.75,3.88,1.66-.09,2.25,1.54,3.37,2.1,1.66.82,2.93,1.91,4.32,3.04.96.78,2.18,1.32,2.97,2.39.02.04.06.09.1.09,2.32.12,3.24,2.56,5.3,3.15.87.25,1.61.77,2.09,1.58.19.33.5.66.89.58,1.24-.26,1.91.56,2.64,1.29.99.98,1.86,2.15,3.45,2.22.05,0,.11.02.13.04,1.35,2.25,4.26,2.3,5.87,4.18.05.07.11.18.18.2,2.25.7,3.76,2.73,6.03,3.38.37.1.88.14,1.04.4,1.3,2.14,3.92,2.19,5.64,3.64,1.1.94,2.39,1.16,3.71.79,2.72-.76,5.21-1.93,6.44-4.75.34-.76,1.11-.98,1.79-1.28.74-.31,1.51-.53,2.24-.87.75-.36,1.37-.94,1.38-1.82.03-2.16,1.32-3.57,2.79-4.83,3.63-3.07,7.65-5.47,12.19-6.93,4.75-1.53,9.35-3.42,13.9-5.45,2.55-1.14,5.22-1.82,7.98-2.2,1.65-.23,3.05-.88,4.1-2.24,1.84-2.38,4.42-3.26,7.29-3.38,1.11-.05,1.85-.53,2.2-1.45,1.01-2.62,3-4.25,5.33-5.58.27-.16.53-.47.87-.22.35.24.16.59.05.9-.26.81-.72,1.52-1.22,2.21-.41.58-.82,1.15-1.01,1.85-.34,1.35.17,1.91,1.53,1.73,2.73-.38,5.24-1.03,7.17-3.38,1.27-1.55,3.46-1.65,5.35-1.86,2.9-.32,5.81-.35,8.71.08,1.32.19,2.53.87,3.96.7.74-.09,1.3.7,1.78,1.25.8.92,1.78,1.54,2.91,1.92,1.57.52,2.89,1.4,3.89,2.69,2.19,2.8,5.28,4.13,8.43,5.43.86.36,1.31.04,1.69-.69.53-1.06.88-2.17,1.21-3.3.14-.48.01-1.4.71-1.32.76.09.52.98.54,1.55.1,2.03-.36,4.01-.71,6-.17,1.03-.34,2.11.2,3.04.94,1.63.69,3.25.2,4.89-.39,1.3-.8,2.61-1.28,3.88-.33.85-.1,1.35.61,1.9,2.51,1.9,5.23,3.6,7.12,6.16,1.79,2.45,3.34,5.07,5.25,7.47,1.23,1.55,1.5,3.64,1.37,5.65-.06.84.18,1.34.89,1.7,1.59.78,2.55,1.99,2.82,3.78.14,1.02.87,1.77,1.67,2.38,1.79,1.37,3.05,3.18,4.21,5.07.83,1.37,1.78,2.65,2.89,3.82.93.99,1.9,1.14,2.99.38.89-.62,1.96-.55,2.9-.85,1.89-.61,3.92-.5,5.75-1.34.28-.13.65-.31.91-.24,1.18.27,2.23.22,3.13-.7.2-.21.53-.13.79-.02.71.31,1.36.31,1.93-.3.09-.1.25-.22.36-.21,2.74.36,5.06-1.67,7.78-1.39.45.04,1.01-.01,1.37-.24,1.71-1.11,3.59-1.52,5.59-1.6.99-.04,1.98-.21,2.63-1.12.09-.13.35-.26.5-.24,2.27.39,4.28-.84,6.14-1.6,1.92-.78,4.31-.18,5.83-2,.27-.32.79-.25,1.21-.25,1.37,0,2.5-.55,3.76-1.02,1.53-.59,3.09-1.46,4.74-1.7,1.21-.18,2.28-.23,3.05-1.34.39-.56,1.09-.48,1.7-.3.79.23,1.49.11,2.07-.5.38-.41.86-.53,1.4-.51.44.02.89,0,1.13-.43.4-.7,1-.77,1.7-.67.58.08,1.1-.03,1.56-.47.23-.21.59-.51.82-.46,1.74.38,2.72-1.17,4.16-1.55.24-.07.48-.37.76-.26,1.4.59,2.34-.2,3.22-1.08.67-.66,1.43-.86,2.33-.61.22.06.61.19.67.1,1.2-1.67,3.39-1.03,4.85-2.1.29-.22.63-.57.95-.56,1.45.03,2.78-.13,3.79-1.35.12-.15.53-.07.81-.06.23,0,.57.21.67.12,1.26-1.19,3.26-.79,4.45-2.03.66-.69,1.25-1.1,2.2-.62.63.32,1.09-.05,1.47-.5.63-.73,1.3-1.16,2.33-.78.62.22,1.19,0,1.61-.58.18-.26.55-.69.69-.64,1.97.7,3.24-1.47,5.11-1.22.72.09,1.34-.36,1.96-.69.8-.43,1.62-.73,2.56-.52.93.2,1.64-.32,2.27-.9.72-.65,1.48-.89,2.46-.55.96.33,1.93.35,2.8-.39.27-.24.68-.45,1.05-.3,1.39.53,2.46-.2,3.53-.88.81-.52,1.64-.85,2.63-.86,1.09,0,1.96-.66,2.82-1.22,1.73-1.11,3.63-1.49,5.62-1.63.23-.01.48,0,.7-.04,1.15-.25,2.54-.36,2.93-1.62.39-1.25-.52-2.31-1.29-3.27-.24-.3-.55-.59-.97-.37-1.05.56-1.39-.05-1.7-.9-.29-.81-.81-1.48-1.44-2.06-1.25-1.14-2.23-1.19-3.45-.02-.78.75-1.01.59-1.17-.39-.18-1.07-.56-2.08-1.17-3-1.24-1.9-2.9-2-4.4-.3-.26.29-.4.92-.89.74-.46-.17-.27-.76-.23-1.14.21-1.79-.6-3.1-1.91-4.15-1.19-.95-2.28-.73-3.07.56-.14.24-.26.5-.4.75-.16.3-.37.58-.76.45-.35-.1-.36-.41-.37-.69-.01-.47.01-.94,0-1.41,0-.3-1.98-4.05-2.22-4.22-1.4-.99-2.39-.92-3.41.24-.18.21-.36.52-.67.33-.27-.15-.25-.51-.19-.77.4-1.86-.69-3.02-1.9-4.12-1.28-1.16-1.87-1.15-3.14-.01-.44.39-.84,1.14-1.48.77-.48-.28-.25-1.04-.17-1.58.29-2.12-1.74-4.9-3.96-5.31-.6-.11-.81-.55-1.1-.99-.91-1.39-1.33-1.46-2.72-.51-.33.23-.62.73-1.08.5-.43-.23-.23-.76-.23-1.16.01-.85-.02-1.71-.37-2.5-.2-.47-.42-1.1-.79-1.29-1.42-.69-2.75-1.4-3.65-2.8-.28-.45-.98-.18-1.4.15-.44.33-.83.71-1.25,1.07-.38-.32-.06-.54.04-.76.57-1.28.47-2.45-.46-3.54-.61-.72-1.13-1.5-1.69-2.26-.43-.58-.89-1.08-1.69-1.15-.25-.03-.56-.18-.72-.38-1.15-1.46-1.14-1.46-2.7-.43-.08.04-.18.03-.43.08,1.29-2.78-1.48-4.15-2.07-6.3-.17-.6-.95-.51-1.51-.36-.72.19-1.15.02-.95-.81.39-1.59-.37-2.72-1.43-3.74-1.16-1.13-2.46-2.04-2.84-3.88-.17-.86-1.1-1.89-2.43-1.73-.61.07-.68-.32-.75-.77-.1-.65-.19-1.3-.41-1.92-.17-.53-.39-1.33-.77-1.45-2.91-.96-2.76-4.41-4.95-5.94-.64-.45-1.04-1.22-1.87-1.44-.33-.09-.6-.31-.68-.66-.4-1.81-1.8-2.86-3.15-3.82-3.08-2.18-6.46-3.85-10.15-4.77-1.38-.35-2.82-.68-4.06.63-.56.6-1.16.29-1.46-.55-.94-2.62-1.27-2.82-4.09-2.84-.61,0-1.23.02-1.83-.03-1.48-.12-2.77-.62-3.47-2.05-.89-1.87-2.51-2.4-4.4-2.43-1.7-.03-3.39.04-5.07-.3-1.28-.27-2.34-.84-2.67-2.18-.29-1.17-1.06-1.33-2.02-1.14-1.2.22-2.36.07-3.46-.35-1.22-.46-1.29-1.11-.38-2.04.44-.45,1.18-.84.87-1.61-.31-.76-1.12-.65-1.74-.61-3.81.3-6.93-1.45-9.98-3.33-1.48-.91-1.97-3.73-1.04-5.19.34-.54.81-.38,1.25-.25,2.32.66,4.32,1.82,5.87,3.69.45.54.86,1.12,1.48,1.49.45.26.97.58,1.44.21.45-.33.23-.85.12-1.31-.59-2.32-1.44-4.62-2.64-6.59-3.38-5.6-7.23-10.9-12.56-14.89-1.64-1.22-3.53-1.98-5.24-3.04-.44-.28-.88-.17-1.33.04-1.16.54-2.28,1.13-3.18,2.05-.18.19-.39.51-.68.38-.41-.17-.21-.56-.19-.87.06-.88.49-1.61,1.02-2.28,2.23-2.81,4.97-4.97,8.21-6.51.51-.24,1.05-.43,1.6-.57,2.36-.58,3.34.16,3.17,2.57-.13,1.76.29,3.25,1.11,4.82,2.15,4.15,5.06,7.79,7.59,11.69.33.51.76,1.03.86,1.6.31,1.99,1.52,3,3.38,3.47,1.15.29,1.77,1.1,2.07,2.26.64,2.36,1.97,4.36,3.17,6.48,1.1,1.96,2.59,3.15,4.07,4.59.91.89,1.73,1.57,3.05,1.75,1.04.13,1.7,1.13,2.52,1.74,1.7,1.26,1.86,1.26,3.3-.22.67-.69,1.62-.64,2.49-.76,3.04-.42,5.87.3,8.65,1.42,11.84,4.78,21.65,12.18,29.16,22.57,2.2,3.05,4.56,5.95,7.38,8.5,1.62,1.47,2.8,3.39,4.26,5.06,4.95,5.63,10.44,10.7,15.97,15.74.45.41.82.89,1.19,1.37.44.57.84,1.1,1.64,1.24.88.16,1.39.93,1.94,1.55,1.02,1.15,2.15,2.09,3.54,2.75,1.74.84,2.93,2.34,4.35,3.56.82.71,1.64,1.41,2.76,1.61.22.04.52.12.63.28,1.44,2.01,4.09,2.38,5.69,4.18,1.11,1.26,3.06,1.09,4.22,2.41.74.85,1.6,1.76,2.94,1.72.16,0,.36.14.49.27,2.83,2.75,6.5,4.29,9.56,6.71,4.83,3.84,8.25,8.56,9.45,14.73.32,1.61-.02,3.2-.24,4.76-.25,1.83-.12,3.54.52,5.26.4,1.06.75,2.12.78,3.28.06,2.05-.4,2.78-2.38,3.17-2.4.46-4.82.78-7.23,1.16-.09.01-.2-.02-.28.02-3.76,1.63-7.94,2.17-11.47,4.4-.12.07-.23.21-.36.22-2.53.18-4.41,2.24-6.94,2.39-.64.04-1.21.27-1.7.64-1.71,1.27-3.67,1.85-5.71,2.29-1.47.31-2.89.8-4.11,1.77-.95.76-2.09,1.03-3.3.98-1.09-.05-2.02.22-2.76,1.1-.72.85-1.8.73-2.75.83-1.07.11-2.02.31-2.68,1.27-.58.82-1.56.83-2.41,1-1.85.37-3.66.44-5.48,1.41-1.23.66-2.67,1.98-4.46,1.45-.08-.02-.22,0-.27.05-1.37,1.67-3.59,1.2-5.21,2.05-1.2.62-2.6.73-3.66,1.72-.5.47-1.38.53-2.1.73-1.5.44-3.18.44-4.39,1.7-.14.15-.44.23-.65.21-1.1-.13-1.92.71-2.81.88-3.18.63-5.62,3.04-8.87,3.42-1.5.18-2.89.79-4.16,1.65-.65.45-1.34.92-2.22.61-.09-.03-.23-.04-.27,0-1.18,1.41-3.22.75-4.51,1.91-.68.62-1.53.9-2.44,1.02-.93.11-1.89.12-2.55.96-.05.06-.16.14-.24.13-2.67-.46-4.37,2.74-7.14,1.9-1.42,1.62-3.98.51-5.39,2.22-.13.16-.46.34-.6.28-1.43-.65-2.39.17-3.4.98-.34.27-.87.31-1.33.4-.31.06-.71-.07-.98.07-1.78.94-3.68,1.37-5.67,1.67-1.14.18-1.25,1.37-.4,2.46,3.3,4.22,6.96,8.15,10.37,12.28,5.16,6.28,10.24,12.63,15.36,18.96,1.39,1.73,3.07,3.19,4.71,4.66,2.58,2.31,4.56,4.99,5.48,8.38.22.82.57,1.61,1.09,2.28,4.51,5.81,7.79,12.42,11.82,18.53,8.22,12.44,15.9,25.23,24.36,37.49,2.4,3.47,4.67,7.07,7.72,10.05.47.46.88,1.02.99,1.68.34,2.09,1.43,3.77,2.55,5.53,1.67,2.66,2.95,5.56,4.34,8.39,2.85,5.78,5.65,11.57,8.48,17.36.12.25.24.51.4.75,4.89,7.11,8.49,14.96,12.85,22.37,1.95,3.32,4.1,6.53,6.17,9.77.42.65.81,1.3.73,2.09-.17,1.51.33,2.84.88,4.21,1.26,3.09,1.34,6.42,1.68,9.67,1.19,11.53,1.99,23.1,4.14,34.51.45,2.35.79,4.75.79,7.13.01,3.81.99,7.43,1.69,11.12.26,1.38.5,2.77.45,4.19-.02.37-.01.76-.09,1.12-1.36,5.29-2.45,10.64-4.52,15.73-3.89,9.56-6.52,19.5-8.79,29.55-.26,1.19-.59,2.38-1.03,3.51-1.54,3.95-2.6,8.03-3.33,12.21-.35,1.96-.92,3.88-2.06,5.51-4.24,6.07-7.13,12.94-11.21,19.07-4.72,7.08-7.55,15.16-12.34,22.12-2.55,3.72-4.32,7.79-6.39,11.71-.71,1.35-2.02,2.07-2.84,3.27-1.15,1.67-2.27,3.35-3.37,5.05-1.28,1.98-2.77,3.75-4.47,5.42-2.59,2.55-4.48,5.67-6.57,8.63-3.86,5.5-7.45,11.2-11.76,16.37-1.48,1.8-1.76,4.24-3.4,5.96-1.55,1.6-2.81,3.41-3.82,5.4-.81,1.59-2.27,2.49-3.79,3.25-2.36,1.19-4.6,2.53-6.78,4.03-2.26,1.57-4.97,2.17-7.37,3.5-8.93,4.94-17.55,10.41-26.21,15.78-2.32,1.43-4.75,2.7-6.9,4.38-.96.74-2.09,1.04-3.23,1.3h-7.9c-2.81-.25-5.6-.48-8.4-.77-5.04-.54-10.07-1.12-15.1-1.69-.17-.02-.35-.08-.5-.23,2.28-.42,4.53.04,6.77.17,3.94.23,7.86.7,11.79,1.01,3.08.24,6.18.4,9.27.57,2.08.12,3.9-.26,5.82-1.41,3.47-2.08,6.98-4.09,10.46-6.15,3.68-2.19,7.39-4.33,10.94-6.71,4.91-3.27,10.25-5.72,15.37-8.62,2.07-1.18,4.07-2.52,6.08-3.83,1.27-.82,2.57-1.57,4.02-2,1.25-.38,2.17-1.09,2.57-2.38.24-.74.72-1.32,1.31-1.81,1.43-1.2,2.49-2.67,3.28-4.35,1.86-3.93,5.23-6.86,7.19-10.74,2.08-4.17,5.47-7.4,8.24-11.06,1.56-2.04,2.24-4.56,3.99-6.44,2.54-2.71,4.58-5.84,7.27-8.44.55-.53.96-1.17,1.2-1.89.4-1.1,1.02-2,2-2.65.44-.29.86-.66.85-1.23-.04-1.88,1.1-3.15,2.26-4.39.61-.66,1.22-1.33,1.52-2.18,1.5-4.15,3.89-7.83,6.25-11.5,4.5-7.01,8.05-14.56,12.04-21.86,1.02-1.86,2.09-3.67,3.46-5.31.4-.47.75-.99.97-1.55.96-2.54,2.34-4.8,4.23-6.76.68-.71.98-1.59.89-2.59-.09-1.05.02-2.09.51-3.02,2.44-4.58,3.37-9.65,4.83-14.55,2-6.75,3.23-13.73,5.6-20.37,1.7-4.74,3.46-9.44,4.51-14.37.5-2.35,1.62-4.51,2.52-6.72.51-1.26.74-2.52.62-3.86-.45-5.14-.33-10.32-1.08-15.44-.76-5.25-1.39-10.51-2.07-15.78-.74-5.77-1.45-11.54-2.2-17.31-.15-1.16-.44-2.31-.53-3.48-.41-5-.8-9.99-1.97-14.89-.12-.49-.09-1.03-.03-1.54.16-1.43-.21-2.58-1.52-3.36-.58-.35-.9-.97-1.09-1.61-1.73-6.34-5.6-11.54-8.91-17.06-4.45-7.42-8.58-15.01-12.16-22.89-.23-.52-.44-1.06-.77-1.5-3.16-4.11-4.9-8.97-7.23-13.53-1.29-2.55-2.39-5.22-5.02-6.81-.67-.41-1.12-1.17-1.39-1.92-1.76-4.84-4.8-8.94-7.72-13.07-6.57-9.25-12.11-19.16-18.45-28.54-2.31-3.4-4.46-6.92-6.77-10.32-2.12-3.12-3.98-6.44-6.23-9.51-1.88-2.58-3.88-5.08-5.1-8.08-.43-1.04-1.37-1.51-2.31-1.96-1.08-.51-2.2-1.03-2.68-2.18-2.77-6.49-7.74-11.37-12.07-16.74-2.15-2.67-4.58-5.14-6.57-7.93-4.44-6.22-9.93-11.57-14.44-17.72-1.47-2-2.64-2.14-4.68-.73-.76.53-1.49.98-2.46.62-.13-.04-.35-.09-.42-.02-1.52,1.54-3.8.84-5.49,1.85-.64.38-1.06.09-1.52-.24-3.64-2.58-7.52-1.54-11.38-.72-.34.07-.69.34-.92.61-3,3.38-6.97,5.56-10.33,8.51-.17.15-.37.3-.53.46-3.77,3.51-2.97,3.32-1.53,6.68.62,1.47.53,2.94.32,4.43-.12.85-.19,1.69-.11,2.53.15,1.41,1.01,2.34,2.43,2.48,4.27.42,8.54.23,12.8-.09.7-.05,1.08-.52,1.4-1.05.24-.39.54-.67,1.04-.52.5.15.66.57.6,1-.21,1.64.55,2.65,1.97,3.35.83.41.96,1.22.87,2.07-.08.79.05,1.49.77,1.98.74.52.8,1.22.42,1.99-.39.77-.33,1.52.03,2.3.73,1.61.49,3.32.37,5-.03.52-.15,1.03,0,1.54,1.28,4.01.46,8.01,0,12.01-.29,2.66-.61,5.31-1.03,7.95-.27,1.76.9,2.56,1.98,3.44,3.44,2.78,6.99,5.42,10.18,8.48,10.86,10.44,23.13,19.06,35.37,27.74,1.91,1.35,3.63,2.98,5.4,4.53,4.23,3.71,9.31,5.99,14.22,8.55.59.3,1.16.62,1.75.93,1.1.58,1.52,1.42,1.22,2.68-.37,1.5-.13,2.76,1.07,3.97,1.58,1.59,2.28,3.76,3.05,5.83,1.77,4.76,3.14,9.65,4.39,14.57,1.73,6.84,3.68,13.61,6.01,20.26,3.47,9.91,6.36,19.95,7.93,30.36.47,3.13,1.47,6.1,3,8.9.72,1.32,1.33,2.7,1.95,4.07.41.9.79,1.89.58,2.86-.46,2.06.03,3.9.9,5.72,1.25,2.59,1.07,5.3.53,8.01-.26,1.27-1.07,1.96-2.37,2.01-.94.04-1.17.43-.97,1.37.77,3.51.92,7.18,2.64,10.47.22.42.33.94.16,1.37-.68,1.91.02,3.6.72,5.31.49,1.18.95,2.33.55,3.68-.2.68.19,1.37.45,2.03,1.03,2.69,2.16,5.32,3.83,7.68,1.38,1.95,1.89,4.05,1.36,6.41-.19.83-.09,1.67.19,2.5,1.35,4.08,2.13,8.28,2.4,12.56.11,1.77-.16,3.55-.65,5.29-.29,1.04-.91,1.34-1.89,1.11-.97-.23-1.99-.38-2.6-1.26-.56-.81-1.28-1-2.2-.94-2.38.16-4.58-.62-6.82-1.42,1.17-.25,2.34-.48,3.51-.74,2.06-.47,3.41-1.7,3.89-3.8.93-4,1.46-8.04.75-12.14-.18-1.06-.42-2.14-1.56-2.69-.41-.2-.53-.64-.62-1.07-.27-1.38-1.28-2.38-1.86-3.61-.15-.32-.42-.53-.8-.38-.36.13-.52.38-.45.77.13.77-.06,1.5-.37,2.19-.73,1.6-2.33,1.78-3.31.33-.87-1.28-1.3-2.73-1.07-4.28.21-1.48.39-2.99,1.04-4.37.34-.72.18-1.23-.56-1.4-1.02-.25-1.14-.92-1.15-1.8-.01-1.63.18-3.18,1.08-4.6.3-.49.55-1.1.13-1.59-1.75-2.05-1.04-4.37-.73-6.62.38-2.8.64-5.59.12-8.41-.2-1.14-.46-2.17-1.63-2.78-.89-.46-.84-1.45-.82-2.26.04-2.16.2-4.31.33-6.47.01-.18.14-.41.07-.55-.96-2.07-.02-4.47-1.16-6.51-.34-.6-.22-1.29-.17-1.94.19-2.34-.16-4.59-1.02-6.77-.34-.89-.48-1.81-.43-2.76.04-.62.02-1.32-.42-1.74-1.02-1.02-1.01-2.25-.98-3.54.07-2.88-.68-5.53-2.11-8.04-.85-1.48-.88-3.25-1.18-4.91-.31-1.72-.8-3.37-1.41-5.01-.75-2.01-1.56-3.97-1.96-6.14-.3-1.67-1.24-3.29-1.81-4.98-2.19-6.46-3.7-13.1-5.32-19.71-.13-.55-.34-1.08-.5-1.62-1.04-3.65-2.53-7.16-2.9-11-.2-2.19-1.38-2.75-3.32-1.8-.81.39-1.31.28-1.8-.4-.79-1.13-1.73-1.76-3.24-2.06-2.42-.48-4.9-1.41-6.64-3.25-4.6-4.89-10.59-7.93-15.75-12.05-10.84-8.65-22.81-15.8-33.29-24.92-1.31-1.14-2.77-2.1-4.15-3.18-.93-.74-1.39-.44-1.66.61-.27,1.1-.55,2.19-.53,3.33.15,8.9-.91,17.73-1.5,26.58-.36,5.36-.41,10.7-.57,16.05-.19,5.93-.03,11.85-.24,17.77-.27,7.36-.71,14.73-1.12,22.09-.05.93-.29,1.86-.46,2.78-.19,1.12.02,2.11,1.06,2.69,3.16,1.75,5.48,4.42,7.78,7.08,3.46,3.99,7.28,7.62,11.01,11.34,2.49,2.49,4.73,5.26,7.28,7.66,6.13,5.77,10.8,12.77,16.59,18.81,2.01,2.1,4.3,3.94,6.43,5.92,1.23,1.15,2.47,2.32,3.61,3.57,1.22,1.35,1.21,1.97-.18,3.2-1.06.95-1.5,2-.83,3.23,1.82,3.4,1.17,6.92.38,10.32-4.95,21.08-9.11,42.32-13.54,63.51-1.51,7.26-2.45,14.62-3.26,21.99-.62,5.64-1.32,11.28-1.99,16.92-.14,1.22-.76,1.71-2.02,1.48-3.02-.53-3.01-.5-4.3,2.26-.38.8-.83,1.58-1.29,2.34-1.21,2.02-2.31,4.09-2.71,6.46-.15.8-.39,1.62-1.09,2.07-1.57.99-2.12,2.57-2.68,4.17-.63,1.8-1.02,3.72-2.82,4.9-.59.38-.67,1.22-.81,1.91-.59,2.75-1.14,5.52-1.7,8.28-.21,1.07-.56,2.09-1.14,3.02-.76,1.2-1.77,1.33-2.82.4-.39-.35-.71-.76-1.1-1.11-.89-.84-1.82-.72-2.13.48-.47,1.8-1.56,3.19-2.6,4.63-1.09,1.49-1.85,3.16-2.56,4.85-.79,1.86-1.54,3.74-2.54,5.5-.55.96-.54,1.75.77,1.96,1.03.16.88.73.55,1.41-.24.48-.59.84-1.09,1.05-1.82.75-5.12-.15-6.26-1.77-1.4-2.01-3.64-3.1-5.34-4.79-.75-.74-1.44-1.47-1.3-2.65.08-.72.37-.77.91-.4,2.89,1.92,4.1,1.9,6.59-.55,2.82-2.77,5.68-5.53,8.17-8.57,2.15-2.64,3.82-5.68,6.23-8.13.36-.36.58-.87.73-1.36.16-.49.88-1.07,0-1.55-.77-.42-1.2.02-1.6.64-.55.86-1.08,1.76-1.85,2.47-.93.86-1.96,1-3.13.51-.77-.33-.98-.75-.56-1.52.92-1.69,2.24-3.02,3.72-4.2.95-.76,1.94-1.48,2.92-2.21,1.08-.8,2.05-1.58,1.96-3.17-.04-.82.68-1.41,1.31-1.93.87-.71,1.77-1.4,2.62-2.13.63-.54,1.36-1.03,1.13-2.09-.09-.44.35-.74.65-1.03,2.87-2.7,5.05-5.92,7.08-9.26.72-1.18,1.03-2.38.51-3.76-.35-.91-.22-1.88.38-2.69,1.05-1.4,1.45-3.03,1.76-4.7.17-1.01.29-2.06,1.15-2.81.03-.03.08-.08.07-.12-.26-2.09,1.51-3.69,1.37-5.75-.03-.56-.15-1.23.09-1.67,1.89-3.38,1.23-7.36,2.61-10.86,1.35-3.41,1.37-7.08,1.72-10.67.13-1.36.39-2.69.66-4.03.6-2.99,1.57-5.94,1.82-8.96.47-5.75,2.36-11.25,2.65-17.01.01-.19.02-.38.07-.56,2.48-8.53,3.1-17.45,5.59-25.98.73-2.53,1.96-4.88,2.53-7.47.68-3.12.31-3.7-2.82-4.05-.49-.05-.6-.41-.78-.71-.53-.85-1.11-1.68-1.98-2.17-4.01-2.23-7.07-5.56-10.2-8.82-3.73-3.91-7.83-7.46-11.41-11.52-5.36-6.05-10.76-12.07-16.17-18.08-1.26-1.39-2.6-2.71-3.93-4.04-1.05-1.04-1.83-.86-2.41.56-.75,1.85-1.01,3.83-1.13,5.79-.31,4.83-1.58,9.43-2.89,14.04-1.42,4.98-1.86,10.16-3,15.2-1.34,5.96-3.65,11.65-5.22,17.55-1.83,6.9-3.78,13.77-5.88,20.6-.88,2.88-1.87,5.72-3.15,8.45-3.09,6.55-5.91,13.22-8.58,19.94-.74,1.85-1.7,3.57-2.8,5.21-1.5,2.23-2.84,4.54-4,6.96-1.76,3.62-4.78,6.25-7.35,9.24-1.32,1.53-2.72,3-3.96,4.6-1.81,2.33-4.03,4.19-6.34,5.97-1.97,1.53-3.88,3.13-5.42,5.12-.53.67-.92.66-1.07-.19-.56-3.29-3.1-4.38-5.83-5.21-2.65-.8-5.44-1.06-8.18-1.33-2.54-.25-4.99-.84-7.48-1.34-2.33-.48-4.67-.07-6.99-.03-1.75.02-2.98,1.24-4.37,2.45.42-1.73-.29-2.85-1.52-3.8-.5-.39-.94-.6-1.52-.37-.96.38-1.68.04-2.21-.72-.46-.64-.88-.7-1.51-.24-.78.57-1.49.46-2.01-.43-.04-.08-.08-.2-.15-.23-1.38-.59-2.89.18-4.36-.44-.57-.24-.88,1.03-1.1,1.74-.17.58-.16,1.21-.53,1.78-.13-.07-.3-.1-.35-.19-1.52-3.35-4.25-4.9-7.79-5.18-4.96-.39-9.87-1.37-14.86-1.35-1.4,0-2.83-.03-4.2.35-1.62.45-3.09,1.12-4.08,2.58-.24.36-.63,1.01-.93.12-1.48-4.36-4.7-7.68-6.86-11.63-5.56-10.12-9.15-20.89-11.18-32.22-1.19-6.62-1.57-13.31-2.12-20-.59-6.99-.84-13.96-1.04-20.95-.24-8.82-.57-17.64-.15-26.45.43-9.05,1.04-18.09,1.87-27.12.14-1.59.29-3.19.3-4.78.02-2-.92-2.5-2.6-1.45-4.65,2.92-9.5,5.6-13.88,8.89-2.59,1.95-5.61,3.11-8.08,5.15-1.77,1.46-3.88,2.45-5.68,3.75-2.48,1.81-5.73,2.37-7.72,4.89-.38.47-.99.7-1.65.68-.26,0-.65,0-.8.17-1.61,1.72-3.97,2.25-5.75,3.67-1.11.88-2.39,1.3-3.65,1.81-1.43.58-2.94,1.01-4.2,1.95-.27.21-.6.38-.91.27-1.31-.44-2.24.69-3.42.81-.78.08-.92.97-.99,1.7-.12,1.61.05,3.19.38,4.76.99,4.96.96,9.98.87,15.01-.01.89.14,1.78.12,2.66-.12,9.26-.45,18.51-1.06,27.74-.39,5.9-.59,11.82-.97,17.73-.37,5.77-.68,11.54-.74,17.31-.05,4.48.4,8.91,1.48,13.27.34,1.39.18,2.81.15,4.21-.02.58-.16,1.24-.67,1.49-2.35,1.18-2.41,3.46-2.64,5.56-.4,3.64-.7,7.3-.62,10.97.01.42.13.96-.19,1.22-1.43,1.1-.78,2.45-.55,3.75.17.92.47,1.82.47,2.77,0,.89-.13,1.69-1.05,2.13-.54.26-.63.75-.64,1.3-.03,1.65-.07,3.28.61,4.85.52,1.2.61,2.45.11,3.71-.54,1.37-1.23,1.64-2.5.93-2.56-1.41-2.84-1.32-3.31,1.56-.63,3.83-.29,7.69-.16,11.54.04,1.08.25,2.17.12,3.23-.25,2.08.6,3.53,2.22,4.69.4.29.91.49,1.16,1.23-1.09-.26-2.06-.5-3.04-.72-3.27-.74-6.6-.95-9.94-.93-.45,0-1.06.17-1.24-.37-.15-.43.38-.7.65-1.01,1.43-1.62,2.14-3.65,2.94-5.58,1.29-3.22,2.34-6.55,3.47-9.84.89-2.6.21-3.47-2.59-3.4-1.81.04-2.22-.68-1.48-2.41,1.33-3.14,3.28-5.89,5.26-8.63.97-1.34,1.31-2.91,1.79-4.5.98-3.22,1.66-6.5,2.52-9.73.65-2.42,1.83-4.69,1.91-7.29,0-.49.35-.96.53-1.44.48-1.25.12-1.96-1.16-2.37-2.08-.65-2.34-1.02-2.3-3.21.08-4.11,1.34-8.05,1.82-12.1.28-2.42.58-4.85.71-7.28.35-6.38.63-12.76.9-19.14.13-2.97-.2-5.91-.46-8.86-.04-.41-.12-.91.05-1.24.91-1.72.71-3.57.71-5.39.01-7.34-.3-14.68.05-22,.4-8.42,0-16.83.22-25.23.11-3.9.78-7.7,3.8-10.6.71-.67.72-1.14-.27-1.66-1.5-.79-1.48-1.35-.14-2.45,3.38-2.75,7.34-4.56,11.15-6.61,2.15-1.17,4.21-2.47,6.12-4,6.18-4.96,13.12-8.78,19.76-13.05,3.16-2.03,6.38-3.97,9.59-5.94,1.04-.64,1.87-1.82,2.87-2.19,2.33-.86,4-2.65,6.2-3.68,2.89-1.34,5.67-2.94,8.33-4.73,1.32-.89,1.89-1.99,2.03-3.61.36-3.79,1.08-7.55,2.15-11.19,2.55-8.57,4.45-17.28,6.51-25.96,2.76-11.6,5.21-23.28,7.62-34.96.62-2.99,1.9-5.81,2.39-8.83.05-.33.13-.65.13-.97,0-1.48-.53-1.85-1.9-1.32-4.09,1.55-7.94,3.64-11.93,5.42-9.83,4.39-19.9,8.2-29.8,12.41-3.41,1.45-6.93,2.75-10.16,4.55-2.38,1.34-5.1,2.12-7.22,3.72-2.61,1.96-5.41,2.33-8.42,2.56-1.48.11-2.83.83-4.46.26-1.48-.52-2.68.51-3.48,1.81-.47.77-.85,1.61-.96,2.49-.47,4.06-2.36,7.69-3.4,11.56-3.55,13.14-8.89,25.65-13.25,38.51-2.83,8.34-4.97,16.85-6.02,25.6-.35,2.89-.48,5.81-.35,8.73.05.96-.17,1.65-1.07,2.24-1.2.79-1.83,2.11-2.4,3.42-1.47,3.44-2.04,7.12-2.74,10.76-.15.78-.18,1.45-1.32,1.33-.88-.1-.99.66-.99,1.38.01,2.07-.18,4.12-.51,6.17-.13.74-.28,1.13-1.18.65-1.35-.72-2.14-.24-2.21,1.34-.08,2.07-.25,4.13-.87,6.11-.36,1.12-.7,2.3-2.23,2.37-.44.02-.6.42-.72.78-.43,1.15-1.09.83-1.7.22-.89-.87-.84-2.79.03-3.66,1.04-1.04,1.82-2.27,2.51-3.56.3-.56.46-1.23-.12-1.68-.61-.47-1.13.01-1.61.41-.15.12-.29.25-.4.4-1.63,2.44-4.14,4.01-6.07,6.12-3.79,4.13-6.26,9-7.21,14.58-.02.14.01.29-.03.42-1.05,2.74.23,4.4,2.55,5.65.67.36,1.4.73,1.96,1.52-1.35.32-2.51-.05-3.65-.4-1.35-.41-2.57-1.13-3.8-1.83-1.27-.73-2.59-1.3-4.04-1.58-1.86-.34-1.92-.54-1.16-2.33,1.1-2.58,2.74-4.8,4.44-7,.97-1.26,2.01-2.46,2.52-4.04.33-1.01,1.22-1.65,2.01-2.32,1.2-1,2.04-2.21,2.24-3.79.27-2.25,1.65-3.62,3.45-4.87,2.96-2.05,5.36-4.78,8.12-7.09.32-.26.53-.66.72-1.04,2.27-4.39,4.52-8.79,6.79-13.19.43-.83.92-1.63,1.41-2.43,1-1.67.69-3.01-1.06-3.83-1.09-.51-1.43-1.28-1.39-2.34.08-2.52-.04-5.08,1.37-7.37.44-.71.28-1.57.21-2.35-.17-1.9.46-3.47,1.56-4.98,2.61-3.55,4.19-7.51,4.45-11.96.03-.6.08-1.3.41-1.77,1.54-2.27,1.79-4.88,2.22-7.48.6-3.73,1.96-7.25,3.34-10.75,3.15-8,6.22-16.03,9-24.17.57-1.69.82-3.5,1.5-5.13,2-4.73,3.21-9.78,5.87-14.23.76-1.26,1.53-2.5,2.88-3.23,1.2-.66,1.63-1.65,1.32-2.95-.35-1.41.15-2.16,1.6-2.53,2.14-.54,4.23-1.28,6.35-1.88,3.35-.96,6.64-2.11,9.71-3.77,7.01-3.79,14.57-6.29,21.87-9.42,11.28-4.85,22.35-10.12,33.11-16.02.62-.34,1.26-.64,1.9-.93,2.01-.87,3.81-1.86,5.5-3.45,1.66-1.58,1.98-3.12,1.99-5.06,0-.19.01-.38.01-.57-.19-4.68.5-9.27,1.35-13.85.16-.89.42-1.73.83-2.53.21-.42.55-.87.52-1.29-.13-2.13,1.04-3.82,1.68-5.7.62-1.83.64-3.87,2.01-5.43-.21-3.16,2.1-4.96,3.81-7.1.2-.25.47-.58.73-.63,2.17-.36,2.46-2,2.65-3.74,0-.08.1-.14.18-.24.11.08.29.13.31.22.59,2.75,2.67,3.37,5.06,3.59,2.01.18,3.98.44,5.62,1.89.86.77,2.11.73,3.21.91,1.43.23,2.89.39,4.32.58,1.13.15,1.82-.4,2.16-1.38.33-.93.51-1.9.8-2.84.38-1.13-.25-1.47-1.18-1.52-.79-.05-1.61-.08-2.4.02-1.06.14-1.38-.33-1.57-1.28-.33-1.71-.67-3.42-1.36-5.02-.81-1.86-1.52-2.06-3.18-.89-.69.49-1.19.39-1.36-.41-.42-2.05-2.15-2.65-3.71-3.41-.42-.21-.83-.28-1.09-.75-2.04-3.74-5.58-5.37-9.79-4.46-1.86.41-3.69.96-5.68,1.48.15-.79.73-.97,1.16-1.26,2.92-1.99,6.08-3.57,9.12-5.35.43-.25,1.22-.3.96-1.14-.2-.67-.79-.65-1.37-.72-1.89-.23-3.65-.54-5.31-1.87-.96-.77-1.99-1.99-3.51-2.03-.09,0-.22-.04-.25-.11-1.17-2.46-4.41-2.49-5.68-4.85-.25-.47-.73-1.07-1.19-1.15-2.17-.4-3.1-2.18-4.33-3.64-.59-.7-1.21-1.01-2.07-.55-.16.08-.36.14-.54.15-1.73.13-3.26.52-4,2.38-.22.55-.96.75-1.52.95-.97.36-1.74.9-2.21,1.85-.52,1.05-1.5,1.23-2.52,1.21-1.11-.03-1.82.36-2.35,1.4-.5.98-1.53,1.53-2.58,1.65-.76.08-1.1.4-1.37.97-.86,1.8-2.08,3.11-4.26,3.12-.05,0-.11,0-.13.03-1.16,1.71-3.51,1.67-4.76,3.23-.54.68-1.26,1.03-2,1.45-1.47.84-2.62,2.27-4.44,2.54-.81,2.1-2.88,2.37-4.59,3.15-.5.23-1.05.51-1.4.91-1.74,1.99-3.96,3.3-6.19,4.63-3.08,1.84-5.98,3.9-8.28,6.7-.83,1.01-1.77,1.95-2.85,2.73-.69.51-1.4.91-2.34.65-.81-.23-1.5.15-1.97.8-3.93,5.5-9.34,9.69-13.53,14.93-4.34,5.43-9.54,10.03-13.95,15.39-4.39,5.33-9.12,10.38-13.74,15.52-2.79,3.11-5.98,5.85-8.69,9.05-.36.43-.8.82-1.06,1.31-1.42,2.74-3.35,4.96-6.09,6.45-.62.33-1.07.94-1.22,1.67-.28,1.48-1.06,2.7-1.97,3.85-1.82,2.28-2.45,5.15-3.91,7.63-5.56,9.38-10.95,18.87-16.43,28.29-1.02,1.74-2.18,3.4-3.31,5.08-1.97,2.94-3.68,6-4.78,9.39-.57,1.77-1.37,3.4-3.02,4.46-.82.53-1.11,1.44-1.18,2.32-.42,4.58-1.96,8.89-3.05,13.31-2.9,11.91-6.45,23.65-9.33,35.57-1.07,4.45-1.78,8.92-2.09,13.47-.04.6-.13,1.32-.49,1.74-1.4,1.69-1.4,3.68-1.16,5.63.84,6.88.57,13.78.55,20.69-.03,6.25-.14,12.51-.39,18.75-.15,4.08.07,8.14.26,12.2.15,2.9.27,5.84-1.17,8.55-.24.47-.25,1.04,0,1.5,1.36,2.47,1.38,5.24,1.79,7.92,1.29,8.63,2.52,17.27,3.83,25.9.67,4.41,1.06,8.85,1.56,13.28.31,2.7.48,5.42,1.34,8.04.45,1.32.88,2.67.42,4.13-.23.73.18,1.37.69,1.9,1.01,1.04,1.63,2.29,2.09,3.64.55,1.57,1.36,2.97,2.31,4.33,1.84,2.63,3.17,5.55,4.67,8.37,4.76,8.98,9.1,18.15,13.26,27.41.66,1.47,1.61,2.76,2.51,4.08.61.88,1.26,1.76,1.25,2.93,0,.46.28.78.66,1.03,5.32,3.51,9.83,8,14.58,12.19,8.46,7.46,16.83,15.02,25.14,22.65,2.71,2.5,6.07,3.03,9.38,3.82,3.87.94,7.76,1.77,11.64,2.91-.68-.08-1.36-.13-2.03-.25-4.93-.94-9.87-1.86-14.78-2.94-2.9-.63-5.08-2.1-7.26-4.17-7.34-6.95-14.43-14.17-22.27-20.57-5.09-4.17-9.93-8.64-15.21-12.58-1.72-1.28-2.63-3.14-3.47-5.05-4.83-11.14-10.2-21.99-16.16-32.57-2.7-4.82-5.31-9.73-8.04-14.54-1.61-2.83-2.13-5.91-2.25-9.08-.21-5.6-1.31-11.09-1.88-16.64-.53-5.15-2.27-10.09-2.58-15.26-.49-8-2.41-15.77-3.56-23.66-.02-.13-.09-.27-.13-.4v-5.65h0Z"/>
  </g>
</svg>