<?xml version="1.0" encoding="UTF-8"?>
<svg id="Layer_2" data-name="Layer 2" xmlns="http://www.w3.org/2000/svg" viewBox="0 0 654.5 338.79">
  <defs>
    <style>
      .cls-1 {
        fill:#808080
      }
    </style>
  </defs>
  <g id="Layer_1-2" data-name="Layer 1">
    <path class="cls-1" d="m58.29,72.03c-12.3-3.18-39.15-16.47-58.29-33.34,14.59,15.58,36.32,30.6,57.32,36.27,19.77,5.32,40.47,9.87,60.02,8.27,12.22-.99,22.77,22.97,32.48,26.84,5.84,2.3,10.89,10.08,17.78,17.13,6.9,7.04,3.99,10.59,12.87,20.36l3.85,5.81c15.14,14.73,21.55,14.52,25.38,9,9.01,8.6,13.69,6.13,12.34,3.76l2.86,1.35,6.21,1.9c-2.3,4.21-5.47,6.88-14.07,7.28,1.28-3.85-1.54-3.07-4.12-.76-2.56,2.3-3.09,2.8-7.68,2.04.53-7.18-4.1-2.56-6.94,2.05-8.45,0-20.53.53-26.44,1.3-5.87.75-5.87,1.01-8.19,6.15-2.31,5.12-20,28.98-24.89,35.9-3.67,5.22-8.19,6.94-13.86,6.94s-23.02-.68-26.93,1.53c-1.79,1.04-.78,5.65,1.28,5.13,3.45-.86,7.18-3.33,11.8-3.07-2.82,6.67,10.77.24,18.98.77,5.13.32,6.68-.53,11.28-6.16,4.63-5.65,16.66-28.22,25.41-39.25,6.41,3.07,11.54-4.62,30.25-2.06,7.45,4.62,10.01,2.3,6.69-2.05l7.16-.26c16.43,7.96,12.59,2.82,10.79.52,12.93-.24,16.03-4.68,19.02-13.17,1.02.56,2.01,1.05,3.2,1.17.41,2.72,1.31,4.88,3.68,7.49-6.14,7.18-16.17,17.67-18.55,20.37-3.42,3.93-2.89,3.27-6.48,3.27s-10.09-.87-14.89-3.77c-4.79-2.91-7.35-2.22-18.31-1.21-1.7,1.21.86,5.31.86,5.31,2.04-.33,5.64-2.04,10.94-2.4,5.13,4.11,5.82,5.82,9.41,5.48,3.59-.33,9.58.17,14.37.69,4.8.52,3.85-.69,6.68-3.25,1.87-1.71,10.73-12.07,19.43-21.2.94.79,1.93,1.61,3.1,2.51,21.24,16.46,41.38,19.11,49.62,22.86,8.31,3.76,29.24,7.84,38.23,13.21,1.41.82,2.31,7.55,4.45,16.6,1.35,5.66.8,16.41,2.58,15.53-.32,8.04-1.36,10.7,1.33,9.19-.63,3.55-.81,5.6.28,5,1.08-.59.75,3.5.44,5.35-.32,1.87-.09,5.14,3.5,5.43,3.57.28,11.86,6.27,15.5,7.78,3.66,1.48,3.16,1.27,6.21-.2,3.71.82,7.8,7.5,10.18,9.91.79-1.31,2.71-1.83,5-1.48-2.26-7.13-12.48-11.3-16.05-11.59-.57-2.62-11.86-6.11-15.36-7.41-3.51-1.31-3.95-2.12-4.86-6.82-.9-4.7-4.49-40.01-7.74-47.98.42-2.49,2.91-4.36-.66-7.95-3.56-3.61-48.31-23.32-48.69-24.19,0,0,13.99,3.57,28.82,7.24,1.61,4.79,6.63,7.06,15.86,3.9,9.51,2.29,17.15,4.06,18.62,4.15,0,0,3.07,6.16,6.94,13.08,3.83,6.93,5.87,2.56,15.12,4.36,9.24,1.79,9.76,1.27,8.99-1.04,5.91-1.54,8.73-.76,14.62.77,5.91,1.54,4.62-1.02,2.05-3.59-2.56-2.57-11.54-1.8-17.45.25-4.61-1.53-9.65-1.11-13.77-1.11s-2.73,2.4-10.07-11.45c98.93,13.53,139.72,17.72,166.17,14.12,8.45,21.93,18.43,46.26,20.51,50.91,3.54,7.9,13.27,25.88,13.28,34.39,0,8.51,5.49,6.88,10.26,7.92,2.94,4.54,12.78,10.25,16.53,15.1,3.74,4.87,5.03,3.01,6.42.08,5.13,3.76,7.55,9.56,9.31,9.74,3.68.36,4.15-1.08.65-5.12-3.56-4.04-27.74-22.49-33.79-26.26-3.2-2.01-5.23-4.7-5.18-7.96.06-3.25-3.62-4.99-3.2-7.24.44-2.24-1.94-1.64-1.99-2.83s.26-1.89-1.39-4.57c-1.63-2.68-1.76-1.99-2.2-4.37-.45-2.38,0-4.45-1.61-6.1-1.62-1.64-6.64-11.89-6.39-14.3.26-2.4-.51-4.95-4.17-11.13,2.42.59.15-4.62-1.44-6.12-1.6-1.46-3.12-2.78-3.24-6.37-.14-3.59-1-5.62-4-10.12-.87-1.35-1.85-3.75-2.82-6.59.66-.13,1.3-.24,1.95-.38,8.08-1.73,7.93-2.31,6.13-4.62-1.79-2.3,7.19-5.38-.77-7.69-3.78-1.09-1.54-3.85-8.2-4.87,13.86-.26,23.87-1.3,30.76-1.8l9.45-2.59c5.73,10.9,12.39,23.89,14.04,29.15,2.4,7.61,7.05,26.49,18.03,37.51,2.97,2.99-.73,2.04,4.28,2.02,5.01-.05,12.91,2.17,17.76,3.63,4.84,1.45,4.1-.21,2.79-1.85,5.68-.36,7.68.21,9.86,1.56,2.14,1.35,2.8,3.16,3.16.94.28-2.21.66-1.83,5.73.11-13.18-13.39-15.02-1.91-34.37-7.71-9.64-2.88-3.79-2.2-7.07-4.7-5.43-4.14.81-2.6-4.55-7.5-3.12-2.83-.19-3.64-3.27-5.6-3.06-1.97.5-3.76-1.91-5.42-4.43-3.03-1.16-4.79-5.91-11.43,4.92.54-2.27-6.4-4.62-10.59,3.8-.88-3.56-8.29-9.98-21.23l14.93-4.11c10.62-4.44,19.55-3.3-3.37-12.2l-7.16-1.03s-6.38-1.48-12.1-2.77l-2.05-5.48c-10.59-27.37-33.86-83.91-38.82-95.5-3.92-9.22-5.43-10.45-10.49-10.82.03-.11.13-.45.3-1.16-6.95,3.57-12.31,3.25-17.02,11.94-4.99,2.27-8.98,5.25-13.1,8.78-1.37-5.11-3.01-7.11-7.84-5.65-.48-2,.45-.36.75-2.21-12.45,1.66-7.49,2.38-17.41,10.03-12.61,9.75-39.72,24.74-55.39,35.44-5.94,4.06-20.46,12.9-35.2,21.89l-12.61-1.77c-9.92-1.7-30.45-7.85-37.96-10.59-7.53-2.75-17.1-5.82-24.28-5.14-7.21.68-9.93,2.39-16.43-2.38-6.5-4.79-26.34-8.04-38.94-6.24-15.53,4.19-31.47-6.17-60.08-14.07-2.37-.65-17.79-5.29-19.71-7.5,0,0-2.48-11.65-17.69-11.41-4.79.08-6.7-1.05-11.49-2.87-5.52-2.09-10.03-6.15-13.38-5.31-18.97-5.48-41.78-16.25-58.45-33.11C53.43,28.79,38.09,4.98,36.63,0c6.71,24.03,23.44,38.69,29.36,45.26,13.08,14.56,37.39,27.73,56.08,33.71-22.32,1.91-51.48-3.77-63.77-6.94m376.81,79.63c.52-.49,1.07-.97,1.51-1.37,7.97-6.99,36.75-35.34,43.06-41.96,3.43-3.59,7.87-7.56,12.35-11.45,3.22,11.26,6.36,24.52,9.66,32.38,4.23,10.11,8.81,22.51,11.15,29.86l2.04,6.15c-26.23-4.56-52.72-9.1-63.86-11.37l-15.91-2.23Zm88.61-86.97c-.18,0-.28-.02-.46-.05.38-.97.38-.15.46.05m-13.86,15.77c7.16-2.13,9.17-2.84,12.76-6.41,3.54-3.56,6.42-1.65,9.14,6.9,2.7,8.56,13.55,37.87,18.84,46.18,5.31,8.31,12.29,31.78,15.61,43.54l1.78,4.23c-.09-.02-.2-.05-.28-.08l-5.99-1.18c-10.99-2.08-25.49-4.64-40.49-7.28l-2.38-6.28c-6.82-21.99-18.75-49.75-22.77-66.69,5.92-5.11,11.33-9.78,13.77-12.93m-57.24,31.09c3.78-3.97,18.26-16.17,24.81-17.7,6.51-1.51,8.53-2.82,11.79-6.03.06.15.11.33.18.49-4.06,3.69-8.59,7.88-14.58,12.58-6.53,5.15-22.45,16-40.77,28.44,7.58-6.9,14.21-13.2,18.57-17.79"/>
  </g>
</svg>