<?xml version="1.0" encoding="UTF-8"?>
<svg id="Layer_2" data-name="Layer 2" xmlns="http://www.w3.org/2000/svg" viewBox="0 0 654.5 409.02">
  <defs>
    <style>
      .cls-1 {
        fill:#808080
      }
    </style>
  </defs>
  <g id="Layer_1-2" data-name="Layer 1">
    <path class="cls-1" d="m646.13,182.88c-1.97-2.42-6.37-4.01-10.17-14.8-3.9-11.07-39.33-94.45-62.89-109.76-4.47-2.87-19.2,2.4-32.23,4.96-2.12-10.72-23.73-66.83-49.37-42.3-17.35,2.35-42.38,14.45-69.26,31.99-21.51,14.01-34.15,24.75-44.34,23.28l-1.51-.73c-2.97-4.47-1.41-1.64-3.41-3.9,3.14-.98,9.42-3.35,13.01-7.62,6.26-7.29,3.23-27.23-.99-39.34-3.75-10.76-5.47-20.31-12.7-23.82-4.78-2.33-20.62.87-20.55,3.92.1,4.12,8.64,4.45,14.32,13.37,3.19,5.04,6.58,15.28,8.99,20.82,1.53,3.46,4.42,13.88,1.72,18.54-1.75,2.91-5.44,4.37-8.46,5.05-1.08-1.69-2.83-3.53-5.87-5.17-7.89-4.27-15.02,0-15.02,0,0,0-9.32-8.95-22.6-8.95s-19.34,6.11-19.34,6.11c0,0-12.53-3.92-20.4.34-4.73,2.57-4.78,6.01-6.28,8.73-2.51-1.24-5.31-2.97-6.81-5.33-2.5-3.95-2.15-12.37-.55-18.99,1.44-5.84,4.91-13.77,7.39-19.16,4.31-9.33,12.15-9.33,11.84-15.41-.22-4.29-11.34-6.28-15.61-3.24-6.01,4.25-13.63,16.05-16.31,26.35-2.96,11.19-2.88,28.42,4.46,38.35,1.74,2.28,4.04,4.05,6.35,5.39-3.24,2.71-2.14.28-5.06,4.27l-1.63.52c-10.17,1.25-22.59-9.71-43.79-24.27-26.45-18.12-51.2-30.79-68.53-33.53-25.15-25.17-48.06,30.91-50.31,41.29-2.12,2.93-5.03,7.7-8.24,13.42-9.44-1.61-18.04-3.15-21.1-.86-22.41,16.88-51.93,102.59-55.06,113.87-3.04,11.06-7.31,12.93-9.11,15.5-2.46,3.51-8.65,24.88-6.08,26.16,1.28.6,1.84-12.67,11.72-23.9,6.45-7.23,13.61-21.48,19.4-34.54,4.41-9.89,27.69-54.81,39.77-69.45,5.34-6.51,7.63-9.98,12.29-11.15-5.69,11.46-10.98,23.8-13.63,33.16-5.88,21.16-11.13,53.41-7.73,54.97,2.39,1.11,4.21-19.95,16-49.33,5.39-13.4,13.27-26.65,20.52-37.91,17.48,3.9,56.1,16.42,74.07,20.54,13.49,3.09,58.81,13.66,69.25,16.63,1.69.49,3.12,1.1,4.41,1.79-12.81,5.63-27.76,15.06-41.42,34.21-7.61-4.91-24.65-12.05-33-13.09-10.43-1.29-53.48,7.14-61.55,16.83-15.01,7.65-23.77,20.59-30.55,35.15-6.81,14.63-11.55,28.24-8.63,29.62,2.91,1.32,9.07-19.53,18.69-30.05,9.64-10.52,20.88-21.1,24.68-29.22,9.33,1.16,22.69-2.11,30.99-2.97,8.78-.94,18.33,1.39,24.29-2.93,4,2.82,20.83,9.16,26.11,11.09-2.49,4.59-4.88,9.62-7.15,15.04-4.92,11.71-8.97,23.88-11.58,36.34-9.43-4.97-22.01-9-28.87-9.44-7.35-4.77-46.2,8.14-51.77,10.15-3.57,1.27-4.74,9.54-4.74,9.54,0,0-4.76,7.39-9.09,18.49-4.31,11.11-8.26,56.62-3.73,58.17,7.31,2.52,9.06-20.66,12.94-35.57,3.82-14.69,12.02-24.26,9.87-32.56,8.65-7.27,47.81-14.68,47.81-14.68,0,0,9.18,5.4,15.85,7.56,2.65,5.97,8.09,13.99,8.09,13.99l.67-.1c-.67,28.84,8.45,58.51,34.91,87.05,41.92,45.12,84.99,67.69,112.21,67.69s52.42-22.57,94.33-67.69c27.52-29.66,39.98-54.15,42.87-84.03l6.13-3.22s8.36-4.9,13.35-9.11c9.1,1.13,19.41,0,19.41,0,0,0,26.47,18.11,34.9,33.94-5.52,6.55-2.3,18.72-5.16,33.61-2.93,15.12-9.63,36.71-6.05,37.12,3.86.42,19.67-34.64,22.82-46.17,4.66-17.18,1.09-27.93,1.09-27.93,0,0,2.29-5.79-.94-10.87-3.47-5.43-36.15-31-41.51-31.3-15.47-5.59-32.66-4.63-40.36-2.24-.58.21-1.18.52-1.78.81-.86-13.58-3.97-26.84-9.3-39.55-3.22-7.65-6.46-14.32-9.72-20.27,6.94-2.15,20.87-6.59,24.37-9.15,7.61,4.3,15.54,2.26,24.33,2.68,16.65.78,25.4,4.12,31.04,2.62,4.77,10.45,11.65,20.29,18.45,32.83,8.6,15.93,10.41,32.85,13.05,32.91,2.61.02,1.53-12.67-2.2-28.31-4.03-16.73-12.5-36.29-25.19-42.91-16.27-13.29-46.5-16.74-60.49-14.43-10.14,1.76-23.75,6.5-31.6,10.52-11.69-16.61-23.58-24.58-35.34-29.69,1.81-1.62,4.32-3.26,7.71-4.51,10.18-3.66,54.66-17.39,67.88-21.42,14.18-4.34,41.29-14.99,60.3-21.66,8.38,13.23,20.03,31.57,26.97,50.05,11.15,29.68,12.51,50.74,14.89,49.68,3.44-1.49-1.06-33.83-6.49-55.13-3.57-14-13-34.76-20.74-49.28.46-.13.93-.27,1.3-.34,14.21-2.97,15.23-.25,24.3,9.32,13.07,13.78,39.42,56.95,44.52,66.52,6.75,12.66,14.82,26.32,21.76,33.11,10.68,10.5,12.16,23.72,13.38,23.02,2.5-1.45-5.15-22.35-7.88-25.68M211.21,94.64c-25.72-9.15-71.86-17.69-102.07-19.08-.28-.03-.53-.05-.78-.05,2.19-3.36,4.11-6.3,5.59-8.73,7.21-12.13,21.42-36.8,31.34-35.77,20.65,20.07,47.33,36.24,60.6,41.95,13.23,5.69,36.95,13.26,39.38,15.14,2.44,1.89,6.83,8.24,6.83,8.24l.45,2.02c-1.81,4.76-1.23,4.18-1.76,10.95-7.71-1.98-18.86-7.26-39.58-14.67m223.45-4.31c-23.34,10.22-34.05,16.69-41.85,18.32-1.13-4.52-2.65-8.7-4.34-12.59,1.01-1.34,4.64-6.13,6.75-7.68,2.47-1.81,26.33-8.88,39.7-14.28,13.39-5.39,40.42-20.97,61.53-40.57,8.86-.71,20.67,19.11,28.08,32.11-29.37,4.63-67.66,14.96-89.87,24.68"/>
  </g>
</svg>