<?xml version="1.0" encoding="UTF-8"?>
<svg id="Layer_2" data-name="Layer 2" xmlns="http://www.w3.org/2000/svg" viewBox="0 0 654.5 613.73">
  <defs>
    <style>
      .cls-1 {
        fill:#808080
      }
    </style>
  </defs>
  <g id="Layer_1-2" data-name="Layer 1">
    <path class="cls-1" d="m15.58,135.92c8.83-8.07,23.42-8.02,34.55-9.09,23.81-2.15,48.52-3.52,71.08,5.65,29.04,11.75,52.28,34,80.47,47.32,17.98,8.52,39.77,15.78,50.84,33.35,7.85,12.52,7.97,28.29,15.09,41.17,5.15,9.32,15.5,25.06,26.02,28.26,14.31,4.44,8.75-13.76,5.67-20.67-7.08-15.76,5.66-14.13,11.07-26.59,5.45-12.97-8.22-25.38-16.84-33.13-10.69-9.61-17.03-19.98-25.54-31.48-7.11-9.75-16.25-16.99-24.52-25.65-12.69-13.13-25.93-25.75-37.38-39.89-15.72-19.36-18.65-46.31-22.33-70.05-.53-3.41-5.74-37.67,3.1-34.98,10.11,3.13,6.18,27.67,6.84,34.87,1.48,16.41.05,32.93,6.79,48.3,6.13,13.63,16.66,24.71,25.68,36.45,10.98,14.32,26.01,24.47,38.69,37.21,16.64,16.63,24.41,48.35,48.91,55.9.21.08.72.17,1.16.28,1.4-4.75,6.37-8.26,12.35-8.26s10.78,3.5,12.3,8.26c.44-.12.99-.21,1.16-.28,24.59-7.54,32.35-39.26,48.88-55.9,12.71-12.74,27.71-22.89,38.74-37.21,9.02-11.74,19.53-22.81,25.58-36.45,6.9-15.37,5.44-31.89,6.9-48.3.57-7.21-3.32-31.75,6.85-34.87,8.84-2.69,3.57,31.56,3.06,34.98-3.72,23.73-6.63,50.69-22.29,70.05-11.52,14.14-24.68,26.76-37.35,39.89-8.36,8.66-17.5,15.9-24.59,25.65-8.45,11.5-14.88,21.88-25.57,31.48-8.59,7.75-22.27,20.16-16.72,33.13,5.26,12.46,18.06,10.83,10.98,26.59-3.1,6.91-8.72,25.11,5.65,20.67,10.57-3.21,20.84-18.94,26.07-28.26,7.14-12.88,7.18-28.66,15.1-41.17,11.06-17.58,32.94-24.84,50.83-33.35,28.21-13.32,51.47-35.57,80.42-47.32,22.68-9.17,47.33-7.8,71.11-5.65,11.19,1.07,25.75,1.01,34.62,9.09,20.45,18.84,17.71,43.55,8.63,67.37-9.92,26.06-22.15,48.69-23.25,77.34-1.31,32.08-22.16,69.21-53.18,81.07-8.61,3.29-28.88,10.41-37.6,5.42,5.78,19.54,26.55,26.26,38.25,41.25,19.85,25.4,31.11,56.69,18.99,88.05-3.87,10.38-6.05,21.06-12.48,30.25-9.35,13.35-24.37,20.45-34.82,32.68-7.74,9.13-12.39,20.64-22.92,27.09-9.4,5.87-20.66,3.58-30.84,6.47-9.94,2.83-16.79,10.46-24.91,16.19-17.68,12.28-34.5-3.08-51.24-8.57-12.92-4.3-27.63-3.91-39.26-11.89-25.36-17.58-8.31-55.93-3.8-79.41,3.74-19.66-.13-39.44-4.92-58.7-.32-1.45-5-22.62-9.79-19.14-5.62,4.17-1.79,35.51-2.32,41.77-1.48,18.41-4.46,36.77-5.32,55.21-.53,8.98-1.28,18.76-5.39,26.91-7.92,15.53-25.86,13.1-32.33-2.77-3.03-7.53-3.75-16.09-4.17-24.15-.95-18.43-3.92-36.8-5.41-55.21-.44-6.26,3.45-37.6-2.28-41.77-4.71-3.48-9.35,17.69-9.74,19.14-4.82,19.25-8.72,39.04-4.88,58.7,4.49,23.47,21.49,61.83-3.87,79.41-11.58,7.98-26.34,7.6-39.22,11.89-16.76,5.49-33.58,20.85-51.19,8.57-8.22-5.72-15.06-13.36-24.91-16.19-10.27-2.88-21.53-.6-31.02-6.47-10.48-6.44-15.11-17.96-22.82-27.09-10.34-12.23-25.45-19.33-34.82-32.68-6.43-9.19-8.54-19.88-12.5-30.25-12.11-31.37-.9-62.66,18.96-88.05,11.72-14.98,32.54-21.71,38.25-41.25-8.69,5-28.93-2.13-37.44-5.42-31.13-11.85-51.96-48.98-53.18-81.07-1.17-28.65-13.38-51.29-23.37-77.34-9.08-23.83-11.79-48.53,8.73-67.37h0Z"/>
  </g>
</svg>