<?xml version="1.0" encoding="UTF-8"?>
<svg id="Layer_2" data-name="Layer 2" xmlns="http://www.w3.org/2000/svg" viewBox="0 0 654.5 345.11">
  <defs>
    <style>
      .cls-1 {
        fill:#808080
      }
    </style>
  </defs>
  <g id="Layer_1-2" data-name="Layer 1">
    <path class="cls-1" d="m0,182.32c3.59-.6,7.18-1.2,10.77-1.75,2.84-.43,5.58-1.32,8.36-1.94,2.07-.46,4.55-.91,6.07-2.9.65-.84,1.42-1.58,1.63-2.66.17-.74.72-1.08,1.3-1.39.93-.47,1.66-1.14,2.18-2.03.6-.97,1.39-1.7,2.55-1.96.92-.19,1.34-1.07,2.12-1.51,2.76-1.58,5.73-1.45,8.73-1.23,2.22.15,4.31.74,6.21,1.94.74.48,1.61.75,2.49.75.58.01,1.35,0,1.5-.75.15-.66.49-1.43-.58-1.84-.78-.3-.73-1.24-.86-1.96-.05-.28.1-.5.43-.56.42-.06.88.01,1.05.37.65,1.35,1.46.83,2.45.43,1.73-.68,3.63-.62,5.3-.01,1.62.6,3.17.48,4.77.37,2.19-.18,4.37-.18,6.57-.01,2.2.17,4.35-.44,6.52-.74,1-.13,2-.2,3.01-.2,4,0,8-.06,12,.02,3.79.07,7.53-.48,11.31-.53.8-.01,1.58-.02,2.35.24.73.26,1.49.17,2.17-.19,1.79-.94,3.71-.89,5.65-.9,2.07-.01,4.13.09,6.24-.38,1.6-.37,3.47.03,5.18-.37,3.12-.74,6.32-.36,9.46-.62,2.28-.19,4.63.35,6.92.68,1.01.15,1.93.04,2.86-.18,1.49-.36,2.74-.16,3.85,1.03.97,1.04,1.3.82,2.33-.25.88-.9,1.92-1.92,3.42-1.45,1.44.44,2.58-.66,3.94-.61.4.02.87-.3,1.28-.16,1.71.57,3.35-.06,5.02-.22.31-.03.64-.14.91-.05,3.02.87,6.2.01,9.15.83,2.13.59,4.27.62,6.38,1.02,1.26.22,2.49.39,2.64,2.17.05.73,1.1.96,1.8,1.12.73.16.45-.69.71-1.04.96-1.2,2.09-2.17,3.52-2.85,1.38-.66,2.83-.26,4.16-.56,2.1-.44,4.25-.15,6.3-.82.95-.3,1.97-.32,2.93.22.59.32,1.29.2,1.95.2,1.5,0,2.98.21,4.42.6,1.31.36,2.58.66,4,.49,1.84-.24,3.2.86,3.84,2.72.23.68.84.74,1.38.83.58.09,1.3.29,1.62-.46.58-1.26,1.71-1.52,2.86-2.01,1.56-.66,3.26-.78,4.74-1.56.37-.19.75-.2,1.16-.2,1.1-.02,2.08-.32,3.1-.85,1.5-.78,3.25-.52,4.89-.54,1.56-.01,2.98.61,4.42,1.15,1.41.52,2.8,1.25,4.35,1.34.08.01.18.03.26.05.67.24,1.22,1.3,1.94.74.96-.72,1.85-1.62,2.22-2.87.19-.63.51-1.14,1.15-1.33,1.64-.48,2.91-1.41,4.3-2.45,1.92-1.43,3.79-3.05,6.06-4.11,3.92-1.83,7.88-3.46,12.23-3.92,2.06-.21,4.12-.14,6.05.83,1.22.6,2.38.66,3.25-.64.09-.15.23-.27.39-.35,2.42-1.1,4.42-2.96,7.06-3.69,4.75-1.29,9.26-3.29,14.04-4.5,4.63-1.18,9.27-1.49,13.92-.05,1.58.49,3.09.43,4.64-.04,4.61-1.39,9.35-1.48,14.1-1.36.88.03,1.76.18,2.56.57,1.22.57,2.51.85,3.81.92,1.81.1,3.53.22,5.09,1.34.83.6,1.88.38,2.92.16,2.7-.53,5.29-1.68,8.16-1.48,1.64.13,3.23.3,4.67,1.14.97.57,2.01.86,3.15.72.75-.08,1.49.08,2.22.49-.68-1.27-1.24-1.65-2.51-1.69-.47-.02-.94-.1-1.13-.52-.49-1.07-1.73-1.22-2.37-1.92-1.96-2.14-4.94-2.11-7.13-3.75-1.28-.95-3.01-1.28-4.48-2-1.12-.57-2.38-.93-3.42-1.55-3.69-2.22-7.83-3.08-11.86-4.25-2.51-.72-5.02-1.59-7.71-1.53-.08,0-.19,0-.25-.03-3.47-1.79-7.7-1.73-10.75-4.6-1.02-.95-2.65-.8-4.02-1.09-1.16-.25-2.3-.51-3.29-1.24-.7-.51-1.46-.7-2.36-.44-1.75.52-3.26.02-4.6-1.19-1.1-1-2.46-1.5-3.77-2.14-1.4-.69-2.92-1.2-3.93-2.55-.26-.35-.84-.46-1.27-.68-.55-.26-1.2-.42-1.64-.82-2.25-2-5.07-3.25-7.1-5.55-1.01-1.14-2.29-2.03-3.59-2.85-2.61-1.65-4.59-3.96-6.79-6.06-1.27-1.19-2.64-2.29-3.92-3.49-.72-.67-1.31-1.44-1.22-2.51.04-.57-.21-1-.73-1.1-1.74-.37-2.94-1.68-3.89-2.89-1.5-1.9-3.32-3.49-4.88-5.3-1.76-2.04-2.82-4.58-4.85-6.37-.25-.22-.6-.36-.92-.46-.52-.18-1-.61-.89-1.02.25-1.02-.46-1.28-1.07-1.65-.75-.48-1.36-1-1.53-2-.16-.98-1.06-1.63-1.56-2.47-1.3-2.09-2.73-4.15-4.91-5.54-.76-.49-1.2-1.3-1.45-2.26-.31-1.27-1.56-1.87-2.37-2.79-1.55-1.75-3.44-3.08-5.34-4.38-.14-.08-.31-.37-.28-.41,1.34-1.45-.7-1.7-.92-2.6-.07-.26-.51-.54-.84-.61-2.55-.48-4.55-2.27-7.15-2.79-1.38-.28-2.57-1.66-3.77-2.64-.35-.28-.73-.61-1.01-.93-.76-.88-1.42-1.93-1.43-3.11-.01-1.41-.42-2.56-1.38-3.57-.39-.42-.64-.93-.81-1.5-.4-1.32.12-2.22,1.44-2.61.66-.19.87-.04.8.67-.21,1.9,1.11,3.44,2.95,3.5.08,0,.2.01.26-.03,1.47-1.18,2.39-.66,3.13.89.2.4.82.63,1.28.87.76.38,1.46.82,1.92,1.55.24.38.57.68,1,.84,1.09.42,1.89.86,2.3,2.27.55,1.99,1.95,3.57,4.01,4.42,1.14.46,2.17,1.13,3.03,2.05.74.79,1.8.88,2.78,1.1,1.06.23,1.8.81,2.47,1.61,2.39,2.83,5,5.45,7.54,8.12,2.25,2.38,4.95,4.35,6.71,7.19.74,1.21,1.84,2.12,3.01,2.93,1.11.79,1.81,1.89,2.61,3,1.03,1.47,1.98,3.05,3.32,4.31.81.75,1.44,1.58,1.75,2.71.41,1.47,1.94,1.87,3.05,2.61.3.2.78.2,1.11.52.46.45,1.18.53,1.74.42,1.33-.25,2.61-.22,3.78.42,1.26.69,2.66,1.02,3.96,1.6,1.35.61,2.58,1.33,3.75,2.18,1.51,1.08,3.18,1.93,4.47,3.3.73.79,1.77,1.29,2.56,1.95,1.09.89,2.21,1.8,3.27,2.78,1.51,1.38,3.27,2.6,4.45,4.23,1.6,2.2,3.85,3.73,5.61,5.77,1.16,1.36,2.17,3.54,4.58,3.5.08-.01.2.03.25.08,1.59,1.7,3.5.64,5.26.51,1.62-.12,3.19-.3,4.78.37.82.36,1.78.43,2.69.52,1.06.12,1.96.68,2.91.98,2.91.91,5.3,3.05,8.5,3.34,1.94.18,3.77,1.06,5.28,2.41.13.12.31.25.46.25,1.62-.05,2.77,1.19,4.25,1.54,2.53.61,4.63,2.16,6.93,3.3.47.23.97.38,1.48.54,1.74.58,3.4,1.31,4.71,2.66,1.03,1.05,2.38,1.67,3.59,2.44,1.38.88,2.7,1.81,3.73,3.1.58.73,1.37.87,1.94.3.93-.9,1.89-.7,2.79-.25,1.69.84,3.37,1.11,5.21.65.52-.14,1.08,0,1.52.31.59.44,1.32.42,1.93.68,2.46,1.02,5.03,1.89,7.24,3.46.4.27.79.6,1.23.76,1.4.6,2.43,1.67,3.35,2.81.57.7.93.68,1.6.22,1.68-1.16,1.75-1.18,3.29.22,1.19,1.09,2.62,1.8,3.98,2.65.96.61,1.73,1.58,2.9,2,.81.28,1.02.14.97-.7-.09-1.8-.3-3.42-2.02-4.6-.89-.61-1.26-1.89-2.27-2.57-.48-.31-.3-1.06-.29-1.62,0-.43.21-1.1-.1-1.26-1.8-.93-1.7-3.23-3.23-4.31-.56-.4-.85-.98-1.15-1.59-.89-1.75-2.03-3.25-3.98-3.97-.56-.2-.94-.67-1.24-1.15-1.13-1.87-2.83-3.11-4.57-4.31-1.74-1.19-3.55-2.28-5.28-3.48-3.35-2.31-6.73-4.63-10.34-6.47-1.39-.71-2.02-1.78-2.91-2.82-1.36-1.58-3.22-2.55-5.15-3.33-.45-.18-1.04-.21-1.25-.68-.55-1.26-1.61-1.3-2.74-1.36-1.81-.09-2.98-1.47-4.05-2.6-1.06-1.09-2.42-1.84-3.3-3.13-1.12-1.62-2.87-2.76-3.71-4.62-.34-.7-.8-1.27-1.42-1.7-1.32-.89-2.14-2.15-2.88-3.52-.84-1.53-2.03-2.9-2.84-4.39-1.1-2.02-2.89-3.59-3.67-5.86-.36-1.07-1.14-2.1-1.81-3.09-.96-1.43-1.62-3.04-1.85-4.78-.17-1.16-.43-2.23-1.55-2.89-.31-.18-.44-.52-.56-.87-.52-1.53-1.48-2.96-1.88-4.46-.69-2.65-3.45-4.45-2.93-7.52.01-.08,0-.2-.04-.26-1.46-1.98-1.85-4.4-2.73-6.61-.24-.61-.6-1.18-.56-1.85.1-1.52-.43-2.86-1.17-4.12-.98-1.64-1.64-3.39-1.95-5.28-.31-1.99-1.24-3.67-2.62-5.09-.42-.42-.49-1.02-.65-1.57-.16-.59-.25-1.22-.93-1.49-.25-.1-.5-.34-.4-.61.47-1.28-.56-1.56-1.3-2.04-.74-.47-1.54-.9-1.37-2.02.05-.32-.13-.59-.38-.8-1.46-1.12-2.73-2.49-4.34-3.39-.46-.25-.73-.62-1.02-1.01-.56-.83-.78-1.91-1.94-2.29-.44-.15-.52-.81-.45-1.29.15-1.18-.36-2.01-1.2-2.76-.78-.68-1.24-1.5-.56-2.54.6.17.59.91,1.15,1.08.33-.25.11-.93.66-1.01.66-.09.5.59.75.89.51.66,1.27.81,2,.8,1.31-.01,1.96.62,2.1,1.85.28,2.64,1.69,4.83,2.82,7.14.13.24.35.64.44.61,1.26-.28,1.81,1.02,2.85,1.23.6.13,1.17.35,1.57.88.19.25.47.5.78.39,1.22-.48,1.73.37,2.31,1.15.2.28.48.56.79.68,1.73.69,2.46,2.16,3.02,3.77.53,1.58,1.27,3.04,2.08,4.51.91,1.62,1.81,3.36,2.07,5.3.03.29.11.63.3.86,1.33,1.58,1.69,3.68,2.75,5.34,1.01,1.62,1.64,3.43,2.8,4.97.9,1.19,1.31,2.68,1.49,4.18.1.85.25,1.65.89,2.26.18.19.39.47.37.69-.21,1.82,1.03,3.27,1.28,5.01.31,2.09,2.3,2.86,4.13,3.45,1.44.47,2.77,1.08,3.82,2.21.29.32.54.75.91.94,3.41,1.83,5.08,5.22,7.28,8.12,1.16,1.55,2.06,3.3,3.09,4.96.15.23.23.49.41.68,2.17,2.19,3.33,4.9,4.16,7.82.27.91,1.15,1.49,1.46,2.32.65,1.69,1.6,2.89,3.33,3.53.44.17.75.72,1.08,1.13.6.73,1.25,1.24,2.26.86.17-.05.41-.09.52,0,1.45,1.11,3.52.83,4.9,2.11.36.33.71.67,1.2.78,1.27.28,2.04,1.16,2.69,2.18.75,1.17,1.73,2.07,3.02,2.65,1.76.79,2.69,2.57,4.2,3.6,1.6,1.08,2.39,3.03,4.44,3.7,1.8.59,2.95,2.32,4.26,3.65.72.73,1.5,1.45,2.27,2.14,1.16,1.06,2.32,2.09,3.16,3.48.54.88,1.39,1.61,2.08,2.46.44.54.9,1.02,1.09,1.71.22.78.86.89,1.48.76,2.09-.43,3.55.47,4.79,2.02.84,1.05,1.94,1.68,3.22,2.18,1.41.57,2.41,1.88,3.27,3.09,1.57,2.23,3.13,4.38,5.35,6.1,1.37,1.08,2.27,2.74,3.93,3.58.67.35.84,1.2,1.18,1.86.6,1.14,1.95,1.89,2.89,1.59,1.02-.3,1.6-1.34,1.37-2.81-.23-1.51-.23-3.07-1.1-4.43-.13-.2-.17-.54-.09-.76.82-2.23.38-4.25-.97-6.16-.34-.48-.46-1.13-.66-1.72-.17-.45-.17-1.03-.45-1.35-1.66-1.88-2.32-4.31-3.5-6.43-2.04-3.65-4.76-6.79-7.2-10.14-.87-1.19-2-2.2-3.04-3.28-1.01-1.05-1.96-2.13-2.68-3.39-.58-1.01-1.28-1.91-2.13-2.67-.88-.78-1.55-1.66-1.69-2.88-.06-.54-.32-1.07-.96-1.1-1.08-.06-1.62-.79-2.07-1.6-1.71-3.1-3.47-6.12-4.42-9.64-.92-3.39-2.17-6.73-2.83-10.2-.63-3.26-1-6.58-1.48-9.88-.17-1.22.35-2.33.6-3.48.1-.48.26-.96-.06-1.39-.87-1.13-.84-2.44-.82-3.77.01-.66.04-1.32-.17-1.97-.98-3.05-.64-6.15-.44-9.26.13-1.81.05-3.64-.02-5.46-.03-.77-.02-1.52.3-2.19.92-2.02.3-3.84-.6-5.64-.1-.2-.32-.41-.28-.57.81-3.01-.54-5.76-.99-8.62-.24-1.51-1.18-2.83-.94-4.42.06-.4-.06-.83-.38-1.1-1.29-1.09-2.02-2.68-3.38-3.72-2.26-1.72-3.89-3.8-3.96-6.82-.02-.96-.85-1.72-.87-2.71-.01-.27-.17-.56.1-.72.35-.21.57,0,.75.29.18.28.37.65.82.4.35-.2.23-.52.19-.83-.02-.18-.04-.36-.02-.52.09-.41-.01-1.04.52-1.09.59-.04.48.59.6.98.38,1.36.62,2.69,2.62,2.69.77-.01,1.81.68,1.83,1.91.01.25.07.61.24.72,1.8,1.19,1.86,3.71,3.43,4.86,1.2.88,1.93,2.14,3.01,3.09.88.77,2.18,1.94,2.09,3.55-.03.56.06,1.07.32,1.51.84,1.33.81,2.79.58,4.22-.16.93-.04,1.8.08,2.72.49,3.45,1.05,6.89,1.06,10.38.01,1.13.23,2.21.74,3.19,1.44,2.71,1.26,5.62,1,8.51-.19,2.09-.39,4.19-1.07,6.2-.27.84.21,1.47.61,2.18.63,1.11,1.61,1.84,2.44,2.76,1.64,1.79,2.45,4.01,3.16,6.28.52,1.67,1.15,3.35,1.52,4.99.48,2.18,1.58,4.3,1.7,6.37.18,3.17,1.44,6.09,1.6,9.14.13,2.16,1.47,3.8,1.57,5.86.02.58.65.83,1.16.95,3.53.96,5.41,3.56,6.67,6.74.73,1.87,1.64,3.58,3.05,5.03.64.68,1.03,1.53,1.36,2.39.64,1.58,1.63,3,2.4,4.46,1.02,1.96,2.59,3.64,3.17,5.84.39,1.46,1.01,2.8,2.17,3.85.76.69.9,1.72.99,2.66.18,2.13.86,3.92,2.8,5.07.61.36,1.12.92,1.31,1.61.4,1.44,1.34,2.43,2.46,3.31.74.57,1.17,1.32,1.33,2.21.44,2.54,2.07,4.23,4.02,5.64,1.46,1.06,2.48.52,3.04-1.17.71-2.14.25-3.92-1.22-5.55-.58-.64-.88-1.37-.75-2.29.1-.84-.26-1.63-.53-2.41-.73-2.08-1.38-4.17-1.56-6.38-.08-.96-.39-1.92-.92-2.72-1.14-1.68-1.27-3.81-2.57-5.4.03-3.56-2.75-6.51-2.19-10.2.13-.95-.09-1.83-1.03-2.38-.29-.19-.51-.46-.56-.86-.27-2.69-.61-5.39-.84-8.09-.14-1.56-.64-3.19-.23-4.7,1.02-3.85.18-7.96,1.78-11.71.49-1.19.2-2.53.5-3.77.24-.92.6-1.74,1.26-2.42.23-.24.62-.42.59-.83-.28-3.55,1.16-6.83,1.6-10.27.1-.92.32-1.8.74-2.65.47-.9.61-1.91.83-2.89.29-1.42-.06-3.04,1.25-4.15.2-2.92,2.37-5.34,2.02-8.42-.11-1.06.25-2.17.48-3.25.18-.85.81-1.33,1.65-1.52.43-.09.94-.09.91-.71-.03-1.06.49-1.94.91-2.85.62-1.33.38-2.47-.64-3.48-1.08-1.05-1.9-2.19-1.88-3.77.01-.08-.01-.2-.07-.25-1.71-1.72-1.31-4.29-2.5-6.22-.38-.59-.71-1.19-1.23-1.7-1.18-1.17-1.3-3.57-.15-4.78.49-.52,1.25-.83,1.67.19.58,1.41,1.54,1.97,3.02,1.49.87-.27,1.09.37,1.27.95.61,2.19.72,4.41.46,6.66-.14,1.26-.27,2.53-.41,3.78-.09,1.03.35,1.46,1.38,1.38,1.96-.13,1.96-.1,2.64,1.91.03.08.05.17.1.23,1.96,2.16.95,4.34.07,6.53-.17.4-.41.81-.44,1.23-.31,4.19-1.62,8.25-1.66,12.48-.02,1.74-.9,3.35-.1,5.25.5,1.19,0,2.78-1.22,3.79-.34.28-.5.61-.38,1.05.3,1.05-.03,1.98-.8,2.64-1.18,1.05-1.46,2.59-2.27,3.84-.1.15-.19.34-.17.49.22,1.63.06,3.5.82,4.86,1.25,2.25,1.79,4.56,1.8,7.03.02,4.31-.26,8.59-1.12,12.83-.29,1.48-.88,2.85-1.6,4.16-.67,1.19-1.15,2.44-1.29,3.84-.19,2.1.47,3.73,2.11,5.1,1.98,1.66,3.3,3.75,4.15,6.27.52,1.57,1.75,2.9,1.95,4.68.16,1.39.47,2.77.68,4.15.39,2.67,1.56,5.11,2.02,7.76.4,2.22-.07,4.48.43,6.7.12.46.16.94.31,1.39.49,1.33,1.51,1.68,2.58.72,2.01-1.81,3.78-3.8,3.9-6.76.05-1.68.53-3.19,2.16-4.1.82-.46,1.09-1.36,1.4-2.18.49-1.26,1.27-2.31,2.14-3.29.17-.19.19-.23.03-.38-1.06-.93-.57-1.78.22-2.51,1.27-1.2,2.03-2.55,1.61-4.35-.38-1.66-.38-3.44-2.01-4.56-.58-.39-.64-1.13-.61-1.8.15-2.67-.41-5.12-2.04-7.28-.12-.16-.12-.43-.08-.64.27-2.02-.24-3.79-1.68-5.27-.42-.43-.49-.9-.34-1.45.44-1.53.43-3.01-.47-4.4-.29-.43-.18-.93-.15-1.42.07-.9.08-1.76-.73-2.39-.34-.27-.44-.69-.3-1.09,1.02-2.83.6-5.69.18-8.53-.2-1.37-.16-2.62.89-3.67.68-.68.12-1.7.65-2.45.18-.26.13-.67.5-.85,1.99-1.03,2.93-2.78,3.31-4.87.15-.81.87-1.07,1.27-1.63.95-1.35,1.72-2.87,3.14-3.86.21-.15.35-.52.39-.81.17-1.07.79-1.61,1.72-2.24,1.11-.73,1.91-2,2.74-3.11,1.09-1.44,2.46-2.47,4.1-3.21.92-.41,1.77-.96,2.56-1.61,2.58-2.12,5.42-3.75,8.54-5,2.76-1.11,5.28-2.78,8.32-3.17,2.14-.27,4.2-.89,6.25-1.56,1.09-.37,2.17-.75,3.12-1.38.92-.62,1.75-.42,2.82-.05,1.7.58,3.49,1.09,5.23,1.44,2.6.51,3.96-1.58,4.86-3.74.26-.62.54-1.08,1.13-1.35,1.63-.74,3.19-1.71,5.05-1.83.84-.05,1.31-.92,2.21-1.05,4.59-.65,9.23-.85,13.79-.29,2.36.27,4.84.25,7.16,1.26.95.42,2.2-.38,3.34-.01,3.54,1.16,7.29,1.13,10.89,2.12,4.72,1.3,9.58,2.21,13.68,5.03,1.99,1.37,4.05,2.65,5.99,4.11,1.79,1.31,3.29,2.83,4.86,4.34,1.26,1.21,2.94,1.5,4.56,1.93,1.56.41,3.06,1.09,4.55,1.51,1.98.57,3.37,2.45,5.6,2.28.36-.02.79.2,1.1.43,2.24,1.68,5.02,2.25,7.44,3.56.42.22.83.17,1.27.17,2.18.02,4.19.46,5.5,2.47.42.63.89,1.19,1.75,1.24.21.01.54.17.57.28.23,1.49,1.62,1.98,2.58,2.66,1.3.92,2.26,2.24,3.8,2.89,1.45.59,2.61,1.57,3.5,2.99.49.78,1.09,1.84,2.3,1.96.19.02.47.16.56.31.98,1.89,2.87,2.89,4.39,4.19,1.12.96,1.47,2.18,2.12,3.29.56.96.35,2.03-.49,2.77-.74.67-1.46.59-2.42-.12-1.85-1.35-3.39-3.19-5.74-3.89-1.06-.31-1.75-1.29-2.46-2.14-1.14-1.38-2.21-2.86-4.15-3.25-.27-.06-.6-.28-.74-.51-.72-1.15-1.78-1.62-3.06-2.03-1.02-.32-1.74-1.45-2.89-1.83-1.25-.43-2.3-1.33-3.63-1.65-.21-.05-.44-.15-.58-.29-1.19-1.26-2.86-1.26-4.3-1.82-1.49-.59-3.17-.74-4.53-1.57-1.13-.69-2.14-1.34-3.52-.97-.19.05-.47,0-.63-.12-2.55-1.84-5.46-1.1-8.27-1.3-1.52-.1-2.81,0-4.03,1.01-.43.35-1.16.19-1.67-.02-1.86-.73-3.64-.25-5.38.38-1.79.65-3.58,1.2-5.52,1.01-.64-.07-1.1.2-1.37.8-.14.31-.32.79-.65.76-1.67-.07-2.93,1.22-4.54,1.29-.7.03-1.27.12-1.62.83-.45.92-1.32.6-1.99.45-1.15-.25-2.09-.22-2.66.99-.26.54-.74.32-1.16.21-.9-.28-1.78-.53-2.67.05-.18.12-.59.17-.73.05-1.22-.96-2.84-.5-4.12-1.24-.65-.38-1.16-.19-1.53.46-.22.38-.51.72-.7,1.11-.39.72-.87.85-1.63.49-1.15-.52-2.47-1.23-3.63-.43-1.35.91-2.27.87-3.81.17-1.46-.66-3.45-.65-5.08.3-.57.32-1.07.34-1.59-.04-1.34-.91-2.82-.93-4.3-.49-.88.25-1.51.24-1.95-.68-.14-.3-.42-.69-.69-.74-1.72-.35-2.82-1.91-4.33-2.39-1.59-.49-2.58-1.41-3.8-2.42-1.97-1.6-3.12-3.53-3.98-5.74-.4-1.06-.88-1.24-1.82-.69-.96.52-1.82,1.12-2.6,1.96-1.24,1.35-3,2.03-4.69,2.56-1.5.47-2.29,1.68-3.24,2.66-.8.82-1.63,1.6-2.36,2.41-1.18,1.31-2.48,1.14-3.88,1.35-1.05.15-1.71.91-1.47,2.11.16.77.36,1.53.58,2.3.21.79-.07,1.12-.86.9-.81-.21-1.69-.36-2.32-.91-.91-.84-1.72-1.7-3.18-1.4-.54.1-.82-.59-1.04-1.07-.73-1.59-2.29-1.23-3.56-1.34-1.15-.1-1.61.82-1.9,1.83-.22.79-.44,1.61-1.21,2.13-.23.16-.26.43-.28.71-.21,1.93-.66,3.79-1.42,5.62-.61,1.4.02,2.84.89,3.89,1.17,1.39,1.55,2.66.91,4.42-.39,1.06-.35,2.34.63,3.32.51.51.32,1.16.06,1.73-.38.81-.26,1.41.57,1.85.78.42.66.92.06,1.43-.56.47-.79,1.02-.5,1.76.09.23.18.56.08.77-.73,1.61-.84,3,1.08,3.9.42.2.09.73-.06,1.07-.31.69-.69,1.33-.97,2.02-.49,1.14-.36,2.1.8,2.84,1.07.7,1.03,1.08-.04,1.73-.67.41-.86,2.66-.21,3.26.66.6.51.95-.21,1.23-.67.25-.93.73-.95,1.42-.04,1.96.26,3.85,1.36,5.53.87,1.33.59,2.82.44,4.22-.18,1.75-.32,3.52-.15,5.26.18,1.66.13,3.25.05,4.89-.09,2.32-1.21,3.94-2.73,5.49-1.25,1.27-2.8,1.85-4.41,2.49-1.34.53-2.73,1.28-2.71,3.24.02,1.88.22,2.37,2.11,2.87q1.96.53,1.58,2.5c-.15.82-.28,1.63-.43,2.46-.15.9.02,1.71.63,2.46,1.05,1.3,1.97,2.69,3.42,3.63.22.13.49.3.58.51.84,2.32,2.09,4.5,2.45,6.97.09.6.01,1.14.45,1.72.32.43.32.82,1,.39.43-.29.83.07,1.03.51.67,1.43,1.25,2.96.74,4.45-.69,2.01-.82,4.12-1.61,6.13-.8,1.98-2.13,3.55-2.94,5.45-.1.23-.24.23-.03.56.71,1.06.36,1.95-.47,2.85-.89.97-1.94,1.74-2.88,2.64-.51.48-.91,1.06.05,1.7.73.48.13,1.63.62,2.17.54.6,1.48-.64,2.16.08,1.04,1.09,2.33,1.12,3.67,1.03.84-.05,1.3.09,1.47,1.15.14.96.73,1.84.36,2.88-.04.09.02.3.1.35,1.79,1.16,2.06,3.21,2.84,4.95.28.62-.15,1.17-.61,1.48-1.37.93-1.03,2.42-.74,3.45.35,1.29.65,2.53.65,3.85s.01,2.54.18,3.8c.24,1.67-1.01,2.8-1.78,4.02-.44.69-.49,1.02-.01,1.52.33.35.68.69,1.09.94.66.43.71.85.22,1.49-.89,1.2-.45,2.63-.47,3.96-.01.47.46.6.84.71.37.1.67.28.57.73-.07.35-.38.45-.71.48-.53.04-1.26-.15-1.24.75.01.9-.21,1.97.81,2.45.93.43.84,1.03.57,1.71-.24.62-.58,1.19-.87,1.77-.4.8-1.15,1.53-.36,2.52.12.14,0,.51-.07.75-.35.91-.19,1.55.71,2.1.76.47.75,1.14-.01,1.69-.47.32-.63.66-.36,1.2.59,1.22.25,2.38-.57,3.27-.73.81-.97,1.32-.42,2.46.63,1.3.71,2.91-.17,4.3-.75,1.23-1.13,2.44-1.31,3.95-.23,1.87.3,3.27,1.08,4.66,1.09,1.92,2.36,3.73,2.92,5.9.09.35.32.65.65.81.92.45,1.92-.04,2.93.41.71.31,1.86-.14,2.45-1.06,0-.04.04-.09.07-.09,2.06-.19,3.59-1.96,5.79-1.78.96.08,1.14.38.82,1.2-.16.4-.3.83-.39,1.25-.14.73-.4,1.26-1.27,1.19-.4-.03-.69.18-.62.64.06.36.25.7.69.64,1.23-.15,2.47.5,3.71-.32.54-.38,1.46-.28,1.59.74.12.97.67,1.32,1.6,1.33.76,0,1.38.1,1.01,1.23-.35,1.01.44,1.69,1.31,1.83.93.15,1.53.56,1.97,1.32.07.12.14.29.24.31,2.2.49,2.77,3.46,5.28,3.49.09,0,.21.15.31.22.51.4.9,1.33,1.5,1.12.71-.24,1.36-.93,1.81-1.58.78-1.11,1.87-1.9,2.73-2.91.22-.25.45-.53.6-.85.37-.86.96-1.03,1.89-1.25,1.33-.3,2.75-.78,3.86-1.69.79-.64,1.51-1.18,2.6-1.03.23.04.54-.02.75-.15,1.81-1.17,3.88-1,5.87-1.16,1.46-.1,2.88-.24,4.11-1.16.78-.6,1.54-.56,2.24.17.66.67,1.42.81,2.28.43.36-.17.78-.37,1.14-.16,1.48.81,2.9.41,4.31-.15.72-.29,1.17-.01,1.58.51.78.99,1.61,1.32,2.66.38.44-.4,1.02-.46,1.62-.38.47.07,1.07.2,1.4-.02.86-.53,1.47-.29,2.13.27.59.51,1.25.31,1.83-.02,1.1-.64,1.9-.4,2.94.39,1.23.94,2.51,2.11,4.35,1.85.66-.08,1.36.05,1.84.53.81.79,1.77,1.23,2.85,1.12,3.56-.39,6.72,1.37,10.11,1.78,6.97.84,13.76.09,20.37-2.23,4.2-1.48,8.2-3.36,12.01-5.7,2.55-1.57,5.03-3.26,6.94-5.65.05-.06.1-.15.17-.19,2.21-1.32,3.7-3.43,5.63-5.05.48-.41,1.12-.45,1.75-.46,1.29-.03,2.34-.35,3.11-1.56.68-1.03,1.9-1.54,3-2.1.58-.3,1.27-.17,1.64.41.54.86.44,1.78-.09,2.61-1.41,2.16-3.07,4.1-4.88,5.96-1.3,1.33-2.58,2.72-3.84,4.13-.47.51-1.04.96-1.61,1.35-2.72,1.78-5.54,3.41-7.92,5.67-.36.35-.88.59-1.36.76-1.67.65-3.15,1.51-4.2,3-.09.13-.29.25-.44.25-1.93.01-3.31,1.29-4.84,2.17-2.38,1.35-4.78,2.51-7.38,3.46-2.41.88-4.91,1.7-7.14,3.13-1.37.89-2.91,1.44-4.45,1.95-1.54.52-3,1.07-4.13,2.41-.75.87-1.93,1.36-2.94,1.97-1.1.67-1.94,1.61-2.86,2.5-3.45,3.3-7.38,5.87-12.07,7.13-1.55.42-2.99,1.32-4.51,1.62-2.06.41-3.93,1.33-6.03,1.68-2.41.39-4.99-.02-7.25,1.27-.48.27-1.1.41-1.64.4-2.97-.07-5.88.87-8.78.78-3.24-.09-6.5.01-9.71-.53-1.86-.31-3.71-.65-5.61-.73-1.42-.06-2.74-.59-3.99-1.27-.6-.32-1.04-.84-1.31-1.44-1.39-3.03-3.31-4.14-6.54-3.43-2.62.58-4.93.38-6.95-1.6-1.13-1.12-2.72-1.14-4.17-1.43-1.1-.22-2.15-.45-3.02-1.18-.14-.12-.3-.25-.45-.27-2.43-.36-4.29-1.94-6.43-2.9-2.75-1.23-5.26-2.77-7.7-4.53-2.68-1.9-4.95-4.26-7.51-6.28-1.19-.95-2.24-2.11-2.93-3.52-.35-.73-1-1.23-1.67-1.65-1.32-.82-2.14-2.01-2.85-3.37-.93-1.8-2.26-3.42-3-5.28-.65-1.61-2.2-2.67-2.63-4.12-.52-1.77-1.78-3.48-1.18-5.52.3-1.07.19-2.19.23-3.28.03-.9-.12-1.68-.76-2.42-.8-.9-.81-4.55-.08-5.45.37-.46.15-.83.04-1.24-.25-1.02-.4-1.99.5-2.81.11-.1.24-.32.22-.46-.71-2.45.9-4.53,1.11-6.84.06-.73-.39-1.25-.9-1.68-.73-.62-.65-1.15.05-1.69.2-.17.38-.38.59-.54,1.12-.86,2.36-1.6,1.74-3.45-.23-.65.47-1.28.98-1.76.82-.76,1.14-1.61.72-2.71-.39-1.04-.27-1.98.72-2.69.21-.14.48-.42.46-.6-.18-1.39.65-2.6.72-3.94.07-1.28-.96-1.82-1.48-2.63-1.06-1.65-1.98-3.37-3.03-5.01-.58-.89-1.16-1.77-1.9-2.52-.3-.3-.67-.63-1.06-.76-1.57-.6-1.8-1.67-.58-2.89,1.28-1.28,1.24-2.71-.12-3.71-.25-.19-.52-.44-.83-.24-1.08.7-2.13.21-3.19,0-1.02-.2-1.55.12-1.47,1.2.07,1.02-.21,1.98-.84,2.7-2.24,2.64-2.46,5.83-2.58,9.05-.04,1.15-.17,2.25-.72,3.3-.29.56-.36,1.15-.35,1.79.01.52.04,1.08-.14,1.55-1.35,3.67-1.64,7.48-1.7,11.32-.02,2-.67,3.79-1.52,5.54-.1.23-.26.56-.46.61-1.77.52-1.57,2.09-1.72,3.38-.1.94-.05,1.92-.62,2.78-.23.35-.22.76-.14,1.16.7,2.98.43,6.01.41,9.02-.02,3.55-.42,7.09-.5,10.66-.05,2.32-1.08,4.41-2.82,6.08-.47.44-.39,2.93-.04,3.8,1.29,3.24,1.91,6.63,1.84,10.13,0,.17,0,.39-.09.5-.89,1.2-1.01,2.47-.46,3.85.09.21.06.56-.06.75-1.18,1.89-.84,3.82-.28,5.78.01.04.05.09.04.12-.79,1.61.27,3.22-.04,4.87-.34,1.88.51,3.72.76,5.57.2,1.41-.02,2.62-1.09,3.59-.84.78-1.07,1.7-.73,2.76.64,2.01,1.1,4.04.96,6.2-.08,1.26.73,2.35,1.39,3.36.9,1.38-.19,2.71-1.67,2.9-.81.12-1.61.43-2.38.75-.69.27-1.09.08-1.57-.47-1.89-2.2-2.05-4.78-1.62-7.42.4-2.41,1.31-4.74.89-7.26-.08-.5,0-1.04-.42-1.47-.4-.41-.38-.89.01-1.3.8-.83.92-1.77,1.08-2.91.15-1.13.12-2.22.15-3.32.01-.85,0-1.68-.58-2.38-.22-.25-.27-.56-.13-.86.91-1.84.1-3.72.05-5.57-.01-.47-.07-.91.01-1.39.19-1.14.23-2.27-.83-3.12-.28-.22-.55-.54-.5-.89.21-1.67-.62-3.07-1.09-4.56-.52-1.66-.22-3.3-.01-4.96.05-.51.21-1.07.1-1.56-.38-1.72-.78-3.42.06-5.12.1-.23-.02-.62-.14-.89-1.25-3.04-1.33-6.12-.48-9.26.03-.17.04-.37,0-.52-1-3.01.04-5.99.04-8.98.01-4.01,1.29-7.84,1.18-11.82,0-.09-.03-.22.01-.27,1.14-1.35.86-3.07,1.25-4.62.26-1.08,1.29-1.97,1.98-2.93.05-.06.21-.09.21-.15.17-2.1,2.32-3.63,1.75-5.93-.25-1.03.07-1.87.39-2.86.51-1.56,1.12-3.24.74-4.96-.32-1.55.04-2.96.58-4.39.72-2,.71-4.13.8-6.22.02-.41-.09-.93-.59-1.11-1.07-.4-.94-1.23-.82-2.07.09-.57.19-1.12.31-1.68.2-.89-.17-1.67-.81-2.1-.66-.45-1.54-.66-2.35-.06-.18.13-.36.25-.57.32-1.61.6-2.15,1.66-2.11,3.43.06,2.11-.49,4-2.34,5.59-1.69,1.44-3.12,3.33-3.65,5.66-.14.56-.58.61-1.01.66-1.4.15-2.15.91-2.8,2.18-.81,1.58-1.74,3.16-3.07,4.43-1.14,1.08-2.11,2.32-3.02,3.64-.89,1.28-2.12,2.34-3.27,3.43-.75.71-1.18,1.66-1.82,2.45-.31.4-.61.83-1.03,1.15-1.01.75-1.85,1.55-2.57,2.68-.62,1.01-1.36,2.11-2.3,2.94-.27.23-.52.48-.56.86-.08.99-.85,1.53-1.34,2.27-1.22,1.81-2.94,2.64-4.9,3.33-2.13.74-3.69,3.42-3.7,5.7-.02,3.77-.65,7.46-1.76,11.1-.46,1.49-.82,3.1-1.29,4.57-.75,2.25.32,4.76-1.23,6.79-1.37,1.82-2.15,4.1-4.08,5.5-1.11.8-1.46,1.85-.98,3.12,1.18,3.14.96,6.49,1.38,9.73.21,1.72-.58,3.32-.64,5.05-.13,3.99-.31,7.96.08,11.96.01.14.06.29.02.39-.9,2.23-.09,4.53-.23,6.78-.11,1.92-.43,3.75-1.67,5.31-1.29,1.61-.59,3.4-.3,5.06.34,1.95-.01,3.85-.01,5.76,0,.64-.97,1.52-1.25,2.46-.13.4-.77.4-1.05.17-.52-.44-.91-.93-1.69-.5-.23.14-.27-.23-.32-.44-.21-.68-.28-1.37-.14-2.07.35-1.59.46-3.21.7-4.78.22-1.56.06-3.2.63-4.73.41-1.1-.16-2.25-.06-3.4.01-.14-.24-.45-.4-.46-1.3-.05-.73-.74-.86-1.57-.29-2.22,1.08-4.31.61-6.3-.93-3.87-.18-7.89-1.42-11.69-.38-1.13-.47-2.32-.32-3.52.34-2.8-.12-5.6-.23-8.38-.07-1.89-.21-3.79.23-5.66.44-1.88.86-3.73-.21-5.57-.17-.3-.09-.79-.06-1.17.46-3.72.25-7.52,1.41-11.17.38-1.15.62-2.35.53-3.6-.06-1.06.37-2.23.74-3.07,1.23-2.77.86-6.12,3.15-8.48.19-.18.19-.57.26-.85.29-1.12.71-2.23,1.58-2.99,1.18-1.04,2.23-2.08,3.09-3.48.6-.99,1.61-1.97,2.78-2.66,1.81-1.07,3.35-2.54,4.45-4.38.16-.25.35-.57.61-.67,1.72-.75,2.66-2.43,4.11-3.44,2.43-1.69,4.13-4.12,6.49-5.84.41-.3.75-.75,1.01-1.21,1.36-2.45,3.61-4.23,4.84-6.83.44-.94,1.16-1.99,2.01-2.87,1.32-1.38,1.61-3.23,1.32-5.1-.13-.86-.03-1.58.64-2.16.64-.51.56-1.24.62-1.93.04-.51-.18-.72-.68-.72-.97.01-1.93,0-2.9,0-.42,0-.78.18-1.02.51-1.51,2.13-3.97,3.35-5.32,5.63-.07.15-.28.36-.39.34-1.42-.31-1.4,1.08-2.06,1.69-1.51,1.36-1.87,3.42-3.19,4.86-.45.49-.94.74-1.52.95-1.16.41-2.3.85-3.45,1.29-1.52.58-2.65,1.61-3.22,3.11-.44,1.17-1.15,1.58-2.31,1.39-1.25-.19-1.88.26-2.22,1.55-.41,1.59-1.5,2.82-2.71,3.95-.97.9-2,1.77-2.64,3-.59,1.09-1.6,1.88-2.56,2.63-1.61,1.28-2.77,3.08-4.37,4.23-1.83,1.32-2.88,3.26-4.43,4.77-1.65,1.59-3.43,3.1-5,4.78-2.25,2.42-4.63,4.75-7.76,6.07-1.36.58-2.88.46-4.23,1.23-2.39,1.34-4.15,3.06-5.02,5.7-.63,1.91-1.54,3.7-2.4,5.51-1.24,2.58-3,4.86-3.9,7.63-.69,2.12-2.01,4.02-3.55,5.7-.36.38-.6.86-.84,1.33-.6,1.18-1.24,2.26-2.29,3.16-.85.71-1.08,2.02-1.95,2.84-.19.2-.3.61-.59.66-1.83.26-2.89,2.15-4.79,2.26-.47.03-.59.45-.74.83-.61,1.58-1.35,3.11-1.41,4.88-.05,1.5-.6,2.91-1.23,4.29-.49,1.07-.8,2.22-1.02,3.38-.19,1-.37,2.02-1.42,2.53-.36.19-.3.61-.46.89-.76,1.47-1.97,2.71-2.11,4.47-.01.15-.3.3-.49.4-.82.42-.98.95-.87,1.92.2,1.56-.01,3.13-1.32,4.34-.69.64-.93,1.58-1.18,2.46-.59,1.96-1.3,3.82-2.47,5.52-.62.9-.8,1.92-.74,3.01.04.71.06,1.45-1.01,1.47-.34.01-.45.38-.57.67-.18.37-.41.53-.84.41-.48-.15-.97-.53-1.49-.1-.88.71-1.91,1.27-2.56,2.24-1.17,1.75-2.22,3.58-3.23,5.43-.97,1.81-2.91,2.62-4.65,3.54-.89.46-1.61-.12-1.62-1.14-.01-.69.01-1.36-.19-2.06-.21-.75.31-1.53.92-1.93,2.51-1.68,4.07-4.25,6.01-6.44.94-1.05,2.01-1.8,3.3-2.34.75-.31,1.69-.7.16-1.45-.7-.36-.65-.93-.2-1.74,1.18-2.12,2.89-3.98,3.2-6.54.12-.95.37-1.92,1.06-2.65.59-.65.04-1.53.45-2.14,1.31-1.9,1.03-4.33,2.17-6.28.37-.64.54-1.38.52-2.15-.01-.37.09-.7.41-.94.6-.47,1.69-.81.32-1.72-.31-.22.07-.66.26-.92.78-1.03,1.01-2.19,1.15-3.44.18-1.74.53-3.45,1.69-4.9.41-.51.44-1.32.64-1.98.44-1.47.65-3.04,2.06-4,.32-.22.27-.62.35-.95.42-2.09.7-4.15,1.76-6.14.79-1.48,1.62-2.98,2.25-4.53.36-.88.28-1.94.84-2.83.83-1.35,1.9-2.55,2.36-4.13.16-.51.5-1.03,1.04-1.33.63-.34.97-.73.87-1.56-.1-.8.61-1.34,1.09-1.89.48-.54.85-1.16,1.16-1.81.79-1.62,2.16-2.85,2.89-4.5,1.45-3.28,4.55-5.1,6.8-7.68.25-.29.57-.68.95-.64,1.46.14,2.26-.86,3.17-1.72.37-.36.82-.7,1.29-.89,2.33-.97,4.22-2.38,5.68-4.48.65-.94,1.76-1.6,2.82-2.24,2.94-1.79,5.68-3.88,7.89-6.58.36-.44.75-.86,1.34-1.02,4.08-1.15,6.65-4.19,9.19-7.3,1.19-1.48,2.78-2.61,4.05-4.03,1.5-1.69,2.45-3.64,3.38-5.64.06-.15.12-.38.25-.44,1.56-.82,1.67-2.34,1.91-3.81.07-.49.23-1.02.66-1.25,1.38-.71,1.9-2.2,2.92-3.24.62-.61.63-1.52.8-2.33.08-.48-.32-.53-.7-.58-.77-.07-1.56-.16-2.35-.24-1.28-.16-2.39.08-3.36,1.08-1.01,1.05-2.39,1.52-3.68,2.18-2.84,1.48-5.52,3.26-7.96,5.34-.18.15-.28.39-.47.46-3.79,1.42-6.89,4.81-11.53,3.91-1.61-.32-2.9.46-3.7,1.93-.4.74-.87,1.27-1.84,1.14-.66-.07-1.14.39-1.56.86-1.26,1.38-2.4,2.74-4.34,3.45-.92.34-1.96,1.32-2.94,2-2.51,1.76-4.84,3.77-7.81,4.91-1.3.5-2.77,1.02-3.81,2.15-.22.25-.57.53-.87.56-1.88.17-3.26,1.43-4.88,2.13-.52.23-.72.64-.86,1.09-.35,1.14-1.09,1.65-2.26,1.59-.45-.03-.92.05-1.23.38-1.5,1.63-3.61,1.93-5.58,2.45-2.19.57-4.15,1.61-6.15,2.62-1.25.62-2.42,1.34-3.64,2-1.29.7-2.67.19-4,.08-.92-.06-1.82-.31-2.73-.39-.84-.07-1.47.37-2.22.75-2.38,1.22-3.26,3.97-5.68,4.99-.49.2-.93.54-1.16,1.04-.46.96-1.24,1.57-2.17,2.01-.28.13-.61.3-.73.54-1.31,2.63-4.14,3.75-5.88,5.99-1.08,1.39-2.42,2.65-4.16,3.35-.34.14-.61.5-.84.82-.39.56-.88.98-1.49,1.26-2.16.93-4.08,2.18-5.8,3.77-.29.27-.79.36-1.22.44-.48.1-1.01.18-1.32.53-1.24,1.45-2.91,1.61-4.58,1.53-2.6-.14-4.34,1.01-5.67,3.11-.82,1.29-1.81,2.41-2.88,3.52-.76.78-1.66,1.73-2.13,2.82-.6,1.37-1.75,2.22-2.66,3.31-1.24,1.47-3.26,1.97-4.29,3.56-1.84,2.89-4.37,5.26-6.17,8.18-.95,1.53-2.61,2.42-3.73,3.85-.38.49-.87.95-1.3,1.45-1.28,1.5-2.28,3.26-4.02,4.34-.46.27-.79.68-1.03,1.16-.39.79-1.23,1.12-1.75,1.63-1.6,1.54-3.89,1.63-5.45,3.1-.59.58-1.26,1.1-2.09,1.36-.16.05-.41.13-.44.23-.56,1.81-1.89,2.9-3.45,3.77-.07.03-.16.13-.16.2-.02,1.87-1.68,2.4-2.84,2.68-1.74.42-3.14,1.31-4.62,2.16-.29.17-.58.2-.82-.1-.35-.45-.56-1.03-.2-1.46.69-.84.62-1.93,1.07-2.78.96-1.87,1.42-4.13,3.81-5,.73-.27,1.57-.82,1.76-1.81.04-.19.23-.48.38-.49,1.36-.14,2.44-1.24,3.09-1.98,1.27-1.43,3.33-1.34,4.38-2.87.13-.18.46-.23.71-.28.83-.17,1.13-.59.73-1.39-.32-.68-.14-1.15.53-1.52,1-.56,1.95-1.18,2.42-2.32.06-.16.22-.36.37-.38,1.26-.21,1.75-1.29,2.54-2.09,2.97-3.01,5.01-6.66,7.47-10.05,1.23-1.7,2.26-3.53,3.74-5.04.42-.43.69-1.01,1.05-1.52,2.02-3,3.96-6.06,6.82-8.39,1.2-1,2.17-2.29,3.21-3.49,1.07-1.26,2.25-2.39,3.79-3,1.62-.64,1.58-2.4,2.51-3.51.19-.22.29-.52.52-.72,1.85-1.5,3.52-3.2,5.21-4.87,1.45-1.43,3.31-2.42,4.72-3.96,1.24-1.36,2.54-2.7,4.32-3.38.63-.24.81-.9,1.26-1.31,2.03-1.93,4.35-3.52,6.68-4.97,1.69-1.04,3.21-2.24,4.79-3.4.49-.36,1.06-.68,1.63-.83,1.27-.31,2.4-.89,3.37-1.73.92-.79,1.92-1.05,3.05-.64,1.03.37,1.92.14,2.7-.52,1.46-1.28,3.45-1.1,5.1-1.84.57-.26,1.24-.32,1.76-.75.65-.54,1.41-.85,2.18-1.2,1.89-.86,3.7-1.83,5.54-2.76.39-.21.79-.42,1.19-.52,1.55-.37,3.07-.72,4.51-1.47.54-.27,1.16-.39,1.79-.32.22.02.54.09.63-.01,1.47-1.88,4.04-1.07,5.74-2.41,1.73-1.35,3.88-1.88,5.79-2.83,1.69-.83,3.2-1.91,4.74-2.99,1.81-1.28,3.63-2.81,5.88-3.4,3.06-.81,5.15-3.09,7.39-5.05.98-.86,1.8-1.84,3.02-2.4.3-.14.57-.42.79-.68.44-.5.57-.83-.36-.94-1.47-.18-2.88-.03-4.3.3-1.58.38-3.19.58-4.78.08-.41-.13-.84-.12-1.15.09-1.42.97-3.22,1.05-4.69,1.93-.86.51-1.82.6-2.84-.09-.75-.49-2.05-.24-1.97-1.7-1.71-.18-2.42-2.38-4.45-2.04-1.96.31-4.04.05-5.78,1.35-.34.25-.74.29-1.13.1-1.79-.86-3.66-.65-5.55-.51-1.83.12-3.69.08-5.52.09-.64.01-1.2-.23-1.72-.58-2.6-1.74-5.35-3.02-8.5-3.45-1.3-.18-2.44.15-3.61.49-1.43.43-2.82.57-4.25.05-.93-.32-1.92-.23-2.87-.17-2.31.16-4.44-.35-6.53-1.25-1.7-.74-3.56-1.02-5.25-1.66-3.59-1.34-7.6-1.3-10.94-3.43-1.28-.81-2.79-1.26-4.19-1.88-.27-.13-.57-.12-.75.04-.92.79-2.16.62-3.16,1.15-.52.27-1.14.22-1.69.12-3.86-.75-7.65-1.62-10.66-4.45-1.61-1.52-3.55-2.56-5.55-3.51-1.47-.71-2.88-1.51-3.88-2.87-.29-.4-.63-.71-1.23-.5-.93.34-1.33-.19-1.4-1.02-.12-1.16-.72-1.82-1.83-2.12-.75-.2-1.34-.63-1.75-1.3-.47-.78-1.2-.98-2.03-.93-.86.06-.82.75-.95,1.35-.08.4-.31.73-.68.92-1.02.48-2,1.24-2.92,1.56-1.04.35-2.41.65-3.65.32-.43-.12-.85-.28-1.28-.1-2.47,1.08-5.02.52-7.53.41-.45-.02-.87.02-1.3.06-1.05.09-2.1.29-3.02-.49-.5-.42-1.18-.21-1.79-.27-1.12-.1-1.94-.52-2.08-1.76-.12-.97-.7-1.48-1.63-1.6-.9-.13-1.35-.69-1.29-1.54.1-1.13-.73-1.13-1.42-1.3-.92-.21-.8.6-.95,1.09-.6,1.92-1.62,2.32-3.54,2.63-1.82.3-3.72-.08-5.47.7-.44.2-.92.32-1.41.25-3.07-.43-6.11.25-9.17.3-.43,0-.95.05-1.28-.17-.73-.48-1.4-.39-2.13-.1-.71.28-1.29.29-1.85-.41-.62-.76-1.57-.38-2.37-.4-.93-.02-1.72.02-1.92-1.23-.07-.48-.62-1.05-1.08-1.25-.81-.34-.89-.84-.82-1.56.13-1.35-1.05-.72-1.6-.95-.58-.24-1.22-.02-1.2.76.02,1.54-.86,2.04-2.21,2.21-1.67.21-3.3.36-4.98.41-1.92.07-4.02-.18-5.92.71-.46.23-1,.31-1.54.22-2.57-.44-5.16-.43-7.74-.4-1.24.02-2.46,0-3.61-.57-.77-.37-1.54.14-2.34.06-.85-.08-1.47-.24-1.38-1.29.01-.23-.06-.56-.22-.72-.5-.61-4.11-1.01-4.76-.47-1.2.97-2.54,1.12-3.97.76-.78-.21-1.48-.12-2.17.22-.75.37-1.58.71-2.4.61-3.41-.45-6.76.5-10.1.26-2.84-.19-5.7.29-8.47-.26-1.68-.32-3.27-.39-4.93-.21-.52.04-1.05-.06-1.52-.36-1.08-.64-2.33-.72-3.5-.76-1.05-.04-2.02.05-3.06-.36-1.45-.58-3.01-.62-4.47.15-.97.5-1.93.81-2.99.16-.3-.18-.81-.2-1.15-.1-1.93.63-4,.14-5.91.87-.08.03-.18.05-.25.05-5.22.02-10.42,1.26-15.66.44-1.17-.17-2.38-.2-3.5.32-.13.05-.27.1-.39.09-2.17-.38-4.29.46-6.5.14-1.75-.24-3.58-.13-5.35.14-1.73.23-3.42.22-5.09-.13-.66-.14-1.06-.04-1.36.64-.34.76-.9,1.11-1.62.37-.32-.32-.7-.32-1.1-.23-1.2.28-1.84-.22-2.06-1.4-.2-1.06-.84-1.05-1.49-.43-.64.59-1.35.75-2.16.7-.46-.02-.82.01-1.1.5-2.56,4.46-6.82,4.61-11.2,4.33-2.82-.19-5.52-.92-8.07-2.16-.24-.13-.5-.21-.54-.49-.14-.73-.6-.75-1.18-.61-.5.13-.86,0-1.25-.44-.68-.75-1.56-1.03-2.61-.65-1.18.44-2.41.43-3.63.05-.74-.24-1.43-.2-2.16.16-1.05.51-2.16.49-3.33.45-1.83-.07-3.68.14-5.5.29-2.82.23-5.63.15-8.44.07-.29-.01-.59-.18-.88-.28v-.79h0Z"/>
  </g>
</svg>