<?xml version="1.0" encoding="UTF-8"?>
<svg id="Layer_2" data-name="Layer 2" xmlns="http://www.w3.org/2000/svg" viewBox="0 0 654.5 296.05">
  <defs>
    <style>
      .cls-1 {
        fill:#808080
      }
    </style>
  </defs>
  <g id="Layer_1-2" data-name="Layer 1">
    <path class="cls-1" d="m2.57,60.37C9.45,13.94,71.21,14.11,106.52,21.32c21.33,4.3,40.99,13.79,60.65,22.8,20.26,9.29,41.42,16.72,61.27,26.96,14.9,7.7,26.71,19.07,40.97,27.58,13.97,8.44,20.86,25.96,36.4,32.16,1.36-6.81.27-14.2,2.02-20.88,1.69-6.23,4.75-8.65-2.21-11.28-16.14-6.02-23.94-21.46-37.52-30.86-14.97-10.25-30.05-20.16-42.25-33.8-5.08-5.8-9.18-12.79-14.88-18.09-4.92-4.51-12.63-5.34-16.93-10.26-6.2-7.15,3.04-6.37,8.41-3.84,10.52,5.08,15.94,16.12,23.6,24.46,11.54,12.55,25.26,22.8,38.94,32.98,12.84,9.57,24.47,20.5,37.04,30.49,4.51,3.64,8.47,5.06,14.16,5.11,1.59-3.28,4.84-5.57,8.72-5.57h4.69c3.89,0,7.13,2.29,8.76,5.57,5.64-.05,9.55-1.46,14.16-5.11,12.47-10,24.15-20.92,37.04-30.49,13.68-10.18,27.35-20.43,38.94-32.98,7.59-8.34,12.98-19.38,23.63-24.46,5.31-2.54,14.55-3.31,8.31,3.84-4.26,4.92-11.97,5.75-16.87,10.26-5.77,5.31-9.76,12.29-14.97,18.09-12.11,13.65-27.18,23.56-42.17,33.8-13.6,9.39-21.42,24.83-37.54,30.86-6.93,2.63-3.86,5.05-2.17,11.28,1.76,6.68.64,14.07,1.98,20.88,15.5-6.2,22.39-23.72,36.44-32.16,14.18-8.51,26.06-19.88,40.93-27.58,19.8-10.24,41.07-17.67,61.33-26.96,19.68-9.01,39.21-18.5,60.58-22.8,35.35-7.21,97.13-7.37,103.97,39.05,2.38,16.82,5.41,34.8-2.64,50.56-11.1,21.67-34.5,32.93-51.14,49.51-15.42,15.31-33.24,26.14-55.42,26.9-7.05.26-16.19,3.31-22.63-.6,19.61,11.86,31.4,39.97,24.56,62.11-6.57,21.58-29.62,38.21-51.36,42.43-20.26,3.9-44.28,7.34-64.06.14-11.31-4.07-23.89-11.92-32.27-20.49-9.9-9.97-17.14-22.13-26.29-32.7-4.57-5.31-9.51-10.14-15.46-14.08-3.99-2.76-14.1-6.3-14.39-12.11.68,13.39,1.34,26.82,2.05,40.25.46,9.43.39,20.05-1.38,29.37-3.7,19.19-24.83,19.17-28.51,0-1.76-9.32-1.78-19.93-1.34-29.37.66-13.43,1.34-26.86,2.01-40.25-.29,5.81-10.38,9.34-14.49,12.11-5.77,3.94-10.75,8.78-15.36,14.08-9.1,10.57-16.41,22.73-26.25,32.7-8.45,8.57-21.06,16.43-32.29,20.49-19.8,7.2-43.82,3.76-64.06-.14-21.77-4.22-44.83-20.85-51.43-42.43-6.8-22.14,5.08-50.25,24.6-62.11-6.36,3.91-15.59.86-22.57.6-22.18-.75-39.97-11.58-55.42-26.9-16.72-16.58-40.12-27.85-51.1-49.51C-2.81,95.17.19,77.19,2.57,60.37h0Z"/>
  </g>
</svg>