<?xml version="1.0" encoding="UTF-8"?>
<svg id="Layer_2" data-name="Layer 2" xmlns="http://www.w3.org/2000/svg" viewBox="0 0 654.5 559.3">
  <defs>
    <style>
      .cls-1 {
        fill:#808080
      }
    </style>
  </defs>
  <g id="Layer_1-2" data-name="Layer 1">
    <path class="cls-1" d="m42.33,0h8.61c.24.06.49.17.73.17,6.48.1,12.79,1.38,19.05,2.91,6.4,1.54,12.78,3.16,19.18,4.72,4.13,1.02,8.25,2.06,12.25,3.54,7.51,2.79,15.03,5.58,22.37,8.81,4.35,1.9,8.94,3.29,13.15,5.46,6.16,3.18,12.25,6.48,18.22,10.04,5.12,3.06,10.14,6.22,14.76,9.95,6.9,5.57,13.95,10.97,20.38,17.09,4.17,3.96,8.23,8.02,12.29,12.09,4.41,4.42,8.79,8.86,12.97,13.5,3.2,3.56,6.39,7.14,9.59,10.71,1.54,1.74,3.19,3.39,4.65,5.19,2.89,3.57,5.71,7.21,8.54,10.84,3.72,4.76,7.51,9.48,11.08,14.32,5.49,7.48,10.44,15.31,15.35,23.17,3.05,4.86,6.16,9.68,8.95,14.72,2.28,4.11,4.5,8.27,6.93,12.28,3.07,5.1,5.71,10.43,8.43,15.69,2.46,4.74,4.86,9.53,7.35,14.25,3.18,5.99,6.52,11.89,9.24,18.13,2.04,4.68,4.14,9.35,6.93,13.73.18-.32.39-.69.59-1.07,1.05-1.83,2.48-3.19,4.53-3.87,1.74-.57,2.19-1.56,1.27-3.11-1.39-2.35-2.16-4.89-2.39-7.59-.59-7.12-3.43-13.38-7.41-19.18-3.1-4.54-6.35-8.97-9.54-13.46-3.77-5.28-7.2-10.79-10.57-16.33-3.95-6.53-6.56-13.73-10.72-20.17-3-4.64-5.31-9.73-7.93-14.62-.12-.22-.22-.44-.32-.67-.12-.28-.19-.59.08-.82.33-.28.67-.12.93.13.82.8,1.48,1.72,2.1,2.7,1.62,2.56,2.85,5.32,4.24,8.01,2.33,4.53,5.21,8.76,7.19,13.49,3.59,8.58,8.45,16.44,13.56,24.17,3.83,5.77,8.23,11.16,12.05,16.96,3.55,5.37,6.54,10.97,7.29,17.51.26,2.28.62,4.51,1.29,6.7.3.96.62,1.11,1.35.36.45-.44.99-1.45,1.39-1.18,1.22.81,3.05-.27,3.96,1.59.62,1.25,1.2,1.08,1.84-.15.64-1.22,1.34-2.43,1.86-3.7,3.01-7.44,7.52-13.77,13.51-19.13,3.12-2.8,6.24-5.72,8.36-9.42,4.47-7.8,8.45-15.9,13.31-23.52,2.52-3.95,5.18-7.7,8.82-10.75,3.06-2.55,6.2-5.01,9-7.88,1.45-1.48,2.74-3.14,4.58-4.2.45-.27,1.03-.73,1.47-.21.49.59-.17.98-.53,1.34-1.27,1.31-2.55,2.65-3.87,3.91-2.91,2.76-5.61,5.73-9,7.95-2.17,1.41-4.11,3.16-5.62,5.26-4.46,6.26-8.76,12.64-12.07,19.57-3.69,7.7-8.45,14.52-14.93,20.15-5.09,4.44-8.72,9.98-11.43,16.12-.41.94-.41,1.47.63,1.97,1.38.63,2.12,1.77,2.37,3.36.15,1.02.03,2.44,1.14,2.92,2.83,1.18,4.68,3.21,5.99,6.33,1.14-2.73,2.71-4.8,4.04-7.01,2.06-3.5,3.72-7.23,5.72-10.74,3.65-6.36,7.47-12.63,11.17-18.95,3.66-6.29,7.38-12.54,11.3-18.67,2.3-3.57,4.67-7.11,7.05-10.65,2.87-4.27,5.62-8.64,8.69-12.74,4.59-6.15,9.23-12.25,14.19-18.13,4.33-5.14,8.5-10.44,12.88-15.56,5.46-6.4,11.16-12.61,17.01-18.64,6.75-6.94,13.64-13.78,21.01-20.11,5.1-4.38,10.08-8.96,15.38-13.1,7.87-6.16,15.66-12.42,23.91-18.1,6.35-4.38,13.02-8.13,19.98-11.35,7.14-3.3,14.4-6.36,21.82-9.01,6.57-2.34,13.13-4.73,19.74-6.99,4.11-1.4,8.25-2.87,12.5-3.81,5.49-1.23,11.07-2.2,16.69-2.75,8.73-.87,17.46-1.84,26.23-1.3,9.95.62,19.79,2.03,29.42,4.82,4.54,1.31,8.27,3.57,10.93,7.6,1.4,2.11,2.06,4.49,3.12,6.71v7.43c-.42,1.99-1.2,3.91-2.26,5.61-1.89,3.02-3.28,6.17-3.69,9.73-.14,1.21-.37,2.4-.8,3.59-.44,1.23-1.13,2.46-1.29,3.69-.51,3.84-2.11,7.05-4.77,9.78-.66.67-1.22,1.4-1.66,2.26-.58,1.13-1.3,2.19-2.19,3.16-.95,1.04-2.12,2.08-2.4,3.51-.55,2.75-2.07,5.17-2.64,7.84-.59,2.7-2.04,5.07-2.46,7.86-.44,3.02-1.7,5.86-3.56,8.37-.39.51-.64,1.07-.95,1.63-1.32,2.46-2.8,4.83-4.65,6.96-.93,1.04-1.53,2.16-1.27,3.63.13.67.41,1.34.19,2.04-.82,2.62-1.43,5.31-1.48,8.05-.04,2.4-.76,4.85.12,7.21.39,1.09.42,2.22,0,3.2-1.45,3.34-1.49,7.14-3.37,10.35-1.11,1.89-1.13,4.22-2.12,6.15-.99,1.93-1.25,3.88-.98,6.02.28,2.25.66,4.49.77,6.78.04,1.04-.66,2.04-.14,3.01.72,1.35.95,2.8,1.11,4.27.33,3.07.89,6.06,2.78,8.64.17.22.31.55.3.82-.08,2.26.54,4.53-.06,6.78-.32,1.2-.64,2.38-.87,3.6-.42,2.17-1,4.33-1.76,6.4-.98,2.6-2.1,5.12-1.79,8,.17,1.45.04,2.92.21,4.38.31,2.75.45,5.5,1.13,8.22.27,1.09.41,2.25.41,3.38-.03,2.13.09,4.13.86,6.27,1.13,3.14.51,6.54-.76,9.67-.96,2.34-1.58,4.74-1.12,7.23.42,2.38.17,4.62-.54,6.87-.15.48-.45.81-.81,1.18-.67.68-1.62,1.34-1.66,2.34-.14,4.1-2.85,6.51-5.95,8.2-3.79,2.08-7.95,3.47-12.27,4.24-7.02,1.26-14.01,2.52-21.14,3.09-4.92.4-9.86.66-14.8,1-1.25.09-2.57.3-3.81-.33-.33-.18-.68-.08-.98.13-.69.5-1.48.48-2.28.49-2.83.01-5.66.03-8.49.06-.49.01-1.07.04-1.2.66-.13.59.46.71.85.85,3.65,1.26,6.96,3.34,10.57,4.64,6.06,2.17,11.42,5.66,17.02,8.67,3.24,1.74,6.17,4.1,9.18,6.25,4.2,3,8.01,6.45,11.65,10.11,2.29,2.28,4.11,4.82,4.38,8.16.17,2.01-.28,4.04.54,5.98.54,1.29.3,2.69.67,4.05.62,2.3,1.84,4.24,2.87,6.29.91,1.85,1.29,3.87,2.13,5.67,1.44,3.01,1.23,6.35,2.35,9.4.04.09.03.21.01.3-.57,2.94-1.61,5.71-3.23,8.22-1.18,1.84-2.2,3.72-2.47,5.93-.14,1.18-.35,2.35-.86,3.45-.45.96-.59,2.08-.49,3.05.37,3.63,1.81,7.05,2.21,10.7.19,1.74,1.02,3.37.95,5.19-.05,1.22-.03,2.47.12,3.69.23,1.84-.62,3.34-1.66,4.59-1.32,1.56-3.07,2.76-4.53,4.23-2.91,2.94-5.36,6.17-5.82,10.49-.01.14-.03.31-.09.44-.89,1.99-.94,4.17-1.22,6.27-.4,2.98.3,5.9.53,8.83.13,1.63-.01,3.27.17,4.9.37,3.5,1.38,6.89.8,10.56-.32,1.99-1.09,3.5-2.37,4.71-1.04.99-2.39,1.77-3.39,2.83-1.92,2.01-3.9,4.02-4.41,6.99-.41,2.43-1.04,4.82-1.57,7.23-.37,1.72-1.38,3.41-.33,5.25.15.27.04.69.08,1.03.24,2.07.45,4.15.76,6.21.32,2.19,1.21,4.24,1.35,6.48.06.84-.17,1.66.08,2.51.75,2.62.24,5.28.04,7.91-.08.99-.14,2.22-1.22,2.91-1.21.76-2.31,1.77-3.61,2.25-3.59,1.29-7.08,2.75-10.52,4.4-2.12,1.02-4.37,1.74-6.25,3.28-2.48,2.04-5.04,3.97-6.66,6.85-.17.28-.51.46-.73.72-1.22,1.48-2.64,2.83-3.45,4.64-1.58,3.51-2.29,7.28-2.94,11.02-.53,3.07-2.11,5.52-3.64,8.06-.24.42-.66.75-1.14.9-1.43.42-2.83.87-4.32,1.05-3.32.4-6.67.08-9.98.71-2.3.44-4.58,1.02-6.79,1.85-.78.3-1.57.57-2.13,1.25-.96,1.2-2.31,1.84-3.64,2.52-.8.4-1.52.89-2.26,1.38-2.47,1.63-3.77,4.65-6.75,5.67-.12.04-.19.21-.28.33-1.03,1.4-1.79,1.62-3.15.78-.89-.55-1.59-.67-2.28.31-.35.51-1.02.98-1.52.55-1.12-.95-2.21-1.11-3.51-.5-.21.1-.57-.14-.85-.19-3.55-.6-6.21-2.96-9.19-4.65-.95-.54-1.61-1.48-2.64-1.93-1.75-.77-3.43-1.63-4.67-3.21-.36-.48-.98-1-1.77-.94-1.44.1-2.74-.45-3.95-1.13-1.54-.87-3.12-1.45-4.9-1.47-.19,0-.46-.05-.55-.18-.67-1-1.71-.78-2.67-.89-2.12-.21-4.23-.3-6.31-.86-1.2-.31-1.81-1.31-2.82-1.76-2.16-.96-4.49-1.72-4.36-4.78.03-.46-.24-.95-.42-1.41-1.21-3.3-2.44-6.6-3.65-9.89-.69-1.9-3.52-4.14-5.55-4.06-2.2.1-3.6-1.39-5.22-2.35-1.04-.63-2.11-1.39-3.15-1.98-1.12-.64-1.98-1.53-3.02-2.19-1.79-1.17-1.93-3.48-4.01-4.71-2.53-1.47-3.99-4.5-5.98-6.79-.84-.94-1.31-2.33-2.29-3.28-.4-.37-.89-.68-1.17-1.12-1.62-2.49-2.66-5.4-5.22-7.2-.04-.03-.06-.08-.09-.12-.51-1.75-1.88-2.97-2.93-4.33-.71-.9-.75-2.25-1.47-2.79-1.41-1.09-2.28-2.56-3.42-3.82-1.3-1.47-2.42-3.12-3.41-4.76-.85-1.41-1.79-2.75-2.66-4.14-.89-1.4-2.22-2.43-3.12-3.79-.8-1.2-1.12-2.71-2.42-3.6-.41-.28-.5-.81-.69-1.27-.66-1.57-1.4-3.03-2.44-4.45-1.08-1.44-2.57-2.71-3.02-4.65-.24-1.05-.82-2.2-2.34-2.02-.64.06-.94-.48-1.23-.94-.21-.32-.33-.75-.6-1-1.16-1.11-2.71-1.9-2.73-3.87-.01-.59-.69-.89-1.21-.99-1.57-.3-2.06-1.41-2.2-2.76-.09-.87-.55-1.48-1.3-1.62-1.43-.27-2.17-.98-2.26-2.46-.04-.66-.5-1.27-1.16-.54-.86.95-1.03.19-1.27-.39-.67-1.61-2.24-2.6-3.5-3.1-2.62-1.03-2.92-4.04-5.18-5.21-.22-.1-.18-.73-.26-1.12-.1-.46-.28-.94-.8-.95-1.58-.05-1.98-1.27-2.48-2.4-.4-.89-.66-1.86-1.53-2.49-.33-.24-.49-.64-.46-1.05.06-.98-.46-1.74-1-2.42-1.7-2.15-3.21-4.32-4.11-6.99-.67-2.02-2.16-3.81-2.83-5.79-.75-2.24-1.38-4.59-1.92-6.92-.87-3.86-1.2-7.84-2.2-11.65-.91-3.41-1.12-6.84-1.38-10.29-.09-1.29-.12-2.57-.15-3.87-.17-5.48-.99-10.95-.51-16.47.04-.45.09-1-.5-1.07-.69-.08-.64.58-.75,1.04-1.02,4.37-.6,8.86-1.21,13.27-.13.93-.36,1.9-.19,2.8.58,3.07-.1,6.03-.76,8.96-.4,1.75-1.03,3.42-3.12,4.13-2.28.76-5.32-.21-6.12-2.33-.93-2.46-1.74-4.96-1.56-7.65.04-.44.04-.93-.12-1.32-1.23-3.24-1.23-6.69-1.61-10.05-.08-.64-.04-1.44-.96-1.36-.81.06-.67.84-.71,1.4-.18,2.28-.51,4.54-.49,6.81.04,3.54-1.13,6.93-1.04,10.47.04,1.07-.03,2.24-.42,3.2-1.2,2.94-1.5,6.09-2.24,9.14-.45,1.8-.45,3.69-1.09,5.5-.54,1.48-.85,3.07-.96,4.63-.23,3.16-1.39,6.07-2.35,9.01-.75,2.3-2.25,4.28-3.21,6.44-1.38,3.06-2.62,6.2-4.27,9.12-1.12,1.99-2.04,4.19-3.91,5.72-1.09.91-2.29,1.8-3.09,2.94-1.18,1.68-2.44,3.37-3.81,4.83-2.06,2.21-3.9,4.64-5.97,6.84-2.48,2.61-5.18,5.27-6.75,8.68-.3.63-.8,1.12-1.4,1.52-1.16.77-2.12,1.75-2.69,3.03-.24.57-.6,1-.93,1.49-1.16,1.76-2.7,3.15-4.14,4.65-1.72,1.83-2.83,4.23-4.35,6.31-1.39,1.92-2.84,3.82-4.19,5.8-1.47,2.13-3.72,3.74-5.18,5.88-1.49,2.2-2.98,4.31-4.78,6.31-2.15,2.37-3.65,5.32-5.71,7.8-1.2,1.41-1.81,3.19-3.07,4.54-1.98,2.12-3.5,4.58-5.48,6.72-1.97,2.16-4.13,4.15-6,6.44-1.85,2.28-4.67,3.72-7.43,4.99-1.11.5-2.07,1.68-3.27,1.5-1.74-.24-3.2.22-4.69.86-1.93.81-3.99,1.14-5.95,1.77-2.46.8-4.47,2.39-6.53,3.92-1.25.93-2.61,1.72-3.87,2.65-2.1,1.56-4.11,3.23-6.24,4.74-2.47,1.79-5.48,2.2-8.32,3-2.96.82-6.08.68-9.01,1.75-2.37.86-4.62,2.2-7.28,2.11-.54-.03-1.04.28-1.48.64-1.14.94-2.53,1.44-3.86,2.01-2.97,1.29-5.73,3.01-8.76,4.22-1.18.46-2.29.99-3.56,1.21-1.22.22-2.53.37-3.59.95-.66.36-1.03.75-1.77.35-.22-.12-.59-.04-.85.06-1,.39-1.98.21-2.91-.17-.84-.35-1.74-.5-2.6-.55-1.88-.12-3.3-.96-4.36-2.43-1.05-1.48-2.96-2.24-3.51-4.13-.04-.1-.23-.18-.35-.26-2.34-1.39-4.73-2.71-6.71-4.62-.36-.33-.81-.58-1.31-.64-.86-.12-1.71-.41-2.34-.9-1.48-1.12-3.18-1.62-4.81-2.34-3.41-1.54-6.97-1.57-10.43-1.74-2.15-.12-4.04-.62-5.97-1.23-.94-.3-2.12-.82-2.37-1.85-.32-1.45-.93-2.66-1.84-3.81-.33-.44-.63-1.08-.62-1.63.03-1.86-.53-3.61-.72-5.44-.37-3.72-1.85-7.16-3.54-10.31-1.57-2.91-4.32-5.18-6.56-7.73-.15-.17-.44-.24-.62-.4-1.89-1.56-3.92-2.91-6.25-3.65-1.75-.58-2.89-2.17-4.83-2.46-2.64-.37-5.03-1.45-6.92-3.43-.35-.37-.82-.5-1.34-.59-2.58-.48-3.48-1.62-3.51-4.28-.03-2.26-.3-4.53.77-6.7.71-1.41.31-3.15.73-4.62.91-3.18,1.89-6.33,2.64-9.54.18-.77.57-1.47.62-2.29.15-2.76.33-5.55,0-8.29-.22-1.86-.09-3.75-.44-5.58-.71-3.79-2.85-6.74-5.94-9.04-3.12-2.3-5.21-4.96-4.36-9.28.9-4.6,1.84-9.21,2.28-13.89.06-.68.26-1.36.73-1.92.64-.75.67-1.54.32-2.49-.46-1.26-.6-2.69-.12-3.91.42-1.05.28-1.86-.31-2.61-.72-.89-.68-1.57.18-2.26.44-.35.72-.94.13-1.23-1.39-.69-1.4-1.86-1.43-3.15-.01-.72-.19-1.48-.45-2.16-1.7-4.53-5.34-7.75-8.04-11.58-1.25-1.77-1.79-3.3-1.7-5.37.09-1.84,1.02-3.38,1.35-5.13.53-2.73.82-5.57,2.31-8.07.57-.96.71-2.21.5-3.32-.24-1.38-.71-2.69.27-3.99.17-.22.1-.69.01-1-.87-2.78-.96-5.77-2.21-8.45-.9-1.92-1.14-4.08-2.3-5.91-1.16-1.83-1.09-3.86-.42-5.89,1.12-3.41,2.39-6.78,4.14-9.9.77-1.39,1.08-3,2.04-4.24,1.81-2.33,3-4.9,3.28-7.82.24-2.55,1.09-4.98,1.18-7.56.09-2.71,2.29-4.51,3.81-6.51,2.87-3.77,7.12-5.89,10.9-8.55,3.28-2.29,6.92-4,10.34-6.06,5.17-3.1,10.67-5.58,16.24-7.96,5.73-2.44,11.46-4.9,17.34-6.92,3.64-1.23,7.17-2.85,10.99-3.54.58-.1,1.14-.33,1.7-.54.39-.15.71-.41.6-.9-.1-.48-.5-.57-.93-.57-.58.01-1.18.09-1.76.05-4.85-.31-9.72-.48-14.54-.5-5.31-.01-10.58-.36-15.87-.64-8.64-.48-17.27-1.34-25.86-2.56-5.39-.76-10.77-1.52-15.96-3.14-4.44-1.39-8.54-3.5-12.19-6.48-2.16-1.75-3.52-3.81-4.08-6.44-.13-.66-.35-1.18-.77-1.71-2.26-2.89-2.71-6.27-2.43-9.81.05-.75.95-1.29.68-2.06-.71-1.99-.64-4.13-1.52-6.13-1.22-2.76-1.22-5.79-.66-8.73.41-2.19,1.56-4.2,1.41-6.56-.08-1.43.27-2.85.4-4.28.49-5.14,1.79-10.13,1.88-15.38.04-2.79-2.11-5-1.26-7.77.03-.06-.05-.19-.12-.27-1.26-1.68-1.57-3.73-1.94-5.7-.86-4.53-1.07-8.99,1.9-12.95.31-.41.5-.91.5-1.39-.04-2.4.62-4.71,1.11-7.03.82-3.75.86-7.69,2.25-11.33.75-1.97.76-3.86-.31-5.71-1.3-2.25-1.04-4.9-1.86-7.29-1.17-3.37-2.22-6.78-2.84-10.3-.45-2.51-.72-5.01.53-7.42.33-.64.33-1.43.35-2.19.04-3.11-.58-6.18-.49-9.28.09-3.34-.54-6.27-2.47-9.17-2.19-3.27-2.97-7.3-4.89-10.77-.53-.94-.76-2.03-1.09-3.06-.72-2.24-1-4.56-1.71-6.83-1.16-3.65-2.42-7.3-3.16-11.08-.3-1.53-.66-2.85-1.97-3.79-.15-.1-.26-.3-.35-.46-1.71-2.94-3.43-5.88-5.36-8.7-.94-1.38-1.83-2.88-2.01-4.58-.22-1.92-.86-3.66-1.63-5.37-.39-.87-.63-1.76-.85-2.69-.8-3.37-1.05-6.85-2.42-10.08-.19-.46-.09-.86.22-1.23.85-1.05.35-1.89-.54-2.52-2.73-1.92-3.52-4.74-3.78-7.83-.1-1.13-.01-2.25-.18-3.39-.22-1.44.06-2.89.99-4.08,1.54-1.98,2.96-4.04,4.69-5.88,1.32-1.4,2.6-2.83,4.37-3.28,3.21-.84,6.49-1.38,9.75-2.02,5.59-1.12,11.29-1.39,17-1.49,1.81-.04,3.64-.28,5.46-.44h0Z"/>
  </g>
</svg>