<?xml version="1.0" encoding="UTF-8"?>
<svg id="Layer_2" data-name="Layer 2" xmlns="http://www.w3.org/2000/svg" viewBox="0 0 654.5 550.5">
  <defs>
    <style>
      .cls-1 {
        fill:#808080
      }
    </style>
  </defs>
  <g id="Layer_1-2" data-name="Layer 1">
    <path class="cls-1" d="m267.82,243.71c4.97-6.75,9.93-12.81,14.1-19.07,3.18-3.61,5.04-8.2,5.26-13.01-.98-9.37,3.65-18.44,11.82-23.14,1.79-1.09,1.89-2.38,1.79-4.47.14-19.01-4.65-37.72-13.9-54.32-4.28-6.56-7.37-13.82-9.14-21.45-4.87-23.34-8.34-46.97-15.29-69.52-2.34-6.22-1.83-13.16,1.39-18.97,6.26,3.77,6.55,9.93,7.55,16.09,3.08,18.37,1.99,37.04,5.46,55.42,1.98,13.18,6.25,25.92,12.61,37.64,9.6,14.8,14.8,32.02,15,49.66,0,8.74,8.04,8.04,11.52,12.41,1.69,2.09,5.26-2.78,7.65-4.57,7.76-5.99,13.88-13.85,17.78-22.84,6.45-13.32,16.85-24.31,29.79-31.48,9.93-6.06,19.86-12.31,29.2-18.67,4.87-3.26,8.83-7.7,11.52-12.91,4.69-8.29,11.29-15.34,19.27-20.56,2.09-1.49,4.67-3.58,7.05-.99,2.38,2.58,1.09,4.87,0,7.45-4.71,9.11-12.23,16.46-21.45,20.95-19.84,11.12-38.98,23.46-57.3,36.94-7.25,6.14-12.9,13.94-16.49,22.74-4.74,10.25-12.15,19.03-21.45,25.42-2.69,1.26-3.94,4.38-2.88,7.15,1.95,6.66.62,13.84-3.58,19.37-1.15,1.38-1.59,3.22-1.19,4.97,1.8,10.01,2.9,20.13,3.28,30.29,17.62-9.68,34.25-21.05,49.66-33.96,48.07-34.36,98.52-63.86,156.91-76.87,34.46-8.28,70.46-7.6,104.58,1.99,5.1,1.47,9.93,3.75,14.3,6.75,15.59,10.73,16.09,27.41,0,37.64-7.29,4.78-13.24,11.34-17.28,19.07-7.84,15.8-23.78,25.97-41.41,26.42-5.26,0-6.75,1.39-7.45,6.75-4.28,22.29-22.87,39.01-45.48,40.92-5.66,0-7.85,1.69-7.94,8.04-1.04,15.1-9.18,28.81-21.95,36.94-25.12,18.41-56.46,26.25-87.3,21.85-28.82-3.76-56.63-13.14-81.83-27.61-9.71-4.62-19.65-8.73-29.79-12.31.99,8.14,6.95,10.92,12.02,13.8,16.07,8.54,32.77,15.84,49.95,21.85,41.74,14.53,74.62,47.23,89.38,88.88,3.49,7.87,5.16,16.42,4.87,25.03-.99,9.04-5.76,15-14.6,15s-9.14,3.67-8.44,10.53c2.97,13.93-4.13,28.04-17.08,33.96-9.26,3.35-16.78,10.3-20.86,19.27-5.78,9.86-17.53,14.53-28.5,11.32-10.53-1.59-19.86-7.65-30.59-8.24-10.18-1.39-18.92-7.92-23.14-17.28-12.56-23.32-18.11-49.77-15.99-76.17,1.55-30.06-5.81-59.91-21.15-85.81-1.72-3.23-3.28-6.55-4.67-9.93-2.82,10.09-6.13,20.03-9.93,29.79-1.39,2.38-1.39,6.95-5.36,5.66-3.97-1.29-1.79-5.26-1.49-7.94.99-10.24.99-20.55,0-30.79-33.96,18.67-54.62,48.46-70.71,82.43-9.25,19.67-23.75,36.41-41.91,48.36-9.81,7.63-23.04,9.2-34.36,4.07-4.93-1.97-10.19-2.98-15.49-2.98-16.77.59-30.85-12.52-31.45-29.29-.08-2.16.08-4.33.46-6.46,0-2.78,1.49-5.16-1.49-7.94-16.29-14.9-18.27-27.61-7.15-46.97,3.18-5.56,4.37-8.64-2.98-12.41-9.93-5.16-11.12-15.89-3.18-25.92,23.99-31.57,60.71-50.91,100.31-52.83,25.72-1.49,51.24,2.58,76.97,3.58,7.09.51,14.21-.2,21.05-2.09,1.89-.6,4.37-1.39,4.27-3.87-.1-2.48-2.98-1.59-4.67-1.59-21.95-3.28-44.39-.7-66.24-3.77-35.16-4.87-68.23-15.59-93.45-42.7-15.45-14.19-24.6-33.96-25.42-54.92-.16-6.23,1.42-12.39,4.57-17.78,2.09-3.48.99-4.97-1.99-6.95-21.67-11.52-31.93-36.95-24.33-60.28,1.18-3.01-.31-6.41-3.32-7.59-.05-.02-.1-.04-.15-.06-18.57-10.08-28.73-30.79-25.32-51.64.45-2.58-.32-5.22-2.09-7.15-1.86-2.3-3.46-4.8-4.77-7.45C-5.59,15.99,3.05.79,23.61,0c21.34.45,42.23,6.22,60.78,16.78,44.89,21.25,78.16,55.81,106.56,95.44,23.16,32.59,42.92,67.47,58.99,104.08,5.23,9.59,11.21,18.76,17.88,27.41Z"/>
  </g>
</svg>