<?xml version="1.0" encoding="UTF-8"?>
<svg id="Layer_2" data-name="Layer 2" xmlns="http://www.w3.org/2000/svg" viewBox="0 0 636.5 654.5">
  <defs>
    <style>
      .cls-1 {
        fill:#808080
      }
    </style>
  </defs>
  <g id="Layer_1-2" data-name="Layer 1">
    <path class="cls-1" d="m20.77,180.67c12.15-6.87,26.65-5.22,39.39-6.03,26.33-1.6,52.55-4.59,78.88-5.69-2.41.09-6.29-3.59-8.42-4.79-7.04-4-14.29-7.67-21.13-12.17-15.49-10.05-28.57-25.19-41.36-40.56-15.07-18.13-31.26-34.86-45.09-54.93C15.82,45.96-2.62,24.1,6.08,7.47,9.22,1.62,16.5.94,21.31.37c17.3-2.07,35.69,4.77,51.7,13.42,11.39,6.16,22.32,14.13,33.15,21.77,23.8,16.51,46.93,31.44,72.96,39.74,13.05,4.12,26.19,7.51,39.13,11.94,4.87,1.6,9.3,4.37,14.03,6.6,6.69,3.16,13.7,5.29,20.2,9.15,7.25,4.29,13.91,10.72,20.57,16.73,2.99,2.74,13.47,18.98,17.09,17.44,1.93-.79,3.61-9.1,4.11-11.43.24-1.04.86-9.33,1.27-9.56l-6,3.01c-7.39,2.17-14.25-1.13-16.4-11.9-2.48-12.27-3.59-25.71-3.59-38.43,0-8.36-.86-17.3,1.25-25.3.78-3,2.59-8.57,5.43-8.93,5.27-.62.88,6.16-.49,8.38-3.58,6.11-2.49,16.79-2.52,24.06-.04,14.19.7,56.82,18.29,44.73,1.32-.96,4.03-3.41,4.17-5.65.31-3.63-3.58-4.81-5.31-6.44-5.44-4.8-9.12-13.19-8.21-22.18,1.04-10.18,7.17-12.51,13.08-16.32,2.85-1.84,4.45-5.87,7.02-8.29,8.47-7.98,23.31-9.08,31.84-.46,2.49,2.51,4.29,6.89,7.22,8.75,5.88,3.81,12.1,6.13,13.08,16.32.88,8.99-2.74,17.38-8.13,22.18-1.76,1.63-5.65,2.81-5.39,6.44.08,2.24,2.92,4.69,4.17,5.65,17.64,12.09,18.34-30.54,18.26-44.73,0-7.28,1.1-17.95-2.43-24.06-1.34-2.23-5.81-9.01-.54-8.38,2.71.36,4.66,5.93,5.49,8.93,2.05,8,1.19,16.94,1.19,25.3,0,12.72-1.11,26.16-3.63,38.43-2.09,10.77-8.98,14.07-16.34,11.9l-6.09-3.01c.5.23,1.09,8.52,1.42,9.56.36,2.33,2.12,10.64,4.04,11.43,3.57,1.54,14.01-14.71,17.09-17.44,6.68-6.01,13.31-12.44,20.64-16.73,6.55-3.86,13.44-5.99,20.07-9.15,4.72-2.23,9.25-4.99,13.98-6.6,13.01-4.43,26.13-7.82,39.14-11.94,26.09-8.29,49.23-23.23,73.04-39.74,10.9-7.64,21.73-15.61,33.17-21.77,15.99-8.65,34.38-15.49,51.62-13.42,4.85.56,12.26,1.24,15.37,7.09,8.64,16.63-9.69,38.49-16.97,49.03-13.91,20.07-30.04,36.8-45.19,54.93-12.74,15.37-25.85,30.51-41.38,40.56-6.73,4.5-14.1,8.17-21.08,12.17-2.1,1.2-6.05,4.88-8.32,4.79,26.21,1.11,52.49,4.09,78.73,5.69,12.77.81,27.27-.84,39.5,6.03,9.16,5.22,21.34,12.22,20.66,29.05-.38,11.21-7.67,16.7-14.4,20.18-15.92,7.86-31.33,17.6-47.37,25.4-41.43,20.49-87.69,19.05-131.1,16.47-21.24-1.27-51.56,6.94-67.78-17.04-4.09-6.24-7.31-14.21-9.66-22.01-1.94-6.4-3.6-14.46-7.85-18.73-10.44-10.73-12.89,9.06-15.17,18.39-1.71,7.09-4.63,13.67-5.47,21.15-1.68,14.08-4.35,29.55-6.11,44.27-1.73,15.07-1.55,30.25-2.35,45.48-1.32,26.62-.44,53.53-.24,80.24.2,19.89-.1,39.84-.18,59.86-.08,41.94-2.05,83.42-.72,125.43.1,3.19.18,6.33.26,9.4l1.91,14.74,1.32,13.04-.72,5.85-.32,2.28c-1.99,2.89-2.71-11.14-2.63-11.84.36-4.99.72-10.1-3.08-12.86,3.91,2.76-3.32,15.55-8.26,12.13-1.28-.86-7.75-10.1-4.69-12.18-8.11,5.6,1.45,19.68-5.78,24.74l-.44-2.28-.62-5.85,1.32-13.04,1.86-14.74c.11-3.07.18-6.21.34-9.4,1.24-42-.7-83.49-.88-125.43-.02-20.02-.36-39.97-.1-59.86.2-26.71,1.14-53.62-.26-80.24-.75-15.23-.6-30.41-2.28-45.48-1.81-14.71-4.43-30.19-6.11-44.27-.83-7.48-3.77-14.05-5.51-21.15-2.33-9.33-4.77-29.13-15.21-18.39-4.27,4.27-5.85,12.34-7.8,18.73-2.41,7.79-5.46,15.77-9.68,22.01-16.24,23.97-46.49,15.77-67.67,17.04-43.56,2.57-89.69,4.02-131.23-16.47-15.97-7.8-31.36-17.53-47.27-25.4C7.69,226.43.43,220.94.03,209.73c-.68-16.83,11.52-23.84,20.74-29.05h0Z"/>
  </g>
</svg>