<?xml version="1.0" encoding="UTF-8"?>
<svg id="Layer_2" data-name="Layer 2" xmlns="http://www.w3.org/2000/svg" viewBox="0 0 654.5 411.72">
  <defs>
    <style>
      .cls-1 {
        fill:#808080
      }
    </style>
  </defs>
  <g id="Layer_1-2" data-name="Layer 1">
    <path class="cls-1" d="m635.97,143.48c-16.73,2.36-33.06,4.08-50.11,5.09-8.73.5-17.71,1.33-26.39,2.55-8.07,1.09-17.61,5.01-25.45,4.75-10.44,0-21.12-.72-31.59-.99-9.64-.34-18.89-3.28-28.54-2.94-6.49.36-12.88.67-19.19-.58-5.87-1.09-11.43-3.49-17.42-4.12l-28.84-3.01s2.47-10.85,2.61-11.84c.97-6.8-.38-14.22-3.94-20.2-3.27-5.33-7.62-10.63-12.17-14.87-2.94-2.77-7.13-3.71-10.14-6.53-3.7-3.3-2.39-5.52-2.65-9.98-.41-8.58-10.72-16.29-17.66-19.49-4.45-2.08-9.03-.49-9.35-6.07-.02-.48-.47-6.48-.47-6.48l10.7-7.32,15.1-10.73,17.61-12.02,22.02-12.49c3.29-.68,9.84-2.91,3.9-5.68-5.33-2.42-10.56,3.97-14.48,6.6-12.44,8.41-25.12,16.44-37.81,24.44-6.9,4.51-17.32,15.59-26.02,15.11-2.67-.1-4.74-2.46-7.27-3.27-6.39-2.03-15.99-2.03-22.41,0-2.45.8-4.64,3.16-7.27,3.27-8.67.48-19.01-10.6-26-15.11-12.68-8-25.37-16.03-37.76-24.44-3.96-2.63-9.11-9.02-14.43-6.6-6.09,2.77.56,4.99,3.9,5.68l21.92,12.49,17.61,12.02,15.01,10.73,10.78,7.32s-.39,6-.41,6.48c-.33,5.57-4.91,3.98-9.33,6.07-7.03,3.2-17.37,10.9-17.75,19.49-.08,4.46,1.06,6.68-2.58,9.98-2.94,2.82-7.17,3.76-10.15,6.53-4.56,4.24-8.91,9.54-12.14,14.87-3.64,5.98-5,13.4-3.94,20.2.2.99,2.39,11.84,2.39,11.84l-28.6,3.01c-5.97.63-11.6,3.02-17.48,4.12-6.26,1.25-12.79.94-19.18.58-9.5-.34-18.99,2.6-28.51,2.94-10.54.27-21.21.99-31.59.99-7.9.26-17.48-3.66-25.47-4.75-8.74-1.21-17.58-2.05-26.55-2.55-16.87-1.01-33.11-2.73-50.05-5.09-8.66-1.2-28.25,7.98-12.44,13.33,7.37,2.46,15.79,1.9,23.36,3.64,10.13,2.34,20.22,3.83,30.35,5.55,7.66,1.42,14.32,5.78,21.96,7.54,13.13,2.96,26.01-.07,39.28-.07,0,0,17.2-2.1,17.57-2.17,26.06-3.15,51.47-10.56,77.62-13.4,7.97-.97,15.96-.89,23.98-1.21,0,0-2.68,1.74-4.41,9.45-2.09,9.69-5.73,19.43-6.54,29.33-.8,9.37,2.11,13.42,9.6,18.84-.38-.26-10.78,9.93-11.68,10.75-6.17,5.66-7.32,12-5.9,20.85,2.53,17.04-14.04,31.14-6.25,49,2.02,4.55,5.76,8.2,8.29,12.46,4.88,8.17,8.9,16.61,10.85,26.03,1.62,9.04,12.89,40,12.89,40l1.2,10.73c-4.03,1.88-7.99,2.79-10.05,6.94-2.11,4.03-2.7,8.94-2.56,13.37,0,1.45-.41,6,1.15,6.82,3.97,2.27,4.61-4.48,5.25-6.94,1.06-4.84,2.37-6.27,6.74-8.97l4.62-3.03c3.41-2.21,13.25,5.06,16.07,6.63,6.15,3.61,12.11,7.4,19.39,7.96,13.29.94,26.53.32,39.73.1,12.31-.24,24.84.84,37.27-.1,7.32-.56,13.28-4.36,19.43-7.96,2.72-1.57,12.54-8.84,15.83-6.63l4.86,3.03c4.27,2.7,5.6,4.14,6.66,8.97.55,2.46,1.41,9.21,5.32,6.94,1.51-.82,1.16-5.37,1.16-6.82.02-4.43-.5-9.33-2.51-13.37-2.14-4.15-6.11-5.06-10.19-6.94l1.27-10.73s11.17-30.95,12.85-40c1.76-9.42,6.02-17.86,10.82-26.03,2.58-4.26,6.26-7.91,8.32-12.46,7.85-17.86-8.72-31.96-6.17-49,1.25-8.85.11-15.2-5.96-20.85-.92-.82-11.37-11.01-11.72-10.75,7.44-5.42,10.37-9.47,9.61-18.84-.84-9.9-4.43-19.64-6.6-29.33-1.71-7.71-4.35-9.45-4.35-9.45,7.99.33,15.99.24,24.06,1.21,26.07,2.84,51.49,10.26,77.5,13.4.49.07,17.61,2.17,17.61,2.17,13.19,0,26.09,3.03,39.28.07,7.58-1.76,14.28-6.12,21.9-7.54,10.23-1.73,20.26-3.21,30.33-5.55,7.6-1.74,16.01-1.18,23.31-3.64,16.04-5.35-3.67-14.53-12.44-13.33h0Z"/>
  </g>
</svg>