<?xml version="1.0" encoding="UTF-8"?>
<svg id="Layer_2" data-name="Layer 2" xmlns="http://www.w3.org/2000/svg" viewBox="0 0 654.5 550.08">
  <defs>
    <style>
      .cls-1 {
        fill:#808080
      }
    </style>
  </defs>
  <g id="Layer_1-2" data-name="Layer 1">
    <path class="cls-1" d="m145.11,519.92c10.77-16.89,23.75-32.26,38.6-45.71,23.93-22.42,45.44-47.28,64.21-74.17,16.8-26.21,34.94-51.53,54.34-75.87,1.98-1.71,2.43-4.61,1.04-6.83-1.71-2.56-4.36-1.61-6.64,0-37.94,20.58-81.18,20.11-122.35,27.6-2.79.38-5.54.95-8.25,1.71-49.64,14.55-101.29,21.01-152.98,19.16-3.55-.09-7.1-.38-10.62-.85-.85,0-1.61-1.04-2.47-1.71,1.14-2.75,3.51-2.18,5.31-2.09,33.83.97,67.62-3.12,100.25-12.14,44.48-11.95,89.34-24,134.87-32.15,15.02-2.68,29.51-7.8,42.87-15.17,4.18-1.68,7.8-4.51,10.43-8.16-2.47-3.03-5.5-2.18-8.16-2.47-11.34-1.15-22.08-5.67-30.82-12.99-20-15.83-37.38-34.72-51.5-55.96-4.42-5.79-9.34-11.19-14.7-16.12,4.01-2.12,8.88-1.76,12.52.95,14.51,10.3,31.72,16.11,49.51,16.69,27.12,2.09,46.28,18.4,66.39,34.71-2.75-17.64-8.16-34.9-12.61-52.45-9.01-35.85-31.87-63.83-49.7-94.84-9.89-16.6-21.7-31.97-35.19-45.81-17.07-17.83-25.13-41.73-33.67-65.25,7.79,6.35,13.64,14.77,16.88,24.28,10.62,28.45,32.15,48.56,53.59,68.57,5.62,6.49,10.32,13.74,13.94,21.53,8.35,13.47,15.84,27.41,25.32,40.31,17.28,25.57,29.06,54.44,34.62,84.79.24,6.44,2.5,12.64,6.45,17.74,5.52-6.82,10.12-14.35,13.66-22.38,15.84-31.2,33.38-61.65,43.44-95.51,4.27-14.42,5.79-29.69,14.32-42.87,3-6.07,4.52-12.77,4.46-19.54,2.7-20.65,9.13-40.64,18.97-58.99,4.36,1.42,3.22,4.08,2.75,6.35-.49,2.07-1.12,4.09-1.9,6.07-9.93,22.66-16.33,46.72-18.97,71.32-2.76,18.54-8.42,36.53-16.79,53.3-6.1,15.34-10.77,31.22-13.94,47.42-3.61,16.61-10.02,32.49-18.97,46.95-2.22,2.63-2.84,6.26-1.61,9.48,2.09,4.08,5.12.57,7.3,0,17.83-4.33,35.87-7.72,54.06-10.15,35.04-4.08,70.43-4.08,105.46,0,28.73,4.3,57.73,6.42,86.78,6.35,2.28,0,5.03-.76,7.21,2.47-2.28,2.75-5.69,1.61-8.35,1.71-25.79,1.17-51.63.35-77.3-2.47-43.11-3.76-86.54.25-128.23,11.86l-22.67,5.5s-.76.95-1.9,2.56c28.34,1.98,56.06,9.22,81.75,21.34,39.01,16.31,77.64,33.54,115.9,51.69,20.77,9.48,42.01,18.97,62.98,28.45,3.41,1.52,7.59,2.18,9.48,7.4-5.03,1.99-8.82-1.23-12.52-2.85-25.04-10.91-49.32-22.29-74.36-31.77-45.33-17.74-91.62-33.01-138.09-47.42-12.94-5.02-26.72-7.5-40.59-7.3,17.26-.66,29.02,17.36,47.42,13.47,3.4-.63,6.66,1.62,7.29,5.02.06.35.1.7.1,1.05.02,5.07-2.56,9.79-6.83,12.52-3.97,3.37-9.79,3.37-13.75,0-2.53-1.92-4.47-4.52-5.6-7.49-3.51-10.62-11.95-12.42-22.19-13.47,3.79,6.64,12.33,10.62,7.87,18.97-5.24,7.96-14.71,12.02-24.09,10.34,7.87,12.8,16.5,13.66,23.81,2.18,1.76-3.47,5.75-5.19,9.48-4.08,4.84,1.14,2.09,4.08,1.14,6.54-.95,2.47.66,3.13,2.37,3.89,7.97,3.22,4.84,8.82,3.03,14.13-1.8,5.31-7.49,4.93-12.33,4.46-14.8-1.42-23.43-12.71-33.86-21.24,7.68,14.71,18.85,27.32,32.53,36.7,14.71,10.87,28.1,23.41,39.93,37.37,30.08,33.65,62.3,65.33,96.45,94.84,2.37,1.99,6.26,3.6,5.98,8.25-5.6,0-8.16-4.08-11.38-6.92-16.03-14.42-31.3-29.78-47.99-43.53-39.07-32.15-74.83-68.38-116.37-97.69-10.43-7.4-15.74-18.97-23.9-28.45,6.7,37.11,16.7,73.55,29.88,108.88,15.55,35,39.36,64.21,56.53,98.16-23.81-34.05-53.59-64.11-70.66-102.9-16.46-38.29-29.16-78.09-37.94-118.84-6.55,1.97-12.07,6.43-15.36,12.42-21.13,30.56-45,59.13-71.32,85.36-19.73,19.54-37.94,41.07-58.04,60.13-10.92,9-20.5,19.5-28.45,31.2-1.23,1.23-2.66,3.13-7.59,2.47Z"/>
  </g>
</svg>