<?xml version="1.0" encoding="UTF-8"?>
<svg id="Layer_2" data-name="Layer 2" xmlns="http://www.w3.org/2000/svg" viewBox="0 0 654.5 522.89">
  <defs>
    <style>
      .cls-1 {
        fill:#808080
      }
    </style>
  </defs>
  <g id="Layer_1-2" data-name="Layer 1">
    <path class="cls-1" d="m446.16,522.5c-30.63-14.79-53.44-39.91-80.21-59.82-8.6-6.38-2.9-14.5,0-21.74,14.88-46.38,28.99-92.87,45.13-138.86,6.2-13.78,4.22-29.87-5.12-41.75-20.1-27.83-38.65-57.11-58.66-87.74-8.51,10.74-13.08,24.08-12.95,37.78-1.92,36.27.77,72.64,8.02,108.23,6.14,35.87,3.42,72.69-7.92,107.26-1.79,10.18-7.09,19.42-14.98,26.09-20.31-39.79-27.1-85.11-19.33-129.1,6.06-31.31,9.3-63.1,9.66-94.99-.68-18.17,0-36.82-11.21-54.5-9.66,5.12-13.14,14.79-18.36,22.32-11.11,16.04-20.97,32.95-32.66,48.32-8.61,10.3-10.7,24.57-5.41,36.91,15.94,46,29.57,92.77,45.61,138.67,6.34,11.98,2.07,26.84-9.66,33.63-28.79,23.1-58.86,44.55-90.06,64.26l64.36-56.53c5.03-4.99,10.43-9.61,16.14-13.82,11.02-7.25,11.02-16.04,6.96-27.35-16.33-44.94-30.92-90.55-48.32-135.29-8.14-16.73-4.97-36.75,7.92-50.15,17.78-21.74,33.82-46.19,50.64-69.38-6.96-5.41-11.4-.77-15.75,1.35-33.44,16.23-66.48,33.24-100.21,48.99-10.69,4.5-18.09,14.46-19.33,25.99-5.89,34.02-12.95,67.64-18.55,101.85-1.63,12.17-7.94,23.23-17.59,30.83-21.07,17.3-41.46,35.46-63.88,51.89,2.61-9.59,9.04-17.69,17.78-22.42,38.68-26.24,61.31-70.4,60.01-117.12,0-16.62,6.96-33.15,7.34-49.77.48-20.39,11.02-28.99,28.31-35.95,34.4-13.92,68.13-29.76,101.95-45.22,7.66-2.15,14.7-6.05,20.58-11.4-25.51-12.76-41.46-13.63-62.72.97-17.08,11.52-37.4,17.27-57.98,16.43-37.98,0-76.15,2.71-113.84-5.6-12.03-2.23-23.59-6.48-34.21-12.56C5.98,137.77-.72,125.24,1.26,112.48c2.51-13.24,13.63-17.78,25.32-20.2,35.37-7.25,70.64-2.22,105.72,2.03,43,5.12,85.33,14.21,128.62,23.39C234.44,79.05,100.89,37.3,0,24.55c25.51-2.71,50.35,3.77,75.37,7.63,25.33,4.02,50.36,9.8,74.89,17.3,25.29,7.63,49.97,17.16,73.83,28.51,22.92,10.68,44.7,23.63,65.03,38.65,9.18-9.66,8.5-21.36,13.63-30.54,6.67-11.98-8.41-13.24-10.63-21.07-2.9-9.66,14.69-12.95,7.34-23-4.38-5.51-9.6-10.3-15.46-14.21-10.53-7.83-21.55-14.88-35.17-24.35,22.13,3.67,37.78,15.56,54.98,25.51,2.9-13.82-9.66-18.17-11.11-28.99,14.01,4.93,18.36,19.33,28.41,26.28,9.66-2.9,10.92-14.5,20.78-18.26,4.45,5.8-3.87,10.44-1.16,18.17,14.69-3.29,25.51-16.72,46-19.33-15.27,12.18-26.96,21.26-38.65,30.63-6.28,5.41-11.5,11.5-1.84,19.04,2.9,2.32,4.83,7.15,2.32,9.66-21.55,19.33,1.26,34.21,2.8,53.92,53.73-41.36,113.16-63.68,175.39-79.14,36.77-9.43,74.32-15.48,112.19-18.07,5.24-.67,10.43-1.64,15.56-2.9h0c-5.22,8.31-13.82,6.18-21.45,7.34-79.24,11.98-156.64,29.57-226.99,69.96-8.99,5.02-19.33,8.5-25.61,20.78,43.87-8.21,86-18.26,128.91-23.19,32.47-3.67,64.94-9.08,97.79-3.87,6.17.58,12.26,1.81,18.17,3.67,12.97,3.14,20.93,16.2,17.79,29.17-1.23,5.09-4.08,9.64-8.13,12.96-11.44,10.15-25.7,16.58-40.88,18.46-45.51,9.66-91.61,6.57-137.61,4.83-9.85-.27-19.35-3.65-27.15-9.66-22.52-17.97-46.67-18.84-72.77-9.08,2.32,8.31,9.66,8.89,16.04,11.5,36.24,16.52,72.09,34.02,109.1,48.32,16.08,5.25,27.09,20.1,27.44,37.01,4.06,34.31,10.73,68.22,15.07,102.43,1.14,10.57,6.25,20.31,14.3,27.25,26.48,24.64,52.67,49.77,77.89,76.24-7.92-.48-12.56-6.38-17.88-10.92-21.55-18.36-42.33-37.78-64.75-55.08-12.61-9.72-20.79-24.1-22.71-39.91-5.41-32.28-11.69-64.46-17.49-96.63-1.64-8.99-2.42-17.78-12.08-22.42-41.55-20.58-83.3-41.36-128.14-63.88,2.1,9.73,6.84,18.7,13.72,25.9,19.33,26.77,37.78,53.63,57.98,79.53,8.24,9.31,10.21,22.61,5.02,33.92-16.72,44.74-32.28,89.87-48.32,135.29-8.6,24.35-8.6,24.45,11.6,42.04,15.27,13.43,30.73,26.77,46,40.3,3.19,2.8,7.15,5.31,6.28,10.63l.48-.39Z"/>
  </g>
</svg>