<?xml version="1.0" encoding="UTF-8"?>
<svg id="Layer_2" data-name="Layer 2" xmlns="http://www.w3.org/2000/svg" viewBox="0 0 654.5 550.07">
  <defs>
    <style>
      .cls-1 {
        fill:#808080
      }
    </style>
  </defs>
  <g id="Layer_1-2" data-name="Layer 1">
    <path class="cls-1" d="m.23,258.9c2.58-8.78,19.32-7.98,26.4-9.77,6.61-1.7,13.11-3.81,19.94-4.88,5.92-.92,11.99-.2,17.84-1.39,14.7-2.98,29.18-3.99,43.5-9.03,8.31-2.82,16.85-3.61,25.5-4.73,8.16-1.12,16.12-3.45,24.38-4.69,3.65-.52,7.24-.72,10.96-.76,5.04-8.54,11.18-16.59,19.07-23.65,5.81-5.18,8.97-10.42,10.92-15.67-7.24.58-14.75.07-21.85-1.32-4.95-1.03-12.78,0-18.22,0s-7.42.45-8.92,0c-6.05-2.06-11.48-.78-12.21-8.03-2.2-20.71,16.41-37.92,23.51-55.74-.72,1.95-1.68,3.9-2.37,5.81,2.78-4.68,6.79-9.93,5.47-15.67-1.14-5.4-6.34-7.87-9.77-11.67-5.2-5.38-9.82-11.25-15.58-15.98-4.46-3.63-10-5.49-14.28-9.35-4.82-4.41-2.82-1.91-7.84-5.85-2.73-2.22-4.95-5.35-7.89-7.31-2.8-1.95-4.77-.87-7.46-1.95-4.55-1.63-3.34-6.36,1.99-7.8,6.99-1.86,12.1,5.49,16.88,9.3,4.68,3.74,9.93,5.65,15.62,7.28,5.52,1.54,8.81,5.44,12.8,9.1,4.1,3.9,9.1,6.36,13.47,9.91,17.97,14.7,18.71,35.41,6.25,54.3-3.43,5.24-8.87,8.7-12.37,13.87-20.26,29.81,30.41,14.34,43.37,13.58.61-.07,1.7.09,2.55.2.49-6.79.87-13.99,3.01-22.06,5.38-19.12,26.47-21.99,37.7-36.42,5.42-7.15,3.2-15.67,6.66-23.49,6.9-16.23,25.24-10.78,34.13-22.95,7.42-10.13-5.27-23.33-8.72-32.74l-.98-7.91c-.52-4.5-3-19.05,2.73-21.16,8.4-3.03,6.99,16.43,7.13,20.04.9,24.92,21.94,24.3,40.99,23.94v-.09h5.42v.09c19.09.36,40.23.99,40.97-23.94.2-3.61-1.28-23.06,7.17-20.04,5.69,2.11,3.2,16.65,2.69,21.16l-.96,7.91c-3.39,9.41-16.09,22.61-8.7,32.74,8.88,12.17,27.12,6.72,34.22,22.95,3.36,7.82,1.16,16.34,6.59,23.49,11.18,14.43,32.27,17.3,37.67,36.42,2.22,8.07,2.55,15.26,3.02,22.06.87-.11,1.88-.27,2.62-.2,12.8.76,63.56,16.22,43.32-13.58-3.5-5.18-9.03-8.63-12.46-13.87-12.3-18.89-11.65-39.6,6.32-54.3,4.39-3.54,9.32-6.01,13.49-9.91,3.94-3.65,7.33-7.55,12.77-9.1,5.63-1.64,10.87-3.54,15.55-7.28,4.82-3.81,9.97-11.16,16.94-9.3,5.45,1.43,6.55,6.16,1.99,7.8-2.69,1.08-4.66,0-7.51,1.95-2.87,1.95-5.15,5.09-7.89,7.31-4.93,3.94-2.98,1.44-7.87,5.85-4.24,3.85-9.77,5.71-14.23,9.35-5.72,4.73-10.4,10.6-15.56,15.98-3.49,3.81-8.56,6.27-9.75,11.67-1.32,5.74,2.64,10.98,5.42,15.67-.74-1.91-1.63-3.86-2.33-5.81,7.08,17.82,25.62,35.03,23.55,55.74-.83,7.24-6.32,5.96-12.39,8.03-1.37.45-3.36,0-8.83,0s-13.31-1.03-18.22,0c-7.08,1.39-14.61,1.9-21.81,1.32,1.93,5.24,5.06,10.49,10.8,15.67,7.98,7.06,14.1,15.11,19.12,23.65,3.7.04,7.4.25,11,.76,8.2,1.23,16.18,3.56,24.45,4.69,8.52,1.12,17.15,1.9,25.42,4.73,14.36,5.04,28.8,6.05,43.59,9.03,5.74,1.19,11.9.47,17.75,1.39,6.79,1.08,13.43,3.18,20.06,4.88,6.99,1.79,23.78.99,26.31,9.77,1.17,4.15-2.49,13.36-7.98,11.25-4.41-1.7-4.35-7.62-7.66-10.49-3.88-3.38-9.35-2.31-14.05-1.55-9.17,1.43-17.79-1.68-26.94-1.84-11.41-.2-23.2.04-34.22-3.65-11.63-3.81-20.17-12.08-32.47-14.28-12.68-2.26-25.57-1.82-38.39-1.34,6.72,15.62,10.6,32.63,13.42,49.73,2.96,18.2,3.54,36.8,3.09,55.33,6.88.99,13.76,2.11,20.33,4.33,2.93.96,13.85,6.83,15.33,7.91,1.46.96,1.99,3.9,5.89,5.9,23.29,11.56-3.85,42.65-11.56,55.54-2.64,4.43-2.64,11.88-5.29,15.53,0,0-2.35,3.5.65,5.38,6.34,4.33,14.19,6.9,20.95,10.65,7.84,4.33,15.58,9.1,24.07,12.17,6.23,2.22,12.84,1.34,18.8,5,4.24,2.51,5.69,7.8,9.86,10.47-2.55,2.58,1.55,7.26-4.24,6.95-5.31-.32-8.09-5.09-12.15-7.71-4.3-2.74-9.12-3.03-14.1-3.54-7.82-.78-13.38-6.99-20.4-10.02-8.94-3.9-18.62-6.07-26.74-11.83-14.19-10.11-12.01-22.43-4.08-36.98,4.86-8.74,22.44-30.52,17.8-41.3-4.46-10.29-21.4-10.58-35.81-10.02-1.77,22.45-5.72,44.73-11.43,66.11-8.85,33.35-20.48,71.2-46.46,95.45-13.2,12.35-32.9,23.09-50.83,26.27-24.94,4.42-48.03-.72-72.46-1.5-24.4.78-47.58,5.92-72.48,1.5-17.86-3.18-37.61-13.92-50.76-26.27-26.15-24.25-37.72-62.1-46.57-95.45-5.69-21.38-9.52-43.66-11.41-66.11-14.41-.56-31.26-.27-35.7,10.02-4.68,10.78,12.89,32.56,17.8,41.3,8,14.55,10.11,26.87-4.17,36.98-8.05,5.76-17.77,7.93-26.67,11.83-6.99,3.03-12.68,9.23-20.39,10.02-4.98.51-9.77.81-14.16,3.54-4.06,2.62-6.77,7.39-12.06,7.71-5.78.31-1.66-4.37-4.24-6.95,4.03-2.67,5.58-7.96,9.84-10.47,5.94-3.65,12.51-2.78,18.83-5,8.5-3.07,16.14-7.84,24.05-12.17,6.86-3.74,14.61-6.32,21.05-10.65,2.94-1.88.49-5.38.49-5.38-2.6-3.65-2.6-11.09-5.25-15.53-7.66-12.89-34.89-43.97-11.52-55.54,3.85-2,4.44-4.93,5.78-5.9,1.55-1.08,12.39-6.95,15.4-7.91,6.52-2.22,13.4-3.34,20.26-4.33-.4-18.53.25-37.13,3.23-55.33,2.69-17.1,6.57-34.11,13.29-49.73-12.84-.47-25.68-.92-38.37,1.34-12.33,2.2-20.89,10.47-32.47,14.28-10.94,3.7-22.82,3.45-34.16,3.65-9.14.16-17.88,3.27-27.01,1.84-4.7-.76-10.13-1.84-14.05,1.55-3.25,2.87-3.14,8.79-7.66,10.49-5.49,2.11-9.12-7.1-7.91-11.25H.23Z"/>
  </g>
</svg>