<?xml version="1.0" encoding="UTF-8"?>
<svg id="Layer_2" data-name="Layer 2" xmlns="http://www.w3.org/2000/svg" viewBox="0 0 654.5 566.8">
  <defs>
    <style>
      .cls-1 {
        fill:#808080
      }
    </style>
  </defs>
  <g id="Layer_1-2" data-name="Layer 1">
    <path class="cls-1" d="m395.63,313.74c8.47,4.74,15.21,6.95,22.76-.08,6.43-5.97,14.83-8.27,23.41-10.25,8.96-2.06,26.74,4.89,25.33-5.47-1.99-14.59-17.17-1.11-26.57-2.26-17.21-2.13-33.25.39-44.92,18.07h0Zm-104.13-6.92c.23-5.09-.03-10.25-4.87-13.11-5.17-3.05-9.52,1.49-13.36,3.49-8.93,4.69-6.71,14.91-8.93,22.85-1.3,4.66-7.25,11.63.44,13.92,6.09,1.81,15.09,2.24,19.08-6.65,3-6.67,7.25-12.88,7.64-20.51h0Zm33.13,29.03c12.25-8.62,25.62-17.35,38.16-27.15,6.02-4.7-.08-24.78-6.53-23.12-11,2.84-25.67-.96-32.29,12.65-2.17,4.44-10.83,8.07-2.26,15.14,5.61,4.64-1.65,5.19-3.87,6.6-3.81,2.44-12.21.82-10.88,7.34,1.42,7.04,10.47,4.63,17.67,8.54h0Zm211.63,24.62c22.37,7.35,36.09,21.44,47.12,38.32,8.33,12.74,16.83,24.64,34.12,26.01-17.51,8.14-34.74,2.26-43.66-10.62-17.87-25.78-38.89-31.68-68.68-26.66-14.78,2.49-24.74,9.08-38.3,17.62,35.86,24.19,37.44,74.02,78.07,93.2-15.76,3.49-31.19-2.32-42.34-17.23-8.89-11.87-16.6-24.64-24.52-37.21-4.04-6.41-4.91-14.78-16.16-14.36-17.31.63-34.96-1.63-50.69,7.79-5.76,3.44-.64,7.64,1.25,10.83,11.07,18.63,22.9,36.85,30.95,57.08,4.71,11.86,19.44,9.96,27.82,22.68-19.06-.94-33.04-7.27-42.79-20-9.64-12.6-19.07-26.2-24.56-40.85-4.54-12.1-11.58-14.51-22.09-15.14-44.57-2.65-46.66-1.15-29.94,38.64,10.41,24.79,8.54,54.47,31.2,75.25-10.72,3.76-14.63-4.11-18.98-8.9-16.33-17.91-23.93-40.17-29.57-63.19-5.89-24.07-26.77-39.72-51.25-38.07-6.1.42-12.18,1.27-18.03,1.9-2.36,5.41,1.27,8.62,3.27,12.3,12.46,23.01,8.81,42.07-16.21,48.24-32.78,8.07-61.35,27.29-94.58,32.22-19.5,2.89-37.91,11.46-58.35,9.68-24.13-2.09-44-10.98-59.87-32.57,14.97.48,24.86,9.83,36.82,12.69,12.3,2.93,24.39,4.34,35.38-6.89-21.38-17.16-46.1-25.33-73.18-31.67,5.22-9.24,12.5-11.44,20.55-12.14,21.67-1.87,42.7-6.89,63.77-12.05,27.55-6.75,53.65-2.06,75.11,16.25,11.47,9.8,16.95,1.87,25.23-2.42,10.11-5.22,4.16-10.37,2.4-17.39-4.08-16.26-12.48-32.25-7.12-50.09-5.57-3.48-10.63.31-15.94.91-6.69.78-13.53.68-20.25.21-1.69-.12-3.17-3.16-4.74-4.85,12.94-9.89-15.82-16.13-2.1-26.82,11.85-9.25,12.69-19.3-1.66-27.7-7.76-4.54-3.91-17.88-14.59-19.82-11.94-2.18-22.6-4.56-33.21,7.62-12.44,14.28-28.63,25.47-43.95,37.01-22.66,17.05-49.96,17.62-80.39-.88,33.04,1.38,61.32,1.82,74.84-26.77-31.16-21.51-54.31-4.55-76.41,19.54,15.67-35.39,27.17-72.68,71.33-80.39,13.87-2.41,28.12-1,39.29,6.95,8.61,6.12,14.95,7.05,24.82,4.15,25.34-7.5,48.01,1.67,63.42,23.25,2.3,3.24,2.41,8.55,10.49,10.27,0-13.57-.13-26.29.08-39.02.08-4.28.46-8.77,1.78-12.81,2.68-8.14,5.25-19.89,14.79-18.74,7.99.96,8.33,13.01,8.17,20.71-.17,9.68,5.18,20-5.15,29.19-4.59,4.08-3.43,14.11.27,21,.63,1.18,4.61,1.43,6.67.84,9.38-2.65,6.37-10.88,6.85-17.12,1.79-23.83,7.4-45.26,31.08-57.25,9.7-4.91,18.02-5.38,23.05,5.76,4.97,10.94,10.6,8.85,18.11,2.64,8.1-6.69,17.04-12.13,27.03-16.02,14.42-5.64,25.11-5.13,29.13,12.84,3.05,13.64,8.46,16.13,21.5,7.03,20.47-14.31,45.27-15.06,69.54-14.8,3.36.04,8.31,2.01,9.73,4.62,9.1,16.56,23.1,13.04,37.16,10.03,2.86-.62,7.13-.56,8.3-2.4,19.8-31.11,48.44-52.74,78-73.37,3.61-2.53,1.82-5.21,2.24-7.92.58-3.64.11-8.51,2.26-10.67,17.9-17.87,8.35-44.6,21.2-63.92,2.84-4.26,1.03-7.98-.32-12.23-2.04-6.44-4.02-13.21-4.14-19.86-.6-29.64-13.21-53.94-38.1-70.52-12.57,41.36-47.69,55.44-82.82,69.58-2.62-2.85.2-4,.98-4.32,19.1-7.95,28.28-20.61,26.54-42.78-1.63-20.75,11.3-32.96,31.5-37.33,16.2-3.51,30.84-16.16,49.27-5.05,19.29,11.63,29.5,29.06,37.99,48.8,15.09,35.15,14.83,72.85,7.95,107.89-4.23,21.63-1.73,50.1-25.67,65.96-1.99,1.32-1.75,6.93-1.58,10.49.94,18.32-6.57,32.92-16.57,47.95-9.05,13.6-12.26,32.33-28.63,39.18-17.36,7.27-25.19,23.53-41.27,35.71h0Z"/>
  </g>
</svg>