<?xml version="1.0" encoding="UTF-8"?>
<svg id="Layer_2" data-name="Layer 2" xmlns="http://www.w3.org/2000/svg" viewBox="0 0 654.5 549.37">
  <defs>
    <style>
      .cls-1 {
        fill:#808080
      }
    </style>
  </defs>
  <g id="Layer_1-2" data-name="Layer 1">
    <path class="cls-1" d="m.71,404.08c3.3-10.25,12.68-19.41,19.14-27.75,23.65-30.45,44.76-62.29,66.96-93.77,14.04-19.85,27.97-39.73,42.07-59.54,1.58-2.27,2.89-4.67,4.3-6.96,10.83-17.1,20.78-38.29,38.86-48.92,12.98-7.55,24.44-2.41,37.1,2.83,13.57,5.51,27.4,10.37,41.56,13.87,11.36,2.8,22.4,7.05,33.36,11.43,2.51.98,9.85,2.53,10.04-2.47.15-3.08-5.98-5.32-8.02-6.67-7.1-4.57-14.27-9-21.38-13.56-14.19-9.16-28.53-18.13-42.35-27.96-6.13-4.33-11.87-8.41-17.13-13.83-5.98-6.26-12.32-13.46-20.89-16.07-13.89-4.2-28.89-.04-42.78,2.57-14.4,2.72-29.1,5.8-42.14,12.81-15.64,8.42-30.42,18.3-46.69,25.39-9.47,4.11-16.59,10.31-25.08,16.03-5.17,3.52-11.64,12.02-18.76,10.04-6.94-1.85-4.19-11.69-1.47-16.09,3.96-6,8.83-11.38,14.49-15.72,11.55-8.86,25.04-14.7,37.54-21.78,9.62-5.44,19.4-10.63,29.5-15.17,8.89-3.97,17.7-8.09,26.8-11.66,18.25-7.09,37.61-12.31,57.26-10.12,19.87,2.17,32.2,15.58,46.18,28.11,15.55,13.84,34.23,22.99,52.07,33.22,6.34,3.64,12.63,7.16,18.87,11,1.28.75,10.89,5.48,10.98,6.99l-.43-7.84c-.32-4.58-11.4-12.45-14.15-16.33-4.76-6.41-8.04-13.64-11.34-20.79-3.93-8.73-7.85-17.95-12.46-26.11-5.17-9.35-8.72-19.25-12.89-29.1-2.89-6.85-6.91-12.96-10.02-19.69-4.32-9.44-4.3-20.4-12.55-27.75-6.34-5.85-16.34-9.33-25.1-8.43-5.62.59-13.47,8.46-19.02,6.79-5.13-1.58-2.64-7.75-.66-10.92,2.51-3.98,6.21-6.61,10.72-8.18,14.19-4.95,33.59.14,46.31,7.23,8.49,4.69,10.21,12.36,13.89,20.6,6.1,13.26,9.17,28.27,15.34,41.2,11.59,24.01,22.21,48.52,34.01,72.36,1.28,2.59,8.32,9.31,8.49,11.25-.17-3.55-1.55-10.06-.04-13.28,2.34-4.72,10.27-2.76,11.81,1.52.34,1.03,1.6,13.63,1.21,13.63h6c-.45,0,.83-12.6,1.26-13.63,1.42-4.29,9.44-6.24,11.66-1.52,1.62,3.22.26,9.73,0,13.28.1-1.95,7.23-8.67,8.49-11.25,11.91-23.83,22.5-48.35,34.01-72.36,6.28-12.93,9.34-27.94,15.38-41.2,3.74-8.24,5.42-15.91,13.91-20.6,12.76-7.09,32.1-12.18,46.29-7.23,4.42,1.56,8.17,4.2,10.76,8.18,2.02,3.17,4.49,9.34-.7,10.92-5.64,1.67-13.44-6.2-19-6.79-8.76-.89-18.74,2.59-25.21,8.43-8.25,7.35-8.06,18.31-12.42,27.75-3.15,6.73-7.17,12.84-10.02,19.69-4.17,9.85-7.72,19.75-13.02,29.1-4.49,8.16-8.44,17.38-12.34,26.11-3.27,7.16-6.63,14.38-11.29,20.79-2.81,3.87-13.91,11.74-14.21,16.33l-.36,7.84c0-1.51,9.64-6.24,10.89-6.99,6.19-3.84,12.51-7.36,18.87-11,17.85-10.22,36.61-19.38,52.03-33.22,14.06-12.53,26.4-25.94,46.25-28.11,19.7-2.18,39.05,3.03,57.24,10.12,9.06,3.56,17.89,7.69,26.82,11.66,10.08,4.54,19.93,9.72,29.5,15.17,12.57,7.08,26.04,12.92,37.55,21.78,5.66,4.34,10.57,9.72,14.42,15.72,2.79,4.4,5.55,14.24-1.41,16.09-7.06,1.98-13.57-6.52-18.82-10.04-8.47-5.72-15.51-11.92-25.04-16.03-16.27-7.08-31.04-16.96-46.61-25.39-13.1-7.01-27.82-10.08-42.16-12.81-13.81-2.62-28.99-6.77-42.8-2.57-8.61,2.62-14.89,9.82-20.89,16.07-5.21,5.41-10.95,9.5-17.1,13.83-13.78,9.83-28.21,18.8-42.44,27.96-7.08,4.56-14.29,8.99-21.29,13.56-2.11,1.35-8.17,3.58-8.13,6.67.26,5,7.64,3.45,10.17,2.47,10.85-4.38,21.83-8.64,33.35-11.43,14.12-3.5,27.99-8.36,41.48-13.87,12.68-5.23,24.08-10.38,37.2-2.83,17.95,10.64,27.95,31.82,38.71,48.92,1.51,2.29,2.83,4.69,4.45,6.96,14,19.8,27.99,39.69,42.05,59.54,22.21,31.47,43.22,63.32,66.92,93.77,6.42,8.34,15.8,17.5,19.12,27.75,1.66,5.03.55,10.77-4.83,12.96-14.98,6.13-28.14-24.1-35.06-32.86-11.55-14.33-22.82-28.84-34.01-43.33-10.95-14.05-19.1-29.94-28.31-44.96-9.55-15.5-21.76-28.94-33.44-42.76-13.13-15.52-22.74-33.85-33.57-50.9-12.82-19.95-38.46-6.82-56.39-2.34-21.57,5.38-43.39,9.58-65.11,14.35,1.94-.48,6.45,1.72,8.3,2.28,17.29,4.72,34.71,6.68,52.31,9.1,14.66,2.03,29.38,6.55,38.8,18.48,8.11,10.32,13.15,22.69,18.53,34.49,16.21,35.27,30.03,71.22,43.56,107.51,4.11,10.83,8.28,21.59,12.68,32.19,7.15,17.24,14.34,34.51,21.46,51.77,6.36,15.15,15.46,30.98,19.51,46.9,2.34,9.22,7.59,25.46-3.83,30.94-20.7,9.87-27.29-32.64-30.44-43.35-11.34-39.09-25.61-77.5-41.27-115.05-7.44-17.86-12.87-36.35-19.78-54.35-4-10.2-8.53-20.21-13-30.25-5.25-12.02-7.11-26.56-16.12-36.57-9.47-10.46-24.44-12.89-37.8-14.18-12.04-1.14-25.12-3.45-37.18-3.45h-17.15c5.62,8.26,12.68,14.58,18.78,22.36,2.98,3.87,4.76,8.9,7.15,13.16,16.4,30.07,17.74,68.01,5.53,99.79-5.53,14.55-13.02,28.85-23.78,40.35-23.72,25.58-60.62,25.32-84.13,0-10.74-11.51-18.29-25.8-23.84-40.35-12.21-31.79-10.83-69.73,5.55-99.79,2.45-4.25,4.19-9.29,7.12-13.16,6.13-7.77,13.23-14.09,18.85-22.36h-17.14c-12.13,0-25.16,2.31-37.23,3.45-13.27,1.29-28.29,3.72-37.74,14.18-9.08,10.01-10.96,24.55-16.19,36.57-4.42,10.04-8.98,20.05-12.91,30.25-6.93,18-12.44,36.49-19.8,54.35-15.68,37.54-29.99,75.96-41.35,115.05-3.13,10.71-9.66,53.22-30.38,43.35-11.44-5.48-6.13-21.72-3.85-30.94,4.04-15.91,13.19-31.75,19.48-46.9,7.13-17.26,14.38-34.53,21.46-51.77,4.42-10.6,8.62-21.37,12.66-32.19,13.55-36.29,27.44-72.24,43.63-107.51,5.45-11.81,10.38-24.18,18.59-34.49,9.38-11.93,24.1-16.45,38.65-18.48,17.7-2.42,35.08-4.38,52.33-9.1,1.9-.55,6.38-2.76,8.38-2.28-21.74-4.76-43.63-8.97-65.2-14.35-17.85-4.48-43.57-17.61-56.31,2.34-10.91,17.05-20.51,35.39-33.53,50.9-11.78,13.81-23.93,27.26-33.54,42.76-9.21,15.02-17.27,30.91-28.25,44.96-11.29,14.5-22.48,29-34.01,43.33-6.95,8.76-20.04,38.99-35.14,32.86-5.34-2.19-6.45-7.92-4.79-12.96h0Z"/>
  </g>
</svg>