<?xml version="1.0" encoding="UTF-8"?>
<svg id="Layer_2" data-name="Layer 2" xmlns="http://www.w3.org/2000/svg" viewBox="0 0 395.96 654.5">
  <defs>
    <style>
      .cls-1 {
        fill:#808080
      }
    </style>
  </defs>
  <g id="Layer_1-2" data-name="Layer 1">
    <path class="cls-1" d="m392.37,389.27c-9.75-2.49-17.93-9.08-22.44-18.06-1.53-3.07-6.35-5.04-9.96-6.79-7.02-3.85-14.34-7.11-21.9-9.74-14.08-4.23-26.39-12.96-35.03-24.85-4.67-6.79-11.05-12.23-18.5-15.77-10.95-4.38-20.14-12.48-30.65-16.53-15.44-6.02-19.82-17.63-24.3-31.31,5.8.88,8.43,5.04,12.04,7.77,14.01,10.4,20.03,10.4,34.92,1.2,7.3-4.91,13.24-11.57,17.3-19.38,6.79-11.71,7.55-25.73,14.01-37.66,1.19-2.15.93-4.8-.66-6.68-7.01-7.88-1.97-13.69,3.17-19.71,4.9-4.32,7.69-10.55,7.66-17.08,0-1.8-1.21-3.38-2.96-3.83-1.7-.63-3.59.24-4.22,1.94-.02.05-.03.09-.05.14-1.39,6.89-4.91,13.18-10.07,17.95-6.12,5.55-9.25,13.67-8.43,21.9,1.41,8.12.46,16.49-2.74,24.09-13.36-4.93-22.66-15.66-35.8-19.38-8.86-4-19.29-1.68-25.62,5.69-6.67,11.16-21.12,14.8-32.28,8.14-1.34-.8-2.59-1.73-3.74-2.77-5.36-3.61-9.63-5.91-9.52-12.59-.52-6.89,4.17-13.09,10.95-14.45,11.59-4.54,24.54-4.11,35.8,1.2,6.88,5.09,16.41,4.53,22.66-1.31,5.64-5.49,7.37-13.85,4.38-21.13-9.94-36.2-28.76-69.35-54.74-96.45-6.4-5.35-11.49-12.09-14.89-19.71-3.11-12.02-9.88-22.77-19.38-30.76-6.11-3.83-8.6-11.48-5.91-18.17.55-2.3,1.2-4.49,1.75-6.79.55-2.3,1.64-7.66-2.96-8.32-4.6-.66-4.6,3.28-4.82,6.13-2.27,13.84-3.66,27.81-4.16,41.82-.19,7.65,3.02,14.98,8.76,20.03,9.52,8.65,9.2,8.98,1.97,18.72-18.17,24.3-18.17,24.85,0,50.8,1.64,2.41,3.72,4.6,5.15,7.12,5.2,7.83,7.02,17.42,5.04,26.6-3.39-18.17-23.54-23.76-29.45-39.96-1.09-2.96-4.71-2.96-7.66-1.75-2.96,1.2-5.26,1.97-4.71,4.49,3.61,16.31-8.65,30.76-4.93,47.19-6.14-7.28-8.82-16.87-7.34-26.28.44-8.74,0-17.51-1.31-26.17,0-4.93-3.07-11.5-7.01-10.95-10.95,1.64-15.66-9.63-25.18-9.74-7.88,0-10.95-4.82-8.43-11.71,3.23-10.21.48-21.36-7.12-28.9-6.02-7.88-10.95-16.64-16.09-24.96-1.42-2.55-3.07-4.97-4.93-7.23-1.46-1.69-4.02-1.88-5.71-.42-.15.13-.29.27-.42.42-1.3,1.27-1.33,3.34-.06,4.64.02.02.04.04.06.06,2.83,2.96,5.47,6.1,7.88,9.42,2.19,3.83,6.02,7.99,2.74,12.81-4.48,8.34-5.36,18.15-2.41,27.15,2.95,17.13,2.95,34.65,0,51.78-5.08,30.09-3.21,60.95,5.47,90.21,1.28,5.71,3.82,11.06,7.44,15.66,6.35,9.21,18.96,11.52,28.17,5.17,2.38-1.64,4.39-3.78,5.88-6.27,2.19-2.85,3.72-6.02,5.91-8.76,6.92-8.04,16.32-13.54,26.71-15.66,7.15-1.56,14.49,1.67,18.17,7.99,4.6,6.46-.88,9.2-4.93,12.59-1.64,1.63-2.82,3.67-3.39,5.91-1.42,6.44-7.79,10.5-14.22,9.08-.79-.17-1.57-.43-2.31-.76-3.39-.77-7.01-.88-10.29-1.86-12.17-4.29-25.62,1.28-31.2,12.92-4.38,6.9-7.99,14.34-11.93,21.9-5.26,9.31-5.8,9.74-14.01,2.85-14.67-11.59-30.53-21.61-47.3-29.89-2.52-1.42-4.93-4.38-7.34-1.31-2.41,3.07,0,6.79,3.07,8.65,3.47,2.14,7.14,3.93,10.95,5.36,5.91,2.74,12.81,5.8,14.45,12.04,1.93,8.05,8.83,13.93,17.08,14.56,7.26,2.08,13.94,5.83,19.49,10.95,6.27,5.25,13.83,8.73,21.9,10.07,20.03,3.61,27.48,0,37.11-18.83,0-.77,1.75-1.2,3.39-2.41,4.01,5.9,3.56,13.76-1.09,19.16-9.96,13.03-15.87,28.68-27.81,40.4-6.61,6.05-9.7,15.03-8.21,23.87,2.59,11.57-3.25,23.38-14.01,28.36-23.65,12.92-38.54,34.81-55.62,54.74-2.19,2.41-3.07,5.15,0,7.66,2.23,1.95,5.62,1.72,7.57-.52.07-.08.14-.16.2-.25,1.34-1.11,2.51-2.4,3.5-3.83,9.96-17.95,28.25-27.59,41.49-42.15,5.39-6.32,12.56-10.86,20.58-13.03,1.5,9.71.41,19.64-3.17,28.79-3.11,11.26-2.22,23.26,2.52,33.94,8.72,26.01,20.71,50.81,35.69,73.79,2.66,5.19,4.71,10.66,6.13,16.31,6.42,18.19,14.44,35.78,23.98,52.55,4.59,8.91,11.71,16.26,20.47,21.13,6.78,4.86,16.22,3.29,21.08-3.49.8-1.12,1.44-2.34,1.91-3.63,5.91-12.15,9.85-13.58,21.02-5.91,11.17,7.66,21.9,12.7,32.84,20.58,10.95,7.88,18.39,5.26,21.9-3.94,5.36-13.9,17.52-23.1,22.66-37.33,3.39-9.52,11.6-10.29,19.82-4.38,13.25,9.52,21.9,7.66,28.68-6.68,5.57-12.35,7.03-26.17,4.16-39.41-4.85-25.88-5.77-52.34-2.74-78.5,3.61-25.29-3.17-49.92-5.26-74.88-1.2-8.99-5.68-17.22-12.59-23.1-8-7.91-14.76-16.99-20.03-26.93,19.41,8.5,37.96,18.84,55.4,30.87,6.35,4.16,13.03,7.88,19.6,11.71,1.74,1.4,4.29,1.12,5.69-.62.12-.15.23-.31.33-.47,1.43-1.95,1.01-4.69-.94-6.12-.53-.39-1.15-.66-1.8-.78Z"/>
  </g>
</svg>