<?xml version="1.0" encoding="UTF-8"?>
<svg id="Layer_2" data-name="Layer 2" xmlns="http://www.w3.org/2000/svg" viewBox="0 0 642.48 654.5">
  <defs>
    <style>
      .cls-1 {
        fill:#808080
      }
    </style>
  </defs>
  <g id="Layer_1-2" data-name="Layer 1">
    <path class="cls-1" d="m108.93,526.33c.21-.7-.91-.36-.96-.96-.05-.73-.55-.78-1.01-.53-.49.26-.47.9-.29,1.29.31.68,1.05.83,1.74.93.44.05.53-.25.52-.73h0Zm2.3-1.14c-.31-.1-.45.05-.58.23-.16.22-.08.44.1.57.58.36,1.22.61,1.55,1.35.17.42.69.08,1.03-.03.43-.12.51-.51.51-.91-.01-.45-.22-.77-.66-.77-.71,0-1.42.04-1.93-.45h0Zm-52.12,85.85c.25.44-.16,1.3.77,1.18,1.14-.16,1.21-1.28,1.57-2.05.27-.53-.58-.7-.84-.68-.87.1-1.41.65-1.49,1.55h0Zm566.69-195.1c.04.99.4,1.7,1.51,1.71.57,0,1.2-.23,1.07-.92-.19-1.04-1.14-1.41-2.01-1.66-.7-.21-.45.52-.56.87h0Zm-30.06-87.96c.79-.13.81-1.06,1.09-1.75.17-.43.73-1,.18-1.39-.64-.45-1.22.03-1.66.55-.3.36-.57.77-.77,1.21-.43.91.06,1.27,1.16,1.39h0Zm1.8,7.7c1.34-.57,2.34-1.27,3.28-2.09.3-.25.62-.53.49-.96-.16-.55-.7-.42-1.1-.44-1.7-.1-2.44.82-2.67,3.49h0Zm-487.63,191.41c-.03.36-.05.61-.05.87-.04,1.12-.05,2.21,1.57,1.31.53-.3.75-.03.99.42.29.51.6,1.03.97,1.45.29.31.69.58,1.16.32.4-.22.6-.6.61-1.06.03-1.01-.25-1.92-1.35-2.08-1.34-.19-2.57-.7-3.89-1.23h0Zm484.86-193.91c1.44-.03,2.91-1.13,3.19-2.49.14-.69.16-1.27.93-1.69.58-.32.3-1.13-.06-1.56-.31-.36-.75-.9-1.36-.3-1.12,1.12-2.23,2.21-3.32,3.34-.6.62-.44,1.44-.31,2.17.09.55.62.51.93.53h0Zm-96.86,121.23c-.19-.77-.51-1.66-1.57-.96-.8.53-1.19,1.35-.55,2.21.6.78.04,1.05-.45,1.03-1.78-.09-2.21,1.32-2.92,2.41-.42.61-.22.99.42,1.26.79.35,1.73.57,2.34,1.12,1.92,1.73,4.24,2.36,6.67,2.75,4.54.7,5.36-.18,4.51-4.74-.58-3.03-1.42-6.02-1.15-9.18.06-.81-.13-1.64-.61-2.32-.61-.87-1.92-1.01-2.28-.21-.92,2.16-3.26,3.44-3.61,5.95-.05.29-.26.61-.78.69h0Zm-24.38,28.59c1.05-.01,2.05-.27,3.04-.57,2.43-.75,4.86-1.55,7.45-1.58,1.21-.01,2.32-.45,3.26-1.31.88-.8,2.04-.97,3.17-1.14.87-.14,1.73-.31,2.49-.74.66-.36,1.83-.49,1.74-1.42-.08-.87-.95-1.53-1.82-1.95-.61-.3-1.27-.29-1.92-.27-.97.03-1.95.06-2.92.14-2.09.17-4.01-.21-5.64-1.62-.7-.61-1.49-1.08-2.38-1.38-3.1-1-6.25-1.86-9.39-2.69-1.81-.48-3.33-.14-4.77.88-.79.57-1.57,1.17-2.35,1.77-1.79,1.4-1.96,3.23-1.4,5.3.56,2.1,1.19,4.1,3.75,4.6,2.08.39,4.15.78,6.06,1.75.47.23,1.06.17,1.61.23h0ZM259.23,0c3.04.97,6.06,1.97,8.79,3.67,1.3.81,2.64,1.57,3.22,3.12.09.23.29.52.51.62,4.22,1.95,6.6,6.25,10.82,8.3,2.34,1.14,4.31,3.06,5.54,5.51.08.13.21.3.34.32,1.74.49,2.52,2.03,3.41,3.35,1.25,1.82,2.69,3.4,4.54,4.63,1.53,1.03,2.53,2.54,3.62,3.99.26.34.62.58.95.88.42.4,1.34.48.83,1.44-.1.19.09.4.32.45,1.77.39,2.39,1.96,3.27,3.22.51.71,1.03,1.4,1.84,1.8.71.36,1.18.96,1.44,1.7.66,1.9,1.81,3.47,3.13,4.92,2.87,3.14,4.6,6.98,6.53,10.68,1,1.87,1.9,3.8,3.47,5.3.34.32.58.81.75,1.25.87,2.41,2.16,4.6,3.96,6.43,1.68,1.67,2.92,3.64,3.97,5.74,1.14,2.29,2.13,4.65,4.1,6.41.39.34.62.91.75,1.42.71,3.03,2.53,5.36,4.45,7.69,3.22,3.87,5.92,8.13,7.98,12.66,1.88,4.09,4.41,7.78,6.5,11.71,2.03,3.8,4.1,7.57,5.82,11.54.58,1.36,1.47,2.53,2.36,3.7.69.92,1.3,1.87,1.56,3.01.14.61.34,1.18.97,1.4.64.22.78.78.87,1.29.31,1.67,1.1,3.04,2.31,4.21.31.29.61.7.68,1.09.4,2.47,1.74,4.28,3.7,5.74.3.22.61.53.73.86,1.04,3.32,3.67,5.66,5.39,8.58.82,1.43,1.69,3,3.08,4.08.17.13.42.3.44.47.32,3.05,3.63,4.08,4.53,6.86.86,2.67,3.25,4.44,5,6.58,1.32,1.62,2.92,3.16,3.1,5.47.01.13.16.3.29.38,3.31,1.8,4.62,5.19,6.39,8.21,1.14,1.95,1.77,4.25,4.02,5.36.43.22.61.75.74,1.23.3,1.25.68,2.4,2.13,2.79.25.06.51.44.61.73.73,2.27,2.43,3.83,3.97,5.5.84.92,1.29,2.18,2.03,3.08,1.61,1.96,2.73,4.23,4.34,6.12.79.93,1.69,1.73,2.16,2.91.13.34.36.71.66.9,1.74,1.1,2.54,2.95,3.52,4.62,1.15,1.96,2.14,4.05,4.19,5.3.14.08.3.21.35.35,1.07,2.78,3.26,4.78,4.88,7.17.69,1.03,1.03,2.3,2.31,2.86.43.18.51.69.51,1.13.01.62.56.87.86,1.3,1.22,1.73,3.41,2.86,4.13,4.6.9,2.13,2.05,3.7,3.77,5.05.42.32.44.82.55,1.31.43,2.03,2.14,3.04,4.12,2.4.96-.3,1.79-.23,2.56.51,1.56,1.54,3.27,2.74,5.65,2.3.36-.06.83-.1,1.03.32.52,1.17.95,2.3,2.63,2.12.43-.04.14.74.16,1.13.03.91.53,1.3,1.23.82.79-.55.99-.18,1.31.4.78,1.43,1.95,2.32,3.62,2.43.81.04,1.33.26,1.25,1.23-.06.96.52,1.22,1.38,1.04.53-.12.96-.19,1.32.49,1.17,2.23,1.87,2.25,3.34.14.16-.21.3-.43.69-1.01-.19,1.6.27,2.44,1.4,2.88.51.21.66.53.6,1.14-.16,1.23.49,1.51,1.61,1.14,2.97-.95,3.49-.75,4.91,1.9.57,1.1,2.13.91,2.61,2.1.06.17.75.03.9-.42.44-1.39,1.75-1.7,2.93-2.45-.13.84-.26,1.54-.34,2.25-.05.57-.7,1.38.71,1.36.64,0,.27.92.27,1.4-.01,1,.36,1.4,1.38,1.27.79-.09,1.62-.13,2.43-.16.69-.03,1.27-.23,1.73-.78,1.01-1.26,3.05-1.56,4.51-.73.84.48.44.97.04,1.43-.51.58-.94,1.29-.18,1.82.78.55,1.66.39,2.29-.47.74-.99.7-2.23,1.1-3.36,1.06.34,1.45.9.75,1.92-.17.26-.31.56-.47.86-1.36,2.69-1.14,3.1,1.88,3.31.31.34-.06.71,0,1.05.12.51-.43,1.44.48,1.4.68-.04,1.96,1.39,2.16-.61.01-.22.43-.44.71-.57.64-.31,1.27-.53,1.3-1.47.03-.64.65-.91,1.21-.82.58.1.32.71.35,1.1.04.43.01.87-.05,1.3-.21,1.34.31,2.3,1.6,2.64,1.09.3,1.04.84.66,1.65-.19.45-.38.91-.51,1.38-.1.39-.49.84-.06,1.21.39.32.81.16,1.09-.27.13-.19.39-.29.56-.09.27.29.03,1.18.83.82,1.12-.51,2.47-.57,3.31-1.64.26-.35.47-.84.94-.84,1.32-.01,1.54-.99,1.75-1.96.13-.69.32-1.28,1.16-1.34.95-.06.65.82.93,1.27.56.9-.17,2.18,1.05,3,.39.26.04,1.4-.51,2.05-.3.35-.68.92-.38,1.31.34.42,1.05.23,1.35-.09,1.32-1.43,2.52.43,3.84.09.49-.12.66.97.58,1.49-.21,1.35.48,1.39,1.4,1.1.7-.22,1.29-.03,1.91.23,0,.1.04.22,0,.3-.47.82-1.7,1.57-1.14,2.51.57,1,1.75.18,2.65.06,1.12-.16,1.93.58,2.92.87.57.17,0,.88-.26,1.01-2.7,1.35-1.82,4.7-4.06,6.52,1.77.19,3.08-.34,4.41-.38,2.04-.05,2.77.68,2.27,2.66-.25,1.01-.08,1.38.94,1.51.48.06,1.3-.01,1.3.7,0,.61-.22,1.36-.83,1.66-.51.23-.73.42-.48,1.06,1.18-.42,2.21-1.42,3.97-1.17-2.51,1.3-3.97,3.15-4.97,5.36-.21.47-.77,1.04-.04,1.6.65.48,1.23,1.05,2.19.66,1.35-.55,4.47.57,5.04,1.77.06.14.03.31.04.48q.04,1.75,1.44,2.66c-.03.51-.49.69-.74,1.01-.27.34-.17.61.1.84.21.17.39.6.74.12.32-.47.68-.14.96.09.36.31.04.61-.06.88-.18.51-.44.99-.62,1.49-.43,1.06-1.08,2.27,1.57,1.87-1.18,1.13-2,1.91-2.82,2.69-.35.32-.56.7-.35,1.16.22.51.66.21,1,.17,1.45-.12,2.91-.29,4.52-.44-.21,1.01-.22,1.87-1.58,2.06-.87.12-1.21,1.16-1.64,1.88-.13.23-.09.53.21.71.39.22.79.43,1.22.13.3-.22.53-.55.78-.82.44-.47,1.08-.6,1.47-.22.44.4-.04.91-.38,1.22-.96.87-1.97,1.7-2.95,2.56-1.13,1-2.58,2.47-1.84,3.62.52.83,2.34-.55,3.45-1.22.88-.52,1.64-1.25,2.3-2.05.74-.87,1.13-2.17,2.87-1.4.79.34,1.7-.6,2.2-1.43,1.02-1.77,2.89-2.26,4.54-3.06.83-.42,1.7-.62,2.22-1.52.52-.9,1.51-1.01,2.36-1.29,2.34-.73,3.62-2.79,3.19-5.13-.13-.73-.17-1.47.06-2.52.52,1.06.88,1.88,1.32,2.65.26.45.61,1.03,1.23.9.51-.12.7-.65.86-1.13.17-.55.3-1.09.45-1.69,1.88,2.61,3.39,2.97,6.27,1.56,1.44-.7,2.83-1.54,3.76-2.8,1.01-1.34,2.18-1.66,3.67-1.3.95.23,1.57.03,1.84-.97.22-.74.66-1.27,1.54-1.09.65.12,1-.31,1.36-.73.47-.52.93-1.06,1.47-1.52.49-.44,1.13-1.26,1.73-.7.57.52.13,1.43-.3,2.09-.39.62-1.4.97-.66,2.04.58.83,1.14,1.12,1.99.44.69-.55,1.38-1.06,2.34-1.4-.74,1.19-1.52,2.35-2.17,3.6-.44.87-1.5,1.88-.68,2.77.68.7,1.71-.25,2.52-.56,1.1-.43,2.34-.64,3.19-1.57.21-.21.45-.34.7-.12.26.23.06.52,0,.77-.21.75-.84,1.08-1.43,1.48-.86.58-2.03,1.31-1.38,2.41.61,1.04,1.96.62,2.8.1,2.1-1.3,4.34-2.62,4.1-5.66-.06-.68.6-.69.92-1,.35-.34.57.09.71.36.55,1.14,1.32.84,2.14.32.74-.49,1.49-.99,2.51-1.19-.51.44-1,.9-1.52,1.32-3.02,2.48-5.27,5.62-7.45,8.83-.82,1.19-1.17,2.53-1.1,4,.03.79.08,1.23,1.07.92,3.14-1.03,6.24-1.95,8.95-4.09,1.23-.97,2.97-1.53,4.48-2.32-.32.83-1.08,1.12-1.66,1.6-.53.43-1.26.71-.96,1.65.21.74-.48.65-.79.65-2.19-.05-3.22,1.27-3.84,3.13-.34,1-.74,1.92-2,2.1-.38.05-.68.39-.53.86.09.32.43.35.68.27,1.35-.36,2.66-.71,4.13-.32.75.18,1.12-1.27,2.39-1.22-1.1.95-2.22,1.62-2.83,2.77-.17.31-.32.66-.14.92.19.29.61.21.9.1.93-.32,1.84-.66,2.75-1.01.57-.22,1.26-.49,1.64.1.4.64-.39.88-.73,1.25-.22.23-.56.4-.66.66-.1.27-.04.69.12.93.14.25.49.09.71-.04,1.19-.65,2.38-1.32,3.58-1.96.35-.19.73-.73,1.14-.4,2.32,1.83,4.67.56,7.01.1.21-.04.42-.13.62-.16.09-.03.21.04.36.08-.77,1.71-3.45,1.39-3.76,3.6,1.08.68,2.28-.53,3.53.21-1.69,1.08-2.52,2.77-3.78,4.08-.34.34-.58.67-.38,1.14.23.55.77.34,1.14.27,2.26-.38,4.49-.83,6.74-1.19.39-.06,1.03-.51,1.25.25.19.66-.52.48-.79.71-.71.58-1,1.44-.94,2.32.08.87.86.87,1.49.92.53.05.91-.04.66.82-.29,1.08.83,1.06,1.48,1.32.68.29,1.52.01,2.31.55-.64.36-1.38.49-1.44,1.43-.05.62-.82.65-1.34.69-.75.08-1.52.12-2.27.1-1.16-.03-2.29-.1-1.86,1.64.1.39-.14.52-.53.62-1.14.27-1.71,1.35-1.89,2.25-.23,1.19,1.09,1.32,1.92,1.52,1.64.38,2.79,1.47,4.1,2.45-.34.49-.73.21-1.12.1-1.12-.3-2.21-.29-2.84.88-.66,1.17-.08,2.19.77,2.89,1.51,1.23,3.15,2.3,4.74,3.47.4.3,1.17.51.97,1.13-.18.52-.94.49-1.44.53-1.08.08-2.14.21-2.99-.8-.55-.62-3.8-.51-4.38.09-.48.49-.26,1.32.26,1.29,2.31-.21,3.53,2.09,5.79,2.35-1.29.65-2.34,1.69-3.63.19-.35-.4-.99-.64-1.43-.01-.38.53-.86.57-1.43.52-.6-.05-.93.35-.97.87-.05.56.35.83.91.95.92.19,1.84-.03,2.75-.16,1.16-.16,2.13.09,3.27.65-.97,1.04-2.02,1.74-3.38,1.67-3.79-.22-6.87,1.18-9.53,3.79-.99.96-1,1.6.31,2.12,1.48.61,3.06.64,4.65.64.6,0,1.19-.16,1.8.08-.35.58-1.49.34-1.32,1.52.14,1.08.91,1.06,1.57,1.34.25.1.64.18.7.36,1.08,2.58,3.63,2.1,5.66,2.74-.35.42-.88.51-1.31.42-1.92-.39-2.97,1.41-4.6,1.73.35,1.88-2.06.77-2.4,2.23-.17.79-1.35,0-2.06.12-.61.1-1.39-.6-1.79.49-.39,1.1.36,1.44,1.06,1.84,1.78,1.01,3.73,1.51,5.7,1.86.36.06.75,0,1.13.43-1.08.32-2.05.57-3,.9-1.77.62-2.17,1.44-1.6,3.26.27.87.62,1.7,1,2.73-3.45-.14-6.15,1.01-7.98,3.92-.6.96-.78,1.54.22,2.43,1.9,1.69,3.17,3.91,4.3,6.28-1.31-.8-2.61-1.64-3.93-2.43-1.43-.84-2.92-1.45-4.62-1.32-1.74.14-2.17.66-1.92,2.43.09.57-.34.52-.62.65-.62.3-1.23.7-1.1,1.44.23,1.21-.47,1.77-1.29,2.35-1.04.74-1.12,2.34-2.49,2.86-.19.09-.36.45-.7.56-1.53.47-1.77,1.36-.69,2.57.36.4.74.79.91,1.51-1.6-.47-3.12.38-3.67,1.32-1.07,1.77.62,3.18,1.92,4.84-1.78.18-3.3.43-4.83.45-1.03.03-1.38.36-1.21,1.34.04.17.03.34.04.51.13,2.67-.21,3.19-2.93,3.79-.75.18-.82.56-.83,1.12-.05,1.64.09,3.25.43,4.86-.18.03-.29.06-.36.04-.78-.27-1.69-1.16-2.36-.52-.83.79.03,1.8.39,2.69.1.25.22.49.49,1.1-2.22-.99-2.71,1.55-4.39,1.73-.09,0-.23,1.96-.03,2.03,1.44.49.52,1.88,1.17,2.66.32.38-.42.55-.7.55-3.78.03-5.43,2.41-6.34,5.62-.38,1.32-.91,2.26-2.53,1.92-.42-.09-1.01.03-1.14.45-.47,1.53-2.03,2.4-2.4,3.97-.01.06-.03.16-.03.16-1.52-.1-1.55,1.83-2.83,2.04-.97.16-1.73.56-1.67,1.8.04,1.03-1.22,1.39-1.45,2.27-.32,1.27-1.23,1.06-2.16,1.08-1.22.01-.84,1.03-.71,1.56.27,1.14-.23,1.43-1.13,1.18-.91-.26-1.23.13-1.61.84-.54,1-.86,2.4-2.65,1.69-.65-.25-1.01.69-1.4,1.19-.36.49-.7,1.04-1.43.66-1.08-.57-1.89-.12-2.63.61-.64.62-1.29.86-2.2.48-1.79-.75-5.53.26-6.83,1.77-.47.55-.87,1.12-1.29,1.69-1.61,2.25-3.27,2.62-5.74,1.29-.39-.19-.86-.42-.9-.88-.08-.87-.36-1.44-1.36-1.4-1.43.04-3.03-.45-4.09.88-.79,1-1.41,1.83-2.95,1.87-1.44.03-2.6,2.41-2.18,3.82.13.42.23.83.36,1.26-.51.35-.92-.09-1.39-.14-.74-.09-1.39.25-1.08.95.53,1.18-.22,1.34-.97,1.45-.97.17-1.22.69-1.1,1.58.18,1.18.25,2.39.51,3.54.51,2.29,1.1,4.54.91,6.92-.03.22,0,.44.05.65.36,1.54,1.67,3.15-.69,4.4-.39-.53-.96-1.3-1.52-2.08-.23-.34-.45-.6-.92-.43-.44.17-.71.39-.65.96.19,1.57-.1,3.14-.25,4.71-.16,2.08-.08,4.13.83,6.08.16.35.43.87,0,1.19-.44.35-.58-.29-.9-.4-.69-.29-1.34-.35-1.07.78.55,2.23-.26,4.39-.58,6.56-.09.7-1.03,1.41-1.29,2.23-.56.01-.66-.35-.79-.62-.27-.57-.44-1-1.3-.71-.97.34-.57.93-.47,1.44.26,1.15.82,2.28.9,3.45.14,2.27.04,4.57.04,6.86-.12-.01-.25.01-.31-.04-.53-.4-.84-1.44-1.64-1.09-.82.38-.88,1.49-.58,2.17,1.23,2.75-.52,5.36-.26,8.08.1,1.1-1.34,1.1-2.05,1.49-.77.4-.92.71-.7,1.43.74,2.51,1.38,5.04,3.19,7.05,1.26,1.4.56,3.12.77,4.7-.61.19-1-.17-1.44-.34-2.23-.82-2.88-.58-4.1,1.51-.14.22-.26.51-.44.65-1.14.79-5.44.66-6.65-.14-.43-.29-.39-.74-.52-1.14-.64-2.12-2.06-2.57-3.75-1.14-.77.65-1.39,1.27-2.53,1.13-.81-.1-.87,1.18-1.8,1.42.68-2.48.36-5.17,2.35-7.18.48-.49.26-1.26.29-1.9.08-2.01-.04-4.06,1.44-5.71.14-.14.22-.4.22-.6.03-2.1.78-3.74,2.7-4.82.61-.34.93-1.06-.08-1.58-.86-.44-.36-1.56-.95-2.14-.96-.96.18-1.3.56-1.78.71-.91,1.04-1.71.31-2.8-.56-.82-.42-1.7.27-2.51,1.56-1.84,2.68-3.71,2.68-6.41,0-1.57,1.81-3.12,1.48-5.1,2.62-2.8,2.14-6.48,2.77-9.84.35-1.87.79-3.65,1.53-5.44,1.22-2.92.94-6.06.22-9.14-.18-.75-.71-.55-1.14-.39-.91.32-.91-.12-.77-.79.48-2.22.74-4.51,2.03-6.48.42-.64.4-1.35-.09-1.8-1.07-.99-.7-1.91-.17-2.92.29-.53.51-1.09.78-1.62.3-.58.04-.73-.51-.84-5.35-1.12-10.67-2.26-16-3.41-1.65-.36-3.27-.77-4.95-.01-.88.42-1.73-.04-2.43-.57-1.6-1.19-3.4-1.6-5.36-1.56-3.45.06-6.61-1.21-9.8-2.23-4.66-1.51-9.5-1.75-14.31-2.31-6.32-.74-10.83-4.15-14.22-9.32-.83-1.29-1.35-2.73-1.12-4.32.14-1.16-.34-2.13-.86-3.09-.54-1.04-.65-2.05-.12-3.12.52-1.08.44-2.23.43-3.36-.03-2.93-.52-5.87-.03-8.8.14-.88-.29-1.47-.9-1.97-1.62-1.38-3.3-2.69-4.87-4.09-.71-.65-1.28-1.47-1.91-2.23-.95-1.19-1.97-1.1-2.52.32-.88,2.3-1.18,4.74-1.65,7.13-.31,1.56-.78,3.03-1.65,4.78.21-3.09.75-5.76,1.38-8.41.18-.75.39-1.48.52-2.23.55-3.19-.1-4.45-2.99-5.88-.3-.16-.56-.35-.88-.43-.97-.26-1.4-1.75-2.64-1.29-1.84.7-3.61,1.55-4.62,3.4-.43.77-.75,1.61-1.79,1.73-.1.01-.3.1-.3.1.71,2.04-1.94,2.47-2,4.17-.04,1.1-.92,1.82-1.62,2.57-1.29,1.39-2.65,2.73-4.38,3.95.48-2.17.95-4.09,2.91-5.22,1.78-1.03,2.03-2.71,1.84-4.53-.18-2.06-1.31-3.51-3.13-4.47-.73-.39-1.05.04-1.48.51-2.99,3.17-6.48,5.78-9.87,9.06.21-1.25.83-1.88,1.2-2.62.26-.53.7-.96.76-1.61.12-1.51-.01-3.09,2.29-3.21.96-.05,1.3-1.26,1.52-2.16.52-2.09.04-4.1-.68-6.06-.14-.36-.32-.74-.83-.48-.32.17-.87.26-.68.74.6,1.49-.27,2.27-1.24,3.14-.39.35-.48,1.06-.77,1.74-.68-.87-.82-1.74-.71-2.73.08-.81.12-1.62.06-2.44-.05-.77-.56-1.35-1.35-1.4-.73-.05-1.58-.17-1.87.84-.05.21-.18.53-.27.53-2.6-.06-3.09,2.54-4.75,3.69-.61.42-.62,1.09-.64,1.77,0,.36.04.9-.48.84-.49-.05-.43-.6-.38-.93.07-.65.27-1.27.39-1.91.09-.48.65-1.12-.18-1.35-.65-.19-1.38-.22-1.86.57-.48.74-.39,1.44-.08,2.17.47,1.1.18,2.01-.96,2.32-.82.23-.95.77-1.06,1.65-.91-1.65-1.03-3.25-1.12-4.78-.08-1.34-1.08-1.09-1.78-1.45-.86-.44-1.14.1-1.49.7-.99,1.66-2.29,2.66-4.31,1.92-.52-.19-.69.03-.9.38-.38.62-.87,1.1-1.49,1.48-.18.12-.49.32-.47.39.95,2.47-2.05,2.93-2.42,4.8-.17.97-.9,1.83-1.36,2.75-.25.48-.48.86-1.1.45-.57-.38-.71-.83-.31-1.36.23-.29.55-.54.87-.73,1.39-.79,1.9-4.4.71-5.43-.42-.35-.97-.64-1.39.06-.68,1.09-1.69,1.86-2.54,2.75-1.05,1.12-1.16,1.49-1.36,4.22-.66-.14-1.06-.7-1.61-1.04-.31-.21-.61-.44-1.04-.21-.45.25-.3.64-.32,1-.04.66.62,1.56-.96,1.54-.61,0-.51,1.49-.45,2.32.06.9.47,1.92-1.13,1.77-.34-.04-.43.26-.4.56.01.27.03.56.12.8.69,1.78,1.01,3.49-.86,4.89-.25-.69-.53-1.47-.77-2.26-.16-.58-.42-.83-1.04-.69-.48.12-.87.38-.7.88.6,1.79-.31,2.86-1.65,3.83-.34.25-.45.81-.78,1.43-.3-1.96-1.25-1.95-2.49-1.05-.21.14-.48.22-.73.35-3.43,1.65-3.87,2.52-3.48,6.26.27,2.47,1.13,4.89.25,7.41-.16.42.08.84.27,1.25.18.34.32.84-.05,1.04-1.5.78-.83,1.61-.14,2.48.34.43.78.82-.06,1.22-.58.29-.25.88-.26,1.34-.03,1.13.09,2.29-.26,3.4-.17.52-.3,1.07-.92,1.23-.69.19-.9.66-.84,1.34.03.43.01,1.09-.47,1.1-1.78.04-1.09,1.26-1.01,2.08.1,1.13.32,2.26.66,3.35.26.83.17,1.19-.77,1.23-.94.06-1.14.55-.86,1.47.35,1.12.42,2.23-.88,2.96-.9.51-.53,1.47-.57,2.25-.04.69.22,1.67-.52,1.92-1.42.45-1.52,1.44-1.53,2.62,0,.31-.1.7-.32.91-1.09,1.05-1.23,2.22-.66,3.61.21.52,0,1.01-.49,1.42-1.87,1.49-3.25,3.23-2.66,5.86.04.19.03.56-.05.61-2.48,1.17-2.16,3.8-3.06,5.79-.29.65-.3,1.31-1.27,1.32-.51,0-2.82,3.82-2.65,4.35.22.78-.47,1.36-.48,1.87-.04,2.12-1.7,3.13-2.69,4.61-.26.42-.52.88-1.07.9-1.43.04-1.69.95-1.65,2.1.01,1,.03,1.88-1.3,2.23-.77.21-1.05,1.09-.44,1.87,1.3,1.7.79,5.17-1.07,6.37-1.39.91-2.6,1.82-2.64,3.64-.01.36-.14.68-.6.52-1.29-.45-1.33.56-1.49,1.32-.27,1.29-.16,2.6-.03,3.9.08.65.27,1.34.13,1.95-.88,3.93,1.51,6.71,3.39,9.66.92,1.47,2.18,2.74,2.19,4.63,0,.35.12.68.47.79,1.12.39,1.32,1.32,1.48,2.32.06.38.1.8.47.99,4.95,2.45,7.28,6.57,7.63,11.96.01.21.05.42.01.71-.75-1.43-1.67-2.56-3.49-2.45-.56.03-.62-.69-.87-1.09-1.13-1.96-2.84-2.91-5.04-3.12-.74-.08-1.13.05-1.34.94-.86,3.69-1.34,3.92-5.06,3.4-.99-.16-2.36-.88-2.65,1.2-.05.42-1.39,1.01-1.77,2.41-.7-3.48-1.93-6.35-1.27-9.52.18-.87.57-1.64.84-2.45.45-1.3.1-1.8-1.22-1.52-.95.21-1.1-.06-1.21-.91-.22-1.88-.52-3.77-.87-5.63-.13-.74.05-1.39.17-2.09.22-1.35-.17-2.23-1.71-2.32-.8-.06-1.92.14-1.77-1.3.01-.08-.13-.21-.22-.23-1.91-.57-1.21-1.88-.87-3.09.45-1.67.9-3.36,1.34-5.04-.54-.56-1.71.49-1.84-.79-.1-1.1-.38-2.12.73-3.08,1.79-1.58,3.38-3.4,5.03-5.14.52-.56,1.17-1.18.03-1.8-.09-.04-.23-.16-.22-.19.79-2.7-.95-1.06-1.82-1.16-1.03-.09-1.99-.86-3.23.3.23-1.05.83-1.25,1.25-1.57,1.05-.86,2.17-1.62,2.52-3.09.18-.86,1.08-.97,1.77-1.26,2.3-.91,3.75-3.77,3.13-6.18-.16-.58.48-1.57-.35-1.71-.88-.14-1.77.47-2.32,1.26-.17.22-.31.44-.53.77-.92-1.1-1.73-2.17-3.39-2.23-.44-.03-1.42-1.23-1.39-2.21.03-1.23.34-2.47.48-3.71.1-.78.6-.88,1.26-.91.91-.04,1.58-.64,1.23-1.49-.51-1.21.21-1.92.69-2.79.39-.69,1.12-1.47.43-2.21-.73-.77-1.29.4-2.1.55.29-2.27.57-4.47,1.83-6.37.21-.31.66-.66.26-.95-1.16-.87-.4-1.7-.08-2.56.04-.1.14-.19.14-.3-.01-1.77.17-3.45,1.75-4.62.03-.03.05-.12.03-.16-.82-1.92.89-2.8,1.69-4.05.66-1.05.99-2.1-.01-3.12-.47-.48-.17-.74.18-1.04.51-.44.94-.91.6-1.68-.42-.91-1.09.13-1.62-.34.6-.91,1.27-1.84,1.83-2.86.38-.66.75-1.48-.64-1.52-.82-.01-.49-.56-.25-.86.57-.65,1.23-1.23,1.83-1.87.84-.92,1.62-1.9,1.65-3.26.03-.7.53-1.18,1.01-1.62.95-.9,1.4-1.9.99-3.22-.31-1.01.08-1.78.96-2.35.55-.34,1.05-.78,1.53-1.21.42-.38.47-.9.31-1.36-.21-.6-.74-.23-1.13-.25-.35-.01-.83.56-1.04-.19-.19-.64.26-.86.7-1.1.95-.53,1.87-1.09,2.83-1.61.64-.34.82-.83.62-1.48-.19-.66-.66-.91-1.34-.93-.81-.04-1.58.38-2.39.1-.09-.49.26-.57.51-.74,2.7-1.87,5.12-4.05,7.19-6.6.78-.95,1.73-1.84,1.64-3.27-.05-.68.64-.64,1.04-.83,2.09-.92,4.02-2.12,5.89-3.45,1.26-.91,1.25-1.45-.08-2.12-.97-.47-1.07-1.67-1.82-2.21-1.19-.86-.88-1.69-.48-2.79.55-1.45.18-2.83-1.05-3.91-.18-.16-.31-.42-.41-.65-.62-1.43-1.4-1.73-2.55-.79-.51.44-.89.58-1.39.18-.57-.45.09-.75.25-1.04.51-.96.55-1.96.61-3,.1-1.74.12-3.51,1.92-4.57.73-.43.49-1.14.17-1.75-.44-.82-.94-.16-1.36.04-1.27.57-2.09,1.55-2.14,3-.04.9-.4,1.31-1.31,1.1-.12-.03-.3-.06-.32-.01-1.39,2.08-5.17,1.38-5.49,4.71-.04.48-.32.93-.39,1.42-.19,1.3-.62,2.05-2.19,1.45-.93-.35-1.64.3-2.35,1.03-2.66,2.69-5.45,5.26-8.26,7.93-.35-.71-.09-1.31-.16-1.87-.04-.42-.13-.79-.64-.75-.38.01-.93.03-.96.45-.06,1.16-.79,1.77-1.56,2.48-.36.35-.51,1.16-.42,1.7.23,1.35-.44,2.03-1.48,2.57-.58.3-1.1.84-1.27-.42-.1-.74-.77-.64-1.26-.22-1.39,1.16-2.78,2.31-3.67,3.95-.26.45-.71.83-1.16,1.13-.49.34-.74.7-.74,1.32.05,1.9-.97,3.19-2.56,4.02-1.14.61-1.92,1.4-2.09,2.75-.42-.31-.4-.75-.51-1.13-.29-1.07-.97-1.19-1.69-.56-1.52,1.36-3.48,2.44-3.03,5.09.18,1.05-.14,2.08-1.51,2.53-.97.32-.83,1.54-1.05,2.4-.56,2.1-1.86,2.48-3.48.99-.87-.81-1.58-1-2.13.42-.55,1.39-1.77,2.17-2.91,3.13-1.04.86-2.21,1.79-3.06,2.84-1.13,1.38-1.22,3.48-2.83,4.67-.21.16-.29.58-.3.9-.05,1.65-.72,2.8-2.18,3.77-.86.55-1.18,1.9-1.69,2.92-.3.57-.48.95-1.32.77-.91-.19-1.92-2.01-2.83.01-1.03-.64-1.47.32-2.2.66-.71.32-.58.57-.45,1.05.09.31.22.64.22.95-.01.51.27,1.23-.3,1.47-.77.29-1.01-.39-1.16-1.01-.25-.93-.96-.52-1.47-.42-.77.14-1.27.65-1.14,1.49.12.74.35,1.45.56,2.35-1.44-.32-2.74-.61-4.01.17-1.22.75-2.73,1.25-2,3.21.14.43,0,.87-.58.97-.61.08-.96.43-1.08,1.05-.1.57-.47.8-1.08.64-.45-.12-.94-.08-1.12.4-.18.45.18.81.45,1.16.06.08.16.16.19.25.31.6,1.57.97,1.1,1.52-.64.77-.88-.58-1.44-.75-.86-.27-1.71.06-2.57.12-1.36.1-.9,1.1-.97,1.83-.05.62-.16,1.34-.77,1.51-1.39.39.4,1.83-.64,2-1.13.17-1.6.48-1.27,1.62.01.05-.01.16-.01.16-1.91.03-1.55,2.26-2.83,2.9-.29.14-.77.43-.73.56.49,2.3-2.12,2.4-2.71,3.93-.22.61-.87.81-1.48.87-.83.08-1.79-.12-1.75,1.26.01.39-.64.62-.91.42-1.8-1.35-2.4.48-3.38,1.25-.23.18-.39.48-.6.75-.12-.13-.22-.18-.23-.26-.35-2.25-.36-2.3-2.71-1.96-1.52.22-3.04.34-4.56.25-.83-.05-1.66-.22-1.57-1.4.03-.25-.13-.7-.25-.71-1.75-.22-1.97-1.84-2.75-2.95-.22-.31-.51-.75-.79-.79-1.6-.18-2.49-1.35-3.62-2.27-.52-.42-.91-.71-.73-1.41.05-.21.09-.43.08-.65-.04-1,.31-2.44-.74-2.75-1-.29-2.19.42-2.91,1.43-.23.3-.45.6-.86,1.13-.26-1.6-1.16-2.47-2.41-2.88-.96-.31-1.13-.77-.73-1.66.19-.4.4-.99-.1-1.35-.4-.29-.82-.06-1.21.18-.56.34-.77.29-1.07-.45-.4-1-1.95-1.09-2.29-2.31-.35.12-.71.19-1.05.35-2.32,1-3.04.84-4.3-1.25-.36-.57-.69-.74-1.31-.6-.36.08-.75.06-1.13.08-2.86.1-2.88.12-3.74-2.54-.44-1.36-1.23-2.43-2.42-3.18-.71-.47-1.12-1-.83-1.88.3-.95-.01-1.44-1.01-1.52-.56-.04-.94-.27-.79-.95.36-1.55-.53-3.23.71-4.71.49-.6-.26-.94-.83-.96-.84-.04-1.39.55-1.96,1.05-.27.26-.4.81-1.03.44-.49-.27-.47-.68-.49-1.1-.13-2.26-.1-2.22-2.06-1.29-.61.29-1.39.19-2.06.34-1.45.29-2.48,1.05-2.71,2.62-.06.4.03,1.05-.62.92-1.47-.27-1.74.84-2.16,1.74-.88,1.82-.74,4.1-2.65,5.44-.26.18-.13.61-.03.92.06.19.1.58.08.58-1.62.53-1.96,2.57-3.53,3.08-.96.31-1.35,1.06-1.78,1.79-1.01,1.73-2.09,3.41-3.62,5.06-.08-.92.04-1.65-.91-2-1.06-.42-1.08.77-1.62.87-1.32.27-2.22,1.22-3.26,1.9-1.9,1.23-3.6,2.79-4.39,5-.32.88-.58,1.61-1.57,1.86-1.39.34-1.66,1.36-1.31,2.53.25.82.19,1.31-.61,1.73-.9.47-.9,1.45-1.04,2.29-.14.86-.56,1.12-1.32,1-1.03-.17-.31-.86-.3-1.27.01-.81.22-1.61.32-2.41.04-.35.17-.78-.38-.94-.44-.13-.74.1-.94.44-.43.73-.78,1.21-1.8.66-.32-.19-1.61.14-1.08,1.21.74,1.45.18,3.1.89,4.52.16.36-.1.52-.32.62-1.87.9-1.86,2.65-2,4.32-.13,1.65.09,3.28.44,4.87.18.86.22,1.31-.78,1.47-1.14.18-1.39,1.1-1.51,2.05-.08.71-.19,1.18-1.14,1.09-.92-.08-1.16.56-.99,1.43.16.74.26,1.45-.78,1.83-.83.3-.57,1.04-.19,1.6.95,1.38.66,2.34-1.01,2.82-.97.29-.68,1.04-.68,1.6-.03,1.97-.27,3.8-2.38,4.93-.31-.74.35-2.19-1.27-2-.77,1.49-.44,3.14-.52,4.76-.01.49.27,1.22-.45,1.38-.58.13-1.25-.04-1.39-.81-.1-.61-.48-.65-.95-.54-.52.1-.53.54-.45.9.19.9-.51,2.21,1.12,2.47.05,0,.14.29.1.4-.1.25-.34.22-.55.18-.61-.12-1.51-.21-1.58.42-.27,1.99-2.22,2.9-2.75,4.66-.09.31-.25.68-.47.83-.97.66-1.27,1.54-1.21,2.66.03.55-.17,1.23-.81,1.23-.56,0-.3-.69-.38-1.08-.06-.35-.17-.61-.58-.61-.55.01-.74.34-.86.81-.38,1.42-.78,2.83-1.17,4.23-.18.64-.34,1.14-1.21.62-.58-.35-1,0-1.17.68-.53,2.17-2.21,3.73-3.17,5.66-.09.19-.25.48-.39.48-1.99.01-2.31,1.68-2.97,3-.09.19-.19.51-.35.53-2.39.57-2.75,3.25-4.58,4.41-1,.65-2.05,1.27-2.38,2.73-.17.74-1.47.82-2.13,1.53-1.18,1.31-1.97,3.19-4.14,3.36-.26.03-.55.52-.7.84-.58,1.06-1.43,1.77-2.62,2.01-1.4.3-2.17,1.39-2.99,2.41-.92,1.17-1.95,2.19-3.38,2.79-.62-1.12-1.51-2.14-.83-3.62.25-.57-.4-.79-.87-.96-.87-.31-1.71-.39-2.39.42-.95,1.13-1.62,2.44-2.3,3.74-.65,1.22-1.3,2.39-2.73,2.87-.23.09-.49.29-.64.51-1.61,2.61-4.43,3.99-6.3,6.39-1.44,1.87-3.82,2.64-5.86,3.77-.78.44-1.18-.34-1.68-.66-.81-.53-1.34-.62-2.01.26-1.48,1.91-3.3,3.47-5.27,4.87-1.67,1.19-3.4,2.12-5.58,1.52-1.07-.3-1.9.3-2.61.99-1.61,1.51-3.62,2.1-6,2.73,1.1-1.47.41-1.97-.73-2.26-1.8-.44-3.44-.87-5.15.69-1.43,1.29-3.34,2.04-5.45,1.52-1.12-.29-1.79-.01-2.04,1.3-.26,1.47-.49,3.01-1.9,4-.25.17-.26.68-.35,1.05-.19.82-.34,1.66-1.08,2.49-.4-1.13-.49-2.14-.32-3.13.23-1.31-.64-1.39-1.44-1.25-2.31.39-4.14-.32-5.35-2.26-.12-.18-.22-.38-.33-.57-1.25-2.3-1.75-2.45-3.92-.75-.86.69-1.48,1.36-2.69.66-.64-.36-1.21.2-1.65.74-.43.55-.58,1.3-1.29,1.64.44-1.58,1-3.1,1.8-4.54,1.39-2.53,3.34-4.23,6.4-4.34.36-.01.73-.18,1.08-.32,2.08-.95,4.26-1.47,6.23-2.88,1.54-1.09,3.66-1.75,5.45-2.77.95-.53,1.96-.84,3.09-.86,3.39-.03,6.73-.39,9.8-1.96.42-.22.81-.09,1.23-.06,1.52.09,2.61-.97,3.82-1.66.73-.42.13-1.32,0-1.93-.22-1.1.35-1.31,1.17-1.48,2.71-.61,5.47-.86,8.26-1.12-.06-.57-.01-1.23-.68-1.36-1.88-.36-1.17-1.56-.9-2.6.17-.61.78-1.05.66-1.82-.22-.03-.47.01-.65-.05-.79-.32-2.19,1.08-2.39-.52-.17-1.3,1.4-.96,2.21-1.3,1.18-.51,2.77-.42,3.47-1.56.82-1.29,1.91-1.84,3.23-2.23.56-.16,1.26-.3,1.49-.91.32-.95.84-1.09,1.7-.71.4.17.74.03.86-.48.12-.57.58-1.14.27-1.7-.21-.42-.84-.3-1.18-.09-1.64.95-1.62-.27-1.79-1.3-.08-.4.18-.86-.17-1.22-1.14.06-2.21.64-3.52.49.69-1.08,1.69-1.82,2.22-2.88.3-.62.29-1.26-.22-1.64-.45-.34-.88.21-1.21.53-.58.57-1.07,1.23-1.66,1.79-.27.26-.71.66-1.13.3-.34-.31-.03-.73.17-1.04.68-1.18,1.39-2.34,2.09-3.49.31-.51.44-1.12.08-1.53-.44-.52-.96-.01-1.44.18-.36.14-.62.82-1.08.38-.51-.51-.1-1,.21-1.45.26-.38,1-.48.7-1.13-.47-.99-.03-1.66.69-2.27.44-.39.68-.92.56-1.47-.29-1.27.44-1.9,1.39-2.45.75-.44,1.66-.84,1.75-1.8.12-1.19-1.64-2.14-.52-3.53,0,0-.08-.08-.12-.12-.94-.9-.25-1.4.47-1.88.69-.45,1.39-.88,2.04-1.35.55-.4,1.13-1.04.73-1.65-.79-1.21.12-1.42.83-1.87.79-.51,1.36-2.58.78-3.22-.71-.77-1.66-.48-2.56-.16-.52.19-1.05.78-1.78.12,1.45-.65,2.84-1.27,4.21-1.9.52-.23.99-.52.71-1.22-.3-.79-.79-.19-1.22-.18-.52.03-.99.53-1.69.17,1.01-.45,1.91-.82,2.78-1.25.57-.29,1.34-.57,1.1-1.39-.18-.69-.92-.32-1.42-.43-.34-.06-.74.17-1.08-.23,1.18-1.05,2.73-1.01,4.05-1.53.44-.18,1.35.06,1.16-.78-.18-.93-.97-.38-1.45-.29-1.03.18-2,.26-3.15-.21,2.17-1.55,4.18-3,6.56-3.86.56-.21,1.22-.35,1.17-1.12-.04-.83-.9-.39-1.39-.75.84-.32,1.6-.61,2.35-.9.29-.13.62-.23.57-.68-.06-.43-.3-.66-.75-.69-.64-.05-1.29.08-2.34-.47,1.36-.06,1.62-.55,1.25-1.45-.21-.49.3-.77.69-.96,1.16-.56.9-1.03-.09-1.44-.21-.09-.73.03-.45-.36.53-.79.18-2.26,1.79-2.3.68-.01,1.34-.48,2.04-.57,1.48-.21,1.68-.82,1.2-2.22-.36-1.03-1.09-.7-1.66-.92-.88-.34-1.44-.95-1.35-1.82.09-.82.95-.53,1.48-.58,2.18-.22,4.28-.7,6.36-1.39.4-.13,1.08-.34,1.1-.57.17-1.49,1.26-1.03,2.05-.97,1.55.08,2.64-.51,3.28-1.9.35-.73.36-1.21-.66-1.49-1.9-.52-3.77-1.12-5.64-2.09,1.29-.52,2.41-.34,3.54-.25,1.88.17,3.76.7,5.67.35.49-.08,1.3.01,1.36-.65.14-1.53,1.1-2.19,2.39-2.62.45-.16.64-.52.56-1.04-.1-.68-.61-.57-1-.49-.77.17-1.74-.08-2.13,1.04-.16.42-.71.35-1.01.12.69-2.21,2.42-1.83,4.04-1.71.31.01.68-.05.94-.21,1.58-.99,3.6-1.57,3.93-3.84.01-.05.08-.09.12-.13,1.29-1.21,1.49-2.65,1.1-4.34-.3-1.3-.87-2.58-.52-3.99.14-.55.21-1.09.97-1.05,1.43.08,2.84.12,3.78,1.47.35.52.74,1.06,1.43.48.56-.47,1-.91.52-1.79-.69-1.29-1.2-2.66-1.78-4,1.1,0,2.3.25,2.21,1.53-.08,1.08.27,1.34,1.13,1.45.6.09,1.12.23.52,1-.3.42-.49,1.01.16,1.21.56.16,1.35.44,1.57-.55.1-.44.27-.83.66-1.08.32-.22.68-.7,1.09-.18.23.3.25.7-.12,1-.13.1-.25.23-.36.34-.9.78-.68,1.84-.51,2.75.18.9.94.17,1.43.14.26,0,.31.17.44.35.86,1.22,2.92,1.39,4,.31.42-.42,1.06-.99.77-1.48-.34-.61-1.27-.45-1.92-.48-.25-.01-.52.49-.77.78-.77.91-1.48.66-2.17-.12-.22-.27-.58-.57-.04-.9.39-.23.64-.1.71.29.12.52.43.55.84.49.51-.08.51-.47.56-.84.29-2.03-.39-3.48-2.18-4.41-.7-.36-.86-.9-.82-1.6.05-.79-.77-1.3-.92-1.74-.47-1.36-2.99-.08-2.53-2.19,0,0-.39-.12-.6-.16-.69-.13-1.38-.19-1.53-1.14-.08-.48-.75-.6-1.06-.45-.34.16-.23.7.03,1,.34.43.51.78.06,1.26-.96,1.01-.95,2.22-.6,3.47-.65-.78-1.99-2.09-1.87-2.26,1.22-1.53-.22-2.6-.35-3.86-.16-1.58-.7-1.51-1.82-1.18-1.38.39-1.93-.16-1.84-1.61.06-1.04.79-1.51,1.57-1.92,1.71-.93,3.51-1.77,5.17-2.75,2.53-1.48,2.48-2.3-.08-3.7-.06-.04-.05-.19-.08-.3,2.34-.27,2.32-.25,4.35.71.6.3,1.27.22,1.91.06.29-.06.25-.42.16-.55-1.03-1.36.1-1.7,1.01-2.08-.21-.82-1.17-1.19-1.13-2.13.82,0,1.17.51,1.58.9.47.44,1.36.52,1.44.21.43-1.61,1.73-1.16,2.74-1.35.52-.1.71-.4.84-.86.17-.6-.31-.53-.62-.71-1.01-.57-1.86-1.41-2.96-1.88,1.97.01,3.92.05,5.84-.31.42-.06.94-.17.97-.69.03-.4-.34-.69-.67-.86-.74-.36-1.52-.68-2.29-1,1.6-.49,3.09.08,4.6.17.47.03,1.16.34,1.29-.3.22-1.25,1.13-1.21,2.04-1.35,1-.16,1.97-.36,3.05-.57-.25-.83-1.44-1.73.34-2.12.86-.18-.19-.87.05-1.27.65.06,1.23.16,1.83.17.74.01,1.79.26,2.06-.53.32-.88-.79-1.1-1.38-1.53-.34-.23-1-.35-.77-.87.29-.64.83-.01,1.26-.03.6-.01,1.51.84,1.71,0,.44-1.79,1.68-1.27,2.77-1.27,2-.01,2.4-.32,2.19-2.25-.08-.95.17-1.12,1.01-1.03,1.67.17,3.35.43,5.02.03.34-.08.84.09.88-.48.04-.51-.23-.8-.71-.95-.79-.22-1.57-.43-2.34-.73-.65-.27-1.75-.44-1.44-1.41.26-.81,1.23-.39,1.84-.18,2.36.77,4.73,1.17,7.18.44.45-.14.94-.05,1.13-.69.23-.69-.12-1.04-.56-1.38-.32-.26-.69-.47-1.38-.93,1.21.26,1.99.44,2.79.58,1.25.26,2.45.43,3.08-1.17.31-.79,1.04-.64,1.66-.27.38.22.7.52,1.08.73.42.23.9.17,1.19-.19.39-.48-.13-.78-.39-1.08-.42-.52-1.14-.77-1.44-1.44.92-.43,2.16.64,2.58-.43.42-1.05,1.06-.88,1.79-.9.68-.01,1.32,0,2.09,0-.22-.78-.97-1.21-.31-1.95.74-.86.42-1.44-.66-1.67-1.01-.23-2.01-.48-3.01-.75-1.25-.34-1.52-1.53-1.87-2.49-.27-.68.77-.45,1.13-.74.16-.13.32-.35.31-.51-.06-1.23.68-2.43-.09-3.82,1.22.14,2.29.44,3.06-.53,1.32-1.69,1.69-3.96,3.3-5.48.06-.06.05-.22.04-.32-.1-1.62-.01-3.3-.36-4.87-.44-1.99-1.23-3.84-2.21-5.73-1.22-2.41-2.19-5.13-3.09-7.78-.14-.39-.09-.88-.01-1.3.53-2.83.17-5.61-.25-8.44-.27-1.7-.69-3.64,1.23-4.88.32-.19.38-.56.13-.86-.8-1.04-.16-1.56.71-1.95,1.22-.57,1.58-1.56,1.43-2.82-.09-.69-.22-1.39-.3-2.08-.08-.53-.18-.96.55-1.3,1.66-.81,1.91-1.82,1.14-3.47-.12-.3-.68-.79-.17-.93,1.94-.57,1.91-1.53.74-2.84-.03-.03,0-.1.01-.16.29-.88-.01-1.47-.9-1.77-.32-.12-.53-.4-.4-.79.13-.43.51-.27.81-.29.7-.03,1.43.03,2.1-.08.95-.14,1.31-.74.61-1.47-.81-.83-.31-1.27.27-1.82.56-.53,1.1-1.08,1.83-1.34.75-.26,1.04-.64.69-1.45-.38-.88-.12-1.62.83-1.97.78-.3.6-.95.82-1.49.6-1.48.38-2.66-.19-3.96-.04-.12.06-.31.12-.47.4-1.05,1.1-1.6,2.26-1.83,2.05-.43,2.65-1.47,2.34-3.47-.04-.17.08-.44.21-.57.47-.44.51-.97.25-1.48-.34-.7-.22-1.06.53-1.36.99-.4.61-.82-.1-1.13-1.09-.47-1-1-.1-1.58.27-.18.55-.36.81-.56.9-.65,1.29-1.6,1.55-2.61.25-.96-.78-.7-1.08-1.12-.14-.19-.12-.51-.18-.77-.58-2.49,1.3-4.04,2.87-4.63,2.25-.83,2.47-3.64,4.83-4-.09-1.32.71-.73,1.43-.88,1.43-.3,2.64-1.35,3.96-2.01.4-.21.83-.91,1.4-1.17.55-.22,1-.45.9-1.17-.04-.35.13-.73.48-.74,1.27-.06,1.92-.83,2.78-1.7.77-.79,1.22-1.51,1.57-2.49.52-1.4,2.9-1.4,2.73-3.43,0-.05.19-.19.25-.17,1.56.49,2.16-1.23,3.51-1.48,1.39-.26,2.58-1.47,3.31-2.73.42-.75-.73-1.31-1.19-1.93-.05-.06,0-.19.01-.38.78-.09,1.58-.09,2.35-.3,1.3-.35,3.1-.14,2.87-2.43-.05-.53.7-.58,1.14-.74,1.03-.36,1.71-1.1,1.68-2.17-.04-1.22.43-1.67,1.6-1.64.71.03,1.4-.25,1.36-1.05-.06-1.14.66-1.3,1.47-1.56.92-.3,1.86-.64,2.73-1.05,2.23-1.05,4.47-1.97,7-1.97.99,0,1.95-.43,2.45-1.36.69-1.27,1.77-2.04,2.96-2.74,1.01-.61,2.13-1.12,2.65-2.3.13-.29.38-.34.62-.45,1.34-.69,2.42-2.03,4.19-1.67.13.03.4-.25.45-.42.22-.79.75-.99,1.49-.9.48.07.9-.08,1.04-.57.22-.82.83-.93,1.52-.92,1.34.04,2.23-.62,2.89-1.75.35-.6.66-1.48,1.38-1.53,1.99-.14,3.56-1.64,5.54-1.6,3.23.05,6.4-.48,9.54-1.05,6.31-1.16,12.81-.83,19.07-2.47.44-.12.97-.05,1.44.06,4.14,1.05,8.32,1.53,12.59,1.4.6-.01,1.25-.05,1.75.3,2.87,2.05,6.63,1.86,9.56,3.74.91.6,2.26.12,2.8.96.91,1.4,2.31,2.13,3.48,3.13,1.04.9,2.1,1.77,2.79,2.96,1.01,1.79,2.34,3.26,4.09,4.36.82.53,1.42,1.3,1.26,2.3-.19,1.34.43,1.26,1.39,1.06,1.64-.32,3.3-.97,4.93-.05,1.29.73,2.52,1.27,3.7-.18q1.31,3.03,4.48,3.82c.56.16,1.14.31,1.7.51.36.12.82.19.82.68.01.45.19.78.44,1.12-.27.16-.59.29-.83.48-.9.65-1.55,3.41-.82,4.38.73.96,1.87.4,2.83.17.32-.08.7-.35.9-.65.43-.66.79-.52,1.26-.05.66.68,1.44,1.18,2.38,1.34.47.08,1.01.27,1.31-.32.26-.49-.12-.81-.38-1.14-.42-.55-1.1-.9-1.27-1.74,1.21-.19,2.09.47,3.02.97,1.22.68,2.36,1.56,3.8,1.79.38.06.82.29,1.06-.05.26-.31-.01-.71-.17-1.05-.73-1.51-2.17-2.26-3.36-3.27-.36-.31-.92-.57-1.04-.96-.31-1.1,2.03-3.34,3.23-3.21.68.08,1.57.58,1.96-.04.48-.75-.42-1.34-.83-1.95-.03-.05.04-.18.09-.36.36.08.71.16,1.09.19,1.71.16,2.26-.51,1.74-2.09-.3-.95-.43-1.91-.23-2.9.21-1.03.02-1.62-.83-2.6-2.52-2.93-5.27-3.23-8.75-2.35-3.34.83-6.8.62-10.23.32-2.04-.17-3.53-1.95-5.67-1.7-1.73.19-2.77-.73-3.42-2.23-.58-1.38-1.58-2.3-3.05-2.69-.61-.16-1.21-.49-1.34-1.1-.32-1.66-1.3-2.52-2.96-2.73-.25-.03-.6-.26-.64-.45-.34-1.66-1.77-1.92-3.01-2.39-1.45-.55-2.51-1.51-3.18-2.88-1-1.95-2.21-3.74-3.76-5.3-1.43-1.41-2.79-2.91-3.9-4.61-.55-.84-.87-1.67.48-2.18.64-.25.9-.9,1.16-1.52.43-1.03.29-1.58-.99-1.65-1.67-.08-3.38-.01-5.04-.4-.45-.1-.94-.12-1.23-.64-.81-1.49-2.19-2.13-3.75-2.51-.52-.12-1.2-.08-1.41-.65-.43-.99-1.29-1.31-2.16-1.58-2.09-.64-3.78-1.87-5.4-3.26-1.18-1.03-2.27-2.18-3.73-2.91-1.23-.62-2.41-1.09-3.41-2.39-2.06-2.69-5.78-3.66-7.74-6.61-.06-.08-.19-.14-.29-.16-1.54-.22-2.39-1.67-3.03-2.6-1.35-1.95-2.97-3.57-4.61-5.23-1.44-1.47-3.1-2.77-3.54-4.96-.05-.22-.3-.55-.51-.58-1.51-.32-1.76-1.61-2.19-2.77-.17-.52-.3-1.16-.82-1.35-.97-.4-1.12-1.25-1.39-2.06-.69-2.25-1.49-4.47-3.1-6.26-1.03-1.16-1.82-2.43-2.28-3.92-.4-1.28-1.22-2.12-2.68-2.29-2.22-.26-4.31-1.09-6.37-1.88-6.22-2.36-13.06-2.93-18.9-6.44-.36-.21-.82-.3-1.25-.36-3.23-.55-6.44-.91-9.46-2.52-2.14-1.16-4.78-1.34-7.24-1.8-3.23-.61-6.63-.88-8.97-3.7-.35-.42-.92-.6-1.48-.57-2.86.17-4.36-2.75-7.02-3.03-.19-.03-.4-.38-.51-.62-.55-1.31-1.55-2.25-2.67-3.01-2.2-1.48-2.78-4.32-5.01-5.75-.12-.08-.17-.27-.25-.43-1-2.08-1.54-4.44-3.6-5.88-.19-.14-.3-.47-.35-.73-.39-2.32-1.39-4.32-2.61-6.36-2.43-4.06-2.96-8.93-5.17-13.15-.78-1.45-.93-3.23-1.4-4.84-.61-2.09-1.12-4.25-2.54-5.95-.78-.93-1.08-1.75-.64-2.91.45-1.19.53-2.35-.82-3.13-.25-.14-.39-.51-.53-.79-1.34-2.51-2.66-5.02-3.26-7.8-1.07-5-2.96-9.76-4.02-14.75-.35-1.64-.71-3.14-1.26-4.73-.49-1.44-.48-3.27-.84-4.95-.64-2.75-.51-5.61.21-8.41.45-1.79.32-3.57-.88-5.12-.75-.99-.78-2.12-.52-3.27.32-1.34.27-2.61-.64-3.71-.68-.82-.35-1.43.4-1.86,1.51-.86,1.69-2.53,1.92-3.86.3-1.68-.78-3.35-.68-5.25.09-1.31-.17-2.75-.04-4.14.34-3.15,1.65-6.23.83-9.5-.08-.32-.04-.96.16-1.06,1.08-.58.82-1.6.83-2.45.03-1.58-.1-3.16-.12-4.74-.03-1.78-.16-3.61.94-5.21.82-1.19,1.21-2.51,1.18-3.99-.03-2.08.87-3.66,2.78-4.6.88-.44,1.38-1.42,2.04-1.92,1.56-1.2,2.58-3.18,4.7-3.62,1.49-.3,2.92-.81,4.35-1.36,8.59-3.31,17.29-3.52,26.27-1.56,6.31,1.39,12,4.3,18.09,6.19.35.12.69.35.96.61,1.32,1.22,2.95,1.82,4.64,2.23,2.48.58,4.75,1.54,6.57,3.39,1.1,1.12,2.57,1.61,3.99,2.17.96.38,2.17.58,2.78,1.28,1.77,2.04,4.04,3.23,6.3,4.49,4.15,2.32,7.56,5.67,11.43,8.4,2.27,1.61,4.12,3.84,6.66,5.19.7.38,1.38.84,1.77,1.64.29.58.74.91,1.45.65.71-.26.3-.82.38-1.25.32-1.71-.86-3.21-.7-4.88.12-1.18-.17-2.16-1.13-2.88-1.48-1.14-1.95-2.67-1.82-4.47.06-.82.13-1.71-.48-2.34-.84-.86-.99-1.9-1.09-2.99-.39-4.39-.62-8.8-3.53-12.5-.47-.6-.58-1.44-.31-2.19.3-.9.09-1.61-.54-2.22-.46-.44-.55-1.03-.75-1.58-.48-1.3-1.45-2.27-2.76-2.69-1.47-.45-1.43-1.9-2.13-2.84-.39-.56,0-1.08.64-1.43.52-.29.7-.96.4-1.44-1.43-2.27-.48-4.34.45-6.45.38-.86.36-1.79.17-2.73-.22-1.08-.04-2.06.87-2.8,1.09-.88,1.1-1.9.43-3.04-.27-.47-.61-1-.32-1.55,1.19-2.19-.1-5.08,1.93-7.05.13-.13.03-.52,0-.78-.23-2.41.13-4.78.58-7.13.12-.52.17-1.17.78-1.32,1.31-.32,2.12-1.29,3.02-2.14.87-.83,1.87-1.35,3.1-1.05.71.17.97-.22,1.25-.73h3.26Z"/>
  </g>
</svg>