<?xml version="1.0" encoding="UTF-8"?>
<svg id="Layer_2" data-name="Layer 2" xmlns="http://www.w3.org/2000/svg" viewBox="0 0 654.5 483.83">
  <defs>
    <style>
      .cls-1 {
        fill:#808080
      }
    </style>
  </defs>
  <g id="Layer_1-2" data-name="Layer 1">
    <path class="cls-1" d="m566.99,198.01c-1.94-2.49-5.46-4.6-8.17-5-.1,1.15.51,2.13.74,3.2.12.63.51,1.23,1.13,1.25,2.06.07,4.09.83,6.29.56h0Zm4.62,87.8c-.36-.39-.66-.39-.93-.25-3.48,1.62-6.98,3.11-10.97,2.71-.78-.09-1.25.52-1.49,1.27-.91,2.91-2.49,5.41-5.06,7.66,2.81-.17,4.78-1.25,6.42-2.69,3.01-2.6,6.39-4.5,9.96-6.15,1.1-.52,2.03-1.23,2.06-2.54h0ZM0,231.69c1.94-.46,3.09-1.64,3.75-3.53,1.03-2.94,3.28-5.28,4.26-8.28.27-.79,1.12-1.4,1.74-2.06.69-.73,1.56-1.34,2.11-2.15,4.13-6.14,10.38-9.65,16.37-13.54,3.97-2.59,8.2-4.73,12.16-7.32,3.8-2.49,7.91-4.43,11.89-6.59,7.24-3.97,14.19-8.52,21.83-11.78,2.32-1,4.55-2.16,6.76-3.4,8.99-5.06,18.72-8.57,27.96-13.09,6.7-3.26,13.76-5.78,20.26-9.49,1.42-.81,2.98-1.27,4.53-1.67,7.73-2.05,15.27-4.57,22.72-7.42,7.93-3.03,16.2-4.65,24.52-6.22,8.01-1.52,16.03-3.13,23.91-5.34,2.23-.61,4.55-.98,6.85-1.17,2.33-.19,4.62-.44,6.86-1.05.57-.15,1.23-.32,1.79-.2,2.96.66,5.8-.14,8.66-.71,2.18-.44,4.38-.63,6.61-.61,4.45.05,8.89-.42,13.31-.29,8.78.29,17.57.12,26.34.57,2.74.14,2.82.19,3.13-2.64.71-6.58.15-13.1-1.23-19.54-.41-1.88-.93-3.74-.86-5.68.07-1.89.63-3.48,2.16-4.79,2.15-1.79,2.11-6.49-.05-8.37-2.89-2.49-6.14-4.28-10.08-4.36-1.42-.02-2.81-.29-4.19-.61-5.97-1.44-11.89-3.14-17.92-4.26-6.88-1.27-13.37-3.74-20.05-5.65-5.21-1.47-10.31-3.31-15.69-4.28-2.84-.49-5.58-1.59-8.37-2.4-1.84-.52-3.7-.98-5.65-1.03-3.33-.07-6.64-.42-9.89-1.23-2.76-.71-5.61-.54-8.4-1.05-2.23-.41-3.97-1.1-4.9-3.4-1.61-3.92-5.38-5.29-8.81-6.88-3.18-1.49-6.56-2.59-9.86-3.8-.8-.29-1.45-.71-2.05-1.28-.74-.73-1.59-1.18-2.67-1.18-.54,0-1.15-.2-1.17-.76-.12-3.35-2.87-3.36-5.07-3.94-.88-.22-1.83-.2-2.55-.81-1.03-.86-2.13-.96-3.4-.68-1.42.32-2.81.27-3.94-.9-.9-.9-2.06-.66-3.16-.59-2.27.1-4.04-.63-5.58-2.42-2.05-2.35-4.43-4.23-7.84-4.29-2.22-.07-4.41-.52-6.61-.73-1.29-.12-2.38-.54-3.23-1.47-1.52-1.71-3.52-3.03-4.41-5.31-.47-1.25-1.59-1.62-2.93-1.72-5.24-.39-10.45-.88-15.67-1.4-1.22-.12-2.4-.24-3.6.08-.96.25-2.1-.14-2.91.57-.83.71-.14,1.72-.29,2.59-.2,1.3-1.56,2.38-2.81,2.18-1.3-.19-1.49-1.15-1.49-2.25-.02-1.54.1-3.09,1.07-4.35,1.84-2.43,2.13-5.07,1.4-7.96-.37-1.45-.81-2.94-.59-4.48.2-1.4,1.13-1.98,2.37-1.32,1.23.64,2.38,1.44,3.01,2.84.64,1.47,1.76,2.37,3.55,2.35,1.32-.02,2.55.58,3.75,1.05,3.25,1.28,6.64,1.71,10.08,1.91,1.61.1,3.21.1,4.82.42,1.52.32,2.81.13,4.13-1.07,2-1.84,4.51-1.32,6.88-.63,1.4.41,2.49,1.34,3.57,2.23,2.55,2.15,5.48,3.38,8.84,3.28,1.71-.03,3.03.63,3.75,2.08,1.4,2.82,4.12,4.38,6.12,6.61.66.71,1.49,1,2.43,1.03,2.03.08,3.7.9,5.04,2.42.95,1.1,2.03,1.89,3.62,1.91,1.54,0,2.57,1.1,3.48,2.18,1.51,1.81,3.16,2.86,5.75,2.52,1.98-.25,3.6,1.13,4.97,2.5,2.86,2.87,6.71,4.46,9.6,7.34.9.88,2.1.44,3.14-.02,1.56-.66,3.03-.74,4.67-.08,8.17,3.23,16.43,6.14,25.01,8.1,13,2.96,25.62,7.3,38.43,10.91,9.81,2.77,19.51,5.92,29.42,8.34,5.58,3.08,12.33,4.14,16.55,9.54.07.08.13.15.2.24,1.81,2.6,3.48,5.29,6.83,6.31.83.24,1.18,1.3,1.56,2.15,1.83,4.18,3.31,8.45,3.4,13.07.05,3.35.54,6.63,1.32,9.87,1.01,4.23,1.91,8.47,2.65,12.75.59,3.3.74,3.4,4.01,3.84,5.78.76,11.65.86,17.42,1.93,1.44.25,3.01-.29,4.51-.29,7.27-.03,14.56-.39,21.79.1,9.28.63,18.56.32,27.85.59,9.99.3,19.92,1.27,29.76,3.13,3.06.57,6.24.41,9.13,1.83.88.44,1.54.05,1.96-.83,2.55-5.27,4.75-10.65,5.55-16.52.37-2.67,1.25-5.02,3.8-6.44.68-.39,1.35-.95,1.79-1.59,1-1.44,1.66-2.93.81-4.78-.96-2.15-2.2-3.87-4.06-5.46-9.06-7.79-19.88-13.19-28.73-21.17-7.76-7.02-16.7-12.39-24.85-18.84-.98-.79-2.15-1.03-3.35-1.25-1.39-.27-2.82-.49-4.09-1.03-2.27-.96-2.57-3.13-.63-4.58.93-.69,1.05-1.34.71-2.3-.74-2.11-1.96-3.74-4.29-4.26-1.51-.34-2.77-1.03-3.91-2.15-1.13-1.15-2.57-1.96-4.28-2.01-.95-.02-2.03-.14-2.42-1-.96-2.03-2.74-2.05-4.57-2.23-3.84-.44-7.25-1.71-9.47-5.17-.47-.78-1.35-.81-2.15-.9-3.06-.29-5.61-1.61-7.68-3.82-.9-.96-2.06-1.27-3.23-1.5-3.28-.64-6.15-1.89-7.95-4.94-.56-.96-1.56-1.47-2.52-1.47-3.35.03-6.21-1.67-9.32-2.42-1.96-.49-3.85-1.18-5.8-1.72-1.71-.47-3.28-1.08-4.01-2.89-.46-1.13-1.56-1.22-2.5-1.44-1.47-.35-2.52-1.17-3.31-2.43-1.42-2.27-1.23-3.18,1.3-4.94.78.74.32,1.71.44,2.54.17,1.3.98,2.11,2.13,2.2,1.15.08,2.47-.05,3.01-1.47.71-1.79,1.4-3.57,1.74-5.48.19-1.1.42-2.2,1-3.16.86-1.45,2.11-2.06,3.74-1.59.59,1.03-.39,1.32-.66,1.88-1.57,3.2-.68,5.9,2.48,7.56,3.3,1.74,6.48,3.72,9.96,5.11.64.27,1.27.64,1.93.83,1.13.32,2.1.14,2.15-1.29.03-1.5,1.03-2.03,2.21-2.5,3.69-1.5,7.34-.98,10.97.08,1.18.34,2.11,1.27,2.65,2.37.49,1,1.29,1.5,2.15,2.03.32.2.76.68,1.05.34,1.84-2.18,2.25-.02,2.82,1,.63,1.08,1.47,1.62,2.64,1.72,1.56.14,2.96.64,4.14,1.67.74.64,1.57.76,2.52.85,3.7.35,6.46,2.11,7.83,5.68.83,2.13,1.67,3.75,4.35,4.43,1.89.47,3.77,2.1,5.12,3.97,1.32,1.83,2.59,3.8,4.5,5.16.78.56,1.1,1.42,1.4,2.28.39,1.12,1.13,1.67,2.33,1.25,1.72-.63,2.91.2,3.94,1.45.85,1,1.72,1.96,2.54,3.01,3.52,4.58,7.64,8.54,11.94,12.43,8.23,7.44,17.03,14.2,25.31,21.59,1.89,1.67,3.96,3.16,5.97,4.65,2.77,2.05,5.55,4.07,7.83,6.68.27.3.54.64.88.83,3.75,2,5.58,5.7,7.96,8.91.59.8,1.13,1.72,1.35,2.67.42,1.79,1.22,3.11,2.91,3.97,1.39.73,1.62,2.27,1.94,3.64.73,3.09.51,6.26-.02,9.33-1.08,6.37-1.99,12.75-2.33,19.22-.08,1.69-.68,3.35-1.01,5.02-.37,1.89-.24,3.64,1.49,4.9,2.59,1.89,3.45,4.7,3.74,7.66.34,3.52.86,7.02.76,10.57-.02.91.07,1.86-.17,2.71-.83,2.91-.61,5.6,1.42,8.13.46-.46.24-1.05.25-1.56.02-.61.03-1.23-.12-1.81-.66-2.54-.34-5.02.22-7.49.61-2.62.79-5.22.24-7.83-.44-2.16.49-3.5,2.25-4.45,2.94-1.56,5.92-3.01,9.01-4.24.74-.3,1.52-.56,2.22-.96,1.78-1.05,3.67-1.69,5.77-1.52,1.42.12,2.38-.47,3.36-1.56,4.16-4.63,8.66-8.98,12.61-13.76,2.37-2.84,4.99-5.51,6.71-8.91,1.76-3.4,4.73-6.04,6.64-9.37.68-1.15,1.83-1.61,3.13-1.54,1.94.1,3.47-.14,4.06-2.52.3-1.18,1.66-1.96,2.89-2.52.91-.42,1.91-.74,2.67-1.37,3.57-2.92,7.76-4.67,11.87-6.63,6.46-3.08,12.95-6.14,19.16-9.74.35-.2.71-.44,1.08-.54,6.19-1.94,11.68-5.49,17.85-7.41,1.57-.49,2.98-1.23,4.21-2.33.61-.52,1.25-1.03,1.94-1.44,2.55-1.45,5.04-2.94,7.1-5.09.59-.64,1.3-1.5,2.32-1.05,1.79.8,2.05-.44,2.43-1.62.35-1.05.68-2.13,1.15-3.13.63-1.34,1.45-2.32,3.26-2.06,1.39.19,2.64-.19,2.21-2.18-.12-.51.41-.86.9-1.1,3.01-1.35,5.16-3.72,7.19-6.24,1.44-1.83,3.36-2.87,5.68-2.94,2.18-.07,4.4.46,6.48-.57,4.01,1.08,6.44-1.88,9.42-3.52,4.46-2.42,9.2-2.69,14.03-1.1.17.07.41.17.49.32,1.47,2.45,3.58,2.2,6.04,1.86,3.79-.51,7.64.09,11.46-.56,1.93-.34,3.42,1.59,3.55,4.04.08,1.69-.44,3.43.46,5.07v5.44c-.95,1-.78,2.81-2.38,3.35-.56.19-1.17.51-1.67,0-.47-.47.03-.91.14-1.37.24-.9.34-1.79.57-2.67.42-1.57-.25-2.43-1.69-3.03-4.55-1.84-9.27-1.81-14.03-1.47-.9.07-1.59.44-1.32,1.54.47,1.89-.68,2.71-2.13,3.47-1.81.95-3.69,1.01-5.61.76-1.18-.15-2.35-.58-3.57-.24-.49,3.23-1.79,4.26-5.09,4.02-.78-.05-1.52-.24-2.37.1-3.84,1.45-7.68,3.11-11.95,1.83-.19-.05-.41-.02-.59-.02-.96-.02-1.5.17-2,1.29-1.08,2.48-2.49,4.84-5.82,4.87-1.08,0-2.15.51-3.21.85-.83.27-1.49.84-1.37,1.76.2,2.03-.98,3.55-1.94,4.99-2.59,3.79-5.85,6.88-10.84,6.64-3.53-.15-6.76.56-9.99,1.86-8.69,3.55-17.84,5.77-26.39,9.74-6.49,3.01-13.07,5.78-19.14,9.62-1.23.78-2.47,1.37-2.11,3.21.24,1.2-.59,2.1-1.32,2.94-1.03,1.2-1.81,2.38-.84,4.06.63,1.05.19,2.11-.37,3.14-4.28,7.88-8.52,15.79-12.76,23.67-.86,1.62-.76,2.01,1.01,2.69,3.4,1.3,6.68,2.81,9.96,4.4,1.02.51,1.84,1.17,2.82-.15.49-.64,1.27-.15,1.93.17,2.82,1.35,5.5,2.93,7.96,4.84,1.52-2.54,1.71-2.57,3.84-.95,1.54,1.17,2.87,2.54,4.14,3.97.91,1.03,1.89,1.99,3.26,3.43-.17-1.03-.25-1.42-.29-1.81-.09-.71-.14-1.45.73-1.79.81-.32,1.35.19,1.81.73.52.63.96,1.3,1.45,1.94,1.17,1.52,2.33,3.04,3.53,4.55.51.64,1.05,1.27,1.93.32,1.25-1.35,2.16-.44,2.91.63,1.37,2,2.67,4.02,3.99,6.09.64,1.01,1.27,1.81,2.65,1.05,1.44-.81,2.65-.19,3.33,1.08,1.27,2.38,3.75,3.65,5.19,5.87.27.42.69.76,1.22.81,3.25.32,4.79,2.65,6.26,5.16,1.12,1.89,2.22,3.85,4.48,4.72,1.17.42,1.59,1.5,1.84,2.6.25,1.18.79,2.05,1.96,2.47,2.6.91,3.36,3.04,3.53,5.48.12,1.71.2,3.43-.3,5.12-.22.8-.44,1.62.05,2.33,1.1,1.61,1.56,3.5,2.69,5.07,2.21,3.08,3.67,6.42,3.13,10.4-.19,1.47.05,3.03.2,4.53.76,7.52.73,14.9-3.13,21.79-1.3,2.3-1.93,4.8-.41,7.49.85,1.45.95,3.26.83,5.02-.07,1.06-.39,2.05-1.32,2.59-1.64.96-2.52,2.23-2.35,4.19.08.85-.25,1.71-1.25,1.81-1.67.17-1.98,1.45-2.45,2.69-.79,2.08-1.67,4.13-3.04,5.9-1.01,1.34-2.18,2.4-4.04,2.27-1.35-.1-2.23.54-2.87,1.74-1.01,1.89-2.67,3.3-3.99,4.95-.85,1.06-1.84,1.42-3.16.64-2.72-1.59-3.06-1.47-4.35,1.45-.69,1.61-1.49,3.08-2.74,4.31-1.74,1.69-2.06,1.67-3.33-.3-.95-1.47-1.91-1.56-3.01-.19-.37.46-.64,1.01-.86,1.59-.49,1.29-1.52,2.11-2.48,2.99-.95.84-1.94,1.23-2.81-.07-.85-1.29-1.91-1.2-3.16-.74-1.34.47-2.7.83-3.89,1.66-.57.41-1.22.91-1.93.71-2.27-.68-3.91.61-5.55,1.71-7.12,4.82-14.47,9.25-22,13.36-2.69,1.47-2.69,1.44-1.23,4.07,4.35,7.84,8.84,15.61,13.73,23.13.49.76,1.05,1.72.74,2.55-1,2.59.19,4.67.9,7.05.64,2.2,1.86,3.69,3.26,5.24,1.01,1.12,2.57,1.01,3.82,1.69,4.94,2.65,10.33,4.29,15.62,6.02,7.07,2.32,14.35,4.07,21.59,5.87,5.29,1.3,10.74,1.74,15.99,3.35,1.93.59,4.04,1.37,6.09,1.27,1.91-.1,3.04.66,4.16,1.89,1.37,1.5,2.25,3.35,3.31,5.06.41.68.61,1.44,1.5,1.78,4.24,1.59,7.35,4.92,11.06,7.35.59.41,1.07.85,1.13,1.67.22,1.88,1.49,2.65,3.21,3.06,4.21.98,7.56,3.42,9.7,7.08,1.3,2.25,3.8,2.91,5.17,4.9.24.35.73.17,1.13.12q3.7-.51,5.38,2.65c.56,1.07,1.03,2.38,2.35,2.59,2.43.35,4.55,1.61,6.86,2.2,2.91.74,5.33,2.42,7.95,3.67,1.13.56,1.93,1.56,1.96,2.87.05,2.93.2,5.87-.07,8.77-.3,3.2-3.57,4.87-6.63,3.65.1-.71.76-.86,1.25-1.18,2.76-1.86,2.64-2.93.07-4.94-2.77-2.18-6.04-3.53-8.88-5.6-1.5-1.1-2.49-.83-3.6.86-1.4,2.16-3.47,2.86-5.78,2.27-2.18-.57-4.38-1.32-6.04-3.16-1.79-1.94-3.38-4.01-4.62-6.34-.68-1.25-1.5-1.93-3.04-2.03-3.03-.24-5.93-1.37-8.4-2.99-3.16-2.05-6.17-4.51-7.24-8.49-.19-.66-.71-.9-1.17-1.3-3.53-3.13-7.13-6.22-9.67-10.3-.69-1.1-1.35-1.12-2.18-.44-1.01.78-1.84.37-2.77-.17-1.4-.83-2.52-1.98-3.7-3.08-2.21-2.1-4.65-3.6-7.78-4.28-4.7-1-9.42-2.28-13.95-3.92-7.57-2.76-15.01-5.93-22.52-8.84-6.93-2.69-14.19-4.67-20.02-9.6-.15-.12-.36-.2-.52-.3-1.56-.81-2.91-1.88-3.85-3.35-.73-1.15-1.62-1.67-2.99-1.66-1.12,0-2.35-.2-2.98-1.18-1.54-2.4-3.97-4.06-5.34-6.58-1.49-2.69-3.53-4.9-5.82-6.93-.9-.79-1.74-1.69-2.52-2.6-4.41-5.27-9.89-9.5-14.32-14.76-.58-.71-1.35-1.22-1.94-1.89-.56-.64-1.17-1.05-2.05-1.15-6.78-.71-12.82-3.43-18.53-6.98-2.25-1.4-2.6-1.98-1.89-4.41.54-1.83.61-3.64.22-5.39-.78-3.58-1.01-7.19-.83-10.84.05-.95.29-2.01-.74-2.86-1.32,1.06-.81,2.92-1.94,3.99-.91.86-.9,2.05-.69,3.13.93,4.84.37,9.69.47,14.52.03,1.44-.49,2.72-.95,4.07-1.52,4.46-5.23,7.07-8.42,10.06-1.1,1.01-1.57,1.93-1.5,3.35.07,1.49.34,2.99.19,4.51-.27,2.82-.27,5.65.27,8.45.3,1.57.47,3.2.54,4.8.15,4.23.03,8.47.41,12.66.25,2.72-.83,4.7-2.5,6.44-.83.85-1.35,1.59-1.59,2.76-.44,2.18-1.27,4.33-2.7,5.99-1.72,1.99-3.36,4.01-4.68,6.27-.56.98-1.42,1.72-2.3,2.38-3.64,2.72-7.1,5.6-10.55,8.54-4.89,4.18-10.03,8.05-14.73,12.46-5.29,4.97-10.72,9.84-16.42,14.34-4.73,3.74-8.17,8.98-13.75,11.7-.25.12-.42.42-.62.64-2.15,2.16-2.37,2.23-5.11.54-1-.63-1.77-.83-2.64.17-1.98,2.28-4.65,3.72-7.03,5.48-1.18.86-2.67,1.45-4.29.96-.88-.25-1.52.15-2.16.74-1.78,1.61-3.64,3.14-5.41,4.75-1.22,1.1-2.64,1.74-4.06,2.5-2.54,1.37-5.48,2.15-7.39,4.6-.81,1.05-2.01,1.25-3.3,1.15-1.23-.08-2.4.05-3.42.9-3.75,3.2-8.47,4.41-12.95,6.12-.59.24-1.27.17-1.74-.2-1.77-1.47-3.48-1.03-5.29-.05-.9.47-1.88.79-2.84,1.03-4.26.98-8.17,2.91-12.27,4.31-.59.2-1.18.44-1.49.96-.93,1.57-2.77,1.52-4.09,2.38-.54.36-1.2.37-1.67-.15-.59-.69-.2-1.3.25-1.88.3-.41.69-.76.95-1.18,1.56-2.5,1.05-5.36-1.22-7.14-.95-.74-1.81-1.59-2.72-2.4-1.32-1.18-1.89-2.86-2.69-4.34-.39-.71-.22-1.44.52-1.83.69-.37,1.12.19,1.47.69.29.41.51.86.76,1.3,1.47,2.43,3.5,3.72,6.48,3.62,5.65-.2,10.92-1.83,16.21-3.53,1.17-.37,1.91-1,1.61-2.45-.51-2.33.73-3.72,2.59-4.94,1.98-1.32,4.18-1.88,6.37-2.54.71-.2,1.84-.15,1.71-1.3-.25-1.93,1.18-2.3,2.42-2.93,2.49-1.25,4.85-2.77,7.74-3.08,1.05-.12,1.64-1.1,2.3-1.86,1.54-1.76,3.47-3.04,5.36-4.36,1.79-1.22,3.87-.93,5.88-.9,1.64.02,3.25.02,4.51-1.28,1.98-2.05,4.7-3.2,7.22-3.42,3.97-.34,6.97-3.16,10.84-3.45.3-.03.66-.46.9-.76,2.18-2.92,6.29-2.45,8.72-4.94.1-.12.39-.08.57-.08,2.57-.12,4.6-1.35,6.49-2.98,2.98-2.57,5.92-5.17,9.1-7.51,5.85-4.31,11.53-8.86,17.19-13.41,5-4.02,10.25-7.83,15.88-10.97,2.44-1.35,3.69-3.7,4.07-6.1.3-1.93-.64-4.09-1.2-6.1-.12-.44-.9-.78-1.45-1-1.32-.52-2.23-1.47-2.66-2.74-.9-2.65-2.01-5.26-1.61-8.2.22-1.67.37-3.41-.46-5.06-1.2-2.35-1.89-4.87-2.62-7.41-1.18-4.09-1.29-4.33-5.41-3.23-12.7,3.36-25.77,3.3-38.7,4.65-6.73.71-13.49.61-20.26.71-4.55.08-9.06.03-13.59-.52-1.88-.22-3.84-.14-5.73.02-6.04.47-12.04,1.13-18.01,2.21-6.54,1.18-13.15,2.06-19.73,3.01-1.2.17-2.08.49-2.57,1.72-1.88,4.89-3.79,9.77-5.68,14.66-1.62,4.21-2.74,8.61-4.63,12.73-1.03,2.25-2.27,4.02-4.82,4.56-1.03.24-1.78.83-2.27,1.83-1.83,3.84-5.48,5.9-8.71,8.17-3.16,2.21-7.03,3.36-10.6,4.99-4.33,1.96-8.89,3.23-13.26,5.09-2.01.88-3.92,2.11-6.05,2.6-2.47.54-4.84,1.47-7.08,2.42-9.03,3.82-18.21,7.2-27.53,10.16-11.56,3.69-22.88,7.91-33.66,13.49-1.93,1.01-3.48,1.22-5.19-.17-.3-.25-.84-.27-1.06-.54-1.44-1.84-2.84-1.05-4.48-.2-4.38,2.27-8.72,4.67-13.53,6-.79.22-1.56.54-2.37.35-4.13-.85-7.49,1.08-10.6,3.23-1.81,1.25-3.53,2.57-5.66,2.6-3.94.08-6.81,2.18-9.65,4.46-1.66,1.32-3.31,2.65-4.89,4.06-.79.71-1.59,1.23-2.65,1.32-3.15.24-6,1.42-8.74,2.86-1.51.81-3.04,1.17-4.67.9-4.13-.73-7.41,1.34-10.62,3.35-2.54,1.57-4.73,3.67-7.13,5.48-3.03,2.28-3.13,2.81-.63,5.66.41.46.9.81,1.3,1.25.47.47.44,1.1.37,1.71h-3.63c-1.79-2.25-4.14-4.18-4.14-7.44,0-.27-.24-.57-.44-.79-2.15-2.5-3.25-5.68-5.58-8.17-2.76-2.91-.51-7.66,3.62-8.15-.27.39-.51.69-.71,1.03-1.47,2.35-1.01,4.99,1.13,6.71.49.41,1.07.76,1.64.37,1.62-1.13,3.6-1.2,5.38-1.89,3.65-1.42,7.02-3.45,10.53-5.19,2.08-1.01,2.21-1.18,1.57-3.5-.64-2.32-.07-4.01,1.72-5.65,2.37-2.15,4.85-3.47,8.15-3.18,2.03.19,2.15-.05,2.06-2.2-.03-.9-.02-1.79.93-1.93.93-.14.86.9,1.06,1.54.05.19.12.39.22.56.44.69,1.15.76,1.88.66.71-.1,1-.57,1.01-1.27.02-.56-.19-1.25,1.28-1.52.07.15.22.73.57,1.03,1.98,1.64,2.99,1.56,4.48-.52.83-1.13,1.47-2.42,2-3.72.96-2.35,2.74-3.43,5.14-3.55,1.91-.1,3.85-.34,5.63.71.32.2.79.42,1.13.34,1.81-.54,3.2-.25,4.5,1.34.83,1.03,2.4.51,2.92-.78.27-.63.24-1.37.36-2.06.41-2.18,1.56-3.75,3.79-4.21,3.4-.69,6.9-1.03,10.11.44,2.76,1.27,5.21,1.01,7.85-.12,1.56-.66,2.72-1.2,2.98-3.23.27-2.03,1.71-2.72,3.4-2.79,1.54-.05,1.74,1.66,2.89,1.89,1.15.22,1.78-1.4,3.31-.86,2.06.73,2.27.46,2.22-1.91-.02-1.23.35-1.93,1.59-2.11.49-.07,1.06-.07,1.45-.32,1-.64,1.69-.71,2.52.36.81,1.01,1.98,1.18,3.31.79,3.8-1.13,8.01-.68,11.58-2.89.41-.25.96-.34,1.45-.35,2.57-.12,4.94-1.01,7.27-1.93,4.31-1.66,8.57-3.38,12.8-5.34,5.44-2.54,11.28-4.26,17.04-6.09,3.37-1.05,6.81-1.88,10.08-3.26,5.75-2.45,11.82-3.97,17.79-5.77,3.31-1,5.82-2.87,7.81-5.36,1.45-1.78,1.01-4.41,1.71-6.61.08-.25-.34-.71-.59-1-2.01-2.16-1.77-4.73-.83-7.1.79-1.98,1.34-4.01,2.08-5.99,1.1-2.91,2.42-5.75,2.88-8.88.42-2.87.44-3.08-2.38-2.99-5.75.19-11.48-.42-17.23-.08-7.88.47-15.71-.83-23.55-1.35-4.11-.29-8.3-.47-12.31-1.37-10.91-2.48-22.1-3.48-32.82-6.85-7.98-2.5-16.4-3.38-24.3-6.21-8.91-3.2-18.33-4.97-26.77-9.5-.44-.25-.95-.37-1.42-.52-4.36-1.3-8.54-2.98-12.46-5.38-6.37-3.89-13.56-6.26-19.83-10.38-.51-.32-1.12-.47-1.66-.71-3.04-1.34-6.19-2.45-9.1-4.04-3.63-1.98-7.35-3.7-11.11-5.43-5.02-2.33-9.97-4.84-14.88-7.41-4.29-2.25-8.42-4.85-12.73-7.02-2.45-1.23-4.87-2.45-7.05-4.09-2.84-2.11-5.87-3.94-8.94-5.68-2.54-1.45-5.14-2.87-7.29-4.8-2.38-2.15-4.87-4.18-7.17-6.44-4.63-4.57-7.42-10.38-11.38-15.35-.13-.17-.22-.35-.29-.54-.15-.56,0-1.05.56-1.22.57-.19,1.2-.2,1.77-.35,2.42-.63,2.89-1.52,2.11-3.96-.61-1.86-.91-3.67-.2-5.6.47-1.29.05-2.5-1.15-3.13-1.71-.88-1.18-1.61-.25-2.76,2.23-2.74.71-6.63-2.77-7.07-1.47-.19-2.74-.57-3.89-1.45v-.61h0Z"/>
  </g>
</svg>