<?xml version="1.0" encoding="UTF-8"?>
<svg id="Layer_2" data-name="Layer 2" xmlns="http://www.w3.org/2000/svg" viewBox="0 0 654.5 427.52">
  <defs>
    <style>
      .cls-1 {
        fill:#808080
      }
    </style>
  </defs>
  <g id="Layer_1-2" data-name="Layer 1">
    <path class="cls-1" d="m358.34.5c28.51-2.2,57.12,2.84,83.17,14.66,51.84,24.34,76.08,68.03,67.07,124.56-4.6,30.66-10.83,61.03-17.15,91.41-6.9,32.67,4.02,44.65,36.79,39.28,26.44-4.31,52.89-9.58,79.81-3.16,21.32,3.33,38.84,18.61,45.03,39.28,1.39,6.48,1.78,13.14,1.15,19.74,0,12.55-30.37,8.43-15.14,30.76,3.55,5.27-38.33,20.98-50.78,15.23-6.61-2.97-12.93-17.25-17.53,3.64-2.68,12.07-13.41,2.97-19.16-3.45-5.75-6.42-8.14-13.8-17.82-8.72-7.72,4.13-11.66,12.96-9.58,21.46,1.85,10.02,4.25,19.94,7.19,29.7.96,4.22,2.3,8.72-1.92,11.4-3.85,2.16-8.68,1.41-11.69-1.82-11.31-9.58-24.15-20.03-27.02-35.36-4.98-26.64-24.62-35.07-46.37-37.56-26.83-2.97-53.85-1.15-76.65,17.53-3.64,2.97-7.86,7.95-13.03,4.12-3.73-3.21-4.15-8.84-.94-12.57.29-.34.61-.65.94-.94,43.31-40.63,19.16-95.81,30.56-142.67,2.49-10.64,1.05-23,6.13-31.91,15.33-26.92,2.78-52.31-2.11-77.8-2.97-15.81-38.33-24.05-57.49-11.21-23.57,15.62-47.24,33.63-58.45,60.65-10.41,26.62-26.8,50.49-47.91,69.75-14.76,13.13-24.53,27.59-13.89,47.91,4.3,6.61,2.44,15.45-4.17,19.75-.89.58-1.83,1.05-2.82,1.42-12.07,6.04-25.87,8.43-35.07-2.11-12.07-13.8-20.5-10.16-30.37.86-9.87,11.02-22.71,16.19-34.97,23.67-12.26,7.47-25.39,16.67-6.9,32.29,8.72,7.67,5.84,15.62-2.49,20.7-15.33,9.58-31.04,22.13-49.54,5.56-1.23-1.16-2.71-2.04-4.31-2.59-14.47-4.5-37.08,0-39-20.12-2.3-23.47-4.69-49.15,6.8-71.09,10.44-20.12,34.3-27.69,49.25-45.03,16.86-21.87,38.93-39.16,64.2-50.3,20.5-7.95,26.64-33.06,36.51-52.41C200.92,50.81,262.14-4.58,358.34.5Z"/>
  </g>
</svg>