<?xml version="1.0" encoding="UTF-8"?>
<svg id="Layer_2" data-name="Layer 2" xmlns="http://www.w3.org/2000/svg" viewBox="0 0 654.5 415.9">
  <defs>
    <style>
      .cls-1 {
        fill:#808080
      }
    </style>
  </defs>
  <g id="Layer_1-2" data-name="Layer 1">
    <path class="cls-1" d="m346.45,355.29c-11.02,31.78-23.51,35.61-36.3.59-35.52,59.03-126.91,78.12-175.32,37.29-22.43-18.89-28.33-44.86-23.02-74.38,6.52-32.27,19.61-62.84,38.47-89.82C76.19,223.85-1.93,127.04.04,44.4.92,7.9,24.73,1.11,49.62,1.11,130.5-.15,209.96,22.36,278.17,65.84c7.58,4.72,14.36,10.92,22.14,16.92,7.87-18.5,4.92-45.35,32.96-41.71,23.61,2.95,10.33,28.33,21.94,41.62,55.49-49.19,123.67-64.05,191.75-78.71,23.69-4.97,48.12-5.27,71.92-.89,25.28,4.43,38.47,19.68,35.12,49.19-7.57,62.54-37.06,120.37-83.23,163.22-18.79,18.59-41.71,17.22-73.49,1.48,24.3,36.21,39.94,65.13,46.63,98.38,6.69,33.25-.79,63.85-28.92,83.13-52.24,35.52-134.39,14.56-168.53-43.19Z"/>
  </g>
</svg>