<?xml version="1.0" encoding="UTF-8"?>
<svg id="Layer_2" data-name="Layer 2" xmlns="http://www.w3.org/2000/svg" viewBox="0 0 654.5 494.52">
  <defs>
    <style>
      .cls-1 {
        fill:#808080
      }
    </style>
  </defs>
  <g id="Layer_1-2" data-name="Layer 1">
    <path class="cls-1" d="m197.98,205.53c-10.22,52.46-9.64,51.98,30.67,75.32,25.36,14.75,44.84,35.3,43.11,68.76-2.41,45.61-.96,90.55,30.76,128.26,3.76,4.53,7.52,11.57,0,15.53-7.52,3.95-10.51-3.28-13.31-8.68-17.65-34.33-38.57-66.16-31.82-109.36,6.75-43.2,2.51-42.43-27.48-60.66,6.56,31.53-1.35,61.53-8,90.94-6.65,29.41,19.29,54.78,11.19,84.77-12.34-34.81-37.32-66.54-20.83-107.81,12.49-26.97,5.15-58.98-17.84-77.82-28.35-26.81-54.78-56.22-57.86-98.65,0-5.5-1.74-10.51-9.16-8.1-7.43,2.41-13.02,5.5-8.2,12.73,17.07,26.23,11.28,62.97,41.66,83.61,15.43,11.25,21.5,31.38,14.85,49.28-12.25,40.7-31.53,79.56-29.8,131.06-13.02-21.99-1.74-39.73-11.38-53.91-12.73,5.69-7.52,19.87-15.24,31.05-5.05-32.53,4-65.68,24.88-91.13,16.88-20.93,13.4-36.65-3.09-56.13-17.74-21.02-30.57-46.1-46.96-68.47-5.98-8.2-6.75-25.94-28.35-14.27-9.64,5.4-8.78-24.49-25.75-28.93-9.64,7.43,0,19.29-5.5,27.58-22.95,5.5,14.18-61.43-34.52-25.46.77-13.5,13.98-19.29,11.57-32.21-7.14-36.26,19.87-54.1,42.82-72.23C110.52,46.31,176.96,23.55,245.14,10.53c126.43-23.72,246.2-12.34,343.31,86.02,42.14,42.62,57.86,95.76,65.29,152.47,1.45,11.28,2.8,25.94-15.43,28.26-2.41,0-8.39,2.41-5.01,4.82,28.06,20.64-2.6,22.47-9.64,28.93-77.15,65.19-215.34,57.09-286.9-17.17-3.73-3.77-8.56-6.27-13.79-7.14,28.93,38.57,43.78,84.38,66.25,125.94,14.85,27.58,41.56,41.56,70.88,50.53,12.24,3.49,24.17,7.97,35.68,13.4-31.53,3.47-87.76-22.76-108.68-48.22-17.09-21.86-31.38-45.77-42.53-71.17-8.09-20.16-21.4-37.8-38.57-51.11,6.6,52.64,26.52,102.72,57.86,145.52-15.46-4.96-27.99-16.4-34.33-31.34-10.43-19.99-19.14-40.83-26.04-62.3-9.03-31.76-26.53-60.46-50.63-83.03-21.89-20.44-46.87-37.42-54.87-69.43Zm108.68,65.67c-13.4-14.85-14.46-39.92-37.9-48.22-15.53,38.86,12.05,43.49,37.9,48.22Z"/>
  </g>
</svg>