<?xml version="1.0" encoding="UTF-8"?>
<svg id="Layer_2" data-name="Layer 2" xmlns="http://www.w3.org/2000/svg" viewBox="0 0 403.83 654.5">
  <defs>
    <style>
      .cls-1 {
        fill:#808080
      }
    </style>
  </defs>
  <g id="Layer_1-2" data-name="Layer 1">
    <path class="cls-1" d="m397.66,110.95c2.9-9.25,2.72-19.02,3.51-28.66,1.22-14.95,6.18-34.51-1.71-48.31-4.78-8.49-12.45-17.04-22.7-18.11-4.36-.38-8.79.57-12.16,3.42-1.71,1.36-2.83,2.98-3.88,4.78-.57,1.05-1.68,5.43-2.56,5.93,1.07-.57,2.24-1.15,3.33-1.72,4.76-2.54,9.56-5.77,15.14-3.67,4.93,1.84,7.92,6.92,9.87,11.47,5.92,12.98,4.51,27.57,4.93,41.37.19,9.39.11,18.89-2.7,27.88-3.56,11.18-9.34,21.56-12.1,32.96-.7,3.29-1.42,6.98-3.7,9.65-2.37,2.79-5.87,2.85-8.72,5.03-6.95,5.56-8.36,16.4-10.81,24.41-1.4,4.51-6.11,9.6-8.55,13.77-2.82,4.82-5.41,9.6-8.06,14.45-4.49,8.2-7.08,20.65-17.69,22.48-5.24.88-9.12,3.86-13.72,6.14-4.93,2.37-10.11,4.17-15.39,4.88-6.41.78-17.02,1.57-19.91-5.87-4.08-10.44-2.46-26.27,2.45-36.08,10.33-20.55,13.48-43.82,18.78-65.96,2.37-10.48,1.88-21.53,3-32.12,1.07-11.53,2.46-23.11,2.59-34.68.06-4.99.28-49.92-8.95-47.86-1.95.4-2.92,5.3-3.46,6.79-1.49,4.95-2.9,10.27-3.29,15.39-1.09,12.27-.04,24.59-.85,36.9-.64,8.54-1.08,17.02-1.88,25.56-.95,11.47-2.2,22.9-4.01,34.26-2.9,17.7-10.87,58.16-37.37,41.43-3.77-2.43-5.94-6.44-9.33-9.08-3.36-2.45-7.73-2.58-10.83-5.3-3.13-2.77-2.8-7.86-3.09-11.62-.48-6-1.27-11.97-1.27-17.97,0-13.58,2.19-27.03,1.78-40.59-.55-12.88-2.74-25.68-3.99-38.52-1.01-10.9-.96-21.81-1.69-32.83-.34-5.26-.13-14.68-3.55-18.89-7.32-9.37-9.82,16-9.93,18.89-.76,11.01-.76,21.93-1.77,32.83-1.27,12.85-3.47,25.64-3.9,38.52-.57,13.56,1.77,27.01,1.77,40.59,0,6-.81,11.97-1.34,17.97-.26,3.77,0,8.85-3.09,11.62-3.09,2.72-7.51,2.85-10.75,5.3-3.56,2.64-5.66,6.65-9.42,9.08-26.4,16.73-34.47-23.73-37.32-41.43-1.88-11.36-3.11-22.79-4.08-34.26-.7-8.55-1.2-17.02-1.9-25.56-.81-12.31.27-24.62-.81-36.9-.46-5.12-1.73-10.44-3.31-15.39-.44-1.49-1.53-6.39-3.46-6.79-9.19-2.06-8.99,42.87-8.94,47.86.15,11.57,1.58,23.15,2.67,34.68,1.01,10.59.53,21.64,2.96,32.12,5.24,22.14,8.43,45.41,18.77,65.96,4.86,9.81,6.44,25.64,2.48,36.08-2.89,7.44-13.52,6.65-19.89,5.87-5.35-.71-10.52-2.5-15.36-4.88-4.69-2.27-8.48-5.26-13.8-6.14-10.54-1.84-13.22-14.28-17.67-22.48-2.68-4.86-5.29-9.64-8.04-14.45-2.47-4.17-7.28-9.25-8.58-13.77-2.46-8.01-3.9-18.85-10.82-24.41-2.76-2.18-6.22-2.24-8.68-5.03-2.26-2.68-3.02-6.37-3.81-9.65-2.7-11.4-8.5-21.78-11.97-32.96-2.8-8.99-2.95-18.49-2.73-27.88.46-13.8-.98-28.39,4.8-41.37,2.15-4.55,5.02-9.64,9.95-11.47,5.52-2.1,10.45,1.13,15.21,3.67,1.12.57,2.14,1.15,3.28,1.72-.89-.5-1.97-4.88-2.56-5.93-1.07-1.8-2.34-3.42-3.83-4.78-3.39-2.85-7.85-3.81-12.16-3.42-10.3,1.07-17.95,9.62-22.72,18.11-7.87,13.8-2.9,33.36-1.76,48.31.79,9.64.61,19.41,3.44,28.66,2.8,8.76,8.56,16.12,11.24,24.89,1.44,4.82,3.27,9.77,3.27,14.95-.09,3.84-3.97,9.37-2.2,12.83,1.43,2.81,5.12,2.41,7.39,3.77,9.16,5.35,1.16,16.58-.02,23.42-1.08,5.91,3.17,5.47,7.77,5.91,11.95.97,17.27,14.42,22.58,23.32,8.57,14.32,18.89,28.08,34.44,35.18,11.88,5.49,24.57,7.76,37.45,9.52,0,0,.31,8.89.31,9.12.24,5.43,2.74,11.87,5.54,16.52.98,1.7,5.31,7.19,7.54,7.09-6.62.19-12.85-.78-18.97,2.2-5.02,2.45-9.19,5.91-15.12,4.99-21.52-3.15-39.78,3.86-57.9,14.82-4.56,2.71-7.49,7.02-11.55,10.3-3.99,3.12-9.53,4.55-14.35,6.27-2.54.92-8.15,2.01-7.28,5.74,2.5.27,5.15.13,7.54.13-1.42,0-6.85,12.45-7.63,14.42-2.43,5.87-3.61,12.04-5.41,18.14-1.56,5.12-4.1,9.96-4.86,15.3-1.64,11.79.77,23.36.07,35.2-.42,7.19-1.71,15.12.95,22.08,2.6,6.71,8.57,10.92,15.21,13.25,2.06.69,12.51,4.07,14.18.82,1.31-2.72-5.78-5.26-7.41-6.08-5.1-2.64-9.88-5.45-12.53-10.84-3.64-7.27-3.32-16.48-3.32-24.32,0-10.17.53-20.46,1.96-30.59,1.05-7.23,3.28-14.15,5.48-21.13,1.58-4.78,2.43-15.87,6.4-19.2,3.97-3.39,4.91,1.4,4.67,4.61-.19,2.58-.92,5.53,1.51,7.27,1.8,1.36,2.46-11.3,2.49-11.66,1.42-8.98,6.55-10.34,13.4-15.33,4.76-3.5,8.75-5.26,14.38-7.67,5.17-2.2,9.51-6.4,14.71-8.89,7.8-3.73,10.4-.13,16.28,4.07,2.54,1.87,7.16,3.06,8.02,6.58,1.22,4.76-2.59,9.46-4.78,13.4-5.02,8.99-5.11,20.99-5.43,31.03-.47,13.63.17,27.36.72,40.93.39,10.44,3.66,21.7-3.37,30.15-6.05,7.28-12.01,11.05-14.42,20.74-3.12,13.71-2.15,28.83-3.34,42.81-2.67,30.42-6.6,60.66-8.77,91.12-1,14.51.86,28.72,11.07,39.81,4.69,4.99,10.46,9.02,16.55,12.04,2.51,1.28,9.67,5.45,12.7,4.34,2.44-.92,1.1-1.61-.56-3.41-3.34-3.59-7.93-6.36-11.66-9.52-19.79-16.92-22.74-40.59-19.11-65.25,1.2-8.55,3.22-17.01,4.71-25.47-.24,1.39,8.11,8.93,9.42,10.08,1.2,1.22,6.46,4.95,8.33,3.77,2.9-1.84-3.05-8.2-4.29-9.64-7.93-9.43-7.32-22.79-6.71-34.28.46-9.56.59-19.06.75-28.58,0-6.04-1.43-12.25-.24-18.26,1.49-8.2,8.11-8.24,15.07-9.22,0,0,6.53,18.72,7.14,20.3,10.66,26.29,28.14,50.44,55.14,61.62,7.41,3.1,15.43,5.6,23.23,7.36,12.01,2.58,22.99,2.58,34.93,0,7.92-1.76,15.89-4.26,23.26-7.36,27-11.18,44.51-35.33,55.18-61.62.61-1.58,7.23-20.3,7.23-20.3,6.97.98,13.57,1.02,14.93,9.22,1.22,6-.2,12.22-.13,18.26.11,9.52.26,19.02.78,28.58.57,11.49,1.15,24.85-6.7,34.28-1.32,1.43-7.26,7.8-4.39,9.64,1.87,1.18,7.12-2.54,8.38-3.77,1.25-1.15,9.71-8.68,9.34-10.08,1.58,8.45,3.55,16.92,4.82,25.47,3.57,24.66.73,48.33-19.13,65.25-3.8,3.16-8.36,5.93-11.75,9.52-1.64,1.8-2.9,2.49-.46,3.41,2.98,1.11,10.1-3.06,12.69-4.34,5.98-3.02,11.81-7.06,16.48-12.04,10.3-11.09,12.07-25.29,11.11-39.81-2.24-30.46-6.14-60.7-8.8-91.12-1.25-13.98-.14-29.1-3.38-42.81-2.28-9.69-8.31-13.46-14.31-20.74-7.05-8.45-3.88-19.71-3.36-30.15.48-13.57,1.1-27.3.68-40.93-.33-10.04-.44-22.04-5.37-31.03-2.23-3.94-5.98-8.64-4.95-13.4.95-3.52,5.52-4.7,8.15-6.58,5.9-4.21,8.41-7.8,16.17-4.07,5.24,2.49,9.65,6.69,14.82,8.89,5.63,2.41,9.51,4.17,14.41,7.67,6.75,4.99,11.88,6.35,13.35,15.33.02.36.73,13.02,2.56,11.66,2.32-1.74,1.58-4.68,1.39-7.27-.15-3.21.72-7.99,4.71-4.61,3.94,3.33,4.84,14.42,6.35,19.2,2.2,6.98,4.47,13.9,5.51,21.13,1.44,10.13,1.93,20.42,1.93,30.59.02,7.84.19,17.05-3.29,24.32-2.66,5.39-7.39,8.2-12.54,10.84-1.6.82-8.7,3.36-7.38,6.08,1.63,3.25,12.09-.13,14.18-.82,6.53-2.33,12.67-6.54,15.19-13.25,2.72-6.96,1.29-14.89.87-22.08-.65-11.83,1.78-23.4.18-35.2-.83-5.34-3.34-10.17-4.91-15.3-1.88-6.1-2.92-12.27-5.32-18.14-.83-1.97-6.29-14.42-7.78-14.42,2.57,0,5.09.14,7.63-.13.86-3.73-4.78-4.82-7.31-5.74-4.74-1.72-10.34-3.15-14.31-6.27-4.06-3.29-7.03-7.59-11.53-10.3-18.11-10.96-36.47-17.97-57.88-14.82-5.96.92-10.14-2.54-15.21-4.99-6.13-2.98-12.33-2.01-18.89-2.2,2.15.1,6.49-5.39,7.5-7.09,2.76-4.65,5.27-11.09,5.52-16.52,0-.23.37-9.12.37-9.12,12.87-1.76,25.47-4.03,37.39-9.52,15.62-7.09,25.88-20.86,34.45-35.18,5.28-8.91,10.72-22.35,22.55-23.32,4.62-.44,8.92,0,7.84-5.91-1.2-6.84-9.14-18.07-.09-23.42,2.28-1.36,5.97-.96,7.36-3.77,1.76-3.46-2.1-8.99-2.1-12.83,0-5.18,1.71-10.13,3.2-14.95,2.8-8.78,8.41-16.14,11.17-24.89h0Z"/>
  </g>
</svg>