<?xml version="1.0" encoding="UTF-8"?>
<svg id="Layer_2" data-name="Layer 2" xmlns="http://www.w3.org/2000/svg" viewBox="0 0 484.08 654.5">
  <defs>
    <style>
      .cls-1 {
        fill:#808080
      }
    </style>
  </defs>
  <g id="Layer_1-2" data-name="Layer 1">
    <path class="cls-1" d="m11.45,340.71c-.95-3.73-9-4.29-11.45-6.25,4.12-9.19,19,4.17,24.65,5.23,6.97,1.29,14.24,1.57,21.28,1.26,3.24-.12,6.88.31,9.91-.49,3.54-.96,6.16-4.01,9.49-5.41,8.04-3.54,17.13-5.03,25.79-5.59,6.35-.4,13.1.84,19.35-.53,7.83-1.64,14.94-5.41,22.9-6.01,8.12-.61,16.76.51,24.71,2.43,4.12,1.02,13.03,8.42,16.92,5.18,3.24-2.63-.54-8.58-1.14-11.64-1.49-8.06,2.56-13.89,6.25-20.72-11.36-8.02-26.11-17.37-33.44-29.66-3.28-5.38-6.11-11.07-9.84-16.13-2.1-2.98-4.82-5.74-7.25-8.51-5.95-7.07-7.9-18.7-12.12-27-1.98-3.96-4.27-8-5.92-12.19-1.91-4.64-2.31-9.7-3.96-14.45-1.72-4.66-4.45-9.04-6.3-13.73-4.94-11.52-13.36-21.06-24.97-26.09-5.45-2.37-10.91-2.49-16.65-3.29-3.2-.4-8.84-1.79-5.81-5.18,1.52-1.72,6.11-2,8.4-2.56,4.48-1.05,6.11-2.98,7.04-7.72.53-2.4,2.43-8.02,5.18-3.08,1.26,2.24-1,4.45-.58,6.57.49,2.26,2.42,2.94,4.55,4.27,4.54,2.86,9.02,5.6,12.49,9.67,4.1,4.59,7.6,9.07,12.26,13.15,4.52,3.87,9.21,7.77,12.29,13.03,2.62,4.5,4.55,9.28,6.2,14.13,3.41,9.84,5.08,20.03,7.58,30.03,2.19,8.39,10.66,9.04,16.95,13.2,6.78,4.59,11.09,12.56,15.43,19.23v-9.49c1.73-8,1.87-17.6,7.11-24.3,4.17-5.5,8.41-11.01,12.56-16.5-9.46-5.11-12.03-9.98-15.43-20.08-2.73-8.34-5.48-16.9-5.78-25.69-.54-11.59,2.82-24.01,6.39-34.92,2.01-6.43,7.13-12.57,8.09-19.16,1.07-6.65-6.08-11.31-9.93-15.65-4.83-5.51-7.55-12.94-9.86-19.86-2.8-8.51-4.67-17.22-6.14-25.99-.98-6.74-1.84-13.8-4.99-19.93-2.17-4.04-18.25-14.96-8.35-19.65,8-3.85,14.83,9.91,17.13,15.55,4.69,11.77,5.46,24.27,6.37,36.75.75,9.63,3.78,18.51,8.72,26.81,1.23,1.98,9.79,11.43,9.79,11.43-1.1-7.77-3.03-16.16.21-23.55,4.68-10.44,15.81-14.19,26.53-14.19,2.07,0,5.95-.38,5.95-.38,1.35-.12,6.04-14.83,6.74-16.37,1.35-3.22,2.15-9.79,6.5-10.61,3.29-.56,3.29,1.36,2.78,4.06-1.1,5.34-5.81,9.74-7.72,14.73-1.07,2.7-2.07,7.15-1.8,10.24,1.56,17.42,49.63,16.37,51.11,0,.3-3.1-.72-7.55-1.8-10.24-1.93-4.99-6.58-9.39-7.65-14.73-.59-2.7-.59-4.62,2.7-4.06,4.48.82,5.22,7.39,6.62,10.61.65,1.54,5.32,16.25,6.69,16.37,0,0,3.89.38,5.83.38,10.78,0,21.99,3.75,26.51,14.19,3.29,7.39,1.38,15.78.23,23.55,0,0,8.54-9.46,9.84-11.43,4.94-8.3,7.97-17.18,8.83-26.81.86-12.49,1.59-24.99,6.32-36.75,2.31-5.64,9.11-19.4,17.2-15.55,9.74,4.69-6.27,15.6-8.37,19.65-3.26,6.13-4.01,13.19-5.15,19.93-1.37,8.77-3.29,17.48-5.99,25.99-2.31,6.92-5.04,14.34-9.89,19.86-3.9,4.34-11.08,9-9.91,15.65.98,6.58,6.01,12.73,8.04,19.16,3.45,10.91,6.92,23.32,6.43,34.92-.37,8.79-3.17,17.35-5.9,25.69-3.33,10.1-5.9,14.97-15.32,20.08,4.17,5.48,8.32,11,12.52,16.5,5.25,6.71,5.37,16.3,7.07,24.3v9.49c4.4-6.67,8.7-14.64,15.45-19.23,6.2-4.17,14.85-4.81,16.93-13.2,2.66-10,4.38-20.19,7.67-30.03,1.63-4.85,3.54-9.63,6.18-14.13,3.1-5.25,7.67-9.16,12.2-13.03,4.68-4.08,8.25-8.56,12.24-13.15,3.57-4.06,8.07-6.81,12.61-9.67,2.14-1.33,3.99-2.01,4.41-4.27.46-2.12-1.73-4.33-.42-6.57,2.66-4.94,4.66.68,5.04,3.08.84,4.74,2.64,6.67,7.11,7.72,2.26.56,6.95.84,8.51,2.56,3.03,3.4-2.8,4.78-5.96,5.18-5.76.8-11.05.93-16.56,3.29-11.75,5.02-20.03,14.57-24.92,26.09-1.98,4.7-4.55,9.07-6.36,13.73-1.65,4.74-2.12,9.8-3.96,14.45-1.61,4.19-3.96,8.23-5.99,12.19-4.15,8.3-6.09,19.93-12.14,27-2.48,2.77-5.04,5.53-7.25,8.51-3.68,5.06-6.6,10.75-9.77,16.13-7.3,12.29-22.01,21.64-33.5,29.66,3.73,6.83,7.74,12.66,6.24,20.72-.51,3.06-4.41,9.02-1.07,11.64,3.82,3.24,12.8-4.17,16.93-5.18,7.95-1.93,16.43-3.05,24.62-2.43,8.04.6,15.2,4.36,22.92,6.01,6.3,1.37,12.99.12,19.42.53,8.63.56,17.63,2.05,25.79,5.59,3.29,1.4,5.83,4.45,9.4,5.41,3.17.81,6.76.37,9.98.49,7.16.31,14.25.03,21.27-1.26,5.62-1.07,20.58-14.43,24.58-5.23-2.52,1.96-10.51,2.52-11.38,6.25-1.65,6.48,11.3,5.32,10.35,9.96-.91,4.17-10.96-1.42-12.94-2.14-10.19-3.92-21.03-.39-31.19,1.58-13.06,2.4-22.96-1.52-34.64-6.92-14.22-6.53-30.29-5.97-45.48-3.92-3.47.47-43.55,6.25-43.83,5.65,1.14,2.05-.14,8.91-.53,11.09-.4,2.1-1.93,4.25-2.19,6.37-.19,2.01.56,3.05,1.61,5.18,2.77,5.62,6.15,11.59,5.9,18.06-.14,4.94-2.57,8.69-.79,13.57,1.45,4.17,4.57,7.23,7.74,10.23,8.3,7.76,18.81,12.85,23.27,23.9,1.77,4.32,1.71,6.62,4.9,10.1,8.58,9.26,10.12,23.97,11.26,35.91,1.07,12.87,2.01,25.76,2.01,38.68,0,5.74.07,11.56-.45,17.27-.49,4.8-2.52,10.63,0,15.2,2.96,5.46,9.75,9.81,14.64,13.54,4.5,3.38,10.07,3.47,15.48,3.85,3.19.25,9.26-.16,11.28,3.01,2.24,3.54-7.72,4.25-9.35,4.57-4.75.93-5.64,2.28-8.53,6.02-3.42,4.54-7.04,2.75-9.93-1.36-1.57-2.33-2.21-5.06-3.45-7.55-3.29-6.5-9.77-10.79-13.85-16.9-8.98-13.8-11.44-30.38-11.87-46.6-.42-16.18-.93-32.88-.23-49.1.23-4.66,1.1-7.74-2.99-10.84-3.38-2.49-7.76-3.57-11.35-5.78-5.27-3.17-9.96-7.55-15.87-9.24,4.94,1.33,6.18,24.32,6.72,28.44,4.24,31.47,6.18,66.23-6.32,96.13-7.39,17.32-19.26,31.43-28.38,47.72-1.86,3.47-6.62,9-6.62,13.08,0,10.33,5.08,16.72,7.55,26.23.56,2.57.09,8.25-3.24,8.75-4.43.63-5.32-6.71-6.62-9.42-1.14-2.78-4.52-10.61-7.11-12.01-4.45-2.38-15.59,6.53-19.96,8.44-8.91,3.77-19.38,3.87-28.46.82-5.6-1.89-16.93-12.36-22.85-9.26-2.59,1.4-5.92,9.23-7.13,12.01-1.23,2.71-2.1,10.05-6.6,9.42-3.33-.51-3.73-6.18-3.17-8.75,2.43-9.51,7.55-15.9,7.55-26.23,0-4.08-4.82-9.61-6.74-13.08-9-16.28-21-30.4-28.26-47.72-12.52-29.91-10.58-64.67-6.37-96.13.61-4.11,1.79-27.11,6.74-28.44-5.99,1.7-10.61,6.07-15.85,9.24-3.62,2.21-7.91,3.29-11.33,5.78-4.18,3.1-3.29,6.18-3.08,10.84.75,16.21.26,32.92-.21,49.1-.37,16.21-2.84,32.8-11.92,46.6-3.98,6.11-10.56,10.4-13.82,16.9-1.28,2.49-1.84,5.22-3.45,7.55-2.98,4.12-6.43,5.9-9.88,1.36-2.85-3.75-3.73-5.09-8.51-6.02-1.72-.32-11.56-1.03-9.4-4.57,2.01-3.17,8.09-2.77,11.29-3.01,5.45-.38,10.98-.47,15.53-3.85,4.9-3.73,11.61-8.07,14.57-13.54,2.56-4.57.47-10.4,0-15.2-.45-5.71-.45-11.52-.38-17.27,0-12.92.79-25.81,1.94-38.68,1.1-11.94,2.66-26.65,11.19-35.91,3.31-3.48,3.17-5.78,5.01-10.1,4.53-11.05,14.97-16.14,23.34-23.9,3.19-2.99,6.29-6.06,7.65-10.23,1.75-4.88-.61-8.63-.82-13.57-.23-6.46,3.1-12.43,5.99-18.06.98-2.13,1.66-3.17,1.56-5.18-.18-2.12-1.82-4.27-2.15-6.37-.37-2.17-1.65-9.04-.51-11.09-.42.6-40.33-5.18-43.86-5.65-15.16-2.05-31.22-2.61-45.49,3.92-11.68,5.39-21.47,9.32-34.6,6.92-10.24-1.96-21.05-5.5-31.21-1.58-1.93.72-12.01,6.3-12.99,2.14-.87-4.64,12.07-3.49,10.42-9.96h0Z"/>
  </g>
</svg>