<?xml version="1.0" encoding="UTF-8"?>
<svg id="Layer_2" data-name="Layer 2" xmlns="http://www.w3.org/2000/svg" viewBox="0 0 654.5 428.51">
  <defs>
    <style>
      .cls-1 {
        fill:#808080
      }
    </style>
  </defs>
  <g id="Layer_1-2" data-name="Layer 1">
    <path class="cls-1" d="m454.11,428.51h-.66c-1.31-.78-1.96-2.05-2.43-3.42-.37-1.1-.71-2.19-1.12-3.28-.12-.34-.25-.84-.72-.79-.59.07-.57.61-.58,1.04-.01,1.15.01,2.32.02,3.47.01,2.25-.46,2.61-2.64,1.96-1.14-.35-2.07-1.05-2.8-1.96-.63-.77-1.14-1.63-1.79-2.37-.47-.55-.79-1.81-1.56-1.38-.89.5.23,1.29.38,1.98.17.75.54,1.63-.34,2.06-.9.45-1.76-.01-2.24-.86-.32-.55-.42-1.24-.67-1.85-.17-.42-.09-1.19-.77-1.08-.74.1-.57.86-.51,1.37.08.81.25,1.63.44,2.43.16.7.18,1.36-.5,1.75-.64.37-1.3.15-1.88-.2-.72-.41-1.07-1.12-1.22-1.89-.25-1.35-.42-2.71-.63-4.07-.14-.86-.08-1.81-.95-2.34-.27-.17-.54.08-.67.33-.47.92-.25,1.82.16,2.69.29.6.63,1.16.92,1.76.24.5.48,1.01.6,1.54.21.88-.02,1.7-.86,2.13-.84.42-1.46-.15-1.98-.76-.81-.97-1.03-2.17-1.24-3.37-.27-1.51-.28-3.07-.94-4.51-.23-.51-.49-1.05-1.2-.83-.59.18-.88.62-.94,1.23-.06.58.18,1.07.41,1.58.35.75.71,1.48,1.01,2.25.21.57.47,1.3-.19,1.64-.72.37-1.24-.28-1.61-.83-.62-.94-.69-2.06-.87-3.15-.2-1.15-.25-2.96-1.68-2.78-1.63.23-1.06,2.02-.9,3.2.14,1.15.54,2.25.79,3.38.08.36.12.81-.29,1.03-.38.18-.76-.01-1.06-.27-.85-.71-1.16-1.71-1.42-2.74-.33-1.22-.63-2.44-1.03-3.64-.16-.5-.51-1.11-1.2-.86-.63.24-.62.9-.49,1.42.23.86.6,1.66.81,2.52.15.61.41,1.44-.34,1.76-.76.34-1.37-.27-1.75-.88-.29-.45-.52-1-.61-1.51-.18-1.03-.25-2.08-.37-3.11-.07-.51.19-1.27-.63-1.3-.8-.02-1.35.45-1.45,1.3-.07.67.02,1.31.2,1.96.28,1.06.55,2.14.46,3.26-.05.5.16,1.23-.63,1.31-.6.06-.98-.41-1.24-.94-.28-.55-.32-1.15-.38-1.76-.07-.87-.21-1.74-.36-2.61-.05-.27-.23-.53-.55-.52-.33.01-.43.27-.49.57-.07.43-.12.87-.27,1.28-.16.46-.53.72-1.03.66-.46-.07-.77-.31-.89-.81-.38-1.56-.84-3.07-1.21-4.62-.12-.51-.11-1.05-.84-.93-.68.11-.9.58-.8,1.21.11.77.32,1.51.37,2.27.05.51.26,1.24-.41,1.45-.68.21-1.1-.36-1.41-.89-.69-1.18-.63-2.55-.96-3.82-.2-.76-.16-1.99-1.2-1.75-.89.2-.64,1.38-.48,2.18.17.81.44,1.59.61,2.4.15.64.27,1.3.32,1.96.05.64.18,1.45-.45,1.81-.62.36-1.3-.11-1.85-.43-1.76-.99-2.84-2.57-3.57-4.41-.77-1.94-1.22-3.99-1.68-6.04-.09-.43-.09-.93-.69-1.2-.1,1.13.57,1.9.77,2.79.17.7.09,1.32-.51,1.79-.54.41-1.16.72-1.84.49-1.15-.38-.94-1.53-1.21-2.43-.02.9.1,1.76.2,2.62.07.54.18,1.11.11,1.64-.15,1.09-.85,1.64-1.94,1.62-1.19-.02-.77-.97-.86-1.59-.16-1.08-.18-2.2-.42-3.28-.27-1.24-.37-2.58-1.44-3.8-.38,1.49.45,2.62.43,3.84-.01.95-.19,1.88-1.23,2.07-1.1.2-1.55-.69-1.77-1.57-.23-.86-.31-1.73-.49-2.59-.1-.52-.35-.88-.87-.37-1.1,1.06-1.77.3-2.39-.55-.76-1.06-1.58-1.97-2.97-2.16-.84-.11-.77-.83-.78-1.42-.01-2.15.03-4.3-.28-6.43-.12-.9-.01-2.39-.82-2.42-1.1-.03-1.2,1.42-1.24,2.36-.06,1.44-.79,1.64-1.96,1.41-.89-.18-1.64-.64-2.29-1.24-2.19-1.96-3.44-4.44-3.88-7.29-.33-2.08-.14-4.13,2.08-5.28.66-.33.72-.81.3-1.33-.92-1.14-1.86-2.25-2.93-3.5-.4.8-.35,1.41-.31,2,.09,1.31.29,2.62.33,3.93.02,1.18.23,2.95-1.07,3.11-1.31.17-1.51-1.59-1.8-2.75-.59-2.45-.24-4.93-.27-7.4-.01-.4.32-1.01-.29-1.12-.57-.09-.8.49-.99.96-.23.59-.17,1.18-.07,1.79.19,1.09.42,2.16.52,3.26.07.68.23,1.54-.66,1.85-.85.29-1.64.03-2.29-.58-.51-.46-.79-1.05-.88-1.73-.23-1.8-.42-3.59-.64-5.4-.17-1.28-.83-2.29-2.15-2.34-1.47-.05-1.54-.84-1.54-1.93.02-4.91.02-9.81,0-14.71,0-.5.26-1.3-.54-1.32-.77-.03-.83.73-.87,1.35-.09,1.4.37,2.71.59,4.08.12.79.29,1.83-.72,2.11-.88.25-1.31-.66-1.67-1.32-.23-.42-.34-.92-.42-1.4-.28-1.44-.01-2.85.21-4.26.43-2.63,1.14-5.25.76-8.07-.15.21-.24.34-.31.49-.25.52-.28,1.42-.97,1.35-.86-.1-.62-1.03-.64-1.64-.05-1.46-.01-2.92-.01-4.56-1.01.62-.63,1.47-.95,2.07-.35.67-.77,1.05-1.29.2-1.87-3.02-3.39-6.29-2.54-9.84.71-3.01.33-5.52-.84-8.34-2.44-5.89-2.49-12.23-2.67-18.52-.02-.55.32-1.39-.42-1.61-.71-.2-1.14.55-1.49,1.09-.29.45-.49.98-.62,1.51-.43,1.63-.4,3.32-.14,4.93.69,4.19-.11,8.23-.96,12.27-1.72,8.17-4.11,16.22-3.83,24.72.07,1.94-.29,3.96-1.24,5.76-1.71,3.23-4.8,4.16-7.58,2.23-1.04-.72-1.98-1.57-2.79-2.57-3.02-3.73-4.32-8.17-5.01-12.77-1.02-6.85-1.74-13.73-2.7-20.6-.42-3.02-1.12-6.01-2.46-8.81-.6.26-.54.68-.62,1.04-.51,2.55-.28,5.17-.62,7.73-.25,1.87-.42,3.84-2.01,5.06-1.07.82-1.37,1.7-1.33,2.94.06,2.1.24,4.61-1.29,5.98-2.05,1.84-2.01,3.85-2.17,6.17-.18,2.77-1.48,5.28-2.59,7.8-1.23,2.84-2.29,5.74-2.26,8.9.01,1.27,0,2.37-1.54,2.84-.66.19-.89.92-1.07,1.58-.3,1.13-.34,2.28-.28,3.45.08,1.37-.23,2.18-1.85,1.57-1.22-.45-1.76.15-1.77,1.36-.01,1.21.03,2.43-.04,3.64-.07.96-.06,2.2-1.23,2.45-1.12.24-1.51-.86-1.92-1.71-.02-.03-.16-.01-.4-.01-.25,2.17-.5,4.35-.75,6.52-.12,1.04-.29,1.96-1.68,1.99-.94.02-1.45.73-1.65,1.61-.19.85-.4,1.72-.5,2.59-.1.87-.53,1.37-1.38,1.62-2.25.67-3.76,2.23-4.92,4.17-.92,1.57-1.77,3.18-2.66,4.76-.49.88-1.18,1.65-2.22,1.35-1.7-.52-1.84.33-1.88,1.65-.07,2.88-.58,3.35-3.36,3.4-.28,0-.55-.01-.83.02-1.19.16-1.73-.48-1.92-1.54-.05-.27-.01-.57-.09-.83-.11-.4-.15-.99-.73-.92-.51.08-.59.62-.6,1.05,0,.55.06,1.11.12,1.64.11.71.21,1.42.05,2.14-.18.76-.57,1.36-1.46,1.28-.9-.08-.97-.79-.95-1.47.03-1.04.19-2.09.18-3.13-.01-.6.06-1.54-.84-1.51-.73.01-.75.83-.77,1.44-.05,1.15.02,2.31.2,3.46.17,1.13.03,2.07-1.51,2.11-1.16.03-2.03.74-2.69,1.71-.4.59-.82,1.18-1.28,1.73-.3.36-.63.88-1.2.67-.51-.19-.34-.77-.36-1.18-.02-.84-.01-1.65-.01-2.49.03-2.25.31-2.49,2.48-2.06.49.1.88.09,1.12-.37.19-.4.42-.8.08-1.23-.6-.77-3.17-.71-3.76.08-1.54,1.97-2.25,4.26-2.69,6.67-.55,3.17-.9,3.55-4.05,4.23-.8.18-1.63.24-2.44.4-2.1.4-4.27.41-6.31,1.19-1.94.75-2.27.51-1.99-1.63.12-.86.44-1.7.59-2.57.11-.61.55-1.21.15-2.08-.81.64-1.01,1.41-1.16,2.28-.24,1.41-.11,2.88-.68,4.23-.38.89-.9,1.74-2.11,1.16-1.1-.52-1.12-1.38-.64-2.36.41-.84.85-1.67,1.14-2.55.17-.47.42-1.21-.17-1.48-.5-.23-.81.44-1.1.81-1.02,1.35-1.44,2.96-2.06,4.49-.42,1.02-.73,2.13-1.66,2.8-.87.66-1.64-.27-2.5-.35-1.75-.15-2.04-.61-1.59-2.31.25-.96.63-1.89.87-2.84.1-.42.16-.95-.38-1.14-.46-.17-.88.08-1.18.43-.44.51-.66,1.14-.78,1.8-.16.81-.27,1.63-.48,2.43-.25.96-.64,1.68-1.83.92-.73-.48-1.46-.24-2.15.24-.54.36-1.12.75-1.74.9-1.42.38-2.79.07-3.78-1.03-.96-1.05.09-1.91.6-2.78.51-.87,1.13-2.08.27-2.69-1.02-.72-1.9.37-2.51,1.22-.42.57-.67,1.25-.95,1.91-.38.92-.72,1.84-1.09,2.77-.24.61-.64,1.01-1.33,1.06-1.22.09-2.43.01-3.61-.34-1.02-.32-1.45-.94-.87-2,.63-1.16,1.25-2.33,1.79-3.54.25-.57.62-1.44-.24-1.68-.71-.21-.86.69-1.06,1.22-.33.88-.58,1.79-.87,2.68-.16.46-.33.93-.54,1.37-.47.97-1.2,1.5-2.26.94-1.05-.58-.59-1.4-.2-2.14.52-.97,1.16-1.89,1.63-2.87.24-.5.74-1.21.03-1.64-.73-.45-1.38.06-1.81.68-.67.98-.85,2.15-1.15,3.26-.27.97-.63,1.88-1.46,2.53-.4.32-.88.54-1.37.29-.49-.24-.37-.75-.37-1.18-.01-1.23.85-2.13,1.25-3.19.29-.75,1.3-1.85.24-2.26-1.05-.42-1.3,1.01-1.59,1.85-.33.98-.46,2.07-1.37,2.75-.52.38-1.14.55-1.72.24-.64-.35-.33-.97-.19-1.48.16-.58.42-1.14.55-1.72.19-.9,1.33-2.14.35-2.61-1.04-.5-1.79.94-2.4,1.82-.69.99-1.24,2.1-2.35,2.71-1.15.64-2.41.66-3.39-.15-1.09-.87-.57-1.99.02-2.97.24-.38.47-.76.69-1.14.46-.81,1.2-1.94.26-2.5-1.15-.67-1.44.8-1.84,1.54-.76,1.33-1.23,2.84-2.42,3.9-.66.58-1.49,1.31-2.33.68-.69-.54-.33-1.54-.07-2.33.47-1.4,1.65-2.32,2.42-3.52.34-.53,1.02-1.2.33-1.74-.73-.55-1.33.19-1.76.72-.41.51-.67,1.14-.97,1.72-.36.69-.61,1.44-1.06,2.05-.62.86-1.58,1.91-2.54,1.24-.86-.6-.18-1.81.38-2.65.46-.69,1.03-1.31,1.42-2.02.32-.59.98-1.44.23-1.89-.66-.38-1.06.57-1.4,1.1-.59.93-1.05,1.93-1.65,2.86-.44.7-1.06,1.15-1.93.59-.8-.53-.85-1.31-.44-2.04.46-.79,1.15-1.47,1.66-2.25.31-.45,1.18-1.02.59-1.48-.75-.57-1.46.14-1.84.84-.34.62-.53,1.33-.83,1.98-.24.55-.47,1.12-.81,1.61-.41.59-.99.89-1.72.55-.66-.32-1.04-.84-1.01-1.57.05-.8.37-1.49.81-2.14.54-.83,1.11-1.65,1.65-2.48.15-.23.36-.5.16-.75-.24-.31-.6-.21-.9-.09-.93.37-1.22,1.2-1.49,2.06-.33,1.05-.53,2.17-1.45,2.92-.45.36-.96.61-1.53.38-.59-.24-.46-.83-.49-1.3-.06-1.04.41-1.91,1.01-2.74.42-.58.87-1.14,1.23-1.75.21-.35.51-.83.05-1.18-.42-.32-.85-.05-1.22.19-.58.38-.93.94-1.2,1.55-.34.69-.63,1.42-1.04,2.06-.68,1.04-1.77,1.92-2.88,1.27-1.18-.69-.26-1.88.23-2.72.5-.85,1.21-1.56,1.8-2.36.27-.36.89-.83.37-1.24-.59-.49-.98.2-1.29.61-.43.58-.76,1.22-1.15,1.82-.43.63-.82,1.3-1.35,1.88-.62.69-1.5,1.59-2.37,1.02-.93-.63-.4-1.82-.01-2.71.24-.55.62-1.04.97-1.53.4-.53.87-.99,1.23-1.56.34-.55,1.18-1.24.33-1.82-.69-.46-1.31.32-1.75.86-.87,1.05-1.06,2.4-1.47,3.65-.17.54-.14,1.3-.92,1.41-.8.11-1.36-.36-1.81-.95-.55-.75-.77-1.79-1.6-2.27-.98-.55-.79-1.14-.28-1.87.5-.72,1.04-1.42,1.46-2.19.32-.59.92-1.42.07-1.89-.76-.41-1.06.53-1.4,1.05-.59.93-1.04,1.96-1.88,2.7-.61.57-1.41,1.25-2.18.7-.88-.63-.23-1.55.19-2.2.7-1.12,1.56-2.14,2.32-3.22.27-.4.67-.98.28-1.35-.52-.49-1.01.14-1.39.45-1.26,1.07-1.48,2.66-2,4.1-.6,1.64-1.46,1.89-2.83.78-.73-.6-1.36-1.37-2.41-1.3-1.23.07-1.23-.58-.95-1.47.32-.96.89-1.76,1.47-2.57.34-.46.81-.87.66-2-.7,1.06-1.14,1.85-1.68,2.55-.75.95-1.81,1.59-2.86.84-1.03-.75-.4-1.85.17-2.65.66-.94,1.53-1.73,2.27-2.61.23-.28.59-.69.18-1.01-.41-.32-.71.15-.9.44-.73,1.1-1.38,2.26-2.15,3.33-.46.62-.97,1.66-1.9,1.19-1.06-.54-.87-1.65-.48-2.64.46-1.13,1.36-2,1.98-3.04.41-.69,1.56-1.63.63-2.2-.92-.57-1.27.87-1.7,1.56-.75,1.21-1.27,2.59-2.49,3.45-.7.49-1.6.88-2.27.21-.55-.55-.06-1.39.35-1.94.69-.93,1.51-1.74,2.27-2.62.38-.45.78-.93,1.1-1.44.19-.31.43-.73.05-1.05-.29-.26-.64-.03-.93.1-1.58.76-2.77,1.98-3.87,3.3-1.06,1.29-1.31,1.29-2.28-.1-.44-.63-.83-1.29-1.65-1.53-1.76-.49-1.83-.7-.53-2.13.86-.93,1.82-1.76,2.72-2.65.51-.51,1.01-1.02,1.47-1.57.31-.37.69-.81.17-1.3-.41-.4-.89-.33-1.38-.09-.6.32-1.06.78-1.49,1.29-.67.8-1.3,1.65-2.03,2.39-.64.66-1.59,1.63-2.36.87-.84-.85-.03-1.96.69-2.75.34-.36.78-.62,1.18-.9.41-.28.86-.52,1.22-.85.48-.42,1.28-.89.77-1.58-.44-.6-1.14-.02-1.58.33-1.05.8-2.01,1.72-3.04,2.54-.48.37-1.01,1.05-1.66.23-.54-.7-.33-1.35.21-1.93.71-.79,1.7-1.22,2.53-1.83.76-.54,2.25-1.11,1.57-2.06-.71-.96-1.87.07-2.65.76-1.04.9-1.97,1.96-3.26,2.53-.75.33-1.81.83-2.28.14-.55-.79.48-1.44,1.07-1.94.85-.7,1.8-1.27,2.68-1.93.52-.4,1.02-.84,1.47-1.31.31-.31.64-.7.29-1.16-.32-.4-.79-.37-1.22-.21-.96.33-1.71.98-2.43,1.67-.92.87-1.85,1.73-3.05,2.23-1.26.53-2.44.29-3.39-.57-.96-.86-.42-1.96-.09-2.92.36-1.1,1.28-1.76,2.19-2.4.95-.66,1.91-1.3,2.81-2.01.41-.33.89-.81.38-1.4-.43-.5-1.04-.4-1.5-.05-.84.62-1.61,1.32-2.41,1.99-.59.5-1.14,1.04-1.79,1.46-.49.31-1.14.73-1.65.17-.41-.46,0-1.06.24-1.55.9-1.89,2.72-2.63,4.49-3.43.46-.2,1.2-.3.87-1.11-.26-.62-.83-.86-1.49-.77-.68.09-1.21.51-1.75.88-.77.53-1.49,1.15-2.41,1.42-.25.07-.59.11-.78,0-.35-.2-.19-.59-.09-.89.24-.71.76-1.21,1.35-1.63.63-.45,1.29-.87,1.88-1.37.49-.41,1.15-.95.62-1.64-.59-.75-1.38-.53-2.05.01-.46.4-.88.85-1.37,1.21-.66.49-1.49,1.28-2.17.64-.75-.69-.15-1.67.42-2.36.45-.54,1.04-.96,1.59-1.42.43-.34.89-.63,1.33-.96.27-.21.53-.46.38-.84-.18-.46-.64-.41-.99-.3-.94.26-1.65.86-2.29,1.56-.33.35-.61.89-1.21.47-.53-.38-.81-.9-.61-1.58.21-.71.8-1.16,1.3-1.67.37-.4.97-.62,1.11-1.42-1.03.46-1.29,1.44-2.03,1.91-.53.33-1.09.67-1.68.31-.76-.43-.31-1.11-.14-1.63.34-1.13,1.2-1.81,2.32-2.16,1.09-.34,1.07-.97.51-1.75-.29-.4-.69-.71-1.03-1.07-.07-.06-.14-.12-.2-.18-.64-2.33-.64-2.32-2.71-1.08-.52.3-1.04.63-1.61.84-.63.21-1.41.36-1.83-.26-.49-.72.2-1.24.68-1.64.98-.79,2.06-1.48,3.05-2.26.35-.27,1.05-.61.63-1.13-.37-.46-.93.06-1.3.3-.82.55-1.58,1.21-2.41,1.75-.79.53-1.83,1.14-2.49.12-.63-.97.47-1.49,1.16-1.99.76-.55,1.57-1.02,2.32-1.57.3-.23.62-.61.33-.99-.34-.42-.71-.06-1.02.15-.86.59-1.63,1.32-2.65,1.66-.69.21-1.57.54-1.98-.17-.44-.76.38-1.3.95-1.65,1.18-.72,2.43-1.31,3.62-2.01,1.62-.94,1.71-2.05.23-3.22-.72-.57-1.37-1.07-1.23-2.14.09-.75-.49-.77-1.01-.69-.97.16-1.37.86-1.42,1.76-.06.77.01,1.55-.06,2.32-.14,1.94-1.57,2.71-3.23,1.7-1.13-.68-1.92-1.68-1.91-3.08,0-1.45.92-2.33,2.14-2.87,1.2-.54,2.46-.93,3.67-1.47.47-.21,1.22-.64.92-1.18-.4-.7-.94.06-1.36.28-1.25.68-2.32,1.72-3.73,2.08-.46.12-1.46.46-1.18-.6.28-1.03-.25-1.53-.77-2.17-.99-1.23-.85-1.83.58-2.53.68-.35,1.39-.66,2.1-.96,1.68-.71,3.28-1.57,4.69-2.75.37-.31.84-.66.55-1.23-.25-.5-.77-.54-1.29-.54-.64,0-1.16.3-1.67.64-.73.49-1.45,1.02-2.22,1.45-.66.36-1.59.96-2.09.26-.55-.77.27-1.5.89-2.03.42-.35.93-.61,1.41-.85.85-.41,1.74-.71,2.55-1.15.64-.35,1.79-.78,1.4-1.54-.44-.9-1.36-.02-1.98.25-1.49.68-2.79,1.83-4.51,1.94-.57.03-1.36.33-1.64-.34-.27-.62.36-1.1.8-1.49,1.4-1.3,3.18-1.94,4.87-2.75.9-.44,1.85-.83,2.62-1.97-2.06.11-3.31,1.23-4.66,2.11-.41.26-.78.73-1.31.33-.43-.32-.51-.84-.5-1.35.01-1.33.96-1.94,1.98-2.4,1.71-.75,3.48-1.37,5.19-2.13.55-.24,1.48-.5,1.1-1.35-.35-.79-1.2-.59-1.9-.35-.47.16-.93.37-1.38.55-.86.36-1.68.84-2.63.95-.5.06-1.05.21-1.38-.25-.31-.44.18-.81.41-1.15.54-.83.83-1.77.5-2.67-.59-1.65.2-1.97,1.58-2.19,2.35-.41,4.66-.98,6.33-2.91.28-.33.7-.68.4-1.14-.32-.5-.8-.21-1.2-.05-1.36.59-2.7,1.21-4.07,1.81-.41.17-.89.34-1.22-.06-.33-.38-.07-.85.12-1.23.57-1.18,1.65-1.85,2.85-2.68-1.79-.61-1.47-1.59-.78-2.62.81-1.21,2.06-1.8,3.37-2.26,1.71-.61,3.45-1.14,5.14-1.8.67-.27,1.77-.7,1.4-1.53-.43-.98-1.19.09-1.79.26-.68.19-1.5.67-1.96-.03-.38-.59.5-.97.87-1.39.33-.36.77-.63,1.15-.95,1.48-1.24,3.32-1.8,5.08-2.43-.14-.51-.42-.54-.69-.57-1.26-.11-2.17.71-3.23,1.14-.76.31-1.65.78-2.24-.11-.55-.86.44-1.23.89-1.67,3.69-3.67,8.06-6.29,12.82-8.3.43-.18,1.32-.24.97-1.02-.26-.54-.87-.14-1.33,0-.79.24-1.76,1.27-2.34.34-.5-.79.69-1.46,1.22-2.13.05-.06.02-.17.03-.36-1.29.66-2.57,1.14-3.98,1.13-.43-.01-.95-.02-1.12-.52-.17-.54.12-1.01.59-1.24.59-.29,1.22-.49,1.84-.69.55-.18,1.21-.17,1.49-1.05-2.72.07-4.79,2.19-7.7,2.22.62-1.24,1.72-1.51,2.46-2.18.34-.29.8-.54.67-1.05-.16-.53-.71-.42-1.14-.43-1.26-.03-2.36.47-3.43,1.06-1.29.73-2.57,1.5-3.87,2.24-.52.29-1.09.66-1.62,0-.96-1.16-2.19-1.04-3.48-.78-.54.1-1.27.6-1.57-.19-.31-.77.25-1.38.92-1.74.77-.41,1.62-.69,2.41-1.06.4-.2.8-.51.64-1.03-.17-.53-.68-.48-1.12-.45-1.13.07-1.9.81-2.71,1.48-1.06.87-2.1,1.77-3.44,2.24-.74.25-1.65.6-2.14-.1-.49-.69.16-1.46.6-2.08.68-.93,1.75-1.29,2.72-1.81.5-.26,1.61-.18,1.26-1.11-.28-.72-1.2-.35-1.8-.18-.62.19-1.21.52-1.8.81-1.1.53-2.15,1.13-3.27,1.59-.58.25-1.4.58-1.83-.09-1.06-1.67-2.87-2.17-4.44-3.03-1.04-.55-2-1.2-2.45-2.35-.37-.94-.56-1.83.96-1.94.7-.06,1.39-.36,2.04-.64.38-.16.86-.45.73-.97-.14-.58-.68-.67-1.19-.69-.99-.08-1.79.47-2.62.88-1.14.54-2.27,1.15-3.61,1.04-.37-.02-.8-.03-.97-.47-.15-.41.11-.73.38-1.03.71-.77,1.7-.97,2.64-1.25.9-.27,1.82-.49,2.48-1.23.43-.46.75-1.01.41-1.64-.33-.66-.98-.68-1.58-.57-1.06.19-1.91.84-2.77,1.42-.88.59-1.74,1.19-2.79,1.41-.55.11-1.13.06-1.49-.44-.43-.58.01-1.05.35-1.47.93-1.13,2.19-1.8,3.52-2.39.77-.35,1.65-.5,2.46-1.2-1.3-.7-2,.15-2.75.67-1.04.72-1.97,1.64-3.35,1.63-.42-.01-.95.12-1.22-.31-.31-.47-.03-.95.23-1.39.83-1.44,2.32-1.96,3.66-2.69.34-.17,1.03-.23.7-.84-.2-.38-.71-.44-1.19-.28-1.08.35-1.86,1.16-2.8,1.74-.8.5-1.81,1.07-2.45,0-.59-.95.33-1.61,1.03-2.14.58-.43,1.22-.75,1.82-1.14.32-.21.62-.45.89-.72.19-.19.34-.46.15-.75-.19-.28-.5-.2-.75-.09-.69.32-1.36.75-2.08.99-1.01.35-2.45.93-2.93-.24-.46-1.16.98-1.61,1.96-1.98.77-.29,1.59-.49,2.06-1.27.2-.35.35-.74,0-1.05-.29-.26-.62-.14-.9.07-.59.42-1.13.92-1.75,1.24-.99.53-2.31,1.51-3.07.29-.66-1.03.63-1.97,1.54-2.54,1.02-.64,2.16-1.07,3.26-1.61.35-.17.75-.33.62-.83-.1-.42-.41-.66-.8-.76-.7-.17-1.32.07-1.89.43-.83.53-1.61,1.16-2.45,1.67-.99.59-2.02,1.65-3.23.75-.66-.5.52-2.23,2.01-3,.44-.24.89-.42,1.35-.63.4-.19.82-.35,1.18-.59.56-.38,1.56-.81,1.11-1.55-.45-.73-1.32-.05-1.9.28-.86.49-1.58,1.19-2.44,1.68-.69.41-1.63.97-2.24.18-.62-.81-.02-1.72.63-2.34.55-.52,1.28-.85,1.9-1.29.59-.42,1.76-.75,1.3-1.57-.4-.71-1.27.11-1.84.43-1.02.57-1.98,1.21-3.13,1.46-.55.12-1.2.26-1.51-.28-.37-.63.14-1.13.57-1.57.71-.73,1.67-1.02,2.59-1.41.81-.34,1.65-.64,2.24-1.35.28-.34.59-.75.25-1.18-.34-.44-.81-.32-1.19-.06-.54.38-1.03.84-1.54,1.25-.55.44-1.08.95-1.7,1.3-.79.44-1.68.45-2.19-.41-.47-.79.07-1.47.68-1.99.73-.63,1.66-.86,2.53-1.19.85-.33,1.62-.76,1.92-1.67.14-.42.23-.9-.16-1.24-.43-.36-.87-.08-1.19.21-.6.57-1.14,1.19-1.7,1.81-.69.76-1.47,1.35-2.55,1.31-.46-.02-1.07.17-1.31-.38-.23-.52.17-.96.5-1.31.93-.96,1.88-1.86,2.82-2.8.23-.23.5-.5.32-.86-.18-.36-.55-.28-.88-.29-.76-.02-1.37.35-1.97.75-.51.34-1.01.67-1.56.93-.32.15-.77.35-1.04-.09-.19-.32.09-.62.27-.88,1.05-1.41,2.45-2.36,4.01-3.11.36-.18,1.05-.21.85-.77-.2-.6-.82-.4-1.29-.2-1.03.41-2.01.9-3.05,1.25-.57.2-1.39.71-1.76-.05-.35-.71.44-1.15.96-1.53.86-.6,1.8-1.09,2.61-1.74.64-.52.64-1.24.12-1.91-.57-.75-1.21-.67-1.87-.18-.54.4-1.02.86-1.57,1.21-.92.59-2.17,1.56-2.93.55-.69-.95.66-1.77,1.45-2.4,1.16-.93,2.4-1.76,3.55-2.69.45-.36.99-.89.41-1.54-.54-.6-1.22-.46-1.79.01-.66.58-1.26,1.22-1.89,1.84-1.66,1.66-2.16,1.62-3.37-.32-.07-.09-.14-.17-.2-.26-1.76-2.16-1.7-3.37.32-5.27.43-.42.93-.77,1.37-1.19.54-.52,1.56-1.14,1.05-1.82-.58-.77-1.35.17-1.96.54-.59.38-1.1.92-1.68,1.33-.44.34-.88,1.05-1.53.45-.61-.55-.55-1.29-.12-1.96.43-.67,1.06-1.12,1.7-1.56.72-.5,1.46-.98,2.16-1.51.35-.26.77-.63.4-1.1-.33-.42-.84-.26-1.2,0-.53.38-1.03.83-1.5,1.28-.59.58-1.11,1.23-1.73,1.77-.43.37-.96.9-1.57.28-.51-.5-.67-1.14-.37-1.82.26-.63.76-1.07,1.33-1.44.94-.57,1.9-1.11,2.83-1.7.64-.41,1.38-.77,1.49-1.64.05-.31-.2-.52-.49-.58-.98-.18-1.5.52-2.04,1.15-.38.46-.78.94-1.18,1.39-.45.5-.97.9-1.59,1.15-1.24.48-1.84.02-1.64-1.27.18-1.23.9-2.08,1.93-2.75.96-.63,2.05-1.1,2.8-2.01.32-.38.68-.83.26-1.32-.36-.42-.87-.41-1.37-.21-.75.29-1.25.89-1.82,1.41-.85.8-1.71,1.57-2.92,1.77-.49.08-1.07.17-1.38-.27-.33-.45-.02-.95.23-1.38.6-.98,1.57-1.51,2.53-2.07.89-.52,1.89-.93,2.59-1.74.25-.31.5-.63.28-1.04-.25-.45-.7-.5-1.15-.42-.69.12-1.18.58-1.66,1.03-.81.76-1.55,1.61-2.44,2.23-.79.55-1.8,1.55-2.71.3-.84-1.16-.02-2.1.94-2.76.87-.59,1.83-1.02,2.74-1.54.58-.33,1.18-.62,1.68-1.04.47-.4,1.3-.87.8-1.57-.53-.77-1.3-.23-1.88.19-.98.71-1.89,1.53-2.89,2.2-.52.35-1.27.81-1.8.2-.58-.66-.03-1.36.38-1.93.67-.93,1.7-1.39,2.62-1.96.88-.53,1.64-1.14,1.92-2.18.12-.42.18-.9-.26-1.2-.47-.32-.85.01-1.16.32-.64.6-1.21,1.3-1.91,1.82-.77.58-1.83,1.44-2.6.43-.68-.88.17-1.88.89-2.58.47-.44,1.07-.76,1.63-1.12.51-.33,1.06-.59,1.54-.96.46-.36,1.11-.84.67-1.48-.46-.69-1.22-.44-1.74-.01-.81.67-1.53,1.44-2.28,2.16-.28.26-.58.57-1.02.34-.43-.23-.6-.64-.58-1.12.03-.78.52-1.31,1.09-1.76.73-.6,1.5-1.12,2.24-1.71.34-.26.78-.54.52-1.07-.23-.45-.69-.51-1.14-.49-.81.05-1.41.55-2.1.9-.78.38-1.81,1.5-2.42.59-.67-.99.57-1.82,1.38-2.46.52-.41,1.1-.73,1.61-1.16.36-.32.71-.7.94-1.12.33-.6.16-1.23-.37-1.63-.52-.38-.92.07-1.29.4-.37.33-.7.71-1.11.98-.67.44-1.47,1.21-2.18.42-.71-.8-.32-1.81.4-2.52.41-.43.97-.71,1.47-1.04.48-.29.96-.57,1.23-1.07.18-.32.45-.7.02-1.02-.32-.24-.67-.05-.89.18-.69.71-1.31,1.49-2,2.19-.42.43-.93.95-1.56.4-.6-.53-1.01-1.19-.54-2.04.33-.61.85-1.01,1.39-1.39.71-.51,1.45-1.01,2.14-1.55.35-.27.7-.64.5-1.13-.21-.55-.77-.58-1.27-.54-1,.07-1.54.8-2.13,1.46-.8.89-1.53,1.89-2.62,2.48-.5.26-1.05.54-1.56.17-.5-.37-.38-1.01-.28-1.54.23-1.27.97-2.2,2.03-2.88.88-.55,1.84-1.01,2.7-1.59.55-.36,1.6-.81,1.12-1.53-.54-.8-1.23.11-1.8.48-.32.2-.57.52-.88.75-.53.38-1.01,1.26-1.76.37-.67-.76-.25-1.46.32-2.03.66-.66,1.41-1.23,2.06-1.92.37-.41,1.02-.97.4-1.54-.55-.51-1.16.03-1.58.44-.76.71-1.38,1.57-2.15,2.26-.52.46-1.36.97-1.93.43-.69-.63-.17-1.49.36-2.03.81-.81,1.8-1.45,2.62-2.25.67-.63,1.61-1.56.77-2.36-.93-.88-1.64.29-2.24.95-.37.4-.58.94-.94,1.36-.37.46-.8.89-1.27,1.27-.35.28-.81.47-1.22.14-.36-.31-.11-.71.01-1.07.29-.9.94-1.59,1.57-2.29.88-.97,1.91-1.88,2.32-3.18.31-.95,1.02-2.32-.06-2.85-1.29-.64-1.74.87-2.31,1.76-.26.42-.49.86-.77,1.28-.35.52-.84.87-1.44,1.06-1.14.35-1.57-.03-1.31-1.2.32-1.4,1.21-2.44,2.23-3.4.76-.72,1.51-1.44,2.25-2.18.4-.4.5-.87.07-1.32-.41-.43-.88-.64-1.47-.29-.63.37-1.09.93-1.54,1.48-.77.94-1.45,1.97-2.31,2.81-.71.69-1.73,1.89-2.61,1.13-.85-.73.34-1.77.86-2.52,1.37-2.01,3.24-3.58,4.83-5.44.28-.32.96-.63.45-1.2-.38-.44-.94-.51-1.53-.26-.85.36-1.39,1.04-1.97,1.72-.8.96-1.44,2.1-2.54,2.79-.36.23-.79.54-1.22.28-.49-.28-.24-.78-.16-1.2.23-1.41,1.13-2.33,2.22-3.17,1.12-.87,2.46-1.49,3.33-2.68.72-1.01.89-1.93-.55-2.46-.75-.28-1.36-.68-1.66-1.49-.32-.83-.87-.7-1.41-.2-.36.33-.64.77-1.04,1.05-1.12.8-.92,1.38.24,1.85,1.03.42,1.44,1.18.68,2.05-.78.9-1.22,1.94-1.68,3-.28.67-.69,1.24-1.41,1.55-1.13.48-1.64.12-1.68-1.11-.03-1.28.59-2.19,1.57-2.93.28-.21.8-.34.62-.84-.1-.32-.5-.43-.84-.43-1.48,0-1.27-.85-.89-1.75.31-.78.83-1.42,1.33-2.08,1.02-1.3,2.26-2.42,3.04-3.9.3-.58.78-1.28.2-1.84-1.93-1.96-2.46-4.49-3.03-7.02-.23-1.04-.86-.99-1.61-.6-.76.4-1.22,1.1-1.74,1.75-.52.66-1.13,1.22-1.97,1.41-.89.18-1.3-.14-.94-1.07.36-.94,1.03-1.68,1.64-2.46.73-.96,1.59-1.83,2.1-2.96.16-.37.25-.76-.12-1.04-.37-.31-.72-.11-1.04.14-.76.6-1.22,1.41-1.76,2.18-.5.72-.99,1.46-1.76,1.93-.63.41-1.31.4-1.8-.18-.52-.6.08-1.03.45-1.37.89-.81,1.83-1.58,2.78-2.35.81-.67,1.55-1.4,2.08-2.32.45-.79.85-1.62-.07-2.37-.84-.7-1.65-.37-2.41.16-.92.66-1.49,1.62-2.19,2.46-.28.36-.52,1.01-1.13.63-.54-.32-.54-.95-.38-1.49.27-.96,1.11-1.48,1.82-2.07.9-.73,1.81-1.46,2.2-2.61.17-.47.42-1.02-.09-1.36-.61-.38-1.05.12-1.38.55-.36.47-.61,1.04-.97,1.53-.64.9-1.61,1.81-2.58.97-.9-.79,0-1.83.64-2.57.35-.4.86-.68,1.32-.98.55-.35,1.16-.63,1.68-1.03.63-.48,1.61-1.01.86-1.93-.68-.86-1.56-.25-2.16.31-.79.75-1.44,1.66-2.19,2.45-.44.46-.84,1.47-1.67.67-.71-.68-.55-1.56.18-2.17.79-.68,1.68-1.23,2.54-1.83.83-.57,1.63-1.16,1.94-2.16.17-.52.31-1.14-.29-1.49-.54-.32-.96.09-1.29.44-.58.6-1.1,1.24-1.62,1.88-.64.78-1.37,1.46-2.28,1.88-.45.21-.97.4-1.39,0-.38-.37-.08-.84.07-1.23.45-1.2,1.39-1.96,2.4-2.66.95-.67,1.96-1.25,2.82-2.02.84-.75,2.1-1.94,1.18-2.85-.97-.96-2.02.43-2.8,1.24-1.13,1.19-2.09,2.57-3.46,3.54-.35.26-.8.52-1.21.25-.34-.21-.26-.69-.25-1.07.06-1.62,1.13-2.55,2.28-3.45.47-.37,1.35-.77.38-1.48-1.15-.87-.73-1.83-.24-2.78.53-.99,1.39-1.71,2.18-2.48,1.15-1.14,1.66-2.48,1.19-4.05-.27-.88.02-1.46.63-2.03,2.14-2.02,3.11-4.54,2.85-7.45-.12-1.45.35-2.52,1.24-3.59,4-4.79,9.21-7.82,14.87-10.14,13.52-5.53,27.87-7.14,42.22-8.6,4.99-.51,9.97-.95,14.98-1.2,6.42-.32,12.89-.9,19.24.57,4.25.98,8.5,1.87,12.86,2.02,5.84.2,11.08,2,15.79,5.49,1.97,1.46,4.41,1.97,6.82,2.37,2.65.44,5.36.67,7.92,1.55.53.18,1.15.27,1.37.83.69,1.84,2.22,1.98,3.8,1.9,2.34-.12,4.34.62,6.03,2.19,2.06,1.91,4.45,3.22,7.04,4.24,2.66,1.06,5.27,2.26,7.96,3.24,9.79,3.55,18.89,8.4,27.42,14.37,6.29,4.4,12.57,8.78,19.6,11.94.58.26.9.77,1.31,1.2,1.4,1.47,2.49,3.4,4.31,4.24,8.46,3.85,15.63,9.46,22.12,15.97,8.64,8.66,17.21,17.39,25.75,26.15,5.73,5.88,11.27,11.94,16.69,18.11,5.31,6.04,10.45,12.24,15.57,18.44.43.52.8,1.37,1.59.32,2.06-2.77,4.69-4.95,7.28-7.18.6-.53.87-.88.1-1.53-2.33-1.93-3.38-4.56-3.89-7.45-.84-4.87,1.14-10.28,4.85-12.36,1.62-.92,1.39-1.59.58-2.88-5.37-8.66-10.76-17.31-15.98-26.07-9.65-16.22-18.16-33.01-24.16-50.95-.79-2.36-1.89-4.44-3.55-6.25-.72-.78-1.29-1.63-1.53-2.7-2.66-12.05-6.41-23.8-9.93-35.61-1.85-6.19-3.71-12.49-7.96-17.48-3.14-3.7-3.57-7.92-3.88-12.31-.2-2.8,2.23-4.22,4.66-2.89.84.44,1.57,1.01,2.22,1.71,1.86,2.02,2.67,4.52,3.2,7.13.83,4.06,1.04,8.18,1.65,12.27.49,3.29,1.03,6.56,3.24,9.21.72.88,1.2,1.8,1.42,2.91,4.91,23.17,12.81,45.31,23.08,66.63,8.13,16.84,17.49,32.99,27.18,48.96.29.5.45,1.35,1.12,1.29.81-.07.97-.98,1.16-1.64.28-.95.45-1.93.44-2.93-.02-1.65-.07-3.31.03-4.96.1-1.58.2-3.22,1.31-4.51.51-.6,1.15-1.07,2-.98.93.11.93,1.01,1.12,1.64.21.68.27,1.4.38,2.1.46,2.88.25,5.83,1,8.68.37,1.44.98,2.7,2.36,3.43.64.34,1.21.41,1.12-.63-.5-6.12,2.31-11.46,4.04-17.05.36-1.15,1.03-1.04,1.62-.19.75,1.06,1.07,2.28,1.12,3.58.07,2.26-.07,4.5-.32,6.75-.1.81-.9,2.08-.03,2.4.92.32,1.55-1.02,2.11-1.77,1.76-2.34,2.92-5.04,4.41-7.56,9.13-15.4,17.67-31.13,25.43-47.26,2.11-4.36,4.51-8.59,7.35-12.54.84-1.15,1.3-2.39,1.5-3.78.35-2.28,1.28-4.35,2.95-5.96,1.01-.96,1.62-2.03,2.04-3.32,2.5-7.7,4.84-15.45,7.88-22.96.26-.64.35-1.67,1.12-1.7,1.63-.03,1.91-1.23,2.41-2.32,1.33-2.92,2.28-5.96,2.98-9.08.53-2.42.97-4.88.69-7.37-.29-2.48-.34-4.96-.18-7.43.2-3.12.89-6.1,3.5-8.25,3.26-2.68,5.09-1.53,7.18,1.91.32.51.37,1.13.41,1.74.14,2.06-.53,3.91-1.4,5.71-1.39,2.89-3.2,5.53-4.79,8.3-2.35,4.05-5.04,8.07-5.21,12.89-.1,3.06-1.41,5.44-2.71,7.97-1.86,3.63-3.7,7.27-5.39,10.98-5.58,12.22-10.31,24.81-16.06,36.97-2.51,5.32-4.95,10.71-9.21,14.98-1.65,1.65-2.66,3.79-3.5,5.96-1.93,5-4.5,9.67-7.26,14.25-5.12,8.49-10.19,17.02-15.02,25.67-.75,1.31-.71,2.23.27,3.37,2.14,2.49,3.92,5.23,4.33,8.57.27,2.23.87,4.71-.4,6.62-1.32,1.99-2.26,4.15-3.52,6.15-.46.72-.35,1.19.4,1.58,2.79,1.5,5.27,3.43,7.6,5.55.94.86,1.58.76,2.26-.23.37-.54.85-1.02,1.22-1.56,3.21-4.68,6.55-9.28,9.57-14.07,3.88-6.13,8.56-11.43,14.41-15.74,3.06-2.25,6.13-4.65,8.16-7.89,2.95-4.73,6.92-8.21,11.8-10.8,2.54-1.35,4.91-3.05,6.57-5.44,2.52-3.6,5.8-6.27,9.57-8.46,2.01-1.15,3.86-2.59,5.11-4.6.57-.93,1.35-1.56,2.25-2.13,5.89-3.66,11.86-7.23,17.66-11.04,21.82-14.32,44.55-26.96,68.65-37.1,10.3-4.33,20.88-7.63,31.7-10.29,10.15-2.49,20.42-3.95,30.89-3.6,7.76.27,15.51.51,23.24,1.24,11.16,1.06,22.15,2.94,32.9,6.1,10.04,2.96,19.62,6.93,28.18,13.11.84.61,1.3,1.16.98,2.31-.52,1.9-.15,2.49,1.75,2.97.86.21,1.33.49.92,1.44-.5,1.14-.15,2.13.6,3.05.44.57.85,1.15,1.2,1.77.27.47.58,1.09.1,1.53-.53.49-1.15.11-1.66-.21-.5-.34-.92-.81-1.42-1.13-.41-.26-1.01-.54-1.31-.01-.29.49.29.76.64.97,1.33.77,2.71,1.47,4.04,2.25.45.27,1.01.64.59,1.32-.33.57-.94.63-1.46.42-.81-.35-1.55-.85-2.34-1.23-.7-.34-1.56-.7-2.05.18-.45.84-.22,1.74.59,2.35.77.6,1.71.73,2.61.97,1.42.35,2.96.54,3.82,2.01v1.65c-1.63.19-3.04-.32-4.3-1.33-.4-.31-.78-.63-1.21-.86-.5-.27-1.16-.86-1.55-.09-.38.78.34,1.18.98,1.41.57.21,1.18.32,1.72.58.59.28.93.83.72,1.5-.23.76-.9.75-1.49.61-.58-.14-1.13-.43-1.68-.67-.51-.24-1.05-.51-1.48.07-.42.55-.31,1.2.12,1.67.52.57,1.15,1.02,1.74,1.53.4.34,1.05.62.71,1.29-.38.77-1.06.6-1.73.35-.67-.24-1.33-.49-2.02-.66-.44-.1-.9-.05-1.16.42-.26.44-.08.85.16,1.23.52.86,1.39,1.22,2.25,1.61.86.38,1.72.76,2.29,1.56.29.42.58.92.27,1.37-.37.54-.95.19-1.33-.03-.76-.45-1.44-1.01-2.15-1.53-.59-.43-1.19-.92-1.91-.27-.66.58-.75,1.28-.43,2.09.42,1.04,1.21,1.7,2.14,2.22.97.52,1.97,1.01,2.92,1.55.35.2.87.43.61.99-.19.43-.6.63-1.07.66-.72.06-1.27-.32-1.76-.77-.69-.63-1.3-1.36-2.02-1.93-1.22-.98-2.04-.79-2.75.6-.25.5-.49.97-.96,1.3-1.39.98-1.44,1.73-.23,3.01.25.26.81.44.57.88-.77,1.35-1.05,3.15-2.93,3.54-1.55.33-1.22,1.13-.59,2,.58.79,1.49,1.11,2.35,1.48,1.01.45,2.07.83,2.71,1.81.35.52.93,1.16.34,1.75-.52.52-1.18.05-1.64-.32-.69-.53-1.31-1.15-1.96-1.76-.74-.72-1.78-1.51-2.6-1.16-1.76.73-2.18,2.87-3.52,4.19-.67.67.37,2.17,1.47,2.77.9.51,1.89.88,2.86,1.27.93.36,1.88.68,2.61,1.38.63.61,1.49,1.31.9,2.23-.62.97-1.76.8-2.7.38-1.22-.54-2.1-1.57-3.04-2.51-.7-.7-1.4-1.41-2.36-1.76-.5-.18-1-.16-1.35.29-.32.4-.2.84,0,1.24.37.73,1.02,1.14,1.74,1.45.77.32,1.55.59,2.29.94.42.21,1.02.45.77,1.07-.23.58-.81.81-1.38.63-.94-.3-1.83-.77-2.75-1.11-.58-.21-1.37-.79-1.72.1-.29.76.62.87,1.12,1.15.49.28,1.34.34,1.04,1.19-.28.83-1.03.89-1.8.64-.32-.1-.62-.2-.94-.31-.38-.14-.77-.18-1.06.16-.34.38-.28.85-.08,1.24.43.86,1.14,1.47,1.96,1.94,1.01.58,2.05,1.1,3.02,1.73.75.48,1.45,1.04,1.49,2.05.02.45-.03.92-.44,1.19-.48.32-.86-.03-1.16-.32-.72-.68-1.39-1.41-2.08-2.13-.95-.96-2.01-1.72-3.44-1.74-.43,0-.97-.15-1.16.38-.17.47.24.81.54,1.12.88.89,2.08,1.2,3.21,1.64,1.2.49,2.32,1.05,2.89,2.29.23.51.52,1.07.05,1.55-.42.42-.94.1-1.38-.09-1.29-.55-2.28-1.53-3.37-2.37-.64-.5-1.29-1.05-2.03-1.39-1.16-.52-1.73-.02-1.57,1.25.07.59.29,1.19-.23,1.72-1.37,1.37-1.27,2.27.49,3.22,1.06.58,2.24.92,3.36,1.38,1.13.46,2.23.99,2.79,2.18.24.52.42,1.09.03,1.56-.35.44-.9.31-1.39.2-1.3-.26-2.27-1.06-3.19-1.96-.76-.75-1.57-1.39-2.69-1.49-.43-.03-.94-.16-1.15.36-.17.42.15.72.4,1.02.83.96,1.98,1.38,3.08,1.89,1.31.61,2.6,1.25,3.18,2.72.21.55.55,1.22.11,1.72-.53.6-1.22.18-1.83-.07-1.39-.59-2.53-1.55-3.65-2.52-.68-.58-1.36-1.14-2-1.73-.63-.58-1.24-.63-1.9-.06-.69.6-.32,1.21-.01,1.77.55,1.02,1.53,1.56,2.5,2.09.96.54,1.97,1.01,2.75,1.83.57.6.68,1.3.09,1.91-.59.59-1.14.1-1.58-.31-.89-.81-1.71-1.72-2.62-2.51-.67-.59-1.44-1.1-2.39-.52-.53.32-1.07.67-.96,1.39.12.95.85,1.37,1.63,1.71.55.24,1.13.44,1.7.67.57.24,1.07.57,1.44,1.07.4.57.71,1.23.2,1.81-.44.52-1.04.12-1.5-.12-.84-.43-1.61-.96-2.42-1.42-.67-.38-1.35-.78-2.16-.75-.62.03-1.28.17-1.54.78-.29.69.29,1.11.77,1.48.7.55,1.56.8,2.4,1.06.85.26,1.71.5,2.43,1.03.82.6,1.76,1.5,1.18,2.44-.68,1.05-1.7.07-2.42-.38-1.18-.71-2.2-1.64-3.38-2.35-.9-.55-1.7-.37-2.35.64-.73,1.12-.03,1.63.68,2.15,1.2.87,2.5,1.63,3.64,2.57.64.52,1.53,1.39.86,2.2-.58.69-1.55.07-2.25-.38-.73-.49-1.41-1.05-2.16-1.51-1.16-.71-2.72-.53-3.07.44-.42,1.15.43,1.86,1.32,2.33.87.45,1.84.72,2.76,1.1.66.26,1.33.53,1.96.87.37.2.78.54.69,1.03-.09.57-.6.78-1.07.9-1.09.28-1.91-.33-2.76-.86-.97-.61-1.83-1.44-3.02-1.63-.62-.1-1.24-.05-1.63.55-.41.62-.07,1.15.3,1.65.68.92,1.67,1.41,2.62,1.97.96.54,1.91,1.11,2.5,2.1.26.43.58.98.28,1.37-.42.53-.89-.07-1.27-.29-1.05-.61-2.04-1.33-3.1-1.9-1.46-.78-3-.53-3.3.57-.4,1.4.76,1.92,1.73,2.4.79.4,1.65.62,2.48.9.85.28,1.68.57,2.39,1.13.89.72,1.76,1.76,1.15,2.8-.62,1.04-1.79.23-2.68-.08-.75-.26-1.27-.86-1.82-1.4-.51-.5-.99-1.03-1.55-1.48-1.37-1.13-3.22-1.45-3.73-.69-.5.75.43,2.52,1.8,3.38.89.57,1.82,1.05,2.69,1.62.36.23.79.53.52,1.06-.24.46-.71.51-1.15.44-.79-.1-1.42-.57-2.1-.94-.62-.35-1.24-.71-1.91-.95-.52-.18-1.14-.17-1.49.37-.38.59-.18,1.15.21,1.67.46.59,1.1.9,1.77,1.18.77.29,1.58.52,2.29.9.93.5,2.13,1.29,1.48,2.35-.53.9-1.73.08-2.5-.36-1.29-.73-2.48-1.64-3.74-2.42-.84-.53-1.64-.33-2.16.46-.51.77.03,1.4.61,1.83.66.49,1.42.84,2.15,1.21.68.37,1.4.66,2.06,1.06.5.3,1.14.71.8,1.42-.33.69-1.06.71-1.74.53-1.04-.26-1.83-1.01-2.76-1.47-.87-.42-1.91-1.56-2.71-.28-.72,1.14.28,2.07,1.16,2.75.75.58,1.58,1.01,2.37,1.5.7.44,1.41.86,2.08,1.35.37.27.93.58.6,1.19-.25.49-.77.58-1.29.55-1.07-.03-1.82-.71-2.6-1.32-1.05-.79-1.94-1.8-3.19-2.34-.43-.18-.86-.25-1.23.09-.43.36-.26.84-.1,1.22.43,1.07,1.27,1.8,2.29,2.27,1.35.63,2.72,1.2,4.05,1.87.54.27,1.45.57,1.12,1.35-.33.75-1.22.9-2.02.71-.81-.19-1.51-.66-2.18-1.15-.79-.6-1.57-1.21-2.4-1.76-.8-.54-1.72-.75-2.68-.49-1.13.32-1.32.98-.44,1.74.62.52,1.39.87,2.06,1.36.64.46,1.92.88,1.5,1.65-.43.79-1.27-.29-1.93-.53-1.05-.38-2.5-1.38-3.1-.21-.71,1.35.85,2.11,1.97,2.69,1.06.57,2.28.86,3.14,1.77.53.57,1.2,1.3.69,2.02-.54.77-1.42.25-2.06-.14-.79-.5-1.5-1.11-2.23-1.7-.57-.45-1.15-.87-1.87-1.05-.45-.12-1.05-.34-1.33.21-.3.57.21.92.6,1.21.95.71,2.12.88,3.21,1.27.5.18,1.15.28.93,1.07-.18.66-.66,1.07-1.33,1.02-.59-.06-1.15-.32-1.73-.5-.88-.28-1.75-.66-2.66-.87-.58-.14-1.32-.1-1.64.49-.4.72.35,1.1.79,1.42,1.35.96,2.74,1.85,4.1,2.77.58.38.88.84.54,1.53-.35.69-.95.71-1.56.47-.51-.2-.96-.53-1.45-.78-.83-.43-1.63-.95-2.5-1.25-.73-.26-1.77-.67-2.13.43-.32.95.53,1.46,1.32,1.8.8.34,1.67.57,2.46.94.73.35,1.58.78,1.09,1.87-.52,1.13-1.39,1.09-2.34.58-.92-.5-1.81-1.05-2.74-1.55-.21-.1-.57-.17-.76-.07-.35.2-.21.59-.14.9.28,1.04,1.07,1.64,1.93,2.16.94.58,1.93,1.06,2.85,1.66.98.66,1.51,1.59.72,2.66-.78,1.05-1.72.33-2.5-.1-.88-.49-1.45-1.33-2.07-2.11-.52-.66-1.11-1.22-1.91-1.53-.52-.19-1.12-.49-1.53.01-.37.44.04.94.27,1.36,1.01,1.83,2.76,2.79,4.48,3.81.38.23,1.06.34.89.99-.14.49-.64.7-1.12.89-.76.28-1.42.08-2.02-.35-.68-.47-1.28-1.06-1.96-1.51-.81-.54-1.98-1.44-2.62-.5-.77,1.13.73,1.59,1.49,2.08,1.54.96,3.31,1.54,4.61,2.87.54.58,1.36,1.26.64,2.1-.63.76-1.58.64-2.43.18-1.13-.61-1.97-1.58-2.88-2.45-.86-.81-1.79-1.49-3.04-1.48-.73.01-1.53.09-1.85.83-.32.73.35,1.21.81,1.66,1.19,1.16,2.74,1.82,4.07,2.8.72.54,1.33,1.13.7,2.05-.7.99-1.48.35-2.15-.09-.96-.64-1.84-1.41-2.81-2.02-.57-.36-1.36-.98-1.91-.21-.55.78.33,1.29.83,1.72,1.32,1.12,2.89,1.82,4.43,2.57,1.12.54.96,1.16.25,1.89-.97.99-1.92.51-2.83-.09-1.15-.76-2.09-1.81-3.38-2.34-.59-.24-1.33-.84-1.81-.19-.57.73.05,1.49.61,1.99.81.72,1.82,1.25,2.62,1.99.84.77,1.61,1.98.64,2.85-.81.73-1.82-.18-2.49-.96-.33-.37-.61-.79-.9-1.18-.34-.45-.75-.84-1.31-.96-.66-.15-1.37-.24-1.73.52-.33.68.14,1.15.66,1.51.8.57,1.71,1.03,2.44,1.66.62.53,1.32,1.36.76,2.14-.58.79-1.62.54-2.44.17-.43-.19-.77-.6-1.13-.94-.36-.33-.68-.72-1.05-1.03-.4-.32-.87-.6-1.36-.21-.43.32-.26.77-.14,1.21.29,1.07.97,1.83,1.92,2.36.81.46,1.63.94,2.43,1.41,1.06.63,1.27,1.56.64,2.53-1.68,2.62-4.09,4.62-7,1.49-.59-.63-1.32-1.16-2.07-1.63-.68-.43-1.46-.29-1.94.3-.47.58.18,1.01.49,1.41,1.31,1.75,2.88,3.18,5.09,3.75.41.1.92.2,1.1.64.53,1.21.47,2.46-.44,3.4-.96.99-1.77,2.53-3.69,1.71-1.67-.72-2.82-2.09-4.11-3.27-.98-.89-1.94-1.82-3.21-2.27-.42-.15-.99-.57-1.35.01-.29.5.14.95.47,1.3,1.2,1.24,2.79,1.96,4.13,3.02.59.47,1.74.72,1.45,1.73-.26.94-1.22,1.36-2.15,1.63-.55.17-1.07.09-1.63-.01-2.5-.47-4.32-2.11-6.3-3.49-.79-.54-1.45-1.46-2.67-1.41.2,1.13,1.11,1.47,1.73,2.05.73.67,1.54,1.27,1.9,2.24.15.42.29.93-.1,1.22-.36.27-.72-.11-1.02-.34-1.72-1.28-3.43-2.6-5.14-3.88-.68-.52-1.4-.99-2.46-1.24.35,1.08,1.05,1.49,1.77,1.87.87.46,1.83.79,2.53,1.53.54.55,1.19,1.27.71,2.01-.44.72-1.29.29-1.94.09-2.18-.68-3.74-2.29-5.4-3.73-.84-.72-1.68-1.41-2.74-1.83-.26-.1-.55-.15-.73.12-.19.28-.03.55.18.72.4.3.81.57,1.24.81.8.48,1.67.89,2.27,1.62.55.66,1.42,1.47.71,2.28-.62.71-1.54.02-2.22-.41-1.12-.72-1.99-1.74-2.93-2.67-.42-.42-.87-.99-1.55-.75-3.37,1.21-6.38-.07-9.41-1.29-1.41-.58-2.83-1.18-4.24-1.76,2.37,3.04,4.84,5.87,8.38,7.43.7.31,1.03.71.8,1.54-.41,1.44.27,2.45,1.42,3.22,1.05.69,2.16,1.33,3.19,2.06.52.37,1.23.79.97,1.57-.79,2.37.58,4.01,1.81,5.7,1.02,1.37,2.2,2.62,2.96,4.17.37.76.72,1.63.2,2.35-.93,1.3-.33,2.13.66,2.91.64.51,1.3,1.02,2,1.46.58.37.8.75.28,1.31-1.12,1.18-.78,2.26.16,3.36.38.46.73.98.96,1.53.21.53.63,1.2.04,1.67-.47.38-1.06.01-1.55-.24-1.59-.78-2.51-2.27-3.69-3.49-.52-.54-1.13-1.62-1.98-.84-.7.66-.25,1.65.32,2.41.53.71,1.23,1.25,1.97,1.74,1.05.7,2.13,1.39,3.15,2.13.49.34,1.16.76,1.11,1.36-.18,2.2.58,4.09,1.65,5.93.21.36.33.89-.07,1.23-.38.32-.84.08-1.26-.06-1.49-.47-2.41-1.68-3.52-2.68-.61-.54-1.38-1.72-2.08-1.05-.77.7-.11,1.89.61,2.62.69.7,1.49,1.3,2.27,1.91.95.75,1.96,1.42,2.88,2.19,1.36,1.13,2.34,2.54,2.54,4.32.1.98.55,2.34-.54,2.86-.97.47-1.97-.4-2.75-1.11-.87-.77-1.65-1.64-2.58-2.33-.57-.44-1.39-1.15-2.05-.5-.69.71.18,1.41.61,1.99.85,1.12,2.11,1.75,3.26,2.51,1.18.77,2.23,1.66,2.68,3.04.28.89.07,1.41-1.03,1.16-1.29-.29-2.27-1.1-3.24-1.91-.5-.42-.92-.96-1.76-1.14.46,1.27,1.36,1.82,2.22,2.41,1.55,1.06,3.1,2.1,4.63,3.18.74.51,1.29,1.19,1.64,2.02.58,1.37.18,3.32-.94,4.26-1.09.9-2.11.15-3.03-.34-1.41-.73-2.72-1.67-4.1-2.48-.62-.36-1.22-.9-2.19-.73.26.95.73,1.57,1.44,2.06,1.16.79,2.51,1.13,3.79,1.63,1.35.52,2.68,1.07,3.38,2.48.27.55.54,1.14.05,1.68-.44.49-1.05.64-1.66.42-.72-.28-1.4-.64-2.08-.98-.64-.33-1.27-.69-1.91-.98-.35-.15-.8-.23-1.07.14-.35.46.01.85.35,1.12.72.59,1.49,1.13,2.26,1.66.95.66,1.92,1.29,2.63,2.23.54.72.72,1.58.17,2.31-.64.81-1.41.23-2.08-.11-.9-.46-1.49-1.29-2.18-2-.74-.76-1.54-1.44-2.58-1.73-.42-.11-.92-.21-1.22.2-.32.45.01.85.26,1.2.5.69,1.26,1.06,1.93,1.53.75.5,1.46,1.04,1.74,1.92.33,1.03-.09,1.57-1.14,1.23-.77-.25-1.46-.76-2.19-1.12-.47-.24-1.03-.72-1.48-.16-.34.43.05.95.31,1.37.85,1.38,2.26,2.05,3.62,2.78.68.36,1.3.76.76,1.64-.88,1.46-.97,3.02-.7,4.64.18.98-.28,1.14-1.12.98-1.49-.27-2.57-1.19-3.63-2.17-.72-.68-1.29-1.62-2.42-1.89-.16.9.43,1.33.89,1.74,1.21,1.04,2.49,2,3.69,3.04.4.34.96.75.54,1.38-.34.54-.92.8-1.57.75-.76-.07-1.3-.55-1.82-1.06-.7-.69-1.38-1.41-2.14-2.05-.41-.33-1.01-.75-1.46-.15-.44.59.1,1.03.52,1.38,1.05.87,2.16,1.7,3.22,2.57.37.31.81.69.54,1.25-.23.48-.69.69-1.2.78-.8.16-1.4-.19-1.93-.71-.72-.68-1.38-1.42-2.11-2.09-.31-.27-.72-.7-1.15-.4-.45.33-.14.81.03,1.2.71,1.62,1.5,3.19,2.13,4.84,1.03,2.75.95,5.48-.36,8.17-.49.98-1.16,1.2-2.15.81-1.18-.45-2.02-1.29-2.8-2.24-.81-1.04-1.52-2.18-2.58-3-.4-.29-.81-.71-1.33-.4-.59.35-.45.99-.29,1.49.16.51.45,1.01.79,1.44,1.01,1.25,2.26,2.25,3.73,2.93,1.3.6,1.3,1.46.71,2.54-.8,1.49-2.32,1.93-3.7,2.6-1.44.7-2.43.25-3.19-1.03-.59-1-1.14-2.01-1.77-2.97-.32-.46-.79-.87-1.4-.45-.68.46-.49,1.06-.09,1.58.54.7,1.18,1.32,1.72,2.01.44.57.61,1.21.05,1.8-.62.66-1.24.27-1.74-.18-.74-.67-1.38-1.42-2.09-2.11-.44-.43-.95-.89-1.58-.38-.7.54-.37,1.18.03,1.74.54.77,1.22,1.45,1.42,2.4.31,1.41-.34,2.03-1.72,1.57-.72-.26-1.41-.67-2.13-.99.59.71,1.28,1.25,1.9,1.87.79.78,1.2,1.73.84,2.85-.8,2.46-4.99,3.45-6.79,1.59-.69-.7-1.26-1.54-1.98-2.2-.58-.53-1.47-1.33-2.13-.57-.59.68.51,1.15.97,1.62,1.03,1.04,2,2.08,1.98,3.66-.02,1.41-.58,1.79-1.89,1.28-1.28-.5-2.15-1.51-3.02-2.52-.64-.76-1.18-1.7-2.37-2.09,0,.99.51,1.56.96,2.16.6.79,1.29,1.53,1.76,2.39,1.21,2.16.73,3.47-1.51,4.44-2.16.94-4.14.45-6.09-1.58-1.25-1.32-2.44-2.74-3.65-4.1.27.95.83,1.67,1.42,2.36.79.94,1.48,1.91,1.87,3.09.36,1.15.09,1.92-1.16,2.25-1.53.38-3.07.19-4.61.28-.51.03-.77-.29-.88-.79-.29-1.28-1.03-2.3-1.83-3.29-.33-.4-.5-1.11-1.23-.79-.67.28-.75.92-.69,1.55.12,1.36,1.15,2.2,1.79,3.29.5.84,2.14,1.5.9,2.71-1.06,1.05-1.84-.24-2.63-.81-.45-.32-.97-.83-1.28.06-.6,1.72-1.51.87-2.2.23-.59-.54-.92-1.38-1.41-2.02-.62-.79-1.54-1.11-2.33-.49-.88.69-.06,1.37.41,1.94,1.93,2.36,1.91,2.58-.55,4.44-1.11.84-2.33,1.42-3.71,1.73-1.16.27-2.35.17-3.12-.6-1.5-1.5-2.07-.5-2.76.71-.87,1.53-1.56,3.24-3.1,4.23-2.35,1.51-3.15,1.18-3.9-1.19-.49-1.51-.81-3.09-1.27-4.61-.11-.36-.26-1.15-.77-.81-1.44.97-2.95.64-4.47.66-.53,0-1.11.24-1.28.87-.18.61.15,1.03.57,1.45.79.78,1.5,1.36,2.18-.11.12-.29.4-.53.64-.75.63-.58,1.41-.62,2.18-.41.86.25.63,1.05.67,1.68.03.87.02,1.75,0,2.64-.03,1.51-.6,1.82-1.94,1.11-.38-.2-.58-.81-1.25-.43-2.51,1.44-3.56,3.43-3.23,6.25h0Z"/>
  </g>
</svg>