<?xml version="1.0" encoding="UTF-8"?>
<svg id="Layer_2" data-name="Layer 2" xmlns="http://www.w3.org/2000/svg" viewBox="0 0 496.2 654.5">
  <defs>
    <style>
      .cls-1 {
        fill:#808080
      }
    </style>
  </defs>
  <g id="Layer_1-2" data-name="Layer 1">
    <path class="cls-1" d="m2.07,463.36c2.51-5.92,7.1-10.5,11.57-14.9,4.49-4.4,9.59-8.65,14.52-12.26,5.49-4.02,10.33-8.82,15.69-13.11,5.23-4.2,10.88-8,16.37-12.06,4.14-3.14,8.99-5.28,13.27-8.34,3.94-2.99,6.53-7.21,10.12-10.6,2.65-2.53,5.95-4.38,9.15-6.32,7.04-4.35,14.39-8.22,21.79-12.24,8.72-4.91,16.99-10.59,25.55-15.81,6.18-3.79,12.64-7.28,19.52-9.94,15.12-5.9,30.79,3.8,40.85,14.72,6.39,6.75,12.13,15.32,21.75,17.25,6.53,1.33,1.55-7.66.43-10.5-3.58-8.45-9.53-22.52,3.93-25.48,2.33-.59,5.79.38,8.04-.94,1.61-.99,2.92-4.04,1.48-5.67-3.19-3.74-9.14,6.35-13.79,3.29-4.62-3.01-6.35-8.91-8.24-13.81-2.24-5.92-5.44-11.3-8.3-16.9-4.18-7.89-5.73-15.28-6.71-23.98-.78-7.51-2.16-15.56-8.81-20.34-5.38-3.84-11.81-6.22-17.46-9.71-6.03-3.66-10.01-9.05-15.21-13.66-5.78-5.18-12.89-7.31-20.62-7.91-10.16-.78-20.05-3.22-30.23-3.61-4.91-.26-9.96-.08-14.69,1.19-4.13,1.16-7.6,3.74-11.72,4.65-4.36.9-9.24-2.4-5.06-7.06,1.88-2.03,5.57-1.77,8.08-1.77,6.5-.05,12.36-3.54,18.8-3.08,7.86.61,15.6,1.69,23.47,1.72,7.79,0,15.74,0,23.09,2.83,12.83,4.96,25.42,11.97,35.17,21.83,5.74,5.89,11.52,11.08,18.84,14.9,5.38,2.81,5.54,9.06,7.02,14.19,1.32,5.16,2.51,10.29,3.84,15.46,1.76,6.9,4.23,13.64,6.05,20.56,1.04,3.93.76,10.24,5.1,12.39,4.53,2.2,5.63-2.7,5.09-6.04-1.21-7.08-4.76-13.31-7.22-19.81-4.4-11.64-.4-25.02,3.89-36.02.6-1.42,6.44-16.94,6.6-16.89-4.97-1.54-11.49-.18-16.69-1.16-4.3-.68-8.3-2.28-11.43-5.41-6.16-6.12-8.39-15.59-9.17-24.01-.59-6.86,3.52-13.11,3.01-19.83-.26-3.77-2.23-7.13-3.18-10.73-1.44-5.08.85-9.63,3.45-13.88.64-.91,5.95-9.91,7.39-8.91-7.41-5.11-18.6-8.47-27.49-9.81-9.97-1.61-19.94-3.28-29.72-6.1-7.29-2.17-17.44-5.09-20.91-12.59-2.8-5.8-1.44-15.5-1.54-21.73,0-9.82.51-19.68,0-29.5-.5-10.42-3.33-20.43-5.65-30.46-3.01-12.45-7.28-23.95-12.73-35.46-1.26-2.48-11.38-22.13-1.69-19.83,2.71.61,3.65,2.99,4.72,5.23,6.52,13.05,11.22,27.02,15.79,40.83,3.43,10.7,6.88,21.37,6.88,32.74,0,15.79-4.4,32.38-1.89,48.09.98,6.1,5.81,9.58,11.38,11.59,13.34,4.81,27.03,8.83,40.66,12.67,7.41,1.98,14.6,4.94,21.4,8.42,6.24,3.23,8.04-3.44,11.18-7.48,15.81-20.14,46.71-19.98,62.45,0,3.18,4.04,4.93,10.7,11.2,7.48,6.84-3.47,14.01-6.43,21.43-8.42,13.65-3.84,27.34-7.86,40.61-12.67,5.55-2.02,10.39-5.49,11.43-11.59,2.45-15.71-1.91-32.3-1.91-48.09,0-11.38,3.37-22.04,6.88-32.74,4.53-13.81,9.19-27.78,15.81-40.83,1.08-2.23,2.06-4.62,4.64-5.23,9.78-2.3-.44,17.35-1.7,19.83-5.46,11.51-9.65,23-12.63,35.46-2.37,10.04-5.23,20.04-5.65,30.46-.57,9.82-.07,19.68-.07,29.5-.06,6.23,1.23,15.93-1.46,21.73-3.39,7.49-13.63,10.42-20.93,12.59-9.7,2.83-19.75,4.5-29.7,6.1-8.91,1.34-20.13,4.7-27.6,9.81,1.55-.99,6.9,8,7.34,8.91,2.75,4.25,4.99,8.8,3.61,13.88-1.02,3.61-2.95,6.96-3.22,10.73-.51,6.71,3.62,12.97,3.03,19.83-.73,8.42-3.03,17.89-9.18,24.01-3.15,3.13-7.14,4.73-11.41,5.41-5.27.98-11.72-.38-16.68,1.16.07-.05,5.97,15.46,6.56,16.89,4.28,11,8.3,24.37,3.89,36.02-2.56,6.5-6.01,12.73-7.19,19.81-.53,3.34.53,8.23,5.14,6.04,4.34-2.15,4-8.45,4.97-12.39,1.84-6.91,4.37-13.66,6.12-20.56,1.29-5.18,2.49-10.3,3.87-15.46,1.32-5.13,1.59-11.38,7.01-14.19,7.32-3.82,13.07-9.01,18.84-14.9,9.76-9.86,22.21-16.87,35.16-21.83,7.32-2.83,15.34-2.83,23.05-2.83,7.83-.04,15.56-1.11,23.41-1.72,6.48-.46,12.38,3.03,18.88,3.08,2.46,0,6.22-.27,8.02,1.77,4.27,4.66-.65,7.96-4.99,7.06-4.19-.91-7.7-3.49-11.72-4.65-4.74-1.27-9.78-1.46-14.73-1.19-10.12.38-20.11,2.83-30.22,3.61-7.68.6-14.84,2.73-20.57,7.91-5.23,4.61-9.25,10-15.32,13.66-5.59,3.49-12.02,5.87-17.46,9.71-6.57,4.78-8,12.83-8.89,20.34-.91,8.7-2.46,16.09-6.56,23.98-2.92,5.61-6.1,10.98-8.42,16.9-1.86,4.9-3.53,10.8-8.15,13.81-4.62,3.06-10.69-7.03-13.8-3.29-1.48,1.64-.12,4.68,1.44,5.67,2.17,1.32,5.66.35,8.14.94,13.36,2.96,7.41,17.03,3.84,25.48-1.13,2.84-6.06,11.83.46,10.5,9.67-1.93,15.34-10.5,21.65-17.25,10.16-10.91,25.78-20.62,41.06-14.72,6.78,2.66,13.19,6.15,19.48,9.94,8.61,5.22,16.76,10.9,25.61,15.81,7.2,4.02,14.65,7.89,21.69,12.24,3.09,1.93,6.43,3.79,9.16,6.32,3.53,3.39,6.18,7.61,10.12,10.6,4.21,3.06,9.14,5.19,13.29,8.34,5.42,4.05,11.11,7.86,16.34,12.06,5.29,4.3,10.22,9.1,15.75,13.11,4.78,3.61,9.94,7.86,14.45,12.26,4.5,4.4,9.06,8.98,11.6,14.9,1.5,3.41,4.08,10.83-.59,13.06-6.44,3.14-6.6-4.03-6.6-8.2,0-10.67-8.11-18.85-15.86-25.04-9.44-7.54-19.68-14.12-29.35-21.38-4.8-3.65-9.78-7.01-14.37-10.91-2.79-2.43-5.21-5.24-8.36-7.09-3.35-1.97-7.29-2.73-10.71-4.48-8.09-4.3-15.31-10.09-23.58-14.2-6.14-3.08-12.25-5.89-17.82-9.71-8.43-5.69-16.07-12.58-25.45-16.72-8.33-3.74-16.31,1.64-22.5,7.16-5.23,4.51-9.86,9.94-15.7,13.69-4.7,2.98-10.15,4.95-15.62,6.22-3.94.91-11.56.18-14.55,3.24-1.74,1.87-3.68,5.72-3.22,8.35.69,3.89,5.97,6.65,7.85,10.17,7.62,13.99,19.42,1.7,30.64.71,10.99-.86,20.13,7.44,30.61,9.29,3.51.63,7.14.81,10.52,2.28,8.19,3.67,7.85,16.9,11.95,23.85,3.9,6.58,8.15,13.03,12.32,19.48,6.72,10.62,13.51,21.25,19.26,32.42,2.82,5.54,5.34,11.13,7.92,16.7,2.45,5.09,4.74,9.84,5.91,15.45,2.01,8.63,4.34,16.9,6.91,25.44,3.83,12.73,7.28,25.55,10.69,38.45,1.45,5.03,3.14,9.94,4.77,14.97,1.84,5.26,3.49,10.35,4.71,15.84,1.93,7.56,7.47,13.46,12.2,19.51,2.13,2.83,4.57,5.85,5.76,9.26,1.73,5.05-4.59,3.49-6.48,1.09-3.09-3.87-4.7-8.52-7.09-12.8-2.3-3.97-5.37-7.43-7.77-11.34-3.96-6.1-4.25-12.89-6.37-19.55-1.8-5.54-4.37-10.77-6.01-16.27-2.9-9.56-4.38-19.55-7.13-29.19-1.73-6.1-3.53-12.32-5.16-18.51-2.07-7.69-5.59-14.9-9.76-21.65-4.99-8.3-10.05-16.52-14.59-25.14-3.74-7.21-6.41-14.9-9.86-22.21-3.51-7.77-7.88-14.97-11.78-22.52-2.17-4.3-3.65-9.01-6.79-12.67-4.21-4.76-11.3-6.48-16.85-9.41-4.38-2.25-8.67-4.76-13.55-5.82-7.76-1.67-15.66-.66-23.57-.69-4.04-.07-8-.36-11.81-1.39-2.6-.64-15.12-6.57-15.22.23-.09,3.39,6.86,6.4,9.2,8.07,24.89,17.71,31.77,54.33,31.56,82.74,0,10.02-1.08,20.11-2.58,29.97-2.8,17.41-7.09,35.9-19.64,49-3.39,3.59-7.6,6.53-12,8.86-19.9,10.42-41.15,10.39-61.03,0-4.44-2.33-8.53-5.28-12.06-8.86-12.48-13.1-16.8-31.59-19.62-49-1.51-9.86-2.46-19.94-2.56-29.97-.15-28.41,6.64-65.03,31.6-82.74,2.33-1.67,9.34-4.68,9.2-8.07-.16-6.8-12.63-.88-15.21-.23-3.9,1.03-7.81,1.32-11.82,1.39-7.92.03-15.83-.98-23.58.69-4.87,1.06-9.14,3.57-13.54,5.82-5.5,2.93-12.66,4.65-16.83,9.41-3.22,3.65-4.75,8.37-6.83,12.67-3.85,7.56-8.26,14.75-11.79,22.52-3.45,7.31-6.16,15-9.89,22.21-4.44,8.62-9.63,16.84-14.63,25.14-4.02,6.75-7.54,13.96-9.67,21.65-1.67,6.19-3.45,12.4-5.16,18.51-2.73,9.64-4.24,19.63-7.2,29.19-1.59,5.51-4.14,10.73-5.84,16.27-2.16,6.66-2.51,13.44-6.47,19.55-2.35,3.92-5.61,7.37-7.79,11.34-2.35,4.28-3.95,8.93-7.05,12.8-1.91,2.4-8.19,3.95-6.57-1.09,1.19-3.41,3.71-6.43,5.88-9.26,4.64-6.05,10.29-11.96,12.09-19.51,1.27-5.49,2.86-10.58,4.84-15.84,1.61-5.03,3.26-9.94,4.66-14.97,3.47-12.9,6.9-25.72,10.72-38.45,2.62-8.53,4.91-16.8,6.85-25.44,1.29-5.61,3.52-10.35,5.93-15.45,2.7-5.57,5.09-11.16,7.95-16.7,5.78-11.16,12.53-21.8,19.32-32.42,4.09-6.45,8.3-12.9,12.22-19.48,4.23-6.95,3.81-20.18,12.04-23.85,3.37-1.47,6.94-1.65,10.58-2.28,10.39-1.85,19.45-10.15,30.54-9.29,11.2.99,22.96,13.28,30.62-.71,1.89-3.52,7.2-6.28,7.88-10.17.45-2.63-1.55-6.48-3.22-8.35-2.96-3.06-10.52-2.33-14.6-3.24-5.46-1.27-10.9-3.24-15.65-6.22-5.86-3.75-10.54-9.18-15.68-13.69-6.08-5.52-14.08-10.9-22.54-7.16-9.33,4.14-16.89,11.03-25.36,16.72-5.57,3.82-11.72,6.63-17.82,9.71-8.26,4.12-15.5,9.91-23.69,14.2-3.42,1.75-7.24,2.52-10.62,4.48-3.18,1.85-5.67,4.66-8.43,7.09-4.5,3.9-9.44,7.26-14.26,10.91-9.69,7.26-19.96,13.84-29.46,21.38-7.63,6.18-15.86,14.37-15.86,25.04,0,4.17,0,11.34-6.6,8.2-4.53-2.23-1.98-9.66-.5-13.06h0Z"/>
  </g>
</svg>