<?xml version="1.0" encoding="UTF-8"?>
<svg id="Layer_2" data-name="Layer 2" xmlns="http://www.w3.org/2000/svg" viewBox="0 0 413.65 654.5">
  <defs>
    <style>
      .cls-1 {
        fill:#808080
      }
    </style>
  </defs>
  <g id="Layer_1-2" data-name="Layer 1">
    <path class="cls-1" d="m4.76,479.35c4.05-.34,2.49,4.8,3.92,7.03,2.1,3.17,6,1.49,7.32-1.43,1.85-3.9-.72-8.18,1.85-12.1,12.51-17.69,20.04-38.12,30.52-57.03,2.01-3.9,4.6-13.93,9.46-15.02,2.54-.59,4.58,1.66,7.09-.06,5.45-3.63,4.57-11.75,5.94-17.25,1.66-6.52,6.29-11.21,10.41-16.26,5.56-6.73,10.22-14.62,14.62-22.15,2.77-4.66,7.22-14.48,14.04-13.3,0,0,1.7,4.07,2.98,4.53,2.6.88,4.39-.79,6.55-1.87,2.22-1.17,5.12-1.72,7.8-1.76,0,0-1.85,12.27-1.85,13.15,0-3.46-11.33.53-12.65.99-4.57,1.49-9.38,2.96-10.7,8.08-2.03,7.7-.86,17.5-.48,25.39.78,10.91.55,21.99-.06,33-.4,7.47-1.3,15.09-3.21,22.47-1.74,7.47-3.99,14.06-1.74,21.8,1.28,4.36,1.74,9.12.76,13.61-.92,3.99-4.15,7.09-5.18,11.1-.67,3.29,1.2,6.69.71,10.17-.48,3.63-2.45,6.99-1.95,10.72.57,6.74-2.96,12.71-4.97,18.8-2.58,7.7-.88,16.22-2.37,24.21-1.41,7.6-6.13,13.93-8.54,21.07-1.99,6.04-3.9,11.69-8.1,16.57-3.46,3.92-5.81,10.05-10.66,12.52-2.52,1.36-5.2,4.43-3.36,7.28,1.8,2.71,6.65,3.06,9.19,5.33,7.59,6.74,5.67-7.05,9.25-10.7,1.16-1.13,2.33-1.89,3.21-3.44,1.57-3.08,1.66-6.67,2.89-9.88,1.4-3.21,3.82-5.88,5.35-8.96,3.42-7.36,5.14-15.42,7.32-23.22,2.28-8.01,5.7-14.81,9.84-21.99-1.01,1.85.57,8.67.75,10.87.21,3.86.42,7.78.5,11.66.32,7.58.38,15.32.61,22.97.33,11.56-.29,23.06.33,34.62.86,13.68,7.34,26.31,18.42,34.6,5.68,4.26,17.45,12.97,24.53,7.01,6.78-5.54,4.78-19.18,5.08-26.88.75-23.75,1.3-47.56,2.02-71.4.73-21.42,1.72-42.84,2.56-64.3.25-6.38-1.05-13.13-1.55-19.43-.38-6.69-.86-13.37-1.17-20-.9-18.34-2.01-37.11-1.09-55.47.13-3.04.67-6,.67-9,.08-2.58-.48-6.04.99-8.35,1.68-2.73,7.79,1.26,9.86,2.18,4.17,1.99,8.37,3.46,13.01,3.53-2.5-.04-6.19,9.96-7.05,11.79-6.69,13.6-10.99,26.9-10.99,42.32,0,11.83,1.26,23.62,3.42,35.29,1.95,11.39,5.81,22.53,7.47,34.01.95,7.7,2.14,15.73,6.04,22.59,2.77,4.87,7.21,8.04,10.76,12.31,2.25,2.83,3.5,6.25,4.62,9.61,2.67,7.43,7.3,15.23,15.94,16.19,9.51,1.14,15.4-8.18,18.13-16.19,1.24-3.36,2.54-6.78,4.83-9.61,3.36-4.26,7.83-7.43,10.66-12.31,3.9-6.86,4.93-14.88,6.19-22.59,1.49-11.48,5.35-22.62,7.45-34.01,2.06-11.67,3.32-23.46,3.32-35.29,0-15.42-4.22-28.72-11.01-42.32-.86-1.83-4.55-11.83-7.01-11.79,4.66-.08,8.81-1.55,13.01-3.53,1.99-.92,8.12-4.91,9.82-2.18,1.34,2.31.97,5.77.97,8.35,0,3,.61,5.96.77,9,.8,18.36-.4,37.13-1.19,55.47-.38,6.63-.71,13.32-1.2,20-.46,6.31-1.72,13.05-1.49,19.43.9,21.46,1.72,42.88,2.5,64.3.8,23.85,1.38,47.66,2.08,71.4.27,7.7-1.6,21.35,5.01,26.88,7.19,5.96,18.92-2.75,24.71-7.01,10.95-8.29,17.52-20.93,18.23-34.6.75-11.56.17-23.06.44-34.62.08-7.64.3-15.38.61-22.97.04-3.88.25-7.8.46-11.66.19-2.2,1.81-9.02.69-10.87,4.16,7.18,7.7,13.99,9.97,21.99,2.22,7.8,3.86,15.86,7.37,23.22,1.36,3.08,3.88,5.75,5.08,8.96,1.28,3.21,1.51,6.8,3.1,9.88.76,1.55,1.93,2.31,3.06,3.44,3.67,3.65,1.72,17.45,9.33,10.7,2.5-2.27,7.45-2.62,9.11-5.33,1.8-2.85-.73-5.92-3.36-7.28-4.7-2.46-7.15-8.6-10.61-12.52-4.16-4.87-6.1-10.53-8.08-16.57-2.45-7.15-7.13-13.47-8.54-21.07-1.49-7.99.25-16.51-2.37-24.21-2.08-6.1-5.46-12.06-4.83-18.8.34-3.73-1.53-7.09-1.99-10.72-.5-3.48,1.36-6.88.69-10.17-1.07-4.01-4.2-7.11-5.14-11.1-1.15-4.49-.71-9.25.63-13.61,2.25-7.74,0-14.33-1.78-21.8-1.8-7.38-2.75-15-3.1-22.47-.57-11.01-.86-22.09-.23-33,.57-7.89,1.68-17.69-.31-25.39-1.32-5.12-6.21-6.59-10.66-8.08-1.34-.46-12.69-4.45-12.8-.99,0-.88-1.81-13.15-1.81-13.15,2.67.04,5.45.59,7.78,1.76,2.2,1.09,4.11,2.75,6.5,1.87,1.41-.46,3.08-4.53,3.08-4.53,6.74-1.18,11.31,8.64,14.08,13.3,4.36,7.53,9.11,15.42,14.54,22.15,4.28,5.04,8.79,9.74,10.45,16.26,1.22,5.51.52,13.62,5.96,17.25,2.41,1.72,4.55-.54,7.13.06,4.78,1.09,7.37,11.12,9.42,15.02,10.47,18.92,18.13,39.34,30.5,57.03,2.62,3.92,0,8.2,1.84,12.1,1.34,2.92,5.08,4.6,7.3,1.43,1.47-2.24-.08-7.38,3.92-7.03,10.62.77.44-8.66-1.93-11.67-3.19-4.41-5.12-9.59-6.84-14.85-1.87-5.58-6.56-9.63-9.94-14.27-4.68-6.4-9.27-12.92-13.2-19.76-2.83-4.76-4.36-10.05-7.38-14.58-2.1-2.9-4.34-5.69-5.46-9.08-1.17-3.99-1.11-8.37-3.17-12-1.99-3.42-4.95-6.3-7.39-9.42-6.36-8.1-13.32-15.94-20.27-23.52-6.04-6.53-9.9-14.77-16.01-21.21-5.87-6.17-13.05-10.26-21.46-11.77-.88-.17-13.09-2.1-13.03-2.37,0-.1.86-6.69,1.11-9.42,1.28-13.64-1.16-27.19-2.33-40.74-.63-7.87,1.64-20.83-7.17-25.01-.44-.19-4.11-1.09-4.11-1.62,0-10.89,1.09-21.76,1.09-32.5,0-.54,7.05-2.75,7.62-2.98,19.59-7.66,40.03-14.79,56.5-28.41,4.74-3.92,3.69-9.44,4.91-14.77,1.68-6.63,3.29-13.18,3.94-20.01.57-4.57.73-9.25,2.52-13.53,1.43-3.21,3.44-6.15,4.39-9.57,1.18-3.98.09-7.72.09-11.73-.17-7.24,4.34-13.28,4.64-20.27.21-5.79.57-11.54,2.54-16.97,2.12-5.16,5.58-9.67,4.74-15.59-.63-4.95-4.57-7.87-8.23-2.98-1.62,2.16-1.49,5.08-2.43,7.47-1.97,5.39-3.32,11.1-5.56,16.53-2.08,4.74-5.12,9.13-6.23,14.33-.71,3.27.29,6.8-.86,10.01-1.09,3.1-3.78,4.66-5.56,7.13-3.38,4.32-2.1,9.65-2.05,14.71,0,4.91-.86,9.9-2.54,14.54-2.89,7.7,3.38,26.46-6.84,29.71-10.26,3.29-19.95,8.35-30.07,11.64-5.18,1.66-9.65,4.8-14.81,6.53-3.04,1.05-6.11,1.83-9.17,2.62,0-3.57-.46-7.22-2.6-10.26-.23-.46-4.15-5.25-4.09-5.46.06-.04,4.97-5.81,4.97-5.81,0,0,2.54-4.97,3.32-7.45,2.85-8.27,5.62-15.52-.06-23.25-4.49-6.27-11.92-11.16-19.57-12.59-1.05-.21-10.6-2.2-11.01-1.43,2.29-4.6,3.92-9.86,6.76-14.16,7.49-10.93,15.99-22.15,24.71-32.1,5.94-6.67,12.69-12.57,18.17-19.41,12.5-14.87,24.46-34.24,42.34-42.71,3-1.39,6.5-3.36,3.65-6.96-2.85-3.55-8.98-2.43-12.78-1.01-6.25,2.45-11.12,7.53-16.24,11.79-7.64,6.27-14.92,13.09-21.86,20.1-6.8,6.78-13.28,14.06-19.76,21.27-14.67,16.32-26.37,34.28-36.92,53.54-1.09,2.04-1.64,5.22-3.63,6.59-1.86,1.2-4.32.48-6.35.48-3.69,0-7.43.04-11.22.04s-7.38-.04-11.12-.04c-2.04,0-4.58.72-6.34-.48-2.12-1.38-2.58-4.55-3.67-6.59-10.47-19.26-22.24-37.22-36.94-53.54-6.34-7.2-12.9-14.48-19.75-21.27-7.07-7.01-14.14-13.83-21.8-20.1-5.06-4.26-9.99-9.34-16.22-11.79-3.8-1.41-9.97-2.54-12.88,1.01-2.9,3.59.71,5.56,3.73,6.96,17.92,8.47,29.81,27.84,42.15,42.71,5.64,6.84,12.38,12.74,18.44,19.41,8.68,9.96,17.16,21.17,24.59,32.1,2.85,4.3,4.47,9.55,6.76,14.16-.44-.76-9.94,1.22-10.95,1.43-7.63,1.43-14.98,6.32-19.72,12.59-5.58,7.74-2.89,14.98-.17,23.25,1.07,2.49,3.55,7.45,3.55,7.45,0,0,4.83,5.77,4.95,5.81.13.21-3.76,5.01-4.17,5.46-2.06,3.04-2.6,6.69-2.6,10.26-2.96-.78-6.12-1.56-9.13-2.62-5.06-1.74-9.63-4.87-14.77-6.53-10.22-3.29-19.8-8.35-30.04-11.64-10.2-3.25-3.9-22.01-6.88-29.71-1.78-4.64-2.58-9.63-2.46-14.54.06-5.06,1.15-10.39-1.99-14.71-1.95-2.47-4.68-4.03-5.71-7.13-1.17-3.21-.04-6.74-.78-10.01-1.11-5.2-4.24-9.59-6.27-14.33-2.28-5.43-3.56-11.14-5.5-16.53-1.01-2.39-.94-5.31-2.48-7.47-3.63-4.89-7.57-1.97-8.27,2.98-.86,5.92,2.67,10.43,4.7,15.59,2.1,5.43,2.24,11.18,2.54,16.97.23,6.99,4.8,13.03,4.72,20.27-.04,4.01-1.09,7.76,0,11.73,1.11,3.42,3.06,6.36,4.47,9.57,1.76,4.28,2.04,8.96,2.41,13.53.77,6.82,2.33,13.38,4.03,20.01,1.36,5.33.17,10.85,4.85,14.77,16.53,13.62,36.99,20.75,56.67,28.41.46.23,7.55,2.45,7.55,2.98,0,10.74,1.11,21.61,1.11,32.5-.13.53-3.65,1.43-4.11,1.62-8.85,4.19-6.59,17.14-7.36,25.01-.99,13.55-3.53,27.1-2.14,40.74.29,2.73,1.11,9.32,1.11,9.42.04.27-12.17,2.2-13.05,2.37-8.44,1.51-15.63,5.6-21.42,11.77-6.13,6.44-10.03,14.67-16.07,21.21-6.98,7.59-13.8,15.42-20.27,23.52-2.29,3.12-5.22,6-7.24,9.42-2.23,3.63-2.1,8.01-3.36,12-1.11,3.38-3.36,6.17-5.35,9.08-3.08,4.53-4.64,9.82-7.36,14.58-3.99,6.84-8.6,13.36-13.32,19.76-3.42,4.64-8.03,8.69-9.92,14.27-1.74,5.25-3.46,10.43-6.86,14.85-2.35,3.02-12.61,12.44-1.95,11.67h0Zm285.93-100.79c.08-4.45-1.18-11.68,2.31-15.17,2.23-2.27,3.99-1.42,5.1,1.24,1.61,3.67,1.34,8.54,1.61,12.38.61,10.37.36,20.84-.27,31.22-.23,4.6-.61,9.34-.82,13.99-.25,1.74-1.49,6.63-.73,8.29-5.24-10.62-6.76-22.59-7.2-34.32-.3-5.87,0-11.75,0-17.63h0Zm-167.63,0c.08,5.88.21,11.77,0,17.63-.29,11.73-1.99,23.7-7.32,34.32.79-1.66-.4-6.55-.57-8.29-.29-4.64-.61-9.38-.88-13.99-.61-10.38-.94-20.85-.34-31.22.34-3.84.13-8.72,1.66-12.38,1.11-2.66,2.87-3.52,5.16-1.24,3.46,3.5,2.02,10.72,2.29,15.17h0Z"/>
  </g>
</svg>