<?xml version="1.0" encoding="UTF-8"?>
<svg id="Layer_2" data-name="Layer 2" xmlns="http://www.w3.org/2000/svg" viewBox="0 0 654.5 436.62">
  <defs>
    <style>
      .cls-1 {
        fill:#808080
      }
    </style>
  </defs>
  <g id="Layer_1-2" data-name="Layer 1">
    <path class="cls-1" d="m253.81,199.98c3.51,3.74,7.3,3.37,11.08,2.05,3.44-1.21,6.08-1.22,7.51,2.82.3.87.98,2.34,2.35,1.74,1.32-.58.82-1.94.39-2.92-2.41-5.48-3.93-11.31-6.88-16.57-1.86-3.31-3.5-6.88-2.99-10.77.42-3.18-1.06-4.52-3.77-4.73-6.09-.49-10.49-4.08-14.68-7.92-1.8-1.65-2.87-2.04-4.45.17-1.66,2.3-3.61,4.39-6.83,4.6-1.41.09-2.87,1.9-2.12,2.35,2.69,1.62,2.72,5.59,5.64,6.46,4.27,1.26,5.46,5.47,7.15,8.28,2.93,4.84,5.53,9.52,10.45,12.57.93.58,2.28.95,2.43,2.45-1.76.32-2.92-1.58-5.3-.57h0ZM563.61,9.76c2.43.38,4.68,4.02,5.62,1.35,1.08-3.07-3.73-3.25-5.89-5.82,2.79-.31,4.36,1.03,6.04,2.22,3.96,2.78,5.52,2.05,6.03-2.71.18-1.68-.39-4.05,1.51-4.64,2.46-.77,3.98,1.55,5.36,3.16,4.66,5.45,13.47,7.1,19.73,3.3-.06,3.6-3.76,3.27-5.37,5.03,1.1.72,1.83.18,2.41-.22,4.4-3.09,7.47-2.71,8.68,3.1.37,1.77,1.72,1.99,3.3,1.87,1.25-.09,2.61-.28,3.75.11,3.62,1.24,4.79.43,3.22-3.29-.22-.53-.37-1.23,1.13-2.03-.02,7.13,5.14,9.54,10.41,9.07,6.76-.59,3.01-7.77,5.35-11.95.45,3.08.88,5.68,1.19,8.29.58,4.97,3,8.82,6.77,12.04,5.91,5.05,8.87,11.04,8.17,19.32-.69,8.08-1.51,15.99-4.01,23.71-.92,2.86-1.62,5.72-3.8,8.03-2.78,2.96-.27,7.52-2.94,10.59-3.3,3.8-6.22,8.11-10.08,11.24-6.42,5.21-12.09,11.69-20.55,14-.65.18-1.19.98-1.64,1.59-7.6,10.34-18.42,15.49-30.33,18.87-1.06.3-2.03.45-2.91,1.31-6.85,6.66-14.9,11.01-25.09,12.31,2.28,2.55,1.35,4.74.41,7.31-3.91,10.62-11.13,16.58-22.59,17.08-1.49.07-3.08.42-3.45,1.99-2.79,11.55-12.43,12.49-21.64,14.04-2.15.36-4.42.02-6.63.09-1.53.04-3.36-.37-4.09,1.55-.61,1.57.71,2.63,1.42,3.82,1.05,1.78,2.55,1.4,4.15.87,3.9-1.29,7.8-2.63,11.75-3.72,4.59-1.26,9.2-2.53,13.51,1.07,1.7,1.42,3.68.23,5.42-.38,13.92-4.81,28.24-8.13,42.58-11.39,6.55-1.49,12.89.07,17.69,3.99,7.97,6.52,16.65,12.5,22.24,21.61,2.27,3.69,5.46,6.33,10.58,3.4-4.09,3.98-3.72,4.52.88,7.37,4.14,2.57,7.97,3.39,12.75,2.06,4.78-1.34,9.96.23,14.9-1.8,2.44-.99,3.1,2.36,4.94,4.22-2.84.81-5.48.26-6.2,3.83-.53,2.61-3.52,3.42-6.3,2.61-5.55-1.61-10.97-2.77-16.33.85-1.99,1.35-3.96-.19-5.69-1.26-5.55-3.42-10.15-8.04-15.11-12.19-2.54-2.12-4.6-3.65-6.91.93,2.01-5.5-.74-8.49-4.62-10.41-2.15-1.06-1.41,2.39-3.3,2.95-.57-2.25,1.21-4.79-.81-6.93-1.88-1.99-3.57-3.04-5.71-.53-.84-1.4.07-2.12.46-2.89.61-1.21.27-2.11-.62-2.95-1.01-.96-2-.62-3,.04-12.08,7.89-26.04,9.19-39.75,11.37-4.68.75-9.3,1.87-13.7,3.69-1.97.82-4.41,1.78-5.93.62-4.77-3.61-8.59-.84-12.55,1.22-3.05,1.58-5.97,3.39-9.5,5.43,4.54,2.78,8.53,5.21,12.52,7.66,2.41,1.48,4.74,2.91,6.32,5.53,2.17,3.58,5.61,2.5,9.49,1.41-4.1,3.09-1.66,5,.43,6.99,4.44,4.25,8.07,9.23,12.87,13.22,2.51,2.09,4.28,2.58,7.03,1.18,2.35-1.2,4.86-2.08,7.77-2.25-3.18,1.72-6.37,3.44-10.35,5.59,3.07.45,5.56.37,3.06,4.02-1.18,1.71,4.87,5.99,8.02,5.71,1.93-.17,3.91-1.43,5.81.13-.14.35-.17.75-.37.87-1.46.88-4.16-.18-4.6,1.72-.53,2.31,2.28,3.05,3.6,4.5,4.07,4.46,8.87,5.34,14.69,3.86,3.46-.88,7.23-.47,10.87-.68,1.64-.1,3.72-.91,2.1,2.27-.49.96,1.91,1.61,1.54,3.51-1.87-.19-3.88-.58-4.7,2.2-.65,2.21-2.96,2.03-4.87,1.8-3.29-.4-6.56-1.04-9.86-1.26-2.03-.13-4.41-1.28-6,1.29-.69,1.12-1.66.29-2.49-.06-2.34-.98-4.88-1.87-6.38-3.95-3.51-4.88-10.07-6.32-13.05-11.85-.54-.99-1.68-3.24-4.03-1.1-1.28,1.17-1.52-.9-1.59-1.73-.36-4.36-4.16-5.77-6.93-7.88-2.31-1.75-1.6,2.06-3.48,2.2,1.53-8.01-5.15-11.83-9.3-16.59-4.03-4.62-10.73-2.31-16.23-3.19-1.1-.18-.91,1.39-1.07,2.28-.29,1.53.93,3.03.05,4.77-3.83-2.14.24-9.45-6.37-9.51-1.34,1.03.46,2.76-.99,4.02-1.71-2.53-1.64-6.14-5.15-7.56-2.65-1.07-3.82-1.19-3.5,2.15.25,2.64,1.22,5.23.48,8.57-2.03-2.49-2.33-5.04-2.63-7.57-.16-1.41-.14-2.84-.22-4.26-.08-1.53-.61-3.04-2.21-3.25-1.85-.25-1.31,1.76-1.87,2.73-.45.76-.15,1.92-1.53,2.46-1.35-1.72-.04-3.58-.13-5.31-.08-1.66-.2-3.11-1.84-4.04-1.89-1.06-3.68-.57-5.47.17-1.98.81-.85,2.02-.29,3.06,1.18,2.17,2.43,4.29,3.25,6.69-2.38-1.17-3.58-3.36-4.74-5.42-1.43-2.52-3.11-3.02-5.85-2.23-4.64,1.35-4.69,1.18-6.21,8.98-1.67-2.48,1.07-6.92-3.39-7.95-2.27-.52-3.98,1.02-5.09,2.82-2.22,3.62,2.55,4.02,3.27,6.65-2.06.35-3.27-1.03-4.65-1.89-1.05-.65-1.89-1.87-3.32-1.51-2.44.62-5.74.8-6.77,2.87-1.19,2.41,2.31,3.16,3.73,4.65,9.85,10.41,17.84,22.12,23.03,35.42,1.61,4.11,3.35,5.56,7.36,5.34,2.02-.11,4.05.15,6.09.89-2.42.16-4.85.33-7.39.5.74,1.73,3.32,1.22,3.79,3.49-1.89-.36-3.67-.7-5.85-1.12,1.26,4.15,2.91,7.34,8.97,8.31-6.7,1.56-3.99,4-2.5,6.29,4.04,6.22,8.76,11.37,16.93,11.76,2.53.12,4.88,1.22,7.3,3.27-3.37,1.01-3.2,3.04-1.44,5.28-3.95.95-6.94-.44-10.02-2.13-3.43-1.89-6.91-3.89-11.06-3.93-2.13-.02-3.39-1.53-4.57-3.04-2.44-3.13-4.6-6.45-6.22-10.06-.88-1.96-1.9-2.78-4.48-.82.86-2.97,2.04-5.39-.23-7.46-1.63-1.48-1.95,1.05-3.52.88,1.39-3.95,1.24-7.64-2.38-10.41-1.98-1.51-2.08,1.17-3.48,1.53-.25-2.51-.23-5.03-.83-7.39-.44-1.7-.46-4.31-3.88-3.27-2.28.69-1.55-1.65-1.11-2.38,2.03-3.44,1.7-6.82-1.53-8.7-3.33-1.93-7.2-4.28-11.27-1.3-2.77-4.74-5.62-9.22-11.77-9.75-1.08-.09-.53-.9-.61-1.42-.55-3.76-3.6-5.57-6.33-7.17-3.64-2.13-4.74,1.81-5.67,3.8-.83,1.79-1.05,2.14-3.04,1.8-2.77-.49-5.67-.23-8.51-.25-2.83-.02-4.68.84-3.32,4.22-1.67.04-2.18-2.3-3.88-1.5-.98.45-2.23.85-2.77,1.66-.81,1.25.63,1.88,1.41,2.57,2.4,2.11,5.26,3.76,6.54,7.17-3.18-2.2-6.4-4.35-9.54-6.63-1.52-1.1-2.97-1.95-4.67-.54-1.68,1.4-.63,2.97.07,4.28,5.07,9.46,5.48,19.98,7.03,30.24.4,2.66,1.46,5.27-.61,8.2-1.59,2.25,1.78,3.5,3.23,5.17-.69,1.05-4.1-.37-2.29,3.18,1.2,2.32-.08,5.9-.22,8.91-.13,2.65.22,5.32,2.88,6.51,3.14,1.42.98,4.17.77,5.26-.62,3.2.99,4.72,2.81,6.45,2.3,2.17,4.81,4.14,6.91,6.49,1.2,1.35,3.7,2.87-.86,4.35-5.07,1.64-5.42,2.42-7.82-2.65-1.78-3.76-3.68-7.34-7.22-9.76-2.88-1.97-4.41-4.39-3.74-8.18.41-2.26-.17-4.71-.42-7.06-.22-2.21-1.31-2.84-3.72-1.02,7.12-9.05-.97-16.19-1.75-24.91-3.64,6.64-8.83,11.13-11.79,17.58-4.95,10.8-13.29,19.14-22.49,26.55-3,2.41-6.44,4.09-10.14,5.01-4.91,1.22-7.73,4.07-9.4,8.92-7.95,22.98-19.91,43.67-36.67,61.41-6.63,7.01-13.43,13.88-22.21,18.32-1.39.71-2.86,1.43-4.37,1.71-1.83.33-3.53-.56-4.4-2.19-1.02-1.9,1.07-2.25,1.99-3.14,7.56-7.28,14.84-14.75,19.09-24.58.44-.99,1.05-2.02,1.86-2.72,5.54-4.82,9.01-10.4,7.88-18.19-.42-2.8,1.9-4.22,4.28-4.95,4-1.24,5.39-4,5.2-7.94-.13-2.67-.04-5.26.57-7.96,1.2-5.31-3.87-13.91-8.59-15.69-2.06-.77-3.76-.9-4.82,1.29-1.44,2.96-3.68,2.92-6.38,2.12-4.09-1.21-7.38-.28-9.64,3.69-2.81,4.9-7.14,7.42-12.86,7.57-1.23.03-2.94.2-3.58.99-3.58,4.37-9.3,4.4-13.46,6.97-5.05,3.11-11.01,2.65-15.69,5.94-.64.45-1.44.66-2.09,1.09-1.25.82-1.97,3.5-4.06,1.25-1.56-1.69-1.72-3.7-.58-5.7,1.72-2.98,4.57-4.82,7.31-6.64,12.79-8.5,24.86-17.93,36.55-27.89,8.9-7.58,15.75-16.33,21.15-26.86,8.08-15.75,19.35-29.14,35.54-37.53,1.25-.64,2.47-1.34,3.53-2.91-5.08.89-10.23,1.45-15.2,2.75-4.85,1.27-9.3,1.25-13.72-1.27-3.98-2.26-5.91-6.9-4.44-11.2.46-1.35.76-2.79,1.47-4,2.85-4.86-.79-7.66-3.43-10.56-2.46-2.68-5.2-.56-7.28.74-2.84,1.76-6.04,1.41-8.97,2.42-1.49.51-3.14-.13-3.59-1.57-1.79-5.74-7.92-8.91-8.78-15.23-.25-1.83-1.7-3.21-3.26-4.47-3.43-2.78-6.76-5.76-8.22-10.16-.55-1.64-1.96-2.44-3.15-3.44-4.93-4.13-10.13-7.98-14.75-12.43-2.41-2.32-4.45-3.62-8.09-1.98,2.35-2.04,2.09-3.34.36-5.52-3.29-4.15-7.41-7.49-10.37-12.02-3.89-5.93-10.36-8.14-17.24-8.53-3.81-.21-6.13-2.03-7.87-5.13-2.83-5.03-6.66-5.87-11.44-2.29-1.29.97-2.61,1.62-4.04,2.27-1.47.67-2.15,1.88-3.76-.74-1.94-3.18-9.83-.35-10.25,3.58-1.1,10.28-8.87,14.94-16.25,20.09-6.76,4.72-15.3,6.09-21.59,11.65-5.18-1.43-7.96,4.9-13.45,3.93-2.33-.42-5.38,1.39-8.39,1.03-1.4-.17-1.91,1.35-2.1,2.71-.21,1.52.21,3.18-1.28,5.02-1.18-3.78-1.12-9.15-7.2-6.69-2.4.97-5.91,1.26-6.5,4.03-.51,2.37.77,5.13.49,7.99-.65-1.67-1.28-3.34-1.97-5-.47-1.14-.8-2.65-2.6-1.83-1.37.62-1.06,1.76-.68,2.85.67,1.9,1.35,3.81,2.1,5.94-1.9-.24-1.83-1.83-2.61-2.62-1.14-1.17-.8-4.9-4.05-2.59-2.28,1.61-5.18,3.11-2.28,6.65,1.01,1.25,1.67,2.79,2.82,4.77-1.2-.36-1.52-.39-1.75-.54-1.97-1.34-2.55-5.81-4.96-4.56-2.86,1.48-4.42,5.3-5.51,8.58-.94,2.8,2.94,3.36,3.53,5.68-.16.6-.59.48-1.04.34-1.48-.45-2.53-3.22-4.39-1.32-1.81,1.87.01,3.43,1.2,4.9,1.87,2.31,3.75,4.64,6.39,7.91-2.9-1.02-3.89-2.6-5.13-3.79-1.24-1.18-2.36-2.46-4.01-4.2-1.78,5.38-3.69,10.13-4.08,15.35-.27,3.48-.82,6.93-2.88,9.89-.72,1.04-1.64,2.01-3.08,1.9-1.92-.15-1.15-1.85-1.63-2.87-3.82-8.27-2.47-17.23-.3-24.95,2.43-8.67,3.06-18.86,11.22-25.27,3.88-3.04.47-6.8.55-10.14.03-1.15-3.64.14-5.51.76-1.32.43-2.19,1.35-1.06,2.88.44.6,1.11,1.15.64,2.51-3.24-3.98-5.84-1.63-8.54.63-3.7,3.1,1.17,4.8,1.13,7.36-1.62.44-2.05-1.12-2.97-1.77-.85-.61-2.49-.8-2.34-.24,1.33,5.01-8.58,2.78-5.56,8.79.32.64-.99.08-1.45.25-2.86,1.08-4.67,3.1-3.89,6.24.34,1.37.84,1.27-.93,1.81-4.61,1.41-7.12,8.24-4.84,13.1-2.37-.79-3.76-.28-4.5,2.08-1.21,3.83-.84,7.86-1.9,11.67-.46,1.66-.78,3.82-2.99,3.63-2.17-.19-2.28-2.29-2.35-4.07-.54-12.15,3.84-22.87,9.46-33.3,7.57-14.04,17.41-26.33,28.43-37.75,5.5-5.7,9.93-12.26,14.9-18.35,9.93-12.13,21.46-22.7,35.99-29.31,6.75-3.07,12.31-8.33,19.71-10.22,3.94-1.01,7.47-2.23,11.02,1.12,1.99,1.87,4.49,1.03,6.46-.66,3.94-3.37,8.04-4.3,12.45-.94,1.33,1.01,2.54,1.01,3.92.16,2.71-1.68,5.79-1.72,8.76-1.34,14.56,1.88,28.25,6.58,41.25,13.33,1.79.93,3.38,2.35,4.85,3.76,2.42,2.32,4.29,4.66,8.49,2.68,2.59-1.22,5.2,1.53,6.25,3.94,2.48,5.7,7.98,5.42,12.56,6.96,1.77.6,2.32-1.37,3.02-2.46,4.01-6.24,10.48-9.35,16.49-13,3.34-2.02,6.72-1.71,10.32,0,9.63,4.57,17.93,10.58,23.4,19.97.88,1.52,1.73,3.03,1.65,4.86-.35,6.86,2.27,13,4.67,19.18.64,1.63,1.2,4.71,3.33,3.6,2.15-1.12,5.4-1.48,6-5.11,2.04-12.33.63-24.59-.55-36.83-.49-5.02-1.62-9.89-.49-15,.57-2.49.1-5.21-.36-7.92-1.53,2.25-3.54,4.07-3.83,6.84-.19,1.77-.39,3.77-2.73,3.71-2.07-.06-3.84-1.57-4.06-3.44-.34-2.89-1.77-5.36-2.33-8.12-.71-3.52.93-5.31,3.96-3.81,4.27,2.12,4.89-.3,5.52-3.46,1.02-5.14,2.36-10.2,6.11-14.14,3.4-3.58,6.91-3.12,8.15,1.62,3.36,12.79,6.2,25.59,1.71,38.92-4.23,12.56-2.68,25.27.97,37.77.57,1.96,1.64,2.76,3.91,1.89,2.48-.96,5.15-1.47,7.77-2.02,5.87-1.22,7.27-2.5,7.05-8.39-.1-2.83.41-4.73,2.68-6.48,1.63-1.25,2.2-3.44,2.72-5.43,3.3-12.51,8.34-24.55,10.16-37.45.6-4.19,2.53-7.88,4.89-11.17,5.16-7.2,5.95-16.21,10.36-23.7,2.09-3.55,4.22-6.99,6.62-10.34,1.55-2.16,3.62-1.99,5.42-1.81,2.08.22,1.22,2.51,1.64,3.93,1.26,4.17.2,7.96-1.29,11.9-3.48,9.16-6.66,18.42-9.87,27.67-.9,2.6-2.28,4.84-4.07,6.88-10.3,11.74-14.62,25.55-14.44,41.01.05,3.55,1.19,5.38,4.95,5.11,2.2-.16,4.45.09,6.62-.2,1.86-.26,3.79-.87,4.32-3.13,2.28-9.98,9.26-16.91,15.45-24.48,8.61-10.51,16.49-21.61,23.7-33.14,4.4-7.04,8.18-14.74,14.76-19.85,10.48-8.13,17.9-19.31,28.55-27.24,3.53-2.63,8.26-3.27,11.2-7.34.98,1.35.21,4,3.11,3.75,1.66-.14,2.24,1.51,2.69,3.27,1.05,4.15,3.07,4.57,6.34,1.71,2.01-1.76,3.6-4.23,6.33-4.82,1.77-.38,4.34-1.84,3.32,2.83-.99,4.54-2.6,7.22-7.08,8.12-.61.12-1.4.31-1.71.74-3.9,5.33-8.19,4.25-12.62.85-2.24-1.71-3.86-.57-5.25,1.17-8.74,10.99-20.35,19.39-28.16,31.26-1.68,2.54-4.46,4.5-7.04,6.28-9.47,6.55-16.3,15.32-21.69,25.33-2.4,4.45-4.79,8.9-7.16,13.37-1.5,2.82-1.26,4.85,2.48,5.19.48.04,1.02.04,1.39.28,7.54,5.1,14.08,1.4,21.56-1.1,7.29-2.43,13.28-6.63,19.87-9.99,5.54-2.82,11.09-5.36,17.43-5.65,1.08-.05,2.33-.15,3.21-.69,11.07-6.78,23.41-9.05,36.04-10.26,1.69-.16,2.96-1.09,4.2-2.04,4.21-3.21,9.08-4.47,14.24-4.37,8.33.18,16.27-1.69,24.16-4,.61-.18,1.3-.55,1.83-.41,7.86,2.11,12.46-3.29,17.97-7.23,4.66-3.33,9.56-6.85,16.27-3.33,3.89,2.05,7.24-.75,9.43-4.25,3.71-5.96,9.15-9.62,15.59-12,.75-.28,1.39-.46,2.25-.26,6.94,1.56,9.97.15,12.39-6.24,2.84-7.54,9.8-11.18,15.07-16.4.92-.91,2.28-.7,3.6-.56,3.9.39,5.08-2.47,3.91-5.08-2.74-6.13-2.03-11.99-.07-17.96.97-2.97.35-4.42-3.01-5.2-6.98-1.62-12.45-6.63-19.1-9.14-4.81-1.82-9.23-4.43-14.62-.89-4.86,3.2-10.84,3.09-16.48,3.82-4.37.57-4.36.63-6.07,4.9-1.59-2.59-3.83-4.33-6.64-3.15-2.8,1.18-3.21,5.34-6.77,6.39.15-2.48,2.32-3.55,2.89-5.47q-2.68,0-6.51,5.8c-.89-1.11,0-2.01.14-2.92.38-2.38-.8-2.53-2.43-1.51-1.73,1.08-3.33,2.34-5.33,3.03-1.95.67-3.42.71-4.83-1.1-1.81-2.32,2.5-1.44,1.47-3.3-3-.46-5.93,1.54-9.39.49,4.36-.93,7.05-2.67,4.18-7.34,2.57-.48,4.31.83,6.17,1.54.91.35,1.87.87,2.68.22,1.08-.86.43-2.09.1-3.07-.62-1.85-2.1-3.11-3.35-4.54-1.53-1.74-3.2-3.48-2.77-7.01,3.5,5.21,7.18,9.26,11.93,12.28-1.01-1.31-2.03-2.62-3.13-4.05,2.91-1.11,4.9.63,7.6,1.18-1.86-2.58-3.72-5.15-5.57-7.73,3.01,1.37,5.65,3.19,8.98,4,.79-1.48-1.37-1.95-1.04-3.3,1.02-.98,1.59,1.24,2.95.48-1.96-2.1-3.85-4.12-5.73-6.13.18-.28.38-.55.57-.82,1.18.96,2.25,2.09,3.54,2.83,1.31.76,2.19,3.99,4.41,1.05,1.57-2.09,3.18-4.14.2-6.43-1.35-1.03-2.56-2.24-4.77-4.2,3.07.67,4.5,1.87,5.81,3.05,1.74,1.56,3.21,2.14,5.36.48,2.56-1.98.7-3.54-.4-5.75h0Z"/>
  </g>
</svg>