<?xml version="1.0" encoding="UTF-8"?>
<svg id="Layer_2" data-name="Layer 2" xmlns="http://www.w3.org/2000/svg" viewBox="0 0 654.5 482.29">
  <defs>
    <style>
      .cls-1 {
        fill:#808080
      }
    </style>
  </defs>
  <g id="Layer_1-2" data-name="Layer 1">
    <path class="cls-1" d="m651.12,17.68c-.48-1.41-1.16-2.8-1.76-4.1C643.92,3.17,633.62-.13,622.43,0c-9.04.12-17.96,1.88-26.83,3.17-11.8,1.8-23.42,4.47-34.57,8.42-6.38,2.21-12.52,4.76-18.47,7.7-18.68,9.28-36.14,20.45-53.52,31.92-5.61,3.71-10.93,9.09-16.82,12.07-12.43,8.76-24.63,17.81-36.09,27.76-5.22,4.52-10.22,9.2-15.11,14.08-6.62,6.79-13.03,13.74-19.58,20.62-10.27,10.96-20.33,22.58-27.53,35.85-5.17,9.5-6.94,19.59-9.11,30.03-1.98,9.61-3.87,19.42-7.85,28.45-1.06,2.44-3.22,7.84-6.09,8.53-3.5.75-4.23-3.71-3.89-6.35.6-4.78,5.8-10.85,2.13-15.53-1.6-2.18-4.76-1.95-6.55-4-1.26-1.38-1.72-3.24-2.83-4.74.99-2.49,1.98-5.04,3.07-7.4,3.43-7.76,7.69-15.2,10.61-23.11,4.54-11.94,9.76-23.99,16.63-34.47,12.52-19.15,22.72-39.64,30.19-61.34,1.5-4.26,2.83-8.64,3.26-13.16.29-2.36.1-7.87-3.14-3.88-1.74,2.38-1.62,5.93-1.91,8.7-.7,4.72-1.69,9.34-3,13.94-3.02,9.92-7.56,19.4-12.79,28.4-7.06,12.35-15.57,23.82-22.04,36.51-6.31,12.36-11.7,25.19-17.26,37.88-2.25,5.09-4.4,10.11-6.89,15.13-.12.12-.24.33-.27.52-.12.25-4.01,2.53-4.64,2.83-1.98,1.11-5.24,1.61-7.47.83-2.08-.75-3.43-3.68-5.8-3.66,0-.19-.2-.4-.29-.52-2.51-5.02-4.69-10.04-6.91-15.13-5.49-12.69-10.88-25.51-17.19-37.88-6.48-12.69-14.99-24.16-22.12-36.51-5.2-9-9.67-18.48-12.74-28.4-1.45-4.59-2.34-9.22-2.93-13.94-.43-2.77-.24-6.32-2.03-8.7-3.17-3.99-3.46,1.52-3.17,3.88.51,4.52,1.86,8.9,3.41,13.16,7.37,21.7,17.62,42.19,30.14,61.34,6.94,10.48,12.14,22.53,16.58,34.47,2.97,7.9,7.13,15.35,10.66,23.11,1.09,2.36,2.03,4.91,3.02,7.4-1.11,1.5-1.62,3.36-2.71,4.74-1.86,2.05-5.08,1.82-6.72,4-3.53,4.68,1.64,10.75,2.18,15.53.39,2.64-.39,7.1-3.79,6.35-2.97-.69-5.12-6.09-6.14-8.53-4.04-9.03-5.92-18.84-7.86-28.45-2.18-10.44-4.06-20.53-9.21-30.03-7.16-13.27-17.16-24.89-27.53-35.85-6.43-6.88-12.93-13.83-19.56-20.62-4.81-4.88-9.84-9.56-15.04-14.08-11.45-9.95-23.64-19-36.09-27.76-5.97-2.99-11.29-8.36-16.7-12.07-17.55-11.47-34.98-22.64-53.71-31.92-5.99-2.94-12.04-5.48-18.39-7.7-11.19-3.95-22.77-6.62-34.57-8.42C49.96,1.89,41.07.12,32,0,20.81-.13,10.56,3.17,5.1,13.59c-.73,1.29-1.3,2.68-1.71,4.1C.92,24.31,0,31.25,0,38.27c-.07,23,6.02,46.28,18.42,65.75,3.89,6.1,7.57,12.59,8.9,19.7,2.75,14.41.8,29.62,2.05,44.2.53,6.09,1.14,12.16,2.13,18.19,3.14,18.26,9.57,39.61,28.62,46.83,11.14,4.27,24.24,5.1,36.14,5.29,17.21.43,34.44-.83,51.75-.92-1.96.58-3.94,1.14-5.92,1.69-9.06,2.72-18.15,5.38-27.19,8.32-7.42,2.32-14.67,4.36-21.9,7.48-8.05,3.48-15.54,8.81-20.64,16.01-3.96,5.64-5.66,12.22-7.54,18.78-1.72,5.93-4.57,11.94-4.64,18.22,0,6.1,2.54,11.81,3.94,17.62,2.59,11.55.48,23.25,5.37,34.55,4.71,10.98,4.86,23.76,10.25,34.39,3.26,6.6,9.69,10.74,13.51,16.96,5.92,9.5-.05,32.28,14.62,34.8,4.74.83,9.55-.75,14.24.25,8.89,1.91,11.09,11.83,15.49,18.34,3.7,5.52,9.84,4.91,15.71,4.97,6.45.02,12.35,1.27,17.91,4.57,7.81,4.49,15.11,9.11,24.66,7.81,9.09-1.21,17.55-6.5,25-11.9,11.36-8.33,21.54-18.63,30.53-29.6,18.64-22.86,28.31-49.7,35.8-77.84,5.87-22.23,11.12-43.86,13.78-66.64.39-2.98,1.84-15.95,7.16-11.11,4.45,4.1,4.35,13.85,3.79,19.38-2.85,25.75,2.64,52.11,3.77,77.84.31,6.73-.31,13.83,2.49,20.15,2.37,5.21,10.52,6.72,14.94,3.71,6.96-4.72,5.32-16.68,5.66-23.86,1.01-25.73,6.6-52.09,3.82-77.84-.6-5.52-.75-15.28,3.75-19.38,5.34-4.85,6.75,8.12,7.06,11.11,2.75,22.78,8.02,44.42,13.95,66.64,7.4,28.15,17.14,54.99,35.75,77.84,9.02,10.97,19.24,21.27,30.6,29.6,7.28,5.4,15.74,10.7,24.85,11.9,9.62,1.31,16.85-3.32,24.75-7.81,5.58-3.3,11.46-4.54,17.84-4.57,5.88-.06,12.06.56,15.83-4.97,4.35-6.5,6.55-16.43,15.37-18.34,4.64-1,9.52.58,14.28-.25,14.67-2.52,8.53-25.3,14.58-34.8,3.82-6.21,10.25-10.36,13.58-16.96,5.3-10.62,5.42-23.41,10.22-34.39,4.88-11.3,2.66-23,5.39-34.55,1.35-5.81,3.89-11.52,3.84-17.62,0-6.28-2.85-12.29-4.57-18.22-1.91-6.56-3.6-13.14-7.61-18.78-5.08-7.2-12.5-12.53-20.64-16.01-7.16-3.12-14.5-5.16-21.9-7.48-8.97-2.94-18.03-5.6-27.19-8.32-1.93-.55-3.89-1.11-5.87-1.69,17.28.08,34.57,1.35,51.9.92,11.7-.19,24.8-1.03,35.94-5.29,19.1-7.23,25.48-28.57,28.6-46.83,1.04-6.03,1.64-12.1,2.2-18.19,1.33-14.57-.58-29.79,1.98-44.2,1.38-7.11,5.17-13.6,8.92-19.7,12.4-19.47,18.64-42.75,18.51-65.75,0-7.02-.94-13.96-3.38-20.58h0Z"/>
  </g>
</svg>