<?xml version="1.0" encoding="UTF-8"?>
<svg id="Layer_2" data-name="Layer 2" xmlns="http://www.w3.org/2000/svg" viewBox="0 0 654.5 652.08">
  <defs>
    <style>
      .cls-1 {
        fill:#808080
      }
    </style>
  </defs>
  <g id="Layer_1-2" data-name="Layer 1">
    <path class="cls-1" d="m451.04,323.71c39.78,33.34,75.9,63.89,112.57,94.01,13.11,11.11,28.45,1.78,42.67,2.33,14.22.56,30.78-1.44,48.23-2.56-18.89,24.11-84.23,35-105.12,20-4.33-3.11-8.45-6.56-12.89-9.22-17.22-10.33-34.34-27.67-52-28.34-20.34-.89-18.67,29-31,42.56-9.33,10.33-17.78,22.22-31.34,25.78-31.67,9-30.45,26-12.89,47.23,33.34,40.45,13.67,82.9,4,126.46-4.22-49.12,5.22-103.01-54.45-127.79-26.09,42.02-56.68,81.06-91.23,116.46-33.34,34.23-70.23,27-88.9-18.11-19.22-47.45-26.22-97.79-34.11-147.9-3-13.44-5.08-27.06-6.22-40.78,0-28.67-16.56-42.34-41.67-51.78-25.11-9.45-30.34,11.89-43.12,22.22-3.22,2.56-5,7-9.11,7.45,8.56-48.23,26.89-59.89,68.12-50,7.89,1.89,19.11,11.89,24-2.67,3.56-11.11,5.67-23.78-5.56-32.11-24.56-18.34-49.56-35.89-74.56-53.67-10.22-7.22-18,.89-25.89,5.33-11.11,6-20.67,11.11-30.56-.89q44.45-38.56,90.23-8.56c14,9.11,27.78,18.34,46.45,30.67-4.22-29.78-11.11-53.89-3.67-78.67,5.78-19.22-11.89-11.78-20-14.33-8.11-2.56-19.11-2.22-19.11-12.89s8.89-11.11,15.78-11.11c17.67,0,13.78-11.11,12.22-22.22-1-7-2.44-16,7.67-18,7.78-1.44,11.11,5.33,13,11.11,5.56,22.89,16.45,22.22,35.67,13.11,23.45-11.11,49.34-9.45,78.34-5.67-22.78-26.78-44.45-54.67-68.67-80.01-16.22-16.89-21.78-33-9.33-53,4.11-6.67,1.78-22.22,15.89-17.11,10.22,4.11,8.33,15.89,4,25.22-5.59,10.6-2.83,23.67,6.56,31.11,31.56,32.78,62.12,66.67,93.01,100.01,7.45,8.11,17.22,16.56,27.34,10.33,10.11-6.22.67-17.78-3.44-24.11-14.22-22.22-6.11-42.56,1.67-63.45,1.89-5.22,1.78-14.22,11.11-12.56,9.33,1.67,10.11,9.56,7.67,17.45-6.68,15.41-6.02,33.02,1.78,47.89,15.89,29.34,38.89,40.89,69.9,46.45,53.12,9.45,106.12,21,148.68,58.23,5.76,4.6,11.15,9.65,16.11,15.11,10.11,11.89,24.78,23.67,18.45,41.11-6.33,17.45-25,21-40.23,22.45-33.45,3.89-67.23,4.89-106.01,7.45Zm-158.24,118.23l-40.67-59.34-5.67,3.11,15.33,133.35c-30-49.56-38.23-105.34-59.01-166.68-11.11,72.45-16.56,135.12-6.22,198.24,2.62,16.7,8.19,32.81,16.45,47.56,7.22,12.78,13.67,15.45,26.78,4.89,43.04-32.89,74.23-78.87,88.9-131.01,15.11-55.01-16.11-119.68-68.9-136.12,19.67,32.03,31.02,68.47,33,106.01Zm12.22-212.91c62,46.09,138.53,68.3,215.58,62.56,15.22-1,39.23,1.78,41.78-13.45,3-17.56-17.45-30.23-33.89-37.23-56.85-26.01-118.72-39.21-181.24-38.67-11.68-.85-23.22,2.95-32.11,10.56l169.24,44.45c-62.01,1.11-119.57-20.22-179.35-28.22Zm80.23,64.89l-79.23-25.45c20.72,20.6,50.04,30.06,78.9,25.45h.33Z"/>
  </g>
</svg>