<?xml version="1.0" encoding="UTF-8"?>
<svg id="Layer_2" data-name="Layer 2" xmlns="http://www.w3.org/2000/svg" viewBox="0 0 654.5 460.3">
  <defs>
    <style>
      .cls-1 {
        fill:#808080
      }
    </style>
  </defs>
  <g id="Layer_1-2" data-name="Layer 1">
    <path class="cls-1" d="m654.03,25.9c-4.31-13.93-26.81-22.78-50.9-25.17-29.61-2.97-67.49,3.2-100.44,16.87-25.03,10.38-48.22,23.3-72.05,42.06-37.48,29.45-57.34,53.17-67.38,66.41-8.12,10.7-9.84,22.91-17.29,28.53-.38-2.82.63-10.25-4.22-13.07-1.43-.83-3.03-1.78-4.64-2.72,1.82-7.49,11.2-43.41,26.24-64.03,18.27-25.09,38.7-39.45,41.36-41.11,3.23-2.04,6.66-2.19,8.91-3.61,1.71-1.05,2.84-5.73,1.91-6.24-3.47-1.89-7.32,2.21-9.73,4.82-2.54,2.77-29.03,20.92-45.24,44.55-15.16,22.07-24.7,57.36-26.42,63.99-2.84-1.52-5.45-2.69-6.91-2.69-1.31,0-3.56.95-6.02,2.21-1.99-7.68-11.49-42.21-26.29-63.84-16.22-23.62-42.72-41.46-45.26-44.23-2.38-2.61-6.24-6.71-9.7-4.82-.98.52.18,5.19,1.88,6.24,2.27,1.42,5.68,1.57,8.92,3.61,2.65,1.65,23.08,15.7,41.35,40.77,14.73,20.19,24.01,55.31,26.14,63.85-1.92,1.1-3.88,2.25-5.57,3.23-4.8,2.82-3.82,10.25-4.21,13.07-6.71-3.61-12.13-19.31-21.96-33.88-10.45-15.55-25.2-31.62-62.65-61.07-23.88-18.75-47.05-31.68-72.07-42.06C118.88,3.93,80.99-2.24,51.38.73,27.26,3.13,4.73,11.98.47,25.9c-3.31,10.79,11.49,44.29,25.18,63.75,10.18,14.46,12.31,31.18,16.07,47.68,5.37,23.57,15.08,58.74,41.81,67.49,24.48,8.04,72.32-6.42,72.32-6.42,0,0,1.03,8.57-15.02,15-16.72,6.69-25.73,17.13-35.36,35.35-8.63,16.34-15.52,38.25-15.52,47.92,0,15,3.75,20.36,3.19,27.32-.65,8.61,2.41,17.13,8.33,23.56,6.63,7.27,3.99,13.66,6.96,21.69,2.67,7.27,13.11,13.13,13.11,13.13,0,0-1.18,16.44,10.72,27.32,9.62,8.84,20.51,14.6,27.59,20.88,7.2,6.44,12.59,11.54,28.11,14.46,8.93,1.72,14.46,16.26,33.21,15.2,20.34-1.17,20.28-.34,33.24-5.64,20.85-8.55,30.2-48.96,39.08-87.98,6.99-30.55,12.32-49.51,21.57-55.92-2.62,17.87,1.29,47.6,1.29,47.6,0,0-2.84,15.25-.23,17.88-1.2,7.84,1.23,18.56,2.55,18.29.55,6.41,3.88,18.06,8.58,18.06s8.04-11.65,8.56-18.06c1.35.27,3.75-10.45,2.56-18.29,2.61-2.63-.22-17.88-.22-17.88,0,0,3.61-27.9,1.2-47.99,8.25,4.2,14.67,25.76,21.63,56.31,8.92,39.02,18.24,79.43,39.12,87.98,12.92,5.3,12.89-.08,33.21,1.09,18.75,1.06,24.27-16.68,33.21-18.35,15.55-2.95,20.91-8.03,28.13-14.47,7.1-6.29,17.94-12.04,27.6-20.88,11.86-10.89,10.69-27.33,10.69-27.33,0,0,10.5-5.88,13.16-13.12,2.91-8.03.28-14.43,6.93-21.7,5.9-6.42,8.98-14.95,8.3-23.56-.53-6.97,3.25-12.32,3.25-27.31,0-9.68-6.91-23.85-15.57-40.2-9.64-18.22-18.62-28.66-35.34-35.35-16.07-6.43-14.99-15-14.99-15,0,0,47.77,14.46,72.33,6.42,26.68-8.75,36.42-43.92,41.77-67.49,3.76-16.5,5.9-33.22,16.08-47.68,13.68-19.46,28.49-52.95,25.17-63.75"/>
  </g>
</svg>