<?xml version="1.0" encoding="UTF-8"?>
<svg id="Layer_2" data-name="Layer 2" xmlns="http://www.w3.org/2000/svg" viewBox="0 0 444.64 654.5">
  <defs>
    <style>
      .cls-1 {
        fill:#808080
      }
    </style>
  </defs>
  <g id="Layer_1-2" data-name="Layer 1">
    <path class="cls-1" d="m.71,443.15c4.21-11.13,25.68-15.72,34.97-21.5,18.14-11.13,34.5-24.8,51.91-36.94,16.46-11.47,33.89-17.99,52.56-25,12.92-4.85,20.89-6.91,28.47,6.72,5.14,9.13,7.84,21.32,18.25,26.16,1.46.66,10.68,1.26,10.68,0v-23.05c-21.45-11.95-28.44-34.05-34.76-56.56-4.09-14.43-11.56-25.88-18.49-38.95-15.91-29.57-27.78-61.03-43.67-90.56-1.86-3.44-8.43-11.13-6.15-15.46,2.34-4.38,6.46-1.49,9.32,1.19,5.49,5.03,8.77,13.03,11.54,19.68,6.34,15.44,9.45,32.12,17.65,46.69,7.72,13.81,17.56,26.43,23.82,41.12,5.18,11.66,12.64,22.28,17.09,34.34,4.02,10.48,4.49,22.6,10,32.6,4.29,7.87,13.65,14.39,13.65,14.39-5.3-3.63-7.19-15.33-9.14-21.17-3.96-11.96-5.71-24.67-4.17-37.36,1.67-15.2,11.27-27.27,17.51-40.84-9.37-1.42-8.21.6-16.07,3.08-17.37,5.42-26.85-12.3-29.95-25.6-3.22-14.73-1.61-29.87-1.35-44.71.22-14.98,2.26-29.78,5.02-44.44.37-2.41-26.32-2.04-28.71-1.52-16.02,3-36.47,9.36-35.06-13.88.99-14.84,8.81-28.42,13.9-42.07,10.38-27.19,14.5-50.98,16.72-79.4.45-5.97,3.21-16.02,7.36-5.62,2.31,6.04-.52,15.44-1.18,21.78-2.68,25.28-10.48,46.82-18.79,70.5-1,2.82-12.86,30.72-11.2,32.15,15.89,8.37,29.71,5.44,46.09,8.14,7.41,1.21,17.23,3.35,21.82-4.4,5.75-9.41,7.47-15.69,16.96-22.21,2.46-1.74,9.86-7.36,13-5.8,7.06,3.63-5.75,10.44-7.58,13.01-2.38,3.21-1.07,8.56-3.78,11.26,8.37-8.33,23.11-6.43,33.91-6.54,10.46-.05,23.91-.78,32.57,6.29-3.05-2.52-3.6-9.91-6.27-13.37-2-2.48-11.13-7.45-4.91-10.65,3.16-1.56,10.54,4.06,13.1,5.8,9.37,6.52,11.26,12.8,16.87,22.21,4.67,7.75,14.4,5.6,21.82,4.4,16.44-2.69,30.17.23,46.12-8.14,1.67-1.44-10.24-29.34-11.16-32.15-8.35-23.68-16.19-45.22-18.87-70.5-.74-6.35-3.44-15.74-1.1-21.78,4.06-10.41,6.81-.36,7.36,5.62,2.22,28.42,6.42,52.2,16.64,79.4,5.11,13.65,12.89,27.23,13.84,42.07,1.52,23.24-18.91,16.87-34.92,13.88-2.4-.51-29.18-.89-28.8,1.52,2.76,14.66,4.79,29.46,5,44.44.28,14.84,2.04,29.98-1.38,44.71-3.04,13.29-12.53,31.02-29.84,25.6-7.84-2.48-6.73-4.5-16.22-3.08,6.36,13.58,16.03,25.65,17.76,40.84,1.4,12.69-.34,25.4-4.29,37.36-1.97,5.83-3.92,17.53-9.17,21.17,0,0,9.43-6.52,13.68-14.39,5.53-10,5.96-22.12,9.98-32.6,4.49-12.06,11.9-22.67,17.01-34.34,6.34-14.7,16.07-27.32,23.93-41.12,8.33-14.57,11.27-31.25,17.65-46.69,2.85-6.65,6.14-14.64,11.52-19.68,2.84-2.68,6.97-5.57,9.29-1.19,2.39,4.33-4.27,12.02-6.16,15.46-15.85,29.53-27.65,61-43.58,90.56-7.06,13.06-14.43,24.52-18.53,38.95-6.28,22.51-13.19,44.62-34.79,56.56v23.05c0,1.26,9.31.66,10.69,0,10.42-4.84,13.11-17.03,18.33-26.16,7.58-13.63,15.5-11.58,28.44-6.72,18.55,7,36.22,13.53,52.55,25,17.37,12.14,33.8,25.81,51.85,36.94,9.32,5.78,30.86,10.37,35.01,21.5,5.34,14.59-19.92-4.15-23.22-6.63-21.52-16.04-43.51-32.37-68.54-42.67-19.73-8.21-41-24.07-62.62-25.74,5.61.43-3.41,26.43-5.69,28.98-9.73,11.08-27.49,6.38-40.15,6.31-.73,11.17,3.35,22.62,6.98,33.11-1.47-4.43,19.58-20.03,23-21.5,5.65-2.43,13.65-3.78,19.62-1.61,13.08,4.82,17.25,22.11,20.17,34.09,5.96,23.19,17.58,44.71,20.22,68.67,3.99,35.66-1.52,71.03,4.27,106.7,1.01,5.97,8.54,25.03,2.5,29.87-10.91,8.88-12.54-18.35-12.37-23.17,1.01-27.19,2.86-54.63.49-81.91-1.95-23.4-9.79-45.51-16.99-67.73-4.94-15.23-5.11-40.81-20.66-49.83,4.1,2.41-21.17,25.26-25.06,26.59.45-.16,10.06,30.3,10.8,32.83,11.21,36.6,15.8,92.34-13.39,122.35-8.31,8.55-25.52,16.27-37.53,16.27-52.1-.12-66.12-59.42-64-101.17.71-12.34,2.58-25.58,6.23-37.46.74-2.45,10.34-32.99,10.85-32.83-3.94-1.33-29.05-24.18-25.09-26.59-15.52,9.02-15.8,34.6-20.62,49.83-7.32,22.23-15.1,44.33-17.07,67.73-2.28,27.28-.5,54.72.5,81.91.25,4.82-1.32,32.05-12.25,23.17-6.1-4.84,1.4-23.9,2.47-29.87,5.72-35.66.2-71.03,4.17-106.7,2.73-23.97,14.33-45.49,20.22-68.67,2.97-11.98,7.06-29.27,20.18-34.09,5.89-2.16,14.02-.82,19.69,1.61,3.44,1.47,24.53,17.07,22.94,21.5,3.68-10.49,7.75-21.95,7.01-33.11-12.61.07-30.42,4.77-40.15-6.31-2.22-2.55-11.4-28.56-5.8-28.98-21.6,1.67-42.79,17.53-62.54,25.74-24.98,10.3-47.02,26.63-68.48,42.67-3.21,2.48-28.5,21.22-23.27,6.63h0Z"/>
  </g>
</svg>