<?xml version="1.0" encoding="UTF-8"?>
<svg id="Layer_2" data-name="Layer 2" xmlns="http://www.w3.org/2000/svg" viewBox="0 0 654.5 524.07">
  <defs>
    <style>
      .cls-1 {
        fill:#808080
      }
    </style>
  </defs>
  <g id="Layer_1-2" data-name="Layer 1">
    <path class="cls-1" d="m1.35,171.26c2.52,9.4,11.03,14.77,19.22,18.8,8.53,4.21,17.41,7.65,26.2,11.28,12.75,5.3,26.01,8.76,39.9,8.57,6.63-.06,13.35.86,19.82,2.54,16.74,4.38,33.96,6.09,51.15,6.65,25.06.86,48.14-2.8,71.94-10.41,13.29-4.29,26.46-8.37,39.36-13.87-1.9,4.89-5.17,8.74-7.2,13.46-2.47,5.51-4.93,10.9-6.09,16.81,0,0-.28,1.09.49,1.61.87.55,3.58.55,3.8-.81,2.35-11.88,9.17-22.86,14.35-33.74.47-1.09,6.82-2.28,7.97-2.69,3.4-1.17,6.68-2.56,9.72-4.4,5.75-3.48,10.23-9.96,7.47-16.88-.37-.94-1.65-2.18-1.65-3.23,0-1.41,2.17-3.76,2.95-5.04,3.49-5.26,6.07-11.94,10.21-16.63.43-.53,2.12,5.71,2.25,6.05,1.12,5.56,2.39,10.34,5.02,15.43,3.4,6.64,1.66,14.04.71,21.07-.71,5.22-1.46,10.6-1.86,15.9-.25,4.6,1.53,8.55,2.03,13.04,1.17,9.81-.86,20.66-2.35,30.32-1.1,6.48-.28,10,2,16.16,1.63,4.91.91,10.74.56,15.81-.22,5.83-.78,11.62-1.21,17.33-.19,3.27-.64,6.48-.19,9.72.4,2.97,2,5.55,2.17,8.55.3,3.68-.08,7.29-.38,10.96-.32,6.11.22,12.31-.5,18.4-.6,4.59-1.29,9.23-.99,13.85.32,4.55,1.49,9.04,1.45,13.72-.2,4.89-1.19,9.68-1.56,14.51-.4,5.45-.94,10.92-1.03,16.36-.12,6.28.63,12.57.85,18.93.19,5.94-.97,12.11.02,17.93.85,4.51.82,8.14.3,12.72-.69,7.11,1.25,14.55-.88,21.52-.73,2.24-1.59,4.59-1.7,6.99-.17,2.58.82,5.09,1.12,7.67.18,2.75-.49,5.6.26,8.38,1.2,5.02,2.28,9.44,1.98,14.58-.08,4.92-.78,12.73,5.06,14.49,3.35.96,8.9.15,10.45-3.51,1.3-3.4,1.08-7.33.95-10.98-.17-5.15.82-9.57,2.07-14.58.67-2.78.07-5.64.3-8.38.2-2.58,1.36-5.09,1.16-7.67-.17-2.41-1.1-4.76-1.79-6.99-2.18-6.97-.2-14.42-.88-21.52-.52-4.59-.52-8.21.25-12.72,1.02-5.83-.1-11.99.07-17.93.2-6.35.88-12.65.8-18.93-.08-5.43-.6-10.9-.97-16.36-.32-4.83-1.4-9.62-1.57-14.51-.18-4.68,1.14-9.17,1.42-13.72.35-4.62-.43-9.27-.9-13.85-.76-6.09-.18-12.29-.7-18.4-.15-3.67-.53-7.28-.32-10.96.25-3.01,1.75-5.58,2.24-8.55.56-3.23,0-6.45-.17-9.72-.43-5.71-1.02-11.5-1.23-17.33-.34-5.07-1.14-10.9.6-15.81,2.18-6.16,3.11-9.68,2.05-16.16-1.57-9.66-3.55-20.51-2.43-30.32.56-4.49,2.37-8.44,1.98-13.04-.3-5.3-1.03-10.68-1.78-15.9-.95-7.03-2.72-14.44.67-21.07,2.67-5.1,3.88-9.87,5.12-15.43.09-.34,1.77-6.58,2.16-6.05,4.15,4.7,6.72,11.37,10.1,16.63.9,1.28,3.06,3.63,3.06,5.04,0,1.05-1.36,2.3-1.7,3.23-2.72,6.92,1.79,13.4,7.52,16.88,3.04,1.84,6.38,3.23,9.63,4.4,1.25.41,7.54,1.6,8.1,2.69,5.13,10.88,11.98,21.86,14.32,33.74.26,1.36,2.93,1.36,3.69.81.82-.52.6-1.61.6-1.61-1.17-5.9-3.6-11.3-6.08-16.81-2.07-4.72-5.34-8.57-7.24-13.46,12.97,5.51,25.94,9.59,39.29,13.87,23.9,7.61,46.97,11.28,71.96,10.41,17.22-.56,34.54-2.28,51.14-6.65,6.47-1.67,13.19-2.59,19.89-2.54,13.9.19,27.09-3.27,39.89-8.57,8.81-3.63,17.73-7.07,26.24-11.28,8.07-4.02,16.63-9.4,19.13-18.8,1.64-6.47,2.03-13.4-.3-19.78-2.02-5.75-6.94-9.08-11.64-12.61-3.64-2.78-7.41-5.32-11.8-6.67-7.82-2.36-16.07-2.85-24.15-3.49-11.97-1.07-24.09-.88-36.19-1.07-34.26-.58-68.71,4.26-102.87-.51-14.16-2.01-28.22-5-42.39-6.86-6.81-.96-13.74-.55-20.53-1.11-10.82-1.09-21.65-1.62-32.54-1.86-10.1-.3-20.51-.98-29.56-5.98-4.1-2.31-2.09-6.35,1.85-6.82,4.18-.56,8.34,2.05,11.98,3.78,4,1.8,8.02,3.51,12.41,4.02,9.27,1.03,18.57.09,27.9.56,26.46,1.35,53.11,4.53,79.65,3.16,25.99-1.26,51.34-7.31,76.42-14.1,18.75-5.13,36.24-14.06,52.61-24.5,17.13-10.93,37.94-20.99,46.28-40.74,3.87-9.29.4-21.49-6.55-28.44-6.7-6.73-15.82-7.67-24.87-8.15-11.09-.55-22.34,1.18-33.03,4.11-10,2.74-19.17,7.72-28.66,11.87-22.77,10.04-45.46,20.34-69.14,28.09-14.09,4.7-28.89,6.3-43.11,10.26-9.02,2.47-17.49,6.59-26.69,8.57-6.03,1.33-12.09,2.93-17.97,4.5,4.57-1.27,8.68-6.35,12.17-9.52,4.12-3.6,8.5-7.07,13.52-9.37,1.78-.88,16.84-1.17,12.97-5.52-1.53-1.63-4.25-.78-5.95-.39-4.37,1.16-8.17,3.27-12.04,5.36-4.76,2.55-9.74,4.77-14.18,7.95-5.62,4.2-9.74,10.22-15.72,14.05-5.09,3.34-11.27,4.37-17,6.12-7.3,2.2-14.15,5.65-21.27,8.49-2.37,1.03-8.72,1.77-10.49,3.58,0-.07,1.85-1.85,1.85-1.85l2.7-3.23c2.69-2.43,5.23-5.28,8.52-6.98,2.89-1.42,6.36-2.09,7.85-5.21,1.34-2.8.58-6.2,1.68-9.09,3.49-9.5,7.19-18.98,10.32-28.64,1.7-5.12,2.73-10.72,6.72-14.72,3.47-3.44,11.87-7.45,13.12-12.47-3.32-1.95-6.12,1.49-8.49,3.43-2.76,2.37-5.35,4.9-7.26,8.03-2.75,4.35-4.16,9.32-5.4,14.19-1.7,6.03-4.44,11.73-6.47,17.65-2.07,5.62-2.07,12.82-4.85,17.99-1.62,2.97-3.96,3.17-7,4.14-2.95.95-4.89,2.85-7.19,4.78-.11-.82-1.98-7.32-3.02-7.39,8.87.28,20.21-8.17,13.48-17.69-3.1-4.4-16.77-6.83-14.18-14.15.56-1.36,8.73-8.98,9.83-7.83-5.28-5.86-12.42,6.43-12.72,6.13-7.99-7.46-21.02-7.28-28.99,0-.35.3-7.48-11.98-12.78-6.13,1.08-1.16,9.2,6.47,9.8,7.83,2.63,7.32-11.03,9.75-14.07,14.15-6.74,9.52,4.6,17.97,13.47,17.69-1.1.06-2.93,6.57-3.1,7.39-2.25-1.94-4.25-3.83-7.2-4.78-2.97-.97-5.32-1.17-6.95-4.14-2.83-5.17-2.76-12.37-4.8-17.99-2.11-5.92-4.78-11.62-6.45-17.65-1.35-4.87-2.72-9.84-5.45-14.19-1.96-3.13-4.5-5.67-7.32-8.03-2.33-1.95-5.11-5.39-8.52-3.43,1.27,5.02,9.67,9.03,13.21,12.47,3.93,3.99,5,9.59,6.7,14.72,3.08,9.65,6.79,19.13,10.28,28.64,1.14,2.89.37,6.29,1.77,9.09,1.47,3.13,4.95,3.8,7.8,5.21,3.29,1.7,5.84,4.55,8.55,6.98l2.69,3.23s1.86,1.79,1.86,1.85c-1.79-1.81-8.06-2.55-10.56-3.58-7.04-2.84-13.89-6.29-21.2-8.49-5.79-1.75-11.91-2.78-17.08-6.12-5.93-3.83-9.98-9.85-15.73-14.05-4.37-3.18-9.35-5.4-14.15-7.95-3.88-2.08-7.67-4.2-12-5.36-1.77-.39-4.4-1.25-5.97.39-3.88,4.35,11.22,4.63,12.97,5.52,5,2.3,9.35,5.77,13.49,9.37,3.45,3.16,7.63,8.25,12.28,9.52-5.99-1.57-12-3.17-18.03-4.5-9.17-1.98-17.64-6.1-26.69-8.57-14.27-3.96-28.98-5.56-43.11-10.26-23.7-7.75-46.34-18.05-69.11-28.09-9.48-4.16-18.66-9.14-28.72-11.87C58.01,1.29,46.77-.45,35.6.1c-9,.48-18.14,1.42-24.79,8.15C3.8,15.2.27,27.4,4.17,36.69c8.45,19.75,29.28,29.81,46.31,40.74,16.44,10.44,33.87,19.37,52.68,24.5,25.01,6.79,50.38,12.84,76.35,14.1,26.63,1.37,53.19-1.8,79.76-3.16,9.29-.47,18.55.47,27.88-.56,4.38-.51,8.34-2.22,12.3-4.02,3.75-1.73,7.82-4.34,12.05-3.78,3.98.47,6.03,4.51,1.87,6.82-9.09,5-19.54,5.68-29.54,5.98-10.9.24-21.67.77-32.56,1.86-6.85.56-13.79.15-20.53,1.11-14.25,1.86-28.22,4.85-42.47,6.86-34.04,4.76-68.6-.08-102.77.51-12.06.19-24.17,0-36.26,1.07-8.1.64-16.35,1.13-24.17,3.49-4.37,1.35-8.1,3.89-11.79,6.67-4.65,3.53-9.54,6.86-11.59,12.61-2.28,6.37-2.11,13.31-.35,19.78h0Zm343.19-43.85c1.23,2.09,3.71,2.46,5.45,3.89,1.51,1.21,2.76,3.15,3.36,4.99,1.83,4.68,1.81,10.02,2.8,14.96.43,2.07.6,5.86,1.77,7.67-6.5-10.06-11.68-19.55-13.38-31.51h0Zm-47.83,31.51c1.15-1.8,1.23-5.6,1.62-7.67,1.08-4.94,1.02-10.28,2.87-14.96.6-1.84,1.87-3.78,3.42-4.99,1.73-1.43,4.2-1.81,5.48-3.89-1.75,11.97-6.98,21.46-13.38,31.51h0Z"/>
  </g>
</svg>