<?xml version="1.0" encoding="UTF-8"?>
<svg id="Layer_2" data-name="Layer 2" xmlns="http://www.w3.org/2000/svg" viewBox="0 0 654.5 544.47">
  <defs>
    <style>
      .cls-1 {
        fill:#808080
      }
    </style>
  </defs>
  <g id="Layer_1-2" data-name="Layer 1">
    <path class="cls-1" d="m568.81,273.91c-61.63-4.99-95.63-11.01-95.63-11.01-50.92-8.41-93.53-20.65-103.53-23.89-6.07-1.98-11.99-5.7-15.74-8.29.56-2.27,1.03-4.64,1.32-7.04,6.42,1.91,13.5,5.58,15.81,7.25,29.48,21.6,79.81,20.61,111.38-.68,33.54-22.66,51.8-46.66,58.11-49.54,6.29-2.9,56.71-44.41,79.72-79.82,24.73-38.05,39.79-77.88,32.34-91.3-14.26-25.68-47.7,6.61-68.47,22.84-38.23,29.82-80.08,67.44-80.08,67.44-48.4,24.49-122.19,90.93-133.44,98.08-5.04,3.23-10.65,5.12-15.36,6.25.09-5.37-2.37-10.1-8.16-12.34-1.19-2.52-1.87-7.19-.48-8.24,14.95-11.4,6.21-29.53-1.78-31.13-6.8-1.37-10.98-5.14-6.43-10.99,0,0-3.68,3.11-5.59,5.99,0,0-4.02.94-5.46,4.77,0,0-1.74-2.27-4.04-3.83-1.43-.94-5.69-7.14-5.69-7.14,4.52,5.9-1.29,9.84-8.1,11.21-8.15,1.64-16.41,18.31-2.86,32.57.84,1.05-.42,5.7.62,6.8-5.77,2.24-8.22,6.92-8.17,12.26-4.64-1.12-10.11-3.03-15.01-6.17-11.25-7.15-85.06-73.59-133.46-98.08,0,0-41.85-37.62-80.04-67.44C49.79,16.19,16.34-16.1,2.07,9.58c-7.45,13.42,5.73,55.15,30.44,93.21,23.01,35.43,75.31,75.02,81.63,77.92,6.29,2.89,24.53,26.89,58.12,49.54,31.54,21.29,81.84,22.28,111.37.68,2.42-1.79,10.29-5.85,16.96-7.56.39,2.1.77,4.29,1.3,6.51-3.6,2.6-10.11,6.92-16.89,9.13-10.01,3.25-52.58,15.49-103.53,23.89,0,0-34,6.02-95.63,11.01-20.54,1.66-62.92-1.29-76.7,21.99-8.7,14.68,12.88,22.34,57.6,33.26,63.77,15.48,131.48,6.28,136.36,3.8,4.86-2.46,32.17-4.66,62.04-15.51,36.53-13.28,36.33-33.01,43.79-69.59,5.2,6.02,13.4,5.67,13.4,5.67-10.99,8.53-14.22,22.34-12.13,32.8,7.06,35.28,6.42,129.28,6.42,138.37,0,10.29,2.85,62.8,2.85,62.8-5.69,14.24-4.55,21.38-3.11,35.62,1.43,14.3,5.11,21.36,10.8,21.36s9.43-11.35,10.87-22.8c2.86-5.67,4.28-17.08-1.44-35.62,0,0,2.85-53.92,2.85-64.23,0-16.88-.07-93.25,4.29-138.37,1.91-19.86-11.42-29.94-11.42-29.94,0,0,2.86,1.44,9.99-2.86,1.19-.69,2.33-1.68,3.42-2.83,7.46,36.6,7.24,56.34,43.76,69.62,29.89,10.85,57.21,13.06,62.08,15.51,4.85,2.48,72.56,11.68,136.36-3.8,44.67-10.92,66.28-18.58,57.59-33.26-13.79-23.28-56.18-20.33-76.71-21.99"/>
  </g>
</svg>