<?xml version="1.0" encoding="UTF-8"?>
<svg id="Layer_2" data-name="Layer 2" xmlns="http://www.w3.org/2000/svg" viewBox="0 0 413.89 654.5">
  <defs>
    <style>
      .cls-1 {
        fill:#808080
      }
    </style>
  </defs>
  <g id="Layer_1-2" data-name="Layer 1">
    <path class="cls-1" d="m155.29,336.93c-7.35-5.19-16.16-7.45-24.11-11.45-8.53-4.32-16.58-9.74-24.61-14.87-11.22-7.25-18.46-10.07-24.12-22.86-5.2-11.84-19.98-10.11-30.57-10.99-9.04-.81-19.87,4.6-28.21-.55l-5.56-9.44-6.09-11.05c-3.48,0-17.38-.03-9.79-6.63,2.89-2.52,7.16-1.09,10.36-.04,5.04,1.66,8.04,5.49,11.38,9.54,1.44,1.78,5.32,8.77,7.43,9.26,7.6,1.94,12.11-1.59,19.92-.95,12.82.95,27.46-5.56,39.63.55,19.17,9.54,31.54,26.95,46.18,41.93,2.19,2.19,13.19,15.79,15.41,15.53,12.05-1.57,23.06-16.49,13.75-27.26-4.15-4.69-5.38-11.08-8.68-16.34-3.38-5.26-8.41-9.23-11.18-14.78-7.8-15.47-8.41-33.59-11.69-50.24-3.49-18.19-8.51-36.89-9.15-55.39-.19-4.85,0-9.75,1.17-14.52.16-1.18,3.86-9.81,3.64-10.16-.05-.14-22.67-34.35-22.67-34.35-11.17-18.43-19.05-36.59-24.86-57.51-1.72-5.91-3.18-11.96-4.63-17.94-1.86-7.04-6.83-13.76-7.52-21.08-.94-9.49,7.76-4.68,9.61,1.5,1.98,6.72-.2,14.08,1.55,20.8,2.74,10.44,7.48,21.38,11,31.61,3.68,10.72,7.85,21.59,14.28,30.99,8.75,12.89,17.63,25.54,26.55,38.23,6.69-4.43,4.6-5.27,5.7-12.03,2.63-14.36,5.04-28.79,7.6-43.2,2.3-12.97,7.15-24.58,12.11-36.71,1.78-4.16,7.24-20.67,12.58-10.39,1.8,3.69.06,5.89-.57,9.79-.67,5.98-1.58,11.96-2.04,17.99-1.27,15.4,2.67,30.04,3.28,45.41.3,5.63-2.03,15.17,2.38,19.65,5.71,5.8,21.66,1.92,28.9,1.92,8.7,0,17.29,2.24,26,1.23,14.32-1.66,11.34-11.17,11.81-22.81.71-15.37,4.57-29.97,3.32-45.41-.45-6.03-1.31-12.01-2.13-17.99-.55-3.9-2.16-6.1-.42-9.79,5.2-10.29,10.78,6.23,12.44,10.39,5.01,12.14,9.87,23.75,12.19,36.71,2.59,14.41,5.02,28.84,7.52,43.2,1.23,6.76-.93,7.6,5.72,12.03,8.98-12.69,17.81-25.33,26.59-38.23,6.51-9.4,10.62-20.27,14.36-30.99,3.44-10.23,8.29-21.17,10.94-31.61,1.76-6.72-.36-14.08,1.56-20.8,1.86-6.17,10.53-10.99,9.62-1.5-.67,7.32-5.66,14.04-7.48,21.08-1.44,5.98-3.03,12.03-4.72,17.94-5.84,20.92-13.66,39.08-24.89,57.51,0,0-22.5,34.21-22.58,34.35-.27.35,3.41,8.98,3.7,10.16,1.06,4.76,1.36,9.67,1.09,14.52-.64,18.5-5.66,37.21-9.14,55.39-3.27,16.65-3.86,34.77-11.64,50.24-2.96,5.56-7.83,9.53-11.17,14.78-3.39,5.26-4.52,11.64-8.76,16.34-9.25,10.76,1.72,25.69,13.78,27.26,2.24.26,13.18-13.34,15.37-15.53,14.68-14.98,26.97-32.39,46.25-41.93,12.15-6.11,26.71.4,39.59-.55,7.74-.64,12.31,2.89,19.96.95,2.06-.49,5.95-7.48,7.4-9.26,3.35-4.06,6.31-7.89,11.44-9.54,3.11-1.06,7.4-2.49,10.27.04,7.6,6.6-6.24,6.63-9.76,6.63l-6.13,11.05-5.52,9.44c-8.34,5.15-19.15-.26-28.21.55-10.61.88-25.43-.85-30.59,10.99-5.65,12.79-12.88,15.61-24.08,22.86-8.13,5.13-16.1,10.55-24.65,14.87-7.87,4-16.8,6.26-24.08,11.45-6.68,4.73-8.25,6.44-16.6,5.12-1.8-.34,4.23,15.15,5.29,16.56,3.99,5.13,10.62,13.34,17.82,9.51,7.28-3.88,3.19-13.95,12.66-17.46,8.34-3.18,23.54-3.86,32.31-1.87,6.8,1.57,12.08,6.58,18.75,8.33,7.56,1.96,15.4-1.8,22.22,3.32,13.1,9.86,21.9,21.15,40.22,20.87,2.93-.03,6.31-2.61,9.15-.81,5.85,3.56-.49,7.97-4.69,7.97-5.58,0-11.32.79-16.84-.14-5.65-.92-10.05-4.85-15.31-6.93-5.24-2.03-10.89-2.59-16.24-4.34-7.09-2.29-14.69-4.64-22.24-4.16-5.93.44-10.95,3.41-16.44,5.12-6.19,1.96-12.42,2.05-18.74,2.29-14.91.39-30.05-.09-44.71,3.24.86,9.03,7.89,28.46,15.27,34.37,2.61,2.1,6.82,2.54,8.96,5.26,4.68,6.74,2.38,13.02,9.83,18.56,8.15,6.3,16.41,12.65,22.09,21.31,6.71,10.07,8.82,22.3,15.07,32.67,7.12,11.89,4.85,23.34,8.05,35.94,1.01,3.76,3.94,7.87,5.64,11.41,4.49,9.51,15.8,12.37,24.31,16.95,12.72,6.91,22.75,18.84,23.23,34.22.1,6.18,2.91,12.33,3.49,18.31-2.26.78-6.84,1.55-9.06.19-3.86-2.26-6.59-7.83-7.14-12.19-1.09-9.07.28-19.97-7.12-26.85-8.26-7.57-21.29-8.03-29.88-15.63-5.16-4.6-7.32-11.34-11.26-16.94-4.59-6.74-10.62-7.39-16.76-12.23-23.21-18.38-21.82-47.42-32.8-72.24-3.62-8.36-8.61-8.87-15.85-12.32,3.03,11.84,4.33,24.5,7.42,36.17,2.05,7.46,6.62,13.94,8.51,21.48,2.83,10.89,3.04,22.99.63,33.98-1.3,5.93-4.21,11.4-5.2,17.44-1.29,8.77-.83,17.38-2.77,26.15-1.37,6.81-1.19,14.29-5.12,20.27-5.26,8.04-22.38,24.31-15.57,35.63,1.24,1.94,4.85,3.67,6.51,5.26,7.89,7.39,4.45,17.84-5.49,7.6-3.24-3.32-5.36-4.13-9.85-5.87-.34-.07-13.97,10.34-16.4,11.03-11.99,3.64-22.25-3.02-30.37-11.03-4.53,1.75-6.68,2.56-9.99,5.87-9.91,10.23-13.3-.21-5.49-7.6,1.72-1.59,5.4-3.32,6.55-5.26,6.87-11.32-10.28-27.59-15.55-35.63-3.93-5.98-3.74-13.46-5.2-20.27-1.82-8.77-1.37-17.38-2.72-26.15-1.05-6.05-3.84-11.52-5.13-17.44-2.44-10.99-2.18-23.09.56-33.98,1.94-7.55,6.54-14.02,8.56-21.48,3.08-11.66,4.39-24.33,7.34-36.17-7.15,3.44-12.21,3.95-15.9,12.32-10.89,24.82-9.44,53.86-32.75,72.24-5.99,4.83-12.12,5.49-16.72,12.23-3.84,5.59-6.11,12.33-11.37,16.94-8.41,7.6-21.49,8.06-29.76,15.63-7.4,6.88-6.02,17.78-7.16,26.85-.52,4.36-3.27,9.93-7.03,12.19-2.31,1.36-6.8.58-9.1-.19.64-5.98,3.33-12.14,3.54-18.31.37-15.38,10.52-27.31,23.17-34.22,8.54-4.59,19.78-7.44,24.37-16.95,1.63-3.55,4.67-7.66,5.6-11.41,3.11-12.6.91-24.05,7.96-35.94,6.29-10.37,8.39-22.6,15.13-32.67,5.66-8.66,13.91-15.01,22.14-21.31,7.42-5.54,5.12-11.82,9.91-18.56,2.03-2.72,6.25-3.16,8.84-5.26,7.38-5.91,14.44-25.33,15.22-34.37-14.7-3.33-29.76-2.86-44.67-3.24-6.31-.25-12.53-.33-18.7-2.29-5.5-1.71-10.54-4.68-16.49-5.12-7.62-.48-15.12,1.87-22.2,4.16-5.32,1.75-11.03,2.31-16.27,4.34-5.24,2.08-9.67,6.01-15.3,6.93-5.44.93-11.31.14-16.8.14-4.21,0-10.6-4.41-4.72-7.97,2.83-1.8,6.21.78,9.2.81,18.22.28,27.06-11.01,40.14-20.87,6.9-5.12,14.68-1.36,22.2-3.32,6.73-1.75,12.07-6.76,18.81-8.33,8.7-1.99,23.94-1.31,32.31,1.87,9.43,3.51,5.4,13.58,12.64,17.46,7.22,3.83,13.83-4.38,17.76-9.51,1.15-1.41,7.09-16.9,5.42-16.56-8.41,1.32-9.97-.39-16.64-5.12h0Z"/>
  </g>
</svg>