<?xml version="1.0" encoding="UTF-8"?>
<svg id="Layer_2" data-name="Layer 2" xmlns="http://www.w3.org/2000/svg" viewBox="0 0 654.5 648.54">
  <defs>
    <style>
      .cls-1 {
        fill:#808080
      }
    </style>
  </defs>
  <g id="Layer_1-2" data-name="Layer 1">
    <path class="cls-1" d="m267.05,411.57c-1.88,2.69-1.82,3.48.69,4.62,3.61,1.66,7.08,3.63,10.75,5.18,2.3.98,4.84,1.09,6.99,2.35.87.5,1.77.94,2.64.2.95-.8.54-1.73-.05-2.54-.56-.76-.67-1.66.18-2,2.02-.79,2.42-2.46,2.89-4.25.92-3.46,4.32-5.05,6.17-7.85.88-1.33.37-2.47.37-3.67,0-.64-1.15-1.03-1.71-.72-2.46,1.3-5.8,1.41-6.75,4.86-.23.82-.76,1.67-1.73,1.75-1.25.12-.92-1.28-1.55-1.85-.56.65-1.14,1.29-1.14,2.2s-.07,1.81-1.25,1.88c-.98.07-1.4-.58-1.62-1.39-.65-2.5-2.08-1.6-3.25-.58-1.47,1.26-1.97,4.09-4.93,2.8-.1-.04-.37.31-.56.49-2.27,1.93-4.72,1.4-6.13-1.48h0Zm60.89-103.3c1.17-1.11,2.1-1.52,3.68-.95,1.89.69,3.4-1.49,5.35-1.41.07,0,.27-.52.19-.62-1.32-1.89.61-1.92,1.43-2.47,1.1-.71,2.57-1.47,3.6-.53,1.43,1.32,2.64-.09,3.91.18.07-2.3,1.88-1.78,3.21-2.02.01,0,.03-.76-.15-.91-.48-.35-1.05-.57-1.66-.88,1.54-.72,2.64-1.85,4.47-1.02,1.88.84,3.15-.33,3.7-2.15.6-1.98-.83-2.64-2.32-3.03-4.16-1.13-8.3-2.65-12.57-3.15-5.2-.61-9.29-3.33-13.53-5.87-1.56-.95-2.65-.91-3.83.45-1.66,1.9-3.02,3.87-3.4,6.48-.23,1.47-.46,2.3,1.45,1.59.65-.26,1.47-.39,1.83.37.45.98-.48,1.29-1.07,1.77-1.07.84-2.15,1.73-2.64,3.61.79-.38,1.05-.45,1.25-.57.54-.41,1.2-1.17,1.75-.45.65.86-.34,1.39-.88,1.86-.58.5-1.25.92-1.9,1.37-1.21.82-2.47,1.58-3.66,2.43-.54.41-1.17,1.01-.75,1.75.39.69,1.22.56,1.89.42.48-.08.92-.39,1.35-.67,1.22-.79,2.41-1.63,3.63-2.39,1.07-.68,1.82-.46,2.01.9.05.56-.27,1.22.33,1.59.94.26,1.3-1.51,2.3-.6,1.4,1.3,1.49,2.95,1.03,4.93h0Zm119.47-37.3c1.26-.96,1.97-3.86,3.87-2.27,2.27,1.89,3.91.46,5.84.01.46-.11.96-.05,1.14.37,1.1,2.55,2.65,1.49,4.19.56.82-.49,1.7-.67,2.42,0,1.67,1.55,3.15.64,4.29-.52.61-.61,1.32-.72,1.93-1.14.38-.26.86-.26,1.18.14.35.39.16.84-.08,1.2-.38.58-.92,1.06-1.25,1.66-.41.76-.54,1.74.76,1.48,1.59-.3,3.51.48,5.01-2.02-.2,3.94,3.62,4.28,4.35,7.03.15.61,1.39.46,2.16.6,1.79.33,3.34,1.1,4.97,2.01,2.37,1.3,5.27,1.18,7.98,1.39,1.09.08,2.04-.04,2.69,1.05.2.33.65.61,1.03.69,7.38,1.44,13.43,5.72,19.79,9.32,1.64.92,3.38,1.74,5.15,2.43,1.85.76,3.32,1.85,4.23,3.64.77,1.54,2.08,2.09,3.74,2.43,5.31,1.05,10.46.03,15.72-.34,5.16-.34,10.75-.35,15.94,1.06,4.48,1.22,6.05,4.52,4.99,9.13-.77,3.4-2.3,6.16-5.53,7.76-1.13.56-2.38,1.11-3.26-.19-.93-1.39.41-2.07,1.28-2.66,4.4-3.14,4.5-5.03-1.02-8.22-1.96-1.13-4.12-1.3-6.17.05-.43.29-.95.68-1.4.64-4.08-.38-8.02,1.26-12.11.8-1.47-.15-2.93-.14-4.36.45-.54.22-1.15.37-1.75.39-8.83.44-17.42-.58-25.74-3.89-3.26-1.3-6.94-1.55-10.22-2.83-4.04-1.58-8.37-.96-12.42-2.23-2.35-.75-4.66-.27-7.01.91-3.91,1.97-8.24,2.64-12.57,1.94-5.15-.84-10.34-.53-15.49-1.1-6.78-.75-13.56-1.17-20.27-2.57-2.17-.45-4.39-.44-6.41-1.54-.56-.3-1.45-.43-2,.08-.69.67.18,1.22.38,1.83.96,3.04,3.51,5.1,4.99,7.85.26.49.69.73,1.25.8,5.21.73,8.85,4.28,13.02,7,3.14,2.04,4.87,5.35,7.91,7.36.6.39.96,1.05.99,1.77.08,2.36,1.44,4.09,3,5.57,3.04,2.91,5.11,6.54,7.57,9.88,1.82,2.49,3.22,5.29,4.8,7.95.52.9.98,1.71,2.19.96.14-.09.39-.19.48-.12,2.7,2.04,6.17,1.17,9.02,2.34,2.58,1.06,5.04,1.1,7.65.72.84-.11.75-.92,1.14-1.17,1.41-.9,2.64-1.83,2.66-3.7,1.36.05,1.96-3.08,4.01-.79.64.71,1.39-.56,1.77-1.33.71-1.52.91-3.33,2.51-4.66.65,1.44-.64,2.68.12,4.04,1.02-.54,1.98-1.69,3.38-.83.27.18.9.04,1.21-.16,1.21-.82,2.42-2.85,3.33.24.03.09.39.22.42.19,1.55-2.15,3.75.69,5.45-.69.54-.45,1.34-.38,2-.08,3.06,1.36,5.94.24,8.79-.67,1.89-.58,3.74-.98,5.59-.08.57-.99-1.88-1.4-.19-2.34,1.39-.77,1.78-.18,2,1.2.18,1.01,1.52.35,2.32,1.32,1.35,1.62,3.52,2.99,5.57,3.44,2.08.45,4.55,1.52,6.68-.42.46-.41,1.35-.86,1.75.08.46,1.11,1.11.68,1.88.58,1.03-.14,2.13-.15,2.66,1.07.41.91,1.17.76,1.97.8,5.52.31,11.1.12,16.52,1.22,2.65.53,5.11,1.69,7.99,1.26,1.06-.16,2.12-.18,3.21-.5,4.16-1.29,8.26-3.46,12.7-.75,1.88,1.16,3.36,4.44,2.72,6.48-1.21,3.82-3.86,6.07-7.65,7.04-.88.23-1.89.18-2.83.1-.61-.04-1.2-.44-1.29-1.1-.12-.84.68-.83,1.22-1.05,1.35-.57,2.72-1.11,4.05-1.73.64-.29,1.25-.75,1.21-1.55-.05-.96-.86-1.25-1.62-1.44-.58-.14-1.35-.37-1.78-.12-4.65,2.47-9.85,1.32-14.7,2.35-3.61.77-7.28,1.45-10.45,3.57-1.02.69-2.2.27-3.3.35-5.62.49-11.26.68-16.4-2.3-.99-.57-1.74-.41-2.64.14-2.47,1.55-5.33,1.82-8.04,2.65-6.93,2.07-13.86.71-20.79.87-2.88.07-5.6.94-8.49,1.06-4.74.19-9.44.68-14.21.43-1.24-.05-4.95,3.67-5.03,4.86-.05.79.67,1.29,1.16.95,3.03-2.09,4.66.96,5.72,2.26,2.21,2.68,5.19,3.11,7.96,3.76,6.39,1.49,11.58,4.77,16.5,8.93,5.29,4.47,7.65,10.49,9.7,16.78,2.11,6.45,1.09,13.05.95,19.61-.03,1.07-.26,2.12.79,2.8.97.61,1.78.03,2.65-.45,7.84-4.12,13.33-10.26,16.55-18.56,2.12-5.49,5.31-6.62,10.76-3.94,2.15,1.05,4.42,1.47,6.73,1.83,4.51.73,8.94,1.62,13.36,2.88,5.31,1.52,10.5,3.44,15.9,4.69,3.51.79,6.97,2.08,10.35,3.32,10.79,3.94,21.93,6.37,33.16,8.53,4.74.9,9.47.5,14.16-.69,1.51-.38,3.79-1.33,4.36.54.54,1.77-1.67,2.69-3.25,3.49-5.14,2.58-10.49,2.35-15.98,1.6-6.35-.87-12.6-2.28-18.81-3.82-6.64-1.64-13.19-3.6-19.74-5.53-8.22-2.41-16.24-5.49-24.66-7.18-3.81-.77-7.58-1.82-11.12-3.56-3.07-1.51-5.88-1.39-8.64,1.03-2.46,2.16-4.27,4.8-6.13,7.37-2.79,3.79-5.71,7.38-9.39,10.35-4.63,3.79-4.86,8.82-3.14,13.96.99,2.95,1.77,5.78.91,8.83-.96,3.48,1.24,5.1,3.74,6.5,11.18,6.3,23.09,11.18,34.46,17.11,2.85,1.49,5.59,3.13,8.23,4.95,2.36,1.62,2.99,3.76,2.01,6.28-.43,1.07.01,1.47.67,1.88,4.54,2.89,9.02,5.87,13.66,8.56,2.09,1.21,4.51,1.83,7.01,1.64,4.36-.33,8.79.26,13-1.71,2.81-1.3,4.74-3.08,5.63-6.02.19-.65.27-1.56,1.17-1.49,1.15.12.75,1.18.83,1.89.86,7.68-3.89,10.5-10.03,12.22-2.15.61-4.46.61-6.6,1.36-.71.26-1.6.34-2.31.15-5.15-1.47-10.59-2.04-15.33-4.72-2.73-1.55-5.26-2.88-7.65.34-.31-.37-.52-.53-.49-.6,1.25-3.36,1.28-3.41-2.15-4.93-1.63-.71-3.75-2.5-4.92-1.33-1.05,1.02,1.25,2.8,1.96,4.28.96,2.04,1.74,3.95.91,6.2-.5,1.35-1.31,2-2.43.65-6.29-7.37-14.95-11.4-22.87-16.47-7.27-4.65-15.21-7.88-23.07-11.32-2.07-.91-2.28-.39-2.05,1.64.38,3.48,1.32,6.79,2.39,10.1,1.56,4.78,4.81,7.85,9.4,9.7,7.66,3.08,14.87,7.04,21.82,11.45,1.02.65,2.05,1.24,3.25,1.58,5.96,1.71,11.22,4.93,16.48,8.1,1.85,1.11,3.49,2.5,5.67,3.02,1.55.35,2.84,1.2,4.05,2.26,1.63,1.41,3.57,2.38,5.38,3.56,8.41,5.53,16.82,11.14,20.42,21.31,1.43,4.02.6,8.04-.18,12.04-.15.86-.67,1.7-1.7,1.74-1.01.03-1.45-.8-1.82-1.62-1.06-2.3-.45-4.78-.73-7.17-.54-4.43-2.41-8.15-5.56-11.14-5.11-4.86-11.09-8.48-17.07-12.19-7.91-4.89-16.25-8.93-24.43-13.25-5.27-2.77-10.44-5.8-16.05-7.95-2.8-1.09-5.35-2.84-7.88-4.43-4.7-2.93-9.67-5.33-14.58-7.84-3.45-1.78-4.19-3.36-3.83-7.28.37-4.19-.05-8.32-1.33-12.34-.75-2.31-6.22-4.12-8.71-3.33-6.96,2.21-12.38,6.79-17.84,11.28-5.93,4.88-12.94,6.16-20.23,6.1-5.53-.04-10.88-1.17-15.84-4.1-2.12-1.25-5.11-.94-7.51-.2-1.77.53-2.19.03-2.58-1.32-.16-.49-.2-1.02-.38-1.51-.22-.72-.75-1.2-1.51-1.24-.8-.04-.9.71-1.1,1.25-.8,2.05-1.52,3.86-4.04,1.37-1.54-1.54-3.78-.14-5.67-.76-.53-.18-.43.61-.3,1.17,1.24,4.81,2.65,9.59,2.84,14.59.05,1.86,1.6,2.72,2.75,3.56,4.65,3.52,8.21,7.91,11.5,12.69,2.19,3.17,4.99,6.05,7.92,8.53,4.34,3.63,7.54,8.21,10.59,12.72,1.83,2.75,3.1,4.66,6.48,5.82,4.35,1.48,8.28,4.28,12.22,6.75,1.64,1.03,2.58,2.98,3.97,4.42,1.7,1.79,3.52,3.53,4.92,5.67,2.09,3.25,5.92,4.1,9.09,5.82,2.13,1.15,4.8,1.26,6.64,3.21.42.46,1.29.42,2.2.19-.9-1.55-2.2-2.61-3.44-3.71-.6-.52-1.3-1.03-.8-1.96.46-.82,1.2-1.14,2.2-.94,4.24.88,8.51,6.09,8.47,10.4-.03,3.37-3.15,6.58-6.47,6.77-4.69.29-8.37-2.05-11.56-4.93-2.85-2.57-6.18-4.16-9.51-5.72-2.8-1.29-5.94-1.81-8.97-2.57-1.39-.35-2.6-.87-3.55-1.97-.33-.37-1.01-.9-1.25-.77-3.26,1.45-4.69-1.71-6.83-2.83-1.71-.88-2.26-.77-2.55,1.35-1.1-1.1-1.81-2.61-3.48-1.13-.73.65-3.53-1.98-3.17-3.47.87-3.48-2.37-3.87-3.89-5.34-.67-.65-3-.38-4.02.29-2.85,1.9-4.48-.01-6.39-1.45-1.29-.99-2.58-1.98-3.96-2.88-.48-.3-1.3-.65-1.71-.45-3.13,1.63-2.87-1.25-3.49-2.66-.47-1.09-.46-2.15-1.97-.95-.73.6-.72-.31-.83-.73-.38-1.26-.48-2.53-.28-3.86.11-.68-.2-1.48-.98-1.63-.72-.15-.64.61-.79,1.07-.16.49-.26,1.14-.97.94-.56-.16-.72-.73-.71-1.28.03-.69.11-1.39.19-2.07.16-1.45.44-2.58-1.93-1.83-2.04.67-2.23-1.64-2.53-2.87-.51-2.15-.04-4.23-3.69-4.28-3.02-.04-4.08-4.02-2.43-7.03.69-1.25,1.69-2.35,2-4.08-1.63.42-1.96,1.71-2.64,2.6-.41.52-.76,1.03-1.49.64-.71-.38-.48-.95-.3-1.58.73-2.58,1.58-5.11,2.88-7.5,1.41-2.61,1.01-3.32-1.85-3.52-1.25-.1-2.31-.41-3.32-1.21-2.32-1.85-5.44-.76-7.95-1.98-.45-.22-1.22-.24-1.39-.58-1.89-4.21-6.05-5.29-9.7-7.07-2.64-1.29-2.69-4.19-4.28-6.62-.27-.11-.48.48-.77.86-.26.35-.54.73-1.03.57-.58-.22-.73-.77-.69-1.29.11-1.24-.19-2.41-.45-3.59-.34-1.66-.56-3.34-2.99-2.94-.41.08-.99-.31-1.36-.64-2.11-1.77-5.19-2.05-7.5-.35-1.18.88-1.67,1.01-2.95-.08-1.94-1.67-4.69-1.66-6.82-.42-1.9,1.13-3.68.86-5.15.07-3.63-1.92-7.57-2.55-11.43-3.57-1.48-.38-2.77-1.35-4.19-2-2.77-1.3-8.38-.11-9.67,2.01-1.58,2.61,0,5.58,2.51,8.78,2.49,3.18,6.62,4.62,9.09,7.91.14.2.43.41.65.38,4.29-.35,4.5,3.38,5.68,5.91.84,1.75,1.44,3.14,3.81,2.13-.11,1.05-1.05,2.11.71,2.51,1.66.37,1.63,2.49,1.44,3.23-.46,1.86.75,2.2,1.68,2.92,3.33,2.5,5.33,6.29,8.48,8.96.45.39.82,1.05.01,1.51-2.05,1.25-.94,2.28.27,3.13,1.69,1.17,2.68,2.23,1.36,4.47-.84,1.44.77,3,.61,4.84-.26,2.94-.44,6.39,2.21,8.64,3.78,3.21,5.68,7.85,9.02,11.37.67.69,1.3,1.44,2.11,1.93,2.94,1.71,4.92,4.09,6.21,7.28.83,2.02,2.69,3.6,4.13,5.2,3.3,3.63,6.06,7.68,9.16,11.46,2.32,2.83,3.85,6.3,5.25,9.8,2.87,7.15,11.99,15.11,20.89,12.13.41-.84-.68-.83-.8-1.36-.22-.92-.65-1.98-.15-2.76.63-1.02,1.74-.37,2.62-.16,4.89,1.16,7.96,4.35,9.69,8.96,1.4,3.75-.52,7-4.06,8.78-5.33,2.68-9.7,1.06-14.05-1.96-.43-.3-.99-.6-.61-1.21.5-.77,1.05-1.47-.1-2.15-.95-.54-2.04-.91-2.95-.2-1.4,1.07-2.27.53-3.3-.54-1.2-1.26-2.55-2.34-3.86-3.49-.88-.77-1.74-1.33-3.03-.75-1.39.63-2.46-.09-2.89-1.39-.45-1.35-1.18-2.49-1.86-3.7-1.28-2.26-3.3-2.69-4.85-.72-1.11,1.43-1.56.95-2.83.16-3.78-2.35-6.69-5.61-9.87-8.6-.65-.63-1.35-1.05-2.2-1.28-.99-.23-1.66-.84-2.13-1.75-1.52-2.99-4.02-4.27-7.31-3.98-.3.01-.83.34-.82-.07.12-3.08-3.6-3.3-4.24-5.84-.2-.86-.64-1.85-2.04-1.11-1.22.64-.98-.64-1.01-1.17-.19-2.88-1.25-5.1-4.05-6.41-1.02-.46-1.3-1.94-1.92-2.84-.95-1.43-2.85-2.2-3.1-4.16-.15-1.06-1.49-.69-2.16-1.4,1.24-2.07,2.28-4.14,1.6-6.77-.65-2.43-2.05-3.49-4.47-3.45-.76.01-1.64.26-1.92-.79-.23-.87-.48-1.58-1.55-1.09-1.01.45-2.61-.27-2.89,1.55-.37,2.3-1.14,3.15-2.95.87-.94-1.18-2.13-.57-3,.14-1.39,1.14-2.34,1.51-2.89-.71-.23-.99-.96-1.47-1.94-.73-.5.35-.77,1.39-1.6.53-.65-.71-1.41-1.66-.71-2.55,1.66-2.09.05-4.46.75-6.64.35-1.07-.87-2.05-1.35-2.87-1.47-2.45-1.07-5.54-3.06-7.72-.52-.57-.72-1.43-1.79-.82-1.88,1.1-2.98-.48-3.68-1.58-1.49-2.32-1.33-2.43-4.19-1.51.09-1.39.14-2.73.31-4.05.38-3.07-.05-3.86-2.95-4.8-1.02-.34-1.43-.05-2.38,1.78-1.37-1.07-1.9-2.84-2.73-4.16-1.01-1.6-.72-4.1-1.02-6.22-.48-3.38-.2-3.42-2.69-6.71-.63-.82.38-1.18.62-1.74.23-.5.39-1.03-.16-1.37-.49-.3-.76.15-1.05.48-.19.18-.43.3-.61.48-.9.83-2.46.69-3.1-.27-.84-1.26-1.9-1.17-2.87-.3-5.86,5.19-12.65,9.09-18.86,13.81-6.05,4.59-12.47,8.7-18.68,13.09-2.68,1.92-5.34,3.87-7.8,6.03-6.51,5.72-13.17,11.27-19.57,17.11-6.18,5.64-12.6,11.1-19.38,15.99-4.61,3.34-9.25,6.69-13.87,10-3.51,2.5-6.52,5.69-9.8,8.52-6.17,5.31-12.71,10.18-19.27,14.96-4.06,2.96-8.04,6.02-12.03,9.08-10.73,8.32-22.34,15.23-34.6,20.99-5.38,2.53-11.28,3.94-16.88,6.03-6.41,2.4-12.7,5.15-19.13,7.46-4.38,1.58-8.87,2.72-13.56,3.37-3.18.45-6.36,1.13-9.48.75-7.38-.91-15.04-1.13-21.28-6.03-3.86-3.04-7.43-6.65-8.1-11.6-.62-4.69-.19-9.4,1.39-14.2,1.39-4.17,3.37-8.02,4.96-12.04.76-1.96,2.24-3.27,3.71-4.61,1.75-1.62,3.04-3.38,4.01-5.63,1.53-3.67,3.83-6.97,6.2-10.16,1.3-1.78,2.91-3.15,2.35-5.88-.41-2.04,1.16-3.95,2.37-5.64,3.41-4.72,5.57-10.08,8.38-15.12,2.03-3.63,4.81-6.7,7.07-10.14,1.63-2.53,3.1-5.11,4.36-7.81,1.7-3.6,3.68-6.84,7.53-8.49.37-.15.77-.49.91-.84,1.28-3.17,4.62-4.47,6.36-7.04,2.08-3.04,5.27-4.8,7.5-7.54.52-.64,1.14-1.1,1.83-1.43,1.81-.83,3.19-2.02,3.55-4.13.04-.24.12-.64.28-.69,3.17-1.26.61-2.03-.04-3.37-1.43-3.03-3.57-5.95-3-9.62.11-.71.14-1.37-.19-2.04-1.67-3.48-1.25-6.67,1.29-9.42,1.7-1.86,3.3-3.8,4.61-5.97,2.26-3.72,5.88-6.32,8.33-9.91,2.2-3.22,5.21-5.75,7.39-9,1.89-2.79,4.44-5.12,7.16-7.16,3.41-2.55,5.68-6.05,7.96-9.53.34-.53,1.24-1.54.22-1.96-1.29-.57-1.36-3.34-3.52-2.13-1.96,1.11-3.83.91-5.68.03-2.88-1.35-5.69.46-8.59.04-2.11-.3-4.46-1.11-6.3.94-2.42-1.82-5.23.27-7.27-.46-2.12-.75-3.95-.94-5.91-.6-2.17.41-3.83-1.17-5.63-1.26-3.72-.18-7.23-1.73-10.98-1.51-3.13.2-5.92-.67-8.62-2.28-1.81-1.07-4.02-1.32-5-3.67-1.56-3.68-4.76-5.29-8.47-6.26-3-.79-6.03-1.68-8.83-2.99-4.71-2.2-9.96-2.79-14.62-5.1-3.79-1.86-7.36-4.2-11.58-5.19-.56-.12-1.21-.49-1.51-.95-2.03-3.26-5.12-4.99-8.63-6.22-1.28-.46-2.39-1.28-2.99-2.69-.75-1.74-2.61-1.52-4.06-1.92-1.81-.48-3.87-.38-4.67-2.64-.05-.15-.26-.31-.39-.33-4.81-.35-7.54-4.76-11.78-6.06-3.49-1.07-5.79-3.44-7.8-6.14-2.19-3-1.06-6.66,2.02-8.76,4.77-3.23,9.25-3.55,13.7.57-1.02,1.28-2.35.91-3.75.86-1.9-.08-4.43-1.17-5.48.99-1.11,2.26,1.13,3.78,2.58,5.14,1.56,1.47,2.99,3.55,5.75,1.89.83-.49,1.85.34,2.46,1.1,1.66,2.07,3.45,3.64,6.35,3.95,1.49.16,2.92,1.37,3.98,2.74,1.35,1.73,2.91,2.83,5.37,2.05,1.7-.52,3.13.83,4.08,1.89,2.04,2.32,4.82,2.73,7.47,3.22,7.56,1.4,14.91,3.51,22.3,5.57,6.94,1.9,13.75,4.14,20.42,6.79,2.26.88,4.19,2.5,6.56,3.15,1.39.38,3.21,1.06,4.1-.22.73-1.05-1.1-1.9-1.62-2.93-.58-1.14-1.77-1.66-2.66-2.43-.46-.41-1.05-.86-.57-1.51.37-.5.95-.15,1.43.01,2,.76,3.63,2,5.14,3.47,1.32,1.26,2.69,2.46,4.05,3.67.82.72,1.66,1.24,2.81.65.35-.16.88-.15,1.26-.04,5.91,1.75,11.97,1.77,18.06,1.85,7.08.07,14.15.49,21.23.63,6.39.15,12.79.29,19.17.15,5.03-.1,9.72,1.36,14.44,2.61,1.88.49,3.51.04,4.38-1.37,2.26-3.66,6.2-4.55,9.61-6.31,1.43-.73,3.61-.99,3.4-2.93-.23-2.27-2.45-2.96-4.4-2.75-4.43.46-8.28-1.28-12.13-2.88-2.94-1.22-5.45-2.87-5.94-6.58-.3-2.19-2.7-2.77-4.44-3.07-6.64-1.09-10.8-5.98-15.55-9.89-5.2-4.28-10.22-8.78-16.42-11.58-2.2-.99-4.66-1.21-7.06-1.32-1.37-.07-2.46-.03-1.37-1.79.8-1.33-.18-1.63-1.09-2.05-1.59-.73-3.56-.92-3.89-3.3-.12-.82-1.33-.71-2.04-.88-2-.53-3.91-1.22-6.41-2.32,3.04-.67,3.02-2.98,3.85-4.73.48-1.01-.26-1.01-.83-1.06-.77-.08-1.55-.08-2.34-.07-2.27.08-3.25-1.49-4.16-3.18-.34-.64.26-.45.45-.54,1.32-.67,2.58-1.43,4.1-1.55.57-.04,1.33.11,1.62-.57.33-.76-.48-.98-.84-1.41-1.03-1.24-2.79-2.55.38-3.36.72-.19.58-.8.16-1.22-.35-.35-.84-.6-1.24-.92-.77-.64-2.28-.92-2.07-2.08.22-1.21,1.59-.58,2.47-.68.5-.05,1.37-.46.94-.8-2.34-1.84.15-4.2-.87-6.21-.77-1.56-1.01-3.38-.73-5.23.15-1.17.42-2.57,1.22-3.08,1.33-.84,1.01-1.32.2-2.13-.37-.37-.77-.82-.3-1.32.34-.42.79-.07,1.18.05.57.18,1.16.37,1.75.49.33.05.67-.05,1.01-.08-1.66-2.54,2.66-2.6,2.01-5.16-.67-2.58.29-5.14,3.41-6.14,1.4-.45,1.67-1.43.35-2.49-2.55-2.11-2.54-2.12-.23-4.63-.11-.76-.75-.6-1.22-.65-.65-.1-1.21-.35-1.37-1.03-.23-.98.65-1.18,1.24-1.36,2.41-.76,3-3.27,4.72-4.71.77-.65-.11-1.07-.61-1.26-1.17-.42-1.74-1.36-2.38-2.53,1.17-.23,2.3-.44,3.52-.68-1.97-1.92-1.79-2.62.8-3.63,1.28-.49,3.13-.6,1.2-2.6-.52-.52,0-.98.52-1.17,3.56-1.32,4.4-4.73,4.93-7.66.43-2.41,1.39-2.64,3.18-2.57.6.03,1.2.16,1.81.24.49.05,1.09.31,1.37-.31.27-.61-.22-.94-.65-1.24-2-1.33.12-2.69.07-4.06-.05-.92,1.17-.99,2.11-.87,1.28.18,1.71-.08,2.58-1.55,1.22-2.05,2.17-4.13,3.03-6.33.23-.61,1.03-.73,1.6-.48,2.43,1.07,4.51.31,6.9-.5,3.15-1.1,6.75-.92,9.89-2.03,3.9-1.36,7.88-2.36,11.71-3.87,2.58-1.01,5.26-1.78,8-2.17,5.14-.75,10.31-1.2,15.53-1.11.87.01,1.75.07,2.53-.44,5.12-3.36,11.12-3.71,16.75-3.47,5.04.23,10.22.61,15.33,1.66,7.5,1.54,14.85,3.86,22.53,4.51.95.08,1.92-.11,2.84,0,2.02.24,2.49-.87,2.24-2.51-.58-4-1.17-7.99-1.9-11.97-.38-1.97-.45-3.67.95-5.35,1.32-1.59,1.05-2.98-1.17-3.74-3.6-1.24-7.07-2.92-10.72-3.87-3.68-.96-6.62-3.38-10.23-4.39-5.74-1.63-11.12-4.27-16.9-5.79-1.83-.48-3.67-1.14-5.33-2.02-4.61-2.47-9.61-3.91-14.42-5.86-3.49-1.41-7.08-1.54-10.74.15-3.7,1.7-7.27,3.76-11.36,4.43-.69.12-1.39.23-2.06.22-.53,0-1.06-.22-1.17-.82-.14-.65.43-.88.88-1.1,2.27-1.09,4.7-1.79,6.89-3.07,1.07-.63,2.04-1.29,2.87-2.2.5-.56,1.47-1.06,1.06-1.89-.46-.97-1.66-.94-2.56-.76-9.19,1.94-18.52,1.89-27.86,2.21-7.01.26-13.78-.88-20.67-1.43-2.72-.22-5.12-.79-7.49-2.16-2.03-1.18-4.4-.9-6.55-.12-2.79.98-5.42,1.66-8.19-.12-1.25-.8-2.94-.69-4.34-.35-5.98,1.4-12.27-.87-18.18,1.48-.63.26-1.48.19-1.98-.3-2.11-1.97-4.09-.58-6.05.15-1.55.58-1.78,1.67-.2,2.61,1.39.82,2.85,1.49,4.67,2.46-3.3,1.11-6.1,2.32-8.87-.23-.75-.68-1.78-1.35-2.65-.05-.79,1.14-.87,2.17.48,3.11,1.35.95,2.57,2.07,3.83,3.13.67.54.92,1.26.57,2.08-.37.86-1.1,1.02-1.94.99-3.25-.08-6.93-2.77-7.89-5.91-.54-1.74-.91-3.53-1.28-5.31-.38-1.84.91-2.89,2.09-3.9,3.18-2.66,7.12-3.44,11.03-4.31,3.56-.8,7.39-.39,10.67-2.73,1.3-.95,3.21-.3,4.8.19,1.62.5,3.18.76,4.69-.42,1.09-.83,2.35-.28,3.53-.1,3.18.54,6.29,1.6,9.53-.24,1.11-.64,2.89-.15,4.35-.14,1.07,0,2.23.05,2.65-1.17,1.35-3.94,4.72-3.82,7.92-3.95.84-.03,1.7.39,2.24-.64.35-.69.96-.6,1.58-.35,3.21,1.26,6.47-.09,9.7.2,2.39-3.42,4.08.27,6.12.56,2.27.33,4.74,1.86,6.78-.64.45-.56.9-.12,1.37.05,2.66,1.1,2.66,1.09,2.81-1.97,0-.24.15-.46.3-.86,2.22,1.18,3.82,3.3,6.4,3.83.07-1.47-1.92-1.56-1.81-2.94.2-.09.42-.27.5-.22,1.4.84,2.81,1.63,5.04,1.29,3.4-.53,6.34,1.24,9.62,1.22,1.56,0,2.46.05,2.49-1.85.04-1.96.5-3.79,2.79-4.48,1.45-.44.41-1.13.07-1.73-1.41-2.35-1.26-2.49,1.49-2.79,1.52-.18,3.38.33,4.35-1.6.54-1.06,1.22-.23,1.66.15,1.06.9,2.08,1.83,2.98,2.87.86.98,1.49,2.01,2.76.49.15-.19.83-.01,1.22.08,4.17,1.17,8.32,2.34,11.51,5.58,1.15,1.15,2.47,2.13,3.74,3.19.26.22.61.62.82.56,4.05-1.18,5.23,3.08,8.06,4.24,3.15,1.26,5.91,3.53,8.41,5.64,3.63,3.06,8,4.77,11.65,7.65,2.19,1.74,4.95,2.43,7.13,4.17,1.13.9,1.47-.11,1.52-1.1.31-5.33.04-10.56-2.27-15.49-2.37-5.01-2.43-10.45-3.23-15.79-.58-3.9.45-7.77-.41-11.39-1.17-4.96-.64-9.92-.99-14.82-.24-3.34-.27-6.88.46-10.29.26-1.2.31-2.41-.08-3.59-.9-2.84-.69-5.56.73-8.18.41-.76.71-1.63.8-2.47.29-2.8,2.54-3.64,4.59-4.2,2.62-.73,5.42-.84,8.36-1.24-1.17-3.27-2.74-6.44-3.42-9.77-1.43-6.94-4.53-13.43-5.46-20.48-.35-2.7,2.12-5.99,4.77-6.71.65-.16,1.52-.19,1.58-1.07.04-.79-.76-1.06-1.32-1.45-2.89-2.09-4.9-4.77-5.84-8.29-.53-1.93.1-3.36,1.64-4.19,1.93-1.03,1.9-2.23.91-3.8-.35-.58-.65-1.28-1.14-1.71-5.67-5.01-4.53-8.3-1.48-14.02.9-1.68,1.09-3.27.6-4.97-.71-2.41-1.45-4.8-2.38-7.13-1.64-4.13-1.32-8.23-.2-12.41.27-1.05.69-1.63,1.66-2.11,2.2-1.09,3.89-2.73,5.42-4.69,1.7-2.19,2.24-4.5,2.58-7.16.41-2.94.88-6.12,4.52-7.2.79-.23,1.47-.91,2.16-1.43,1.96-1.49,4.04-1.62,6.54-1.55,8.22.26,14.83,4.02,21.51,8.19,7.95,4.93,14.3,11.52,20.07,18.68,6.27,7.73,12.38,15.63,18.02,23.83,6.54,9.51,10.35,20.37,13.66,31.35,3.62,12.04,7.47,24,10.73,36.15,1.83,6.93,2.76,14.13,5.57,20.8,6.24,14.76,10.12,30.18,13.64,45.77,2.38,10.56,5.57,20.93,8.89,31.23,5.53,17.15,11.27,34.23,16.95,51.32.72,2.13,1.69,4.17,2.42,6.29.72,2.11,2.23,1.11,3.1.6,1.7-.99,3.04-1.62,4.77,0,.8.75,1.35-.38,1.66-1.05.46-.99.76-2.17,2.04-.69.14.15.67.19.68.16.91-2.81,4.58-1.25,5.8-3.76.53-1.06,1.82-.67,1.68.48-.34,2.77,1.73,1.45,2.2,1.14.98-.58,2.05-.94,3.04-1.44.3-.16.73-.43.95-.33,1.78.91,3.44,1.96,5.57.69.38-.2-.46,1.18.68,1.54h0Z"/>
  </g>
</svg>