<?xml version="1.0" encoding="UTF-8"?>
<svg id="Layer_2" data-name="Layer 2" xmlns="http://www.w3.org/2000/svg" viewBox="0 0 452.23 654.5">
  <defs>
    <style>
      .cls-1 {
        fill:#808080
      }
    </style>
  </defs>
  <g id="Layer_1-2" data-name="Layer 1">
    <path class="cls-1" d="m446.24,432.31c-.95-.39-2.28-1.84-3.84-3.92,2.77,1.47,5.47,1.69,5.47,1.69,0,0-3.5-.67-6.85-3.57-1.5-2.17-3.22-4.76-5.01-7.54,3.34,2.08,7.07,2.12,7.07,2.12,0,0-4.65-.59-8.58-4.46-1.11-1.72-2.26-3.47-3.41-5.2,2.81,1.61,5.63,1.89,5.63,1.89,0,0-3.6-.75-6.92-3.83-1.04-1.51-2.06-2.97-3.08-4.38-.37-.5-.79-.93-1.16-1.42,1.92.49,3.66.49,3.66.49,0,0-2.01-.1-4.65-1.71-1.75-2.05-3.57-3.88-5.39-5.49,2.27.47,4.42.22,4.42.22,0,0-2.6.06-5.75-1.37-5.55-4.65-10.44-7.14-10.44-7.14,0,0,1.96-2.83-2.13-10.75,2.38,1.3,4.94.93,4.94.93,0,0-3.05-.28-6.03-3.01-1.47-2.7-3.41-5.95-5.85-9.73,3.8,1.18,6.54,4.1,6.54,4.1,0,0-2.32-3.07-7.27-5.25-.12-.18-.21-.34-.33-.54-1.1-1.63-2.19-3.14-3.29-4.55,3.21,1.66,6.5,1.61,6.5,1.61,0,0-4.72-.49-8.74-4.35-.48-.54-.95-1.08-1.45-1.61-.31-.38-.62-.73-.92-1.17l.18.38c-1.45-1.51-2.85-2.84-4.22-4.01,3.13,2.25,6.94.97,6.94.97l-7.74-1.65c-6-5-10.61-6.81-10.61-6.81,0,0-4.48-5.01-9.08-5.87-3.41-.64-11.2,1.32-16.21,3.1,3.11-2.95,3.96-7.07,3.96-7.07,0,0-1.86,5.7-8.02,8.73-.97-.13-4.05.29-8.31,1.04,3.28-2.75,4.38-6.85,4.38-6.85,0,0-1.72,4.36-6.47,7.24-2.13.4-4.49.85-6.97,1.37,1.9-2.13,2.35-5.01,2.35-5.01,0,0-.95,3.36-4.45,5.44-1.83.37-3.7.76-5.61,1.18,3.01-4.95,7.09-7.2,7.09-7.2,0,0-4.51,2.18-9.11,7.65-3.23.7-6.43,1.41-9.45,2.11,2.62-2.33,2.97-5.3,2.97-5.3,0,0-1.08,3.55-5.5,5.88-2.67.62-5.09,1.2-7.18,1.7,1.94-2.22,2.24-5.3,2.24-5.3,0,0-.82,3.65-4.54,5.88-1.63.42-2.97.78-3.8,1.03-1.56.49-2.95.9-4.24,1.29,2.75-2.22,4.06-5,4.06-5,0,0-2.52,3.51-6.12,5.57-3.47.97-6.08,1.43-8.75,1.16-1.26-.13-2.47-.06-3.6.14-.09-3.68-.49-7.04-1.15-10.05,6.49-4.89,14.52-7.38,23.12-10.4,4.21-.47,7.34.83,7.34.83,0,0-2.21-1.25-5.2-1.6,2.29-.82,4.6-1.7,6.93-2.68,1-.42,2.03-.89,3.1-1.44,4.51-.65,7.91.79,7.91.79,0,0-2.73-1.53-6.18-1.67,2.17-1.14,4.46-2.45,6.89-3.91,4.37-.72,9.87.4,9.87.4,0,0-4.1-1.11-8.23-1.39,3.16-1.96,6.44-4.1,9.65-6.31,4.57-1.85,8.56-1.03,8.56-1.03,0,0-3.01-.96-6.43-.43,1.44-1.01,2.86-2,4.26-3.01,5.21-1.71,9.64-.2,9.64-.2,0,0-3.66-1.73-7.77-1.15,2.63-1.9,5.09-3.74,7.28-5.42,4.73-2.05,8.96-1.18,8.96-1.18,0,0-3.27-1.11-6.9-.4,3.93-3.05,6.74-5.42,7.54-6.33,2.93-3.3.43-7.38.43-7.38,0,0,2.15-1.23,5.03-3.06,5.21-1.78,9.64-.31,9.64-.31,0,0-3.47-1.61-7.44-1.12,1.27-.83,2.56-1.72,3.88-2.67,5.74-2.83,11.04-1.2,11.04-1.2,0,0-4.13-1.8-8.47-.71,1.53-1.19,3.01-2.39,4.2-3.55,6-5.79,3.6-9.51,5.7-13.09.5-.81,1.48-2.09,2.82-3.72,3.88-2.94,9.62-3.4,9.62-3.4,0,0-4.77-.15-7.73,1.13,1.34-1.61,2.89-3.41,4.59-5.41,4.52-3.49,8.86-2.71,8.86-2.71,0,0-3.55-1.53-6.82.29,1.64-1.96,3.4-4.05,5.18-6.25,3.85-3.02,7.61-2.69,7.61-2.69,0,0-2.91-.94-5.7.33,1.99-2.48,3.99-5.07,5.95-7.69,1.62-2.18,3.86-4.83,6.36-7.68,3.13-2.28,6.05-2.28,6.05-2.28,0,0-2.03-.44-4.24.22,2.78-3.1,5.81-6.39,8.73-9.57,4.45-.89,6.99-3.02,6.99-3.02,0,0-2.48,1.59-6.14,2.09,1.87-2.03,3.65-4,5.29-5.84,2.98-2.09,5.79-2.64,5.79-2.64,0,0-1.92.12-4.55,1.24,2.39-2.72,4.36-5.08,5.54-6.83,3.06-4.45,5.11-9.3,4.82-11.52,1.22-3.83,3.5-6.07,3.5-6.07,0,0-2.26,1.78-3.76,4.68-.11-.41-.17-.69-.17-.69,0,0-.28-6.02-.63-12.36.86-5.18,4-8.3,4-8.3,0,0-2.73,2.11-4.16,5.57-.22-3.53-.45-6.88-.68-9.06.55-5.05,3.32-8.23,3.32-8.23,0,0-2.42,2.21-3.62,5.58-.71-6.29-1.35-13.58-2.21-21.36.38-5.95,3.98-9.6,3.98-9.6,0,0-3.14,2.61-4.33,6.59-.11-.74-.17-1.47-.27-2.24-.12-.95-.27-1.91-.39-2.86.23-5.7,3.43-9.38,3.43-9.38,0,0-2.77,2.57-3.85,6.36-.52-3.45-1.06-6.91-1.54-10.27.04-5.46,2.82-9.12,2.82-9.12,0,0-2.29,2.37-3.27,5.84-.53-3.68-.95-7.26-1.14-10.56.53-4.65,2.94-7.63,2.94-7.63,0,0-2.01,2.03-3.15,5.09-.3-3.92-.98-8.31-1.74-12.45-.09-5.64,2.02-8.75,2.02-8.75,0,0-1.83,2.39-2.56,5.79-.79-4.06-.25-6.64-.02-8.91.14-1.26.19-2.74.21-4.26,1.18-3.84,3.29-5.18,3.29-5.18,0,0-1.94.95-3.29,3.51-.03-4.42-.38-8.84-.57-9.89-.28-1.52-4.21-2.05-4.98,0-1.2,3.18.09,22.97,1.03,28.48.59,3.34.41,8.26.43,13.13-1.63-3.05-4.14-4.85-4.14-4.85,0,0,2.88,2.55,4.17,7.08.06,2.39.19,4.74.54,6.78.09.52.19,1.14.29,1.79-1.66-2.16-3.57-3.33-3.57-3.33,0,0,2.23,1.76,3.85,5.04.53,3.29,1.21,7.65,1.89,12.42-1.44-2.33-2.89-3.13-2.89-3.13,0,0,1.76,1.17,3.12,4.72.53,3.71,1.04,7.63,1.52,11.41-1.57-2.04-3.5-2.83-3.5-2.83,0,0,2.39,1.5,3.75,5.1.34,2.96.62,5.77.81,8.32,1,12.83,2.87,34.18,2.87,34.18,0,0-2.66-.26-5.43,2.59,1.15-3.76.88-6.44.88-6.44,0,0-.1,3.55-1.98,7.67-1.53,2.01-4.04,5.67-6.66,9.66.35-3.41-.72-6.3-.72-6.3,0,0,.96,3.71-.51,8.16-2.28,3.57-4.59,7.24-6.29,10.2.25-3.32-.34-5.48-.34-5.48,0,0,.56,3.34-.39,6.78-.24.4-.46.82-.68,1.2-1.53,2.87-4.18,6.25-7.31,9.91.47-2.34.15-4.26.15-4.26,0,0-.04,2.53-1.5,5.81-3.97,4.58-8.58,9.55-12.81,14.54-6.2,7.37-9.64,13.65-12.04,17.64.17-2.33-.71-4.23-.71-4.23,0,0,.71,3.35-1.35,7.32-2.53,3.16-8.01,5.17-12.2,9.66-.45.48-.9,1.04-1.34,1.59-.1-2.15-1.06-3.8-1.06-3.8,0,0,.68,2.24-.04,5.33-4.09,5.92-6.93,13.68-6.93,13.68,0,0-2.73-1.24-4.93-.64-.81.23-3.98,3.54-7.39,6.98,1-3.11.69-5.94.69-5.94,0,0,.03,3.63-2.25,7.51-1.53,1.52-3.02,2.98-4.31,4.1-1.49,1.28-4.8,3.77-8.88,6.74,1.78-3.38,1.65-7.01,1.65-7.01,0,0-.34,4.49-3.81,8.56-2.54,1.83-5.3,3.78-8.07,5.7.86-2.21.7-4.43.7-4.43,0,0-.14,3.02-2.5,5.68-3.09,2.13-6.1,4.21-8.79,5.99,2.14-3.32,1.26-6.66,1.26-6.66,0,0,.38,4.42-4.02,8.5-.73.46-1.41.9-2.03,1.3-1.76,1.12-3.49,2.09-5.17,3,1.13-2.43.9-5.05.9-5.05,0,0-.06,3.18-2.61,5.97-3.34,1.68-6.41,2.93-8.95,3.64,3.41-2.64,4.75-6.44,4.75-6.44,0,0-2.61,4.54-6.57,6.85-1.68.3-3.05.38-3.95.06-3.73-1.28-6.81-1.37-8.64-1.23.46-.69.9-1.52,1.24-2.48,2.04-5.67,1.45-8.88,1.45-8.88,0,0,1.88-2.88,4.69-7.19,4.16-4.35,9.33-4.81,9.33-4.81,0,0-4.17-.06-7.69,2.29,1.32-2.03,2.78-4.26,4.33-6.59,4.48-3.95,9.62-4.01,9.62-4.01,0,0-4.43-.44-8.21,1.88,1.12-1.7,2.25-3.44,3.41-5.18,4.92-.98,11.45-5.85,11.45-5.85,0,0-5.71,3.71-10.36,4.21,3.03-4.59,5.99-9.04,8.42-12.65,4.51-4.02,9.7-4.09,9.7-4.09,0,0-4.43-.42-8.21,1.89.02-.03.04-.05.05-.09.73-1.06,1.43-2.09,2.12-3.13,4.65-5.67,11.13-5.88,11.13-5.88,0,0-5.08-.39-8.96,2.59,2.35-3.58,4.44-6.9,6.16-9.67,4.12-1.63,7.24-5.85,7.24-5.85,0,0-3.67,3.69-6.08,3.98,2.26-3.69,3.63-6.02,3.63-6.02,0,0,4.02-3.64,7.11-8.21,3.79-5.59,5.24-14.48,5.24-14.48,0,0,2.1-2.24,4.19-6.07,3.27-3.27,8.3-4.67,8.3-4.67,0,0-4.48.71-7.16,2.45.51-1.11.97-2.35,1.42-3.65,3.3-4.14,7.36-4.54,7.36-4.54,0,0-4.1-.5-6.7,2.48.34-1.28,1.12-3.14,2.16-5.35,3.27-4.2,7.35-4.63,7.35-4.63,0,0-3.38-.4-5.94,1.76,1.19-2.33,2.55-4.92,4.07-7.7,3.23-3.97,7.13-4.39,7.13-4.39,0,0-3.02-.34-5.5,1.45,1.86-3.34,3.85-6.81,5.82-10.22,2.95-3.15,6.21-3.6,6.21-3.6,0,0-2.44-.23-4.71,1.05,2.24-3.85,4.41-7.51,6.33-10.74,4.67-1.48,7.11-4.18,7.11-4.18,0,0-2.54,2.13-6.45,3.09,1.3-2.19,2.44-4.1,3.36-5.67,2.55-2.75,5.34-3.89,5.34-3.89,0,0-1.94.52-4.32,2.17.12-.24.31-.54.44-.76,1.24-2.15,2.49-4.13,3.63-6.08,3.34-3.73,7.36-4.75,7.36-4.75,0,0-3.11.43-5.98,2.4,1.36-2.42,2.52-4.79,3.2-7.26,2.96-3.73,6.66-4.96,6.66-4.96,0,0-3.42.74-6.21,3.26.35-1.96.42-4.05.06-6.33,1.73-3.35-1.16-15.39-4.78-27.61.17-4.79,2.44-8.02,2.44-8.02,0,0-2.21,2.52-3.02,6.06-.68-2.22-1.36-4.42-2.04-6.57,0-5.27,2.58-8.87,2.58-8.87,0,0-2.54,2.79-3.27,6.68-1.97-6.15-3.79-11.56-4.95-15.19-.4-4.37,1.07-7.59,1.07-7.59,0,0-1.36,2.26-1.79,5.31-.49-1.58-1.05-3.41-1.63-5.36-.31-4.74,1.58-8.14,1.58-8.14,0,0-1.72,2.47-2.26,5.8-.52-1.73-1.03-3.54-1.57-5.4-.29-5.51,2.34-9.38,2.34-9.38,0,0-2.44,2.83-3.08,6.71-.91-3.18-1.8-6.4-2.62-9.41-.24-4.52,1.47-7.77,1.47-7.77,0,0-1.53,2.28-2.11,5.42-1.53-5.67-2.72-10.35-3.09-12.29-.29-1.48-.67-3.36-1.14-5.39-.18-4.48,1.2-7.09,1.2-7.09,0,0-1.21,2-1.76,4.84-.53-2.07-1.2-4.16-2.01-6.08-1.15-5.25.69-7.98.69-7.98,0,0-1.84,2.17-1.67,5.82-.73-1.38-1.53-2.63-2.44-3.53.91-7.99,11.15-19.44,11.37-22.57,2.63-2.54,2.43-4.92.54-4.68-1.86.22-3.17-1.49-4.56-1.25-1.38.25-1.42,3.99-1.52,6.91-.87,2.05-13.13,18.54-9.81,23.04-.7,1.6.02,6.53,1.49,12.97-2.48-3.24-6.17-4.58-6.17-4.58,0,0,4.4,2.16,6.82,7.36.64,2.67,1.4,5.56,2.21,8.53-2.4-2.77-5.6-3.92-5.6-3.92,0,0,3.91,1.98,6.33,6.61.58,2.06,1.18,4.15,1.8,6.24-2.54-2.83-5.94-3.94-5.94-3.94,0,0,4.14,1.92,6.73,6.65.95,3.26,1.92,6.44,2.85,9.48-3.16-3.42-7.87-4.04-7.87-4.04,0,0,5.11,1.27,8.56,6.29.75,2.44,1.47,4.71,2.13,6.84-3.22-4.34-6.39-4.87-6.39-4.87,0,0,3.91.99,7.42,8.17,1.01,3.2,1.79,5.74,2.26,7.28-1.94-1.85-4.09-2.28-4.09-2.28,0,0,2.73,1.06,4.73,4.49.62,2.17,1.42,5.16,2.33,8.57-2.47-2.82-5.71-3.06-5.71-3.06,0,0,3.92,1,6.44,5.87.45,1.69.9,3.43,1.36,5.23-2.2-2.53-5.02-2.94-5.02-2.94,0,0,3.63,1.22,5.81,5.95.44,1.71.89,3.43,1.32,5.11-2.38-2.93-5.71-4.19-5.71-4.19,0,0,4.09,2.13,6.46,7.08,2.43,9.44,4.42,17.36,4.42,17.36,0,0-3.55,1-6.47,4.58.64-4.31-.21-7.22-.21-7.22,0,0,.61,3.72-.62,8.31-.48.73-.95,1.54-1.36,2.48-.52,1.22-1.05,3.09-1.66,5.27-.55-3.66-2.64-6.36-2.64-6.36,0,0,2.4,4.02,1.76,9.5-.82,3.01-1.85,6.38-3.14,9.77-.32-3.52-1.37-5.67-1.37-5.67,0,0,1.26,3.38.81,7.07-.64,1.58-1.33,3.13-2.14,4.63-.17.3-.36.72-.62,1.18-.02-2.89-1.79-5.07-1.79-5.07,0,0,1.57,3.21.37,7.71-1.35,2.48-3.08,5.67-4.94,9.1.06-3.07-1.92-5.39-1.92-5.39,0,0,1.72,3.29.52,7.98-2.38,4.35-4.75,8.75-6.58,12.13-.21-2-1.1-3.46-1.1-3.46,0,0,.74,2.33-.03,5.55-.41.75-.77,1.42-1.06,1.97-2.48,4.62-4.84,10.58-6.72,15.06-.25-2.8-2.1-4.77-2.1-4.77,0,0,1.81,3.14.85,7.75-.29.63-.56,1.2-.79,1.67-2.69,5.35-6.68,8.26-10.19,13.49-3.52,5.18-4.51,11.27-4.51,11.27,0,0-4.77,5.39-8.63,10.13.72-3.57.44-6.48.44-6.48,0,0,.09,3.59-1.73,8.06-.61.79-1.2,1.53-1.69,2.19-2.11,2.83-5.04,7.32-7.49,11.29.5-3.55.06-6.4.06-6.4,0,0,.34,3.84-1.44,8.69-1.39,2.32-2.47,4.26-2.85,5.2-1.13.66-2.78,3.02-4.66,6.13.51-3.56.08-6.41.08-6.41,0,0,.1,3.93-1.25,8.47-1.04,1.86-2.14,3.89-3.19,5.94,0-3.47-1.41-6.31-1.41-6.31,0,0,1.39,3.7.36,8.38-.99,1.95-1.94,3.87-2.82,5.65.08-3.74-1.58-6.82-1.58-6.82,0,0,1.67,4.26.27,9.47-1.4,2.84-2.47,4.99-2.93,5.65-2.94-2.24-7.66-3.02-9.81-2.27-.03-2.49-.47-4.84-1.51-6.88,1.03-1.82,2.57-4.92,3.91-9,1.87-5.67,2.78-11.91,3.76-18.32,1.86-4.13,3.22-7.16,3.22-7.16,0,0-2.3,1.77-3.83,4.67.02-1.58.03-3.16.08-4.75,1.96-4.61,1.4-12.58,1.4-12.58,0,0,.25,5.22-1.28,9.15.18-4.42-.5-10.9-1.38-16.98.46-4.09,2.28-6.78,2.28-6.78,0,0-1.63,1.87-2.59,4.67-.17-1.05-.31-2.1-.49-3.11.78-4.74,3.45-7.67,3.45-7.67,0,0-2.52,2.21-3.76,5.64-.84-4.92-1.65-8.9-2.34-10.37-1.98-4.21-5.7-1.84-5.36,3.64.07.99.21,2.15.35,3.37-1.48-2.63-3.02-4.29-3.02-4.29,0,0,2.03,2.47,3.34,6.7.37,2.92.92,6.18,1.46,9.47-1.83-3.45-4.16-5.68-4.16-5.68,0,0,3.02,3.77,4.68,9,.16,1.01.3,2.01.45,2.96.21,1.4.45,2.85.68,4.27-.65-1.03-1.43-1.89-2.22-2.61.96,1.1,1.86,2.6,2.25,4.67,0,3.06-.04,6.1-.08,9.1-1.28-3.19-2.93-5.3-2.93-5.3,0,0,2.01,3.03,2.86,7.91-.07,2.83,0,4.84-.54,7.23-.38,1.7-.78,3.23-1.14,4.64-.54-3.54-1.77-6.17-1.77-6.17,0,0,1.38,3.51,1.08,8.58-1.62,5.68-2.96,8.64-3.57,9.88-.04-.04-.09-.07-.15-.11-7.82-3.81-14.75.44-16.92.44s-6.7-4.76-14.4-1.22l-1.43-.28s-1.59-2.81-3.44-10.85c.09-5.27,1.87-8.8,1.87-8.8,0,0-1.59,2.7-2.41,6.45-.3-1.44-.61-3-.92-4.69-.42-2.43-.79-5.18-1.15-8.02.28-4.76,2.74-7.47,2.74-7.47,0,0-2.19,1.74-3.05,4.85-.45-3.98.13-7.49.57-11.52,1.6-4.33,4.58-6.64,4.58-6.64,0,0-2.52,1.58-4.34,4.38.06-.62.14-1.26.21-1.87.17-1.66.37-3.41.58-5.16,1.28-5.02,3.76-8.72,3.76-8.72,0,0-1.9,2.14-3.4,5.37.29-2.75.54-5.42.62-7.82.91-4.93,3.06-8,3.06-8,0,0-1.71,2.11-3.05,5.26-.02-.87-.08-1.71-.19-2.44-.85-5.61-2.82-6.66-3.71-3.04-.33,1.26-.84,4.11-1.43,7.71-.82-2.37-2.06-3.95-2.06-3.95,0,0,1.33,2.16,1.81,5.51-.49,3.1-1.01,6.63-1.52,10.18-1.1-3.37-3.4-5.62-3.4-5.62,0,0,2.59,3.17,3.04,8.1-.1.73-.2,1.46-.29,2.19-1.06-3.06-3.02-5.12-3.02-5.12,0,0,2.2,2.9,2.71,7.36-.43,3.29-.54,6.48-.54,8.85-2.12-3.64-2.81-8.86-2.81-8.86,0,0,.62,6.85,2.84,11.17v.04c.11,4.71.43,9.84.96,14.33-1.84-2.37-4.07-3.65-4.07-3.65,0,0,2.54,1.89,4.31,5.47.45,3.46.99,6.85,1.86,10.05,1.27,4.62,2.83,8,3.73,9.74-1.94,2.69-2.59,6.17-2.4,9.86,0,0-5.57-3.51-10.63.93-.41-.54-1.29-2.21-2.47-4.4-2.01-5.56-.26-10.31-.26-10.31,0,0-1.68,3.39-1.3,7.34-.86-1.62-1.78-3.35-2.75-5.16-1.6-5.06-.2-9.28-.2-9.28,0,0-1.45,3.06-1.21,6.7-1.38-2.49-2.78-4.99-4.14-7.19-1.19-4.12-1.22-7.52-1.22-7.52,0,0-.31,2.54.15,5.8-1.84-2.85-3.47-5.02-4.58-5.62-.43-.95-1.58-2.88-3.05-5.21-1.71-4.57-1.53-8.18-1.53-8.18,0,0-.34,2.71.19,6.12-2.56-3.93-5.67-8.39-7.87-11.18-.41-.54-.92-1.11-1.4-1.72-2.27-4.61-2.36-8.45-2.36-8.45,0,0-.13,3.06.82,6.66-4.02-4.68-9.06-10.08-9.06-10.08,0,0-1.16-6.02-4.81-11.14-2.41-3.34-4.95-5.72-7.24-8.43-1.96-4.18-1-7.59-1-7.59,0,0-1.29,2.29-.92,5.01-.49-.7-.99-1.35-1.43-2.16-2.07-3.84-5.62-13-9.31-19.46-.15-.24-.32-.53-.46-.8-.59-2.79.03-4.76.03-4.76,0,0-.74,1.35-.95,3.18-1.86-3.24-4.55-7.86-7.24-12.53-1.4-4.18-.19-7.33-.19-7.33,0,0-1.39,2.03-1.37,4.64-1.25-2.15-2.45-4.22-3.55-6.12-1.65-4.76-.03-8.3-.03-8.3,0,0-1.85,2.41-1.62,5.47-1.17-2.04-2.12-3.69-2.65-4.63-.62-1.09-1.2-2.2-1.74-3.34-.97-4.06.39-8.15.39-8.15,0,0-1.09,2.36-1.23,6.18-1.51-3.47-2.67-6.96-3.64-10.07-.21-4.08,1.17-7.02,1.17-7.02,0,0-1.29,2.09-1.8,4.98-.85-2.77-1.55-5.11-2.23-6.57-.85-1.86-1.96-3.26-3.09-4.37-1.46-4.13-1.34-7.54-1.34-7.54,0,0-.48,2.77.5,6.75-2.54-2.14-4.97-2.74-4.97-2.74,0,0,2.23-8.09,4.84-17.57v1.3c1.15-7.69,7.14-11.13,7.14-11.13,0,0-3.59,1.62-5.83,5.03.95-3.34,1.86-6.68,2.74-9.81,1.98-3.84,4.94-4.99,4.94-4.99,0,0-2.28.47-4.26,2.51,1.15-4.17,2.13-7.67,2.79-9.99,1.8-3.07,4.18-4.14,4.18-4.14,0,0-1.83.44-3.55,2.04.63-2.15,1.69-5.53,2.97-9.67,2.3-5.03,5-6.16,5-6.16,0,0-2.04.68-4.18,3.55.64-2.16,1.33-4.46,2.06-6.85,2.24-3.44,5.09-5.05,5.09-5.05,0,0-2.37.98-4.51,3.13.76-2.56,1.54-5.2,2.31-7.85,2.24-4.84,6.17-7.04,6.17-7.04,0,0-3.01,1.24-5.29,3.97.69-2.46,1.36-4.9,2.01-7.29,2.2-3.61,5.11-5.29,5.11-5.29,0,0-2.44,1.05-4.58,3.33.8-3.08,1.55-6.02,2.16-8.73,2.01-3.96,5.05-5.91,5.05-5.91,0,0-2.52,1.25-4.57,3.73,1.33-6.07,2.6-11.18,1.21-12.15.59-5.57-2.85-21.13-3.38-23.27.36-2.92.9-6.6-.43-7.08-1.33-.45-2.9,1.04-4.72.52-1.81-.53-2.39,1.78-.18,4.72-.16,1.9-.22,8.58.8,15-1.74-2.09-3.71-2.68-3.71-2.68,0,0,2.14.92,3.99,4.18.7,3.68,1.78,7.13,3.49,9.37-.83,3.17-3.75,4.32-4.89,8.46-.7-2.78-1.99-4.69-1.99-4.69,0,0,1.34,2.28,1.54,6.32-.67,2.71-1.15,5.27-1.53,7.19-.35,1.84-1.4,6.11-2.77,11.34-.74-3.14-2.43-5.38-2.43-5.38,0,0,1.81,3.04,1.89,7.41-.75,2.85-1.57,5.87-2.42,8.93-.71-2.96-2.25-5.06-2.25-5.06,0,0,1.62,2.83,1.73,6.93-.53,1.94-1.07,3.85-1.6,5.72-.51-3.49-2.36-6.09-2.36-6.09,0,0,2.11,3.85,1.51,9.06-.66,2.32-1.3,4.45-1.86,6.33-.49-3.39-2.2-5.92-2.2-5.92,0,0,1.88,3.52,1.44,8.36-1.04,3.33-2.81,8.4-4.77,14.16-.79-3.32-2.73-5.67-2.73-5.67,0,0,1.94,2.96,2.18,7.32-.73,2.21-1.48,4.49-2.23,6.78-.7-2.4-1.84-4.04-1.84-4.04,0,0,1.12,2.08,1.47,5.2-4.05,12.67-7.56,25.63-5.63,29.16-.29,2.22-.15,4.27.24,6.21-2.51-2.23-5.36-3.07-5.36-3.07,0,0,3.19,1.33,5.83,4.71.73,2.46,1.89,4.79,3.29,7.14-2.77-1.64-5.59-1.96-5.59-1.96,0,0,3.51.78,6.75,3.79,1.34,2.11,2.8,4.26,4.26,6.63.12.19.28.44.4.64-2.27-1.41-4.05-1.82-4.05-1.82,0,0,2.46.93,4.94,3.23.85,1.37,1.91,3.04,3.13,4.96-3.93-.84-6.52-2.9-6.52-2.9,0,0,2.5,2.64,7.21,3.99,2.94,4.66,6.6,10.45,10.24,16.34-2.36-1.33-4.92-.99-4.92-.99,0,0,3.43.38,6.54,3.66,1.16,1.92,2.32,3.81,3.41,5.65-2.17-1.24-4.46-1.12-4.46-1.12,0,0,3.21.57,6.04,3.8,1.68,2.86,3.21,5.6,4.49,7.97-2.66-2.4-6.32-1.86-6.32-1.86,0,0,4.52.39,7.98,5.14.83,1.7,1.44,3.12,1.75,4.15.04.13.09.25.14.37-2.71-2.87-6.76-2.25-6.76-2.25,0,0,4.05.26,7.48,4.29.7,1.83,1.48,3.45,2.28,4.87-2.74-1.37-6.6-1.92-6.6-1.92,0,0,4.47,1.13,7.79,3.89,1.85,2.82,3.44,4.45,3.44,4.45,0,0,1.7,8.84,5.66,14.35,3.21,4.45,7.33,7.98,7.33,7.98,0,0,1.65,2.63,4.34,6.71-2.39.11-6.49-3.81-6.49-3.81,0,0,3.43,4.38,7.79,5.77,2.3,3.49,5.18,7.73,8.35,12.18-3.46-1.5-6.95-1.11-6.95-1.11,0,0,4.03,0,8.07,2.68.28.37.54.75.81,1.13.62.83,1.28,1.76,1.96,2.72-3.61-1.68-7.38-1.22-7.38-1.22,0,0,4.34-.03,8.59,2.92,2.01,2.81,4.26,6,6.56,9.26-4.49-.68-9.64-3.83-9.64-3.83,0,0,5.88,4.13,10.69,5.33,1.46,2.07,2.92,4.15,4.34,6.18-3.49-1.45-6.99-1.01-6.99-1.01,0,0,3.96-.07,8.02,2.48,1.64,2.36,3.21,4.6,4.64,6.66-3.62-2.29-7.82-2.11-7.82-2.11,0,0,5.25.31,9.55,4.59,3.08,4.42,5.17,7.44,5.17,7.44,0,0-.52,3.22,1.69,8.83.58,1.48,1.36,2.62,2.11,3.46-.49.7-1.33,1.56-1.33,1.56,0,0-4.85-.41-11.19.68-.96.17-2.39,0-4.1-.39-3.7-2.45-6.04-6.8-6.04-6.8,0,0,1.2,3.68,4.39,6.38-1.83-.54-3.93-1.36-6.2-2.41-3.39-2.64-3.8-6.32-3.8-6.32,0,0-.02,2.79,1.41,5.14-2.25-1.15-4.63-2.54-7.05-4.15-.67-.46-1.4-.95-2.19-1.49-2.81-3.11-2.92-6.21-2.92-6.21,0,0-.31,2.29.92,4.81-2.68-1.86-5.72-4.03-8.83-6.32-1.95-2.61-2.02-5.28-2.02-5.28,0,0-.2,2.04.52,4.18-2.57-1.87-5.1-3.76-7.51-5.55-3.8-3.91-4.38-8.48-4.38-8.48,0,0,0,3.34,1.77,6.5-4.25-3.23-7.73-5.97-9.23-7.35-1.15-1.04-2.46-2.35-3.79-3.74-1.56-3.17-1.62-5.87-1.62-5.87,0,0-.17,2.13.52,4.68-3.64-3.8-7.19-7.76-8.07-8.02-2.19-.67-4.96.53-4.96.53,0,0-7.48-11.48-14.02-15.63-4.68-2.99-10.27-3.19-13.25-5.65-2.46-3.81-2-7.25-2-7.25,0,0-.87,2.29-.27,4.81-2.75-3.58-6.82-10.14-14.43-17.75-4.61-4.61-9.61-9.15-13.94-13.36-1.53-3.26-1.15-5.91-1.15-5.91,0,0-.79,2.03-.37,4.41-3.43-3.36-6.35-6.49-8.14-9.22-.26-.39-.52-.8-.83-1.24-.8-2.93-.59-5.59-.59-5.59,0,0-.37,1.86,0,4.75-1.84-2.64-4.26-5.91-6.74-9.13-1.76-4.07-1.33-7.62-1.33-7.62,0,0-.63,2.7-.02,5.85-3.46-4.43-6.79-8.47-8.51-10.28-1.78-3.33-2.23-6.12-2.23-6.12,0,0,.06,2.19,1.27,5.26-3-2.44-7.17-2.63-7.17-2.63,0,0,5.28-18.65,7.5-31.32.26-1.51.57-3.1.9-4.77,1.81-3.98,4.77-5.26,4.77-5.26,0,0-2.37.58-4.25,2.81.91-4.43,2.02-9.21,3.1-13.71,1.89-3.67,3.9-4.65,3.9-4.65,0,0-1.69.65-3.51,3.02,1.14-4.62,2.21-8.89,3.08-12.16,1.86-3.51,4.43-5.33,4.43-5.33,0,0-2.03,1.09-3.86,3.19.18-.71.37-1.4.51-1.95.58-2.14.94-4.63,1.23-7.17,1.87-4.3,5.04-6.48,5.04-6.48,0,0-2.79,1.51-4.8,4.41.46-4.74.78-9.49,1.65-12.7,1.48-5.42,9.64-23.24,9.67-26.63.03-2.21-3.81-3.13-4.64-1.81-.47.73-1.86,3.59-3.25,6.84-.3-2.07-1.19-3.29-1.19-3.29,0,0,.87,1.55.71,4.41-.94,2.29-1.83,4.68-2.37,6.66-.54,1.94-1.45,4.88-2.45,8.28-.45-2.99-1.71-5.12-1.71-5.12,0,0,1.37,2.74,1.05,7.35-1.24,4.29-2.52,9.02-3.36,13.33-.79-2.56-2.08-4.34-2.08-4.34,0,0,1.46,2.53,1.73,6.27-.04.34-.12.7-.19,1.01-.47,3.31-1.28,6.89-2.14,10.55-.69-3.08-2.32-5.28-2.32-5.28,0,0,1.8,3.11,1.78,7.55-.71,2.87-1.46,5.81-2.2,8.75-.78-3.47-2.86-5.94-2.86-5.94,0,0,2.27,3.4,2.29,8.34-.52,2.02-1.02,4.04-1.46,6.05-.14.57-.24,1.11-.37,1.67-.84-3.73-3.32-6.39-3.32-6.39,0,0,2.77,3.75,2.72,9.23-1.61,7.52-2.94,14.6-4.24,20.76-.87-3.01-2.61-5.08-2.61-5.08,0,0,1.86,2.85,2.2,7.07-.05.21-.1.45-.14.65-.37,1.74-5.04,5.23-4.88,8.48-.24-.29-.37-.62-.45-.95-.02.72.12,1.5.51,2.28.39,7.35.99,15.63.99,15.63,0,0,.13,1.28.94,3.36-3.2-2.15-6.83-2.37-6.83-2.37,0,0,3.97.67,7.53,4,.91,1.94,2.28,4.3,4.44,6.93,1.29,1.59,3.37,3.71,5.88,6.1-2.68-.87-4.6-.82-4.6-.82,0,0,2.81.32,5.91,2.08,1.5,1.42,3.11,2.93,4.81,4.49-3.39-.29-5.75-1.5-5.75-1.5,0,0,2.5,1.76,6.67,2.36,3.48,3.2,7.15,6.56,10.54,9.72-1.97-.03-3.53.65-3.53.65,0,0,1.96-.39,4.64.39,3.19,3.04,6.05,5.87,8.09,8.16,2.07,2.33,4.18,4.58,6.25,6.77-2.44-.58-4.63.21-4.63.21,0,0,2.9-.36,6.26,1.53,2.19,2.26,4.29,4.4,6.28,6.4-3.14-.99-6.07.59-6.07.59,0,0,3.61-.98,7.94,1.27,2.4,2.4,4.53,4.49,6.3,6.27-3.1-1.03-8.25-.02-8.25-.02,0,0,5.65-.49,9.94,1.73,1.3,1.35,2.33,2.47,2.86,3.18,2.4,3.4,2.44,8.05,9.69,12.12,1.14.64,2.44,1.3,3.8,1.96-3.52.43-6.21,2.28-6.21,2.28,0,0,3.27-1.75,7.82-1.51,2.03.94,4.12,1.83,6.07,2.65-3.18.79-5.59,3.21-5.59,3.21,0,0,3.27-2.58,7.63-2.39,3.66,1.46,6.41,2.45,6.41,2.45,0,0-2.6,4.03.26,7.39.85.99,3.97,3.75,8.32,7.26-3.73-.87-7.16.16-7.16.16,0,0,4.51-.81,9.38,1.64,2.14,1.7,4.48,3.51,6.97,5.4-4.21-.81-8.07.92-8.07.92,0,0,4.69-1.51,10.05.58,1.12.83,2.26,1.65,3.39,2.5-3.01-.32-5.48.41-5.48.41,0,0,3.14-.53,6.98.66,4.14,2.98,8.37,5.86,12.37,8.39-4.36.95-9.97.08-9.97.08,0,0,6.61,1.46,11.48.85,1.61.98,3.13,1.86,4.6,2.67-2.78.09-4.93.98-4.93.98,0,0,2.74-.79,6.39-.18,1.04.56,2.05,1.03,3.01,1.47,13.34,6,26.52,10.75,34.81,17.16-.28,2.3-.44,4.72-.42,7.34,0,.19.04.36.04.54-.99-.04-1.99.1-2.92.64-2.33,1.33-5.05.94-8.7.13-3.9-1.85-6.79-5.5-6.79-5.5,0,0,1.55,2.9,4.61,5-1.35-.3-2.8-.62-4.43-.92-.91-.18-2.4-.39-4.3-.65-3.93-1.78-5.17-5.31-5.17-5.31,0,0,.65,3.01,2.84,5-2.12-.26-4.57-.55-7.2-.86-5.12-1.75-6.69-5.42-6.69-5.42,0,0,.72,3.09,3.8,5.09-1.71-.19-3.47-.37-5.28-.57-5.58-4.21-10.35-5.35-10.35-5.35,0,0,4.2,1.22,8.07,5.1-3.07-.3-6.16-.62-9.14-.87-4.45-1.29-6.16-4.98-6.16-4.98,0,0,.94,2.94,3.28,4.73-2.42-.21-4.66-.4-6.75-.54-5.09-1.79-7.63-5.57-7.63-5.57,0,0,1.76,3.38,5.19,5.42-4.12-.23-7.11-.29-7.9-.04-.17-.06-.45-.15-.66-.21-4.93-2.11-7.25-6.01-7.25-6.01,0,0,1.28,2.85,3.97,5.06-5.18-1.21-13.28-2.28-16.61-1.26-4.46,1.37-8.36,6.87-8.36,6.87,0,0-3.44,1.59-8.54,5.53l.02-.02s-.06.04-.1.06c-.7.56-1.45,1.15-2.21,1.79-4.01,2.67-7.68,2.11-7.68,2.11,0,0,2.36.95,4.94.3-.25.25-.53.49-.79.74l.16-.29c-.25.33-.53.58-.79.9-.63.6-1.27,1.22-1.91,1.89-4.2,3.48-8.81,3.69-8.81,3.69,0,0,3.21.22,6.48-1.2-1.38,1.55-2.8,3.22-4.21,5.02-5.48,1.86-8.19,5.03-8.19,5.03,0,0,3.14-2.97,7.24-3.79-2.9,3.76-5.18,6.95-6.93,9.64-2.52,1.89-4.84,2.19-4.84,2.19,0,0,1.79.21,3.76-.51-4.86,7.76-5.08,10.61-5.08,10.61,0,0-3.36,1.24-9.4,5.29-4.01,1.86-7.5,1.4-7.5,1.4,0,0,2.69.63,5.33.13-2.27,1.66-4.55,3.62-6.69,5.86-2.43.93-4.46.67-4.46.67,0,0,1.61.4,3.57.21-.05.04-.1.09-.13.13-1.74,1.95-3.52,4.05-5.29,6.18-2.85,1.67-5.32,2.01-5.32,2.01,0,0,2.03-.06,4.43-.9-1.58,1.91-3.12,3.84-4.6,5.67-3.8,2.64-7.58,2.85-7.58,2.85,0,0,3.09.16,6.25-1.2-2.21,2.73-4.26,5.18-5.98,7.04-2.78,1.81-5.25,2.25-5.25,2.25,0,0,1.79-.12,3.97-.94-1.16,1.12-2.11,1.86-2.84,2.09-3.58,1.06-6.49,2.19-6.4,3.67.09,1.48,2.33,1.25,2.95,2.02.63.74,1.05,3.09,2.22,2.62,1.15-.44,2.02-4.62,5.1-7.33.46-.42,1.29-1.07,2.34-1.87-1.1,2.36-1.32,4.45-1.32,4.45,0,0,.56-2.68,2.71-5.53,2.25-1.74,5.15-3.93,8.26-6.25-1.42,2.54-1.86,4.82-1.86,4.82,0,0,.9-2.92,3.45-6.01,1.85-1.38,3.71-2.77,5.5-4.1-1.76,2.95-2.22,5.69-2.22,5.69,0,0,1.32-3.74,4.51-7.39,1.94-1.44,3.68-2.76,5.1-3.83-1.09,2.77-1.03,5.47-1.03,5.47,0,0,.54-3.4,2.64-6.69,2.14-1.62,4.18-3.51,6.11-5.42-.67,2.83-.32,5.25-.32,5.25,0,0-.07-2.95,1.5-6.41,3.37-3.42,6.98-7.62,7.91-9.77.82-1.92,4.31-3.73,7.77-7.47-.11,3.35-1.18,5.75-1.18,5.75,0,0,1.59-2.54,1.97-6.68.23-.27.45-.53.68-.81.49-.62,1.25-1.64,2.19-2.9-.08,2.77-.76,4.7-.76,4.7,0,0,1.11-2.13,1.38-5.57.58-.78,1.21-1.64,1.89-2.56.12,1.95.92,3.41.92,3.41,0,0-.57-1.95.04-4.75.76-1.04,1.57-2.13,2.39-3.26,0,1.97.69,3.49.69,3.49,0,0-.44-2.22.5-5.12,1.24-1.67,2.49-3.36,3.75-5.05-.17,2.46.9,4.46.9,4.46,0,0-.8-2.77.54-6.4,1.14-1.52,2.24-2.97,3.27-4.33.07,2.5.6,4.71.6,4.71,0,0-.28-2.85.08-5.55,3.22-4.17,5.77-7.16,6.39-7.12,1.32.09,3.97,1.49,7.23,2.36-2.64,1.62-4.2,3.78-4.2,3.78,0,0,1.88-2.11,5.24-3.53,1.09.22,2.21.41,3.37.41,2.8.04,6.25-.88,9.32-1.65-1.68,3.23-6.4,4.85-6.4,4.85,0,0,4.16-.5,8.35-5.3,1.61-.35,3.04-.58,4.05-.44.86.12,3.37.54,6.78,1.12-3.2,1.53-5.16,4.11-5.16,4.11,0,0,2.49-2.61,6.76-3.85,2.74.46,5.94.98,9.37,1.51-4.01,1.22-6.58,4.39-6.58,4.39,0,0,3.46-3.42,9.12-4.01,2.4.38,4.86.72,7.32,1.06-3.4,1.37-5.55,4.01-5.55,4.01,0,0,2.84-2.79,7.57-3.74,2.64.34,5.2.63,7.62.88-3.74,1.53-5.97,4.68-5.97,4.68,0,0,3.02-3.36,8.28-4.48.54.04,1.07.11,1.58.14,1.99.14,3.89.2,5.74.24-2.9,1.56-4.66,3.86-4.66,3.86,0,0,2.44-2.56,6.61-3.82,7.93.1,14.17-.25,16.31,2,2.78,2.9,10.45,5.12,10.45,5.12,0,0,3.01,4.69,4.58,6.85-1.65,0-3.7-.04-5.45-.37-2.3-.38-5.01,2.22-9.59,5.33-3.62.95-6.47-.42-6.47-.42,0,0,2.18,1.36,4.8,1.5-2.21,1.4-4.78,2.85-7.94,4.13-.74.29-1.65.67-2.64,1.08-3.66.28-5.91-1.11-5.91-1.11,0,0,1.56,1.38,4.09,1.85-3.44,1.45-7.82,3.32-12.65,5.55-7.33.02-12.05,2.19-12.05,2.19,0,0,4.81-1.54,9.33-.94-3.53,1.67-7.19,3.46-10.8,5.36-3.68.66-6.4-.97-6.4-.97,0,0,2.06,1.54,4.67,1.93-2.33,1.25-4.59,2.54-6.76,3.86-4.51.79-7.98-.58-7.98-.58,0,0,2.87,1.53,6.44,1.53-1.03.65-2.05,1.28-2.99,1.95-4.33,1.44-7.95.62-7.95.62,0,0,2.88.98,6.26.58-5.81,4.15-10.14,8.4-11.22,12.37-3.43,1.45-6.75,3.22-9.83,5.33-2.98.66-5.3.22-5.3.22,0,0,1.68.66,3.95.69-2.33,1.73-4.46,3.73-6.32,6-2.76,1.51-5.06,1.46-5.06,1.46,0,0,1.87.48,4.01-.04-.84,1.16-1.6,2.39-2.29,3.7-2.84,2.36-5.6,3.06-5.6,3.06,0,0,2.38-.31,4.89-1.72-.73,1.57-1.39,3.22-1.86,5.02-1.82,1.75-3.43,4.29-4.94,7.32-2.89,2.4-5.63,2.56-5.63,2.56,0,0,2.33.29,4.84-1.01-.95,2.11-1.87,4.46-2.78,6.98-2.33,2.45-4.84,3.44-4.84,3.44,0,0,2.14-.39,4.28-1.85-1.1,3.23-2.18,6.72-3.25,10.38-1.96,3.02-4.43,4.1-4.43,4.1,0,0,2-.38,3.75-1.83-.12.43-.24.82-.37,1.25-.95,3.25-1.97,6.63-2.99,9.97-2.29,4.67-5.09,5.83-5.09,5.83,0,0,2.08-.51,3.9-1.94-.7,2.28-1.36,4.47-2.01,6.55-2.18,3.89-5.32,5.7-5.32,5.7,0,0,2.51-1.09,4.64-3.43-.34,1.12-.66,2.2-.95,3.2-2.14,3.82-5.17,5.63-5.17,5.63,0,0,2.44-1.12,4.55-3.42-.81,2.89-1.33,5.1-1.38,6.17-.39,8,4.86,10.18,4.86,10.18,0,0-.46,3.1-.54,8.41-.94,2.58-2.37,3.92-2.37,3.92,0,0,1.26-.75,2.36-2.17,0,2.09.07,4.47.24,7.06-.87,3.83-2.8,6.2-2.8,6.2,0,0,1.74-1.65,2.94-4.28.15,1.91.37,3.93.67,6.04-.77,2.28-2.1,3.65-2.1,3.65,0,0,1.22-.95,2.25-2.52.04.3.08.6.13.91.21,1.37.49,3.13.83,5.09-.36,4.79-2.77,7.93-2.77,7.93,0,0,2.17-2.27,3.18-5.62.52,3.02,1.16,6.51,1.85,10.27-.29,4.05-1.98,6.79-1.98,6.79,0,0,1.53-1.9,2.36-4.68.53,2.69,1.06,5.55,1.61,8.44-.27,4.39-2.22,7.34-2.22,7.34,0,0,1.75-2.11,2.63-5.17.68,3.54,1.39,7.14,2.11,10.65-.42,4.05-2.18,6.75-2.18,6.75,0,0,1.64-1.97,2.54-4.84,1.18,5.78,2.32,11.29,3.36,16.05-.32,3.3-1.53,5.52-1.53,5.52,0,0,1.12-1.64,1.86-4.02.43,1.97.84,3.74,1.22,5.37-.35,3.18-1.5,5.28-1.5,5.28,0,0,1.1-1.59,1.83-3.92.34,1.41.67,2.7.93,3.71.79,2.79,1.53,5.24,2.21,7.44.02,4.01-1.4,6.82-1.4,6.82,0,0,1.38-2.09,1.98-4.99,1.18,3.68,2.12,6.48,2.66,8.57-.1,3.69-1.39,6.22-1.39,6.22,0,0,1.16-1.77,1.79-4.3.1.64.15,1.24.09,1.7-.38,2.97-.85,6.24,1.15,5.03,1.97-1.21,4.06,0,4.53-1.93.48-1.93-2.49-2.32-3.14-6.56-.12-.8-.54-3.1-1.13-6.37,1.61,1.41,3.41,2.04,3.41,2.04,0,0-2.12-1.02-3.67-3.47-.7-3.91-1.61-8.88-2.6-14.35,1.47,1.32,3.03,1.95,3.03,1.95,0,0-1.86-1.02-3.27-3.26-.42-2.28-.84-4.62-1.26-7,1.47,1.29,3.02,1.91,3.02,1.91,0,0-1.84-.99-3.26-3.2-.37-2.13-.76-4.26-1.12-6.37,1.56,1.48,3.32,2.19,3.32,2.19,0,0-2.14-1.16-3.59-3.81-.58-3.32-1.12-6.53-1.62-9.56,1.62,1.74,3.68,2.55,3.68,2.55,0,0-2.68-1.45-4.04-4.77-.29-1.76-.56-3.42-.79-4.97,1.61,1.7,3.62,2.51,3.62,2.51,0,0-2.53-1.38-3.93-4.52-.23-1.53-.43-2.97-.57-4.15-.04-.31-.08-.62-.12-.93,1.42,1.89,2.93,3.02,2.93,3.02,0,0-1.76-1.61-3.12-4.49-.33-2.62-.7-5.34-1.09-8.15,1.02,1.5,1.94,2.42,1.94,2.42,0,0-1.05-1.24-2.08-3.42-.46-3.24-.92-6.54-1.36-9.85,1.59,2.72,3.48,4.3,3.48,4.3,0,0-2.36-2.85-3.88-7.19-.15-1.12-.29-2.23-.45-3.32,1.21,1.76,2.51,2.85,2.51,2.85,0,0-1.61-1.93-2.75-4.84-.34-2.46-.61-4.87-.87-7.16,1.54,2.37,3.44,3.76,3.44,3.76,0,0-2.33-2.18-3.68-5.96-.18-1.82-.34-3.55-.45-5.17,1.2,1.73,2.83,2.6,2.83,2.6,0,0-2.14-1.87-3-5.54-.11-2.13-.13-4.06-.03-5.64,2.81-.44,4.03-5.03,5-11.51.6,1.34,1.29,2.26,1.29,2.26,0,0-.73-1.26-1.12-3.46.49-3.65.96-7.79,1.58-12.12.19-1.3.42-2.67.67-4.05.59,2.18,1.91,3.92,1.91,3.92,0,0-1.45-2.47-1.4-6.6.54-2.66,1.14-5.42,1.81-8.17.54,2.34,2,4.24,2,4.24,0,0-1.46-2.48-1.4-6.65.95-3.75,1.94-7.43,2.93-10.84.77,3.48-.17,8.57-.17,8.57,0,0,1.78-4.88.75-10.63.47-1.61.92-3.12,1.36-4.57.52,2.85,1.79,4.9,1.79,4.9,0,0-1.35-2.9-1.16-6.94,1.6-5.17,2.76-8.58,2.76-8.58,0,0,1.81-.55,4.32-1.85-1.21,2.2-1.6,4.17-1.6,4.17,0,0,.73-2.31,2.75-4.79.77-.42,1.56-.92,2.39-1.47-.9,2.46-.96,4.59-.96,4.59,0,0,.33-2.49,2.03-5.33.9-.66,1.78-1.39,2.69-2.19-.75,3.03-.31,5.68-.31,5.68,0,0-.15-3.2,1.52-6.87.62-.63,1.24-1.25,1.82-1.98.5-.64.95-1.3,1.41-1.95.18,1.56.7,2.85.91,3.32-.21-.51-.64-2.06.17-5.04,3.56-6.09,4.5-12.18,4.5-12.18,0,0,5.96,1.95,13.61-2.47.23-.12.54-.32.83-.49-1.24,2.23-1.63,4.26-1.63,4.26,0,0,.74-2.44,2.91-5.01,1.55-.92,3.6-2.13,6.04-3.6-1.58,2.74-1.88,5.44-1.88,5.44,0,0,.77-3.29,3.58-6.46,2.18-1.3,4.55-2.75,7.06-4.27-1.62,2.76-1.94,5.51-1.94,5.51,0,0,.79-3.41,3.71-6.6,3.28-2.02,6.67-4.11,9.98-6.22-1.41,2.44-1.78,4.75-1.78,4.75,0,0,.85-2.95,3.52-5.83,3.46-2.2,6.8-4.38,9.7-6.34-1.4,2.99-1.43,5.9-1.43,5.9,0,0,.4-3.47,2.98-6.95,1.44-.99,2.79-1.94,3.94-2.79,1.74-1.29,3.31-2.49,4.8-3.59-1.4,2.52-1.71,4.92-1.71,4.92,0,0,.84-3.28,3.73-6.37,5.37-3.76,9.39-5.36,14.07-1.63l-1.53,2.99c-2.77,4.59-7.04,14-10.85,23.01-2.15,5.06-4.97,13.11-7.23,22.33-2.65,4.04-5.5,6.73-5.5,6.73,0,0,2.49-1.59,4.84-4.04-.79,3.52-1.48,7.18-2.03,10.88-1.76,1.93-2.7,4.82-3.1,6.43.31-1.12,1.12-2.92,2.87-4.84-.65,4.94-1.01,9.96-.91,14.83-1.7,3.28-1.86,7.41-1.86,7.41,0,0,.26-2.72,1.91-5.84.12,2.94.42,5.83.94,8.63-1.71,4.41-.63,8.88-.63,8.88,0,0-.41-4.07,1.11-6.66.1.42.15.85.25,1.25.91,3.42,2.36,6.82,4.16,10.13,1.06,5.76-1.78,9.03-1.78,9.03,0,0,3.03-2.5,2.89-7,1.52,2.51,3.25,4.94,5.17,7.29,1.51,4.13.62,7.78.62,7.78,0,0,1.27-2.81.79-6.16.76.87,1.51,1.71,2.31,2.54,1.98,4.79.44,8.46.44,8.46,0,0,2.36-3.33,1.02-7.01,1.72,1.7,3.52,3.35,5.41,4.84,1.79,3.56.84,6.83.84,6.83,0,0,1.2-2.85.58-5.73.94.72,1.89,1.43,2.85,2.1,2.61,4.22,2.45,8.31,2.45,8.31,0,0,.56-3.7-.99-7.34.02,0,.06.04.07.04,3.31,3.81,3.81,7.98,3.81,7.98,0,0,0-3.45-1.82-6.69,1.02.62,2.04,1.2,3.09,1.76,3.47,4.06,3.8,8.53,3.8,8.53,0,0,.15-4.1-2.06-7.66,1.53.77,3.08,1.45,4.65,2.04,3.34,3.33,4.17,7.09,4.17,7.09,0,0-.37-3.44-2.56-6.47,1.03.35,2.07.65,3.1.93,3.02,3.21,3.83,6.7,3.83,6.7,0,0-.37-3.32-2.44-6.31,1.15.28,2.3.47,3.43.64,2.19,3.85,1.87,10.33,1.87,10.33,0,0,1.34-4.79-.08-10.13.96.09,1.94.17,2.87.17,1.52,0,3.07-.14,4.66-.37-3.12,4.28-2.06,9.85-2.06,9.85,0,0-.42-5.21,3.19-10.06,2.21-.39,4.48-.95,6.74-1.73-3.01,4.27-1.98,9.75-1.98,9.75,0,0-.43-5.37,3.36-10.3,2.11-.78,4.21-1.71,6.3-2.8-2.19,3.81-1.72,8.14-1.72,8.14,0,0,.04-4.76,3.49-9.14,1.33-.76,2.64-1.56,3.93-2.41-2.64,3.73-2.36,8.38-2.36,8.38,0,0,.24-4.29,3.43-8.31-1.36,3.73-.59,7.45-.59,7.45,0,0-.46-4.84,2.69-9.6.37-.32.7-.66,1.12-.97l-.1.05c.79-.62,1.61-1.24,2.4-1.9-.87,3.04.46,6.2.46,6.2,0,0-1.14-3.96,1.48-7.9,1.29-1.15,2.56-2.36,3.77-3.62-1.77,3.85.83,7.5.83,7.5,0,0-1.7-4.21.95-9.45.66-.72,1.32-1.44,1.95-2.19-1.15,3.92.47,7.54.47,7.54,0,0-1.5-6.02,2.56-11.38l-.82.93c1.2-1.62,2.32-3.28,3.33-4.99-.11,3.7,2.06,6.05,2.06,6.05,0,0-2.12-3.34-.72-8.5,1.57-3.03,2.85-6.13,3.66-9.24.32-1.27.6-2.56.85-3.89,2.07,2.46,1.61,7.31,1.61,7.31,0,0,1.24-5.3-1.21-10.04.38-2.81.6-5.73.63-8.68,1.89,4.34,1.43,8.32,1.43,8.32,0,0,1.15-6.5-1.38-10.26-.02-2.77-.16-5.57-.39-8.34.91,1.22,1.94,2.28,2.66,2.92-.8-.76-1.94-2.22-2.8-4.46-.54-5.59-1.52-11.12-2.65-16.25,2.65,3.75,6.82,6.44,6.82,6.44,0,0-5.07-4.82-7.95-11.23-1.82-7.12-3.94-13.24-5.75-17.39-5.71-13.06-9.73-19.31-12.87-23.7l-1.58-2.62c4.54-3.49,8.38-2.09,13.34,1.41,3.76,3.82,4.41,8.26,4.41,8.26,0,0-.08-3.26-1.86-6.39,1.5,1.14,3.09,2.39,4.87,3.75,1.07.83,2.34,1.78,3.69,2.73,2.55,3.58,2.91,7.09,2.91,7.09,0,0,.03-2.95-1.34-5.99,2.81,2.01,6.01,4.17,9.39,6.41,2.31,3.37,2.66,6.61,2.66,6.61,0,0,0-2.79-1.28-5.7,3.74,2.45,7.57,4.94,11.25,7.28,2.26,2.95,2.85,5.78,2.85,5.78,0,0-.2-2.36-1.46-4.89,2.46,1.55,4.76,3.02,6.9,4.34,1.94,3.01,2.33,5.72,2.33,5.72,0,0-.07-2.37-1.18-4.99,1.61,1,3.04,1.88,4.29,2.67,2.69,2.88,3.55,5.86,3.55,5.86,0,0-.37-2.36-1.83-4.81.95.57,1.76,1.07,2.28,1.38,7.59,4.56,13.59,2.73,13.59,2.73,0,0,.62,4.87,3.2,10.27.77,3.43.14,5.07-.12,5.58.27-.47.95-1.83,1.22-3.53.71,1.25,1.46,2.5,2.4,3.68.61.77,1.24,1.45,1.88,2.13,1.64,4.04,1.18,7.53,1.18,7.53,0,0,.75-2.99.03-6.34,1.32,1.25,2.67,2.32,3.97,3.21,2.99,3.68,3.42,7.56,3.42,7.56,0,0,0-3.32-1.72-6.49.6.36,1.16.66,1.7.95,2.85,3.47,3.41,7.08,3.41,7.08,0,0-.12-3.25-1.9-6.33,1.48.67,2.49,1.01,2.49,1.01,0,0,1.39,3.76,3.34,9.39.16,3.92-1.12,6.73-1.12,6.73,0,0,1.26-2.04,1.74-4.88.43,1.28.87,2.61,1.33,4.01-1.12,5.73.56,10.63.56,10.63,0,0-.88-5.32.03-8.79,1.05,3.29,2.15,6.82,3.18,10.42.47,4.12-.73,6.74-.73,6.74,0,0,1.11-1.83,1.49-4.01.66,2.38,1.28,4.75,1.82,7.08.57,5.33-1.38,8.56-1.38,8.56,0,0,1.78-2.29,2.21-4.95.3,1.46.61,2.92.85,4.3.54,3.22,1.02,6.35,1.48,9.25-.46,3.93-2.08,6.14-2.08,6.14,0,0,1.63-1.73,2.44-3.96,1.23,7.38,2.55,12.79,5.64,13.18.13,1.45.16,3.17.12,5.09-.65,4.62-3.36,6.95-3.36,6.95,0,0,1.92-1.02,3.18-3.07-.14,1.99-.34,4.1-.56,6.31-1.31,4.42-4.12,6.9-4.12,6.9,0,0,2.22-1.59,3.85-4.32-.31,2.83-.69,5.78-1.09,8.8-1.47,3.03-3.49,4.97-3.49,4.97,0,0,1.69-1.17,3.22-3.13-.22,1.62-.44,3.28-.68,4.92-1.55,4.94-4.4,8.19-4.4,8.19,0,0,2.24-1.84,3.93-4.94-.45,3.27-.9,6.51-1.32,9.64-1.39,3.43-3.29,5.41-3.29,5.41,0,0,1.61-1.41,3.08-3.73-.21,1.59-.41,3.16-.6,4.67-.07.56-.16,1.25-.25,1.89-1.85,3.92-4.67,5.94-4.67,5.94,0,0,2.47-1.37,4.41-3.97-.2,1.44-.44,3.01-.7,4.7-1.43,3.22-4.09,4.6-4.09,4.6,0,0,2.12-.78,3.78-2.52-.27,1.75-.58,3.58-.88,5.48-1.8,3.15-4.69,4.24-4.69,4.24,0,0,2.48-.62,4.39-2.39-.37,2.24-.75,4.53-1.16,6.9-1.68,3.49-4.77,4.72-4.77,4.72,0,0,2.54-.72,4.43-2.62-.31,1.81-.62,3.63-.95,5.45-1.65,3.35-4.57,4.59-4.57,4.59,0,0,2.39-.71,4.2-2.54-.31,1.86-.63,3.7-.94,5.49-1.64,3.93-5.05,5.3-5.05,5.3,0,0,2.69-.73,4.58-2.74-.87,4.94-1.67,9.38-2.27,12.87-1.51,3.69-4.6,5.11-4.6,5.11,0,0,2.38-.8,4.16-2.69-.43,2.44-.73,4.23-.85,4.91-.63,4.23-3.58,4.63-3.11,6.54.47,1.92,2.57.72,4.57,1.92,1.99,1.21,1.51-2.07,1.12-5.02-.25-1.83.78-4.9,2.36-9.92.54,2.92,1.89,5.03,1.89,5.03,0,0-1.38-2.91-1.26-6.97.79-2.52,1.69-5.43,2.64-8.89.63,2.8,1.99,4.77,1.99,4.77,0,0-1.44-2.78-1.46-6.74.54-2.19,1.21-5.03,1.95-8.41.86,2.81,2.41,4.76,2.41,4.76,0,0-1.66-2.67-2-6.63.84-3.93,1.76-8.33,2.69-13.05.77,3.3,2.66,5.67,2.66,5.67,0,0-2.24-3.49-2.1-8.49.63-3.27,1.28-6.56,1.93-9.87.81,3.1,2.55,5.27,2.55,5.27,0,0-1.99-3.1-2.11-7.65.58-3.02,1.12-5.99,1.65-8.89.97,3.19,2.94,5.36,2.94,5.36,0,0-2.18-2.99-2.52-7.51.7-3.82,1.33-7.39,1.88-10.55.94,3.94,3.76,6.68,3.76,6.68,0,0-3.27-3.89-3.23-9.79.45-2.67.82-4.93,1.07-6.66.04-.3.09-.6.13-.87,1.01,1.83,2.45,3.01,2.45,3.01,0,0-1.65-1.67-2.26-4.52.28-2.1.47-4.1.62-5.99,1.31,3.28,3.75,5.4,3.75,5.4,0,0-2.85-3.1-3.57-8.11.14-2.59.16-4.92.14-6.97,1.36,2.03,3.38,2.97,3.38,2.97,0,0-2.34-1.76-3.44-5.49-.15-4.27-.54-6.75-.54-6.75,0,0,5.18-2.32,4.56-10.3-.07-.88-.49-2.53-1.13-4.7,2.12,2.13,4.5,3.12,4.5,3.12,0,0-2.87-1.62-5.1-5.1-.32-1.03-.68-2.15-1.06-3.34,2.13,2.14,4.52,3.1,4.52,3.1,0,0-2.94-1.62-5.22-5.14-.79-2.37-1.67-4.95-2.59-7.61,2.02,1.62,4.5,2.09,4.5,2.09,0,0-3.32-1.1-6.01-6.59-1.11-3.27-2.22-6.6-3.24-9.78-.1-.28-.19-.54-.26-.8,2.05,1.75,4.62,1.93,4.62,1.93,0,0-3.1-.99-5.47-4.51-1.16-3.5-2.32-6.82-3.49-9.89,2.63,2.28,5.84,2.68,5.84,2.68,0,0-4.18-1.36-6.97-5.52-.88-2.17-1.78-4.23-2.69-6.08,2.85,1.67,5.62,1.2,5.62,1.2,0,0-3.35,0-6.62-3.08-1.5-2.72-3.04-5.02-4.72-6.69-.21-.82-.51-1.58-.79-2.36,3,2.51,6.64,3.1,6.64,3.1,0,0-3.97-1.11-7.22-4.86-1.02-2.53-2.36-4.8-3.89-6.86,2.47.73,4.77-.02,4.77-.02,0,0-2.85.28-6.15-1.67-1.59-1.85-3.34-3.52-5.24-5.01,2.49.12,4.43-.59,4.43-.59,0,0-2.74.44-6.06-.55-2.97-2.09-6.18-3.85-9.49-5.32-.87-3.51-4.23-7.27-8.91-11.04,3.27.58,6.09-.19,6.09-.19,0,0-3.65.58-7.83-1.12-1.79-1.35-3.68-2.68-5.73-4,4.16.54,7.82-1.29,7.82-1.29,0,0-4.68,1.75-10.19-.18-1.88-1.15-3.82-2.3-5.79-3.42,2.67-.28,4.83-1.84,4.83-1.84,0,0-2.91,1.68-6.74.79-3.71-2.02-7.44-3.93-11.01-5.66,4.54-.54,9.31,1.1,9.31,1.1,0,0-4.7-2.28-12.06-2.42-4.89-2.33-9.25-4.27-12.53-5.7,3.3-.28,5.26-2.23,5.26-2.23,0,0-2.94,2.01-7.71,1.19-.21-.09-.48-.22-.69-.3-3.55-1.52-6.37-3.24-8.73-4.87,3.19.28,6.08-1.71,6.08-1.71,0,0-3.87,2.11-8.47.02-3.54-2.61-5.84-4.61-7.89-4.31-1.55.24-3.34.29-4.86.25,2.33-3.16,3.49-4.34,5.22-8.98l2.17-.72s7.34-3.07,9.79-6.29c1.94-2.58,8.63-2.88,16.95-3.97,4.84.39,7.99,2.86,7.99,2.86,0,0-2.21-2.15-5.5-3.2,1.36-.2,2.73-.42,4.13-.69,1.29-.25,2.69-.54,4.1-.85,4.67.17,7.83,2.34,7.83,2.34,0,0-2.32-1.98-5.64-2.84,2.36-.53,4.83-1.13,7.33-1.77,4.59-.2,7.88,1.67,7.88,1.67,0,0-2.33-1.67-5.53-2.28,2.92-.76,5.78-1.53,8.5-2.28,3.86-.08,6.58,1.21,6.58,1.21,0,0-1.93-1.21-4.64-1.77,1.94-.54,3.76-1.05,5.43-1.53,4.51.09,7.62,2.03,7.62,2.03,0,0-2.37-1.87-5.67-2.61,3.22-.92,5.56-1.61,6.41-1.83,1.18-.3,3.02-.17,5.09.09,5.04,3.61,9.1,3.22,9.1,3.22,0,0-4.53-.5-6.98-2.95,2.82.37,5.84.74,8.27.43,1.25-.17,2.44-.47,3.55-.87,5.05.1,8.48,2.55,8.48,2.55,0,0-2.8-2.53-6.74-3.25,2.69-1.16,4.78-2.57,5.94-2.77.74-.12,3.96,4.11,7.78,9.59.73,1.06,1.48,2.16,2.27,3.29.18,2.27-.31,3.8-.31,3.8,0,0,.68-1.15,1.02-2.77,1.32,1.96,2.66,3.96,3.95,5.92.29,2.71-.44,4.55-.44,4.55,0,0,.94-1.38,1.27-3.32,1.01,1.54,1.99,3.03,2.88,4.4,1.04,3.57.13,6.21.13,6.21,0,0,1.14-1.86,1.16-4.25.57.87,1.07,1.64,1.53,2.35-.29,4.46,1.03,7.41,1.03,7.41,0,0-.83-2.76-.35-6.35.33.49.61.94.84,1.28.68,1.02,1.38,1.93,2.11,2.77.77,4.48,2.81,7.1,2.81,7.1,0,0-1.45-2.46-1.88-6.01,2.55,2.74,4.89,4.47,5.42,6.07.68,1.98,2.61,6.68,5.31,10.02,1.68,3.6,1.56,6.75,1.56,6.75,0,0,.37-2.3-.22-5.08,1.67,2.01,3.47,4.02,5.32,5.84,1.75,3.76,1.7,7.48,1.7,7.48,0,0,.54-2.93-.24-6.05,1.59,1.48,3.85,3.55,6.39,5.88,2.46,3.61,3.4,6.95,3.4,6.95,0,0-.21-2.36-1.45-5.16,1.72,1.58,3.51,3.22,5.25,4.84,1.82,3.3,2.16,6.11,2.16,6.11,0,0-.04-2.32-1.02-5.06,2.69,2.47,5.21,4.83,7.16,6.69,1.89,3.18,2.13,6.03,2.13,6.03,0,0,.08-2.21-.81-4.78.98.92,1.72,1.66,2.14,2.11,2.81,3.02,3.23,7.28,4.34,7.82,1.1.59,1.76-1.7,2.46-2.38.7-.69,2.92-.26,3.14-1.7.22-1.45-2.52-2.89-5.98-4.32"/>
  </g>
</svg>