<?xml version="1.0" encoding="UTF-8"?>
<svg id="Layer_2" data-name="Layer 2" xmlns="http://www.w3.org/2000/svg" viewBox="0 0 368.55 654.5">
  <defs>
    <style>
      .cls-1 {
        fill:#808080
      }
    </style>
  </defs>
  <g id="Layer_1-2" data-name="Layer 1">
    <path class="cls-1" d="m16.59,19.08c1.91,1.68,5.16,3.14,5.5,4.94,6.73,46.12,35.12,83.82,49.6,127.02,4.11,8.38,9.65,15.98,16.38,22.44,20.87,25.25,42.08,50.38,65.19,77.87,0-13.58-5.83-24.12,0-34.67,7.85,3.14,3.37,15.37,11.22,16.94,6.67.9,13.42.9,20.09,0,13.46-.9,4.26-14.47,11.22-19.41q6.28,12.46,3.7,36.8c1.57,0,3.7,0,4.49-.79,25.13-28.39,44.88-60.82,71.36-88.76,7.34-10.38,12.81-21.96,16.16-34.22,6.73-16.49,13.46-32.99,20.65-49.26,11.22-24.8,22.44-49.6,19.75-77.98,1.91,23.34,4.15,46-7.07,68.56-14.14,27.58-25.42,56.53-33.66,86.4,22.44-32.76,36.36-69.79,56.1-104.69,3.47,3.09,4.35,8.15,2.13,12.23-29.62,58.35-53.3,119.73-98.18,168.76-11.22,11.78-22.44,23.56-33.66,34.67-6.94,5.2-9.44,14.46-6.06,22.44,1.91,4.73,2.68,9.84,2.24,14.92-1.06,9.88,5.38,19.01,15.04,21.32l49.03,20.98c38.37,16.83,65.87,46.34,90.44,78.55.67.9,0,3.03,0,6.17-37.65-41.97-84.94-74.17-137.79-93.81,16.37,16.91,31.62,34.87,45.67,53.75,28.72,40.98,50.62,86.34,64.86,134.31,3.06,7.08,4.63,14.72,4.6,22.44-4.68,36.85-13.99,72.97-27.72,107.49-.76-14.27,1.81-28.52,7.52-41.63,15.48-43.65,7.29-85.5-9.54-125.9-14.7-35.12-37.03-66.31-56.1-98.97-5.47-9.25-13.89-16.41-23.9-20.31-2.29,6.35-2.29,13.29,0,19.64,7.63,35.12-2.58,67.32-17.84,97.96-3.61,6.71-8.32,12.78-13.91,17.95-15.15,14.92-28.05,15.04-44.88.9-13.16-11.17-22.82-25.89-27.83-42.41-8.3-26.93-14.36-54.08-6.62-82.36,1.49-7.4,2.47-14.9,2.92-22.44-16.19,9.07-29.93,21.93-40.06,37.48-12.9,20.87-25.25,41.97-38.04,62.95-17.03,30.38-28.08,63.75-32.54,98.29-3.25,19.75,3.7,40.06,8.64,59.69,3.26,11.03,5.69,22.28,7.29,33.66-10.66-13.35-10.44-30.52-16.27-44.88-17.17-43.42-8.75-83.93,9.87-124.66,14.29-32.51,31.85-63.49,52.4-92.46,5.45-5.54,8.82-12.79,9.54-20.53-37.03,13.35-58.12,44.88-87.75,63.85-2.58-7.07,3.14-11.22,6.96-14.7,29.06-27.94,55.21-60.14,97.06-70.69,6.33-2.36,12.51-5.09,18.51-8.19,13.35-5.05,22.44-11.22,14.7-28.05-2.37-5.79-2-12.35,1.01-17.84,10.32-14.92,1.35-23.11-8.64-32.09-22.84-18.97-42.64-41.33-58.68-66.31C45.77,147.55,18.84,103.9,1.78,54.87c-2.16-3.83-2.37-8.45-.56-12.46,18.1,39.15,39.49,76.69,63.96,112.21-8.53-19.86-16.05-40.39-26.03-59.58-13.57-23.35-21.27-49.65-22.44-76.64l-.11.67Z"/>
  </g>
</svg>