<?xml version="1.0" encoding="UTF-8"?>
<svg id="Layer_2" data-name="Layer 2" xmlns="http://www.w3.org/2000/svg" viewBox="0 0 303.5 654.5">
  <defs>
    <style>
      .cls-1 {
        fill:#808080
      }
    </style>
  </defs>
  <g id="Layer_1-2" data-name="Layer 1">
    <path class="cls-1" d="m138.06,60.27c2.55.92,5.06.32,8.08.07,2.63-.26,3.3-2.09,4.83-3.83,1.95-2.34,4.75-3.72,7.6-4.86,13.29-5.39,26.16-11.88,39.38-17.54,15.22-6.51,31.36-11.05,47.49-15.06,6.7-1.66,13.41-2.85,20.11-4.32,7.38-1.62,14.71-3.33,22.26-4.08,3.76-.41,7.6-.36,11.46-.07.85.03,3.98.07,4.22,1.31.42,3.4-17.34,1.39-19.48,1.65-7.02.87-13.83,2.79-20.75,4.28-6.77,1.49-13.15,2.8-19.62,5.25-14.25,5.54-28.87,9.72-42.94,15.79-4.12,1.77-8.08,3.65-12.37,5.17-6.98,2.59-14,5.32-20.36,9.29-3.76,2.38-7.02,5.34-10.21,8.27-1.95,1.73-3.51,2.51-1.7,4.82,2.63,3.39,5.82,6.49,7.46,10.57,1.79,4.51,1.35,9.48.77,14.12-.5,4.19-1.81,8.41-4.22,11.95-1.38,2.06-3.62,3.39-5.25,5.21-1.84,2.03-2.2,4.08-2.2,6.74,7.41-1.31,13.12-4.93,19.93-7.8,2.63-1.1,6.39-2.77,9.36-2.66.82.03,9.87-.39,6.81,2.48-1.35,1.24-5.35.37-7.12.32-7.27-.29-13.3,4.93-18.76,9.04-2.3,1.74-5.14,2.55-7.3,4.4-3.05,2.58-2.52,5.82-3.02,9.47-.14,1.31.63,5,1.59,5.92,3.05,2.65,10.04-4.79,12.24-6.35,7.3-5.39,14.96-10.5,22.41-15.68.88-.6,1.65-1.13,2.51-1.7,0,0,7.35-4.68,7.56-4.82.77-.5,3.11-2.06,3.98-1.35,2.15,1.6-3.59,4.33-4.55,4.96-1.78,1.28-3.68,2.52-5.46,3.91-3.62,2.73-7.3,5.51-10.84,8.44-2.63,2.13-4.61,4.79-7.07,7.08-3.51,3.33-7.58,6.22-11.73,8.7-3.42,2.03-7.21,4.66-8.56,8.53-1.27,3.69.39,7.59,1.56,11.06.99,3.02,2.09,5.92,4.97,7.63,3.18,1.99,7.13,2.8,10.46,4.72,4.79,2.77,9.36,5.92,14.54,7.9,2.74,1.07,5.65,1.1,8.37,1.99,1.21.36,2.74,1.35,3.59,2.27,1.3,1.6.31,2.89-1.81,2.03-9.02-3.58-18.52-5.1-27.16-9.47-2.74-1.38-7.16-2.7-10.07-1.6-3.76,1.42-4.16,6.03-3.76,9.4.67,5.55,4.32,9.38,8.89,12.22,3.54,2.2,7.19,4.12,10.71,6.27,2.85,1.7,5.76,3.58,9.02,4.12,2.94.49,6.23-.43,8.97,1.21,1.7,1.03,1.62,2.73-.25,3.44-1.75.67-4.33-.18-6.11-.49-1.56-.29-3.08-.78-4.5-1.32-3.16-1.21-6.59-1.99-9.79-3.05-3.57-1.18-11.55-6.67-15.07-3.27-2.06,1.99-1.52,5.53-1.16,8.01.45,3.09.59,6.16,1.13,9.21,4.07.71,8.48.99,12.52.8,7.84-.36,15.47-2.1,22.99-4.31,5.28-1.52,10.35-3.42,15.73-5.05,2.27-.64,4.47-1.78,6.85-2.23,1.07-.18,4.39-.39,4.67,1.08.51,2.32-5,2.46-6.2,2.92-4.11,1.48-20.31,6.17-20.31,6.17-5.4,1.52-10.07,4.46-15.39,5.96-3.16.88-6.5.56-9.79,1.2-2.83.48-6.17,1.33-8.34,3.42-1.9,1.86-2.83,5.21-2.58,7.86.36,3.05,2.48,5.39,3.51,8.12,1.7,4.66,5.57,5.14,9.93,5.58,5.18.55,10.32,1.54,15.45,2.29,3.91.52,7.87.57,11.85.59,3.73.04,7.3.29,11.03-.67,1.45-.37,3.02-.73,4.64-.76,1.14,0,4.19.73,2.24,2.51-.85.85-2.49.02-3.45.53-3.27,1.62-7.02,2.13-10.63,2.29-5.93.12-11.77.25-17.64.12-3.19-.09-6.24-.8-9.39-.49-3.3.28-6.56.49-9.82.94-2.41.32-4.72.16-5.71,2.73-.74,1.88-.6,4.33-.36,6.35.17,2.24,1.1,4.29,1.92,6.31,1.84,4.36,5.21,7.45,9.17,9.88,4.11,2.54,8.59,5.83,13.2,7.15,5.35,1.56,10.75,2.24,16.24,2.85,2.17.25,5.46-.49,7.27,1.13,1.73,1.67,0,3.39-1.95,3.53-3.02.25-6.17-.31-9.25-.42-2.66-.06-5.89-1.02-10.33-1.02-2.55,0-5.14-.39-7.58-1.13-2.24-.65-3.9-2.09-6.03-2.97-1.62-.65-3.51-.98-5.14-1.52-2.3-.73-5.18-1.75-7.46-.56-3.11,1.56-2.8,5.14-2.06,8.01.36,1.53,1.04,3.02,1.42,4.55.71,2.85,1.89,5.55,3.9,7.8,2.06,2.17,4.97,3.28,7.1,5.37,3.13,2.94,5.92,6.61,8.68,9.99,3.4,4.05,6.42,7.87,11.35,10.09,3.48,1.55,7.27,2.12,10.92,2.88,1.62.32,9.54,1.53,9.11,4.13-.71,4.32-14.25-1.81-16.35-2.68-2.15-.87-4.5-1.61-6.76-2.35-2.74-.87-5.51-2.58-8.06-3.88-2.47-1.28-5.18-2.54-7.44-4.13-1.81-1.33-2.44-3.54-4.01-5.1-2.14-2.2-7.21-2.86-9.16-.17-2.09,2.89.39,6.84,2.2,9.21,1.01,1.21,2.24,2.1,3.34,3.05,3.16,2.74,5.93,5.97,8.86,9.05,2.27,2.44,5.11,4.47,7.94,6.22,5.21,3.14,10.89,5.51,16.57,7.47,3.65,1.24,7.38,2.29,10.95,3.57,1.25.45,4.12,1.01,4.79,2.3.93,1.83-1.45,2.6-2.74,2-4.97-2.32-10.95-1.78-15.84-4.26-4.08-1.92-8.2-3.62-12.32-5.4-2.61-1.21-5.35-2.17-7.93-3.25-1.95-.76-4.41-2.57-6.56-2.44-2.41.12-6.25-.54-7.6,2.26-1.49,3.12.08,7.07.96,10.19.99,3.26,1.98,6.68,4.61,9.05,2.41,2.12,4.64,4.41,6.48,7.07,1.86,2.57,3.67,5.18,6.25,7.1,2.55,2.01,5.46,3.5,7.87,5.78,3.82,3.71,6.92,7.67,12.16,9.36,2.58.8,5.89,1.05,8.09,2.75,3.71,3-2.77,2.78-4.5,2.4-3.02-.62-6.75-2.86-9.47-4.42-3.98-2.37-7.56-5.35-11.46-7.95-2.06-1.38-4.26-2.52-6.39-3.77-1.84-1.07-3.76-3.09-5.66-3.84-1.34-.46-1.5-1.38-3.37-1.45-2.14-.11-5.71-.99-7.13,1.13-2.23,3.56-1.7,8.34-.64,12.14,1.81,6.6,7.94,8.32,11.99,13.03,8.65,9.87,17.48,19.52,26.84,28.63,1.78,1.67,4.61,2.94,5.68,5.18,1.76,3.7-3.62,1.9-5.11.97-3.15-2.01-5.43-5.18-8.01-7.81-3.45-3.56-7.41-6.62-11.17-9.95-2.74-2.54-5.82-4.9-8.8-7.23-2.63-2.13-6.06-4.63-9.64-4.19-3.26.48-4.41,4.05-4.83,6.82-.74,4.39-.93,8.52,3.05,11.46,5.74,4.41,13.58,6.19,20.11,9.36,3.4,1.69,6.59,3.73,10.02,5.34,4.66,2.2,8.59,3.98,13.63,4.5,5.49.56,11.06.39,16.6.83,2.23.22,8.68-1.04,9.64,2.01,1.04,3.31-7.27,2.69-8.79,2.58-1.81-.15-3.51-.25-5.32-.36-7.56-.28-15.22-1.1-22.6-3.06-5.21-1.41-9.64-4.1-14.63-6-5.62-2.07-10.89-4.13-16.88-4.89-4.41-.48-6.28,1.84-7.32,5.79-.91,3.42-1.48,7.52.11,10.87,1.84,3.96,5.46,6.62,8.45,9.81,2.69,2.98,4.56,6.51,6.59,9.9,5.54,9.25,11.63,17.19,18.98,25.06,6.06,6.53,15.24,10.44,23.05,14.65,1.38.77,3.11,1.25,4.32,2.3,2.24,2.03-.36,3.3-2.58,2.71-3.05-.85-5.54-2.91-8.04-4.72-3.59-2.57-7.81-4.07-11.77-5.75-7.24-3.08-13.41-7.55-17.91-14.11-3.4-4.86-8.09-8.66-11.17-13.8-1.21-1.93-2-4.07-3.62-5.6-2.33-2.17-5.49-3.28-8.69-2.89-3.02.37-4.18,2.23-4.29,5.35-.11,2.24,2.47,4.49,3.76,6.16,3.08,4.46,4.92,9.54,6.88,14.57,2.12,5.15,5,9.96,7.66,14.9,2.41,4.6,3.76,9.72,6.23,14.31,3.95,7.18,9.19,13.46,13.41,20.39,4.75,7.72,14.6,11.77,21.27,17.6,1.31,1.11,2.91,2.35,3.73,3.94,1.1,2.27-.68,4.08-3.12,2.72-2.58-1.49-3.87-4.5-6.28-6.24-3-2.2-6.73-3.54-9.96-5.35-11.03-6.03-18.08-16.98-25.93-26.45-6.84-8.43-10.03-19-14.28-28.87-.79-1.85-1.67-5.43-3.87-6.06-3.8-1.04-5.15,2.3-5.75,5.31-.85,4.59-1.38,9.27-1.63,13.94-.25,3.81-1.04,7.22-.25,10.98.77,4.27,2.66,8.22,3.76,12.38,2.06,7.53,3.65,15.27,7.05,22.32,5.89,12.02,10.46,24.64,16.1,36.77,5.49,11.71,12.52,22.91,19.65,33.69,1.31,1.92,6.34,6.1,4.33,8.91-1.53,1.98-3.09-1.39-3.7-2.49-2.17-3.88-5.18-7.27-7.87-10.84-3.43-4.69-6.37-9.65-9.64-14.43-4.3-6.06-9.05-11.87-12.98-18.27-3.84-6.31-6.91-13.06-9.98-19.79-3.25-9.9-7.36-19.83-9.67-30.01-.68-2.75-1.36-5.57-1.67-8.4-.36-3.57.17-7.12-.57-10.57-.5-2.16-.5-6.42-3.19-7.15-3.76-1.08-3.05,5.01-3.59,7.04-.91,3.93-4.92,3.9-8.37,3.76-4.32-.14-5-3.6-5.11-7.21-.06-2.13-.31-4.59-1.16-6.62-1.53-3.91-4.52,1.79-5.29,3.25-1.95,3.65-3.16,6.85-6.64,9.44-6.48,4.9-10.92,11.93-17.23,16.99-4.83,3.88-9.11,8.43-13.8,12.45-4.89,4.19-10.52,7.13-15.7,10.86-3.59,2.52-6.45,5.82-9.51,8.89-2.8,2.88-6.24,5.43-8.32,8.89-1.35,2.07-2.35,6.08-5.68,4.33.82-5,3.76-8.48,5.99-12.84,3.09-5.96,9.16-10.46,13.8-15.24,1.84-1.95,4.39-3.02,6.53-4.55,3.59-2.58,6.45-5.58,9.47-8.79,3.84-4.22,8.76-7.12,13.33-10.43,5.32-3.84,9.61-8.83,13.75-13.8,2.66-3.17,5.46-6.17,8.2-9.25,1.92-2.2,4.26-4.18,5.6-6.87,1.75-3.62,1.56-7.75,2.52-11.62.46-2.06.74-4.18.96-6.27-2.09-.43-4.8-1.34-6.95-1.04-2.74.42-4.87,2.63-7.1,3.99-2.63,1.69-5.57,3.06-8.01,5.09-3.84,3.05-7.77,5.8-11.88,8.45-2.99,1.93-6.03,3.93-8.48,6.48-2.55,2.68-4.11,6.08-6.67,8.71-2.33,2.32-5.1,4.01-7.49,6.17-2.37,2.29-3.82,5.51-4.78,8.6-.68,2.09-1.53,4.18-1.92,6.31-.22,1.44.54,5.46-1.34,6.02-3.16.96-1.02-6.34-.77-7.33,1.21-3.68,1.73-7.66,1.66-11.53-.09-4.63,2.71-8.51,5.68-11.76,2.03-2.17,4.08-4.36,6.39-6.27,2.97-2.41,6.06-4.67,8.86-7.39,5.13-4.87,11.53-11.65,18.66-13.61,2.34-.62,4.25-2.41,5.99-4.01,2.33-2.1,5.18-3.56,7.9-4.84,3.34-1.49,5.92-3.13,7.6-6.39,2.63-4.89,4.22-10.29,4.42-15.89.08-1.58-5.17-.63-5.85-.37-3.57,1.41-6.56,3.82-10.29,5.12-3.43,1.22-7.47,1.63-10.46,3.88-3.65,2.57-6.28,6.13-9.14,9.4-1.53,1.76-3.51,2.97-5.15,4.49-1.73,1.49-11.2,11.77-10.18,3.87.57-4.25,5.01-5.38,7.67-8.09,4.26-4.29,7.58-9.58,12.58-13.09,3.81-2.69,8.12-4.41,12.38-6.31,3.16-1.45,5.68-3.2,8.63-5.03,2.4-1.64,5.06-2.94,7.41-4.72,2.48-2.03,4.07-4.64,6.17-7.01.17-.18-1.89-4.01-2.06-4.44-1.53-3.8-1.86-7.18-1.64-11.11,0,0-2.12-.39-4.29-.32-2.99.11-5.96-.51-8.86-.42-4.19.06-8.12,1.59-12.24,2.07-3.02.37-5.79.02-8.51,1.66-2.88,1.66-5.64,3.57-8.77,4.93-1.59.68-7.22,3.19-7.72-.03-.57-3.33,6.34-4.35,8.43-5.26,3.26-1.56,6.53-3.14,9.96-4.35,3.45-1.24,6.99-1.48,10.54-1.68,3.51-.22,6.91-.84,10.37-1.11,3.32-.29,6.48.12,9.75-.48.64-.18.57-4.08.6-4.58.32-5.68,3.54-10.36,6.06-15.31-2.2,1.33-5.14-4.96-4.72-6.6,0,0,.74-2.26.11-2.13-6.56,1.17-13.23.77-19.86.14-4.5-.45-9.03-.34-13.5-1.04-4.72-.73-9.33-2.49-13.94-3.63-1.78-.42-8.37-1.84-6.99-4.97.99-2.2,4.58.08,5.95.42,4.26.94,8.52,2.32,12.81,3.03,8.73,1.41,18.05,1.13,26.95,1.52,2.3.57,4.69.05,7.1.37,1.81.28,3.4.28,3.4.28,0,0,.11-1.28.28-2.46.49-2.51,1.38-4.56.85-7.16-1.32-6.05-2.06-11.94-2.06-18.18,0-1.07-7.16.17-7.8.23-4.33.64-8.75.59-13.12.94-4.19.36-8.34.81-12.56.76-1.84-.06-3.68-.37-5.57-.37-1.59,0-4.26.53-5.52-.63-2.52-2.2.91-2.6,2.65-2.69,3.94-.2,7.87.73,11.82.45,3.87-.32,7.8-.45,11.59-.9,1.99-.18,3.87-.51,5.75-.96,3.37-.84,7.02-2.06,10.49-1.98.65.03,2.66-.53,2.66-.53.22-.11-.06-4.32-.06-4.72-.08-4.22,2.31-7.69,4.18-11.25-2.41-1.28-4.18-5.68-3.43-8.32.17-.65.25-1.64.25-1.64-3.65.05-7.49.05-11.17.09-8.06-.31-15.72-.83-23.62-2.41-2.52-.56-5.38-.12-7.94-.45-1.95-.25-6.77-.76-5.81-4.07,1.21-3.96,8.78-1.67,11.42-1.13,7.13,1.73,14.6,3.39,22.01,3.64.65,0,11-.25,11.82-.22.82,0,2.3-.25,3.08-.2.9.03,2.88-1.04,2.88-1.04.82-.63.46-4.13.17-4.98-.7-2.34-2.55-3.9-3.76-5.83-1.55-2.49-1.24-5.49-1.16-8.24,0,0,.11-1.96.11-2,.06-1.3-7.02-.09-7.7-.06-3.73.5-7.77.68-10.95,2.82-2.88,1.91-6.25,3.19-9.71,3.26-1.42.03-5.43.03-5.01-2.32.29-1.82,4.61-2.53,6.03-2.9,2.99-.88,6.07-1.81,9-2.85,3.2-1.08,6.31-2.29,9.76-2.58,2.94-.25,5.82-1.52,8.79-1.42-1.31-.09-.31-5.43-.14-6.16.71-4.15,4.72-6.51,7.3-9.68.11-.22-2.34-2.52-2.55-2.8-2.55-2.91-2.91-6.09-2.75-9.82-3.37.18-6.85.5-9.98,1.81-1.76.7-15.78,8.25-16.94,4.66-.82-2.39,7.47-4.04,8.76-4.73,5.38-3.01,11.31-4.2,17.02-6.41,1.75-.73,1.07-4.47,1.35-5.91.65-2.79,3.26-4.34,4.61-6.65,2.06-3.41-1.13-4.52-3.08-6.78-2.8-3.05.17-8.79-4.58-10.32-4.12-1.41-8.4-2.06-12.55-3.58-5.32-1.93-9.68-5.66-13.94-9.27-1.7-1.37-3.45-2.82-4.72-4.63-.71-1.04-2.06-3.73-1.04-4.93,1.56-1.87,3.56,3.12,4.22,4.01,2.77,3.67,7.91,5.51,11.82,7.63,6.1,3.33,13.83,8.37,20.99,8.49-.35-.01,2.06-5.16,2.37-5.64-.31.48-3.4-3-3.65-3.37-.67-1.01-4.86-13.99-2.52-14.73-5.35,1.6-10.92.11-16.27.2-2.06,0-4.01,1.04-6.07,1.28-1.81.3-4.08-.41-4.72-2.33.36.96,7.13-1.84,7.95-2.09,6.02-1.49,12.13-1.6,18.22-1.67-.17-.03.88-4.98.99-5.45,1.24-4.41,5.51-6.77,7.49-10.71-.03.19-1.98-2.6-1.98-2.74-1.01-2.3.25-5.11-.93-7.17-.68-1.21-3.16-1.1-4.36-1.28-5.46-.85-11-1.11-16.52-.95-2.8.1-5.6.25-8.37.5-2.06.21-4.79.78-6.56-.75,1.59-2.16,4.36-2.69,6.81-3.12,7.55-1.33,15.56-1.47,23.16-.5,1.81.21,3.9.43,3.9.43l1.59.07c.57.04,2.91-4.59,2.94-5.13.65-3.16-2.23-5.42-3.02-8.17-.5-1.76-.03-3.99-.09-5.82-.05-2.07-.4-4.79.8-6.64-.17.3-7.09-1.93-7.72-2.14-2.77-.81-5.46-1.74-8.17-2.77-5.28-2.09-10.35-4.89-14.6-8.73-1.1-.95-7.77-6.93-6.56-8.84,1.05-1.67,6.67,3.22,7.58,3.88,4.8,3.72,11.17,11.52,17.78,11.77l7.8,1.28s3.62,1.24,3.73,1.29c-2.74-.94.39-4.79,1.24-5.97.82-1.14,1.98-2.31,2.63-3.55,1.16-2.33-1.59-4.54-1.28-6.97-1.73,1.03-4.67.6-6.53.6-3.6.04-7.19-.07-10.81-.18-1.13-.05-2.27-.08-3.37-.14-1.38-.11-8.08-2.17-7.12-4.54.74-2.09,7.3-.74,8.82-.74,3.51.07,6.96.28,10.5.42,0,0-.25-.04-.39-.04,2.55.11,5.11-.18,7.58.29,1.15.21,2.3.43,3.37.8,1.42-1.47,3.48-3.81,2.58-6.01-.91-2.17-3.4-2.84-4.86-4.43-2.91-3.2-2.94-9.65-.6-13.14l1.04-1.44s-4.19-1.45-5.82-2.87c-4.36-3.76-8.26-7.98-11.6-12.72-2.72-4.01-7.16-9.95-5.32-15.12.4-1.03,2.27,1.95,2.38,2.2.43,1.25.6,2.48,1.24,3.73,1.89,3.97,4.8,7.48,7.1,11.22,1.35,2.04,2.69,4.06,4.28,5.97,1.67,2.17,4.25,4.46,7.3,4.15,0,0,1.15-9.12,1.42-9.93.71-2.48-1.02-4.66-1.73-6.91-1.48-4.93-.68-10.43,1.27-15.15.93-2.37,2.31-4.68,3.9-6.7,1.53-1.85,5.01-3.55,5.15-6.12.11-3.03-4.39-7.08-6.28-9.06-6.1-6.34-13.97-10.43-21.67-14.39-13.47-6.98-26.98-13.94-41.16-19.4-6.28-2.44-12.48-5.01-18.87-7.32-2.97-1.11-6.17-2.48-9.33-3.53-5.27-1.74-10.92-3.14-16.41-3.98-4.75-.74-9.99,0-14.79-.07,1.64-.11,2.66-1.55,3.9-2.55,4.86-3.84,12.31-1.95,17.64-.25,5.35,1.67,10.63,3.6,16.03,5.2,11.42,3.39,21.81,7.75,32.44,12.96,5.04,2.44,10.15,4.57,15.29,6.84,11.17,4.86,22.06,10.22,32.81,16,3.76,1.99,7.73,4.4,10.6,7.59,2.35,2.54,3.98,5.71,6.56,8.02.96.81,1.92,1.35,2.81,1.66h0Z"/>
  </g>
</svg>