<?xml version="1.0" encoding="UTF-8"?>
<svg id="Layer_2" data-name="Layer 2" xmlns="http://www.w3.org/2000/svg" viewBox="0 0 654.5 536.64">
  <defs>
    <style>
      .cls-1 {
        fill:#808080
      }
    </style>
  </defs>
  <g id="Layer_1-2" data-name="Layer 1">
    <path class="cls-1" d="m651.79,488.66c-8.59-5.73-27-21.32-53.55-46.32-2.17-2.02-4.42-4.04-6.81-6.04-14.88-12.49-30.39-26.74-55.8-37.35-10.32-4.3-21.62-7.95-33.12-11-.47-14.65-.59-32.54-5.02-34.95-5.54-8.15-44.78.72-55.69,4.45-.89.29-1.96.64-3.01.97,8.36-5.29,16.41-10.89,23.88-16.74,26.35-20.66,69.57-61.58,73.34-64.07,6.8-4.5,20.35-16.81,24.63-18.25,5,13.51-3.21,52.82-5.58,62.52-2.38,9.69-5.52,24.32-5.33,30.19.21,5.87,2,12.22,5.7,11.04,3.73-1.19,17.04-1.08,23.49-.74,6.41.32,14.15-8.47,16.76-11.22.97-1.05,2.62-2.28,4.05-3.38,2.07-.38,3.57.05,3.56-.35-.02-.36-1.07-.73-1.96-.96,1.25-1.15,1.69-1.96-.54-1.9-4.78.15-10.43,7.81-16.23,10.14-5.8,2.32-19.25-.45-24.62-1.36-4.26-16.43,3.17-46.71,7.53-61.25,4.32-14.57,9.2-24.9,8.5-42.17-1.61-12.64-10.35-16.01-17.74-13.1-4.58,1.79-9.17,8.4-15.06,13.84-11.4,10.51-25.66,23.09-42.09,34.43-25.09,17.37-67.59,37.35-85.4,46.61-10.21,5.31-21.97,12.34-32.84,19.56,19.04-16.45,49.72-37.64,57.94-43.51,16.55-11.84,46.35-45.3,59.48-68.13,9.46-14.78,13.47-40.36,15.84-57.41,3.79-12.04,11.04-37.3,9.47-55.4-1.82-20.67-7.97-35.71-10.92-43.6-6.41-17.09-12.82-30.95-28.84-45.93-18.22-17-26.82-37.39-55.62-30.09-26.53,6.7-51.19,32.23-60.8,43.98-5.46,6.66-25.28,25.54-40.91,46.83-10.35,14.05-19.52,34.6-19.52,34.6-4.97-21.59-14.31-44.02-25.06-55.69-11.27-12.23-23.91-29.31-41.01-42.33C225.84,21.61,195.76-3.81,171.19.48c-25.38,4.41-36.66,31.77-49.01,45.68-12.32,13.93-29.05,62.15-28.92,85.12.15,31.09,10.11,72.84,27.03,102.94,16.91,30.09,70.43,79.87,88.64,92.39,18.17,12.52,40.82,20.94,50.09,29.32,3.02,2.77,5.22,6.99,7.09,11.79-14.3-11.3-37.06-24.97-55.48-33.15-17.46-7.75-54.83-25.45-80.48-42.01-16.76-10.83-43.25-32.22-55-42.36-6.04-5.24-10.85-11.7-15.47-13.35-7.49-2.66-11.39.89-11.39.89,0,0-5.72,2.85-5.72,11.38,0,16.04,4.84,28.84,9.62,43.25,4.82,14.43,11.23,40.61,7.49,57.14-5.35,1.09-18.45,5.24-24.44,3.49-6-1.76-12.33-8.85-17.15-8.55-2.19.15-1.71.92-.33,1.94-.84.33-1.89.79-1.86,1.15.02.4,1.48-.14,3.57.02,1.54.96,3.3,2.01,4.38,2.96,2.84,2.49,11.37,10.51,17.73,9.57,6.34-.95,19.16-2.03,22.88-.96,3.75,1.08,5.36-5.33,5.36-11.21s-1.61-16.55-4.27-26.16c-2.67-9.62-7.49-33.65-4.28-44.86,4.79-7.48,14.99-6.5,21.89-2.15,27.06,17.1,52.35,49.5,76.89,65.87,8.45,5.62,17.58,11.44,27.12,17.11-.28-.1-.62-.2-.87-.3-10.89-3.79-50.1-12.94-55.68-4.84-3.49,1.86-4.37,13.3-4.86,25.22-2.85.72-5.65,1.47-8.39,2.29-26.39,7.89-43.3,20.46-59.4,31.33-34.24,23.1-49.03,52.24-56.18,60.75-5.54,6.59,2.58-.86,11.66-11.52,5.42-6.34,13.87-25.4,50.18-48.46,13.41-8.52,27.78-20.24,52.65-27.88,3.11-.96,6.37-1.84,9.64-2.69-.15,4.49-.77,11.79-1.06,15.41-1.35,16.46-5.9,27.69-5.04,35.82-6.99,9.7-22.76,11.77-29.68,13.9-6.22,1.91-9.35,7.87-17.85,6.37-5.78-1.03-17.53-2.62-22.31-1.67-3.37.67-7.84,1.67-7.5,2.67.22.65,8.76-.59,17.68,1.07,13.08,2.47,11.72,5.07,14.95,5.26,7.78.48,12.1-6.24,16.75-7.81,12.35-4.14,32.87-10.62,33.7-16.46,6.11-3.15,5.65-22.57,6.36-31.11.51-5.86,2.36-17.08,3.25-25.19,14.51-3.19,22.57-4.53,37.46-5.77,2.25.71,10.68,3.22,12.63,3.82.87.27,1.82.58,2.74.86-4.77,1.52-7.77,5.06-7.67,9.25-5.53,2.87-5.82,25.86-6.19,40.81-.35,14.96-4.19,52.71-6.33,61.16-2.11,8.43-5.23,13.23-5.23,13.23,0,0-7.93,1.19-18,5.12-10.08,3.93-15.75,8.57-21.52,7.4-5.74-1.19-15.96-6.21-19.51-4.93-3.21,1.15-8.75,4.55-7.51,5.54,2.27,1.78,1.8-3.27,16.65,1.25,4.12,1.23,1.98,3.66,3.42,4.51,1.46.85,2.54-1.67,5.56-.49,3.03,1.16,1.88,4.21,5.21,3.79,3.37-.39.81-3.13,18.49-9.46,9.03-3.24,21.61-3.56,22.5-9.38,6.03-2.31,8.59-27.32,12.57-58.11,2.12-16.42,3.65-43.64,5.81-52.6,2.03,1.72,7.98.46,21.67,3.97,8.89,2.25,36.3,10.72,44.7,13.36,8.38,2.64,21.58,5.56,25.44,3.66,1.76-.88,4.55.23,7.48,1.66,2.47,6.49,4.04,11.34,4.04,11.34,0,0,1.66,10.89,5.26,15.79,3.02,4.14,6.65,5.51,6.65,5.51-2.95,5.89.82,15.99,5.04,13.46,4.2-2.52-5.04-10.1,1.7-10.1,1.2,0,2.36-.18,3.51-.43,1.11.22,4.99.42,5.93.46,6.14.27,8.35,1.17,8.35,1.17,3.76,6.05-2.8,7.33-1.13,9.22,2.3,2.6,7.18-.16,6.34-6.06-.41-2.78.08-6.45-.56-7.2.92-.77,2.5-3.51,3.34-4.19,6.64-5.6,4.47-11.84,9.04-18.87,1.58-2.45,3.19-6.45,4.97-11.41,1.03-.13,1.93-.11,2.66.27,3.73,2.13,17.08,0,25.63-2.11,8.53-2.15,36.41-8.96,45.38-10.69,13.9-2.68,19.77-1.08,21.89-2.68,1.61,9.09,5.5,36.34,8.34,52.66,5.25,30.59,8.86,55.46,14.99,57.52,1.13,5.78,12.35,7.51,20.8,12.03,16.56,8.86,13.06,11.11,16.27,12.18,3.2,1.08,2.67-2.13,5.88-2.67,3.2-.53,3.73,2.14,5.34,1.61,1.59-.55,0-3.35,4.26-3.75,15.5-1.42,13.99,3.42,16.57,2.13,1.42-.7-3.31-5.17-6.27-6.94-3.18-1.95-14.22.9-20.08.9s-10.68-5.51-20.05-10.89c-9.41-5.35-17.56-8.18-17.56-8.18,0,0-3.33-4.67-5.77-13.01-2.49-8.35-7.92-45.88-8.9-60.82-1-14.93-2.04-37.03-7.4-40.25.55-6.94-7.48-12.82-18.7-10.15-5.18,1.24-13.75,2.85-23.11,4.54,5.3-1.67,20-5.69,26.87-7.9,18.04.39,33.7,3.16,58.27,9.22.41,4.74,2.18,11.73,2.47,15.24.68,8.52.08,27.94,6.15,31.12.8,5.85,21.25,12.47,33.59,16.73,4.66,1.59,8.89,8.33,16.71,7.92,3.21-.17,1.85-2.79,14.95-5.15,8.91-1.63,17.05.62,17.24-.02.33-1.02-3.66-2.98-7.03-3.66-4.77-1-16.54.51-22.33,1.5-8.51,1.45-11.59-4.54-17.82-6.5-6.86-2.18-22.6-4.36-29.56-14.1.9-8.14-3.55-19.38-4.78-35.88-.07-.83-.32-4.55-.39-5.47,11.84,3.22,26.36,7.7,36.34,12.7,20.77,10.38,29.48,16.78,41.52,27.1,32.33,27.69,51.88,45.6,58.83,50.18,11.75,7.72,19.68,11.47,12.54,6.68m-516.94-112.97c.58-4.67,1.19-8.86,1.88-11.77,7.28,1.11,17.12,3.98,26.76,7.03-9.63,1.16-19.31,2.73-28.64,4.74m309.39,1.8c13.63-4.15,34.29-11.35,47.14-13.19,1.07,4.86,2.02,13.16,2.83,21.55-17.56-4.19-35.16-6.97-49.97-8.36"/>
  </g>
</svg>