<?xml version="1.0" encoding="UTF-8"?>
<svg id="Layer_2" data-name="Layer 2" xmlns="http://www.w3.org/2000/svg" viewBox="0 0 654.5 532.15">
  <defs>
    <style>
      .cls-1 {
        fill:#808080
      }
    </style>
  </defs>
  <g id="Layer_1-2" data-name="Layer 1">
    <path class="cls-1" d="m262.28,321.12c-1.65,16.03-10,30.62-23,40.15-9.43,6.5-5.37,10.56.57,14.89,20.17,14.8,37.14,33.46,58.44,47.13-2.45,6.03-8.29-1.41-11.31,2.73,11.71,12.84,22.39,26.58,31.95,41.09,12.51,22.51,32.09,40.26,55.7,50.52,2.36.94,1.89,1.32,1.51,3.11-.11,4.05,1.05,8.04,3.3,11.4-14.41-.88-27.92-7.29-37.7-17.91-20.26-22.62-38.46-47.13-57.12-71.07-1.98-3.43-3.42-7.15-4.24-11.03-.85-2.64-1.13-5.84-4.71-6.22-14.8-1.6-13.76-2.26-22.72-16.21-6.36-7.88-13.82-14.8-22.15-20.55-2.01-1.56-4.92-1.2-6.48.81-.19.25-.36.51-.49.79-2.1,4.84-.89,10.49,3.02,14.04,12.63,14.52,10.27,41.75-6.03,57.97-6.57-19.99-7.58-41.4-2.92-61.92,2.85-14.6-2.03-29.64-12.91-39.77-12.3-13.01-16.5-31.71-10.93-48.73,4.95-21.37,13.12-41.87,24.22-60.79-15.74-4.42-26.44-19-25.92-35.35,0-9.9-4.62-10.09-11.4-3.96-16.97,15.74-35.91,27.71-60.79,26.49-7.16,0-10.18,3.39-8.48,10.93,7.92,33.55,10.93,68.43,29.41,98.68,10.93,18,29.12,28.28,45.15,40.72,6.92,4.71,12.82,10.77,17.34,17.81,0,0-3.3,4.05-5,3.96-9.43-.57-11.78-9.43-16.87-14.61-14.23-15.55-33.55-25.35-47.13-41.85-4.62-5.66-9.9-18-20.17-3.2-3.02,4.43-8.67-2.83-7.16-6.5,7.92-19.42-1.89-36.19-5.66-54.29-3.77-18.1-.75-39.3-5-58.91-1.13-5.47,4.81-8.48,9.43-10.93,11.16-5.66,23.27-9.17,35.72-10.37,11.35,0,22.53-2.72,32.61-7.92-8.48-8.77-8.48-19.32-6.22-31.95-18.85,9.99-35.91,7.45-54.76,5.18-18.85-2.26-38.83,3.39-58.53,4.81-6.79,0-8.67,6.22-8.86,12.54-.57,30.16-3.11,60.23-1.23,90.11,1.04,16.4,14.33,28.28,28.28,37.7,3.58,2.45,9.43,1.7,10.84,7.16-18.19,0-37.7-16.31-46.47-39.77-1.6-4.15-.47-10.09-5.66-11.5-7.07-1.98-5.75,7.35-10.37,9.43-7.16-10.27-8.01-11.22.47-19.98,4.71-5.95,6.64-13.64,5.28-21.11-.75-21.49,7.45-41.66,6.03-63.15-.66-9.43,7.35-16.78,18.29-19.51,10.93-2.73,20.17,1.41,33.55,0-19.95-12.56-38.23-27.6-54.38-44.77-13.63-13.89-23.38-31.12-28.28-49.95C-6,41.02,8.71,12.81,35.18,4.49c2.11-.66,4.27-1.19,6.45-1.57,26.77-6.13,53.06-1.41,79.46,3.2,43.11,7.47,84.88,21.29,123.94,41,17.25,8.67,35.53,18.85,37.7,40.72,1.29,9.08,4.9,17.68,10.46,24.98,7.35,12.63,12.72,8.2,19.32,2.64,13.12-10.34,29.98-14.68,46.47-11.97,8.67.85,13.95,3.96,11.12,14.23-1.79,6.5-1.51,13.67-3.86,19.89-5.84,15.27,4.05,28.28,5.94,41.94.75,5.84,6.69,4.9,11.12,5.18,13.67.66,27.24,1.98,40.81,1.79,15.08,0,24.98-11.69,36.48-18.85,13.13-9.4,30.3-11.02,44.96-4.24,10.27,4.43,2.36,14.04,1.6,13.86-12.91-3.11-26.49,19.6-38.64-.75-3.3-5.47-6.6-2.17-9.43.47-2.83,2.64-8.29,7.54-13.29,12.06,10.32,3.72,17.46,13.19,18.19,24.13,1.22,8.89,8.11,15.93,16.97,17.34,39.28,11.37,75.84,30.61,107.45,56.55,16.18,12.07,28.71,28.38,36.19,47.13,8.2,21.11,18.85,41.38,26.86,62.4,1.98,4.62,5.75,12.16,0,15.65-5.75,3.49-9.43-3.68-12.91-7.82-5.66-7.73-10.37-16.21-15.55-24.6-3.77.57-3.3,5.18-5.94,6.88-2.64,1.7-5.94,4.81-8.67,4.43-5.56-.85-3.39-6.22-3.39-9.43.41-27.92-12.95-54.25-35.72-70.41-22.24-15.93-25.07-14.7-37.7,8.67-9.43-3.39-10.56-12.54-13.67-20.08-5.16-14.99-19.4-24.93-35.25-24.6-8.77,0-10.56,4.43-8.39,10.18,6.41,16.78,6.22,35.25,13.2,51.46,7.43,13.26,11.48,28.16,11.78,43.36-.66,18.85,14.8,39.68,32.05,53.06,11.48,9.17,18.22,23.01,18.38,37.7-9.43-24.69-33.93-35.91-48.07-56.55-10.18-14.89-12.82-32.89-22.24-48.07-2.45-3.96,1.6-11.97-8.58-7.54-2.36,1.04-1.98-4.24-1.89-6.97.47-21.21-7.45-41.19-8.95-62.11-.66-9.43-4.34-13.29-15.55-11.59-20.12,2.96-40.48,3.97-60.79,3.02,35.35,2.92,56.55,22.81,70.69,52.12-10.74-1.13-13.67-10.56-18.85-17.25-9-11.74-22.15-19.6-36.76-21.96-3.68-.66-8.29-3.02-10.84,1.7-2.54,4.71,2.26,6.69,4.9,9.43,7.15,5.99,12.12,14.17,14.14,23.28-9.9-3.2-11.69-11.22-15.74-16.68-6.03-8.01-11.97-11.4-21.3-5.18-9.33,6.22-5.18,13.01-.66,19.89,2.64,4.05,4.62,8.39,8.77,15.93-9.38-4.7-16.62-12.78-20.26-22.62-3.58,17.9.64,36.48,11.59,51.09-12.54-4.81-13.48-8.39-20.55-37.04-3.49-14.04,4.15-30.92-13.2-45.52,1.41,28.28-15.08,54.76,11.4,76.35-1.04,24.22,18.85,26.86,34.87,32.52,8.28,1.43,16.71,1.71,25.07.85,3.68,0,8.77-.75,9.99,4.24,1.23,5-3.58,6.22-6.97,8.29-22.06,13.29-23.28,26.2-3.77,42.79,11.59,9.43,23.47,20.17,40.72,12.63,2.45-1.59,5.71-.89,7.3,1.55.05.08.1.16.15.24,1.44,2.66.52,5.99-2.07,7.54-13.95,10.09-2.26,14.8,4.52,19.42,5.87,3.42,11.99,6.41,18.29,8.95,3.02,1.51,6.79,3.3,5.94,7.26-.85,3.96-6.31,4.15-9.9,3.2-17.27-3.64-33.84-10-49.11-18.85-50.7-32.15-95.41-72.88-132.14-120.36-11.24-13.71-18.51-30.24-21.02-47.79,0-3.2.57-9.43-6.5-5.75-6.3-2.87-10.09-9.42-9.43-16.31,2.83-18.85-8.67-28.28-23.47-36.1-1.52,23.12-6.97,45.82-16.12,67.11-5.28,13.86,4.05,18.85,11.4,24.6,8.77,6.6,11.78-4.52,16.97-8.48,10.46-7.92,8.86-23.94,20.64-31.2Zm56.55-186.62c4.23,2.49,8.64,4.66,13.2,6.5,7.63,2.54,5.28,20.17,16.59,13.29,5.28-3.2,5.37-14.99,7.63-22.9.57-1.98,2.17-4.15-.66-6.41-12.05,4.75-24.66,7.95-37.51,9.52h.75Zm90.77,82.66l43.26,2.54v-6.13c-14.04,10.56-25.64-16.68-43.64,3.58h.38Z"/>
  </g>
</svg>