<?xml version="1.0" encoding="UTF-8"?>
<svg id="Layer_2" data-name="Layer 2" xmlns="http://www.w3.org/2000/svg" viewBox="0 0 654.5 548.82">
  <defs>
    <style>
      .cls-1 {
        fill:#808080
      }
    </style>
  </defs>
  <g id="Layer_1-2" data-name="Layer 1">
    <path class="cls-1" d="m652.23,14.73c-4.69-13.64-24.08-14.02-35.95-14.58-10.27-.49-20.65.25-30.68,2.03-28.81,5.13-57.7,13.37-84.2,25.83-8.4,3.91-16.64,7.75-25.2,11.34-21.12,8.97-42.63,18.28-62.25,30.29-19.3,11.88-39.15,24.87-52.68,43.34-5.3,7.19-9.26,15.34-15.96,21.4.26-3.14.26-6.05-.89-8.97-.54-.99-5.53-8.03-5.79-7.72,4.99-7.11,9.94-13.85,15.45-20.33,12.2-14.09,19.39-30.59,28.25-46.58,2.38-4.4,3.8-9.05,5.58-13.7,3.31-8.42,9.78-19.83,1.96-27.79-2.87-2.87-6.65-3.11-8.91.61-2.8,4.5-1.94,11.16-.84,16.03.84,3.95,2.75,7.56,2.66,11.69-.23,3.69-1.66,7.29-3.06,10.52-3.52,7.33-8.7,13.79-12.5,20.97-8.56,16.05-20.79,28.81-31.24,43.39-2.47,3.41-3.76,5.06-7.77,6.68h-1.94c-3.9-1.62-5.27-3.28-7.77-6.68-10.45-14.57-22.65-27.33-31.15-43.39-3.76-7.17-8.98-13.64-12.53-20.97-1.49-3.23-2.87-6.84-3.03-10.52-.14-4.13,1.66-7.75,2.64-11.69,1.07-4.86,1.96-11.53-.82-16.03-2.26-3.72-6.16-3.48-8.96-.61-7.81,7.96-1.4,19.37,1.94,27.79,1.82,4.64,3.24,9.3,5.65,13.7,8.8,15.99,16.03,32.49,28.07,46.58,5.65,6.49,10.64,13.23,15.56,20.33-.16-.3-5.3,6.73-5.69,7.72-1.21,2.92-1.21,5.83-1.05,8.97-6.6-6.05-10.57-14.21-15.89-21.4-13.58-18.47-33.32-31.46-52.64-43.34-19.67-12-41.23-21.31-62.36-30.29-8.45-3.59-16.8-7.43-25.08-11.34C126.61,15.55,97.75,7.31,68.96,2.18,58.9.39,48.52-.34,38.3.15,26.38.71,6.96,1.09,2.3,14.73-1.36,25.65-.1,37.34,2.3,48.33c3.73,16.85,9.54,33.13,15.63,49.24,5.25,13.88,10.55,27.82,16.19,41.52,4.29,10.33,8.26,20.85,13.77,30.58,10.89,19.53,26.34,38.4,47.29,47.63,16.45,7.16,34.95,10.08,52.87,9.34.75-.02,4.22.37,4.73-.17-4.48,4.65-8.98,9.24-13.51,13.9-12.51,12.82-16.1,30.42-19.6,47.28-1.61,7.49-2.85,15.11-3.29,22.81-.44,8.26-1.1,15.78,2.47,23.52,8.28,18.08,21.86,32.78,36.21,46.17,6.04,5.67,12.09,11.61,17.27,18.14,3.52,4.54,7.23,9.23,8.94,14.85,2.08,6.63-.02,12.81-1.47,19.31-1.31,5.82-3.94,11.19-6,16.78-2.01,5.54-3.95,11.02-7,16.02-1.96,3.02-7.96,13.66-1.21,14.96,6.3,1.2,9.33-8.91,10.69-13.09,2.78-8.38,4.99-16.67,8.59-24.82,1.7-3.76,3.78-8.45,7.51-10.64,4.62-2.71,9.01.45,12.74,3.34,4.85,3.64,10.8,6.67,14.3,11.84,3.31,4.96,2.12,10.63.75,16.09-4.71,18.3-11.13,35.96-17.78,53.6-1.59,4.32-3.2,8.76-5.06,12.99-1.12,2.45-12.41,18.02-5.58,19.26,2.22.38,5.37-1.82,6.84-3.18,7.58-7.14,10.12-17.43,13.11-26.95,3.71-11.34,7.47-22.69,10.29-34.32,2.5-10.45,3.13-25.42,12.83-32.26,5.83-4.05,13.16-2.11,19.67-2.15,9.24-.08,14.96-7.36,19.2-14.5,10.38-17.21,20.77-34.4,28.05-53.17,8.17-21.35,10.19-44.62,11.97-67.27.58-6.84.96-13.73,1.14-20.63.26,3.42,1.98,6.38,2.87,9.65,1.54,5.63.26,11.35,1.12,17.06.65,4.16,1.61,13.95,7,14.75,6.39.97,9.31-10.06,9.8-14.6.56-5.69-.49-11.64,1.17-17.21.89-3.27,2.69-6.23,2.85-9.65.21,6.89.56,13.79,1.14,20.63,1.75,22.64,3.78,45.92,12.02,67.27,7.21,18.77,17.59,35.97,28.02,53.17,4.23,7.14,10.03,14.42,19.16,14.5,6.42.04,13.79-1.9,19.67,2.15,9.68,6.84,10.34,21.8,12.93,32.26,2.75,11.63,6.56,22.98,10.17,34.32,2.99,9.52,5.62,19.81,13.18,26.95,1.49,1.36,4.62,3.57,6.88,3.18,6.72-1.24-4.48-16.81-5.67-19.26-1.82-4.23-3.36-8.68-5.02-12.99-6.7-17.64-13.07-35.3-17.83-53.6-1.38-5.46-2.59-11.13.79-16.09,3.45-5.17,9.47-8.2,14.28-11.84,3.76-2.88,8.05-6.04,12.76-3.34,3.73,2.19,5.81,6.88,7.51,10.64,3.59,8.15,5.79,16.45,8.47,24.82,1.42,4.18,4.5,14.29,10.66,13.09,6.88-1.29.82-11.93-1.1-14.96-3.1-4.99-4.99-10.48-6.95-16.02-2.08-5.59-4.78-10.95-6.02-16.78-1.42-6.5-3.59-12.68-1.47-19.31,1.7-5.62,5.41-10.31,8.94-14.85,5.15-6.53,11.13-12.47,17.29-18.14,14.33-13.39,27.91-28.09,36.23-46.17,3.48-7.74,2.85-15.26,2.4-23.52-.53-7.7-1.7-15.32-3.33-22.81-3.55-16.86-7.07-34.46-19.53-47.28-4.53-4.67-9.1-9.25-13.58-13.9.59.55,4.08.15,4.83.17,17.9.74,36.4-2.18,52.92-9.34,20.88-9.23,36.28-28.1,47.18-47.63,5.44-9.73,9.5-20.25,13.7-30.58,5.81-13.69,11.04-27.64,16.28-41.52,6.09-16.11,11.85-32.39,15.66-49.24,2.36-10.99,3.64-22.68,0-33.6h0Z"/>
  </g>
</svg>