<?xml version="1.0" encoding="UTF-8"?>
<svg id="Layer_2" data-name="Layer 2" xmlns="http://www.w3.org/2000/svg" viewBox="0 0 654.5 557.87">
  <defs>
    <style>
      .cls-1 {
        fill:#808080
      }
    </style>
  </defs>
  <g id="Layer_1-2" data-name="Layer 1">
    <path class="cls-1" d="m652.89,55.58c1.63-1.84,1.63-4.49,1.6-6.89-.06-5.19-.55-10.46-1.36-15.62-.6-4.44-2.05-8.82-5.25-12.1-3.62-3.67-8.4-5.95-12.84-8.52-8.2-4.79-16.66-9.64-26.38-10.68-3.15-.41-6.35-.88-9.57-1.22-10.81-1.13-21.73-.42-32.42,1.46-12.01,2.07-23.03,6.89-34.39,11.02-11.26,4.12-21.98,9.44-32.12,15.81-8.61,5.4-16.84,11.17-25.39,16.61-14.48,9.34-28.26,19.63-39.88,32.46-8.36,9.13-16.21,18.66-24.31,27.92-1.78,2.07-3.56,4.07-5.31,6.12-6.46,7.52-12.63,15.24-18.26,23.36-5.74,8.31-10.75,17.07-15.95,25.69-3.2,5.32-6.24,10.78-9.56,16.07-3.06,4.98-6.4,9.81-8.52,15.3-1.9,4.86-2.6,10.13-4.23,15.12-.45,1.34-1.63,3.34-3.13,3.69-3.6.82-3.41-6.14-3.57-7.94-.24-2.99-.42-6.01,0-8.96.72-4.3-.96-6.83-4.44-8.14,2.94-9.55,8.27-18.12,13.74-26.42,9.6-15.04,18.36-30.42,26.12-46.65,1.21-2.5,2.21-5.1,3.57-7.56,1.24-2.33,2.99-4.53,3.6-7.15.38-1.64,1.08-9.93-2.82-7.09-2.2,1.54-2.5,4.39-2.69,6.82-.17,2.85-.45,5.44-1.36,8.15-4.49,12.94-12.04,24.59-19.11,36.18-1.87,3.07-3.77,6.14-5.64,9.23-6.23,10.43-13.56,21.18-17.82,32.57-.09.17-.21.48-.4.96-1.24-.54-1.78-1.3-2.6-2.81-1.94-3.3-7.97-3.3-9.88,0-.84,1.5-1.36,2.27-2.78,2.81-.08-.47-.21-.79-.21-.96-4.37-11.39-11.62-22.14-17.83-32.57-1.88-3.1-3.78-6.17-5.58-9.23-7.22-11.59-14.74-23.23-19.12-36.18-.96-2.71-1.17-5.31-1.38-8.15-.21-2.44-.45-5.28-2.75-6.82-3.92-2.85-3.16,5.45-2.78,7.09.6,2.62,2.3,4.82,3.5,7.15,1.39,2.46,2.45,5.06,3.69,7.56,7.66,16.23,16.51,31.61,26.11,46.65,5.35,8.3,10.81,16.87,13.67,26.42-3.49,1.3-5.1,3.83-4.49,8.14.45,2.95.36,5.97,0,8.96-.16,1.81.09,8.76-3.53,7.94-1.54-.34-2.6-2.34-3.08-3.69-1.75-4.99-2.29-10.26-4.2-15.12-2.15-5.49-5.49-10.32-8.63-15.3-3.27-5.29-6.28-10.74-9.48-16.07-5.2-8.63-10.18-17.38-15.95-25.69-5.58-8.13-11.86-15.84-18.27-23.36-1.8-2.06-3.5-4.06-5.24-6.12-8.22-9.26-16-18.79-24.28-27.92-11.73-12.83-25.54-23.13-40.06-32.46-8.48-5.44-16.82-11.21-25.3-16.61-10.17-6.36-20.91-11.68-32.12-15.81-11.38-4.13-22.49-8.95-34.45-11.02C77.11.12,66.18-.59,55.43.54c-3.2.34-6.4.82-9.69,1.22-9.6,1.04-18.05,5.89-26.3,10.68-4.35,2.57-9.23,4.85-12.82,8.52-3.23,3.28-4.68,7.67-5.31,12.1C.54,38.24.09,43.5.03,48.69c-.08,2.4-.08,5.04,1.54,6.89,1.66,1.8,4.2,2.28,5.72,3.99,1.26,1.34,1.36,2.91.99,4.66-.85,4.67-3.68,8.51-1.33,13.22,2.3,4.5,6.4,7.35,10.15,10.44,7.85,6.5,10.63,16.82,11.17,26.59.26,2.94.72,6.15,2.11,8.81,1.73,3.31,3.71,6.41,4.23,10.25.51,3.76-.19,7.6-.75,11.35-.82,5.03,1.42,9.46,3.99,13.64,2.55,4.17,4.65,8.63,5.7,13.38.99,4.35.47,8.88,1.15,13.28.96,5.9,5.61,10.18,8.15,15.34,3.69,6.99,4.58,14.56,12.56,18.12,4.77,2.16,8.14,5.59,11.83,9.34,3.02,3.06,6.71,5.33,10.79,6.81,2.29.88,4.82,1.42,7.24,1.74,2.27.34,4.67.45,7.01.55,5.64.13,11.31-.37,16.87-.87,3.2-.37,6.4-.71,9.67-.95,10.65-.87,21.38-1.09,32.03-1.35.91-.03,1.73-.05,2.45-.05-.48,0-1.54,1.12-1.96,1.34-1.75,1.29-3.66,2.53-5.41,3.78-8.97,6.15-17.96,12.17-26.56,18.86-8.48,6.67-13.76,16.3-19.41,25.29-2.78,4.44-5.23,9.01-6.86,14-1.5,4.87-2.41,9.92-3.58,14.84-2.51,10.01-6.49,19.63-8.99,29.66-.76,2.98-1.39,5.98-1.07,9.02.79,5.27,3.99,9.74,4.44,15.08.63,8.49,1.03,17.07,3.62,25.18,1.61,5.07,4.74,9.43,7.58,13.81,2.9,4.53,4.68,9.44,6.29,14.52,1.2,3.95,2.53,7.85,3.44,11.9.87,4.28.14,8.73.87,13.03.7,4.72,4.65,6.25,8.43,8.26,4.02,2.07,7.01,5.11,8.36,9.51,1.54,5.43,1.09,11.14,1.09,16.77-.09,8.52.54,17.58-1.33,26.02-2.03,9.35-6.28,18.2-10.42,26.76-3.15,6.4-8.31,14.54-3.87,21.75,3.36,5.51,12.5,5.73,17.54,2.52,5.2-3.39,2.8-9.76,2.64-14.86-.16-4.17.38-8.36,1.17-12.53,1.48-7.36,5.11-14.58,11.42-18.89,3.92-2.7,9.02-4.65,13.97-4.03,4.74.58,8.46,3.58,11.29,7.43,1.37,1.85,2.54,3.75,3.6,5.8.97,2.16,4.04,7.9,7.24,5.94,3.71-2.37,3.29-7.52,4.86-11.06,1.88-4.35,7.47-6.79,11.81-7.95,7.03-1.87,14.13,1.7,20.65,3.65,10.47,3.06,20.07-2.78,24.24-12.38,1.8-4.26,2.53-8.73,3.83-13.16,1.33-4.59,3.47-8.83,5.43-13.13,1.79-4.17,3.06-8.65,5.62-12.39,2.71-3.94,6.15-7.39,8.51-11.58,2.33-4.06,3.39-8.65,3.97-13.3.57-5.5,2.08-10.84,3.11-16.33.96-5.58,1.57-11.32,2.32-16.98,1.24-8.14,3.39-16.12,5.44-24.02,3.44-13.95,4.74-28.3,6.38-42.5,1.75-14.39,4.37-28.46,7.81-42.52,1.21-4.66,1.91-9.23,2.17-14,.25-3.29.49-8.05,3.71-10.05,1.63-1.05,3.62.45,4.44,1.99,2.27,4.44,0,9.72-.9,14.21-2.87,13.73.15,28.69,2.29,42.34.6,4.02,1.27,8.11,1.96,12.14.96,4.57,1.45,9.56,3.41,13.86,1.94,4.35,5.58,5.58,10.14,5.58,9.97-.04,10.65-12.01,12.01-19.44.79-4.03,1.4-8.13,2.06-12.14,2.05-13.64,5.07-28.61,2.3-42.34-.91-4.49-3.27-9.77-.91-14.21.85-1.54,2.78-3.04,4.41-1.99,3.23,2,3.49,6.76,3.76,10.05.24,4.77.91,9.34,2.08,14,3.45,14.07,6.14,28.13,7.92,42.52,1.63,14.2,2.87,28.55,6.4,42.5,1.99,7.9,4.13,15.88,5.35,24.02.8,5.65,1.29,11.39,2.34,16.98.94,5.49,2.45,10.83,3.24,16.33.42,4.65,1.45,9.25,3.83,13.3,2.38,4.19,5.73,7.64,8.48,11.58,2.59,3.74,3.86,8.22,5.65,12.39,1.87,4.31,4.1,8.55,5.43,13.13,1.24,4.42,1.96,8.9,3.75,13.16,4.14,9.6,13.79,15.43,24.3,12.38,6.54-1.95,13.59-5.52,20.65-3.65,4.41,1.16,9.9,3.61,11.84,7.95,1.57,3.54,1.17,8.69,4.89,11.06,3.13,1.96,6.16-3.78,7.24-5.94.97-2.04,2.24-3.95,3.53-5.8,2.82-3.85,6.47-6.85,11.35-7.43,4.83-.62,9.88,1.33,13.87,4.03,6.43,4.31,9.95,11.53,11.47,18.89.72,4.16,1.38,8.35,1.24,12.53-.21,5.09-2.66,11.47,2.57,14.86,5.03,3.21,14.18,2.99,17.57-2.52,4.44-7.22-.76-15.35-3.87-21.75-4.1-8.56-8.46-17.41-10.5-26.76-1.82-8.44-1.21-17.5-1.21-26.02,0-5.62-.54-11.34,1.08-16.77,1.31-4.4,4.36-7.44,8.31-9.51,3.76-2,7.69-3.53,8.48-8.26.7-4.29,0-8.75.82-13.03.84-4.05,2.27-7.95,3.48-11.9,1.59-5.08,3.35-10,6.27-14.52,2.85-4.39,5.95-8.75,7.61-13.81,2.57-8.11,2.99-16.69,3.6-25.18.36-5.34,3.69-9.81,4.44-15.08.24-3.04-.37-6.04-1.05-9.02-2.61-10.02-6.47-19.65-9.01-29.66-1.24-4.92-2.11-9.97-3.65-14.84-1.57-4.99-4.02-9.56-6.76-14-5.74-8.98-11-18.61-19.45-25.29-8.57-6.69-17.69-12.71-26.63-18.86-1.68-1.25-3.55-2.49-5.37-3.78-.4-.22-1.45-1.34-1.99-1.34.79,0,1.59.03,2.41.05,10.75.26,21.38.49,32.13,1.35,3.2.24,6.4.58,9.6.95,5.61.5,11.22,1,16.96.87,2.27-.11,4.62-.21,6.94-.55,2.5-.32,4.95-.86,7.22-1.74,4.07-1.48,7.76-3.75,10.84-6.81,3.62-3.75,6.89-7.18,11.89-9.34,7.91-3.55,8.88-11.13,12.35-18.12,2.74-5.16,7.27-9.44,8.24-15.34.63-4.4.12-8.93,1.17-13.28,1.09-4.75,3.17-9.2,5.7-13.38,2.54-4.19,4.83-8.61,4.02-13.64-.57-3.75-1.2-7.59-.81-11.35.55-3.83,2.57-6.94,4.29-10.25,1.42-2.66,1.75-5.87,2.01-8.81.58-9.77,3.41-20.08,11.21-26.59,3.74-3.1,7.85-5.94,10.21-10.44,2.29-4.71-.52-8.55-1.28-13.22-.42-1.75-.33-3.32.95-4.66,1.59-1.71,4.07-2.19,5.64-3.99h0Z"/>
  </g>
</svg>