<?xml version="1.0" encoding="UTF-8"?>
<svg id="Layer_2" data-name="Layer 2" xmlns="http://www.w3.org/2000/svg" viewBox="0 0 637.18 654.5">
  <defs>
    <style>
      .cls-1 {
        fill:#808080
      }
    </style>
  </defs>
  <g id="Layer_1-2" data-name="Layer 1">
    <path class="cls-1" d="m240.7,375.34c-17.71-.91-34.71-1.97-48.74-13.94-13.9-11.86-28.12-12.36-45.55-8.13-18.5,4.49-36.6,9.37-55.81,8.54-11.6-.46-23.13-2.15-34.6-3.69,0,0-28.77-3.95-32.7-5.96-5.59-2.73-28.79-5.2-22.09-16.09,4.86-7.78,16.81,3.62,21.18,6.46,10.08,6.55,21.64,7.83,33.46,9.63,24.11,3.64,43.69,2.15,66.39-6.5,14.46-5.44,29.12-6.11,44.17-8.54,13.9-2.19,29.66,4.44,41.48,11.38,11.15,6.55,21.27,15.31,33.89,19.28,11.23,3.53,33.17,7.11,38.07-8.04,3.64-11.04-10.02-20.15-15.5-28.23-6.85-9.91-11.86-20.99-13.94-32.87-1.91-10.23,1.23-20.77-.87-31.05-3.38-17.72-28.47-12.19-41.2-12.19-1.88,0-9.24-4.88-13.75-4.81-6.63.04-13.14,2.97-19.25,4.97-11.92,3.97-20.38,1.56-32.24-1.5-5.05-1.24-15.03.24-18.82-3.62-4.66-4.49,1.06-7.87,6.37-8.11,11.62-.46,22.42,10.58,33.65,9.1,6.87-.95,8.85-8.06,14.7-10.19,16.41-6.05,36.43-1.02,53.27-.26,10.56.52,25.82-2.73,31.33,9.02,4.81,10.47,1.11,24.56,2.49,35.77,1.08,9.08,5.7,17.48,9.78,25.69-4.6-10.54-1.88-26.8.59-37.68,1.91-8.65,14.27-19.77,5.61-27.77-4.75-4.38-11.4-6.92-15.87-11.82-18.23-19.95-16.72-54.55-13.31-79.68,0,1.02-34.32,6.85-37.47,7.39-12.97,2-28.01,1.58-33.98-12.27-6.68-15.4,1.19-34.21-1.5-50.41-2.15-12.77-9.11-23.81-14.07-35.65-4.27-10.15-5.61-21.57-12.32-30.61-6.42-8.3-15.61-17.15-12.38-28.64,1.71-6.01,7.11-4.99,11.43-1.59,7.37,5.77,10.73,17.6,14.74,25.8,6.94,14.11,11.49,29.53,14.81,44.84,3.06,13.23,5.29,26.65,6.33,40.11.93,10.73-5.4,31.85,6.27,38.79,8.37,5.05,21.46-1.19,30.09-2.95,2.12-.43,32.09-4.21,32.09-4.6.67-22.7,3.77-40.48,19.17-58.32,10.49-12.4,24.07-21.64,40.74-22.72,19.28-1.24,32.35,8.74,44.23,22.72,15.39,17.84,18.54,35.62,19.21,58.32,0,.39,29.88,4.16,31.98,4.6,8.65,1.76,21.72,8,30.07,2.95,11.73-6.94,5.31-28.06,6.29-38.79,1.19-13.46,3.25-26.88,6.26-40.11,3.51-15.31,7.96-30.72,14.92-44.84,4.03-8.2,7.31-20.04,14.72-25.8,4.27-3.41,9.69-4.42,11.38,1.59,3.38,11.49-5.96,20.33-12.16,28.64-6.87,9.04-8.11,20.47-12.44,30.61-5.01,11.84-11.97,22.87-14.01,35.65-2.77,16.2,5.07,35.01-1.71,50.41-5.77,13.85-20.81,14.27-33.89,12.27-3.23-.54-37.47-6.37-37.47-7.39,3.38,25.13,4.96,59.73-13.33,79.68-4.36,4.9-11.17,7.43-15.94,11.82-8.56,8,3.77,19.12,5.79,27.77,2.56,10.88,5.25,27.15.56,37.68,4.05-8.22,8.78-16.61,9.84-25.69,1.35-11.21-2.43-25.3,2.38-35.77,5.57-11.75,20.77-8.5,31.31-9.02,16.85-.76,36.84-5.79,53.23.26,6.05,2.13,7.91,9.24,14.7,10.19,11.38,1.47,22.07-9.56,33.71-9.1,5.27.24,11.04,3.62,6.48,8.11-3.94,3.86-13.88,2.38-18.95,3.62-11.73,3.06-20.27,5.46-32.24,1.5-6.2-2-12.64-4.92-19.25-4.97-4.53-.07-11.77,4.81-13.75,4.81-12.64,0-37.84-5.53-41.28,12.19-1.88,10.28,1.17,20.81-.74,31.05-2.1,11.88-7.02,22.96-13.85,32.87-5.59,8.08-19.38,17.19-15.67,28.23,5.07,15.16,26.99,11.58,38.12,8.04,12.64-3.97,22.72-12.73,33.91-19.28,11.82-6.94,27.56-13.57,41.52-11.38,14.98,2.43,29.66,3.1,44.12,8.54,22.81,8.65,42.26,10.15,66.35,6.5,11.77-1.8,23.46-3.08,33.45-9.63,4.51-2.84,16.35-14.25,21.23-6.46,6.81,10.89-16.35,13.36-22.03,16.09-3.88,2.02-32.65,5.96-32.65,5.96-11.53,1.54-23.16,3.23-34.71,3.69-19.21.82-37.25-4.05-55.74-8.54-17.52-4.23-31.72-3.73-45.68,8.13-13.99,11.97-30.98,13.03-48.81,13.94-17.8.89-39.91,2.38-41.61,24.7,0,.13,6.76,3.77,7.65,4.73,3.36,3.97,3.08,10.39,7.22,14.35,3.67,3.88,8.24,5.12,13.42,5.44,17.35,1.22,34.09-7.72,51.08-5.64,10.15,1.13,16.46,7.8,22.94,14.96,13.94,15.65,32.09,27.88,43.78,45.57,10.12,15.57,15.5,33.61,24.72,49.65,11.75,20.27,28.38,34.67,44.47,50.99,16,16.26,28.84,29.92,37.6,51.13,2.12,5.03,16.28,14.96,9.41,21.1-9.04,8.17-14.59-8.87-15.11-14.64-1.23-16.17-13.2-28.43-24.7-38.64-15.96-14.27-29.94-30.62-43.02-47.68-6.51-8.54-13.1-17.34-19.25-26.1-5.38-7.59-9.24-15.83-14.91-23.14-12.27-15.37-23.77-31.42-34.89-47.68-8.17-12.03-17-19.78-32.37-17.09-14.66,2.51-30.31,1.82-44.97-1.49-8.57-2.04-29.47-15.9-36.82-8.22-7.42,7.68-3.01,32.29-3.99,42.39,20.12-1.26,28.01,18.45,33.06,34.34,14.09,44.25,2.06,100.36-31.48,133.21-15.79,15.52-44.21,15.42-59.95,0-33.5-32.85-45.58-88.96-31.51-133.21,5.01-15.89,12.82-35.6,33.2-34.34-1.08-10.1,3.36-34.71-4.03-42.39-7.44-7.68-28.27,6.18-36.92,8.22-14.66,3.32-30.31,4.01-44.95,1.49-15.35-2.69-24.13,5.05-32.35,17.09-11.08,16.26-22.51,32.3-34.8,47.68-5.9,7.31-9.63,15.55-14.87,23.14-6.27,8.76-12.71,17.56-19.3,26.1-13.03,17.06-27.08,33.41-43.04,47.68-11.49,10.21-23.63,22.46-24.87,38.64-.46,5.77-5.96,22.81-15.07,14.64-6.89-6.14,7.42-16.07,9.48-21.1,8.82-21.21,21.66-34.86,37.64-51.13,16.11-16.33,32.72-30.72,44.4-50.99,9.21-16.05,14.59-34.09,24.74-49.65,11.64-17.69,29.86-29.92,43.75-45.57,6.42-7.15,12.99-13.83,22.87-14.96,17.26-2.08,34.02,6.85,51.19,5.64,5.16-.33,9.86-1.56,13.51-5.44,4.03-3.97,3.84-10.39,7.17-14.35.87-.96,7.57-4.6,7.57-4.73-1.71-22.31-23.83-23.81-41.72-24.7h0Z"/>
  </g>
</svg>