<?xml version="1.0" encoding="UTF-8"?>
<svg id="Layer_2" data-name="Layer 2" xmlns="http://www.w3.org/2000/svg" viewBox="0 0 654.5 317.83">
  <defs>
    <style>
      .cls-1 {
        fill:#808080
      }
    </style>
  </defs>
  <g id="Layer_1-2" data-name="Layer 1">
    <path class="cls-1" d="m654.33,53.46c-.39-3.95-1.3-7.78-3.17-11.27-1.09-2-2.45-3.79-4.12-5.27-4.21-3.69-9.52-5.86-14.66-7.89-7.22-2.89-15.1-4.52-22.98-4.55-10.25-.06-20.23.94-30.36,1.97-7,.67-14.01,1.71-20.86,3.49-8.74,2.26-17.36,5.12-26.08,7.56-4.23,1.16-8.34,2.33-12.53,3.43-5.27,1.42-10.54,2.81-15.85,4.28-4.92,1.37-9.73,2.74-14.71,4.13-6.33,1.84-12.55,3.66-18.86,5.45-4.01,1.16-8.04,2.28-12.05,3.45-5.01,1.4-10.02,2.82-14.96,4.24-4.49,1.31-8.97,2.64-13.41,3.97-5.99,1.93-12.1,3.7-18.15,5.54-4.56,1.41-9.2,2.81-13.64,4.63-5.45,2.08-10.82,4.52-15.91,7.49-3.98,2.3-7.63,4.99-11.09,7.99-3.35,2.87-6.75,6.03-10.98,7.47-2.24.75-5.06.63-7.03-.77-2.25-1.54-5.4-2.41-6.92-4.75-.83-1.29-.67-2.5-.8-3.97-.19-2-1-3.66-2.06-5.35-1.78-2.71-2.52-6.39-4.58-8.78-.16-.1-.29-.2-.39-.29l15.88-8.56c10.78-6.52,22.27-12.9,29.32-23.68.07-.03,3.3-5.29,3.3-5.29,1.44-4.48,2.8-8.99,4.44-13.36,1.94-5.08,2.92-10.4,4.72-15.53.71-2.07,5.08-8.83.52-9.23-2.26-.19-2.45,2.64-2.8,4.26-1.02,4.58-2.05,9.12-3.39,13.6-1,3.48-2.15,6.94-3.24,10.37-2.68,8.42-5.69,14.99-12.64,20.75-4.14,3.51-8.18,6.96-12.8,9.86-4.88,2.98-9.92,5.59-14.99,8.26-.16.06-6.56,3.53-11.41,6.17-5.21-3.21-10.62-3.13-15.67,0-4.88-2.64-11.28-6.11-11.41-6.17-5.04-2.67-10.12-5.29-14.94-8.26-4.71-2.9-8.67-6.35-12.87-9.86-6.92-5.76-9.94-12.33-12.62-20.75-1.11-3.44-2.24-6.9-3.24-10.37-1.29-4.48-2.32-9.02-3.37-13.6-.37-1.62-.59-4.45-2.82-4.26-4.53.4-.14,7.16.57,9.23,1.76,5.13,2.71,10.45,4.69,15.53,1.62,4.37,2.99,8.88,4.44,13.36,0,0,3.26,5.26,3.26,5.29,7.08,10.79,18.54,17.17,29.39,23.68l15.83,8.56c-.07.09-.32.19-.32.29-2.1,2.4-2.92,6.07-4.65,8.78-1.04,1.68-1.87,3.35-2.01,5.35-.23,1.47,0,2.68-.89,3.97-1.55,2.34-4.62,3.21-6.85,4.75-2.03,1.4-4.81,1.52-7.06.77-4.25-1.44-7.58-4.6-10.89-7.47-3.53-3-7.21-5.68-11.14-7.99-5.12-2.97-10.45-5.42-15.96-7.49-4.41-1.82-9.06-3.22-13.61-4.63-6.04-1.84-12.17-3.62-18.18-5.54-4.46-1.33-8.88-2.66-13.39-3.97-4.97-1.42-9.96-2.84-14.98-4.24-4.01-1.16-7.98-2.28-12-3.45-6.29-1.79-12.6-3.61-18.93-5.45-4.88-1.39-9.8-2.76-14.69-4.13-5.26-1.47-10.52-2.86-15.88-4.28-4.09-1.1-8.31-2.26-12.48-3.43-8.67-2.44-17.36-5.29-26.1-7.56-6.86-1.78-13.85-2.82-20.82-3.49-10.16-1.02-20.21-2.03-30.41-1.97-7.83.03-15.72,1.66-22.98,4.55-5.15,2.03-10.43,4.19-14.62,7.89-1.68,1.47-3.07,3.27-4.07,5.27-1.94,3.49-2.82,7.31-3.19,11.27-.46,4.65-.11,9.31.71,13.9,1.25,6.81,3.49,13.32,5.85,19.79,3.74,10.13,6.54,20.65,12.07,30,2.03,3.53,4.17,6.99,6.5,10.27,1.91,2.77,4.09,5.26,6.56,7.45,4.44,3.78,9.97,6.17,15.65,7.34,4.62.97,9.29,1.54,14.07,1.88,16.81,1.11,33.97.07,50.86.07-.93,0-2.09.52-2.96.76-5.19,1.34-10.36,2.55-15.51,3.92-4.64,1.2-9.45,2.11-14.12,3.48-6.24,1.81-12.8,4.89-17.01,9.98-6.68,7.94-11.66,17.76-10.94,28.42.23,3.77,1.87,7.09,3.7,10.31,4.39,7.93,9.2,15.42,14.66,22.57,2.36,3.13,5.04,6.02,6.79,9.52,2.03,3.78,3.33,7.86,5.76,11.43,2.39,3.63,5.49,6.68,8.65,9.59,5.78,5.29,11.38,11.12,17.79,15.53,3.51,2.42,7.3,4.46,11.2,6.16,6.85,2.99,14.06,5.14,21.21,7.17,9.18,2.56,18.15,5.7,27.07,8.86,10.14,3.55,19.66,6.56,30.43,4.31,9.32-1.92,18.54-4.86,27.72-7.47,7.42-2.1,14.94-4.35,21.94-7.82,6.42-3.24,12.75-7.19,17.8-12.43,4.72-4.91,7.31-11.37,9.55-17.69,1.46-3.96,3.1-7.8,4.58-11.69,5.48-14.55,7.92-29.98,10.01-45.32,1.64-11.68,3.1-23.99,7.01-35.2.96-2.78,3.31-5.12,3.51-8.13.55,3.79.64,7.67.82,11.5.62,14.92-.53,29.83-.53,44.71,0,11.26.82,22.49-.3,33.69-.41,4.68-1.98,9.14-2.45,13.82-.53,5.55.61,11.03.9,16.58.37,6.97.51,15.85,7.73,19.4,4.41,2.17,7.85,4.86,9.31,9.75,1.05,3.35,1.3,6.9,2.25,10.26.44,1.48,1,3.17,1.89,4.47,3.15,4.17,9.39,4.33,12.53.24,3.12-4,2.73-10.22,4.14-14.97,1.51-4.89,4.97-7.58,9.41-9.75,7.2-3.56,7.36-12.43,7.66-19.4.29-5.56,1.43-11.03.92-16.58-.43-4.68-1.98-9.14-2.43-13.82-1.16-11.2-.36-22.43-.36-33.69,0-14.88-1.12-29.79-.46-44.71.16-3.83.32-7.71.82-11.5.14,3.01,2.53,5.35,3.49,8.13,3.89,11.21,5.37,23.52,6.99,35.2,2.12,15.33,4.53,30.76,10.07,45.32,1.43,3.89,3.1,7.73,4.49,11.69,2.27,6.33,4.89,12.79,9.59,17.69,5.06,5.24,11.46,9.19,17.85,12.43,6.99,3.47,14.47,5.72,21.89,7.82,9.18,2.61,18.43,5.56,27.72,7.47,10.77,2.25,20.34-.77,30.47-4.31,8.88-3.16,17.85-6.3,27-8.86,7.19-2.04,14.4-4.18,21.27-7.17,3.94-1.7,7.67-3.74,11.18-6.16,6.45-4.41,12.07-10.24,17.81-15.53,3.14-2.91,6.33-5.96,8.63-9.59,2.44-3.58,3.78-7.65,5.78-11.43,1.8-3.5,4.37-6.39,6.7-9.52,5.56-7.15,10.36-14.64,14.76-22.57,1.8-3.23,3.48-6.55,3.68-10.31.64-10.66-4.23-20.49-10.93-28.42-4.26-5.09-10.78-8.17-17.04-9.98-4.67-1.37-9.43-2.28-14.12-3.48-5.18-1.36-10.3-2.57-15.49-3.92-.86-.24-2.06-.76-3.03-.76,16.94,0,34.1,1.04,50.97-.07,4.72-.34,9.43-.9,14.06-1.88,5.6-1.17,11.16-3.56,15.58-7.34,2.48-2.2,4.67-4.68,6.58-7.45,2.34-3.29,4.47-6.75,6.54-10.27,5.49-9.35,8.3-19.87,12.05-30,2.34-6.47,4.65-12.99,5.87-19.79.81-4.59,1.14-9.25.74-13.9h0Z"/>
  </g>
</svg>