<?xml version="1.0" encoding="UTF-8"?>
<svg id="Layer_2" data-name="Layer 2" xmlns="http://www.w3.org/2000/svg" viewBox="0 0 654.5 543.42">
  <defs>
    <style>
      .cls-1 {
        fill:#808080
      }
    </style>
  </defs>
  <g id="Layer_1-2" data-name="Layer 1">
    <path class="cls-1" d="m327.43,370.24c-.28-.35-.53-.67-1.06-.43.3.29.56.59,1.06.43h0Zm167.29,7.39c.05.56.09,1.24,1,.9-.41-.35-.7-.62-1-.9h0Zm-210.1-118.55c-.42-.13-.87-.35-1.08.27-.04.13.1.44.22.47.54.1.67-.34.86-.73h0Zm-102.02,34.8c.62.33,1.06.65,1.66.43-.46-.23-.68-1.08-1.66-.43h0Zm-50.97,109.69c.06.06.11.13.18.18.47-.1.96-.18,1.42-.33.35-.13,1.01-.11.76-.75-.24-.54-.66-.08-.94.05-.49.24-.95.56-1.42.85h0Zm7.31,12.94c.87-.37,1.76-.63,2.28-1.49-.96.16-1.72.68-2.28,1.49h0Zm-3-4.14c.95-.37,2-.53,3.02-1.63-1.53.15-2.42.62-3.02,1.63h0Zm-.19,1.51c1.24-.41,2.53-.71,3.56-1.59-1.28.35-2.53.7-3.56,1.59h0Zm377.82-64.24c1.04-.4,1.86-.72,2.3-1.65-.83.32-2.11-.03-2.3,1.65h0Zm-324.71-53.51c1.22-.13,2.19.78,3.18-.19-1.03-.9-1.97-.57-3.18.19h0Zm-9.92-.2c-.21-1.9-.38-1.99-1.82-1.05.4.59,1.04.78,1.82,1.05h0Zm91.38-34.99c.89.54,1.62.47,2.34.51.37.01.54-.23.52-.59-.02-.28-.24-.4-.49-.4-.72.03-1.45-.05-2.37.49h0Zm-33.59,249.06c.43,1.14.75,2,1.2,3.15q.57-2.4-1.2-3.15h0ZM94.62,248.17q.85-1.87-1.35-2.72c.49.97.91,1.81,1.35,2.72h0Zm156.46,185c-.09-.29-.3-.58-.63-.47-.62.22-1.29.49-1.48,1.19-.1.34.23.66.65.7.56.05,1.48-.82,1.47-1.42h0Zm79.27-65.23c-.81-.15-1.53-.3-2.25-.43-.19-.04-.39-.01-.48.18-.04.1-.06.27-.03.33.43.46,1,.75,1.58.89.53.1.91-.28,1.18-.96h0Zm-197.87,38.96c.05.14.13.28.19.42.83-.35,1.66-.71,2.48-1.08.38-.16.61-.34.34-.81-.32-.56-.62-.47-1.01-.14-.67.54-1.34,1.08-2,1.61h0Zm109.12,34.39c-.37,1.24-.18,2.35.2,3.47.8-.23,1.19-.57.81-1.35-.35-.7-.68-1.4-1.01-2.11h0Zm53.04-39.74c-.08,1.21.47,2.21.87,3.35,1.14-1.96.97-2.51-.87-3.35h0Zm-45.8,34.82c-2.68-.14-2.92.22-1.9,2.61.62-.85,1.18-1.62,1.9-2.61h0Zm28.89-174.6c-.19-1.81-.67-2.14-2.19-1.67-.48.15-.47.49-.51.86-.05.49.27.77.65.65.72-.25,1.35.08,2.05.16h0Zm-32.51,179.79c1.02-1.89-.33-3.34-.24-4.96-1.14.53-1.21.56-1.08,1.06.33,1.24.52,2.53,1.32,3.9h0Zm-5.77-1.56c-.14,0-.28.01-.42.01-.24,1.92.35,3.78.51,5.67.01.29.16.66.59.47.32-.13.48-.39.43-.75-.37-1.8-.75-3.61-1.11-5.4h0Zm-62.19-142.64c-.48-1.87-2.18-1.96-3.59-2.53.77,1.34,1.47,2.71,2.81,3.86.35-.8-.27-1.2-.01-1.73.27.14.53.27.8.41h0Zm66.28,146.28c.71-.59,1.29-1.01.96-1.82-.48-1.14-1.01-2.26-1.53-3.38-.13-.28-.33-.57-.71-.38-.32.18-.29.53-.2.82.46,1.52.73,3.09,1.48,4.76h0Zm85.09-77.5c1.08.24,1.86.49,2.66.56,1.1.08,1.57-.72.99-1.68-.44-.71-.81-1.49-1.57-2.13-.68,1.08-1.32,2.05-2.08,3.25h0Zm-155.79-72.54c1.64.68,3.18,1.4,4.85.22.26-.2.73-.22.68-.72-.05-.46-.24-.79-.8-.84-.78-.06-1.59-.16-2.37-.3-1.3-.24-1.92.44-2.37,1.64h0Zm-33.37,137.73c.42-.25.57-.32.67-.43,2.09-2.33,4.35-4.47,6.62-6.6.19-.18.39-.33.55-.53.26-.29.1-.56-.09-.81-.24-.29-.49-.38-.8-.11-.61.53-1.29,1.01-1.78,1.64-1.13,1.48-2.32,2.92-3.58,4.3-.61.66-1.14,1.4-1.58,2.54h0Zm239.5,91.67c1.2-1.05,2.2-1.92,3.27-2.83-1.38-1.05-2.58-1.99-4.11-3.16.3,2.16.56,3.96.85,6h0ZM158.67,114.74c-1.48.23-2.78.43-4.23.66,1.44,1.56,2.72,2.95,4.23,4.57v-5.23h0Zm13.51,179.88c-1.16,1.02-2.3,2.04-3.48,3.06,1.19,1.28,1.83,3.1,3.97,2.05-.1-.81-1.18-1.15-1.18-2.14.78.14,1.16.67,1.68.97.23.14.48.28.7.14.29-.19.27-.53.09-.82-.62-1.14-1.25-2.26-1.78-3.26h0Zm333.08,60.52c.18-.01.39.03.52-.06,1.86-1.25,3.71-2.53,5.57-3.8.72-.48.76-1.15.76-1.99-1.45.22-2.63.77-3.86,1.18q-3.07,1.05-3.06,4.26c.01.13.05.24.08.41h0Zm-336.56-57.75c.59-1.01,1.15-1.97,1.7-2.92,1.63-2.83.57-2.94-1.51-3.07-1.11-.08-2.19-.38-3.12.62-.57.62-.49,1.72.11,1.57.89-.21.83.29,1.02.68.53,1.01.64,2.28,1.8,3.13h0Zm184.48,141.4c-1.54,1.43-2.7,2.81-4.26,3.97,1.73.48,2.91,1.47,3.9,2.71.62.77,1.4.9,2.39.65-.54-2.43-1.18-4.74-2.02-7.33h0Zm-155.92-249.13c2.04-.49,3.81-.42,5.9-.72-1.58-2.24-2.99-4.24-4.43-6.31-.92.81-1.21,1.59-1.03,2.62.25,1.37.27,2.73-.44,4.42h0Zm-32.82,103.31c-.58.39-.97.67-1.39.94-.48.32-.65.66-.33,1.23,1.06,1.91,2.02,3.87,3.15,5.74.54.91,1.37,1.66,2.81,2.1-.77-1.42-1.1-2.62-1.06-3.92.01-.34-.19-.73-.35-1.05-.9-1.63-1.82-3.25-2.82-5.04h0Zm334.91,67.13c1.35-1.06,2.57-2.01,3.77-2.97.18-.15.39-.39.41-.6.05-1.48.65-2.91.38-4.57-1.67.54-3.25,1.08-4.83,1.58-.49.15-.8.43-.67.94.44,1.75.06,3.62.95,5.62h0ZM302.26,103.53c1-1.87.29-3.77.8-5.52.11-.39-.33-.66-.66-.82-2.02-1.02-4.06-2.04-6.34-3.18.04,2.4-.09,4.5-.4,6.58-.06.43.08.72.57.77,2.14.25,4.06,1.1,6.04,2.16h0Zm201.92,283.46c-.76-2.24-1.39-4.19-2.09-6.12-.19-.54-.37-1.39-1.08-1.35-1.78.11-3.58-.53-5.45.08.7,2.13,1.45,4.18,1.34,6.4-.02.51.37.6.76.6,2.1-.04,4.21-.01,6.52.41h0ZM334.44,89.04c.03.05.08.24.14.24,2.78.28,5.58.19,8.41.18-.29.39-.67.47-1.04.51-2.61.25-5.19.73-7.82.81-.54.03-1.15-.13-1.58.37-1.63,1.85-3.27,3.69-4.92,5.58.91.52,1.73.44,2.54.47,2.06.06,4.12-.01,6.17.14,1.21.09,1.95-.32,2.7-1.24,4.09-5.04,8.25-10.03,12.38-15.04.24-.3.67-.54.49-1.16-3.93.94-7.86,1.62-11.78,2.28-.38.06-.75.1-.96.47-.78,1.19-1.85,2.18-2.4,3.53,1.24.51,2.56.44,3.91,1.25-.96-.11-1.64-.15-2.32-.29-1.8-.35-3.23,0-3.92,1.92h0Zm-14.73,20.51c-.37-1.57-1.91-1.78-2.96-2.56-.25-.2-.62.1-.81.32-1.47,1.59-3.2,1.25-5.04.89-1.59-.33-3.05-.97-4.91-1.72,1.39,1.8,2.61,3.2,3.63,4.76.54.84.57-.39,1.08-.32-.51,2.54,1.3,4.36,1.95,6.92.97-2.25,1.21-4.33,1.99-6.33.22.62.08,1.11.01,1.61-.24,1.99-.71,3.92-1.33,5.83-.23.66-.61,1.39.2,2.1,1.87-3.2,3.5-6.43,5.11-9.67.34-.66.51-1.43,1.14-1.9-.2.65-.37,1.32-.62,1.95-1.38,3.63-2.95,7.17-4.97,10.48-1,1.62-.9,3.25-.81,5.02.7-.1.9-.61,1.19-.96,1.75-1.97,3.28-4.11,4.67-6.33.89-1.4.21,1.06.71.37,1.99-2.56,3.9-5.04,5.82-7.49,1.97-2.49,3.97-4.97,5.96-7.47,1.9-2.4,3.91-4.73,5.97-7.45-3.78.54-7.11.86-10.49.8-.54,0-1.16-.14-1.61.32-1.11,1.14-2.42,2.11-3.4,3.54,2.45,1.2,5.24,1.05,7.45,2.52-2.63-.08-5.28-.1-7.85-.57-1.78-.34-2.76.32-3.73,1.63,1.61,1.53,3.37,2.76,4.67,4.73-.95-.19-1.44-.68-2-1.04-.39-.27-.67-.16-1.02.01h0Zm171.21,252.23c-1.77,1.08-3.82,1.43-5.71,2.21-1.94.81-3.97,1.4-5.83,2.54,3.09.54,6.15-.94,9.64-.08-2.29.34-4.23.35-6.21,1.08,1.18.67,2.2,1.23,3.22,1.83.78.48,1.48,1.1,2.54,1,.51-.05.44.2.05.48-.3.22.02.42.19.54,1.52,1.2,2.76,2.67,4.4,4.38-.82-2.35-1.24-4.33-1.32-6.39-.05-1.48.18-2.71,1.4-3.64.33-.25.81-.61.54-1.08-.62-1.1-.76-2.54-2.07-3.2.39-.42.11-.8-.05-1.2-.24-.59-.7-1.14-.75-2.01,1.79,1.66,2.91,3.62,4.21,5.39,1.61-.77,2.24-1.89,2.1-3.62-.13-1.48.04-2.99.05-4.49,0-.41.19-.87-.38-1.25-10.81,3.43-21.8,6.52-32.44,10.69,2.13.27,4.23.41,6.33.57.67.06,1.19-.28,1.72-.59,1.59-.96,3.21-1.91,4.85-2.83,1.4-.78,2.87-1.39,4.48-1.66-2.76,1.62-5.68,2.96-8.48,5.17,1.92.37,3.44.71,5.04-.03,1.48-.67,3.01-1.23,4.55-1.72,2.59-.85,5.15-1.86,7.92-2.1h0Zm-116.75,127.85c.62.77,1.44,1.1,2.39,1.32,2.8.61,5.59,1.29,8.39,1.95.22.06.43.2,1.01.48h-5.59c1.59,1.34,2.78,2.53,4.77,2.63,1.78.1,3.62.03,5.5.63-1.58.66-3.16.49-4.62.87-.15.66.36.84.63,1.1,1.38,1.29,2.67,2.63,3.86,4.09.85,1.02,1.63,2.1,1.87,3.43.15.85.61,1.29,1.3,1.68,1.08.61,2.11,1.29,3.12,2.05-1.4-.03-2.53-.96-4.01-1.29-.29,2.23-.56,4.39-1.47,6.39-.27.57.11.94.4,1.34.75,1.06,1.51,2.13,2.01,3.43-1.01-1-2.01-1.99-3.16-3.13-.95,1.21-1.92,2.29-2.99,3.3.61.63,1.35.82,2.01,1.16,1.35.72,1.97,1.83,1.89,3.38-.06,1.06-.37,2.09-.64,3.11-.23.84-.52,1.67-.62,2.54-.32,2.14.19,2.96,2.24,3.66,1.91.63,3.82,1.19,5.72,1.81,1.77.6,3.54,1.23,5.3,1.85.47.18.94.37,1.37.62.63.37,1.56.59,1.51,1.47-.05.82-.99.86-1.59,1.1-3.09,1.21-6.23,2.2-9.53,2.68-3.82.57-8.43-.61-10.73-4.81-1.54-2.78-3.43-5.36-4.83-8.24-.73-1.48-1.13-3.02-1.39-4.64-.53-3.47-1.4-6.85-2.63-10.14-.15-.43-.35-.78-.71-1.08-1.81-1.43-3.62-2.86-5.58-4.44-.78,2.43-.52,4.91-1.44,7.5-.37-2.27-.67-4.19-.48-6.1.25-2.59-.68-4.61-2.59-6.36-1.01,1.95-2.01,3.87-3.01,5.8-.08-2.02.51-3.87,1.18-5.66.59-1.53.87-2.95.28-4.53-.46-1.24-.39-2.58-.4-3.9,0-1.3-.15-1.35-1.43-.96-1.67.53-1.72.53-1.53,2.29.28,2.67.33,5.34.08,8.06-.42-2.48-.83-4.97-1.27-7.45-.11-.75-.27-1.48-.39-2.21-.08-.44-.33-.7-.75-.67-.58.04-.43.52-.42.85.07,2.51.2,5,.26,7.5.04,1.48,0,2.95,0,4.83-.72-3.25-.89-6.19-1.32-9.07-.08-.49-.15-1-.15-1.49.04-2.75-1.04-4.92-3.24-6.57-.7-.52-.91-1.51-1.96-2.02-.42,2.4-.81,4.73-1.2,7.06-.09,0-.18-.01-.27-.03,0-1.96-.11-3.95.04-5.91.18-2.24-.39-4.07-1.86-5.82-2-2.39-3.58-5.1-5.23-8.03-1.63,2.34-2.67,4.81-4.47,6.82.65-1.59,1.15-3.26,1.96-4.77,1.35-2.49,1.51-4.78.08-7.38-1.16-2.11-1.7-4.54-2.18-6.95-.1-.52-.15-1.08-.59-1.7-1.58,2.02-3.11,3.96-4.69,5.99-.38-.66.04-1.05.23-1.43.71-1.45,1.43-2.91,2.24-4.33,1.83-3.26,2.16-5.07,1.25-8.36-2.1.89-4.19,1.77-6.29,2.66,1.38-1.64,3.1-2.78,4.9-3.81,1-.56,1.57-1.14,1.62-2.42.13-2.72,1.25-4.96,3.95-6.05-.14-.23-.19-.38-.29-.41-2.46-.68-2.44-.67-4,1.43-1.19,1.61-2.39,3.19-3.62,4.82-.49-.62,0-.94.18-1.25,1.09-1.91,2.2-3.78,3.32-5.67.26-.46.47-.82-.05-1.29-2.05-1.83-2.76-4.25-2.87-6.9,0-.19-.08-.37-.15-.72-2.63,1.64-5.2,3.26-7.83,4.9-.04-.72.52-.83.84-1.09,2.16-1.71,4.34-3.4,6.52-5.07.66-.51,1.08-1.1,1.38-1.91.84-2.29,1.83-4.52,2.75-6.78.27-.67.62-1.35.63-2.29-3.08.96-6.02,1.87-9.2,2.53.49-.75,1.19-.81,1.76-1.06,2.38-1.09,4.78-2.13,7.19-3.18.85-.37,1.51-.89,1.49-2.16-2.4.49-4.8.99-7.17,1.47-.03-.09-.05-.15-.08-.24,1.91-.71,3.8-1.53,5.75-2.1,1.81-.53,2.81-1.51,2.73-3.67-3.72.47-7.44.9-11.24.67,1.63-.33,3.27-.66,4.88-1,2.01-.43,4.02-.85,6.01-1.42.77-.22,1.15-.57,1.32-1.34.37-1.77.82-3.52,1.23-5.21-.42-.46-.76-.25-1.1-.14-4.76,1.53-9.53,2.99-14.4,4.14-.35.09-.77.14-1.06.35-2.64,2-5.86,1.94-8.91,2.45-1.14.19-2.32.24-3.44.41-1.15.18-2.54-.2-3.82-.27-.71-.04-1.47-.43-2.11.18-.18.16-.32.06-.47-.03-1.89-1.02-3.95-1.77-5.52-3.94.52,2.05,1.73,3.37,2.42,5.07-.87-.11-1.09-.73-1.42-1.18-.75-1.06-1.56-2.13-2.15-3.29-.62-1.2-1.4-2.01-2.99-2.18.43,2.33,1.78,4.23,2.54,6.35-1.16-1-2.51-3.06-3.56-5.62-.85-2.06-1.62-4.15-2.43-6.23-.62.2-.47.59-.4.96.76,4.45,2.01,8.76,3.59,12.98.21.57.44,1.13.52,1.75-3.19-4.37-4.04-9.64-5.61-14.74-1.18.81-.33,1.56-.2,2.23.16.78.64,1.48.72,2.59-.82-.86-1.1-1.73-1.56-2.48-.24-.38-.47-.75-.73-1.09-.04-.06-.22-.09-.33-.05-.18.05-.34.18-.24.39.15.41.37.8.54,1.19,2.21,4.78,1.61,8.67-1.96,12.59-.78.89-1.56,1.8-2.38,2.66-.48.51-.45.91-.06,1.45.86,1.19,1.67,2.42,2.24,3.87-1-.91-2.03-1.77-2.97-2.73-.56-.54-.99-.71-1.48.01-.04.05-.08.1-.13.15-1.4,1.23-2.05,2.58-1.52,4.58.54,2.02.8,4.15.8,6.29-1.25-2.09-1.85-4.43-2.59-6.67-.53.06-.7.43-.94.7-3.23,3.75-6.43,7.5-9.68,11.22-.62.7-.85,1.38-.85,2.35.01,2.8-.15,5.61-.33,8.41-.72-2.52-.47-5.16-1.14-7.82-1.28.95-1.92,1.85-1.58,3.51.78,3.67,1.04,7.4.89,11.19-1.04-3.56-1.38-7.26-2.61-10.89-1.64,1.15-2.62,2.63-3,4.71-.18-.47-.25-.7-.4-1.1-1.53,1.78-3.53,3.06-4.24,5.39-.34,1.08-.53-.05-.73,0-.73.16-1.1.87-1.91,1.32,1.04.68,1.86,1.21,2.66,1.78,2.2,1.58,3.63,3.62,3.64,6.43.01.81.39,1.4.84,2.02,1.25,1.76,2.47,3.56,3.69,5.34-.11.1-.24.2-.35.3-1.3-1.42-2.58-2.83-4.04-4.44-.51,2.26-.8,4.14.29,6.14,1.64,3,2.56,6.31,3.33,9.68-1.38-2.66-2.75-5.34-4.11-8.01-.15.04-.29.09-.43.13-.01,1.68-.27,3.35.35,5.06.76,2.09,1.39,4.24,1.59,6.54-.77-1.63-1.52-3.25-2.46-5.24-.71,2.33-1.66,3.97-3.48,4.93-.66.34-.53.92-.53,1.47-.02,2.38-.05,4.74-.08,7.12-.01.47,0,.95-.14,1.42-.7-2.1-.53-4.3-.87-6.43-.1-.56-.11-1.13-.15-1.68-.04-.8-.43-1.11-1.22-.95-.38.08-.76.09-1.11.18-.92.25-1.11.52-.61,1.29,1.1,1.68.94,3.44.51,5.24-.58,2.44-1.62,4.73-2.62,7.01-1.2,2.71-2.34,5.4-1.89,8.47.04.24-.04.49-.09.87-.7-.75-.1-1.8-.87-2.39-.14.1-.32.18-.43.3-1.08,1.24-2.38,1.82-4.01,1.4-.66-.15-.91.06-1.06.66-.58,2.15-1.48,4.24-1.25,6.58.08.72-.14,1.48-.28,2.21-.25,1.19-.95,2.06-2.06,2.49-2,.76-4.06,1.27-6.14,1.68-1.02.2-2.1.05-3.14-.29-2.7-.89-5.91-3.19-7.73-5.72,1.3.08,2.45.13,3.61.22,1.19.1,2.37.22,3.54.34,1.34.14,2.34-.41,2.92-1.59.47-.94.86-1.94,1.24-2.92.92-2.33,2.2-4.35,4.57-5.49q-1.45-1.39-3.26.34c-.05-.09-.16-.23-.14-.24,2.1-2.05.11-3.66-.57-5.58-2.16,1.47-4.2,2.92-6.58,3.85,1.29-1.13,2.53-2.34,3.91-3.34,1.88-1.35,2.86-2.9,1.58-5.28-1.64.73-3.43,1.53-5.23,2.33-.04-.09-.08-.15-.11-.24,1.54-1.01,3.09-2.05,4.67-3.04.7-.43,1.02-.95,1.06-1.81.09-2.14.71-4.18,1.57-6.14.59-1.39,1.35-2.68,2.68-3.53.51-.33.68-.6.29-1.18-1.62-2.35-2.52-5.01-3.24-7.88-2,.85-3.92,1.68-5.85,2.51-.06-.1-.13-.19-.18-.29,1.27-.78,2.49-1.63,3.8-2.34,1.53-.82,2.44-1.83,2.53-3.76.08-1.68.76-3.35,1.21-5.21-3.09.65-6.04,1.28-9,1.91-.02-.09-.05-.18-.08-.27,1.54-.57,3.11-1.14,4.67-1.71.63-.23,1.28-.47,1.92-.71q3.67-1.39,5.16-5.49c-3.68.44-7.25.02-10.83-.3,2.58-.29,5.18-.57,7.76-.87,1.11-.11,2.23-.28,3.34-.44.62-.09,1.21-.27,1.64-.8,1.04-1.34,2.51-2.02,4.02-2.68.16-.66-.29-1.02-.66-1.47-.68.1-.95.89-1.66,1.08.16-1.05,1.38-1.39,1.39-2.4.01-.87-.02-1.76-.02-2.62s.29-1.73.56-2.57c.14-.47.33-.92.25-1.44-.14-1.1-.59-1.39-1.38-.7-.52.47-1.19.3-1.86.99.21-.89,1.14-.99,1.02-1.65-.09-.54-.27-1.09-.4-1.63-.28-1.09-.56-2.18-.85-3.26-.09-.34-.11-.81-.61-.8-.37.03-.71.24-.85.65-.25.77-.58,1.52-.25,2.37.23.57.35,1.18.56,1.9-.71-.3-.59-1.11-1.23-1.47-.37.27-.51.75-.72,1.13-1.86,3.19-4.37,5.81-7.33,7.97-3.63,2.64-7.39,5.11-11.37,7.22-5.61,3-11.63,4.05-17.93,3.72-6.09-.3-12.07-1.28-17.84-3.18-9.2-3.02-16.25-8.9-21.57-16.9-.38-.57-.76-1.15-1.13-1.73-.04-.04-.1-.06-.23-.15-.4.3-.44.78-.57,1.24-1.47,5.29-2.77,10.63-4.49,15.85-.38,1.19-.85,2.35-1.34,3.51-.77,1.77-1.89,3.11-4.2,2.9,1.01,2.25.33,4.25-.58,6.21-.66,1.43-1.49,2.75-2.38,4.04-11.08,16.02-23.23,31.19-36.43,45.51-4.62,5.02-9.34,9.93-14.58,14.32-1.53,1.28-3.1,2.53-4.92,3.42-2.39,1.15-3.71.24-3.53-2.44.09-1.3.66-2.4,1.3-3.48,1.33-2.14,2.94-4.05,4.68-5.86,4.25-4.4,8.53-8.79,12.84-13.15,11.29-11.36,21.24-23.78,30.03-37.14,1.94-2.92,3.86-5.86,6.02-8.6,1.16-1.48,2.28-3.01,4.09-3.77.49-.2.62-.46.49-1-.33-1.33.05-2.62.48-3.86,2.87-8.34,5-16.88,6.95-25.47.29-1.28.66-2.54,1.28-3.72.34-.66.36-1.25.03-1.87-.77.04-.64.8-1.1,1.02-.23-.06-.16-.27-.11-.38.47-.95.49-1.78-.43-2.51-.37-.27-.63-.35-.99-.08-1.06.86-2.25,1.56-2.86,2.9-.82,1.81-1.79,3.57-2.9,5.28.38-1.27.76-2.53,1.19-4-1.05.2-1.42,1.14-2.42,1.45.47-1.18,1.42-1.75,1.82-2.73-1.67,1.27-3.01,2.87-4.53,4.3,1.63-3.47,4.77-5.69,7.1-8.59-3.54,2.35-6.2,5.66-9.67,8.67.71-1.77,1.28-3.16,1.83-4.56-.08-.04-.14-.1-.2-.15-.78.76-1.54,1.52-2.32,2.28,1.46-2.33,3.27-4.34,5.07-6.36,1.09-1.2,2.1-2.48,3.15-3.72.06-.1.14-.2.23-.29.37-.47.11-.84-.2-1.15-.39-.41-.65-.05-.9.22-2.25,2.34-4.57,4.62-6.11,7.53-.39.75-.89,1.45-1.42,2.14.67-2.51,1.99-4.68,3.49-6.73.81-1.13,1.39-2.33,1.68-4.15-3.33,2.77-6.74,4.85-9.12,8.1-.54-.34-.11-.68-.14-1.13-.67.11-.99.77-1.92,1.08,3.04-4.24,7.58-6.45,10.55-10.39-.73-.13-1.29.3-1.85.57-2.48,1.2-4.92,2.43-6.72,4.63-.26.34-.42.44-.83.04-.65-.61-1.2.38-2.02.27,2.95-2.77,6.05-5.3,8.83-8.6-1.95.32-3.37,1.2-4.9,1.73-1.61.56-2.73,1.64-3.94,3.26.09-.87.36-1.67.15-1.82-.63-.46-.43-.67.03-1,.77-.54,1.53-1.09,2.29-1.63.24-.18.49-.38.49-.96-1.38.54-2.39,1.61-3.96,2.15,2.27-2.61,5.45-3.72,7.9-6.45-4.11,1.09-7.42,2.99-10.84,4.54.19-.68.78-.91,1.3-1.28,2.28-1.66,4.88-2.68,7.45-3.78.52-.22,1.04-.42,1.54-.65.23-.11.46-.24.37-.56-.1-.38-.39-.47-.72-.41-.24.04-.49.1-.72.19-2.1.8-4.23,1.54-6.11,2.73-1.54.97-3.11,2.04-3.84,3.87-.14-1.27.25-2.32,1.29-3.06,1.21-.87,2.29-1.89,3.3-3.23-2.16.03-3.58,1.62-5.43,2.01,2.39-1.89,5.02-3.35,7.64-4.9-1.85.32-3.73.52-5.18,1.86-.81.77-1.61-.77-2.35.3.11-.61.48-.72.78-.82,2.54-.94,4.67-2.61,6.97-3.97,1.25-.73,1.24-.77.61-2-.53-1.02-.59-1.09-1.92-.49-2.58,1.14-4.93,2.68-7.36,4.11-1.09.66-2.19,1.32-3.38,1.83,1.56-1.38,2.97-2.9,4.76-4.02,1.77-1.14,3.82-1.83,5.48-3.23-3.4.92-6.5,2.58-9.67,4.18.32-.73.99-1.14,1.56-1.62.63-.52,1.27-1.01,1.95-1.47,1.67-1.1,3.47-1.97,5.25-2.87.34-.18.66-.35.99-.53.25-.13.43-.3.29-.58-.11-.25-.39-.3-.65-.24-.48.11-.96.25-1.43.41-2.91.99-5.72,2.15-8.5,3.44-.58.27-1.16.81-2.04.2,1.25-1.11,2.81-1.72,4.3-2.81-1.19,0-1.94.75-3.19.9.9-.81,1.76-1.19,2.58-1.62.86-.47,1.86-.68,2.67-1.3,1.73-.24,3.33-.94,4.91-1.64-1.71.19-3.42.42-4.91,1.39-1.24-.41-2.23.68-3.63.61,1.96-1.76,4.71-1.63,6.86-3.43-5.71-.3-10.81-1.77-16.01-2.71-4.05-.73-8.15-1.23-12.24-1.73-2.33-.28-4.77-.21-6.76-1.86-2.14,2.02-4.9,2.48-7.59,2.99-4.85.92-9.69,1.75-14.56,2.57-13.4,2.27-26.42,5.9-39.2,10.49-6.57,2.37-13.06,4.99-19.74,7.05-2.63.81-5.28,1.56-8.09,1.35-1.39-.09-2.52-.61-3.34-1.78-.33-.48-.33-.87-.03-1.37.51-.82,1.24-1.4,2.03-1.94,1.85-1.29,3.86-2.28,5.92-3.19,8.52-3.8,17.36-6.66,26.27-9.35,12.55-3.78,25.24-7.07,38.1-9.63,4.1-.81,8.22-1.51,12.35-2.21,1.54-.27,3.1-.22,4.66.1,1.21.24,2.24.76,3.21,1.83.77-2.28,2.53-2.59,4.49-2.59,3.28-.01,6.48.53,9.69,1.02,4.06.63,8.12,1.33,12.21,1.99-.03-.8-.53-1.23-.86-1.73-4.95-7.9-7.46-16.5-7.12-25.81.28-7.67,1.96-15.11,5.12-22.14,2.34-5.21,5.95-9.36,10.6-12.64,3.18-2.23,6.45-4.3,9.82-6.23,4.64-2.66,9.57-4.28,15.15-3.68-.2-1.27-1.34-1.81-1.61-2.92,1.43,1.24,2.86,2.48,4.31,3.71,1.43,1.22,1.43,1.2,2.76-.28-2.04-2.5-4.86-4.16-6.96-6.67,1.52.91,3.02,1.85,4.54,2.75,1.52.91,3.02,1.86,4.85,2.14-4.86-2.53-8.91-6.02-12.69-9.89,3.06,1.81,5.82,4.11,9.17,5.58-.99-1.19-1.97-2.38-2.96-3.57,2.87,1.9,5.24,4.35,8.25,5.98-1.71-2.14-3.66-4.06-5.07-6.44,1.7,1.44,3.39,2.88,5.1,4.31.52.43,1.1.82,1.66,1.2.18.11.37,0,.49-.13.13-.11.14-.23.04-.32-.67-.56-.56-1.54-1.52-2.08-2.47-1.37-4.5-3.34-6.55-5.3,3.2,1.58,6.06,3.81,9.57,4.97-1.26-2.69-2.2-5.47-3.14-8.14-.72-.18-.95.53-1.53.44.7-1.15,1.7-1.94,2.63-2.77.37-.3.89-.58.59-1.23-.24-.56-.7-.63-1.23-.65-.44,0-.92.06-1.32-.08-2.09-.76-3.54.27-5.01,1.57-1.85,1.67-3.78,3.25-5.8,4.77,1.76-2.33,3.69-4.52,5.92-6.81-2.06-.33-3.9-.48-5.67-.95-2.92-.77-5.69.14-8.52.54-.48.08-.96.28-1.53.08,1.29-.77,2.76-.9,4.04-1.52-.05-.61-.57-.54-.96-.68-2.32-.81-4.52-1.82-6.09-3.83-.34-.44-.76-.61-1.3-.59-.8.03-1.62.01-2.44-.23.67-.1,1.33-.2,2.01-.29.7-.09.77-.48.59-1.05-.15-.52-.39-.73-.95-.48-1.44.65-2.95,1.05-4.55.9-.68-.05-1.15.44-1.63.82-2.18,1.77-4.33,3.58-6.5,5.38-.46.37-.92.72-1.47.99,2.05-2.64,4.24-5.16,6.89-7.59-1.39-.48-2.56-.85-3.68-1.29-.62-.24-1.1.06-1.58.29-2.2,1.04-4.39,2.13-6.58,3.19-.54.27-1.1.52-1.73.67,2.2-1.92,4.69-3.43,7.25-5.16-2.24-1.18-4.36-2.21-6.21-3.68-.47-.38-.9-.25-1.39-.13-2.1.56-4.2,1.06-6.33,1.52,1.53-1,3.25-1.54,4.91-2.27,1.25-.54,1.28-.56.59-1.67-1.39-2.24-2.38-4.66-2.99-7.34-4.25.75-7.62-1.19-10.83-3.54-.67-.49-1.24-.68-2.04-.47-1.68.46-3.38.8-5.1,1.09,1.49-1.05,3.29-1.4,5.01-2.29-.38-.89-1.13-1.45-1.63-2.21-.34-.49-.89-.37-1.38-.33-2.18.19-4.35.39-6.53.61-.42.04-.85.21-1.41-.01,2.64-1.04,5.39-1.35,8.06-2.14-.24-.65-.58-1.21-.66-1.81-.22-1.67-1.2-2.33-2.8-2.3-.09,0-.19-.13-.4-.29,1.3-.18,3.09.38,2.75-2.05-.06-.13-.29-.03-.53.04-2.2.67-4.31.28-6.39-.58-.81-.34-1.61-.67-2.44-.96-2.08-.71-3.03-.42-4.39,1.32-1.29,1.66-2.61,3.33-3.87,4.96-.72-.32-.51-.82-.52-1.21-.04-2.44.22-4.86,1.04-7.19.67-1.9,1.8-3.4,3.61-4.38,1.16-.62,2.27-1.33,3.38-2.02,1.7-1.05,3.3-.91,4.86.3.35.27.75.51,1,.83,1.49,1.83,3.68,2.53,5.64,3.61.42.22.81.39,1.11-.14,1.02-1.86,2.69-2.27,4.67-2.04-.34-1.01-1.18-1.57-1.4-2.62.68.66,1.43,1.25,2.06,1.96.94,1.06,2.1,1.72,3.4,2.21,2.35.87,4.67,1.77,7,2.68,1.28.51,2.51,1.13,3.64,1.92,1.1.77,1.91,1.73,2.3,3.07.38,1.24.56,1.27,1.64.48.46-.32.9-.67,1.44-1.09-1.49-2.2-3.45-3.94-5.01-6.06.61-.35.83.18,1.1.42,1.48,1.34,2.94,2.72,4.42,4.07.39.37.71.89,1.42.67,1.95-.61,3.82-.24,5.86.84-.37-2.02-1.48-3.5-1.72-5.26,1.4,1.78,2.51,3.75,3.52,5.73.77,1.52,2.01,2.48,3.62,3.72-.63-3.21-2.02-5.81-2.61-8.63,1.44,2.11,2.54,4.39,3.61,6.68.27.57.57,1.14.71,1.75.53,2.23,2.04,3.62,4.14,4.73.34-2.33-.25-4.57-.19-6.83.9,2.18,1.25,4.5,1.7,6.78.19,1.08.49,2,1.27,2.82,2.21,2.33,2.18,5.19,1.67,8.11-.09.48-.37.94-.18,1.59.77-.15,1.68.53,2.33-.58.16-.28.57-.08.85.05,1.87.78,3.85.22,5.74.52.65.1.43-.97,1.09-.59.39.22.77.48,1.19.54.97.14,1.97.15,3.29,0-1.91-3.33-4.18-6.21-6.33-9.36.62-.06.81.35,1.05.61,2.35,2.42,4.72,4.85,6.58,7.68.94,1.4,2.09,1.48,3.82,1.35-1.58-1.88-2.96-3.54-4.38-5.23.62-.34.85.18,1.13.42,1.59,1.4,3.16,2.82,4.72,4.28.43.39.8.72,1.44.75,5.18.23,10.36.49,15.54.75.3.01.63.1.97-.32-1.11-1.97-2.3-4-2.77-6.39,1.37,1.75,2.91,3.39,4.04,5.28,1.19,2.02,2.92,1.77,4.71,1.77.63,0,.65-.48.65-.94,0-1.37,0-2.72.16-4.11.68,1.15.8,2.45,1.04,3.69.18,1.01.56,1.53,1.68,1.49,1.38-.05,2.73.11,4.11.16,3.52.11,6.19,1.7,8.16,4.58.25.35.3,1.34,1.09.83.89-.57.08-1.06-.3-1.47-2.21-2.39-4.67-4.53-7.09-6.72,2.43.96,4.36,2.66,6.44,4.23-2-3.33-4.69-6.1-7.28-8.97,2.72,1.71,5.04,3.87,7.11,6.4,1.2-2.8-.2-4.86-1.68-6.9.13-.05.25-.11.38-.16.64.71,1.29,1.43,1.95,2.15.91-1.4.92-1.4.19-2.56-.63-.97-1.29-1.92-1.83-2.96,1.09.65,1.71,1.76,2.62,2.53.67-.16.64-.77.82-1.19,1.04-2.49,2.19-4.91,3.63-7.19.76-1.21,1.56-2.43,2.86-3.16.42-.22.62-.61.86-.97,4.33-6.5,9.24-12.6,14.12-18.7.27-.34.53-.7.82-1.02.7-.78-.24-.66-.66-1.08,1.37.24,2.01-.54,2.64-1.39,1.34-1.73,2.73-3.42,4.12-5.15-.82-.85-1.72-.85-2.64-.56-1.19.38-2.32.9-3.38,1.61-1.7,1.13-3.48,2.1-5.56,2.57,1.57-1.29,3.14-2.58,4.69-3.9.8-.67.78-.68-.4-1.25.53-.38,1.25-.06,1.8-.72-1.43-.7-2.8-1.35-4.15-2.01-.38-.18-.72.03-1.08.14-1.27.41-2.44.91-3.53,1.68-1.77,1.24-3.66,2.27-5.8,2.9,2.35-2.04,4.71-4.06,7.05-6.09-.08-.66-.66-.68-1.08-.9-1.71-.9-3.49-1.67-5.16-2.63-1.18-.68-2.08-.49-3.05.3-2.04,1.64-4.14,3.24-6.2,4.85-.38.29-.68.68-1.67.83,2.49-2.81,4.8-5.19,7.43-7.44-1.49-1.04-2.73-1.57-4.34-.44-1.57,1.11-3.32,1.96-5.07,2.81,1.44-1.62,3.26-2.78,4.92-4.23-.68-.97-1.51-.8-2.33-.39-2.35,1.15-4.68,2.34-7.04,3.52-.72.35-1.42.72-2.23.97,2.47-2.06,5.04-3.91,7.74-5.56-.09-.67-.65-.63-1.01-.75-2.83-.96-5.69-1.86-8.54-2.77-.68-.22-1.37-.04-2.02.11-2.92.67-5.84,1.33-8.77,1.99-.23.05-.49.03-.78-.16,3.02-1.01,6.05-2.02,9.16-3.06-.62-.63-1.11-1.16-1.61-1.68-1.27-1.37-2.21-2.97-2.29-4.82-.06-1.29-.71-1.53-1.68-1.68-2.72-.42-5.43-.85-8.15-1.28-.16-.03-.35-.01-.46-.25,2.58-.2,5.12.2,7.69.28,2.72.1,2.72.11,3.68-2.54-.13-.01-.27-.09-.35-.04-2.48,1.25-4.78.68-6.86-.86-1.06-.78-1.96-.8-3.1-.32-1.78.75-3.67,1.19-5.72,1.23,1.91-1.01,3.82-2.04,5.79-3.09-1.57-2.38-3.69-3.71-6.39-4.18-2.25-.39-4.5-.72-6.62-1.77h7.15c.18-.7-.34-.97-.62-1.34-2.04-2.56-3.8-5.29-5.14-8.26-.47-1.01-1.15-1.51-2.18-1.81-2.38-.7-4.74-1.49-7.08-2.39,2.53.03,4.98.65,7.43,1.01.34-.51.03-.84-.08-1.14-1.2-3.16-2.15-6.4-2.89-9.69-.21-1-.68-1.71-1.44-2.3-1.52-1.2-3.02-2.42-4.53-3.64-.42-.34-.95-.56-1.21-1.33,2.24.97,4.09,2.34,6.4,3.57-.53-2.28-.85-4.28-.92-6.31-.01-.68-.61-1.08-1.02-1.52-2.34-2.52-4.72-5.01-7.06-7.52-.54-.58-1.08-1.19-1.43-1.97,3.2,2.81,6.4,5.61,9.63,8.43.75-.85.21-1.35-.23-1.86-1.48-1.71-2.95-3.42-4.42-5.11-.44-.52-.89-1.04-1.24-1.7.95.38,1.62,1.13,2.35,1.78.83.75,1.66,1.52,2.48,2.29.77.72,1.53,1.44,2.37,2.21.72-.67,2.02-.85,2.18-1.66.19-.97-1.11-1.34-1.76-1.99-.67-.66-1.4-1.3-1.83-2.13-.65-1.2-1.67-1.78-2.9-2.18-1.89-.63-3.71-1.38-5.73-2.64,2.43.01,4.31.89,6.43,1.06-.14-2.34-.85-4.25-2.78-5.64-1.76-1.25-3.29-2.77-4.52-4.64,2.04,1.23,4.09,2.47,6.38,3.87.05-2.73.11-5.15.14-7.57,0-.58-.42-1.04-.72-1.51-1.86-3.05-3.93-5.93-6.36-8.57-.81-.87-1.44-1.87-1.95-2.96-1.61-3.47-2.76-7.11-3.86-10.76-.67-2.23-.34-4.45.82-6.52,1.02-1.83,2.43-3.33,4.04-4.66,2.21-1.85,4.7-3.29,7.21-4.71.44-.24.92-.57,1.4-.28.57.37.34,1,.29,1.54-.09.95-.41,1.82-.7,2.72-.92,2.8-2.11,5.48-3.2,8.2-.28.7-.59,1.39-.85,2.09-.63,1.85-.24,2.92,1.47,3.93.63.38,1.34.66,2.02.96.73.34,1.49.65,2.21,1.03,2.21,1.19,2.73,2.34,2.19,4.76-.1.48-.27.96-.21,1.54.7.4,1.42-.01,2.13-.03h2.2c.14-1.75-.38-3.49-.49-5.67.84,1.73,1.06,3.21,1.44,4.64.23.92.59,1.51,1.61,1.78,1.82.48,3.42,1.49,5.04,2.63.99-1.53.9-3.39,2-5.24-.27,1.78-.46,3.2-.67,4.59-.16,1.01-.16,1.91.56,2.81,1.13,1.42,1.29,3.21,1.58,4.95.26,1.67.43,3.34.47,5.21,1.58-.72,2.39-2.23,4.04-2.78-.85,1.25-1.71,2.52-2.56,3.76q-1.67,2.42-1.43,5.79c1.14-1.42,2.16-2.71,3.33-4.16.19.67-.09,1.01-.24,1.34-1.2,2.48-2.42,4.93-3.62,7.4-.42.84-1,1.64-.42,2.63-.11.01-.32-.01-.34.05-.62,1.27-1.28,2.51-1.81,3.81-.23.58.35,1.4,1.01,1.52.82.14,1.66.2,2.67.32-.57-1.95-1.11-3.76-1.66-5.58,1,1.08,1.42,2.48,2.04,3.76.78,1.63,1.43,3.31,2.88,4.53.56.47.92,1.16,1.61,2.09v-7c.61.11.65.46.67.73.27,2.54.61,5.1.76,7.64.05,1.35.29,2.59.89,3.78.65,1.32,1,2.77,1.99,4.35.92-4.16.83-8.09,1.52-11.93.19,3,.67,5.97.51,8.98-.11,1.92-.09,3.88-.52,5.78-.13.52-.02.97.2,1.44.58,1.18,1.14,2.35,1.86,3.88,1.96-3.43,3.03-6.95,4.68-10.17-.72,3.82-1.75,7.57-3.19,11.2-.32.78-.57,1.52.34,2.2,1.01-2.09,1.85-4.24,3.3-6.1-.42,3.18-1.68,6.15-2.06,9.32.84-1.63.94-3.49,1.73-5.15.57.23.33.67.3.99-.21,2.73-.04,5.5-.48,8.22-.15.85.1,1.61.47,2.47,1.24-.66,1.61-2,2.43-2.94.82-.92,1.53-1.96,2.73-3.02-.33,1.62-1.14,2.67-1.64,3.83-.42.96-1.42,1.85-1.29,2.85.14.99,1.33,1.58,2.02,2.38.9,1.04,1.91,1.99,2.73,3.09.8,1.04,1.73,1.56,3.02,1.53.62-.01,1.23.06,2.19.11-1.19-2.96-2.71-5.57-3.81-8.35,1.82,2.37,3.63,4.74,5,7.39.61,1.14,1.37,1.83,2.63,2.1.97.19,1.91.61,2.85.95.75.28,1.04-.03,1.03-.76-.05-2.38-.13-4.76-.15-7.12-.01-.66-.19-1.34.2-2.24.76,3.24,1.32,6.3,1.57,9.39.1,1.29.61,2.06,1.77,2.56,1.66.7,3.28,1.48,5.25,2.38-1.54-2.92-3.56-5.1-5.04-7.63.11-.08.21-.16.3-.24,1.62,1.77,3.27,3.52,4.83,5.33.95,1.08,1.8,2.25,2.63,3.42.49.68,1.05,1.21,2.06,1.38.08-1.99-.7-3.87-.24-5.91.71,1.95,1.38,3.91,2.14,5.85.2.56.16,1.4,1.19,1.49-.06-.91-.91-1.52-.72-2.52,2.46,3.32,5.64,5.55,9.64,6.96-.43-2.66-.97-5.23-.97-7.87.67.1.54.68.67,1.03.91,2.59,1.87,5.17,2.49,7.86.33,1.4,1.51,2.08,2.43,3.28.76-1.9.91-3.83,1.97-5.76.25,2.52-.38,4.66-.25,6.86,1.09-.71,22-26.66,23.57-29.23-.34-.68-1.32-.66-1.7-1.34.32-.29.62-.15.89-.1,2,.38,2,.39,3.1-1.4-1.92-.99-4.02-1.63-6.06-3.16,2.54.33,4.63,1.16,7.03,1.61-.62-2.57-.8-5-2.85-6.74-1.13-.96-1.97-2.23-2.58-3.72.77.56,1.53,1.11,2.29,1.66-.85-2.01-2.13-3.77-3.13-6.11,1.44.96,2.09,2.3,3.3,3.09.2-.96-.27-1.71-.29-2.51-.02-.94-.58-1.44-1.43-1.75-2.11-.77-4.2-1.59-6.3-2.39-.42-.15-.81-.32-1.18-.61,2.72.3,5.38.89,8.22,1.73-.18-2.3-.42-4.4-1.7-6.28-1.94-2.87-4.37-5.3-6.68-7.84-.54-.58-1.09-1.16-1.51-1.89,3,2.24,5.95,4.53,8.54,7.33-.32-2.95.13-5.95-1.99-8.5-1.44-1.75-2.51-3.8-3.47-5.9,1.48,1.81,2.95,3.63,4.67,5.73.23-1.21-.15-2.11-.04-2.96.46-3.21-.91-5.81-2.64-8.33-1.73-2.51-3.39-5.1-5-7.72,2.77,2.8,5.24,5.83,7.38,9.36.67-1.23.59-2.1-.24-3.02-2.43-2.69-4.96-5.3-7.57-7.82-.46-.43-.9-.87-1.24-1.42,3.67,2.15,6.55,5.24,9.65,8.48.43-1.83.77-3.38,1.15-4.92.16-.67-.28-1.06-.59-1.49-1.97-2.76-4.14-5.35-6.42-7.84-.34-.35-.67-.72-.91-1.16,3.39,2.2,5.81,5.38,8.35,8.55,1.01-1.27,1.33-2.47.53-3.95-1.1-2.02-2.06-4.13-3.09-6.2-.18-.38-.57-.67-.4-1.3,2.02,2.32,3.42,4.92,4.76,7.71.97-1.14,1.58-2.14,1.16-3.63-.44-1.53-.59-3.16-.77-4.77.97,1.53,1.19,3.33,1.66,5.09,2.27-1.19.72-2.64.53-3.97.38-.11.41.2.51.34.17.19.21.44.37.65.23.32.27,1.01.86.73.54-.25,1.08-.71.77-1.49-.23-.58-.46-1.16-.68-1.75-.38-.92-.77-1.83-1.05-2.8,1.1,1.29,1.78,2.85,2.51,4.2.3.3.43.09.58.03,2.01-1.05,2.96-2.51,1.8-4.76-.08-.15-.01-.37-.01-.63.94.78.7,2.15,1.81,3.04-.15-2.11-1.32-3.67-1.82-5.72,1.04,1.23,1.53,2.43,2.13,3.56.17.33.32.68.51,1,.05.09.2.13.32.11.19-.01.35-.13.32-.35-.02-.3-.11-.61-.19-.91-.52-1.91-1.04-3.83-1.47-5.78,1.27,1.9,1.85,4.09,2.63,6.19,1.62-.53,1.61-.52,1.29-2.02-.13-.58-.51-1.14-.19-1.82.76.73.62,1.89,1.32,2.73,2.01-.96,3.94-2.21,6.2-2.51.61-.08.61-.53.7-.95.45-2.21.73-4.44.92-6.68.04-.38.05-.73.34-1.15.04.72.49.96,1.02,1.13,1.97.58,3.94,1.18,5.91,1.76.94.27,1.34-.11,1.01-1.03-.49-1.34-.92-2.71-1.77-3.9-1.05-1.47-1.92-3.05-2.51-4.77,2.05,1.78,3.57,4.02,5.56,6.17.63-1.28,1.2-2.42,1.77-3.56.2-.44.03-.85-.13-1.27-.35-.94-.81-1.82-1.39-2.64-1.1-1.51-2.06-3.11-2.75-4.9,1.97,1.83,3.76,3.85,5.64,6.11.81-1.33,1.4-2.62,2.28-3.69,1.2-1.53,1.04-2.81-.14-4.26-.77-.96-1.32-2.11-1.96-3.18-.01-.03.06-.1.15-.28,1.49,1.23,2.49,2.87,3.96,4.37,1.08-1.59,2.07-3.09,3.07-4.57.36-.52.04-.97-.11-1.42-.59-1.71-1.24-3.4-1.86-5.11-.14-.38-.49-.75-.1-1.35,1.09,2.04,2.14,4,3.28,6.12,1.11-1.59,2.09-3.05,3.14-4.44.48-.66.2-1.14-.13-1.7-1.25-2.16-2.52-4.31-3.76-6.49-.3-.53-.73-1-.57-1.82,1.87,2.63,3.73,5.25,5.69,8.01,1.51-1.82,2.64-3.67,3.83-5.47.36-.52.1-1.1.05-1.66-.4-4.86-1.24-9.64-2.26-14.41,2.14,4.33,2.53,9.11,3.44,14.27.96-1.52,1.58-2.73,2.43-3.76,2.1-2.54,2.23-5.34,1.67-8.43-.54-3.07-1.16-6.11-1.82-9.16,2.06,3.64,2.27,7.83,3.23,11.86,1.13-.75,1.27-1.78,1.23-2.87-.13-3.63-.02-7.25-.43-10.87-.08-.68,0-1.37,0-2.47,1.11,4.56,1.21,8.81,1.43,13.37,1.18-.97,2.09-1.81,3.21-2.32.81-.35,1.94-.08,2.4-.76.44-.67.28-1.7.49-2.54.49-1.94,1.18-3.82,1.96-5.66,2.64-6.29,4.86-12.72,6.54-19.33.48-1.87,1.11-3.71,1.92-5.48,1.47-3.24,3.77-5.52,7.24-6.58,2.46-.76,4.83-1.71,7.43-1.89,2-.13,3.7.43,4.96,2.08.94,1.23,1,2.1.13,3.42-.61.96-1.42,1.75-2.27,2.49-1.68,1.51-3.39,2.97-5.05,4.49-1.34,1.21-2.61,2.53-3.59,4.06-.86,1.34-1.43,2.75-1.52,4.37-.11,1.87-.33,3.75-.77,5.57-.89,3.72-2.55,7.04-5.1,9.91-1.99,2.24-4.42,4.02-6.36,6.48,1.04.65,2.37.23,3.52.58.05.01.11,0,.18,0q2.81-.04,4.55-2.38c.13-.18.29-.33.53-.61,0,.72-.38,1.09-.61,1.49-.78,1.43-.8,1.43.87,2.62.57-.78,1.19-1.62,1.8-2.44.11.1.24.2.37.3-.37.82-.97,1.52-1.58,2.18-.46.52-.67,1-.49,1.7.25,1.05-.18,2.1-.08,3.48,1.72-1.67,2.78-3.57,4.23-5.16-1,3.01-3.32,5.21-5.26,8.09,1.77-.54,2.62-1.85,3.96-2.4-.78,1.1-1.68,2.11-2.78,2.86-1.4.92-2.19,2.16-2.49,3.95,1.3-.15,2.27-.92,3.32-1.48,1.08-.57,2.1-1.21,3.24-1.72-.6.9-1.46,1.45-2.32,2-1.09.71-2.2,1.47-3.42,1.95-1.66.66-2.24,1.99-2.83,3.88,3.4-1.99,6.17-4.21,8.96-6.43-1.09,1.49-2.33,2.85-3.8,3.96-1.75,1.32-3.53,2.61-5.33,3.83-.77.52-1.32,1.14-1.59,2.11.73.25,1.27-.37,2.01-.28-2.67,1-3.92,3.15-4.85,5.82,4.5-.92,8.72-2.43,13.12-3.9-.39.72-.96.78-1.4,1-3.63,1.72-7.47,2.85-11.34,3.87-1.3.34-2,1.06-2.33,2.42,2.3-.25,4.4-1.05,6.59-1.43-1.85,1.05-3.81,1.91-5.83,2.48-1.94.54-3.06,1.73-3.81,3.61.49.24.97.15,1.43.08,3.2-.53,6.42-1.04,9.59-1.71,1.18-.24,2.02-.72,2.78-1.66,5.81-7.12,11.73-14.16,17.5-21.32,6.4-7.96,13.48-15.3,20.66-22.54,4.49-4.53,9.08-8.96,14.23-12.74,3.83-2.82,7.74-5.52,11.63-8.25.81-.57,1.67-1.11,2.54-1.58,8.92-4.71,18.09-8.76,28.17-10.34,1.21-.19,2.51.14,3.66-.51h10.88c.29.44.79.3,1.19.4,2.37.61,4.72,1.3,6.55,3.01,1.47,1.35,1.78,2.73.77,4.37-1.57,2.54-1.64,5.19-.89,7.95.27.96.56,1.92.89,2.86.9,2.53,1.8,5.05,2.76,7.57.91,2.44.9,4.76-.75,6.92-.84,1.09-.95,2.27-.35,3.52.95,1.99.77,4,.18,6.04-.48,1.62-.96,3.24-1.34,4.87-3.02,12.89-6.04,25.79-9.03,38.67-.59,2.54-1.2,5.07-1.8,7.6.25.05.39.13.48.09.52-.2,1.04-.42,1.56-.65,27.17-12.01,55.32-20.8,84.65-25.69,8.51-1.43,17.06-2.49,25.66-3.04,9.76-.62,19.49-.62,29.22.39,8.29.86,16.41,2.45,24.36,4.95,8.79,2.77,17.11,6.6,24.93,11.51.87.54,1.4,1.11,1.32,2.21-.08.92.01,1.86.33,2.76v9.38c-.2.66-.32,1.32-.33,2-.16,8.55-1.86,16.88-4.04,25.1-4.53,17.11-11.81,33.04-20.57,48.32-2.08,3.64-4.26,7.21-6.52,10.74-.28.46-.75.85-.75,1.7,1.77-1.23,3.06-2.78,4.73-4.23-.04.78-.46,1.09-.76,1.43-1.7,1.94-3.61,3.63-5.56,5.31-.61.53-1.15,1.11-1.62,1.8-11.11,16.49-23.69,31.78-37.44,46.11-.38.41-.87.72-1.04,1.29.24.53.73.38,1.14.44,5.58.71,11.15,1.45,16.74,2.11,4.9.58,9.81,1.09,14.73,1.54,2,.19,3.8.73,5.23,2.19,1,1.01,2.19,1.25,3.44.86,2.72-.84,4.88.14,6.9,1.85,2.29,1.95,4.57,3.9,6.91,5.77,1.66,1.33,3.4,2.54,5.55,3.02.99.23,1.95.28,2.96.1,2.86-.51,4.34.51,4.97,3.38.58,2.62.49,5.24-.25,7.79-2.89,9.95-7.67,18.83-15.01,26.26-1.09,1.1-2.09,2.33-3.15,3.47-3.4,3.71-7.17,6.97-11.4,9.7-2.1,1.35-4.15,2.77-6.18,4.24-6.68,4.83-14.11,8.28-21.51,11.75-11.1,5.2-22.51,9.59-34.15,13.41-.57.19-1.15.33-1.8.8,1.27.62,2.33.77,3.51-.1.83-.63,1.83-1.06,2.9-1.38-1.08.82-2.15,1.64-3.23,2.47q.77,1.38,2.78,1.16c-2.1.57-2.25,2.32-2.46,3.96-.15,1.25-.03,2.53-.03,4.06,1.48-1.48,3.16-2.28,4.54-3.54,4.59-4.18,10.02-6.24,16.25-6.18.68,0,1.38-.04,2.06.04,2.64.3,4.9-.61,7.03-2.04,2.14-1.44,4.01-3.2,5.92-4.91,1.26-1.13,2.48-2.29,3.95-3.15,1.9-1.11,3.02-.9,4.36.82.99,1.25,1.39,2.67,1.06,4.23-.77,3.66-2.34,7-4.43,10.05-1.48,2.15-3.78,3.21-6.23,3.95-3.07.92-6.24,1.32-9.39,1.72-5.04.66-9.92,1.92-14.8,3.19-3.04.77-6.02,1.72-9.2,1.58-.33-.01-.67.04-.73.42-.32,2.09-1.78,3.45-3.4,4.96,4.09.67,7.95,1.21,11.59,2.62-1.23.22-2.34-.28-3.51-.44-2.71-.39-5.42-.87-8.14-1.25-1.51-.22-1.53-.16-3.11.86,3.88,1.43,7.92,2.23,11.46,4.58-.76.14-1.22-.25-1.71-.44-3.49-1.35-7.06-2.49-10.74-3.23-.54-.1-1.06-.24-1.64,0-2.34,1.01-4.69,2.01-7.22,3.39,4.8,1.62,9.58,2.52,13.91,5.21-.89.08-1.42-.29-1.97-.49-4.18-1.51-8.43-2.76-12.77-3.68-.58-.11-1.08-.2-1.62.09-1.8.96-3.63,1.89-5.63,2.91,2.46,2.26,4.8,4.42,7.24,6.66-.64.24-.9-.16-1.2-.38-2.05-1.54-4.13-3.04-6.11-4.67-.92-.76-1.68-.8-2.67-.19-1.28.77-2.62,1.42-4.09,2.2,1.86,1.33,3.57,2.54,5.31,3.78-.56.47-.89.01-1.2-.15-1.57-.77-3.13-1.58-4.67-2.4-.59-.3-1.14-.42-1.77-.09-1.43.75-2.87,1.48-4.49,2.32,1.45,1.63,2.83,3.19,4.34,4.87-.65.15-.89-.24-1.16-.47-1.27-1.04-2.51-2.09-3.76-3.11-.37-.3-.7-.72-1.32-.43-1.8.84-3.63,1.62-5.58,2.49,1.86,2.19,3.81,4.18,5.38,6.48-1.45-.77-2.71-1.76-3.92-2.82-.33-.28-.66-.58-.97-.87-1.57-1.44-3.24-2.33-5.36-1.08-.47.28-1.05.38-1.8.65,1.85,2.02,3.62,3.96,5.39,5.9-.09.1-.19.22-.29.33-1.37-.8-2.66-1.73-3.82-2.82-1.13-1.04-2.43-1.75-3.8-2.38-1.01-.48-1.4-.16-1.16.96.48,2.37.58,4.81,1.37,7.21h-4.74c-.49.01-1,.09-1.49.06-1.43-.08-2.29.44-2.63,1.95-.35,1.4-1.34,2.53-2.2,3.68-.52.68-.64,1.15.33,1.52.7.25,1.33.7,1.89,1.37-.7-.25-1.38-.51-2.06-.76q-1.27-.46-2.23.92c1.73,1.05,3.69,1.72,5.6,3.24-2.49-.52-4.31-1.96-6.55-2.05,1.09,1.35,2.76,1.94,3.81,3.3-1.61-.63-3.04-1.75-4.68-2.29-.08.14-.15.28-.23.42.81.49,1.62.96,2.63,1.57-1.02.19-1.62-.32-2.25-.56-.75-.28-1.3-.27-1.8.43-.46.66-1.2,1.09-1.63,1.94,1.27.95,2.68,1.72,3.72,3.04-1.11-.62-2.26-1.18-3.34-1.86-.95-.61-1.71-.66-2.33.43.19.73,1.08.77,1.48,1.53-1.33-.19-2.75-1.94-3.85.27,1.39.64,2.95.9,4.42,2.07-1.56-.16-2.68-.66-3.83-1.08-1.45-.52-2.77-.52-4.19.67,2.72,1.54,5.05,3.52,7.4,5.8-.68.06-.94-.3-1.24-.51-2.02-1.34-4.1-2.62-6.09-4.05-1.29-.96-2.48-.84-4.02,0,2.82,2.92,5.68,5.68,7.64,9.4-.68-.18-.87-.67-1.15-1-2.15-2.53-4.42-4.95-6.81-7.25-.75-.71-1.47-1.05-2.51-.89-1.28.2-2.56.42-4.33.33,3.11,3.64,5.73,7.07,7.74,11.02-.71-.01-.81-.54-1.06-.89-2.23-3.02-4.58-5.95-7-8.82-.84-1.03-1.71-1.58-3.34-1.11,1.61,1.47,3.23,2.7,4.59,4.2,1.38,1.51,2.76,3.01,3.95,4.72-.58-.51-1.18-1-1.75-1.53-2.72-2.51-5.56-4.86-8.47-7.12-.59-.47-1.2-.78-2-.87-1.87-.22-3.69-.58-5.96-.96,2.04,2.15,3.85,4.06,5.64,5.96-.06.08-.11.13-.18.19-1.57-1.32-3.23-2.54-4.69-3.97-2.02-2-4.31-3.33-7.17-3.64-.67-.08-1.33-.28-2.42-.52,2.82,3.19,4.85,6.48,6.62,9.93-1.51-1.8-3.04-3.58-4.53-5.39-1.13-1.34-2.38-2.57-3.62-3.81-1.75-1.77-3.99-2.38-6.44-2.9.28,2.77.83,5.38.41,8.06-.47-1.99-.92-3.97-1.42-5.95-.72-2.83-.73-2.83-3.47-3.66-.29-.09-.59-.14-1.24-.29,1.09,1.33,2,2.4,2.89,3.48-2.04-.8-3.59-2.32-5.49-3.81.08,1.19.95,1.73,1.08,2.75-.48-.05-.74-.37-1.01-.63-.61-.62-1.33-1.18-1.8-1.9-1.54-2.4-4.01-3.23-6.72-4.13.28,2.43.54,4.69.82,6.95-1.18-1.49-1.62-3.29-2.1-5.04-.23-.78-.46-1.56-.81-2.29-.4-.78-.97-1.25-2.02-1.25.28,2.18.54,4.34.82,6.58-.67-.16-.7-.73-.85-1.13-.47-1.28-.97-2.57-1.29-3.9-.48-1.95-1.41-3.44-3.42-4.1-.7-.23-1.29-.76-2.13-.91-.48,1.56-.96,3.09-1.54,4.97-.57-1.1-.38-1.96-.42-2.77-.04-.81.01-1.63.03-2.43,0-.44.09-.91-.33-1.21-1.97-1.44-2.67-3.52-2.8-5.81-1.11-.15-1.61.38-1.96,1.21-.59,1.37-1.25,2.72-2.43,4.13.28-1.76,1.33-2.94,1.64-4.49-1.44.06-2.43.53-3,1.97-.68,1.73-1.67,3.32-3,4.68.7-1.83,1.77-3.49,2.57-5.69-10.49,3.49-20.69,6.88-31.01,10.31,1.47,2.66,3.28,4.93,4.44,7.6-2.08-1.51-3.64-3.49-5.52-5.67-.62,3.38-1.89,6.29-.99,9.46.2.72.2,1.49.34,2.23.13.65-.32.86-.72,1.11.66-1.2-.33-1.92-.68-2.94-.57.56-.24.92-.06,1.3.25.54.8.95.76,1.63,1.21,1.25,1.87,2.85,2.57,4.43-1.56-1.14-2.72-2.66-4.07-4.15-.78.99-.56,1.92-.29,2.87,1.08,3.94,1.56,7.96,1.9,12.03-1.23-3.05-1.72-6.31-3.04-9.74-.62,2.34-1.19,4.33-1.68,6.34-.23.95.28,1.63.97,2.28,2.45,2.3,4.49,4.99,6.57,7.67-2.82-2.21-5.31-4.78-8.36-7.05-.72,1.82-1.44,3.5-2.08,5.23-.2.57.24,1.08.44,1.59,1.04,2.67,1.82,5.42,2.38,8.24-1.51-2.37-2.33-5.07-3.81-7.55-.82.78-1.21,1.8-1.89,2.59-.37.43-.37.9-.29,1.4.35,2.42.7,4.82,1.01,7.24.1.78.4,1.16,1.25,1.3,2,.34,3.99.85,5.96,1.48-2.54.43-5.1.28-7.72-.06.19,1.27.97,1.85,1.8,2.43,2.37,1.7,4.72,3.45,7.02,5.3-1.9-.11-3.38-1.29-5.15-1.72,1.11,1.23,2.73,1.49,4.12,2.19,1.44.72,2.94,1.34,4.37,2.15-2.3.05-4.47-.76-6.69-1.27.28,1.29.28,1.33,1.47,1.7,3.18.97,6.18,2.37,9.16,3.8.38.19.75.39,1.1.7-3.44-.68-6.71-2.11-10.34-2.69.47,1.63,1.25,2.91,1.86,4.25.22.49.75.63,1.18.89,3.83,2.39,7.22,5.35,10.41,8.54.05.05.05.18.13.48-3.28-1.99-6.09-4.44-9.54-5.95,1.39,2.56,2.19,5.38,4.52,7.36,2.08,1.78,3.9,3.87,5.73,5.93-2.01-1.11-3.59-2.83-5.66-4.02.4,2.96,1,5.72,2.43,8.26.54.96,1.18,1.94,1.19,3.13-1.11-1.52-1.94-3.24-3.26-4.68-.47.76-.86,1.39-1.24,2.04-.43.73-.29,1.72.42,1.85,1.37.25,2.63,1.09,4.1.87h0Z"/>
  </g>
</svg>