<?xml version="1.0" encoding="UTF-8"?>
<svg id="Layer_2" data-name="Layer 2" xmlns="http://www.w3.org/2000/svg" viewBox="0 0 654.5 410.39">
  <defs>
    <style>
      .cls-1 {
        fill:#808080
      }
    </style>
  </defs>
  <g id="Layer_1-2" data-name="Layer 1">
    <path class="cls-1" d="m377.4,208.28c13.38,22.92,41.6,32.07,51.42,57.78,4.34,7.06,6.33,15.32,5.68,23.59-1.06,4.43,1.83,7.41,3.85,10.69l43.43,72.41c-2.5,2.41-3.47,0-4.24-.58-19.27-23.95-36.9-49.17-52.77-75.49-2.13-4.53-2.93-9.57-2.31-14.54,0-21.38-1.73-23.4-23.88-28.31,0,11.84.77,23.59,0,35.24-.34,15.07-7.41,29.2-19.26,38.52-19.26,14.25-44.58,9.05-60.09-11.94-5.08-7.03-9.13-14.75-12.04-22.92-2.79-7.7-4.72-15.6-7.13-23.59-19.74,14.73-20.03,15.5-12.23,37.94,1.59,3.19,2.19,6.77,1.73,10.3-6.6,30.57-15.39,60.62-26.29,89.94-.77,1.7-2.38,2.87-4.24,3.08,4.53-20.12,9.63-40.15,13.29-60.37,4.4-14.14,5.39-29.12,2.89-43.72-2.28-15.41,1.14-31.13,9.63-44.2,7.51-13.67,19.26-25.23,20.12-42.08-4.61,1.28-8.39,4.57-10.3,8.96-.94,2.14-2,4.23-3.18,6.26-2.89,3.85-6.55,8.57-11.46,4.81-4.91-3.76-2.99-8.76,0-12.71,3.12-3.5,6.53-6.72,10.21-9.63,2.05-1.7,4.21-3.28,6.45-4.72l-1.25-2.99-21.47,2.02c-14.03,2.26-28.34,2.26-42.37,0-4.56-1.46-9.44,1.05-10.9,5.61-.03.09-.05.18-.08.26-14.83,31.49-42.46,36.88-73.09,35.34-30.62-1.54-61.63-12.23-92.25-19.26-21.19-6-39.13-20.17-49.88-39.38-8.65-10.99-6.76-26.91,4.23-35.56.19-.15.39-.3.59-.45,18.3-17.33,41.6-23.4,65.38-27.64,39.29-7.03,75.69,4.24,111.22,19.26,6.1,2.66,12.62,4.23,19.26,4.62,18.27,2.01,36.28,5.95,53.73,11.75,5.3,1.44,10.3,4.43,15.02-1.16,3.74-4.73,4.38-11.2,1.64-16.56-11.75-32.45-35.82-54.98-61.34-76.26-8.18-6.74-17.04-12.61-25.52-19.26-3.76-2.79-8.09-5.01-9.05-10.3,16.18-.67,72.8,50.84,95.43,86.66l9.63-17.53c-7.9-2.12-18.78,1.44-20.99-9.63-4.22-13.42-1.43-28.06,7.41-39,4.7-4.56,9.72-8.78,15.02-12.61-8.86-4.53-17.53,0-29.47,0,5.65-4.86,12.97-7.34,20.41-6.93,9.63,0,19.26-.67,29.37,0,11.46,1.25,21.38-6.55,32.35-9.63,7.28-3.24,15.38-4.18,23.21-2.7l-22.63,8.47c14.66,3.52,27.02,13.31,33.8,26.77,8.57,16.08,6.36,22.44-12.33,31.87l13.58,13.77c12.79-41.45,34.07-79.79,62.49-112.56-.14,7.83-3.39,15.28-9.05,20.7-21.9,28.02-37.42,60.49-45.45,95.14-2.01,7.66-1.84,15.73.48,23.3,3.37,9.63,8.38,10.88,16.56,5.68,18.58-11.75,35.53-26.1,56.91-33.12,3.85-1.25,6.74-5.3,9.63-8.18,38.52-35.15,81.46-59.12,135.77-56.23,10.23.44,20.34,2.32,30.04,5.58,14.95,3.32,24.39,18.12,21.07,33.08-.41,1.87-1.02,3.69-1.81,5.44-6.15,23.81-21.82,44.04-43.33,55.95-24.94,13.29-46.7,32.16-73.57,42.27-29.56,11.27-56.81,11.46-80.88-12.13-1.83-1.83-3.47-4.53-6.93-2.5-19.26,11.56-41.79,14.73-63.65,20.12,2.02,4.91,6.07,5.1,9.63,6.55,4.03,1.48,7.88,3.42,11.46,5.78,3.96,2.07,5.5,6.95,3.43,10.91-.08.15-.16.3-.25.45-3.27,4.43-8.09,1.93-11.65-.58-5.78-3.47-9.63-11.75-18.87-9.92Z"/>
  </g>
</svg>