<?xml version="1.0" encoding="UTF-8"?>
<svg id="Layer_2" data-name="Layer 2" xmlns="http://www.w3.org/2000/svg" viewBox="0 0 485.03 654.5">
  <defs>
    <style>
      .cls-1 {
        fill:#808080
      }
    </style>
  </defs>
  <g id="Layer_1-2" data-name="Layer 1">
    <path class="cls-1" d="m482.76,535.68c-1.91-2.81-5.03-8.77-7.49-10.92-6.01-5.08-14.69-1.62-21.22-5.84-4.67-3.12-9.13-8.04-13.23-11.85-2.84-24.18-6.58-46.93-14.24-69.87-7.65-22.25-17.29-43.68-25.42-65.65-8.16-21.18-16.07-42.5-24.42-63.58-4.62-11.47-8.82-23.22-14.02-34.39-4.29-9.51-11.59-18.57-12.23-29.69-.57-8.8,5.13-23.44,14.52-14.21,5.96,6.01,9.8,14.14,15.26,20.77,10.61,13.11,30.71,27.88,47.07,24.13,11.97-2.76,19.84-14.97,31.88-17.79,3.7-.93,12.5-3,15.4.21-.12-8.44-2.74-16.57-11.18-18.1-8.39-1.53-14.19,5.44-20.29,10.56-7.06,5.99-16.22,10.76-25.49,10.3-11.71-.53-16.45-11.92-23.61-20.41-6.34-7.89-16.91-14.45-25.42-19.77-10.87-6.68-17.45-8.01-29.59-5.82-.88-2.57-10.16-26.18-8.9-27.8,5.03-5.82,10.71-11.57,13.83-19.01,1.19-2.98,1.31-4.77,1.79-8.16,1.26-9.39,11.92-9.82,17-16,4.22-4.91,5.15-15.47-.98-19.34-7.53-4.67-14.16,7.32-19.19,11.54-3.86,3.53-5.72,8.94-9.28,12.81-2.84,3.22-6.89,5.27-10.23,7.63,1.41-.88-9.87-52.6-10.61-54.97-.81-2.51-11.14-22.51-13.5-20.49,2.96-2.74,6.34-4.36,8.85-7.89,8.39-12.23,15.38-20.91,27.99-28.52,11.21-6.82,23.13-11.97,34.72-18.05,18.12-9.66,31.98-16,52.53-14.57,5.68.31,11.06.64,16.57,1.95,5.08,1.14,23.27,1.1,12.42-8.58C446.89-.36,439.74.24,433.66.03c-6.61-.24-12.69,1.27-19.15,1.62-19.36,1.03-34.79,3.74-52.22,13.52-23.15,12.9-42.71,32.29-64.76,47.02-5.56,3.6-11.21,10.59-17.86,11.28-3.36.41-10.18-3.07-13.43-4.29-16.74-6.18-30.66-6.18-47.45,0-3.22,1.22-9.94,4.7-13.28,4.29-6.7-.69-12.35-7.68-17.93-11.28-22.13-14.74-41.59-34.12-64.77-47.02C105.32,5.39,89.92,2.67,70.72,1.65c-6.53-.36-12.71-1.86-19.27-1.62-6.32.21-13.26-.38-18.43,4.32-10.78,9.68,7.39,9.73,12.45,8.58,5.39-1.31,11.02-1.64,16.6-1.95,20.49-1.43,34.46,4.91,52.46,14.57,11.54,6.08,23.63,11.23,34.77,18.05,12.4,7.61,19.48,16.29,28.09,28.52,2.36,3.53,5.75,5.15,8.7,7.89-2.24-2.03-12.54,17.98-13.38,20.49-.83,2.36-12.26,54.08-10.47,54.97-3.69-2.36-7.53-4.41-10.51-7.63-3.58-3.86-5.32-9.27-9.47-12.81-4.82-4.22-11.42-16.21-19.03-11.54-6.03,3.86-5.17,14.43-.98,19.34,5.29,6.18,15.57,6.61,17.12,16,.43,3.39.53,5.18,1.84,8.16,3.22,7.44,8.78,13.19,13.66,19.01,1.31,1.62-7.92,25.23-8.85,27.8-12.11-2.19-18.74-.86-29.69,5.82-8.42,5.32-19.1,11.88-25.42,19.77-7.01,8.49-11.85,19.88-23.51,20.41-9.18.45-18.24-4.31-25.52-10.3-6.13-5.12-11.92-12.09-20.32-10.56-8.32,1.53-10.85,9.66-11.06,18.1,2.93-3.22,11.59-1.14,15.38-.21,11.99,2.82,19.89,15.02,31.71,17.79,16.5,3.75,36.7-11.02,47.29-24.13,5.39-6.63,9.16-14.76,15.33-20.77,9.37-9.23,15.05,5.41,14.45,14.21-.62,11.11-8.08,20.18-12.42,29.69-5.06,11.16-9.42,22.92-13.91,34.39-8.3,21.08-16.29,42.4-24.37,63.58-8.3,21.96-17.86,43.4-25.47,65.65-7.68,22.94-11.4,45.69-14.14,69.87-4.17,3.81-8.61,8.73-13.23,11.85-6.61,4.22-15.43.76-21.32,5.84-2.46,2.15-5.37,8.11-7.46,10.92-1.91,2.65-2.58,2.74-2.29,6.61.88,10.2,9.52,1.62,12.9-1.67,6.46-6.13,10.11-8.92,18.48-11.09,4.91-1.38,8.47-6.65,12.69-9.52-2.74,1.77.36,21.66,1.02,24.87,2.58,9.13,8.75,16.45,13.83,23.94,6.34,9.11,19.79,25.66,31.5,18.05,11.37-7.44,11.49-29.52,13.97-42.37,2.34-12.3,4.17-24.78,6.96-36.89,9.51-41.4,18.67-82.77,27.95-124.17-1.34,8.32,1,17.84,1.48,26.25.36,11.25.81,22.46,1.41,33.72,1.86,32.19,7.04,64.72,19.34,94.53,8.58,20.79,14.71,42.61,22.15,63.98,14.81,42.83,64.12,73.45,97.63,35.08,8.25-9.47,15.69-22.75,19.96-35.08,7.35-21.36,13.59-43.18,22.16-63.98,12.23-29.81,17.48-62.33,19.39-94.53.64-11.25.98-22.46,1.48-33.72.36-8.42,2.67-17.93,1.41-26.25,9.25,41.4,18.43,82.77,27.9,124.17,2.74,12.11,4.7,24.59,6.96,36.89,2.46,12.85,2.77,34.93,14.02,42.37,11.73,7.61,25.09-8.94,31.43-18.05,5.08-7.49,11.26-14.81,13.66-23.94.93-3.22,3.98-23.11,1.17-24.87,4.36,2.86,7.82,8.13,12.83,9.52,8.37,2.17,11.97,4.96,18.29,11.09,3.46,3.29,12.11,11.87,12.93,1.67.31-3.87-.29-3.96-2.2-6.61h0Z"/>
  </g>
</svg>