<?xml version="1.0" encoding="UTF-8"?>
<svg id="Layer_2" data-name="Layer 2" xmlns="http://www.w3.org/2000/svg" viewBox="0 0 654.5 468.27">
  <defs>
    <style>
      .cls-1 {
        fill:#808080
      }
    </style>
  </defs>
  <g id="Layer_1-2" data-name="Layer 1">
    <path class="cls-1" d="m323.55,133.42s-2.13.35-3.25,2.45c-1.13,2.11-1.3,2.94-3.24,5.22-1.97,2.26-1.78,3.06-3.42,4.85-1.61,1.8-2.91,2.79-3.42,3.92-.48,1.12-1.29,2.74-2.43,4.21-1.12,1.46-4.7,5.18-7.62,10.55-2.93,5.35-7.16,9.24-9.76,14.94-2.6,5.67-4.2,8.28-6.34,11.51-2.12,3.25-4.67,6.18-4.67,6.18,0,0,.78,1.31-1.65,4.87-2.43,3.59-5.18,8.15-7.48,10.25-2.28,2.12-2.28,2.58-3.73,3.08-1.46.49-2.45.33-2.6,1.64-.14,1.29-.83,1.77-2.61,3.56-1.78,1.8-7.29,7.49-11.68,11.7-4.4,4.22-7.82,8.95-10.88,12.19-3.1,3.24-9.6,11.18-13.01,14.46-3.38,3.24-3.57,4.03-5.5,6.14-1.97,2.14-22.44,24.56-29.08,32.34-6.67,7.81-23.23,28.59-26.82,33.28-3.57,4.73-28.09,35.58-31.65,39.66-3.59,4.05-9.42,11.2-13.49,16.4-4.04,5.18-6.66,8.11-9.42,13.81-2.77,5.67-4.07,9.39-6.01,11.84-1.95,2.42-2.61,3.27-5.51,5.35-2.93,2.14-5.21,3.59-7,5.23-1.78,1.6-3.09.96-6.14,4.2-3.1,3.25-5.38,5.84-8.46,7.31-3.1,1.45-4.55.67-7.79,4.06-3.24,3.43-4.22,5.37-6.01,5.52-1.79.14-2.43.33-3.4.64-.98.34-1.3.81-2.28.81s-1.63-.33-3.42.16c-1.79.5-2.75.67-5.01,1.3-2.31.66-2.98,2.11-4.58,2.11s-2.45,1.16-4.06,1.82c-1.61.62-.82.13-3.08.79-2.28.66-2.43,1.32-4.07,2.27-1.63.98-2.9,1.16-4.21,1.3-1.29.16-3.27.84-3.27.84,0,0-.66.61-2.91,2.9-2.27,2.27-4.39,3.57-6.01,4.22-1.6.66-4.04,2.43-6.65,3.42-2.62.97-4.07.97-4.07.97,0,0-.15.33-3.24.49-3.09.15-2.58,0-2.58,0,0,0,0-.98.95-2.27.98-1.3.5-1.65.98-2.29.5-.64.66-1.45,1.82-1.3,1.1.19,3.88.19,3.88.19,0,0,1.29-.82,3.72-3.28,2.45-2.45,6.66-7.64,10.55-10.07,3.92-2.42,14.13-7.31,17.87-9.56,3.73-2.26,5.55-3.25,10.07-5.37,4.56-2.12,7.31-4.72,12.19-7.81,4.87-3.08,16.24-12,21.74-16.4,5.54-4.38,12.86-10.71,16.58-13.95,3.75-3.27,12.99-12.68,16.25-15.93,1.58-1.6,9.2-9.7,15.01-16.44,5.94-6.87,10.04-12.45,12.12-15.07,4.05-5.19,18.99-23.72,23.05-28.9,4.06-5.21,25.51-32.48,28.57-36.23,3.09-3.75,15.6-19.33,18.04-22.73,2.45-3.42,9.75-12.36,12-15.27,2.28-2.95,4.56-7.3,6.51-10.24,1.97-2.93,3.61-4.56,3.61-4.56,0,0,.95-2.75,2.08-4.69,1.15-1.97,1.46-4.22,2.75-5.67,1.31-1.49,2.29-2.76,2.29-2.76,0,0-.49-.49-.18-2.13.33-1.61,1.82-2.75,2.28-6.65.48-3.91.64-5.85.32-8.12-.32-2.28-.49-2.28-.32-3.27.15-.96.48-1.63.48-1.63l-2.26-.47s.66-1.65,1.12-2.77c.48-1.12.34-2.43.34-2.43l-1.79.66s.15-.48.49-1.31c.3-.81.3-1.93-.49-2.26-.83-.33-1.64-.18-1.64-.18,0,0-.66-1.79.66-2.12,1.31-.32,1.31-.47,1.31-.47,0,0-.82-1.82-.98-2.77-.18-.97,1.31-2.28.16-2.76-1.15-.5-1.64-.33-1.64-.33,0,0-.16-1.12.68-3.57.79-2.43,1.78-4.56,1.78-4.56l-.98-.96s-.79-3.88-1.78-6.66c-.98-2.76-1.79-6.82-1.79-6.82,0,0,.96.32.81-1.13-.16-1.46-1.63-.32-1.63-.32,0,0-.33-1.15-.15-1.97.15-.79.97-1.29.97-1.29,0,0,.96-4.54,1.63-8.28.64-3.76,1.46-5.06,4.7-7,3.25-1.92,6.33-3.56,9.75-5.01,3.43-1.5,12.33-4.22,12.33-4.22l1.31-1s-12.34-1.15-15.93-1.15-7.31,0-11.02-.3c-3.74-.34-5.55-.66-7.17-.98-1.61-.32.16-2.43-1.13-2.43s-1.45-.48-2.42.15c-.97.66-.49.52-.49.52,0,0-1.15-.84-3.09-.84s-1.94-.97-2.77-2.43c-.81-1.45-.32-2.76-1.29-3.9-.97-1.13-1.12-1.63-1.12-1.63l1.12-.48s-1.46-1.46-2.91-2.91c-1.49-1.46-2.12-2.61-2.62-3.42-.47-.82-1.26-1.46-1.26-1.46l-1.34-1.31s1.8-.81,1.16-1.45c-.67-.66-1.8-.49-2.77-.49s-.16-.98-1.48-2.6c-1.3-1.64-1.61-1.78-3.54-3.73-1.97-1.94-3.91-3.88-4.22-5.2-.35-1.29-.67-2.12-1-3.27-.33-1.15.16-2.6-1.46-5.35-1.63-2.75-2.42-5.33-4.22-7.96-1.79-2.6-2.42-4.55-3.4-5.36-.97-.83-1.94-1.48-1.94-1.48,0,0,.64-1.6-.33-3.56-.97-1.97,0-3.25-1.79-4.87-1.78-1.64-2.76-4.4-3.9-5.04-1.15-.64-3.24-2.62-3.24-2.62l.64-1.12s-1.15.16-2.6-2.58c-1.45-2.77-1.45-4.24-2.28-5.19-.81-.98-1.46-2.43-1.46-2.43,0,0,0-1.13-1.93-2.61-1.95-1.46-3.58-1.94-4.7-3.1-1.15-1.11-.97-1.79-.35-2.91.66-1.13,1.16-2.43,2.61-4.22,1.46-1.78,2.45-2.91,3.4-4.39.97-1.46,1.8-2.12,1.8-2.12,0,0,.48-1.78-.33-1.78s-1.16-.33,0-1.29c1.13-.98,2.75-2.77,2.75-2.77l-.64-1.3s.81-1.29,1.46-1.64c.66-.32,2.11-.79,2.11-.79,0,0,.48-1.31-.14-1.95-.68-.66-.98-.47-.68-1.79.19-.62,1.89-3.24,5.96-3.92,4.25-.71,10.88.52,13.86,1.16,3.1.68,12.14,2.61,20.79,6.39,7.6,3.3,14.88,8.45,17.53,10.34,3.04,2.16,15.24,12.71,26.9,25.12,10.29,10.93,20.21,23.78,22.49,26.37,4.85,5.55,21.59,24.37,26.16,29.08,4.54,4.72,8.76,8.76,8.76,8.76l3.88-1.78s-.15-.33-.15-1.45-1.8-2.76-3.42-4.55c-1.63-1.78-4.54-6.97-6.36-9.42-1.74-2.43-3.87-6.33-5.02-8.61-1.13-2.26-1.61-4.22-2.59-5.54-.97-1.29-1.16-1.78-1.16-1.78v-1.46l-4.87-2.93c.67.5-.15-.81-.15-.81,0,0,4.99,2.6,6.48,5.04,2.61,4.22,2.28-.47,2.28-.47,0,0,.66,1.26,1.45,2.4.85,1.15,2.43,3.43,3.91,5.85,1.48,2.43,2.94,5.52,3.09,6.67.16,1.13.5,2.45.5,2.45,0,0,1.3.97,1.94,1.63.64.64,1.3,3.09,1.3,3.09,0,0,.79,1.12,1.13,1.94.33.81,1.46,4.39,1.46,4.39,0,0,1.94-.19,2.09,1.13.16,1.3.16,3.56.16,3.56,0,0,1.13,1.49,1.13.81,0-.64.16-5.35.16-5.35,0,0-1.77-1.79-.82-3.09,1.01-1.29,2.09-.77,2.62-.32,1.89,1.56-.49,2.91-.49,2.91l.33,3.25s.64-1.63.97-2.76c.32-1.15.97-2.27,1.3-3.25.33-.98.96-2.27,1.13-4.07.16-1.78.83-2.24,1.97-4.22,1.11-1.92,1.93-2.9,2.75-4.06.83-1.12,2.27-3.72,2.93-4.53.66-.83,1.78-2.09,3.09-3.43,1.27-1.29,2.28-1.75,3.74-2.9,1.45-1.15,4.51-2.45,5.35-2.45s1.29.16,1.95.35c.63.14,1.46.29,1.46.29l-1.79,1.8c-1.12,1.15-1.63,1.77-2.94,2.76-1.29.97-1.94,1.94-3.24,3.57-1.3,1.61-3.57,3.9-4.87,5.69-1.31,1.77-3.24,5.03-4.4,6.66-1.13,1.63-1.93,4.39-2.76,5.52-.81,1.12-1.61,1.78-2.91,1.78s-1.13.82-1.13.82c0,0-.96,1.12-.66,2.11.33.97,3.09,1.3,3.09,1.3,0,0,1.13-.81,5.21-4.69,4.06-3.91,6.66-6.66,10.87-11.39,4.24-4.7,7.14-8.78,9.27-11.03,2.12-2.28,9.73-10.74,12.48-14.46,2.77-3.73,18.2-21.76,21.28-25.5,1.68-1.99,7.54-8.03,13.37-13.61,5.09-4.92,10.09-9.47,12.13-10.77,4.4-2.76,13.82-8.44,21.63-11.2,7.78-2.76,11.18-3.24,16.05-4.22,4.89-.98,10.06-1.97,12.36-.48,2.28,1.46,2.6,2.09,3.4,3.9.83,1.79,1.13,3.23,1.13,3.23,0,0,.66-.3.81.49.16.81-.15,1.45.68,1.63.78.18.64,1.15,1.11,1.79.49.64,1,1.3,1.63,1.45.66.18.66.49,1.46,2.43.82,1.94,1.79,3.74,3.42,5.04,1.61,1.31,3.9,5.03,3.76,6.17-.18,1.16-.85,3.42-1.45,4.24-.69.81-1.16.3-1.99,1.94-.81,1.6-2.11,2.61-2.75,4.39-.64,1.79-1.79,4.24-1.95,5.2-.14.97-.33.49-.79,1.48-.49.95-.49.78-1.65,2.58-1.12,1.79-1.94,2.76-2.42,3.9-.49,1.13-1.95,2.93-2.94,4.39-.96,1.46-1.61,1.94-2.24,4.22-.66,2.28.3,3.24-1.3,4.22-1.64.97-1.82,1.45-1.95,3.09-.18,1.61-.83,2.11-1.8,3.9-.97,1.79-1.14,2.27-2.28,4.54-1.12,2.29-1.77,3.09-2.09,5.19-.33,2.13-.49.64-1.3,2.45-.83,1.78-1.46,2.91-1.46,3.57s-.82.32-1.15,1.64c-.33,1.29-1.31,2.26-1.12,2.91.16.64.79.83-.33,1.94-1.15,1.13-2.94,2.93-3.73,5.03-.82,2.13-.5,3.09-1.8,3.42-1.29.33-2.11,1.15-1.45,1.61.64.49.79.18.33,1.97-.49,1.78,0,3.58-1.63,5.02-1.63,1.48-1.14,2.28-3.4,2.77-2.28.49-3.27.32-4.22,1.15-.98.79-.83.79-.66,2.26.16,1.48.97,3.73.16,4.56-.82.81-1.14,1.29-2.13,1.29s-1.77,1.63-3.22,2.27c-1.48.64-3.11,1.3-3.11,1.3,0,0,.82.98-.66.98s-2.56.16-3.24,0c-.63-.15-3.24-.15-3.24-.15,0,0,.81,1.45-.49,1.12-1.29-.33-1.11-.66-2.43-.81-1.3-.16-.18,2.28-1.14,1.79-.97-.48.63-.18-2.75-.82-3.42-.63-1.63,1.48-2.76,1.15-1.16-.33-1.79-.5-2.62-.81-.81-.34-.63-.97-2.57-.97h-2.93s.81,1.27-.98,1.27-4.25-1.27-4.25-1.27c0,0-.8.79-2.74.79s-3.09.33-3.88.18c-.85-.18-3.91-1.31-4.58-1.31-.62,0,1.97.48,4.25,2.12,2.26,1.61,4.36,1.79,6.15,2.76,1.78.95,2.43.33,3.9,1.45,1.48,1.13,2.94,1.32,6.18,3.24,3.23,1.94,4.87,3.57,6.49,4.41,1.63.79,2.77.64,3.57,3.88.82,3.24,1.3,6.99,2.27,9.26,1,2.27,2.12,3.58,1.46,4.72-.64,1.13-1.61,1.45-.47,2.11,1.12.64,2.27,1.64.96,1.78-1.29.16-1.64,1.15-3.4,3.28-1.79,2.08-3.25,4.51-3.25,4.51l-.32,1.13v3.27l.64,1.78-.98.18.84,1.13.3.81-.49,1.46.82,1.63-1.13.15-.66,2.28,1.64.81-.98.32s.32.67.81,1.64c.49.98.33.33.49,1.78.15,1.46-.66,2.26-.66,2.26,0,0-.79-1.45-1.3,0-.48,1.48-.97,2.29-.97,2.29,0,0,.05.06.13.14.37.28,1.16,1,1.16,1l-.96.49-.16,1.29-1.46-.79s-.32,1.3.15,1.95c.49.66.98.96,1.15,1.93.16.98-.16,1.48,0,3.61.16,2.11-.31,3.05.63,5.33,1,2.28,3.1,6.52,5.04,10.07,1.97,3.57,4.24,5.86,5.37,8.12,1.15,2.24,1.46,2.43,1.46,2.43,0,0-1.31,2.6.32,3.09,1.61.49,4.24,1.13,2.27,1.45-1.94.34-1.61,1.13-.3,1.48,1.29.32,2.74.81,3.42,2.91.62,2.13.95,2.28,2.11,4.4,1.11,2.11,13.15,18.51,18.01,24.2,4.87,5.69,32.33,38.48,34.92,42.39,2.62,3.9,28.77,35.24,34.6,41.57,3,3.25,10.13,11.49,16.71,18.25,6.18,6.42,11.88,11.46,11.88,11.46,0,0,1.49,1.34,3.74,2.77,2.26,1.46.98,1.15,4.39,3.91,3.43,2.74,9.25,6.48,13.31,9.56,4.06,3.1,7.79,5.54,12.99,8.28,5.21,2.76,10.57,5.04,12.52,6.03,1.93.98,4.04,2.27,5.52,3.24,1.45.98,5.35,2.12,9.9,3.28,4.55,1.1,9.42,2.42,13.81,4.53s9.43,3.73,11.52,4.54c2.11.81,5.52,1.95,5.52,1.95,0,0,0,.49,1.48,0,1.46-.49.66,0,2.42.79,1.78.84,4.24.66,2.75,1.34-1.44.63-1.93,1.61-3.9,1.61h-3.39c-.64,0-2.77.48-5.18-.15-2.45-.68-3.59-1.64-3.59-1.64,0,0-3.72-.18-6,0-2.29.18-3.27.48-5.36.18-2.12-.35-6.51-1.8-9.91-2.13-3.4-.32-7.65-.66-9.42-.81-1.8-.18-4.24-1.15-6.17-1.78-1.95-.66-4.09-2.29-4.09-2.29,0,0,.49,1.31-2.24,1.94-2.76.68-3.09.98-6.34-1.29-3.27-2.27-5.69-4.85-7.96-6.8-2.29-1.95-2.61-2.29-2.61-2.29,0,0-1.61-.16-3.08-.79-1.46-.66-2.28-2.13-3.91-2.79-1.64-.64-4.05-2.76-6.49-4.24-2.42-1.44-8.12-6.17-9.09-7.46-.97-1.29-3.23-7.48-5.18-10.54-1.94-3.09-7.82-10.88-11.25-15.28-3.38-4.38-11.68-13.64-15.42-18.33-3.71-4.73-17.87-20-20.46-23.38-1.37-1.82-7.79-9.17-12.98-15.46-4.65-5.65-8.07-10.25-10.06-12.33-4.24-4.36-21.63-24.37-25.51-28.74-3.9-4.4-19.81-22.27-24.2-27.3-4.4-5.03-10.88-12.02-13.97-15.11-3.09-3.08-6.33-6.18-8.62-8.91-2.26-2.77-4.22-3.28-6.14-5.06-1.97-1.78-2.95-2.76-4.22-4.7-1.31-1.94-1.46-2.11-1.46-2.11,0,0-3.42-2.28-5.06-4.22-1.63-1.95-4.36-7.63-5.85-9.76-1.45-2.12-4.07-6.17-5.83-8.45-1.78-2.26-3.09-5.02-4.22-7.64-1.15-2.57-3.4-6.33-4.25-8.27-.78-1.95-1.77-4.2-3.22-5.51-1.47-1.31-3.76-5.21-5.36-7.46-1.64-2.28-4.56-7-6.52-9.42-1.94-2.43-4.39-6.68-5.5-7.99-1.13-1.27-1.13-4.2-2.47-3.9-1.29.33-1.29,2.29-1.93,3.28-.66.98-2.11,1.93-3.42,3.39-1.3,1.48-3.42,7.96-3.42,7.96,0,0-1.12,8.28-1.95,15.46-.79,7.12-1.12,8.59-1.12,10.84s.33,8.13.33,8.13c0,0,.97,4.72.66,6.33-.34,1.64-1.32,3.25-2.45,4.4-1.13,1.13-2.45,1.79-2.45,1.79,0,0-.66-1.31-1.6-2.14-.98-.79-1.45-.79-1.95-2.74-.48-1.95-.67-3.42-.67-6.18s1.17-5.35.98-9.91c-.15-4.54-.98-8.45-.64-10.39.33-1.95.14-3.24-.15-6.33-.33-3.09-.66-6.66-1.95-10.06-1.3-3.43-1.94-4.56-2.28-7.64-.3-3.08-.64-3.76-.3-4.88.3-1.12-.34-.64-.5-2.76-.15-2.11.64-2.75.64-2.75l.16-1.65Z"/>
  </g>
</svg>