<?xml version="1.0" encoding="UTF-8"?>
<svg id="Layer_2" data-name="Layer 2" xmlns="http://www.w3.org/2000/svg" viewBox="0 0 654.5 455.1">
  <defs>
    <style>
      .cls-1 {
        fill:#808080
      }
    </style>
  </defs>
  <g id="Layer_1-2" data-name="Layer 1">
    <path class="cls-1" d="m654.5,144.62c-5.63,12.66-14.52,22.42-25.7,30.55-13.23,9.61-26.28,19.44-41.28,26.18-7.86,3.53-15.75,6.98-24.75,6.66-2.6-.09-5.24,1.23-7.86,1.9-6.58,16.66-20.44,22.79-36.09,25.7-14.14,2.63-28.45,4.33-42.74,6.16-14.87,1.9-29.59,1.12-44.37,1.29-9.07.1-17.54-3.63-25.28-7.95-7.48-4.17-14.34-9.55-21.06-14.94-3.51-2.82-6.11-6.77-9.66-10.82-1.99,2.69-3.74,5.04-5.92,7.97,2.32,1.03,4.23,1.72,5.99,2.67,6.07,3.29,12.36,6.27,18.07,10.1,10.21,6.85,20.18,14.05,30,21.46,4.82,3.63,7.34,8.5,7.82,15.04.48,6.63,3.02,13.1,4.53,19.67,2.7,11.77,4.28,23.59,1.24,35.55,9.18,9.48,18.51,18.79,28.35,27.64,3.67,3.31,7.47,7.65,6.39,13.62-.24,1.36-1.16,2.6-2.42,5.28-1.42-5.78-4.47-8.23-8.03-10.79-6.92-4.98-12.56-11.92-19.84-16.17-5.83-3.4-8.36-8.49-11.95-13.31-2.69-3.62-6.37-6.51-10.07-10.18.37-14.9.75-29.96,1.15-45.96-14.62-10.03-22.66-28.68-39.86-37.92h-9.45c-2.88,4.19-5.79,8.43-8.85,12.87,11.46,9.66,19.5,21.24,20.92,37.57,3.03,2.52,6.61,5.5,8.64,7.18,2.44,8.52,4.16,15.03,6.17,21.45,4.06,12.95,7.17,26.05,6.86,39.75-.03,1.55-.1,3.12.11,4.64,1.36,9.82,1.39,9.82-1.15,18.63,6.55,5.58,13.22,10.98,19.54,16.76,3.34,3.05,7.19,5.84,8.1,10.96.27,1.52,2.18,2.97,3.66,4.01,5.22,3.73,10.55,7.31,15.9,10.85,6.31,4.16,12.68,8.23,19.04,12.33,6.52,4.2,8.13,8.76,5.31,16.9-.81-1.45-1.37-2.36-1.84-3.29-.54-1.08-1.01-2.19-.87-1.87-10.02-5.52-18.51-11.02-27.68-14.97-8.41-3.63-13.34-10.43-18.4-17.04-2.36.53-4.11.92-5.58,1.25-13.22-9.47-20.6-23.81-31.37-35.16-3.36-6.27-4.94-12.95-1.98-20.13.67-1.62.31-3.68.32-5.53.02-12.08,0-24.17.03-36.25.02-4.41-.46-8.54-4.92-11.67-1.45,21.99-6.96,42.68-13.56,63.07-4.89,15.08-12.15,28.9-23.22,40.59-5.29,5.59-11.12,9.7-18.43,10.85-16.78-2.91-24.84-15.38-32.21-28.38-9.67-17.07-14.66-35.84-19.1-54.73-1.75-7.44-2.49-15.11-3.93-22.61-.49-2.53-1.7-4.93-2.56-7.27-4.66,1.06-4.28,3.98-4.74,6.73-2.7,15.95-1.67,32.02-1.81,48.06-.06,7.87-.27,15.52-8.29,20.17-1.17.67-1.63,2.55-2.46,3.85-4.27,6.75-8.82,13.35-12.75,20.28-3.13,5.52-7.16,9.13-13.53,9.2-2.61,3.92-4.41,8.14-7.5,10.95-6.25,5.69-13.03,10.85-19.92,15.76-4.69,3.34-9.92,5.89-15.19,8.96-.12,2.18-.24,4.29-.36,6.41h-1.86c-.8-2.9-1.6-5.79-2.36-8.57,5.2-7.44,9.86-14.32,18-18.14,3.18-1.5,5.76-4.38,8.41-6.84,5.38-4.99,10.62-10.12,15.99-15.25,2.01-14.78,15.63-20.51,23.99-31.13-5.39-9.07-1.3-19.23.05-28.95,2.08-14.9,6.33-29.45,13.66-42.85.15-.26.25-.57.34-.86,1.29-3.89-.09-8.56,3.56-11.78,3.02-2.66,5.94-5.45,8.65-7.94,2.06-15.43,10.12-26.84,22.43-37.9-2.63-1.77-4.97-2.91-6.68-4.66-1.41-1.43-2.08-3.59-2.98-5.26-3.31.7-6.55,1.38-11.85,2.49-7.58,8.92-16.25,19.33-25.15,29.52-3.43,3.94-7.4,7.39-11.88,11.82-1.8,9.75-3.85,20.56-5.76,31.4-1.06,6.01-3.33,11.19-8.72,14.56-.77.49-1.73.95-2.15,1.68-8.34,14.75-22.65,23.4-35.12,34.98-.29,1.32-.74,3.37-1.25,5.78-1.01-.86-2.08-1.32-2.29-2.04-2-6.55-.32-12.07,4.72-16.74,5.7-5.29,11.49-10.54,16.77-16.23,2.83-3.05,4.68-7.01,7.5-11.38-2.11-16.48,6.11-30.68,14.27-44.91.62-1.08,1.55-2.18,1.61-3.32.5-9.39,7.07-14.94,13.32-20.31,8.86-7.61,17.96-15,28.48-20.39,2.35-1.2,4.17-3.41,6.31-5.04,3.87-2.94,7.79-5.8,12-8.92-.75-3.99-3.97-5.77-7.1-8.34-8.24,11.05-18.91,18.89-30.44,25.27-9.12,5.04-18.97,8.75-29.86,8.43-8.98-.27-18,.35-26.95-.2-9.15-.56-18.26-1.96-27.35-3.18-9.41-1.26-18.82-2.6-28.18-4.19-10.82-1.83-20.96-5.35-28.39-14.01-2.58-3.02-4.6-6.51-8.09-11.53-1.64-.43-5.14-2.2-8.57-2.11-7.41.22-14.06-2.25-20.49-5.02-16.79-7.27-31.83-17.45-45.98-29.02-6.93-5.67-14.49-10.74-18.75-18.89-4.28-8.2-8.54-16.66-4.02-26.23,1.01-2.13,2.39-4.46,4.25-5.77,12.57-8.85,26.57-14.06,41.87-15.76,4.56-.5,9.09-1.6,13.67-1.74,12.96-.38,25.75,1.66,38.31,4.5,20.92,4.73,41.61,10.52,62.55,15.14,17.64,3.89,35.5,6.74,53.25,10.07,12.02,2.25,24.03,4.66,36.08,6.77,5.38.94,10.84,1.36,17.38,2.15-1.71-2.07-2.85-3.63-4.18-5.01-3.89-4-7.64-8.18-11.84-11.81-8.63-7.45-11.44-17.21-11.46-28-.02-6.72-.13-13.39,1.21-20.23,1.13-5.75-.82-12.12-1.54-18.2-.4-3.33-.85-6.69-1.68-9.93-1.43-5.59-1.87-11.67-7.01-15.17-.81-5.54-.4-9.99,6.06-13.15-1.07,6.48,1.43,11.03,4.43,14.44,4.39,4.98,5.39,10.57,5.79,16.58.79,11.55,1.73,23.12,1.89,34.69.08,5.4-1.52,10.82-2.39,16.45,14.91,7.51,21.77,22.58,31.36,35.08,6.33-4.55,12.55-9.02,19.59-14.08-2.4-1.46-4.55-2.88-6.82-4.1-8.71-4.66-11.63-10.64-10.02-20.67,1.1-6.8,8.72-14.5,16.15-14.27.91.03,1.83-.21,3.36-.41.26-7.3,3.08-13.46,11.49-17.06-12.05-9.68-24.12-16.76-33.21-27.81-8.99-10.95-19.24-20.82-25.65-34.36,1.05-1.83,2.21-3.84,3.15-5.48,3.78-.53,5.07,1.43,6.29,3.76,9.16,17.5,22.47,31.67,36.86,44.85,3.8,3.48,8.68,5.78,13.03,8.68,3.25,2.17,6.45,4.43,10.64,7.33h5.7c27.52-16.6,48.29-39.33,64.1-66.37q6.82,1.05,6.83,9.78c-16.15,22.5-35.73,42.27-58.9,58.61,3.26,3.03,5.9,5.48,8.64,8.02.26,3.19.48,6.22.76,9.73,10.17.84,18.37,4.82,19.86,15.71,1.77,12.88-6.4,18.99-18.26,21.93,7.61,5.73,14.35,10.8,21.25,15.99,9.49-12.19,16.24-27.35,30.68-34.5-.67-10.74-2.08-21.03-1.75-31.26.34-10.36,2.41-20.66,3.73-31.13,4.52-5.48,8.15-11.57,9.17-19.34,5.57,2.08,5.86,6.45,5.36,11.78-5.22,4.82-6.57,11.6-7.33,18.75-.81,7.59-2.11,15.13-3.14,22.71-.15,1.19-.31,2.49,0,3.62,3,11.35,1.46,22.64-.78,33.81-.57,2.84-2.5,5.69-4.5,7.92-6.55,7.27-13.41,14.25-20.65,21.88,6.47.73,12.17-1.34,17.95-2.24,12.7-1.99,25.35-4.23,38.01-6.51,10.54-1.9,21.14-3.66,31.58-6.08,24.18-5.6,48.2-11.88,72.42-17.29,14.64-3.28,29.45-6.54,44.54-6.23,19.33.39,37.88,4.59,54.61,14.71,3.79,2.29,6.59,6.21,9.85,9.38v14.87Zm-229.31,52.94c-7.19-3.08-14.51-6.24-21.86-9.33-7.35-3.11-14.68-6.3-22.12-9.15-7.11-2.73-13.77-7.04-22.87-7.68,10.14,20.46,19.75,39.62,38.08,52.6,9.09,6.43,18.42,12.35,29.52,14.49,7.06,1.36,14.08,4.37,22.52,1.67-5.18-15.55-11.87-29.76-23.27-42.59m-219.11,42.27c6.4,2.79,11.64.48,17.02-.32,16.76-2.49,30.6-10.63,42.98-21.68,9.57-8.56,15.93-19.53,22.07-30.55,2.74-4.93,5.93-9.83,7.3-16.52-2.01.55-3.14.73-4.16,1.16-19.01,7.93-38.13,15.62-56.92,24.05-4.56,2.05-8.6,6.1-11.78,10.11-3.59,4.53-6.23,9.91-8.75,15.17-2.87,5.99-5.15,12.26-7.75,18.57m152.94-74.36c18.93,7.96,37.63,15.79,56.28,23.7,5.39,2.29,10.47,6.03,16.06,7.01,15.67,2.76,31.33,6.14,47.39,6,2.05-.02,4.09-.51,7.11-.92-1.86-6.76-3.53-12.84-5.16-18.75-40.43-7.41-80.09-16.39-120.99-20.57-.22,1.16-.45,2.29-.69,3.53m-190.15,36.3c2.99.23,4.5.52,5.99.43,9.51-.6,19.2-.34,28.47-2.18,9.82-1.95,19.86-3.05,29.2-7.77,12.07-6.1,24.81-10.87,37.31-16.1,8.47-3.55,17.03-6.9,25.77-10.43-.29-1.47-.52-2.6-.69-3.48-41.03,3.56-80.62,12.94-120.9,20.47-1.7,6.28-3.28,12.12-5.15,19.07m20.09,2.15c-3.7.84-6.34,1.84-9.02,1.99-14.46.77-28.93,1.44-43.4,1.89-8.67.27-17.35,0-26.03.09-1.96.02-3.91.58-6.47.98,3,7.15,6.46,12.91,12.82,16.06,4.91,2.43,10.06,4.56,15.32,6.07,9.12,2.61,18.43,4.41,27.62,4.7,9.72-10.61,19.07-20.8,29.14-31.79m277.47.42c10.35,11.29,19.66,21.47,29.14,31.81,5.7-.84,10.88-1.29,15.89-2.44,8.02-1.84,16.29-2.75,23.66-7.06,7.1-4.16,13.37-8.72,14.82-18.58-3.16-.08-6.14-.19-9.13-.2-21.85-.05-43.71.5-65.5-1.89-2.38-.26-4.73-.85-8.89-1.63m-352.75-32.36c-18.34,10.39-38.01,10.61-57.84,9.9-2.47-.09-4.95-.09-7.42,0-1.53.07-3.06.42-5.84.82,17.62,12.12,34.29,22.3,56.65,22.36,7.6-5.54,16.48-12.01,25.19-18.36-1.2-6.64-5.87-9.87-10.74-14.73m496.97,9.88c-12.02,0-24.03-.19-36.04.05-12.36.26-22.69-7.06-35.1-8.93-3.14,4.12-6.41,8.43-9.99,13.12,9.69,6.97,18.83,13.53,26.16,18.8,22.65-.03,38.91-10.4,54.96-23.05M14.15,159.21c7.63,8.95,16.46,14.49,24.28,20.36h41.05c-6.63-10.61-12.92-20.67-18.96-30.33-15.66,1.17-30.72,3.45-46.37,9.97m601.96,20.17c17.29-11.49,19.99-13.95,22.67-20.8-14.18-6.18-29.31-7.89-44.47-9.48-5.38,10.11-12.93,18.97-18.25,30.28h40.05Zm-92.64-57.84c-40.14,9.92-80.38,16.9-120.58,24.49,4.55.23,9.06-.09,13.56-.49,1.19-.11,2.51-.95,3.53-.64,10.33,3.05,20.88.9,31.3,1.5,4.62.27,9.51-.84,13.87.29,9.19,2.39,18.41,1.23,27.6,1.56,4.93.19,8.61-1.67,11.56-6.1,5.23-7.82,10.43-15.88,19.16-20.62m-367.07,26.74c3.62,0,6.07.09,8.52-.02,13.8-.58,27.6-1.3,41.41-1.78,6.79-.24,13.78.95,20.32-.34,6.85-1.36,13.26.4,19.87.26,1.75-.04,3.5-.22,5.25-.34-40.43-7.53-80.77-14.8-121.24-25.46,5.41,5.12,10.23,9.28,14.56,13.91,3.97,4.23,7.39,8.96,11.29,13.77m7.29,88.77c13.12,1.3,25.24,2.5,37.37,3.7,6.29-13.12,12.63-26.35,19.44-40.55-7.44,1.35-14.63,2.3-21.61,4.08-3.41.87-7.07,2.63-9.51,5.1-8.62,8.74-16.75,17.95-25.7,27.66m270.41-36.95c6.97,14.37,13.38,27.56,19.51,40.21,6.21-.31,12.33-.4,18.4-.98,5.97-.58,11.9-1.66,18.66-2.63-8.58-9.31-16.61-18.2-24.91-26.85-2.07-2.16-4.77-4.36-7.56-5.07-7.64-1.93-15.48-3.06-24.11-4.67m109.09-84.6c-17.46,5.75-29.45,17.94-39.35,33.75,10.78,2.63,20.98,5.13,31.06,7.6,6.41-10.53,12.43-20.38,18.23-29.89-3.21-3.7-6.18-7.11-9.95-11.46M33.63,149.13c8.91-1.15,17.93-2.32,27.6-3.58,2.38-7.21,5.76-14.28,5.21-22.17-13.87-2.08-27.04-4.06-40.06-6.02-7.1,15.05-6.17,19.05,7.24,31.77m593.26-4.06c6.65-9.29,6.88-18.17,1.7-27.35-13.6,1.87-26.86,3.68-41.11,5.63,1.29,8.2,3.48,15.8,6.31,22.3,9.89,1.27,18.37,2.36,26.87,3.46,2.01-1.3,4.07-2.64,6.22-4.04m-506.7,12.12c10.23-2.77,20.27-5.48,31.02-8.41-6.65-7.57-10.15-16.11-18.15-20.77-7.4-4.31-12.85-12.43-22.12-11.89-2.97,3.73-5.59,7.01-8.92,11.21,5.82,9.56,11.97,19.67,18.17,29.86m-2.82,12.31c4.31,5.17,8.17,9.78,11.95,14.3,19.44-7.17,36.49-16.01,49.35-33.5-20.95.94-39.9,4.76-58.5,10.67-.95,2.89-1.8,5.48-2.8,8.52m416.92-8.65c-19.34-5.74-37.89-9.95-58.06-10.18,13.36,16.41,29.63,26.41,49.52,32.92,3.76-4.59,7.78-9.48,11.57-14.1-1.19-3.39-2.09-5.98-3.03-8.64m-391.76,21.85c22.75-2.67,45.17-5.19,66.65-10.69,1.45-3.76,2.62-6.79,3.55-9.2-9.75-4.07-19.03-7.95-28.63-11.96-11.73,13.49-24.74,25.19-41.57,31.85m370.17.78c-8.2-5.11-16.08-9.3-23.12-14.61-7.06-5.34-13.26-11.81-19.78-17.72-9.27,3.94-18.51,7.87-28.07,11.94,1.13,2.31,2.59,5.29,4.52,9.23,21.48,4.93,43.66,7.87,66.44,11.16m47.32-58.95c-7.31,9.34-13.6,19.21-19.44,31.1,16.99-4.38,32.45-8.36,48.36-12.45-2.15-7.42-4.07-14.04-6.21-21.4-7.9.96-15.14,1.84-22.71,2.76m-489.2-2.77c.98,8.58-6.64,14.32-2.27,21.72,14.88,4,29.46,7.92,45.55,12.25-5.48-12.45-12.63-21.83-19.57-31.19-7.79-.91-15.01-1.77-23.71-2.78m501.36,56.49c6.01-10.3,11.55-19.75,17.01-29.24.16-.29-.46-1.04-1.08-2.36-16.52,4.43-33.19,8.91-49.68,13.33.46,6.92,3.98,10.26,10.2,11.74,5.64,1.35,11.05,3.64,16.61,5.35,1.98.6,4.11.72,6.94,1.19m-456.19-18.55c-16.59-4.34-33.23-8.69-50.26-13.15.85,6.58,8.17,19.05,18.48,32.04,7.14-2.32,14.56-5.04,22.16-7.08,6.09-1.62,9.53-4.85,9.62-11.81m-7.62,43.7c15.29,1.53,49.18,1.01,56.01-.88,2.13-5.65,4.09-11.54,4.52-19.08-13.41,1.56-26.02,3.04-40.07,4.69-5.93,4.42-13,9.7-20.46,15.27m438.78.23c-8.23-5.92-15.34-11.03-22.42-16.13-13.16.53-25.82-4.21-39.8-3.4,2.11,7.22,3.88,13.25,5.72,19.53h56.5Zm-352.21-52.34c3.41,1.56,6.8,3,10.07,4.66,6.86,3.49,14.17,4.35,21.61,3.25,12.15-1.8,24.28-3.51,36.6-3.47,8.58.03,17.17,0,25.75,0-31.23-6.01-62.47-10.46-94.03-4.44m171.04,4.42c4.91,0,9.82-.02,14.73,0,7.75.02,15.52-.39,23.22.22,8.53.67,16.97,2.31,25.46,3.48,11.34,1.56,20.85-3.7,30.95-7.89-31.99-6.32-63.17-1.83-94.36,4.19m186.9-34.03c22.94-2.32,45.57-.07,67.71-7.34-18.79-8.69-52.85-4.71-70.08.58-.43.13-.67.88-1.28,1.72,1.31,1.81,2.7,3.74,3.65,5.04m-447.33-5.54c-14.54-6.65-49.39-10.74-70.61-1.87,4.11,3.9,9.47,1.68,14.15,2.86,9.26,2.35,18.63,3.52,28.23,3.35,7.92-.14,15.87.44,24.83.73.71-1.05,2.05-3.03,3.41-5.07m-85.9,3.4C-.9,127.2.32,143.18,11.96,155.85c4.84-2.48,11.01-2.18,14.72-5.72-2.58-5.38-5.66-9.81-6.79-14.69-1.11-4.81-.24-10.09-.24-15.9m616.03-.86c-.6.47-1.2.95-1.8,1.43,4.18,11.31,2.3,21.18-6.91,29.19,1.05.96,1.62,1.86,2.39,2.12,4.6,1.56,9.25,2.98,13.73,4.4,7.99-10.95,8.23-11.85,7.02-26.42-4.29-3.18-9.37-6.95-14.44-10.71m-197.58,45.1c-14.77-2.25-29.27-4.61-44.05-4.28-1.85.04-3.84.26-5.53-.31-8.77-2.97-17.63-.94-26.48-.79,12.86,2.14,25.82,3.41,38.66,5.41,12.88,2.03,25.65,4.8,39.5,7.44-.95-3.35-1.49-5.3-2.1-7.48m-224.14,6.92c27.05-4.23,52.73-8.25,78.4-12.27-25.15-.2-50.17,1.09-74.85,5.34-1.13,2.22-1.96,3.83-3.56,6.93"/>
  </g>
</svg>