<?xml version="1.0" encoding="UTF-8"?>
<svg id="Layer_2" data-name="Layer 2" xmlns="http://www.w3.org/2000/svg" viewBox="0 0 286.69 654.5">
  <defs>
    <style>
      .cls-1 {
        fill:#808080
      }
    </style>
  </defs>
  <g id="Layer_1-2" data-name="Layer 1">
    <path class="cls-1" d="m278.08,481.16c-6.32-7.1-18.58-11.4-21.95-20.41-1.79-4.58-.93-10.03-.74-14.82.83-15.95.93-32.32.1-48.28-.46-9.55-.96-20.23-4.81-29.09-3.66-8.23-9.1-7.79-17.31-10.05-6.09-1.73-11.44-4.69-12.62-11.04-.95-4.88-2.36-7.81-6.87-10.74-5.53-3.59-12.27-5.12-18.28-7.96,2.89,1.38,7.33-12.97,7.76-14.27,3.15-9.31,8.06-19.69,2.94-29.16-1.89-3.63-5.52-6.77-5.47-11.08,0-3.69,5.69-6.82,7.97-9.31,3.24-3.54,6.21-7.33,9.28-10.96,4.06-4.85,8.19-9.75,11.77-14.9,1.1-1.53,2.53-3.25,3.27-4.99.72-1.73.74-4.69-.5-5.89,18.81-26.57,17.01-56.78,15.11-87.28-.39-7.72.8-16.25-1.55-23.77-1.98-6.41-8.43-8.91-11.89-14.3-5.73-8.7-7.14-19.07-11.11-28.41-5.61-13.53-11.2-27.11-17.74-40.28C199.19,21.69,193.68-.7,174.5.02c-3.61.15-10.95,2.73-10.47,7.21.4,4.17,5.32,2.81,8.35,2.46,4.66-.53,8.75-.32,12.64,2.49,7.88,5.57,10.35,17.04,13.12,25.3,4.66,13.65,11.11,27.48,17.78,40.37,3.85,7.55,8.81,14.7,11.77,22.65,2.92,7.85,1.13,16.19,2.41,24.19.73,4.67,2.16,9.15,3.09,13.74,3.01,15.75,2.22,32.77-1.1,48.42-1.38,6.77-3.19,13.37-3.94,20.3-.59,5.27-.69,11.25-5.14,15.14-4.37,3.69-8.45,5.78-11.77,10.72-2.92,4.37-5.18,9.11-8.45,13.3-4.75,6.19-10.16,11.85-15.46,17.66.19-.32-8.66-10.48-9.51-11.41-3.74-3.77-7.79-5.9-12.88-7.64.38-1.94,2.44-5.51,4.48-6.31,2.63-1.08,3.61,1.38,5.54.95,3.82-.95,1.96-5.96-.98-7.13-1.25-.47-12.75.15-12.04-2.42.08-.12,3.01-10.96,3.01-10.96,0,0,4.21-7.49,4.21-8.65,0-.66,3.51-7.76,2.82-8.16-3.75-2.03-6.16,2.39-7.76,4.69-1.43,2.01-4.49,6.01-6.88,2.58-1.76-2.73.91-10.59.91-13.86,0-7.18,1.55-16.32-1.65-23.04-4.81-9.69-21.81-9.52-26.46,0-3.27,6.71-1.67,15.86-1.67,23.04,0,3.27,2.74,11.13.86,13.86-2.33,3.42-5.42-.57-6.82-2.58-1.62-2.3-3.96-6.71-7.76-4.69-.69.39,2.82,7.49,2.82,8.16,0,1.16,4.23,8.65,4.23,8.65,0,0,2.89,10.84,2.93,10.96.79,2.57-10.76,1.95-12.01,2.42-2.97,1.17-4.75,6.19-.95,7.13,1.93.44,2.91-2.03,5.56-.95,1.91.8,4.12,4.37,4.48,6.31-5.13,1.74-9.16,3.87-12.91,7.64-.86.93-9.75,11.1-9.47,11.41-5.29-5.81-10.72-11.47-15.49-17.66-3.31-4.19-5.55-8.94-8.51-13.3-3.3-4.94-7.4-7.03-11.72-10.72-4.42-3.89-4.58-9.87-5.07-15.14-.85-6.94-2.65-13.53-4.03-20.3-3.27-15.65-4.13-32.66-1.03-48.42.86-4.6,2.36-9.07,3.12-13.74,1.27-8-.68-16.34,2.33-24.19,3-7.95,7.91-15.09,11.81-22.65,6.63-12.89,13.1-26.72,17.7-40.37,2.84-8.26,5.3-19.73,13.08-25.3,3.99-2.81,8.06-3.02,12.7-2.49,3.01.35,8.01,1.71,8.43-2.46.41-4.48-6.92-7.06-10.54-7.21-19.15-.72-24.67,21.67-30.93,34.17-6.58,13.17-12.1,26.75-17.87,40.28-3.84,9.34-5.26,19.72-10.88,28.41-3.56,5.39-10.09,7.88-12.05,14.3-2.25,7.52-1.14,16.05-1.48,23.77-1.92,30.5-3.72,60.72,15.12,87.28-1.31,1.2-1.25,4.16-.52,5.89.74,1.74,2.15,3.45,3.24,4.99,3.6,5.15,7.75,10.05,11.8,14.9,3.03,3.64,5.97,7.42,9.24,10.96,2.39,2.49,7.98,5.62,7.98,9.31,0,4.31-3.56,7.45-5.51,11.08-5.06,9.48-.14,19.85,2.96,29.16.48,1.29,4.9,15.65,7.76,14.27-5.98,2.84-12.71,4.37-18.21,7.96-4.53,2.93-6.03,5.86-6.87,10.74-1.19,6.35-6.54,9.31-12.64,11.04-8.21,2.25-13.65,1.82-17.32,10.05-3.85,8.86-4.3,19.54-4.77,29.09-.88,15.96-.77,32.33.02,48.28.24,4.79,1.09,10.24-.68,14.82-3.39,9.01-15.7,13.31-22,20.41-9.55,10.63-11.77,30.32-3.58,42.1,2.55,3.74,6.51,7.12,10.99,8.74,2.08.78,4.33,1.25,6.64.78,5.68-1.08,3.32-6.4-.2-9.05-2.27-1.73-5.61-1.7-8-3.26-11.39-7.25-9.07-18.38-3.29-28.08,5.58-9.52,15.65-13.97,21.77-22.62,2.28-3.35,5.91-9.87,11.14-9.79,1.77.04,5.8,1.22,7.25-.2,2.08-2.12-1.69-7.06-2.91-8.73-8.42-11.47-4.89-24.37-4.13-37.21.57-9.31-3.51-18.53-1.48-27.96,2.1-9.48,16.78-7.43,24.72-8.11,0,0-1.24,43.52.81,49.8,2.27,6.68,5.35,18.1,2.49,24.84-1.65,4.04-4.29,8.23-6.94,11.77-4.78,6.67-6.11,13.89-6.11,21.76,0,8.32,5.87,17.72,8.06,25.7,2.62,9.18,4.57,18.5,7.03,27.71,2.12,8.04,4.9,14.49,3.18,22.99-2.45,12.26-8.47,26.69-14.67,37.71-7.04,12.52-28.13,40.76-5.63,51.14,6.47,2.97,15.78,4.01,22.93,2.88,11.02-1.76,1.79-4.81-4.11-5.38-4.51-.46-10.3-.17-14.38-2.19-4.42-2.21-3.32-4.87-2.46-8.61,2.37-9.99-.25-18.38,5.2-27.89,5.83-10.35,11.72-20.63,17.42-31.09,1.41-2.54,2.85-5.09,4.18-7.72,1.1-2.18,1.79-8.55,5.49-7.13,1.6.59,4.18,12.16,7.39,5.32,1.96-4.14-4.87-15.57-6.34-19.51-2.98-8.19-6.11-16.35-8.97-24.58-2.86-8.03-6.58-15.78-8.88-23.97-1.48-5.47-5.01-17.36.72-21.68,5.78-4.33,6.77,9.04,7.5,11.43,2.17,7.21,5.26,13.8,9.32,20.27,8.74,13.77,22.36,25.76,39.73,28.53,10.44,1.62,20.48,2.04,30.82-.93,14.93-4.31,26.87-15.32,34.62-27.6,4.1-6.47,7.15-13.07,9.35-20.27.69-2.39,1.65-15.75,7.44-11.43,5.8,4.32,2.24,16.22.73,21.68-2.32,8.19-5.97,15.93-8.83,23.97-2.94,8.23-6.02,16.4-9.03,24.58-1.44,3.93-8.24,15.36-6.3,19.51,3.2,6.85,5.83-4.73,7.33-5.32,3.77-1.41,4.44,4.96,5.61,7.13,1.29,2.63,2.73,5.18,4.15,7.72,5.61,10.45,11.59,20.74,17.42,31.09,5.37,9.51,2.78,17.9,5.11,27.89.93,3.74,1.97,6.4-2.41,8.61-4.13,2.03-9.84,1.73-14.42,2.19-5.91.57-15.06,3.62-4,5.38,7.04,1.12,16.41.09,22.86-2.88,22.45-10.38,1.45-38.61-5.59-51.14-6.3-11.02-12.29-25.45-14.61-37.71-1.74-8.5,1.01-14.96,3.12-22.99,2.37-9.21,4.41-18.53,6.99-27.71,2.21-7.97,8.05-17.38,8.05-25.7,0-7.87-1.34-15.09-6.13-21.76-2.65-3.54-5.23-7.73-6.86-11.77-2.93-6.74.2-18.16,2.48-24.84,2.05-6.28.86-49.8.86-49.8,7.91.67,22.55-1.37,24.65,8.11,2.05,9.43-2.08,18.65-1.48,27.96.76,12.84,4.32,25.74-4.08,37.21-1.38,1.67-5.1,6.61-2.93,8.73,1.41,1.41,5.47.24,7.23.2,5.23-.08,8.85,6.44,11.12,9.79,6.18,8.65,16.18,13.09,21.83,22.62,5.68,9.7,8.02,20.83-3.38,28.08-2.41,1.56-5.7,1.53-7.97,3.26-3.46,2.66-5.9,7.97-.19,9.05,2.31.47,4.54,0,6.66-.78,4.42-1.62,8.43-5,11.01-8.74,8.09-11.77,5.83-31.46-3.66-42.1h0Z"/>
  </g>
</svg>