<?xml version="1.0" encoding="UTF-8"?>
<svg id="Layer_2" data-name="Layer 2" xmlns="http://www.w3.org/2000/svg" viewBox="0 0 654.5 476.86">
  <defs>
    <style>
      .cls-1 {
        fill:#808080
      }
    </style>
  </defs>
  <g id="Layer_1-2" data-name="Layer 1">
    <path class="cls-1" d="m453.94,476.86h-40.9c-1.01-.68-1.95-1.5-3.03-2-2.72-1.22-5.65-2.05-7.77-4.32-8.11-8.68-15.67-17.76-21.16-28.37-2.18-4.19-4.92-7.81-9-10.3-1.57-.95-2.48-2.44-3.43-3.96-10.69-17-16.11-36.21-22.68-54.87-4.92-13.93-9.24-28.11-12.89-42.46-.26-1.01-.47-2.41-1.82-2.4-1.76.01-1.54,1.62-1.61,2.78-.25,3.94-.88,7.91-.57,11.82,1.05,14.05-.07,27.96-1.67,41.92-1.03,9.08-2.19,18.06-4.98,26.78-.33,1.05-.44,2.29-1.83,2.32-1.37.02-1.69-1.15-1.96-2.23-.25-.92-.36-1.89-.7-2.76-2.52-6.63-1.99-13.64-2.85-20.47-1.69-13.46-1.88-26.89-.75-40.33.47-5.62.38-11.13-.26-16.67-.12-1.1.41-2.85-1.35-2.93-1.33-.07-1.25,1.58-1.59,2.53-5.82,16.11-10.76,32.53-17.29,48.37-5.71,13.81-10.15,28.2-18.15,40.97-2.41,3.86-3.99,8.54-8.31,10.88-3.14,1.71-5.32,4.19-7.05,7.19-6.18,10.66-14.01,20.03-22.65,28.78-4.03,4.07-9.46,5.17-14.53,7.04-1.09.41-2.14-.02-3.05-.72-2.5-1.93-5.31-2.12-8.12-1.01-1.56.61-2.83.43-4.3-.09-1.68-.59-3.42-.59-5.22-.24-11.3,2.21-22.09-.3-32.7-3.86-6.17-2.07-11.17-6.63-17.61-8.34-13.23-3.51-25.22-9.36-34.39-19.92-3.8-4.38-8.43-7.64-13.24-10.76-4.9-3.19-9.49-7.12-12.18-12.31-4.09-7.94-5.31-16.79-5.82-25.65-.14-2.69-.86-4.95-2.18-7.27-2.5-4.37-5.75-8.19-8-12.76-5.5-11.16-4.65-24.02-9.95-35.18-.43-.92-.16-2.15-.31-3.24-1.16-9.14.25-18.25,1.09-27.25.65-7.12.54-14.6,4.26-21.39,6.4-11.71,14.38-22.39,21.15-33.87,3.25-5.49,8.77-9.62,13.13-14.47,3.04-3.37,6.36-6.24,10.31-8.57,6.03-3.55,11.82-7.56,17.92-11.51-1.76-.88-3.25-.46-4.7-.46-11.84,0-23.64.21-35.42-2.05-6.52-1.26-13.08-2.41-19.56-3.81-7.86-1.68-15.9-3.76-22.22-8.76-14.67-11.58-24.14-26.61-27.34-45.28-1.69-9.94-3.23-19.9-2.8-30,.16-4.13.46-8.08-1.21-11.99-.52-1.18-.29-2.68-.41-4.03-.86-9.78-2.39-19.32-6.12-28.56-2.47-6.12-5.21-12.38-5.97-18.99C6.61,47.85,1.71,34.59,0,20.68v-2.45c2.61-2.37,4.37-5.45,7.25-7.68C14.22,5.16,22.38,3.61,30.72,1.99,42.77-.37,54.77-.46,66.88.82c14.49,1.51,28.8,4.05,42.98,7.47,13.28,3.2,26.21,7.46,38.44,13.43,23.13,11.29,43.71,26.49,63.25,43.06,18.37,15.57,37.29,30.62,52.91,49.11,16.92,20.07,31.05,41.88,38.99,67.21.45,1.42.48,3.86,2.94,2.67,2.19-1.05.25-2.61-.24-3.77-3.03-7.16-1.55-12.55,4.72-16.81,1.13-.76,2.21-1.61,3.27-2.46,3.98-3.14,4.56-5.54,2.03-9.81-4.51-7.6-9.38-14.99-13.7-22.68-12.78-22.75-27.12-44.52-41.51-66.28-6.52-9.86-12.73-19.98-16.7-31.25-.58-1.62-1.77-3.5.77-4.45,2.4-.91,2.95,1.09,3.65,2.73,2.6,6.13,4.82,12.46,7.93,18.31,8.15,15.23,17.95,29.48,27.02,44.16,5.73,9.26,11.63,18.42,17.08,27.84,7.41,12.81,14.41,25.86,21.69,38.75,1.72,3.04,3.68,2.93,5.37-.24,2.33-4.32,4.92-8.46,7.46-12.64,12.05-19.72,24.31-39.27,37.37-58.33,12.21-17.82,25.38-35.05,33.34-55.42.67-1.76,1.69-3.51,3.86-2.52,2.28,1.03,1.26,3.14.56,4.63-2.66,5.65-5.53,11.19-8.8,16.55-11.61,19.04-25.98,36.16-37.93,54.97-9.48,14.92-19.26,29.66-28.82,44.52-3.7,5.74-3.29,7.6,2.15,11.99.64.52,1.23,1.15,1.94,1.49,5.6,2.6,6.18,7.35,5.69,12.69-.18,1.88-1.26,3.27-1.9,4.9-.49,1.27-1.15,2.89.66,3.43,1.54.46,1.93-1.17,2.32-2.3,4.5-13.06,10.5-25.31,18.71-36.47,6.21-8.43,11.11-17.81,18.45-25.37,26.75-27.53,56.78-51.03,88.42-72.63,12.41-8.49,25.55-15.56,39.33-21.33,12.4-5.19,25.49-8.33,38.7-11.14,14.21-3.01,28.48-4.54,42.9-4.98,12.66-.38,25.3.2,37.7,3.27,9.02,2.24,17.19,5.78,22.88,13.71,1.78,2.5,2.08,5,1.39,7.7-1.74,6.69-2.29,13.67-4.84,20.19-.83,2.14-1.59,4.36-2.02,6.62-1.49,8.01-2.64,16.14-6.32,23.52-6.84,13.7-9.21,28.66-11.37,43.46-1.34,9.18-1.24,18.6-2.63,27.92-2.44,16.25-7.44,31.14-19.04,43.13-5.84,6.02-11.67,12.06-20.15,14.76-5.99,1.91-12.04,3.29-18.18,4.52-13.52,2.7-27.21,3.57-40.95,3.88-4.52.11-9.04.02-13.55.02,2.47,2.4,5.08,3.79,7.67,5.18,10.17,5.5,17.57,14.03,24.88,22.67,2.53,3,5.85,5.6,7.55,9.02,4.27,8.55,9.37,16.53,14.27,24.7,3.28,5.49,6.18,11.19,6.97,18.05.92,8.15.54,16.33,1.49,24.4.79,6.63.33,12.96-1.38,19.37-1.56,5.9-4.84,11.27-5.37,17.48-.67,7.83-3.45,15.26-8.45,20.88-6.79,7.61-8.34,16.55-9.51,25.82-1.48,11.82-7.95,20.36-17.62,26.45-5.34,3.36-10.47,6.78-14.83,11.33-8.26,8.63-18.78,13.35-29.96,16.68-5.2,1.55-10.52,2.59-15.2,5.56-6.6,4.21-14.45,4.52-21.69,6.7h0Z"/>
  </g>
</svg>