<?xml version="1.0" encoding="UTF-8"?>
<svg id="Layer_2" data-name="Layer 2" xmlns="http://www.w3.org/2000/svg" viewBox="0 0 412.53 654.5">
  <defs>
    <style>
      .cls-1 {
        fill:#808080
      }
    </style>
  </defs>
  <g id="Layer_1-2" data-name="Layer 1">
    <path class="cls-1" d="m407.31,124c-3.47,6.8-8.59,12.42-12.69,18.8-6.37,9.97-12.61,20.08-19.83,29.46-7.33,9.48-14.35,19.27-21.89,28.56-5.05,6.3-11.08,11.85-15.77,18.43-3.16,4.37-4.08,9.89-5.64,14.9-1.64,5.36-3.61,10.88-5.63,15.89-4.02,10.47-7.54,20.61-9.58,31.71-2.19,12.23-2.2,26.02-10.61,36.08-1.77,2.06-4.08,3.52-5.16,6.1-1.77,4.1-2.39,7.14-5.76,10.43-3.03,2.95-6.62,5.19-9.9,7.93-7.03,5.9-14.26,11.52-21.56,17.06-10.93,8.33-23.24,14.89-35.14,21.86.92,2.96,1.91,6.03,5.28,6.78,8.61,2,9.24-8.91,14.92-12.23,3.09-1.8,6.71-2.67,10.12-3.18,6.86-1.09,13.77-1.73,20.7-2.03,22.42-1.04,45.22.95,66.85,7.38,9.43,2.83,19.93,5.93,26.6,13.69,5.71,6.67,5.1,16.74-3.06,21.55-7.8,4.6-19.57,5.62-28.39,5.99-11.36.44-22.85-1.22-34.08-2.95-15.28-2.32-30.23-6.92-45.46-9.58-5.58-.98-11.3-1.73-16.95-2.27-2.7-.29-5.38-.55-8.13-.73-1.33-.12-7.31.29-8.11-.59,1.6,1.77,3.22,3.52,4.85,5.25,7.05,7.51,14.1,14.99,21,22.6,7.2,7.85,13.31,16.59,20.44,24.43,4.23,4.66,12.59,9.67,12.97,16.55.09,1.43-.68,2.88-.68,4.3.06,4.81,2.81,10.54,4.2,15.06,1.73,5.61,3.41,11.18,5.14,16.76,3.49,11.25,6.81,22.51,9.66,33.91,2.02,7.69,3,15.69,5.81,23.1,2.38,6.37,6.47,9.06,12.27,12.2,8.84,4.79,17.22,11.28,25.27,17.34,8.81,6.61,17.23,13.85,24.63,21.99,8.17,8.94,16.43,17.95,22.27,28.71.92,1.74,3.89,6.07,3.07,8.15-1.48,3.83-6.19-3.17-7.14-4.51-4.06-6.13-7.06-12.77-11.66-18.56-4.91-6.07-10.45-11.59-15.77-17.28-5.85-6.2-12.15-11.94-19.23-16.71-8.67-5.82-17.85-10.89-26.29-17.16-3.74-2.81-8.57-4.71-11.32-8.67-2.54-3.66-3.01-8.3-4.2-12.49-4.86-16.87-8.23-34.45-12.96-51.15-2.24-8.01-4.45-16.07-6.75-24.14-.89-3.07-1.51-7.55-4.52-9.27-5.41-3.07-8.63-8.69-12.25-13.6-4.3-5.93-8.36-12.26-13.12-17.84-9.37-10.91-18.66-21.8-28.09-32.75,1.61,1.82.63,6.27.63,8.4,0,2.51.13,5.05-.18,7.56-.29,2.1-.77,4.34-2.08,6.06-.59.85-4.61,4.82-5.86,4.27,0,0,2.84,1.27,3.4,2.05.55.79,2.1,2.08,2.32,2.86,1.54,4.57,1.57,9.92-.74,14.25-1.57,2.86-3.81,3.15-6.8,3.94,7.09,13.59,15.47,26.29,23.17,39.49,4.18,7.23,12.07,14.43,19.77,17.8,1.44.61,5.26.63,5.28,2.5.22,3.36-4.32,1.53-5.85.89-8.13-3.39-16.33-12.27-21.91-18.86-6.13-7.25-10.74-16.48-15.68-24.57-2.35-3.9-4.01-8.66-6.84-12.27-.83-1.15-4.28-3.18-4.43-4.44,0,3.12.01,6.17,1.24,9.12.35.88,5.57,8.3,2.36,8.81-1.48.27-2.69-4.49-3.06-5.54-.3-.86-.53-2.95-1.14-3.61-.11-.07-.86-.27-1.63-.44v94.52c0,1.04-.77,1.86-1.79,1.86-.92,0-1.76-.83-1.76-1.86v-94.52c-.71.17-1.43.38-1.61.44-.68.66-.81,2.74-1.09,3.61-.36,1.05-1.58,5.81-3.03,5.54-3.24-.51,1.91-7.93,2.3-8.81,1.14-2.95,1.26-6,1.26-9.12-.21,1.26-3.56,3.29-4.49,4.44-2.78,3.61-4.38,8.37-6.77,12.27-4.94,8.1-9.59,17.33-15.71,24.57-5.56,6.59-13.73,15.46-21.86,18.86-1.63.64-6.1,2.47-5.93-.89.1-1.88,3.87-1.89,5.26-2.5,7.71-3.37,15.59-10.57,19.76-17.8,7.74-13.2,16.17-25.9,23.23-39.49-2.97-.8-5.26-1.09-6.77-3.94-2.35-4.32-2.31-9.67-.75-14.25.24-.78,1.79-2.07,2.32-2.86.53-.78,3.4-2.05,3.4-2.05-1.27.55-5.26-3.42-5.88-4.27-1.27-1.72-1.85-3.96-2.11-6.06-.24-2.5-.1-5.05-.1-7.56,0-2.13-.99-6.58.53-8.4-9.34,10.94-18.69,21.83-28.03,32.75-4.8,5.57-8.87,11.9-13.15,17.84-3.61,4.91-6.77,10.53-12.22,13.6-3.03,1.71-3.67,6.2-4.54,9.27-2.28,8.07-4.49,16.13-6.72,24.14-4.77,16.7-8.13,34.28-12.92,51.15-1.23,4.18-1.71,8.83-4.29,12.49-2.75,3.96-7.52,5.86-11.29,8.67-8.38,6.27-17.67,11.35-26.32,17.16-7.06,4.77-13.36,10.51-19.17,16.71-5.35,5.69-10.92,11.22-15.78,17.28-4.65,5.79-7.64,12.43-11.76,18.56-.87,1.34-5.56,8.33-7.05,4.51-.83-2.08,2.17-6.41,3.1-8.15,5.82-10.75,14.05-19.77,22.2-28.71,7.48-8.14,15.92-15.38,24.71-21.99,8.02-6.07,16.34-12.55,25.25-17.34,5.76-3.14,9.86-5.83,12.28-12.2,2.82-7.42,3.75-15.41,5.69-23.1,2.91-11.4,6.27-22.66,9.72-33.91,1.76-5.58,3.44-11.15,5.14-16.76,1.39-4.52,4.18-10.25,4.21-15.06,0-1.42-.75-2.87-.62-4.3.34-6.88,8.66-11.89,12.97-16.55,7.08-7.84,13.21-16.58,20.36-24.43,6.92-7.61,14-15.1,20.94-22.6,1.69-1.72,3.37-3.47,4.91-5.25-.78.88-6.71.47-8.1.59-2.67.18-5.36.44-8.1.73-5.7.54-11.38,1.29-16.95,2.27-15.26,2.66-30.17,7.26-45.47,9.58-11.26,1.73-22.76,3.39-34.09,2.95-8.84-.37-20.56-1.39-28.37-5.99-8.14-4.81-8.79-14.87-3.06-21.55,6.65-7.76,17.14-10.86,26.64-13.69,21.55-6.43,44.42-8.42,66.84-7.38,6.89.3,13.82.95,20.66,2.03,3.49.51,7.05,1.39,10.11,3.18,5.69,3.32,6.35,14.23,14.98,12.23,3.37-.75,4.29-3.81,5.22-6.78-11.85-6.97-24.18-13.54-35.1-21.86-7.33-5.54-14.55-11.16-21.59-17.06-3.21-2.74-6.84-4.98-9.87-7.93-3.38-3.29-3.98-6.33-5.81-10.43-1.02-2.57-3.38-4.03-5.14-6.1-8.38-10.06-8.41-23.85-10.58-36.08-2.07-11.1-5.54-21.24-9.65-31.71-1.89-5.01-3.97-10.53-5.57-15.89-1.58-5.01-2.5-10.54-5.63-14.9-4.67-6.58-10.68-12.13-15.83-18.43-7.52-9.29-14.45-19.08-21.83-28.56-7.21-9.38-13.43-19.48-19.85-29.46-4.03-6.38-9.33-12.01-12.66-18.8-1.94-3.81-6.86-10.11-4.79-14.61,3.93-8.81,11.33,12.46,12.35,14.43,5.5,11.35,12.44,21.97,19.67,32.34,3.59,5.22,7.33,10.35,10.91,15.49,6.37,8.94,13.21,17.48,20.17,25.85,5.11,6.17,10.79,16.26,19.11,18.16,6.27,1.42,7.05,8.42,7.52,13.67.99,10.37,5.16,20.04,7.3,30.2,2.53,12.44,5.45,24.83,8.78,37.06,1.66,6.17,3.22,12.5,5.28,18.64,1.57,4.47,5.81,6.74,9.35,9.38,2.91,2.15,5.65,4.64,8.3,6.97,6.56,5.6,13.29,10.96,19.94,16.49,5.27,4.42,10.45,8.94,16.15,12.8,5.29,3.58,10.51,7.13,15.63,10.79,2.2,1.48,5.48,3.72,8.3,3.22,5.54-.98,5.28-12.5,3.89-16.33-1.58-4.34-5.01-7.73-7.95-11.15-3.01-3.55-5.79-7.25-8.72-10.89-6.06-7.79-11.51-15.85-16.86-24.13-6.13-9.71-11.69-19.75-16.3-30.26-9.59-21.88-1.71-47.52,1.57-69.99,1.05-7.42,2.26-14.81,3.78-22.17,1.99-10.01,6.29-21.26,3.12-31.48-1.55-5.19-2.68-10.82-5.39-15.55-4.37-7.65-9.15-15.11-13.74-22.63-4.21-7.03-7.67-14.97-11.79-22.22-4.48-7.99-10.23-14.34-16.67-20.77-2-1.96-3.86-3.89-5.82-5.87-11.45-12.47-23.04-24.75-34.31-37.37-5.17-5.78-9.95-11.84-14.9-17.74C47.98,14.93,35.64-.1,43.61,0c3.18.05,5.76,5.23,7.48,7.3,2.6,3.09,5.04,6.3,7.74,9.33,14.9,16.33,30.43,32.08,44.21,49.42,6.31,7.96,11.81,19.31,20.48,25.08,1.71,1.15,3.77,1.39,5.45,2.46,2.73,1.66,4.7,5.3,5.76,8.23,2.79,7.66,6.15,15.04,9.59,22.39,2.69,5.76,4.73,13.85,10.14,17.65,8.02,5.56,7.88,16.4,6.07,24.9-4.86,22.58-9.56,45.21-13.09,68.06-.98,5.79-1.91,11.62-2.37,17.42-.37,4.33-2.14,12.43,1.43,15.71,5.28,4.92,7.02,13.96,9.99,20.33,4.74,10.04,10.03,19.71,15.44,29.37,3.63,6.42,6.84,13.09,10.91,19.28,1.74,2.67,3.75,5.25,5.84,7.67.71.8,4.23,3.61,4.23,4.63-2.16-24.97-3.53-50.21-1.73-75.28.46-6.3,1.12-12.63,1.8-18.94.75-7.38,1.82-14.84,3.83-22.03.71-2.45,1.49-5.18,3.23-7.14,2.82-3.22,9.49-3.38,12.46,0,1.73,1.96,2.5,4.69,3.19,7.14,2.07,7.2,3.12,14.65,3.9,22.03.62,6.3,1.33,12.64,1.8,18.94,1.76,25.07.37,50.31-1.8,75.28,0-1.02,3.56-3.83,4.24-4.63,2.14-2.42,4.06-5,5.88-7.67,4.02-6.18,7.27-12.86,10.85-19.28,5.41-9.66,10.73-19.33,15.49-29.37,2.93-6.37,4.71-15.41,10-20.33,3.52-3.29,1.8-11.39,1.44-15.71-.46-5.8-1.44-11.62-2.32-17.42-3.59-22.85-8.26-45.48-13.18-68.06-1.76-8.5-1.91-19.34,6.12-24.9,5.45-3.8,7.4-11.89,10.11-17.65,3.43-7.35,6.84-14.73,9.59-22.39,1.05-2.93,3.05-6.58,5.78-8.23,1.7-1.07,3.74-1.31,5.51-2.46,8.54-5.78,14.05-17.13,20.44-25.08,13.71-17.34,29.3-33.09,44.15-49.42,2.73-3.04,5.2-6.24,7.76-9.33,1.76-2.07,4.36-7.26,7.57-7.3,7.94-.1-4.42,14.93-5.61,16.32-4.95,5.9-9.8,11.96-14.89,17.74-11.26,12.62-22.89,24.9-34.31,37.37-1.92,1.98-3.86,3.91-5.85,5.87-6.41,6.43-12.15,12.78-16.69,20.77-4.06,7.25-7.49,15.19-11.76,22.22-4.57,7.52-9.35,14.98-13.71,22.63-2.66,4.73-3.83,10.37-5.41,15.55-3.16,10.23,1.11,21.47,3.16,31.48,1.48,7.37,2.66,14.76,3.71,22.17,3.32,22.46,11.16,48.11,1.55,69.99-4.6,10.51-10.14,20.55-16.34,30.26-5.25,8.28-10.82,16.34-16.8,24.13-2.85,3.64-5.66,7.34-8.67,10.89-2.94,3.42-6.44,6.81-8,11.15-1.33,3.83-1.61,15.34,3.93,16.33,2.75.5,6.06-1.74,8.26-3.22,5.2-3.66,10.42-7.21,15.67-10.79,5.76-3.86,10.91-8.39,16.15-12.8,6.65-5.53,13.34-10.89,19.85-16.49,2.78-2.33,5.44-4.82,8.33-6.97,3.63-2.65,7.89-4.91,9.4-9.38,2.07-6.13,3.6-12.46,5.31-18.64,3.28-12.23,6.24-24.63,8.73-37.06,2.17-10.16,6.31-19.83,7.37-30.2.46-5.25,1.21-12.25,7.46-13.67,8.32-1.9,13.96-11.99,19.06-18.16,7-8.36,13.92-16.91,20.2-25.85,3.63-5.15,7.36-10.28,10.96-15.49,7.21-10.37,14.14-20.99,19.64-32.34,1-1.97,8.36-23.24,12.32-14.43,2.07,4.51-2.87,10.81-4.73,14.61h0Z"/>
  </g>
</svg>