<?xml version="1.0" encoding="UTF-8"?>
<svg id="Layer_2" data-name="Layer 2" xmlns="http://www.w3.org/2000/svg" viewBox="0 0 654.5 637.05">
  <defs>
    <style>
      .cls-1 {
        fill:#808080
      }
    </style>
  </defs>
  <g id="Layer_1-2" data-name="Layer 1">
    <path class="cls-1" d="m26.6,394.86c8.21-2.53,14.86-5.18,22.16-9.51,5.32-3.1,10.64-6.2,16.07-9.13,14.51-7.95,29.48-15.46,43.2-25.16,11.2-8.06,24.59-12.18,36.49-19.28,5.84-3.47,11.6-6.6,18.49-6.68,7.4-.11,14.53,2.38,21.57,4.28,9.69,2.6,19.37,5.75,29.31,7.64,11.18,2.12,30.33,6.05,40.67-.92,8.29-5.6,6.49-15.96-2.67-19.43-24.57-9.42-52.85-18-67.02-42.04-4.05-6.88-9.53-11.27-14.92-16.93-18.01-18.51-27.45-43.09-43.51-63.04-7.99-9.92-18.85-16.94-26.84-26.81-6.06-7.44-10.95-15.8-17.7-22.65-5.89-5.95-13.19-10.14-19.75-15.09-10.06-7.45-19.83-15.27-27.78-24.81-9.22-11.08-17.89-23.58-25.53-35.75-3.2-5.1-10.46-13.23-8.52-19.7,1.34-4.52,6-6.64,10.53-6.06,6.99.95,12.07,7.95,16.09,13.14,5.54,7.03,11.07,14.21,17.82,20.05,5.57,4.77,9.1,11.23,14.17,16.35,2.82,2.65,6.03,4.59,9,6.93,5.2,4.04,11.76,8.3,15.97,13.35,19.59,22.91,40.42,44.58,59.67,67.67,7.45,9.11,11.97,20.29,18.32,30.17,6.1,9.54,15.13,15.77,22.8,23.88,6.07,6.64,8.88,14.75,13.04,22.67,3.81,7.63,9.25,14.29,16.21,19.25,6.53,4.58,6.99,7.3,11.57,10.38,6.29,4.16,12.5,7.84,20.06,8.39,6.71.5,10.23-2.8,7.14-9.45-3.28-6.74-7.61-12.81-10.51-19.75-10.61-24.38-24.14-46.57-36.56-69.94-5.97-11.15-9.96-23.62-18.49-33.14-6.78-7.59-13.1-15.44-18.29-24.26-4.76-8.57-8.86-17.75-14.77-25.73-8.19-10.77-17.89-20.28-26.2-30.95-5.76-7.35-11.58-14.7-17.19-22.19-2.32-3.1-12.74-15.46-17.41-21.67-6.01-7.99-12.85-20.71-10.31-30.95,5.67-23.52,28.42,11.77,32.9,18.93,3.78,6.14,7.9,12.18,11.8,18.24,2.19,3.1,4.32,6.21,6.62,9.3,5.67,8.06,10.89,16.89,17.21,24.45,5.51,6.76,12.72,12.23,18.35,19.06,6.63,8.11,12.6,16.81,18.26,25.66,5.47,8.55,11.88,16.5,17.63,24.84,7.44,9.39,15.3,18.78,19.97,29.89,4.21,9.95,6.65,20.56,10.95,30.47,4.78,10.87,11.46,20.45,18.05,30.25,7.28,10.88,10.46,23.95,18.1,34.59,5.29,7.36,9.31-2.54,8.67-8.02-.72-5.34-3.04-10.27-4.05-15.51-2.11-9.14-3.5-20.86-2.63-30.02.8-7.98,3-15.58,4.45-23.37,1.51-7.47,1.51-15.28,3.93-22.5,2.78-7.88,7.83-19.74,17.55-18.86,8.94.86,9.94,6.11,9.77,14.28-.03,7.67-5.17,9.98-7.67,16.28-6.75,18.04-15.44,36.45-15.44,56.08,0,4.72-.16,11.5,6.25,11.75,4.24.19,8.17-3.85,8.6-7.98.4-5.36,2.1-27.89,12.97-21.38,4.7,2.86.34,9.28-1.89,12.58-8.57,11.97,4.05,17.43,14.01,17.43s22.22-5.67,13.86-17.43c-2.35-3.28-6.71-9.72-1.92-12.58,10.87-6.51,12.54,16.02,13,21.38.31,4.13,4.36,8.17,8.5,7.98,6.22-.24,6.2-7.02,6.2-11.75,0-19.63-8.64-38.04-15.51-56.08-2.32-6.3-7.57-8.61-7.57-16.28-.16-8.17.93-13.42,9.9-14.28,9.57-.88,14.77,10.97,17.43,18.86,2.51,7.22,2.51,15.04,3.93,22.5,1.55,7.79,3.78,15.39,4.45,23.37,1,9.17-.43,20.88-2.54,30.02-1.08,5.24-3.33,10.17-4.02,15.51-.74,5.48,3.38,15.38,8.67,8.02,7.68-10.64,10.77-23.71,18.05-34.59,6.56-9.8,13.34-19.39,18.06-30.25,4.24-9.91,6.78-20.52,10.96-30.47,4.58-11.11,12.53-20.49,19.87-29.89,5.84-8.34,12.07-16.29,17.6-24.84,5.79-8.86,11.66-17.55,18.39-25.66,5.73-6.83,12.87-12.3,18.32-19.06,6.25-7.56,11.61-16.39,17.17-24.45,2.23-3.09,4.43-6.2,6.59-9.3,3.94-6.06,8.02-12.09,11.89-18.24,4.45-7.16,27.16-42.44,32.98-18.93,2.27,10.25-4.48,22.96-10.39,30.95-4.74,6.21-15.13,18.56-17.48,21.67-5.63,7.49-11.42,14.85-17.21,22.19-8.38,10.68-18.01,20.18-26.11,30.95-5.82,7.98-9.98,17.16-14.86,25.73-4.98,8.81-11.42,16.67-18.25,24.26-8.57,9.52-12.47,21.99-18.41,33.14-12.45,23.37-26.03,45.56-36.68,69.94-2.88,6.94-7.24,13.01-10.42,19.75-3.23,6.65.31,9.95,7.02,9.45,7.61-.54,13.89-4.23,20.05-8.39,4.74-3.08,5.05-5.8,11.64-10.38,7.03-4.95,12.38-11.62,16.38-19.25,3.97-7.91,6.75-16.02,12.93-22.67,7.59-8.11,16.66-14.33,22.75-23.88,6.41-9.88,10.74-21.06,18.39-30.17,19.28-23.1,40.11-44.77,59.51-67.67,4.33-5.05,10.74-9.31,16.04-13.35,2.94-2.34,6.32-4.28,8.98-6.93,5.13-5.12,8.7-11.58,14.2-16.35,6.78-5.83,12.31-13.01,17.92-20.05,3.93-5.18,9.01-12.19,16-13.14,4.55-.58,9.23,1.54,10.62,6.06,1.97,6.47-5.36,14.59-8.55,19.7-7.71,12.16-16.28,24.66-25.57,35.75-7.98,9.54-17.75,17.36-27.81,24.81-6.53,4.96-13.84,9.14-19.65,15.09-6.72,6.86-11.71,15.21-17.67,22.65-8.11,9.87-18.97,16.89-26.93,26.81-16,19.95-25.58,44.54-43.44,63.04-5.51,5.66-10.99,10.04-14.94,16.93-14.12,24.04-42.43,32.62-66.94,42.04-9.13,3.47-11.11,13.82-2.78,19.43,10.2,6.96,29.4,3.04,40.78.92,9.87-1.89,19.47-5.04,29.25-7.64,6.99-1.91,14.16-4.39,21.47-4.28,6.91.08,12.76,3.21,18.51,6.68,11.89,7.1,25.26,11.22,36.61,19.28,13.59,9.7,28.61,17.21,43.17,25.16,5.48,2.93,10.56,6.02,15.88,9.13,7.4,4.32,13.98,6.98,22.26,9.51,6.43,1.97,13.3,4.35,17.29,10.19,5.01,7.39,8.67,19.4-2.47,23.22-17.33,5.78-34.54-11.61-47.05-20.71-16.12-11.72-37.35-17.02-51.65-31.12-8.69-8.57-18.32-16.32-30.15-20.02-5.1-1.58-9.75-4.12-14.82-5.78-10.77-3.51-23.61.92-34.51,2.16-11.92,1.47-23.89.94-35.87.23-5.91-.38-11.97-.84-17.98-1.07-6.18-.28-15.32-3.09-18.94,3.7-1.79,3.35-2.85,9.49.81,11.81,4.39,2.82,11.16.27,16.02,1.43,9.45,2.04,22.05,5.59,29.04,12.43,8.44,8.22,16.96,17.17,24.93,25.85,5.86,6.31,9.29,14.3,14.77,20.87,6.83,7.92,16.22,12.9,23.27,20.51,5.04,5.43,8.94,11.87,12.5,18.35,17.2,31.21,33.57,62.87,48.06,95.54,2.68,6.07,5.48,12.26,8.23,18.4,3.83,8.76,8.84,16.93,12.5,25.85,2.9,6.96,9.12,17.72,6.56,25.43-2.92,8.56-15.11,3.98-20.28.9-7.64-4.5-10.4-13.22-13.18-21.13-3.56-9.81-6.78-19.9-11.92-29.09-4.79-8.48-9.46-17.08-12.6-26.41-2.54-7.34-3.9-14.81-7.33-21.91-4.86-10.3-10.49-20.4-17.52-29.24-19.37-23.76-40.85-46.17-58.27-71.26-6.94-9.81-15.78-19.79-25.78-26.38-1.36-.92-6.56,28.2-6.8,30.91-2.01,23.07-5.51,45.24-14.03,66.97-7.54,19.47-17.27,40.67-34.25,53.57-25.16,18.75-53.42,18.71-78.34,0-17.05-12.89-26.82-34.1-34.44-53.57-8.33-21.73-11.76-43.9-13.96-66.97-.24-2.71-5.35-31.83-6.71-30.91-10.12,6.59-18.85,16.56-25.81,26.38-17.55,25.1-38.96,47.5-58.18,71.26-7.21,8.84-12.78,18.94-17.58,29.24-3.53,7.1-4.98,14.57-7.4,21.91-3.21,9.33-7.76,17.93-12.62,26.41-5.05,9.19-8.33,19.28-11.8,29.09-2.88,7.91-5.73,16.63-13.3,21.13-5.17,3.08-17.37,7.65-20.25-.9-2.59-7.71,3.71-18.47,6.63-25.43,3.55-8.92,8.67-17.09,12.35-25.85,2.72-6.14,5.51-12.33,8.34-18.4,14.36-32.67,30.79-64.33,48-95.54,3.66-6.48,7.52-12.92,12.5-18.35,7.15-7.6,16.52-12.58,23.27-20.51,5.57-6.58,9.12-14.56,14.89-20.87,7.95-8.68,16.4-17.63,24.81-25.85,7.16-6.85,19.63-10.4,29.04-12.43,4.98-1.16,11.76,1.39,16.05-1.43,3.66-2.32,2.67-8.46.88-11.81-3.75-6.79-12.76-3.98-18.91-3.7-6.16.23-12.07.69-18.1,1.07-11.92.71-23.96,1.24-35.87-.23-10.87-1.24-23.61-5.67-34.57-2.16-4.98,1.66-9.65,4.2-14.73,5.78-11.76,3.7-21.41,11.45-30.1,20.02-14.34,14.09-35.5,19.4-51.72,31.12-12.6,9.1-29.69,26.49-46.95,20.71-11.14-3.82-7.64-15.84-2.56-23.22,4.02-5.84,10.83-8.22,17.29-10.19h0Z"/>
  </g>
</svg>