<?xml version="1.0" encoding="UTF-8"?>
<svg id="Layer_2" data-name="Layer 2" xmlns="http://www.w3.org/2000/svg" viewBox="0 0 654.5 427.12">
  <defs>
    <style>
      .cls-1 {
        fill:#808080
      }
    </style>
  </defs>
  <g id="Layer_1-2" data-name="Layer 1">
    <path class="cls-1" d="m405.27,8.23h-.33.33Zm234.2,213.28c-12.36-15.62-30.96-23.65-49.06-30.68-17.96-6.89-36.27-13.25-54.89-17.83-9.19-2.3-18.15-5.34-27.4-7.76-15.81-4.11-31.11-10.07-47-14.1-11.72-2.88-23.03-6.89-34.89-9.38-6.79-1.35-13.61-3.19-19.02-7.73-1.94-1.72-3.63-3.7-5.85-5.19-3.96-2.56-8.89-3.06-13.26-4.62-.53-.2-5.54-2.47-6.03-2.09,7.04-6.07,11.04-14.78,13.95-23.4.71-2.09.97-4.34,1.53-6.51.84-4.49,2.58-8.66,5.92-11.96,3.17-3.19,7.35-5.31,10.32-8.73,3.12-3.62,6.18-9.22,1.86-13.21-2.88-2.61-7.31-2.94-10.7-4.31-2.73-1.05-4.06-2.89-6.26-4.3-2.66-1.56-5.88-1.5-8.79-1.27-7.1.48-10.58,3.96-12.49,10.83-.52,1.79-1.43,3.71-1.66,5.46-.28,2.78.87,5.52.61,8.35-.38,2.89-1.4,5.65-2,8.48-.79,3.43,2.83,4.4,4.96,2.46,1.5-1.45,2.5-4.27,2.55-6.38.13-1.86,0-3.73.61-5.52.76-2.84,2.24-5.67,3.47-8.38,1.03-2.6,2.32-4.67,5.06-5.59,3.3-1.13,9.8-1.13,12.28,2.19,1.4,2.04-.67,4.26-1.5,6.08-1.46,2.93-3.91,5.11-6.01,7.53-1.82,2.27-2.8,5.24-4.44,7.72-1.69,2.48-3.75,4.68-5.29,7.26-2.32,3.81-3.81,7.99-6.44,11.65-2.15,3.01-5.16,4.78-8.58,6.36-1.07-4.49-1.27-10.47-4.59-13.95-.71-.74-8.37-8.97-8.05-9.37,3.99-4.03,6.66-8.1,5.22-13.9-1.38-5.16-4.88-9.19-8.08-13.28-2.12-2.94-2.48-3.91,1.26-4.31,12.97-2.94,26.49-9.47,38.16-16.04,5.08-2.78,9.81-5.93,14.27-9.6,4.26-3.45,11.13-8.33,10.65-14.56-.56-7.08-11.27-13.82-17.9-11.44-1.87.67-2.83,2.89-2.33,4.8.77,2.3,3.34,2.86,5.52,2.94,1.56-.08,4.39-.39,5.41.67,1.17,1.23-.15,2.6-.87,3.85-1.86,3.06-2.58,6.67-4.73,9.53-1.74,2.15-4.16,3.52-6.56,4.75-5.06,2.48-10.48,3.62-15.56,5.8-4.45,1.89-8.79,4.14-13.28,5.65-6.29,2.1-12.98,1.48-19.42,2.97-4.72,1.02-7.79,3.84-12.06,5.6-3.55,1.51-7.76-.41-11.36-.67-3.16-.18-7.43,1.86-10.32.67-4.18-1.76-7.27-4.58-12.03-5.6-6.38-1.49-13.06-.87-19.41-2.97-4.6-1.51-8.83-3.77-13.33-5.65-4.98-2.19-10.55-3.32-15.47-5.8-2.43-1.23-4.85-2.6-6.51-4.75-2.25-2.86-3.01-6.48-4.88-9.53-.66-1.25-1.97-2.61-.8-3.85,1.02-1.07,3.85-.76,5.42-.67,2.17-.08,4.75-.64,5.38-2.94.59-1.91-.26-4.12-2.17-4.8-6.67-2.38-17.39,4.35-18.01,11.44-.56,6.23,6.46,11.11,10.73,14.56,4.49,3.66,9.22,6.82,14.22,9.6,11.65,6.57,25.14,13.1,38.31,16.04,3.63.4,3.25,1.37,1.1,4.31-3.19,4.09-6.67,8.12-7.95,13.28-1.58,5.8,1.2,9.88,5.13,13.9.44.39-7.27,8.63-8.04,9.37-3.44,3.49-3.53,9.47-4.64,13.95-3.39-1.58-6.36-3.35-8.51-6.36-2.6-3.66-4.13-7.84-6.39-11.65-1.59-2.58-3.7-4.78-5.36-7.26-1.69-2.48-2.58-5.46-4.49-7.72-2.04-2.41-4.5-4.6-5.92-7.53-.97-1.82-2.93-4.04-1.5-6.08,2.33-3.32,8.84-3.32,12.25-2.19,2.69.92,4.14,2.99,5.05,5.59,1.08,2.71,2.79,5.54,3.61,8.38.38,1.79.34,3.67.38,5.52.21,2.1,1.13,4.93,2.71,6.38,2.07,1.94,5.72.97,4.98-2.46-.72-2.83-1.81-5.59-2.09-8.48-.26-2.83,1.02-5.57.61-8.35-.26-1.74-1.08-3.67-1.61-5.46-1.97-6.87-5.41-10.35-12.62-10.83-2.94-.23-6.02-.3-8.64,1.27-2.28,1.41-3.66,3.25-6.16,4.3-3.5,1.37-8.04,1.69-10.91,4.31-4.37,3.99-1.28,9.6,1.89,13.21,3.02,3.42,7.1,5.54,10.34,8.73,3.35,3.3,5.11,7.48,5.96,11.96.45,2.17.76,4.42,1.51,6.51,2.83,8.63,6.84,17.34,13.9,23.4-.48-.38-5.49,1.89-6.08,2.09-4.37,1.56-9.34,2.06-13.28,4.62-2.24,1.5-3.83,3.47-5.88,5.19-5.38,4.54-12.23,6.38-18.93,7.73-11.82,2.5-23.24,6.51-34.87,9.38-15.88,4.03-31.18,9.99-47.02,14.1-9.24,2.42-18.23,5.46-27.4,7.76-18.69,4.58-36.96,10.94-54.94,17.83-17.96,7.04-36.57,15.07-49.01,30.68-6.48,8.17-20.48,23.55-12.7,34.37,10.17,14.17,31.54,16.48,47.48,17.75,16.79,1.28,34.13-.67,50.52-4.5,1.41-.33,16.85-4.01,16.85-4.09,0,1.69,2.19,3.7,3.27,4.95,5.24,6.36,14.2,3.16,20.74.77,15.84-5.75,31.7-11.64,46.85-19.24,6.71-3.42,13.43-7.15,19.72-11.26,1-.64,7.74-4.14,7.74-5.13-2.81,8.03-5.16,16.32-8.43,24.21-3.85,8.83-9.99,16.34-14.5,24.72-4.32,8.18-6.99,16.96-11.36,25.06-6.23,11.56-17.06,20.81-26.1,30.08-3.63,3.91-6.72,9.2-10.16,13.79-3.78,5.16-8.35,8.28-13.74,11.77-4.34,2.94-8.83,5.39-12.9,8.93-3.86,3.45-8.09,7.15-12.23,10.4-3.71,2.89-7.99,4.78-11.91,7.41-2.74,1.92-5.19,4.37-7.91,6.31-2.83,1.82-6.03,2.86-8.37,5.19-2.83,2.76-7.02,9.06-3.58,12.79,6.21,6.9,13.3-6.62,15.86-10.65.95-1.59,2.63-2.25,4.08-3.29,5.01-3.16,9.65-6.7,14.35-10.17,6.11-4.5,12.82-8.4,18.33-13.64,2.55-2.37,4.54-5.23,7.43-7.27,2.51-1.92,5.49-2.91,8.58-3.93,7.82-2.45,12.13-10.47,15.55-17.35,2.83-5.47,5.77-10.63,9.66-15.32,5.08-6.25,10.65-11.95,15.81-18.03,2-2.5,3.73-5.88,6.7-7.58,3.17-1.92,7.21.17,10.32-1.89,4.68-3.16,3.99-9.22,4.68-14.17.95-7.51,4.59-14.43,7.76-21.28,4.96-11.08,8.74-22.71,13.64-33.91,1.08-2.5,1.76-5.16,2.96-7.59,6.85-13.56,21.55,4.99,27.13,10.47,4.52,4.5,9.42,8.55,15.07,11.64,1.2.59,9.94,4.37,9.94,5.38,0,3.72-1.55,8.2-2.29,11.88-2.3,11.22-4.49,22.51-5.42,33.97-1.41,19.06,2.37,37.88,6.1,56.5,3.34,16.11,6.67,32.82,16.12,46.54,2.98,4.36,6.49,8.37,10.29,11.98,12.89,12.13,27.71,12.01,40.61,0,3.81-3.62,7.28-7.63,10.24-11.98,9.55-13.72,12.93-30.44,16.14-46.54,3.75-18.62,7.58-37.44,6.11-56.5-.92-11.46-3.12-22.75-5.47-33.97-.67-3.68-2.28-8.17-2.28-11.88,0-1,8.86-4.78,9.99-5.38,5.62-3.09,10.52-7.13,15.12-11.64,5.56-5.47,20.23-24.03,27.1-10.47,1.15,2.43,1.89,5.09,2.96,7.59,4.9,11.19,8.69,22.83,13.61,33.91,3.21,6.85,6.79,13.77,7.76,21.28.74,4.95,0,11.01,4.67,14.17,3.14,2.05,7.17-.03,10.44,1.89,2.93,1.69,4.49,5.08,6.62,7.58,5.13,6.08,10.8,11.78,15.78,18.03,3.98,4.68,6.9,9.84,9.65,15.32,3.47,6.89,7.76,14.91,15.66,17.35,2.98,1.02,5.98,2.01,8.51,3.93,2.78,2.04,5.04,4.9,7.49,7.27,5.44,5.24,12.06,9.14,18.32,13.64,4.65,3.47,9.24,7.02,14.23,10.17,1.58,1.03,3.21,1.69,4.13,3.29,2.48,4.03,9.58,17.55,15.88,10.65,3.35-3.73-.77-10.03-3.6-12.79-2.35-2.33-5.67-3.37-8.25-5.19-2.84-1.94-5.29-4.39-8-6.31-3.81-2.63-8.18-4.52-11.86-7.41-4.26-3.25-8.33-6.95-12.33-10.4-4.03-3.54-8.48-5.98-13.03-8.93-5.19-3.48-9.79-6.61-13.56-11.77-3.52-4.59-6.49-9.88-10.22-13.79-9.01-9.27-19.89-18.52-26.07-30.08-4.34-8.1-7.03-16.88-11.37-25.06-4.45-8.38-10.76-15.89-14.48-24.72-3.35-7.89-5.6-16.17-8.37-24.21,0,.99,6.74,4.49,7.69,5.13,6.46,4.11,12.92,7.84,19.71,11.26,15.1,7.61,31.03,13.49,46.9,19.24,6.59,2.38,15.37,5.59,20.87-.77,1-1.25,3.06-3.25,3.06-4.95,0,.08,15.48,3.76,16.85,4.09,16.44,3.83,33.66,5.79,50.59,4.5,15.92-1.26,37.19-3.58,47.48-17.75,7.81-10.82-6.23-26.2-12.74-34.37h0Zm-346.69-6.89c-2.68,8.22-.46,16.09-2.41,24.19,0-1.92-13.99-11.34-15.88-12.98-5.72-5.09-11.5-10.16-18.06-14.04,3.3-1.89,6.46-3.81,8.99-6.82,1.99-2.28,3.14-5.9,5.38-7.95,0-.08,24.41,10.75,22.93,15.18l-.94,2.42h0Zm87.07,11.21c-1.78,1.65-15.79,11.06-15.79,12.98-2.07-8.1.36-15.97-2.4-24.19l-.87-2.42c-1.48-4.44,22.93-15.27,22.96-15.18,2.19,2.06,3.37,5.67,5.29,7.95,2.56,3.01,5.68,4.93,9.04,6.82-6.66,3.88-12.44,8.94-18.23,14.04h0ZM249.78,8.23h-.56.56Z"/>
  </g>
</svg>