<?xml version="1.0" encoding="UTF-8"?>
<svg id="Layer_2" data-name="Layer 2" xmlns="http://www.w3.org/2000/svg" viewBox="0 0 654.5 556.28">
  <defs>
    <style>
      .cls-1 {
        fill:#808080
      }
    </style>
  </defs>
  <g id="Layer_1-2" data-name="Layer 1">
    <polygon class="cls-1" points="268.02 555.73 269 554.59 270.42 553.5 270.83 552.33 273.09 548.06 273.45 546.51 273.5 543.61 273.87 540.7 273.45 539.72 273.53 537.57 273.17 536.59 272.87 535.63 272.9 533.9 271.61 529.56 271.97 528.14 270.58 524 270.69 523.03 270.73 519.39 270.95 517.82 271.25 514.57 270.27 509.49 270.65 508.99 271.17 506.91 271.25 505.13 272.14 504.14 272.21 502.72 272.68 499.56 274.28 497.15 275.01 496.17 274.9 495.46 275.14 494.48 276.26 493.78 277.05 491.09 277.69 490.11 277.79 489.41 277.95 488.68 279.17 488.03 279.56 488.18 279.64 488.68 279.92 488.68 280.36 487.06 280.81 487.22 281.36 487.22 281.66 486.75 282.44 485.77 282.75 484.8 283.53 483.89 283.74 484.07 283.99 484.28 284.69 483.59 284.81 482.61 285.1 480.68 285.3 480.68 285.34 481.89 285.16 483.37 285.19 483.59 285.77 482.61 286.65 481.91 287.15 480.93 287.23 479.73 287.88 479.06 288.06 479.22 288.58 479.78 288.63 479.48 289.09 478.45 289.42 478.51 289.57 479.22 291.49 476.67 291.89 476.82 292.64 476.82 292.75 476.56 293.89 474.27 294.02 474.4 294.15 476.12 294.65 476.06 296.08 474.17 297.54 473.02 298.26 471.75 298.68 471.99 298.99 472.14 299.49 471.87 299.88 471.99 299.96 472.53 300.23 472.45 300.94 471.33 301.17 469.74 302.14 469.13 303.09 467.9 303.44 467.85 303.59 468.78 303.86 468.58 304.85 466.39 305.31 465.92 305.74 466.39 306 467.71 306.48 467.17 306.79 465.69 307.21 464.56 307.54 464.46 307.75 465.2 308.19 465.04 309.05 462.29 309.23 462.29 309.41 462.85 309.65 462.77 309.94 461.8 310.24 461.08 310.53 461.08 310.61 461.66 310.88 461.58 310.73 460.36 311.32 460 311.73 460.1 312.29 461.19 312.54 461.24 312.8 460.91 313.08 459.87 313.75 457.96 315.74 455.51 316.72 454.07 321.97 446.45 323.17 444.14 323.98 443.19 325.85 440.11 327.11 435.19 329.46 431.9 329.54 430.35 330.47 424.3 331.65 422.68 331.72 419.95 332.14 419.25 332.84 418.01 332.78 416.31 333.2 413.65 334.06 412.24 334.6 409.32 335.02 408.67 336.96 408.12 338.43 406.98 339.22 405.2 340.44 402.78 340.73 402.78 341.99 409.54 343.33 416.59 344.99 422.38 346.56 426.5 347.91 431.8 350.27 438.2 352.33 441.73 352.21 442.55 353.63 443.43 354.88 446.19 356.75 449.22 357.03 450.22 358.41 450.92 359.47 453.67 361.11 455.99 361.89 457.6 362.14 457.66 362.61 457.26 362.77 457.47 365.45 462.77 365.76 463.35 366.25 462.23 366.6 462.29 368.57 464.46 368.96 465.92 370.47 466.18 370.59 467.63 371.8 468.42 372.78 468.34 373.48 470.03 373.75 470.03 373.86 469.81 374.05 469.81 376.65 472.89 377.61 473.21 378.21 473.18 379.78 474.4 380.47 476.33 381.24 476.62 382.33 476.82 382.86 477.55 383.42 478.32 384.42 479.48 384.87 480.01 385.41 480.45 386.49 482.14 387.11 482.61 387.47 482.61 388.64 484.07 389.22 485.35 389.9 486.49 390.19 487.71 391.25 488.68 391.63 490.73 392.69 491.84 392.84 493.77 393.77 494.98 393.93 495.91 394.08 497.17 394.68 498.12 395.44 501.26 395.45 504.41 395.76 504.7 396.17 504.87 396.42 507.3 396.65 516.76 396.22 521.55 396.42 523.27 396.22 524.25 395.36 525.46 394.78 530.34 395.66 531.02 395.45 531.75 394.55 532.94 394.93 533.69 394.15 534.88 394.47 536.1 393.74 540.7 393.82 544.59 394.83 547.97 396.22 550.26 397.74 551.82 399.86 553.07 402.76 553.81 403.97 553.6 404.86 553.78 405.68 553.96 406.16 553.34 406.58 553.5 407.4 554.25 408.31 554.06 409.54 553.29 408.64 551.82 408.8 551.21 410.01 550.53 410.52 550.63 410.99 551.65 411.48 551.72 412.2 551.37 412.92 551.16 413.24 550.85 413.49 550.63 414.75 550.85 414.85 550.71 414.67 550.38 413.29 549.17 413.37 548.67 414.85 547.78 415.43 547.97 415.83 549.31 416.16 549.41 416.55 548.24 417.76 548.25 418.48 547.85 420.31 547.24 420.79 546.51 421.38 546.1 421.97 546.26 422.34 546.62 423.3 546.26 423.64 545.28 424.31 544.86 425.1 545.06 425.98 545.58 427.21 545.56 427.69 545.16 428.89 544.73 429.61 543.65 429.99 543.61 431.29 544.37 432.02 544.09 431.94 542.87 432.26 542.21 432.69 542.39 434.23 543.74 435.95 543.61 439.28 542.21 440.02 542.15 440.75 542.15 440.72 541.67 440.96 541.49 441.84 541.67 443.88 542.68 445.37 542.65 445.58 542.46 445.64 541.67 445.88 541.43 446.79 542.83 447.07 542.65 447.29 542.15 447.52 542.15 448.23 542.58 448.95 541.75 449.48 541.9 451.13 543.39 451.66 543.36 452.35 542.48 452.55 542.65 453.55 543.96 454.09 544.09 454.35 543.61 454.75 542.96 455.34 543.12 455.67 543.83 455.97 544.37 456.69 544.58 456.95 543.87 457.9 544.09 458.57 544.58 458.63 544.85 459.6 544.94 460.31 544.91 461.53 545.41 462.75 545.11 465.15 544.38 466.17 544.58 467.83 544.73 468.18 544.58 468.39 543.12 469.28 542.65 469.22 541.43 470.84 541.17 471.7 540.06 471.83 540.21 472.17 541.2 472.71 541.43 473.4 540.94 473.21 539.98 473.4 539.56 473.97 539.72 474.84 540 475.58 539.59 476.31 537.64 476.85 537.32 478.85 537.32 479.43 536.83 479.17 535.86 479.21 535.22 480.16 534.65 480.2 533.69 480.58 533.21 481.11 533.21 482.64 534.16 482.85 534.4 483.55 533.72 484.26 533.27 484.77 532.96 484.58 532.46 484.51 531.75 485 531.04 485.53 531.24 486.96 531.78 487.27 531.75 487.32 531.52 488.63 530.81 488.44 528.59 488.63 528.18 488.93 528.36 489.52 528.36 489.84 527.95 489.67 527.39 489.69 526.66 490.56 526.23 491.28 526.44 491.95 526.92 491.81 527.86 492.23 528.02 492.79 527.86 492.97 527.28 493.21 526.8 493.79 526.92 494.42 527.14 494.35 526.66 494.27 525.94 494.91 525.26 495.09 525.46 495.17 526.17 495.65 526.46 496.18 526.44 497.1 525.76 499.76 525.76 500.34 525.46 502.19 524.53 502.05 524 502.19 523.62 502.72 523.75 503.63 524.27 503.84 524.25 503.58 523.27 504.09 523.1 506.43 523.27 507.26 523.27 507.5 523.07 508.33 523.03 508.47 522.44 508.71 522.12 509.44 522.3 509.69 522.06 509.03 520.6 509.04 520.14 509.44 519.93 510.08 520.14 511.11 520.5 511.61 520.22 512.09 520.25 512.57 519.52 512.78 519.64 513.04 519.64 512.85 518.91 513.06 518.45 513.44 518.44 514.02 519.18 514.54 519.17 514.75 518.91 515.47 518.48 516.45 518 516.32 517.25 516.41 516.49 516.66 516.49 517.88 516.83 518.34 516.76 518.55 516.49 518.39 514.75 518.8 514.8 519.65 514.8 520.31 513.95 520.91 511.9 521.99 511.69 522.08 510.93 522.27 510.29 523.32 509.97 523.54 508.99 524.4 508.75 524.59 508.28 525.84 507.05 526.18 505.86 526.61 505.66 527.12 505.37 526.96 504.14 527.21 503.68 527.5 503.68 528.37 503.68 528.37 502.94 529.26 502.26 530.72 500.87 531.68 500.32 532.16 499.88 532.04 498.83 533.36 498.36 533.35 497.37 533.63 496.52 533.9 496.66 534.83 496.8 535.14 496.66 536.27 495.22 537.25 494.77 538.23 493.57 538.7 493.51 540.63 493.48 540.92 493.04 540.7 491.84 540.86 491.14 543.57 491.09 544.27 491.6 544.56 491.58 545.04 490.6 546.5 489.88 547.65 489.45 548.38 489.15 547.89 487.91 547.61 486.97 547.89 486.85 548.18 486.97 548.86 487.22 548.63 485.67 548.63 485.03 549.36 484.56 550.09 484.56 551.91 484.56 552.38 483.37 552.83 483.11 553.21 482.46 554.23 480.45 554.12 479.48 554.27 478.51 555.15 478.32 555.88 478.04 555.94 477.07 556.86 475.6 556.77 474.64 556.66 473.18 557.07 472.3 557.48 472.22 558.29 472.58 558.78 472.45 558.83 471.25 559.46 470.03 559.38 466.67 559.74 465.24 560.1 465.2 561.2 466.22 561.46 466.18 562.16 465.24 562.24 464.72 562.88 463.56 562.49 462.54 562.63 462.1 563.28 462.29 563.85 462.36 564.15 462.07 564.19 461.34 565.07 460.6 564.51 459.39 564.91 459.15 566.03 459.51 566.39 459.39 566.18 457.96 566.52 457.55 567.07 457.7 567.87 457.7 568.15 457.47 568.27 455.99 568.53 455.51 568.86 455.51 569.41 455.86 569.71 455.77 571.12 454.31 571.17 451.91 571.85 450.69 571.73 449.96 571.57 449.22 572.09 448.68 572.62 448.73 573.04 449.26 573.56 449.22 573.65 448.27 572.98 446.81 573.3 446.37 573.41 444.14 574.25 443.51 574.56 442.94 575.12 441.73 575.7 441.5 576.14 441.73 576.68 442.84 577.7 441.73 578.05 437.63 578.46 437.15 578.87 436.39 579.64 435.19 579.43 434.46 580.08 433.26 579.44 432.05 579.59 431.64 580.56 431.6 580.93 431.33 580.65 430.84 580.78 430.64 581.76 430.38 581.83 430.12 581.14 428.66 581.52 428.05 582.24 427.7 582.25 427.46 581.99 427.37 581.77 426.97 583.45 425.56 583.28 424.3 583.91 423.42 583.76 422.61 583.91 422.12 584.65 421.91 584.74 420.91 585.82 419.95 585.94 418.74 586.66 418.01 586.98 417.28 586.91 414.63 587.31 414.15 588.03 414.39 588.53 414.26 588.68 412.93 589.32 411.01 589.11 409.06 589.69 407.62 588.78 406.98 588.6 406.38 589 405.69 589.74 405.49 590.01 405.2 589.07 403.75 588.84 402.29 589.74 401.15 589.74 400.43 589.92 400.09 590.94 399.87 591 399.39 590.32 397.93 590.45 397.53 591.67 397.47 591.95 396.71 591.72 395.51 591.98 394.78 591.73 393.11 592.39 392.46 592.94 390.67 592.49 389.71 592.28 388.74 593.6 387.81 593.65 385.6 594.32 384.42 594.64 382.93 595.3 381.97 595.7 380.99 595.88 378.08 596.75 377.41 596.81 376.87 594.89 374.45 594.69 373.75 595.08 373.34 595.5 373.49 596.27 374.14 596.6 373.97 596.64 373.75 596.45 372.51 594.67 370.32 594.82 369.77 596.04 368.91 596.08 368.41 594.97 366.94 594.98 366.47 594.1 364.78 594.55 364.07 593.69 363.56 593.78 362.1 593.21 361.17 593.36 360.44 593.41 359.7 592.28 357.52 592.45 357.29 592.39 356.76 591.67 355.66 590.72 355.25 590.47 354.86 590.95 354.46 591.44 354.62 592.27 354.62 592.51 354.14 591.95 353.64 591.72 352.44 591.19 351.88 590.62 351.22 591.19 350.79 589.06 348.1 588.47 347.13 589.2 346.63 589.32 346.15 589 345.82 588.36 344.95 589.26 344.31 589.31 342.99 587.88 340.84 588.34 339.61 588.08 339.14 586.83 338.25 586.72 337.91 587.61 337.68 587.54 337.29 585.32 335.99 586.23 335.99 586.58 335.93 586.84 335.5 586.2 334.53 585.64 333.33 583.24 330.91 582.54 328.97 580.78 325.59 574.03 317.34 557.35 301.62 551.88 297.52 546.93 294.49 540.7 289.29 534.7 284.68 527.65 279.85 512.57 270.79 504.83 265.92 501.79 263.63 509.92 262.78 518.04 262.89 533.63 263.26 537.95 263.99 539.66 264.07 541.38 264.41 542.66 264.35 544.27 264.01 547.12 264.12 551.76 264.46 554.9 264.79 558.9 264.85 565.3 265.13 567.47 265.66 572.56 265.9 573.51 265.69 574.59 265.81 576.12 266.05 577.4 265.92 579.59 265.45 586.13 265.03 588.06 264.2 589.48 263.92 592.17 262.8 594.1 262.48 597.01 261.75 598.93 260.3 600.39 259.81 601.55 258.79 604.24 257.37 605.22 256.87 605.37 255.66 605.69 255.43 607.4 255.19 608.6 253.75 610.31 251.34 611 250.31 610.85 249.58 611.2 248.62 611.02 248.08 610.84 247.43 611.27 246.99 611.52 246.45 610.9 245.97 611.02 245.62 612.96 245.24 612.89 244.51 613.67 244.02 613.61 243.32 613.97 242.82 614.44 240.4 613.8 239.43 614.76 238.95 614.68 237.97 614.97 236.77 615.31 236.53 615.59 236.05 614.39 235.43 614.29 235.08 615.08 234.35 615.16 233.86 614.6 233.4 615.59 232.91 615.52 232.66 615.15 232.57 614.97 232.16 616.35 231.09 616.42 230.73 614.94 229.98 614.53 229.03 614.97 227.58 616.1 227.15 616.81 226.6 616.46 226.13 616.45 225.17 615.85 225.33 615.43 225.17 615.38 224.67 616.58 223.99 617.77 222.98 617.72 222.49 618.28 220.91 618.7 219.34 618.28 219.08 617.66 218.62 618.77 218.15 619.47 217.17 619.31 214.99 619.98 214.35 619.81 213.05 620.22 212.39 620.51 211.13 620.05 208.7 620.46 208.03 620.37 207.24 621.08 204.83 620.82 202.89 621.42 201.53 621.25 194.67 620.66 189.6 621.18 188.9 621.34 187.15 620.94 186.79 620.12 185.97 620.46 185.77 621.14 185.22 620.98 184.99 619.84 184.25 620.22 183.87 621.18 183.54 621.45 182.33 621.41 178.7 622.29 178.22 622.51 176.76 623.59 174.84 623.14 174.33 622.65 173.63 622.77 172.88 623.59 172.46 624.11 169.99 623.69 169.26 624.14 168.54 623.84 167.68 623.95 166.59 623.23 165.88 624.06 164.91 623.12 163.97 622.93 163.45 623.12 162.77 623.08 161.99 622.41 161.02 621.42 160.97 621.04 160.55 621 159.33 621.56 158.86 621.81 158.86 622.35 157.88 622.24 157.41 621.31 156.19 621.68 155.72 621.45 155.22 621.46 154.51 620.56 153.53 620.46 151.75 620.02 150.38 619.81 149.17 619.53 148.68 618.53 148.87 617.97 148.68 619.42 147.73 619.06 146.97 619.31 146.03 618.64 145.06 618.77 144.58 618.28 144.01 618.11 143.36 617.08 143.31 616.35 143.1 617.02 141.92 616.58 141.86 615.93 141.68 616.1 140.98 615.46 139.99 615.85 139.04 617.3 138.32 617.33 137.8 616.58 137.49 615.7 136.84 615.85 136.5 616.52 136.6 616.84 136.6 616.84 136.29 616.43 135.15 617.3 134.83 618.04 134.01 618.07 131.27 617.62 130.78 616.58 130.72 616.19 130.29 617.78 129.72 618.27 129.09 617.98 126.91 618.07 125.71 617.12 124.72 616.93 124.01 617.36 123.77 617.91 123.29 617.55 123.04 616.35 122.95 616.16 122.56 616.58 122.33 617.08 121.63 616.63 120.61 615.6 119.56 615.18 118.93 616.84 118.01 617.08 117.23 616.1 116.55 615.93 115.81 616.35 115.05 616.36 114.56 614.39 113.73 614.03 112.87 613.72 111.67 613.08 110.94 612.49 105.85 612.29 101.99 613.12 99.08 613.12 96.68 613.67 95.5 614.89 92.38 616.58 92.37 617.08 92.17 616.92 91.83 617.08 91.59 617.3 90.81 615.85 90.54 615.54 89.9 616.99 89.41 618.28 88.25 618.33 87.47 618.13 86.74 618.04 86.13 618.77 85.56 619.48 85.71 619.78 85.54 619.81 84.55 620.46 83.85 620.22 83.27 620.22 82.94 620.72 82.68 621.42 82.22 621.94 81.19 622.84 79.95 622.14 79.56 621.72 79 623.12 77.65 624.79 76.7 626.24 76.59 627.23 77.13 628.99 77.29 629.41 76.22 629.57 76.34 630.39 76.87 633.19 76.81 633.52 76.44 633.92 76.59 634.91 76.81 635.44 76.65 637.17 76.81 640.97 77.29 641.99 76.91 642.89 77.08 644.87 76.61 645.52 76.09 645.74 76.09 646.41 76.09 646.8 75.77 647.4 75.86 649.24 76.31 650.44 75.68 652.15 75.08 652.24 74.17 653.37 73.73 654.18 73.19 654.2 72.7 654.5 71.51 653.85 71.03 654.24 70.29 653.74 70.05 653.85 69.58 653.6 69.25 653.6 68.37 653.14 67.86 653.12 67.5 653.28 66.91 652.51 66.67 652.7 65.7 652.15 65.62 651.22 63.75 650.21 62.82 650.04 62.06 649.48 61.49 649.26 61.1 648.5 60.69 647.89 60.13 647.55 59.8 646.71 59.17 647 58.67 647.06 58.09 645.83 57.82 645.47 56.98 644.65 56.39 644.46 55.75 643.91 55.43 643.47 54.78 642.27 54.33 642.43 53.58 642.48 52.87 640.81 51.66 640.79 50.95 640.06 50.84 639.36 50.7 639.38 49.96 638.84 48.35 639.08 47.85 639.31 47.32 638.39 46.82 638.37 46.09 637.88 45.94 636.75 45.12 636.73 44.4 635.57 43.68 636.75 41.98 635.92 41.64 634.97 40.87 635.12 40.29 635.08 39.8 633.52 39.73 631.42 36.41 627.3 28.67 627.04 26.98 626.34 25.27 626.51 24.56 626.36 23.34 626.96 23.1 627.64 22.62 627.32 22.14 627.47 21.79 627.74 20.95 626.9 20.19 626.98 19.6 627.06 18.48 625.53 18.41 626.47 17.06 626.4 16.57 625.53 16.01 625.39 15.6 626.02 15.1 626.1 14.65 625.76 14.34 625.31 13.9 624.33 12.99 624.52 11.72 623.44 11.25 623.59 10.76 623.73 10.04 623.12 9.67 623.53 8.59 623.42 7.38 622.43 5.92 622.18 4.95 621.45 4.47 620.72 3.37 618.04 3.11 617.78 2.35 616.58 2.24 614.89 1.7 601.53 .11 589.98 0 583.45 .41 572.09 1.54 571.17 1.09 555.63 3.14 547.41 4.74 527.11 10.36 506.78 16.84 495.09 21.64 483.48 27.23 473.83 32.8 464.6 38.83 455.73 45.3 446.72 52.63 433.49 65.23 425.97 73.43 418.95 82.39 410.26 94.56 406.87 100.35 402.34 109.02 397.44 116.12 393.74 123.77 388.69 136.1 384.57 148.46 382.85 153.53 379.78 159.5 372.26 171.18 366.73 181.84 362.07 192.48 360.39 198.05 355.24 225.17 352.69 221.55 350.58 219.34 348.58 218.21 344.7 217.47 344.38 215.72 344.01 210.15 344.52 204.83 346.21 194.19 353.73 160.32 355.04 157.88 356.38 151.34 357.84 145.55 360.02 139.25 364.07 130.89 370.91 117 376.4 107.8 377.41 105.14 379.29 103.23 379.49 102.47 378.69 101.73 378.84 98.91 378.33 98.12 377.36 98.18 376.14 98.84 375.38 99.81 374.38 104.16 373.4 108.75 372.05 112.17 370.78 112.65 370.08 113.59 369.79 115.05 369.14 115.69 368.8 117.96 368.37 119.42 368.09 120.61 365.45 125.96 363.89 129.09 361.84 132.72 360.14 136.6 358.9 139.25 358.35 141.44 357.52 143.13 357.16 144.83 356.3 146.97 355.97 149.17 354.82 151.84 354.27 154.03 349.26 174.82 343.75 200.68 343.6 203.14 343.25 203.24 342.47 201.93 342.3 198.78 342.05 195.87 341.36 194.9 341.09 194.7 340.59 195.19 339.83 198.05 339.23 203.14 338.04 205.32 338.04 207.74 337.49 210.4 337.46 212.89 337.18 213.53 336.73 213.69 336.27 213.29 335.99 212.34 336.88 207.02 336.75 203.86 337.16 200.96 337.56 197.34 337.39 195.4 336.96 195.17 336.23 195.99 334.02 202.16 333.15 204.1 332.5 205.07 332.17 205.07 326.61 194.19 298.99 142.58 294.3 132.97 287.03 116.02 281.64 99.58 280.92 98.12 279.73 97.39 278.91 97.47 278.38 97.89 278.43 99.81 279.89 104.16 283.26 111.97 284.73 114.16 285.82 115.54 290.71 126.68 295.63 138.04 305.52 156.76 320.2 183.78 328.92 200.96 330.63 205.78 331.01 207.24 330.13 211.13 328.91 217.64 328.01 217.84 325.51 218.12 322.67 219.34 320.77 221.06 319.29 223.71 318.57 227.09 318.68 229.51 319.32 231.73 320.56 233.62 319.95 234.85 319.06 236.05 319.11 237.24 320.24 239.43 320.11 239.93 319.93 239.93 318.18 237.02 316.8 233.4 310.66 209.17 307.99 199.02 305.57 192.75 302.39 185.74 297.35 177.24 290.33 167.83 284.33 159.09 282.92 155.71 281.88 150.64 280.19 146.27 270.69 126.73 264.87 116.55 256.65 103.95 251.59 97.15 235.17 78.51 225.28 69.08 216.82 61.82 206.44 54.33 197.24 48.27 185.8 41.69 172.74 35.45 151.47 27.45 141.77 24.39 132.86 22.14 116.86 19.08 102.09 16.71 91.7 15.44 81.09 14.87 68.95 15.4 58.56 16.38 44.52 18.58 36.05 20.19 35.83 20.58 34.29 20.68 33.04 21.16 32.92 22.07 30.98 22.87 31.39 23.34 29.03 24.07 28.54 26.25 29.29 27.35 27.58 28.91 28.08 29.47 26.88 30.43 25.91 33.51 26.33 34.23 25.28 34.96 26.04 35.68 25.91 36.04 24.76 36.65 25.19 37.13 26.15 37.56 26.25 38.34 25.78 41.98 24.9 45.36 21.26 51.17 19.82 53.58 18.17 55.33 17.99 56.98 16.73 58.18 16.59 58.44 17.37 58.67 17.1 59.65 16.23 60.75 14.3 61.11 13.58 64.01 14.67 64.49 14.7 64.97 14.08 65.7 14.75 65.93 14.55 66.29 12.6 66.84 12.06 67.39 12.37 68.27 11.98 68.84 12.01 69.32 9.94 70.93 8.46 71.51 6.76 73.43 6.3 74.8 4.31 76.09 3.39 77.29 2.92 79.68 1.67 81.66 1.66 82.15 1.05 82.63 1.35 83.1 .83 83.58 1.2 84.82 .52 85.91 0 86.26 .31 87.22 1.24 88.08 .73 88.93 1.47 89.45 2.69 89.95 3.65 90.43 6.3 90.96 7.28 90.68 8.08 90.85 8.51 91.41 9.35 91.59 17.46 90.92 19.87 90.32 21.13 90.39 24.48 90.85 24.69 90.7 25.27 90.85 26.82 91.34 28.19 90.39 28.71 90.39 30.27 90.74 31.29 91.11 31.51 91.11 32.52 92.06 33.34 93.51 33.43 93.77 34.75 94.24 34.96 94.49 34.12 95.22 35.58 95.59 35.58 95.8 33.66 96.68 37.2 100.53 37.04 101.51 37.96 102.71 38.42 103.43 40.29 104.39 41.81 107.08 43.63 111.19 44.04 113.38 44.31 114.58 45.72 114.87 53 115.17 53.16 115.54 52.74 115.96 49.36 116.45 45.5 117.11 44.97 117.23 44.71 117.96 44.31 122.09 42.78 126.91 41.87 127.99 41.56 128.38 41.62 128.85 42.48 129.58 42.4 130.29 40.89 131.45 40.51 131.74 40.89 132.25 41.54 132.72 39.92 133.92 39.94 135.11 39.68 135.61 39.84 136.84 39.16 137.56 39.2 138.33 39.53 139.01 38.94 140.95 39.2 143.7 40.19 144.33 41.14 144.58 41.28 144.83 39.92 145.81 39.66 147.26 40.25 147.95 41.26 148.46 40.08 149.91 40.44 151.66 40.6 152.55 40.67 153.71 41.31 154.03 41.66 154.73 42.23 155.22 40.82 156.43 40.89 156.69 41.66 156.69 41.78 157.17 40.15 158.61 40.44 159.36 41.07 159.33 40.14 160.32 39.7 161.52 39.16 161.99 38.73 163.93 38.96 164.66 37.49 168.76 37.41 169.99 36.55 171.19 36.7 171.91 35.8 173.63 35.83 174.54 36.72 174.6 36.47 175.56 35.36 177.01 35.83 177.5 36.2 177.72 36.06 178.16 34.53 179.42 33.9 181.48 33.74 181.6 34.67 182.8 35.53 183.04 35.58 183.43 34.29 185.49 34.26 186.68 34.75 187.15 34.23 188.14 34.37 189.16 35.21 189.82 36.03 191.52 36.06 194.67 36.47 195.4 36.73 198.05 37.22 199.02 36.89 201.93 37.76 205.64 37.98 206.26 38 206.77 38.42 207.5 38.24 208.07 37.5 208.22 37.25 208.94 37.51 210.16 38.24 210.69 39.18 211.13 39.18 211.36 37.5 211.86 37.33 214.74 37.65 214.99 37.51 215.68 37.41 216.69 37.84 217.17 38.7 217.64 38.02 219.34 39.06 220.08 38.96 220.41 38.18 220.57 38.24 220.81 39.06 221.06 38.34 221.52 39.35 221.76 37.81 223.43 38.24 224.18 39.7 224.49 39.88 225.17 39.41 226.13 37.87 226.6 38 227.17 39.05 228.06 39.22 228.55 40.22 229.03 40.48 230.24 40.36 230.73 41.54 231.7 40.89 231.9 39.72 231.7 39.2 231.79 39.27 232.42 40.13 233.86 41.51 235.32 42.37 236.55 43.33 236.79 43.56 237.16 43.33 237.73 41.7 238.71 42.6 241.13 44.04 241.25 44.04 241.65 43.08 242.49 42.6 242.69 42.6 243.54 43.33 244.57 43.96 245.24 43.95 246.45 43.72 246.93 44.04 247.49 45.39 248.39 45.26 248.65 45.66 249.11 45.09 249.85 45.9 250.31 45.5 250.96 44.94 251.28 45.02 251.77 45.42 252.01 44.92 253.47 45.68 254.2 45.56 255.66 46.23 256.47 47.5 257.33 46.96 258.31 47.18 258.68 48.25 258.79 48.16 259.36 48.01 259.77 49.04 260.24 48.12 261.43 48.28 262.19 49.36 262.95 50.13 263.39 50.25 263.87 49.61 265.01 50.77 265.81 50.82 266.05 49.87 266.54 50.82 267.68 51.88 268.46 51.79 268.71 52.54 269.19 52.53 269.58 52.02 269.92 53.01 270.65 57 272.81 56.88 273.25 56.7 273.3 56.88 273.58 57.52 274.03 57.58 274.57 58.09 274.83 59.06 274.83 59.25 275.01 58.85 275.73 59.77 276.28 61.94 276.76 63.87 276.76 64.11 277.18 64.13 277.77 64.6 277.95 65.82 278.06 66.53 278.68 67.5 278.63 68.24 278.31 68.66 278.4 68.9 278.89 68.63 279.37 69.75 279.61 71.14 279.17 72.04 279.37 72.6 279.7 73.07 279.51 73.48 279.61 74.05 280.1 79.86 280.87 83.71 280.84 83.95 280.73 85.07 280.81 87.72 280.81 88.56 280.16 89.6 280.08 91.59 280.32 94.85 279.32 96.14 279.37 100.17 279.47 100.79 279.37 102.83 278.21 104.28 277.48 104.95 277.65 105.97 278.19 106.5 278.16 109.36 276.76 115.65 275.97 122.49 275.25 131.14 274.83 133.32 274.34 135.26 274.28 137.33 274.28 144.42 272.49 147.32 272.4 148.07 272.19 149.16 272.12 150.97 272.18 152.64 271.74 155.89 271.84 160.89 272.2 161.04 272.34 154.07 275.97 140.48 285.42 130.88 292.51 109.59 306.4 94.61 314.02 88.71 318.57 85.14 321.95 83.61 323.64 82.26 324.16 79.86 327.32 79.52 328.97 79.53 329.45 78.17 331 77.38 331.62 77.02 332.61 77.39 333.07 76.71 333.94 74.59 335.99 73.79 338.67 74.46 339.14 73.99 340.1 72.41 341.3 72.82 342.19 71.1 344.21 70.95 347.59 70.64 349.77 71.28 351.22 71.39 352.76 71.76 354.14 71.86 355.87 72.34 356.06 73.07 355.67 73.24 355.83 71.81 358.25 71.8 359.45 71.98 360.18 70.36 362.1 70.26 363.81 70.67 365.74 70.26 366.72 70.77 367.68 69.86 369.37 68.91 370.81 68.95 371.36 69.58 372.27 68.28 373.49 68.42 375.17 67.99 376.16 68.51 376.4 68.65 378.08 67.02 380.52 67.5 380.87 68.24 380.74 68.4 381.97 66.83 383.17 67.05 383.41 67.86 383.17 67.86 384.14 67.28 384.61 66.77 384.85 66.79 385.21 67.83 384.85 68.11 385.6 66.98 387.29 67.86 389.71 68.38 390.19 68.12 390.91 68.4 391.4 69.37 391.64 68.81 392.86 69.72 392.62 70.09 392.86 69.67 394.04 70.07 394.78 70.32 395.03 70.19 396.07 71.08 396.96 71.46 397.68 72.12 398.03 72.72 397.93 73.07 397.57 73.34 397.68 73.69 398.18 72.25 399.62 72.14 399.87 72.34 400.16 73.32 399.81 73.8 399.87 73.26 401.56 73.52 402.29 74.14 402.52 72.79 404.2 72.82 404.98 73.32 405.95 73.84 406.16 74.02 406.38 73.85 406.89 75.05 407.62 75 408.56 74.59 409.32 75.15 409.54 74.92 410.26 75.32 410.52 75.55 413.43 75.98 413.99 75.98 414.54 76.88 414.85 76.43 417.04 75.26 417.89 74.8 418.26 75.73 419 76.45 419.35 75.68 421.88 75.88 422.38 76.22 422.38 76.71 421.54 77.3 421.64 77.99 422.12 77.43 423.52 77.18 424.31 77.7 425.99 79.04 427.46 79.15 428.42 79.99 429.61 80.33 430.87 81.46 432.53 81.79 433.09 82.68 433.5 82.38 434.95 82.74 435.44 83.48 435.48 83.64 436.16 83.73 438.12 84.6 438.35 84.78 439.79 85.17 440.76 85.33 441.24 86.14 441.5 86.13 441.93 86.13 442.46 87.02 442.94 87.28 444.86 87.83 445.88 88.56 445.95 89.26 445.93 89.34 446.32 89.3 447.08 90.02 446.89 90.21 447.08 90.47 449.22 91 451.65 91.26 451.15 91.59 451.15 92.41 452.38 92.71 454.31 93.15 454.58 93.4 454.57 93.65 454.14 94.25 454.31 94.43 454.8 93.81 456.72 93.65 458.83 93.89 458.91 94.37 458.51 94.85 458.66 95.1 458.49 95.58 458.42 95.7 459.62 95.58 461.08 98.48 465.2 99.44 466.07 100.17 466.01 100.49 466.39 100.64 467.77 101.21 468.11 101.87 467.93 102.28 468.11 102.83 469.45 103.37 469.81 103.55 469.69 103.9 469.81 103.55 472.81 103.79 473.47 104.28 473.73 105.05 473.44 105.2 474.4 105.45 475.59 106.21 476.25 106.94 476.33 107.11 477.07 107.17 477.8 107.66 478.29 108.38 478.58 109 480.68 108.84 482.39 109.36 482.67 110.18 482.87 110.49 483.37 110.7 484.07 111.71 484.8 111.46 486.02 111.83 486.75 113.1 487.45 112.99 488.44 113.72 488.74 114.3 488.91 114.31 489.41 114.22 489.88 114.72 489.88 115.4 489.41 115.8 489.64 116.13 490.96 116.38 490.84 116.54 490.37 116.76 490.37 117.01 490.84 117.11 492.79 117.55 493.51 116.61 494.74 117.84 495.91 120.01 497.38 123.15 497.37 123.98 497.37 124.83 496.76 125.03 496.91 125.32 497.83 125.32 498.3 126.3 498.05 126.75 498.12 127.73 499.68 128.94 500.32 129.66 500.13 129.9 500.28 131.37 501.75 132.09 501.07 132.51 501.26 132.57 501.52 132.88 501.5 133.54 501.08 133.96 501.26 133.92 502.24 133.07 503.93 133.79 504.33 135.05 504.64 135.23 505.48 136.45 505.71 137.18 505.86 137.3 506.33 137.18 507.1 138.86 508.45 139.88 508.28 140.32 507.97 140.79 508.03 140.9 508.52 140.74 510.7 141.45 512.39 142.04 513.11 142.14 513.82 142.75 514.36 144.84 515.06 145.24 517.48 145.65 517.77 147.05 517.96 148 520.14 149.2 520.39 149.27 521.35 150 521.87 150.62 522.06 150.97 522.94 151.69 522.63 152.08 522.79 152 524 152.69 524 153.38 523.67 154.1 523.75 154.6 524.59 155.37 524.48 155.56 524.33 155.77 524.48 156.54 525.02 157.01 524.98 157.73 526.24 158.49 526.44 159.18 526.03 159.97 525.94 160.07 526.17 159.67 526.96 160.16 527.39 161.13 527.01 161.42 527.14 161.85 527.45 162.62 527.63 162.81 528.15 164.76 528.48 165.48 528.52 166.21 527.92 166.48 528.14 166.68 528.92 166.92 529 167 528.59 167.41 528.25 168.11 528.36 168.62 529.16 170.38 529.82 170.78 529.68 171.44 529.82 172.49 530.64 173.23 530.39 173.95 530.28 174.37 530.76 174.59 531.97 175.14 532.52 179.09 533.69 179.37 534.88 182.65 536.7 182.91 536.59 183.01 534.65 183.37 534.49 184.06 534.65 187.36 537.57 187.73 538.52 188.48 538.75 188.45 540.73 189.75 541.9 190.64 542.2 191.03 542.15 191.24 541.9 191.63 541.9 191.69 543.36 192.09 543.65 192.56 543.61 193.3 542.99 193.67 543.12 193.67 543.83 193.44 544.32 194.98 545.1 195.7 544.91 196.11 545.06 196.25 546.51 196.93 546.69 197.43 546.51 197.48 546.26 197.91 545.78 198.61 546.14 198.77 546.99 198.61 547.56 199.08 547.73 200.34 547.47 200.7 547.72 200.78 547.97 201.51 547.83 202.15 547.97 202.46 548.43 202.49 548.79 202.73 548.91 203.25 548.2 204.18 547.56 204.6 547.72 204.67 548.32 205.16 548.2 205.95 547.47 206.35 547.47 207.44 547.97 207.56 548.45 208.92 548.67 209.49 548.29 210.71 548.06 213.95 547.24 214.33 547.55 215.1 547.47 215.18 547.24 216.25 545.93 216.66 546.03 217.01 546.3 217.8 546.26 218.48 546.26 219.1 545.28 219.51 545.28 219.66 546.06 220.39 546.03 220.86 545.78 222.07 546.12 224 545.6 224.87 545.56 225.25 545.56 225.7 545.16 226.73 544.8 227.04 545.28 228.36 544.09 228.52 544.32 228.86 545.34 230.06 545.8 232.47 545.9 233.2 546.27 233.45 546.26 233.76 545.06 234.64 544.85 235.31 545.06 235.38 545.77 235.62 545.64 236.04 546.03 236.59 547.04 237.16 546.99 237.8 546.61 238.23 546.74 238.76 547.34 239.7 547.24 239.99 547.08 240.38 547.24 240.75 547.47 240.94 547.42 241.34 546.99 241.92 546.57 242.74 546.74 243.38 548.49 245.31 549.23 246.91 549.67 247.22 549.44 247.43 549.67 247.71 550.24 251.09 551.86 251.9 551.58 252.47 551.82 252.8 552.35 254 552.83 254.5 553.81 255.56 553.78 256.42 554.65 257.63 554.59 257.88 555.19 258.35 554.83 259.04 554.96 259.33 554.96 259.7 554.25 260.04 554.05 260.25 554.25 260.7 554.96 260.33 555.71 260.54 555.94 261.52 555.26 261.68 555.46 261.74 555.91 261.99 555.93 262.17 555.46 262.35 555.46 262.66 555.94 262.95 556.28 266.25 556.2 268.02 555.73"/>
  </g>
</svg>