<?xml version="1.0" encoding="UTF-8"?>
<svg id="Layer_2" data-name="Layer 2" xmlns="http://www.w3.org/2000/svg" viewBox="0 0 654.5 433.91">
  <defs>
    <style>
      .cls-1 {
        fill:#808080
      }
    </style>
  </defs>
  <g id="Layer_1-2" data-name="Layer 1">
    <path class="cls-1" d="m303.37,1.33c-1.74,0-.99.89-2.85.78-1.86-.13-8.45,2.71-10.18,2.83-1.75.14-4.97,1.13-5.47,2.27-.49,1.09-.62.73-1.48.73s-.87-1.36-1.49-2.25c-.61-.87-3.35.26-5.2.89-1.87.63-12.04,4.58-13.28,5.1-1.23.47-5.33,1.61-5.95,2.47-.64.86-1.11,1.98-2.37,1.48-1.24-.49-.5-1.73-2.62-1.23-.79.19-4.14,1.32-6.62,2.55-3.97,1.9-7.48,4.16-8.24,4.39-1.25.37-4.83,2.09-5.96,4.1-1.11,1.99-1.73.86-3.46.23-1.74-.64-4.72,1.36-5.59,2.23-.89.87-15.26,11.04-15.89,12.06-.61.97-.97,1.11-2.72.6-1.74-.51-1.74-.26-3.98.77-2.22.95-15.86,11.15-16.51,12.64-.6,1.5-.11,2.27-3.69,2.37-3.6.14-2.5-.87-3.48-.1-.41.28-4.26,2.86-7.35,5.31-4.43,3.48-8.54,7.17-8.92,7.83-.61,1.11-2.1,1.59-3.95,1.59s-2.98-.6-3.6-.1c-.26.18-4.95,3.82-7.93,6.97-4.31,4.63-7.34,9.27-7.34,9.27,0,0-2.47.61-3.34,1-.87.35-2.37,0-3.72-.25-1.36-.28-12.4-.14-15.15-.14s-14.62-1.86-16-2.37c-1.35-.48-6.2-2.45-8.44-2.45s-3.58-.88-4.34-2.26c-.74-1.34-3.1-1.6-3.46-2.46-.39-.88-1.12-1.14-1.12-1.14,0,0-.13,2.01.12,4.25.24,2.23-.87,2.84-1.11,3.69-.25.88-1.25,1.51-1.99,1.51s-1.87-1.25-4.22-2.22c-1.31-.57-4.35-2.13-4.72-2.78-.39-.57-2.23-1.71-3.72-2.45-1.49-.77-1.62.96-1.62,2s-.62,1.33-1.35,1.09c-.76-.24-.63-1.09-1.5-2.36-.87-1.23-5.2-3.21-6.44-3.83-1.25-.66-2.75-.66-2.61.23.13.86-.14,2.23-.75,2.09-.61-.1-2.11-.97-3.6-2.7-1.48-1.75-7.18-4.09-10.29-5.1-3.11-.97-4.97,1.86-4.84,3.09.13,1.25,1.73,3,2.49,3.6.73.63,1.85,1.73,1.85,1.73,0,0-10.93-.35-14.52-.24-3.6.14-8.56-1.11-11.54-1.62-2.98-.48-3.71,0-5.1,0s-2.83-.38-3.84-2.23c-1-1.87,1.62-3.21,1.62-3.21,0,0-3.48,0-3.97,3.34-.36,2.4,2.84,4.71,3.72,5.47.87.74,1.74,1.62,1,4.09-.75,2.46-.63,5.84-.14,8.08.5,2.23,3.72,1.96,3.72,1.96,0,0-1.62-.98-1.73-2.22-.13-1.23.37-2.24.75-3.96.36-1.75,2.84-1.75,3.85-2.23.99-.51,6.45-2.37,8.3-3.01.96-.31,6.59-1,11.54-1.22,4.62-.18,8.6.14,9.55.37,1.99.51,2.24,1.36,4.73,1.49,2.47.13.87.63-.15.75-.98.14-3.47-.12-5.93-.62-2.5-.5-4.34.39-7.09,1.1-2.73.77-3.08,3-1.11,5.49,1.99,2.46,8.2.49,10.8-.13,2.59-.64,7.8-3.99,8.55-4.6.75-.64,1.86.11,1.48,1.22-.35,1.14-1.23,1.38-1.97,2.6-.76,1.28-.14,2.12,2.35,1.75,2.49-.36,1.87-.97,3.84-1.62,1.98-.6,4.23-.85,4.73-1.46.49-.67.97-.88,1.71-.67.76.28-.24,1.29,0,2.5.26,1.25,3.36.64,5.35.64s4.97-.14,6.08,0c1.11.13,1.98.87,2.1,1.86.13.97-.72,3.34,1.72,5.49,3.32,2.94,9.83,3.24,10.67,3.32.5.02,6.26.71,10.81.76,9.5.11,21.23-.42,21.23-.42l-1.26,3c-.25.61-.36.51-1.48.74-1.13.27-2.6,1.49-2.6,1.49,0,0-2.14.29-2.89.98-2.17,1.93-4.81,6-5.55,8.23-.98,2.95-4.09,6.19-5.1,7.06-.99.85-.99,2.36-.99,2.36,0,0-2.58-.39-4.09,1.35-1.48,1.73-1.12,3.86-.99,4.46.14.61,0,1.38-.6,2.12-.63.75-2.23.61-4.6.49-2.37-.14-5.85,4.11-5.94,5.84-.15,1.71-.62,4.72-.77,5.58-.1.88-.23,1.47.27,2.12.5.6.11.77.11,1.85s-1.11,1.11-1.11,2.6c0,.72-.14,6.26.04,10.77.18,4.72.63,8.43.84,9.72.35,2.47,1.11,3.08,2.08,3.72.99.64,2.25,1.49,2.5,2.6.22,1.12-.39,2.09-2,2.6-1.61.51-1.87,1.12-1.97,2.63-.15,1.49-1.88.75-2.86-.13-1-.88-4.08.23-4.96,0-.88-.26-1.63.13-2.36.13-.36,0-5.82.54-9.82,1.26-4.66.77-8.01,1.74-9.55,2.19-.88.26-13.68,5.21-18.66,9.55-11.17,9.71-20.17,23.5-20.43,24.37-.36,1.23-.97,1.34-1.73.48-.73-.87-.62,3.89-.62,3.89,0,0-1.37,3.74-2.06,7.13-.82,4.15-.97,8.12-.91,9.46.13,2.49-.25,3.48.61,3.75.88.23.88-.75,1.86-2.5,1-1.72.62-2.6,1.63-3.95.98-1.39,2.09-2.1,2.09-2.1,0,0,2.44,7.82,7.18,13.56,6.5,7.95,15.99,14.66,17.15,15.6.45.36,2.4,1.88,6.05,3.77,4.39,2.25,11.09,4.96,17.84,6.12,6.11,1.02,14.78.84,19.64.28,4.07-.51,4.84-1.38,4.84-1.38,0,0,1.19,1.1,1.79,1.38,1.22.53,2.31.51,2.31.51,0,0,.73,2.36.62,3.45-.11,1.14-1.24,2.12-2.73,3-1.49.88-.99,4.97-.25,9.81.36,2.3.77,6.47,1.15,9.07.43,2.92.82,4.17,1.08,4.83.51,1.22,2,6.32,2.23,8.45.08.61.84,3.71,2.73,5.47,1.81,1.68,5.04,1.91,5.34,1.72.62-.37,1.36,0,2.47,0s1.51.51,1.74,1.34c.24.89-.98,2.01.51,4.73,1.49,2.73,4.46,2.5,4.46,2.5,0,0,.61,2.33,2.6,2.93,1.11.36,1.37,1.9,4.22,7.24,2.85,5.33,6.08,6.82,7.19,6.93q1.13.14,1.49.61c.37.54,1.49.88,2.37,1.01.86.1,1.35.99,2.1,2.12.36.53,1.63,3.31,3.86,6.15,2.37,3.04,5.7,6.15,5.7,6.15,0,0-12.09,1.13-20.44,2.87-8.43,1.78-13.23,3.86-14.42,4.69-.79.54-2.47,1.95-2.86,3.29-.78,2.66.24,5.77.51,6.52.38,1.11-10.05,3.1-11.42,3.59-1.35.49-1.13,1.36-.63,2.61.52,1.26-.23.75-1.11.37-.87-.37-1.26-.62-3.58-.62s-3.97-.49-7.58-.39c-3.59.14.24,3.24.88,3.99.62.74.51,1.12-.25.87-.74-.25-3.86-.87-5.21-1.51-1.36-.6-6.45-.94-9.81-.34-3.33.61-5.32,2.33-3.85,5.32,1.5,2.97,7.97,1.5,10.32.73,2.34-.73,2.6-.73,2.47-.11-.14.61-4.82,2.12-5.72,2.12-.43,0-6.42,1.6-13.15,1.74-6.45.15-13.66-1.13-14.51-1.4-1.73-.5-2.48-1.59-2.11-4.45.38-2.84,3.97-2.84,3.97-2.84,0,0-2.47-1-5.2.61-2.75,1.62-2.25,7.57-1.37,8.95.87,1.35.5,3.11-.62,4.97-1.1,1.85-1.72,4.83-.6,7.06,1.1,2.25,6.19,1.11,6.19,1.11,0,0-1.98-.23-3.35-.85-1.36-.64-.37-2.12,0-3.11.39-1.01,1.13-1.25,2.12-1.25s2.85-.89,4.59-1.85c1.73-1.01,7.44-2.77,9.92-3.25,2.47-.51,14.64-2.59,15.64-2.83.98-.27,3.84-.77,3.48-.17-.37.67-1.38.88-2.86,1.65-1.49.74-2.85,3.21-2.85,5.57s1.87,3.6,5.96,2c4.08-1.62,7.19-6.83,8.07-8.08.88-1.25,1.99-4.09,2.6-3.36.62.77.25,1.28.36,2.76.15,1.45,1.14,1.6,2.6.6,1.52-.97,1.63-1.84,2.49-3.08.88-1.28,1.49-2.02,2.24-3,.76-.97,1.11-1.72,1.74-2.23.6-.47,1.24.61,1.48,1.98.24,1.37,1.25.99,2.98-.12,1.71-1.11,3.96-4.72,4.83-5.47.88-.74,3.96-4.08,5.21-3.58,1.24.47,1.49,5.3,1.34,7.06-.11,1.72,1.01.24,1.13-.51.13-.75.88-1.49,2.12-1.72,1.24-.24,1.98-1.99,2.59-2.75.63-.74,2.61-1.62,3.87-1.62s2.09-.47,2.83-1.22c.74-.74,1.87-1.38,3.34-2.25,1.51-.88,8.2-3.32,10.05-3.72,1.04-.2,8.23-1.56,13.83-2.76,4.37-.91,7.52-1.7,7.52-1.7,0,0,6.21,4.97,7.07,5.71.85.75,2.1,1.11,3.47,1.01,1.37-.14,1-.14,2.6.1,1.61.25,2.1.75,3.49,1.87,1.35,1.11,11.27,8.19,14.13,10.06,2.86,1.85,4.61,1.6,6.34,1.35,1.73-.24,3.34,1.24,4.47,2.22.43.41,3.69,1.88,6.53,3.36,4.25,2.08,8.62,4.37,9.59,4.99,1.62.97,3.6,1.85,5.84,1.23,2.22-.61,2.22-.11,2.73.25.24.16,4.31,2.29,7.89,4.41,4.14,2.46,8.02,5.08,10.59,6.13,4.84,2,5.84.61,5.84.61,0,0,16.99,7.81,17.99,8.49.58.34,3.13,1.05,5.21,1.07,1.45,0,2.62-.68,2.97-.51.87.51,2.37,1.51,3.23,1.51s1.49.52,2.84.89c1.38.37,4.35.98,6.07,1.09,1.75.16,4.35,1.24,6.46,1.38,2.1.13,2.37.51,5.59.74,3.22.23,3.48-1.25,3.48-1.25,0,0,4.81.93,8.81.95,5.1.06,9.71-.79,11.05-.95,2.35-.24,3.84-.48,5.56-.6,1.74-.12,4.61-.89,5.33-1.26.77-.36,3.49-.99,4.36-1.25.87-.24,1.98-1.09,2.59-1.63.63-.48,1.75-.6,1.38-1.08-.38-.51-1.74-.37-3.49-.51-1.73-.14-4.21-.14-5.82.51-.79.29-8.16,1.23-14.39,1.81-6.55.57-11.96.79-12.66,1.03-1.37.5-1.24.63-2.24,0-.98-.61-1.47-.89-3.72-.99-2.23-.13-20.72-2.6-21.97-2.83-1.24-.25-2.6-1.14-3.21-1.75-.61-.6-3.73-1.62-5.34-2.11-1.61-.49-13.89-4.49-14.76-4.74-.86-.23-3.85-.6-4.72-2.33-.86-1.75-3.1-2.13-4.34-2.74-1.25-.63-16.99-6.96-18.87-7.33-1.86-.38-1.72-1.25-2.23-2.36-.5-1.13-2.58-1.63-4.69-2.61-2.11-1.01-18-6.97-19.38-7.07-1.36-.13-2.72-1.51-2.84-2.73-.14-1.25-3.1-2.86-4.35-3.47-1.24-.63-10.03-4.61-12.15-5.83-2.1-1.28-6.44-2.39-6.44-2.39,0,0-.3-1.51-1.35-3.04-1.07-1.57-2.87-3.15-2.87-3.15,0,0,2.9-1.28,4.63-2.51,1.79-1.26,2.81-2.79,3.3-3.47.98-1.36,4.11-3.08,5.1-3.23.39-.03,3.4-.07,5.01-2.13,2.43-3.19,3.72-8.97,4.17-10.04.75-1.71,2.11-4.93,3.09-7.8.53-1.48,3.43-7.48,6.05-15.19,2.46-7.2,4.65-16.09,4.86-16.86.51-1.45,2.38-2.45,3.49-2.34,1.11.14,1.75.14,2.61-.37.88-.51,1.86-.61,2.61-.11.75.48,1.36.21,2.61.21s1.24.16,2.72.26c1.49.14,1.87-.74,2.84-1.99.99-1.22,1.62-2.98,3.75-6.05,2.08-3.14,2.73-4.87,4.83-9.1,2.1-4.21,2.46-9.92,2.83-10.68.36-.73.88-1.62,1.61-2.59.76-.98,1,.97,2.39.86,1.34-.12,1.23.62,1.72.76.5.11.86.6,1.36.48s.6.27.98.88c.39.61.88.75,1.75.88.86.11,2.09,1.59,2.58,2.23.53.61.76,2.1.76,2.84s.24,1.85.62,2.49c.37.61.37,3.34.5,4.83.12,1.49.38,4.35,1.23,5.84.38.65,1.92,5.66,6.36,8.35,5.89,3.53,15,4.81,15,4.81,0,0,1.58,2.91,2.96,5.09,2.99,4.72,7.28,11.02,8.55,12.91,1.88,2.73,3.98,7.56,4.34,8.82.19.57,1.45,4.8,3.52,7.6,2.31,3.13,5.49,4.79,6.8,5.17,2.47.78,6.08,2.49,6.81,3.38.75.87,2.98,2.23,5.1,2.59,2.11.38,8.44,3.61,10.8,5.34,2.36,1.75,24.3,13.03,26.18,13.91,1.87.85,5.95,3.58,7.06,3.48,1.11-.13,2.86.38,3.97,1.09,1.12.77,2.74,3.01,2.74,3.01,0,0-.51-3.12-1-3.72-.51-.64-.61-1.62-.61-2.23s.86-2.12,1.62-1.74c.73.36,4.46,3.07,5.94,3.97,1.48.86,4.1,3.08,4.23,2.22.12-.87,1.49-.96,2.09,0,.62.99,1.13,1.12,2.11,1.74,1,.61,4.1,3.97,6.44,4.59,2.37.6,1.13-1.12,1.63-1.5.5-.36.87.65,1.5,1.63.6.98,1.61,2.37,3.95,4.36,2.37,1.96,5.22,3.48,6.33,3.84,1.12.34,1.75.22,2.5.11.72-.11,1.23-.36,1.84-.88.63-.48,0-1.11.25-2.22.24-1.12-.61-.98-.87-2.01-.24-.96-.36-1.34-1.62-1.71-1.23-.37-1.73-2.12-1.73-2.12,0,0,6.56,2.33,11.76,5.2,5.2,2.79,8.68,5.06,10.08,6.24,3.46,2.97,5.33,4.33,4.58,7.33-.74,2.97-3.72-.17-3.72-.17,0,0,1.37,3.76,4.23,2.87,1.49-.43,3.86-4.45,4.09-6.34.25-1.87.62-2.72,1.25-3.32.33-.34,1.83-1.99,2.84-4.37.8-1.92,1.23-4.52,1.12-5.56-.24-2.39-4.47-1.64-4.47-1.64,0,0,2.25.63,2.36,1.98.14,1.42-.99,2.27-1.62,3.49-.61,1.25-8.8-1.09-11.89-1.48-3.11-.39-22.58-8.06-23.58-8.69-.99-.61.38-.88,1.37-.24.98.62,1.49.88,2.98.98,1.47.15,3.58.25,4.7,0,1.12-.23,3.72-1.11,3.72-2.6s-1.11-3.22-2.72-3.72c-.59-.19-3.42-.97-5.85-.93-4.14.08-8.52,1.12-8.92,1.17-.62.14-1.99.98-2.47.74-.49-.23-.25-1.49.37-1.62.62-.1,2.23-.23,2.23-2.1s-2.85-.74-4.34-.5c-1.49.26-6.69.88-7.8,1.15-1.11.22-.76-1.15-.25-2,.49-.88.11-1.26-1.36-1.38-1.49-.11-3.86,0-5.58-.11-1.74-.13-8.19-1.75-8.19-1.75,0,0-.88-1.62-2.73-2.12-.8-.21-2.1-.99-2.73-2.46-.62-1.49-2.48-1.12-3.73-1.23-1.24-.14-4.73-2.13-8.42-4-3.74-1.86-18.26-8.55-20.87-9.41-2.58-.87-9.66-1.62-10.78-2.12-1.11-.5-2.48-1.22-2.87-2.49-.35-1.22.89-1.35.89-1.35,0,0,.92-1.47.67-4.05-.37-3.67-2.08-6.25-2.67-6.86-1.1-1.25-1.97-3.72-2.21-4.73-.25-.98-1.74-4.96-2.12-6.55-.35-1.63-3.21-8.98-3.21-8.98,0,0,19.32.93,38.58.86,17.17-.12,34.45-1.21,35.61-1.33,2.49-.27,13.16-.51,13.16-.51,0,0,11.12-.71,21.35-1.65,13.26-1.28,26.42-2.84,26.42-2.84,0,0,4.58,1.96,8.21,3.42,6.52,2.58,14.13,5.49,15.72,6.26,2.48,1.26,6.45,4.12,7.68,4.77.65.31,4.53,1.88,7.33,2.04,2.54.11,4.09-1.2,4.09-1.2,0,0,2.12.61,3.97-.13,1.02-.4,1.49-.15,3.11.26,1.61.37,6.7.24,8.55,0,1.88-.26,4.21-.75,6.46-.75s13.65,0,18.1.34c4.47.41,14.02-.47,17.38-.57,3.34-.17,5.84-.65,6.69-.79.88-.1,6.72.39,9.31.14,2.6-.23,3.35-.36,4.21-.51.87-.09,5.1,0,6.09-.23,1-.23,3.35.38,4.45.23,1.11-.09,5.46.61,6.6.61s3.46-.47,4.07-.85c.62-.37,2.01-.23,2.88-.11.86.11,1.96.49,1.96.49,0,0-1.1-1.26-1.1-2.77s.98.64,1.73,1.14c.35.23,2.04,1.17,3.25,2.06,1.43.97,2.39,1.96,3.31,2.43,1.74.89,1.51.49,1.25-.5-.23-1,.5-.13,1.25-.27.73-.1,7.57,5.24,8.42,5.11.88-.14,2.13-1.86,2.13-1.86,0,0,1.49,2.59,3.29,4.27,2.63,2.46,6.07,4.43,7.62,5.16,2.61,1.25,2.83-.15,2.83-.15,0,0,3.73.77,1.89-2.6-.57-.97,0-1.34,0-1.34,0,0,5.37,2.05,10.39,4.33,6.12,2.79,12.14,5.89,12.69,6.11.96.37.87.37,1.6,1.35.76.97,3.23,4.96,4.59,4.59,1.37-.37,1.99-1,2.47-3.23.52-2.24.25-3.09.64-4.72.19-.86,2.55-3.96,3.27-6.77,1.04-3.72-.04-5.5-.56-6.27-1.11-1.6-4.34-1.22-4.34-1.22,0,0,2.32.34,2.71,2.07.4,1.83-.96,4.17-1.73,5.23-1.1,1.65-10.54.54-15.87-.11-5.33-.61-16.75-5.2-17.87-5.81l-4.84-2.77s-1.35-.59-2.1-.98c-.75-.38-.99-1.23,0-1.11.99.12,2.22-.12,4.47.88,2.23.98,7.57.23,8.3-.38.75-.61,1.26-2.23-3.46-3.48-4.73-1.22-10.43-.37-11.54.14-1.11.48-2.12.74-2.85.23-.75-.51.5-.6,1.48-2,.98-1.35.39-1.85-2.74-1.85s-4.83,1.12-6.57,1.25c-1.72.1-.99-.51-.76-1.62.27-1.12-1.46-1.22-2.95-1.35-1.5-.13-4.35-.63-6.59-.88-2.23-.26-5.1-1.11-5.69-1.35-.63-.24-.27-1-.27-1,0,0-.6-.51-2.09-.88-1.48-.38-1.98-.12-3.73-.59-1.73-.53-3.58-1.51-5.33-.66-1.73.88-5.82.66-8.44.88-2.61.26-17,.64-18.73.51-.83-.06-8.9-.58-18.1,0-10.16.64-21.54,2.43-22.73,2.73-2.22.62-9.79,2.1-11.78,2.37-1.99.24-2.98-.6-3.49-1.38-.5-.74-1.84-2.09-1.84-2.09,0,0,1.24-.87.86-1.62-.17-.35-.8-1.95-2.62-3.58-2.08-1.86-5.46-3.86-6.19-4.08-1.36-.51-1.36-.89-1.36-.89,0,0,16.59-3.42,30.83-7.57,12.14-3.48,22.26-7.73,22.78-7.83,1.1-.23,3.59-1.49,4.46-1.99.86-.51,3.47-2.01,5.71-2.97,1.23-.54,15.9-6.41,26.4-15.38,8.47-7.25,13.26-17.94,13.4-18.52.37-1.26,1.25-2.47,1.99-2.47s4.09,1.36,4.09.12,0-.75.76-1.11c.75-.4,1.49-.15,2.48.49.98.62,1.37-.25,1.37-.25l-1.5-.98c-.75-.51-1-1.37-.25-1.62.75-.24,1.36-.51,2.98,0,1.61.51,2.23-.51,1.61-.63-.6-.11-1.1-.61-1.23-1.49-.14-.85,1.47-.23,2.23,0,.73.26,1.49-.23.99-.37-.5-.12-.76-.74-.5-1.12.23-.34,1.35.27,1.97.64.64.36,1-.64,1-.64,0,0-.87-.23-1.62-.63-.74-.34-.98-1.32-.61-1.83.37-.51,2.34.23,4.09.51,1.72.23,1.88-.14,1.88-.14,0,0-1.13-.74-2.13-1.59-.99-.88.25-.65,1.61-.51,1.37.11-.13-.77-.74-1.15-.61-.37.61-.85,1.5-.61.86.24,1.47.24,2.48.11.98-.11.24-.34-.62-.57-.88-.27-1.12-.16-1.25-.64-.15-.51,1.49-.88,2.11-.88s1.12-.51,1.86-.6c.75-.14,1.37-.64.87-.74-.51-.15-1.36-.99-.74-1.62.62-.62.98.12,2.48.46,1.48.38,1.23,0,1.23,0,0,0-.74-.85-1.23-1.34-.51-.51-.75-1.36-1.24-1.87-.51-.47.98-.73,1.61-.85.61-.12,1.24.24,2.46.85,1.25.63,1.63-.47,1.63-.47l-1.49-.77s-2.11-.98-2.48-1.6c-.37-.63.61-1.25,1.12-1.25.48,0,1.23-.37,1.48-.87.25-.51-1.11-.14-1.73-.24-.6-.11.37-1.62.99-1.62s1.12,0,1.99-.38c.87-.37.24-.99-.36-1.25-.63-.23-1.39-1.11-1-1.48.37-.37,1.87-.51,1.87-.51,0,0-.87-1.72-1.37-1.99-.5-.24-.74-1.23-1.12-2-.37-.71,0-1.6.49-1.97.51-.36,1.63-.85,2.37-1.62.75-.75,1.11-.48.63-.87-.52-.35-2.37-.63-3.11-.72-.75-.17-1.37-.41-1.87-1.49-.49-1.15-.37-2.15.87-2.5,1.25-.37,1.25-1.37,1.25-1.37,0,0-1.49-.24-2.48-.49-.99-.23-.99-.51-.99-.97,0-.5,3.72-2.49,3.72-2.49,0,0-1.61.74-3.1,1.24-1.48.49-1.86.25-2.73.11-.87-.11-1.12-.6-1.12-1.34s.99-1.49,1.48-2.23c.51-.77-.6-.24-1.23.51-.62.74-1.62.34-2.49.11-.88-.25-.98-.86-.98-1.5,0-.6,1.11-.74.5-1.11-.62-.37-2.85-.37-4.22-.24-1.36.14-1.01-1-.14-1s1.01-.89.51-.98c-.51-.14-1.98.61-2.73.24-.74-.38-.5-1.49.99-1.73,1.48-.26.35-.88-1.11-.99-1.49-.15-2.61-.38-3.59-.38s-1.27-.38-1.12-.88c.11-.51.86-.61,1.22-1.12.4-.47-1.36-.23-1.96.13-.63.38-1.37.65-1.99.25-.63-.38-.39-.61.36-1.1q.75-.51.75-1c0-.51-1.25,0-1.74,0s-1.36,0-1.24-.61c.13-.62.73-.37,1.24-.98.5-.63-1.11-.13-2.47,0-1.37.11-3.34.61-3.97.48-.62-.12-.74-.37-.25-.87.5-.48.25-1.25.25-1.25,0,0-4.45.52-4.72-.21-.32-.98-4.07-9.75-11.41-16.04-9.28-8-22.89-13.68-24.08-14.15-.81-.35-14.85-6.83-28.48-10.22-8.48-2.12-14.54-3.75-22.21-5.08-11.57-2.02-23.11-3.2-23.11-3.2,0,0,.75-2.12,2.73-2.99.72-.32,5.08-2.2,8.3-4.95,3.21-2.76,3.98-5.34,3.12-6.07-.87-.77-.39-.89.24-2,.62-1.14.36-2.02,1.24-2.12.88-.13.99-.85,1.35-1.22.39-.4,5.59-.65,7.71-.27.91.16,7.08,1.3,14.03,1.49,9.22.23,19.81-.45,21.08-.75,2.23-.47,18.24-2.08,19.85-2.08s18.12-1.28,19.47-1.64c1.37-.36,2.83-.36,4.22,0,1.36.36,3.21.75,4.1.14.87-.62,2.59-1.37,3.97-1.37s2.59-.74,2.59-.74c0,0-1.13,0-1.98-.37-.87-.38,0-.64,1.11-1.01,1.11-.38,7.45-.61,9.56-.12,2.11.49,5.21.24,6.33.12,1.12-.12.37-2.23.37-2.23,0,0,3.09.87,5.7,1.51,2.6.6,5.35.6,5.22-.64-.14-1.25-1.49-2.86-1.49-2.86,0,0,3.66,1.83,6.67,2.74,2.83.85,4.95.74,6.47.64,3.11-.24,6.58-1.13,6.34-2.26-.26-1.12-1.51-1.72-4.34-2.83-2.87-1.13-4.59.39-6.09.39s-2.61-.51-2.11-.9c.5-.38,2.11-.85,3.12-1.6.52-.43,11.61-4.23,20.86-6.34,8.07-1.81,14.44-2.01,15.36-2.01,2,0,2.97,1.52,2.97,4.36s-2.48,2.37-2.48,2.37c0,0,2.62.96,3.49,0,.34-.4,1.49-.94,1.51-2.84.05-2.83-1.17-7.38-1.4-8.2-.36-1.36-1.48-1.52-1.48-1.52,0,0,.56-1.78-.74-5.57-1.75-4.97-3.59-4.84-5.2-4.84s-3.12,2.97-3.12,2.97c0,0,2.1-1.85,3.22-1.34,1.12.48,1.62,2.74,1.12,3.58-.18.32-4.28,3.73-8.6,6-8.01,4.15-18.61,8.12-19.57,8.28-1.48.23-.5-1.63-.5-1.63,0,0,1-.1,1.57-.89.47-.65.59-1.89.42-2.58-.37-1.48-2.59-.98-4.7-.61-.97.19-4.91,1.41-7.86,3.39-3.54,2.41-6.04,5.56-6.04,5.56,0,0,.74-2,.25-3.01-.5-1.01-2.36-.13-3.59.75-1.24.89-4.46,1.73-4.96,2.26-.51.47-1.25.71-2.25.71s-.61-1.46-.61-1.46c0,0-1.36.37-3.33,1.35-2,1.01-6.21,2.23-7.84,2.85-1.61.6-2.6.26-2.6.26,0,0,1.88-2.1,2.6-3.12.75-.98.49-1.98-.37-1.45-.86.47-3.21,1.09-3.21,1.09,0,0-1.35-.77-2.22-.77s-5.08.77-6.58,1.5c-1.5.75-11.06,1.64-14.42,1.76-1.79.06-10.01.36-18.62.92-7.35.49-15.36,1.19-15.87,1.28-1.11.27-28.52,3.36-30.89,3.15-2.35-.27-6.57.21-9.66,1.11-3.11.85-5.83.72-5.83.72,0,0-2.52-1.28-4.91-.91-3.6.57-7.7,3-8.75,4.27-1.73,2.1-13.02,7.32-14.15,7.95-.51.26-6.35,2.5-10.85,4.8-5.48,2.87-9.73,5.87-9.73,5.87,0,0-21.8-.95-37.61-1.28-14.22-.32-22.56.06-23.57.06-.64,0-6.43.26-15,.39-6.04.08-13.91-.03-20.48.19-14.77.43-27.04,1.25-27.04,1.25,0,0,0-3.27,1.1-8.14.69-3.19,2.21-7.57,3.23-10.22,2.6-6.7,2.12-8.46,1.74-10.29-.37-1.88-1.74-1.11-2.37-1.11s-.49-1.12.36-2.64c.88-1.47,5.72-1.85,7.34-1.85s5.84-.51,11.05-1.72c5.21-1.26,22.7-7.23,27.8-9.22,5.07-1.96,8.55-1.96,9.66-2.07,1.11-.14,2.1-.64,2.24-1.62.12-1.01.98-1.01,2.1-1.51,1.12-.48,2.61-1.5,2.61-1.5,0,0-.88,0-1.99.27-1.13.24-.51-.64-.51-.64,0,0,3.73-1.48,5.59-2.7,1.86-1.25,7.18-2.13,8.19-2.13s3.46.14,3.46-1.11-1.86-2.6-1.86-2.6c0,0,.38-.27,1.24-.14.88.14,6.6-.37,7.71-.23,1.11.1,2.86.61,3.58-.24.76-.88-.72-2.39-1.47-3.11-.76-.77-2.25-1.51-1.12-1.14.6.21,3.5.53,5.84.67,2,.13,3.38.1,4.7.1,2.83,0,3.12-1.38,3.12-1.38,0,0,2.1-.45,3.45-1.22.98-.57,1.32-1.41,1.38-1.89.12-1.11-.76-2.47-3.37-3.11-2.6-.6-7.31,1.86-8.67,3.11-1.35,1.25-2.86.24-2.11-.34.45-.4,2.41-2.1,4.68-3.56,1.47-.94,3.5-1.75,3.89-2.05.99-.75,4.35-2.12,5.59-3.01.62-.44,3.72-2.19,8.51-3.82,4.32-1.43,10.38-2.76,11.32-2.86,1.99-.24,3.34,2.36,3.49,4.22.12,1.86-2.23,2.4-2.23,2.4,0,0,5.08.71,4.09-4.73-.54-2.97-3.22-6.74-3.98-7.46-.74-.77-1.1-.87-1.1-1.99s-.76-1.87-1.5-3.61c-.74-1.71-2.37-3.6-4.83-2.96-2.49.6-2.74,3.84-2.74,3.84,0,0,1.26-2.59,2.98-1.99,1.06.37,1.25.98,1.35,1.99.15,1-3.71,4.22-4.96,5.2-.41.35-4.46,3.64-7.29,5.49-5.38,3.57-11.32,7.31-11.32,7.31,0,0,1.13-1.62,1.52-2.92.18-.77.1-2.17.1-2.42,0-.74.5-1.38-.51-2.36-.96-.98-3.33-.51-4.7.51-.5.34-3,1.96-4.42,3.63-2.66,3-4.65,6.66-4.65,6.66,0,0-1.25-.97-2.36-.23-1.11.74-3.97,3.58-4.59,4.2-.62.6-2.61,2.25-2.47,3.13.11.85-.25,1.34-1,1.34s-1.26-1.85-1.26-1.85c0,0-1.73,1.22-2.72,2.47-1,1.25-5.95,5.34-7.56,6.96-1.63,1.6-1.37-.37-1.5-1.11-.13-.78-.5-.78-.74-1.49-.25-.75.24-1.26,1-2.13.74-.87,1.24-3.48,1.24-3.48,0,0-2.73,2-3.62,2.84-.85.88-9.29,3.88-10.77,4.75-.82.45-12.94,4.97-23.53,8.97-8.86,3.35-16.31,6.27-18.28,6.91-4.35,1.35-9.07,3.61-10.91,5.35-1.88,1.72-4.62,2.23-6.71,2.97-.77.26-3.67,1.7-5,3.37-2.35,2.94-3.24,6.85-3.57,8.43-.12.66-1.29,3.92-2.87,7.08-2.11,4.2-5.03,8.86-7.24,13.23-2.44,4.83-3.53,7.65-3.53,7.65,0,0-7.08,1.45-8.57,2.07-.71.32-4.9,1.58-7.62,3.27-2.97,1.86-4.47,4.19-4.91,4.56-.88.75-2.6,5.34-2.6,6.08s-.99,3.35-.99,4.36-.88,10.03-.99,10.92c-.12.88-2.37,2.59-2.86,3.1-.48.51-2.85,1.86-3.97,2.24-1.11.37-3.72,1.5-3.72,1.5,0,0-1.28-5.56-3.34-11.39-1.22-3.38-3.63-8.23-3.86-8.48-.6-.76-1.85-1.98-2.35-3-.5-.97-.99-2.74-2.48-4.21-1.47-1.5-2.73-.99-5.09-.99s-3.34-.26-3.97.12c-.61.36-1.85,0-2.58-.51-.76-.49-1.63-.49-2.63.13-.97.64-3.36-.49-3.72-1.49-.37-.97-1.36-1.34-2.22-.85-.89.47-1.74.72-2.75-.4-.98-1.11-2.34-.75-2.61.27-.22.97-2.08.51-2.08.51,0,0,.38-.8-.45-2.55-1.34-2.82-4.28-7.38-5.28-9.38-.62-1.28-2.22-4.72-5.17-9.34-2-3.16-4.11-5.69-6.19-8.72-2.57-3.8-4.93-7.77-5.26-8.25-.97-1.52-4.33-6.49-5.94-7.58-1.62-1.11-3.12-1.74-4.09-.87-1.01.87-4.47-.38-5.85-2.23-.66-.94-2.18-2.12-4.56-3.11-2.39-1.01-5.61-1.75-5.61-1.75,0,0,7.21-5.82,9.06-6.96.65-.38,3.02-1.43,4.04-2.63,1.84-2.18,2.4-4.81,2.4-4.81,0,0,3.11-.97,5.47-2.23,1.93-1.01,6.83-3.85,11.05-6.11,4.21-2.21,4.71-3.56,5.83-5.45,1.1-1.85,3.36-2.45,4.83-2.96,1.5-.52,6.34-3.86,8.32-4.63,2-.72,10.19-5.92,10.91-6.94.75-.97.75-2.46,2.6-2.73,1.88-.23,6.71-3.21,8.46-4.2,1.73-1,12.76-6.85,13.52-8.84.74-1.99,4.09-1.85,5.21-2.23,1.11-.36,6.83-3.08,13.89-5.83,7.07-2.74,5.35-3,5.96-3.74.61-.75,1.71-1.11,3.33-1.11s8.09-1.98,9.21-2.23c1.11-.27,9.31-2.36,10.29-2.23.99.11,1.72-.98,2.84-1.25,1.13-.26,1.99-1.85,1.99-1.85,0,0,1.25-.14,2.98,0,1.73.11,7.18-1.14,9.18-1.36,2-.25,2.35-.51,3.6-.77,1.24-.23,2.98-.61,4.58-.61s2.86-.74,4.98-.87c2.11-.14,2.35-.14,3.57-.75,1.26-.6,2-.6,3.12-.99,1.12-.36,2.09-.14,2.97-.36.87-.24,2.01-1.14,2.11-2.12.12-.97-.74-1.48-1.74-1.86-.97-.36-4.34-.73-6.81-.73s-7.2,1.33-8.93,1.33M122.08,287.56c5.8.97,13.19-2.19,13.19-2.19,0,0,1.86.17,2.35-.47.5-.61,2,.63,2.84,1.24.89.62,1.25,1.5,1.25,2.25s-.49,1-1.11,1.85c-.62.88-2.21,2.6-3.1,3.11-.88.5-2.85.74-3.85,3.24-1,2.46-.88,4.55-.14,6.19.74,1.62,1.25,2.35,2,3.6.74,1.25,1.11,1.75,1.85,2.6.75.88,2.12,0,2.84.88.75.89,2.12,1.97,3.1,2.34,1,.37,6.35,1.88,7.22.88.86-.97,3.1-1.25,4.21-.61,1.12.61,1.87,1.62,2.98,1.62s3.35-.25,4.34.15c1,.36,2,.22,2.85-.15.88-.36,1.87-1.22,2.74-1.13.86.13,2.85.51,3.23,1.13.36.61,3.34.59,3.85-.25,1.11-1.86,3.22-1.49,3.22-1.49,0,0-2.5,11.91-3,15.16-.48,3.21-1.24,12.41-2.98,16-.95,2.02-2.97,7.06-3.28,10.53-.23,2.77,1.19,4.26,1.19,4.26,0,0,.74.88.51,2-.26,1.11-.26,2.46-2.37,3.11-2.12.6-3.71.6-5.09.13-1.37-.53-8.07.1-8.07.1l-2.23-1.11s-.28-2.57-1.66-4.7c-1.46-2.26-4.02-4.03-4.79-4.36-1.49-.6-6.69-4.95-7.33-5.84-.62-.86-4.34-2.24-4.34-2.24,0,0,.14-2.73-1.21-5.35-.8-1.58-2.98-3.32-3.62-3.83-.61-.51-3.05-2.52-4.77-4.14-3.14-2.93-6.01-5.92-6.01-5.92,0,0,.02-2.34-1.39-3.81-1.36-1.42-4.14-1.96-4.59-2.14-.86-.38-1.85-.88-1.1-1.49.37-.32,1.42-2.46.63-5.07-.83-2.72-3.54-5.89-4.1-6.72-1.12-1.62-3.73-5-4.84-7.83-1.13-2.87-.98-4.6-1.49-6.72-.5-2.09-.89-4.56-.61-5.45.23-.85-.37-1.86-.37-1.86l9.77-3.85s4.88,5.26,11.28,6.38m-54.18-37.01c-.42.24-.5-1.64-.1-1.64s1,1.06.1,1.64m-1.26-1.74c-.49.34-.65-1.23,0-1.23s.51.91,0,1.23m-1.71-1.37v2.47s-.62-1.62-.77-2.25c-.08-.51.77-1.62.77-.22m-2.49-.75c.12,1.35.12,2.08,0,2.6-.13.51-.99,1.35-.99.51s-.36-3.24-.36-3.24c0,0,1.23-1.25,1.35.14m6.45-32.29c-.37,1.72,0,4.49.38,2.24.36-2.24,1.99-2.85,1.75-1.87-.26,1.01-.89,2.61-.26,2.61s1.49-1.6,2.11-1.73c.6-.13-.24,1.23-.24,1.85s.59.38,1.23-.36c.62-.75.99-.75.38.74-.63,1.49.97,4.09,1.48,1.49.5-2.6,2.24-3.72,2.1-2.12-.12,1.65.39,1.48.99.88.62-.62,3.49,0,2.48.26-.99.24-2.97.51-1.86.98,1.11.51,2.86.89,1.49,1.11-1.36.23-2.23.74-.98,1.01,1.23.21,2.36.88,1.61.98-.75.11-1.12.85-.13.99.98.12-1.38.85.49,1.36,1.88.48,4.23,1.36,2.23,1.72-1.96.38-2.72.75-2.1.89.62.14.15.99-.87.99s-1.86.25-.87.59c.99.4,3.24.89,1.61,1.14-1.61.25-2.73-.25-2.47.37.24.61,3.86.51,2.11,1.12-1.73.61-3.22.75-3.22.75,0,0,5.82-.27,4.59.23-1.24.51-.51.74.5.85,1,.17,2.97.64,1,.77-2.01.11-3.24.11-2.11.49,1.11.39,3.34.62,2.11,1.13-1.26.49-2.23.24-1.88.75.38.51,2.62,1.01.51,1.25-2.11.21-3.6.37-2.61.73.99.36,1.61-.25,1.98.76.39.98.63,1.72.25,2.45-.36.76.14,1.87-.87,2.12-.99.25-1.49,0-1.49-.73,0-.77-.36.98-.99.48-.61-.48-1.84-1.36-1.61-.61.25.75-.38,1.86-.74,1.01-.37-.88-.75-.88-1.11-.26-.38.6-.64.48-1.76.26-1.1-.26-1.46.49-2.61.85-1.1.37-2.1.37-2.46-.63-.37-.98-1.11,0-1.98-.87-.88-.86-1.73-2.45-3.23-2.83-1.49-.4-3.47,0-4.1-1.51-.6-1.45-2.84-6.68-3.48-7.83-.61-1.09-.36-1.46-2.23-1.72-1.85-.25-4.21-.37-4.07,2.87.11,3.2,1.72,5.34,2.35,6.2.63.89,3.1,2.21,4.1,2.72.99.5,1.97.89,1.48,1.49-.49.62-.49,2.37.23,2.73.75.38,1.51.77,1.39,1.53-.15.72.12,1.34-1,1.7-1.11.38-1.48,1.14-1.48.15s-.14-2.73-.62-2.12c-.51.64-1.75.74-1.61-.11.11-.88,0-2.26-.62-1.65-.63.64-1.37,1.27-1.37-.47s-.24-2.98-.88-1.87c-.61,1.12-1.35,2.74-1.61,1.72-.25-.99-.13-1.22,0-2.46.13-1.28-.13-2-.5-1.49-.36.51-.87.51-.51-.64.38-1.11-.87,1.87-1.47.86-.64-.94-.99-1.32-.64-2.34.38-1.01-.96.25-1.72-.37-.74-.64-.11-1.22-.99-2-.87-.73-1.73-.95-2.47-1.08-.75-.16-1.86-.16-2.48.35-.62.5-.99,1.24-2.1,1.24s-1.35,0-2.01-.74c-.6-.72-2.72-1.38-2.96-.14-.25,1.26-.73,2.26-1.48,2.37-.76.11-3.98.98-4.72-.11-.74-1.11-2.11-2.84-2.72-4.12-.62-1.26-2.11-3.21-2.11-3.21,0,0,1.74-3.23,3.35-3.1,1.62.14,3.7.73,4.08,1.48.39.74,1.51,2.34,2.37,1.35.88-.99,2.24-1.98,2.85-1.59.62.34.74,1.23,1.73,1.59.98.41,3.98-.36,4.72-1.98.73-1.6,2.09-2.61,2.48-1.98.36.61,1.11,2.11,1.61,2.6.5.51.5-.75.12-1.48-.38-.74-1.36-1.25-1.24-2.24.12-1,.98-3.37,1.48-1.37.5,2.03,1.87,4.34,1.87,2.99s-1.24-2.62-1.24-3.5,1.11-1.49,1.48-.23c.37,1.23.49-.37-.24-1.6-.76-1.24.24-2.77.61-.78.38,2.01,1.85,3.6,1.85,3.6,0,0-1.47-4.44-1.61-5.32-.13-.88,1.25,0,1.75,1.62.5,1.6.98,3.08,1.73,3.59.73.51,1.11-.37.12-2.37-.99-1.96-1.49-3.2-1.25-3.83.25-.62.89-1.88,1.13.49.23,2.37,1.61,3,1.61,1.99s.25-1.25.38-2.47c.11-1.24,1.11.99,1.47,1.6.38.65,1.61,1.76,1.25-.88-.37-2.6.74-2.94,1.13-4.19.37-1.28,1.25-1.65.86.34-.37,2,.74,3.51.62,2-.14-1.45-.39-3.98.5-3.98s.36,1.26.51,2.25c.12.98.72,1.63.86,0,.14-1.63.99-3.85,1.72-2.74.76,1.11.64,1.63.88,2.85.25,1.24,1.12.87,1.37-.12.24-.99.86-.88.86-.13,0,.71,1.4.32,1.55-.4.05-.24.06-.35.06-.08,0,.03-.04.06-.06.08-.06.53-.09,1.7.06,2.26.26.88.99-.75,1.13-2.23.12-1.49,1.36-2,.98-.24m-1.61-3.35s0,1.35-.63,2.21c-.6.89-.49.14-.35-1.09.11-1.24.98-1.12.98-1.12m77.42-112.73c.86.26,2.86.6,3.59,2.35.73,1.74.26,2.73.26,2.73,0,0-3.36,3.14.25,7.83,3.57,4.73,6.94,8.58,8.17,13.28,1.25,4.73,6.58,18.28,6.58,18.28,0,0-2,.11-3.11-.27-1.11-.37-2.1-.88-3.34-.37-1.25.52-1.14.75-2.37.64-1.24-.13-1.85-.5-3.35.38-1.49.84-1.23,1.34-2.58,1.11-1.39-.27-3.97-.77-5.73.36-1.72,1.13-1.85,1.86-3.1,2-1.24.11-2.24.11-3.23,1.36-.97,1.25-1.6.97-2.6,1.34-.98.37-1.61,1.76-2,2.87-.35,1.11-1.72,3.1-1.09,6.69.62,3.6,1.84,4.96,3.09,5.34,1.26.37,3.86,1.62,4.48,2.59.61,1.01.61,2.13-.23,2.61-.89.52-1.76.89-2.5.77-.74-.14-1.87-.37-3.35-.37s-4.11.6-4.84.23c-.32-.15-5.8-2.25-11.86-.59-6.96,1.87-10.98,7.79-10.98,7.79,0,0-6.57-1.85-7.56-1.97l-3.71-.51s.24-1.74.24-2.85-.38-1.13-.51-3.38c-.12-2.21.75-11.02,1.63-12.27.3-.45.96-1.88,2.36-4.77,1.16-2.36,3.08-6,3.65-8.39.62-2.58-1.05-5.72-1.05-5.72,0,0,3.26-.63,5.1-2.45,1.49-1.42,1.6-4.11,1.6-4.11,0,0,3.97-4.85,5.08-6.35.77-1,6.49-4.91,9.24-8.33,1.21-1.57.75-4.01.82-4.33.25-.99.62-1.84,1.61-2.24.67-.24,4.53-3.96,7.55-6.6,1.45-1.29,3.36-2.56,3.36-2.56,0,0,4.73-.64,5.85-1.12,1.12-.5,3.72-1.27,4.59-1.01"/>
  </g>
</svg>