<?xml version="1.0" encoding="UTF-8"?>
<svg id="Layer_2" data-name="Layer 2" xmlns="http://www.w3.org/2000/svg" viewBox="0 0 585.51 654.5">
  <defs>
    <style>
      .cls-1 {
        fill:#808080
      }
    </style>
  </defs>
  <g id="Layer_1-2" data-name="Layer 1">
    <path class="cls-1" d="m17.1,348.43c13.4-9.43,24.58-16.72,34.01-30.26,6.82-9.74,10.94-20.74,19.95-28.89,7.62-6.88,17.03-10.02,25.54-15.38,24.03-15.35,40.92-43.27,70.95-47.75,13.51-2.04,12.36-12.9,19.47-21.76,7.92-9.68,10.73-24.17,15-35.73-15.65-16.2-25.68-34.42-38.88-52.11-7.15-9.7-12.63-20.63-20.33-30.05-7.81-9.27-17.55-16.31-25.83-24.79-5.26-5.27-30.16-22.71-22.08-32.87,3.85-5.13,16.34,2.66,20.35,4.63,8.15,4.07,15.57,9.54,21.98,15.99,11.14,10.99,27.21,14.27,35.62,28.44,7.92,13.06,9.14,28.78,11.88,43.52.69,4.11,17.07,37.46,21.26,34.35,9.79-7.18,19.82-13.88,30.88-19.04,8.42-3.95,26.07-13.54,35.18-12.29-28.37-3.77-79.52-28.14-45.77-60.88,9.09-8.79,19.82-10.52,31.48-14.52-7.89-2.82-12.75-10.56-18.51-15.92-5.99-5.59-13.18-15.13-21.59-16.74-5.77-1.25-15.46-1.07-19.39-5.95-4.38-5.36-.78-11.2,5.96-10.36,16.79,2.09,33.3,14.61,45.33,25.42,1.87,1.68,17.99,22.08,18.33,22.08,16.76-1.96,33.04-4.52,49.73,0,.32.07,16.48-20.4,18.35-22.08,12.21-10.81,28.54-23.33,45.23-25.42,6.82-.84,10.55,5,5.96,10.36-3.91,4.89-13.4,4.7-19.3,5.95-8.38,1.61-15.56,11.15-21.52,16.74-5.82,5.36-10.81,13.11-18.47,15.92,11.54,4,22.18,5.72,31.41,14.52,33.8,32.74-17.31,57.11-45.73,60.88,9.1-1.25,26.65,8.34,35.11,12.29,11.04,5.16,20.98,11.86,30.85,19.04,4.19,3.11,20.63-30.24,21.33-34.35,2.81-14.74,4.01-30.46,11.79-43.52,8.52-14.17,24.5-17.45,35.7-28.44,6.43-6.45,13.9-11.93,21.92-15.99,4.01-1.98,16.56-9.77,20.6-4.63,7.8,10.15-17.06,27.6-22.16,32.87-8.38,8.47-18.25,15.52-25.93,24.79-7.69,9.43-12.99,20.35-20.32,30.05-13.22,17.69-23.21,35.91-38.79,52.11,4.16,11.56,6.85,26.06,14.83,35.73,7.15,8.86,6.04,19.72,19.54,21.76,30.04,4.48,46.92,32.4,70.87,47.75,8.64,5.36,18.07,8.5,25.55,15.38,9.03,8.15,13.22,19.15,19.97,28.89,9.53,13.54,20.67,20.83,34.09,30.26,3.46,2.41,27.68,14.92,11.48,18.31-14.9,3.05-31.65-7.36-42.95-15.65-14.08-10.45-22.52-26.15-32.3-40.23-9.38-13.43-28.44-17.54-40-29.19-7.8-7.77-13.58-17.4-21.97-24.42-8.62-7.27-19.27-11.52-28.64-17.83,13.78,41.18,28.15,82.19,41.71,123.33,5.82,17.42,11.12,35.25,14.95,53.27.63,2.5.78,4.91.94,7.56,1.38,13.27,17.89,19.99,24.62,30.15,8,11.61,14.84,21.87,25.46,31.51,9.22,8.49,16.46,19.76,20.39,31.73,2.74,8.61,6.8,31.53-5.04,35.96-7.47,2.82-8.4-24.58-9.49-26.96-3.36-6.88-4.68-15.59-8.66-21.92-3.67-6.27-11.26-8.81-17.34-11.88-7.29-3.75-14.27-8.65-20.78-13.36-1.12,17.76-2.24,35.39-3.5,53.13-1.09,18.24,1.04,36.57,1.04,54.95,0,15.2,2.34,41.34-12.03,51.39-13.02,9.04-23.39-11.7-27.44-20.79-21.59-46.11-27.84-97.11-33.48-147.2-2.66-23.85-3.12-48.11-8.54-71.72-3.54-15.56-7.23-31.12-10.88-46.86-1.05-4.52-2.09-9.06-3.12-13.7,5.15,22.65,3.33,46.73,4.39,69.76,3,59.29-6.69,120.9-32.78,174.51-7.37,15.29-16.4,29.71-25.1,44.34-7.45,12.97-19.68,26.08-35.39,27.74-18.56,1.84-29.76-13.56-38.08-27.74-8.5-14.63-17.58-29.05-24.95-44.34-26.13-53.61-35.77-115.22-32.8-174.51,1.25-23.03-.73-47.11,4.45-69.76-1.05,4.63-2.16,9.18-3.2,13.7-3.67,15.74-7.29,31.3-10.94,46.86-5.26,23.6-5.83,47.86-8.51,71.72-5.58,50.09-11.9,101.09-33.3,147.2-4.27,9.09-14.54,29.83-27.48,20.79-14.24-10.04-12.16-36.19-12.16-51.39,0-18.38,2.14-36.71,1.04-54.95-1.11-17.74-2.4-35.37-3.38-53.13-6.51,4.71-13.54,9.61-20.75,13.36-6.17,3.07-13.72,5.61-17.57,11.88-3.86,6.33-5.08,15.04-8.6,21.92-1.03,2.38-1.97,29.78-9.43,26.96-11.81-4.43-7.68-27.35-5.04-35.96,3.75-11.97,11.14-23.24,20.51-31.73,10.47-9.63,17.45-19.9,25.36-31.51,6.83-10.15,23.27-16.88,24.6-30.15.28-2.66.37-5.07.81-7.56,4.01-18.01,9.22-35.85,15.05-53.27,13.65-41.14,27.96-82.14,41.61-123.33-9.27,6.32-19.84,10.56-28.49,17.83-8.5,7.02-14.22,16.65-21.88,24.42-11.59,11.65-30.7,15.77-40.09,29.19-9.83,14.09-18.21,29.78-32.34,40.23-11.26,8.29-28.08,18.7-42.97,15.65-16.24-3.38,8.07-15.9,11.56-18.31h0Z"/>
  </g>
</svg>