<?xml version="1.0" encoding="UTF-8"?>
<svg id="Layer_2" data-name="Layer 2" xmlns="http://www.w3.org/2000/svg" viewBox="0 0 350.05 654.5">
  <defs>
    <style>
      .cls-1 {
        fill:#808080
      }
    </style>
  </defs>
  <g id="Layer_1-2" data-name="Layer 1">
    <path class="cls-1" d="m344.95,548.1c-.55-.64-1.26-1.24-1.9-1.71-11.13-8.24-31.18,3.11-42.01-6.04-9.25-7.94-4.67-11.16-1.2-21.3,7.9-22.48,22.07-46.05,3.6-66.67-7.71-8.67-16.25-13.57-20.26-24.53-3.77-10.34-4.32-22.82-5.48-33.7-.53-4.43-7.52-53.4-4.05-54.79,13.45-3.9,27.32-7.98,40.53-11.9-6.04,7.79-23.83,21.78-25.37,31.22-2.37,16.21,30.13,30.27,41.49,34.17,20.62,7.06,15.69-9.61,2.78-17.54-6.45-3.96-16.21-8.28-23.49-5.28,10.81-18.41,32.89-49.2,4.5-63.57-7.3-3.71-14.79-3.85-22.78-2.68-2.96.49-27.68,9.06-28.39,8.24-4.65-6.4-9.44-12.72-14.22-19.06,15.97-4,55.97-7.39,55.09-29.91-.49-13.79-13.15-30.15-20.6-41.51-1.67-2.59-6.45-4.2-8.61-6.55,7.22-3.55,16.16-5.89,22.74-11,21.28-16.29-7.36-19.74-19.25-14.34-9.55,4.3-29.23,17.02-24.51,30.27,3.77,10.81,37.58,23.72,33.92,35.95-3.51,11.93-35.84,1.33-44.73,1.33,1.37-12.61,1.71-24.58-2.4-36.83-1.42-4.35-9.81-7.92-11.88-13.9-4.18-12.05-.98-19.74-11.11-29.18-5.93-5.67-17.56-8.69-20.34-17.21-1.44-4.63,1.91-12.48,3.19-16.83,3.43-11.82,8.99-23.06,12.81-34.75,7.73-23.98,20.81-59.07,39.27-76.61,7.11-6.83,25.84-12.14,25.07-24.32-.94-13.98-22.12-5.16-28.97-1.03-19.87,11.8-25.73,34.45-32.63,54.88-7.86,23.19-16.57,46.18-24.43,69.37-1.22,3.62-8.46,32.44-10.53,32.44h-11.58c-2.06,0-9.17-28.82-10.45-32.44-7.97-23.19-16.59-46.18-24.51-69.37-6.91-20.43-12.78-43.08-32.57-54.88-6.79-4.13-28.09-12.95-28.97,1.03-.75,12.18,17.94,17.49,25.05,24.32,18.41,17.54,31.41,52.63,39.31,76.61,3.75,11.69,9.21,22.93,12.74,34.75,1.35,4.35,4.69,12.2,3.19,16.83-2.74,8.52-14.35,11.54-20.28,17.21-10.17,9.44-6.89,17.13-11.16,29.18-2.06,5.99-10.43,9.55-11.9,13.9-4.11,12.25-3.68,24.22-2.36,36.83-8.93,0-41.19,10.6-44.73-1.33-3.68-12.23,30.11-25.14,33.96-35.95,4.71-13.25-15.01-25.97-24.56-30.27-11.86-5.4-40.4-1.95-19.23,14.34,6.61,5.1,15.54,7.45,22.63,11-2.05,2.35-6.87,3.96-8.5,6.55-7.37,11.35-20.15,27.72-20.62,41.51-.75,22.52,39.2,25.91,55.05,29.91-4.73,6.34-9.46,12.67-14.24,19.06-.6.83-25.24-7.75-28.35-8.24-7.94-1.16-15.39-1.03-22.74,2.68-28.26,14.37-6.3,45.16,4.5,63.57-7.32-3-17.06,1.32-23.47,5.28-12.85,7.93-17.84,24.6,2.78,17.54,11.32-3.9,43.89-17.96,41.34-34.17-1.41-9.44-19.2-23.44-25.18-31.22,13.23,3.92,27.02,7.99,40.49,11.9,3.42,1.39-3.53,50.36-3.98,54.79-1.29,10.88-1.8,23.36-5.57,33.7-3.92,10.96-12.53,15.86-20.28,24.53-18.39,20.62-4.17,44.19,3.53,66.67,3.57,10.13,8.16,13.36-1.11,21.3-10.81,9.16-30.87-2.19-41.98,6.04-.65.47-1.35,1.07-1.93,1.71-16.06,17.55,9.96,20.94,21.33,17.32,1.18-.36,22.59-7.09,22.59-7.09l17.84-9.5c-2.42,1.22,1.28,28.41,2.03,32.14,6.94,36.31,35.71,62.77,70.78,68.99,33.25,6.01,80.46,9.63,108.44-13.1,14.97-12.24,29.44-36.83,33.06-55.9.79-3.74,4.47-30.92,2.01-32.14l17.86,9.5s21.41,6.74,22.52,7.09c11.35,3.62,37.49.23,21.39-17.32h0Zm-280.5-36.25l-18.95-35.61,20.15-1.22-1.2,36.83h0Zm219.99-36.83l20.23,1.22-19.05,35.61-1.18-36.83h0Z"/>
  </g>
</svg>