<?xml version="1.0" encoding="UTF-8"?>
<svg id="Layer_2" data-name="Layer 2" xmlns="http://www.w3.org/2000/svg" viewBox="0 0 508.28 654.5">
  <defs>
    <style>
      .cls-1 {
        fill:#808080
      }
    </style>
  </defs>
  <g id="Layer_1-2" data-name="Layer 1">
    <path class="cls-1" d="m503.31,436.69c-6.14-7.78-12.85-9.06-16.77-9.87-3.14-7.17-10.67-5.67-20.44-6.31.27-1.14.4-2.28.17-3.33-1.27-6.17-5.41-4.96-10.69-12.7-5.64-8.25-13.69-24.64-19.43-40.04-5.4-14.49-8.91-30.81-19.87-37.42-.32-1.21-.71-2.19-1.23-2.63-4.46-3.84-14.07-2.54-23.79-.14-3.94.97-7.91,1.74-12.28,2.44.08-6.58.08-13.03-.08-18.98,5.74-10.4,13.17-16.68,12.4-26.39-.81-10.13-19.99-22.39-30.78-26.39-8.31-3.06-22.71-11.08-33.29-18.08,7.5-6.37,13.36-11.06,19.56-15.15,8.35-5.54,15.48-12.83,16.68-18.59.08-.4.11-.83.1-1.26,4.28.29,10.13,1.03,16.53,2.76,12.8,3.47,43.59,11.21,46.69,9.79,2.84-1.29,4.48-4.23,5.1-7.55,9.4-.83,22-5.89,27.01-8.8,5.5-3.2,11.83-4.5,17.18-3.89,5.36.63,9.78,3.14,10.5,1.71.71-1.43-9.29-12.42-16.54-13.39-7.26-.99-12.03,1.38-15.62,3.16-8.06-4.33-13.51,4.32-24.38,10.28-.61-.98-1.33-1.86-2.23-2.49-3.59-2.52-9.51.51-18.11,1.61-9.91,1.29-20.03.08-28.6-1.86-8.21-1.84-13.21-3.64-25.71-2.06-2.94-1.12-6.31-.81-9.45,2.29-6.32,6.2-18.37,21.74-30.24,35.12-3.32-2.44-7.24-5.27-10.33-8.14-9.41-8.8-17.01-7-18-12-.67-3.35-1.2-9.79-.8-16.58.13-2.34-.65-3.85-1.75-4.85,3.37-45,28.3-89.57,30.82-95.82,2.21-5.5,1.01-10.72,1.01-10.72,0,0,4.92-3.22,6.52-4.91,3.81-4.07,8.79-15.82,11-21.32,1.28-3.17,4.2-6.91,1.91-9.8,2.5-.32,6.74-5.42,8.89-8.29,5.62-7.61,15.59-19.05,18.75-26.38,3.15-7.29-4.12-12.21-10.26-8.37-5.09,3.2-18.38,23.52-21.12,27.98-2.72,4.42-2.29,11.77-2.29,11.77,0,0-3.74-.41-6.47,2.23-2.71,2.65-10.62,18.44-12.47,22.89-1.83,4.45-2.57,6.59-1.03,11.62-8.62,3.28-14.64,21.9-20.43,43.17-5.76,21.14-11.04,45.27-11.1,65.28-.13.11-.29.17-.38.3-1.62,1.99-4.01,3.2-6.02-1.59-1.98-4.8-8.93-11.08-17.3-11.33-9.35-.26-16.27,4.81-16.82,9.6-.55,4.93-3.02,4.86-4.74,2.93l-.22-2.34c-2.63-20.99-13.51-46.7-24.18-68.59-9.65-19.85-19.02-37.02-28.1-38.62.57-5.24-.56-7.19-3.2-11.21-2.64-4.02-13.35-18.08-16.51-20.19-3.16-2.09-6.78-.99-6.78-.99,0,0-.93-7.29-4.44-11.12-3.52-3.84-20.35-21.36-25.95-23.55-6.75-2.65-12.97,3.55-8.53,10.12,4.47,6.63,16.39,16,23.35,22.44,2.64,2.42,7.74,6.64,10.27,6.47-1.71,3.28,1.84,6.38,3.7,9.29,3.22,5.01,10.29,15.61,14.79,18.87,1.88,1.38,7.31,3.65,7.31,3.65,0,0-.19,5.33,3.01,10.33,3.75,5.86,38.5,47.29,49.16,92.45-2.01.67-3.8,2.44-3.6,5.93.41,6.79-.93,12.79-2.11,15.99-.61,1.56-4.99,3.14-8.01,10.41-3.5,8.38-12.1,8.81-23.83,13.44-13.69-11.4-27.88-24.91-35.01-30.08-3.58-2.6-6.96-2.41-9.7-.87-12.6.31-17.29,2.84-25.11,5.89-8.2,3.18-18.03,5.9-28.01,6.12-8.66.18-14.98-1.93-18.18,1.11-.78.75-1.34,1.73-1.8,2.78-11.63-4.27-18.33-12.02-25.67-6.51-3.79-1.22-8.85-2.86-15.9-.81-7.06,2.05-15.27,14.4-14.36,15.71.94,1.31,4.91-1.83,10.13-3.24,5.21-1.4,11.64-1.06,17.55,1.28,5.42,2.12,18.6,5.26,28.04,4.67,1.11,3.18,3.16,5.84,6.15,6.69,3.29.95,32.58-11.29,44.72-16.64,6.08-2.68,11.76-4.27,15.94-5.2.06.44.16.86.29,1.24,2.03,5.51,10.18,11.68,19.28,15.89,5.65,2.62,11.07,5.67,17.61,9.62-5.46,4.28-7.47,7.84-20.52,11.68-11.04,3.26-34.11,21.31-34.65,29.84-.63,9.74,8.53,15.47,9.18,25.99-.21,7.35-.17,15.33-.04,23.55-4.4-.72-8.44-1.49-12.4-2.46-9.73-2.41-19.32-3.71-23.77.12-.52.44-.91,1.44-1.23,2.64-10.96,6.62-14.48,22.92-19.87,37.41-5.75,15.42-13.82,31.79-19.43,40.04-5.27,7.75-9.41,6.53-10.69,12.71-.23,1.05-.12,2.17.16,3.35-9.76.65-17.29-.88-20.44,6.29-3.92.82-10.63,2.11-16.78,9.87-8.02,10.13-4.39,23.16-2.44,23.19,1.95.02-.62-6.3,6.22-13.45,4.53-4.72,11.59-3.51,17.08-7.04,5.3-.73,16.68-3.94,24.66-8.46,2.83,1.64,5.91,2.29,8.5,1.05,9.07-4.38,16.42-33.72,20.57-48.97,4.93-18.16,7.62-29.97,16.33-39.15,1.19,1.14,2.56,2.09,4.38,2.51,7.13,1.66,18.54.06,29.56-1.56.52,18.71,1.11,37.28.43,51.52-.76,15.86-.52,36.46,1.63,57.55-9.12-.2-16.22-.59-23.24-1.55-9.92-1.37-19.61-1.68-23.64,2.6-.77.82-1.96,2.01-1.95,4.52-.51-.6,0,0,0,0-15.77,21.57-20.16,73.84-22.32,90.15-2.14,16.3-5.71,31.27-9.34,40.57-3.39,8.72-7.34,9.89-8.12,15.69-.27,1.77.54,3.68,1.95,5.51-10.15,1.56-18.17.23-20.9,7.86-3.84,1.09-10.46,2.84-16.04,11.02-7.28,10.68-2.73,23.42-.79,23.31,1.93-.12-1.08-6.25,5.26-13.84,4.17-5.06,11.31-4.33,16.53-8.27,6.17-1.28,20.69-6.64,27.82-12.98,2.48.33,4.71-.13,6.01-2,8.05-11.63,5.63-33.58,8.03-49.19,3.81-24.87,10.38-73.1,19.6-92.4,1.05.59,2.22,1,3.54,1.17,9.64,1.21,26.12-4.03,39.5-7.17,1.1,7.39,2.42,14.72,4.07,21.79,1.6,6.79,5.61,9.6,5.61,9.6,0,0,3.46,20.92,10.12,29.72,2.33,3.05,5.47,1.84,5.47,1.84,0,0,7.06,19.19,16.65,33.05,3.12,4.51,5.86,5.6,8.53,4.92,4.54,7.61,12.45,19.34,18.13,22.55,5.48,3.05,10.26,1.45,10.26,1.45,7.59,12.39,13.6,19.57,23.8,17.39,2.78,5.19,13.97,8.99,20.39,8.99s13.57-2.6,16.37-7.79c6.13,1.59,14.73-.48,25-15.81,0,0,4.66.68,7.85-.67,6.02-2.49,13.59-14.92,18.14-22.51,2.66.66,5.4-.43,8.52-4.93,9.59-13.86,16.67-33.04,16.67-33.04,0,0,3.14,1.2,5.45-1.87,6.67-8.79,10.14-29.71,10.14-29.71,0,0,3.99-2.81,5.6-9.59,1.98-8.47,3.52-17.3,4.71-26.15,13.25,3.14,29.3,8.18,38.79,7,1.31-.17,2.49-.57,3.53-1.19,9.2,19.29,15.78,67.53,19.6,92.4,2.4,15.62-.04,37.56,8.04,49.2,1.29,1.86,3.51,2.33,6,2,7.12,6.34,21.63,11.69,27.82,12.97,5.21,3.94,12.36,3.21,16.54,8.27,6.33,7.59,3.32,13.71,5.25,13.83,1.95.12,6.47-12.64-.8-23.29-5.59-8.19-12.18-9.96-16.02-11.03-2.74-7.63-10.75-6.29-20.89-7.85,1.38-1.83,2.19-3.75,1.95-5.52-.81-5.8-4.73-6.98-8.13-15.68-3.66-9.32-7.19-24.28-9.35-40.58-2.13-16.3-4.6-64.45-20.41-86.01,0,0-2.23-3.85-2.76-3.26.05-2.51-.34-4.6-1.11-5.41-4.02-4.29-13.72-3.98-23.63-2.6-6.88.94-13.86,1.33-22.76,1.53,1.75-19.46,1.93-38.29,1.23-53-.73-15.37.01-35.82.54-56.04,10.97,1.62,22.26,3.2,29.38,1.54,1.8-.42,3.18-1.35,4.37-2.51,8.71,9.2,11.39,20.98,16.33,39.15,4.14,15.27,11.49,44.59,20.56,48.97,2.6,1.25,5.66.61,8.49-1.04,7.97,4.5,19.38,7.72,24.67,8.45,5.48,3.55,12.54,2.32,17.09,7.04,6.85,7.14,4.26,13.48,6.21,13.45,1.94-.01,5.58-13.06-2.45-23.18"/>
  </g>
</svg>