<?xml version="1.0" encoding="UTF-8"?>
<svg id="Layer_2" data-name="Layer 2" xmlns="http://www.w3.org/2000/svg" viewBox="0 0 624.04 654.5">
  <defs>
    <style>
      .cls-1 {
        fill:#808080
      }
    </style>
  </defs>
  <g id="Layer_1-2" data-name="Layer 1">
    <path class="cls-1" d="m597.75,237.01h0c16.75,2.85,26.29,25.91,26.29,25.91,0,0-5.02-24.23-32.54-31.33-3.83-2.88-8.28-5.45-13.09-7.87,15.74-6.29,37.5.51,37.5.51,0,0-16.93-9.78-42.38-2.71-11.33-4.93-24.5-8.71-38.59-11.24,18.25-13.27,43.68-.98,43.68-.98,0,0-17.5-17.1-50.19-2.71-1.3.74-16.98-.54-18.23.21,0,0-7.86-7.2-21.13-2.92-19.01,6.13-22.81,13.66-33.22,19.48-11.7-5.46-16.76-6.73-23.09-.94-4.02,3.65-7.97,9.51-11.22,15.02-3.55-4.61-7.11-8.63-10.64-12.15,1.26-2.59,2.2-5.83,2.07-10.01,7.48-2.08,14.74-13.96,14.74-13.96,0,0,2.84-1.96,7.12-5.88,16.67-6.7,30.87-5.98,30.87-5.98,0,0-12.47-2.24-27.07,2.33,2.69-2.66,5.65-5.92,8.79-9.77,18.14-11.34,34.65-15.46,34.65-15.46,0,0-14.96,1.94-31.26,11.05,5.07-6.63,8.9-12.38,11.51-17.19,18.34-2.72,18.39-16.92,18.39-16.92,0,0-2.93,12.78-16.88,14.16,3.33-6.72,5.18-12.18,3.09-14.59,7.36-2.65,14.34-20.92,15.73-35.14,16.39-14.66,4.18-39.09,4.18-39.09,0,0,8.19,23.66-3.81,34.19.31-6.24.07-12.8-1.03-19.26-1.31-7.67-3.96-14.06-7.46-19.44,9.84-19.88-14.84-34.84-14.84-34.84,0,0,21.9,18.4,12.62,31.79-11.66-15.09-29.84-20.04-38.14-19.8-11.39.23-19.19,7.89-19.19,7.89,0,0,21.25-9.2,38.02,12.79,11.8,15.45,6.53,27.13,1.3,30.79-9.74,6.78-20.01-.98-23.57,2.68-1.24,1.3,6.97,4.1,12.52,10.56,4.93,5.66,6.03,11.42,7.35,16.61-12.61-11.46-26.31-15.8-26.31-15.8,0,0,19.1,9,28.25,21.75.64,1.48-6.11,5.26-6.07,5.56-6.84,2.93-11.81,6.8-20.91,19.32-.91,1.3-1.68,2.4-2.5,3.61.51-17.03,6.19-29.11,6.19-29.11,0,0-8.75,13.68-8.38,32.19-9.08,13.63-8.98,19.68-10.54,25.18-6.28-.25-15.64,7.14-17.54,14.02-4.37.03-9.92,3.01-13.29,5.08-1.55-.43-2.84-.6-3.63-.47-11.92,1.64-13.82,10.97-28.85,6.49,0,0,7.48-11.82,8.7-25.34,1.1-11.93-1.33-26.16-1.33-26.16,7.48-8.73,16.22-12.78,26.03-27.63,10.48-16,12.65-37.89,11.81-41.44-3.24-13.32-9.35-6.21-9.66,3.95-.2,6.67-4.18,18.84-8.86,32.16-5.99,16.98-23.36,25.83-23.36,25.83-6.51-5.56-8.13-28.48-18.25-31.15-6.44-1.75-6.84,2.64-16.7,2.64s-9.5-5.68-17.49-4.31c-7.14,1.34-15.63,12.43-17.8,21.64l-5.41,12.23c-8.95-7.88-18.77-20.18-21.03-33.23-1.19-6.97-3.47-12.49-3.41-22.4.04-6.68-1.39-15.66-5.86-13.9-3.37,1.36-7.68,25.53,2.51,43.62,11.95,20.95,20.3,27.51,23.81,34.54,1.29,6.13-1.04,10.7-.5,23.19.44,10.18,7.6,26.03,7.6,26.03-7.87,3.95-18.33-7.05-28.31-7.7-2.16-1.84-9.01-7.52-14.56-8.23-1.03-7.07-8.9-12.58-15.08-13.99-.09-6.49-5.21-22.78-15.63-42.49-7.34-13.8-21.61-26.25-27.9-30.03,5.96-8.09,5.09-14.17,15.17-22.62,6.55-5.41,15.15-6.89,14.1-8.33-2.88-4.25-14.28,1.74-22.78-6.49-4.56-4.48-7.74-11.68,6.42-25.02,20.13-18.98,40.21-9.51,40.21-9.51,0,0-6.87-10.77-17.64-10.97-8.04-.14-24.29.36-37.82,12.78-5.83-15.55,10.62-38.28,10.62-38.28,0,0-18.15,18.4-13.75,41.43-3.56,3.92-6.83,8.83-9.64,14.95-13.09-10.73-5.11-38.11-5.11-38.11,0,0-11.66,23.5,3.3,42.3-.08.26-.23.53-.33.81-3.38,8.99-5.3,16.79-6.17,23.59-17.01-1.71-19.16-30.02-19.16-30.02,0,0-3.74,26.1,18.7,34.32-.62,11.25,5.18,32.24,12.29,33.04-1.9,3.51-.54,9.42,4.54,20.54-14.17-1.81-24.02-20.07-24.02-20.07,0,0,6.53,19.44,25.44,23.12,2.54,5.22,5.69,11.3,9.73,18.84.21.34.41.68.58,1.01-16.24-11.78-34.15-11.51-34.15-11.51,0,0,18.79,2.24,36.66,15.87,7.83,13.17,18.12,24.39,18.12,24.39,0,0,4.26,10.74,11.39,13.73-1.51,10.2,3.8,15.79,5.47,17.3-3.17,3.48-6.33,7.26-9.55,11.54-.58-.68-1.16-1.37-1.76-2.01-5.93-6.18-11.02-5.26-23.11-.6-10-6.49-25.4-24.19-30.5-24.52-5.1-.37-22.09,5.11-22.09,5.11-1.18-.8-2.4-1.58-3.63-2.38-7.25-22.76-39.68-22.71-47-22.39,5.92-.23,28.31.27,40.96,18.38-7.25-4.61-25.49,1.47-33.45,1.3-22.73-16.23-45.66-10.1-45.66-10.1,0,0,26.44-1.48,39.05,10.08-11.56.23-22.07,1.83-30.84,5.11-26.52-2.72-42.14,10.57-42.14,10.57,0,0,19.2-10.7,35.8-7.86-6.46,3.47-12.37,9.16-16.5,15.39-23.85,3.65-28.11,21.62-28.11,21.62,0,0,8.83-17.75,25.59-17.38-2.79,5.5-4.22,10.95-3.28,15.34,3.91,18.28,3.78,19,5,17.37,2.11-2.75.45-14.56,3.53-21.46,6.47-14.18,31.66-19.26,38.91-7.87,12.34,19.44-1.63,30.12,2.14,32.83,3.22,2.27,4.91-7.56,21.44-14.16,13.57-5.38,11.1-9.51,23.47-12.25,0,0-.26,5.63,4.09,9.41,5.26,4.47,26.73,4.96,46.34,4.73,1.69,7.25,9.7,14.98,16.35,20.29-2.63,6.27-4.85,13-6.96,19.89-2.79-1.07-5.69-1.91-8.63-2.05-12.85-.63-22.94,6.49-22.94,6.49,0,0-10.28-2.67-21.73-3.48-11.45-.8-26.53,4.61-29.12,9.66-3.65.44-9.51,6.07-12.6,8.47-26.49-2.28-40.93,14.19-40.93,14.19,0,0,14-14.92,36.02-10.13-7.06,6.08-13.55,12.6-18.55,18.39-24.84,6.1-35.4,31.73-35.4,31.73,0,0,16.27-25.87,32.34-27.98-.29.37-.65.78-.92,1.14-4.38,5.75-9.39,18.37-10.32,30.52-26.79,9.87-18.08,28.95-18.08,28.95,0,0-4.74-20.68,18-22.72.05.77.05,1.54.1,2.32,1.22,10.16,8.38,21.41,19.58,26.45,7.25,3.32,21.87,1.18,18.28,0-4.04-1.24-16.74-2.03-22.71-18.3-7.45-20.33,6.16-28.89,17.51-30.88,17.09-3.01,13.36,19.83,18.26,18.77,3.67-.8-1.54-13.08,2.09-21.55,3.68-8.5-.61-4.44,12.63-16.86,5.22,5.86,32.2-6.87,40.57-11.74,2.3,2.77,12.35,7.87,18.78,10.9-.35,4.82-.64,9.67-.64,14.69s.21,9.72.56,14.57c-4.74,12.47-13.64,19.53-17.19,25.32-19.01.17-32.31,4.96-32.31,4.96,0,0,14.98-3.62,31.25-2.75-.1.28-.2.47-.24.71-25.56,8.53-41.06,24.03-41.06,24.03,0,0,17.42-14.19,36.71-19.26-18.15,11.52-27.84,24.81-27.84,24.81,0,0,15.15-16.59,33.52-24.53.21.27.34.6.54.84-5.94,11.75-11.88,23.66-11.88,23.66,0,0,6.86-9.94,13.96-22.35,4.34,2.14,11.5,1.87,19.79,2.95.81,3.83,1.71,7.75,2.69,11.64-6.98,12.21-18.28,19.74-20.23,25.77-.48.19-.91.36-1.37.53-14.85,2.12-33.61,4.88-33.61,4.88,0,0,11.55-.09,25.38-1.27-20.32,9.86-31.98,22.98-31.98,22.98,0,0,16.56-15.16,35.54-21.34-17.46,12.57-26.33,26.43-26.33,26.43,0,0,14.14-17.53,32-26.47-10.33,16.67-13.39,30.99-13.39,30.99,0,0,5.54-16.87,16.31-30.95,5.24,2.44,16.9.8,28.81,2.7,1.12,2.83,2.28,5.56,3.48,8.34-6.39,10.67-15.35,28.03-16.68,37.03-1.32.6-2.57,1.24-3.84,1.88-17.98,4.61-39.48,8.06-39.48,8.06,0,0,15.1-.03,30.17-2.81-25.02,15.6-39.9,36.54-39.9,36.54,0,0,24.47-26.55,48.81-37.34-18.46,17.55-30.54,41.02-30.54,41.02,0,0,17-27.77,34.64-40.77-11.05,22.24-11.05,43.98-11.05,43.98,0,0,3.87-25.19,14.3-44.14,6.77,1.93,22.41-2.88,36.61-1.13,1.32,1.97,2.73,3.88,4.15,5.79-5.02,23.92-3.65,51.57,1.09,63.43-13.23,15.23-30.85,35.78-30.85,35.78,0,0,14.61-12.88,29.22-28.68-12.77,25.29-15.33,46.51-15.33,46.51,0,0,4.81-21.18,15.87-40.93-7.91,32.05-3.65,57.85-3.65,57.85,0,0-1.82-30.21,7.16-55.4-1.46,29,5.13,50.02,5.13,50.02,0,0-6.01-29.69-.69-56.05,8.26,24.99,19.95,40.28,19.95,40.28,0,0-12.97-21.28-18.05-45.3,4.69-5.56,8.36-22.4,17.3-37.42,5.21,4.52,10.64,8.62,16.21,12.18,6.82,10.21,7.3,19.48,9.55,24.4-7.9,13.05-18.81,31.48-18.81,31.48,0,0,8.81-11,17.42-24.15-6.33,21.72-4.34,39.15-4.34,39.15,0,0-.06-20.44,7.04-38.2-1.84,21.5,2.88,37.2,2.88,37.2,0,0-3.83-20.82.32-39.76,2.88,20.08,10.18,33.5,10.18,33.5,0,0-7.13-17.34-7.84-35.55,5.76-.83,10.26-8.63,22.39-12.92,4.34.66,8.74,1.1,13.23,1.1,5.14,0,10.19-.46,15.16-1.36,12.68,4.24,17.34,12.34,23.22,13.18-.75,18.2-7.9,35.55-7.9,35.55,0,0,7.29-13.41,10.19-33.5,4.17,18.94.35,39.76.35,39.76,0,0,4.71-15.74,2.86-37.2,7.11,17.72,7.05,38.2,7.05,38.2,0,0,1.95-17.44-4.35-39.15,8.6,13.14,17.45,24.15,17.45,24.15,0,0-10.91-18.43-18.84-31.48,2.49-5.41,2.87-16.03,11.8-27.37,2.72-1.91,5.39-4.02,8.05-6.2,13.24,15.7,16.83,37.97,22.68,41.68-5.2,23.78-17.95,44.78-17.95,44.78,0,0,11.7-15.29,19.96-40.3,5.31,26.38-.72,56.06-.72,56.06,0,0,6.62-21.05,5.15-49.99,8.92,25.19,7.16,55.38,7.16,55.38,0,0,4.25-25.81-3.6-57.86,10.99,19.7,15.84,40.93,15.84,40.93,0,0-2.6-21.23-15.34-46.52,14.61,15.79,29.23,28.71,29.23,28.71,0,0-19.15-22.35-32.57-37.68,4.27-13.15,4.52-42.03-2.63-63.82,2.37-3.11,4.67-6.39,6.9-9.66,14.9-3.08,32.41,2.64,39.71.53,10.44,18.95,14.32,44.14,14.32,44.14,0,0-.03-20.95-10.46-42.73,16.34,14.35,30.92,41.85,30.92,41.85,0,0-10.56-24.17-27.97-42.89,23.64,12.31,46.51,40.35,46.51,40.35,0,0-13.62-21.85-37.64-38.94,14.91,3.68,29.96,4.62,29.96,4.62,0,0-21.28-4.73-38.88-10.45-1.18-.68-2.37-1.33-3.61-2.01-1.25-9.91-12.38-30.72-18.72-40.78.07-.21.16-.41.24-.61,13.57-3.71,28.31-.98,34.37-3.77,10.74,14.02,16.27,30.91,16.27,30.91,0,0-3.08-14.33-13.35-30.98,17.8,8.97,31.97,26.47,31.97,26.47,0,0-8.85-13.83-26.31-26.4,18.94,6.17,35.54,21.33,35.54,21.33,0,0-11.66-13.1-31.98-23,13.81,1.19,25.34,1.24,25.34,1.24,0,0-18.75-2.75-33.58-4.85-.46-.22-.89-.33-1.35-.54-2.27-6.9-16.98-15.86-23.08-31.66,10.55-4.18,20.71-4.32,25.84-7.76,8.67,11.35,16.78,20.31,16.78,20.31,0,0-7.51-11.03-14.93-21.85.23-.27.33-.63.48-.9,19.24,5.38,36.43,19.85,36.43,19.85,0,0-11.54-11.88-31.15-20.9,19.88,2.4,39.23,14.2,39.23,14.2,0,0-17.38-13.45-43.95-18.47-.06-.17-.17-.36-.25-.54,16.02-3.01,31.33-1.4,31.33-1.4,0,0-13.78-3.04-32.66-.63-4.64-5.76-15.83-12.19-21.94-26.12.4-6.67.55-13.3.44-19.86-.07-3.75-.21-7.37-.42-10.94,7.78-3.25,16.61-7.23,18.52-9.47,8.25,5.05,35.96,17.71,41.35,11.95,12.9,12.68,9.51,13.78,12.14,22.68,2.6,8.83-4.09,20.41-.51,21.68,4.71,1.64,6.55-15.52,20.39-16.47,14.63-.96,27.78,12.98,20.7,28.55-5.06,11.17-15.2,17.09-12.62,17.06,8.53-.18,16.22-6.63,19.9-14.56,3.52,16.23-9.12,30.28-9.12,30.28,0,0,17.42-13.91,11.51-39.18,1.53-11.78.62-20.04-2.89-27.77,13.89,5.46,15.62,20.96,15.62,20.96,0,0,1.24-20.61-20.38-31.16-3.51-5.59-5.15-8.41-10.75-14.93,8.74.31,29.1,13.53,29.1,13.53,0,0-13.16-16.77-36.64-22.32-4.07-4.42-18.68-20.28-24.23-20.99-2.49-5.15-14.26-10.31-25.77-9.66-11.45.56-22.25,3.57-22.25,3.57,0,0-9.93-7.37-22.81-6.99-2.3.06-4.58.6-6.89,1.3-2.25-10.07-5.03-19.26-8.22-27.49l.77.56s21.96-13.32,27.38-25.23c19.18,4.22,42.16,1.77,47.66-2.47,0,0,9.17,3.34,20.31,12.74,13.54,11.49,12.03,21.39,15.8,20.22,4.45-1.33-1.76-15.84,12.46-30.41,6.21-6.3,27.62.79,29.54,14.58,3.3,23.5-15.25,28.48-12.25,36.15.7,1.9,14.42-8.26,23.91-24.33.69-1.16,1.23-2.5,1.6-3.98,10.96,11.06,1.99,33.87,1.99,33.87,0,0,11.96-21.73-1.5-37.72.78-10.34-4.16-24.37-12.57-32.94"/>
  </g>
</svg>