<?xml version="1.0" encoding="UTF-8"?>
<svg id="Layer_2" data-name="Layer 2" xmlns="http://www.w3.org/2000/svg" viewBox="0 0 637.48 654.5">
  <defs>
    <style>
      .cls-1 {
        fill:#808080
      }
    </style>
  </defs>
  <g id="Layer_1-2" data-name="Layer 1">
    <path class="cls-1" d="m363.5,204.67c8.36-2.04,16.56-4.68,24.54-7.92,17.77-6.45,31.35-21.06,36.47-39.26,1.67-7.36,3.9-14.61,6.13-22.31,2.23-7.7,3.35-10.04,9.15-1.45,1.9,2.68,9.37-3.9,12.6-8.25,2.44-3.4,1.66-8.14-1.75-10.58-.3-.21-.61-.4-.93-.57-7.14-4.8-6.92-11.15-7.14-18.74-.22-7.58,1.34-9.15,7.81-11.15,17.96-4.8,20.97-14.83,9.7-29.45-3.97-4.77-8.96-8.58-14.61-11.15-5.35-2.79-12.49-1.12-17.4-7.81,17.51-12.6,32.68-2.01,47.29,4.13,4.13-2.68,2.68-5.24,1.9-7.81-.78-2.57-1.34-3.9.67-5.47,1.23,0,2.79,0,3.57,1.23,5.08,5.68,8.07,12.92,8.48,20.52,1,8.59-2.23,18.52,11.15,22.31,6.13,1.78,4.68,12.72,1.45,18.85-7.03,13.5-8.7,29.11-16.95,42.05l-2.9,5.47c-3.12,5.69,14.61,6.47,3.23,14.05-5.24,3.57-13.5,6.02-6.92,15.17,0,0-3.12,2.34-4.24,4.02-3.46,4.91-19.18,2.12-9.59,15.73,1.12,1.67-5.35,3.01-8.48,3.68-12.53,4.16-23.27,12.46-30.45,23.53-2.32,2.78-2.32,6.82,0,9.59,3.01,3.57,6.36,1.67,8.81-.89,6.23-7.77,16.62-10.88,26.1-7.81,5.8,1.67,10.37-2.57,14.95-5.69,12.96-10.77,30.38-14.52,46.62-10.04,8.84,1.48,17.9.83,26.43-1.9,12.49-2.01,25.54-4.8,37.81,4.35-6.92,7.03-15.5-3.35-22.31,5.02,9.99,6.17,21.82,8.69,33.46,7.14,8.63-2.52,17.95-.6,24.87,5.13-4.46,5.02-10.15,1-14.05,4.02-1.45,2.45,0,3.79,1.9,4.68,8.37,3.38,15.76,8.78,21.53,15.73,2.23,3.01,11.71,9.59-3.01,10.26-4.91,0-1.78,9.59,0,14.39,5.29,9.84,5.95,21.53,1.78,31.9-7.58-1.9-3.01-10.48-8.59-13.27-8.48,3.12-11.15,16.17-22.87,15.28-4.35-6.02,1-10.04,3.35-14.39,3.9-5.79,5.42-12.86,4.24-19.74-1.08-7.81-7.33-13.88-15.17-14.72-7.1-.84-13.85,3.32-16.28,10.04-2.9,5.47-2.12,12.38-6.8,17.18-8.48,1.67-9.82-6.25-13.5-10.37-8.87-12.84-24.49-19.23-39.82-16.28-3.96,1.28-8.17,1.59-12.27.89-19.18-5.69-29.45,8.14-40.38,18.96-6.12,6.42-5.88,16.58.53,22.71,2.26,2.15,5.1,3.6,8.17,4.17,11.17,3.7,22.95,5.22,34.69,4.46,15.99-2.44,32.17,2.95,43.5,14.5,10.81,10.01,23.17,18.22,36.58,24.32,5.8,2.68,12.49,5.8,14.39,12.94-2.9,4.35-6.92,0-9.7,2.23v3.57c4.28,4.47,8.23,9.24,11.82,14.28,2.68,4.68,7.7,11.15-3.01,14.17-4.91,1.56-2.68,8.59-2.79,13.27.79,10.93-2.2,21.8-8.48,30.78-7.58-.67-1.9-9.15-4.91-9.03-17.18,1.12-11.15-6.69-6.69-15.06,3.78-6.02,4.03-13.6.67-19.85-4.22-7.8-13.97-10.71-21.77-6.49-.45.24-.89.51-1.32.8-4.02,2.45-6.02,7.58-11.93,8.48-7.14-3.46-3.79-10.6-4.46-16.06-2.23-16.51-6.13-21.19-22.31-25.32-6.69-1.67-13.16-4.02-19.85-5.91-18.63-5.35-26.1,0-26.43,18.96-1.99,19.3,12.05,36.56,31.35,38.55.15.02.29.03.44.04,11.15,1.45,15.17,11.15,22.87,16.51,4.35,2.9-3.12,8.7-5.47,7.25-10.48-6.69-22.31,5.58-33.46-3.79-4.96-3.3-11.64-2.12-15.17,2.68-4.68,5.8.78,10.26,4.24,14.28,7.14,8.37,14.05,17.29,26.77,17.18,6.8,0,8.92,1.9,11.15,9.93,2.68,12.49,4.91,12.38-9.7,11.93-4.8,0-4.57,8.37-9.37,4.8-4.8-3.57-4.46-6.8-7.14-9.93-7.15-6.59-17.3-8.81-26.55-5.8-3.08.9-4.84,4.12-3.94,7.19.12.41.28.8.49,1.17,7.25,15.95,11.15,35.02,33.46,38.15,6.47.89,13.38,1.12,9.7,12.6-2.34,7.58,11.15,11.15,11.93,20.97-8.81,0-11.15-9.26-19.63-12.49-2.79,5.91,6.25,10.6,1.56,16.73l-11.6-13.5c-6.02,2.12-1.78,8.25-5.91,10.48-.78,0-2.34-.89-2.68-1.78-2.34-5.69-4.13-11.15-6.36-17.4-1.69-6.95-7.6-12.06-14.72-12.72-26.55-1.9-35.92-1.12-30,29.11,1.83,7.29,2.32,14.85,1.45,22.31-3.04,15.91,2.92,32.19,15.5,42.38,2.66,2.9,5.05,6.04,7.14,9.37-3.9,3.68-14.39-5.47-11.15,8.59,1.56,7.25-10.26,13.72-8.03,24.87-2.68-8.81-15.5.78-15.62-11.15.8-6.76.3-13.61-1.45-20.19-6.36,1.23-5.47,9.93-12.05,10.48-3.01-4.35,0-8.14,1.9-11.15,11.15-19.18,3.12-36.03-6.13-52.42-5.24-9.15-11.93-8.59-16.84.89-6.04,8-6.44,18.91-1,27.33,5,5.84,5,14.46,0,20.3-2.57,3.9-2.12,8.92-8.81,6.58-6.69-2.34-13.27-4.91-12.16-11.15,1.78-11.15,1.9-20.75-9.82-26.21-14.13-6.37-30.25-6.7-44.62-.89-9.75,3.34-15.15,13.75-12.27,23.65,2,6.54-1.68,13.46-8.22,15.46-.34.1-.69.19-1.04.27-6.58,2.57-9.7-2.12-13.94-5.91-4.5-3.65-5.18-10.25-1.54-14.75.46-.56.97-1.08,1.54-1.54,8.52-9.79,8.76-24.29.56-34.35-7.36-11.15-15.17-10.37-21.42,1.34-7.34,11.8-8.54,26.42-3.23,39.26,2.34,5.24,6.47,11.15,4.35,17.4-7.47-1.67-6.13-11.15-12.49-13.05-4.24,3.79-2.01,8.92-2.45,13.38-.78,6.69-.67,6.69-5.24,6.13-1.56,0-3.68,2.9-5.8,9.48-6.02-6.92-13.94-10.37-11.15-21.53,1.78-8.7-6.02-4.57-9.82-5.58,0-1.34-.67-3.35,0-3.79,28.67-23.2,16.62-55.77,18.52-84.55,0-6.25-3.9-9.59-10.26-11.15-17.29-3.01-25.21,1.56-31.57,18.29-2.12,5.35-1.12,12.49-7.58,16.06-6.69-5.24,2.12-12.16-2.45-17.4-4.35,0-5.47,3.68-7.7,6.13-3.79,4.24-4.68,5.91-9.15-1.12-4.46-7.03-8.81,8.59-16.73,5.69-1.23-6.58,4.46-9.03,7.92-12.94,3.46-3.9,11.15-5.35,3.57-12.27-2.12-1.9,0-3.46,2.12-4.13,1.84-.96,3.85-1.57,5.91-1.78,24.65-1.23,29.11-22.31,37.48-38.82,2.07-2.91,1.38-6.95-1.54-9.02-.68-.48-1.45-.83-2.26-1.02-8.59-2.12-19.3-5.13-25.21,2.9-9.93,13.94-23.2,6.92-37.92,11.15,8.03-14.5,11.15-26.55,29.11-27.44,11.82-.67,17.85-13.94,23.09-24.43,1.3-2.63.38-5.82-2.12-7.36-3.68-2.57-9.7-3.68-11.15-1-8.03,11.82-20.63,3.57-30.12,7.92-3.26,1.68-7.25.78-9.48-2.12-2.79-3.79.56-6.13,3.01-8.48,7.14-6.92,12.05-15.06,23.76-18.07,17.62-4.57,27.1-33.46,18.07-48.85-3.56-7.1-11.66-10.66-19.3-8.48-5.35,1.34-10.15,4.68-15.5,5.8-27.55,5.58-26.88,4.91-34.13,35.92-4.24,1.9-6.36-.78-8.03-3.9-3.57-6.69-8.03-11.15-16.4-7.7-7.35,2.9-11.9,10.31-11.15,18.18-.13,7.7,3.18,15.06,9.03,20.08,2.9,2.45,7.36,3.79,7.92,10.04-12.17,3.86-25.36-1.54-31.34-12.83-9.15-12.27-9.26-12.27-23.98-6.25-2.23-16.4,23.53-18.4,18.4-35.92-7.03-3.68-8.37,9.37-16.28,4.68,5.69-20.3,30.45-22.31,39.82-37.81-3.12-5.24-7.47-1.78-10.15-4.02,0-1.12.56-3.12,1.23-3.35,16.19-4.02,31.76-10.21,46.29-18.4,7.9-4.67,17.32-6.03,26.21-3.79,13.69,1.89,27.64.36,40.6-4.46,12.38-3.35,14.39-11.15,6.13-21.42-5.24-6.46-12.9-10.49-21.19-11.15-13.12.14-26.08-2.84-37.81-8.7-3.76-2.03-8.36-1.72-11.82.78-5.47,2.9-11.15,5.8-16.51,8.59-5.35,2.79-9.15,11.15-15.5,8.14-6.36-3.01-.78-11.15-1.67-16.84-1.34-8.59-3.68-16.17-13.27-18.85-9.83-2.31-19.98,2.26-24.76,11.15-1.37,2.77-2.53,5.64-3.46,8.59-1.12,3.12-.78,6.92-4.13,9.48-6.8,0-6.13-5.8-7.14-10.04-3.01-13.72-2.9-13.83-17.62-11.15,4.02-13.05,18.96-12.94,25.65-21.3-1.12-7.7-7.47-2.23-9.93-5.35,0-1.23,0-3.01,1.12-3.46,7.97-4.13,16.79-6.35,25.77-6.47,7.41.44,14.81-.98,21.53-4.13-2.9-6.02-10.6-3.35-14.5-9.48,20.19-6.8,37.25,17.18,57,5.13,2.45-7.36-9.48-4.91-7.92-12.49,10.37.33,20.13,4.93,26.99,12.72,3.37,5.43,9.89,8.01,16.06,6.36,10.97-3.2,22.77.71,29.67,9.82,6.67,8,17.03,11.93,27.33,10.37,16.73-1.67,20.19-4.46,11.71-18.96-13.05-22.31-26.32-45.73-55.77-54.65,5.47-5.8,10.6-.89,15.73-4.24-3.68-10.48-18.52-11.15-21.08-22.98,3.01-6.47,8.7,4.57,11.15-1.23,2.01-4.13-.78-7.81-2.57-11.15-6.36-14.83-8.59-31.12-20.86-42.5-3.8-3.82-4.86-9.58-2.68-14.5,7.58.89,6.58,11.93,14.95,12.49,16.84-14.17-7.47-33.46,4.13-48.74,8.92,3.57,1.9,13.83,10.15,18.07,11.15-10.15,2.12-29.11,15.95-38.7,4.57,6.58-3.35,12.83,0,20.41,16.17-1.12,34.47-13.83,49.97,2.68-3.79,7.36-9.26,5.58-13.61,6.25-6.19.8-12.05,3.27-16.95,7.14-6.36,5.13-14.17,10.04-13.05,19.63,1.12,9.59,10.15,7.92,15.84,11.15,1.42,1.05,2.76,2.21,4.02,3.46-1.45,7.14-9.26,9.03-13.38,13.94-9.03,11.15-9.48,16.4,0,26.43,12.76,13.62,22.35,29.88,28.11,47.63,9.15,24.98,27.77,37.7,55.1,45.73-2.32-13.6-3.48-27.36-3.46-41.16-1.17-6.13-4.16-11.77-8.59-16.17-8.12-10.15-14.73-21.42-19.63-33.46-3.24-8.42-4.01-17.59-2.23-26.43.89-3.9,1.67-8.7,6.69-9.15,5.02-.45,6.69,4.24,7.47,8.25,1.23,6.69,1.78,13.61,2.68,20.41,1.08,12.77,7.22,24.58,17.07,32.79,6.8-2.9,7.03-8.48,9.7-12.27,6.92-10.48,15.06-17.96,29.11-13.61,3.34.93,6.82,1.19,10.26.78,11.9-2.73,23.92,4.1,27.66,15.73,4.91,11.82,8.81,11.93,17.29,3.01,4.95-4.98,8.66-11.05,10.82-17.73,2.45-7.81,4.13-15.95,6.58-23.87,1.78-5.58,1.23-15.28,8.81-14.17,10.26,1.45,7.7,11.15,6.58,18.63-1.3,13.94-7.14,27.07-16.62,37.37-14.73,11.74-22.33,30.27-20.08,48.97.89,6.69-4.91,12.94-2.23,22.31Z"/>
  </g>
</svg>