<?xml version="1.0" encoding="UTF-8"?>
<svg id="Layer_2" data-name="Layer 2" xmlns="http://www.w3.org/2000/svg" viewBox="0 0 654.5 564.98">
  <defs>
    <style>
      .cls-1 {
        fill:#808080
      }
    </style>
  </defs>
  <g id="Layer_1-2" data-name="Layer 1">
    <path class="cls-1" d="m6.36,57.61C-.36,41.87-4.98,22.13,9.71,9.16,27.52-6.77,62.05,1.66,82.39,7.73c28.03,8.37,53.62,26.49,74.46,46.56,5.79,5.57,11.54,11.1,17.28,16.69,44.13,42.85,86.98,82.46,107.47,142.46,4.29,12.62,5.06,27.14,12.68,38.47,10.2,15.12,9.98-7.59,10.9-13.8.83-5.34,4.31-9.27,7.42-14-2.16-3.88-4.77-7.48-7.42-11.13-6.49-11.54-12.55-26.09-17.07-38.57-.04-.03-4.41-11.84-4.41-11.84l-5.23-15.55c-5.35-15.19-14.72-29.7-18.35-45.36-1.18-5.09-5.25-23.52,1.08-26.85,9.42-4.86,6.19,18.17,5.82,21.77-1.58,14.94,6.66,27.93,12.2,41.15,6.41,15.36,10.77,31.21,16.79,46.6,1.31,3.22,18.29,35.43,21.71,32.37,0,0,.22-.09.38-.29.32-4.78,4.27-8.59,9.17-8.59s8.73,3.81,9.15,8.59c.17.21.29.29.29.29,3.5,3.06,20.51-29.14,21.79-32.37,5.96-15.39,10.41-31.25,16.79-46.6,5.38-13.22,13.83-26.21,12.21-41.15-.39-3.6-3.6-26.63,5.82-21.77,6.38,3.34,2.21,21.77,1.03,26.85-3.6,15.66-12.87,30.17-18.32,45.36l-5.17,15.55-4.42,11.84c-4.73,12.48-10.62,27.03-17.11,38.57-2.49,3.66-5.23,7.26-7.39,11.13,3.15,4.72,6.49,8.66,7.39,14,1.02,6.21.69,28.92,10.83,13.8,7.62-11.33,8.45-25.85,12.77-38.47,20.56-60,63.28-99.61,107.44-142.46,5.77-5.59,11.58-11.12,17.25-16.69,20.86-20.07,46.55-38.19,74.46-46.56,20.26-6.07,54.9-14.5,72.8,1.43,14.54,12.97,10.01,32.7,3.35,48.45-8.38,19.67-19.4,38.47-21.67,60.1-5.82,53.33,21.32,118.04-26.51,159.31-20.9,18.06-49.25,21.63-75.61,25.44-4.36.58-24.85,6.55-28.2,3.99,10.13,7.77,20.39,15.51,30.56,23.21,27.14,20.56,50.59,36.92,45.17,75.1-1.68,11.62-7.87,21.93-8.16,33.93-.4,18.74,5.93,42.16-16.89,50,8.06,12.79-9.55,23.65-19.3,27.8-16.76,7.06-25.3,15.44-37.35,28.95-8.63,9.58-24.34,10.91-35.77,15.26-12.9,4.93-23.99,7.89-34.09-4.21-11.22-13.34-15.13-30.51-20.24-46.71-8.86-28.16-20.29-55.29-30.77-82.84-10.38-27.49-13.16-60.93-29.76-85.59.69,24.3,6.02,51.01,3.11,75.11-.67,4.89-2.35,19.05-8.47,23.1v2.28c0,3.89-3.2,7.02-7.02,7.02s-7.13-3.13-7.13-7.02v-2.28c-6.09-4.03-7.78-18.21-8.35-23.1-2.83-24.1,2.27-50.81,3-75.11-16.48,24.66-19.32,58.1-29.7,85.59-10.45,27.55-21.89,54.68-30.72,82.84-5.13,16.21-9.05,33.37-20.26,46.71-10.13,12.11-21.25,9.15-34.12,4.21-11.44-4.35-27.17-5.69-35.69-15.26-12.2-13.51-20.71-21.89-37.33-28.95-9.91-4.14-27.46-15.01-19.47-27.8-22.71-7.84-16.5-31.26-16.82-50-.19-11.99-6.48-22.31-8.16-33.93-5.48-38.18,18.09-54.54,45.14-75.1,10.23-7.7,20.49-15.44,30.66-23.21-3.32,2.56-23.96-3.4-28.27-3.99-26.35-3.81-54.73-7.38-75.58-25.44-47.81-41.27-20.64-105.98-26.5-159.31-2.39-21.62-13.22-40.43-21.6-60.1h0Z"/>
  </g>
</svg>