<?xml version="1.0" encoding="UTF-8"?>
<svg id="Layer_2" data-name="Layer 2" xmlns="http://www.w3.org/2000/svg" viewBox="0 0 654.5 335.19">
  <defs>
    <style>
      .cls-1 {
        fill:#808080
      }
    </style>
  </defs>
  <g id="Layer_1-2" data-name="Layer 1">
    <path class="cls-1" d="m648.15,283.42c-6.84-9.06-22.25-14.36-50.16-22.14-6.31-1.75-9.98-8.83-9.98-8.83-24.27-24.67-53.73-61.54-55.69-65.16-1.46-2.67-.04-7.07-.67-13.05,9.69,11.22,21.88,24.44,33.37,35.73,1.89,1.89,2.95,2.62,5.3,3.54,2.63,2.12,5.79,5.41,9.14,10.49-2.43-4.42-4.19-7.22-5.48-9.07,3.69,1.4,7.26,2.67,10.5,3.73.7.24,1.33.45,2,.67,2.83,2.09,6.44,5.65,10.29,11.74-2.83-5.39-4.75-8.46-6.01-10.24,4.65,1.71,8.66,3.43,12.13,5.12,2.71,2.21,6.01,5.78,9.51,11.62-2.21-4.48-3.83-7.37-5.03-9.26,25.15,3.36,22.54,17.86,26.66,17.81,5.25-.07.32-6.37-4.09-12.22-6.85-9.06-22.23-14.37-50.17-22.14-6.3-1.75-9.97-8.83-9.97-8.83-18.39-18.69-39.71-44.36-49.87-57.28-1.84-4.56-4.01-9.85-6.36-15.42.2-5.17,0-12.13-6.38-20.77-4.36-9.74-23.96-62.17-36.29-76.09-3.04-3.44-6.7-8.12-9.45-7.61-2.83.52-8.24,5.37-11.63,8.9-8.03,8.38-15.83,21.68-23.85,32.87-9.9-.5-19.63.41-27.9,2.61-22.3,5.99-22.18,13.87-29.79,12.79-10.96-5.02-14.15-1.1-19.59-.55-11.36,1.13-4.1-1.37-12.43-.33-4.34.55-3.88,1.61-9.67,3.42-6,1.08-12.84-5.39-27.6-11.25-19.21-7.61-47.62-13.19-62.91-8.69-18.5,5.45-7.44,27.1-20.4,23.98-6.86-3.83-12.27-20.75-34.45-21.39-9.24-.25-22.74,5.46-34.26,14.85-1.13-.75-2.26-1.92-3.08-3.83,0,0,.09-1.32-.42-1.1-.84-2.71-1.09-6.57-.03-12.2,3.12-16.45,14.43-38.84,14.56-51.29.08-9.26-9.88-12.29-9.88-12.29,0,0-12.71-4.77-49.07-.44-40.58,4.83-61.85,11.02-63.38,14.68-2.54,6.13-2.11,12.56,4.32,7.35,4.74-3.83,10.11-10.68,53.57-17.47,40.59-6.36,53.47.94,57.6,4.47,9.23,7.9-6.44,35.09-12.62,61.3-.49,2.09-.75,4-.87,5.76-2.77-1.26-6.14-4.49-9.39-12-4.71-10.91-13.95-41.54-23.06-52.98-6.56-8.23-15.16-4.93-15.16-4.93,0,0-6.65-1.43-40.35,16.35C15.36,42.46.11,51.58,0,55.55c-.13,6.63,1.24,11.92,5.36,4.71,3-5.3,6.74-13.35,43.21-31.92,39.09-19.89,40.2-16.98,48.03-15.9,10.77,1.49,23.36,39.49,30.78,61.39,3.5,10.34,9.3,13.82,12.25,14.96.12.21.23.42.34.64-3.94,4.08-7.42,8.63-10.08,13.51-4.21,7.76-5.83,14.43-5.22,19.51-6.21,10.82-1.52,19.65-.54,19.44,1.49-.32-.41-1.86,3.51-8.43.67-1.12,1.29-1.95,1.9-2.69.92.59,1.97,1.04,3.14,1.36,5.65,1.58,14.21-4.65,14.83-4.65,15.03-.01,41.48-1.12,59.57-19.29,4.62-4.64,11.11-5.57,14.32-.78,1.83,2.75,5.1,7.16,10.71,10.85-15.04,4.34-39.29,10.47-57.54,17.54-1.93.75-5.41,2.96-6.87,7.38-10.99,33.2-23.24,49.29-23.24,49.29,0,0-13.04,4.4-22.54,10.36-11.74,7.35-13.86,13.57-25.86,20.63-11.96,7.08-30.54,13.84-33.8,16-3.26,2.18-5.05,18.81-3.71,16.05,3.61-7.52,3.75-10.33,8.96-12.9-1.29,1.72.24,4.48-.48,10.68,1.61-8.27,5.49-12.4,8.52-14.22,1.99-.62,3.89-.54,3.89-.54,0,0-1.26,2.09-1.55,14.8.96-9.39,3.38-14.16,6.06-16.31,1.37-.27,4.3-2.43,5.8-2.66,1.58-1.9,2.4-2.32,5.21-4.74-.84,2.03,1.39,5.57,3.31,11.06-3.26-12.27,2.65-16.21,4.75-17.48l1.88-1.41c5.22-3.89,8.67-6,13.46-8.38,10.88-5.45,16.23-11.45,18.98-9.28,2.71,2.18.63,7.35.63,7.35,11.19-7.44,10.21-13.08,18.75-27.99,4.49-7.86,8.71-35.37,27.2-43.53,17.39-3.81,29.36-7.07,49.22-13.61,2.92-.96,6.23-2.06,9.48-3.5l.1.05c4.39,12.35,11.09,13.66,17.86,14.42l3.81,10.61c-5.67,3.79-44.49,12.02-70.8,22.23-1.94.75-4.59,4.01-5.9,8.48-5.99,20.69-3.16,54.59-3.16,54.59,0,0-3.6,10.39-14.07,14.42-10.45,4.04-20.58,13.13-25.4,22.59-6.33,12.37-28.62,17.45-31.59,20.01-2.97,2.55-7.07,18.16-5.45,15.54,4.42-7.07,8.46-11.48,13.3-14.69-1.09,1.87-2.71,5.18-4.99,10.96,3.73-7.55,7.49-11.64,10.28-13.82,1.87-.87,3.79-1.01,3.79-1.01,0,0-1.57,1.86-3.88,14.36,2.44-9.11,5.79-13.93,8.17-16.42,1.32-.41,2.64-.83,4.1-1.25,1.33-2.09,3.45-4.68,5.91-7.42-.55,2.13-1.28,5.58-2.05,11.36,2.68-12.41,6.33-15.46,8.29-16.97l2.02-2.26c5.76-5.51,9.77-8.94,13.01-11.08,10.13-6.73,23.41-11.87,26.75-10.89,3.34.97,4.29,4.71,2.46,13.11,10.68-12.64.68-22.64-2.74-39.48-2.83-14.03-7.98-37.8,10.52-45.97,17.41-3.8,29.37-7.07,49.24-13.59,10.44-3.44,25.81-8.71,25.29-23.4,1.2-6.13-2.49-15.66-4.4-20,1.34-.93,2.52-1.63,3.85-1.75,3.71-.24,6.52.49,9.09,1.64.33,2.98,1.43,7.18,4.54,11.13.06,6.26,3.14,11.91,3,11.06,1.38,4.42,7.48,17.92,27.85,28.58,3.31,1.75,6.9,1.51,11.47,1.08,8.98,7.62,16.93,11.96,20.3,16.84-8.61,17.49-36.21,30.05-44.35,34.45-4.52,2.44-.04,9.07-.04,9.07,0,0,1.55,16.36,9.36,38.37,2.35,6.61,7.47,9.39,13.93,16.75,1.18,3.14,5.43,10.96,5.76,17.02.13-5.3,0-8.68-.18-10.91,3.9,4.43,7.78,8.8,11.23,12.77,1.32,2.9,2.59,6.75,3.46,11.84-.38-4.08-.78-6.98-1.13-9.15,2,2.35,3.82,4.48,5.34,6.37,1.2,3.15,2.24,7.56,2.57,13.62.15-4.97.02-8.28-.15-10.52.55.74,1.06,1.42,1.43,2,6.51,9.95,4.54,16.91,6.39,17.57,1.82.68,1.68-9.71-.44-18.72-1.63-6.98-12.13-14.99-22.68-26.25-5.31-5.66-11.13-9.28-16.08-21.17-13.29-31.87-8.98-40.82-8.98-40.82,0,0,26.03-11.16,39.47-35.92,2.2-4.02,8.42-8.69,1.3-13.23-1.41-.9-4.54-4.93-9.18-9.87-.25-.3-.49-.61-.7-.84,5.56-.05,11.05-.09,15.99-.09,2.54.96,5.5,2.63,8.73,5.51-2.29-2.57-4.05-4.28-5.4-5.51,2.89.04,5.49.09,7.75.18,2.55,1.24,5.62,3.48,8.83,7.44-2.29-3.56-3.97-5.79-5.19-7.22.84.07,1.59.15,2.2.25,10.48,1.74,12.12,8.18,14.04,7.17,1.95-1.01-3.2-8.15-9.37-12.76-4.8-3.58-17.86-.72-32.51-.15-3.23.13-6.34.59-9.68.72-1.29-1.22-2.65-2.43-4.1-3.63-12.67-10.48-22-20.19-22-20.19,0,0,.78-5.77-4.95-14.16h.1c5.48-.13,8.55-.93,10.5-2.15,1.58,2.05,3.32,4.13,5.14,5.96,6.74,6.74,16.87,7.86,26.98,3.37,0,0,10.02-1.34,20.01-9.37,5.42-.59,11.33-1.84,18.02-3.73,9.15,3.96,23.25,8.98,45.1,15.34,13.21,3.85,33.6,10.27,42.69,7.87,15.15-4.01,8.03-30.33-1.01-48.42-1.19-2.43-2.77-4.6-4.51-6.69,3.34-1.49,5.27-2.39,5.27-2.39,0,0,6.72,12.51,14.43,29.37,2.58,18.87-.65,28.78,5.08,40.14-.22-11.32,3.42-13.49,7.09-10.92,1.99,5.33,3.83,10.68,5.36,15.84,3.84,21.86-.39,32.38,5.76,44.61-.28-16.79,7.81-13.49,12.06-4.37,3.39,7.22,28.83,36.92,51.4,59.13,1.9,1.89,2.94,2.61,5.29,3.54,2.64,2.12,5.79,5.39,9.13,10.48-2.41-4.39-4.2-7.21-5.47-9.07,3.71,1.41,7.24,2.68,10.5,3.74.68.21,1.34.44,1.98.68,2.85,2.08,6.47,5.63,10.34,11.73-2.88-5.39-4.79-8.47-6.04-10.25,4.65,1.71,8.66,3.43,12.14,5.14,2.71,2.2,6.02,5.76,9.49,11.59-2.19-4.46-3.82-7.35-5.02-9.26,25.13,3.39,22.54,17.89,26.63,17.83,5.28-.08.36-6.38-4.07-12.23m-328.33-127.23c-16.66-9.25-17.14-16.28-17.14-16.28,0,0,.08-.37.14-.93,3.61,2.15,6.24,3.13,6.24,3.13,0,0,3.91,6.24,10.76,14.09m43.46-47.86c6.79-6.33,11.08-4.42,13.54-.35.26.45.47,1.21,1.41,2.32-1.34.36-5.55,1.61-10.91,3.83-5.03-.61-12.76-1.15-20.8-.33-.46-.97-.92-1.92-1.36-2.86,7.62-.5,16.17-.76,18.12-2.6m106.85-30.11c-.99.36-2.03.83-3.03,1.27-8.69-5.7-19.75-9.29-31.18-10.96,16.2-17.95,27.93-32.35,27.93-32.35,0,0,9.28,17.28,18.52,38.63-2.81.51-7.66,1.7-12.23,3.4"/>
  </g>
</svg>