<?xml version="1.0" encoding="UTF-8"?>
<svg id="Layer_2" data-name="Layer 2" xmlns="http://www.w3.org/2000/svg" viewBox="0 0 654.5 454.79">
  <defs>
    <style>
      .cls-1 {
        fill:#808080
      }
    </style>
  </defs>
  <g id="Layer_1-2" data-name="Layer 1">
    <path class="cls-1" d="m407.13,218.22c.67-2.41-.19-3.68-2.73-3.93-.44-.05-.75-.09-.67-.54.17-.99-.47-1.37-1.11-1.89-.9-.72-1.74-1.55-2.46-2.46-.73-.92-1.7-1.49-2.57-2.22-1.65-1.39-1.77-1.36-3.53.39-.51.5-1,1.04-1.52,1.54-.49.48-1.03.84-1.75.52-.8-.36-.62-1.05-.56-1.69.12-1.31.6-2.53,1.09-3.74.26-.66.47-1.13-.47-1.73-.87-.56-1.63-1.02-2.66-1.2-4.48-.77-8.35-2.73-11.45-6.1-.54-.59-1.01-1.22-1.95-1.22-1.03,0-1.57-.68-1.87-1.56-.3-.88-.72-1.55-1.69-1.8-.43-.11-.74-.47-.86-.92-.38-1.43-1.55-1.42-2.6-1.3-1.14.12-2.24.52-3.27,1.09-3.85,2.15-7.97,2.95-12.35,2.46-3.56-.41-6.36.89-8.42,3.78-2.94,4.13-6.77,7.06-11.52,8.8-.54.19-1.17.32-1.59.67-1.87,1.61-4.12,1.95-6.44,2.24-.96.13-2.34.05-2.13,1.76.04.36-.24.45-.57.46-1.22.02-2.65-.44-3.15,1.33-.02.06-.26.07-.4.07-2.82.08-4.59,1.7-5.9,4.01-.14.24-.23.56-.43.73-1.88,1.66-1.74,3.5-.85,5.66,1.82,4.41,3.6,8.84,5.67,13.15,1.25,2.59,2.32,5.27,3.44,7.91.37.88.81,1.7,1.34,2.49.54.78,1.04,1.56.94,2.58-.03.35.1.75.29,1.03,1.32,1.91,1.58,4.36,3.22,6.09.19.19.37.49.4.74.31,3.14,2.31,5.58,3.45,8.38,2.12,5.23,4.74,10.24,7.39,15.2,2.28,4.28,4.74,8.46,7.04,12.73,3.02,5.6,6.16,11.14,9.24,16.71.14.24.29.51.38.77.76,2.38,1.96,4.52,3.5,6.46,1.24,1.57,1.33,3.48,1.62,5.33.02.14.04.35-.03.42-1.88,2.04-.06,3.91.31,5.8.67,3.35,2.26,6.38,3.77,9.42.81,1.63.58,3.54,1.38,5.21.5,1.04.68,2.22,1.16,3.27,1.57,3.41,2.72,6.98,3.96,10.52.76,2.18,1.34,4.39,2.66,6.37.82,1.2.68,2.76,1.16,4.15,1.7,4.84,3.42,9.66,5.98,14.14.68,1.18.57,2.65,1.01,3.95.76,2.27,1.7,4.46,2.48,6.7.63,1.82,1.22,3.63,2.25,5.27.11.18.19.42.18.62-.24,3.57,1.74,6.5,2.87,9.65.93,2.58,1.79,5.19,2.62,7.79.66,2.06,1.17,4.16,2.08,6.13.69,1.52,1.38,3.04,1.63,4.71.05.35.19.71.39,1.01,1.61,2.3,1.9,5.15,3.09,7.61,1.87,3.9,3.4,7.99,6.53,11.18,2.02,2.06,4.19,4.03,5.4,6.74.09.19.19.4.29.58.35.69.57,1.38-.13,1.98-.75.64-1.72.8-2.38.14-1.12-1.12-2.6-1.82-3.47-3.22-1.02-1.64-2.51-2.83-4.19-3.7-1.06-.55-1.71-1.29-2.13-2.32-.71-1.76-1.64-3.36-2.96-4.77-1-1.05-1.52-2.42-1.91-3.84-.45-1.66-.65-3.43-1.97-4.74-.17-.18-.26-.56-.23-.83.24-1.78-.82-3.14-1.4-4.69-.93-2.47-1.81-4.98-2.24-7.62-.28-1.77-.97-3.44-1.58-5.15-1.41-3.86-2.7-7.77-3.97-11.7-.65-2.01-1.87-3.7-2.97-5.45-.19-.3-.52-.51-.37-.89.65-1.63-.19-3.03-.82-4.35-1.51-3.2-2.52-6.58-3.7-9.9-.36-1.03-.59-2.09-1.19-3.03-.52-.79-.76-1.71-.93-2.65-.43-2.45-1.37-4.71-2.51-6.9-1.25-2.37-1.72-5.04-2.69-7.54-1.13-2.87-1.84-5.92-3.37-8.66-.73-1.3-.54-3.02-1.56-4.24-1.14-1.37-1.67-2.92-1.78-4.72-.06-.97-.49-2-.99-2.85-1.18-2.04-1.7-4.3-2.35-6.49-1.02-3.42-2.69-6.56-4.11-9.8-.38-.87-1.26-1.56-2.02-2.2-.55-.47-1.21.36-2.03,0,.51-3.85-1.52-7.13-2.81-10.62-.33-.89-.6-1.8-1.39-2.41-.3-.23-.47-.53-.55-.9-.88-4.15-2.83-7.91-4.8-11.53-1.6-2.95-2.51-6.26-4.58-8.96-.37-.49-.38-1.25-1.32-1.16-.54.04-.58-.57-.62-.99-.31-3.35-2.15-6.1-3.6-9-.16-.32-.32-.65-.55-.94-.57-.71-1.01-.66-1.36.17-.24.58-.26,1.3-1.24,1.46-.13-1.05.15-2.01.38-2.94.23-.93.34-1.85.03-2.78-.76-2.34-1.47-4.8-2.94-6.72-1.41-1.84-1.88-4.03-2.94-5.96-.2-.37-.16-.97-.57-1.12-1.23-.46-1.55-1.6-1.71-2.58-.61-3.73-2.77-6.79-4.06-10.21-.98-2.57-2.31-4.99-3.48-7.47-1.08-2.26-1.72-4.76-2.83-7.03-1.83-3.8-3.18-7.75-4.1-11.87-.22-.98-.76-1.89-1.2-2.79-.49-.99-.96-1.94-.44-3.09.17-.38.19-.86-.23-1.19-.4-.31-1.45-.09-1.12-.94.39-1.02.08-2.39,1.4-3,.79-.36,1.59-.73,2.28-1.23.43-.32.93-.93-.18-1.16-.53-.09-.52-.45-.18-.74.66-.57,1.37-1.02,2.28-1.16,1.28-.21,2.56-.5,3.81-.87,1.56-.46,1.67-.71,1.51-2.34-.03-.28-.11-.56-.11-.86s.12-.56.42-.69c.43-.19.77.05.85.41.38,1.65,1.33,1.45,2.57,1.01.98-.36,2.19-.08,2.66-1.46.14-.4.76-.23,1.2-.17,4.1.63,7.48-1.1,10.68-3.33.69-.48,1.28-1.22,1.66-1.98.5-.98,1.02-1.87,1.81-2.67.74-.73.97-1.74.96-2.8,0-1.95-.93-2.77-2.88-2.34-1.19.27-2.43.55-3.51,1.11-2.61,1.37-5.34,1.18-8.07.87-1.5-.17-2.98-.61-4.45-1-2.39-.62-4.31-1.9-5.78-3.96-2.45-3.43-5.38-6.42-8.88-8.84-1.94-1.33-3.02-3.48-4.48-5.27-.68-.85-1.35-1.68-2.17-2.41-1.25-1.1-2.3-2.37-3.16-3.84-1.22-2.06-2.82-3.88-4.56-5.49-2.42-2.21-4.17-5-6.54-7.24-.05-.04-.08-.11-.14-.16-2.23-2.04-3.82-4.72-6.11-6.65-2.91-2.44-4.89-5.57-7.26-8.44-.74-.89-1.55-1.68-2.24-2.63-.5-.69-1.53-1.26-2.49-1.08-1.35.24-2.59-.16-3.88-.3-1.13-.12-2.14-.27-3.33.31-1.31.63-3,.17-4.48.6-.27.07-.59.03-.86.1-.27.08-.74.31-.72.38.43,2.33-2.86,1.6-2.87,3.48,0,1.39-.83,1.68-1.98,1.71-.93.03-1.87-.1-2.75.17-.34.69.34.94.48,1.4.39,1.22.05,1.92-1.17,2.27-.28.09-.69.01-.84.18-1.65,1.9-3.85,1.15-5.86,1.27-.87.05-1.74,0-2.61,0-.73,0-1.36-.14-1.98-.67-1.4-1.19-2.82-1.01-4.15.28-1.27,1.24-2.06,2.76-2.66,4.39-.55,1.51-.87,3.07-1.05,4.66-.5,4.19-2.22,8.04-3.05,12.16-1.49,7.37-3.27,14.67-5.06,21.98-1.12,4.56-2.5,9.07-3.73,13.61-.7,2.58-1.31,5.19-1.96,7.78-.59,2.38-1.16,4.78-1.97,7.11-1.75,4.99-2.53,10.25-4.01,15.32-.18.61-.28,1.28-.57,1.85-.74,1.44-1.76,2.48-3.58,2.27-1.89-.2-3.55.41-5.09,1.49-1.42.99-2.89,1.92-4.23,3.04-1.83,1.55-3.8,2.9-5.95,3.98-.72.37-1.37.8-1.98,1.31-1.55,1.32-3.26,2.38-5.02,3.41-1.94,1.12-3.75,2.47-5.56,3.79-4.09,2.99-8.12,6.06-12.25,9.01-1.34.95-2.89,1.62-4.38,2.37-2.42,1.22-4.27,3.22-6.48,4.72-2.99,2.02-6.03,3.99-9.05,5.97-.9.6-1.92,1.05-2.73,1.76-3.94,3.43-8.82,5.54-12.73,9.02-.32.29-.68.55-1.07.72-3.78,1.66-6.76,4.41-9.85,7.04-1.27,1.08-2.67,1.98-4.27,2.54-4.32,1.54-8.25,3.83-12.03,6.4-.3.21-.58.45-.91.6-4.85,2.13-9.3,5-13.77,7.78-3.22,2.02-6.59,3.63-10.05,5.06-2.39,1-4.99,1.47-7.46,2.28-4.46,1.48-8.9,3.02-13.34,4.57-1.16.41-2.26.98-3.37,1.5-.79.37-1.59.74-2.46.8-3.57.23-6.99,1.14-10.34,2.3-1.95.67-3.86.71-5.96.5-4.16-.43-8.39-.63-12.44.96-.4.16-.83.29-1.25.34-.87.1-1.61-.28-2.02-1-.47-.86.25-1.38.84-1.76,2.07-1.36,4.27-2.44,6.75-2.84,2.72-.42,5.42-.82,8.07-1.66,1.92-.6,3.95-.87,5.94-1.24,4.61-.89,9.13-2.17,13.61-3.47,2.95-.88,5.92-1.87,8.84-2.93,4.42-1.6,8.98-2.81,13.34-4.6,3.69-1.5,7.35-3.03,10.81-5.03,2.24-1.3,4.74-2.15,7.02-3.36,3.76-2.01,7.51-4.04,11.19-6.21,1.67-.98,3.51-1.68,5.23-2.6,3.41-1.83,6.32-4.35,9.53-6.44,3.45-2.25,6.83-4.62,10.32-6.82,2.81-1.77,5.67-3.46,8.18-5.7,1.57-1.39,3.4-2.45,5.18-3.57,3.49-2.19,6.89-4.52,10.14-7.07,2.22-1.72,4.6-3.26,6.93-4.87,7.43-5.17,15.02-10.08,22.35-15.41,4.68-3.4,9.5-6.61,14.28-9.87,1.26-.87,2.12-1.88,2.45-3.41.57-2.56,2.15-4.72,3.01-7.18.22-.6.58-1.19.69-1.81.57-3.31,1.84-6.39,2.95-9.52,1.1-3.09,1.17-6.39,2.23-9.49.85-2.46,1.35-5.01,1.5-7.65.09-1.59.75-3.09,1.41-4.54.76-1.69,1.11-3.43,1.05-5.26-.03-.74-.08-1.45.35-2.1,1.49-2.22,2.16-4.84,2.49-7.36.46-3.54,1.85-6.84,2.16-10.33.17-1.96.91-3.56,1.59-5.27.19-.47.39-.95.45-1.45.34-2.87,1.09-5.66,1.74-8.48.37-1.61.26-1.65-1.39-1.75-.5-.03-1.11.09-1.22-.58-.07-.46.35-.77.76-.95.87-.39,1.38-.98,1.44-1.98.04-.66.44-1.22.83-1.75.26-.35.56-.66.78-1.04.66-1.09.51-2.3.09-3.35-.39-.98-1.53-.7-2.34-.62-1.61.15-3.12-.65-4.74-.35-.38.07-.66-.23-.83-.59-.25-.48-.7-.66-1.18-.87-2.27-.94-2.19-.87-4.08.76-1.31,1.13-2.28,2.37-2.74,4.03-.05.21-.1.47-.24.61-1.63,1.55-2.14,3.74-3.18,5.62-2.98,5.37-5.87,10.79-8.94,16.11-1.45,2.5-2.49,5.21-4.23,7.56-2.15,2.9-5.22,3.48-8.31,2.88-2.49-.49-5.01-.55-7.49-1.02-3.14-.57-6.35-.3-9.54-.42-6.94-.25-13.89-.34-20.78-1.22-.57-.07-1.16-.06-1.74-.06-7.75-.03-15.52.26-23.25-.17-7.1-.39-14.19.05-21.27-.37-4.77-.3-9.51-.91-14.28-1.09-4.2-.15-8.36-.71-12.55-.97-1.74-.1-3.46-.32-5.18-.58-.57-.09-1.22-.18-1.65-.51-2.19-1.68-5.03-2.08-7.23-3.73-.43-.32-.93-.36-1.43-.43-2.91-.38-5.67-1.54-8.7-1.54-1.19,0-2.48-.72-3.77-.81-4.6-.3-8.76-2.14-12.9-3.85-1.39-.57-2.62-1.31-4.16-1.24-1.54-1.5-3.52-1.34-5.43-1.46-.37-.02-.69-.25-.91-.54-.52-.67-1.29-.75-1.97-.53-1.26.42-2.43-.08-3.64-.14-.44-.01-.92-.09-1.18-.46-.6-.84-1.47-.81-2.34-.83-.51-.01-1.02-.01-1.46-.34-.47-.36-.45-1.04.11-1.2,2.11-.62,4.3-.92,6.25.3.94.58,1.82.79,2.84.76,1.82-.04,3.59-.03,5.25.99.71.43,1.64.54,2.5.7,3.26.59,6.54,1.12,9.8,1.73,2.06.38,4.12.77,6.15,1.29,2.8.7,5.56,1.53,8.33,2.3,1.78,2.1,4.42.78,6.56,1.65,2.13.88,4.54.69,6.84.86,6.35.49,12.73.59,19.08.94,4.71.26,9.4.19,14.1.34.79.03,1.59-.06,2.37-.18,1.88-.28,3.76-.3,5.63-.01,1.01.16,2.03.23,3.03.13,4.12-.47,8.21-.29,12.34.02,4.11.29,8.26.01,12.39.13,7.38.2,14.75.52,22.13.74,2.61.08,5.22.06,7.83.02,3.77-.04,7.5.54,11.28.46,2.32-.05,4.26-.86,5.87-2.37,3.33-3.13,6.08-6.65,8.15-10.82,1.81-3.61,3.03-7.49,5.22-10.91.55-.85,1.05-1.75,1.74-2.48,2.67-2.84,3.93-6.27,3.87-10.08-.1-5.86,2.9-9.83,7.22-13.26,2.07-1.64,4.46-3.01,5.99-5.22,2.24-3.24,4.44-6.53,6.09-10.16,1.17-2.56,2.12-5.24,3.61-7.65.54-.87.31-1.45-.53-1.97-.76-.46-1.58-.74-2.42-.95-2.68-.63-5.36-1.22-8.04-1.83-.35-.07-.71-.14-1.05-.26-7.63-2.78-15.53-4.66-23.37-6.69-3.64-.96-7.09-2.52-10.73-3.48-6.78-1.81-13.43-4.03-20.12-6.12-5.24-1.63-10.47-3.32-15.71-4.94-4.81-1.5-9.61-3.13-14.2-5.34-2.44-1.18-4.83-2.54-7.44-3.47-2.25-.8-4.48-2.07-5.87-4.25-1.73-2.71.31-6.59,3.46-6.95,3.39-.39,6.8-.54,10.18-.51,2.59.03,5.26.48,7.78,0,4.92-.93,9.96-.66,14.85-1.68,5.55-1.14,11.09-.76,16.65-.1,2.44.3,4.98.01,7.32.78,2.09.68,4.21,1.03,6.34,1.37,2.86.46,5.73.81,8.65.64,2.36-.12,4.11-1.67,4.38-3.98.06-.52-.06-1.01-.45-1.39-.88-.87-1.67-1.85-2.67-2.54-2.68-1.85-4.6-4.47-6.49-6.96-2.14-2.83-1.98-6.44-.27-9.48.84-1.5,2.52-2.71,4.2-3.6.57-.31,1.25-.45,1.76-.84,3.07-2.33,6.79-3.18,10.27-4.52,2.04-.79,3.8-1.73,4.78-3.79,1.3-2.72,3.77-3.13,6.4-3.08,2.61.03,5,.94,7.15,2.32,5.53,3.56,11.75,5.13,18.05,6.52.49.1,1,.19,1.47.38,4.42,1.59,8.99,2.74,13.41,4.38,3.46,1.27,7.05,2.17,10.48,3.56,3.96,1.58,7.9,3.24,11.77,5.05,4.66,2.18,9.38,4.19,14.07,6.29,2.24,1.01,4.4,2.2,6.71,3.09,4.6,1.76,9.29,2,14.06.95,3.88-.85,7.85-1.24,11.73-2.05,3.18-.65,6.38-1.21,9.51-2.13,3.32-.98,6.79-1.44,10.2-2.11.99-.2,2.03-.28,2.98-.58,1.49-.48,3-.58,4.51-.32,2.64.46,5.22,1.04,7.49,2.68,1.26.89,1.85,1.95,1.8,3.44-.05,1.17-.03,2.33,0,3.48.3,9.26.48,18.53.33,27.79-.02,1.2.27,2.25.93,3.27,1.95,3.06,4.29,5.63,7.78,6.95.63.22,1.26.37,1.91.3,1.03-.11,2.01,0,2.99.7.75-2.77,1.64-5.35,2.13-8,1.32-7.12,2.77-14.2,4.28-21.28.3-1.43.41-2.88.33-4.33-.13-2.34.36-4.6.82-6.86.32-1.6,1.27-2.49,2.81-2.99,2.78-.9,5.29-.43,7.58,1.28.95.71,1.46,1.59,1.29,2.99-.4,3.24-.27,6.48.61,9.68.58,2.09,1.05,4.22,1.01,6.43-.01.35.04.72.13,1.06,1.72,6.28,2.42,12.77,3.95,19.09,1.43,5.89,2.37,11.91,3.87,17.81,1.48,5.83,2.9,11.66,4.25,17.5.69,2.95,1.28,5.91,2.62,8.69.64,1.31.61,2.91,1.17,4.35,1.49,3.88,2.98,4.34,7.15,3.66,1.83-.32,3.57-1.18,5.36-1.72,5.75-1.77,11.22-4.28,16.83-6.4,1.86-.71,3.62-1.82,5.53-2.43,5.95-1.93,11.08-5.47,16.65-8.12,5.04-2.4,9.68-5.52,13.95-9.06,3.1-2.58,6.23-5.16,9.28-7.8,4.2-3.65,8.64-7.02,13.17-10.24,4.3-3.07,8.56-6.19,13.2-8.72,2.65-1.45,5.27-2.94,8.27-3.61,1.05-.24,1.91-.37,2.67.64.33.43.9.67,1.18,1.21.27.5,1.28.52,1.11,1.17-.18.73-.63,1.49-1.18,2.01-2.12,2.01-4.19,4.12-6.54,5.81-1.74,1.25-3.31,2.71-5.01,3.99-2.07,1.55-4,3.31-6.01,4.96-2.68,2.2-5.37,4.39-8.02,6.61-3.93,3.31-7.96,6.5-12.2,9.4-5.41,3.72-10.62,7.79-16.42,10.9-2.9,1.55-5.95,2.9-9.31,3.45-2.94.49-5.97.84-8.68,2.3-4.67,2.54-9.78,4.06-14.57,6.31-3.4,1.6-6.77,3.27-10.08,5.05-2.29,1.23-4.7,2.24-7.07,3.31-1.45.65-2.87,1.3-4.22,2.17-1.63,1.04-2.59,2.51-3.39,4.15-.63,1.27.4,2.45.47,3.7.04.7.79,1.18.62,2.17-.15.87,1.24-.12,1.63.7.29.62,1.19.81,1.4,1.55-.52.6-.96.08-1.41.03-1.02-.1-2.21-.64-2.29,1.19-.03.53-.96.61-1.13,1.25.17.5.68.57,1.05.6,2.22.15,3.05,2.23,4.63,3.25.23.15.3.5.12.79-.18.29-.47.31-.77.26-1.87-.2-3.75-.34-5.62-.03-.35.06-.74.01-.94.59,1.69.59,2.56,3.73,5.2,1.36.74.73.77,2.11,2.21,2.12.68,0,.51.74.4,1.24-.1.47-.4,1.01.1,1.41.6.47,1.13-.02,1.56-.34,2.28-1.71,5.01-2.57,7.54-3.75,2.47-1.15,5.08-2.08,7.61-3.16,6.66-2.83,13.28-5.75,19.95-8.55,2.73-1.14,5.34-2.56,8.24-3.3,2.95-.76,5.75-1.99,8.58-3.09,2.87-1.11,5.86-1.62,8.87-2.02,1.2-.14,2.4.16,3.29.91,2.71,2.25,5.79,4.18,7.26,7.62,1.48,3.45,3.21,6.82,4.13,10.48.44,1.78,1.25,2.34,2.86,1.55,2.95-1.45,6.22-1.87,9.19-3.22.33-.14.69-.21,1.05-.27,1.93-.33,2.04-.4,2.32-2.36.15-1.06.39-2.08.85-3.49.74,1.39.19,2.32.15,3.23-.07,1.45-.05,1.5,1.36,1.14,2.52-.66,5.17-1.15,7.5-2.09,3-1.2,6.11-1.58,9.14-2.4,4.18-1.13,8.43-2.01,12.79-2.17,1.54-.05,2.6-.66,3.01-2.23.16-.63.45-1.22,1.08-1.67.73,1.11-.76,1.85-.26,2.93,3.17-.43,6.37-.89,9.57-1.3,4.02-.52,8.07-.7,12.11-.72.14,0,.3,0,.43.04.67.21,1.65.21,1.65,1.11.01.78-.91.79-1.53.92-2.49.52-5.02.42-7.55.5-2.15.07-4.28.09-6.41.56-2.05.45-4.19.51-6.19,1.04-2.44.67-4.94.58-7.37,1.15-2.39.55-4.85.87-7.31,1.01-.59.04-1.11.29-1.66.46-3.3,1.09-6.68,1.82-10.11,2.38-.28.04-.57-.04-.83.14-3.01,2.08-6.72,2.11-10,3.42-3.47,1.4-7.25,1.9-10.61,3.68-.94.49-2.14.27-3.01,1.09-.57.54-1.02.9-.42,1.77,1.01,1.47.97,3.3,1.44,4.96.94,3.35,2.29,6.56,3.26,9.89.77,2.64,1.73,5.23,2.67,7.82.75,2.11,1.72,4.14,1.93,6.42.08.85.42,1.69.77,2.48,1.36,2.98,2.54,6.03,3.32,9.16.87,3.43,2.47,6.63,2.88,10.2.31,2.62,1.5,4.97,2.62,7.34.71,1.5,1.17,3.1,1.68,4.69,1.18,3.64,2.27,7.32,3.45,10.96,1.96,5.99,4.81,11.64,6.51,17.72.63,2.24,1.77,4.28,2.77,6.37.8,1.7,1.73,3.33,1.97,5.27.16,1.29,1.1,2.15,2.16,2.85,6.57,4.38,12.71,9.37,19.06,14.03,4.08,3,8,6.19,12.19,9.06.84.57,1.67,1.16,2.57,1.63,3.34,1.75,6.21,4.11,9.14,6.48,3.38,2.74,7.02,5.33,10.94,7.4,2.94,1.55,5.84,3.18,8.61,5.04,3.36,2.27,7.09,3.92,10.75,5.68,4.25,2.03,8.64,3.74,13,5.52,2.67,1.09,5.53,1.05,8.3,1.5,3.22.52,6.49.52,9.7,1.16.71.15,1.44.12,2.16,0,5.57-.92,11.1-2.06,16.4-4.11,2.69-1.04,5.47-1.91,8.43-1.91.29-.01.58-.08.87-.06.84.06,1.61.3,1.93,1.16.31.85-.04,1.6-.64,2.16-1.18,1.09-2.54,1.96-4,2.58-2.32.99-4.71,1.86-7.05,2.8-.8.33-1.66.61-2.35,1.11-2.21,1.62-4.77,2.02-7.38,2.27-.86.09-1.74.07-2.58.35-4.08,1.31-8.15.71-12.23.01-3.84-.66-7.7-1.29-11.61-1.54-1.34-.08-2.56-.47-3.74-1.01-5.12-2.36-10.19-4.85-15.18-7.5-3.44-1.83-6.67-4-10.27-5.59-3.1-1.36-5.64-3.78-8.39-5.79-2.63-1.93-5.27-3.83-7.99-5.61-1.75-1.15-3.42-2.43-5.13-3.66-5.33-3.86-10.56-7.88-16-11.57-4.97-3.38-9.51-7.32-14.37-10.83-2.86-2.09-5.6-4.33-8.33-6.59-1.02-.85-2.09-1.27-3.37-1.13-2.68.29-4.2-1.15-5.14-3.44-.91-2.21-1.74-4.45-2.2-6.81-.54-2.79-1.69-5.37-2.54-8.06-1.75-5.58-3.32-11.23-5.09-16.81-1.66-5.23-3.48-10.41-5.24-15.63-.11-.34-.29-.67-.33-1.03-.58-5.01-2.59-9.65-4.16-14.36-2.21-6.65-4.32-13.34-6.48-19.99-1.61-4.95-3.4-9.86-4.3-15.02-.4-2.3-1.37-4.27-3.19-5.76-.85-.7-1.66-1.08-2.7-.21-.85.7-1.97.85-3.03,1.12-1.67.44-3.36.86-4.66,2.12-.23.22-.45.33-.76.33-3.26.02-6.03,1.55-8.87,2.88-.38.17-.65.6-1.12.59-2.54-.02-4.65,1.54-7.08,1.89-.07.01-.17,0-.21.04-2.01,2.04-4.9,1.48-7.29,2.46-3.52,1.46-7.22,2.49-10.85,3.64-2.25.71-4.47,1.3-6.58,2.44-1.07.58-2.52.51-3.76.95-.94.34-1.66.68-1.64,1.93.02,1.14-.79,1.99-1.66,2.7-.57.45-1.12.9-1.48,1.56-.66,1.22-.95,2.16-.15,3.73,1.66,3.24,2.58,6.79,1.07,10.47-.05.12-.08.27-.12.42q-.63,2.29,1.31,3.76c.74.55,1.65.88,2,1.89.17.48.79.62,1.29.69,2.05.32,3.34,1.52,4.11,3.39.28.68.8,1.18,1.4,1.62,1.17.86,2.56,1.36,3.24,2.9.43.99,2.64.92,2.63,1.82-.02,1.48,1.04,1.98,1.63,2.88.62.97,1.34,1.88,1.85,2.92.76,1.55.61,2.13-.7,3.18-1.66,1.31-1.76,1.91-.34,3.47,4.54,5.06,9,10.2,13.62,15.2,3.82,4.14,7.59,8.33,11.4,12.49,4.14,4.54,8.45,8.93,12.67,13.4,4.87,5.15,9.64,10.4,14.46,15.6,3.34,3.6,6.25,7.6,9.28,11.48,2.5,3.2,5.44,6.03,7.74,9.37,2.65,3.81,5.58,7.4,8.28,11.16,3.21,4.47,6.72,8.72,10.12,13.05,2.23,2.83,4.16,5.92,6.76,8.48,1.04,1.01,1.58,2.41,2.07,3.79.31.85.37,1.7.13,2.57-.36,1.2-1.24,1.83-2.48,1.51-2.49-.63-4.84-1.72-6.3-3.93-3.22-4.91-6.98-9.4-10.39-14.17-4.54-6.36-9.22-12.63-14.11-18.74-3.69-4.63-7.29-9.34-11.2-13.81-2.67-3.03-5.25-6.15-7.92-9.2-2.82-3.21-5.79-6.28-8.71-9.38-2.93-3.1-5.85-6.22-8.81-9.3-4.16-4.33-8.45-8.53-12.48-12.98-3.54-3.92-7.04-7.89-10.61-11.78-4.9-5.33-9.52-10.92-14.89-15.79-1.52-1.39-2.59-3.27-4.57-4.16-.26-.12-.38-.6-.51-.93-.81-2.12-2.27-3.63-4.19-4.8-.8-.5-1.8-.87-2.08-2.04-.17-.73-.93-.84-1.63-.63-.39.11-.72.49-1.2.31h0Z"/>
  </g>
</svg>