<?xml version="1.0" encoding="UTF-8"?>
<svg id="Layer_2" data-name="Layer 2" xmlns="http://www.w3.org/2000/svg" viewBox="0 0 654.5 500.78">
  <defs>
    <style>
      .cls-1 {
        fill:#808080
      }
    </style>
  </defs>
  <g id="Layer_1-2" data-name="Layer 1">
    <path class="cls-1" d="m652.71,67.26c-2.22-3.04-6.78-1.9-9.22-4.49-5.96-6.27,10.52-8.2,10.99-13.34.45-5.24-5.88-5.15-8.65-7.92-2.46-2.46-2.17-5.47-.83-8.49,1.84-4.44,6.34-10.14,2.77-15.04-4.16-5.77-12.74-8.85-19.62-10.21-10.28-2.07-21.89-1.15-32.4-.7-11.58.53-23.28,2.05-34.23,6.22-11.56,4.32-22.38,10.59-32.69,17.27-5.53,3.52-11.11,7.07-16.64,10.56-10.78,6.88-21.79,13.79-32.33,20.93-19.78,13.5-38.67,28.45-55.93,45.05-16.8,16.05-32.33,33.34-49.09,49.4-7.97,7.75-16.36,15.21-22.53,24.49-.24.16-12.1,18.14-12.1,18.14l-5.08-1.71,4.77-18.53c3.43-13.28,4.54-27.41,9.93-40.16.85-1.91,1.66-3.83,2.48-5.74,6.43-15.14,12.83-30.1,21.58-44.07,2.39-3.66,4.96-7.16,7.4-10.72,12.98-18.5,28.29-36.15,47.04-49.06,8.98-6.07,18.25-11.74,27.63-17.11,2.29-1.27,22.97-9.27,23.38-8.2l-1.44-3.82c-5.67,4.05-13.4,4.48-19.64,7.35-6.38,2.98-12.22,6.89-18.06,10.44-7.26,4.4-14.63,8.98-21.41,14-6.93,5.21-12.62,11.7-18.53,17.97-10.04,10.66-19,21.27-27.63,33.23-4.82,6.59-9.15,13.65-12.45,21.02-8.82,20.3-17.54,40.77-22.34,62.44-1.61,7.27-2.98,15.12-5.27,22.21-.95,3.06-1.99,6.09-2.91,9.1h-4.73c-.99-3.01-1.96-6.04-2.95-9.1-2.2-7.09-3.55-14.94-5.23-22.21-4.8-21.66-13.47-42.13-22.24-62.44-3.29-7.37-7.83-14.43-12.53-21.02-8.67-11.96-17.66-22.57-27.73-33.23-5.86-6.27-11.58-12.76-18.56-17.97-6.74-5.03-13.97-9.61-21.39-14-5.74-3.55-11.65-7.46-17.94-10.44-6.29-2.87-13.99-3.3-19.74-7.35l-1.39,3.82c.35-1.06,21.13,6.94,23.35,8.2,9.41,5.38,18.6,11.04,27.58,17.11,18.89,12.91,34.13,30.56,47.04,49.06,2.53,3.56,5.08,7.06,7.47,10.72,8.7,13.97,15.1,28.93,21.58,44.07.73,1.91,1.61,3.83,2.53,5.74,5.34,12.75,6.4,26.88,9.86,40.16l4.73,18.53-5.03,1.71s-11.89-17.99-12.08-18.14c-6.24-9.28-14.54-16.73-22.48-24.49-16.76-16.06-32.41-33.35-49.12-49.4-17.23-16.6-36.24-31.56-56.09-45.05-10.5-7.14-21.44-14.05-32.26-20.93-5.44-3.5-11.04-7.04-16.59-10.56-10.33-6.68-21.11-12.94-32.67-17.27-11.01-4.16-22.67-5.68-34.32-6.22-10.45-.45-22.05-1.37-32.41.7-6.76,1.36-15.39,4.44-19.62,10.21-3.52,4.9.99,10.6,2.84,15.04,1.23,3.02,1.61,6.03-.83,8.49C5.89,44.27-.47,44.19.03,49.43c.54,5.14,16.92,7.07,10.94,13.34-2.36,2.59-6.95,1.45-9.12,4.49-6.36,8.81,11.13,9.57,7.7,17.3-1.3,3.02-10.59,10.52-6,13.81,2.6,1.83,6.59.61,9.43,1.61,5.65,1.82,1.28,8.13-.31,11.36-2.55,5.14.07,8.66,4.92,10.88,2.72,1.24,5.79,3.73,4.61,7.07-1.51,3.98-9.76,5.77-9.22,10.59.71,6.67,12.67,4.46,16.26,7.42,4.7,3.95.16,8.99-1.8,13.06-3.15,6.24,3.09,7.01,7.49,8.85,2.98,1.24,5.84,3.48,4.37,6.89-1.06,2.47-4.09,3.91-5.08,6.45-1.84,5.27,3.95,7.2,7.8,8.82,2.22.99,5.01,1.88,6.1,4.34,2.08,4.44-3.12,9.4-1.32,13.79,2.32,5.74,10,.51,13.97,3.34,4.07,2.86,2.22,8.53,3.41,12.55,1.96,7.66,9.12,3.11,14.42,5.46,5.65,2.41,4.18,7.35,4.96,12.11.31,2.75,2.25,4.71,4.82,5.81,3.66,1.5,8.11,1.36,10.45,5.19,2.37,4.03,4.92,8.08,9.15,10.34,5.15,2.65,11.49,2.28,17.19,2.92-1.04-.12-4.44,3.44-5.13,4.04-2.03,1.45-3.88,2.98-5.77,4.49-4.78,3.82-9.93,7.27-13.92,11.92-4.02,4.72-7,10.12-10.78,15-6.36,8.26-13.4,16-21.18,22.97-3.76,3.34-7.61,6.68-11.77,9.61-2.62,1.83-10.52,5.58-9.1,9.79,1.61,4.85,10.61.8,13.52-.28,8.75-3.15,18.27.65,24.3,7.1,6.5,6.95,8.18,17.57,6.5,26.7-1.04,5.61-2.86,11.11-5.58,16.1-3.41,5.92-8.91,6.88-13.99,10.85-1.2,1-4.11,2.51-3.95,4.51.69,7.21,23.16-4.49,26.21-5.14,6.78-1.37,12.41,3.55,16.21,8.44,2.55,3.33,4.89,7.17,5.89,11.23,2.13,7.46-.73,14.84-4.63,21.19-3.4,5.45-12.79,10.9-11.98,18.45.8,7.71,14.77-2.87,17.4-3.97,10.35-4.42,21.53-3.45,31.53,1.04,6.01,2.66,10.97,6.55,14.8,11.89,2.93,4.14,4.89,8.74,6.5,13.59,1.3,4.09,3.03,13.18,8.34,13.99,5.44.85,5.58-9.82,5.67-13.02.33-4.83,1.37-9.57,3-14.09,1.73-4.73,3.26-9.54,8.23-11.76,9.6-4.38,12.91,5.46,19.74,9.23,7.14,4.03,8.08-5.8,9.19-10.39,3.26-12.26,12.13-24.9,26.47-21.46,2.74.63,5.51,2.87,7.82,4.24,1.94,1.15,6.59,4.78,9,3.9,3.74-1.56.92-8.29.21-10.8-2.76-8.74-.78-17.99.33-26.79,2.57-20.46,4.77-41.08,8.79-61.34.99-5.45,2.2-10.8,3.62-16.06,1.82-7.36,3.9-14.63,5.89-21.96.73,3.11,1.37,6.25,2.03,9.32,5.25,25.95,12.06,51.68,19.69,77,2.03,6.95,5.18,13.52,7.24,20.55,1.13,4.12,1.89,8.49,3.78,12.37,8.25,16.49,17.61-4.97,19.76-12.37,1.98-7.03,5.18-13.6,7.28-20.55,7.59-25.32,14.35-51.04,19.62-77,.66-3.07,1.37-6.22,2.01-9.32,2.01,7.33,4.11,14.6,5.98,21.96,1.3,5.26,2.58,10.61,3.61,16.06,3.97,20.26,6.19,40.88,8.75,61.34,1.06,8.8,3.07,18.05.38,26.79-.83,2.52-3.6,9.24.12,10.8,2.46.87,7.11-2.76,9-3.9,2.34-1.37,5.13-3.62,7.75-4.24,14.47-3.44,23.31,9.21,26.59,21.46,1.16,4.58,1.96,14.42,9.12,10.39,6.93-3.77,10.17-13.61,19.78-9.23,4.92,2.22,6.43,7.03,8.23,11.76,1.58,4.51,2.62,9.25,2.88,14.09.21,3.2.38,13.87,5.84,13.02,5.27-.82,6.95-9.9,8.3-13.99,1.56-4.86,3.57-9.46,6.5-13.59,3.85-5.34,8.82-9.23,14.75-11.89,10.02-4.49,21.23-5.46,31.7-1.04,2.6,1.1,16.45,11.68,17.25,3.97.83-7.55-8.53-13-11.96-18.45-3.88-6.35-6.76-13.73-4.73-21.19,1.21-4.05,3.5-7.9,6.1-11.23,3.62-4.89,9.34-9.81,16.07-8.44,3.05.65,25.58,12.35,26.31,5.14.14-2.01-2.79-3.51-4.07-4.51-5.01-3.97-10.68-4.93-13.95-10.85-2.69-4.99-4.49-10.49-5.56-16.1-1.63-9.12,0-19.75,6.5-26.7,6.03-6.45,15.55-10.26,24.25-7.1,3,1.09,11.91,5.13,13.52.28,1.44-4.21-6.48-7.95-9.05-9.79-4.19-2.93-8.06-6.26-11.82-9.61-7.8-6.97-14.8-14.71-21.2-22.97-3.66-4.88-6.67-10.28-10.78-15-3.92-4.66-9.12-8.11-13.9-11.92-1.82-1.51-3.76-3.04-5.6-4.49-.83-.6-4.3-4.16-5.22-4.04,5.6-.64,11.99-.27,17.14-2.92,4.28-2.26,6.88-6.31,9.15-10.34,2.39-3.83,6.74-3.69,10.35-5.19,2.55-1.1,4.56-3.06,5.03-5.81.66-4.76-.75-9.7,4.89-12.11,5.29-2.35,12.41,2.2,14.51-5.46,1.09-4.02-.8-9.69,3.26-12.55,3.97-2.83,11.63,2.4,14.09-3.34,1.77-4.4-3.52-9.35-1.42-13.79,1.09-2.46,3.83-3.34,6.17-4.34,3.69-1.62,9.6-3.54,7.66-8.82-.88-2.54-4.02-3.98-5.11-6.45-1.37-3.41,1.51-5.65,4.44-6.89,4.33-1.84,10.57-2.61,7.59-8.85-1.98-4.07-6.62-9.11-1.96-13.06,3.69-2.96,15.6-.75,16.33-7.42.42-4.82-7.71-6.61-9.17-10.59-1.27-3.33,1.84-5.83,4.59-7.07,4.85-2.22,7.44-5.74,4.9-10.88-1.61-3.23-5.96-9.54-.38-11.36,2.93-.99,6.79.22,9.53-1.61,4.58-3.29-4.71-10.79-6-13.81-3.45-7.73,14.09-8.5,7.71-17.3h0Z"/>
  </g>
</svg>