<?xml version="1.0" encoding="UTF-8"?>
<svg id="Layer_2" data-name="Layer 2" xmlns="http://www.w3.org/2000/svg" viewBox="0 0 654.5 606.12">
  <defs>
    <style>
      .cls-1 {
        fill:#808080
      }
    </style>
  </defs>
  <g id="Layer_1-2" data-name="Layer 1">
    <path class="cls-1" d="m1.39,313.56c3.16-6.84,11.89-9.83,16.94-15.03,16.94-17.02,27.97-36.9,43.07-55.32,5.5-6.94,11.63-13.93,20.89-14.91,10.31-1.1,20.12,4.16,30.51,3.85,13.04-.31,27.95-3.09,40.63.74,1.58.52,2.56,1.44,3.71,2.17,9.26-6.55,22.8-13.33,23.19-25.1.19-6.34-.57-12.08-1.27-17.82-6.96-1.72-13.33-6.03-19.17-10.19-6.08-4.28-13.73-8.14-18.88-13.31-7.46-7.59-14.67-17.44-19.21-27.01-4.02-8.21-1.92-19.5-6.94-26.61-1.53-2.42-2.68-3.52-5.55-3.35-3.3.1-5.55,3.42-8.81,3.78-.29-1.63-.09-3.59.77-5,1.39-2.25,4.4-3.49,6.91-3.81,12.01-1.36,15.63,13.93,18.98,22.11,3.95,9.95,9.62,18.9,18.09,25.48,7.37,5.46,13.88,11.99,21.61,16.85,4.24,2.46,8.59,3.92,13.09,5.14.31-1.67.38-3.23.96-4.9,7.32-20.68,23.5-44.37,44.6-52.33,11.06-4.14,11.53-11.84,15.03-21.56,4.21-11.17,12.25-15.72,23.16-19.69,8.66-3.04,17.18-6.75,25.79-10.17-10.65-5.34-14.19-16.7-19.34-26.56-5.5-10.29-15.07-24.53-8.04-36.23,8.66-14.19,16.7,6.92,17.61,14.19,1.63,11.39,5.17,27.64,16.8,33.62l15.94,7.87h29.67l15.75-7.87c11.77-5.98,15.31-22.23,16.75-33.62,1.03-7.27,9.07-28.38,17.61-14.19,7.11,11.7-2.34,25.94-7.75,36.23-5.39,9.86-8.85,21.22-19.53,26.56,8.64,3.42,17.13,7.13,25.84,10.17,10.94,3.97,18.9,8.52,23.07,19.69,3.52,9.71,4.02,17.42,15.07,21.56,21.08,7.97,37.4,31.66,44.51,52.33.67,1.67.72,3.23,1.08,4.9,4.45-1.22,8.8-2.61,13.06-5.14,7.75-4.86,14.33-11.39,21.58-16.85,8.57-6.58,14.17-15.53,18.21-25.48,3.23-8.18,6.94-23.47,18.76-22.11,2.66.31,5.67,1.56,7.03,3.81.91,1.41,1.03,3.37.74,5-3.09-.36-5.34-3.68-8.66-3.78-2.99-.17-4.07.93-5.69,3.35-5.03,7.11-2.97,18.4-6.87,26.61-4.64,9.57-11.68,19.43-19.31,27.01-5.15,5.17-12.78,9.02-18.81,13.31-5.81,4.16-12.2,8.47-19.29,10.19-.5,5.74-1.34,11.48-1.12,17.82.36,11.77,13.83,18.5,23.12,25.1,1.22-.74,2.2-1.65,3.73-2.17,12.75-3.83,27.59-1.05,40.68-.74,10.34.31,20.12-4.95,30.48-3.85,9.38.98,15.41,7.97,20.96,14.91,14.95,18.42,26.03,38.31,43.02,55.32,5.05,5.19,13.76,8.18,16.97,15.03,2.37,5.07,1.72,11.24-1.91,15.72-1.7,2.04-5.55,5.21-8.54,4.48-5.84-1.32.72-11.87,3.88-10.89-2.06-.6-4.36-6.44-5.48-8.26-2.54-3.54-5.1-6.67-8.57-9.42-6.87-5.5-15.38-9.28-21.03-16.15-8.2-10.08-18.88-44.51-34.79-44.51-8.54,0-17.04,2.17-25.56,2.06-11.48-.02-16.32,3.54-26.37,8.33-2.03.93-3.97,1.7-6.1,2.46,4.12,5.98,7.47,12.44,9.4,19.53,12.87,48.76,9.12,101.59-2.82,150.48,16.27-4.72,31.68-2.66,42.38,11.51,10.22,13.35,15.94,29.89,22.64,45.06,3.71,8.11,9.05,14.28,13.23,21.84,3.66,6.73,10.02,17.35,7.54,25.1-1.27,4.16-12.54,14.74-9.43,4.54,1.68-5.38,6.39-7.63.79-12.04-4.79-3.76-10.91-4.5-14.04-10.1-5.5-9.76-3.93-23.43-8.61-34.03-5.62-12.99-14.05-25.53-26.39-32.88-9.74-5.86-20.65-4.09-31.27-4.93h-.55c-.7,2.51-1.24,5.02-2.08,7.46-11.87,40.46-26.85,84.25-55.56,116.08-14.64,16.05-36.06,31.32-57.28,37.11-19.24,5.15-48.69,5.84-67.64-1.03h-23.35c-19.05,6.87-48.31,6.17-67.6,1.03-21.37-5.79-42.83-21.06-57.26-37.11-28.76-31.83-43.79-75.61-55.8-116.08-.72-2.44-1.24-4.9-1.94-7.46h-.55c-10.62.84-21.61-.93-31.3,4.93-12.25,7.35-20.82,19.89-26.42,32.88-4.5,10.6-3.09,24.27-8.42,34.03-3.2,5.6-9.43,6.34-14.17,10.1-5.6,4.4-.93,6.65.72,12.04,3.16,10.19-8.13-.38-9.38-4.54-2.47-7.75,3.83-18.38,7.56-25.1,4.23-7.56,9.62-13.73,13.16-21.84,6.75-15.17,12.51-31.71,22.66-45.06,10.74-14.16,26.1-16.22,42.35-11.51-11.84-48.89-15.63-101.72-2.75-150.48,1.87-7.08,5.31-13.55,9.31-19.53-1.94-.77-3.95-1.53-5.96-2.46-10.14-4.79-15.02-8.35-26.49-8.33-8.49.12-16.89-2.06-25.58-2.06-15.89,0-26.54,34.43-34.65,44.51-5.77,6.87-14.12,10.65-21.11,16.15-3.47,2.75-6.05,5.88-8.49,9.42-1.17,1.82-3.52,7.66-5.53,8.26,3.09-.98,9.71,9.57,3.8,10.89-2.96.74-6.82-2.44-8.54-4.48-3.59-4.48-4.12-10.65-1.82-15.72h0Z"/>
  </g>
</svg>