<?xml version="1.0" encoding="UTF-8"?>
<svg id="Layer_2" data-name="Layer 2" xmlns="http://www.w3.org/2000/svg" viewBox="0 0 190.24 654.5">
  <defs>
    <style>
      .cls-1 {
        fill:#808080
      }
    </style>
  </defs>
  <g id="Layer_1-2" data-name="Layer 1">
    <path class="cls-1" d="m91.4,87.47c-2.4,2.16-6.02,3.68-7.89,3.45-4.52-.72-2.23-6.39-2.85-9.26-.83-3.41-2.76.91-3.18,2.09-.99,2.46.18,5.95-1.64,8.08-1.59,1.86-4.14,1.07-6.19.34-4.55-1.71-9.55-3.15-14.56-2.18-2.84.55-6.02,2.98-8.92,1.88-3.26-1.26-5.46-5.43-7.98-7.78-2.91-2.7-6.6-5.96-6.85-10.24-.26-5.35-1.41-10.66-1.94-16.01,0,0-1.27-4.55-.99-5.77.99-3.57,4.57-6.52,4.57-10.35,0-4.48-3.43-.56-4.6,1.1-4.29,5.99-4.72,13.27-3.14,20.33l1.33,6.98c1.82,10.66,5.69,24.99,17.29,28.97,5.58,1.93,11.65.19,17.37.31,4.33.07,8.42,1.29,12.67,1.57-1.06-.05,1.06,11.28,1.21,12.35.73,3.91,1.82,7.83,3.95,11.23,2.38,3.76,5.64,5.9,9.25,8.42,2.32,1.69,1.75,4.86,2.66,7.22.18.38,1.94,4.01,1.94,4.01-9.53,2.9-20.34,7.64-30.46,7.83-4.29.11-7.86-3.11-11.55-4.74-1.11-.48-4.04-1.86-5.15-.83-1.94,1.89,2.23,3.14,3.26,3.79,8.54,4.97,17.04,5.81,26.71,5.27,2.02-.16,4.37-1.82,6.14-2.65,2.58-1.18,5.13-2.36,7.86-3.04,5.05-1.29,7.86-.5,10.33,4.4-1.36,3.07-4.01,7.05-1.79,10.32-.68-.95-8.27,3.3-9.15,3.76-3.29,1.82-5.58,4.05-9.3,4.97-3.89.98-7.91.69-11.83.53-4.72-.15-15.7-.22-16.18,6.51-.12,1.13,5.99-1.45,6.35-1.6,6.39-2.01,13.3.06,19.74-1.82,6.39-1.84,12.09-5.79,18.58-7.12l1.64-.72s0,.8.75,2.17c.69,1.4.28.83,1.52,2.35l1.32,1.54c-4.24,3.6-1.93,8.5-4.5,12.48-2.4,3.61-7.03,5.19-10.44,7.59-6.11,3.49-12.77,4.55-19.46,1.63-2.48-1.1-9.13-6.71-11.98-5.78-3.14,1.06,3.64,5.78,4.73,6.43,4.77,3.11,10.66,5.16,16.4,4.86,7.3-.46,13.19-4.9,19.76-7.55,1.26-.46,2.43-1.18,3.49-1.98,1.44,1.67,2,3.38,1.7,5.54-.23,2.18-.23,4.99-1.79,6.76-1.82,2.04-5.15,1.66-7.25,3.45-3.59,3.04-8.31,4.32-12.94,4.32s-9.4-2.01-14.25-2.19c-1.79-.08-4.14.15-5.86.94-1.16.51-4,2.62-1.77,3.83.46.23,3.14-.36,3.67-.43,2.9-.4,5.69-.99,8.54-.29,2.73.66,5.28,1.95,8.19,1.82,2.2-.15,22.74-7.6,23.22-6.69,1.37,3.2,4.33,6.75,2.73,10.45-1.32,2.99-6.11,4.76-4.76,8.61-.28-.5-10.21.7-11.2.8-3.87.38-7.69.69-11.48-.27-5.39-1.27-10.49-3.18-15.7-4.86-3.19-.98-6.65-.3-9.83-1.46-2.15,4.17,6.64,5.36,9.07,5.78,5.11.87,9.78,3.23,14.68,4.59,5.49,1.63,10.57.87,16.23.51,2.43-.14,3.58-.41,4.97-.51,1.44-.06,2.78-.54,2.78-.54,0,0,1.06.54,1.62,2.55.5,2.01,1.27,4.29.58,6.39-.4,1.55-1.54,3.45-2.43,4.86-.56.95,0,.83-1.37,1.5-.86.44-2.7.38-3.67.34-8.98-.59-17.11,4.82-26.19,4.27-4.72-.3-8.62.65-12.16-3.22-2.61-3-5.79-5.79-9.56-7.3-1.59-.65-4-.74-3.71,1.54.15,2.28,4.02,4.13,5.66,5.33,2.88,2.03,5.41,4.68,8.72,6.24,1.57.74,3.11.65,4.78.74,5.59.32,10.31,1.13,15.85.17,5.86-1,11.6-2.79,17.49-3.19l1.8-.1s.25.22.53,2.2c.36,2.36,1.69,4.67,1.84,6.94,0,1.82-1.7,3.42-2.55,4.92-.86,1.85-1.62,3.7-1.52,5.81-8.64.17-17.03,3.47-25.58,3.91-3.66.21-8.92-1.41-12.29-2.71-1.99-.82-3.82-2.13-5.56-3.39-2.18-1.54-4.35-3.44-6.77-4.58-4.04-1.74-2.78,2.64-.73,4.58,1.85,1.85,4.37,3.18,6.67,4.3,4.22,2.01,8.95,4.1,13.65,4.81,4.07.59,8.24.22,12.36-.47,3.96-.74,8.03-2.48,12.23-2.07,5.73.51,4.4,7.74,6.49,11.43-.88-1.57-5.81,3.01-6.22,3.56-.4.4-4.52,7.1-2.88,6.97-3.14.25-6.35,1.16-9.42,2.09-3.94,1.22-7.28,3.49-11.45,4.35-4.29.81-8.65.81-13.04.21-3.46-.5-7.07-2.02-10.41-3.04-1.36-.46-10.13-4.55-9.96-1.04.08,2.23,5.91,4.75,7.58,5.46,3.19,1.5,6.64,2.45,10.06,3.06,2.96.53,6.02.83,8.95.65,7.08-.58,13.77-3.26,20.4-5.67,2.38-.81,4.73-1.8,7.28-1.8-.83,3.77.68,8.13-1.74,11.43-1.72,2.32-3.99,4.02-5.16,6.71-1.16,2.58-1.56,5.34-4.14,7.02-3.95,2.6-9.48,1.89-13.85,3.38-7.81,2.76-16.26,4.4-24.09.99-3.14-1.37-8.26-6.4-11.98-5.01-1.93.73-.76,3.21.46,4.1,0,0-.38-.22-.46-.25,2.2,1.62,5.96,2.53,8.46,3.49,2.99,1.08,5.96,1.93,9.07,2.52,6.68,1.13,13.05.17,19.66-1.41,2.91-.69,5.87-1.51,8.79-2.15,1.26-.3,7.41-.48,7.98-1.21-1.41,1.85-1.7,3.77-3.64,5.28-2.66,2.17-4.82,3.46-6.04,6.77-.18.53-2.12,6.73-1.9,6.73-3.97.41-8.35.22-12.13-.94-6.21-1.94-11.53-.35-17.64,1.49-3.94,1.13-8.06,1.87-12.1,2.66-1.32.26-3.9.5-3.57,2.5.2,1.69,1.75,1.29,2.96,1.14,2.98-.4,5.68-1.95,8.57-2.43,4.17-.65,8.51-.65,12.59-.94,4.19-.35,8.31-.61,12.36.51,1.84.5,4.48,2.22,6.3,2.02.2.31.76.99.88,1.26,1.37,2.99-1.79,5.31-3.16,7.4-2.42,3.48-3.29,7.94-6.25,10.99-2.42,2.52-5.94,3.74-9.13,5.1-4.14,1.82-8.69,3.31-13.27,2.91-4.48-.38-8.57-2.45-12.64-4.25-1.89-.83-4.14-3.46-6.4-2.2-2.98,1.62.84,3.48,2.47,3.82,2.28.51,3.94,1.95,6.07,2.91,4.32,1.89,9.08,1.29,13.65.96,4.4-.31,8.98-.13,13.24-1.56,2.28-.69,4.4-1.37,6.7-2.02.69,2.12,2.55,6.02,1.62,8.22-.81,2.15-4.72,1.57-5.74,3.9-1.29,3.04-2.68,4.32-5.93,5.13-4.66,1.17-9.58,2.41-14.38,2.53-5.46.1-10.92-1.03-15.92-3-.83-.35-8.85-4.29-9.17-3.87-1.31,1.61-2.32,1.22-.4,3.33,1.09,1.29,2.47,2.45,4.02,3.23,4.96,2.66,12.4,3.91,18.04,4.19,6.35.35,12.77-.76,19.13-1.16,1.19-.07.96-.84,1.19-.07.18.81.23,1.42,0,3.21-.58,3.64.73,7.53-.5,11.07-1.18,3.71-5.41,5.18-6.49,8.95-.1.35,0,1.82-.1,1.97-1.84,2.38-8.24,2.03-10.9,2.09-3.11.08-5.31-1.67-8.03-2.98-1.39-.69-2.45-1.84-2.45-1.84-4.2-4.48-6.75-9.55-12.56-11.95-1.09,1.62.91,4.73,1.56,6.27,1.99,4.45,5.15,8.47,9.17,11.28,5.1,3.62,14.43,4.52,20.62,3.66,3.99-.55,3.82,1.8,4.47,5.24.2,1.18,3.31,8.08,3.31,8.08-2.67,1.95-6.19,5.08-6.07,8.79,0-.75-8.54,2.75-9.07,2.94-4.42,1.77-8.22,3.09-12.97,3.82-2.32.31-4.52.45-6.82-.08-2.17-.51-4.14-1.94-6.22-2.27-4.01-.73-.58,2.88,1.21,3.74,4.78,2.4,10.47,3.14,15.78,2.53,5.41-.65,9.78-3.41,14.91-4.82,2-.5,1.47-2.46,2-.5.61,2.5,2.17,4.75,2.96,7.2,1.03,3.18.03,4.6-1.44,7.33-.79,1.42-1.14,3.11-1.01,4.78.1,2.07,1.09,3.97,2.17,5.69-1.07-1.72-7.31,2.88-8.17,3.37-5.15,2.71-11.61,1.52-16.86-.03-4.37-1.29-9.43-5.68-14.13-5.06-2,.23-4.67,1.92-2.81,4.1,1.39,1.67,4.1,1.52,6.07,1.77,2.58.36,5.11.98,7.66,1.62,10.16,2.57,19.11,2.68,29.29-.41.07.25.59.78.59,1.16.08.53,2.52,1.64,3.28,2.08-2.28,1.52-1.59,5.31-.76,7.4.71,1.82,2.32,3.99,1.59,6.07-.83,2.04-3.44,2.75-4.52,4.58-2.85,4.73-9.25,8.52-14.68,8.82-1.59.1-2.32.56-4.67.3-3.14-.38-6.3-2.05-9.56-1.76-6.26.58,1.22,5.11,3.77,5.35,7.23.63,13.57-2.68,20.32-4.45,1.03-.27,2.98-.99,5.08-2.55,1.97-1.46,4.15-3.08,5.99-4.75-2.56,2.4-.86,9.33.5,11.86.5.88-6.27,8.51-7.3,9.7-2.56,2.98-5.56,5.59-9.2,7.08-2.99,1.18-6.19,1.47-9.35,1.44-1.67-.05-3.39-.5-4.95-.43-.27,0-4.02.88-2.61,1.9,2.53,1.82,5.73,2.33,8.75,2.12,5.73-.3,11.73-2.27,16.07-6.14,3.13-2.75,5.48-6.52,8.85-9.07,3.79-2.75,5.96-.78,9.41,1.09-1.7.66-2.4,3.13-2.46,4.75-.1,1.87,1.7,4.25,1.03,5.89-.5.98-1.67.71-2.52,1.21-3.29,1.97-4.73,8.08-6.7,11.22-2.53,4.14-5.89,7.63-10.47,9.38-2.15.83-10.54-.53-10.36,3.33.35,4.48,8.95.88,10.81.17,1.79-.76,3.81-1.49,5.54-2.46,3.84-2.14,6.45-5.51,9.1-8.8.6-.7,6.42-8.01,6.49-7.98,1.26.26,1.75,3.11,2.17,4.17,1.7,4.1,5.08,6.45,7.89,9.65.45.45,4.65,4.4,4.55,4.67-2.02,6.82-4.25,13.43-6.55,20.14-2.48,7.31-4.19,14.87-3.54,22.6.46,5.43,2.02,9.65.38,15.14-1.33,4.4-1.52,8.98-.94,13.5.45,3.11.94,9.15,4.28,10.54,5.38,2.33.94-8.75.71-10.89-.83-8.22,2.05-16.35,1.52-24.62-.75-12.89,1.97-24.31,6.07-36.37.94-2.88,1.09-6.49,3.82-8.37,3.21-2.25,7.64-1.26,11.27-.65,1.22.18,4.48,7.17,5.16,8.34,2.27,3.69,4.78,7.36,7.31,10.85,4.07,5.41,6.34,10.51,8.16,16.91,1.22,4.43,2.93,8.72,4.14,13.1,1.19,3.94,3.04,7.65,6.49,10.03,3.61,2.4,8.19,4.14,12.44,3.66,4.28-.5,4.58-2.55.3-3.57-3.38-.79-7.23-2.07-9.6-4.7-2.86-3.19-5.41-6.04-6.59-10.26-2.02-7.5-1.67-15.62-5.51-22.57-2.5-4.59-5.61-8.98-8.75-13.19-4.49-5.87-10.44-11.98-12.56-19.28-1.37-3.94-2.09-8.04-2.73-12.13-.2-1.17-1.37-13.5-2.48-13.35,3.77-.56,7.53,1.71,11.35,1.67,3.52,0,7.02-1.18,10.59-1.82,3.23-.48,6.37-.38,9.63-.21,2.29.16,5.96,1.02,7.75-.94,2.94-3.31-4.14-3.87-5.91-3.96-2.86-.21-5.71.08-8.62.22-4.75.2-9.18-.71-13.77-.86-2.68-.05-8.97,1.26-9.68-2.56-.35-1.61,1.44-7.23.31-8.26,3.56,3.1,12.13,2.96,16.6,3.29,6.11.45,11.77-1.44,17.72-2.43,1.74-.31,8.69.08,9.6-1.54,1.79-2.78-4.82-1.94-5.77-1.94-3.38.07-6.67.15-9.93.2-6.57.18-13.17.18-19.57-.73-5.28-.76-10.77-.93-11.38-7.55-.27-2.76,1.16-6.69-.53-9.12.16.18,6.7.5,7.43.63,2.13.26,4.63-.2,6.69.4,6.22,1.89,10.74,7.61,17.67,7.51,2.23-.03,5.13-.79,3.49-3.52-1.47-2.48-6.52-2.1-8.87-3.13-6.6-2.8-13.77-3.66-20.87-4.04-2.81-.26-7.12.33-9.18-2.15-2-2.45-1.7-6.07.15-8.59,2.37-3.19,5.51.53,8.62,1.14,4.2.83,8.64-.12,13.01.48,3.41.51,7.58-.13,11.04-1.09,1.11-.28,8.61-3.64,5.58-5.61-1.03-.69-2.76.56-3.67.94-4.86,2.2-12.49,2.23-17.8,1.69-3.14-.36-7.2-.61-10.23-1.72-1.9-.69-2.05-.48-3.66-.99-1.39-.48-1.6-.56-1.6-.56-1.8-.5-2.22-4.52-2.51-6.06-.18-1.35-.32-2.56,0-3.95.18-.56,2.07-4.39,1.82-4.6,3.33,2.98,9.61,2.75,13.72,3.84,4.19,1.03,8.65-.08,12.91.38,4.43.46,8.8,1.75,13.2,1.97,2.51.11,4.88-1.51,2.42-3.82-3.76-3.47-11.19-2.75-15.87-2.56-6.19.3-12.54.99-18.57-.99-1.79-.63-3.9-.88-5.43-1.99-2.22-1.52-1.04-3.16-1.79-5.36-1.29-3.62-4.43-5.34-3.64-9.63.79-4.17,3.46-7.65,4.83-11.58-.13.33,10.99,5.77,12.1,6.2,4.63,1.82,9.6,2.28,14.45,2.53,2.61.15,5.39-.25,7.94.3,2.18.46,4.38,1.29,6.59,1.93,1.11.31,4.25,1.09,4.96-.1,1.49-2.3-3.94-3.89-5.2-4.14-9.43-1.69-18.66-2.93-27.8-5.71-2.55-.71-4.68-2.12-7.02-3.28-1.62-.76-4.4-1.24-5.43-2.88-2-3.1-1.17-5.87.56-8.82,1.99-3.13,3.54-6.39,5.36-9.66,2.2,2.37,5.05,4.09,7.61,6.07,3.19,2.43,6.72,4.64,10.56,5.91,4.09,1.36,8.37,2.04,12.39,3.57,1.79.65,3.64,1.44,5.54,1.72,1.93.31,5.61-.4,3.26-3.19.2-.17.46-.17.65-.4-12.29-1.44-22.37-8.64-32.73-14.66-3.19-1.85-7.33-4-8.45-7.76-1.79-5.48,5.49-10.13,7.84-14.46,0,0,1.06-.04,1.97,1.34,3.11,4.9,8.92,7.41,13.83,10.18,4.8,2.66,9.51,5.49,14.84,6.78,2.25.56,10.09,2.28,11.58-.63,1.47-3.08-5.31-1.66-6.49-1.76-3.28-.2-6.34-1.26-9.22-2.55-5.89-2.67-11.42-6.97-15.12-12.2-1.65-2.33-3.74-4.07-5.74-6.07-.91-.88-2.52-1.69-3.04-2.71-.65-.98-.48-3.51-.65-4.68-.22-3.47,1.17-5.61,3.27-8.21,1.27-1.41,4.01-4.15,3.84-6.22.21,2.35,4.88,4.42,6.72,5.29,1.59.71,3.21,1.19,4.8,1.95,4.82,2.25,9.86,7.48,12.82,11.73,1.47,1.93,2.12,4.48,4.02,6.06,1.89,1.52,5.11,1.34,6.52,3.46-.23-.31-.35-1.84-.65-2.52-.44-.84-1.09-1.67-1.79-2.43-1.47-1.85-3.41-3.31-4.85-5.25-3.46-4.9-6.1-10.09-11.12-13.67-3.49-2.47-7.4-4.22-10.84-6.54-.81-.46-1.56-.98-2.23-1.54-2.86-2.02-3.81-6.88-2.1-10.03.73-1.41,2.23-1.79,3.49-2.76,1.52-1.17,1.37-1.97,1.97-3.74,4.07,2.78,7.3,6.47,11.6,9.05,4.22,2.53,8.89,4.43,13.67,5.86,2.42.71,4.05,2.18,6.72,2.18,3.64,0,3.64-.23,5.43-.35,2.02-.1,3.01-1.93,3.97-3.52-2.53.91-6.02-.17-8.52-.76-6.87-1.56-14.73-3.52-19.96-8.52-2.84-2.63-5.67-4.98-8.72-7.4-1.26-.98.33-6.25.53-7.64.94-7.4,2.85-12.66,6.7-18.99.35-.56,10.03,7.82,10.85,8.6,4.17,4.04,8.92,6.7,13.92,9.58,3.84,2.32,8.12,4.25,12.69,3.57,1.42-.18,3.62-.36,4.73-1.21,1.56-1.11,1.47-2.58-.61-2.98-1.49-.3-3.34.4-4.9.4-5.76-.05-11.07-3.01-15.55-6.5-2.1-1.72-3.97-3.64-5.96-5.4-2.38-2.29-5.35-3.87-7.4-6.49-1.62-1.99-3.05-3.36-4.93-5.03-2.03-1.77-.53-4.52-.4-6.75.1-1.97-.43-3.91.02-5.86.26-.79,3.04-7.79,3.04-7.79,4.85-.78,9.6,2.91,12.94,6.01,3.94,3.67,7.94,7.13,12.74,9.68,4.78,2.48,10.01,2.95,14.94,4.93,1.17.4,2.46,1.72,3.79,1.27,3.95-1.14-1.17-4.07-2.53-4.62-3.57-1.29-7.25-2.17-10.62-4.02-3.43-1.84-6.34-4.33-9.33-6.63-4.29-3.28-8.84-6.16-13.55-8.7-1.47-.75-3.33-1.32-3.86-3.05-.64-1.8.27-4.46.07-6.44-.45-5.83.76-9.96,2.93-15.35.33-.79,15.85,7.36,17.27,8.86,2.14,2.2,4.68,3.85,6.77,6.28,3.31,4,6.86,8.5,12.72,7.4,2.48-.48,4.9-2.14,1.13-3.19-2.99-.79-5.81-1.93-7.89-4.24-4.42-4.89-8.31-9.98-13.77-13.81-3.76-2.58-7.99-4.21-11.68-6.77-2.73-1.86-3.84-6.85-4.4-9.94-.5-2.41.12-6.08,2.7-7.09,3.49-1.27,6.29,2.9,8.74,4.48,3.21,1.97,6.74,3.49,10.19,5.12,4.58,2.28,9.41,4.89,14.74,5.11,2.55.02,9.17.47,10.94-1.98,1.06-1.53-.73-3.43-2.38-3.43-3.81-.07-7.56.95-11.32.22-3.52-.69-6.87-2.32-9.9-4.21-5.31-3.36-11.62-4.86-16.6-8.88-3.94-3.11-7.83-9.26-7.11-14.57.26-1.76,1.94-3.05,2.5-4.7.6-1.71.41-3.68.79-5.43-.33,1.56,8.57,5.01,9.83,5.35,4,1.13,8.16,1.76,12.06,2.92,3.72.98,6.9,2.31,10.8,2.09,4.75-.31,8.42-.8,13.02-2.77,3.57-1.56,2.58-3.15-1.11-2.92-5.46.34-10.84.64-16.26-.57-6.19-1.42-12.15-3.23-18.37-4.25-3.52-.57-7.41-2.11-8.42-5.77-1.21-4.46-3.64-10.09-2.84-14.72.59-3.29.96-5.92,5.03-5.65,4.27.3,8.41,2.67,12.46,3.71,4.55,1.14,2.99.04,7.59,1.79,2.27.91,4.62,1.52,6.82,2.54,1.67.78,3.46,2.23,5.38,1.75,1.98-.45,3.13-2.51,1.69-4.25-1.64-2.01-4.82-2.13-7.2-2.43-3.04-.44-6.16-.95-9.23-1.69-3.26-.86-6.4-2.18-9.56-3.05-4.63-1.26-10.99-.95-13.01-6.19-1.04-2.71-.18-5.59.26-8.4.08-.31,1.11-6.64-.45-6.07,5.24-1.82,10.69,1.75,16.08,1.14,2.94-.32,5.76-1.36,8.65-1.78-.08-.08-.16-.08-.28-.09,1.67.02,3.26-.82,4.9-1.01,4.14-.59,9.56,2.6,13.35.7,2.43-1.19,3.03-4.61-.3-4.91-2.07-.19-4.25.91-6.34,1.07-8.27.72-16.45-.06-24.74.46-3.72.22-7.43.51-11.15.65-2.2-4.48-5.31-6.68-9.71-8.69-1.87-.88.15-2.51.73-3.56.98-1.82,1.29-3.95,2.65-5.54,2.51-2.92,7.66-2.2,11.12-3.03,5.2-1.29,10.54-2.77,16.05-1.9,3.06.51,6.57,2.2,9.63.76,2.38-1.1,3.67-4.28.25-5.02-2.22-.56-4.53-.29-6.82-.17-6.82.38-13.62,1.75-20.55,2.2-2.43.11-6.02,1.37-8.39.68-1.74-.6-2.05-3.33-2.8-4.76-1.08-1.94-2.43-3.66-4.02-5.12-.83-.72-3.34-1.97-3.28-3.23.18-1.03,1.17-1.29.64-5.91-.76-8.19-1.62-18.55-8.26-24.43-3.28-2.94-8.09-4.89-8.5-9.89-.43-5.47-1.14-10.89-1.56-16.35-.23-3.42-.83-6.86-.3-10.28,1.24-7.51,5.11-13.96,5.43-21.73.15-5.62,1.66-9.61,4.2-14.49,2.47-4.75,5.71-9.3,11.45-9.94,4.07-.47,10.99.88,12.86-4.13,1.79-4.78-8.34-3.41-10.18-3.15-3.71.46-7.61,1.14-10.79,3.23-3.74,2.5-5.19,6.54-7.55,10.2-2.9,4.34-4.86,8.88-5.84,14.07-.81,4.62-.99,9.41-2.05,14.07-1.82,7.97-4.22,15.5-3.95,23.84.11,3.39,1.08,6.88.43,10.26-.33,1.22-.5,2.75-1.34,3.68-1.36-.69-2.32-2.09-3.67-2.9-1.64-.97-6.78-3.02-7.36.35-.38,2.36,2.4,2.89,3.58,4.25,1.67,1.91.45,4.21-1.67,6.03h0Z"/>
  </g>
</svg>