<?xml version="1.0" encoding="UTF-8"?>
<svg id="Layer_2" data-name="Layer 2" xmlns="http://www.w3.org/2000/svg" viewBox="0 0 654.5 622.44">
  <defs>
    <style>
      .cls-1 {
        fill:#808080
      }
    </style>
  </defs>
  <g id="Layer_1-2" data-name="Layer 1">
    <path class="cls-1" d="m397.26,566.59c-5.37,13.72-12.86,23.92-22.79,33.15-10.45,9.72-20.11,17.67-35.56,15.11-4.34-.72-9.64,1.19-13.84,3.23-9.58,4.62-18.4,6.61-28.5.66-8.17-4.81-17.22-1.22-25.68.89-8.02,1.98-15.3,2.73-22.03-3.75-6.22-5.98-14.81-5.47-22.51-5.41-10.92.08-19.84-2.5-25.92-12.11-.69-1.08-1.59-2.39-2.72-2.81-19.67-7.37-30.37-24.59-43.98-38.87-6.66-7-8.45-13.12-7.2-22.14,2.58-18.58,6.14-37.01,10.62-56.96-16.5,3.69-30.23,10.39-45.06,13.37-9.59,1.94-16.94.09-26.06-3.5-23.73-9.36-37.17-31.09-57.65-43.98-3.75-2.34-5.33-6.86-5.69-11.47-.77-10.42-3.92-19.76-12.12-26.82-5.86-5.03-3.22-11.39-2.25-17.23,1.89-11.51,2.89-22.53-5.75-32.36-4.8-5.47-1.89-11.76.72-17.31,4.11-8.8,5.05-17.97,2.33-26.95-2.23-7.39-.5-12.78,4.53-17.86,8.5-8.58,13.33-20.65,25.45-25.97,4.25-1.84,6.5-5.42,1.5-10.16-14.56-13.81-17.48-32.43-17.37-50.87.09-16.53,2.14-33.45,6.16-49.48,8.08-32.07,7.59-63.06-4-94.19-5.33-14.34-9.2-29.42-5-45.14C19.93,6.36,25.33-.63,38.83.04c63.68,3.13,114.91,30.82,157.7,76.88,54.53,58.67,90.27,127.89,116.14,202.84,1,2.91,2.11,5.78,2.89,8.73,1.64,6.12,5.11,8.92,9.44,2.97,7.94-10.95,17.48-10.92,26.73-3.83,7.86,6.03,7.06,14.26,1.5,22.67-3.83,5.76.66,8.25,6.08,9.81,23.62,6.75,47.49,12.78,70.65,20.89,55.26,19.39,108.66,42.65,154.34,80.55,32.45,26.92,51.63,62.59,66.1,101.24,4.2,11.19,1.31,23.26,3.89,34.97,1.72,7.84-7.58,11.9-14.97,14.01-11.3,3.22-23.23,2.39-33.84-.7-36.76-10.7-70.96-4.26-106.14,8.41-21.12,7.61-43.82,13.75-67.79,8.5-14.12-3.09-24.45-10.45-34.29-21.39h0Z"/>
  </g>
</svg>