<?xml version="1.0" encoding="UTF-8"?>
<svg id="Layer_2" data-name="Layer 2" xmlns="http://www.w3.org/2000/svg" viewBox="0 0 601.79 654.5">
  <defs>
    <style>
      .cls-1 {
        fill:#808080
      }
    </style>
  </defs>
  <g id="Layer_1-2" data-name="Layer 1">
    <path class="cls-1" d="m2.44,435.95c6-9.33,16.92,3.91,23.28-5.65,4.84-7.31-2.44-18.29,4.69-25.08,8.34-7.88,17.11-16.27,21.5-27.2,7.75-19.46,2.02-45.91,6.02-66.87,3.95-20.55,21.62-14.38,36.09-20.73.97-.42,3.15-.7,5.54-1.01,3.6-10.85,8.08-21.43,14.52-30.99,11.07-16.4,34.07-28.11,37.86-49.02,1.4-6.99,1.04-14.2.78-21.37-7.13-6.12-16.84-15.21-17.94-17.46-5.05-9.69-4.39-21.74-4.8-32.49-.3-12.41,2.4-32.96-2.09-44.36-1.96-5.23-6.26-9.46-10.27-13.19-3.54-3.26-7.45-6.01-10.84-9.32-4.12-3.99-1.31-9.04-4.95-12.54-4.54-4.33-11.14-1.6-14.24-8.26-2.22-4.61-.83-10.15,3.9-12.46,7.36-3.57,10.34,6.89,13.86,11.3,9.3,11.4,22.33,16.27,29.79,30.11,6.59,12.23,9.23,26.25,9.77,40.13.68,11.24-4.34,22.77-2.2,33.81,1.33,6.76,6.39,11.17,11.35,15.73,3.63-16.87,13.31-32.36,27.53-41.74,12.06-7.96,28.4-8.63,34.39-23.81,3.02-7.26,4.51-17.31,10.62-22.75,4.27-3.99,18.92-3.11,20.61-5.47,9.39-12.59,5.65-17.54-2.19-29.64-2.82-6.48-6.3-13.42-7.81-20.39-2.55-12.1,4.69-38.53,15.74-17.1,2.79,5.36,3.62,11.71,5.1,17.52,2.17,8.32,4.07,22.23,14.7,22.23h24.2s3.36,0,7.9,0h24.24c10.6,0,12.5-13.91,14.69-22.23,1.49-5.81,2.14-12.15,4.96-17.52,11.17-21.43,18.41,5,15.74,17.1-1.45,6.97-4.84,13.91-7.75,20.39-7.9,12.1-11.46,17.05-2.23,29.64,1.93,2.36,16.34,1.48,20.75,5.47,5.91,5.44,7.51,15.49,10.4,22.75,6.14,15.18,22.57,15.85,34.54,23.81,14.16,9.38,23.85,24.87,27.55,41.69,4.9-4.51,10.07-8.91,11.31-15.67,2.2-11.04-2.79-22.57-2.26-33.81.66-13.89,3.24-27.91,9.83-40.13,7.51-13.84,20.55-18.71,29.82-30.11,3.53-4.4,6.39-14.87,13.81-11.3,4.81,2.31,6.05,7.85,3.98,12.46-3.21,6.66-9.72,3.94-14.26,8.26-3.73,3.5-.83,8.55-4.83,12.54-3.47,3.32-7.42,6.06-10.96,9.32-3.98,3.73-8.17,7.96-10.27,13.19-4.57,11.4-1.79,31.95-2.11,44.36-.36,10.75.18,22.8-4.8,32.49-1.07,2.25-10.79,11.35-17.92,17.46-.26,7.18-.65,14.38.57,21.37,3.86,20.91,26.81,32.62,37.95,49.02,6.51,9.56,10.92,20.13,14.64,30.99,2.4.31,4.48.59,5.54,1.01,14.41,6.35,32.14.18,35.96,20.73,4.25,20.96-1.59,47.41,6.13,66.87,4.33,10.93,13.12,19.33,21.44,27.2,7.22,6.79-.03,17.77,4.69,25.08,6.36,9.56,17.23-3.68,23.37,5.65,3.27,5.1,3.56,16.69-1.51,21.14-7.01,6.35-9.47-1.97-14.16-6.48-6.24-6.01-14.31-5.05-19.69-12.59-4.8-6.76-6.53-15.62-11.23-22.51-9.05-13.13-19.97-25.47-23.49-41.77-3.38-15.67.92-32.08-2.44-47.8-1.4-6.71-10.66-12.54-18.82-15.08,8.28,42.65,2.81,87.42-4.96,129.88,14.52,6.84,30.26,22.93,27.32,36.3-3.54,16.32-9.33,32.13-16.96,46.97-6.45,12.72-17.85,22.75-18.03,37.72-.17,15.91,5.29,34.28,13.6,47.47,5.12,8.32,14.02,16.19,14.56,26.71.47,8.63-6.39,19.54-16.04,18.53-14.94-1.48-11.35-23.68-11.83-33.79-.35-7-1.8-14.9-3.95-21.55-2.64-7.95-9.91-12.18-12.62-19.77-7.24-21.45,8.91-35.83,19.12-52.65,9.37-15.26,14.91-32.96,8.59-50.23-.68-2.02-6.23-4.74-9.86-6.58-3.51,14.85-7.37,29.69-12.06,44.12-11.91,35.7-25.99,73.94-52.12,101.38-31.62,33.27-81.55,35.05-121.46,17.93h-20.88c-39.88,17.12-89.83,15.34-121.49-17.93-26.13-27.44-40.24-65.68-52.12-101.38-4.73-14.43-8.55-29.28-12.03-44.2-3.7,1.92-9.24,4.64-9.98,6.66-6.21,17.28-.74,34.98,8.59,50.23,10.3,16.82,26.4,31.2,19.14,52.65-2.67,7.59-9.88,11.81-12.55,19.77-2.18,6.66-3.63,14.56-4.04,21.55-.55,10.11,3.11,32.31-11.88,33.79-9.51,1.01-16.36-9.9-15.98-18.53.57-10.52,9.48-18.39,14.68-26.71,8.2-13.19,13.72-31.56,13.54-47.47-.21-14.98-11.61-25-18.08-37.72-7.57-14.84-13.49-30.65-17.1-46.97-2.8-13.37,13.03-29.46,27.5-36.3-7.67-42.46-13.19-87.23-4.91-129.88-8.16,2.49-17.4,8.37-18.8,15.08-3.41,15.73.87,32.13-2.46,47.8-3.47,16.3-14.47,28.63-23.49,41.77-4.75,6.89-6.48,15.75-11.26,22.51-5.4,7.54-13.42,6.58-19.69,12.59-4.78,4.51-6.96,12.82-14.13,6.48-5.12-4.46-4.87-16.04-1.51-21.14h0Z"/>
  </g>
</svg>