<?xml version="1.0" encoding="UTF-8"?>
<svg id="Layer_2" data-name="Layer 2" xmlns="http://www.w3.org/2000/svg" viewBox="0 0 505.64 654.5">
  <defs>
    <style>
      .cls-1 {
        fill:#808080
      }
    </style>
  </defs>
  <g id="Layer_1-2" data-name="Layer 1">
    <path class="cls-1" d="m304.87,597.46c-18.15,16.12-9.69,40.02-20.29,57.04-13.87-1.35-13.41-10.6-11.27-19.28,13.87-58.73-1.35-112.73-25.25-165.71-24.39-50.07-44.82-101.97-61.1-155.23-2.71-9.36-3.83-23.33-14.88-23.9-14.2-.68-15.67,15.22-18.49,25.14-9.36,34.38-18.04,68.65-49.04,91.2-7.55,5.52-10.15,27.28-24.24,12.17-12.17-13.08,7.1-18.49,13.64-24.35,45.09-43.29,50.39-103.94,68.43-157.82,7.78-23.33-15.89-17.25-27.62-13.87-36.75,10.26-73.05,20.74-111.49,9.24-8.68-2.59-27.17,9.58-22.55-12.06,3.38-16.8,18.37-8.79,28.29-5.64,47.57,14.88,88.04-7.55,135.27-20.52-45.09-25.36-90.97-18.04-112.73,15.67-13.98-9.47,3.16-24.01-6.2-34.95-17.7,3.49-12.96-5.52-28.97-28.07-11.27-15.89,11.27-45.09,28.63-67.64C64.65,54.11,63.97,28.07,58,0c20.07,18.04,12.96,40.81,11.27,62.11,182.62-8.79,372.91,61.89,424.99,266.83,32.13,126.48-4.4,237.75-101.68,302.34-45.09,30.44-48.14,29.65-77.22-18.94-3.04-5.07-6.76-9.81-10.48-14.88Z"/>
  </g>
</svg>