<?xml version="1.0" encoding="UTF-8"?>
<svg id="Layer_2" data-name="Layer 2" xmlns="http://www.w3.org/2000/svg" viewBox="0 0 654.5 354.9">
  <defs>
    <style>
      .cls-1 {
        fill:#808080
      }
    </style>
  </defs>
  <g id="Layer_1-2" data-name="Layer 1">
    <path class="cls-1" d="m99.01,244.76c1.43-2.57,1.62-3.42,1.9-3.42,21.12-2.42,39.95-14.45,51.03-32.59,1.92-2.62,4.27-4.9,6.94-6.75,19.57-13.49,34.59-32.78,56.06-43.52,9.5-4.85,6.84-13.87,9.5-21.19.57-1.71-1.33-3.99-3.61-4.85-8.88-3.98-18.11-7.16-27.56-9.5-9.09-1.68-18.48,0-26.42,4.75-11.35,6.31-23.24,11.59-35.54,15.77-5.82,1.43-10.45,5.85-12.16,11.59-6.84,23-22.9,40.1-38.01,57.96-5.3,6.14-11.76,11.17-19,14.82-5.13,2.76-10.07,3.14-13.59-2.66,1.81-3.9,5.13-4.66,7.98-5.99,13.79-5.15,24.51-16.26,29.17-30.22,6.46-19.95,21.19-36.2,31.74-54.45,3.28-5,8.23-8.67,13.97-10.36,9.5-3.14,17.77-7.7,26.51-11.59-1.62-5.7-5.42-3.14-8.17-3.23-5.89,0-11.97.48-17.77,0-20.9-2.19-41.05-1.81-58.63,11.88-1.45.76-3.03,1.24-4.66,1.43-15.87,5.32-33.92,5.99-44.18,22.9-2.19,3.71-8.08,5.23-12.45,7.41-3.69,2.5-8.72,1.53-11.22-2.16-.35-.51-.63-1.06-.85-1.64,1.9-4.66,6.65-5.42,10.17-7.6,10.21-4.92,19.4-11.72,27.08-20.05,6.16-6.23,14.03-10.49,22.62-12.26,14.44-4.37,28.51-10.36,42.76-14.92,16.63-5.32,34.11-1.71,51.22-.95,23.19.95,46.28,9.5,71.17,0-7.51-9.25-16.9-16.8-27.56-22.14-12.36-4.11-24.09-9.89-34.87-17.2-7.82-4.27-17.01-5.26-25.56-2.76-25.47,2.38-48.94-5.61-72.31-13.78-4.65-1.6-8.76-4.46-11.88-8.27-1.7-2.22-1.7-5.29,0-7.51,1.81-3.23,4.28-2.47,6.84-1.14,2.57,1.33,3.42,1.05,4.37,2.19,12.92,14.92,30.03,13.21,47.51,13.4,19.87.12,39.7,1.87,59.29,5.23,10.94,2.8,21.36,7.32,30.88,13.4,14.54,8.08,28.51,17.1,42.85,25.94,13.51,9.02,23.2,22.73,27.18,38.48,3.9-.67,3.61-3.14,3.99-4.85,1.9-9.5,12.73-17.2,8.46-26.13-5.14-7.51-11.32-14.26-18.34-20.05-7.6-8.46-16.44-15.77-24.42-23.76-3.5-3.32-7.73-5.76-12.35-7.13-14.09-3.92-27.77-9.17-40.86-15.68-7.89-4.66-16.06-1.14-23.47,0-8.49,1.29-17.08,1.74-25.66,1.33-14.54-1.05-29.08-2.85-43.52-5.04-4.72-1.11-9.26-2.87-13.49-5.23-4.37-1.9-7.6-4.85-5.32-10.07,2.28-5.23,6.46-1.33,9.5,0,4.13,1.36,8.11,3.14,11.88,5.32,7.05,4.09,15.47,5.09,23.28,2.76,9.52-2.24,19.34-2.91,29.08-2,7.56.67,15.15.67,22.71,0,18.37-2.24,36.99,1.35,53.21,10.26,16.44,6.91,32.13,15.48,46.85,25.56,22.25,14.94,32.74,42.23,26.23,68.23-1.39,3.5-1.94,7.27-1.62,11.02,3.9,16.34,8.17,32.59,11.59,49.03.52,5.22,5.17,9.04,10.39,8.52.34-.03.68-.09,1.01-.16,20.47-3.41,41.43,2.08,57.58,15.11,4.27-6.45,7.77-13.37,10.45-20.62,2.57-4.75,4.56-9.5,7.32-14.44,7.7-12.54,11.5-15.11,25.09-11.5,9.5,2.57,14.16-.48,16.91-9.5,1.44-4.08,3.35-7.97,5.7-11.59,9.5-17.29,17.2-20.33,35.82-14.06,17.28,6.23,33.87,14.22,49.51,23.85.95.48,1.62,1.52,2.57,1.81,31.74,9.5,46.66,36.39,62.05,62.33,10.03,15.33,18.08,31.87,23.95,49.22,3.52,11.78,15.2,17.86,25.75,23.57,4.18,2.19,9.5,2.47,10.93,8.27-14.47,5.27-30.62-.83-38.01-14.35-12.64-20.81-25.94-41.05-36.96-62.71-6.08-12.07-13.68-23.38-19-36.01-1.42-3.53-4.24-6.32-7.79-7.7l-80.96-35.35c-5.42,11.88-7.98,23.95-13.68,34.78-2.85,5.7,3.9,13.49,12.64,15.11,4.18.67,8.65,0,12.92.48,25.94,2.57,49.89,9.5,67.37,30.6,3.15,3.59,6.72,6.78,10.64,9.5,13.02,9.5,14.06,24.8,20.43,37.44,3.9,7.7-2.09,16.82-11.59,22.52-10.77,4.82-22.1,8.27-33.73,10.26,0,24.71,5.89,45.99,28.51,59.2,2.44,1.4,3.79,4.14,3.42,6.94-13.53,2.77-27.11-4.55-32.21-17.39-5.69-12.33-10.54-25.03-14.54-38.01-1.25-6.7-7.62-11.17-14.35-10.07-33.58,1.32-67.18-2.16-99.77-10.36-2.67-.29-5.31-.83-7.89-1.62-11.31-4.37-21.85-7.89-31.55,3.99-3.73,5.07-10.87,6.15-15.94,2.42-.1-.08-.2-.15-.31-.23-6.84-6.56-14.63-4.37-22.23-5.8-7.3-1.76-15.01-.16-21,4.37-10.62,6.72-24.64,3.97-31.93-6.27-6.75-12.54-19-16.44-28.51-25.37-10.02-8.85-17.64-20.1-22.14-32.69-2.38-7.98-5.89-7.51-11.59-3.52-21.95,15.49-41.81,33.45-62.24,50.84-23.97,20.26-45.09,43.65-62.81,69.56-9.69,14.16-23.95,16.91-39.91,15.39-2.28,0-4.18-1.71-4.09-3.99.1-2.28,1.71-2.66,2.95-3.71.81-.68,1.8-1.11,2.85-1.24,17.54-1.29,32.88-12.3,39.72-28.51,7.46-13.91,18.11-25.86,31.07-34.87,2.12-1.2,3.91-2.89,5.23-4.94,9.5-18.24,26.89-27.56,41.62-40,16.15-13.49,31.74-27.65,47.51-41.43,5.61-4.75,3.71-10.45,3.33-17.67-24.82,12.96-47.31,29.98-66.51,50.36-5.45,6.05-11.29,11.73-17.48,17.01-10.1,9.28-25.04,10.97-36.96,4.18Zm140.92-120.77c1.33-2.47,1.05-4.37-1.43-5.13-2.47-.76-4.66,0-4.94,2,.1,2.07,1.07,4,2.66,5.32,2.95,2.47,2.76-1.43,3.71-2.19Zm179.3,52.26c4.56-2,5.89-4.47,5.23-8.08,0-.67-1.71-1.71-1.9-1.52-3.14,1.71-3.52,4.75-3.33,9.6Z"/>
  </g>
</svg>