<?xml version="1.0" encoding="UTF-8"?>
<svg id="Layer_2" data-name="Layer 2" xmlns="http://www.w3.org/2000/svg" viewBox="0 0 654.5 393.98">
  <defs>
    <style>
      .cls-1 {
        fill:#808080
      }
    </style>
  </defs>
  <g id="Layer_1-2" data-name="Layer 1">
    <path class="cls-1" d="m.42,349.11c.66,1.22.55,1.99,1.24,1.88.66-.06.75-1.59,1.33-2.65.55-1.02,1.8-1.51,2.19-.38.37,1.15.44,1.15,1.23,1.25,1.22.13,1.05-.18,1.88-.39.88-.17,1.07-.57,1.36.46.27,1.05,1.1,3.24,1.88,5.04.77,1.81,1.54,2.08,1.54,2.08,0,0-1.24-2.56-1.43-3.5-.18-.98.11-1.33.56-1.61.48-.31.36-.81,0-1.81-.85-2.37.06-3.6,2.76-4.83,1.24-.57,1.41-.57,2.09-.39.67.19.76.2,1.63.1.84-.1,1.63-.28,2.19-.28s.36-.77.92-.09c.57.66.68.85,1.81.66,1.14-.19,1.14-.29,2.28,0,1.15.29,1.33.75,2.2,1.12.83.39,1.23.3,2.27.78,1.07.46,1.15.37,2.22.83,1.04.47,1.68,1.35,2.25,2.19.58.84.86,1.35.4,2.18-.48.86-1.06,1.13-.19,1.52.84.39,3.12.47,4.18.56,1.05.11,1.31.2,2.27.29.94.1,1.35-.38,1.91-.38s1.44-.27,1.7.29c.3.56,1.14.64,1.61.18.47-.47,1.43-.57,1.84-.1.36.47.83-.65,1.69-.38.85.29,1.33,0,2.08.56.77.58.48.97-.18,1.33-.66.4-.48.86.48.67.96-.18,1.05-.75,1.99-.55.96.17.94.17,2-.12,1.06-.26,1.42-.58,1.8-.96.38-.37.32-.74,1.82-.64,1.5.09,1.69-.12,1.33.64-.39.77,0,.7.85.48.85-.18,1.33-.65,2.29-1.12.94-.47,1.99-.56,2.84-.68.85-.09.88-.39.97.47.09.84,1.2.77,1.78.29.56-.46.76-.38,1.42-.56.68-.2,2.39-.29,2.67.27.28.56-.11.67.75.67s.4-.56,1.54-.46c1.12.09,1.23.46,1.23.46,0,0,.29.1.85.3.55.17.66.74.46,1.12-.18.38-.85.96-.09.96s1.52-.39,2.48-.29c.94.09,1.7-.2,2.74-.38,1.03-.18,1.44-.38,2.39-1.06.92-.66.56-.85,1.31-.85s1.44-.56,1.71-.18c.28.38.76.57,1.15.18.38-.37.17-.83,1.7-.95,1.51-.09,2.18-.95,2.09-.39-.11.59-.85,1.42-.28,1.25.56-.18,1.03-1.12,1.79-1.33.77-.21.77-.28,1.81-.39,1.05-.1,1.13-.19.76.46-.39.69-.56,1.15.46.59,1.04-.59,1.71-1.06,2.86-1.06s1.62,0,2.85.29c1.24.26,3.05-.39,4.56-.29,1.51.11,2.07.11,2.18.67.07.42-1.18,1.25-1.9,1.7.78-.47,2.3-1.3,3.14-1.21,1.14.09,1.14.56,1.05,1.32-.1.77.18.39-.47,1.14-.66.77-.11.38.47.38s1.44-.75,2.56-.75,2.19-.59,3.42-1.81c1.24-1.26,2.18-2.19,3.42-2.75,1.24-.57,1.33-.4,1.06.1-.29.46-.39,1.61-.39,1.61,0,0,1.9-2.93,2.47-3.42.58-.46,1.06-1.32,1.53-1.06.46.31-.12,1.43.36,1.06.49-.38.94-1.39,1.83-2.28,1.4-1.43,1.32.57,1.32.57,0,0,1.43-2.29,2.45-3.13,1.07-.87,1.84-.87,1.44,0-.38.84-.57,1.51-.57,1.51,0,0,1.72-1.7,3.15-3.14,1.41-1.42.84-1.42,1.61-1.33.75.09.18,1.43.18,1.43,0,0,.85-1.22,1.52-1.9.68-.66.96-.38,1.52-.38s.67-.48,1.14-1.05c.48-.58.86-1.05,1.69-.86.88.19.31,1.53.31,1.53,0,0,1.32-1.71,1.79-2.38.47-.66,1.34-1.33,1.82-1.33.46,0,.75.18.46.77-.29.56-.46,1.33-.46,1.33,0,0,1.39-3.24,2.45-3.72,1.07-.46,1.7-.83,1.8-.28.11.58-.47,1.33-.1,1.14.39-.17,1.9-2.83,2.86-3.1.96-.32,1.52-.71,1.81-.32.28.38-.29.94-.29.94,0,0,1.34-1.49,2.56-2.27,1.25-.77,2.37-1.32,2.76-1.32s.39.94.39.94c0,0,1.21-1.68,2.09-1.91.85-.16,1.04-.37,1.8-.1.76.33,2-.17,3.04-.94,1.04-.74,1.8-1.24,2.85-1.06,1.05.21,1.91.12,3.13-.55,1.24-.66,1.62-.75,2.38-.85.76-.12.19-.02,1.14.19.94.18,1.33-.09,2.09-.39.76-.28,1.31-.09,1.9.48.56.56.75,1.13,1.71.09.95-1.07,1.14-1.5,1.69-2,.57-.46.77-.74.96-1.24.17-.47,1.14-1.12,1.14-1.12,0,0,2.46-.2,3.23-.09.76.09.19,1.24,0,1.6-.18.39-.96,1.73-1.35,3.32-.36,1.61,0,2.37-.17,3.8-.18,1.44-.67,3.81-.95,5.32-.27,1.51-1.51,4.93-1.51,4.93,0,0,.57-.46,1.3-2,.82-1.73,1.84-4.62,2.5-5.97,1.23-2.57,2.56-5.62,4.55-8.37,2-2.74,2.2-3.49,2.94-3.57.75-.12.47,1,.57,1.77.1.77.76,19.67,1.06,20.13.28.48,1.12-14.24.93-17.28-.17-3.04-.18-5.77.19-6.17.38-.39,1.05-2.17,1.42-2.54.4-.39,1.05.18,1.05.18,0,0-.09-1.64.29-2.28.38-.69,1.23-2.08,1.23-2.08h.57l.38-1.15s.39-.28.87-1.43c.45-1.12,1.13-2.06,1.69-3.12.58-1.08,1.45-2.85,1.71-3.24.31-.39,1.15-.29,1.15-.29,0,0-.02-1.42.47-2.07.49-.68,1.42-2.75,2.2-3.79.74-1.06.73-1.63,1.23-1.53.46.1.28,0,.56-.97.27-.93,2.28-4.26,2.65-4.47.38-.16.38-.08.95-.16.57-.11.28-.39.39-1.35.09-.95,1.41-2.66,2-3.6.56-.95.56-1.24.96-1.24s.75-.06.75-.75,1.51-3.61,2.29-4.37c.76-.77,1.06-1.33,1.34-1.79.28-.48,1.04-2.35,1.51-2.57.48-.2.68.27.95-.29.29-.56.1-.97.29-1.62.18-.65,1.91-2.56,2.68-3.6.74-1.05.82-2.29,1.4-2.38.56-.11.77.1.85-.75.09-.86,2.46-4.56,3.87-6.73,1.43-2.19,3.52-6,3.9-6.45.4-.49,2.01-.77,2.86-.77s2.36-.58,3.43-.67c1.05-.1,2.75,0,4.26-.28,1.51-.27,6.28-1.13,8.93-1.35,2.66-.18,8-.37,10.64-.55,2.65-.19,7.12-.94,7.8-.94s1.62,1.4,2.47,2.57c.85,1.12,6.08,8.52,7.78,11.09,1.69,2.56,4.17,7.42,7.03,11.28,2.85,3.9,6.19,7.51,7.22,9.11,1.05,1.65,3.25,4.77,4.18,6.46.94,1.7,2,3.24,2.77,3.99.75.77,1.22,1.14,1.32,1.7.1.59-.29,1.7-.19,2.48.1.76.77,1.99,1.44,2.94.67.97,1.8,2.09,3.13,2.75,1.32.67,1.32,1.43.86,1.62-.49.19-3.89.47-4.85.47s-2.65-.1-3.6-.1-1.83,0-2.38.1c-.58.1-1.05.74-1.05.74,0,0-1.05.2-1.92-.36-.84-.58-2.36-.6-3.22-.47-.86.1-1.33-.56-2-1.26-.65-.64-1.61-1.24-2.37-1.62-.75-.34-1.21-1.4-1.91-1.3-.65.09-1.32-.1-2.07-.76-.76-.68-1.33-1.23-2.19-1.15-.86.1-2.09-.08-2.67-.58-.55-.47-2.55-.27-3.7-.07-1.12.18-1.21.07-1.33.83-.08.77-2.36,1.81-3.51,3.15-1.15,1.32-2.1,1.82-2.66,3.5-.57,1.71.1,3.44.1,3.44,0,0-.47-2.37,1.05-3.82,1.52-1.41,2.18-1.03,2.66-.55.46.46.65.18,1.33-.19.68-.39.29-.18,1.42,0,1.13.19,1.63.16,2.65-.47,1.04-.68,1.04-.48,1.72-.87.65-.37.93,0,1.23.39.28.41,2.19,2.66,2.19,2.66,0,0-1.44-2.09-.68-2.94.76-.84,1.82-.38,2.66.09.85.48,1.14.58,1.7.68.59.09.85.57,1.33.95.48.38,1.07.48,1.34.94.29.47.17.77-.19,1.24-.38.46-.77.46-.28,1.23.47.76.4.17.47.85.1.66-.39.77.1,1.06.47.27,1.22.48,2.29.57,1.05.09,1.62-.09,2.18.19.58.28,1.34,0,1.34,0,0,0,0-.13,1.14-.49,1.13-.38.38-.67,1.32-.48.95.21.87.87.87.87.84.11,1.03-.39,2.07-.27,1.04.1,1.05.38,1.54-.29.46-.68.28-1.16.94-.97.67.19,1.03-.36,1.41-.64.39-.28.19-.28.68,0,.48.28,1.12-.28,1.12-.28,0,0,1.24-.3,1.05.28-.17.55-1.12,1.51-1.12,1.51,0,0,1.41-1.23,2.26-1.61.87-.39,1.63-.18,1.63.26,0,.47-.84.88-.28,1.24.58.38.96.4,1.71,0,.76-.39,1.52-.74,2.07-.85.59-.1.68-.09,1.15-.27.48-.2.57-.2.84-.56.3-.38.3-.59,1.06-.5.77.13.95,0,1.32-.66.4-.65.98-1.35.98-.75,0,.56,0,.67.76-.1.76-.78,1.11-1.55,1.61-.78.47.78-.1,1.26.66.98.76-.3.77-1.07,1.53-1.62.75-.57,1.52-.1,2.28.28.76.36,1.41.27,2.57.56,1.13.29,2.57-.38,4.18-1.04.76-.32,5.9-1.84,10.11-4.16,4.47-2.42,7.99-5.65,8.97-6.66.8-.84,2.49-2.84,3.49-4.97,1.39-2.92,2.03-6.04,2.03-6.04,0,0,.76.19,1.7-.27.96-.48.87-.48,1.61-1.15.76-.67.85-.2.76.56-.09.77-1.97,3.7-2.64,5.62-.69,1.89-1.9,6.06-1.9,6.06,0,0,3.42-8.36,5.32-10.92,1.91-2.56,1.91-2.08,2.83-2.08.98,0,1.26-.28,1.53.29.28.57.68.93.2,1.79-.47.84-.56.67-.28,1.63.28.93-.02,1.13.36,1.69.4.6.77.5.77,1.15v1.79c0,.58,0,1.04-.08,1.63-.12.58-.48.55-.29,1.23.17.65-.19,1.21.29,2,.46.77.46,1.12.74,1.8.3.67.1,1.63-.28,2.35-.38.77-1.79,4.47-2.27,5.33-.49.87-1.52,3.31-1.52,3.31,0,0-.76.3-.76,1.27s-.29,1.59-.29,1.59c0,0-.85.29-.95.77-.1.46-.28,1.31-.67,1.52-.38.16,0,.54,0,1.22s-.65.84-1.03,1.63c-.41.75-.96.75-.96,1.6s-.77,2-1.06,2.46c-.28.47-1.05.49-1.05.97s-.17,1.71-.67,1.99c-.47.28-.93,0-.84.84.09.86-.58,1.62-1.35,2-.75.39-1.21.65-1.21,1.81s-.47,3.14-1.15,3.89c-.67.75-1.89,1.12-1.06,1.41.85.31,1.35.38,1.25,1.33-.1.94-1.33,2.47-2,3.03-.66.57-1.04,1.15-1.04,1.15,0,0-.67,1.12-1.23,1.51-.57.39-.95.27-.95.77s-.95,1.81-.95,1.81c0,0-.67.93-1.16,1.32-.47.39-.55.85-.55.85,0,0-.19.85-.95,1.13-.77.3-.84,0-.77.69.1.65-.19,1.11-.65,1.39-.46.32-1.34.32-1.25.97.11.66.39,1.35-.38,1.72-.78.35-1.7.27-1.61.83.09.56,0,1.05-.47,1.35-.48.26-1.26.57-1.13.93.09.38,0,1.24-.67,1.53-.67.27-1.07.36-.87.83.2.49-.57,1.43-1.33,1.72-.76.27-1.13.47-.76,1.04.39.59-.25,1.82-.93,1.99-.68.19-1.16.32-1.54.48-.35.21-.16.35.21.77.36.38-.41,1.44-1.07,1.52-.66.1-1.52-.41-1.42.28.09.66.48.19.77.96.29.75-.85,1.29-1.13,1.79-.28.48-1.33.56-1.7,1.24-.4.66-.11.86-.5,1.23-.36.39-1.5,1.62-2.05,2.17-.58.6-1.16,1.25-1.93,1.81-.75.59-1.12,1.05-1.89,1.62-.75.57-.85.85-.85,1.42s-1.05,1.22-1.81,1.51c-.76.3-1.62.97-1.9,1.41-.29.49-.57.97-.57.97,0,0-1.04.68-1.8.77-.76.09-.76-.1-.95.28-.19.36-1.51,1.28-2.29,1.64-.76.4-1.89,1.26-2.47,1.63-.57.36-3.23.41-4.55.5-1.34.12-2.18.77-2.18.77,0,0-1.42-.27-2.57.16-1.15.49-1.82.71-2.58.88-.76.17-1.62.48-2.66-.17-1.03-.71-1.8-.49-2.29,0-.46.46-2.27.35-3.13-.41-.85-.74-2.56-1.8-4.17-2.38-1.6-.57-5.03-1.29-6.44-1.79-1.45-.47-5.15-.27-6.38-.27s-1.15-.76-2.09-.56c-.95.18-1.63,1.11-1.71,1.79-.08.66-1.8,1.13-3.04,1.79-1.23.69-4.27,2.95-5.22,4.09-.95,1.15-1.42,2.77-1.14,3.43.29.64.41.17.76-.7.39-.84,1.26-2.25,2.59-2.43,1.34-.21,1.51-.12,2.08.65.56.77,1.9.56,2.86.56s2.27-.09,3.4-.17c1.14-.12.77-.12,1.53-.66.77-.59.96-.78,1.62-.29.66.47,1.23.95,1.42,1.5.19.6,2,4.47,2.47,4.94.46.49-.19-1.32-.46-2.65-.3-1.33-.97-3.12-.88-4.47.12-1.31.3-2.28,1.35-1.62,1.05.68,1.51.87,2.09.31.55-.59,1.61-.77,1.89-.11.28.67,1.91,1.79,3.05,1.9,1.12.11.56,1.03.56,1.7s.37,1.54-.39,1.82c-.75.29-1.3.85-.94.85s1.43-.49,2,0c.56.48,1.05.36,1.33.95.29.56.41.46,1.44.46s2.46-.36,3.13-.55c.65-.21,1.41-.98,2.16-1.06.78-.1,1.15-.1,1.93-.19.76-.11,1.42-.67,1.7-.11.29.58.09,1.55.96,1.05.85-.46.66-1.22,1.82-1.69,1.12-.48,1.22-.1,1.69-.1s.86-.48.86-.48c0,0,.68-.4,1.23-.49.58-.08.87-.84.87-.84,0,0,.93-.39,1.51-.29.58.12,1.34-.16,2.09-.36.76-.18,1.41.38,2.47,0,1.04-.38,1.14-.86,1.14-.09s.17,1.9,1.14.65c.94-1.23,1.61-2,1.61-2,0,0,.57.1.95-.66.39-.76.29-1.24.77-1.73.46-.44,1.41-1.5,1.41-1.5,0,0,.29-.38,1.04-.47.78-.11,1.16-.38,1.26-1.15.08-.75.76-.64,1.32-.84.57-.17.09-.09.67-.55.57-.46.19-.18,1.04-.46.86-.29.49-.42,1.24-.77.77-.37.66-.68,1.33-.76.67-.1.86-.21.96.46.09.65,0,.85.38,1.53.37.65.37.56.37,1.23s.85-.95,1.14-1.7c.3-.77.09-1.14.48-1.45.37-.29,1.7-.46,1.99-1.7.28-1.2.48-3.4.68-4.09.19-.65.94-1.52.94-.56s.57.94.57.94c0,0,.37-1.4.48-2.65.1-1.23.37-4.08.68-3.23.25.84.62,1.7.63,2.08-.03-.42-.13-2.93.21-3.5.37-.66.56-1.79,1.14-.66.56,1.14.46,2.75.46,2.75,0,0,.29-3.6.39-4.47.09-.85,1.04-2.6,1.8-3.06.76-.45.56-1.11.94-.37.39.77.75-1.12.75-1.12,0,0,.61.19.78-.39.18-.56.29-.58.18-1.24-.08-.64.39-2.17,1.16-2.17s.76.09.93-1.16c.2-1.22.4-1.77,1.23-1.77s.76.18,1.15-.87c.39-1.03,0-1.14.59-1.32.54-.17,1.11-.3,1.11-.94,0-.68.87-2.39,1.44-2.88.54-.45.27-.45.83-.35.58.08.67-.86.85-1.25.19-.38.49-.25.97-.17.46.09.46-.08.46-.88,0-.74.76-1.4,1.14-1.4s.19-.1.47-.96c.3-.85.3-1.12.87-1.05.55.09.47,0,.83-1.04.38-1.05,2.3-3.05,2.85-3.33.58-.28.96-.83.96.1s.11,1.81.47,1.05c.4-.75.46-.75.96-.75s0,.08.48.75c.46.67.16-.57,1.03-.67.86-.08,1.04.67,1.13,1.24.11.57.78,14.8.78,14.8,0,0,.56-11.77.67-12.88.09-1.15.58-3.44.92-4.47.39-1.07.69-1.54.87-2.46.19-.98.19-1.35.94-1.35h.95s-.18-2.56.12-3.71c.27-1.15.75-2.09,1.21-1.77.48.26.87,0,.87,0,0,0-.11-2.12.3-3.33.37-1.24.28-1.44.94-1.15.65.28.46.1.46-1.05s1.07-3.98,1.52-4.92c.46-.97.31-1.05.67-.97.39.1.76.18.58-.66-.19-.84-.11-1.91.46-2.36.57-.47.65-.97.76-1.53.09-.55.56-.65.56-1.4s-.37-1.34.09-1.43c.49-.11,1.34-.37,2.3-.87.96-.46,1.15-.57,1.24-1.6.1-1.05.16-.87,1.22-1.34,1.05-.46,2.48-1.51,3.91-2.45,1.42-.97,2.07-1.52,2.46-2.84.38-1.35.28-1.17,1.63-2.69,1.31-1.5,2.27-2.17,4.64-5.2s3.65-5.2,4.52-6.63c.85-1.45,1.8-2.21,2.85-3.54,1.03-1.3,1.26-2.18,1.08-3.29-.18-1.15-.55-2.77-.18-2.77.41,0,1.72.29,2.1.85.37.56.85.94,1.42.85.56-.09.27-.76.95-1.24.65-.46,1.51.17,3.13-.46,1.62-.67,2.86-1.32,5.5-2.76,2.68-1.41,3.9-1.8,4.67-2,.76-.18,1.23-1.03,2.28-1.22,1.04-.2,1.53.57.57,1.13-.94.55-3.81,2.58-6.19,4.46-2.37,1.91-3.12,2.74-3.6,4.09-.47,1.34-.58,1.15,0,1.62.59.47.55,1.8.48,2.36-.09.57.28,1.82,0,2.47-.28.67-.28,1.96.67,3.32,1.64,2.37,2.74,3.2,5.69,4.31,2.01.77,4.31.77,5.82.52,2.53-.33,3.5-.46,5.01-.46s2.67.84,3.25,1.21c.55.38,1.22.49,2.35.49s6.95-.73,9.32-1.14c.91-.14,4.87-1.54,8.06-3.43,5.8-3.44,10.69-6.49,13.6-8.07,4.75-2.56,12.55-6.45,14.82-6.74,2.29-.26,1.52-.46,1.63.12.09.56-.11,1.12-.11,1.12l-.66,1.06s.85-.85,1.12-.47c.3.39.2,1.32.3,1.99.08.66.46,1.05.46,1.71s.12,1.62.12,1.99c0,.39-.19,1.13-.19,1.13,0,0,.83-.67.83-.19s.1,1.06.1,1.72.11,1.81.11,1.81c0,0,.46.37.46,1.21s-.76,1.24-.38,1.52c.38.29.57,0,.76.46.19.5.29,2.41.39,3.06.11.65-.57,1.03-1.06.28-.46-.78-1.02-.75-1.33-1.13-.27-.39-.66-2.1-1.23-2.21-.55-.09-.94.3-.66,1.07.28.76,1.15,1.23,1.51,2.19.38.95.57.95.87,1.43.28.46.38-.21.83-.3.48-.09,1.16-.3,1.45.48.28.76.57,1.21.67,1.98.07.77.16,1.15.07,1.54-.07.39-.19.25.57.55.78.26.29,2.38.29,2.38,0,0,.2.29.68,1.04.45.75.17,1.62.17,1.62,0,0,.7.66.77,1.62.08.94,1.22,4.34,1.34,5.2.1.87.65,4.75.65,4.75,0,0,0-4.34-.38-6.24-.39-1.94-.66-3.9-.46-4.48.19-.56.36-.76.65,0,.27.77-.76.38.48.87,1.23.46.95.56,1.15,1.12.16.55.45.31.74,1.06.28.75,0,.47.38,1.04.39.59-.29.09.69.67.92.58.46.36,1.04,1.33.56.96.37,1.4.66,1.9.29.46.29,2,.37,2.74.12.77-.26,1.15.12,1.15.36,0,.65-.95.75-.39.11.58.29,1.24.18,1.63-.08.39-.28,1.41-.28,1.41,0,0,.2-.95.77-.84.57.08.78.55.57,1.22-.19.66-.28,1.8-.28,1.8,0,0,.67-1.7.96-1.24.26.47.46,1.43.56,2,.08.58.08,1.79.08,1.79,0,0,1.06-1.21,1.16-.84.09.36.29,1.82.29,2.66s.56.39.64.77c.11.35.12.84.3,1.59.18.77.57,1.8.57,1.8,0,0,.75-1.13.75-.65,0,.46.69,2.55.57,3.4-.09.87.39,0,.76.87.4.83.69,1.99.69,2.36s-.49,1.22-.11,1.59c.39.4.57.13.57.59v1.14s0-.28.85-.17c.85.08.76.63.85,1.02.12.39.12,0,1.06,0s.18.1,1.03.48c.87.38.58.1,1.43.18.86.1,1.25-.93,1.44-1.51.17-.56-.19-.77.56-.86.75-.09,0,0-.19-.75-.19-.77,0-1.25-.56-1.25s-.19-.96-.48-1.52q-.29-.57-.76-.86c-.47-.27-.07-.95-.47-1.7-.38-.74-1.04-1.29-1.51-1.62-.47-.27-.39-1.32-.68-1.78-.27-.48-.46-.48-.46-.48l-.57-1.41-.39-.19s-.57-.96-.57-2.09-.36-1.14-.75-1.25c-.39-.08-.86-.84-.86-1.31s.47-1.24,0-1.24-.57-.95-.57-1.61-.86-.86-.86-.86c0,0-.56-.76-.56-1.33s-.18-.09-.57-.47c-.38-.37-.57-1.99-.57-1.99,0,0-.17.46-.47-.39-.28-.86-.75-1.71-1.13-3.03-.4-1.32-.77-3.31-1.24-5.31-.47-2-.18-3.59-.18-4.18s-.68-.84-.68-.84c0,0-.36-4.84-.18-5.41.18-.57.09-1.24.68-1.54.57-.27.66.39.93,1.26.28.85.57,1.21.47,1.79-.09.56-.09,1.04-.09,1.04,0,0,.37-.65.76-.27.39.37.59,1.34.59,1.99s-.2,1.26.18,1.15c.37-.12.36-.76.84.28.48,1.04,1.13,1.89,1.42,2.84.29.94.09,2.96,0,3.42-.09.48.39-.96,1.07-.49.65.49.83,2.29.95,2.85.09.58-.39,1.63-.39,1.63,0,0,1.04-.74,1.22-.29.19.49.48,1.61.38,2.11-.09.46-.56.94-.56.94,0,0,1.14-.68,1.14-.11s-.28,2.1-.67,3.04c-.39.94.28,0,1.13-.18.86-.18.77.76.96,1.43.18.66,0,.94,0,1.53,0,.55.84-.41.84-.41,0,0,.58,1.9.87,2.28.28.39.56,1.91.39,2.47-.2.57,1.03.27,1.23.86.19.56.64,1.12.64,1.99s-.45,1.51.12,1.81c.57.28.08,0,.65.84.58.87.68,1.72.96,2.85.29,1.14.76,2.18.86,2.59.1.36.39,3.03.39,3.03,0,0,.57-3.5,0-4.55-.56-1.07-.96-3.24-.96-4.47s.46-1.33,1.13-.77c.67.59.67,1.63.67,2.09,0,.5.58-.47,1.15-.47s.66.84.84,1.23c.19.39.47.39.86.39s.09.38.47.75c.39.38.11.21.85.38.76.2,1.32.5,2,1.71.66,1.25,1.7,3.23,1.7,4.19s-.38,1.4.18,1.4.67,0,.78.39c.09.38.18.65.18,1.51s-.29,1.06.46.96c.78-.1.49-1.15,1.07-.1.57,1.05,1.05,1.33,1.14,2.19.08.85.16,2.55.16,2.55,0,0,.13-1.22.86-1.22.77,0,1.15,2,1.15,2,0,0,.77.25.84.76.09.46.97,2.45,1.34,3.22.38.77.49,3.87.49,3.87,0,0,.08-2.18.93-2.56.84-.37.87,1.82,1.07,2.38.18.58-.12.29.56.94.65.67.93,1.43.93,1.43,0,0,.3,1.06.2,1.7-.1.66.46.18,1.22.1.78-.1-.09,1.44.19,2.29.28.82,0,1.23.58,1.62.58.36.58-.03.83.65.32.65.49,1.04.49,1.71s.08.84.86.84,1.01-.17,1.01.2.99,4.75.99,4.75c0,0-.99-5.5,0-5.59.96-.12,1.33,1.23,1.33,1.23l1.52,3.58s-1.66-5.3-.86-5.59c.77-.28,1.43,1.12,2.09,1.8.67.68.84.84,1.24,1.14.36.27.56.17.77.65.17.49.85-.17,1.23.6.38.75.47,2.17.47,2.17l.64-.46s.79-.31.79.29c0,.55.36.93.74,1.49.38.58-.38.21.56.67.98.48.6.84.98,1.33.38.48.78.95,1.4,1.44.68.45,1.82,1.52,2.21,1.89.36.38-.97-1.79-.46-2.57.46-.77.63-1.05,1.61-.47.94.57,2.27.75,2.55,1.33.3.56.67,1.07,1.22,1.44.58.37-.26.05.67.44.96.39,1.34.49,1.34.49,0,0-.18.1.46.57.69.48.6.64,1.44.86.84.19,1.24,1.03,2,1.7.75.67,2.68,1.91,2.68,1.91,0,0-1.82-2.12-1.82-2.77s-.2-.93.67-.93.86-.21,1.39-.14c.59.14.76-.46,1.25.42.48.83.46,1.99,1.13,1.58.68-.37.77-.64.96-.07.18.54.57.67,1.43.77.84.08,1.04.17,1.6.46.58.3.66.21,1.71.69,1.06.46,1.62.85,1.62.85l-1.23-1.65,1.14.3s-.85-.57-1.07-1.13c-.17-.58-.66-1.23.68-1.52,1.32-.27.93-.09,1.7.29.77.38,1.15.55,2.31.55s.27.68,1.4.68,1.25.17,1.35.56c.08.38,1.05.59,1.63,1.07.56.46.95,1.2.26,1.59-.67.41-1.14.57-2,1.63-.86,1.04-.28,1.23-.28,1.23l-3.3,2.86s3.11-1.93,4.27-2.66c1.11-.77,1.87-1.91,2.64-1.91s1.03,0,1.36.58c.25.56.36.83,1.39,1.03,1.06.21,2.68.21,2.68.21,0,0-.38,1.12.37,1.41.76.29,2.37-.29,3.02-1.04.68-.78,1.26-2.02.29-3.43-.94-1.42-2.08-2-2.64-2.57-.57-.56-.39-1.14-.39-1.7s-.39-.65-1.32-.65-1.24,0-1.83-.49c-.56-.47-.66-.56-.75-.2-.08.42-1.04.5-1.43-.56-.38-1.03-1.03-1.11-1.52-.47-.47.68-1.23-.36-1.88-.55-.69-.22-2.57-.57-3.54-.57s-.64-.76-1.7-.87c-1.03-.08-1.24-.55-1.7.2-.47.77-1.51.29-2.47.29s-1.15-.94-2-1.15c-.85-.19-2.1-.77-3.04-.37-.92.37-1.69.68-2.29.47-.56-.22-.94-1.34-1.5-1.34s-1.52-.46-1.52-.46c0,0-.56-1.12-1.16-.76-.55.38-1.31-.47-2.27-.56-.96-.13-1.53-.21-1.53-.21,0,0-.93-.95-1.42-.86-.46.11-.66.11-1.41-.17-.77-.28-.56-.46-.95-.84-.39-.39-1.33-1.14-1.92-1.43-.56-.28-.65-.66-.65-1.15,0-.46,0-.74-.46-.46-.47.29-1.6-.41-2.37-.75-.77-.39-1.16-1.06-1.62-1.06s-.98-.47-1.06-1.14c-.11-.67-.4-.3-.86-.3s-1.8-.75-2.44-1.4c-.71-.69-1.44-2.19-1.44-2.19,0,0-.66-.64-1.32-1.13-.69-.47-.69-1.04-1.16-1.42-.47-.38-.47-.48-.94-.95-.47-.46-.1-.96-.58-1.52-.49-.58-1.23-.94-1.61-1.41-.39-.5-.39-1.15-.57-1.65-.19-.45-.87-.45-.87-.45,0,0-.63-1.52-1.21-1.9-.58-.38-.78-.84-.78-1.34,0-.46-.28-1.22-.86-1.69-.56-.48-.65-.6-1.04-.87-.37-.29-.55-.84-.75-1.33-.19-.48-.19-.86-.77-1.34-.57-.46-1.24-1.24-1.42-1.89-.19-.66.09-1.6-.57-1.6s-.86-.4-1.41-1.52c-.57-1.14-1.61-3.34-2.09-3.9-.49-.59-1.36-1.7-1.92-3.24-.57-1.51-1.52-2.94-1.61-3.79-.1-.86.18-1.51-.29-2.09-.46-.58-.56-1.24-.96-2.09-.35-.86-.27-2.17-.84-2.26-.55-.12-.85-2.49-1.13-3.24-.3-.77-1.24-3.5-1.81-4.65-.55-1.15-.19-2.46-.76-2.27-.43.14-.94-1.81-1.87-3.78-.32-.68-.99-1.17-1.27-1.84-1.16-2.65-2.2-4.07-3.15-6.33-.94-2.31-1.99-4.28-1.99-4.28,0,0-.35-.85-.35-1.23s.17-1.35.83-1.53c.66-.18.85-.48.85-.48,0,0,1.04-1.89,1.53-2.28.48-.38.27.12.37.76.12.66.85,0,.85,0,0,0-.26.66.11.57.38-.08.28-1.04,1.51-1.42,1.24-.37,1.71-.67,1.43.21-.29.82-.68.82,0,.93.67.1,1.04.2,1.34.83.28.7,1.89,3.25,2.26,4.97.39,1.68,1.73,3.8,2.67,4.36.94.59,1.5-.29,1.23-1.34-.29-1.03-.39-2.37-.67-3.22-.28-.86-.19-2.86-.56-3.33-.39-.46-.39-.66-.39-1.44,0-.74.5-3.11.58-4.16.09-1.05-.76-2.36-1.44-3.02-.65-.67-.93-1.35-.93-2.66s.37-2.56.37-3.99.1-2.93.56-3.02c.46-.12,1.15,0,1.34.74.19.76.76.98.76.98,0,0-.28-2.21-.84-2.67-.59-.48-.48-1.32-.48-1.32,0,0,.1-.78.57-.58.47.19.03-.96.11-1.99.09-1.06.28-2.95,0-5.61-.29-2.65-.58-4.18-1.06-5.05-.46-.85-.85-2.26-.39-2.16.46.1.46-.19,1.34-.13.85.13.77.03,1.53-.45.75-.48.82-.67,1.52-.67.65,0,.58.08.75,1.05.17.95.96,1.33,1.71,1.33s2.28.37,2.85.47c.56.09,2.57.68,4,.93.78.17,4.78.65,7.78.25,2.48-.37,4.04-1.53,4.77-2.13,1.59-1.35,2.09-3.23,2.57-3.81.46-.56,1.78-1.42,3.5-2.45.98-.6,8.28-3.87,14.8-7.01,4.79-2.31,9.05-4.58,10.85-5.63,4.29-2.46,13.22-8.82,14.64-9.98,1.41-1.12,3.5-1.99,4.75-2.74.59-.38,2.37-1.25,4.16-2.52,1.88-1.39,3.72-3.16,4.02-3.48.56-.55,3.15-.83,3.99-.93.83-.1,1.42-.28,2.19-.1.75.19.17.67-.19,1.35-.38.66-3.34,4.75-4.09,5.51-.76.73-.84,1.5-.46,2.06.38.59.66.84,1.5-.37.87-1.25,8.95-9.41,9.5-10.07.6-.67,3.32-.83,4.47-.95.69-.05,5.71-1.21,9.39-2.69,2.41-.94,3.77-2.13,4.48-2.81,1.81-1.71,2.84-3.22,2.64-4.84-.17-1.62-1.11-2.75-2.46-2.66-1.3.11-6.16.86-6.16.86,0,0,.08-4.27-.09-5.11-.18-.87.18-1.91.94-2.65.77-.77,2.47-3.71,2.85-5.52.38-1.81-.59-4.36-1.91-5.42-1.33-1.03-3.11-.93-3.88.3-.76,1.24-.68,1.91-1.23,2.01-.59.08-1.07.28-.86,1.12.17.86,0,3.89,0,4.64s-.96.87-1.14,1.43c-.2.58-.39,1.23-.95,1.43-.56.19-1.35.68-1.9,1.32-.56.66-4.1,4.18-4.83,5.03-.76.86-1.26,1.14-1.72,1.54-.46.39-1.15,0-1.89.73-.79.77-2.21,1.64-2.37,2.09-.19.49,0,.49-.19.87-.19.37-.88,0-1.27.37-.35.38-3.01,2.37-3.7,3.06-.64.65-1.59.94-2.38,1.03-.74.09-2.9,1.21-4.24,2.28-1.35,1.05-5.06,3.61-5.81,3.89-.74.28-.92.94-1.69,1.34-.77.38-2,.1-3.06.66-1.05.57-9.11,4.75-10.17,5.58-1.03.86-1.12.97-2.27,1.35-1.14.37-1.33-.18-3.03.37-1.72.6-5.71,2.58-8.95,3.72-3.23,1.13-6.56,3.03-9.78,4.46-3.2,1.42-5.3,2.74-5.97,2.96-.68.15-1.44.28-2.19.82-.76.57-1.05.57-1.53.77-.46.18-1.43-.1-2.67.28-1.22.38-5.67,2.48-8.16,3.05-2.48.56-3.32,1.63-4.09,2.27-.74.66-1.12.48-1.12,1.24s-.11.46-.77.56c-.67.09-1.06-1.04-1.32-1.41-.31-.39-1.15-1.51-1.35-2.18-.17-.66-.21-3.83-.38-6-.19-2.77-1.15-6.32-3.14-9.33-1.63-2.43-4.84-3.98-5.7-4.61-1.7-1.24-1.7-2.68-2.35-3.99-.67-1.34-.96-3.52-4.28-4.84-3.33-1.32-4.75-1.14-6.56-.39-1.8.78-2.84,1.24-3.8,1.82-.96.55-1.12.67-1.91.96-.75.27-.94.55-1.53,1.49-.55.96-1.7,2.4-2.16,3.04-.49.67-1.45.76-1.92.76s-4.65-.59-5.78-.94c-1.12-.39-1.8-.76-1.7-1.8.08-1.06-.29-2.37-.57-3.51-.3-1.13-.4-4.66-.58-6.46-.12-1.16-.42-3.69-1.22-5.62-.47-1.06-1.41-1.88-1.83-2.33-1.14-1.36-1.39-2.58-2.64-3.54-1.25-.96-2.28-1.42-2.95-2.08-.17-.21-2.91-3.35-6.58-5.42-4.09-2.3-9.33-3.56-12.62-4.18-6.27-1.11-14.33-1.87-14.99-2-.69-.06-.85-.64-1.62-1.03-.76-.37-1.24-.47-1.43-.09-.19.36-.68-.11-.76-.86-.09-.77-.78-2.16-1.7-2.16s-2.1-.19-3.14-.78c-1.04-.56-1.33-1.33-1.23-.47.08.87-.38.88-.86.38-.49-.46-.93-2.18-2-3.69-1.06-1.51-3.05-3.05-3.89-3.91-.86-.84-5.58-5.39-9.49-9.75-3.9-4.35-13.78-14.53-17.76-18.69-3.99-4.17-4.86-5.6-5.53-6.75-.66-1.12-.66-1.6-1.4-1.6s-7.04-6.67-9.78-9.78c-4.09-4.65-29.55-31.26-34.99-37.01-2.02-2.18-6.93-7.71-12.86-13.9-8.89-9.24-19.58-19.98-22.65-23.24-5.12-5.39-11.96-12.22-18.99-18.12-3.66-3.04-14.58-12.39-27.16-19.32-11.68-6.44-24.96-10.55-30.23-11.51-10.92-2-22.19-3.53-30.02-1.67-7.85,1.85-9.98,4.28-10.97,5.12-1,.86-3.56,4.69-4.43,5.7-.84,1-1,1.84-1.7,2.98-.71,1.12-1.42,2-2.86,2s-5.8,1.43-10.11,3.55c-5.02,2.46-8.28,4.37-12.25,6.27-4.12,1.94-8.41,2.11-9.11,8.83-.45,4.14,7,24.26,13.81,36.01,9.42,16.23,19.1,29.32,29.92,40.14,6.98,7,21.39,16.79,32.21,20.21,10.84,3.42,19.53,5.99,19.53,5.99,0,0,3.13,4.26,4.26,6.11,1.15,1.83,2.43,2,4.15,2.14,1.7.14,2.28,1,1.57,1.7-.72.73-.8,1.83-.28,2.58,8.25,12.08,18.36,14.78,18.36,14.78,0,0,.59,2,1.29,2.86.73.85,2.44,3.43,3.14,4.4.72,1.02.84,1.87,2.42,1.87s1.13.15,2.15.57c.99.43.99,1.42-.44,1.13-1.43-.28-1.03.77-2.1.58-1.04-.21-19.86-3.84-26.4-3.61-6.55.2-16.33,1.62-18.43,2.19-2.09.56-1.89.46-1.89,1.21,0,.78.17.68-.58.95-.77.3-7.98,3.17-10.35,4.1-2.37.94-5.62,2.47-7.79,3.58-2.17,1.15-2.95,2.1-4.28,2.87-1.34.75-8.82,5.03-10.15,5.97-1.33.96-.88,1.06-.97,1.9-.07.87-.46.96-1.22,1.36-.3.14-2.53,1.6-4.75,3.38-3.34,2.69-7.24,6.26-9.14,8.07-3.12,3.06-3.12,2.97-3.3,3.44-.2.46-.09,1.32-.48,2-.38.67-1.9,2.45-2.93,3.79-.58.72-2.81,3.66-4.91,7.15-1.69,2.87-3.33,6.41-3.65,7.08-.67,1.53-.67,1.92-.29,2.38.39.47-.38.86-.56,1.6-.18.77-.75,2.6-.95,4.09-.18,1.53,0,2.56-.38,3.04-.37.48-.56.86-.56,1.6,0,.78-.09,2.56-.09,2.56l-1.45.79s1.24-.3,1.34.36c.12.67.12,2.2.12,2.2,0,0-1.54.65-1.54,1.04s1.54-.39,1.54-.39c0,0-.12,1.44-.12,2.18,0,.77.2,1.53-.2,1.63-.37.09-1.21.55-.75.76.48.18.75-.57.95,0,.2.58-.95,1.99-1.34,2.35-.37.42-1.11.78-1.32,1.62-.2.86.66.11,1.23-.27.58-.37.77-.46,1.22-.93.49-.51.32.93.32.93l-1.26,2.95s.86-1.62,1.53-1.53c.66.11-1.23,2.93-1.23,2.93,0,0,.84-.37,1.23-.09.17.13-.2.75-.65,1.4.67-.82,1.36-1.57,1.4-1.12.09.85-.46,1.52-.94,1.99-.48.46,0,.11.56.39.58.28.58,1.34.19,2.07-.38.79-.29,1.92-.84,2-.58.09-.87-.29-.87.38s-.47,1.15-1.41,1.15-1.72.18-2.01.85c-.28.66-1.41,1.03-2.15,1.15-.78.08-1.18.08-1.64.64-.49.59-.96,1.36-1.14,1.82-.19.46-2.2.18-2.85.09-.68-.09-2,.18-2.58.1-.56-.1-.46-.94-1.05-.47-.56.47-1.51.76-2.08.29-.58-.5-.86-.77-.86-.11s-3.12.94-4.07.94-4.94.32-6.09.19c-1.13-.1-2.85-.27-3.41.13-.58.35-.97.93-1.53,1.21-.57.28-1.23-.28-1.61-.86-.4-.57-1.04-.67-1.61-.57-.58.1-1.06-.93-1.71-.75-.67.18-1.15-.65-1.7-.76-.58-.1-1.06-.1-1.45-.1-.37,0-3.52-1.23-4.93-1.89-1.42-.67-1.98-.98-3.03-.88-1.07.12-1.51.98-2.29,1.15-.76.19-2.19-.56-3.14-.86-.97-.29-2.36-.76-3.14-.76s-2.18-.93-3.05-1.32c-.85-.4-.76.17-.76.76s-1.41.36-2,.56c-.56.2-2.26-.56-3.59-.47-1.34.1-3.82.38-5.53.68-1.7.26-3.12.18-3.59.85-.49.65-3.05,1.12-3.71,1.7-.66.57-3.99,3.04-5.41,3.41-1.42.38-1.89.39-1.7,1.14.19.77.19,1.43-.57,2-.77.58-1.25,2.36-1.34,3.51-.1,1.16-.29,1.8.95,2.56,1.24.77,2.85,1.07,2.85,1.07,0,0-2.08-.69-2.57-1.93-.47-1.23-.17-2.26.87-2.16,1.04.1.86.27.94.93.1.7.94.7,1.62.6.65-.12,1.05-.69,1.51-.69.5,0,.76-.38.96-.94.19-.58.09-1.81,1.24-1.62,1.13.17,2.28.87,3.7,1.52,1.43.66,4.37,1.04,4.37,1.04,0,0-3.23-1.23-3.98-1.72-.77-.45-.48-1.11-1.13-1.21-.68-.09-1.34-.46-1.44-1.62-.09-1.14.4-2.09.87-2.29.46-.18.75-.93,1.3-1.3.59-.41,2.58-.88,4-1.07,1.44-.19,2.01-.38,2.95-.19.95.19.18.85,1.32.76,1.14-.08,2.01-.18,2.11.38.08.57,1.32.68,2.46.57,1.14-.1,2.37.3,3.14.3s.96-.19,1.51-.19c.58,0,.19-.29.95.09.77.39.19-.09.77-.19.59-.1.77.11,1.43.48.67.37,2.08,0,2.85.18.76.18.27.38.94.76.67.39.55,0,1.42-.17.85-.2,1.42-.3,1.53.37.11.68.58.38,1.14.09.57-.28,1.61-1.05,1.7-.36.1.65.85.27.85.27,0,0-.02-.19.77.38.77.58.68,0,1.61-.38.95-.37,1.61-.67,1.8,0,.2.68.58.85,1.14.56.57-.27,1.33-.19,1.33.29s.48,0,1.35.2c.83.18,1.13.64,1.9.74.77.11,0,0,.83.49.87.48.87-.3.97.48.09.75.09,1.34.29,1.7.17.37.75.56,0,1.03-.76.47.25.19,1.04.28.75.1.94-.46,1.7-.46s.77.46,1.42,0c.69-.48,1.06-.85,1.72-1.22.66-.42,1.8-.7,1.8-.7,0,0-.95,1.34-.46,1.14.46-.2.56-.75,1.31-1.23.77-.47,1.26-.65,1.26-.27v1.06l1.13-1.34s1.35-.48,1.7-.21c.39.29,1.91.3,1.52-.37-.37-.67-.94-1.13.28-1.13s2.17,0,2.86.09c.68.1.68,0,.76.55.11.59.29.2.76,0,.48-.17,3.24-.27,4.39-.27s1.12.03,1.05.47c-.11.46-.77.56.27.56s-.19,1.16-.19,1.16c0,0,.69.07,1.24-.21.57-.27.57-.49.57,0s.75.58,1.14.11c.37-.46.28,0,.28.39,0,.36-.28.86-1.13.86s-1.14.15-.49.37c.69.19,1.53-.19,2.38-.66.87-.48,1.62-1.34,1.62-1.34,0,0,.77-.09,1.33-.58.58-.47.67-.66,1.14-1.6.47-.96,1.35-1.63,1.35-1.63l.27,1.52s.49-1.89.86-2.47c.36-.57,1.23-.77,1.23-.77l.28.96s.66-1.24,1.42-1.99c.77-.77,1.24-1.42,1.7-2,1.13-1.32.68,1.42.68,2.09s-1.14,2.29-1.8,3.41c-.67,1.15-2.39,3.82-3.71,6.94-1.33,3.11-1.89,4.76-2.36,6.27-.48,1.49-.58,3.4-.58,4.43s0,.87.58.87.65,0,.65-1.24.47-2.75.85-4.83c.37-2.07,3.43-7.89,3.8-8.17.39-.24.77,0,1.26-.24.45-.3.55-1.34.83-1.92.3-.56,1.72-2.46,2.47-3.04.77-.57.96-.77,1.04,0,.1.77.29,1.14.97.85.67-.27.85-.95,1.42-.77.57.19.57-.66,1.15-1.12.55-.49.94-.68.94-.68,0,0,.48.1.76-.76.29-.85.1-1.15.86-.96.75.22.47-.08.84-.93.39-.85.86-.56,1.43-1.15.56-.55.56-.08.56-.08,0,0,.19-.77.57-.98.4-.17.19-.08.58.77.39.88.76-1.78.76-1.78,0,0,.58.11.77-.3.16-.39.16-.85.74-.94.58-.09,1.52,2.26,1.52,2.26,0,0-.74-2.92-.28-3.3.47-.4.86-.95,1.06-.4.18.59.85-.36.85-.83s.38,1.11.38,1.11c0,0,0-1.69.76-2.27.76-.57.47-.11.86.39.38.48,1.13-1.05,1.4-1.51.31-.48,2.49-1.81,4.01-2.65,1.53-.85,2.76-1.53,3.89-2.59,1.14-1.04,1.72-.83,2.46-1.04.78-.2.57-.46,2.01-.77,1.41-.29,1.62-.54,1.9-.16.29.37.38,1.03,0,1.7-.4.66-.57,1.6-1.06,2.09-.48.48-1.14.19-.97,1.33.2,1.15.1,2.28-.93,2.18-1.05-.09-.67-.18-.67.76s-1.42,1.71-1.7,2.38c-.3.67.1.47-.76,1.41-.85.96-1.41.67-1.41,1.54s-1.42,2.46-1.81,3.11c-.4.66,0,.84-.68,1.22-.66.4-1.23.5-1.23,1.43s-.74,2.36-1.23,2.58c-.48.19-.93,0-.84.67.07.67-.41.94-.78,1.33-.38.39-.55,1.04-.84,1.62-.28.57-.95.65-1.52,1.04-.57.39-.46.84-.64,1.6-.19.77-1.44,1.99-1.93,2.38-.48.4-1.14.67-1.23,1.22-.11.59-.19,1.06-1.15,1.64-.94.56-.94.66-1.03,1.62-.1.94-1.9,1.98-2.58,2.93-.66.98-2.47,2.93-3.13,4.17-.68,1.24-1.61,2.38-2.28,3.24-.67.86-1.43,1.73-2,2.08-.56.39-.83.58-.83,1.33s-1.14,1.71-1.72,2.09c-.56.38-.94,1.15-2,.85-1.04-.29-.57,0-.48.77.11.76-1.23,1.32-1.98,1.89-.77.58-1.73.97-1.73,1.64,0,.63,0,.46.12,1.12.09.66-.65,1.53-1.04,2-.39.47-1.54.66-2.09.66s-2.36.76-3.34.76-2.27.96-3.15,1.14c-.83.19-2.26.09-2.82.58-.58.48-1.44.57-1.91,1.03-.46.46-2.2.68-2.76.68s-.66,0-1.05.46c-.38.47-1.41.09-2.08.47-.68.39-.47.86-1.05,1.15-.57.27-2.47,1.12-3.24,1.12s-1.42-.3-1.42.27-1.06,1.34-2.39,1.34-1.87,0-1.78.68c.08.66-2.31,1.33-3.03,1.23-.78-.11-1.15.2-1.63.77-.47.57-1.24,1.33-2,1.51-.77.17-2.09.31-2.87.38-.75.12-.37.59-.46,1.06-.09.47-.18.65-1.33.94-1.13.27-2-.17-2.18.59-.18.74-.85.94-1.71,1.21-.86.28-.77.18-.77.85s-3.22,1.05-4.16,1.24c-.96.19-1.25.29-1.15.95.09.67-2.28,1.7-3.05,1.79-.74.11-1.89.2-1.98.97-.11.75-2.57,1.49-3.7,1.9-1.14.38-3.81.95-6,1.61-2.17.66-3.11,1.04-3.6,1.99-.49.97-.95,1.9-1.71,2.08-.77.21-1.24-.26-1.8-.56-.57-.28-1.05-.38-2-.55-.96-.2-1.41.17-2.47.17s-1.99-.17-2.67-.38c-.67-.18-.85-.27-1.51.1-.67.38-1.81.11-2.58,0-.75-.1-.83-.28-1.22,0-.38.28-1.14.38-1.91.18-.75-.18-.94-.18-1.32.1-.39.29-2.39,0-3.14-.17-.77-.2-1.25-.29-1.43.17-.18.46-1.41.46-2.17.1-.77-.38-.96-.27-.96.19s-1.14.27-1.7.17c-.57-.09-1.15-.46-1.92-.46s-1.12.38-1.12.38c0,0-1.15-.76-1.9-.09-.76.65-1.26,1.62-2.47,1.99-1.25.38-3.04-.56-4.28-1.22-1.24-.68-1.72-1.43-1.62-.49.08.97-1.15.88-1.91.69-.76-.19-2.52-.03-3.08-.07-1.57-.09-2.42-.5-3.29-.5s-1.04.39-2-.12c-.94-.46-.92-1.03-1.11-.38-.2.66-2.21.49-3.25.28-1.03-.17-1.22-.25-2.06-.17-.87.09-1.35.17-1.35.86,0,.64-.93.94-1.6.76-.69-.19-2.58-.97-3.34-1.72-.76-.75-1.43-1.41-1.43-.75s-.85.46-1.42.18c-.56-.29-.46-.68-1.14-.55-.65.09-1.71.17-2.18-.48-.46-.68-1.41-1.71-1.61-.85-.19.85-.57,1.34-1.43,1.34s-2.64-1.16-3.51-2c-.86-.86-3.04-2-4.27-2.38-1.22-.39-1.82-.27-2.66-.57-.85-.28-3.13-1.42-4.65-1.61-1.53-.18-4.85-.68-6.28-.68s-6,.29-7.88.29-3.9-.56-4,.2c-.06.77-1.23,1.53-2.35,2.28-1.17.77-2.86,2.26-3.63,3.51-.76,1.23-.96,2.28-.27,3.52m563.72-103.55c.21-.84-.31-.69.29-1.12.88-.67,1.24,0,1.63-.95.37-.96,1.12-1.25,1.99-1.71.85-.47,2.85-1.63,4.85-2.47,1.98-.87,5.13-2.27,5.6-2.64.46-.39,1.82.1-.1,1.59-1.9,1.52-4.08,2.85-6.17,3.99-2.1,1.15-7.04,4.56-7.59,4.46-.56-.1-.68-.27-.49-1.13m-45.5,33.78c.58-1.04.88-.76,1.43-1.23.57-.49,1.22.96.47,1.71-.76.77-1.61,1.7-1.61,1.7-.68.38-.86-1.13-.3-2.18m-3.42,0c0-.94.19-1.7.69-2.28.46-.56,1.88-.56,1.79.28-.12.87-.38,2.75-.38,2.75,0,0-2.1.2-2.1-.76m-2.07-5.31c.56.09,1.51.09,2.27.38.77.29.11,1.4.11,1.4,0,0-1.05.21-1.92.13-.84-.13-1.04-2-.46-1.91m-17.11-29.8c0-.77,0-.75.87-.75.82,0,4.09-.68,4.65-.68s.46.1.46,1.14-.46,3.5-.66,5.3c-.17,1.81-.11,4.29.1,5.14.17.86-.1.76-.39,1.33-.27.55,0,1.05.1,1.52.09.48-.17.64-1.14,1.03-.95.38-.76,0-.85-.85-.1-.84-.76-2.36-.86-3.29-.1-.96-.94-2.67-1.4-3.34-.49-.66-.58-.66-.69-2-.08-1.33-.18-3.77-.18-4.54m-1.7.37c.58-.27.58-.94,1.15-.75.55.19,0,4.36,0,4.36,0,0-.19.11-.77-.85-.58-.94-.58-.86-1.07-1.63-.46-.73.11-.81.68-1.13m-21.68,21.55c.96-.76,1.08-1.05,2-1.14.94-.08.96-.45.19-.57-.75-.1-.28-.76.67-.46.96.26,1.14.4.57-.29-.57-.67-.38-1.24-.19-1.79.19-.56.96-1.14,1.7-1.04.76.1.86,2.07.86,2.07l-.11-2.27.97,1.03s-.19-1.33.09-1.89c.3-.56.86.17.86.95s-.28,1.63.38,1.53c.65-.12.38-.86.18-2.1-.17-1.22.28-1.78.28-1.78,0,0,.39-.29.77-.68.39-.39,2.28-1.44,3.58-2,1.34-.57,4-1.51,4.78-1.51s1.43-.38,1.5.46c.1.86,0,2.28,0,2.84,0,.59.38,2.85.38,3.52s-.45,1.06-1.31,1.25c-.85.16-5.52,1.4-9.23,2.55-3.69,1.14-9.2,3.13-9.2,3.13,0,0-.67-1.03.26-1.8m-127.86-20.59c-.38-.46-.38-2.17-.09-3.42.28-1.22,1.06-2.66,1.91-5.31.85-2.65,1.62-4.38,2.18-8.07.56-3.7.56-6.73.56-6.73,0,0,1.15,0,.96-.75-.19-.77-1.14-.48-1.14-.48,0,0-.38-3.6-1.7-7.33-1.33-3.7-4.48-8.06-5.23-9.29-.76-1.23-.46-1.42,1.05-.16,1.51,1.21,5.13,2.55,7.31,3.3,2.21.75,4.94,1.02,6.19.83,1.22-.16,1.6-.54,1.79.18.16.78-.09.88-.19,2.09-.09,1.26.47,2.76.76,3.43.28.66-.1,1.14-1.14.85-1.03-.26-1.22-1.03-1.22-1.03,0,0,.15,1.22,0,1.98-.19.77-.39,1.14-1.16,1.44-.75.29-.67.66-.75,1.78-.09,1.13-.67,2.86-1.33,6.27-.69,3.43-1.72,9.12-2.19,11.39-.48,2.28-1.05,4.93-1.62,6.07-.57,1.15-.95,1.34-1.63.95-.67-.35-.58-.56-1.31-.17-.77.38-.58,1.68-.77,2.08-.16.39-.85.57-1.24.09m-6.35,16.33c.65-.39.37,1.04.56,1.92.18.84.77,1.02,1.91,1.69,1.13.66,2.18.62,3.04.56,1.34-.09.18,1.53-.67,2.27-.86.79-1.72,2.48-1.99,3.17-.3.66-.77.93-1.33.28-.6-.67-.78-2-.97-3.07-.21-1.03.11-2.07.11-3.01s-.85-2.19-.96-2.67c-.11-.47-.39-.74.29-1.12m-34.78-16.42c1.16-.13,2.93.26,6.09,1.33,3.13,1.02,9.21,2.85,9.79,3.04.55.19,1.05.46,1.42,2.17.38,1.71,1.04,3.41,1.41,5.32.39,1.91.85,5.24,1.44,7.88.35,1.75,1.25,4.59,1.88,5.7.38.66.57.95.28,1.8-.28.85-.17,1.52-.55,1.79-.39.29-.96.38-1.72-1.03-.44-.85-1.56-3.24-3.51-6-1.27-1.83-3.21-3.83-4.56-5.68-3.44-4.64-11.98-14.15-12.56-14.74-.55-.56-.55-1.5.58-1.59"/>
  </g>
</svg>