<?xml version="1.0" encoding="UTF-8"?>
<svg id="Layer_2" data-name="Layer 2" xmlns="http://www.w3.org/2000/svg" viewBox="0 0 654.5 570.75">
  <defs>
    <style>
      .cls-1 {
        fill:#808080
      }
    </style>
  </defs>
  <g id="Layer_1-2" data-name="Layer 1">
    <path class="cls-1" d="m651.76,22.02c1.03-6.67.9-12.01-.76-15.72-2.04-4.58-6.69-4.02-8.88-4.18-2.2-.18-5.17-4.51-10.73-.23-.73.54-1.49,1.54-2.25,2.8-.34-.12-.56-.44-.8-1.04-.49-1.16-2.16-2.23-1.76-1.31.35.91.58,2.85.42,4.26-.14,1.41-.98,4.59-1.48,4.08-.5-.53-.2-3.22-.99-2.21-.79,1.02-1.16,5.63-1.04,8.21.07,2.57-.76,4.49-1.36,3.96-.63-.53-.98-3.11-1.39-2.22-.4.89.05,2.96.56,5.15.45,2.2.3,4.38-.35,3.6-.61-.78-1.1-2.97-1.49-1.94-.41,1,.2,3.72.93,5.54.74,1.81.32,3.35-.69,2.82-1.03-.54-2.48-.56-1.69-.03.75.52,2.23,3.64,3.13,5.72.73,1.77,2.03,3.55,3.43,4.75-.35,0-.67.02-.96.04-5.49.54-10.62,9.11-13.52,19.3-1.39-1.87-4.12-2.58-3.41-1.55.95,1.37,1.29,3.32,1.25,5.26-.03,1.91-1.65,6.13-3,5.92-1.35-.23-.08-6.77-1.48-4.09-1.4,2.68-1.49,7.3-1.5,9.24-.06,1.93-2.03,4.98-2,2.86.04-2.12-3.21-3.75-2.47-1.59.72,2.14.29,5.02.24,6.94-.03,1.93-2.65,6.9-2.81,5.55-.16-1.35-2.05-3.51-1.69-1.39.34,2.14.27,5.41-.32,6.75-.61,1.33-2.1-1.01-1.76,1.12.36,2.13.29,6.38-1.1,6.93-1.36.55-1.79-7.17-2.19-5.44-.42,1.72-1.08,4.81.41,7.34.09.1.12.22.17.33-.42.09-.89.16-1.28.3-1.43.5-3.37.96-5.61,1.42,1.6-1.72,1.63-3.79.08-2.68-1.89,1.39-6.28,2.53-8.36,3.14-2.07.6-4.3,0-5.77-1.19-1.47-1.22-3.96.69-6.21,2.25-2.23,1.56-6.9,1.73-5.17.45,1.72-1.32,2.06-5.35,1.13-3.81-.96,1.56-5.01,3.38-7.28,4.51-2.22,1.12-5.41.78-4.02.1,1.37-.7,2.56-3.89.4-2.16-2.15,1.74-5.08,1.91-7.59,2.95-2.49,1.05-4.72.44-3.27-.5,1.48-.96,1.98-3.8.95-2.85-1.03.96-3.86,2.17-5.61,3.04-.22.1-.49.2-.75.27-.72-.43-1.66-.63-2.78-.58.04-.03.04-.08.08-.12,1.21-1.04,1.97-3.8,0-2.16-1.28,1.06-3.4,2.16-5.11,3.36-2.6.86-5.39,2.09-8.07,3.39-.58-.3-.87-.79-.41-1.37.95-1.23,1.91-3.33,1.01-3.65-.92-.31-3.4,4.27-4.82,6.34-1.43,2.08-6.41,4.08-5.34,2.25,1.06-1.84,1.36-5.01.6-5.24-.77-.22-1.66,2.83-3.18,5.07-1.03,1.49-2.8,3.14-4.81,4.57-6.56,2.71-13.72,5.61-17.26,7.54-.69.38-1.45.76-2.25,1.16-.36.03-.69.05-.94.1-1.5.26-3.1-.47-2.68-2.68.4-2.23-1.01-1.71-2.08,1.24-.71,1.98-2.66,4.29-4.77,6.21-3.35,1.69-6.46,3.55-8.47,5.72-.22.24-.36.52-.53.8-1.88.17-3.6.79-5.13,1.73-.17-5.31-3.86-8.48-4.96-7.92-1.17.56,1.71,3.67.37,8.48-.74,2.62-2.51,5.01-2.51,3.66s-1.92-2.69-3.45-4.05c-1.55-1.34.56,3.47,1.15,8.1.58,4.64-1.36,7.72-2.32,6.75-.96-.96-1.53-6.37-2.31-4.62-.77,1.72.58,8.87,1.73,13.11.65,2.39.89,4.41.73,6.24-.71,2.12-1.62,4.12-2.92,5.92-4.86,6.77-7.38,8.49-12.59,10.55-5.23,2.04-7.47.76-9.77,5.14-.02.02-.02.03-.03.03-.23-.19-.44-.41-.74-.54-2.14-1-8.78.54-14.68,2.41,3.02-5.06,5.18-10.92,4.36-13.85-.16-.52-.39-.94-.67-1.3,2.71-2.51,4.87-6.21,5.47-9.33.66-3.51,2.9-9.93,3.82-12.19.7-1.79.39-4.72-.3-6.54,1.82-1.09,3.21-2.49,3.82-4.3.92-2.68.96-6.59.34-10.73.83-2.15.54-4.85.17-5.95-.46-1.49-.86-3.78.15-5.74,1.05-1.93-1.1-6.24-1.1-5.08.02,1.18-.76,2.29-2.1,2.54-1.31.23-1.49-2.86-1.22-4.68.26-1.81-1.56-5.4-1.6-3.43-.03,1.97-1.16,2.36-2.43,1.81-1.27-.56-.37-3.07-.38-5.42,0-1.1-.4-2.36-.83-3.22,2.89-3.71,5.6-8.39,7.34-13.53,1.17-.71,2.62-1.2,3.87-1.21,2.16-.04,2.52-.73.7-1.39-1.83-.67-3.31-2.03-1.53-5.25.76-1.37,1.69-2.17,2.98-3.05,1.27-.89,2.01-3.31.9-2.78-1.11.53-2.12,1.34-1.98-.74.13-2.09,2.62-3.24,3.55-4.28.92-1.04,1.94-3.56.56-2.51-1.35,1.06-2.47,1.16-2.74.38-.29-.76,1.76-3.64,3.27-5.49,1.52-1.83.56-2.93-.55-1.96-1.09.96-2.17-.83-1.31-1.7.85-.88,2.12-3.91,3.03-6.26.92-2.35-1.82.63-2.92,1.61-1.1.96-.55-1.99.65-3.56,1.17-1.57,1.43-3.39.06-2.33-.87.66-1.86.62-2.82.37-.34-1.56-.79-2.92-1.46-3.96,1.16-.59,2.22-1.36,3.31-2.36,2.41-1,4.93-2.29,5.78-3.02.99-.81.06-.96-.76-1.36-.79-.38-.03-1.43,1.3-1.79,1.32-.36,3.18-3.33,3.8-4.31.62-.98-.36-.75-1.04-.5-.7.24,1.16-2.43,1.96-2.91.8-.46,1.19-2.14,1.34-3.36.17-1.2,3.16-4.17,3.96-4.63.79-.48-1-1.21-1.51-.73-.12.13-.24.1-.33-.04.58-1.27,1.08-2.39,1.35-3.17,1.36-3.88.75-4.74.4-5.39.18-.74.39-1.43.99-2.05.83-.82,1.27-3.18.96-3.33-.34-.17-.47.95-1.04,1.16-.66.23-.24-1.19-.07-2.17.15-.99.48-2.99.17-4.1-.29-.86-.54.56-.98,1.35-.44-1.52-1.27-2.94-2.7-3.93-2.36-1.6-4.94-1.4-7.07-.62-1.13-.48-2.17-.04-2.59.67-.52.82-1.81,1.27-1.68.8.14-.48-.11-1.77-.8-.6-.56,1-1.43,1.78-1.93,2.71-.87.23-1.92.61-3.38,1.66-.49-.14-.96-.26-1.42-.1-1.03.36-2.05,2.16-2.49,3.36-.45,1.22-1.28,3.23-1.97,3.48-.67.24-.19-1.09-.88-.57-.65.53-2.36,3.74-2.5,5.8-.14,2.08-1.49,3.42-2.03,2.74-.51-.68-1.05-1.08-.9.7.1,1.56-1.51,5.58-2.45,8.64-.53,1.12-.99,2.12-1.32,2.95-1.29,3.02-1.34,6.02-.63,8.59-2.77-1.36-4.07-5.94-4.66-5.12-.7.95,1.33,4.72,2.16,5.75.77,1.03-.83,3.03-1.3,1.74-.45-1.28-1.91-2.64-3.4-3.15-1.46-.49.3,2.5,1.63,4.65,1.31,2.13,1.18,4.2-.48,2.76-1.66-1.44-3.14-1.51-2.34-.9.76.57,1.93,3.5,2.91,5.04.96,1.55,1.09,3.95.76,4.65-.36.7-.98-1.1-2.54-1.86-1.55-.76-2.52-.14-.31,1.56,2.17,1.69,3.4,4,3.09,5.13-.35,1.12-1.72.47-3.37-.55-1.65-1.03-1.55.53,1.05,2.23,1.43.9,2.6,1.69,3.38,2.57.03.85.03,1.68-.03,2.47-.09,1.1-.28,2.02-.48,2.83-1.16.56-2.35-.29-3.79-.98-1.75-.84-2.17-.41-.52,1.04,1.66,1.44,1.43,4.13.85,4.05-.62-.09-4.19-2.89-3.39-1.85.78,1.02,2.11,2.29,2.9,4.18.8,1.88-1.6,2.86-2.05,1.57-.45-1.29-3.6-3.65-1.76-.83,1.06,1.58,1.51,3.42,1.62,5.17-1.96,3.68-4.19,6.25-6.27,8.32-.6-.28-1.04-.88-1.06-1.75-.02-1.72-2.47-4.63-2.04-3.33.45,1.28.68,4.82-.06,6.39-.66,1.29-1.16,1.79-2.03,3.89-2.54,3.13-3.97,7.23-2.88,10.19-.99,1.72-1.39,4.25-1.19,7.25-1.13.34-2.25-1.19-3.11-2.57-1.1-1.76-.23,3.17,1.02,5.7,1.27,2.52,3.64,6.02,3.2,6.87-.43.87-2.13-1.96-3.14-3.35-1.03-1.38.61,3.43,1.77,5.55,1.16,2.14,6.04,5.19,4.48,5.28-1.55.08-3.77-2.45-2.86-.65.9,1.79,2.25,3.9,4.74,4.63,1.94.56,4.78,2.97,6.41,5.06.56,2.41.23,4.35.65,5.49-1.28,1.28-2.04,4.31-2.42,6.85-.46,3.22-3.52,7.22-4.42,10.2-.44,1.44-.22,2.89.41,4.3-.69-.05-1.39.06-2.19.55-1.82,1.1-4.7,6.65-6.66,11.64-.2.56-.5,1.15-.81,1.71-.18-1.29-.29-2.7-.41-4.31.54-3.13.97-6.69,1.37-8.27.66-2.61,2.92-4.08,2.03-5.11-.58-.68-2.61.96-3.76,1.92-1.16.96-1.95-2.85-1.46-5.49.61-3,3.61-3.66,2.81-4.44-.69-.67-3.56-.38-4.91,1.16-1.63,1.86-1.41-3.82-.5-5.88.78-1.73,2.42-3.08,2.03-3.56-.6-.75-3.86-.29-5.21,1.73-1.37,2.09-1.74-2.6-1.35-5.09.4-2.51-.76-6.48-1.74-7.25-.96-.76.58,4.82-1.73,6.57h-.02c-1.58-2.45-3.25-4.79-5.04-6.85-.65-1.74-.9-2.49-2.68-3.76-1.1-.81-1.04-3.09-1.36-5.1-.38-2.75-1.72-3.49-1.72-2.15s-.85,3.58-2.21,2.8c-.83-.47-1.46-2.31-5.03-1.72-.97.16-2.79-.1-3.16-1.83-.38-1.75-2.13-2.81-1.55-1.26.59,1.55.09,3.67-2.04,3.29-.91-.17-2.01-1.56-3.17-2.71-1.18-1.14.19,1.74.37,3.09.21,1.35-2.29,1.83-3.08.67-.77-1.15-2.81-2.11-1.84-.57.56.89.76,2.39.76,3.98-.58.78-1.03,1.68-1.23,2.73-.51,2.65-.9,9.71-1.1,17.85-.26-8.12-.7-15.18-1.22-17.85-.33-1.64-1.18-2.94-2.37-3.95.74-.45,1.08-1.16,1.03-2.03-.09-1.6-.56-.9-1.34,0-.84.96-3.52.39-2.96-1.14.5-1.43-.38-2.97-.64-2.39-.27.62-1.37,1.66-2.34,2.18-.75.4-2,.31-3.8.72-3.16.23-6.31,1.16-8.55,2.7-2.08,1.43-4.02,3.29-5.91,5.36-.4-1.61-1.89-2.5-1.78-1.44.06.63.03,2.27-.33,3.84-.92,1.15-1.83,2.34-2.71,3.61-1.27.56-1.83.39-2.89,1.54-1.28,1.42-1.39,4.39-1.92,5.15-.51.76-.51-2.05-1.15-1.29-.66.77-1.67,3.22-1.81,5.28-.12,2.06-1.43,5.41-2.19,6.3-.76.9-.9-2.3-1.54-1.03-.64,1.29-.53,4.89-.53,6.42s-.89,1.93-2.16.64c-1.29-1.28-.78,1.16-.12,3.36.39,1.34.73,3.72.86,5.92-.29,2.92-.35,5.62-.61,7.82,0-.14.03-.32.03-.46-.23-.46-.5-.93-.69-1.39-1.93-4.99-4.81-10.53-6.61-11.64-.82-.49-1.5-.6-2.18-.55.63-1.41.83-2.86.38-4.3-.9-2.97-3.96-6.98-4.42-10.2-.36-2.54-1.12-5.57-2.43-6.85.45-1.14.09-3.09.64-5.49,1.64-2.09,4.48-4.49,6.41-5.06,2.49-.73,3.85-2.84,4.76-4.63.92-1.8-1.29.73-2.86.65-1.55-.09,3.31-3.14,4.48-5.28,1.16-2.11,2.81-6.93,1.77-5.55-1.03,1.39-2.71,4.22-3.15,3.35-.43-.84,1.98-4.35,3.2-6.87,1.24-2.53,2.13-7.47,1.03-5.7-.87,1.38-1.98,2.91-3.11,2.57.21-3-.21-5.53-1.2-7.25,1.1-2.94-.33-7.06-2.87-10.19-.87-2.1-1.38-2.6-2.02-3.89-.77-1.56-.54-5.11-.1-6.39.46-1.3-2.01,1.61-2.03,3.33,0,.87-.49,1.47-1.06,1.75-2.1-2.07-4.33-4.64-6.28-8.32.12-1.76.57-3.59,1.6-5.17,1.87-2.82-1.29-.45-1.73.83-.45,1.29-2.85.3-2.05-1.57.8-1.89,2.11-3.16,2.89-4.18.81-1.03-2.77,1.76-3.37,1.85-.6.08-.83-2.61.83-4.05,1.68-1.45,1.25-1.89-.49-1.04-1.45.7-2.65,1.55-3.79.98-.22-.82-.42-1.74-.49-2.83-.05-.79-.07-1.62-.05-2.47.8-.89,1.99-1.67,3.39-2.57,2.62-1.69,2.74-3.25,1.09-2.23-1.66,1.02-3.05,1.67-3.37.55-.35-1.13.89-3.44,3.07-5.13,2.18-1.69,1.24-2.31-.32-1.56-1.57.76-2.19,2.56-2.51,1.86-.34-.7-.23-3.1.74-4.65.96-1.54,2.15-4.47,2.92-5.04.77-.61-.69-.54-2.32.9-1.68,1.44-1.83-.63-.51-2.76,1.34-2.15,3.09-5.14,1.61-4.65-1.47.5-2.96,1.87-3.38,3.15-.45,1.29-2.08-.71-1.28-1.74.79-1.03,2.82-4.8,2.16-5.75-.62-.83-1.9,3.76-4.69,5.12.71-2.56.68-5.56-.59-8.59-.35-.83-.82-1.83-1.36-2.95-.92-3.06-2.56-7.08-2.44-8.64.14-1.78-.38-1.38-.89-.7-.55.68-1.89-.66-2.04-2.74-.14-2.06-1.81-5.27-2.53-5.8-.65-.51-.16.82-.84.57-.7-.24-1.54-2.26-1.98-3.48-.45-1.21-1.44-3.01-2.48-3.36-.48-.16-.94-.04-1.43.1-1.47-1.05-2.49-1.43-3.38-1.66-.5-.93-1.37-1.71-1.93-2.71-.68-1.17-.92.12-.78.6.11.47-1.16.02-1.69-.8-.44-.71-1.47-1.15-2.58-.67-2.16-.78-4.71-.98-7.08.62-1.45.99-2.28,2.41-2.72,3.93-.43-.78-.71-2.21-.94-1.35-.35,1.11,0,3.11.17,4.1.15.98.57,2.41-.08,2.17-.6-.21-.71-1.33-1.05-1.16-.32.15.14,2.51.97,3.33.59.62.79,1.31.97,2.05-.35.65-.93,1.5.38,5.39.3.78.8,1.9,1.37,3.17-.08.14-.21.17-.34.04-.5-.48-2.31.25-1.5.73.79.46,3.79,3.43,3.95,4.63.16,1.23.53,2.9,1.33,3.36.81.48,2.67,3.16,1.97,2.91-.67-.24-1.66-.48-1.03.5.63.98,2.48,3.95,3.8,4.31,1.33.36,2.1,1.41,1.29,1.79-.82.4-1.73.56-.76,1.36.84.72,3.38,2.02,5.78,3.02,1.05.99,2.17,1.76,3.29,2.36-.63,1.04-1.11,2.4-1.45,3.96-.96.24-1.95.29-2.8-.37-1.36-1.06-1.12.76.04,2.33,1.2,1.57,1.76,4.52.67,3.56-1.12-.97-3.83-3.95-2.93-1.61.92,2.35,2.16,5.38,3.02,6.26.86.88-.19,2.66-1.31,1.7-1.1-.96-2.06.14-.53,1.96,1.52,1.85,3.55,4.73,3.29,5.49-.28.77-1.4.68-2.76-.38-1.37-1.05-.36,1.47.56,2.51.95,1.04,3.42,2.2,3.58,4.28.15,2.08-.89,1.27-2.02.74-1.1-.53-.36,1.89.93,2.78,1.29.88,2.22,1.68,2.99,3.05,1.76,3.22.27,4.58-1.56,5.25-1.82.66-1.49,1.35.67,1.39,1.29,0,2.74.5,3.9,1.21,1.73,5.15,4.46,9.82,7.34,13.53-.45.85-.83,2.12-.86,3.22-.03,2.36.9,4.87-.37,5.42-1.29.55-2.36.16-2.42-1.81-.03-1.96-1.87,1.63-1.59,3.43.23,1.83.08,4.92-1.26,4.68-1.32-.24-2.09-1.36-2.09-2.54.03-1.16-2.15,3.15-1.11,5.08,1.03,1.96.6,4.24.14,5.74-.33,1.1-.63,3.8.19,5.95-.62,4.15-.59,8.06.33,10.73.63,1.81,2.05,3.22,3.85,4.3-.69,1.82-1.02,4.75-.31,6.54.9,2.25,3.16,8.67,3.83,12.19.58,3.12,2.71,6.82,5.42,9.33-.26.36-.49.78-.63,1.3-.83,2.92,1.32,8.79,4.36,13.85-5.9-1.87-12.58-3.41-14.71-2.41-.29.13-.5.35-.75.54,0,0,0-.02,0-.03-2.31-4.37-4.55-3.09-9.8-5.14-5.21-2.06-7.72-3.78-12.59-10.55-1.29-1.8-2.22-3.8-2.93-5.92-.15-1.83.1-3.85.73-6.24,1.16-4.24,2.52-11.39,1.75-13.11-.76-1.75-1.33,3.66-2.32,4.62-.96.96-2.89-2.11-2.29-6.75.56-4.63,2.69-9.44,1.14-8.1-1.55,1.36-3.47,2.7-3.47,4.05s-1.78-1.03-2.5-3.66c-1.35-4.82,1.55-7.92.37-8.48-1.09-.56-4.79,2.61-4.96,7.92-1.51-.94-3.26-1.56-5.13-1.73-.15-.28-.29-.56-.53-.8-1.99-2.17-5.08-4.03-8.43-5.72-2.16-1.92-4.1-4.23-4.81-6.21-1.06-2.96-2.49-3.48-2.05-1.24.39,2.21-1.21,2.94-2.69,2.68-.25-.05-.57-.08-.93-.1-.81-.39-1.57-.77-2.26-1.16-3.55-1.93-10.7-4.83-17.24-7.54-2.05-1.43-3.82-3.08-4.83-4.57-1.52-2.23-2.43-5.28-3.18-5.07-.76.23-.46,3.4.62,5.24,1.05,1.83-3.91-.17-5.35-2.25-1.43-2.07-3.9-6.65-4.82-6.34-.94.32.06,2.43,1,3.65.43.58.15,1.08-.43,1.37-3.62-1.76-7.53-3.43-10.73-4.13-1.02-.63-1.95-1.21-2.65-1.8-1.64-1.35-1.38.31-.56,1.49-.79.08-1.52.22-2.04.59-.23.16-.5.37-.71.56-.06-.03-.09-.03-.14-.05-1.72-.87-4.57-2.08-5.58-3.02-1.04-.96-.55,1.89.93,2.85,1.48.95-.77,1.55-3.29.5-2.5-1.05-5.41-1.23-7.59-2.96-2.13-1.72-.95,1.46.43,2.16,1.36.7-1.82,1.03-4.05-.1-2.24-1.12-6.3-2.94-7.27-4.49-.92-1.56-.6,2.49,1.14,3.8,1.71,1.29-2.95,1.1-5.19-.44-2.22-1.56-4.74-3.47-6.21-2.27-1.46,1.21-3.7,1.81-5.78,1.2-2.07-.61-6.46-1.75-8.37-3.13-1.54-1.13-1.51.96.09,2.66-2.24-.44-4.18-.92-5.59-1.41-.41-.12-.88-.21-1.29-.3.04-.1.08-.22.15-.33,1.5-2.53.88-5.61.43-7.34-.4-1.73-.83,6-2.2,5.44-1.37-.55-1.45-4.8-1.11-6.93.37-2.14-1.13.22-1.75-1.12-.6-1.34-.65-4.62-.3-6.74.34-2.14-1.56.02-1.74,1.36-.16,1.36-2.76-3.6-2.8-5.54-.03-1.93-.46-4.82.26-6.95.74-2.14-2.52-.52-2.48,1.58.05,2.14-1.95-.92-1.97-2.86-.03-1.93-.12-6.54-1.53-9.22-1.41-2.67-.13,3.86-1.48,4.08-1.33.23-2.97-4-3.01-5.92-.03-1.93.32-3.88,1.25-5.24.75-1.04-2.02-.33-3.39,1.55-2.91-10.2-8.03-18.76-13.52-19.3-.3-.02-.62-.04-.96-.04,1.39-1.21,2.69-2.98,3.45-4.76.86-2.08,2.35-5.2,3.11-5.71.76-.53-.67-.5-1.68.02-1.03.55-1.43-.99-.7-2.8.72-1.83,1.32-4.54.91-5.55-.41-1.03-.88,1.16-1.49,1.94-.63.79-.79-1.4-.33-3.59.49-2.19.95-4.27.56-5.15-.41-.9-.76,1.68-1.4,2.22-.62.52-1.43-1.4-1.36-3.96.1-2.57-.25-7.19-1.05-8.21-.77-1.03-.47,1.68-.97,2.2-.51.53-1.35-2.67-1.48-4.09-.17-1.41.04-3.35.43-4.24.36-.91-1.29.16-1.76,1.32-.28.58-.5.91-.83,1.04-.76-1.27-1.53-2.28-2.23-2.81-5.58-4.27-8.52.05-10.73.22-2.2.17-6.85-.39-8.91,4.21-1.66,3.69-1.76,9.05-.75,15.72-1.51-.77-3.47-.63-2.49-.16.92.43,2.22,2.03,3.12,3.69.16.76.3,1.52.47,2.29.23.95.43,1.94.63,2.96-1.17.07-2.5-1.37-2.36-.48.14,1.16,1.45,2.42,2.49,3.42,1.04,1.02.56,2.69-.63,1.95-1.15-.76.31,1.91,1.36,2.55,1.03.62,1.59,2.67-.35,2.06-1.63-.5.02,1.54,1.18,1.65,1.16.1,2.56.99,1.21,2.29-1.77,1.71-1.88,2.73-.36,1.69.75-.52,3.35-.08,4.02.96.47.73,2.21,1.59,3.48,2.04-2.15,1.71-3.6,3.89-3.71,6.57-.24,6.64,3.37,12.88,7.24,19.18-1.51,1.11-2.96.9-3.48.33-.65-.7-1.4-.75-.58.58.82,1.3,2.22,1.23,3.11,1.72,1.15.63,3.42,3.31,2.57,3.88-.86.57-1.84-.06-2.96-.79-1.1-.74-1.79-.78-.63.35,1.16,1.15,2.19,2.01,4.1,2.35,1.9.34,2.54,2.17,1.91,2.91-.63.76-2.25.65-3.68.1-1.44-.57-.95.28.37.91,1.34.63,3.54.3,4.9.76,1.39.45,1.36,1.22.23,2.09-1.14.86-2.6,1.3-4.29.83-1.3-.36-2.17.08-.42.68,1.95.63,3.17.48,5.93.03,2.16-.36,4.26,1.86,4.08,2.96-.16,1.11-1.89,1.11-3.33.54-1.43-.56-1.67-.16-.92.47.75.63,2.09,1.25,3.93,1.48,1.84.22,4.21,1.76,3.29,2.22-.93.47-4.78-.02-6.16-.49-1.36-.44-2.29-.56-1.09.42,1.22.98,5.88,1.64,7.44,2.15,1.55.5,4.88,3.8,3.04,3.58-1.84-.23-5.21.4-6.6.81-1.38.4-1.3,1.38.42,1.09,1.71-.29,6.61-.03,8.05.54,1.46.56,2.6,3.14.71,3.09-1.9-.05-6.21.85-8.16,1.83-1.96.99-1.29,1.74-.45,1.39,2.99-1.22,7.75-1.2,9.78-.92,2.02.28,3.46,2.29,3.23,4.12-.21,1.85-5.26,2.39-6.87,2.92-1.61.53-3.44.6-2.07,1.04,1.39.47,6.07-.26,8.68-.44,2.14-.15,4.03.83,5.64,1.63.59.96,1.22,1.84,1.88,2.44,1.23,1.1,2.94,1.43,4.8,1.2.36,1.44.99,2.72,1.94,3.64,5.61,5.43,15.3,6.58,20.22,6.15,1.89-.16,3.72-.23,5.53-.26.24.66.07,1.48-.76,2.43-1.49,1.63-4.16,3.95-2.09,3.26,2.07-.69,5.61-3.86,7.33-4.71,1.74-.85,5.98-.68,3.96,1.56-1.98,2.24-2.84,4.82-1.82,3.62,1.04-1.2,3.45-3.43,5.7-4.04,2.25-.58,6.58-1.03,5.54.18-1.05,1.21-5.18,3.43-2.86,3.09,2.35-.33,6.05-3,7.61-3.5,1.54-.51,4.38.69,3.69,2.08-.68,1.37-4.41,3.62-1.73,3.02,2.67-.59,4.59-3.53,6.57-4.04,1.98-.52,2.64,2.42,1.96,3.8-.68,1.38-.95,4.04.96,1.13,1.3-2.01,4.02-4.01,6.38-5.37h.5c1.71,1.27,3.68,2.09,5.7,2.42,4.67.75,13.96,5.28,23.6,9.58-3.05.77-3.62,2.69-2.08,1.99,1.77-.82,2.64.68,3.89,1.28,1.26.62,6.41.29,4.35,1.71-2.07,1.43-3.73,3.96-2.15,2.82,1.56-1.14,5.75-1.59,7.95-1.29,2.17.29,7.04,3.25,3.82,3.11-3.2-.13-4.82,1.29-4.07,1.06.77-.23,2.5.08,5.02,1.3,1.63.81,3.17,1.25,4.75,1.5.38.37.78.69,1.23.97,1.95,1.16,3.68,5.6,1.54,4.44-2.12-1.16-5.59-1.16-4.03-.37,1.54.76,4.62,3.47,6.55,5.77,1.03,1.26,1.75,4.05-.18,3.29-1.93-.78-4.46-2.13-3.66-.96.76,1.16,3.84,3.27,5.78,4.63,1.92,1.35,3.67,4.04,1.73,3.66-1.92-.38-2.71-.38-1.73.78.95,1.15,2.89,2.7,4.43,2.89,1.55.19,2.51,2.12.57,1.73-1.94-.38-3.84.78-2.51.97,1.36.19,3.68.96,5.41,1.92,1.73.97,2.11,2.52.37,2.32-1.73-.19-3.85-1.35-2.9-.19.98,1.16,3.49,2.12,5.22,2.12s3.46,1.35,1.92,2.51c-1.54,1.15-3.47,4.25-1.92,2.89,1.54-1.35,4.25-1.15,5.99-.38,1.72.78,2.69,4.05,1.16,3.47-1.56-.58-4.27-.96-2.9.21,1.34,1.15,5.4,2.3,7.71,3.27,2.33.97,4.62,5.01,3.46,5.01s-4.8-.76-3.26.39c1.53,1.17,5.21,1.55,6.35,1.55s3.48,1.93,1.93,2.12c-1.55.19-4.42,2.13-3.27,2.13s3.87-.39,5.79.18c1.91.58,1.36,1.36.2,1.94-1.17.56-3.1,1.54-1.76,1.74,1.36.19,4.82-.97,6.38-1.17,1.53-.18,3.35,1.66.91,2.81-.83.39-3.09,2.39-2.71,3.47.23.68,5.15-1.88,6.48-2.84,1.96-1.46,4.42-1.01,7.15-.5.15.29.24.58.45.87,2.84,3.98,8.97,5.36,14.65,6.94,4.23,1.17,8.78,2.48,11.77,4.51-1.36.14-2.71.2-3.99.05-4.46-.49-10.12-1.35-13.44.81-.17.11-.22.26-.36.38-2.59-.95-5.89-1.27-8.83-1.36-1.69-.69-3.68-1.59-5.14-1.86-1.91-.33-3.9-3.52-4.17-4.59-.27-1.05-.71-.45-.56.48.16.9,1.36,4.15-.06,4.11-1.43,0-1.92-.19-2.54-1.56-.63-1.36-.7-3.19-1.23-2.98-.54.19-.39,3.57.13,4.66.53,1.1-.95,1.59-2.01.7-1.08-.9-2.98-2.27-3.76-2.36-.76-.07.52,2.39-.36,2.17-.87-.23-2.8-2.9-3.92-3.15-1.15-.25,1.85,3.05.7,3.05-1.16,0-2.63.49-3.41-.76-.77-1.25-3.29-1.91-4.84-1.95-1.53-.04,1.51,1.46.61,1.61-.93.17-2.82-.3-3.25-.99-.43-.7-.75-2.8-1.11-2.83-.4-.04-1.01,2.09-.83,2.76.2.66-2.1.16-2.91-.7-.79-.86-1.89-1.63-3.71-1.56-1.8.05-2.64-.68-3.56-1.68-.94-1.02-.99-2.83-1.63-2.9-.65-.07-.86,1.98-.83,2.76-.73-.33-1.89-.12-2.69-1.45-.64-1.1-1.32-2.09-1.34-.66,0,.62.32,1.46.83,2.26-.7-.03-1.36,0-2.02.21-.03,0-.05.03-.12.06-.95-1.23-2.16-2.36-3.53-3.44-.66-1.22-.94-2.34-.94-3.09-.03-1.16-.19-3.12-.88-1.52-.69,1.61-.89,1.21-2.11.43-1.44-.93-2.1-4.5-1.96-5.65.11-1.15-.76-.09-1.1,1.7-.3,1.77-1.49.61-1.73-.71-.24-1.32-.28-3.53-.16-4.42.09-.9-.79-1.13-.96.55-.18,1.65-1.27,2.05-2.06,1.07-.8-.99-2.09-3.47-2.21-4.77-.1-1.31-1.06.27-.93,1.58.06.76-.57.76-1.23.48-.27-.17-.51-.32-.76-.45-.16-.14-.36-.28-.43-.43-.29-.37-.8-.55-1.41-.55-.35-.17-.71-.33-1.03-.45-4.18-1.65-9.94,2.12-14.76,5.11-1.33.46-2.75.73-3.75.5-1.69-.36-3.4-2.17-3.72-1.47-.32.69,1.56,3.01,2.3,3.23.76.21-1.83,1.16-3.32.7-2.59-.81-5.98-3.55-6.79-3.09-.7.43,2.35,1.69,3.53,3.1.52.62.14,1.49-1.23,1.96-1.35.51-3.77-.07-5.23-.61-1.46-.56-3.04-2.02-3.43-1.49-.39.54,2.66,3.11,3.54,3.36.86.28-2.06,1.33-3.09,1.11-1.04-.2-4.68-.93-6.16-.2-1.48.72-1.36,1.35-.27,1.14,1.1-.18,3.69.33,3.31,1.16-.38.8-2.28.33-3.24,1.45-.95,1.1-1.51,1.98-2.97,1.73-1.43-.25-1.64.22-.31.7,1.34.48.64,1.89-.36,2.26-1.53.55-3.83.02-4.79-.42-.9-.44.88,2.09,2.74,2.7.39.12.7.34.92.58-.23.42-.38.84-.56,1.28-.53-.18-1.07-.37-1.61-.5-1.43-.91-2.84-1.5-4.04-1.52-1.63-.03-3.72-1.83-4.37-1.63-.58.16.14,1.56,1.81,2.92-2.49.38-5.28,1.24-8.56,2.74-1.26.56-2.54.98-3.82,1.42-.82-.08-1.51-.31-2.16-.62-1.29-.61-2.81-2.36-3.57-2.27-.75.09.71,2.37,1.5,2.75.77.37-.46,1.51-2.25,1.1-1.79-.41-2.46-1.49-2.85-1.36-.39.13.15,1.67.75,2.03.61.34-2.01.76-3.05.26-1.04-.5-1.15-1.89-1.52-1.75-.39.14-.51,1.21.03,1.92.55.7-2.02,1-3.24.15-1.22-.85-2.43-1.27-2.86-1.04-.37.22,2.06,1.36,1.06,1.87-.98.52-2.32.17-2.96-.45-.64-.63-1.98-1.4-2.23-1.2-.23.18,1.19,1.47.23,2.35-6.01.66-9.71,1.65-13.51,5.05-.12.09-.15.21-.21.29-.14-.14-.31-.3-.43-.43-.88-1.21-2.62-.33-4.15-.26-1.51.06-3.88,0-5.07-.82-1.81-1.24-1.46-2.95-2.11-2.79-.67.17-1.24,1.63-.89,2.21.32.6-1.01.9-2.18.03-1.16-.89-3.6-1.51-4.13-1.29-.44.17,1.08,1.06,1.2,1.83-7.27-.46-11.46,0-15.18,2.49-3.64,2.43-4.69,4.96-4.3,8.8.3,2.99-2.46,6.28,2.51,11.24,1.52,1.51,6.17,2.96,11.49,4.04.35.43.7.9,1.33,1.2,1.16.61,3,.29,3.63.03.64-.23,2.7.3,2.8,1.1.1.77-1.64,1.36-.77,1.44.86.08,2.59-.81,3.75-1.57,1.13-.76,3.18-.83,2.76-.34-.43.48-.49,2.76.21,1.87.7-.88,3.03-1.79,4.18-2.03,1.16-.23,4.24-1.04,6.34-2.06l.26-.83c.71-.38,1.37-.79,1.91-1.23.27-.23.47-.52.7-.78,1.83.93,4.06,1.49,6.63,1.6.96,2.02.1,3.88-.64,4.27-.82.44-1.05,1.16.41.7,1.49-.45,1.76-1.83,2.48-2.6.87-.93,4.02-2.48,4.36-1.51.36.98-.49,1.77-1.5,2.66-.98.88-1.18,1.54.2.7,1.39-.83,2.49-1.63,3.26-3.39.83-1.76,2.74-1.93,3.31-1.13.57.78.09,2.33-.82,3.6-.92,1.25.03.98.96-.16.96-1.13,1.19-3.34,1.96-4.55.79-1.24,1.52-1.02,2.09.31.56,1.32.62,2.83-.25,4.38-.68,1.14-.46,2.1.54.54,1.14-1.71,1.27-2.94,1.5-5.71.18-2.19,2.87-3.68,3.89-3.24,1.03.43.6,2.09-.29,3.37-.91,1.23-.57,1.56.23.99.79-.57,1.71-1.7,2.37-3.43.67-1.73,2.75-3.63,2.96-2.65.22,1.02-1.2,4.63-1.98,5.84-.77,1.23-1.1,2.1.12,1.18,1.25-.95,3.05-5.29,3.93-6.68.86-1.39,4.88-3.81,4.22-2.06-.65,1.72-.9,5.14-.85,6.57.05,1.44,1.04,1.63,1.16-.13.15-1.74,1.6-6.41,2.5-7.66.92-1.26,3.7-1.76,3.19.09-.53,1.83-.72,6.21-.26,8.34.5,2.13,1.36,1.66,1.23.77-.44-3.19.78-7.8,1.53-9.69.76-1.89,3.07-2.79,4.79-2.13,1.73.66,1.02,5.71,1.1,7.4.15,1.69-.24,3.49.53,2.26.77-1.23,1.27-5.91,1.7-8.51.28-1.48,1.06-2.69,1.91-3.76.2-.1.36-.17.58-.3,1.56-.88,2.46-2.69,2.79-4.86.77.22,1.58.38,2.31.41.61.03,1.39-.17,2.31-.48,1.36,1.17,2.06,2.22,1.94,3.45-.09,1.33-1.17,2.59-.17,2.16.94-.42,1.73-2.5,1.53-3.65-.18-.97-.13-2.44.66-3.63,1.42-.71,3-1.55,4.8-2.56.34.28.62.65.59,1.11-.03.83.25,1.94-.17,3.06-.29.76.83-.04,1.03-.95.2-.9.14-4.14,1.49-4.28,1.3-.16,1.43,2.33.89,3.39-.52,1.06-.37,1.42.59.73.95-.7,1.64-3.65,1.98-5.2.31-1.54,2.9-2.65,3.78-1.9.9.75.9,4.66.66,5.46-.2.78.52,1.17,1.05.1.52-1.06.29-3.89.3-6.44,0-.7.17-1.18.43-1.51-.21.43-.12.63.33.3.39-.26.86-.5,1.33-.7.35.14.64.41.8.76.61,1.43.89,3.58.66,4.59-.19,1.04,1.16-.8,1.08-2.56-.05-1.08-.35-2.43-.23-3.52.89-.16,1.71-.14,2.46,0,.3.85.54,1.84.79,2.5.63,1.56,1.11,1.78.7.69-.22-.59-.36-1.76-.43-2.9,1.84.98,3.89,3.24,3.49,4.62-.68,2.25-.23,2.17,1.06.89,1.3-1.3,6.77,2.03,5.28,2.51-1.46.49-2.86,2.67-1.12,2.08,1.25-.43,3.66.13,5.99.32,1.85,1.07,4.09,1.91,6.95,2.05.83.03,1.58-.07,2.28-.32.25.68.51,1.3.83,1.87-1.29,1.1-3.26,1.12-4.79,1.39-2.17.34-4.71.44-3.04,1.21,1.65.76,3.75,1,6.87.95,3.12-.04,4.95,1.12,2.79,1.27-2.17.15-.76,1.47.8,1.45,1.56-.03,4.49-.1,3.36,1.13-1.11,1.25-5.37,1.36-4.5,2.23.89.87,4.3-.31,6.34-1.26,2.05-.94,5.42,0,6.7.92,1.26.93-3.31,3.53-5.33,4.28-2.03.74-2.9,1.81-.15,1.33,2.77-.47,7.87-2.82,10.98-4.43,3.06-1.61,5.29,1.16,5.1,2.89-.19,1.72-1.16,3.75.56,2.01,1.75-1.75,3.82-2.9,4.66-1.83.87,1.07-2.56,3.99-4.45,5.34-1.89,1.36-3.6,2.72-2,2.31,1.57-.4,4.84-1.62,6.13-2.83,1.31-1.21,4.15-4.21,5.31-4.26,1.16-.07.5,2.56-2.42,4.38-2.92,1.82-4.75,2.58-3.59,2.72,1.14.13,5.34-.77,7.29-2.71,1.8-1.76,1.98-4.5,5.09-6.38,3.41.41,6.93.93,10.43,1.66.28,1.06-.68,2.71-2.29,4.42-2.19,2.27-6.11,4.18-4.55,4.15,1.56-.03,6.94-3.14,9.27-4.81,2.3-1.68,5.95-1.49,4.69-.46-1.27,1.03-2.43,4.58-.51,2.85,1.95-1.71,7.64-.53,12.1-2.17,0,0-.43-.46-1.21-1.1,2.89.86,7.49,1.35,11.26.38,1.19-.3,3.02-.39,5.04-.35-2.36,2.12-5.28,4.03-7.74,5.06-4.17,1.73-11.76,4.83-12.87,8.11,0,.07,0,.12-.02.2-1.15.3-2.43.34-3.06.56-1.03.38-2.45.65-3.34-1.03-.91-1.66-2.7-2.04-3.11-1.66-.36.37,2.59,2.96,2.2,4.24-.37,1.29-1.92,1.41-2.2,2.42-.22,1.04-1.26.4-2.16.66-.9.24-1.32,1.53-2.33,1.67-2.03.25-3.98-1.16-4.49-1.81-.51-.63,0,1.43.9,2.32.9.9,1.79,1.55,1.03,2.2-.76.64-1.68,1.92-3.97,1.78-2.33-.12-6.69.26-8.5.91-1.79.63.38.63,1.69.63s4.22.76,4.48,1.56c.28.76-1.29,2.56-3.46,2.69-2.19.14-5.42-.38-7.47-.12-2.06.26,0,.9,1.16,1.03,1.15.12,4.36.25,4.63,1.41.25,1.16-.9,2.7-2.59,2.7s-5.65.13-7.07.51c-1.41.38-4.23,2.31-2.96,2.18,1.29-.13,7.72-1.28,8.48-.63.78.63-.37,2.69-2.44,3.08-2.05.38-4.38.38-5.67,1.03-1.29.63.26,1.16,1.42.9,1.16-.27,3.61,0,3.85.77.14.39-.31,1.03-1,1.53l1.79,2.54-1.79-2.54c-.69.53-1.62.91-2.45.78-1.68-.25-5.93-.78-7.6-.38-1.67.38,2.31.64,3.87,1.28,1.54.64,3.09,1.3,2.17,2.45-.9,1.15-3.73,1.28-5.14.51-1.42-.77-1.03-2.32-1.81-2.18-.76.11-.38,2.82.26,3.86.64,1.03,2.57,1.93,2.57,1.93,0,0-1.43,1.16-2.83,2.05-2.43,1.55-5.39,1.67-7.21.65-1.79-1.03-2.83-2.7-3.08-5.02-.16-1.38-.51.51-.64,2.18-.13,1.66,0,4.51,1.03,5.41.33.29.36.63.3.96-2.32.41-4.59.85-6.53,2.13-.81-.43-1.63-.8-2.44-1.03-1.04-.78-1.99-1.51-2.52-1.81-1.43-.77-3.09-4-3.09-5.66s-.91-1.16-.91,0,1.29,4.62.14,5.27c-1.16.65-2.45.39-3.1-.76-.64-1.16-1.54-3.86-1.54-5.02s-.38-.77-.38.9,1.03,4.5-.64,4.13c-1.68-.39-2.44-3.09-2.58-4.76-.11-1.68-1.16-2.97-1.27-1.93-.13,1.03-.4,3.47.37,4.64.78,1.14-2.12,1.28-3.22-1.17-1.02-2.31-1.91-5.01-2.82-5.8-.89-.76-1.43-.11-.89.53.49.64,2.03,4.24,1.52,5.27-.5,1.03-3.34,1.03-4.23-.25-.9-1.29-2.7-3.74-3.86-3.99-1.16-.27-1.16.12-.27.9.91.76,1.81,3.09.51,3.47-1.26.4-2.69-.76-3.22-1.54-.51-.78-1.66-1.81-1.41-.63.26,1.14.9,2.57,1.67,3.33.52.52.04,1.2-.56,1.55-.75-.8-1.77-1.3-3.39-1.27-1.22-1.14-2.22-2.48-2.22-3.49,0-1.41-1.16.26-.9,1.54.26,1.29-1.4,1.81-2.56,1.16s-1.16-3.09-.63-3.85c.51-.77-1.8.5-2.58,1.79-.78,1.29-1.42.65-2.05.14-.64-.52-1.55-.14-2.07.51-.5.63-1.82.38-2.05-.51-.26-.9.38-2.32,0-2.46-.38-.11-1.93,1.68-1.8,2.58.12.91-.9,1.29-1.8.52-.9-.78-2.96-1.03-4.38,0-.24.18-.52.32-.79.45-5.56-.2-14.18-.7-20.29,1.09-3.09.9-4.95,2.69-5.99,4.83-1.15-.75-2.26-1.1-3.11-.8-.03.02-.09.05-.1.05.04-.33.04-.55.04-.55-2.17,1.64-3.2,1.72-4.32.78-1.13-.95-2.76-2.17-2.23-.96.51,1.19,1.04,2.87,1.83,3.1.1.04.1.11.13.15-.51.39-1.07.77-1.58,1.17-1.22.04-3.19-1.24-3.5-1.03-.32.23.26,1.54,1.36,2.2.17.11.18.23.25.32-.43.36-.88.71-1.29,1.07-.2.03-.4.08-.61.08-1.29-.06-2.13.99-1.8,1.69.04.09.06.16.07.23-.2.18-.41.36-.61.53-.83.74-1.9,1.73-3.05,2.86-1.2.56-2.27.83-2.86.93-1.86.32-2.64-.82-2.97-.13-.18.41,1.1,1.76,2.38,1.85-1,1.72-2.52,2.32-3.82,2.66-1.34.37.22,1.3,1.46,1.08-1.07,1.41-1.87,2.69-2.09,3.6-.24,1.21,0,3.19,1.6,3.83,1.02,3.87,5.51,6.64,6.79,6.44.63,1.44,3.22,2.76,6.51.71,1.52-.95,4.13-3.02,6.94-5.59.78,1.2-.98,3.56-1.5,4.19-.6.73-.54,1.47.65.5,1.2-.99,2.04-2.49,2.43-3.72.43-1.22,2.31-5.03,3-4.26.7.77-.31,2.71-.9,3.91-.6,1.18.06,1.67,1.03.36.98-1.29,1.61-3.11,1.67-5.05.09-1.93,1.83-2.82,2.65-2.29.83.53.88,3.31.49,4.81-.37,1.51,1.01.1,1.45-1.3.19-.63-.03-1.67-.27-2.74.76-.36,1.64-1.06,2.52-2.17.36.67.74,1.49,1.03,2.34-.12.14-.27.33-.36.43-1.04,1.03-1.54,1.81-.13,1.16.24-.1.51-.34.82-.61.17.56.3,1.05.31,1.4.12,1.3.96.73.94-1.13-.03-.42-.11-.83-.24-1.25,1.28-1.43,2.7-3.32,3.45-4.07,1.16-1.17,5.92-3.34,4.88-1.81-1.03,1.55-2.3,5.55-2.57,6.94-.26,1.43.65,1.82,1.16.15.52-1.69,2.97-5.93,4.12-6.95,1.15-1.04,3.99-.91,3.08.76-.89,1.67-2.03,5.92-2.03,8.11s.95,1.91,1,1.03c.26-3.22,2.45-7.47,3.62-9.13,1.16-1.68,3.6-2.06,5.14-1.02,1.56,1.02-.24,5.77-.51,7.45-.25,1.68-1.03,3.34,0,2.32,1.03-1.03,2.7-4.91,3.73-7.34.85-2.02,2.34-2.48,3.7-3.09.55.08,1.13.17,1.71.24.9,3.96-2.22,9.43-1.16,9.66.67.15,1.94-2.44,2.69-5.39.8-3.12,4.82-3.61,5.41-2.58l1.6-2.07-1.6,2.07c.59,1.03-3.37,5.87-4.11,7.6-.9,2.04-.25,1.91.63.63.96-1.38,4.81-5.65,6.06-6.43,1.23-.79,3.14-.07,2.78,1.39-.37,1.46-2.08,4.98-3.05,6.08-.97,1.08-.77,1.92.65.5,1.81-1.82,3.42-5,5.78-6.54,2.34-1.53,4.62-.62,4.66.31.02.94-1.31,2.29-2.6,3.35-1.26,1.08-1.16,2.79.11,1.61,1.22-1.21,4.93-3.32,6.18-4,1.29-.66,4.96-.82,5.14.62.17,1.42-1.94,3.69-2.97,4.69-1.04,1-3.12,2.56-.62,1.51,2.5-1.03,4.9-4.43,6.3-5.15,1.39-.71,2.42-.31,2.44,1.04,0,1.34-1.71,4.23-2.37,5.1-.64.88-2.37,2.35-1.27,2.01,1.1-.34,4.41-4.05,5.1-5.75.68-1.69,2.04-2.32,3.3-1.77,1.25.56,1.14,3.09.45,4.38-.68,1.28-4.08,4.61-3.32,4.41.71-.24,3.95-3.26,4.79-4.86.71-1.36.71-3.34,3.44-4.87.74-.17,1.33-.45,1.89-.79.04-.03.08-.05.13-.06,0,0-.03-.03-.05-.03.11-.06.16-.14.25-.2,1.16.89,2.45,1.57,3.75,1.97.02,1.67-1.25,4.31-2.19,6.09-1.53,2.89-1.36,4.83-.6,3.09,1.06-2.36,2.9-4.64,5.99-6.56,1.5-.93,4.83-1.53,7.52-1.35,2.71.2,8.3-2.89,9.27-3.47.96-.56.38,1.93,2.13.96,1.72-.96,1.89-2.7,5.17-4.24,1.15-.53,1.16,1.54,2.73,0,.73-.74,1.57-1.95,2.37-3.17,2.04-1.19,3.98-2.69,5.6-4.73.02,0,.04.04.07.04,2.49,1.24,6.67-2.81,9.24-6.16,2.65-3.44,5.03-7.94,8.42-11.47.36.15.49.64.08,1.82-.9,2.59-.26,4.37.37,2.06.66-2.3,4.12-6.18,5.03-7.58.9-1.43,5.15-4.37,3.09-.78-2.06,3.62-1.55,6.95-.91,4.89.63-2.05,4.75-7.07,7.85-8.36,2.12-.9,3.72-3.13,5.27-5.17,2.62-.43,7.49-2.95,10.99-5.18,1.49-.95,3.8-1.84,6.18-2.57-1.84,3.45-4.8,7.16-7.27,9.07-1.29,1-2.71,2.06-4.05,3.2-1.21.42-2.3.57-3.28.39-1.42-.25-2.32.91-2.44,1.43-.13.51,1.81,1.79.66,2.44-1.16.64-4.26-.9-4.4,0-.11.9,1.93,1.4,1.69,2.19-.25.76-1.04,1.41-2.32,1.29-1.29-.14-2.96-.53-3.09,0-.12.5,2.31,1.79,2.06,2.96-.26,1.15-1.69.89-2.83.76-1.15-.11-3.74-.11-4,.39-.23.52,4.77.25,4.65,1.28-.13,1.03-1.16,2.19-2.46,2.46-1.27.25-4.48.25-4.48.76s4.11.25,4.48,1.16c.4.9-.13,2.04-1.13,2.69-1.06.64-3.62.64-4.52.38-.9-.25-3.61-.5-3.73.14-.13.64,2.69.5,3.36,1.16.63.64,1.54.52,2.56.52s1.17,1.53-.27,1.92c-1.4.39-4.49.77-4.49,1.29s2.46-.25,2.84.39c.38.64-.5,2.56-1.42,2.82-.9.25-4.75,1.29-4.5,1.79.25.52,2.44-.37,2.71.13.23.52-1.69,1.69-3.1,1.94-1.41.25-3.87,1.93-3.87,2.71s2.07-.26,3.11-.66c1.02-.39,0,1.29-.77,1.94-.76.63-2.46,1.28-3.87,1.67-1.43.4-4.25,2.07-4.12,2.7.13.64,4.76-2.06,5.04-.63.24,1.4-1.43,2.43-3.23,2.69-1.81.26-3.84,1.42-4.38,2.31-.51.9,1.16.26,2.07,0,.89-.25,1.41.14,1.26.65-.1.52-1.26,2.83-1.89,3.47-.67.65-2.97,2.19-4.26,2.58-1.29.38-2.69,2.31-2.95,3.34s.75-.13,1.66-.77c.9-.63,3.09-1.8,3.35-1.29.25.5-1.03,3.47-1.93,4.11-.9.66-3.22,2.07-3.46,2.82-.29.78,2.29-.9,2.68-.37.39.51,0,1.94-1.01,2.31-1.03.38-2.73,1.67-2.73,2.43s2.62-1.81,3.69-.54c-.07.73-.13,1.45-.07,2.09.03.47.11.96.24,1.43-1.01.4-1.98.85-2.74,1.36-4.28,2.86-5.54,7.75-2.48,19.21,2.29,8.57-.86,10.43,2.66,19.61.16.45.38.83.6,1.21-.75,1.99-.88,4.02-.76,6.01-1.43,1.89-3.65,4.31-5.75,5.62-2.25,1.44-4.95,1.77-4.73,2.37.25.63,4.28.05,6.58-1.39,2.3-1.44,3.66-2.62,4.28-1.64.16.23.25.59.28.97,0,.02,0,.04,0,.05.11,1.26-.35,3.08-1.65,4.25-1.77,1.57-5.33,3.36-5.23,3.76.09.4,3.13.15,4.95-1.31,1.83-1.45.64,1.78-.86,2.98-2.62,2.11-5.59,2.46-5.54,3.03.06.57,3.93,1.17,5.6-.03.83,2.97-.65,4.54-2.03,5.68-2.18,1.85-3.22,1.43-2.99,2.04.25.62,2.89.45,4.48-.85,1.61-1.31.27,5.08-.24,6.09-1.18,2.26-4.1,3.64-3.82,4.08.29.43,4.36-.79,5.27-2.74.92-1.94,1.55,4.25.86,5.71-1.07,2.36-2.46,3.07-2.29,3.59.16.5,2.97-.83,3.5-2.84.67,1.16.34,2.57-.16,3.68-1.77,1.12-3.49,1.98-4.22,2.19-1.37.36.83.69,1.96.22.43-.19.87-.19,1.28-.1.1.05.26.1.43.11.42.24.71.66.71,1.34,0,1.42-.63,3.15-2.16,3.28-1.54.13-4.03,1.24-4.01,1.76.05.5,3.88-.19,3.95.7.08.89,1.16,3.13-2.26,3.92-3.42.81-7.76,2.73-8.09,3.41-.34.66,1.04.29,3.22-.02,2.19-.3,4.59-.64,4.68.38.09,1.03-.97,3.69-3.29,4.02-2.27.33-7.13.99-7.98,1.59-.85.58,1.23.77,3.15.51,1.89-.31,4.05-.86,4.35-.13.32.75-2.67,1.92-3.81,2.26-1.14.36,1.2.42,2.33.31,1.17-.1,1.3,1.33-.05,2.21-1.34.89-6.18,1.56-8.54,2.79-2.34,1.22-3.49,1.59-4.38,1.41-.94-.19-.94,1.23,1.58.76,2.56-.48,7.65-2.83,9-2.04,1.36.77-.11,3.1-2.39,3.68-2.28.57-5.64.46-7.12,1.5-1.45,1.02-.31.92,1.22.68,1.54-.26,4.7-.93,5.05-.03.3.86-1.23,2.56-2.48,2.77-1.26.24-4.82.8-5.69,1.39-.84.58.83.44,1.84.23,1-.22,2.66-.49,1.98.87-.63,1.34-2.38,3.81-4.08,3.69-1.69-.11-5.74.74-6.45,1.45-.72.7.05.63,1.2.4,1.13-.22,3.93-.71,4.28.3.33,1-.09,2.2-1.12,3.44-1.06,1.25-1.29,3.35-.97,3.96.31.63.63,2.9-.35,3.5-.99.6-2.19.07-2.68-1.06-.48-1.12-.98-.23-.79,1.23.36,2.8,1.98,3.69,4.09,2.74.37-.16.68-.37.94-.65,1.86,6.59,9.95,9.16,14.98,8.74,3.72-.32,6.81-3.86,9.23-9.66,1.15,1.35,1.17,5.88,1.71,5.84.63-.07.17-3.91.03-7.12-.03-1.19-.05-2.5,0-3.71.37-1.24.74-2.56,1.06-3.91.05-.03.08-.08.1-.1,1.15-.35,1.64,4.12,2.3,5.88.69,1.75,1.29,2.98,1.29,1.31-.03-1.67-1.44-7.62-1.95-9-.47-1.38-.03-3.62,1.32-2.95,1.33.66,2.54,4.17,3.03,5.55.5,1.38,1.42,2.98,1.19.42-.21-2.56-2.48-6.64-3.48-9.26-1.01-2.62.36-4.68,1.29-4.49.92.18,1.95,1.76,2.74,3.25.77,1.48,2.47,1.73,1.56.25-.9-1.48-2.89-6.86-3.28-8.24-.38-1.4.97-3.69,2.4-3.56,1.43.15,3.21,2.71,3.95,3.94.76,1.22,1.84,3.58,1.37.91-.47-2.67-3.88-6.26-4.27-7.77-.37-1.51.55-2.63,1.87-2.36,1.3.28,4.03,3.28,4.72,4.12.74.84,1.79,2.82,1.71,1.66-.12-1.15-3.02-5.16-4.54-6.2-1.5-1.03-2.29-2.78-1.49-3.87.79-1.11,3.74-.19,4.82.74,1.12.96,3.69,4.99,3.6,4.23-.06-.77-2.32-4.59-3.71-5.76-1.06-.88-1.75-2.16-2.08-3.67.17-.23.36-.44.55-.67,2.01,2.28,3.48,1.36,2.5.76-1.09-.69-.7-2.26.15-2.72.89-.46.94-1.37.71-2.38-.21-1.03,1.05-1.25,2.24-.85,1.22.42,2.96-.24,2.29-.57-.66-.33-2.07-1.63-2.31-2.76-.2-1.16.57-2.38,1.83-2.87,1.26-.49,2.11-.95,1.31-1.28-.8-.32-1.31-1.95-.3-3.72l-1.48.71c0-.59-.15-1.18-.36-1.78.6-.91,1.13-1.93,1.63-3.04,2.46-5.81.22-16.83-1.09-24.41.97.97,2.07,1.74,2.89,1.51.83-.23-1.13-2.03-1.68-3.36-.54-1.32-1.23-3.56.9-1.93,1.75,1.32,3.51.96,2.35.05-1.22-.93-2.77-3.15-2.89-5.5-.1-1.89-.94-4.14-2.24-6.41-.46-2.22-1.23-4.19-2.16-5.86.79-1.36,1.11-3.23,1.19-5.34,1.2,1.4,3.06,2.28,3.22,1.95.18-.43-1.24-1.49-1.97-3.62-.44-1.22-.88-4.02-.47-6.26,1.05,1.17,3.52,1.69,2.4.63-1.66-1.55-2.97-4.65-3.76-6.94,0-.91.02-1.8.06-2.66,2.04,1.43,4.77,1.28,5.19.89.47-.45-1.87-1.55-3.18-2.85-.63-.63-1.43-2.35-2.15-4.1-.07-.56-.19-1.12-.3-1.69,3.76-2.13,5.57-11.59,12.25-21.5,4.62-6.9,10.41-13.9,16.19-17.75,1.37-.9,3.56-2.25,5.7-3.81.99.8.37,3.33.92,3.33.63,0,1.42-1.94,1.68-2.83.16-.6.76-2.67,1.63-4.3.41-.49.76-.99,1.06-1.49.16.02.28.1.44.1,1.95.14,8.25-3.72,11.21-8.49,2.01-3.21,9.38-9.13,12.85-10.27l-.2-.22c1.14.35,2.53.56,4.03.67-5.58,2.6-11.6,6.74-18.43,13.3-12.86,12.35-9.53,24.43-11.84,30.09-2.3,5.66-6.94,13.89-8.24,23.92-.33,2.73-.6,5.53-.79,8.34-.94,3.18-2.17,9.92-2.4,12.54-.38,4.22-4.63,5.58-1.91,5.76,1.49.11,3.07-.44,4.34-1.6.15,1.88.28,3.77.51,5.56.98,7.18,5.77,15.24,11.58,23.19,1.1,2.69,2.2,5.73,1.69,8.92-.31,2.19,1.98.58,3.28-2.45.33.42.64.81.96,1.21,8.23,10.29,14.72,12.67,22.63,15.96.19.08.47.12.64.22,1.58,1.99,2.97,3.96,2.07,9.97-.68,4.48-1.28,7.33-1.83,9.47-.76,1.25-1.76,2.56-2.6,2.79-1.16.34.11.9,1.65.28-1.54,4.54-3.37,8.56-.82,9.83,2.56,1.29,7.97-5.91,8.49-8.73.14-.81.43-2.07.74-3.5.79,1.35,1.83,1.61,2.16,1.51.38-.15-.76-1.08-.86-3.15-.04-1.47.25-4.77.91-3.74.64,1.04,1.92,2.19,1.26.64-.57-1.37-.76-4.85-.57-7.15,1.05-3.06,2.53-4.67,3.88-5.61,2.9.1,5.88.05,8.84-.14,4.63,1.37,5.08,3.92,5.59,5.58.21.59.43,1.27.67,1.99.23,1.93.32,3.95-.1,4.67-.75,1.23.89.38,1.26-.3.38-.67.86,2.61.86,3.49s0,3.55-.48,4.62c-.48,1.07,1.27-.18,1.44-1.54.18-1.36.98,2.7.89,4.15-.11,1.43-.11,3.67.47,4.24.58.58.29-.87.58-1.16.14-.13.39-.21.72-.18,1.26,2.87,3.28,5.37,5.17,4.86,2.81-.78,1.92-6.32.38-9.4-.63-1.23-.96-2.36-1.23-3.49.92.56,1.65.63,2.1.3.38-.3-1.06-.3-1.65-1.73-.39-.96-.96-3.09-.57-2.89.38.18,2.72.18,1.36-.39-1.06-.45-2.23-3.1-2.81-4.87-.43-2.78-.79-5.66-.57-6.81.38-1.88,1.58-3.01,2.35-3.56.31-.1.72-.17,1.02-.24,6.65-1.8,11.95-4.44,18.03-10.73.27,2.08,1.56,3.62,1.67,2.27.09-1.17,1.69-4.8,3.04-7.63,7.54-9.43,14.8-19.51,16.89-28.46.71,1.85.77,4.05,1.53,2.66,1.57-2.84.56-8.54-.38-12.03.3-5.15.23-10.52-.14-15.79,1.19.58,2.29.56,2.73.16,1.02-1.01-1.28-3.6-1.83-5.91-.38-1.71-1.44-5.09-2.8-7.68-1.92-7.43-5.24-13.65-7.11-18.2-2.31-5.66,1.03-17.74-11.84-30.09-6.31-6.08-11.99-9.98-17.19-12.51,1.83-.02,3.31-.14,4.47-.38,3.8,2.09,9.31,6.68,11.01,9.41,2.94,4.77,9.24,8.63,11.17,8.49.17,0,.3-.08.46-.1.31.5.66,1,1.06,1.49.87,1.63,1.47,3.7,1.63,4.3.26.9,1.03,2.83,1.69,2.83.52,0-.1-2.53.92-3.33,2.13,1.56,4.32,2.9,5.68,3.81,5.78,3.85,11.56,10.85,16.24,17.75,6.64,9.91,8.46,19.37,12.19,21.5-.08.56-.18,1.13-.24,1.69-.75,1.76-1.55,3.47-2.18,4.1-1.27,1.3-3.66,2.4-3.17,2.85.43.39,3.15.54,5.2-.89.05.86.09,1.75.09,2.66-.83,2.29-2.14,5.39-3.78,6.94-1.14,1.05,1.35.54,2.37-.63.42,2.24-.03,5.04-.45,6.26-.72,2.12-2.17,3.18-1.98,3.62.14.33,2.03-.55,3.2-1.95.1,2.1.41,3.97,1.22,5.34-.93,1.67-1.72,3.64-2.14,5.86-1.36,2.28-2.18,4.52-2.28,6.41-.1,2.36-1.67,4.57-2.86,5.5-1.19.9.57,1.27,2.32-.05,2.14-1.63,1.43.61.92,1.93-.55,1.34-2.51,3.13-1.68,3.36.79.23,1.9-.54,2.86-1.51-1.3,7.58-3.53,18.6-1.04,24.41.47,1.11,1.03,2.13,1.6,3.04-.23.6-.35,1.19-.35,1.78l-1.48-.71c1.01,1.77.49,3.4-.31,3.72-.78.33.05.79,1.31,1.28,1.25.49,2.05,1.71,1.82,2.87-.23,1.14-1.62,2.43-2.29,2.76-.7.33,1.07.99,2.26.57,1.2-.4,2.48-.17,2.25.85-.23,1.01-.14,1.92.73,2.38.83.46,1.23,2.03.13,2.72-.96.6.51,1.51,2.53-.76.17.23.35.43.52.67-.31,1.51-1.02,2.79-2.06,3.67-1.41,1.17-3.66,4.99-3.73,5.76-.07.76,2.48-3.28,3.58-4.23,1.12-.93,4.05-1.85,4.86-.74.82,1.09,0,2.84-1.49,3.87-1.51,1.03-4.44,5.05-4.52,6.2-.11,1.16.95-.82,1.67-1.66.7-.84,3.42-3.84,4.74-4.12,1.33-.28,2.27.84,1.87,2.36-.4,1.51-3.79,5.1-4.28,7.77-.48,2.67.63.3,1.38-.91.74-1.23,2.49-3.79,3.92-3.94,1.46-.13,2.82,2.16,2.43,3.56-.37,1.38-2.37,6.76-3.29,8.24-.9,1.48.81,1.23,1.57-.25.76-1.49,1.83-3.07,2.73-3.25.9-.18,2.29,1.87,1.3,4.49-.98,2.62-3.29,6.69-3.48,9.26-.23,2.56.69.96,1.2-.42.49-1.38,1.71-4.89,3.04-5.55,1.35-.67,1.8,1.56,1.28,2.95-.5,1.38-1.89,7.34-1.9,9-.03,1.67.6.43,1.28-1.31.65-1.76,1.16-6.22,2.29-5.88.04.02.08.07.11.1.33,1.36.69,2.67,1.03,3.91.07,1.21.07,2.52,0,3.71-.12,3.21-.58,7.05.05,7.12.53.03.59-4.49,1.72-5.84,2.21,5.29,4.99,8.69,8.3,9.47-.14.67-.23,1.31-.23,2,.03.34.09.7.14,1.05-.1,1.72.4,4.06,1.18,5.94.85,2.03-.38,3.6.3,4.08.67.47.83-2.13,1.8-.69.98,1.45,1.04,3.84.96,4.55-.06.69.17,1.84,1.06.75.88-1.06,2.22-.67,2.34.23.16.9.27,3.01.65,3.02.34.02.45-1.96,1.22-2.85,6.2,5.21,14.69,9.57,17.85,9.84,5.22.42,7.27-2.62,8.42-4.57,1.15-1.96,4.02-3.56,3.39-7.88-.63-4.3-2.29-8.49-6.94-13.57,1.05-.18,2.11,1.16,2.44.55.36-.64-1.61-2.21-2.82-2.64-1.2-.43-3.34-1.26-3.26-1.96.06-.7,2.25-.96,2.39-1.4.1-.44-1.92-.5-2.72-.52-.82-.03-3.02-.69-3.29-1.55-.25-.88,2.23-.68,2.03-1.3-.2-.63-1.72-.3-2.91-.73-.87-.33-2.43-.79-3.75-1.06.3-.5.56-1.11.68-1.94.17-1.46-.33-2.36-.82-1.23-.46,1.13-1.69,1.66-2.66,1.06-.98-.6-.66-2.88-.36-3.5.3-.62.1-2.71-.94-3.96-1.06-1.24-1.49-2.44-1.15-3.44.35-1.01,3.15-.51,4.29-.3,1.14.23,1.92.3,1.21-.4-.73-.71-4.78-1.56-6.5-1.45-1.68.11-3.4-2.36-4.04-3.69-.68-1.36.99-1.09,2-.87,1.02.21,2.7.35,1.83-.23-.83-.59-4.43-1.15-5.67-1.39-1.29-.22-2.83-1.91-2.5-2.77.34-.9,3.5-.23,5.03.03,1.51.24,2.69.34,1.22-.68-1.46-1.04-4.81-.93-7.09-1.5-2.29-.58-3.75-2.91-2.4-3.68,1.36-.79,6.45,1.56,9,2.04,2.53.48,2.52-.95,1.6-.76-.91.18-2.06-.19-4.41-1.41-2.34-1.23-7.19-1.9-8.53-2.79-1.35-.88-1.22-2.3-.05-2.21,1.13.1,3.46.04,2.34-.31-1.14-.34-4.15-1.51-3.82-2.26.32-.73,2.48-.18,4.38.13,1.92.26,4.01.07,3.15-.51-.86-.6-5.7-1.26-7.99-1.59-2.3-.32-3.36-2.99-3.29-4.02.07-1.03,2.51-.69,4.68-.38,2.15.3,3.55.68,3.22.02-.33-.68-4.68-2.6-8.11-3.41-3.41-.79-2.32-3.03-2.26-3.92.1-.89,3.9-.19,3.95-.7.04-.52-2.47-1.63-3.98-1.76-1.54-.13-2.18-1.86-2.18-3.28,0-.68.3-1.09.73-1.34.17-.02.33-.06.43-.11.38-.09.84-.09,1.3.1,1.1.47,3.32.15,1.93-.22-.74-.21-2.41-1.07-4.22-2.19-.5-1.1-.83-2.52-.18-3.68.55,2.02,3.38,3.34,3.54,2.84.15-.52-1.2-1.23-2.29-3.59-.7-1.46-.07-7.65.83-5.71.91,1.95,5.03,3.17,5.28,2.74.29-.44-2.62-1.83-3.8-4.08-.53-1.02-1.85-7.4-.26-6.09,1.61,1.3,4.28,1.47,4.49.85.22-.61-.78-.19-2.97-2.04-1.39-1.14-2.86-2.7-2.03-5.68,1.66,1.2,5.54.6,5.58.03.07-.57-2.92-.92-5.53-3.03-1.5-1.2-2.69-4.43-.85-2.98,1.81,1.46,4.86,1.71,4.95,1.31.08-.41-3.49-2.19-5.24-3.76-1.3-1.17-1.76-2.99-1.68-4.25,0,0,0-.03,0-.05.05-.38.14-.74.29-.97.63-.98,2.02.2,4.29,1.64,2.29,1.44,6.34,2.02,6.57,1.39.23-.6-2.46-.93-4.74-2.37-2.09-1.31-4.31-3.74-5.74-5.62.13-2-.03-4.03-.76-6.01.22-.37.43-.76.59-1.21,3.53-9.18.4-11.04,2.68-19.61,3.05-11.46,1.8-16.35-2.49-19.21-.76-.5-1.73-.96-2.76-1.36.14-.47.23-.96.27-1.43.06-.64,0-1.36-.08-2.09,1.07-1.27,3.66,1.3,3.66.54s-1.66-2.05-2.68-2.43c-1.03-.37-1.43-1.8-1.03-2.31.37-.52,2.96,1.16,2.71.37-.26-.76-2.58-2.16-3.48-2.82-.91-.64-2.19-3.61-1.94-4.11.26-.51,2.46.65,3.36,1.29.89.64,1.9,1.8,1.64.77-.25-1.03-1.64-2.96-2.95-3.34-1.29-.39-3.62-1.93-4.25-2.58-.64-.63-1.79-2.95-1.93-3.47-.11-.51.38-.9,1.29-.65.9.26,2.58.9,2.05,0-.5-.9-2.56-2.05-4.36-2.31-1.81-.25-3.47-1.29-3.21-2.69.25-1.43,4.88,1.28,5.01.63.13-.63-2.69-2.3-4.11-2.7-1.42-.39-3.09-1.03-3.83-1.67-.81-.64-1.82-2.33-.81-1.94,1.03.4,3.09,1.43,3.09.66s-2.42-2.46-3.84-2.71c-1.43-.25-3.36-1.42-3.08-1.94.22-.5,2.41.39,2.69-.13.27-.5-3.61-1.54-4.51-1.79-.91-.26-1.79-2.18-1.42-2.82.4-.64,2.83.11,2.83-.39s-3.08-.9-4.5-1.29c-1.41-.39-1.29-1.92-.26-1.92s1.93.12,2.57-.52c.64-.66,3.47-.51,3.35-1.16-.15-.64-2.84-.39-3.75-.14-.9.26-3.48.26-4.48-.38-1.05-.64-1.55-1.79-1.18-2.69.4-.91,4.5-.65,4.5-1.16s-3.2-.51-4.5-.76c-1.28-.27-2.31-1.43-2.43-2.46-.14-1.03,4.88-.76,4.62-1.28-.23-.5-2.82-.5-3.95-.39-1.18.13-2.59.39-2.86-.76-.25-1.17,2.2-2.46,2.06-2.96-.12-.53-1.79-.14-3.08,0-1.28.12-2.06-.53-2.3-1.29-.29-.79,1.79-1.29,1.64-2.19-.1-.9-3.19.64-4.35,0-1.16-.65.76-1.93.63-2.44-.11-.51-1.03-1.68-2.43-1.43-.96.18-2.06.03-3.26-.39-1.35-1.14-2.78-2.2-4.06-3.2-2.48-1.91-5.44-5.62-7.27-9.07,2.36.72,4.7,1.63,6.16,2.57,3.52,2.23,8.38,4.75,10.99,5.18,1.55,2.04,3.15,4.28,5.27,5.17,3.09,1.29,7.21,6.31,7.87,8.36.62,2.06,1.12-1.28-.91-4.89-2.07-3.59,2.17-.64,3.08.78.91,1.4,4.37,5.28,5.02,7.58.62,2.31,1.29.53.37-2.06-.41-1.17-.26-1.67.08-1.82,3.39,3.54,5.79,8.03,8.4,11.47,2.59,3.36,6.81,7.4,9.28,6.16.03,0,.06-.03.07-.04,1.59,2.03,3.55,3.54,5.57,4.73.83,1.23,1.65,2.43,2.39,3.17,1.54,1.54,1.57-.53,2.69,0,3.29,1.54,3.48,3.28,5.23,4.24,1.72.96,1.15-1.53,2.1-.96.97.57,6.57,3.67,9.27,3.47,2.71-.18,5.99.42,7.5,1.35,3.1,1.92,4.94,4.2,5.99,6.56.77,1.75.98-.19-.56-3.09-.95-1.78-2.23-4.42-2.18-6.09,1.26-.4,2.56-1.09,3.75-1.97.09.06.16.14.25.2-.03,0-.06.03-.06.03.07,0,.1.03.14.06.52.34,1.13.62,1.86.79,2.74,1.53,2.74,3.51,3.45,4.87.83,1.6,4.08,4.62,4.83,4.86.73.21-2.69-3.13-3.35-4.41-.69-1.29-.81-3.82.44-4.38,1.26-.55,2.62.08,3.33,1.77.67,1.69,3.96,5.41,5.08,5.75,1.09.34-.59-1.13-1.29-2.01-.65-.87-2.37-3.76-2.35-5.1,0-1.36,1.03-1.76,2.42-1.04,1.39.71,3.77,4.11,6.29,5.15,2.5,1.05.44-.51-.59-1.51-1.05-1-3.17-3.28-2.99-4.69.17-1.43,3.85-1.28,5.13-.62,1.29.68,4.96,2.79,6.21,4,1.25,1.18,1.37-.53.07-1.61-1.27-1.07-2.6-2.42-2.56-3.35.02-.93,2.29-1.84,4.67-.31,2.36,1.55,3.95,4.73,5.78,6.54,1.39,1.43,1.61.58.63-.5-.96-1.1-2.68-4.62-3.02-6.08-.36-1.46,1.52-2.18,2.76-1.39,1.24.78,5.11,5.05,6.04,6.43.93,1.28,1.56,1.41.66-.63-.76-1.73-4.68-6.57-4.11-7.6l-1.6-2.07,1.6,2.07c.56-1.03,4.57-.54,5.41,2.58.77,2.95,2,5.54,2.7,5.39,1.06-.23-2.07-5.7-1.17-9.66.6-.07,1.17-.16,1.7-.24,1.37.61,2.85,1.07,3.68,3.09,1.03,2.43,2.71,6.31,3.75,7.34,1.03,1.02.26-.64,0-2.32-.27-1.68-2.07-6.43-.53-7.45,1.56-1.04,4.02-.66,5.15,1.02,1.18,1.67,3.36,5.92,3.61,9.13.07.89,1.03,1.16,1.03-1.03s-1.16-6.44-2.04-8.11c-.91-1.68,1.92-1.81,3.09-.76,1.15,1.03,3.6,5.26,4.1,6.95.5,1.67,1.42,1.29,1.18-.15-.29-1.4-1.56-5.4-2.59-6.94-1.04-1.53,3.72.63,4.88,1.81.77.75,2.16,2.64,3.44,4.07-.11.42-.24.83-.24,1.25-.02,1.86.82,2.43.96,1.13.03-.35.13-.85.3-1.4.28.27.57.51.82.61,1.41.64.9-.13-.13-1.16-.11-.1-.25-.29-.36-.43.3-.85.65-1.67,1.07-2.34.85,1.11,1.74,1.82,2.48,2.17-.23,1.07-.46,2.11-.26,2.74.44,1.41,1.82,2.82,1.43,1.3-.37-1.49-.3-4.28.52-4.81.81-.52,2.56.37,2.65,2.29.07,1.94.66,3.76,1.66,5.05.96,1.3,1.61.82,1.02-.36-.58-1.2-1.57-3.14-.9-3.91.69-.77,2.62,3.04,3.01,4.26.41,1.23,1.24,2.73,2.45,3.72,1.2.97,1.23.23.63-.5-.5-.63-2.27-2.99-1.49-4.19,2.81,2.57,5.42,4.64,6.94,5.59,3.27,2.05,5.88.73,6.5-.71,1.3.2,5.79-2.57,6.81-6.44,1.59-.64,1.83-2.62,1.56-3.83-.19-.91-1.02-2.19-2.09-3.6,1.3.23,2.82-.7,1.47-1.08-1.29-.34-2.8-.94-3.79-2.66,1.27-.1,2.55-1.44,2.35-1.85-.31-.69-1.09.45-2.95.13-.6-.1-1.69-.36-2.86-.93-1.14-1.13-2.23-2.12-3.07-2.86-.16-.16-.4-.35-.61-.53.03-.08.03-.15.09-.23.35-.7-.51-1.75-1.78-1.69-.22,0-.41-.05-.63-.08-.4-.36-.83-.7-1.29-1.07.06-.1.07-.21.24-.32,1.1-.66,1.68-1.96,1.36-2.2-.31-.21-2.28,1.08-3.5,1.03-.53-.4-1.05-.78-1.58-1.17.05-.04.05-.11.15-.15.78-.23,1.31-1.91,1.81-3.1.53-1.21-1.07.02-2.2.96-1.15.94-2.17.86-4.31-.78,0,0,0,.22.03.55-.03,0-.06-.03-.1-.05-.87-.3-1.96.05-3.12.8-1.03-2.15-2.91-3.94-5.99-4.83-6.08-1.79-14.72-1.29-20.29-1.09-.26-.13-.56-.27-.79-.45-1.41-1.03-3.48-.78-4.38,0-.9.76-1.93.39-1.8-.52.13-.9-1.42-2.69-1.8-2.58-.38.14.27,1.56,0,2.46-.27.9-1.56,1.15-2.07.51-.51-.65-1.38-1.03-2.05-.51-.66.51-1.28,1.15-2.07-.14-.76-1.29-3.07-2.56-2.55-1.79.5.76.5,3.21-.65,3.85-1.16.64-2.82.13-2.58-1.16.27-1.28-.9-2.95-.9-1.54,0,1.02-.96,2.36-2.21,3.49-1.61-.03-2.63.47-3.39,1.27-.58-.35-1.08-1.03-.55-1.55.76-.76,1.41-2.19,1.64-3.33.28-1.17-.89-.15-1.4.63-.5.77-1.93,1.94-3.22,1.54-1.29-.38-.37-2.7.5-3.47.93-.78.93-1.17-.24-.9-1.16.25-2.96,2.7-3.84,3.99-.9,1.29-3.75,1.29-4.26.25-.51-1.03,1.04-4.62,1.54-5.27.52-.64,0-1.29-.87-.53-.93.78-1.81,3.49-2.86,5.8-1.09,2.45-3.97,2.31-3.22,1.17.76-1.17.53-3.62.39-4.64-.14-1.04-1.15.25-1.29,1.93-.13,1.67-.9,4.37-2.58,4.76-1.66.37-.63-2.45-.63-4.13s-.4-2.05-.4-.9-.9,3.86-1.54,5.02c-.63,1.15-1.93,1.41-3.09.76-1.16-.64.14-4.09.14-5.27s-.92-1.67-.92,0-1.67,4.88-3.09,5.66c-.53.3-1.48,1.03-2.51,1.81-.85.23-1.65.6-2.47,1.03-1.93-1.28-4.19-1.72-6.47-2.13-.09-.33-.05-.68.29-.96,1-.9,1.12-3.75,1-5.41-.13-1.67-.47-3.56-.63-2.18-.25,2.32-1.28,4-3.09,5.02-1.79,1.02-4.75.9-7.2-.65-1.41-.9-2.82-2.05-2.82-2.05,0,0,1.93-.9,2.58-1.93.63-1.04,1.02-3.75.24-3.86-.76-.14-.39,1.41-1.8,2.18-1.41.76-4.25.63-5.13-.51-.93-1.16.63-1.81,2.16-2.45,1.56-.63,5.54-.9,3.87-1.28-1.69-.4-5.91.13-7.59.38-.85.13-1.77-.25-2.49-.78l-1.76,2.54,1.76-2.54c-.65-.5-1.1-1.14-.99-1.53.25-.77,2.69-1.04,3.87-.77,1.16.26,2.69-.27,1.42-.9-1.29-.65-3.61-.65-5.67-1.03-2.07-.38-3.22-2.45-2.43-3.08.76-.65,7.19.5,8.47.63,1.3.13-1.56-1.8-2.96-2.18-1.41-.38-5.41-.51-7.06-.51s-2.83-1.54-2.56-2.7c.25-1.16,3.46-1.29,4.62-1.41,1.15-.13,3.2-.77,1.15-1.03-2.05-.26-5.27.26-7.46.12-2.21-.12-3.73-1.93-3.45-2.69.27-.79,3.22-1.56,4.48-1.56s3.48,0,1.69-.63c-1.83-.65-6.18-1.03-8.53-.91-2.29.14-3.2-1.14-3.98-1.78-.78-.65.13-1.3,1.04-2.2.9-.89,1.41-2.96.9-2.32-.52.65-2.44,2.06-4.51,1.81-1.02-.14-1.4-1.43-2.32-1.67-.9-.26-1.91.38-2.17-.66-.26-1.02-1.8-1.13-2.2-2.42-.37-1.28,2.58-3.87,2.2-4.24-.41-.38-2.2,0-3.09,1.66-.9,1.68-2.3,1.41-3.35,1.03-.61-.22-1.89-.25-3.06-.56,0-.08,0-.13-.02-.2-1.11-3.28-8.71-6.38-12.86-8.11-2.46-1.01-5.39-2.94-7.73-5.06,1.99-.04,3.84.04,5.04.35,3.77.96,8.36.48,11.27-.38-.78.63-1.2,1.1-1.2,1.1,4.45,1.64,10.13.46,12.06,2.17,1.93,1.73.78-1.83-.51-2.85-1.26-1.03,2.41-1.22,4.69.46,2.36,1.68,7.7,4.79,9.29,4.81,1.55.03-2.36-1.89-4.55-4.15-1.63-1.71-2.59-3.36-2.29-4.42,3.45-.73,7-1.25,10.41-1.66,3.11,1.88,3.32,4.62,5.12,6.38,1.94,1.94,6.13,2.84,7.27,2.71,1.15-.14-.69-.9-3.6-2.72-2.89-1.83-3.59-4.45-2.42-4.38,1.2.05,4.02,3.05,5.32,4.26,1.32,1.22,4.55,2.43,6.15,2.83,1.6.41-.1-.96-2.03-2.31-1.88-1.35-5.28-4.27-4.43-5.34.85-1.07,2.93.09,4.68,1.83,1.72,1.75.73-.29.54-2.01-.19-1.73,2.03-4.49,5.12-2.89,3.09,1.61,8.2,3.96,10.95,4.43,2.78.48,1.89-.59-.14-1.33-2.03-.76-6.57-3.35-5.3-4.28,1.26-.91,4.64-1.86,6.69-.92,2.03.95,5.45,2.13,6.34,1.26.87-.87-3.42-.98-4.52-2.23-1.09-1.23,1.81-1.16,3.36-1.13,1.56.02,2.98-1.3.83-1.45-2.17-.15-.34-1.31,2.76-1.27,3.12.05,5.23-.19,6.89-.95,1.63-.76-.88-.87-3.03-1.21-1.56-.27-3.5-.3-4.81-1.39.33-.56.58-1.19.81-1.87.73.25,1.49.36,2.33.32,2.83-.14,5.08-.98,6.92-2.05,2.33-.19,4.76-.75,6-.32,1.75.59.36-1.59-1.13-2.08-1.46-.48,4-3.81,5.31-2.51,1.29,1.29,1.73,1.36,1.05-.89-.4-1.39,1.66-3.68,3.5-4.66.45-.23.97-.34,1.57-.38-.09.91-.23,1.78-.42,2.29-.41,1.07.09.85.7-.7.16-.43.32-.99.51-1.56.88.04,1.85.23,2.76.55-.1.7-.21,1.41-.24,2.02-.1,1.75,1.28,3.59,1.07,2.55-.19-.88.03-2.57.45-3.95.24.11.52.23.7.36.74.52.51-.3-.33-1.25.73-1.03,2.7-1.09,2.73,1.42.03,2.53-.21,5.37.32,6.42.51,1.06,1.24.67,1.01-.11-.17-.81-.17-4.72.68-5.45.88-.75,3.48.36,3.81,1.91.31,1.53.98,4.48,1.97,5.19.95.68,1.1.33.58-.73-.51-1.06-.43-3.56.9-3.4,1.33.16,1.29,3.37,1.49,4.28.21.91,1.32,1.73,1.02.95-.43-1.11-.12-2.23-.16-3.07-.03-.45.23-.83.59-1.09,1.77.99,3.36,1.83,4.79,2.53.79,1.21.83,2.69.69,3.65-.22,1.14.56,3.23,1.49,3.64,1,.43-.07-.81-.17-2.16-.09-1.23.58-2.28,1.96-3.44.9.3,1.7.5,2.3.48.74-.03,1.52-.18,2.28-.42.37,2.17,1.24,3.98,2.82,4.88.2.1.39.18.57.28.86,1.08,1.64,2.29,1.91,3.77.47,2.58.94,7.27,1.7,8.5.78,1.23.4-.56.51-2.25.11-1.69-.63-6.73,1.11-7.39,1.73-.68,4.04.23,4.8,2.12.77,1.89,1.96,6.5,1.51,9.7-.1.9.78,1.36,1.26-.79.44-2.13.23-6.52-.24-8.34-.56-1.83,2.26-1.34,3.16-.09.9,1.25,2.37,5.94,2.51,7.67.13,1.75,1.09,1.56,1.16.12.05-1.43-.17-4.86-.83-6.58-.67-1.74,3.31.69,4.19,2.06.9,1.39,2.69,5.75,3.91,6.68,1.26.93.93.08.14-1.16-.76-1.23-2.22-4.83-2-5.84.23-.99,2.3.92,2.98,2.64.64,1.74,1.6,2.86,2.4,3.45.79.56,1.12.23.23-1.01-.93-1.26-1.33-2.95-.32-3.37,1.03-.43,3.71,1.07,3.88,3.23.26,2.78.42,4.02,1.52,5.73,1,1.56,1.2.61.54-.55-.87-1.55-.81-3.06-.24-4.38.56-1.33,1.29-1.54,2.08-.31.77,1.23,1.01,3.43,1.93,4.56.94,1.14,1.9,1.41.99.15-.9-1.24-1.41-2.81-.83-3.59.56-.79,2.51-.63,3.29,1.12.8,1.76,1.89,2.58,3.28,3.39,1.4.85,1.17.19.21-.7-1-.88-1.86-1.66-1.49-2.64.33-.96,3.46.59,4.36,1.51.71.76.97,2.14,2.45,2.61,1.49.46,1.23-.25.4-.7-.71-.4-1.6-2.25-.6-4.26,2.56-.12,4.81-.69,6.61-1.62.25.27.46.56.72.79.56.45,1.2.85,1.89,1.23l.3.83c2.08,1.03,5.19,1.83,6.33,2.08,1.15.23,3.49,1.14,4.19,2.03.67.9.65-1.4.21-1.89-.43-.46,1.6-.41,2.76.36,1.13.76,2.89,1.65,3.72,1.57.86-.09-.88-.67-.78-1.46.1-.78,2.21-1.31,2.82-1.08.62.23,2.46.56,3.62-.03.63-.31.99-.77,1.32-1.2,5.33-1.09,10-2.53,11.52-4.05,4.95-4.95,2.2-8.24,2.49-11.22.39-3.87-.66-6.38-4.3-8.81-3.75-2.49-7.88-2.96-15.17-2.49.11-.76,1.65-1.65,1.18-1.84-.53-.22-2.93.41-4.11,1.29-1.19.89-2.51.58-2.16-.03.33-.58-.24-2.04-.9-2.21-.67-.15-.3,1.55-2.13,2.8-1.2.82-3.55.9-5.1.82-1.52-.07-3.22-.96-4.12.24-.1.14-.27.3-.4.43-.1-.07-.14-.18-.22-.26-3.82-3.41-7.52-4.42-13.52-5.07-.96-.88.47-2.16.22-2.35-.22-.2-1.57.57-2.23,1.21-.66.63-1.96.96-2.96.46-.98-.51,1.43-1.66,1.05-1.89-.42-.23-1.63.2-2.85,1.04-1.23.84-3.77.56-3.22-.14.55-.71.4-1.79.03-1.94-.38-.12-.5,1.26-1.52,1.76-1.03.5-3.65.08-3.07-.26.61-.34,1.15-1.89.78-2.02-.39-.13-1.09.96-2.86,1.36-1.79.42-3.03-.72-2.24-1.09.76-.37,2.23-2.66,1.49-2.76-.74-.1-2.28,1.66-3.56,2.29-.64.29-1.35.52-2.17.6-1.26-.44-2.56-.87-3.8-1.43-3.3-1.49-6.09-2.35-8.58-2.74,1.69-1.35,2.39-2.75,1.83-2.92-.68-.19-2.76,1.61-4.37,1.63-1.22.02-2.61.61-4.05,1.53-.54.13-1.1.3-1.62.49-.17-.43-.35-.85-.57-1.27.23-.24.51-.46.92-.58,1.89-.6,3.68-3.15,2.73-2.71-.95.44-3.24.96-4.79.42-.99-.36-1.69-1.77-.34-2.25,1.34-.49,1.1-.96-.32-.7-1.46.25-2-.62-2.96-1.74-.96-1.11-2.88-.63-3.26-1.45-.38-.81,2.21-1.32,3.32-1.15,1.1.21,1.21-.43-.25-1.15-1.49-.72-5.14,0-6.17.21-1.04.2-3.95-.83-3.09-1.1.88-.28,3.91-2.85,3.51-3.37-.39-.53-1.98.92-3.41,1.46-1.44.55-3.89,1.13-5.25.63-1.37-.49-1.76-1.35-1.23-1.98,1.17-1.42,4.22-2.67,3.52-3.09-.8-.47-4.2,2.27-6.79,3.07-1.48.46-4.08-.49-3.35-.7.76-.22,2.66-2.53,2.33-3.22-.34-.7-2.03,1.09-3.69,1.46-1.03.23-2.46-.04-3.78-.51-4.83-2.99-10.59-6.74-14.74-5.1-.9.35-1.96.89-3.09,1.56-.42.07-.76.22-.96.51-.1.1-.24.2-.32.31-.22.15-.43.3-.65.44-.71.4-1.54.49-1.44-.36.1-1.31-.83-2.89-.96-1.58-.13,1.3-1.4,3.78-2.2,4.77-.79.98-1.88.58-2.08-1.07-.16-1.68-1.04-1.45-.95-.55.1.89.07,3.09-.17,4.42-.25,1.32-1.41,2.49-1.75.71-.3-1.79-1.19-2.85-1.06-1.7.1,1.15-.56,4.72-1.99,5.65-1.21.78-1.43,1.18-2.12-.43-.69-1.6-.86.36-.87,1.52,0,.75-.28,1.87-.94,3.09-1.38,1.09-2.57,2.22-3.54,3.44-.04-.03-.08-.05-.14-.06-.63-.21-1.3-.24-1.99-.21.48-.8.83-1.64.83-2.26-.03-1.43-.69-.44-1.35.66-.8,1.33-1.97,1.12-2.7,1.45.04-.77-.16-2.82-.83-2.76-.63.07-.7,1.89-1.63,2.9-.9,1-1.75,1.73-3.57,1.68-1.82-.07-2.88.7-3.69,1.56-.81.86-3.08,1.36-2.92.7.21-.66-.42-2.8-.8-2.76-.38.03-.66,2.13-1.1,2.83-.47.7-2.34,1.16-3.26.99-.94-.15,2.14-1.65.6-1.61-1.56.03-4.07.7-4.83,1.95-.77,1.24-2.23.76-3.43.76-1.16,0,1.87-3.3.71-3.05-1.13.24-3.03,2.92-3.89,3.15-.92.22.37-2.24-.37-2.17-.81.09-2.71,1.46-3.77,2.36-1.06.9-2.56.4-2.02-.7.53-1.09.69-4.47.14-4.66-.54-.21-.59,1.62-1.23,2.98-.63,1.36-1.11,1.55-2.56,1.56-1.39.04-.19-3.21-.04-4.11.16-.93-.3-1.53-.56-.48-.29,1.07-2.27,4.26-4.16,4.59-1.48.27-3.45,1.17-5.15,1.86-2.92.1-6.23.42-8.84,1.36-.12-.12-.21-.27-.37-.38-3.29-2.16-8.95-1.3-13.44-.81-1.27.15-2.63.09-4-.06,2.99-2.03,7.57-3.33,11.81-4.5,5.66-1.57,11.79-2.96,14.65-6.94.19-.29.31-.58.43-.87,2.75-.51,5.19-.96,7.17.5,1.27.96,6.22,3.52,6.46,2.84.39-1.08-1.9-3.08-2.69-3.47-2.49-1.15-.64-2.99.89-2.81,1.56.2,5.01,1.36,6.37,1.17,1.36-.2-.56-1.17-1.72-1.74-1.18-.57-1.76-1.36.18-1.94,1.92-.57,4.62-.18,5.81-.18s-1.76-1.94-3.29-2.13c-1.55-.19.76-2.12,1.9-2.12s4.83-.37,6.39-1.55c1.55-1.15-2.13-.39-3.29-.39s1.16-4.03,3.47-5.01c2.3-.96,6.38-2.12,7.7-3.27,1.36-1.17-1.32-.79-2.87-.21-1.56.58-.59-2.69,1.15-3.47,1.72-.76,4.43-.96,5.98.38,1.56,1.36-.39-1.74-1.92-2.89-1.56-1.16.18-2.51,1.92-2.51s4.25-.96,5.21-2.12c.96-1.16-1.16,0-2.91.19-1.73.2-1.34-1.35.38-2.32,1.76-.96,4.08-1.73,5.41-1.92,1.35-.19-.56-1.36-2.51-.97-1.91.39-.94-1.54.59-1.73,1.51-.18,3.49-1.74,4.43-2.89.96-1.16.19-1.16-1.74-.78-1.93.38-.18-2.31,1.74-3.66,1.94-1.36,5.01-3.48,5.78-4.63.77-1.16-1.73.18-3.66.96-1.93.76-1.24-2.03-.18-3.29,1.9-2.3,5-5.02,6.56-5.77,1.52-.78-1.95-.78-4.05.37-2.14,1.16-.4-3.28,1.53-4.44.46-.29.87-.6,1.23-.97,1.57-.25,3.13-.7,4.77-1.5,2.49-1.23,4.26-1.53,5.01-1.3.76.23-.87-1.19-4.08-1.06-3.21.14,1.66-2.82,3.85-3.11,2.16-.3,6.38.16,7.95,1.29,1.56,1.15-.08-1.38-2.16-2.82-2.07-1.43,3.09-1.1,4.35-1.71,1.25-.6,2.12-2.09,3.88-1.28,1.56.7.96-1.22-2.07-1.99,9.64-4.3,18.92-8.83,23.61-9.58,2.31-.37,4.5-1.41,6.41-3,2.26,1.36,4.75,3.22,5.97,5.1,1.91,2.93,1.63.27.96-1.13-.7-1.36,0-4.29,1.96-3.8,1.96.53,3.92,3.45,6.57,4.05,2.69.6-1.03-1.63-1.73-3.02-.69-1.38,2.16-2.6,3.69-2.08,1.58.5,5.27,3.18,7.62,3.52,2.31.33-1.82-1.89-2.87-3.1-1.03-1.2,3.28-.77,5.52-.18,2.26.6,4.68,2.82,5.71,4.03,1.04,1.21.17-1.36-1.79-3.62-2.03-2.23,2.22-2.4,3.93-1.55,1.74.85,5.27,4.05,7.34,4.73,2.09.69-.61-1.64-2.08-3.28-.84-.95-.99-1.76-.79-2.43,1.82.03,3.65.1,5.54.26,4.92.42,14.61-.73,20.23-6.15.97-.93,1.58-2.2,1.96-3.62,1.83.21,3.56-.11,4.79-1.23.66-.6,1.25-1.45,1.85-2.42,1.63-.8,3.53-1.77,5.65-1.63,2.64.18,7.31.9,8.68.43,1.36-.44-.46-.51-2.07-1.05-1.63-.52-6.68-1.06-6.88-2.9-.23-1.83,1.23-3.85,3.25-4.13,2-.28,6.8-.3,9.77.93.82.34,1.49-.4-.44-1.4-1.96-.98-6.27-1.87-8.18-1.82-1.88.05-.75-2.55.7-3.1,1.45-.57,6.35-.82,8.07-.53,1.72.3,1.79-.68.43-1.08-1.42-.43-4.78-1.05-6.61-.83-1.84.23,1.48-3.07,3.06-3.57,1.56-.5,6.22-1.17,7.43-2.14,1.2-.97.3-.86-1.11-.41-1.36.45-5.21.94-6.14.48-.91-.48,1.43-2.01,3.28-2.23,1.86-.22,3.18-.84,3.94-1.48.74-.62.51-1.03-.94-.46-1.42.56-3.16.56-3.33-.53-.16-1.1,1.93-3.33,4.1-2.98,2.76.47,3.99.61,5.93-.03,1.76-.59.86-1.03-.38-.67-1.73.46-3.18.03-4.32-.84-1.16-.87-1.18-1.63.19-2.09,1.39-.44,3.58-.13,4.92-.76,1.34-.63,1.81-1.47.38-.9-1.43.56-3.05.65-3.68-.1-.63-.74.02-2.57,1.91-2.91,1.89-.34,2.96-1.18,4.1-2.33,1.16-1.16.45-1.11-.66-.37-1.07.75-2.07,1.37-2.9.8-.87-.58,1.4-3.25,2.52-3.88.92-.5,2.33-.42,3.13-1.73.8-1.31.07-1.26-.56-.58-.54.57-2,.79-3.5-.32,3.88-6.3,7.5-12.55,7.24-19.18-.09-2.69-1.56-4.86-3.69-6.59,1.25-.44,2.99-1.32,3.48-2.04.63-1.01,3.25-1.47,3.99-.95,1.53,1.06,1.4.02-.37-1.68-1.33-1.3.04-2.18,1.23-2.3,1.14-.1,2.82-2.16,1.16-1.64-1.92.61-1.36-1.43-.33-2.07,1.03-.62,2.51-3.29,1.34-2.55-1.18.75-1.66-.93-.6-1.95,1.02-1.01,2.35-2.27,2.48-3.42.14-.89-1.16.56-2.36.48.19-1,.41-2.02.63-2.96.16-.77.3-1.52.47-2.29.9-1.66,2.2-3.24,3.09-3.68,1.03-.48-.95-.62-2.46.14M93.37,351.5s-.03.02-.04.03c-.26-.96-.46-1.9-.35-2.5.2-1.08.9-.9,1.69-.3.29.75-.35,1.92-1.29,2.78m4.6-.03c-.35-.79-.69-1.6-.94-2.44,1.17-1.23,2.89-2.13,2.89-1.26,0,.7-1.01,2.36-1.96,3.7m43.3-22.29s-.07-.07-.1-.12c.08,0,.14.03.22.03-.03.03-.08.09-.11.1m369.3-91.13c.47.33.63.84.73,1.41-.23-.14-.5-.27-.76-.36-.63-.22-1-.44-1.21-.66.34-.5.71-.76,1.24-.39"/>
  </g>
</svg>