<?xml version="1.0" encoding="UTF-8"?>
<svg id="Layer_2" data-name="Layer 2" xmlns="http://www.w3.org/2000/svg" viewBox="0 0 654.5 643.22">
  <defs>
    <style>
      .cls-1 {
        fill:#808080
      }
    </style>
  </defs>
  <g id="Layer_1-2" data-name="Layer 1">
    <path class="cls-1" d="m22.62,229.48c9.13-8.31,19.65-15.65,29.7-22.85,10.99-7.84,20.03-15.18,33.92-17.08,12.87-1.75,25.93.46,38.67,2.04,16.22,2.06,33.11,5.9,46.2,16.46,10.59,8.6,17.97,20.62,25.89,31.6,14.31,19.62,29.92,39.13,47.93,55.48,6.56,5.99,30.13,21.96,31.45,2.4,1.07-15.7-18.71-24.24-26.59-34.84-5.78-7.86-12.8-16.04-17.2-24.86-3.3-6.92-3.96-15.2-6.5-22.53-3.35-9.4-7.7-18.38-10.96-27.82-6.5-18.26-9.59-40.16-21.21-56.13-3.85-5.47-8.73-9.64-11.47-15.93-7.57-18.45-22.87-16.94-37.27-27.02-8.78-6.12-14.9-15.12-22.63-22.4-7.53-7.16-20.22-2.62-27.18-10.76-5.3-6.28-6.26-15.13-11.99-21.21-8.56-8.98-30.66-12.46-24.49-29.35,5.91-15.9,21.71,13.55,25.04,16.53l25.87,22.69c18.45,14.07,36.81,31.61,58.08,41.26,7.88,3.6,17.31,4.67,24.36,9.94,6.74,4.95,11.25,13.33,15.01,20.57,5.34,10.19,9.23,21.22,16.31,30.33,7.57,9.61,13.04,18.25,15.65,30.32,2.6,12.29,3.52,24.69,6.94,36.85,3.48,12.43,8.14,24.4,12.74,36.42,2.04,5.7,4.2,12.07,9.17,15.93,4.07,3.11,17.07,7.2,18.23.2.79-5-7.59-13.32-9.74-17.76-3.02-6.29-4.38-13.01-4.42-19.89-.33-13.87,3.87-27.39,6.87-40.77,2.36-10.78,1.31-21.09-4.4-30.68-3.17-5.45-9.5-10.72-9.69-17.33.18,5.75-11.14,12.53-12.15,3.05-.5-4.79,4.22-15.43,8.93-17.39,19.89-8.05,35.98,43.1,36.53,56.51.79,20.99-31.25,70.7,5.43,76.67-3.17-9.66-8.4-32.21,4.71-36.88-.53-6.27-.61-12.97.3-17.18,1.56-7.55,6.65-9.39,7.57-.96.55,5.43-1.57,11.09-1.25,16.49,7.68-1.38,16.83-1.38,24.57,0,.33-5.4-1.84-11.06-1.31-16.49,1.07-8.43,6.13-6.59,7.64.96.92,4.21.85,10.91.31,17.16,13.22,4.66,7.92,27.23,4.71,36.9,36.7-5.97,4.66-55.69,5.58-76.67.39-13.4,16.5-64.56,36.31-56.51,4.77,1.96,9.5,12.59,9.04,17.39-1.05,9.48-12.3,2.7-12.23-3.05-.07,6.61-6.48,11.88-9.7,17.33-5.62,9.6-6.72,19.9-4.33,30.68,2.89,13.38,7.18,26.91,6.85,40.77-.13,6.88-1.4,13.6-4.31,19.89-2.19,4.44-10.64,12.76-9.85,17.76,1.16,7,14.16,2.91,18.25-.2,4.97-3.86,7.05-10.23,9.26-15.93,4.47-12.01,9.28-23.98,12.63-36.42,3.44-12.17,4.36-24.57,6.96-36.85,2.54-12.07,8.07-20.71,15.52-30.32,7.22-9.12,10.98-20.15,16.41-30.33,3.85-7.24,8.27-15.63,15.01-20.57,7-5.26,16.46-6.34,24.27-9.94,21.29-9.65,39.63-27.19,58.17-41.26l25.8-22.69c3.39-2.99,19.21-32.43,25.04-16.53,6.24,16.89-15.85,20.36-24.42,29.35-5.71,6.07-6.67,14.93-12.04,21.21-6.89,8.14-19.63,3.6-27.09,10.76-7.75,7.28-13.94,16.28-22.63,22.4-14.51,10.08-29.68,8.57-37.44,27.02-2.65,6.29-7.42,10.46-11.42,15.93-11.44,15.98-14.64,37.87-21.12,56.13-3.22,9.43-7.68,18.42-10.94,27.82-2.65,7.33-3.11,15.62-6.56,22.53-4.29,8.82-11.31,17-17.2,24.86-7.83,10.6-27.66,19.14-26.59,34.84,1.31,19.57,24.95,3.59,31.58-2.4,17.92-16.35,33.53-35.86,47.8-55.48,7.96-10.99,15.36-23,26.04-31.6,12.98-10.56,29.89-14.4,46.13-16.46,12.73-1.58,25.78-3.79,38.58-2.04,13.9,1.9,22.98,9.25,33.97,17.08,10.02,7.2,20.62,14.54,29.81,22.85,6.57,5.83,25.78,21.79,22.06,32.29-3.35,9.61-12.73,1.03-16.81-3.61-5.01-5.51-9.13-12.95-15.95-16.4-7.31-3.74-9.13-9.03-14.79-14.98-4.57-4.79-10.88-9.38-16.24-13.24-9.67-7.1-18.82-6.25-29.87-3.79,6.74-1.49,14.2,33.74-6.76,14.29-4.95-4.64-10.05-8.2-16.85-9.78-17.27-4.1-34.95,4.54-48.49,14.58-14.4,10.71-20.05,27.54-33.16,39.36-17.84,16.15-32.06,33.36-52.5,46.89-11.05,7.25-24.29,16.25-26.92,30.77,24.55,4.1,49.57-.95,73.77-4.86,20.61-3.29,43.94-7.2,63.36,2.6,23.2,11.74,38.43,34.2,56.07,52.39,15.01,15.36,28.47,32.64,42.41,48.99,7.24,8.49,16.5,14.81,24.4,22.54,7.02,6.87,23.72,33.19,1.36,25.68-5.32-1.73-9.98-5.32-14.23-8.91-8.47-7.09-15.21-15.79-22.89-23.72-8.69-9.04-18.29-18.26-25.01-28.88-7.81-12.34-12.04-24.57-23.02-34.74-12.21-11.07-27.05-21.76-43.44-25.06-13.48-2.71-27-.33-40.51.7-11.93.95-23.72.35-35.5-.68-10.79-.93-21.53-2.35-32.21-4.16-7.72-1.36-19.96-6.27-26.9-.48-1.75,1.43-2.95,3.79-3.96,5.77,8.53,6.63,15.93,11.84,26.04,15.64,11.93,4.46,21.36,13.36,31.56,20.49,17.11,11.79,23.48,31.72,31.45,49.89,3.87,9.01,8.23,17.85,14.38,25.54,9.41,11.75,21.69,20.92,28.52,34.59,11.16,22.47,7.77,47.96,15.45,71.24,4.92,14.99,18.71,25.74,28.21,37.86,2.85,3.53,12.21,13.36,4.51,14.78-9.96,1.78-21.62-12.81-27.29-19.31-19.87-23.12-17.66-53.15-29.65-79.56-4.86-10.38-12.06-19.87-19.02-28.9-6.76-8.79-15.8-16.11-20.85-26.12-5.21-10.56-4.95-22.05-11.91-32.01-8.53-12.17-20.64-20.87-32.04-30.1-12.41-10-24.31-19.84-37.29-29.25-5.62-3.99-8.47-7.41-15.91-7.75,4.55.18,9.45,15.3,11.09,19.02,10.33,23.67,16.5,63.06-10.18,78.86-3.92,2.31-8.45,2.51-8.29,7.98.24,9.49,5.78,17.81,8.97,26.41,1.25,3.51,2.87,7.5-.28,10.38-6.39-5.74-8.45-15.78-12.3-23.06-1.45-2.8-3.15-7.98-5.91-9.4-1.55-.81-4.49-.76-7.48-.5v.67c-1.05,0-2.36-.09-3.81-.27-1.55.19-3.02.27-3.98.27v-.67c-2.93-.25-5.96-.31-7.62.5-2.6,1.42-4.29,6.6-5.87,9.4-3.76,7.28-5.84,17.31-12.23,23.06-3.06-2.89-1.6-6.87-.31-10.38,3.31-8.6,8.78-16.93,9.04-26.41.15-5.47-4.42-5.67-8.34-7.98-26.63-15.8-20.59-55.19-10.09-78.86,1.55-3.72,6.43-18.84,11.09-19.02-7.59.34-10.37,3.75-16.06,7.75-12.89,9.41-24.82,19.25-37.2,29.25-11.44,9.23-23.55,17.93-32.08,30.1-6.94,9.96-6.72,21.45-11.95,32.01-4.95,10.01-14.07,17.33-20.79,26.12-6.98,9.03-14.18,18.51-18.93,28.9-12.12,26.41-9.87,56.44-29.74,79.56-5.62,6.5-17.35,21.1-27.27,19.31-7.7-1.42,1.6-11.25,4.55-14.78,9.43-12.12,23.18-22.87,28.21-37.86,7.66-23.28,4.18-48.77,15.38-71.24,6.81-13.67,19.11-22.84,28.54-34.59,6.17-7.69,10.42-16.53,14.29-25.54,7.96-18.16,14.36-38.1,31.47-49.89,10.2-7.13,19.72-16.03,31.49-20.49,10.2-3.8,17.62-9.01,26.15-15.64-.96-1.98-2.25-4.33-3.96-5.77-6.87-5.79-19.22-.88-26.94.48-10.7,1.81-21.29,3.23-32.17,4.16-11.84,1.03-23.64,1.63-35.41.68-13.55-1.03-27.14-3.41-40.55-.7-16.44,3.29-31.34,13.98-43.44,25.06-11.07,10.18-15.3,22.4-23.13,34.74-6.72,10.62-16.24,19.84-24.93,28.88-7.68,7.93-14.44,16.63-22.98,23.72-4.2,3.59-8.82,7.18-14.25,8.91-22.35,7.51-5.67-18.81,1.47-25.68,7.97-7.73,17.16-14.05,24.38-22.54,13.98-16.35,27.44-33.63,42.41-48.99,17.68-18.19,32.89-40.65,56.13-52.39,19.32-9.8,42.67-5.9,63.25-2.6,24.29,3.91,49.22,8.96,73.84,4.86-2.65-14.52-15.93-23.53-26.89-30.77-20.51-13.52-34.69-30.74-52.57-46.89-13.07-11.82-18.71-28.65-33.11-39.36-13.55-10.04-31.19-18.68-48.58-14.58-6.81,1.59-11.8,5.14-16.81,9.78-20.94,19.44-13.52-15.78-6.83-14.29-10.97-2.46-20.11-3.31-29.81,3.79-5.34,3.86-11.67,8.45-16.17,13.24-5.67,5.95-7.55,11.24-14.86,14.98-6.81,3.46-10.99,10.89-15.84,16.4-4.11,4.64-13.57,13.22-16.9,3.61-3.63-10.5,15.58-26.46,22.17-32.29h0Z"/>
  </g>
</svg>