<?xml version="1.0" encoding="UTF-8"?>
<svg id="Layer_2" data-name="Layer 2" xmlns="http://www.w3.org/2000/svg" viewBox="0 0 654.5 520.66">
  <defs>
    <style>
      .cls-1 {
        fill:#808080
      }
    </style>
  </defs>
  <g id="Layer_1-2" data-name="Layer 1">
    <path class="cls-1" d="m308.18,471.54c-9.48,4.65-13.66-1.23-17.55-6.83-4.11-6.33-6.11-13.8-5.69-21.34,0-13.18-6.73-18.97-18.97-22.48-14.52-3.76-29.5-5.42-44.48-4.93-24.57,0-48.75,0-71.8-10.81-10.24-3.8-20.91-6.28-31.77-7.4-12.93-1.43-25.28-6.17-35.85-13.75-16.22-13.75-32.53-10.62-49.7-3.51-4.18,2.15-8.49,4.05-12.9,5.69-6.07,1.87-12.66-.12-16.69-5.03-3.44-4.47-3.7-10.62-.66-15.37,14.32-30.73,35.09-53.87,71.42-56.34,30.54-2.29,61.21-2.07,91.72.66,31.76,4.09,63.92,4.16,95.7.19,10.2-.58,19.69-5.39,26.18-13.28,11.38-14.8,9.48-29.88-8.25-34.81-43.16-11.95-62.12-46-81.76-81.66-18.17-34.04-21.13-74.16-8.16-110.5,1.02-6.04,4.44-11.41,9.48-14.89,3.36-2.65,8.17-2.36,11.19.66,3.41,4.08-1.61,5.5-3.13,8.16-16.7,28.61-18.3,63.6-4.27,93.61,3.41,10.43,10.95,19,20.87,23.71,11.76,4.93,15.93,18.21,23.62,27.6,5.12,6.26,9.48,13.66,14.89,18.97,4.58,5.86,13.04,6.91,18.9,2.33,1.53-1.19,2.78-2.7,3.67-4.42,3.6-4.93,6.35-10.53,9.48-15.74,3.61-5.22,3.61-12.13,0-17.36-4.17-6.35-8.35-.57-12.33.76-4.92,1.8-10.37-.72-12.17-5.64-.1-.27-.18-.53-.26-.81-1.23-3.89-.95-9.48,5.31-6.54,6.26,2.94,9.48,2.37,10.43-3.51,1.71-7.59,6.92-16.03-2.37-22.29-4.46-3.04-9.48-5.03-14.32-7.78-4.84-2.75-7.3-6.73-4.46-11.95,2.85-5.22,6.64-4.17,10.72-2.56,4.08,1.61,6.26,2.75,9.48,3.89,5.53,3.2,12.61,1.3,15.81-4.23.76-1.32,1.26-2.79,1.46-4.3.95-4.68,2.25-9.27,3.89-13.75,2.06-4.47,7.35-6.43,11.83-4.37.14.06.28.13.41.2,4.34,1.4,6.72,6.04,5.33,10.38-.15.48-.35.94-.59,1.38-2.56,7.49-9.48,13.66-6.83,22.95,5.41,3.6,12.99-2.75,18.12,5.12,5.12,7.87,12.42,7.21,17.45-1.52,2.75-4.84,6.17-5.31,9.48-1.23,3.32,4.08,5.88,9.48.57,14.42-3.41,3.32-13.47-.66-10.91,8.35,2.56,9.01,10.81,6.73,17.36,7.4,8.16.95,16.31,1.9,24.47,2.28,10.62.57,13.94-2.66,12.71-12.99-1.32-9.42-3.16-18.76-5.5-27.98-2.56-11.19-7.11-22.1-3.41-34.05.83-4.73-.23-9.6-2.94-13.56-10.33-21.52-24.22-41.14-41.07-58.05-10.56-9.57-23.5-16.12-37.46-18.97-2.94-.76-5.31-1.71-5.6-4.84-.25-3.55,2.06-6.78,5.5-7.68,5.87-2.18,12.43-1.33,17.55,2.28,10.28,5.46,19.84,12.18,28.45,20.01,23.43,21.84,42.35,48.07,55.67,77.21,12.61,30.16,22.38,63.17,7.21,96.84-3.66,9.61-1.52,20.47,5.5,27.98,9.6,3.07,20.07,1.61,28.45-3.98,10.84-9.43,19.85-20.78,26.56-33.48,18.97-34.71,39.46-68.38,60.32-101.96,22.86-36.42,55.96-52.17,96.65-56.05,14.99-1.42,17.17,2.18,11.48,16.22-.67,1.93-1.56,3.77-2.66,5.5-20.84,30.98-36.11,65.35-45.15,101.58-11.67,37.02-27.59,72.57-47.42,105.94-6.42,14.3-11.4,29.2-14.89,44.48-2.04,6.53-.69,13.64,3.6,18.97,3.84,6.36,7.02,13.1,9.48,20.11,1.79,3.26.85,7.34-2.18,9.48-5.31,3.32-6.64-1.99-9.48-4.84-11.95-13.66-20.87-14.8-36.9-5.12-10.53,6.35-12.61,11.95-4.46,21.34,8.9,11.19,16.36,23.46,22.19,36.52,8.16,15.9,10.44,34.17,6.45,51.6-1.33,5.5-1.33,14.99-9.48,12.9-8.16-2.09-3.6-11-2.28-15.93,3.59-11.17,3.19-23.24-1.14-34.14-6.73-15.55-11.38-16.41-22.38-3.79-4.63,5.89-10.13,11.04-16.31,15.27-7.47,6.34-18.28,6.81-26.27,1.14-11.19-7.3-18.97-3.7-23.43,8.73-8.16,20.2-21.15,26.65-43.25,21.34-5.6-1.33-10.81-6.07-16.41.95-5.6,7.02-1.71,11.57.85,16.88,7.49,15.65,15.74,30.45,34.05,35.76,2.56.76,5.41,2.47,4.74,5.69-.66,3.22-4.74,4.74-8.16,3.79-10.73-2.42-20.28-8.48-27.03-17.17-14.72-17.88-26.12-38.24-33.67-60.13-1.43-4.54-3.51-8.85-6.17-12.8-1.78-3.68-6.2-5.22-9.88-3.45-.26.12-.51.26-.75.41-6.29,5.2-14.51,7.44-22.57,6.17-5.03-.66-5.12,5.41-3.6,9.48,3.79,9.67,7.4,19.16,11.1,28.64Z"/>
  </g>
</svg>