<?xml version="1.0" encoding="UTF-8"?>
<svg id="Layer_2" data-name="Layer 2" xmlns="http://www.w3.org/2000/svg" viewBox="0 0 529.23 654.5">
  <defs>
    <style>
      .cls-1 {
        fill:#808080
      }
    </style>
  </defs>
  <g id="Layer_1-2" data-name="Layer 1">
    <path class="cls-1" d="m526.12,428.04c-4.07-42.51-13.06-95.81-23.3-142.54,4.26,3.55,8.14,6.95,10.23,9.39,6.03,7.06,6.14,13.63,7.21,15.33,0,0-1-3.72.32-5.72,1.58-2.34-7.55-14.14-12.94-19.93-1.52-1.63-3.82-3.85-6.47-6.48-7.15-31.81-14.78-60.04-21.69-78.89-18.92-51.8-49.58-110.59-75.03-144.86.13-.31.21-.59.32-.9,2.49-6.69,14.45-26.22,18.69-31.53,6.85-8.52,12.32-7.92,12.29-10.59-.02-2.06-3.19-2.74-6.09-3.33-2.86-.6-7.32,2.36-10.34,7.73-3,5.41-6.26,11.53-9.51,17.89-2.28,4.48-5.92,10.91-8.92,16.07-5.78-7.41-11.26-13.45-16.18-17.65-29.98-25.57-62.38-29.42-80.14-23.87-8.86-4.99-17.93-8.16-26.09-8.16-9.99,0-20.97,2.76-31.69,7.61-17.4-6.52-50.27-4.2-81.59,20.31-5.92,4.63-12.67,11.67-19.9,20.49-2.91-5.07-6.4-11.23-8.61-15.57-3.23-6.36-6.49-12.46-9.51-17.88-2.99-5.37-7.45-8.32-10.34-7.74-2.88.58-6.07,1.28-6.08,3.32-.03,2.66,5.43,2.1,12.28,10.6,4.26,5.3,16.2,24.85,18.7,31.56.02.04.03.08.04.12-26.34,33.59-57.94,88.92-78.31,138.15-8.47,20.44-18.3,52.17-27.55,87.59-1.57,1.55-3,2.93-4,4.02-5.39,5.81-14.51,17.59-12.92,19.96,1.33,1.97.29,5.7.29,5.7,1.08-1.7,1.19-8.28,7.23-15.36,1.62-1.89,4.37-4.4,7.51-7.07-11.2,43.84-21.33,92.44-26.75,131.87C-1.69,482.6-.66,567.82,1.44,578.48c.71-9.88,2.36-116.4,11.38-166.32,4.52-25.08,11.85-70.42,22.76-113.51,1.53-6.02,3.1-12.07,4.7-18.02,2.72-2.24,5.48-4.43,7.84-6.37,4.53-3.74,15.82-15.04,24.2-26.7-1.55,7.14.54,15.51.54,15.51,0,0-.56-10.44,2.89-20.35,3.37-4.78,6.25-9.06,7.93-11.95.88-1.52,1.77-3.04,2.64-4.58-.46,6.7,2.01,11.54,2.01,11.54,0,0-2.18-5.11.82-16.54,2.81-4.96,5.56-9.93,8.18-14.79-1.61,10.74,3.19,19.43,3.19,19.43,0,0-4.08-7.54-.63-24.15,2.46-4.59,4.82-9.02,6.99-13.17-.3,7.15,1.67,16.32,1.67,16.32,0,0-1.48-9.69.35-20.23,7.53-14.46,13.44-24.77,13.44-24.77,0,0,8.37,4.3,15.4,11.87.98,1.06,2.17,2.77,3.74,4.79-7.68-.2-11.12,2.38-11.12,2.38,0,0,5.42-2.14,12.18-1.04,2.5,3.1,5.96,6.67,10.95,9.78-6.08.47-9.75,4.43-9.75,4.43,0,0,5.71-3.11,11.78-3.18,3.11,1.7,6.77,3.18,11.07,4.28-1.47,10.26-2.77,21.13-3.89,32.6-2.57,26.45-2.55,52.37-1.24,79.34-2.09.03-4.29.1-6.74.34-33.6,3.2-62.05,9.93-70.4,18.9-8.34,8.94-10.99,28.01-13.26,34.57-1.11,3.23-.67,8.96-.27,17.01-1.49,6.47-4.6,9.9-6.42,11.41,1.82-1.38,4.9-4.11,6.58-7.3.22,5.66.3,12.23-.14,19.83-2.07,4.96-4.93,7.63-6.66,8.8,1.69-1.05,4.4-3.04,6.39-5.55-.13,1.79-.23,3.5-.45,5.35-.43,3.98-.83,8.92-1.22,14.41-1.68,4.85-4.2,7.58-5.8,8.87,1.49-1.13,3.8-3.12,5.57-5.53-.34,4.88-.63,10.15-.95,15.66-1.91,6.44-5.27,9.69-7.21,11.1,1.86-1.25,5.06-3.68,6.97-6.73-.22,4.22-.44,8.51-.64,12.82-1.96,5.96-5.12,9.06-6.98,10.39,1.79-1.18,4.83-3.47,6.75-6.34-.25,5.01-.5,9.99-.73,14.86-1.96,5.36-4.88,8.28-6.65,9.53,1.7-1.14,4.53-3.3,6.47-5.97-.34,6.59-.68,12.87-1.02,18.59-3.18,7.77-8.86,14.24-8.86,14.24,0,0,5.16-4.99,8.69-11.34-.36,5.85-.74,10.95-1.14,14.97-2.47,9.38-10.15,18.1-10.15,18.1,0,0,6.2-6.05,9.64-13.32-.41,3.92-.66,8.01-.94,12.15-2.48,8.9-10.42,15.53-10.42,15.53,0,0,6.31-4.52,10.1-10.88-.43,5.77-1.17,11.53-2.68,17-3.25,7.01-9.17,11.89-9.17,11.89,0,0,4.19-3,7.81-7.51-4.1,11.41-8.93,18.61-14.96,31.2-6.24,13.03-11.69,18.3-17.6,28.79-4.05,5.68-14.84,18.21-14.21,20.61.62,2.39,1.24,8.84,3.19,8.4,1.97-.39.13-5.74,5.19-14.17,5.09-8.43,8.97-14.17,11.27-16.04,2.3-1.85,9.35-12.72,15.47-20.38,5.67-7.14,6.85-14.37,10.39-20.46,1.74-4.59,13.89-26.97,15.17-47.29,1.27-20.31,9.55-40.17,10.22-52.18.22-4.31.91-11.93,1.77-21.38,2.75,5.02,6.53,8.85,6.53,8.85,0,0-3.61-5.36-6.19-12.62.4-4.66.84-9.61,1.27-14.87,2.58,7.53,8.03,11.28,8.03,11.28,0,0-4.88-3.82-7.55-17.01.98-12.42,1.89-25.7,2.34-38.12,1.54,2.2,3.46,4.05,4.72,5.13-1.32-1.22-3.26-3.63-4.66-7.51.44-13.89.27-26.49-1.08-35.13,3.34-5.39,12.86-12.17,22.94-14.45,2.77,1.49,5.85,1.9,9.34,1.78-4.39,3.55-5.39,6.59-5.39,6.59,0,0,2.49-3.79,7.31-6.76,2.98-.23,6.24-.79,9.89-1.36,1.33-.22,2.74-.51,4.23-.83-4.49,3.59-6.06,6.76-6.06,6.76,0,0,3.32-4.4,8.68-7.31,4.82-1.04,10.49-2.07,17.11-1.9-6.25,2.63-8.89,5.91-8.89,5.91,0,0,5.35-4.53,12.43-5.74,1.75.16,3.57.42,5.41.79,1.4,17.94,3.08,36.59,4.71,56.39,5.35,64.69,30.98,123.22,47.53,139.74,14.51,14.53,23.5,2.78,23.5,2.78,0,0,9.74,11.12,21.4,11.65,20.92.99,37.94-15.57,37.94-15.57,0,0,13.14-.95,23.34-10.7,10.23-9.7,16.07-31.62,26.28-63.22,7.79-24.09,15.29-79.3,19.7-116.25,2.28-.48,4.49-.88,6.61-1.08,7.06,1.2,12.42,5.74,12.42,5.74,0,0-2.63-3.27-8.89-5.93,6.6-.15,12.3.87,17.12,1.91,5.34,2.91,8.67,7.31,8.67,7.31,0,0-1.56-3.18-6.06-6.76,1.49.33,2.91.63,4.24.84,3.63.55,6.88,1.1,9.87,1.38,4.84,2.94,7.33,6.74,7.33,6.74,0,0-1.02-3.04-5.39-6.6,3.48.13,6.56-.26,9.32-1.77,10.07,2.27,19.63,9.05,22.94,14.44-1.34,8.64-1.5,21.25-1.07,35.15-1.38,3.89-3.34,6.28-4.65,7.5,1.28-1.1,3.17-2.92,4.73-5.13.43,12.42,1.35,25.71,2.34,38.12-2.71,13.19-7.57,17.04-7.57,17.04,0,0,5.46-3.79,8.03-11.3.45,5.22.87,10.2,1.28,14.84-2.57,7.27-6.18,12.64-6.18,12.64,0,0,3.78-3.84,6.52-8.84.84,9.43,1.54,17.07,1.78,21.38.66,11.98,8.94,31.84,10.21,52.17,1.27,20.31,13.42,42.7,15.19,47.29,3.52,6.09,4.68,13.33,10.38,20.44,6.1,7.66,13.16,18.54,15.46,20.4,2.3,1.88,6.16,7.62,11.26,16.04,5.08,8.44,3.25,13.76,5.2,14.19,1.96.42,2.56-6.02,3.17-8.41.65-2.42-10.13-14.95-14.21-20.61-5.88-10.5-11.34-15.77-17.6-28.82-6-12.59-10.83-19.77-14.95-31.17,3.64,4.5,7.81,7.5,7.81,7.5,0,0-5.91-4.88-9.17-11.89-1.5-5.47-2.21-11.22-2.68-16.99,3.81,6.33,10.11,10.89,10.11,10.89,0,0-7.95-6.64-10.44-15.53-.26-4.16-.51-8.25-.92-12.14,3.44,7.23,9.63,13.28,9.63,13.28,0,0-7.67-8.74-10.13-18.07-.39-4.03-.76-9.16-1.14-15.01,3.53,6.36,8.66,11.35,8.66,11.35,0,0-5.66-6.46-8.83-14.21-.36-5.74-.69-12.03-1.01-18.62,1.93,2.69,4.73,4.86,6.46,6-1.77-1.31-4.7-4.18-6.65-9.55-.25-4.89-.5-9.88-.74-14.85,1.93,2.85,4.95,5.14,6.78,6.33-1.87-1.33-5.06-4.44-6.98-10.4-.23-4.31-.44-8.58-.68-12.79,1.91,3.03,5.11,5.46,6.99,6.71-1.95-1.4-5.32-4.64-7.22-11.1-.31-5.51-.62-10.78-.96-15.67,1.78,2.43,4.1,4.41,5.57,5.53-1.58-1.29-4.11-4.02-5.78-8.85-.38-5.5-.8-10.45-1.23-14.41-.21-1.87-.32-3.6-.45-5.37,2,2.52,4.71,4.5,6.4,5.56-1.75-1.19-4.59-3.84-6.67-8.8-.46-7.62-.37-14.18-.13-19.85,1.67,3.23,4.76,5.94,6.57,7.33-1.83-1.52-4.94-4.95-6.41-11.42.39-8.06.8-13.78-.28-17.01-2.28-6.59-4.93-25.62-13.26-34.58-8.36-8.96-36.8-15.67-70.41-18.89-2.32-.23-4.42-.31-6.42-.33,1.32-23.96-1.94-46.45-.19-62.05,1.92-17.34,2.45-34.46,1.6-52.62,4.08-1.07,7.56-2.51,10.53-4.14,6.1.07,11.81,3.18,11.81,3.18,0,0-3.7-3.95-9.76-4.42,4.97-3.13,8.44-6.68,10.96-9.8,6.75-1.11,12.17,1.05,12.17,1.05,0,0-3.43-2.59-11.1-2.39,1.54-2,2.72-3.72,3.73-4.78,7.03-7.57,15.38-11.87,15.38-11.87,0,0,5.92,10.32,13.44,24.77,1.85,10.54.35,20.21.35,20.21,0,0,1.97-9.15,1.68-16.32,2.16,4.15,4.52,8.58,6.98,13.18,3.45,16.61-.61,24.17-.61,24.17,0,0,4.79-8.71,3.16-19.43,2.64,4.85,5.39,9.81,8.18,14.77,3.02,11.41.82,16.54.82,16.54,0,0,2.47-4.85,2.03-11.55.86,1.54,1.74,3.06,2.63,4.57,1.71,2.91,4.56,7.19,7.95,11.98,3.43,9.91,2.9,20.34,2.9,20.34,0,0,2.09-8.38.51-15.51,8.39,11.66,19.69,22.96,24.21,26.7,1.87,1.53,3.97,3.2,6.1,4.96,2.07,9.04,4.1,18.39,6.09,27.84,9.08,43.51,13.7,88.03,17.18,113.27,6.92,50.25,4.1,156.78,4.38,166.68,2.56-10.57,7.16-95.69.94-160.94M172.18,161.66c-3.23-.65-8.47-1.97-12.37-4.39-6.01-3.74-14.71-12.3-19.11-14.57-4.41-2.28-14.6-5.01-20.57.74-7.03,1.72-10.41,8.93-14.99,19.69-2.05,4.81-4.86,10.56-8.42,17.03-4.56,4.91-9.01,6.33-11.35,6.73,2.22-.3,6.17-1.04,9.21-2.93-1.39,2.43-2.92,4.96-4.53,7.58-4.24,4.19-8.28,5.53-10.47,5.88,2.02-.26,5.47-.93,8.39-2.44-.07.11-.11.19-.19.27-2.73,4.31-6,10.12-9.4,16.52-3.97,3.63-7.66,4.82-9.72,5.15,1.99-.23,5.37-.91,8.28-2.39-2.6,4.93-5.23,10.09-7.74,15.09-5.04,4.94-9.8,5.21-9.8,5.21,0,0,4.37-.21,8.48-2.55-2.04,4.1-3.96,8.02-5.66,11.54-3.31,3.27-6.98,4.28-9.09,4.56,1.89-.19,5.03-.74,7.98-2.3-.68,1.43-1.37,2.8-1.96,4.05-3.7,7.68-10.4,15.36-16.46,21.61,10.82-39.48,22.32-74.81,28.32-87.96,17.12-37.59,47.33-90.38,72.93-124.09,1.03,3.4,2.18,6.55,5.09,10.39,5.59,5.7,12.15,5.98,19.69,10.35.65.37,1.46.85,2.25,1.32-7.16.48-10.28,3.46-10.28,3.46,0,0,4.77-3.12,13.01-1.84,4.37,2.58,9.8,5.89,14.9,9.16-7.45-.17-13.03,2.23-13.03,2.23,0,0,5.18-2.27,15.85-.37,2.36,1.56,4.51,3.05,6.35,4.42-.98,2.93-2.51,5.98-4.93,9.19-8.74,11.66-15.49,30.04-20.67,53.67M224.97,20.94c-20.28,16.1-27.92,36.39-28.19,49.62-.16,5.35,2.17,11.41,2.42,18.31-2.04-.37-5.34-1.09-9.01-2.45-4.3-2.41-6.47-5.28-7.43-7.03.71,1.41,1.93,3.5,3.56,5.42-1.39-.65-2.76-1.39-4.1-2.24-1.05-.69-2.11-1.41-3.18-2.14-2.66-3.79-3.36-7.11-3.56-9.02.09,1.82.45,4.75,1.44,7.5-6.66-4.78-12.97-10.14-16.21-13.93-4.12-4.82-10.09-7.48-10.09-7.48,0,0-.84-1.42-2.12-3.58,6.91-8.69,13.4-15.75,19.08-20.43,25.82-21.43,52.66-26.37,70.16-21.23-4.39,2.52-8.68,5.43-12.76,8.68m86.9-8.23c17.88-4.03,45.18,1.22,69.55,23.21,4.91,4.42,10.47,10.97,16.44,19.02-1.19,2.01-1.97,3.32-1.97,3.32,0,0-5.97,2.66-10.07,7.45-3.25,3.83-9.56,9.17-16.22,13.96.97-2.76,1.35-5.71,1.43-7.52-.17,1.93-.88,5.25-3.55,9.03-1.07.73-2.12,1.46-3.18,2.14-1.35.86-2.72,1.59-4.1,2.25,1.63-1.93,2.84-4.02,3.58-5.4-.98,1.73-3.15,4.61-7.45,7.02-3.44,1.26-6.6,2-8.63,2.38.03-7.12,2.7-12.95,1-27.24-1.89-16.06-18.07-36.59-36.82-49.62m168.53,239.41c-.61-1.25-1.28-2.62-1.97-4.05,2.95,1.55,6.08,2.11,7.99,2.31-2.12-.3-5.8-1.3-9.09-4.58-1.7-3.51-3.63-7.44-5.67-11.53,4.12,2.34,8.48,2.57,8.48,2.57,0,0-4.74-.29-9.78-5.21-2.51-5-5.13-10.18-7.72-15.1,2.88,1.48,6.25,2.13,8.26,2.39-2.06-.34-5.76-1.54-9.72-5.17-3.41-6.4-6.66-12.21-9.4-16.5-.05-.1-.12-.18-.19-.29,2.93,1.52,6.36,2.19,8.4,2.45-2.2-.36-6.25-1.7-10.49-5.88-1.61-2.63-3.15-5.17-4.53-7.58,3.06,1.88,6.98,2.64,9.21,2.92-2.34-.39-6.79-1.82-11.34-6.73-3.55-6.48-6.37-12.22-8.41-17.03-4.58-10.75-7.99-17.97-14.99-19.7-5.99-5.72-16.17-3.02-20.58-.73-4.41,2.27-13.11,10.81-19.12,14.56-2.74,1.72-6.14,2.85-9.05,3.62-.88-7.2-1.9-14.53-3.18-22.27-4.49-27.28-12.33-36.58-16.67-42.57,1.32-.93,2.72-1.89,4.23-2.89,10.66-1.89,15.85.39,15.85.39,0,0-5.59-2.42-13.02-2.25,5.09-3.29,10.51-6.58,14.88-9.14,8.23-1.3,13.02,1.82,13.02,1.82,0,0-3.11-2.96-10.28-3.45.79-.47,1.6-.95,2.24-1.32,7.55-4.37,14.11-4.64,19.7-10.34,2.7-3.59,3.89-6.57,4.86-9.68,25.37,36.2,56.03,95.53,71.97,134.82,4.97,12.28,13.08,41.47,21.19,76.3-5.67-5.97-11.65-13.07-15.07-20.16"/>
  </g>
</svg>