<?xml version="1.0" encoding="UTF-8"?>
<svg id="Layer_2" data-name="Layer 2" xmlns="http://www.w3.org/2000/svg" viewBox="0 0 341.28 654.5">
  <defs>
    <style>
      .cls-1 {
        fill:#808080
      }
    </style>
  </defs>
  <g id="Layer_1-2" data-name="Layer 1">
    <path class="cls-1" d="m340.36,3.67c-.78-.9-1.95-1.25-3.03-1.64-1.9-.61-3.85-1.22-5.83-1.56-4.03-.73-8.12-.59-12.11.29-20.47,4.23-37.17,21.46-49.17,37.61-3.39,4.5-6.39,9.28-9.15,14.13-9.78,16.94-16.99,35.24-28.02,51.44-5.64,8.33-9.71,17.41-13.55,26.61-2.68,6.42-5.44,13.37-10.76,18.11-5.02,4.51-9.17,7-12.47,13.13-.69,1.44-5.13,11.27-6.84,11.1-12.5-1-24.97-1-37.55,0-1.71.17-6.13-9.66-6.88-11.1-3.3-6.13-7.46-8.62-12.47-13.13-5.29-4.74-8-11.69-10.71-18.11-3.86-9.2-8.01-18.28-13.66-26.61-10.91-16.2-18.23-34.5-27.95-51.44-2.74-4.85-5.76-9.62-9.11-14.13C59.08,22.22,42.33,4.99,21.88.76,17.91-.12,13.8-.26,9.76.47c-1.95.34-3.93.95-5.79,1.56-1.15.39-2.27.75-3.02,1.64C.75,3.98-.06,6.74,0,6.76c6.37,1.78,13.64-.1,20.15.56,7,.7,13.82,2.61,19.91,6.05,15.55,8.76,25.28,24.35,33.75,39.53,3.22,5.81,6.34,11.76,9.42,17.6,10.62,20.23,23.41,39.39,32.72,60.23,4.2,9.47,7.27,18.55,13.67,26.36,5.29,6.32,14.84,12.1,14,21.45-.36,4.66-4.24,7.54-6.64,11.06-2.69,4-4.24,8.88-4.05,13.69.09,3.23,2,9.98,5.98,10.51-1.59-.22-3.52-.49-5.29-.71-2.56-.31-5.42-1.76-7.96-1.63-5.25.14,1.49,5.18,2.14,6.78,1.22,3.34-3.49,8.84-5.83,10.88-1.76,1.68-6.91.09-6.51,3.59.03.66,4.88,5.91,4.34,6.17-2.13.97-3.88-.81-5.9-1.1-1.59-.2-4.3.53-5.79,1,1.17,2.73,4,3.13,6.49,3.76,4.35,1.19,5,4.05,2.14,7.42-1.51,1.95-5.64,1.63-7.37,3.61-1.95,2.05,1.05,5.73,3.56,5.03-1.76.81-3.78,1.58-5.24,2.9,4.86,1.05,10.22,1.71,14.69,3.83,1.8.93,4.51,2.65,2.51,4.69-2.05,2.22-8.18,1.17-10.83,1.22-10.28.14-19.26,2.88-29.53.37,2.54-2.57,6.34-4.13,9.59-5.49,2.74-1.12,8.4-6.91,6.84-10.27-1.15-2.56-3.96-.54-5.9-.93-2.98-.53-1.71-3.91-3.85-5-1-.58-5.03.7-4.24,2.19-1.44-2.76-1.27-6.18-3.74-8.39-.76-.69-7.08-1.69-6.81-1.19-1.08-2.95-.74-6.42-4.68-6.76-.69-.12-4.51,2.08-4.1,2.22-3.73-1.32-7.18-2.64-10.23-5.12-.58-.44-6-4.73-5.13-5.49-1.81,1.49,1.1,3.39.29,5.2-.61,1.54-3.22,2.2-4.52,3.03-7.37,4.83,2.59,2.9,5.37,3,4.59,0,9.59,2.85,9.18,7.67-.54,7.76,9.59,1.85,10.28,3.9,2.29,7.42,7.13,5.12,12.93,7.86.81.39,4.35,3.25,4.98,2.91-2.95,1.66-6.05,3.24-9.18,4.53-2.71,1.05-6.05,2.05-7.49,4.96-5.56,11.35,14.3,11.59,20.55,10.61,2.66-.42,5.37-.91,8.05-1.05,2.74-.13,6.17.95,8.81.53-7.18,1.08-11.15,5.18-13.55,11.79-1.49,3.9-1.68,6.1-5.98,7.58-6.56,2.29-13.64,2.76-20.53,3.39-4.73.34-11.86.08-14.27,5.08-1.91,4.05-.63,8.91,1.08,12.81,3.22,7.51,4.19,15.59,3.78,23.63-.32,6.61-1.49,13.06-3.42,19.4-1.69,5.37-2.47,9.84-7.59,13.11-1.59.96-2.74,2.25-3.29,4.03-.17.46-.49,5.45-.36,5.42-2.14.63-4.81,1.78-5.54,4.22-.71,2.69,2.4,4.76,1.66,7.47-.66,2.22-12.74,9.95-9.79,12.03,1.05.83,2.34-.88,3.44-.75,1.92.13,1.78,2.34,3.24,3,1.86.91,3.66-1.05,5.01-2.08,2.8-2.12,2.95-4.66,3.63-7.79.95-5.01,6.64-4.4,8.96-8.23,1.98-3.2.81-7.3,1.44-10.76.75-3.98,3.69-4.54,5.98-7.32,4.19-5.22,3.61-15.3,3.49-21.55-.19-13.39-4-25.48-6.52-38.44,6.3-2.58,12.49-3.83,19.13-4.58.86-.1,12.33-1.1,12.33-.96-.51,7.2-1.14,14.42-1.71,21.55-1.86,25.11-1.83,50.06-1.71,75.24,0,.52-6.95,2.85-7.78,3.2-6.78,2.78-13.83,5.34-21.01,7.13-5.56,1.41-12.69,2.62-16.43,7.42-2.98,3.69-3.39,8.84-1.86,13.11,2.42,6.52,7.9,10.96,11.79,16.47,4.03,5.58,6.64,12.13,7.28,18.96.71,6.89-2.05,13.48-4,19.92-.81,2.85-1.29,5.83-2.61,8.54-1.93,4-3.49,7.96-5.32,12.1-1.12,2.73-2.56,5.45-2.2,8.57.34,2.78,1.97,5.27,1.59,8.18-.24,2.06-1.32,4.37-3.3,5.45-2.37,1.27-4.78,0-5.68,3.22-.43,1.76.17,4.44,2.13,5.13,2.1.71,3.22,3.41,5.59,3.52,2.32.13,3.64-1.93,3.59-4.09,0-1.98-.81-2.78-.51-5.05.51-3.01.13-6.69,1.69-9.52,1.83-3.34,5.59-1.27,7.86-4.08,2.83-3.56,1.76-8.47,1.86-12.59.07-6.68,4.85-12.06,5.29-18.6.41-5.54.31-10.96.91-16.47.63-5.79-.51-11.42-3.37-16.49-1.71-3.1-19.65-26.09-15.93-27.99,10.52-5.22,22.84-11.61,34.8-11.61h5.32l1.24,43.07c0,1.88.14,3.78.14,5.62.1,8.71.46,17.38.76,26.04.19,6.57.19,13.21.15,19.72-.19,15.49-.81,30.87.03,46.27.24,5.25.48,10.49,1.02,15.77,2.03,18.91,7.17,37.56,15.77,54.59,2.08,4.17,5.32,8.5,8.62,11.84,9.96,10.06,29.24,13.37,40.05,2.79,2.86-2.85,4.07-7.03,7.86-8.83,3.42-1.59,7.83-1.46,10.96.57,2.95,2.02,4,5.74,6.52,8.25,10.76,10.57,30.19,7.27,40.15-2.79,3.27-3.34,6.51-7.68,8.56-11.84,8.62-17.03,13.79-35.68,15.77-54.59.54-5.29.78-10.52,1.08-15.77.73-15.4.15-30.78,0-46.27-.08-6.51-.08-13.15.15-19.72.24-8.66.58-17.33.74-26.04.07-1.85.12-3.74.12-5.62l1.27-43.07s4.08,0,5.27,0c12.01,0,24.36,6.39,34.82,11.61,3.76,1.9-14.13,24.89-15.89,27.99-2.91,5.07-4.07,10.69-3.41,16.49.68,5.51.49,10.93.93,16.47.53,6.54,5.25,11.93,5.35,18.6.03,4.12-1.08,9.03,1.83,12.59,2.25,2.81,6.1.74,7.88,4.08,1.52,2.83,1.14,6.51,1.68,9.52.27,2.27-.54,3.07-.63,5.05,0,2.15,1.35,4.22,3.61,4.09,2.47-.12,3.54-2.81,5.67-3.52,1.9-.7,2.53-3.37,2.1-5.13-.9-3.22-3.34-1.95-5.64-3.22-1.9-1.08-3.07-3.39-3.34-5.45-.39-2.92,1.2-5.4,1.59-8.18.36-3.12-1.05-5.85-2.22-8.57-1.8-4.13-3.34-8.1-5.29-12.1-1.36-2.71-1.78-5.69-2.66-8.54-1.91-6.44-4.59-13.03-4.01-19.92.74-6.83,3.3-13.38,7.35-18.96,3.91-5.51,9.35-9.95,11.76-16.47,1.56-4.27,1.14-9.42-1.78-13.11-3.79-4.79-10.91-6.01-16.47-7.42-7.23-1.8-14.18-4.36-21.01-7.13-.86-.36-7.81-2.68-7.81-3.2.14-25.18.19-50.13-1.74-75.24-.54-7.13-1.12-14.35-1.59-21.55,0-.14,11.4.86,12.3.96,6.57.75,12.87,2,19.06,4.58-2.49,12.96-6.25,25.06-6.47,38.44-.07,6.25-.73,16.33,3.46,21.55,2.37,2.78,5.28,3.34,5.98,7.32.63,3.46-.51,7.55,1.44,10.76,2.34,3.83,8.05,3.22,9.01,8.23.63,3.14.78,5.68,3.52,7.79,1.41,1.03,3.22,3,5.1,2.08,1.39-.66,1.27-2.87,3.19-3,1.12-.14,2.41,1.57,3.52.75,2.88-2.08-9.23-9.81-9.89-12.03-.69-2.71,2.41-4.78,1.71-7.47-.71-2.44-3.34-3.59-5.56-4.22.12.03-.2-4.96-.3-5.42-.59-1.78-1.76-3.07-3.3-4.03-5.08-3.27-5.91-7.74-7.66-13.11-1.9-6.34-3.03-12.79-3.37-19.4-.44-8.05.54-16.13,3.84-23.63,1.66-3.9,2.95-8.76,1-12.81-2.44-5-9.51-4.75-14.18-5.08-6.98-.63-13.99-1.1-20.65-3.39-4.24-1.48-4.51-3.68-5.93-7.58-2.46-6.61-6.3-10.71-13.55-11.79,2.63.42,6.05-.66,8.84-.53,2.71.14,5.35.63,8.03,1.05,6.22.98,26.06.75,20.43-10.61-1.32-2.91-4.63-3.91-7.47-4.96-3.08-1.29-6.08-2.86-9.1-4.53.64.34,4.18-2.52,4.97-2.91,5.78-2.74,10.67-.44,12.96-7.86.63-2.05,10.81,3.86,10.25-3.9-.34-4.83,4.59-7.67,9.22-7.67,2.79-.1,12.79,1.83,5.39-3-1.3-.83-3.93-1.49-4.54-3.03-.73-1.81,2.1-3.71.24-5.2.9.76-4.54,5.05-5.08,5.49-3.07,2.47-6.49,3.79-10.22,5.12.39-.14-3.39-2.34-4.2-2.22-3.8.34-3.53,3.81-4.54,6.76.12-.51-6.03.49-6.88,1.19-2.52,2.2-2.32,5.62-3.73,8.39.78-1.49-3.3-2.76-4.23-2.19-2.14,1.08-.86,4.47-3.88,5-1.95.39-4.66-1.63-5.86.93-1.63,3.35,4.08,9.15,6.83,10.27,3.27,1.35,7,2.92,9.56,5.49-10.22,2.51-19.21-.24-29.51-.37-2.57-.05-8.76,1-10.88-1.22-1.93-2.05.81-3.76,2.61-4.69,4.49-2.12,9.83-2.78,14.64-3.83-1.44-1.32-3.46-2.08-5.17-2.9,2.46.7,5.44-2.98,3.57-5.03-1.83-1.98-5.9-1.66-7.49-3.61-2.85-3.37-2.19-6.23,2.2-7.42,2.52-.63,5.29-1.03,6.41-3.76-1.39-.47-4.12-1.2-5.74-1-2,.29-3.76,2.07-5.9,1.1-.51-.25,4.27-5.51,4.35-6.17.37-3.5-4.68-1.91-6.57-3.59-2.27-2.03-7-7.54-5.74-10.88.58-1.59,7.35-6.64,2.17-6.78-2.56-.13-5.44,1.32-8.03,1.63-1.8.22-3.69.49-5.29.71,3.98-.53,5.95-7.27,6.1-10.51.07-4.81-1.41-9.69-4.12-13.69-2.49-3.53-6.3-6.41-6.69-11.06-.85-9.35,8.83-15.13,13.94-21.45,6.42-7.81,9.56-16.89,13.72-26.36,9.32-20.84,22.18-40,32.73-60.23,3.07-5.85,6.2-11.79,9.44-17.6,8.44-15.18,18.11-30.77,33.68-39.53,6.18-3.44,12.93-5.35,19.96-6.05,6.46-.66,13.79,1.22,20.13-.56.19-.02-.75-2.78-.9-3.08h0Z"/>
  </g>
</svg>