<?xml version="1.0" encoding="UTF-8"?>
<svg id="Layer_2" data-name="Layer 2" xmlns="http://www.w3.org/2000/svg" viewBox="0 0 654.5 543.83">
  <defs>
    <style>
      .cls-1 {
        fill:#808080
      }
    </style>
  </defs>
  <g id="Layer_1-2" data-name="Layer 1">
    <path class="cls-1" d="m302.84,133.56c.13-.06.37-.1.38-.18.03-.25-.12-.44-.37-.47-.1-.02-.31.1-.35.19-.11.28.1.4.34.46h0Zm.86-6.86c-.24.08-.31.21-.19.36.08.11.24.19.38.21.09.01.19-.12.28-.19-.16-.13-.33-.27-.47-.38h0Zm-13.97-.62c.03-.37-.15-.62-.49-.63-.17,0-.47.19-.5.35-.08.35.16.58.49.64.25.04.43-.13.5-.36h0Zm7.78,5.23c-.44.02-.84.25-.78.68.08.59.54.98,1.15,1.03.35.02.62-.24.61-.59-.01-.62-.3-1.04-.98-1.12h0Zm-90.9,140.42c-1.17.17-1.68.77-1.86,1.69-.04.19.08.51.24.61.13.09.49.08.62-.03.62-.5,1.09-1.12,1.01-2.27h0Zm87.03-145.23c-.34.02-.68.15-.61.54.13.8.73,1.19,1.47,1.33.31.06.64-.06.72-.43.13-.62-.74-1.41-1.58-1.45h0Zm13.15,4.76c-1.29-.49-2.59-.99-3.88-1.47-.31-.11-.66-.01-.76.31-.1.34.13.62.45.72,1.32.44,2.66.84,4.2.44h0Zm-6.42-1.46c-.74-1.11-1.93-1.31-2.89-1.91-.31-.19-.81-.09-.98.34-.15.35.17.58.38.79,1,.93,2.24.81,3.49.79h0Zm354.12,170.87c-1.72.7-3.3.25-4.72-.76-1.11-.77-2.29-1.55-3.11-2.59-3.2-4.06-7.19-7.24-11.22-10.35-10.54-8.13-21.09-16.26-31.81-24.15-5.33-3.93-10.64-7.85-15.97-11.78-2.76-2.04-5.32-4.33-7.89-6.6-.96-.85-1.87-1.71-3.25-1.86-.87-.1-1.63-.65-2.31-1.19-1.03-.8-2.19-1.49-3.44-1.6-2.19-.19-3.14-1.6-3.88-3.38-.82-1.99-1.69-3.95-2.51-5.95-.91-2.22-2.75-3.46-4.72-4.53-.54-.29-1.21-.64-1.75-.01-.52.58-.22,1.13.13,1.73.95,1.56,2.1,3.21,1.54,5.09-.52,1.75.27,3.48-.29,5.19-.55,1.66-.83,3.38-.87,5.14-.03.79-.4,1.39-1.28,1.47-.91.09-1.27.5-1.05,1.44.09.37.12.87-.06,1.18-1.46,2.46-.26,4.92-.09,7.39.19,2.88,1.33,5.65,1.09,8.59-.02.52.2.92.48,1.31,1.12,1.55.29,3.62,1.41,5.17-1.53,2.23.3,4.43.06,6.65-.06.45.49.84.22,1.36-1.36.87-2.58.38-3.72-.45-.61-.44-1.1-.76-1.9-.19-.76.53-1.25,1.18-.96,1.96.67,1.83.19,3.65.17,5.45-.01,2.01-.92,3.59-2.42,4.99-2.36,2.21-5.03,3.52-8.22,3.98-2.11.3-3.96-.13-5.69-1.26-.61-.4-1.83-.02-1.84-1.16-.02-1.05,1.26-.79,1.76-1.36.44-.48,1.73-.45,1.28-1.39-.5-1.04-1.2.03-1.74.26-1.07.44-2.05.62-3.21.27-1.29-.37-2.59-.67-3.97-.7-1.39-.03-1.65-.9-.91-2.09.64-1.01,1.22-2.05,1.81-3.1.68-1.21.82-2.51.73-3.9-.07-1.02-.49-1.57-1.35-2.04-1.82-.99-3.5-2.24-5.4-3.04-2.56-1.1-4.79-2.57-6.84-4.39-.39-.34-.98-.44-1.58-.68.66,2.04.44,3.98.67,6.37-1.29-1.13-1.35-2.41-1.96-3.34-.7-1.02-1.79-1.51-2.67-2.66-.92,1.68.4,3.14-.07,4.55-.92.36-1.83.44-2.55-.37-.52.45-.11.85-.21,1.2-.06.22-.13.49-.3.61-.34.24-.63-.03-.77-.29-.82-1.36-2.18-2.37-2.62-3.97-.12-.45-.19-1.02-.84-.92-.47.07-.9.29-1.09.81-.28.74-.58,1.46-.94,2.32-1.59-.74-2.86-1.57-3.34-3.25-.34-1.14-1.31-2-1.44-3.26-.07-.63-.56-.94-1.22-.83-.64.1-.66.55-.57,1.08.06.39.07.87-.47.91-.5.02-.57-.44-.67-.83-.59-2.33-1.93-3.89-4.41-4.39-2.38-.48-4.3-2.03-6.47-3.01-3.78-1.71-7.37-3.77-10.8-6.11-.33-.22-.66-.44-1.16-.4-.64.7-.61,1.64-.46,2.45.4,2.39.57,4.88,1.82,7.06.33.58.65,1.11.16,1.75-.13.17-.25.48-.19.66,1.38,3.99.67,8.26,1.6,12.31.06.22.22.56.12.68-1.25,1.5-.64,3.07-.22,4.67.13.52.02,1.1-.33,1.6-.37.52-.26,1.07.04,1.57,1.58,2.66,1.01,5.59.74,8.35-.16,1.47.22,3-.33,4.43-.13.35.07.85-.08,1.17-.8,1.58-1.95,3.08-.72,4.96-1.05,1.58-.06,4.09-2.31,5.15-.07.03-.17.1-.17.15.34,2.56-2.5,3.97-2.33,6.49.05.68-.06,1.64-1.24,1.05-.39-.19-.82-.87-1.17-.35-.44.67-1.26,1.27-1.04,2.25.06.24.18.45.29.66,1.44,2.41.91,5.14,1.25,7.73.1.81-1,1.4-.76,2.4.45,1.84-.2,3.67-.31,5.49-.09,1.37-.21,3.01-1.18,4.27-.5.65-.76,1.44-.28,2.24.67,1.1-.26,2.16-.07,3.26-1.59.54-.98,1.82-.82,2.79-.61.48-1-.25-1.47.02,1.17,2.42.77,4.67-.71,6.83-.89,1.3-.68,2.85-.66,4.3.02,1.92.07,1.96-1.87,1.45-.31-.09-.63-.18-.89.04-.3.27-.13.57.01.86.22.5.48,1,.68,1.51.08.21.12.64.04.67-2.25,1.02-1.07,3.14-1.5,4.73-.15.53-.3.87-.89.89-.37.01-.63.21-.63.58-.02,1.09-.09,2.09-1.51,2.25-.38.04-.33.52-.34.81-.11,3.08-.84,6.12-.17,9.27.72,3.29,1.56,6.3,5.01,7.82,1.38.59,2.61,1.54,3.89,2.34.55.34,1.27.73,1.25,1.37-.02,1.92,1.48,2.33,2.73,2.87,3.61,1.58,5.06,4.65,5.89,8.19.12.53.28,1.1-.18,1.72-.68-.49-.75-1.38-1.25-1.95-.49-.56-.64-1.46-1.72-1.41-.76.03-.84-.85-1.27-1.31-.74-.82-1.39-1.75-2.52-2.11-1.25-.39-1.65-.21-2.14,1.07-.71,1.81-1.17,2.01-3.02,1.35-1.85-.67-2.85-.39-3.04,1.47-.27,2.75-1.93,4.99-2.37,7.66-.83-3.25-1.42-6.52-.12-9.83.2-.52.36-1.07.55-1.58.31-.95.09-1.73-.76-2.29-.81-.54-1.42-1.21-1.94-2.05-.91-1.49-1.45-1.59-3.16-.91-.36.15-.83.52-1.04.09-.62-1.32-2.29-2.01-2.15-3.8.06-.7.1-1.56-1.23-1.51-1.03.03-1.27-1.11-1.27-1.99-.01-.86.18-1.75.35-2.6.19-1.03.3-1.78-1.19-1.99-1.07-.16-1.39-1.23-1.05-2.3.27-.83.56-1.66.94-2.45.66-1.38.1-2.47-.68-3.54-.35-.48-1.39-.31-1.26-1.22.15-.93-.07-1.96.62-2.75,1.14-1.3.99-2.96.63-4.31-.29-1.05-.12-1.6.48-2.27.84-.94,1.58-1.88.34-3.06-.1-.09-.2-.34-.16-.43,1.31-2.22-.26-5.53,2.78-7.13.66-.35,1-1.19-.45-1.16-.67.01-.66-.65-.4-1.07.34-.53.85-.94,1.23-1.45.65-.87,1.51-1.67.34-2.86-.62-.62-.25-1.56.01-2.29.38-1.16.72-2.32.67-3.5-.06-2.11,1.44-3.62,1.86-5.55.3-1.37.08-3.04,1.55-4.06.25-.16.21-.92.1-1.36-.22-.85-.07-1.59.48-2.23.59-.72.91-1.32-.16-1.9-.34-.19-.26-.61-.01-.83.92-.89-.83-2.34.79-3.17.87-.44,1.59-1.29,1.84-2.38-1.21-.53-2.06.59-3.3.79.46-2.14,1.31-3.85,2.39-5.36.8-1.13.81-1.92.02-2.96-.53-.7-.89-1.51-1.28-2.3-.34-.66-.61-1.29-1.58-.92-.93.35-1.18-.34-1.11-1.02.15-1.53-.65-1.92-2.17-1.57.38-.94.76-1.58.89-2.25.13-.79,1.33-1.64-.09-2.42-.26-.15.06-.55.22-.82.28-.46.66-.9.47-1.51-.72-.47-1.12.56-1.8.29-.08-3.43,1.41-6.9.74-10.23-.67-3.35-.11-6.88-1.58-10.38-.95,1.59-1.79,2.98-2.62,4.37-.2.33-.35.8-.85.65-.54-.17-.67-.68-.66-1.15,0-.47.19-.93.27-1.4.17-.8.26-1.58-.37-2.29-1.11.4-1.29,1.73-2.1,2.31-.92-.01-.72-1.09-1.66-1.32-.52,2.4.82,4.82-.12,7.57-.4-2.02.36-3.96-1.37-5.29-.98.61-.85,1.75-1.19,2.66-.18.45-.22.96-.71,1.18-2.09.92-2.93,1.45-3.48,3.08-.44,1.28-1.14,1.51-2.43,1.34.74-1.78.77-3.65,1.1-5.54-1,.02-1.19.71-1.5,1.21-.46.75-.85,1.54-1.37,2.24-.41.58-1.13,1.47-1.65,1.22-2.18-1.04-3.45.92-5.04,1.51-1.23.47-2.49,1.59-3.49,2.76-1.1,1.28-2.6,2.08-4.06,2.88-.42.24-.9.34-1.57-.03.64-1.27,1.23-2.59,1.19-4.12-.04-1.9-.12-2.03-2.01-1.33-.3.11-.57.28-1.08.07.29-1.04.47-2.16.16-3.4-1.36.04-2.51.72-3.63,1.29-1.03-.62.02-1.59-.58-2.22-1.02-.52-1.6.83-2.55.7-.29-.28-.18-.61-.21-.91-.18-1.46-.04-2.7,1.65-3.2.38-.12.68-.54.47-.95-.22-.43-.68-.3-1.05-.12-.56.28-1.11.57-1.63.84-.19-.22-.35-.33-.37-.46-.3-1.55-.66-1.74-1.84-.84-1.02.8-2.02,1.63-3.06,2.48-.3-.61.07-.91.18-1.25q.58-1.64-1.4-2.13c1.13-1.63,1.12-3.77,2.75-5.19-1.46.19-2.66.66-3.79,1.59-2.04,1.67-3.75,3.96-6.81,4.03-.34-.73.16-1.21.47-1.72.5-.83.92-1.69,1-2.66.04-.56-.09-1.19-.63-1.46-.59-.28-1.09.11-1.45.54-.46.55-.83,1.19-1.3,1.73-.77.92-1.16.87-1.8-.11-.04-.08-.08-.15-.11-.21-1.21-2.09-1.54-2.15-3.02-.29-.78.99-1.38,2.13-2.22,3.44-.55-1.25-1.28-1.92-2.45-.93-.24.2-.54.44-.83.12-1.41-1.51-1.54.16-1.6.8-.11,1.05-.13,2.03-1.12,2.71-1.19-2.97-1.23-3.03-3.93-1.32-.7.45-1.31.47-2,.53-1.29.1-2.52.25-3.04,2.16-.61-1.22-.91-1.67-2.2-1.36-1.05.27-2.73.38-3.91-.49-.49-.37-.91-.2-1.3.04-.34.2-.59.52-.85.81-.74.86-1.76,1.13-2.75.85-.92-.26-.77-1.28-.88-2.05-.06-.39-.08-.8-.16-1.19-.08-.45-.11-1.01-.74-1.03-.48-.02-.68.38-.79.77-.2.81-.63,1.47-1.19,2.04-1.02,1.03-2.13.7-2.49-.73-.16-.62-.29-1.25-.46-1.85-.07-.21-.29-.57-.36-.56-2.62.71-.64-1.54-1.46-2.15-.75.06-.82.73-.78,1.32.04,1.12-.31,2.02-1.25,2.67-1.04.73-.98,1.74-.7,2.78.31,1.13.79,2.13.01,3.39-.5.82.4,1.96.37,3.07-.84-.13-1.57-.26-2.31-.38-.01-.01-.02-.17.02-.22.03-.06.12-.09.18-.15-.13-.58.31-1.29-.4-1.72-.1-.06-.36-.03-.39.03-.38.88.44,1.19.84,1.69h-1.19c-.38.75.44,1.31.31,2.05-.13.73-.15,1.5-1.17,1.44-.8-.06-1.31.52-1.48,1.02-.5,1.58-1.95,1.95-3.15,2.55-.9.44-1.64.92-2.22,1.71-.38.53-.81.83-1.53.95-1.54.28-2.58,2.07-2.12,3.53.81,2.52-.06,4.71-1.23,6.84-.27.5-.46,1.01-.59,1.54-.29,1.04-.65,2-1.97,2.06-.3.01-.62.11-.74.49-.34,1.07-.73,1.95-2.12,1.07-.44-.28-.72.34-.82.65-.47,1.55-1.38,2.69-2.69,3.65-.52.39-.8,1.14-1.35,1.99-.15-.81-.25-1.4-.37-1.99-.11-.54-.03-1.13-.65-1.75-.36,1.78-2.04,2.28-3.02,3.48-.99,1.22-1.05,3.02-2.58,3.89-.96-.66-.63-1.66-.7-2.58-.02-.33-.19-.64-.56-.63-.18,0-.44.19-.55.38-.43.67-.39,1.77-1.72,1.5-.37-.08-.39.45-.29.74.29.83.64,1.64.95,2.46.54,1.46.3,2.43-.86,3.43-1.3,1.12-1.39,2.03-.19,3.23.56.56,1.16.93.02,1.51-.39.21-.3.75.09,1.01,1.67,1.17.46,2.92.84,4.35.17.61-1,.25-1.33.84.19.74,1.28.93,1.28,1.91-.38.53-1.02-.25-1.45.15-.53.49-.06,1.04-.02,1.56.08,1.44-.17,2.84.06,4.31.18,1.21.17,2.48.47,3.71.27,1.16.3,2.38.83,3.39-.21.49-.55.35-.84.3-1.14-.18-1,.44-.67,1.12.56,1.17,1.18,2.25-.09,3.44-.48.46-.12,1.32.26,1.77,1.18,1.4.84,2.66-.25,3.8-1.02,1.05-1.31,2.06-.45,3.38.56.89.53,1.96-.45,2.54-1.48.84-1.32,2.1-.91,3.3.53,1.57.7,2.89-.86,3.99-.48.34-.35.99-.4,1.55-.17,1.57.07,3.38-1.86,4.23-.56.24-.32.81-.37,1.27-.15,1.56-.34,3.02-1.86,4.04-.85.56-.67,1.72-.57,2.66.07.67.7,1.29.13,2.13-1.11-.47-1.09-1.66-1.6-2.49-.36-.58-.73-1.04-1.45-.26-1.21,1.35-2.92,2.12-4.16,3.46-.44.47-1.07.68-1.76.46-1.1-.37-2.01.16-2.49.98-.74,1.28-1.9,2.37-1.96,4.03-.1,2.31-.75,4.63-1.79,6.56-1.19,2.2-1.62,4.77-3.3,6.7-.46.53-.28,1.21-.25,1.84.08,1.58-.25,2.97-1.6,4.03-1.42,1.11-1.48,2.95-2.05,4.49-.66,1.81-.65,3.86-2.61,5.07-.75.46-.87,1.67-1.21,2.52-.9,2.23-2.46,4.06-3.4,6.29-1.02,2.43-2,4.95-3.26,7.32-.82,1.55-2.03,2.95-2.43,4.72-.16.7-.76,1.02-1.33,1.29-1.39.66-1.97,1.84-2.09,3.25-.15,1.87-.57,3.44-2.65,4.06-.84.24-1.07,1.11-1.28,1.9-.3,1.17-.76,2.12-1.99,2.78-1.4.75-1.79,2.55-3.04,3.6-.83.71-1.6,1.63-2.08,2.6-.79,1.64-1.63,2.45-3.67,1.87-1.39-.39-2.19,1.04-2.8,2.16-.76,1.39-1.5,2.82-2.1,4.28-.87,2.11-2.42,3.93-2.55,6.37-.04.93-.76,1.25-1.47.35-.75-.95-1.14-.35-1.59.29-.53.73-.81,1.56-1.04,2.4-.53,1.84-1.01,3.69-1.54,5.53-.34,1.19-.12,2.38-.08,3.57.11,2.23-.03,2.32-2.21,1.41-.19-.09-.41-.12-.76-.22-.28,2.37-.55,4.64-.8,6.92-.26,2.2.99,4.33.33,7.06-.98-1.48-1.74-2.61-2.48-3.77-.29-.47-.49-1.01-.75-1.49-.28-.48-.52-1.1-1.18-1.05-.7.04-.72.74-.85,1.27-.1.38-.18.77-.22,1.17-.74,5.19-2.01,10.32-1.78,15.62.1,2.4-.26,4.78-.73,7.12-.28,1.46.07,2.54,1.22,3.59,1.42,1.27,2.62,2.78,3.85,4.25.71.84,1.15,1.84,1.21,3.05-1.5-1.73-3.83-2.16-5.41-3.73-.8-.79-1.88-1.17-2.92-1.62-1.07-.47-1.85-.4-2.76.5-1.79,1.82-3.1,1.48-4.05-.85-.78-1.96-.8-1.96-2.79-1.55-1.78.38-3.23,1.29-4.35,2.71-.28.36-.47.94-1.08.59-.45-.25-.56-.76-.45-1.26.29-1.18.71-2.29,1.63-3.14.95-.86,1.96-1.62,3.24-1.95,1.03-.27,1.49-.96,1.72-2.04.77-3.6,2.19-6.92,4.07-10.13,2.22-3.77,3.87-7.86,5.28-12.01.27-.8.18-1.73.21-2.6.04-1.19-1.09-1.18-1.87-1.69,1.44-3.13,3.53-5.83,5.33-8.73.38-.61.86-1.16,1.22-1.77.55-.95.96-1.83-.45-2.55-1-.5-.75-1.47-.28-2.31,1.01-1.81,2.05-3.59,3.46-5.16.84-.94,1.64-1.95,2.34-3.02.74-1.12.44-2.21-.72-2.98-1.69-1.13-1.79-1.62-.52-3.15,1.38-1.67,3.19-2.87,4.9-4.17,1.33-1.01,2.6-2.1,3.7-3.36.74-.83,1.09-1.58.27-2.73-.65-.89-1.23-1.95-2.05-2.52-1.08-.75-1.56-1.76-2.15-2.77-.32-.54-.41-1.17-.93-1.65-1.46-1.37-1.42-1.39-.7-3.14.36-.85.99-1.56.8-2.67-.15-.9.77-1.51,1.36-2.14.93-1.01,2-1.94.86-3.48-.36-.47-.06-.9.35-1.23.48-.4.99-.8,1.47-1.22.65-.59,1.24-1.21-.19-1.58-.12-.03-.29-.28-.27-.34.67-1.16-.13-2.75,1.11-3.75.93-.74,1.99-1.31,1.49-2.97-.16-.56.7-1.72,1.5-2.32.45-.34,1.18-.89.94-1.26-1-1.63.7-2.31,1.02-3.44.34-1.23.57-2.49,1.62-3.39.31-.26.49-.64.4-1.07-.2-.91.29-1.53.85-2.12.38-.4.85-.74.67-1.41-.2-.86.44-1.05,1.03-1.33.5-.25,1.63-.12.82-1.31-.25-.38.44-.53.74-.74.66-.47,1.72-.38,2.12-1.31-.75-.86-1.75-.19-2.71-.72.83-.74,1.66-1.37,2.37-2.13.5-.55,1.47-.71,1.27-1.96-.11-.67,1.1-1.02,1.82-1.32,1.81-.77,2.56-2.78,4.3-3.6-.46-1.65,1.14-1.87,2.01-2.48-.45-1.12-1.44-.4-1.92-.94-.07-.27.06-.46.25-.61.64-.48,1.3-.93,1.93-1.4.34-.24.85-.44.92-.73.5-2.28,2.52-2.56,4.22-3.29.15-.63-.79-.77-.63-1.39.16-.67.75-.76,1.28-.91,1.36-.39,2.83-.5,3.34-2.28.24-.84,1.21-.52,1.91-.55.73-.03,1.5,0,1.57-1.02.04-.82,1.01-1.9-.58-2.33-.2-.06-.45-.27-.5-.46-.76-2.38-3.05-3.08-4.78-4.4-.37-.28-.98-.36-.86-.95.18-.96.53-1.87-.87-2.23-.33-.08-.22-.61-.03-.84,1.26-1.66.68-3.32-.11-4.89-.48-.95-.46-1.64.39-2.27.63-.46.86-1.14,1.1-1.82.59-1.74-.11-2.53-1.92-2.19-.24.04-.45.18-.66-.11-.07-.62.46-.96.86-1.26,1.09-.75,1.76-1.55,1.09-2.95-.22-.5-.01-1.08.36-1.57.58-.75,1.05-1.59,1.66-2.33,1.14-1.42.96-2.96.46-4.51-.64-1.94-.78-3.68,1.1-5.11,1.05-.8,1.48-2.27,2.79-2.88.34-.17.7-.5.48-.96-.18-.39-.62-.45-1.01-.49-.46-.07-.93.28-1.56-.09.76-1.42,1.02-3.1,2.56-4.03.34-.21.55-.57.82-.87.25-.31.5-.66.34-1.08-.2-.52-.66-.65-1.17-.68-.57-.03-1.08.09-1.56.46-.38.3-.85.37-1.47.17.38-.73,1.07-.73,1.58-1.02.74-.42,1.93-1.2,1.55-1.82-.9-1.44.59-1.74.91-2.65-1.21-.52-2.02-1.86-3.72-1.46,1.95-1.51,4.18-2.48,5.86-4.23.12-.39-.19-.53-.39-.75-1.19-1.28-1.13-1.74.41-2.38.87-.36,1.6-.67,1.64-1.76.02-.52.46-.54.82-.71,1.74-.83,1.76-1.47.11-2.7-.18-.13-.4-.22-.51-.28.24-.91.88-.93,1.37-1.12.59-.24.7-.44.33-1-.31-.47-.08-1.01.48-1.12,1.41-.28,1.17-1.4,1.02-2.25-.15-.96-1.13-.57-1.79-.67-.12-.02-.21-.17-.34-.26.06-.66.74-.49,1.07-.81.66-.7,1.53-1.11,1.28-2.5-.16-.84.15-2.28,1.58-2.59.22-.04.59-.24.48-.4-1.03-1.65.72-1.67,1.33-2.36.37-.4.3-.8.1-1.3-.89-2.31-.87-2.32.9-3.65.85-.63.98-2.09.18-2.96-.3-.34-.56-.56-.25-.98.71-.94.82-2.23,1.77-3.04.47-.4.91-.72.71-1.57-.22-.96,1.05-1.03,1.46-1.68.29-.46.87-.85.59-1.46-.3-.64-1-.27-1.5-.38-.96-.21-1.74.9-2.92.3.76-1.53,1.11-3.22,2.58-4.44q-1.6-.46-3.72.9c-1.09.7-2.06,1.6-3.43,1.84,1.08-1.85,3.3-2.6,4.28-4.83-3.83-.1-6.81,1.49-9.87,3.35-.31-1.57-.24-2.77,1.08-3.67.33-.22.66-.67.46-1.02-.78-1.3-.12-2.37.58-3.36-.82-.75-1.46-.18-2.11-.01-.82.21-1.11-.1-1.25-.92-.17-1,.26-2.1-.56-2.97-.26-.28-.4-.74-.9-.63-.35.09-.34.46-.46.74-.75,1.71-2.43,1.95-3.53.54-.24-.31-.38-.71-.62-1.02-.81-1.09-1.11-1.1-1.93.17-.3.47-.52.59-.84.18-.8-1.01-1.36-.91-1.85.25-.08.18-.39.38-.57.36-2.04-.3-1.62,1.23-1.73,2.32-.05.39.09.8.1,1.19.01.29.08.84-.36.68-1.75-.64-1.15.93-1.5,1.56-.41.1-.59-.2-.87-.31-1.48-.59-1.54-.56-1.95.95-.13.53-.24,1.09-.36,1.63-.08.33-.2.7-.62.48-1.11-.57-.84.24-.72.73.19.76.44,1.53.72,2.27.42,1.05.73,2.11.42,3.29-2.3-1.19-2.29-3.78-3.49-5.61-.12-.18-.04-.48-.12-.7-.12-.38-.31-.8-.81-.67-.44.11-.58.56-.55.96.02.46.16.93.3,1.38.53,1.58,1.17,2.96.73,4.88-.37,1.6.28,3.59,1.01,5.32.7,1.68,1.38,3.4,1.67,5.22.09.53.36,1.09-.2,1.76-1.1-1.5-1.81-3.13-2.54-4.76-.77-1.74-1.74-3.37-2.84-4.91-.56-.8-1.32-.67-1.5-.12-.65,2.04-2.86,2.49-3.91,4.11-1.21,1.85-2.6,3.6-2.25,6.02.02.16.1.36.03.47-1.71,2.59-.39,5.55-1.05,8.27-.08.3-.04.84-.19.89-1.68.55-1.13,1.99-1.35,3.14-.3,1.82-1.35,3.36-2.05,5.03-.11.29-.53.57-.48.79.46,2.09-1.49,3.38-1.66,5.24-.06.56-.26,1.07-.76,1.42-.5.35-.68.91-.71,1.46-.11,2.02-.73,3.98-1.48,5.73-.85,1.99-1.45,4.15-2.56,5.95-.8,1.29-1.3,2.46-1.4,3.9-.05.71-.37,1.3-.66,1.95-.79,1.84-1.81,3.58-2.23,5.6-.25,1.19.22,3.04-1.99,3.28-.56.07-.65,1.02-.73,1.66-.11,1.13-.72,1.62-1.86,1.74-4.97.54-7.19,2.55-8.3,7.38-.4,1.71-.82,3.41-1.13,5.13-.22,1.25-.75,2.05-2.09,2.23-2.27.31-3.42,1.86-4.21,3.82-.55,1.41-.79,2.92-1.04,4.41-.25,1.41-.74,2.56-2.25,3.07-1.16.38-1.72,1.4-2.1,2.48-.58,1.66-1.01,3.34-1.1,5.13-.07,1.57-.35,1.76-1.91,1.78-1.19.03-2.38.19-3.56.2-3.12.04-4.25,2.13-5.08,4.55-.96,2.77-.85,5.45.81,8.02.81,1.26,1.39,2.68,2.11,4.02.54,1.01.68,2.11.81,3.23.05.31-.03.65-.38.78-.34.13-.64-.04-.85-.27-.84-.87-1.48-1.87-2.06-2.92-.7-1.27-1.53-2.45-2.64-3.38-1.24-1.04-1.65-1.11-2.85.01-1.17,1.1-2.29,1.19-3.7.63-1.73-.68-2.14-.56-3.24.89-.77,1.01-1.54,2.04-1.9,3.3-.43,1.48-1.53,2.33-2.75,3.25-.79-.8-.53-1.63-.48-2.36.22-3.67,2.03-6.67,4.21-9.47.64-.83,1.11-1.71,1.56-2.65,1.47-3.13,3.74-5.7,6.18-8.11.73-.73,1.5-1.45,2.36-2.02,3.84-2.57,6.41-6.25,8.49-10.18,1.53-2.87,2.89-5.86,4.23-8.84,1.92-4.28,4.04-8.47,6.28-12.6,1-1.83.96-3.63.73-5.55-.08-.59-.46-.96-.89-1.36-.7-.65-1.3-1.4-1.95-2.1-.67-.71-.85-1.45-.52-2.4,1.63-4.48,2.02-9.15,1.87-13.85-.16-5.46.58-10.8,1.77-16.11.53-2.33.89-4.69,1.21-7.06.57-4.26,1.9-8.33,3.25-12.42.59-1.81,1.33-2.89,2.99-3.51.22-.08.48-.22.57-.42,1.41-2.79,4.23-3.49,6.76-4.61,2.11-.94,2.39-2.05.62-3.44-2.25-1.76-4.07-3.77-4.95-6.54-.27-.83-.78-1.3-1.75-1.31-1.19-.01-2.13-.5-2.57-1.74-.19-.53-.5-1.05-1.07-1.25-1.59-.49-3.17-.96-4.3-2.39-.36-.47-1.14-.37-1.54-.01-1.33,1.2-3.05,1.33-4.64,1.74-2.77.71-5.52,1.54-8.35,2.11-3.15.64-6.02,2.13-8.83,3.62-4.14,2.21-8.33,4.36-12.08,7.27-.79.61-1.64,1.27-2.77,1.27-.77,0-1.41.45-1.9.94-1.14,1.18-2.7,1.63-3.89,2.39-.48.02-.54-.2-.64-.43-.71-1.51-1.39-1.72-2.36-.54-.76.93-1.6,1.74-2.56,2.3-.54-.06-.59-.37-.55-.7.17-1.2-.28-1.49-1.32-.93-.71.37-1.4.75-2.09,1.16-.34.19-.71.61-1.07.4-1.54-.8-2.56.24-3.68.94-.74.48-1.51.87-2.46.77-1.37-.12-2.69-.01-3.84.92-.38.29-.92.46-1.36.12-1.39-1.09-2.61-.25-3.77.35-4.2,2.13-8.38,4.3-12.13,7.16-.95.73-1.87,1.18-3.05.58-.71-.35-1.42-.17-2.03.29-1.44,1.1-3.11,1.54-4.83,1.9-6.66,1.41-13.16,3.51-19.75,5.22-2.41.63-4.6,1.81-6.81,2.9-2.36,1.17-4.79,2.15-7.25,3.11-8.13,3.16-16.49,5.27-25.13,6.64-12.05,1.91-24.12,2.31-36.24,1.47-3.3-.22-6.44-1.08-9.21-3.02-1.72-1.21-3.32-2.64-4.2-4.51-1.31-2.83-1.47-5.83-.06-8.74.45-.93.95-1.86,1.6-2.66,1.16-1.42,1.29-3.04,1.12-4.72-.06-.65-.25-1.29.18-1.84,1.05-1.33.82-3.04,1.35-4.53.22-.62.1-1.31-.19-1.87-1.26-2.57-.66-5.14-.02-7.68.2-.78.45-1.36,0-2.2-.49-.98-.03-1.83,1.05-2.28.66-.27,1.3-.61,1.88-1.02.87-.63.85-1.32-.07-1.84-.47-.27-1.03-.35-1.56-.52-1.29-.43-1.71-1.57-.59-2.23,1.93-1.17,2.83-2.4,1.71-4.57.99-1.54.13-3.07-.03-4.61-.13-1.39-.26-2.76.22-4.15.52-1.5.71-3.08.19-4.67-.13-.4-.01-.76.2-1.12,1.08-1.83,2.13-3.66,3.17-5.5.17-.28.35-.56.68-.63,1.63-.28,1.86-1.66,1.96-2.87.09-1.13.65-1.82,1.23-2.69.82-1.23,1.69-2.41,2.61-3.57.3-.37.61-.75.95-1.08,1.17-1.05,1.78-2,2.21-3.61.16-.63.54-1,1.14-1.07,1.13-.12,1.6-.8,1.87-1.83.44-1.59,1.91-2.27,3.13-3.11.47-.32,1-.55,1.1-1.16.3-1.88,1.69-2.74,3.2-3.58,1.35-.75,3.01-1.23,3.15-3.24.03-.55.7-.8,1.25-1,2.4-.92,4.02-2.8,5.16-4.94,1.09-2.05,2.65-3.74,3.81-5.72.28-.48.74-.9.58-1.49-.66-2.71,1.57-3.94,2.88-5.58,1.22-1.5,2.65-2.78,3.75-4.45,1.25-1.9,2.69-3.71,3.98-5.61.15-.24.49-.42.77-.49,2.12-.66,3.11-2.47,4-4.2.99-1.9,2.43-3.07,4.33-3.83,1.85-.73,3.66-1.47,5.14-2.92,1.16-1.13,2.7-1.66,4.3-1.95.95-.17,1.92-.36,2.69-.92,1.29-.94,2.64-1.42,4.23-1.18.56.08,1.11-.13,1.56-.5,1.62-1.33,3.47-1.75,5.54-1.59,1.26.09,2.56,0,3.78-.46.44-.17,1-.27,1.28-.59,1.21-1.37,2.15-2.84,3.96-3.79,1.54-.84,2.75-2.71,3.56-4.39.78-1.62,1.94-2.51,3.34-3.42,1.99-1.3,3.57-3.14,5.68-4.31.47-.27,1.29-.65.94-1.44-.3-.7-1.1-.5-1.72-.56-.31-.03-.64-.05-.94-.02-6.15.63-12.27-.15-18.42-.03-9.65.18-19.29.62-28.93.91-5.58.17-11.15-.17-16.72-.48-2.48-.13-4.91-.54-7.37-.84-.47-.07-.94-.17-1.4-.29-1.67-.44-2.65-1.2-2.52-2.13.18-1.46,1.53-1.51,2.54-1.74,1.87-.39,3.78-.65,5.68-.85,3.72-.41,6.48-2.49,8.96-5.06.83-.86,1.63-1.76,2.43-2.65,1.39-1.51,2.97-2.56,5.16-2.61,1.54-.03,2.92-.76,4.15-1.69,2.28-1.75,4.6-3.44,6.84-5.23,4.09-3.23,8.39-6.09,13.3-7.94,3.51-1.32,6.67-3.38,10.08-4.91,1.59-.71,3.14-1.07,4.87-.9,3.33.31,6.69.5,9.99.89,2.76.33,5.22-.21,7.48-1.81,2.6-1.84,5.54-2.78,8.68-3.12,3.49-.36,6.95-.93,10.47-1.07,1.29-.06,2.68.09,2.45-1.95-.07-.59.64-.86,1.13-1.12,5.18-2.73,10.62-4.57,16.41-5.66,5.82-1.11,11.61-.27,17.41-.46,2.78-.09,5.58-.12,8.37-.28,4.46-.25,8.91.24,13.39.03,5.1-.24,10.17-.76,15.24-1.35,3.07-.35,5.98.03,8.95.92,3.89,1.17,7.91,1.88,11.98,2.01,4.23.13,8.46.21,12.69.2,1.74,0,3.28.58,4.89,1,3.08.81,6.2,1.51,9.01,3.15.42.25.89.5,1.36.35,2.12-.72,3.86.38,5.7,1.12,3.61,1.47,7.28,2.82,11.02,3.95,1.17.35,2.22.86,3.16,1.6,1.34,1.05,2.92,1.65,4.39,2.45.5.27,1.04.45,1.6.22,1.1-.43,2.27-.34,3.3-.03,2.04.63,4.16.49,6.21,1.01,1.71.44,3.53.39,5.41.57-.33-.99-.96-1.5-1.74-1.68-1.96-.48-3.44-2-5.4-2.48-.22-.06-.43-.21-.63-.35-.34-.25-.59-.58-.37-1.01.15-.29.49-.44.82-.36.62.15,1.29.24,1.81.56,1.73,1.05,3.32.83,4.92-.24-.12-.98-.93-1.33-1.6-1.64-1.88-.86-3.7-1.83-5.65-2.56-7.4-2.77-14.71-5.75-21-10.71-1.88-1.47-3.74-2.99-5.22-4.89-1.56-2.01-3.44-3.28-6.02-3.94-10.04-2.57-19.88-5.82-29.71-9.07-2.88-.95-5.96-1.14-8.83-2.14-3.58-1.23-7.28-1.74-11.03-2.01-3.93-.3-7.66-1.42-11.35-2.7-2.97-1.02-6.1-1.14-9.14-1.85-2.48-.58-4.48-1.81-6.47-3.38-3.56-2.8-7.25-5.5-11.41-7.39-1.01-.46-2.04-.93-2.96-1.54-3.48-2.31-3.65-6.95-.37-9.53.82-.65,1.73-1.17,2.54-1.81.64-.5.64-1.17-.11-1.55-3.07-1.59-5.52-4.04-8.29-6.03-1.48-1.08-3.17-1.92-5.02-2.13-3.12-.37-4.73-2.41-5.91-4.98-.46-1.01-.73-2.11-1.09-3.16-.76-2.23-2.28-3.61-4.61-4.04-6.89-1.25-12.46-4.76-16.98-9.97-2.37-2.74-3.36-5.92-2.32-9.56,1.71-5.98,6-9.1,11.77-10.31C144.25.46,152.34-.02,160.51,0c14.05.04,27.77,2.4,41.42,5.4,3.19.7,6.45,1.09,9.66,1.77,5.79,1.23,11.24,3.36,16.56,6.05,7.98,4.04,15.48,8.88,23.22,13.31,5.82,3.32,11.78,6.46,17.25,10.28,3.99,2.79,8.35,4.91,12.34,7.65,1.12.76,2.21,1.56,3.48,2.11,5.01,2.16,9.16,5.73,13.73,8.65,15.05,9.59,30.1,19.21,45.15,28.82,3.21,2.05,6.33,4.41,9.88,5.7,2,.73,3.7,2.24,5.93,2.38.43.02.8.49,1.23.7.64.28,1.12,1.16,2.05.24.39-.4.31.79.99.83.59-.57.59-2.12,1.97-1.84,1.62.34,1.47,1.83,1.63,2.99.62.26.84-.11,1.04-.45.47-.76.78-1.59,2.01-.89.32.2,1.02-.26,1.56-.35,1.16-.18,1.99.48,2.76,1.18.56.5,1.29.74,1.69.19,1.32-1.82,2.68-.48,3.62.16.95.66,1.48,1.82,2.92.96.33-.19.82.15,1.02.46,1.16,1.68,2.4.91,3.67.2.34-.2.66-.44,1.03-.58,1.03-.4,1.39-.19,1.6.94.06.31-.01.65.08.94.2.71.63.9,1.2.34.18-.16.27-.39.43-.57,1.05-1.12,1.51-1.17,2.43.04.72.94,1.27,1.68,2.4.5.34-.35.71-.04.95.34.37.58.48,1.45,1.29,1.62.74.16,1.37-.29,2-.66.12-.08.38-.18.43-.12,1.66,1.75,4.45-.3,6.07,1.84.44.57,1.59.52,2.25.25,1.28-.53,1.93.17,2.64.96.26.3.57.56.8.89.58.84,1.28.95,1.99.24,1.05-1.1,1.94-.66,2.85.19,1.4,1.29,2.8,2.2,4.96,2.04.96-.08,2.71-.09,3.22,1.63.19.65.8.94,1.47,1.08,2.49.52,5.08.64,7.31,2.05.74.47,1.62-.08,2.32.3,1.3.7,2.94.87,3.81,2.3.15.25.48.47.75.52,3.43.57,6.12,2.94,9.45,3.74,1.37.33,2.43,1.54,4,1.26.22-.03.63.25.78.48,1.03,1.58,2.66,2.05,4.34,2.48.38.09.88.17,1.01.57.56,1.74,1.93,2.45,3.52,3.04,1,.38,1.66,1.04,2.02,2.32.33,1.19,1.81,2.04,3.13,2.12,1.78.12,2.58.94,2.76,2.6.1.9.57,1.4,1.4,1.74,1.05.43,1.9,1.19,2.38,2.22.46,1,1.18,1.44,2.27,1.38,1.05-.03,1.57.56,1.72,1.59.11.92.11,1.85,1.22,2.39.83.43.57,1.41.48,2.19-.36,2.99.5,5.78,1.5,8.52.12.36.4.68.53,1.05.15.49-.14,1.22.63,1.37.83.16,1.6-.09,2.12-.81.42-.58.74-1.22,1.16-1.81.53-.73,1.14-.82,1.77-.11.11.12.2.26.31.36,1.28,1.2,1.27,1.19,2.58-.15.44-.44.74-1.07,1.72-1.12-.31,1.21-.73,2.23-1.46,3.19-.96,1.23-.72,1.99.74,2.64q2.15.98,2.82,3.03c1.09-.38,2.19-.86,3.39-.47.06.13.17.27.17.4.02.76-.61,1.66.24,2.23.86.59,1.42-.26,2.05-.72.39-.28.84-.44,1.36-.37.38.58-.16.87-.44,1.16-.84.84-.2,1.56.28,2.09.52.59.99-.12,1.39-.42,1.9-1.37,3.15-.91,3.61,1.34.55,2.65.55,2.69,3.19,2.41,1.12-.12,1.57.1,1.12,1.26-.36.91.21,1.35.91,1.65,1.34.57,2.1,1.49,2.08,3.02-.01.38.17.77.29,1.14.39,1.28,1.03,1.46,1.97.44.53-.56.81-1.27,1.55-.26.35.46.91.39,1.3.09.86-.67,1.58-.3,2.41.11,1.72.89,1.88.8,3.06-.85.22-.31.29-.75.77-.84.58.12.57.71.79,1.1.52.96,1.03,1.41,1.94.4.53-.61.91-.54,1.12.28.06.19.41.5.45.48,1.96-1.38,3.4,1.69,5.29.45.15.36.33.61.28.79-.48,1.63.38,2.6,1.5,3.62,1.38,1.27,2.71,2.51,4.27,3.59,1.01.7,1.3,2.41,1.9,3.69.1.2.05.48.15.7,1.28,2.57,1.84,2.66,3.89.61.5-.5.95-1.07,1.44-1.59,1.68-1.82,3.67-3.05,6.24-3.14,1.44-.04,2.84-.44,4.3-.24.83.1,1.56-.25,2.28-.58,3.44-1.6,7.18-2.28,10.85-2.77,11.3-1.54,22.69-2.2,34.07-3.05,2.96-.22,5.89-.08,8.61,1.38,1.75.93,2.56,1.93,2.25,2.97-.28,1-1.29,1.47-3.28,1.3-5.69-.48-11.3.57-16.95.67-4.7.09-9.38.67-14.07,1.07-3.76.31-7.39,1.26-11.02,2.2-2.4.63-4.83,1.01-7.32.98-2.29-.02-4.43.44-6.31,1.85-.55.43-1.25.8-1.92.92-3.17.56-4.65,3.21-6.55,5.27-.74.77-1.14,2.06-.15,3.05,1.58,1.58,1.38,3.67,1.82,5.6.58.38,1.25-.1,1.86.19.21.13.3.36.24.59-.18.54-.35,1.05-.17,1.63.09.3.27.77.15.92-1.71,1.9-.86,4.53-2,6.65,1,.82,2.2,1.21,3.39,1.66.52.2,1.05.34,1.47.75,2.38,2.37,5.2,4.18,7.89,6.19,2.25,1.71,3.78,4.07,5.53,6.23,1.71,2.11,3.81,3.87,5.26,6.19.19.3.59.55.94.66,1.14.37,1.97.99,2.34,2.19.17.56.67.84,1.2,1.09,3.66,1.78,7.21,3.72,10.5,6.15.89.65,1.92,1.13,2.92,1.64,2.23,1.13,3.84,3.08,5.84,4.53,6.57,4.78,13.17,9.5,19.57,14.52,3.19,2.51,6.4,5,9.61,7.47,4.04,3.11,7.99,6.34,12.07,9.38,1.31.98,2.12,2.42,3.36,3.38,4.3,3.29,6.67,8.01,9.48,12.41v1.44h0Z"/>
  </g>
</svg>