<?xml version="1.0" encoding="UTF-8"?>
<svg id="Layer_2" data-name="Layer 2" xmlns="http://www.w3.org/2000/svg" viewBox="0 0 435.62 654.5">
  <defs>
    <style>
      .cls-1 {
        fill:#808080
      }
    </style>
  </defs>
  <g id="Layer_1-2" data-name="Layer 1">
    <path class="cls-1" d="m284.1,414.83c-2.06,11.46-3.21,20.75-5.96,30.15-1.83,6.53,2.29,7.79,6.08,9.97,10.77,6.42,20.63,14.21,31.18,20.86,14.33,9.17,14.56,21.21,11.46,35.3-6.76,35.42-12.84,70.95-20.4,106.26-2.06,9.51,0,13.18,8.37,16.85,8.37,3.67,17.88,8.6,14.33,14.21-3.55,5.62-11.46-3.44-18.23-6.19-10.11-4.33-15.13-15.76-11.46-26.13,8.14-37.24,14-74.95,17.54-112.9,0-7.57-1.15-11.46-7.45-13.87l-36.68-15.13c-8.71,24.41-8.94,49.98-13.87,74.74-3.08,17.27-8.48,34.04-16.05,49.86-4.13,8.02-9.4,16.96-19.83,16.16-10.3-1.54-18.68-9.07-21.32-19.14-7.49-22.3-13.61-45.04-18.34-68.09-3.9-17.08-8.02-33.7-12.15-51.47l-5.5,2.18q-43.1,20.75-32.32,67.86c5.16,22.92,11.46,44.7,16.05,67.17,5.77,15.89-2.44,33.44-18.33,39.21-3.09,1.12-6.35,1.74-9.64,1.83,0-8.48,7.22-11.46,13.07-14.79,9.17-4.58,11.46-9.97,8.37-20.4-10.82-37.53-19.66-75.6-26.48-114.05-1.84-7.48.9-15.34,6.99-20.06,8.67-8.35,18.15-15.8,28.31-22.24,9.36-3.16,14.37-13.31,11.21-22.67-.38-1.13-.87-2.21-1.47-3.24-2.68-9.04-4.82-18.22-6.42-27.51-18.68,26.59-35.99,52.15-54.22,77.03-14.1,19.49-28.89,38.51-44.13,57.31-10.2,12.49-21.78,26.59-40.23,20.06C-1.89,557.42.06,538.96.06,523.83.06,413.68,41.09,320.95,118.7,243.69c10.6-11.31,22.1-21.74,34.39-31.18,0-1.26,0-2.75-1.03-3.09-17.54-10.55-23.84-24.3-13.3-43.67,2.83-6.43,5.16-13.05,6.99-19.83,5.5-16.16,14.9-32.32-.92-48.72,10.75,6.12,15.58,19.05,11.46,30.72-5.39,16.74-10.09,33.58-15.47,50.21-5.39,16.62,11.46,13.53,16.05,21.09,1.76,4,6.42,5.82,10.42,4.06.95-.42,1.81-1.02,2.53-1.77,5.39-6.3,16.28-9.51,13.18-21.43-3.55-13.64-4.58-26.82,9.4-36.22,4.47-2.98,2.18-6.53.8-10.55-11.35-31.12-16.15-64.25-14.1-97.32,1.15-13.3-1.49-25.68,10.77-35.99,4.28,7.37,4.28,16.47,0,23.84-11.46,25.45-5.16,50.78-1.72,76.23,1.12,5.36,2.57,10.64,4.36,15.82,2.12,15.11,16.09,25.64,31.2,23.52,1.91-.27,3.79-.74,5.6-1.39,3.55-.92,4.47-3.9,5.39-6.65,10.86-30.83,13.89-63.88,8.83-96.17-1.38-8.94-8.71-17.31-10.2-27.17,0-2.98-1.38-6.3,2.52-7.45,3.9-1.15,4.81,1.26,6.08,3.44,5.62,7.11,7.81,16.34,5.96,25.22-2.98,9.97,2.52,20.52,2.29,31.18-.12,24.48-3.98,48.79-11.46,72.1-1.6,4.58-2.52,7.68,2.75,11.46,10.6,6.47,15.12,19.55,10.77,31.18-5.16,14.1,6.42,18.23,12.38,24.19,5.96,5.96,11.46-3.32,17.31-6.3,9.1-3.12,13.95-13.03,10.83-22.13-.64-1.86-1.59-3.6-2.81-5.15-6.19-11.46-8.37-25.79-14.21-37.94-6.99-14.33,0-24.19,8.37-34.39-16.16,27.4,4.93,48.14,12.61,70.84,7.68,22.7,9.17,22.92-10.2,40.23l-6.3,5.73c37.89,29.29,70.33,65.03,95.83,105.57,43.69,66.33,64.31,145.21,58.69,224.43-.92,10.55-3.78,20.4-14.79,24.07-10.32,3.35-21.65.3-28.89-7.79-18.33-19.31-35.15-40.01-50.32-61.9-19.72-26.13-37.25-52.73-56.62-79.78Z"/>
  </g>
</svg>