<?xml version="1.0" encoding="UTF-8"?>
<svg id="Layer_2" data-name="Layer 2" xmlns="http://www.w3.org/2000/svg" viewBox="0 0 646.96 654.5">
  <defs>
    <style>
      .cls-1 {
        fill:#808080
      }
    </style>
  </defs>
  <g id="Layer_1-2" data-name="Layer 1">
    <path class="cls-1" d="m2.91,333.18c2.85-1.09,6.77-.48,9.69-.36,7.21.16,14.23,2.94,20.54,6.25,5.84,3.02,11.57,6.21,17.41,9.36,11.5,6.13,22.97,12.14,35.09,16.88,11.18,4.36,22.54,8.36,34.62,9.96,21.24,2.81,43.46,15.11,64.64,5.76,12.72-5.64,26.89-8.31,39.82-13.67,11.62-4.79,23.75-10.04,35.71-13.38,2.58-.73,7.86,0,10.03-1.21,2.56-1.45,1.05-8.09,0-9.97-1.41-2.71-3.58-4.06-6.48-4.85-5.92-1.6-12.22-.14-18.19-1.36-.1-.01-10.14-2.32-10.14-2.32-19.68-9.67-38.87-20.2-58.69-29.65-11.02-5.27-21.71-9.83-29.94-19.32-5.67-6.51-8.84-14.68-14.27-21.31-4-5.02-9.14-9.02-13.52-13.67-4.88-4.97-7.85-11.37-12.38-16.64-8.72-10.11-17.78-19.9-25.67-30.71-8.21-11.2-15.52-23.04-23.33-34.48-6.97-10.16-12.53-21.19-17.64-32.35-4.71-10.29-8.29-21.29-15.25-30.34-4.09-5.49-17.22-11.75-17.13-19.18.07-5.65,7.48-.69,9.53,1.19,2.87,2.58,5.5,5.51,7.88,8.61,5.03,6.52,9.12,13.63,12.42,21.11,6.97,15.11,14.62,29.95,23.82,43.84,3.41,4.98,5.93,10.51,9.7,15.24,7.6,9.52,15.83,18.09,22.19,28.59,3,4.97,6.6,9.48,11.36,12.94,9.6,7.03,16.95,17.37,25.28,25.85,8.99,9.19,18.09,18.48,24.6,29.74,3.75,6.83,9.38,11.41,16.96,13.62,4.68,1.37,9.65,3,13.84,5.29,3.65,2,7.75,3.15,11.42,4.98,3.68,1.89,6.38,4.67,9.7,6.98,10.37,7.18,22.5,7.38,33.98,11.4,6.16,2.12,11.35,6.6,17.97,7.35,1.75.23,8.72.73,9.38-1.7.64-3.05-9.72-8.69-11.59-10.18-10.7-8.68-18.56-20.77-27.77-30.99-3.65-4.02-8.28-7.21-11.42-11.68-2.97-4.15-4.82-8.83-8.11-12.86-3.02-3.92-6.46-7.54-9.23-11.72-4.17-6.14-6.39-13.06-6.39-20.47,0-11.82-1.31-24.9-2.94-36.73-1.24-8.88-2.24-17.81-3.85-26.66-1.37-7.68-2.92-14.94-3.46-22.78-1.55-23.78-3.43-46.51-.21-70.18,1.11-8.61,1.07-16.95.8-25.54-.27-8.09,4.48-17.44.73-25.17-1.78-3.38-5.07-21.53,3.73-15.46,1.24.83,2.79,3.86,3.53,5.08,2.9,5.34.49,16.64.3,22.75-.25,5.2-.45,10.41-.59,15.61-.32,12.05-1.51,24.06-1.66,36.1,0,2.37,0,4.7-.05,7.1-.14,23.73-.14,47,2.68,70.63,3.22,17.95,6.95,35.84,8.82,54.01.73,6.1,2.41,11.43,3.75,17.32.83,3.82,1.28,7.73,2.88,11.39,1.85,4.59,5.02,5.62,8.86,8.21,3.32,2.33,6.26,5.08,8.53,8.46.68.99,13.1,10.5,13.1,10.5,7.62,6.57,15.13,13.17,22.31,20.21,4.62,4.56,9.13,10.75,14.74,14.21,4.99,3.12,9.65,7.09,14.12,10.84-3.28-5.42-5.3-11.04-9.01-16.17-3.36-4.62-6.77-9.49-5.96-15.56,1.19-7.83,7.84-7.22,10.93-1,1.24,2.77,1.68,5.89,3.19,8.61,1.32,2.61,3.54,4.76,5.05,7.32,1.48,2.6,2.09,5.46,2.87,8.39,1.24,4.86,2.77,12.43,8.52,13.65.18-2.62,1.88-4.35-1.11-5.93-.76-.34-.32-6.31-.19-7.27.38-3.37,1.66-7.25,5.79-6.45,4.03.71,5.07,4.96,4.2,8.46-.81,2.51-1.2,6.2-.17,8.73,1.87,4.18,9.56,3.1,13.12,2.82,6.82-.48,8.48-4.98,6.6-11.56-.97-3.5.13-7.75,4.2-8.46,4.13-.8,5.43,3.08,5.77,6.45.1.96.53,6.93-.22,7.27-2.96,1.57-1.31,3.3-1.21,5.93,5.92-1.22,7.31-8.8,8.6-13.65.71-2.93,1.34-5.79,2.88-8.39,1.51-2.56,3.65-4.72,5.06-7.32,1.47-2.72,1.86-5.83,3.24-8.61,2.95-6.23,9.76-6.83,10.81,1,.85,6.07-2.6,10.93-5.84,15.56-3.75,5.13-5.88,10.75-9.08,16.17,4.53-3.75,9.16-7.71,14.12-10.84,5.61-3.45,10.06-9.65,14.77-14.21,7.18-7.05,14.63-13.64,22.24-20.21,0,0,12.44-9.51,13.15-10.5,2.29-3.38,5.16-6.13,8.47-8.46,3.92-2.59,7.07-3.63,8.89-8.21,1.56-3.66,2.12-7.58,2.9-11.39,1.41-5.89,2.97-11.22,3.65-17.32,2.07-18.17,5.65-36.06,8.94-54.01,2.83-23.63,2.83-46.9,2.64-70.63,0-2.4,0-4.73-.03-7.1,0-12.05-1.26-24.06-1.63-36.1-.22-5.2-.45-10.41-.59-15.61-.13-6.11-2.54-17.4.34-22.75.6-1.22,2.26-4.25,3.41-5.08,8.86-6.07,5.5,12.08,3.83,15.46-3.83,7.74.87,17.09.7,25.17-.19,8.6-.41,16.94.79,25.54,3.14,23.67,1.38,46.4-.24,70.18-.45,7.84-2.12,15.1-3.41,22.78-1.66,8.85-2.64,17.78-3.92,26.66-1.61,11.84-2.9,24.92-2.9,36.73,0,7.42-2.3,14.33-6.39,20.47-2.7,4.18-6.16,7.8-9.37,11.72-3.1,4.03-5.07,8.71-7.89,12.86-3.26,4.46-7.82,7.66-11.4,11.68-9.31,10.22-17.13,22.31-27.84,30.99-1.9,1.49-12.28,7.13-11.5,10.18.44,2.43,7.43,1.93,9.26,1.7,6.62-.76,11.82-5.24,18.02-7.35,11.38-4.03,23.5-4.22,33.88-11.4,3.31-2.31,6.09-5.09,9.65-6.98,3.85-1.83,7.86-2.98,11.52-4.98,4.19-2.3,9.09-3.92,13.86-5.29,7.48-2.21,13.11-6.79,17.03-13.62,6.35-11.26,15.51-20.55,24.5-29.74,8.31-8.48,15.59-18.82,25.31-25.85,4.75-3.46,8.35-7.97,11.25-12.94,6.43-10.5,14.72-19.07,22.22-28.59,3.89-4.73,6.38-10.25,9.77-15.24,9.08-13.89,16.81-28.73,23.65-43.84,3.48-7.48,7.57-14.59,12.55-21.11,2.36-3.09,4.96-6.02,7.86-8.61,2.17-1.88,9.5-6.84,9.57-1.19.15,7.43-13.01,13.69-17.17,19.18-6.84,9.05-10.57,20.05-15.24,30.34-5.07,11.17-10.7,22.2-17.64,32.35-7.77,11.44-15.13,23.28-23.31,34.48-7.91,10.81-16.9,20.59-25.59,30.71-4.65,5.27-7.63,11.67-12.48,16.64-4.39,4.65-9.35,8.66-13.52,13.67-5.43,6.63-8.57,14.8-14.25,21.31-8.19,9.49-18.83,14.05-29.96,19.32-19.77,9.45-38.97,19.98-58.63,29.65,0,0-10.03,2.3-10.2,2.32-5.99,1.22-12.21-.24-18.22,1.36-2.78.78-4.92,2.14-6.46,4.85-.97,1.88-2.53,8.51,0,9.97,2.24,1.21,7.56.48,10.19,1.21,11.88,3.34,23.92,8.59,35.58,13.38,12.95,5.37,27.1,8.03,39.88,13.67,21.19,9.35,43.33-2.95,64.69-5.76,11.94-1.6,23.39-5.6,34.56-9.96,12.11-4.74,23.63-10.75,35.03-16.88,5.87-3.15,11.54-6.34,17.38-9.36,6.31-3.31,13.38-6.09,20.54-6.25,2.97-.12,6.97-.73,9.8.36,5.06,1.96,2.68,6.48-.98,7.6-4.73,1.48-9.91-.68-14.45,1.35-6.75,3.05-12.56,8.06-19.11,11.52-9.42,5.05-18.85,7.56-28.7,11.54-7.06,2.82-14.1,5.76-20.96,8.71-8.95,3.74-17.32,5.82-26.57,7.95-13.49,2.85-27.19,5.07-40.1,9.87-4.09,1.52-7.79,4.09-12.2,4.58-2.66.3-5.51-.01-8.05-.01-11.93,0-22.21-2.35-33.49-5.91-12.54-3.96-23.97-11.56-36.71-14.75-9.42-1.65-19.58-4.67-29.16-4.55-3.53.03-11.22,2.81-11.93,6.91-.85,5.44,8.74,12.39,11.96,16.09,3.68,4.32,7.24,8.75,9.05,14.15,1.86,5.59,2.3,11.6,3.95,17.26,3.92,12.66,7.31,25.34,10.78,38.05,2.88,10.53,4.1,21.87,10.16,31.23,3.09,4.8,4.97,10.29,7.55,15.37,12.13,23.53,25.99,46.29,38.8,69.47,3.28,5.86,8.62,11.28,12.81,16.46,4.65,5.81,9.5,11.49,14.32,17.15,5.67,6.49,11.95,12.41,16.91,19.39,3.34,4.71,7.94,11.25,7.62,17.25-.19,5-3.68,5.61-7.43,3.54-7.35-3.89-10.67-15.86-15.64-22.21-3.87-4.97-8.6-9.3-12.91-13.86-8.18-8.63-16.56-17.17-22.99-27.24-11.42-17.61-19.51-37.43-29.76-55.72-13.04-23.19-29.5-46.86-35.98-72.96-2.75-11.04-3.41-22.64-6.84-33.59-4.78-15.34-12.36-28.14-27.16-35.47,0,0,2.06,12.58,2.12,12.76.56,4.19,2.05,8.51,2.92,12.45,3.8,15.91,3.39,33.67-7.45,46.65-4.92,5.91-13.47,6.88-20.76,6.56-6.39-.33-16.77-1.11-21.33-6.56-10.78-12.98-11.1-30.75-7.35-46.65,1-3.94,2.32-8.27,2.94-12.45.05-.18,1.98-12.76,1.98-12.76-14.66,7.33-22.24,20.12-27.04,35.47-3.48,10.94-4.02,22.55-6.81,33.59-6.5,26.11-22.95,49.78-36.07,72.96-10.16,18.28-18.32,38.11-29.68,55.72-6.45,10.07-14.93,18.62-23.09,27.24-4.28,4.56-8.97,8.88-12.78,13.86-4.95,6.34-8.29,18.32-15.66,22.21-3.88,2.07-7.24,1.47-7.46-3.54-.29-5.99,4.31-12.54,7.65-17.25,4.97-6.98,11.23-12.9,16.81-19.39,4.82-5.66,9.69-11.34,14.42-17.15,4.21-5.17,9.57-10.59,12.81-16.46,12.8-23.17,26.57-45.93,38.7-69.47,2.68-5.08,4.54-10.56,7.65-15.37,5.94-9.36,7.16-20.7,10.06-31.23,3.48-12.71,6.96-25.39,10.78-38.05,1.75-5.66,2.1-11.68,4.05-17.26,1.83-5.41,5.39-9.83,9.06-14.15,3.21-3.7,12.81-10.65,11.93-16.09-.68-4.1-8.38-6.89-11.93-6.91-9.5-.12-19.73,2.9-29.13,4.55-12.79,3.19-24.23,10.78-36.8,14.75-11.27,3.56-21.43,5.91-33.39,5.91-2.7,0-5.36.31-8.07.01-4.35-.49-8.08-3.06-12.1-4.58-13.08-4.8-26.72-7.02-40.26-9.87-9.25-2.13-17.64-4.21-26.46-7.95-6.99-2.95-14.03-5.9-20.94-8.71-9.89-3.98-19.37-6.49-28.8-11.54-6.58-3.45-12.33-8.47-19.09-11.52-4.61-2.03-9.65.13-14.42-1.35-3.69-1.12-6.05-5.63-.98-7.6h0Z"/>
  </g>
</svg>