<?xml version="1.0" encoding="UTF-8"?>
<svg id="Layer_2" data-name="Layer 2" xmlns="http://www.w3.org/2000/svg" viewBox="0 0 546.88 654.5">
  <defs>
    <style>
      .cls-1 {
        fill:#808080
      }
    </style>
  </defs>
  <g id="Layer_1-2" data-name="Layer 1">
    <path class="cls-1" d="m456.52,23.54c27.56,33.59,27.2,59.13,0,90.83-2.84,3.43-7.57,6.27-6.27,11.12,8.28,30.51-12.54,50.03-26.73,71.91,25.55,5.91,36.43,1.66,123.36-48.14-14.07,28.38-63.16,61.5-102.54,67.77-11.83,1.89-16.44,4.61-11.83,17.5,3.26,7.75,3.8,16.38,1.54,24.48-9.7,26.73-2.72,51.45,3.43,77.47,8.52,35.48-3.55,98.76-23.65,133.76,2.01-25.07,9.58-49.56,9.58-74.98,1.18-26.39-3.76-52.7-14.43-76.88-13.84,18.45-26.26,35.48-39.5,52.39-22.7,28.53-47.78,55.08-74.98,79.36-4.97,4.49-11.83,7.21-5.68,16.91,16.2,28.38,9.7,57.12-2.48,84.8-8.59,18.62-19.22,36.24-31.7,52.51-23.06,31.1-22.35,33.47,10.17,50.15-27.91,0-39.27-14.55-28.98-40.45,10.29-25.9,22.12-50.38,32.64-75.81,7.21-15.23,8.92-32.49,4.85-48.85-2.96-10.17-6.98-15.49-18.45-6.62-17.17,13.55-36.99,23.34-58.19,28.74-27.32,6.62-35.48,2.25-43.52-24.72-5.74-19.15-7.79-39.22-6.03-59.13,1.3-17.03-5.2-16.56-17.39-11.83-18.41,9.36-33.67,23.92-43.88,41.87-11.12,16.32-21.41,33.35-32.76,49.56-17.5,25.07-33.71,25.19-53.1.95.95,0,2.25-1.3,2.6-.95,27.91,18.8,32.05,17.5,44.71-14.31,9.51-27.9,24.15-53.77,43.17-76.28,12.73-15.54,30.68-25.93,50.5-29.21,6.74-.83,9.93-2.84,11.12-10.05,9.47-58.29,26.37-115.12,50.26-169.13-53.1,9.46-88.82,41.39-126.31,78.77,1.04-8.03,4.8-15.45,10.64-21.05,4.61-5.44,9.93-10.05,14.55-15.38,28.62-33.23,61.62-59.13,106.44-67.3,4.02-.71,7.21-1.54,8.75-5.91,10.29-28.86,35.48-36.43,63.27-42.58-21.76-44.11-17.15-89.65-1.54-134.83-6.56,45.46,1.3,91.82,22.47,132.58,5.09-12.54,8.52-22,12.89-30.99,5.91-12.54,11.83-24.95,27.68-29.33,7.45-1.9,13.37-7.55,15.61-14.9,13.48-39.38,33.71-51.57,79.36-47.31-17.83,8.54-32.01,23.19-39.98,41.28-4.61,10.41-4.61,17.15,7.21,23.77,31.22,16.91,33,16.79,47.31-15.97,5.06-11.14,7.06-23.43,5.8-35.6Z"/>
  </g>
</svg>