<?xml version="1.0" encoding="UTF-8"?>
<svg id="Layer_2" data-name="Layer 2" xmlns="http://www.w3.org/2000/svg" viewBox="0 0 457.03 654.5">
  <defs>
    <style>
      .cls-1 {
        fill:#808080
      }
    </style>
  </defs>
  <g id="Layer_1-2" data-name="Layer 1">
    <path class="cls-1" d="m3.3,179.1c1.79,1.76,2.61,4.43,3.9,6.52,3.8,5.91,7.3,11.96,10.66,18.07,6.69,12.18,12.89,24.56,19.37,36.91,3.13,5.9,5.94,15.64,12.43,18.57,9.24,4.19,14.29,9.96,20.59,17.85,11.2,14.03,27.18,26.43,42.19,36.19,10.09,6.55,20.73,7.68,32.45,8.34,11.39.56,22.98.87,32.41,8.16,2.04,1.61,4,3.44,6.51,4.23,2.29.76,4.65.53,6.78,1.85,2.02,1.29,8.57,5.55,9.45.65.44-2.54-3.36-5.41-4.86-7.13-3.15-3.74-6.38-7.43-9.64-11.08-6.59-7.26-13.28-14.4-20.14-21.4-7.26-7.35-14.33-14.87-21.59-22.08-5.46-5.36-11.43-10.25-15.64-16.74-2-3.19-2.78-7.31-4.96-10.33-2.13-2.89-5.8-4.11-8.18-6.68-2.92-3.03-5.34-6.62-6.61-10.6-2.48-7.42-1.19-15.37-2.04-22.91-.5-4.91-1.11-9.77-1.79-14.62,0,0-10.55-37.34-11.07-39.8-1.86-8.05-7.32-15.65-2.3-23.76,2.63-4.19,2.73-11.97,3.25-16.86,1.69-14.54,4.17-29.04,6.24-43.53l8.38-50.19c.33-2.51.77-5.04,1.21-7.56.33-2.76,2.29-14.62,7.4-10.22,4.23,3.61-.19,11.95-1.15,16.08-1.44,6.37-3.15,12.75-4.11,19.28l-6.47,41.76c-.88,6.08-1.56,12.14-2.33,18.15-.96,7.7-2.34,15.28-3.67,22.91-1.21,6.21,4.42,9.78,5.82,15.43,1.96,7.24.42,14.82,1.62,22.12l2.46,14.75c.35,1.71,1,3.37,1.44,5.01,4.38,15.6,6.59,32.84,14.33,47.24,3.55,6.63,4.53,16.79,12.1,20.35,4.26,1.99,7.15,5.94,10.14,9.54,3.38,4.04,6.95,7.96,10.34,11.94,6.07,7.13,12.33,14.42,18.44,21.42,2.55,2.88,5.07,5.74,7.49,8.67,4.19,4.97,9.72,9.09,13.62,14.31,2.5,3.47,5.48,8.84,10.53,8.32,4.92-.53,4.11-4.92.81-6.92-1.67-1.02-3.52-5.63-3.96-7.46-.85-3.65-.02-7.97,1.19-11.43,1.88-5.25,10.32-8.55,15.33-5.93,1.36.69,3.38,3.17,2.31,4.72-1.38,2.23-4.88-.13-6.69-.27-9.84-.6-5.15,23.01,1.79,13.53.02-.03,3.27-4.36,3.46-3,.23,2.29-.54,4.19,1.54,5.69,2,1.53,6.78,1.45,8.78.03,2.3-1.53,1.52-3.35,1.73-5.72.14-1.36,3.4,2.97,3.44,3,6.99,9.48,11.7-14.14,1.67-13.53-1.67.14-5.15,2.5-6.55.27-1.06-1.55.92-4.04,2.29-4.72,4.98-2.62,13.35.69,15.31,5.93,1.36,3.46,2.04,7.78,1.23,11.43-.46,1.82-2.34,6.44-3.99,7.46-3.38,2-4.11,6.39.79,6.92,4.96.52,8.05-4.85,10.59-8.32,3.84-5.22,9.41-9.33,13.51-14.31,2.46-2.93,4.97-5.79,7.47-8.67,6.17-7,12.41-14.29,18.52-21.42,3.4-3.98,6.94-7.9,10.34-11.94,3.04-3.6,5.9-7.55,10.18-9.54,7.44-3.57,8.53-13.72,12.03-20.35,7.78-14.4,9.95-31.64,14.35-47.24.46-1.64,1.09-3.3,1.4-5.01l2.52-14.75c1.11-7.3-.36-14.88,1.5-22.12,1.52-5.65,7.03-9.22,5.96-15.43-1.4-7.63-2.77-15.21-3.73-22.91-.77-6.02-1.44-12.07-2.35-18.15l-6.45-41.76c-1-6.53-2.63-12.91-4.11-19.28-.96-4.13-5.36-12.47-1.12-16.08,5.09-4.4,7.11,7.46,7.47,10.22.31,2.52.59,5.05,1.12,7.56l8.41,50.19c2.11,14.48,4.59,28.99,6.19,43.53.54,4.89.67,12.67,3.32,16.86,4.9,8.11-.48,15.71-2.29,23.76-.56,2.46-11.18,39.8-11.18,39.8-.58,4.85-1.29,9.71-1.79,14.62-.79,7.54.5,15.48-1.98,22.91-1.33,3.99-3.69,7.57-6.63,10.6-2.36,2.58-6.09,3.8-8.05,6.68-2.29,3.02-3,7.14-5.07,10.33-4.21,6.49-10.18,11.38-15.6,16.74-7.34,7.21-14.41,14.72-21.6,22.08-6.82,7-13.62,14.14-20.13,21.4-3.25,3.65-6.49,7.33-9.65,11.08-1.52,1.72-5.34,4.59-4.84,7.13.84,4.9,7.43.65,9.39-.65,2.21-1.31,4.46-1.08,6.8-1.85,2.52-.79,4.44-2.63,6.49-4.23,9.49-7.3,21.04-7.6,32.45-8.16,11.74-.66,22.34-1.79,32.43-8.34,14.95-9.76,31.03-22.16,42.21-36.19,6.19-7.89,11.2-13.66,20.52-17.85,6.59-2.93,9.39-12.67,12.47-18.57,6.42-12.36,12.62-24.73,19.42-36.91,3.4-6.11,6.86-12.16,10.62-18.07,1.23-2.09,2.19-4.76,3.92-6.52,2.15-2.23,3.79-1.58,3.06,1.76-.39,2.33-1.88,4.47-3.02,6.55-5.88,11.06-7.93,23.69-14.43,34.58-5.17,8.72-10.47,17.5-15.6,26.26-4.19,7.12-7.15,15.43-12.66,21.7-9.66,10.92-21.73,20.27-32.35,30.22-6.76,6.34-13.51,12.67-20.29,18.97-7.09,6.67-12.91,12.66-23.19,13.51-8.51.71-17.02,1.42-25.42,2.37-7.53.93-15.46,1.51-22.44,4.97-6.57,3.31-17.04,7.31-20.17,14.66-3.61,8.42,7.55,8.06,12.47,7.91,11.28-.41,22.5,1.59,33.43,3.93,8.7,1.93,17.69,3.76,26.71,3.13,8.43-.58,15.64-4.85,23.71-6.53,4.59-.99,8.99-1.83,13.7-1.94,5.28-.09,10.8.44,15.89-1.41,4.84-1.73,8.93-5.89,13.37-8.32,2.09-1.13,6.72-2.98,9.01-1.74,3.63,2.07-.08,7.27-2.19,8.87-3.19,2.48-7.21,3.74-10.57,6.08-3.82,2.62-7.19,5.87-11.14,8.27-6.13,3.76-13.49,3.9-20.38,4.58-13.14,1.22-25.71,6.14-39.06,5.65-11.95-.49-23.63-3.99-35.6-4.76-8.24-.52-16.39-3.27-24.26,1.21-14.95,8.5,18.39,23.48,23.15,26.65,10.7,7.03,21.46,13.98,32.07,21.16,12.55,8.28,23.19,19.25,32.37,31.09,4.74,6.12,9.65,13.17,11.93,20.69,2.46,8.6,4.9,17.06,7.78,25.48,1.31,4.02,2.57,8.03,3.96,12.02,5.02,14.2,10.11,28.36,15.01,42.57,1.42,4.01,3.46,7.8,4.42,11.95,2.92,12.54-1.27,25.03-6.51,36.33-5.82,12.63-11.7,25.34-18.62,37.43-2.07,3.73-7.82,14.55-12.47,6.88-3-5.1,5.88-13.52,8.36-17.33,5.84-8.66,11.01-17.86,14.52-27.73,2.48-7.07,3.61-14.55,1.65-21.86-1.9-6.68-5.46-12.68-8.15-19.02-3.9-9.2-5.63-19.08-8.47-28.61-3.23-10.8-6.19-21.78-10.68-32.27-1.77-4.44-3.9-8.31-7.13-11.93-14.06-15.69-20.98-36.13-35.54-51.5-5.47-5.67-10.16-11.93-16.04-17.09-3.02-2.6-6.28-4.87-9.86-6.54-1.52-.69-7.63-2.14-8.22-3.73,3.21,9.32,9.91,16.87,12.1,26.59,5.34,24.52.13,50.43-11.57,72.38-8.26,15.62-20.13,30.08-37.25,36.25-4.98,1.8-10.41,2.57-15.77,2.67-10.51.16-21.61,0-31.45-4.21-9.87-4.16-17.23-12.41-23.19-21.07-3.02-4.36-5.74-8.99-8.13-13.64-11.66-21.95-17-47.86-11.51-72.38,2.08-9.72,8.78-17.27,11.97-26.59-.56,1.6-6.73,3.05-8.26,3.73-3.63,1.67-6.78,3.93-9.74,6.54-5.98,5.16-10.72,11.42-16.08,17.09-14.6,15.37-21.52,35.81-35.56,51.5-3.21,3.62-5.32,7.48-7.11,11.93-4.46,10.49-7.47,21.47-10.72,32.27-2.79,9.53-4.55,19.42-8.42,28.61-2.67,6.34-6.2,12.34-8.11,19.02-1.96,7.31-.81,14.78,1.56,21.86,3.44,9.86,8.74,19.06,14.54,27.73,2.61,3.82,11.33,12.23,8.28,17.33-4.55,7.66-10.3-3.15-12.43-6.88-6.94-12.08-12.72-24.8-18.5-37.43-5.32-11.29-9.53-23.78-6.65-36.33.96-4.15,3.02-7.94,4.44-11.95,4.98-14.21,10.09-28.37,15.06-42.57,1.38-4,2.71-8.01,4-12.02,2.84-8.43,5.28-16.88,7.72-25.48,2.25-7.52,7.11-14.57,11.99-20.69,9.15-11.84,19.79-22.81,32.28-31.09,10.62-7.17,21.42-14.13,32.12-21.16,4.77-3.17,38.16-18.15,23.13-26.65-7.82-4.48-16.06-1.73-24.23-1.21-11.99.77-23.61,4.27-35.58,4.76-13.3.49-25.96-4.43-39.02-5.65-6.9-.68-14.31-.81-20.46-4.58-3.94-2.4-7.34-5.65-11.08-8.27-3.4-2.34-7.36-3.6-10.66-6.08-2.09-1.61-5.78-6.81-2.09-8.87,2.23-1.24,6.86.61,8.93,1.74,4.48,2.43,8.55,6.59,13.37,8.32,5.19,1.85,10.63,1.31,15.87,1.41,4.76.11,9.18.95,13.79,1.94,8.07,1.68,15.24,5.94,23.73,6.53,9.01.64,17.92-1.2,26.72-3.13,10.95-2.34,22.17-4.34,33.35-3.93,4.98.15,16.12.5,12.53-7.91-3.15-7.35-13.62-11.35-20.27-14.66-6.9-3.46-14.87-4.04-22.42-4.97-8.36-.95-16.89-1.66-25.38-2.37-10.32-.85-16.06-6.83-23.23-13.51-6.7-6.3-13.51-12.63-20.33-18.97-10.51-9.95-22.65-19.3-32.26-30.22-5.46-6.27-8.4-14.58-12.66-21.7-5.17-8.76-10.43-17.54-15.6-26.26-6.45-10.89-8.47-23.51-14.39-34.58-1.15-2.08-2.69-4.22-3.15-6.55-.63-3.35,1-3.99,3.17-1.76h0Z"/>
  </g>
</svg>