<?xml version="1.0" encoding="UTF-8"?>
<svg id="Layer_2" data-name="Layer 2" xmlns="http://www.w3.org/2000/svg" viewBox="0 0 654.5 424.19">
  <defs>
    <style>
      .cls-1 {
        fill:#808080
      }
    </style>
  </defs>
  <g id="Layer_1-2" data-name="Layer 1">
    <path class="cls-1" d="m652,60.12c.56-3.76,3.01-7.28,2.42-11.24-.34-2.52-1.88-4.74-2.42-7.22-.83-4.03-.03-8.18-.21-12.24-.18-4.18-1.8-7.93-3.75-11.49-4.08-7.16-10.3-14.73-18.83-16.04-6.34-.96-12.62-1.74-18.91-1.88-11.15-.13-22.07,1.88-32.88,4.52-10.72,2.71-21.5,5.55-31.92,9.35-10.92,3.93-21.65,8.44-31.73,14.07-4.07,2.2-8.13,4.54-11.87,7.18-12.46,8.28-24.72,17.02-36.55,26.11-2.34,1.77-4.61,3.55-6.84,5.38-8.45,7-16.62,14.45-24.75,21.92-8.69,8.17-17.05,16.68-25.4,25.31-7.98,8.29-16.02,16.56-24.1,24.7-3.17,3.19-6.41,6.22-9.46,9.5-6.1,6.54-10.27,14.52-14.31,22.41-3.56,7-6.93,14.18-10.6,21.19-1.1,2.03-2.18,4.05-3.31,6.04-.54,1.01-1.19,1.95-1.75,2.91-.13.31-1.83,2.32-1.75,2.6,0,0-.72-1.98-1.11-2.63-.38-.65-1.62-3.44-1.72-3.81-.32-1.08-.85-2.14-1.39-3.15,3.76-3.21,5.98-8.38,2.11-12.42-.36-.37-4.15-3.3-4.3-3.01,4.12-7.38,8.65-14.44,12.39-22.13,1.06-2.2,2.06-4.4,3.09-6.65,3.69-8.28,7.08-16.68,9.76-25.37,2.77-8.78,5.2-17.73,7.21-26.68,1.75-7.86,4.17-15.52,6.04-23.23.54-2.09,1.21-4.07,1.49-6.12.52-3.25.54-6.78-1.16-9.66-.34-.67-1.26-.28-1.7-.28-.36,0-.36,1.08-.36,1.08-.14,5.39-.21,10.85-1.39,16.12-.85,4.21-2.13,8.19-3.04,12.37-.51,2.34-1.08,4.76-1.56,7.1-.67,3.09-1.47,6.18-2.22,9.15-.56,2.44-1.28,4.82-2.03,7.19-.74,2.85-1.56,5.74-2.47,8.55-.62,2.24-1.32,4.43-2.06,6.7-2.39,7.4-4.98,14.81-8.29,21.84-.65,1.39-1.32,2.76-2.01,4.18-1.88,4.09-3.87,8.01-5.9,11.96-1,1.93-2.11,3.75-3.14,5.64-1.16,2.25-1.96,4.84-3.99,6.52-.46.36-2.73,2.2-2.97.78-.32-1.74,0-10.56-2.75-10.2-.93.17-1.13,1.8-1.08,2.46.08,2.26.08,4.54-.47,6.69h-1.56c-.44-2.16-.44-4.43-.44-6.69,0-.66-.23-2.29-1.06-2.46-2.71-.36-2.45,8.46-2.73,10.2-.29,1.42-2.51-.43-2.86-.78-2.21-1.67-2.83-4.27-4.15-6.52-1.03-1.89-2.09-3.71-3.09-5.64-2.09-3.95-4.09-7.87-5.94-11.96-.75-1.41-1.39-2.78-1.99-4.18-3.37-7.03-5.98-14.44-8.32-21.84-.67-2.27-1.37-4.46-2.07-6.7-.92-2.81-1.68-5.69-2.57-8.55-.6-2.37-1.31-4.75-1.91-7.19-.72-2.97-1.52-6.06-2.21-9.15-.52-2.34-1.03-4.76-1.62-7.1-.91-4.18-2.11-8.16-3.12-12.37-1.1-5.27-1.1-10.73-1.28-16.12,0,0,0-1.08-.47-1.08-.3,0-1.28-.39-1.64.28-1.75,2.88-1.63,6.41-1.09,9.66.26,2.05.99,4.03,1.45,6.12,1.93,7.72,4.3,15.37,6.08,23.23,2.03,8.95,4.42,17.9,7.21,26.68,2.67,8.69,5.98,17.09,9.68,25.37,1.16,2.24,2.11,4.45,3.17,6.65,3.63,7.7,8.16,14.75,12.36,22.13-.16-.29-3.91,2.64-4.25,3.01-3.92,4.05-1.65,9.21,2.03,12.42-.41,1.01-.95,2.07-1.27,3.15-.18.37-1.42,3.16-1.78,3.81-.38.65-1.2,2.63-1.2,2.63.15-.28-1.45-2.29-1.71-2.6-.56-.96-1.14-1.9-1.68-2.91-1.26-2-2.29-4.01-3.35-6.04-3.65-7.01-7.08-14.19-10.53-21.19-4.08-7.89-8.3-15.87-14.32-22.41-3.07-3.28-6.36-6.31-9.53-9.5-8.11-8.15-16.12-16.42-24.13-24.7-8.32-8.63-16.72-17.15-25.39-25.31-8.09-7.47-16.13-14.92-24.7-21.92-2.29-1.83-4.5-3.62-6.82-5.38-11.91-9.09-24.13-17.83-36.52-26.11-3.87-2.64-7.85-4.98-11.92-7.18-10.12-5.63-20.82-10.13-31.7-14.07-10.49-3.8-21.25-6.64-32-9.35C66.36,1.88,55.42-.13,44.28,0c-6.33.14-12.66.91-18.95,1.88-8.49,1.32-14.73,8.89-18.72,16.04-2.07,3.56-3.61,7.31-3.79,11.49-.21,4.07.56,8.21-.29,12.24-.54,2.49-2.06,4.71-2.44,7.22-.62,3.96,1.9,7.47,2.44,11.24.49,3.39-.64,6.74-.64,10.17.1,3.37,2.19,6.24,3.81,9.06,1.71,3,2.81,6.2,3.48,9.6.64,3.96,1.42,7.94,3.17,11.57,1.75,3.84,5.62,6.1,7.62,9.82,2.55,4.86,2.01,10.94,2.55,16.3.49,3.79.95,7.71,2.53,11.25,1.67,4.15,4.76,7.57,7.26,11.23,4.22,6.47,4.34,14.01,5.85,21.33,1,5.03,4.56,9.08,7.44,13.13,2.81,4.01,6.01,7.71,8.99,11.75,6.13,8.56,10.56,18.37,21.64,21.57,16.62,4.77,34.13,4.47,51.2,4.53,11.34.09,22.61-.33,33.82-.69,1.09-.04,2.09-.09,3.07-.12-4.07,1.44-8.21,2.94-12.36,4.45-11.95,4.35-23.83,8.64-35.59,13.56-12.47,5.15-23.91,12.94-32.48,23.46-6.39,7.64-12,15.86-16.2,24.9-4.28,9.1-7.67,19.47-1.62,28.59,5.35,8.21,4.66,18.26,6.08,27.56.48,3.99,1.02,8.06,3.13,11.61,2.53,4.1,7.14,6.12,9.82,10.13,2.39,3.73,3.13,8.12,4.79,12.18,3.76,9.69,14.65,13.18,22.82,18.18,4.07,2.46,7.63,5.6,11.38,8.27,3.94,2.79,7.83,5.72,12.23,7.67,4.1,1.79,8.43,2.63,12.67,4.04,6.83,2.4,13.11,6.16,20.38,7.1,5.64.79,11.4.56,17.04.96,5.82.36,11.72.98,17.54.9,8.94-.11,18.13-3.1,25.63-7.59,10.22-6.13,19.7-13.53,27.76-22.3,11.31-12.2,18.55-27.38,25.92-42.04,5.25-10.19,10.35-20.42,15.4-30.61,4.76-9.67,9.29-19.41,13.9-29.09,2.01-4.63,4.36-9.14,6.45-13.67-.37.7.02,2.51.04,3.27.08,2.81.16,5.67.2,8.51.16,3.73.16,7.6.26,11.43.14,5.9.36,12.02-1.67,17.69-1.85,4.89-4.43,9.31-5.17,14.55-.78,6.65-.36,13.37.14,19.98.52,7.94-.26,16.04.98,23.97.62,3.23,2.11,6.73,5.34,8.09,8.01,3.45,20.07,1.62,21.6-8.09,1.31-7.93.52-16.03,1.06-23.97.47-6.62.95-13.34.08-19.98-.74-5.24-3.25-9.66-5.04-14.55-2.14-5.67-1.91-11.79-1.78-17.69.1-3.83.23-7.7.3-11.43.06-2.84.16-5.7.24-8.51.02-.76.38-2.57.04-3.27,2.09,4.54,4.38,9.05,6.5,13.67,4.48,9.67,9.02,19.41,13.81,29.09,5.04,10.19,10.14,20.42,15.37,30.61,7.45,14.66,14.66,29.84,25.92,42.04,8.08,8.77,17.54,16.17,27.78,22.3,7.47,4.49,16.74,7.48,25.6,7.59,5.82.08,11.74-.54,17.56-.9,5.69-.4,11.39-.18,17.05-.96,7.33-.94,13.55-4.7,20.32-7.1,4.25-1.41,8.63-2.26,12.72-4.04,4.46-1.95,8.27-4.89,12.21-7.67,3.78-2.67,7.39-5.81,11.4-8.27,8.03-5,19.09-8.49,22.79-18.18,1.57-4.06,2.43-8.45,4.82-12.18,2.67-4.01,7.31-6.03,9.79-10.13,2.09-3.55,2.65-7.62,3.27-11.61,1.31-9.3.6-19.34,5.95-27.56,6.08-9.12,2.67-19.49-1.53-28.59-4.22-9.03-9.91-17.26-16.22-24.9-8.63-10.52-20.07-18.31-32.52-23.46-11.8-4.92-23.62-9.21-35.59-13.56-4.14-1.5-8.3-3.01-12.39-4.45,1.03.03,2.11.09,3.07.12,11.28.37,22.5.78,33.76.69,17.08-.06,34.72.24,51.33-4.53,11.02-3.2,15.48-13.01,21.68-21.57,2.83-4.04,6.03-7.74,8.86-11.75,2.96-4.06,6.46-8.1,7.47-13.13,1.46-7.33,1.64-14.86,5.9-21.33,2.47-3.66,5.53-7.09,7.26-11.23,1.5-3.54,1.99-7.46,2.53-11.25.46-5.36,0-11.44,2.49-16.3,2.01-3.72,5.88-5.98,7.67-9.82,1.65-3.63,2.47-7.62,3.17-11.57.67-3.39,1.75-6.59,3.43-9.6,1.67-2.83,3.71-5.69,3.71-9.06.1-3.43-1.03-6.77-.56-10.17h0Z"/>
  </g>
</svg>