<?xml version="1.0" encoding="UTF-8"?>
<svg id="Layer_2" data-name="Layer 2" xmlns="http://www.w3.org/2000/svg" viewBox="0 0 654.5 473.55">
  <defs>
    <style>
      .cls-1 {
        fill:#808080
      }
    </style>
  </defs>
  <g id="Layer_1-2" data-name="Layer 1">
    <path class="cls-1" d="m148.03,0c4.36,1.49,7.51,4.55,10.33,8.04,3.46,4.28,7.36,8.11,11.31,11.93,15.81,15.28,30.28,31.8,44.24,48.75,3.06,3.72,6.26,6.81,11.08,7.88,2.88.66,4.71,2.52,6.31,5.01,9.55,14.92,19.48,29.58,31.48,42.66,3.59,3.92,4.62,8.27,4.9,13.11.08,1.28.48,2.21,1.44,2.94.64.49,1.35.92,2.09,1.28,8.81,4.22,7.19,2.49,10.35,12.25,5.86,18.16,11.73,36.32,20.4,53.41.38.76.52,2.14,1.47,2.02,1.09-.15.86-1.6,1.16-2.49.22-.69.31-1.45.31-2.18-.01-6.43,3.91-10.91,7.66-15.48,7.76-9.45,16.31-18.15,25.01-26.73,5.71-5.64,11.58-11.17,16.81-17.24,3.42-3.94,7.69-4.94,12.26-5.55,1.77-.24,3.25-.53,4.16-2.05,2.78-4.58,7.18-6.84,11.88-8.99,14.46-6.62,28.05-14.94,41.94-22.65,12.98-7.22,26.34-13.58,40.21-18.89,16.16-6.18,31.57-14.04,47.34-21.13,8.67-3.89,17.39-7.66,26.14-11.36,3.73-1.59,7.62-2.32,11.74-1.6,2.38.42,3.15,1.61,2.83,3.89-.41,2.91-2.12,4.92-4.27,6.64-2.01,1.6-4.32,2.67-6.69,3.57-25.15,9.62-49.37,21.2-72.92,34.21-18.49,10.24-37.38,19.72-56.04,29.66-9.04,4.81-18.04,9.7-26.66,15.25-3.5,2.26-7.3,3.25-11.36,3.36-1.45.04-2.46.42-3.29,1.65-1.71,2.5-3.78,4.75-4.83,7.67-.34.96-1.21,1.53-1.98,2.14-11.34,9.05-22.17,18.68-32.95,28.4-3.92,3.52-7.37,7.45-9.65,12.27-.56,1.19-1.1,2.37-1.25,3.95,1.76-.16,3.03-1.24,4.4-1.97,12.12-6.53,24.08-13.4,36.96-18.32,7.58-2.89,15.32-5.28,22.97-7.98,7.12-2.52,13.52-6.63,20.41-9.67,4.92-2.18,10.06-3.01,15.34-2.43,7.96.88,15.65-.11,23.26-2.46,8.47-2.61,16.51-6.37,24.97-8.99,14.5-4.48,29.36-7.3,44.28-9.91,21.51-3.76,43.19-6.64,64.34-12.28,14.39-3.84,28.56-8.53,43.08-11.93,10.12-2.38,20.35-4.16,30.81-4.27.9-.01,1.8.08,2.69.13v6.39c-1.66,3.45-4.69,4.83-8.2,5.55-4.91.99-9.93.98-14.87,1.65-12.21,1.61-24.04,4.89-35.82,8.31-15.95,4.64-31.77,9.78-48.21,12.52-4.83.8-9.86,1.5-13.92,4.49-8.22,6.05-17.65,8.82-27.51,10.39-13.01,2.06-26.05,3.81-39.04,5.96-6.03.99-12.22,1.85-17.55,5.18-4.22,2.64-8.81,4.01-13.63,4.57-12.44,1.45-24.34,4.76-35.89,9.63-9.42,3.97-18.85,8.03-28.86,10.35-5.5,1.28-11.13,2.01-16.54,3.62-5.91,1.76-11.4,4.2-14.67,9.92-1.37,2.42-1.24,2.66,1.54,2.63,8.03-.09,15.99-1.23,24.03-1.1,5.03.08,9.99.2,14.85,1.56,3.38.94,4.27,2.03,4.4,5.55.11,2.61.04,5.24.03,7.86-.01.97.13,2.12-1.26,2.27-1.17.12-2.08-.42-2.6-1.48-.54-1.12-.74-2.32-.83-3.56-.13-1.78-1.02-2.57-2.88-2.55-5.49.06-10.98.02-16.47.02-.63.01-1.44-.17-1.75.56-.37.85.39,1.32.91,1.82,1.29,1.24,2.93,2.14,3.74,3.85.33.67.69,1.4.19,2.09-.46.65-1.18.32-1.8.21-2.18-.43-4.36-.81-6.58-.62-2.25.19-3.72,1.36-4.01,3.61-.27,2.13,1.01,3.36,2.91,3.99,2.27.79,4.49.69,6.6-.58.63-.39,1.09-1.54,2.04-.76.77.62.77,1.61.67,2.51-.15,1.22-.83,2.15-1.72,2.9-1.26,1.04-2.63,1.94-3.88,3.01-.72.58-2.06,1.03-1.68,2.13.33.91,1.6.53,2.47.57,8.18.34,15.91-1.56,23.43-4.59,2.2-.89,2.56-.56,2.5,1.81-.12,4.99-3.53,9.15-8.83,10.89-6.15,2.01-12.46,1.83-18.74,1.26-5.86-.53-11.69-1.39-17.52-2.22-2.11-.3-2.27.42-1.41,2.05,2.26,4.26,6,6.61,10.43,8.03,5.09,1.63,10.35,2.37,15.64,2.95,9.49,1.02,18.79,2.65,27.49,6.86,4.34,2.11,8.77,4.04,13.19,6.02,5.91,2.64,11.77,5.31,18.25,6.37,11.71,1.88,23.44,3.51,34.94,6.61,15.71,4.25,31.37,8.86,47.42,11.72,14.96,2.65,29.64,6.06,43.65,12.09,5.05,2.18,10.37,3.52,15.95,3.61,3.43.06,6.88.19,10.29.6,10.29,1.22,20.13,4.38,30.04,7.21,13.32,3.78,26.24,9.31,40.56,8.93,4.84-.12,7.1,2.58,8.16,7.36.1.48.25.94.37,1.42v2.46c-5.24,2.76-10.77,2.54-16.27,1.24-11.46-2.74-22.85-5.8-34.44-7.96-17.05-3.16-34.13-6.2-51.33-8.37-31-3.92-61.04-11.71-90.68-21.35-6.15-2-12.34-3.89-18.12-6.86-5.27-2.7-10.8-3.01-16.49-1.58-2.73.69-5.59.61-7.83-1-7.12-5.14-15.28-6.83-23.74-7.83-11.97-1.42-23.18-5.68-34.44-9.67-13.99-4.97-27.47-11.13-40.2-18.86-.34-.2-.72-.35-1.29-.62.03,1.27.84,1.92,1.36,2.65,6.6,9.16,14.51,17.12,22.79,24.73,6.2,5.7,12.49,11.34,18.78,16.96,2.65,2.35,4.52,5.14,5.32,8.6.21.87.63,1.21,1.46,1.33,3.31.51,6.51,1.77,9.93,1.45.96-.09,1.75.32,2.45.94,14.2,12.76,31.16,20.69,48.55,27.87,2.65,1.09,5.31,2.18,8.03,3.08,6.82,2.28,12.91,5.74,18.75,9.97,17.51,12.69,36.61,22.64,56.1,31.92,8.21,3.91,16.55,7.48,25.23,10.27,4.27,1.38,8.05,3.73,10.47,7.71,1.94,3.19,1.45,4.45-1.98,5.97-3.35,1.46-6.63.94-9.78-.4-6.03-2.56-11.78-5.76-17.96-7.96-12.64-4.53-24.23-11.19-35.84-17.77-10.52-5.94-21.61-10.21-33.62-11.81-1.39-.19-2.45-.9-3.52-1.62-10.28-6.89-20.56-13.78-31.4-19.79-7.39-4.1-15.22-7.25-22.9-10.74-8.01-3.63-16.24-7.18-22.01-13.98-3.52-4.14-7.93-4.58-12.44-5.48-1.18-.25-2.16-.48-2.99-1.39-11.21-12.41-23.66-23.62-34.77-36.12-6.59-7.43-12.65-15.24-17.59-23.9-.4-.7-.86-1.35-1.4-2.21-3.6,5.08-6.13,10.46-8.5,15.95-5.11,11.81-8.46,24.26-12.7,36.38-.4,1.17-.94,2.3-1.17,3.49-1.19,6.23-5.99,8.87-11.11,11.06-1.55.67-2.24,1.37-2.1,3.02.09,1.06.06,2.14-.02,3.2-.29,3.8-1.08,7.19-4.22,10.04-10.76,9.83-19.52,21.38-27.95,33.21-2.33,3.28-4.55,6.63-6.79,9.95-.62.92-1.27,1.61-2.54,1.61-3.7.01-6.6,1.49-9.26,4.18-10.04,10.14-19.14,21.12-28.56,31.82-10.74,12.18-21.85,23.98-35.11,33.52-1.37.99-2.26,2.35-3.31,3.62-2.42,2.96-5.23,3.88-7.41,2.49-2.22-1.41-2.8-5.12-1.27-8.27,1.53-3.17,4.15-5.37,7.26-6.71,3.53-1.5,6.05-4.06,8.54-6.81,18.4-20.26,36.69-40.61,55.3-60.65,12.11-13.03,24.49-25.79,36.74-38.66,2.84-2.98,3.63-7.1,5.02-10.83,2.91-7.9,5.16-16.06,9.06-23.6,2.79-5.41,6.56-10.19,10.03-15.14,2.54-3.63,4.92-7.36,6.71-11.42,1.8-4.14,2.49-8.41,1.84-12.93-.31-2.13-.91-2.21-2.58-1.06-11.79,8.05-21.87,17.96-31.29,28.61-11.9,13.42-22.85,27.67-34.96,40.91-2.54,2.76-5.91,2.95-8.93,4.14-2.01.79-3.7,1.69-4.94,3.38-1.01,1.38-2.19,2.72-2.92,4.25-2.75,5.72-7.43,7.68-13.53,8.36-14.14,1.63-27.36,6.4-39.89,13.1-1.86.99-3.6,2.27-5.29,3.56-3.22,2.46-6.92,3.3-10.83,3.38-3.36.08-6.74.21-10.07-.02-9.05-.62-17.54,1.31-25.83,4.82-5.87,2.49-11.74,5.05-18.06,6.28-.4.07-.81.23-1.22.19-7.73-.55-14.62,2.25-21.42,5.42-8.38,3.9-17.29,6.05-26.3,7.84-3.47.69-6.67,2.2-10.07,3.11-2.67.71-5.33.92-7.93-.19-3.42-1.46-4-3.43-2.04-6.56,1.58-2.48,3.89-4.08,6.61-4.83,8.5-2.39,16.32-6.28,24.21-10.08,8.4-4.03,17.63-5.52,26.72-7.19,15.76-2.89,31.71-4.86,47.17-9.28,6.07-1.74,12.09-3.74,17.61-6.81,9.39-5.23,19.5-7.95,30.01-9.54,3.23-.48,6.43-1.23,9.62-1.98,5.25-1.24,10.01-3.5,14.2-6.98,3.47-2.88,7.03-5.66,11.67-6.48.98-.17,1.47-.94,1.89-1.77,6.21-12.4,15.57-22.16,25.83-31.24,9.38-8.31,19.15-16.19,27.64-25.46,2.82-3.06,5.48-6.25,7.92-10.19-4.32.72-7.35,2.83-10.09,5.43-2.86,2.7-4.98,6.09-7.64,8.98-9.45,10.26-20.99,17.43-33.88,22.48-8.63,3.38-17.68,4.82-26.93,4.59-11.34-.28-21.86-3.74-32.07-8.45-7.88-3.62-15.26-7.93-21.39-14.14-1.84-1.86-3.54-3.88-5.2-5.9-3.32-4.06-6.59-8.16-10.73-11.45-3.66-2.93-5.78-6.83-7.1-11.24-1.57-5.24-3.19-10.48-4.75-15.74-.82-2.8-2.46-4.53-5.52-4.72-.8-.05-1.61-.3-2.38-.54-2.26-.73-2.78-1.79-1.56-3.8,1.29-2.09,1.82-3.95-.12-5.94-.92-.92-.51-1.71.51-2.37,1.78-1.19,3.68-2.25,5.78-2.61,1.56-.26,2.2-1.11,2.63-2.46,5.24-16.42,14.27-30.5,26.56-42.49,13.87-13.54,30.6-21.33,49.74-24.14,12.93-1.9,25.23-.29,36.92,5.81,8.47,4.43,16.26,9.82,23.76,15.68,6.85,5.33,13.64,10.75,20.45,16.12.61.49,1.16,1.16,2.25,1.29-3.73-4.91-8.18-8.85-12.55-12.85-8.17-7.46-16.61-14.61-24.71-22.14-8.35-7.78-16.12-16.1-21.61-26.27-.86-1.59-2.04-2.62-3.64-3.44-5.7-2.89-11.51-5.64-15.34-11.13-.54-.79-1.53-.88-2.38-1.18-8.87-2.99-18.03-4.81-27.02-7.29-9.52-2.59-18.93-5.44-26.67-11.98-1.33-1.13-2.98-.77-4.47-.99-9.74-1.49-19.13-4.37-28.55-7.15-13.12-3.88-26.65-6.07-39.93-9.26-7.7-1.83-15.13-4.26-21.8-8.63-4.84-3.18-10.15-5.26-15.73-6.77-2.93-.78-5.09-2.51-5.75-5.72-.34-1.67,0-2.51,1.79-3.02,5.24-1.49,10.47-1.32,15.82-.63,11.13,1.42,21.39,5.37,31.38,10.21,7.42,3.59,15.14,6.18,23.33,7.33,5.91.83,11.41,2.89,16.69,5.59,5.15,2.65,10.67,3.57,16.38,3.71,5.08.12,10.16.27,15.22.54,6.44.35,12.23,2.87,17.87,5.75,9.86,5.01,19.89,9.66,30.2,13.67,4.64,1.79,9.48,2.6,14.37,3.01,3.27.27,5.43,2.02,7.33,4.37,2.4,2.98,3.81,6.52,5.2,9.99,1.2,2.93,3.21,4.16,6.05,3.87,3.3-.33,5.47,1.06,7.7,3.28,10.71,10.56,19.77,22.53,29.3,34.09,8.67,10.5,17.5,20.83,28.42,29.14,3.26,2.49,6.66,4.75,10.16,6.89,1.36.82,2.01.52,2.66-.78,2.01-3.99,1.99-8.03.36-12.11-1.71-4.31-4.33-8.09-7.05-11.77-4.24-5.7-7.38-11.96-10.12-18.48-3.1-7.39-5.94-14.94-10.82-21.44-.34-.45-.66-1-.72-1.54-1.03-9.58-6.87-16.44-13.1-23.03-1.91-2.02-3.98-3.91-6.03-5.79-8.29-7.62-15.79-15.96-22.45-25.02-8.9-12.11-19.01-23.18-29.11-34.25-9.07-9.91-18.31-19.67-27.96-29.03-2.41-2.33-5.01-4.48-7.34-6.88-3.52-3.61-5.72-7.67-3.2-12.83h4.42Z"/>
  </g>
</svg>