<?xml version="1.0" encoding="UTF-8"?>
<svg id="Layer_2" data-name="Layer 2" xmlns="http://www.w3.org/2000/svg" viewBox="0 0 654.5 519.89">
  <defs>
    <style>
      .cls-1 {
        fill:#808080
      }
    </style>
  </defs>
  <g id="Layer_1-2" data-name="Layer 1">
    <path class="cls-1" d="m649.13,13.55c-6.67-9.61-19.09-11.87-29.95-13.03-21.85-2.42-43.95,3.91-63.54,13.33-13.68,6.59-26.9,14.06-39.96,21.76-21.13,12.49-41.69,25.97-60.12,42.22-27.76,24.48-54.55,51.32-75.92,81.65-4.05,5.67-8.82,10.34-13.25,15.66-6.21,7.35-12.55,14.78-16.41,23.69-.61,1.46-2.49,11.23-3.8,11.49-2.28.43-4.67.53-6.89-.26,0-1.83-1.24-13.45-.64-13.89,6.14-4.81,6.97-11.83.67-17.02-.67-.55-6.81-4.91-7.3-4.34,6.87-8.17,14.33-15.52,20.66-24.05,3.35-4.36,7.51-7.33,11.13-11.3l6.62-7.23c4.24-4.29,7.3-10.03,10.75-15,4-5.54,7.97-11.1,11.53-17.06,1.8-2.98,7.01-9.95,5.47-13.63-8.74-.6-14.32,20.93-17.78,26.74-11.23,19.15-29.85,32.36-42.11,50.74-.7.97-8.86,10.1-8.86,10.1h-4.44s-8.07-9.13-8.72-10.1c-12.24-18.38-30.85-31.59-42.14-50.74-3.49-5.81-9.03-27.34-17.75-26.74-1.51,3.69,3.65,10.65,5.44,13.63,3.51,5.95,7.57,11.52,11.56,17.06,3.44,4.97,6.47,10.71,10.73,15l6.68,7.23c3.55,3.97,7.76,6.94,11.04,11.3,6.47,8.53,13.96,15.89,20.74,24.05-.54-.57-6.74,3.79-7.38,4.34-6.25,5.19-5.44,12.21.72,17.02.58.43-.58,12.06-.58,13.89-2.34.78-4.62.69-6.92.26-1.35-.26-3.19-10.02-3.86-11.49-3.86-8.92-10.21-16.35-16.35-23.69-4.46-5.32-9.21-9.99-13.3-15.66-21.41-30.32-48.04-57.16-75.9-81.65-18.43-16.25-39.05-29.73-60.18-42.22-12.98-7.7-26.2-15.17-39.94-21.76C79.31,4.43,57.24-1.9,35.38.52,24.53,1.68,12.02,3.94,5.44,13.55c-13.19,18.99.29,41.77,12.27,57.44,1.74,2.26,8.78,10.05,8.13,13.06-1.77,8,.97,16.06,5.42,22.69,1.82,2.63,4.11,5.11,5.29,8.04,4.72,10.84,3.16,26.27,17.37,30.45.83.56-.37,9.37-.29,10.91.11,5.25,2.14,9.96,5.93,13.68,4.15,4.24,2.81,7.87,2.43,13.3-.54,6.46,1.08,12.69,4.4,18.29,3.86,6.59,3.3,14.99,6.41,22.03,8.5,18.66,28.51,29.1,48.12,31.75,3.59.46,7.29.68,10.94.81,2.04.12,11.08,1.56,12.41.34-7.56,7.11-15.74,14.31-23.35,21.62-6.79,6.45-14.11,13.13-18.48,21.48-4.07,8.13-4.13,18.04,1.8,25.23,1.6,1.87,3.43,4.39,3.43,4.39.81,1.15-7.05,10.93-7.83,12.67-4.08,8.87.85,12.51,8.26,16.02,9.04,4.39,13.63,8.84,10.06,19.62-2.12,6.38-4.02,14.53-.86,20.9,3.46,6.69,12.2,5.87,17.22,10.55,17.35,15.94-14.91,39.92-24.84,50.38-6.33,6.62-11.99,13.78-17.54,21.09-4.4,5.86-10.25,10.73-13.9,17.13-4.55,8-3.16,18.03,6.12,21.15,27.17,9.31,31.56-32.5,40.82-48.24,4.21-7.04,11.16-12.92,19.09-15.25,10.58-3.16,17.84.85,17.47,12.15-.17,5.17,3.4,13.89,8.66,15.6,8.63,2.9,9.5-9.14,13.57-13.27,6.12-6.14,12.45,4.03,17.16,7.22,7.19,5.04,17.6,3.68,22.66-3.73,6.49-9.3.17-20.46,3.44-30.16,3.65-10.86,19.11-7.09,26.52-13.58,9.28-8.08,11.4-20.09,12.02-31.73.7-13.02.83-24.92,5.33-37.39,3.19-9.14,7.06-18.12,9.63-27.56,3.11-11.15,6.92-22.24,13.09-32.12,4.02-6.52,8.51-12.74,12.37-19.29,3.92-6.48,6.49-13.35,9.84-20.11-1.31,2.57-.23,5.92.06,8.56.56,3.72.75,7.37-.04,11.17-1.42,7.31-2.41,14.95-2.06,22.43.46,8.19,3.65,15.86,4.19,24.04.19,3.88.11,7.97,1.29,11.71,2.76,8.95,12.41,9.59,15.42.42,1.42-3.87,1.27-8.14,1.56-12.13.5-8.18,3.7-15.85,4.09-24.04.39-7.48-.64-15.12-2.08-22.43-.68-3.8-.54-7.45-.12-11.17.46-2.64,1.45-5.99.27-8.56,3.28,6.76,5.87,13.63,9.79,20.11,3.9,6.55,8.29,12.78,12.37,19.29,6.12,9.87,9.95,20.97,13.01,32.12,2.6,9.44,6.43,18.43,9.73,27.56,4.4,12.47,4.59,24.37,5.25,37.39.6,11.64,2.76,23.64,12.01,31.73,7.3,6.49,22.85,2.73,26.5,13.58,3.27,9.7-2.97,20.86,3.44,30.16,5.07,7.42,15.44,8.77,22.74,3.73,4.55-3.19,11.04-13.36,17.08-7.22,4.07,4.13,4.96,16.17,13.57,13.27,5.33-1.71,8.92-10.43,8.76-15.6-.4-11.3,6.82-15.31,17.38-12.15,8.01,2.34,14.94,8.21,19.07,15.25,9.3,15.74,13.65,57.55,40.84,48.24,9.33-3.13,10.7-13.15,6.12-21.15-3.67-6.4-9.5-11.27-13.9-17.13-5.5-7.31-11.17-14.47-17.48-21.09-9.98-10.46-42.19-34.44-24.9-50.38,5.02-4.68,13.82-3.86,17.2-10.55,3.13-6.36,1.26-14.52-.75-20.9-3.6-10.77.94-15.23,10-19.62,7.43-3.51,12.33-7.15,8.26-16.02-.83-1.74-8.63-11.52-7.84-12.66,0,0,1.83-2.53,3.42-4.4,6-7.19,5.98-17.1,1.85-25.23-4.37-8.35-11.8-15.03-18.57-21.48-7.53-7.31-15.77-14.51-23.33-21.62,1.34,1.21,10.43-.22,12.47-.34,3.62-.13,7.3-.35,10.94-.81,19.61-2.65,39.57-13.09,48.04-31.75,3.22-7.04,2.57-15.44,6.47-22.03,3.32-5.59,4.93-11.83,4.42-18.29-.43-5.43-1.8-9.07,2.43-13.3,3.71-3.72,5.74-8.42,5.95-13.68.06-1.54-1.15-10.35-.29-10.91,14.19-4.18,12.61-19.61,17.24-30.45,1.26-2.93,3.51-5.41,5.29-8.04,4.61-6.62,7.21-14.68,5.5-22.69-.62-3.01,6.35-10.8,8.04-13.06,11.94-15.68,25.5-38.45,12.39-57.44h0Z"/>
  </g>
</svg>