<?xml version="1.0" encoding="UTF-8"?>
<svg id="Layer_2" data-name="Layer 2" xmlns="http://www.w3.org/2000/svg" viewBox="0 0 654.5 554.47">
  <defs>
    <style>
      .cls-1 {
        fill:#808080
      }
    </style>
  </defs>
  <g id="Layer_1-2" data-name="Layer 1">
    <path class="cls-1" d="m1.13,158.78c1.87-19.22,6.57-38.54,15.16-55.89,3.56-7.14,7.7-13.9,12.44-20.32,4.27-5.77,10.28-11.77,11.31-19.19.66-4.11,5.27-12.23,5.8-21.04.87-12.1-12.63-30.12.9-39.83,9.78-7.01,22.99,2.36,31.34,7.23,31.5,18.36,70.04,15.28,101.91,32.84,22.59,12.44,40.07,33.03,56.86,52.14,18.14,20.76,35.72,45.37,43.02,72.39,4.85,18.11,4.43,36.34,8.36,54.44.81,4.23,4.27,10.9,9.59,7.45,3.82-2.44,2.58-9.69,2.72-13.44.55-7.12-1.66-19.92,9.07-17.45.34-1.52.34-2.98.34-4.44l-4.11-10.53-4.69-12.26-5.8-15.2-5.88-18.12c-5.06-26.19-14.13-50.2-30.92-71.24-2.06-2.44-12.34-6.26-7.17-9.81,6.01-4.15,18.24,9.36,20.64,13.56,12.71,21.72,16.82,46.4,23.43,70.28,3.46,12.33,7.04,24.69,12.15,36.37.08.13,5.75,13.37,5.83,13.45-2.48-5.63,5.06-10.04,9.38-11.44,5.8-1.91,10.18-.88,15,2.99,2.69,2.25,4.9,4.71,3.24,8.45,0,0,5.85-13.31,5.96-13.45,5.01-11.68,8.65-24.04,12.02-36.37,6.62-23.88,10.73-48.56,23.51-70.28,2.32-4.2,14.58-17.71,20.61-13.56,5.14,3.54-5.06,7.37-7.2,9.81-16.79,21.04-25.86,45.05-30.95,71.24l-5.8,18.12-5.9,15.2-4.67,12.26-4.01,10.53c0,1.46,0,2.93.13,4.44,10.94-2.46,8.65,10.33,9.12,17.45.26,3.75-1.03,11.01,2.74,13.44,5.38,3.45,8.8-3.22,9.65-7.45,3.93-18.1,3.48-36.33,8.35-54.44,7.36-27.02,24.86-51.63,43.05-72.39,16.77-19.11,34.24-39.7,56.81-52.14,31.87-17.56,70.44-14.47,101.91-32.84,8.52-4.88,21.51-14.25,31.37-7.23,13.55,9.71.05,27.73.9,39.83.55,8.8,5.22,16.92,5.74,21.04,1.14,7.42,7.15,13.42,11.39,19.19,4.7,6.42,8.88,13.18,12.47,20.32,8.54,17.35,13.18,36.67,15.06,55.89,1.39,14.16,2.24,28.79-1.61,42.65-9.3,33.16-46.58,50.76-71.99,70.07-4.35,3.38-18.38,9.04-15.63,16.6,2,5.48,15.11,7.16,19.88,8.57,19.27,5.57,15.87,32.13,18.4,47.23,2.05,12.02,9.36,20.01,6.85,33-2.53,13.69-12.6,32.91-24.3,41.08-12.26,8.53-28.15,8.82-40.97,16.16-12.71,7.32-19.9,20.72-31.19,29.74-12.1,9.71-17.63,30.14-13.89,45.3,2.63,10.66,28.65,33.23,11.81,43.63-7.8,4.88-14.03-1.83-17.19-8.54-7.07-15.11-9.36-33.31-30.05-32.36-9.18.45-19.01,1.36-25.78-6.12-7.88-8.67-11.63-21.63-18.98-31.08-14.45-18.59-33.29-32.95-48.48-50.96-8.02-9.56-10.65-21.99-14.26-33.57-1.58-5.42-3.37-10.69-5.98-15.67-1.19-2.36-10.55-12.65-10.44-14.05-.98,13.66,1.9,27.76,2,41.48.16,10.61-1.53,22.96-5.04,33-6.77,19.36-18.98,3.63-21.8-9.49-1.63-7.7-1.87-15.84-1.74-23.71.21-13.62,3.06-27.69,2.03-41.28.13,1.4-9.36,11.69-10.52,14.05-2.45,4.98-4.27,10.26-5.98,15.67-3.45,11.59-6.09,24.02-14.18,33.57-15.1,18-34.01,32.37-48.48,50.96-7.33,9.45-11.04,22.4-19.03,31.08-6.75,7.48-16.56,6.57-25.75,6.12-20.59-.95-22.93,17.25-30.05,32.36-3.09,6.71-9.41,13.42-17.19,8.54-16.74-10.4,9.23-32.96,11.86-43.63,3.69-15.16-1.77-35.59-13.92-45.3-11.2-9.02-18.5-22.42-31.13-29.74-12.92-7.34-28.71-7.63-40.97-16.16-11.78-8.17-21.83-27.39-24.41-41.08-2.48-13,4.88-20.98,6.93-33,2.56-15.09-.9-41.65,18.45-47.23,4.67-1.41,17.77-3.09,19.8-8.57,2.82-7.55-11.26-13.22-15.66-16.6-25.36-19.31-62.66-36.91-71.97-70.07-3.85-13.87-3.01-28.49-1.66-42.65h0Z"/>
  </g>
</svg>