<?xml version="1.0" encoding="UTF-8"?>
<svg id="Layer_2" data-name="Layer 2" xmlns="http://www.w3.org/2000/svg" viewBox="0 0 654.5 605.11">
  <defs>
    <style>
      .cls-1 {
        fill:#808080
      }
    </style>
  </defs>
  <g id="Layer_1-2" data-name="Layer 1">
    <path class="cls-1" d="m652.93,19.97c-2.71-7.77-11.78-12.32-18.9-15.25-11.53-4.9-24.05-5.27-36.45-4.27-8.22.63-16.43,1.5-24.59,2.87-12.67,2.23-25.57,4.36-37.78,8.62-8.76,3.11-16.86,7.66-25.14,12.01-9.26,4.81-18.5,9.51-27.5,14.78-24.47,14.3-46.04,32.81-66.23,52.55-4.88,4.8-9.81,9.65-14.4,14.74-16.03,17.82-28.86,38.25-39.36,59.82-3.19,6.67-7.72,12.74-9.6,19.96-2.89,10.55,2.83,23.37-5.57,32.23-4.79,5.05-5.22-2-5.38-5.96-.28-6.55,4.59-13.52,3.42-19.72-.78-4.08-3.61-7.01-7.45-8.88,3.88-12.11,7.26-24.27,10.15-36.55,3.02-13.15,5.73-26.39,8.57-39.66,1.78-8.36,4.86-16.58,7.19-24.9,1.54-5.97,4.83-10.78,7.47-16.22,1.07-2.2,3.97-13.81-2.31-11.51-2.09.67-2.52,3.49-3.08,5.26-1.78,5.97-2.59,12.09-4.21,18.09-3.07,11.21-7.26,21.93-9.6,33.39-2.4,11.76-3.85,23.62-6.47,35.36-2.79,12.04-6.67,23.8-10.24,35.62-5.11-1.76-11.3-1.77-16.47-.03-3.6-11.8-7.38-23.56-10.17-35.6-2.69-11.73-4-23.6-6.52-35.36-2.31-11.46-6.44-22.19-9.54-33.39-1.64-6-2.46-12.12-4.28-18.09-.62-1.77-.95-4.59-3.05-5.26-6.27-2.3-3.38,9.31-2.24,11.51,2.62,5.44,5.88,10.24,7.41,16.22,2.35,8.32,5.42,16.53,7.18,24.9,2.82,13.27,5.57,26.51,8.64,39.66,2.83,12.28,6.27,24.44,9.96,36.49-3.65,1.87-6.48,4.85-7.29,8.94-1.29,6.2,3.66,13.17,3.36,19.72-.12,3.96-.55,11.01-5.35,5.96-8.34-8.86-2.71-21.68-5.57-32.23-1.88-7.22-6.4-13.29-9.6-19.96-10.46-21.57-23.35-42-39.35-59.82-4.62-5.09-9.45-9.93-14.4-14.74-20.15-19.75-41.71-38.25-66.21-52.55-8.99-5.27-18.28-9.97-27.38-14.78-8.35-4.35-16.44-8.9-25.3-12.01-12.12-4.25-25.02-6.39-37.76-8.62-8.09-1.37-16.4-2.24-24.62-2.87C44.61-.56,32.15-.18,20.49,4.72,13.44,7.65,4.3,12.2,1.56,19.97c-4.17,11.8.81,24.31,5.67,35.11,6.74,14.9,14.59,28.88,19.85,44.52,3.35,9.89,7.41,19.81,10.62,29.89,4.31,13.3,3.44,27.7,7.5,41.1,4.5,14.8,8.12,29.83,13.26,44.43,4.12,11.5,9.29,23.81,21.2,29.09,14.86,6.55,32.48,3.33,48.17,2.5,0,0-7.96,9.25-16.27,16.31-13.64,11.56-21.66,27.72-28.83,43.72-3.73,8.36-8.81,16.9-8.07,26.41.76,9.95,11.05,17.25,10.47,27.35-.47,9.84-22.9,34-1.97,36.31,9.29,1.02,16.86,6.58,19.6,15.54,2.33,7.88,0,15.69-1.5,23.44-1.02,4.98-2.99,11.84,1.29,15.89,2.76,2.58,8.16,2.69,11.69,3.1,3.88.51,6.95,1.69,10.04,4.27,8.98,7.45,12.21,19.5,11.13,30.7-2.27,23.33-11.13,44.23-21.07,65.06-1.79,3.65-3.05,7.46-5.05,11.02-5.1,9.22-15.57,31.1-1.2,37.73,17.84,8.23,21.05-16.25,21.41-27.9.28-9.02,1.97-18.05,4.5-26.72,3.07-10.66,7.54-20.44,13.62-29.69,1.18-1.77,2.87-5.7,4.47-6.95,4-2.84,11.63-7.84,16.67-4.71,3.73,2.31,2.99,8.18,5.83,11.34,6.83,7.66,13.48-5.84,20.03-6.67,7.45-.91,12.19,8.89,18.43,11.68,9.02,4.07,20.31,1.46,24.83-7.81,2.93-6.08.28-14.4.43-20.82.12-4.23,2.16-11.36,7.38-11.41,4.99,0,9.57,8.41,14.37,2.55,2.74-3.38,3.48-9.24,3.48-13.48,0-14.23.31-27.77,3.72-41.69,3.35-14.01,8.37-27.62,13.23-41.22,7.54-20.86,12.83-41.84,16.19-63.8,1.57-10.6,4.52-20.98,6.68-31.42.48-2.66,3.69-18.66,8.86-13.47,3.19,3.19,1.93,15.31,1.84,19.4-.06,2.51-.21,4.98-.31,7.46-.43,12.13-1.05,24.24-.58,36.27.27,7.54-.83,15.24.67,22.6.76,3.57,2.09,7.29,4.5,10,6.67,7.43,17.14,3.36,20.71-4.54,3.93-8.43,1.96-18.98,2.36-28.04.47-12.05-.21-24.16-.58-36.29-.07-2.48-.31-4.95-.31-7.46-.04-4.08-1.48-16.2,1.66-19.4,5.22-5.18,8.48,10.82,8.98,13.47,2.22,10.44,5.07,20.82,6.64,31.42,3.38,21.96,8.74,42.94,16.19,63.8,4.86,13.6,9.9,27.21,13.29,41.22,3.26,13.92,3.64,27.46,3.69,41.69,0,4.24.78,10.09,3.52,13.48,4.86,5.86,9.29-2.55,14.31-2.55,5.31.05,7.29,7.18,7.38,11.41.21,6.42-2.37,14.74.46,20.82,4.4,9.27,15.85,11.88,24.81,7.81,6.24-2.79,11.02-12.59,18.49-11.68,6.58.83,13.26,14.34,19.96,6.67,2.83-3.17,2.16-9.03,5.73-11.34,5.1-3.13,12.8,1.87,16.74,4.71,1.66,1.25,3.41,5.18,4.62,6.95,5.97,9.25,10.52,19.03,13.57,29.69,2.52,8.67,4.09,17.7,4.52,26.72.4,11.65,3.57,36.13,21.31,27.9,14.44-6.63,3.92-28.51-1.19-37.73-1.88-3.56-3.19-7.37-4.98-11.02-10.09-20.83-18.9-41.73-21.11-65.06-1.05-11.2,2.15-23.25,11.07-30.7,3.09-2.58,6.21-3.76,10.09-4.27,3.52-.42,8.93-.52,11.66-3.1,4.31-4.06,2.37-10.91,1.42-15.89-1.57-7.75-4.04-15.56-1.57-23.44,2.77-8.96,10.34-14.52,19.57-15.54,20.91-2.31-1.54-26.47-2-36.31-.5-10.11,9.74-17.41,10.43-27.35.76-9.52-4.26-18.05-8-26.41-7.09-16-15.23-32.16-28.87-43.72-8.21-7.06-16.22-16.31-16.22-16.31,15.67.83,33.36,4.05,48.13-2.5,11.91-5.27,17.17-17.58,21.29-29.09,5.14-14.6,8.71-29.62,13.26-44.43,4.03-13.4,3.11-27.8,7.38-41.1,3.24-10.08,7.33-20,10.71-29.89,5.19-15.64,13.05-29.62,19.76-44.52,4.91-10.81,9.88-23.32,5.69-35.11h0Z"/>
  </g>
</svg>