<?xml version="1.0" encoding="UTF-8"?>
<svg id="Layer_2" data-name="Layer 2" xmlns="http://www.w3.org/2000/svg" viewBox="0 0 377.58 654.5">
  <defs>
    <style>
      .cls-1 {
        fill:#808080
      }
    </style>
  </defs>
  <g id="Layer_1-2" data-name="Layer 1">
    <path class="cls-1" d="m376.44,370.3c-6.05-48.25-9.14-96.83-9.23-145.46-.49-38.84-9.85-77.05-27.36-111.71-2.81-5.93-5.43-11.97-7.87-18.13C307.59,32.99,255.72-1.44,186.42.05c-20.75,3.76-44.23.68-66.12,16.07-39.1,27.36-64.18,65.2-88,104.53-7.47,11.86-13.22,24.72-17.1,38.19C.7,214.61-3.47,272.56,2.89,329.83c3.08,30.89,4.79,61.9,5.24,92.79.68,38.07,14.59,72.04,27.24,106.58,6.3,11.52,13.3,22.64,20.97,33.29,25.77,52.88,78.07,87.75,136.79,91.19,28.15,3.37,56.55-3.73,79.8-19.95,27.02-22.76,49.36-50.56,65.77-81.85,17.65-29.99,27.67-63.84,29.18-98.6.53-15.56,2.83-31.01,6.84-46.05,3.09-12.07,3.67-24.64,1.71-36.93Zm-100.2,46.4c1.77,16.23-2.01,32.58-10.72,46.4-5.45,8.23-8.67,17.74-9.35,27.59-1.73,13.08-5.58,25.78-11.4,37.62-11.4,22.8-21.2,27.81-45.6,19.61-10.61-4.55-22.76-3.79-32.72,2.05-9.47,6.88-22.73,4.78-29.62-4.69-.75-1.03-1.41-2.13-1.96-3.29-6.9-10.23-11.27-21.95-12.77-34.2-2.9-19.61-8.3-38.76-16.07-57-5.25-13.04-7.21-27.17-5.7-41.15.12-10.19,6.51-19.26,16.07-22.8,20.09-10.22,43.57-11.46,64.63-3.42,11.24,5.12,24.23,4.7,35.11-1.14,6.68-3.14,13.79-5.29,21.09-6.38,25.08-3.88,40.7,11.4,38.99,32.26-.21,2.85-.21,5.7,0,8.55Zm1.94-42.52c-21.25-11.39-46.67-11.94-68.4-1.48-6.69,3.32-14.48,3.65-21.43.91-22.47-8.75-47.48-8.34-69.65,1.14-16.19,6.04-18.13,4.1-18.35-13.68v-7.41c1.94-34.2,6.61-40.35,40.35-48.56,30.03-9.06,61.76-11.01,92.68-5.7,7.69,3.12,16.42,2.27,23.37-2.28-3.08-8.44-10.37-7.07-16.53-8.32-35.87-5.57-72.53-3.2-107.38,6.95-27.93,6.84-29.52,5.7-28.84-22.8.68-31.8,7.52-40.24,39.9-45.6,23.69-2.72,47.57-3.33,71.36-1.82,12.13,2.05,24.58,1.27,36.36-2.28-2.05-10.26-9.92-8.32-15.85-8.44-36.14-.91-72.27-4.22-108.07,5.13-15.16,3.99-19.72,0-17.67-16.07,2.85-22.8,11.4-43.2,42.63-45.6,14.71-1.25,29.64-1.03,44.34-1.71,7.98,0,16.53,2.62,23.94-2.74-.8-8.44-7.41-8.09-12.77-8.32-19.01-1.35-38.11-.74-57,1.82-14.93,2.28-18.35-2.17-14.25-15.85,5.93-23.47,27.7-39.41,51.87-37.96,25.65-.08,47.79,17.96,52.89,43.09,1.75,13.01,6.69,25.38,14.36,36.02,2.61,3.35,4.44,7.25,5.36,11.4,4.67,34.77,10.37,69.54,12.43,104.42-.4,12.15.52,24.3,2.74,36.25,4.72,16.09,5.27,33.11,1.6,49.47Zm-113.65,78.66c14.02,2.74,20.86-7.98,31.23-6.27,10.37,1.71,13.91,14.25,27.02,9.69-7.75-14.02-20.63-21.89-27.93-39.67-6.04,17.9-21.54,21.2-30.32,36.25Z"/>
  </g>
</svg>