<?xml version="1.0" encoding="UTF-8"?>
<svg id="Layer_2" data-name="Layer 2" xmlns="http://www.w3.org/2000/svg" viewBox="0 0 654.5 284.41">
  <defs>
    <style>
      .cls-1 {
        fill:#808080
      }
    </style>
  </defs>
  <g id="Layer_1-2" data-name="Layer 1">
    <path class="cls-1" d="m621.09,84.62c-5.49,1.93-11.08,3.27-16.37,5.59-7.16,3.67-15.93,1.14-20.03-5.78-7.32-9.63-15.51-17.91-23.31-26.97-1.54-1.83-4.24-3.37-3.18-7.13,15.74-3.84,32.02-5.01,48.15-3.47,16.21,1.78,32.29,4.58,48.15,8.38-.56-1.06-1.48-1.88-2.6-2.31-27.97-8.95-57.59-11.48-86.68-7.42-7.88,1.54-15.99-1.08-21.48-6.93-11.46-11.65-23.6-22.44-35.54-33.42-7.51-6.93-9.63-6.84-17.91,0l-6.07,5.01c-22.54,19.94-45.26,39.77-67.41,60-3.59,4.22-9.46,5.73-14.64,3.76-5.51-1.56-11.29-1.92-16.95-1.06-15.58,1.99-31.29,2.92-47,2.79-18.88-.67-19.26-.67-22.54-19.94-1.16-6.84-2.6-13.48-4.24-20.13-.34-2.36-2.25-4.19-4.62-4.43-2.6,0-3.66,2.41-4.43,4.62-.77,2.22-1.83,6.16-2.79,9.15-2.41,7.42-2.5,7.42-8.67,4.33-2.22-1.06-4.43-3.27-6.93.87,3.27,2.79,6.65,5.59,9.63,8.57,2.99,2.99,5.59,2.41,7.22-2.12,0-1.64,0-4.14,3.18-4.14.58,3.18,1.35,6.36,1.73,9.63,1.73,11.46,1.73,11.27-8.67,11.75-14.98-.34-29.92-1.78-44.69-4.33-5.35-.3-9.93-3.92-11.46-9.05-5.3-12.91-10.98-25.62-16.56-38.52-4.82-10.98-10.88-12.81-19.26-5.49-3.84,3.72-7.44,7.67-10.79,11.85-1.93,2.22-2.79,5.78-6.07,6.36-4.82-2.12-3.76-11.94-11.65-11.17,2.5,5.39,4.72,10.3,7.03,15.12,2.99,6.36,4.53,6.74,8.19,1.25,4.07-6.5,9.03-12.41,14.73-17.53,5.01-4.24,6.65-3.66,10.3,2.22,6.5,11.35,12.07,23.2,16.66,35.44.96,2.41,3.27,4.72.77,8.28-10.73-2.26-21.82-2.26-32.55,0-2.11.34-4.25.34-6.36,0-31.97-6.07-63.18-15.02-88.31-39.97-5.9-6.83-16.13-7.81-23.21-2.22-1.54.87-3.56,1.64-3.18,4.24.39,2.6,2.6,2.22,4.24,1.83,3.5-1.16,7.34-.55,10.3,1.64,4.91,3.56,1.44,7.8,1.16,11.94-.29,2.01.61,4,2.31,5.1,1.83,1.06,3.37,0,4.62-1.54,2.64-4.12,8.12-5.33,12.24-2.69.48.31.93.66,1.34,1.05,12.62,8.69,25.77,16.57,39.39,23.6h-12.23c-5.1-.39-10.17,1.01-14.35,3.95-8.98,5.95-17.62,12.38-25.91,19.26-17.72,15.79-35.34,31.78-51.72,49.31-8.09,8.53-18.94,13.92-30.63,15.22-5.01.77-9.63,1.54-14.83,2.5-1.73.46-3.41,1.1-5.01,1.93-1.46.77-2.05,2.55-1.35,4.04.58,1.25,1.73,1.25,2.79.77,10.55-3.54,21.33-6.38,32.26-8.47,8.24-2.11,15.58-6.84,20.9-13.48,6.36-7.54,13.28-14.6,20.71-21.09,15.7-15.63,32.64-29.97,50.66-42.86,3.08-1.93,5.78-4.53,9.63-4.04,21.57,2.7,43.24,4.33,64.81,7.7,18.11,2.89,36.4,9.63,54.8,1.35,2.12-.48,4.33-.48,6.45,0l31.78,2.79c-1.16,1.64-2.7,1.25-4.04,1.25-18.57,1.22-36.98,4.19-54.99,8.86-6.58,1.27-12.56,4.65-17.05,9.63-13.1,15.6-26.48,30.82-39.29,46.71-22.34,27.74-14.64,24.37-45.46,30.72-2.5.58-5.97.67-5.68,6.65,7.7-1.93,15.22-4.04,22.73-5.68,10.16-2.48,18.9-8.94,24.27-17.91,7.16-11.51,15.95-21.92,26.1-30.91,7.74-5.66,14.29-12.79,19.26-20.99,2.12-3.95,5.01-7.51,9.63-6.93,6.09.08,12.14-.86,17.91-2.79,25.52-5.39,51.72-6.45,76.47-16.66,1.73-.45,3.52-.61,5.3-.48,17.14-1.44,34.19-2.7,51.23-4.24,4.42-1.23,9.09.82,11.17,4.91.7,1.34,1.81,2.42,3.18,3.08,12.62,5.1,18.78,17.34,24.37,29.47,16.28,35.44,31.68,71.27,45.36,107.96,6.36,16.61,13.99,32.71,22.82,48.15.96,1.73,1.73,4.33,3.76,3.27,2.02-1.06,1.54-4.14.67-6.36-.65-1.43-1.46-2.79-2.41-4.04-5.34-7.33-9.56-15.41-12.52-23.98-15.31-37.27-30.53-74.54-45.94-111.72-4.43-10.69-9.63-21.09-14.54-31.3-3.66-7.32-3.76-6.84,2.99-11.46,8.59-4.61,18.18-7.06,27.93-7.13,31.49-3.95,62.7-3.85,92.45,11.08,2.71,2.19,6.4,2.74,9.63,1.44-37.08-22.25-75.6-18.39-115.57-15.22.58-.48,1.25-.77,1.93-1.25,19.26-7.13,43.53-16.37,45.65-17.05,17.24-5.1,34.77-8.96,52.1-13.39,10-3.02,20.82.61,26.97,9.05,8.43,8.98,16.31,18.47,23.6,28.41,2.83,5.45,9.43,7.73,15.02,5.2,11.75-4.14,23.69-7.51,37.66-11.94-5.4-1.87-11.28-1.84-16.66.1Zm-114.7-27.93c-22.54,5.24-44.63,12.26-66.07,20.99-3.27.96-6.45,2.41-9.63,3.66-5.49,2.36-11.88.55-15.31-4.33l17.43-15.41,59.04-52.68c3.66-3.27,7.22-5.59,11.46-1.64l42.66,40.26c-14.93,3.27-27.35,5.87-39.58,9.15Z"/>
  </g>
</svg>