<?xml version="1.0" encoding="UTF-8"?>
<svg id="Layer_2" data-name="Layer 2" xmlns="http://www.w3.org/2000/svg" viewBox="0 0 489.84 654.5">
  <defs>
    <style>
      .cls-1 {
        fill:#808080
      }
    </style>
  </defs>
  <g id="Layer_1-2" data-name="Layer 1">
    <path class="cls-1" d="m.64,9.89c1.75,1.51,4.24-1.6,5.77-2.32,0,0,3.45-1.52,5.05-1.52,16.76-.04,31.64,8.76,45.69,16.9,14.39,8.14,24.89,18.94,36.34,30.57,6.47,6.78,13.06,13.74,21.31,18.19,7.72,4.04,16.46,5.44,24.97,6.85,1.51.28,4.61,29.87,4.98,32.77,1.73,11.56,4.17,23.04,6.76,34.39,2.11,9.2,2.3,18.52,6.87,26.91,2.88,5.55,6.76,10.6,8.91,16.46,1.89,5.53,1.6,11.56,3.78,17.03,2.32,5.82,6.3,10.8,9.41,16.22,7.15,12.09,15.96,23.2,26.84,32.11,6.83,5.58,18.9,10.09,18.39,20.74-1.07,25.53-32.19-6.82-39.31-12.62-7.5-6.17-16.24-10.33-24.87-14.37-10.95-5.22-18.96-10.27-27.47-18.79-8.51-8.58-16.88-17.05-25.68-25.3-5.37-5.02-11.81-8.8-16.97-13.96-10.88-10.8-16.59-25.83-24.51-38.69-5.11-8.12-11.55-15.82-14.55-25.02-1.1-3.38-7.51-20.59-11.83-9.66-3.45,8.84,6.83,18,11.26,24.41,9.35,13.52,16.9,27.87,26.9,40.9,5.69,7.33,9.41,15.83,15.69,22.92,9.33,10.64,19.53,20.39,30.11,29.78,7.7,6.8,14.93,14.04,22.43,21.04,7.95,7.33,18.41,10.97,28.18,15.41,10.6,4.79,20.67,10.86,30.15,17.54,7.55,5.25,12.9,9.66,14.92,18.89,1.51,6.74,1.75,14.57-2.35,20.52-2.85,4.19-7.13,6.85-10.97,9.92-3.99,3.09-5.4,6.78-8.38,10.78-4.32,6.1-15.56,4-21.95,6.3-8.74,3.05-16.02,9-23.37,14.55-25.76,19-42.73,47.93-58.77,74.95-3.82,6.43-7.42,12.88-11.11,19.29-4.23,7.55-8.62,14.83-12.86,22.29-1.95,3.56-4.85,7.07-5.82,11.15-.86,3.6.57,6.85.13,10.45-2.74,23.02-11.24,45.14-14.86,68.1-2.02,12.38-5.64,24.42-9.79,36.14-2.48,7.04-4.35,14.38-8.69,20.45-3.77,5.35-10.16,9.24-11.78,15.85-1.54,5.7,4.9,7.94,8.54,4.34,2.57-2.7,3.23-6.65,5-9.94,1.73-3.29,4.5-5.9,6.38-9.06,16.9-28.55,15.95-62.7,23.7-94.04,1.51-6.32,3.6-12.51,5.02-18.78.83-4.17,1.18-8.65,3.66-12.18,2.28-3.36,5.44-5.81,7.49-9.35,10.97-17.89,19.03-37.44,29.39-55.63,2.7-4.63,5.15-9.48,7.5-14.27,2.7-5.47,4.04-12.53,10.29-15.25,10.11-4.48,16.59-13.61,23.5-21.83,5.66-6.85,12.6-12.97,20.59-17.09,7.27-3.84,15.3-5.64,23.15-7.75,5.16-1.34,14.55-2.66,17.29-7.92-13.36,25.41-19.51,56.44-18.52,85.02.74,20.15,8.16,41.87,24.21,54.97,15.54,12.71,40.84,12.71,56.38,0,16.13-13.1,23.51-34.81,24.16-54.97,1.07-28.58-5.13-59.61-18.57-85.02,2.85,5.25,12.2,6.58,17.36,7.92,7.92,2.11,15.97,3.91,23.22,7.75,7.94,4.11,14.84,10.23,20.58,17.09,6.87,8.21,13.41,17.34,23.42,21.83,6.23,2.72,7.62,9.77,10.3,15.25,2.37,4.8,4.87,9.64,7.5,14.27,10.49,18.19,18.44,37.73,29.36,55.63,2.11,3.55,5.33,5.99,7.59,9.35,2.44,3.53,2.72,8.01,3.58,12.18,1.47,6.27,3.51,12.46,5.16,18.78,7.7,31.34,6.67,65.49,23.64,94.04,1.86,3.16,4.48,5.77,6.28,9.06,1.8,3.29,2.37,7.24,5.13,9.94,3.64,3.6,9.97,1.36,8.52-4.34-1.71-6.61-7.99-10.51-11.85-15.85-4.34-6.06-6.23-13.41-8.65-20.45-4.3-11.72-7.86-23.75-9.75-36.14-3.71-22.96-12.16-45.08-14.97-68.1-.37-3.6,1.08-6.85.27-10.45-1.05-4.08-3.89-7.59-5.91-11.15-4.28-7.46-8.69-14.73-12.86-22.29-3.65-6.41-7.33-12.86-11.13-19.29-15.95-27.02-33.01-55.96-58.69-74.95-7.4-5.55-14.7-11.5-23.5-14.55-6.39-2.3-17.62-.2-21.95-6.3-2.9-4-4.26-7.7-8.32-10.78-3.86-3.07-8.07-5.73-10.88-9.92-4.1-5.95-3.99-13.78-2.46-20.52,1.93-9.22,7.39-13.63,14.92-18.89,9.53-6.69,19.55-12.75,30.17-17.54,9.7-4.44,20.28-8.08,28.11-15.41,7.62-7,14.79-14.24,22.51-21.04,10.6-9.39,20.72-19.14,30.11-29.78,6.28-7.09,9.99-15.6,15.67-22.92,9.99-13.03,17.67-27.37,26.91-40.9,4.33-6.41,14.71-15.58,11.24-24.41-4.33-10.93-10.76,6.28-11.77,9.66-3.07,9.21-9.46,16.9-14.61,25.02-7.99,12.86-13.65,27.89-24.45,38.69-5.22,5.16-11.65,8.95-16.99,13.96-8.91,8.25-17.29,16.72-25.74,25.3-8.51,8.52-16.59,13.58-27.37,18.79-8.65,4.04-17.45,8.19-24.86,14.37-7.16,5.8-38.32,38.16-39.42,12.62-.46-10.66,11.63-15.16,18.41-20.74,10.86-8.91,19.91-20.02,26.82-32.11,3.2-5.42,7.11-10.4,9.39-16.22,2.32-5.47,1.89-11.5,3.88-17.03,2.15-5.86,5.97-10.91,8.85-16.46,4.5-8.39,4.83-17.71,6.85-26.91,2.75-11.35,4.96-22.84,6.78-34.39.35-2.9,3.45-32.5,5.03-32.77,8.5-1.41,17.09-2.81,24.84-6.85,8.34-4.44,14.88-11.41,21.44-18.19,11.41-11.63,22.01-22.43,36.24-30.57,14.22-8.14,28.99-16.94,45.78-16.9,1.6,0,5.02,1.52,5.02,1.52,1.43.72,4,3.82,5.79,2.32,1.38-1.21.15-3.99-.86-5.18-1.73-2.19-5.31-3.55-7.92-4.14-5.09-1.3-10.27-.2-15.12,1.49-9,3.16-18.06,6.73-26.69,11.1-7.07,3.67-13.19,8.73-19.77,13.25-8.87,5.97-17.76,12.42-24.95,20.34-4.72,5.07-10.27,14.48-17.8,14.86-1.41.04-2.3-.7-4.37-.39-6.17,1.07-13.69,4.46-19.27,7.68-.39.13-.68.27-.97,0,.59-2.5,2.28-4.43,3.14-6.69,1.73-4.61,3.21-10.4,3.6-15.3.24-3.64-2.57-12.84-7.16-6.5-1.87,2.59-2.19,7.11-2.68,10.16-.92,4.81-1.36,16.61-7.24,18.65-14.25,4.94-29.19,8.69-43.45,13.87-5.94,2.11-15.95,8.67-22.03,4.34-3.9-2.68-4.08-6.4-9.3-7.37-13.85-2.66-29.12-2.66-42.95,0-5.14.97-5.4,4.69-9.28,7.37-6.14,4.33-16.11-2.23-22.01-4.34-14.26-5.18-29.01-8.93-43.5-13.87-5.86-2.04-6.24-13.83-7.13-18.65-.55-3.05-.88-7.57-2.74-10.16-4.59-6.34-7.49,2.87-7.15,6.5.5,4.91,1.87,10.69,3.62,15.3.81,2.26,2.57,4.19,3.01,6.69-.2.27-.44.13-.85,0-5.56-3.22-13.02-6.61-19.44-7.68-1.91-.31-2.81.42-4.23.39-7.55-.39-13.17-9.79-17.82-14.86-7.2-7.92-16.02-14.36-24.93-20.34-6.63-4.52-12.71-9.57-19.77-13.25-8.6-4.37-17.69-7.94-26.73-11.1C19.68.37,14.5-.73,9.44.57,6.78,1.16,3.2,2.52,1.32,4.71c-.86,1.19-2.1,3.97-.68,5.18h0Zm262.41,171.95c.44-2.28,9.79-1.67,11.5-1.73,29.49-2.54,26.56-41.48,20.96-61.62-2.17-7.72-6.76-15.08-6.7-23.26,0-2.65,24.42-9.17,27.43-9.92,8.03-2.19,16.3-3.29,24.51-4.43-.61.09-2.04,20.24-2.19,21.48-1.47,10.4-3.12,20.74-5.77,30.83-1.89,7.16-4.67,14.11-6.78,21.24-3.34,11.19-2.53,21.12-11.67,29.56-6.67,6.16-8.76,16.92-13.06,24.77-3.58,6.59-7.62,12.88-11.24,19.33-5.82,10.16-11.96,16.65-20.96,23.79,5.38-10.93,7.4-22.61,6.65-34.68-.48-6.41-1.3-12.82-4.46-18.54-3.16-5.6-9.76-9.61-8.21-16.81h0Zm-114.01-100.95c8.3,1.14,16.57,2.24,24.71,4.43,2.92.75,27.24,7.27,27.35,9.92,0,8.17-4.59,15.54-6.8,23.26-5.53,20.13-8.63,59.08,20.98,61.62,1.6.05,11.08-.55,11.57,1.73,1.43,7.2-5.14,11.21-8.29,16.81-3.16,5.71-4,12.13-4.43,18.54-.74,12.07,1.18,23.75,6.61,34.68-8.96-7.15-15.1-13.63-20.98-23.79-3.66-6.45-7.64-12.73-11.24-19.33-4.33-7.84-6.24-18.61-13.01-24.77-9.18-8.43-8.34-18.37-11.7-29.56-2.19-7.13-4.9-14.07-6.83-21.24-2.61-10.09-4.34-20.43-5.55-30.83-.16-1.23-1.78-21.38-2.41-21.48h0Z"/>
  </g>
</svg>