<?xml version="1.0" encoding="UTF-8"?>
<svg id="Layer_2" data-name="Layer 2" xmlns="http://www.w3.org/2000/svg" viewBox="0 0 654.5 287.51">
  <defs>
    <style>
      .cls-1 {
        fill:#808080
      }
    </style>
  </defs>
  <g id="Layer_1-2" data-name="Layer 1">
    <path class="cls-1" d="m643.52,238.25c-4.76-1.96-10.74-4.92-10.74-4.92,0,0-.99-2.12-3.82-3.01-2.79-.87-11.62-3.82-11.62-3.82,0,0-1.53-2.27-5.56-4.15-3.7-1.7-12.88-5.07-12.88-5.07,0,0-1.06-2.79-5.43-4.46-2.08-.79-8.72-3.35-13.77-5.25.18-4.38-1.55-9.66-6.66-14.76-6.99-6.96-12.47-8.77-12.47-8.77,0,0,.11-.46.14-1.22,4.59-.73,9.43-.78,10.57-2.27,3.18,1.39,9.92,1.05,9.92,1.05,0,0,6.7,3.2,10.4,3.11,3.23.54,9.22,5.07,9.54,4.21.32-.87-5.37-5.64-9.08-6.97-1.88-1.68-6.82-3.21-10.17-4.09-2.05-1.33-8.81-2.25-11.64-1.86-3.6-.36-8.25.55-11.34,1.33-.62-1.01-1.43-2.09-2.56-3.21-5.91-5.94-13.8-8.08-13.8-8.08,0,0,.39-1.61-.73-3.94,3.28-2.41,8.14-4.61,8.44-6.71,3.49-.25,9.25-3.75,9.25-3.75,0,0,6.47,2.34,10.11,1.72,4.36.12,9.37,3.3,9.63,2.43.24-.89-5.14-4.21-8.99-4.99-2.11-1.39-6.49-3.47-11.2-2.3-3.02-1.34-9.51,1.71-11.82,3.39-3.65.6-7.77,4.08-9.38,5.58-.86-.68-1.85-1.36-3.05-2.04-5.86-3.36-12.77-3.69-12.77-3.69,0,0,.25-3.28-4.74-6.4,2.75-3.68,5.97-9.11,5.52-10.83,4.19-2.31,6.84-7.29,6.84-7.29,0,0,8.76-1.67,11.45-3.08,6.06-1.66,10.39.04,10.73-1.2.25-.9-5.66-3.53-10.73-2.88-3.16-1.16-10.87.61-14.05,3.64-2.29.78-6.74,5.49-8.22,7.93-2.69,1.74-5.91,7.48-7.73,11.01-8.64-2.81-14.85-2.56-14.85-2.56,0,0-.46-3.91-5.81-6.49.83-2.06,1.36-3.92,1.01-4.82,3.87-2.84,5.86-8.12,5.86-8.12,0,0,6.82-4.46,8.79-6.76,5.03-3.81,9.67-3.81,9.5-5.09-.1-.9-6.55-1.18-11.03,1.33-3.34.06-7.53,3.99-10.31,7.4-2.19,1.05-5.97,6.29-7.11,8.92-1.28,1.04-2.59,2.78-3.76,4.61-7.3-1.93-12.07-1.2-12.07-1.2,0,0-1.48-2.89-5.6-4.99,1.03-3.85,1.73-7.78.87-9.07,3.17-3.59,4-9.18,4-9.18,0,0,5.68-5.78,7.12-8.47,4.09-4.82,8.64-5.8,8.21-7.04-.29-.89-6.66.29-10.52,3.66-3.21.82-6.48,5.52-8.46,9.44-1.9,1.49-4.48,7.47-5.01,10.26-1.44,1.8-2.73,5.19-3.71,8.24-6.57-1.03-11.97-.62-11.97-.62,0,0-.93-1.61-3.82-3.1,1.12-3.39,3.08-9.8,2.03-11.54,3.33-3.45,4.43-8.98,4.43-8.98,0,0,5.95-5.55,7.48-8.17,4.35-4.59,8.92-5.36,8.55-6.6-.27-.91-6.69-.04-10.66,3.15-3.26.63-6.76,5.19-8.93,9.02-1.95,1.38-4.82,7.23-5.51,10.01-2.35,2.76-4.14,8.41-4.84,10.91-8.8-1.55-13-.4-13-.4,0,0-.08-1.94-3.1-3.49-.08-3.61,0-10.05-1.64-11.12,1.46-4.56.4-11.45.4-11.45,0,0,1.33-6.31,1.57-9.36,1.29-7.32,5.61-8.72,4.74-9.71-.62-.67-6.29,2.65-8.14,8.31-1.71,1.18-3.05,8.24-2.88,11.44-1.14,2.14-1.14,8.64-.53,11.43-.74,2.79-1.06,6.33-1.2,8.67-.49-.04-.97-.06-1.5-.12-8.59-.29-16.16,2.57-16.16,2.57,0,0-1.03-.93-3.02-1.79-.86-3.49-2.07-10.11-3.97-10.82.53-4.78-1.93-11.31-1.93-11.31,0,0,.02-6.46-.35-9.49-.21-7.41,3.7-9.68,2.63-10.46-.72-.54-5.6,3.86-6.29,9.77-1.42,1.49-1.28,8.71-.47,11.8-.7,2.33.65,8.65,1.78,11.26-.11,2.34.11,5.33.37,7.73-.37,0-.72,0-1.13,0-15.34.85-18.11,4.81-18.11,4.81,0,0-.75-1.16-3.19-1.98-.61-3.11-1.27-11.06-3.28-12.01.88-4.71-1.06-11.42-1.06-11.42,0,0,.53-6.43.38-9.47.35-7.44,4.46-9.39,3.45-10.26-.7-.58-5.91,3.43-7.04,9.28-1.52,1.36-1.94,8.56-1.4,11.71-.86,2.27-.02,8.7.95,11.39-.4,3.07-.29,7.32-.21,9.95-14.75.29-18.75,3.8-18.75,3.8,0,0-.41-2.25-5.16-2.76-.25-2.14-.78-5.1-1.94-7.27.81-2.52.7-8.72.7-8.72,0,0,2.24-4.2,2.59-7.21,1.53-7.28,5.91-8.56,5.07-9.55-.61-.71-6.4,2.43-8.46,8.02-1.7,1.12-3.29,5.08-3.93,8.22-1.67,1.77-1.72,8.54-.75,10.21-.93,1.16-.67,4.17-.29,6.55-8.25.96-12.24,3.55-12.24,3.55,0,0-1.43-2.21-6.63-2.68-.13-.67-.3-1.26-.55-1.63,2.16-4.27,2.16-11.28,2.16-11.28,0,0,2.27-6.03,3-9,2.36-7.02,6.86-7.78,6.14-8.87-.52-.76-6.62,1.67-9.34,6.96-1.84.91-4.24,7.7-4.54,10.87-1.47,1.95-2.46,8.35-2.27,11.18-.33.7-.54,1.35-.66,2.01-10.07,1.19-13.24,4.95-13.24,4.95,0,0-1.78-2.5-6.66-3.19-.12-1.49-.43-2.96-1.14-3.68,2.42-4.14,2.83-11.1,2.83-11.1,0,0,2.63-5.91,3.51-8.81,2.82-6.88,7.35-7.38,6.7-8.49-.48-.82-6.73,1.24-9.74,6.37-1.89.8-4.7,7.42-5.23,10.58-1.57,1.85-2.94,8.22-2.94,11.01-.45,1.29-.37,2.78-.11,4.19-8.89,1.23-12.82,4.48-12.82,4.48,0,0-1.6-2.09-7.41-1.86-.26,0-.46.03-.75.04-.12-1.79-.47-3.68-1.43-4.29,1.45-4.54.37-11.44.37-11.44,0,0,1.32-6.32,1.56-9.36,1.27-7.32,5.58-8.76,4.71-9.73-.63-.68-6.29,2.65-8.15,8.32-1.66,1.16-3.01,8.24-2.84,11.44-1.14,2.12-1.12,8.63-.5,11.42-.44,1.7-.71,3.28-.87,4.56-4.2.91-5.98,2.05-5.98,2.05,0,0-.25-2.27-5.56-3.54-1.31-.27-2.6-.54-3.86-.76-.15-1.01-.35-2.1-.62-3.3.66-2.77.82-9.25-.29-11.39.23-3.22-.95-10.3-2.63-11.52-1.74-5.7-7.31-9.15-7.95-8.48-.92.95,3.37,2.49,4.5,9.85.2,3.01,1.37,9.38,1.37,9.38,0,0-1.2,6.87.18,11.45-.81.49-1.21,1.83-1.41,3.26-6.73-.4-11.45.34-11.45.34,0,0-2.5-4.33-9.45-5.02-.93-.09-1.78-.12-2.67-.21-.24-.81-.61-1.45-1.11-1.77,1.37-4.59.1-11.45.1-11.45,0,0,1.17-6.35,1.33-9.4,1.09-7.33,5.35-8.89,4.47-9.81-.65-.68-6.24,2.77-7.93,8.49-1.67,1.21-2.81,8.32-2.55,11.53-1.12,2.16-.93,8.64-.22,11.39-.05.27-.11.48-.14.71-6.81-.12-10.29.57-10.29.57,0,0-.59-2.27-6.57-4.43.25-2.32.4-5.68-.69-6.57,1.61-3.97.85-8.89.85-8.89,0,0,1.61-5.61,2.04-8.31,1.62-6.52,5.55-7.48,4.84-8.43-.52-.65-5.74,1.91-7.78,6.86-1.57.94-3.24,7.24-3.3,10.14-1.16,1.82-1.32,6.27-.96,8.84-.91,1.12-1.43,2.96-1.73,4.56-7.5-1.45-15.91-1.75-15.91-1.75,0,0-2.2-2.67-5.64-5.49.87-2.11,2.19-5.81,1.31-6.99,2.6-3.41,3.19-8.35,3.19-8.35,0,0,3.02-4.98,4.15-7.49,3.29-5.86,7.35-5.73,6.9-6.82-.31-.78-6.04.29-9.32,4.53-1.76.51-5.02,6.13-5.86,8.9-1.63,1.47-2.96,5.72-3.28,8.28-1.19.82-2.17,2.44-2.89,3.9-6.25-3.54-9.06-2.29-9.06-2.29,0,0-.4-1.47-1.84-3.41.07-2.38,0-6.56-1.22-8.52.66-2.77.71-9.22-.41-11.41.21-3.18-1.05-10.29-2.73-11.46-1.78-5.67-7.42-9.06-8.05-8.39-.9.95,3.42,2.44,4.61,9.76.21,3.03,1.46,9.38,1.46,9.38,0,0-1.13,6.87.28,11.45-.75.49-1.15,1.72-1.36,3.1-1.72-.92-3.73-1.72-6.12-2.41-.41-3.18-2.69-5.95-5.7-8.33-2.12-3.04-4.88-6.51-7.98-9.16-7.32-6.26-10.77-4.35-10.77-4.35,0,0,4.74,1.41,6.85,7.23-.56-.21-1.11-.42-1.66-.58-2.09-.74-4.19-2.19-6.58-3.1-1.17-1.2-2.54-3.28-2.5-6.47.08-4.07,5.45-10.76,10.25-16.42,4.97-5.84,10.12-10.67,16.86-15.61,6.83-5.07,14.13-13.66,18.46-17.6,3.54-3.2,7.09-5.73,6.89-6.2-.26-.64-6.46,3.15-9.25,5.89-3.26,3.18-9.13,9.05-17.01,14.45-9.12,6.3-18.69,17.11-23.25,22.19-3.24,3.6-6.09,10.44-7.36,14.5-.6,1.87-1.07,3.85-1.78,5.76-2.07,1.08-4.37,2.9-6.94,5.93-.99,1.13-1.78,2.19-2.46,3.24-2.49-.45-4.52-.96-6.33-.71-4.2.61-7.75,2.44-13.45,6.17-5.7,3.75-21.12,10.64-27.73,16.74-7.04,6.48-13.52,14.68-16.68,17.96-2.71,2.83-6.82,10.89-6.22,11.23.74.45,3.66-6.31,7.65-10.24,4.21-4.09,8.74-9.35,14.78-15.39,6.05-6.06,16.71-11.14,23.58-14.57,6.89-3.45,12.06-6.51,16.11-6.51,2.44,0,4.32,1.54,5.42,2.81-.15,4.54,2.94,8.05,6.61,11.92-5.53-.25-8.23-3.76-8.23-3.76,0,0-4.5-2.39,1.9,4.82,3.06,3.51,9.17,5.76,14.66,7.15,5.35,4.71,10.52,7.91,14.11,7.67,1.37,2.19,2.77,3.92,4.17,5.37-1.16.56-2.13,1.28-2.36,2.1-4.79.02-11.03,3.2-11.03,3.2,0,0-6.4.7-9.36,1.41-7.34,1.07-10.06-2.61-10.71-1.47-.46.82,4.46,5.17,10.41,5.17,1.65,1.25,8.81.29,11.78-.87,2.4.45,8.55-1.61,10.99-3.05,2.14.55,5.88-.49,8.2-1.29,2.14.78,3.58.84,3.58.84,0,0,2.62,3.13,8.11,7.12-.91,1.16-1.8,2.53-2.04,3.76-2.21,1.36-8.52,3.05-9.45,5.03-2.4,1.61-6.8,6.43-6.72,8.24-3.1,4.4-2.41,10.2-1.59,10.24,1.19.11-.13-3.7,4.47-8.6,2.06-1.86,9.53-5.16,9.53-5.16,0,0,4.26-2.52,6.36-6.28,1.26.29,3.6-1.75,5.25-3.36,1.45.87,3.02,1.71,4.71,2.58,5.69,2.93,8.5-.11,8.5-.11,0,0,4.34,4.66,12.69,8.88-.26.55-.45,1.08-.51,1.58-2.11,1.53-5.19,4.69-5.69,6.82-2.08,2.03-5.49,7.59-5.09,9.36-2.2,4.93-.42,10.47.4,10.38,1.19-.13-.84-3.61,2.76-9.3,1.67-2.2,4.63-7.23,4.63-7.23,0,0,4.06-2.84,5.85-6.75.95.13,2.4-.96,3.74-2.19.77.3,1.48.6,2.3.87,8.23,2.76,13.53,1.94,13.53,1.94,0,0,2.35,2.26,9.11,4.12-.39,1.95-.61,4.35.35,5.29-2.42,4.15-2.83,11.13-2.83,11.13,0,0-2.62,5.89-3.51,8.79-2.78,6.89-13.81,6.17-13.3,7.4.37.85,13.34-.12,16.35-5.25,1.9-.82,4.72-7.47,5.21-10.62,1.58-1.85,2.95-8.18,2.94-11.04.78-1.54,1.39-3.04,1.8-4.26.74.11,1.46.21,2.21.29,6.09.74,9.73-1.27,9.73-1.27,0,0,6.79,4.27,14.87,5.9.04.7.12,1.43.23,2.2-.95,2.69-1.76,9.13-.87,11.37-.54,3.16-.08,10.35,1.45,11.74,1.17,5.82,6.4,9.81,7.08,9.21,1-.85-3.13-2.8-3.5-10.24.12-3.02-.4-9.46-.4-9.46,0,0,1.89-6.71.97-11.41.79-.37,1.29-1.53,1.66-2.81h0c7.24-.22,11.21-2.42,11.21-2.42,0,0,3.51,1.18,9.09,1.69.12.87.23,1.83.42,2.81-.77,2.74-1.21,9.22-.19,11.42-.37,3.19.54,10.3,2.13,11.61,1.52,5.76,6.97,9.44,7.62,8.81.93-.91-3.27-2.63-4.1-10.03-.06-3.03-.97-9.4-.97-9.4,0,0,1.51-6.83.31-11.48.89-.48,1.36-2.02,1.61-3.59.98-.04,1.98-.09,3.04-.2,6.08-.63,6.32-3.91,6.32-3.91,0,0,3.51,1.23,13.76,1.2.18,1.36.45,3.04.92,4.96-.6,2.78-.64,9.25.53,11.39-.2,3.2,1.12,10.29,2.82,11.46,1.84,5.65,7.5,8.97,8.13,8.31.89-.95-3.43-2.39-4.69-9.74-.25-3.02-1.55-9.33-1.55-9.33,0,0,1.07-6.91-.37-11.48,1.34-.84,1.48-4.13,1.45-6.22,2.93-.95,3.76-2.57,3.76-2.57,0,0,4.41,1.64,11.68,1.67.17,2.54.49,5.95,1.06,8.47-.68,2.77-.91,9.25.2,11.42-.28,3.19.87,10.29,2.5,11.52,1.69,5.73,7.24,9.22,7.9,8.56.91-.95-3.35-2.51-4.43-9.86-.15-3.03-1.28-9.4-1.28-9.4,0,0,1.28-6.88-.04-11.45,1.98-1.2,1.67-7.82,1.75-9.82,5.48-.92,6.45-3.3,6.45-3.3,0,0,3.6,2.03,12.97,2.03.09,2.5.29,5.69.76,8.09-.78,2.75-1.2,9.25-.18,11.44-.37,3.17.53,10.31,2.13,11.61,1.52,5.75,6.97,9.43,7.62,8.78.95-.89-3.29-2.6-4.1-9.98-.05-3.02-1-9.44-1-9.44,0,0,1.5-6.81.33-11.46,1.54-.86,1.95-6.13,2.25-9.81,2.66-1.02,3.48-2.76,3.48-2.76,0,0,4.67,2.1,18.06,1.49.53,2.44,1.27,5.49,2.14,7.76-.29,2.85.42,9.27,1.8,11.28.18,3.21,2.32,10.09,4.1,11.05,2.48,5.42,8.48,8.09,9.04,7.33.77-1.04-3.68-1.99-5.78-9.12-.58-2.97-2.61-9.14-2.61-9.14,0,0,.28-6.98-1.67-11.32,1.23-1.01.96-5.33.62-8.85,3.1-.97,3.6-2.34,3.6-2.34,0,0,8.58,2.08,20.49,1.58.16,2.6.49,6.64,1.17,9.54-.69,2.76-.87,9.25.23,11.44-.26,3.16.9,10.31,2.54,11.53,1.72,5.7,7.3,9.17,7.92,8.51.92-.96-3.37-2.52-4.47-9.86-.13-3.02-1.31-9.38-1.31-9.38,0,0,1.26-6.87-.11-11.48,1.78-1.04,1.78-7.97,1.99-11.52,2.26-.95,2.85-2.21,2.85-2.21,0,0,2.87,1.5,9.63,2.65-.12,2.27-.27,6.27.19,9.46-.93,2.72-1.65,9.15-.77,11.4-.53,3.15,0,10.35,1.54,11.71,1.23,5.83,6.49,9.75,7.18,9.17.99-.88-3.15-2.78-3.6-10.21.11-3.02-.51-9.47-.51-9.47,0,0,1.83-6.73.87-11.42,1.62-.8,2.27-6.12,2.77-9.82,3.86-.06,4.6-1.45,4.6-1.45,0,0,2.65,2.12,10.65,4.77-.98,2.59-1.94,5.75-1.91,8.14-1.26,2.56-2.83,8.85-2.21,11.2-.78,4.33-1.05,10.05,1.04,12.66.98,5,5.36,9.77,6.13,9.27,1.07-.73-1.93-4.27-2.28-10.55.49-3.01-.52-11.08-.52-11.08,0,0,2.74-4.97,2.38-9.73,1.66-.57,3.82-5.22,5.23-8.63,2.69-.14,4.4-.82,4.4-.82,0,0,2.36,2.46,7.22,4.38-1.07,2.5-2.16,5.55-2.25,7.88-1.38,2.49-3.25,8.69-2.76,11.06-1.04,4.29-1.6,9.99.38,12.69.74,5.06,4.86,10.04,5.63,9.58,1.15-.67-1.69-4.34-1.71-10.68.63-2.96.04-11.06.04-11.06,0,0,2.98-4.82,2.87-9.61,1.63-.46,3.92-4.68,5.5-8.01,5.35.61,7.79-.53,7.79-.53,0,0,2.45,2.19,6.66,4.48-1.2,2.69-2.88,7.15-2.88,10.22-1.27,2.54-2.89,8.8-2.3,11.19-.84,4.31-1.15,10.03.92,12.63.95,5.04,5.25,9.86,6.04,9.35,1.1-.73-1.88-4.28-2.18-10.59.52-3.01-.41-11.06-.41-11.06,0,0,2.77-4.94,2.46-9.71,1.75-.57,4.05-5.55,5.49-8.96,7.06,2.11,10.62-.48,10.62-.48,0,0,.3,3.76,6.27,8.31-1.94,2.32-4.39,5.61-4.93,8.32-1.74,2.25-4.57,8.08-4.44,10.51-1.66,4.09-3.09,9.63-1.58,12.58-.04,5.13,3.26,10.71,4.12,10.34,1.21-.47-1.02-4.58-.07-10.79,1.09-2.85,1.75-10.94,1.75-10.94,0,0,3.68-4.31,4.32-9.05,2.26-.27,5.03-5,6.5-7.36,4.25,2.27,6.27,2.25,6.27,2.25,0,0,3.85,5.39,8.09,8.58.05.06.11.11.17.13-1.46,1.93-3.01,4.45-3.38,6.78-1.69,2.29-4.72,8.77-3.36,11.82-1.18,4.71.88,9.08,2.29,11.18.76,3.85,4.09,9.24,4.97,8.98.88-.25-2.31-5.26-2.41-9.61.61-3.64-1.7-10.12-1.7-10.12,0,0,3.44-5.78,3.72-9.22,1.78-.28,3.59-3.76,5.56-6.8,2.95.91,4.74.38,4.74.38,0,0,1.5,4.85,9.59,11.04-.12,1.07-.23,2.11-.21,3.08-.64,2.78-.25,9.6.87,11.74.62,3.41,1.77,8.47,3.27,10.49,1.02,3.78,5.32,9.84,6.19,9.59.9-.24-3.16-6.55-3.4-9.85.39-3.66-2.27-10.59-2.27-10.59,0,0,.87-6.71-.25-9.98.5-.32.87-1,1.19-1.94,2.69.51,4.69-.12,4.69-.12,0,0,5.06,5.89,11.79,10.62,2.41,1.7,5.06,2.79,7.66,3.44,2.03,4.34,6.9,14.64,8.15,17.26,2.03,4.21,4.91,5.05,4.91,5.05,0,0,4.05,8.93,6.06,12.47,2.2,3.86,4.53,5.21,4.53,5.21,0,0,5.05,8.07,6.57,10.62,1.53,2.52,3.71,2.85,3.71,2.85,0,0,3.94,6.82,7.41,10.28,4.19,4.23,8.56,6.9,8.75,6.41.25-.71-4.06-3.53-7.92-8.94-3.01-4.18-5.4-9.42-5.4-9.42,0,0,.2-1.85-1.17-4.57-.71-1.4-7.91-8.57-7.91-8.57,0,0-.34-3.53-1.67-5.89-1.16-1.99-8.62-11.96-8.62-11.96,0,0,.18-1.86-.31-3.19-.51-1.3-9.04-12.01-11.03-16.97,3.34-.21,6.22-1.33,7.82-3.41.41-.53.77-1.15,1.08-1.78,5.59,2.39,14.84,8.59,16.01,8.96,1.38.39,3.21.08,3.21.08,0,0,10.53,6.65,12.61,7.62,2.44,1.15,6,1.22,6,1.22,0,0,9.08,5.35,10.62,5.74,2.93.67,4.69.06,4.69.06,0,0,7.36,2.45,12.03,3.93,5.05,1.6,10.68,3.32,10.82,2.69.16-.74-4.82-2.29-10.98-4.79"/>
  </g>
</svg>