<?xml version="1.0" encoding="utf-8"?>
<!-- Generator: Adobe Illustrator 19.1.0, SVG Export Plug-In . SVG Version: 6.00 Build 0)  -->
<svg version="1.1" id="Layer_1" xmlns="http://www.w3.org/2000/svg" xmlns:xlink="http://www.w3.org/1999/xlink" x="0px" y="0px"
	 viewBox="0 0 48 48" style="enable-background:new 0 0 48 48;" xml:space="preserve">
<style type="text/css">
	.st0{fill:#808080;}
</style>
<path class="st0" d="M29.8,8.7c0,0-9.5,1.2-13.3,11.3c0,0-1.8,6-8.2,2c-0.3-0.2-0.6-0.4-0.9-0.7c-0.5-0.6-2-1.6-5,0
	c-0.7,0.4-1.3,0.9-1.7,1.6c-0.6,1-1.2,2.6-0.5,3.3c0,0,1.4-1,2.5-0.7c0,0,3,0.2,5.2,2.2c0,0,6.4,5.5,11.8,1.5c0.6-0.4,1.3-0.8,2-1
	c0.6-0.2,1.3-0.3,1.9-0.2c0.1,0,0.1,0,0.2,0c0.5,0.1,3.7,1,4.8,0.8c0,0,0,0.4-0.6,0.7c0,0-1.8,0.9-1.8,2.9c0,0,0.2,1.9-0.2,3.3
	c-0.1,0.2-0.1,0.4-0.1,0.6c0,0.5,0,1.4,0.2,1.5c0,0,1-1.6,1.2-1.2l0.1,0.3c0,0,0.5-0.2,0.6-1.1c0,0,0.2-0.4,0.2-0.1l0.1,0.3
	c0,0,0.5-0.5,0.7-1.3c0,0,0.2-0.7,0.1-1.1c0-0.2,0-0.3,0.1-0.5c0.3-0.3,0.7-0.9,0.5-1.3c0,0,0.8-1.1,1.9-0.8c0,0-0.4,0.9,0.1,1.5
	c0,0,0.1,1.7-0.2,2.3c0,0,0,1.6-1.5,2c0,0-2.3,0.3-3,1.5c0,0,0.5-0.1,0.7,0.1c0,0,0.5,0,0.4,0.3c0,0-0.3,0.4-0.3,0.5
	c0,0,1.3,0,1.7,0.1c0,0,1.4-0.2,1.9-0.4c0.1,0,0.2,0,0.2,0.1l0,0c0,0,0.2-0.1,0.2-0.2c0.1-0.1,0.1-0.1,0.2-0.1
	c0.4-0.1,1.3,0.1,1.7-0.2c0,0,0.7-0.7,0.4-1.4c0,0-0.2-1.4-0.2-1.9c0,0,0-1.9,0.7-3c0,0,0.2-1,0.2-1.9c0-0.4,0.2-0.8,0.5-1.1
	c0.3-0.3,0.8-0.5,1.3-0.2c0,0,1.5,0.4,2.9-0.5c0.3-0.2,0.7-0.3,1.1-0.3c0.3,0,0.7,0.1,1,0.3c0.1,0.1,0.2,0.1,0.3,0
	c0.1-0.2,0.2-0.4,0.1-0.6c0-0.1,0-0.1,0.1-0.1l0.1,0c0.1,0,0.1,0.1,0.1,0.1c0,0.2,0,0.6,0.4,0.7c0,0,0.5-0.3,0.4-0.9
	c0-0.1,0-0.2,0.1-0.2c0.3-0.1,1-0.3,1.5,0.1c0.1,0.1,0.3,0,0.3-0.1c0-0.1,0-0.2,0-0.4c0-0.2,0.1-0.3,0.2-0.4c0.4-0.1,1-0.6,1.2-2.8
	c0,0,0.2-1.3,0.5-1.4c0,0,0.3,0.5,0.7,0.4c0.2-0.1,0.3-0.3,0.2-0.5C47.4,20.7,42.3,6.5,29.8,8.7z M1.9,23.3c0,0-0.1-0.7,0.5-0.4
	C2.4,22.9,2.4,23.6,1.9,23.3z"/>
</svg>
