<?xml version="1.0" encoding="utf-8"?>
<!-- Generator: Adobe Illustrator 19.1.0, SVG Export Plug-In . SVG Version: 6.00 Build 0)  -->
<svg version="1.1" id="Layer_1" xmlns="http://www.w3.org/2000/svg" xmlns:xlink="http://www.w3.org/1999/xlink" x="0px" y="0px"
	 viewBox="0 0 48 48" style="enable-background:new 0 0 48 48;" xml:space="preserve">
<style type="text/css">
	.st0{fill:#808080;}
</style>
<path class="st0" d="M47.8,32.8c0,0,1-1.3-1.7-0.9c0,0-1.5,0.9-3.6-0.3c-0.6-0.3-1-0.8-1.3-1.3c-5.2-9-3.3-3.8-3.9-8.4
	c-0.3-2.5,1.3-3.5,2.4-6.8c0.2-0.6,0.6-1.1,1.2-1.4c2.1-1,6.5-3.4,5.1-5.7c0,0-0.2-1-2.6-1.7c0,0-0.1-0.7-1.3-0.3l-1.4,0
	c-0.3,0-0.5-0.2-0.6-0.4c-0.2-0.7-0.9-2-3.1-1.7c0,0-1.2-0.1-1.9,1.4c-0.1,0.3-0.4,0.5-0.7,0.6c-0.5,0.1-1.3,0.4-1.7,1.1
	c-0.1,0.2-0.3,0.3-0.5,0.4C29.9,8.3,17.3,12.6,13,18c-0.4,0.5-1,0.8-1.6,1c-2.4,0.6-7.8,2.3-4.5,5.8c0,0-5.1-4.3-6.7,0.9
	c0,0-0.9,9.4,1.3,12c0,0,1.3,2.1,4.2,2.9c0.4,0.1,0.7,0.3,0.9,0.6l0.1,0.2c0.2,0.4,0.2,0.9,0,1.2c-0.1,0.1-0.2,0.3-0.4,0.4
	c-0.2,0.1-0.3,0.4-0.2,0.5c0.1,0.2,0.3,0.3,0.9-0.1c0,0,2.8-1.9,6-1.8c0,0,5.7-0.8,6.9,0.1c0,0,0.9,0.7,1,1c0,0,0.9,0.5,0.5-0.5
	c0,0-1-1.6-2.7-1.8c-0.2,0-0.4-0.2-0.5-0.3c-0.4-0.6-1.4-1.9-3.7-1.2c0.2-0.1,2.9-1.6,2.7-4.2c0-0.3,0.2-0.5,0.5-0.5
	c0.9,0.1,2.7,0.2,4.1-0.3c0.2-0.1,0.5,0,0.6,0.3c0.6,1.5,2.8,6.5,7.2,6.8c0,0,1.8,0.2,2.9,1.4c0,0,3.1,2.1,3.6,1.7
	c0,0,0.2-0.3-0.2-0.5c0,0-2-1-2-1.2c0,0-0.4-0.7,2.6,0c0,0,0.8,0,1.2-0.5c0,0,1.2-1,2.4,0.5c0,0-0.3-1.6-1.9-1.4
	c0,0-2.7,0.7-3.6-0.1c0,0,2.6-0.2,1.4-0.9c0,0,0-0.2-2.8-0.1c-0.6,0-1.7-0.6-1.6-1.2c0.1-1-1-0.9-1.4-1.8c-0.5-1.2-1.6-4-2.4-5.2
	c-0.2-0.3-0.2-0.7,0.1-1l0.1-0.1c0.3-0.3,0.8-0.4,1.2-0.4c0.5,0.1,1.1,0.2,1.4,0.3c0,0,0.8,0.1-0.3-1.3c0,0,0.9-1,3.2-0.5
	c0.5,0.1,0.9,0.4,1.1,0.9c0.3,0.8,1,2.2,1.7,2.8c0.2,0.2,0.3,0.5,0.2,0.8c-0.4,1.2-1,3.8,2.2,1.7c0.4-0.3,0.9-0.2,1.3,0.1
	c0.5,0.4,1.1,0.8,1.6,0.2c0,0,0.4,0,0.2,1.1c0,0,0.5,0.4,0.7,0c0,0,0.7-1.8-0.8-1.7c0,0,0.7-0.6,4.7-0.2c0,0,1,1.1,1.4,0.5
	c0,0-0.1-1.7-2.2-1.6C45.6,33.1,46.1,32.4,47.8,32.8z M33.4,27.4h-2.4c0,0,1.8-2,2.2-1.8C33.3,25.5,34,27.3,33.4,27.4z M35.3,10.3
	c-1.2,0-2.2-0.9-2.2-1.9s1-1.9,2.2-1.9c1.2,0,2.2,0.9,2.2,1.9S36.5,10.3,35.3,10.3z"/>
</svg>
