<?xml version="1.0" encoding="utf-8"?>
<!-- Generator: Adobe Illustrator 19.1.0, SVG Export Plug-In . SVG Version: 6.00 Build 0)  -->
<svg version="1.1" id="Layer_1" xmlns="http://www.w3.org/2000/svg" xmlns:xlink="http://www.w3.org/1999/xlink" x="0px" y="0px"
	 viewBox="0 0 48 48" style="enable-background:new 0 0 48 48;" xml:space="preserve">
<style type="text/css">
	.st0{fill:#808080;}
</style>
<path class="st0" d="M34.4,16.4c0,0-7.5-5.8-18.8-1c-1.1,0.5-2.5,0.2-3.3-0.8c0,0,0,0,0-0.1c0,0-4-5.4-8.6-3.3c0,0-3.5,1.1-3.7,4.8
	c0,0-0.1,3.5,1.6,4.3c0,0,0.8-0.5,0.3-1.7c0,0-1.1-4.1,2.3-4.9c0,0,2.6-0.5,4.1,1.4c0,0,3.3,3.5,2.5,4.8l-4.6,6.9
	c0,0-3.6,4.6-3.8,5.2l-1.9,4c0,0-0.8,1.7,0.4,1.2c0,0-0.7,0.5-0.3,0.9c0,0,0.6,0.9,1.1-0.1c0,0-0.1,0.6,0.4,0.3c0,0,0.7-0.2,0.7-1.2
	c0,0,0.7-4.5,3.7-5.5c0,0,5.6-2.9,7.1-4c0.3-0.2,0.7-0.1,0.9,0.1c0.4,0.6,0.8,1.8,0.5,4.5c0,0-0.2,0.5,0.6,1.6c0,0,2,3.1,4.6,3.9
	c0,0,1.5,0.5,2,0c0,0,0.6,0.2,0.8-0.2c0,0,0.3-0.6-0.3-1.1c-0.3-0.3-0.7-0.4-1.1-0.3c-0.3,0-0.7,0.1-0.9-0.1c0,0-2.4-2-2.1-2.4
	c0,0,2.9-6,3.3-6.9c0,0,0.5-0.9,1.5-0.6c0,0,4.4-0.4,4.9,1.3c0,0,0.5,3.5,0.4,5c0,0-0.8,4.1,0.9,5.6c0,0,1.4,0.5,1.9-0.2
	c0,0-0.1,0.6,0.7,0.1c0,0,0.1,0.3,0.4-0.1c0,0,0.4-1.4-1.4-1.4c0,0-0.4-0.9-0.2-1.6c0.1-0.2,0.1-0.4,0.2-0.6c0.3-1.4,1.2-6,2.9-5.5
	c0,0,3.1,2.7,7.4,5.1c0,0,3,2.3,3.4,2.5c0,0,1.7,0.5,2.2-0.3c0,0,0.1-1.1-0.7-1.5c0,0-3.8-3.1-5.2-4.5c0,0-2.1-1.8-1.3-3.9
	c0,0,0.5-3.5,0.5-4c0,0,0.2-1,2.6-1.8c0.4-0.1,0.8-0.3,1.2-0.6c0.3-0.2,0.6-0.4,1-0.4c0,0,2.2-0.3,2.1-1c0,0,0.4,0.1,0.8-1.2
	c0,0,0.2-0.8-0.5-1.2c0,0-0.7-0.6-0.7-1.4c0,0-0.4-2-3.2-2.2c0,0-0.3-0.1-0.3-0.6c0,0,0-1.4-0.5-1.1c0,0-0.8,0.8-0.9,1.4
	c0,0,0-0.6,0.9-1.5c0,0-0.3-1-0.5-0.8c0,0-3.1,4.9-5.5,5.9c-0.3,0.1-0.7,0.2-1.1,0.1C35.5,15.7,35.1,15.8,34.4,16.4z"/>
</svg>
