<?xml version="1.0" encoding="utf-8"?>
<!-- Generator: Adobe Illustrator 19.1.0, SVG Export Plug-In . SVG Version: 6.00 Build 0)  -->
<svg version="1.1" id="Layer_1" xmlns="http://www.w3.org/2000/svg" xmlns:xlink="http://www.w3.org/1999/xlink" x="0px" y="0px"
	 viewBox="0 0 48 48" style="enable-background:new 0 0 48 48;" xml:space="preserve">
<style type="text/css">
	.st0{fill:#808080;}
</style>
<path class="st0" d="M26.2,19.5c0,0-9.7-1.7-12.8,4.8L0.1,32.9c0,0-0.3,0.3,0.1,0.5c0.5,0.1,14.9-7.6,14.9-7.6s5.4-0.9,6.5,0.3
	c0,0,2,0.8,2.2,1.2c0.2,0.3,4.1,3.8,8.3,4.9l0.8,0.7l4,9.5l0.5,1.8c0,0,1.1,1.1,1.2-0.2c0.1-1.3-1.3-4.8-1.3-4.8l-1.6-3.4l3.3,5.7
	l1.8,2.5c0,0,1.6,0.8,1.2-0.6c-0.4-1.4-1.5-3.4-1.5-3.4l-3.1-4.5l6.3,7c0,0,2.3,0.8,1.3-1.2c-1-2-6.8-7.3-6.8-7.3l8.2,5.9
	c0,0,2.2,0.7,1.4-1c-0.7-1.7-9.5-6.4-9.5-6.4l8.5,4.2c0,0,1.3,0.3,0.7-1.1L38,30.7l7.6,3.3c0,0,1.7,0.1,1.2-0.7
	c-0.5-0.8-9.4-4.4-9.4-4.4s-1-3.7-2.2-5.3l1-1.2l0.7-0.9l-0.5,0.1c0,0,1.2-0.9,1.2-1.2c0-0.3-0.3-0.5-0.3-0.5s0.8-1,0.7-1.5
	c-0.2-0.5,1.5-0.9,0.7-1.9c0,0,1.6-0.8,1.1-1c-0.4-0.2-0.4-0.4-0.4-0.4s1.5-1.1,1.3-1.5s-1.4-0.1-1.4-0.1s2.8-2.1,2.4-2.5
	c-0.4-0.5-0.4-0.5-0.4-0.5s1.3-1.4,1-1.7s-0.6-0.4-0.6-0.4s2-0.6,1-2.1c0,0,1.9-2.5,0.9-2.6c0,0-7,4.9-7.1,5.9l-0.5-0.3l0.2-5
	C36,4.1,25.9,18.7,26.2,19.5z"/>
</svg>
