<?xml version="1.0" encoding="utf-8"?>
<!-- Generator: Adobe Illustrator 19.1.0, SVG Export Plug-In . SVG Version: 6.00 Build 0)  -->
<svg version="1.1" id="Layer_1" xmlns="http://www.w3.org/2000/svg" xmlns:xlink="http://www.w3.org/1999/xlink" x="0px" y="0px"
	 viewBox="0 0 48 48" style="enable-background:new 0 0 48 48;" xml:space="preserve">
<style type="text/css">
	.st0{fill:#808080;}
</style>
<path class="st0" d="M47.5,28.8c0,0,0.8-9.8,0.4-11.2c0,0-3.6-13.2-16.5-10.7c0,0-5.2,2.4-8.6,0.6l-3.1-0.7c0,0-1.2-0.4-4.9,1.4
	c0,0-0.5-0.2-1.1,0.5c0,0-6.4-0.3-8.5,1.7C5.1,10.5,5,10.6,5,10.8c-0.5,1-2.8,6.2-3.1,8.3c0,0.3-0.1,0.6-0.2,0.9
	c-0.4,1.5-1.6,5.7-1.5,7.5c0,0-1,6.3,1.6,9.5c0.1,0.1,0.2,0.3,0.3,0.4C2.6,38,4.3,40,8.2,38.8c0,0,0.4-0.2,0.4-0.4
	c0,0,1.2-0.5,0.1-0.8c0,0-0.4-0.7-1.1-0.3c0,0-2.4,0.7-3.5-0.8C4.1,36.3,4,36.2,4,36.2c-0.4-0.5-2-2.6-1-7c0,0,1.2-7.7,2.3-6.3
	c0,0,0.2,0.1,1-0.7c0,0,1.5-0.7,2.9-0.8c0.1,0,0.3,0.1,0.3,0.2c0.1,0.4,0.4,1.3,2.3,0.6c0,0,0,0,0.1,0c1.7-0.6,2.5-1.1,2.8-1.3
	c0.2-0.1,0.4-0.1,0.5,0.1c0.1,0.2,0.2,0.4,0.2,0.8c0,0,0.2,0.8,0.5,1.4c0.2,0.3,0.3,0.6,0.3,0.9c0,2.4,0.1,11.4,0.8,13.1
	c0.1,0.2,0.1,0.4,0,0.6c-0.1,0.4-0.4,1.1-1,1.6c0,0-1,1.6,0.1,1.4c0,0,1.9,0.6,3.5-0.1c0,0,2.4-0.3,1.2-1.7c0,0-0.4-0.4-0.7-0.7
	c-0.1-0.1,0-0.3,0.2-0.2c0.6,0.2,1.6,0.9,1.8,2.1c0,0,0,1.8,1.1,1c0,0,2.3-1.7,2.6-3.5c0,0,0-1.5-1.9-1.1c0,0-1.4,0-1.6-0.5
	c0,0,0.1-0.2-0.4-0.5c0,0,0.1-0.7-0.1-1c-0.1-0.1-0.1-0.2,0-0.4c0.4-1,2-5,2.7-6.3c0.1-0.2,0.3-0.2,0.5-0.1c0.9,0.5,3.8,2,7.3,1.3
	c0.2,0,0.3,0.1,0.4,0.2c0.2,0.6,0.6,1.9,0.5,2.3c0,0,0.1,6.6-2.1,6.6c0,0-1.6,1.2,0.3,2.2c0,0,2.7,1.5,4.6,0.2c0,0,0.8-0.7,0.3-2.4
	c0,0,0.6-1,0.2-2.8l0.1-3.6c0,0,0.5-0.1,0.7-1.2l0.5-0.8c0.1-0.1,0.2-0.2,0.3-0.2c0.4,0.1,1.5,0.1,2.4-0.1c0.2,0,0.4,0,0.5,0.2
	c0.3,0.4,0.8,1,1,1.1c0,0,0.8,1.2,0.7,3.3c-0.1,2,0.4,3.3-0.3,4.5c0,0-1.4,0.5-0.9,1.6c0,0.1,0.2,0.2,0.3,0.2c0.7,0.2,3,0.8,5.2,0
	c0.1,0,0.2-0.1,0.2-0.3c0.1-0.3,0.2-0.9-0.3-2c0,0-0.3-0.7-0.2-1.4c0,0-0.9-4-0.9-4.7c0,0,0-2.2,0.7-4.2c0-0.1,0.1-0.2,0.1-0.3
	c0-0.8,0.2-3.7,0-4.4l0.1-3c0,0,0.5,1.6,0.3,3.4L47,28.5c0,0.1-0.1,0.2-0.1,0.3c-0.2,0.2-0.4,0.5-0.2,0.8c0.1,0.1,0.1,0.2,0.1,0.4
	c0,1.1,0.2,5.4,0.9,3.2l-0.1-3.5C47.4,29.6,47.7,29.3,47.5,28.8z M4.9,16.8c0,0,0.4-1,1.4-0.2C6.2,16.6,5.8,17.7,4.9,16.8z"/>
</svg>
