<?xml version="1.0" encoding="utf-8"?>
<!-- Generator: Adobe Illustrator 19.1.0, SVG Export Plug-In . SVG Version: 6.00 Build 0)  -->
<svg version="1.1" id="Layer_1" xmlns="http://www.w3.org/2000/svg" xmlns:xlink="http://www.w3.org/1999/xlink" x="0px" y="0px"
	 viewBox="0 0 48 48" style="enable-background:new 0 0 48 48;" xml:space="preserve">
<style type="text/css">
	.st0{fill:#808080;}
</style>
<path class="st0" d="M39.3,36.2c0-1.8-0.4-9.7-3.7-11.6c0,0,0,0-0.1-0.1c-0.3-0.6-5.3-8.7-10-10.8c0,0,0,0-0.1-0.1
	c-0.3-0.4-2.7-3.8-4.8-5c0,0,0,0-0.1-0.1c-0.1-0.2-0.4-1-0.6-1c-0.2-0.1,0.5-5.7-1.4-5.4c-0.1,0-0.1,0-0.2-0.1
	C18.1,1.6,15-2.1,8.4,1.7c0,0,0,0,0,0C8.1,1.8,4,3.1,7.2,7.3c0,0,0,0,0,0c0.1,0.2,1.6,2.9,0.4,5.1c0,0,0,0,0,0
	c-0.2,0.2-2.4,2.3-0.5,5.9l3.5,6.4c0,0,0,0,0,0c0.1,0.1,0.9,1.4,0.6,3.2c0,0-1.7,11.4-2.3,11.6s-0.9,1.6-2.5,1.6
	C5,41.3,5.6,40.7,4,41.3c-1.3,0.5-1.6,0.6-1.7,0.6c0,0,0,0-0.1,0c-0.2,0.1-0.8,0.5,0,1c0.8,0.4,1.5,0,1.7-0.2c0.1,0,0.1,0,0.2,0
	c0.2,0.2,0.7,0.5,1.1,0.3c0.5-0.2,2,0.1,2.5,0.3c0.1,0,0.2,0,0.2-0.1l0.1-0.6c0-0.1,0-0.1,0.1-0.1c0.5-0.2,2.6-0.9,2.7-0.6
	C11,42,11.5,41,11.5,41s5.8-12,5.6-14.1c0-0.1,0-0.2,0.1-0.2c0.4,0,1.3,0.1,0.8,2.4c0,0.2-4.9,11.4-5.4,12.6c0,0.1-0.1,0.1-0.1,0.1
	l-1.3,0c0,0-2.7-0.1-3.4,1.8c-0.5,1.4-0.3,1.7-0.1,1.7c0.1,0,0.1,0.1,0.1,0.1l0.1,0.9c0,0,0.1,0.6,0.8,0c0,0,0.1-0.1,0.1-0.1
	c0-0.3,0.2-1.7,0.3-1.8c0.1-0.1,0,0,0,0s1-1.5,0.8-0.2l-0.5,2.5c0,0,0,0,0,0c0,0.1-0.3,0.9,0,1c0.4,0.2,0.8-0.1,0.9-0.6
	c0.1-0.5,0.3-2.2,0.3-2.2s0.3-0.6,0.5-0.1l-0.2,1c0,0-0.4,1.7,0.5,1c0,0,0.6-0.9,0.6-1.5c0,0,0,0,0,0c-0.1-0.6,0.5-1.2,1.1-1.3
	c0.5,0,2.2,0,2.4,0c0,0,0,0,0,0c0.1,0,0.5-0.2,0.5-0.5l0.1-0.3c0,0,0,0,0,0l3.4-5.5l1.5-2.3c0.1-0.1,0.2-0.1,0.3,0
	c0.4,1,1.4,4.3,0.5,4.6c-0.9,0.3-3.2,0.4-3.6,0.4c-0.1,0-0.1,0-0.1,0.1L16.5,43c-0.1,0.1,0,0.2,0.1,0.2c0.4,0.2,1.5,0.5,2-0.1
	c0,0,0.1,0,0.1,0l1.8-0.2c0,0,0,0,0,0l1.2,0.2c0,0,0,0,0,0c0.1,0.1,0.9,0.4,1.4,0.1c0.4-0.3,2-0.7,2.4-0.8c0.1,0,0.1-0.1,0.1-0.1
	c0-0.5,0-2.3-0.4-3.6c-0.1-0.1,0.1-0.3,0.2-0.2c1,0.7,3.5,2.3,5.5,1.8c0,0,0,0,0.1,0c0.3,0,3,0.5,2.1,0.9c0,0-1.6,0.7-1.9,0.5
	c-0.3-0.1-0.8,0.2-0.9,0.2c0,0-0.1,0-0.1,0c-0.3,0-1.7-0.1-2.2,0.2c-0.5,0.4-0.9,1.5,0.5,1c0,0,0,0,0,0c0.1-0.1,0.7-0.5,1-0.2
	c0,0,0,0.1,0,0.2c-0.1,0.3-0.5,1.6,1.2,1.5c0,0,5-0.2,5.7-0.6c0,0,2.4-0.6,1.5-3.7c0-0.1,0.1-0.2,0.2-0.2c0.7,0.1,2.4,0.4,4.2,0.7
	c2.3,0.4,5.4-1.7,2.2-3.5c0,0,0,0-0.1,0l-5-0.7C39.5,36.6,39.3,36.4,39.3,36.2z"/>
</svg>
