<?xml version="1.0" encoding="UTF-8"?>
<svg id="Layer_2" data-name="Layer 2" xmlns="http://www.w3.org/2000/svg" viewBox="0 0 114.58 69.15">
  <defs>
    <style>
      .cls-1 {
        fill: #808080;
      }
    </style>
  </defs>
  <g id="Layer_1-2" data-name="Layer 1">
    <path class="cls-1" d="M113.12,24.97c-.54-.42-1.11-.79-1.72-1.11-.61-.31-1.25-.58-1.92-.79-.66-.2-1.34-.37-2.04-.46-1.38-.21-2.8-.2-4.19-.07-1.26,.13-2.51,.39-3.73,.74,0,0,0,0,0-.01,0,0,0-.01,0-.02-.01-.12-.03-.24-.04-.36,0-.03,0-.05-.01-.08-.02-.12-.03-.24-.05-.35,0,0,0,0,0-.01-.02-.12-.04-.24-.06-.36,0-.03,0-.05-.01-.08-.02-.1-.04-.19-.06-.28,0-.02-.01-.05-.02-.08-.02-.11-.05-.22-.07-.33,0-.02,0-.04-.01-.06-.02-.09-.04-.18-.07-.27,0-.03-.02-.06-.02-.09-.02-.09-.05-.17-.07-.26,0-.01,0-.03-.01-.04h0c-.05-.17-.09-.33-.14-.48-1.22-4.01-3.71-7.5-7.22-10.34h0s0,0,0,0c-.22-.18-.44-.35-.67-.52,0,0,0,0-.01,0-.23-.17-.45-.34-.69-.51,0,0-.01,0-.02-.01-.23-.16-.46-.33-.7-.49,0,0-.02-.01-.03-.02-.23-.16-.47-.31-.71-.46-.01,0-.03-.02-.04-.03-.24-.15-.48-.29-.72-.44-.02-.01-.04-.02-.06-.03-.24-.14-.48-.28-.73-.42-.02-.01-.04-.02-.06-.04-.25-.14-.5-.27-.76-.41-.02,0-.03-.02-.05-.03-.27-.14-.54-.28-.82-.41,0,0,0,0,0,0h0c-1.95-.95-4.07-1.76-6.34-2.44-.35-.1-.69-.2-1.02-.3-.11-.03-.21-.06-.32-.09-.22-.06-.44-.13-.66-.19-.12-.03-.24-.07-.36-.1-.2-.06-.39-.11-.58-.16-.12-.03-.25-.07-.37-.1-.18-.05-.37-.1-.54-.15-.12-.03-.24-.06-.35-.09-.18-.05-.36-.1-.54-.14-.11-.03-.21-.06-.32-.08-.22-.06-.43-.11-.64-.16-.06-.01-.12-.03-.18-.05-.26-.06-.51-.13-.76-.19-.1-.02-.19-.04-.28-.07-.15-.04-.31-.07-.46-.11-.11-.02-.21-.05-.32-.07-.13-.03-.27-.06-.4-.09-.11-.02-.21-.05-.32-.07-.12-.03-.25-.05-.37-.08-.1-.02-.21-.04-.31-.06-.12-.02-.23-.05-.35-.07-.1-.02-.2-.04-.29-.05-.12-.02-.24-.04-.36-.06-.08-.01-.17-.03-.25-.04-.02,0-.05,0-.07-.01,0,0,0,0-.01,0h0c-.16-.03-.31-.05-.47-.07-.09-.01-.18-.03-.27-.04-.1-.01-.19-.03-.29-.04-.09-.01-.18-.02-.27-.03-.09-.01-.17-.02-.26-.03-.09-.01-.18-.02-.27-.03-.08,0-.16-.02-.24-.02-.09,0-.18-.02-.26-.02-.07,0-.15-.01-.22-.02-.09,0-.17-.01-.26-.02-.07,0-.13,0-.2,0-.32-.01-.62-.02-.91-.02-.05,0-.11,0-.16,0-.08,0-.16,0-.24,0-.05,0-.11,0-.16,0-.08,0-.15,0-.23,.01-.05,0-.1,0-.15,.01-.08,0-.15,.01-.22,.02-.05,0-.09,0-.14,.01-.08,0-.15,.02-.22,.03-.04,0-.07,.01-.11,.02-.12,.02-.25,.04-.37,.06-.02,0-.04-.02-.05-.03-.1-.05-.2-.1-.31-.15-.02,0-.04-.02-.06-.03-.13-.06-.26-.11-.4-.16,0,0-.02,0-.03,0-.12-.04-.25-.08-.38-.12-.03,0-.05-.01-.08-.02-.12-.03-.24-.06-.36-.09-.02,0-.05-.01-.07-.01-.44-.09-.89-.14-1.34-.14-.01,0-.03,0-.04,0-.15,0-.29,0-.44,.01,0,0,0,0,0,0-1.74,.1-3.39,.86-4.11,2.34-.95,1.96,.04,3.69,1.6,4.78-.25,.63-.58,1.23-.96,1.81-1.61,2.42-4.22,4.51-6.38,7.13,0,0,0,0,0,0-.41,.5-.81,1.02-1.18,1.57-.02,.03-.04,.07-.06,.1-.09,.14-.19,.29-.28,.43-.03,.05-.06,.09-.09,.14-.08,.14-.17,.28-.25,.42-.03,.05-.05,.09-.08,.14-.09,.17-.19,.34-.27,.52,0,.02-.02,.03-.03,.05-.1,.2-.19,.39-.28,.6-.02,.04-.04,.09-.06,.13-.07,.15-.13,.31-.19,.47-.03,.07-.05,.14-.08,.21-.05,.14-.1,.28-.15,.42-.02,.08-.05,.15-.07,.23-.05,.15-.09,.3-.13,.45-.02,.07-.04,.14-.06,.21-.06,.22-.11,.45-.15,.68-.06,.29-.14,.56-.27,.85-.13,.28-.3,.56-.51,.84-.44,.55-1.06,1.08-1.83,1.51-1.53,.87-3.57,1.32-5.54,1.21-1.98-.1-3.89-.76-5.33-1.95-.36-.3-.69-.64-.99-1-.15-.18-.29-.38-.43-.58l-.3-.48-.33-.49c-.15-.21-.31-.42-.47-.62-.04-.05-.08-.1-.12-.14-.16-.2-.32-.39-.49-.58,0,0,0,0,0,0-.18-.2-.37-.4-.57-.6-.02-.02-.05-.05-.07-.07-.19-.19-.39-.37-.59-.55,0,0,0,0,0,0,0,0,0,0,0,0-.32-.28-.66-.56-1.01-.81-1.28-.93-2.72-1.62-4.21-2.04-1.49-.42-3.03-.58-4.54-.48-1.51,.1-2.99,.45-4.35,1.06-1.37,.61-2.62,1.48-3.62,2.6-.5,.56-.93,1.17-1.28,1.83-.09,.16-.17,.33-.24,.5l-.2,.45c-.12,.29-.26,.57-.4,.86-.56,1.13-1.2,2.22-1.98,3.2-.78,.96-1.71,1.85-2.86,2.29-.57,.21-1.2,.31-1.81,.19-.31-.06-.61-.16-.9-.31-.29-.15-.55-.33-.8-.55,.22,.25,.46,.47,.73,.67,0,0,.02,.01,.03,.02H.76s0,0,0,0c.13,.09,.27,.18,.42,.25,0,0,0,0,.01,0,.07,.03,.14,.07,.21,.1,.08,.03,.15,.06,.23,.09,.65,.23,1.37,.24,2.06,.1,.68-.15,1.33-.44,1.92-.8,.59-.36,1.14-.79,1.64-1.25,1.01-.93,1.87-1.99,2.65-3.11,.19-.28,.38-.56,.56-.85l.27-.42c.08-.12,.16-.24,.24-.35,.34-.46,.73-.87,1.17-1.22,1.75-1.43,4.11-2,6.32-1.8,.28,.02,.55,.06,.82,.11,1.9,.34,3.64,1.23,4.91,2.52,.74,.73,1.33,1.58,1.78,2.51l.16,.35,.13,.31,.03,.07c.17,.38,.36,.75,.57,1.11,.42,.72,.91,1.41,1.46,2.05,1.11,1.27,2.45,2.33,3.9,3.13,1.45,.8,3.01,1.36,4.61,1.7,1.6,.34,3.24,.47,4.89,.38,.18-.01,.36-.02,.54-.04-.62,.33-1.26,.63-1.94,.88-1.77,.67-3.71,1.06-5.7,1.19-.5,.03-1,.05-1.5,.04-.25,0-5.06-.23-5.06-.23-2.34-.11-4.73-.21-7.19-.12-2.46,.1-5.01,.37-7.56,1.16-1.27,.4-2.53,.94-3.71,1.65-.16,.09-.31,.19-.47,.29-.02,.01-.04,.03-.07,.05-.13,.09-.27,.18-.4,.27-.01,0-.02,.02-.03,.02-.81,.58-1.56,1.24-2.23,1.97l-.34,.38-.34,.42c-.22,.28-.43,.57-.62,.87-.39,.59-.71,1.21-.99,1.85-.55,1.27-.88,2.59-1.04,3.92-.31,2.64,.05,5.28,.98,7.7,.93,2.41,2.46,4.63,4.54,6.22,1.04,.79,2.2,1.42,3.42,1.84,1.22,.42,2.49,.65,3.75,.69,.63,.02,1.25,0,1.87-.06,.62-.06,1.24-.15,1.85-.3,1.22-.29,2.41-.76,3.47-1.44,1.06-.68,1.99-1.54,2.74-2.52,.75-.98,1.32-2.08,1.73-3.21,.48-1.33,.73-2.75,.76-4.16,.01-.71-.03-1.43-.14-2.13-.11-.69-.29-1.21,.08-1.87,.05-.09,.11-.17,.19-.22,.09-.06,.21-.06,.31-.11,.08-.04,.14-.13,.13-.2,0-.02,0-.04-.02-.06-.4-.13-.86,.05-1.14,.36-.28,.32-.41,.75-.43,1.17,0,.12,0,.24,0,.36,0,.24,.02,.48,.02,.72,0,.12,0,.24-.01,.36-.05,.59,.02,1.19-.03,1.78-.14,1.73-.59,3.53-1.54,4.99-.87,1.35-2.07,2.51-3.5,3.25-.93,.49-1.95,.8-2.99,.96-.52,.08-1.05,.11-1.58,.12-.53,0-1.07-.02-1.59-.09-2.09-.24-4.02-1.09-5.51-2.45-1.49-1.35-2.54-3.17-3.11-5.11-.57-1.95-.66-4.04-.27-5.96,.2-.96,.52-1.87,.96-2.69,.22-.41,.47-.79,.74-1.14,.14-.18,.28-.34,.43-.5l.23-.23,.26-.24c1.39-1.26,3.09-2.06,5.01-2.48,1.91-.42,4.01-.48,6.16-.37,2.15,.11,4.36,.39,6.62,.7l4.31,.59c.31,.04,.61,.07,.92,.1,.02,0,.04,0,.05,0,.65,.06,1.3,.1,1.96,.12,2.22,.06,4.48-.14,6.72-.64-.83,1.24-1.61,2.59-2.23,4.07-.39,.93-.7,1.89-.94,2.87-.23,.98-.39,1.96-.47,2.93-.16,1.89-.12,3.95,.41,5.96,.06,.24,.13,.47,.2,.71,.06,.18,.12,.35,.18,.52,.02,.05,.03,.1,.05,.15,.08,.22,.17,.43,.27,.65,0,0,0,0,0,0,.09,.21,.19,.42,.3,.63,0,0,0,.02,.01,.03,0,0,0,0,0,0,.52,1.02,1.18,1.97,1.99,2.81,1.5,1.54,3.49,2.64,5.66,2.94,1.08,.15,2.2,.11,3.27-.17,1.07-.27,2.08-.76,2.93-1.43,.85-.66,1.55-1.48,2.07-2.35,.53-.87,.89-1.8,1.13-2.73,.24-.93,.37-1.86,.42-2.77,.05-.92,.03-1.81-.08-2.73-.11-.91-.3-1.83-.63-2.72-.34-.89-.82-1.76-1.53-2.47-.7-.71-1.63-1.25-2.64-1.4-1-.17-2.02,.04-2.86,.49-.6,.32-1.12,.76-1.53,1.26-.88,1.17-.84,2.5-.78,2.58,.07,.08,.8-1.12,1.05-1.41,.12-.16,.26-.31,.4-.44,0,0,0,0-.01,.01,.09-.09,.19-.17,.28-.25,.02-.02,.04-.04,.06-.05,.1-.08,.2-.15,.3-.22,0,0,0,0,0,0,.1-.07,.21-.13,.31-.18,.03-.01,.05-.03,.08-.04,.11-.05,.22-.1,.33-.15,.67-.26,1.4-.3,2.04-.11,.64,.19,1.19,.6,1.61,1.13,.41,.54,.69,1.2,.87,1.91,.17,.71,.24,1.46,.23,2.22,0,.76-.08,1.54-.21,2.29-.13,.75-.32,1.48-.58,2.15-.52,1.34-1.37,2.45-2.41,3.06-1.03,.61-2.25,.75-3.38,.43-.13-.03-.26-.08-.38-.12-.04-.01-.08-.03-.12-.05-.09-.03-.17-.07-.26-.11-.04-.02-.09-.04-.13-.06-.08-.04-.16-.08-.24-.13-.04-.02-.08-.04-.12-.07-.11-.06-.21-.13-.32-.2-.05-.04-.1-.07-.15-.11-.05-.04-.11-.08-.16-.12-.06-.05-.11-.09-.17-.14-.04-.04-.09-.08-.13-.11-.06-.05-.11-.11-.17-.16-.19-.19-.38-.4-.54-.62-.73-.97-1.18-2.16-1.35-3.44-.18-1.28-.06-2.62,.23-4.05,.29-1.38,.76-2.64,1.43-3.81,.66-1.17,1.53-2.27,2.56-3.4,1.03-1.13,2.21-2.29,3.42-3.57,1.08-1.14,2.18-2.4,3.2-3.75,.07,.1,.14,.2,.21,.29l.33,.45,.34,.42c.92,1.12,1.89,2.08,2.87,2.97,.98,.89,1.98,1.7,2.98,2.48,.1,.08,.24,.19,.39,.3,.37,.28,.74,.56,1.11,.84l.33,.25c.1,.07,.2,.15,.3,.22,.2,.15,.39,.31,.58,.48,.75,.66,1.44,1.42,2.03,2.26,1.17,1.68,1.95,3.7,2.18,5.81,.23,2.11-.13,4.32-1.12,6.28-.5,.98-1.15,1.89-1.95,2.7-.79,.81-1.72,1.51-2.73,2.09-.23,.13-.46,.25-.69,.37-.05,.02-.1,.05-.14,.07-.22,.11-.44,.21-.67,.3-.07,.03-.14,.06-.21,.08-.2,.08-.4,.16-.61,.23-.09,.03-.18,.06-.27,.1-.16,.06-.33,.11-.49,.16-.1,.03-.19,.06-.29,.09-1.12,.32-2.28,.55-3.45,.68,2.43,.12,4.94-.12,7.32-1,1.19-.44,2.34-1.04,3.4-1.81,1.05-.77,2.01-1.71,2.81-2.79,1.59-2.16,2.52-4.84,2.68-7.59,.17-2.75-.39-5.56-1.59-8.11-.6-1.28-1.37-2.49-2.27-3.6-.23-.28-.46-.55-.71-.81-.12-.13-.25-.26-.37-.39l-.22-.23s.02,.03,.03,.03c0,0-.04-.04-.1-.1,.69,.26,1.39,.48,2.09,.68,1.81,.5,3.63,.83,5.44,1,.9,.09,1.81,.13,2.71,.15,.45,0,.9,0,1.35,0l1.24-.04c2.78-.12,5.59,.53,7.93,1.99,1.17,.73,2.2,1.66,3.01,2.76,.81,1.1,1.38,2.36,1.63,3.7,.24,1.34,.16,2.74-.28,4.09-.21,.64-.5,1.23-.9,1.78-.4,.54-.92,1.03-1.49,1.44-2.33,1.66-5.73,2.14-8.58,1.01-.71-.29-1.38-.68-1.98-1.17-.3-.25-.58-.54-.83-.84-.24-.3-.46-.61-.66-.95-.09-.17-.21-.34-.28-.52l-.24-.55c-.07-.19-.12-.38-.18-.57-.03-.1-.06-.19-.09-.29l-.06-.3c-.19-.79-.21-1.61-.22-2.43-.09,.81-.17,1.65-.08,2.48l.03,.31c.01,.1,.04,.21,.05,.31,.04,.21,.07,.42,.12,.62l.18,.61c.05,.21,.15,.4,.23,.6,.34,.78,.81,1.53,1.41,2.16,.6,.63,1.31,1.17,2.08,1.59,.2,.1,.39,.21,.59,.3l.61,.26,.63,.21c.21,.07,.43,.11,.64,.17,.86,.2,1.74,.31,2.64,.31,1.78-.02,3.59-.41,5.23-1.31,.82-.45,1.6-1.01,2.26-1.71,.67-.7,1.22-1.54,1.63-2.42,.8-1.7,1.16-3.64,1.06-5.57-.12-1.93-.71-3.83-1.66-5.51-.18-.32-.38-.63-.58-.93-.04-.07-.09-.13-.13-.2-.08-.11-.16-.22-.24-.33-.05-.07-.11-.15-.16-.22-.08-.1-.16-.2-.24-.3-.06-.08-.12-.15-.19-.23-.08-.09-.16-.19-.24-.28-.07-.08-.14-.16-.21-.24-.08-.09-.16-.17-.24-.25-.08-.09-.16-.17-.25-.25-.08-.08-.15-.15-.23-.23-.1-.09-.2-.19-.3-.28-.07-.06-.13-.12-.2-.18-.17-.15-.34-.29-.52-.44-2.8-2.28-6.3-3.61-9.84-4.01,2.6-.83,5.01-2.04,7.2-3.49,3.31-.3,5.79-1.04,7.63-2.06,.03-.02,.06-.03,.08-.05,.34-.19,.66-.4,.96-.61,.02-.01,.04-.03,.05-.04,.13-.1,.26-.2,.39-.3,.02-.01,.03-.03,.05-.04,.28-.22,.53-.45,.76-.69,.02-.02,.03-.03,.05-.05,.23-.24,.44-.49,.64-.74,.01-.01,.02-.03,.03-.04,.09-.12,.17-.23,.25-.35,0-.01,.02-.02,.03-.04,.17-.26,.33-.52,.47-.79,0-.02,.02-.04,.03-.05,.14-.27,.26-.54,.37-.82,0-.01,.01-.03,.02-.04,.05-.13,.09-.26,.14-.38,0-.01,0-.03,.01-.04,.09-.28,.17-.56,.23-.84,0-.02,0-.04,.01-.06,.06-.28,.11-.56,.15-.84,0-.02,0-.03,0-.05,.02-.13,.03-.26,.04-.39,0,0,0,0,0,0,.15-.07,.29-.15,.44-.22,1.15-.54,2.35-1,3.58-1.32,1.23-.31,2.5-.51,3.78-.51,.64-.01,1.28,.05,1.92,.14,.64,.1,1.27,.26,1.89,.46,.61,.22,1.21,.48,1.79,.8,.57,.33,1.11,.72,1.63,1.15-.44-.5-.93-.97-1.46-1.4Zm-46.74,4.76c-.56-.66-.96-1.37-1.2-2.1-.04-.13-.08-.27-.12-.4,.53,0,1.06-.03,1.61-.05,0,0,0,0,0,0,0,0,.02,0,.03,0,.05,0,.09,0,.14,0,.11,.16,.22,.32,.33,.48,0,0,0,.01,.01,.02,.09,.13,.19,.26,.28,.38,0,0,0,0,.01,.01,.4,.53,.84,1.05,1.31,1.55,0,0,.01,.01,.02,.02,.12,.12,.24,.25,.36,.37t0,0c.5,.5,1.04,.97,1.63,1.42,0,0,0,0,0,0,.8,.61,1.67,1.17,2.65,1.67-.73-.09-1.45-.23-2.14-.42-.16-.04-.31-.09-.46-.14-.04-.01-.08-.03-.12-.04-.12-.04-.24-.08-.35-.12-.04-.01-.07-.03-.11-.04-.3-.11-.6-.24-.88-.37-.02,0-.04-.02-.06-.03-.13-.06-.26-.13-.39-.2-.01,0-.02-.01-.03-.02-.29-.15-.56-.32-.83-.49,0,0,0,0,0,0-.13-.09-.26-.18-.38-.27,0,0,0,0,0,0-.5-.37-.94-.78-1.31-1.22Z"/>
  </g>
</svg>