<?xml version="1.0" encoding="utf-8"?>
<!-- Generator: Adobe Illustrator 19.1.0, SVG Export Plug-In . SVG Version: 6.00 Build 0)  -->
<svg version="1.1" id="Layer_1" xmlns="http://www.w3.org/2000/svg" xmlns:xlink="http://www.w3.org/1999/xlink" x="0px" y="0px"
	 viewBox="0 0 48 48" style="enable-background:new 0 0 48 48;" xml:space="preserve">
<style type="text/css">
	.st0{fill:#808080;}
</style>
<path class="st0" d="M44.9,36.2c0,0-0.3-0.7-1-1c0,0-1.2-1.4-1.5-2.9c0,0-0.5-2.4-1.1-3.4c-0.2-0.3-0.3-0.7-0.4-1.1
	c0-0.2,0-0.5,0-0.7c0,0,0-2.1-0.9-2c0,0-0.2-1.1-0.5-1.6c0,0-1.6-2.5-0.6-5.3c0.2-0.4,0.3-0.9,0.4-1.3c0.2-1.2,0.8-3.7,1.8-5.2
	c0.2-0.2,0.3-0.5,0.3-0.8c0.2-1.1,0.5-3.8-1.1-4.2c0,0-0.4,0-0.7,0.8c-0.1,0.3-0.2,0.5-0.4,0.8c-0.7,1.1-2.5,4.1-2.6,5.6l-0.6,2
	c-0.2,0.8-1.1,1.3-1.9,1.1c0,0-0.1,0-0.1,0c-0.3-0.1-0.6-0.4-0.7-0.7C32.5,14,28.7,2.5,21.8,0.8c0,0-0.7-0.3-2-0.6
	c-5-1-10,0.8-13.4,4.5c-2.2,2.4-4.7,6.1-4.5,10.1c0,0.2,0,0.4,0,0.6c0,2.2,0,13.8,2.1,17.6c0.2,0.3,0.3,0.7,0.3,1.1
	c0.1,1.8,0.1,6.8-1.5,7.5c-0.1,0-0.2,0.2-0.2,0.3c-0.1,0.3-0.1,0.9,1.1,1c0.1,0,0.2,0.1,0.2,0.2c0,0.2,0,0.5-0.4,0.9
	c0,0-0.6,0.8-0.3,1.5c0,0-0.3,0.7,0.2,0.7c0,0,1,0.1,1.1-0.1c0,0,1.2,0.1,1-1.2c0,0,0-0.3,0.5-0.7c0,0-0.3,0.7-0.2,1.1
	c0,0-0.2,0.8,0.5,0.9c0,0,1.8,0.4,1.8-0.1c0,0,2,0.7,1.8-0.5c0,0,0.9,0.3,0.7-0.3l-0.1-0.3c-0.1-0.2-0.1-0.5,0-0.7
	c0.1-0.2,0.1-0.5-0.1-0.9c0,0-1.3-2.1-0.7-4.9c0,0,0.4-10.5,2.2-9.2c0,0,1,1.1,1.9,0.2c0.2-0.2,0.4-0.2,0.7-0.1l0.1,0
	c0.3,0.1,0.5,0.4,0.5,0.7c0.2,1.4,0.6,5.2,1.2,6.6c0,0,0.9,4.8-0.3,6.9c0,0-0.2,0.6,0.2,0.9c0,0-0.8,2.9,0.6,2.8
	c0,0-0.1-0.1-0.1-0.3l0.5-1.2c0,0,0.2,2.3,2.3,2.2c0,0,0.7,0,0.6-0.2l0.9,0.1c0,0,1.8,0.6,1.5-0.2c0,0,2.1,1.2,1.4-0.5
	c0,0-0.6-1.2-1.3-1.7c0,0,1.4-0.2,2.1,0c0,0,1.7,0.3,0.8-0.8c0,0,1.6,0,0.6-0.9l0.8-1.1c0,0,0.9-0.4,1-1.5c0,0,0.3,0.3,0.2,0.8
	c0,0-1,2.3-0.5,2.2c0,0,0.8-0.3,1.7-2.3c0,0,1.5-2.4,1.7-3.1l2.2-6.3c0.1-0.3,0.5-0.4,0.7-0.1c0.6,0.7,1.6,1.9,2.3,2.3
	c0,0,3,3,3.8,5.5c0,0,1.1,1.8,2.2,0.7c0,0,2.3,0.8,3.8-1.1C45.8,39.6,47.2,37.2,44.9,36.2z M25.6,42.5l-0.5,0.9c0,0-0.5-0.3-0.7-0.3
	c0,0,0.8-1.4,1.1-1.1C25.4,41.9,25.8,42,25.6,42.5z M26.9,37.8c0,0-4.1,1.2-2.9,3.3c0,0-0.6,0.7-0.6,1.8c0,0-1.8-0.8-1.9-2.4
	c0,0,0-5.6,1.2-6.8c0,0,1.8-1.5,2.1-3.1c0,0,1.6,0.1,2.1-0.2c0,0,0.5,2.5,1.4,3.2C28.3,33.7,27.8,37.4,26.9,37.8z M36.2,28.4
	c0,0-2,0.7-1.5-1.4C34.7,27,36.7,26.9,36.2,28.4z"/>
</svg>
