<?xml version="1.0" encoding="utf-8"?>
<!-- Generator: Adobe Illustrator 19.1.0, SVG Export Plug-In . SVG Version: 6.00 Build 0)  -->
<svg version="1.1" id="Layer_1" xmlns="http://www.w3.org/2000/svg" xmlns:xlink="http://www.w3.org/1999/xlink" x="0px" y="0px"
	 viewBox="0 0 48 48" style="enable-background:new 0 0 48 48;" xml:space="preserve">
<style type="text/css">
	.st0{fill:#808080;}
</style>
<path class="st0" d="M48,5.5c0-0.1,0-0.1,0-0.2C48,5,48,4.1,47.6,3.7c-0.1-0.1-0.1-0.1-0.2-0.2c-0.2-0.3-0.6-1.1-1.3-1.1
	c0,0-0.1,0-0.1,0c-0.2-0.1-1.1-0.5-1.6-0.5C44.1,1.8,44,2,44,2.1l0,0.3c0,0-4.6-4-9-1.4c-0.1,0.1-0.3,0-0.4-0.1
	c-0.4-0.6-1.9-1.8-5.3,0.2c-0.1,0-0.1,0.1-0.2,0.1c-0.4,0.3-2.2,1.8-0.8,2c0,0,1.3-0.1,2,0.1c0.3,0.1,0.3,0.4,0.1,0.6
	c-0.8,0.7-2.6,2.7-3.1,5.2c0,0.2-0.1,0.4-0.3,0.5c-0.5,0.6-1.9,2.1-4.8,3.5c0,0-8.1,5-7.1,5.3c0,0-6,5.7-6.2,7.4
	c0,0-0.1,1.9,2.2-1.5c0,0.1-0.9,1.8-1,2.6c-0.1,0.3-0.2,0.6-0.4,0.9C8.9,29.2,7,32,6.3,33.1c-0.1,0.2-0.3,0.4-0.5,0.5
	c-0.7,0.4-2.1,1.7-1.9,4.7c0,0-0.3,2.2,0.8,1.7c-0.1,0.1-2,2-2,2.5c0,0-2.4,2.2-2.7,3.4c0,0-0.1,1,0,1.2c0,0,1.2-0.3,1.6-1.1
	c0,0,0.7-0.7,1.4-0.6c0,0,1.8,0.2,2.1-1c0,0,0.8-0.3,0.9-0.1c0,0,0.8,1.3,2.2,0.5c0,0,4.8-2.6,6.6-2.9c0,0,0,0,0.1,0
	c0.2,0,1.5-0.2,3-1c0,0,2.2-0.9,3.2-1.3c0.2-0.1,0.4,0.1,0.4,0.3c-0.1,0.8-0.1,2.2,1.2,3.6c0.4,0.5,0.6,1.1,0.5,1.7
	c-0.1,0.2-0.1,0.5,0.1,0.7c0,0-0.4,1.4,0.4,1.8c0,0-0.2-0.7-0.1-1c0,0,0.3,0.6,1.1,0.6c0.9,0,9.5,0.2,10,0c0,0,0.3-0.6,0.6-0.4
	c0,0,0.2,0.2,0.3,0.8c0,0,0.3,0,0-1c0,0,0.5-0.4,0.3-1c0,0,1.2,0.5,1.3,1.3c0,0,0.3-0.7-0.4-1.4c0,0,1,0.3,1.3,1.3
	c0,0,0.1-0.3-0.1-0.9c0,0,0.3,0.4,0.4,0.6c0,0,0-2.6-3.3-1.9c0,0-0.6,0-1.2,0.2c-0.1,0-1.3,0.1-1.7,0c-0.1,0-0.2-0.1-0.3-0.2
	c-0.3-0.4-1.1-1.4-2-1.2c-1.1,0.2,5.4-11.4,7.1-12.9c0,0,0,0,0,0c0.4-0.5,7.5-8.5,8.4-13c0,0,1.8-9.3,1.6-11.8
	c0-0.1,0.1-0.2,0.2-0.2C47.4,6,48.1,6,48,5.5z M37.7,7.1c-0.9,0.8-1.5,0.1-1.5,0.1c-0.8-1.2,0.4-1.5,0.4-1.5
	C38.2,5.7,37.7,7.1,37.7,7.1z M43.8,7.9c0,0-0.7,0.8-1.4,0c0,0,0.8-1.3,1.2-1.4C43.6,6.5,44.4,7.1,43.8,7.9z"/>
</svg>
