<?xml version="1.0" encoding="utf-8"?>
<!-- Generator: Adobe Illustrator 19.1.0, SVG Export Plug-In . SVG Version: 6.00 Build 0)  -->
<svg version="1.1" id="Layer_1" xmlns="http://www.w3.org/2000/svg" xmlns:xlink="http://www.w3.org/1999/xlink" x="0px" y="0px"
	 viewBox="0 0 48 48" style="enable-background:new 0 0 48 48;" xml:space="preserve">
<style type="text/css">
	.st0{fill:#808080;}
</style>
<path class="st0" d="M47.8,19.5c-0.2-0.1-0.4-0.2-0.7-0.2c-0.5,0-1.8-0.2-4.1-1.8c0,0-2.4-2-5.7-2.6c-0.1,0-0.2-0.1-0.4-0.1
	c-0.5-0.1-2.2-0.6-3.9-0.3c-0.1,0-0.3,0-0.4,0l-10.8,0.3l0,0c0,0-0.1-0.9-1.8-0.8l-1.9-0.9c0,0,0-0.1,0.3-0.1c0,0-0.8-0.6-1.4-0.6
	c0,0,0.1,0,0.3,0c0,0-0.6-0.2-0.8-0.2c0,0,0.1-0.1,0.3-0.1c0,0-0.7-0.5-2.2,0c0,0,0.1-0.3,0.3-0.3c0,0-1-0.4-1.7,0.2
	c0,0-0.1-0.2-0.1-0.4c0,0-0.4-0.1-0.8,0.2c-0.1,0.1-0.3,0.1-0.5,0.1c-0.3-0.1-0.7-0.2-0.2-0.6c0,0-1.1-0.6-3,0.7
	c0,0,0.1-0.5,0.5-0.8c0,0-1,0.3-1.1,0.6c0,0-0.2-0.4-0.4-0.1c0,0-0.1-0.3,0.2-0.6c0,0-0.6,0-1,0.5c0,0-0.2-0.5,0-1
	c0.1-0.3,0.1-0.3,0.1-0.2c-0.1,0.1-0.2,0.3-0.4,0.4c-0.2,0.1-0.4,0.4-0.4,0.7v-1.2c0,0-0.8,0.9-0.8,1.4c0,0-0.8-0.4-0.8-1.3
	c0,0-0.3,0.6-0.1,1.3c0,0-0.4-0.7-0.8-0.8c0,0,0.7,0.8,0.6,0.9c0,0-0.5-0.4-0.9-0.5l0.6,1.3c0,0-0.5-0.1-0.8,0.1
	c0,0,0.6,0.9,0.6,1.6c0,0-0.5,0.6-0.7,0.7l0.5,0.2c0,0-0.3,0.4-0.7,0.8c0,0-0.3,0.3-0.4,0.7c-0.1,0.3-0.3,0.6-0.5,0.9
	c-0.3,0.4-0.7,1-1,1.3c0,0-1.2,1.1-0.8,1.5c0,0,0,0.2,0.4,0.5c0.1,0.1,0.2,0.2,0.2,0.4c0.1,0.4,0.5,1.4,2,1.2c0,0-0.3,0.4,0,0.9
	c0,0-0.1,1.2,1.1,1.1c0,0,0.6,0.1,0.8-0.9c0-0.1,0-0.1,0.1-0.2C4.8,23.2,5,23,5.1,23.5c0,0,0.9,2.3,2.5,2.3c0.2,0,0.4-0.1,0.5-0.2
	l0.3-0.3l0,1c0,0,0.5-0.5,0.6-0.9l0.1,1l0.3-0.5c0,0,0.5,2.8,2,2.8c0.2,0,0.4,0.1,0.6,0.3l0.3,0.3c0,0.1,0.1,0,0.2,0l0.1-0.4
	l0.1,0.8c0,0.1,0.1,0.1,0.1,0l0.2-0.4c0,0,0.4,4.4,0.2,5.1c0,0-0.3,1.6-1.1,1.6c0,0-0.1,0-0.1,0c-0.2-0.1-1.1-0.3-1.6,0.2
	c0,0-0.7,0.9-0.1,1.2c0,0,0.3,0.2,1.2,0.2c0,0,2.1,0.3,2.6-0.5c0,0,0.7-1.1,0.7-1.5c0,0,0.7,0.2,0.5-0.6c0-0.2,0-0.4,0-0.5
	c0.2-1,1-4,1.6-5c0,0,0,0.6,0.2,0.8c0,0-0.1-0.3,0.1-0.6c0-0.1,0.2-0.1,0.2,0c0.1,0.2,0.3,0.4,0.4,0.7l0.1-0.6c0-0.1,0.1-0.1,0.1,0
	l0.2,0.3l0.2-0.6c0-0.1,0.1-0.1,0.1,0c0,0.2,0,0.4,0,0.6l0.2-0.3l0,0.8l0.3-0.3l-0.1,0.5l0.4-0.4c0,0,0.2,1.1,0,2.2
	c-0.1,0.2-0.1,0.5,0,0.7c0.1,0.5,0.4,1.3,1.6,1.6c0,0,1.1,0.8,1.4,0.3c0,0,0.4-0.1,1.1,0.6c0,0,0.4,0.2,0.9,0.1c0,0,0.5,0.4,1.3,0
	c0,0-0.2-0.2,0-0.4c0,0,0.3-0.6-0.3-1c0,0-0.3-0.7-0.9-0.5c0,0-0.8-0.7-1.3-0.4c0,0-0.7-0.3-0.5-0.7c0,0,1.1-2.6,1.3-3.4
	c0-0.1,0.1-0.2,0.2-0.2c0.1,0,0.2,0,0.3,0c0.1,0,0.2-0.1,0.2-0.2c0-0.2-0.1-0.5-0.4-0.7c0,0,1.1,0,1.2-0.4c0,0-0.6-0.5-0.5-0.7
	c0,0,0.4,0,0.6-0.1c0.2-0.1,0.3-0.1,0.5-0.1c0.6,0,1.9-0.1,2.4-0.6c0,0,1-1,2.4-1.2c0,0,1.2-0.6,1.7-0.9c0.1-0.1,0.2,0,0.2,0.1
	c0,0.5,0,1.6,0.2,2c0,0,0.7,4.4-0.1,5.7c0,0-1.3,2.3-2.2,2.2c0,0-1.2-0.4-1.5,0.7c0,0-0.3,0.6,0.6,0.8c0,0,0.6,0.4,1.1,0.2
	c0,0,1.5,0.5,1.8-0.3c0,0,0.4-0.9,1-1.3c0.2-0.1,0.4-0.3,0.5-0.5l1.7-2.2c0,0,0.4-0.4,0.2-1c0,0-0.2-2.1,1-3.9c0,0,1,1.9,1.9,2.5
	c0,0,1.5,1.3,1.3,2.5c0,0-0.1,2.8-0.9,2.3c0,0-1.1-0.1-1.3,0.8c0,0.2,0,0.4,0.2,0.5c0.2,0.2,0.7,0.4,1.2,0.2c0,0,0.3-0.5,0.9,0
	c0,0,1,0,1.1-0.6c0,0,0-0.8,0.3-1.4c0.1-0.3,0.2-0.5,0.3-0.8c0.1-0.7,0.4-1.7,0.5-2.1c0,0,0.4-0.9-0.2-1.6c0,0-0.9-0.7-1.1-2.2
	l-0.1-5c0,0,0.5-0.4,0.3-0.8c0,0,0.7,0.2,0.7-0.5c0,0,0.1-0.5-0.5-0.8c-0.1-0.1-0.2-0.1-0.2-0.3L41,19.8c0-0.1,0-0.3,0.1-0.4l0,0
	c0.2-0.3,0.5-0.4,0.8-0.3l2.5,1c0.1,0.1,0.1,0.2,0,0.3c-0.3,0.2-1,0.4-1,1c0,0.1,0.1,0.2,0.2,0.3c0.4,0.1,1.6,0.4,2.7-1.1
	C46.4,20.6,48.7,20.2,47.8,19.5z M2.6,17.9c0,0,0.2-0.6,0.3-0.7c0,0,0.1,0.4,0.2,0.4C3,17.6,2.8,17.5,2.6,17.9z"/>
</svg>
