<?xml version="1.0" encoding="utf-8"?>
<!-- Generator: Adobe Illustrator 19.1.0, SVG Export Plug-In . SVG Version: 6.00 Build 0)  -->
<svg version="1.1" id="Layer_1" xmlns="http://www.w3.org/2000/svg" xmlns:xlink="http://www.w3.org/1999/xlink" x="0px" y="0px"
	 viewBox="0 0 48 48" style="enable-background:new 0 0 48 48;" xml:space="preserve">
<style type="text/css">
	.st0{fill:#808080;}
</style>
<path class="st0" d="M43.1,38.8c0,0-0.6-0.4,0.8-0.4c0,0-4.2-4.1-10-7c-1.1-0.6-2.2-1.4-3-2.4c-0.9-1-2.3-2.4-4-3.5
	c-0.2-0.1-0.5-0.3-0.7-0.5c-0.7-0.7-2-2.3-2.6-5.1c0-0.1,0-0.1,0-0.2c-0.1-0.7-1-6.3-6.1-6.2c0,0,0.1-0.5-0.1-0.9
	c0-0.1,0-0.2,0.1-0.2c0.3,0,0.9,0.1,1.5,0.3c0,0-0.5-0.6-1.9-0.6c0,0,5.3-1.2,6-3.2c0,0,0.1-1-0.4-1.1c0,0-0.9,0.5-3.7,1
	c0,0-2,0.6-2.5,1.5c0-0.1,0.3-1.3,2.9-1.8c0,0-2.4-0.5-4.5,2.9c0,0.1-0.1,0.1-0.2,0l0,0c0,0,0-0.1,0-0.1c0.2-0.4,1.6-3.2,2.2-3.8
	c0,0,0.2-0.8-0.5-0.1c0,0-1.9,2.7-2,3.6c0,0.1-0.1,0.1-0.1,0.1c-0.1,0-0.3-0.1-0.5-0.1c0,0-0.1,0-0.1-0.1l2-3.8c0,0,1.7-2.9,1.7-5
	c0,0,0.1-0.7-0.6-0.8c-0.1,0-0.1,0-0.1,0.1c-0.1,0.5-0.6,2.9-1.2,3.7c0,0-0.1,0-0.1,0c0-0.1,0-0.2,0.1-0.3c0-0.1-0.1-0.2-0.1-0.1
	c-0.1,0.2-0.2,0.3-0.2,0.4c0,0-0.1,0-0.1,0c0.3-0.8,1.3-4,0.2-3.4c-0.1,0-0.1,0-0.1-0.1c0-0.5-0.2-1.6-1-1.7c-0.1,0-0.1,0.1-0.1,0.1
	c0.1,0.5,0.5,2.7-0.8,5.6c0,0-0.6,1.3-0.7,1.8c0.2-1.1,1-6.2-0.9-7.2c0,0-0.1,0-0.1,0.1c0.1,0.8,0.6,5.3,0,6.5c0,0,0-6.4-2.8-6.2
	c-0.1,0-0.1,0.1-0.1,0.2C9,1.4,10.2,3.3,10,6.7c0,0-0.2,1.9-0.1,2.7C9.8,8.5,9,4.7,7.5,2.9c0-0.1-0.1-0.1-0.1-0.2
	C7.2,2.3,6.1,0.6,4.5,1.1c0,0-0.1,0.1,0,0.1c0.4,0.3,2,1.5,2.3,2.7c0,0,0,0,0,0.1l1.3,3.8c0,0-2.8-6-5-5.3C3,2.5,3,2.6,3,2.6
	c0.4,0.3,2,1.6,2.1,1.9c0,0,2.4,4.9,2.7,6c0,0,0.7,3.4,3.1,5.6c0.1,0.1,0.2,0.3,0.1,0.5c-0.3,0.7-1,2.5,0.8,4.4l0-0.2
	c0,0,0.9,0.8,2.3,0.3c0,0,0.2-0.1,0.2,0.3c0,0,0.6,4.2,0.2,4.6c0,0-1.7,1.6-0.4,3.6c0,0,2.7,4.6,5.7,7.2c0.5,0.5,1,1,1.3,1.6
	c0.4,0.7,0.8,1.6,0.5,2c0,0-1.4-0.3-1.6-0.1c0,0-1.6,0.9-1.4,1.1c0,0-0.9,0.2-0.8,0.4c0,0-1.2,0.3-1.4,0.7c0,0-1.4,0.6-0.4,1.7
	c0,0-0.2-0.9,0.3-1c0,0,0.2,0.7,0.8-0.2c0,0,0.4,0,0.5-0.2l0,0.5c0,0-0.2,0.2-0.2,0.4c0,0-0.6,1.3,0.9,1.5c0,0-0.7-0.7-0.5-1
	c0,0,0.4,0.1,0.5-0.3c0,0,0.1,0,0.1,0.1c0,0,0,0.9,0.7,0.8c0,0-0.6-0.5,0-0.7c0,0,0.7,0,0.7-0.1c0,0,0.2,0.2,0.4,0.1
	c0,0-0.4,0.2-0.2,0.5c0,0,0.2,0,0.5-0.2c0,0,1,0.1,1-0.3l0.9,0c0,0,1.2,0.6,2,0.3c0,0,0.1-0.1,0.2,0.1c0,0,0.2,0.1,0.4,0
	c0,0,0.5,0.5,0.8,0.1c0,0,0.4,0,0.5,0.6c0,0,0.2-0.8-0.5-1.2c0,0-0.1-0.5-0.7-0.5c0,0,0.9-2.6,0.9-3.3c0,0,5.1-0.4,12.6,4.6
	c0,0,1.7,1.6,1.8,1.1c0,0,0.1-0.2,0.5,0.1c0,0,2.6,2.2,2.9,2c0,0,0.1,0,0.1,0c0-0.1,0-0.3-0.6-0.6c0,0-0.8-1.3-2.3-1.9l-2.5-2.2
	l-0.3-0.6L38.5,42l0.3,0.2c0,0-0.1-1.2-0.5-1.7c0,0,0.7,0.1,1,0.5c0,0-0.5-1.1-0.8-1.7l-0.5-1.8l1.3,1.6c0,0,1.5,0.1,1.9-0.3
	c0,0,1.6,0.8,3.3,2.2C46.1,42.3,43.5,39,43.1,38.8z M12.6,19.5c0,0.1,0.1,0.2,0.1,0.2l-0.4,0.4l-0.2,0c-0.1,0-0.2,0.1-0.2,0.1
	l-0.2,0c-0.2,0-0.1-1.1-0.1-1.1c0-0.3,0.5-0.2,0.5-0.2c0.3,0,0.6-0.1,0.6-0.1C12.4,19.3,12.6,19.5,12.6,19.5z M15.5,15.9
	c0,0-0.2,0.7-0.6,0.5c0,0-0.2-0.1-0.3-0.3c0,0-0.1-0.8,0.5-0.6C15.2,15.5,15.7,15.4,15.5,15.9z M22.9,42.7c-0.1-0.1-0.7-0.1-0.7-0.1
	c-0.1-0.2-0.3,0-0.3,0c-0.1-0.1-1.5,0.4-1.5,0.4c-0.1,0-1.2,0-1.2,0c-0.4,0,0-0.5,0-0.5c0.2,0,0.3-0.5,0.3-0.5
	c1.4,0.6,1.9-0.4,1.9-0.4c0.2,0.2,0.8,0.2,0.8,0.2c0.4,0.4,0.7,0.2,0.7,0.2c0,0.2,0.3,0.1,0.3,0.1C23.3,42.4,22.9,42.7,22.9,42.7z
	 M23.3,42.9c0,0-0.2,0-0.1-0.1c0,0,0.2-0.4,0.3-0.3C23.5,42.6,23.5,42.8,23.3,42.9z"/>
</svg>
