<?xml version="1.0" encoding="utf-8"?>
<!-- Generator: Adobe Illustrator 19.1.0, SVG Export Plug-In . SVG Version: 6.00 Build 0)  -->
<svg version="1.1" id="Layer_1" xmlns="http://www.w3.org/2000/svg" xmlns:xlink="http://www.w3.org/1999/xlink" x="0px" y="0px"
	 viewBox="0 0 48 48" style="enable-background:new 0 0 48 48;" xml:space="preserve">
<style type="text/css">
	.st0{fill:#808080;}
</style>
<path class="st0" d="M47.9,25.8c0,0-2.8-8.2-5.9-10.8c-0.1-0.1-0.2-0.3-0.2-0.4c0.1-0.8,0.3-3.4-1-4.6c0,0-0.8,2-1,2.8
	c0,0.1-0.2,0.2-0.3,0.2c-0.5-0.1-1.4-0.4-1.5-0.1c0,0-1.3-2.3-3.5-0.5c-0.3,0.2-0.7,0.3-1,0.1c-0.8-0.4-2.2-1.2-2.8-1.6
	c0,0-16.3-11.2-19.8,11.3c-0.1,0.6-0.3,1.1-0.5,1.6c-0.1,0.2-0.2,0.4-0.4,0.7c-0.3,0.6-0.8,1.1-1.3,1.4l-7.1,4.3c0,0-2.9,2-0.5,5.3
	c0,0,3.4,3.7,11,4.5c0,0-9-4-9.7-5.6c0,0-1.1-1.8,2.8-3.7l5.1-3.3c0.4-0.2,0.8-0.4,1.3-0.5c1.1-0.1,3-0.1,3.8,1.2l3,1.5
	c0,0,6.3,0.3,6.7,0.7c0,0,0.8,0.3,0.4-0.4c0,0,0.9-0.1,1.3,0.2c0,0,1.4,0.3,1.2-0.5c0,0,0.3,0,0.3-0.3c0,0,0.3,0.1,0.5,0.4
	c0,0,0.1-0.2-0.4-0.7c0,0,0.2-0.1,0.5,0.2c0,0,0.1-0.2-0.5-0.6c0,0-0.3-0.6-1.8-0.4c0,0-0.1-0.3-2.2-0.2c0,0-0.2-0.6-2.9-0.1
	c0,0-2.2,0.1-2.6-0.9c0,0,3.5,0.7,5.7-0.4c0,0,5.5,1.3,9,3.2l2.2,1.6c0,0,0.7,0.2,0.3-0.6c0,0,0.6-0.4,1.6,0.5c0,0,0.9,0.7,1,0
	c0,0,0.2,0,0.3,0.3c0,0,0.1-0.5-0.5-0.8c0.1,0,1.5,0.5,1.5-0.1c0,0,0.2,0,0.3,0c0,0,0.2,0.1,0.2,0.2c0,0,0-0.2-0.4-0.5
	c0,0-0.6-1-0.1-1c0,0,1.1,1.1,1.4,0.4c0,0,0.2-0.2,0.3,0.2c0,0,0.2-0.2,0-0.5c0,0,0.4,0,0.4-0.3c0,0,0.2-0.2,0.4,0.1
	c0,0,0-0.7-0.9-0.7c0,0-0.4-0.9-1.1-0.7c0,0-0.5-0.6-1.5-0.3c0,0-1.3-0.7-1.1-1.4c0,0,0.4-1.5,2.9,0c0,0,1,0.7,2.8,0.8
	c0,0,1.4,1.1,3.4-0.1C46.8,27.1,48.4,27.3,47.9,25.8z M37.8,29.6c-1.2,0-2.7-1-2.7-1c-0.2-0.4-0.5-0.6-0.7-0.7
	c-0.2-0.1-0.2-0.3-0.2-0.5c0.1-0.9,0.9-0.3,0.9-0.3c0.2,0.4,0.4,0.1,0.4,0.1c0.4-0.3,1,1.5,1,1.5c0.2,0.4,0.6,0.3,0.6,0.3
	C37.4,28.9,37.8,29.6,37.8,29.6z M43,21.6c-0.6,0.6-1.6,0.2-1.6,0.2c-0.9-0.6-0.4-1.3-0.4-1.3c1.2-0.9,1.9,0.5,2,1
	C43.1,21.5,43.1,21.6,43,21.6z"/>
</svg>
