<?xml version="1.0" encoding="utf-8"?>
<!-- Generator: Adobe Illustrator 19.1.0, SVG Export Plug-In . SVG Version: 6.00 Build 0)  -->
<svg version="1.1" id="Layer_1" xmlns="http://www.w3.org/2000/svg" xmlns:xlink="http://www.w3.org/1999/xlink" x="0px" y="0px"
	 viewBox="0 0 48 48" style="enable-background:new 0 0 48 48;" xml:space="preserve">
<style type="text/css">
	.st0{fill:#808080;}
</style>
<path class="st0" d="M44.8,29.4c-0.5-0.7-2.3-2.9-5.9-3.4c-0.2,0-0.4-0.1-0.6-0.1c-1-0.3-4.8-1.4-6.3,0.4c0,0-0.7-1.7-2.6-2.3
	c0,0-1.1-0.5-1.2,2.9l-0.9-0.3c0,0,0.5-4.3-1-4l-2.2,0.5c0,0-0.9-3.3-2.2-2.9l-0.9,0.7c0,0-1.1-3.3-2.5-2.8l-2.2,1c0,0-1.3-0.9-2-1
	c-0.2,0-0.3-0.1-0.4-0.2c-0.4-0.4-1.4-1.2-2.1-1.4c-0.2-0.1-0.3-0.2-0.4-0.4c-0.1-0.6-0.5-1.9-1.2-2.2c-0.1-0.1-0.2-0.2-0.2-0.3
	c0-0.6-0.1-2.1-1.1-2.7c-0.1-0.1-0.2-0.2-0.1-0.3C9,9.9,9.2,8.2,8.3,7.6c-0.1,0-0.1-0.1-0.1-0.2C8.3,7,8.5,5.7,8.3,5.1
	c0-0.1,0-0.2,0.1-0.3c0.7-0.2,2.7-0.9,3.3-1.5c0.1-0.1,0.2,0,0.3,0.1c0.2,1.2,0.8,4.5,3.2,5c0,0-1.7-1-0.5-2.7c0,0,1.6-2.3-1.5-3.7
	c-0.1,0-0.2-0.1-0.2-0.2c-0.2-0.2-0.9-0.7-1.7-0.3c-0.2,0.1-0.4,0.2-0.6,0.2C9.3,2,4.4,3.5,5.9,7.6C6,7.8,6,8,5.9,8.2
	c-0.2,0.6-0.7,1.9,0.2,2.7c0.3,0.2,0.4,0.6,0.3,0.9c-0.2,0.7-0.2,1.8,0.6,2.6c0.2,0.2,0.3,0.5,0.3,0.8c0,0.6,0.1,1.6,1,2.2
	c0.3,0.1,0.4,0.4,0.4,0.7c-0.1,0.7-0.2,2,0.8,2.3l-0.2,0c-0.2,0-0.3,0.3-0.3,0.5c0.3,0.8,1.1,2.5,2,2.6l-0.3,0
	c-0.3,0-0.4,0.3-0.2,0.5c0.7,0.9,2.4,2.7,5.2,4c0.2,0.1,0.3,0.2,0.3,0.4l0,0.5c0,0.1-0.1,0.2-0.3,0.1c-1.1-1-5.3-4.4-7.1-4
	c0,0,0,0-0.1,0c-0.3,0-2.8,0.4-4.5,1.6c0,0-1,1.1-3.4,1.3c0,0-0.8,0-0.8,0.6c0,0,0.3-0.3,0.6-0.1c0,0,0.7,0.5,2.2-0.1
	c0,0,2.6-0.8,3.2-1.6c0.1-0.1,0.3-0.2,0.4-0.2C7,26.7,8.3,26.8,9.3,26c0,0,0.4-0.3,0.5,0.2c0,0,0.1,1.5,3.8,2.8c0,0-3-0.3-5.2,1.8
	c0,0-3.4,2.8-3.8,3.1c0,0-1.6,0.7-1.8,0.9c0,0,0.8-0.3,0.2,0.1c0,0,0.2,0.1,1-0.2c0,0,2.8-1.7,4.1-2.7c0.4-0.3,0.8-0.5,1.3-0.6
	c0.4-0.1,1.1-0.4,1.8-0.9c0.6-0.4,1.3-0.6,2-0.4l2.3,0.6c0.3,0.1,0.5,0.5,0.3,0.7c-0.6,0.7-1.5,2-1.6,2.8l-1.6,3.7
	c0,0-0.2,0.5-1,1.3c0,0-0.2,0.3,0.1,0.4c0,0,0.6-0.9,0.3-0.2c0,0-0.1,0.3,0,0.4c0,0,0.7-0.9,0.9-1.2l1.7-3c0,0,2-4.3,2.4-4.1
	c0,0,1.5,0.5,2.7,0.1c0.2-0.1,0.4-0.1,0.6,0c0.6,0.2,1.8,0.6,2.7,0.2c0,0,0.8-0.1,1,0.6c0,0.2-0.1,0.3-0.3,0.3
	c-0.7-0.1-2.3-0.2-2.6,0.3c0,0-1.2,1.4-1.8,2.9c0,0-1.3,3.6-1.4,4.7c0,0-0.7,1.3-0.5,1.6c0,0,0.6-1.1,0.4,0c0,0,0.5-0.4,0.5-1
	c0,0,1.3-3.4,1.6-4.6c0.1-0.2,0.1-0.4,0.3-0.6c0.4-0.6,1.2-1.9,1.3-2.4c0,0,0.1-0.2,0.3,0c0,0,1.4,0.4,2.6-0.2c0,0-1.7,2.4-1.3,3.3
	c0,0,0.1,4.5,2.1,5.5c0.6,0.3,1.2,0.7,1.7,1.2c0.8,0.7,2,1.6,2.9,1.7c0.3,0.1,0.7,0.1,1,0.3c1.7,0.7,6.6,2.3,9.1-0.2
	c0,0-2.7,0.9-3.6,0.3c-0.1-0.1-0.2-0.1-0.3-0.1c-0.4,0-1.4,0-1.6-0.3c-0.1-0.1-0.2-0.2-0.4-0.2c-0.6-0.1-1.6-0.3-0.3-1.2
	c0,0,0.8-0.8,1.5-0.5c0.1,0.1,0.3,0,0.4,0c0.3-0.2,0.9-0.4,1.3-0.3c0.2,0,0.3,0,0.5-0.1c0.4-0.3,1.3-0.7,1.9-0.4c0,0,0.3-1-2-0.9
	c0,0-3.7,0.2-4.3-1.4c-0.1-0.2-0.1-0.3-0.2-0.5c-0.7-1.2-3.3-5.1-7.2-2.2c0,0-0.2-0.3,0.9-0.9c0,0,1.1-0.6,1.2-1.6
	c0-0.2,0.2-0.4,0.4-0.5c0.4-0.1,0.9-0.6,0.8-1.8c0-0.2,0.1-0.4,0.3-0.5c0.3-0.1,0.6-0.5-0.2-1.1c0,0,1.3,1,2.3,0.2
	c0,0,0.5,0.1,0.7-0.5c0.1-0.3,0.3-0.6,0.6-0.9l0.8-0.7c0.1-0.1,0.3-0.2,0.5-0.1c0.4,0.1,1,0.3,1.1,0.6c0,0,0-0.6-0.8-0.9
	C34,28.5,34,28.3,34,28.2c0.3-0.5,1-1.3,1.4-1c0,0,0.7,0.3,1,1c0.2,0.4,0.5,0.8,0.9,1c0.9,0.6,2.7,1.4,5,1.2c0,0,1.2-0.3,1.8,0.6
	c0,0,1,1.4,1.1,2.3c0,0,0.3,0.7,0.4-0.5c0-0.2,0.2-0.2,0.3-0.1c0.6,0.5,2,1.7,1.5,2.4c0,0,0.4,0.2,0.5-0.6c0,0-0.1-2.3-2.7-4.7
	C45.1,29.7,45,29.5,44.8,29.4z M19.9,21.8c0,0-2.3-1.9-2.6-1.9c0,0,1.2-0.5,1.4-0.8c0,0,1.4,2.3,1.6,2.3L19.9,21.8z M22.4,23.4
	c0,0-0.8-1.6-0.9-1.6c0,0,0.7-0.7,0.7-0.7s0.9,1.9,1.2,2.2C23.4,23.3,22.7,23.8,22.4,23.4z M24.6,24.6c-0.5-0.8,1.7-0.8,1.7-0.8
	c0.5,0.3,0.5,2.4,0.5,2.4C26.2,25.9,24.6,24.6,24.6,24.6z M31.1,27.9l0,0.6c0,0-1.5-0.3-2.1-0.2c0,0,1-0.3-0.1-1.4
	c0,0,0.8-1.8,0.7-2.2c0,0,1.3,1.6,1.7,1.4C31.4,26.2,31.8,27.1,31.1,27.9z"/>
</svg>
