<?xml version="1.0" encoding="utf-8"?>
<!-- Generator: Adobe Illustrator 19.1.0, SVG Export Plug-In . SVG Version: 6.00 Build 0)  -->
<svg version="1.1" id="Layer_1" xmlns="http://www.w3.org/2000/svg" xmlns:xlink="http://www.w3.org/1999/xlink" x="0px" y="0px"
	 viewBox="0 0 48 48" style="enable-background:new 0 0 48 48;" xml:space="preserve">
<style type="text/css">
	.st0{fill:#808080;}
</style>
<path class="st0" d="M47.7,33.4c0,0,0.5-0.7-0.8,0.2c0,0-1.6,1.5-3.6,1.1c0,0-0.6-0.3-1-0.6c0,0-3-1.5-4.3,1.1c0,0-0.3-0.4-0.5-0.4
	c0,0-0.6-0.8-0.6-1.2c0-0.2-0.1-0.4-0.2-0.5c-0.3-0.4-0.9-0.9-1.3-0.9c0,0-0.5,0.3-0.6,0l0.4-0.6c0,0,0.4-0.1,0.2-0.1
	c0,0,0.8,0.1,0.8-0.1c0,0,0.8,0.5,1,0.5c0,0,0,0.1,0.1,0.2c0,0,0-0.4,0.2-0.4c0,0,0.2-0.1,0.2-0.2c0,0-0.1,0.1-0.4,0l-1-0.4l0.2-0.1
	c0,0-0.1,0-0.2,0c0,0-0.5-0.1-0.5-0.1s2.3-2,2-2.8c0,0,1.6-0.4,0.7-1.1c0,0-0.2-1.2-1-1.3c0,0,0.4-0.7,0.2-0.8l0-0.6
	c0,0,0.4-0.6-0.1-1.2c0,0,0-0.3,0.3-0.4c0.2,0,0.3-0.1,0.5-0.2l0,0c0,0,0.7-0.7,0.4-0.8l0,0c0-0.1,0.1-0.2,0.1-0.2
	c0.2-0.2,0.5-0.7-1-1.1c0,0-0.4-1.5-2.9-2.5c0,0,0-0.5,0.4-0.5c0,0,1-0.5,1.8-1.5c0.2-0.2,0.4-0.3,0.6-0.3l0.8,0
	c0,0,0.2,1.4,2.7,1.2c0,0,1.1-0.1,1.8-0.6c0,0,1.2-0.4,2.4,0.4c0,0,1.1,0.6,1.4,1.1c0,0,0.6,0.6,0.8,0.5c0,0,0.2-0.2-0.1-0.3l0-0.2
	c0,0,0.5,0.2,0.2-0.3c0,0-0.9-1.6-3.3-2.6c0,0-0.8-0.3-1.3-0.8c0,0-4.1-1.9-5.2-0.4c0,0-0.3,0.1-0.3,0c0,0-0.4-0.1-0.9,0.1
	c0,0-3.9,2.2-3.7,3.7c0,0,0.1,0.1,0,0.2c0,0-0.2,0.2,0.1,0.5c0,0,0.7,1,1.2,1.4c0,0,0.1,0.8,0.5,1.3c0,0-0.5,0.1,0,0.7
	c0,0-0.3-0.1-0.4,0.1c0,0-0.2,0.1-0.3-0.1c0,0,0-0.3-0.3-0.1c0,0,0.4-1.2-1.3-1.6c0,0-1.6-2-2.6-2.4c0,0,1.3-1.4,0.8-3.1
	c0,0,1.2,0.3,1.6,0c0,0,2.1,0,2.2-0.5c0,0,0.6-1.2,0.9-1.1c0,0,0-0.2-0.4-0.2c0,0-0.3-0.3-0.5-0.2c0,0,0.2,0.2,0.3,0.3
	c0,0-0.5,0.9-0.5,1c0,0-2.3,0.1-3.1,0.1c0,0-1.4-0.2-1.6,1.2c0,0-1,2.8-0.1,3.4c0,0,1.3,1.5,2.7,2.2c0,0-0.1,0.1,0.1,0.3
	c0,0,0,0.2,0.3,0.3l0.2,0.2c0,0-0.2,0-0.3,0.2c0,0-0.9-1.1-1-0.8c0,0-1.4-1.4-2-1.1c0,0-1.3-1.4-3.5-2.2c0,0-0.1-0.2-0.3-0.1
	c0,0,1.4-2.2,0.4-3.9c0,0,0.1-0.2,0.6-0.2c0,0,3-1.5,3.2-2c0,0,0.2-0.3,0-0.1c0,0-0.1-1.8,0.6-1.6c0,0,0-0.4-0.5-0.1
	c0,0-0.6-0.4-0.6,0c0,0,0.2-0.1,0.3,0.2l0,1.3c0,0-4,1.9-4.1,2.4c0,0-1.3,4.2,0,5l3.7,2c0,0,0.2,0.5,1.1,0.8c0,0-0.2,0.1-0.2,0.3
	c0,0-1.8-0.9-2.1-1c0,0-2.1-0.6-2.5-0.2c0,0-3.1-0.5-5,0.2c0,0-1.3-3.2-3-3.4c0,0,0.4-1.3,0.2-1.7c0,0,0-3.3-0.4-2.6l-0.8-1.4
	c0,0,0.2-0.3,0.3-0.3h0.1c0,0-0.2-0.3-0.5,0.2c0,0-0.7,0.1-0.6,0.4c0,0,0.2-0.2,0.3,0l0.9,1.1c0,0,0,3-0.2,3.7c0,0-0.4,0.8,0.6,1.8
	c0,0,2,3.1,3.1,3.1c0,0-1.4,0-1.8,0.6c-0.1,0.1-0.2,0.2-0.3,0.2c-0.6,0.1-2.4,0.4-3.3,1.4c-0.1,0.1-0.3,0.2-0.4,0.2
	c-0.6,0-2.1,0.1-2.5,0.5c-0.1,0-0.1,0.1-0.2,0c-0.5-0.2-2.5-0.7-3.1,0.2c0,0-2.7-1.8-3.6-0.4c-0.1,0.1-0.2,0.1-0.3,0
	C5,23.4,3.7,21.6,2,22.4c0,0,1.1-2.4-0.1-6.1c0-0.1,0.1-0.3,0.2-0.2c0.1,0,0.3,0.1,0.5,0.3c0,0,3.1,4.2,4.6,3.1c0,0-1.5,0.1-1.7-2.3
	c-0.1-0.7-0.4-1.4-0.9-2c-0.5-0.5-1.3-1-2.4-0.8c0,0-1.2,0-1.7,1.7c0,0-1.2,5.7,0.5,7.3c0.1,0.1,0.2,0.2,0.3,0.3
	c0.5,0.5,1.8,1.9,3.3,1.9c0.3,0,0.5,0.1,0.8,0.1h0c0,0,1.6,1,3.1,0.6c0.3-0.1,0.6-0.1,0.9,0c0.6,0.2,1.7,0.5,2.9,0.1
	c0.2-0.1,0.4-0.1,0.5,0c0.6,0.3,2,0.8,2.7,0c0,0,1.5,1.5,3.4,1.1c-0.2,0.1-2.6,0.9-2.5,1.6c0,0,0.2,2.4,0,2.9c0,0-1,1.5-1.4,1.1
	c0,0-0.2,0.3,0.4,0.4c0,0,0.4,0.5,0.6,0.2c0,0-0.6-0.1-0.2-0.3l0.9-1.1c0,0,0.2,0.1,0.2-0.2c0,0,0.6-1.5,0.3-2.6
	c0-0.2,0.1-0.3,0.2-0.3c0.8-0.1,2.7-0.3,4-1.5c0,0,2.5,1.4,4.8,0.9c0,0,2,0.1,4.2-1.6l0,0c0.1,0.1,0.1,0.2,0,0.3
	c-0.3,0.2-0.8,0.6-0.7,0.7c0,0-4,1-4.3,1.6c0,0-2.6,3.4-2.3,4c0,0-0.2,0.6,1.1,1.9c0,0,0.8,1.4,0.9,1.4c0.2,0,0,0,0,0
	s-0.1,1.6-0.5,1.3c0,0-0.1,0.3,0.5,0.1c0,0,0.5,0.3,0.5-0.1c0,0-0.3,0-0.3-0.1c0,0,0-1.5,0.2-1.3c0,0,0.1-0.3,0-0.4
	c0,0-1.1-2.5-1.8-2.7c0,0,1.5-1.1,1.9-2.9c0,0,0-1.1,0.7-0.8c0,0,2.6-0.6,3.6-1.4l0.3,0c0,0-1,0.7-1.2,1.1c0,0-1.8,3.1-1,3.8
	l3.7,2.1c0,0,0.4,0.8,0.6,0.9c0,0,0,0.2-0.3,0c0,0,0,0.4,0.5,0.1c0,0,0.6-0.1,0.4-0.4c0,0-0.1,0.4-0.3,0.1c0,0-0.8-0.7-0.7-0.9
	c0,0-1.4-1.3-1.9-1.4c0,0-0.6-0.8-1.4-0.7c0,0,1.5-1.5,1-3.1l2.6-1.8c0,0-0.2,3,0.2,3c0,0,0.6,0.1,1,0c0.1,0,0.2,0.1,0.3,0.2
	c0,0.2,0.1,0.7,0.5,1.2c0,0,2.4,3.6,3.4,2.8c0,0,0.2,0,0.2,0.2c0,0,0.4,1.3,3.3,0.7c0,0,1.7-0.2,2.8-1.2c0,0,0.2,0.2,1.7-0.5
	c0,0,1.5-0.7,1.9-1.2C47.5,34,48.5,33,47.7,33.4z M26.2,28.1l-0.9-0.2c0,0,0.8-0.4,1.3-0.1C26.6,27.8,26.1,27.9,26.2,28.1z
	 M34.9,26.5c0,0-0.2,0.2,0,0.4c0,0-0.4-0.1-0.8,0.4c0,0,0.1-0.5,0-0.6L34.9,26.5z M32.4,27.7l-1.3,0.9c0.1-0.1,0.7-0.6,0.7-1
	l0.2,0.1c0,0,1.2-1,1-0.6C33,27,32.2,27.4,32.4,27.7z M33.8,31c-0.2-0.1-0.7,0.3-0.7,0.3c0.5-0.6-0.1-2-0.1-2c-0.3-0.6,0-0.5,0-0.5
	c1.5-0.2,2.2-1.3,2.2-1.3c0.8-0.1,0.6-0.6,0.5-0.8c0.2,0.1,1.1,0.1,1.1,0.1c-0.6,0.5,0.1,0.7,0.1,0.7C36.3,27.6,33.8,31,33.8,31z"/>
</svg>
