<?xml version="1.0" encoding="utf-8"?>
<!-- Generator: Adobe Illustrator 19.1.0, SVG Export Plug-In . SVG Version: 6.00 Build 0)  -->
<svg version="1.1" id="Layer_1" xmlns="http://www.w3.org/2000/svg" xmlns:xlink="http://www.w3.org/1999/xlink" x="0px" y="0px"
	 viewBox="0 0 48 48" style="enable-background:new 0 0 48 48;" xml:space="preserve">
<style type="text/css">
	.st0{fill:#808080;}
</style>
<g>
	<path class="st0" d="M47.9,37c0,0-5.4-0.2-6.8-0.6c-0.1,0-0.2,0-0.3,0c-0.7,0-3.5-0.1-3.7-1.3c0,0,0-4.6,0.4-5c0,0,0.6-0.4,0.3-1.4
		c0-0.2-0.1-0.4-0.1-0.5c0-1.5,0.4-8.5,2.4-11c0,0,1.4-2.5,2.8-3.7l0.2-0.3c0,0.8-0.6,2.6-0.6,2.6c0.6-1.2,0.8-2.8,0.8-2.8l0-0.1
		l0.3-0.5c0,0.9-0.6,2.7-0.6,2.7c0.6-0.9,0.7-2.4,0.7-2.9l0,0l0.2-0.4c0,0.9-0.4,2.6-0.4,2.6c0.5-0.8,0.5-2.2,0.5-2.8l0.2-0.3
		c0.2,0.9-0.1,2-0.1,2c0.4-1.1,0.3-1.9,0.2-2.1l0,0c0,0,0.1-0.1,0.1-0.2l0,0c0.3,1.1,0.1,1.8,0,2c0.4-0.8,0.2-1.9,0.1-2.1
		c0,0,0-0.1,0.1-0.1l0,0c0.2,0.3,0.3,0.7,0.3,1.1c0-0.7-0.1-1-0.2-1.2c0,0,0-0.1,0-0.1c0.5,0.8,0.2,1.9,0.2,1.9c0.3-1,0-1.6-0.2-2
		l0,0c0,0,0-0.1,0-0.1c0.3,0.3,0.5,0.9,0.5,0.9c-0.1-0.5-0.4-0.8-0.5-1l0,0c0-0.1,0-0.1,0-0.2c0.2,0.1,0.5,0.4,0.5,0.4
		c-0.1-0.3-0.3-0.4-0.5-0.5l0,0c-0.1-0.4-0.3-0.8-0.9-1.1c0,0-0.6-0.5-1.7,0c-0.3,0.1-0.5,0.2-0.8,0.2c-0.3,0-0.8,0-1,0
		c0,0,0,0-0.1,0c-0.3-0.1-3.8-0.6-7,1.9c-0.4,0.3-0.8,0.7-1.1,1.2L28,18.1c0,0.1-3.3,3.9-3.8,4.7c-0.2,0.3-0.6,0.5-1,0.6
		c-1.5,0.2-5.2,0.8-7,1.4l-4.4,1.6c-1.4,0.5-2.4,1.3-2.9,2.7c0,0-1.5,3.4-0.8,5.2c0,0.1,0,0.3-0.1,0.3c-0.4,0.3-1.4,1-1.8,1.1
		c0,0-1.1,0.6-2.8,1c0,0-3.4,0.9-3.4,1c0,0-0.2,0.3,1.2,0.1c0,0-0.8,0.3,0.8,0.2c0,0-0.3,0.3,1.2,0.1c0,0-0.8,0.2-0.1,0.3
		c0,0-0.4,0.3,0.1,0.3c0,0,2.1,0.1,4.2-0.8c0.1,0,0.1,0,0.2-0.1c0.3-0.1,3.6-1.3,3.9-1.2c0.3,0.1,1.2,0.3,1.5,0
		c0.1-0.1,0.1-0.1,0.2-0.1c0.6,0.1,2.9,0.3,4.3,0.1c0.1,0,0.1,0.1,0.1,0.1c-0.2,0.2-0.6,0.7-1,0.8c0,0-0.2,0.1-0.2,0.3
		c0,0,0,0.1-0.1,0.1c-0.2,0-0.8,0.1-0.9,0.3c0,0-0.7,0-0.4,0.2c0,0-0.3,0.2-0.7,0.2c0,0-1,0.1-0.5,0.3c0,0-0.5,0.2-1.1,0.2
		c0,0,0,0,0,0c0,0.1,0.1,0.2,0.7,0.2c0,0,2.6,0.1,4.8-0.3c0,0,3.5-0.4,4.6-0.5c0,0,0.8,0,1.7-1c0.1-0.1,0.2-0.1,0.3-0.1
		c0.8,0,4.2,0.1,5-0.4c0,0,0.1,0,0.1-0.1c0.5-0.2,3-1.5,3.6-2.2c0,0,0.6,1,1.2,1.4c0.1,0.1,0.2,0.2,0.2,0.3c0,0.4,0.2,1.2,1.1,1.3
		c0,0,2.1,0.5,3.9,0.3c0.1,0,0.3,0,0.4,0C41.5,37.7,49,37.7,47.9,37z M38.5,9.8c0.4,0,0.6,0.2,0.6,0.6c0,0.3-0.3,0.6-0.6,0.6
		s-0.6-0.2-0.6-0.6C37.8,10,38.1,9.8,38.5,9.8z"/>
	<path class="st0" d="M44.2,13.3C44.2,13.3,44.2,13.4,44.2,13.3C44.2,13.4,44.2,13.4,44.2,13.3z"/>
	<path class="st0" d="M44.6,12.1c0,0.3-0.1,0.6-0.2,1C44.4,13.1,44.6,12.6,44.6,12.1z"/>
</g>
</svg>
