<?xml version="1.0" encoding="utf-8"?>
<!-- Generator: Adobe Illustrator 19.1.0, SVG Export Plug-In . SVG Version: 6.00 Build 0)  -->
<svg version="1.1" id="Layer_1" xmlns="http://www.w3.org/2000/svg" xmlns:xlink="http://www.w3.org/1999/xlink" x="0px" y="0px"
	 viewBox="0 0 48 48" style="enable-background:new 0 0 48 48;" xml:space="preserve">
<style type="text/css">
	.st0{fill:#808080;}
</style>
<path class="st0" d="M47.2,17.5c0,0-1.8-3.3-4.8-2.7c0,0-1.9,0.2-3.2,2.7c0,0-1.7,3.4-4.8,3c0,0-2.2-0.2-3.6-2.4
	c0,0-3.1-4.8-5.5-7.5c-0.9-0.9-1.9-1.6-3.1-2c-2.7-0.9-8.8-2.4-12.9-0.3c0,0-5.7,3.2-7.5,7.7c-0.2,0.4-0.3,0.8-0.6,1.1
	c-0.7,1.2-2,3.9,0,4.8c0,0,1.7,0.7,4.6,0.1l2-0.1c0.3,0,0.5,0.3,0.4,0.6c-0.4,1.2-1.3,3.9-2.2,5.2c-0.3,0.5-0.6,1-0.7,1.6
	c-0.2,1.2-0.5,3-0.4,4c0,0,0.1,0.4-0.5,0.5c0,0-1.5,0.4-1.3,1.1c0,0,0.3-0.4,0.6-0.2c0,0,0.3,0.3,0.7-0.1c0,0,0.4-0.1,0.3,0.3
	c0,0-0.3,1.7,1,1.8c0,0,0.4,1,1.1,0.8c0,0,0.6,1.1,1.2,0.5c0,0,0.5-0.1,0.8,0.3c0,0,0.3-0.8-0.6-1.2l-1.6-0.8c0.1,0,1.5,0.5,1.5,0.3
	c0,0,0.6,0.6,1,0.1c0,0,0.8,0.6,1.4,0.1l0.6,0c0,0-0.4,0.3-0.6,0.4c0,0-0.5,0.4-0.3,0.6c0,0,0.3-0.3,0.6-0.2c0,0,0.6,0.2,0.8-0.4
	l0.6,0c0,0-0.2,1.9,1.4,2c0,0,0.7,0.7,1.5,0.5c0,0,1.1,1,1.6,0.4c0,0,0.5,0.2,0.6,0.4c0,0,0-1.1-0.7-1.2c0,0-0.1,0-0.1,0
	c0,0,0,0,0,0c-0.2-0.1-1.9-0.5-2.2-0.8c0,0,0.4-0.1,0.5,0c0,0,0.5,0.6,1,0.3c0,0,0.8,0.5,1.3,0.2c0,0,1.1,0.6,1.5,0.2
	c0,0,0.6-0.1,1,0.2c0,0-0.3-1.3-1.4-1.2c0,0-1-0.4-1.9-0.2c0,0-2-0.4-2.3-1.7c0,0-1.4-4.7-0.3-7c0,0,3-7.2,5.2-7.5
	c0,0,5.5-1.4,6.9-0.5c0,0,5.3,3.3,9.9,1.9c0.1,0,0.2-0.1,0.4-0.1c0.5-0.1,2.4-0.7,4.7-4.4c0,0,1.2-2.2,2.9-0.9c0,0,1.1,0.6,2.2,1.1
	c0,0,1,0.6,1.3,1c0,0,0.3,0.5,0.5,0.3C47.9,20.3,48.5,19.5,47.2,17.5z M11.1,29.9c-0.4,1.3,1.1,6.2,1.1,6.2c0.2,0.7-0.6,0.7-0.6,0.7
	c-0.2-0.6-1.3-0.7-1.3-0.7c-2.8,0-3-0.6-3-0.6C5.9,35.2,6.8,32,6.8,32c0.2-3.1,5.6-8.6,5.6-8.6C12.8,24.1,11.1,29.9,11.1,29.9z
	 M45.8,17.2c-0.2,0-0.3-0.1-0.3-0.2c0-0.1,0.1-0.2,0.3-0.2S46,16.8,46,17C46,17.1,45.9,17.2,45.8,17.2z"/>
</svg>
