<?xml version="1.0" encoding="utf-8"?>
<!-- Generator: Adobe Illustrator 19.1.0, SVG Export Plug-In . SVG Version: 6.00 Build 0)  -->
<svg version="1.1" id="Layer_1" xmlns="http://www.w3.org/2000/svg" xmlns:xlink="http://www.w3.org/1999/xlink" x="0px" y="0px"
	 viewBox="0 0 48 48" style="enable-background:new 0 0 48 48;" xml:space="preserve">
<style type="text/css">
	.st0{fill:#808080;}
</style>
<path class="st0" d="M42.9,26.6c0,0-4.3,1.4-5.1,0.6L36,25.1c-0.4-0.4-0.7-0.9-0.9-1.5C35,23.4,35,23.2,35,23c0-0.1-0.1-0.2-0.1-0.2
	c-0.2-0.1-0.4-0.2-0.6-0.1c-0.1,0-0.3,0-0.4-0.1c-0.4-0.4-1.6-1.5-2.3-2c-0.3-0.2-0.5-0.4-0.7-0.7c-0.4-0.5-1.2-1.4-2.9-2.5
	c-0.3-0.2-0.6-0.3-0.9-0.5c-1.6-0.7-7-2.9-9.6-3.7c0,0-0.1,0.3-0.2,0.3l0-0.5c0,0-1.2-0.5-1.3-0.9l-0.1,0.3c0,0-0.1-0.1-0.1-0.5
	c0,0-0.6-0.8-0.5-1.3c0,0-1.1,2.3-1.3,4c0,0.3-0.2,0.5-0.4,0.6c-0.9,0.6-3.3,1.9-4.7,1.9c0,0-2,0-3.2-0.5L0,15.1c0,0-0.1,0.2,2,0.8
	c0,0,5.1,1.4,7.3,3c0.1,0.1,0,0.2-0.1,0.2c-0.8,0-3,0.2-3.4,0.6c0,0,2.3,0.1,3.6,1c0,0,1.3,0.7,2.1,1.1c0.4,0.2,0.8,0.3,1.2,0.4
	c0.6,0.1,1.5,0.1,1.9,0.1l1.2,4.6c0-0.1-0.6-4-0.8-4.6c0,0,6.7,0.2,9.5,1.5c0.3,0.1,0.5,0.4,0.5,0.7c0.1,0.8,0.2,2.3,0.7,2.7
	c0,0,0.5-1.3,1.5-2c0.3-0.2,0.7-0.3,1.1-0.2c0.9,0.2,2.6,0.5,3.5,0.8c0.3,0.1,0.5,0.3,0.6,0.6c0.1,0.3,0.2,0.5,0.5,0.3
	c0,0,1.7,0.3,1.9,0.4c0,0,1.9,0.8,1.8,1.7c0,0-0.6,3-0.8,3.8c0,0-0.9,3.6,0.5,4.7c0,0-0.4-1.4,0.1-2.6c0.3-0.9,1.1-4,2.1-4.2
	c0,0,0.5,0,1.5-1.2c0.2-0.3,0.5-0.5,0.9-0.7c1.4-0.6,4.9-2.2,7.1-1.7C48,26.9,46.2,25.7,42.9,26.6z M10.1,17.7
	c-0.2,0-0.3-0.1-0.3-0.3c0-0.1,0.1-0.3,0.3-0.3c0.2,0,0.3,0.1,0.3,0.3C10.3,17.6,10.2,17.7,10.1,17.7z"/>
</svg>
